<svg xmlns="http://www.w3.org/2000/svg" xmlns:xlink="http://www.w3.org/1999/xlink" viewBox="0 0 800 800"><defs><style>.cls-1{fill:none;}.cls-2{clip-path:url(#clip-path);}.cls-3{fill:#e5e6e6;}.cls-4{fill:#54899b;}.cls-5{clip-path:url(#clip-path-2);}.cls-6{fill:#2f152f;}.cls-7{fill:#f28f20;}.cls-8{clip-path:url(#clip-path-3);}.cls-9{fill:#985023;}</style><clipPath id="clip-path"><path class="cls-1" d="M645.51-57.23C536.62-36,8.61-39.64,3.61-74.59-7.29-232.57,72.43-598.72,224-657.41,488.69-761.32,799.31-179.82,645-57.14"/></clipPath><clipPath id="clip-path-2"><path class="cls-1" d="M692.8,769.15C514.56,771.34,181.58,822,68.74,752.28c-28.66-17.71-40.47-53.55-46.63-86.68C10.17,601.32,8.59,533.38,26.28,470.43c56-199.18,186.85-320,294.17-362.1C399.29,77.43,486,59.52,568.93,76.38s149.61,78.24,186.4,154.51c30,62.2,5,146.53,2.81,203.71-2.56,67.47,7.33,102.1,21.07,168.22,3.76,18.08,8.15,36.32,7.2,54.76-2.28,44.49-31.59,105.78-75.81,111.25Z"/></clipPath><clipPath id="clip-path-3"><rect class="cls-1" x="394.98" y="817.98" width="403.49" height="825.33"/></clipPath></defs><g id="November_Orders" data-name="November Orders"><g id="Layer_219" data-name="Layer 219"><g class="cls-2"><path class="cls-3" d="M2.62-143.61C172.49-356.93,47.49-612.84,316.9-573.37c56.91,9.23,69.71,82.69,72.34,129.36,11.09,139.1,64.17,294.88,168.33,385.11,4.3,7,80.26,22.55,78.57,30.56C502.63,90.8,235.9-7.63,62.45-1.85-4-21-23.81-58.72-12.64-113.24"/></g></g><g id="Layer_215" data-name="Layer 215"><path class="cls-4" d="M691.15,765.86C484.64,780.7,173.7,812.74,67.48,738,39.92,718.65,28,683.77,22.38,650.55,11.57,586.06,11.19,518.1,30,455.48,89.44,257.31,222.43,138.77,330.47,98.6,409.85,69.1,496.8,52.71,579.47,71s148.21,80.86,183.65,157.76c28.91,62.71,2.41,146.59-.76,203.72-3.75,67.43,5.53,102.22,18.11,168.57,3.44,18.14,7.5,36.46,6.23,54.88-3.06,44.45-33.44,105.21-77.75,109.9Z"/><g class="cls-5"><path class="cls-3" d="M49.69,385.89C98.13,315.83,179.78,263,243.9,206.89c169-147.74,334.59,37.81,320.65,80.7C483.47,537.08,512.91,586.67,856.3,654.71c35.64,7.07,15,138.14,3.16,172.49-18.13,52.56-292.39,61.53-346,76.17-135.39,37-282.25,30.65-414-17.8C35.38,862-29.17,824.51-57,762.19c-19.93-44.63-18.14-95.94-9.92-144.12A588.37,588.37,0,0,1,37,371.71a17.17,17.17,0,0,0,15.65,9.21"/></g><circle class="cls-6" cx="141.84" cy="238.31" r="66.74"/><path class="cls-7" d="M152.79,765.44c-18.44-5-52.21-26.93-66.42-39.84a100.24,100.24,0,0,1-28.24-44.38c-5.13-16.67-5.51-34.88.56-51.36C65.83,610.48,80.32,594.8,86.57,575a93.3,93.3,0,0,0-.92-58.33c-3.36-9.65-9.2-17.82-13.4-27-3.92-8.64-4.54-18.36,2.81-25.35,12.56-11.93,35.15-11,50.68-7,17.83,4.55,34,15.28,44.47,30.5a79.34,79.34,0,0,1,13.33,52.94A74.75,74.75,0,0,1,180.86,554l110.35-17.54c36.52-5.81,73-11.82,109.57-17.41,15.86-2.43,33.5-4.52,48.53,2.61,11.24,5.34,20.81,17.21,20.94,30,.14,14.92-13.22,23.09-25.07,28.93-15.72,7.76-31.73,15-47.91,21.72a873.13,873.13,0,0,1-98.93,34.46q-6.34,1.78-12.72,3.48c21.57-2.7,47,3.72,62.79,19.34,19.64,19.45-13.64,38.76-29.76,44.54a81.76,81.76,0,0,1-36.59,4.38c10.3,1.79,20.84,2.31,31,4.87,7.37,1.87,22.7,7,23.23,16.08.48,8.17-6.66,15.06-12.07,20.45C303.91,770.23,171.66,770.55,152.79,765.44Z"/><path class="cls-6" d="M590,417.81q19.81,19.05,38.67,39.08t36.66,41q10.05,11.82,19.75,23.91a44.53,44.53,0,0,0,28.29,11.72,44.53,44.53,0,0,0,28.28-11.72l6.25-8.09a39.89,39.89,0,0,0,5.47-20.19l-1.43-10.63a39.91,39.91,0,0,0-10.29-17.65q-17.21-21.45-35.48-42t-37.54-40.16Q657.71,372,646.52,361.24a44.53,44.53,0,0,0-28.29-11.72A44.53,44.53,0,0,0,590,361.24l-6.25,8.09a39.89,39.89,0,0,0-5.47,20.19l1.43,10.64A40,40,0,0,0,590,417.81Z"/><circle class="cls-6" cx="624.01" cy="483.06" r="59.46"/><path class="cls-6" d="M122,130.44l74.88-17.08,10.7-2.44c3.46-.79,6.92-1.72,10.42-2.23l-10.63,1.42a19.13,19.13,0,0,1,5.07,0l-10.63-1.43a14.61,14.61,0,0,1,3.31,1l-9.56-4a17.68,17.68,0,0,1,3.49,2.1L191,101.4a36.55,36.55,0,0,1,6.08,6.41l-6.26-8.09c7.6,9.91,14.83,20.13,22.22,30.2l18.23,24.81,13.58,18.5a30.26,30.26,0,0,0,10.31,11.22,35.89,35.89,0,0,0,29.55,7.87,29.78,29.78,0,0,0,14.87-4.74l8.1-6.26a40,40,0,0,0,10.28-17.65L319.35,153a39.78,39.78,0,0,0-5.46-20.19l-41.5-56.49c-4.16-5.68-8.26-11.42-12.53-17-3.67-4.8-7.46-10.6-12.33-14.5-3.32-2.66-7.38-6.39-11.59-8.36a92.57,92.57,0,0,0-11.3-4.66A70.57,70.57,0,0,0,211.53,30a17.08,17.08,0,0,0-2.77,0c-4.18.33-8.35,1-12.48,1.65-2.05.34-4.06.82-6.07,1.28l-12.16,2.78L154.22,41.1,100.73,53.3a30.2,30.2,0,0,0-13.6,7.16,30.15,30.15,0,0,0-10.3,11.22,29.73,29.73,0,0,0-4.75,14.88,30.38,30.38,0,0,0,.71,16l4,9.55a40.11,40.11,0,0,0,14.35,14.35l9.55,4a40.19,40.19,0,0,0,21.27,0Z"/><path class="cls-6" d="M272,354c-3.73,18.83-6.55,37.83-8.8,56.9-1.94,16.55-3.39,33.24-3.86,49.9C259,471.56,262.48,482,270,489.88A43.35,43.35,0,0,0,277,495.5c2.61,1.76,6,2.89,8.72,3.93a12.69,12.69,0,0,0,2,.61,74.74,74.74,0,0,0,10.1,1.37,52.23,52.23,0,0,0,10.06-.7c6-.77,12-1.55,18-2.82,14.14-3,27.72-8.07,41.27-13,15.28-5.55,30.73-11,46.9-13.25l-8,1.07c5.27-.71,10.79-1.36,16.1-.72l-8-1.07a19.17,19.17,0,0,1,4.53,1.2l-7.16-3a17,17,0,0,1,3.18,1.89l-6.07-4.69a25.68,25.68,0,0,1,4,4.11L408,464.34c5.24,6.8,9.5,14.56,13.71,22s8.07,14.89,11.81,22.48c7.6,15.44,14.48,31.22,21.32,47,13.45,31,26.72,62.42,45,91a326.68,326.68,0,0,0,20.62,28.34,210.27,210.27,0,0,0,19.34,21,22.38,22.38,0,0,0,9.65,6.2A22.66,22.66,0,0,0,561.05,705c7.86-.36,15.62-3,21.21-8.79a169,169,0,0,1,18.37-16.5l-6.07,4.69a168.68,168.68,0,0,1,37.26-21.74l-7.16,3q3.89-1.63,7.84-3.07a33.48,33.48,0,0,0,17.93-13.79A22.22,22.22,0,0,0,654,637.68a22.64,22.64,0,0,0-.53-12c-2.35-7.26-6.85-14.27-13.79-17.93s-15.59-5.76-23.12-3a192.38,192.38,0,0,0-64.24,37.29,164.55,164.55,0,0,0-12.47,11.73h42.42a213.79,213.79,0,0,1-22.16-24.62l4.69,6.07C551,617.37,539.89,597.67,530,577.45c-10.08-20.64-18.92-41.85-28.13-62.89s-18.77-41.95-30.26-61.84c-2.89-5-5.88-9.93-9-14.75A77.94,77.94,0,0,0,453,425.61a20.58,20.58,0,0,0-1.54-1.41,83.06,83.06,0,0,0-7.32-5.62,16.15,16.15,0,0,0-1.8-1c-2.42-1.21-5.19-2.28-7.71-3.27-.55-.22-1.09-.43-1.65-.6-8.5-2.54-17.7-2.15-26.39-1A200.83,200.83,0,0,0,381,417.28c-24.34,6.44-47.15,17.82-71.87,22.93-3,.63-6.11,1.16-9.19,1.57l8-1.07a46.31,46.31,0,0,1-11,.6l8,1.08a13.25,13.25,0,0,1-3.16-.82l7.17,3a9.21,9.21,0,0,1-1.55-.9l6.07,4.69a8.61,8.61,0,0,1-1.28-1.28l4.69,6.07a10.43,10.43,0,0,1-.77-1.33l3,7.16a11.72,11.72,0,0,1-.67-2.47l1.07,8a45.17,45.17,0,0,1,0-7.17q.18-4.09.4-8.19.45-8,1.11-16,1.32-16.2,3.48-32.3l-1.07,8Q326,389.27,329.83,370a22.79,22.79,0,0,0,.54-12,22.32,22.32,0,0,0-3.56-11.15A33.58,33.58,0,0,0,308.88,333l-8-1.07a29.85,29.85,0,0,0-15.14,4.1c-6.29,4.05-12.28,10.31-13.78,17.93Z"/></g></g><g id="Layer_245" data-name="Layer 245"><g class="cls-8"><rect class="cls-9" x="515.6" y="769.09" width="362.31" height="175.61" rx="23.24"/><rect class="cls-9" x="113.52" y="772.71" width="362.31" height="175.61" rx="23.24"/></g></g></svg>