<?xml version="1.0" encoding="UTF-8"?>
<svg viewBox="0 0 800 800" xmlns="http://www.w3.org/2000/svg">
 <defs>
  <style>.cls-1{fill:none;}.cls-2{clip-path:url(#clip-path);}.cls-3{fill:#ef8f21;}.cls-4{fill:#cad2d8;}.cls-5{fill:#676733;}.cls-6{fill:#54899b;}.cls-7{clip-path:url(#clip-path-2);}.cls-8{fill:#e5e6e6;}.cls-9{fill:#2f152f;}</style>
  <clipPath id="clip-path">
   <path class="cls-1" d="m769.76-86.15c-3.77 19.84-26.91 28.46-46.61 33a1091.8 1091.8 0 0 1-385.54 17.65c-52.68-7-111.43-22.47-136.92-69.1-14.61-26.71-15.1-58.56-15.82-89-2.19-92.69-6.75-163.22-19.53-255-1.33-9.51 47.58-81.78 54.86-88.94 64.35-63.38 122.53-63.32 212.4-54.3 85.43 8.58 171.92 35.77 234.93 94.1 69.23 64.08 102.71 158.64 116.23 252 9.31 64.23 16.54 102.36-14 159.62"/>
  </clipPath>
  <clipPath id="clip-path-2">
   <path class="cls-1" d="m586 739.12c24.16-353.52-478.28-533.67-527.62-271.56-5.92 63.67-30.55 189.69-35 233.09-1.08 10.35 6.23 17.61 13.92 24.6 99.38 86.83 466.18 43.62 548.73 13.87"/>
  </clipPath>
 </defs>
 <g id="Prior_to_November" data-name="Prior to November">
  <g id="hold_asparagus" data-name="hold asparagus">
   <g id="Layer_171" data-name="Layer 171">
    <g class="cls-2">
     <path class="cls-3" d="m272.41-20.07c149.46-37.47 127.48-218.16 129.74-335 53.44-215.73 301-221.58 403.07-37 369.68 571.33-509.42 600.39-532.81 372"/>
    </g>
   </g>
  </g>
 </g>
 <g id="November_Orders" data-name="November Orders">
  <g id="Knife">
   <path class="cls-4" d="M528.89,472.5c36.84-152.07,79.14-301,125-450.59l5.66-3.54c3.9-.89,5.1-.1,8.85,1.31C721.19,39.62,737.51,87,756.62,140.57c43,120.61,16.84,258.67-43.55,371.58Z"/>
   <path class="cls-5" d="m596.2 454.62c10.56 7 25.39 25.71 31.19 33.31a9.34 9.34 0 0 1 1.78 7.24c-8.34 48.22-17.9 100.48-26.18 148.47-1 6-2.19 12.27-5.54 16.81-5.61 7.62-15.13 7.68-23.44 7.16-13.5-0.84-27.2-1.73-40-7.1s-24.68-15.9-29.93-31.16c-4.93-14.31-3.46-30.66-1.45-46.07a774.23 774.23 0 0 1 33.26-145.2 9.32 9.32 0 0 1 11.66-5.94c11.19 3.53 31.11 10.86 48.65 22.48z"/>
   <g id="Layer_159" data-name="Layer 159">
    <path class="cls-6" d="M582,736.84C606.14,383.31,103.7,203.17,54.36,465.28,48.44,529,23.81,655,19.35,698.37,18.28,708.7,25.6,716,33.28,723,132.66,809.8,499.46,766.59,582,736.84"/>
    <g class="cls-7">
     <path class="cls-8" d="m138.06 791.15c-133.41 97 262.33-16.87 427.26-16.87s-58-475.82-320.53-402c-16.42 4.61-51.66 26.59-56.88 74.18-4.63 42.25 12.64 94.33 18.23 142.24 5 43.05-1.63 83.26-4.11 101-5.56 39.57-37.58 82.3-63.97 101.45z"/>
    </g>
    <path class="cls-9" d="M117,556.16c5-3,17.66,3.18,23,5.58,25.94,11.6,44.94,40.4,39.71,68.32a38.84,38.84,0,0,1-4.46,12.54A40.42,40.42,0,0,1,165,653.83c-18.32,14.17-45.12,16.32-65.47,5.25S66.4,624.33,68.36,601.25c1.22-14.28,8-28.33,19.42-37s27.65-11.14,40.59-5"/>
    <path class="cls-9" d="M451.8,483.54a382.27,382.27,0,0,0,3.89,51.14l-.42-3.14a13.84,13.84,0,0,1,0,3.28l.42-3.14a12.79,12.79,0,0,1-.83,3l1.19-2.82a11.46,11.46,0,0,1-1.32,2.24l1.85-2.39a10.92,10.92,0,0,1-1.78,1.75l2.39-1.85a9.38,9.38,0,0,1-1.85,1l2.82-1.19a8.69,8.69,0,0,1-1.75.47l3.14-.42a8.75,8.75,0,0,1-2.17,0l3.14.42c-2-.33-3.95-.88-5.9-1.33l-11.82-2.73-11.35-2.62c-2.79-.65-5.59-1.38-8.41-1.8a45.58,45.58,0,0,0-5.7-.63,30.88,30.88,0,0,0-5.91.62,12.71,12.71,0,0,0-2.54.74,31,31,0,0,0-5,2.34,62.92,62.92,0,0,0-7.15,5.47q-2.26,1.89-4.52,3.79L373.5,551.39c-4.4,3.68-8.77,7.38-13.19,11l-.45.37,2.39-1.85a9.27,9.27,0,0,1-2,1.15l2.82-1.19a8.79,8.79,0,0,1-1.81.48l3.14-.42a8.51,8.51,0,0,1-2.14,0l3.14.42a9.38,9.38,0,0,1-1.78-.48l2.83,1.19a9.44,9.44,0,0,1-1.93-1.1l2.39,1.85a10.49,10.49,0,0,1-1.67-1.66l1.85,2.39a63,63,0,0,1-3.89-6.52l-7.9-13.66-18.1-31.31L333,504.85a11.82,11.82,0,0,0-16.17-4.24,11.94,11.94,0,0,0-5.43,7.06,12.38,12.38,0,0,0,1.19,9.11l10.11,17.47L339.88,564l5.27,9.11c.33.58.65,1.16,1,1.72a20.46,20.46,0,0,0,8.36,7.72,21.8,21.8,0,0,0,7.89,2.12,18.82,18.82,0,0,0,5.74-.54c5-1.12,8.86-4.92,12.69-8.13l12-10,20.62-17.26c.82-.68,1.64-1.37,2.48-2l-2.39,1.84a22.26,22.26,0,0,1,4.26-2.64L415,547a13.34,13.34,0,0,1,3.41-.92l-3.14.42a20,20,0,0,1,4.64.12l-3.15-.42c2.91.43,5.79,1.19,8.66,1.85l11.84,2.73,11.89,2.75c3.11.71,6.63,1.83,9.8,1.63a21,21,0,0,0,16.75-10,21.44,21.44,0,0,0,3-8.81,19.47,19.47,0,0,0,.29-4.1c-.17-2.12-.56-4.22-.84-6.32l.42,3.14a359.9,359.9,0,0,1-3.13-45.57,12.25,12.25,0,0,0-3.46-8.36,12,12,0,0,0-8.36-3.46c-6.38.28-11.85,5.19-11.82,11.82Z"/>
   </g>
  </g>
 </g>
</svg>
