<svg id="Prior_to_November" data-name="Prior to November" xmlns="http://www.w3.org/2000/svg" viewBox="0 0 800 800"><defs><style>.cls-1{fill:#54899b;}.cls-2{fill:#e5e6e6;}.cls-3{fill:none;}.cls-4{fill:#2f152f;}</style></defs><g id="hold_asparagus" data-name="hold asparagus"><g id="Layer_160" data-name="Layer 160"><g id="Layer_185" data-name="Layer 185"><path class="cls-1" d="M71.72,484.09C87.29,410,122.9,348.93,176.43,295.38s130.89-86,205.78-74.85C479.59,235.07,705,478.14,732.28,533.81S767.9,649.18,767.9,711.2c0,2.77,5.11,37.06-3.95,60.13-.73,1.85-61,7.82-233,6.69-82.86-.54-358.53-1.59-425-15C49,751.55,60.41,537.9,71.72,484.09Z"/><path class="cls-1" d="M241.4,255.61a165.08,165.08,0,0,1-54.7-64,100.36,100.36,0,0,0-17.59,47.86c-.86,9-.47,18.17,0,27.24q.87,18,2.07,36c.25,3.82.55,7.79,2.4,11.15,3.8,6.95,12.87,9.08,20.78,8.65a51.57,51.57,0,0,0,46.92-65.07"/><path class="cls-2" d="M412.42,782c29.43-4.18,79.74,1.68,118.55-4,30.6-4.44,4.38-49.3-6.7-76.32s-34.89-47.61-56.53-68.57c-52-50.38-96.33-110.61-109.46-179-7.52-39.15-4.57-79.58-13-118.58-2.66-12.26-6.7-24.77-15.78-34.09-11.13-11.44-28.23-16.37-44.8-18.31-42.14-4.91-85.43,6.75-121,28s-64,51.61-86.22,84.84C19.57,482.57,2.81,592.32,37,688.87c6.55,18.51,15.13,36.87,29.39,51.26,34,34.29,90.28,38.08,140.74,39.53,47.72,1.36,178,1.35,205.31,2.31"/><path class="cls-3" d="M71.72,484.09C87.29,410,122.9,348.93,176.43,295.38s130.89-86,205.78-74.85C479.59,235.07,705,478.14,732.28,533.81S767.38,659,735.57,712.2c-17.42,29.14-24,43.28-54.33,52.4C678.3,765.49,297.81,803,93,763,40.09,752.69,60.41,537.9,71.72,484.09Z"/><path class="cls-4" d="M545.81,466.12c15.38,13.47,20,37.16,12.49,56.16s-26,32.72-46.13,36.31-41.38-2.39-57.92-14.4-28.53-29.67-35.56-48.86a8.34,8.34,0,0,1-.73-3.88c.46-3.55,4.73-5,8.25-5.67l117.05-22.71"/><path class="cls-4" d="M534.81,462.45q-32.43,4.94-64.81,10.29t-64.92,11.18q-18.24,3.25-36.44,6.66c-2.88.53-5.91,3.2-7.35,5.64A12.3,12.3,0,0,0,365.7,513a13.73,13.73,0,0,0,9.47,1.24q32.26-6,64.59-11.61t65-10.81q18.29-2.91,36.6-5.7c2.84-.44,6-3.29,7.34-5.65a12.58,12.58,0,0,0,1.24-9.47,12.43,12.43,0,0,0-5.65-7.34l-2.93-1.24a12.3,12.3,0,0,0-6.54,0Z"/><path class="cls-4" d="M130.24,545.9a211.45,211.45,0,0,0,10.6,50.62c1.46,4.21,2.88,8.62,5.21,12.44a30.29,30.29,0,0,0,4.53,5.86,22.49,22.49,0,0,0,8.35,5.15,18.11,18.11,0,0,0,4.89.84,17.73,17.73,0,0,0,5-.52,18.8,18.8,0,0,0,8.78-5c3.28-3.21,5.24-7.47,7.37-11.46L198.68,578l-19.3,2.49a197.68,197.68,0,0,0,26.54,21.93c9.45,6.55,19.61,12.56,30.39,16.65a38.09,38.09,0,0,0,21.2,1.83,19,19,0,0,0,3.14-.95,36.25,36.25,0,0,0,5.23-2.39,30.35,30.35,0,0,0,6.66-5.34,39.33,39.33,0,0,0,10-30.16,50.75,50.75,0,0,0-2.35-11.24,75.21,75.21,0,0,0-4.52-10.39,135.53,135.53,0,0,0-9.66-15c-1.89-2.67-4.09-4.75-7.34-5.65a12.58,12.58,0,0,0-9.47,1.24,12.39,12.39,0,0,0-5.64,7.34c-.7,3.06-.66,6.81,1.23,9.47,4.44,6.24,8.87,12.57,11.87,19.65l-1.24-2.94a42.11,42.11,0,0,1,3,10.6l-.44-3.26a29.56,29.56,0,0,1,0,7.34l.44-3.26a29.52,29.52,0,0,1-2,7.43l1.24-2.94a25.28,25.28,0,0,1-3.11,5.38l1.93-2.48a21.26,21.26,0,0,1-3.59,3.63l2.49-1.92a19,19,0,0,1-4.13,2.41l2.94-1.24a19.45,19.45,0,0,1-4.43,1.18L253,597a23.65,23.65,0,0,1-5.64,0l3.27.43a37.74,37.74,0,0,1-9.42-2.7l2.93,1.24a132.58,132.58,0,0,1-17.33-9.23,181.4,181.4,0,0,1-16-11.08l2.49,1.92a181.93,181.93,0,0,1-16.45-14.44c-5.44-5.38-15.54-4.57-19.3,2.49l-9.31,17.5-4.54,8.53a57.17,57.17,0,0,1-4.36,7.65l1.92-2.48a10.45,10.45,0,0,1-1.78,1.8l2.49-1.92a9.43,9.43,0,0,1-1.22.74l2.93-1.24a7.72,7.72,0,0,1-1.64.48l3.27-.44a6.7,6.7,0,0,1-1.55,0l3.26.44a7.59,7.59,0,0,1-1.47-.39l2.94,1.24a9.22,9.22,0,0,1-1.92-1.11l2.49,1.92a14.7,14.7,0,0,1-2.4-2.46l1.92,2.49a24.24,24.24,0,0,1-2.87-5l1.24,2.94a159.28,159.28,0,0,1-7-21.85,197.72,197.72,0,0,1-4.47-22.89l.43,3.27q-.59-4.44-1-8.9c-.29-3.32-1.17-6.26-3.6-8.69a12.28,12.28,0,0,0-17.37,0c-2.09,2.28-3.89,5.48-3.6,8.69Z"/><path class="cls-1" d="M450.82,594.5c-25.11.72-49.85-16.35-74.24-10.35-63.39,15.59-78.69,68-71.58,87.82,25.59,71.46,92.59,83.72,104.34,85.49,49.61,7.48,100.33-5.87,146-26.65"/><g id="Layer_186" data-name="Layer 186"><path class="cls-1" d="M411.33,274.16a201.2,201.2,0,0,0,2.42-116,155.74,155.74,0,0,1,51.17,28.75c23.37,19.92,39.07,46.21,48.37,73.78,4.4,13.05,7.34,27.55,1.05,40-9.87,19.51-39.17,25.73-62.28,19.8-23.67-6.08-44.71-24.64-44.78-46.54"/></g><g id="Layer_187" data-name="Layer 187"><path class="cls-1" d="M763.66,637a143.64,143.64,0,0,0,13.83-43,154,154,0,0,0,1.83-23.78,157.54,157.54,0,0,0-2.3-24c-5.1-30.59-20.63-58.34-41.34-81.09-10.76-11.82-22.59-22.7-32.39-35.37l2.24,2.89a83.69,83.69,0,0,1-10.82-17.84l1.44,3.42a51.27,51.27,0,0,1-3.57-12.74l.51,3.8a46.11,46.11,0,0,1,0-11.62l-.51,3.8a59.93,59.93,0,0,1,4.24-14.91l-1.44,3.41c5.13-12,13-22.46,20.91-32.71l-2.24,2.9c11.36-14.7,23-29.19,29.3-46.95a59.21,59.21,0,0,0-3-46.29C736,258.19,728.74,251.1,720.55,246c-6.37-4-16-1.57-19.58,5.14a14.6,14.6,0,0,0,5.13,19.58c1.28.79,2.51,1.63,3.71,2.53l-2.9-2.23a41.49,41.49,0,0,1,7.12,7l-2.24-2.9a40.38,40.38,0,0,1,5.05,8.57l-1.44-3.41a42.81,42.81,0,0,1,2.84,10.32l-.52-3.81a47.14,47.14,0,0,1,0,12.16l.51-3.81a56.69,56.69,0,0,1-4.07,14.37l1.44-3.42c-5.19,12.08-13.24,22.61-21.22,32.94l2.24-2.89c-8.23,10.64-16.83,21.19-23.08,33.16s-10.79,25.71-9.17,39.36a62.44,62.44,0,0,0,4.14,17.05,88.71,88.71,0,0,0,8.38,15.9c6.62,9.77,14.58,18.55,22.73,27.05,8.65,9,17.55,17.84,25.22,27.74l-2.24-2.9a150.13,150.13,0,0,1,19.26,32.84L740.46,523a138.87,138.87,0,0,1,9.55,34.7l-.51-3.81a132.75,132.75,0,0,1,.08,34.89l.51-3.8a132.7,132.7,0,0,1-9.16,33.58l1.44-3.42c-1.07,2.51-2.21,5-3.42,7.45a15.29,15.29,0,0,0-1.44,11,14.6,14.6,0,0,0,6.58,8.55c3.32,1.75,7.34,2.63,11,1.44,3.41-1.1,6.92-3.26,8.55-6.58Z"/><path class="cls-1" d="M753.61,262l-59,23.13a9.28,9.28,0,0,1-3,.69c-5.1.21-6.43-4.22-7-7.85q-6.74-41.34-9.85-83.06c11.93,2.75,22.09,9.51,31.89,16.11l59.64,40.17a6.47,6.47,0,0,1,1.91,1.88c2.24,3.63-2,6.59-5.8,8a62.19,62.19,0,0,1-15.27,3.43"/></g></g></g></g></svg>