<svg xmlns="http://www.w3.org/2000/svg" xmlns:xlink="http://www.w3.org/1999/xlink" viewBox="0 0 800 800"><defs><style>.cls-1{fill:none;}.cls-2{clip-path:url(#clip-path);}.cls-3{fill:#e5e6e6;}.cls-4{fill:#54899b;}.cls-5{clip-path:url(#clip-path-2);}.cls-6{fill:#2f152f;}.cls-7{fill:#221f1f;}.cls-8{fill:#606161;}</style><clipPath id="clip-path"><path class="cls-1" d="M584.73-408.78c-115.57-38.53-249-14.41-352,47.29S21.11-117,16.28-106.3c-45.64,101.58,241.48,56.6,354,60.38,122,4.11,246.61,6.77,358.84-37.57a127.3,127.3,0,0,0,42.09-27.37c27.36-26.74,15.2-80.37,11.47-93.45C755.7-298.7,600.29-403.59,584.73-408.78Z"/></clipPath><clipPath id="clip-path-2"><path class="cls-1" d="M50.39,722.9a695.2,695.2,0,0,1,76-375.43c13.34-25.57,28.32-50.38,46.39-72.86C204.17,235.48,244.63,204,289.26,181c100.34-51.65,232-55.55,319.33,16,59.17,48.46,90.1,123.27,109.5,197.25S747.83,545,776.78,615.74c4.52,11.06,9.58,22.42,9.05,34.35-.9,20.43-17.6,36.35-34.1,48.42-106.11,77.62-245.41,90-376.86,91.79-118.11,1.6-246.94-7.16-335.14-85.73"/></clipPath></defs><g id="Prior_to_November" data-name="Prior to November"><g id="Layer_177" data-name="Layer 177"><g class="cls-2"><path class="cls-3" d="M31.45-69.4c55.33-5.93,107.48-37,139-82.85,24-34.83,36.17-76.9,61.64-110.65,30.14-39.94,77.45-65.18,126.81-73.44s100.52-.48,147.48,16.83c21.24,7.83,41.9,17.65,60.17,31,28.54,20.93,50.18,49.7,71.38,78l75.21,100.51c4.69,6.28,9.65,13.61,8.11,21.29-1.67,8.34-10.16,13.22-17.84,16.87C548,2.19,372.15,19.1,200.25,28.4c-22.14,1.19-44.4,2.28-66.47.1C94.62,24.62,56.22,10.05,25.89-15,14.51-24.43,3.58-37.08,4.36-51.81s20.48-27,30.91-16.56"/></g></g></g><g id="November_Orders" data-name="November Orders"><g id="Layer_218" data-name="Layer 218"><path class="cls-4" d="M49.65,712.89c-10.51-128.95,16.9-250.7,76.7-365.42,13.34-25.57,28.32-50.38,46.39-72.86C204.17,235.48,244.63,204,289.26,181c100.34-51.65,232-55.55,319.33,16,59.17,48.46,90.1,123.27,109.5,197.25S747.83,545,776.78,615.74c4.52,11.06,9.58,22.42,9.05,34.35-.9,20.43-17.6,36.35-34.1,48.42-106.11,77.62-241.85,88.63-373.3,90.41-118.11,1.6-232.62.42-328.78-76"/><g class="cls-5"><path class="cls-3" d="M667.37,876.84c-119.26,60.65-259.44,58.38-393.19,54.74-39.47-1.08-81.54-3-113.76-25.8-49.67-35.17-57.15-105.37-53.67-166.13a877.77,877.77,0,0,1,41.31-220.24c11.73-36.16,26.14-72.13,49.68-102,50.07-63.54,140.12-90.86,218.26-69.91s141.31,87.13,162.87,165.1c12.2,44.12,12.21,91.47,29.41,133.89,16.85,41.56,49,75.21,68.29,115.68s21.78,96-13.56,123.59"/></g><path class="cls-6" d="M303.1,549c-2.76,10.68-5.18,21.52-5.88,32.56-.74,11.77,1.26,23.68,6.75,34.18a25.23,25.23,0,0,0,5.78,7.67A19.75,19.75,0,0,0,318,628a21.69,21.69,0,0,0,10.5-.09c3.35-.83,6.53-2.62,9.59-4.22,2.21-1.15,4.4-2.36,6.55-3.6a199.23,199.23,0,0,0,26.83-18.83c4.34-3.58,8.52-7.36,12.5-11.33,2-2,3.89-4,5.76-6a51,51,0,0,1,5.65-5.73l-2.8,2.17a13.89,13.89,0,0,1,3-1.81L392.31,580a14.91,14.91,0,0,1,3.43-.88l-3.69.5a61.73,61.73,0,0,1,9.71.07q5.13.2,10.26.28,10.26.18,20.53-.08,20.52-.51,41-2.76,11.81-1.29,23.55-3.09c3.39-.52,6.77-1,10.14-1.65a41.65,41.65,0,0,0,9.6-3.25,23.54,23.54,0,0,0,7.94-5.64,20.18,20.18,0,0,0,3.49-4.92,24.29,24.29,0,0,0,1.72-4.36,21.76,21.76,0,0,0,.61-5.1,22.07,22.07,0,0,0-2.61-9.8,31,31,0,0,0-4.53-6.11c-2.26-2.58-4.58-5.1-6.87-7.65l-31.29-34.82a13.87,13.87,0,0,0-19.61,0c-2.43,2.64-4.23,6.11-4.07,9.81a15.08,15.08,0,0,0,4.07,9.8l19.8,22,9.82,10.93c3.2,3.56,6.62,7,9.59,10.76l-2.17-2.8a12.63,12.63,0,0,1,1.47,2.41l-1.4-3.31a8.29,8.29,0,0,1,.51,1.83l-.5-3.68a7.16,7.16,0,0,1,0,1.73l.5-3.69a7.37,7.37,0,0,1-.37,1.32l1.4-3.31a7.7,7.7,0,0,1-1,1.67l2.17-2.81a11.4,11.4,0,0,1-1.89,1.85l2.81-2.17a18.86,18.86,0,0,1-3.92,2.2l3.32-1.4a47.7,47.7,0,0,1-10.57,2.49q-6.87,1.13-13.78,2.06l3.69-.5a486.89,486.89,0,0,1-57.73,4.29q-14.55.21-29.08-.45a44.19,44.19,0,0,0-8.13.32,25.06,25.06,0,0,0-10.5,3.54c-4.37,2.81-7.54,6.53-11,10.27a178.6,178.6,0,0,1-21.16,19.24l2.81-2.17q-7.11,5.47-14.73,10.23a131.48,131.48,0,0,1-15.73,8.67l3.31-1.4a13.16,13.16,0,0,1-2.88.89l3.69-.5a7.76,7.76,0,0,1-1.67,0l3.69.5a6.7,6.7,0,0,1-1.52-.41l3.31,1.4a7.81,7.81,0,0,1-1.24-.74l2.81,2.17a10.59,10.59,0,0,1-1.57-1.57l2.17,2.81a28.93,28.93,0,0,1-3.45-6.29l1.39,3.31a46.67,46.67,0,0,1-3.07-11.37l.5,3.68a73,73,0,0,1,.25-19.14l-.49,3.69a191,191,0,0,1,4.75-22.55,14.54,14.54,0,0,0-1.4-10.69,14.16,14.16,0,0,0-8.29-6.37c-3.55-.81-7.54-.63-10.69,1.4A14.26,14.26,0,0,0,303.1,549Z"/><g id="Layer_204" data-name="Layer 204"><path class="cls-7" d="M17.05,334.61c11.19,3.46,12.72,21.27,14.67,30.72,3.29,16,5.71,32,8,48.15,2.13,14.74,5,29.28,11.41,42.83a104,104,0,0,0,23.09,31.45c21.06,19.56,48.6,27.31,76.37,31.67,21.67,3.41,43.78,4.55,65.59,1.79,33.18-4.19,64.36-17.17,89.63-39.25,18.19-15.89,32.8-35.92,43.28-57.64,4.8-9.95,9.28-20.46,11.72-31.28,3-13.14,6.75-27.55,17.16-36.89,8.55-7.66,22.29-11.2,31.75-3.11s13.47,21.9,18,33c5,12.34,9.85,24.76,15.31,36.91,10.48,23.37,23.82,46.41,44.3,62.42,16.71,13.07,37,21.9,57,28.63,24.39,8.2,50.78,13.31,76.6,11.33,24.79-1.89,50.27-10.44,72.06-22.29,30.74-16.73,53.49-43.84,62.68-77.75,3-11,5.21-22.78,5.21-34.16q0-10.56,0-21.11c0-9.48.93-19.41,6.39-27.47,4.24-6.25,11.13-9.89,17.73-13.13a5,5,0,0,0,2.54-4.44l-1.08-23.65c-.33-7.11.41-15.37-1.67-22.25-1.89-6.27-7.36-9.75-13.44-11.26-7.24-1.81-14.89-2.48-22.26-3.6-31.59-4.83-63.31-9.27-95.24-11.13-31.55-1.84-63.18-.93-94.39,4.25-30,5-59.23,13.24-88.79,20.07-28.91,6.67-58.39,12-88.18,10.82-30.93-1.23-60.22-11.22-89.92-19A489.79,489.79,0,0,0,109.9,257c-15,1.83-30,4.31-44.81,7.53-8.94,1.94-17.58,3.56-26.64,4.82-9.92,1.38-24.79.53-28.54,12.07-2,6.23-.63,13.73-.32,20.11l.59,12.24c.14,3-.09,6.35.64,9.29.67,2.7,1.77,5.36,2.64,8,2.06,6.25,12,3.57,9.91-2.73a69.59,69.59,0,0,1-2.58-7.83c-.52-2.56-.28-5.6-.41-8.26L19.79,300c-.17-3.42-.4-6.84-.49-10.26-.06-2.29-.39-5.53,1.69-7.07,1.85-1.38,5.09-1.38,7.29-1.67l6.76-.91c7.35-1,15-1.54,22.22-3.25,14.3-3.39,28.72-6.21,43.26-8.33a478.68,478.68,0,0,1,176,7.37c28.6,6.62,56.44,16.73,85.61,20.78,28.38,3.95,56.95,1.41,85-3.8,28.66-5.33,56.73-13.29,85.15-19.68,29.2-6.56,58.54-10.52,88.5-10.72,30.7-.21,61.34,2.72,91.74,6.76,15.3,2,30.56,4.38,45.81,6.75,4.46.69,13.94.58,16.34,5.34,1.38,2.74.92,6.7,1.06,9.68l.54,11.82,1,22.17,2.54-4.43c-7.6,3.73-14.86,8.12-20,15-6.71,8.83-8.82,20.08-9.12,30.95-.32,11.75.61,23.52-.81,35.22-1.4,11.47-4.59,25.33-9.55,36.86a109.75,109.75,0,0,1-28.17,38.82c-16.24,14.4-36.32,23.94-56.9,30.34-12.47,3.89-25.19,7-38.28,7.6a165.9,165.9,0,0,1-38.26-2.91,229.43,229.43,0,0,1-67.87-24,114,114,0,0,1-22.91-16,131,131,0,0,1-23.6-30.2c-13.35-22.84-21.88-48-32.22-72.29-4.82-11.29-10.77-23.71-22.6-29.07-11.56-5.24-25.15-2.21-35.09,5.16-19.51,14.47-20.47,39.42-28.57,60.42-.32.83-.64,1.66-1,2.49-.15.38-.3.76-.46,1.14s-.73,1.75-.25.61c-.86,2-1.76,4.06-2.69,6.06q-3.12,6.69-6.73,13.13A175.31,175.31,0,0,1,315.11,458a152.93,152.93,0,0,1-73,47.5,185.41,185.41,0,0,1-56.62,7,248.12,248.12,0,0,1-34.41-3.27c-13.94-2.3-28-5.28-41.14-10.61-24.53-10-44.48-30.45-53.25-55.52-5.14-14.71-6.71-30.31-9-45.64-2.3-15.69-5-31.47-8.78-46.89-2.66-10.84-7.7-22.25-19.21-25.81C13.45,322.74,10.74,332.66,17.05,334.61Z"/><path class="cls-7" d="M18.41,329.65c9.86,2.7,13.87,14.27,16.1,24.24q5.15,23,8.52,46.34c2.15,14.88,3.79,30,8.75,44.17a99.43,99.43,0,0,0,45.75,53.91c12,6.53,25.21,10.41,38.55,13.23,182.26,38.6,219.54-118.61,219.54-118.61,2.88-13.3,6.69-27,15.63-37.24s24.42-16,36.61-10c9.45,4.68,14.64,14.9,18.82,24.58,17,39.32,29.64,83.41,62.93,110.36,25.64,20.75,95,49.06,148,37.06C738.39,494.86,752.48,431.9,755.74,394V369.11c0-29.27,12.4-37.18,26.65-44.16q-.87-19.21-1.76-38.43c-.13-2.87-.3-5.87-1.79-8.33-2.6-4.32-8.22-5.5-13.21-6.28-64.12-10-129.31-20-193.63-11.33-68.59,9.22-135.47,39.51-204.23,31.64-27.28-3.12-53.46-12.18-80.08-18.94a484.79,484.79,0,0,0-233.2-1.08S35.7,274.88,27.23,276c-3.78.48-8,.84-10.56,3.63s-2.65,7.27-2.46,11.19l1.47,30.58Z"/><path class="cls-8" d="M74.5,420.3C11.93,302,117.87,272.92,213,310.83,169.31,341.59,97.06,364.55,81.24,419"/><path class="cls-8" d="M516.79,471.53a162.13,162.13,0,0,1-57-80.94c-4.12-13.26-6.48-27.63-2.67-41,4.8-16.8,18.92-29.71,34.79-37s33.47-9.78,50.83-11.75c33.19-3.75,67.88-5.79,98.94,6.47A526,526,0,0,0,564,377.1c-23.74,26-45.91,57.65-44.47,92.86"/></g></g></g></svg>