<svg xmlns="http://www.w3.org/2000/svg" xmlns:xlink="http://www.w3.org/1999/xlink" viewBox="0 0 800 800"><defs><style>.cls-1{fill:none;}.cls-2{fill:#c64744;}.cls-3{clip-path:url(#clip-path);}.cls-4{fill:#fff;}.cls-5{fill:#54899b;}.cls-6{fill:#933;}.cls-7{clip-path:url(#clip-path-2);}.cls-8{fill:#2f152f;}.cls-9{clip-path:url(#clip-path-3);}.cls-10{fill:#e5e6e6;}.cls-11{clip-path:url(#clip-path-4);}</style><clipPath id="clip-path"><path class="cls-1" d="M587.34,186.29C660.05,279.08,697.45,342.52,714,460.45c-1.18,5.74-4.86,10.27-8.87,14-26.74,25.48-68.11,16-91.69-9.78-54-55.87-90.58-149.32-88.42-229.9,7.67-28.52,36.7-40.25,62.35-48.44"/></clipPath><clipPath id="clip-path-2"><path class="cls-1" d="M189.6,379.39A819.72,819.72,0,0,1,213.23,594c-.14,5.75-1,12.44-7.62,15.35-4,1.77-9.08,1.57-13.81,1.33L64.27,604.09c-4.72-.25-9.67-.54-13.73-2.41-4.66-2.14-7.35-5.95-9.74-9.59A408.82,408.82,0,0,1-8.91,487.8c-13.38-43.42-18-90.17,5.58-130.26s82.06-70.76,141.1-62.16c6,.87,12.16,2.22,16.79,5.24a31.73,31.73,0,0,1,7.66,7.73c23.43,30.64,27.38,71,37,115.32"/></clipPath><clipPath id="clip-path-3"><path class="cls-1" d="M166.66,260.84C229.12,54.92,482-1.48,606,167.42c67.64,148.22,93.71,362.66,41.57,519.14C532.3,809.84,358.31,790.27,217.33,748.69c-43.05-18.81-74.43-66.77-63-121.91,17.3-122.1-20.4-259.09,16.85-374.82"/></clipPath><clipPath id="clip-path-4"><path class="cls-1" d="M1505.78,776.54c-178.24,2-511.23,48.5-624.07-15.47-28.66-16.25-40.47-49.13-46.63-79.52-11.94-59-13.52-121.3,4.17-179,56-182.71,186.85-293.58,294.18-332.17C1212.27,142,1298.92,125.57,1381.9,141s149.61,71.78,186.4,141.74c30,57.06,5,134.42,2.81,186.87-2.56,61.9,7.33,93.67,21.07,154.32,3.76,16.58,8.15,33.31,7.2,50.23-2.28,40.82-31.59,97-75.81,102.06Z"/></clipPath></defs><g id="November_Orders" data-name="November Orders"><g id="headphones"><path class="cls-2" d="M651.9,210.12c-10-7.56-21.13-14.18-33.62-17.78a82.51,82.51,0,0,0-43-.17,83.78,83.78,0,0,0-27.1,12.36c-1.28.89-2.52,1.81-3.73,2.78-4.9,3.89-9.46,8.58-11.13,14.27-2.28,7.74,1.19,15.56,4.63,22.64A1960.27,1960.27,0,0,0,672.6,478.59c29.67-9.78,62.13-23.38,72.13-50.64,5.64-15.36,2.57-31.76-.93-47.22C729.32,316.75,705.9,250.81,651.9,210.12Z"/><g class="cls-3"><path class="cls-4" d="M522.08,207.66c60.65,88,101.73,156.21,136.41,279.9,86.49-31.42-29.63-271.47-90.56-296.65-12.24-8.76-32-15.36-41.68-.16-4.07,7-12.25,18.84-5.48,23.34"/></g><path class="cls-5" d="M190.38,283.71c25.42-44,260.24-197,378-20.91,82.42,123.22,132.23,276.36,78,416.94-118.78,111.15-296.92,94.55-441.13,58-44-16.63-75.9-59.46-63.92-109,18.39-109.56-13.84-271.49,49-345.12"/><path class="cls-5" d="M747.85,346.81c61.39,23,11,184.82-42,205.52-43.43,21.35-76.46-27-79.95-65.72,3.7-65.32,71.1-95.72,109.31-139.8"/><g id="Layer_209" data-name="Layer 209"><path class="cls-6" d="M571.64,196.92c.18-1.52.31-3.18.36-5C417.32-99,103.26,37.26,96.8,322.29a55.5,55.5,0,0,0,2.14,19.3,58.36,58.36,0,0,1,29.59-3.84,57.16,57.16,0,0,0-.68-18.11c23.21-161,171-269.94,299.71-222,29.2.49,89.56,84.78,122.26,106.71A50.94,50.94,0,0,1,571.64,196.92Z"/><path class="cls-6" d="M613.65,216.09v0c.18.44.36.87.53,1.32Z"/><path class="cls-2" d="M99.31,306C72.17,316.49,49,341.7,38,370.82,22.11,412.5,26.28,459.64,36.51,503A491.47,491.47,0,0,0,73.44,606.41c1.75,3.57,3.71,7.31,7,9.27,2.89,1.71,6.37,1.79,9.7,1.82l89.79,1c3.34,0,6.9,0,9.69-2,4.57-3.24,5.08-10.06,5.06-15.89A1170.52,1170.52,0,0,0,181.5,428l.12.7c-.05-.26-.09-.52-.14-.78q-1.64-10.8-3.48-21.56c-5.57-35.64-10.42-67.93-24.57-92.79a27.66,27.66,0,0,0-5.54-7.49c-3.31-2.86-7.66-3.94-11.9-4.56-1.21-.17-2.41-.31-3.62-.42A73.21,73.21,0,0,0,99.31,306Z"/><g class="cls-7"><path class="cls-4" d="M160,617.78c25.75-27.2,27.84-63.09,26-96.8-4.08-76.66-23.73-153.21-58.07-226.29,14.53-4.67,32.49,1.19,42.84,10.47s14.85,21.21,19.08,32.74c27,73.67,54.23,148.26,56.17,224,.33,13.09-.16,26.45-6.2,38.61S221.3,623.62,204.35,627s-38-2.74-44.41-15.08"/></g><path class="cls-8" d="M238.12,436.66c.39-.53.79-1.05,1.2-1.58l-1.57,2a166,166,0,0,1,29.64-29.53l-2,1.57a169.42,169.42,0,0,1,37.15-21.7l-2.39,1a165.09,165.09,0,0,1,28.62-9.1c5.12-1.12,8.59-7.35,7-12.3a10.23,10.23,0,0,0-12.3-7,174.58,174.58,0,0,0-45.11,16.85,173.93,173.93,0,0,0-57.48,49.63c-1.46,1.93-1.62,5.49-1,7.71a10.18,10.18,0,0,0,4.59,6,10.06,10.06,0,0,0,7.71,1l2.39-1a10,10,0,0,0,3.59-3.58Z"/><path class="cls-8" d="M314.48,364.2a125.72,125.72,0,0,0-25.1,24.31A248.83,248.83,0,0,0,270,417.62c-3.15,5.47-6.18,11-9.2,16.55a10.47,10.47,0,0,0-1,7.71,10.21,10.21,0,0,0,4.6,6c4.67,2.47,11,1.31,13.68-3.59,8.06-14.8,16.23-29.63,26.55-43l-1.56,2a120.93,120.93,0,0,1,21.28-21.67l-2,1.57c.75-.59,1.52-1.16,2.29-1.72,2.17-1.58,3.86-3.3,4.59-6a10.22,10.22,0,0,0-1-7.71,10.12,10.12,0,0,0-6-4.59c-2.47-.57-5.57-.55-7.71,1Z"/></g><g class="cls-9"><path class="cls-10" d="M207.39,734.48c54.51-13.58,101-68.85,116.5-138.4,10.52-47.33,7.36-98.14,10.69-147.43S350.1,346.83,381.53,320c26.53-22.62,61.39-22,92.71-12.37,112.7,34.63,197.15,179.67,206.38,330.08,4.14,67.39-7.22,141-46.14,184.11C598.27,862,546.59,867.5,498.57,866.6a770.31,770.31,0,0,1-208.72-33.21c-35.36-10.7-76.29-31.64-84.65-77.83-1.85-10.23-2.48-12.71,2.19-21.08"/></g><path class="cls-8" d="M390.53,407.15l27.25,40.05a52.76,52.76,0,0,0,4.36,5.92A15.28,15.28,0,0,0,432.65,458c6,.34,10.5-3.44,14.41-7.48a174.34,174.34,0,0,0,15-18,150.46,150.46,0,0,0,12.58-20.36l-14.8,3.88a126.62,126.62,0,0,0,44.89,19.4c1.93.42,3.86.8,5.8,1.11,3.33.55,6.46,1,9.77.05a14.08,14.08,0,0,0,9.76-9.7c.76-2.77.49-5.5.33-8.3q-.76-13.37-1-26.75-.21-15.12.32-30.24C530,356,524.65,350.6,519,350.86a11,11,0,0,0-10.82,10.82q-.54,15.6-.3,31.23.12,7.68.43,15.36c.11,2.64.23,5.28.38,7.92a51.78,51.78,0,0,1,.3,7.36l.38-2.88a5,5,0,0,1-.29,1.07l1.09-2.58a2.93,2.93,0,0,1-.4.63l1.69-2.19a2.82,2.82,0,0,1-.47.44l2.19-1.69a3.65,3.65,0,0,1-.54.32l2.58-1.09a5.34,5.34,0,0,1-1.26.35l2.88-.38a11.24,11.24,0,0,1-2.46,0l2.88.38A112.26,112.26,0,0,1,489.34,408l2.58,1.09a117.74,117.74,0,0,1-21.14-11.61,10.82,10.82,0,0,0-14.8,3.88,151.51,151.51,0,0,1-14.7,23.16l1.69-2.19q-3.36,4.35-7,8.46a65.66,65.66,0,0,1-7.49,7.7l2.19-1.69a9.59,9.59,0,0,1-1.3.79l2.58-1.09a5.76,5.76,0,0,1-1.07.33l2.88-.38a5.06,5.06,0,0,1-1.1,0l2.87.39a5.67,5.67,0,0,1-1-.29l2.59,1.09a5.88,5.88,0,0,1-.87-.52l2.19,1.7a9.87,9.87,0,0,1-1.47-1.49l1.69,2.19c-2.61-3.38-4.87-7.09-7.28-10.62l-7.3-10.73-14.89-21.89a11.53,11.53,0,0,0-6.46-5,11.09,11.09,0,0,0-8.34,1.09,10.93,10.93,0,0,0-5,6.47c-.62,2.72-.54,5.94,1.09,8.33Z"/><g id="Layer_220" data-name="Layer 220"><path class="cls-5" d="M273.44,681.53c-8.79,31.11-38.56,44.41-65.92,54.45-17.51,6.43-36.44,12.71-55.8,6-21-7.25-37.83-28.25-50.34-49.77S79,647.3,63.87,627.8C45.34,603.89,17.61,582.34,16,553A41,41,0,0,1,34.3,516.28c11.22-7.22,25.31-8.71,39.24-7.39,38.32,3.65,77.77,28.74,103.33,65.75,10.13,14.66,18.39,31.28,31,43.2,8.73,8.22,19,13.62,28.54,20.34A154.09,154.09,0,0,1,276,679.33"/></g></g><g id="Layer_213" data-name="Layer 213"><g class="cls-11"><path class="cls-10" d="M862.66,425c48.44-64.27,99-128.61,166.09-176.74,234-167.84,345,22.88,331,62.23-81.08,228.87,69.42,375.49,84.6,405.77s23.29,65.48,11.44,97c-18.13,48.22-75.77,73-129.41,86.46-135.4,33.9-282.26,28.11-414-16.33-64.07-21.61-128.61-56-156.45-113.18-19.93-40.94-18.14-88-9.92-132.21,15.12-81.31,51-159.31,103.89-226,2.88,5.24,9.26,8.68,15.65,8.45"/></g></g></g></svg>