<?xml version="1.0" encoding="UTF-8"?>
<svg id="Prior_to_November" data-name="Prior to November" viewBox="0 0 800 800" xmlns="http://www.w3.org/2000/svg">
 <defs>
  <style>.cls-1{fill:none;}.cls-2{fill:#54899b;}.cls-3{clip-path:url(#clip-path);}.cls-4{fill:#e7e7e8;}.cls-5{fill:#2f152f;}.cls-6{fill:#558b9c;}.cls-7{clip-path:url(#clip-path-2);}.cls-8{fill:#e5e6e6;}</style>
  <clipPath id="clip-path">
   <path class="cls-1" d="M32.15,723.8C.55,261,658.37,25.09,723,368.26c5.81,62.56,37.17,220.93,45.84,305.17,1.39,13.53-8.19,23.06-18.24,32.21C620.46,819.32,140.23,762.74,32.15,723.8"/>
  </clipPath>
  <clipPath id="clip-path-2">
   <path class="cls-1" d="m860.85 709.91c-30.63-606.91 607.07-916.12 669.7-466.17 7.51 109.3 38.77 325.63 44.43 400.13 1.35 17.74-7.93 30.24-17.68 42.24-126.13 149-591.67 74.87-696.45 23.8"/>
  </clipPath>
 </defs>
 <g id="hold_asparagus" data-name="hold asparagus">
  <g id="golly">
   <path class="cls-2" d="m31.6 720.81c123.07-466.43 480.56-773.72 652-356.25 31.79 77.45 78.86 249.06 84.7 305.88 1.4 13.53-8.18 23.07-18.24 32.22-130.15 113.67-610.38 57.1-718.46 18.15"/>
   <g class="cls-3">
    <path class="cls-4" d="M96.64,676.43c19.49-75.18,42.68-133.4,76.74-202.89S379.91,117.42,551.54,372.62c24.69,36.71,32.27,82.61,40.55,126.39,12.84,67.87,23.44,137.75,11.8,205.84-.63,3.68-1.42,7.55-3.87,10.32s-5.77,3.84-9.07,4.92c-124.54,40.77,97.78,89.7-32.55,79.15-17.18-1.39-389.95-45.22-406.63-49.7-9.93-2.67-15.92,23.94-23.79,17.17-13.3-11.45-44.5-11.38-49.43-28.45"/>
    <path class="cls-5" d="M440,381.86l-32.64,38.92c-2.71,3.22-5.32,6.54-8.66,9.13l2.53-2a19.08,19.08,0,0,1-3.67,2.22l3-1.26a12.42,12.42,0,0,1-2.81.82l3.33-.44a9.66,9.66,0,0,1-2.52,0l3.33.45a10.07,10.07,0,0,1-1.81-.49l3,1.26a10.55,10.55,0,0,1-2.24-1.32l2.53,2A15.44,15.44,0,0,1,401,428.7l1.95,2.53c-3-4.05-5.29-8.74-7.81-13.1l-8.3-14.36-4.08-7.08a34.43,34.43,0,0,0-5.44-7.71,19.73,19.73,0,0,0-7.33-4.47,8.67,8.67,0,0,0-1.58-.46,20,20,0,0,0-4.76-.49,31.53,31.53,0,0,0-12.21,3.65c-5.33,2.61-10.69,5.12-16.15,7.43l3-1.26q-9.94,4.2-20.17,7.63c-3.41,1.15-6.84,2.22-10.29,3.24a75,75,0,0,1-10.31,2.65l3.33-.45a12.45,12.45,0,0,1-2.66,0l3.32.45a8.63,8.63,0,0,1-2.06-.57l3,1.26a9.37,9.37,0,0,1-1.63-1l2.53,2a14.16,14.16,0,0,1-2.14-2.24l1.95,2.53c-1.85-2.44-3.45-5.07-5.13-7.62L292.54,393l-10.92-16.48a13.24,13.24,0,0,0-7.47-5.74,12.51,12.51,0,0,0-15.38,8.73c-.72,3.17-.59,6.83,1.26,9.63l13.11,19.78,6.55,9.89a62.24,62.24,0,0,0,4.3,5.81,21,21,0,0,0,8.79,5.84,16.08,16.08,0,0,0,3.73.79,18,18,0,0,0,3.87.23,46.09,46.09,0,0,0,8.66-1.62q5.2-1.41,10.35-3,10.74-3.37,21.19-7.58,7.16-2.88,14.19-6.06c3.78-1.72,7.45-3.71,11.26-5.33l-3,1.26a15.65,15.65,0,0,1,3.3-1l-3.33.45a8.8,8.8,0,0,1,2.05,0l-3.32-.44a7.82,7.82,0,0,1,1.59.45l-3-1.26a8.54,8.54,0,0,1,1.26.78l-2.53-2a10.58,10.58,0,0,1,1.53,1.61l-1.95-2.53c2.49,3.37,4.37,7.29,6.46,10.92l6.69,11.57,6.81,11.8c2.69,4.64,5.82,9,10.46,11.88a21.13,21.13,0,0,0,10.54,3,21.76,21.76,0,0,0,9.05-2,35.06,35.06,0,0,0,12.17-9c2.89-3.19,5.58-6.59,8.35-9.89L438,423l19.68-23.46c2.17-2.6,3.66-5.34,3.66-8.84a12.71,12.71,0,0,0-3.66-8.84,12.57,12.57,0,0,0-8.84-3.66c-3.15.14-6.74,1.15-8.84,3.66Z"/>
   </g>
   <ellipse class="cls-5" transform="translate(-117.96 198.94) rotate(-15.59)" cx="667.8" cy="530.39" rx="58.96" ry="69"/>
   <g id="Layer_56" data-name="Layer 56">
    <path class="cls-6" d="m86.19 590c29.64-12.79 30.38-20.44 51.62-46.31 18.79-22.9 34.83-51.28 61.33-61.84 32-12.72 69.67 7.44 86.71 39.5s16.33 72.39 6 107.69c-6.69 22.92-17.43 44.91-33.71 61.19-9.38 9.38-20.39 16.67-31.92 22.56-31.78 16.25-65.44 18.21-100.51 20-23.3 1.21-50.71 3.67-68.39-12.96-14.11-13.28-0.38-33.24-0.41-53.53 0-32.3 27.77-76.75 57-87.82"/>
    <path class="cls-2" d="M88.71,594.26c9.92-4.29,19.61-9.27,27.59-16.69A88.3,88.3,0,0,0,125,568c1.73-2.16,3.42-4.36,5.11-6.55l2.57-3.34.6-.78c-.49.63-.32.41,0-.05l1.49-1.92c4.35-5.57,8.88-11,13.2-16.59,4.16-5.39,8.2-10.87,12.35-16.28l.17-.22c.24-.31.48-.61.71-.92l1.68-2.14c1-1.31,2.09-2.62,3.15-3.91,2.14-2.62,4.33-5.18,6.61-7.68s4.47-4.73,6.84-7q1.75-1.64,3.58-3.2c.61-.52,1.22-1,1.84-1.53l.86-.68-.14.11s.54-.41.58-.44a72,72,0,0,1,7.9-5.18c1.37-.78,2.78-1.5,4.2-2.17l1.16-.53c.17-.08,1.22-.52.58-.26l.58-.23,1.3-.49a53.14,53.14,0,0,1,8.58-2.35c.72-.14,1.44-.25,2.17-.37,1-.14-1,.11,0,0l1.17-.13c1.51-.15,3-.24,4.54-.27,2.94-.05,5.81.3,8.74.49l-.49-.07.5.07,1.17.19c.73.12,1.45.26,2.17.41,1.51.31,3,.67,4.48,1.08s2.85.85,4.26,1.34l2,.71,1.12.44c.2.08,1.34.57.69.28l.52.23,1.11.51c.69.32,1.37.64,2,1q2.13,1.06,4.18,2.25a82.08,82.08,0,0,1,7.72,5.07l.86.64c.72.54-.72-.57.26.21.62.48,1.22,1,1.82,1.47,1.2,1,2.37,2,3.51,3.1a87.24,87.24,0,0,1,6.66,6.94c.52.6,1,1.21,1.52,1.82l.69.86.34.43c.43.54-.53-.71-.12-.15.95,1.28,1.89,2.55,2.78,3.87a83.46,83.46,0,0,1,5,8.44c.83,1.59,1.62,3.21,2.37,4.84l.51,1.14.33.76c0,.08.31.72.07.17s0,.08.07.16l.24.58.54,1.35a116.77,116.77,0,0,1,6,21q.53,2.79.93,5.59c.06.41.17,1.24.05.33.06.42.11.84.16,1.26.12,1,.23,1.95.33,2.93.37,3.64.59,7.31.68,11a163.43,163.43,0,0,1-1,22.34q-.15,1.38-.33,2.76a2.08,2.08,0,0,1-.05.36l-.24,1.7q-.4,2.75-.9,5.47c-.65,3.63-1.41,7.25-2.28,10.83a192.25,192.25,0,0,1-6.45,21.27q-1,2.58-2,5.14c-.19.45-.38.91-.56,1.37s-.5,1.17-.16.36c-.39.91-.77,1.81-1.18,2.71-1.48,3.32-3.08,6.6-4.8,9.81s-3.61,6.42-5.6,9.51c-1,1.5-2,3-3,4.45-.48.67-1,1.34-1.45,2l-.87,1.15c0,.07-.47.61-.11.15s-.18.22-.24.3a105.79,105.79,0,0,1-15.52,15.93c-.74.61-1.49,1.21-2.24,1.8l-.52.41c.06-.05.59-.45.13-.11l-1.23.93q-2.31,1.71-4.68,3.31c-3.22,2.16-6.54,4.18-9.93,6.07s-6.84,3.67-10.36,5.29l-2.69,1.21-1.24.53c.18-.07.84-.35-.06,0l-.83.35q-2.7,1.1-5.43,2.08a170.78,170.78,0,0,1-22.28,6.32q-5.58,1.18-11.23,2.08-2.92.47-5.87.86l-.42.06-1.32.16-3.07.37c-7.74.88-15.51,1.47-23.29,2-7.38.45-14.76.82-22.14,1.21-6.67.35-13.34.63-20,.45-3.29-.09-6.57-.29-9.84-.67l-1.12-.14c-.72-.08.93.14.21,0l-.55-.08c-.8-.11-1.6-.24-2.39-.39-1.64-.29-3.27-.63-4.88-1s-3.05-.84-4.55-1.35c-.69-.23-1.38-.48-2-.74l-1.18-.47c-.53-.21.35.14.36.15s-.53-.23-.67-.29a45.58,45.58,0,0,1-8.32-4.86c-.07,0-.42-.25-.44-.33s.73.59.28.21c-.28-.23-.58-.46-.86-.7-.68-.57-1.34-1.15-2-1.76s-1.07-1.08-1.56-1.65c-.81-1,.27.45-.22-.27-.23-.34-.47-.68-.68-1a21.67,21.67,0,0,1-1.06-2c-.42-.84.29.84,0,0-.13-.37-.27-.73-.39-1.1-.21-.69-.39-1.38-.54-2.09-.06-.32-.11-.65-.17-1,0-.15-.12-.74,0,0s0-.25,0-.34a30.58,30.58,0,0,1,0-4.49c0-.71.1-1.43.18-2.14,0-.24.19-1.49.09-.78s.09-.58.12-.8c.54-3.33,1.31-6.61,2.07-9.89,1.7-7.25,3.4-14.62,3.44-22.11a72.84,72.84,0,0,1,.53-8.35c.12-.95-.15,1,0,0,.06-.37.11-.75.17-1.13.12-.7.24-1.41.37-2.11.27-1.44.58-2.86.93-4.28.72-3,1.6-5.94,2.6-8.84.5-1.46,1-2.92,1.6-4.36.29-.73.58-1.45.88-2.17.37-.9-.32.74.06-.15l.51-1.16a127.72,127.72,0,0,1,9.18-17q2.64-4.11,5.59-8l.39-.51c-.41.53.29-.36.4-.5.52-.66,1.06-1.32,1.6-2,1-1.2,2-2.39,3.06-3.55,2.08-2.31,4.25-4.53,6.54-6.64q1.62-1.51,3.33-2.94c.56-.46,1.12-.92,1.69-1.37a2,2,0,0,1,.4-.31l-.36.27.93-.69a65.93,65.93,0,0,1,6.84-4.48c1.11-.63,2.25-1.23,3.41-1.78l1.64-.76c.8-.36-1,.4,0,0l1-.38c2.43-.93,4.38-3.41,3.49-6.15-.77-2.37-3.54-4.5-6.15-3.49-11.64,4.45-21.57,12.46-29.84,21.66a128.08,128.08,0,0,0-21.86,33.79C55.74,640.72,52,653.22,51.91,666c0,1.81-.08,3.62-.26,5.43,0,.48-.1,1-.16,1.43-.11,1,.11-.69,0,.31s-.29,1.89-.47,2.84c-.65,3.6-1.5,7.17-2.33,10.73-1.54,6.62-3.28,13.64-2.55,20.48a26.35,26.35,0,0,0,3.17,10.45,28.48,28.48,0,0,0,7.21,8,54.43,54.43,0,0,0,18.86,9.67c13.34,3.89,27.57,3.57,41.3,2.89,15.41-.77,30.85-1.45,46.19-3.14,15.91-1.74,31.76-4.56,46.9-9.89a147.83,147.83,0,0,0,43.2-23.67,117.32,117.32,0,0,0,29.12-35.3A187.43,187.43,0,0,0,304.2,576.9c-.25-15.21-2.67-30.58-8.06-44.84-5.07-13.39-12.54-25.66-22.87-35.66A85.19,85.19,0,0,0,239.44,476c-12.21-3.77-25.63-4.22-37.88-.36-13.15,4.15-24.35,12.7-33.79,22.57-9.73,10.18-17.9,21.72-26.42,32.9l-1.54,2-.35.46c.66-.83.21-.27.07-.09l-.83,1.06c-1.06,1.37-2.14,2.72-3.22,4.07-2.23,2.75-4.47,5.48-6.65,8.26-2.05,2.6-4.06,5.21-6.08,7.83l-1.21,1.58-.64.83.33-.43-.35.45c-.77,1-1.54,2-2.32,3a94.21,94.21,0,0,1-8.81,9.91c-.78.74-1.58,1.47-2.41,2.17-.4.34-.8.68-1.22,1-.22.19-.45.36-.67.54-.41.34.59-.45.52-.4l-.4.31a71.33,71.33,0,0,1-6,4,133.49,133.49,0,0,1-15.92,8c-2.41,1-3.13,4.76-1.79,6.84,1.61,2.5,4.26,2.91,6.84,1.79Z"/>
    <path class="cls-2" d="M682.07,738.78c-45-28.06-67.28-72.84-84.76-119.16-8.38-22.19-41.15-130.69-100.88-109.71a116,116,0,0,0-48.56,33.36A187.59,187.59,0,0,0,401.6,667.73c.1,19.62,3.29,39.54,12.74,57.28s25.72,33.13,46.46,39.88c9.68,3.15,20,4.37,30.34,4.78,17.3.68,34.6-.86,51.82-2.4,38.51-3.43,77.57-7,113.65-19.4,5.27-1.81,11.53-6.29,8.72-10.64"/>
   </g>
  </g>
 </g>
 <g id="sir">
  <g class="cls-7">
   <path class="cls-8" d="m1429.4 799.23c169.33 166.46-125.57 180.23-334.9 180.23s-366.77-230-379-512.65c-11.51-266.29-1820.2 2421.1 199.42-220.21 85.64-112 273.1-209.1 379-166.46 20.75 8.35 65.57 45.65 72.2 127.35 5.87 72.51-16.03 161.93-23.13 244.16-6.38 73.92 2.07 142.94 5.22 173.31 7.06 68.04 47.69 141.34 81.19 174.27z"/>
  </g>
 </g>
</svg>
