<?xml version="1.0" encoding="UTF-8"?>
<svg id="Prior_to_November" data-name="Prior to November" viewBox="0 0 800 800" xmlns="http://www.w3.org/2000/svg">
 <defs>
  <style>.cls-1,.cls-3{fill:#ec3868;}.cls-1,.cls-6{stroke:#2f152f;stroke-miterlimit:10;stroke-width:3px;}.cls-2,.cls-6{fill:none;}.cls-4{clip-path:url(#clip-path);}.cls-5{fill:#e22228;}.cls-7{fill:#558b9c;}.cls-8{clip-path:url(#clip-path-2);}.cls-9{fill:#e7e7e8;}.cls-10{fill:#7ebb42;}.cls-11{fill:#54899b;}.cls-12{fill:#2f152f;}.cls-13{fill:#558b3f;}</style>
  <clipPath id="clip-path">
   <path class="cls-1" d="m-438.44 1105c-167.06-547-671.59 56-116 434.66 5.72 3.9 58.38-3.07 65.15-4.17 726-117.39 384.32-835.29 50.81-430.49"/>
  </clipPath>
  <clipPath id="clip-path-2">
   <path class="cls-2" d="M708.56,721.29c-5.46-142.92-95.4-301.74-207.65-355.48C386.28,310.93,144.12,219.41,127,530c-2.33,42.44-22.36,103.15-24.73,163-.29,7.37,21.38,24.45,25.81,30.34,35.76,47.56,241.71,40.56,301.6,47.56,107.87,12.61,248.45-20,278.85-49.56"/>
  </clipPath>
 </defs>
 <g id="hold_asparagus" data-name="hold asparagus">
  <g id="heart">
   <path class="cls-3" d="m-438.44 1105c-167.06-547-671.59 56-116 434.66 5.72 3.9 58.38-3.07 65.15-4.17 726-117.39 384.32-835.29 50.81-430.49"/>
   <g class="cls-4">
    <path class="cls-5" d="m-978.16 914.27c5.46-36.46 11.11-72.89 16.21-109.39 0.85-6.06 2.28-7 8.32-6.14q308.25 46.52 616.63 92.59 249.2 37.35 498.42 74.53c6 0.9 7.12 2.27 6.16 8.31-5.83 36.4-11.11 72.88-16.57 109.34-2.83 2.71-6.28 3-10 2.69-4.74-0.47-9.44-1.18-14.14-1.88q-541.11-81.1-1082.2-162.21c-4.7-0.71-9.4-1.4-14.07-2.35-3.64-0.76-6.83-2.06-8.74-5.49z"/>
   </g>
   <path class="cls-6" d="m-438.44 1105c-167.06-547-671.59 56-116 434.66 5.72 3.9 58.38-3.07 65.15-4.17 726-117.39 384.32-835.29 50.81-430.49"/>
  </g>
  <g id="Layer_74" data-name="Layer 74">
   <path class="cls-7" d="M708.56,721.29c-5.46-142.92-95.4-301.74-207.65-355.48C386.28,310.93,144.12,219.41,127,530c-2.33,42.44-22.36,103.15-24.73,163-.29,7.37,21.38,24.45,25.81,30.34,35.76,47.56,241.71,40.56,301.6,47.56,107.87,12.61,248.45-20,278.85-49.56"/>
   <g class="cls-8">
    <path class="cls-9" d="M295.57,798.92c13.21-33.86,8.9-71.7,4.38-107.77L276.31,502.3c-4.65-37.17-8.84-77.07,8.65-110.19,14-26.51,40.57-44.86,69.17-53.84s59.22-9.43,89.09-6.94c55.22,4.6,110.51,19.46,156.63,50.18,27.92,18.59,51.92,42.59,73.13,68.57,26.11,32,48.73,68.43,55.66,109.15,3.06,17.95,3,36.27,2.55,54.47-1.09,45.58-4.42,91.24-13.25,136-3.7,18.72-8.59,37.78-19.84,53.19-20.48,28.07-57.74,38.37-92.45,40s-69.82-3.43-104.09,2.31c-27.73,4.65-54.32,16.29-82.42,17.22-19.09.63-37.94-3.72-56.53-8l-36.81-8.56c-5.24-1.22-10.67-2.53-14.89-5.88-12.53-10-7.46-30.69-15.81-44.35"/>
   </g>
  </g>
  <path class="cls-10" d="M261.22,336.71C354.61,151.32,190.66,93.15,33.53,90.41,4.08,80.11,55.06,326.69,87.33,332.76,156.54,384,274,368.91,287.11,270.84"/>
  <path class="cls-10" d="M390.44,374.61C513.26,498.67,527.63,524,658.43,629.08c17.08,13.72,36.16,29.17,26.79,49-17.89,37.75-24.37,39-52.68,69.69C556,800.78,145.85,317.62,87.89,231.56c-24.66-36,8.22-68,39.78-83.52,37-30.14,156.23,143.13,262.77,226.57"/>
  <g id="Layer_71" data-name="Layer 71">
   <path class="cls-11" d="M407.26,772.25C612,555.57,351.9,505.59,202.58,674.49c-19.29,21.82-30.54,38.32-37.42,60.7a46.48,46.48,0,0,0-1.29,5.33c1.29,3,4.6,4.46,7.67,5.52,78.57,17.17,155.47,22.73,235.72,26.21"/>
   <path class="cls-11" d="m662.35 586.34c46.15-23.5 81.84 118.46 6.36 150.08-36.26 14.36-76 18.58-113.67 28.5-43.35 11.3-70.51-43.44-81.54-77.77-36.51-159 88.24-231.45 194-97.34"/>
   <circle class="cls-12" cx="201" cy="580.02" r="58.84"/>
   <path class="cls-12" d="M166.28,741.19a84.15,84.15,0,0,1,5.59-17.25,120.25,120.25,0,0,1,7.32-14.46c6.25-10.62,13.94-20.3,22-29.6,16.91-19.53,36.42-36.65,57.34-51.77q8.36-6,17-11.65,4.09-2.64,8.25-5.17l3.87-2.31a11.43,11.43,0,0,0,3.11-2.1,2.5,2.5,0,0,0-3.53-3.54,2.06,2.06,0,0,0-.45.48c-.11.29.69-.48.29-.23-.23.15-.45.32-.67.47-.78.52-1.56,1-2.34,1.52-2.81,1.81-5.61,3.62-8.39,5.46q-14,9.29-27.45,19.42a403.33,403.33,0,0,0-34.39,29,247.54,247.54,0,0,0-31.58,35.87c-8.62,12.19-16.16,25.79-19.82,40.36-.34,1.38-.66,2.76-1,4.15-.72,3.13,4.1,4.47,4.82,1.33A105.9,105.9,0,0,1,172.6,722a137.74,137.74,0,0,1,11-19.72c8.65-13,19.1-24.86,30.27-35.82a383.64,383.64,0,0,1,33.92-29.37c8.85-6.84,18.54-13.76,28.08-20.13,4.56-3,9.38-5.81,13.81-9,.49-.37.67-.62,1.1-1l-3.53-3.54c-.07.08-.18.26-.26.3-.46.19.78-.34-.25.09a15,15,0,0,0-1.59.93c-1.29.76-2.58,1.54-3.87,2.32-2.44,1.47-4.85,3-7.25,4.52q-7.77,5-15.28,10.32a389.83,389.83,0,0,0-30.84,24.24,295.08,295.08,0,0,0-27.41,27c-8.53,9.66-16.79,19.67-23.64,30.6a127.32,127.32,0,0,0-8.81,16.6c-2.73,6.25-5.35,12.84-6.58,19.57a2.57,2.57,0,0,0,1.75,3.07A2.51,2.51,0,0,0,166.28,741.19Z"/>
  </g>
  <g id="Layer_80" data-name="Layer 80">
   <path class="cls-13" d="M220.68,389.56c-13.63,1.63-14.2,2-27.68,4.59l18.15,25.64c4.66,6.58,9.68,13.46,17,16.73a22.54,22.54,0,0,0,31.64-22.15c-.6-8.65-6.37-16.47-13.92-20.74s-16.65-5.27-25.24-4.07"/>
   <path class="cls-13" d="M339.34,450.68c-13.64,1.63-14.21,2-27.69,4.59l18.16,25.63c4.66,6.58,9.67,13.46,17,16.74a22.55,22.55,0,0,0,31.64-22.16c-.6-8.65-6.36-16.47-13.92-20.74s-16.64-5.27-25.23-4.06"/>
   <path class="cls-13" d="M463.11,433.42c-9.82-9.6-10.46-9.81-20.94-18.68L433.59,445c-2.2,7.76-4.41,16-2.34,23.77a22.55,22.55,0,0,0,37.1,10.74c6.37-5.89,8.84-15.29,7.43-23.85s-6.34-16.26-12.67-22.2"/>
   <path class="cls-13" d="M451,525.87c-13.42-2.91-14.08-2.75-27.67-4.69l8.8,30.16c2.27,7.74,4.76,15.88,10.66,21.37a22.55,22.55,0,0,0,37.14-10.63c2.25-8.37-.65-17.65-6.4-24.14s-14-10.41-22.53-12.07"/>
   <path class="cls-13" d="M319.78,327.59c-12.39-5.9-13.07-5.9-25.86-10.9l1.67,31.37c.43,8.06,1,16.55,5.48,23.25a22.54,22.54,0,0,0,38.58-1.84c4.12-7.64,3.41-17.33-.69-25s-11.27-13.34-19.18-16.91"/>
   <path class="cls-13" d="m266.54 280.2c6 2.75 12.82 5.53 18.86 3 3.81-1.62 6.48-5.1 8.62-8.64 14.83-24.54 10.94-56.68-1.61-82.46a141 141 0 0 0-40.86-50 150.1 150.1 0 0 0-10.17 113.72c1.5 4.73 3.26 9.45 6.18 13.46 7.62 10.49 23.24 14.16 34.74 8.17"/>
   <path class="cls-13" d="M193.37,340.22c5.84,5,3.35,10.18-.18,17s-10,11.71-16.36,16c-7.76,5.24-16.21,10.23-25.56,10.83-9.87.64-19.35-3.72-27.93-8.64A189.13,189.13,0,0,1,58.64,314c-1.06-1.64-2.06-3.92-.76-5.38a4.62,4.62,0,0,1,2.65-1.16c24-4.81,48.73-9,73-5.28s48.3,16.4,59.86,38"/>
   <path class="cls-13" d="M152.47,250.65c0,16.5-11.33,28-25.25,36.91s-33.39,8.84-46.43-1.27c-17.2-13.33-19.25-37.9-22.44-59.42A279.26,279.26,0,0,0,32,143.17c13.15-3.24,27.07.16,39.57,5.35,38.39,15.95,68.94,49.71,81,89.5,1.26,4.16,2.25,9-.09,12.63"/>
   <path class="cls-13" d="m182.88 215c-13.31-3.39-14-3.26-27.48-5.68l7.71 30.45c2 7.82 4.18 16 9.88 21.75a22.55 22.55 0 0 0 37.49-9.28c2.56-8.29 0-17.66-5.52-24.36s-13.63-10.94-22.08-12.88"/>
   <path class="cls-13" d="M169.52,189.9c5.18,11,16.39,19.35,28.52,19.38,14.32,0,27.46-12.71,27.86-27,.26-9.18-4.09-18-10.11-24.93s-13.63-12.25-21.16-17.5C181.94,131,168.89,122,153.88,118.28a311.1,311.1,0,0,0,4.75,44.12c2.3,12.73,5.89,26.18,15.65,34.67"/>
   <path class="cls-13" d="M116,109.89c2.67,6.66-2.79,14.11-9.28,17.17-12.92,6.11-28.17,1-41.17-5Q55,117.3,44.71,111.79c-7.67-4.12-15.63-9-19.28-16.9,25-8.77,52.54-1.35,78,6.09,2.87.84,5.8,1.71,8.18,3.51s4.11,4.76,3.61,7.7"/>
  </g>
 </g>
</svg>
