<?xml version="1.0" encoding="UTF-8"?>
<svg id="Prior_to_November" data-name="Prior to November" viewBox="0 0 800 800" xmlns="http://www.w3.org/2000/svg">
 <defs>
  <style>.cls-1,.cls-15{fill:none;}.cls-2,.cls-8{fill:#ec3868;}.cls-15,.cls-2{stroke:#2f152f;stroke-miterlimit:10;stroke-width:3px;}.cls-3{fill:#54899b;}.cls-4{clip-path:url(#clip-path);}.cls-5{fill:#e5e6e6;}.cls-6{fill:#2f152f;}.cls-7{fill:#1f1f1f;}.cls-9{fill:#f0e6e8;}.cls-10{fill:#c64744;}.cls-11{fill:#232817;}.cls-12{clip-path:url(#clip-path-2);}.cls-13{fill:#c4d9e3;}.cls-14{fill:#732a81;}.cls-16{clip-path:url(#clip-path-3);}.cls-17{fill:#e7e7e8;}</style>
  <clipPath id="clip-path">
   <path class="cls-1" d="m158.51 578.42c-26.81-392.6 531.16-592.65 586-301.57 6.57 70.7 33.92 210.65 38.88 258.85 1.18 11.47-6.94 19.56-15.47 27.32-110.36 96.42-517.7 48.43-609.37 15.4"/>
  </clipPath>
  <clipPath id="clip-path-2">
   <path class="cls-2" d="m1201.6-535c-167.06-547-671.59 56-116 434.66 5.72 3.9 58.38-3.07 65.15-4.17 726-117.39 384.32-835.29 50.81-430.49"/>
  </clipPath>
  <clipPath id="clip-path-3">
   <path class="cls-1" d="M70.44-82.82c5.46-142.91,95.4-301.73,207.65-355.48C392.72-493.18,634.89-584.7,652-274.11c2.33,42.45,22.36,103.15,24.73,163,.29,7.36-21.38,24.44-25.81,30.33-35.76,47.56-241.7,40.56-301.6,47.56-107.87,12.62-248.45-20-278.85-49.56"/>
  </clipPath>
 </defs>
 <g id="hold_asparagus" data-name="hold asparagus">
  <g id="ReadMD">
   <path class="cls-3" d="M163,575.88c-26.8-392.59,531.17-592.64,586-301.57C755.5,345,782.85,485,787.81,533.16c1.18,11.48-6.94,19.56-15.47,27.32C662,656.9,254.64,608.92,163,575.88"/>
   <g class="cls-4">
    <path class="cls-5" d="m656 636.2c148.16 107.68-418.82 144.85-517.43-9.49s-201.14-129.36 113.76-384.63c37.84-30.67 192.45-98.66 285.13-71.07 18.15 5.4 57.37 29.54 63.16 82.39 5.15 46.91-14 104.75-20.25 158-5.58 47.81 1.81 92.46 4.57 112.11 6.18 43.97 41.73 91.38 71.06 112.69z"/>
   </g>
   <path class="cls-6" d="m679.37 375.24c-5.59-3.37-19.62 3.53-25.57 6.19-28.8 12.88-49.9 44.87-44.1 75.88a43.3 43.3 0 0 0 5 13.93 44.87 44.87 0 0 0 11.45 12.46c20.34 15.74 50.11 18.13 72.7 5.83s36.75-38.59 34.57-64.22c-1.35-15.86-8.85-31.46-21.56-41s-30.71-12.37-45.08-5.54"/>
   <path class="cls-7" d="M254.28,302.92a321.67,321.67,0,0,1-2.85,40.67l.54-4q-.63,4.63-1.39,9.24c-.42,2.58-.86,5.13-1.16,7.73a24.6,24.6,0,0,0,.52,6.94,20.82,20.82,0,0,0,3.71,8.75,28,28,0,0,0,4.11,4.85,27.2,27.2,0,0,0,5.46,3.92,29.19,29.19,0,0,0,13.08,3.35,36.71,36.71,0,0,0,6.69-.8l3.52-.65,33-6.11c4.44-.83,8.89-1.77,13.36-2.37l-4,.54a33,33,0,0,1,8.25-.15l-4-.53a21.66,21.66,0,0,1,5.11,1.41l-3.58-1.51c4.5,2,8.56,5,12.64,7.77L363,392.46l29.7,19.92a25.2,25.2,0,0,0,9.5,4.05c4.91.84,9.94,1,14.7-.73a28,28,0,0,0,6.35-3A29.53,29.53,0,0,0,431,405c1.53-2.07,3-4.18,4.54-6.27L459.16,366c6-8.27,12-16.49,17.9-24.8.09-.14.19-.27.29-.41a11.21,11.21,0,0,0,1.78-5.57,11.47,11.47,0,0,0-.27-6,15.32,15.32,0,0,0-6.9-9c-3.48-1.84-7.69-2.76-11.55-1.51l-3.59,1.51a15.07,15.07,0,0,0-5.38,5.38L435.8,347.32l-24.86,34.45c-1.93,2.68-3.84,5.39-5.81,8l2.35-3a13.19,13.19,0,0,1-2.15,2.14l3-2.35a13.36,13.36,0,0,1-2.57,1.52l3.58-1.51a13.94,13.94,0,0,1-3.52,1l4-.54a14.35,14.35,0,0,1-3.34,0l4,.54a14.25,14.25,0,0,1-3.27-.88l3.58,1.51a39.7,39.7,0,0,1-6.09-3.8l-11.14-7.47-27.33-18.32-7.83-5.25c-1.32-.88-2.63-1.77-4-2.61a38.81,38.81,0,0,0-21.37-6.09c-5.81.15-11.57,1.41-17.28,2.47l-14.15,2.62c-8.82,1.63-17.63,3.28-26.44,4.89l-1.11.18,4-.53a14.64,14.64,0,0,1-3.5,0l4,.54a14.24,14.24,0,0,1-3.2-.9L279,355.4a13.57,13.57,0,0,1-2.77-1.64l3,2.34a13.17,13.17,0,0,1-2-2l2.35,3a12.37,12.37,0,0,1-1.44-2.42l1.51,3.58a11.38,11.38,0,0,1-.76-2.74l.53,4a11.73,11.73,0,0,1,0-3l-.54,4c1.62-10.1,3.14-20.2,4.07-30.4q1.24-13.57,1.33-27.23a15,15,0,0,0-15-15c-3.88.18-7.91,1.45-10.61,4.4a15.59,15.59,0,0,0-4.39,10.6Z"/>
   <g id="Layer_82" data-name="Layer 82">
    <path class="cls-8" d="M270.76,108.82Q290.23,205,309.1,301.29c-69.34,23.07-147,45.55-219.75,36.75-16.73-30.64,35.05-98.76,54.76-124.15,25.17-30.64,53.68-58.37,79.65-88.34,9.94-15,27.52-27.67,46.77-17.38"/>
    <g id="Layer_84" data-name="Layer 84">
     <path class="cls-9" d="m102.79 289.75-21.12 29.76c75.57-0.39 158.73 1.67 234.21-3.72-44.09-196.43-2.64-9.49-50.86-195.9-34.78 28.7-65.29 62.15-94.26 95.42-23.28 24.65-48.26 47.16-68 74.44"/>
    </g>
    <path class="cls-6" d="m62.58 333.78q9.67 40.83 19.85 81.55 10.14 40.51 20.79 80.9 10.69 40.59 21.92 81t23 80.73q11.68 40.1 23.87 80 1.56 5.06 3.1 10.13c1.89 6.13 11.54 3.52 9.65-2.66q-12.32-40.12-24.12-80.4-11.74-40.08-23-80.31-11.28-40.41-22.05-81t-21-81.27q-10.18-40.5-19.87-81.12-1.23-5.16-2.45-10.31c-1.48-6.26-11.13-3.61-9.65 2.66z"/>
    <path class="cls-10" d="M22.93,300.37c29.72,152,87.46,321.19,134.17,468.9,174.58-19.71,325-40.86,498-71.74-16-56.69-98.5-368.62-142.45-481.88-45.28.41-123.77,30-419.43,77.69C185.51,190.05,216,147.48,264.31,105.58,221.74,93,204.68,86.44,200.91,87.46c-5,1.36-110,132.4-178,212.91"/>
    <g id="Layer_89" data-name="Layer 89">
     <g id="Layer_87" data-name="Layer 87">
      <path class="cls-11" d="m111.83 327.77a1487.2 1487.2 0 0 0 44.76 178.12 3365.6 3365.6 0 0 0 362.81-64.46l-47.89-167.92q-181 33.54-363.52 58.68"/>
      <path class="cls-11" d="M109.42,328.43q13.13,70.31,32.94,139.13,5.64,19.57,11.82,39a2.54,2.54,0,0,0,2.41,1.83q71.61-8.72,142.8-20.47t141.53-26.5q39.68-8.31,79.15-17.58a2.53,2.53,0,0,0,1.74-3.07L484.49,309.9l-10.57-37.06a2.57,2.57,0,0,0-3.08-1.74Q400.19,284.18,329.31,296t-142,22.34q-40,5.93-80,11.43c-1.35.19-2.06,1.9-1.75,3.08a2.56,2.56,0,0,0,3.07,1.75q71.19-9.81,142.18-20.9t141.78-23.46q39.83-7,79.56-14.32l-3.07-1.75L506.42,405,517,442.1l1.75-3.08q-69.9,16.39-140.46,29.83T236.69,492.66q-40,5.85-80.1,10.73l2.41,1.84q-21.66-68.16-36.74-138.18-4.28-19.92-8-39.95c-.59-3.16-5.41-1.82-4.82,1.33Z"/>
     </g>
     <g id="Layer_88" data-name="Layer 88">
      <path class="cls-11" d="M354.6,539.71l27.81,59.53,27.8,59.53,15.64,33.5,2.35,3,3,2.34,3.58,1.52a11.37,11.37,0,0,0,6,.26,7.43,7.43,0,0,0,3.79-1,7.55,7.55,0,0,0,3.31-1.93,15.11,15.11,0,0,0,5.37-7.79q7.23-24,12.73-48.48,1.59-7,3-14.1l-22,9,53.89,41L516.2,687.7l3.58,1.51,4,.54a14.9,14.9,0,0,0,9.09-3.22,7.65,7.65,0,0,0,2.69-2.7,14.7,14.7,0,0,0,3-7.09,11.27,11.27,0,0,0-.27-6q-6.33-31.5-13.66-62.77T509,545.92q-4.67-17.4-9.65-34.73a15.62,15.62,0,0,0-6.9-9,15.3,15.3,0,0,0-11.56-1.51c-3.63,1.17-7.13,3.42-9,6.89a15.44,15.44,0,0,0-1.51,11.56q8.88,30.87,16.77,62t14.73,62.28q3.87,17.61,7.41,35.27l22-16.94-53.9-41-15.31-11.64a14.91,14.91,0,0,0-7.57-2A16.7,16.7,0,0,0,444,611.51a14.94,14.94,0,0,0-3.85,6.62q-5,24.55-11.74,48.73-1.94,6.95-4,13.85l27.42-3.58L424,617.6l-27.81-59.53-15.64-33.5c-1.51-3.23-5.66-6-9-6.9A15.35,15.35,0,0,0,360,519.18c-3.2,2.07-6,5.14-6.89,9l-.53,4a14.93,14.93,0,0,0,2,7.57Z"/>
      <path class="cls-11" d="M282.38,553.48c5.74,18.12,11.53,36.22,17.22,54.34,6,18.95,11.83,37.93,17.43,57q4.43,15,8.55,30.14L332.47,678c-.52.25-1,.48-1.57.71l3.58-1.51a38.31,38.31,0,0,1-9.47,2.47l4-.53a76.15,76.15,0,0,1-19.54-.6l4,.54c-15.7-2.15-31.44-5.47-46.09-11.64l3.58,1.52a94,94,0,0,1-20.72-11.87l3,2.34a70.76,70.76,0,0,1-12.42-12.34l2.35,3a62.67,62.67,0,0,1-8.06-13.82l1.51,3.58a68.05,68.05,0,0,1-4.59-17l.54,4a73.33,73.33,0,0,1,0-19.24l-.53,4a72.18,72.18,0,0,1,4.85-17.85l-1.51,3.59a70.5,70.5,0,0,1,9.2-15.68l-2.34,3a77.81,77.81,0,0,1,13.8-13.7l-3,2.35a84.5,84.5,0,0,1,18.51-10.75L268,564.15a84.82,84.82,0,0,1,21-5.76l-4,.54a26.44,26.44,0,0,1,6.52-.41l-4-.54a8.49,8.49,0,0,1,1.48.39l-3.58-1.51a6,6,0,0,1,1,.56l-3-2.35a7,7,0,0,1,1,1l-2.35-3a9.43,9.43,0,0,1,1.07,1.91l-1.51-3.59c1,2.43,1.65,5,2.42,7.54l3.36,10.89q5,16.11,9.91,32.22,5.88,19.13,11.74,38.27,5.18,16.92,10.31,33.86c2,6.6,4.05,13.2,5.93,19.84l.27,1a15.52,15.52,0,0,0,6.89,9A15.36,15.36,0,0,0,344,705.42c3.63-1.18,7.13-3.43,9-6.9A15.61,15.61,0,0,0,354.51,687c-1.59-5.85-3.43-11.64-5.18-17.44q-5-16.49-10-32.93-5.87-19.15-11.74-38.3-5.16-16.78-10.33-33.57-2.88-9.36-5.77-18.72a49.94,49.94,0,0,0-2.56-6.53,17.75,17.75,0,0,0-4-5.4,19.55,19.55,0,0,0-9.38-5,26.41,26.41,0,0,0-7.14-.51c-1.13.1-2.25.24-3.37.39-3.58.46-7.14.94-10.67,1.72A84.76,84.76,0,0,0,261,534.79a108.12,108.12,0,0,0-15.7,7.59c-19.11,11.62-34,29.8-40.14,51.45a93.16,93.16,0,0,0-3,17.85,71.11,71.11,0,0,0,.3,14.44,87.09,87.09,0,0,0,3.59,17.45,80.91,80.91,0,0,0,7.32,16.07,82.32,82.32,0,0,0,10.54,13.69,93.26,93.26,0,0,0,13,11.08c8.39,6.1,17.94,10.45,27.64,14a170,170,0,0,0,27.08,7.31c6,1.14,12,2,18,2.82a82.65,82.65,0,0,0,16.33.86,68,68,0,0,0,11.18-1.59,53.75,53.75,0,0,0,10.43-3.93l3-2.35a11.23,11.23,0,0,0,3.1-4.83,7.4,7.4,0,0,0,1-3.78,11.37,11.37,0,0,0-.26-6c-5-18.34-10.37-36.56-15.92-54.73-5.8-19-11.79-37.93-17.8-56.87q-4.74-14.93-9.48-29.86a15.74,15.74,0,0,0-6.89-9A15.36,15.36,0,0,0,292.86,535c-3.63,1.18-7.13,3.43-9,6.9s-2.74,7.68-1.52,11.55Z"/>
     </g>
    </g>
   </g>
   <g id="Layer_85" data-name="Layer 85">
    <path class="cls-3" d="m566.13 424.52c-36 29.18-104.64 22.11-130.82 61.37-62.58 130.57 250 194.54 226.4 85.12-3.38-15.67-27.87-30.2-34-50-18.08-58.41-27.52-124.22-61.59-96.53"/>
    <path class="cls-6" d="M572.48,417.4a76.28,76.28,0,0,1-11.91,7.13c-1.1.53-2.21,1.05-3.33,1.55l-1.7.74c-.8.35,1-.42.2-.09l-1,.42c-2.39,1-4.79,1.88-7.22,2.73-10.44,3.69-21.16,6.51-31.85,9.38-11.15,3-22.31,6-33.22,9.75-10.75,3.72-21.41,8.17-31,14.32a78,78,0,0,0-24,23.25c-.73,1.13-1.42,2.29-2.08,3.47A5,5,0,0,0,434,495.1a62.11,62.11,0,0,1,4.34-6.76l.51-.68c.5-.68-.7.87,0,0,.45-.55.89-1.1,1.34-1.64.82-1,1.66-1.91,2.53-2.82a72.9,72.9,0,0,1,5.72-5.4c.47-.39.94-.78,1.42-1.16l.77-.62c.88-.69-.81.61.11-.08s2.05-1.52,3.11-2.24a105.21,105.21,0,0,1,14.05-8.08c1.25-.6,2.5-1.18,3.77-1.75l1.77-.77c.32-.14,1.43-.58.05,0l1-.4c2.61-1.08,5.25-2.09,7.9-3.05,10.76-3.88,21.8-6.92,32.83-9.88,10.73-2.88,21.5-5.67,32-9.2,9.53-3.2,19.11-7,27.52-12.57.94-.62,1.86-1.26,2.76-1.93,2.1-1.55,3.37-4.4,1.8-6.84-1.34-2.08-4.6-3.46-6.85-1.8Z"/>
   </g>
  </g>
  <g id="heart">
   <path class="cls-8" d="m1201.6-535c-167.06-547-671.59 56-116 434.66 5.72 3.9 58.38-3.07 65.15-4.17 726-117.39 384.32-835.29 50.81-430.49"/>
   <g class="cls-12">
    <rect class="cls-13" transform="translate(-55.27 -261.53) rotate(12.41)" x="761.25" y="-710.49" width="828.22" height="650.95"/>
    <path class="cls-14" d="M592.3-261.81c3.23.53,6.45,1.1,9.68,1.58Q1156.85-177.05,1711.71-93.9c3.23.49,6.47.89,9.71,1.33-5.46,36.45-11.11,72.88-16.21,109.39-.85,6.06-2.28,7.05-8.32,6.14q-309.14-46.65-618.34-92.85-248.32-37.23-496.66-74.27c-6-.9-7.12-2.27-6.16-8.31C581.56-188.87,586.84-225.35,592.3-261.81Z"/>
   </g>
   <path class="cls-15" d="m1201.6-535c-167.06-547-671.59 56-116 434.66 5.72 3.9 58.38-3.07 65.15-4.17 726-117.39 384.32-835.29 50.81-430.49"/>
  </g>
 </g>
 <g id="J">
  <g class="cls-16">
   <path class="cls-17" d="M483.43-5.19C470.22-39,474.53-76.89,479.05-113l23.64-188.85C507.34-339,511.53-378.88,494-412c-14-26.5-40.57-44.86-69.17-53.84s-59.21-9.43-89.09-6.94c-55.22,4.61-110.51,19.46-156.63,50.18C151.23-404,127.23-380,106-354,79.91-322,57.29-285.6,50.36-244.88c-3,17.95-3,36.27-2.55,54.47,1.09,45.58,4.42,91.24,13.25,136,3.7,18.72,8.59,37.78,19.84,53.19,20.48,28.07,57.75,38.37,92.46,40s69.81-3.42,104.08,2.31c27.74,4.65,54.32,16.29,82.43,17.22,19.08.63,37.93-3.72,56.53-8l36.8-8.56c5.24-1.22,10.68-2.53,14.89-5.88,12.53-9.95,7.46-30.69,15.81-44.35"/>
  </g>
 </g>
</svg>
