<svg xmlns="http://www.w3.org/2000/svg" xmlns:xlink="http://www.w3.org/1999/xlink" viewBox="0 0 800 800"><defs><style>.cls-1{fill:none;}.cls-2{clip-path:url(#clip-path);}.cls-3{fill:#e5e6e6;}.cls-4{fill:#54899b;}.cls-5{fill:#fff;}.cls-6{fill:#2f152f;}.cls-7{clip-path:url(#clip-path-2);}.cls-8{clip-path:url(#clip-path-3);}.cls-9{fill:#e7e7e8;}.cls-10{fill:#d45a89;}.cls-11{fill:#1f1f1f;}</style><clipPath id="clip-path"><path class="cls-1" d="M50.39-97.1a695.2,695.2,0,0,1,76-375.43c13.34-25.57,28.32-50.38,46.39-72.86C204.17-584.52,244.63-616,289.26-639c100.34-51.65,232-55.55,319.33,16,59.17,48.46,90.1,123.27,109.5,197.25S747.83-275,776.78-204.26c4.52,11.06,9.58,22.42,9.05,34.35-.9,20.43-17.6,36.35-34.1,48.42-106.11,77.62-245.41,90-376.86,91.79-118.11,1.6-246.94-7.16-335.14-85.73"/></clipPath><clipPath id="clip-path-2"><path class="cls-1" d="M348.15,660.14s-311.27-.31-307.1-17.06C110.63,363.51,98.15,283.9,210,122.71,528.61-143.51,966.24,375,701.68,636.75,701.68,636.72,348.15,660.14,348.15,660.14Z"/></clipPath><clipPath id="clip-path-3"><path class="cls-1" d="M716.55,640.52c162-103.84,44.4-488.07-135-548.69-2.25-.76,2.21.89,0,0C475.1,49.15,304.47,32.71,216.91,118.35a134.4,134.4,0,0,0-35.7,62.18C142,330.06,58.55,417.36,55.92,646.88c-.2,17.26,397.93,17,397.93,17"/></clipPath></defs><g id="November_Orders" data-name="November Orders"><g id="Layer_218" data-name="Layer 218"><g class="cls-2"><path class="cls-3" d="M667.37,56.84c-119.26,60.65-259.44,58.38-393.19,54.74-39.47-1.08-81.54-3-113.76-25.8C110.75,50.61,103.27-19.59,106.75-80.35a877.77,877.77,0,0,1,41.31-220.24c11.73-36.16,26.14-72.13,49.68-102,50.07-63.54,140.12-90.86,218.26-69.91s141.31,87.13,162.87,165.1c12.2,44.12,12.21,91.47,29.41,133.89,16.85,41.56,49,75.21,68.29,115.68s21.78,96-13.56,123.59"/></g></g></g><g id="yuk"><path class="cls-4" d="M349.76,660c-1.08.07-2.15.11-3.24.11-24.18-.06-309.46-1-305.47-17.06C109.8,366.85,98.44,285.83,206,128.44a48,48,0,0,1,9.52-10.29c312.26-250.92,733.28,239.64,500,503.92A47.44,47.44,0,0,1,683.07,638C613.53,642.56,371.76,658.58,349.76,660Z"/><path class="cls-5" d="M214.11,337.44c-10.56-4.26-22.9-1.76-32.79,3.88s-17.84,14.09-25.61,22.42c-6.78,7.25-13.66,14.67-17.92,23.64-7.46,15.72-5.94,34.2-2.26,51.22,2.8,12.93,6.84,25.81,14.19,36.82,19.68,29.47,63.83,39.07,94,20.42,23.69-14.67,36.56-42.83,38.72-70.61A125.5,125.5,0,0,0,271,362.64c-4.9-10.48-11.52-20.53-21.15-26.93-15.31-10.18-35.82-9.35-53-2.87a92.6,92.6,0,0,0-49.62,129.21c3.45,6.68,7.81,13,13.65,17.75C171,488,184.52,490.53,197.47,492c14,1.64,28.33,2.38,42.05-.87s26.86-10.93,34.13-23c6.55-10.86,7.77-24.13,7.13-36.8a142.44,142.44,0,0,0-14.28-55.22c-8.08-16.5-21.63-32.72-39.93-34.37-7.71-.7-15.41,1.31-22.76,3.73-18.56,6.1-37.08,15.66-47.68,32.06-9.2,14.22-11.33,32.09-9.29,48.9s7.91,32.88,13.75,48.77"/><path class="cls-6" d="M217,327a39.08,39.08,0,0,0-17-2.43,57.63,57.63,0,0,0-19.21,5c-10,4.37-18.52,11.89-26.1,19.62-7.84,8-15.8,16.24-22.06,25.56-6.69,10-9.94,21.52-10.74,33.43-.76,11.28,1,22.75,3.36,33.74a129.43,129.43,0,0,0,10.95,31.78,73.85,73.85,0,0,0,17.34,22.18,84.89,84.89,0,0,0,11.42,8.33,89.68,89.68,0,0,0,12.8,6.16A84.91,84.91,0,0,0,203.46,516a80.75,80.75,0,0,0,26-2.46c19.1-5,34.83-17.76,45.8-33.93,11.15-16.43,16.82-36.31,18.1-56A136.58,136.58,0,0,0,280,356.26a86.37,86.37,0,0,0-7.18-12.44,66.87,66.87,0,0,0-11.06-12.62,61.94,61.94,0,0,0-7.7-5.69,59.2,59.2,0,0,0-8.56-4.14,61.06,61.06,0,0,0-16-3.77,62.35,62.35,0,0,0-14.19,0,89.58,89.58,0,0,0-16.72,3.27,98.51,98.51,0,0,0-26.64,12.87,103.32,103.32,0,0,0-42.76,110.47,93.45,93.45,0,0,0,4.63,14.23,95.25,95.25,0,0,0,7.9,15.61,58.28,58.28,0,0,0,11.25,13.15,57,57,0,0,0,7.9,5.64,68.18,68.18,0,0,0,8.62,4c10,4.08,21.11,5.34,31.81,6.44,12.21,1.26,24.36,1.37,36.5-.73a70.66,70.66,0,0,0,28.3-11.3,57.45,57.45,0,0,0,12-10.74,60.62,60.62,0,0,0,5.41-7.61,62.29,62.29,0,0,0,4.15-9.11,70.34,70.34,0,0,0,3.68-17.16,94.81,94.81,0,0,0,.34-15.26,155.33,155.33,0,0,0-5.69-34.72,144.15,144.15,0,0,0-12.69-30.95,101.94,101.94,0,0,0-9.1-13.28,61.29,61.29,0,0,0-9.45-9.6,67.91,67.91,0,0,0-7.13-5.15,56.22,56.22,0,0,0-8.06-3.85,43,43,0,0,0-15.74-3c-11.38-.1-22.8,3.8-33.22,8.09a136.06,136.06,0,0,0-14.92,7,101.11,101.11,0,0,0-13.46,9.18,67,67,0,0,0-19.17,24,84.46,84.46,0,0,0-7.63,33.51c-.31,11.58,1.59,23.26,4.51,34.43,2.77,10.58,6.54,20.86,10.31,31.11a11.61,11.61,0,0,0,5,6.47,10.83,10.83,0,0,0,14.81-3.88c1.29-2.45,2.08-5.63,1.09-8.34-5.67-15.42-11.35-31-13.58-47.36l.39,2.88a92,92,0,0,1-.16-24.13l-.39,2.87a69.81,69.81,0,0,1,4.61-17.32l-1.09,2.59a58,58,0,0,1,7.37-12.69l-1.69,2.19a66,66,0,0,1,11.56-11.47l-2.19,1.7a98.48,98.48,0,0,1,21.9-12.48l-2.58,1.09c8.07-3.39,16.62-6.5,25.32-7.74l-2.88.38a40,40,0,0,1,10.42-.11l-2.87-.39a36.65,36.65,0,0,1,9.06,2.52l-2.58-1.09a44.26,44.26,0,0,1,9.33,5.56l-2.19-1.69a62.48,62.48,0,0,1,10.73,10.95l-1.69-2.19a101.42,101.42,0,0,1,12.54,22.23l-1.09-2.58a144.37,144.37,0,0,1,10,36.38l-.39-2.88a110,110,0,0,1,.58,28.54l.39-2.88a58,58,0,0,1-3.74,14.37l1.09-2.58a44.25,44.25,0,0,1-5.68,9.78l1.69-2.19a47.71,47.71,0,0,1-8.4,8.28l2.19-1.69a58.7,58.7,0,0,1-12.65,7.28l2.58-1.09a72.34,72.34,0,0,1-18.19,4.79l2.88-.39c-12.56,1.62-25.33.63-37.83-1l2.88.39c-7.51-1-15-2.49-22-5.41l2.58,1.09A46.86,46.86,0,0,1,167,471l2.19,1.69a45.78,45.78,0,0,1-7.87-8l1.7,2.19a75.77,75.77,0,0,1-9.31-16.38l1.09,2.58a94.77,94.77,0,0,1-6.53-24l.39,2.88a96.3,96.3,0,0,1,0-25.27l-.39,2.88a91.69,91.69,0,0,1,6.32-23.21L153.51,389a93.24,93.24,0,0,1,12-20.43l-1.69,2.19a96.71,96.71,0,0,1,17-17l-2.19,1.7a93.71,93.71,0,0,1,20.46-12l-2.58,1.09A79.33,79.33,0,0,1,216.53,339l-2.88.39a64.68,64.68,0,0,1,16.39-.1l-2.88-.38a50.55,50.55,0,0,1,12.9,3.46l-2.59-1.09a44.46,44.46,0,0,1,9.57,5.63l-2.19-1.7a53.9,53.9,0,0,1,9.25,9.42l-1.69-2.19a90.94,90.94,0,0,1,11.13,19.77l-1.09-2.58a127.05,127.05,0,0,1,8.79,32.24l-.38-2.87a123.47,123.47,0,0,1,.1,32.25l.38-2.88A107,107,0,0,1,264,455.55l1.09-2.59a90.59,90.59,0,0,1-11.49,19.86l1.69-2.19a75.54,75.54,0,0,1-13.38,13.48l2.19-1.69a65.61,65.61,0,0,1-14.41,8.47l2.58-1.09a67.53,67.53,0,0,1-16.82,4.53l2.87-.39a74.29,74.29,0,0,1-19.48,0l2.87.38A76.57,76.57,0,0,1,182.23,489l2.58,1.09A72.23,72.23,0,0,1,169.14,481l2.19,1.69a65.48,65.48,0,0,1-11.44-11.37l1.7,2.19A75,75,0,0,1,152,456.78l1.09,2.58a140.71,140.71,0,0,1-9.25-35.3l.39,2.88a88.48,88.48,0,0,1-.32-23.5l-.39,2.87a57.28,57.28,0,0,1,3.78-14.08l-1.09,2.59a61.56,61.56,0,0,1,8.08-13.41l-1.69,2.19c4.26-5.47,9.07-10.5,13.83-15.53a133.76,133.76,0,0,1,15-14.06l-2.19,1.69A59,59,0,0,1,192,348.07l-2.59,1.09a45.37,45.37,0,0,1,11.3-3.12l-2.87.39a36.14,36.14,0,0,1,9.06,0l-2.88-.38a30.53,30.53,0,0,1,7.17,1.87c2.45,1,6.16.18,8.34-1.09A10.83,10.83,0,0,0,223.45,332l-1.69-2.19A10.85,10.85,0,0,0,217,327Z"/><path class="cls-4" d="M157.08,541.17c-.34-9.16-32.3,88.77-19.85,152,5.16,26.21,14.73,62.31,46.47,71.54C233.64,779.19,320,641.31,324.24,601.23"/><g class="cls-7"><g class="cls-8"><path class="cls-9" d="M332.38,648.66a594,594,0,0,0,53.84-247.22c-.09-43.34-5-86.81-.28-129.94s20.34-87.18,54.73-117.12C490.11,111.32,570.83,107.22,632,135s104,82.28,127.19,140.91,28.93,121.68,32.14,183.93C793.72,505.4,794,554,767.46,592.64c-13,18.94-31.61,34.1-50.91,47.88-70.1,50-154.14,85.5-242.72,93.61-34.15,3.12-70.43,1.78-100.06-14s-49.89-49.46-38.86-79.08"/></g></g><path class="cls-10" d="M517.64,265.19q6.55,34.26,15.65,68c3.25,12,9.44,26.33,21.87,27.22,5.77.41,11.28-2.44,15.9-5.91,17.42-13,26.23-35.27,27.09-57S592.8,254.31,584.91,234"/><path class="cls-11" d="M510.41,267.19q5.56,29.07,12.95,57.75c2.13,8.24,4.15,16.48,7.8,24.21,3.11,6.57,8,13.25,14.78,16.34a25.13,25.13,0,0,0,15.17,1.91A32.31,32.31,0,0,0,574,361.58a70.14,70.14,0,0,0,18-18.85c9.11-13.92,13.43-30.85,13.74-47.38.36-19.39-4.49-38.59-11.08-56.7q-1.2-3.32-2.48-6.6a8.12,8.12,0,0,0-3.45-4.48,7.68,7.68,0,0,0-5.78-.76c-3.54,1.15-6.76,5.31-5.24,9.23,5.5,14.16,10.15,28.74,12.23,43.83l-.27-2a105.73,105.73,0,0,1,.27,28l.27-2a85.8,85.8,0,0,1-5.83,21.57l.76-1.79a74.44,74.44,0,0,1-4.68,9.21q-1.32,2.21-2.8,4.3c-.48.67-1,1.33-1.47,2,1.6-2.14-.33.37-.73.84a59.19,59.19,0,0,1-7.27,7.24c-.29.25-.59.49-.89.73l-.6.47.91-.7a20.25,20.25,0,0,1-2.39,1.7,33.61,33.61,0,0,1-5.24,2.85l1.79-.76a21.66,21.66,0,0,1-5.23,1.47l2-.27a17.76,17.76,0,0,1-4.31,0l2,.27A16.91,16.91,0,0,1,552,351.9l1.79.76a18.35,18.35,0,0,1-2.16-1.11c-.34-.21-.68-.44-1-.67-1.45-1,1.22,1,.3.24a35.17,35.17,0,0,1-3.49-3.63c1.67,2,.56.72.2.21s-.5-.72-.74-1.09c-.48-.75-.94-1.52-1.37-2.3a53.29,53.29,0,0,1-2.39-4.93l.76,1.79a89.83,89.83,0,0,1-3.75-11.43q-2.13-8-4.12-15.93-4-16.08-7.46-32.31-1.93-9.13-3.69-18.3c-.74-3.86-5.58-6.42-9.22-5.24-4.12,1.34-6,5.09-5.24,9.23Z"/><path class="cls-6" d="M475.69,279.91q4.5-8.51,9.31-16.84,2.34-4.06,4.76-8.09a79.27,79.27,0,0,1,4.71-7.41l-1.69,2.19a15.42,15.42,0,0,1,2.55-2.62l-2.19,1.69a10,10,0,0,1,1.82-1.06l-2.59,1.09a8.72,8.72,0,0,1,1.71-.48l-2.87.39a9,9,0,0,1,2.2,0l-2.88-.38a12.57,12.57,0,0,1,2.56.76l-2.58-1.09a58.39,58.39,0,0,1,11.83,7.53l-2.19-1.7a102.68,102.68,0,0,1,13.38,12.91c4.66,5.23,10.36,10.4,17.44,11.86a25.21,25.21,0,0,0,13.21-.56,34.14,34.14,0,0,0,11.44-6.71c5.28-4.51,8.67-10.82,11.41-17.08s5.51-12.62,9.78-18.2l-1.69,2.19A58.32,58.32,0,0,1,585.42,228l-2.19,1.69A52.21,52.21,0,0,1,594,223.28l-2.58,1.09a24.44,24.44,0,0,1,5.93-1.72l-2.88.39a15.74,15.74,0,0,1,3.88,0l-2.87-.39a14.5,14.5,0,0,1,3.29.92l-2.58-1.09a23.63,23.63,0,0,1,4.69,2.9l-2.19-1.69a129.6,129.6,0,0,1,22.57,22.87l-1.7-2.19A136,136,0,0,1,637,274.1l-1.1-2.58q1.74,4.13,3.21,8.35a11.57,11.57,0,0,0,5,6.47,10.83,10.83,0,0,0,14.81-3.88c1.31-2.48,2-5.6,1.09-8.34a146.78,146.78,0,0,0-34.69-55.7,131,131,0,0,0-13.48-11.75A25.9,25.9,0,0,0,602.5,202a27.11,27.11,0,0,0-12.85.14,42.29,42.29,0,0,0-9.9,4.06,55.77,55.77,0,0,0-6.18,3.89,67.57,67.57,0,0,0-12.77,11.7,70.67,70.67,0,0,0-10.21,16.43c-2.48,5.6-4.64,11.48-8.42,16.37l1.7-2.19a27.33,27.33,0,0,1-4.47,4.46l2.19-1.69a21.82,21.82,0,0,1-4.68,2.76l2.59-1.09a17,17,0,0,1-4,1.11l2.87-.38a15.26,15.26,0,0,1-3.76,0l2.87.39a15.37,15.37,0,0,1-3.25-.9l2.58,1.09a19.76,19.76,0,0,1-4.14-2.42l2.19,1.69c-4.44-3.45-7.76-8.12-11.73-12.07a96.89,96.89,0,0,0-16.27-12.91c-3.25-2.05-6.78-4.15-10.58-4.89a18.41,18.41,0,0,0-9,.2,20.75,20.75,0,0,0-7.53,4.31,32.73,32.73,0,0,0-6.31,8.09q-2.64,4.31-5.19,8.67Q462.4,258.78,457,269a11.39,11.39,0,0,0-1.09,8.34,11,11,0,0,0,5,6.47c5,2.64,12,1.45,14.81-3.89Z"/><path class="cls-6" d="M319.42,558.94c-2.27,14.32-4,28.77-6.82,43a179.6,179.6,0,0,1-9.6,31.73q-1.15,2.93-2.35,5.83l-1.24,3-.29.68c-.5,1.18.42-1-.08.2-.23.53-.46,1.07-.68,1.6q-3.24,7.59-6.58,15.13c-1.06,2.39-.78,5.48,1.79,6.84,2.17,1.15,5.71.76,6.84-1.79,6.28-14.25,12.8-28.55,17.5-43.41,3.34-10.55,5.23-21.41,6.91-32.33,1.42-9.27,2.78-18.54,4.24-27.8.41-2.58-.66-5.51-3.49-6.15-2.4-.55-5.71.72-6.15,3.49Z"/></g></svg>