<?xml version="1.0" encoding="UTF-8"?>
<svg id="Prior_to_November" data-name="Prior to November" viewBox="0 0 800 800" xmlns="http://www.w3.org/2000/svg">
 <defs>
  <style>.cls-1{fill:none;}.cls-2{fill:#54899b;}.cls-3{clip-path:url(#clip-path);}.cls-4{fill:#e5e6e6;}.cls-5{fill:#2f152f;}</style>
  <clipPath id="clip-path">
   <path class="cls-1" d="M35.77,707.08C5.14,258.38,642.84,29.74,705.47,362.41c7.51,80.81,38.77,240.76,44.43,295.84,1.35,13.11-7.93,22.36-17.68,31.22-126.13,110.2-591.67,55.36-696.45,17.61"/>
  </clipPath>
 </defs>
 <g id="hold_asparagus" data-name="hold asparagus">
  <g id="Layer_1" data-name="Layer 1">
   <path class="cls-2" d="M40.87,704.18C10.24,255.49,647.94,26.85,710.57,359.52c7.51,80.81,38.77,240.75,44.43,295.83,1.35,13.12-7.93,22.36-17.68,31.23-126.13,110.2-591.67,55.35-696.45,17.6"/>
   <g class="cls-3">
    <path class="cls-4" d="m604.33 773.11c169.33 123.07-333-21.41-542.28-21.41s73.59-603.91 406.82-510.25c20.84 5.86 65.57 33.76 72.2 94.16 5.93 53.62-16.07 119.72-23.15 180.52-6.38 54.65 2.07 105.68 5.22 128.14 7.06 50.3 47.69 104.49 81.19 128.84z"/>
   </g>
   <path class="cls-5" d="m631.06 474.87c-6.38-3.86-22.41 4-29.22 7.07-32.92 14.72-57 51.28-50.4 86.72a49.37 49.37 0 0 0 5.67 15.92 51.3 51.3 0 0 0 13.08 14.24c23.25 18 57.27 20.72 83.09 6.67s42-44.11 39.51-73.4c-1.54-18.13-10.11-36-24.64-46.9s-35.1-14.13-51.52-6.32"/>
   <path class="cls-5" d="M176.14,382.69a457.37,457.37,0,0,1-4,58l.53-4c-.47,3.5-1.33,7-1,10.58a32.41,32.41,0,0,0,3.47,12.49,23.27,23.27,0,0,0,2.55,3.71,21.14,21.14,0,0,0,3,3.43,26.27,26.27,0,0,0,10.66,5.91,27.13,27.13,0,0,0,13-.1l3.86-.89,29.89-6.9c4.14-1,8.33-2.09,12.54-2.7l-4,.53a24.34,24.34,0,0,1,6-.11l-4-.54a16.81,16.81,0,0,1,3.89,1L249,461.64a26.2,26.2,0,0,1,5.52,3.36l-3-2.35c3.19,2.48,6.24,5.15,9.34,7.74l15.76,13.19c8.22,6.87,16.41,13.79,24.66,20.63,3.34,2.76,6.92,5.28,11.3,6.14a24.91,24.91,0,0,0,7,.63,26.87,26.87,0,0,0,10.53-2.91c4.53-2.21,8.22-6.31,10.71-10.61l5.28-9.13,21.33-36.87,15.11-26.14.26-.44a15.59,15.59,0,0,0,1.51-11.56,15.29,15.29,0,0,0-6.89-9c-3.49-1.84-7.7-2.77-11.56-1.52a15.6,15.6,0,0,0-9,6.9l-14.53,25.12-22.85,39.52-3.65,6.31a34,34,0,0,1-2.2,3.56l2.34-3a13.54,13.54,0,0,1-2.15,2.13l3-2.34a12.29,12.29,0,0,1-2.19,1.28l3.58-1.51a11.4,11.4,0,0,1-2.67.74l4-.54a11.15,11.15,0,0,1-2.45,0l4,.54a12,12,0,0,1-2.42-.64l3.58,1.51a11.83,11.83,0,0,1-2.57-1.5l3,2.34c-4.82-3.91-9.53-8-14.29-11.94L284.27,451l-7.41-6.19-1.41-1.18a77,77,0,0,0-8.47-6.46,32.86,32.86,0,0,0-4.63-2.23,23.43,23.43,0,0,0-5.23-1.73,38.54,38.54,0,0,0-7.18-.75,58,58,0,0,0-7.68.87c-1.87.29-3.71.7-5.54,1.12l-2.47.57-12.87,3c-8.39,1.94-16.78,3.9-25.17,5.81-.43.1-.86.19-1.3.26l4-.54a11,11,0,0,1-2.5,0l4,.53a10.86,10.86,0,0,1-2.62-.73l3.58,1.51a12.19,12.19,0,0,1-2.09-1.23l3,2.34a12.84,12.84,0,0,1-2.22-2.2l2.34,3a14.12,14.12,0,0,1-1.79-3.11l1.51,3.59a15.31,15.31,0,0,1-1-3.66l.53,4a16.39,16.39,0,0,1,0-4l-.54,4a484.59,484.59,0,0,0,4.94-64.91,15.5,15.5,0,0,0-4.4-10.61,15.23,15.23,0,0,0-10.6-4.39c-3.88.17-7.91,1.45-10.61,4.39a15.68,15.68,0,0,0-4.39,10.61Z"/>
  </g>
 </g>
</svg>
