<?xml version="1.0" encoding="UTF-8"?>
<svg id="Prior_to_November" data-name="Prior to November" viewBox="0 0 800 800" xmlns="http://www.w3.org/2000/svg">
 <defs>
  <style>.cls-1,.cls-3{fill:none;}.cls-2{fill:#ec3868;}.cls-3{stroke:#381e25;stroke-miterlimit:10;stroke-width:3px;}.cls-4{clip-path:url(#clip-path);}.cls-5{fill:#e5e6e6;}.cls-6{clip-path:url(#clip-path-2);}.cls-7{fill:#54899b;}.cls-8{fill:#558b9c;}.cls-9{clip-path:url(#clip-path-3);}.cls-10{fill:#e7e7e8;}.cls-11{fill:#2f152f;}.cls-12{fill:#c64744;}.cls-13{clip-path:url(#clip-path-4);}.cls-14{opacity:0.63;}.cls-15{fill:#e0817e;}</style>
  <clipPath id="clip-path">
   <path class="cls-1" d="M15.23-93.93C-17.59-574.64,665.61-819.59,732.7-463.19c8,86.58,41.54,257.93,47.61,317,1.44,14-8.5,24-18.94,33.45C626.23,5.27,127.48-53.49,15.23-93.93"/>
  </clipPath>
  <clipPath id="clip-path-2">
   <path class="cls-1" d="m869.34 735.62c-28.09-411.57 556.84-621.29 614.29-316.14 6.89 74.12 35.56 220.83 40.76 271.35 1.24 12-7.28 20.51-16.22 28.65-115.7 101.08-542.72 50.77-638.83 16.14"/>
  </clipPath>
  <clipPath id="clip-path-3">
   <path class="cls-1" d="M98.92,737.18c5.46-142.91,95.4-301.73,207.65-355.48,114.63-54.88,356.8-146.4,373.88,164.19,2.34,42.45,22.36,103.15,24.73,163,.29,7.36-21.37,24.44-25.8,30.33-35.77,47.56-241.71,40.56-301.61,47.56-107.86,12.62-248.44-20-278.85-49.56"/>
  </clipPath>
  <clipPath id="clip-path-4">
   <path class="cls-1" d="M160.06,624.58c-22.64,15.92-21.72,52.16-4.9,74.15s44.22,32.78,70.68,40.93c25.11,7.73,51,14.05,77.3,13.74,79.32-.93,144.47-60,200.75-115.87,38.69-38.43,77.5-77.57,106-124,42.26-68.85,59.68-150.37,65.16-231,2.24-33,2.49-66.94-8.18-98.27s-34-59.94-65.83-69.15c-37.89-11-79.63,8.23-105.14,38.33s-37.61,69.17-46.13,107.69-14.18,78.05-29.41,114.44C385.05,460,304.45,515.12,227.86,565.21c-33.14,21.68-37.34,30.71-67.8,59.37"/>
  </clipPath>
 </defs>
 <g id="hold_asparagus" data-name="hold asparagus">
  <g id="Layer_133" data-name="Layer 133">
   <path class="cls-2" d="M370,1105c-167.06-547-671.59,56-116,434.66,5.72,3.9,58.38-3.07,65.15-4.17C1045.21,1418.12,703.5,700.22,370,1105"/>
   <path class="cls-3" d="M370,1105c-167.06-547-671.59,56-116,434.66,5.72,3.9,58.38-3.07,65.15-4.17C1045.21,1418.12,703.5,700.22,370,1105"/>
  </g>
  <g id="mlem">
   <g class="cls-4">
    <path class="cls-5" d="m624.35-23.19c181.41 131.85-134.53 142.76-358.79 142.76s-392.94-182.18-406.06-406.06c-12.36-210.93-1950.1 1917.8 213.66-174.43 91.75-88.72 292.59-165.63 406.07-131.85 22.22 6.61 70.25 36.16 77.34 100.87 6.3 57.44-17.19 128.26-24.79 193.4-6.84 58.55 2.22 113.22 5.59 137.28 7.57 53.89 51.1 111.95 86.98 138.03z"/>
   </g>
  </g>
  <g id="love">
   <g class="cls-6">
    <path class="cls-7" d="M795.83,709.48c31.15-24.16,125.54-93.19,160.4-112.55,7.07-3.64,14.46-7.71,22.1-11.29,25.13-11.77,55.23-.79,66.35,24.63,24.81,56.75,11.14,140.34,18,196.54"/>
   </g>
  </g>
 </g>
 <g id="Sassage">
  <path class="cls-8" d="M98.92,737.18c5.46-142.91,95.4-301.73,207.65-355.48,114.63-54.88,356.8-146.4,373.88,164.19,2.34,42.45,22.36,103.15,24.73,163,.29,7.36-21.37,24.44-25.8,30.33-35.77,47.56-241.71,40.56-301.61,47.56-107.86,12.62-248.44-20-278.85-49.56"/>
  <g class="cls-9">
   <path class="cls-10" d="M511.91,814.81C498.7,781,503,743.11,507.53,707l23.64-188.85C535.82,481,540,441.12,522.52,408c-14-26.5-40.57-44.86-69.17-53.84s-59.21-9.43-89.08-6.94C309,351.83,253.75,366.68,207.63,397.4,179.72,416,155.72,440,134.51,466c-26.12,32-48.73,68.42-55.66,109.14-3.06,18-3,36.27-2.55,54.47,1.08,45.58,4.42,91.24,13.25,136,3.69,18.72,8.59,37.78,19.83,53.19,20.48,28.07,57.75,38.37,92.46,40s69.81-3.42,104.08,2.31c27.74,4.65,54.32,16.29,82.43,17.22,19.08.63,37.93-3.72,56.53-8l36.8-8.56c5.25-1.22,10.68-2.53,14.89-5.88,12.54-9.95,7.47-30.69,15.81-44.35"/>
  </g>
  <path class="cls-11" d="M335.24,402.75a85.41,85.41,0,0,0-5.45,38.6c.33,3.67,1,7.58,3.57,10.24,4.27,4.47,11.52,3.52,17.54,2.18q29.84-6.61,59.23-15c-4.54,34.13-27.46,65.26-58.71,79.73-8.21,3.81-17.37,6.55-26.26,4.85-12.71-2.43-22.35-13.8-25.86-26.25s-1.81-25.79,1.3-38.35c5.68-22.94,16.47-45.24,34.22-60.85"/>
  <circle class="cls-11" cx="606.48" cy="595.91" r="58.84"/>
  <path class="cls-12" d="M160.06,624.58c-22.64,15.92-21.72,52.16-4.9,74.15s44.22,32.78,70.68,40.93c25.11,7.73,51,14.05,77.3,13.74,79.32-.93,144.47-60,200.75-115.87,38.69-38.43,77.5-77.57,106-124,42.26-68.85,59.68-150.37,65.16-231,2.24-33,2.49-66.94-8.18-98.27s-34-59.94-65.83-69.15c-37.89-11-79.63,8.23-105.14,38.33s-37.61,69.17-46.13,107.69-14.18,78.05-29.41,114.44C385.05,460,304.45,515.12,227.86,565.21c-33.14,21.68-37.34,30.71-67.8,59.37"/>
  <path class="cls-12" d="M547.92,115.29A77,77,0,0,1,519.51,89c-1.6-2.5-3-5.82-1.35-8.26a7.28,7.28,0,0,1,3.62-2.38c15.28-5.79,33.93-1.13,44.69,11.18,1.46,1.67,3.15,3.63,5.36,3.48,1.92-.13,3.3-1.82,4.53-3.29a44,44,0,0,1,33-15.49c6.28,0,12.93,1.5,17.34,6s5.55,12.44,1.23,17a86.1,86.1,0,0,1,43.16-.72c6.21,1.5,12.52,3.88,16.78,8.64s5.78,12.46,2,17.6c-3.13,4.25-8.74,5.66-13.89,6.79l-44.85,9.84"/>
  <path class="cls-12" d="m142.66 659.14c-5.16-5.11-13.31-7.25-20.09-4.64s-11.51 10.14-10.25 17.3 8.91 12.73 16 11.16c-7 9.28-1.79 23.81 8.11 29.94s22.49 5.77 33.92 3.53a120.53 120.53 0 0 0 24.26-7.43"/>
  <path class="cls-7" d="m400.22 788.14c-204.77-216.68 55.37-266.66 204.68-97.76 19.3 21.83 30.55 38.32 37.42 60.71a43.86 43.86 0 0 1 1.29 5.32c-1.28 3-4.6 4.47-7.67 5.52-78.56 17.17-155.46 22.73-235.72 26.21"/>
  <path class="cls-7" d="M145.13,602.23C99,578.73,63.29,720.7,138.77,752.31c36.26,14.36,76,18.59,113.67,28.5C295.8,792.11,323,737.37,334,703,370.5,544,245.75,471.59,140,605.7"/>
  <path class="cls-11" d="M646,755.75a84.45,84.45,0,0,0-5.58-17.24,128.84,128.84,0,0,0-7.63-15.34c-6.34-10.83-14.17-20.73-22.35-30.21-17.08-19.83-36.79-37.14-57.93-52.53q-8.37-6.09-17-11.74-4.11-2.67-8.29-5.23c-1.39-.85-2.8-1.69-4.21-2.53l-1.91-1.12s-1-.65-.48-.19a4,4,0,0,1-.34-.38l-3.54,3.53c3.7,3.17,8.16,5.57,12.23,8.25q13.86,9.16,27.15,19.16c5.44,4.12,10.92,8.46,16.32,13q8.79,7.33,17.12,15.21a242.13,242.13,0,0,1,31.1,35c8.57,12,16,25.22,19.59,39.54.35,1.38.66,2.76,1,4.15.73,3.13,5.55,1.81,4.82-1.33A122.22,122.22,0,0,0,628.47,716a229.28,229.28,0,0,0-30.63-36.56,381.94,381.94,0,0,0-34.27-29.78q-14.16-11-29-20.91c-4.68-3.14-9.37-6.29-14.14-9.27-.37-.23.4.51.31.24s-.32-.37-.45-.48a2.5,2.5,0,0,0-3.54,3.53,9.09,9.09,0,0,0,2.47,1.73c1.29.75,2.58,1.52,3.86,2.29q3.65,2.21,7.24,4.5,7.58,4.83,14.92,10,15.66,11.06,30.19,23.61a295.79,295.79,0,0,1,27.47,26.92c8.39,9.46,16.5,19.24,23.25,29.95A127.47,127.47,0,0,1,635,738.36a85.56,85.56,0,0,1,6.22,18.72,2.53,2.53,0,0,0,3.08,1.75A2.57,2.57,0,0,0,646,755.75Z"/>
  <g class="cls-13">
   <g class="cls-14">
    <path class="cls-15" d="m278.59 504.73c52.7-49.4 101.29-57.71 147.74 4.81-48.33-11.18-100-5.31-150.23-2a15.53 15.53 0 0 1 13-13.13"/>
    <path class="cls-15" d="M439.52,310.57C364.16,131.67,643.57,60.94,592.67,166,555.5,220,512.06,395.84,427,357.65c6.26-17.42,5.54-16.89,12.52-47.08"/>
   </g>
  </g>
 </g>
</svg>
