<?xml version="1.0" encoding="UTF-8"?>
<svg id="Prior_to_November" data-name="Prior to November" viewBox="0 0 800 800" xmlns="http://www.w3.org/2000/svg">
 <defs>
  <style>.cls-1{fill:none;}.cls-2{clip-path:url(#clip-path);}.cls-3{fill:#e7e7e8;}.cls-4{fill:#55889a;}.cls-5{clip-path:url(#clip-path-2);}.cls-6{fill:#e4e5e5;}.cls-7{fill:#2f152f;}.cls-8{clip-path:url(#clip-path-3);}.cls-9{fill:#fff;}.cls-10{fill:#2f172f;}</style>
  <clipPath id="clip-path">
   <path class="cls-1" d="M88.53-95.48c4.75-124.33,83-262.49,180.64-309.25,99.73-47.74,310.4-127.36,325.26,142.84,2,36.92,19.45,89.73,21.51,141.76.25,6.41-18.59,21.26-22.45,26.39C562.38-52.37,383.22-58.46,331.12-52.37,237.28-41.39,115-69.75,88.53-95.48"/>
  </clipPath>
  <clipPath id="clip-path-2">
   <path class="cls-1" d="M32.35,747.51C-.57,265.3,684.77,19.58,752.07,377.1,760.14,464,793.74,635.84,799.83,695c1.45,14.09-6.34,27.22-19,33.55-207.66,103.86-645,77.91-748.47,18.92"/>
  </clipPath>
  <clipPath id="clip-path-3">
   <circle class="cls-1" cx="653.81" cy="611.55" r="98.57"/>
  </clipPath>
 </defs>
 <g id="hold_asparagus" data-name="hold asparagus">
  <g id="broom">
   <g class="cls-2">
    <path class="cls-3" d="M447.81-27.95c-11.49-29.46-7.74-62.37-3.81-93.75Q454.28-203.84,464.56-286c4.05-32.34,7.7-67-7.52-95.86-12.18-23.06-35.29-39-60.17-46.84s-51.52-8.2-77.51-6c-48,4-96.13,16.93-136.26,43.65-24.28,16.18-45.16,37.05-63.61,59.66-22.72,27.83-42.39,59.52-48.42,95-2.66,15.61-2.6,31.55-2.22,47.38.94,39.66,3.84,79.37,11.53,118.29,3.21,16.28,7.47,32.86,17.25,46.27C115.45-.1,147.87,8.86,178.06,10.29s60.74-3,90.55,2c24.13,4,47.26,14.16,71.71,15,16.59.55,33-3.23,49.17-7l32-7.45c4.56-1.06,9.29-2.2,12.95-5.11C445.37-.95,441-19,448.22-30.87"/>
   </g>
  </g>
  <g id="Layer_1" data-name="Layer 1">
   <path class="cls-4" d="M8.4,747.51C-24.52,265.3,660.81,19.58,728.12,377.1,736.19,464,769.78,635.84,775.87,695c1.45,14.09-8.52,24-19,33.55C621.31,847,121,788.08,8.4,747.51"/>
   <g class="cls-5">
    <path class="cls-6" d="M643.38,818.48C771.17,911.36,258.6,957.31,75.2,764.84,40,727.93,56.38,783.15,4.51,633.79-18,569,25.06,481.38,90.47,379.37c69.09-107.77,304.85-177.17,411-137.11,21.77,8.21,66.78,41.12,73.9,106,6.32,57.62-17.25,128.66-24.87,194C543.66,601,552.74,655.88,556.13,680,563.72,734.07,607.38,792.31,643.38,818.48Z"/>
    <path class="cls-4" d="M241.59,837.78c-35.72-90.84,17.83-240.4,42.26-300,5.75-14,20.75-19.48,32.56-11.85C362,555.33,464.61,622.1,471,630.71,482.85,646.7,603,738,633.89,766l-48.2,23.39"/>
    <path class="cls-4" d="m-71.89 797.18c52.45-53.76 211.3-207.35 270-250.44 11.89-8.11 24.33-17.16 37.19-25.12 42.29-26.2 93-1.77 111.66 54.81 41.77 126.28 18.76 312.29 30.31 437.34"/>
   </g>
   <path class="cls-1" d="m351.21 246.66c82.08-17.28 174.43-15.42 200.79 80.83 19.48 71.36-11.37 143.47-20.66 214.1-9.11 81.35 3.93 186 64.07 245.9"/>
   <circle class="cls-7" cx="654.25" cy="611.67" r="98.57"/>
   <g class="cls-8">
    <path class="cls-9" d="M602.7,679.44c19.54-2.14,31.14-2.43,50.65-.05,3.71.45,7.55,1,10.63,3.14,5.42,3.72,6.95,11.49,4.82,17.71s-7.22,11-12.77,14.51c-18,11.37-42.77,10.77-60.17-1.46a23.51,23.51,0,0,1-7-7c-5.93-10,2.57-23.83,13.82-26.89"/>
    <path class="cls-9" d="M695.58,521.84c-6.73-9.53-17.6-9.44-29-11.9-20.29-4.36-42.1.31-59.64,11.4s-30.88,28.29-38.68,47.53c-3.19,7.87-5.52,16.52-3.7,24.82,3.82,17.48,24.06,26.17,41.94,26.93,41.51,1.76,82.41-27.16,94.6-66.88,3.38-11,3.78-25.08-5.52-31.9"/>
    <path class="cls-9" d="m731.45 607.13c-15.73-1.13-20.58 7-25.44 15.25-4.27 7.24-2.66 17.54 3.71 23 8.79 7.56 24.12 3.31 29.4-7s1.23-23.84-7.67-31.26"/>
   </g>
   <path d="M297.9,453.07a282,282,0,0,1,22.74-38.74q3.72-5.29,7.67-10.42l-2.29,3q5-6.42,10.28-12.55,2.59-3,5.26-5.89a53.07,53.07,0,0,1,5.62-5.7l-3,2.29a9.58,9.58,0,0,1,2-1.2l-3.5,1.47a7.23,7.23,0,0,1,1.47-.39l-3.9.52a7.42,7.42,0,0,1,1.49,0l-3.89-.52a7.33,7.33,0,0,1,1.38.42l-3.5-1.48a9.46,9.46,0,0,1,1.59,1l-3-2.29a13.6,13.6,0,0,1,2.13,2.16l-2.3-3a21.64,21.64,0,0,1,2.55,4.46l-1.48-3.5a30.1,30.1,0,0,1,1.89,7.29l-.52-3.89a76.83,76.83,0,0,1,.3,12.69c-.19,5-.34,10-.38,14.95q-.12,15.31.87,30.6.56,8.63,1.47,17.23a16.25,16.25,0,0,0,4.29,10.35,14.88,14.88,0,0,0,10.35,4.29c3.79-.17,7.72-1.41,10.36-4.29,2.47-2.69,4.69-6.56,4.29-10.35a422.7,422.7,0,0,1-2.35-42.39c0-6.8.14-13.6.39-20.39.26-7,.19-14.14-1.69-20.89a33.76,33.76,0,0,0-4.93-10.79,28.54,28.54,0,0,0-7.49-7.57c-3.17-2.25-6.61-3-10.37-3.38-6.22-.66-12.18,2.79-16.51,6.91-2.23,2.12-4.27,4.47-6.33,6.76a309.32,309.32,0,0,0-25.21,32.06,282.44,282.44,0,0,0-21.11,36.4,10.9,10.9,0,0,0-1.74,5.44,11.15,11.15,0,0,0,.26,5.84,15,15,0,0,0,6.74,8.76c3.39,1.79,7.51,2.69,11.28,1.47,3.47-1.12,7.11-3.33,8.75-6.73Z"/>
   <path class="cls-10" d="M285.38,784.22c-10.06-31-16.58-63-22.41-95-5.89-32.4-12.21-65-14.78-97.84-1.36-17.32-1.57-34.76.63-52,.51-4-3.82-7.5-7.5-7.5-4.48,0-7,3.46-7.5,7.5-4.06,31.92-.15,64.35,4.73,95.95,5.1,33.07,10.91,66.19,18,98.89,4,18.21,8.58,36.29,14.33,54,3,9.15,17.46,5.23,14.47-4Z"/>
  </g>
 </g>
</svg>
