<?xml version="1.0" encoding="UTF-8"?>
<svg id="Prior_to_November" data-name="Prior to November" viewBox="0 0 800 800" xmlns="http://www.w3.org/2000/svg">
 <defs>
  <style>.cls-1,.cls-16{fill:none;}.cls-2{fill:#221f1f;}.cls-3{fill:#558b9c;}.cls-4{clip-path:url(#clip-path);}.cls-5{fill:#e7e7e8;}.cls-6{fill:#2f152f;}.cls-7{opacity:0.18;}.cls-8{fill:#606060;}.cls-9{fill:#3e3a51;}.cls-10{fill:#666698;}.cls-11{fill:#8f552b;}.cls-12{fill:#ffd679;}.cls-13{fill:#54899b;}.cls-14{clip-path:url(#clip-path-2);}.cls-15{fill:#ec3868;}.cls-16{stroke:#381e25;stroke-miterlimit:10;stroke-width:3px;}</style>
  <clipPath id="clip-path">
   <path class="cls-1" d="M88.53,724.52c4.75-124.33,83-262.49,180.64-309.25,99.73-47.74,310.4-127.36,325.26,142.84,2,36.92,19.45,89.73,21.51,141.76.25,6.41-18.59,21.26-22.45,26.39-31.11,41.37-210.27,35.28-262.37,41.37-93.84,11-216.14-17.38-242.59-43.11"/>
  </clipPath>
  <clipPath id="clip-path-2">
   <path class="cls-1" d="M19.11-78.52c-32.5-476,644-718.57,710.47-365.65,6,64.35,38.23,227.22,47.14,313.85,1.43,13.91-8.41,23.72-18.76,33.13C624.15,19.72,130.26-38.46,19.11-78.52"/>
  </clipPath>
 </defs>
 <g id="hold_asparagus" data-name="hold asparagus">
  <g id="broom">
   <path class="cls-2" d="M517.7,636c-12.07-24-355.23-67.73-398.3-282.09-.89-4.45,3.25-8.31,6-11.87,30.65-39,52-6.39,59.36,1.5,25.39,27.27,47.93,96.23,75.84,120.92,121.4,107.38,260.74,126.42,421.67,107.25,14.44-1.72,43.3-23.55,49.69-10.49,7,14.38-29.22,48.77-43.71,55.59-102.71,48.34-132.45,13.79-179,20"/>
   <path class="cls-3" d="M104.23,715.14c4.47-116.87,78-246.75,169.82-290.71C367.8,379.55,565.84,304.7,579.81,558.71,581.72,593.42,598.1,643.06,600,692c.23,6-17.48,20-21.11,24.81-29.25,38.9-197.67,33.17-246.65,38.9-88.21,10.31-203.18-16.34-228-40.54"/>
   <g class="cls-4">
    <path class="cls-5" d="M447.81,792.05c-11.49-29.46-7.74-62.37-3.81-93.75Q454.28,616.16,464.56,534c4.05-32.34,7.7-67-7.52-95.86-12.18-23.06-35.29-39-60.17-46.84s-51.52-8.2-77.51-6c-48,4-96.13,16.93-136.26,43.65-24.28,16.18-45.16,37.05-63.61,59.66-22.72,27.83-42.39,59.52-48.42,94.95-2.66,15.61-2.6,31.55-2.22,47.38.94,39.66,3.84,79.37,11.53,118.29,3.21,16.28,7.47,32.86,17.25,46.27,17.82,24.42,50.24,33.38,80.43,34.81s60.74-3,90.55,2c24.13,4,47.26,14.16,71.71,15,16.59.55,33-3.23,49.17-7l32-7.45c4.56-1.06,9.29-2.2,12.95-5.11,10.91-8.66,6.5-26.7,13.76-38.58"/>
   </g>
   <path class="cls-6" d="M225.68,489a342.23,342.23,0,0,1-3,43.85l.41-3c-.36,2.61-1,5.25-.71,7.9a24.56,24.56,0,0,0,2.63,9.3,11.84,11.84,0,0,0,1.07,1.64,21,21,0,0,0,3.09,3.63,20.36,20.36,0,0,0,7.81,4.39c4.4,1.23,8.58.3,12.85-.68l22.48-5.19c3.17-.73,6.37-1.6,9.59-2.06l-3,.41a17.71,17.71,0,0,1,4.6,0l-3-.41a13.38,13.38,0,0,1,2.57.7l-2.69-1.14a20.47,20.47,0,0,1,4.28,2.58l-2.28-1.76c6.44,5,12.57,10.46,18.82,15.69s12.37,10.41,18.59,15.55a20,20,0,0,0,8.47,4.61,18.29,18.29,0,0,0,5.14.51,21.29,21.29,0,0,0,7.77-2.07,19.52,19.52,0,0,0,8.35-8.07c1.32-2.25,2.61-4.52,3.92-6.77l16.06-27.78c3.81-6.58,7.68-13.13,11.43-19.76l.18-.31a11.71,11.71,0,0,0,1.14-8.69,11.5,11.5,0,0,0-5.19-6.74c-5.38-2.85-12.27-1.41-15.43,4L350.71,528.2,333.5,558a70.55,70.55,0,0,1-4.46,7.5l1.76-2.28a11.28,11.28,0,0,1-1.42,1.43l2.28-1.77a8.81,8.81,0,0,1-1.92,1.13l2.7-1.13a9,9,0,0,1-1.78.48l3-.4a8,8,0,0,1-2.13,0l3,.41a8.84,8.84,0,0,1-1.8-.53l2.69,1.14a9.41,9.41,0,0,1-1.7-1l2.28,1.76c-3.66-2.94-7.22-6-10.82-9l-18.3-15.31-5.5-4.6-1.25-1c-3.95-3.29-8.22-6.68-13.44-7.62a30,30,0,0,0-5.28-.58,39.73,39.73,0,0,0-5.54.58c-1.56.23-3.09.56-4.62.91l-1.79.41-9.6,2.22c-6.35,1.47-12.7,3-19.06,4.4-.3.07-.61.13-.92.18l3-.4a8.44,8.44,0,0,1-1.88,0l3,.4a8.23,8.23,0,0,1-2-.57l2.69,1.14a9,9,0,0,1-1.58-.94l2.28,1.76a9.94,9.94,0,0,1-1.57-1.54l1.76,2.29a11.67,11.67,0,0,1-1.35-2.25l1.14,2.69a12.45,12.45,0,0,1-.81-3l.41,3a12.66,12.66,0,0,1,0-2.95l-.4,3a365.67,365.67,0,0,0,3.71-48.8,11.66,11.66,0,0,0-3.3-8,11.29,11.29,0,0,0-19.26,8Z"/>
   <circle class="cls-6" cx="522.9" cy="568.14" r="48.12"/>
   <g class="cls-7">
    <path class="cls-8" d="m306.69 676c73.31-39.86 113.91-92.11 152.87-143 16.33 7.45 15.1 20.47 11.74 31.51-12.8 41.94-37.68 82.92-73.6 121.22-9.7 10.36-22.7 21.58-44.65 24.27-19.48 2.43-41.37-3.77-48.37-13.35s1.14-21.31 18-26.86"/>
   </g>
   <path class="cls-9" d="M119.4,353.94c1.39-29.31,18.21-35.94,40-52.5,4.6-3.5,10-6.78,15.73-6.34,4.39.34,8.29,2.78,12,5.15l149,95.49c15.65,10,31.3,20.07,47.46,29.25,39,22.16,80.69,39.19,122.23,56.16,50.62,20.68,102.32,41.62,156.87,45.34,12.25.84,24.68.81,36.59,3.8s23.58,9.54,29.51,20.3,4.27,26.1-5.81,33.13c-3.87,2.71-8.55,4-13.17,5-21.18,4.45-43.1,3.13-64.7,1.79L524.9,583c-25.89-1.6-51.83-3.21-77.48-7.12-45.08-6.86-89.38-21-128.35-44.69s-72.44-57.19-93-97.9c-11-21.82-18.28-45.49-30.67-66.56S170.18,332.92,146.05,329"/>
   <path class="cls-9" d="M243.58,378.86c48.84-33,86.74-70.9,125.15-114.57a8.22,8.22,0,0,0,1.29-8.85L367.5,250a8.22,8.22,0,0,1,2.38-9.87c20.49-16.18,25.6-19.52,25.74-34.08.14-15.69-12.77-29.35-19.84-43.51A851.18,851.18,0,0,0,294.23,30.76a8.21,8.21,0,0,1,9.45-12.63c100.51,37.94,191.82,102,249.9,189.62,63.16,95.32,82.84,219.81,38.08,323.91"/>
   <path class="cls-10" d="m273 345.81a129.06 129.06 0 0 0 46-42.14c1.49-2.26 3-4.65 5.37-6 6-3.37 13.09 1.68 18.18 6.29 75.8 68.6 176.61 109.33 279.06 112.77a398.45 398.45 0 0 1-13.47 90.42c-1 3.53-2 7.21-4.57 9.87-3.28 3.46-8.34 4.53-13.1 5.1-24.85 3-49.91-2.9-73.81-10.33a565.43 565.43 0 0 1-252.16-162"/>
   <g id="Layer_143" data-name="Layer 143">
    <g id="Layer_142" data-name="Layer 142">
     <path class="cls-11" d="M504,373C397.45,510.7,310.64,632.72,230.67,760.71c10.18,83.21,130-144.13,149.26-159.09C399.27,573,641.84,282.12,504,373Z"/>
     <path class="cls-12" d="M664.48,396.15C631,448,581.4,432.25,581.4,432.25c-38.14-4.83-76.31-19.69-102.12-48.17S442.6,312,459.07,277.22c6.09-12.83,15.38-23.82,24.4-34.79,20-24.33,39.28-49.54,53.8-77.5S574,77.58,561.16,74.44c98.32,23.92,198,97.42,232,159.9,2,3.68-29.22,3.69-60.21,50.64-6.17,9.35-49.7,71.69-53.93,81.25Z"/>
     <path class="cls-11" d="m581.58 231.68q12-23.6 25-46.62t27.18-45.41q8-12.65 16.28-25.08c1.79-2.69-2.53-5.19-4.31-2.53q-14.7 22-28.37 44.68t-26.25 45.95q-7.12 13.16-13.89 26.49c-1.45 2.86 2.86 5.39 4.32 2.52z"/>
     <path class="cls-11" d="M687,142.73A323.91,323.91,0,0,1,660,187l4.57,1.93,1.26-3.38a2.51,2.51,0,0,0-1.74-3.07,2.55,2.55,0,0,0-3.08,1.74l-1.26,3.38a2.49,2.49,0,0,0,1.45,3,2.54,2.54,0,0,0,3.12-1,325.63,325.63,0,0,0,27-44.28c1.45-2.86-2.86-5.4-4.32-2.52Z"/>
     <path class="cls-11" d="M738.59,194.48q-15.52,19.43-30.73,39.1t-30,39.52q-8.43,11.29-16.75,22.65a2.51,2.51,0,0,0,.89,3.42,2.56,2.56,0,0,0,3.42-.89q14.57-19.86,29.43-39.49t30-38.88q8.61-11,17.34-21.9a2.57,2.57,0,0,0,0-3.53,2.52,2.52,0,0,0-3.54,0Z"/>
     <path class="cls-11" d="m482.74 252.92a1293.7 1293.7 0 0 1 185.67 137.71c6-6.55 12.33-15.48 8.49-23.45a22 22 0 0 0-4.9-6 691.9 691.9 0 0 0-174.07-122.37c-5.26-2.6-11.08-5.2-16.8-3.91s-10.27 8.48-6.78 13.21l11.83 6.12"/>
    </g>
    <path class="cls-13" d="m133.33 626c-35.42-26.05-88.92 72.46-29.87 110 28.49 17.42 61.61 28 92 42.38 35 16.48 67.05-19 82-42.37 57-111-37.32-188-149.09-108.41"/>
    <path class="cls-13" d="m350.64 756.82c-167.46-177.2 45.27-218.08 167.39-80 15.78 17.85 25 31.34 30.6 49.65a35.94 35.94 0 0 1 1 4.36c-1 2.44-3.76 3.64-6.27 4.51-64.25 14-127.14 18.58-192.77 21.43"/>
    <path class="cls-6" d="M551.65,730.33a69.49,69.49,0,0,0-4.55-14.08,106.31,106.31,0,0,0-6.22-12.51,168.12,168.12,0,0,0-18-24.35,278.18,278.18,0,0,0-47.49-43.19q-6.87-5-14-9.65-3.45-2.25-7-4.4l-3.24-1.95-1.6-.94s-.77-.35-.6-.32c0,0-.4-.5.08.16l-3.21,2.48a16.08,16.08,0,0,0,3.28,2.38c2.24,1.45,4.48,2.9,6.71,4.37q11.31,7.47,22.15,15.63a323.4,323.4,0,0,1,27.43,23.1A198.09,198.09,0,0,1,531,695.79c6.95,9.77,13,20.61,16,32.32.27,1.1.53,2.2.78,3.31.59,2.56,4.54,1.48,3.94-1.09a99.85,99.85,0,0,0-14.34-32.5,187.35,187.35,0,0,0-25-29.81,310.29,310.29,0,0,0-28-24.36q-11.56-9-23.73-17.11c-3.85-2.58-7.7-5.27-11.68-7.65-.27-.17.25.23.25.19s-.31-.34-.37-.4c-1.55-1.66-4.59.57-3.21,2.48,1.09,1.52,3.14,2.29,4.71,3.23q3.06,1.83,6.07,3.75,6.19,3.92,12.19,8.14a311.76,311.76,0,0,1,25,19.49,242.49,242.49,0,0,1,22.58,22.07,190.23,190.23,0,0,1,19.11,24.54,104.42,104.42,0,0,1,7.27,13.55,69.74,69.74,0,0,1,5.17,15.48,2.07,2.07,0,0,0,2.52,1.43A2.09,2.09,0,0,0,551.65,730.33Z"/>
   </g>
  </g>
  <g id="Layer_133" data-name="Layer 133">
   <g class="cls-14">
    <path class="cls-5" d="M85.43-127.24c20-77.31,43.89-137.18,78.92-208.65S376.76-702.14,553.27-439.68c25.39,37.75,33.18,84.95,41.7,130C608.17-239.9,619.08-168,607.11-98c-.65,3.79-1.46,7.77-4,10.62s-5.94,3.94-9.33,5C465.71-40.41,694.36,9.92,560.33-.93c-17.68-1.43-401-46.5-418.2-51.12-10.22-2.74-16.38,24.63-24.47,17.66C104-46.16,71.9-46.09,66.83-63.64"/>
   </g>
   <path class="cls-15" d="M370-535C202.93-1082-301.6-479,254-100.32c5.72,3.9,58.38-3.07,65.15-4.17C1045.21-221.88,703.5-939.78,370-535"/>
   <path class="cls-16" d="M370-535C202.93-1082-301.6-479,254-100.32c5.72,3.9,58.38-3.07,65.15-4.17C1045.21-221.88,703.5-939.78,370-535"/>
  </g>
 </g>
</svg>
