<svg xmlns="http://www.w3.org/2000/svg" xmlns:xlink="http://www.w3.org/1999/xlink" viewBox="0 0 800 800"><defs><style>.cls-1{fill:none;}.cls-2{clip-path:url(#clip-path);}.cls-3{fill:#e5e6e6;}.cls-4{fill:#54899b;}.cls-5{fill:#f28f20;}.cls-6{clip-path:url(#clip-path-2);}.cls-7{fill:#e7e7e8;}.cls-8{fill:#2f152f;}.cls-9{fill:#48588e;}</style><clipPath id="clip-path"><path class="cls-1" d="M52.72-97.7a695.21,695.21,0,0,1,76-375.43C142-498.7,157-523.52,175.07-546c31.44-39.12,71.9-70.65,116.53-93.62,100.33-51.65,232-55.55,319.33,16C670.09-575.2,701-500.39,720.42-426.41s29.74,150.76,58.69,221.55c4.52,11.05,9.58,22.42,9,34.35-.9,20.43-17.6,36.35-34.1,48.42C648-44.48,508.65-32.09,377.2-30.31,259.09-28.71,130.27-37.46,42.06-116"/></clipPath><clipPath id="clip-path-2"><path class="cls-1" d="M17.57,644.53c19.59,39.73,57.85,62.94,97.75,81.66S198.83,754,242.15,761.8c30.92,5.57,62,10.59,93.23,13.5,134.37,12.49,272.1-15.17,391.68-78.13a31.55,31.55,0,0,0,14.33-40.64c-12.1-27.32-22.88-69.57-25-82.62-11.33-69.44-2.64-81.78-5.09-152.11-.78-22.3-1.12-44.72-5-66.69-13.89-79.37-74-145.7-146.44-179.68s-151.45-43.79-227.68-19.69C286.87,170.08,207.55,209.69,154.53,277c-81.6,103.57-128.94,235.5-137,367.53"/></clipPath></defs><g id="November_Orders" data-name="November Orders"><g id="Layer_212" data-name="Layer 212"><g id="Layer_198" data-name="Layer 198"><g id="Layer_199" data-name="Layer 199"><g class="cls-2"><path class="cls-3" d="M669.71,56.24C550.45,116.89,410.26,114.62,276.51,111,237,109.9,195,108,162.75,85.18,113.08,50,105.61-20.19,109.09-80.95A877.16,877.16,0,0,1,150.4-301.19c11.73-36.17,26.14-72.14,49.67-102,50.07-63.53,140.12-90.85,218.26-69.9S559.64-386,581.2-308c12.2,44.13,12.21,91.48,29.41,133.9,16.86,41.56,49,75.21,68.3,115.67s21.77,96-13.56,123.6"/></g></g></g></g><g id="patpat"><path class="cls-4" d="M17.57,644.53c19.59,39.73,57.85,62.94,97.75,81.66S198.83,754,242.15,761.8c30.92,5.57,62,10.59,93.23,13.5C469.52,787.77,607,760.23,726.44,697.5a26.7,26.7,0,0,0,8.93-39.81c-17.51-23-36.68-56.46-38.74-69.12-11.33-69.45,17.11-96.44,14.66-166.77-.78-22.3-1.12-44.72-5-66.69-13.89-79.37-74-145.7-146.44-179.68s-151.45-43.79-227.68-19.69C286.87,170.08,207.55,209.69,154.53,277c-81.6,103.57-128.94,235.5-137,367.53"/></g><g id="Layer_232" data-name="Layer 232"><path class="cls-5" d="M808.5,159.68c-97.49-31.47-456-133.07-479.9,8.76,20.2,54.53,101.85,69.65,153.68,82-26.35-.12-58.58,34.65-22.8,55.43,38,21,75.13,22.32,111.61-2.27C777.45,196.21,861,403.66,808.5,159.68Z"/></g><g class="cls-6"><path class="cls-7" d="M186.67,532.16c115.27-156,686.92-396.82,539.94-13.69-12,99.39,74.57,80.12,14.09,209-89.89,289.81-899,132.53-554-195.27"/></g><g id="Layer_221" data-name="Layer 221"><g id="Layer_230" data-name="Layer 230"><path class="cls-8" d="M538.62,367.27l-65.1,52.86-18.21,14.79c-2.4,1.95-3.14,5.53-2.75,8.4a10.14,10.14,0,0,0,4.77,7.31c10.25,7,22.87,9.73,35.11,10.05,12.6.33,25.11-2.16,37.4-4.71,7-1.46,14-2.94,21.12-3.91l-2.66.36c5.15-.68,10.65-1.46,15.83-.77l-2.65-.36a14.57,14.57,0,0,1,3.11.83l-2.38-1a11,11,0,0,1,2,1.15l-2-1.57a11.85,11.85,0,0,1,2,2l-1.56-2a18,18,0,0,1,2.09,3.7l-1-2.38c1.61,3.9,2.52,8.08,3.92,12.06a147.34,147.34,0,0,0,6,14.55,129.73,129.73,0,0,0,14.72,23.75A136,136,0,0,0,599,514.64c3.69,3.74,10.48,3.94,14.14,0a218.7,218.7,0,0,0,39.76-60c3-6.71,5.69-13.52,8-20.48a10,10,0,1,0-19.28-5.31c-1.68,5-3.54,9.91-5.59,14.75l1-2.38a212.21,212.21,0,0,1-27.23,46.65l1.57-2q-5.88,7.59-12.41,14.64h14.14a126.36,126.36,0,0,1-9.88-11.31l1.56,2a126.24,126.24,0,0,1-16.16-27.69l1,2.39c-2.17-5.17-3.82-10.46-5.47-15.81a32.32,32.32,0,0,0-3.91-9,21.6,21.6,0,0,0-10.95-8.49,28.8,28.8,0,0,0-10.62-1.13c-3.25.12-6.5.42-9.73.84-7.2.93-14.32,2.24-21.44,3.72s-14.32,3-21.57,4l2.66-.36a92.19,92.19,0,0,1-24.16.35l2.66.36a56.59,56.59,0,0,1-14.35-3.83l2.38,1a47,47,0,0,1-7.75-4.24l2,15.7,65.1-52.86,18.22-14.79c1.86-1.52,2.92-4.77,2.92-7.07a10.18,10.18,0,0,0-2.92-7.07,10.07,10.07,0,0,0-7.08-2.93l-2.65.35a10.05,10.05,0,0,0-4.42,2.58Z"/></g></g><path class="cls-9" d="M326.24,335.52c9.87-1.08,20.6-1.19,29,3.9,11.69,7.08,15,22.47,10.89,34.75s-14,22-24.31,30.46c-33.1,27.25-73.57,46.64-116.73,55.93-29.17,6.28-65.57,9.68-79.73-15.31,2.41-17,6.05-23.91,13.3-32.08,15.21-17.14,14.63-14.28,21.74-22.85C180.42,390.32,260.05,342.76,326.24,335.52Z"/><g id="Layer_229" data-name="Layer 229"><path class="cls-8" d="M207,409.24c16-10.71,32.36-21,49.07-30.67,15.92-9.19,32.18-17.77,48.67-25.88,10.05-4.95,20.18-9.73,30.35-14.43l2.53-1.95a9.4,9.4,0,0,0,2.59-4,12.07,12.07,0,0,0,.63-8.14,14.92,14.92,0,0,0-3.22-5.52,9.29,9.29,0,0,0-4-2.58,9.51,9.51,0,0,0-4.82-1.08c-4.37-.55-8.76-1-13.15-1.41q-16.56-1.62-33.18-2.53c-14.84-.83-29.71-1.26-44.57-1.12a409.77,409.77,0,0,0-47,2.82c-14.71,1.84-29.57,4.25-43.46,9.63-2.35.9-4.66,1.89-7,2.9-2.68,1.18-5,4.78-5.75,7.47a12.8,12.8,0,0,0,1.26,9.63,12.63,12.63,0,0,0,7.47,5.75l3.32.45a12.48,12.48,0,0,0,6.31-1.71l1.3-.56-3,1.26c9.67-4.08,20-6.57,30.28-8.39,3.28-.58,6.56-1.08,9.86-1.53l-3.32.45c12.25-1.64,24.6-2.5,37-2.91s24.63-.36,36.94,0q16.26.46,32.5,1.63,11.83.84,23.65,2c3.46.34,6.9.78,10.36,1.13l.14,0-6.31-23.29c-17.52,8.08-34.92,16.44-52,25.42q-24.39,12.82-47.84,27.35-14.28,8.85-28.24,18.2a13.32,13.32,0,0,0-5.75,7.47,12.82,12.82,0,0,0,1.26,9.64,12.68,12.68,0,0,0,7.47,5.74c3.17.72,6.84.61,9.64-1.26Z"/></g></g></svg>