<svg id="Prior_to_November" data-name="Prior to November" xmlns="http://www.w3.org/2000/svg" xmlns:xlink="http://www.w3.org/1999/xlink" viewBox="0 0 800 800"><defs><style>.cls-1{fill:none;}.cls-2{fill:#dfdfdf;}.cls-3{clip-path:url(#clip-path);}.cls-4{fill:#fff;}.cls-5{clip-path:url(#clip-path-2);}.cls-6{fill:#cbcbca;}.cls-7{fill:#333;}.cls-8{fill:#2f152f;}</style><clipPath id="clip-path"><path class="cls-1" d="M688.5,523.81C715,136.33,164.26-61.11,110.18,226.17,103.7,296,76.7,434.08,71.81,481.64c-1.17,11.33,8.7,17.67,15.27,27,205,290,477.61,269.94,601.42,15.2"/></clipPath><clipPath id="clip-path-2"><path class="cls-1" d="M153.55,107.35c-6.74,144.37,53.63,380.25,122.7,515.29,73.5,143.69,463.5,113.68,398.65-251.8,35.31,16.91,237.35,301.33-209.89,394-23,4.76-43.51,17.4-66.65,21.25-70.42,11.71-142.34,9.78-213.64,6.25-53.21-2.64-107.11-6.28-157.54-23.47-43.75-14.91,1.15-28.22-29-63.29S17.11,598.1,16.1,551.89c-.85-38.92-6.59-83,11.58-117.4,33.23-62.94-47.64-93,17.73-121.17,26.39-11.37,9.83-4.66,36,7.25"/></clipPath></defs><g id="hold_asparagus" data-name="hold asparagus"><g id="ghostie_3" data-name="ghostie 3"><path class="cls-2" d="M139.07,211a4.05,4.05,0,0,0,.12-.84c54.55-286.67,604.69-89.23,578.25,298.05l.69-17.72c1.32,55.1-24.75,108.54-63,148.19s-87.89,66.72-139.26,86.68a653.54,653.54,0,0,1-69.33,22.56C345.89,774.55,235.58,776,140.57,733.46c-31.94-14.31-104.19-36.56-112.81-101a8.59,8.59,0,0,1,12.53-8.68c16.71,8.78,40,17,49.2,10.62C108.85,621,113.4,559.75,113.32,545,113.21,523.5,111,283.32,139.07,211Z"/><g class="cls-3"><path class="cls-4" d="M215.34,595.35C210.87,740.56,542,797.05,670.08,558.17c18.42-34.36,18.42-34.36,40.8-125.74C724,378.9,694.36,310,641.81,228c-55.52-86.6-245-142.36-330.28-110.17-17.49,6.6-53.66,33-59.38,85.2-5.07,46.31,13.86,103.39,20,155.9,5.51,47.19-1.79,91.26-4.51,110.65C261.53,513,216.44,559.61,215.34,595.35Z"/></g><g class="cls-5"><path class="cls-6" d="M139.07,211a4.05,4.05,0,0,0,.12-.84c54.55-286.67,604.69-89.23,578.25,298.05l.69-17.72c1.32,55.1-24.75,108.54-63,148.19s-87.89,66.72-139.26,86.68a653.54,653.54,0,0,1-69.33,22.56C345.89,774.55,235.58,776,140.57,733.46c-31.94-14.31-104.19-36.56-112.81-101a8.59,8.59,0,0,1,12.53-8.68c16.71,8.78,40,17,49.2,10.62C108.85,621,113.4,559.75,113.32,545,113.21,523.5,111,283.32,139.07,211Z"/></g><path class="cls-7" d="M395.73,390c-.07-27.24,0-55.36,10.71-80.42s34.89-46.45,62.1-45.08c22.26,1.12,41.19,16.74,55.2,34.08C546.42,326.63,561,364.91,549.17,399c-13.34,38.4-59.58,59.94-99.12,50.5-26.77-6.39-58.54-32.28-54.32-59.48"/><path class="cls-4" d="M379.15,295.49l43.23,26.34,12.43-45.36c.25-.92.59-2,1.47-2.31a3.21,3.21,0,0,1,2.5.4l57.47,26.9.39-27.93c.2-14.16,0-29.62-9-40.56-8.16-9.93-21.74-13.66-34.57-14.42-17.75-1.05-36,2.67-51.14,11.92S374.82,254.69,370.62,272c-1.64,6.72-2.07,14,.55,20.39S380,304,387,303.82"/><path class="cls-2" d="M699.55,347c-29.33-22.75-33.33-33.11-66.15-51.34-6.65-3.43-13.61-7.26-20.8-10.63-23.66-11.08-52-.74-62.46,23.19-23.37,53.43,71,246.16,97.78,294.45"/><path class="cls-2" d="M247.64,602.36C442.12,610.29,451.1,473.43,444.8,438.67c-1.49-8.17-26.82-33.62-46.33-30C367,414.6,314,444.82,309,448.29c-9.2,6.46-48.38,24.85-70.52,34.58l-6.75,39.35"/><path class="cls-6" d="M231.93,508c80.37,41.33,154.82,17.59,208.78-51.68,7,56.86-26,116.43-77.89,140.68-20.95,9.78-44,14.1-67,16.85-15.53,1.85-29.63,13.16-43.24,5.45-8-4.52-38.46-18.77-43.08-26.71-12.09-20.78,14.13-53.57,22.41-84.59"/><path class="cls-6" d="M604.32,521.08a714.18,714.18,0,0,1-53.72-151.5c9.65.46,19.18,2.26,28.68,4.06l119.39,22.61c6.43,16.65,7.78,30,14.16,46.72,13.15,34.39-23.61,40.41-9.62,53.59,34.27,32.27-32.61,106.83-51.62,109.69"/><path class="cls-1" d="M633.16,279.86c29.34-22.74,33.33-33.1,66.15-51.33,6.65-3.43,13.61-7.26,20.8-10.63,23.66-11.08,52-.75,62.47,23.19C805.94,294.52,745,444.72,718.22,493"/><circle class="cls-8" cx="202.41" cy="355.24" r="58.52"/><circle class="cls-2" cx="202.41" cy="355.24" r="35.06"/></g></g></svg>