<?xml version="1.0" encoding="UTF-8"?>
<svg id="Prior_to_November" data-name="Prior to November" viewBox="0 0 800 800" xmlns="http://www.w3.org/2000/svg">
 <defs>
  <style>.cls-1{fill:none;}.cls-2{fill:#55889a;}.cls-3{clip-path:url(#clip-path);}.cls-4{fill:#e5e6e6;}.cls-5{fill:#558a9c;}.cls-6{fill:#2f152f;}.cls-7{fill:#fae903;stroke:#f9f6ef;stroke-miterlimit:10;stroke-width:6px;}</style>
  <clipPath id="clip-path">
   <path class="cls-1" d="M144.78,341.14c.1-.26,0-.57.11-.84C237,67.1,691.32,282.78,695.57,627.35h0c1.31,55.1-52.74,111.08-90.75,150.73S94.6,774.91,77.88,767C-38.56,711.9,116.87,413.49,144.78,341.14Z"/>
  </clipPath>
 </defs>
 <g id="hold_asparagus" data-name="hold asparagus">
  <g id="innocent">
   <path class="cls-2" d="M145.24,341.14a3.87,3.87,0,0,0,.12-.84C199.9,53.63,750,251.07,723.6,638.36l.7-17.72c1.32,55.09-24.75,108.54-63,148.19S88,799.46,88,784C88.11,655.17,117.14,413.49,145.24,341.14Z"/>
   <g class="cls-3">
    <path class="cls-4" d="M283.31,782.83C278.87,928,544.9,927.21,672.1,688.34,690.4,654,690.4,654,712.62,562.59c13-53.53-16.4-122.46-68.59-204.43C588.89,271.56,400.76,215.8,316,248c-17.37,6.6-53.29,33-59,85.21-5,46.3,13.76,103.39,19.85,155.89,5.47,47.19-1.78,91.26-4.48,110.66C266.39,643.17,284.4,747.08,283.31,782.83Z"/>
   </g>
   <path class="cls-2" d="M274,535c29.34-22.74,33.34-33.11,66.15-51.33,6.66-3.44,13.62-7.27,20.81-10.63,23.66-11.09,52-.75,62.46,23.19,22.94,52.45-9.39,230.32-194.93,273.48-1,.25-44.61-51.9-45.1-51"/>
   <path class="cls-5" d="m699.12 670.51c-194.65-0.13-197.95-137.25-190.21-171.71 1.82-8.11 28.18-32.49 47.53-28 31.21 7.2 82.95 39.55 87.76 43.2 5.36 4.1 17.89 8.49 31.74 13.65a57.5 57.5 0 0 1 35.23 38.14l7.18 25.27"/>
   <path class="cls-6" d="M131.17,509.46a55.85,55.85,0,0,1,2.44,5.05l-1.26-3a146.71,146.71,0,0,1,5.88,18.31,145.09,145.09,0,0,0,7,20.46,38.87,38.87,0,0,0,4.15,7.32,46.79,46.79,0,0,0,4.47,5.47,41.31,41.31,0,0,0,5.25,4.27,30.66,30.66,0,0,0,10.25,4.59,36.31,36.31,0,0,0,18.37-.28C197.33,569,206,563,212.92,555.91a77.64,77.64,0,0,0,13.62-18.76,89.17,89.17,0,0,0,9.87-45.36c-.84-15.46-5.41-31.19-14.63-43.79-1.58-2.15-3.21-4.26-4.94-6.29-2-2.32-5.89-3.66-8.84-3.66a12.71,12.71,0,0,0-8.84,3.66,12.56,12.56,0,0,0-3.66,8.84l.44,3.32a12.55,12.55,0,0,0,3.22,5.52c.72.84,1.42,1.7,2.09,2.57l-1.95-2.53a66.2,66.2,0,0,1,8.25,14.19l-1.26-3a73.17,73.17,0,0,1,5,18.38l-.44-3.32a78.8,78.8,0,0,1,0,20.81l.45-3.32A77.31,77.31,0,0,1,206,522.6l1.26-3a70.36,70.36,0,0,1-8.89,15.32l1.95-2.53a63.44,63.44,0,0,1-11.22,11.29l2.53-2a45.36,45.36,0,0,1-9.44,5.64l3-1.26a31,31,0,0,1-7.55,2.15l3.33-.45a23.66,23.66,0,0,1-6.12,0l3.33.44a22.66,22.66,0,0,1-5.36-1.47l3,1.26a21.6,21.6,0,0,1-4.72-2.74l2.53,2a24.82,24.82,0,0,1-4.31-4.38l2,2.53a40.28,40.28,0,0,1-4.91-8.79l1.26,3c-4.27-10.22-6.07-21.27-9.92-31.64a83.75,83.75,0,0,0-4.94-11.13,12.5,12.5,0,0,0-21.58,12.62Z"/>
   <g id="Layer_161" data-name="Layer 161">
    <path class="cls-7" d="M278.23,56.69C129.36,76.91,12.33,120.25,16.85,153.5s128.86,43.81,277.73,23.59S560.48,113.53,556,80.28,427.1,36.47,278.23,56.69Zm14.7,88.74c-126.4,17.17-230.47,19.28-232.45,4.71s98.88-40.3,225.28-57.46S516.23,73.4,518.21,88,419.33,128.26,292.93,145.43Z"/>
   </g>
   <g id="Layer_181" data-name="Layer 181">
    <path class="cls-6" d="M345.74,349.51a68.55,68.55,0,0,0-.43,29.56,60.08,60.08,0,0,0,3.42,11.35,79.08,79.08,0,0,0,6.72,13.35,75.32,75.32,0,0,0,20.63,21.05,64,64,0,0,0,11,6.06,82.42,82.42,0,0,0,43,6.92,94.72,94.72,0,0,0,15.58-2.86,92.08,92.08,0,0,0,14-5.4c16.89-8,31.19-22.71,36.8-40.74a59.36,59.36,0,0,0,1.26-28.43,51.5,51.5,0,0,0-12.37-24.7,34.85,34.85,0,0,0-4-3.83,9.29,9.29,0,0,0-4-2.58,9.51,9.51,0,0,0-4.82-1.08,12.5,12.5,0,0,0-12.5,12.5c.14,3.11,1.14,6.79,3.66,8.84a35.33,35.33,0,0,1,5.59,5.68l-1.95-2.53a39.12,39.12,0,0,1,5,8.65l-1.26-3a44.53,44.53,0,0,1,2.92,10.76l-.45-3.32a47.41,47.41,0,0,1,0,12.31l.44-3.32a45.24,45.24,0,0,1-3,11.2l1.26-3a51.75,51.75,0,0,1-6.57,11.25l2-2.53A59.86,59.86,0,0,1,457,402.22l2.53-2a69.88,69.88,0,0,1-15.3,8.92l3-1.26a75,75,0,0,1-18.71,5.1l3.32-.45a76.75,76.75,0,0,1-20.2,0L415,413a71.88,71.88,0,0,1-17.87-4.84l3,1.26a64.78,64.78,0,0,1-14.26-8.3l2.53,2a60,60,0,0,1-10.47-10.53l2,2.53a62.93,62.93,0,0,1-8.06-13.8l1.26,3a60.43,60.43,0,0,1-4.2-15.33l.45,3.32a55,55,0,0,1,0-14l-.44,3.32q.38-2.76,1-5.46a13.08,13.08,0,0,0-1.26-9.63,12.5,12.5,0,0,0-22.84,3Z"/>
   </g>
  </g>
 </g>
</svg>
