<?xml version="1.0" encoding="UTF-8"?>
<svg id="Prior_to_November" data-name="Prior to November" viewBox="0 0 800 800" xmlns="http://www.w3.org/2000/svg">
 <defs>
  <style>.cls-1{fill:none;}.cls-2{fill:#558b9c;}.cls-3{clip-path:url(#clip-path);}.cls-4{fill:#e7e7e8;}.cls-5{fill:#2f152f;}.cls-6{fill:#7ebb42;}.cls-7{clip-path:url(#clip-path-3);}.cls-8{fill:#e5e6e6;}</style>
  <clipPath id="clip-path">
   <path class="cls-1" d="M760.94,693c-10.08-120.09-23-241.51-64.87-354.51-16.72-45.08-38.75-89.56-74-122.28-46.86-43.51-114.19-61.83-177.75-54.79S321.19,199.22,273.6,241.93c-37.41,33.59-67.83,74.24-95.36,116.31C115.25,454.51,65.8,560.6,41.71,673.1c-2.8,13.06-5,27.69,2.17,39,7.86,12.36,23.92,16.06,38.36,18.49,183.78,31,647.05-8.92,678.7-25.53"/>
  </clipPath>
  <clipPath id="clip-path-3">
   <path class="cls-1" d="m860.85-110.09c-30.63-606.88 607.07-916.12 669.7-466.17 7.51 109.3 38.77 325.63 44.43 400.13 1.35 17.74-7.93 30.24-17.68 42.24-126.13 149-591.67 74.87-696.45 23.8"/>
  </clipPath>
 </defs>
 <g id="hold_asparagus" data-name="hold asparagus">
  <g id="shock">
   <g id="Layer_25" data-name="Layer 25">
    <path class="cls-2" d="M760.94,693c-10.08-120.09-23-241.51-64.87-354.51-16.72-45.08-38.75-89.56-74-122.28-46.86-43.51-114.19-61.83-177.75-54.79S321.19,199.22,273.6,241.93c-37.41,33.59-67.83,74.24-95.36,116.31C115.25,454.51,65.8,560.6,41.71,673.1c-2.8,13.06-5,27.69,2.17,39,7.86,12.36,23.92,16.06,38.36,18.49,183.78,31,647.05-8.92,678.7-25.53"/>
    <g class="cls-3">
     <path class="cls-4" d="M169.52,747.42C205.06,675.13,246.93,605,303.2,547.33S431.34,445,510.76,431.57c31.1-5.26,62.81-5.71,94.33-4.89,28.76.74,58.06,2.64,84.86,13.11,30.31,11.84,55.45,33.89,78.39,57,17.3,17.41,34.08,36.18,43.37,58.9,10.61,26,10.58,55.13,6.38,82.86-3.26,21.52-9,42.91-19.77,61.83-25.6,45.1-75.73,70.42-125.24,85.81-86.82,27-178.92,31.15-269.83,32.62-54.23.88-109,.82-162-10.4-16.7-3.53-33.59-8.35-47.28-18.55S170.26,763.08,172,746.1"/>
     <path class="cls-2" d="M282.55,746.55c-.76-16.62,74.33-133,114.13-166.56,11.15-9.42,24.58-18.79,39-16.65,19.13,2.84,29.42,24,33.5,42.9,9.3,43.16,3.32,88-2.69,131.71"/>
     <path class="cls-2" d="m646.45 777c-20.51-49.27-33.1-208.36 2.87-222.33 65.17-25.32 183.22 113.41 183.86 114.72"/>
     <path class="cls-5" d="M732.77,266.44c-9.58-.52-19.44,1.26-27.68,6.17-18.84,11.24-25,35.52-26.46,57.41.9-13.29-2.39,28.68,7.64,45.17,8.49,14,24.18,22.32,40.21,25.5,42,8.33,88-19.26,100.51-60.22,7.35-24.14,2.63-53.09-16.34-69.71-10.51-9.21-24.22-13.91-37.87-16.86-14.22-3.07-29.23-4.43-43.2-.35S702.84,268,699,282"/>
    </g>
    <path class="cls-5" d="m344 401.2c-1.66 97.51-146.7 97.49-148.35 0 1.67-97.5 146.71-97.48 148.35 0z"/>
   </g>
  </g>
  <g id="Layer_80" data-name="Layer 80">
   <path class="cls-6" d="m338.12 498.38c3.22 0 3.22-5 0-5s-3.22 5 0 5z"/>
  </g>
 </g>
 <g id="sir">
  <g class="cls-7">
   <path class="cls-8" d="m1429.4-20.77c169.33 166.46-125.57 180.23-334.9 180.23s-366.77-230-379-512.65c-11.51-266.29-1820.2 2421.1 199.42-220.21 85.64-112 273.1-209.1 379-166.46 20.75 8.35 65.57 45.65 72.2 127.35 5.87 72.51-16.03 161.93-23.13 244.16-6.38 73.92 2.07 142.94 5.22 173.31 7.06 68.04 47.69 141.34 81.19 174.27z"/>
  </g>
 </g>
</svg>
