<?xml version="1.0" encoding="UTF-8"?>
<svg id="Prior_to_November" data-name="Prior to November" viewBox="0 0 800 800" xmlns="http://www.w3.org/2000/svg">
 <defs>
  <style>.cls-1,.cls-3{fill:none;}.cls-2{fill:#ec3868;}.cls-3{stroke:#381e25;stroke-miterlimit:10;stroke-width:3px;}.cls-4{clip-path:url(#clip-path);}.cls-5{fill:#f4be1c;}.cls-6{fill:#f5c020;}.cls-7{fill:#a2ada2;}.cls-8{fill:#e99244;}.cls-9{fill:#f5bf1e;}.cls-10{fill:#33312d;}.cls-11{fill:#54899b;}.cls-12{clip-path:url(#clip-path-2);}.cls-13{fill:#e5e6e6;}.cls-14{fill:#2f152f;}.cls-15{fill:#48588e;}</style>
  <clipPath id="clip-path">
   <rect class="cls-1" x="-164.46" y="-122.56" width="1008.8" height="1008.8"/>
  </clipPath>
  <clipPath id="clip-path-2">
   <path class="cls-1" d="M155.9,631.34c8.84-301.41,429.48-449.74,433.24-193,.77,53.1,29.76,160.38,33.56,197.23.9,8.77,19.67,68.83,12.25,73.62C537.87,771.83,341,857.44,156.72,703.43"/>
  </clipPath>
 </defs>
 <g id="hold_asparagus" data-name="hold asparagus">
  <g id="Layer_133" data-name="Layer 133">
   <path class="cls-2" d="M-450,285c-167.06-547-671.59,56-116,434.66,5.72,3.9,58.38-3.07,65.15-4.17C225.21,598.12-116.5-119.78-450,285"/>
   <path class="cls-3" d="M-450,285c-167.06-547-671.59,56-116,434.66,5.72,3.9,58.38-3.07,65.15-4.17C225.21,598.12-116.5-119.78-450,285"/>
  </g>
  <g id="Hug_Plushie">
   <g class="cls-4">
    <path class="cls-5" d="m387.91 750.36c-90-1.54-173.5-14-252.74-48.83-24.6-10.8-47.58-26.93-69.55-43.36-22.62-16.91-28.62-44.36-29.46-72.35-2.68-86.26 11-169.45 44.34-248.1 13-30.7 15-62.82 16.76-95.44 2.48-46.84 4.92-93.68 8.07-140.47 0.65-9.65 3.63-19.32 6.72-28.52 7.1-21.11 22.34-28.74 40.4-18 16.54 9.82 31.83 22.3 46.9 34.7 14.46 11.91 28.07 25.06 41.77 38 6.51 6.15 12.83 7.4 21.43 4.81 33.82-10.17 67.45-22.33 101.95-28.35 80-14 158.64-7.32 233.77 28.12 11.41 5.38 19.85 2.61 30.07-3.18 23.4-13.26 47.57-25 71.51-37.1a41.81 41.81 0 0 1 10.72-3.38c29.23-5.85 43.47 9.88 38.88 41.46-6.36 43.7-12.51 87.47-17.36 131.39-1.37 12.43 0.42 26 3.69 38.15 12.72 47.18 15.24 94.9 10.15 143.48-3.67 35-7 70.11-9.61 105.25a75.64 75.64 0 0 0 3.11 27.78c8.87 27.77 0.12 50.13-17 69.85-25 28.76-57.23 45.32-90.69 59.08-62.12 25.53-126.74 38.11-192.84 42.54-18.6 1.24-37.24 1.82-50.99 2.47z"/>
    <path class="cls-6" d="M50,455c23.46,81.06,1.92,56.48,66.23,44.28,69.21.48,108.79,52.08,58.77,110-9.19,13.19-98,53.06-112.59,39.44C21.13,599.66,42.8,513.86,50,455Z"/>
    <path class="cls-7" d="m628.89 412.74q-0.9-6.67-1.81-13.34 0.92 6.68 1.81 13.34z"/>
    <path class="cls-7" d="m620 375.94-3-5.28z"/>
    <path class="cls-7" d="M626.68,419.35c.79-1.13,1.59-2.26,2.39-3.38-.16,1.77-.32,3.55-.47,5.32Z"/>
    <path class="cls-8" d="m522.88 383.86c48.45-5.93 138.29 2.71 128.61-70.2-14.85-70.82-124.41-84.27-170.5-37.61-50 67-41.23 121.22 41.89 107.81"/>
    <path class="cls-8" d="m129.33 390.21c36.06-4.41 102.93 2 95.73-52.25-11.05-52.72-92.6-62.73-126.91-28-37.22 49.86-30.69 90.22 31.18 80.24"/>
    <path id="frontarm" class="cls-9" d="m543.24 588.16c-30.34-18.29-61.93-38.81-97.24-22.44-93.79 31.33-22.15 155.28 49.6 168.87 75.57-8.46 153.19-29.77 215.6-74.76 18.85-15.83-160.75-67.36-167.96-71.67z"/>
   </g>
   <path class="cls-10" d="M231.33,334c-1.8,4.93-3.32,10-4.76,15a115.47,115.47,0,0,0-3.29,17,141.79,141.79,0,0,0-.47,30.89,157,157,0,0,0,3,19.54,10.12,10.12,0,0,0,4.63,6c2.26,1.19,5.29,2,7.78,1a27.58,27.58,0,0,0,8.51-4.9,29.87,29.87,0,0,0,4.69-5.27,95,95,0,0,0,5.21-8.6A186.49,186.49,0,0,1,269,386.64l-1.73,2.24a235.83,235.83,0,0,1,32.65-34.21q5.47-4.69,11.19-9.11l-2.29,1.77c2.64-2,5.32-4,8-6H305.39c10,6.91,20,14,29.88,21s20.07,14.08,30.16,21c5,3.42,9.9,6.93,14.92,10.27a20.35,20.35,0,0,0,12.09,3.59c5.73-.33,11.12-3,13.95-8.2a17.09,17.09,0,0,0,2.07-7.73,25.38,25.38,0,0,0-.7-5.94l-1.58-8.82L403,348.69l-7.22-40.43c-.52-2.89-3.24-6-5.69-7.4a12.39,12.39,0,0,0-16.93,4.44,13.93,13.93,0,0,0-1.25,9.54l9.82,53.34c.91,5,1.91,9.94,2.74,14.92l-.44-3.24a7.16,7.16,0,0,1,0,1.73l.43-3.24a5.23,5.23,0,0,1-.32,1.22l1.23-2.91a4.55,4.55,0,0,1-.52.87l1.91-2.47a5,5,0,0,1-.57.56l2.47-1.91a6.07,6.07,0,0,1-.74.45l2.91-1.23a6.27,6.27,0,0,1-1.65.43l3.23-.43a8.69,8.69,0,0,1-1.69-.05l3.24.44a10.23,10.23,0,0,1-1.94-.56L395,374a46.94,46.94,0,0,1-7.18-4.58l-7.44-5.07-15.28-10.41c-10.19-6.94-20.51-13.67-30.8-20.45-5.84-3.85-11.63-7.77-17.41-11.71-3.05-2.07-8.43-2.21-11.46,0-23.27,16.95-44.36,36.8-60.49,60.78-4.24,6.29-8.41,12.88-11.34,19.89l1.08-2.56a25.74,25.74,0,0,1-2.86,5.09l1.62-2.1a13,13,0,0,1-2.28,2.23l2.06-1.6a15.16,15.16,0,0,1-2.75,1.62l14.82,6a136.46,136.46,0,0,1-4.2-19.7l.33,2.5a126.91,126.91,0,0,1,.2-33.44l-.31,2.32c.31-2.31.65-4.62,1-6.94l-.31,2.28a111.65,111.65,0,0,1,4.6-19.93,8,8,0,0,0-5.5-9.69c-4.45-1-8.18,1.35-9.69,5.5Z"/>
   <path class="cls-10" d="M517.78,237.21a142.41,142.41,0,0,0-60.4-17,161.05,161.05,0,0,0-30.79,1.68,173.31,173.31,0,0,0-27.92,6.34,239.57,239.57,0,0,0-33.12,13.36l-2.53,2a9.38,9.38,0,0,0-2.58,4,12,12,0,0,0-.63,8.14,14.92,14.92,0,0,0,3.21,5.51,12.51,12.51,0,0,0,8.84,3.66,213.62,213.62,0,0,1,41,1.32l-3.32-.45a172.6,172.6,0,0,1,35.22,8.49q4.26,1.53,8.43,3.29l-3-1.26a180.51,180.51,0,0,1,34.18,19.34c2.42,1.73,4.82,3.51,7.19,5.3s6.87,2,9.63,1.26a12.73,12.73,0,0,0,7.47-5.74,12.59,12.59,0,0,0,1.26-9.63l-1.26-3a12.49,12.49,0,0,0-4.48-4.48,201.85,201.85,0,0,0-33.95-21.29,183.35,183.35,0,0,0-26.63-10.48,193.53,193.53,0,0,0-31.89-6.51,213.23,213.23,0,0,0-39.86-1.17l6.31,23.3q5.65-2.76,11.43-5.21l-3,1.26a186.43,186.43,0,0,1,47.47-13.35l-3.32.44a142,142,0,0,1,37-.14l-3.32-.44a127.45,127.45,0,0,1,32.24,8.78l-3-1.26q5.85,2.49,11.45,5.52a13.12,13.12,0,0,0,9.64,1.26,12.77,12.77,0,0,0,7.47-5.74,12.49,12.49,0,0,0-4.49-17.1Z"/>
   <path class="cls-10" d="M151.84,262.86c14.24-1.59,28.61-2.19,42.93-2.51,16.51-.37,33-.27,49.54.62,8,.43,16.08,1,24.07,2.11l-3.32-.45,3.59.52a13.7,13.7,0,0,1,2.72.47l-3-1.26.15.09L266,260.5l0,0-2-2.53,0,0-1.26-3s0,0,0,0l-.45-3.32v0l.45-3.33a0,0,0,0,0,0,0l1.26-3,0,.05,2-2.53-.06,0,2.53-1.95a1.3,1.3,0,0,1-.31.16l3-1.26a19.51,19.51,0,0,1-3.69.91c-2.33.46-4.68.86-7,1.27-7.11,1.24-14.22,2.51-21.3,4-19.83,4-39.33,9.38-57.91,17.46a111.4,111.4,0,0,0-28.79,17.68c-2.32,2-3.66,5.87-3.66,8.84a12.71,12.71,0,0,0,3.66,8.84,12.56,12.56,0,0,0,8.84,3.66,13.88,13.88,0,0,0,8.84-3.66c1-.86,2-1.69,3-2.5l-2.53,1.95a111.75,111.75,0,0,1,24.86-13.93l-3,1.26c14.56-6.13,29.88-10.36,45.29-13.79,11.25-2.51,22.61-4.41,34-6.48,3.07-.56,6.64-1,9.31-2.76,4.78-3.11,7.45-8.61,5.85-14.32a12.93,12.93,0,0,0-9-8.92,133.11,133.11,0,0,0-13.78-1.92c-18-2-36.2-2.44-54.3-2.4-17.65,0-35.36.55-52.94,2.19-1.69.15-3.38.32-5.06.51a9.51,9.51,0,0,0-4.82,1.08,9.29,9.29,0,0,0-4,2.58,12.51,12.51,0,0,0,0,17.68c2.29,2.1,5.61,4,8.84,3.66Z"/>
   <path class="cls-10" d="M175.91,341.13c-1.39-.94-2.68-1.93-4-3a65.08,65.08,0,0,0-5.36-3.82l-9.19-6.05c-3.14-2.07-6.22-4.2-9.27-6.4s-6-4.51-9.23-6.48l-19.11-11.84c-3.11-1.93-6.2-3.9-9.41-5.68l-9.61-5.32c-3.63-2-7.22-4.18-11-6L84,283.64l-2.69-1.33a18.46,18.46,0,0,0-3.14-1.39,14.08,14.08,0,0,0-3.8-.33l2.29.31-6.24-2c-2.65-.86-5.65-1.42-8.35-.49a5.16,5.16,0,0,0-3.52,6.2c1.16,4.83,6.09,7.81,9.7,10.77l-1.35-1.75c.25.36.46.73.69,1.09a10.86,10.86,0,0,0,3.79,3.62c.7.45,1.42.86,2.13,1.29l5.14,3.1c3.14,1.89,6.39,3.58,9.61,5.32,6.6,3.58,13.15,7.22,19.92,10.47l20.32,9.76c3.75,1.8,7.56,3.38,11.43,4.92l5,2c.76.3,1.51.62,2.27.91,1.54.58-1.16-.54.37.14l1.38.62,11.46,5.12c2.17,1,4.33,2.08,6.57,2.85,1.91.65,3.8,1.2,5.64,2a3.39,3.39,0,0,0,4.49-1.17,3.35,3.35,0,0,0-1.18-4.49Z"/>
   <path class="cls-10" d="M151.84,387.37c-1.83.08-3.62.05-5.45,0a56.07,56.07,0,0,0-5.94.11l-10.89.6c-3.71.2-7.41.32-11.13.36s-7.44,0-11.14.28L85,390.53c-3.64.3-7.28.55-10.89,1L63.24,393c-4.83.64-9.7,1.13-14.5,1.94-2.12.36-4.24.76-6.36,1.14l-2.94.52a12.14,12.14,0,0,0-6.23,3.18L35,398.39l-.38.26,2.06-.87L30.1,400c-3.2,1.07-5.89,2.44-7.84,5.29a5,5,0,0,0,.78,6.1,11.71,11.71,0,0,0,4.32,2.36,19,19,0,0,0,4.69.68l6.93.35-2.3-.31.44.15L35,413.7a11.53,11.53,0,0,0,6.46,1.49l2.47-.23,5.94-.57c4.35-.41,8.68-1.13,13-1.74,7.41-1,14.82-2,22.17-3.43L107,405c7.15-1.37,14.06-3.64,21.16-5.21l12.11-2.67a57.6,57.6,0,0,0,6.26-1.5,64.22,64.22,0,0,1,6.18-1.82c3.58-.83,2.84-6.61-.87-6.44Z"/>
   <path class="cls-10" d="M534.66,295.07c1.66-.24,3.28-.32,5-.4a61.23,61.23,0,0,0,6.61-.84l10.93-1.7,2.73-.42,1.24-.2c.3,0,1.86-.45.36-.06a41.42,41.42,0,0,1,5.58-.63c4.21-.47,8.44-.83,12.6-1.6l22.18-4.08c3.61-.66,7.24-1.27,10.81-2.11l10.71-2.51c4-.95,8.14-1.78,12.15-2.89,2.08-.58,4.16-1.18,6.24-1.77l2.89-.82a13.36,13.36,0,0,0,3.19-1.22,20.06,20.06,0,0,0,2.84-2.33l-1.75,1.35c4.27-1.91,9.75-3.47,12.14-7.83a5.18,5.18,0,0,0-1.81-6.9c-2.33-1.59-5.39-1.83-8.13-1.7l-6.56.32,2.3.31c-.43-.1-.84-.24-1.26-.36a11.29,11.29,0,0,0-5.48.1l-2.46.48-5.89,1.16c-3.6.7-7.15,1.64-10.71,2.51-7.28,1.78-14.57,3.48-21.76,5.61l-21.54,6.4C570.72,275,564,278,557,280.28l-11.88,3.89a66.9,66.9,0,0,0-6.72,2.36c-1.82.81-3.6,1.57-5.48,2.22a3.35,3.35,0,0,0-2.29,4c.52,1.89,2.27,2.55,4,2.29Z"/>
   <path class="cls-10" d="M518.63,340.4c1.87.89,3.65,1.85,5.43,2.88s3.62,1.9,5.5,2.77l11,5.06c3.66,1.69,7.28,3.42,10.88,5.24,4.12,2.09,8.19,4.35,12.45,6.13l-1.9-.8L590.62,374c10.22,4.41,20.69,8.22,31.09,12.18,2.8,1.07,5.62,2,8.46,3l4,1.35c.71.23,1.41.51,2.12.71a14.23,14.23,0,0,0,6.23-.07l-2.33.32.47,0-2.3-.3,7.33,1.44c3.08.61,6.33,1.14,9.37,0s4.65-4.35,3-7.41c-1.48-2.74-4.05-4.59-6.68-6.12L645,375.44l1.74,1.34a11,11,0,0,1-1-1,12.86,12.86,0,0,0-4.52-2.67l-3-1.26-6-2.51c-3.83-1.6-7.75-3-11.65-4.45-7.93-3-15.83-6-23.89-8.58l-23.88-7.72c-4-1.3-8.07-2.41-12.18-3.46s-8-2-12-3.17l-13.57-4c-2.3-.68-4.58-1.46-6.93-1.93s-4.7-1-7-1.62a3.28,3.28,0,0,0-2.53,6Z"/>
   <path class="cls-11" d="M148.15,627.2c8.84-301.42,429.49-449.74,433.24-193,.77,53.11,29.76,160.39,33.56,197.24.91,8.77,19.67,68.83,12.25,73.62C530.12,767.69,333.29,853.3,149,699.29"/>
   <g class="cls-12">
    <path class="cls-13" d="m537.3 709.17c93.7 82.17-289.75 175.24-352.23 57.34-34.39-64.89-23.61-101.11-6.89-151.51 13.66-41.23 19.08-91.38 108.41-179.29 23.87-23.5 121.46-75.63 180-54.64 11.48 4.11 36.28 22.52 40 62.92 3.31 35.86-8.75 80.1-12.61 120.78-3.47 36.56 1.26 70.69 3 85.71 4.02 33.6 21.77 42.43 40.32 58.69z"/>
   </g>
   <path class="cls-14" d="M340.23,407.51A119.31,119.31,0,0,0,314,454.84a106.6,106.6,0,0,0-2.92,13.81,10,10,0,0,0,0,5.32,7.41,7.41,0,0,0,1.79,3.4,9.74,9.74,0,0,0,7.85,3.94c10.35-.15,20.1-3.58,29.14-8.43,8-4.27,15.32-9.58,23-14.31a102,102,0,0,1,13.43-7.12l-2.39,1a37.59,37.59,0,0,1,8.92-2.92l-2.65.36a2.77,2.77,0,0,1,.76,0l-2.66-.36.38.1-2.39-1a2.35,2.35,0,0,1,.56.31l-2-1.56a2.73,2.73,0,0,1,.46.44l-1.57-2a6.28,6.28,0,0,1,.67,1.15l-1-2.39c2.32,5.61,4.48,11.12,7.69,16.3a121.5,121.5,0,0,0,10.67,14.37c3.52,4.15,7.29,8.1,11.12,12A125.34,125.34,0,0,0,424.31,498c5.81,4.56,12.28,8.23,19.89,8.34a24.68,24.68,0,0,0,18.3-8.26c4.44-4.92,7.15-10.68,9.51-16.82a82.28,82.28,0,0,0,4.35-16.16A95,95,0,0,0,474,422.61a10.4,10.4,0,0,0-4.59-6,10.19,10.19,0,0,0-7.71-1c-5.07,1.64-8.58,6.93-7,12.3a84.84,84.84,0,0,1,2.69,12.5l-.36-2.66a85.65,85.65,0,0,1,0,22.45l.35-2.65a83.59,83.59,0,0,1-5.67,20.81l1-2.39a39.46,39.46,0,0,1-4.77,8.53l1.57-2a22.3,22.3,0,0,1-3.55,3.65l2-1.56a16.72,16.72,0,0,1-3.35,2l2.39-1a15.13,15.13,0,0,1-3.6,1l2.66-.36a15.1,15.1,0,0,1-3.8,0l2.66.35a18.81,18.81,0,0,1-4.4-1.28l2.39,1a32.34,32.34,0,0,1-6.54-4l2,1.56c-4.95-3.85-9.3-8.52-13.67-13a166.88,166.88,0,0,1-12.59-14.26l1.56,2a81.34,81.34,0,0,1-10.55-17.68l1,2.39c-1.47-3.54-2.39-7.32-5.27-10.06a12.08,12.08,0,0,0-5.16-2.92,12.92,12.92,0,0,0-6.27-.07,24.42,24.42,0,0,0-3.39.87,84.16,84.16,0,0,0-14.42,6.18c-8.06,4.3-15.49,9.66-23.26,14.44a99.15,99.15,0,0,1-13.19,7l2.39-1A50.8,50.8,0,0,1,323,461.31l2.66-.35a42.84,42.84,0,0,1-4.93.35L330.35,474a108.57,108.57,0,0,1,7.31-26.35l-1,2.38a109.81,109.81,0,0,1,14-24l-1.56,2c1.69-2.19,3.47-4.32,5.32-6.38a10.51,10.51,0,0,0,2.93-7.07,10.18,10.18,0,0,0-2.93-7.07,10,10,0,0,0-14.14,0Z"/>
   <path class="cls-15" d="M203.44,503.65c14.12-14.85,29.37-30.39,49.28-35.24,3-.72,6.23-1.16,9,.19,3.81,1.87,5.36,6.77,4.53,10.93s-3.5,7.7-6.34,10.85A83.86,83.86,0,0,1,226.3,513c-8.67,3.15-20.18,4-25.36-3.63L212,491.18"/>
   <path class="cls-15" d="m552.87 593.76c-0.39 4.76-1.34 9.82-4.69 13.22-4.64 4.74-12.67 4.63-18.44 1.37s-9.71-9-13-14.74a131.27 131.27 0 0 1-17.09-61c-0.41-14.4 1.3-31.89 15.16-35.85 8.29 3 11.42 5.44 14.84 9.74 7.17 9 5.79 8.42 9.42 12.69 0 0.03 16.37 42.64 13.8 74.57z"/>
   <path class="cls-14" d="M591.54,527.3a132.31,132.31,0,0,0-17.82-35,146.62,146.62,0,0,0-13.38-16.15,141.48,141.48,0,0,0-15.47-13.57,123.67,123.67,0,0,0-17.75-11.39c-3.8-2-9-1.78-12.11,1.56a10.35,10.35,0,0,0-1.57,12.12c7.89,14.35,15.77,28.75,22.17,43.85l-1-2.39A193.73,193.73,0,0,1,542.37,528a161.65,161.65,0,0,1,4.76,23.25l-.35-2.66c1.11,8.31,2,16.67,3.51,24.91a10,10,0,0,0,18.28,2.39,11.18,11.18,0,0,0,1-7.71c-.64-3.36-1.15-6.74-1.6-10.13l.35,2.66c-1.09-8.21-1.92-16.47-3.46-24.62a156.31,156.31,0,0,0-5.36-20.3,282.26,282.26,0,0,0-17.57-40.19c-3.63-7-7.43-13.93-11.23-20.84L517,468.43a123.36,123.36,0,0,1,17.75,11.39l-2-1.57A127.53,127.53,0,0,1,555.49,501l-1.56-2a125.93,125.93,0,0,1,16.22,27.76l-1-2.39q1.7,4.08,3.12,8.26a10.57,10.57,0,0,0,4.59,6,10.23,10.23,0,0,0,7.71,1,10.1,10.1,0,0,0,6-4.6,10,10,0,0,0,1-7.7Z"/>
   <path class="cls-14" d="M235.09,446.08q3.67-1.72,7.41-3.3l-1.8.75a217.16,217.16,0,0,1,38.27-12L271.67,419a127,127,0,0,0-22.28,37.3,7.55,7.55,0,0,0,.76,5.78,7.49,7.49,0,0,0,10.26,2.69,8.46,8.46,0,0,0,3.44-4.48c.51-1.34,1-2.67,1.6-4l-.76,1.79a113.22,113.22,0,0,1,8-15.29q2.29-3.69,4.87-7.22l1.35-1.81.55-.72c-1.31,1.76-.32.42-.05.08q1.41-1.79,2.9-3.53c2.1-2.46,3.06-6.15,1.17-9.09A7.81,7.81,0,0,0,275,417.1a221.48,221.48,0,0,0-47.46,16,7.55,7.55,0,0,0-3.45,4.49,7.68,7.68,0,0,0,.76,5.78c2.36,3.66,6.45,4.47,10.26,2.69Z"/>
   <path class="cls-6" d="M161.93,491c23.45,81.06,1.92,56.48,66.23,44.28C495.8,577.39,60,878.29,161.93,491Z"/>
   <path id="frontarm-2" class="cls-9" d="m556 588.62c-28.4-18.29-58-38.8-91-22.44-87.78 31.34-20.73 155.32 46.42 168.88 70.72-8.47 143.36-29.77 201.77-74.77 17.58-15.81-150.5-67.36-157.19-71.67z" data-name="frontarm"/>
  </g>
 </g>
</svg>
