<?xml version="1.0" encoding="UTF-8"?>
<svg viewBox="0 0 800 800" xmlns="http://www.w3.org/2000/svg">
 <defs>
  <style>.cls-1{fill:none;}.cls-2{clip-path:url(#clip-path);}.cls-3{fill:#e5e6e6;}.cls-4{fill:#558a9c;}.cls-5{clip-path:url(#clip-path-2);}.cls-6{clip-path:url(#clip-path-3);}.cls-7{fill:#4f668e;}.cls-8{fill:#55889a;}.cls-9{clip-path:url(#clip-path-4);}.cls-10{fill:#2f152f;}.cls-11{fill:#4c2c1a;}.cls-12{clip-path:url(#clip-path-5);}.cls-13{fill:#985023;}</style>
  <clipPath id="clip-path">
   <path class="cls-1" d="M692.8-50.85C514.56-48.66,181.58,2,68.74-67.72,40.08-85.43,28.27-121.27,22.11-154.4,10.17-218.68,8.59-286.62,26.28-349.57c56-199.18,186.85-320,294.17-362.1,78.84-30.9,165.5-48.81,248.48-32s149.61,78.24,186.4,154.51c30,62.2,5,146.53,2.81,203.71-2.56,67.47,7.33,102.1,21.07,168.22,3.76,18.08,8.15,36.32,7.2,54.76-2.28,44.49-31.59,105.78-75.81,111.25Z"/>
  </clipPath>
  <clipPath id="clip-path-2">
   <path class="cls-1" d="M645,288.51C369.41,14.87-140.34,301.94,41.44,530.88c48.51,50.58,135.26,161.4,168,196.24,7.8,8.29,19.06,5,30.39,6.11C593.29,768.13,756.55,548.86,645,288.51"/>
  </clipPath>
  <clipPath id="clip-path-3">
   <path class="cls-1" d="m-20 420.31c104.73 99.61 322.57 208.37 469.87 244.55 156.74 38.49 389.35-276 70.6-466.2 35.9-15.62 383.17 17.82 160.47 416.59-11.43 20.47-15.33 44.28-27.56 64.29-37.24 60.91-85.78 114-135.12 165.61-36.83 38.5-74.87 76.86-120.87 103.73-39.91 23.32-20.59-19.34-66.81-19.54s-68.89-84.64-104.49-114.12c-30-24.83-67-49.34-81.17-85.61-25.83-66.32-101.5-24.87-80-92.72 8.69-27.4 2.92-10.48 29.05-22.46"/>
  </clipPath>
  <clipPath id="clip-path-4">
   <path class="cls-1" d="M424.37,170.66c2-37.06-3.21-46.87,4.5-83.61,1.75-7.27,3.42-15,5.58-22.68,7.11-25.14,33.47-39.8,58.42-32C548.55,49.64,622.23,194,641.18,245.88"/>
  </clipPath>
  <clipPath id="clip-path-5">
   <rect class="cls-1" x="394.98" y="-2.02" width="403.49" height="825.33"/>
  </clipPath>
 </defs>
 <g id="November_Orders" data-name="November Orders">
  <g id="Layer_215" data-name="Layer 215">
   <g class="cls-2">
    <path class="cls-3" d="M49.69-434.11C98.13-504.17,179.78-557,243.9-613.11c169-147.74,334.59,37.81,320.65,80.7C483.47-282.92,512.91-233.33,856.3-165.29c35.64,7.07,15,138.14,3.16,172.49-18.13,52.56-292.39,61.53-346,76.17-135.39,37-282.25,30.65-414-17.8C35.38,42-29.17,4.51-57-57.81c-19.93-44.63-18.14-95.94-9.92-144.12A588.37,588.37,0,0,1,37-448.29a17.17,17.17,0,0,0,15.65,9.21"/>
   </g>
  </g>
 </g>
 <g id="Layer_245" data-name="Layer 245">
  <g id="Layer_249" data-name="Layer 249">
   <path class="cls-4" d="M48.87,499.09a4.21,4.21,0,0,0-.56-.64c-181-228.88,328.37-515.54,603.84-242l-12.94-12.13c42.52,35.07,65.85,89.76,70.77,144.65s-7.09,110.12-25.63,162A653,653,0,0,1,656,618.13C610.3,711.66,539.2,796,444.83,840c-31.72,14.78-149.1-93.16-160.3-102.76C268.2,723.22,85.17,567.69,48.87,499.09Z"/>
   <g class="cls-5">
    <path class="cls-3" d="m389.37 693c106.85 98.44 366.3-114.91 269.56-368.1-13.93-36.39-13.93-36.39-68.35-113.12-31.89-44.95-103.39-67.68-199.76-81.61-101.81-14.71-268 92-299.49 177.57-6.46 17.53-10.14 62.19 25.55 100.66 31.68 34.15 87.23 57.2 130.93 86.94 39.28 26.72 67.82 61.09 80.7 75.84 28.85 33.04 34.56 97.63 60.86 121.82z"/>
   </g>
   <g class="cls-6">
    <path class="cls-7" d="M48.87,499.09a4.21,4.21,0,0,0-.56-.64c-181-228.88,328.37-515.54,603.84-242l-12.94-12.13c42.52,35.07,65.85,89.76,70.77,144.65s-7.09,110.12-25.63,162A653,653,0,0,1,656,618.13c-45.73,93.53-221.92,199.71-233,197.68-86.31-15.81-127.32-69-138.52-78.6C268.2,723.22,85.17,567.69,48.87,499.09Z"/>
   </g>
   <path class="cls-8" d="M424.37,170.66c2-37.06-3.21-46.87,4.5-83.61,1.75-7.27,3.42-15,5.58-22.68,7.11-25.14,33.47-39.8,58.42-32C548.55,49.64,622.23,194,641.18,245.88"/>
   <g class="cls-9">
    <path class="cls-7" d="m628.19 216.33a714.26 714.26 0 0 0-79.36-139.78c-6 7.6-10.85 16-15.71 24.33l-61.06 105.06c8.38 15.77 27.06 22.65 44.37 27 18.64 4.71 37.85 8.08 57 6.85s56 15.17 70.64 2.67"/>
   </g>
   <circle class="cls-10" cx="199.39" cy="545.65" r="49.58"/>
   <path class="cls-10" d="M285.08,247.41Q305.75,262,327.43,275c3.86,2.31,8.06,4.34,11.64,7.06l-2-1.56a22.06,22.06,0,0,1,3.75,3.73l-1.57-2a15.4,15.4,0,0,1,1.87,3.15l-1-2.38a10.63,10.63,0,0,1,.66,2.28l-.36-2.66a6.92,6.92,0,0,1,0,1.64l.36-2.66a5.66,5.66,0,0,1-.33,1.27l1-2.39a5.11,5.11,0,0,1-.54.93l1.57-2a4.92,4.92,0,0,1-.79.79l2-1.56c-4.94,3.69-10.07,7.16-15.09,10.74l-7.71,5.48c-1.57,1.11-3.12,2.26-4.63,3.46a19,19,0,0,0-7.38,14c-.21,3.65.85,7.4,1.86,10.88.15.49.29,1,.44,1.49l2.25,7.69,6.85,23.47c1.46,5,3,10,4.39,15,.12.44.22.89.3,1.34l-.36-2.66a7.5,7.5,0,0,1,0,1.64l.36-2.65a5.4,5.4,0,0,1-.31,1.18l1-2.38a5.58,5.58,0,0,1-.57,1l1.56-2a5,5,0,0,1-.83.82l2-1.56a7,7,0,0,1-1.06.62l2.39-1a8.56,8.56,0,0,1-1.85.49l2.65-.36a12.17,12.17,0,0,1-2.56,0l2.65.36a81,81,0,0,1-8.79-2.15l-18.1-4.65L262,348.24l-9.49-2.44a10.42,10.42,0,0,0-7.71,1,10.18,10.18,0,0,0-4.59,6c-1.19,5.21,1.56,10.91,7,12.3l21.25,5.46,38,9.76,13.19,3.38c4.87,1.25,10,2.64,14.94.76,4.53-1.74,8.22-4.94,9.57-9.77a16.89,16.89,0,0,0-.11-9.06c-.28-1-.58-2-.87-3L338.56,347l-8.49-29.07a45.93,45.93,0,0,1-1.38-5.67l.35,2.66a13.59,13.59,0,0,1-.09-3l-.36,2.66a8.79,8.79,0,0,1,.6-2.19l-1,2.39a10.26,10.26,0,0,1,1.14-1.84l-1.57,2a17,17,0,0,1,2.69-2.54l-2,1.56c3.26-2.49,6.68-4.79,10-7.17l13.33-9.48a24.84,24.84,0,0,0,5.64-4.83c4.29-5.56,3.59-13,.15-18.79-3.19-5.43-8.11-9-13.44-12.06q-7.67-4.49-15.2-9.15-17.21-10.66-33.74-22.33c-2-1.42-5.42-1.64-7.71-1a10.2,10.2,0,0,0-6,4.6,10.08,10.08,0,0,0-1,7.7,11.28,11.28,0,0,0,4.59,6Z"/>
  </g>
  <rect class="cls-11" x="393.68" y="-2.02" width="422.65" height="825.33"/>
  <g class="cls-12">
   <rect class="cls-13" x="515.6" y="-50.91" width="362.31" height="175.61" rx="23.24"/>
   <rect class="cls-13" x="313.34" y="164.54" width="362.31" height="175.61" rx="23.24"/>
   <rect class="cls-13" x="713.41" y="164.54" width="362.31" height="175.61" rx="23.24"/>
   <rect class="cls-13" x="99.7" y="370.8" width="362.31" height="175.61" rx="23.24"/>
   <rect class="cls-13" x="515.6" y="379.13" width="362.31" height="175.61" rx="23.24"/>
   <rect class="cls-13" x="313.34" y="577.06" width="362.31" height="175.61" rx="23.24"/>
   <rect class="cls-13" x="713.41" y="580.57" width="362.31" height="175.61" rx="23.24"/>
   <rect class="cls-13" x="515.6" y="795.77" width="362.31" height="175.61" rx="23.24"/>
   <rect class="cls-13" x="113.52" y="-47.29" width="362.31" height="175.61" rx="23.24"/>
  </g>
  <path class="cls-4" d="m365.67 738.3c190.08-41.93 163.85-176.56 148.89-208.56-3.52-7.53-34.5-25.68-52.44-17.17-28.94 13.73-72.51 56.48-76.42 61.1-7.25 8.59-40.44 36.37-59.37 51.42l3.5 39.77"/>
  <path class="cls-7" d="m326.33 625.09c88.25 19.47 157.11-11 191.61-91.7 21.28 53.19 4.59 119.2-39.43 155.89-17.76 14.8-39 24.86-60.47 33.37-14.54 5.76-25.29 20.28-40.42 16.31-8.88-2.34-42-8.35-48.46-14.84-17-17-7.64-52.38-7.55-84.48"/>
 </g>
</svg>
