<svg id="Prior_to_November" data-name="Prior to November" xmlns="http://www.w3.org/2000/svg" viewBox="0 0 800 800"><defs><style>.cls-1{fill:#f9a61b;}.cls-2{fill:#72a441;}.cls-3{fill:#ef8f21;}</style></defs><g id="hold_asparagus" data-name="hold asparagus"><g id="Layer_167" data-name="Layer 167"><path class="cls-1" d="M367,250.88c64.48-12.72,143.2-12.19,207.9-.62,20.51,3.67,41.17,8.69,59.1,19.32C666.26,288.73,686,324,696.6,360c20.68,70,12.14,145.18-1.42,216.93-5.18,27.4-11.17,55-23.14,80.16-30.13,63.39-95.63,104.48-163.89,120.77s-139.72,11-209.41,2.64c-44.93-5.36-91.08-12.39-129.9-35.64-52.11-31.21-84.13-87.8-103-145.51A493.32,493.32,0,0,1,44,394.78c4.63-44,17.92-91.48,54.5-116.38,20.84-14.19,46.51-19,71.46-22.63a1032.21,1032.21,0,0,1,137.05-10.53c24.11-.24,52,5.64,59.93,5.64"/><path class="cls-2" d="M290,248.68c-4-33.54-17-77.23-47-92.7l22.61-29.51a15.47,15.47,0,0,1,4.78-4.65c3.92-2,8.68-.45,12.76,1.27A284.36,284.36,0,0,1,407.09,224.76c4.36,6.43,8.54,14.82,4.66,21.55-2,3.52-5.84,5.6-9.53,7.3-35.3,16.33-78.47,14.43-112.2-4.93"/><path class="cls-3" d="M407,788.64c-33.34,13.48-60.19-17-82.44-45.28S293.92,678.52,288.64,643a793.71,793.71,0,0,1,9.1-282.65c10-46.68,31.09-99.42,77.21-111.77,36.81-9.86,76.39,12.1,98,43.47s28.94,70.24,34,108c10.23,76.89,13.18,154.8,7.66,232.16-2.5,35-7,70.9-23.91,101.67S442,789.47,407,788.64"/></g></g></svg>