<?xml version="1.0" encoding="UTF-8"?>
<svg id="Prior_to_November" data-name="Prior to November" viewBox="0 0 800 800" xmlns="http://www.w3.org/2000/svg">
 <defs>
  <style>.cls-1,.cls-3{fill:none;}.cls-2{fill:#ec3868;}.cls-3{stroke:#381e25;stroke-miterlimit:10;stroke-width:3px;}.cls-4{clip-path:url(#clip-path);}.cls-5{fill:#e5e6e6;}.cls-6{fill:#cbcbca;}.cls-7{fill:#dfdfdf;}.cls-8{clip-path:url(#clip-path-2);}.cls-9{fill:#fff;}.cls-10{clip-path:url(#clip-path-3);}.cls-11{fill:#333;}</style>
  <clipPath id="clip-path">
   <path class="cls-1" d="M155.9-188.66c8.84-301.41,429.48-449.74,433.24-193,.77,53.1,29.76,160.38,33.56,197.23.9,8.77,19.67,68.83,12.25,73.62C537.87-48.17,341,37.44,156.72-116.57"/>
  </clipPath>
  <clipPath id="clip-path-2">
   <path class="cls-1" d="M59.28,516.8C31.18,105.23,616.12-104.49,673.57,200.66c6.89,74.12,35.56,220.83,40.76,271.36,1.24,12-9.24,18.76-16.22,28.64C480.37,808.75,190.79,787.38,59.28,516.8"/>
  </clipPath>
  <clipPath id="clip-path-3">
   <path class="cls-1" d="m627.51 74.44c7.16 153.36-57 403.9-130.34 547.34-78.07 152.62-341.23 29.13-429.3-25.87-37.51 18 25.13 136 228.8 176.92 24.43 4.9 46.22 18.48 70.8 22.57 74.79 12.45 151.19 10.39 226.92 6.64 56.52-2.8 135.67 22 167.34-24.92 12.94-19.16 55.57-35.38 27.18-75.44-18.2-25.68-47.81-168.4-40.61-218.9 5.83-40.93 28.84-83.86 16.88-90.8-65.4-37.93 46.62-68.86-22.81-98.76-28-12.07-10.45-4.94-38.23 7.71"/>
  </clipPath>
 </defs>
 <g id="hold_asparagus" data-name="hold asparagus">
  <g id="Layer_133" data-name="Layer 133">
   <path class="cls-2" d="M-450-535c-167.06-547-671.59,56-116,434.66,5.72,3.9,58.38-3.07,65.15-4.17C225.21-221.88-116.5-939.78-450-535"/>
   <path class="cls-3" d="M-450-535c-167.06-547-671.59,56-116,434.66,5.72,3.9,58.38-3.07,65.15-4.17C225.21-221.88-116.5-939.78-450-535"/>
  </g>
  <g id="Hug_Plushie">
   <g class="cls-4">
    <path class="cls-5" d="m537.3-110.83c93.7 82.17-289.75 175.24-352.23 57.34-34.39-64.89-23.61-101.11-6.89-151.51 13.66-41.23 19.08-91.38 108.41-179.29 23.87-23.5 121.46-75.63 180-54.64 11.48 4.11 36.28 22.52 40 62.92 3.31 35.86-8.75 80.1-12.61 120.78-3.47 36.56 1.26 70.69 3 85.71 4.02 33.6 21.77 42.43 40.32 58.69z"/>
   </g>
  </g>
  <g id="ghost">
   <g id="Layer_150" data-name="Layer 150">
    <path class="cls-6" d="M594.78,549.52C483.3,574.11,400,521.13,356.43,419.14c-26.88,67.2-5.79,150.58,49.81,196.91,22.43,18.7,49.22,31.41,76.38,42.16C501,665.48,521.08,672,540.2,667c11.21-2.94,21.13-9.73,29.33-17.94,21.46-21.48,75.53-68.2,59.71-94.13"/>
    <path class="cls-6" d="M139.57,641.23a757.92,757.92,0,0,0,57.06-160.91c-10.25.48-20.38,2.4-30.46,4.3l-126.82,24c-6.83,17.69.63,37.48,9.15,54.43,9.17,18.24,19.82,36,34.15,50.56s32.68,25.78,52.88,28.82"/>
    <path class="cls-7" d="M642.88,184.52a5.27,5.27,0,0,1-.13-.9C584.82-120.87.47,88.85,28.55,500.22l-.74-18.83c-1.4,58.53,26.29,115.29,67,157.41s93.35,70.87,147.92,92.06a694.29,694.29,0,0,0,73.63,24c106.89,28.31,224.06,29.86,325-15.34,33.92-15.2,110.67-38.83,119.82-107.26A9.11,9.11,0,0,0,747.8,623c-17.74,9.31-42.44,18.08-52.25,11.27C675,620,670.15,555,670.23,539.31,670.35,516.48,672.72,261.36,642.88,184.52Z"/>
    <g class="cls-8">
     <path class="cls-9" d="m561.87 592.79c4.75 154.21-425.67 223.87-466.01-61.19-6.1-43.09 42.06-116.36-60.34-111.86-58.52 2.57 17.54-130.08 73.36-217.15 59-92 260.2-151.21 350.82-117 18.57 7 57 35.1 63.07 90.5 5.39 49.18-14.72 109.82-21.23 165.59-5.85 50.12 1.9 96.93 4.79 117.53 6.48 46.12 54.37 95.62 55.54 133.58z"/>
     <path class="cls-7" d="m549.16 670.17c-240.09-53-207-223-188.07-263.43 4.44-9.51 43.58-32.44 66.24-21.69 36.55 17.34 91.59 71.34 96.53 77.18 9.16 10.85 51.08 45.94 75 64.94l-4.42 50.24"/>
    </g>
    <g class="cls-10">
     <path class="cls-6" d="M642.88,184.52a5.27,5.27,0,0,1-.13-.9C584.82-120.87.47,88.85,28.55,500.22l-.74-18.83c-1.4,58.53,26.29,115.29,67,157.41s93.35,70.87,147.92,92.06a694.29,694.29,0,0,0,73.63,24c106.89,28.31,224.06,29.86,325-15.34,33.92-15.2,110.67-38.83,119.82-107.26A9.11,9.11,0,0,0,747.8,623c-17.74,9.31-42.44,18.08-52.25,11.27C675,620,670.15,555,670.23,539.31,670.35,516.48,672.72,261.36,642.88,184.52Z"/>
    </g>
    <path class="cls-7" d="M45.18,416.05c31.16-24.15,35.4-35.16,70.26-54.52,7.07-3.65,14.46-7.72,22.1-11.29,25.13-11.77,55.22-.8,66.34,24.63C228.7,431.62,164,591.16,135.53,642.45"/>
    <path class="cls-11" d="M265.55,184.29c-2.72,4.93-5.87,9.63-9,14.31-4,5.93-8.05,11.81-12.06,17.73S236.67,228,233,233.93a90.21,90.21,0,0,0-8.13,16.12,19.35,19.35,0,0,0,1.59,16.24,19.57,19.57,0,0,0,16.4,9.45c2.62,0,5.47-.82,8-1.35q14.13-2.94,28.27-5.82c8.91-1.8,17.83-3.7,26.8-5.14l1.63-.24-2.66.36a10.76,10.76,0,0,1,1.26-.13l-7.07-2.92,14.68,17.05,23.41,27.19,5.39,6.25a9.75,9.75,0,0,0,9.73,2.58,10.88,10.88,0,0,0,6.32-5,29.9,29.9,0,0,0,1.49-3.55c.55-1.53,1-3.1,1.38-4.67,1.35-5.17,2.48-10.41,3.55-15.64a387.64,387.64,0,0,0,6.45-39.9,71.87,71.87,0,0,0,.44-7.18,23.07,23.07,0,0,0-.13-2.49,17.23,17.23,0,0,0-1.72-6.52c-1-2.15-3.81-4-6-4.6a10.2,10.2,0,0,0-7.7,1,10.1,10.1,0,0,0-4.6,6l-.36,2.65a10,10,0,0,0,1.37,5.05l0,.05-1-2.38a5.4,5.4,0,0,1,.33,1.33l-.36-2.66a33.54,33.54,0,0,1,0,6.57c-.23,3.3-.63,6.59-1.07,9.87l.36-2.65a399.92,399.92,0,0,1-8.61,45.24,45.17,45.17,0,0,1-1.9,6.33l1-2.39a3.89,3.89,0,0,1-.38.73l1.56-2-.1.1,2-1.56-.06,0,2.39-1h0l9.73,2.57-13.6-15.8-22.84-26.52L313.89,247a9.86,9.86,0,0,0-8-3.6c-2,.13-4,.5-6,.83-10.84,1.81-21.61,4.11-32.37,6.3-8.73,1.78-17.47,3.54-26.18,5.42l-.43.09,2.66-.36a12.94,12.94,0,0,1-1.76-.06l2.66.36a10.71,10.71,0,0,1-2.27-.6l2.39,1a10.23,10.23,0,0,1-2.24-1.3l2,1.56a10.8,10.8,0,0,1-1.58-1.59l1.56,2a10.9,10.9,0,0,1-1.29-2.22l1,2.39a10.52,10.52,0,0,1-.59-2.2l.35,2.66a10.86,10.86,0,0,1,0-2.35l-.36,2.66a17.59,17.59,0,0,1,1.4-4.47l-1,2.39c3.54-8.29,8.78-15.92,13.74-23.41,5.87-8.85,12-17.54,17.86-26.39,2.55-3.86,5.09-7.74,7.33-11.8a10.5,10.5,0,0,0,1-7.7,10.18,10.18,0,0,0-4.6-6c-4.69-2.48-11-1.3-13.68,3.59Z"/>
    <path class="cls-11" d="M545.11,292.09a197.85,197.85,0,0,0-14.62,16c-5.13,6.41-9.93,13.07-13.46,20.5a85.22,85.22,0,0,0-5,12.64,77.52,77.52,0,0,0-2.48,13.45,50.46,50.46,0,0,0,0,10.64,56.31,56.31,0,0,0,2.71,13.25,57.92,57.92,0,0,0,12.63,20.53,66.82,66.82,0,0,0,17.29,12.94c14.78,7.76,31.45,10.28,48,10.46,8,.09,16-.28,24-.82a208.84,208.84,0,0,0,26.73-3.37q2.94-.58,5.87-1.32a12.51,12.51,0,1,0-6.65-24.11,138.42,138.42,0,0,1-15.12,2.86l3.32-.45c-9.12,1.21-18.32,1.75-27.5,2.07a163.2,163.2,0,0,1-27-1l3.33.45a81.51,81.51,0,0,1-20.56-5.4l3,1.26a63.19,63.19,0,0,1-13.59-7.9l2.53,1.95a51.62,51.62,0,0,1-9.15-9.12l1.95,2.53a43.68,43.68,0,0,1-5.39-9.19l1.26,3a43.3,43.3,0,0,1-2.93-10.9l.45,3.32a51.53,51.53,0,0,1,.1-13.19l-.44,3.32a62.77,62.77,0,0,1,4.4-15.74l-1.26,3A87.69,87.69,0,0,1,548.78,325l-1.95,2.53a188.69,188.69,0,0,1,16-17.72,12.9,12.9,0,0,0,3.66-8.84,12.71,12.71,0,0,0-3.66-8.84,12.56,12.56,0,0,0-8.84-3.66,13.05,13.05,0,0,0-8.84,3.66Z"/>
    <path class="cls-6" d="M594.78,549.52C483.3,574.11,400,521.13,356.43,419.14c-26.88,67.2-5.79,150.58,49.81,196.91,22.43,18.7,49.22,31.41,76.38,42.16C501,665.48,521.08,672,540.2,667c11.21-2.94,21.13-9.73,29.33-17.94,21.46-21.48,75.53-68.2,59.71-94.13"/>
    <path class="cls-6" d="M139.57,641.23a757.92,757.92,0,0,0,57.06-160.91c-10.25.48-20.38,2.4-30.46,4.3l-126.82,24c-6.83,17.69.63,37.48,9.15,54.43,9.17,18.24,19.82,36,34.15,50.56s32.68,25.78,52.88,28.82"/>
   </g>
  </g>
 </g>
</svg>
