<?xml version="1.0" encoding="UTF-8"?>
<svg id="Prior_to_November" data-name="Prior to November" viewBox="0 0 800 800" xmlns="http://www.w3.org/2000/svg">
 <defs>
  <style>.cls-1{fill:none;}.cls-2{clip-path:url(#clip-path);}.cls-3{fill:#e5e6e6;}.cls-4{fill:#54899b;}.cls-5{fill:#2f152f;}.cls-6{fill:#e7e7e8;}.cls-7{fill:#558b9c;}.cls-8{fill:#2f172f;}.cls-9{clip-path:url(#clip-path-2);}.cls-10,.cls-12{fill:#fff;}.cls-11{clip-path:url(#clip-path-3);}.cls-12{stroke:#221f1f;stroke-miterlimit:10;stroke-width:1.49px;}</style>
  <clipPath id="clip-path">
   <path class="cls-1" d="M120.6-97.77C97.57-435.13,577-607,624.12-356.91c5.64,60.76,29.15,181,33.41,222.43,1,9.86-6,16.81-13.3,23.48C549.4-28.15,199.38-69.38,120.6-97.77"/>
  </clipPath>
  <clipPath id="clip-path-2">
   <circle class="cls-1" cx="173.73" cy="488.22" r="96.56"/>
  </clipPath>
  <clipPath id="clip-path-3">
   <circle class="cls-1" cx="651.21" cy="504.51" r="92.87"/>
  </clipPath>
 </defs>
 <g id="hold_asparagus" data-name="hold asparagus">
  <g id="witchat">
   <g id="hat">
    <g class="cls-2">
     <path class="cls-3" d="M548.08-48.12C675.39,44.41,474.66-20,317.28-20S-96-125.46,161.26-355.32C228-415,366.59-471.56,446.23-447.85c15.6,4.64,49.3,25.38,54.28,70.79,4.42,40.31-12.07,90-17.4,135.73-4.79,41.08,1.56,79.45,3.93,96.34C492.35-107.17,522.89-66.43,548.08-48.12Z"/>
    </g>
   </g>
  </g>
  <g id="Layer_153" data-name="Layer 153">
   <path class="cls-4" d="M8.43,722.09C171.79,51.67,457.76-97.23,695.89,364.19c43.24,83.77,80.4,235.58,86.55,300.42,1.46,15.44-8.6,26.32-19.17,36.76C626.56,831.09,122,766.53,8.43,722.09"/>
   <path class="cls-5" d="M302.92,560.68c32.77-34,43.13-22.87,62.37,16.24,20.54,20,42.71-27.07,60.56-15.2,16.71,6.52,25.16,54.21,37.11,54.89,8.29.47,34.17-76.74,59.09-8.06,7.3,20.13,2.88,7.22,12.28-10.13s-.07-43.47-9.61-60.73c-35.67-60.78-270.44-91.59-229.31,24.64"/>
   <path class="cls-6" d="M108.61,747.81C297.43,524.13,250.75,320.42,359,257.89c47.44-27.42,88.29-31.9,140.24-6,43.69,21.73,47.19,294.51,215.39,476.4,4.15,11.51-176.39,91.76-606,19.57"/>
   <path class="cls-1" d="M77.89,726c148.7-654.41,409-799.75,625.78-349.35,39.36,81.77,73.19,229.95,78.78,293.24,1.33,15.07-7.82,25.69-17.45,35.88C640.56,832.35,181.26,769.34,77.89,726"/>
   <path class="cls-7" d="M422.06,786.19c-16-80.67-22.32-123.8-14-205.75,2.87-28.41,7.63-57.82,23.37-81.07S476.8,461.1,502,471.61c19.79,8.26,31.68,29.21,42.3,48.69q64.32,117.9,137.15,230.3"/>
   <path class="cls-7" d="m422.06 786.19c16.63-80.67 19.81-116.81 11.2-198.77-3-28.41-7.94-57.82-24.32-81.06s-47.24-38.27-73.42-27.77c-20.6 8.26-33 29.21-44 48.69q-66.9 117.9-142.67 230.3"/>
   <path class="cls-8" d="M415.83,540.67q5.34,21.8,9,44,.84,5.16,1.59,10.34c.13.93.27,1.87.4,2.81.06.46.13.93.19,1.4.14,1,0,.28,0,.07q.38,2.79.72,5.6,1.31,10.63,2.19,21.32a549.27,549.27,0,0,1,.44,83.23q-.81,11.65-2.06,23.28-.65,6-1.4,11.91c-.11.91-.23,1.83-.35,2.75l-.18,1.38c-.08.59-.09.61,0,0l-.12.91q-.42,3-.85,6a5.5,5.5,0,0,0,.51,3.86,5.06,5.06,0,0,0,3,2.29c2.36.54,5.75-.72,6.15-3.49a619.11,619.11,0,0,0,6.69-84.93,546.12,546.12,0,0,0-6.38-85.77c-2.55-16.67-5.89-33.21-9.9-49.59a5,5,0,0,0-6.15-3.5,5.1,5.1,0,0,0-3.49,6.15Z"/>
   <path class="cls-8" d="M355,439.78l2.62-18.59,1.27-9.05a29.93,29.93,0,0,1,1.65-7.37l-.76,1.8a13.06,13.06,0,0,1,.66-1.29c.12-.2.25-.4.39-.59-.79,1-1,1.26-.6.83.12-.13.24-.26.37-.38.57-.5.35-.34-.65.48.42-.14.86-.51,1.28-.7l-1.79.76a8.29,8.29,0,0,1,2.07-.53l-2,.26a12.27,12.27,0,0,1,2.57,0l-2-.27a19.44,19.44,0,0,1,4.49,1.31l-1.79-.76a67.53,67.53,0,0,1,9.57,5.53q4.8,3.11,9.38,6.53l1.25.95.53.4-.63-.48c.79.56,1.53,1.2,2.29,1.81,1.51,1.21,3,2.46,4.47,3.73,2.92,2.52,5.72,5.17,8.5,7.86,3.94,3.8,9.27,6.41,14.78,4.29,4.13-1.58,7.56-4.53,11.09-7.13q10.45-7.73,20.62-15.83,5.4-4.31,10.71-8.73,2.67-2.22,5.29-4.45l2.72-2.33c.17-.14,1-1.05,1.19-1s-1.46.94-.75.59c.28-.13.53-.31.82-.44l-1.79.76a2.85,2.85,0,0,1,.71-.18l-2,.27h.37l-2-.27a2.37,2.37,0,0,1,.64.14l-1.79-.76a2.89,2.89,0,0,1,.58.3c-1-.87-1.3-1-.75-.5.89.83-1-1.54-.33-.4.5.87,1.06,1.72,1.58,2.59,1,1.67,1.95,3.36,2.86,5.08q2.85,5.34,5.21,10.93l-.75-1.8a135,135,0,0,1,6.71,20.44,7.58,7.58,0,0,0,9.22,5.24,7.66,7.66,0,0,0,5.24-9.23,141.18,141.18,0,0,0-7.47-22.22q-2.19-5.17-4.79-10.14a78.26,78.26,0,0,0-5.26-9c-1.72-2.42-3.9-4.49-6.92-5.09-4.1-.81-7.22.83-10.24,3.38s-5.8,5-8.73,7.4-5.88,4.85-8.85,7.24q-2.24,1.8-4.48,3.57l-2.25,1.76a19.69,19.69,0,0,0-2.63,2l.76-.59-.75.59-1.52,1.16-2.27,1.73c-1.78,1.34-3.56,2.68-5.34,4s-3.58,2.65-5.38,3.95a29,29,0,0,1-5.07,3.29l1.79-.76a8.1,8.1,0,0,1-1.51.43l2-.26a7.75,7.75,0,0,1-1.18,0l2,.27a6.87,6.87,0,0,1-1.48-.39l1.79.75c-.35-.16-.68-.36-1-.54-1.27-.67,1.33,1.21.26.22-.6-.56-1.19-1.11-1.77-1.68-1.28-1.25-2.59-2.49-3.91-3.7q-3.8-3.48-7.8-6.74A184.71,184.71,0,0,0,378,397.11c-6.37-4-13.92-8.37-21.73-6.19-5,1.41-8.34,5.18-10.23,9.87-1.16,2.89-1.45,6-1.88,9.08l-3.65,25.92c-.3,2.09-.36,3.89.75,5.78a7.66,7.66,0,0,0,4.48,3.45,7.57,7.57,0,0,0,5.78-.76c1.52-1,3.19-2.6,3.45-4.48Z"/>
   <circle class="cls-5" cx="171.15" cy="488.22" r="97.86"/>
   <g class="cls-9">
    <path class="cls-10" d="m173.73 405.09c-13.08 1.31-19.34 16.26-20.68 29.34s4.14 26 11.46 36.89c7.41 11.06 17.12 21 29.33 26.27s27.15 5.37 38.24-2a41.49 41.49 0 0 0 12.43-13.55c11.39-19.21 9.31-45.5-5-62.67s-39.73-24-60.7-16.35"/>
    <path class="cls-10" d="M64.06,534.93C50.93,547.18,52,563,66.8,574.78c9.07,7.21,23.49,13,40.13,14.34s35.16-2.3,43.42-9.75c6-5.38,6.17-11.93,4.53-18-2.68-10-10.71-20.13-26.87-26s-41.54-5.54-53.46,2.49"/>
   </g>
   <circle class="cls-5" cx="651.21" cy="504.38" r="96.91"/>
   <g class="cls-11">
    <path class="cls-12" d="M599.59,408.55c-22.22,5-27.66,17.06-36.71,38s-3.22,48.53,16.06,60.68c13.19,8.33,30.19,8.51,45.26,4.49,32.42-8.62,59.59-38.27,60.39-71.81.2-8.46-1.34-17.31-6.44-24.07-6.14-8.15-16.47-12-26.53-13.75a90.89,90.89,0,0,0-55,7.84"/>
    <path class="cls-12" d="m677.9 551.66c-9.12 4.48-9.65 18.91-2.24 25.85s19.5 6.85 28.49 2.11c11.43-6 18.62-22.1 10.64-32.28-4.45-5.68-12.64-7.83-19.54-5.71s-12.66 4.34-17.35 10"/>
   </g>
  </g>
 </g>
</svg>
