<?xml version="1.0" encoding="UTF-8"?>
<svg viewBox="0 0 800 800" xmlns="http://www.w3.org/2000/svg">
 <defs>
  <style>.cls-1{fill:none;}.cls-2{fill:#54899b;}.cls-3{clip-path:url(#clip-path);}.cls-4{fill:#e7e7e8;}.cls-5{fill:#2f152f;}.cls-6{fill:#48588e;}.cls-7{fill:#ca4079;}.cls-8{fill:#99e0fc;}.cls-9{clip-path:url(#clip-path-2);}.cls-10{fill:#87c5d8;}.cls-11,.cls-12{fill:#9f051d;}.cls-12{stroke:#221f1f;stroke-miterlimit:10;stroke-width:0.98px;}.cls-13{fill:#d7eff7;}.cls-14{fill:#fff;}</style>
  <clipPath id="clip-path">
   <path class="cls-1" d="M15.17,804.89c-33-59.81-37.92-132.14-25.18-199.25S32,475.72,64.2,415.51c18.66-34.83,38.62-69.34,64.9-98.84,54.42-61.09,135.63-97.4,217.44-97.23,25.56.06,51.8,3.73,74,16.3,37.26,21.06,57.1,63,71.05,103.47,21,60.88,33.91,124.2,46.76,187.31"/>
  </clipPath>
  <clipPath id="clip-path-2">
   <path class="cls-1" d="m549.64 150.23c-114.39 145.39-194.59 405.13-79.27 578.09 55 23.36 117.77 20 170.74 9.6 19.6-5.36 35.06-15 48.33-26.32 130.73-111.87-28.32-485.1-139.8-561.37"/>
  </clipPath>
 </defs>
 <g id="Layer_277" data-name="Layer 277">
  <path class="cls-2" d="M83.44,749.14C49.19,745.35,1,731.46,7.83,707.8c16.47-57.27,23.06-80.69,30.58-118.16C51.73,523.24,58,474,91.12,414.29c19.18-34.52,39.7-68.73,66.62-98,55.75-60.66,138.66-97,222-97.22,26-.08,52.74,3.42,75.34,15.73,37.85,20.63,57.84,62,71.85,101.91,21.08,60.07,33.9,122.6,46.67,184.91"/>
  <g class="cls-3">
   <path class="cls-4" d="M-47.46,873.29c58.32,18.4,117.55,1.63,155.6-44.07,54-64.83,143.23-190.05,166.66-283.09,29.33-116.45,5.72-198.32,84-263.63,16-13.36,33.71-25.66,54.57-25.4,26.34.32,53.7,21.19,73.91,48.07s34.5,59.38,48,91.51C598.1,546,652.9,708.54,643.68,860.82c-2.32,38.24-9.68,77.24-31.73,99.42-19.75,19.87-48,23.14-73.22,32.08-39.24,13.89-72.74,42.45-112.65,54.35-41.72,12.45-88.06,6-133.45-.4-33.6-4.77-67.49-9.63-101-23C119.27,994.41,50.25,926.53-22,920.78c-15.57-1.24-36.46-4.38-41.89-24.06,4.73-14.81,19-22,32.56-16.39"/>
  </g>
  <g id="Layer_279" data-name="Layer 279">
   <path class="cls-5" d="M449,344.19c-4.74,12.73-9.37,26.71-5.24,40.28,1.72,5.64,4.8,11.22,9.33,15.09a25,25,0,0,0,17.33,6.35,27.58,27.58,0,0,0,16.86-6.78,22.74,22.74,0,0,0,5.28-6.69c.47-.91.85-1.88,1.24-2.82.16-.38.3-.77.48-1.14-.07.13-.62,1.3-.13.34.18-.36.35-.73.55-1.08.1-.17.55-1.26.2-.38s.25-.19.25-.18c-.8.58-.94.7-.4.35s.4-.24-.53.19a3.77,3.77,0,0,0,.65-.18l-1,.16c.67,0,.44,0-.67-.1l-.87-.37c-.76-.65-.9-.75-.43-.29-.11-.13-.77-1.23-.32-.36.86,1.67,1.86,3.29,2.79,4.93q2.69,4.73,5.4,9.42t5.48,9.37a87.73,87.73,0,0,0,5.21,8.44c3,3.92,7.41,6.72,12.49,5.09,4.13-1.33,6.59-5.09,7.72-9.09,1.07-3.76,1.21-7.9,1.69-11.77l1.51-12.22a6.1,6.1,0,0,0-1.8-4.36,6.28,6.28,0,0,0-4.37-1.81,6.19,6.19,0,0,0-4.36,1.81,7.18,7.18,0,0,0-1.81,4.36L520.22,401l-.6,4.89-.31,2.44-.15,1.22c-.23,1.85.2-1,0,0s-.61,2.07-.83,3.11c.29-1.36.5-1.07.24-.61l-.45.79c-.47.88.43-.65.45-.55a4.89,4.89,0,0,1-.39.4c.9-.65,1.1-.81.59-.46s0-.23.74-.27l-.27.08c-.62.13-.36.1.78-.1-.48,0-1-.23.64.11-1.13-.24,1,.64.4.2-.81-.57.08-.19.28.29-.08-.2-.48-.45-.63-.62-.45-.47-.37-.85.15.29a6.85,6.85,0,0,0-.62-.9c-3.71-5.63-7-11.64-10.33-17.48q-2.6-4.49-5.15-9c-1.74-3.07-3.25-6.7-6.53-8.42-4.08-2.14-9.3-.84-12.34,2.5a15.57,15.57,0,0,0-2.78,4.41c-.33.74-.63,1.49-.94,2.24s-.07-.26.14-.34c-.22.08-.78,1.57-.95,1.85-.28.48-.59.93-.91,1.39-.54.81.3-.41.36-.46a6,6,0,0,0-.65.76c-.37.41-.76.8-1.17,1.18-.16.15-.32.3-.49.44-1.25,1.08.82-.53-.06.07a24.3,24.3,0,0,1-2.85,1.73l-.6.3c-1.13.54,1.42-.52.24-.1-.58.2-1.15.42-1.74.59s-1.08.29-1.62.4c-.27.06-.55.1-.82.15-1.2.23,1.31-.08.48-.06a33.83,33.83,0,0,1-3.49,0c-.56,0-1.42-.38.33.08a5,5,0,0,0-.66-.11q-.81-.17-1.62-.39c-.53-.15-1-.37-1.58-.54,1.68.53.63.26.19.05s-.62-.31-.92-.48c-.51-.28-1-.59-1.48-.91-.24-.16-.47-.33-.7-.5-.67-.48,1.21,1,.3.21a27.22,27.22,0,0,1-2.68-2.69c-.15-.18-.29-.37-.44-.54,1.19,1.35.38.49.13.13s-.66-1-1-1.47a29.45,29.45,0,0,1-1.71-3.3c-.36-.77.57,1.5.14.32-.12-.34-.25-.67-.37-1-.24-.68-.45-1.36-.64-2.06s-.36-1.39-.5-2.09c-.06-.29-.11-.59-.17-.88-.09-.53,0-1.83,0,0,0-1.42-.25-2.82-.24-4.24,0-.94,0-1.88.1-2.81,0-.47.07-.94.12-1.4s.16-1.84,0-.22a55.27,55.27,0,0,1,2.43-10.53c1.12-3.62,2.43-7.18,3.75-10.73,1.13-3-1.26-6.9-4.31-7.59-3.5-.8-6.38,1.06-7.59,4.31Z"/>
   <ellipse class="cls-6" transform="translate(-321.9 392.78) rotate(-56.39)" cx="205.39" cy="496.61" rx="73.43" ry="23.17"/>
  </g>
  <path class="cls-5" d="M363.66,346.7q-11.39,33-20.28,66.82-2.19,8.33-4.23,16.69a38.54,38.54,0,0,0-.69,16.1A19.19,19.19,0,0,0,341,453a17.15,17.15,0,0,0,8.9,7.19,15.56,15.56,0,0,0,10.45-.11,26.57,26.57,0,0,0,9.63-6.63q6.93-7.09,13.81-14.24l7.07-7.3a81.48,81.48,0,0,1,6.76-6.77l-2.12,1.65a8.46,8.46,0,0,1,1.73-1l-2.51,1.06a7.65,7.65,0,0,1,1.42-.39l-2.8.38a6.87,6.87,0,0,1,1.36,0l-2.79-.38a7,7,0,0,1,1.63.43L391,425.78a9.8,9.8,0,0,1,1.83,1.06l-2.13-1.65a13.52,13.52,0,0,1,2.1,2.11l-1.64-2.12a15.46,15.46,0,0,1,1.9,3.3L392,426c1.43,3.64,1.65,7.63,3.12,11.26a24.07,24.07,0,0,0,5.24,8.57,21.18,21.18,0,0,0,6.93,4.5,25.71,25.71,0,0,0,15.84,1.08c5.06-1.14,9.5-4,13.33-7.42a59.8,59.8,0,0,0,8.94-10.74c2.68-3.82,5.29-7.71,7.93-11.57l16.45-24,18.56-27.12a10.49,10.49,0,0,0-3.77-14.37,10.58,10.58,0,0,0-8.1-1.06,11.71,11.71,0,0,0-6.28,4.82q-18,26.31-36,52.61c-3.07,4.49-6,9.1-9.35,13.42l1.64-2.13a37.54,37.54,0,0,1-6.11,6.36l2.13-1.65a21.83,21.83,0,0,1-4.53,2.75l2.51-1.06a18.89,18.89,0,0,1-4.31,1.2L419,431a17.29,17.29,0,0,1-4.43,0l2.79.37a14.24,14.24,0,0,1-3.2-.84l2.5,1.06a12.65,12.65,0,0,1-2.55-1.46l2.13,1.65a12.08,12.08,0,0,1-1.92-1.93L416,432a14.76,14.76,0,0,1-1.55-2.7l1.06,2.51a37.66,37.66,0,0,1-1.82-6.51,37,37,0,0,0-2.73-8.14c-3-6.32-9.73-11.52-16.9-11.44-4.74.05-8.8,2.19-12.2,5.35-1.91,1.77-3.66,3.74-5.48,5.61L365,428.45,358.57,435a72.54,72.54,0,0,1-6.11,6l2.12-1.64a12.2,12.2,0,0,1-2.34,1.45l2.51-1.06a8.22,8.22,0,0,1-1.84.51l2.8-.37a7.68,7.68,0,0,1-1.59,0l2.79.37a6.3,6.3,0,0,1-1.43-.39L358,441a6.18,6.18,0,0,1-1.21-.73l2.12,1.64a7.34,7.34,0,0,1-1-1l1.64,2.12a9.4,9.4,0,0,1-1-1.74l1.06,2.51a14.87,14.87,0,0,1-1-3.77l.38,2.79a24.42,24.42,0,0,1,0-6l-.38,2.8a69.58,69.58,0,0,1,1.63-7.28q1.08-4.36,2.2-8.7,2.24-8.7,4.64-17.34,4.85-17.42,10.37-34.62,3.12-9.69,6.44-19.33a10.51,10.51,0,0,0-15.44-11.86,11.58,11.58,0,0,0-4.83,6.28Z"/>
  <path class="cls-5" d="M160,464.71q5.49-5.18,11.47-9.79L169,456.86a164.47,164.47,0,0,1,36.13-21l-3,1.25a168.54,168.54,0,0,1,42.56-11.64l-3.3.45a164.54,164.54,0,0,1,18.15-1.4l-6.26-23.13c-16.32,10.71-32.51,21.55-47.92,33.53-14.52,11.29-28.18,23.8-39.53,38.31-7.48,9.57-14.15,19.72-21.56,29.35l1.94-2.51c-.86,1.11-1.73,2.22-2.61,3.31a13.83,13.83,0,0,0-3.64,8.78,12.43,12.43,0,0,0,12.41,12.41c3.09-.14,6.75-1.13,8.78-3.64,8.32-10.31,15.51-21.44,23.6-31.92l-1.94,2.51A209.55,209.55,0,0,1,214,459.67c3.26-2.73,6.59-5.39,10-8l-2.51,1.94c14.27-11,29.33-20.92,44.38-30.8a12.92,12.92,0,0,0,5.08-5.93,11.9,11.9,0,0,0,.63-8.08c-1.66-5.14-6.35-9.23-12-9.12a178.28,178.28,0,0,0-94.29,29.42,175.36,175.36,0,0,0-22.8,18.05,12.42,12.42,0,0,0,0,17.55,12.49,12.49,0,0,0,8.78,3.63,13.31,13.31,0,0,0,8.78-3.63Z"/>
  <path class="cls-7" d="M155.82,63.18C112.59,49.12,66.28,85.87,54.74,125.69,37.08,216.85,195.3,187.63,215.49,216c7.9-20.22,39.89-46.6,45.7-56.22C350.36,12.49,199.08-25.72,156,63.22"/>
 </g>
 <g id="Layer_280" data-name="Layer 280">
  <path class="cls-8" d="m549.64 150.23c-114.39 145.39-194.47 406-79.15 579 55 23.36 117.65 19.17 170.62 8.72 212.8-58.24 31.32-503.68-91.47-587.69"/>
  <g class="cls-9">
   <path class="cls-10" d="M441,299.16c-126.63-2.75-91.19,280-45.93,365.57,73.16,112,277.75,171.17,351.59,40.22C575.87,679.27,480,518.34,441,299.16Z"/>
   <path class="cls-11" d="m675.8 230.76c-13.73 26.95-39.12 45.06-66.26 53.61s-56.08 8.4-84.37 5.55c-30.94-3.11-62.35-9.66-89.43-26.71s-49.39-46.13-53.46-79.89c-4.48-37.2 14.26-74.4 41.94-95.89s62.89-29 97.07-28.21c80.83 1.78 160.36 49.44 205.91 123.4 2.54 4.12 5.07 8.63 5.08 13.58s-3.63 10.13-8.11 9.52"/>
  </g>
  <path class="cls-11" d="m736.21 530.12c21.9 10.57 34.54 34.8 43.46 59.13 21.55 58.75 21.54 126.28 0 184.27-8.66-19.4-15.55-74.85-43.71-80.81-15-3.17-38.19 15.38-57.27 28.54-9.83 6.77-19.2 11.28-24.46 12.41"/>
  <ellipse class="cls-12" transform="translate(-38.82 50.02) rotate(-4.94)" cx="559.94" cy="474.63" rx="85.1" ry="93.36"/>
  <ellipse class="cls-13" transform="translate(-38.84 50.02) rotate(-4.94)" cx="559.96" cy="474.82" rx="73.95" ry="81.14"/>
  <path class="cls-14" d="M499.51,462c2.27-23.33,38.3-71.84,57.38-47.52a6.11,6.11,0,0,1-3.11,9.51c-19,6.24-27.38,41.91-40.2,44.47-4.67.93-8.72.82-14.07-6.46"/>
  <path class="cls-11" d="m416.77 550.45c-20.56 13-31.57 38.66-37.65 63.85-14.69 60.82-7 127.91 21.06 183.06 6.39-20.26 6.9-76.14 34.19-85.27 22-7.38 13.19 21.39 85.88 31.33"/>
 </g>
 <g id="Layer_278" data-name="Layer 278">
  <path class="cls-2" d="m259.75 535.83c223.6-59 333.6 23.3 352.75 87.37 2.84 9.52 4.74 19.8 1.88 29.31-5.33 17.71-24.61 26.65-42 33-159.06 58.37-320.3 79.74-489 63.61"/>
 </g>
</svg>
