<svg id="Prior_to_November" data-name="Prior to November" xmlns="http://www.w3.org/2000/svg" xmlns:xlink="http://www.w3.org/1999/xlink" viewBox="0 0 800 800"><defs><style>.cls-1{fill:none;}.cls-2{fill:#54899b;}.cls-3{clip-path:url(#clip-path);}.cls-4,.cls-9{fill:#e5e6e6;}.cls-5{fill:#2f152f;}.cls-6{fill:#d45a89;}.cls-7{fill:#1f1f1f;}.cls-8{clip-path:url(#clip-path-2);}.cls-9{stroke:#fff;stroke-miterlimit:10;}.cls-10{clip-path:url(#clip-path-3);}</style><clipPath id="clip-path"><path class="cls-1" d="M15.23,726.07C-17.59,245.36,665.61.41,732.7,356.81c8,86.58,41.54,257.93,47.61,317,1.44,14-8.5,24-18.94,33.45-135.14,118.06-633.89,59.3-746.14,18.86"/></clipPath><clipPath id="clip-path-2"><path class="cls-1" d="M700.34-109.19C728.44-520.76,143.5-730.48,86.06-425.33,79.17-351.21,50.5-204.5,45.3-154c-1.24,12,7.27,20.5,16.22,28.64,115.7,101.08,542.72,50.78,638.82,16.14"/></clipPath><clipPath id="clip-path-3"><path class="cls-1" d="M1680.85-110.09c-30.63-606.88,607.07-916.12,669.7-466.17,7.51,109.3,38.77,325.63,44.43,400.13,1.35,17.74-7.93,30.24-17.68,42.24-126.13,149-591.67,74.87-696.45,23.8"/></clipPath></defs><g id="hold_asparagus" data-name="hold asparagus"><g id="mlem"><path class="cls-2" d="M20.69,723C-12.12,242.26,671.07-2.69,738.17,353.71c8,86.57,41.53,257.93,47.6,316.94,1.45,14.05-8.49,24-18.94,33.46C631.7,822.17,132.94,763.41,20.69,723"/><g class="cls-3"><path class="cls-4" d="M624.35,796.81C805.76,928.66,489.82,939.57,265.56,939.57S-127.38,757.39-140.5,533.51C-152.86,322.58-2090.57,2451.26,73.16,359.08c91.75-88.72,292.59-165.63,406.07-131.85,22.22,6.61,70.25,36.16,77.34,100.87,6.3,57.44-17.19,128.26-24.79,193.4-6.84,58.55,2.22,113.22,5.59,137.28C544.94,712.67,588.47,770.73,624.35,796.81Z"/></g><path class="cls-5" d="M653,477.29c-47.6-1.27-95,53.25-85.3,100.48,9,46.25,71.86,60.46,109.1,39.46C739.23,585.39,732.64,475,653,477.29"/><path class="cls-5" d="M138.36,388.74a392.8,392.8,0,0,1-3.48,49.78l.45-3.33q-.77,5.58-1.67,11.15c-.36,2.23-.76,4.45-1.06,6.69a27.18,27.18,0,0,0,.23,8.29,28.4,28.4,0,0,0,3.95,9.34c2.62,3.53,5.66,6.72,9.69,8.69a29.29,29.29,0,0,0,13.18,3.26,37.11,37.11,0,0,0,6.47-.77l4.38-.81,40.23-7.44c5.42-1,10.85-2.15,16.3-2.9l-3.32.45a39.83,39.83,0,0,1,10.29-.2l-3.33-.45a26.4,26.4,0,0,1,6.47,1.82l-3-1.26c5.43,2.38,10.35,6.12,15.27,9.42l19.24,12.9,22.09,14.81,14.17,9.5a26.24,26.24,0,0,0,10.36,4.4c5,.8,10.16.89,15-1a26.83,26.83,0,0,0,6.56-3.33,33.09,33.09,0,0,0,4-3.29,40.15,40.15,0,0,0,3.26-4.1c1.81-2.47,3.59-5,5.38-7.46l13-18,15.86-22,14.16-19.62,7.69-10.65.35-.49c1.79-2.48,2-6.8,1.26-9.63a12.77,12.77,0,0,0-5.74-7.47,12.59,12.59,0,0,0-9.63-1.26l-3,1.26a12.49,12.49,0,0,0-4.48,4.48l-5.62,7.78-13.54,18.77-16.31,22.6-14.13,19.58c-2.26,3.13-4.53,6.25-6.77,9.39l-.29.39,1.95-2.53a15.4,15.4,0,0,1-2.6,2.63l2.53-1.95a16.29,16.29,0,0,1-3.42,2l3-1.26a17.07,17.07,0,0,1-4.15,1.1l3.32-.44a17.18,17.18,0,0,1-4,0l3.32.45a16.39,16.39,0,0,1-4.23-1.16l3,1.26a52.67,52.67,0,0,1-7.39-4.65L300,484.35,266.74,462l-9.68-6.49c-1.51-1-3-2-4.54-3a42.07,42.07,0,0,0-23.64-6.87c-6.58.19-13.09,1.62-19.54,2.82L192,451.71l-32.31,6-1.23.21,3.32-.44a17,17,0,0,1-4.22,0l3.32.45a16.92,16.92,0,0,1-3.89-1l3,1.26a16.18,16.18,0,0,1-3.39-1.92l2.53,1.95a15.33,15.33,0,0,1-2.72-2.68l2,2.53a14.42,14.42,0,0,1-1.76-3l1.26,3a14,14,0,0,1-.93-3.37l.45,3.32a14,14,0,0,1,0-3.3l-.45,3.32c.57-4.19,1.39-8.35,2-12.53.76-5.31,1.46-10.63,2.06-16q1.42-12.88,2-25.86.33-7.46.37-14.92a12.9,12.9,0,0,0-3.66-8.84,12.75,12.75,0,0,0-8.84-3.66c-6.81.31-12.46,5.49-12.5,12.5Z"/><path class="cls-5" d="M89.59,397.5c3.22,0,3.23-5,0-5s-3.22,5,0,5Z"/><g id="mlemtongue"><path class="cls-6" d="M164.65,476.35a203,203,0,0,0,17.77,84.11,63.16,63.16,0,0,0,8.06,14A40.44,40.44,0,0,0,218.86,589a46.44,46.44,0,0,0,30.71-9.33c5.63-4.21,10.3-9.57,14.75-15C277.1,549,288.52,532,295.88,513.13c.82-2.09,1.59-4.31,1.22-6.52a12.57,12.57,0,0,0-1.83-4.22c-13-21.78-39.21-32.71-64.35-36.19-22.95-3.18-40.24-1.29-61.41,8.12"/><path class="cls-7" d="M157.15,476.35a212.43,212.43,0,0,0,18.79,87.9c3,6.72,6.61,13.24,11.87,18.49A48.7,48.7,0,0,0,206.06,594c13.9,4.9,29.71,2.63,42.37-4.6a67.33,67.33,0,0,0,16.64-14c5-5.65,9.68-11.67,14.16-17.75a184.28,184.28,0,0,0,21.1-35.76c1.82-4.18,3.89-8.41,4.3-13s-1.69-8.47-4.06-12.1a69.2,69.2,0,0,0-12.22-14.17c-9.66-8.48-21.12-14.42-33.27-18.47a140.08,140.08,0,0,0-38.68-6.72,105.91,105.91,0,0,0-39.73,6.05c-3.71,1.32-7.35,2.84-10.95,4.44a7.49,7.49,0,0,0-3.44,4.48,7.68,7.68,0,0,0,.75,5.78,7.57,7.57,0,0,0,4.48,3.44,8.65,8.65,0,0,0,5.78-.75l2.54-1.1-1.79.75a107.24,107.24,0,0,1,26.91-7.6l-2,.27a118.68,118.68,0,0,1,31.05.45l-2-.27a121.23,121.23,0,0,1,30.69,8.1l-1.8-.76A92.92,92.92,0,0,1,267.6,486q2.55,1.49,5,3.17c.81.56,1.6,1.13,2.39,1.72,1.55,1.16-1.06-.86-.06-.06l1.14.92a65.78,65.78,0,0,1,8.33,8.19c.32.38.63.75.93,1.13,1.22,1.51-.81-1.1,0-.07.58.79,1.16,1.58,1.71,2.39a31.94,31.94,0,0,1,3.16,5.42L289.4,507a9,9,0,0,1,.53,2l-.27-2a10.47,10.47,0,0,1,0,1.77l.27-2a34,34,0,0,1-2.75,8l.75-1.79a174.85,174.85,0,0,1-17,30.48q-2.45,3.56-5,7c-.83,1.13-1.68,2.25-2.53,3.37l.36-.47c-.27.36-.55.71-.82,1l-1.37,1.75a139.82,139.82,0,0,1-11.44,13.11q-1.72,1.7-3.58,3.25l-.85.69c-1.23,1,1.42-1,.13-.09-.62.45-1.24.9-1.88,1.34a50.16,50.16,0,0,1-8.32,4.49l1.79-.76a48.08,48.08,0,0,1-11.71,3.21l2-.27a43.8,43.8,0,0,1-11.15,0l2,.27a42.83,42.83,0,0,1-10.65-2.87l1.79.76a41.43,41.43,0,0,1-7.92-4.4c-.32-.23-.62-.48-1-.7,1.85,1.23.71.55.28.19q-.91-.75-1.77-1.56a34.49,34.49,0,0,1-3.11-3.29c-.22-.26-.42-.58-.66-.81.71.93.83,1.07.35.44l-.26-.36c-.52-.73-1-1.48-1.51-2.24-.92-1.46-1.76-3-2.56-4.51-1.64-3.17-3.08-6.44-4.47-9.73l.76,1.8a204.75,204.75,0,0,1-14.13-51.87l.27,2a203.71,203.71,0,0,1-1.8-28c0-3.92-3.47-7.68-7.5-7.5a7.62,7.62,0,0,0-7.5,7.5Z"/><path class="cls-7" d="M224.53,474.21l-1.69,11.87a8.37,8.37,0,0,0,.75,5.78,7.53,7.53,0,0,0,10.27,2.69l1.51-1.18a7.4,7.4,0,0,0,1.93-3.31L239,478.2a5.64,5.64,0,0,0,.13-3,5.51,5.51,0,0,0-.89-2.79A7.49,7.49,0,0,0,228,469.73l-1.52,1.17a7.55,7.55,0,0,0-1.93,3.31Z"/></g></g><g id="hug"><g id="Layer_32" data-name="Layer 32"><g id="sharj"><g class="cls-8"><path class="cls-9" d="M178.83-48.61C23.51,64.28,993,110.48,650.74-423.4c-59-92-250.5-141.8-347.66-112.88-19,5.66-60.15,31-66.22,86.36-5.39,49.19,14.72,109.82,21.23,165.59,5.85,50.13-1.9,96.93-4.79,117.53C246.82-120.66,209.55-70.95,178.83-48.61Z"/></g></g></g></g></g><g id="sir"><g class="cls-10"><path class="cls-4" d="M2249.41-20.77c169.33,166.46-125.57,180.23-334.9,180.23s-366.77-230-379-512.65C1524-619.48-284.72,2067.94,1734.93-573.4c85.64-112,273.1-209.1,379-166.46,20.75,8.35,65.57,45.65,72.2,127.35C2192-540,2170.1-450.58,2163-368.35c-6.38,73.92,2.07,142.94,5.22,173.31C2175.28-127,2215.91-53.7,2249.41-20.77Z"/></g></g></svg>