<svg id="Prior_to_November" data-name="Prior to November" xmlns="http://www.w3.org/2000/svg" xmlns:xlink="http://www.w3.org/1999/xlink" viewBox="0 0 800 800"><defs><style>.cls-1{fill:none;}.cls-2{clip-path:url(#clip-path);}.cls-3{fill:#e7e7e8;}.cls-4{fill:#54899b;}.cls-5{clip-path:url(#clip-path-2);}.cls-6{fill:#e5e6e6;}.cls-7{fill:#2f152f;}.cls-8{fill:#1f1f1f;}.cls-9{clip-path:url(#clip-path-3);}.cls-10{fill:#221c1f;stroke:#fff;stroke-miterlimit:10;}.cls-11{fill:#c37343;}.cls-12{fill:#f7f8f9;}.cls-13{fill:#cbcac9;}.cls-14{fill:#8b4c28;}.cls-15{fill:#fff;}.cls-16{fill:#b2b2b2;}</style><clipPath id="clip-path"><path class="cls-1" d="M-703.23,758.73c199.57,38.21,466.93,81.57,634.56-57.84,15-24.48,15.07-56.49,7.49-84.33C-168.37,223-104.39,95-241.08,32.26c-210.83-92.7-431.73,116.29-506.06,307.48"/></clipPath><clipPath id="clip-path-2"><path class="cls-1" d="M34.42,707.42C3.79,100.54,641.49-208.7,704.11,241.25c7.51,109.3,38.77,325.63,44.44,400.13,1.35,17.74-7.93,30.24-17.68,42.24-126.14,149-591.68,74.87-696.45,23.8"/></clipPath><clipPath id="clip-path-3"><path class="cls-1" d="M34.42,703.51C3.79,96.63,641.49-212.62,704.11,237.33c7.51,109.3,38.77,325.64,44.44,400.14,1.35,17.73-7.93,30.23-17.68,42.23-126.14,149-591.68,74.87-696.45,23.81"/></clipPath></defs><g id="Layer_128" data-name="Layer 128"><g class="cls-2"><path class="cls-3" d="M-499,731.63c-46.93-159-32.42-338.22,39.46-487.38,18.13-37.62,41.39-75,76.64-94.33A141.92,141.92,0,0,1-347,136.71c60.95-14.32,130.19,3.78,169.61,54.94,27.79,36,38.42,83.64,45.57,129.86,3.08,19.86,5.68,39.86,10.51,59.3,5.25,21.14,13.1,41.42,21.6,61.29A909.78,909.78,0,0,0-7.09,608.3C9.4,631.68,28,658,23.93,687.07,21.85,702,13.88,715.35,4.76,727-34.76,777.32-96,801.73-156,815.8a678.68,678.68,0,0,1-181.45,17.51c-35.88-1.4-72.64-6-104.27-23.87s-57.41-51.53-58.54-89.88"/></g></g><g id="sir"><g id="Layer_131" data-name="Layer 131"><path class="cls-4" d="M39.52,703.51C8.89,96.63,646.59-212.62,709.21,237.33,716.72,346.63,748,563,753.65,637.47,755,655.2,745.72,667.7,736,679.7c-126.14,149-591.68,74.87-696.45,23.81"/><g class="cls-5"><path class="cls-6" d="M603,796.74C772.3,963.2,477.41,977,268.08,977s-366.78-230-379-512.65C-122.48,198-1931.15,2885.44,88.5,244.11c85.63-112,273.1-209.11,379-166.46C488.26,86,533.09,123.3,539.71,205c5.88,72.52-16.05,161.93-23.14,244.16-6.38,73.92,2.07,142.94,5.22,173.31C528.85,690.51,569.48,763.81,603,796.74Z"/></g><path class="cls-7" d="M611.64,300.16c-5.94,2.73-2.87,1.2-9.67,4.24-32.92,14.72-57,51.27-50.4,86.71A49.28,49.28,0,0,0,557.24,407a51.2,51.2,0,0,0,13.08,14.25c23.25,18,57.27,20.72,83.09,6.66s42-44.1,39.51-73.4c-1.54-18.12-10.12-35.94-24.64-46.89s-40.21-15.3-56.64-7.49"/><path class="cls-8" d="M382.18,285.24c-5.44,2.76-11,5.3-16.6,7.68l4.18-1.76a379,379,0,0,1-43.12,15c-9.28,2.64-18.65,5-28.09,7-3.19.67-6.4,1.3-9.64,1.75l4.66-.62a37.28,37.28,0,0,1-9.26.21l4.66.62a24.07,24.07,0,0,1-5.65-1.51l4.19,1.76c-4.87-2.06-9.18-5.37-13.54-8.33l-15.6-10.64-34-23.15-9.58-6.54a13.06,13.06,0,0,0-6.51-2.07,13.26,13.26,0,0,0-7,.31,17.88,17.88,0,0,0-10.46,8c-2.14,4.06-3.22,9-1.76,13.49l1.76,4.18a17.66,17.66,0,0,0,6.28,6.28l18.29,12.46,32.85,22.38,10.89,7.43,1.92,1.31a53.94,53.94,0,0,0,7.94,4.72,50.86,50.86,0,0,0,7.92,3.11,47.46,47.46,0,0,0,9.2,1.32c4.63.27,9.39-.55,13.92-1.29,1.46-.23,2.9-.49,4.35-.77,1.21-.24,2.43-.49,3.64-.75,6.31-1.34,12.59-2.85,18.83-4.49a392,392,0,0,0,64.92-23q4.05-1.87,8-3.9A16.85,16.85,0,0,0,408.2,298a13,13,0,0,0-2.07-6.51c-2.41-3.73-6-7-10.46-8l-4.65-.62a17.38,17.38,0,0,0-8.84,2.39Z"/><g class="cls-9"><path class="cls-10" d="M93.26,496c-3.16-2.83-5.54,6.35-7.36,10.17A755.55,755.55,0,0,0,17.19,748.64C16,760.05,15,771.87,18.65,782.75c4.72,14.11,16.47,24.68,28.63,33.26C97.64,851.56,161,863.75,222.63,865.82s123.21-5,184.85-3.91c55.43,1,112.54,8.45,165.1-9.18Q547.34,754,522.1,655.3c-6.77-26.47-13.65-53.23-26.54-77.3C337.44,582.2,242.37,629.78,93.26,496Z"/></g><path class="cls-11" d="M153,538.21C129.59,569,176.3,713.59,153,744.4l-98.7-24.13c-5.84-1.43-12-3.06-16-7.26s-4.92-10.07-5.61-15.6A495.58,495.58,0,0,1,59.17,466.28"/><path class="cls-11" d="M378.59,656.18A582.17,582.17,0,0,0,421.24,764.3c2.31,4.45,4.79,9,8.56,11.77,5.16,3.78,11.69,3.44,17.76,2.92a1034.21,1034.21,0,0,0,197.92-36.66c21.83-6.28,43.84-13.44,63.09-27.08s35.7-34.67,40.89-60.37c3-15,2.11-30.76,1.17-46.19l-4.2-68.52a16,16,0,0,0-1.12-5.9c-2.69-5.57-9.75-4.16-14.88-2L469.83,642c-17.84,7.51-36.07,15.1-55,15.54-7.79.18-16.07-.73-22.89,3.68s-10.28,17-4.1,22.62"/><path class="cls-12" d="M712.6,375.28c-66.76,135-450.12,78.89-434.74,177-5,126.08,637.92-77.08,434-181.28"/><path class="cls-13" d="M355.41,597.24a202.11,202.11,0,0,1-36.37-2.9c-38.85-7.23-46.62-26.6-46.2-41.78a35.54,35.54,0,0,1,6.61-27.1c21.37-29,89-38.89,167.4-50.34,106.5-15.56,227.21-33.2,261.27-102.06l2.13,1.05,3.87-7.57c44.18,22.57,46.23,48.51,40.18,66.3-13.44,39.47-83.42,84.8-187.2,121.28C488.81,581.64,410.67,597.24,355.41,597.24ZM716.28,379.09C678.9,451.32,556.44,469.21,448.3,485c-73,10.66-141.9,20.73-160.8,46.37a25.58,25.58,0,0,0-4.7,20.1l.07.49,0,.49c-.65,16.44,12.14,27.22,38,32,50.7,9.44,148.32-6.57,242.92-39.81,99.4-34.94,168.77-79,181-115.07C751.25,410.76,741.65,393.79,716.28,379.09Z"/><path class="cls-12" d="M96.52,331.29c-25.76,35.95-62.2,168.42-6.87,194.77,53.38,29,107.69,62,163.67,79.28,13.21-19,42.43-59,25.41-72C87.54,387,124.77,367.15,96.52,331.29"/><path class="cls-7" d="M725.19,442.18a105,105,0,0,1,14.67,10.92c4.33,3.87,8.92,8.13,11.94,13.14a15.27,15.27,0,0,1,2.34,8.17c0,1.63-.21,3.25-.14,4.88a27.7,27.7,0,0,0,.64,4.42c.64,3.05,1.44,6,1.17,9.16a20.27,20.27,0,0,1-2.26,7.36c-2.86,5.59-7.36,10.15-11.79,14.5-1.15,1.13.62,2.9,1.77,1.77,4.21-4.14,8.45-8.48,11.43-13.63a22.73,22.73,0,0,0,2.88-16.22c-.32-1.58-.72-3.15-1-4.73a24.07,24.07,0,0,1-.26-5.56,19.11,19.11,0,0,0-1.37-9c-2.45-5.55-7.26-10.14-11.61-14.22A107.75,107.75,0,0,0,726.46,440c-1.38-.85-2.63,1.31-1.27,2.16Z"/><path class="cls-13" d="M262.05,610a3.55,3.55,0,0,1-4,1.36h0c-46.62-14.39-92.31-39.73-136.49-64.22-9.11-5.06-18.53-10.28-27.75-15.29-14.92-7.14-24.67-21.65-29-43.12-4.69-23.32-2.6-55,5.9-89.12,7.23-29,18.13-56,28.45-70.43l.19-.27a3.57,3.57,0,0,1,5.7-.13l.17.23c7.48,9.48,10.73,18.09,14.18,27.21,10.31,27.31,24.44,64.7,167.26,174a18.27,18.27,0,0,1,6.9,12.63c2.17,17.25-13.42,41.23-29.57,64.31ZM102.44,340.22C83.86,370.41,63.87,441.9,72.82,486.36c3.66,18.17,11.77,30.36,24.1,36.23l.18.09c9.28,5,18.74,10.29,27.9,15.37,43.06,23.88,87.56,48.55,132.63,62.86l.13-.2c9.58-13.68,29.5-42.14,27.71-56.32a7.91,7.91,0,0,0-3.16-5.67C137.42,427.82,122.71,388.86,112,360.41,109.14,353,106.81,346.79,102.44,340.22Z"/><path class="cls-11" d="M722.77,369.17c4.58,6.52,3.83,15.31,2.27,23.12-10.93,54.79-52.38,100-101.64,126.39s-105.75,36-161.47,40c-24.14,1.73-48.55,2.5-72,8.52s-46.28,18-60.26,37.73c-8.22,11.64-13,27.28-6.94,40.18,5.6,12,18.61,18.26,30.66,23.65l99.52,44.49a22.62,22.62,0,0,0,5.78,2c4.92.75,9.7-1.73,14-4.24,37.46-21.82,69.84-51.28,101.1-81.34,12.82-12.33,25.59-24.87,40.15-35.09,25-17.51,54.48-27.67,84.47-33.16,24-4.39,51.24-7.51,65.88-27,11.8-15.7,11.31-37.11,10.31-56.73-1.6-31.27-3.69-64.12-20.53-90.52-6.74-10.57-18.72-20.58-30.62-16.63"/><path class="cls-14" d="M718.46,371.69c5.17,7.74,2.21,18.27.1,26.59a147.9,147.9,0,0,1-8.85,25.3,177.68,177.68,0,0,1-30.28,45.49c-26.35,29-60.45,49.31-97.24,62.2-41.76,14.63-85.81,20.16-129.76,23-41.6,2.73-88.45,6.23-119.08,38.35-13.74,14.4-24.51,36.82-14.33,56.16,4.35,8.28,12.15,14.19,20.2,18.6,9.55,5.24,19.81,9.29,29.75,13.74l66.62,29.78c5.6,2.51,11.16,5.1,16.81,7.49a20.61,20.61,0,0,0,17.16-.21c4.91-2.12,9.48-5.12,14-8q7.05-4.39,13.89-9.15a519.63,519.63,0,0,0,51.94-41.78c16.5-14.88,32-30.83,48.6-45.61,16.07-14.31,33.94-26,54-34,19.34-7.77,39.43-12,59.86-15.66,17.6-3.19,36.22-7.29,50-19.54,15.25-13.6,18.49-34.3,18.29-53.73-.1-10.25-.76-20.53-1.5-30.75a283,283,0,0,0-3.76-31.14,140.22,140.22,0,0,0-9-30.21c-4-9.21-9.16-18.45-16.75-25.18-7.36-6.53-17.07-10.85-26.93-7.79-6.13,1.9-3.51,11.56,2.66,9.64,8.45-2.62,16.21,3.45,21.51,9.62,6.15,7.15,10.3,16.45,13.36,25.29,6.61,19.09,8.38,39.35,9.52,59.39.55,9.7,1.19,19.46.78,29.19-.38,9-1.73,18.32-5.87,26.44-8,15.76-24.45,22.4-40.79,26.26-8.56,2-17.25,3.38-25.89,5a265.79,265.79,0,0,0-30.25,7.28c-20.23,6.19-39.86,15-57.09,27.4-18,12.93-33.47,29-49.52,44.19-15.66,14.83-31.67,29.31-48.62,42.66-8.37,6.6-17,12.88-25.9,18.76q-6.76,4.49-13.75,8.63c-3.74,2.22-8.4,5.6-13,4.83a27.34,27.34,0,0,1-6.3-2.45L444.34,704l-16.45-7.35L395.4,682.08l-32.89-14.7c-8.75-3.91-18-7.53-25.71-13.28-6.75-5-11.5-12.09-11.77-20.67-.29-9.27,3.55-18.21,8.76-25.69,10.47-15,26.9-25.25,43.83-31.49,20.63-7.59,42.66-9.75,64.44-11.25,21.95-1.52,43.83-3,65.63-6.09A422.79,422.79,0,0,0,571,545.41c38.09-11.49,74.15-29.79,103.39-57.06,26.6-24.79,47.34-56.89,55-92.72,2-9.56,3.4-20.39-2.36-29a5.12,5.12,0,0,0-6.84-1.79c-2.23,1.3-3.3,4.59-1.79,6.84Z"/><path class="cls-11" d="M77.66,415.79c12.29-.31,23.39,7,32.89,14.81,23.21,19,42.77,43.14,53.48,71.18s12,60.17.55,87.9c-2.51,6.06-6.12,12.37-12.26,14.69-4.28,1.62-9.09,1-13.5-.26-11.45-3.24-21.44-10.38-30-18.63-29.16-28.07-43.15-68.74-48-108.91-2.59-21.4-1.82-45.85,13.75-60.75"/><path class="cls-14" d="M77.66,420.79c.9,0,1.8,0,2.71.06.48,0,.95.08,1.43.12.11,0,.79.11.16,0s.41.07.55.1a37.08,37.08,0,0,1,5.57,1.45l1.17.42.77.3.17.07.17.07.57.26c.51.23,1,.47,1.51.72,1.76.88,3.48,1.86,5.15,2.9s3.32,2.18,4.93,3.35l1,.76c.25.19,1.25,1,.51.38.78.6,1.55,1.22,2.31,1.84q4.48,3.63,8.76,7.52A198.36,198.36,0,0,1,131,457.28c1.27,1.45,2.51,2.91,3.73,4.4.61.74,1.21,1.49,1.81,2.24.26.32.51.64.76,1l.38.48c.37.47-.47-.62.1.13,2.28,3,4.48,6.06,6.56,9.19a154.83,154.83,0,0,1,11.19,19.8c.38.8.75,1.61,1.11,2.42.2.44.39.87.58,1.31s.72,1.68.31.69q1.08,2.59,2.06,5.23,2.16,5.78,3.76,11.73T166,527.7c.17,1,.33,2,.48,3,.07.44.13.87.19,1.31-.15-1.06.07.53.1.85q.38,3.06.59,6.14a118.48,118.48,0,0,1,.26,12.07c-.05,2-.16,4.09-.33,6.13-.07.94-.16,1.89-.26,2.83-.05.51-.11,1-.17,1.52,0,.34-.21,1.62-.07.63a106.43,106.43,0,0,1-5.94,23.48,20.91,20.91,0,0,1-1.06,2.65c.6-1.09,0,.07-.16.35-.2.46-.41.92-.63,1.37a36.78,36.78,0,0,1-2.61,4.62c-.2.31-.43.6-.64.91-.33.49.22-.28.22-.27a3.74,3.74,0,0,1-.47.58,20.6,20.6,0,0,1-1.77,1.85c-.18.16-1.13.93-.61.54s-.55.36-.68.44c-.31.2-.62.38-.94.55l-.65.33c-.66.33.08.08.17-.07-.13.22-1.26.41-1.47.46-.42.11-.85.18-1.28.27-.75.16.79,0,0,0-.22,0-.44,0-.66.05a17.22,17.22,0,0,1-1.76,0c-.45,0-.89-.05-1.33-.09-.2,0-1-.13,0,0l-.66-.11c-1-.17-2-.41-3.06-.67a52.42,52.42,0,0,1-5.6-1.85c-.31-.13-1.45-.61-.54-.22l-1.15-.5c-.95-.44-1.88-.9-2.81-1.38a73.1,73.1,0,0,1-9.75-6.16l-.68-.51c-.06,0-.61-.47-.16-.12s-.1-.08-.16-.13l-.49-.39c-.83-.66-1.64-1.33-2.44-2q-2.24-1.92-4.37-4c-2.66-2.55-5.22-5.22-7.65-8-1.23-1.4-2.44-2.83-3.61-4.28-.54-.67-1.08-1.35-1.61-2,.6.77-.09-.11-.31-.41l-.84-1.12A150.51,150.51,0,0,1,86.84,547.6q-2.58-4.89-4.84-9.94c-.38-.85-.76-1.71-1.13-2.58-.16-.37-.46-1.1-.13-.29-.2-.5-.41-1-.61-1.49-.72-1.75-1.4-3.5-2.06-5.27a207.07,207.07,0,0,1-6.69-21.49c-1.85-7.29-3.33-14.67-4.5-22.09-.13-.87-.27-1.74-.39-2.6l-.18-1.21c0-.26-.07-.53-.11-.8,0-.12-.14-1,0-.33s0,0,0-.14c0-.27-.07-.54-.11-.8l-.15-1.2c-.12-.95-.23-1.9-.33-2.84-.38-3.45-.66-6.91-.8-10.38s-.15-7.12,0-10.67c.09-1.7.22-3.4.41-5.09,0-.43.1-.87.15-1.3.11-.94-.14,1,.05-.34.13-.87.27-1.72.43-2.58a60.89,60.89,0,0,1,2.58-9.75,18.25,18.25,0,0,1,.91-2.36c-.39.74-.15.36.07-.13s.4-.87.6-1.3a44.82,44.82,0,0,1,2.44-4.4c.41-.66.85-1.31,1.3-2a6.81,6.81,0,0,1,.74-1c-.58.57-.22.28.11-.13a42.93,42.93,0,0,1,3.48-3.78,5,5,0,0,0,0-7.07,5.1,5.1,0,0,0-7.07,0c-11,10.68-15.33,25.87-16.18,40.82a129.12,129.12,0,0,0,.78,21.8c.89,8,2.13,15.93,3.74,23.79a210.82,210.82,0,0,0,14.53,45.12,151.87,151.87,0,0,0,25.39,39,111.83,111.83,0,0,0,18.35,16.42c6.75,4.76,14.56,8.75,22.71,10.39,5.06,1,10.08,1,14.88-1.07a22.91,22.91,0,0,0,9.27-8A48,48,0,0,0,169.82,590a104.24,104.24,0,0,0,4-12,124.19,124.19,0,0,0,2-51.6,142.15,142.15,0,0,0-16.74-46.73,180.56,180.56,0,0,0-29.16-38.14,198.07,198.07,0,0,0-17.65-15.86c-6.77-5.38-14-10.31-22.33-13a38.26,38.26,0,0,0-12.29-1.85,5,5,0,0,0,0,10Z"/><path class="cls-15" d="M254.13,509.05c-52.76,20.25-76.07,83.82-132.91,101.53-74.16,54.27-39.75,97.12,40.4,61.94,27.09,4.62,50.8,63.77,58.85,1.75,4.91-45.18,36.78-74.54,71.28-98.49,7.37-6-2.46-16.74,7.6-22.43,36.53-31.09-9.06-59.74-45.22-44.3"/><path class="cls-16" d="M253.46,506.64a117.34,117.34,0,0,0-30.64,18C213.57,532,205.2,540.34,197,548.86s-16.35,17.5-24.94,25.84-17.43,15.95-27.43,22.23a107.06,107.06,0,0,1-15.71,8.2c-1.42.59-2.86,1.14-4.3,1.66a31.09,31.09,0,0,0-4.7,1.64,44.68,44.68,0,0,0-5.15,3.87q-2.36,1.83-4.67,3.73c-9.74,8-19.09,17.12-25.69,28-4.13,6.77-7.52,14.94-6.52,23a21.29,21.29,0,0,0,11.19,16.13c7.68,4.24,16.95,5,25.55,4.54,12.79-.69,25.38-4.11,37.33-8.58,3.67-1.38,7.29-2.87,10.88-4.44l-1.93.25a23.22,23.22,0,0,1,2.88.69c.47.15.93.3,1.39.47l.68.27.3.12.09,0a43.52,43.52,0,0,1,5.6,3.07,81.43,81.43,0,0,1,10.37,8.18c3.28,2.92,6.45,6,9.77,8.82a44.84,44.84,0,0,0,9.16,6.63c2.77,1.39,6,2.28,9.06,1.22,3.55-1.24,5.86-4.45,7.37-7.75,2.63-5.73,3.83-12.05,4.77-18.24.59-3.89,1-7.8,1.7-11.66a100.29,100.29,0,0,1,2.6-10.69A109.74,109.74,0,0,1,246,619.82c8.72-11,19.06-20.62,30-29.34,5.52-4.39,11.31-8.37,17-12.54a10.77,10.77,0,0,0,4.2-8.11c.22-2.67-.31-5.34-.26-8a7.43,7.43,0,0,1,.62-3.31,6.87,6.87,0,0,1,2.24-2.51,38.12,38.12,0,0,0,8.31-8c3.78-4.71,6.66-10.15,7.12-16.26.81-10.69-7-19.38-15.94-24-11.22-5.78-24.67-6.85-36.88-4a58.43,58.43,0,0,0-9.55,3.17,2.51,2.51,0,0,0-.9,3.42,2.57,2.57,0,0,0,3.42.9,51.62,51.62,0,0,1,34.52-1.88,39,39,0,0,1,7,2.81,34.44,34.44,0,0,1,5.94,3.88,28.11,28.11,0,0,1,2.49,2.39,14.77,14.77,0,0,1,1.84,2.29,16,16,0,0,1,2.59,5.53c.14.49.24,1,.34,1.5,0,.15,0,.31.08.46,0,0-.05-.37,0-.07s.06.56.08.84a19.54,19.54,0,0,1-.07,3.42,1.27,1.27,0,0,1,0,.34c-.05.3-.1.6-.16.89q-.19.92-.45,1.8a19.85,19.85,0,0,1-1.24,3.21,32.44,32.44,0,0,1-4.86,7.24,49.83,49.83,0,0,1-3.65,3.76c-1.34,1.25-2.87,2.18-4.22,3.4a11.39,11.39,0,0,0-3.55,7.71c-.23,2.54.23,5.07.25,7.61a8,8,0,0,1-.4,3.14,5,5,0,0,1-1.68,2.35c-2.59,2-5.44,3.83-8.1,5.79a229.78,229.78,0,0,0-30.6,26.32,131.09,131.09,0,0,0-23,32,107.91,107.91,0,0,0-7.28,18.95q-1.4,5.05-2.28,10.24c-.64,3.72-1,7.48-1.59,11.2a97.37,97.37,0,0,1-2,9.58c-.35,1.3-.73,2.59-1.18,3.86-.18.52-.38,1-.57,1.55l-.14.33s.13-.31,0-.05-.24.55-.37.83a22.49,22.49,0,0,1-1.33,2.4c-.11.18-.23.35-.35.52s-.4.52-.17.24-.16.19-.23.26-.28.32-.43.47-.47.44-.71.66.46-.3.06,0l-.46.31c-.24.14-.51.25-.76.4.64-.37,0,0-.36.09-.17.05-1,.18-.52.13s-.43,0-.61,0-.56,0-.84,0c.86,0-.17,0-.46-.11a13.22,13.22,0,0,1-1.84-.61c.7.28-.22-.12-.45-.23s-.67-.35-1-.54c-.71-.4-1.39-.83-2.06-1.29-.33-.22-.65-.45-1-.69l-.45-.34c-.16-.11-.68-.51-.26-.19-1.51-1.16-3-2.4-4.37-3.66-6.44-5.68-12.52-11.86-19.7-16.62a36,36,0,0,0-11-5.14c-.46-.11-.92-.22-1.39-.3a5.48,5.48,0,0,0-3.36.76q-2.62,1.13-5.28,2.18c-3.51,1.38-7.07,2.67-10.66,3.83-11.23,3.63-22.92,6.26-34.75,5.87-1.16,0-2.32-.11-3.47-.22l-1.6-.17a2.6,2.6,0,0,1-.41-.06l-.94-.14a40,40,0,0,1-5.84-1.4c-.43-.14-.85-.29-1.28-.45l-.66-.25L94,680c-.45-.18.23.11,0,0-.79-.35-1.58-.73-2.34-1.15a23.05,23.05,0,0,1-2.1-1.32l-.51-.37c-.38-.27.31.26,0,0s-.68-.55-1-.85a17.85,17.85,0,0,1-1.6-1.65c-.11-.12-.21-.25-.32-.38l-.21-.26s.3.4.14.17-.45-.63-.66-1a20.07,20.07,0,0,1-1.12-2c0-.08-.27-.58-.11-.23s-.09-.21-.13-.32c-.13-.36-.26-.73-.38-1.11a21.3,21.3,0,0,1-.54-2.23l-.09-.6c.06.41,0,.27,0,0s-.08-.83-.1-1.25a22.38,22.38,0,0,1,0-2.59c0-.41.07-.83.11-1.24.06-.61,0,.24,0-.22,0-.23.07-.46.11-.69a34.07,34.07,0,0,1,1.54-5.68,41.43,41.43,0,0,1,2.56-5.62,73.49,73.49,0,0,1,9.16-13.06,136.53,136.53,0,0,1,14.59-14.37q4.53-3.87,9.31-7.46a14.73,14.73,0,0,1,2.16-1.58,22.34,22.34,0,0,1,2.31-.77c1.46-.5,2.9-1,4.34-1.61a123.92,123.92,0,0,0,31.67-18.91c9.41-7.54,17.94-16.09,26.26-24.79s16.52-17.69,25.23-26.08c8.42-8.11,17.38-15.7,27.42-21.73a97.7,97.7,0,0,1,15.18-7.49,2.58,2.58,0,0,0,1.75-3.08,2.52,2.52,0,0,0-3.08-1.74Z"/><path class="cls-15" d="M232.79,616.91c6.52,56.4-95.34,110-38.42,170.92,15.32,4.56,24.62-22.78,40.16-26.14,23.07,2.9,49,24.74,64.88-8.26C323.86,690.76,280,621,304.65,558.09c-39.72-64.63-92.18,48.62-81.41,90.85"/><path class="cls-16" d="M230.29,616.91c1.09,9.64-.87,18.42-4.51,27.5-.47,1.18-.71,1.75-1.29,3s-1.07,2.36-1.64,3.52c-1.15,2.33-2.37,4.63-3.64,6.9-2.65,4.75-5.53,9.37-8.49,13.93-6,9.28-12.41,18.33-18.27,27.72-5.64,9-10.87,18.46-14.31,28.58-3.25,9.56-4.56,19.72-2.79,29.71,2,11.45,8.19,21.67,15.85,30.26a9.2,9.2,0,0,0,1.91,1.93,6.79,6.79,0,0,0,2.27.63,14.09,14.09,0,0,0,3.78.14,17.45,17.45,0,0,0,7.18-2.55c4.72-2.91,8.45-7.23,12.15-11.29s7.43-8.3,12-10.95a15.3,15.3,0,0,1,3.13-1.44c.28-.09.56-.18.85-.25a1.48,1.48,0,0,0,.36-.1c.36-.19-.66-.19-.27,0a8.61,8.61,0,0,0,2.06.34,79.75,79.75,0,0,1,8.36,2.08c10.51,3.13,21.52,8.27,32.75,7.23A25.49,25.49,0,0,0,293,767a37.26,37.26,0,0,0,6.49-8.34,52.78,52.78,0,0,0,4.71-11.27c4.71-15,5.92-30.91,5.29-46.57-.64-15.93-3.05-31.72-5.34-47.48s-4.49-31.32-4.74-47.14c-.24-15.62,1.61-31.26,7.11-46,.44-1.18,1-2.23.33-3.45a21.58,21.58,0,0,0-1.2-1.89c-.77-1.18-1.57-2.34-2.41-3.46a57.53,57.53,0,0,0-5.05-6A33.3,33.3,0,0,0,288,538.25c-7.09-3.1-14.64-2.57-21.55.73-7.46,3.56-13.56,9.75-18.57,16.19a125.11,125.11,0,0,0-15.17,25.73,163.73,163.73,0,0,0-10.13,29.69,107.33,107.33,0,0,0-3.23,27.69,53.39,53.39,0,0,0,1.48,11.33c.78,3.12,5.61,1.8,4.82-1.33-.26-1-.49-2.1-.67-3.16,0-.28-.09-.56-.13-.83s-.15-1-.06-.37c-.07-.57-.14-1.15-.19-1.72a65.29,65.29,0,0,1-.28-7.4c0-2.68.22-5.37.5-8,.07-.7.15-1.39.24-2.09.13-1,.08-.69.23-1.69.21-1.45.45-2.88.71-4.32a150,150,0,0,1,4.44-17.84q1.42-4.53,3.11-9c1.16-3.08,2.19-5.57,3.48-8.43a137.48,137.48,0,0,1,8.62-16.33q2.29-3.71,4.88-7.21l.64-.85.35-.46c-.06.08-.26.34,0-.05s.85-1.08,1.29-1.61c.86-1,1.74-2.06,2.64-3a61,61,0,0,1,5.48-5.31c.46-.39.93-.77,1.4-1.15.08-.07.37-.29,0,0l.32-.24.79-.58c.93-.67,1.88-1.3,2.87-1.89a32.18,32.18,0,0,1,2.9-1.54l.74-.33c.34-.16-.58.23,0,0l.33-.13q.74-.29,1.47-.54a25.6,25.6,0,0,1,3-.78l.74-.13.42-.06c-.06,0-.61.06-.17,0s1-.1,1.5-.12a20.18,20.18,0,0,1,3,.07c.1,0,.91.12.5.06l.51.08c.51.1,1,.21,1.51.33a24.17,24.17,0,0,1,3,1c-.64-.26.21.1.33.16l.75.36c.51.26,1,.54,1.51.83s1,.62,1.5,1l.66.47c.14.1.92.69.5.36a36.73,36.73,0,0,1,3,2.6,49.34,49.34,0,0,1,5.65,6.59c1,1.42,2,2.88,2.88,4.36l-.25-1.93c-8.91,22.87-8.94,47.67-6.34,71.74,2.64,24.31,7.75,48.39,8.59,72.88a139.26,139.26,0,0,1-2.83,35.4c-2.27,10.13-5.78,22-14.68,28a20.12,20.12,0,0,1-10.55,3.46,38.43,38.43,0,0,1-11.67-1.46c-8.58-2.15-16.77-5.68-25.44-7.49-1-.21-2-.4-3-.55a7.89,7.89,0,0,0-3.89.24,22.64,22.64,0,0,0-5.56,2.68,54.38,54.38,0,0,0-9.8,8.76c-2.93,3.15-5.72,6.44-8.88,9.37-2.7,2.51-5.38,4.51-8.89,5.25l-.44.07c.58-.08-.17,0-.24,0-.46,0-.91,0-1.37,0l-.47,0c-.76-.06.49.11-.28,0-.48-.09-1-.2-1.44-.34l1.11.64A69,69,0,0,1,184,768.69a49.3,49.3,0,0,1-4.39-16.48c-.83-11.36,2.54-22.5,7.33-32.61,5.48-11.58,12.68-22.25,19.8-32.86s14.25-21,19.92-32.32c5.19-10.37,9.19-21.74,8.88-33.48,0-1.35-.13-2.7-.29-4a2.57,2.57,0,0,0-2.5-2.5,2.52,2.52,0,0,0-2.5,2.5Z"/></g></g></svg>