<svg id="Prior_to_November" data-name="Prior to November" xmlns="http://www.w3.org/2000/svg" xmlns:xlink="http://www.w3.org/1999/xlink" viewBox="0 0 800 800"><defs><style>.cls-1{fill:none;}.cls-2{fill:#dfdfdf;}.cls-3{clip-path:url(#clip-path);}.cls-4{fill:#fff;}.cls-5{clip-path:url(#clip-path-2);}.cls-6{fill:#cbcbca;}.cls-7{clip-path:url(#clip-path-3);}.cls-8{fill:#333;}</style><clipPath id="clip-path"><path class="cls-1" d="M683.27,524.34C709.73,136.86,159-60.58,105,226.7c-6.48,69.78-33.48,207.9-38.37,255.47-1.17,11.32,8.7,17.67,15.27,27,205,290.05,477.61,269.94,601.42,15.19"/></clipPath><clipPath id="clip-path-2"><path class="cls-1" d="M148.32,107.87C141.58,252.25,202,488.12,271,623.17c73.5,143.69,463.51,113.68,398.65-251.8C705,388.28,907,672.7,459.79,765.37c-23,4.76-43.52,17.4-66.66,21.25-70.41,11.72-142.34,9.79-213.64,6.26C126.28,790.24,72.38,786.59,22,769.41-21.8,754.5,23.1,741.18-7,706.12s18.89-107.49,17.88-153.7C10,513.5,4.28,469.44,22.45,435c33.23-62.95-47.64-93,17.73-121.18,26.4-11.36,9.83-4.65,36,7.26"/></clipPath><clipPath id="clip-path-3"><path class="cls-1" d="M627.93,280.39c29.34-22.74,33.33-33.1,66.15-51.33,6.65-3.44,13.61-7.27,20.8-10.63,23.66-11.08,52-.75,62.47,23.19C800.71,295,739.81,445.25,713,493.53"/></clipPath></defs><g id="hold_asparagus" data-name="hold asparagus"><g id="ghostie2"><path class="cls-2" d="M133.85,211.5a4.59,4.59,0,0,0,.11-.84C188.51-76,738.65,121.44,712.21,508.72L712.9,491c1.32,55.1-24.75,108.54-63,148.19S562,705.91,510.62,725.87a653.54,653.54,0,0,1-69.33,22.56c-100.63,26.65-210.94,28.11-306-14.45C103.4,719.68,31.15,697.43,22.53,633a8.59,8.59,0,0,1,12.53-8.68c16.71,8.77,40,17,49.2,10.61,19.36-13.43,23.91-74.66,23.83-89.41C108,524,105.75,283.85,133.85,211.5Z"/><g class="cls-3"><path class="cls-4" d="M210.11,595.88c-4.47,145.21,326.65,201.69,454.74-37.18,18.42-34.37,18.42-34.36,40.8-125.75,13.1-53.53-16.52-122.46-69.07-204.43-55.52-86.6-245-142.36-330.28-110.17-17.49,6.59-53.66,33-59.38,85.2-5.07,46.3,13.86,103.39,20,155.89,5.51,47.19-1.79,91.26-4.51,110.66C256.3,513.54,211.21,560.14,210.11,595.88Z"/></g><g class="cls-5"><path class="cls-6" d="M133.85,211.5a4.59,4.59,0,0,0,.11-.84C188.51-76,738.65,121.44,712.21,508.72L712.9,491c1.32,55.1-24.75,108.54-63,148.19S562,705.91,510.62,725.87a653.54,653.54,0,0,1-69.33,22.56c-100.63,26.65-210.94,28.11-306-14.45C103.4,719.68,31.15,697.43,22.53,633a8.59,8.59,0,0,1,12.53-8.68c16.71,8.77,40,17,49.2,10.61,19.36-13.43,23.91-74.66,23.83-89.41C108,524,105.75,283.85,133.85,211.5Z"/></g><path class="cls-2" d="M627.93,280.39c29.34-22.74,33.33-33.1,66.15-51.33,6.65-3.44,13.61-7.27,20.8-10.63,23.66-11.08,52-.75,62.47,23.19C800.71,295,739.81,445.25,713,493.53"/><path class="cls-2" d="M181.29,587.79C-8.79,545.86,17.44,411.23,32.39,379.23c3.52-7.53,34.5-25.68,52.44-17.17,28.94,13.73,72.52,56.48,76.42,61.1,7.26,8.59,40.45,36.37,59.37,51.42l-3.5,39.77"/><path class="cls-6" d="M220.53,500.59C132.28,520.06,66.34,478.11,31.84,397.37c-21.28,53.2-4.59,119.21,39.43,155.89,17.76,14.81,39,24.87,60.47,33.38,14.54,5.75,25.29,20.28,40.42,16.3,8.88-2.33,42-8.34,48.46-14.84,17-17,0-55.4-.09-87.51"/><g class="cls-7"><path class="cls-6" d="M726.82,464.37a713.65,713.65,0,0,0,53.73-151.5c-9.66.46-19.19,2.26-28.68,4.06L632.48,339.54c-6.43,16.65.59,35.28,8.61,51.23,8.63,17.19,18.66,33.91,32.15,47.61s25.21,52.29,44.22,55.15"/></g><circle class="cls-8" cx="197.18" cy="355.77" r="49.58"/><path class="cls-8" d="M390.5,390.53c-.07-27.24,0-55.36,10.71-80.42s34.89-46.46,62.1-45.09c22.26,1.13,41.19,16.75,55.2,34.08,22.68,28,37.26,66.33,25.43,100.41-13.34,38.39-59.58,59.94-99.12,50.5-26.77-6.39-58.54-32.28-54.32-59.48"/><path class="cls-4" d="M373.92,296l43.23,26.34L429.58,277c.25-.91.59-1.94,1.47-2.3a3.17,3.17,0,0,1,2.5.4L491,302l.39-27.94c.2-14.15,0-29.62-9-40.55-8.16-9.94-21.74-13.67-34.57-14.43-17.75-1-36,2.68-51.14,11.93s-27.08,24.22-31.28,41.49c-1.64,6.72-2.07,14,.55,20.39s8.88,11.62,15.79,11.47"/></g></g></svg>