<svg id="Prior_to_November" data-name="Prior to November" xmlns="http://www.w3.org/2000/svg" xmlns:xlink="http://www.w3.org/1999/xlink" viewBox="0 0 800 800"><defs><style>.cls-1,.cls-13{fill:none;}.cls-10,.cls-2{fill:#ec3868;}.cls-13,.cls-2{stroke:#2f152f;stroke-width:3px;}.cls-13,.cls-18,.cls-2{stroke-miterlimit:10;}.cls-3{fill:#558b9c;}.cls-4{fill:#54899b;}.cls-5{clip-path:url(#clip-path);}.cls-6{fill:#e7e7e8;}.cls-7{fill:#2f152f;}.cls-8{opacity:0.93;}.cls-9{fill:#fff;}.cls-11{clip-path:url(#clip-path-2);}.cls-12{fill:#e22228;}.cls-14{clip-path:url(#clip-path-3);}.cls-15{clip-path:url(#clip-path-5);}.cls-16{fill:#e5e6e6;}.cls-17{clip-path:url(#clip-path-6);}.cls-18{fill:#221c1f;stroke:#fff;}</style><clipPath id="clip-path"><path class="cls-1" d="M30.49,741.6C-1.11,278.75,656.72,42.9,721.32,386.06c5.81,62.56,37.17,220.94,45.84,305.17,1.39,13.53-8.18,23.07-18.24,32.21C618.81,837.12,138.57,780.55,30.49,741.6"/></clipPath><clipPath id="clip-path-2"><path class="cls-2" d="M1201.56,1105c-167.06-547-671.59,56-116,434.66,5.72,3.9,58.38-3.07,65.15-4.17,726-117.39,384.32-835.29,50.81-430.49"/></clipPath><clipPath id="clip-path-3"><path class="cls-1" d="M-59.06,693c-10.08-120.09-23-241.51-64.87-354.51-16.72-45.08-38.75-89.56-74-122.28-46.86-43.51-114.19-61.83-177.75-54.79s-123.14,37.82-170.73,80.53c-37.41,33.59-67.83,74.24-95.36,116.31-63,96.27-112.44,202.36-136.53,314.86-2.8,13.06-5,27.69,2.17,39,7.86,12.36,23.92,16.06,38.36,18.49,183.78,31,647.05-8.92,678.7-25.53"/></clipPath><clipPath id="clip-path-5"><path class="cls-1" d="M40.85-110.09C10.22-717,647.92-1026.21,710.55-576.26,718.06-467,749.32-250.63,755-176.13c1.35,17.74-7.93,30.24-17.68,42.24C611.17,15.16,145.63-59,40.85-110.09"/></clipPath><clipPath id="clip-path-6"><path class="cls-1" d="M40.85-114c-30.63-606.88,607.07-916.13,669.7-466.18C718.06-470.88,749.32-254.54,755-180c1.35,17.73-7.93,30.24-17.68,42.23C611.17,11.24,145.63-62.94,40.85-114"/></clipPath></defs><g id="hold_asparagus" data-name="hold asparagus"><g id="sadreach"><g id="weh"><path class="cls-3" d="M53.84,738.61c-17-58.49-68.37-225.43-31.41-274.74,10.34-13.8,23.66-26.09,40.05-31.43,25.83-8.41,54.81,2.2,75.23,20.11s34,42.17,47.15,65.93"/><path class="cls-4" d="M53.84,738.61C176.92,272.18,534.4-35.11,705.8,382.37c31.79,77.44,78.86,249.06,84.71,305.88,1.39,13.52-8.18,23.06-18.24,32.21-130.12,113.67-610.35,57.1-718.43,18.15"/><g class="cls-5"><path class="cls-6" d="M95,694.23c19.5-75.17,42.68-133.39,76.74-202.89S378.25,135.22,549.88,390.42c24.69,36.71,32.27,82.61,40.55,126.39,12.84,67.87,23.44,137.75,11.8,205.84-.63,3.68-1.42,7.56-3.87,10.33s-5.77,3.83-9.07,4.91c-124.54,40.77,97.78,89.7-32.54,79.15-17.19-1.39-389.95-45.21-406.63-49.7-9.94-2.67-15.93,23.94-23.8,17.17C113,773.06,81.83,773.14,76.9,756.06"/><path class="cls-3" d="M467.68,810a601.64,601.64,0,0,1-9.34-186.63c2.3-21.56,6.12-43.88,18.73-61.52s36.39-29,56.56-21.07c15.86,6.27,25.39,22.17,33.9,37q51.53,89.46,109.9,174.76"/></g><path class="cls-7" d="M717.8,599.62c15.57-66,29.21-101.6-33.94-90.92A68.73,68.73,0,0,0,630,554.63c-19.55,59.15,21,98.69,72,106.22C732.83,665.4,701.18,670,717.8,599.62Z"/></g><g id="Layer_54" data-name="Layer 54"><path class="cls-7" d="M215.28,502.24c32.77-34,43.14-22.87,62.38,16.24,20.54,20,42.7-27.07,60.56-15.2,16.71,6.52,25.15,54.21,37.11,54.89,8.29.47,34.17-76.74,59.09-8.06,7.3,20.13,2.88,7.22,12.28-10.13s-.07-43.46-9.61-60.73c-35.68-60.78-270.44-91.58-229.31,24.64"/></g><g class="cls-8"><path class="cls-9" d="M631.25,597.93c4.41-1.14,8.86,2,11.55,5.64s4.4,8.06,7.49,11.4a7.35,7.35,0,0,0,3.45,2.3c2,.48,4-.39,6-.79,4.61-.92,9.48.75,13.12,3.72a29.1,29.1,0,0,1,8,11.45c2.09,5,3.34,10.51,2.21,15.78s-5.08,10.18-10.36,11.26c-7,1.43-13.48-3.82-18.68-8.74-7.44-7-14.91-14.25-20-23.14s-7.51-19.78-4.24-29.47"/></g></g><g id="heart"><path class="cls-10" d="M1201.56,1105c-167.06-547-671.59,56-116,434.66,5.72,3.9,58.38-3.07,65.15-4.17,726-117.39,384.32-835.29,50.81-430.49"/><g class="cls-11"><path class="cls-12" d="M661.84,914.27c5.46-36.46,11.11-72.89,16.21-109.39.85-6.06,2.28-7,8.32-6.14Q994.62,845.26,1303,891.33q249.19,37.35,498.42,74.53c6.05.9,7.12,2.27,6.16,8.31-5.83,36.4-11.11,72.88-16.57,109.34-2.83,2.71-6.28,3-10,2.69-4.74-.47-9.44-1.18-14.14-1.88q-541.11-81.1-1082.22-162.21c-4.7-.71-9.4-1.4-14.07-2.35C666.94,919,663.75,917.7,661.84,914.27Z"/></g><path class="cls-13" d="M1201.56,1105c-167.06-547-671.59,56-116,434.66,5.72,3.9,58.38-3.07,65.15-4.17,726-117.39,384.32-835.29,50.81-430.49"/></g><g id="shock"><g id="Layer_25" data-name="Layer 25"><g class="cls-14"><path class="cls-6" d="M-650.48,747.42C-614.94,675.13-573.07,605-516.8,547.33S-388.66,445-309.24,431.57c31.1-5.26,62.81-5.71,94.33-4.89,28.76.74,58.06,2.64,84.86,13.11,30.31,11.84,55.45,33.89,78.39,57,17.3,17.41,34.08,36.18,43.37,58.9,10.61,26,10.58,55.13,6.38,82.86-3.26,21.52-9,42.91-19.77,61.83-25.6,45.1-75.73,70.42-125.24,85.81-86.82,27-178.92,31.15-269.83,32.62-54.23.88-109,.82-162-10.4-16.7-3.53-33.59-8.35-47.28-18.55s-23.69-26.75-22-43.73"/></g><g class="cls-14"><path class="cls-3" d="M-173.55,777c-20.51-49.27-33.1-208.36,2.87-222.33,65.17-25.32,183.22,113.41,183.86,114.72"/><path class="cls-7" d="M-87.23,266.44c-9.58-.52-19.44,1.26-27.68,6.17-18.84,11.24-25,35.52-26.46,57.41.9-13.29-2.39,28.68,7.64,45.17,8.49,14,24.18,22.32,40.21,25.5C-51.52,409-5.47,381.43,7,340.47c7.35-24.14,2.63-53.09-16.34-69.71-10.51-9.21-24.22-13.91-37.87-16.86-14.22-3.07-29.23-4.43-43.2-.35S-117.16,268-121,282"/></g></g></g></g><g id="sir"><g class="cls-15"><path class="cls-16" d="M609.41-20.77c169.33,166.46-125.57,180.23-334.9,180.23s-366.77-230-379-512.65C-116-619.48-1924.72,2067.94,94.93-573.4c85.64-112,273.1-209.1,379-166.46,20.75,8.35,65.57,45.65,72.2,127.35C552-540,530.1-450.58,523-368.35c-6.38,73.92,2.07,142.94,5.22,173.31C535.28-127,575.91-53.7,609.41-20.77Z"/></g><g class="cls-17"><path class="cls-18" d="M99.69-321.51c-3.15-2.83-5.54,6.35-7.36,10.18A755.68,755.68,0,0,0,23.62-68.87c-1.24,11.41-2.18,23.23,1.46,34.11C29.8-20.64,41.55-10.08,53.71-1.5c50.36,35.55,113.75,47.74,175.36,49.81s123.21-5,184.84-3.91c55.43,1,112.54,8.45,165.1-9.18q-25.23-98.71-50.48-197.43c-6.76-26.47-13.64-53.23-26.54-77.3C343.88-235.31,248.8-187.73,99.69-321.51Z"/></g></g></svg>