<svg id="Prior_to_November" data-name="Prior to November" xmlns="http://www.w3.org/2000/svg" xmlns:xlink="http://www.w3.org/1999/xlink" viewBox="0 0 800 800"><defs><style>.cls-1{fill:none;}.cls-2{clip-path:url(#clip-path);}.cls-3{fill:#e7e7e8;}.cls-4{fill:#5752a2;}.cls-5{fill:#e4e3e8;}.cls-6{fill:#e7e5e5;}.cls-7{fill:#578c9b;}.cls-8{fill:#2f152f;}.cls-9{fill:#ea9564;}.cls-10{clip-path:url(#clip-path-2);}.cls-11{fill:#e5e6e6;}.cls-12{clip-path:url(#clip-path-3);}.cls-13{fill:#221c1f;stroke:#fff;stroke-miterlimit:10;}</style><clipPath id="clip-path"><path class="cls-1" d="M-703.23-61.27C-503.66-23.06-236.3,20.3-68.67-119.11c15-24.48,15.07-56.49,7.49-84.33C-168.37-597-104.39-725-241.08-787.74c-210.83-92.7-431.73,116.29-506.06,307.48"/></clipPath><clipPath id="clip-path-2"><path class="cls-1" d="M34.42-112.58C3.79-719.46,641.49-1028.7,704.11-578.75c7.51,109.3,38.77,325.63,44.44,400.13,1.35,17.74-7.93,30.24-17.68,42.24-126.14,149-591.68,74.87-696.45,23.8"/></clipPath><clipPath id="clip-path-3"><path class="cls-1" d="M34.42-116.49C3.79-723.37,641.49-1032.62,704.11-582.67c7.51,109.3,38.77,325.64,44.44,400.14,1.35,17.73-7.93,30.23-17.68,42.23C604.73,8.75,139.19-65.43,34.42-116.49"/></clipPath></defs><g id="Layer_128" data-name="Layer 128"><g class="cls-2"><path class="cls-3" d="M-499-88.37c-46.93-159-32.42-338.22,39.46-487.38,18.13-37.62,41.39-75,76.64-94.33A141.92,141.92,0,0,1-347-683.29c60.95-14.32,130.19,3.78,169.61,54.94,27.79,36.05,38.42,83.64,45.57,129.86,3.08,19.86,5.68,39.86,10.51,59.3,5.25,21.14,13.1,41.42,21.6,61.29A909.78,909.78,0,0,0-7.09-211.7C9.4-188.32,28-162,23.93-132.93,21.85-118,13.88-104.65,4.76-93-34.76-42.68-96-18.27-156-4.2A678.68,678.68,0,0,1-337.43,13.31c-35.88-1.4-72.64-6-104.27-23.87s-57.41-51.53-58.54-89.88"/></g></g><g id="Layer_176" data-name="Layer 176"><path class="cls-4" d="M739.81,714.79c1.05-14.95,2.55-29.88,3.05-44.84.53-15.68.62-31.41-.05-47.07-.6-13.92-2.19-27.82-3.93-41.65-1.94-15.54-4.53-31-6.85-46.49-2.35-15.65-4.61-31.32-7.09-46.95-2.17-13.68-4.81-27.28-6.84-41-1.68-11.32-2.83-22.73-4.12-34.12-1.71-15.14-3.16-30.31-5-45.43-1.78-14.42-3-29-6.24-43.12a299.15,299.15,0,0,0-13.57-42.53c-8.5-21.49-21.42-40.61-35.7-58.6-18.17-22.91-38.19-44.25-62.62-60.65A159.3,159.3,0,0,0,533,138.63,212.08,212.08,0,0,0,477.86,135c-14.3.85-28.56,3.28-42.68,5.88-21,3.88-41,11.26-60,21-16.72,8.53-32.57,18.55-46.76,31-7.66,6.73-15.8,13-22.95,20.21a328.6,328.6,0,0,0-25.71,28.74c-10.71,13.73-20.64,28.1-30.59,42.41-11.9,17.09-23.13,34.65-35.27,51.57-10.84,15.12-22.77,29.46-33.75,44.49-10.28,14.06-19.64,28.8-30,42.81-8,10.79-16.6,21.1-25.35,31.28-6.26,7.28-13.11,14.06-19.84,20.93-7.85,8-16,15.76-23.76,23.86A229.39,229.39,0,0,0,44.6,549.3c-7.67,14.23-12.5,28.89-12.67,45.1-.16,15.1-1.15,30.21-.81,45.28.34,15.31,1.77,30.59,2.88,45.88.87,12,1.82,23.92,3.07,35.85.37,3.47,1.89,6.82,2.88,10.22,3.82-1.38,7,0,10.28,2,17.88,10.92,37.11,18.71,57.28,24.27,34.49,9.51,70,10.31,105.36,11.63,17.61.66,35.29-.26,52.93-.53q29-.43,57.94-1c18.31-.35,36.63-.48,54.92-1.22,22.54-.92,44.83-4,65.76-12.83a284.73,284.73,0,0,0,32-16.34c17-9.84,17.28-27,17.2-43.57-.08-15.93-1.51-31.87-2.65-47.78-.21-3-1.1-6.44-3-8.55a136.67,136.67,0,0,0-16.32-16.05c-15.87-12.8-34.27-21-53.2-28.13-26.64-10-53.63-19.11-79.89-30-23.48-9.74-44.28-23.91-59.36-45.06C256.7,486.88,247,451.81,252.34,413.24c3.68-26.69,14.71-50.7,29.69-72.93,16.42-24.38,37.07-44.78,59.5-63.6,36-30.23,76.5-48.06,124.34-48.17,32.29-.08,62.39,6.72,90,23.53,42.34,25.74,70.35,63.71,89.87,108.18,16,36.49,11.12,72.91-4.36,108.46-13.16,30.23-34.57,53.68-60.08,74.1a614.59,614.59,0,0,0-48.16,42.62c-12.78,12.63-18.9,29-20.41,47.15A184.88,184.88,0,0,0,514,675.35c1.73,11.64,2,23.65,5.17,34.9,6.32,22.85,20,40.33,43.93,46.16C586,762,609.28,766,632.53,769.78c16.26,2.67,32.68,1.64,48.26-4.19,21.35-8,38.13-21,44.53-44.25,1.12-4.08,4.25-6.3,8.49-6.62C735.8,714.58,737.81,714.76,739.81,714.79Z"/><path class="cls-5" d="M744.74,731.36a72.25,72.25,0,0,1-24.5,39.75c-18.28,15.31-39.43,22.62-63,23.63-6.82.29-13.69.3-20.51,0-8.52-.41-17.14-.63-25.5-2.11-16.08-2.84-32.11-6.09-48-10-16.78-4.1-32.15-11.39-44.11-24.3-4.7-5.08-8.49-11-12.75-16.63a62.28,62.28,0,0,1-5.06,6.1c-15.05,14.14-33.36,22.61-52.31,30-26.36,10.3-54.15,12.24-81.93,13.85-16.21.94-32.49.87-48.75,1.09q-43.62.6-87.24,1c-4.92,0-9.84-.76-14.77-.92-12.75-.42-25.52-.41-38.25-1.12a268.09,268.09,0,0,1-30.76-3.06c-20.83-3.6-41.46-8.29-61.28-15.89A165.65,165.65,0,0,1,39.6,746.05c-5-4.14-6.56-9.52.35-14.42,3.82-1.38,7,0,10.28,2,17.88,10.92,37.11,18.71,57.28,24.27,34.49,9.51,70,10.31,105.36,11.63,17.61.66,35.29-.26,52.93-.53q29-.43,57.94-1c18.31-.35,36.63-.48,54.92-1.22,22.54-.92,44.83-4,65.76-12.83a284.73,284.73,0,0,0,32-16.34c17-9.84,17.28-27,17.2-43.57-.08-15.93-1.51-31.87-2.65-47.78-.21-3-1.1-6.44-3-8.55a136.67,136.67,0,0,0-16.32-16.05c-15.87-12.8-34.27-21-53.2-28.13-26.64-10-53.63-19.11-79.89-30-23.48-9.74-44.28-23.91-59.36-45.06C256.7,486.88,247,451.81,252.34,413.24c3.68-26.69,14.71-50.7,29.69-72.93,16.42-24.38,37.07-44.78,59.5-63.6,36-30.23,76.5-48.06,124.34-48.17,32.29-.08,62.39,6.72,90,23.53,42.34,25.74,70.35,63.71,89.87,108.18,16,36.49,11.12,72.91-4.36,108.46-13.16,30.23-34.57,53.68-60.08,74.1a614.59,614.59,0,0,0-48.16,42.62c-12.78,12.63-18.9,29-20.41,47.15A184.88,184.88,0,0,0,514,675.35c1.73,11.64,2,23.65,5.17,34.9,6.32,22.85,20,40.33,43.93,46.16C586,762,609.28,766,632.53,769.78c16.26,2.67,32.68,1.64,48.26-4.19,21.35-8,38.13-21,44.53-44.25,1.12-4.08,4.25-6.3,8.49-6.62,2-.14,4,0,6,.07C744.94,718.4,746.53,723.92,744.74,731.36ZM275.09,460.49C282,487.54,294.82,511,317.79,528c1.59,1.18,3.33,2.16,5,3.24,12.22,6.29,24,13.57,36.75,18.66C379.7,558,400.45,564.6,421,571.83l12.24,3.88c4.26,2.19,8.47,4.5,12.79,6.55,17.34,8.2,34,17.37,47.92,30.85,3.54-7.85,6.65-15.64,10.47-23.06,8.27-16.09,21.07-28.44,34.48-40.18,16.6-14.54,34.33-28,49.68-43.69,20.7-21.21,33.53-47.27,39.38-76.53a11,11,0,0,0,0-2l1.95-25.48a76.35,76.35,0,0,0-10.26-38.6c-8.8-15.6-17.68-31.35-28.37-45.66-24.64-33-56.85-54.84-97.82-63.19-25.76-5.26-50.88-3-75.72,4.33-25.35,7.49-46.5,22.55-67,38.54-2.46,1.92-4.62,4.24-6.92,6.37-9.9,9.76-20.44,19-29.56,29.41-18.08,20.73-31.93,44-38.68,71-.28,1.11-.36,2.27-.54,3.41A103.21,103.21,0,0,0,275.09,460.49Z"/><path class="cls-6" d="M629.9,402.18a76.35,76.35,0,0,0-10.26-38.6c-8.8-15.6-17.68-31.35-28.37-45.66-24.64-33-56.85-54.84-97.82-63.19-25.76-5.26-50.88-3-75.72,4.33-25.35,7.49-46.5,22.55-67,38.54-2.46,1.92-4.62,4.24-6.92,6.37a88.23,88.23,0,0,0,.81,8.92c8.68,45.77,20.4,90.79,36.32,134.54,11.78,32.38,25.35,64.11,38.11,96.12l1,2.28,0-.08,1,2.08,0-.07q5.28,10.77,10.54,21.55c-.18.48-.34,1-.51,1.44q1.11,2.47,2.24,5c4.26,2.19,8.47,4.5,12.79,6.55,17.34,8.2,34,17.37,47.92,30.85,3.54-7.85,6.65-15.64,10.47-23.06,8.27-16.09,21.07-28.44,34.48-40.18,16.6-14.54,34.33-28,49.68-43.69,20.7-21.21,33.53-47.27,39.38-76.53a11,11,0,0,0,0-2c-24.53-4.3-49.07-8.51-73.57-13-3.92-.71-6.56-.51-9.45,2.84C530.66,434,516,450.14,501.57,466.45c-7.45,8.4-14.46,8.62-22.49.7q-30.42-30-60.9-59.92c-8.07-8-16.18-15.87-24.11-24A12.46,12.46,0,0,1,392,367.7c2.6-4.56,8.46-7.53,13.69-5.68,3.57,1.26,6.89,3.91,9.66,6.62,24.77,24.22,49.39,48.59,74.21,73.08,12.8-14.38,25.73-28.48,38.15-43,7.54-8.82,16.51-11.48,27.63-9.48C580.16,393.69,605,397.88,629.9,402.18Z"/><path class="cls-7" d="M419,543.55c-12.76-32-26.33-63.74-38.11-96.12-15.92-43.75-27.64-88.77-36.32-134.54a88.23,88.23,0,0,1-.81-8.92c-9.9,9.76-20.44,19-29.56,29.41-18.08,20.73-31.93,44-38.68,71-.28,1.11-.36,2.27-.54,3.41,4.86.39,8.89,2.19,11.93,6.26s6.46,7.61,9.46,11.59c15.14,20,27.62,41.55,33.95,66,3.65,14.1,2.13,27.73-7.55,39.54,12.22,6.29,24,13.57,36.75,18.66C379.7,558,400.45,564.6,421,571.83l7.92-1.09c-1-2.59-1.84-4.57-2.53-6.61-1.84-5.45-3.62-10.91-5.42-16.37l0,.07-1-2.08,0,.08Z"/><path class="cls-8" d="M629.9,402.18c-24.86-4.3-49.74-8.49-74.56-13-11.12-2-20.09.66-27.63,9.48-12.42,14.54-25.35,28.64-38.15,43-24.82-24.49-49.44-48.86-74.21-73.08-2.77-2.71-6.09-5.36-9.66-6.62-5.23-1.85-11.09,1.12-13.69,5.68a12.46,12.46,0,0,0,2.07,15.57c7.93,8.09,16,16,24.11,24q30.44,30,60.9,59.92c8,7.92,15,7.7,22.49-.7C516,450.14,530.66,434,544.93,417.51c2.89-3.35,5.53-3.55,9.45-2.84,24.5,4.48,49,8.69,73.57,13Z"/><path class="cls-8" d="M322.79,531.25c9.68-11.81,11.2-25.44,7.55-39.54-6.33-24.49-18.81-46-33.95-66-3-4-6.49-7.6-9.46-11.59s-7.07-5.87-11.93-6.26a103.21,103.21,0,0,0,.09,52.67C282,487.54,294.82,511,317.79,528,319.38,529.19,321.12,530.17,322.79,531.25Z"/><path class="cls-7" d="M420.92,547.76c1.8,5.46,3.58,10.92,5.42,16.37.69,2,1.53,4,2.53,6.61L421,571.83l12.24,3.88q-1.12-2.49-2.24-5l.08.07c-.14,0-.4-.08-.4-.12a4.76,4.76,0,0,1,.11-.64l.72-.75Q426.2,558.53,420.92,547.76Z"/><path class="cls-9" d="M419,543.55l1,2.28Z"/><path class="cls-9" d="M419.94,545.75l1,2.08Z"/><path class="cls-9" d="M431,570.75c.17-.48.33-1,.51-1.44l-.72.75a1.26,1.26,0,0,0,.29.76Z"/><path class="cls-6" d="M431,570.82a1.26,1.26,0,0,1-.29-.76,4.76,4.76,0,0,0-.11.64S430.89,570.78,431,570.82Z"/></g><g id="sir"><g id="Layer_131" data-name="Layer 131"><g class="cls-10"><path class="cls-11" d="M603-23.26C772.3,143.2,477.41,157,268.08,157S-98.7-73-110.94-355.68C-122.48-622-1931.15,2065.44,88.5-575.89c85.63-112,273.1-209.11,379-166.46C488.26-734,533.09-696.7,539.71-615c5.88,72.52-16.05,161.93-23.14,244.16-6.38,73.92,2.07,142.94,5.22,173.31C528.85-129.49,569.48-56.19,603-23.26Z"/></g><g class="cls-12"><path class="cls-13" d="M93.26-324c-3.16-2.83-5.54,6.35-7.36,10.17A755.55,755.55,0,0,0,17.19-71.36C16-59.95,15-48.13,18.65-37.25,23.37-23.14,35.12-12.57,47.28-4,97.64,31.56,161,43.75,222.63,45.82s123.21-5,184.85-3.91c55.43,1,112.54,8.45,165.1-9.18Q547.34-66,522.1-164.7c-6.77-26.47-13.65-53.23-26.54-77.3C337.44-237.8,242.37-190.22,93.26-324Z"/></g></g></g></svg>