<svg xmlns="http://www.w3.org/2000/svg" xmlns:xlink="http://www.w3.org/1999/xlink" viewBox="0 0 800 800"><defs><style>.cls-1{fill:none;}.cls-2{clip-path:url(#clip-path);}.cls-3{fill:#ef8f21;}.cls-4{fill:#54899b;}.cls-5{fill:#221f1f;}.cls-6{clip-path:url(#clip-path-2);}.cls-7{fill:#e5e6e6;}.cls-8{fill:#2f152f;}</style><clipPath id="clip-path"><path class="cls-1" d="M-50.24-86.15C-54-66.31-77.15-57.69-96.85-53.2A1091.79,1091.79,0,0,1-482.39-35.5c-52.68-7-111.43-22.47-136.92-69.1-14.61-26.71-15.1-58.56-15.82-89-2.19-92.69-6.75-163.22-19.53-255-1.33-9.51,47.58-81.78,54.86-88.94,64.35-63.38,122.53-63.32,212.4-54.3,85.43,8.58,171.92,35.77,234.93,94.1,69.23,64.08,102.71,158.64,116.23,252,9.31,64.23,16.54,102.36-14,159.62"/></clipPath><clipPath id="clip-path-2"><path class="cls-1" d="M645.51,762.77C536.62,784,8.61,780.36,3.61,745.41-7.29,587.43,72.43,221.28,224,162.59,488.69,58.68,799.31,640.18,645,762.86"/></clipPath></defs><g id="Prior_to_November" data-name="Prior to November"><g id="hold_asparagus" data-name="hold asparagus"><g id="Layer_171" data-name="Layer 171"><g class="cls-2"><path class="cls-3" d="M-547.59-20.07c149.46-37.47,127.48-218.16,129.74-335,53.44-215.73,301-221.58,403.07-37C354.9,179.27-524.2,208.33-547.59-20.07"/></g></g></g></g><g id="November_Orders" data-name="November Orders"><g id="Layer_219" data-name="Layer 219"><path class="cls-4" d="M645.51,762.77C536.62,784,8.61,780.36,3.61,745.41-7.29,587.43,72.43,221.28,224,162.59,488.69,58.68,799.31,640.18,645,762.86"/><path class="cls-5" d="M448.3,441.1c42.76-.64,89.68-161.19,121.38,1.5,17.1,87.73-147.84,79.4-147.63,3.69"/><g class="cls-6"><path class="cls-7" d="M2.62,676.39C172.49,463.07,47.49,207.16,316.9,246.63c56.91,9.23,69.71,82.69,72.34,129.36,11.09,139.1,64.17,294.88,168.33,385.11,4.3,7,80.26,22.55,78.57,30.56C502.63,910.8,235.9,812.37,62.45,818.15-4,799-23.81,761.28-12.64,706.76"/><path class="cls-5" d="M89.36,482.31A24.59,24.59,0,0,1,72,501.82a24.57,24.57,0,0,1-24.89-7.89,37.41,37.41,0,0,1-5.75-10.62,86.34,86.34,0,0,1,3.43-68.56c.78-1.57,1.77-3.26,3.45-3.8,1.42-.46,35.26,57.77,41.13,71.36"/></g><path class="cls-8" d="M177,407.92c.1-1,.22-2,.35-2.94l-.34,2.55a117.24,117.24,0,0,1,8.11-29.29l-1,2.29q2.54-6,5.63-11.74a83,83,0,0,1,6.63-11l-1.5,1.94a15.17,15.17,0,0,1,2.21-2.25l-1.93,1.5a10.82,10.82,0,0,1,2.16-1.31l-2.29,1a9.6,9.6,0,0,1,1.74-.5l-2.54.34a7.8,7.8,0,0,1,1.87,0l-2.54-.34a7,7,0,0,1,1.41.38l-2.29-1a6.55,6.55,0,0,1,1.11.67l-1.93-1.5a8.47,8.47,0,0,1,1.07,1.09l-1.5-1.93c2,2.54,3.49,5.46,5.19,8.17l5.67,9.09,11.34,18.17a9.72,9.72,0,0,0,8.27,4.74,9.52,9.52,0,0,0,8.26-4.74c7.32-10,10.52-22,15.24-33.3l-1,2.29a62.71,62.71,0,0,1,7.85-14l-1.5,1.93a48,48,0,0,1,8.52-8.46l-1.94,1.5c.66-.5,1.33-1,2-1.46l-7.37,1a21.09,21.09,0,0,1,4.87,1.35l-2.28-1a20.35,20.35,0,0,1,4.2,2.46l-1.94-1.5a26.7,26.7,0,0,1,4.56,4.64l-1.5-1.93a121.66,121.66,0,0,1,9.51,15.4A195,195,0,0,1,278.05,378l-1-2.29A183.17,183.17,0,0,1,287,406.64c1.11,4.89,7,8.23,11.78,6.69a9.79,9.79,0,0,0,6.68-11.78,197.18,197.18,0,0,0-24.6-59.69c-2.48-4-5.07-8.16-8.46-11.48a28.83,28.83,0,0,0-14.49-7.88,14.14,14.14,0,0,0-5.9-.13,8.37,8.37,0,0,0-3.31,1.68c-1.58,1.15-3.13,2.35-4.63,3.61a45.75,45.75,0,0,0-4.74,4.6,61.27,61.27,0,0,0-8.16,11.54c-4.55,8.41-7.25,17.65-10.94,26.44l1-2.28a67.58,67.58,0,0,1-7.56,13.71h16.53l-13.85-22.19-6.85-11a22.09,22.09,0,0,0-4.07-5.28,15.51,15.51,0,0,0-10-3.92A18.23,18.23,0,0,0,181.58,346a74.61,74.61,0,0,0-7.44,11.53,144.75,144.75,0,0,0-10.5,23.56,123.3,123.3,0,0,0-5.8,26.86c-.24,2.28,1.25,5.21,2.81,6.77a9.57,9.57,0,0,0,13.53,0l1.5-1.94a9.52,9.52,0,0,0,1.31-4.83Z"/><path class="cls-4" d="M559.72,539.28c24.89-34.26,68.34-54.11,110.53-50.5s81.65,30.55,100.36,68.54c4.42,9,7.78,18.65,8.25,28.65,1.51,32-25.92,64.66-11.54,93.26,2.64,5.26,6.58,9.86,8.63,15.38,4.17,11.2-.49,24.29-9,32.69s-20.15,12.83-31.78,15.58c-29.16,6.89-61.28,4.14-86.9-11.4s-43.48-44.79-41.65-74.69"/></g><g id="Layer_221" data-name="Layer 221"><path class="cls-5" d="M680.26,485.87A115.74,115.74,0,0,0,555.82,542c-1.55,2.75-.74,6.71,2.16,8.24a6.12,6.12,0,0,0,8.24-2.16,107.65,107.65,0,0,1,6.84-10.61c.31-.42.62-.85.94-1.27.11-.15.24-.31.35-.47.48-.64-.71.91-.22.28.7-.88,1.39-1.75,2.11-2.61,1.34-1.62,2.73-3.21,4.16-4.75a113.77,113.77,0,0,1,9-8.61c.75-.64,1.51-1.28,2.27-1.9l1.24-1c.2-.16.42-.31.62-.48-.47.39-.81.61-.13.09q2.45-1.85,5-3.56a108.66,108.66,0,0,1,10.85-6.44c1.9-1,3.82-1.91,5.78-2.78l.81-.35c.52-.24.64,0-.22.08a6,6,0,0,0,1.44-.59c1.16-.47,2.33-.91,3.51-1.34a111.28,111.28,0,0,1,13.38-3.9q3.47-.76,7-1.32l1.54-.23c1.1-.17-.12,0-.29,0a8.81,8.81,0,0,0,.88-.11c1.24-.15,2.49-.28,3.74-.39a109.83,109.83,0,0,1,15.71-.28c2.65.14,5.29.39,7.93.72h.08c-1-.12.32.05.51.08.66.09,1.32.2,2,.31,1.38.23,2.76.49,4.14.77,3.07.64,6.65-.89,7.4-4.2.69-3-.9-6.73-4.2-7.41Z"/><path class="cls-5" d="M622.87,567c-.41-2.73-.09-.6-.14.33,0,.3-.06.6-.08.89.22-2.71.17-1.19,0-.49a25.59,25.59,0,0,1-1.34,4.28l-.24.61c-.48,1.17.56-1.3.3-.71-.19.43-.37.86-.57,1.29-.39.87-.79,1.73-1.2,2.59-.94,2-1.9,3.92-2.85,5.88-5.45,11.27-10,22.91-12.51,35.22-3.86,19.24-3.23,38.89,0,58.17,1,6,2.31,12,3.82,17.88a72.85,72.85,0,0,0,5.62,15.31,71.41,71.41,0,0,0,18.7,22.62A101.57,101.57,0,0,0,690,752.79q3.56.21,7.13.15c3.14-.05,6.17-2.73,6-6a6.12,6.12,0,0,0-6-6q-3.57.06-7.13-.15c-1.2-.08-2.4-.17-3.59-.29l-1.71-.19-.86-.11c-1.22-.14,1.37.2.23,0A101.77,101.77,0,0,1,669.59,737q-3.51-1-6.94-2.37c-.54-.2-1.08-.42-1.62-.63l-.81-.33.31.13c-1.17-.51-2.33-1-3.49-1.58A89.43,89.43,0,0,1,644.5,725c-1-.68-1.94-1.39-2.9-2.1-.3-.23-.77-.73.42.31-.26-.22-.54-.42-.8-.63-.49-.39-1-.78-1.44-1.18-1.85-1.56-3.63-3.2-5.31-4.92a67.87,67.87,0,0,1-4.63-5.25c-.14-.18-.27-.36-.42-.52,1.17,1.39.38.48.14.16s-.65-.89-1-1.34q-1.05-1.49-2-3a62,62,0,0,1-3.32-6.1c-.23-.5-.46-1-.68-1.51s-.32-1,.22.52c-.11-.31-.25-.61-.38-.92-.44-1.14-.85-2.29-1.23-3.46A159.37,159.37,0,0,1,617,677.6c-.56-2.84-1.07-5.7-1.51-8.56-.11-.66-.2-1.32-.3-2-.07-.45-.34-2.68-.11-.73-.16-1.4-.35-2.8-.5-4.2-.54-5-.87-10-.95-15-.08-4.46,0-8.93.39-13.38.15-2,.36-4.09.61-6.13l.09-.71c.1-.78-.23,1.71-.08.62.06-.46.13-.92.2-1.38q.23-1.49.48-3a122.61,122.61,0,0,1,5.17-19.75c.49-1.4,1-2.79,1.55-4.18.25-.63.5-1.26.76-1.89l.38-.92a3.35,3.35,0,0,1,.23-.55c-.1.13-.71,1.67-.3.72,1-2.36,2.08-4.69,3.18-7,1.79-3.77,3.72-7.48,5.38-11.31,1.56-3.63,3-7.26,3.15-11.27a19,19,0,0,0-.31-3.27,6,6,0,0,0-2.77-3.6,6,6,0,0,0-8.24,2.16,6.94,6.94,0,0,0-.6,4.64Z"/></g></g></svg>