<svg id="Prior_to_November" data-name="Prior to November" xmlns="http://www.w3.org/2000/svg" xmlns:xlink="http://www.w3.org/1999/xlink" viewBox="0 0 800 800"><defs><style>.cls-1{fill:none;}.cls-2{fill:#54899b;}.cls-3{clip-path:url(#clip-path);}.cls-4{fill:#e5e6e6;}.cls-5{fill:#221f1f;}.cls-6{fill:#2f152f;}</style><clipPath id="clip-path"><path class="cls-1" d="M30.25,739.59C-2.09,266,671.05,24.62,737.16,375.78c7.92,85.29,40.92,254.13,46.9,312.27,1.43,13.84-8.37,23.6-18.66,33C632.26,837.33,140.84,779.44,30.25,739.59"/></clipPath></defs><g id="Layer_158" data-name="Layer 158"><path class="cls-2" d="M35.63,736.53C3.3,262.91,676.43,21.56,742.54,372.72,750.47,458,783.46,626.85,789.45,685c1.42,13.85-8.37,23.6-18.67,33C637.64,834.28,146.23,776.39,35.63,736.53"/><g class="cls-3"><path class="cls-4" d="M649.79,775.36c176.39,132.41-335-8.73-544.95,1.14s41.41-692.33,380.6-601.2c21.21,5.7,67.57,35.42,77.45,104,8.77,60.88-9.68,137.32-13.53,207-3.47,62.63,7.74,120.45,12.1,145.91C571.24,689.27,614.89,749.17,649.79,775.36Z"/><path class="cls-2" d="M35.63,736.53C10,601.64,83.61,564,138.4,552.29c37.38-8,82.85-3.23,103.89,28.67,12,18.24,13.29,41.64,10.28,63.28-10,71.55-60.34,129.9-108.52,183.73"/></g><path class="cls-5" d="M127.2,770.08c3.4,0,3.41-5.28,0-5.28s-3.4,5.28,0,5.28Z"/><path class="cls-6" d="M207.28,503.4a166.65,166.65,0,0,1,29.29-16l-3,1.26a166.79,166.79,0,0,1,42.17-11.51l-3.33.44q4.31-.57,8.64-.92c3.36-.28,6.38-1.21,8.83-3.66a12.48,12.48,0,0,0,0-17.68c-2.32-2.14-5.56-3.93-8.83-3.66A181.52,181.52,0,0,0,211,471.94a165.09,165.09,0,0,0-16.33,9.87,13.4,13.4,0,0,0-5.75,7.47,12.82,12.82,0,0,0,1.26,9.64,12.61,12.61,0,0,0,7.47,5.74c3.15.72,6.88.63,9.63-1.26Z"/><path class="cls-6" d="M639.55,497.47c3.61.24,7.21.61,10.8,1.08L647,498.1a172.34,172.34,0,0,1,43.85,12l-3-1.26a161,161,0,0,1,35.2,20.24l-2.53-2a67,67,0,0,1,12,11.6l-2-2.53a40.66,40.66,0,0,1,5.17,8.73l-1.26-3c.3.73.58,1.46.84,2.21a13.37,13.37,0,0,0,5.75,7.47,12.81,12.81,0,0,0,9.63,1.26,12.65,12.65,0,0,0,7.47-5.75c1.51-2.86,2.37-6.47,1.26-9.63a58.12,58.12,0,0,0-16.11-23.82,138.08,138.08,0,0,0-22.1-15.93,182.09,182.09,0,0,0-50.05-20.46,189.62,189.62,0,0,0-31.61-4.81c-3.07-.22-6.72,1.54-8.84,3.66a12.49,12.49,0,0,0,0,17.67,13.8,13.8,0,0,0,8.84,3.67Z"/><ellipse class="cls-6" cx="649.04" cy="587.32" rx="73.29" ry="59.4"/></g></svg>