<?xml version="1.0" encoding="UTF-8"?>
<svg id="Prior_to_November" data-name="Prior to November" viewBox="0 0 800 800" xmlns="http://www.w3.org/2000/svg">
 <defs>
  <style>.cls-1{fill:none;}.cls-2{opacity:0.42;}.cls-3{fill:#c0c480;}.cls-4{fill:#c0b17a;}.cls-5{fill:#54899b;}.cls-6{clip-path:url(#clip-path);}.cls-7{fill:#e5e6e6;}.cls-8{fill:#2f152f;}.cls-10,.cls-9{fill:#9b578e;}.cls-9{opacity:0.25;}.cls-10{opacity:0.35;}</style>
  <clipPath id="clip-path">
   <path class="cls-1" d="M584.73,411.22c-115.57-38.53-249-14.41-352,47.29S21.11,703,16.28,713.7c-45.64,101.58,241.48,56.6,354,60.38,122,4.11,246.61,6.77,358.84-37.57a127.3,127.3,0,0,0,42.09-27.37c27.36-26.74,15.2-80.37,11.47-93.45C755.7,521.3,600.29,416.41,584.73,411.22Z"/>
  </clipPath>
 </defs>
 <g id="Layer_177" data-name="Layer 177">
  <g class="cls-2">
   <path class="cls-3" d="M503.5,710.82c-37.33-16.26-52.67-38.2-39.56-54.77S517.45,628.8,566,628.36s103.75,9.13,143.89,24.47c13.36,5.1,25.26,10.87,33.06,17.11s11.36,13,12.39,19.3c3,18.12-14.16,34.75-48.22,44.15s-85,11.16-133.41,3.7c-21.31-3.29-42.24-8.36-58.29-15.21s-26.78-15.56-26.34-23.37"/>
   <path class="cls-4" d="M536.76,735.62c-37.52-6.52-49.51-15.5-63.4-28.15-15.7-14.32,6.77-26.5,41.62-28.79,11.48-.76,23.9-.53,36.21-.29,15.12.28,30.61.6,46,2.84,21.09,3.08,40.27,9.71,52.39,17.3s17.49,16,17,23.74c-.29,5.1-3.2,10.06-11.17,13.48-4.66,2-10.9,3.42-17.6,4.49-28.81,4.59-67.55,2.82-101.08-4.62-28.5-6.33-53.18-16.82-63.4-28.15s-4.63-23.2,16-29.09"/>
   <path class="cls-4" d="M546.46,727.67c-25.67-4.46-33.87-10.6-43.37-19.26-10.74-9.79,4.63-18.13,28.47-19.69,7.86-.52,16.35-.36,24.78-.2,10.34.19,20.94.4,31.46,1.94,14.44,2.11,27.55,6.64,35.85,11.84s12,11,11.66,16.24c-.2,3.49-2.19,6.88-7.64,9.23a53.44,53.44,0,0,1-12,3.06c-19.71,3.15-46.21,1.94-69.16-3.16-19.5-4.33-36.38-11.5-43.37-19.26s-3.17-15.87,11-19.9"/>
   <path class="cls-3" d="M127.08,748.53c-40.72.38-63.68-13.39-58.47-33.87s37.74-46.7,81.92-66.93,98.46-34,141.36-36.35c14.27-.79,27.49-.38,37.16,2.14s15.66,7.2,19.19,12.57c10.09,15.34,1.24,37.5-26,60s-73.06,44.86-120.3,57.79c-20.79,5.69-42,9.6-59.42,9.9s-30.79-3.29-33.59-10.6"/>
   <path class="cls-4" d="M190.59,727.18c-44.2,11.2-61.69,7.24-83,.19-24.16-8-5.55-32.27,31.43-51.79,12.18-6.43,25.86-12.24,39.43-18,16.67-7.08,33.76-14.3,51.66-19.35,24.56-6.94,48.76-9.05,65.71-6.68s27,9,30.23,17.63c2.17,5.71,1.41,12.56-5.63,20.19-4.12,4.47-10.24,9.06-17.05,13.5C274.09,702,230.88,719,190.59,727.18c-34.24,7-66.34,7.59-83,.19s-16.4-23.09,3.31-39.62"/>
   <path class="cls-4" d="M225.14,732.36c-25.26,6.39-35.25,4.13-47.46.1-13.8-4.56-3.17-18.44,18-29.59,7-3.68,14.78-7,22.54-10.29,9.53-4.05,19.29-8.17,29.52-11.06,14-4,27.87-5.18,37.56-3.82s15.4,5.13,17.27,10.08c1.24,3.26.81,7.17-3.21,11.54a53.73,53.73,0,0,1-9.75,7.71c-16.71,10.91-41.4,20.62-64.43,25.33-19.57,4-37.91,4.33-47.46.1s-9.37-13.19,1.89-22.64"/>
  </g>
  <path class="cls-5" d="M584.73,411.22c-115.57-38.53-257.27,25.56-360.3,87.27S21.11,703,16.28,713.7c-45.64,101.58,241.48,56.6,354,60.38,122,4.11,246.61,6.77,358.84-37.57a127.3,127.3,0,0,0,42.09-27.37c27.36-26.74,15.2-80.37,11.47-93.45C755.7,521.3,600.29,416.41,584.73,411.22Z"/>
  <g class="cls-6">
   <path class="cls-7" d="M31.45,750.6c55.33-5.93,107.48-37,139-82.85,24-34.83,36.17-76.9,61.64-110.65,30.14-39.94,77.45-65.18,126.81-73.44s100.52-.48,147.48,16.83c21.24,7.83,41.9,17.65,60.17,31,28.54,20.93,50.18,49.7,71.38,78l75.21,100.51c4.69,6.28,9.65,13.61,8.11,21.29-1.67,8.34-10.16,13.22-17.84,16.87C548,822.19,372.15,839.1,200.25,848.4c-22.14,1.19-44.4,2.28-66.47.1C94.62,844.62,56.22,830.05,25.89,805c-11.38-9.41-22.31-22.06-21.53-36.79s20.48-27,30.91-16.56"/>
  </g>
  <path class="cls-8" d="M603,534.67c10.34,3,20.7,6.05,30.65,10.22l-3.32-1.4a150.32,150.32,0,0,1,33.12,19.62l-2.81-2.17c14.2,11,26.67,24.07,38.12,37.88,3.26,3.92,6.43,7.92,9.55,12L706.17,608q4.27,5.55,8.42,11.19a10.63,10.63,0,0,0,3.58,3.89,10.51,10.51,0,0,0,4.71,2.48,14.2,14.2,0,0,0,10.69-1.4c3-1.91,5.57-4.75,6.37-8.29s.78-7.74-1.39-10.69c-12.29-16.65-25.12-33.06-39.87-47.62-14.54-14.36-31.13-27.28-49.72-35.95-12.43-5.79-25.43-9.83-38.57-13.65a13.87,13.87,0,0,0-17.06,9.68c-.8,3.55-.63,7.54,1.4,10.69a14.6,14.6,0,0,0,8.29,6.37Z"/>
  <path class="cls-8" d="M202.91,541.36A202.75,202.75,0,0,0,168,565.91a255.65,255.65,0,0,0-30.74,31.77q-9.6,11.72-18.26,24.17c-2,2.82-2.28,7.48-1.39,10.69a14.1,14.1,0,0,0,6.37,8.28c3.22,1.7,7.12,2.56,10.69,1.4l3.31-1.4a14,14,0,0,0,5-5q5-7.22,10.37-14.18l-2.17,2.81a267.23,267.23,0,0,1,34.52-37.27q5-4.38,10.22-8.44l-2.8,2.16a180.32,180.32,0,0,1,23.8-15.62,13.86,13.86,0,0,0,5-19c-1.9-3-4.75-5.57-8.28-6.37a14.8,14.8,0,0,0-10.69,1.39Z"/>
  <g id="Layer_179" data-name="Layer 179">
   <path class="cls-8" d="M306.88,521.42a254.28,254.28,0,0,0-47.16,76.48q-4.47,11-7.83,22.47a14.11,14.11,0,0,0,1.4,10.69,15.48,15.48,0,0,0,8.29,6.37c8.77,3.14,18.4,2.52,27.35.6,7.27-1.56,14.23-4.25,21.33-6.41a78.67,78.67,0,0,1,12.12-2.83l-3.68.5a38.75,38.75,0,0,1,9.92-.11l-3.68-.5a31.5,31.5,0,0,1,7.72,2.13l-3.32-1.4a60,60,0,0,1,12.45,7.89l-2.8-2.17c4.3,3.33,8.51,6.79,13.06,9.77a84.79,84.79,0,0,0,12.1,6.58,95.17,95.17,0,0,0,32,8.78,85.86,85.86,0,0,0,15.54.43,14.57,14.57,0,0,0,8.41-3,13.54,13.54,0,0,0,5-7.2,90.49,90.49,0,0,0,1.73-38l-20.38,15.66a292.63,292.63,0,0,0,102.09,34.1c8.4,1.14,16.92,2.41,25.43,2.18,7.31-.2,15-1.15,21.81-3.93a56,56,0,0,0,6.55-3,44.48,44.48,0,0,0,6.27-4.54,28.83,28.83,0,0,0,7.13-8.92,34.34,34.34,0,0,0,2.77-24.76c-3.81-14-15.29-23.86-23.87-34.92l2.17,2.81a51.08,51.08,0,0,1-6.6-10.74l1.4,3.31a27.52,27.52,0,0,1-2-7l.5,3.69a24.59,24.59,0,0,1-.19-3.21,14.27,14.27,0,0,0-4.06-9.8,14.11,14.11,0,0,0-9.81-4.07c-3.59.16-7.31,1.34-9.81,4.07a14.54,14.54,0,0,0-4.06,9.8c-.09,15.5,9.81,27.56,19.39,38.66,2.21,2.56,4.42,5.12,6.49,7.8l-2.16-2.81a47,47,0,0,1,6.15,10l-1.4-3.31a24.2,24.2,0,0,1,1.65,6l-.5-3.69a19.93,19.93,0,0,1,0,5.06l.5-3.69a21.51,21.51,0,0,1-1.32,4.85l1.39-3.31A19.29,19.29,0,0,1,549.9,633l2.17-2.8a22.26,22.26,0,0,1-3.64,3.62l2.8-2.17a28.47,28.47,0,0,1-6.16,3.52l3.32-1.4a45.3,45.3,0,0,1-11,2.87l3.69-.49c-9.61,1.28-19.28.14-28.83-1.13l3.69.5a282.21,282.21,0,0,1-56.52-13.66q-7.89-2.79-15.59-6l3.31,1.4a282.69,282.69,0,0,1-26.66-13,14,14,0,0,0-15.4,1.09,13.19,13.19,0,0,0-4.27,5.55,6.91,6.91,0,0,0-.95,3.5,10.52,10.52,0,0,0,.25,5.53l.08.55-.5-3.68a79.12,79.12,0,0,1,0,20.74l.5-3.69a80.38,80.38,0,0,1-1.84,9.37L411.7,633a86.7,86.7,0,0,1-16.81-.59l3.69.5a89.34,89.34,0,0,1-22.11-6l3.32,1.4a90.43,90.43,0,0,1-20.06-11.84l2.8,2.17c-5.27-4.08-10.42-8.56-16.33-11.73a46.64,46.64,0,0,0-20.87-5.67c-10.91-.33-21.45,3.35-31.67,6.68A97,97,0,0,1,277.42,612l3.69-.49a38.43,38.43,0,0,1-9.82.13l3.69.5a29.85,29.85,0,0,1-6-1.48l9.69,17.07a246.94,246.94,0,0,1,9.29-26L286.54,605a246.12,246.12,0,0,1,31.68-54.2l-2.17,2.8q5-6.48,10.44-12.61a14.69,14.69,0,0,0,4.07-9.81,14.07,14.07,0,0,0-4.07-9.8c-2.64-2.43-6.11-4.23-9.8-4.07s-7.38,1.32-9.81,4.07Z"/>
   <ellipse class="cls-9" cx="186.75" cy="677.17" rx="107.18" ry="33.42"/>
   <ellipse class="cls-9" cx="673.01" cy="658.11" rx="107.18" ry="33.42"/>
   <ellipse class="cls-9" cx="673.01" cy="658.11" rx="87.02" ry="27.13"/>
   <ellipse class="cls-10" cx="673.01" cy="658.11" rx="61.11" ry="19.06"/>
   <ellipse class="cls-9" cx="182.53" cy="677.17" rx="87.02" ry="27.13"/>
   <ellipse class="cls-10" cx="186.75" cy="677.17" rx="61.11" ry="19.06"/>
  </g>
 </g>
</svg>
