<?xml version="1.0" encoding="UTF-8"?>
<svg id="Prior_to_November" data-name="Prior to November" viewBox="0 0 800 800" xmlns="http://www.w3.org/2000/svg">
 <defs>
  <style>.cls-1{fill:none;}.cls-2{fill:#54899b;}.cls-3{clip-path:url(#clip-path);}.cls-4{fill:#e7e7e8;}.cls-5{fill:#2f152f;}.cls-6{fill:#e43c80;}.cls-7{clip-path:url(#clip-path-2);}.cls-8{fill:#e5e6e6;}</style>
  <clipPath id="clip-path">
   <path class="cls-1" d="M136.86,756.91C306.1,791,532.82,829.75,675,705.27c12.75-21.85,12.78-50.44,6.35-75.3-90.9-351.44-36.64-465.65-152.56-521.7C350,25.5,162.66,212.1,99.63,382.81"/>
  </clipPath>
  <clipPath id="clip-path-2">
   <path class="cls-1" d="m1674.4 707.42c-30.63-606.88 607.07-916.12 669.69-466.17 7.51 109.3 38.77 325.63 44.44 400.13 1.35 17.74-7.93 30.24-17.68 42.24-126.14 149-591.68 74.87-696.45 23.8"/>
  </clipPath>
 </defs>
 <g id="Layer_123" data-name="Layer 123">
  <path class="cls-2" d="M146.31,760.43c-209.47-34.59-54.4-605.89,163.2-497.3C418.42,338,416.37,497.35,437.06,616.58c16.55,70.73-19,140.82-85.75,171.12"/>
  <path class="cls-2" d="M136.86,756.91C306.1,791,532.82,829.75,675,705.27c12.75-21.85,12.78-50.44,6.35-75.3-90.9-351.44-36.64-465.65-152.56-521.7C350,25.5,162.66,212.1,99.63,382.81"/>
  <g class="cls-3">
   <path class="cls-4" d="m309.6 732.72c-39.8-142-27.5-302 33.46-435.17 15.38-33.59 35.11-67 65-84.23a116.48 116.48 0 0 1 30.42-11.79c51.69-12.79 110.4 3.37 143.83 49.05 23.57 32.19 32.58 74.68 38.65 115.95 2.61 17.73 4.81 35.59 8.91 53 4.45 18.88 11.1 37 18.31 54.73a825.8 825.8 0 0 0 78.56 148.34c14 20.87 29.74 44.33 26.31 70.33-1.76 13.34-8.53 25.25-16.26 35.62-33.51 45-85.49 66.75-136.3 79.32a547.73 547.73 0 0 1-153.88 15.63c-30.43-1.25-61.6-5.34-88.42-21.31s-48.68-46-49.64-80.25"/>
   <path class="cls-2" d="m435.4 625.75c24.72 28.45 45 178.4 35.25 190-9.48 11.24-19.72 21.85-31.78 28.24-16.5 8.76-35.23 9-53.33 7.1-42.12-4.53-83.19-20.28-123.87-35.93-21.17-8.14-43.33-17-58.92-37.07-7.3-9.39-12.76-20.8-17.31-32.58-19.12-49.5-22.67-106.57-15.13-159.77s25.63-102.9 47.89-148.6c16.25-33.36 7.38-51.1 36.15-66.29 3-1.58-1-3.95 0 0"/>
  </g>
  <path class="cls-2" d="m176.14 351.53c46.42-191.48 124.29 189.89 255 252.82"/>
  <path class="cls-5" d="M185.79,354.19a226.7,226.7,0,0,1,7.38-25c.69-1.87,1.41-3.73,2.19-5.56l-1,2.39a64.52,64.52,0,0,1,8-14.47l-1.56,2a27.33,27.33,0,0,1,4.8-4.93l-2,1.56a17.34,17.34,0,0,1,3.73-2.22l-2.39,1a13.43,13.43,0,0,1,3.47-.95l-2.66.35a13.71,13.71,0,0,1,3.62,0l-2.66-.35a17.71,17.71,0,0,1,4.42,1.24l-2.39-1a29.76,29.76,0,0,1,6.42,3.88l-2-1.57a67.44,67.44,0,0,1,10.19,10.15c1,1.21,2,2.45,3,3.7l-1.57-2a229.51,229.51,0,0,1,14.14,21c5.33,8.75,10.33,17.69,15.21,26.69,5.53,10.19,10.89,20.46,16.23,30.74,5.79,11.16,11.55,22.35,17.38,33.49,6,11.56,12.16,23.09,18.45,34.53s12.83,22.92,19.62,34.17c6.62,11,13.52,21.8,20.82,32.33s15.14,21,23.48,30.85a234.89,234.89,0,0,0,23.33,24.2,155.22,155.22,0,0,0,26.5,19.37q3.06,1.72,6.24,3.26a10.64,10.64,0,0,0,7.7,1,10,10,0,0,0,7-12.3c-.77-2.36-2.28-4.85-4.6-6a118.73,118.73,0,0,1-17.05-10.16c-1.61-1.14-3.19-2.31-4.76-3.52l2,1.56A182.18,182.18,0,0,1,399.83,569c-5.62-5.55-10.94-11.4-16-17.45q-4.5-5.34-8.75-10.86l1.56,2c-9.54-12.36-18.32-25.3-26.64-38.52-8.63-13.72-16.77-27.76-24.63-41.94s-15.45-28.54-23-42.94c-7-13.53-14-27.12-21.1-40.63-6.3-12-12.67-24-19.44-35.73a296.4,296.4,0,0,0-17.94-28.1c-5.75-7.78-11.85-15.12-19.75-20.8-6.47-4.66-14.56-7-22.44-5.1-8.52,2.06-14.85,9.12-19.28,16.28a96.63,96.63,0,0,0-7.21,15,177.28,177.28,0,0,0-5.94,17.87c-1,3.55-1.93,7.12-2.8,10.71a10.48,10.48,0,0,0,1,7.7,10.15,10.15,0,0,0,6,4.6c5.16,1.17,11-1.55,12.31-7Z"/>
  <path class="cls-5" d="M86.57,547.34a79.27,79.27,0,0,1,.63-15.7l-.36,2.66a136.42,136.42,0,0,1,5-21.88c1.22-4,2.59-7.93,4.06-11.83.76-2,1.55-4,2.37-6,.37-.91.74-1.81,1.12-2.72-1.6,3.85.11-.24.52-1.18a385.1,385.1,0,0,1,26.35-49.23q7.52-12,15.69-23.62,4-5.66,8.13-11.19c1.33-1.78,2.67-3.56,4-5.32s-1.5,1.93-.3.38l1-1.33,2.07-2.63A323.39,323.39,0,0,1,188.07,363c2.28-2.15,4.6-4.24,7-6.25,1.05-.88,2.12-1.73,3.2-2.59-2.59,2.06-1.46,1.12-.35.29l1.54-1.12a55.33,55.33,0,0,1,5.74-3.62c.84-.45,1.72-.82,2.58-1.26,0,0-3.08,1.24-1.71.73l.53-.2c.4-.15.81-.29,1.22-.41a14.82,14.82,0,0,1,2.08-.45l-2.66.36a8.53,8.53,0,0,1,2.2,0l-2.66-.35c.48.06.91.25,1.37.34s-2.88-1.51-1.92-.79a2.91,2.91,0,0,0,.42.25c1.13.58-2.18-1.84-1.6-1.24.13.13.28.24.41.37a10.29,10.29,0,0,1,.85.9c.14.16.27.33.41.5.67.78-2.06-2.79-1.05-1.36.31.45.62.89.92,1.35.69,1.06,1.32,2.16,1.92,3.27,1.57,2.91,3,5.92,4.26,8.95l.53,1.25c.49,1.13-1.2-2.86-.66-1.57l.35.84c.39.93.77,1.87,1.14,2.81.83,2.06,1.63,4.13,2.42,6.2,3.86,10.21,7.37,20.55,10.79,30.91,4.18,12.69,8.19,25.43,12.16,38.19q6.67,21.45,13.23,42.94,6.93,22.54,14,45.07,7,22.35,14.34,44.59c4.62,13.94,9.39,27.83,14.44,41.63,4.66,12.73,9.59,25.36,15,37.81a255.46,255.46,0,0,0,13.42,27.41c1,1.73,2,3.45,3.15,5.13,2.84,4.38,9,6.61,13.68,3.59,4.38-2.83,6.63-9,3.59-13.68a174.21,174.21,0,0,1-11.09-20.41q-3-6.35-5.77-12.81c-.24-.54-.47-1.09-.7-1.64l-.36-.83c1.45,3.4.86,2,.54,1.28-.51-1.22-1-2.45-1.52-3.68-1-2.43-2-4.88-3-7.33-8.81-22.26-16.57-44.94-24-67.69-8.23-25.06-16.05-50.26-23.81-75.47-7.26-23.63-14.45-47.28-21.93-70.84-5.74-18-11.52-36.13-18.45-53.76a175.72,175.72,0,0,0-8.3-18.79c-2.33-4.34-5.18-8.72-9.45-11.36-6.42-4-14.44-1.52-20.59,1.62-7,3.6-13.3,9-19.13,14.23-17,15.38-31.59,33.52-45.2,51.9a459.7,459.7,0,0,0-41.68,67C79,486.87,69.45,510,66.89,534.24a76.43,76.43,0,0,0-.32,13.1c.36,5.2,4.35,10.25,10,10,5.12-.23,10.38-4.42,10-10Z"/>
  <path class="cls-6" d="m185.23 189.15c-35.46-8-53.63-14.47-84.64-12.13-27.59 2.07-42.25-3.85-52.59-19.93-26.13-40.71-7.45-102.19 59.47-50.73-32.7-54.17 39.41-89.19 62.9-32.7 13.78 35.23-12.23 81 14.85 115.49"/>
  <path class="cls-5" d="m309.27 311.62a251.13 251.13 0 0 0 43.59-54q4.61-7.75 8.53-15.87a13.35 13.35 0 0 0 1.26-9.63 12.73 12.73 0 0 0-5.74-7.47 12.59 12.59 0 0 0-9.63-1.27c-3 1-6.07 2.85-7.47 5.75a220.24 220.24 0 0 1-24 38.51l2-2.53a250.38 250.38 0 0 1-26.22 28.82 12.51 12.51 0 0 0 0 17.68 12.6 12.6 0 0 0 8.84 3.66 13.37 13.37 0 0 0 8.84-3.66z"/>
  <path class="cls-5" d="M426.6,342.39,454.25,370l6.87,6.86c2.66,2.66,5.35,6,8.66,7.81a15.39,15.39,0,0,0,11.91,1.44,18.54,18.54,0,0,0,8-5.24c2.31-2.38,4.62-4.78,6.92-7.17l7.44-7.7a79.94,79.94,0,0,1,7.35-7.26l-2.53,2a15.28,15.28,0,0,1,2.73-1.68l-3,1.26a9.28,9.28,0,0,1,2.19-.62l-3.33.45a7.62,7.62,0,0,1,1.51,0l-3.33-.45a7.32,7.32,0,0,1,1.52.43l-3-1.26a9.46,9.46,0,0,1,1.7,1L503.37,358c2.85,2.29,5.26,5.24,7.88,7.81s5.32,5.13,8.06,7.61c6.27,5.69,12.83,11,19.54,16.16,3.55,2.73,7,5.56,11.48,6.72a17.52,17.52,0,0,0,13.08-1.53,20.45,20.45,0,0,0,7-7.1c2.12-3.35,3.89-7,5.81-10.45l5.79-10.46,13.25-24a13.09,13.09,0,0,0,1.26-9.63,12.51,12.51,0,0,0-22.85-3l-12.89,23.32L554.44,365l-3.14,5.66a46.45,46.45,0,0,1-3.08,5.29l1.95-2.53a7.87,7.87,0,0,1-1.29,1.29l2.53-1.95a5.9,5.9,0,0,1-.95.53l3-1.26a6.82,6.82,0,0,1-1.16.3l3.32-.45a6.65,6.65,0,0,1-1.18,0l3.33.45a9.3,9.3,0,0,1-2-.57l3,1.26c-2.94-1.36-5.5-3.64-8-5.61l2.53,2a275.53,275.53,0,0,1-26.64-23.54,65.26,65.26,0,0,0-8.11-7.48,18.46,18.46,0,0,0-15.45-2.51c-7.45,2.11-12.55,8.28-17.71,13.63l-7.44,7.7c-2.41,2.5-4.71,5.34-7.4,7.53l2.53-1.95a6.63,6.63,0,0,1-1,.59l3-1.26a2.92,2.92,0,0,1-.72.18l3.32-.45h-.38l3.32.45a2.65,2.65,0,0,1-.69-.15l3,1.26a5.37,5.37,0,0,1-.94-.52l2.53,1.95a59.72,59.72,0,0,1-5-4.85L474.57,355l-10-10-20.26-20.25a12.9,12.9,0,0,0-8.83-3.66,12.71,12.71,0,0,0-8.84,3.66,12.57,12.57,0,0,0-3.66,8.84,12.94,12.94,0,0,0,3.66,8.84Z"/>
 </g>
 <g id="sir">
  <g id="Layer_131" data-name="Layer 131">
   <g class="cls-7">
    <path class="cls-8" d="m2243 796.74c169.3 166.46-125.59 180.26-334.92 180.26s-366.78-230-379-512.65c-11.56-266.35-1820.2 2421.1 199.42-220.24 85.63-112 273.1-209.11 379-166.46 20.74 8.35 65.57 45.65 72.19 127.35 5.88 72.52-16.05 161.93-23.14 244.16-6.38 73.92 2.07 142.94 5.22 173.31 7.08 68.04 47.71 141.34 81.23 174.27z"/>
   </g>
  </g>
 </g>
</svg>
