<svg id="Prior_to_November" data-name="Prior to November" xmlns="http://www.w3.org/2000/svg" xmlns:xlink="http://www.w3.org/1999/xlink" viewBox="0 0 800 800"><defs><style>.cls-1{fill:none;}.cls-2{clip-path:url(#clip-path);}.cls-3{fill:#e4e5e5;}.cls-4{fill:#55889a;}.cls-5{fill:#f9a61b;}.cls-6{fill:#dfdfdf;}.cls-7{clip-path:url(#clip-path-2);}.cls-8{fill:#fff;}.cls-9{clip-path:url(#clip-path-3);}.cls-10{fill:#cbcbca;}.cls-11{fill:#333;}.cls-12{fill:#2f152f;}.cls-13{fill:#72a441;}.cls-14{fill:#ef8f21;}</style><clipPath id="clip-path"><path class="cls-1" d="M32.35-72.49C-.57-554.7,684.77-800.42,752.07-442.9,760.14-356,793.74-184.16,799.83-125c1.45,14.09-6.34,27.22-19,33.55C573.16,12.45,135.79-13.5,32.35-72.49"/></clipPath><clipPath id="clip-path-2"><path class="cls-1" d="M714,358C732.56,85.44,345.24-53.42,307.21,148.63c-4.56,49.08-23.55,146.22-27,179.68-.82,8,6.12,12.42,10.74,19,144.17,204,335.91,189.86,423,10.69"/></clipPath><clipPath id="clip-path-3"><path class="cls-1" d="M337.71,65.06C333,166.6,375.43,332.49,424,427.47c51.69,101.06,326,80,280.37-177.1,24.84,11.9,166.94,211.94-147.61,277.12-16.15,3.35-30.61,12.24-46.88,15-49.53,8.24-100.11,6.88-150.26,4.39-37.42-1.85-75.33-4.42-110.8-16.5-30.77-10.49.81-19.85-20.37-44.52s13.29-75.6,12.58-108.1c-.6-27.37-4.64-58.36,8.14-82.57,23.37-44.27-33.5-65.42,12.47-85.22,18.57-8,6.92-3.27,25.31,5.1"/></clipPath></defs><g id="hold_asparagus" data-name="hold asparagus"><g id="Layer_1" data-name="Layer 1"><g class="cls-2"><path class="cls-3" d="M643.38-1.52C771.17,91.36,258.6,137.31,75.2-55.16,40-92.07,56.38-36.85,4.51-186.21-18-251,25.06-338.62,90.47-440.63c69.09-107.77,304.85-177.17,411-137.11,21.77,8.21,66.78,41.12,73.9,106,6.32,57.62-17.25,128.66-24.87,194C543.66-219,552.74-164.12,556.13-140,563.72-85.93,607.38-27.69,643.38-1.52Z"/><path class="cls-4" d="M241.59,17.78c-35.72-90.84,17.83-240.4,42.26-300,5.75-14,20.75-19.48,32.56-11.85C362-264.67,464.61-197.9,471-189.29,482.85-173.3,603-82,633.89-54l-48.2,23.39"/><path class="cls-4" d="M-71.89-22.82c52.45-53.76,211.3-207.35,270-250.44,11.89-8.11,24.33-17.16,37.19-25.12,42.29-26.2,93-1.77,111.66,54.81,41.77,126.28,18.76,312.29,30.31,437.34"/></g></g><g id="Layer_160" data-name="Layer 160"><g id="Layer_165" data-name="Layer 165"><path class="cls-5" d="M193,489.8c37-7.31,82.3-7,119.48-.36,11.79,2.11,23.67,5,34,11.11,18.55,11,29.88,31.27,36,52,11.88,40.24,7,83.44-.82,124.68-3,15.75-6.41,31.59-13.3,46.07-17.31,36.43-55,60-94.19,69.41s-80.3,6.3-120.35,1.52c-25.83-3.08-52.35-7.12-74.67-20.48-29.94-17.94-48.35-50.47-59.22-83.64A283.42,283.42,0,0,1,7.38,572.5c2.66-25.29,10.3-52.57,31.32-66.88,12-8.16,26.73-10.94,41.07-13a593.44,593.44,0,0,1,78.77-6.05c13.86-.14,29.89,3.24,34.45,3.24"/></g><g id="Layer_164" data-name="Layer 164"><path class="cls-6" d="M327.53,137.94a3.81,3.81,0,0,0,.08-.59C366-64.27,752.9,74.59,734.3,347l.49-12.46c.93,38.75-17.41,76.33-44.33,104.22s-61.81,46.93-97.94,61a460.75,460.75,0,0,1-48.76,15.87C473,534.32,395.4,535.35,328.58,505.41c-22.46-10.06-40,38.7-46.94,19.48-1.66-4.6-13.42-14.77-9.1-12.5,11.75,6.17,18.83-70.18,25.32-74.68,13.62-9.45,11.61-54.47,11.56-64.84C309.34,357.75,307.77,188.82,327.53,137.94Z"/><g class="cls-7"><path class="cls-8" d="M381.17,408.28C378,510.41,610.9,550.14,701,382.13c13-24.17,13-24.17,28.7-88.44,9.21-37.65-11.62-86.13-48.58-143.78C642.06,89,508.82,49.78,448.82,72.42c-12.3,4.64-37.74,23.24-41.76,59.93-3.57,32.56,9.75,72.71,14.06,109.64,3.87,33.19-1.26,64.19-3.18,77.83C413.65,350.37,381.94,383.14,381.17,408.28Z"/></g><g class="cls-9"><path class="cls-10" d="M327.53,137.94a3.81,3.81,0,0,0,.08-.59C366-64.27,752.9,74.59,734.3,347l.49-12.46c.93,38.75-17.41,76.33-44.33,104.22s-61.81,46.93-97.94,61a460.75,460.75,0,0,1-48.76,15.87C473,534.32,402.37,531,330.92,515c-20.51-4.59-51.38,48.38-61.48.63-.86-4.07,3.76-8.35,7.26-10.6,10.1-6.49,15.31-63.3,21.16-67.36,13.62-9.45,11.61-54.47,11.56-64.84C309.34,357.75,307.77,188.82,327.53,137.94Z"/></g><path class="cls-11" d="M598.07,199.55A77.82,77.82,0,0,0,579,182.12l-.27,19.46-40.42-18.92a2.23,2.23,0,0,0-1.76-.28c-.62.25-.86,1-1,1.62q-4.37,16-8.74,31.91-5.88-3.6-11.78-7.18c-6.93,17.26-7,36.48-7,55.12-3,19.13,19.38,37.34,38.21,41.84,27.8,6.64,60.32-8.52,69.7-35.52C624.28,246.2,614,219.28,598.07,199.55Z"/><path class="cls-6" d="M721.72,233.63c-20.63-16-23.44-23.29-46.52-36.11-4.68-2.41-9.58-5.11-14.63-7.47a32.74,32.74,0,0,0-43.93,16.31c-16.44,37.57,49.91,173.12,68.77,207.08"/><path class="cls-6" d="M403.88,413.21c136.79,5.58,143.1-90.68,138.67-115.12-1-5.75-18.86-23.66-32.59-21.09-22.14,4.15-59.44,25.41-62.93,27.85-6.47,4.54-34,17.48-49.59,24.32l-4.76,27.67"/><path class="cls-10" d="M392.83,346.87c56.53,29.07,108.89,12.37,146.84-36.35,4.93,40-18.26,81.89-54.77,98.94-14.74,6.89-31,9.92-47.11,11.86-10.93,1.3-20.84,9.25-30.42,3.83-5.62-3.18-27.05-13.2-30.3-18.78-8.5-14.62,9.94-37.68,15.76-59.5"/><path class="cls-10" d="M654.75,356A501.59,501.59,0,0,1,617,249.49a146.37,146.37,0,0,1,20.17,2.85l84,15.91c4.53,11.71,5.47,21.13,10,32.85,9.25,24.19-16.61,28.43-6.76,37.7C748.4,361.5,701.36,413.93,688,416"/><circle class="cls-12" cx="372.07" cy="239.41" r="41.16"/><circle class="cls-6" cx="372.07" cy="239.41" r="24.66"/></g><g id="Layer_166" data-name="Layer 166"><path class="cls-13" d="M148.75,488.53c-2.31-19.27-9.77-44.38-27-53.27l13-17a9.12,9.12,0,0,1,2.75-2.68c2.25-1.17,5-.25,7.33.74A163.44,163.44,0,0,1,216,474.79c2.5,3.69,4.91,8.52,2.67,12.38-1.16,2-3.35,3.22-5.47,4.2a71.51,71.51,0,0,1-64.49-2.84"/><path class="cls-14" d="M216,798.87c-19.16,7.75-34.58-9.79-47.38-26S151,735.58,148,715.14a456.15,456.15,0,0,1,5.23-162.45c5.77-26.83,17.87-57.14,44.38-64.24,21.15-5.67,43.9,6.95,56.34,25s16.63,40.37,19.52,62.08a657.87,657.87,0,0,1,4.4,133.43c-1.44,20.12-4,40.75-13.74,58.44s-28,32-48.14,31.49"/></g></g></g></svg>