<?xml version="1.0" encoding="UTF-8"?>
<svg id="Prior_to_November" data-name="Prior to November" viewBox="0 0 800 800" xmlns="http://www.w3.org/2000/svg">
 <defs>
  <style>.cls-1{fill:none;}.cls-2{clip-path:url(#clip-path);}.cls-3{fill:#e7e7e8;}.cls-4{fill:#54899b;}.cls-5{fill:#3e3a51;}.cls-6{fill:#e4e3e8;}.cls-7{fill:#e7e5e5;}.cls-8{fill:#578c9b;}.cls-9{fill:#2f152f;}.cls-10{fill:#ea9564;}.cls-11{clip-path:url(#clip-path-2);}.cls-12{fill:#e5e6e6;}</style>
  <clipPath id="clip-path">
   <path class="cls-1" d="M116.77-61.27C316.34-23.06,583.7,20.3,751.33-119.11c15-24.48,15.07-56.49,7.49-84.33C651.63-597,715.61-725,578.92-787.74,368.09-880.44,147.19-671.45,72.86-480.26"/>
  </clipPath>
  <clipPath id="clip-path-2">
   <path class="cls-1" d="m854.42-112.58c-30.63-606.88 607.07-916.12 669.69-466.17 7.51 109.3 38.77 325.63 44.44 400.13 1.35 17.74-7.93 30.24-17.68 42.24-126.14 149-591.68 74.87-696.45 23.8"/>
  </clipPath>
 </defs>
 <g id="Layer_128" data-name="Layer 128">
  <g class="cls-2">
   <path class="cls-3" d="M321-88.37c-46.93-159-32.42-338.22,39.46-487.38,18.13-37.62,41.39-75,76.64-94.33A141.92,141.92,0,0,1,473-683.29c60.95-14.32,130.19,3.78,169.61,54.94,27.79,36.05,38.42,83.64,45.57,129.86,3.08,19.86,5.68,39.86,10.51,59.3,5.25,21.14,13.1,41.42,21.6,61.29a909.78,909.78,0,0,0,92.65,166.2c16.49,23.38,35.07,49.65,31,78.77-2.08,14.94-10,28.28-19.17,39.89C785.24-42.68,724-18.27,664-4.2A678.68,678.68,0,0,1,482.57,13.31c-35.88-1.4-72.64-6-104.27-23.87s-57.41-51.53-58.54-89.88"/>
   <path class="cls-4" d="m468.81-208.17c29.19 31.86 53.07 199.8 41.58 212.74-11.18 12.59-23.26 24.43-37.48 31.63-19.46 9.8-41.54 10.12-62.91 7.95-49.65-5.07-98.07-22.71-146-40.24-25-9.12-51.1-19.07-69.48-41.52-8.61-10.52-15.05-23.29-20.42-36.48-22.59-55.45-26.77-119.36-17.88-178.91s30.22-115.25 56.47-166.42c19.16-37.37 8.71-57.23 42.63-74.25 3.52-1.77-1.23-4.42 0 0"/>
  </g>
 </g>
 <g id="Blanket">
  <path class="cls-5" d="M48.44,714.79c-1.06-14.95-2.55-29.88-3-44.84-.53-15.68-.62-31.41,0-47.07.6-13.92,2.19-27.82,3.93-41.65,1.94-15.54,4.53-31,6.85-46.49,2.35-15.65,4.61-31.32,7.09-46.95,2.17-13.68,4.81-27.28,6.84-41,1.68-11.32,2.83-22.73,4.12-34.12,1.71-15.14,3.16-30.31,5-45.43,1.78-14.42,3-29,6.24-43.12a299.15,299.15,0,0,1,13.57-42.53c8.5-21.49,21.42-40.61,35.7-58.6C153,200.1,173,178.76,197.43,162.36a159.3,159.3,0,0,1,57.83-23.73A212.08,212.08,0,0,1,310.39,135c14.3.85,28.56,3.28,42.68,5.88,21,3.88,41,11.26,60,21,16.72,8.53,32.57,18.55,46.76,31,7.66,6.73,15.8,13,22.95,20.21a328.6,328.6,0,0,1,25.71,28.74c10.71,13.73,20.64,28.1,30.59,42.41,11.9,17.09,23.13,34.65,35.27,51.57,10.84,15.12,22.77,29.46,33.75,44.49,10.28,14.06,19.64,28.8,30,42.81,8,10.79,16.6,21.1,25.35,31.28,6.26,7.28,13.11,14.06,19.84,20.93,7.85,8,16,15.76,23.76,23.86a229.39,229.39,0,0,1,36.57,50.16c7.67,14.23,12.5,28.89,12.67,45.1.16,15.1,1.15,30.21.81,45.28-.34,15.31-1.78,30.59-2.89,45.88-.86,12-1.81,23.92-3.06,35.85-.37,3.47-1.89,6.82-2.88,10.22-3.82-1.38-7,0-10.28,2-17.88,10.92-37.11,18.71-57.28,24.27-34.49,9.51-70,10.31-105.36,11.63-17.61.66-35.29-.26-52.93-.53q-29-.43-57.94-1c-18.31-.35-36.63-.48-54.92-1.22-22.54-.92-44.83-4-65.76-12.83a284.73,284.73,0,0,1-32-16.34c-17-9.84-17.28-27-17.2-43.57.08-15.93,1.51-31.87,2.64-47.78.22-3,1.11-6.44,3-8.55a136.67,136.67,0,0,1,16.32-16.05c15.86-12.8,34.27-21,53.2-28.13,26.64-10,53.63-19.11,79.89-30,23.47-9.74,44.28-23.91,59.36-45.06,22.51-31.58,32.19-66.65,26.87-105.22-3.68-26.69-14.71-50.7-29.69-72.93-16.42-24.38-37.07-44.78-59.5-63.6-36-30.23-76.5-48.06-124.34-48.17-32.29-.08-62.39,6.72-90,23.53C190,277.81,162,315.78,142.48,360.25c-16,36.49-11.12,72.91,4.36,108.46,13.16,30.23,34.57,53.68,60.08,74.1a614.59,614.59,0,0,1,48.16,42.62c12.78,12.63,18.9,29,20.41,47.15a184.88,184.88,0,0,1-1.24,42.77c-1.73,11.64-2.05,23.65-5.17,34.9-6.32,22.85-20,40.33-43.93,46.16C202.27,762,179,766,155.72,769.78c-16.26,2.67-32.68,1.64-48.26-4.19-21.35-8-38.13-21-44.53-44.25-1.12-4.08-4.25-6.3-8.49-6.62C52.45,714.58,50.44,714.76,48.44,714.79Z"/>
  <path class="cls-6" d="M48.44,714.79c2,0,4-.21,6-.07,4.24.32,7.37,2.54,8.49,6.62,6.4,23.29,23.18,36.26,44.53,44.25,15.58,5.83,32,6.86,48.26,4.19C179,766,202.27,762,225.15,756.41c23.9-5.83,37.61-23.31,43.93-46.16,3.12-11.25,3.44-23.26,5.17-34.9a184.88,184.88,0,0,0,1.24-42.77c-1.51-18.13-7.63-34.52-20.41-47.15a614.59,614.59,0,0,0-48.16-42.62c-25.51-20.42-46.92-43.87-60.08-74.1-15.48-35.55-20.38-72-4.36-108.46C162,315.78,190,277.81,232.35,252.07c27.64-16.81,57.74-23.61,90-23.53,47.84.11,88.32,17.94,124.34,48.17,22.43,18.82,43.08,39.22,59.5,63.6,15,22.23,26,46.24,29.69,72.93,5.32,38.57-4.36,73.64-26.87,105.22-15.08,21.15-35.89,35.32-59.36,45.06-26.26,10.9-53.25,20-79.89,30-18.93,7.09-37.34,15.33-53.2,28.13a136.67,136.67,0,0,0-16.32,16.05c-1.87,2.11-2.76,5.6-3,8.55-1.13,15.91-2.56,31.85-2.64,47.78-.08,16.56.25,33.73,17.2,43.57a284.73,284.73,0,0,0,32,16.34c20.93,8.86,43.22,11.91,65.76,12.83,18.29.74,36.61.87,54.92,1.22q29,.54,57.94,1c17.64.27,35.32,1.19,52.93.53,35.37-1.32,70.87-2.12,105.36-11.63,20.17-5.56,39.4-13.35,57.28-24.27,3.28-2,6.46-3.37,10.28-2,6.91,4.9,5.39,10.28.35,14.42a165.65,165.65,0,0,1-46.49,26.69c-19.82,7.6-40.45,12.29-61.28,15.89a268.09,268.09,0,0,1-30.76,3.06c-12.73.71-25.5.7-38.25,1.12-4.93.16-9.85,1-14.77.92q-43.62-.35-87.24-1c-16.26-.22-32.54-.15-48.75-1.09-27.78-1.61-55.58-3.55-81.93-13.85-18.95-7.4-37.26-15.87-52.31-30a62.28,62.28,0,0,1-5.06-6.1c-4.26,5.62-8.05,11.55-12.75,16.63-12,12.91-27.34,20.2-44.11,24.3-15.85,3.88-31.88,7.13-48,10-8.36,1.48-17,1.7-25.5,2.11-6.82.32-13.69.31-20.51,0-23.54-1-44.69-8.32-63-23.63a72.25,72.25,0,0,1-24.5-39.75C41.72,723.92,43.31,718.4,48.44,714.79Zm464.81-307c-.18-1.14-.26-2.3-.54-3.41-6.75-27-20.61-50.3-38.68-71-9.12-10.45-19.66-19.65-29.56-29.41-2.3-2.13-4.46-4.45-6.92-6.37-20.53-16-41.68-31.05-67-38.54-24.84-7.35-50-9.59-75.72-4.33-41,8.35-73.18,30.22-97.82,63.19-10.69,14.31-19.57,30.06-28.37,45.66a76.35,76.35,0,0,0-10.26,38.6l2,25.48a11,11,0,0,0,0,2c5.84,29.26,18.68,55.32,39.38,76.53,15.35,15.74,33.08,29.15,49.68,43.69,13.41,11.74,26.2,24.09,34.48,40.18,3.82,7.42,6.93,15.21,10.46,23.06,13.89-13.48,30.59-22.65,47.92-30.85,4.33-2,8.54-4.36,12.8-6.55l12.23-3.88c20.51-7.23,41.26-13.84,61.42-21.92,12.7-5.09,24.53-12.37,36.75-18.66,1.67-1.08,3.41-2.06,5-3.24,23-17,35.81-40.47,42.7-67.52A103.21,103.21,0,0,0,513.25,407.82Z"/>
  <path class="cls-7" d="m158.35 402.18a76.35 76.35 0 0 1 10.26-38.6c8.8-15.6 17.68-31.35 28.37-45.66 24.64-33 56.84-54.84 97.82-63.19 25.76-5.26 50.88-3 75.72 4.33 25.35 7.49 46.5 22.55 67 38.54 2.46 1.92 4.62 4.24 6.92 6.37a88.23 88.23 0 0 1-0.81 8.92c-8.68 45.77-20.4 90.79-36.32 134.54-11.78 32.38-25.35 64.11-38.12 96.12l-1 2.28v-0.08l-1 2.08v-0.07q-5.28 10.77-10.54 21.55c0.18 0.48 0.34 1 0.51 1.44-0.75 1.65-1.49 3.3-2.24 5-4.26 2.19-8.47 4.5-12.8 6.55-17.33 8.2-34 17.37-47.92 30.85-3.53-7.85-6.64-15.64-10.46-23.06-8.28-16.09-21.07-28.44-34.48-40.18-16.6-14.54-34.33-28-49.68-43.69-20.58-21.22-33.4-47.31-39.24-76.57a11 11 0 0 1 0-2c24.53-4.3 49.07-8.51 73.57-13 3.92-0.71 6.56-0.51 9.45 2.84 14.27 16.47 28.9 32.63 43.36 48.94 7.45 8.4 14.46 8.62 22.49 0.7q30.42-30 60.9-59.92c8.07-8 16.18-15.87 24.11-24a12.46 12.46 0 0 0 2.07-15.57c-2.6-4.56-8.46-7.53-13.69-5.68-3.57 1.26-6.89 3.91-9.66 6.62-24.77 24.22-49.39 48.59-74.21 73.08-12.8-14.38-25.73-28.48-38.15-43-7.54-8.82-16.51-11.48-27.63-9.48-24.86 4.51-49.74 8.7-74.6 13z"/>
  <path class="cls-8" d="m369.22 543.55c12.77-32 26.34-63.74 38.12-96.12 15.92-43.75 27.64-88.77 36.32-134.54a88.23 88.23 0 0 0 0.81-8.92c9.9 9.76 20.44 19 29.56 29.41 18.07 20.73 31.93 44 38.68 71 0.28 1.11 0.36 2.27 0.54 3.41-4.87 0.39-8.89 2.19-11.93 6.26s-6.46 7.61-9.46 11.59c-15.14 20-27.62 41.55-33.95 66-3.65 14.1-2.13 27.73 7.55 39.54-12.22 6.29-24 13.57-36.75 18.66-20.16 8.08-40.91 14.69-61.42 21.92l-7.91-1.09c1-2.59 1.84-4.57 2.53-6.61 1.84-5.45 3.61-10.91 5.42-16.37v0.07l1-2.08v0.08c0.26-0.69 0.58-1.45 0.89-2.21z"/>
  <path class="cls-9" d="M158.35,402.18c24.86-4.3,49.74-8.49,74.56-13,11.12-2,20.09.66,27.63,9.48,12.42,14.54,25.35,28.64,38.15,43,24.82-24.49,49.44-48.86,74.21-73.08,2.77-2.71,6.09-5.36,9.66-6.62,5.23-1.85,11.09,1.12,13.69,5.68a12.46,12.46,0,0,1-2.07,15.57c-7.93,8.09-16,16-24.11,24q-30.43,30-60.9,59.92c-8,7.92-15,7.7-22.49-.7-14.46-16.31-29.09-32.47-43.36-48.94-2.89-3.35-5.53-3.55-9.45-2.84-24.5,4.48-49,8.69-73.57,13Z"/>
  <path class="cls-9" d="m465.46 531.25c-9.68-11.81-11.2-25.44-7.55-39.54 6.33-24.49 18.81-46 33.95-66 3-4 6.49-7.6 9.46-11.59s7.06-5.87 11.93-6.26a103.21 103.21 0 0 1-0.09 52.67c-6.89 27.05-19.73 50.55-42.7 67.52-1.59 1.14-3.33 2.12-5 3.2z"/>
  <path class="cls-8" d="M367.33,547.76c-1.81,5.46-3.58,10.92-5.42,16.37-.69,2-1.53,4-2.53,6.61l7.91,1.09-12.23,3.88c.75-1.66,1.49-3.31,2.24-5l-.08.07c.14,0,.4-.08.4-.12a4.76,4.76,0,0,0-.11-.64l-.72-.75Q362.06,558.53,367.33,547.76Z"/>
  <path class="cls-10" d="M369.22,543.55c-.31.76-.63,1.52-1,2.28Z"/>
  <path class="cls-10" d="m368.31 545.75-1 2.08z"/>
  <path class="cls-10" d="M357.3,570.75c-.17-.48-.33-1-.51-1.44l.72.75a1.26,1.26,0,0,1-.29.76Z"/>
  <path class="cls-7" d="m357.22 570.82a1.26 1.26 0 0 0 0.29-0.76 4.76 4.76 0 0 1 0.11 0.64s-0.26 0.08-0.4 0.12z"/>
 </g>
 <g id="sir">
  <g id="Layer_131" data-name="Layer 131">
   <g class="cls-11">
    <path class="cls-12" d="M1423-23.26C1592.3,143.2,1297.41,157,1088.08,157S721.3-73,709.06-355.68C697.52-622-1111.15,2065.44,908.5-575.89c85.63-112,273.1-209.11,379-166.46,20.74,8.35,65.57,45.65,72.19,127.35,5.88,72.52-16,161.93-23.14,244.16-6.38,73.92,2.07,142.94,5.22,173.31C1348.85-129.49,1389.48-56.19,1423-23.26Z"/>
   </g>
  </g>
 </g>
</svg>
