<?xml version="1.0" encoding="UTF-8"?>
<svg id="Prior_to_November" data-name="Prior to November" viewBox="0 0 800 800" xmlns="http://www.w3.org/2000/svg">
 <defs>
  <style>.cls-1,.cls-20,.cls-24,.cls-3{fill:none;}.cls-10,.cls-2,.cls-4{fill:#ec3868;}.cls-2,.cls-20{stroke:#2f152f;}.cls-2,.cls-20,.cls-24,.cls-3,.cls-4{stroke-miterlimit:10;}.cls-2,.cls-20,.cls-24,.cls-4{stroke-width:3px;}.cls-3{stroke:#5ba4bb;}.cls-24,.cls-4{stroke:#439eba;}.cls-5{fill:#54899b;}.cls-6{clip-path:url(#clip-path);}.cls-7{fill:#e5e6e6;}.cls-8{fill:#2f152f;}.cls-9{fill:#1f1f1f;}.cls-11{fill:#f0e6e8;}.cls-12{fill:#c64744;}.cls-13{fill:#b6d677;}.cls-14{fill:#578157;}.cls-15{clip-path:url(#clip-path-2);}.cls-16{fill:#e7e7e8;}.cls-17{clip-path:url(#clip-path-3);}.cls-18{fill:#c4d9e3;}.cls-19{fill:#732a81;}.cls-21{clip-path:url(#clip-path-4);}.cls-22{clip-path:url(#clip-path-5);}.cls-23{fill:#6ec9ec;}</style>
  <clipPath id="clip-path">
   <path class="cls-1" d="M166.83,585.94C140,193.35,698-6.7,752.8,284.37c6.57,70.71,33.92,210.66,38.88,258.85,1.18,11.48-6.94,19.56-15.47,27.32C665.84,667,258.51,619,166.83,585.94"/>
  </clipPath>
  <clipPath id="clip-path-2">
   <path class="cls-1" d="M30.68-78.52c-32.5-476,644-718.57,710.47-365.65,6,64.35,38.23,227.22,47.14,313.85,1.43,13.91-8.41,23.72-18.76,33.13C635.72,19.72,141.83-38.46,30.68-78.52"/>
  </clipPath>
  <clipPath id="clip-path-3">
   <path class="cls-2" d="M381.56-535C214.5-1082-290-479,265.6-100.32c5.72,3.9,58.38-3.07,65.15-4.17,726-117.39,384.32-835.29,50.81-430.49"/>
  </clipPath>
  <clipPath id="clip-path-4">
   <path class="cls-3" d="m1206-531.89c-167.06-547-671.59 56-116 434.66 5.72 3.9 58.38-3.07 65.15-4.16 726-117.39 384.32-835.3 50.81-430.5"/>
  </clipPath>
  <clipPath id="clip-path-5">
   <path class="cls-4" d="m1206-533.72c-167.06-556.27-671.59 57-116 442 5.72 4 58.38-3.13 65.15-4.24 726-119.38 384.32-849.46 50.81-437.79"/>
  </clipPath>
 </defs>
 <g id="hold_asparagus" data-name="hold asparagus">
  <g id="ReadOcto">
   <path class="cls-5" d="m171.29 583.41c-26.8-392.59 531.17-592.65 586-301.57 6.57 70.71 33.92 210.65 38.88 258.85 1.18 11.47-6.94 19.56-15.47 27.32-110.36 96.42-517.7 48.44-609.38 15.4"/>
   <g class="cls-6">
    <path class="cls-7" d="M664.31,643.72c148.15,107.69-418.82,144.86-517.44-9.48S-54.24,504.88,260.66,249.61C298.5,218.93,453.1,151,545.78,178.54c18.15,5.4,57.38,29.53,63.17,82.38,5.15,46.92-14,104.76-20.25,158-5.58,47.82,1.81,92.47,4.57,112.12C599.45,575,635,622.42,664.31,643.72Z"/>
   </g>
   <path class="cls-8" d="m687.69 382.77c-5.58-3.37-19.61 3.53-25.56 6.19-28.8 12.88-49.9 44.86-44.1 75.87a43 43 0 0 0 5 13.93 45 45 0 0 0 11.44 12.47c20.35 15.74 50.11 18.12 72.71 5.83s36.74-38.59 34.57-64.23c-1.35-15.85-8.85-31.45-21.57-41s-30.7-12.36-45.07-5.53"/>
   <path class="cls-9" d="M262.6,310.45a321.5,321.5,0,0,1-2.84,40.66l.53-4c-.41,3.08-.87,6.17-1.38,9.24-.42,2.57-.86,5.13-1.17,7.72a24.7,24.7,0,0,0,.53,7,20.82,20.82,0,0,0,3.71,8.75,27.51,27.51,0,0,0,4.1,4.85,28.2,28.2,0,0,0,5.46,3.92,29.26,29.26,0,0,0,13.09,3.34,35.94,35.94,0,0,0,6.69-.79l3.52-.65,33-6.12c4.44-.82,8.89-1.76,13.36-2.36l-4,.53a33,33,0,0,1,8.25-.14l-4-.53a21.74,21.74,0,0,1,5.12,1.41L343,381.74c4.51,1.94,8.57,5,12.65,7.77L371.32,400,401,419.9a24.88,24.88,0,0,0,9.5,4.05c4.9.85,9.94,1,14.7-.73a27.78,27.78,0,0,0,6.35-3,29.53,29.53,0,0,0,7.79-7.73c1.53-2.08,3-4.18,4.53-6.27l23.59-32.7c6-8.26,12-16.48,17.9-24.8l.29-.4a11.11,11.11,0,0,0,1.78-5.58,11.28,11.28,0,0,0-.27-6,15.22,15.22,0,0,0-6.89-9c-3.48-1.84-7.7-2.76-11.56-1.51l-3.58,1.51a15,15,0,0,0-5.38,5.38l-15.64,21.68-24.86,34.44c-1.94,2.68-3.84,5.4-5.81,8l2.34-3a13.19,13.19,0,0,1-2.14,2.15l3-2.35a13.8,13.8,0,0,1-2.57,1.52l3.59-1.51a14.35,14.35,0,0,1-3.52,1l4-.53a14.35,14.35,0,0,1-3.34,0l4,.53a14.23,14.23,0,0,1-3.27-.87l3.58,1.51a40,40,0,0,1-6.09-3.8l-11.15-7.47-27.32-18.32-7.84-5.25c-1.31-.89-2.63-1.78-4-2.61a38.68,38.68,0,0,0-21.36-6.09c-5.81.15-11.57,1.41-17.28,2.46L310,357.25q-13.21,2.44-26.44,4.9c-.37.06-.73.13-1.11.18l4-.53a14.55,14.55,0,0,1-3.49,0l4,.53a13.57,13.57,0,0,1-3.2-.89l3.58,1.51a13.61,13.61,0,0,1-2.77-1.65l3,2.35a13.18,13.18,0,0,1-2-2l2.34,3a12.11,12.11,0,0,1-1.43-2.43l1.51,3.59a11.88,11.88,0,0,1-.77-2.74l.54,4a12.21,12.21,0,0,1,0-3l-.53,4c1.61-10.1,3.13-20.21,4.07-30.4q1.25-13.57,1.32-27.23a15.45,15.45,0,0,0-4.39-10.61,15.23,15.23,0,0,0-10.61-4.39c-3.88.17-7.9,1.45-10.6,4.39a15.69,15.69,0,0,0-4.4,10.61Z"/>
   <path class="cls-10" d="m279.09 116.35q19.47 96.18 38.34 192.46c-69.34 23.07-147 45.56-219.76 36.75-16.67-30.63 35.06-98.75 54.77-124.14 25.16-30.65 53.68-58.37 79.65-88.34 9.93-15 27.52-27.67 46.77-17.39"/>
   <path class="cls-11" d="M111.11,297.28,90,327c75.56-.39,158.73,1.67,234.21-3.72-44.09-196.43-2.64-9.5-50.87-195.91-34.78,28.71-65.28,62.16-94.25,95.42-23.28,24.65-48.27,47.17-68,74.45"/>
   <path class="cls-8" d="M70.91,341.3q9.66,40.84,19.85,81.56,10.13,40.51,20.78,80.9,10.71,40.59,21.93,81t23,80.74q11.69,40.1,23.87,80,1.55,5.07,3.1,10.13c1.88,6.14,11.54,3.52,9.64-2.65q-12.3-40.12-24.11-80.4-11.75-40.08-23-80.31-11.28-40.43-22-81t-21-81.26Q92.68,389.58,83,349q-1.23-5.15-2.45-10.3c-1.48-6.26-11.12-3.61-9.64,2.65Z"/>
   <path class="cls-12" d="M31.26,307.9c29.71,152,87.46,321.19,134.17,468.9,174.58-19.71,325-40.86,498-71.75-16-56.69-98.51-368.62-142.45-481.87-45.28.41-123.78,30-419.43,77.69C193.84,197.57,224.3,155,272.63,113.11,230.07,100.53,213,94,209.23,95c-5,1.35-110,132.4-178,212.91"/>
   <path class="cls-13" d="m334.27 417.51 46.79 26.49-155.44-18.59c-81.62 9.17-136.62 81.88-57.95 141.31-2.75-29.37 21-81.49 55.69-72.47 17.13 76.2-39.11 109.24 64.81 173 139 81 299.23-155.69 142.12-214.66 43.12-5.78 79.31 16.88 106.75 52.37 23.34-113.09-135.77-184.4-202.77-87.45z"/>
   <path class="cls-13" d="m301.58 487.52c163 244.36 81.82-286.83-71.39-56.12"/>
   <path class="cls-14" d="M276.43,465.32a112.49,112.49,0,0,1,10.39,6.74q1.21.88,2.4,1.8c.19.14.77.55-.12-.1.21.15.4.31.6.47l1.17.93c1.62,1.3,3.2,2.64,4.76,4a242.63,242.63,0,0,1,17.8,17.48c11.49,12.29,22.3,25.24,34.55,36.8a155,155,0,0,0,22.74,18,5.08,5.08,0,0,0,6.06-.78,63.27,63.27,0,0,0,16.35-27.21,80,80,0,0,0,2.44-30.4c-2.19-22.1-10.61-43.25-21.13-62.64a250.46,250.46,0,0,0-18.05-28.52c-1.54-2.11-4.41-3.36-6.84-1.79-2.09,1.34-3.44,4.58-1.79,6.84a252,252,0,0,1,15.87,24.6q3.87,6.82,7.29,13.9c1.17,2.45,2.31,4.92,3.39,7.41.23.55.48,1.09.7,1.63-.53-1.33.25.62.38.94.52,1.26,1,2.52,1.51,3.79a141.51,141.51,0,0,1,8.28,30.5c0,.16.31,1.14.05.34s0,.16,0,.33c.09.67.17,1.33.24,2,.12,1.21.23,2.43.31,3.65q.27,3.76.2,7.54a73,73,0,0,1-.48,7.39c0,.21-.05.42-.07.63-.13,1.15.18-1.2,0-.06-.08.52-.15,1.05-.24,1.57-.21,1.25-.45,2.49-.73,3.73a61.12,61.12,0,0,1-2.26,7.7c-.23.64-.49,1.27-.74,1.91-.41,1,.48-1.07,0,0l-.39.86c-.57,1.26-1.18,2.49-1.84,3.7a56.42,56.42,0,0,1-4.37,6.79l-.19.26.17-.22a4.38,4.38,0,0,1-.72.9c-.46.57-.93,1.12-1.41,1.66q-1.48,1.67-3.07,3.22l6.06-.78c-1.76-1.12-3.5-2.29-5.2-3.51-.83-.59-1.65-1.18-2.46-1.79-.35-.27-.7-.54-1.06-.8-.73-.56,0,0,.11.08-.31-.19-.61-.48-.9-.7-3.23-2.56-6.36-5.26-9.39-8.06-6.18-5.69-12-11.77-17.66-18-11.32-12.34-22.18-25.19-34.67-36.4a136.71,136.71,0,0,0-23.06-17,5,5,0,0,0-5.05,8.64Z"/>
   <path class="cls-14" d="m300 649.14c-15-12.31-40-51.92-19.82-66.13 27.85-4.53 70.57 100 21.12 66.27"/>
   <path class="cls-14" d="M301.79,647.37c-6.48-5.34-11.59-12.06-16-19.08-4.89-7.78-9.11-16.3-10.4-25.49,0,.12.05.39,0-.14,0-.26-.06-.53-.08-.79-.05-.53-.09-1-.12-1.58a28.4,28.4,0,0,1,0-3.06c0-.41.06-.83.1-1.24.09-.8-.08.49,0-.3l.12-.72a20.54,20.54,0,0,1,.73-2.77,9.66,9.66,0,0,1,.86-2c.23-.42.46-.82.72-1.21.13-.2.26-.4.4-.59,0,0,.47-.61.18-.25a15.66,15.66,0,0,1,2-2.12l.38-.33c.05,0,.48-.55.3-.25.32-.55-.09.29-.48,0,.06,0,.41-.05.49-.05.45,0,.89,0,1.34,0l.62,0c.12,0,.25,0,.37,0,.43,0-.69-.13,0,0a18.41,18.41,0,0,1,2.91.79c.19.07,1.07.46.29.1l.64.29c.53.24,1,.51,1.55.8a32.77,32.77,0,0,1,3.09,2l.32.24c.29.22-.48-.38-.05,0l.77.62c.53.44,1,.88,1.55,1.34,1,.92,2,1.88,2.93,2.87s2,2.18,2.94,3.32q.72.86,1.41,1.74l.31.39c.24.32-.36-.47,0,0l.84,1.12a111.25,111.25,0,0,1,10,16.53c.71,1.43,1.4,2.87,2.05,4.33l.9,2.06c-.23-.53.22.54.29.71l.46,1.12c1.1,2.79,2.1,5.63,2.92,8.52a61.63,61.63,0,0,1,1.71,7.68c.12.81,0-.36,0,.33,0,.3.07.59.1.89.05.57.1,1.14.12,1.72a23.44,23.44,0,0,1,0,3c0,.24-.06.48-.07.72s.12-.68,0,0c-.08.44-.16.88-.28,1.31s-.26.72-.35,1.08.31-.57.09-.23c-.05.08-.07.19-.12.27s-.2.4-.32.59-.17.25-.25.39c-.34.58.38-.36,0,0a8.89,8.89,0,0,0-.76.74c-.12.15.59-.35.08-.07-.16.08-.31.18-.46.27s-.79.2,0,0a5.62,5.62,0,0,0-.53.19c-.34.1-1.45.19-.49.15-.43,0-.85.07-1.29.06-.23,0-.46,0-.7,0-.48,0-.53-.08-.13,0-.55-.11-1.1-.21-1.64-.35s-1.06-.3-1.58-.49c-.26-.08-.51-.18-.76-.27l-.47-.19c-.4-.15.45.21-.2-.09a43.57,43.57,0,0,1-4-2.05c-1.58-.9-3.11-1.88-4.61-2.9-2.67-1.82-5.17,2.51-2.53,4.31,4.83,3.29,10.71,7,16.76,7.07a9.06,9.06,0,0,0,9-6.73c1.42-4.51.66-9.66-.29-14.18a90.39,90.39,0,0,0-6.14-18,115.53,115.53,0,0,0-9.81-17.72,72.9,72.9,0,0,0-12.36-14.5c-3.92-3.39-8.52-6.37-13.79-6.93a11.44,11.44,0,0,0-3.6.11c-1.87.41-3.81,2.62-5,4.07a21.52,21.52,0,0,0-4.57,11.85c-.84,9.48,3,19.19,7.28,27.44a97.59,97.59,0,0,0,16.73,23.28,52.25,52.25,0,0,0,4,3.71,2.57,2.57,0,0,0,3.53,0,2.52,2.52,0,0,0,0-3.54Z"/>
   <path class="cls-14" d="m342 569.65c-1 20.48 32.72 71.4 47.7 39.08 3.3-19-57.3-77.86-48.7-33.17"/>
   <path class="cls-14" d="M339.5,569.65c-.3,6.6,2.08,13.26,4.66,19.21a82.34,82.34,0,0,0,12.19,19.91c4.23,5.09,9.51,10.12,15.95,12.18,6.08,1.94,12.08-.21,16-5.14,2.05-2.58,4.13-5.64,4-9a21.42,21.42,0,0,0-1.44-6.69A62.86,62.86,0,0,0,382,584.63a112.71,112.71,0,0,0-13.51-15.11,63.56,63.56,0,0,0-14.12-10.45c-3.66-1.84-8.51-3.59-12.39-1.32-4.3,2.52-4.61,8.38-4.23,12.79a54.48,54.48,0,0,0,.81,5.69,2.5,2.5,0,0,0,4.82-1.33c-.16-.84-.3-1.68-.43-2.52s.06.49,0-.28c0-.15,0-.3-.05-.46-.05-.43-.09-.87-.13-1.31a26.43,26.43,0,0,1,0-4c0-.27.06-.53.08-.8-.08.81,0,0,.05-.24a11.35,11.35,0,0,1,.36-1.39c0-.12.31-.8.11-.34s.1-.18.15-.29l.28-.48a1.43,1.43,0,0,0,.15-.22c.17-.36-.42.41-.13.17a5.87,5.87,0,0,0,.71-.7c-.5.59-.3.19,0,.06a3.25,3.25,0,0,0,.52-.28c.1-.08-.65.17-.05,0a4.94,4.94,0,0,0,.48-.13c.26-.08.81,0-.06,0l.64,0c.37,0,.74,0,1.12,0,.62,0-.59-.14,0,0,.22,0,.45.08.67.14a18.17,18.17,0,0,1,2.68.86c.51.2-.54-.24,0,0l.28.13c.23.11.47.21.7.33.54.26,1.08.54,1.6.83,1.09.6,2.15,1.26,3.18,2s2.12,1.48,3.15,2.27c-.46-.35.31.25.45.36l.8.64c.6.49,1.19,1,1.78,1.49a107.12,107.12,0,0,1,12.94,13.4l1.41,1.76c.44.57-.18-.23.08.11l.34.45c.27.35.54.7.8,1.06.88,1.19,1.74,2.4,2.56,3.64a63.64,63.64,0,0,1,4.17,7.14c.27.55.52,1.09.77,1.64l.14.33c.24.55-.21-.52,0,0l.37.94a25.53,25.53,0,0,1,1,3.08c.1.44.18.88.27,1.33.13.67,0-.51,0,.14,0,.26.05.52.06.78,0,.42,0,.83,0,1.24s-.21.83,0,0c-.11.41.2-.44,0,0a9.13,9.13,0,0,1-.43.89c-.41.77-.84,1.54-1.31,2.27-.22.35-.45.68-.68,1-.09.13-.18.26-.28.38.3-.39-.25.31-.31.38a17.27,17.27,0,0,1-1.38,1.46l-.75.65c-.31.25.48-.33,0,0l-.47.32a13.34,13.34,0,0,1-1.57.87c-.55.26.52-.18-.05,0l-.32.12c-.32.11-.65.2-1,.28l-.83.16c.77-.14-.17,0-.35,0a14.6,14.6,0,0,1-1.87-.05c-.45,0,.08,0,.15,0l-.52-.09c-.29-.05-.58-.12-.87-.19-.63-.16-1.23-.38-1.84-.59-.13,0-.55-.23,0,0l-.44-.2-.88-.42c-.64-.33-1.25-.68-1.85-1.06s-1.19-.78-1.76-1.2l-.53-.39c.08.06.36.28,0,0l-1-.86a48.37,48.37,0,0,1-3.6-3.42,72.82,72.82,0,0,1-12-17.44,64.4,64.4,0,0,1-3.87-9.13c-.52-1.51-1-3-1.34-4.61-.17-.68-.32-1.38-.45-2.08-.06-.33-.11-.67-.17-1l-.06-.4c.1.68,0-.18,0-.31a22.73,22.73,0,0,1-.14-3.6c.15-3.21-4.85-3.21-5,0Z"/>
   <path class="cls-14" d="M284.77,560a34.67,34.67,0,0,1,1.44-4.2l-1,2.39a34,34,0,0,1,4.29-7.32l-1.56,2a34.47,34.47,0,0,1,6-6l-2,1.57a33,33,0,0,1,7-4.1l-2.38,1a32.79,32.79,0,0,1,8.25-2.21l-2.65.35a34.78,34.78,0,0,1,8.59,0l-2.65-.35a34.18,34.18,0,0,1,8.3,2.22l-2.39-1a33.76,33.76,0,0,1,4,2c4.5,2.66,11.16,1.18,13.68-3.59a10.19,10.19,0,0,0-3.59-13.68,43.68,43.68,0,0,0-31.46-4.79,38.89,38.89,0,0,0-13,5.53,46.77,46.77,0,0,0-11.51,11,40.27,40.27,0,0,0-6.62,13.75,10.37,10.37,0,0,0,1,7.71,10.18,10.18,0,0,0,6,4.59c5.26,1.2,10.85-1.58,12.3-7Z"/>
   <path class="cls-5" d="M574.46,432.05c-36,29.18-104.64,22.1-130.82,61.37C381.06,624,693.58,688,670,578.54c-3.37-15.68-27.86-30.21-34-50-18.09-58.42-27.52-124.23-61.59-96.53"/>
   <path class="cls-8" d="M580.81,424.93a75.55,75.55,0,0,1-11.92,7.12c-1.1.54-2.2,1.05-3.32,1.55l-1.71.75c-.8.35,1-.42.21-.09l-1,.41c-2.38,1-4.79,1.88-7.21,2.74-10.44,3.68-21.17,6.51-31.85,9.37-11.15,3-22.31,6-33.22,9.76-10.75,3.72-21.41,8.17-31,14.31a78,78,0,0,0-24,23.25c-.73,1.14-1.42,2.3-2.08,3.48a5,5,0,1,0,8.63,5,63.18,63.18,0,0,1,4.35-6.76c.16-.22.34-.45.5-.68.5-.67-.69.87,0,0,.44-.55.88-1.1,1.34-1.64.82-1,1.66-1.91,2.53-2.83a71.06,71.06,0,0,1,5.72-5.39l1.41-1.17.78-.61c.88-.7-.82.61.11-.08s2.05-1.52,3.1-2.24a106,106,0,0,1,14.06-8.08c1.25-.6,2.5-1.18,3.76-1.75l1.78-.78c.32-.13,1.43-.57,0,0l1-.4q3.92-1.62,7.91-3.05c10.76-3.89,21.79-6.92,32.83-9.88,10.73-2.89,21.5-5.67,32-9.21,9.53-3.2,19.12-7,27.53-12.56.94-.62,1.86-1.27,2.76-1.94,2.09-1.55,3.37-4.4,1.79-6.84-1.33-2.07-4.59-3.45-6.84-1.79Z"/>
  </g>
  <g id="heart">
   <g class="cls-15">
    <path class="cls-16" d="M97-127.24c20-77.31,43.9-137.18,78.93-208.65s212.4-366.25,388.91-103.79c25.39,37.75,33.18,84.95,41.7,130C619.75-239.9,630.65-168,618.68-98c-.65,3.79-1.46,7.77-4,10.62s-5.94,3.94-9.33,5C477.28-40.41,705.93,9.92,571.9-.93c-17.68-1.43-401-46.5-418.2-51.12-10.22-2.74-16.38,24.63-24.47,17.66C115.56-46.16,83.47-46.09,78.4-63.64"/>
   </g>
   <path class="cls-10" d="M381.56-535C214.5-1082-290-479,265.6-100.32c5.72,3.9,58.38-3.07,65.15-4.17,726-117.39,384.32-835.29,50.81-430.49"/>
   <g class="cls-17">
    <rect class="cls-18" transform="translate(-74.43 -85.34) rotate(12.41)" x="-58.75" y="-710.49" width="828.22" height="650.95"/>
    <path class="cls-19" d="M-227.7-261.81c3.23.53,6.45,1.1,9.68,1.58Q336.85-177.05,891.71-93.9c3.23.49,6.47.89,9.71,1.33C896-56.12,890.31-19.69,885.21,16.82c-.85,6.06-2.28,7.05-8.32,6.14Q567.75-23.69,258.55-69.89,10.22-107.12-238.11-144.16c-6-.9-7.12-2.27-6.16-8.31C-238.44-188.87-233.16-225.35-227.7-261.81Z"/>
   </g>
   <path class="cls-20" d="M381.56-535C214.5-1082-290-479,265.6-100.32c5.72,3.9,58.38-3.07,65.15-4.17,726-117.39,384.32-835.29,50.81-430.49"/>
  </g>
  <g id="Layer_132" data-name="Layer 132">
   <g class="cls-21">
    <rect class="cls-18" transform="translate(-54.51 -262.4) rotate(12.41)" x="765.67" y="-707.4" width="828.22" height="650.95"/>
    <path class="cls-19" d="M596.72-258.71c3.23.53,6.44,1.09,9.68,1.58L1716.13-90.8c3.23.48,6.47.88,9.71,1.32-5.47,36.46-11.11,72.89-16.21,109.39-.85,6.06-2.28,7.06-8.32,6.15Q1392.16-20.59,1083-66.8,834.65-104,586.3-141.07c-6-.89-7.12-2.26-6.15-8.31C586-185.77,591.26-222.26,596.72-258.71Z"/>
    <path class="cls-10" d="m1206-533.72c-167.06-556.27-671.59 57-116 442 5.72 4 58.38-3.13 65.15-4.24 726-119.38 384.32-849.46 50.81-437.79"/>
    <g class="cls-22">
     <polygon class="cls-23" points="1514.3 29.82 705.41 -152.13 845.27 -802.17 1654.1 -620.23"/>
    </g>
    <path class="cls-24" d="m1206-533.72c-167.06-556.27-671.59 57-116 442 5.72 4 58.38-3.13 65.15-4.24 726-119.38 384.32-849.46 50.81-437.79"/>
   </g>
   <path class="cls-3" d="m1206-531.89c-167.06-547-671.59 56-116 434.66 5.72 3.9 58.38-3.07 65.15-4.16 726-117.39 384.32-835.3 50.81-430.5"/>
  </g>
 </g>
</svg>
