<svg id="Prior_to_November" data-name="Prior to November" xmlns="http://www.w3.org/2000/svg" xmlns:xlink="http://www.w3.org/1999/xlink" viewBox="0 0 800 800"><defs><style>.cls-1{fill:none;}.cls-2{fill:#f9a61b;}.cls-3{fill:#72a441;}.cls-4{fill:#ef8f21;}.cls-5{fill:#2f152f;}.cls-6{clip-path:url(#clip-path);}</style><clipPath id="clip-path"><path class="cls-1" d="M-50.24,733.85C-54,753.69-77.15,762.31-96.85,766.8a1091.79,1091.79,0,0,1-385.54,17.7c-52.68-7-111.43-22.47-136.92-69.1-14.61-26.71-15.1-58.56-15.82-89-2.19-92.69-6.75-163.22-19.53-255-1.33-9.51,47.58-81.78,54.86-88.94,64.35-63.38,122.53-63.32,212.4-54.3,85.43,8.58,171.92,35.77,234.93,94.1,69.23,64.08,102.71,158.64,116.23,252,9.31,64.23,16.54,102.36-14,159.62"/></clipPath></defs><g id="hold_asparagus" data-name="hold asparagus"><g id="blahajolantern"><path class="cls-2" d="M366.58,251.45c64.48-12.73,143.2-12.2,207.9-.63,20.51,3.67,41.17,8.69,59.1,19.32,32.28,19.15,52,54.41,62.61,90.41,20.69,70,12.15,145.18-1.41,216.93-5.18,27.4-11.17,55-23.14,80.16C641.51,721,576,762.12,507.74,778.41s-139.71,11-209.4,2.64c-44.93-5.36-91.08-12.38-129.9-35.64-52.11-31.21-84.13-87.79-103-145.51A493.5,493.5,0,0,1,43.63,395.34c4.64-44,17.93-91.47,54.51-116.38,20.84-14.18,46.5-19,71.46-22.63a1032.21,1032.21,0,0,1,137-10.53c24.11-.24,52,5.65,59.93,5.65"/><path class="cls-3" d="M289.62,249.24c-4-33.54-17-77.23-47-92.7L265.21,127a15.47,15.47,0,0,1,4.78-4.65c3.92-2,8.68-.45,12.75,1.27a284.47,284.47,0,0,1,124,101.67c4.36,6.43,8.54,14.82,4.66,21.55-2,3.53-5.84,5.6-9.53,7.3-35.3,16.33-78.47,14.43-112.2-4.93"/><path class="cls-4" d="M409.63,789.2c-45.85,13.48-82.77-17-113.37-45.28s-42.07-64.84-49.34-100.4c-19.13-93.75-14.87-190,12.53-282.66,13.8-46.68,42.76-99.42,106.18-111.77,50.63-9.86,105.06,12.1,134.82,43.47s39.8,70.24,46.71,108c14.07,76.88,18.13,154.79,10.54,232.15-3.44,35-9.68,70.9-32.88,101.67S457.88,790,409.63,789.2"/><path class="cls-5" d="M165.89,480.16c-4.8-2.9-16.85,3-22,5.32C119.17,496.55,101,524,106,550.68a37.32,37.32,0,0,0,4.26,12,38.44,38.44,0,0,0,9.84,10.7c17.48,13.53,43.05,15.58,62.47,5s31.57-33.16,29.71-55.18c-1.16-13.63-7.61-27-18.53-35.26S167.39,477.3,155,483.17"/><path class="cls-5" d="M635.71,480.16c-4.79-2.9-16.85,3-22,5.32C589,496.55,570.87,524,575.85,550.68a37.11,37.11,0,0,0,4.27,12,38.41,38.41,0,0,0,9.83,10.7c17.48,13.53,43.06,15.58,62.47,5S684,545.2,682.13,523.18c-1.16-13.63-7.61-27-18.53-35.26s-26.39-10.62-38.74-4.75"/><path class="cls-5" d="M289.36,574.87l29.18,49.79,7.29,12.45a39.9,39.9,0,0,0,5,7.18,18.15,18.15,0,0,0,12.72,5.53c6.39.16,12.16-3.36,17.74-6l12.81-6.14,14.61-7c4.83-2.32,9.62-4.78,14.53-6.91l-3,1.26a18.18,18.18,0,0,1,4.57-1.34l-3.33.44a12.36,12.36,0,0,1,2.58,0l-3.32-.44a16.4,16.4,0,0,1,3.71,1.06l-3-1.26c4.91,2.09,9.59,4.88,14.32,7.35l14.76,7.72,14.75,7.72c4.83,2.52,9.6,5.29,14.55,7.56a23.19,23.19,0,0,0,5.85,2.13,20.57,20.57,0,0,0,4.56.45,17.7,17.7,0,0,0,6-1.37,18.53,18.53,0,0,0,9.28-8.55,82.72,82.72,0,0,0,3.79-9.3q1.41-3.78,2.75-7.6,5.2-14.93,9.17-30.25,4.49-17.39,7.31-35.13a9.48,9.48,0,0,0,.22-5,9.25,9.25,0,0,0-1.48-4.65,12.49,12.49,0,0,0-17.1-4.49c-2.57,1.66-5.25,4.33-5.75,7.47a380.44,380.44,0,0,1-15.09,61.34c-1.88,5.58-3.8,11.2-6.06,16.64l1.26-3a14.77,14.77,0,0,1-1.55,2.84l2-2.53a8.65,8.65,0,0,1-1.19,1.23l2.53-2a6,6,0,0,1-1.18.67l3-1.26a5.87,5.87,0,0,1-1.15.29l3.32-.44a7.34,7.34,0,0,1-1.24,0l3.33.45a10.46,10.46,0,0,1-2.46-.69l3,1.26c-4-1.73-7.79-4-11.65-6l-11.67-6.11L426,608c-3.8-2-7.57-4.18-11.49-5.92a30.64,30.64,0,0,0-11.07-3,24.2,24.2,0,0,0-5.69.55,16.36,16.36,0,0,0-2.92.79c-4.81,1.77-9.4,4.19-14,6.4l-12.14,5.81-13.49,6.46c-4.48,2.14-8.91,4.44-13.47,6.41l3-1.26a14.8,14.8,0,0,1-3.25,1l3.32-.44a8.88,8.88,0,0,1-1.63,0l3.33.45a7,7,0,0,1-1.57-.43l3,1.26a10.14,10.14,0,0,1-.95-.55l2.53,2a9.21,9.21,0,0,1-1.55-1.57l2,2.53a62.68,62.68,0,0,1-3.45-5.65l-3.9-6.66L334.84,603l-15.22-26-8.68-14.81a12.49,12.49,0,0,0-17.1-4.49,12.6,12.6,0,0,0-5.74,7.47,13,13,0,0,0,1.26,9.64Z"/></g><g id="Layer_171" data-name="Layer 171"><g class="cls-6"><path class="cls-4" d="M-547.59,799.93c149.46-37.47,127.48-218.16,129.74-335,53.44-215.73,301-221.58,403.07-37,369.68,571.33-509.42,600.39-532.81,372"/></g></g></g></svg>