<svg id="Prior_to_November" data-name="Prior to November" xmlns="http://www.w3.org/2000/svg" xmlns:xlink="http://www.w3.org/1999/xlink" viewBox="0 0 800 800"><defs><style>.cls-1{fill:none;}.cls-2{fill:#54899b;}.cls-3{clip-path:url(#clip-path);}.cls-4{fill:#e7e7e8;}.cls-5{fill:#2f152f;}.cls-6{clip-path:url(#clip-path-2);}.cls-7{fill:#e5e6e6;}</style><clipPath id="clip-path"><path class="cls-1" d="M116.77,758.73c199.57,38.21,466.93,81.57,634.56-57.84,15-24.48,15.07-56.49,7.49-84.33C651.63,223,715.61,95,578.92,32.26,368.09-60.44,147.19,148.55,72.86,339.74"/></clipPath><clipPath id="clip-path-2"><path class="cls-1" d="M854.42,707.42c-30.63-606.88,607.07-916.12,669.69-466.17,7.51,109.3,38.77,325.63,44.44,400.13,1.35,17.74-7.93,30.24-17.68,42.24-126.14,149-591.68,74.87-696.45,23.8"/></clipPath></defs><g id="Layer_128" data-name="Layer 128"><path class="cls-2" d="M127.92,762.67c-247-38.74-64.16-678.58,192.44-557C448.8,289.52,446.38,468,470.78,601.56c19.51,79.22-22.46,157.72-101.13,191.66"/><path class="cls-2" d="M116.77,758.73c199.57,38.21,466.93,81.57,634.56-57.84,15-24.48,15.07-56.49,7.49-84.33C651.63,223,715.61,95,578.92,32.26,368.09-60.44,147.19,148.55,72.86,339.74"/><g class="cls-3"><path class="cls-4" d="M321,731.63c-46.93-159-32.42-338.22,39.46-487.38,18.13-37.62,41.39-75,76.64-94.33A141.92,141.92,0,0,1,473,136.71c60.95-14.32,130.19,3.78,169.61,54.94,27.79,36,38.42,83.64,45.57,129.86,3.08,19.86,5.68,39.86,10.51,59.3,5.25,21.14,13.1,41.42,21.6,61.29a909.78,909.78,0,0,0,92.65,166.2c16.49,23.38,35.07,49.65,31,78.77-2.08,14.94-10,28.28-19.17,39.89C785.24,777.32,724,801.73,664,815.8a678.68,678.68,0,0,1-181.45,17.51c-35.88-1.4-72.64-6-104.27-23.87s-57.41-51.53-58.54-89.88"/><path class="cls-2" d="M468.81,611.83c29.16,31.86,53.07,199.8,41.58,212.74-11.18,12.59-23.26,24.47-37.48,31.63-19.46,9.81-41.54,10.12-62.88,7.95-49.68-5.07-98.1-22.71-146.08-40.24-25-9.12-51.1-19.07-69.48-41.52-8.61-10.52-15.05-23.29-20.42-36.48C151.51,690.46,147.33,626.55,156.22,567s30.22-115.25,56.47-166.42c19.16-37.37,8.71-57.23,42.63-74.25,3.52-1.77-1.23-4.42,0,0"/></g><path class="cls-2" d="M147.12,292.13c30-123.62,90.48-21,169.38,107.43C392,522.38,494.6,654.77,494.6,696.91"/><path class="cls-5" d="M156.76,294.79c1.41-5.78,3-11.52,4.82-17.17.82-2.5,1.69-5,2.64-7.43.39-1,.81-2,1.22-3.06s-.93,2.14-.44,1c.1-.22.19-.44.29-.67.25-.57.5-1.15.77-1.72a75.16,75.16,0,0,1,5.76-10.48c.48-.71,1-1.41,1.48-2.1,1-1.44-1.54,1.89-.59.77l.86-1.06a36.61,36.61,0,0,1,3.12-3.23c.44-.41,1.28-.86,1.59-1.36-.26.41-2.35,1.72-1,.79l.93-.64c.5-.32,1-.62,1.54-.91s2.82-1.31.72-.42.07,0,.64-.17,1.23-.36,1.85-.5l.88-.16c1.54-.33-2.71.23-1.52.2.6,0,1.19-.1,1.79-.12s1.21,0,1.82,0l.92.08c1.62.11-3-.48-1.34-.19a32.52,32.52,0,0,1,3.9.93c.6.19,1.2.39,1.78.62a5.27,5.27,0,0,0,1,.38c.17,0-2.68-1.19-1.55-.65l.56.25c1.36.62,2.68,1.32,4,2.07,1.44.84,2.85,1.75,4.22,2.71.7.49,1.38,1,2.07,1.51,1.49,1.1-1.79-1.43-.68-.53l1.2,1c3.07,2.51,6,5.21,8.79,8a233.32,233.32,0,0,1,18.69,21.52c.43.55,1.81,2.37,0,0l1,1.34,2.6,3.43q2.56,3.45,5.08,6.93,5.22,7.25,10.24,14.64c7.37,10.82,14.49,21.81,21.5,32.87,15.44,24.35,30.27,49.08,45.55,73.53,14.3,22.87,29.06,45.46,44,67.94,14.58,22,29.33,43.85,44,65.79,13.11,19.64,26.16,39.34,38.75,59.33,10.16,16.16,20.13,32.5,28.9,49.47,1.77,3.43,3.49,6.89,5.12,10.39.76,1.64,1.51,3.29,2.23,4.94.14.33.28.67.43,1,.56,1.28-1.08-2.61-.39-.92.33.79.66,1.59,1,2.39a85.82,85.82,0,0,1,4.9,16c.1.55.18,1.11.28,1.67.21,1.23-.37-3.22-.22-1.62,0,.26.06.52.08.78.1,1,.16,2,.16,3,0,5.23,4.58,10.24,10,10a10.17,10.17,0,0,0,10-10c-.05-12.84-5.73-25.53-11-36.94-7.58-16.32-16.75-31.89-26.13-47.23-12.12-19.83-24.86-39.27-37.71-58.64-14.54-21.93-29.26-43.74-43.87-65.63-15.31-22.94-30.5-46-45.28-69.24C325,394.66,310,369.69,294.6,345c-13.83-22.11-27.86-44.17-43.41-65.11-11.8-15.88-24.33-31.79-40.39-43.6-5.47-4-11.81-7.53-18.49-9a32.52,32.52,0,0,0-21.8,2.55c-6.8,3.33-12.07,9.46-16.17,15.66-5.38,8.15-9,17.54-12,26.78-1.85,5.65-3.41,11.39-4.82,17.17-1.24,5.08,1.61,11.08,7,12.3,5.16,1.18,11-1.54,12.3-7Z"/><path class="cls-5" d="M31.34,539.48a96.75,96.75,0,0,1,.48-17.27c.08-.73.18-1.46.26-2.19-.43,4-.13,1,0,.07.23-1.51.48-3,.75-4.52.6-3.24,1.3-6.47,2.09-9.67,1.66-6.73,3.68-13.35,6-19.89q1.85-5.29,3.91-10.51,1-2.56,2.06-5.12l.54-1.28c.71-1.72-1,2.38-.28.67l1.29-3c13.08-30,29.87-58.32,48.35-85.25q6.86-10,14.1-19.75c1.15-1.56,2.32-3.11,3.49-4.65l1.74-2.3.88-1.14c1.56-2-1.15,1.48-.11.14q3.45-4.44,7-8.83c8.82-10.94,18-21.59,27.85-31.66,4.09-4.19,8.29-8.28,12.64-12.2,2-1.76,4-3.49,6-5.16.84-.69,1.68-1.37,2.53-2,1.57-1.24-2.4,1.82-.45.35.51-.38,1-.77,1.54-1.14a68.61,68.61,0,0,1,9.93-6.23c1-.51,4-1.57-.18,0,.72-.27,1.43-.57,2.17-.81s1.24-.37,1.87-.51l.88-.17c1.47-.31-3.48.27-1.52.22h1.58c1.63,0-3.14-.64-1.8-.25.22.07.47.11.7.16s.44.16.66.22c1,.23-3-1.58-1.86-.77a8.89,8.89,0,0,0,.86.55c-3.1-1.71-2.08-1.71-1.12-.78.32.31.63.65.93,1,.15.17.29.36.44.53,1,1.18-1.8-2.43-1.08-1.4.32.45.65.89,1,1.35,3.57,5.27,6.17,11.22,8.66,17.05.1.23.2.45.29.68.55,1.27-1.15-2.75-.62-1.47.2.48.4.95.59,1.42.41,1,.8,1.95,1.2,2.93q1.31,3.27,2.57,6.55,2.75,7.2,5.32,14.48c4.12,11.59,8,23.26,11.79,35,9.24,28.48,18,57.11,26.76,85.72,9.69,31.54,19.37,63.08,29.47,94.48,9.49,29.52,19.29,59,30.17,88,8.71,23.23,17.85,46.62,29.75,68.44,2.08,3.8,4.27,7.55,6.63,11.19,2.84,4.38,9,6.6,13.68,3.58,4.38-2.82,6.63-9,3.58-13.68a224.27,224.27,0,0,1-14-25.77c-2.53-5.34-4.95-10.75-7.28-16.18-.3-.69-.6-1.38-.89-2.08-.15-.34-.29-.69-.44-1,1.38,3.23.71,1.7.41,1-.64-1.55-1.29-3.09-1.92-4.64q-1.9-4.62-3.74-9.26c-11.13-28.13-20.93-56.78-30.37-85.51-10.4-31.66-20.27-63.49-30.07-95.34-9.18-29.85-18.25-59.73-27.71-89.48-7.25-22.8-14.54-45.65-23.3-67.91a213.66,213.66,0,0,0-10.23-23.12c-2.71-5.05-6-10.33-11-13.39-7.27-4.46-16.42-1.49-23.35,2.05-8.69,4.44-16.42,11-23.63,17.56-21.31,19.27-39.62,42-56.68,65a580.4,580.4,0,0,0-52.66,84.63C26.85,464,14.92,492.76,11.74,522.94a96.18,96.18,0,0,0-.4,16.54c.36,5.2,4.35,10.25,10,10,5.12-.23,10.38-4.41,10-10Z"/><g id="Layer_129" data-name="Layer 129"><path class="cls-5" d="M644.48,236.28a219.09,219.09,0,0,1-9.76,40.32q-1.72,4.93-3.76,9.76l1-2.39a143,143,0,0,1-13.22,24.62q-2,3-4.23,5.85l1.56-2a101.4,101.4,0,0,1-18,18.18l2-1.56a81.09,81.09,0,0,1-17.83,10.49l2.39-1a71.43,71.43,0,0,1-18,5l2.66-.36a66.8,66.8,0,0,1-17.53,0l2.66.36a67.84,67.84,0,0,1-17.28-4.73l2.39,1a73.23,73.23,0,0,1-16.16-9.49l2,1.57a84.46,84.46,0,0,1-15-15.08l1.56,2a102.54,102.54,0,0,1-13.08-22.64l1,2.38a129.82,129.82,0,0,1-7.76-25.95c-.53-2.77-1-5.55-1.35-8.35l.36,2.66A181.9,181.9,0,0,1,490,232.19c.21-3.62.52-7.23.91-10.83l-18.64,5a231.26,231.26,0,0,1,10.07,20.86l-1-2.39c3.64,8.64,6.68,17.49,9.64,26.39,1,3.16,2.08,6.33,3.29,9.43a43.75,43.75,0,0,0,4.1,8.7,19,19,0,0,0,9.43,7.74,15.9,15.9,0,0,0,9.93,0,30.91,30.91,0,0,0,8.92-4.67,121.81,121.81,0,0,0,10.92-9.12c9.8-9.12,19-18.91,28.25-28.58l4.69-4.91-15.71-2c7.93,12.76,15.67,25.68,24.13,38.09,5.58,8.19,11.47,16.75,19.74,22.45a20.32,20.32,0,0,0,22.83.43c7.79-5.25,13-13.58,17.78-21.5,7.26-12.12,13.66-24.75,20.25-37.24,1.07-2,2.13-4.05,3.2-6.06a10.52,10.52,0,0,0,1-7.71,10.21,10.21,0,0,0-4.6-6c-4.62-2.44-11.07-1.35-13.68,3.59-4.77,9-9.5,18.09-14.34,27.08-3.54,6.57-7.11,13.13-11.08,19.45-1.66,2.65-3.4,5.25-5.3,7.72l1.56-2a34.6,34.6,0,0,1-6,6.26l2-1.57a14.58,14.58,0,0,1-3.28,2l2.38-1a9.94,9.94,0,0,1-2.47.68l2.66-.35a9.4,9.4,0,0,1-2.37,0l2.66.36a11,11,0,0,1-2.65-.74l2.38,1a17.92,17.92,0,0,1-4-2.39l2,1.56a52.64,52.64,0,0,1-8.92-9.52l1.56,2c-8.16-10.56-15.06-22.11-22.09-33.42l-8.22-13.25c-3.32-5.35-11.14-6.8-15.7-2-11.32,11.84-22.46,24-34.59,35-2,1.79-4,3.55-6.12,5.18l2-1.56a30.5,30.5,0,0,1-6.58,4.11l2.39-1a10.53,10.53,0,0,1-2.64.77l2.66-.36a6.05,6.05,0,0,1-1.7,0l2.65.36a5.67,5.67,0,0,1-1.38-.38l2.39,1a6.58,6.58,0,0,1-1.33-.79l2,1.56a9.44,9.44,0,0,1-1.59-1.63l1.56,2a24.55,24.55,0,0,1-2.95-5.45l1,2.39c-2.34-5.57-4-11.4-6-17.12-3.08-9.11-6.52-18.08-10.44-26.87q-3.78-8.49-8.24-16.64a10.11,10.11,0,0,0-11.29-4.6,11.94,11.94,0,0,0-4.41,2.57c-2,1.87-2.65,4.47-2.93,7.08a191.51,191.51,0,0,0-.08,43c1.51,12.79,4.14,25.39,8.93,37.38a126.82,126.82,0,0,0,7.92,16.65,113.21,113.21,0,0,0,9.88,14.13A88.22,88.22,0,0,0,520,352.18a76.94,76.94,0,0,0,26,10.09,79.94,79.94,0,0,0,30.13-.21,81.73,81.73,0,0,0,27.12-10.91,102.18,102.18,0,0,0,24.51-21.52,141,141,0,0,0,20.11-32.43,205.26,205.26,0,0,0,13.84-43.78c.78-3.92,1.46-7.87,2-11.82.41-2.77.46-5.2-1-7.71a10,10,0,0,0-13.68-3.59c-2,1.32-4.22,3.47-4.6,6Z"/></g><path class="cls-5" d="M266.49,107.18c-5.94,2.73-2.86,1.19-9.67,4.24-32.89,14.71-57,51.23-50.35,86.65A49.06,49.06,0,0,0,212.13,214a50.94,50.94,0,0,0,13.07,14.23c23.23,18,57.23,20.7,83,6.66s42-44.07,39.48-73.35c-1.54-18.11-10.11-35.92-24.63-46.86s-40.17-15.28-56.59-7.48"/></g><g id="Layer_130" data-name="Layer 130"><path class="cls-5" d="M484.21,237l9.48,37.82c.91,3.63,1.85,7.34,3.86,10.5s5.3,5.75,9,5.92c5.92.26,10.31-5.14,14-9.77a123.3,123.3,0,0,1,33.89-29.23c1.55-.9,3.27-1.8,5-1.47,2,.36,3.31,2.1,4.47,3.71Q578.83,275,594.7,294.82A20.82,20.82,0,0,0,600,300c5.87,3.54,13.37.75,19.62-2.08,4.33,20.19-6.19,42.64-24.47,52.24-9.09,4.77-19.45,6.49-29.66,7.65-8.58,1-17.44,1.59-25.73-.86-13.38-4-23.25-15.33-30.52-27.24a139.75,139.75,0,0,1-17.69-45.24"/></g><g id="sir"><g id="Layer_131" data-name="Layer 131"><g class="cls-6"><path class="cls-7" d="M1423,796.74C1592.3,963.2,1297.41,977,1088.08,977s-366.78-230-379-512.65C697.52,198-1111.15,2885.44,908.5,244.11c85.63-112,273.1-209.11,379-166.46,20.74,8.35,65.57,45.65,72.19,127.35,5.88,72.52-16,161.93-23.14,244.16-6.38,73.92,2.07,142.94,5.22,173.31C1348.85,690.51,1389.48,763.81,1423,796.74Z"/></g></g></g></svg>