<svg id="Prior_to_November" data-name="Prior to November" xmlns="http://www.w3.org/2000/svg" xmlns:xlink="http://www.w3.org/1999/xlink" viewBox="0 0 800 800"><defs><style>.cls-1,.cls-16,.cls-22,.cls-3{fill:none;}.cls-12,.cls-2,.cls-4{fill:#ec3868;}.cls-16,.cls-2{stroke:#2f152f;}.cls-16,.cls-2,.cls-22,.cls-3,.cls-4{stroke-miterlimit:10;}.cls-16,.cls-2,.cls-22,.cls-4{stroke-width:3px;}.cls-3{stroke:#5ba4bb;}.cls-22,.cls-4{stroke:#439eba;}.cls-5{fill:#221f1f;}.cls-6{fill:#54899b;}.cls-7{clip-path:url(#clip-path);}.cls-8{fill:#e5e6e6;}.cls-9{fill:#2f152f;}.cls-10{fill:#3e3a51;}.cls-11{fill:#666698;}.cls-13{clip-path:url(#clip-path-2);}.cls-14{fill:#c4d9e3;}.cls-15{fill:#732a81;}.cls-17{clip-path:url(#clip-path-3);}.cls-18{fill:#e7e7e8;}.cls-19{clip-path:url(#clip-path-4);}.cls-20{clip-path:url(#clip-path-5);}.cls-21{fill:#6ec9ec;}</style><clipPath id="clip-path"><path class="cls-1" d="M120.6,722.23C97.57,384.87,577,213,624.12,463.09c5.64,60.76,29.15,181,33.41,222.43,1,9.86-6,16.81-13.3,23.48-94.83,82.85-444.85,41.62-523.63,13.23"/></clipPath><clipPath id="clip-path-2"><path class="cls-2" d="M-438.44-535c-167.06-547-671.59,56-116,434.66,5.72,3.9,58.38-3.07,65.15-4.17,726-117.39,384.32-835.29,50.81-430.49"/></clipPath><clipPath id="clip-path-3"><path class="cls-1" d="M35.1-75.42c-32.5-476,644-718.57,710.47-365.65,6,64.34,38.22,227.22,47.14,313.85,1.43,13.91-8.42,23.72-18.76,33.13C640.14,22.81,146.25-35.37,35.1-75.42"/></clipPath><clipPath id="clip-path-4"><path class="cls-3" d="M386-531.89c-167.06-547-671.59,56-116,434.66,5.72,3.9,58.38-3.07,65.15-4.16,726-117.39,384.32-835.3,50.81-430.5"/></clipPath><clipPath id="clip-path-5"><path class="cls-4" d="M386-533.72c-167.06-556.27-671.59,57-116,442,5.72,4,58.38-3.13,65.15-4.24,726-119.38,384.32-849.46,50.81-437.79"/></clipPath></defs><g id="hold_asparagus" data-name="hold asparagus"><g id="witchat"><g id="Layer_138" data-name="Layer 138"><path class="cls-5" d="M570.41,636c-12.07-24-355.23-67.73-398.3-282.09-.89-4.45,3.25-8.31,6-11.87,30.65-39,52-6.39,59.36,1.5,25.39,27.27,47.93,96.23,75.84,120.92C434.76,571.87,574.1,590.91,735,571.74c14.43-1.72,43.29-23.55,49.68-10.49,7,14.38-29.22,48.77-43.71,55.59-102.71,48.34-132.44,13.79-179,20"/></g><g id="hat"><path class="cls-6" d="M124.44,720.05C101.41,382.7,580.87,210.79,628,460.91c5.65,60.76,29.15,181,33.41,222.43,1,9.86-6,16.81-13.29,23.48-94.84,82.85-444.86,41.62-523.63,13.23"/><g class="cls-7"><path class="cls-8" d="M548.08,771.88C675.39,864.41,474.66,800,317.28,800S-96,694.54,161.26,464.68C228,405,366.59,348.44,446.23,372.15c15.6,4.64,49.3,25.38,54.28,70.79,4.42,40.31-12.07,90-17.4,135.73-4.79,41.08,1.56,79.45,3.93,96.34C492.35,712.83,522.89,753.57,548.08,771.88Z"/></g><path class="cls-9" d="M568.17,547.64c-4.79-2.9-16.85,3-22,5.32-24.74,11.07-42.87,38.55-37.88,65.2a36.85,36.85,0,0,0,4.26,12,38.58,38.58,0,0,0,9.83,10.71c17.48,13.52,43.06,15.58,62.47,5s31.58-33.16,29.71-55.19c-1.16-13.62-7.61-27-18.53-35.25s-26.39-10.63-38.74-4.76"/><path class="cls-9" d="M226.13,478.34a342.22,342.22,0,0,1-3,43.85l.4-3c-.36,2.61-1,5.26-.71,7.9a24.39,24.39,0,0,0,2.64,9.3,10.93,10.93,0,0,0,1.06,1.64,20.67,20.67,0,0,0,3.09,3.63,20.3,20.3,0,0,0,7.81,4.39c4.4,1.23,8.58.3,12.85-.68l22.48-5.19c3.17-.73,6.37-1.6,9.59-2.06l-3,.41a18.16,18.16,0,0,1,4.6,0l-3-.41a13.48,13.48,0,0,1,2.58.7l-2.7-1.14a20.47,20.47,0,0,1,4.28,2.58l-2.28-1.76c6.44,5,12.57,10.46,18.83,15.69S314,564.56,320.2,569.7a19.92,19.92,0,0,0,8.47,4.61,18.37,18.37,0,0,0,5.14.51,21.29,21.29,0,0,0,7.77-2.07,19.52,19.52,0,0,0,8.35-8.07c1.32-2.25,2.61-4.52,3.92-6.77l16.06-27.78c3.81-6.58,7.69-13.13,11.43-19.75l.18-.32a11.71,11.71,0,0,0,1.14-8.69,11.49,11.49,0,0,0-5.18-6.74c-5.39-2.85-12.28-1.41-15.43,4L351.16,517.5,334,547.26a68.91,68.91,0,0,1-4.46,7.5l1.76-2.28a11.28,11.28,0,0,1-1.42,1.43l2.28-1.77a9,9,0,0,1-1.91,1.13l2.69-1.13a9.76,9.76,0,0,1-1.78.49l3-.41a8,8,0,0,1-2.13,0l3,.41a8.74,8.74,0,0,1-1.81-.53l2.7,1.14a9.49,9.49,0,0,1-1.71-1l2.28,1.76c-3.66-2.94-7.22-6-10.82-9l-18.3-15.31-5.5-4.6-1.25-1c-3.95-3.29-8.22-6.68-13.43-7.62a30.27,30.27,0,0,0-5.29-.58,39.73,39.73,0,0,0-5.54.58c-1.55.23-3.09.56-4.62.91l-1.78.41-9.6,2.22c-6.36,1.47-12.71,3-19.07,4.4l-.91.19,3-.41a8.44,8.44,0,0,1-1.88,0l3,.4a8.19,8.19,0,0,1-2.06-.57l2.7,1.14a9.1,9.1,0,0,1-1.59-.94l2.29,1.77a10.53,10.53,0,0,1-1.58-1.55l1.76,2.29a10.88,10.88,0,0,1-1.34-2.25l1.13,2.69a12,12,0,0,1-.8-3l.4,3a13.23,13.23,0,0,1,0-3l-.4,3a364,364,0,0,0,3.71-48.8,11.64,11.64,0,0,0-3.3-8,11.29,11.29,0,0,0-19.26,8Z"/></g><g id="Layer_137" data-name="Layer 137"><path class="cls-10" d="M296.29,378.86c48.84-33,86.74-70.9,125.15-114.57a8.22,8.22,0,0,0,1.29-8.85L420.21,250a8.22,8.22,0,0,1,2.38-9.87c20.49-16.18,25.6-19.52,25.74-34.08.15-15.69-12.77-29.35-19.84-43.51A851.18,851.18,0,0,0,346.94,30.76a8.21,8.21,0,0,1,9.45-12.63c100.51,37.94,191.82,102,249.9,189.62,63.16,95.32,82.85,219.81,38.08,323.91"/></g><g id="Layer_139" data-name="Layer 139"><path class="cls-10" d="M172.11,353.94c1.39-29.31,18.21-35.94,40-52.5,4.6-3.5,10-6.78,15.73-6.34,4.39.34,8.29,2.78,12,5.15l149,95.49c15.65,10,31.3,20.07,47.47,29.25,39,22.16,80.68,39.19,122.22,56.16,50.62,20.68,102.32,41.62,156.87,45.34,12.25.84,24.68.81,36.59,3.8s23.58,9.54,29.51,20.3,4.27,26.1-5.81,33.13c-3.87,2.71-8.55,4-13.17,5-21.18,4.45-43.1,3.13-64.7,1.79L577.61,583c-25.89-1.6-51.83-3.21-77.48-7.12-45.08-6.86-89.38-21-128.35-44.69s-72.44-57.19-93-97.9c-11-21.82-18.28-45.49-30.67-66.56S222.89,332.92,198.76,329"/></g><g id="Layer_141" data-name="Layer 141"><path class="cls-11" d="M325.74,345.81a129.06,129.06,0,0,0,46-42.14c1.49-2.26,3-4.65,5.37-6,6-3.37,13.09,1.68,18.18,6.29,75.8,68.6,176.61,109.33,279.06,112.77a398.45,398.45,0,0,1-13.47,90.42c-.95,3.53-2,7.21-4.56,9.87-3.29,3.46-8.35,4.53-13.11,5.1-24.85,3-49.91-2.9-73.81-10.33a565.35,565.35,0,0,1-252.15-162"/></g></g><g id="heart"><path class="cls-12" d="M-438.44-535c-167.06-547-671.59,56-116,434.66,5.72,3.9,58.38-3.07,65.15-4.17,726-117.39,384.32-835.29,50.81-430.49"/><g class="cls-13"><rect class="cls-14" x="-878.75" y="-710.49" width="828.22" height="650.95" transform="translate(-93.58 90.84) rotate(12.41)"/><path class="cls-15" d="M-1047.7-261.81c3.23.53,6.45,1.1,9.68,1.58Q-483.15-177.05,71.71-93.9c3.23.49,6.47.89,9.71,1.33C76-56.12,70.31-19.69,65.21,16.82c-.85,6.06-2.28,7.05-8.32,6.14Q-252.24-23.69-561.45-69.89q-248.32-37.23-496.66-74.27c-6.05-.9-7.12-2.27-6.16-8.31C-1058.44-188.87-1053.16-225.35-1047.7-261.81Z"/></g><path class="cls-16" d="M-438.44-535c-167.06-547-671.59,56-116,434.66,5.72,3.9,58.38-3.07,65.15-4.17,726-117.39,384.32-835.29,50.81-430.49"/></g><g id="Layer_132" data-name="Layer 132"><g class="cls-17"><path class="cls-18" d="M101.41-124.14c20.06-77.31,43.9-137.19,78.93-208.66S392.75-699,569.25-436.59c25.4,37.76,33.19,85,41.71,130,13.2,69.79,24.11,141.66,12.13,211.69-.64,3.79-1.46,7.77-4,10.62s-5.94,3.94-9.33,5.05C481.7-37.31,710.35,13,576.31,2.16c-17.67-1.43-401-46.5-418.19-51.11-10.22-2.75-16.38,24.63-24.47,17.66C120-43.06,87.89-43,82.82-60.55"/></g><g class="cls-19"><rect class="cls-14" x="-54.33" y="-707.4" width="828.22" height="650.95" transform="translate(-73.66 -86.22) rotate(12.41)"/><path class="cls-15" d="M-223.28-258.71c3.23.53,6.44,1.09,9.68,1.58L896.13-90.8c3.23.48,6.47.88,9.71,1.32C900.37-53,894.73-16.59,889.63,19.91c-.85,6.06-2.28,7.06-8.32,6.15Q572.16-20.59,263-66.8,14.65-104-233.7-141.07c-6-.89-7.12-2.26-6.15-8.31C-234-185.77-228.74-222.26-223.28-258.71Z"/><path class="cls-12" d="M386-533.72c-167.06-556.27-671.59,57-116,442,5.72,4,58.38-3.13,65.15-4.24,726-119.38,384.32-849.46,50.81-437.79"/><g class="cls-20"><polygon class="cls-21" points="694.28 29.82 -114.59 -152.13 25.27 -802.17 834.14 -620.23 694.28 29.82"/></g><path class="cls-22" d="M386-533.72c-167.06-556.27-671.59,57-116,442,5.72,4,58.38-3.13,65.15-4.24,726-119.38,384.32-849.46,50.81-437.79"/></g><path class="cls-3" d="M386-531.89c-167.06-547-671.59,56-116,434.66,5.72,3.9,58.38-3.07,65.15-4.16,726-117.39,384.32-835.3,50.81-430.5"/></g></g></svg>