<?xml version="1.0" encoding="UTF-8"?>
<svg id="Prior_to_November" data-name="Prior to November" viewBox="0 0 800 800" xmlns="http://www.w3.org/2000/svg">
 <defs>
  <style>.cls-1{fill:none;}.cls-2{clip-path:url(#clip-path);}.cls-3{fill:#e5e6e6;}.cls-4{fill:#54899b;}.cls-5{fill:#f9a61b;}.cls-6{fill:#dfdfdf;}.cls-7{clip-path:url(#clip-path-2);}.cls-8{fill:#fff;}.cls-9{clip-path:url(#clip-path-3);}.cls-10{fill:#cbcbca;}.cls-11{fill:#333;}.cls-12{fill:#2f152f;}.cls-13{fill:#72a441;}.cls-14{fill:#ef8f21;}</style>
  <clipPath id="clip-path">
   <path class="cls-1" d="M30.25-80.41C-2.09-554,671.05-795.38,737.16-444.22c7.92,85.29,40.92,254.13,46.9,312.27,1.43,13.84-8.37,23.6-18.66,33C632.26,17.33,140.84-40.56,30.25-80.41"/>
  </clipPath>
  <clipPath id="clip-path-2">
   <path class="cls-1" d="M712.58,358.52C731.18,86,343.87-52.86,305.83,149.19c-4.56,49.08-23.54,146.22-27,179.68-.82,8,6.12,12.42,10.74,19,144.17,204,335.92,189.86,423,10.69"/>
  </clipPath>
  <clipPath id="clip-path-3">
   <path class="cls-1" d="M336.33,65.62C331.59,167.16,374.05,333.05,422.64,428c51.69,101.06,326,80,280.37-177.09,24.84,11.89,166.93,211.93-147.62,277.11-16.15,3.35-30.6,12.24-46.87,15-49.53,8.24-100.12,6.88-150.26,4.39-37.43-1.85-75.34-4.42-110.8-16.5-30.78-10.49.8-19.85-20.37-44.52s13.28-75.6,12.57-108.1c-.6-27.37-4.63-58.36,8.15-82.57,23.37-44.26-33.51-65.42,12.47-85.22,18.56-8,6.91-3.27,25.31,5.1"/>
  </clipPath>
 </defs>
 <g id="Layer_158" data-name="Layer 158">
  <g class="cls-2">
   <path class="cls-3" d="m649.79-44.64c176.39 132.41-335-8.73-544.95 1.14s41.41-692.33 380.6-601.2c21.21 5.7 67.57 35.42 77.45 104 8.77 60.88-9.68 137.32-13.53 207-3.47 62.63 7.74 120.45 12.1 145.91 9.78 57.06 53.43 116.96 88.33 143.15z"/>
   <path class="cls-4" d="M35.63-83.47C10-218.36,83.61-256,138.4-267.71c37.38-8,82.85-3.23,103.89,28.67,12,18.24,13.29,41.64,10.28,63.28C242.59-104.21,192.23-45.86,144.05,8"/>
  </g>
 </g>
 <g id="hold_asparagus" data-name="hold asparagus">
  <g id="Layer_167" data-name="Layer 167">
   <path class="cls-5" d="M191.61,490.36c37.06-7.31,82.31-7,119.49-.36,11.79,2.11,23.66,5,34,11.11,18.56,11,29.88,31.27,36,52,11.89,40.25,7,83.44-.81,124.68-3,15.75-6.42,31.59-13.3,46.07-17.31,36.43-55,60-94.2,69.41s-80.29,6.3-120.35,1.52c-25.82-3.08-52.35-7.12-74.66-20.48-29.95-17.94-48.35-50.47-59.22-83.64A283.56,283.56,0,0,1,6,573.07c2.67-25.3,10.3-52.58,31.33-66.89,12-8.15,26.73-10.94,41.07-13a593.31,593.31,0,0,1,78.77-6.05c13.86-.14,29.89,3.24,34.44,3.24"/>
   <path class="cls-6" d="M326.15,138.5a2.8,2.8,0,0,0,.09-.59C364.6-63.71,751.52,75.15,732.93,347.54l.49-12.46c.93,38.75-17.41,76.33-44.33,104.22s-61.81,46.93-97.94,61a458.46,458.46,0,0,1-48.76,15.87C471.61,534.88,394,535.91,327.21,506c-22.47-10.06-40,38.7-46.95,19.48-1.65-4.6-13.42-14.77-9.09-12.5,11.75,6.17,18.82-70.17,25.32-74.68,13.62-9.45,11.61-54.47,11.55-64.84C308,358.31,306.39,189.38,326.15,138.5Z"/>
   <g class="cls-7">
    <path class="cls-8" d="m379.79 408.84c-3.14 102.16 229.74 141.86 319.83-26.15 13-24.17 13-24.17 28.69-88.44 9.22-37.65-11.61-86.13-48.57-143.78-39.05-60.91-172.29-100.12-232.29-77.47-12.3 4.64-37.74 23.24-41.77 59.93-3.57 32.56 9.75 72.71 14.06 109.64 3.87 33.19-1.26 64.19-3.17 77.83-4.29 30.53-36 63.3-36.78 88.44z"/>
   </g>
   <g class="cls-9">
    <path class="cls-10" d="M326.15,138.5a2.8,2.8,0,0,0,.09-.59C364.6-63.71,751.52,75.15,732.93,347.54l.49-12.46c.93,38.75-17.41,76.33-44.33,104.22s-61.81,46.93-97.94,61a458.46,458.46,0,0,1-48.76,15.87c-70.78,18.75-141.39,15.45-212.85-.53C309,511,278.17,564,268.07,516.23c-.86-4.07,3.75-8.35,7.25-10.6,10.11-6.49,15.32-63.3,21.17-67.36,13.62-9.45,11.61-54.47,11.55-64.84C308,358.31,306.39,189.38,326.15,138.5Z"/>
   </g>
   <path class="cls-11" d="m596.7 200.11c-5.38-6.66-11.8-13-19.07-17.43l-0.27 19.46-40.42-18.92a1.69 1.69 0 0 0-2.79 1.34q-4.36 16-8.74 31.91l-11.78-7.18c-6.93 17.26-7 36.48-7 55.13-3 19.12 19.37 37.33 38.2 41.83 27.81 6.64 60.33-8.52 69.71-35.52 8.36-23.97-1.89-50.89-17.84-70.62z"/>
   <path class="cls-6" d="M691.5,183.68c20.63-16,23.44-23.28,46.52-36.1,4.68-2.42,9.58-5.11,14.63-7.48a32.75,32.75,0,0,1,43.93,16.31C813,194,746.67,329.54,727.81,363.5"/>
   <path class="cls-6" d="M373.86,408.81c-135.57-19.1-124.47-114.92-115.72-138.17,2.06-5.47,22.8-19.88,35.84-14.89,21,8.06,53.91,35.68,56.9,38.71,5.55,5.62,30.33,23.31,44.42,32.83l-.3,28.08"/>
   <path class="cls-10" d="m396.65 345.54c-60.83 18.43-109.34-7.4-137.92-62.15-12 38.45 3.25 83.84 36.1 107.17 13.26 9.42 28.68 15.33 44.22 20.13 10.51 3.25 18.83 12.85 29.23 9.24 6.1-2.12 29-8.13 33.18-13 11-12.84-3-38.85-4.81-61.35"/>
   <path class="cls-10" d="m758.47 306.1a502 502 0 0 0 37.79-106.55 144.86 144.86 0 0 0-20.17 2.85l-84 15.9c-4.53 11.71 13 45.76 33.11 147.7"/>
   <circle class="cls-12" cx="370.7" cy="239.97" r="41.16"/>
   <path class="cls-13" d="M147.38,489.09c-2.32-19.27-9.77-44.38-27-53.27l13-17a8.9,8.9,0,0,1,2.75-2.68c2.25-1.17,5-.25,7.33.74a163.35,163.35,0,0,1,71.23,58.43c2.51,3.69,4.91,8.52,2.68,12.39-1.17,2-3.35,3.21-5.47,4.19a71.51,71.51,0,0,1-64.49-2.84"/>
   <path class="cls-14" d="m214.58 799.43c-19.16 7.75-34.59-9.79-47.38-26s-17.58-37.27-20.61-57.71a456.15 456.15 0 0 1 5.23-162.45c5.77-26.83 17.87-57.14 44.37-64.24 21.16-5.67 43.91 6.95 56.34 25s16.64 40.37 19.53 62.08a657.87 657.87 0 0 1 4.4 133.43c-1.44 20.12-4 40.75-13.74 58.44s-28 32-48.14 31.49"/>
  </g>
 </g>
</svg>
