<svg id="Prior_to_November" data-name="Prior to November" xmlns="http://www.w3.org/2000/svg" xmlns:xlink="http://www.w3.org/1999/xlink" viewBox="0 0 800 800"><defs><style>.cls-1{fill:none;}.cls-2{fill:#54899b;}.cls-3{clip-path:url(#clip-path);}.cls-10,.cls-4{fill:#e5e6e6;}.cls-4{stroke:#fff;stroke-miterlimit:10;}.cls-5{fill:#2f152f;}.cls-6{fill:#fff;}.cls-7{fill:#f6bf1c;}.cls-8{fill:#ca4079;}.cls-9{clip-path:url(#clip-path-2);}.cls-11{clip-path:url(#clip-path-3);}</style><clipPath id="clip-path"><path class="cls-1" d="M700.34,710.81C728.44,299.24,143.5,89.52,86.06,394.67,79.17,468.79,50.5,615.5,45.3,666c-1.24,12,7.27,20.5,16.22,28.64,115.7,101.08,542.72,50.78,638.82,16.14"/></clipPath><clipPath id="clip-path-2"><path class="cls-1" d="M35.77-112.92C5.14-561.62,642.84-790.26,705.47-457.59c7.51,80.81,38.77,240.76,44.43,295.84,1.35,13.11-7.93,22.36-17.68,31.22C606.09-20.33,140.55-75.17,35.77-112.92"/></clipPath><clipPath id="clip-path-3"><path class="cls-1" d="M1680.85,709.91c-30.63-606.88,607.07-916.12,669.7-466.17,7.51,109.3,38.77,325.63,44.43,400.13,1.35,17.74-7.93,30.24-17.68,42.24-126.13,149-591.67,74.87-696.45,23.8"/></clipPath></defs><g id="hold_asparagus" data-name="hold asparagus"><g id="hug"><g id="Layer_32" data-name="Layer 32"><g id="sharj"><path class="cls-2" d="M695.67,708.16C723.76,296.59,138.83,86.87,81.38,392c-6.89,74.12-35.56,220.84-40.76,271.36-1.24,12,7.28,20.51,16.22,28.64,115.7,101.08,542.72,50.78,638.83,16.15"/><g class="cls-3"><path class="cls-4" d="M178.83,771.39C23.51,884.28,993,930.48,650.74,396.6c-59-92-250.5-141.8-347.66-112.88-19,5.66-60.15,31-66.22,86.36-5.39,49.19,14.72,109.82,21.23,165.59,5.85,50.13-1.9,96.93-4.79,117.53C246.82,699.34,209.55,749.05,178.83,771.39Z"/><path class="cls-5" d="M154.28,456.35a46.8,46.8,0,0,0-12.6,2.82,52.54,52.54,0,0,0-7,3.25,53.32,53.32,0,0,0-6.16,4.43,48.63,48.63,0,0,0-13.26,17,71,71,0,0,0-4.55,11.95,80,80,0,0,0-2.2,12.95,73.33,73.33,0,0,0,1.63,23.3,72,72,0,0,0,4.22,12.27,49,49,0,0,0,4.69,8.59c5.37,7.74,12.52,14.9,21.6,18a63.24,63.24,0,0,0,11,2.71,69.5,69.5,0,0,0,13.27,1,60,60,0,0,0,23.67-5.94,44.11,44.11,0,0,0,7.48-4.51,64.43,64.43,0,0,0,8.81-7.6,62.23,62.23,0,0,0,11.37-16.92,78.8,78.8,0,0,0,4.16-11.13,80.74,80.74,0,0,0,2.11-11.88,67.92,67.92,0,0,0-1.1-21.09,63.31,63.31,0,0,0-7.71-19.93,61.93,61.93,0,0,0-14.68-16.95A75.3,75.3,0,0,0,187.76,451a27.07,27.07,0,0,0-8.09-3,69.2,69.2,0,0,0-8.62-1,52.68,52.68,0,0,0-26,6,59.31,59.31,0,0,0-10.91,7.49,51.84,51.84,0,0,0-7.33,7.48,75.92,75.92,0,0,0-7.7,11.2,80.25,80.25,0,0,0-5.46,12.63c-5.54,16.44-4.72,35.07,3.36,50.52a56.75,56.75,0,0,0,7.84,11.07l-2-2.53a65.68,65.68,0,0,0,5.67,7,53.13,53.13,0,0,0,6.59,5.58,38.4,38.4,0,0,0,11.76,5.79,45.29,45.29,0,0,0,7.68,1.38,27.92,27.92,0,0,0,4.66.19,43.79,43.79,0,0,0,12.31-2.21,58.69,58.69,0,0,0,22.08-13.85,63.41,63.41,0,0,0,13.61-19.63A56.75,56.75,0,0,0,211.66,521a62.39,62.39,0,0,0,.89-8.73,59,59,0,0,0-.81-9l.44,3.32a47,47,0,0,0-3-14.07,51.51,51.51,0,0,0-3.51-7.39,54.47,54.47,0,0,0-4.93-6.65c-5.57-6.61-13.45-11.29-21.61-13.92-16.61-5.35-36.66-.59-47.61,13.42a51,51,0,0,0-4.86,7c-1.12,2.05-2.1,4.19-3,6.34a47.92,47.92,0,0,0-3.44,14.44,56.61,56.61,0,0,0,.77,14.11,47.27,47.27,0,0,0,2.93,10.7,51.59,51.59,0,0,0,6.43,12.12,44,44,0,0,0,11.59,11.14,38.36,38.36,0,0,0,7.1,3.35,33.68,33.68,0,0,0,8,1.62,22.92,22.92,0,0,0,5.3,0,53.58,53.58,0,0,0,5.64-.82,22.38,22.38,0,0,0,5.4-2.36c8.57-4.73,15.78-12.68,20.28-21.32a54.62,54.62,0,0,0,5.23-14,55.81,55.81,0,0,0,1.14-8.92,46.75,46.75,0,0,0-.69-8.83c-1.54-10.5-8.57-20.16-17.72-25.41a30.7,30.7,0,0,0-14.79-4.2A28.06,28.06,0,0,0,153,476.6a30,30,0,0,0-8.61,7.16,48.2,48.2,0,0,0-4.41,6.12,53.42,53.42,0,0,0-3.13,6.79A41.09,41.09,0,0,0,135,520.42a31.14,31.14,0,0,0,6.44,12.75,17.56,17.56,0,0,0,2.89,2.89,36,36,0,0,0,4.12,3c.32.19.64.36,1,.52.16.09.33.16.5.24a15.5,15.5,0,0,0,6.62,1.85c5.92.45,11.58-1.22,16.91-3.6a26.16,26.16,0,0,0,5.08-3,36.1,36.1,0,0,0,6.27-5.49,32.3,32.3,0,0,0,4.58-6.6,28.4,28.4,0,0,0,3-10.66c.55-6.44-2.2-12.36-6.22-17.18a28,28,0,0,0-7.24-5.86c-.91-.54-1.86-1-2.8-1.53a23.31,23.31,0,0,0-5.19-2.09,18.47,18.47,0,0,0-10.16.22,18.67,18.67,0,0,0-6.79,3.94,20,20,0,0,0-3.31,3.9,23.27,23.27,0,0,0-3.06,6.61,32.82,32.82,0,0,0-1.27,7.87,29.46,29.46,0,0,0,3.19,15c2.73,5.42,7.86,10.12,14,11.15,3.56.6,7.12.81,10.61-.38a20.06,20.06,0,0,0,8.71-5.3,18.14,18.14,0,0,0,4.85-11.84,18.45,18.45,0,0,0-3.17-10.46,13.33,13.33,0,0,0-7.47-5.75,12.8,12.8,0,0,0-9.63,1.26,12.57,12.57,0,0,0-5.74,7.47c-.72,3.13-.65,6.89,1.26,9.63a11.07,11.07,0,0,1,1,1.71l-1.26-3a6.78,6.78,0,0,1,.44,1.6l-.45-3.33a5.4,5.4,0,0,1,0,1.27l.45-3.32a5.81,5.81,0,0,1-.37,1.34l1.26-3a6.19,6.19,0,0,1-.6,1l2-2.53a6.77,6.77,0,0,1-1.14,1.13l2.53-1.95a8.57,8.57,0,0,1-1.63.95l3-1.26a9.39,9.39,0,0,1-2.32.63l3.32-.45a10,10,0,0,1-2.25,0l3.33.45a9.05,9.05,0,0,1-2-.53l3,1.26a8.4,8.4,0,0,1-1.62-.93L172,512a7.84,7.84,0,0,1-1.38-1.38l2,2.53a16.86,16.86,0,0,1-1.9-3.33l1.26,3a16.78,16.78,0,0,1-1-3.94l.45,3.33a21.48,21.48,0,0,1,0-5.55L171,510a17.32,17.32,0,0,1,1.13-4.25l-1.26,3a11.55,11.55,0,0,1,1.34-2.37l-1.95,2.53a7.9,7.9,0,0,1,1.35-1.36l-2.53,2a6.48,6.48,0,0,1,1.27-.74l-3,1.26a6,6,0,0,1,1.26-.34l-3.33.45a7.22,7.22,0,0,1,1.61,0l-3.33-.44a8.69,8.69,0,0,1,2,.56l-3-1.26a27.75,27.75,0,0,1,5.84,3.4l-2.53-2a16.73,16.73,0,0,1,2.68,2.64l-2-2.53a12.22,12.22,0,0,1,1.57,2.62l-1.26-3a11.83,11.83,0,0,1,.78,2.73l-.45-3.32a12.12,12.12,0,0,1,0,3l.45-3.32a15,15,0,0,1-1,3.67l1.26-3a19.38,19.38,0,0,1-2.34,3.91l2-2.53a24,24,0,0,1-4,4l2.53-2a26.21,26.21,0,0,1-5.57,3.28l3-1.26a24.39,24.39,0,0,1-6,1.66l3.32-.45a22.07,22.07,0,0,1-4.3.12l6.31,1.7a16.46,16.46,0,0,1-3.37-2l2.53,2a15.87,15.87,0,0,1-2.89-2.9l2,2.53a17.5,17.5,0,0,1-2.12-3.68l1.26,3a21.76,21.76,0,0,1-1.43-5.43l.44,3.32a28.44,28.44,0,0,1,0-7.2l-.44,3.32a33.11,33.11,0,0,1,2.23-8.23l-1.26,3a31,31,0,0,1,3.84-6.68L161.68,502a23.91,23.91,0,0,1,4.12-4.17l-2.53,2a18.13,18.13,0,0,1,3.79-2.25l-3,1.26a15.89,15.89,0,0,1,3.81-1.07l-3.32.45a15.21,15.21,0,0,1,4.1,0l-3.32-.45a18.32,18.32,0,0,1,4.35,1.24l-3-1.26a23.58,23.58,0,0,1,4.91,2.9l-2.53-2a25.79,25.79,0,0,1,4.45,4.41l-2-2.53a23.94,23.94,0,0,1,3.12,5.33l-1.26-3a26.76,26.76,0,0,1,1.79,6.7l-.45-3.33a32.93,32.93,0,0,1-.05,8.24l.45-3.32a41.38,41.38,0,0,1-2.81,10.24l1.26-3a46.13,46.13,0,0,1-5.89,10.12l2-2.53a41.34,41.34,0,0,1-7.24,7.3l2.53-2a33.92,33.92,0,0,1-6.26,3.82l3-1.26c-.72.16-1.45.29-2.19.4l3.32-.45a22.44,22.44,0,0,1-6,0l3.32.45a21.8,21.8,0,0,1-5.2-1.43l3,1.26a23.9,23.9,0,0,1-5.25-3.09l2.53,2a30.38,30.38,0,0,1-5.3-5.39l1.95,2.53a40.36,40.36,0,0,1-5-8.75l1.26,3A47.83,47.83,0,0,1,145,512.45l.44,3.33a43.83,43.83,0,0,1-.05-11.27l-.45,3.32a32.8,32.8,0,0,1,2.22-8.32l-1.26,3a44,44,0,0,1,5.28-9.33l-2,2.53a31.52,31.52,0,0,1,5.52-5.55l-2.53,2a30.89,30.89,0,0,1,6.61-3.88l-3,1.26a32.21,32.21,0,0,1,8.17-2.21l-3.32.45a34.9,34.9,0,0,1,9,0l-3.33-.44a36.54,36.54,0,0,1,9.18,2.51l-3-1.26a36.47,36.47,0,0,1,7.87,4.59l-2.53-2a35.49,35.49,0,0,1,6.19,6.18l-2-2.53a34,34,0,0,1,4.27,7.35l-1.26-3a35.13,35.13,0,0,1,2.35,8.73l-.44-3.33c.24,1.88.43,3.75.7,5.63l-.45-3.33a38.51,38.51,0,0,1,0,10.23l.45-3.32a46.49,46.49,0,0,1-3.27,11.67l1.26-3a54.66,54.66,0,0,1-6.82,11.62l1.95-2.53a53.33,53.33,0,0,1-9.36,9.45l2.53-1.95a44.79,44.79,0,0,1-9.77,5.79l3-1.26a34.71,34.71,0,0,1-8.66,2.4l3.32-.45a29,29,0,0,1-7.5,0l3.33.44a27.14,27.14,0,0,1-6.63-1.81l3,1.26a29.6,29.6,0,0,1-6.6-3.89l2.53,2a38.22,38.22,0,0,1-6.58-6.69l2,2.53c-1.51-2-3.07-3.86-4.59-5.81l2,2.53a43.73,43.73,0,0,1-5.6-9.54l1.26,3a47.82,47.82,0,0,1-3.28-12l.45,3.32a54.81,54.81,0,0,1,0-14.42l-.45,3.32a61.83,61.83,0,0,1,4.27-15.6l-1.26,3A60.46,60.46,0,0,1,145.75,484l-1.95,2.53A52.48,52.48,0,0,1,153,477.2l-2.53,2a44.59,44.59,0,0,1,9.73-5.75l-3,1.26a40.19,40.19,0,0,1,10.21-2.81l-3.32.44a41.1,41.1,0,0,1,10.57,0l-3.33-.45c1.53.21,3,.5,4.54.86l-3-1.26a61.24,61.24,0,0,1,10.6,6.5L181,476a54.08,54.08,0,0,1,9.67,9.63l-2-2.53a52.75,52.75,0,0,1,6.73,11.55l-1.26-3a55.34,55.34,0,0,1,3.75,13.86l-.45-3.32a58.41,58.41,0,0,1,0,15.29l.45-3.32a58.91,58.91,0,0,1-4,14.8l1.26-3a54.32,54.32,0,0,1-6.91,11.92l2-2.53a48.69,48.69,0,0,1-8.71,8.74l2.53-2a44.45,44.45,0,0,1-9.82,5.72l3-1.26a45.12,45.12,0,0,1-11.23,3l3.32-.45a51.4,51.4,0,0,1-13.46-.06l3.32.45a66.06,66.06,0,0,1-13.21-3.32l3,1.26a39.38,39.38,0,0,1-4.47-3l2.53,1.95a39.76,39.76,0,0,1-6.95-7l2,2.53a46.79,46.79,0,0,1-6-10.35l1.26,3a58.05,58.05,0,0,1-3.9-14.53l.44,3.33a64.33,64.33,0,0,1,0-16.75l-.44,3.33a57.13,57.13,0,0,1,3.92-14.6l-1.26,3a45.82,45.82,0,0,1,5.7-9.88l-2,2.53a37.72,37.72,0,0,1,6.68-6.74l-2.53,2a33.32,33.32,0,0,1,7.22-4.23l-3,1.26a34.76,34.76,0,0,1,8.73-2.38l-3.32.45.76-.09a9.51,9.51,0,0,0,4.82-1.08,9.38,9.38,0,0,0,4-2.58,12.51,12.51,0,0,0,0-17.68c-2.28-2.09-5.62-4-8.84-3.66Z"/><path class="cls-5" d="M362.26,491.81a551.31,551.31,0,0,0,59.4,39.24q8.76,5,17.7,9.69a12.67,12.67,0,0,0,18.36-7.47l18.42-52.74,5.26-15.06L466,474.2l64.78,20.46,16.2,5.11c2.57.81,5.15,1.8,7.79,2.37,5.17,1.1,10.58.92,15.2-1.94a19.86,19.86,0,0,0,7.51-8.52c1.4-3.12,2.48-6.3,3.57-9.54l5.43-16q6.11-18,12.2-36.07a12.5,12.5,0,0,0-18.36-14.11,13.72,13.72,0,0,0-5.75,7.47l-10.05,29.7-4.94,14.62c-1.59,4.71-3,9.58-4.88,14.17l1.26-3a13.5,13.5,0,0,1-1.59,2.79l2-2.53a7.69,7.69,0,0,1-1.22,1.2l2.53-1.95a6.79,6.79,0,0,1-1.2.69l3-1.26a7.27,7.27,0,0,1-1.65.42l3.32-.45a11,11,0,0,1-2.14-.07l3.33.45a63.34,63.34,0,0,1-8.42-2.45L545.08,473l-17.63-5.57-34.77-11-20-6.32a12.67,12.67,0,0,0-9.63,1.26,13.83,13.83,0,0,0-5.74,7.47l-18.42,52.73-5.26,15.07L452,519.15a551.65,551.65,0,0,1-60.79-37q-8.26-5.81-16.31-11.9c-2.41-1.82-6.86-2-9.63-1.26a12.51,12.51,0,0,0-8.73,15.38l1.26,3a12.57,12.57,0,0,0,4.48,4.48Z"/><path class="cls-6" d="M468.69,534.71a48.59,48.59,0,0,1,.35-8.61l-.44,3.32a53.09,53.09,0,0,1,3.67-13.13l-1.26,3a71,71,0,0,1,9.16-15.33l-1.95,2.53A106,106,0,0,1,497,488.12l-2.53,1.95a140.75,140.75,0,0,1,30.4-17.73l-3,1.26a122.76,122.76,0,0,1,30.69-8.35l-3.32.45a140.39,140.39,0,0,1,37,.07l-3.32-.44A154.78,154.78,0,0,1,621.86,476l-3-1.26a188.29,188.29,0,0,1,41.53,24.56l-2.52-1.95a235.19,235.19,0,0,1,41.55,41.74l-2-2.53a172.62,172.62,0,0,1,22.22,37.23l-1.26-3a123,123,0,0,1,8.67,31l-.45-3.32c1.82,13.85,1.48,28,4.78,41.62,3,12.53,8.86,24.28,14.61,35.75,3.08,6.15,6.2,12.3,8.9,18.64l-1.26-3a97.63,97.63,0,0,1,7,24.26l-.45-3.32a59.61,59.61,0,0,1,.1,15.39l.44-3.32a45.81,45.81,0,0,1-3,11.19l1.26-3a44.64,44.64,0,0,1-5.58,9.47l2-2.53a58.21,58.21,0,0,1-10.22,10l2.53-2a97.65,97.65,0,0,1-21.39,12.09l3-1.26a154.29,154.29,0,0,1-39.18,10.24l3.32-.45c-26.61,3.5-53.85,2.16-80.52,0q-12.36-1-24.66-2.62l3.32.45c-19.87-2.67-40.06-6.33-58.62-14.14l3,1.26A99.14,99.14,0,0,1,514.15,741l2.53,1.95a65.72,65.72,0,0,1-11.44-11.29l1.95,2.53a54.69,54.69,0,0,1-6.88-11.65l1.26,3c-1.41-3.37-2.38-6.88-3.94-10.19a20.47,20.47,0,0,0-9.19-9.36c-6.39-3.18-13.76-4.27-20.73-5.4-12.29-2-24.89-3.26-36.48-8.12l3,1.26a57.46,57.46,0,0,1-12.32-7.11l2.53,1.95a42.3,42.3,0,0,1-7.2-7.14l2,2.53a34.32,34.32,0,0,1-4.28-7.31l1.26,3a34.14,34.14,0,0,1-2.1-7.84l.45,3.33a40.64,40.64,0,0,1,0-10l-.45,3.32a47.76,47.76,0,0,1,3.11-11.56l-1.26,3a50.62,50.62,0,0,1,6.42-11l-1.95,2.53a50.72,50.72,0,0,1,9-9l-2.53,1.95a49.54,49.54,0,0,1,10.57-6.13l-3,1.26c11.09-4.53,24.06-4.92,34-12.19a32.14,32.14,0,0,0,9.09-9.49,30,30,0,0,0,4-14.14c.39-8.75-3.35-16.88-5.93-25a160.51,160.51,0,0,1-6-26.68l.44,3.32a162.23,162.23,0,0,1-1.34-26.62c.21-6.54-5.9-12.79-12.5-12.5a12.76,12.76,0,0,0-12.5,12.5,174.85,174.85,0,0,0,3.36,39.4,157.25,157.25,0,0,0,4.62,17.87c1.84,5.7,4.28,11.26,5.1,17.23l-.44-3.33a23.29,23.29,0,0,1,0,5.72l.45-3.32a18.8,18.8,0,0,1-1.11,4l1.26-3a18.33,18.33,0,0,1-2,3.41L457,604a18.85,18.85,0,0,1-3.3,3.32l2.53-2a29.35,29.35,0,0,1-6.16,3.51l3-1.26a108.82,108.82,0,0,1-14.81,4.46,76.41,76.41,0,0,0-17.68,6.55,61.45,61.45,0,0,0-26.83,30.07c-6.14,14.57-6.51,32.35,2.49,45.88,8,12.07,20.68,19.8,34.3,24.13,7.71,2.45,15.76,3.65,23.74,4.87,4.09.62,8.18,1.23,12.24,2a63.51,63.51,0,0,1,11.78,3l-3-1.26a13,13,0,0,1,2.54,1.44l-2.53-2a11.9,11.9,0,0,1,1.24,1.22l-1.95-2.53a13.62,13.62,0,0,1,1.69,3l-1.26-3c2.46,6.3,4.59,12.61,8.4,18.27a72.35,72.35,0,0,0,12.83,14.61c10.23,8.77,21.92,14.89,34.46,19.67s25.63,7.67,38.78,10a477.79,477.79,0,0,0,49,5.87c29.87,2.12,60.29,3.08,89.82-2.81a143.8,143.8,0,0,0,41.72-15c12.48-6.93,24.51-17.06,30.38-30.37a61.21,61.21,0,0,0,5.34-25.13,86.2,86.2,0,0,0-3.51-23.11c-4.17-14.57-11.66-27.86-18.22-41.42-1.54-3.2-3-6.42-4.41-9.69l1.26,3a99.06,99.06,0,0,1-7-24.62l.45,3.32c-1.09-8.16-1.33-16.39-2.14-24.58a137.79,137.79,0,0,0-4.4-24.37,156.52,156.52,0,0,0-18.68-40.77C713,513,691.52,490.9,667.2,473.4a194.05,194.05,0,0,0-39-21.58,163.54,163.54,0,0,0-45.17-11.44,145.22,145.22,0,0,0-47.22,2.55,138.24,138.24,0,0,0-41,16.69c-11.9,7.14-23.3,16-32.25,26.63a87.15,87.15,0,0,0-11.89,17.59A69.66,69.66,0,0,0,444,526.1a49.52,49.52,0,0,0-.35,8.61c.32,6.52,5.52,12.81,12.5,12.5,6.5-.29,12.84-5.51,12.5-12.5Z"/></g><path class="cls-1" d="M428.19,283.33c-70.05-14.74-148.87-13.16-171.37,69-16.62,60.92,9.7,122.46,17.64,182.74,7.77,69.43-3.36,158.79-54.69,209.88"/></g><path class="cls-7" d="M458.42,536.11C456.73,505,488.15,478,518.53,464.68s65.87-12.56,97.14-1.53,58.51,31.79,80.55,56.57c19.83,22.29,36.13,48.92,40.28,78.45,1.71,12.12,1.35,24.52,3.93,36.48,3.89,18,14.16,33.85,21.57,50.7s11.88,36.75,3.92,53.35c-5.47,11.42-16.08,19.58-27.32,25.41-31.24,16.22-68,17.12-103.21,15.49-26.91-1.25-53.86-3.79-80.07-10-27.12-6.39-56.36-19.66-65.41-46-.8-2.33-1.48-4.83-3.18-6.62s-4.25-2.62-6.67-3.26c-13.74-3.61-28.18-4.12-41.83-8s-27.23-12.4-31.74-25.87a36.47,36.47,0,0,1-.63-19.42,47.79,47.79,0,0,1,30.92-34.3c12.41-4.15,28.94-5,33.38-17.35,2.54-7-.48-14.72-3-21.78a156,156,0,0,1-8.7-56.86"/><path class="cls-5" d="M480.41,538.39c.11,9.15,1.6,18.74,6.32,26.74a30.67,30.67,0,0,0,17.11,13.81c6.65,2.14,14.13,1.71,20.78-.2a58.07,58.07,0,0,0,20.73-11.38,67.69,67.69,0,0,0,17-21.4c1.79-3.49,1-8.29-2.69-10.26-3.42-1.81-8.35-1-10.26,2.69a64.12,64.12,0,0,1-4.32,7.27c-.37.53-.74,1.06-1.12,1.58l-.58.77c-.49.67,1.19-1.52.67-.87l-.42.54c-.82,1-1.67,2-2.55,3a60.23,60.23,0,0,1-5.68,5.5c-.45.39-.92.77-1.39,1.14l-.4.32c-.58.47,1.24-.94,1-.78s-.54.41-.82.61c-1,.74-2,1.44-3.09,2.11a48.93,48.93,0,0,1-7.2,3.79l1.79-.75a39.2,39.2,0,0,1-9.81,2.74l2-.26a29.51,29.51,0,0,1-7.57,0l2,.27a23.79,23.79,0,0,1-6-1.63l1.79.75a20.73,20.73,0,0,1-3.7-2c-.29-.2-.58-.47-.89-.64,0,0,1.78,1.43,1,.74l-.39-.32a21.93,21.93,0,0,1-1.65-1.55c-.51-.53-1-1.1-1.46-1.67,1.84,2.21.24.3-.3-.54a29.57,29.57,0,0,1-2.42-4.59l.76,1.79a44.1,44.1,0,0,1-2.9-11l.27,2a70.2,70.2,0,0,1-.58-8.32c-.05-3.92-3.41-7.69-7.5-7.5a7.62,7.62,0,0,0-7.5,7.5Z"/><path class="cls-6" d="M532.68,598.38A571.35,571.35,0,0,0,457.82,608q-10.38,2-20.69,4.45a5,5,0,0,0-3.49,6.15,5.11,5.11,0,0,0,6.15,3.5q18-4.23,36.24-7.28c3-.5,6.09-1,9.13-1.44,1.45-.22,2.89-.43,4.34-.63l2.41-.34,1-.13.6-.08q9.16-1.2,18.36-2.12,10.41-1,20.85-1.66c2.61-.16,5.13-2.19,5-5-.11-2.57-2.2-5.17-5-5Z"/></g><g id="Layer_42" data-name="Layer 42"><path class="cls-7" d="M596.35,498.43c19.87-6.74,41-9.59,61.91-12.4,16-2.14,45-5.6,60.93-7.47a10.27,10.27,0,0,1,11.59,9.66c.71,26,1.57,91.55-6.18,125.87-.26,1.11-.61,2.36-1.66,2.89s-2.42.09-3.57-.38a290.34,290.34,0,0,1-116.58-88.14c-5.93-7.56-11.64-17.79-6.72-25.8"/></g><g id="Layer_43" data-name="Layer 43"><path class="cls-8" d="M596.53,147.43c-32.51-27.94-86.17-12.79-110.68,17.66-48.5,72.91,99.8,105,107.06,137,14.23-14.72,51.65-26,60.2-32.31,131.12-95.77,13.36-184-56.44-122.24"/><path class="cls-8" d="M369.6,120.37C322.53,93,303.07,152.69,351.8,170.6c6.61,4.26,6.94,16.79,16.77,11.28,53.69-7,69-94.68,1.09-61.46"/></g></g><g id="Layer_1" data-name="Layer 1"><g class="cls-9"><path class="cls-10" d="M604.33-46.89C773.66,76.18,271.38-68.3,62.05-68.3s73.59-603.91,406.82-510.25c20.84,5.86,65.57,33.76,72.2,94.16C547-430.77,525-364.67,517.92-303.87c-6.38,54.65,2.07,105.68,5.22,128.14C530.2-125.43,570.83-71.24,604.33-46.89Z"/></g></g></g><g id="sir"><g class="cls-11"><path class="cls-10" d="M2249.41,799.23c169.33,166.46-125.57,180.23-334.9,180.23s-366.77-230-379-512.65C1524,200.52-284.72,2887.94,1734.93,246.6c85.64-112,273.1-209.1,379-166.46,20.75,8.35,65.57,45.65,72.2,127.35C2192,280,2170.1,369.42,2163,451.65c-6.38,73.92,2.07,142.94,5.22,173.31C2175.28,693,2215.91,766.3,2249.41,799.23Z"/></g></g></svg>