<?xml version="1.0" encoding="UTF-8"?>
<svg id="Prior_to_November" data-name="Prior to November" viewBox="0 0 800 800" xmlns="http://www.w3.org/2000/svg">
 <defs>
  <style>.cls-1,.cls-3{fill:#ec3868;}.cls-1,.cls-6{stroke:#2f152f;stroke-miterlimit:10;stroke-width:3px;}.cls-2,.cls-6{fill:none;}.cls-4{clip-path:url(#clip-path);}.cls-5{fill:#e22228;}.cls-7{clip-path:url(#clip-path-2);}.cls-8{fill:#f4be1c;}.cls-9{fill:#f5c020;}.cls-10{fill:#a2ada2;}.cls-11{fill:#e99244;}.cls-12{fill:#f5bf1e;}.cls-13{fill:#33312d;}.cls-14{fill:#54899b;}.cls-15{fill:#e5e6e6;}.cls-16{fill:#48588e;}.cls-17{fill:#301330;}</style>
  <clipPath id="clip-path">
   <path class="cls-1" d="M381.56,1105C214.5,558-290,1161,265.6,1539.68c5.72,3.9,58.38-3.07,65.15-4.17,726-117.39,384.32-835.29,50.81-430.49"/>
  </clipPath>
  <clipPath id="clip-path-2">
   <rect class="cls-2" x="-172.01" y="-78.68" width="1008.8" height="1008.8"/>
  </clipPath>
 </defs>
 <g id="hold_asparagus" data-name="hold asparagus">
  <g id="heart">
   <path class="cls-3" d="M381.56,1105C214.5,558-290,1161,265.6,1539.68c5.72,3.9,58.38-3.07,65.15-4.17,726-117.39,384.32-835.29,50.81-430.49"/>
   <g class="cls-4">
    <path class="cls-5" d="m-158.16 914.27c5.46-36.46 11.11-72.89 16.21-109.39 0.85-6.06 2.28-7 8.32-6.14q308.25 46.52 616.63 92.59 249.2 37.35 498.42 74.53c6 0.9 7.12 2.27 6.16 8.31-5.83 36.4-11.11 72.88-16.57 109.34-2.83 2.71-6.28 3-10 2.69-4.74-0.47-9.44-1.18-14.14-1.88q-541.11-81.1-1082.2-162.21c-4.7-0.71-9.4-1.4-14.07-2.35-3.64-0.76-6.83-2.06-8.74-5.49z"/>
   </g>
   <path class="cls-6" d="M381.56,1105C214.5,558-290,1161,265.6,1539.68c5.72,3.9,58.38-3.07,65.15-4.17,726-117.39,384.32-835.29,50.81-430.49"/>
  </g>
  <g id="Hug_Blahaj">
   <g class="cls-7">
    <path class="cls-8" d="m380.37 794.25c-90.05-1.55-173.51-14-252.75-48.83-24.62-10.8-47.62-26.93-69.55-43.36-22.61-16.91-28.58-44.36-29.45-72.36-2.69-86.25 10.94-169.44 44.38-248.09 13-30.7 15-62.82 16.77-95.44 2.47-46.84 4.92-93.68 8.06-140.47 0.65-9.65 3.63-19.33 6.72-28.52 7.1-21.12 22.34-28.74 40.41-18 16.53 9.82 31.83 22.3 46.89 34.7 14.46 11.91 28.07 25.06 41.78 38 6.51 6.15 12.82 7.4 21.43 4.81 33.82-10.17 67.44-22.33 101.94-28.35 80-14 158.64-7.32 233.78 28.12 11.4 5.38 19.84 2.61 30.06-3.18 23.41-13.27 47.58-25 71.52-37.1a41.89 41.89 0 0 1 10.64-3.4c29.23-5.84 43.48 9.89 38.89 41.47-6.36 43.7-12.52 87.47-17.36 131.39-1.38 12.43 0.41 26 3.69 38.15 12.78 47.21 15.25 94.9 10.17 143.47-3.67 35-7 70.12-9.61 105.26a75.22 75.22 0 0 0 3.11 27.78c8.86 27.77 0.11 50.13-17 69.85-25 28.76-57.24 45.32-90.69 59.08-62.08 25.54-126.7 38.12-192.8 42.55-18.65 1.22-37.28 1.82-51.03 2.47z"/>
    <path class="cls-9" d="m42.46 498.87c23.45 81.06 1.92 56.48 66.23 44.28 69.21 0.48 108.78 52.08 58.77 110-9.19 13.19-98.05 53.05-112.6 39.44-41.27-49.04-19.61-134.84-12.4-193.72z"/>
    <path class="cls-10" d="m621.35 456.62q-0.92-6.66-1.81-13.33 0.9 6.71 1.81 13.33z"/>
    <path class="cls-10" d="m612.46 419.83-3-5.28z"/>
    <path class="cls-10" d="M619.13,463.24l2.39-3.39c-.16,1.78-.31,3.56-.47,5.33Z"/>
    <path class="cls-11" d="m515.34 427.75c48.45-5.93 138.28 2.71 128.6-70.2-14.84-70.82-124.4-84.27-170.5-37.61-50 67-41.23 121.22 41.9 107.81"/>
    <path class="cls-11" d="m121.79 434.1c36.06-4.41 102.93 2 95.72-52.25-11-52.72-92.6-62.73-126.91-28-37.22 49.85-30.69 90.22 31.19 80.24"/>
    <path id="frontarm" class="cls-12" d="M535.7,632c-30.34-18.28-61.93-38.8-97.24-22.44-93.8,31.34-22.16,155.33,49.59,168.88,75.57-8.46,153.19-29.77,215.6-74.76C722.5,687.9,542.9,636.36,535.7,632Z"/>
   </g>
   <path class="cls-13" d="M226,378c-1.79,4.92-3.32,10-4.75,15a115.74,115.74,0,0,0-3.3,17,141.89,141.89,0,0,0-.46,30.9,157.15,157.15,0,0,0,3,19.53,10.15,10.15,0,0,0,4.62,6c2.25,1.18,5.26,2,7.73,1a27.37,27.37,0,0,0,8.49-4.9,30.1,30.1,0,0,0,4.69-5.25,95,95,0,0,0,5.21-8.6,184.08,184.08,0,0,1,12.39-18.13l-1.72,2.23a235.32,235.32,0,0,1,32.65-34.21q5.47-4.71,11.19-9.12l-2.28,1.76q4-3,8-6H300c10,6.91,19.95,14,29.88,21s20.06,14.07,30.16,21c5,3.42,9.89,6.93,14.91,10.27A20.28,20.28,0,0,0,387,441.11c5.71-.33,11.09-3,13.91-8.18a17.09,17.09,0,0,0,2.06-7.7,25.35,25.35,0,0,0-.69-5.93l-1.58-8.82-3.19-17.89-7.23-40.43c-.51-2.88-3.23-5.94-5.66-7.37a12.33,12.33,0,0,0-16.87,4.43,13.87,13.87,0,0,0-1.24,9.5l9.81,53.34c.92,5,1.91,9.93,2.75,14.92l-.44-3.23a7.15,7.15,0,0,1,0,1.73l.44-3.23a6.25,6.25,0,0,1-.32,1.22l1.22-2.9a5.08,5.08,0,0,1-.51.87l1.89-2.46a4.94,4.94,0,0,1-.56.56l2.45-1.9a6.81,6.81,0,0,1-.73.45l2.89-1.23a5.91,5.91,0,0,1-1.65.43l3.22-.43a8.68,8.68,0,0,1-1.69,0l3.23.43a9.82,9.82,0,0,1-1.94-.56l2.89,1.22c-2.57-1.14-4.86-3-7.18-4.58l-7.43-5.07-15.29-10.41c-10.18-6.94-20.5-13.67-30.79-20.45-5.84-3.85-11.63-7.77-17.41-11.71-3-2.07-8.4-2.2-11.41,0-23.27,16.94-44.35,36.79-60.48,60.76-4.24,6.29-8.41,12.87-11.33,19.88l1.08-2.55a26.3,26.3,0,0,1-2.87,5.09l1.61-2.08a13.25,13.25,0,0,1-2.27,2.22l2.05-1.59a16.53,16.53,0,0,1-2.75,1.62l14.74,6a139.19,139.19,0,0,1-4.2-19.7l.34,2.49a126.91,126.91,0,0,1,.19-33.44l-.31,2.31c.32-2.31.66-4.62,1-6.93l-.3,2.27a112.49,112.49,0,0,1,4.59-19.93,7.89,7.89,0,0,0-5.47-9.63c-4.41-1-8.12,1.34-9.63,5.47Z"/>
   <path class="cls-13" d="M512.37,281.09a142.54,142.54,0,0,0-60.4-17,161,161,0,0,0-30.79,1.67,174.41,174.41,0,0,0-27.92,6.35,239.57,239.57,0,0,0-33.12,13.36l-2.53,1.95a9.47,9.47,0,0,0-2.58,4,12,12,0,0,0-.63,8.14,14.92,14.92,0,0,0,3.21,5.51,12.51,12.51,0,0,0,8.84,3.66,212.81,212.81,0,0,1,41,1.32l-3.32-.45a172.6,172.6,0,0,1,35.22,8.49q4.26,1.53,8.43,3.29l-3-1.26A180.51,180.51,0,0,1,479,339.51q3.63,2.6,7.19,5.3c2.41,1.83,6.87,2,9.63,1.26a12.77,12.77,0,0,0,7.47-5.74,12.59,12.59,0,0,0,1.26-9.63l-1.26-3a12.49,12.49,0,0,0-4.48-4.48,200.82,200.82,0,0,0-33.95-21.29,184.55,184.55,0,0,0-26.63-10.49,194.55,194.55,0,0,0-31.89-6.5,213.23,213.23,0,0,0-39.86-1.17l6.31,23.3q5.65-2.76,11.43-5.21l-3,1.26a186.2,186.2,0,0,1,47.47-13.35l-3.33.44a141.25,141.25,0,0,1,37-.14l-3.33-.44a127.45,127.45,0,0,1,32.24,8.78l-3-1.26q5.86,2.49,11.45,5.52a13.12,13.12,0,0,0,9.64,1.26,12.5,12.5,0,0,0,3-22.85Z"/>
   <path class="cls-13" d="M146.43,306.75c14.24-1.59,28.61-2.19,42.93-2.51,16.51-.37,33-.27,49.54.62,8,.43,16.08,1.05,24.07,2.11l-3.32-.45c1.2.16,2.39.34,3.59.52a13,13,0,0,1,2.72.47l-3-1.26.15.09-2.53-2a.08.08,0,0,0,0,0l-2-2.53,0,0-1.26-3s0,0,0,0l-.45-3.32v0l.45-3.32a0,0,0,0,0,0,0l1.26-3,0,0,2-2.53a.34.34,0,0,1-.06.06L263.1,285a1.82,1.82,0,0,1-.31.16l3-1.26a19.51,19.51,0,0,1-3.69.91c-2.33.46-4.68.86-7,1.27-7.12,1.24-14.23,2.51-21.31,4-19.83,4-39.33,9.38-57.91,17.46a111.4,111.4,0,0,0-28.79,17.68c-2.32,2-3.66,5.87-3.66,8.84a12.5,12.5,0,0,0,12.5,12.5,13.94,13.94,0,0,0,8.84-3.66c1-.86,2-1.7,3-2.5l-2.53,1.95a111.57,111.57,0,0,1,24.86-13.93l-3,1.26c14.56-6.13,29.88-10.37,45.29-13.79,11.25-2.51,22.61-4.42,33.95-6.48,3.07-.56,6.64-1,9.32-2.76,4.77-3.11,7.44-8.61,5.84-14.32a12.91,12.91,0,0,0-9-8.92,132.74,132.74,0,0,0-13.78-1.92c-18-2-36.2-2.44-54.3-2.4-17.65,0-35.36.55-52.94,2.18-1.69.16-3.38.33-5.06.52a9.41,9.41,0,0,0-4.82,1.08,9.29,9.29,0,0,0-4,2.58,12.51,12.51,0,0,0,0,17.68c2.29,2.1,5.61,4,8.84,3.66Z"/>
   <path class="cls-13" d="M170.5,385c-1.39-.94-2.68-1.93-4-3a62.78,62.78,0,0,0-5.36-3.82l-9.19-6c-3.14-2.07-6.22-4.2-9.27-6.41s-6-4.5-9.23-6.47l-19.11-11.84c-3.11-1.93-6.2-3.91-9.41-5.68l-9.61-5.33c-3.63-2-7.22-4.17-10.95-6l-5.83-2.89-2.69-1.34a19.23,19.23,0,0,0-3.14-1.38,14.08,14.08,0,0,0-3.8-.33l2.29.31-6.24-2c-2.65-.86-5.65-1.42-8.35-.49a5.16,5.16,0,0,0-3.52,6.2c1.16,4.82,6.09,7.81,9.7,10.77l-1.35-1.75c.25.35.46.72.69,1.09A10.86,10.86,0,0,0,66,342.2c.7.45,1.42.86,2.13,1.29l5.14,3.1c3.14,1.89,6.39,3.58,9.61,5.32,6.6,3.58,13.15,7.21,19.92,10.46l20.32,9.77c3.75,1.8,7.56,3.38,11.43,4.92l5,2c.76.3,1.51.62,2.27.9,1.54.58-1.16-.53.37.15l1.38.62L155,385.83c2.17,1,4.33,2.08,6.58,2.85,1.9.65,3.79,1.2,5.63,2a3.38,3.38,0,0,0,4.49-1.18A3.34,3.34,0,0,0,170.5,385Z"/>
   <path class="cls-13" d="M146.43,431.25c-1.83.08-3.62.06-5.45,0a56.12,56.12,0,0,0-5.94.11l-10.89.6c-3.71.2-7.41.31-11.13.36s-7.44,0-11.14.28l-22.27,1.85c-3.64.3-7.28.55-10.89,1l-10.89,1.44c-4.83.64-9.7,1.13-14.5,1.94-2.12.35-4.24.76-6.36,1.14l-2.94.52a12.14,12.14,0,0,0-6.23,3.18l1.79-1.39-.38.26,2.06-.87-6.58,2.2c-3.2,1.07-5.89,2.44-7.84,5.29a5,5,0,0,0,.78,6.1A11.71,11.71,0,0,0,22,457.62a19.53,19.53,0,0,0,4.69.68l6.93.35-2.3-.31.44.14-2.12-.89a11.53,11.53,0,0,0,6.46,1.49l2.47-.23,5.94-.57c4.35-.42,8.68-1.13,13-1.74,7.41-1.05,14.82-2,22.17-3.43l22-4.21c7.15-1.38,14.06-3.64,21.16-5.21L134.86,441a57.6,57.6,0,0,0,6.26-1.5,61.49,61.49,0,0,1,6.18-1.82c3.58-.83,2.85-6.61-.87-6.45Z"/>
   <path class="cls-13" d="M529.25,339c1.66-.24,3.28-.32,5-.4a64.39,64.39,0,0,0,6.62-.84l10.92-1.7,2.73-.43,1.24-.19c.3,0,1.86-.45.36-.06a39.87,39.87,0,0,1,5.58-.63c4.21-.47,8.44-.84,12.6-1.6L596.44,329c3.61-.66,7.24-1.27,10.81-2.11L618,324.41c4-1,8.14-1.78,12.15-2.89,2.08-.58,4.16-1.18,6.24-1.78l2.89-.81a13.36,13.36,0,0,0,3.19-1.22,19.45,19.45,0,0,0,2.84-2.34l-1.75,1.36c4.28-1.91,9.75-3.47,12.14-7.83a5.18,5.18,0,0,0-1.81-6.9c-2.33-1.59-5.39-1.84-8.13-1.7l-6.56.32,2.3.31c-.43-.1-.84-.24-1.26-.36a11.41,11.41,0,0,0-5.48.09l-2.46.49-5.89,1.16c-3.6.7-7.15,1.63-10.71,2.5-7.28,1.78-14.57,3.48-21.76,5.62l-21.54,6.4c-7.05,2.09-13.78,5.05-20.77,7.34l-11.88,3.88a69.55,69.55,0,0,0-6.72,2.37c-1.82.81-3.6,1.57-5.48,2.21a3.36,3.36,0,0,0-2.29,4c.52,1.89,2.27,2.55,4,2.29Z"/>
   <path class="cls-13" d="M513.22,384.29c1.87.89,3.65,1.84,5.43,2.88s3.62,1.9,5.5,2.77l11,5.06c3.66,1.69,7.28,3.41,10.88,5.24,4.12,2.09,8.19,4.35,12.45,6.13l-1.9-.8,28.64,12.35c10.22,4.4,20.69,8.22,31.09,12.18,2.8,1.07,5.62,2,8.46,3l4,1.34c.71.24,1.41.52,2.12.72a14.23,14.23,0,0,0,6.23-.07l-2.33.31.47,0-2.3-.31,7.33,1.45c3.08.61,6.33,1.14,9.37,0s4.65-4.35,3-7.41c-1.48-2.74-4-4.59-6.68-6.12l-6.38-3.7,1.74,1.35a9.69,9.69,0,0,1-.94-1,13,13,0,0,0-4.53-2.67l-3-1.26-6-2.51c-3.83-1.6-7.75-3-11.65-4.45-7.93-2.95-15.83-6-23.89-8.59l-23.88-7.71c-4-1.31-8.07-2.41-12.18-3.46s-8-2-12-3.17l-13.57-4c-2.3-.68-4.58-1.46-6.93-1.93s-4.7-1-7-1.63a3.28,3.28,0,0,0-3.87,1.9,3.25,3.25,0,0,0,1.34,4.1Z"/>
   <g id="Layer_65" data-name="Layer 65">
    <path class="cls-14" d="M173.88,634c-98.41-124,11.3-305.5,151.84-333.52C468,318.36,441.9,558.35,564.4,638.11c36.73,84.51-139.79,110.48-203.11,111C229,765.49,146.43,633.29,141.6,515.53"/>
    <path class="cls-14" d="m480 645.31c40.48-51.31 119.16-63.91 173.68-27.81-92.37 138.16-75 295.28-202.16 47.64"/>
    <path class="cls-14" d="M469.52,506.5c-.53-5.13,2.3-6,5.71-12.81,2.82-5.64,5.41-13.43,11.09-16.16,5.11-2.45,11.59-4,13.6-9.34,1.44-3.78-.11-8-1.85-11.66-20.27-42.62-65.68-67.48-92.45-106.35-4.65-6.75-8.9-14.1-15.63-18.79"/>
    <path class="cls-15" d="m303.43 710.34c-80.72-20.74-137.14-131.61-120.43-229 4.47-26 41.37-112.41 90.14-117.8 45-5 59.13 113 81.91 135.77 182.12 182.13 133.57 258.61-51.62 211.03z"/>
    <path class="cls-14" d="M140.7,536.8c6.67,63.1,13.66,127.39,39.38,185.39,4.57,10.31,11,21.43,21.92,24.16,7.23,1.81,15-.63,21.22-4.7a43.81,43.81,0,0,0,19.17-30"/>
    <path class="cls-14" d="M360.2,453c6.68,63.09,13.67,127.38,39.38,185.39,4.57,10.31,11,21.43,21.92,24.16,7.23,1.81,15-.63,21.22-4.7,10.26-6.69,35.42-37.71,37.16-49.83"/>
    <path class="cls-16" d="m386.41 460.68c1 3.62 1.71 7.62 0.48 11.1-1.72 4.82-6.83 7.06-11.34 6.31s-8.49-3.82-12.07-7.12a106.22 106.22 0 0 1-26.71-40c-4-10.5-7.48-23.89 0.27-30.8 6-0.19 8.66 0.72 11.94 2.91 6.89 4.58 5.86 4.55 9.28 6.65 0-0.04 21.47 26.67 28.15 50.95z"/>
    <path class="cls-16" d="m175 507.2c-2.41 2.87-5.3 5.74-8.86 6.7-5 1.33-9.69-1.61-11.64-5.74s-1.68-9.16-1-14a106.2 106.2 0 0 1 17.77-44.73c6.37-9.27 15.42-19.73 25.5-17.27 3.59 4.85 4.33 7.53 4.4 11.47 0.14 8.27-0.42 7.41-0.21 11.41-0.03 0.02-9.8 32.87-25.96 52.16z"/>
    <path class="cls-17" d="M397.85,413a107.26,107.26,0,0,0-52.4-33.15,110.35,110.35,0,0,0-18-3.31,7.11,7.11,0,0,0-3.78,1,7.42,7.42,0,0,0-3.07,3.59c-1.08,2.54-.75,6.3,1.55,8.19,9.27,7.61,18.54,15.25,27.13,23.65a164.32,164.32,0,0,1,12.28,13.29c.46.55.91,1.11,1.35,1.67l.54.68c1,1.24-1.07-1.42-.12-.16s1.72,2.3,2.55,3.47q2.69,3.81,5.07,7.82c3.76,6.32,7,12.91,11,19.12,2.1,3.31,6.77,4.95,10.26,2.69,3.31-2.13,4.94-6.72,2.69-10.26-3.53-5.55-6.54-11.4-9.82-17.09a136.72,136.72,0,0,0-11.29-16.54c-7.51-9.5-16.28-17.92-25.4-25.85-5.13-4.46-10.38-8.78-15.64-13.1l-5.3,12.81c.93.09,1.85.2,2.77.32l-2-.26a99.88,99.88,0,0,1,25.32,6.92l-1.8-.76a101.66,101.66,0,0,1,20,11.23l1.12.83c.43.32,2,1.58.07,0,.72.59,1.46,1.16,2.18,1.75q2.16,1.77,4.21,3.67a96.81,96.81,0,0,1,8,8.33c2.56,3,8,2.83,10.61,0,2.92-3.18,2.73-7.41,0-10.6Z"/>
    <path class="cls-17" d="M223.82,457c-6.58,11.55-9.81,24.82-7.42,38,.44,2.44,3.8,4.46,6.15,3.5a54.33,54.33,0,0,0,13.8-8.35,106.86,106.86,0,0,0,9.87-9.52c3.25-3.45,6.46-6.95,10-10.15.82-.75,1.65-1.48,2.5-2.18a14.58,14.58,0,0,1,1.43-1.17c-.12.08-.85.65-.13.11l.9-.67c.51-.37,1-.72,1.54-1.07.34-.23,1.09-.5,1.3-.84-.32.52-1.73.23-2.22,0-.26-.1-1.2-.83-.49-.2s1.43,1.17,2.16,1.72a49.8,49.8,0,0,0,14.54,7.17,158.57,158.57,0,0,0,15.45,4.16c5.5,1.24,11.61,2,17-.24a18.59,18.59,0,0,0,11.11-12.73c3.3-12.26-.66-25.74-9.41-34.74a5,5,0,1,0-7.07,7.07,35.88,35.88,0,0,1,2.38,2.7c-.74-.93.33.49.49.73.41.6.79,1.2,1.15,1.82.56,1,1,1.95,1.51,2.94.35.71-.41-1.12,0,.06.09.25.19.49.28.73.22.61.43,1.22.61,1.84a33.31,33.31,0,0,1,.81,3.42c.05.26.08.52.13.77.21,1.27-.06-.76,0,0s.13,1.45.17,2.18c0,1.14,0,2.28,0,3.42,0,.61-.09,1.22-.15,1.83-.1,1,0,.07,0-.1a5.37,5.37,0,0,1-.17,1,20.53,20.53,0,0,1-.75,2.87,2.67,2.67,0,0,1-.24.64l.24-.57c-.07.16-.14.32-.22.47a14.22,14.22,0,0,1-.85,1.53c-.18.27-.5,1,.05,0a4.24,4.24,0,0,1-.47.55c-.38.42-.8.78-1.21,1.16s1-.56-.08,0c-.24.13-.46.3-.7.43s-.48.26-.72.39c-1.12.61.92-.27-.28.12a16.75,16.75,0,0,1-1.71.5,3.36,3.36,0,0,1-1,.2c.12,0,1.14-.11.15,0a26.2,26.2,0,0,1-3.76,0,8.79,8.79,0,0,1-1.77-.18c1,.29.46.06.17,0l-1-.17c-1.2-.22-2.38-.49-3.56-.77a152.07,152.07,0,0,1-15.13-4.22l-1.73-.64c-.22-.09-2-.83-.87-.33-1.15-.5-2.29-1-3.39-1.62s-1.91-1.05-2.83-1.64c-.53-.34-1-.71-1.55-1.07s-.16.1.12.1c-.14,0-.75-.61-.86-.71-1.58-1.35-3.17-2.47-5.33-2.53a8.82,8.82,0,0,0-5.07,1.77,68.77,68.77,0,0,0-6.36,4.8,119.92,119.92,0,0,0-9.68,9.45c-3.39,3.6-6.74,7.25-10.45,10.53-.94.84-1.91,1.64-2.9,2.43-.59.47,1-.71,0,0l-.88.64q-.73.53-1.5,1c-1,.68-2.07,1.31-3.14,1.9-.55.29-1.1.58-1.66.85l-.85.4c-.25.12-1.57.67-.38.18l6.15,3.5c-.06-.33-.12-.66-.17-1-.1-.63-.24-.63,0-.05a7.81,7.81,0,0,1-.2-2c-.1-1.34-.14-2.7-.11-4.05s.11-2.75.26-4.12c0-.14.17-1.3.07-.58s.09-.58.1-.58c.11-.7.24-1.4.38-2.09a53.73,53.73,0,0,1,2.39-8.16c.13-.35.27-.69.4-1,.52-1.34-.23.5.1-.27s.62-1.39.94-2.07c.7-1.47,1.47-2.91,2.27-4.32a5,5,0,0,0-8.63-5.05Z"/>
    <path class="cls-17" d="M174.16,448c0-.27.05-.55.09-.82l-.27,2a24.18,24.18,0,0,1,1.68-5.89L174.9,445a38.69,38.69,0,0,1,3.83-6.66c.4-.57.82-1.14,1.24-1.7.16-.2.79-1,.06-.08s0,0,.2-.24c.83-1.05,1.69-2.08,2.54-3.11l11.78-14.19L182,411.76l-15.17,48.69-4.37,14a7.58,7.58,0,0,0,5.24,9.23,7.66,7.66,0,0,0,9.23-5.24l15.17-48.69,4.37-14a7.57,7.57,0,0,0-3.45-8.47,8.92,8.92,0,0,0-3.78-1,7.45,7.45,0,0,0-5.31,2.2c-4.87,5.86-9.86,11.64-14.58,17.63a59.91,59.91,0,0,0-6.53,9.52A33.6,33.6,0,0,0,159.16,448a7.5,7.5,0,0,0,12.8,5.31,8.56,8.56,0,0,0,2.2-5.31Z"/>
    <path class="cls-17" d="M474,494.56c-4.65-10.31-9.18-20.67-13.84-31-5.79-12.82-11.68-25.61-18-38.19-2.95-5.86-6-11.69-9.35-17.32-1.65-2.76-6-.25-4.32,2.52,6.44,10.81,11.89,22.23,17.26,33.59,5.86,12.41,11.48,24.93,17.06,37.46,2.29,5.15,4.56,10.31,6.88,15.44a2.52,2.52,0,0,0,3.42.9,2.56,2.56,0,0,0,.9-3.42Z"/>
   </g>
   <path class="cls-9" d="M129.3,527.66c23.45,81.07,29.14,63.68,93.45,51.48C490.39,621.27,27.32,915,129.3,527.66Z"/>
   <path id="frontarm-2" class="cls-12" d="m549.55 466.46c-30.34-18.29-61.93-38.81-97.24-22.45-93.8 31.34-22.16 155.33 49.59 168.88 75.57-8.46 142.56-43.8 205-88.8 18.82-15.82-150.15-53.32-157.35-57.63z" data-name="frontarm"/>
  </g>
 </g>
</svg>
