<svg id="Prior_to_November" data-name="Prior to November" xmlns="http://www.w3.org/2000/svg" viewBox="0 0 800 800"><defs><style>.cls-1{fill:#54899b;}.cls-2{fill:#e7e7e8;}.cls-3{fill:none;}.cls-4{fill:#2f152f;}</style></defs><g id="hold_asparagus" data-name="hold asparagus"><g id="sneaky"><path class="cls-1" d="M71.72,484.09C87.29,410,122.9,348.93,176.43,295.38s130.89-86,205.78-74.85C479.59,235.07,705,478.14,732.28,533.81S767.9,649.18,767.9,711.2c0,2.77,5.11,37.06-3.95,60.13-.73,1.85-61,7.82-233,6.69-82.86-.54-358.53-1.59-425-15C49,751.55,60.41,537.9,71.72,484.09Z"/><path class="cls-2" d="M412.42,782c29.43-4.18,79.74,1.68,118.55-4,30.6-4.44,4.38-49.3-6.7-76.32s-34.89-47.61-56.53-68.57c-52-50.38-96.33-110.61-109.46-179-7.52-39.15-4.57-79.58-13-118.58-2.66-12.26-6.7-24.77-15.78-34.09-11.13-11.44-28.23-16.37-44.8-18.31-42.14-4.91-85.43,6.75-121,28s-64,51.61-86.22,84.84C19.57,482.57,2.81,592.32,37,688.87c6.55,18.51,15.13,36.87,29.39,51.26,34,34.29,90.28,38.08,140.74,39.53,47.72,1.36,178,1.35,205.31,2.31"/><path class="cls-3" d="M71.72,484.09C87.29,410,122.9,348.93,176.43,295.38s130.89-86,205.78-74.85C479.59,235.07,705,478.14,732.28,533.81S767.38,659,735.57,712.2c-17.42,29.14-24,43.28-54.33,52.4C678.3,765.49,297.81,803,93,763,40.09,752.69,60.41,537.9,71.72,484.09Z"/><g id="Layer_184" data-name="Layer 184"><path class="cls-4" d="M545.81,466.12c15.38,13.47,20,37.16,12.49,56.16s-26,32.72-46.13,36.31-41.38-2.39-57.92-14.4-28.53-29.67-35.56-48.86a8.34,8.34,0,0,1-.73-3.88c.46-3.55,4.73-5,8.25-5.67l117.05-22.71"/><path class="cls-4" d="M534.81,462.45q-32.43,4.94-64.81,10.29t-64.92,11.18q-18.24,3.25-36.44,6.66c-2.88.53-5.91,3.2-7.35,5.64A12.3,12.3,0,0,0,365.7,513a13.73,13.73,0,0,0,9.47,1.24q32.26-6,64.59-11.61t65-10.81q18.29-2.91,36.6-5.7c2.84-.44,6-3.29,7.34-5.65a12.58,12.58,0,0,0,1.24-9.47,12.43,12.43,0,0,0-5.65-7.34l-2.93-1.24a12.3,12.3,0,0,0-6.54,0Z"/><path class="cls-4" d="M130.24,545.9a211.45,211.45,0,0,0,10.6,50.62c1.46,4.21,2.88,8.62,5.21,12.44a30.29,30.29,0,0,0,4.53,5.86,22.49,22.49,0,0,0,8.35,5.15,18.11,18.11,0,0,0,4.89.84,17.73,17.73,0,0,0,5-.52,18.8,18.8,0,0,0,8.78-5c3.28-3.21,5.24-7.47,7.37-11.46L198.68,578l-19.3,2.49a197.68,197.68,0,0,0,26.54,21.93c9.45,6.55,19.61,12.56,30.39,16.65a38.09,38.09,0,0,0,21.2,1.83,19,19,0,0,0,3.14-.95,36.25,36.25,0,0,0,5.23-2.39,30.35,30.35,0,0,0,6.66-5.34,39.33,39.33,0,0,0,10-30.16,50.75,50.75,0,0,0-2.35-11.24,75.21,75.21,0,0,0-4.52-10.39,135.53,135.53,0,0,0-9.66-15c-1.89-2.67-4.09-4.75-7.34-5.65a12.58,12.58,0,0,0-9.47,1.24,12.39,12.39,0,0,0-5.64,7.34c-.7,3.06-.66,6.81,1.23,9.47,4.44,6.24,8.87,12.57,11.87,19.65l-1.24-2.94a42.11,42.11,0,0,1,3,10.6l-.44-3.26a29.56,29.56,0,0,1,0,7.34l.44-3.26a29.52,29.52,0,0,1-2,7.43l1.24-2.94a25.28,25.28,0,0,1-3.11,5.38l1.93-2.48a21.26,21.26,0,0,1-3.59,3.63l2.49-1.92a19,19,0,0,1-4.13,2.41l2.94-1.24a19.45,19.45,0,0,1-4.43,1.18L253,597a23.65,23.65,0,0,1-5.64,0l3.27.43a37.74,37.74,0,0,1-9.42-2.7l2.93,1.24a132.58,132.58,0,0,1-17.33-9.23,181.4,181.4,0,0,1-16-11.08l2.49,1.92a181.93,181.93,0,0,1-16.45-14.44c-5.44-5.38-15.54-4.57-19.3,2.49l-9.31,17.5-4.54,8.53a57.17,57.17,0,0,1-4.36,7.65l1.92-2.48a10.45,10.45,0,0,1-1.78,1.8l2.49-1.92a9.43,9.43,0,0,1-1.22.74l2.93-1.24a7.72,7.72,0,0,1-1.64.48l3.27-.44a6.7,6.7,0,0,1-1.55,0l3.26.44a7.59,7.59,0,0,1-1.47-.39l2.94,1.24a9.22,9.22,0,0,1-1.92-1.11l2.49,1.92a14.7,14.7,0,0,1-2.4-2.46l1.92,2.49a24.24,24.24,0,0,1-2.87-5l1.24,2.94a159.28,159.28,0,0,1-7-21.85,197.72,197.72,0,0,1-4.47-22.89l.43,3.27q-.59-4.44-1-8.9c-.29-3.32-1.17-6.26-3.6-8.69a12.28,12.28,0,0,0-17.37,0c-2.09,2.28-3.89,5.48-3.6,8.69Z"/><path class="cls-1" d="M450.82,594.5c-25.11.72-49.85-16.35-74.24-10.35-63.39,15.59-78.69,68-71.58,87.82,25.59,71.46,92.59,83.72,104.34,85.49,49.61,7.48,100.33-5.87,146-26.65"/></g></g></g></svg>