<?xml version="1.0" encoding="UTF-8"?>
<svg id="Prior_to_November" data-name="Prior to November" viewBox="0 0 800 800" xmlns="http://www.w3.org/2000/svg">
 <defs>
  <style>.cls-1{fill:none;}.cls-2{clip-path:url(#clip-path);}.cls-3{fill:#e7e7e8;}.cls-4{fill:#54899b;}.cls-5{clip-path:url(#clip-path-2);}.cls-6{fill:#e5e6e6;}.cls-7{fill:#2f152f;}.cls-8{fill:#1f1f1f;}.cls-9{clip-path:url(#clip-path-3);}.cls-10{fill:#221c1f;stroke:#fff;stroke-miterlimit:10;}.cls-11{fill:#c37343;}.cls-12{fill:#f7f8f9;}.cls-13{fill:#cbcac9;}.cls-14{fill:#8b4c28;}.cls-15{fill:#fff;}.cls-16{fill:#b2b2b2;}.cls-17{clip-path:url(#clip-path-4);}</style>
  <clipPath id="clip-path">
   <path class="cls-1" d="M136.86-63.09C306.1-29,532.82,9.75,675-114.73c12.75-21.85,12.78-50.44,6.35-75.3-90.9-351.44-36.64-465.65-152.56-521.7C350-794.5,162.66-607.9,99.63-437.19"/>
  </clipPath>
  <clipPath id="clip-path-2">
   <path class="cls-1" d="M40.85,709.91C10.22,103,647.92-206.21,710.55,243.74,718.06,353,749.32,569.37,755,643.87c1.35,17.74-7.93,30.24-17.68,42.24-126.13,149-591.67,74.87-696.45,23.8"/>
  </clipPath>
  <clipPath id="clip-path-3">
   <path class="cls-1" d="M40.85,706C10.22,99.12,647.92-210.13,710.55,239.82,718.06,349.12,749.32,565.46,755,640c1.35,17.73-7.93,30.24-17.68,42.23C611.17,831.24,145.63,757.06,40.85,706"/>
  </clipPath>
  <clipPath id="clip-path-4">
   <path class="cls-1" d="m1674.4-112.58c-30.63-606.88 607.07-916.12 669.69-466.17 7.51 109.3 38.77 325.63 44.44 400.13 1.35 17.74-7.93 30.24-17.68 42.24-126.14 149-591.68 74.87-696.45 23.8"/>
  </clipPath>
 </defs>
 <g id="Layer_123" data-name="Layer 123">
  <g class="cls-2">
   <path class="cls-3" d="M309.6-87.28c-39.8-142-27.5-302,33.46-435.17,15.38-33.59,35.11-67,65-84.23a116.48,116.48,0,0,1,30.42-11.79c51.69-12.79,110.4,3.37,143.83,49.05,23.57,32.19,32.58,74.68,38.65,115.95,2.61,17.73,4.81,35.59,8.91,53,4.45,18.88,11.1,37,18.31,54.73A825.8,825.8,0,0,0,726.74-197.4c14,20.87,29.74,44.33,26.31,70.33-1.76,13.34-8.53,25.25-16.26,35.62-33.51,45-85.49,66.75-136.3,79.32A547.73,547.73,0,0,1,446.61,3.5C416.18,2.25,385-1.84,358.19-17.81s-48.68-46-49.64-80.25"/>
   <path class="cls-4" d="M435.4-194.25c24.72,28.45,45,178.4,35.25,190-9.48,11.24-19.72,21.85-31.78,28.24-16.5,8.76-35.23,9-53.33,7.1-42.12-4.53-83.19-20.28-123.87-35.93C240.5-13,218.34-21.92,202.75-42c-7.3-9.39-12.76-20.8-17.31-32.58-19.12-49.5-22.67-106.57-15.13-159.77s25.63-102.9,47.89-148.6c16.25-33.36,7.38-51.1,36.15-66.29,3-1.58-1-3.95,0,0"/>
  </g>
 </g>
 <g id="sir">
  <path class="cls-4" d="M46,706C15.32,99.12,653-210.13,715.65,239.82c7.51,109.3,38.77,325.64,44.43,400.14,1.35,17.73-7.93,30.24-17.68,42.23C616.27,831.24,150.73,757.06,46,706"/>
  <g class="cls-5">
   <path class="cls-6" d="M609.41,799.23c169.33,166.46-125.57,180.23-334.9,180.23s-366.77-230-379-512.65C-116,200.52-1924.72,2887.94,94.93,246.6,180.57,134.6,368,37.5,474,80.14c20.75,8.35,65.57,45.65,72.2,127.35C552,280,530.1,369.42,523,451.65c-6.38,73.92,2.07,142.94,5.22,173.31C535.28,693,575.91,766.3,609.41,799.23Z"/>
  </g>
  <path class="cls-7" d="m618.08 302.65c-6 2.73-2.87 1.2-9.68 4.24-32.91 14.72-57 51.27-50.39 86.71a49.05 49.05 0 0 0 5.67 15.92 51 51 0 0 0 13.07 14.25c23.25 18 57.27 20.72 83.09 6.66s42-44.1 39.51-73.4c-1.53-18.12-10.11-35.94-24.64-46.89s-40.21-15.3-56.63-7.49"/>
  <g id="Layer_98" data-name="Layer 98">
   <path class="cls-8" d="M221.24,331.3c5.44-2.76,11-5.31,16.6-7.69l-4.18,1.77a375.13,375.13,0,0,1,43.12-15c9.28-2.65,18.65-5,28.09-7,3.2-.68,6.4-1.31,9.64-1.76l-4.65.63a36.26,36.26,0,0,1,9.25-.21l-4.65-.63a24,24,0,0,1,5.64,1.52l-4.18-1.77c4.86,2.06,9.17,5.37,13.53,8.34l15.6,10.63,34,23.16,9.59,6.53a13.07,13.07,0,0,0,6.5,2.08,13.26,13.26,0,0,0,7-.32,17.8,17.8,0,0,0,10.46-8c2.15-4.06,3.22-9,1.77-13.48l-1.77-4.18a17.5,17.5,0,0,0-6.28-6.28L388,307.14l-32.85-22.39-10.9-7.43-1.92-1.3a53,53,0,0,0-7.94-4.73,50.11,50.11,0,0,0-7.91-3.1,46.94,46.94,0,0,0-9.2-1.33c-4.64-.27-9.4.56-13.93,1.29-1.45.23-2.9.5-4.35.78-1.21.23-2.42.48-3.64.74-6.31,1.34-12.58,2.86-18.82,4.5a390.75,390.75,0,0,0-64.92,23q-4.06,1.88-8.05,3.9a16.83,16.83,0,0,0-8.35,17.43A13,13,0,0,0,197.3,325c2.4,3.74,6,7,10.45,8l4.66.63a17.44,17.44,0,0,0,8.83-2.39Z"/>
  </g>
  <g class="cls-9">
   <path class="cls-10" d="m99.69 498.49c-3.15-2.83-5.54 6.35-7.36 10.18a755.68 755.68 0 0 0-68.71 242.46c-1.24 11.41-2.18 23.23 1.46 34.11 4.72 14.12 16.47 24.68 28.63 33.26 50.36 35.55 113.75 47.74 175.36 49.81s123.21-5 184.84-3.91c55.43 1 112.54 8.45 165.1-9.18q-25.23-98.72-50.48-197.43c-6.76-26.47-13.64-53.23-26.54-77.3-158.11 4.2-253.19 51.78-402.3-82z"/>
  </g>
  <g id="Layer_91" data-name="Layer 91">
   <path class="cls-11" d="m159.38 540.7c-23.35 30.8 23.35 175.38 0 206.19l-98.69-24.13c-5.85-1.43-12-3.06-16-7.26s-4.96-10.07-5.69-15.6a495.58 495.58 0 0 1 26.61-231.13"/>
   <g id="Layer_92" data-name="Layer 92">
    <path class="cls-11" d="M385,658.67a581.48,581.48,0,0,0,42.65,108.12c2.3,4.45,4.79,9,8.55,11.77,5.17,3.78,11.69,3.44,17.76,2.92a1035,1035,0,0,0,197.92-36.65c21.84-6.29,43.84-13.45,63.1-27.09s35.69-34.67,40.88-60.37c3-15,2.12-30.76,1.17-46.19l-4.2-68.52a15.64,15.64,0,0,0-1.12-5.9c-2.69-5.57-9.75-4.16-14.88-2L476.26,644.47c-17.84,7.51-36.06,15.1-55,15.54-7.78.18-16.06-.73-22.88,3.68s-10.28,17-4.11,22.62"/>
   </g>
  </g>
  <g id="Layer_90" data-name="Layer 90">
   <path class="cls-12" d="m719 377.77c-66.77 135-450.13 78.89-434.75 177-5 126.08 637.93-77.08 434-181.28"/>
   <path class="cls-13" d="m361.85 599.73a202.23 202.23 0 0 1-36.38-2.9c-38.84-7.23-46.62-26.6-46.19-41.78a35.54 35.54 0 0 1 6.61-27.1c21.37-29 89-38.89 167.39-50.34 106.5-15.56 227.21-33.2 261.28-102.06l2.12 1.05 3.87-7.57c44.18 22.57 46.24 48.51 40.18 66.3-13.43 39.47-83.41 84.81-187.19 121.28-78.29 27.52-156.43 43.12-211.69 43.12zm360.86-218.15c-37.38 72.23-159.84 90.12-268 105.93-73 10.66-141.9 20.73-160.79 46.37a25.63 25.63 0 0 0-4.71 20.1l0.08 0.49v0.49c-0.66 16.44 12.13 27.22 38 32 50.71 9.44 148.33-6.57 242.92-39.81 99.4-34.94 168.78-79 181-115.07 6.48-18.83-3.13-35.8-28.5-50.5z"/>
   <path class="cls-12" d="M103,333.78c-25.75,36-62.19,168.42-6.86,194.77,53.38,29,107.68,62,163.66,79.28,13.21-19,42.43-59,25.41-72C94,389.45,131.21,369.64,103,333.78"/>
   <path class="cls-7" d="M731.63,444.67a104.89,104.89,0,0,1,14.66,10.92c4.34,3.87,8.92,8.13,11.94,13.14a15.1,15.1,0,0,1,2.34,8.17c0,1.63-.2,3.25-.13,4.88a27.52,27.52,0,0,0,.63,4.42c.64,3.05,1.45,6,1.17,9.16a20.08,20.08,0,0,1-2.26,7.36c-2.86,5.59-7.35,10.15-11.79,14.5-1.15,1.13.62,2.9,1.77,1.77,4.22-4.14,8.46-8.47,11.43-13.63a22.68,22.68,0,0,0,2.88-16.22c-.31-1.58-.72-3.15-1-4.73a24.08,24.08,0,0,1-.27-5.56,19.11,19.11,0,0,0-1.37-9c-2.44-5.55-7.26-10.14-11.6-14.22a107.83,107.83,0,0,0-17.13-13.11c-1.37-.85-2.63,1.31-1.26,2.16Z"/>
   <path class="cls-13" d="M268.49,612.5a3.57,3.57,0,0,1-4,1.36h0c-46.62-14.39-92.3-39.72-136.48-64.22-9.12-5.06-18.54-10.28-27.76-15.29-14.91-7.14-24.67-21.65-29-43.12-4.7-23.32-2.61-55,5.9-89.12,7.22-29,18.13-56,28.45-70.43l.19-.27a3.56,3.56,0,0,1,5.69-.13l.18.23c7.47,9.48,10.73,18.1,14.17,27.21,10.32,27.31,24.44,64.71,167.26,174A18.31,18.31,0,0,1,300,545.37c2.17,17.25-13.42,41.23-29.58,64.31ZM108.87,342.71C90.3,372.9,70.3,444.39,79.26,488.85,82.92,507,91,519.21,103.36,525.08l.17.09c9.28,5,18.75,10.29,27.9,15.37C174.5,564.42,219,589.09,264.06,603.4l.14-.2c9.57-13.68,29.49-42.14,27.71-56.32a8,8,0,0,0-3.16-5.67C143.86,430.31,129.14,391.35,118.4,362.9,115.58,355.44,113.25,349.28,108.87,342.71Z"/>
  </g>
  <g id="Layer_96" data-name="Layer 96">
   <path class="cls-11" d="M729.21,371.66c4.57,6.52,3.82,15.31,2.26,23.12-10.93,54.79-52.38,100-101.64,126.39s-105.74,36-161.47,40c-24.14,1.73-48.55,2.5-72,8.52s-46.29,18-60.26,37.73c-8.23,11.64-13,27.28-6.95,40.18,5.6,12,18.61,18.26,30.67,23.65l99.51,44.5a23.12,23.12,0,0,0,5.78,2c4.92.75,9.7-1.73,14-4.24C516.6,691.66,549,662.2,580.23,632.14c12.83-12.33,25.59-24.87,40.16-35.09,25-17.51,54.48-27.67,84.46-33.16,23.95-4.39,51.24-7.51,65.88-27,11.8-15.69,11.32-37.11,10.31-56.73-1.6-31.26-3.69-64.12-20.52-90.52-6.74-10.57-18.73-20.58-30.63-16.63"/>
   <path class="cls-14" d="M724.89,374.18c5.18,7.74,2.21,18.28.11,26.59a149.63,149.63,0,0,1-8.85,25.3,177.77,177.77,0,0,1-30.28,45.49c-26.36,29-60.46,49.32-97.25,62.2-41.76,14.63-85.81,20.16-129.75,23-41.6,2.73-88.46,6.23-119.09,38.35C326,609.56,315.28,632,325.45,651.32c4.35,8.27,12.15,14.18,20.2,18.59,9.56,5.24,19.82,9.3,29.76,13.74L442,713.43c5.6,2.51,11.16,5.1,16.81,7.49a20.61,20.61,0,0,0,17.16-.21c4.92-2.12,9.49-5.12,14-8q7.06-4.39,13.89-9.15a519.63,519.63,0,0,0,51.94-41.78c16.5-14.88,32-30.83,48.6-45.6,16.08-14.32,33.94-26,54-34,19.34-7.77,39.43-12,59.86-15.66,17.6-3.19,36.23-7.29,50-19.54,15.25-13.6,18.5-34.29,18.3-53.73-.11-10.25-.77-20.53-1.51-30.75a283,283,0,0,0-3.75-31.14,140.81,140.81,0,0,0-9-30.21c-4-9.21-9.16-18.45-16.75-25.18-7.36-6.53-17.07-10.85-26.93-7.79-6.12,1.9-3.51,11.56,2.66,9.64,8.46-2.62,16.21,3.45,21.51,9.62,6.15,7.15,10.3,16.45,13.36,25.29,6.61,19.09,8.39,39.35,9.52,59.39.56,9.71,1.19,19.46.78,29.19-.37,9-1.73,18.32-5.86,26.44-8,15.76-24.46,22.4-40.8,26.26-8.55,2-17.24,3.38-25.89,5a268.45,268.45,0,0,0-30.25,7.28c-20.23,6.19-39.85,15-57.09,27.41-18,12.92-33.46,29-49.51,44.18-15.66,14.83-31.68,29.31-48.62,42.66-8.38,6.6-17,12.88-25.91,18.76q-6.76,4.49-13.75,8.63c-3.73,2.22-8.4,5.6-13,4.83-2.19-.37-4.3-1.55-6.3-2.44l-8.64-3.87-16.45-7.35-32.48-14.53-32.9-14.7c-8.74-3.91-17.95-7.53-25.7-13.28-6.75-5-11.51-12.09-11.77-20.67-.29-9.27,3.54-18.21,8.76-25.69,10.46-15,26.89-25.25,43.82-31.49,20.63-7.59,42.67-9.75,64.45-11.25,21.94-1.51,43.82-3,65.62-6.09a422.26,422.26,0,0,0,63.35-13.5c38.1-11.48,74.16-29.79,103.4-57.06,26.59-24.79,47.34-56.89,55-92.72,2-9.56,3.4-20.38-2.36-29a5.11,5.11,0,0,0-6.84-1.8c-2.22,1.3-3.3,4.59-1.79,6.84Z"/>
   <path class="cls-11" d="M84.1,418.28c12.28-.3,23.38,7,32.88,14.81,23.21,19,42.77,43.14,53.48,71.18s12,60.17.56,87.9c-2.51,6.07-6.12,12.37-12.26,14.69-4.29,1.62-9.1,1-13.5-.26-11.45-3.24-21.45-10.38-30-18.63-29.16-28.07-43.15-68.74-48-108.91-2.6-21.4-1.83-45.85,13.74-60.75"/>
   <path class="cls-14" d="M84.1,423.28c.9,0,1.8,0,2.7.06l1.44.12.15,0c-.73-.11.41.07.55.1A36.46,36.46,0,0,1,94.51,425l1.17.42.77.3.17.07.17.07.57.26c.51.23,1,.48,1.51.72,1.77.88,3.48,1.86,5.15,2.9s3.32,2.18,4.93,3.35l1,.76.5.38c.78.6,1.55,1.22,2.32,1.84q4.49,3.63,8.75,7.52a200.14,200.14,0,0,1,15.89,16.15c1.26,1.45,2.51,2.91,3.72,4.4.61.74,1.22,1.49,1.81,2.24l.77,1,.38.49c.37.46-.48-.63.1.12,2.27,3,4.47,6.06,6.56,9.2A154,154,0,0,1,162,497c.38.8.75,1.61,1.12,2.42.19.44.39.87.58,1.31s.71,1.68.3.7Q165,504,166,506.63q2.15,5.77,3.76,11.73t2.61,11.83c.18,1,.34,2,.49,3,.06.44.12.87.19,1.31-.15-1.06.06.53.1.86.24,2,.44,4.08.59,6.13.28,4,.37,8.05.26,12.07-.06,2-.17,4.09-.33,6.13-.08.94-.17,1.89-.27,2.83-.05.51-.11,1-.17,1.52,0,.34-.2,1.62-.07.63a106.29,106.29,0,0,1-5.94,23.48,22.46,22.46,0,0,1-1.05,2.65c.59-1.08,0,.07-.16.35-.21.46-.42.92-.64,1.37a36.72,36.72,0,0,1-2.6,4.62c-.21.31-.44.6-.65.92-.33.48.22-.29.22-.28a3.23,3.23,0,0,1-.47.58,20.6,20.6,0,0,1-1.77,1.85c-.18.16-1.12.93-.61.54s-.54.36-.67.44c-.31.2-.63.38-.95.55s-.43.22-.65.33c-.66.33.08.08.18-.07-.14.22-1.26.41-1.47.46-.43.11-.86.18-1.29.27-.75.16.79,0,0,0-.22,0-.44,0-.66,0-.59,0-1.18,0-1.77,0l-1.33-.09c-.2,0-1-.14,0,0l-.66-.11c-1-.17-2-.4-3.05-.67a52.42,52.42,0,0,1-5.6-1.85c-.32-.13-1.45-.61-.55-.21l-1.14-.51q-1.42-.66-2.82-1.38a73.75,73.75,0,0,1-9.75-6.16l-.67-.51-.16-.12c.45.35-.1-.08-.16-.13l-.5-.39c-.82-.66-1.63-1.33-2.43-2-1.5-1.28-3-2.6-4.37-4q-4-3.83-7.66-8-1.85-2.1-3.61-4.28c-.54-.67-1.08-1.35-1.61-2,.6.77-.08-.11-.31-.41l-.83-1.12a148.64,148.64,0,0,1-11.78-18.79q-2.59-4.89-4.85-9.93c-.38-.86-.76-1.72-1.13-2.59-.16-.37-.46-1.1-.12-.29-.21-.5-.42-1-.62-1.49-.71-1.75-1.4-3.5-2.06-5.27A209.46,209.46,0,0,1,77.82,509c-1.85-7.29-3.34-14.67-4.5-22.09-.14-.87-.27-1.74-.4-2.6-.06-.4-.11-.81-.17-1.21s-.08-.53-.11-.8c0-.12-.14-1,0-.33s0,0,0-.14c0-.27-.07-.53-.1-.8s-.11-.8-.16-1.2c-.11-.95-.23-1.89-.33-2.84-.38-3.45-.66-6.91-.8-10.38s-.15-7.12,0-10.67c.09-1.7.22-3.4.41-5.09l.15-1.3c.12-.94-.14,1,0-.34.13-.86.27-1.72.43-2.58a63.06,63.06,0,0,1,2.58-9.75,19.82,19.82,0,0,1,.91-2.36c-.39.74-.15.36.07-.13s.4-.87.61-1.3a45.91,45.91,0,0,1,2.43-4.4c.42-.66.85-1.31,1.3-2a7.66,7.66,0,0,1,.75-1c-.59.57-.22.28.11-.13a42.81,42.81,0,0,1,3.47-3.78,5,5,0,0,0,0-7.07,5.1,5.1,0,0,0-7.07,0c-11,10.68-15.33,25.87-16.18,40.82a130.17,130.17,0,0,0,.78,21.8c.89,8,2.13,15.93,3.75,23.79A210.26,210.26,0,0,0,80.3,546.3a151.6,151.6,0,0,0,25.39,39A111.76,111.76,0,0,0,124,601.72c6.75,4.76,14.57,8.75,22.71,10.39,5.07,1,10.09,1,14.88-1.07a23,23,0,0,0,9.28-8,48.39,48.39,0,0,0,5.35-10.51,101.8,101.8,0,0,0,4-12.05,124.36,124.36,0,0,0,2-51.6,141.92,141.92,0,0,0-16.74-46.73A180.23,180.23,0,0,0,136.36,444a199.35,199.35,0,0,0-17.64-15.86c-6.78-5.38-14-10.31-22.33-13a38.3,38.3,0,0,0-12.29-1.85,5,5,0,0,0,0,10Z"/>
   <path class="cls-15" d="m260.56 511.54c-52.75 20.25-76.06 83.82-132.91 101.53-74.15 54.27-39.74 97.12 40.4 61.93 27.09 4.62 50.8 63.77 58.86 1.75 4.9-45.18 36.77-74.53 71.27-98.49 7.37-6-2.46-16.74 7.6-22.43 36.53-31.09-9-59.74-45.22-44.3"/>
   <path class="cls-16" d="M259.9,509.13a116.78,116.78,0,0,0-30.64,18c-9.25,7.34-17.63,15.7-25.78,24.22s-16.36,17.5-24.95,25.85-17.42,15.94-27.43,22.22a107,107,0,0,1-15.7,8.2c-1.43.59-2.86,1.14-4.31,1.67a30.35,30.35,0,0,0-4.7,1.63,45.75,45.75,0,0,0-5.14,3.87q-2.37,1.83-4.68,3.73c-9.74,8-19.09,17.12-25.69,28-4.12,6.77-7.51,14.94-6.51,23a21.24,21.24,0,0,0,11.19,16.13c7.67,4.24,17,5,25.54,4.54,12.79-.69,25.38-4.11,37.33-8.58,3.67-1.38,7.29-2.87,10.88-4.44l-1.92.25a24.11,24.11,0,0,1,2.88.69c.46.15.92.3,1.38.47l.69.27.29.12c.28.11-.35-.16.09,0a42.22,42.22,0,0,1,5.6,3.07,81.52,81.52,0,0,1,10.38,8.18c3.27,2.92,6.45,6,9.76,8.82a45.11,45.11,0,0,0,9.16,6.63c2.77,1.39,6,2.28,9.06,1.22,3.55-1.24,5.87-4.45,7.38-7.75,2.63-5.73,3.83-12,4.76-18.24.59-3.89,1-7.8,1.7-11.66a105.37,105.37,0,0,1,2.6-10.69,110,110,0,0,1,19.31-36.28c8.71-11,19.06-20.62,30-29.34,5.52-4.39,11.31-8.37,17-12.54a10.77,10.77,0,0,0,4.2-8.11c.22-2.67-.3-5.34-.25-8A7.41,7.41,0,0,1,304,561a7.06,7.06,0,0,1,2.24-2.51,37.89,37.89,0,0,0,8.31-8c3.78-4.71,6.66-10.15,7.13-16.26.81-10.69-7-19.38-15.94-24-11.22-5.78-24.67-6.85-36.88-4a58.22,58.22,0,0,0-9.56,3.17,2.52,2.52,0,0,0-.9,3.42,2.57,2.57,0,0,0,3.42.9,51.63,51.63,0,0,1,34.52-1.88,39.36,39.36,0,0,1,7,2.81,34.35,34.35,0,0,1,5.93,3.88,28.23,28.23,0,0,1,2.5,2.39,16.63,16.63,0,0,1,1.84,2.29,16.19,16.19,0,0,1,2.59,5.53q.19.74.33,1.5c0,.15.06.31.08.47,0-.05-.05-.38,0-.08s.06.56.08.84a18.61,18.61,0,0,1-.06,3.42,1.27,1.27,0,0,1-.05.34c-.05.3-.1.6-.16.89a18.21,18.21,0,0,1-.45,1.8,19.84,19.84,0,0,1-1.23,3.21,32.82,32.82,0,0,1-4.87,7.24,51.72,51.72,0,0,1-3.64,3.76c-1.34,1.25-2.87,2.18-4.23,3.4a11.43,11.43,0,0,0-3.55,7.71c-.22,2.54.24,5.07.25,7.62a7.81,7.81,0,0,1-.4,3.13,4.88,4.88,0,0,1-1.68,2.35c-2.58,2-5.43,3.83-8.1,5.79a229.78,229.78,0,0,0-30.6,26.32,131.36,131.36,0,0,0-23,32,107.87,107.87,0,0,0-7.27,18.95,102.29,102.29,0,0,0-2.29,10.24c-.63,3.72-1,7.48-1.58,11.2a97.41,97.41,0,0,1-2,9.58c-.34,1.3-.73,2.59-1.17,3.86-.18.52-.38,1-.58,1.55,0,.11-.09.22-.14.33s.14-.31,0,0-.24.55-.37.83a20.78,20.78,0,0,1-1.32,2.4l-.36.52c0,.08-.39.53-.17.24s-.16.19-.22.26l-.43.47c-.23.23-.48.44-.72.66s.46-.3.06,0l-.46.31c-.24.15-.51.26-.75.4.64-.37,0,0-.36.09s-1,.18-.53.13-.42,0-.61,0-.56,0-.84,0c.87,0-.17,0-.45-.11a13.22,13.22,0,0,1-1.84-.61c.7.28-.23-.12-.46-.23s-.67-.35-1-.54c-.7-.4-1.39-.83-2-1.29-.33-.22-.66-.45-1-.69l-.46-.34c-.16-.11-.68-.51-.26-.19-1.5-1.16-2.95-2.4-4.37-3.66-6.43-5.68-12.51-11.86-19.7-16.62a36.08,36.08,0,0,0-11-5.14c-.46-.11-.93-.22-1.4-.3a5.48,5.48,0,0,0-3.36.76q-2.62,1.13-5.28,2.18c-3.51,1.38-7.06,2.67-10.65,3.83-11.24,3.63-22.93,6.26-34.75,5.87-1.16,0-2.32-.11-3.48-.22l-1.59-.17a3.91,3.91,0,0,1-.42,0l-.94-.15a40.67,40.67,0,0,1-5.84-1.4c-.43-.14-.85-.29-1.27-.45l-.67-.25-.28-.12c-.44-.17.23.11,0,0-.8-.35-1.58-.73-2.34-1.15A21.9,21.9,0,0,1,95.89,680l-.51-.37c-.38-.27.31.26,0,0s-.67-.55-1-.85a16.51,16.51,0,0,1-1.6-1.64l-.33-.39-.21-.26s.3.4.14.17-.45-.63-.66-1a19,19,0,0,1-1.12-2c0-.08-.26-.58-.11-.23s-.08-.21-.12-.32c-.14-.36-.27-.73-.38-1.11a17.24,17.24,0,0,1-.54-2.23c0-.2-.07-.4-.1-.6.07.41,0,.27,0,0s-.07-.83-.09-1.25a24.86,24.86,0,0,1,0-2.59c0-.41.08-.83.12-1.24.06-.61,0,.24,0-.22l.12-.69A33.14,33.14,0,0,1,91,657.42a39.12,39.12,0,0,1,2.56-5.62,73,73,0,0,1,9.16-13.06,135.51,135.51,0,0,1,14.58-14.37q4.53-3.87,9.31-7.46a14.73,14.73,0,0,1,2.16-1.58,20.8,20.8,0,0,1,2.31-.76c1.46-.51,2.91-1.05,4.34-1.62A124,124,0,0,0,167.14,594c9.4-7.54,17.93-16.09,26.25-24.79s16.52-17.69,25.24-26.08C227,535.07,236,527.48,246,521.44A97.37,97.37,0,0,1,261.23,514a2.57,2.57,0,0,0,1.74-3.08,2.51,2.51,0,0,0-3.07-1.74Z"/>
   <path class="cls-15" d="m239.23 619.4c6.51 56.4-95.34 110-38.43 170.92 15.32 4.57 24.62-22.78 40.16-26.14 23.07 2.91 49 24.74 64.89-8.26 24.44-62.67-19.41-132.45 5.23-195.34-39.72-64.63-92.17 48.62-81.41 90.85"/>
   <path class="cls-16" d="M236.73,619.4c1.09,9.64-.88,18.42-4.51,27.5-.47,1.18-.72,1.75-1.29,3s-1.08,2.35-1.65,3.51c-1.14,2.34-2.36,4.63-3.63,6.9-2.66,4.75-5.54,9.37-8.5,13.93-6,9.28-12.4,18.33-18.27,27.72-5.64,9-10.87,18.46-14.31,28.58-3.24,9.56-4.56,19.72-2.79,29.71,2,11.45,8.2,21.67,15.85,30.26a9.2,9.2,0,0,0,1.91,1.93,6.84,6.84,0,0,0,2.28.63,14,14,0,0,0,3.77.14,17.45,17.45,0,0,0,7.18-2.55c4.73-2.91,8.46-7.23,12.16-11.29s7.43-8.3,12-10.95A15,15,0,0,1,240,767c.28-.09.57-.18.85-.25a1.56,1.56,0,0,0,.37-.1c.36-.19-.66-.19-.28,0a8.7,8.7,0,0,0,2.07.34,81,81,0,0,1,8.36,2.08c10.51,3.13,21.52,8.27,32.74,7.23a25.49,25.49,0,0,0,15.24-6.81,37,37,0,0,0,6.49-8.34,53.33,53.33,0,0,0,4.72-11.27c4.71-15,5.91-30.91,5.28-46.57-.64-15.93-3.05-31.72-5.34-47.48s-4.49-31.32-4.73-47.14c-.25-15.62,1.61-31.26,7.1-46,.44-1.18,1-2.23.33-3.45a21.49,21.49,0,0,0-1.19-1.89c-.77-1.18-1.58-2.34-2.42-3.46a57.44,57.44,0,0,0-5-6,33.34,33.34,0,0,0-10.16-7.26c-7.08-3.1-14.64-2.57-21.55.73-7.45,3.56-13.55,9.75-18.57,16.19a125.56,125.56,0,0,0-15.17,25.73A163.73,163.73,0,0,0,229,613.08a107.33,107.33,0,0,0-3.23,27.69,54,54,0,0,0,1.48,11.33c.79,3.12,5.61,1.8,4.82-1.33-.26-1-.48-2.1-.66-3.16,0-.28-.1-.56-.14-.83s-.14-1-.05-.37c-.08-.57-.14-1.15-.2-1.72a65.29,65.29,0,0,1-.27-7.4c0-2.68.22-5.37.5-8,.07-.7.15-1.39.24-2.09.12-1,.08-.69.22-1.69.21-1.44.45-2.88.71-4.32a148.11,148.11,0,0,1,4.45-17.84q1.43-4.53,3.1-9c1.17-3.08,2.19-5.57,3.48-8.43a138.26,138.26,0,0,1,8.62-16.33c1.54-2.46,3.16-4.88,4.89-7.21l.63-.85.36-.46c-.07.08-.27.34,0,0,.43-.55.86-1.09,1.3-1.62.85-1,1.73-2.06,2.64-3A59.63,59.63,0,0,1,267.4,551c.46-.39.93-.77,1.4-1.15.09-.07.38-.29,0,0l.31-.24.79-.58c.93-.67,1.89-1.3,2.87-1.89a31,31,0,0,1,2.91-1.54l.73-.33c.35-.16-.57.23,0,0l.32-.13c.49-.19,1-.37,1.48-.54a23.12,23.12,0,0,1,3-.77l.75-.14.41-.06c-.06,0-.61.06-.16,0s1-.1,1.5-.12a21.47,21.47,0,0,1,3,.07c.1,0,.91.12.51.06l.5.08c.51.1,1,.21,1.51.33a22.81,22.81,0,0,1,3,1c-.65-.27.2.09.32.15l.76.37c.51.25,1,.53,1.5.82s1,.62,1.5,1l.67.46c.13.1.91.69.49.36a36.73,36.73,0,0,1,3,2.6,48.62,48.62,0,0,1,5.65,6.59c1,1.42,2,2.88,2.89,4.36l-.26-1.93c-8.9,22.87-8.94,47.68-6.33,71.74C305,656,310.09,680,310.93,704.53a140.17,140.17,0,0,1-2.83,35.4c-2.28,10.13-5.78,22-14.68,28a20.16,20.16,0,0,1-10.56,3.46A38.51,38.51,0,0,1,271.19,770c-8.58-2.15-16.76-5.68-25.43-7.49-1-.21-2-.4-3-.55a7.85,7.85,0,0,0-3.88.24,22.46,22.46,0,0,0-5.56,2.68,54.82,54.82,0,0,0-9.81,8.76c-2.92,3.15-5.72,6.44-8.87,9.37-2.7,2.51-5.39,4.51-8.89,5.25l-.45.07c.58-.08-.16,0-.23,0-.46,0-.92,0-1.38,0l-.46,0c-.77-.06.48.11-.28,0a13.71,13.71,0,0,1-1.44-.34l1.1.64a68.71,68.71,0,0,1-12.09-17.37,49.32,49.32,0,0,1-4.4-16.48c-.83-11.35,2.54-22.5,7.33-32.61,5.49-11.57,12.68-22.25,19.8-32.86s14.26-21,19.92-32.32c5.19-10.37,9.2-21.74,8.88-33.48,0-1.35-.13-2.69-.28-4a2.57,2.57,0,0,0-2.5-2.5,2.51,2.51,0,0,0-2.5,2.5Z"/>
  </g>
  <g id="Layer_131" data-name="Layer 131">
   <g class="cls-17">
    <path class="cls-6" d="M2243-23.26C2412.3,143.2,2117.41,157,1908.08,157s-366.78-230-379-512.65C1517.52-622-291.15,2065.44,1728.5-575.89c85.63-112,273.1-209.11,379-166.46,20.74,8.35,65.57,45.65,72.19,127.35,5.88,72.52-16.05,161.93-23.14,244.16-6.38,73.92,2.07,142.94,5.22,173.31C2168.85-129.49,2209.48-56.19,2243-23.26Z"/>
   </g>
  </g>
 </g>
</svg>
