<?xml version="1.0" encoding="UTF-8"?>
<svg id="Prior_to_November" data-name="Prior to November" viewBox="0 0 800 800" xmlns="http://www.w3.org/2000/svg">
 <defs>
  <style>.cls-1,.cls-3{fill:#ec3868;}.cls-1,.cls-14{stroke:#2f152f;stroke-miterlimit:10;stroke-width:3px;}.cls-14,.cls-2{fill:none;}.cls-4{clip-path:url(#clip-path);}.cls-5{fill:#c4d9e3;}.cls-6{fill:#e6bac5;}.cls-7{fill:#ebe0e1;}.cls-8{fill:#e22228;}.cls-9{fill:#f58b20;}.cls-10{fill:#108041;}.cls-11{fill:#4260a9;}.cls-12{fill:#732a81;}.cls-13{fill:#fae903;}.cls-15{fill:#558b9c;}.cls-16{clip-path:url(#clip-path-2);}.cls-17{fill:#e7e7e8;}.cls-18{fill:#2f152f;}.cls-19{fill:#653614;}.cls-20{fill:#cc6632;}.cls-21{opacity:0.18;}.cls-22{fill:#606060;}.cls-23{fill:#54899b;}</style>
  <clipPath id="clip-path">
   <path class="cls-1" d="M1201.56,285C1034.5-262,530,341,1085.6,719.68c5.72,3.9,58.38-3.07,65.15-4.17,726-117.39,384.32-835.29,50.81-430.49"/>
  </clipPath>
  <clipPath id="clip-path-2">
   <path class="cls-2" d="M70.44,737.18c5.46-142.91,95.4-301.73,207.65-355.48C392.72,326.82,634.89,235.3,652,545.89c2.33,42.45,22.36,103.15,24.73,163,.29,7.36-21.38,24.44-25.81,30.33-35.76,47.56-241.7,40.56-301.6,47.56-107.87,12.62-248.45-20-278.85-49.56"/>
  </clipPath>
 </defs>
 <g id="hold_asparagus" data-name="hold asparagus">
  <g id="heart">
   <path class="cls-3" d="M1201.56,285C1034.5-262,530,341,1085.6,719.68c5.72,3.9,58.38-3.07,65.15-4.17,726-117.39,384.32-835.29,50.81-430.49"/>
   <g class="cls-4">
    <rect class="cls-5" transform="translate(116.67 -241.08) rotate(12.41)" x="753.18" y="272.44" width="828.22" height="287.41"/>
    <rect class="cls-5" transform="translate(120.91 -242.38) rotate(12.41)" x="761.25" y="109.51" width="828.22" height="650.95"/>
    <rect class="cls-6" transform="translate(123.05 -239.12) rotate(12.41)" x="747.33" y="300.83" width="828.22" height="291.29"/>
    <rect class="cls-7" transform="translate(122.39 -239.34) rotate(12.41)" x="715.92" y="354.48" width="892.43" height="177.64"/>
    <path class="cls-8" d="M661.84,94.27C667.3,57.81,673,21.38,678.05-15.12c.85-6.06,2.28-7.05,8.32-6.14Q994.62,25.26,1303,71.33q249.19,37.35,498.42,74.53c6.05.9,7.12,2.27,6.16,8.31-5.83,36.4-11.11,72.88-16.57,109.34-2.83,2.71-6.28,3.05-10,2.69-4.74-.47-9.44-1.18-14.14-1.88L684.64,102.11c-4.7-.71-9.4-1.4-14.07-2.35C666.94,99,663.75,97.7,661.84,94.27Z"/>
    <path class="cls-9" d="M661.84,94.27,1791,263.51l-17.45,116.42c-2.83,2.72-6.28,3.05-10,2.69-4.74-.47-9.44-1.18-14.14-1.88L667.19,218.53c-4.7-.71-9.4-1.4-14.07-2.35-3.63-.73-6.82-2.06-8.73-5.49Z"/>
    <path class="cls-10" d="m609.75 441.77 17.45-116.42c2.83-2.72 6.28-3.05 10-2.69 4.74 0.46 9.44 1.17 14.14 1.88l1082.2 162.21c4.7 0.7 9.4 1.4 14.07 2.34 3.63 0.74 6.82 2.07 8.73 5.5l-17.45 116.41c-2.83 2.71-6.27 3-10 2.69-4.73-0.47-9.44-1.18-14.14-1.88q-541.07-81.1-1082.2-162.2c-4.7-0.71-9.41-1.4-14.07-2.35-3.63-0.73-6.83-2.06-8.74-5.49z"/>
    <path class="cls-11" d="M609.75,441.77,1738.87,611l-17.45,116.42c-2.83,2.71-6.27,3.05-10,2.69-4.73-.47-9.44-1.18-14.14-1.88Q1156.21,647.15,615.11,566c-4.7-.71-9.41-1.4-14.07-2.35-3.63-.73-6.83-2.06-8.74-5.49Z"/>
    <path class="cls-12" d="M592.3,558.19c3.23.53,6.45,1.1,9.68,1.58q554.87,83.18,1109.73,166.33c3.23.49,6.47.89,9.71,1.33-5.46,36.45-11.11,72.88-16.21,109.39-.85,6.06-2.28,7-8.32,6.14q-309.14-46.65-618.34-92.85-248.32-37.23-496.66-74.27c-6-.9-7.12-2.27-6.16-8.31C581.56,631.13,586.84,594.65,592.3,558.19Z"/>
    <path class="cls-13" d="M1756.32,494.59c-3.53-.3-7.1-.39-10.59-.92q-554.07-83-1108.13-166.09c-3.5-.52-6.93-1.48-10.4-2.23l17.19-114.66c3.83.45,7.68.8,11.49,1.38Q1209,294.95,1762.12,377.87c3.81.57,7.59,1.37,11.39,2.06Z"/>
   </g>
   <path class="cls-14" d="M1201.56,285C1034.5-262,530,341,1085.6,719.68c5.72,3.9,58.38-3.07,65.15-4.17,726-117.39,384.32-835.29,50.81-430.49"/>
  </g>
 </g>
 <g id="J">
  <path class="cls-15" d="M70.44,737.18c5.46-142.91,95.4-301.73,207.65-355.48C392.72,326.82,634.89,235.3,652,545.89c2.33,42.45,22.36,103.15,24.73,163,.29,7.36-21.38,24.44-25.81,30.33-35.76,47.56-241.7,40.56-301.6,47.56-107.87,12.62-248.45-20-278.85-49.56"/>
  <g class="cls-16">
   <path class="cls-17" d="M483.43,814.81c-13.21-33.86-8.9-71.7-4.38-107.77l23.64-188.85C507.34,481,511.53,441.12,494,408c-14-26.5-40.57-44.86-69.17-53.84s-59.21-9.43-89.09-6.94c-55.22,4.61-110.51,19.46-156.63,50.18C151.23,416,127.23,440,106,466,79.91,498,57.29,534.4,50.36,575.12c-3,18-3,36.27-2.55,54.47,1.09,45.58,4.42,91.24,13.25,136,3.7,18.72,8.59,37.78,19.84,53.19,20.48,28.07,57.75,38.37,92.46,40s69.81-3.42,104.08,2.31c27.74,4.65,54.32,16.29,82.43,17.22,19.08.63,37.93-3.72,56.53-8l36.8-8.56c5.24-1.22,10.68-2.53,14.89-5.88,12.53-9.95,7.46-30.69,15.81-44.35"/>
  </g>
  <path class="cls-18" d="M288.83,402.47c4.35,10.68,7.77,26.64,9,39.69.34,3.68,28.46-24.05,31.63-22.15,3,1.78-.87,36.15,5.16,34.81,19.89-4.41,35.8-6.66,55.39-12.26-4.55,34.14-35.78,61.46-67,75.93-8.21,3.81-17.37,6.55-26.26,4.85-12.71-2.43-22.36-13.8-25.86-26.25s-5.06-28.65-1.95-41.21c5.68-22.94,8.48-42.73,20-53.41"/>
  <circle class="cls-18" cx="578" cy="595.91" r="58.84"/>
  <path class="cls-19" d="m664.32 205.47c12.57-47.34 80.49-20.49 82.39-19.82 0.08 0 19.89 10 30.75 4.94 8.07-3.75 15.39-28.68 8.93-34.79-20.34-19.24-84.73-24.24-106.12-34.14-52.4-24.27-77.84-35.81-133.06-52.73-12.28-3.77-61.13-20.41-55.25 1.35 1.16 4.29 5.49 9.51 9.38 11.66 21.47 11.9 22.38 12.58 34.36 25.36a44.32 44.32 0 0 1 7.34 50l-1.74 3.5c-0.32 0.83-48.13 125.07-73.77 186.1-9.48 21.5-20 41.7-27.28 64.62-3.24 7.94-5.19 14.84-8.44 22.79-20.53 46.45-48.61 96.75-102.12 108.69-23.05 4.58-46.5 2-66.69-8.52-17.86-10.28-31.81-23.68-39.12-43.46-11.75-33.33 11.45-99.12 11.34-98.2a2 2 0 0 0-0.25-2.95 79.34 79.34 0 0 1-6.21-5.77c-22.52-5.57-38.22-2.86-61.21-5.89-18.81-2.24-38.6-5.6-57.87-3-2.46 0.93-5.18 4.16-6.6 6.37-1.55 3.38-3.11 6.76-3.5 10.27-4 15-9.21 29.83-12.06 44.94-11 56.92-8 115.39 20.49 169.54 6.91 12.63 14 24.08 23.48 34.62 10.56 11.85 21.38 21.34 34.8 28.75 33.71 16.79 66.71 29.91 103.71 38.73 6.9 1.94 15.23 1.67 22.26 2.45 9.25 2.2 18.75 2.06 28.25 1.92 24-2.11 46.75-4.34 69.27-14.92 25.11-12.65 46.59-24.52 66.49-43.68 2.73-3.26 5.58-7.68 8.31-10.93 31.61-28.55 52-63.07 73.59-97.47 50.28-115.39 50.41-115.4 126.15-340.33z"/>
  <path class="cls-20" d="M649.12,196.59c12.57-47.36,68.93-32.39,70.78-31.74,0,0,41.36,25.52,52.24,20.46,8.07-3.75,22.65-37.15,16.74-43.8-15.66-17.62-81.47-40.58-88.5-43-33-11.34-92.6-30.48-147.82-47.4-11.41-3.49-66.33-15.64-69-9.92-1.21,2.63-15.31,38.33-8.17,44.13,12.66,10.29,40.35,10.29,50.23,19.53,14.36,13.43,2.78,28.73.47,47.09,0,0-48.06,124.88-73.78,186.11-9.49,21.5-20,41.7-27.28,64.63-3.25,7.95-5.2,14.85-8.45,22.8C396.08,471.88,368,522.18,314.49,534.08c-23.05,4.58-46.5,2-66.69-8.53-17.86-10.27-31.81-23.67-39.12-43.45-11.75-33.33-5.28-70.59,12.83-100.24-.84.4-.37.76,0,0-1.74-.51-1.66,2.09,0,0a627.79,627.79,0,0,0-69.14-12.58c-18.82-2.24-38.62-5.6-57.9-3-2.47.91-5.2,4.17-6.63,6.39-1.56,3.39-3.12,6.77-3.51,10.29-4,15-9.21,29.83-12.06,44.95-11,56.92-8,115.39,20.49,169.54,6.91,12.63,14,24.08,23.48,34.62,10.56,11.84,21.38,21.34,34.8,28.75,33.75,16.77,66.71,29.89,103.71,38.71,6.9,1.94,15.24,1.67,22.27,2.45,9.25,2.2,18.76,2.06,28.26,1.92,24-2.11,46.75-4.34,69.28-14.92,25.12-12.65,59.78-25.43,82.23-46C533.18,573.21,649.12,196.59,649.12,196.59Z"/>
  <path class="cls-18" d="M649.72,196.76c2.92-10.67,8.74-20.26,18.19-26.29,7.42-4.73,16.18-6.94,24.89-7.56A85.43,85.43,0,0,1,713.25,164c2.78.48,5.51.88,7.69,2.19,6.62,4,13.41,7.72,20.34,11.14,7.73,3.81,16.19,8,24.84,9.09,7.36.89,11-4.12,14.44-10,4.76-8,8.85-17.36,10.07-26.63.37-2.79.61-6.09-1.09-8.5-2-2.85-5.41-5.11-8.22-7.08-8.49-6-17.93-10.64-27.31-15-16.68-7.76-33.87-14.47-51.22-20.56-23.63-8.28-47.51-15.89-71.36-23.52q-24.76-7.92-49.6-15.66c-11.92-3.71-23.79-7.8-35.91-10.82-9.45-2.37-19-4.39-28.6-6.16-8.83-1.62-17.93-3.37-26.93-3.46-1.9,0-4.73-.21-6.41.9-1.24.82-1.59,2.48-2.11,3.8a156,156,0,0,0-8,25.84c-.76,3.73-1.47,7.74-1,11.54.46,3.47,2.23,5,5.16,6.8C488.37,94.21,501,95.53,512.33,99c5.77,1.76,11.31,4,15.23,8.78,5,6.14,5.13,13.6,3.49,21-1.51,6.79-3.91,13.34-5.11,20.2a22.84,22.84,0,0,1-.94,4.11c-4.28,12-9.17,23.73-13.77,35.56q-12.41,31.91-25,63.76Q473,286,459.4,319.41c-5,12.25-10.26,24.35-15.81,36.37-3.51,7.61-7,15.23-10.26,23-3.39,8-6.11,16.28-9.14,24.45s-5.73,16.69-9.32,24.71c-2.74,6.11-5.58,12.19-8.56,18.19a273,273,0,0,1-20.45,35.09c-15.54,22.24-36.15,41.42-62.41,49.84-31.64,10.14-67.64,3.78-92.72-18.25-24.51-21.53-31.1-55.59-25.47-86.72a129.4,129.4,0,0,1,16.79-43.86c.3-.51-.34-1.25-.85-.86l-.46.35c-.28.21-.48.7-.13,1l.11.08a.64.64,0,0,0,.88,0l.35-.43a.63.63,0,0,0-.44-1.07c-.94-.07-1.91.23-1.87,1.35a.61.61,0,0,0,.31.54c.86.43,1.4-.2,2-.82a.63.63,0,0,0-.27-1,649,649,0,0,0-95.38-15.68,157.93,157.93,0,0,0-24.41-.63c-2.75.17-6,0-8.56,1.2-2.24,1.07-4.16,3.42-5.51,5.45-3.91,5.9-4.75,13.78-6.69,20.45-2.3,7.91-4.73,15.78-6.78,23.76-14.71,57.44-11.6,121.06,14.27,174.84,12.2,25.35,29.52,49.1,53,65.11,12.48,8.52,27,14.4,40.84,20.31,13.55,5.8,27.36,11,41.4,15.51s28.58,9.37,43.28,10.34c7.81.52,15.46,2.09,23.27,2.51a160.28,160.28,0,0,0,24-.71c14.95-1.44,29.94-3.41,44.32-7.9,12.77-4,24.6-10.43,36.71-16,22.29-10.3,45.94-20.79,63.77-38.14,7.78-7.57,14.36-16.36,20.44-25.3C497,590.82,510.88,562.91,523.93,535c15.82-33.84,30.12-68.4,43.72-103.18,13.55-34.63,26.36-69.54,38.69-104.61q14.88-42.33,28.83-85,7.11-21.7,13.94-43.51c.2-.66.41-1.32.61-2s-1-1.1-1.21-.34c-3,9.7-6.08,19.35-9.19,29q-11.93,37-24.57,73.79-17,49.62-35.44,98.75c-13.22,35.12-27,70-42,104.45-13.16,30.18-27.1,60.16-43.49,88.75C480.63,614.09,466.05,637,444,652.37c-21.29,14.83-45.73,24.29-68.9,35.65-13.87,6.79-29.07,10.4-44.29,12.55-15.84,2.25-32.41,4.23-48.34,1.85-3.07-.46-6-1.14-9.09-1.36-3.8-.27-7.6-.38-11.38-.81-8-.9-15.92-3.43-23.63-5.6a441.93,441.93,0,0,1-41.91-14.15c-14.33-5.63-28.38-12-42.2-18.75-12.68-6.23-23.73-15.34-33.43-25.55-41.6-43.77-57-108-53.32-167a308.66,308.66,0,0,1,6-44.49c1.64-7.81,3.83-15.49,6.08-23.15,2.18-7.44,3.86-15.16,6.24-22.51,1.21-3.75,2.84-7.32,5.74-10.05,3.26-3.06,8.08-2.77,12.32-3a164.47,164.47,0,0,1,23.06.8c16.18,1.54,32.35,3.78,48.4,6.36,15.43,2.48,30.78,5.47,46,9.21l-.28-1,.44,1.06-.44-1.06.43.34-.13,1,.46-.34-.86-.86c-16,26.45-23.07,58.65-16.23,89.09,3,13.58,9,26.1,18.4,36.44A90.43,90.43,0,0,0,258,530.76c28.06,10.47,60.4,7.38,86.19-7.65,22.69-13.22,39.48-34.35,52.61-56.69a376.41,376.41,0,0,0,17.94-35.18c7-15.35,11.49-31.67,17.8-47.29,6.43-15.93,14.34-31.2,21-47q6.13-14.64,12.07-29.37c17.35-42.78,34.16-85.77,50.86-128.81l7.44-19.22c.93-2.42,2.14-4.88,2.84-7.38.79-2.83,1-5.89,1.73-8.77.87-3.45,1.91-6.86,2.83-10.3,1.49-5.57,2.82-11.5,1.59-17.26-2.49-11.71-13.39-16.18-23.72-19-6.19-1.7-12.49-3-18.63-4.94a64.52,64.52,0,0,1-8.41-3.17c-2.23-1.05-5.45-2.43-6.89-4.51-2.1-3-1.16-8.07-.63-11.42a106.63,106.63,0,0,1,3.58-14.53q1.92-6.27,4.25-12.39c.65-1.73,1-4.23,2.82-5,2.46-1.12,6.36-.48,8.94-.3,4.64.33,9.27,1,13.86,1.71a424.28,424.28,0,0,1,59.51,14.19q47.7,14.74,95.17,30.21c18,5.87,36,11.7,53.64,18.36,20.14,7.58,40.67,15.64,59.07,26.93a69.63,69.63,0,0,1,10.84,7.86c3,2.8,3.67,5.37,3.2,9.47-1.13,9.89-5.74,20.14-11.1,28.43-1.84,2.84-4.24,6.72-7.8,7.52s-7.87-.53-11.33-1.62c-9.53-3-18.57-7.71-27.31-12.49-3.91-2.15-7.87-5.24-12-6.87-3.52-1.38-7.84-1.7-11.55-2.12-15.35-1.77-32.37,0-44.79,10-7.71,6.2-12.46,14.93-15,24.36A.63.63,0,0,0,649.72,196.76Z"/>
  <g class="cls-21">
   <path class="cls-22" d="m318 689.31c89.66-48.73 139.3-112.62 186.94-174.87 20 9.11 18.46 25 14.35 38.53-15.65 51.29-46.07 101.4-90 148.23-11.89 12.68-27.82 26.4-54.61 29.74-23.82 3-50.58-4.61-59.14-16.32s1.39-26.06 22-32.85"/>
  </g>
  <path class="cls-23" d="m379.9 794.5c-221.34-199.72 34-270.22 196.26-113.73 21 20.23 33.5 35.77 42.13 57.54a43.46 43.46 0 0 1 1.71 5.21c-1 3.08-4.23 4.82-7.21 6.12-76.95 23.35-153.16 35-232.89 44.86"/>
  <path class="cls-23" d="m113.48 622.65c-38.41-24.82-82.44 97.11-19 131.69 30.55 15.89 65.07 23.15 97.25 35.24 37.05 13.82 65.79-32 78.54-61.27 46.27-136.91-56.78-211.82-161.57-103.06"/>
  <path class="cls-18" d="M617.54,755.75A84.48,84.48,0,0,0,612,738.51a127.34,127.34,0,0,0-7.63-15.34C598,712.34,590.16,702.44,582,693c-17.08-19.83-36.79-37.14-57.93-52.53q-8.37-6.09-17.06-11.74c-2.73-1.78-5.5-3.52-8.28-5.23l-4.21-2.53-1.91-1.12s-1-.65-.48-.19a4.14,4.14,0,0,1-.35-.38l-3.53,3.53c3.7,3.17,8.16,5.57,12.22,8.25q13.88,9.16,27.15,19.16c5.44,4.12,10.92,8.46,16.32,13,5.86,4.89,11.59,10,17.13,15.21a242.13,242.13,0,0,1,31.1,35c8.57,12,16,25.22,19.59,39.54.34,1.38.66,2.76,1,4.15.72,3.13,5.54,1.81,4.82-1.33A122.65,122.65,0,0,0,600,716a229.35,229.35,0,0,0-30.64-36.56,379.18,379.18,0,0,0-34.27-29.78q-14.15-11-29-20.91c-4.67-3.14-9.36-6.29-14.13-9.27-.37-.23.39.51.3.24s-.32-.37-.45-.48a2.5,2.5,0,0,0-3.53,3.53,8.94,8.94,0,0,0,2.47,1.73c1.29.75,2.58,1.52,3.86,2.29q3.65,2.21,7.23,4.5,7.59,4.83,14.92,10a380.26,380.26,0,0,1,30.19,23.61,294.55,294.55,0,0,1,27.47,26.92c8.39,9.46,16.51,19.24,23.26,29.95a128.62,128.62,0,0,1,8.86,16.58,85.06,85.06,0,0,1,6.23,18.72,2.52,2.52,0,0,0,3.07,1.75A2.57,2.57,0,0,0,617.54,755.75Z"/>
 </g>
</svg>
