<svg xmlns="http://www.w3.org/2000/svg" xmlns:xlink="http://www.w3.org/1999/xlink" viewBox="0 0 800 800"><defs><style>.cls-1{fill:none;}.cls-2{clip-path:url(#clip-path);}.cls-3,.cls-6{fill:#e5e6e6;}.cls-4{fill:#54899b;}.cls-5{clip-path:url(#clip-path-2);}.cls-6{stroke:#fff;stroke-miterlimit:10;stroke-width:1.01px;}.cls-7{fill:#2f152f;}.cls-8{clip-path:url(#clip-path-3);}.cls-9{fill:#ca4079;}.cls-10{fill:#fff;}.cls-11{clip-path:url(#clip-path-4);}.cls-12{fill:#985023;}</style><clipPath id="clip-path"><path class="cls-1" d="M-127.2-50.85C-305.44-48.66-638.42,2-751.26-67.72c-28.66-17.71-40.47-53.55-46.63-86.68-11.94-64.28-13.52-132.22,4.17-195.17,56-199.18,186.85-320,294.17-362.1,78.84-30.9,165.5-48.81,248.48-32s149.61,78.24,186.4,154.51c30,62.2,5,146.53,2.81,203.71-2.56,67.47,7.33,102.1,21.07,168.22,3.76,18.08,8.15,36.32,7.2,54.76C-35.87-117.93-65.18-56.64-109.4-51.17Z"/></clipPath><clipPath id="clip-path-2"><path class="cls-1" d="M702.09,709c28.36-415.41-562-627.09-620-319.1-6.95,74.82-35.89,222.9-41.14,273.89-1.25,12.14,7.34,20.7,16.37,28.91C174.08,794.74,605.09,744,702.09,709"/></clipPath><clipPath id="clip-path-3"><path class="cls-1" d="M426,532.67c-1.7-31.4,30-58.68,60.67-72.09s66.49-12.68,98.05-1.54,59.06,32.08,81.3,57.09c20,22.49,36.46,49.37,40.66,79.19,1.72,12.23,1.36,24.74,4,36.81,3.92,18.17,14.28,34.17,21.76,51.17s12,37.1,4,53.86c-5.52,11.52-16.23,19.75-27.57,25.64-31.54,16.37-68.68,17.28-104.18,15.63-27.15-1.26-54.35-3.82-80.82-10.06-27.37-6.45-56.88-19.84-66-46.43-.81-2.36-1.5-4.88-3.22-6.69s-4.28-2.64-6.73-3.29c-13.87-3.65-28.44-4.15-42.22-8.12s-27.48-12.52-32-26.12a36.83,36.83,0,0,1-.62-19.6,48.24,48.24,0,0,1,31.2-34.62c12.52-4.18,29.21-5.09,33.69-17.51,2.56-7.11-.48-14.86-3-22a157.36,157.36,0,0,1-8.77-57.39"/></clipPath><clipPath id="clip-path-4"><rect class="cls-1" x="-425.02" y="-2.02" width="403.49" height="825.33"/></clipPath></defs><g id="November_Orders" data-name="November Orders"><g id="Layer_215" data-name="Layer 215"><g class="cls-2"><path class="cls-3" d="M-770.31-434.11c48.44-70.06,130.09-122.93,194.21-179,169-147.74,334.59,37.81,320.65,80.7C-336.53-282.92-307.09-233.33,36.3-165.29c35.64,7.07,15,138.14,3.16,172.49-18.13,52.56-292.39,61.53-346,76.17-135.39,37-282.25,30.65-414-17.8C-784.62,42-849.17,4.51-877-57.81c-19.93-44.63-18.14-95.94-9.92-144.12A588.37,588.37,0,0,1-783-448.29a17.17,17.17,0,0,0,15.65,9.21"/></g></g><g id="Layer_252" data-name="Layer 252"><path class="cls-4" d="M697.37,706.33c28.36-415.41-562-627.09-620-319.1C70.4,462,41.46,610.13,36.21,661.12,35,673.26,43.55,681.82,52.58,690c116.78,102,547.79,51.25,644.79,16.3"/><g class="cls-5"><path class="cls-6" d="M232,767.77c-156.77,114,821.8,160.58,476.32-378.27-59.53-92.85-252.84-143.13-350.91-113.94-19.2,5.71-60.71,31.25-66.84,87.17-5.44,49.64,14.86,110.84,21.43,167.13,5.91,50.59-1.92,97.84-4.84,118.63C300.67,695.06,263.05,745.23,232,767.77Z"/><path class="cls-7" d="M360.85,488a559.58,559.58,0,0,0,59.84,39.54q8.9,5.09,18,9.84a12.66,12.66,0,0,0,11.23.64,12.79,12.79,0,0,0,7.3-8.18l18.63-53.33,5.27-15.1-15.52,8.81L531,490.83,547.38,496c2.58.81,5.16,1.8,7.8,2.36,5.2,1.11,10.67.95,15.31-1.93a20.12,20.12,0,0,0,7.59-8.55,99,99,0,0,0,3.54-9.43l5.51-16.28,12.38-36.57A12.62,12.62,0,0,0,581,411.37a13.88,13.88,0,0,0-5.8,7.54l-10.13,30-5,14.86c-1.59,4.69-3,9.53-4.85,14.11l1.27-3a14.3,14.3,0,0,1-1.52,2.73l2-2.55a8.61,8.61,0,0,1-1.41,1.42l2.55-2a7,7,0,0,1-1.17.66l3-1.27a7.35,7.35,0,0,1-1.66.42l3.35-.45a11.15,11.15,0,0,1-2.16-.07l3.35.45a64.15,64.15,0,0,1-8.67-2.53l-8.8-2.78-17.6-5.55-35.42-11.19-20-6.31a12.8,12.8,0,0,0-9.72,1.27,14,14,0,0,0-5.8,7.54L438.15,508l-5.28,15.11,18.54-7.54a556.58,556.58,0,0,1-61.25-37.31q-8.4-5.88-16.57-12.08c-2.43-1.84-6.93-2-9.72-1.27a12.87,12.87,0,0,0-7.54,5.8,12.72,12.72,0,0,0-1.27,9.72l1.27,3a12.66,12.66,0,0,0,4.52,4.53Z"/></g><path class="cls-1" d="M427.4,277.54c-70.7-14.88-150.26-13.29-173,69.63-16.78,61.48,9.79,123.6,17.8,184.44,7.85,70.08-3.39,160.27-55.2,211.84"/><path class="cls-4" d="M426,532.67c-1.7-31.4,30-58.68,60.67-72.09s66.49-12.68,98.05-1.54,59.06,32.08,81.3,57.09c20,22.49,36.46,49.37,40.66,79.19,1.72,12.23,1.36,24.74,4,36.81,3.92,18.17,14.28,34.17,21.76,51.17s12,37.1,4,53.86c-5.52,11.52-16.23,19.75-27.57,25.64-31.54,16.37-68.68,17.28-104.18,15.63-27.15-1.26-54.35-3.82-80.82-10.06-27.37-6.45-56.88-19.84-66-46.43-.81-2.36-1.5-4.88-3.22-6.69s-4.28-2.64-6.73-3.29c-13.87-3.65-28.44-4.15-42.22-8.12s-27.48-12.52-32-26.12a36.83,36.83,0,0,1-.62-19.6,48.24,48.24,0,0,1,31.2-34.62c12.52-4.18,29.21-5.09,33.69-17.51,2.56-7.11-.48-14.86-3-22a157.36,157.36,0,0,1-8.77-57.39"/><g class="cls-8"><path class="cls-3" d="M310.29,494.17c-1.74,9.94,69.56,267.26,125.8,273.91S867.55,860.65,595,693.72c-39.09-23.93-80.92-79.21-101.5-117.41-12.32-22.86-21.77-47-37.52-68.29S324.09,472.7,317.36,497.18"/></g><path class="cls-4" d="M257.15,533c51.9-3.36,160.36,38.68,209.31,56.23,24.28,8.7,48.44,20.44,65,40.18s23.91,49.06,12,72c-12,23.09-39.07,33.63-64.46,39.27-74.73,16.62-152.5,7.32-228.44-2.32"/><path class="cls-4" d="M633.28,519.92c22.82,1,45.09,6.53,67.18,12,16.86,4.19,47.28,12.27,64,16.73a10.84,10.84,0,0,1,7.14,14.68c-11.09,27.2-40,95.55-63.31,128-.76,1-1.68,2.21-3,2.34s-2.45-.88-3.38-1.84A300.82,300.82,0,0,1,626,553.65c-2.46-10.22-3.49-23.12,5-29.45"/><path class="cls-9" d="M597.3,140.37c-32.81-28.2-87-12.92-111.71,17.83-48.94,73.58,100.74,106,108.06,138.27,14.36-14.86,52.13-26.29,60.76-32.61,132.34-96.66,13.49-185.7-57-123.38"/><path class="cls-9" d="M368.26,113.05c-47.51-27.58-67.15,32.62-18,50.71,6.66,4.3,7,16.94,16.92,11.37,54.19-7.07,69.61-95.56,1.1-62"/><g id="Layer_257" data-name="Layer 257"><circle class="cls-7" cx="572.12" cy="606.82" r="43.69"/></g><path class="cls-7" d="M208.32,491.75A174.15,174.15,0,0,1,215,521.41l-.45-3.32c1.41,10.58,2.29,21.59.92,32.22L216,547a48.13,48.13,0,0,1-3.17,12.22l1.26-3a30.45,30.45,0,0,1-3.68,6.41l2-2.53a24.48,24.48,0,0,1-4.23,4.28l2.53-2a23.94,23.94,0,0,1-5.22,3.05l3-1.26a28.32,28.32,0,0,1-6.64,1.77l3.32-.45a40,40,0,0,1-10.31-.08l3.32.45a65.29,65.29,0,0,1-16.42-4.62l3,1.26a74.46,74.46,0,0,1-16.22-9.48l2.53,2a75.19,75.19,0,0,1-13.3-13.26l2,2.53a72,72,0,0,1-7.56-12.12c-1.33-2.7-4.66-5-7.47-5.75a12.82,12.82,0,0,0-9.64,1.26,12.65,12.65,0,0,0-5.74,7.47,13.85,13.85,0,0,0,1.26,9.63,84.69,84.69,0,0,0,11.16,16.71,86.39,86.39,0,0,0,14.49,13.39,74,74,0,0,0,14.87,8.8,77.26,77.26,0,0,0,19.42,6.18c8,1.23,16.5,1.61,24.25-1.39a38.86,38.86,0,0,0,12.15-7.28,36.33,36.33,0,0,0,6.56-8,48.25,48.25,0,0,0,6.37-17.43,101.21,101.21,0,0,0,1.31-19.89,186.24,186.24,0,0,0-8.62-50.77,13.16,13.16,0,0,0-5.74-7.47,12.51,12.51,0,0,0-18.37,14.12Z"/></g><g id="Layer_261" data-name="Layer 261"><path class="cls-10" d="M432.22,568.77a64.14,64.14,0,0,1-4-14.46c-.19-1.22.12,1.16,0-.07,0-.23-.05-.46-.08-.7-.07-.58-.12-1.17-.17-1.75-.11-1.29-.19-2.57-.22-3.86a67.48,67.48,0,0,1,.21-7.39,27.48,27.48,0,0,1,.37-3.51c-.31,1.49.08-.47.13-.77.11-.71.23-1.4.36-2.1q.7-3.69,1.75-7.29t2.43-7.16c.22-.56.44-1.12.67-1.68.1-.24.32-.89-.08.19.12-.34.29-.67.43-1,.52-1.17,1.05-2.32,1.62-3.47a98.28,98.28,0,0,1,7.77-13.11c.71-1,1.44-2,2.18-3l.23-.29c.33-.44.3-.4-.1.13a3.3,3.3,0,0,1,.45-.59c.46-.58.93-1.15,1.4-1.72,1.66-2,3.38-3.94,5.18-5.81s3.66-3.67,5.59-5.4c.92-.82,1.85-1.62,2.79-2.41l1.43-1.16.86-.69c.81-.64-.75.56.15-.11a117.83,117.83,0,0,1,13.89-9c2.49-1.37,5-2.66,7.62-3.85L487,466l.74-.33c.17-.07,1.43-.6.3-.13,1.31-.55,2.64-1.08,4-1.58A123.78,123.78,0,0,1,508.1,459q4.14-1,8.36-1.64l2-.31c.22,0,1.55-.29.28,0,.26,0,.54-.07.8-.1,1.48-.19,3-.34,4.44-.47a120.6,120.6,0,0,1,17-.3c2.83.14,5.66.39,8.47.75l.81.1.27,0,2,.31c1.46.24,2.93.51,4.38.81a118.71,118.71,0,0,1,16.43,4.66q7.89,2.83,15.64,6l1.12.47c-1-.42-.14-.06.11.05l1.86.79,3.87,1.72c2.56,1.15,5.1,2.35,7.62,3.58a211.08,211.08,0,0,1,28.71,16.85c1.08.76,2.15,1.52,3.22,2.31.53.39,1.06.78,1.58,1.18l.64.48c.17.13,1.54,1.19.56.42,2.19,1.71,4.35,3.47,6.46,5.28,4.22,3.62,8.27,7.45,12.11,11.47,1.94,2,3.81,4.1,5.65,6.21a5,5,0,0,0,7.07,0,5.13,5.13,0,0,0,0-7.07c-15.16-17.53-33.94-31.6-54.38-42.41a291.8,291.8,0,0,0-32.25-14.44,171.38,171.38,0,0,0-16.64-5.64,124.41,124.41,0,0,0-18-3.35A128.65,128.65,0,0,0,479,458.67c-20.16,9.57-37.46,24.7-48.72,44.06-10.7,18.38-15.78,40.66-10.1,61.53a64.92,64.92,0,0,0,2.44,7.16c1,2.42,3.37,4.4,6.15,3.5,2.33-.76,4.55-3.56,3.49-6.15Z"/></g></g><g id="Layer_245" data-name="Layer 245"><g class="cls-11"><rect class="cls-12" x="-304.4" y="-50.91" width="362.31" height="175.61" rx="23.24"/><rect class="cls-12" x="-106.59" y="164.54" width="362.31" height="175.61" rx="23.24"/><rect class="cls-12" x="-304.4" y="379.13" width="362.31" height="175.61" rx="23.24"/><rect class="cls-12" x="-106.59" y="580.57" width="362.31" height="175.61" rx="23.24"/><rect class="cls-12" x="-304.4" y="795.77" width="362.31" height="175.61" rx="23.24"/></g></g></svg>