<?xml version="1.0" encoding="UTF-8"?>
<svg id="Prior_to_November" data-name="Prior to November" viewBox="0 0 800 800" xmlns="http://www.w3.org/2000/svg">
 <defs>
  <style>.cls-1{fill:none;}.cls-2{opacity:0.42;}.cls-3{fill:#c0c480;}.cls-4{fill:#c0b17a;}.cls-5{fill:#54899b;}.cls-6{clip-path:url(#clip-path);}.cls-7{fill:#e5e6e6;}.cls-8{fill:#2f152f;}.cls-10,.cls-9{fill:#9b578e;}.cls-9{opacity:0.25;}.cls-10{opacity:0.35;}.cls-11{fill:#ca4079;}</style>
  <clipPath id="clip-path">
   <path class="cls-1" d="M575.85,435.62C473.46,401.49,355.28,422.85,264,477.51S76.54,694.06,72.26,703.58c-40.44,90,213.93,50.14,313.59,53.49,108.12,3.64,218.48,6,317.9-33.28A113,113,0,0,0,741,699.54c24.25-23.69,13.47-71.2,10.16-82.78C727.3,533.13,589.62,440.21,575.85,435.62Z"/>
  </clipPath>
 </defs>
 <g id="Layer_180" data-name="Layer 180">
  <g class="cls-2">
   <path class="cls-3" d="m503.88 701c-33.06-14.41-46.66-33.85-35.05-48.52s47.41-24.14 90.45-24.53 91.91 8.09 127.47 21.67c11.83 4.52 22.37 9.63 29.28 15.16s10.07 11.48 11 17.1c2.62 16.06-12.54 30.78-42.72 39.12s-75.31 9.91-118.2 3.3c-18.88-2.91-37.42-7.41-51.64-13.47s-23.72-13.83-23.34-20.71"/>
   <path class="cls-4" d="M533.34,723c-33.23-5.78-43.85-13.73-56.15-24.94-13.91-12.68,6-23.48,36.86-25.51,10.18-.66,21.17-.46,32.08-.25,13.4.25,27.12.53,40.74,2.51,18.69,2.73,35.67,8.61,46.41,15.33s15.5,14.2,15.1,21c-.26,4.52-2.83,8.91-9.89,12a69.61,69.61,0,0,1-15.6,4c-25.52,4.07-59.84,2.5-89.55-4.09-25.24-5.61-47.1-14.9-56.15-24.94s-4.11-20.55,14.19-25.77"/>
   <path class="cls-4" d="M541.94,716c-22.74-4-30-9.4-38.42-17.07-9.52-8.67,4.1-16.06,25.22-17.44,7-.46,14.49-.32,22-.18,9.17.17,18.56.36,27.88,1.72,12.78,1.87,24.4,5.89,31.75,10.49s10.6,9.71,10.33,14.39c-.18,3.09-1.94,6.1-6.77,8.17a47.13,47.13,0,0,1-10.67,2.72c-17.46,2.78-40.94,1.71-61.27-2.8-17.27-3.84-32.23-10.2-38.42-17.07s-2.81-14.06,9.71-17.63"/>
   <path class="cls-3" d="M170.42,734.44c-36.07.33-56.42-11.87-51.8-30s33.44-41.37,72.57-59.29,87.22-30.1,125.23-32.2c12.64-.7,24.35-.34,32.92,1.89s13.87,6.38,17,11.14c8.93,13.59,1.1,33.21-23,53.13s-64.73,39.74-106.57,51.2c-18.42,5-37.19,8.5-52.65,8.76s-27.27-2.91-29.75-9.38"/>
   <path class="cls-4" d="M226.68,715.53c-39.16,9.91-54.65,6.41-73.57.16-21.39-7.07-4.91-28.59,27.84-45.88,10.8-5.7,22.92-10.85,34.94-15.95,14.77-6.26,29.91-12.66,45.76-17.14,21.77-6.14,43.2-8,58.22-5.92s23.87,8,26.78,15.62c1.92,5.06,1.25,11.13-5,17.89-3.65,4-9.08,8-15.1,12-25.91,16.91-64.19,32-99.88,39.26-30.34,6.2-58.77,6.71-73.57.16s-14.52-20.46,2.93-35.1"/>
   <path class="cls-4" d="M257.29,720.11c-22.38,5.66-31.23,3.66-42.05.09-12.22-4-2.8-16.34,15.92-26.22,6.16-3.26,13.09-6.2,20-9.11,8.44-3.59,17.09-7.24,26.16-9.8,12.43-3.51,24.68-4.58,33.27-3.38s13.64,4.55,15.3,8.92c1.1,2.9.71,6.36-2.85,10.23a47.66,47.66,0,0,1-8.63,6.83c-14.81,9.67-36.69,18.27-57.08,22.44-17.34,3.54-33.59,3.84-42.05.09s-8.3-11.69,1.68-20.06"/>
  </g>
  <path class="cls-5" d="M575.85,435.62c-102.39-34.13-227.92,22.64-319.19,77.3S76.54,694.06,72.26,703.58c-40.44,90,213.93,50.14,313.59,53.49,108.12,3.64,218.48,6,317.9-33.28A113,113,0,0,0,741,699.54c24.25-23.69,13.47-71.2,10.16-82.78C727.3,533.13,589.62,440.21,575.85,435.62Z"/>
  <g class="cls-6">
   <path class="cls-7" d="M85.7,736.27c49-5.25,95.21-32.78,123.16-73.4,21.23-30.85,32-68.12,54.6-98,26.7-35.38,68.62-57.74,112.34-65.06s89.05-.42,130.65,14.91c18.82,6.93,37.12,15.64,53.3,27.5,25.29,18.54,44.46,44,63.24,69.13l66.63,89c4.16,5.55,8.55,12,7.18,18.85-1.48,7.39-9,11.71-15.8,14.95-137.72,65.51-293.48,80.49-445.76,88.73-19.62,1.06-39.33,2-58.89.08-34.69-3.43-68.71-16.34-95.58-38.55C70.7,776.11,61,764.9,61.7,751.85s18.15-23.92,27.38-14.67"/>
  </g>
  <path class="cls-8" d="M592.05,545c9.23,2.69,18.47,5.4,27.34,9.14l-2.93-1.24a133.21,133.21,0,0,1,29.17,17.32l-2.49-1.93c12.56,9.75,23.6,21.3,33.73,33.52q4.35,5.25,8.51,10.66L683.46,610q3.76,4.89,7.43,9.86a13.7,13.7,0,0,0,7.34,5.65,12.58,12.58,0,0,0,9.47-1.24,12.44,12.44,0,0,0,5.65-7.34c.68-3,.68-6.86-1.24-9.47-10.9-14.76-22.27-29.31-35.35-42.22-12.9-12.73-27.62-24.19-44.11-31.86-11-5.1-22.47-8.67-34.07-12.05a12.63,12.63,0,0,0-9.47,1.24,12.3,12.3,0,0,0-4.41,16.81,13,13,0,0,0,7.35,5.64Z"/>
  <path class="cls-8" d="m237.59 550.91c-22.54 12.28-41.93 30.13-58.14 49.88q-8.5 10.38-16.18 21.42c-1.74 2.5-2 6.63-1.24 9.47a12.53 12.53 0 0 0 5.65 7.34 12.4 12.4 0 0 0 9.47 1.24 13.78 13.78 0 0 0 7.34-5.65q4.47-6.43 9.26-12.64l-1.92 2.48a237.16 237.16 0 0 1 30.54-33q4.45-3.91 9.15-7.54l-2.52 1.96a159.15 159.15 0 0 1 21-13.74 12.29 12.29 0 0 0-12.4-21.22z"/>
  <path class="cls-8" d="M329.7,533.24A225.6,225.6,0,0,0,287.92,601c-2.64,6.51-4.95,13.16-6.93,19.9a12.48,12.48,0,0,0,1.23,9.47,13.72,13.72,0,0,0,7.35,5.64c7.77,2.78,16.3,2.24,24.23.54,6.44-1.38,12.6-3.77,18.89-5.69a70.61,70.61,0,0,1,10.74-2.5l-3.26.44a34.48,34.48,0,0,1,8.79-.1l-3.27-.44a27.89,27.89,0,0,1,6.84,1.89l-2.93-1.24a53.36,53.36,0,0,1,11,7L358.14,634c3.81,2.95,7.54,6,11.58,8.66a75,75,0,0,0,10.71,5.83,97.18,97.18,0,0,0,13.79,5.12,98.52,98.52,0,0,0,14.57,2.66,76.34,76.34,0,0,0,13.77.38A12.84,12.84,0,0,0,430,654a11.92,11.92,0,0,0,4.41-6.38A87.27,87.27,0,0,0,437,630.82a85.76,85.76,0,0,0-1-16.93l-18.05,13.88A259.41,259.41,0,0,0,508.33,658c7.44,1,15,2.14,22.53,1.94,6.48-.18,13.28-1,19.32-3.49a48.16,48.16,0,0,0,5.81-2.64,40.63,40.63,0,0,0,5.55-4,25.59,25.59,0,0,0,6.31-7.9,30.32,30.32,0,0,0,2.45-21.93c-3.37-12.38-13.54-21.14-21.14-30.94l1.93,2.49a44.79,44.79,0,0,1-5.85-9.52l1.24,2.94a24.43,24.43,0,0,1-1.74-6.21l.44,3.27a20.71,20.71,0,0,1-.16-2.84,12.7,12.7,0,0,0-3.6-8.68,12.29,12.29,0,0,0-17.38,0,12.84,12.84,0,0,0-3.6,8.68c-.08,13.73,8.69,24.42,17.17,34.25,2,2.27,3.92,4.54,5.76,6.91l-1.92-2.49a41.47,41.47,0,0,1,5.45,8.87l-1.24-2.94a21.52,21.52,0,0,1,1.46,5.29l-.44-3.27a18.15,18.15,0,0,1,0,4.48l.44-3.27a18.41,18.41,0,0,1-1.18,4.3l1.24-2.94a17.45,17.45,0,0,1-2.17,3.74l1.92-2.49a19.62,19.62,0,0,1-3.23,3.21l2.49-1.92a25.46,25.46,0,0,1-5.46,3.12l2.94-1.24a40.44,40.44,0,0,1-9.79,2.54l3.27-.44c-8.51,1.14-17.08.13-25.54-1l3.27.44a250,250,0,0,1-50.08-12.1q-7-2.48-13.8-5.36l2.93,1.23a248.51,248.51,0,0,1-23.61-11.5,12.41,12.41,0,0,0-13.65,1,11.67,11.67,0,0,0-3.78,4.92,6,6,0,0,0-.84,3.1,9.19,9.19,0,0,0,.22,4.9l.07.49-.44-3.27a70.68,70.68,0,0,1,0,18.38l.43-3.27a71.34,71.34,0,0,1-1.63,8.31l11.85-9a77.22,77.22,0,0,1-14.89-.53l3.27.44a78.34,78.34,0,0,1-19.59-5.33l2.94,1.24a80.07,80.07,0,0,1-17.77-10.49l2.48,1.93c-4.67-3.62-9.24-7.59-14.47-10.4a41.4,41.4,0,0,0-18.49-5c-9.66-.29-19,3-28.05,5.92a86.08,86.08,0,0,1-14.39,3.69l3.27-.44a33.34,33.34,0,0,1-8.7.12l3.27.44a26.51,26.51,0,0,1-5.34-1.3l8.58,15.11a218.43,218.43,0,0,1,8.23-23l-1.23,2.93a217.93,217.93,0,0,1,28.06-48l-1.92,2.49q4.44-5.74,9.25-11.18a12.92,12.92,0,0,0,3.6-8.68,12.29,12.29,0,0,0-12.28-12.29c-3.15.14-6.53,1.16-8.69,3.6Z"/>
  <ellipse class="cls-9" cx="223.28" cy="671.21" rx="94.95" ry="29.6"/>
  <ellipse class="cls-9" cx="654.05" cy="654.33" rx="94.95" ry="29.6"/>
  <ellipse class="cls-9" cx="654.05" cy="654.33" rx="77.09" ry="24.04"/>
  <ellipse class="cls-10" cx="654.05" cy="654.33" rx="54.14" ry="16.88"/>
  <ellipse class="cls-9" cx="219.54" cy="671.21" rx="77.09" ry="24.04"/>
  <ellipse class="cls-10" cx="223.28" cy="671.21" rx="54.14" ry="16.88"/>
  <path class="cls-11" d="M496.74,115.14C460.14-70.8,201.24,54.2,400.17,168,421,181.76,442,196.8,454.64,218.34c62.45-24,211-11.43,178.57-117.44-30.68-48.72-123.93-49.4-141.77,10.87"/>
  <path class="cls-11" d="M420.89,380.85c13.69-.48,24.18-10.63,28.88-22.91,2.45-6.4,2.93-13.71,2.33-20.5a118.24,118.24,0,0,0-4.33-21.71c-2.09-7.42-4.34-14.83-5.38-22.49l.26,2a60.42,60.42,0,0,1,0-15.61l-.27,2c1.19-8.64,4-16.91,7.39-24.92l-.76,1.79c1.86-4.39,3.87-8.71,5.89-13a8.12,8.12,0,0,0,.76-5.78,7.67,7.67,0,0,0-3.45-4.48c-3.32-1.75-8.48-1.1-10.26,2.69-5.51,11.74-11.2,23.76-13.54,36.61a67,67,0,0,0-.83,20.27A138.24,138.24,0,0,0,432,315.16c2,6.94,4,13.87,5,21l-.26-2a54.42,54.42,0,0,1,.22,13.85l.27-2A35.7,35.7,0,0,1,435,354.8l.75-1.8a31,31,0,0,1-2.33,4.51c-.45.72-1,1.39-1.44,2.1,1.31-2,.46-.59.05-.11l-.84.95c-.57.61-1.17,1.2-1.79,1.76l-.95.81c-1,.88,1.6-1.17.26-.21a23.75,23.75,0,0,1-4.42,2.49l1.79-.75a21.49,21.49,0,0,1-5,1.4l2-.27c-.71.09-1.41.15-2.12.17-3.92.14-7.69,3.35-7.5,7.5.18,3.95,3.3,7.65,7.5,7.5Z"/>
 </g>
</svg>
