<?xml version="1.0" encoding="UTF-8"?>
<!DOCTYPE svg  PUBLIC '-//W3C//DTD SVG 1.1//EN'  'http://www.w3.org/Graphics/SVG/1.1/DTD/svg11.dtd'>
<svg clip-rule="evenodd" fill-rule="evenodd" stroke-linecap="round" stroke-linejoin="round" stroke-miterlimit="1.5" version="1.1" viewBox="0 0 32 32" xml:space="preserve" xmlns="http://www.w3.org/2000/svg">
<metadata>
<rdf:RDF xmlns:cc="http://web.resource.org/cc/" xmlns:dc="http://purl.org/dc/elements/1.1/" xmlns:rdf="http://www.w3.org/1999/02/22-rdf-syntax-ns#">

     <rdf:Description rdf:about="">
       <dc:title>Mutant Standard emoji 2023.12</dc:title>
     </rdf:Description>

    <cc:work rdf:about="">
        <cc:license rdf:resource="http://creativecommons.org/licenses/by-nc-sa/4.0/"/>
        <cc:attributionName>Caius Nocturne</cc:attributionName>
        <cc:attributionURL>http://mutant.tech/</cc:attributionURL>
    </cc:work>

</rdf:RDF>
</metadata>
<rect id="bat" width="32" height="32" fill="none"/><clipPath id="_clip1"><rect width="32" height="32"/></clipPath><g clip-path="url(#_clip1)"><g id="outline"><path d="m19.213 11.57c0.123-0.317 0.328-0.603 0.603-0.823 1.965-1.572 4.49-3.592 5.964-4.771 0.79-0.632 1.771-0.976 2.783-0.976h0.437c0.552 0 1 0.448 1 1v0.877c0 0.082-0.01 0.163-0.03 0.242-0.139 0.555-0.721 2.885-0.91 3.642-0.04 0.159-0.06 0.322-0.06 0.485v2.148c0 0.395-0.117 0.781-0.336 1.11-0.963 1.444-3.664 5.496-3.664 5.496l-1e-3 -1e-3c-0.018 1.301-0.542 2.544-1.463 3.465l-2.486 2.486c-1.312 1.312-3.093 2.05-4.949 2.05h-0.202c-1.856 0-3.637-0.738-4.949-2.05l-2.486-2.486c-0.921-0.921-1.445-2.164-1.463-3.465l-1e-3 1e-3s-2.701-4.052-3.664-5.496c-0.219-0.329-0.336-0.715-0.336-1.11v-2.148c0-0.163-0.02-0.326-0.06-0.485-0.189-0.757-0.771-3.087-0.91-3.642-0.02-0.079-0.03-0.16-0.03-0.242v-0.877c0-0.552 0.448-1 1-1h0.437c1.012 0 1.993 0.344 2.783 0.976 1.474 1.179 3.999 3.199 5.964 4.771 0.275 0.22 0.48 0.506 0.603 0.823 1.016-0.372 2.101-0.57 3.213-0.57s2.197 0.198 3.213 0.57z" fill="none" stroke="#000" stroke-width="4px"/></g><g id="emoji"><path d="m8.227 15.16c1.732-2.599 4.649-4.16 7.773-4.16s6.041 1.561 7.773 4.16c0.685 1.027 1.227 1.84 1.227 1.84v2.929c0 1.326-0.527 2.598-1.464 3.535l-2.486 2.486c-1.312 1.312-3.093 2.05-4.949 2.05h-0.202c-1.856 0-3.637-0.738-4.949-2.05l-2.486-2.486c-0.937-0.937-1.464-2.209-1.464-3.535v-2.929s0.542-0.813 1.227-1.84z" fill="#c3914b"/><path d="m7.805 17.986-0.805 2.014s-2.701-4.052-3.664-5.496c-0.219-0.329-0.336-0.715-0.336-1.11v-2.148c0-0.163-0.02-0.326-0.06-0.485-0.189-0.757-0.771-3.087-0.91-3.642-0.02-0.079-0.03-0.16-0.03-0.242v-0.861c0.301 0.031 3 0 3 0l4.937 3.984s-0.044 4.692 0 4.995c-0.21 0.156-0.41 0.327-0.598 0.509-0.424 0.045-1.749 1.808-1.534 2.482z" fill="#422c29"/><path d="m2.887 5.006c0.227 0.015 2.113 0.451 2.113 0.451l7 6.543s-1.044 2.073-1.019 2.377c-0.371 0.17-0.72 0.378-1.044 0.618-0.172-1.174-0.696-2.275-1.513-3.154-1.399-1.507-3.394-3.655-4.534-4.882-0.497-0.536-1.17-0.869-1.89-0.943v-0.016c0-0.514 0.388-0.937 0.887-0.994z" fill="#382523"/><g fill="none" stroke="#76615e" stroke-opacity=".61176" stroke-width="1px"><path d="m11 13.5h-1.764c-1.37 0-2.623 0.774-3.236 2"/><path d="m9 10.5h-1.198c-1.126 0-2.177 0.563-2.802 1.5"/><path d="m6.5 7.5h-1.01c-0.784 0-1.522 0.371-1.99 1"/></g><path d="m2.887 5.006c0.037-4e-3 0.075-6e-3 0.113-6e-3h0.437c1.012 0 1.993 0.344 2.783 0.976 1.474 1.179 3.999 3.199 5.964 4.771 0.561 0.449 0.832 1.169 0.706 1.877-0.126 0.707-0.63 1.289-1.311 1.516-1e-3 1e-3 -2e-3 1e-3 -3e-3 1e-3 -0.204 0.068-0.402 0.147-0.595 0.236-0.107-1.316-0.652-2.562-1.557-3.536-1.399-1.507-3.394-3.655-4.534-4.882-0.523-0.564-1.241-0.903-2.003-0.953z" fill="#563a36"/><path d="m7.805 17.986c-0.515-0.072-0.953-0.43-1.121-0.934-0.219-0.656-0.492-1.476-0.617-1.85-0.044-0.134-0.099-0.266-0.162-0.393-0.122-0.242-0.338-0.675-0.529-1.056-0.08-0.162-0.072-0.353 0.023-0.506 0.095-0.154 0.262-0.247 0.442-0.247h1e-3c0.102 0 0.202 0.033 0.285 0.095l3.212 2.409c-0.578 0.565-1.04 1.249-1.347 2.017l-0.187 0.465z" fill="#a16636"/><path d="m24.195 17.986 0.805 2.014s2.701-4.052 3.664-5.496c0.219-0.329 0.336-0.715 0.336-1.11v-2.148c0-0.163 0.02-0.326 0.06-0.485 0.189-0.757 0.771-3.087 0.91-3.642 0.02-0.079 0.03-0.16 0.03-0.242v-0.861c-0.301 0.031-3 0-3 0l-4.937 3.984s0.044 4.692 0 4.995c0.21 0.156 0.41 0.327 0.598 0.509 0.424 0.045 1.749 1.808 1.534 2.482z" fill="#422c29"/><path d="m29.113 5.006c-0.227 0.015-2.113 0.451-2.113 0.451l-7 6.543s1.044 2.073 1.019 2.377c0.371 0.17 0.72 0.378 1.044 0.618 0.172-1.174 0.696-2.275 1.513-3.154 1.399-1.507 3.394-3.655 4.534-4.882 0.497-0.536 1.17-0.869 1.89-0.943v-0.016c0-0.514-0.388-0.937-0.887-0.994z" fill="#382523"/><g fill="none" stroke="#76615e" stroke-opacity=".61176" stroke-width="1px"><path d="m21 13.5h1.764c1.37 0 2.623 0.774 3.236 2"/><path d="m23 10.5h1.198c1.126 0 2.177 0.563 2.802 1.5"/><path d="m25.5 7.5h1.01c0.784 0 1.522 0.371 1.99 1"/></g><path d="m29.113 5.006c-0.037-4e-3 -0.075-6e-3 -0.113-6e-3h-0.437c-1.012 0-1.993 0.344-2.783 0.976-1.474 1.179-3.999 3.199-5.964 4.771-0.561 0.449-0.832 1.169-0.706 1.877 0.126 0.707 0.63 1.289 1.311 1.516 1e-3 1e-3 2e-3 1e-3 3e-3 1e-3 0.204 0.068 0.402 0.147 0.595 0.236 0.107-1.316 0.652-2.562 1.557-3.536 1.399-1.507 3.394-3.655 4.534-4.882 0.523-0.564 1.241-0.903 2.003-0.953z" fill="#563a36"/><path d="m24.195 17.986c0.515-0.072 0.953-0.43 1.121-0.934 0.219-0.656 0.492-1.476 0.617-1.85 0.044-0.134 0.099-0.266 0.162-0.393 0.122-0.242 0.338-0.675 0.529-1.056 0.08-0.162 0.072-0.353-0.023-0.506-0.095-0.154-0.262-0.247-0.442-0.247h-1e-3c-0.102 0-0.202 0.033-0.285 0.095l-3.212 2.409c0.578 0.565 1.04 1.249 1.347 2.017l0.187 0.465z" fill="#a16636"/><path d="m22 18c0-0.552-0.448-1-1-1s-1 0.448-1 1v1c0 0.552 0.448 1 1 1s1-0.448 1-1v-1z"/><path d="m12 18c0-0.552-0.448-1-1-1s-1 0.448-1 1v1.001c0 0.552 0.447 0.999 0.999 0.999h1e-3c0.552 0 1-0.448 1-1v-1z"/><path d="m12 21.181c0-0.433 0.187-0.844 0.512-1.129 0.39-0.341 0.952-0.833 1.512-1.323 1.132-0.99 2.82-0.99 3.952 0 0.56 0.49 1.122 0.982 1.512 1.323 0.325 0.285 0.512 0.696 0.512 1.129v0.319c0 0.398-0.158 0.779-0.439 1.061-0.282 0.281-0.663 0.439-1.061 0.439h-5c-0.398 0-0.779-0.158-1.061-0.439-0.281-0.282-0.439-0.663-0.439-1.061v-0.319z" fill="#7e482a"/><path d="m18.5 20.75c0-0.199-0.079-0.39-0.22-0.53-0.14-0.141-0.331-0.22-0.53-0.22s-0.39 0.079-0.53 0.22c-0.141 0.14-0.22 0.331-0.22 0.53v0.5c0 0.199 0.079 0.39 0.22 0.53 0.14 0.141 0.331 0.22 0.53 0.22s0.39-0.079 0.53-0.22c0.141-0.14 0.22-0.331 0.22-0.53v-0.5z" fill="#361a12"/><path d="m15 20.75c0-0.199-0.079-0.39-0.22-0.53-0.14-0.141-0.331-0.22-0.53-0.22s-0.39 0.079-0.53 0.22c-0.141 0.14-0.22 0.331-0.22 0.53v0.5c0 0.199 0.079 0.39 0.22 0.53 0.14 0.141 0.331 0.22 0.53 0.22s0.39-0.079 0.53-0.22c0.141-0.14 0.22-0.331 0.22-0.53v-0.5z" fill="#361a12"/><path d="m11 24s1.393 0.696 2.28 1.14c0.453 0.227 0.987 0.227 1.44 0l0.56-0.28c0.453-0.227 0.987-0.227 1.44 0l0.56 0.28c0.453 0.227 0.987 0.227 1.44 0 0.887-0.444 2.28-1.14 2.28-1.14" fill="none" stroke="#835c30" stroke-width="1.5px"/></g></g></svg>
