<?xml version="1.0" encoding="UTF-8"?>
<!DOCTYPE svg  PUBLIC '-//W3C//DTD SVG 1.1//EN'  'http://www.w3.org/Graphics/SVG/1.1/DTD/svg11.dtd'>
<svg clip-rule="evenodd" fill-rule="evenodd" stroke-linecap="round" stroke-linejoin="round" stroke-miterlimit="1.5" version="1.1" viewBox="0 0 32 32" xml:space="preserve" xmlns="http://www.w3.org/2000/svg">
<metadata>
<rdf:RDF xmlns:cc="http://web.resource.org/cc/" xmlns:dc="http://purl.org/dc/elements/1.1/" xmlns:rdf="http://www.w3.org/1999/02/22-rdf-syntax-ns#">

     <rdf:Description rdf:about="">
       <dc:title>Mutant Standard emoji 2023.12</dc:title>
     </rdf:Description>

    <cc:work rdf:about="">
        <cc:license rdf:resource="http://creativecommons.org/licenses/by-nc-sa/4.0/"/>
        <cc:attributionName>Caius Nocturne</cc:attributionName>
        <cc:attributionURL>http://mutant.tech/</cc:attributionURL>
    </cc:work>

</rdf:RDF>
</metadata>
<rect id="bear" width="32" height="32" fill="none"/><g id="outline"><path d="m14.311 6c-5.246 0-9.601 4.054-9.974 9.288-0.054 0.755-0.105 1.47-0.151 2.105-0.12 1.681 0.371 3.35 1.382 4.698 0.713 0.95 1.566 2.087 2.332 3.109 1.322 1.763 3.397 2.8 5.6 2.8h5c2.203 0 4.278-1.037 5.6-2.8 0.766-1.022 1.619-2.159 2.332-3.109 1.011-1.348 1.502-3.017 1.382-4.698-0.046-0.635-0.097-1.35-0.151-2.105-0.373-5.234-4.728-9.288-9.974-9.288h-3.378z"/><path d="m17.836 4.001 0.146 3e-3 0.147 4e-3 0.145 6e-3 0.146 8e-3 0.145 0.01 0.145 0.011 0.144 0.013 0.144 0.015 0.143 0.016 0.143 0.018 0.142 0.02 0.142 0.022 0.141 0.023 0.141 0.025 0.141 0.026 0.139 0.028 0.14 0.03 0.138 0.031 0.138 0.033 0.138 0.035 0.136 0.036 0.137 0.037 0.27 0.08 0.268 0.086 0.133 0.046 0.132 0.047 0.132 0.048 0.131 0.05 0.129 0.051 0.13 0.053 0.128 0.054 0.128 0.055 0.127 0.058 0.126 0.058 0.126 0.06 0.125 0.061 0.123 0.063 0.123 0.064 0.123 0.065 0.121 0.067 0.12 0.068 0.12 0.07 0.119 0.071 0.118 0.072 0.117 0.073 0.116 0.075 0.115 0.076 0.114 0.078 0.113 0.078 0.112 0.08 0.112 0.081 0.22 0.166 0.108 0.085 0.107 0.086 0.107 0.088 0.105 0.088 0.208 0.18 0.102 0.093 0.101 0.093 0.1 0.094 0.099 0.095 0.098 0.097 0.097 0.098 0.096 0.098 0.095 0.1 0.093 0.101 0.092 0.102 0.092 0.104 0.09 0.104 0.089 0.105 0.087 0.106 0.087 0.108 0.085 0.108 0.084 0.11 0.083 0.11 0.082 0.111 0.08 0.113 0.079 0.113 0.078 0.114 0.077 0.116 0.075 0.116 0.074 0.117 0.073 0.119 0.071 0.118 0.07 0.12 0.069 0.121 0.067 0.122 0.066 0.123 0.064 0.123 0.064 0.125 0.062 0.125 0.06 0.126 0.059 0.127 0.114 0.256 0.054 0.129 0.054 0.131 0.051 0.131 0.05 0.131 0.049 0.133 0.047 0.133 0.046 0.134 0.044 0.134 0.043 0.136 0.041 0.136 0.04 0.136 0.038 0.138 0.036 0.138 0.035 0.139 0.033 0.139 0.031 0.14 0.03 0.141 0.029 0.141 0.026 0.142 0.025 0.142 0.024 0.143 0.021 0.143 0.02 0.144 0.019 0.145 0.016 0.145 0.015 0.145 0.013 0.147 0.011 0.14 0.151 2.117 6e-3 0.095 6e-3 0.102 4e-3 0.101 6e-3 0.202 1e-3 0.101-1e-3 0.102-1e-3 0.1-2e-3 0.101-4e-3 0.101-5e-3 0.1-5e-3 0.101-7e-3 0.1-0.018 0.2-0.01 0.1-0.011 0.1-0.013 0.1-0.013 0.099-0.015 0.099-0.016 0.099-0.017 0.099-0.018 0.098-0.019 0.098-0.02 0.099-0.021 0.098-0.046 0.194-0.024 0.097-0.026 0.097-0.054 0.192-0.029 0.096-0.03 0.096-0.031 0.094-0.032 0.095-0.033 0.095-0.034 0.094-0.035 0.093-0.036 0.094-0.037 0.093-0.038 0.092-0.039 0.092-0.082 0.184-0.043 0.09-0.043 0.091-0.044 0.09-0.046 0.09-0.046 0.088-0.048 0.089-0.048 0.088-0.05 0.088-0.05 0.087-0.052 0.086-0.052 0.087-0.108 0.17-0.056 0.085-0.057 0.084-0.057 0.083-0.058 0.083-0.06 0.082-0.057 0.077-2.339 3.119-0.076 0.1-0.082 0.104-0.083 0.102-0.085 0.102-0.086 0.1-0.087 0.098-0.088 0.097-0.09 0.096-0.091 0.094-0.092 0.093-0.094 0.092-0.095 0.09-0.096 0.088-0.097 0.087-0.098 0.086-0.1 0.084-0.1 0.082-0.102 0.081-0.103 0.079-0.104 0.078-0.105 0.077-0.105 0.074-0.107 0.073-0.108 0.072-0.109 0.07-0.11 0.068-0.111 0.067-0.111 0.065-0.113 0.064-0.114 0.062-0.114 0.06-0.115 0.059-0.116 0.057-0.117 0.055-0.118 0.054-0.118 0.052-0.119 0.05-0.12 0.049-0.121 0.046-0.121 0.045-0.122 0.044-0.123 0.041-0.123 0.04-0.124 0.039-0.125 0.036-0.125 0.034-0.126 0.033-0.126 0.031-0.127 0.029-0.127 0.028-0.128 0.025-0.128 0.024-0.129 0.022-0.129 0.02-0.13 0.018-0.13 0.016-0.131 0.015-0.13 0.012-0.132 0.011-0.131 9e-3 -0.132 6e-3 -0.132 5e-3 -0.132 3e-3 -0.126 1e-3h-5.014l-0.126-1e-3 -0.132-3e-3 -0.132-5e-3 -0.132-6e-3 -0.131-9e-3 -0.132-0.011-0.13-0.012-0.131-0.015-0.13-0.016-0.13-0.018-0.129-0.02-0.129-0.022-0.128-0.024-0.128-0.025-0.127-0.028-0.127-0.029-0.126-0.031-0.126-0.033-0.125-0.034-0.125-0.037-0.124-0.038-0.123-0.04-0.123-0.041-0.122-0.044-0.121-0.045-0.121-0.046-0.12-0.049-0.119-0.05-0.118-0.052-0.118-0.054-0.117-0.055-0.116-0.057-0.115-0.059-0.115-0.06-0.113-0.062-0.113-0.064-0.111-0.065-0.111-0.067-0.11-0.068-0.109-0.07-0.108-0.072-0.107-0.073-0.105-0.074-0.105-0.077-0.104-0.078-0.103-0.079-0.102-0.081-0.1-0.082-0.1-0.084-0.098-0.086-0.097-0.087-0.096-0.088-0.095-0.09-0.093-0.092-0.093-0.093-0.091-0.094-0.09-0.095-0.176-0.196-0.085-0.1-0.085-0.101-0.083-0.103-0.082-0.104-0.076-0.1-2.339-3.119-0.057-0.077-0.06-0.082-0.058-0.083-0.057-0.083-0.057-0.084-0.056-0.085-0.054-0.085-0.053-0.085-0.053-0.087-0.052-0.086-0.05-0.087-0.05-0.088-0.048-0.088-0.048-0.089-0.092-0.178-0.044-0.09-0.043-0.091-0.043-0.09-0.041-0.092-0.04-0.091-0.04-0.093-0.038-0.092-0.037-0.093-0.036-0.094-0.035-0.093-0.034-0.094-0.033-0.095-0.032-0.094-0.031-0.095-0.03-0.096-0.029-0.096-0.054-0.192-0.026-0.097-0.024-0.097-0.023-0.097-0.023-0.098-0.021-0.097-0.02-0.099-0.019-0.098-0.018-0.098-0.017-0.099-0.016-0.099-0.015-0.099-0.013-0.1-0.013-0.099-0.011-0.1-0.02-0.2-8e-3 -0.1-6e-3 -0.1-6e-3 -0.101-5e-3 -0.1-4e-3 -0.101-2e-3 -0.101-2e-3 -0.202 1e-3 -0.101 6e-3 -0.202 4e-3 -0.101 6e-3 -0.102 6e-3 -0.095 0.151-2.117 0.011-0.141 0.013-0.146 0.015-0.145 0.016-0.145 0.019-0.145 0.02-0.144 0.021-0.143 0.024-0.143 0.025-0.142 0.026-0.142 0.029-0.142 0.03-0.14 0.031-0.14 0.033-0.139 0.035-0.139 0.036-0.138 0.038-0.137 0.04-0.137 0.041-0.136 0.043-0.136 0.044-0.134 0.046-0.134 0.047-0.133 0.049-0.133 0.05-0.131 0.051-0.131 0.054-0.131 0.054-0.129 0.056-0.128 0.058-0.128 0.059-0.127 0.06-0.126 0.062-0.125 0.064-0.125 0.064-0.123 0.066-0.123 0.067-0.122 0.069-0.121 0.07-0.119 0.072-0.12 0.072-0.118 0.074-0.117 0.075-0.116 0.077-0.116 0.078-0.114 0.079-0.113 0.08-0.113 0.082-0.111 0.083-0.11 0.084-0.11 0.085-0.108 0.087-0.108 0.087-0.106 0.089-0.105 0.09-0.104 0.092-0.104 0.092-0.102 0.093-0.101 0.095-0.1 0.096-0.098 0.097-0.098 0.098-0.097 0.099-0.095 0.1-0.094 0.101-0.093 0.102-0.093 0.103-0.09 0.105-0.09 0.105-0.089 0.107-0.087 0.107-0.086 0.108-0.085 0.22-0.166 0.112-0.081 0.112-0.08 0.113-0.078 0.114-0.078 0.115-0.076 0.116-0.075 0.117-0.073 0.118-0.072 0.119-0.071 0.12-0.07 0.12-0.068 0.121-0.067 0.123-0.065 0.123-0.064 0.123-0.063 0.125-0.061 0.125-0.06 0.254-0.116 0.128-0.055 0.128-0.054 0.13-0.053 0.13-0.051 0.13-0.05 0.132-0.048 0.132-0.047 0.133-0.046 0.268-0.086 0.27-0.08 0.137-0.037 0.136-0.036 0.138-0.035 0.138-0.033 0.138-0.031 0.14-0.03 0.139-0.028 0.141-0.026 0.141-0.025 0.141-0.023 0.142-0.022 0.142-0.02 0.143-0.018 0.143-0.016 0.144-0.015 0.144-0.013 0.145-0.011 0.145-0.01 0.146-8e-3 0.145-6e-3 0.147-4e-3 0.146-3e-3 0.141-1e-3h3.39l0.141 1e-3zm-3.519 3.999-0.104 1e-3 -0.099 1e-3 -0.098 3e-3 -0.097 4e-3 -0.098 6e-3 -0.097 6e-3 -0.096 8e-3 -0.097 9e-3 -0.096 9e-3 -0.095 0.011-0.096 0.013-0.094 0.013-0.095 0.014-0.094 0.015-0.094 0.017-0.186 0.036-0.093 0.02-0.092 0.021-0.092 0.022-0.091 0.023-0.091 0.024-0.091 0.025-0.09 0.026-0.089 0.027-0.09 0.028-0.088 0.029-0.089 0.03-0.088 0.031-0.087 0.032-0.174 0.068-0.086 0.035-0.085 0.036-0.085 0.037-0.085 0.038-0.084 0.039-0.083 0.04-0.084 0.04-0.082 0.042-0.082 0.043-0.162 0.088-0.081 0.045-0.158 0.094-0.079 0.048-0.078 0.049-0.078 0.05-0.152 0.102-0.076 0.053-0.075 0.053-0.074 0.054-0.074 0.055-0.073 0.056-0.073 0.057-0.142 0.116-0.071 0.059-0.069 0.06-0.07 0.061-0.068 0.061-0.067 0.062-0.067 0.063-0.132 0.128-0.065 0.066-0.064 0.066-0.063 0.066-0.124 0.136-0.061 0.069-0.06 0.07-0.059 0.07-0.059 0.071-0.058 0.071-0.056 0.073-0.057 0.073-0.055 0.073-0.108 0.15-0.053 0.075-0.052 0.077-0.051 0.077-0.05 0.077-0.049 0.078-0.049 0.079-0.047 0.079-0.047 0.08-0.046 0.081-0.044 0.08-0.044 0.082-0.043 0.082-0.042 0.083-0.041 0.083-0.041 0.084-0.039 0.085-0.038 0.084-0.074 0.172-0.035 0.086-0.034 0.088-0.034 0.087-0.032 0.088-0.032 0.089-0.03 0.089-0.029 0.089-0.029 0.09-0.027 0.091-0.052 0.182-0.024 0.092-0.023 0.092-0.022 0.093-0.021 0.093-0.02 0.094-0.019 0.094-0.018 0.095-0.032 0.19-0.028 0.192-0.012 0.097-0.011 0.097-0.01 0.098-9e-3 0.098-8e-3 0.104-0.149 2.093-4e-3 0.062-4e-3 0.057-4e-3 0.112-1e-3 0.056v0.056 0.057 0.056l2e-3 0.055 2e-3 0.057 2e-3 0.056 4e-3 0.055 3e-3 0.056 5e-3 0.056 5e-3 0.055 6e-3 0.056 6e-3 0.055 7e-3 0.056 7e-3 0.055 9e-3 0.054 8e-3 0.055 0.01 0.056 0.01 0.054 0.01 0.055 0.012 0.054 0.011 0.055 0.039 0.162 0.014 0.053 0.015 0.054 0.016 0.053 0.016 0.054 0.016 0.052 0.017 0.053 0.018 0.053 0.019 0.053 0.018 0.052 0.04 0.104 0.021 0.051 0.021 0.052 0.044 0.102 0.023 0.051 0.048 0.1 0.024 0.051 0.026 0.049 0.025 0.05 0.054 0.098 0.027 0.048 0.028 0.049 0.029 0.048 0.029 0.047 0.03 0.048 0.03 0.047 0.062 0.094 0.032 0.046 0.066 0.092 0.037 0.05 2.324 3.098 0.049 0.065 0.045 0.057 0.046 0.058 0.047 0.056 0.048 0.056 0.098 0.108 0.05 0.054 0.05 0.052 0.051 0.051 0.052 0.051 0.053 0.05 0.053 0.049 0.054 0.049 0.11 0.094 0.112 0.09 0.057 0.044 0.058 0.044 0.058 0.042 0.059 0.042 0.12 0.08 0.06 0.039 0.061 0.038 0.062 0.037 0.124 0.072 0.063 0.034 0.064 0.034 0.128 0.064 0.065 0.031 0.066 0.029 0.065 0.029 0.067 0.028 0.066 0.027 0.067 0.026 0.068 0.025 0.068 0.024 0.136 0.046 0.069 0.021 0.069 0.02 0.07 0.019 0.14 0.036 0.07 0.016 0.071 0.015 0.071 0.014 0.071 0.013 0.144 0.024 0.072 0.01 0.072 9e-3 0.072 8e-3 0.073 7e-3 0.146 0.01 0.073 4e-3 0.074 3e-3 0.073 1e-3 0.081 1e-3h4.986l0.081-1e-3 0.073-1e-3 0.074-3e-3 0.073-4e-3 0.146-0.01 0.073-7e-3 0.072-8e-3 0.072-9e-3 0.072-0.01 0.144-0.024 0.071-0.013 0.071-0.014 0.071-0.015 0.07-0.016 0.14-0.036 0.07-0.019 0.069-0.02 0.069-0.021 0.136-0.046 0.068-0.024 0.068-0.025 0.067-0.026 0.066-0.027 0.066-0.028 0.132-0.058 0.065-0.031 0.128-0.064 0.064-0.034 0.063-0.034 0.124-0.072 0.062-0.037 0.061-0.038 0.06-0.039 0.12-0.08 0.059-0.042 0.058-0.042 0.058-0.044 0.057-0.044 0.056-0.045 0.056-0.046 0.055-0.046 0.055-0.047 0.054-0.049 0.053-0.049 0.053-0.05 0.051-0.05 0.052-0.052 0.051-0.053 0.049-0.053 0.049-0.054 0.049-0.055 0.048-0.055 0.046-0.056 0.047-0.058 0.045-0.057 0.049-0.065 2.324-3.098 0.037-0.05 0.066-0.092 0.032-0.046 0.062-0.094 0.06-0.094 0.058-0.096 0.028-0.049 0.027-0.048 0.054-0.098 0.026-0.05 0.025-0.049 0.024-0.051 0.048-0.1 0.023-0.051 0.044-0.102 0.042-0.104 0.02-0.051 0.02-0.052 0.018-0.052 0.019-0.053 0.018-0.052 0.017-0.054 0.016-0.052 0.016-0.054 0.016-0.053 0.014-0.053 0.015-0.054 0.026-0.108 0.013-0.055 0.011-0.054 0.012-0.054 0.01-0.055 0.01-0.054 0.01-0.055 8e-3 -0.055 9e-3 -0.055 7e-3 -0.056 7e-3 -0.055 6e-3 -0.055 6e-3 -0.056 5e-3 -0.055 5e-3 -0.056 3e-3 -0.056 4e-3 -0.055 6e-3 -0.168v-0.057-0.056-0.056l-1e-3 -0.056-4e-3 -0.112-4e-3 -0.057-4e-3 -0.062-0.149-2.093-8e-3 -0.104-9e-3 -0.098-0.01-0.098-0.011-0.097-0.012-0.097-0.013-0.096-0.015-0.096-0.032-0.19-0.018-0.095-0.019-0.094-0.02-0.094-0.021-0.093-0.022-0.093-0.023-0.092-0.024-0.092-0.025-0.091-0.054-0.182-0.029-0.09-0.029-0.089-0.03-0.089-0.032-0.089-0.032-0.088-0.034-0.088-0.034-0.087-0.035-0.086-0.037-0.086-0.037-0.085-0.038-0.085-0.04-0.085-0.04-0.084-0.041-0.083-0.042-0.083-0.043-0.082-0.044-0.081-0.045-0.082-0.045-0.08-0.047-0.08-0.096-0.158-0.049-0.078-0.05-0.078-0.051-0.076-0.052-0.077-0.053-0.075-0.108-0.15-0.055-0.073-0.057-0.073-0.056-0.073-0.058-0.071-0.059-0.071-0.059-0.07-0.06-0.07-0.061-0.069-0.062-0.068-0.062-0.067-0.063-0.067-0.064-0.066-0.065-0.066-0.132-0.128-0.067-0.063-0.067-0.062-0.069-0.062-0.068-0.06-0.07-0.06-0.142-0.118-0.071-0.057-0.073-0.057-0.073-0.056-0.074-0.055-0.074-0.054-0.075-0.053-0.076-0.053-0.152-0.102-0.078-0.05-0.078-0.049-0.079-0.048-0.158-0.094-0.081-0.045-0.162-0.088-0.082-0.043-0.083-0.042-0.082-0.04-0.084-0.04-0.084-0.039-0.085-0.038-0.085-0.037-0.085-0.036-0.086-0.035-0.087-0.035-0.087-0.033-0.087-0.032-0.088-0.031-0.089-0.03-0.088-0.029-0.09-0.028-0.089-0.027-0.09-0.026-0.091-0.025-0.091-0.024-0.091-0.023-0.092-0.022-0.092-0.021-0.093-0.02-0.186-0.036-0.094-0.017-0.094-0.015-0.095-0.014-0.19-0.026-0.095-0.011-0.096-9e-3 -0.097-9e-3 -0.096-8e-3 -0.097-6e-3 -0.098-6e-3 -0.097-4e-3 -0.098-3e-3 -0.099-1e-3 -0.104-1e-3h-3.366z"/><path d="m19 8.333 3-2.333s0.775-0.71 1.642-1.505c1.331-1.22 3.376-1.211 4.696 0.021 1e-3 0 1e-3 0 1e-3 1e-3 0.698 0.65 1.1 1.556 1.117 2.51 0.016 0.953-0.355 1.872-1.029 2.546l-1.134 1.134c-0.188 0.188-0.293 0.442-0.293 0.707v3.615l-8-6.696z" fill="none" stroke="#000" stroke-width="4px"/><path d="m13 8.333-3-2.333s-0.775-0.71-1.642-1.505c-1.331-1.22-3.376-1.211-4.696 0.021-1e-3 0-1e-3 0-1e-3 1e-3 -0.698 0.65-1.1 1.556-1.117 2.51-0.016 0.953 0.355 1.872 1.029 2.546l1.134 1.134c0.188 0.188 0.293 0.442 0.293 0.707v3.615l8-6.696z" fill="none" stroke="#000" stroke-width="4px"/></g><g id="emoji"><path d="m19 8.333 3-2.333s0.775-0.71 1.642-1.505c1.331-1.22 3.376-1.211 4.696 0.021 1e-3 0 1e-3 0 1e-3 1e-3 0.698 0.65 1.1 1.556 1.117 2.51 0.016 0.953-0.355 1.872-1.029 2.546l-1.134 1.134c-0.188 0.188-0.293 0.442-0.293 0.707v3.615l-8-6.696z" fill="#61492b"/><clipPath id="_clip1"><path d="m19 8.333 3-2.333s0.775-0.71 1.642-1.505c1.331-1.22 3.376-1.211 4.696 0.021 1e-3 0 1e-3 0 1e-3 1e-3 0.698 0.65 1.1 1.556 1.117 2.51 0.016 0.953-0.355 1.872-1.029 2.546l-1.134 1.134c-0.188 0.188-0.293 0.442-0.293 0.707v3.615l-8-6.696z"/></clipPath><g clip-path="url(#_clip1)"><path d="m26 6-0.515 0.515c-0.314 0.314-0.515 0.725-0.57 1.166-0.143 1.142-0.415 3.319-0.415 3.319" fill="none" stroke="#2d2214" stroke-linejoin="miter" stroke-miterlimit="2" stroke-width="2px"/></g><path d="m13 8.333-3-2.333s-0.775-0.71-1.642-1.505c-1.331-1.22-3.376-1.211-4.696 0.021-1e-3 0-1e-3 0-1e-3 1e-3 -0.698 0.65-1.1 1.556-1.117 2.51-0.016 0.953 0.355 1.872 1.029 2.546l1.134 1.134c0.188 0.188 0.293 0.442 0.293 0.707v3.615l8-6.696z" fill="#61492b"/><clipPath id="_clip2"><path d="m13 8.333-3-2.333s-0.775-0.71-1.642-1.505c-1.331-1.22-3.376-1.211-4.696 0.021-1e-3 0-1e-3 0-1e-3 1e-3 -0.698 0.65-1.1 1.556-1.117 2.51-0.016 0.953 0.355 1.872 1.029 2.546l1.134 1.134c0.188 0.188 0.293 0.442 0.293 0.707v3.615l8-6.696z"/></clipPath><g clip-path="url(#_clip2)"><path d="m6 6 0.515 0.515c0.314 0.314 0.515 0.725 0.57 1.166 0.143 1.142 0.415 3.319 0.415 3.319" fill="none" stroke="#2d2214" stroke-linejoin="miter" stroke-miterlimit="2" stroke-width="2px"/></g><path d="m14.311 6c-5.246 0-9.601 4.054-9.974 9.288-0.054 0.755-0.105 1.47-0.151 2.105-0.12 1.681 0.371 3.35 1.382 4.698 0.713 0.95 1.566 2.087 2.332 3.109 1.322 1.763 3.397 2.8 5.6 2.8h5c2.203 0 4.278-1.037 5.6-2.8 0.766-1.022 1.619-2.159 2.332-3.109 1.011-1.348 1.502-3.017 1.382-4.698-0.046-0.635-0.097-1.35-0.151-2.105-0.373-5.234-4.728-9.288-9.974-9.288h-3.378z" fill="#906c40"/><clipPath id="_clip3"><path d="m14.311 6c-5.246 0-9.601 4.054-9.974 9.288-0.054 0.755-0.105 1.47-0.151 2.105-0.12 1.681 0.371 3.35 1.382 4.698 0.713 0.95 1.566 2.087 2.332 3.109 1.322 1.763 3.397 2.8 5.6 2.8h5c2.203 0 4.278-1.037 5.6-2.8 0.766-1.022 1.619-2.159 2.332-3.109 1.011-1.348 1.502-3.017 1.382-4.698-0.046-0.635-0.097-1.35-0.151-2.105-0.373-5.234-4.728-9.288-9.974-9.288h-3.378z"/></clipPath><g clip-path="url(#_clip3)"><path d="m23 28v-5.246c0-1.135-0.386-2.237-1.096-3.124-0.629-0.786-1.41-1.762-2.003-2.504-0.57-0.712-1.432-1.126-2.343-1.126h-3.116c-0.911 0-1.773 0.414-2.343 1.126-0.593 0.742-1.374 1.718-2.003 2.504-0.71 0.887-1.096 1.989-1.096 3.124v5.246h14z" fill="#aa804c"/></g><path d="m17.798 24.34 0.043 0.021 0.039 0.017 0.041 0.017 0.04 0.015 0.041 0.014 0.042 0.013 0.041 0.012 0.043 0.011 0.042 9e-3 0.043 8e-3 0.042 7e-3 0.043 6e-3 0.044 4e-3 0.043 3e-3 0.043 2e-3 0.048 1e-3h1.524l0.039 2e-3 0.039 4e-3 0.039 8e-3 0.038 0.01 0.036 0.014 0.036 0.016 0.034 0.02 0.033 0.021 0.031 0.025 0.029 0.026 0.026 0.029 0.025 0.031 0.021 0.033 0.02 0.034 0.016 0.036 0.014 0.036 0.01 0.038 8e-3 0.039 4e-3 0.039 2e-3 0.039-2e-3 0.039-4e-3 0.039-8e-3 0.039-0.01 0.038-0.014 0.036-0.016 0.036-0.02 0.034-0.021 0.033-0.025 0.031-0.026 0.029-0.029 0.026-0.031 0.025-0.033 0.021-0.034 0.02-0.036 0.016-0.036 0.014-0.038 0.01-0.039 8e-3 -0.039 4e-3 -0.039 2e-3h-1.531l-0.07-1e-3 -0.072-3e-3 -0.072-5e-3 -0.072-8e-3 -0.072-9e-3 -0.072-0.012-0.071-0.013-0.07-0.016-0.07-0.017-0.07-0.02-0.069-0.022-0.068-0.023-0.068-0.026-0.067-0.028-0.066-0.029-0.063-0.03-1.357-0.679-1.357 0.679-0.063 0.03-0.066 0.029-0.067 0.028-0.068 0.026-0.068 0.023-0.069 0.022-0.07 0.02-0.07 0.017-0.07 0.016-0.071 0.013-0.072 0.012-0.072 9e-3 -0.072 8e-3 -0.072 5e-3 -0.072 3e-3 -0.07 1e-3h-1.531l-0.039-2e-3 -0.039-4e-3 -0.039-8e-3 -0.038-0.01-0.036-0.014-0.036-0.016-0.034-0.02-0.033-0.021-0.031-0.025-0.029-0.026-0.026-0.029-0.025-0.031-0.021-0.033-0.02-0.034-0.016-0.036-0.014-0.036-0.01-0.038-8e-3 -0.039-4e-3 -0.039-2e-3 -0.039 2e-3 -0.039 4e-3 -0.039 8e-3 -0.039 0.01-0.038 0.014-0.036 0.016-0.036 0.02-0.034 0.021-0.033 0.025-0.031 0.026-0.029 0.029-0.026 0.031-0.025 0.033-0.021 0.034-0.02 0.036-0.016 0.036-0.014 0.038-0.01 0.039-8e-3 0.039-4e-3 0.039-2e-3h1.524l0.048-1e-3 0.043-2e-3 0.043-3e-3 0.044-4e-3 0.043-6e-3 0.042-7e-3 0.043-8e-3 0.042-9e-3 0.043-0.011 0.041-0.012 0.042-0.013 0.041-0.014 0.04-0.015 0.041-0.017 0.039-0.017 0.043-0.021 1.798-0.899 1.798 0.899z" fill="#47351f"/><path d="m14.934 19c-0.513 0-1.005 0.204-1.368 0.566-0.362 0.363-0.566 0.855-0.566 1.368v1e-3c0 0.043 0.01 0.085 0.029 0.123 0.101 0.202 0.445 0.889 0.695 1.389 0.169 0.339 0.515 0.553 0.894 0.553h2.764c0.379 0 0.725-0.214 0.894-0.553 0.25-0.5 0.594-1.187 0.695-1.389 0.019-0.038 0.029-0.08 0.029-0.123v-1e-3c0-0.513-0.204-1.005-0.566-1.368-0.363-0.362-0.855-0.566-1.368-0.566h-2.132z"/><path d="m13 15.235c0-0.682-0.553-1.235-1.235-1.235h-1.147c-0.379 0-0.725 0.214-0.894 0.552l-0.277 0.554c-0.247 0.494-0.047 1.094 0.447 1.341 0.228 0.114 0.464 0.232 0.659 0.33 0.281 0.14 0.613 0.14 0.894 0 0.256-0.128 0.583-0.292 0.87-0.436 0.419-0.209 0.683-0.636 0.683-1.104v-2e-3z"/><path d="m19 15.235c0-0.682 0.553-1.235 1.235-1.235h1.147c0.379 0 0.725 0.214 0.894 0.552l0.277 0.554c0.247 0.494 0.047 1.094-0.447 1.341-0.228 0.114-0.464 0.232-0.659 0.33-0.281 0.14-0.613 0.14-0.894 0-0.256-0.128-0.583-0.292-0.87-0.436-0.419-0.209-0.683-0.636-0.683-1.104v-2e-3z"/></g></svg>
