<?xml version="1.0" encoding="UTF-8"?>
<!DOCTYPE svg  PUBLIC '-//W3C//DTD SVG 1.1//EN'  'http://www.w3.org/Graphics/SVG/1.1/DTD/svg11.dtd'>
<svg clip-rule="evenodd" fill-rule="evenodd" stroke-linecap="round" stroke-linejoin="round" stroke-miterlimit="1.5" version="1.1" viewBox="0 0 32 32" xml:space="preserve" xmlns="http://www.w3.org/2000/svg">
<metadata>
<rdf:RDF xmlns:cc="http://web.resource.org/cc/" xmlns:dc="http://purl.org/dc/elements/1.1/" xmlns:rdf="http://www.w3.org/1999/02/22-rdf-syntax-ns#">

     <rdf:Description rdf:about="">
       <dc:title>Mutant Standard emoji 2023.12</dc:title>
     </rdf:Description>

    <cc:work rdf:about="">
        <cc:license rdf:resource="http://creativecommons.org/licenses/by-nc-sa/4.0/"/>
        <cc:attributionName>Caius Nocturne</cc:attributionName>
        <cc:attributionURL>http://mutant.tech/</cc:attributionURL>
    </cc:work>

</rdf:RDF>
</metadata>
<rect id="boar" width="32" height="32" fill="none"/><clipPath id="_clip1"><rect width="32" height="32"/></clipPath><g clip-path="url(#_clip1)"><g id="outline"><path d="m21.386 6.614 3.907-3.907c0.39-0.39 1.024-0.39 1.414 0l1 1c0.188 0.188 0.293 0.442 0.293 0.707v2.114c0 0.31 0.072 0.617 0.211 0.894l0.578 1.156c0.139 0.277 0.211 0.584 0.211 0.894v0.528c0 2.761-2.239 5-5 5v0.056c0 0.621 0.145 1.233 0.422 1.789 0.36 0.718 0.894 1.786 1.383 2.764 0.762 1.525 0.855 3.298 0.256 4.894v1e-3c-1.24 3.306-4.4 5.496-7.931 5.496h-4.26c-3.531 0-6.691-2.19-7.931-5.496v-1e-3c-0.599-1.596-0.506-3.369 0.256-4.894 0.489-0.978 1.023-2.046 1.383-2.764 0.277-0.556 0.422-1.168 0.422-1.789v-0.056c-2.761 0-5-2.239-5-5v-0.528c0-0.31 0.072-0.617 0.211-0.894l0.578-1.156c0.139-0.277 0.211-0.584 0.211-0.894v-2.114c0-0.265 0.105-0.519 0.293-0.707l1-1c0.39-0.39 1.024-0.39 1.414 0l3.907 3.907c1.093-1.02 2.548-1.614 4.094-1.614h2.584c1.546 0 3.001 0.594 4.094 1.614z" fill="none" stroke="#000" stroke-width="4px"/></g><g id="emoji"><path d="m20 8 5.293-5.293c0.39-0.39 1.024-0.39 1.414 0l1 1c0.188 0.188 0.293 0.442 0.293 0.707v2.114c0 0.31 0.072 0.617 0.211 0.894l0.578 1.156c0.139 0.277 0.211 0.584 0.211 0.894v0.528c0 2.761-2.239 5-5 5h-4v-7" fill="#3d3531"/><path d="m12 8-5.293-5.293c-0.39-0.39-1.024-0.39-1.414 0l-1 1c-0.188 0.188-0.293 0.442-0.293 0.707v2.114c0 0.31-0.072 0.617-0.211 0.894l-0.578 1.156c-0.139 0.277-0.211 0.584-0.211 0.894v0.528c0 2.761 2.239 5 5 5h4v-7" fill="#3d3531"/><path d="m21 9.539c0-0.969 0.456-1.881 1.231-2.462 0.6-0.45 1.31-0.982 1.86-1.395 0.522-0.391 1.251-0.34 1.712 0.121l1e-3 1e-3c0.125 0.125 0.196 0.296 0.196 0.474v1.722l0.24 0.24c0.487 0.487 0.76 1.146 0.76 1.834v1.333c0 0.687-0.273 1.347-0.76 1.833-0.486 0.487-1.146 0.76-1.833 0.76h-3.407v-4.461z" fill="#2b2522"/><path d="m11 9.539c0-0.969-0.456-1.881-1.231-2.462-0.6-0.45-1.31-0.982-1.86-1.395-0.522-0.391-1.251-0.34-1.712 0.121l-1e-3 1e-3c-0.125 0.125-0.196 0.296-0.196 0.474v1.722l-0.24 0.24c-0.487 0.487-0.76 1.146-0.76 1.834v1.333c0 0.687 0.273 1.347 0.76 1.833 0.486 0.487 1.146 0.76 1.833 0.76h3.407v-4.461z" fill="#2b2522"/><path d="m9.342 8.317c1.016-2.033 3.094-3.317 5.366-3.317h2.584c2.272 0 4.35 1.284 5.366 3.317 0.211 0.421 0.418 0.834 0.603 1.205 0.486 0.972 0.739 2.044 0.739 3.13v2.404c0 0.621 0.145 1.233 0.422 1.789 0.36 0.718 0.894 1.786 1.383 2.764 0.762 1.525 0.855 3.298 0.256 4.894v1e-3c-1.24 3.306-4.4 5.496-7.931 5.496h-4.26c-3.531 0-6.691-2.19-7.931-5.496v-1e-3c-0.599-1.596-0.506-3.369 0.256-4.894 0.489-0.978 1.023-2.046 1.383-2.764 0.277-0.556 0.422-1.168 0.422-1.789v-2.404c0-1.086 0.253-2.158 0.739-3.13 0.185-0.371 0.392-0.784 0.603-1.205z" fill="#72635c"/><path d="m13 27s0.609 0.305 1.155 0.578c0.556 0.277 1.168 0.422 1.789 0.422h0.112c0.621 0 1.233-0.145 1.789-0.422 0.546-0.273 1.155-0.578 1.155-0.578v-1h-6v1z" fill="#554a45"/><path d="m11 24-3-4v1.817c0 1.398 0.555 2.738 1.543 3.726l1.457 1.457v-3z" fill="#fff"/><path d="m21 24 3-4v1.817c0 1.398-0.555 2.738-1.543 3.726l-1.457 1.457v-3z" fill="#fff"/><path d="m12.519 21.321c0.315-0.211 0.57-0.499 0.739-0.838h1e-3c0.454-0.909 1.383-1.483 2.399-1.483h0.684c1.016 0 1.945 0.574 2.399 1.483h1e-3c0.169 0.339 0.424 0.627 0.739 0.838 0.378 0.252 0.921 0.614 1.406 0.937 0.695 0.464 1.113 1.244 1.113 2.08v0.711c0 0.735-0.323 1.432-0.884 1.907s-1.302 0.68-2.027 0.559c-0.758-0.126-1.523-0.254-2.103-0.351-0.653-0.108-1.319-0.108-1.972 0-0.58 0.097-1.345 0.225-2.103 0.351-0.725 0.121-1.466-0.084-2.027-0.559s-0.884-1.172-0.884-1.907v-0.711c0-0.836 0.418-1.616 1.113-2.08 0.485-0.323 1.028-0.685 1.406-0.937z" fill="#3e3632"/><path d="m20 24.5c0-0.398-0.158-0.779-0.439-1.061-0.282-0.281-0.663-0.439-1.061-0.439h-0.513c-0.262 0-0.513 0.104-0.698 0.289s-0.289 0.436-0.289 0.698v1e-3c0 0.604 0.387 1.141 0.96 1.332 0.29 0.097 0.611 0.204 0.911 0.304 0.261 0.087 0.549 0.043 0.773-0.118 0.223-0.162 0.356-0.421 0.356-0.696v-0.31z"/><path d="m12 24.5c0-0.398 0.158-0.779 0.439-1.061 0.282-0.281 0.663-0.439 1.061-0.439h0.487c0.269 0 0.526 0.107 0.716 0.297s0.297 0.447 0.297 0.716v1e-3c0 0.589-0.377 1.112-0.935 1.298-0.297 0.099-0.627 0.209-0.936 0.312-0.261 0.087-0.549 0.043-0.773-0.118-0.223-0.162-0.356-0.421-0.356-0.696v-0.31z"/><path d="m22.5 15.25c0-0.332-0.132-0.649-0.366-0.884-0.235-0.234-0.552-0.366-0.884-0.366s-0.649 0.132-0.884 0.366c-0.234 0.235-0.366 0.552-0.366 0.884v2.25h0.75c0.464 0 0.909-0.184 1.237-0.513 0.329-0.328 0.513-0.773 0.513-1.237v-0.5z"/><path d="m12 15.25c0-0.332-0.132-0.649-0.366-0.884-0.235-0.234-0.552-0.366-0.884-0.366s-0.649 0.132-0.884 0.366c-0.234 0.235-0.366 0.552-0.366 0.884v0.5c0 0.464 0.184 0.909 0.513 1.237 0.328 0.329 0.773 0.513 1.237 0.513h0.75v-2.25z"/></g></g></svg>
