<?xml version="1.0" encoding="UTF-8"?>
<!DOCTYPE svg  PUBLIC '-//W3C//DTD SVG 1.1//EN'  'http://www.w3.org/Graphics/SVG/1.1/DTD/svg11.dtd'>
<svg clip-rule="evenodd" fill-rule="evenodd" stroke-linecap="round" version="1.1" viewBox="0 0 32 32" xml:space="preserve" xmlns="http://www.w3.org/2000/svg">
<metadata>
<rdf:RDF xmlns:cc="http://web.resource.org/cc/" xmlns:dc="http://purl.org/dc/elements/1.1/" xmlns:rdf="http://www.w3.org/1999/02/22-rdf-syntax-ns#">

     <rdf:Description rdf:about="">
       <dc:title>Mutant Standard emoji 2023.12</dc:title>
     </rdf:Description>

    <cc:work rdf:about="">
        <cc:license rdf:resource="http://creativecommons.org/licenses/by-nc-sa/4.0/"/>
        <cc:attributionName>Caius Nocturne</cc:attributionName>
        <cc:attributionURL>http://mutant.tech/</cc:attributionURL>
    </cc:work>

</rdf:RDF>
</metadata>
<rect id="deer_with_antlers" width="32" height="32" fill="none"/><clipPath id="_clip1"><rect width="32" height="32"/></clipPath><g clip-path="url(#_clip1)"><g id="outline"><path d="m12.985 13c-1.782 0-3.365 1.141-3.929 2.832 0 1e-3 0 1e-3 -1e-3 2e-3 -0.679 2.039-0.587 4.258 0.26 6.234 0.63 1.47 1.305 3.045 1.569 3.662 0.077 0.178 0.116 0.37 0.116 0.564v2e-3c0 2.046 1.658 3.704 3.704 3.704h2.592c2.046 0 3.704-1.658 3.704-3.704v-2e-3c0-0.194 0.039-0.386 0.116-0.564 0.264-0.617 0.939-2.192 1.569-3.662 0.847-1.976 0.939-4.195 0.26-6.234-1e-3 -1e-3 -1e-3 -1e-3 -1e-3 -2e-3 -0.564-1.691-2.147-2.832-3.929-2.832h-6.03z"/><path d="m19.138 11.001 0.123 4e-3 0.123 6e-3 0.122 8e-3 0.121 0.011 0.122 0.014 0.12 0.015 0.12 0.018 0.119 0.021 0.119 0.022 0.118 0.025 0.117 0.028 0.117 0.029 0.115 0.032 0.115 0.034 0.114 0.036 0.113 0.038 0.112 0.04 0.111 0.043 0.111 0.044 0.109 0.047 0.108 0.048 0.107 0.051 0.106 0.053 0.105 0.054 0.104 0.057 0.102 0.059 0.102 0.06 0.1 0.063 0.099 0.064 0.098 0.066 0.096 0.068 0.095 0.07 0.094 0.072 0.092 0.073 0.091 0.076 0.089 0.077 0.088 0.079 0.087 0.08 0.085 0.082 0.084 0.084 0.082 0.086 0.08 0.087 0.079 0.089 0.077 0.09 0.075 0.092 0.074 0.094 0.072 0.095 0.07 0.097 0.068 0.098 0.067 0.1 0.065 0.101 0.063 0.103 0.061 0.104 0.059 0.105 0.057 0.107 0.055 0.108 0.053 0.109 0.051 0.111 0.049 0.112 0.046 0.113 0.045 0.114 0.042 0.116 0.038 0.108 5e-3 0.017 0.036 0.111 0.038 0.118 0.035 0.118 0.034 0.118 0.033 0.119 0.032 0.119 0.03 0.119 0.029 0.119 0.027 0.12 0.026 0.12 0.025 0.121 0.023 0.12 0.022 0.12 0.02 0.121 0.019 0.121 0.018 0.121 0.016 0.121 0.015 0.121 0.026 0.242 0.02 0.244 8e-3 0.121 0.012 0.244 3e-3 0.121 3e-3 0.122 1e-3 0.122v0.121l-2e-3 0.122-3e-3 0.122-4e-3 0.122-6e-3 0.121-7e-3 0.122-9e-3 0.121-9e-3 0.122-0.024 0.242-0.014 0.121-0.016 0.121-0.016 0.12-0.018 0.121-0.02 0.12-0.021 0.12-0.022 0.12-0.023 0.12-0.025 0.12-0.054 0.238-0.029 0.119-0.031 0.118-0.031 0.119-0.033 0.118-0.035 0.117-0.036 0.118-0.037 0.117-0.038 0.116-0.04 0.117-0.042 0.116-0.042 0.115-0.044 0.115-0.046 0.115-0.046 0.114-0.046 0.109-1.527 3.564-1e-3 0.028-5e-3 0.146-9e-3 0.145-0.013 0.144-0.017 0.143-0.019 0.142-0.024 0.142-0.027 0.139-0.03 0.139-0.034 0.138-0.036 0.136-0.041 0.136-0.043 0.133-0.047 0.132-0.049 0.131-0.053 0.129-0.056 0.127-0.058 0.126-0.062 0.124-0.064 0.122-0.068 0.121-0.07 0.118-0.073 0.117-0.075 0.115-0.078 0.112-0.081 0.111-0.083 0.109-0.086 0.106-0.088 0.105-0.091 0.102-0.093 0.1-0.096 0.097-0.097 0.096-0.1 0.093-0.102 0.09-0.105 0.089-0.106 0.086-0.109 0.083-0.111 0.081-0.112 0.078-0.115 0.075-0.117 0.073-0.118 0.07-0.121 0.067-0.122 0.065-0.124 0.062-0.126 0.058-0.127 0.056-0.129 0.053-0.131 0.049-0.132 0.047-0.133 0.043-0.136 0.041-0.136 0.036-0.138 0.034-0.139 0.03-0.14 0.027-0.141 0.024-0.142 0.019-0.143 0.017-0.144 0.013-0.145 9e-3 -0.146 5e-3 -0.133 2e-3h-2.618l-0.133-2e-3 -0.146-5e-3 -0.145-9e-3 -0.144-0.013-0.143-0.017-0.142-0.019-0.141-0.024-0.14-0.027-0.139-0.03-0.138-0.034-0.136-0.036-0.135-0.041-0.134-0.043-0.132-0.047-0.131-0.049-0.129-0.053-0.127-0.056-0.126-0.058-0.124-0.062-0.122-0.065-0.121-0.067-0.118-0.07-0.117-0.073-0.115-0.075-0.112-0.078-0.111-0.081-0.109-0.083-0.106-0.086-0.105-0.088-0.102-0.091-0.1-0.093-0.097-0.096-0.096-0.097-0.093-0.1-0.091-0.102-0.088-0.105-0.086-0.106-0.083-0.109-0.081-0.111-0.078-0.112-0.075-0.115-0.073-0.117-0.07-0.118-0.067-0.121-0.065-0.122-0.062-0.124-0.058-0.126-0.056-0.127-0.053-0.129-0.05-0.131-0.046-0.132-0.043-0.133-0.041-0.136-0.036-0.136-0.034-0.138-0.03-0.139-0.027-0.14-0.024-0.141-0.019-0.142-0.017-0.143-0.013-0.144-9e-3 -0.145-5e-3 -0.146-1e-3 -0.028-1.527-3.564-0.046-0.108-0.092-0.23-0.044-0.115-0.042-0.115-0.042-0.116-0.04-0.117-0.038-0.116-0.037-0.117-0.036-0.117-0.035-0.119-0.033-0.117-0.031-0.118-0.031-0.119-0.029-0.119-0.054-0.238-0.025-0.12-0.023-0.12-0.022-0.12-0.021-0.12-0.02-0.12-0.018-0.121-0.016-0.121-0.016-0.12-0.014-0.121-0.024-0.242-9e-3 -0.122-9e-3 -0.121-7e-3 -0.122-6e-3 -0.121-4e-3 -0.122-3e-3 -0.122-2e-3 -0.121v-0.122l1e-3 -0.122 3e-3 -0.121 3e-3 -0.122 0.012-0.244 8e-3 -0.122 0.02-0.242 0.013-0.122 0.013-0.121 0.015-0.121 0.016-0.121 0.018-0.121 0.019-0.121 0.02-0.121 0.022-0.12 0.023-0.121 0.025-0.12 0.026-0.12 0.027-0.119 0.029-0.12 0.03-0.119 0.032-0.119 0.033-0.119 0.034-0.118 0.035-0.118 0.038-0.118 0.04-0.124 6e-3 -0.017 0.033-0.095 0.042-0.116 0.045-0.114 0.046-0.113 0.049-0.112 0.051-0.111 0.053-0.109 0.055-0.108 0.057-0.107 0.059-0.105 0.061-0.104 0.063-0.103 0.065-0.101 0.066-0.1 0.069-0.098 0.07-0.097 0.072-0.095 0.074-0.094 0.075-0.092 0.077-0.09 0.079-0.089 0.08-0.087 0.082-0.086 0.084-0.084 0.085-0.082 0.087-0.08 0.087-0.079 0.09-0.077 0.091-0.076 0.092-0.073 0.094-0.072 0.095-0.07 0.097-0.068 0.097-0.066 0.099-0.064 0.1-0.063 0.102-0.06 0.102-0.059 0.104-0.057 0.105-0.054 0.106-0.053 0.107-0.051 0.108-0.048 0.109-0.047 0.111-0.044 0.111-0.043 0.112-0.04 0.113-0.038 0.114-0.036 0.115-0.034 0.115-0.032 0.117-0.029 0.117-0.028 0.118-0.025 0.119-0.022 0.119-0.021 0.12-0.018 0.12-0.015 0.122-0.014 0.121-0.011 0.122-8e-3 0.123-6e-3 0.123-4e-3 0.113-1e-3h6.05l0.113 1e-3zm-6.143 3.999-0.053 1e-3 -0.043 1e-3 -0.043 2e-3 -0.043 3e-3 -0.042 4e-3 -0.043 4e-3 -0.042 6e-3 -0.041 6e-3 -0.042 7e-3 -0.041 8e-3 -0.082 0.018-0.04 0.01-0.04 0.011-0.04 0.012-0.04 0.013-0.039 0.013-0.039 0.014-0.039 0.015-0.038 0.015-0.076 0.034-0.037 0.017-0.074 0.038-0.036 0.019-0.072 0.042-0.034 0.022-0.035 0.022-0.034 0.024-0.034 0.023-0.066 0.05-0.064 0.052-0.062 0.054-0.031 0.029-0.029 0.028-0.029 0.029-0.029 0.03-0.028 0.031-0.054 0.062-0.026 0.032-0.026 0.033-0.025 0.033-0.048 0.068-0.023 0.034-0.023 0.036-0.022 0.035-0.021 0.036-0.04 0.074-0.038 0.076-0.018 0.038-0.017 0.039-0.032 0.08-0.014 0.041-0.022 0.062 5e-3 -0.013-0.022 0.067-0.024 0.074-0.022 0.075-0.022 0.074-0.04 0.15-0.019 0.075-0.018 0.075-0.017 0.075-0.017 0.076-0.015 0.075-0.015 0.076-0.013 0.075-0.013 0.076-0.012 0.076-0.022 0.152-9e-3 0.076-8e-3 0.077-8e-3 0.076-7e-3 0.077-6e-3 0.076-5e-3 0.077-4e-3 0.076-3e-3 0.077-3e-3 0.076-1e-3 0.077-1e-3 0.076v0.077l1e-3 0.077 2e-3 0.076 3e-3 0.076 3e-3 0.077 5e-3 0.076 5e-3 0.077 6e-3 0.076 7e-3 0.076 8e-3 0.076 9e-3 0.076 0.01 0.077 0.01 0.075 0.024 0.152 0.013 0.076 0.014 0.075 0.03 0.15 0.034 0.15 0.019 0.075 0.019 0.074 0.02 0.075 0.042 0.148 0.023 0.074 0.023 0.073 0.024 0.074 0.025 0.073 0.026 0.073 0.027 0.072 0.028 0.073 0.028 0.072 0.03 0.072 0.032 0.077 1.572 3.669 0.029 0.068 0.031 0.082 0.029 0.082 0.027 0.082 0.025 0.083 0.023 0.084 0.021 0.084 0.018 0.085 0.016 0.085 0.015 0.086 0.012 0.086 0.01 0.086 7e-3 0.086 6e-3 0.087 3e-3 0.086 1e-3 0.075 1e-3 0.06 1e-3 0.044 3e-3 0.044 4e-3 0.044 5e-3 0.043 6e-3 0.042 7e-3 0.042 8e-3 0.041 9e-3 0.042 0.01 0.04 0.011 0.041 0.011 0.039 0.013 0.04 0.014 0.039 0.015 0.038 0.015 0.039 0.017 0.037 0.017 0.038 0.018 0.037 0.04 0.072 0.042 0.07 0.046 0.068 0.05 0.066 0.025 0.032 0.054 0.062 0.028 0.03 0.029 0.03 0.03 0.029 0.03 0.028 0.062 0.054 0.032 0.025 0.066 0.05 0.068 0.046 0.07 0.042 0.036 0.02 0.037 0.02 0.036 0.018 0.038 0.017 0.037 0.017 0.038 0.015 0.039 0.015 0.039 0.014 0.04 0.013 0.039 0.011 0.041 0.011 0.04 0.01 0.041 9e-3 0.042 8e-3 0.042 7e-3 0.042 6e-3 0.043 5e-3 0.044 4e-3 0.044 3e-3 0.044 1e-3 0.058 1e-3h2.566l0.058-1e-3 0.044-1e-3 0.044-3e-3 0.044-4e-3 0.043-5e-3 0.042-6e-3 0.042-7e-3 0.042-8e-3 0.041-9e-3 0.04-0.01 0.041-0.011 0.039-0.011 0.04-0.013 0.039-0.014 0.038-0.015 0.039-0.015 0.037-0.017 0.038-0.017 0.036-0.018 0.037-0.02 0.036-0.02 0.07-0.042 0.068-0.046 0.066-0.05 0.032-0.025 0.062-0.054 0.03-0.028 0.03-0.029 0.029-0.03 0.028-0.03 0.027-0.031 0.026-0.031 0.026-0.032 0.05-0.066 0.046-0.068 0.042-0.07 0.02-0.036 0.02-0.037 0.018-0.036 0.017-0.038 0.017-0.037 0.015-0.039 0.015-0.038 0.014-0.039 0.013-0.04 0.011-0.039 0.011-0.041 0.01-0.04 9e-3 -0.041 8e-3 -0.042 7e-3 -0.042 6e-3 -0.042 5e-3 -0.043 4e-3 -0.044 3e-3 -0.044 1e-3 -0.044 1e-3 -0.058v-2e-3l1e-3 -0.075 3e-3 -0.086 6e-3 -0.087 7e-3 -0.086 0.01-0.086 0.012-0.087 0.015-0.085 0.016-0.085 0.018-0.085 0.021-0.084 0.023-0.084 0.025-0.083 0.027-0.083 0.029-0.082 0.031-0.081 0.029-0.068 1.572-3.669 0.032-0.077 0.03-0.072 0.056-0.144 0.027-0.073 0.026-0.073 0.025-0.073 0.024-0.074 0.023-0.073 0.023-0.074 0.022-0.074 0.04-0.148 0.038-0.15 0.034-0.15 0.03-0.15 0.014-0.075 0.013-0.076 0.024-0.152 0.02-0.152 9e-3 -0.075 7e-3 -0.077 8e-3 -0.076 6e-3 -0.076 5e-3 -0.077 5e-3 -0.076 3e-3 -0.077 3e-3 -0.076 2e-3 -0.077 1e-3 -0.076v-0.077l-1e-3 -0.076-1e-3 -0.077-3e-3 -0.076-3e-3 -0.077-4e-3 -0.076-5e-3 -0.077-6e-3 -0.077-7e-3 -0.076-8e-3 -0.076-8e-3 -0.077-9e-3 -0.076-0.022-0.152-0.012-0.076-0.013-0.076-0.013-0.075-0.03-0.152-0.034-0.15-0.018-0.075-0.019-0.075-0.04-0.15-0.022-0.074-0.022-0.075-0.024-0.074-0.023-0.071-0.015-0.045-0.015-0.041-0.032-0.08-0.017-0.039-0.018-0.038-0.038-0.076-0.04-0.074-0.021-0.036-0.022-0.036-0.023-0.035-0.023-0.034-0.024-0.035-0.024-0.033-0.025-0.033-0.026-0.033-0.026-0.032-0.054-0.062-0.028-0.031-0.029-0.03-0.029-0.029-0.03-0.029-0.03-0.028-0.062-0.054-0.064-0.052-0.066-0.05-0.034-0.023-0.034-0.024-0.034-0.022-0.035-0.022-0.072-0.042-0.036-0.019-0.074-0.038-0.037-0.017-0.076-0.034-0.038-0.015-0.039-0.015-0.039-0.014-0.039-0.013-0.04-0.013-0.04-0.012-0.04-0.011-0.04-0.01-0.082-0.018-0.041-8e-3 -0.042-7e-3 -0.041-6e-3 -0.042-6e-3 -0.043-4e-3 -0.042-4e-3 -0.043-3e-3 -0.043-2e-3 -0.043-1e-3 -0.053-1e-3h-6.01z"/><path d="m17 13 2.413-2.413c1.016-1.016 1.587-2.394 1.587-3.831v-0.756l2-2v3.927c0 1.968-0.782 3.855-2.173 5.246l-2.827 2.827-1-3z" fill="none" stroke="#000" stroke-width="4px"/><path d="m15 13-2.413-2.413c-1.016-1.016-1.587-2.394-1.587-3.831v-0.756l-2-2v3.927c0 1.968 0.782 3.855 2.173 5.246l2.827 2.827 1-3z" fill="none" stroke="#000" stroke-width="4px"/><path d="m18 12h4l4-7 3-3v2.009c0 2.65-1.053 5.191-2.926 7.065-1.874 1.873-4.415 2.926-7.065 2.926h-1.009v-2z" fill="none" stroke="#000" stroke-width="4px"/><path d="m14 12h-4l-4-7-3-3v2.009c0 2.65 1.053 5.191 2.926 7.065 1.874 1.873 4.415 2.926 7.065 2.926h1.009v-2z" fill="none" stroke="#000" stroke-width="4px"/><rect x="15" y="10" width="2" height="2"/></g><g id="emoji"><path d="m20 18s0.325-0.488 0.713-1.07c0.828-1.242 2.089-2.131 3.537-2.493 2.367-0.591 5.75-1.437 5.75-1.437s-0.701 2.802-1.272 5.09c-0.428 1.71-1.965 2.91-3.728 2.91l-3 2" fill="#dcc9a6"/><clipPath id="_clip2"><path d="m20 18s0.325-0.488 0.713-1.07c0.828-1.242 2.089-2.131 3.537-2.493 2.367-0.591 5.75-1.437 5.75-1.437s-0.701 2.802-1.272 5.09c-0.428 1.71-1.965 2.91-3.728 2.91l-3 2"/></clipPath><g clip-path="url(#_clip2)"><path d="m32.498 11.255-1.833 7.33-0.029 0.111-0.034 0.12-0.036 0.119-0.039 0.117-0.041 0.117-0.044 0.115-0.046 0.114-0.048 0.113-0.05 0.111-0.053 0.111-0.055 0.108-0.057 0.108-0.059 0.106-0.061 0.104-0.063 0.103-0.065 0.102-0.067 0.1-0.07 0.098-0.071 0.097-0.072 0.095-0.075 0.094-0.077 0.092-0.078 0.09-0.08 0.088-0.082 0.087-0.083 0.085-0.085 0.084-0.087 0.081-0.088 0.08-0.09 0.078-0.092 0.076-0.093 0.074-0.094 0.072-0.096 0.07-0.097 0.069-0.099 0.066-0.1 0.064-0.102 0.063-0.102 0.06-0.104 0.058-0.106 0.056-0.106 0.054-0.108 0.052-0.109 0.05-0.11 0.048-0.111 0.045-0.112 0.043-0.113 0.041-0.115 0.039-0.115 0.036-0.116 0.034-0.117 0.031-0.118 0.03-0.119 0.026-0.12 0.025-0.12 0.022-0.121 0.019-0.122 0.017-0.081 9e-3 -4.217 2.812-2.219-3.329 5.168-3.445h0.596l0.05-1e-3 0.04-1e-3 0.039-2e-3 0.039-3e-3 0.078-8e-3 0.038-5e-3 0.038-6e-3 0.038-7e-3 0.038-8e-3 0.037-8e-3 0.037-9e-3 0.036-0.01 0.037-0.011 0.036-0.011 0.036-0.013 0.036-0.012 0.07-0.028 0.034-0.015 0.035-0.016 0.034-0.016 0.033-0.017 0.066-0.036 0.033-0.019 0.032-0.02 0.031-0.02 0.032-0.021 0.031-0.022 0.03-0.022 0.03-0.023 0.087-0.072 0.028-0.026 0.027-0.025 0.027-0.027 0.052-0.054 0.025-0.028 0.025-0.029 0.024-0.028 0.024-0.03 0.023-0.03 0.022-0.03 0.022-0.031 0.021-0.032 0.02-0.031 0.02-0.033 0.019-0.032 0.019-0.034 0.017-0.033 0.018-0.035 0.016-0.034 0.016-0.035 0.015-0.036 0.015-0.035 0.013-0.037 0.013-0.036 0.013-0.038 0.011-0.037 0.011-0.038 0.013-0.049 0.461-1.846-2.51 0.627-0.051 0.013-0.045 0.012-0.044 0.013-0.045 0.013-0.044 0.014-0.045 0.014-0.044 0.014-0.043 0.015-0.044 0.016-0.043 0.016-0.129 0.051-0.042 0.018-0.043 0.019-0.041 0.019-0.042 0.019-0.042 0.02-0.041 0.02-0.041 0.021-0.041 0.022-0.04 0.021-0.04 0.023-0.04 0.022-0.04 0.023-0.117 0.072-0.039 0.025-0.038 0.026-0.038 0.025-0.038 0.027-0.037 0.026-0.037 0.027-0.037 0.028-0.072 0.056-0.036 0.029-0.035 0.029-0.036 0.03-0.034 0.03-0.035 0.03-0.068 0.062-0.033 0.031-0.033 0.033-0.033 0.032-0.032 0.032-0.032 0.034-0.032 0.033-0.062 0.068-0.06 0.07-0.03 0.036-0.029 0.035-0.029 0.036-0.029 0.037-0.056 0.074-0.081 0.114-0.029 0.043-1.819 2.729-3.328-2.218 1.825-2.739 0.049-0.073 0.053-0.076 0.054-0.076 0.11-0.15 0.114-0.146 0.058-0.073 0.058-0.071 0.06-0.071 0.06-0.07 0.061-0.07 0.124-0.136 0.063-0.067 0.064-0.066 0.065-0.066 0.066-0.065 0.065-0.064 0.067-0.063 0.136-0.124 0.069-0.061 0.14-0.118 0.071-0.059 0.071-0.057 0.072-0.057 0.073-0.056 0.074-0.055 0.073-0.054 0.075-0.053 0.075-0.052 0.076-0.052 0.077-0.051 0.154-0.098 0.079-0.048 0.078-0.048 0.08-0.046 0.16-0.09 0.162-0.086 0.082-0.041 0.083-0.041 0.083-0.04 0.083-0.039 0.084-0.038 0.084-0.037 0.085-0.036 0.086-0.035 0.086-0.034 0.086-0.033 0.087-0.032 0.174-0.062 0.088-0.029 0.089-0.028 0.088-0.027 0.089-0.026 0.09-0.026 0.09-0.024 0.085-0.021 7.985-1.997 0.753 0.753z" fill="#bb9753"/></g><path d="m31.249 12.128-1.553 6.209-0.024 0.096-0.029 0.099-0.03 0.099-0.032 0.097-0.034 0.097-0.037 0.095-0.038 0.095-0.04 0.093-0.041 0.093-0.044 0.091-0.045 0.09-0.047 0.089-0.049 0.088-0.051 0.086-0.052 0.086-0.054 0.084-0.056 0.083-0.057 0.081-0.059 0.081-0.06 0.078-0.062 0.078-0.064 0.076-0.065 0.075-0.066 0.073-0.068 0.072-0.069 0.071-0.07 0.069-0.072 0.067-0.073 0.066-0.075 0.065-0.076 0.063-0.077 0.062-0.078 0.059-0.08 0.059-0.08 0.056-0.082 0.055-0.083 0.054-0.084 0.051-0.086 0.05-0.086 0.049-0.087 0.046-0.088 0.045-0.09 0.043-0.09 0.041-0.091 0.04-0.092 0.037-0.093 0.036-0.094 0.034-0.095 0.032-0.095 0.03-0.096 0.028-0.097 0.026-0.098 0.024-0.099 0.023-0.099 0.02-0.1 0.018-0.1 0.016-0.101 0.014-0.101 0.012-0.102 0.01-0.095 7e-3 -3.595 2.397-1.11-1.664 4.084-2.723h0.298l0.066-1e-3 0.061-2e-3 0.061-3e-3 0.06-4e-3 0.06-6e-3 0.06-7e-3 0.059-8e-3 0.059-0.01 0.058-0.01 0.058-0.012 0.058-0.013 0.057-0.014 0.057-0.016 0.056-0.016 0.112-0.036 0.055-0.02 0.054-0.021 0.054-0.022 0.054-0.023 0.052-0.024 0.053-0.026 0.052-0.026 0.051-0.027 0.051-0.029 0.05-0.029 0.098-0.062 0.048-0.032 0.048-0.034 0.046-0.034 0.046-0.035 0.046-0.036 0.044-0.037 0.044-0.038 0.043-0.039 0.084-0.08 0.08-0.084 0.039-0.043 0.038-0.044 0.074-0.09 0.035-0.046 0.035-0.047 0.033-0.048 0.033-0.049 0.031-0.049 0.031-0.05 0.03-0.051 0.028-0.051 0.028-0.052 0.052-0.106 0.024-0.055 0.024-0.054 0.022-0.056 0.021-0.056 0.02-0.057 0.019-0.057 0.018-0.058 0.017-0.058 0.017-0.065 0.867-3.468-4.13 1.033-0.06 0.015-0.056 0.015-0.056 0.016-0.055 0.016-0.056 0.017-0.11 0.036-0.055 0.019-0.054 0.019-0.055 0.021-0.053 0.02-0.054 0.022-0.106 0.044-0.053 0.023-0.053 0.024-0.052 0.024-0.052 0.025-0.153 0.078-0.051 0.027-0.1 0.056-0.05 0.029-0.098 0.06-0.048 0.03-0.048 0.032-0.048 0.031-0.047 0.032-0.048 0.033-0.046 0.033-0.047 0.034-0.046 0.035-0.045 0.034-0.09 0.072-0.044 0.036-0.044 0.037-0.044 0.038-0.042 0.038-0.043 0.038-0.042 0.039-0.042 0.04-0.082 0.08-0.041 0.041-0.04 0.041-0.039 0.042-0.078 0.086-0.038 0.043-0.038 0.044-0.037 0.044-0.036 0.045-0.037 0.045-0.105 0.138-0.034 0.047-0.034 0.048-0.033 0.048-0.034 0.05-1.267 1.9-1.664-1.11 1.27-1.904 0.044-0.065 0.046-0.067 0.047-0.067 0.048-0.065 0.049-0.066 0.049-0.064 0.05-0.064 0.102-0.126 0.052-0.062 0.106-0.122 0.054-0.06 0.11-0.118 0.056-0.058 0.114-0.114 0.058-0.056 0.058-0.055 0.059-0.055 0.06-0.053 0.06-0.054 0.122-0.104 0.062-0.051 0.126-0.1 0.064-0.049 0.064-0.048 0.13-0.094 0.066-0.045 0.066-0.046 0.068-0.044 0.067-0.044 0.136-0.084 0.069-0.042 0.069-0.04 0.07-0.04 0.071-0.039 0.07-0.038 0.072-0.037 0.071-0.036 0.073-0.036 0.072-0.035 0.073-0.034 0.074-0.033 0.148-0.064 0.075-0.031 0.075-0.03 0.075-0.029 0.076-0.028 0.076-0.027 0.154-0.052 0.077-0.025 0.156-0.046 0.078-0.022 0.079-0.022 6.943-1.736 0.377 0.377z"/><path d="m12 18s-0.325-0.488-0.713-1.07c-0.828-1.242-2.089-2.131-3.537-2.493-2.367-0.591-5.75-1.437-5.75-1.437s0.701 2.802 1.272 5.09c0.428 1.71 1.965 2.91 3.728 2.91l3 2" fill="#dcc9a6"/><clipPath id="_clip3"><path d="m12 18s-0.325-0.488-0.713-1.07c-0.828-1.242-2.089-2.131-3.537-2.493-2.367-0.591-5.75-1.437-5.75-1.437s0.701 2.802 1.272 5.09c0.428 1.71 1.965 2.91 3.728 2.91l3 2"/></clipPath><g clip-path="url(#_clip3)"><path d="m8.24 12.499 0.085 0.021 0.09 0.024 0.09 0.026 0.089 0.026 0.088 0.027 0.089 0.028 0.088 0.029 0.174 0.062 0.087 0.032 0.086 0.033 0.086 0.034 0.086 0.035 0.085 0.036 0.084 0.037 0.084 0.038 0.083 0.039 0.083 0.04 0.083 0.041 0.082 0.041 0.162 0.086 0.16 0.09 0.08 0.046 0.078 0.048 0.079 0.048 0.154 0.098 0.077 0.051 0.076 0.052 0.075 0.052 0.075 0.053 0.073 0.054 0.074 0.055 0.073 0.056 0.072 0.057 0.071 0.057 0.071 0.059 0.14 0.118 0.069 0.061 0.136 0.124 0.067 0.063 0.065 0.064 0.066 0.065 0.065 0.066 0.064 0.066 0.063 0.067 0.124 0.136 0.061 0.07 0.06 0.07 0.06 0.071 0.058 0.071 0.058 0.073 0.114 0.146 0.11 0.15 0.054 0.076 0.053 0.076 0.049 0.073 1.825 2.739-3.328 2.218-1.819-2.729-0.029-0.043-0.081-0.114-0.056-0.074-0.029-0.037-0.029-0.036-0.029-0.035-0.03-0.036-0.06-0.07-0.062-0.068-0.032-0.033-0.032-0.034-0.032-0.032-0.033-0.032-0.033-0.033-0.033-0.031-0.068-0.062-0.035-0.03-0.034-0.03-0.036-0.03-0.035-0.029-0.036-0.029-0.072-0.056-0.037-0.028-0.037-0.027-0.037-0.026-0.038-0.027-0.038-0.025-0.038-0.026-0.039-0.025-0.117-0.072-0.04-0.023-0.04-0.022-0.04-0.023-0.04-0.021-0.041-0.022-0.041-0.021-0.041-0.02-0.042-0.02-0.042-0.019-0.041-0.019-0.043-0.019-0.042-0.018-0.129-0.051-0.043-0.016-0.044-0.016-0.043-0.015-0.044-0.014-0.045-0.014-0.044-0.014-0.045-0.013-0.044-0.013-0.045-0.012-0.051-0.013-2.51-0.627 0.461 1.846 0.013 0.049 0.011 0.038 0.011 0.037 0.013 0.038 0.013 0.036 0.013 0.037 0.015 0.035 0.015 0.036 0.016 0.035 0.016 0.034 0.018 0.035 0.017 0.033 0.019 0.034 0.019 0.032 0.02 0.033 0.02 0.031 0.021 0.032 0.022 0.031 0.022 0.03 0.023 0.03 0.024 0.03 0.024 0.028 0.025 0.029 0.025 0.028 0.052 0.054 0.027 0.027 0.027 0.025 0.028 0.026 0.087 0.072 0.03 0.023 0.03 0.022 0.031 0.022 0.032 0.021 0.031 0.02 0.032 0.02 0.033 0.019 0.066 0.036 0.033 0.017 0.034 0.016 0.035 0.016 0.034 0.015 0.07 0.028 0.036 0.012 0.036 0.013 0.036 0.011 0.037 0.011 0.036 0.01 0.037 9e-3 0.037 8e-3 0.038 8e-3 0.038 7e-3 0.038 6e-3 0.038 5e-3 0.078 8e-3 0.039 3e-3 0.039 2e-3 0.04 1e-3 0.05 1e-3h0.596l5.168 3.445-2.219 3.329-4.217-2.812-0.081-9e-3 -0.122-0.017-0.121-0.019-0.12-0.022-0.12-0.025-0.119-0.026-0.118-0.03-0.117-0.031-0.116-0.034-0.115-0.036-0.115-0.039-0.113-0.041-0.112-0.043-0.111-0.045-0.11-0.048-0.109-0.05-0.108-0.052-0.106-0.054-0.106-0.056-0.104-0.058-0.102-0.06-0.102-0.063-0.1-0.064-0.099-0.066-0.097-0.069-0.096-0.07-0.094-0.072-0.093-0.074-0.092-0.076-0.09-0.078-0.088-0.08-0.087-0.081-0.085-0.084-0.083-0.085-0.082-0.087-0.08-0.088-0.078-0.09-0.077-0.092-0.075-0.094-0.072-0.095-0.071-0.097-0.07-0.098-0.067-0.1-0.065-0.102-0.063-0.103-0.061-0.104-0.059-0.106-0.057-0.108-0.055-0.108-0.053-0.111-0.05-0.111-0.048-0.113-0.046-0.114-0.044-0.115-0.041-0.117-0.039-0.117-0.036-0.119-0.034-0.12-0.029-0.111-1.833-7.33 0.753-0.753 7.985 1.997z" fill="#bb9753"/></g><path d="m7.995 13.468 0.076 0.019 0.079 0.022 0.078 0.022 0.156 0.046 0.077 0.025 0.154 0.052 0.076 0.027 0.076 0.028 0.075 0.029 0.075 0.03 0.075 0.031 0.148 0.064 0.074 0.033 0.073 0.034 0.072 0.035 0.073 0.036 0.071 0.036 0.072 0.037 0.07 0.038 0.071 0.039 0.07 0.04 0.069 0.04 0.069 0.042 0.136 0.084 0.067 0.044 0.068 0.044 0.066 0.046 0.066 0.045 0.13 0.094 0.064 0.048 0.064 0.049 0.126 0.1 0.062 0.051 0.122 0.104 0.06 0.054 0.06 0.053 0.059 0.055 0.058 0.055 0.058 0.056 0.114 0.114 0.056 0.058 0.11 0.118 0.054 0.06 0.106 0.122 0.052 0.062 0.102 0.126 0.05 0.064 0.049 0.064 0.049 0.066 0.048 0.065 0.047 0.067 0.046 0.067 0.044 0.065 1.27 1.904-1.664 1.11-1.267-1.9-0.034-0.05-0.033-0.048-0.034-0.048-0.034-0.047-0.105-0.138-0.037-0.045-0.036-0.045-0.037-0.044-0.038-0.044-0.038-0.043-0.078-0.086-0.039-0.042-0.04-0.041-0.041-0.041-0.082-0.08-0.042-0.04-0.042-0.039-0.043-0.038-0.042-0.038-0.044-0.038-0.044-0.037-0.044-0.036-0.09-0.072-0.045-0.034-0.046-0.035-0.047-0.034-0.046-0.033-0.048-0.033-0.047-0.032-0.048-0.031-0.048-0.032-0.048-0.03-0.098-0.06-0.05-0.029-0.1-0.056-0.051-0.027-0.153-0.078-0.052-0.025-0.052-0.024-0.053-0.024-0.053-0.023-0.106-0.044-0.054-0.022-0.053-0.02-0.055-0.021-0.054-0.019-0.055-0.019-0.11-0.036-0.056-0.017-0.055-0.016-0.056-0.016-0.056-0.015-0.06-0.015-4.13-1.033 0.867 3.468 0.017 0.065 0.017 0.058 0.018 0.058 0.019 0.057 0.02 0.057 0.021 0.056 0.022 0.056 0.024 0.054 0.024 0.055 0.052 0.106 0.028 0.052 0.028 0.051 0.03 0.051 0.031 0.05 0.031 0.049 0.033 0.049 0.033 0.048 0.035 0.047 0.035 0.046 0.074 0.09 0.038 0.044 0.039 0.043 0.08 0.084 0.084 0.08 0.043 0.039 0.044 0.038 0.044 0.037 0.046 0.036 0.046 0.035 0.046 0.034 0.048 0.034 0.048 0.032 0.098 0.062 0.05 0.029 0.051 0.029 0.051 0.027 0.052 0.026 0.053 0.026 0.052 0.024 0.054 0.023 0.054 0.022 0.054 0.021 0.055 0.02 0.112 0.036 0.056 0.016 0.057 0.016 0.057 0.014 0.058 0.013 0.058 0.012 0.058 0.01 0.059 0.01 0.059 8e-3 0.06 7e-3 0.06 6e-3 0.06 4e-3 0.061 3e-3 0.061 2e-3 0.066 1e-3h0.298l4.084 2.723-1.11 1.664-3.595-2.397-0.095-7e-3 -0.102-0.01-0.101-0.012-0.101-0.014-0.1-0.016-0.1-0.018-0.099-0.02-0.099-0.023-0.098-0.024-0.097-0.026-0.096-0.028-0.095-0.03-0.095-0.032-0.094-0.034-0.093-0.036-0.092-0.037-0.091-0.04-0.09-0.041-0.09-0.043-0.088-0.045-0.087-0.046-0.086-0.049-0.086-0.05-0.084-0.051-0.083-0.054-0.082-0.055-0.08-0.056-0.08-0.059-0.078-0.059-0.077-0.062-0.076-0.063-0.075-0.065-0.073-0.066-0.072-0.067-0.07-0.069-0.069-0.071-0.068-0.072-0.066-0.073-0.065-0.075-0.064-0.076-0.062-0.078-0.06-0.078-0.059-0.081-0.057-0.081-0.056-0.083-0.054-0.084-0.052-0.086-0.051-0.086-0.049-0.088-0.047-0.089-0.045-0.09-0.044-0.091-0.041-0.093-0.04-0.093-0.038-0.095-0.037-0.095-0.034-0.097-0.032-0.097-0.03-0.099-0.029-0.099-0.024-0.096-1.553-6.209 0.377-0.377 6.867 1.717z"/><path d="m17 13 2.413-2.413c1.016-1.016 1.587-2.394 1.587-3.831v-0.756l2-2v3.927c0 1.968-0.782 3.855-2.173 5.246l-2.827 2.827-1-3z" fill="#6a5137"/><path d="m15 13-2.413-2.413c-1.016-1.016-1.587-2.394-1.587-3.831v-0.756l-2-2v3.927c0 1.968 0.782 3.855 2.173 5.246l2.827 2.827 1-3z" fill="#6a5137"/><path d="m18 12h1c4.418 0 8-3.582 8-8l2-2v2.009c0 2.65-1.053 5.191-2.926 7.065-1.874 1.873-4.415 2.926-7.065 2.926h-1.009v-2z" fill="#6a5137"/><path d="m14 12h-1.002c-4.417 0-7.998-3.581-7.998-7.998v-2e-3l-2-2v2.009c0 2.65 1.053 5.191 2.926 7.065 1.874 1.873 4.415 2.926 7.065 2.926h1.009v-2z" fill="#6a5137"/><path d="m12.985 13c-1.782 0-3.365 1.141-3.929 2.832 0 1e-3 0 1e-3 -1e-3 2e-3 -0.679 2.039-0.587 4.258 0.26 6.234 0.63 1.47 1.305 3.045 1.569 3.662 0.077 0.178 0.116 0.37 0.116 0.564v2e-3c0 2.046 1.658 3.704 3.704 3.704h2.592c2.046 0 3.704-1.658 3.704-3.704v-2e-3c0-0.194 0.039-0.386 0.116-0.564 0.264-0.617 0.939-2.192 1.569-3.662 0.847-1.976 0.939-4.195 0.26-6.234-1e-3 -1e-3 -1e-3 -1e-3 -1e-3 -2e-3 -0.564-1.691-2.147-2.832-3.929-2.832h-6.03z" fill="#bb9753"/><path d="m18.028 28.001 0.028 2e-3 0.028 4e-3 0.027 6e-3 0.027 7e-3 0.027 8e-3 0.026 0.01 0.026 0.012 0.025 0.012 0.024 0.015 0.023 0.015 0.023 0.017 0.021 0.018 0.021 0.019 0.019 0.021 0.018 0.021 0.017 0.023 0.015 0.023 0.015 0.024 0.012 0.025 0.012 0.026 0.01 0.026 8e-3 0.027 7e-3 0.027 6e-3 0.027 4e-3 0.028 2e-3 0.028 1e-3 0.028-1e-3 0.028-2e-3 0.028-4e-3 0.028-6e-3 0.027-7e-3 0.027-8e-3 0.027-0.01 0.026-0.012 0.026-0.012 0.025-0.015 0.024-0.015 0.023-0.017 0.023-0.018 0.021-0.019 0.021-0.021 0.019-0.021 0.018-0.023 0.017-0.023 0.015-0.024 0.015-0.025 0.012-0.026 0.012-0.026 0.01-0.027 8e-3 -0.027 7e-3 -0.027 6e-3 -0.028 4e-3 -0.028 2e-3 -0.028 1e-3h-4l-0.028-1e-3 -0.028-2e-3 -0.028-4e-3 -0.027-6e-3 -0.027-7e-3 -0.027-8e-3 -0.026-0.01-0.026-0.012-0.025-0.012-0.024-0.015-0.023-0.015-0.023-0.017-0.021-0.018-0.021-0.019-0.019-0.021-0.018-0.021-0.017-0.023-0.015-0.023-0.015-0.024-0.012-0.025-0.012-0.026-0.01-0.026-8e-3 -0.027-7e-3 -0.027-6e-3 -0.027-4e-3 -0.028-2e-3 -0.028-1e-3 -0.028 1e-3 -0.028 2e-3 -0.028 4e-3 -0.028 6e-3 -0.027 7e-3 -0.027 8e-3 -0.027 0.01-0.026 0.012-0.026 0.012-0.025 0.015-0.024 0.015-0.023 0.017-0.023 0.018-0.021 0.019-0.021 0.021-0.019 0.021-0.018 0.023-0.017 0.023-0.015 0.024-0.015 0.025-0.012 0.026-0.012 0.026-0.01 0.027-8e-3 0.027-7e-3 0.027-6e-3 0.028-4e-3 0.028-2e-3 0.028-1e-3h4l0.028 1e-3z" fill="#57422d"/><path d="m23 19-0.447 0.894c-0.339 0.678-1.032 1.106-1.789 1.106h-1.764c0-1.105 0.895-2 2-2h2z"/><path d="m9 19 0.447 0.894c0.339 0.678 1.032 1.106 1.789 1.106h1.764c0-1.105-0.895-2-2-2h-2z"/><path d="m14.873 24c-0.482 0-0.873 0.391-0.873 0.873v1e-3c0 0.081 0.032 0.158 0.089 0.215l0.911 0.911c0 0.552 0.448 1 1 1s1-0.448 1-1l0.911-0.911c0.057-0.057 0.089-0.134 0.089-0.215v-1e-3c0-0.482-0.391-0.873-0.873-0.873h-2.254z"/></g></g></svg>
