<?xml version="1.0" encoding="UTF-8"?>
<!DOCTYPE svg  PUBLIC '-//W3C//DTD SVG 1.1//EN'  'http://www.w3.org/Graphics/SVG/1.1/DTD/svg11.dtd'>
<svg clip-rule="evenodd" fill-rule="evenodd" stroke-linejoin="round" stroke-miterlimit="1.4142" version="1.1" viewBox="0 0 32 32" xml:space="preserve" xmlns="http://www.w3.org/2000/svg">
<metadata>
<rdf:RDF xmlns:cc="http://web.resource.org/cc/" xmlns:dc="http://purl.org/dc/elements/1.1/" xmlns:rdf="http://www.w3.org/1999/02/22-rdf-syntax-ns#">

     <rdf:Description rdf:about="">
       <dc:title>Mutant Standard emoji 2023.12</dc:title>
     </rdf:Description>

    <cc:work rdf:about="">
        <cc:license rdf:resource="http://creativecommons.org/licenses/by-nc-sa/4.0/"/>
        <cc:attributionName>Caius Nocturne</cc:attributionName>
        <cc:attributionURL>http://mutant.tech/</cc:attributionURL>
    </cc:work>

</rdf:RDF>
</metadata>
<rect id="deer_without_antlers" width="32" height="32" fill="none"/><clipPath id="_clip1"><rect width="32" height="32"/></clipPath><g clip-path="url(#_clip1)"><g id="outline"><path d="m12.382 10c-2.02 0-3.813 1.292-4.451 3.208-1e-3 1e-3 -1e-3 1e-3 -1e-3 2e-3 -0.604 1.811-0.604 3.769 0 5.58 0.763 2.288 1.756 5.269 2.009 6.028 0.041 0.121 0.077 0.244 0.108 0.368 0.043 0.173 0.113 0.453 0.196 0.784 0.445 1.781 2.045 3.03 3.88 3.03h3.754c1.835 0 3.435-1.249 3.88-3.03 0.083-0.331 0.153-0.611 0.196-0.784 0.031-0.124 0.067-0.247 0.108-0.368 0.253-0.759 1.246-3.74 2.009-6.028 0.604-1.811 0.604-3.769 0-5.58 0-1e-3 0-1e-3 -1e-3 -2e-3 -0.638-1.916-2.431-3.208-4.451-3.208h-7.236z"/><path d="m19.753 8.001 0.134 4e-3 0.133 7e-3 0.133 9e-3 0.133 0.012 0.132 0.015 0.131 0.017 0.131 0.019 0.13 0.023 0.129 0.024 0.129 0.027 0.127 0.03 0.127 0.032 0.126 0.035 0.125 0.037 0.125 0.039 0.123 0.041 0.122 0.044 0.121 0.047 0.12 0.048 0.119 0.051 0.118 0.053 0.117 0.055 0.115 0.058 0.114 0.059 0.113 0.062 0.112 0.064 0.111 0.066 0.109 0.068 0.108 0.07 0.106 0.072 0.105 0.074 0.104 0.076 0.102 0.078 0.1 0.081 0.1 0.082 0.097 0.083 0.096 0.086 0.094 0.088 0.093 0.09 0.091 0.091 0.089 0.093 0.088 0.095 0.085 0.097 0.084 0.099 0.083 0.1 0.08 0.102 0.078 0.104 0.077 0.105 0.074 0.107 0.073 0.109 0.071 0.11 0.068 0.112 0.066 0.113 0.065 0.115 0.062 0.116 0.06 0.118 0.058 0.119 0.055 0.121 0.053 0.122 0.051 0.123 0.049 0.125 0.046 0.126 0.042 0.122 0.036 0.11 0.066 0.21 0.06 0.21 0.029 0.105 0.028 0.106 0.052 0.212 0.024 0.106 0.023 0.107 0.023 0.106 0.021 0.107 0.02 0.107 0.019 0.107 0.018 0.108 0.017 0.107 0.015 0.108 0.015 0.107 0.014 0.108 0.012 0.108 0.022 0.216 9e-3 0.108 8e-3 0.108 7e-3 0.108 6e-3 0.109 5e-3 0.107 4e-3 0.109 3e-3 0.108 1e-3 0.108 1e-3 0.109-1e-3 0.109-1e-3 0.108-3e-3 0.108-4e-3 0.109-5e-3 0.108-6e-3 0.108-7e-3 0.108-8e-3 0.108-9e-3 0.108-0.022 0.216-0.012 0.108-0.014 0.108-0.015 0.107-0.015 0.108-0.017 0.107-0.018 0.107-0.019 0.108-0.02 0.107-0.021 0.106-0.046 0.214-0.024 0.106-0.052 0.212-0.028 0.106-0.029 0.105-0.06 0.21-0.066 0.21-0.032 0.099-2.008 6.023-0.02 0.064-0.017 0.055-0.016 0.056-0.017 0.065-0.196 0.784-0.03 0.114-0.035 0.123-0.037 0.123-0.04 0.12-0.042 0.12-0.045 0.119-0.047 0.117-0.05 0.116-0.052 0.114-0.054 0.113-0.056 0.112-0.058 0.11-0.061 0.109-0.063 0.107-0.065 0.106-0.067 0.105-0.068 0.102-0.071 0.101-0.073 0.1-0.075 0.097-0.077 0.097-0.078 0.094-0.081 0.093-0.082 0.091-0.084 0.089-0.086 0.087-0.087 0.086-0.089 0.083-0.091 0.082-0.092 0.08-0.094 0.078-0.095 0.076-0.097 0.074-0.099 0.073-0.1 0.07-0.101 0.068-0.103 0.066-0.104 0.064-0.106 0.062-0.107 0.06-0.108 0.058-0.109 0.055-0.111 0.053-0.112 0.052-0.113 0.048-0.114 0.047-0.115 0.044-0.117 0.042-0.117 0.04-0.118 0.037-0.12 0.035-0.12 0.032-0.121 0.03-0.122 0.028-0.123 0.025-0.124 0.022-0.124 0.02-0.125 0.018-0.126 0.014-0.126 0.012-0.127 0.01-0.128 7e-3 -0.128 4e-3 -0.117 1e-3h-3.776l-0.117-1e-3 -0.128-4e-3 -0.128-7e-3 -0.127-0.01-0.126-0.012-0.126-0.014-0.125-0.018-0.124-0.02-0.124-0.022-0.123-0.025-0.122-0.028-0.121-0.03-0.12-0.032-0.12-0.035-0.118-0.037-0.117-0.04-0.117-0.042-0.115-0.044-0.114-0.047-0.113-0.048-0.112-0.052-0.111-0.053-0.109-0.055-0.108-0.058-0.107-0.06-0.106-0.062-0.104-0.064-0.103-0.066-0.101-0.068-0.1-0.07-0.099-0.073-0.097-0.074-0.095-0.076-0.094-0.078-0.092-0.08-0.091-0.082-0.089-0.083-0.087-0.086-0.086-0.087-0.084-0.089-0.082-0.092-0.081-0.092-0.078-0.094-0.077-0.096-0.075-0.098-0.073-0.1-0.071-0.101-0.068-0.103-0.067-0.104-0.065-0.106-0.063-0.107-0.061-0.109-0.058-0.11-0.056-0.112-0.054-0.113-0.052-0.114-0.05-0.116-0.047-0.117-0.045-0.119-0.042-0.12-0.04-0.12-0.037-0.122-0.035-0.124-0.03-0.114-0.196-0.784-0.017-0.065-0.016-0.056-0.017-0.055-0.02-0.064-2.008-6.023-0.032-0.099-0.034-0.105-0.062-0.21-0.03-0.105-0.029-0.105-0.028-0.106-0.052-0.212-0.024-0.107-0.046-0.212-0.021-0.107-0.02-0.107-0.019-0.107-0.018-0.107-0.017-0.108-0.015-0.108-0.015-0.107-0.014-0.108-0.012-0.108-0.022-0.216-9e-3 -0.108-8e-3 -0.108-7e-3 -0.108-6e-3 -0.108-5e-3 -0.109-4e-3 -0.108-3e-3 -0.108-1e-3 -0.109-1e-3 -0.108 1e-3 -0.108 1e-3 -0.109 3e-3 -0.108 4e-3 -0.108 5e-3 -0.109 6e-3 -0.108 7e-3 -0.108 8e-3 -0.108 9e-3 -0.108 0.022-0.216 0.012-0.108 0.014-0.108 0.015-0.107 0.015-0.108 0.017-0.107 0.018-0.108 0.019-0.107 0.02-0.107 0.021-0.107 0.046-0.212 0.024-0.107 0.052-0.212 0.028-0.106 0.029-0.105 0.06-0.21 0.032-0.105 0.034-0.105 0.037-0.113 5e-3 -0.015 0.036-0.104 0.046-0.126 0.049-0.125 0.051-0.123 0.053-0.122 0.055-0.121 0.058-0.119 0.06-0.118 0.062-0.116 0.064-0.115 0.067-0.113 0.068-0.112 0.071-0.11 0.073-0.109 0.074-0.107 0.077-0.105 0.078-0.104 0.08-0.102 0.082-0.1 0.085-0.099 0.085-0.097 0.088-0.095 0.089-0.093 0.091-0.091 0.093-0.09 0.094-0.088 0.096-0.086 0.097-0.083 0.1-0.083 0.1-0.08 0.102-0.078 0.104-0.076 0.105-0.074 0.106-0.072 0.108-0.07 0.109-0.068 0.111-0.066 0.112-0.064 0.113-0.062 0.114-0.059 0.115-0.058 0.117-0.055 0.118-0.053 0.119-0.051 0.12-0.048 0.121-0.047 0.122-0.044 0.124-0.041 0.124-0.039 0.125-0.037 0.126-0.035 0.127-0.032 0.127-0.03 0.129-0.027 0.129-0.024 0.13-0.023 0.131-0.019 0.131-0.017 0.132-0.015 0.133-0.012 0.133-9e-3 0.133-7e-3 0.134-4e-3 0.125-1e-3h7.256l0.125 1e-3zm-7.361 3.999-0.065 1e-3 -0.054 1e-3 -0.054 3e-3 -0.054 4e-3 -0.106 0.01-0.053 7e-3 -0.052 8e-3 -0.052 9e-3 -0.052 0.01-0.052 0.011-0.051 0.012-0.051 0.013-0.05 0.013-0.051 0.015-0.049 0.016-0.05 0.017-0.049 0.017-0.049 0.019-0.048 0.019-0.047 0.021-0.048 0.021-0.047 0.022-0.046 0.023-0.046 0.024-0.046 0.025-0.045 0.026-0.044 0.026-0.045 0.028-0.043 0.028-0.043 0.029-0.042 0.03-0.042 0.031-0.082 0.064-0.04 0.033-0.078 0.068-0.037 0.036-0.038 0.036-0.036 0.036-0.072 0.076-0.034 0.039-0.034 0.04-0.033 0.04-0.032 0.041-0.032 0.042-0.03 0.042-0.03 0.043-0.029 0.043-0.029 0.045-0.027 0.044-0.027 0.046-0.05 0.092-0.024 0.047-0.024 0.049-0.022 0.048-0.021 0.049-0.021 0.05-0.02 0.05-0.018 0.051-0.026 0.075 5e-3 -0.013-0.019 0.057-0.021 0.066-0.04 0.132-0.018 0.066-0.036 0.134-0.017 0.066-0.016 0.067-0.03 0.134-0.014 0.068-0.026 0.134-0.012 0.068-0.011 0.067-0.011 0.068-0.01 0.068-9e-3 0.068-0.016 0.136-0.014 0.136-6e-3 0.068-5e-3 0.068-4e-3 0.068-4e-3 0.069-6e-3 0.136-2e-3 0.136-1e-3 0.069 1e-3 0.069 2e-3 0.136 3e-3 0.068 3e-3 0.069 8e-3 0.136 5e-3 0.068 6e-3 0.068 0.014 0.136 8e-3 0.068 8e-3 0.069 9e-3 0.067 0.01 0.068 0.011 0.067 0.011 0.068 0.012 0.068 0.026 0.134 0.014 0.068 0.03 0.134 0.016 0.067 0.017 0.067 0.017 0.066 0.019 0.067 0.018 0.066 0.04 0.132 0.021 0.066 0.023 0.071 2.011 6.031 0.038 0.119 0.039 0.129 0.036 0.129 0.032 0.121 0.195 0.783 0.014 0.052 0.024 0.082 0.014 0.041 0.014 0.04 0.03 0.078 0.017 0.039 0.017 0.038 0.018 0.037 0.038 0.074 0.02 0.036 0.042 0.07 0.023 0.035 0.022 0.034 0.024 0.034 0.024 0.033 0.025 0.032 0.052 0.064 0.027 0.031 0.027 0.03 0.028 0.03 0.058 0.058 0.03 0.028 0.03 0.027 0.031 0.027 0.031 0.026 0.032 0.025 0.033 0.025 0.066 0.048 0.034 0.023 0.034 0.022 0.035 0.021 0.036 0.021 0.035 0.02 0.036 0.019 0.037 0.019 0.074 0.034 0.038 0.017 0.037 0.015 0.039 0.015 0.038 0.014 0.039 0.013 0.04 0.012 0.039 0.012 0.04 0.011 0.04 9e-3 0.041 0.01 0.04 8e-3 0.041 7e-3 0.042 7e-3 0.041 6e-3 0.042 5e-3 0.043 4e-3 0.042 3e-3 0.043 2e-3 0.043 1e-3 0.054 1e-3h3.732l0.054-1e-3 0.043-1e-3 0.043-2e-3 0.042-3e-3 0.043-4e-3 0.042-5e-3 0.041-6e-3 0.042-7e-3 0.041-7e-3 0.04-8e-3 0.041-0.01 0.04-9e-3 0.04-0.011 0.039-0.012 0.04-0.012 0.039-0.013 0.038-0.014 0.039-0.015 0.038-0.015 0.111-0.051 0.037-0.019 0.036-0.019 0.035-0.02 0.036-0.021 0.035-0.021 0.034-0.022 0.034-0.023 0.066-0.048 0.033-0.025 0.032-0.025 0.031-0.026 0.031-0.027 0.03-0.027 0.03-0.028 0.058-0.058 0.028-0.03 0.027-0.03 0.027-0.031 0.052-0.064 0.025-0.032 0.024-0.033 0.024-0.034 0.023-0.034 0.022-0.034 0.021-0.036 0.021-0.035 0.02-0.036 0.02-0.037 0.036-0.074 0.017-0.038 0.017-0.039 0.03-0.078 0.014-0.04 0.014-0.041 0.012-0.04 0.012-0.042 0.014-0.052 0.195-0.783 0.032-0.121 0.036-0.129 0.039-0.129 0.038-0.118 2.011-6.032 0.023-0.071 0.021-0.066 0.04-0.132 0.018-0.066 0.036-0.134 0.017-0.066 0.016-0.067 0.015-0.067 0.015-0.068 0.014-0.066 0.013-0.068 0.013-0.067 0.012-0.067 0.022-0.136 0.01-0.068 9e-3 -0.068 8e-3 -0.068 8e-3 -0.067 7e-3 -0.069 7e-3 -0.068 6e-3 -0.068 5e-3 -0.068 8e-3 -0.136 3e-3 -0.069 3e-3 -0.068 1e-3 -0.068 1e-3 -0.069 1e-3 -0.068-1e-3 -0.068-1e-3 -0.069-1e-3 -0.068-3e-3 -0.068-3e-3 -0.069-8e-3 -0.136-5e-3 -0.068-6e-3 -0.068-7e-3 -0.068-7e-3 -0.069-8e-3 -0.067-8e-3 -0.068-9e-3 -0.068-0.01-0.068-0.011-0.068-0.011-0.067-0.012-0.068-0.026-0.134-0.014-0.067-0.015-0.068-0.015-0.067-0.016-0.067-0.017-0.067-0.017-0.066-0.019-0.067-0.018-0.066-0.04-0.132-0.021-0.066-0.02-0.063-0.02-0.056-0.019-0.051-0.019-0.05-0.021-0.05-0.021-0.049-0.022-0.048-0.048-0.096-0.05-0.092-0.027-0.046-0.028-0.045-0.028-0.044-0.029-0.043-0.03-0.043-0.03-0.042-0.032-0.042-0.032-0.041-0.033-0.04-0.034-0.04-0.034-0.039-0.036-0.038-0.035-0.037-0.037-0.037-0.038-0.036-0.037-0.036-0.078-0.068-0.04-0.033-0.041-0.033-0.041-0.031-0.042-0.031-0.042-0.03-0.043-0.029-0.044-0.028-0.043-0.027-0.045-0.027-0.045-0.026-0.046-0.025-0.046-0.024-0.046-0.023-0.047-0.022-0.047-0.021-0.048-0.021-0.049-0.019-0.048-0.019-0.049-0.017-0.05-0.017-0.049-0.016-0.051-0.015-0.05-0.013-0.051-0.013-0.051-0.012-0.052-0.011-0.052-0.01-0.052-9e-3 -0.052-8e-3 -0.053-7e-3 -0.106-0.01-0.054-4e-3 -0.054-3e-3 -0.054-1e-3 -0.065-1e-3h-7.216z"/></g><g id="emoji"><path d="m12 11s-0.905-1.509-1.721-2.869c-0.819-1.364-2.146-2.348-3.69-2.734-2.356-0.589-5.589-1.397-5.589-1.397s0.655 3.277 1.216 6.079c0.456 2.28 2.458 3.921 4.783 3.921h1e-3l3 2" fill="#dcc9a6"/><clipPath id="_clip2"><path d="m12 11s-0.905-1.509-1.721-2.869c-0.819-1.364-2.146-2.348-3.69-2.734-2.356-0.589-5.589-1.397-5.589-1.397s0.655 3.277 1.216 6.079c0.456 2.28 2.458 3.921 4.783 3.921h1e-3l3 2"/></clipPath><g clip-path="url(#_clip2)"><path d="m7.08 3.458 0.09 0.024 0.096 0.025 0.096 0.027 0.094 0.029 0.095 0.029 0.094 0.03 0.094 0.032 0.092 0.033 0.093 0.033 0.092 0.035 0.092 0.036 0.091 0.037 0.18 0.078 0.09 0.04 0.089 0.042 0.088 0.042 0.087 0.044 0.088 0.044 0.087 0.046 0.085 0.047 0.086 0.047 0.084 0.049 0.168 0.1 0.083 0.052 0.082 0.053 0.162 0.108 0.08 0.056 0.08 0.057 0.079 0.057 0.077 0.059 0.078 0.059 0.152 0.122 0.075 0.062 0.075 0.064 0.073 0.064 0.073 0.065 0.072 0.066 0.071 0.067 0.071 0.068 0.069 0.068 0.069 0.07 0.068 0.07 0.067 0.071 0.067 0.072 0.066 0.073 0.064 0.074 0.064 0.075 0.063 0.075 0.062 0.076 0.061 0.078 0.06 0.078 0.059 0.078 0.059 0.08 0.057 0.08 0.057 0.081 0.055 0.082 0.055 0.083 0.053 0.083 0.053 0.084 0.049 0.08 2.753 4.589-3.43 2.058-2.747-4.579-0.029-0.047-0.026-0.042-0.027-0.042-0.028-0.042-0.027-0.04-0.029-0.041-0.028-0.04-0.03-0.04-0.029-0.039-0.03-0.039-0.031-0.038-0.031-0.039-0.031-0.038-0.032-0.037-0.033-0.037-0.032-0.036-0.033-0.036-0.034-0.036-0.068-0.07-0.07-0.068-0.036-0.033-0.036-0.034-0.037-0.032-0.036-0.032-0.037-0.032-0.076-0.062-0.038-0.03-0.039-0.03-0.039-0.029-0.04-0.029-0.039-0.028-0.04-0.028-0.041-0.027-0.04-0.027-0.041-0.026-0.042-0.026-0.041-0.026-0.043-0.024-0.042-0.025-0.042-0.024-0.044-0.023-0.043-0.023-0.043-0.022-0.044-0.022-0.044-0.021-0.045-0.021-0.09-0.04-0.045-0.019-0.045-0.018-0.092-0.036-0.046-0.017-0.094-0.032-0.094-0.03-0.047-0.014-0.096-0.026-0.054-0.014-2.517-0.629 0.594 2.969 0.015 0.074 0.015 0.062 0.016 0.062 0.017 0.061 0.019 0.061 0.019 0.059 0.021 0.06 0.046 0.116 0.024 0.057 0.026 0.056 0.027 0.056 0.028 0.055 0.029 0.054 0.03 0.054 0.031 0.052 0.032 0.052 0.068 0.102 0.072 0.098 0.076 0.096 0.04 0.046 0.04 0.045 0.041 0.045 0.043 0.044 0.043 0.043 0.044 0.042 0.045 0.041 0.046 0.039 0.046 0.04 0.048 0.038 0.048 0.037 0.049 0.036 0.05 0.035 0.05 0.034 0.051 0.033 0.052 0.031 0.053 0.031 0.053 0.03 0.054 0.028 0.055 0.028 0.055 0.026 0.055 0.025 0.056 0.024 0.114 0.044 0.058 0.02 0.059 0.019 0.059 0.018 0.059 0.017 0.06 0.015 0.06 0.014 0.061 0.013 0.061 0.012 0.061 0.01 0.062 9e-3 0.126 0.014 0.063 5e-3 0.064 3e-3 0.064 2e-3 0.076 1e-3h0.596l5.168 3.445-2.219 3.328-4.207-2.804-0.107-0.011-0.149-0.018-0.149-0.021-0.148-0.025-0.146-0.027-0.146-0.031-0.145-0.034-0.143-0.037-0.143-0.04-0.141-0.043-0.14-0.045-0.139-0.049-0.137-0.052-0.136-0.054-0.135-0.057-0.133-0.06-0.132-0.063-0.13-0.065-0.129-0.068-0.127-0.071-0.125-0.074-0.124-0.075-0.122-0.079-0.121-0.081-0.118-0.083-0.117-0.086-0.115-0.088-0.113-0.091-0.111-0.093-0.109-0.095-0.107-0.098-0.105-0.1-0.103-0.102-0.101-0.104-0.098-0.106-0.097-0.109-0.094-0.111-0.092-0.113-0.09-0.115-0.087-0.116-0.085-0.119-0.083-0.121-0.079-0.123-0.078-0.125-0.075-0.126-0.072-0.128-0.07-0.13-0.067-0.133-0.065-0.133-0.061-0.135-0.059-0.137-0.056-0.139-0.053-0.14-0.05-0.141-0.047-0.143-0.044-0.144-0.041-0.146-0.038-0.147-0.035-0.149-0.029-0.138-1.666-8.33 0.678-0.646 7.811 1.952z" fill="#bb9753"/></g><path d="m6.834 4.428 0.082 0.021 0.084 0.022 0.083 0.024 0.166 0.05 0.082 0.027 0.082 0.028 0.081 0.028 0.162 0.06 0.16 0.064 0.158 0.068 0.078 0.035 0.078 0.037 0.077 0.037 0.077 0.038 0.076 0.039 0.076 0.04 0.075 0.041 0.074 0.041 0.075 0.043 0.073 0.043 0.146 0.09 0.071 0.046 0.072 0.047 0.071 0.048 0.07 0.049 0.069 0.049 0.069 0.051 0.068 0.051 0.068 0.052 0.067 0.053 0.132 0.108 0.065 0.055 0.065 0.057 0.126 0.114 0.063 0.059 0.061 0.059 0.061 0.06 0.061 0.061 0.118 0.124 0.058 0.063 0.114 0.128 0.056 0.066 0.055 0.066 0.054 0.066 0.106 0.136 0.052 0.069 0.051 0.07 0.05 0.07 0.05 0.071 0.096 0.144 0.047 0.073 0.046 0.073 0.044 0.072 2.237 3.729-1.715 1.029-2.234-3.724-0.034-0.056-0.033-0.052-0.068-0.104-0.034-0.051-0.036-0.051-0.072-0.1-0.037-0.049-0.038-0.049-0.038-0.048-0.078-0.094-0.04-0.047-0.04-0.046-0.041-0.046-0.042-0.045-0.084-0.088-0.043-0.044-0.044-0.043-0.088-0.084-0.045-0.041-0.046-0.041-0.046-0.04-0.046-0.039-0.047-0.039-0.048-0.039-0.048-0.038-0.048-0.037-0.147-0.108-0.051-0.034-0.05-0.035-0.102-0.066-0.052-0.033-0.052-0.031-0.106-0.062-0.053-0.03-0.054-0.029-0.108-0.056-0.11-0.054-0.056-0.026-0.112-0.05-0.057-0.023-0.056-0.024-0.058-0.022-0.057-0.022-0.058-0.021-0.058-0.02-0.059-0.02-0.058-0.019-0.06-0.019-0.118-0.034-0.06-0.016-0.064-0.016-4.053-1.014 0.905 4.524 0.019 0.091 0.02 0.083 0.021 0.083 0.024 0.083 0.025 0.081 0.026 0.081 0.028 0.08 0.03 0.078 0.032 0.078 0.033 0.077 0.034 0.076 0.037 0.076 0.037 0.074 0.039 0.073 0.041 0.072 0.042 0.071 0.044 0.07 0.045 0.069 0.046 0.069 0.048 0.066 0.05 0.066 0.05 0.065 0.052 0.064 0.053 0.062 0.055 0.061 0.055 0.06 0.057 0.059 0.058 0.058 0.06 0.057 0.06 0.055 0.124 0.106 0.064 0.051 0.065 0.05 0.066 0.049 0.067 0.047 0.068 0.045 0.069 0.045 0.14 0.084 0.072 0.04 0.073 0.038 0.073 0.037 0.074 0.035 0.075 0.034 0.076 0.032 0.077 0.031 0.077 0.029 0.078 0.027 0.079 0.026 0.079 0.024 0.081 0.023 0.08 0.02 0.082 0.019 0.082 0.018 0.082 0.015 0.083 0.014 0.084 0.012 0.084 0.01 0.085 9e-3 0.085 6e-3 0.086 5e-3 0.086 3e-3 0.093 1e-3h0.298l4.084 2.723-1.11 1.664-3.593-2.396-0.076-4e-3 -0.129-0.01-0.128-0.013-0.128-0.015-0.127-0.018-0.126-0.021-0.125-0.024-0.125-0.026-0.123-0.029-0.123-0.032-0.122-0.034-0.12-0.036-0.12-0.039-0.119-0.042-0.117-0.044-0.116-0.047-0.115-0.048-0.114-0.052-0.113-0.053-0.111-0.056-0.11-0.058-0.109-0.061-0.107-0.063-0.106-0.064-0.104-0.067-0.103-0.07-0.101-0.071-0.1-0.073-0.098-0.076-0.097-0.077-0.095-0.08-0.093-0.081-0.091-0.084-0.09-0.085-0.088-0.087-0.086-0.089-0.085-0.092-0.082-0.092-0.081-0.095-0.078-0.096-0.077-0.099-0.075-0.099-0.072-0.102-0.071-0.103-0.068-0.105-0.066-0.107-0.064-0.108-0.062-0.109-0.06-0.111-0.057-0.113-0.055-0.114-0.053-0.116-0.05-0.116-0.048-0.119-0.045-0.12-0.043-0.12-0.04-0.123-0.038-0.123-0.035-0.124-0.032-0.126-0.03-0.127-0.026-0.123-1.441-7.204 0.339-0.323 6.7 1.675z"/><path d="m20 11s0.905-1.509 1.721-2.869c0.819-1.364 2.146-2.348 3.69-2.734 2.356-0.589 5.589-1.397 5.589-1.397s-0.655 3.277-1.216 6.079c-0.456 2.28-2.458 3.921-4.783 3.921h-1e-3l-3 2" fill="#dcc9a6"/><clipPath id="_clip3"><path d="m20 11s0.905-1.509 1.721-2.869c0.819-1.364 2.146-2.348 3.69-2.734 2.356-0.589 5.589-1.397 5.589-1.397s-0.655 3.277-1.216 6.079c-0.456 2.28-2.458 3.921-4.783 3.921h-1e-3l-3 2"/></clipPath><g clip-path="url(#_clip3)"><path d="m33.409 2.152-1.666 8.33-0.029 0.138-0.035 0.149-0.038 0.147-0.041 0.146-0.044 0.144-0.047 0.143-0.05 0.141-0.053 0.14-0.056 0.139-0.059 0.137-0.061 0.135-0.065 0.133-0.067 0.133-0.07 0.13-0.072 0.128-0.075 0.126-0.078 0.125-0.079 0.123-0.083 0.121-0.085 0.119-0.087 0.116-0.09 0.115-0.092 0.113-0.094 0.111-0.097 0.109-0.098 0.106-0.101 0.104-0.103 0.102-0.105 0.1-0.107 0.098-0.109 0.095-0.111 0.093-0.113 0.091-0.115 0.088-0.117 0.086-0.118 0.083-0.121 0.081-0.122 0.079-0.124 0.075-0.125 0.074-0.127 0.071-0.129 0.068-0.13 0.065-0.132 0.063-0.133 0.06-0.135 0.057-0.136 0.054-0.137 0.052-0.139 0.049-0.14 0.045-0.141 0.043-0.143 0.04-0.143 0.037-0.145 0.034-0.146 0.031-0.146 0.027-0.148 0.025-0.149 0.021-0.149 0.018-0.107 0.011-4.207 2.804-2.219-3.328 5.168-3.445h0.596l0.076-1e-3 0.064-2e-3 0.064-3e-3 0.063-5e-3 0.126-0.014 0.062-9e-3 0.061-0.01 0.061-0.012 0.061-0.013 0.06-0.014 0.06-0.015 0.059-0.017 0.059-0.018 0.059-0.019 0.058-0.02 0.114-0.044 0.056-0.024 0.055-0.025 0.055-0.026 0.055-0.028 0.054-0.028 0.053-0.03 0.053-0.031 0.052-0.031 0.051-0.033 0.05-0.034 0.05-0.035 0.049-0.036 0.048-0.037 0.048-0.038 0.046-0.04 0.046-0.039 0.045-0.041 0.044-0.042 0.043-0.043 0.043-0.044 0.041-0.045 0.04-0.045 0.04-0.046 0.076-0.096 0.072-0.098 0.068-0.102 0.032-0.052 0.031-0.052 0.03-0.054 0.029-0.054 0.028-0.055 0.027-0.056 0.026-0.056 0.024-0.057 0.046-0.116 0.021-0.06 0.019-0.059 0.019-0.061 0.017-0.061 0.016-0.062 0.015-0.062 0.015-0.074 0.594-2.969-2.517 0.629-0.054 0.014-0.096 0.026-0.047 0.014-0.094 0.03-0.094 0.032-0.046 0.017-0.092 0.036-0.045 0.018-0.045 0.019-0.09 0.04-0.045 0.021-0.044 0.021-0.044 0.022-0.043 0.022-0.043 0.023-0.044 0.023-0.042 0.024-0.042 0.025-0.043 0.024-0.041 0.026-0.042 0.026-0.041 0.026-0.04 0.027-0.041 0.027-0.04 0.028-0.039 0.028-0.04 0.029-0.039 0.029-0.039 0.03-0.038 0.03-0.076 0.062-0.037 0.032-0.036 0.032-0.037 0.032-0.036 0.034-0.036 0.033-0.07 0.068-0.068 0.07-0.034 0.036-0.033 0.036-0.032 0.036-0.033 0.037-0.032 0.037-0.031 0.038-0.031 0.039-0.031 0.038-0.03 0.039-0.029 0.039-0.03 0.04-0.028 0.04-0.029 0.041-0.027 0.04-0.028 0.042-0.027 0.042-0.026 0.042-0.029 0.047-2.747 4.579-3.43-2.058 2.753-4.589 0.049-0.08 0.053-0.084 0.053-0.083 0.055-0.083 0.055-0.082 0.057-0.081 0.057-0.08 0.059-0.08 0.059-0.078 0.06-0.078 0.061-0.078 0.062-0.076 0.063-0.075 0.064-0.075 0.064-0.074 0.066-0.073 0.067-0.072 0.067-0.071 0.068-0.07 0.069-0.07 0.069-0.068 0.071-0.068 0.071-0.067 0.072-0.066 0.073-0.065 0.073-0.064 0.075-0.064 0.075-0.062 0.152-0.122 0.078-0.059 0.077-0.059 0.079-0.057 0.08-0.057 0.08-0.056 0.162-0.108 0.082-0.053 0.083-0.052 0.168-0.1 0.084-0.049 0.086-0.047 0.085-0.047 0.087-0.046 0.088-0.044 0.087-0.044 0.088-0.042 0.089-0.042 0.09-0.04 0.18-0.078 0.091-0.037 0.092-0.036 0.092-0.035 0.093-0.033 0.092-0.033 0.094-0.032 0.094-0.03 0.095-0.029 0.094-0.029 0.096-0.027 0.096-0.025 0.09-0.024 7.811-1.952 0.678 0.646z" fill="#bb9753"/></g><path d="m32.205 3.076-1.441 7.204-0.026 0.123-0.03 0.127-0.032 0.126-0.035 0.124-0.038 0.123-0.04 0.123-0.043 0.12-0.045 0.12-0.048 0.119-0.05 0.116-0.053 0.116-0.055 0.114-0.057 0.113-0.06 0.111-0.062 0.109-0.064 0.108-0.066 0.107-0.068 0.105-0.071 0.103-0.072 0.102-0.075 0.099-0.077 0.099-0.078 0.096-0.081 0.095-0.082 0.092-0.085 0.092-0.086 0.089-0.088 0.087-0.09 0.085-0.091 0.084-0.093 0.081-0.095 0.08-0.097 0.077-0.098 0.076-0.1 0.073-0.101 0.071-0.103 0.07-0.104 0.067-0.106 0.064-0.107 0.063-0.109 0.061-0.11 0.058-0.111 0.056-0.113 0.053-0.114 0.052-0.115 0.048-0.116 0.047-0.117 0.044-0.119 0.042-0.12 0.039-0.12 0.036-0.122 0.034-0.123 0.032-0.123 0.029-0.125 0.026-0.125 0.024-0.126 0.021-0.127 0.018-0.128 0.015-0.128 0.013-0.129 0.01-0.076 4e-3 -3.593 2.396-1.11-1.664 4.084-2.723h0.298l0.093-1e-3 0.086-3e-3 0.086-5e-3 0.085-6e-3 0.085-9e-3 0.084-0.01 0.084-0.012 0.083-0.014 0.082-0.015 0.082-0.018 0.082-0.019 0.08-0.02 0.081-0.023 0.079-0.024 0.079-0.026 0.078-0.027 0.077-0.029 0.077-0.031 0.076-0.032 0.075-0.034 0.074-0.035 0.073-0.037 0.073-0.038 0.072-0.04 0.14-0.084 0.069-0.045 0.068-0.045 0.067-0.047 0.066-0.049 0.065-0.05 0.064-0.051 0.124-0.106 0.06-0.055 0.06-0.057 0.058-0.058 0.057-0.059 0.055-0.06 0.055-0.061 0.053-0.062 0.052-0.064 0.05-0.065 0.05-0.066 0.048-0.066 0.046-0.069 0.045-0.069 0.044-0.07 0.042-0.071 0.041-0.072 0.039-0.073 0.037-0.074 0.037-0.076 0.034-0.076 0.033-0.077 0.032-0.078 0.03-0.078 0.028-0.08 0.026-0.081 0.025-0.081 0.024-0.083 0.021-0.083 0.02-0.083 0.019-0.091 0.905-4.524-4.053 1.014-0.064 0.016-0.06 0.016-0.118 0.034-0.06 0.019-0.058 0.019-0.059 0.02-0.058 0.02-0.058 0.021-0.057 0.022-0.058 0.022-0.056 0.024-0.057 0.023-0.112 0.05-0.056 0.026-0.11 0.054-0.108 0.056-0.054 0.029-0.053 0.03-0.106 0.062-0.052 0.031-0.052 0.033-0.102 0.066-0.05 0.035-0.051 0.034-0.147 0.108-0.048 0.037-0.048 0.038-0.048 0.039-0.047 0.039-0.046 0.039-0.046 0.04-0.046 0.041-0.045 0.041-0.088 0.084-0.044 0.043-0.043 0.044-0.084 0.088-0.042 0.045-0.041 0.046-0.04 0.046-0.04 0.047-0.078 0.094-0.038 0.048-0.038 0.049-0.037 0.049-0.072 0.1-0.036 0.051-0.034 0.051-0.068 0.104-0.033 0.052-0.034 0.056-2.234 3.724-1.715-1.029 2.237-3.729 0.044-0.072 0.046-0.073 0.047-0.073 0.096-0.144 0.05-0.071 0.05-0.07 0.051-0.07 0.052-0.069 0.106-0.136 0.054-0.066 0.055-0.066 0.056-0.066 0.114-0.128 0.058-0.063 0.118-0.124 0.061-0.061 0.061-0.06 0.061-0.059 0.063-0.059 0.126-0.114 0.065-0.057 0.065-0.055 0.132-0.108 0.067-0.053 0.068-0.052 0.068-0.051 0.069-0.051 0.069-0.049 0.07-0.049 0.071-0.048 0.072-0.047 0.071-0.046 0.146-0.09 0.073-0.043 0.075-0.043 0.074-0.041 0.075-0.041 0.076-0.04 0.076-0.039 0.077-0.038 0.077-0.037 0.078-0.037 0.078-0.035 0.158-0.068 0.16-0.064 0.162-0.06 0.081-0.028 0.082-0.028 0.082-0.027 0.166-0.05 0.083-0.024 0.084-0.022 0.082-0.021 6.7-1.675 0.339 0.323z"/><path d="m12.382 10c-2.02 0-3.813 1.292-4.451 3.208-1e-3 1e-3 -1e-3 1e-3 -1e-3 2e-3 -0.604 1.811-0.604 3.769 0 5.58 0.763 2.288 1.756 5.269 2.009 6.028 0.041 0.121 0.077 0.244 0.108 0.368 0.043 0.173 0.113 0.453 0.196 0.784 0.445 1.781 2.045 3.03 3.88 3.03h3.754c1.835 0 3.435-1.249 3.88-3.03 0.083-0.331 0.153-0.611 0.196-0.784 0.031-0.124 0.067-0.247 0.108-0.368 0.253-0.759 1.246-3.74 2.009-6.028 0.604-1.811 0.604-3.769 0-5.58 0-1e-3 0-1e-3 -1e-3 -2e-3 -0.638-1.916-2.431-3.208-4.451-3.208h-7.236z" fill="#bb9753"/><path d="m18.531 26.001 0.032 3e-3 0.031 5e-3 0.03 7e-3 0.031 8e-3 0.029 0.011 0.029 0.013 0.028 0.014 0.027 0.016 0.026 0.017 0.025 0.02 0.023 0.021 0.022 0.022 0.021 0.023 0.02 0.025 0.017 0.026 0.016 0.027 0.014 0.028 0.013 0.029 0.011 0.029 8e-3 0.031 7e-3 0.03 5e-3 0.031 3e-3 0.032 1e-3 0.031-1e-3 0.031-3e-3 0.032-5e-3 0.031-7e-3 0.03-8e-3 0.031-0.011 0.029-0.013 0.029-0.014 0.028-0.016 0.027-0.017 0.026-0.02 0.025-0.021 0.023-0.022 0.022-0.023 0.021-0.025 0.02-0.026 0.017-0.027 0.016-0.028 0.014-0.029 0.013-0.029 0.011-0.031 8e-3 -0.03 7e-3 -0.031 5e-3 -0.032 3e-3 -0.031 1e-3h-5l-0.031-1e-3 -0.032-3e-3 -0.031-5e-3 -0.03-7e-3 -0.031-8e-3 -0.029-0.011-0.029-0.013-0.028-0.014-0.027-0.016-0.026-0.017-0.025-0.02-0.023-0.021-0.022-0.022-0.021-0.023-0.02-0.025-0.017-0.026-0.016-0.027-0.014-0.028-0.013-0.029-0.011-0.029-8e-3 -0.031-7e-3 -0.03-5e-3 -0.031-3e-3 -0.032-1e-3 -0.031 1e-3 -0.031 3e-3 -0.032 5e-3 -0.031 7e-3 -0.03 8e-3 -0.031 0.011-0.029 0.013-0.029 0.014-0.028 0.016-0.027 0.017-0.026 0.02-0.025 0.021-0.023 0.022-0.022 0.023-0.021 0.025-0.02 0.026-0.017 0.027-0.016 0.028-0.014 0.029-0.013 0.029-0.011 0.031-8e-3 0.03-7e-3 0.031-5e-3 0.032-3e-3 0.031-1e-3h5l0.031 1e-3z" fill="#57422d"/><path d="m24 15s-0.28 0.841-0.544 1.632c-0.272 0.817-1.037 1.368-1.898 1.368h-1.558c0-1.657 1.343-3 3-3h1z"/><path d="m8 15s0.28 0.841 0.544 1.632c0.272 0.817 1.037 1.368 1.898 1.368h1.558c0-1.657-1.343-3-3-3h-1z"/><path d="m14.882 21c-1.039 0-1.882 0.843-1.882 1.882v1e-3c0 0.075 0.03 0.147 0.083 0.2l0.917 0.917v1e-3c0 0.552 0.447 0.999 0.999 0.999h2.001c0.552 0 1-0.448 1-1l0.917-0.917c0.053-0.053 0.083-0.125 0.083-0.2v-1e-3c0-1.039-0.843-1.882-1.882-1.882h-2.236z"/></g></g></svg>
