<?xml version="1.0" encoding="UTF-8"?>
<!DOCTYPE svg  PUBLIC '-//W3C//DTD SVG 1.1//EN'  'http://www.w3.org/Graphics/SVG/1.1/DTD/svg11.dtd'>
<svg clip-rule="evenodd" fill-rule="evenodd" stroke-linejoin="round" stroke-miterlimit="1.4142" version="1.1" viewBox="0 0 32 32" xml:space="preserve" xmlns="http://www.w3.org/2000/svg">
<metadata>
<rdf:RDF xmlns:cc="http://web.resource.org/cc/" xmlns:dc="http://purl.org/dc/elements/1.1/" xmlns:rdf="http://www.w3.org/1999/02/22-rdf-syntax-ns#">

     <rdf:Description rdf:about="">
       <dc:title>Mutant Standard emoji 2023.12</dc:title>
     </rdf:Description>

    <cc:work rdf:about="">
        <cc:license rdf:resource="http://creativecommons.org/licenses/by-nc-sa/4.0/"/>
        <cc:attributionName>Caius Nocturne</cc:attributionName>
        <cc:attributionURL>http://mutant.tech/</cc:attributionURL>
    </cc:work>

</rdf:RDF>
</metadata>
<rect id="mouse" width="32" height="32" fill="none"/><g id="outline"><path d="m13.859 9c-2.876 0-5.404 1.907-6.194 4.672v1e-3c-0.439 1.536-0.563 3.144-0.365 4.728 0.127 1.018 0.275 2.2 0.402 3.216 0.193 1.544 0.896 2.981 1.996 4.081l2.13 2.13c0.751 0.751 1.768 1.172 2.829 1.172h2.686c1.061 0 2.078-0.421 2.829-1.172l2.13-2.13c1.1-1.1 1.803-2.537 1.996-4.081 0.127-1.016 0.275-2.198 0.402-3.216 0.198-1.584 0.074-3.192-0.365-4.728v-1e-3c-0.79-2.765-3.318-4.672-6.194-4.672h-4.282z"/><path d="m18.317 7.002 0.175 5e-3 0.175 9e-3 0.174 0.013 0.173 0.016 0.172 0.02 0.172 0.023 0.17 0.026 0.17 0.03 0.169 0.034 0.167 0.036 0.167 0.04 0.165 0.044 0.164 0.046 0.162 0.05 0.162 0.053 0.16 0.056 0.159 0.06 0.157 0.062 0.156 0.065 0.154 0.069 0.153 0.071 0.151 0.075 0.149 0.077 0.148 0.08 0.146 0.083 0.144 0.086 0.143 0.089 0.14 0.091 0.139 0.095 0.137 0.097 0.135 0.099 0.132 0.103 0.131 0.104 0.129 0.108 0.127 0.11 0.124 0.113 0.122 0.115 0.12 0.117 0.118 0.12 0.115 0.123 0.113 0.125 0.111 0.127 0.108 0.129 0.106 0.132 0.103 0.134 0.101 0.136 0.098 0.139 0.095 0.141 0.093 0.142 0.089 0.145 0.087 0.147 0.085 0.149 0.081 0.151 0.078 0.153 0.076 0.155 0.072 0.157 0.07 0.158 0.066 0.161 0.063 0.162 0.06 0.163 0.057 0.166 0.053 0.167 0.047 0.159 5e-3 0.017 0.045 0.162 0.045 0.169 0.043 0.17 0.04 0.17 0.039 0.17 0.036 0.17 0.034 0.171 0.032 0.172 0.029 0.172 0.028 0.172 0.025 0.172 0.023 0.172 0.021 0.173 0.019 0.173 0.017 0.174 0.014 0.173 0.013 0.174 0.01 0.173 8e-3 0.174 6e-3 0.174 3e-3 0.174 1e-3 0.175v0.174l-3e-3 0.174-6e-3 0.174-7e-3 0.174-0.01 0.175-0.011 0.174-0.014 0.174-0.017 0.174-0.018 0.173-0.02 0.168-0.403 3.227-0.012 0.088-0.013 0.093-0.014 0.092-0.015 0.092-0.016 0.093-0.016 0.091-0.018 0.092-0.019 0.091-0.02 0.092-0.021 0.095-0.043 0.176-0.048 0.18-0.051 0.179-0.055 0.177-0.059 0.176-0.062 0.175-0.065 0.173-0.07 0.172-0.072 0.17-0.077 0.169-0.079 0.167-0.083 0.165-0.087 0.164-0.089 0.162-0.093 0.16-0.097 0.158-0.1 0.156-0.103 0.155-0.106 0.152-0.109 0.15-0.113 0.148-0.112 0.142-0.063 0.076-0.12 0.142-0.124 0.14-0.126 0.138-0.065 0.068-0.065 0.067-0.062 0.063-2.143 2.142-0.098 0.096-0.109 0.101-0.111 0.098-0.113 0.095-0.116 0.093-0.117 0.089-0.12 0.086-0.121 0.083-0.123 0.08-0.125 0.077-0.127 0.074-0.128 0.07-0.131 0.068-0.131 0.064-0.133 0.061-0.135 0.057-0.136 0.055-0.137 0.051-0.138 0.047-0.14 0.045-0.14 0.041-0.142 0.037-0.143 0.034-0.144 0.031-0.144 0.027-0.146 0.023-0.146 0.02-0.147 0.017-0.147 0.013-0.148 9e-3 -0.149 5e-3 -0.136 2e-3h-2.712l-0.136-2e-3 -0.149-5e-3 -0.148-9e-3 -0.147-0.013-0.147-0.017-0.146-0.02-0.146-0.023-0.144-0.027-0.144-0.031-0.143-0.034-0.142-0.037-0.14-0.041-0.14-0.045-0.138-0.047-0.137-0.051-0.136-0.055-0.135-0.057-0.133-0.061-0.131-0.064-0.131-0.068-0.128-0.07-0.127-0.074-0.125-0.077-0.123-0.08-0.121-0.083-0.12-0.086-0.117-0.089-0.116-0.093-0.113-0.095-0.111-0.098-0.109-0.101-0.098-0.096-2.143-2.142-0.062-0.063-0.065-0.067-0.065-0.068-0.126-0.138-0.124-0.14-0.12-0.142-0.063-0.076-0.112-0.142-0.113-0.148-0.109-0.15-0.106-0.152-0.103-0.155-0.1-0.156-0.097-0.158-0.093-0.16-0.089-0.162-0.087-0.164-0.083-0.165-0.079-0.167-0.077-0.169-0.072-0.17-0.07-0.172-0.065-0.173-0.062-0.175-0.059-0.176-0.055-0.177-0.051-0.179-0.048-0.18-0.043-0.176-0.021-0.095-0.02-0.092-0.019-0.091-0.018-0.092-0.016-0.091-0.016-0.093-0.015-0.092-0.014-0.092-0.013-0.093-0.012-0.088-0.403-3.227-0.02-0.168-0.018-0.173-0.017-0.174-0.014-0.174-0.011-0.174-0.01-0.175-7e-3 -0.174-6e-3 -0.174-3e-3 -0.174v-0.174l1e-3 -0.175 3e-3 -0.174 6e-3 -0.174 8e-3 -0.174 0.01-0.173 0.013-0.174 0.014-0.173 0.017-0.174 0.019-0.173 0.021-0.173 0.023-0.172 0.025-0.172 0.028-0.173 0.029-0.171 0.032-0.172 0.034-0.171 0.036-0.17 0.039-0.17 0.04-0.17 0.043-0.17 0.045-0.169 0.045-0.161 5e-3 -0.018 0.047-0.159 0.053-0.167 0.057-0.166 0.06-0.163 0.063-0.162 0.066-0.161 0.07-0.158 0.072-0.157 0.076-0.155 0.078-0.153 0.081-0.151 0.085-0.149 0.087-0.147 0.089-0.145 0.093-0.142 0.095-0.141 0.098-0.139 0.101-0.136 0.103-0.134 0.106-0.132 0.108-0.129 0.111-0.127 0.113-0.125 0.115-0.123 0.118-0.12 0.12-0.117 0.122-0.115 0.124-0.113 0.127-0.11 0.129-0.108 0.131-0.104 0.132-0.103 0.135-0.099 0.137-0.097 0.139-0.095 0.14-0.091 0.143-0.089 0.144-0.086 0.146-0.083 0.148-0.08 0.149-0.077 0.151-0.075 0.153-0.071 0.154-0.069 0.156-0.065 0.157-0.062 0.159-0.06 0.16-0.056 0.162-0.053 0.162-0.05 0.164-0.046 0.165-0.044 0.167-0.04 0.167-0.036 0.169-0.034 0.17-0.03 0.17-0.026 0.172-0.023 0.172-0.02 0.173-0.016 0.174-0.013 0.175-9e-3 0.175-5e-3 0.166-2e-3h4.302l0.166 2e-3zm-4.447 3.998-0.104 1e-3 -0.093 3e-3 -0.092 5e-3 -0.092 6e-3 -0.091 9e-3 -0.09 0.01-0.091 0.012-0.089 0.014-0.089 0.016-0.089 0.018-0.088 0.019-0.087 0.021-0.087 0.023-0.086 0.024-0.085 0.026-0.085 0.028-0.084 0.03-0.083 0.031-0.083 0.032-0.082 0.035-0.081 0.036-0.08 0.037-0.08 0.04-0.078 0.04-0.078 0.042-0.077 0.044-0.076 0.046-0.075 0.046-0.074 0.049-0.073 0.049-0.073 0.051-0.071 0.053-0.07 0.054-0.069 0.055-0.068 0.057-0.066 0.058-0.066 0.059-0.064 0.061-0.063 0.062-0.062 0.063-0.061 0.064-0.06 0.066-0.058 0.067-0.057 0.068-0.055 0.069-0.054 0.071-0.053 0.071-0.052 0.073-0.05 0.074-0.048 0.075-0.048 0.076-0.045 0.077-0.044 0.078-0.043 0.079-0.041 0.081-0.04 0.081-0.038 0.082-0.036 0.084-0.035 0.084-0.034 0.085-0.031 0.087-0.03 0.087-0.028 0.088-0.028 0.094-0.033 0.117-0.062 0.24-0.029 0.121-0.027 0.121-0.026 0.122-0.024 0.121-0.023 0.122-0.021 0.122-0.019 0.123-0.018 0.122-0.017 0.123-0.015 0.123-0.013 0.123-0.012 0.123-0.01 0.124-9e-3 0.123-7e-3 0.124-6e-3 0.123-4e-3 0.124-2e-3 0.124-1e-3 0.124v0.124l2e-3 0.124 4e-3 0.124 5e-3 0.124 7e-3 0.123 0.018 0.248 0.012 0.124 0.013 0.123 0.015 0.13 0.401 3.205 7e-3 0.056 8e-3 0.052 7e-3 0.051 9e-3 0.052 0.018 0.102 0.02 0.102 0.011 0.05 0.011 0.046 0.025 0.105 0.027 0.1 0.028 0.099 0.031 0.099 0.032 0.097 0.035 0.097 0.036 0.097 0.039 0.095 0.04 0.095 0.042 0.093 0.045 0.093 0.046 0.092 0.048 0.091 0.05 0.09 0.051 0.089 0.054 0.088 0.055 0.087 0.058 0.085 0.059 0.085 0.06 0.083 0.063 0.083 0.067 0.085 0.03 0.036 0.033 0.039 0.034 0.04 0.034 0.039 0.034 0.038 0.035 0.039 0.072 0.076 0.036 0.037 0.04 0.041 2.118 2.117 0.044 0.044 0.037 0.034 0.037 0.032 0.038 0.032 0.038 0.031 0.039 0.029 0.04 0.029 0.04 0.028 0.041 0.027 0.084 0.05 0.086 0.046 0.044 0.021 0.09 0.04 0.045 0.018 0.046 0.017 0.046 0.016 0.046 0.014 0.047 0.014 0.047 0.013 0.048 0.011 0.048 0.01 0.048 9e-3 0.048 8e-3 0.049 7e-3 0.049 5e-3 0.049 4e-3 0.05 3e-3 0.049 2e-3 0.062 1e-3h2.662l0.062-1e-3 0.049-2e-3 0.05-3e-3 0.049-4e-3 0.049-5e-3 0.049-7e-3 0.048-8e-3 0.048-9e-3 0.048-0.01 0.048-0.011 0.047-0.013 0.047-0.014 0.046-0.014 0.046-0.016 0.046-0.017 0.045-0.018 0.09-0.04 0.044-0.021 0.086-0.046 0.084-0.05 0.041-0.027 0.04-0.028 0.04-0.029 0.039-0.029 0.038-0.031 0.038-0.032 0.037-0.032 0.037-0.034 0.044-0.044 2.118-2.117 0.04-0.041 0.036-0.037 0.072-0.076 0.035-0.039 0.034-0.038 0.034-0.039 0.034-0.04 0.033-0.039 0.03-0.036 0.067-0.085 0.063-0.083 0.06-0.083 0.059-0.085 0.058-0.085 0.055-0.087 0.054-0.088 0.051-0.089 0.05-0.09 0.048-0.091 0.046-0.092 0.045-0.093 0.042-0.093 0.04-0.095 0.039-0.095 0.036-0.097 0.035-0.097 0.032-0.097 0.031-0.099 0.028-0.099 0.027-0.1 0.025-0.105 0.011-0.046 0.011-0.05 0.02-0.102 0.018-0.102 9e-3 -0.052 7e-3 -0.051 8e-3 -0.052 7e-3 -0.056 0.401-3.205 0.015-0.13 0.013-0.123 0.012-0.124 0.018-0.248 7e-3 -0.123 5e-3 -0.124 4e-3 -0.124 2e-3 -0.124v-0.124l-1e-3 -0.124-2e-3 -0.124-4e-3 -0.124-6e-3 -0.123-7e-3 -0.124-9e-3 -0.123-0.01-0.124-0.012-0.123-0.013-0.123-0.015-0.123-0.017-0.123-0.018-0.122-0.019-0.123-0.021-0.122-0.023-0.122-0.024-0.121-0.026-0.122-0.027-0.121-0.029-0.121-0.062-0.24-0.033-0.117-0.028-0.094-0.028-0.088-0.03-0.087-0.031-0.087-0.034-0.085-0.035-0.084-0.036-0.084-0.038-0.082-0.04-0.081-0.041-0.081-0.043-0.079-0.044-0.078-0.045-0.077-0.048-0.076-0.048-0.075-0.05-0.074-0.052-0.073-0.053-0.071-0.054-0.071-0.055-0.069-0.057-0.068-0.058-0.067-0.06-0.066-0.061-0.064-0.062-0.063-0.063-0.062-0.064-0.061-0.066-0.059-0.066-0.058-0.068-0.057-0.069-0.055-0.07-0.054-0.071-0.053-0.073-0.051-0.073-0.049-0.074-0.049-0.075-0.046-0.076-0.046-0.077-0.044-0.078-0.042-0.078-0.04-0.08-0.04-0.08-0.037-0.081-0.036-0.082-0.035-0.083-0.032-0.083-0.031-0.084-0.03-0.085-0.028-0.085-0.026-0.086-0.024-0.087-0.023-0.087-0.021-0.088-0.019-0.089-0.018-0.089-0.016-0.089-0.014-0.091-0.012-0.09-0.01-0.091-9e-3 -0.092-6e-3 -0.092-5e-3 -0.093-3e-3 -0.104-1e-3h-4.26z"/></g><g id="emoji"><path d="m12 11v-1e-3c-0.622-3.109-2.805-5.676-5.774-6.789-1.711-0.642-3.226-1.21-3.226-1.21s-0.544 1.994-1.168 4.284c-1.051 3.851 0.898 7.886 4.566 9.458 0.374 0.16 0.602 0.258 0.602 0.258" fill="#d0c1a4"/><clipPath id="_clip1"><path d="m12 11v-1e-3c-0.622-3.109-2.805-5.676-5.774-6.789-1.711-0.642-3.226-1.21-3.226-1.21s-0.544 1.994-1.168 4.284c-1.051 3.851 0.898 7.886 4.566 9.458 0.374 0.16 0.602 0.258 0.602 0.258"/></clipPath><g clip-path="url(#_clip1)"><path d="m9 12s-0.076-0.379-0.186-0.928c-0.517-2.587-2.129-4.823-4.419-6.132l-3.395-1.94 1-2 9 4 3 7h-5z" fill="#a69068"/></g><path d="m6.581 3.275 0.15 0.058 0.153 0.061 0.151 0.064 0.149 0.066 0.149 0.068 0.147 0.07 0.145 0.073 0.145 0.075 0.142 0.077 0.142 0.079 0.139 0.082 0.139 0.083 0.137 0.086 0.135 0.088 0.134 0.089 0.132 0.092 0.131 0.094 0.129 0.095 0.127 0.098 0.126 0.1 0.124 0.101 0.122 0.103 0.121 0.105 0.118 0.107 0.118 0.109 0.115 0.111 0.114 0.112 0.111 0.114 0.11 0.116 0.108 0.117 0.107 0.12 0.104 0.12 0.102 0.123 0.101 0.124 0.099 0.125 0.096 0.127 0.095 0.129 0.092 0.13 0.091 0.132 0.088 0.133 0.087 0.135 0.084 0.135 0.083 0.138 0.08 0.139 0.078 0.14 0.076 0.141 0.074 0.143 0.071 0.144 0.069 0.145 0.067 0.146 0.065 0.148 0.063 0.149 0.06 0.15 0.058 0.151 0.055 0.152 0.053 0.153 0.051 0.155 0.049 0.155 0.046 0.157 0.043 0.157 0.041 0.158 0.039 0.16 0.036 0.16 0.033 0.157 0.197 0.985-1.961 0.393-0.196-0.977-0.028-0.134-0.029-0.129-0.031-0.128-0.033-0.127-0.035-0.127-0.037-0.125-0.039-0.125-0.04-0.124-0.043-0.123-0.045-0.123-0.046-0.121-0.049-0.121-0.05-0.119-0.052-0.119-0.054-0.117-0.055-0.117-0.058-0.116-0.059-0.114-0.061-0.114-0.063-0.112-0.064-0.112-0.066-0.11-0.068-0.109-0.069-0.108-0.072-0.107-0.072-0.106-0.075-0.105-0.076-0.103-0.077-0.102-0.08-0.101-0.08-0.1-0.083-0.098-0.084-0.097-0.085-0.096-0.087-0.094-0.088-0.093-0.09-0.092-0.091-0.09-0.093-0.089-0.094-0.087-0.096-0.086-0.096-0.085-0.099-0.083-0.099-0.081-0.101-0.08-0.103-0.079-0.103-0.076-0.105-0.076-0.106-0.073-0.108-0.072-0.108-0.071-0.11-0.069-0.111-0.067-0.113-0.065-0.113-0.064-0.115-0.062-0.116-0.06-0.117-0.058-0.118-0.057-0.119-0.055-0.12-0.053-0.122-0.051-0.122-0.049-0.127-0.049-2.196-0.823-0.879 3.222-0.022 0.082-0.02 0.08-0.019 0.079-0.018 0.079-0.034 0.158-0.015 0.08-0.015 0.079-0.026 0.158-0.011 0.08-0.011 0.079-0.01 0.079-9e-3 0.079-8e-3 0.079-7e-3 0.079-6e-3 0.079-5e-3 0.079-8e-3 0.158-2e-3 0.079-2e-3 0.078v0.079 0.078l1e-3 0.079 2e-3 0.078 6e-3 0.156 0.01 0.156 6e-3 0.077 8e-3 0.078 0.016 0.154 0.01 0.077 0.022 0.154 0.012 0.077 0.013 0.076 0.014 0.076 0.015 0.076 0.016 0.076 0.016 0.075 0.017 0.075 0.018 0.075 0.019 0.075 0.02 0.075 0.02 0.074 0.044 0.148 0.023 0.073 0.023 0.074 0.025 0.073 0.025 0.072 0.026 0.073 0.027 0.072 0.028 0.072 0.028 0.071 0.029 0.071 0.03 0.071 0.031 0.07 0.064 0.14 0.033 0.07 0.034 0.069 0.034 0.068 0.036 0.069 0.036 0.068 0.074 0.134 0.038 0.067 0.039 0.066 0.04 0.066 0.082 0.13 0.042 0.065 0.042 0.064 0.044 0.064 0.088 0.126 0.092 0.124 0.094 0.122 0.098 0.12 0.049 0.059 0.05 0.059 0.051 0.058 0.052 0.058 0.052 0.057 0.053 0.057 0.054 0.056 0.054 0.055 0.055 0.055 0.056 0.055 0.056 0.053 0.057 0.054 0.057 0.052 0.059 0.052 0.058 0.052 0.06 0.05 0.06 0.051 0.122 0.098 0.062 0.048 0.063 0.048 0.063 0.047 0.128 0.092 0.065 0.045 0.132 0.088 0.067 0.043 0.067 0.042 0.068 0.042 0.069 0.041 0.069 0.04 0.07 0.039 0.071 0.039 0.071 0.038 0.071 0.037 0.073 0.037 0.072 0.036 0.074 0.035 0.074 0.034 0.074 0.033 0.078 0.034 1.518 0.651-0.788 1.838-1.523-0.653-0.094-0.041-0.095-0.042-0.095-0.044-0.094-0.045-0.094-0.046-0.092-0.047-0.092-0.048-0.092-0.049-0.09-0.049-0.09-0.051-0.089-0.052-0.088-0.052-0.088-0.054-0.087-0.054-0.086-0.056-0.085-0.056-0.085-0.057-0.083-0.058-0.083-0.059-0.082-0.059-0.082-0.061-0.08-0.061-0.08-0.062-0.079-0.063-0.078-0.064-0.078-0.065-0.076-0.065-0.076-0.066-0.075-0.067-0.074-0.068-0.073-0.068-0.073-0.07-0.142-0.14-0.07-0.072-0.069-0.072-0.068-0.073-0.067-0.073-0.067-0.074-0.065-0.075-0.065-0.076-0.064-0.076-0.062-0.077-0.124-0.156-0.06-0.078-0.118-0.16-0.114-0.162-0.11-0.164-0.054-0.083-0.053-0.083-0.052-0.085-0.051-0.084-0.05-0.085-0.049-0.086-0.048-0.086-0.048-0.087-0.046-0.087-0.09-0.176-0.043-0.089-0.084-0.178-0.04-0.091-0.04-0.09-0.076-0.182-0.072-0.184-0.068-0.186-0.033-0.093-0.031-0.094-0.03-0.094-0.03-0.095-0.028-0.094-0.028-0.096-0.026-0.095-0.05-0.192-0.023-0.097-0.022-0.096-0.021-0.097-0.02-0.098-0.019-0.097-0.018-0.098-0.017-0.099-0.016-0.098-0.014-0.099-0.014-0.098-0.012-0.1-0.012-0.099-0.01-0.099-9e-3 -0.1-8e-3 -0.1-7e-3 -0.1-6e-3 -0.101-5e-3 -0.1-3e-3 -0.101-3e-3 -0.1-1e-3 -0.101v-0.101-0.101l3e-3 -0.102 3e-3 -0.101 4e-3 -0.102 6e-3 -0.101 6e-3 -0.102 8e-3 -0.101 9e-3 -0.102 0.022-0.204 0.013-0.101 0.013-0.102 0.015-0.102 0.016-0.102 0.036-0.204 0.02-0.102 0.021-0.101 0.022-0.102 0.023-0.102 0.025-0.101 0.026-0.102 0.026-0.098 1.458-5.346 4.257 1.597z"/><path d="m20 11v-1e-3c0.622-3.109 2.805-5.676 5.774-6.789 1.711-0.642 3.226-1.21 3.226-1.21s0.544 1.994 1.168 4.284c1.051 3.851-0.898 7.886-4.566 9.458-0.374 0.16-0.602 0.258-0.602 0.258" fill="#d0c1a4"/><clipPath id="_clip2"><path d="m20 11v-1e-3c0.622-3.109 2.805-5.676 5.774-6.789 1.711-0.642 3.226-1.21 3.226-1.21s0.544 1.994 1.168 4.284c1.051 3.851-0.898 7.886-4.566 9.458-0.374 0.16-0.602 0.258-0.602 0.258"/></clipPath><g clip-path="url(#_clip2)"><path d="m23 12s0.076-0.379 0.186-0.928c0.517-2.587 2.129-4.823 4.419-6.132l3.395-1.94-1-2-9 4-3 7h5z" fill="#a69068"/></g><path d="m31.134 7.024 0.026 0.098 0.026 0.102 0.025 0.101 0.023 0.102 0.022 0.102 0.021 0.102 0.02 0.101 0.036 0.204 0.016 0.102 0.015 0.102 0.013 0.102 0.013 0.101 0.022 0.204 9e-3 0.102 8e-3 0.101 6e-3 0.102 6e-3 0.101 4e-3 0.102 3e-3 0.101 3e-3 0.102v0.101 0.101l-1e-3 0.101-3e-3 0.1-3e-3 0.101-5e-3 0.1-6e-3 0.101-7e-3 0.1-8e-3 0.1-9e-3 0.099-0.01 0.1-0.012 0.099-0.012 0.1-0.014 0.098-0.014 0.099-0.016 0.098-0.017 0.099-0.018 0.098-0.019 0.097-0.02 0.098-0.021 0.097-0.022 0.096-0.023 0.097-0.05 0.192-0.026 0.095-0.028 0.096-0.028 0.094-0.03 0.095-0.03 0.094-0.031 0.094-0.033 0.093-0.068 0.186-0.072 0.184-0.076 0.182-0.04 0.09-0.04 0.091-0.084 0.178-0.043 0.089-0.09 0.176-0.046 0.087-0.048 0.087-0.048 0.086-0.049 0.086-0.05 0.085-0.051 0.084-0.052 0.085-0.053 0.083-0.054 0.083-0.11 0.164-0.114 0.162-0.118 0.16-0.06 0.078-0.124 0.156-0.062 0.077-0.064 0.076-0.065 0.076-0.065 0.075-0.067 0.074-0.067 0.073-0.068 0.073-0.069 0.072-0.07 0.072-0.142 0.14-0.073 0.07-0.073 0.068-0.074 0.068-0.075 0.067-0.076 0.066-0.076 0.065-0.078 0.065-0.078 0.064-0.079 0.063-0.08 0.062-0.08 0.061-0.082 0.061-0.082 0.059-0.083 0.059-0.083 0.058-0.085 0.057-0.085 0.056-0.086 0.056-0.087 0.054-0.088 0.054-0.088 0.052-0.089 0.052-0.09 0.051-0.09 0.049-0.092 0.049-0.092 0.048-0.092 0.047-0.094 0.046-0.094 0.045-0.095 0.044-0.095 0.042-0.094 0.041-1.523 0.653-0.788-1.838 1.518-0.651 0.078-0.034 0.074-0.033 0.074-0.034 0.074-0.035 0.072-0.036 0.073-0.037 0.071-0.037 0.071-0.038 0.071-0.039 0.07-0.039 0.069-0.04 0.069-0.041 0.068-0.042 0.067-0.042 0.067-0.043 0.132-0.088 0.065-0.045 0.128-0.092 0.063-0.047 0.063-0.048 0.062-0.048 0.122-0.098 0.06-0.051 0.06-0.05 0.058-0.052 0.059-0.052 0.057-0.052 0.057-0.054 0.056-0.053 0.056-0.055 0.055-0.055 0.054-0.055 0.054-0.056 0.053-0.057 0.052-0.057 0.052-0.058 0.051-0.058 0.05-0.059 0.049-0.059 0.098-0.12 0.094-0.122 0.092-0.124 0.088-0.126 0.044-0.064 0.084-0.128 0.041-0.066 0.041-0.065 0.04-0.066 0.039-0.066 0.038-0.067 0.074-0.134 0.036-0.068 0.036-0.069 0.034-0.068 0.034-0.069 0.033-0.07 0.064-0.14 0.031-0.07 0.03-0.071 0.029-0.071 0.028-0.071 0.028-0.072 0.027-0.072 0.026-0.073 0.025-0.072 0.025-0.073 0.023-0.074 0.023-0.073 0.044-0.148 0.02-0.074 0.02-0.075 0.019-0.075 0.018-0.075 0.017-0.075 0.016-0.075 0.016-0.076 0.015-0.076 0.014-0.076 0.013-0.076 0.012-0.077 0.022-0.154 0.01-0.077 0.016-0.154 8e-3 -0.078 6e-3 -0.077 0.01-0.156 6e-3 -0.156 2e-3 -0.078 1e-3 -0.079v-0.078-0.079l-2e-3 -0.078-2e-3 -0.079-8e-3 -0.158-5e-3 -0.079-6e-3 -0.079-7e-3 -0.079-8e-3 -0.079-9e-3 -0.079-0.01-0.079-0.011-0.079-0.011-0.08-0.026-0.158-0.015-0.079-0.015-0.08-0.034-0.158-0.018-0.079-0.019-0.079-0.02-0.08-0.022-0.082-0.879-3.222-2.196 0.823-0.127 0.049-0.122 0.049-0.122 0.051-0.12 0.053-0.119 0.055-0.118 0.057-0.117 0.058-0.116 0.06-0.115 0.062-0.113 0.064-0.113 0.065-0.111 0.067-0.11 0.069-0.108 0.071-0.108 0.072-0.106 0.073-0.105 0.076-0.103 0.076-0.103 0.079-0.101 0.08-0.099 0.081-0.099 0.083-0.096 0.085-0.096 0.086-0.094 0.087-0.093 0.089-0.091 0.09-0.09 0.092-0.088 0.093-0.087 0.094-0.085 0.096-0.084 0.097-0.083 0.098-0.08 0.1-0.08 0.101-0.077 0.102-0.076 0.103-0.075 0.105-0.072 0.106-0.072 0.107-0.069 0.108-0.068 0.109-0.066 0.11-0.064 0.112-0.063 0.112-0.061 0.114-0.059 0.114-0.058 0.116-0.055 0.117-0.054 0.117-0.052 0.119-0.05 0.119-0.049 0.121-0.046 0.121-0.045 0.123-0.043 0.123-0.04 0.124-0.039 0.125-0.037 0.125-0.035 0.127-0.033 0.127-0.031 0.128-0.029 0.129-0.028 0.134-0.196 0.977-1.961-0.393 0.197-0.985 0.033-0.157 0.036-0.16 0.039-0.16 0.041-0.158 0.043-0.157 0.046-0.157 0.049-0.155 0.051-0.155 0.053-0.153 0.055-0.152 0.058-0.151 0.06-0.15 0.063-0.149 0.065-0.148 0.067-0.146 0.069-0.145 0.071-0.144 0.074-0.143 0.076-0.141 0.078-0.14 0.08-0.139 0.083-0.138 0.084-0.135 0.087-0.135 0.088-0.133 0.091-0.132 0.092-0.13 0.095-0.129 0.096-0.127 0.099-0.125 0.101-0.124 0.102-0.123 0.104-0.12 0.107-0.12 0.108-0.117 0.11-0.116 0.111-0.114 0.114-0.112 0.115-0.111 0.118-0.109 0.118-0.107 0.121-0.105 0.122-0.103 0.124-0.101 0.126-0.1 0.127-0.098 0.129-0.095 0.131-0.094 0.132-0.092 0.134-0.089 0.135-0.088 0.137-0.086 0.139-0.083 0.139-0.082 0.142-0.079 0.142-0.077 0.145-0.075 0.145-0.073 0.147-0.07 0.149-0.068 0.149-0.066 0.151-0.064 0.153-0.061 0.15-0.058 4.257-1.597 1.458 5.346z"/><path d="m13.859 9c-2.876 0-5.404 1.907-6.194 4.672v1e-3c-0.439 1.536-0.563 3.144-0.365 4.728 0.127 1.018 0.275 2.2 0.402 3.216 0.193 1.544 0.896 2.981 1.996 4.081l2.13 2.13c0.751 0.751 1.768 1.172 2.829 1.172h2.686c1.061 0 2.078-0.421 2.829-1.172l2.13-2.13c1.1-1.1 1.803-2.537 1.996-4.081 0.127-1.016 0.275-2.198 0.402-3.216 0.198-1.584 0.074-3.192-0.365-4.728v-1e-3c-0.79-2.765-3.318-4.672-6.194-4.672h-4.282z" fill="#a69068"/><path d="m18.598 26.01 0.031 7e-3 0.03 9e-3 0.029 0.011 0.029 0.012 0.028 0.015 0.027 0.016 0.025 0.018 0.025 0.02 0.024 0.021 0.022 0.022 0.02 0.024 0.019 0.025 0.018 0.026 0.015 0.027 0.014 0.028 0.013 0.029 0.01 0.03 8e-3 0.03 7e-3 0.031 5e-3 0.031 2e-3 0.031 1e-3 0.031-1e-3 0.032-4e-3 0.031-5e-3 0.031-7e-3 0.031-9e-3 0.03-0.011 0.029-0.012 0.029-0.015 0.028-0.016 0.027-0.018 0.025-0.02 0.025-0.021 0.024-0.022 0.022-0.024 0.02-0.025 0.019-0.026 0.018-0.027 0.015-0.028 0.014-0.029 0.013-0.03 0.01-0.03 8e-3 -0.031 7e-3 -0.031 5e-3 -0.031 2e-3 -0.031 1e-3 -0.032-1e-3 -0.031-4e-3 -0.031-5e-3 -2.402-0.48-2.402 0.48-0.031 5e-3 -0.031 4e-3 -0.032 1e-3 -0.031-1e-3 -0.031-2e-3 -0.031-5e-3 -0.031-7e-3 -0.03-8e-3 -0.03-0.01-0.029-0.013-0.028-0.014-0.027-0.015-0.026-0.018-0.025-0.019-0.024-0.02-0.022-0.022-0.021-0.024-0.02-0.025-0.018-0.025-0.016-0.027-0.015-0.028-0.012-0.029-0.011-0.029-9e-3 -0.03-7e-3 -0.031-5e-3 -0.031-4e-3 -0.031-1e-3 -0.032 1e-3 -0.031 2e-3 -0.031 5e-3 -0.031 7e-3 -0.031 8e-3 -0.03 0.01-0.03 0.013-0.029 0.014-0.028 0.015-0.027 0.018-0.026 0.019-0.025 0.02-0.024 0.022-0.022 0.024-0.021 0.025-0.02 0.025-0.018 0.027-0.016 0.028-0.015 0.029-0.012 0.029-0.011 0.03-9e-3 0.031-7e-3 2.598-0.52 2.598 0.52z" fill="#57422d"/><path d="m20.461 16c0.904 0 1.693 0.616 1.912 1.493 0.077 0.306 0.157 0.629 0.234 0.937 0.095 0.377 0.01 0.777-0.229 1.084-0.24 0.307-0.607 0.486-0.996 0.486h-0.097c-1.262 0-2.285-1.023-2.285-2.285v-0.422c0-0.714 0.579-1.293 1.293-1.293h0.168z"/><path d="m11.539 16c-0.904 0-1.693 0.616-1.912 1.493-0.077 0.306-0.157 0.629-0.234 0.937-0.095 0.377-0.01 0.777 0.229 1.084 0.24 0.307 0.607 0.486 0.996 0.486h0.097c1.262 0 2.285-1.023 2.285-2.285v-0.422c0-0.714-0.579-1.293-1.293-1.293h-0.168z"/><path d="m15.387 22c-0.321 0-0.623 0.155-0.811 0.415-0.188 0.261-0.239 0.596-0.137 0.901 0.115 0.345 0.234 0.703 0.333 1 0.136 0.409 0.518 0.684 0.949 0.684h0.558c0.431 0 0.813-0.275 0.949-0.684 0.099-0.297 0.218-0.655 0.333-1 0.102-0.305 0.051-0.64-0.137-0.901-0.188-0.26-0.49-0.415-0.811-0.415h-1.226z" fill="#f69191"/></g></svg>
