<?xml version="1.0" encoding="UTF-8"?>
<!DOCTYPE svg  PUBLIC '-//W3C//DTD SVG 1.1//EN'  'http://www.w3.org/Graphics/SVG/1.1/DTD/svg11.dtd'>
<svg clip-rule="evenodd" fill-rule="evenodd" stroke-linecap="round" version="1.1" viewBox="0 0 32 32" xml:space="preserve" xmlns="http://www.w3.org/2000/svg">
<metadata>
<rdf:RDF xmlns:cc="http://web.resource.org/cc/" xmlns:dc="http://purl.org/dc/elements/1.1/" xmlns:rdf="http://www.w3.org/1999/02/22-rdf-syntax-ns#">

     <rdf:Description rdf:about="">
       <dc:title>Mutant Standard emoji 2023.12</dc:title>
     </rdf:Description>

    <cc:work rdf:about="">
        <cc:license rdf:resource="http://creativecommons.org/licenses/by-nc-sa/4.0/"/>
        <cc:attributionName>Caius Nocturne</cc:attributionName>
        <cc:attributionURL>http://mutant.tech/</cc:attributionURL>
    </cc:work>

</rdf:RDF>
</metadata>
<rect id="opossum" width="32" height="32" fill="none"/><clipPath id="_clip1"><rect width="32" height="32"/></clipPath><g clip-path="url(#_clip1)"><g id="outline"><path d="m23 11.141c0-1.338 0.668-2.587 1.781-3.328 0.162-0.108 0.319-0.213 0.463-0.309 0.493-0.329 1.072-0.504 1.664-0.504h0.092c0.796 0 1.559 0.316 2.121 0.879 0.563 0.562 0.879 1.325 0.879 2.121v1.146c0 1.136-0.642 2.175-1.658 2.683-0.135 0.067-0.272 0.136-0.408 0.204-1.155 0.577-2.55 0.351-3.463-0.562l-1.471-1.471v-0.859z" fill="none" stroke="#000" stroke-width="4px"/><path d="m9 11.141c0-1.338-0.668-2.587-1.781-3.328-0.162-0.108-0.319-0.213-0.463-0.309-0.493-0.329-1.072-0.504-1.664-0.504h-0.092c-0.796 0-1.559 0.316-2.121 0.879-0.563 0.562-0.879 1.325-0.879 2.121v1.146c0 1.136 0.642 2.175 1.658 2.683 0.135 0.067 0.272 0.136 0.408 0.204 1.155 0.577 2.55 0.351 3.463-0.562l1.471-1.471v-0.859z" fill="none" stroke="#000" stroke-width="4px"/><path d="m14 6c-4.971 0-9 4.029-9 9v0.912c0 2.001 0.667 3.946 1.896 5.525 1.027 1.321 2.29 2.945 3.302 4.247 1.137 1.461 2.885 2.316 4.737 2.316h2.13c1.852 0 3.6-0.855 4.737-2.316 1.012-1.302 2.275-2.926 3.302-4.247 1.229-1.579 1.896-3.524 1.896-5.525v-0.912c0-4.971-4.029-9-9-9h-4z"/><path d="m18.142 4.001 0.141 3e-3 0.141 4e-3 0.14 6e-3 0.141 8e-3 0.139 0.01 0.14 0.011 0.138 0.014 0.139 0.015 0.137 0.016 0.138 0.019 0.137 0.02 0.136 0.021 0.136 0.024 0.135 0.025 0.135 0.026 0.134 0.029 0.133 0.03 0.133 0.031 0.133 0.033 0.131 0.035 0.131 0.036 0.131 0.038 0.129 0.04 0.129 0.041 0.129 0.042 0.127 0.044 0.127 0.046 0.126 0.047 0.126 0.049 0.124 0.05 0.124 0.051 0.124 0.053 0.122 0.055 0.121 0.055 0.121 0.058 0.12 0.058 0.119 0.061 0.118 0.061 0.118 0.063 0.116 0.064 0.116 0.066 0.115 0.066 0.226 0.138 0.112 0.071 0.111 0.072 0.111 0.074 0.109 0.075 0.108 0.076 0.107 0.077 0.107 0.078 0.105 0.08 0.104 0.081 0.104 0.082 0.102 0.084 0.101 0.084 0.1 0.086 0.1 0.087 0.098 0.088 0.097 0.089 0.096 0.091 0.094 0.091 0.094 0.093 0.093 0.094 0.091 0.094 0.091 0.096 0.089 0.097 0.088 0.099 0.087 0.099 0.086 0.1 0.084 0.101 0.084 0.102 0.082 0.104 0.081 0.104 0.08 0.105 0.078 0.107 0.077 0.107 0.077 0.108 0.074 0.109 0.074 0.111 0.072 0.111 0.071 0.112 0.138 0.226 0.066 0.115 0.066 0.116 0.064 0.116 0.063 0.118 0.062 0.118 0.06 0.119 0.058 0.12 0.058 0.121 0.055 0.121 0.055 0.122 0.053 0.124 0.051 0.124 0.05 0.124 0.049 0.126 0.047 0.126 0.046 0.127 0.044 0.127 0.042 0.129 0.041 0.129 0.04 0.129 0.038 0.131 0.036 0.131 0.035 0.131 0.033 0.133 0.031 0.133 0.03 0.133 0.029 0.134 0.026 0.135 0.025 0.135 0.024 0.136 0.021 0.136 0.02 0.137 0.019 0.137 0.016 0.138 0.015 0.139 0.014 0.138 0.011 0.14 0.01 0.14 8e-3 0.14 6e-3 0.14 4e-3 0.141 3e-3 0.141 1e-3 0.136v0.923l-1e-3 0.11-1e-3 0.114-3e-3 0.115-4e-3 0.114-0.012 0.228-8e-3 0.114-9e-3 0.113-0.01 0.114-0.011 0.113-0.026 0.226-0.015 0.113-0.016 0.112-0.017 0.113-0.018 0.112-0.019 0.112-0.042 0.222-0.023 0.111-0.024 0.111-0.025 0.111-0.026 0.11-0.027 0.11-0.029 0.109-0.029 0.11-0.031 0.109-0.031 0.108-0.033 0.108-0.034 0.108-0.035 0.108-0.036 0.107-0.038 0.107-0.038 0.106-0.039 0.106-0.041 0.106-0.084 0.21-0.044 0.104-0.045 0.104-0.046 0.103-0.047 0.103-0.048 0.103-0.049 0.102-0.05 0.102-0.052 0.101-0.052 0.1-0.053 0.1-0.055 0.1-0.055 0.099-0.057 0.099-0.058 0.098-0.058 0.097-0.06 0.097-0.122 0.192-0.063 0.095-0.064 0.095-0.065 0.094-0.066 0.093-0.067 0.093-0.067 0.092-0.069 0.092-0.067 0.086-3.31 4.256-0.067 0.085-0.073 0.09-0.074 0.088-0.075 0.087-0.076 0.086-0.078 0.085-0.078 0.083-0.08 0.083-0.08 0.081-0.082 0.079-0.083 0.079-0.084 0.077-0.085 0.076-0.085 0.075-0.087 0.073-0.088 0.072-0.088 0.071-0.09 0.07-0.09 0.068-0.184 0.132-0.093 0.064-0.094 0.063-0.095 0.061-0.096 0.06-0.096 0.059-0.097 0.057-0.098 0.056-0.099 0.055-0.099 0.053-0.202 0.102-0.101 0.048-0.103 0.048-0.103 0.046-0.103 0.044-0.105 0.043-0.104 0.042-0.106 0.04-0.106 0.039-0.107 0.037-0.107 0.035-0.108 0.035-0.108 0.032-0.109 0.031-0.109 0.03-0.11 0.028-0.11 0.026-0.111 0.025-0.111 0.024-0.112 0.022-0.112 0.02-0.112 0.019-0.113 0.017-0.113 0.015-0.114 0.014-0.113 0.013-0.114 0.01-0.115 9e-3 -0.115 8e-3 -0.114 6e-3 -0.116 4e-3 -0.115 2e-3 -0.108 1e-3h-2.146l-0.108-1e-3 -0.115-2e-3 -0.116-4e-3 -0.114-6e-3 -0.115-8e-3 -0.115-9e-3 -0.114-0.01-0.113-0.013-0.114-0.014-0.113-0.015-0.113-0.017-0.112-0.019-0.112-0.02-0.112-0.022-0.111-0.024-0.111-0.025-0.11-0.026-0.11-0.028-0.109-0.03-0.109-0.031-0.108-0.032-0.108-0.035-0.107-0.035-0.107-0.037-0.106-0.039-0.106-0.04-0.104-0.042-0.105-0.043-0.103-0.044-0.103-0.046-0.103-0.048-0.101-0.048-0.202-0.102-0.099-0.053-0.099-0.055-0.098-0.056-0.097-0.057-0.096-0.059-0.096-0.06-0.095-0.061-0.094-0.063-0.093-0.064-0.184-0.132-0.09-0.068-0.09-0.07-0.088-0.071-0.088-0.072-0.087-0.073-0.085-0.075-0.085-0.076-0.084-0.077-0.083-0.079-0.082-0.079-0.08-0.081-0.08-0.083-0.078-0.083-0.078-0.085-0.076-0.086-0.075-0.087-0.074-0.088-0.073-0.09-0.067-0.085-3.31-4.256-0.067-0.086-0.069-0.092-0.067-0.092-0.067-0.093-0.066-0.093-0.065-0.094-0.064-0.095-0.063-0.095-0.122-0.192-0.06-0.097-0.058-0.097-0.058-0.098-0.057-0.099-0.055-0.099-0.055-0.1-0.053-0.1-0.052-0.1-0.052-0.101-0.05-0.102-0.049-0.102-0.048-0.103-0.047-0.103-0.046-0.103-0.045-0.104-0.044-0.104-0.084-0.21-0.041-0.106-0.039-0.106-0.038-0.106-0.038-0.107-0.036-0.107-0.035-0.108-0.034-0.108-0.033-0.108-0.031-0.108-0.031-0.11-0.058-0.218-0.027-0.11-0.026-0.11-0.025-0.111-0.024-0.111-0.023-0.111-0.042-0.222-0.019-0.112-0.018-0.112-0.017-0.113-0.016-0.112-0.015-0.113-0.026-0.226-0.011-0.113-0.01-0.114-9e-3 -0.113-8e-3 -0.114-0.012-0.228-4e-3 -0.114-3e-3 -0.115-1e-3 -0.114-1e-3 -0.11v-0.923l1e-3 -0.136 3e-3 -0.141 4e-3 -0.141 6e-3 -0.14 8e-3 -0.14 0.01-0.14 0.011-0.14 0.014-0.138 0.015-0.139 0.016-0.138 0.019-0.137 0.02-0.137 0.021-0.136 0.024-0.136 0.025-0.135 0.026-0.135 0.029-0.134 0.03-0.133 0.031-0.133 0.033-0.133 0.035-0.131 0.036-0.131 0.038-0.131 0.04-0.129 0.041-0.129 0.042-0.129 0.044-0.127 0.046-0.127 0.047-0.126 0.049-0.126 0.05-0.124 0.051-0.124 0.053-0.124 0.055-0.122 0.055-0.121 0.058-0.121 0.058-0.12 0.06-0.119 0.062-0.118 0.063-0.118 0.064-0.116 0.066-0.116 0.066-0.115 0.138-0.226 0.071-0.112 0.072-0.111 0.074-0.111 0.074-0.109 0.077-0.108 0.077-0.107 0.078-0.107 0.08-0.105 0.081-0.104 0.082-0.104 0.084-0.102 0.084-0.101 0.086-0.1 0.087-0.099 0.088-0.099 0.089-0.097 0.091-0.096 0.091-0.094 0.093-0.094 0.093-0.093 0.095-0.091 0.096-0.091 0.097-0.089 0.098-0.088 0.1-0.087 0.1-0.086 0.101-0.084 0.102-0.084 0.104-0.082 0.104-0.081 0.105-0.08 0.107-0.078 0.107-0.077 0.108-0.076 0.109-0.075 0.111-0.074 0.111-0.072 0.112-0.071 0.226-0.138 0.115-0.066 0.116-0.066 0.116-0.064 0.118-0.063 0.118-0.061 0.119-0.061 0.12-0.058 0.121-0.058 0.121-0.055 0.122-0.055 0.124-0.053 0.124-0.051 0.124-0.05 0.126-0.049 0.126-0.047 0.127-0.046 0.127-0.044 0.129-0.042 0.129-0.041 0.129-0.04 0.131-0.038 0.131-0.036 0.131-0.035 0.133-0.033 0.133-0.031 0.133-0.03 0.134-0.029 0.135-0.026 0.135-0.025 0.136-0.024 0.136-0.021 0.137-0.02 0.138-0.019 0.137-0.016 0.139-0.015 0.138-0.014 0.14-0.011 0.139-0.01 0.141-8e-3 0.14-6e-3 0.141-4e-3 0.141-3e-3 0.136-1e-3h4.012l0.136 1e-3zm-4.136 3.999-0.097 1e-3 -0.091 1e-3 -0.09 3e-3 -0.09 4e-3 -0.09 5e-3 -0.178 0.014-0.088 8e-3 -0.176 0.02-0.087 0.012-0.088 0.013-0.172 0.028-0.086 0.016-0.086 0.017-0.085 0.018-0.085 0.019-0.084 0.02-0.084 0.021-0.083 0.022-0.083 0.023-0.083 0.024-0.082 0.025-0.082 0.026-0.082 0.027-0.08 0.028-0.081 0.029-0.08 0.03-0.079 0.031-0.158 0.064-0.156 0.068-0.154 0.072-0.076 0.038-0.075 0.038-0.076 0.039-0.074 0.04-0.148 0.082-0.073 0.043-0.072 0.043-0.072 0.045-0.071 0.045-0.071 0.046-0.07 0.046-0.07 0.048-0.069 0.048-0.136 0.1-0.067 0.05-0.067 0.052-0.066 0.053-0.065 0.053-0.128 0.108-0.064 0.056-0.062 0.056-0.062 0.057-0.122 0.116-0.06 0.059-0.059 0.06-0.116 0.122-0.057 0.062-0.056 0.062-0.056 0.064-0.108 0.128-0.053 0.065-0.053 0.066-0.052 0.067-0.05 0.067-0.1 0.136-0.048 0.069-0.048 0.07-0.046 0.07-0.092 0.142-0.044 0.072-0.043 0.072-0.043 0.073-0.082 0.148-0.04 0.074-0.039 0.075-0.076 0.152-0.072 0.154-0.068 0.156-0.032 0.078-0.032 0.08-0.031 0.079-0.03 0.08-0.029 0.081-0.028 0.081-0.027 0.081-0.026 0.082-0.025 0.082-0.024 0.082-0.023 0.084-0.022 0.083-0.021 0.084-0.02 0.084-0.019 0.085-0.018 0.085-0.017 0.086-0.016 0.086-0.028 0.172-0.013 0.088-0.012 0.087-0.02 0.176-8e-3 0.088-0.014 0.178-5e-3 0.09-4e-3 0.09-3e-3 0.09-1e-3 0.091-1e-3 0.097v0.901 0.078l2e-3 0.073 1e-3 0.073 3e-3 0.072 3e-3 0.073 5e-3 0.073 0.01 0.144 7e-3 0.072 7e-3 0.073 8e-3 0.071 8e-3 0.072 0.02 0.144 0.01 0.071 0.012 0.072 0.012 0.07 0.013 0.072 0.014 0.071 0.015 0.07 0.015 0.071 0.032 0.14 0.036 0.14 0.018 0.069 0.02 0.069 0.02 0.07 0.021 0.069 0.022 0.068 0.022 0.069 0.023 0.068 0.024 0.068 0.024 0.067 0.025 0.068 0.052 0.134 0.028 0.067 0.027 0.066 0.058 0.132 0.03 0.066 0.062 0.13 0.032 0.065 0.066 0.128 0.034 0.064 0.07 0.126 0.036 0.063 0.074 0.124 0.038 0.062 0.078 0.122 0.04 0.061 0.04 0.06 0.042 0.06 0.041 0.059 0.086 0.118 0.044 0.058 0.048 0.062 3.295 4.236 0.04 0.051 0.036 0.045 0.037 0.044 0.038 0.044 0.038 0.043 0.078 0.084 0.04 0.041 0.04 0.04 0.082 0.08 0.084 0.076 0.043 0.037 0.044 0.037 0.044 0.036 0.044 0.035 0.045 0.035 0.045 0.034 0.046 0.034 0.092 0.064 0.047 0.032 0.048 0.03 0.047 0.03 0.049 0.03 0.048 0.028 0.049 0.028 0.05 0.028 0.049 0.026 0.051 0.026 0.05 0.025 0.051 0.025 0.051 0.023 0.104 0.046 0.104 0.042 0.053 0.02 0.106 0.038 0.054 0.018 0.054 0.017 0.108 0.032 0.165 0.042 0.055 0.012 0.056 0.012 0.056 0.011 0.056 0.01 0.112 0.018 0.057 8e-3 0.056 7e-3 0.057 6e-3 0.057 5e-3 0.058 5e-3 0.114 6e-3 0.116 4e-3h0.065 2.116 0.065l0.116-4e-3 0.114-6e-3 0.058-5e-3 0.057-5e-3 0.057-6e-3 0.056-7e-3 0.057-8e-3 0.112-0.018 0.056-0.01 0.056-0.011 0.056-0.012 0.055-0.012 0.165-0.042 0.108-0.032 0.054-0.017 0.054-0.018 0.106-0.038 0.053-0.02 0.104-0.042 0.104-0.046 0.051-0.023 0.051-0.025 0.05-0.025 0.051-0.026 0.049-0.026 0.05-0.028 0.049-0.028 0.048-0.028 0.049-0.03 0.047-0.03 0.048-0.03 0.047-0.032 0.092-0.064 0.046-0.034 0.045-0.034 0.045-0.035 0.044-0.035 0.044-0.036 0.044-0.037 0.043-0.037 0.084-0.076 0.082-0.08 0.04-0.04 0.04-0.041 0.078-0.084 0.038-0.043 0.038-0.044 0.037-0.044 0.036-0.045 0.04-0.051 3.295-4.236 0.048-0.062 0.044-0.058 0.086-0.118 0.041-0.059 0.042-0.06 0.04-0.061 0.04-0.06 0.078-0.122 0.038-0.062 0.074-0.124 0.036-0.063 0.07-0.126 0.034-0.064 0.066-0.128 0.032-0.065 0.062-0.13 0.03-0.066 0.058-0.132 0.027-0.066 0.028-0.067 0.052-0.134 0.025-0.068 0.024-0.067 0.024-0.068 0.023-0.068 0.022-0.069 0.022-0.068 0.021-0.069 0.02-0.07 0.02-0.069 0.018-0.069 0.036-0.14 0.032-0.14 0.015-0.071 0.015-0.07 0.014-0.071 0.013-0.072 0.012-0.07 0.012-0.072 0.01-0.071 0.02-0.144 8e-3 -0.072 8e-3 -0.071 7e-3 -0.073 7e-3 -0.072 5e-3 -0.072 5e-3 -0.073 5e-3 -0.072 3e-3 -0.073 3e-3 -0.072 1e-3 -0.073 2e-3 -0.073v-0.078-0.901l-1e-3 -0.097-1e-3 -0.091-3e-3 -0.09-4e-3 -0.09-5e-3 -0.09-0.014-0.178-8e-3 -0.088-0.02-0.176-0.012-0.088-0.013-0.087-0.028-0.172-0.016-0.086-0.017-0.086-0.018-0.085-0.019-0.085-0.02-0.084-0.021-0.084-0.022-0.083-0.023-0.083-0.024-0.083-0.025-0.082-0.026-0.082-0.027-0.081-0.028-0.081-0.029-0.081-0.03-0.08-0.031-0.079-0.032-0.08-0.032-0.078-0.068-0.156-0.072-0.154-0.076-0.152-0.039-0.075-0.04-0.074-0.082-0.148-0.043-0.073-0.043-0.072-0.044-0.072-0.092-0.142-0.046-0.07-0.048-0.07-0.048-0.069-0.1-0.136-0.05-0.067-0.052-0.067-0.053-0.066-0.053-0.065-0.108-0.128-0.056-0.064-0.056-0.062-0.057-0.062-0.116-0.122-0.059-0.06-0.06-0.059-0.122-0.116-0.062-0.057-0.062-0.056-0.064-0.056-0.128-0.108-0.065-0.053-0.066-0.053-0.067-0.052-0.067-0.05-0.136-0.1-0.069-0.048-0.07-0.048-0.07-0.046-0.142-0.092-0.072-0.044-0.072-0.043-0.073-0.043-0.148-0.082-0.074-0.04-0.076-0.039-0.075-0.038-0.076-0.038-0.154-0.072-0.156-0.068-0.158-0.064-0.079-0.031-0.08-0.03-0.081-0.029-0.08-0.028-0.082-0.027-0.082-0.026-0.082-0.025-0.083-0.024-0.083-0.023-0.083-0.022-0.084-0.021-0.084-0.02-0.085-0.019-0.085-0.018-0.086-0.017-0.086-0.016-0.172-0.028-0.088-0.013-0.087-0.012-0.176-0.02-0.088-8e-3 -0.178-0.014-0.09-5e-3 -0.09-4e-3 -0.09-3e-3 -0.091-1e-3 -0.097-1e-3h-3.988z"/><path d="m20 21.667 8-2.667" fill="none" stroke="#000" stroke-linejoin="round" stroke-width="5px"/><path d="m12 21.667-8-2.667" fill="none" stroke="#000" stroke-linejoin="round" stroke-width="5px"/><path d="m12 23.833-5 1.667" fill="none" stroke="#000" stroke-linejoin="round" stroke-width="5px"/><path d="m20 23.833 5 1.667" fill="none" stroke="#000" stroke-linejoin="round" stroke-width="5px"/></g><g id="emoji"><path d="m14 6c-4.971 0-9 4.029-9 9v0.912c0 2.001 0.667 3.946 1.896 5.525 1.027 1.321 2.29 2.945 3.302 4.247 1.137 1.461 2.885 2.316 4.737 2.316h2.13c1.852 0 3.6-0.855 4.737-2.316 1.012-1.302 2.275-2.926 3.302-4.247 1.229-1.579 1.896-3.524 1.896-5.525v-0.912c0-4.971-4.029-9-9-9h-4z" fill="#dadada"/><clipPath id="_clip2"><path d="m14 6c-4.971 0-9 4.029-9 9v0.912c0 2.001 0.667 3.946 1.896 5.525 1.027 1.321 2.29 2.945 3.302 4.247 1.137 1.461 2.885 2.316 4.737 2.316h2.13c1.852 0 3.6-0.855 4.737-2.316 1.012-1.302 2.275-2.926 3.302-4.247 1.229-1.579 1.896-3.524 1.896-5.525v-0.912c0-4.971-4.029-9-9-9h-4z"/></clipPath><g clip-path="url(#_clip2)"><path d="m14.859 16.011c0.081 0.567 0.567 0.989 1.14 0.989h2e-3c0.573 0 1.059-0.422 1.14-0.989 0.211-1.475 0.601-4.205 0.773-5.411 0.057-0.396 0.192-0.777 0.398-1.119 0.767-1.28 2.688-4.481 2.688-4.481h-10s1.921 3.201 2.688 4.481c0.206 0.342 0.341 0.723 0.398 1.119 0.172 1.206 0.562 3.936 0.773 5.411z" fill="#bdbdbd"/></g><path d="m20.02 24 0.039 4e-3 0.039 6e-3 0.038 9e-3 0.038 0.012 0.036 0.015 0.035 0.018 0.033 0.021 0.032 0.023 0.03 0.025 0.028 0.028 0.025 0.03 0.023 0.032 0.021 0.033 0.017 0.035 0.015 0.036 0.012 0.038 9e-3 0.038 7e-3 0.039 3e-3 0.039v0.039l-4e-3 0.039-6e-3 0.039-9e-3 0.038-0.012 0.038-0.015 0.036-0.018 0.035-0.021 0.033-0.023 0.032-0.025 0.03-0.028 0.028-0.03 0.025-0.032 0.023-2.5 1.667-0.074 0.047-0.079 0.047-0.081 0.044-0.082 0.04-0.084 0.038-0.085 0.034-0.086 0.032-0.087 0.028-0.088 0.025-0.089 0.021-0.09 0.019-0.09 0.015-0.092 0.012-0.091 8e-3 -0.092 5e-3 -0.088 2e-3h-0.798l-0.088-2e-3 -0.092-5e-3 -0.091-8e-3 -0.092-0.012-0.09-0.015-0.09-0.019-0.089-0.021-0.088-0.025-0.087-0.028-0.086-0.032-0.085-0.034-0.084-0.038-0.082-0.04-0.081-0.044-0.079-0.047-0.074-0.047-2.5-1.667-0.032-0.023-0.03-0.025-0.028-0.028-0.025-0.03-0.023-0.032-0.021-0.033-0.018-0.035-0.015-0.036-0.012-0.038-9e-3 -0.038-6e-3 -0.039-4e-3 -0.039v-0.039l3e-3 -0.039 7e-3 -0.039 9e-3 -0.038 0.012-0.038 0.015-0.036 0.017-0.035 0.021-0.033 0.023-0.032 0.025-0.03 0.028-0.028 0.03-0.025 0.032-0.023 0.033-0.021 0.035-0.018 0.036-0.015 0.038-0.012 0.038-9e-3 0.039-6e-3 0.039-4e-3h0.039l0.039 3e-3 0.039 7e-3 0.038 9e-3 0.038 0.012 0.036 0.015 0.035 0.017 0.033 0.021 2.493 1.661 0.05 0.033 0.048 0.028 0.048 0.026 0.05 0.025 0.05 0.022 0.051 0.021 0.052 0.019 0.052 0.017 0.053 0.015 0.053 0.013 0.054 0.011 0.054 9e-3 0.055 7e-3 0.055 5e-3 0.055 3e-3 0.06 1e-3h0.78l0.06-1e-3 0.055-3e-3 0.055-5e-3 0.055-7e-3 0.054-9e-3 0.054-0.011 0.053-0.013 0.053-0.015 0.052-0.017 0.052-0.019 0.051-0.021 0.05-0.022 0.05-0.025 0.048-0.026 0.048-0.028 0.05-0.033 2.493-1.661 0.033-0.021 0.035-0.017 0.036-0.015 0.038-0.012 0.038-9e-3 0.039-7e-3 0.039-3e-3h0.039z" fill="#cc8484"/><path d="m9 15.484c0-0.394 0.156-0.771 0.435-1.049 0.278-0.279 0.655-0.435 1.049-0.435h2e-3c1.388 0 2.514 1.126 2.514 2.514v2e-3c0 0.394-0.156 0.771-0.435 1.049-0.278 0.279-0.655 0.435-1.049 0.435h-0.516c-1.105 0-2-0.895-2-2v-0.516z"/><path d="m23 15.484c0-0.394-0.156-0.771-0.435-1.049-0.278-0.279-0.655-0.435-1.049-0.435h-2e-3c-1.388 0-2.514 1.126-2.514 2.514v2e-3c0 0.394 0.156 0.771 0.435 1.049 0.278 0.279 0.655 0.435 1.049 0.435h0.516c1.105 0 2-0.895 2-2v-0.516z"/><path d="m23 11.141c0-1.338 0.668-2.587 1.781-3.328 0.162-0.108 0.319-0.213 0.463-0.309 0.493-0.329 1.072-0.504 1.664-0.504h0.092c0.796 0 1.559 0.316 2.121 0.879 0.563 0.562 0.879 1.325 0.879 2.121v1.146c0 1.136-0.642 2.175-1.658 2.683-0.135 0.067-0.272 0.136-0.408 0.204-1.155 0.577-2.55 0.351-3.463-0.562l-1.471-1.471v-0.859z" fill="#3e3e3e"/><path d="m9 11.141c0-1.338-0.668-2.587-1.781-3.328-0.162-0.108-0.319-0.213-0.463-0.309-0.493-0.329-1.072-0.504-1.664-0.504h-0.092c-0.796 0-1.559 0.316-2.121 0.879-0.563 0.562-0.879 1.325-0.879 2.121v1.146c0 1.136 0.642 2.175 1.658 2.683 0.135 0.067 0.272 0.136 0.408 0.204 1.155 0.577 2.55 0.351 3.463-0.562l1.471-1.471v-0.859z" fill="#3e3e3e"/><path d="m20 21.667 8-2.667" fill="none" stroke="#828282" stroke-linejoin="round" stroke-width="1px"/><path d="m12 21.667-8-2.667" fill="none" stroke="#828282" stroke-linejoin="round" stroke-width="1px"/><path d="m12 23.833-5 1.667" fill="none" stroke="#828282" stroke-linejoin="round" stroke-width="1px"/><path d="m20 23.833 5 1.667" fill="none" stroke="#828282" stroke-linejoin="round" stroke-width="1px"/><path d="m14.51 22.49c-0.305 0.305-0.38 0.77-0.188 1.155 0.13 0.258 0.277 0.554 0.402 0.802 0.169 0.339 0.515 0.553 0.894 0.553h0.764c0.379 0 0.725-0.214 0.894-0.553 0.125-0.248 0.272-0.544 0.402-0.802 0.192-0.385 0.117-0.85-0.188-1.155l-0.076-0.076c-0.375-0.375-0.884-0.586-1.414-0.586s-1.039 0.211-1.414 0.586l-0.076 0.076z" fill="#f69191"/></g></g></svg>
