<?xml version="1.0" encoding="UTF-8"?>
<!DOCTYPE svg  PUBLIC '-//W3C//DTD SVG 1.1//EN'  'http://www.w3.org/Graphics/SVG/1.1/DTD/svg11.dtd'>
<svg clip-rule="evenodd" fill-rule="evenodd" stroke-linecap="round" version="1.1" viewBox="0 0 32 32" xml:space="preserve" xmlns="http://www.w3.org/2000/svg">
<metadata>
<rdf:RDF xmlns:cc="http://web.resource.org/cc/" xmlns:dc="http://purl.org/dc/elements/1.1/" xmlns:rdf="http://www.w3.org/1999/02/22-rdf-syntax-ns#">

     <rdf:Description rdf:about="">
       <dc:title>Mutant Standard emoji 2023.12</dc:title>
     </rdf:Description>

    <cc:work rdf:about="">
        <cc:license rdf:resource="http://creativecommons.org/licenses/by-nc-sa/4.0/"/>
        <cc:attributionName>Caius Nocturne</cc:attributionName>
        <cc:attributionURL>http://mutant.tech/</cc:attributionURL>
    </cc:work>

</rdf:RDF>
</metadata>
<rect id="otter" width="32" height="32" fill="none"/><clipPath id="_clip1"><rect width="32" height="32"/></clipPath><g clip-path="url(#_clip1)"><g id="outline"><path d="m7 9-1.414-1.414c-0.375-0.375-0.884-0.586-1.414-0.586h-0.172c-0.53 0-1.039 0.211-1.414 0.586s-0.586 0.884-0.586 1.414v2.172c0 0.53 0.211 1.039 0.586 1.414l2.414 2.414 2-6z" fill="none" stroke="#000" stroke-width="4px"/><path d="m25 9 1.414-1.414c0.375-0.375 0.884-0.586 1.414-0.586h0.172c0.53 0 1.039 0.211 1.414 0.586s0.586 0.884 0.586 1.414v2.172c0 0.53-0.211 1.039-0.586 1.414l-2.414 2.414-2-6z" fill="none" stroke="#000" stroke-width="4px"/><path d="m22 19 2.72 2.72c0.186 0.186 0.354 0.39 0.5 0.61 0.519 0.779 1.78 2.67 1.78 2.67" fill="none" stroke="#000" stroke-width="4px"/><path d="m10 19-2.72 2.72c-0.186 0.186-0.354 0.39-0.5 0.61-0.519 0.779-1.78 2.67-1.78 2.67" fill="none" stroke="#000" stroke-width="4px"/><path d="m24 18s1.891 1.261 2.67 1.78c0.22 0.146 0.424 0.314 0.61 0.5l2.72 2.72" fill="none" stroke="#000" stroke-width="4px"/><path d="m8 18s-1.891 1.261-2.67 1.78c-0.22 0.146-0.424 0.314-0.61 0.5l-2.72 2.72" fill="none" stroke="#000" stroke-width="4px"/><path d="m13.311 6c-5.246 0-9.601 4.054-9.974 9.288-0.03 0.412-0.058 0.812-0.086 1.194-0.158 2.213 0.743 4.37 2.427 5.813 0.886 0.76 1.847 1.583 2.637 2.261 1.087 0.932 2.472 1.444 3.905 1.444h7.78c1.298 0 2.561-0.421 3.6-1.2 0.885-0.664 2.018-1.513 3.084-2.313 2.045-1.534 3.091-4.06 2.73-6.59-0.061-0.423-0.123-0.862-0.187-1.311-0.704-4.927-4.923-8.586-9.9-8.586h-6.016z"/><path d="m19.467 4.001 0.139 2e-3 0.139 4e-3 0.138 6e-3 0.138 7e-3 0.138 9e-3 0.138 0.01 0.137 0.012 0.137 0.013 0.136 0.015 0.136 0.016 0.135 0.018 0.135 0.02 0.135 0.021 0.134 0.022 0.134 0.024 0.133 0.026 0.133 0.027 0.132 0.028 0.132 0.03 0.131 0.031 0.131 0.033 0.13 0.034 0.13 0.035 0.129 0.037 0.129 0.039 0.128 0.039 0.254 0.084 0.126 0.044 0.125 0.045 0.125 0.047 0.124 0.048 0.124 0.049 0.123 0.051 0.122 0.052 0.122 0.053 0.121 0.055 0.12 0.055 0.238 0.116 0.118 0.06 0.117 0.061 0.117 0.062 0.116 0.063 0.115 0.065 0.114 0.066 0.113 0.067 0.113 0.068 0.112 0.07 0.111 0.07 0.11 0.072 0.11 0.073 0.216 0.15 0.107 0.077 0.106 0.077 0.105 0.079 0.104 0.08 0.103 0.081 0.103 0.082 0.202 0.168 0.1 0.086 0.098 0.086 0.098 0.088 0.097 0.088 0.096 0.09 0.095 0.091 0.093 0.092 0.093 0.093 0.092 0.094 0.091 0.095 0.09 0.096 0.089 0.097 0.088 0.098 0.087 0.099 0.17 0.2 0.083 0.102 0.083 0.103 0.081 0.104 0.081 0.105 0.079 0.105 0.078 0.107 0.077 0.107 0.15 0.218 0.073 0.11 0.073 0.111 0.071 0.112 0.07 0.113 0.136 0.228 0.066 0.115 0.065 0.117 0.064 0.117 0.063 0.118 0.061 0.118 0.06 0.12 0.059 0.12 0.057 0.121 0.056 0.122 0.055 0.122 0.054 0.124 0.052 0.124 0.051 0.125 0.049 0.125 0.048 0.126 0.047 0.127 0.046 0.128 0.044 0.128 0.042 0.129 0.042 0.13 0.039 0.13 0.039 0.131 0.037 0.132 0.035 0.132 0.034 0.133 0.033 0.134 0.031 0.134 0.029 0.134 0.029 0.135 0.026 0.136 0.025 0.137 0.024 0.137 0.022 0.137 0.02 0.132 0.189 1.325 0.019 0.144 0.018 0.153 0.015 0.152 0.013 0.152 0.01 0.153 7e-3 0.151 5e-3 0.152 2e-3 0.152v0.151l-3e-3 0.152-5e-3 0.15-8e-3 0.151-0.011 0.15-0.013 0.15-0.015 0.149-0.018 0.149-0.02 0.149-0.023 0.148-0.025 0.147-0.028 0.147-0.03 0.146-0.032 0.146-0.035 0.145-0.037 0.144-0.04 0.144-0.042 0.142-0.044 0.142-0.047 0.142-0.048 0.14-0.052 0.14-0.053 0.138-0.056 0.138-0.058 0.137-0.06 0.136-0.063 0.135-0.064 0.133-0.067 0.133-0.069 0.132-0.072 0.131-0.073 0.129-0.076 0.128-0.078 0.128-0.08 0.125-0.082 0.125-0.084 0.123-0.087 0.122-0.088 0.121-0.091 0.12-0.093 0.117-0.094 0.117-0.097 0.115-0.099 0.114-0.101 0.112-0.103 0.11-0.105 0.109-0.106 0.107-0.109 0.106-0.111 0.104-0.113 0.102-0.114 0.101-0.117 0.099-0.118 0.097-0.121 0.095-0.115 0.088-3.099 2.324-0.123 0.09-0.132 0.093-0.134 0.091-0.136 0.087-0.137 0.085-0.139 0.081-0.14 0.079-0.142 0.076-0.143 0.073-0.144 0.07-0.146 0.068-0.147 0.064-0.148 0.061-0.149 0.058-0.151 0.055-0.151 0.053-0.153 0.049-0.153 0.046-0.154 0.043-0.156 0.04-0.156 0.037-0.157 0.033-0.157 0.031-0.158 0.027-0.159 0.024-0.16 0.021-0.16 0.018-0.161 0.015-0.161 0.011-0.161 9e-3 -0.162 4e-3 -0.152 2e-3h-7.802l-0.167-2e-3 -0.179-6e-3 -0.178-0.01-0.177-0.014-0.177-0.017-0.176-0.022-0.175-0.026-0.175-0.029-0.173-0.033-0.173-0.037-0.172-0.041-0.171-0.045-0.169-0.048-0.169-0.052-0.167-0.055-0.166-0.06-0.165-0.063-0.163-0.066-0.162-0.071-0.16-0.073-0.158-0.078-0.157-0.08-0.156-0.085-0.153-0.088-0.152-0.091-0.15-0.095-0.147-0.098-0.146-0.101-0.144-0.105-0.141-0.108-0.14-0.112-0.128-0.108-2.651-2.272-0.095-0.083-0.1-0.089-0.097-0.09-0.097-0.092-0.094-0.092-0.094-0.094-0.092-0.096-0.09-0.096-0.088-0.098-0.088-0.099-0.085-0.1-0.084-0.101-0.083-0.103-0.081-0.103-0.079-0.104-0.077-0.106-0.076-0.107-0.075-0.107-0.073-0.109-0.071-0.109-0.069-0.111-0.068-0.111-0.067-0.113-0.064-0.113-0.063-0.114-0.061-0.115-0.06-0.116-0.058-0.116-0.056-0.118-0.054-0.118-0.053-0.119-0.051-0.12-0.049-0.12-0.048-0.121-0.046-0.122-0.044-0.122-0.042-0.124-0.04-0.123-0.039-0.125-0.037-0.125-0.035-0.125-0.033-0.126-0.032-0.127-0.029-0.127-0.028-0.128-0.026-0.128-0.024-0.128-0.022-0.129-0.021-0.13-0.018-0.13-0.017-0.13-0.015-0.13-0.013-0.131-0.011-0.132-9e-3 -0.131-7e-3 -0.132-5e-3 -0.132-3e-3 -0.132-2e-3 -0.133 1e-3 -0.132 3e-3 -0.133 4e-3 -0.133 7e-3 -0.133 8e-3 -0.126 0.086-1.208 0.011-0.14 0.013-0.147 0.015-0.145 0.016-0.145 0.019-0.145 0.02-0.144 0.021-0.143 0.024-0.143 0.025-0.142 0.026-0.142 0.029-0.141 0.03-0.141 0.031-0.14 0.033-0.139 0.035-0.139 0.036-0.138 0.038-0.138 0.04-0.136 0.041-0.136 0.043-0.136 0.044-0.134 0.046-0.134 0.047-0.133 0.049-0.133 0.05-0.131 0.052-0.131 0.053-0.13 0.054-0.13 0.114-0.256 0.059-0.127 0.06-0.126 0.062-0.125 0.063-0.125 0.065-0.123 0.066-0.123 0.067-0.122 0.069-0.121 0.07-0.119 0.071-0.12 0.073-0.118 0.074-0.117 0.075-0.116 0.077-0.115 0.078-0.115 0.079-0.113 0.08-0.113 0.082-0.111 0.083-0.11 0.084-0.11 0.085-0.108 0.087-0.108 0.087-0.106 0.089-0.105 0.09-0.104 0.092-0.104 0.092-0.102 0.093-0.101 0.095-0.1 0.096-0.098 0.097-0.098 0.098-0.097 0.099-0.095 0.1-0.094 0.101-0.094 0.102-0.092 0.103-0.09 0.105-0.09 0.105-0.089 0.107-0.087 0.107-0.086 0.108-0.085 0.22-0.166 0.112-0.081 0.112-0.08 0.113-0.078 0.114-0.078 0.115-0.076 0.116-0.075 0.117-0.073 0.118-0.072 0.119-0.071 0.12-0.07 0.12-0.068 0.121-0.067 0.123-0.065 0.123-0.064 0.123-0.063 0.125-0.061 0.126-0.06 0.126-0.058 0.127-0.058 0.128-0.055 0.128-0.054 0.13-0.053 0.13-0.051 0.13-0.05 0.132-0.048 0.132-0.047 0.133-0.046 0.268-0.086 0.27-0.08 0.137-0.037 0.136-0.036 0.138-0.035 0.138-0.033 0.138-0.031 0.14-0.03 0.139-0.028 0.141-0.026 0.141-0.025 0.141-0.023 0.142-0.022 0.142-0.02 0.143-0.018 0.143-0.016 0.144-0.015 0.144-0.013 0.145-0.011 0.145-0.01 0.146-8e-3 0.145-6e-3 0.147-4e-3 0.146-3e-3 0.141-1e-3h6.028l0.134 1e-3zm-6.15 3.999-0.104 1e-3 -0.099 1e-3 -0.098 3e-3 -0.097 4e-3 -0.098 6e-3 -0.097 6e-3 -0.096 8e-3 -0.097 9e-3 -0.096 9e-3 -0.095 0.011-0.19 0.026-0.095 0.014-0.094 0.015-0.094 0.017-0.186 0.036-0.093 0.02-0.092 0.021-0.092 0.022-0.091 0.023-0.091 0.024-0.091 0.025-0.09 0.026-0.089 0.027-0.09 0.028-0.088 0.029-0.089 0.03-0.088 0.031-0.087 0.032-0.174 0.068-0.086 0.035-0.085 0.036-0.085 0.037-0.085 0.038-0.084 0.039-0.166 0.08-0.083 0.042-0.082 0.043-0.081 0.043-0.162 0.09-0.158 0.094-0.079 0.048-0.078 0.049-0.078 0.05-0.076 0.051-0.077 0.051-0.15 0.106-0.074 0.054-0.074 0.055-0.073 0.056-0.073 0.057-0.071 0.057-0.142 0.118-0.138 0.12-0.069 0.062-0.067 0.062-0.067 0.063-0.132 0.128-0.065 0.066-0.064 0.066-0.063 0.066-0.124 0.136-0.061 0.069-0.06 0.07-0.059 0.07-0.059 0.071-0.058 0.071-0.056 0.073-0.057 0.073-0.055 0.073-0.108 0.15-0.053 0.075-0.052 0.077-0.051 0.076-0.05 0.078-0.049 0.078-0.049 0.079-0.047 0.079-0.047 0.08-0.045 0.08-0.045 0.081-0.044 0.082-0.043 0.082-0.042 0.083-0.041 0.083-0.041 0.084-0.039 0.085-0.038 0.085-0.037 0.085-0.037 0.086-0.035 0.087-0.068 0.174-0.032 0.088-0.032 0.089-0.03 0.089-0.029 0.089-0.029 0.09-0.027 0.091-0.052 0.182-0.024 0.092-0.023 0.092-0.022 0.093-0.021 0.093-0.02 0.094-0.019 0.094-0.018 0.095-0.032 0.19-0.028 0.192-0.012 0.097-0.011 0.097-0.01 0.098-9e-3 0.098-8e-3 0.104-0.084 1.181-5e-3 0.081-4e-3 0.075-3e-3 0.074-1e-3 0.073v0.074 0.074l2e-3 0.073 3e-3 0.074 4e-3 0.073 5e-3 0.073 6e-3 0.073 7e-3 0.072 8e-3 0.073 0.02 0.144 0.011 0.072 0.013 0.072 0.013 0.071 0.014 0.071 0.032 0.142 0.036 0.14 0.02 0.07 0.02 0.069 0.044 0.138 0.024 0.069 0.024 0.068 0.026 0.067 0.026 0.068 0.027 0.067 0.058 0.132 0.03 0.066 0.031 0.065 0.033 0.065 0.033 0.064 0.034 0.064 0.035 0.064 0.036 0.063 0.036 0.062 0.038 0.062 0.078 0.122 0.082 0.12 0.042 0.059 0.043 0.059 0.045 0.058 0.044 0.057 0.046 0.057 0.094 0.112 0.049 0.055 0.049 0.054 0.05 0.054 0.051 0.053 0.104 0.104 0.054 0.05 0.054 0.051 0.056 0.049 0.061 0.054 2.623 2.248 0.077 0.064 0.07 0.056 0.071 0.054 0.071 0.053 0.073 0.05 0.074 0.05 0.075 0.047 0.076 0.046 0.076 0.043 0.078 0.043 0.079 0.04 0.079 0.039 0.08 0.037 0.081 0.035 0.081 0.033 0.083 0.031 0.083 0.03 0.083 0.028 0.085 0.026 0.085 0.024 0.085 0.022 0.086 0.021 0.086 0.018 0.087 0.017 0.087 0.014 0.088 0.013 0.088 0.011 0.088 9e-3 0.089 7e-3 0.089 5e-3 0.089 3e-3 0.101 1e-3h7.759l0.091-1e-3 0.081-2e-3 0.081-4e-3 0.08-6e-3 0.08-8e-3 0.081-8e-3 0.079-0.011 0.08-0.012 0.079-0.014 0.079-0.015 0.078-0.017 0.078-0.018 0.078-0.02 0.077-0.022 0.077-0.023 0.076-0.024 0.076-0.026 0.075-0.028 0.074-0.029 0.074-0.031 0.074-0.032 0.073-0.033 0.144-0.072 0.07-0.038 0.071-0.039 0.069-0.041 0.136-0.086 0.134-0.092 0.073-0.054 3.069-2.302 0.075-0.057 0.067-0.053 0.066-0.054 0.065-0.055 0.064-0.056 0.124-0.114 0.06-0.059 0.118-0.12 0.057-0.061 0.056-0.063 0.055-0.063 0.053-0.063 0.053-0.065 0.102-0.132 0.049-0.067 0.048-0.068 0.046-0.068 0.046-0.069 0.045-0.07 0.043-0.071 0.042-0.071 0.041-0.072 0.078-0.146 0.037-0.074 0.036-0.074 0.035-0.075 0.066-0.152 0.03-0.076 0.03-0.078 0.029-0.077 0.027-0.078 0.026-0.079 0.048-0.158 0.022-0.08 0.04-0.16 0.018-0.081 0.016-0.082 0.016-0.081 0.014-0.082 0.024-0.164 0.01-0.083 8e-3 -0.083 7e-3 -0.083 6e-3 -0.083 4e-3 -0.084 3e-3 -0.084 2e-3 -0.084v-0.084l-1e-3 -0.084-3e-3 -0.084-4e-3 -0.085-5e-3 -0.084-7e-3 -0.085-9e-3 -0.085-0.01-0.084-0.012-0.094-0.186-1.297-0.014-0.098-0.015-0.092-0.016-0.092-0.034-0.182-0.019-0.09-0.02-0.09-0.021-0.09-0.021-0.088-0.023-0.089-0.048-0.176-0.052-0.174-0.056-0.172-0.03-0.086-0.03-0.085-0.031-0.084-0.032-0.084-0.033-0.084-0.034-0.083-0.034-0.082-0.036-0.082-0.037-0.082-0.037-0.081-0.038-0.08-0.039-0.08-0.04-0.08-0.041-0.079-0.084-0.156-0.043-0.077-0.044-0.077-0.045-0.076-0.046-0.076-0.094-0.15-0.048-0.074-0.049-0.073-0.05-0.073-0.05-0.072-0.052-0.072-0.051-0.071-0.053-0.07-0.054-0.07-0.054-0.069-0.055-0.069-0.056-0.068-0.056-0.067-0.058-0.067-0.057-0.066-0.118-0.13-0.06-0.064-0.122-0.126-0.062-0.062-0.126-0.122-0.064-0.06-0.13-0.118-0.066-0.058-0.067-0.057-0.067-0.056-0.068-0.056-0.068-0.055-0.069-0.054-0.14-0.106-0.071-0.052-0.071-0.051-0.072-0.05-0.073-0.05-0.072-0.048-0.148-0.096-0.15-0.092-0.152-0.088-0.154-0.086-0.077-0.041-0.079-0.041-0.078-0.039-0.079-0.039-0.16-0.076-0.08-0.036-0.081-0.035-0.082-0.035-0.082-0.034-0.082-0.033-0.249-0.093-0.084-0.029-0.084-0.028-0.17-0.054-0.172-0.05-0.086-0.024-0.086-0.022-0.087-0.022-0.088-0.021-0.087-0.02-0.088-0.019-0.089-0.018-0.088-0.016-0.089-0.016-0.09-0.015-0.089-0.014-0.091-0.013-0.09-0.012-0.09-0.011-0.091-0.01-0.092-9e-3 -0.091-8e-3 -0.092-7e-3 -0.092-6e-3 -0.093-4e-3 -0.092-4e-3 -0.093-3e-3 -0.093-1e-3 -0.1-1e-3h-6.004z"/></g><g id="emoji"><path d="m25 9 1.414-1.414c0.375-0.375 0.884-0.586 1.414-0.586h0.172c0.53 0 1.039 0.211 1.414 0.586s0.586 0.884 0.586 1.414v2.172c0 0.53-0.211 1.039-0.586 1.414l-2.414 2.414-2-6z" fill="#836f4d"/><clipPath id="_clip2"><path d="m25 9 1.414-1.414c0.375-0.375 0.884-0.586 1.414-0.586h0.172c0.53 0 1.039 0.211 1.414 0.586s0.586 0.884 0.586 1.414v2.172c0 0.53-0.211 1.039-0.586 1.414l-2.414 2.414-2-6z"/></clipPath><g clip-path="url(#_clip2)"><path d="m24 12 3.414-3.414c0.375-0.375 0.884-0.586 1.414-0.586h3.172v-3h-9v6l1 1z" fill="#a69068"/></g><path d="m7 9-1.414-1.414c-0.375-0.375-0.884-0.586-1.414-0.586h-0.172c-0.53 0-1.039 0.211-1.414 0.586s-0.586 0.884-0.586 1.414v2.172c0 0.53 0.211 1.039 0.586 1.414l2.414 2.414 2-6z" fill="#836f4d"/><clipPath id="_clip3"><path d="m7 9-1.414-1.414c-0.375-0.375-0.884-0.586-1.414-0.586h-0.172c-0.53 0-1.039 0.211-1.414 0.586s-0.586 0.884-0.586 1.414v2.172c0 0.53 0.211 1.039 0.586 1.414l2.414 2.414 2-6z"/></clipPath><g clip-path="url(#_clip3)"><path d="m8 12-3.414-3.414c-0.375-0.375-0.884-0.586-1.414-0.586h-3.172v-3h9v6l-1 1z" fill="#a69068"/></g><path d="m13.311 6c-5.246 0-9.601 4.054-9.974 9.288-0.03 0.412-0.058 0.812-0.086 1.194-0.158 2.213 0.743 4.37 2.427 5.813 0.886 0.76 1.847 1.583 2.637 2.261 1.087 0.932 2.472 1.444 3.905 1.444h7.78c1.298 0 2.561-0.421 3.6-1.2 0.885-0.664 2.018-1.513 3.084-2.313 2.045-1.534 3.091-4.06 2.73-6.59-0.061-0.423-0.123-0.862-0.187-1.311-0.704-4.927-4.923-8.586-9.9-8.586h-6.016z" fill="#a69068"/><path d="m16.674 20.501 0.06 2e-3 0.059 3e-3 0.06 5e-3 0.118 0.014 0.058 0.01 0.059 0.01 0.058 0.012 0.058 0.013 0.057 0.015 0.057 0.016 0.057 0.017 0.057 0.019 0.056 0.02 0.053 0.021 4.645 1.858 0.043 0.02 0.041 0.023 0.039 0.028 0.036 0.031 0.033 0.034 0.029 0.038 0.026 0.04 0.022 0.042 0.017 0.044 0.014 0.046 9e-3 0.047 4e-3 0.047v0.048l-4e-3 0.047-9e-3 0.047-0.013 0.045-0.018 0.045-0.022 0.042-0.026 0.04-0.029 0.037-0.033 0.035-0.036 0.031-0.039 0.028-0.041 0.023-0.043 0.02-0.045 0.016-0.046 0.011-0.047 7e-3 -0.048 2e-3 -0.047-2e-3 -0.047-7e-3 -0.047-0.011-0.045-0.016-4.639-1.856-0.036-0.014-0.034-0.012-0.034-0.011-0.068-0.02-0.035-9e-3 -0.035-8e-3 -0.035-7e-3 -0.07-0.012-0.035-4e-3 -0.036-4e-3 -0.035-3e-3 -0.036-2e-3 -0.035-2e-3h-0.039-1.224-0.039l-0.035 2e-3 -0.036 2e-3 -0.035 3e-3 -0.036 4e-3 -0.035 4e-3 -0.07 0.012-0.035 7e-3 -0.035 8e-3 -0.035 9e-3 -0.068 0.02-0.034 0.011-0.034 0.012-0.036 0.014-4.639 1.856-0.045 0.016-0.047 0.011-0.047 7e-3 -0.047 2e-3 -0.048-2e-3 -0.047-7e-3 -0.046-0.011-0.045-0.016-0.043-0.02-0.041-0.023-0.039-0.028-0.036-0.031-0.033-0.035-0.029-0.037-0.026-0.04-0.022-0.042-0.018-0.045-0.013-0.045-9e-3 -0.047-4e-3 -0.047v-0.048l4e-3 -0.047 9e-3 -0.047 0.014-0.046 0.017-0.044 0.022-0.042 0.026-0.04 0.029-0.038 0.033-0.034 0.036-0.031 0.039-0.028 0.041-0.023 0.043-0.02 4.645-1.858 0.053-0.021 0.056-0.02 0.057-0.019 0.057-0.017 0.057-0.016 0.057-0.015 0.058-0.013 0.058-0.012 0.059-0.01 0.058-0.01 0.118-0.014 0.06-5e-3 0.059-3e-3 0.06-2e-3 0.056-1e-3h1.236l0.056 1e-3z" fill="#57422d"/><path d="m7 13.084c0-0.483 0.232-0.936 0.624-1.219 0.391-0.282 0.895-0.359 1.353-0.206 0.123 0.041 0.242 0.081 0.351 0.117 0.43 0.143 0.786 0.452 0.989 0.857 0.293 0.586 0.683 1.367 0.683 1.367s-1.098 0.275-2.144 0.536c-0.446 0.111-0.919 0.011-1.281-0.272-0.363-0.283-0.575-0.717-0.575-1.177v-3e-3z"/><path d="m25 13.084c0-0.483-0.232-0.936-0.624-1.219-0.391-0.282-0.895-0.359-1.353-0.206-0.123 0.041-0.242 0.081-0.351 0.117-0.43 0.143-0.786 0.452-0.989 0.857-0.293 0.586-0.683 1.367-0.683 1.367s1.098 0.275 2.144 0.536c0.446 0.111 0.919 0.011 1.281-0.272 0.363-0.283 0.575-0.717 0.575-1.177v-3e-3z"/><path d="m13.868 15c-0.495 0-0.971 0.197-1.321 0.547s-0.547 0.826-0.547 1.321v2e-3c0 0.083 0.033 0.163 0.092 0.222l0.908 0.908v1e-3c0 0.552 0.447 0.999 0.999 0.999h4.001c0.265 0 0.52-0.105 0.707-0.293 0.188-0.187 0.293-0.442 0.293-0.707l0.917-0.917c0.053-0.053 0.083-0.125 0.083-0.2v-1e-3c0-0.499-0.198-0.978-0.551-1.331s-0.832-0.551-1.331-0.551h-4.25z"/><path d="m22 19 2.72 2.72c0.186 0.186 0.354 0.39 0.5 0.61 0.519 0.779 1.78 2.67 1.78 2.67" fill="none" stroke="#c6c6c6" stroke-width="1px"/><path d="m10 19-2.72 2.72c-0.186 0.186-0.354 0.39-0.5 0.61-0.519 0.779-1.78 2.67-1.78 2.67" fill="none" stroke="#c6c6c6" stroke-width="1px"/><path d="m24 18s1.891 1.261 2.67 1.78c0.22 0.146 0.424 0.314 0.61 0.5l2.72 2.72" fill="none" stroke="#c6c6c6" stroke-width="1px"/><path d="m8 18s-1.891 1.261-2.67 1.78c-0.22 0.146-0.424 0.314-0.61 0.5l-2.72 2.72" fill="none" stroke="#c6c6c6" stroke-width="1px"/></g></g></svg>
