<?xml version="1.0" encoding="UTF-8"?>
<!DOCTYPE svg  PUBLIC '-//W3C//DTD SVG 1.1//EN'  'http://www.w3.org/Graphics/SVG/1.1/DTD/svg11.dtd'>
<svg clip-rule="evenodd" fill-rule="evenodd" stroke-linejoin="round" stroke-miterlimit="1.4142" version="1.1" viewBox="0 0 32 32" xml:space="preserve" xmlns="http://www.w3.org/2000/svg">
<metadata>
<rdf:RDF xmlns:cc="http://web.resource.org/cc/" xmlns:dc="http://purl.org/dc/elements/1.1/" xmlns:rdf="http://www.w3.org/1999/02/22-rdf-syntax-ns#">

     <rdf:Description rdf:about="">
       <dc:title>Mutant Standard emoji 2023.12</dc:title>
     </rdf:Description>

    <cc:work rdf:about="">
        <cc:license rdf:resource="http://creativecommons.org/licenses/by-nc-sa/4.0/"/>
        <cc:attributionName>Caius Nocturne</cc:attributionName>
        <cc:attributionURL>http://mutant.tech/</cc:attributionURL>
    </cc:work>

</rdf:RDF>
</metadata>
<rect id="rabbit" width="32" height="32" fill="none"/><clipPath id="_clip1"><rect width="32" height="32"/></clipPath><g clip-path="url(#_clip1)"><g id="outline"><path d="m15.999 12c-3.451 0-6.386 2.518-6.911 5.929-0.215 1.396-0.435 2.827-0.621 4.034-0.298 1.935 0.229 3.907 1.453 5.437 0.299 0.374 0.602 0.752 0.879 1.099 0.759 0.949 1.908 1.501 3.123 1.501h4.156c1.215 0 2.364-0.552 3.123-1.501 0.277-0.347 0.58-0.725 0.879-1.099 1.224-1.53 1.751-3.502 1.453-5.437-0.186-1.207-0.406-2.638-0.621-4.034-0.525-3.411-3.46-5.929-6.911-5.929h-2e-3z"/><path d="m16.105 10.001 0.103 1e-3 0.103 3e-3 0.104 4e-3 0.102 6e-3 0.103 6e-3 0.204 0.016 0.101 0.01 0.102 0.011 0.101 0.012 0.101 0.014 0.1 0.014 0.1 0.015 0.1 0.017 0.1 0.018 0.099 0.018 0.099 0.02 0.098 0.021 0.098 0.022 0.098 0.023 0.097 0.024 0.097 0.026 0.096 0.026 0.096 0.027 0.096 0.029 0.095 0.029 0.095 0.03 0.095 0.032 0.093 0.032 0.094 0.033 0.093 0.035 0.092 0.035 0.093 0.037 0.091 0.037 0.091 0.038 0.091 0.04 0.09 0.04 0.089 0.041 0.178 0.086 0.088 0.044 0.087 0.045 0.087 0.046 0.172 0.094 0.085 0.049 0.085 0.05 0.084 0.05 0.083 0.051 0.083 0.053 0.082 0.053 0.082 0.054 0.081 0.055 0.08 0.055 0.08 0.057 0.079 0.057 0.079 0.058 0.077 0.06 0.078 0.06 0.076 0.06 0.076 0.062 0.075 0.062 0.074 0.063 0.074 0.064 0.073 0.065 0.073 0.066 0.071 0.066 0.071 0.067 0.071 0.068 0.138 0.138 0.068 0.071 0.067 0.07 0.067 0.072 0.13 0.146 0.065 0.074 0.063 0.074 0.063 0.076 0.062 0.076 0.061 0.077 0.06 0.077 0.059 0.078 0.059 0.079 0.058 0.08 0.057 0.08 0.056 0.081 0.055 0.081 0.054 0.083 0.054 0.082 0.053 0.084 0.051 0.084 0.051 0.085 0.05 0.085 0.049 0.086 0.096 0.174 0.046 0.088 0.09 0.178 0.086 0.18 0.082 0.182 0.04 0.092 0.038 0.092 0.038 0.093 0.037 0.094 0.035 0.094 0.035 0.095 0.034 0.095 0.064 0.192 0.03 0.096 0.03 0.097 0.028 0.098 0.027 0.098 0.027 0.099 0.025 0.099 0.024 0.099 0.023 0.1 0.022 0.1 0.021 0.101 0.02 0.101 0.018 0.102 0.018 0.101 0.015 0.097 0.622 4.046 0.017 0.11 0.015 0.117 0.014 0.117 0.013 0.116 0.011 0.117 9e-3 0.117 8e-3 0.117 7e-3 0.117 5e-3 0.116 3e-3 0.117 2e-3 0.117v0.116l-1e-3 0.117-3e-3 0.116-4e-3 0.116-6e-3 0.116-7e-3 0.116-8e-3 0.116-0.011 0.115-0.011 0.116-0.013 0.115-0.015 0.115-0.016 0.114-0.017 0.115-0.019 0.114-0.021 0.114-0.022 0.113-0.023 0.113-0.025 0.113-0.026 0.113-0.028 0.112-0.029 0.112-0.03 0.111-0.032 0.111-0.034 0.111-0.034 0.11-0.037 0.11-0.037 0.109-0.039 0.109-0.041 0.108-0.042 0.108-0.043 0.108-0.045 0.106-0.046 0.107-0.047 0.105-0.049 0.106-0.05 0.104-0.052 0.104-0.053 0.104-0.054 0.103-0.056 0.102-0.057 0.101-0.058 0.101-0.06 0.1-0.061 0.1-0.126 0.196-0.065 0.098-0.067 0.096-0.068 0.096-0.069 0.095-0.07 0.094-0.072 0.094-0.069 0.087-0.888 1.11-0.049 0.06-0.055 0.066-0.055 0.064-0.056 0.064-0.057 0.063-0.058 0.062-0.059 0.06-0.12 0.12-0.061 0.058-0.062 0.057-0.062 0.056-0.063 0.056-0.064 0.054-0.065 0.054-0.065 0.052-0.066 0.052-0.067 0.051-0.067 0.049-0.068 0.049-0.069 0.048-0.069 0.047-0.07 0.045-0.071 0.045-0.071 0.044-0.071 0.043-0.072 0.041-0.073 0.041-0.073 0.04-0.074 0.039-0.075 0.037-0.074 0.037-0.076 0.035-0.075 0.035-0.154 0.066-0.077 0.031-0.077 0.03-0.079 0.03-0.078 0.028-0.079 0.027-0.079 0.026-0.08 0.025-0.08 0.023-0.081 0.023-0.081 0.022-0.081 0.02-0.082 0.019-0.081 0.018-0.083 0.018-0.082 0.015-0.083 0.015-0.083 0.014-0.083 0.012-0.084 0.012-0.084 0.01-0.084 9e-3 -0.168 0.014-0.17 0.01-0.085 3e-3 -0.085 1e-3 -0.078 1e-3h-4.17l-0.078-1e-3 -0.085-1e-3 -0.085-3e-3 -0.17-0.01-0.168-0.014-0.084-9e-3 -0.084-0.01-0.084-0.012-0.083-0.012-0.083-0.014-0.083-0.015-0.082-0.015-0.083-0.018-0.081-0.018-0.082-0.019-0.081-0.02-0.081-0.022-0.081-0.023-0.08-0.023-0.08-0.025-0.079-0.026-0.079-0.027-0.078-0.028-0.079-0.03-0.077-0.03-0.077-0.031-0.154-0.066-0.075-0.035-0.076-0.035-0.074-0.037-0.075-0.037-0.074-0.039-0.073-0.04-0.073-0.041-0.072-0.041-0.071-0.043-0.071-0.044-0.071-0.045-0.07-0.045-0.069-0.047-0.069-0.048-0.068-0.048-0.067-0.05-0.067-0.051-0.066-0.051-0.065-0.053-0.065-0.054-0.063-0.054-0.064-0.056-0.062-0.056-0.062-0.057-0.061-0.058-0.06-0.059-0.06-0.061-0.059-0.061-0.057-0.061-0.058-0.063-0.056-0.064-0.055-0.064-0.055-0.066-0.049-0.06-0.888-1.11-0.069-0.087-0.072-0.094-0.07-0.094-0.069-0.095-0.068-0.096-0.067-0.096-0.065-0.098-0.126-0.196-0.061-0.1-0.06-0.1-0.058-0.101-0.057-0.101-0.056-0.102-0.054-0.103-0.053-0.104-0.052-0.104-0.05-0.104-0.049-0.106-0.047-0.105-0.046-0.107-0.045-0.106-0.043-0.108-0.042-0.108-0.041-0.108-0.039-0.109-0.037-0.109-0.037-0.11-0.034-0.11-0.034-0.111-0.032-0.111-0.03-0.111-0.029-0.112-0.028-0.112-0.026-0.113-0.025-0.113-0.023-0.113-0.022-0.113-0.021-0.114-0.019-0.114-0.017-0.115-0.016-0.114-0.015-0.115-0.013-0.115-0.011-0.116-0.011-0.115-8e-3 -0.116-7e-3 -0.116-6e-3 -0.116-4e-3 -0.116-3e-3 -0.116-1e-3 -0.117v-0.116l2e-3 -0.117 3e-3 -0.117 5e-3 -0.116 7e-3 -0.117 8e-3 -0.117 9e-3 -0.117 0.011-0.117 0.013-0.116 0.014-0.117 0.015-0.117 0.017-0.11 0.622-4.046 0.015-0.097 0.018-0.101 0.018-0.102 0.02-0.101 0.021-0.101 0.022-0.1 0.023-0.1 0.024-0.099 0.025-0.099 0.027-0.099 0.027-0.098 0.028-0.098 0.03-0.097 0.03-0.096 0.032-0.096 0.033-0.096 0.033-0.095 0.035-0.095 0.035-0.094 0.037-0.094 0.038-0.093 0.038-0.092 0.04-0.092 0.082-0.182 0.086-0.18 0.09-0.178 0.046-0.088 0.096-0.174 0.049-0.086 0.05-0.085 0.051-0.085 0.104-0.168 0.054-0.082 0.054-0.083 0.055-0.081 0.056-0.081 0.057-0.08 0.058-0.08 0.059-0.079 0.059-0.078 0.06-0.077 0.061-0.077 0.062-0.076 0.063-0.076 0.063-0.074 0.065-0.074 0.13-0.146 0.067-0.072 0.067-0.07 0.068-0.071 0.138-0.138 0.071-0.068 0.071-0.067 0.071-0.066 0.073-0.066 0.073-0.065 0.074-0.064 0.074-0.063 0.075-0.062 0.076-0.062 0.077-0.061 0.077-0.059 0.077-0.06 0.079-0.058 0.079-0.057 0.08-0.057 0.08-0.055 0.081-0.055 0.082-0.054 0.082-0.053 0.083-0.053 0.083-0.051 0.084-0.051 0.17-0.098 0.172-0.094 0.087-0.046 0.087-0.045 0.088-0.044 0.178-0.086 0.089-0.041 0.09-0.04 0.091-0.04 0.091-0.038 0.091-0.037 0.093-0.037 0.092-0.035 0.093-0.035 0.093-0.033 0.094-0.032 0.095-0.032 0.095-0.03 0.095-0.029 0.096-0.029 0.096-0.027 0.096-0.026 0.097-0.026 0.097-0.024 0.098-0.023 0.098-0.022 0.098-0.021 0.099-0.02 0.099-0.018 0.1-0.018 0.1-0.017 0.1-0.015 0.1-0.014 0.101-0.014 0.101-0.012 0.102-0.011 0.101-0.01 0.204-0.016 0.103-6e-3 0.102-6e-3 0.104-4e-3 0.103-3e-3 0.103-1e-3 0.098-1e-3h0.014l0.098 1e-3zm-0.164 3.999-0.058 1e-3 -0.058 2e-3 -0.057 2e-3 -0.058 3e-3 -0.114 8e-3 -0.056 5e-3 -0.057 5e-3 -0.056 6e-3 -0.056 7e-3 -0.056 8e-3 -0.056 7e-3 -0.055 9e-3 -0.056 9e-3 -0.11 0.02-0.054 0.011-0.055 0.012-0.054 0.012-0.108 0.026-0.054 0.014-0.106 0.03-0.106 0.032-0.052 0.017-0.053 0.017-0.052 0.018-0.051 0.018-0.052 0.02-0.051 0.019-0.051 0.02-0.051 0.021-0.05 0.021-0.1 0.044-0.05 0.023-0.147 0.072-0.049 0.025-0.048 0.026-0.048 0.025-0.047 0.027-0.048 0.027-0.047 0.028-0.046 0.028-0.047 0.028-0.046 0.029-0.045 0.03-0.046 0.03-0.045 0.03-0.045 0.031-0.132 0.096-0.086 0.066-0.042 0.034-0.043 0.034-0.041 0.035-0.042 0.035-0.082 0.072-0.04 0.036-0.04 0.037-0.039 0.038-0.039 0.037-0.077 0.077-0.038 0.039-0.038 0.04-0.037 0.04-0.036 0.04-0.072 0.082-0.035 0.041-0.035 0.042-0.034 0.042-0.068 0.086-0.033 0.044-0.032 0.043-0.032 0.044-0.032 0.045-0.062 0.09-0.03 0.046-0.029 0.046-0.03 0.046-0.028 0.047-0.029 0.047-0.054 0.094-0.027 0.049-0.052 0.096-0.025 0.049-0.025 0.05-0.024 0.049-0.023 0.05-0.023 0.051-0.023 0.05-0.022 0.051-0.021 0.051-0.021 0.052-0.02 0.051-0.02 0.053-0.019 0.052-0.019 0.053-0.018 0.053-0.034 0.106-0.016 0.054-0.016 0.055-0.015 0.054-0.015 0.055-0.014 0.055-0.013 0.055-0.013 0.056-0.012 0.055-0.012 0.057-0.011 0.056-0.02 0.114-0.01 0.063-0.619 4.021-0.01 0.072-9e-3 0.064-8e-3 0.065-7e-3 0.065-6e-3 0.065-0.01 0.13-6e-3 0.13-2e-3 0.064-1e-3 0.065v0.065l1e-3 0.065 1e-3 0.064 2e-3 0.065 4e-3 0.064 4e-3 0.065 4e-3 0.064 0.012 0.128 0.016 0.128 9e-3 0.063 9e-3 0.064 0.011 0.063 0.011 0.064 0.012 0.063 0.013 0.063 0.014 0.062 0.015 0.063 0.015 0.062 0.016 0.062 0.017 0.062 0.018 0.062 0.019 0.061 0.019 0.062 0.02 0.061 0.021 0.06 0.022 0.061 0.022 0.06 0.023 0.06 0.025 0.06 0.024 0.059 0.052 0.118 0.027 0.058 0.028 0.058 0.058 0.116 0.03 0.057 0.031 0.056 0.032 0.057 0.033 0.056 0.033 0.055 0.034 0.056 0.034 0.055 0.072 0.108 0.037 0.054 0.076 0.106 0.039 0.052 0.04 0.052 0.045 0.056 0.87 1.089 0.023 0.028 0.018 0.021 0.019 0.022 0.018 0.021 0.019 0.021 0.02 0.021 0.019 0.02 0.04 0.04 0.02 0.019 0.042 0.038 0.042 0.036 0.022 0.018 0.021 0.018 0.022 0.017 0.023 0.017 0.022 0.016 0.023 0.017 0.023 0.016 0.069 0.045 0.024 0.015 0.072 0.042 0.025 0.013 0.024 0.013 0.025 0.012 0.025 0.013 0.025 0.011 0.026 0.012 0.025 0.011 0.026 0.011 0.025 0.01 0.052 0.02 0.027 0.01 0.026 9e-3 0.026 8e-3 0.027 9e-3 0.027 7e-3 0.027 8e-3 0.026 7e-3 0.027 7e-3 0.028 6e-3 0.054 0.012 0.028 5e-3 0.027 5e-3 0.028 5e-3 0.028 4e-3 0.027 4e-3 0.084 9e-3 0.029 2e-3 0.028 2e-3 0.028 1e-3 0.029 1e-3 0.028 1e-3h0.036 4.14 0.036l0.028-1e-3 0.029-1e-3 0.028-1e-3 0.028-2e-3 0.029-2e-3 0.084-9e-3 0.027-4e-3 0.028-4e-3 0.028-5e-3 0.027-5e-3 0.028-5e-3 0.054-0.012 0.028-6e-3 0.054-0.014 0.026-8e-3 0.027-7e-3 0.027-9e-3 0.026-8e-3 0.027-9e-3 0.078-0.03 0.025-0.01 0.026-0.011 0.025-0.011 0.026-0.012 0.025-0.011 0.025-0.013 0.025-0.012 0.024-0.013 0.025-0.013 0.072-0.042 0.024-0.015 0.069-0.045 0.023-0.016 0.023-0.017 0.022-0.016 0.023-0.017 0.022-0.017 0.021-0.018 0.022-0.018 0.042-0.036 0.042-0.038 0.02-0.019 0.04-0.04 0.019-0.02 0.02-0.021 0.019-0.021 0.018-0.021 0.019-0.022 0.018-0.022 0.023-0.027 0.87-1.089 0.045-0.056 0.04-0.052 0.039-0.052 0.076-0.106 0.037-0.054 0.036-0.054 0.036-0.055 0.034-0.054 0.034-0.056 0.033-0.055 0.033-0.056 0.032-0.057 0.031-0.056 0.03-0.057 0.058-0.116 0.028-0.058 0.027-0.058 0.052-0.118 0.025-0.059 0.024-0.06 0.023-0.06 0.022-0.06 0.022-0.061 0.021-0.06 0.02-0.061 0.019-0.062 0.019-0.061 0.018-0.062 0.017-0.062 0.016-0.062 0.015-0.062 0.015-0.063 0.014-0.062 0.013-0.063 0.012-0.063 0.011-0.064 0.011-0.063 9e-3 -0.064 9e-3 -0.063 0.016-0.128 0.012-0.128 4e-3 -0.064 4e-3 -0.065 4e-3 -0.064 2e-3 -0.065 1e-3 -0.064 1e-3 -0.065v-0.065l-1e-3 -0.065-2e-3 -0.064-6e-3 -0.13-0.01-0.13-6e-3 -0.065-7e-3 -0.065-8e-3 -0.065-9e-3 -0.064-0.01-0.072-0.619-4.021-0.01-0.063-0.02-0.114-0.011-0.056-0.012-0.057-0.012-0.056-0.026-0.11-0.014-0.055-0.015-0.055-0.015-0.054-0.016-0.055-0.016-0.054-0.034-0.106-0.018-0.053-0.019-0.053-0.019-0.052-0.02-0.053-0.02-0.051-0.021-0.052-0.021-0.051-0.022-0.051-0.023-0.05-0.023-0.051-0.023-0.05-0.024-0.049-0.025-0.05-0.025-0.048-0.052-0.098-0.027-0.047-0.027-0.048-0.027-0.047-0.029-0.047-0.028-0.047-0.03-0.046-0.029-0.046-0.03-0.046-0.062-0.09-0.032-0.045-0.032-0.044-0.032-0.043-0.033-0.044-0.068-0.086-0.034-0.042-0.035-0.042-0.035-0.041-0.072-0.082-0.036-0.04-0.037-0.04-0.038-0.04-0.038-0.039-0.038-0.038-0.117-0.114-0.04-0.037-0.04-0.036-0.082-0.072-0.042-0.035-0.041-0.035-0.043-0.034-0.042-0.034-0.086-0.066-0.132-0.096-0.045-0.031-0.045-0.03-0.046-0.03-0.045-0.03-0.046-0.029-0.047-0.028-0.046-0.028-0.047-0.028-0.048-0.027-0.047-0.027-0.048-0.025-0.048-0.026-0.049-0.025-0.147-0.072-0.05-0.023-0.1-0.044-0.05-0.021-0.051-0.021-0.051-0.02-0.051-0.019-0.052-0.02-0.051-0.018-0.052-0.018-0.053-0.017-0.052-0.017-0.106-0.032-0.106-0.03-0.054-0.014-0.108-0.026-0.054-0.012-0.055-0.012-0.054-0.011-0.11-0.02-0.056-9e-3 -0.055-9e-3 -0.056-7e-3 -0.056-8e-3 -0.056-7e-3 -0.056-6e-3 -0.057-5e-3 -0.056-5e-3 -0.114-8e-3 -0.058-3e-3 -0.057-2e-3 -0.058-2e-3 -0.058-1e-3h-0.059-0.059z"/></g><g id="emoji"><path d="m16 14v-1e-3c0-2.545 1.08-4.971 2.973-6.674 2.947-2.653 7.027-6.325 7.027-6.325v7.5c0 1.574-0.741 3.056-2 4-0.62 0.465-1.241 0.931-1.622 1.217-0.249 0.186-0.45 0.428-0.589 0.705-0.294 0.587-0.789 1.578-0.789 1.578" fill="#d0c1a4"/><clipPath id="_clip2"><path d="m16 14v-1e-3c0-2.545 1.08-4.971 2.973-6.674 2.947-2.653 7.027-6.325 7.027-6.325v7.5c0 1.574-0.741 3.056-2 4-0.62 0.465-1.241 0.931-1.622 1.217-0.249 0.186-0.45 0.428-0.589 0.705-0.294 0.587-0.789 1.578-0.789 1.578"/></clipPath><g clip-path="url(#_clip2)"><path d="m21 16c-1.785-2.975-1.431-6.765 0.874-9.358 2.041-2.296 4.126-4.642 4.126-4.642l-1-3-7 10-3 7h6z" fill="#a69068"/></g><path d="m27-0.197v8.701l-1e-3 0.084-2e-3 0.089-3e-3 0.088-4e-3 0.088-6e-3 0.087-7e-3 0.088-0.018 0.174-0.011 0.087-0.012 0.086-0.013 0.086-0.015 0.086-0.016 0.086-0.017 0.085-0.018 0.085-0.02 0.084-0.02 0.085-0.022 0.083-0.023 0.084-0.024 0.083-0.026 0.083-0.026 0.082-0.028 0.082-0.029 0.081-0.03 0.081-0.031 0.08-0.066 0.16-0.035 0.079-0.072 0.156-0.038 0.077-0.04 0.077-0.04 0.076-0.041 0.076-0.042 0.075-0.044 0.075-0.044 0.073-0.046 0.074-0.094 0.144-0.049 0.071-0.05 0.071-0.051 0.07-0.052 0.069-0.053 0.069-0.054 0.067-0.055 0.068-0.056 0.066-0.057 0.065-0.058 0.065-0.059 0.064-0.059 0.063-0.061 0.063-0.062 0.061-0.063 0.061-0.064 0.06-0.065 0.059-0.065 0.058-0.067 0.057-0.068 0.057-0.068 0.055-0.07 0.054-0.067 0.052-1.619 1.214-0.029 0.023-0.023 0.018-0.022 0.019-0.042 0.04-0.02 0.021-0.019 0.021-0.019 0.022-0.018 0.022-0.018 0.023-0.017 0.024-0.016 0.024-0.015 0.024-0.015 0.025-0.014 0.026-0.017 0.032-1.233 2.466-1.789-0.895 1.24-2.478 0.036-0.071 0.043-0.077 0.044-0.074 0.047-0.074 0.048-0.072 0.051-0.07 0.053-0.069 0.054-0.068 0.057-0.065 0.058-0.065 0.061-0.062 0.062-0.061 0.064-0.059 0.065-0.057 0.068-0.055 0.063-0.049 1.625-1.219 0.05-0.038 0.046-0.036 0.046-0.037 0.045-0.038 0.044-0.038 0.044-0.039 0.043-0.039 0.043-0.04 0.042-0.04 0.041-0.041 0.041-0.042 0.04-0.042 0.078-0.086 0.038-0.043 0.037-0.045 0.037-0.044 0.035-0.045 0.036-0.046 0.034-0.046 0.034-0.047 0.066-0.094 0.032-0.048 0.031-0.049 0.06-0.098 0.029-0.05 0.056-0.1 0.027-0.051 0.026-0.051 0.05-0.104 0.023-0.052 0.024-0.053 0.022-0.053 0.042-0.106 0.02-0.054 0.02-0.055 0.018-0.054 0.018-0.055 0.017-0.055 0.016-0.056 0.015-0.055 0.015-0.056 0.014-0.056 0.013-0.056 0.012-0.057 0.022-0.114 9e-3 -0.057 9e-3 -0.058 8e-3 -0.057 8e-3 -0.058 6e-3 -0.058 0.01-0.116 4e-3 -0.059 3e-3 -0.058 4e-3 -0.118v-0.063-5.251l-5.356 4.821-0.081 0.073-0.077 0.073-0.076 0.073-0.075 0.074-0.074 0.075-0.073 0.076-0.072 0.077-0.071 0.078-0.069 0.078-0.069 0.079-0.067 0.08-0.067 0.081-0.065 0.082-0.064 0.083-0.063 0.083-0.061 0.084-0.061 0.085-0.06 0.085-0.058 0.087-0.057 0.086-0.056 0.088-0.055 0.088-0.054 0.089-0.052 0.09-0.051 0.09-0.05 0.091-0.049 0.092-0.048 0.092-0.047 0.093-0.045 0.093-0.044 0.094-0.043 0.095-0.082 0.19-0.039 0.097-0.038 0.096-0.036 0.097-0.036 0.098-0.034 0.098-0.033 0.099-0.031 0.098-0.03 0.1-0.029 0.1-0.028 0.1-0.026 0.101-0.025 0.101-0.024 0.101-0.023 0.102-0.021 0.102-0.02 0.103-0.018 0.102-0.017 0.104-0.016 0.103-0.015 0.104-0.013 0.104-0.011 0.104-0.011 0.105-9e-3 0.104-8e-3 0.105-6e-3 0.106-5e-3 0.105-3e-3 0.106-2e-3 0.105-1e-3 0.11v0.997h-2v-1.004l1e-3 -0.129 2e-3 -0.132 5e-3 -0.133 6e-3 -0.131 8e-3 -0.132 9e-3 -0.131 0.012-0.131 0.013-0.131 0.014-0.13 0.017-0.131 0.018-0.129 0.02-0.13 0.021-0.129 0.023-0.128 0.025-0.128 0.026-0.128 0.058-0.254 0.032-0.127 0.033-0.126 0.034-0.125 0.037-0.125 0.037-0.124 0.04-0.124 0.041-0.123 0.043-0.123 0.044-0.122 0.046-0.121 0.047-0.121 0.049-0.121 0.05-0.119 0.052-0.119 0.054-0.118 0.055-0.118 0.057-0.116 0.058-0.116 0.059-0.116 0.061-0.114 0.063-0.114 0.064-0.113 0.066-0.112 0.067-0.111 0.069-0.111 0.07-0.109 0.071-0.109 0.073-0.108 0.074-0.107 0.076-0.106 0.078-0.105 0.078-0.104 0.08-0.104 0.082-0.102 0.083-0.101 0.084-0.1 0.086-0.1 0.087-0.098 0.089-0.097 0.089-0.096 0.092-0.095 0.092-0.094 0.094-0.092 0.095-0.092 0.097-0.09 0.095-0.088 7.92-7.127 0.779 0.347z"/><path d="m16 14v-1e-3c0-2.545-1.08-4.971-2.973-6.674-2.947-2.653-7.027-6.325-7.027-6.325v7.5c0 1.574 0.741 3.056 2 4 0.62 0.465 1.241 0.931 1.622 1.217 0.249 0.186 0.45 0.428 0.589 0.705 0.294 0.587 0.789 1.578 0.789 1.578" fill="#d0c1a4"/><clipPath id="_clip3"><path d="m16 14v-1e-3c0-2.545-1.08-4.971-2.973-6.674-2.947-2.653-7.027-6.325-7.027-6.325v7.5c0 1.574 0.741 3.056 2 4 0.62 0.465 1.241 0.931 1.622 1.217 0.249 0.186 0.45 0.428 0.589 0.705 0.294 0.587 0.789 1.578 0.789 1.578"/></clipPath><g clip-path="url(#_clip3)"><path d="m11 16c1.785-2.975 1.431-6.765-0.874-9.358-2.041-2.296-4.126-4.642-4.126-4.642l1-3 7 10 3 7h-6z" fill="#a69068"/></g><path d="m13.699 6.583 0.095 0.088 0.097 0.09 0.095 0.092 0.094 0.092 0.092 0.094 0.092 0.095 0.089 0.096 0.089 0.097 0.087 0.098 0.086 0.1 0.084 0.1 0.083 0.101 0.082 0.102 0.08 0.104 0.078 0.104 0.078 0.105 0.076 0.106 0.074 0.107 0.073 0.108 0.071 0.109 0.07 0.109 0.069 0.111 0.067 0.111 0.066 0.112 0.064 0.113 0.063 0.114 0.061 0.114 0.059 0.116 0.058 0.116 0.057 0.116 0.055 0.118 0.054 0.118 0.052 0.119 0.05 0.119 0.049 0.121 0.047 0.121 0.046 0.121 0.044 0.122 0.043 0.123 0.041 0.123 0.04 0.124 0.037 0.124 0.037 0.125 0.034 0.125 0.033 0.126 0.032 0.127 0.058 0.254 0.026 0.128 0.025 0.128 0.023 0.128 0.021 0.129 0.02 0.13 0.018 0.129 0.017 0.131 0.014 0.13 0.013 0.131 0.012 0.131 9e-3 0.131 8e-3 0.132 6e-3 0.131 5e-3 0.133 2e-3 0.132 1e-3 0.129v1.004h-2v-0.997l-1e-3 -0.11-2e-3 -0.105-3e-3 -0.106-5e-3 -0.105-6e-3 -0.106-8e-3 -0.105-9e-3 -0.104-0.011-0.105-0.011-0.104-0.013-0.104-0.015-0.104-0.016-0.103-0.017-0.104-0.018-0.102-0.02-0.103-0.021-0.102-0.023-0.102-0.024-0.101-0.025-0.101-0.026-0.101-0.028-0.1-0.029-0.1-0.03-0.1-0.031-0.098-0.033-0.099-0.034-0.098-0.036-0.098-0.036-0.097-0.038-0.096-0.039-0.097-0.082-0.19-0.043-0.095-0.044-0.094-0.045-0.093-0.047-0.093-0.048-0.092-0.049-0.092-0.05-0.091-0.051-0.09-0.052-0.09-0.054-0.089-0.055-0.088-0.056-0.088-0.057-0.086-0.058-0.087-0.06-0.085-0.061-0.085-0.061-0.084-0.063-0.083-0.064-0.083-0.065-0.082-0.067-0.081-0.067-0.08-0.138-0.158-0.071-0.077-0.072-0.077-0.073-0.076-0.074-0.075-0.075-0.074-0.076-0.073-0.077-0.073-0.081-0.073-5.356-4.821v5.251 0.063l4e-3 0.118 3e-3 0.058 4e-3 0.059 0.01 0.116 6e-3 0.058 0.016 0.116 0.018 0.114 0.022 0.114 0.012 0.057 0.013 0.056 0.014 0.056 0.015 0.056 0.015 0.055 0.016 0.056 0.017 0.055 0.018 0.055 0.018 0.054 0.02 0.055 0.02 0.053 0.021 0.054 0.021 0.053 0.022 0.053 0.024 0.053 0.023 0.052 0.05 0.104 0.026 0.051 0.027 0.051 0.056 0.1 0.029 0.05 0.06 0.098 0.031 0.049 0.032 0.048 0.066 0.094 0.034 0.047 0.034 0.046 0.036 0.046 0.035 0.045 0.037 0.044 0.037 0.045 0.038 0.043 0.078 0.086 0.04 0.042 0.041 0.042 0.041 0.041 0.042 0.04 0.043 0.04 0.043 0.039 0.044 0.039 0.044 0.038 0.045 0.038 0.046 0.037 0.046 0.036 0.05 0.038 1.625 1.219 0.063 0.049 0.068 0.055 0.065 0.057 0.064 0.059 0.062 0.061 0.061 0.062 0.058 0.065 0.057 0.065 0.054 0.068 0.053 0.069 0.051 0.07 0.048 0.072 0.047 0.074 0.044 0.074 0.043 0.077 0.036 0.071 1.24 2.478-1.789 0.895-1.233-2.466-0.017-0.032-0.014-0.026-0.015-0.025-0.015-0.024-0.016-0.024-0.017-0.024-0.018-0.022-0.018-0.023-0.019-0.022-0.019-0.021-0.02-0.021-0.042-0.04-0.022-0.019-0.023-0.018-0.029-0.023-1.619-1.214-0.067-0.052-0.07-0.054-0.068-0.055-0.068-0.057-0.067-0.057-0.065-0.058-0.065-0.059-0.064-0.06-0.063-0.061-0.062-0.061-0.061-0.063-0.06-0.063-0.058-0.064-0.058-0.065-0.057-0.065-0.056-0.066-0.055-0.068-0.054-0.067-0.053-0.069-0.052-0.069-0.051-0.07-0.05-0.071-0.049-0.071-0.094-0.144-0.046-0.074-0.044-0.073-0.044-0.075-0.042-0.075-0.041-0.076-0.04-0.076-0.04-0.077-0.038-0.077-0.072-0.156-0.035-0.079-0.066-0.16-0.031-0.08-0.03-0.081-0.029-0.081-0.028-0.082-0.026-0.082-0.026-0.083-0.024-0.083-0.023-0.084-0.022-0.083-0.02-0.085-0.02-0.084-0.018-0.085-0.017-0.085-0.016-0.086-0.015-0.086-0.013-0.086-0.012-0.086-0.011-0.087-0.018-0.174-7e-3 -0.088-6e-3 -0.087-4e-3 -0.088-3e-3 -0.088-2e-3 -0.089-1e-3 -0.084v-8.701l0.779-0.347 7.92 7.127z"/><path d="m15.999 12c-3.451 0-6.386 2.518-6.911 5.929-0.215 1.396-0.435 2.827-0.621 4.034-0.298 1.935 0.229 3.907 1.453 5.437 0.299 0.374 0.602 0.752 0.879 1.099 0.759 0.949 1.908 1.501 3.123 1.501h4.156c1.215 0 2.364-0.552 3.123-1.501 0.277-0.347 0.58-0.725 0.879-1.099 1.224-1.53 1.751-3.502 1.453-5.437-0.186-1.207-0.406-2.638-0.621-4.034-0.525-3.411-3.46-5.929-6.911-5.929h-2e-3z" fill="#a69068"/><path d="m18.598 27.01 0.031 7e-3 0.03 9e-3 0.029 0.011 0.029 0.012 0.028 0.015 0.027 0.016 0.025 0.018 0.025 0.02 0.024 0.021 0.022 0.022 0.02 0.024 0.019 0.025 0.018 0.026 0.015 0.027 0.014 0.028 0.013 0.029 0.01 0.03 8e-3 0.03 7e-3 0.031 5e-3 0.031 2e-3 0.031 1e-3 0.031-1e-3 0.032-4e-3 0.031-5e-3 0.031-7e-3 0.031-9e-3 0.03-0.011 0.029-0.012 0.029-0.015 0.028-0.016 0.027-0.018 0.025-0.02 0.025-0.021 0.024-0.022 0.022-0.024 0.02-0.025 0.019-0.026 0.018-0.027 0.015-0.028 0.014-0.029 0.013-0.03 0.01-0.03 8e-3 -0.031 7e-3 -0.031 5e-3 -0.031 2e-3 -0.031 1e-3 -0.032-1e-3 -0.031-4e-3 -0.031-5e-3 -2.402-0.48-2.402 0.48-0.031 5e-3 -0.031 4e-3 -0.032 1e-3 -0.031-1e-3 -0.031-2e-3 -0.031-5e-3 -0.031-7e-3 -0.03-8e-3 -0.03-0.01-0.029-0.013-0.028-0.014-0.027-0.015-0.026-0.018-0.025-0.019-0.024-0.02-0.022-0.022-0.021-0.024-0.02-0.025-0.018-0.025-0.016-0.027-0.015-0.028-0.012-0.029-0.011-0.029-9e-3 -0.03-7e-3 -0.031-5e-3 -0.031-4e-3 -0.031-1e-3 -0.032 1e-3 -0.031 2e-3 -0.031 5e-3 -0.031 7e-3 -0.031 8e-3 -0.03 0.01-0.03 0.013-0.029 0.014-0.028 0.015-0.027 0.018-0.026 0.019-0.025 0.02-0.024 0.022-0.022 0.024-0.021 0.025-0.02 0.025-0.018 0.027-0.016 0.028-0.015 0.029-0.012 0.029-0.011 0.03-9e-3 0.031-7e-3 2.598-0.52 2.598 0.52z" fill="#57422d"/><path d="m18.544 23.502 0.031 4e-3 0.031 5e-3 0.03 8e-3 0.03 9e-3 0.03 0.012 0.028 0.013 0.028 0.015 0.026 0.017 0.026 0.018 0.024 0.02 0.023 0.021 0.022 0.023 0.02 0.024 0.019 0.025 0.017 0.027 0.015 0.027 0.014 0.029 0.011 0.029 0.01 0.029 8e-3 0.031 6e-3 0.031 4e-3 0.031 3e-3 0.031v0.032l-2e-3 0.031-4e-3 0.031-5e-3 0.031-8e-3 0.03-9e-3 0.03-0.012 0.03-0.013 0.028-0.015 0.028-0.017 0.026-0.018 0.026-0.02 0.024-0.021 0.023-0.023 0.022-0.024 0.02-0.025 0.019-0.027 0.017-2.757 1.654-2.757-1.654-0.027-0.017-0.025-0.019-0.024-0.02-0.023-0.022-0.021-0.023-0.02-0.024-0.018-0.026-0.017-0.026-0.015-0.028-0.013-0.028-0.012-0.03-9e-3 -0.03-8e-3 -0.03-5e-3 -0.031-4e-3 -0.031-2e-3 -0.031v-0.032l3e-3 -0.031 4e-3 -0.031 6e-3 -0.031 8e-3 -0.031 0.01-0.029 0.011-0.029 0.014-0.029 0.015-0.027 0.017-0.027 0.019-0.025 0.02-0.024 0.022-0.023 0.023-0.021 0.024-0.02 0.026-0.018 0.026-0.017 0.028-0.015 0.028-0.013 0.03-0.012 0.03-9e-3 0.03-8e-3 0.031-5e-3 0.031-4e-3 0.031-2e-3h0.032l0.031 3e-3 0.031 4e-3 0.031 6e-3 0.031 8e-3 0.029 0.01 0.029 0.011 0.029 0.014 0.027 0.015 2.243 1.346 2.243-1.346 0.027-0.015 0.029-0.014 0.029-0.011 0.029-0.01 0.031-8e-3 0.031-6e-3 0.031-4e-3 0.031-3e-3h0.032l0.031 2e-3z" fill="#57422d"/><path d="m11 18c0.53 0 1.039 0.211 1.414 0.586s0.586 0.884 0.586 1.414v2s-0.709-0.236-1.438-0.479c-0.933-0.311-1.562-1.184-1.562-2.168v-0.353c0-0.552 0.448-1 1-1z"/><path d="m21 18c-0.53 0-1.039 0.211-1.414 0.586s-0.586 0.884-0.586 1.414v2s0.709-0.236 1.438-0.479c0.933-0.311 1.562-1.184 1.562-2.168v-0.353c0-0.552-0.448-1-1-1z"/></g></g></svg>
