<?xml version="1.0" encoding="UTF-8"?>
<!DOCTYPE svg  PUBLIC '-//W3C//DTD SVG 1.1//EN'  'http://www.w3.org/Graphics/SVG/1.1/DTD/svg11.dtd'>
<svg clip-rule="evenodd" fill-rule="evenodd" stroke-miterlimit="3" version="1.1" viewBox="0 0 32 32" xml:space="preserve" xmlns="http://www.w3.org/2000/svg">
<metadata>
<rdf:RDF xmlns:cc="http://web.resource.org/cc/" xmlns:dc="http://purl.org/dc/elements/1.1/" xmlns:rdf="http://www.w3.org/1999/02/22-rdf-syntax-ns#">

     <rdf:Description rdf:about="">
       <dc:title>Mutant Standard emoji 2023.12</dc:title>
     </rdf:Description>

    <cc:work rdf:about="">
        <cc:license rdf:resource="http://creativecommons.org/licenses/by-nc-sa/4.0/"/>
        <cc:attributionName>Caius Nocturne</cc:attributionName>
        <cc:attributionURL>http://mutant.tech/</cc:attributionURL>
    </cc:work>

</rdf:RDF>
</metadata>
<rect id="raccoon" width="32" height="32" fill="none"/><clipPath id="_clip1"><rect width="32" height="32"/></clipPath><g clip-path="url(#_clip1)"><g id="outline"><path d="m21.369 8.952c0.087-0.295 0.247-0.568 0.471-0.792l2e-3 -2e-3c0.105-0.105 0.226-0.192 0.358-0.258 0.792-0.396 3.729-1.865 5.094-2.547 0.187-0.094 0.404-0.109 0.603-0.043 0.198 0.066 0.362 0.209 0.456 0.396v1e-3c0.407 0.814 0.407 1.772 0 2.586-0.575 1.151-1.401 2.803-1.906 3.813l-0.027 0.051c0.715 0.946 1.222 2.054 1.462 3.255 0.536 2.68 1.118 5.588 1.118 5.588h-2v2l-2-1s-3.283 2.189-4.992 3.328c-0.657 0.438-1.429 0.672-2.219 0.672h-3.578c-0.79 0-1.562-0.234-2.219-0.672-1.709-1.139-4.992-3.328-4.992-3.328l-2 1v-2h-2l1.118-5.588c0.24-1.201 0.747-2.309 1.462-3.255l-0.027-0.051c-0.505-1.01-1.331-2.662-1.906-3.813-0.407-0.814-0.407-1.772 0-2.586v-1e-3c0.094-0.187 0.258-0.33 0.456-0.396 0.199-0.066 0.416-0.051 0.603 0.043 1.365 0.682 4.302 2.151 5.094 2.547 0.132 0.066 0.253 0.153 0.358 0.258l2e-3 2e-3c0.224 0.224 0.384 0.497 0.471 0.792l1.268-0.461c2.649-0.963 5.553-0.963 8.202 0l1.268 0.461z" fill="none" stroke="#000" stroke-width="4px"/></g><g id="emoji"><path d="m3.993 16.036 0.125-0.624c0.548-2.74 2.485-4.995 5.11-5.95 0.877-0.318 1.799-0.654 2.671-0.971 2.649-0.963 5.553-0.963 8.202 0 0.872 0.317 1.794 0.653 2.671 0.971 2.625 0.955 4.562 3.21 5.11 5.95l0.125 0.624c-2.191-1.95-5.028-3.036-7.978-3.036h-0.029c-1.657 0-3 1.343-3 3 0 1.105 0.895 2 2 2l1 1-4 4-4-4 1-1c1.105 0 2-0.895 2-2 0-1.657-1.343-3-3-3h-0.029c-2.95 0-5.787 1.086-7.978 3.036z" fill="#878787"/><path d="m19.333 19.667c0.01 4e-3 3.479 0.333 3.479 0.333s-0.353 2.537 0 3.459l-2.804 1.869c-0.657 0.438-1.429 0.672-2.219 0.672h-3.578c-0.79 0-1.562-0.234-2.219-0.672l-2.804-1.869c0.342-0.893 0-3.097 0-3.097s3.469-0.691 3.479-0.695l3.333 3.333 3.333-3.333zm-1.319-1.927c-0.606-0.343-1.014-0.994-1.014-1.74 0-1.657 1.343-3 3-3h0.029c2.95 0 5.787 1.086 7.978 3.036l0.993 4.964h-1.667s-9.328-3.346-9.319-3.26zm-13.347 3.26h-1.667l0.993-4.964c2.191-1.95 5.028-3.036 7.978-3.036h0.029c1.657 0 3 1.343 3 3 0 0.746-0.408 1.397-1.014 1.74 9e-3 -0.086-9.319 3.26-9.319 3.26z" fill="#e1e1e1"/><path d="m4.667 21 1.626-2.927c1.054-1.897 3.053-3.073 5.222-3.073h9e-3c1.367 0 2.476 1.109 2.476 2.476v2e-3c0 0.933-0.527 1.785-1.361 2.202-0.015 8e-3 -0.03 0.016-0.046 0.023-1.567 0.784-2.781 2.126-3.405 3.756l-2.188-1.459-2 1v-2h-0.333zm18.145 2.459c-0.624-1.63-1.838-2.972-3.405-3.756-0.016-7e-3 -0.031-0.015-0.046-0.023-0.834-0.417-1.361-1.269-1.361-2.202v-2e-3c0-1.367 1.109-2.476 2.476-2.476h9e-3c2.169 0 4.168 1.176 5.222 3.073l1.626 2.927h-0.333v2l-2-1-2.188 1.459z" fill="#484848"/><circle cx="11.5" cy="17.5" r="1.5"/><circle cx="20.5" cy="17.5" r="1.5"/><path d="m15.236 21c-0.155 0-0.308 0.036-0.447 0.106-0.047 0.023-0.1 0.049-0.158 0.078-0.901 0.451-1.266 1.546-0.815 2.447v1e-3c0.113 0.226 0.343 0.368 0.595 0.368h3.178c0.252 0 0.482-0.142 0.595-0.368v-1e-3c0.451-0.901 0.086-1.996-0.815-2.447-0.058-0.029-0.111-0.055-0.158-0.078-0.139-0.07-0.292-0.106-0.447-0.106h-1.528z"/><path d="m6.894 12.553c-0.494 0.247-1.094 0.047-1.341-0.447-0.505-1.01-1.331-2.662-1.906-3.813-0.407-0.814-0.407-1.772 0-2.586v-1e-3c0.094-0.187 0.258-0.33 0.456-0.396 0.199-0.066 0.416-0.051 0.603 0.043 1.365 0.682 4.302 2.151 5.094 2.547 0.132 0.066 0.253 0.153 0.358 0.258l2e-3 2e-3c0.426 0.426 0.621 1.031 0.525 1.627-0.097 0.595-0.474 1.107-1.013 1.377-0.973 0.486-2.044 1.022-2.778 1.389zm18.212 0c0.494 0.247 1.094 0.047 1.341-0.447 0.505-1.01 1.331-2.662 1.906-3.813 0.407-0.814 0.407-1.772 0-2.586v-1e-3c-0.094-0.187-0.258-0.33-0.456-0.396-0.199-0.066-0.416-0.051-0.603 0.043-1.365 0.682-4.302 2.151-5.094 2.547-0.132 0.066-0.253 0.153-0.358 0.258l-2e-3 2e-3c-0.426 0.426-0.621 1.031-0.525 1.627 0.097 0.595 0.474 1.107 1.013 1.377 0.973 0.486 2.044 1.022 2.778 1.389z" fill="#484848"/></g></g></svg>
