<?xml version="1.0" encoding="UTF-8"?>
<!DOCTYPE svg  PUBLIC '-//W3C//DTD SVG 1.1//EN'  'http://www.w3.org/Graphics/SVG/1.1/DTD/svg11.dtd'>
<svg clip-rule="evenodd" fill-rule="evenodd" stroke-linecap="round" stroke-miterlimit="2" version="1.1" viewBox="0 0 32 32" xml:space="preserve" xmlns="http://www.w3.org/2000/svg">
<metadata>
<rdf:RDF xmlns:cc="http://web.resource.org/cc/" xmlns:dc="http://purl.org/dc/elements/1.1/" xmlns:rdf="http://www.w3.org/1999/02/22-rdf-syntax-ns#">

     <rdf:Description rdf:about="">
       <dc:title>Mutant Standard emoji 2023.12</dc:title>
     </rdf:Description>

    <cc:work rdf:about="">
        <cc:license rdf:resource="http://creativecommons.org/licenses/by-nc-sa/4.0/"/>
        <cc:attributionName>Caius Nocturne</cc:attributionName>
        <cc:attributionURL>http://mutant.tech/</cc:attributionURL>
    </cc:work>

</rdf:RDF>
</metadata>
<rect id="ram" width="32" height="32" fill="none"/><clipPath id="_clip1"><rect width="32" height="32"/></clipPath><g clip-path="url(#_clip1)"><g id="outline"><path d="m15.08 10c-2.437 0-4.6 1.559-5.37 3.87v1e-3c-0.467 1.4-0.601 2.89-0.393 4.351 0.166 1.158 0.362 2.533 0.502 3.51 0.119 0.832 0.445 1.62 0.95 2.293 0.313 0.418 0.683 0.911 1.031 1.375 0.755 1.007 1.941 1.6 3.2 1.6h2c1.259 0 2.445-0.593 3.2-1.6 0.348-0.464 0.718-0.957 1.031-1.375 0.505-0.673 0.831-1.461 0.95-2.293 0.14-0.977 0.336-2.352 0.502-3.51 0.208-1.461 0.074-2.951-0.393-4.351v-1e-3c-0.77-2.311-2.933-3.87-5.37-3.87h-1.84z"/><path d="m17.074 8.001 0.154 5e-3 0.153 8e-3 0.152 0.01 0.152 0.014 0.151 0.017 0.15 0.019 0.15 0.023 0.149 0.025 0.148 0.028 0.147 0.031 0.146 0.034 0.145 0.037 0.144 0.04 0.143 0.042 0.143 0.045 0.14 0.047 0.14 0.051 0.139 0.052 0.137 0.056 0.137 0.058 0.134 0.061 0.134 0.063 0.132 0.066 0.131 0.068 0.13 0.071 0.128 0.073 0.126 0.075 0.125 0.078 0.123 0.08 0.122 0.083 0.12 0.085 0.119 0.087 0.117 0.089 0.115 0.092 0.113 0.094 0.112 0.096 0.11 0.098 0.108 0.101 0.106 0.103 0.104 0.104 0.102 0.107 0.1 0.109 0.099 0.111 0.096 0.112 0.094 0.115 0.092 0.117 0.089 0.118 0.088 0.121 0.086 0.123 0.082 0.124 0.081 0.126 0.079 0.128 0.076 0.13 0.073 0.131 0.071 0.133 0.069 0.135 0.066 0.136 0.064 0.139 0.061 0.139 0.058 0.141 0.055 0.143 0.053 0.144 0.037 0.107 6e-3 0.017 0.059 0.181 0.05 0.16 0.047 0.161 0.045 0.161 0.042 0.161 0.04 0.162 0.038 0.163 0.035 0.162 0.033 0.164 0.03 0.163 0.028 0.165 0.026 0.164 0.023 0.165 0.021 0.165 0.019 0.165 0.016 0.166 0.013 0.166 0.012 0.166 9e-3 0.166 6e-3 0.166 4e-3 0.166 2e-3 0.167-1e-3 0.167-3e-3 0.166-5e-3 0.167-8e-3 0.166-0.01 0.167-0.013 0.166-0.015 0.167-0.018 0.166-0.02 0.166-0.021 0.159-0.504 3.525-0.015 0.101-0.018 0.108-0.02 0.109-0.022 0.107-0.023 0.108-0.025 0.107-0.026 0.106-0.058 0.212-0.032 0.105-0.033 0.104-0.035 0.104-0.036 0.104-0.038 0.102-0.039 0.102-0.041 0.101-0.043 0.101-0.044 0.101-0.046 0.099-0.047 0.099-0.049 0.097-0.051 0.098-0.052 0.096-0.053 0.096-0.055 0.095-0.057 0.094-0.058 0.093-0.059 0.092-0.062 0.092-0.062 0.091-0.064 0.089-0.061 0.082-1.04 1.388-0.049 0.064-0.055 0.07-0.055 0.068-0.057 0.068-0.057 0.066-0.058 0.066-0.059 0.065-0.06 0.064-0.061 0.063-0.061 0.062-0.063 0.061-0.063 0.06-0.064 0.058-0.13 0.116-0.066 0.055-0.067 0.055-0.068 0.054-0.069 0.053-0.069 0.052-0.07 0.051-0.071 0.05-0.071 0.049-0.144 0.094-0.074 0.046-0.073 0.044-0.075 0.044-0.075 0.042-0.152 0.082-0.077 0.039-0.077 0.038-0.156 0.072-0.079 0.035-0.16 0.066-0.08 0.031-0.081 0.03-0.081 0.029-0.082 0.028-0.082 0.026-0.083 0.026-0.083 0.024-0.083 0.023-0.084 0.022-0.085 0.02-0.084 0.02-0.085 0.018-0.085 0.017-0.086 0.016-0.086 0.015-0.086 0.013-0.086 0.012-0.087 0.011-0.174 0.018-0.088 7e-3 -0.088 6e-3 -0.087 4e-3 -0.088 3e-3 -0.089 2e-3 -0.081 1e-3h-2.014l-0.081-1e-3 -0.089-2e-3 -0.088-3e-3 -0.088-4e-3 -0.087-6e-3 -0.088-7e-3 -0.174-0.018-0.087-0.011-0.086-0.012-0.086-0.013-0.086-0.015-0.086-0.016-0.085-0.017-0.085-0.018-0.085-0.02-0.084-0.02-0.084-0.022-0.083-0.023-0.083-0.024-0.083-0.026-0.082-0.026-0.082-0.028-0.081-0.029-0.081-0.03-0.08-0.031-0.16-0.066-0.079-0.035-0.156-0.072-0.077-0.038-0.077-0.039-0.152-0.082-0.075-0.042-0.075-0.044-0.073-0.044-0.074-0.046-0.144-0.094-0.071-0.049-0.071-0.05-0.07-0.051-0.069-0.052-0.069-0.053-0.067-0.054-0.068-0.055-0.066-0.056-0.065-0.057-0.065-0.058-0.064-0.058-0.063-0.06-0.063-0.061-0.061-0.062-0.061-0.063-0.06-0.064-0.059-0.065-0.058-0.065-0.057-0.067-0.057-0.068-0.055-0.068-0.055-0.07-0.049-0.064-1.04-1.388-0.061-0.082-0.064-0.089-0.062-0.091-0.062-0.092-0.059-0.092-0.058-0.093-0.057-0.094-0.055-0.095-0.053-0.096-0.052-0.096-0.051-0.097-0.049-0.098-0.047-0.099-0.046-0.099-0.044-0.101-0.043-0.101-0.041-0.101-0.039-0.102-0.038-0.103-0.036-0.103-0.035-0.104-0.033-0.104-0.032-0.105-0.029-0.106-0.029-0.105-0.026-0.107-0.025-0.107-0.023-0.108-0.022-0.107-0.019-0.108-0.019-0.109-0.015-0.102-0.504-3.524-0.021-0.159-0.02-0.166-0.018-0.166-0.015-0.167-0.013-0.166-0.01-0.167-8e-3 -0.166-5e-3 -0.167-3e-3 -0.166-1e-3 -0.167 2e-3 -0.167 4e-3 -0.166 6e-3 -0.166 9e-3 -0.166 0.012-0.166 0.013-0.166 0.016-0.166 0.019-0.165 0.021-0.165 0.023-0.165 0.026-0.164 0.028-0.165 0.03-0.163 0.033-0.164 0.035-0.162 0.038-0.163 0.04-0.162 0.042-0.161 0.045-0.161 0.047-0.161 0.05-0.16 0.044-0.137 6e-3 -0.017 0.052-0.151 0.053-0.144 0.055-0.143 0.058-0.141 0.061-0.139 0.064-0.139 0.066-0.136 0.069-0.135 0.071-0.133 0.073-0.131 0.076-0.13 0.079-0.128 0.081-0.126 0.083-0.124 0.085-0.123 0.087-0.12 0.09-0.119 0.092-0.117 0.094-0.115 0.096-0.113 0.099-0.11 0.1-0.109 0.102-0.107 0.104-0.104 0.106-0.103 0.108-0.101 0.11-0.098 0.112-0.096 0.113-0.094 0.115-0.092 0.117-0.089 0.119-0.087 0.12-0.085 0.122-0.083 0.123-0.08 0.125-0.078 0.126-0.075 0.128-0.073 0.13-0.071 0.131-0.068 0.132-0.066 0.133-0.063 0.135-0.061 0.137-0.058 0.137-0.056 0.139-0.052 0.14-0.051 0.14-0.047 0.143-0.045 0.143-0.042 0.144-0.04 0.145-0.037 0.146-0.034 0.147-0.031 0.148-0.028 0.149-0.025 0.15-0.023 0.15-0.019 0.151-0.017 0.152-0.014 0.152-0.01 0.153-8e-3 0.154-5e-3 0.144-1e-3h1.86l0.144 1e-3zm3.294 6.432-0.025-0.07-0.027-0.068-0.027-0.067-0.03-0.067-0.03-0.066-0.031-0.065-0.033-0.065-0.034-0.063-0.035-0.063-0.037-0.062-0.037-0.061-0.038-0.06-0.04-0.059-0.082-0.116-0.043-0.056-0.044-0.056-0.045-0.055-0.046-0.054-0.047-0.053-0.047-0.052-0.049-0.051-0.05-0.05-0.051-0.049-0.051-0.048-0.053-0.047-0.053-0.046-0.055-0.045-0.055-0.044-0.112-0.084-0.058-0.041-0.058-0.039-0.059-0.039-0.06-0.037-0.061-0.036-0.061-0.035-0.062-0.034-0.062-0.032-0.064-0.032-0.063-0.03-0.065-0.029-0.065-0.028-0.132-0.052-0.066-0.024-0.068-0.022-0.067-0.022-0.069-0.02-0.068-0.019-0.07-0.017-0.069-0.016-0.07-0.015-0.071-0.014-0.071-0.012-0.071-0.01-0.072-0.01-0.072-8e-3 -0.073-6e-3 -0.072-5e-3 -0.074-4e-3 -0.073-2e-3 -0.084-1e-3h-1.822l-0.084 1e-3 -0.073 2e-3 -0.074 4e-3 -0.072 5e-3 -0.073 6e-3 -0.072 8e-3 -0.072 0.01-0.071 0.01-0.071 0.012-0.071 0.014-0.07 0.015-0.069 0.016-0.07 0.017-0.068 0.019-0.069 0.02-0.067 0.022-0.068 0.022-0.066 0.024-0.132 0.052-0.065 0.028-0.064 0.029-0.064 0.03-0.064 0.032-0.062 0.032-0.062 0.034-0.061 0.035-0.061 0.036-0.06 0.037-0.059 0.039-0.058 0.039-0.058 0.041-0.056 0.042-0.056 0.043-0.055 0.043-0.055 0.045-0.053 0.046-0.053 0.047-0.051 0.048-0.051 0.049-0.05 0.05-0.049 0.051-0.047 0.052-0.047 0.053-0.046 0.054-0.045 0.055-0.044 0.056-0.043 0.056-0.082 0.116-0.04 0.059-0.038 0.06-0.037 0.061-0.037 0.062-0.035 0.063-0.034 0.063-0.033 0.065-0.031 0.065-0.03 0.066-0.03 0.067-0.027 0.067-0.027 0.068-0.026 0.07-0.022 0.064 5e-3 -0.016-0.041 0.126-0.032 0.104-0.031 0.105-0.029 0.105-0.027 0.105-0.026 0.106-0.025 0.106-0.023 0.106-0.021 0.107-0.02 0.107-0.019 0.107-0.016 0.107-0.015 0.108-0.014 0.107-0.012 0.108-0.011 0.108-9e-3 0.108-7e-3 0.109-6e-3 0.108-4e-3 0.108-3e-3 0.109-1e-3 0.109v0.108l2e-3 0.109 4e-3 0.109 5e-3 0.108 7e-3 0.109 8e-3 0.109 0.01 0.108 0.012 0.109 0.013 0.108 0.015 0.115 0.5 3.495 8e-3 0.055 8e-3 0.046 8e-3 0.047 9e-3 0.046 0.01 0.046 0.011 0.046 0.011 0.045 0.012 0.046 0.013 0.045 0.028 0.09 0.015 0.044 0.015 0.045 0.016 0.043 0.017 0.044 0.018 0.044 0.018 0.043 0.019 0.043 0.02 0.043 0.02 0.042 0.021 0.042 0.022 0.041 0.022 0.042 0.023 0.041 0.024 0.04 0.024 0.041 0.025 0.04 0.025 0.039 0.026 0.04 0.027 0.038 0.028 0.039 0.032 0.044 1.023 1.363 0.022 0.03 0.018 0.023 0.019 0.023 0.018 0.022 0.019 0.022 0.04 0.044 0.019 0.021 0.021 0.021 0.02 0.021 0.042 0.04 0.021 0.019 0.022 0.02 0.044 0.038 0.022 0.018 0.023 0.018 0.022 0.017 0.024 0.018 0.023 0.017 0.023 0.016 0.024 0.017 0.024 0.015 0.024 0.016 0.025 0.015 0.024 0.015 0.025 0.015 0.025 0.014 0.025 0.013 0.026 0.014 0.025 0.013 0.026 0.012 0.027 0.013 0.026 0.012 0.052 0.022 0.054 0.022 0.027 0.01 0.027 9e-3 0.027 0.01 0.028 8e-3 0.027 9e-3 0.056 0.016 0.056 0.014 0.084 0.018 0.029 5e-3 0.028 5e-3 0.029 5e-3 0.029 4e-3 0.116 0.012 0.029 1e-3 0.03 2e-3 0.058 2e-3h0.037 1.986 0.037l0.058-2e-3 0.03-2e-3 0.029-1e-3 0.116-0.012 0.029-4e-3 0.029-5e-3 0.028-5e-3 0.029-5e-3 0.084-0.018 0.056-0.014 0.056-0.016 0.027-9e-3 0.028-8e-3 0.027-0.01 0.027-9e-3 0.027-0.01 0.054-0.022 0.052-0.022 0.027-0.012 0.026-0.013 0.026-0.012 0.025-0.013 0.025-0.014 0.026-0.013 0.025-0.015 0.025-0.014 0.024-0.015 0.025-0.015 0.024-0.016 0.024-0.015 0.024-0.017 0.023-0.016 0.023-0.017 0.024-0.018 0.022-0.017 0.023-0.018 0.022-0.018 0.044-0.038 0.022-0.02 0.021-0.019 0.042-0.04 0.02-0.021 0.021-0.021 0.019-0.021 0.02-0.022 0.019-0.022 0.02-0.022 0.018-0.023 0.019-0.022 0.018-0.023 0.022-0.03 1.023-1.363 0.032-0.044 0.028-0.039 0.027-0.039 0.026-0.039 0.025-0.039 0.025-0.04 0.024-0.041 0.024-0.04 0.023-0.041 0.022-0.042 0.022-0.041 0.021-0.042 0.02-0.043 0.02-0.042 0.019-0.043 0.018-0.043 0.018-0.044 0.017-0.044 0.016-0.044 0.03-0.088 0.028-0.09 0.013-0.045 0.012-0.045 0.022-0.092 0.01-0.046 9e-3 -0.046 8e-3 -0.047 8e-3 -0.046 8e-3 -0.055 0.5-3.495 0.015-0.115 0.013-0.108 0.012-0.109 0.01-0.108 8e-3 -0.109 7e-3 -0.109 5e-3 -0.108 4e-3 -0.109 2e-3 -0.109v-0.109l-1e-3 -0.108-3e-3 -0.108-4e-3 -0.109-6e-3 -0.108-7e-3 -0.109-9e-3 -0.108-0.011-0.108-0.012-0.108-0.014-0.107-0.015-0.108-0.016-0.107-0.019-0.107-0.02-0.107-0.021-0.107-0.023-0.106-0.025-0.106-0.026-0.106-0.027-0.105-0.029-0.105-0.031-0.105-0.032-0.104-0.027-0.081 6e-3 0.015-0.038-0.108z"/><path d="m18 9c0.649-1.298 1.702-2.351 3-3 0.265-0.132 0.547-0.274 0.843-0.421 1.533-0.767 3.353-0.685 4.811 0.216s2.346 2.493 2.346 4.207v13.998l1 2h-1-0.032c-1.127 0-2.079-0.834-2.228-1.951-0.453-3.393-1.363-10.224-1.651-12.381-0.051-0.382-0.377-0.668-0.763-0.668h-7e-3c-0.204 0-0.4 0.081-0.545 0.226l-0.774 0.774-5-3z" fill="none" stroke="#000" stroke-width="4px"/><path d="m14 9c-0.649-1.298-1.702-2.351-3-3-0.265-0.132-0.547-0.274-0.843-0.421-1.533-0.767-3.353-0.685-4.811 0.216s-2.346 2.493-2.346 4.207v13.998l-1 2h1 0.032c1.127 0 2.079-0.834 2.228-1.951 0.453-3.393 1.363-10.224 1.651-12.381 0.051-0.382 0.377-0.668 0.763-0.668h7e-3c0.204 0 0.4 0.081 0.545 0.226l0.774 0.774 5-3z" fill="none" stroke="#000" stroke-width="4px"/></g><g id="emoji"><path d="m18 9c0.649-1.298 1.702-2.351 3-3 0.265-0.132 0.547-0.274 0.843-0.421 1.533-0.767 3.353-0.685 4.811 0.216s2.346 2.493 2.346 4.207v13.998l1 2h-1-0.032c-1.127 0-2.079-0.834-2.228-1.951-0.453-3.393-1.363-10.224-1.651-12.381-0.051-0.382-0.377-0.668-0.763-0.668h-7e-3c-0.204 0-0.4 0.081-0.545 0.226l-0.774 0.774-5-3z" fill="#57472e"/><path d="m14 9c-0.649-1.298-1.702-2.351-3-3-0.265-0.132-0.547-0.274-0.843-0.421-1.533-0.767-3.353-0.685-4.811 0.216s-2.346 2.493-2.346 4.207v13.998l-1 2h1 0.032c1.127 0 2.079-0.834 2.228-1.951 0.453-3.393 1.363-10.224 1.651-12.381 0.051-0.382 0.377-0.668 0.763-0.668h7e-3c0.204 0 0.4 0.081 0.545 0.226l0.774 0.774 5-3z" fill="#57472e"/><path d="m19 16s0.361-0.542 0.777-1.165c0.789-1.185 1.975-2.05 3.344-2.441 2.06-0.589 4.879-1.394 4.879-1.394s-0.544 1.631-1.064 3.192c-0.604 1.812-1.836 3.348-3.474 4.331-1.237 0.742-2.462 1.477-2.462 1.477" fill="#7b6d56"/><clipPath id="_clip2"><path d="m19 16s0.361-0.542 0.777-1.165c0.789-1.185 1.975-2.05 3.344-2.441 2.06-0.589 4.879-1.394 4.879-1.394s-0.544 1.631-1.064 3.192c-0.604 1.812-1.836 3.348-3.474 4.331-1.237 0.742-2.462 1.477-2.462 1.477"/></clipPath><g clip-path="url(#_clip2)"><path d="m28 12s-2.051 0.879-3.932 1.685c-0.646 0.277-1.099 0.873-1.194 1.569-0.095 0.697 0.184 1.392 0.732 1.831 1.214 0.971 2.394 1.915 2.394 1.915l2 1v-8" fill="#958770"/></g><path d="m13 16s-0.361-0.542-0.777-1.165c-0.789-1.185-1.975-2.05-3.344-2.441-2.06-0.589-4.879-1.394-4.879-1.394s0.544 1.631 1.064 3.192c0.604 1.812 1.836 3.348 3.474 4.331 1.237 0.742 2.462 1.477 2.462 1.477" fill="#7b6d56"/><clipPath id="_clip3"><path d="m13 16s-0.361-0.542-0.777-1.165c-0.789-1.185-1.975-2.05-3.344-2.441-2.06-0.589-4.879-1.394-4.879-1.394s0.544 1.631 1.064 3.192c0.604 1.812 1.836 3.348 3.474 4.331 1.237 0.742 2.462 1.477 2.462 1.477"/></clipPath><g clip-path="url(#_clip3)"><path d="m4 12s2.051 0.879 3.932 1.685c0.646 0.277 1.099 0.873 1.194 1.569 0.095 0.697-0.184 1.392-0.732 1.831-1.214 0.971-2.394 1.915-2.394 1.915l-2 1v-8" fill="#958770"/></g><path d="m15.08 10c-2.437 0-4.6 1.559-5.37 3.87v1e-3c-0.467 1.4-0.601 2.89-0.393 4.351 0.166 1.158 0.362 2.533 0.502 3.51 0.119 0.832 0.445 1.62 0.95 2.293 0.313 0.418 0.683 0.911 1.031 1.375 0.755 1.007 1.941 1.6 3.2 1.6h2c1.259 0 2.445-0.593 3.2-1.6 0.348-0.464 0.718-0.957 1.031-1.375 0.505-0.673 0.831-1.461 0.95-2.293 0.14-0.977 0.336-2.352 0.502-3.51 0.208-1.461 0.074-2.951-0.393-4.351v-1e-3c-0.77-2.311-2.933-3.87-5.37-3.87h-1.84z" fill="#7b6d56"/><clipPath id="_clip4"><path d="m15.08 10c-2.437 0-4.6 1.559-5.37 3.87v1e-3c-0.467 1.4-0.601 2.89-0.393 4.351 0.166 1.158 0.362 2.533 0.502 3.51 0.119 0.832 0.445 1.62 0.95 2.293 0.313 0.418 0.683 0.911 1.031 1.375 0.755 1.007 1.941 1.6 3.2 1.6h2c1.259 0 2.445-0.593 3.2-1.6 0.348-0.464 0.718-0.957 1.031-1.375 0.505-0.673 0.831-1.461 0.95-2.293 0.14-0.977 0.336-2.352 0.502-3.51 0.208-1.461 0.074-2.951-0.393-4.351v-1e-3c-0.77-2.311-2.933-3.87-5.37-3.87h-1.84z"/></clipPath><g clip-path="url(#_clip4)"><path d="m10 26 2.171-4.342c0.508-1.016 1.547-1.658 2.683-1.658h2.292c1.136 0 2.175 0.642 2.683 1.658l2.171 4.342v3h-12v-3z" fill="#c9c4ba"/></g><path d="m18.028 25.001 0.028 2e-3 0.028 4e-3 0.027 6e-3 0.027 7e-3 0.027 8e-3 0.026 0.01 0.026 0.012 0.025 0.012 0.024 0.015 0.023 0.015 0.023 0.017 0.021 0.018 0.021 0.019 0.019 0.021 0.018 0.021 0.017 0.023 0.015 0.023 0.015 0.024 0.012 0.025 0.012 0.026 0.01 0.026 8e-3 0.027 7e-3 0.027 6e-3 0.027 4e-3 0.028 2e-3 0.028 1e-3 0.028-1e-3 0.028-2e-3 0.028-4e-3 0.028-6e-3 0.027-7e-3 0.027-8e-3 0.027-0.01 0.026-0.012 0.026-0.012 0.025-0.015 0.024-0.015 0.023-0.017 0.023-0.018 0.021-0.019 0.021-0.021 0.019-0.021 0.018-0.023 0.017-0.023 0.015-0.024 0.015-0.025 0.012-0.026 0.012-0.026 0.01-0.027 8e-3 -0.027 7e-3 -0.027 6e-3 -0.028 4e-3 -0.028 2e-3 -0.028 1e-3h-4l-0.028-1e-3 -0.028-2e-3 -0.028-4e-3 -0.027-6e-3 -0.027-7e-3 -0.027-8e-3 -0.026-0.01-0.026-0.012-0.025-0.012-0.024-0.015-0.023-0.015-0.023-0.017-0.021-0.018-0.021-0.019-0.019-0.021-0.018-0.021-0.017-0.023-0.015-0.023-0.015-0.024-0.012-0.025-0.012-0.026-0.01-0.026-8e-3 -0.027-7e-3 -0.027-6e-3 -0.027-4e-3 -0.028-2e-3 -0.028-1e-3 -0.028 1e-3 -0.028 2e-3 -0.028 4e-3 -0.028 6e-3 -0.027 7e-3 -0.027 8e-3 -0.027 0.01-0.026 0.012-0.026 0.012-0.025 0.015-0.024 0.015-0.023 0.017-0.023 0.018-0.021 0.019-0.021 0.021-0.019 0.021-0.018 0.023-0.017 0.023-0.015 0.024-0.015 0.025-0.012 0.026-0.012 0.026-0.01 0.027-8e-3 0.027-7e-3 0.027-6e-3 0.028-4e-3 0.028-2e-3 0.028-1e-3h4l0.028 1e-3z" fill="#43413e"/><path d="m22 16v0.225c0 0.643-0.309 1.247-0.831 1.623-0.521 0.376-1.192 0.478-1.801 0.275-0.225-0.075-0.368-0.123-0.368-0.123l0.447-0.894c0.339-0.678 1.032-1.106 1.789-1.106h0.764z"/><path d="m10 16v0.225c0 0.643 0.309 1.247 0.831 1.623 0.521 0.376 1.192 0.478 1.801 0.275 0.225-0.075 0.368-0.123 0.368-0.123l-0.447-0.894c-0.339-0.678-1.032-1.106-1.789-1.106h-0.764z"/><path d="m14.78 21.39c-0.167-0.084-0.365-0.075-0.524 0.024-0.159 0.098-0.256 0.271-0.256 0.458v1e-3c0 0.081 0.032 0.159 0.09 0.217l1.91 1.91 1.91-1.91c0.058-0.058 0.09-0.136 0.09-0.217v-1e-3c0-0.187-0.097-0.36-0.256-0.458-0.159-0.099-0.357-0.108-0.524-0.024-0.561 0.281-1.22 0.61-1.22 0.61s-0.659-0.329-1.22-0.61z"/><path d="m17.322 10.355c-0.192 0.385-0.117 0.85 0.188 1.155l0.443 0.443c0.67 0.67 1.579 1.047 2.527 1.047h1.106c0.265 0 0.519-0.105 0.707-0.293l1.707-1.707-3-2h-3s-0.385 0.771-0.678 1.355z" fill="#57472e"/><path d="m14.678 10.355c0.192 0.385 0.117 0.85-0.188 1.155l-0.443 0.443c-0.67 0.67-1.579 1.047-2.527 1.047h-1.106c-0.265 0-0.519-0.105-0.707-0.293l-1.707-1.707 3-2h3s0.385 0.771 0.678 1.355z" fill="#57472e"/></g></g></svg>
