<?xml version="1.0" encoding="UTF-8"?>
<!DOCTYPE svg  PUBLIC '-//W3C//DTD SVG 1.1//EN'  'http://www.w3.org/Graphics/SVG/1.1/DTD/svg11.dtd'>
<svg clip-rule="evenodd" fill-rule="evenodd" stroke-linejoin="round" stroke-miterlimit="1.4142" version="1.1" viewBox="0 0 32 32" xml:space="preserve" xmlns="http://www.w3.org/2000/svg">
<metadata>
<rdf:RDF xmlns:cc="http://web.resource.org/cc/" xmlns:dc="http://purl.org/dc/elements/1.1/" xmlns:rdf="http://www.w3.org/1999/02/22-rdf-syntax-ns#">

     <rdf:Description rdf:about="">
       <dc:title>Mutant Standard emoji 2023.12</dc:title>
     </rdf:Description>

    <cc:work rdf:about="">
        <cc:license rdf:resource="http://creativecommons.org/licenses/by-nc-sa/4.0/"/>
        <cc:attributionName>Caius Nocturne</cc:attributionName>
        <cc:attributionURL>http://mutant.tech/</cc:attributionURL>
    </cc:work>

</rdf:RDF>
</metadata>
<rect id="rat" width="32" height="32" fill="none"/><g id="outline"><path d="m14.978 7c-2.696 0-5.25 1.209-6.96 3.294-1.709 2.085-2.394 4.827-1.865 7.471 0.214 1.069 0.406 2.028 0.552 2.762 0.195 0.971 0.593 1.89 1.168 2.696 0.725 1.015 1.773 2.482 2.631 3.683 0.939 1.314 2.454 2.094 4.069 2.094h2.854c1.615 0 3.13-0.78 4.069-2.094 0.858-1.201 1.906-2.668 2.631-3.683 0.575-0.806 0.973-1.725 1.168-2.696 0.146-0.734 0.338-1.693 0.552-2.762 0.529-2.644-0.156-5.386-1.865-7.471-1.71-2.085-4.264-3.294-6.96-3.294h-2.044z"/><path d="m17.176 5.001 0.154 3e-3 0.154 6e-3 0.153 7e-3 0.153 0.01 0.153 0.012 0.153 0.013 0.152 0.016 0.151 0.018 0.151 0.021 0.151 0.022 0.151 0.024 0.149 0.026 0.15 0.029 0.148 0.03 0.148 0.033 0.148 0.034 0.147 0.037 0.147 0.038 0.145 0.04 0.145 0.043 0.145 0.044 0.144 0.047 0.143 0.048 0.142 0.05 0.142 0.052 0.141 0.054 0.14 0.056 0.139 0.058 0.138 0.06 0.138 0.062 0.136 0.063 0.136 0.066 0.135 0.067 0.134 0.069 0.133 0.071 0.132 0.073 0.131 0.075 0.131 0.076 0.129 0.078 0.128 0.08 0.127 0.082 0.126 0.084 0.124 0.085 0.124 0.087 0.123 0.089 0.121 0.09 0.12 0.093 0.119 0.094 0.118 0.096 0.117 0.097 0.115 0.099 0.114 0.101 0.113 0.102 0.111 0.105 0.11 0.105 0.109 0.108 0.108 0.109 0.105 0.111 0.105 0.112 0.103 0.114 0.102 0.115 0.1 0.117 0.099 0.119 0.097 0.12 0.095 0.121 0.093 0.123 0.091 0.123 0.09 0.125 0.088 0.125 0.086 0.127 0.084 0.128 0.082 0.128 0.08 0.13 0.079 0.131 0.076 0.131 0.075 0.133 0.072 0.133 0.071 0.134 0.069 0.136 0.067 0.136 0.065 0.136 0.063 0.138 0.061 0.138 0.06 0.14 0.057 0.139 0.055 0.141 0.053 0.141 0.052 0.142 0.049 0.143 0.048 0.143 0.045 0.144 0.044 0.144 0.041 0.145 0.04 0.146 0.037 0.146 0.036 0.146 0.033 0.147 0.032 0.148 0.029 0.147 0.028 0.149 0.025 0.148 0.023 0.149 0.022 0.15 0.019 0.15 0.017 0.15 0.016 0.15 0.013 0.151 0.011 0.151 9e-3 0.151 7e-3 0.151 4e-3 0.152 3e-3 0.151 1e-3 0.152-2e-3 0.152-3e-3 0.152-6e-3 0.152-8e-3 0.152-9e-3 0.153-0.013 0.152-0.014 0.152-0.016 0.152-0.018 0.152-0.021 0.152-0.023 0.152-0.025 0.152-0.027 0.152-0.027 0.144-0.555 2.776-0.023 0.11-0.026 0.116-0.027 0.116-0.029 0.116-0.03 0.115-0.032 0.115-0.033 0.114-0.035 0.114-0.036 0.113-0.038 0.112-0.039 0.113-0.041 0.111-0.042 0.111-0.044 0.111-0.045 0.11-0.046 0.109-0.048 0.108-0.049 0.108-0.051 0.108-0.052 0.106-0.054 0.106-0.055 0.106-0.056 0.104-0.058 0.104-0.059 0.103-0.061 0.102-0.062 0.102-0.063 0.101-0.065 0.1-0.066 0.099-0.067 0.099-0.065 0.092-2.639 3.695-0.058 0.079-0.063 0.085-0.13 0.166-0.067 0.081-0.068 0.08-0.069 0.079-0.07 0.078-0.071 0.076-0.072 0.076-0.074 0.074-0.074 0.073-0.075 0.072-0.076 0.071-0.077 0.07-0.078 0.068-0.079 0.067-0.08 0.066-0.081 0.064-0.082 0.064-0.083 0.062-0.083 0.061-0.084 0.059-0.086 0.059-0.086 0.057-0.086 0.055-0.088 0.055-0.088 0.053-0.089 0.052-0.09 0.05-0.091 0.049-0.091 0.048-0.092 0.047-0.093 0.045-0.093 0.044-0.094 0.042-0.094 0.041-0.095 0.039-0.096 0.039-0.097 0.037-0.097 0.035-0.097 0.034-0.098 0.033-0.099 0.031-0.198 0.058-0.101 0.026-0.1 0.026-0.101 0.024-0.102 0.022-0.101 0.021-0.103 0.019-0.102 0.018-0.103 0.016-0.104 0.015-0.103 0.014-0.104 0.011-0.105 0.011-0.104 8e-3 -0.105 7e-3 -0.105 6e-3 -0.106 4e-3 -0.105 2e-3 -0.099 1e-3h-2.868l-0.099-1e-3 -0.105-2e-3 -0.106-4e-3 -0.105-6e-3 -0.105-7e-3 -0.104-8e-3 -0.105-0.011-0.104-0.011-0.103-0.014-0.104-0.015-0.103-0.016-0.102-0.018-0.103-0.019-0.101-0.021-0.102-0.022-0.101-0.024-0.1-0.026-0.101-0.026-0.198-0.058-0.099-0.031-0.098-0.033-0.097-0.034-0.097-0.035-0.097-0.037-0.096-0.039-0.095-0.039-0.094-0.041-0.094-0.042-0.093-0.044-0.093-0.045-0.092-0.047-0.091-0.048-0.091-0.049-0.09-0.05-0.089-0.052-0.088-0.053-0.088-0.055-0.086-0.055-0.086-0.057-0.17-0.118-0.083-0.061-0.083-0.062-0.082-0.064-0.081-0.064-0.08-0.066-0.079-0.067-0.078-0.068-0.077-0.07-0.076-0.071-0.075-0.072-0.074-0.073-0.074-0.074-0.072-0.076-0.071-0.076-0.07-0.078-0.069-0.079-0.068-0.08-0.067-0.081-0.13-0.166-0.063-0.085-0.058-0.079-2.639-3.695-0.065-0.092-0.067-0.099-0.066-0.099-0.065-0.1-0.063-0.101-0.062-0.101-0.061-0.103-0.059-0.103-0.058-0.104-0.056-0.104-0.055-0.106-0.054-0.106-0.052-0.106-0.051-0.108-0.049-0.108-0.048-0.108-0.046-0.11-0.045-0.109-0.044-0.111-0.042-0.111-0.041-0.111-0.039-0.113-0.038-0.112-0.036-0.113-0.035-0.114-0.033-0.114-0.032-0.115-0.03-0.115-0.029-0.116-0.027-0.116-0.026-0.116-0.023-0.111-0.555-2.775-0.027-0.144-0.027-0.152-0.025-0.152-0.023-0.152-0.021-0.152-0.018-0.152-0.016-0.152-0.014-0.152-0.013-0.152-9e-3 -0.153-8e-3 -0.152-6e-3 -0.152-3e-3 -0.152-2e-3 -0.152 1e-3 -0.152 3e-3 -0.151 4e-3 -0.152 7e-3 -0.151 9e-3 -0.151 0.011-0.151 0.013-0.151 0.016-0.15 0.017-0.15 0.019-0.15 0.022-0.15 0.023-0.149 0.025-0.148 0.028-0.149 0.029-0.147 0.032-0.148 0.033-0.147 0.036-0.146 0.037-0.146 0.04-0.146 0.041-0.145 0.044-0.144 0.045-0.144 0.048-0.143 0.049-0.143 0.052-0.142 0.053-0.141 0.055-0.141 0.057-0.139 0.06-0.14 0.061-0.138 0.063-0.138 0.065-0.136 0.067-0.136 0.069-0.136 0.071-0.134 0.072-0.133 0.075-0.133 0.076-0.131 0.079-0.131 0.08-0.13 0.082-0.128 0.084-0.128 0.086-0.127 0.088-0.125 0.09-0.125 0.091-0.123 0.093-0.123 0.095-0.121 0.097-0.12 0.099-0.119 0.1-0.117 0.102-0.115 0.103-0.114 0.105-0.112 0.105-0.111 0.108-0.109 0.109-0.108 0.11-0.105 0.111-0.105 0.113-0.102 0.114-0.101 0.115-0.099 0.117-0.097 0.118-0.096 0.119-0.094 0.12-0.093 0.121-0.09 0.123-0.089 0.124-0.087 0.124-0.085 0.126-0.084 0.127-0.082 0.128-0.08 0.129-0.078 0.131-0.076 0.131-0.075 0.132-0.073 0.133-0.071 0.134-0.069 0.135-0.067 0.136-0.066 0.136-0.063 0.138-0.062 0.138-0.06 0.139-0.058 0.14-0.056 0.141-0.054 0.142-0.052 0.142-0.05 0.143-0.048 0.144-0.047 0.145-0.044 0.145-0.043 0.145-0.04 0.147-0.038 0.147-0.037 0.148-0.034 0.148-0.033 0.148-0.03 0.15-0.029 0.149-0.026 0.151-0.024 0.151-0.022 0.151-0.021 0.151-0.018 0.152-0.016 0.153-0.013 0.153-0.012 0.153-0.01 0.153-7e-3 0.154-6e-3 0.154-3e-3 0.147-1e-3h2.058l0.147 1e-3zm-2.191 3.999-0.105 1e-3 -0.098 2e-3 -0.098 3e-3 -0.098 5e-3 -0.097 6e-3 -0.194 0.016-0.194 0.022-0.096 0.013-0.096 0.014-0.095 0.015-0.095 0.017-0.095 0.018-0.095 0.02-0.094 0.02-0.094 0.022-0.094 0.023-0.093 0.025-0.093 0.026-0.092 0.027-0.092 0.028-0.091 0.029-0.091 0.031-0.091 0.032-0.09 0.033-0.09 0.035-0.089 0.035-0.089 0.037-0.088 0.038-0.087 0.039-0.087 0.041-0.087 0.042-0.086 0.042-0.085 0.044-0.085 0.046-0.084 0.046-0.083 0.047-0.083 0.049-0.082 0.05-0.082 0.051-0.08 0.052-0.08 0.053-0.08 0.054-0.079 0.056-0.078 0.056-0.077 0.058-0.152 0.118-0.075 0.061-0.074 0.062-0.074 0.063-0.144 0.13-0.071 0.066-0.07 0.067-0.069 0.069-0.068 0.069-0.068 0.071-0.066 0.071-0.066 0.072-0.065 0.074-0.126 0.15-0.062 0.077-0.061 0.077-0.059 0.078-0.058 0.078-0.057 0.079-0.056 0.08-0.055 0.081-0.053 0.081-0.052 0.082-0.051 0.083-0.05 0.083-0.049 0.083-0.094 0.17-0.045 0.085-0.044 0.086-0.042 0.087-0.082 0.174-0.039 0.088-0.074 0.178-0.035 0.089-0.034 0.09-0.033 0.09-0.031 0.091-0.03 0.091-0.029 0.092-0.028 0.092-0.026 0.092-0.025 0.093-0.024 0.092-0.023 0.094-0.021 0.093-0.02 0.094-0.019 0.094-0.017 0.095-0.017 0.094-0.015 0.095-0.013 0.095-0.012 0.096-0.011 0.095-0.01 0.096-8e-3 0.096-7e-3 0.096-6e-3 0.096-5e-3 0.096-3e-3 0.096-2e-3 0.194 1e-3 0.096 2e-3 0.097 4e-3 0.097 5e-3 0.096 6e-3 0.097 8e-3 0.097 9e-3 0.097 0.01 0.097 0.012 0.097 0.013 0.096 0.03 0.194 0.018 0.096 0.02 0.104 0.549 2.748 0.015 0.071 0.014 0.065 0.015 0.065 0.016 0.064 0.017 0.064 0.018 0.064 0.018 0.063 0.04 0.126 0.021 0.063 0.021 0.062 0.046 0.124 0.05 0.122 0.026 0.061 0.026 0.06 0.056 0.12 0.058 0.118 0.062 0.116 0.032 0.058 0.033 0.057 0.068 0.114 0.036 0.056 0.072 0.11 0.038 0.055 0.042 0.059 2.623 3.673 0.031 0.043 0.054 0.072 0.029 0.035 0.028 0.035 0.029 0.034 0.03 0.034 0.06 0.066 0.031 0.032 0.063 0.063 0.033 0.031 0.032 0.031 0.033 0.029 0.034 0.03 0.102 0.084 0.035 0.027 0.036 0.027 0.072 0.052 0.036 0.025 0.074 0.048 0.076 0.046 0.076 0.044 0.039 0.021 0.039 0.02 0.04 0.02 0.039 0.02 0.041 0.018 0.04 0.019 0.04 0.017 0.082 0.034 0.042 0.015 0.041 0.016 0.084 0.028 0.042 0.013 0.043 0.013 0.042 0.012 0.043 0.012 0.043 0.011 0.043 0.01 0.088 0.018 0.043 9e-3 0.132 0.021 0.09 0.01 0.044 5e-3 0.135 9e-3 0.045 2e-3 0.046 1e-3h0.053 2.838 0.053l0.046-1e-3 0.045-2e-3 0.135-9e-3 0.044-5e-3 0.09-0.01 0.132-0.021 0.043-9e-3 0.088-0.018 0.043-0.01 0.043-0.011 0.043-0.012 0.042-0.012 0.043-0.013 0.042-0.013 0.084-0.028 0.041-0.016 0.042-0.015 0.082-0.034 0.04-0.017 0.04-0.019 0.041-0.018 0.039-0.02 0.04-0.02 0.039-0.02 0.039-0.021 0.076-0.044 0.076-0.046 0.074-0.048 0.036-0.025 0.072-0.052 0.036-0.027 0.035-0.027 0.034-0.028 0.035-0.028 0.033-0.028 0.034-0.03 0.033-0.029 0.032-0.031 0.033-0.031 0.063-0.063 0.031-0.032 0.06-0.066 0.03-0.034 0.029-0.034 0.056-0.07 0.028-0.036 0.027-0.037 0.031-0.042 2.623-3.673 0.042-0.059 0.038-0.055 0.037-0.055 0.035-0.055 0.036-0.056 0.068-0.114 0.033-0.057 0.032-0.058 0.062-0.116 0.058-0.118 0.056-0.12 0.026-0.06 0.026-0.061 0.05-0.122 0.046-0.124 0.021-0.062 0.021-0.063 0.04-0.126 0.018-0.064 0.018-0.063 0.017-0.064 0.016-0.064 0.015-0.065 0.014-0.065 0.015-0.071 0.549-2.748 0.02-0.104 0.018-0.096 0.03-0.194 0.013-0.096 0.012-0.097 0.01-0.097 9e-3 -0.097 8e-3 -0.097 6e-3 -0.097 5e-3 -0.096 4e-3 -0.097 2e-3 -0.097 1e-3 -0.096-2e-3 -0.194-3e-3 -0.096-5e-3 -0.096-6e-3 -0.096-7e-3 -0.096-8e-3 -0.096-0.01-0.096-0.011-0.095-0.012-0.096-0.013-0.095-0.015-0.095-0.017-0.094-0.017-0.095-0.019-0.094-0.02-0.094-0.021-0.093-0.023-0.094-0.024-0.092-0.025-0.093-0.026-0.092-0.028-0.092-0.029-0.092-0.03-0.091-0.031-0.091-0.033-0.09-0.034-0.09-0.035-0.089-0.074-0.178-0.039-0.088-0.082-0.174-0.042-0.087-0.044-0.086-0.045-0.085-0.094-0.17-0.049-0.083-0.05-0.083-0.051-0.083-0.052-0.082-0.053-0.081-0.055-0.081-0.056-0.08-0.057-0.079-0.058-0.078-0.059-0.078-0.061-0.077-0.062-0.077-0.126-0.15-0.065-0.074-0.132-0.144-0.068-0.07-0.068-0.069-0.069-0.069-0.07-0.067-0.071-0.066-0.144-0.13-0.074-0.063-0.074-0.062-0.075-0.061-0.152-0.118-0.077-0.058-0.078-0.056-0.079-0.056-0.079-0.054-0.081-0.053-0.08-0.052-0.082-0.051-0.082-0.05-0.083-0.049-0.083-0.047-0.084-0.046-0.085-0.046-0.085-0.044-0.086-0.042-0.087-0.042-0.087-0.041-0.087-0.039-0.088-0.038-0.089-0.037-0.089-0.035-0.09-0.035-0.09-0.033-0.091-0.032-0.091-0.031-0.091-0.029-0.092-0.028-0.092-0.027-0.093-0.026-0.093-0.025-0.094-0.023-0.094-0.022-0.094-0.02-0.095-0.02-0.095-0.018-0.095-0.017-0.095-0.015-0.096-0.014-0.096-0.013-0.194-0.022-0.194-0.016-0.097-6e-3 -0.098-5e-3 -0.098-3e-3 -0.098-2e-3 -0.105-1e-3h-2.03z"/><path d="m28.313 3.529 0.089 5e-3 0.088 8e-3 0.089 0.01 0.087 0.013 0.088 0.016 0.087 0.018 0.087 0.021 0.087 0.024 0.085 0.026 0.085 0.029 0.085 0.031 0.083 0.034 0.083 0.037 0.082 0.039 0.081 0.041 0.079 0.044 0.078 0.047 0.076 0.048 0.075 0.051 0.073 0.053 0.071 0.055 0.069 0.057 0.068 0.059 0.065 0.06 0.064 0.063 0.062 0.064 0.059 0.066 0.058 0.067 0.055 0.07 0.054 0.07 0.051 0.073 0.049 0.074 0.047 0.075 0.045 0.077 0.042 0.077 0.04 0.08 0.038 0.081 0.036 0.081 0.033 0.083 0.03 0.084 0.029 0.085 0.025 0.086 0.024 0.087 0.02 0.088 0.018 0.089 0.015 0.089 0.011 0.075 0.355 2.843 0.016 0.136 0.013 0.146 0.011 0.146 7e-3 0.145 5e-3 0.146 1e-3 0.145-2e-3 0.145-5e-3 0.144-7e-3 0.144-0.011 0.143-0.014 0.143-0.016 0.142-0.02 0.141-0.022 0.141-0.025 0.14-0.028 0.139-0.031 0.139-0.034 0.137-0.036 0.137-0.039 0.135-0.042 0.135-0.044 0.134-0.047 0.132-0.05 0.132-0.052 0.13-0.055 0.129-0.057 0.128-0.06 0.127-0.063 0.125-0.065 0.124-0.067 0.123-0.07 0.121-0.073 0.12-0.074 0.118-0.078 0.117-0.079 0.116-0.082 0.113-0.084 0.113-0.087 0.11-0.088 0.109-0.091 0.107-0.094 0.105-0.095 0.104-0.098 0.101-0.1 0.1-0.102 0.098-0.104 0.096-0.106 0.094-0.108 0.092-0.111 0.089-0.112 0.088-0.114 0.085-0.117 0.084-0.118 0.081-0.12 0.078-0.122 0.077-0.124 0.074-0.126 0.071-0.128 0.069-0.129 0.067-0.131 0.064-0.133 0.061-0.134 0.059-0.125 0.051-0.021 9e-3 -0.072 0.028-0.082 0.029-0.081 0.028-0.082 0.026-0.166 0.046-0.083 0.02-0.083 0.018-0.083 0.017-0.084 0.014-0.083 0.013-0.084 0.011-0.084 9e-3 -0.083 8e-3 -0.084 5e-3 -0.083 4e-3 -0.084 2e-3h-0.083l-0.084-1e-3 -0.083-3e-3 -0.083-5e-3 -0.082-7e-3 -0.082-9e-3 -0.083-0.01-0.081-0.012-0.082-0.013-0.081-0.016-0.08-0.017-0.081-0.018-0.079-0.021-0.08-0.021-0.079-0.024-0.078-0.025-0.078-0.027-0.077-0.029-0.077-0.03-0.076-0.031-0.075-0.034-0.075-0.035-0.074-0.036-0.074-0.038-0.072-0.04-0.072-0.041-0.071-0.043-0.071-0.044-0.069-0.046-0.069-0.048-0.067-0.049-0.067-0.05-0.066-0.052-0.065-0.054-0.063-0.055-0.063-0.056-0.062-0.058-0.06-0.06-0.059-0.06-0.059-0.063-0.056-0.063-0.056-0.065-0.108-0.134-0.051-0.069-0.051-0.071-0.042-0.062-1.884-2.826-0.051-0.078-0.056-0.092-0.053-0.093-0.05-0.093-0.048-0.095-0.046-0.096-0.042-0.097-0.04-0.098-0.038-0.099-0.035-0.1-0.032-0.1-0.029-0.102-0.027-0.101-0.024-0.103-0.021-0.103-0.019-0.103-0.015-0.104-0.013-0.105-0.011-0.104-7e-3 -0.105-5e-3 -0.106-2e-3 -0.105v-0.106l4e-3 -0.105 6e-3 -0.106 9e-3 -0.106 0.012-0.105 0.015-0.106 0.018-0.105 0.02-0.104 0.023-0.105 0.027-0.104 0.029-0.103 0.031-0.103 0.034-0.101 0.037-0.1 0.04-0.099 0.042-0.097 0.044-0.096 0.047-0.095 0.049-0.094 0.052-0.092 0.054-0.09 0.057-0.089 0.058-0.088 0.061-0.086 0.064-0.084 0.065-0.082 0.067-0.081 0.07-0.079 0.072-0.077 0.073-0.075 0.076-0.073 0.078-0.071 0.079-0.07 0.082-0.067 0.083-0.065 0.085-0.063 0.087-0.061 0.089-0.059 0.091-0.056 0.092-0.054 0.094-0.052 0.083-0.043 4.735-2.368 0.068-0.032 0.083-0.037 0.084-0.034 0.084-0.032 0.086-0.029 0.085-0.026 0.087-0.024 0.087-0.021 0.087-0.019 0.088-0.016 0.088-0.013 0.088-0.01 0.089-8e-3 0.088-6e-3 0.089-2e-3h0.089l0.088 2e-3zm-4.38 6.241-0.012 6e-3 7e-3 0.011 1.836 2.753 0.014-6e-3 0.057-0.025 0.057-0.026 0.055-0.027 0.055-0.029 0.054-0.029 0.053-0.03 0.053-0.031 0.102-0.066 0.05-0.034 0.049-0.035 0.048-0.036 0.048-0.037 0.092-0.076 0.045-0.04 0.044-0.041 0.043-0.041 0.042-0.042 0.041-0.043 0.041-0.044 0.039-0.044 0.039-0.046 0.037-0.046 0.037-0.047 0.036-0.047 0.068-0.098 0.033-0.049 0.032-0.05 0.03-0.051 0.03-0.052 0.029-0.052 0.054-0.106 0.05-0.108 0.023-0.055 0.022-0.055 0.021-0.055 0.02-0.057 0.019-0.056 0.034-0.114 0.015-0.058 0.014-0.058 0.013-0.059 0.012-0.058 0.011-0.059 9e-3 -0.06 8e-3 -0.059 7e-3 -0.06 6e-3 -0.06 5e-3 -0.061 3e-3 -0.061 2e-3 -0.06 1e-3 -0.062-1e-3 -0.061-2e-3 -0.062-3e-3 -0.061-4e-3 -0.062-6e-3 -0.063-8e-3 -0.073-0.176-1.404-3.433 1.717z"/><path d="m3.864 3.527 0.089 2e-3 0.088 6e-3 0.089 8e-3 0.088 0.01 0.088 0.013 0.088 0.016 0.087 0.019 0.087 0.021 0.087 0.024 0.085 0.026 0.086 0.029 0.084 0.032 0.084 0.034 0.083 0.037 0.068 0.032 4.735 2.368 0.083 0.043 0.094 0.052 0.092 0.054 0.091 0.056 0.089 0.059 0.087 0.061 0.085 0.063 0.083 0.065 0.082 0.067 0.079 0.07 0.078 0.071 0.076 0.073 0.073 0.075 0.072 0.077 0.07 0.079 0.067 0.081 0.065 0.082 0.064 0.084 0.061 0.086 0.058 0.088 0.057 0.089 0.054 0.09 0.051 0.092 0.05 0.094 0.047 0.095 0.044 0.096 0.042 0.097 0.04 0.099 0.037 0.1 0.034 0.101 0.031 0.103 0.029 0.103 0.027 0.104 0.023 0.105 0.02 0.104 0.018 0.106 0.015 0.105 0.012 0.105 9e-3 0.106 6e-3 0.106 4e-3 0.105v0.106l-2e-3 0.105-5e-3 0.106-7e-3 0.105-0.011 0.104-0.013 0.105-0.015 0.104-0.019 0.103-0.021 0.103-0.024 0.103-0.027 0.101-0.029 0.102-0.032 0.1-0.035 0.1-0.038 0.099-0.04 0.098-0.042 0.097-0.046 0.096-0.048 0.095-0.05 0.093-0.053 0.093-0.056 0.092-0.051 0.078-1.884 2.826-0.042 0.062-0.051 0.071-0.051 0.069-0.108 0.134-0.056 0.065-0.056 0.063-0.059 0.063-0.059 0.06-0.06 0.06-0.062 0.058-0.063 0.056-0.063 0.055-0.065 0.054-0.066 0.052-0.067 0.05-0.067 0.049-0.069 0.048-0.069 0.046-0.071 0.044-0.071 0.043-0.072 0.041-0.072 0.04-0.074 0.038-0.074 0.036-0.075 0.035-0.075 0.034-0.076 0.031-0.077 0.03-0.077 0.029-0.078 0.027-0.078 0.025-0.079 0.024-0.08 0.021-0.079 0.021-0.081 0.018-0.08 0.017-0.081 0.016-0.082 0.013-0.081 0.012-0.083 0.01-0.082 9e-3 -0.082 7e-3 -0.083 5e-3 -0.083 3e-3 -0.084 1e-3h-0.083l-0.084-2e-3 -0.083-4e-3 -0.084-5e-3 -0.083-8e-3 -0.084-9e-3 -0.084-0.011-0.083-0.013-0.084-0.014-0.083-0.017-0.083-0.018-0.083-0.02-0.166-0.046-0.081-0.026-0.082-0.028-0.082-0.029-0.072-0.028-0.021-9e-3 -0.125-0.051-0.134-0.059-0.133-0.061-0.131-0.064-0.129-0.067-0.128-0.069-0.126-0.071-0.124-0.074-0.122-0.077-0.12-0.078-0.118-0.081-0.117-0.084-0.114-0.085-0.112-0.088-0.111-0.089-0.108-0.092-0.106-0.094-0.104-0.096-0.102-0.098-0.1-0.1-0.098-0.101-0.095-0.104-0.094-0.105-0.091-0.107-0.088-0.109-0.087-0.11-0.084-0.113-0.082-0.113-0.079-0.116-0.078-0.117-0.074-0.118-0.073-0.12-0.07-0.121-0.067-0.123-0.065-0.124-0.063-0.125-0.06-0.127-0.057-0.128-0.055-0.129-0.052-0.13-0.05-0.132-0.047-0.132-0.044-0.134-0.042-0.135-0.039-0.135-0.036-0.137-0.034-0.137-0.031-0.139-0.028-0.139-0.025-0.14-0.022-0.141-0.02-0.141-0.016-0.142-0.014-0.143-0.011-0.143-7e-3 -0.144-5e-3 -0.144-2e-3 -0.145 1e-3 -0.145 5e-3 -0.146 7e-3 -0.145 0.011-0.146 0.013-0.146 0.016-0.136 0.355-2.843 0.011-0.075 0.015-0.089 0.018-0.089 0.02-0.088 0.024-0.087 0.025-0.086 0.028-0.085 0.031-0.084 0.033-0.083 0.036-0.081 0.038-0.081 0.04-0.079 0.042-0.078 0.045-0.077 0.047-0.075 0.049-0.074 0.051-0.073 0.054-0.07 0.055-0.07 0.058-0.067 0.059-0.066 0.062-0.064 0.064-0.063 0.065-0.06 0.068-0.059 0.069-0.057 0.071-0.055 0.073-0.053 0.075-0.051 0.076-0.048 0.078-0.047 0.079-0.044 0.081-0.041 0.082-0.039 0.083-0.037 0.083-0.034 0.085-0.031 0.085-0.029 0.085-0.026 0.087-0.024 0.087-0.021 0.087-0.018 0.088-0.016 0.087-0.013 0.089-0.01 0.088-8e-3 0.089-5e-3 0.088-2e-3h0.089zm0.594 5.93-8e-3 0.073-6e-3 0.063-4e-3 0.062-3e-3 0.061-2e-3 0.062-1e-3 0.061 1e-3 0.062 2e-3 0.06 3e-3 0.061 5e-3 0.061 6e-3 0.06 7e-3 0.06 8e-3 0.059 9e-3 0.06 0.011 0.059 0.012 0.058 0.013 0.059 0.014 0.058 0.015 0.058 0.034 0.114 0.019 0.056 0.02 0.057 0.021 0.055 0.022 0.055 0.023 0.055 0.05 0.108 0.054 0.106 0.029 0.052 0.03 0.052 0.03 0.051 0.032 0.05 0.033 0.049 0.068 0.098 0.036 0.047 0.037 0.047 0.037 0.046 0.039 0.046 0.039 0.044 0.041 0.044 0.041 0.043 0.042 0.042 0.043 0.041 0.044 0.041 0.045 0.04 0.092 0.076 0.048 0.037 0.048 0.036 0.049 0.035 0.05 0.034 0.102 0.066 0.053 0.031 0.053 0.03 0.054 0.029 0.055 0.029 0.055 0.027 0.057 0.026 0.057 0.025 0.014 6e-3 1.836-2.753 7e-3 -0.011-0.012-6e-3 -3.433-1.717-0.176 1.404z"/></g><g id="emoji"><path d="m14.978 7c-2.696 0-5.25 1.209-6.96 3.294-1.709 2.085-2.394 4.827-1.865 7.471 0.214 1.069 0.406 2.028 0.552 2.762 0.195 0.971 0.593 1.89 1.168 2.696 0.725 1.015 1.773 2.482 2.631 3.683 0.939 1.314 2.454 2.094 4.069 2.094h2.854c1.615 0 3.13-0.78 4.069-2.094 0.858-1.201 1.906-2.668 2.631-3.683 0.575-0.806 0.973-1.725 1.168-2.696 0.146-0.734 0.338-1.693 0.552-2.762 0.529-2.644-0.156-5.386-1.865-7.471-1.71-2.085-4.264-3.294-6.96-3.294h-2.044z" fill="#8b8b8b"/><clipPath id="_clip1"><path d="m14.978 7c-2.696 0-5.25 1.209-6.96 3.294-1.709 2.085-2.394 4.827-1.865 7.471 0.214 1.069 0.406 2.028 0.552 2.762 0.195 0.971 0.593 1.89 1.168 2.696 0.725 1.015 1.773 2.482 2.631 3.683 0.939 1.314 2.454 2.094 4.069 2.094h2.854c1.615 0 3.13-0.78 4.069-2.094 0.858-1.201 1.906-2.668 2.631-3.683 0.575-0.806 0.973-1.725 1.168-2.696 0.146-0.734 0.338-1.693 0.552-2.762 0.529-2.644-0.156-5.386-1.865-7.471-1.71-2.085-4.264-3.294-6.96-3.294h-2.044z"/></clipPath><g clip-path="url(#_clip1)"><path d="m19.448 20.463c-0.259-1.426-1.502-2.463-2.952-2.463h-0.992c-1.45 0-2.693 1.037-2.952 2.463-0.268 1.473-0.612 3.369-0.909 5-0.159 0.876 0.078 1.776 0.648 2.459s1.414 1.078 2.304 1.078h2.81c0.89 0 1.734-0.395 2.304-1.078s0.807-1.583 0.648-2.459c-0.297-1.631-0.641-3.527-0.909-5z" fill="#aeaeae"/></g><path d="m19.158 25.526 0.032 0.012 0.031 0.014 0.03 0.016 0.029 0.018 0.028 0.02 0.026 0.022 0.025 0.024 0.023 0.025 0.021 0.027 0.019 0.028 0.017 0.029 0.016 0.031 0.013 0.031 0.011 0.033 8e-3 0.033 7e-3 0.033 4e-3 0.034 2e-3 0.034-1e-3 0.034-2e-3 0.034-6e-3 0.034-7e-3 0.033-0.01 0.033-0.012 0.032-0.014 0.031-0.016 0.03-0.018 0.029-0.02 0.028-0.022 0.026-0.024 0.025-0.025 0.023-0.027 0.021-0.028 0.019-0.029 0.017-0.031 0.016-0.031 0.013-0.033 0.011-0.033 8e-3 -0.033 7e-3 -0.034 4e-3 -0.034 2e-3 -0.034-1e-3 -0.034-2e-3 -0.034-6e-3 -0.033-7e-3 -0.033-0.01-2.842-0.947-2.842 0.947-0.033 0.01-0.033 7e-3 -0.034 6e-3 -0.034 2e-3 -0.034 1e-3 -0.034-2e-3 -0.034-4e-3 -0.033-7e-3 -0.033-8e-3 -0.033-0.011-0.031-0.013-0.031-0.016-0.029-0.017-0.028-0.019-0.027-0.021-0.025-0.023-0.024-0.025-0.022-0.026-0.02-0.028-0.018-0.029-0.016-0.03-0.014-0.031-0.012-0.032-0.01-0.033-7e-3 -0.033-6e-3 -0.034-2e-3 -0.034-1e-3 -0.034 2e-3 -0.034 4e-3 -0.034 7e-3 -0.033 8e-3 -0.033 0.011-0.033 0.013-0.031 0.016-0.031 0.017-0.029 0.019-0.028 0.021-0.027 0.023-0.025 0.025-0.024 0.026-0.022 0.028-0.02 0.029-0.018 0.03-0.016 0.031-0.014 0.032-0.012 3.158-1.053 3.158 1.053z" fill="#424242"/><path d="m10.868 15c-1.032 0-1.868 0.836-1.868 1.868v2e-3c0 0.624 0.506 1.13 1.13 1.13h1.87v-2c0-0.552-0.448-1-1-1h-0.132z"/><path d="m15.5 20c-0.398 0-0.779 0.158-1.061 0.439-0.281 0.282-0.439 0.663-0.439 1.061v1c0 0.398 0.158 0.779 0.439 1.061 0.282 0.281 0.663 0.439 1.061 0.439h1c0.398 0 0.779-0.158 1.061-0.439 0.281-0.282 0.439-0.663 0.439-1.061v-1c0-0.398-0.158-0.779-0.439-1.061-0.282-0.281-0.663-0.439-1.061-0.439h-1z" fill="#e78888"/><path d="m26.462 14.415c-0.852 0.341-1.826 0.039-2.335-0.725-0.548-0.821-1.262-1.893-1.87-2.805-0.318-0.477-0.416-1.068-0.269-1.623 0.147-0.554 0.525-1.019 1.038-1.275l4.71-2.355c0.29-0.145 0.633-0.14 0.919 0.013s0.48 0.435 0.52 0.757c0.099 0.788 0.227 1.812 0.352 2.818 0.279 2.227-0.98 4.361-3.064 5.195h-1e-3z" fill="#e8a2a2"/><clipPath id="_clip2"><path d="m26.462 14.415c-0.852 0.341-1.826 0.039-2.335-0.725-0.548-0.821-1.262-1.893-1.87-2.805-0.318-0.477-0.416-1.068-0.269-1.623 0.147-0.554 0.525-1.019 1.038-1.275l4.71-2.355c0.29-0.145 0.633-0.14 0.919 0.013s0.48 0.435 0.52 0.757c0.099 0.788 0.227 1.812 0.352 2.818 0.279 2.227-0.98 4.361-3.064 5.195h-1e-3z"/></clipPath><g clip-path="url(#_clip2)"><path d="m23 13v-1e-3c0-1.9 0.844-3.702 2.304-4.919l3.696-3.08 3-3-9 3-3 7 3 1z" fill="#ca8181"/></g><path d="m5.538 14.415c0.852 0.341 1.826 0.039 2.335-0.725 0.548-0.821 1.262-1.893 1.87-2.805 0.318-0.477 0.416-1.068 0.269-1.623-0.147-0.554-0.525-1.019-1.038-1.275l-4.71-2.355c-0.29-0.145-0.633-0.14-0.919 0.013s-0.48 0.435-0.52 0.757c-0.099 0.788-0.227 1.812-0.352 2.818-0.279 2.227 0.98 4.361 3.064 5.195h1e-3z" fill="#e8a2a2"/><clipPath id="_clip3"><path d="m5.538 14.415c0.852 0.341 1.826 0.039 2.335-0.725 0.548-0.821 1.262-1.893 1.87-2.805 0.318-0.477 0.416-1.068 0.269-1.623-0.147-0.554-0.525-1.019-1.038-1.275l-4.71-2.355c-0.29-0.145-0.633-0.14-0.919 0.013s-0.48 0.435-0.52 0.757c-0.099 0.788-0.227 1.812-0.352 2.818-0.279 2.227 0.98 4.361 3.064 5.195h1e-3z"/></clipPath><g clip-path="url(#_clip3)"><path d="m9 13v-1e-3c0-1.9-0.844-3.702-2.304-4.919l-3.696-3.08-3-3 9 3 3 7-3 1z" fill="#ca8181"/></g><path d="m21.132 15c1.032 0 1.868 0.836 1.868 1.868v2e-3c0 0.624-0.506 1.13-1.13 1.13h-1.87v-2c0-0.552 0.448-1 1-1h0.132z"/></g></svg>
