<?xml version="1.0" encoding="UTF-8"?>
<!DOCTYPE svg  PUBLIC '-//W3C//DTD SVG 1.1//EN'  'http://www.w3.org/Graphics/SVG/1.1/DTD/svg11.dtd'>
<svg clip-rule="evenodd" fill-rule="evenodd" stroke-linecap="round" version="1.1" viewBox="0 0 32 32" xml:space="preserve" xmlns="http://www.w3.org/2000/svg">
<metadata>
<rdf:RDF xmlns:cc="http://web.resource.org/cc/" xmlns:dc="http://purl.org/dc/elements/1.1/" xmlns:rdf="http://www.w3.org/1999/02/22-rdf-syntax-ns#">

     <rdf:Description rdf:about="">
       <dc:title>Mutant Standard emoji 2023.12</dc:title>
     </rdf:Description>

    <cc:work rdf:about="">
        <cc:license rdf:resource="http://creativecommons.org/licenses/by-nc-sa/4.0/"/>
        <cc:attributionName>Caius Nocturne</cc:attributionName>
        <cc:attributionURL>http://mutant.tech/</cc:attributionURL>
    </cc:work>

</rdf:RDF>
</metadata>
<rect id="red_panda" width="32" height="32" fill="none"/><clipPath id="_clip1"><rect width="32" height="32"/></clipPath><g clip-path="url(#_clip1)"><g id="outline"><path d="m23.949 10.897c-0.247-0.492-0.279-1.065-0.09-1.582 0.19-0.517 0.584-0.934 1.091-1.151 1.144-0.49 2.566-1.099 3.609-1.547 0.272-0.116 0.586-0.068 0.811 0.123 0.225 0.192 0.321 0.494 0.25 0.781-0.395 1.579-1.003 4.011-1.351 5.402-0.174 0.695-0.093 1.429 0.227 2.07 0.067 0.133 0.138 0.274 0.211 0.42 0.216 0.433 0.151 0.955-0.167 1.321-0.317 0.366-0.824 0.505-1.284 0.351-1e-3 0-2e-3 0-3e-3 -1e-3 -0.162-0.054-0.296-0.17-0.372-0.322-0.43-0.86-1.928-3.856-2.932-5.865z" fill="#c3c3c3" stroke="#000" stroke-width="4px"/><path d="m8.051 10.897c0.247-0.492 0.279-1.065 0.09-1.582-0.19-0.517-0.584-0.934-1.091-1.151-1.144-0.49-2.566-1.099-3.609-1.547-0.272-0.116-0.586-0.068-0.811 0.123-0.225 0.192-0.321 0.494-0.25 0.781 0.395 1.579 1.003 4.011 1.351 5.402 0.174 0.695 0.093 1.429-0.227 2.07-0.067 0.133-0.138 0.274-0.211 0.42-0.216 0.433-0.151 0.955 0.167 1.321 0.317 0.366 0.824 0.505 1.284 0.351 1e-3 0 2e-3 0 3e-3 -1e-3 0.162-0.054 0.296-0.17 0.372-0.322 0.43-0.86 1.928-3.856 2.932-5.865z" fill="#c3c3c3" stroke="#000" stroke-width="4px"/><path d="m14.755 6c-5.012 0-9.25 3.71-9.912 8.678-0.093 0.695-0.183 1.375-0.269 2.017-0.358 2.685 0.667 5.369 2.723 7.131 0.699 0.6 1.409 1.208 2.018 1.73 1.087 0.932 2.472 1.444 3.905 1.444h5.56c1.433 0 2.818-0.512 3.905-1.444 0.609-0.522 1.319-1.13 2.018-1.73 2.056-1.762 3.081-4.446 2.723-7.131-0.086-0.642-0.176-1.322-0.269-2.017-0.662-4.968-4.9-8.678-9.912-8.678h-2.49z"/><path d="m17.385 4.001 0.14 2e-3 0.14 4e-3 0.14 6e-3 0.139 7e-3 0.139 9e-3 0.138 0.01 0.138 0.012 0.138 0.014 0.137 0.015 0.137 0.017 0.137 0.018 0.135 0.02 0.136 0.021 0.135 0.023 0.135 0.024 0.134 0.026 0.134 0.027 0.133 0.029 0.132 0.03 0.132 0.032 0.132 0.033 0.131 0.034 0.13 0.036 0.13 0.038 0.13 0.039 0.128 0.04 0.128 0.042 0.128 0.043 0.127 0.044 0.126 0.046 0.125 0.047 0.125 0.049 0.125 0.05 0.123 0.051 0.123 0.053 0.122 0.054 0.122 0.055 0.12 0.056 0.12 0.058 0.12 0.059 0.118 0.061 0.118 0.062 0.117 0.062 0.117 0.065 0.115 0.065 0.115 0.067 0.114 0.068 0.113 0.069 0.112 0.07 0.112 0.072 0.11 0.073 0.11 0.074 0.109 0.075 0.108 0.076 0.214 0.156 0.105 0.08 0.105 0.081 0.103 0.082 0.103 0.083 0.102 0.084 0.101 0.086 0.1 0.086 0.098 0.088 0.098 0.089 0.097 0.089 0.097 0.091 0.095 0.092 0.094 0.093 0.093 0.094 0.091 0.095 0.092 0.096 0.09 0.097 0.088 0.098 0.088 0.099 0.087 0.1 0.086 0.101 0.084 0.102 0.084 0.103 0.082 0.104 0.081 0.105 0.081 0.106 0.079 0.107 0.077 0.107 0.077 0.109 0.076 0.11 0.074 0.11 0.073 0.111 0.072 0.113 0.071 0.113 0.07 0.114 0.068 0.115 0.067 0.115 0.066 0.117 0.065 0.117 0.063 0.119 0.062 0.119 0.061 0.119 0.06 0.121 0.058 0.122 0.057 0.122 0.056 0.123 0.054 0.124 0.053 0.124 0.052 0.126 0.05 0.125 0.049 0.127 0.047 0.128 0.046 0.128 0.045 0.129 0.043 0.129 0.042 0.13 0.04 0.131 0.039 0.132 0.038 0.132 0.036 0.133 0.035 0.133 0.033 0.134 0.031 0.135 0.03 0.135 0.029 0.136 0.027 0.137 0.026 0.137 0.024 0.137 0.022 0.138 0.021 0.139 0.019 0.133 0.271 2.031 0.018 0.149 0.017 0.157 0.015 0.157 0.012 0.157 0.01 0.157 7e-3 0.157 5e-3 0.157 2e-3 0.157v0.156l-3e-3 0.156-5e-3 0.156-7e-3 0.156-0.01 0.155-0.012 0.155-0.015 0.154-0.017 0.155-0.02 0.153-0.021 0.154-0.025 0.152-0.026 0.153-0.029 0.152-0.031 0.151-0.033 0.15-0.036 0.15-0.038 0.15-0.041 0.148-0.042 0.148-0.045 0.147-0.047 0.147-0.05 0.146-0.051 0.145-0.054 0.144-0.056 0.143-0.058 0.143-0.06 0.141-0.063 0.141-0.065 0.14-0.067 0.138-0.069 0.138-0.071 0.137-0.073 0.136-0.076 0.134-0.077 0.133-0.08 0.133-0.082 0.131-0.084 0.13-0.085 0.129-0.088 0.127-0.091 0.127-0.092 0.125-0.094 0.123-0.096 0.123-0.098 0.121-0.1 0.119-0.102 0.118-0.104 0.117-0.106 0.115-0.108 0.114-0.11 0.112-0.112 0.111-0.114 0.109-0.116 0.107-0.117 0.106-0.114 0.099-2.032 1.741-0.128 0.108-0.14 0.112-0.141 0.108-0.144 0.105-0.146 0.101-0.147 0.098-0.15 0.095-0.152 0.091-0.153 0.088-0.156 0.085-0.157 0.08-0.158 0.078-0.16 0.073-0.162 0.071-0.163 0.066-0.165 0.063-0.166 0.06-0.167 0.055-0.169 0.052-0.169 0.048-0.171 0.045-0.172 0.041-0.173 0.037-0.173 0.033-0.175 0.029-0.175 0.026-0.176 0.022-0.177 0.017-0.177 0.014-0.178 0.01-0.179 6e-3 -0.167 2e-3h-5.584l-0.167-2e-3 -0.179-6e-3 -0.178-0.01-0.177-0.014-0.177-0.017-0.176-0.022-0.175-0.026-0.175-0.029-0.173-0.033-0.173-0.037-0.172-0.041-0.171-0.045-0.169-0.048-0.169-0.052-0.167-0.055-0.166-0.06-0.165-0.063-0.163-0.066-0.162-0.071-0.16-0.073-0.158-0.078-0.157-0.08-0.156-0.085-0.153-0.088-0.152-0.091-0.15-0.095-0.147-0.098-0.146-0.101-0.144-0.105-0.141-0.108-0.14-0.112-0.128-0.108-2.032-1.741-0.114-0.099-0.117-0.106-0.116-0.107-0.114-0.109-0.112-0.111-0.11-0.112-0.108-0.114-0.106-0.115-0.104-0.117-0.102-0.118-0.1-0.119-0.098-0.121-0.096-0.123-0.094-0.123-0.092-0.125-0.091-0.127-0.088-0.127-0.085-0.129-0.084-0.13-0.082-0.131-0.08-0.133-0.077-0.133-0.076-0.134-0.073-0.136-0.071-0.137-0.069-0.138-0.067-0.138-0.065-0.14-0.063-0.141-0.06-0.141-0.058-0.143-0.056-0.143-0.054-0.144-0.052-0.145-0.049-0.146-0.047-0.146-0.045-0.148-0.042-0.148-0.041-0.148-0.038-0.15-0.036-0.15-0.033-0.15-0.031-0.151-0.029-0.152-0.026-0.153-0.025-0.152-0.021-0.154-0.02-0.153-0.017-0.155-0.015-0.154-0.012-0.155-0.01-0.155-7e-3 -0.156-5e-3 -0.156-3e-3 -0.156v-0.156l2e-3 -0.157 5e-3 -0.157 7e-3 -0.157 0.01-0.157 0.012-0.157 0.015-0.157 0.017-0.157 0.018-0.149 0.271-2.031 0.019-0.133 0.021-0.139 0.022-0.138 0.024-0.137 0.026-0.137 0.027-0.137 0.029-0.136 0.03-0.135 0.031-0.135 0.033-0.134 0.035-0.133 0.036-0.133 0.038-0.132 0.039-0.132 0.04-0.131 0.042-0.13 0.043-0.129 0.045-0.129 0.046-0.128 0.047-0.128 0.049-0.127 0.05-0.126 0.052-0.125 0.053-0.124 0.054-0.124 0.056-0.123 0.057-0.122 0.058-0.122 0.06-0.121 0.061-0.119 0.062-0.119 0.063-0.119 0.065-0.117 0.066-0.117 0.067-0.115 0.068-0.115 0.07-0.114 0.071-0.113 0.072-0.112 0.073-0.112 0.074-0.11 0.076-0.11 0.077-0.109 0.077-0.107 0.079-0.107 0.081-0.106 0.081-0.105 0.082-0.104 0.084-0.103 0.084-0.102 0.086-0.101 0.087-0.1 0.088-0.099 0.088-0.098 0.09-0.097 0.091-0.096 0.092-0.095 0.093-0.094 0.094-0.093 0.095-0.092 0.097-0.091 0.097-0.089 0.098-0.089 0.098-0.088 0.1-0.086 0.101-0.086 0.102-0.084 0.103-0.083 0.103-0.082 0.105-0.081 0.105-0.08 0.214-0.156 0.108-0.076 0.109-0.075 0.11-0.074 0.11-0.073 0.112-0.072 0.112-0.07 0.113-0.069 0.114-0.068 0.115-0.067 0.115-0.065 0.117-0.065 0.117-0.062 0.118-0.062 0.118-0.061 0.12-0.059 0.12-0.058 0.12-0.056 0.122-0.055 0.122-0.054 0.123-0.053 0.123-0.051 0.125-0.05 0.125-0.049 0.125-0.047 0.126-0.046 0.127-0.044 0.128-0.043 0.128-0.042 0.128-0.04 0.13-0.039 0.13-0.038 0.13-0.036 0.131-0.034 0.132-0.033 0.132-0.032 0.132-0.03 0.133-0.029 0.134-0.027 0.134-0.026 0.135-0.024 0.135-0.023 0.135-0.021 0.136-0.02 0.137-0.018 0.137-0.017 0.137-0.015 0.138-0.014 0.138-0.012 0.138-0.01 0.139-9e-3 0.139-7e-3 0.14-6e-3 0.14-4e-3 0.14-2e-3 0.134-1e-3h2.502l0.134 1e-3zm-2.624 3.999-0.1 1e-3 -0.094 1e-3 -0.094 3e-3 -0.093 4e-3 -0.186 0.01-0.092 7e-3 -0.092 8e-3 -0.092 9e-3 -0.092 0.011-0.091 0.011-0.091 0.012-0.091 0.013-0.09 0.014-0.09 0.015-0.089 0.016-0.09 0.018-0.089 0.018-0.088 0.019-0.088 0.02-0.088 0.021-0.088 0.022-0.087 0.023-0.087 0.024-0.086 0.025-0.086 0.026-0.086 0.027-0.085 0.027-0.085 0.029-0.168 0.06-0.083 0.031-0.084 0.033-0.082 0.033-0.083 0.034-0.081 0.035-0.082 0.036-0.081 0.037-0.16 0.076-0.08 0.039-0.079 0.041-0.078 0.041-0.078 0.042-0.078 0.043-0.077 0.043-0.152 0.09-0.076 0.046-0.075 0.047-0.148 0.096-0.146 0.1-0.072 0.051-0.072 0.052-0.071 0.052-0.07 0.053-0.07 0.055-0.069 0.054-0.069 0.056-0.068 0.056-0.067 0.057-0.067 0.058-0.066 0.059-0.065 0.059-0.065 0.06-0.064 0.06-0.126 0.124-0.062 0.062-0.062 0.064-0.061 0.064-0.06 0.065-0.059 0.065-0.059 0.066-0.057 0.067-0.058 0.067-0.056 0.068-0.056 0.069-0.055 0.07-0.054 0.07-0.053 0.07-0.053 0.071-0.052 0.072-0.102 0.146-0.049 0.073-0.049 0.074-0.048 0.075-0.047 0.075-0.046 0.076-0.046 0.077-0.088 0.154-0.043 0.079-0.043 0.078-0.041 0.079-0.08 0.16-0.039 0.081-0.038 0.081-0.037 0.082-0.036 0.083-0.035 0.083-0.034 0.083-0.034 0.084-0.032 0.084-0.032 0.085-0.03 0.085-0.03 0.086-0.029 0.086-0.028 0.087-0.027 0.087-0.026 0.087-0.025 0.088-0.024 0.089-0.023 0.089-0.022 0.089-0.021 0.09-0.02 0.091-0.019 0.09-0.018 0.091-0.034 0.184-0.015 0.092-0.014 0.093-0.013 0.099-0.267 2.003-0.013 0.103-0.011 0.094-8e-3 0.095-8e-3 0.094-6e-3 0.094-4e-3 0.094-3e-3 0.094-1e-3 0.094v0.094l2e-3 0.094 3e-3 0.093 4e-3 0.094 6e-3 0.093 7e-3 0.092 9e-3 0.093 0.01 0.093 0.012 0.092 0.013 0.092 0.015 0.091 0.016 0.092 0.017 0.091 0.019 0.09 0.02 0.091 0.021 0.09 0.023 0.089 0.024 0.09 0.026 0.089 0.027 0.088 0.028 0.088 0.029 0.087 0.031 0.087 0.033 0.087 0.033 0.086 0.035 0.085 0.037 0.086 0.037 0.084 0.039 0.084 0.04 0.083 0.042 0.083 0.042 0.082 0.044 0.081 0.046 0.081 0.046 0.08 0.048 0.079 0.049 0.079 0.05 0.078 0.052 0.077 0.053 0.077 0.053 0.075 0.112 0.15 0.058 0.073 0.059 0.072 0.06 0.072 0.061 0.071 0.062 0.07 0.064 0.069 0.065 0.068 0.066 0.068 0.067 0.066 0.068 0.065 0.07 0.065 0.07 0.063 0.078 0.068 2.003 1.717 0.077 0.064 0.07 0.056 0.07 0.054 0.072 0.053 0.073 0.05 0.074 0.05 0.075 0.047 0.076 0.046 0.154 0.086 0.079 0.04 0.079 0.039 0.08 0.037 0.081 0.035 0.081 0.033 0.083 0.031 0.083 0.03 0.083 0.028 0.085 0.026 0.085 0.024 0.085 0.022 0.086 0.021 0.086 0.018 0.087 0.017 0.087 0.014 0.088 0.013 0.088 0.011 0.088 9e-3 0.089 7e-3 0.089 5e-3 0.089 3e-3 0.101 1e-3h5.538l0.101-1e-3 0.089-3e-3 0.089-5e-3 0.089-7e-3 0.088-9e-3 0.088-0.011 0.088-0.013 0.087-0.014 0.087-0.017 0.086-0.018 0.086-0.021 0.085-0.022 0.085-0.024 0.085-0.026 0.083-0.028 0.083-0.03 0.082-0.031 0.082-0.033 0.081-0.035 0.08-0.037 0.079-0.039 0.079-0.04 0.078-0.043 0.076-0.043 0.076-0.046 0.075-0.047 0.074-0.05 0.073-0.05 0.072-0.053 0.07-0.054 0.07-0.056 0.077-0.064 2.003-1.717 0.078-0.068 0.07-0.063 0.07-0.065 0.068-0.065 0.067-0.067 0.066-0.067 0.065-0.068 0.064-0.069 0.062-0.07 0.061-0.071 0.06-0.072 0.059-0.072 0.058-0.073 0.112-0.15 0.053-0.075 0.053-0.077 0.052-0.077 0.05-0.078 0.049-0.079 0.048-0.079 0.046-0.08 0.046-0.081 0.044-0.081 0.042-0.082 0.042-0.083 0.04-0.083 0.039-0.084 0.037-0.084 0.037-0.086 0.035-0.085 0.033-0.086 0.033-0.087 0.031-0.087 0.029-0.087 0.028-0.088 0.027-0.089 0.026-0.088 0.024-0.09 0.023-0.089 0.021-0.09 0.02-0.091 0.019-0.09 0.017-0.091 0.016-0.092 0.015-0.091 0.013-0.092 0.012-0.092 0.01-0.093 9e-3 -0.093 7e-3 -0.092 6e-3 -0.093 4e-3 -0.094 3e-3 -0.093 2e-3 -0.094v-0.094l-1e-3 -0.094-3e-3 -0.094-4e-3 -0.094-6e-3 -0.094-8e-3 -0.094-8e-3 -0.095-0.011-0.094-0.012-0.102-0.268-2.004-0.013-0.099-0.014-0.093-0.015-0.092-0.034-0.184-0.018-0.091-0.019-0.09-0.02-0.091-0.021-0.09-0.022-0.089-0.023-0.089-0.024-0.089-0.025-0.088-0.026-0.087-0.027-0.087-0.028-0.087-0.029-0.086-0.03-0.086-0.03-0.085-0.032-0.085-0.032-0.084-0.068-0.168-0.035-0.082-0.036-0.083-0.037-0.082-0.038-0.081-0.039-0.081-0.08-0.16-0.041-0.079-0.043-0.078-0.043-0.079-0.043-0.077-0.045-0.077-0.046-0.077-0.046-0.076-0.047-0.075-0.048-0.075-0.049-0.074-0.049-0.073-0.102-0.146-0.052-0.072-0.053-0.071-0.053-0.07-0.054-0.07-0.055-0.07-0.056-0.069-0.056-0.068-0.058-0.067-0.057-0.067-0.059-0.066-0.059-0.065-0.06-0.065-0.061-0.064-0.062-0.064-0.062-0.062-0.126-0.124-0.064-0.06-0.13-0.12-0.066-0.058-0.067-0.058-0.067-0.057-0.068-0.056-0.069-0.056-0.069-0.054-0.07-0.055-0.07-0.053-0.071-0.052-0.072-0.052-0.072-0.051-0.146-0.1-0.148-0.096-0.075-0.047-0.076-0.046-0.152-0.09-0.077-0.043-0.078-0.043-0.078-0.042-0.078-0.041-0.079-0.041-0.08-0.039-0.16-0.076-0.081-0.037-0.082-0.036-0.081-0.035-0.083-0.034-0.082-0.033-0.084-0.033-0.083-0.031-0.168-0.06-0.085-0.029-0.085-0.027-0.086-0.027-0.086-0.026-0.086-0.025-0.087-0.024-0.087-0.023-0.088-0.022-0.088-0.021-0.088-0.02-0.088-0.019-0.089-0.019-0.09-0.017-0.089-0.016-0.09-0.015-0.09-0.014-0.091-0.013-0.091-0.012-0.091-0.011-0.092-0.011-0.092-9e-3 -0.092-8e-3 -0.092-7e-3 -0.186-0.01-0.093-4e-3 -0.094-3e-3 -0.094-1e-3 -0.1-1e-3h-2.478z"/></g><g id="emoji"><path d="m14.755 6c-5.012 0-9.25 3.71-9.912 8.678-0.093 0.695-0.183 1.375-0.269 2.017-0.358 2.685 0.667 5.369 2.723 7.131 0.699 0.6 1.409 1.208 2.018 1.73 1.087 0.932 2.472 1.444 3.905 1.444h5.56c1.433 0 2.818-0.512 3.905-1.444 0.609-0.522 1.319-1.13 2.018-1.73 2.056-1.762 3.081-4.446 2.723-7.131-0.086-0.642-0.176-1.322-0.269-2.017-0.662-4.968-4.9-8.678-9.912-8.678h-2.49z" fill="#c0744b"/><clipPath id="_clip2"><path d="m14.755 6c-5.012 0-9.25 3.71-9.912 8.678-0.093 0.695-0.183 1.375-0.269 2.017-0.358 2.685 0.667 5.369 2.723 7.131 0.699 0.6 1.409 1.208 2.018 1.73 1.087 0.932 2.472 1.444 3.905 1.444h5.56c1.433 0 2.818-0.512 3.905-1.444 0.609-0.522 1.319-1.13 2.018-1.73 2.056-1.762 3.081-4.446 2.723-7.131-0.086-0.642-0.176-1.322-0.269-2.017-0.662-4.968-4.9-8.678-9.912-8.678h-2.49z"/></clipPath><g clip-path="url(#_clip2)" fill="#e3e3e3"><path d="m6.588 17.412c0.264-0.264 0.621-0.412 0.994-0.412h2e-3c0.782 0 1.416 0.634 1.416 1.416v2e-3c0 0.373-0.148 0.73-0.412 0.994l-0.714 0.714c-0.536 0.536-0.723 1.328-0.483 2.047l1.609 4.827-4-2v-3.929c0-1.326 0.527-2.598 1.464-3.535l0.124-0.124z"/><path d="m25.412 17.412c-0.264-0.264-0.621-0.412-0.994-0.412h-2e-3c-0.782 0-1.416 0.634-1.416 1.416v2e-3c0 0.373 0.148 0.73 0.412 0.994l0.714 0.714c0.536 0.536 0.723 1.328 0.483 2.047l-1.609 4.827 4-2v-3.929c0-1.326-0.527-2.598-1.464-3.535l-0.124-0.124z"/></g><path d="m14 16h4l4.067 4.067c0.566 0.566 0.74 1.415 0.443 2.157-0.227 0.569-0.503 1.258-0.756 1.89-0.455 1.139-1.558 1.886-2.785 1.886h-5.938c-1.227 0-2.33-0.747-2.785-1.886-0.253-0.632-0.529-1.321-0.756-1.89-0.297-0.742-0.123-1.591 0.443-2.157l4.067-4.067z" fill="#e3e3e3"/><path d="m11 23s0.573 0.286 1.106 0.553c0.563 0.281 1.225 0.281 1.788 0 0.332-0.166 0.68-0.34 0.895-0.447 0.139-0.07 0.292-0.106 0.447-0.106h1.528c0.155 0 0.308 0.036 0.447 0.106 0.215 0.107 0.563 0.281 0.895 0.447 0.563 0.281 1.225 0.281 1.788 0 0.533-0.267 1.106-0.553 1.106-0.553" fill="none" stroke="#573b2d" stroke-linejoin="round" stroke-miterlimit="1.5" stroke-width="1px"/><path d="m20 16.206c0 0.474 0.304 0.895 0.754 1.045 0.013 5e-3 0.026 9e-3 0.04 0.014 0.511 0.17 1.073 0.084 1.51-0.231s0.696-0.821 0.696-1.359v-1e-3c0-0.403-0.258-0.76-0.639-0.887-0.103-0.034-0.213-0.071-0.329-0.11-0.471-0.157-0.988-0.078-1.391 0.213-0.402 0.29-0.641 0.756-0.641 1.252v0.064z"/><path d="m12 16.206c0 0.474-0.304 0.895-0.754 1.045-0.013 5e-3 -0.026 9e-3 -0.04 0.014-0.511 0.17-1.073 0.084-1.51-0.231s-0.696-0.821-0.696-1.359v-1e-3c0-0.403 0.258-0.76 0.639-0.887 0.103-0.034 0.213-0.071 0.329-0.11 0.471-0.157 0.988-0.078 1.391 0.213 0.402 0.29 0.641 0.756 0.641 1.252v0.064z"/><path d="m15.562 22c-0.616 0-1.198-0.284-1.577-0.769-0.379-0.486-0.513-1.119-0.364-1.716 0.068-0.273 0.133-0.532 0.19-0.758 0.111-0.445 0.511-0.757 0.97-0.757h2.438c0.459 0 0.859 0.312 0.97 0.757 0.057 0.226 0.122 0.485 0.19 0.758 0.149 0.597 0.015 1.23-0.364 1.716-0.379 0.485-0.961 0.769-1.577 0.769h-0.876z"/><path d="m19.316 12.439c-0.305-0.102-0.64-0.051-0.901 0.137-0.26 0.188-0.415 0.49-0.415 0.811v0.893c0 0.398 0.322 0.72 0.72 0.72h1e-3c0.179 0 0.35-0.071 0.476-0.197l1.803-1.803s-0.878-0.293-1.684-0.561z" fill="#e3e3e3"/><path d="m12.684 12.439c0.305-0.102 0.64-0.051 0.901 0.137 0.26 0.188 0.415 0.49 0.415 0.811v0.893c0 0.398-0.322 0.72-0.72 0.72h-1e-3c-0.179 0-0.35-0.071-0.476-0.197l-1.803-1.803s0.878-0.293 1.684-0.561z" fill="#e3e3e3"/><path d="m23.949 10.897c-0.247-0.492-0.279-1.065-0.09-1.582 0.19-0.517 0.584-0.934 1.091-1.151 1.144-0.49 2.566-1.099 3.609-1.547 0.272-0.116 0.586-0.068 0.811 0.123 0.225 0.192 0.321 0.494 0.25 0.781-0.395 1.579-1.003 4.011-1.351 5.402-0.174 0.695-0.093 1.429 0.227 2.07 0.067 0.133 0.138 0.274 0.211 0.42 0.216 0.433 0.151 0.955-0.167 1.321-0.317 0.366-0.824 0.505-1.284 0.351-1e-3 0-2e-3 0-3e-3 -1e-3 -0.162-0.054-0.296-0.17-0.372-0.322-0.43-0.86-1.928-3.856-2.932-5.865z" fill="#e6e6e6"/><clipPath id="_clip3"><path d="m23.949 10.897c-0.247-0.492-0.279-1.065-0.09-1.582 0.19-0.517 0.584-0.934 1.091-1.151 1.144-0.49 2.566-1.099 3.609-1.547 0.272-0.116 0.586-0.068 0.811 0.123 0.225 0.192 0.321 0.494 0.25 0.781-0.395 1.579-1.003 4.011-1.351 5.402-0.174 0.695-0.093 1.429 0.227 2.07 0.067 0.133 0.138 0.274 0.211 0.42 0.216 0.433 0.151 0.955-0.167 1.321-0.317 0.366-0.824 0.505-1.284 0.351-1e-3 0-2e-3 0-3e-3 -1e-3 -0.162-0.054-0.296-0.17-0.372-0.322-0.43-0.86-1.928-3.856-2.932-5.865z"/></clipPath><g clip-path="url(#_clip3)"><path d="m21 11s3.073-1.317 5.147-2.206c0.349-0.15 0.753-0.088 1.042 0.158 0.29 0.246 0.414 0.635 0.322 1.004-0.85 3.401-2.511 10.044-2.511 10.044l-4-9z" fill="#a7a7a7"/></g><path d="m8.051 10.897c0.247-0.492 0.279-1.065 0.09-1.582-0.19-0.517-0.584-0.934-1.091-1.151-1.144-0.49-2.566-1.099-3.609-1.547-0.272-0.116-0.586-0.068-0.811 0.123-0.225 0.192-0.321 0.494-0.25 0.781 0.395 1.579 1.003 4.011 1.351 5.402 0.174 0.695 0.093 1.429-0.227 2.07-0.067 0.133-0.138 0.274-0.211 0.42-0.216 0.433-0.151 0.955 0.167 1.321 0.317 0.366 0.824 0.505 1.284 0.351 1e-3 0 2e-3 0 3e-3 -1e-3 0.162-0.054 0.296-0.17 0.372-0.322 0.43-0.86 1.928-3.856 2.932-5.865z" fill="#e6e6e6"/><clipPath id="_clip4"><path d="m8.051 10.897c0.247-0.492 0.279-1.065 0.09-1.582-0.19-0.517-0.584-0.934-1.091-1.151-1.144-0.49-2.566-1.099-3.609-1.547-0.272-0.116-0.586-0.068-0.811 0.123-0.225 0.192-0.321 0.494-0.25 0.781 0.395 1.579 1.003 4.011 1.351 5.402 0.174 0.695 0.093 1.429-0.227 2.07-0.067 0.133-0.138 0.274-0.211 0.42-0.216 0.433-0.151 0.955 0.167 1.321 0.317 0.366 0.824 0.505 1.284 0.351 1e-3 0 2e-3 0 3e-3 -1e-3 0.162-0.054 0.296-0.17 0.372-0.322 0.43-0.86 1.928-3.856 2.932-5.865z"/></clipPath><g clip-path="url(#_clip4)"><path d="m11 11s-3.073-1.317-5.147-2.206c-0.349-0.15-0.753-0.088-1.042 0.158-0.29 0.246-0.414 0.635-0.322 1.004 0.85 3.401 2.511 10.044 2.511 10.044l4-9z" fill="#a7a7a7"/></g></g></g></svg>
