<?xml version="1.0" encoding="UTF-8"?>
<!DOCTYPE svg  PUBLIC '-//W3C//DTD SVG 1.1//EN'  'http://www.w3.org/Graphics/SVG/1.1/DTD/svg11.dtd'>
<svg clip-rule="evenodd" fill-rule="evenodd" stroke-linecap="round" stroke-linejoin="round" stroke-miterlimit="1.5" version="1.1" viewBox="0 0 32 32" xml:space="preserve" xmlns="http://www.w3.org/2000/svg">
<metadata>
<rdf:RDF xmlns:cc="http://web.resource.org/cc/" xmlns:dc="http://purl.org/dc/elements/1.1/" xmlns:rdf="http://www.w3.org/1999/02/22-rdf-syntax-ns#">

     <rdf:Description rdf:about="">
       <dc:title>Mutant Standard emoji 2023.12</dc:title>
     </rdf:Description>

    <cc:work rdf:about="">
        <cc:license rdf:resource="http://creativecommons.org/licenses/by-nc-sa/4.0/"/>
        <cc:attributionName>Caius Nocturne</cc:attributionName>
        <cc:attributionURL>http://mutant.tech/</cc:attributionURL>
    </cc:work>

</rdf:RDF>
</metadata>
<rect id="skunk" width="32" height="32" fill="none"/><clipPath id="_clip1"><rect width="32" height="32"/></clipPath><g clip-path="url(#_clip1)"><g id="outline"><path d="m5.5 4c1.264 0 2.392 0.587 3.125 1.502 0.874-0.325 1.816-0.502 2.792-0.502h9.166c0.976 0 1.918 0.177 2.792 0.502 0.733-0.915 1.861-1.502 3.125-1.502h0.439c0.679 0 1.331 0.27 1.811 0.75l0.5 0.5c0.48 0.48 0.75 1.132 0.75 1.811v0.939c0 1.061-0.421 2.078-1.172 2.828v1e-3c0.743 1.214 1.172 2.643 1.172 4.171v1.194c0 3.038-1.381 5.911-3.753 7.808-0.202 0.162-0.388 0.311-0.553 0.443-0.461 0.369-0.88 0.788-1.249 1.249-0.357 0.446-0.846 1.057-1.343 1.679-1.329 1.66-3.34 2.627-5.466 2.627h-3.272c-2.126 0-4.137-0.967-5.466-2.627-0.497-0.622-0.986-1.233-1.343-1.679-0.369-0.461-0.788-0.88-1.249-1.249-0.165-0.132-0.351-0.281-0.553-0.443-2.372-1.897-3.753-4.77-3.753-7.808v-1.194c0-1.528 0.429-2.957 1.172-4.171v-1e-3c-0.751-0.75-1.172-1.767-1.172-2.828v-0.939c0-0.679 0.27-1.331 0.75-1.811l0.5-0.5c0.48-0.48 1.132-0.75 1.811-0.75h0.439z" fill="none" stroke="#000" stroke-width="4px"/></g><path d="m3 14s0.268-1.206 0.608-2.735c0.813-3.661 4.06-6.265 7.809-6.265h9.166c3.749 0 6.996 2.604 7.809 6.265 0.34 1.529 0.608 2.735 0.608 2.735h-26z" fill="#fff"/><g id="emoji"><path d="m3 5s2.314-0.521 2.314-0.521l3.043 1.521 1.143 3v3h-3.5c-1.061 0-2.078-0.421-2.828-1.172-0.751-0.75-1.172-1.767-1.172-2.828v-0.939c0-0.679 0.27-1.331 0.75-1.811l0.25-0.25z" fill="#333"/><path d="m5.5 4c2.209 0 4 1.791 4 4v1h-1.5c0-2.209-1.791-4-4-4h-1l0.25-0.25c0.48-0.48 1.132-0.75 1.811-0.75h0.439z" fill="#404040"/><path d="m29 5s-2.314-0.521-2.314-0.521l-3.043 1.521-1.143 3v3h3.5c1.061 0 2.078-0.421 2.828-1.172 0.751-0.75 1.172-1.767 1.172-2.828v-0.939c0-0.679-0.27-1.331-0.75-1.811l-0.25-0.25z" fill="#333"/><path d="m26.5 4c-2.209 0-4 1.791-4 4v1h1.5c0-2.209 1.791-4 4-4h1l-0.25-0.25c-0.48-0.48-1.132-0.75-1.811-0.75h-0.439z" fill="#404040"/><path d="m9 27.497c-0.034-0.041-0.068-0.082-0.102-0.124-0.497-0.622-0.986-1.233-1.343-1.679-0.369-0.461-0.788-0.88-1.249-1.249-0.165-0.132-0.351-0.281-0.553-0.443-2.372-1.897-3.753-4.77-3.753-7.808v-1.194c0-4.418 3.582-8 8-8h12c4.418 0 8 3.582 8 8v1.194c0 3.038-1.381 5.911-3.753 7.808-0.202 0.162-0.388 0.311-0.553 0.443-0.461 0.369-0.88 0.788-1.249 1.249-0.357 0.446-0.846 1.057-1.343 1.679-0.034 0.042-0.068 0.083-0.102 0.124h-14z" fill="#404040"/><path d="m9 27.497v-0.426c0-1.326 0.527-2.598 1.464-3.535l1.072-1.072c0.937-0.937 2.209-1.464 3.535-1.464h1.858c1.326 0 2.598 0.527 3.535 1.464l1.072 1.072c0.937 0.937 1.464 2.209 1.464 3.535v0.426c-1.328 1.584-3.291 2.503-5.364 2.503h-3.272c-2.073 0-4.036-0.919-5.364-2.503z" fill="#515151"/><path d="m16 8c-1.226 0.613-2 1.866-2 3.236v5.231c0 0.981 0.39 1.923 1.084 2.617l0.916 0.916 0.916-0.916c0.694-0.694 1.084-1.636 1.084-2.617v-5.231c0-1.37-0.774-2.623-2-3.236z" fill="#fff"/><path d="m14.638 22c-0.409 0-0.8 0.162-1.089 0.451l-1e-3 1e-3c-0.351 0.351-0.548 0.827-0.548 1.323v0.449c0 0.497 0.197 0.973 0.549 1.325l1.019 1.019c0.276 0.276 0.652 0.432 1.044 0.432h0.776c0.392 0 0.768-0.156 1.044-0.432l1.019-1.019c0.352-0.352 0.549-0.828 0.549-1.325v-0.449c0-0.496-0.197-0.972-0.548-1.323l-1e-3 -1e-3c-0.289-0.289-0.68-0.451-1.089-0.451h-2.724z" fill="#312528"/><path d="m22.026 18c-0.566 0-1.026-0.46-1.026-1.026v-1.252c0-0.457 0.181-0.895 0.504-1.218s0.761-0.504 1.218-0.504h2e-3c0.75 0 1.404 0.51 1.585 1.238 0.023 0.09 0.046 0.183 0.07 0.277 0.149 0.597 0.015 1.23-0.364 1.716-0.379 0.485-0.961 0.769-1.577 0.769h-0.412z"/><path d="m9.974 18c0.566 0 1.026-0.46 1.026-1.026v-1.252c0-0.457-0.181-0.895-0.504-1.218s-0.761-0.504-1.218-0.504h-2e-3c-0.75 0-1.404 0.51-1.585 1.238-0.023 0.09-0.046 0.183-0.07 0.277-0.149 0.597-0.015 1.23 0.364 1.716 0.379 0.485 0.961 0.769 1.577 0.769h0.412z"/></g></g></svg>
