<?xml version="1.0" encoding="UTF-8"?>
<svg clip-rule="evenodd" fill-rule="evenodd" stroke-linecap="round" stroke-linejoin="round" stroke-miterlimit="1.5" viewBox="0 0 32 32" xmlns="http://www.w3.org/2000/svg">
 <clipPath id="a">
  <path d="m0 0h32v32h-32z" clip-rule="evenodd"/>
 </clipPath>
 <path d="m0 0h32v32h-32z" fill="none"/>
 <g clip-path="url(#a)">
  <path d="m5.5 4c1.264 0 2.392.587 3.125 1.502.874-.325 1.816-.502 2.792-.502h9.166c.976 0 1.918.177 2.792.502.733-.915 1.861-1.502 3.125-1.502h.439c.679 0 1.331.27 1.811.75.164.164.336.336.5.5.48.48.75 1.132.75 1.811v.939c0 1.061-.421 2.078-1.172 2.828v.001c.743 1.214 1.172 2.643 1.172 4.171v1.194c0 3.038-1.381 5.911-3.753 7.808-.202.162-.388.311-.553.443-.461.369-.88.788-1.249 1.249-.357.446-.846 1.057-1.343 1.679-1.329 1.66-3.34 2.627-5.466 2.627-1.054 0-2.218 0-3.272 0-2.126 0-4.137-.967-5.466-2.627-.497-.622-.986-1.233-1.343-1.679-.369-.461-.788-.88-1.249-1.249-.165-.132-.351-.281-.553-.443-2.372-1.897-3.753-4.77-3.753-7.808 0-.39 0-.79 0-1.194 0-1.528.429-2.957 1.172-4.171v-.001c-.751-.75-1.172-1.767-1.172-2.828 0-.339 0-.659 0-.939 0-.679.27-1.331.75-1.811.164-.164.336-.336.5-.5.48-.48 1.132-.75 1.811-.75z" fill="none" stroke="#000" stroke-width="4"/>
  <path d="m3 14s.268-1.206.608-2.735c.813-3.661 4.06-6.265 7.809-6.265h9.166c3.749 0 6.996 2.604 7.809 6.265.34 1.529.608 2.735.608 2.735z" fill="#fff"/>
  <path d="m3 5s2.314-0.521 2.314-0.521l3.043 1.521 1.143 3v3s-1.712 0-3.5 0c-1.061 0-2.078-0.421-2.828-1.172-0.751-0.75-1.172-1.767-1.172-2.828v-0.939c0-0.679 0.27-1.331 0.75-1.811z" fill="#333"/>
  <path d="m5.5 4c2.209 0 4 1.791 4 4v1h-1.5c0-2.209-1.791-4-4-4h-1s0.25-0.25 0.25-0.25c0.48-0.48 1.132-0.75 1.811-0.75z" fill="#404040"/>
  <path d="m29 5s-2.314-0.521-2.314-0.521l-3.043 1.521-1.143 3v3h3.5c1.061 0 2.078-0.421 2.828-1.172 0.751-0.75 1.172-1.767 1.172-2.828v-0.939c0-0.679-0.27-1.331-0.75-1.811z" fill="#333"/>
  <path d="m26.5 4c-2.209 0-4 1.791-4 4v1h1.5c0-2.209 1.791-4 4-4h1s-.25-.25-.25-.25c-.48-.48-1.132-.75-1.811-.75z" fill="#404040"/>
  <path d="m9 27.497c-.034-.041-.068-.082-.102-.124-.497-.622-.986-1.233-1.343-1.679-.369-.461-.788-.88-1.249-1.249-.165-.132-.351-.281-.553-.443-2.372-1.897-3.753-4.77-3.753-7.808 0-.39 0-.79 0-1.194 0-4.418 3.582-8 8-8h12c4.418 0 8 3.582 8 8v1.194c0 3.038-1.381 5.911-3.753 7.808-.202.162-.388.311-.553.443-.461.369-.88.788-1.249 1.249-.357.446-.846 1.057-1.343 1.679-.034.042-.068.083-.102.124z" fill="#404040"/>
  <path d="m9 27.497v-0.426c0-1.326 0.527-2.598 1.464-3.535l1.072-1.072c0.937-0.937 2.209-1.464 3.535-1.464h1.858c1.326 0 2.598 0.527 3.535 1.464l1.072 1.072c0.937 0.937 1.464 2.209 1.464 3.535v0.426c-1.328 1.584-3.291 2.503-5.364 2.503h-3.272c-2.073 0-4.036-0.919-5.364-2.503z" fill="#515151"/>
  <path d="m16 8c-1.226 0.613-2 1.866-2 3.236v5.231c0 0.981 0.39 1.923 1.084 2.617l0.916 0.916s0.445-0.445 0.916-0.916c0.694-0.694 1.084-1.636 1.084-2.617v-5.231c0-1.37-0.774-2.623-2-3.236z" fill="#fff"/>
  <path d="m14.638 22c-0.409 0-0.8 0.162-1.089 0.451l-1e-3 1e-3c-0.351 0.351-0.548 0.827-0.548 1.323v0.449c0 0.497 0.197 0.973 0.549 1.325l1.019 1.019c0.276 0.276 0.652 0.432 1.044 0.432h0.776c0.392 0 0.768-0.156 1.044-0.432l1.019-1.019c0.352-0.352 0.549-0.828 0.549-1.325v-0.449c0-0.496-0.197-0.972-0.548-1.323l-1e-3 -1e-3c-0.289-0.289-0.68-0.451-1.089-0.451h-2.724z" fill="#312528"/>
  <path d="m22.026 18c-.566 0-1.026-.46-1.026-1.026 0-.382 0-.825 0-1.252 0-.457.181-.895.504-1.218s.761-.504 1.218-.504h.002c.75 0 1.404.51 1.585 1.238.023.09.046.183.07.277.149.597.015 1.23-.364 1.716-.379.485-.961.769-1.577.769-.142 0-.281 0-.412 0z"/>
  <path d="m9.974 18c.566 0 1.026-.46 1.026-1.026 0-.382 0-.825 0-1.252 0-.457-.181-.895-.504-1.218s-.761-.504-1.218-.504c-.001 0-.001 0-.002 0-.75 0-1.404.51-1.585 1.238-.023.09-.046.183-.07.277-.149.597-.015 1.23.364 1.716.379.485.961.769 1.577.769z"/>
 </g>
</svg>
