<?xml version="1.0" encoding="UTF-8"?>
<!DOCTYPE svg  PUBLIC '-//W3C//DTD SVG 1.1//EN'  'http://www.w3.org/Graphics/SVG/1.1/DTD/svg11.dtd'>
<svg clip-rule="evenodd" fill-rule="evenodd" stroke-linecap="round" stroke-linejoin="round" stroke-miterlimit="1.5" version="1.1" viewBox="0 0 32 32" xml:space="preserve" xmlns="http://www.w3.org/2000/svg">
<metadata>
<rdf:RDF xmlns:cc="http://web.resource.org/cc/" xmlns:dc="http://purl.org/dc/elements/1.1/" xmlns:rdf="http://www.w3.org/1999/02/22-rdf-syntax-ns#">

     <rdf:Description rdf:about="">
       <dc:title>Mutant Standard emoji 2023.12</dc:title>
     </rdf:Description>

    <cc:work rdf:about="">
        <cc:license rdf:resource="http://creativecommons.org/licenses/by-nc-sa/4.0/"/>
        <cc:attributionName>Caius Nocturne</cc:attributionName>
        <cc:attributionURL>http://mutant.tech/</cc:attributionURL>
    </cc:work>

</rdf:RDF>
</metadata>
<rect id="squirrel" width="32" height="32" fill="none"/><g id="outline"><path d="m10 2s-0.685 0.913-1.4 1.867c-1.039 1.384-1.6 3.069-1.6 4.8v0.848c0 1.591 0.632 3.117 1.757 4.242l0.243 0.243h3v-7.183c0-1.185-0.351-2.343-1.008-3.329-0.497-0.746-0.992-1.488-0.992-1.488z" fill="none"/><clipPath id="_clip1"><path d="m10 2s-0.685 0.913-1.4 1.867c-1.039 1.384-1.6 3.069-1.6 4.8v0.848c0 1.591 0.632 3.117 1.757 4.242l0.243 0.243h3v-7.183c0-1.185-0.351-2.343-1.008-3.329-0.497-0.746-0.992-1.488-0.992-1.488z"/></clipPath><g clip-path="url(#_clip1)"><path d="m11 2v3l-1 2v4l2 2h3v-10l-4-1z" fill="#b8623e"/></g><path d="m10 2s-0.685 0.913-1.4 1.867c-1.039 1.384-1.6 3.069-1.6 4.8v0.848c0 1.591 0.632 3.117 1.757 4.242l0.243 0.243h3v-7.183c0-1.185-0.351-2.343-1.008-3.329-0.497-0.746-0.992-1.488-0.992-1.488z" fill="none" stroke="#000" stroke-width="4px"/><path d="m22 2s0.685 0.913 1.4 1.867c1.039 1.384 1.6 3.069 1.6 4.8v0.848c0 1.591-0.632 3.117-1.757 4.242l-0.243 0.243h-3v-7.183c0-1.185 0.351-2.343 1.008-3.329 0.497-0.746 0.992-1.488 0.992-1.488z" fill="none"/><clipPath id="_clip2"><path d="m22 2s0.685 0.913 1.4 1.867c1.039 1.384 1.6 3.069 1.6 4.8v0.848c0 1.591-0.632 3.117-1.757 4.242l-0.243 0.243h-3v-7.183c0-1.185 0.351-2.343 1.008-3.329 0.497-0.746 0.992-1.488 0.992-1.488z"/></clipPath><g clip-path="url(#_clip2)"><path d="m21 2v3l1 2v4l-2 2h-3v-10l4-1z" fill="#b8623e"/></g><path d="m22 2s0.685 0.913 1.4 1.867c1.039 1.384 1.6 3.069 1.6 4.8v0.848c0 1.591-0.632 3.117-1.757 4.242l-0.243 0.243h-3v-7.183c0-1.185 0.351-2.343 1.008-3.329 0.497-0.746 0.992-1.488 0.992-1.488z" fill="none" stroke="#000" stroke-width="4px"/><path d="m15.999 8c-4.082 0-7.61 2.852-8.466 6.844-0.503 2.348-1.011 4.72-1.298 6.057-0.155 0.726-0.172 1.475-0.05 2.207v1e-3c0.492 2.956 2.73 5.317 5.655 5.967 0.896 0.199 1.774 0.394 2.491 0.553 1.099 0.244 2.239 0.244 3.338 0 0.717-0.159 1.595-0.354 2.491-0.553 2.925-0.65 5.163-3.011 5.655-5.967v-1e-3c0.122-0.732 0.105-1.481-0.05-2.207-0.287-1.337-0.795-3.709-1.298-6.057-0.856-3.992-4.384-6.844-8.466-6.844h-2e-3z" fill="none" stroke="#000" stroke-width="4px"/></g><g id="emoji"><path d="m22 2s0.685 0.913 1.4 1.867c1.039 1.384 1.6 3.069 1.6 4.8v0.848c0 1.591-0.632 3.117-1.757 4.242l-0.243 0.243h-3v-1l2-11z" fill="#8c4338"/><path d="m22 2v2.513c0 0.323 0.052 0.643 0.154 0.949 0.157 0.471 0.403 1.209 0.589 1.768 0.17 0.51 0.257 1.044 0.257 1.581v0.532c0 1.061-0.421 2.078-1.172 2.829l-0.828 0.828h-1v-6.183c0-1.185 0.351-2.343 1.008-3.329l0.992-1.488z" fill="#b8623e"/><path d="m10 2s-0.685 0.913-1.4 1.867c-1.039 1.384-1.6 3.069-1.6 4.8v0.848c0 1.591 0.632 3.117 1.757 4.242l0.243 0.243h3v-1l-2-11z" fill="#8c4338"/><path d="m10 2v2.513c0 0.323-0.052 0.643-0.154 0.949-0.157 0.471-0.403 1.209-0.589 1.768-0.17 0.51-0.257 1.044-0.257 1.581v0.532c0 1.061 0.421 2.078 1.172 2.829l0.828 0.828h1v-6.183c0-1.185-0.351-2.343-1.008-3.329l-0.992-1.488z" fill="#b8623e"/><path d="m12.612 29.247-0.772-0.171c-2.925-0.65-5.163-3.011-5.655-5.967v-1e-3c-0.122-0.732-0.105-1.481 0.05-2.207 0.287-1.337 0.795-3.709 1.298-6.057 0.856-3.992 4.384-6.844 8.466-6.844h2e-3c4.082 0 7.61 2.852 8.466 6.844 0.503 2.348 1.011 4.72 1.298 6.057 0.155 0.726 0.172 1.475 0.05 2.207v1e-3c-0.492 2.956-2.73 5.317-5.655 5.967l-0.772 0.171c0.502-0.364-7.278-0.364-6.776 0z" fill="#b8623e"/><path d="m15.176 18.824h1.648l2.392 2.392c0.502 0.502 0.784 1.183 0.784 1.893 0 0.571-0.227 1.118-0.63 1.521l-0.37 0.37 1.334 1.334c0.398 0.398 0.496 1.005 0.245 1.508v1e-3c-0.28 0.559-0.689 1.04-1.191 1.404l-1.719 0.382c-1.099 0.244-2.239 0.244-3.338 0l-1.719-0.382c-0.502-0.364-0.911-0.845-1.191-1.404v-1e-3c-0.251-0.503-0.153-1.11 0.245-1.508l1.334-1.334-0.37-0.37c-0.403-0.403-0.63-0.95-0.63-1.521 0-0.71 0.282-1.391 0.784-1.893l2.392-2.392z" fill="#dfa87b"/><path d="m15.176 18.824 0.117-0.117c0.187-0.187 0.442-0.293 0.707-0.293s0.52 0.106 0.707 0.293l0.117 0.117c0.753 0.753 1.176 1.774 1.176 2.839v0.337h-4v-0.337c0-1.065 0.423-2.086 1.176-2.839z" fill="#ce9c69"/><path d="m21.78 20.13c-0.47-0.078-0.842-0.439-0.935-0.905-0.139-0.697-0.348-1.742-0.524-2.618-0.183-0.918 0.345-1.829 1.233-2.125 1e-3 0 2e-3 -1e-3 3e-3 -1e-3 0.839-0.28 1.759 0.072 2.198 0.84 0.19 0.333 0.405 0.71 0.632 1.107 0.479 0.838 0.433 1.877-0.119 2.669s-1.51 1.196-2.462 1.037c-9e-3 -1e-3 -0.018-3e-3 -0.026-4e-3z" fill="#d08e73"/><path d="m10.22 20.13c0.47-0.078 0.842-0.439 0.935-0.905 0.139-0.697 0.348-1.742 0.524-2.618 0.183-0.918-0.345-1.829-1.233-2.125-1e-3 0-2e-3 -1e-3 -3e-3 -1e-3 -0.839-0.28-1.759 0.072-2.198 0.84-0.19 0.333-0.405 0.71-0.632 1.107-0.479 0.838-0.433 1.877 0.119 2.669s1.51 1.196 2.462 1.037c9e-3 -1e-3 0.018-3e-3 0.026-4e-3z" fill="#d08e73"/><path d="m21.863 19.784c-0.2 0.05-0.413 1e-3 -0.571-0.132s-0.243-0.333-0.229-0.539c0.053-0.735 0.131-1.827 0.206-2.885 0.032-0.437 0.344-0.803 0.771-0.903 0.428-0.099 0.87 0.092 1.091 0.47 0.176 0.303 0.354 0.608 0.526 0.903 0.317 0.544 0.36 1.205 0.116 1.785-0.245 0.58-0.748 1.011-1.358 1.163-0.195 0.049-0.382 0.096-0.552 0.138z"/><path d="m10.137 19.784c0.2 0.05 0.413 1e-3 0.571-0.132s0.243-0.333 0.229-0.539c-0.053-0.735-0.131-1.827-0.206-2.885-0.032-0.437-0.344-0.803-0.771-0.903-0.428-0.099-0.87 0.092-1.091 0.47-0.176 0.303-0.354 0.608-0.526 0.903-0.317 0.544-0.36 1.205-0.116 1.785 0.245 0.58 0.748 1.011 1.358 1.163 0.195 0.049 0.382 0.096 0.552 0.138z"/><path d="m15.151 21c-0.305 0-0.598 0.121-0.814 0.337s-0.337 0.509-0.337 0.814v0.36c0 0.319 0.094 0.631 0.271 0.896l2e-3 2e-3c0.385 0.578 1.033 0.924 1.727 0.924s1.342-0.346 1.727-0.924l2e-3 -2e-3c0.177-0.265 0.271-0.577 0.271-0.896v-0.36c0-0.305-0.121-0.598-0.337-0.814s-0.509-0.337-0.814-0.337h-1.698z" fill="#79463a"/><path d="m12.28 27s0.18 0.209 0.424 0.493c0.823 0.957 2.022 1.507 3.284 1.507h1e-3c1.275 0 2.486-0.561 3.31-1.535 0.228-0.269 0.393-0.465 0.393-0.465l-3.692-1-3.72 1z" fill="#bb8a65"/><path d="m13 27h0.194c0.53 0 1.053-0.123 1.527-0.36 0.573-0.287 1.279-0.64 1.279-0.64s0.706 0.353 1.279 0.64c0.474 0.237 0.997 0.36 1.527 0.36h0.194" fill="none" stroke="#784337" stroke-width="1.5px"/></g></svg>
