<?xml version="1.0" encoding="UTF-8"?>
<!DOCTYPE svg  PUBLIC '-//W3C//DTD SVG 1.1//EN'  'http://www.w3.org/Graphics/SVG/1.1/DTD/svg11.dtd'>
<svg clip-rule="evenodd" fill-rule="evenodd" stroke-linecap="round" stroke-miterlimit="3" version="1.1" viewBox="0 0 32 32" xml:space="preserve" xmlns="http://www.w3.org/2000/svg">
<metadata>
<rdf:RDF xmlns:cc="http://web.resource.org/cc/" xmlns:dc="http://purl.org/dc/elements/1.1/" xmlns:rdf="http://www.w3.org/1999/02/22-rdf-syntax-ns#">

     <rdf:Description rdf:about="">
       <dc:title>Mutant Standard emoji 2023.12</dc:title>
     </rdf:Description>

    <cc:work rdf:about="">
        <cc:license rdf:resource="http://creativecommons.org/licenses/by-nc-sa/4.0/"/>
        <cc:attributionName>Caius Nocturne</cc:attributionName>
        <cc:attributionURL>http://mutant.tech/</cc:attributionURL>
    </cc:work>

</rdf:RDF>
</metadata>

    <rect id="blue_jay" width="32" height="32" fill="none"/>
    <clipPath id="_clip1">
        <rect width="32" height="32"/>
    </clipPath>
    <g clip-path="url(#_clip1)">
        <g id="outline" fill="none" stroke="#000" stroke-width="4px">
            <path d="m29 30s-1.485-12.378-2.366-19.715c-0.362-3.015-2.92-5.285-5.957-5.285h-2.351c-2.734 0-5.32 1.243-7.028 3.378-0.718 0.897-1.298 1.622-1.298 1.622l-2 4 6.462 3.231c0.864 0.432 1.241 1.462 0.861 2.35-0.065 0.15-0.132 0.307-0.202 0.47-1.358 3.169-1.402 6.747-0.121 9.949h14z"/>
            <path d="m10 10 2 3s-0.169 0.337-0.367 0.734c-0.379 0.759-1.196 1.196-2.037 1.09-2.295-0.286-6.596-0.824-6.596-0.824l0.921-0.921c0.712-0.712 1.561-1.272 2.496-1.646 1.478-0.591 3.583-1.433 3.583-1.433z"/>
            <path d="m30 5h-11l4 6h1.486c0.987 0 1.952-0.292 2.774-0.84 0.821-0.547 1.74-1.16 1.74-1.16l-2-1 3-3z" stroke-linejoin="round"/>
        </g>
        <g id="emoji">
            <path d="m14.906 7c-0.056 0.177-0.137 0.347-0.242 0.504-0.321 0.481-0.809 1.213-1.173 1.76-0.313 0.469-0.413 1.048-0.276 1.594 0.293 1.176 0.785 3.142 0.785 3.142l-2-1-2.1-2.8 0.1-0.2s0.58-0.725 1.298-1.622c0.103-0.129 0.21-0.255 0.319-0.378l1.459-0.762s0.65-0.352 1.181-0.352l0.649 0.114z" fill="#333"/>
            <path d="m24 30h-9c-1.243-3.107-1.238-6.57 5e-3 -9.668l1.755-1.585 7.386-4.771-0.146 16.024zm-9.094-23h10.243c0.736 0.822 1.251 1.851 1.444 3l-0.593 1-8.64 6.28s-0.3 0.062-2.066 0.801c-0.169-0.357-0.454-0.661-0.832-0.85l-6.462-3.231 1.9-3.8 2.1 2.8 2 1s-0.492-1.966-0.785-3.142c-0.137-0.546-0.037-1.125 0.276-1.594 0.364-0.547 0.852-1.279 1.173-1.76 0.105-0.157 0.186-0.327 0.242-0.504z" fill="#d4d5d8"/>
            <path d="m11.617 8c1.702-1.903 4.14-3 6.709-3h2.351c1.765 0 3.368 0.766 4.472 2h-10.321c-0.53 0-1.039 0.211-1.414 0.586l-0.414 0.414h-1.383z" fill="#3b6ed4"/>
            <path d="m24.146 13.976 1.511-0.976 1.423 1 1.92 16h-5l-3.879-3.879c-1.358-1.358-2.121-3.2-2.121-5.121l6.146-7.024z" fill="#3b6ed4"/>
            <path d="m26.593 10c0.016 0.094 0.03 0.189 0.041 0.285l0.446 3.715h-1.423c-1.061 0-2.078 0.421-2.829 1.172l-2.159 2.159c-1.097 1.097-2.436 1.925-3.909 2.416l-1.755 0.585c0.037-0.094 0.076-0.188 0.116-0.281 0.07-0.163 0.137-0.32 0.202-0.47 0.213-0.499 0.188-1.043-0.029-1.5 1.766-0.739 3.209-2.087 4.066-3.801l1.64-3.28 1-1h4.593z" fill="#333"/>
            <path d="m10 10h0.109c0.532 0 1.004 0.34 1.173 0.845 0.295 0.887 0.718 2.155 0.718 2.155s-4.494 0.749-5.703 0.951c-0.198 0.032-0.398 0.049-0.598 0.049h-2.699l0.921-0.921c0.712-0.712 1.561-1.272 2.496-1.646 1.478-0.591 3.583-1.433 3.583-1.433z" fill="#313131"/>
            <clipPath id="_clip2">
                <path d="m10 10h0.109c0.532 0 1.004 0.34 1.173 0.845 0.295 0.887 0.718 2.155 0.718 2.155s-4.494 0.749-5.703 0.951c-0.198 0.032-0.398 0.049-0.598 0.049h-2.699l0.921-0.921c0.712-0.712 1.561-1.272 2.496-1.646 1.478-0.591 3.583-1.433 3.583-1.433z"/>
            </clipPath>
            <g clip-path="url(#_clip2)">
                <path d="m8 10 3.567 3.567c0.277 0.277 0.433 0.653 0.433 1.046v0.262l4 0.125v-7h-7l-1 2z" fill="#5d8be6"/>
            </g>
            <path d="m3 14 3-1h6l-0.447 0.894c-0.339 0.678-1.032 1.106-1.789 1.106h-0.433c-0.22 0-0.44-0.018-0.658-0.054-1.252-0.209-5.673-0.946-5.673-0.946z" fill="#313131"/>
            <path d="m30 5h-11l-2 2c1.226 0 2.346 0.693 2.894 1.789 0.533 1.065 1.106 2.211 1.106 2.211h3.789c0.79 0 1.562-0.234 2.219-0.672 0.871-0.581 1.992-1.328 1.992-1.328l-2-1 3-3z" fill="#3b6ed4"/>
            <path d="m18 11-1.356-0.452c-0.943-0.314-1.974 0.113-2.419 1.002-0.131 0.261-0.225 0.45-0.225 0.45s0.656 0.219 1.354 0.451c0.945 0.315 1.977-0.112 2.422-1.002 0.13-0.261 0.224-0.449 0.224-0.449z"/>
        </g>
    </g>
</svg>
