<?xml version="1.0" encoding="UTF-8"?>
<!DOCTYPE svg  PUBLIC '-//W3C//DTD SVG 1.1//EN'  'http://www.w3.org/Graphics/SVG/1.1/DTD/svg11.dtd'>
<svg clip-rule="evenodd" fill-rule="evenodd" stroke-linecap="round" stroke-miterlimit="3" version="1.1" viewBox="0 0 32 32" xml:space="preserve" xmlns="http://www.w3.org/2000/svg">
<metadata>
<rdf:RDF xmlns:cc="http://web.resource.org/cc/" xmlns:dc="http://purl.org/dc/elements/1.1/" xmlns:rdf="http://www.w3.org/1999/02/22-rdf-syntax-ns#">

     <rdf:Description rdf:about="">
       <dc:title>Mutant Standard emoji 2023.12</dc:title>
     </rdf:Description>

    <cc:work rdf:about="">
        <cc:license rdf:resource="http://creativecommons.org/licenses/by-nc-sa/4.0/"/>
        <cc:attributionName>Caius Nocturne</cc:attributionName>
        <cc:attributionURL>http://mutant.tech/</cc:attributionURL>
    </cc:work>

</rdf:RDF>
</metadata>

    <rect id="crane" width="32" height="32" fill="none"/>
    <clipPath id="_clip1">
        <rect width="32" height="32"/>
    </clipPath>
    <g clip-path="url(#_clip1)">
        <g id="outline" fill="none" stroke="#000" stroke-width="4px">
            <path d="m23.5 30s3.297-6.594 5.195-10.389c0.858-1.717 1.305-3.61 1.305-5.53v-1e-3c0-3.096-1.453-6.013-3.925-7.877-2.471-1.864-5.675-2.46-8.651-1.61-0.238 0.068-0.452 0.129-0.637 0.182-0.516 0.148-0.986 0.424-1.366 0.804l-1.421 1.421-2 4v1l3 1 4.422 2.211c1.976 0.988 2.777 3.391 1.789 5.367l-4.711 9.422h7z"/>
            <path d="m2 18v-0.292c0-2.272 1.284-4.35 3.317-5.366 2.216-1.109 4.933-2.467 6.102-3.052 0.385-0.192 0.736-0.445 1.04-0.749l1.541-1.541h2l-2 4 1.019 1.019c0.227 0.227 0.331 0.55 0.28 0.867-0.052 0.318-0.252 0.591-0.54 0.734-2.072 1.036-6.184 3.093-7.972 3.986-0.567 0.284-1.193 0.429-1.827 0.422-1.162-0.011-2.96-0.028-2.96-0.028z"/>
        </g>
        <g id="emoji">
            <path d="m20 4.215s7.313 11.063 7.313 13.715l-1.313 7.07-2.5 5h-7l4.711-9.422c0.988-1.976 0.187-4.379-1.789-5.367l-4.422-2.211-3-1v-1l2-4 1.421-1.421c0.38-0.38 0.85-0.656 1.366-0.804 0.185-0.053 0.399-0.114 0.637-0.182 0.847-0.242 1.714-0.367 2.576-0.378z" fill="#373737"/>
            <path d="m20.359 7c0.197 0.432 9.584 6.019 9.584 6.019-0.03-0.273 0.057 0.426 0.057 1.061v1e-3c0 1.92-0.447 3.813-1.305 5.53l-2.695 5.389v-1.858c0-2.652-1.054-5.196-2.929-7.071l-6.071-6.071 3-3h0.359z" fill="#fff"/>
            <path d="m20 4.215c2.166-0.03 4.308 0.655 6.075 1.988 2.187 1.65 3.577 4.123 3.868 6.816h-2.267c-1.061 0-2.079-0.422-2.829-1.172l-3.675-3.675c-0.751-0.751-1.172-1.768-1.172-2.829v-1.128z" fill="#dd381b"/>
            <path d="m2 18v-0.292c0-2.272 1.284-4.35 3.317-5.366 2.216-1.109 4.933-2.467 6.102-3.052 0.385-0.192 0.736-0.445 1.04-0.749l1.541-1.541v2.757c0 0.796 0.316 1.559 0.879 2.122l0.14 0.14c0.227 0.227 0.331 0.55 0.28 0.867-0.052 0.318-0.252 0.591-0.54 0.734-2.072 1.036-6.184 3.093-7.972 3.986-0.567 0.284-1.193 0.429-1.827 0.422-1.162-0.011-2.96-0.028-2.96-0.028z" fill="#b8b77f"/>
            <path d="m20 7h-1c-0.53 0-1.039 0.211-1.414 0.586s-0.586 0.884-0.586 1.414v1h1c0.53 0 1.039-0.211 1.414-0.586s0.586-0.884 0.586-1.414v-1z"/>
            <path d="m12 11-2 1" fill="none" stroke="#68672a" stroke-width="1px"/>
        </g>
    </g>
</svg>
