<?xml version="1.0" encoding="UTF-8"?>
<!DOCTYPE svg  PUBLIC '-//W3C//DTD SVG 1.1//EN'  'http://www.w3.org/Graphics/SVG/1.1/DTD/svg11.dtd'>
<svg clip-rule="evenodd" fill-rule="evenodd" stroke-linecap="round" stroke-miterlimit="3" version="1.1" viewBox="0 0 32 32" xml:space="preserve" xmlns="http://www.w3.org/2000/svg">
<metadata>
<rdf:RDF xmlns:cc="http://web.resource.org/cc/" xmlns:dc="http://purl.org/dc/elements/1.1/" xmlns:rdf="http://www.w3.org/1999/02/22-rdf-syntax-ns#">

     <rdf:Description rdf:about="">
       <dc:title>Mutant Standard emoji 2023.12</dc:title>
     </rdf:Description>

    <cc:work rdf:about="">
        <cc:license rdf:resource="http://creativecommons.org/licenses/by-nc-sa/4.0/"/>
        <cc:attributionName>Caius Nocturne</cc:attributionName>
        <cc:attributionURL>http://mutant.tech/</cc:attributionURL>
    </cc:work>

</rdf:RDF>
</metadata>

    <rect id="crow" width="32" height="32" fill="none"/>
    <clipPath id="_clip1">
        <rect width="32" height="32"/>
    </clipPath>
    <g clip-path="url(#_clip1)">
        <g id="outline">
            <path d="m30 13s-1.03-2.059-2.044-4.088c-1.199-2.398-3.649-3.912-6.329-3.912h-1.153c-2.224 0-4.358 0.884-5.931 2.457l-0.882 0.882c-0.432 0.432-0.977 0.731-1.573 0.864-1.071 0.238-2.913 0.647-4.569 1.015-2.258 0.502-4.235 1.857-5.519 3.782 0 0 3.592 1.539 5.63 2.413 0.904 0.387 1.877 0.587 2.861 0.587h1.589c2.964 0 5.622 1.826 6.686 4.592 1.439 3.742 3.234 8.408 3.234 8.408h8v-17z" fill="none" stroke="#000" stroke-width="4px"/>
        </g>
        <g id="emoji">
            <path d="m14.5 7.5 0.043-0.043c1.573-1.573 3.707-2.457 5.931-2.457h1.153c2.68 0 5.13 1.514 6.329 3.912 1.014 2.029 2.044 4.088 2.044 4.088v17h-8s-1.795-4.666-3.234-8.408c-0.033-0.086-0.067-0.171-0.103-0.255l-4.163-13.837z" fill="#36384a"/>
            <path d="m13.128 9.128 0.366-0.634c0.057-0.049 0.113-0.101 0.167-0.155l0.839-0.839 1.207 1.207c0.188 0.188 0.442 0.293 0.707 0.293h4.929c1.061 0 2.078 0.421 2.829 1.172 1.562 1.562 1.562 4.094 0 5.656l-5.509 5.509c-1.126-2.623-5.663-4.337-5.663-4.337l0.128-7.872z" fill="#1e1f29"/>
            <path d="m13.128 9.128 1.872 1.872v3.172c0 0.53-0.211 1.039-0.586 1.414l-1.414 1.414h-2.509c-0.984 0-1.957-0.2-2.861-0.587-2.038-0.874-5.63-2.413-5.63-2.413 1.237-1.856 3.119-3.182 5.276-3.724l1.834-0.047 3.967-1.015 0.051-0.086z" fill="#4b4f68"/>
            <clipPath id="_clip2">
                <path d="m13.128 9.128 1.872 1.872v3.172c0 0.53-0.211 1.039-0.586 1.414l-1.414 1.414h-2.509c-0.984 0-1.957-0.2-2.861-0.587-2.038-0.874-5.63-2.413-5.63-2.413 1.237-1.856 3.119-3.182 5.276-3.724l1.834-0.047 3.967-1.015 0.051-0.086z"/>
            </clipPath>
            <g clip-path="url(#_clip2)">
                <path d="m0 14h12.227c0.508 0 1.01 0.118 1.464 0.346 0.578 0.289 1.309 0.654 1.309 0.654" fill="none" stroke="#32354c" stroke-width="1px"/>
            </g>
            <path d="m13.494 8.494 2.506 2.506c0 0.552-0.448 1-1 1h-4.348c-1.058 0-2.072-0.42-2.82-1.168l-0.556-0.556c0.08-0.021 0.162-0.04 0.243-0.058 1.656-0.368 3.498-0.777 4.569-1.015 0.522-0.116 1.005-0.36 1.406-0.709z" fill="#292b39"/>
            <circle cx="19" cy="11" r="2" fill="#9ed8ce"/>
            <clipPath id="_clip3">
                <circle cx="19" cy="11" r="2"/>
            </clipPath>
            <g clip-path="url(#_clip3)">
                <circle cx="19" cy="11" r="1"/>
            </g>
        </g>
    </g>
</svg>
