<?xml version="1.0" encoding="UTF-8"?>
<!DOCTYPE svg  PUBLIC '-//W3C//DTD SVG 1.1//EN'  'http://www.w3.org/Graphics/SVG/1.1/DTD/svg11.dtd'>
<svg clip-rule="evenodd" fill-rule="evenodd" stroke-linecap="round" stroke-miterlimit="3" version="1.1" viewBox="0 0 32 32" xml:space="preserve" xmlns="http://www.w3.org/2000/svg">
<metadata>
<rdf:RDF xmlns:cc="http://web.resource.org/cc/" xmlns:dc="http://purl.org/dc/elements/1.1/" xmlns:rdf="http://www.w3.org/1999/02/22-rdf-syntax-ns#">

     <rdf:Description rdf:about="">
       <dc:title>Mutant Standard emoji 2023.12</dc:title>
     </rdf:Description>

    <cc:work rdf:about="">
        <cc:license rdf:resource="http://creativecommons.org/licenses/by-nc-sa/4.0/"/>
        <cc:attributionName>Caius Nocturne</cc:attributionName>
        <cc:attributionURL>http://mutant.tech/</cc:attributionURL>
    </cc:work>

</rdf:RDF>
</metadata>

    <rect id="eagle" width="32" height="32" fill="none"/>
    <clipPath id="_clip1">
        <rect width="32" height="32"/>
    </clipPath>
    <g clip-path="url(#_clip1)">
        <g id="outline" fill="none" stroke="#000" stroke-width="4px">
            <path d="m30 30-2-9 2 1-2-7 2 1v-1.056c0-3.03-1.712-5.8-4.422-7.155-0.757-0.379-1.494-0.747-2.1-1.05-0.972-0.486-2.044-0.739-3.13-0.739h-3.62c-2.387 0-4.676 0.948-6.364 2.636l-0.364 0.364-2 5 6.369 3.184c0.901 0.451 1.266 1.546 0.815 2.447-0.247 0.495-0.526 1.052-0.799 1.599-0.911 1.822-1.385 3.83-1.385 5.867v2.903h17z"/>
            <path d="m10 9v4l4 1s-3.703 0.463-6.071 0.759c-1.205 0.151-2.255 0.894-2.798 1.98-0.54 1.079-1.131 2.261-1.131 2.261s-0.481-0.841-0.971-1.699c-0.647-1.132-0.716-2.505-0.186-3.697 0.737-1.659 2.138-2.931 3.86-3.505 1.592-0.531 3.297-1.099 3.297-1.099z"/>
            <path d="m5 15 7-1h2l-0.447 0.894c-0.339 0.678-1.032 1.106-1.789 1.106h-2.271c-0.327 0-0.654-0.04-0.971-0.12-1.062-0.265-3.522-0.88-3.522-0.88z"/>
        </g>
        <g id="emoji">
            <path d="m30 30-2-9 2 1-2-7 2 1v-1.056c0-3.03-1.712-5.8-4.422-7.155-0.757-0.379-1.494-0.747-2.1-1.05-0.972-0.486-2.044-0.739-3.13-0.739h-3.62c-2.387 0-4.676 0.948-6.364 2.636l-0.364 0.364-2 5 6.369 3.184c0.901 0.451 1.266 1.546 0.815 2.447-0.247 0.495-0.526 1.052-0.799 1.599-0.911 1.822-1.385 3.83-1.385 5.867v2.903h17z" fill="#816148"/>
            <clipPath id="_clip2">
                <path d="m30 30-2-9 2 1-2-7 2 1v-1.056c0-3.03-1.712-5.8-4.422-7.155-0.757-0.379-1.494-0.747-2.1-1.05-0.972-0.486-2.044-0.739-3.13-0.739h-3.62c-2.387 0-4.676 0.948-6.364 2.636l-0.364 0.364-2 5 6.369 3.184c0.901 0.451 1.266 1.546 0.815 2.447-0.247 0.495-0.526 1.052-0.799 1.599-0.911 1.822-1.385 3.83-1.385 5.867v2.903h17z"/>
            </clipPath>
            <g clip-path="url(#_clip2)">
                <path d="m30 22-4-2 3 5 1-3z" fill="#beb7a9"/>
                <path d="m30 16-4-2 4 6v-4z" fill="#beb7a9"/>
                <path d="m13 26 3-3v3l5-5v3l4-4h1l6 6v5h-19v-5z" fill="#6f543e"/>
                <path d="m25 23v2.343c0 1.061 0.421 2.078 1.172 2.829l1.828 1.828v-2.343c0-1.061-0.421-2.078-1.172-2.829l-1.828-1.828z" fill="#836a59"/>
                <path d="m23 25v2.343c0 1.061-0.421 2.078-1.172 2.829l-1.828 1.828v-2.343c0-1.061 0.421-2.078 1.172-2.829l1.828-1.828z" fill="#836a59"/>
                <path d="m18 27v2.343c0 1.061-0.421 2.078-1.172 2.829l-1.828 1.828v-2.343c0-1.061 0.421-2.078 1.172-2.829l1.828-1.828z" fill="#836a59"/>
            </g>
            <circle cx="18" cy="11" r="2" fill="#34270d"/>
            <circle cx="18" cy="11" r="1"/>
            <path d="m10 9c0.428 0 0.826 0.222 1.052 0.586 0.225 0.365 0.245 0.82 0.054 1.203-0.533 1.065-1.106 2.211-1.106 2.211l4 1s-3.703 0.463-6.071 0.759c-1.205 0.151-2.255 0.894-2.798 1.98-0.54 1.079-1.131 2.261-1.131 2.261s-0.481-0.841-0.971-1.699c-0.647-1.132-0.716-2.505-0.186-3.697 0.737-1.659 2.138-2.931 3.86-3.505 1.592-0.531 3.297-1.099 3.297-1.099z" fill="#2e2f34"/>
            <clipPath id="_clip3">
                <path d="m10 9c0.428 0 0.826 0.222 1.052 0.586 0.225 0.365 0.245 0.82 0.054 1.203-0.533 1.065-1.106 2.211-1.106 2.211l4 1s-3.703 0.463-6.071 0.759c-1.205 0.151-2.255 0.894-2.798 1.98-0.54 1.079-1.131 2.261-1.131 2.261s-0.481-0.841-0.971-1.699c-0.647-1.132-0.716-2.505-0.186-3.697 0.737-1.659 2.138-2.931 3.86-3.505 1.592-0.531 3.297-1.099 3.297-1.099z"/>
            </clipPath>
            <g clip-path="url(#_clip3)">
                <path d="m5 10 3.414 3.414c0.375 0.375 0.586 0.884 0.586 1.414v1.047l7-0.875v-7h-9l-2 2z" fill="#f1c500"/>
            </g>
            <path d="m8.077 14.231 0.213 0.056 0.462 1.491-0.116 0.129c-0.038-8e-3 -0.076-0.017-0.114-0.027-1.062-0.265-3.522-0.88-3.522-0.88l3.077-0.769z" fill="#2e2f34"/>
            <path d="m8.077 14.231 0.923-0.231h5l-0.447 0.894c-0.339 0.678-1.032 1.106-1.789 1.106h-2.271c-0.288 0-0.576-0.031-0.857-0.093l-0.559-1.676z" fill="#f1c500"/>
            <path d="m16 10 1.125-0.375c1.217-0.406 2.533-0.406 3.75 0l1.125 0.375" fill="none" stroke="#604836" stroke-width="1px"/>
            <path d="m10 13.5h2.725c0.831 0 1.644 0.246 2.336 0.707 0.443 0.295 0.941 0.628 1.322 0.881 0.402 0.269 0.875 0.412 1.359 0.412h1.258" fill="none" stroke="#f1c500" stroke-width="1px"/>
        </g>
    </g>
</svg>
