<?xml version="1.0" encoding="UTF-8"?>
<!DOCTYPE svg  PUBLIC '-//W3C//DTD SVG 1.1//EN'  'http://www.w3.org/Graphics/SVG/1.1/DTD/svg11.dtd'>
<svg clip-rule="evenodd" fill-rule="evenodd" stroke-linecap="round" stroke-linejoin="round" stroke-miterlimit="1.5" version="1.1" viewBox="0 0 32 32" xml:space="preserve" xmlns="http://www.w3.org/2000/svg">
<metadata>
<rdf:RDF xmlns:cc="http://web.resource.org/cc/" xmlns:dc="http://purl.org/dc/elements/1.1/" xmlns:rdf="http://www.w3.org/1999/02/22-rdf-syntax-ns#">

     <rdf:Description rdf:about="">
       <dc:title>Mutant Standard emoji 2023.12</dc:title>
     </rdf:Description>

    <cc:work rdf:about="">
        <cc:license rdf:resource="http://creativecommons.org/licenses/by-nc-sa/4.0/"/>
        <cc:attributionName>Caius Nocturne</cc:attributionName>
        <cc:attributionURL>http://mutant.tech/</cc:attributionURL>
    </cc:work>

</rdf:RDF>
</metadata>

    <rect id="owl" width="32" height="32" fill="none"/>
    <clipPath id="_clip1">
        <rect width="32" height="32"/>
    </clipPath>
    <g clip-path="url(#_clip1)">
        <g id="outline" fill="none" stroke="#000" stroke-width="4px">
            <path d="m15 8c-5.523 0-10 4.477-10 10v2c0 5.523 4.477 10 10 10h2c5.523 0 10-4.477 10-10v-2c0-5.523-4.477-10-10-10h-2z"/>
            <path d="m18 9h2.737c1.34 0 2.517-0.888 2.885-2.176 0.587-2.055 1.378-4.824 1.378-4.824h-1e-3c-2.325 0-4.327 1.641-4.783 3.921-0.019 0.096-0.038 0.188-0.055 0.275-0.094 0.468-0.504 0.804-0.981 0.804h-1.18v2z"/>
            <path d="m14 9h-2.737c-1.34 0-2.517-0.888-2.885-2.176-0.587-2.055-1.378-4.824-1.378-4.824h1e-3c2.325 0 4.327 1.641 4.783 3.921 0.019 0.096 0.038 0.188 0.055 0.275 0.094 0.468 0.504 0.804 0.981 0.804h1.18v2z"/>
            <path d="m28 17c0-5.523-4.477-10-10-10h-4c-5.523 0-10 4.477-10 10v13h24v-13z" stroke-linejoin="miter" stroke-miterlimit="3"/>
        </g>
        <g id="emoji">
            
                <path d="m11.504 5c0.121 0.293 0.216 0.601 0.28 0.921 0.019 0.096 0.038 0.188 0.055 0.275 0.094 0.468 0.504 0.804 0.981 0.804h1.18v2h-2.737s-0.885-2.257-1.955-4l0.096-0.273 1.569-0.04 0.531 0.313z" fill="#515151"/>
                <path d="m9.308 5c-0.657-1.07-1.384-1.946-2.019-1.99l-0.289-1.01h1e-3c1.998 0 3.758 1.212 4.503 3h-2.196z" fill="#b28936"/>
                <path d="m7.289 3.01c1.671 0.115 3.124 1.228 3.66 2.836l1.051 3.154h-0.737c-1.34 0-2.517-0.888-2.885-2.176l-1.089-3.814z" fill="#343434"/>
            
            
                <path d="m20.496 5c-0.121 0.293-0.216 0.601-0.28 0.921-0.019 0.096-0.038 0.188-0.055 0.275-0.094 0.468-0.504 0.804-0.981 0.804h-1.18v2h2.737s0.885-2.257 1.955-4l-0.096-0.273-1.569-0.04-0.531 0.313z" fill="#515151"/>
                <path d="m22.692 5c0.657-1.07 1.384-1.946 2.019-1.99l0.289-1.01h-1e-3c-1.998 0-3.758 1.212-4.503 3h2.196z" fill="#b28936"/>
                <path d="m24.711 3.01c-1.671 0.115-3.124 1.228-3.66 2.836l-1.051 3.154h0.737c1.34 0 2.517-0.888 2.885-2.176l1.089-3.814z" fill="#343434"/>
            
            <path d="m28 17c0-5.523-4.477-10-10-10h-4c-5.523 0-10 4.477-10 10v13h24v-13z" fill="#515151"/>
            <clipPath id="_clip2">
                <path d="m28 17c0-5.523-4.477-10-10-10h-4c-5.523 0-10 4.477-10 10v13h24v-13z"/>
            </clipPath>
            <g clip-path="url(#_clip2)" fill="#656565">
                <path d="m7 31c-1.105 0-2-0.895-2-2v-3c1.105 0 2 0.895 2 2v3z"/>
                <path d="m25 31c1.105 0 2-0.895 2-2v-3c-1.105 0-2 0.895-2 2v3z"/>
                <path d="m22 33c1.105 0 2-0.895 2-2v-3c-1.105 0-2 0.895-2 2v3z"/>
                <path d="m10 33c-1.105 0-2-0.895-2-2v-3c1.105 0 2 0.895 2 2v3z"/>
            </g>
            <path d="m23 9.516c2.412 1.614 4 4.364 4 7.484v2c0 3.941-2.279 7.349-5.591 8.978l-2.376-9.938 3.967-8.524zm-14 0 3.5 8.484-1.909 9.978c-3.312-1.629-5.591-5.037-5.591-8.978v-2c0-3.12 1.588-5.87 4-7.484z" fill="#b28936"/>
            <path d="m9 9.516c1.43-0.958 3.15-1.516 5-1.516h4c1.85 0 3.57 0.558 5 1.516v0.997c0 0.323-0.052 0.643-0.154 0.949l-0.692 2.076c-0.055 0.164-0.095 0.332-0.121 0.502 1.679 0.258 2.967 1.71 2.967 3.46 0 1.932-1.568 3.5-3.5 3.5l0.496 0.992c0.639 1.277 0.701 2.767 0.17 4.093l-0.757 1.893c-1.33 0.654-2.827 1.022-4.409 1.022h-2c-1.582 0-3.079-0.368-4.409-1.022l-0.757-1.893c-0.531-1.326-0.469-2.816 0.17-4.093l0.496-0.992c-1.932 0-3.5-1.568-3.5-3.5 0-1.75 1.288-3.202 2.967-3.46-0.026-0.17-0.066-0.338-0.121-0.502l-0.692-2.076c-0.102-0.306-0.154-0.626-0.154-0.949v-0.997z" fill="#343434"/>
            <path d="m10 9 1 1 3 8v5h4v-5l3-8 1-1v-1l-5-1h-2l-5 1v1z" fill="#515151"/>
            <circle cx="21.5" cy="17.5" r="2.5" fill="#e5bf17"/>
            <clipPath id="_clip3">
                <circle cx="21.5" cy="17.5" r="2.5"/>
            </clipPath>
            <g clip-path="url(#_clip3)">
                <circle cx="21.5" cy="17.5" r="1.5"/>
            </g>
            <circle cx="10.5" cy="17.5" r="2.5" fill="#e5bf17"/>
            <clipPath id="_clip4">
                <circle cx="10.5" cy="17.5" r="2.5"/>
            </clipPath>
            <g clip-path="url(#_clip4)">
                <circle cx="10.5" cy="17.5" r="1.5"/>
            </g>
            <path d="m15 19-5 3 1 1-1 3h2l1 3 1-1 1 1h2l1-1 1 1 1-3h2l-1-3 1-1-5-3v4h-2v-4z" fill="#cecdc8"/>
            <path d="m16 19-3 6 1.404 0.702c0.387 0.193 0.701 0.507 0.894 0.894l0.702 1.404 0.702-1.404c0.193-0.387 0.507-0.701 0.894-0.894l1.404-0.702-3-6z" fill="#21201d"/>
        </g>
        <path d="m19.5 11v3l-2 4v3" fill="none" stroke="#cecdc8" stroke-linejoin="miter" stroke-miterlimit="3" stroke-width="1px"/>
        <path d="m12.5 11v3l2 4v3" fill="none" stroke="#cecdc8" stroke-linejoin="miter" stroke-miterlimit="3" stroke-width="1px"/>
        <path d="m19.5 14 1-1v-2.5c0-0.133-0.053-0.26-0.146-0.354-0.094-0.093-0.221-0.146-0.354-0.146s-0.26 0.053-0.354 0.146c-0.093 0.094-0.146 0.221-0.146 0.354v3.5z" fill="none" stroke="#cecdc8" stroke-miterlimit="3" stroke-width="1px"/>
        <path d="m12.5 14-1-1v-2.5c0-0.133 0.053-0.26 0.146-0.354 0.094-0.093 0.221-0.146 0.354-0.146s0.26 0.053 0.354 0.146c0.093 0.094 0.146 0.221 0.146 0.354v3.5z" fill="none" stroke="#cecdc8" stroke-miterlimit="3" stroke-width="1px"/>
    </g>
</svg>
