<?xml version="1.0" encoding="UTF-8"?>
<!DOCTYPE svg  PUBLIC '-//W3C//DTD SVG 1.1//EN'  'http://www.w3.org/Graphics/SVG/1.1/DTD/svg11.dtd'>
<svg clip-rule="evenodd" fill-rule="evenodd" stroke-linecap="round" stroke-miterlimit="3" version="1.1" viewBox="0 0 32 32" xml:space="preserve" xmlns="http://www.w3.org/2000/svg">
<metadata>
<rdf:RDF xmlns:cc="http://web.resource.org/cc/" xmlns:dc="http://purl.org/dc/elements/1.1/" xmlns:rdf="http://www.w3.org/1999/02/22-rdf-syntax-ns#">

     <rdf:Description rdf:about="">
       <dc:title>Mutant Standard emoji 2023.12</dc:title>
     </rdf:Description>

    <cc:work rdf:about="">
        <cc:license rdf:resource="http://creativecommons.org/licenses/by-nc-sa/4.0/"/>
        <cc:attributionName>Caius Nocturne</cc:attributionName>
        <cc:attributionURL>http://mutant.tech/</cc:attributionURL>
    </cc:work>

</rdf:RDF>
</metadata>

    <rect id="parrot" width="32" height="32" fill="none"/>
    <clipPath id="_clip1">
        <rect width="32" height="32"/>
    </clipPath>
    <g clip-path="url(#_clip1)">
        <g id="outline" fill="none" stroke="#000" stroke-width="4px">
            <path d="m30 30v-12.23c0-1.813-0.493-3.591-1.425-5.145-0.774-1.29-1.575-2.625-1.575-2.625h2l-1.027-1.027c-1.263-1.263-2.977-1.973-4.763-1.973h-1.21l2-2h-7v-2s-0.947 0.316-2.089 0.696c-2.436 0.812-4.288 2.812-4.911 5.303v1e-3l-2 5 4 2 4 7v0.675c0 0.215-0.035 0.429-0.103 0.633-0.408 1.226-1.897 5.692-1.897 5.692h16z"/>
            <path d="m10 9v3l4 4s-2.376 0.634-4.453 1.187c-1.938 0.517-3.561 1.84-4.457 3.634-0.568 1.134-1.09 2.179-1.09 2.179s-0.884-2.651-1.476-4.429c-0.34-1.02-0.34-2.122 0-3.142 0.094-0.284 0.196-0.589 0.301-0.903 0.74-2.22 2.481-3.961 4.701-4.701 1.306-0.436 2.474-0.825 2.474-0.825z" stroke-linejoin="round"/>
            <path d="m5 19h2.58c0.919 0 1.809-0.316 2.522-0.896 1.184-0.962 2.898-2.354 2.898-2.354s0.205 0.026 0.484 0.061c0.895 0.111 1.604 0.808 1.732 1.701l0.784 5.488s-0.587 0.147-1.312 0.328c-1.705 0.426-3.512 0.083-4.943-0.938-2.046-1.462-4.745-3.39-4.745-3.39z"/>
        </g>
        <g id="emoji">
            <path d="m30 30v-12.23c0-1.813-0.493-3.591-1.425-5.145-0.774-1.29-1.575-2.625-1.575-2.625h2l-1.027-1.027c-1.263-1.263-2.977-1.973-4.763-1.973h-1.21l2-2h-7v-2s-0.947 0.316-2.089 0.696c-2.436 0.812-4.288 2.812-4.911 5.303v1e-3l-2 5 4 2 4 7v0.675c0 0.215-0.035 0.429-0.103 0.633-0.408 1.226-1.897 5.692-1.897 5.692h16z" fill="#2442c8"/>
            <path d="m20 11c0-1.105-0.895-2-2-2s-2 0.895-2 2 0.895 2 2 2 2-0.895 2-2z" fill="#ffde05"/>
            <circle cx="18" cy="11" r="1"/>
            <path d="m13 16h0.541c0.87 0 1.697 0.377 2.266 1.034 0.57 0.657 0.827 1.529 0.704 2.39-0.254 1.775-0.511 3.576-0.511 3.576h-3v-7z" fill="#ffde05"/>
            <path d="m10 9v0.929c0 1.326 0.527 2.598 1.464 3.535l2.536 2.536s-2.376 0.634-4.453 1.187c-1.938 0.517-3.561 1.84-4.457 3.634-0.568 1.134-1.09 2.179-1.09 2.179s-0.884-2.651-1.476-4.429c-0.34-1.02-0.34-2.122 0-3.142 0.094-0.284 0.196-0.589 0.301-0.903 0.74-2.22 2.481-3.961 4.701-4.701 1.306-0.436 2.474-0.825 2.474-0.825z" fill="#2e2f34"/>
            <path d="m5 19h2.58c0.919 0 1.809-0.316 2.522-0.896 1.184-0.962 2.898-2.354 2.898-2.354s0.205 0.026 0.484 0.061c0.895 0.111 1.604 0.808 1.732 1.701l0.784 5.488s-0.587 0.147-1.312 0.328c-1.705 0.426-3.512 0.083-4.943-0.938-2.046-1.462-4.745-3.39-4.745-3.39z" fill="#2e2f34"/>
        </g>
    </g>
</svg>
