<?xml version="1.0" encoding="UTF-8"?>
<!DOCTYPE svg  PUBLIC '-//W3C//DTD SVG 1.1//EN'  'http://www.w3.org/Graphics/SVG/1.1/DTD/svg11.dtd'>
<svg clip-rule="evenodd" fill-rule="evenodd" stroke-linecap="round" stroke-miterlimit="3" version="1.1" viewBox="0 0 32 32" xml:space="preserve" xmlns="http://www.w3.org/2000/svg">
<metadata>
<rdf:RDF xmlns:cc="http://web.resource.org/cc/" xmlns:dc="http://purl.org/dc/elements/1.1/" xmlns:rdf="http://www.w3.org/1999/02/22-rdf-syntax-ns#">

     <rdf:Description rdf:about="">
       <dc:title>Mutant Standard emoji 2023.12</dc:title>
     </rdf:Description>

    <cc:work rdf:about="">
        <cc:license rdf:resource="http://creativecommons.org/licenses/by-nc-sa/4.0/"/>
        <cc:attributionName>Caius Nocturne</cc:attributionName>
        <cc:attributionURL>http://mutant.tech/</cc:attributionURL>
    </cc:work>

</rdf:RDF>
</metadata>

    <rect id="pelican" width="32" height="32" fill="none"/>
    <clipPath id="_clip1">
        <rect width="32" height="32"/>
    </clipPath>
    <g clip-path="url(#_clip1)">
        <g id="outline" fill="none" stroke="#000" stroke-width="4px">
            <path d="m25.917 30h-7.917v-2.615c0-0.906 0.246-1.795 0.713-2.573 0.854-1.424 2.317-3.863 3.488-5.814 1.03-1.717 0.633-3.931-0.931-5.182-0.812-0.649-1.591-1.273-1.991-1.593-0.185-0.148-0.394-0.261-0.617-0.336-0.785-0.261-2.662-0.887-2.662-0.887v-1-1c0-1.857 0.737-3.637 2.05-4.95s3.093-2.05 4.95-2.05h1c1.591 0 3.117 0.632 4.243 1.757 1.125 1.126 1.757 2.652 1.757 4.243v8.344c0 1.741-0.454 3.451-1.318 4.962-0.689 1.207-1.502 2.629-2.051 3.589-0.414 0.725-0.64 1.542-0.657 2.377-0.025 1.171-0.057 2.728-0.057 2.728z"/>
            <path d="m2.075 26.962v-2.481c0-1.589 0.63-3.113 1.752-4.237 3.708-3.719 12.027-12.059 12.171-12.204 1e-3 -2e-3 3e-3 -3e-3 4e-3 -4e-3 0.048-0.049 0.998-0.998 0.998-0.998l3-1-2 3.962 5.345 5.345c0.37 0.37 0.393 0.961 0.053 1.358-0.342 0.4-0.804 0.938-1.313 1.534-2.657 3.102-6.215 5.299-10.179 6.283-4.495 1.117-9.831 2.442-9.831 2.442z" stroke-linejoin="round"/>
            <path d="m24 2h6l-3.038 3.038h-2.962v-3.038z" stroke-linejoin="round"/>
        </g>
        <g id="emoji">
            <path d="m25.917 30h-7.917v-2.615c0-0.906 0.246-1.795 0.713-2.573 0.854-1.424 2.317-3.863 3.488-5.814 1.03-1.717 0.633-3.931-0.931-5.182-0.812-0.649-1.591-1.273-1.991-1.593-0.185-0.148-0.394-0.261-0.617-0.336-0.785-0.261-2.662-0.887-2.662-0.887v-1-1c0-1.857 0.737-3.637 2.05-4.95s3.093-2.05 4.95-2.05h1c1.591 0 3.117 0.632 4.243 1.757 1.125 1.126 1.757 2.652 1.757 4.243v8.344c0 1.741-0.454 3.451-1.318 4.962-0.689 1.207-1.502 2.629-2.051 3.589-0.414 0.725-0.64 1.542-0.657 2.377-0.025 1.171-0.057 2.728-0.057 2.728z" fill="#fff"/>
            <path d="m15 10 2.505-2.505c1.598-1.598 3.764-2.495 6.023-2.495h0.472v1.929c0 1.326-0.527 2.598-1.464 3.535l-1.502 1.502-1.034 9e-3 -2 1.025-3-3z" fill="#d9a243"/>
            <path d="m2.075 26.962v-2.481c0-1.589 0.63-3.113 1.752-4.237 3.708-3.719 12.027-12.059 12.171-12.204 1e-3 -2e-3 3e-3 -3e-3 4e-3 -4e-3 0.048-0.049 0.998-0.998 0.998-0.998s0.378 1.121 0.67 1.983c0.214 0.635 0.634 1.179 1.193 1.547 0.886 0.583 2.137 1.407 2.137 1.407l5 2.025-1.973 1.973c-0.018 0.018-0.035 0.037-0.052 0.056-0.148 0.173-0.934 1.091-1.89 2.208-2.657 3.102-6.215 5.299-10.179 6.283-4.495 1.117-9.831 2.442-9.831 2.442z" fill="#d9a243"/>
            <clipPath id="_clip2">
                <path d="m2.075 26.962v-2.481c0-1.589 0.63-3.113 1.752-4.237 3.708-3.719 12.027-12.059 12.171-12.204 1e-3 -2e-3 3e-3 -3e-3 4e-3 -4e-3 0.048-0.049 0.998-0.998 0.998-0.998s0.378 1.121 0.67 1.983c0.214 0.635 0.634 1.179 1.193 1.547 0.886 0.583 2.137 1.407 2.137 1.407l5 2.025-1.973 1.973c-0.018 0.018-0.035 0.037-0.052 0.056-0.148 0.173-0.934 1.091-1.89 2.208-2.657 3.102-6.215 5.299-10.179 6.283-4.495 1.117-9.831 2.442-9.831 2.442z"/>
            </clipPath>
            <g clip-path="url(#_clip2)">
                <path d="m23 11.975s-5.455 1.841-7.853 2.651c-0.73 0.246-1.392 0.657-1.937 1.202-2.708 2.708-11.135 11.134-11.135 11.134" fill="none" stroke="#ac5c23" stroke-linejoin="round" stroke-width="2px"/>
            </g>
            <path d="m24 2h6l-3.038 3.038h-2.962v-3.038z" fill="#fff"/>
            <path d="m23 7h-1c-0.53 0-1.039 0.211-1.414 0.586s-0.586 0.884-0.586 1.414v1h1c0.53 0 1.039-0.211 1.414-0.586s0.586-0.884 0.586-1.414v-1z"/>
        </g>
    </g>
</svg>
