<?xml version="1.0" encoding="UTF-8"?>
<!DOCTYPE svg  PUBLIC '-//W3C//DTD SVG 1.1//EN'  'http://www.w3.org/Graphics/SVG/1.1/DTD/svg11.dtd'>
<svg clip-rule="evenodd" fill-rule="evenodd" stroke-linecap="round" stroke-miterlimit="3" version="1.1" viewBox="0 0 32 32" xml:space="preserve" xmlns="http://www.w3.org/2000/svg">
<metadata>
<rdf:RDF xmlns:cc="http://web.resource.org/cc/" xmlns:dc="http://purl.org/dc/elements/1.1/" xmlns:rdf="http://www.w3.org/1999/02/22-rdf-syntax-ns#">

     <rdf:Description rdf:about="">
       <dc:title>Mutant Standard emoji 2023.12</dc:title>
     </rdf:Description>

    <cc:work rdf:about="">
        <cc:license rdf:resource="http://creativecommons.org/licenses/by-nc-sa/4.0/"/>
        <cc:attributionName>Caius Nocturne</cc:attributionName>
        <cc:attributionURL>http://mutant.tech/</cc:attributionURL>
    </cc:work>

</rdf:RDF>
</metadata>

    <rect id="penguin" width="32" height="32" fill="none"/>
    <clipPath id="_clip1">
        <rect width="32" height="32"/>
    </clipPath>
    <g clip-path="url(#_clip1)">
        <g id="outline" fill="none" stroke="#000" stroke-width="4px">
            <path d="m30 19h-13s-1.412 1.765-2.558 3.197c-0.933 1.167-1.442 2.617-1.442 4.111v3.692h17v-11z"/>
            <path d="m30 13s-1.548-2.477-2.921-4.674c-1.293-2.069-3.561-3.326-6.001-3.326h-0.604c-2.224 0-4.358 0.884-5.931 2.457l-1.882 1.882c-0.432 0.432-0.977 0.731-1.573 0.864-1.582 0.351-4.846 1.077-6.708 1.49-0.901 0.201-1.727 0.654-2.38 1.307l7.028 1.757c0.645 0.161 1.265 0.41 1.842 0.74 1.875 1.072 6.13 3.503 6.13 3.503h13v-6z" stroke-linejoin="round"/>
        </g>
        <g id="emoji">
            <path d="m30 13s-1.548-2.477-2.921-4.674c-1.293-2.069-3.561-3.326-6.001-3.326h-0.604c-2.224 0-4.358 0.884-5.931 2.457l-1.882 1.882c-0.432 0.432-0.977 0.731-1.573 0.864-1.582 0.351-4.846 1.077-6.708 1.49-0.901 0.201-1.727 0.654-2.38 1.307l7.028 1.757c0.645 0.161 1.265 0.41 1.842 0.74 1.875 1.072 6.13 3.503 6.13 3.503s-1.412 1.765-2.558 3.197c-0.933 1.167-1.442 2.617-1.442 4.111v3.692h17v-17z" fill="#343434"/>
            <clipPath id="_clip2">
                <path d="m30 13s-1.548-2.477-2.921-4.674c-1.293-2.069-3.561-3.326-6.001-3.326h-0.604c-2.224 0-4.358 0.884-5.931 2.457l-1.882 1.882c-0.432 0.432-0.977 0.731-1.573 0.864-1.582 0.351-4.846 1.077-6.708 1.49-0.901 0.201-1.727 0.654-2.38 1.307l7.028 1.757c0.645 0.161 1.265 0.41 1.842 0.74 1.875 1.072 6.13 3.503 6.13 3.503s-1.412 1.765-2.558 3.197c-0.933 1.167-1.442 2.617-1.442 4.111v3.692h17v-17z"/>
            </clipPath>
            <g clip-path="url(#_clip2)">
                <path d="m17 19s1.459 0.292 2.801 0.56c1.256 0.251 2.503-0.472 2.908-1.687 0.075-0.225 0.124-0.373 0.124-0.373l0.167 3.5-1.342 0.671c-1.016 0.508-1.658 1.547-1.658 2.683v0.521c0 1.398 0.325 2.776 0.95 4.025l1.05 2.1h-10v-12h5z" fill="#fff"/>
                <path d="m22.731 17.808c-0.232 0.694-0.733 1.267-1.391 1.588-0.834 0.406-2.039 0.994-3.094 1.508-1.374 0.671-2.246 2.066-2.246 3.595v0.853c0 0.172 0.068 0.337 0.19 0.458 0.121 0.122 0.286 0.19 0.458 0.19h5e-3c0.217 0 0.419-0.108 0.539-0.288 0.279-0.418 0.805-1.208 1.219-1.828 0.386-0.579 0.917-1.048 1.539-1.359 1.947-0.974 6.362-3.181 8.211-4.105 0.514-0.258 0.839-0.783 0.839-1.358v-2e-3c0-0.64-0.39-1.216-0.984-1.454-0.584-0.233-1.345-0.537-2.047-0.818-0.511-0.205-1.084-0.189-1.584 0.042-0.5 0.232-0.882 0.66-1.056 1.182-0.205 0.615-0.422 1.267-0.598 1.796z" fill="#dd7b1a"/>
                <clipPath id="_clip3">
                    <path d="m22.731 17.808c-0.232 0.694-0.733 1.267-1.391 1.588-0.834 0.406-2.039 0.994-3.094 1.508-1.374 0.671-2.246 2.066-2.246 3.595v0.853c0 0.172 0.068 0.337 0.19 0.458 0.121 0.122 0.286 0.19 0.458 0.19h5e-3c0.217 0 0.419-0.108 0.539-0.288 0.279-0.418 0.805-1.208 1.219-1.828 0.386-0.579 0.917-1.048 1.539-1.359 1.947-0.974 6.362-3.181 8.211-4.105 0.514-0.258 0.839-0.783 0.839-1.358v-2e-3c0-0.64-0.39-1.216-0.984-1.454-0.584-0.233-1.345-0.537-2.047-0.818-0.511-0.205-1.084-0.189-1.584 0.042-0.5 0.232-0.882 0.66-1.056 1.182-0.205 0.615-0.422 1.267-0.598 1.796z"/>
                </clipPath>
                <g clip-path="url(#_clip3)">
                    <path d="m22 18 9-3.857v12.857h-16v-9h7z" fill="#f0c33a"/>
                </g>
                <path d="m5 14.5h1.879c1.358 0 2.66-0.539 3.621-1.5h-8.5l3 1.5z" fill="#dd7b1a"/>
                <path d="m0 13h9.307c0.461 0 0.921 0.046 1.373 0.136 1.367 0.273 4.32 0.864 4.32 0.864" fill="none" stroke="#0e0e0e" stroke-width="1px"/>
            </g>
            <circle cx="19" cy="11" r="2" fill="#848484"/>
            <clipPath id="_clip4">
                <circle cx="19" cy="11" r="2"/>
            </clipPath>
            <g clip-path="url(#_clip4)">
                <circle cx="19" cy="11" r="1"/>
            </g>
        </g>
    </g>
</svg>
