<?xml version="1.0" encoding="UTF-8"?>
<!DOCTYPE svg  PUBLIC '-//W3C//DTD SVG 1.1//EN'  'http://www.w3.org/Graphics/SVG/1.1/DTD/svg11.dtd'>
<svg clip-rule="evenodd" fill-rule="evenodd" stroke-linecap="round" stroke-miterlimit="3" version="1.1" viewBox="0 0 32 32" xml:space="preserve" xmlns="http://www.w3.org/2000/svg">
<metadata>
<rdf:RDF xmlns:cc="http://web.resource.org/cc/" xmlns:dc="http://purl.org/dc/elements/1.1/" xmlns:rdf="http://www.w3.org/1999/02/22-rdf-syntax-ns#">

     <rdf:Description rdf:about="">
       <dc:title>Mutant Standard emoji 2023.12</dc:title>
     </rdf:Description>

    <cc:work rdf:about="">
        <cc:license rdf:resource="http://creativecommons.org/licenses/by-nc-sa/4.0/"/>
        <cc:attributionName>Caius Nocturne</cc:attributionName>
        <cc:attributionURL>http://mutant.tech/</cc:attributionURL>
    </cc:work>

</rdf:RDF>
</metadata>

    <rect id="pigeon" width="32" height="32" fill="none"/>
    <clipPath id="_clip1">
        <rect width="32" height="32"/>
    </clipPath>
    <g clip-path="url(#_clip1)">
        <g id="outline" fill="none" stroke="#000" stroke-width="4px">
            <path d="m29 30s-0.616-8.313-1.164-15.713c-0.212-2.859-1.64-5.49-3.923-7.224s-5.2-2.406-8.011-1.843c-0.022 4e-3 -0.044 8e-3 -0.065 0.013-2.421 0.484-4.483 2.059-5.587 4.267l-2.25 4.5s2.334 0.778 4.625 1.542c1.1 0.366 1.987 1.192 2.43 2.264 0.444 1.071 0.401 2.282-0.118 3.319-0.118 0.238-0.237 0.475-0.353 0.708-1.042 2.083-1.584 4.379-1.584 6.708v1.459h16z"/>
            <path d="m10 10 2 3-0.447 0.894c-0.339 0.678-1.032 1.106-1.789 1.106h-6.764l1.353-1.353c0.43-0.43 0.911-0.805 1.432-1.118 1.407-0.844 4.215-2.529 4.215-2.529z" stroke-linejoin="round"/>
        </g>
        <g id="emoji">
            <path d="m29 30s-0.616-8.313-1.164-15.713c-0.212-2.859-1.64-5.49-3.923-7.224s-5.2-2.406-8.011-1.843c-0.022 4e-3 -0.044 8e-3 -0.065 0.013-2.421 0.484-4.483 2.059-5.587 4.267l-2.25 4.5s2.334 0.778 4.625 1.542c1.1 0.366 1.987 1.192 2.43 2.264 0.444 1.071 0.401 2.282-0.118 3.319-0.118 0.238-0.237 0.475-0.353 0.708-1.042 2.083-1.584 4.379-1.584 6.708v1.459h16z" fill="#616a83"/>
            <clipPath id="_clip2">
                <path d="m29 30s-0.616-8.313-1.164-15.713c-0.212-2.859-1.64-5.49-3.923-7.224s-5.2-2.406-8.011-1.843c-0.022 4e-3 -0.044 8e-3 -0.065 0.013-2.421 0.484-4.483 2.059-5.587 4.267l-2.25 4.5s2.334 0.778 4.625 1.542c1.1 0.366 1.987 1.192 2.43 2.264 0.444 1.071 0.401 2.282-0.118 3.319-0.118 0.238-0.237 0.475-0.353 0.708-1.042 2.083-1.584 4.379-1.584 6.708v1.459h16z"/>
            </clipPath>
            <g clip-path="url(#_clip2)">
                <path d="m30 28h-6l-13 3 0.25-5 12.75-4.5 6 0.5v6z" fill="#8e6595"/>
                <path d="m12 23s6.146-3.309 9.986-5.377c1.789-0.963 3.998-0.639 5.434 0.797l1.58 1.58v6h-4l-1.034-1.034c-1.199-1.199-2.985-1.595-4.579-1.016-3.253 1.183-8.387 3.05-8.387 3.05l1-4z" fill="#659581"/>
            </g>
            <circle cx="17" cy="11" r="2" fill="#de742e"/>
            <circle cx="17" cy="11" r="1"/>
            <path d="m10 10h0.109c0.532 0 1.004 0.34 1.173 0.845 0.295 0.887 0.718 2.155 0.718 2.155s-4.533 0.755-5.719 0.953c-0.187 0.031-0.371 0.077-0.551 0.137-0.738 0.246-2.73 0.91-2.73 0.91l1.353-1.353c0.43-0.43 0.911-0.805 1.432-1.118 1.407-0.844 4.215-2.529 4.215-2.529z" fill="#2e2f34"/>
            <clipPath id="_clip3">
                <path d="m10 10h0.109c0.532 0 1.004 0.34 1.173 0.845 0.295 0.887 0.718 2.155 0.718 2.155s-4.533 0.755-5.719 0.953c-0.187 0.031-0.371 0.077-0.551 0.137-0.738 0.246-2.73 0.91-2.73 0.91l1.353-1.353c0.43-0.43 0.911-0.805 1.432-1.118 1.407-0.844 4.215-2.529 4.215-2.529z"/>
            </clipPath>
            <g clip-path="url(#_clip3)">
                <path d="m6 10s3.142 2.514 4.445 3.556c0.351 0.281 0.555 0.706 0.555 1.155v0.164l5 0.125v-7h-7l-3 2z" fill="#eeeeec"/>
            </g>
            <path d="m3 15 3-2h6l-0.447 0.894c-0.339 0.678-1.032 1.106-1.789 1.106h-0.764-6z" fill="#2e2f34"/>
        </g>
    </g>
</svg>
