<?xml version="1.0" encoding="UTF-8"?>
<!DOCTYPE svg  PUBLIC '-//W3C//DTD SVG 1.1//EN'  'http://www.w3.org/Graphics/SVG/1.1/DTD/svg11.dtd'>
<svg clip-rule="evenodd" fill-rule="evenodd" stroke-linecap="round" stroke-miterlimit="3" version="1.1" viewBox="0 0 32 32" xml:space="preserve" xmlns="http://www.w3.org/2000/svg">
<metadata>
<rdf:RDF xmlns:cc="http://web.resource.org/cc/" xmlns:dc="http://purl.org/dc/elements/1.1/" xmlns:rdf="http://www.w3.org/1999/02/22-rdf-syntax-ns#">

     <rdf:Description rdf:about="">
       <dc:title>Mutant Standard emoji 2023.12</dc:title>
     </rdf:Description>

    <cc:work rdf:about="">
        <cc:license rdf:resource="http://creativecommons.org/licenses/by-nc-sa/4.0/"/>
        <cc:attributionName>Caius Nocturne</cc:attributionName>
        <cc:attributionURL>http://mutant.tech/</cc:attributionURL>
    </cc:work>

</rdf:RDF>
</metadata>

    <rect id="rooster" width="32" height="32" fill="none"/>
    <clipPath id="_clip1">
        <rect width="32" height="32"/>
    </clipPath>
    <g clip-path="url(#_clip1)">
        <g id="outline" fill="none" stroke="#000" stroke-width="4px">
            <path d="m29 30s-1.107-6.644-2.157-12.94c-0.483-2.9-2.122-5.48-4.541-7.15-2.42-1.67-5.414-2.288-8.296-1.711-0.183 0.036-0.361 0.072-0.536 0.107-2.189 0.438-4.054 1.862-5.053 3.859-0.721 1.443-1.417 2.835-1.417 2.835l6 3s0.861 0.574 1.66 1.107c0.766 0.51 1.031 1.51 0.62 2.333-0.27 0.539-0.586 1.171-0.895 1.79-0.911 1.822-1.385 3.83-1.385 5.867v0.903h16z"/>
            <path d="m8 12 3 5s-0.991-0.495-1.578-0.789c-0.277-0.139-0.584-0.211-0.894-0.211h-5.528l1.48-1.48c0.346-0.346 0.725-0.657 1.132-0.928 0.878-0.585 2.388-1.592 2.388-1.592z"/>
            <path d="m8 13v-1.895c0-1.363 0.464-2.685 1.315-3.748 1.166-1.458 2.685-3.357 2.685-3.357v2s0.041-0.081 0.106-0.211c0.58-1.161 1.522-2.103 2.683-2.683 0.13-0.065 0.211-0.106 0.211-0.106v2c0.64-1.281 1.763-2.254 3.121-2.707 0.494-0.165 0.879-0.293 0.879-0.293v4s0.041-0.081 0.106-0.211c0.548-1.096 1.668-1.789 2.894-1.789v2l0.293-0.293c0.453-0.453 1.067-0.707 1.707-0.707v1c0 0.649-0.211 1.281-0.6 1.8-0.875 1.167-2.4 3.2-2.4 3.2h-11v2h-2z" stroke-linejoin="round"/>
            <path d="m10 17v1.169c0 0.544-0.148 1.077-0.428 1.544-0.38 0.633-0.952 1.587-1.461 2.435-0.286 0.478-0.361 1.053-0.205 1.588s0.527 0.981 1.026 1.23c0.137 0.069 0.276 0.138 0.411 0.206 0.935 0.467 2.072 0.136 2.61-0.76 0.878-1.464 2.047-3.412 2.047-3.412h3v-4h-7z" stroke-linejoin="round"/>
        </g>
        <g id="emoji">
            <path d="m8 13v-1.895c0-1.363 0.464-2.685 1.315-3.748 1.166-1.458 2.685-3.357 2.685-3.357v2s0.041-0.081 0.106-0.211c0.58-1.161 1.522-2.103 2.683-2.683 0.13-0.065 0.211-0.106 0.211-0.106v2c0.64-1.281 1.763-2.254 3.121-2.707 0.494-0.165 0.879-0.293 0.879-0.293v4s0.041-0.081 0.106-0.211c0.548-1.096 1.668-1.789 2.894-1.789v2l0.293-0.293c0.453-0.453 1.067-0.707 1.707-0.707v1c0 0.649-0.211 1.281-0.6 1.8-0.875 1.167-2.4 3.2-2.4 3.2h-11v2h-2z" fill="#d4211e"/>
            <path d="m29 30s-1.107-6.644-2.157-12.94c-0.483-2.9-2.122-5.48-4.541-7.15-2.42-1.67-5.414-2.288-8.296-1.711-0.183 0.036-0.361 0.072-0.536 0.107-2.189 0.438-4.054 1.862-5.053 3.859-0.721 1.443-1.417 2.835-1.417 2.835s4.863 2.432 5.833 2.916c0.111 0.056 0.219 0.119 0.322 0.188 0.284 0.189 0.912 0.607 1.505 1.003 0.766 0.51 1.031 1.51 0.62 2.333-0.27 0.539-0.586 1.171-0.895 1.79-0.911 1.822-1.385 3.83-1.385 5.867v0.903h16z" fill="#8a4714"/>
            <clipPath id="_clip2">
                <path d="m29 30s-1.107-6.644-2.157-12.94c-0.483-2.9-2.122-5.48-4.541-7.15-2.42-1.67-5.414-2.288-8.296-1.711-0.183 0.036-0.361 0.072-0.536 0.107-2.189 0.438-4.054 1.862-5.053 3.859-0.721 1.443-1.417 2.835-1.417 2.835s4.863 2.432 5.833 2.916c0.111 0.056 0.219 0.119 0.322 0.188 0.284 0.189 0.912 0.607 1.505 1.003 0.766 0.51 1.031 1.51 0.62 2.333-0.27 0.539-0.586 1.171-0.895 1.79-0.911 1.822-1.385 3.83-1.385 5.867v0.903h16z"/>
            </clipPath>
            <g clip-path="url(#_clip2)">
                <path d="m11 28 4-4v4l6-6v4l5-5v4l4-4v11h-25v-4h2l4-4v4z" fill="#ca6315"/>
                <path d="m5 9h6v1c0 1.105 0.895 2 2 2h2.637c0.627 0 1.228 0.249 1.671 0.692s0.692 1.044 0.692 1.671v0.079c0 0.367-0.085 0.729-0.249 1.057-0.352 0.702-0.993 1.986-1.395 2.788-0.233 0.467-0.584 0.865-1.019 1.155-0.883 0.589-2.337 1.558-2.337 1.558l-8-4v-8z" fill="#d4211e"/>
            </g>
            <circle cx="14" cy="14" r="2" fill="#de742e"/>
            <circle cx="14" cy="14" r="1"/>
            <path d="m10 16v2.169c0 0.544-0.148 1.077-0.428 1.544-0.38 0.633-0.952 1.587-1.461 2.435-0.286 0.478-0.361 1.053-0.205 1.588s0.527 0.981 1.026 1.23c0.137 0.069 0.276 0.138 0.411 0.206 0.935 0.467 2.072 0.136 2.61-0.76 0.878-1.464 2.047-3.412 2.047-3.412l1.656-1.656c0.228-0.228 0.418-0.491 0.562-0.779 0.294-0.589 0.782-1.565 0.782-1.565l-7-1z" fill="#d4211e"/>
            <path d="m3 16 1.44-1.44c0.372-0.372 0.781-0.707 1.219-0.999 0.883-0.589 2.341-1.561 2.341-1.561l3 5s-0.991-0.495-1.578-0.789c-0.277-0.139-0.584-0.211-0.894-0.211h-5.528z" fill="#c8a031"/>
        </g>
    </g>
</svg>
