<?xml version="1.0" encoding="UTF-8"?>
<svg clip-rule="evenodd" fill-rule="evenodd" stroke-linecap="round" stroke-miterlimit="1.5" viewBox="0 0 32 32" xmlns="http://www.w3.org/2000/svg">
 <clipPath id="a">
  <path d="m0 0h32v32h-32z" clip-rule="evenodd"/>
 </clipPath>
 <path d="m0 0h32v32h-32z" fill="none"/>
 <g clip-path="url(#a)">
  <path d="m5.139 22.523c-1.344-1.823-2.139-4.077-2.139-6.517v-1.008c0-7.179 5.819-12.998 12.998-12.998h2e-3c7.18 0 13 5.82 13 13v1.006c0 2.44-0.795 4.694-2.139 6.517 0.203 0.097 0.391 0.229 0.553 0.391l1.172 1.172c0.375 0.375 0.586 0.884 0.586 1.414s-0.211 1.039-0.586 1.414l-1.851 1.851c-1.51 1.51-3.96 1.51-5.47 0l-1e-3 -1e-3c-0.547-0.547-0.903-1.244-1.034-1.989-0.718 0.147-1.462 0.225-2.224 0.225h-4.012c-0.762 0-1.506-0.078-2.224-0.225-0.131 0.745-0.487 1.442-1.034 1.989l-1e-3 1e-3c-1.51 1.51-3.96 1.51-5.47 0l-1.851-1.851c-0.375-0.375-0.586-0.884-0.586-1.414s0.211-1.039 0.586-1.414l1.172-1.172c0.162-0.162 0.35-0.294 0.553-0.391z" fill="#fbc546"/>
  <path d="m16 0c8.284 0 15 6.716 15 15v1.006c0 2.217-0.556 4.304-1.535 6.13l0.535 0.536c0.75 0.75 1.172 1.767 1.172 2.828s-0.422 2.078-1.172 2.828l-1.851 1.851c-2.291 2.292-6.007 2.292-8.298 0-1e-3 0-1e-3 0-1e-3 -1e-3 -0.365-0.364-0.674-0.772-0.924-1.211-0.304 0.022-0.611 0.033-0.92 0.033h-4.012c-0.309 0-0.616-0.011-0.92-0.033-0.25 0.439-0.559 0.847-0.924 1.211 0 1e-3 0 1e-3 -1e-3 1e-3 -2.291 2.292-6.007 2.292-8.298 0l-1.851-1.851c-0.75-0.75-1.172-1.767-1.172-2.828s0.422-2.078 1.172-2.828l0.535-0.536c-0.979-1.826-1.535-3.913-1.535-6.13v-1.008c0-8.283 6.715-14.998 14.998-14.998h2e-3z"/>
  <path d="m27.899 20.808c-1.312.709-3.147 4.819-6.899 4.786-3.144-.027-6.856-.027-10 0-3.752.033-6.165-4.222-6.899-4.786-.705-1.451-1.101-3.08-1.101-4.802v-1.008c0-.241.007-.48.019-.718.532-.215.305-.627.082-.909.8-6.411 6.269-11.371 12.897-11.371h.002c6.628 0 12.097 4.96 12.899 11.37-.472.21-.511.611.081.911.013.238.02.478.02.719v1.006c0 1.722-.396 3.351-1.101 4.802z" fill="#fbc546"/>
  <path d="m18.299 24.701-.089.801c-.056.503-.045 1.006.03 1.496-.078.001-.156.002-.234.002h-4.012c-.053 0-.106-.001-.16-.001-.017 0-.035-.001-.053-.001-.007 0-.019.006-.021 0-.005-.015.004-.031.007-.046.004-.031.008-.062.012-.093.014-.107.025-.216.032-.324.024-.344.016-.69-.021-1.033l-.089-.801.299.299h4zm5.483-3.701c-.218.145-.423.312-.61.5l-.672.672-.586-.586c-.042-.042-.086-.082-.131-.12.572-.303 1.215-.466 1.874-.466zm-15.564 0h.125c.659 0 1.302.163 1.874.466-.045.038-.089.078-.131.12l-.586.586-.672-.672c-.187-.188-.392-.355-.61-.5z" fill="#e59a10"/>
  <path d="m4.101 20.808c.578-.312 1.23-.48 1.899-.48 1.061 0 2.078.422 2.828 1.172l.672.672.586-.586c.543-.544 1.351-.728 2.076-.473.725.254 1.241.902 1.326 1.666l.302 2.723c.056.503.045 1.006-.03 1.496-4.251-.089-7.908-2.59-9.659-6.19zm14.139 6.19c-.075-.49-.086-.993-.03-1.496l.302-2.723c.085-.764.601-1.412 1.326-1.666.725-.255 1.533-.071 2.076.473l.586.586.672-.672c.75-.75 1.767-1.172 2.828-1.172.669 0 1.321.168 1.899.48-1.751 3.6-5.408 6.101-9.659 6.19z" fill="#7e5108"/>
  <path d="m7.293 11.207c.39.391 1.024.391 1.414 0 .001-.001.001-.001.001-.001.475-.475 1.12-.742 1.792-.742s1.317.267 1.792.742c0 0 0 .001.002.002.187.187.441.292.706.292s.519-.105.706-.292c.001 0 .001-.001.001-.001.391-.39.391-1.024 0-1.414-.001-.001-.001-.001-.001-.001-.85-.85-2.004-1.328-3.206-1.328s-2.356.478-3.206 1.328c0 0-.001 0-.002.002-.187.187-.292.441-.292.706s.105.519.292.706c0 .001.001.001.001.001zm17.414 0c-.39.391-1.024.391-1.414 0-.001-.001-.001-.001-.001-.001-.475-.475-1.12-.742-1.792-.742s-1.317.267-1.792.742c0 0 0 .001-.002.002-.187.187-.441.292-.706.292s-.519-.105-.706-.292c-.001 0-.001-.001-.001-.001-.391-.39-.391-1.024 0-1.414.001-.001.001-.001.001-.001.85-.85 2.004-1.328 3.206-1.328s2.356.478 3.206 1.328c0 0 .001 0 .002.002.187.187.292.441.292.706s-.105.519-.292.706c0 .001-.001.001-.001.001z"/>
  <path d="m20.197 25.723c-0.124 1.123 0.268 2.242 1.067 3.041l1e-3 1e-3c1.51 1.51 3.96 1.51 5.47 0l1.851-1.851c0.375-0.375 0.586-0.884 0.586-1.414s-0.211-1.039-0.586-1.414l-1.172-1.172c-0.375-0.375-0.884-0.586-1.414-0.586s-1.039 0.211-1.414 0.586l-2.086 2.086-2-2s-0.163 1.465-0.303 2.723zm-8.394 0c0.124 1.123-0.268 2.242-1.067 3.041l-1e-3 1e-3c-1.51 1.51-3.96 1.51-5.47 0l-1.851-1.851c-0.375-0.375-0.586-0.884-0.586-1.414s0.211-1.039 0.586-1.414l1.172-1.172c0.375-0.375 0.884-0.586 1.414-0.586s1.039 0.211 1.414 0.586l2.086 2.086 2-2s0.163 1.465 0.303 2.723z" fill="#fbc546"/>
  <path d="m28.98 14.281c-0.136 0.971-0.971 1.719-1.98 1.719h-4c-1.105 0-2-0.895-2-2s0.895-2 2-2h4c0.885 0 1.635 0.574 1.899 1.37 0.037 0.301 0.065 0.604 0.081 0.911zm-25.879-0.91c0.263-0.796 1.014-1.371 1.899-1.371h4c1.105 0 2 0.895 2 2s-0.895 2-2 2h-4c-1.009 0-1.844-0.748-1.981-1.72 0.017-0.306 0.044-0.609 0.082-0.909z" fill="#ed6b44"/>
  <path d="m10 15s0.385 0.385 0.879 0.879c1.358 1.358 3.2 2.121 5.121 2.121s3.763-0.763 5.121-2.121l0.879-0.879" fill="none" stroke="#593604" stroke-width="2"/>
 </g>
</svg>
