<?xml version="1.0" encoding="UTF-8"?>
<!DOCTYPE svg  PUBLIC '-//W3C//DTD SVG 1.1//EN'  'http://www.w3.org/Graphics/SVG/1.1/DTD/svg11.dtd'>
<svg clip-rule="evenodd" fill-rule="evenodd" stroke-linecap="round" stroke-linejoin="round" stroke-miterlimit="1.5" version="1.1" viewBox="0 0 32 32" xml:space="preserve" xmlns="http://www.w3.org/2000/svg">
<metadata>
<rdf:RDF xmlns:cc="http://web.resource.org/cc/" xmlns:dc="http://purl.org/dc/elements/1.1/" xmlns:rdf="http://www.w3.org/1999/02/22-rdf-syntax-ns#">

     <rdf:Description rdf:about="">
       <dc:title>Mutant Standard emoji 2023.12</dc:title>
     </rdf:Description>

    <cc:work rdf:about="">
        <cc:license rdf:resource="http://creativecommons.org/licenses/by-nc-sa/4.0/"/>
        <cc:attributionName>Caius Nocturne</cc:attributionName>
        <cc:attributionURL>http://mutant.tech/</cc:attributionURL>
    </cc:work>

</rdf:RDF>
</metadata>

    <rect id="bath_with_person" width="32" height="32" fill="none"/>
    <clipPath id="_clip1">
        <rect width="32" height="32"/>
    </clipPath>
    <g clip-path="url(#_clip1)">
        <g id="outline" fill="none" stroke="#000">
            <path d="m7.5 12c-1.459 0-2.858 0.579-3.889 1.611-1.032 1.031-1.611 2.43-1.611 3.889v4.139c0 1.553 0.361 3.084 1.056 4.472 0.093 0.187 0.189 0.379 0.286 0.572 1.016 2.033 3.094 3.317 5.366 3.317h14.584c2.272 0 4.35-1.284 5.366-3.317 0.097-0.193 0.193-0.385 0.286-0.572 0.695-1.388 1.056-2.919 1.056-4.472v-4.139c0-1.459-0.579-2.858-1.611-3.889-1.031-1.032-2.43-1.611-3.889-1.611h-17z" stroke-width="4px"/>
            <path d="m5 14v-7c0-0.53 0.211-1.039 0.586-1.414s0.884-0.586 1.414-0.586 1.039 0.211 1.414 0.586 0.586 0.884 0.586 1.414v1" stroke-linecap="square" stroke-width="6px"/>
            <path d="m26 9.998c0-0.795-0.316-1.558-0.878-2.12s-1.325-0.878-2.12-0.878h-4e-3c-0.795 0-1.558 0.316-2.12 0.878s-0.878 1.325-0.878 2.12v2.004c0 0.795 0.316 1.558 0.878 2.12s1.325 0.878 2.12 0.878h4e-3c0.795 0 1.558-0.316 2.12-0.878s0.878-1.325 0.878-2.12v-2.004z" stroke-width="4px"/>
        </g>
        <g id="emoji">
            <path d="m5 14v-7c0-0.53 0.211-1.039 0.586-1.414s0.884-0.586 1.414-0.586 1.039 0.211 1.414 0.586 0.586 0.884 0.586 1.414v1" fill="none" stroke="#999" stroke-linecap="square" stroke-width="2px"/>
            
                
                    <path d="m30 18v3.639c0 1.553-0.361 3.084-1.056 4.472-0.093 0.187-0.189 0.379-0.286 0.572-1.016 2.033-3.094 3.317-5.366 3.317h-14.584c-2.272 0-4.35-1.284-5.366-3.317-0.097-0.193-0.193-0.385-0.286-0.572-0.695-1.388-1.056-2.919-1.056-4.472v-3.639c0 2.761 28 2.761 28 0z" fill="#ccc"/>
                    <path d="m2 18.002v-0.502c0-1.459 0.579-2.858 1.611-3.889 1.031-1.032 2.43-1.611 3.889-1.611h17c1.459 0 2.858 0.579 3.889 1.611 1.032 1.031 1.611 2.43 1.611 3.889v0.5c0 2.761-2.239 5-5 5h-18.002c-2.76 0-4.998-2.238-4.998-4.998z" fill="#fff"/>
                
                
                    <path d="m3.067 18.272c-0.044-0.253-0.067-0.511-0.067-0.772 0-1.193 0.474-2.338 1.318-3.182s1.989-1.318 3.182-1.318h17c1.193 0 2.338 0.474 3.182 1.318s1.318 1.989 1.318 3.182c0 0.261-0.023 0.519-0.067 0.772-0.146-0.79-25.72-0.79-25.866 0z" fill="#aeaeae"/>
                    <path d="m3.067 18.272c0.146-0.79 0.528-1.524 1.105-2.1 0.75-0.751 1.767-1.172 2.828-1.172h18c1.061 0 2.078 0.421 2.828 1.172 0.577 0.576 0.959 1.31 1.105 2.1-0.158 0.907-0.591 1.75-1.251 2.41-0.844 0.844-1.989 1.318-3.182 1.318h-17c-1.193 0-2.338-0.474-3.182-1.318-0.66-0.66-1.093-1.503-1.251-2.41z" fill="#3389ec"/>
                
            
            <path d="m21.5 14.599c-0.225-0.13-0.435-0.29-0.622-0.477-0.562-0.562-0.878-1.325-0.878-2.12v-2.004c0-0.795 0.316-1.558 0.878-2.12s1.325-0.878 2.12-0.878h4e-3c0.795 0 1.558 0.316 2.12 0.878s0.878 1.325 0.878 2.12v2.004c0 0.795-0.316 1.558-0.878 2.12-0.187 0.187-0.397 0.347-0.622 0.477v0.412c1.401 0.125 2.5 1.303 2.5 2.737v2e-3c0 1.519-1.231 2.75-2.75 2.75h-5.638c-0.89 0-1.612-0.722-1.612-1.612v-2e-3c0-1.031 0.409-2.019 1.138-2.748s1.717-1.138 2.748-1.138h0.614v-0.401z" fill="#616161"/>
        </g>
    </g>
</svg>
