<?xml version="1.0" encoding="UTF-8"?>
<svg clip-rule="evenodd" fill-rule="evenodd" stroke-linecap="round" stroke-linejoin="round" stroke-miterlimit="2" viewBox="0 0 32 32" xmlns="http://www.w3.org/2000/svg">
 <clipPath id="a">
  <path d="m32 32v-32h-32v32z" clip-rule="evenodd"/>
 </clipPath>
 <path d="m32 32v-32h-32v32z" fill="none"/>
 <g clip-path="url(#a)">
  <path d="m29 23.125v2c0 2.691-5.825 4.875-13 4.875s-13-2.184-13-4.875v-2c0-1.56 1.957-2.949 5-3.842v-11.283c0-1.417 2.626-2.606 6.152-2.919l1.848-3.081 1.848 3.081c3.526.313 6.152 1.502 6.152 2.919v11.283c3.043.893 5 2.282 5 3.842z" fill="none" stroke="#000" stroke-width="4"/>
  <path d="m4.143 23.125c2.037-1.694 21.677-1.694 23.714 0h1.143v2c0 2.691-5.825 4.875-13 4.875s-13-2.184-13-4.875v-2z" fill="#737373"/>
  <ellipse cx="16" cy="23.125" rx="13" ry="4.875" fill="#a6a6a6"/>
  <path d="m24 23h-.007c.005.041.007.083.007.125 0 1.656-3.585 3-8 3s-8-1.344-8-3c0-.042.002-.084.007-.125h-.007v-9h16z" fill="#ead9c1"/>
  <path d="m24 14c0 1.656-3.585 3-8 3s-8-1.344-8-3v-6h16z" fill="#f4ebdd"/>
  <ellipse cx="16" cy="8" rx="8" ry="3" fill="#f9f4ec"/>
  <ellipse cx="16" cy="8" rx="4.571" ry="1.714" fill="#f0e5d4"/>
  <path d="m16 9s-0.693-0.462-1.413-0.942c-0.889-0.592-1.155-1.778-0.606-2.693 0.875-1.459 2.019-3.365 2.019-3.365s1.144 1.906 2.019 3.365c0.549 0.915 0.283 2.101-0.606 2.693l-1.413 0.942z" fill="#f5a608"/>
  <path d="m16 8s0 0-.001 0c-.551-.241-.961-.722-1.111-1.304-.151-.582-.027-1.201.338-1.68.425-.558.774-1.016.774-1.016s.349.458.774 1.016c.365.479.489 1.098.338 1.68-.15.582-.56 1.063-1.111 1.304-.001 0-.001 0-.001 0z" fill="#ffdb93"/>
 </g>
</svg>
