<?xml version="1.0" encoding="UTF-8"?>
<!DOCTYPE svg  PUBLIC '-//W3C//DTD SVG 1.1//EN'  'http://www.w3.org/Graphics/SVG/1.1/DTD/svg11.dtd'>
<svg clip-rule="evenodd" fill-rule="evenodd" stroke-linecap="round" stroke-linejoin="round" stroke-miterlimit="2" version="1.1" viewBox="0 0 32 32" xml:space="preserve" xmlns="http://www.w3.org/2000/svg">
<metadata>
<rdf:RDF xmlns:cc="http://web.resource.org/cc/" xmlns:dc="http://purl.org/dc/elements/1.1/" xmlns:rdf="http://www.w3.org/1999/02/22-rdf-syntax-ns#">

     <rdf:Description rdf:about="">
       <dc:title>Mutant Standard emoji 2023.12</dc:title>
     </rdf:Description>

    <cc:work rdf:about="">
        <cc:license rdf:resource="http://creativecommons.org/licenses/by-nc-sa/4.0/"/>
        <cc:attributionName>Caius Nocturne</cc:attributionName>
        <cc:attributionURL>http://mutant.tech/</cc:attributionURL>
    </cc:work>

</rdf:RDF>
</metadata>

    <path id="candle" d="m32 32v-32h-32v32h32z" fill="none"/>
    <clipPath id="_clip1">
        <path d="m32 32v-32h-32v32h32z"/>
    </clipPath>
    <g clip-path="url(#_clip1)">
        <g id="outline">
            <path d="m29 23.125v2c0 2.691-5.825 4.875-13 4.875s-13-2.184-13-4.875v-2c0-1.56 1.957-2.949 5-3.842v-11.283c0-1.417 2.626-2.606 6.152-2.919l1.848-3.081 1.848 3.081c3.526 0.313 6.152 1.502 6.152 2.919v11.283c3.043 0.893 5 2.282 5 3.842z" fill="none" stroke="#000" stroke-width="4px"/>
        </g>
        <g id="emoji">
            
                <path d="m4.143 23.125c2.037-1.694 21.677-1.694 23.714 0h1.143v2c0 2.691-5.825 4.875-13 4.875s-13-2.184-13-4.875v-2h1.143z" fill="#737373"/>
                <ellipse cx="16" cy="23.125" rx="13" ry="4.875" fill="#a6a6a6"/>
            
            <path d="m24 23h-7e-3c5e-3 0.041 7e-3 0.083 7e-3 0.125 0 1.656-3.585 3-8 3s-8-1.344-8-3c0-0.042 2e-3 -0.084 7e-3 -0.125h-7e-3v-9h16v9z" fill="#ead9c1"/>
            <path d="m24 14c0 1.656-3.585 3-8 3s-8-1.344-8-3v-6h16v6z" fill="#f4ebdd"/>
            <ellipse cx="16" cy="8" rx="8" ry="3" fill="#f9f4ec"/>
            <ellipse cx="16" cy="8" rx="4.571" ry="1.714" fill="#f0e5d4"/>
            <path d="m16 9-1.413-0.942c-0.889-0.592-1.155-1.778-0.606-2.693 0.875-1.459 2.019-3.365 2.019-3.365s1.144 1.906 2.019 3.365c0.549 0.915 0.283 2.101-0.606 2.693l-1.413 0.942z" fill="#f5a608"/>
            <path d="m16 8h-1e-3c-0.551-0.241-0.961-0.722-1.111-1.304-0.151-0.582-0.027-1.201 0.338-1.68 0.425-0.558 0.774-1.016 0.774-1.016s0.349 0.458 0.774 1.016c0.365 0.479 0.489 1.098 0.338 1.68-0.15 0.582-0.56 1.063-1.111 1.304h-1e-3z" fill="#ffdb93"/>
        </g>
    </g>
</svg>
