<?xml version="1.0" encoding="UTF-8"?>
<!DOCTYPE svg  PUBLIC '-//W3C//DTD SVG 1.1//EN'  'http://www.w3.org/Graphics/SVG/1.1/DTD/svg11.dtd'>
<svg clip-rule="evenodd" fill-rule="evenodd" stroke-linecap="round" stroke-linejoin="round" stroke-miterlimit="1.5" version="1.1" viewBox="0 0 32 32" xml:space="preserve" xmlns="http://www.w3.org/2000/svg">
<metadata>
<rdf:RDF xmlns:cc="http://web.resource.org/cc/" xmlns:dc="http://purl.org/dc/elements/1.1/" xmlns:rdf="http://www.w3.org/1999/02/22-rdf-syntax-ns#">

     <rdf:Description rdf:about="">
       <dc:title>Mutant Standard emoji 2023.12</dc:title>
     </rdf:Description>

    <cc:work rdf:about="">
        <cc:license rdf:resource="http://creativecommons.org/licenses/by-nc-sa/4.0/"/>
        <cc:attributionName>Caius Nocturne</cc:attributionName>
        <cc:attributionURL>http://mutant.tech/</cc:attributionURL>
    </cc:work>

</rdf:RDF>
</metadata>

    <rect id="light_bulb" width="32" height="32" fill="none"/>
    <clipPath id="_clip1">
        <rect width="32" height="32"/>
    </clipPath>
    <g clip-path="url(#_clip1)">
        <g id="outline">
            <path d="m12 22.172c0-1.403-0.492-2.763-1.391-3.841-0.497-0.597-1.068-1.282-1.606-1.928-1.294-1.553-2.003-3.51-2.003-5.531v-2e-3c0-4.899 3.971-8.87 8.87-8.87h0.26c4.899 0 8.87 3.971 8.87 8.87v2e-3c0 2.021-0.709 3.978-2.003 5.531-0.538 0.646-1.109 1.331-1.606 1.928-0.899 1.078-1.391 2.438-1.391 3.841v1c0 0.53-0.211 1.039-0.586 1.414l-1.414 1.414h-4l-1.414-1.414c-0.375-0.375-0.586-0.884-0.586-1.414v-1z" fill="none"/>
            <clipPath id="_clip2">
                <path d="m12 22.172c0-1.403-0.492-2.763-1.391-3.841-0.497-0.597-1.068-1.282-1.606-1.928-1.294-1.553-2.003-3.51-2.003-5.531v-2e-3c0-4.899 3.971-8.87 8.87-8.87h0.26c4.899 0 8.87 3.971 8.87 8.87v2e-3c0 2.021-0.709 3.978-2.003 5.531-0.538 0.646-1.109 1.331-1.606 1.928-0.899 1.078-1.391 2.438-1.391 3.841v1c0 0.53-0.211 1.039-0.586 1.414l-1.414 1.414h-4l-1.414-1.414c-0.375-0.375-0.586-0.884-0.586-1.414v-1z"/>
            </clipPath>
            <g clip-path="url(#_clip2)">
                <rect x="6" y="12" width="20" height="14" fill="#c8c8c8"/>
            </g>
            <path d="m12 22.172c0-1.403-0.492-2.763-1.391-3.841-0.497-0.597-1.068-1.282-1.606-1.928-1.294-1.553-2.003-3.51-2.003-5.531v-2e-3c0-4.899 3.971-8.87 8.87-8.87h0.26c4.899 0 8.87 3.971 8.87 8.87v2e-3c0 2.021-0.709 3.978-2.003 5.531-0.538 0.646-1.109 1.331-1.606 1.928-0.899 1.078-1.391 2.438-1.391 3.841v1c0 0.53-0.211 1.039-0.586 1.414l-1.414 1.414h-4l-1.414-1.414c-0.375-0.375-0.586-0.884-0.586-1.414v-1z" fill="none" stroke="#000" stroke-width="4px"/>
            <path d="m19 25h-6v3.586c0 0.265 0.105 0.519 0.293 0.707l0.414 0.414c0.188 0.188 0.442 0.293 0.707 0.293h3.172c0.265 0 0.519-0.105 0.707-0.293l0.414-0.414c0.188-0.188 0.293-0.442 0.293-0.707v-3.586z" fill="none" stroke="#000" stroke-width="4px"/>
        </g>
        <g id="emoji">
            <path d="m12 22.172c0-1.403-0.492-2.763-1.391-3.841-0.497-0.597-1.068-1.282-1.606-1.928-1.294-1.553-2.003-3.51-2.003-5.531v-2e-3c0-4.899 3.971-8.87 8.87-8.87h0.26c4.899 0 8.87 3.971 8.87 8.87v2e-3c0 2.021-0.709 3.978-2.003 5.531-0.538 0.646-1.109 1.331-1.606 1.928-0.899 1.078-1.391 2.438-1.391 3.841v1c0 0.53-0.211 1.039-0.586 1.414l-1.414 1.414h-4l-1.414-1.414c-0.375-0.375-0.586-0.884-0.586-1.414v-1z" fill="#ededed"/>
            <clipPath id="_clip3">
                <path d="m12 22.172c0-1.403-0.492-2.763-1.391-3.841-0.497-0.597-1.068-1.282-1.606-1.928-1.294-1.553-2.003-3.51-2.003-5.531v-2e-3c0-4.899 3.971-8.87 8.87-8.87h0.26c4.899 0 8.87 3.971 8.87 8.87v2e-3c0 2.021-0.709 3.978-2.003 5.531-0.538 0.646-1.109 1.331-1.606 1.928-0.899 1.078-1.391 2.438-1.391 3.841v1c0 0.53-0.211 1.039-0.586 1.414l-1.414 1.414h-4l-1.414-1.414c-0.375-0.375-0.586-0.884-0.586-1.414v-1z"/>
            </clipPath>
            <g clip-path="url(#_clip3)">
                <path d="m23 14h-14v-3c0-3.866 3.134-7 7-7s7 3.134 7 7v3z" fill="#fff"/>
                <rect x="6" y="12" width="20" height="14" fill="#c8c8c8"/>
                <clipPath id="_clip4">
                    <rect x="6" y="12" width="20" height="14"/>
                </clipPath>
                <g clip-path="url(#_clip4)">
                    <path d="m9 9v2.183c0 1.804 0.716 3.533 1.992 4.809l0.781 0.781c0.786 0.786 1.227 1.851 1.227 2.962v3.631c0 0.35 0.284 0.634 0.634 0.634h0.732c0.169 0 0.33-0.067 0.448-0.186 0.119-0.118 0.186-0.28 0.186-0.448v-4.412c0-1.274-0.377-2.52-1.084-3.58-0.597-0.896-0.916-1.949-0.916-3.025v-3.349h-4z" fill="#fff" fill-opacity=".48"/>
                </g>
            </g>
            <path d="m19 25h-6v3.586c0 0.265 0.105 0.519 0.293 0.707l0.414 0.414c0.188 0.188 0.442 0.293 0.707 0.293h3.172c0.265 0 0.519-0.105 0.707-0.293l0.414-0.414c0.188-0.188 0.293-0.442 0.293-0.707v-3.586z" fill="#7d7d7d"/>
            <path d="m16 26.5c0-0.133-0.053-0.26-0.146-0.354-0.094-0.093-0.221-0.146-0.354-0.146h-1c-0.133 0-0.26 0.053-0.354 0.146-0.093 0.094-0.146 0.221-0.146 0.354v2c0 0.133 0.053 0.26 0.146 0.354 0.094 0.093 0.221 0.146 0.354 0.146h1c0.133 0 0.26-0.053 0.354-0.146 0.093-0.094 0.146-0.221 0.146-0.354v-2z" fill="#fff" fill-opacity=".39"/>
        </g>
    </g>
</svg>
