<?xml version="1.0" encoding="UTF-8"?>
<svg clip-rule="evenodd" fill-rule="evenodd" stroke-linecap="round" stroke-linejoin="round" stroke-miterlimit="1.5" viewBox="0 0 32 32" xmlns="http://www.w3.org/2000/svg">
 <clipPath id="a">
  <path d="m0 0h32v32h-32z" clip-rule="evenodd"/>
 </clipPath>
 <clipPath id="b">
  <path d="m12 22.172c0-1.403-0.492-2.763-1.391-3.841-0.497-0.597-1.068-1.282-1.606-1.928-1.294-1.553-2.003-3.51-2.003-5.531v-2e-3c0-4.899 3.971-8.87 8.87-8.87h0.26c4.899 0 8.87 3.971 8.87 8.87v2e-3c0 2.021-0.709 3.978-2.003 5.531-0.538 0.646-1.109 1.331-1.606 1.928-0.899 1.078-1.391 2.438-1.391 3.841v1c0 0.53-0.211 1.039-0.586 1.414l-1.414 1.414h-4s-0.824-0.824-1.414-1.414c-0.375-0.375-0.586-0.884-0.586-1.414v-1z" clip-rule="evenodd"/>
 </clipPath>
 <clipPath id="c">
  <path d="m12 22.172c0-1.403-0.492-2.763-1.391-3.841-0.497-0.597-1.068-1.282-1.606-1.928-1.294-1.553-2.003-3.51-2.003-5.531v-2e-3c0-4.899 3.971-8.87 8.87-8.87h0.26c4.899 0 8.87 3.971 8.87 8.87v2e-3c0 2.021-0.709 3.978-2.003 5.531-0.538 0.646-1.109 1.331-1.606 1.928-0.899 1.078-1.391 2.438-1.391 3.841v1c0 0.53-0.211 1.039-0.586 1.414l-1.414 1.414h-4s-0.824-0.824-1.414-1.414c-0.375-0.375-0.586-0.884-0.586-1.414v-1z" clip-rule="evenodd"/>
 </clipPath>
 <clipPath id="d">
  <path d="m6 12h20v14h-20z" clip-rule="evenodd"/>
 </clipPath>
 <path d="m0 0h32v32h-32z" fill="none"/>
 <g clip-path="url(#a)">
  <path d="m12 22.172c0-1.403-0.492-2.763-1.391-3.841-0.497-0.597-1.068-1.282-1.606-1.928-1.294-1.553-2.003-3.51-2.003-5.531v-2e-3c0-4.899 3.971-8.87 8.87-8.87h0.26c4.899 0 8.87 3.971 8.87 8.87v2e-3c0 2.021-0.709 3.978-2.003 5.531-0.538 0.646-1.109 1.331-1.606 1.928-0.899 1.078-1.391 2.438-1.391 3.841v1c0 0.53-0.211 1.039-0.586 1.414l-1.414 1.414h-4s-0.824-0.824-1.414-1.414c-0.375-0.375-0.586-0.884-0.586-1.414v-1z" fill="none"/>
  <g clip-path="url(#b)">
   <path d="m6 12h20v14h-20z" fill="#c8c8c8"/>
  </g>
  <path d="m12 22.172c0-1.403-0.492-2.763-1.391-3.841-0.497-0.597-1.068-1.282-1.606-1.928-1.294-1.553-2.003-3.51-2.003-5.531v-2e-3c0-4.899 3.971-8.87 8.87-8.87h0.26c4.899 0 8.87 3.971 8.87 8.87v2e-3c0 2.021-0.709 3.978-2.003 5.531-0.538 0.646-1.109 1.331-1.606 1.928-0.899 1.078-1.391 2.438-1.391 3.841v1c0 0.53-0.211 1.039-0.586 1.414l-1.414 1.414h-4s-0.824-0.824-1.414-1.414c-0.375-0.375-0.586-0.884-0.586-1.414v-1z" fill="none" stroke="#000" stroke-width="4"/>
  <path d="m19 25h-6v3.586c0 .265.105.519.293.707.13.13.284.284.414.414.188.188.442.293.707.293h3.172c.265 0 .519-.105.707-.293l.414-.414c.188-.188.293-.442.293-.707 0-1.023 0-3.586 0-3.586z" fill="none" stroke="#000" stroke-width="4"/>
  <path d="m12 22.172c0-1.403-0.492-2.763-1.391-3.841-0.497-0.597-1.068-1.282-1.606-1.928-1.294-1.553-2.003-3.51-2.003-5.531v-2e-3c0-4.899 3.971-8.87 8.87-8.87h0.26c4.899 0 8.87 3.971 8.87 8.87v2e-3c0 2.021-0.709 3.978-2.003 5.531-0.538 0.646-1.109 1.331-1.606 1.928-0.899 1.078-1.391 2.438-1.391 3.841v1c0 0.53-0.211 1.039-0.586 1.414l-1.414 1.414h-4s-0.824-0.824-1.414-1.414c-0.375-0.375-0.586-0.884-0.586-1.414v-1z" fill="#ededed"/>
  <g clip-path="url(#c)">
   <path d="m23 14h-14v-3c0-3.866 3.134-7 7-7s7 3.134 7 7z" fill="#fff"/>
   <path d="m6 12h20v14h-20z" fill="#c8c8c8"/>
   <g clip-path="url(#d)">
    <path d="m9 9v2.183c0 1.804 0.716 3.533 1.992 4.809l0.781 0.781c0.786 0.786 1.227 1.851 1.227 2.962v3.631c0 0.35 0.284 0.634 0.634 0.634h0.732c0.169 0 0.33-0.067 0.448-0.186 0.119-0.118 0.186-0.28 0.186-0.448v-4.412c0-1.274-0.377-2.52-1.084-3.58-0.597-0.896-0.916-1.949-0.916-3.025v-3.349z" fill="#fff" fill-opacity=".48"/>
   </g>
  </g>
  <path d="m19 25h-6v3.586c0 .265.105.519.293.707.13.13.284.284.414.414.188.188.442.293.707.293h3.172c.265 0 .519-.105.707-.293l.414-.414c.188-.188.293-.442.293-.707 0-1.023 0-3.586 0-3.586z" fill="#7d7d7d"/>
  <path d="m16 26.5c0-.133-.053-.26-.146-.354-.094-.093-.221-.146-.354-.146-.305 0-.695 0-1 0-.133 0-.26.053-.354.146-.093.094-.146.221-.146.354v2c0 .133.053.26.146.354.094.093.221.146.354.146h1c.133 0 .26-.053.354-.146.093-.094.146-.221.146-.354 0-.555 0-1.445 0-2z" fill="#fff" fill-opacity=".39"/>
 </g>
</svg>
