<?xml version="1.0" encoding="UTF-8"?>
<!DOCTYPE svg  PUBLIC '-//W3C//DTD SVG 1.1//EN'  'http://www.w3.org/Graphics/SVG/1.1/DTD/svg11.dtd'>
<svg clip-rule="evenodd" fill-rule="evenodd" stroke-linejoin="round" stroke-miterlimit="2" version="1.1" viewBox="0 0 32 32" xml:space="preserve" xmlns="http://www.w3.org/2000/svg">
<metadata>
<rdf:RDF xmlns:cc="http://web.resource.org/cc/" xmlns:dc="http://purl.org/dc/elements/1.1/" xmlns:rdf="http://www.w3.org/1999/02/22-rdf-syntax-ns#">

     <rdf:Description rdf:about="">
       <dc:title>Mutant Standard emoji 2023.12</dc:title>
     </rdf:Description>

    <cc:work rdf:about="">
        <cc:license rdf:resource="http://creativecommons.org/licenses/by-nc-sa/4.0/"/>
        <cc:attributionName>Caius Nocturne</cc:attributionName>
        <cc:attributionURL>http://mutant.tech/</cc:attributionURL>
    </cc:work>

</rdf:RDF>
</metadata>

    <rect id="soap" width="32" height="32" fill="none"/>
    <clipPath id="_clip1">
        <rect width="32" height="32"/>
    </clipPath>
    <g clip-path="url(#_clip1)">
        <g id="outline">
            <path d="m15.064 0.19c0.457-0.124 0.939-0.19 1.436-0.19 2.346 0 4.351 1.472 5.14 3.541 1.405 0.762 2.36 2.25 2.36 3.959 0 0.214-0.015 0.425-0.044 0.631l6.828 6.826c0.217 0.218 0.41 0.46 0.573 0.722 0.263 0.424 0.445 0.898 0.535 1.389 0.042 0.232 0.063 0.468 0.065 0.704v0.016 5.371c0 1.286-0.727 2.462-1.878 3.038-2.007 1.003-7.406 3.703-9.895 4.947-1.54 0.77-3.4 0.468-4.618-0.749l-5.941-5.942c-0.135 0.243-0.304 0.468-0.504 0.668-0.562 0.563-1.325 0.879-2.121 0.879l-0.149-4e-3c-0.741-0.036-1.445-0.347-1.972-0.875-0.563-0.562-0.879-1.325-0.879-2.121v-0.337c-0.359-0.17-0.689-0.401-0.975-0.688-0.656-0.656-1.025-1.545-1.025-2.473v-3.761c-1.221-1.009-2-2.535-2-4.241 0-0.747 0.149-1.46 0.42-2.109-0.272-0.746-0.42-1.551-0.42-2.391 0-3.863 3.137-7 7-7 1.199 0 2.328 0.302 3.314 0.834 0.942-0.531 2.029-0.834 3.186-0.834 0.539 0 1.063 0.066 1.564 0.19z"/>
        </g>
        <g id="emoji">
            <path d="m4 12h3v3h1v8c0 0.117-0.021 0.233-0.061 0.343-0.032 0.09-0.078 0.175-0.135 0.252-0.058 0.078-0.127 0.147-0.204 0.205-0.182 0.137-0.41 0.208-0.637 0.199-0.117-4e-3 -0.232-0.029-0.34-0.073-0.116-0.047-0.222-0.116-0.312-0.202-0.095-0.09-0.172-0.199-0.225-0.319-0.057-0.127-0.086-0.266-0.086-0.405l-2e-3 -2.085c-0.136 0.048-0.278 0.076-0.422 0.083-0.149 8e-3 -0.299-7e-3 -0.443-0.043-0.163-0.041-0.318-0.109-0.458-0.202-0.137-0.089-0.258-0.202-0.359-0.33-0.094-0.121-0.169-0.256-0.222-0.399-0.062-0.167-0.093-0.344-0.094-0.522v-7.502z" fill="#fcc6e5"/>
            <path d="m15.098 2.292c0.429-0.188 0.904-0.292 1.402-0.292 1.932 0 3.5 1.568 3.5 3.5 0 1.656-1.152 3.045-2.698 3.408-0.799 1.257-2.204 2.092-3.802 2.092-0.978 0-1.884-0.313-2.623-0.844-0.5 0.614-1.143 1.107-1.878 1.428-0.045 1.893-1.595 3.416-3.499 3.416-1.932 0-3.5-1.568-3.5-3.5 0-0.758 0.241-1.459 0.651-2.033-0.414-0.728-0.651-1.57-0.651-2.467 0-2.76 2.24-5 5-5 1.288 0 2.462 0.488 3.349 1.289 0.812-0.797 1.925-1.289 3.151-1.289 0.563 0 1.102 0.104 1.598 0.292z" fill="#fff"/>
            
                <path d="m29.957 17.788-13.667-8.498-12.29 0.869v5.263c0 0.37 0.147 0.725 0.409 0.987l12.572 12.572c0.608 0.608 1.538 0.759 2.308 0.374 2.49-1.244 7.888-3.944 9.896-4.947 0.473-0.237 0.772-0.72 0.772-1.249v-5.371z" fill="#e23898"/>
                <path d="m28.333 18.333-12.38-14.374-10.329 5.665 12.376 14.376 10.333-5.667z" fill="#eb46a4"/>
                <path d="m28.851 19.575c0.575-0.288 0.977-0.834 1.08-1.469s-0.106-1.28-0.561-1.735c-3.307-3.306-9.875-9.872-12.397-12.393-0.609-0.609-1.539-0.759-2.309-0.375-2.202 1.102-6.726 3.364-9.558 4.78-0.575 0.287-0.977 0.834-1.08 1.468-0.103 0.635 0.105 1.28 0.56 1.735l12.395 12.395c0.608 0.608 1.538 0.759 2.308 0.374 2.204-1.101 6.729-3.364 9.562-4.78zm-21.163-9.129 10.904 10.904 7.676-3.838-10.907-10.903-7.673 3.837z" fill="#f876bf"/>
            
            <path d="m8.042 6.042c0.215-1.161 1.235-2.042 2.458-2.042 1.38 0 2.5 1.12 2.5 2.5 0 1.223-0.881 2.243-2.042 2.458 0.028 0.177 0.042 0.358 0.042 0.542 0 1.932-1.568 3.5-3.5 3.5s-3.5-1.568-3.5-3.5 1.568-3.5 3.5-3.5c0.184 0 0.365 0.014 0.542 0.042zm11.458-1.042c1.38 0 2.5 1.12 2.5 2.5s-1.12 2.5-2.5 2.5-2.5-1.12-2.5-2.5 1.12-2.5 2.5-2.5z" fill="#fcc6e5"/>
        </g>
    </g>
</svg>
