<?xml version="1.0" encoding="UTF-8"?>
<!DOCTYPE svg  PUBLIC '-//W3C//DTD SVG 1.1//EN'  'http://www.w3.org/Graphics/SVG/1.1/DTD/svg11.dtd'>
<svg clip-rule="evenodd" fill-rule="evenodd" stroke-linejoin="round" stroke-miterlimit="1.4142" version="1.1" viewBox="0 0 32 32" xml:space="preserve" xmlns="http://www.w3.org/2000/svg" xmlns:serif="http://www.serif.com/">
<metadata>
<rdf:RDF xmlns:cc="http://web.resource.org/cc/" xmlns:dc="http://purl.org/dc/elements/1.1/" xmlns:rdf="http://www.w3.org/1999/02/22-rdf-syntax-ns#">

     <rdf:Description rdf:about="">
       <dc:title>Mutant Standard emoji 2023.12</dc:title>
     </rdf:Description>

    <cc:work rdf:about="">
        <cc:license rdf:resource="http://creativecommons.org/licenses/by-nc-sa/4.0/"/>
        <cc:attributionName>Caius Nocturne</cc:attributionName>
        <cc:attributionURL>http://mutant.tech/</cc:attributionURL>
    </cc:work>

</rdf:RDF>
</metadata>
<rect id="_0" width="32" height="32" fill="none" serif:id="0"/><clipPath id="_clip1"><rect width="32" height="32"/></clipPath><g clip-path="url(#_clip1)"><g id="outline"><path d="m32 8c0-4.418-3.582-8-8-8h-16c-4.418 0-8 3.582-8 8v16c0 4.418 3.582 8 8 8h16c4.418 0 8-3.582 8-8v-16z"/></g><g id="emoji"><path d="m30 20h-28v4c0 3.314 2.686 6 6 6h16c3.314 0 6-2.686 6-6v-4z" fill="#b2b2b2"/><path d="m30 8c0-3.314-2.686-6-6-6h-16c-1.591 0-3.117 0.632-4.243 1.757-1.125 1.126-1.757 2.652-1.757 4.243v12c0 3.314 2.686 6 6 6h16c1.591 0 3.117-0.632 4.243-1.757 1.125-1.126 1.757-2.652 1.757-4.243v-12z" fill="#fff"/><path d="m15.997 22.771c-3.811 0-5.716-2.078-5.716-6.233v-5.273c0-1.987 0.484-3.49 1.453-4.508 0.969-1.019 2.39-1.528 4.263-1.528 1.905 0 3.334 0.509 4.287 1.528 0.952 1.018 1.429 2.521 1.429 4.508v5.273c0 2.053-0.477 3.605-1.429 4.656-0.953 1.051-2.382 1.577-4.287 1.577zm0-2.809c0.903 0 1.544-0.291 1.921-0.874 0.378-0.583 0.567-1.524 0.567-2.821v-4.534c0-1.297-0.193-2.233-0.579-2.808s-1.022-0.863-1.909-0.863-1.52 0.288-1.898 0.863c-0.377 0.575-0.566 1.511-0.566 2.808v4.534c0 1.297 0.189 2.238 0.566 2.821 0.378 0.583 1.011 0.874 1.898 0.874z" fill="#333" fill-rule="nonzero"/></g></g></svg>
