<?xml version="1.0" encoding="UTF-8"?>
<!DOCTYPE svg  PUBLIC '-//W3C//DTD SVG 1.1//EN'  'http://www.w3.org/Graphics/SVG/1.1/DTD/svg11.dtd'>
<svg clip-rule="evenodd" fill-rule="evenodd" stroke-linejoin="round" stroke-miterlimit="1.4142" version="1.1" viewBox="0 0 32 32" xml:space="preserve" xmlns="http://www.w3.org/2000/svg" xmlns:serif="http://www.serif.com/">
<metadata>
<rdf:RDF xmlns:cc="http://web.resource.org/cc/" xmlns:dc="http://purl.org/dc/elements/1.1/" xmlns:rdf="http://www.w3.org/1999/02/22-rdf-syntax-ns#">

     <rdf:Description rdf:about="">
       <dc:title>Mutant Standard emoji 2023.12</dc:title>
     </rdf:Description>

    <cc:work rdf:about="">
        <cc:license rdf:resource="http://creativecommons.org/licenses/by-nc-sa/4.0/"/>
        <cc:attributionName>Caius Nocturne</cc:attributionName>
        <cc:attributionURL>http://mutant.tech/</cc:attributionURL>
    </cc:work>

</rdf:RDF>
</metadata>
<rect id="_3" width="32" height="32" fill="none" serif:id="3"/><clipPath id="_clip1"><rect width="32" height="32"/></clipPath><g clip-path="url(#_clip1)"><g id="outline"><path d="m32 8c0-4.418-3.582-8-8-8h-16c-4.418 0-8 3.582-8 8v16c0 4.418 3.582 8 8 8h16c4.418 0 8-3.582 8-8v-16z"/></g><g id="emoji"><path d="m30 20h-28v4c0 3.314 2.686 6 6 6h16c3.314 0 6-2.686 6-6v-4z" fill="#b2b2b2"/><path d="m30 8c0-3.314-2.686-6-6-6h-16c-1.591 0-3.117 0.632-4.243 1.757-1.125 1.126-1.757 2.652-1.757 4.243v12c0 3.314 2.686 6 6 6h16c1.591 0 3.117-0.632 4.243-1.757 1.125-1.126 1.757-2.652 1.757-4.243v-12z" fill="#fff"/><path d="m15.975 22.771c-1.823 0-3.219-0.398-4.188-1.195s-1.454-1.942-1.454-3.437v-0.271h3.006v0.197c0 0.641 0.222 1.129 0.665 1.466 0.444 0.337 1.084 0.505 1.922 0.505 0.821 0 1.454-0.201 1.897-0.603 0.444-0.403 0.665-0.965 0.665-1.688v-0.37c0-0.772-0.234-1.342-0.702-1.712s-1.178-0.554-2.131-0.554h-0.961v-2.735h0.936c0.838 0 1.475-0.181 1.91-0.542s0.653-0.879 0.653-1.552v-0.296c0-0.641-0.206-1.137-0.616-1.491-0.411-0.353-0.994-0.529-1.749-0.529-0.772 0-1.364 0.172-1.774 0.517-0.411 0.345-0.616 0.838-0.616 1.478v0.222h-2.957v-0.222c0-1.527 0.468-2.697 1.405-3.51 0.936-0.813 2.274-1.22 4.015-1.22 1.709 0 3.047 0.394 4.016 1.183 0.969 0.788 1.454 1.872 1.454 3.252v0.32c0 0.788-0.201 1.478-0.604 2.07-0.402 0.591-0.989 1.059-1.761 1.404 0.87 0.296 1.531 0.78 1.983 1.454 0.452 0.673 0.678 1.494 0.678 2.463v0.395c0 1.544-0.514 2.763-1.54 3.658-1.027 0.895-2.411 1.343-4.152 1.343z" fill="#333" fill-rule="nonzero"/></g></g></svg>
