<?xml version="1.0" encoding="UTF-8"?>
<!DOCTYPE svg  PUBLIC '-//W3C//DTD SVG 1.1//EN'  'http://www.w3.org/Graphics/SVG/1.1/DTD/svg11.dtd'>
<svg clip-rule="evenodd" fill-rule="evenodd" stroke-linejoin="round" stroke-miterlimit="1.4142" version="1.1" viewBox="0 0 32 32" xml:space="preserve" xmlns="http://www.w3.org/2000/svg" xmlns:serif="http://www.serif.com/">
<metadata>
<rdf:RDF xmlns:cc="http://web.resource.org/cc/" xmlns:dc="http://purl.org/dc/elements/1.1/" xmlns:rdf="http://www.w3.org/1999/02/22-rdf-syntax-ns#">

     <rdf:Description rdf:about="">
       <dc:title>Mutant Standard emoji 2023.12</dc:title>
     </rdf:Description>

    <cc:work rdf:about="">
        <cc:license rdf:resource="http://creativecommons.org/licenses/by-nc-sa/4.0/"/>
        <cc:attributionName>Caius Nocturne</cc:attributionName>
        <cc:attributionURL>http://mutant.tech/</cc:attributionURL>
    </cc:work>

</rdf:RDF>
</metadata>
<rect id="_5" width="32" height="32" fill="none" serif:id="5"/><clipPath id="_clip1"><rect width="32" height="32"/></clipPath><g clip-path="url(#_clip1)"><g id="outline"><path d="m32 8c0-4.418-3.582-8-8-8h-16c-4.418 0-8 3.582-8 8v16c0 4.418 3.582 8 8 8h16c4.418 0 8-3.582 8-8v-16z"/></g><g id="emoji"><path d="m30 20h-28v4c0 3.314 2.686 6 6 6h16c3.314 0 6-2.686 6-6v-4z" fill="#b2b2b2"/><path d="m30 8c0-3.314-2.686-6-6-6h-16c-1.591 0-3.117 0.632-4.243 1.757-1.125 1.126-1.757 2.652-1.757 4.243v12c0 3.314 2.686 6 6 6h16c1.591 0 3.117-0.632 4.243-1.757 1.125-1.126 1.757-2.652 1.757-4.243v-12z" fill="#fff"/><path d="m15.864 22.771c-1.642 0-2.948-0.386-3.917-1.158s-1.454-1.84-1.454-3.203v-0.197h3.08v0.099c0 0.509 0.21 0.924 0.628 1.244 0.419 0.32 0.982 0.48 1.688 0.48 0.805 0 1.413-0.23 1.823-0.69 0.411-0.46 0.616-1.108 0.616-1.946v-0.764c0-0.87-0.209-1.536-0.628-1.995-0.419-0.46-1.022-0.69-1.811-0.69-0.525 0-0.985 0.111-1.38 0.332-0.394 0.222-0.689 0.522-0.887 0.9h-2.833v-9.683h10.2v2.759h-7.416v3.967c0.821-0.608 1.823-0.912 3.006-0.912 1.56 0 2.772 0.456 3.634 1.368 0.862 0.911 1.294 2.189 1.294 3.831v0.936c0 1.676-0.493 2.981-1.479 3.918-0.985 0.936-2.373 1.404-4.164 1.404z" fill="#333" fill-rule="nonzero"/></g></g></svg>
