<?xml version="1.0" encoding="UTF-8"?>
<!DOCTYPE svg  PUBLIC '-//W3C//DTD SVG 1.1//EN'  'http://www.w3.org/Graphics/SVG/1.1/DTD/svg11.dtd'>
<svg clip-rule="evenodd" fill-rule="evenodd" stroke-linejoin="round" stroke-miterlimit="1.4142" version="1.1" viewBox="0 0 32 32" xml:space="preserve" xmlns="http://www.w3.org/2000/svg" xmlns:serif="http://www.serif.com/">
<metadata>
<rdf:RDF xmlns:cc="http://web.resource.org/cc/" xmlns:dc="http://purl.org/dc/elements/1.1/" xmlns:rdf="http://www.w3.org/1999/02/22-rdf-syntax-ns#">

     <rdf:Description rdf:about="">
       <dc:title>Mutant Standard emoji 2023.12</dc:title>
     </rdf:Description>

    <cc:work rdf:about="">
        <cc:license rdf:resource="http://creativecommons.org/licenses/by-nc-sa/4.0/"/>
        <cc:attributionName>Caius Nocturne</cc:attributionName>
        <cc:attributionURL>http://mutant.tech/</cc:attributionURL>
    </cc:work>

</rdf:RDF>
</metadata>
<rect id="_8" width="32" height="32" fill="none" serif:id="8"/><clipPath id="_clip1"><rect width="32" height="32"/></clipPath><g clip-path="url(#_clip1)"><g id="outline"><path d="m32 8c0-4.418-3.582-8-8-8h-16c-4.418 0-8 3.582-8 8v16c0 4.418 3.582 8 8 8h16c4.418 0 8-3.582 8-8v-16z"/></g><g id="emoji"><path d="m30 20h-28v4c0 3.314 2.686 6 6 6h16c3.314 0 6-2.686 6-6v-4z" fill="#b2b2b2"/><path d="m30 8c0-3.314-2.686-6-6-6h-16c-1.591 0-3.117 0.632-4.243 1.757-1.125 1.126-1.757 2.652-1.757 4.243v12c0 3.314 2.686 6 6 6h16c1.591 0 3.117-0.632 4.243-1.757 1.125-1.126 1.757-2.652 1.757-4.243v-12z" fill="#fff"/><path d="m16 22.771c-1.79 0-3.219-0.456-4.287-1.367-1.068-0.912-1.601-2.148-1.601-3.708v-0.345c0-0.822 0.209-1.565 0.628-2.23s1.006-1.178 1.761-1.54c-0.624-0.312-1.116-0.764-1.478-1.355-0.361-0.591-0.542-1.265-0.542-2.02v-0.271c0-0.92 0.222-1.737 0.665-2.452 0.444-0.714 1.084-1.269 1.922-1.663s1.823-0.591 2.957-0.591c1.133 0 2.118 0.197 2.956 0.591s1.478 0.949 1.922 1.663c0.443 0.715 0.665 1.532 0.665 2.452v0.271c0 0.739-0.185 1.408-0.554 2.008-0.37 0.599-0.867 1.055-1.491 1.367 0.756 0.378 1.339 0.899 1.749 1.565 0.411 0.665 0.616 1.392 0.616 2.18v0.345c0 1.577-0.533 2.821-1.601 3.733-1.068 0.911-2.497 1.367-4.287 1.367zm0.025-10.471c0.755 0 1.338-0.185 1.749-0.554 0.411-0.37 0.616-0.875 0.616-1.516v-0.271c0-0.624-0.21-1.112-0.628-1.466-0.419-0.353-0.998-0.529-1.737-0.529-0.756 0-1.343 0.176-1.762 0.529-0.419 0.354-0.628 0.842-0.628 1.466v0.271c0 0.641 0.205 1.146 0.616 1.516 0.41 0.369 1.002 0.554 1.774 0.554zm0 7.736c0.854 0 1.519-0.209 1.995-0.628 0.477-0.419 0.715-1.006 0.715-1.762v-0.369c0-0.723-0.238-1.29-0.715-1.7-0.476-0.411-1.141-0.616-1.995-0.616s-1.524 0.205-2.008 0.616c-0.485 0.41-0.727 0.977-0.727 1.7v0.369c0 0.756 0.238 1.343 0.714 1.762 0.477 0.419 1.15 0.628 2.021 0.628z" fill="#333" fill-rule="nonzero"/></g></g></svg>
