<?xml version="1.0" encoding="UTF-8"?>
<!DOCTYPE svg  PUBLIC '-//W3C//DTD SVG 1.1//EN'  'http://www.w3.org/Graphics/SVG/1.1/DTD/svg11.dtd'>
<svg clip-rule="evenodd" fill-rule="evenodd" stroke-linejoin="round" stroke-miterlimit="1.4142" version="1.1" viewBox="0 0 32 32" xml:space="preserve" xmlns="http://www.w3.org/2000/svg" xmlns:serif="http://www.serif.com/">
<metadata>
<rdf:RDF xmlns:cc="http://web.resource.org/cc/" xmlns:dc="http://purl.org/dc/elements/1.1/" xmlns:rdf="http://www.w3.org/1999/02/22-rdf-syntax-ns#">

     <rdf:Description rdf:about="">
       <dc:title>Mutant Standard emoji 2023.12</dc:title>
     </rdf:Description>

    <cc:work rdf:about="">
        <cc:license rdf:resource="http://creativecommons.org/licenses/by-nc-sa/4.0/"/>
        <cc:attributionName>Caius Nocturne</cc:attributionName>
        <cc:attributionURL>http://mutant.tech/</cc:attributionURL>
    </cc:work>

</rdf:RDF>
</metadata>
<rect id="_9" width="32" height="32" fill="none" serif:id="9"/><clipPath id="_clip1"><rect width="32" height="32"/></clipPath><g clip-path="url(#_clip1)"><g id="outline"><path d="m32 8c0-4.418-3.582-8-8-8h-16c-4.418 0-8 3.582-8 8v16c0 4.418 3.582 8 8 8h16c4.418 0 8-3.582 8-8v-16z"/></g><g id="emoji"><path d="m30 20h-28v4c0 3.314 2.686 6 6 6h16c3.314 0 6-2.686 6-6v-4z" fill="#b2b2b2"/><path d="m30 8c0-3.314-2.686-6-6-6h-16c-1.591 0-3.117 0.632-4.243 1.757-1.125 1.126-1.757 2.652-1.757 4.243v12c0 3.314 2.686 6 6 6h16c1.591 0 3.117-0.632 4.243-1.757 1.125-1.126 1.757-2.652 1.757-4.243v-12z" fill="#fff"/><path d="m16.801 15.528c-0.509 0.229-1.101 0.344-1.774 0.344-1.478 0-2.669-0.443-3.573-1.33-0.903-0.887-1.355-2.07-1.355-3.548v-0.517c0-1.643 0.526-2.928 1.577-3.856s2.488-1.392 4.312-1.392c1.856 0 3.305 0.456 4.348 1.367 1.043 0.912 1.565 2.173 1.565 3.782v0.518c0 1.264-0.419 2.611-1.257 4.04l-4.385 7.564h-3.474l4.016-6.972zm-0.813-2.341c0.837 0 1.49-0.209 1.958-0.628s0.703-0.998 0.703-1.737v-0.468c0-0.756-0.235-1.343-0.703-1.762s-1.121-0.628-1.958-0.628c-0.838 0-1.491 0.213-1.959 0.64s-0.702 1.019-0.702 1.774v0.419c0 0.756 0.234 1.343 0.702 1.762s1.121 0.628 1.959 0.628z" fill="#333" fill-rule="nonzero"/></g></g></svg>
