<?xml version="1.0" encoding="UTF-8"?>
<svg clip-rule="evenodd" fill-rule="evenodd" stroke-linecap="round" stroke-linejoin="round" stroke-miterlimit="1.5" viewBox="0 0 32 32" xmlns="http://www.w3.org/2000/svg">
 <clipPath id="a">
  <path d="m0 0h32v32h-32z" clip-rule="evenodd"/>
 </clipPath>
 <path d="m0 0h32v32h-32z" fill="none"/>
 <g clip-path="url(#a)">
  <circle cx="16" cy="16" r="7"/>
  <g fill="none" stroke="#000" stroke-width="4">
   <path d="m18 4c0-1.105-0.895-2-2-2s-2 0.895-2 2v3c0 1.105 0.895 2 2 2s2-0.895 2-2v-3z"/>
   <path d="m25.899 8.929c0.782-0.781 0.782-2.047 0-2.828-0.781-0.782-2.047-0.782-2.828 0l-2.121 2.121c-0.781 0.781-0.781 2.047 0 2.828s2.047 0.781 2.828 0z"/>
   <path d="m28 18c1.105 0 2-0.895 2-2s-0.895-2-2-2h-3c-1.105 0-2 0.895-2 2s0.895 2 2 2z"/>
   <path d="m23.071 25.899c0.781 0.782 2.047 0.782 2.828 0 0.782-0.781 0.782-2.047 0-2.828l-2.121-2.121c-0.781-0.781-2.047-0.781-2.828 0s-0.781 2.047 0 2.828z"/>
   <path d="m18 25c0-1.105-0.895-2-2-2s-2 0.895-2 2v3c0 1.105 0.895 2 2 2s2-0.895 2-2v-3z"/>
   <path d="m11.05 23.778c0.781-0.781 0.781-2.047 0-2.828s-2.047-0.781-2.828 0l-2.121 2.121c-0.782 0.781-0.782 2.047 0 2.828 0.781 0.782 2.047 0.782 2.828 0l2.121-2.121z"/>
   <path d="m7 18c1.105 0 2-0.895 2-2s-0.895-2-2-2h-3c-1.105 0-2 0.895-2 2s0.895 2 2 2z"/>
   <path d="m8.222 11.05c0.781 0.781 2.047 0.781 2.828 0s0.781-2.047 0-2.828l-2.121-2.121c-0.781-0.782-2.047-0.782-2.828 0-0.782 0.781-0.782 2.047 0 2.828z"/>
  </g>
  <circle cx="16" cy="16" r="6" fill="#ef9b00"/>
  <circle cx="16" cy="16" r="3"/>
  <path d="m18 4c0-1.105-0.895-2-2-2s-2 0.895-2 2v3c0 1.105 0.895 2 2 2s2-0.895 2-2v-3z" fill="#ef9b00"/>
  <path d="m25.899 8.929c0.782-0.781 0.782-2.047 0-2.828-0.781-0.782-2.047-0.782-2.828 0l-2.121 2.121c-0.781 0.781-0.781 2.047 0 2.828s2.047 0.781 2.828 0z" fill="#ef9b00"/>
  <path d="m28 18c1.105 0 2-0.895 2-2s-0.895-2-2-2h-3c-1.105 0-2 0.895-2 2s0.895 2 2 2z" fill="#ef9b00"/>
  <path d="m23.071 25.899c0.781 0.782 2.047 0.782 2.828 0 0.782-0.781 0.782-2.047 0-2.828l-2.121-2.121c-0.781-0.781-2.047-0.781-2.828 0s-0.781 2.047 0 2.828z" fill="#ef9b00"/>
  <path d="m18 25c0-1.105-0.895-2-2-2s-2 0.895-2 2v3c0 1.105 0.895 2 2 2s2-0.895 2-2v-3z" fill="#ef9b00"/>
  <path d="m11.05 23.778c0.781-0.781 0.781-2.047 0-2.828s-2.047-0.781-2.828 0l-2.121 2.121c-0.782 0.781-0.782 2.047 0 2.828 0.781 0.782 2.047 0.782 2.828 0l2.121-2.121z" fill="#ef9b00"/>
  <path d="m7 18c1.105 0 2-0.895 2-2s-0.895-2-2-2h-3c-1.105 0-2 0.895-2 2s0.895 2 2 2z" fill="#ef9b00"/>
  <path d="m8.222 11.05c0.781 0.781 2.047 0.781 2.828 0s0.781-2.047 0-2.828l-2.121-2.121c-0.781-0.782-2.047-0.782-2.828 0-0.782 0.781-0.782 2.047 0 2.828z" fill="#ef9b00"/>
 </g>
</svg>
