<?xml version="1.0" encoding="UTF-8"?>
<!DOCTYPE svg  PUBLIC '-//W3C//DTD SVG 1.1//EN'  'http://www.w3.org/Graphics/SVG/1.1/DTD/svg11.dtd'>
<svg clip-rule="evenodd" fill-rule="evenodd" stroke-linecap="round" stroke-linejoin="round" stroke-miterlimit="1.5" version="1.1" viewBox="0 0 32 32" xml:space="preserve" xmlns="http://www.w3.org/2000/svg">
<metadata>
<rdf:RDF xmlns:cc="http://web.resource.org/cc/" xmlns:dc="http://purl.org/dc/elements/1.1/" xmlns:rdf="http://www.w3.org/1999/02/22-rdf-syntax-ns#">

     <rdf:Description rdf:about="">
       <dc:title>Mutant Standard emoji 2023.12</dc:title>
     </rdf:Description>

    <cc:work rdf:about="">
        <cc:license rdf:resource="http://creativecommons.org/licenses/by-nc-sa/4.0/"/>
        <cc:attributionName>Caius Nocturne</cc:attributionName>
        <cc:attributionURL>http://mutant.tech/</cc:attributionURL>
    </cc:work>

</rdf:RDF>
</metadata>
<rect id="high_brightness" width="32" height="32" fill="none"/><clipPath id="_clip1"><rect width="32" height="32"/></clipPath><g clip-path="url(#_clip1)"><g id="outline"><circle cx="16" cy="16" r="7"/><path d="m18 4c0-1.105-0.895-2-2-2s-2 0.895-2 2v3c0 1.105 0.895 2 2 2s2-0.895 2-2v-3z" fill="none" stroke="#000" stroke-width="4px"/><path d="m25.899 8.929c0.782-0.781 0.782-2.047 0-2.828-0.781-0.782-2.047-0.782-2.828 0l-2.121 2.121c-0.781 0.781-0.781 2.047 0 2.828s2.047 0.781 2.828 0l2.121-2.121z" fill="none" stroke="#000" stroke-width="4px"/><path d="m28 18c1.105 0 2-0.895 2-2s-0.895-2-2-2h-3c-1.105 0-2 0.895-2 2s0.895 2 2 2h3z" fill="none" stroke="#000" stroke-width="4px"/><path d="m23.071 25.899c0.781 0.782 2.047 0.782 2.828 0 0.782-0.781 0.782-2.047 0-2.828l-2.121-2.121c-0.781-0.781-2.047-0.781-2.828 0s-0.781 2.047 0 2.828l2.121 2.121z" fill="none" stroke="#000" stroke-width="4px"/><path d="m18 25c0-1.105-0.895-2-2-2s-2 0.895-2 2v3c0 1.105 0.895 2 2 2s2-0.895 2-2v-3z" fill="none" stroke="#000" stroke-width="4px"/><path d="m11.05 23.778c0.781-0.781 0.781-2.047 0-2.828s-2.047-0.781-2.828 0l-2.121 2.121c-0.782 0.781-0.782 2.047 0 2.828 0.781 0.782 2.047 0.782 2.828 0l2.121-2.121z" fill="none" stroke="#000" stroke-width="4px"/><path d="m7 18c1.105 0 2-0.895 2-2s-0.895-2-2-2h-3c-1.105 0-2 0.895-2 2s0.895 2 2 2h3z" fill="none" stroke="#000" stroke-width="4px"/><path d="m8.222 11.05c0.781 0.781 2.047 0.781 2.828 0s0.781-2.047 0-2.828l-2.121-2.121c-0.781-0.782-2.047-0.782-2.828 0-0.782 0.781-0.782 2.047 0 2.828l2.121 2.121z" fill="none" stroke="#000" stroke-width="4px"/></g><g id="emoji"><circle cx="16" cy="16" r="6" fill="#ef9b00"/><circle cx="16" cy="16" r="3"/><path d="m18 4c0-1.105-0.895-2-2-2s-2 0.895-2 2v3c0 1.105 0.895 2 2 2s2-0.895 2-2v-3z" fill="#ef9b00"/><path d="m25.899 8.929c0.782-0.781 0.782-2.047 0-2.828-0.781-0.782-2.047-0.782-2.828 0l-2.121 2.121c-0.781 0.781-0.781 2.047 0 2.828s2.047 0.781 2.828 0l2.121-2.121z" fill="#ef9b00"/><path d="m28 18c1.105 0 2-0.895 2-2s-0.895-2-2-2h-3c-1.105 0-2 0.895-2 2s0.895 2 2 2h3z" fill="#ef9b00"/><path d="m23.071 25.899c0.781 0.782 2.047 0.782 2.828 0 0.782-0.781 0.782-2.047 0-2.828l-2.121-2.121c-0.781-0.781-2.047-0.781-2.828 0s-0.781 2.047 0 2.828l2.121 2.121z" fill="#ef9b00"/><path d="m18 25c0-1.105-0.895-2-2-2s-2 0.895-2 2v3c0 1.105 0.895 2 2 2s2-0.895 2-2v-3z" fill="#ef9b00"/><path d="m11.05 23.778c0.781-0.781 0.781-2.047 0-2.828s-2.047-0.781-2.828 0l-2.121 2.121c-0.782 0.781-0.782 2.047 0 2.828 0.781 0.782 2.047 0.782 2.828 0l2.121-2.121z" fill="#ef9b00"/><path d="m7 18c1.105 0 2-0.895 2-2s-0.895-2-2-2h-3c-1.105 0-2 0.895-2 2s0.895 2 2 2h3z" fill="#ef9b00"/><path d="m8.222 11.05c0.781 0.781 2.047 0.781 2.828 0s0.781-2.047 0-2.828l-2.121-2.121c-0.781-0.782-2.047-0.782-2.828 0-0.782 0.781-0.782 2.047 0 2.828l2.121 2.121z" fill="#ef9b00"/></g></g></svg>
