<?xml version="1.0" encoding="UTF-8"?>
<!DOCTYPE svg  PUBLIC '-//W3C//DTD SVG 1.1//EN'  'http://www.w3.org/Graphics/SVG/1.1/DTD/svg11.dtd'>
<svg clip-rule="evenodd" fill-rule="evenodd" stroke-linejoin="round" stroke-miterlimit="1.4142" version="1.1" viewBox="0 0 32 32" xml:space="preserve" xmlns="http://www.w3.org/2000/svg">
<metadata>
<rdf:RDF xmlns:cc="http://web.resource.org/cc/" xmlns:dc="http://purl.org/dc/elements/1.1/" xmlns:rdf="http://www.w3.org/1999/02/22-rdf-syntax-ns#">

     <rdf:Description rdf:about="">
       <dc:title>Mutant Standard emoji 2023.12</dc:title>
     </rdf:Description>

    <cc:work rdf:about="">
        <cc:license rdf:resource="http://creativecommons.org/licenses/by-nc-sa/4.0/"/>
        <cc:attributionName>Caius Nocturne</cc:attributionName>
        <cc:attributionURL>http://mutant.tech/</cc:attributionURL>
    </cc:work>

</rdf:RDF>
</metadata>
<rect id="latin_lowercase" width="32" height="32" fill="none"/><clipPath id="_clip1"><rect width="32" height="32"/></clipPath><g clip-path="url(#_clip1)"><g id="outline"><path d="m32 8c0-4.418-3.582-8-8-8h-16c-4.418 0-8 3.582-8 8v16c0 4.418 3.582 8 8 8h16c4.418 0 8-3.582 8-8v-16z"/></g><g id="emoji"><path d="m30 8c0-1.591-0.632-3.117-1.757-4.243-1.126-1.125-2.652-1.757-4.243-1.757h-16c-1.591 0-3.117 0.632-4.243 1.757-1.125 1.126-1.757 2.652-1.757 4.243v16c0 1.591 0.632 3.117 1.757 4.243 1.126 1.125 2.652 1.757 4.243 1.757h16c1.591 0 3.117-0.632 4.243-1.757 1.125-1.126 1.757-2.652 1.757-4.243v-16z" fill="#fff"/><path d="m13.986 8.073c0.615 0.516 0.922 1.26 0.922 2.232v5.146h-1.86v-0.744c-0.32 0.299-0.661 0.514-1.023 0.643s-0.801 0.194-1.318 0.194c-0.971 0-1.707-0.217-2.208-0.651s-0.752-1.049-0.752-1.845c0-0.765 0.266-1.348 0.798-1.751s1.3-0.605 2.302-0.605h2.154v-0.48c0-0.961-0.568-1.442-1.705-1.442-0.516 0-0.891 0.093-1.123 0.279-0.233 0.186-0.349 0.424-0.349 0.713v0.047h-1.829v-0.047c0-0.765 0.302-1.367 0.907-1.806 0.604-0.439 1.418-0.658 2.441-0.658 1.147 0 2.028 0.258 2.643 0.775zm-0.985 4.433v-0.496h-1.798c-0.547 0-0.95 0.08-1.209 0.24-0.258 0.16-0.387 0.411-0.387 0.752 0 0.32 0.127 0.568 0.38 0.744 0.253 0.175 0.633 0.263 1.139 0.263 1.25 0 1.875-0.501 1.875-1.503z" fill="#333" fill-rule="nonzero"/><path d="m18.903 14.629v0.822h-1.875v-10.695h1.922v3.549c0.258-0.331 0.579-0.589 0.961-0.775s0.811-0.279 1.286-0.279c0.961 0 1.726 0.31 2.294 0.93 0.569 0.62 0.853 1.514 0.853 2.682v1.007c0 0.775-0.137 1.444-0.411 2.007s-0.648 0.99-1.124 1.279c-0.475 0.289-1.017 0.434-1.627 0.434-0.961 0-1.721-0.32-2.279-0.961zm3.085-1.279c0.289-0.346 0.434-0.865 0.434-1.557v-0.837c0-1.333-0.574-2-1.721-2-0.547 0-0.976 0.173-1.286 0.519s-0.465 0.83-0.465 1.45v1.023c0 0.589 0.16 1.056 0.48 1.402 0.321 0.346 0.755 0.52 1.302 0.52 0.548 0 0.967-0.174 1.256-0.52z" fill="#333" fill-rule="nonzero"/><path d="m8.677 26.492c-0.651-0.63-0.977-1.55-0.977-2.759v-0.961c0-1.199 0.326-2.111 0.977-2.736s1.55-0.938 2.697-0.938c1.126 0 2.005 0.264 2.635 0.791s0.945 1.255 0.945 2.185v0.093h-1.875v-0.062c0-0.403-0.147-0.72-0.442-0.953-0.294-0.232-0.7-0.349-1.217-0.349-0.599 0-1.051 0.161-1.356 0.481s-0.457 0.827-0.457 1.519v0.914c0 0.703 0.155 1.212 0.465 1.527s0.775 0.473 1.395 0.473c0.496 0 0.886-0.111 1.17-0.333s0.426-0.525 0.426-0.907v-0.062h1.876v0.062c0 0.92-0.315 1.643-0.946 2.17-0.63 0.527-1.503 0.79-2.619 0.79-1.147 0-2.046-0.315-2.697-0.945z" fill="#333" fill-rule="nonzero"/><path d="m17.896 26.492c-0.574-0.63-0.86-1.54-0.86-2.728v-1.008c0-0.775 0.131-1.436 0.395-1.984 0.263-0.547 0.63-0.963 1.1-1.247 0.471-0.284 1.01-0.427 1.62-0.427 0.951 0 1.71 0.336 2.279 1.008v-3.503h1.906v10.695h-1.875v-0.868c-0.527 0.672-1.287 1.007-2.279 1.007-0.951 0-1.713-0.315-2.286-0.945zm4.045-1.287c0.326-0.341 0.489-0.811 0.489-1.41v-1.023c0-0.62-0.155-1.103-0.465-1.449s-0.744-0.52-1.302-0.52c-0.548 0-0.969 0.168-1.264 0.504-0.294 0.336-0.441 0.85-0.441 1.542v0.837c0 0.682 0.144 1.191 0.434 1.527 0.289 0.336 0.697 0.504 1.224 0.504 0.558 0 1-0.171 1.325-0.512z" fill="#333" fill-rule="nonzero"/></g></g></svg>
