<?xml version="1.0" encoding="UTF-8"?>
<!DOCTYPE svg  PUBLIC '-//W3C//DTD SVG 1.1//EN'  'http://www.w3.org/Graphics/SVG/1.1/DTD/svg11.dtd'>
<svg clip-rule="evenodd" fill-rule="evenodd" stroke-linejoin="round" stroke-miterlimit="1.4142" version="1.1" viewBox="0 0 32 32" xml:space="preserve" xmlns="http://www.w3.org/2000/svg">
<metadata>
<rdf:RDF xmlns:cc="http://web.resource.org/cc/" xmlns:dc="http://purl.org/dc/elements/1.1/" xmlns:rdf="http://www.w3.org/1999/02/22-rdf-syntax-ns#">

     <rdf:Description rdf:about="">
       <dc:title>Mutant Standard emoji 2023.12</dc:title>
     </rdf:Description>

    <cc:work rdf:about="">
        <cc:license rdf:resource="http://creativecommons.org/licenses/by-nc-sa/4.0/"/>
        <cc:attributionName>Caius Nocturne</cc:attributionName>
        <cc:attributionURL>http://mutant.tech/</cc:attributionURL>
    </cc:work>

</rdf:RDF>
</metadata>
<rect id="latin_uppercase" width="32" height="32" fill="none"/><clipPath id="_clip1"><rect width="32" height="32"/></clipPath><g clip-path="url(#_clip1)"><g id="outline"><path d="m32 8c0-4.418-3.582-8-8-8h-16c-4.418 0-8 3.582-8 8v16c0 4.418 3.582 8 8 8h16c4.418 0 8-3.582 8-8v-16z"/></g><g id="emoji"><path d="m30 8c0-1.591-0.632-3.117-1.757-4.243-1.126-1.125-2.652-1.757-4.243-1.757h-16c-1.591 0-3.117 0.632-4.243 1.757-1.125 1.126-1.757 2.652-1.757 4.243v16c0 1.591 0.632 3.117 1.757 4.243 1.126 1.125 2.652 1.757 4.243 1.757h16c1.591 0 3.117-0.632 4.243-1.757 1.125-1.126 1.757-2.652 1.757-4.243v-16z" fill="#fff"/><path d="m12.649 13.342h-4.395l-0.75 2.01h-2.1l4.245-10.35h1.605l4.245 10.35h-2.1l-0.75-2.01zm-0.615-1.635-1.59-4.215-1.575 4.215h3.165z" fill="#333" fill-rule="nonzero"/><path d="m25.099 10.942c0.275 0.4 0.413 0.88 0.413 1.44 0 0.95-0.308 1.683-0.923 2.198s-1.497 0.772-2.647 0.772h-4.68v-10.35h4.485c1.17 0 2.065 0.248 2.685 0.743s0.93 1.207 0.93 2.137c0 0.47-0.128 0.893-0.383 1.268s-0.617 0.667-1.087 0.877c0.53 0.21 0.932 0.515 1.207 0.915zm-5.872-4.23v2.52h2.535c1.09 0 1.635-0.41 1.635-1.23 0-0.86-0.52-1.29-1.56-1.29h-2.61zm4.335 5.535c0-0.87-0.555-1.305-1.665-1.305h-2.67v2.7h2.745c1.06 0 1.59-0.465 1.59-1.395z" fill="#333" fill-rule="nonzero"/><path d="m7.294 26.55c-0.775-0.76-1.163-1.895-1.163-3.405v-1.62c0-1.51 0.39-2.645 1.17-3.405s1.865-1.14 3.255-1.14c1.27 0 2.283 0.312 3.038 0.937s1.132 1.493 1.132 2.603v0.12h-1.965v-0.06c0-0.58-0.195-1.038-0.585-1.373s-0.93-0.502-1.62-0.502c-0.82 0-1.432 0.24-1.837 0.72s-0.608 1.215-0.608 2.205v1.485c0 0.95 0.205 1.655 0.615 2.115s1.025 0.69 1.845 0.69c0.69 0 1.228-0.163 1.613-0.488s0.577-0.772 0.577-1.342v-0.075h1.95v0.075c0 1.14-0.375 2.025-1.125 2.655s-1.765 0.945-3.045 0.945c-1.39 0-2.472-0.38-3.247-1.14z" fill="#333" fill-rule="nonzero"/><path d="m17.262 17.175h4.035c1.38 0 2.447 0.37 3.202 1.11s1.133 1.88 1.133 3.42v1.275c0 1.54-0.385 2.682-1.155 3.427s-1.855 1.118-3.255 1.118h-3.96v-10.35zm4.02 8.64c0.81 0 1.41-0.228 1.8-0.683s0.585-1.172 0.585-2.152v-1.17c0-1.02-0.195-1.763-0.585-2.228s-0.99-0.697-1.8-0.697h-2.055v6.93h2.055z" fill="#333" fill-rule="nonzero"/></g></g></svg>
