<?xml version="1.0" encoding="UTF-8"?>
<!DOCTYPE svg  PUBLIC '-//W3C//DTD SVG 1.1//EN'  'http://www.w3.org/Graphics/SVG/1.1/DTD/svg11.dtd'>
<svg clip-rule="evenodd" fill-rule="evenodd" stroke-linecap="round" stroke-linejoin="round" stroke-miterlimit="1.5" version="1.1" viewBox="0 0 32 32" xml:space="preserve" xmlns="http://www.w3.org/2000/svg">
<metadata>
<rdf:RDF xmlns:cc="http://web.resource.org/cc/" xmlns:dc="http://purl.org/dc/elements/1.1/" xmlns:rdf="http://www.w3.org/1999/02/22-rdf-syntax-ns#">

     <rdf:Description rdf:about="">
       <dc:title>Mutant Standard emoji 2023.12</dc:title>
     </rdf:Description>

    <cc:work rdf:about="">
        <cc:license rdf:resource="http://creativecommons.org/licenses/by-nc-sa/4.0/"/>
        <cc:attributionName>Caius Nocturne</cc:attributionName>
        <cc:attributionURL>http://mutant.tech/</cc:attributionURL>
    </cc:work>

</rdf:RDF>
</metadata>
<rect id="low_brightness" width="32" height="32" fill="none"/><g id="outline"><circle cx="16" cy="16" r="7"/><path d="m18 7c0-1.105-0.895-2-2-2s-2 0.895-2 2 0.895 2 2 2 2-0.895 2-2z" fill="none" stroke="#000" stroke-width="4px"/><path d="m23.778 11.05c0.781-0.781 0.781-2.047 0-2.828s-2.047-0.781-2.828 0-0.781 2.047 0 2.828 2.047 0.781 2.828 0z" fill="none" stroke="#000" stroke-width="4px"/><path d="m25 18c1.105 0 2-0.895 2-2s-0.895-2-2-2-2 0.895-2 2 0.895 2 2 2z" fill="none" stroke="#000" stroke-width="4px"/><path d="m20.95 23.778c0.781 0.781 2.047 0.781 2.828 0s0.781-2.047 0-2.828-2.047-0.781-2.828 0-0.781 2.047 0 2.828z" fill="none" stroke="#000" stroke-width="4px"/><path d="m18 25c0-1.105-0.895-2-2-2s-2 0.895-2 2 0.895 2 2 2 2-0.895 2-2z" fill="none" stroke="#000" stroke-width="4px"/><path d="m11.05 23.778c0.781-0.781 0.781-2.047 0-2.828s-2.047-0.781-2.828 0-0.781 2.047 0 2.828 2.047 0.781 2.828 0z" fill="none" stroke="#000" stroke-width="4px"/><path d="m7 18c1.105 0 2-0.895 2-2s-0.895-2-2-2-2 0.895-2 2 0.895 2 2 2z" fill="none" stroke="#000" stroke-width="4px"/><path d="m8.222 11.05c0.781 0.781 2.047 0.781 2.828 0s0.781-2.047 0-2.828-2.047-0.781-2.828 0-0.781 2.047 0 2.828z" fill="none" stroke="#000" stroke-width="4px"/></g><g id="emoji"><circle cx="16" cy="16" r="6" fill="#ef9b00"/><circle cx="16" cy="16" r="3"/><path d="m18 7c0-1.105-0.895-2-2-2s-2 0.895-2 2 0.895 2 2 2 2-0.895 2-2z" fill="#ef9b00"/><path d="m23.778 11.05c0.781-0.781 0.781-2.047 0-2.828s-2.047-0.781-2.828 0-0.781 2.047 0 2.828 2.047 0.781 2.828 0z" fill="#ef9b00"/><path d="m25 18c1.105 0 2-0.895 2-2s-0.895-2-2-2-2 0.895-2 2 0.895 2 2 2z" fill="#ef9b00"/><path d="m20.95 23.778c0.781 0.781 2.047 0.781 2.828 0s0.781-2.047 0-2.828-2.047-0.781-2.828 0-0.781 2.047 0 2.828z" fill="#ef9b00"/><path d="m18 25c0-1.105-0.895-2-2-2s-2 0.895-2 2 0.895 2 2 2 2-0.895 2-2z" fill="#ef9b00"/><path d="m11.05 23.778c0.781-0.781 0.781-2.047 0-2.828s-2.047-0.781-2.828 0-0.781 2.047 0 2.828 2.047 0.781 2.828 0z" fill="#ef9b00"/><path d="m7 18c1.105 0 2-0.895 2-2s-0.895-2-2-2-2 0.895-2 2 0.895 2 2 2z" fill="#ef9b00"/><path d="m8.222 11.05c0.781 0.781 2.047 0.781 2.828 0s0.781-2.047 0-2.828-2.047-0.781-2.828 0-0.781 2.047 0 2.828z" fill="#ef9b00"/></g></svg>
