<?xml version="1.0" encoding="UTF-8"?>
<!DOCTYPE svg  PUBLIC '-//W3C//DTD SVG 1.1//EN'  'http://www.w3.org/Graphics/SVG/1.1/DTD/svg11.dtd'>
<svg clip-rule="evenodd" fill-rule="evenodd" stroke-linejoin="round" stroke-miterlimit="1.4142" version="1.1" viewBox="0 0 32 32" xml:space="preserve" xmlns="http://www.w3.org/2000/svg">
<metadata>
<rdf:RDF xmlns:cc="http://web.resource.org/cc/" xmlns:dc="http://purl.org/dc/elements/1.1/" xmlns:rdf="http://www.w3.org/1999/02/22-rdf-syntax-ns#">

     <rdf:Description rdf:about="">
       <dc:title>Mutant Standard emoji 2023.12</dc:title>
     </rdf:Description>

    <cc:work rdf:about="">
        <cc:license rdf:resource="http://creativecommons.org/licenses/by-nc-sa/4.0/"/>
        <cc:attributionName>Caius Nocturne</cc:attributionName>
        <cc:attributionURL>http://mutant.tech/</cc:attributionURL>
    </cc:work>

</rdf:RDF>
</metadata>
<rect id="numbers" width="32" height="32" fill="none"/><clipPath id="_clip1"><rect width="32" height="32"/></clipPath><g clip-path="url(#_clip1)"><g id="outline"><path d="m32 8c0-4.418-3.582-8-8-8h-16c-4.418 0-8 3.582-8 8v16c0 4.418 3.582 8 8 8h16c4.418 0 8-3.582 8-8v-16z"/></g><g id="emoji"><path d="m30 8c0-1.591-0.632-3.117-1.757-4.243-1.126-1.125-2.652-1.757-4.243-1.757h-16c-1.591 0-3.117 0.632-4.243 1.757-1.125 1.126-1.757 2.652-1.757 4.243v16c0 1.591 0.632 3.117 1.757 4.243 1.126 1.125 2.652 1.757 4.243 1.757h16c1.591 0 3.117-0.632 4.243-1.757 1.125-1.126 1.757-2.652 1.757-4.243v-16z" fill="#fff"/><path d="m10.403 6.702-2.129 1.23v-1.954l2.129-1.26h1.897v9.991h-1.897v-8.007z" fill="#333" fill-rule="nonzero"/><path d="m17.696 13.203 3.736-3.996c0.319-0.309 0.541-0.587 0.666-0.833 0.126-0.246 0.188-0.514 0.188-0.804v-0.159c0-0.386-0.128-0.69-0.383-0.912-0.256-0.222-0.606-0.333-1.05-0.333-0.435 0-0.777 0.106-1.028 0.318-0.251 0.213-0.377 0.507-0.377 0.884v0.231h-1.81v-0.347c0-0.821 0.29-1.475 0.869-1.962 0.579-0.488 1.371-0.731 2.375-0.731 0.676 0 1.264 0.118 1.766 0.354 0.502 0.237 0.886 0.567 1.152 0.992 0.265 0.425 0.398 0.912 0.398 1.463v0.188c0 0.512-0.102 0.975-0.304 1.39-0.203 0.415-0.517 0.835-0.942 1.26l-2.693 2.838h3.953v1.665h-6.516v-1.506z" fill="#333" fill-rule="nonzero"/><path d="m8.258 26.365c-0.569-0.468-0.854-1.142-0.854-2.02v-0.159h1.767v0.115c0 0.377 0.13 0.664 0.391 0.862 0.26 0.198 0.637 0.297 1.129 0.297 0.483 0 0.854-0.118 1.115-0.355 0.261-0.236 0.391-0.567 0.391-0.992v-0.217c0-0.454-0.138-0.789-0.413-1.006-0.275-0.218-0.692-0.326-1.252-0.326h-0.565v-1.608h0.55c0.493 0 0.867-0.106 1.122-0.318 0.256-0.212 0.384-0.517 0.384-0.912v-0.174c0-0.377-0.12-0.669-0.362-0.876-0.241-0.208-0.584-0.312-1.028-0.312-0.454 0-0.801 0.102-1.042 0.305-0.242 0.202-0.362 0.492-0.362 0.868v0.131h-1.738v-0.131c0-0.897 0.275-1.585 0.825-2.063 0.551-0.478 1.337-0.717 2.361-0.717 1.004 0 1.79 0.232 2.36 0.695 0.569 0.464 0.854 1.101 0.854 1.912v0.188c0 0.463-0.118 0.869-0.355 1.216-0.236 0.348-0.581 0.623-1.035 0.826 0.512 0.173 0.9 0.458 1.166 0.854 0.265 0.396 0.398 0.878 0.398 1.448v0.232c0 0.907-0.302 1.624-0.905 2.15s-1.417 0.789-2.44 0.789c-1.072 0-1.892-0.234-2.462-0.702z" fill="#333" fill-rule="nonzero"/><path d="m24.596 25.315h-0.912v1.593h-1.897v-1.593h-4.532v-1.665l3.2-6.734h1.94l-3.215 6.734h2.607v-2.346h1.897v2.346h0.912v1.665z" fill="#333" fill-rule="nonzero"/></g></g></svg>
