<?xml version="1.0" encoding="UTF-8"?>
<!DOCTYPE svg  PUBLIC '-//W3C//DTD SVG 1.1//EN'  'http://www.w3.org/Graphics/SVG/1.1/DTD/svg11.dtd'>
<svg clip-rule="evenodd" fill-rule="evenodd" stroke-linejoin="round" stroke-miterlimit="1.4142" version="1.1" viewBox="0 0 32 32" xml:space="preserve" xmlns="http://www.w3.org/2000/svg">
<metadata>
<rdf:RDF xmlns:cc="http://web.resource.org/cc/" xmlns:dc="http://purl.org/dc/elements/1.1/" xmlns:rdf="http://www.w3.org/1999/02/22-rdf-syntax-ns#">

     <rdf:Description rdf:about="">
       <dc:title>Mutant Standard emoji 2023.12</dc:title>
     </rdf:Description>

    <cc:work rdf:about="">
        <cc:license rdf:resource="http://creativecommons.org/licenses/by-nc-sa/4.0/"/>
        <cc:attributionName>Caius Nocturne</cc:attributionName>
        <cc:attributionURL>http://mutant.tech/</cc:attributionURL>
    </cc:work>

</rdf:RDF>
</metadata>
<rect id="special_characters" width="32" height="32" fill="none"/><clipPath id="_clip1"><rect width="32" height="32"/></clipPath><g clip-path="url(#_clip1)"><g id="outline"><path d="m32 8c0-4.418-3.582-8-8-8h-16c-4.418 0-8 3.582-8 8v16c0 4.418 3.582 8 8 8h16c4.418 0 8-3.582 8-8v-16z"/></g><g id="emoji"><path d="m30 8c0-1.591-0.632-3.117-1.757-4.243-1.126-1.125-2.652-1.757-4.243-1.757h-16c-1.591 0-3.117 0.632-4.243 1.757-1.125 1.126-1.757 2.652-1.757 4.243v16c0 1.591 0.632 3.117 1.757 4.243 1.126 1.125 2.652 1.757 4.243 1.757h16c1.591 0 3.117-0.632 4.243-1.757 1.125-1.126 1.757-2.652 1.757-4.243v-16z" fill="#fff"/><g fill="#333"><path d="m11.282 21.451c0-0.203-0.038-0.366-0.113-0.49s-0.198-0.186-0.368-0.186-0.33 0.034-0.48 0.103c-0.15 0.068-0.287 0.168-0.412 0.299-0.287 0.313-0.431 0.686-0.431 1.117 0 0.294 0.077 0.518 0.231 0.671 0.153 0.154 0.344 0.23 0.573 0.23s0.42-0.063 0.573-0.191c0.154-0.127 0.296-0.318 0.427-0.573v-0.98zm0.931 1.274c0 0.333 0.114 0.5 0.343 0.5 0.104 0 0.223-0.034 0.357-0.103s0.26-0.181 0.378-0.338c0.281-0.366 0.421-0.853 0.421-1.46 0-0.758-0.251-1.369-0.755-1.833-0.542-0.497-1.261-0.745-2.156-0.745-1.078 0-1.96 0.333-2.646 1-0.679 0.653-1.019 1.476-1.019 2.469 0 0.961 0.323 1.719 0.97 2.274 0.68 0.595 1.607 0.892 2.784 0.892v0.951c-0.745 0-1.42-0.11-2.024-0.329-0.605-0.219-1.122-0.516-1.554-0.892-0.431-0.375-0.762-0.818-0.994-1.328-0.232-0.509-0.348-1.076-0.348-1.7s0.121-1.209 0.362-1.754c0.242-0.546 0.579-1.013 1.01-1.402 0.431-0.388 0.942-0.689 1.534-0.901 0.591-0.213 1.212-0.319 1.862-0.319s1.226 0.093 1.729 0.279c0.504 0.187 0.933 0.443 1.289 0.77s0.632 0.71 0.828 1.151 0.294 0.9 0.294 1.377-0.068 0.891-0.205 1.24c-0.138 0.35-0.316 0.644-0.535 0.882-0.218 0.239-0.47 0.42-0.754 0.544s-0.578 0.186-0.882 0.186-0.554-0.057-0.75-0.171c-0.196-0.115-0.323-0.276-0.382-0.485l-0.059-0.157c-0.131 0.248-0.289 0.446-0.475 0.593-0.187 0.147-0.417 0.22-0.691 0.22-0.275 0-0.508-0.045-0.701-0.137-0.193-0.091-0.364-0.216-0.515-0.372-0.333-0.36-0.499-0.797-0.499-1.314 0-0.673 0.235-1.248 0.705-1.724 0.458-0.471 1.01-0.706 1.657-0.706 0.431 0 0.775 0.129 1.033 0.387 0.259 0.258 0.388 0.648 0.388 1.171v1.284z" fill-rule="nonzero"/><path d="m19.045 17.199c0.233 0 0.457 0.041 0.673 0.123s0.406 0.205 0.57 0.369c0.354 0.336 0.53 0.824 0.53 1.462 0 0.63-0.176 1.122-0.53 1.476-0.328 0.328-0.747 0.492-1.256 0.492-0.492 0-0.902-0.164-1.229-0.492-0.354-0.354-0.531-0.846-0.531-1.476 0-0.638 0.177-1.126 0.531-1.462 0.336-0.328 0.75-0.492 1.242-0.492zm0.621 1.954c0-0.656-0.211-0.983-0.634-0.983-0.414 0-0.621 0.327-0.621 0.983 0 0.665 0.207 0.997 0.621 0.997 0.423 0 0.634-0.332 0.634-0.997zm3.884-1.786h1.54l-5.682 8.401h-1.554l5.696-8.401zm0.349 4.647c0.492 0 0.906 0.164 1.243 0.492 0.353 0.336 0.53 0.824 0.53 1.462 0 0.639-0.177 1.135-0.53 1.489-0.328 0.328-0.743 0.492-1.243 0.492s-0.915-0.164-1.243-0.492c-0.353-0.354-0.53-0.85-0.53-1.489 0-0.638 0.177-1.126 0.53-1.462 0.337-0.328 0.751-0.492 1.243-0.492zm0 0.971c-0.414 0-0.621 0.33-0.621 0.99s0.207 0.99 0.621 0.99c0.181 0 0.332-0.075 0.453-0.226s0.181-0.406 0.181-0.764-0.06-0.613-0.181-0.764-0.272-0.226-0.453-0.226z" fill-rule="nonzero"/><path d="m15.507 10.499h-3.61v4.302h-1.434v-4.302h-3.561v-1.435h8.605v1.435zm0-2.869h-8.605v-1.434h8.605v1.434z"/><path d="m21.832 11.094v-5.238l0.303-0.188c1.201 0.601 2.402 1.201 3.603 1.802l-0.641 1.283-1.831-0.916v4.851c0 0.965-1.094 1.749-2.442 1.749s-2.442-0.784-2.442-1.749c0-0.966 1.094-1.75 2.442-1.75 0.359 0 0.701 0.056 1.008 0.156z"/></g></g></g></svg>
