<?xml version="1.0" encoding="UTF-8"?>
<!DOCTYPE svg  PUBLIC '-//W3C//DTD SVG 1.1//EN'  'http://www.w3.org/Graphics/SVG/1.1/DTD/svg11.dtd'>
<svg clip-rule="evenodd" fill-rule="evenodd" stroke-linecap="round" stroke-linejoin="round" stroke-miterlimit="1.5" version="1.1" viewBox="0 0 32 32" xml:space="preserve" xmlns="http://www.w3.org/2000/svg">
<metadata>
<rdf:RDF xmlns:cc="http://web.resource.org/cc/" xmlns:dc="http://purl.org/dc/elements/1.1/" xmlns:rdf="http://www.w3.org/1999/02/22-rdf-syntax-ns#">

     <rdf:Description rdf:about="">
       <dc:title>Mutant Standard emoji 2023.12</dc:title>
     </rdf:Description>

    <cc:work rdf:about="">
        <cc:license rdf:resource="http://creativecommons.org/licenses/by-nc-sa/4.0/"/>
        <cc:attributionName>Caius Nocturne</cc:attributionName>
        <cc:attributionURL>http://mutant.tech/</cc:attributionURL>
    </cc:work>

</rdf:RDF>
</metadata>

    <rect id="arms_in_the_air" width="32" height="32" fill="none"/>
    <clipPath id="_clip1">
        <rect width="32" height="32"/>
    </clipPath>
    <g clip-path="url(#_clip1)">
        <g id="outline">
            <path d="m28.901 5.427 0.155 0.021 0.153 0.03 0.153 0.037 0.15 0.044 0.149 0.053 0.147 0.06 0.121 0.056 0.103 0.052 0.107 0.057 0.124 0.072 0.12 0.078 0.115 0.083 0.111 0.087 0.106 0.092 0.102 0.096 0.097 0.1 0.092 0.104 0.087 0.107 0.082 0.111 0.077 0.114 0.072 0.116 0.066 0.119 0.061 0.123 0.056 0.125 0.051 0.127 0.044 0.128 0.04 0.132 0.033 0.132 0.028 0.135 0.022 0.136 0.017 0.137 0.01 0.139 4e-3 0.139-2e-3 0.139-9e-3 0.141-0.015 0.141-0.021 0.139-0.027 0.14-0.034 0.14-0.034 0.116-7.152 22.475h-16.924l-7.152-22.475-0.034-0.116-0.034-0.139-0.027-0.141-0.022-0.14-0.014-0.14-9e-3 -0.141-2e-3 -0.139 4e-3 -0.139 0.01-0.139 0.017-0.137 0.022-0.136 0.028-0.135 0.033-0.133 0.039-0.13 0.045-0.129 0.051-0.128 0.056-0.124 0.061-0.123 0.066-0.119 0.072-0.116 0.077-0.114 0.082-0.111 0.087-0.107 0.092-0.104 0.097-0.1 0.102-0.096 0.106-0.091 0.111-0.088 0.116-0.083 0.119-0.078 0.124-0.072 0.107-0.057 0.103-0.052 0.121-0.057 0.147-0.059 0.149-0.053 0.15-0.044 0.153-0.037 0.153-0.03 0.155-0.021 0.155-0.014 0.157-7e-3 0.156 2e-3 0.156 9e-3 0.156 0.017 0.155 0.025 0.154 0.032 0.153 0.041 0.151 0.048 0.149 0.055 0.145 0.063 0.141 0.07 0.137 0.077 0.133 0.083 0.129 0.089 0.123 0.096 0.119 0.101 0.114 0.108 0.108 0.112 0.102 0.118 0.097 0.124 0.091 0.128 0.084 0.133 0.078 0.138 0.06 0.119 5.801 12.328 0.038 0.078 0.035 0.07 0.036 0.068 0.037 0.068 0.039 0.067 0.039 0.066 0.041 0.066 0.084 0.128 0.044 0.062 0.045 0.062 0.046 0.061 0.046 0.06 0.048 0.058 0.049 0.059 0.05 0.057 0.051 0.056 0.051 0.055 0.106 0.108 0.054 0.052 0.055 0.051 0.057 0.051 0.057 0.049 0.057 0.048 0.059 0.047 0.059 0.046 0.06 0.045 0.061 0.045 0.062 0.043 0.062 0.041 0.063 0.041 0.064 0.04 0.065 0.039 0.065 0.037 0.065 0.036 0.067 0.036 0.067 0.033 0.068 0.033 0.068 0.032 0.069 0.031 0.069 0.029 0.07 0.028 0.07 0.027 0.071 0.026 0.072 0.024 0.071 0.023 0.073 0.022 0.073 0.021 0.073 0.019 0.074 0.018 0.074 0.017 0.074 0.016 0.075 0.014 0.076 0.013 0.075 0.012 0.076 0.01 0.077 9e-3 0.076 7e-3 0.077 7e-3 0.078 5e-3 0.077 3e-3 0.078 2e-3 0.079 1e-3 0.079-1e-3 0.078-2e-3 0.077-3e-3 0.078-5e-3 0.077-7e-3 0.076-7e-3 0.077-9e-3 0.076-0.01 0.075-0.012 0.076-0.013 0.075-0.014 0.074-0.016 0.074-0.017 0.074-0.018 0.073-0.019 0.073-0.021 0.072-0.022 0.072-0.023 0.072-0.024 0.071-0.026 0.07-0.027 0.07-0.028 0.069-0.029 0.069-0.031 0.069-0.032 0.067-0.032 0.067-0.034 0.067-0.036 0.065-0.036 0.066-0.038 0.064-0.038 0.064-0.04 0.063-0.041 0.062-0.041 0.062-0.043 0.061-0.045 0.06-0.045 0.059-0.046 0.059-0.047 0.057-0.048 0.057-0.049 0.112-0.102 0.054-0.053 0.053-0.053 0.053-0.054 0.051-0.055 0.051-0.056 0.05-0.057 0.049-0.059 0.048-0.058 0.046-0.06 0.046-0.061 0.045-0.062 0.044-0.062 0.084-0.128 0.041-0.066 0.039-0.066 0.039-0.067 0.037-0.067 0.036-0.069 0.035-0.07 0.038-0.078 5.801-12.328 0.06-0.119 0.078-0.138 0.085-0.133 0.09-0.128 0.097-0.124 0.102-0.118 0.108-0.112 0.114-0.108 0.119-0.101 0.123-0.096 0.129-0.089 0.132-0.083 0.138-0.077 0.141-0.07 0.145-0.063 0.149-0.055 0.151-0.048 0.153-0.041 0.154-0.032 0.155-0.025 0.156-0.017 0.156-9e-3 0.156-2e-3 0.156 6e-3 0.156 0.015zm-5.392 15.814-0.062 0.127-0.067 0.134-0.07 0.132-0.072 0.132-0.074 0.129-0.076 0.128-0.079 0.126-0.08 0.124-0.083 0.122-0.084 0.122-0.087 0.119-0.088 0.117-0.091 0.116-0.092 0.114-0.095 0.112-0.096 0.11-0.098 0.109-0.099 0.107-0.102 0.104-0.103 0.103-0.105 0.101-0.106 0.099-0.108 0.097-0.11 0.095-0.112 0.093-0.113 0.091-0.114 0.089-0.116 0.087-0.117 0.085-0.119 0.083-0.12 0.081-0.122 0.079-0.123 0.076-0.124 0.075-0.126 0.072-0.126 0.07-0.129 0.068-0.129 0.065-0.13 0.064-0.132 0.061-0.133 0.059-0.133 0.056-0.136 0.054-0.136 0.052-0.137 0.05-0.137 0.047-0.139 0.045-0.14 0.042-0.141 0.04-0.142 0.038-0.142 0.035-0.143 0.032-0.144 0.031-0.145 0.027-0.146 0.025-0.146 0.023-0.147 0.019-0.147 0.018-0.148 0.014-0.148 0.013-0.15 9e-3 -0.149 7e-3 -0.15 4e-3 -0.141 1e-3h-0.02l-0.141-1e-3 -0.15-4e-3 -0.149-7e-3 -0.15-9e-3 -0.148-0.013-0.148-0.014-0.147-0.018-0.147-0.019-0.146-0.023-0.146-0.025-0.145-0.027-0.144-0.031-0.143-0.032-0.142-0.035-0.142-0.038-0.141-0.04-0.139-0.042-0.14-0.045-0.138-0.047-0.136-0.05-0.136-0.052-0.135-0.054-0.134-0.056-0.133-0.059-0.132-0.061-0.13-0.064-0.129-0.065-0.129-0.068-0.126-0.07-0.126-0.072-0.124-0.075-0.123-0.076-0.122-0.079-0.12-0.081-0.119-0.083-0.117-0.085-0.116-0.087-0.114-0.089-0.113-0.091-0.112-0.093-0.11-0.095-0.107-0.097-0.107-0.099-0.105-0.101-0.103-0.103-0.102-0.104-0.099-0.107-0.098-0.109-0.096-0.11-0.095-0.112-0.092-0.114-0.09-0.116-0.089-0.117-0.087-0.12-0.084-0.121-0.083-0.122-0.08-0.124-0.079-0.126-0.076-0.128-0.074-0.129-0.072-0.131-0.07-0.133-0.068-0.134-0.061-0.127-0.554-1.177 2.525 7.936h11.076l2.525-7.936-0.554 1.177z"/>
            <path d="m21 15c0-2.761-2.239-5-5-5s-5 2.239-5 5v2c0 2.761 2.239 5 5 5s5-2.239 5-5v-2z" fill="none" stroke="#000" stroke-width="4px"/>
            <path d="m16 5v-2" fill="none" stroke="#000" stroke-width="6px"/>
            <path d="m22 6 1-1" fill="none" stroke="#000" stroke-width="6px"/>
            <path d="m10 6-1-1" fill="none" stroke="#000" stroke-width="6px"/>
        </g>
        <g id="emoji">
            
                <path d="m23 30h-14l-4.136-13 0.136-1h2l1.706 1 0.59 1.254 0.636 2.319c2.356 3.494 3.435 4.074 6.105 4.037 3.398-0.046 4.626-1.201 6.104-4.366l0.563-1.99 0.59-1.254 0.706-1h3l0.136 1-4.136 13z" fill="#999"/>
                <path d="m22.704 18.254-0.161 1.771c-0.307 3.384-3.145 5.975-6.543 5.975s-6.236-2.591-6.543-5.975l-0.161-1.771 1.001 2.127c1.04 2.209 3.261 3.619 5.702 3.619h2e-3c2.441 0 4.662-1.41 5.702-3.619l1.001-2.127z" fill="#737373"/>
                <path d="m4.864 17-2.565-8.06c-0.172-0.541 0.075-1.127 0.583-1.381 0.021-0.01 0.041-0.021 0.062-0.031 0.277-0.139 0.6-0.16 0.893-0.058 0.294 0.102 0.534 0.318 0.666 0.599l4.203 8.931h-3.842zm18.43 0 4.203-8.931c0.132-0.281 0.372-0.497 0.666-0.599 0.293-0.102 0.616-0.081 0.893 0.058 0.021 0.01 0.041 0.021 0.062 0.031 0.508 0.254 0.755 0.84 0.583 1.381l-2.565 8.06h-3.842z" fill="#4D4D4D"/>
            
            <path d="m21 15c0-2.761-2.239-5-5-5s-5 2.239-5 5v2c0 2.761 2.239 5 5 5s5-2.239 5-5v-2z" fill="#4D4D4D"/>
            
                <path d="m14 15c0-0.552-0.448-1-1-1s-1 0.448-1 1v1c0 0.552 0.448 1 1 1s1-0.448 1-1v-1z"/>
                <path d="m20 15c0-0.552-0.448-1-1-1s-1 0.448-1 1v1c0 0.552 0.448 1 1 1s1-0.448 1-1v-1z"/>
            
            <path d="m16 5v-2" fill="none" stroke="#fff" stroke-width="2px"/>
            <path d="m22 6 1-1" fill="none" stroke="#fff" stroke-width="2px"/>
            <path d="m10 6-1-1" fill="none" stroke="#fff" stroke-width="2px"/>
        </g>
    </g>
</svg>
