<?xml version="1.0" encoding="UTF-8"?>
<!DOCTYPE svg  PUBLIC '-//W3C//DTD SVG 1.1//EN'  'http://www.w3.org/Graphics/SVG/1.1/DTD/svg11.dtd'>
<svg clip-rule="evenodd" fill-rule="evenodd" stroke-linejoin="round" stroke-miterlimit="2" version="1.1" viewBox="0 0 32 32" xml:space="preserve" xmlns="http://www.w3.org/2000/svg">
<metadata>
<rdf:RDF xmlns:cc="http://web.resource.org/cc/" xmlns:dc="http://purl.org/dc/elements/1.1/" xmlns:rdf="http://www.w3.org/1999/02/22-rdf-syntax-ns#">

     <rdf:Description rdf:about="">
       <dc:title>Mutant Standard emoji 2023.12</dc:title>
     </rdf:Description>

    <cc:work rdf:about="">
        <cc:license rdf:resource="http://creativecommons.org/licenses/by-nc-sa/4.0/"/>
        <cc:attributionName>Caius Nocturne</cc:attributionName>
        <cc:attributionURL>http://mutant.tech/</cc:attributionURL>
    </cc:work>

</rdf:RDF>
</metadata>

    <rect id="bow" width="32" height="32" fill="none"/>
    <clipPath id="_clip1">
        <rect width="32" height="32"/>
    </clipPath>
    <g clip-path="url(#_clip1)">
        <g id="outline">
            <path d="m8.996 17.56c2e-3 -0.217 3e-3 -0.433 5e-3 -0.65 0.015-0.848 0.171-1.694 0.487-2.483 0.21-0.523 0.478-1.021 0.804-1.481 0.717-1.007 1.7-1.818 2.826-2.327 0.578-0.261 1.192-0.443 1.818-0.538 0.293-0.045 0.588-0.069 0.884-0.079 0.09-1e-3 0.18-2e-3 0.27-1e-3 0.848 0.016 1.694 0.171 2.483 0.487 0.523 0.21 1.021 0.478 1.481 0.805 1.007 0.716 1.818 1.699 2.327 2.825 0.261 0.578 0.443 1.192 0.538 1.818 0.045 0.293 0.069 0.588 0.079 0.885 4e-3 0.246 7e-3 0.493 7e-3 0.739l0.335 0.112c0.272 0.094 0.537 0.201 0.794 0.331 0.552 0.278 1.06 0.642 1.501 1.074 0.266 0.262 0.504 0.548 0.72 0.852 1.01 1.481 1.989 2.982 2.984 4.473 0.129 0.202 0.245 0.41 0.339 0.631 0.154 0.36 0.255 0.742 0.298 1.131 0.016 0.141 0.021 0.282 0.024 0.423v5.413h-28v-5.413c3e-3 -0.141 8e-3 -0.282 0.024-0.423 0.038-0.34 0.12-0.676 0.243-0.995 0.088-0.23 0.2-0.446 0.325-0.658 0.969-1.514 1.992-2.992 2.988-4.487 0.209-0.306 0.439-0.595 0.698-0.859 0.461-0.471 1-0.865 1.588-1.162 0.257-0.13 0.522-0.237 0.794-0.331l0.336-0.112zm-0.953-13.56c0.543 0.011 1.076 0.164 1.538 0.451 0.187 0.115 0.358 0.251 0.516 0.403 0.376 0.372 0.761 0.736 1.12 1.125 0.247 0.274 0.445 0.589 0.579 0.933 0.163 0.419 0.23 0.873 0.195 1.321-0.036 0.459-0.179 0.909-0.415 1.304-0.141 0.237-0.316 0.455-0.517 0.644-0.242 0.23-0.523 0.418-0.828 0.555-0.336 0.151-0.699 0.239-1.067 0.26-0.391 0.021-0.785-0.035-1.155-0.164-0.392-0.138-0.75-0.357-1.056-0.639-0.401-0.379-0.796-0.766-1.17-1.172-0.247-0.274-0.445-0.589-0.579-0.933-0.1-0.257-0.164-0.529-0.19-0.804-0.085-0.889 0.241-1.789 0.877-2.417 0.237-0.235 0.514-0.43 0.815-0.574 0.354-0.169 0.738-0.265 1.13-0.289 0.069-3e-3 0.138-4e-3 0.207-4e-3zm15.983 0c0.369 5e-3 0.734 0.075 1.078 0.211 0.569 0.225 1.062 0.625 1.399 1.135 0.184 0.278 0.321 0.588 0.404 0.911 0.071 0.279 0.102 0.568 0.091 0.855-0.013 0.345-0.086 0.688-0.215 1.008-0.147 0.364-0.365 0.695-0.637 0.977-0.372 0.376-0.736 0.761-1.125 1.12-0.308 0.278-0.669 0.493-1.063 0.626-0.371 0.125-0.766 0.176-1.156 0.15-0.368-0.024-0.73-0.117-1.065-0.272-0.302-0.14-0.581-0.331-0.821-0.563-0.323-0.312-0.574-0.697-0.73-1.118-0.16-0.433-0.218-0.901-0.169-1.359 0.029-0.274 0.097-0.545 0.2-0.801 0.138-0.343 0.339-0.655 0.59-0.927 0.379-0.401 0.766-0.796 1.172-1.17 0.154-0.139 0.32-0.263 0.499-0.368 0.448-0.264 0.959-0.404 1.479-0.415h0.069zm-7.953-2.999c0.327 0.011 0.649 0.069 0.956 0.181 0.816 0.298 1.476 0.952 1.781 1.766 0.12 0.322 0.181 0.66 0.19 1.003 5e-3 0.716 0.016 1.431-2e-3 2.147-0.015 0.375-0.094 0.744-0.243 1.089-0.11 0.255-0.254 0.493-0.429 0.708-0.288 0.354-0.657 0.639-1.072 0.83-0.414 0.191-0.871 0.285-1.327 0.274-0.342-8e-3 -0.682-0.076-1.001-0.198-0.35-0.134-0.674-0.334-0.95-0.587-0.289-0.264-0.525-0.584-0.691-0.938-0.181-0.385-0.274-0.802-0.285-1.227-5e-3 -0.716-0.016-1.431 2e-3 -2.147 0.012-0.31 0.067-0.615 0.172-0.908 0.28-0.787 0.891-1.434 1.661-1.759 0.301-0.127 0.62-0.2 0.945-0.227 0.098-6e-3 0.195-9e-3 0.293-7e-3z"/>
        </g>
        <g id="emoji">
            <path d="m9.032 19.667c0.015 0.162 13.927 0.103 13.936 0 0.729 0.303 1.353 0.815 1.793 1.475 0.874 1.31 2.267 3.401 2.903 4.354 0.219 0.329 0.336 0.715 0.336 1.11v3.394h-24v-3.394c0-0.395 0.117-0.781 0.336-1.11 0.636-0.953 2.029-3.044 2.903-4.354 0.44-0.66 1.065-1.172 1.793-1.475z" fill="#999"/>
            <clipPath id="_clip2">
                <path d="m9.032 19.667c0.015 0.162 13.927 0.103 13.936 0 0.729 0.303 1.353 0.815 1.793 1.475 0.874 1.31 2.267 3.401 2.903 4.354 0.219 0.329 0.336 0.715 0.336 1.11v3.394h-24v-3.394c0-0.395 0.117-0.781 0.336-1.11 0.636-0.953 2.029-3.044 2.903-4.354 0.44-0.66 1.065-1.172 1.793-1.475z"/>
            </clipPath>
            <g clip-path="url(#_clip2)">
                <path d="m21 22c0-2.761-2.239-5-5-5s-5 2.239-5 5v2c0 2.761 2.239 5 5 5s5-2.239 5-5v-2z" fill="#737373"/>
                <path d="m29 31h-9v-3l4-1 5-1v5zm-17 0v-3l-4-1-5-1v5h9z" fill="#09A4E7"/>
                <path d="m13 31.5h-2c0-0.668 0.033-1.336-2e-3 -2.003-0.024-0.319-0.195-0.612-0.467-0.783-0.083-0.052-0.173-0.09-0.268-0.117l-0.026-7e-3 -3.603-0.901-0.16-0.578 3.526-3.525 1.414 1.414-1.458 1.458c0.278 0.07 0.557 0.137 0.834 0.209 0.303 0.087 0.592 0.213 0.856 0.386 0.584 0.384 1.023 0.97 1.225 1.638 0.085 0.281 0.126 0.572 0.129 0.865v1.944zm8 0h-2c0-0.668-6e-3 -1.335 1e-3 -2.003 2e-3 -0.064 5e-3 -0.127 0.01-0.191 0.028-0.291 0.091-0.576 0.199-0.849 0.25-0.63 0.714-1.165 1.302-1.501 0.238-0.135 0.491-0.235 0.755-0.304l0.777-0.194-1.458-1.458 1.414-1.414c1.175 1.175 2.35 2.35 3.526 3.525l-0.16 0.578c-1.224 0.306-2.465 0.55-3.671 0.92-0.303 0.1-0.546 0.338-0.646 0.643-0.03 0.093-0.046 0.19-0.049 0.288v0.027 1.933z"/>
            </g>
            <path d="m21 19 1.698 0.566c0.091 0.03 0.182 0.064 0.27 0.101-9e-3 0.103-0.021 0.206-0.036 0.309-0.092 0.657-0.278 1.301-0.551 1.906-0.347 0.768-0.835 1.472-1.431 2.068-0.516 0.516-1.113 0.951-1.762 1.283-0.587 0.301-1.217 0.518-1.865 0.642-1.354 0.259-2.778 0.112-4.048-0.426-0.623-0.263-1.207-0.618-1.728-1.048-0.736-0.607-1.346-1.364-1.78-2.213-0.328-0.639-0.555-1.329-0.673-2.038-0.026-0.16-0.047-0.321-0.062-0.483 0.089-0.037 0.179-0.071 0.27-0.101l1.698-0.566h10z" fill="#333"/>
            <path d="m21 17c0-2.761-2.239-5-5-5s-5 2.239-5 5v2c0 2.761 2.239 5 5 5s5-2.239 5-5v-2z" fill="#09A4E7"/>
            <clipPath id="_clip3">
                <path d="m21 17c0-2.761-2.239-5-5-5s-5 2.239-5 5v2c0 2.761 2.239 5 5 5s5-2.239 5-5v-2z"/>
            </clipPath>
            <g clip-path="url(#_clip3)">
                <path d="m13.02 19c0.113 4e-3 0.224 0.024 0.33 0.063 0.276 0.103 0.496 0.328 0.593 0.605 0.036 0.101 0.054 0.206 0.057 0.312 3e-3 0.366 0.022 0.734-3e-3 1.099-0.013 0.14-0.051 0.275-0.118 0.398-0.06 0.111-0.141 0.21-0.238 0.29-0.092 0.077-0.197 0.137-0.309 0.176-0.107 0.038-0.219 0.057-0.332 0.057-0.391 0-0.755-0.237-0.914-0.594-0.054-0.122-0.082-0.253-0.086-0.386-3e-3 -0.366-0.022-0.734 3e-3 -1.099 0.01-0.106 0.034-0.21 0.075-0.308 0.101-0.24 0.295-0.434 0.535-0.535 0.092-0.039 0.189-0.062 0.288-0.073 0.039-4e-3 0.079-5e-3 0.119-5e-3zm6 0c0.113 4e-3 0.224 0.024 0.33 0.063 0.276 0.103 0.496 0.328 0.593 0.605 0.036 0.101 0.054 0.206 0.057 0.312 3e-3 0.366 0.022 0.734-3e-3 1.099-0.013 0.14-0.051 0.275-0.118 0.398-0.06 0.111-0.141 0.21-0.238 0.29-0.092 0.077-0.197 0.137-0.309 0.176-0.107 0.038-0.219 0.057-0.332 0.057-0.391 0-0.755-0.237-0.914-0.594-0.054-0.122-0.082-0.253-0.086-0.386-3e-3 -0.366-0.022-0.734 3e-3 -1.099 0.01-0.106 0.034-0.21 0.075-0.308 0.101-0.24 0.295-0.434 0.535-0.535 0.092-0.039 0.189-0.062 0.288-0.073 0.039-4e-3 0.079-5e-3 0.119-5e-3z"/>
            </g>
            <path d="m8.03 6c0.235 0.01 0.456 0.097 0.634 0.252 0.383 0.347 0.757 0.709 1.097 1.099 0.085 0.102 0.151 0.219 0.192 0.346 0.119 0.373 3e-3 0.791-0.289 1.051-0.085 0.075-0.182 0.135-0.286 0.178-0.11 0.045-0.229 0.07-0.348 0.074-0.126 3e-3 -0.253-0.017-0.371-0.06-0.132-0.048-0.25-0.123-0.352-0.219-0.359-0.352-0.737-0.692-1.068-1.072-0.085-0.102-0.151-0.219-0.192-0.346-0.03-0.094-0.046-0.194-0.047-0.293-4e-3 -0.377 0.213-0.733 0.55-0.903 0.125-0.063 0.261-0.097 0.4-0.106 0.027-1e-3 0.053-1e-3 0.08-1e-3zm16 0c0.133 6e-3 0.263 0.035 0.385 0.09 0.102 0.047 0.197 0.111 0.278 0.189 0.287 0.276 0.383 0.709 0.24 1.081-0.048 0.124-0.121 0.236-0.212 0.333-0.352 0.359-0.692 0.737-1.072 1.068-0.108 0.09-0.23 0.158-0.365 0.198-0.12 0.036-0.248 0.048-0.373 0.037-0.119-0.011-0.236-0.043-0.344-0.094-0.101-0.049-0.194-0.115-0.274-0.195-0.277-0.277-0.367-0.701-0.226-1.067 0.048-0.124 0.121-0.236 0.212-0.333 0.352-0.359 0.692-0.737 1.072-1.068 0.181-0.151 0.404-0.234 0.639-0.239h0.04zm-8.002-3c0.113 5e-3 0.223 0.025 0.329 0.066 0.273 0.104 0.49 0.328 0.587 0.604 0.034 0.097 0.051 0.199 0.056 0.302 9e-3 0.695 0.028 1.39-2e-3 2.084-9e-3 0.141-0.045 0.277-0.11 0.403-0.06 0.116-0.143 0.221-0.243 0.305-0.093 0.078-0.2 0.14-0.315 0.18-0.097 0.034-0.199 0.053-0.302 0.056-0.38 0.01-0.742-0.203-0.916-0.541-0.07-0.134-0.105-0.281-0.112-0.431-9e-3 -0.695-0.028-1.39 2e-3 -2.084 7e-3 -0.103 0.027-0.204 0.064-0.301 0.094-0.246 0.285-0.448 0.526-0.556 0.094-0.042 0.194-0.068 0.296-0.081 0.047-4e-3 0.093-6e-3 0.14-6e-3z" fill="#fff"/>
        </g>
    </g>
</svg>
