<?xml version="1.0" encoding="UTF-8"?>
<!DOCTYPE svg  PUBLIC '-//W3C//DTD SVG 1.1//EN'  'http://www.w3.org/Graphics/SVG/1.1/DTD/svg11.dtd'>
<svg clip-rule="evenodd" fill-rule="evenodd" stroke-linejoin="round" stroke-miterlimit="2" version="1.1" viewBox="0 0 32 32" xml:space="preserve" xmlns="http://www.w3.org/2000/svg">
<metadata>
<rdf:RDF xmlns:cc="http://web.resource.org/cc/" xmlns:dc="http://purl.org/dc/elements/1.1/" xmlns:rdf="http://www.w3.org/1999/02/22-rdf-syntax-ns#">

     <rdf:Description rdf:about="">
       <dc:title>Mutant Standard emoji 2023.12</dc:title>
     </rdf:Description>

    <cc:work rdf:about="">
        <cc:license rdf:resource="http://creativecommons.org/licenses/by-nc-sa/4.0/"/>
        <cc:attributionName>Caius Nocturne</cc:attributionName>
        <cc:attributionURL>http://mutant.tech/</cc:attributionURL>
    </cc:work>

</rdf:RDF>
</metadata>

    <rect id="facepalm" width="32" height="32" fill="none"/>
    <g id="outline">
        <path d="m6.448 19.968c-0.146-0.474-0.258-0.958-0.333-1.448-0.07-0.461-0.105-0.925-0.114-1.391-7e-3 -1.086-7e-3 -2.172 0-3.258 6e-3 -0.34 0.025-0.679 0.064-1.017 0.085-0.741 0.253-1.473 0.501-2.177 0.469-1.33 1.222-2.556 2.196-3.577 1.055-1.107 2.363-1.967 3.8-2.493 0.739-0.27 1.51-0.453 2.292-0.542 0.338-0.039 0.677-0.058 1.017-0.064 0.129-1e-3 0.128-1e-3 0.258 0 0.34 6e-3 0.679 0.025 1.017 0.064 0.782 0.089 1.553 0.272 2.292 0.542 1.437 0.526 2.745 1.386 3.8 2.493 0.974 1.021 1.727 2.247 2.196 3.577 0.248 0.704 0.416 1.436 0.501 2.177 0.039 0.338 0.058 0.677 0.064 1.017 7e-3 1.086 7e-3 2.172 0 3.258-7e-3 0.382-0.031 0.763-0.079 1.142-0.063 0.491-0.161 0.976-0.296 1.452 0.614 0.304 1.184 0.698 1.685 1.167 0.69 0.646 1.248 1.432 1.628 2.299 0.195 0.445 0.343 0.91 0.441 1.386 0.044 0.212 0.076 0.425 0.103 0.64l0.754 6.785h-27.235c0-2.06-0.037-4.12 2e-3 -6.18 0.01-0.296 0.034-0.591 0.079-0.884 0.095-0.626 0.277-1.24 0.538-1.818 0.509-1.126 1.32-2.109 2.327-2.826 0.163-0.115 0.331-0.224 0.502-0.324z"/>
    </g>
    <g id="emoji">
        <path d="m24.885 21.591c1.409 0.756 2.422 2.169 2.609 3.857 0.252 2.267 0.506 4.552 0.506 4.552l-2-2h-9l-2 2h-10v-4c0-1.742 0.891-3.276 2.242-4.171 0.512 0.926 16.893 1.208 17.643-0.238z" fill="#999"/>
        <path d="m24 22.038v7.962h-9l-0.275-1.101c-3.443-0.552-6.152-3.3-6.645-6.762 2.97 0.571 12.859 0.696 15.92-0.099z" fill="#737373"/>
        <path d="m7.242 21.829c0.79-0.524 1.739-0.829 2.758-0.829h12.525c0.85 0 1.654 0.213 2.36 0.591-0.75 1.446-1.852 2.703-3.193 3.632-0.9 0.624-1.902 1.098-2.955 1.397-1.013 0.288-2.07 0.413-3.122 0.373-1.123-0.043-2.237-0.275-3.282-0.687-1.161-0.458-2.232-1.135-3.146-1.985-0.774-0.722-1.433-1.566-1.945-2.492z" fill="#333"/>
        <path d="m15.545 24.987c-4.207-0.236-7.545-3.722-7.545-7.987v-3c0-4.418 3.582-8 8-8s8 3.582 8 8c0 0.993-8.455 10.987-8.455 10.987z" fill="#FD9BD6"/>
        <path d="m16.979 9h4v14.262c-1.367 1.088-3.097 1.738-4.979 1.738-0.153 0-0.305-4e-3 -0.455-0.013l-2.405-5.61c-0.106-0.249-0.161-0.517-0.161-0.788v-5.589c0-1.061 0.421-2.078 1.171-2.828 0.75-0.751 1.768-1.172 2.829-1.172z" fill="#E461B2"/>
        <path d="m16.266 18c0.338 8e-3 0.673 0.05 1.002 0.133 0.776 0.196 1.493 0.609 2.053 1.181 0.183 0.187 0.355 0.391 0.497 0.611 3e-3 5e-3 -0.012-0.018-9e-3 -0.013 0.027 0.04 0.054 0.08 0.076 0.123 0.068 0.128 0.107 0.271 0.114 0.416 5e-3 0.113-8e-3 0.226-0.041 0.334-0.117 0.394-0.475 0.682-0.885 0.712-0.113 9e-3 -0.226-2e-3 -0.335-0.032-0.187-0.051-0.358-0.157-0.486-0.302-0.072-0.08-0.127-0.173-0.193-0.258-0.045-0.057-0.093-0.113-0.143-0.166-0.319-0.332-0.725-0.569-1.174-0.675-0.166-0.04-0.336-0.06-0.507-0.064-0.181-1e-3 -0.363-4e-3 -0.544 3e-3 -0.558 0.03-1.094 0.251-1.504 0.633-0.089 0.083-0.171 0.173-0.246 0.269-0.051 0.064-0.096 0.132-0.143 0.198-0.03 0.037-0.03 0.037-0.062 0.074-0.124 0.129-0.272 0.227-0.445 0.28-0.107 0.032-0.221 0.047-0.334 0.042-0.41-0.017-0.777-0.294-0.906-0.685-0.041-0.122-0.057-0.252-0.049-0.381 0.01-0.145 0.051-0.287 0.121-0.414 0.047-0.085 0.104-0.162 0.162-0.241 0.121-0.164 0.252-0.319 0.394-0.464 0.56-0.572 1.277-0.985 2.053-1.181 0.329-0.083 0.664-0.125 1.002-0.133 0.177-1e-3 0.355-1e-3 0.532 0zm5.769-4.999c0.15 7e-3 0.296 0.043 0.43 0.114 0.112 0.058 0.213 0.139 0.295 0.235 0.075 0.087 0.134 0.188 0.175 0.295 0.037 0.097 0.058 0.2 0.064 0.303 0.019 0.374-0.179 0.736-0.504 0.921-0.142 0.081-0.298 0.122-0.46 0.13-1.023 0.018-2.047 0.018-3.07 0-0.162-8e-3 -0.318-0.049-0.46-0.13-0.325-0.185-0.523-0.547-0.504-0.921 6e-3 -0.103 0.027-0.206 0.064-0.303 0.041-0.107 0.1-0.208 0.175-0.295 0.082-0.096 0.183-0.177 0.295-0.235 0.134-0.071 0.28-0.107 0.43-0.114 1.023-0.018 2.047-0.018 3.07 0zm-9 0c0.15 7e-3 0.296 0.043 0.43 0.114 0.112 0.058 0.213 0.139 0.295 0.235 0.075 0.087 0.134 0.188 0.175 0.295 0.133 0.35 0.055 0.755-0.198 1.031-0.07 0.076-0.152 0.142-0.242 0.193-0.142 0.081-0.298 0.122-0.46 0.13-1.023 0.018-2.047 0.018-3.07 0-0.15-7e-3 -0.296-0.043-0.43-0.114-0.112-0.058-0.213-0.139-0.295-0.235-0.075-0.087-0.134-0.188-0.175-0.295-0.133-0.35-0.055-0.755 0.198-1.031 0.07-0.076 0.152-0.142 0.242-0.193 0.142-0.081 0.298-0.122 0.46-0.13 1.023-0.018 2.047-0.018 3.07 0z"/>
        <path d="m20.124 8.001c0.165 7e-3 0.329 0.017 0.493 0.037 0.404 0.05 0.803 0.15 1.183 0.297 0.688 0.266 1.314 0.684 1.822 1.218 0.507 0.533 0.894 1.178 1.125 1.876 0.115 0.349 0.192 0.711 0.229 1.077 0.016 0.162 0.022 0.325 0.024 0.488v1.006h2.281l-0.707 2.828c-0.127 0.491-0.283 0.972-0.479 1.44-0.452 1.076-1.093 2.063-1.882 2.922l5.405 10.81h-10.005l-3.487-10.46c-0.158-0.158-0.318-0.314-0.473-0.475-0.068-0.072-0.134-0.145-0.199-0.22-0.382-0.449-0.701-0.946-0.94-1.485-0.319-0.721-0.488-1.496-0.512-2.282-0.025-1.361-2e-3 -2.723-2e-3 -4.084 2e-3 -0.163 8e-3 -0.326 0.024-0.488 0.037-0.366 0.114-0.728 0.229-1.077 0.231-0.698 0.618-1.343 1.125-1.876 0.508-0.534 1.134-0.952 1.822-1.218 0.38-0.147 0.779-0.247 1.183-0.297 0.164-0.02 0.328-0.03 0.493-0.037 0.416-5e-3 0.832-5e-3 1.248 0z" fill-rule="nonzero"/>
        <path d="m19.006 10c-0.348 4e-3 -0.689 0.058-1.017 0.176-0.839 0.3-1.513 0.974-1.813 1.813-0.108 0.302-0.163 0.616-0.175 0.936-0.017 1.384-0.041 2.769 2e-3 4.153 0.019 0.442 0.106 0.877 0.265 1.291 0.196 0.506 0.493 0.963 0.869 1.353l0.037 0.037 0.7 0.701 3.18 9.54h5.328l-4.599-9.197c0.281-0.281 0.564-0.561 0.842-0.844 0.094-0.099 0.094-0.098 0.186-0.198 0.179-0.203 0.352-0.411 0.512-0.629 0.399-0.543 0.728-1.137 0.978-1.763 0.101-0.251 0.189-0.508 0.263-0.768 0.057-0.199 0.105-0.4 0.155-0.601h-1.719c0-1.025 0.012-2.05-1e-3 -3.075-3e-3 -0.074-7e-3 -0.147-0.014-0.222-0.035-0.317-0.113-0.626-0.242-0.918-0.341-0.768-1.003-1.369-1.801-1.633-0.281-0.093-0.572-0.14-0.867-0.151-0.357-4e-3 -0.713-1e-3 -1.069-1e-3z" fill="#FD9BD6"/>
    </g>
</svg>
