<?xml version="1.0" encoding="UTF-8"?>
<!DOCTYPE svg  PUBLIC '-//W3C//DTD SVG 1.1//EN'  'http://www.w3.org/Graphics/SVG/1.1/DTD/svg11.dtd'>
<svg clip-rule="evenodd" fill-rule="evenodd" stroke-linecap="round" stroke-linejoin="round" stroke-miterlimit="1.5" version="1.1" viewBox="0 0 32 32" xml:space="preserve" xmlns="http://www.w3.org/2000/svg" xmlns:serif="http://www.serif.com/">
<metadata>
<rdf:RDF xmlns:cc="http://web.resource.org/cc/" xmlns:dc="http://purl.org/dc/elements/1.1/" xmlns:rdf="http://www.w3.org/1999/02/22-rdf-syntax-ns#">

     <rdf:Description rdf:about="">
       <dc:title>Mutant Standard emoji 2023.12</dc:title>
     </rdf:Description>

    <cc:work rdf:about="">
        <cc:license rdf:resource="http://creativecommons.org/licenses/by-nc-sa/4.0/"/>
        <cc:attributionName>Caius Nocturne</cc:attributionName>
        <cc:attributionURL>http://mutant.tech/</cc:attributionURL>
    </cc:work>

</rdf:RDF>
</metadata>

    <rect id="massage" width="32" height="32" fill="none"/>
    <clipPath id="_clip1">
        <rect width="32" height="32"/>
    </clipPath>
    <g clip-path="url(#_clip1)">
        <g id="outline">
            <path d="m24 13c0-4.418-3.582-8-8-8s-8 3.582-8 8v3c0 4.418 3.582 8 8 8s8-3.582 8-8v-3z" fill="#808080" stroke="#000" stroke-width="4px"/>
            <path d="m22.162 24.002 0.162 4e-3 0.16 8e-3 0.16 0.012 0.16 0.014 0.158 0.017 0.158 0.021 0.157 0.024 0.155 0.026 0.155 0.03 0.154 0.032 0.153 0.036 0.151 0.038 0.151 0.042 0.149 0.044 0.148 0.047 0.147 0.049 0.146 0.053 0.144 0.055 0.142 0.058 0.142 0.06 0.14 0.063 0.138 0.066 0.137 0.068 0.136 0.071 0.134 0.073 0.132 0.076 0.131 0.078 0.129 0.08 0.127 0.083 0.126 0.085 0.124 0.087 0.122 0.09 0.12 0.092 0.119 0.094 0.117 0.096 0.114 0.099 0.113 0.1 0.111 0.103 0.109 0.104 0.107 0.107 0.105 0.109 0.103 0.11 0.101 0.113 0.099 0.114 0.096 0.117 0.095 0.118 0.092 0.12 0.09 0.122 0.088 0.124 0.085 0.125 0.083 0.127 0.081 0.129 0.079 0.13 0.076 0.132 0.073 0.134 0.071 0.135 0.069 0.137 0.066 0.138 0.064 0.14 0.061 0.141 0.058 0.143 0.055 0.144 1.024 2.811h-29.027l1.022-2.811 0.055-0.144 0.059-0.142 0.06-0.141 0.064-0.14 0.066-0.138 0.069-0.137 0.071-0.135 0.073-0.134 0.076-0.132 0.079-0.131 0.08-0.128 0.084-0.128 0.085-0.125 0.088-0.124 0.09-0.121 0.092-0.121 0.094-0.118 0.097-0.116 0.099-0.115 0.101-0.112 0.102-0.111 0.105-0.109 0.107-0.106 0.109-0.105 0.111-0.103 0.113-0.1 0.115-0.098 0.117-0.097 0.118-0.094 0.12-0.092 0.123-0.089 0.123-0.088 0.126-0.085 0.127-0.083 0.129-0.08 0.131-0.078 0.133-0.076 0.133-0.073 0.136-0.071 0.137-0.068 0.138-0.066 0.14-0.063 0.142-0.06 0.142-0.058 0.145-0.055 0.145-0.053 0.147-0.049 0.148-0.047 0.149-0.044 0.151-0.042 0.151-0.038 0.153-0.036 0.154-0.032 0.155-0.03 0.155-0.026 0.157-0.024 0.158-0.021 0.158-0.017 0.16-0.014 0.16-0.012 0.16-8e-3 0.162-4e-3 0.152-2e-3h12.022l0.152 2e-3zm-12.154 3.998h-1e-3 11.984-1e-3 -11.982z"/>
        </g>
        <g id="emoji">
            <path d="m21.807 26h0.193c2.612 0 4.834 1.669 5.657 4h-23.315c0.822-2.331 3.044-4 5.656-4h0.195c1.458 1.539 10.156 1.539 11.614 0z" fill="#999"/>
            <path d="m21.807 26c-1.458 1.539-3.521 2.5-5.807 2.5s-4.349-0.961-5.807-2.5h11.614z" fill="#5C392E"/>
            <path d="m24 13c0-4.418-3.582-8-8-8s-8 3.582-8 8v3c0 4.418 3.582 8 8 8s8-3.582 8-8v-3z" fill="#5C392E"/>
            <path d="m25 9h-4.5c-0.828 0-1.5 0.672-1.5 1.5s0.672 1.5 1.5 1.5h4.5v-3z" fill="#412116"/>
            <path d="m7 9h4.5c0.828 0 1.5 0.672 1.5 1.5s-0.672 1.5-1.5 1.5h-4.5v-3z" fill="#412116"/>
            <path d="m18 14 2 1.5 2-1.5" fill="none" stroke="#000" stroke-linejoin="miter" stroke-width="2px"/>
            <path d="m10 14 2 1.5 2-1.5" fill="none" stroke="#000" stroke-linejoin="miter" stroke-width="2px"/>
            <path d="m6.195 5.222c-0.114 0.454 0.103 0.927 0.522 1.137 1.383 0.691 4.283 2.141 4.283 2.141s-0.066 0.132-0.165 0.329c-0.221 0.443-0.61 0.78-1.08 0.937s-0.983 0.12-1.426-0.101v-1e-3c-0.285-0.142-0.623-0.127-0.894 0.04-0.27 0.168-0.435 0.463-0.435 0.781v5.515h-1e-3c-1.194 0-2.254-0.764-2.631-1.897-0.354-1.061-0.779-2.335-1.06-3.179-0.204-0.612-0.308-1.253-0.308-1.898v-7.026h4s-0.515 2.058-0.805 3.222z" fill="none" stroke="#000" stroke-linecap="butt" stroke-miterlimit="2" stroke-width="4px"/>
            <path d="m25.805 5.222c0.114 0.454-0.103 0.927-0.522 1.137-1.383 0.691-4.283 2.141-4.283 2.141s0.066 0.132 0.165 0.329c0.221 0.443 0.61 0.78 1.08 0.937s0.983 0.12 1.426-0.101v-1e-3c0.285-0.142 0.623-0.127 0.894 0.04 0.27 0.168 0.435 0.463 0.435 0.781v5.515h1e-3c1.194 0 2.254-0.764 2.631-1.897 0.354-1.061 0.779-2.335 1.06-3.179 0.204-0.612 0.308-1.253 0.308-1.898v-7.026h-4s0.515 2.058 0.805 3.222z" fill="none" stroke="#000" stroke-linecap="butt" stroke-miterlimit="2" stroke-width="4px"/>
            <path d="m6.015 5.939c-0.01 0.04-0.028 0.078-0.053 0.111-1e-3 2e-3 -2e-3 3e-3 -3e-3 4e-3 -0.424 0.566-1.164 0.797-1.835 0.574-0.671-0.224-1.124-0.852-1.124-1.56v-3.068h4s-0.859 3.437-0.985 3.939z" fill="none" stroke="#000" stroke-linecap="butt" stroke-linejoin="miter" stroke-miterlimit="3" stroke-width="4px"/>
            <path d="m25.982 5.929c0.012 0.047 0.02 0.095 0.025 0.143 0.037 0.365 0.205 2.052 0.394 3.936 0.06 0.604 0.535 1.085 1.139 1.152 0.603 0.067 1.172-0.297 1.364-0.873 1e-3 -2e-3 2e-3 -4e-3 3e-3 -7e-3 0.061-0.185 0.093-0.38 0.093-0.576v-7.704h-4s0.849 3.394 0.982 3.929z" fill="none" stroke="#000" stroke-linecap="butt" stroke-linejoin="miter" stroke-miterlimit="3" stroke-width="4px"/>
            <path d="m6.195 5.222c-0.114 0.454 0.103 0.927 0.522 1.137 1.383 0.691 4.283 2.141 4.283 2.141s-0.066 0.132-0.165 0.329c-0.221 0.443-0.61 0.78-1.08 0.937s-0.983 0.12-1.426-0.101v-1e-3c-0.285-0.142-0.623-0.127-0.894 0.04-0.27 0.168-0.435 0.463-0.435 0.781v5.515h-1e-3c-1.194 0-2.254-0.764-2.631-1.897-0.354-1.061-0.779-2.335-1.06-3.179-0.204-0.612-0.308-1.253-0.308-1.898v-7.026h4s-0.515 2.058-0.805 3.222z" fill="#808080"/>
            <clipPath id="_clip2">
                <path d="m6.195 5.222c-0.114 0.454 0.103 0.927 0.522 1.137 1.383 0.691 4.283 2.141 4.283 2.141s-0.066 0.132-0.165 0.329c-0.221 0.443-0.61 0.78-1.08 0.937s-0.983 0.12-1.426-0.101v-1e-3c-0.285-0.142-0.623-0.127-0.894 0.04-0.27 0.168-0.435 0.463-0.435 0.781v5.515h-1e-3c-1.194 0-2.254-0.764-2.631-1.897-0.354-1.061-0.779-2.335-1.06-3.179-0.204-0.612-0.308-1.253-0.308-1.898v-7.026h4s-0.515 2.058-0.805 3.222z"/>
            </clipPath>
            <g clip-path="url(#_clip2)">
                <path d="m6.5 18-2-8" fill="none" stroke="#656565" stroke-linecap="butt" stroke-linejoin="miter" stroke-miterlimit="2" stroke-width="1px"/>
                <path id="_-Curve-" d="m10 9-8 2v-4h8v2z" fill="#808080" serif:id="(Curve)"/>
            </g>
            <path d="m25.805 5.222c0.114 0.454-0.103 0.927-0.522 1.137-1.383 0.691-4.283 2.141-4.283 2.141s0.066 0.132 0.165 0.329c0.221 0.443 0.61 0.78 1.08 0.937s0.983 0.12 1.426-0.101v-1e-3c0.285-0.142 0.623-0.127 0.894 0.04 0.27 0.168 0.435 0.463 0.435 0.781v5.515h1e-3c1.194 0 2.254-0.764 2.631-1.897 0.354-1.061 0.779-2.335 1.06-3.179 0.204-0.612 0.308-1.253 0.308-1.898v-7.026h-4s0.515 2.058 0.805 3.222z" fill="#808080"/>
            <clipPath id="_clip3">
                <path d="m25.805 5.222c0.114 0.454-0.103 0.927-0.522 1.137-1.383 0.691-4.283 2.141-4.283 2.141s0.066 0.132 0.165 0.329c0.221 0.443 0.61 0.78 1.08 0.937s0.983 0.12 1.426-0.101v-1e-3c0.285-0.142 0.623-0.127 0.894 0.04 0.27 0.168 0.435 0.463 0.435 0.781v5.515h1e-3c1.194 0 2.254-0.764 2.631-1.897 0.354-1.061 0.779-2.335 1.06-3.179 0.204-0.612 0.308-1.253 0.308-1.898v-7.026h-4s0.515 2.058 0.805 3.222z"/>
            </clipPath>
            <g clip-path="url(#_clip3)">
                <path d="m25.5 18 2-8" fill="none" stroke="#666" stroke-linecap="butt" stroke-linejoin="miter" stroke-miterlimit="2" stroke-width="1px"/>
                <path id="_-Curve-1" d="m22 9 8 2v-4h-8v2z" fill="#808080" serif:id="(Curve)"/>
            </g>
        </g>
    </g>
</svg>
