<?xml version="1.0" encoding="UTF-8"?>
<!DOCTYPE svg  PUBLIC '-//W3C//DTD SVG 1.1//EN'  'http://www.w3.org/Graphics/SVG/1.1/DTD/svg11.dtd'>
<svg clip-rule="evenodd" fill-rule="evenodd" stroke-linejoin="round" stroke-miterlimit="2" version="1.1" viewBox="0 0 32 32" xml:space="preserve" xmlns="http://www.w3.org/2000/svg">
<metadata>
<rdf:RDF xmlns:cc="http://web.resource.org/cc/" xmlns:dc="http://purl.org/dc/elements/1.1/" xmlns:rdf="http://www.w3.org/1999/02/22-rdf-syntax-ns#">

     <rdf:Description rdf:about="">
       <dc:title>Mutant Standard emoji 2023.12</dc:title>
     </rdf:Description>

    <cc:work rdf:about="">
        <cc:license rdf:resource="http://creativecommons.org/licenses/by-nc-sa/4.0/"/>
        <cc:attributionName>Caius Nocturne</cc:attributionName>
        <cc:attributionURL>http://mutant.tech/</cc:attributionURL>
    </cc:work>

</rdf:RDF>
</metadata>

    <rect id="no_good" width="32" height="32" fill="none"/>
    <clipPath id="_clip1">
        <rect width="32" height="32"/>
    </clipPath>
    <g clip-path="url(#_clip1)">
        <g id="outline">
            <path d="m8.005 12.271c-2e-3 -0.057-3e-3 -0.114-4e-3 -0.172-5e-3 -0.733-5e-3 -1.465 0-2.198 0.015-0.854 0.157-1.699 0.435-2.506 0.395-1.145 1.051-2.195 1.907-3.052 0.833-0.833 1.85-1.477 2.96-1.875 0.835-0.299 1.712-0.451 2.598-0.467 0.099-1e-3 0.099-1e-3 0.198 0 0.886 0.016 1.763 0.168 2.598 0.467 1.204 0.431 2.297 1.153 3.166 2.089 0.757 0.815 1.339 1.787 1.701 2.838 0.278 0.807 0.42 1.652 0.435 2.506 5e-3 0.733 5e-3 1.465 0 2.198-1e-3 0.058-2e-3 0.115-4e-3 0.172 0.015-9e-3 0.031-0.018 0.047-0.027 0.205-0.112 0.43-0.187 0.661-0.222 0.103-0.015 0.129-0.015 0.232-0.021 0.117 0 0.117 0 0.234 6e-3 0.117 0.013 0.231 0.03 0.345 0.06 0.226 0.06 0.44 0.16 0.632 0.294 0.097 0.067 0.183 0.144 0.268 0.225l1 1c0.071 0.075 0.091 0.093 0.155 0.174 0.097 0.122 0.179 0.256 0.245 0.397 0.231 0.498 0.246 1.081 0.041 1.59-0.073 0.183-0.175 0.346-0.293 0.502l-2.462 3.077c0.121 0.087 0.239 0.178 0.354 0.273 1.112 0.918 1.927 2.177 2.303 3.569 0.162 0.596 0.239 1.209 0.243 1.826v7.006h-24c0-2.393-0.044-4.787 2e-3 -7.18 0.026-0.818 0.181-1.632 0.486-2.393 0.21-0.523 0.478-1.021 0.804-1.481 0.444-0.623 0.99-1.171 1.608-1.619l-2.462-3.078c-0.062-0.082-0.08-0.102-0.135-0.19-0.082-0.132-0.149-0.274-0.199-0.422-0.175-0.52-0.125-1.101 0.135-1.584 0.093-0.174 0.212-0.324 0.347-0.467l1-1c0.085-0.081 0.171-0.158 0.268-0.225 0.192-0.134 0.406-0.234 0.632-0.294 0.114-0.03 0.228-0.047 0.345-0.06 0.117-6e-3 0.117-6e-3 0.234-6e-3 0.103 6e-3 0.129 6e-3 0.232 0.021 0.231 0.035 0.456 0.11 0.661 0.222 0.016 9e-3 0.032 0.018 0.047 0.027z"/>
        </g>
        <g id="emoji">
            <path d="m8.57 20.629c0.104 0.124 4.518 2.58 4.518 2.58l-1.399 6.791h-5.689v-5c0-1.88 1.037-3.517 2.57-4.371zm9.309 9.371h-3.758l1.879-4.879 1.879 4.879zm5.542-9.376c1.538 0.853 2.579 2.493 2.579 4.376v5h-4.939l-2.149-6.791 4.509-2.585z" fill="#999"/>
            <path d="m8.57 20.629c0.72-0.401 1.548-0.629 2.43-0.629h10c0.878 0 1.704 0.227 2.421 0.624l-0.25 0.313c-0.053 0.063-0.053 0.063-0.11 0.124l-2.149 2.148 2.025 1.62-1.874 2.342-2e-3 2.829h-3.182l-1.879-1.879-1.879 1.879h-2.432l-0.752-2.829-1.874-2.342 2.025-1.62-2.149-2.148-0.057-0.061c-0.104-0.123-0.208-0.247-0.312-0.371z" fill="#333"/>
            <path d="m12.155 24.276 2.845-0.276-0.061 3.061-2.939 2.939h-2v-4l2.155-1.724zm5.046-4.036 2.799-2.24 5-4 1 1-4 5-2.266 2.266-2.533-0.106v-1.92z" fill="#D445D9"/>
            <path d="m19.734 22.266-4.795 4.795-2.784-2.785 5.046-4.036 2.533 2.026z" fill="#5E0D79"/>
            <path d="m22 26v4h-2l-10-10-4-5 1-1 15 12z" fill="#D445D9"/>
            <path d="m22 10c0-1.591-0.632-3.117-1.757-4.243-1.126-1.125-2.652-1.757-4.243-1.757s-3.117 0.632-4.243 1.757c-1.125 1.126-1.757 2.652-1.757 4.243v2c0 1.591 0.632 3.117 1.757 4.243 1.126 1.125 2.652 1.757 4.243 1.757s3.117-0.632 4.243-1.757c1.125-1.126 1.757-2.652 1.757-4.243v-2z" fill="#D445D9"/>
            <clipPath id="_clip2">
                <path d="m22 10c0-1.591-0.632-3.117-1.757-4.243-1.126-1.125-2.652-1.757-4.243-1.757s-3.117 0.632-4.243 1.757c-1.125 1.126-1.757 2.652-1.757 4.243v2c0 1.591 0.632 3.117 1.757 4.243 1.126 1.125 2.652 1.757 4.243 1.757s3.117-0.632 4.243-1.757c1.125-1.126 1.757-2.652 1.757-4.243v-2z"/>
            </clipPath>
            <g clip-path="url(#_clip2)">
                <path d="m20.041 9.001c0.141 8e-3 0.278 0.041 0.405 0.104 0.109 0.054 0.207 0.128 0.29 0.218 0.244 0.265 0.327 0.651 0.213 0.993-0.033 0.098-0.081 0.19-0.141 0.273-0.089 0.122-0.204 0.22-0.336 0.293-0.687 0.355-1.37 0.72-2.076 1.036-0.13 0.054-0.268 0.084-0.409 0.082-0.131-2e-3 -0.262-0.03-0.382-0.081-0.112-0.048-0.214-0.117-0.302-0.201-0.073-0.072-0.136-0.155-0.185-0.246-0.179-0.335-0.15-0.754 0.074-1.061 0.089-0.122 0.204-0.22 0.336-0.293 0.687-0.355 1.37-0.72 2.076-1.036 0.087-0.036 0.176-0.061 0.269-0.074 0.056-6e-3 0.112-9e-3 0.168-7e-3zm-8.026-1e-3c0.142 4e-3 0.277 0.035 0.407 0.093 0.696 0.336 1.398 0.664 2.075 1.039 0.121 0.072 0.227 0.164 0.311 0.279 0.077 0.105 0.133 0.226 0.164 0.354 0.029 0.118 0.035 0.241 0.02 0.362-0.013 0.102-0.042 0.202-0.085 0.295-0.161 0.345-0.514 0.573-0.894 0.578-0.151 2e-3 -0.298-0.032-0.435-0.093-0.696-0.336-1.398-0.664-2.075-1.039-0.121-0.072-0.227-0.164-0.311-0.279-0.206-0.283-0.249-0.663-0.11-0.985 0.037-0.086 0.086-0.167 0.146-0.239 0.077-0.094 0.171-0.174 0.277-0.234 0.123-0.07 0.258-0.111 0.398-0.126 0.037-3e-3 0.074-5e-3 0.112-5e-3z"/>
            </g>
        </g>
    </g>
</svg>
