<?xml version="1.0" encoding="UTF-8"?>
<!DOCTYPE svg  PUBLIC '-//W3C//DTD SVG 1.1//EN'  'http://www.w3.org/Graphics/SVG/1.1/DTD/svg11.dtd'>
<svg clip-rule="evenodd" fill-rule="evenodd" stroke-linejoin="round" stroke-miterlimit="2" version="1.1" viewBox="0 0 32 32" xml:space="preserve" xmlns="http://www.w3.org/2000/svg">
<metadata>
<rdf:RDF xmlns:cc="http://web.resource.org/cc/" xmlns:dc="http://purl.org/dc/elements/1.1/" xmlns:rdf="http://www.w3.org/1999/02/22-rdf-syntax-ns#">

     <rdf:Description rdf:about="">
       <dc:title>Mutant Standard emoji 2023.12</dc:title>
     </rdf:Description>

    <cc:work rdf:about="">
        <cc:license rdf:resource="http://creativecommons.org/licenses/by-nc-sa/4.0/"/>
        <cc:attributionName>Caius Nocturne</cc:attributionName>
        <cc:attributionURL>http://mutant.tech/</cc:attributionURL>
    </cc:work>

</rdf:RDF>
</metadata>

    <rect id="ok_gesture" width="32" height="32" fill="none"/>
    <clipPath id="_clip1">
        <rect width="32" height="32"/>
    </clipPath>
    <g clip-path="url(#_clip1)">
        <g id="outline">
            <path d="m20.802 1e-3 0.1 2e-3 0.099 4e-3 0.099 6e-3 0.099 7e-3 0.099 9e-3 0.098 0.011 0.097 0.012 0.098 0.014 0.097 0.015 0.097 0.017 0.096 0.019 0.096 0.02 0.095 0.021 0.095 0.023 0.094 0.025 0.094 0.026 0.094 0.028 0.093 0.029 0.092 0.03 0.092 0.032 0.091 0.034 0.09 0.035 0.09 0.036 0.089 0.038 0.089 0.039 0.087 0.04 0.088 0.042 0.172 0.088 0.085 0.047 0.084 0.047 0.083 0.049 0.083 0.05 0.082 0.052 0.081 0.052 0.08 0.055 0.079 0.055 0.079 0.057 0.077 0.058 0.077 0.059 0.076 0.061 0.075 0.061 0.073 0.063 0.073 0.065 0.072 0.065 0.071 0.067 0.07 0.068 0.069 0.069 0.067 0.07 0.067 0.072 0.066 0.073 0.064 0.073 0.063 0.075 0.063 0.077 0.061 0.077 0.059 0.078 0.059 0.08 0.057 0.08 0.057 0.082 0.054 0.082 0.054 0.084 0.052 0.085 0.047 0.079 5.375 9.214 0.048 0.085 0.053 0.1 0.049 0.1 0.047 0.102 0.043 0.102 0.041 0.103 0.038 0.105 0.034 0.105 0.032 0.106 0.029 0.106 0.026 0.107 0.023 0.109 0.019 0.108 0.017 0.108 0.014 0.11 0.011 0.109 7e-3 0.109 5e-3 0.11 2e-3 0.111-1e-3 0.11-5e-3 0.11-7e-3 0.11-0.01 0.109-0.014 0.11-0.016 0.11-0.02 0.109-0.022 0.109-0.026 0.108-0.029 0.108-0.032 0.107-0.035 0.107-0.033 0.093-6.158 16.421h-18.772l-6.158-16.422-0.033-0.092-0.035-0.106-0.032-0.108-0.029-0.108-0.026-0.108-0.022-0.109-0.02-0.109-0.016-0.11-0.014-0.109-0.01-0.11-7e-3 -0.11-5e-3 -0.111-1e-3 -0.109 2e-3 -0.11 5e-3 -0.11 7e-3 -0.11 0.011-0.11 0.014-0.109 0.017-0.108 0.02-0.109 0.022-0.107 0.026-0.107 0.029-0.107 0.032-0.106 0.035-0.106 0.037-0.104 0.041-0.103 0.043-0.102 0.047-0.102 0.049-0.1 0.053-0.099 0.048-0.086 5.375-9.214 0.047-0.079 0.052-0.085 0.054-0.084 0.054-0.082 0.057-0.082 0.057-0.08 0.059-0.08 0.06-0.078 0.06-0.077 0.126-0.152 0.064-0.073 0.066-0.073 0.067-0.072 0.067-0.07 0.069-0.069 0.07-0.068 0.071-0.067 0.072-0.065 0.073-0.065 0.074-0.063 0.074-0.062 0.076-0.06 0.077-0.059 0.077-0.058 0.079-0.057 0.079-0.055 0.08-0.055 0.081-0.052 0.082-0.052 0.083-0.05 0.083-0.049 0.084-0.047 0.085-0.047 0.172-0.088 0.088-0.042 0.087-0.04 0.089-0.039 0.089-0.038 0.09-0.036 0.09-0.035 0.091-0.034 0.092-0.032 0.092-0.03 0.093-0.029 0.094-0.028 0.094-0.026 0.094-0.025 0.095-0.023 0.095-0.021 0.096-0.02 0.096-0.019 0.097-0.017 0.097-0.015 0.098-0.014 0.097-0.012 0.098-0.011 0.099-9e-3 0.099-7e-3 0.099-6e-3 0.099-4e-3 0.1-2e-3 0.091-1e-3h9.422l0.091 1e-3zm-11.416 27.999h13.228l3.68-9.815-1.408 3.1-0.072 0.154-0.078 0.16-0.081 0.159-0.084 0.157-0.086 0.155-0.089 0.152-0.092 0.152-0.094 0.149-0.097 0.147-0.099 0.145-0.101 0.143-0.104 0.141-0.106 0.139-0.109 0.136-0.11 0.135-0.113 0.132-0.116 0.131-0.117 0.128-0.12 0.125-0.121 0.124-0.124 0.121-0.126 0.119-0.127 0.116-0.13 0.114-0.132 0.112-0.133 0.11-0.135 0.107-0.137 0.104-0.139 0.102-0.141 0.1-0.142 0.097-0.144 0.094-0.146 0.092-0.147 0.09-0.149 0.087-0.15 0.084-0.152 0.081-0.154 0.079-0.154 0.076-0.157 0.074-0.157 0.071-0.159 0.068-0.16 0.065-0.162 0.062-0.163 0.06-0.164 0.057-0.165 0.054-0.166 0.051-0.167 0.048-0.168 0.045-0.17 0.042-0.17 0.04-0.171 0.036-0.173 0.033-0.173 0.03-0.173 0.027-0.175 0.024-0.176 0.021-0.176 0.018-0.176 0.014-0.178 0.011-0.178 9e-3 -0.178 4e-3 -0.17 2e-3h-0.02l-0.17-2e-3 -0.178-4e-3 -0.178-9e-3 -0.178-0.011-0.176-0.014-0.176-0.018-0.176-0.021-0.175-0.024-0.173-0.027-0.173-0.03-0.173-0.033-0.171-0.036-0.17-0.04-0.17-0.042-0.168-0.045-0.167-0.048-0.166-0.051-0.165-0.054-0.164-0.057-0.163-0.06-0.162-0.062-0.16-0.065-0.159-0.068-0.157-0.071-0.157-0.074-0.154-0.076-0.154-0.079-0.152-0.081-0.15-0.084-0.149-0.087-0.147-0.09-0.146-0.092-0.144-0.094-0.142-0.097-0.141-0.1-0.139-0.102-0.137-0.104-0.135-0.107-0.134-0.11-0.131-0.112-0.13-0.114-0.127-0.116-0.126-0.119-0.124-0.121-0.121-0.124-0.12-0.126-0.117-0.127-0.115-0.131-0.114-0.132-0.11-0.135-0.109-0.136-0.106-0.139-0.104-0.141-0.101-0.143-0.099-0.145-0.097-0.147-0.094-0.149-0.092-0.152-0.089-0.152-0.086-0.155-0.084-0.157-0.081-0.159-0.078-0.16-0.072-0.154-1.408-3.1 3.68 9.815zm6.564-17-0.049 1e-3 -0.05 2e-3 -0.049 2e-3 -0.05 3e-3 -0.049 3e-3 -0.049 4e-3 -0.098 0.01-0.098 0.012-0.049 7e-3 -0.048 7e-3 -0.049 9e-3 -0.048 8e-3 -0.144 0.03-0.047 0.011-0.048 0.012-0.047 0.012-0.094 0.026-0.094 0.028-0.046 0.015-0.047 0.016-0.046 0.016-0.045 0.017-0.046 0.017-0.046 0.018-0.045 0.018-0.045 0.019-0.044 0.02-0.045 0.02-0.132 0.063-0.043 0.023-0.044 0.022-0.043 0.024-0.042 0.023-0.043 0.025-0.042 0.025-0.041 0.025-0.042 0.026-0.041 0.026-0.041 0.027-0.041 0.028-0.04 0.027-0.08 0.058-0.039 0.029-0.039 0.03-0.039 0.031-0.076 0.062-0.038 0.032-0.074 0.066-0.036 0.033-0.036 0.034-0.036 0.035-0.07 0.07-0.035 0.036-0.034 0.036-0.033 0.036-0.066 0.074-0.032 0.038-0.062 0.076-0.031 0.039-0.03 0.039-0.029 0.039-0.058 0.08-0.027 0.04-0.028 0.041-0.027 0.041-0.052 0.082-0.025 0.042-0.025 0.043-0.025 0.042-0.023 0.042-0.024 0.044-0.023 0.043-0.022 0.043-0.063 0.132-0.02 0.045-0.02 0.044-0.018 0.045-0.019 0.046-0.018 0.045-0.017 0.045-0.017 0.046-0.016 0.046-0.016 0.047-0.015 0.046-0.014 0.047-0.014 0.046-0.013 0.048-0.013 0.047-0.012 0.047-0.012 0.048-0.011 0.047-0.011 0.048-9e-3 0.048-0.01 0.048-8e-3 0.049-9e-3 0.048-7e-3 0.048-7e-3 0.049-0.012 0.098-0.01 0.098-4e-3 0.049-3e-3 0.049-3e-3 0.05-4e-3 0.098-1e-3 0.05v0.056 1.988 0.056l1e-3 0.05 4e-3 0.098 3e-3 0.05 3e-3 0.049 4e-3 0.049 0.01 0.098 0.012 0.098 7e-3 0.049 7e-3 0.048 9e-3 0.049 8e-3 0.048 0.01 0.048 9e-3 0.048 0.011 0.048 0.011 0.047 0.012 0.048 0.012 0.047 0.026 0.094 0.028 0.094 0.015 0.046 0.016 0.047 0.016 0.046 0.017 0.046 0.017 0.045 0.018 0.045 0.019 0.046 0.019 0.045 0.019 0.044 0.02 0.045 0.063 0.132 0.022 0.043 0.023 0.043 0.024 0.044 0.023 0.042 0.025 0.042 0.025 0.043 0.025 0.042 0.052 0.082 0.027 0.041 0.028 0.041 0.027 0.04 0.058 0.08 0.029 0.039 0.03 0.039 0.031 0.039 0.062 0.076 0.032 0.038 0.066 0.074 0.033 0.036 0.034 0.036 0.035 0.036 0.07 0.07 0.036 0.035 0.036 0.034 0.036 0.033 0.074 0.066 0.038 0.032 0.076 0.062 0.039 0.031 0.039 0.03 0.039 0.029 0.08 0.058 0.04 0.027 0.041 0.028 0.041 0.027 0.041 0.026 0.042 0.026 0.041 0.025 0.042 0.025 0.043 0.025 0.042 0.023 0.043 0.024 0.044 0.022 0.043 0.023 0.132 0.063 0.045 0.02 0.044 0.02 0.045 0.018 0.045 0.019 0.046 0.018 0.046 0.017 0.045 0.017 0.046 0.016 0.047 0.016 0.046 0.015 0.094 0.028 0.046 0.013 0.048 0.013 0.047 0.012 0.048 0.012 0.047 0.011 0.144 0.03 0.048 8e-3 0.049 9e-3 0.048 7e-3 0.049 7e-3 0.098 0.012 0.098 0.01 0.049 4e-3 0.049 3e-3 0.05 3e-3 0.049 2e-3 0.05 2e-3 0.049 1e-3h0.05 0.05l0.049-1e-3 0.05-2e-3 0.049-2e-3 0.05-3e-3 0.049-3e-3 0.049-4e-3 0.098-0.01 0.098-0.012 0.049-7e-3 0.048-7e-3 0.049-9e-3 0.048-8e-3 0.048-0.01 0.048-9e-3 0.096-0.022 0.094-0.024 0.048-0.013 0.046-0.013 0.094-0.028 0.046-0.015 0.047-0.016 0.046-0.016 0.045-0.017 0.046-0.017 0.046-0.018 0.045-0.019 0.045-0.018 0.044-0.02 0.045-0.02 0.132-0.063 0.043-0.023 0.044-0.022 0.043-0.024 0.042-0.023 0.043-0.025 0.084-0.05 0.082-0.052 0.041-0.027 0.041-0.028 0.04-0.027 0.08-0.058 0.039-0.029 0.039-0.03 0.039-0.031 0.076-0.062 0.038-0.032 0.074-0.066 0.036-0.033 0.036-0.034 0.036-0.035 0.07-0.07 0.035-0.036 0.034-0.036 0.033-0.036 0.066-0.074 0.032-0.038 0.062-0.076 0.031-0.039 0.03-0.039 0.029-0.039 0.058-0.08 0.027-0.04 0.028-0.041 0.027-0.041 0.052-0.082 0.05-0.084 0.025-0.043 0.023-0.042 0.024-0.044 0.023-0.043 0.022-0.043 0.063-0.132 0.02-0.045 0.019-0.044 0.02-0.046 0.036-0.09 0.034-0.092 0.016-0.045 0.016-0.047 0.015-0.046 0.028-0.094 0.026-0.094 0.012-0.047 0.012-0.048 0.011-0.047 0.011-0.048 9e-3 -0.048 0.01-0.048 8e-3 -0.048 9e-3 -0.049 7e-3 -0.048 7e-3 -0.049 0.012-0.098 0.01-0.098 4e-3 -0.049 3e-3 -0.049 3e-3 -0.05 2e-3 -0.049 2e-3 -0.05 1e-3 -0.049v-0.056-1.988-0.056l-1e-3 -0.049-2e-3 -0.05-2e-3 -0.049-3e-3 -0.05-3e-3 -0.049-4e-3 -0.049-0.01-0.098-0.012-0.098-7e-3 -0.049-7e-3 -0.048-9e-3 -0.049-8e-3 -0.048-0.01-0.048-9e-3 -0.048-0.011-0.048-0.011-0.047-0.012-0.048-0.012-0.047-0.013-0.047-0.013-0.048-0.014-0.046-0.014-0.047-0.015-0.046-0.016-0.047-0.016-0.045-0.034-0.092-0.036-0.09-0.02-0.046-0.019-0.044-0.02-0.045-0.063-0.132-0.022-0.043-0.023-0.043-0.024-0.044-0.023-0.042-0.025-0.043-0.05-0.084-0.052-0.082-0.027-0.041-0.028-0.041-0.027-0.04-0.058-0.08-0.029-0.039-0.03-0.039-0.031-0.039-0.062-0.076-0.032-0.038-0.066-0.074-0.033-0.036-0.034-0.036-0.035-0.036-0.07-0.07-0.036-0.035-0.036-0.034-0.036-0.033-0.074-0.066-0.038-0.032-0.076-0.062-0.039-0.031-0.039-0.03-0.039-0.029-0.08-0.058-0.04-0.027-0.041-0.028-0.041-0.027-0.082-0.052-0.084-0.05-0.043-0.025-0.042-0.023-0.043-0.024-0.044-0.022-0.043-0.023-0.132-0.063-0.045-0.02-0.044-0.02-0.045-0.019-0.045-0.018-0.046-0.018-0.046-0.017-0.045-0.017-0.046-0.016-0.047-0.016-0.046-0.015-0.094-0.028-0.094-0.026-0.047-0.012-0.048-0.012-0.047-0.011-0.048-0.011-0.048-9e-3 -0.048-0.01-0.048-8e-3 -0.049-9e-3 -0.048-7e-3 -0.049-7e-3 -0.098-0.012-0.098-0.01-0.049-4e-3 -0.049-3e-3 -0.05-3e-3 -0.049-2e-3 -0.05-2e-3 -0.049-1e-3h-0.05-0.05zm-4.453-4.445-1.31 2.949 0.017-0.019 0.069-0.071 0.07-0.071 0.071-0.07 0.071-0.068 0.072-0.068 0.074-0.068 0.073-0.065 0.075-0.065 0.075-0.064 0.076-0.063 0.077-0.062 0.077-0.061 0.078-0.06 0.078-0.059 0.08-0.058 0.08-0.057 0.08-0.056 0.082-0.055 0.082-0.054 0.082-0.053 0.083-0.051 0.084-0.051 0.084-0.05 0.17-0.096 0.086-0.047 0.086-0.045 0.087-0.044 0.088-0.044 0.088-0.042 0.088-0.041 0.089-0.04 0.09-0.039 0.089-0.038 0.091-0.037 0.091-0.036 0.091-0.034 0.092-0.034 0.092-0.032 0.092-0.031 0.093-0.03 0.093-0.029 0.094-0.028 0.094-0.027 0.094-0.025 0.095-0.025 0.095-0.023 0.095-0.022 0.096-0.021 0.096-0.02 0.096-0.018 0.097-0.018 0.097-0.016 0.097-0.015 0.097-0.014 0.098-0.013 0.097-0.012 0.098-0.01 0.099-9e-3 0.098-8e-3 0.099-7e-3 0.098-5e-3 0.099-5e-3 0.099-3e-3 0.1-1e-3 0.099-1e-3 0.099 1e-3 0.1 1e-3 0.099 3e-3 0.099 5e-3 0.098 5e-3 0.099 7e-3 0.098 8e-3 0.099 9e-3 0.098 0.01 0.097 0.012 0.098 0.013 0.097 0.014 0.097 0.015 0.097 0.016 0.097 0.017 0.096 0.019 0.096 0.02 0.096 0.021 0.095 0.022 0.095 0.023 0.095 0.025 0.094 0.025 0.094 0.027 0.094 0.028 0.093 0.029 0.093 0.03 0.092 0.031 0.092 0.032 0.092 0.034 0.091 0.034 0.091 0.036 0.091 0.037 0.089 0.038 0.09 0.039 0.089 0.04 0.088 0.041 0.088 0.042 0.088 0.044 0.087 0.044 0.086 0.045 0.086 0.047 0.17 0.096 0.084 0.05 0.084 0.051 0.083 0.051 0.083 0.053 0.081 0.054 0.082 0.055 0.08 0.056 0.08 0.057 0.08 0.058 0.078 0.059 0.078 0.06 0.077 0.061 0.077 0.062 0.076 0.063 0.075 0.064 0.075 0.065 0.073 0.066 0.074 0.067 0.072 0.068 0.071 0.068 0.071 0.07 0.07 0.071 0.069 0.071 0.017 0.019-1.31-2.949-4.503-1.801-4.503 1.801z"/>
        </g>
        <g id="emoji">
            <path d="m24 30h-16s-4.405-11.748-5.666-15.111c-0.108-0.287-0.147-0.591-0.119-0.889l0.785-1h2.5l0.5 1 2.347 5.163 0.41 1.472c1.57 3.479 3.043 4.865 6.684 4.865h1.118c3.641 0 5.642-2.242 6.727-4.789l0.367-1.548 2.347-5.163 0.5-1h2.5l0.785 1c0.028 0.298-0.011 0.602-0.119 0.889l-5.666 15.111z" fill="#999"/>
            <path d="m2.215 14c0.027-0.286 0.115-0.566 0.264-0.821 1.094-1.875 3.803-6.519 5.363-9.194 0.717-1.229 2.033-1.985 3.455-1.985h3.703v1l-5 2-4 9h-3.785zm23.785 0-4-9-5-2v-1h3.703c1.422 0 2.738 0.756 3.455 1.985 1.56 2.675 4.269 7.319 5.363 9.194 0.149 0.255 0.237 0.535 0.264 0.821h-3.785z" fill="#F2B38F"/>
            <path d="m8.347 19.163 0.584 1.286c1.26 2.771 4.024 4.551 7.068 4.551h2e-3c3.044 0 5.808-1.78 7.068-4.551l0.584-1.286-0.118 1.418c-0.302 3.628-3.335 6.419-6.976 6.419h-1.118c-3.641 0-6.674-2.791-6.976-6.419l-0.118-1.418z" fill="#737373"/>
            <path d="m22 15c0-1.591-0.632-3.117-1.757-4.243-1.126-1.125-2.652-1.757-4.243-1.757s-3.117 0.632-4.243 1.757c-1.125 1.126-1.757 2.652-1.757 4.243v2c0 1.591 0.632 3.117 1.757 4.243 1.126 1.125 2.652 1.757 4.243 1.757s3.117-0.632 4.243-1.757c1.125-1.126 1.757-2.652 1.757-4.243v-2z" fill="#F2B38F"/>
            <path d="m14 15c0-0.552-0.448-1-1-1s-1 0.448-1 1v1c0 0.552 0.448 1 1 1s1-0.448 1-1v-1z"/>
            <path d="m20 15c0-0.552-0.448-1-1-1s-1 0.448-1 1v1c0 0.552 0.448 1 1 1s1-0.448 1-1v-1z"/>
        </g>
    </g>
</svg>
