<?xml version="1.0" encoding="UTF-8"?>
<!DOCTYPE svg  PUBLIC '-//W3C//DTD SVG 1.1//EN'  'http://www.w3.org/Graphics/SVG/1.1/DTD/svg11.dtd'>
<svg clip-rule="evenodd" fill-rule="evenodd" stroke-linejoin="round" stroke-miterlimit="2" version="1.1" viewBox="0 0 32 32" xml:space="preserve" xmlns="http://www.w3.org/2000/svg">
<metadata>
<rdf:RDF xmlns:cc="http://web.resource.org/cc/" xmlns:dc="http://purl.org/dc/elements/1.1/" xmlns:rdf="http://www.w3.org/1999/02/22-rdf-syntax-ns#">

     <rdf:Description rdf:about="">
       <dc:title>Mutant Standard emoji 2023.12</dc:title>
     </rdf:Description>

    <cc:work rdf:about="">
        <cc:license rdf:resource="http://creativecommons.org/licenses/by-nc-sa/4.0/"/>
        <cc:attributionName>Caius Nocturne</cc:attributionName>
        <cc:attributionURL>http://mutant.tech/</cc:attributionURL>
    </cc:work>

</rdf:RDF>
</metadata>

    <rect id="person_pouting" width="32" height="32" fill="none"/>
    <clipPath id="_clip1">
        <rect width="32" height="32"/>
    </clipPath>
    <g clip-path="url(#_clip1)">
        <g id="outline">
            <path d="m10.083 23.062c-0.312-0.229-0.611-0.477-0.895-0.741-0.94-0.875-1.71-1.931-2.253-3.094-0.4-0.858-0.677-1.771-0.82-2.707-0.07-0.461-0.105-0.925-0.114-1.391-7e-3 -1.086-7e-3 -2.172 0-3.258 6e-3 -0.34 0.025-0.679 0.064-1.017 0.085-0.741 0.253-1.473 0.501-2.177 0.508-1.444 1.353-2.763 2.448-3.832 1.009-0.985 2.224-1.753 3.548-2.238 0.739-0.27 1.51-0.452 2.292-0.542 0.338-0.039 0.677-0.058 1.017-0.064 0.13-1e-3 0.129-1e-3 0.258 0 0.34 6e-3 0.679 0.025 1.017 0.064 0.782 0.089 1.553 0.272 2.292 0.542 1.324 0.485 2.539 1.253 3.548 2.238 1.095 1.069 1.94 2.388 2.448 3.832 0.248 0.704 0.416 1.436 0.501 2.177 0.039 0.338 0.058 0.677 0.064 1.017 7e-3 1.086 7e-3 2.172 0 3.258-7e-3 0.382-0.031 0.763-0.079 1.142-0.104 0.82-0.311 1.627-0.614 2.396-0.689 1.747-1.876 3.281-3.386 4.393 0.019 3e-3 0.037 5e-3 0.056 8e-3 0.657 0.092 1.301 0.278 1.906 0.551 0.564 0.255 1.094 0.586 1.572 0.98 1.112 0.918 1.927 2.177 2.303 3.569 0.162 0.596 0.239 1.209 0.243 1.826v2.006h-24c0-0.725-0.011-1.451 2e-3 -2.176 0.023-0.746 0.156-1.482 0.408-2.186 0.172-0.482 0.399-0.945 0.672-1.379 0.829-1.312 2.094-2.326 3.556-2.849 0.47-0.168 0.954-0.283 1.445-0.348z"/>
        </g>
        <g id="emoji">
            <path d="m21.709 25.05c2.425 0.344 4.291 2.429 4.291 4.95h-20v-2e-3c0-1.326 0.527-2.597 1.464-3.534 0.769-0.769 1.763-1.262 2.828-1.414 1.269 1.785 10.148 1.785 11.417 0z" fill="#999"/>
            <path d="m10.292 25.05c0.232-0.033 0.468-0.05 0.706-0.05h10.002c0.241 0 0.477 0.017 0.709 0.05-1.269 1.785-3.354 2.95-5.709 2.95s-4.439-1.165-5.708-2.95z" fill="#ED9298"/>
            <path d="m24 12c0-4.418-3.582-8-8-8s-8 3.582-8 8v3c0 4.418 3.582 8 8 8s8-3.582 8-8v-3z" fill="#ED9298"/>
            <clipPath id="_clip2">
                <path d="m24 12c0-4.418-3.582-8-8-8s-8 3.582-8 8v3c0 4.418 3.582 8 8 8s8-3.582 8-8v-3z"/>
            </clipPath>
            <g clip-path="url(#_clip2)">
                <path d="m17.028 19c0.141 6e-3 0.278 0.038 0.406 0.099 0.118 0.057 0.224 0.137 0.312 0.235 0.081 0.09 0.145 0.196 0.188 0.309 0.037 0.096 0.059 0.198 0.064 0.301 0.022 0.39-0.192 0.765-0.539 0.944-0.134 0.07-0.281 0.105-0.431 0.112-0.695 9e-3 -1.39 0.028-2.084-2e-3 -0.141-9e-3 -0.277-0.045-0.403-0.11-0.116-0.06-0.221-0.143-0.305-0.243-0.078-0.093-0.14-0.2-0.18-0.315-0.125-0.359-0.032-0.768 0.237-1.037 0.073-0.073 0.157-0.134 0.248-0.181 0.134-0.07 0.281-0.105 0.431-0.112 0.685-9e-3 1.371-9e-3 2.056 0z" fill="#DA657A" fill-rule="nonzero"/>
                <path d="m16.266 16.001c0.338 7e-3 0.673 0.049 1.002 0.132 0.798 0.202 1.533 0.632 2.099 1.23 0.125 0.131 0.241 0.269 0.347 0.414 0.063 0.085 0.126 0.171 0.174 0.264 0.082 0.158 0.12 0.337 0.11 0.514-6e-3 0.113-0.031 0.224-0.074 0.328-0.037 0.089-0.087 0.173-0.148 0.248-0.249 0.306-0.666 0.438-1.045 0.332-0.171-0.048-0.328-0.141-0.451-0.269-0.045-0.047-0.083-0.098-0.12-0.151l6e-3 9e-3c-0.014-0.02-0.027-0.039-0.04-0.059-0.044-0.059-0.089-0.117-0.137-0.173-0.127-0.146-0.27-0.277-0.429-0.389-0.399-0.28-0.879-0.431-1.366-0.431-0.28 0-0.555-0.011-0.83 0.041-0.426 0.08-0.828 0.28-1.15 0.571-0.144 0.13-0.271 0.279-0.38 0.44l6e-3 -9e-3c-0.027 0.04-0.027 0.039-0.056 0.078-0.031 0.037-0.031 0.037-0.064 0.073-0.127 0.126-0.277 0.221-0.451 0.269-0.109 0.03-0.222 0.042-0.335 0.035-0.41-0.027-0.77-0.313-0.89-0.706-0.038-0.123-0.052-0.254-0.04-0.382s0.048-0.254 0.108-0.369c0.048-0.093 0.111-0.179 0.174-0.264 0.12-0.163 0.251-0.318 0.393-0.463 0.56-0.572 1.277-0.985 2.053-1.181 0.329-0.083 0.664-0.125 1.002-0.132 0.177-2e-3 0.355-2e-3 0.532 0zm5.769-5c0.162 8e-3 0.318 0.049 0.46 0.13 0.09 0.051 0.172 0.117 0.242 0.193 0.253 0.276 0.331 0.681 0.198 1.031-0.041 0.107-0.1 0.208-0.175 0.295-0.082 0.096-0.183 0.177-0.295 0.235-0.134 0.071-0.28 0.107-0.43 0.114-1.023 0.018-2.047 0.018-3.07 0-0.15-7e-3 -0.296-0.043-0.43-0.114-0.112-0.058-0.213-0.139-0.295-0.235-0.075-0.087-0.134-0.188-0.175-0.295-0.133-0.35-0.055-0.755 0.198-1.031 0.07-0.076 0.152-0.142 0.242-0.193 0.142-0.081 0.298-0.122 0.46-0.13 1.023-0.018 2.047-0.018 3.07 0zm-9 0c0.15 7e-3 0.296 0.043 0.43 0.114 0.112 0.058 0.213 0.139 0.295 0.235 0.075 0.087 0.134 0.188 0.175 0.295 0.037 0.097 0.058 0.2 0.064 0.303 0.019 0.374-0.179 0.736-0.504 0.921-0.142 0.081-0.298 0.122-0.46 0.13-1.023 0.018-2.047 0.018-3.07 0-0.15-7e-3 -0.296-0.043-0.43-0.114-0.112-0.058-0.213-0.139-0.295-0.235-0.075-0.087-0.134-0.188-0.175-0.295-0.037-0.097-0.058-0.2-0.064-0.303-0.019-0.374 0.179-0.736 0.504-0.921 0.142-0.081 0.298-0.122 0.46-0.13 1.023-0.018 2.047-0.018 3.07 0z"/>
            </g>
        </g>
    </g>
</svg>
