<?xml version="1.0" encoding="UTF-8"?>
<!DOCTYPE svg  PUBLIC '-//W3C//DTD SVG 1.1//EN'  'http://www.w3.org/Graphics/SVG/1.1/DTD/svg11.dtd'>
<svg clip-rule="evenodd" fill-rule="evenodd" stroke-linejoin="round" stroke-miterlimit="2" version="1.1" viewBox="0 0 32 32" xml:space="preserve" xmlns="http://www.w3.org/2000/svg">
<metadata>
<rdf:RDF xmlns:cc="http://web.resource.org/cc/" xmlns:dc="http://purl.org/dc/elements/1.1/" xmlns:rdf="http://www.w3.org/1999/02/22-rdf-syntax-ns#">

     <rdf:Description rdf:about="">
       <dc:title>Mutant Standard emoji 2023.12</dc:title>
     </rdf:Description>

    <cc:work rdf:about="">
        <cc:license rdf:resource="http://creativecommons.org/licenses/by-nc-sa/4.0/"/>
        <cc:attributionName>Caius Nocturne</cc:attributionName>
        <cc:attributionURL>http://mutant.tech/</cc:attributionURL>
    </cc:work>

</rdf:RDF>
</metadata>

    <rect id="person_frowning" width="32" height="32" fill="none"/>
    <g id="outline">
        <path d="m10.083 23.062c-0.313-0.23-0.612-0.477-0.895-0.741-0.94-0.875-1.71-1.931-2.253-3.094-0.4-0.858-0.677-1.771-0.82-2.707-0.07-0.461-0.105-0.925-0.114-1.391-7e-3 -1.086-7e-3 -2.172 0-3.258 6e-3 -0.34 0.025-0.679 0.064-1.017 0.089-0.782 0.272-1.553 0.542-2.292 0.513-1.399 1.341-2.677 2.407-3.717 1.067-1.042 2.366-1.841 3.779-2.319 0.708-0.24 1.443-0.399 2.187-0.475 0.337-0.034 0.675-0.049 1.014-0.051 0.045 0 0.09 0 0.135 1e-3 0.34 6e-3 0.679 0.025 1.017 0.064 0.782 0.089 1.553 0.272 2.292 0.542 1.324 0.485 2.539 1.253 3.548 2.238 1.095 1.069 1.94 2.388 2.448 3.832 0.248 0.704 0.416 1.436 0.501 2.177 0.039 0.338 0.058 0.677 0.064 1.017 7e-3 1.086 7e-3 2.172 0 3.258-7e-3 0.382-0.031 0.763-0.079 1.142-0.104 0.82-0.311 1.627-0.614 2.396-0.689 1.747-1.876 3.281-3.386 4.393 0.019 3e-3 0.037 5e-3 0.056 8e-3 0.657 0.092 1.301 0.278 1.906 0.551 0.564 0.255 1.094 0.586 1.572 0.98 1.112 0.918 1.927 2.177 2.303 3.569 0.162 0.596 0.239 1.209 0.243 1.826v2.006h-24c0-0.717-0.012-1.454 2e-3 -2.18 0.01-0.296 0.034-0.591 0.079-0.884 0.095-0.626 0.277-1.24 0.538-1.818 0.509-1.126 1.32-2.109 2.327-2.826 0.46-0.326 0.958-0.594 1.481-0.804 0.532-0.213 1.089-0.353 1.656-0.426z"/>
    </g>
    <g id="emoji">
        <path d="m21.709 25.05c2.425 0.344 4.291 2.429 4.291 4.95h-20v-2e-3c0-1.326 0.527-2.597 1.464-3.534 0.769-0.769 1.763-1.262 2.828-1.414 1.269 1.785 10.148 1.785 11.417 0z" fill="#999"/>
        <path d="m10.292 25.05c0.232-0.033 0.468-0.05 0.706-0.05h10.002c0.241 0 0.477 0.017 0.709 0.05-1.269 1.785-3.354 2.95-5.709 2.95s-4.439-1.165-5.708-2.95z" fill="#C596FD"/>
        <path d="m24 12c0-4.418-3.582-8-8-8s-8 3.582-8 8v3c0 4.418 3.582 8 8 8s8-3.582 8-8v-3z" fill="#C596FD"/>
        <clipPath id="_clip1">
            <path d="m24 12c0-4.418-3.582-8-8-8s-8 3.582-8 8v3c0 4.418 3.582 8 8 8s8-3.582 8-8v-3z"/>
        </clipPath>
        <g clip-path="url(#_clip1)">
            <path d="m16.266 16.001c0.338 7e-3 0.673 0.049 1.002 0.132 0.798 0.202 1.533 0.632 2.1 1.23 0.124 0.131 0.24 0.269 0.346 0.414 0.063 0.086 0.128 0.173 0.176 0.267 0.066 0.13 0.104 0.273 0.109 0.418 5e-3 0.129-0.015 0.258-0.059 0.38-0.039 0.106-0.095 0.205-0.167 0.292-0.26 0.318-0.702 0.445-1.092 0.314-0.171-0.058-0.316-0.16-0.436-0.293-0.031-0.037-0.059-0.075-0.087-0.116-2e-3 -3e-3 9e-3 0.015 7e-3 0.011-0.042-0.059-0.083-0.117-0.129-0.174-0.324-0.393-0.763-0.679-1.258-0.804-0.178-0.045-0.36-0.067-0.543-0.072-0.181-1e-3 -0.363-4e-3 -0.544 3e-3 -0.194 0.01-0.386 0.042-0.573 0.098-0.525 0.159-0.977 0.498-1.284 0.951l6e-3 -9e-3c-0.027 0.04-0.027 0.039-0.056 0.078-0.031 0.037-0.031 0.037-0.064 0.073-0.127 0.126-0.277 0.221-0.451 0.269-0.109 0.03-0.222 0.042-0.335 0.035-0.41-0.027-0.77-0.313-0.89-0.706-0.038-0.123-0.052-0.254-0.04-0.382s0.048-0.254 0.108-0.369c0.048-0.093 0.111-0.179 0.174-0.264 0.12-0.163 0.251-0.318 0.393-0.463 0.56-0.572 1.277-0.985 2.053-1.181 0.329-0.083 0.664-0.125 1.002-0.132 0.177-2e-3 0.355-2e-3 0.532 0zm-3.266-6.001v2.5c0 0.398-0.158 0.779-0.439 1.061-0.282 0.281-0.663 0.439-1.061 0.439s-0.779-0.158-1.061-0.439c-0.281-0.282-0.439-0.663-0.439-1.061v-0.5l2-2h1zm7 0 2 2v0.5c0 0.398-0.158 0.779-0.439 1.061-0.282 0.281-0.663 0.439-1.061 0.439s-0.779-0.158-1.061-0.439c-0.281-0.282-0.439-0.663-0.439-1.061v-2.5h1z"/>
        </g>
    </g>
</svg>
