<?xml version="1.0" encoding="UTF-8"?>
<!DOCTYPE svg  PUBLIC '-//W3C//DTD SVG 1.1//EN'  'http://www.w3.org/Graphics/SVG/1.1/DTD/svg11.dtd'>
<svg clip-rule="evenodd" fill-rule="evenodd" stroke-linecap="round" stroke-linejoin="round" stroke-miterlimit="1.5" version="1.1" viewBox="0 0 32 32" xml:space="preserve" xmlns="http://www.w3.org/2000/svg">
<metadata>
<rdf:RDF xmlns:cc="http://web.resource.org/cc/" xmlns:dc="http://purl.org/dc/elements/1.1/" xmlns:rdf="http://www.w3.org/1999/02/22-rdf-syntax-ns#">

     <rdf:Description rdf:about="">
       <dc:title>Mutant Standard emoji 2023.12</dc:title>
     </rdf:Description>

    <cc:work rdf:about="">
        <cc:license rdf:resource="http://creativecommons.org/licenses/by-nc-sa/4.0/"/>
        <cc:attributionName>Caius Nocturne</cc:attributionName>
        <cc:attributionURL>http://mutant.tech/</cc:attributionURL>
    </cc:work>

</rdf:RDF>
</metadata>

    <rect id="raising_hand" width="32" height="32" fill="none"/>
    <clipPath id="_clip1">
        <rect width="32" height="32"/>
    </clipPath>
    <g clip-path="url(#_clip1)">
        <g id="outline">
            <path d="m7.153 1.003 0.151 0.012 0.15 0.019 0.149 0.026 0.145 0.034 0.143 0.041 0.14 0.047 0.138 0.054 0.133 0.06 0.129 0.067 0.126 0.072 0.122 0.078 0.117 0.084 0.113 0.088 0.109 0.094 0.104 0.099 0.099 0.104 0.094 0.109 0.089 0.113 0.083 0.117 0.078 0.122 0.072 0.125 0.067 0.13 0.06 0.134 0.054 0.137 0.047 0.14 0.041 0.143 0.034 0.146 0.026 0.147 0.019 0.151 0.012 0.152 3e-3 0.127v4.05l-3e-3 0.124-0.011 0.147-0.018 0.147-0.026 0.145-0.032 0.143-0.039 0.142-0.046 0.139-0.053 0.136-0.059 0.134-0.066 0.131-0.072 0.128-0.078 0.124-0.085 0.12-0.091 0.117-0.097 0.112-0.089 0.093 0.764 6.872 4.825 4.021h8.288l0.112 1e-3 0.124 5e-3 0.123 8e-3 0.123 0.01 0.122 0.014 0.122 0.017 0.122 0.019 0.12 0.023 0.12 0.025 0.119 0.029 0.118 0.031 0.117 0.034 0.117 0.037 0.115 0.04 0.114 0.042 0.113 0.045 0.113 0.049 0.11 0.05 0.11 0.054 0.109 0.056 0.107 0.059 0.105 0.061 0.104 0.064 0.103 0.067 0.101 0.069 0.1 0.072 0.098 0.074 0.096 0.077 0.094 0.08 0.093 0.082 0.091 0.084 0.089 0.086 0.086 0.089 0.084 0.091 0.082 0.093 0.08 0.094 0.077 0.096 0.074 0.098 0.072 0.1 0.069 0.101 0.067 0.103 0.064 0.104 0.061 0.105 0.059 0.108 0.056 0.108 0.054 0.11 0.05 0.11 0.049 0.113 0.045 0.113 0.042 0.114 0.04 0.116 0.037 0.116 0.034 0.117 0.031 0.118 0.029 0.119 0.025 0.12 0.023 0.121 0.019 0.121 0.017 0.121 0.014 0.123 0.01 0.123 8e-3 0.123 5e-3 0.124 1e-3 0.112v6.012h-17.149l-7.174-12.299-0.037-0.065-0.04-0.072-0.039-0.073-0.037-0.074-0.036-0.074-0.035-0.075-0.034-0.075-0.033-0.076-0.031-0.077-0.03-0.077-0.028-0.077-0.027-0.077-0.027-0.079-0.024-0.078-0.024-0.079-0.022-0.079-0.021-0.08-0.019-0.079-0.018-0.081-0.017-0.081-0.016-0.08-0.014-0.081-0.013-0.082-0.011-0.082-0.011-0.081-0.016-0.164-6e-3 -0.083-5e-3 -0.083-3e-3 -0.082-2e-3 -0.083-1e-3 -0.075v-13.222l3e-3 -0.128 0.012-0.151 0.019-0.15 0.026-0.148 0.034-0.146 0.041-0.144 0.047-0.139 0.054-0.137 0.06-0.134 0.067-0.129 0.072-0.126 0.078-0.122 0.083-0.117 0.089-0.113 0.094-0.109 0.099-0.104 0.104-0.099 0.109-0.094 0.112-0.088 0.118-0.084 0.122-0.078 0.125-0.072 0.13-0.067 0.133-0.06 0.137-0.054 0.141-0.047 0.143-0.041 0.145-0.034 0.149-0.026 0.15-0.019 0.151-0.012 0.128-3e-3h1.05l0.128 3e-3zm5.996 26.997h10.851v-1.988-0.037l-1e-3 -0.025-2e-3 -0.024-2e-3 -0.025-3e-3 -0.024-3e-3 -0.025-4e-3 -0.024-0.015-0.072-7e-3 -0.023-6e-3 -0.024-0.024-0.069-9e-3 -0.023-0.02-0.044-0.022-0.044-0.024-0.042-0.026-0.042-0.028-0.04-0.015-0.02-0.016-0.019-0.015-0.018-0.017-0.019-0.034-0.036-0.054-0.051-0.019-0.015-0.02-0.016-0.019-0.015-0.04-0.028-0.021-0.013-0.02-0.013-0.022-0.012-0.021-0.012-0.044-0.022-0.044-0.02-0.023-9e-3 -0.069-0.024-0.024-6e-3 -0.023-7e-3 -0.072-0.015-0.024-4e-3 -0.025-3e-3 -0.024-3e-3 -0.025-2e-3 -0.024-2e-3 -0.025-1e-3h-0.037-9.712l-3.653-3.044 3.526 6.044z"/>
            <path d="m24 14c0-2.761-2.239-5-5-5s-5 2.239-5 5v2c0 2.761 2.239 5 5 5s5-2.239 5-5v-2z" fill="none" stroke="#000" stroke-width="4px"/>
        </g>
        <g id="emoji">
            
                <path d="m23 23c0.796 0 1.559 0.316 2.121 0.879 0.563 0.562 0.879 1.325 0.879 2.121v4h-14s-5.095-8.734-6.591-11.299c-0.129-0.221-0.229-0.457-0.297-0.701l0.297-1h1.591l1 1 6 5h1.536c0.692 1.195 6.236 1.195 6.928 0h0.536z" fill="#999"/>
                <path d="m5.112 18c-0.074-0.263-0.112-0.536-0.112-0.811v-8.189-5c0-0.552 0.448-1 1-1h1c0.552 0 1 0.448 1 1v4c0 0.265-0.105 0.52-0.293 0.707-0.187 0.188-0.442 0.293-0.707 0.293l1 9h-2.888z" fill="#F2C181"/>
                <path d="m15.536 23h6.928c-0.692 1.195-1.985 2-3.464 2s-2.772-0.805-3.464-2z" fill="#F2C181"/>
            
            <path d="m24 14c0-2.761-2.239-5-5-5s-5 2.239-5 5v2c0 2.761 2.239 5 5 5s5-2.239 5-5v-2z" fill="#F2C181"/>
            <clipPath id="_clip2">
                <path d="m24 14c0-2.761-2.239-5-5-5s-5 2.239-5 5v2c0 2.761 2.239 5 5 5s5-2.239 5-5v-2z"/>
            </clipPath>
            <g clip-path="url(#_clip2)">
                <path d="m22.02 13c0.113 4e-3 0.224 0.024 0.33 0.063 0.276 0.103 0.496 0.328 0.593 0.605 0.036 0.101 0.054 0.206 0.057 0.312 3e-3 0.366 0.022 0.734-3e-3 1.099-0.013 0.14-0.051 0.275-0.118 0.398-0.06 0.111-0.141 0.21-0.238 0.29-0.092 0.077-0.197 0.137-0.309 0.176-0.107 0.038-0.219 0.057-0.332 0.057-0.391 0-0.755-0.237-0.914-0.594-0.054-0.122-0.082-0.253-0.086-0.386-3e-3 -0.366-0.022-0.734 3e-3 -1.099 9e-3 -0.1 0.031-0.197 0.068-0.29 0.095-0.242 0.286-0.44 0.523-0.545 0.098-0.043 0.201-0.069 0.307-0.081 0.039-4e-3 0.079-5e-3 0.119-5e-3zm-6 0c0.113 4e-3 0.224 0.024 0.33 0.063 0.276 0.103 0.496 0.328 0.593 0.605 0.036 0.101 0.054 0.206 0.057 0.312 3e-3 0.366 0.022 0.734-3e-3 1.099-0.013 0.14-0.051 0.275-0.118 0.398-0.06 0.111-0.141 0.21-0.238 0.29-0.092 0.077-0.197 0.137-0.309 0.176-0.107 0.038-0.219 0.057-0.332 0.057-0.391 0-0.755-0.237-0.914-0.594-0.054-0.122-0.082-0.253-0.086-0.386-3e-3 -0.366-0.022-0.734 3e-3 -1.099 9e-3 -0.1 0.031-0.197 0.068-0.29 0.095-0.242 0.286-0.44 0.523-0.545 0.098-0.043 0.201-0.069 0.307-0.081 0.039-4e-3 0.079-5e-3 0.119-5e-3z"/>
            </g>
        </g>
    </g>
</svg>
