<?xml version="1.0" encoding="UTF-8"?>
<!DOCTYPE svg  PUBLIC '-//W3C//DTD SVG 1.1//EN'  'http://www.w3.org/Graphics/SVG/1.1/DTD/svg11.dtd'>
<svg clip-rule="evenodd" fill-rule="evenodd" stroke-linejoin="round" stroke-miterlimit="2" version="1.1" viewBox="0 0 32 32" xml:space="preserve" xmlns="http://www.w3.org/2000/svg">
<metadata>
<rdf:RDF xmlns:cc="http://web.resource.org/cc/" xmlns:dc="http://purl.org/dc/elements/1.1/" xmlns:rdf="http://www.w3.org/1999/02/22-rdf-syntax-ns#">

     <rdf:Description rdf:about="">
       <dc:title>Mutant Standard emoji 2023.12</dc:title>
     </rdf:Description>

    <cc:work rdf:about="">
        <cc:license rdf:resource="http://creativecommons.org/licenses/by-nc-sa/4.0/"/>
        <cc:attributionName>Caius Nocturne</cc:attributionName>
        <cc:attributionURL>http://mutant.tech/</cc:attributionURL>
    </cc:work>

</rdf:RDF>
</metadata>

    <rect id="tipping_hand" width="32" height="32" fill="none"/>
    <clipPath id="_clip1">
        <rect width="32" height="32"/>
    </clipPath>
    <g clip-path="url(#_clip1)">
        <g id="outline">
            <path d="m7.082 23.062c-0.312-0.23-0.611-0.477-0.894-0.741-0.94-0.875-1.71-1.931-2.253-3.094-0.4-0.857-0.677-1.771-0.82-2.707-0.07-0.461-0.105-0.925-0.114-1.391-7e-3 -1.086-7e-3 -2.172 0-3.258 6e-3 -0.34 0.025-0.679 0.064-1.017 0.085-0.741 0.253-1.473 0.501-2.177 0.508-1.444 1.353-2.763 2.448-3.832 1.008-0.985 2.224-1.753 3.548-2.238 0.739-0.27 1.51-0.452 2.292-0.542 0.338-0.039 0.677-0.058 1.017-0.064 0.13-1e-3 0.129-1e-3 0.258 0 0.34 6e-3 0.679 0.025 1.017 0.064 0.782 0.089 1.553 0.272 2.292 0.542 1.324 0.485 2.539 1.253 3.548 2.238 1.095 1.069 1.94 2.388 2.448 3.832 0.248 0.704 0.416 1.436 0.501 2.177 0.039 0.338 0.058 0.677 0.064 1.017 7e-3 1.086 7e-3 2.172 0 3.258-7e-3 0.382-0.031 0.763-0.079 1.142-0.104 0.82-0.311 1.627-0.614 2.396-0.043 0.108-0.088 0.216-0.134 0.322 0.7 0 1.399 3e-3 2.099 0.012 0.263 0.01 0.523 0.039 0.78 0.097 0.445 0.1 0.872 0.277 1.258 0.521 0.166 0.105 0.322 0.223 0.473 0.35l0.035 0.031h4.183c0 0.701 8e-3 1.402-1e-3 2.102-5e-3 0.136-0.014 0.27-0.031 0.405-0.042 0.329-0.124 0.652-0.246 0.96-0.224 0.568-0.58 1.083-1.032 1.494-0.406 0.369-0.888 0.653-1.407 0.829-0.411 0.138-0.838 0.205-1.27 0.21h-2.013v6h-7-17c0-0.717-0.012-1.454 2e-3 -2.18 0.01-0.296 0.034-0.591 0.079-0.884 0.095-0.626 0.277-1.24 0.538-1.818 0.509-1.126 1.32-2.109 2.327-2.826 0.46-0.326 0.958-0.594 1.481-0.804 0.532-0.213 1.089-0.353 1.655-0.426z"/>
        </g>
        <g id="emoji">
            <path d="m18 30h-15v-2e-3c0-1.326 0.527-2.597 1.464-3.534 0.769-0.769 1.763-1.262 2.828-1.414 1.124 1.581 8.221 1.762 10.708 0.541l1.516 2.409-1.516 2z" fill="#999"/>
            <path d="m18 25.591c0.32-0.157 0.564-0.338 0.709-0.541 2.425 0.344 4.291 2.429 4.291 4.95h-5v-4.409z" fill="#333"/>
            <path d="m18 25 0.311 0.262-0.311 0.635c-1.271 1.298-3.042 2.103-5 2.103-2.355 0-4.439-1.165-5.708-2.95 0.232-0.033 0.468-0.05 0.706-0.05h10.002z" fill="#4D4D4D"/>
            <path d="m18 25c0.241 0 0.477 0.017 0.709 0.05-0.214 0.301-0.451 0.584-0.709 0.847v-0.897z" fill="#1A1A1A"/>
            <path d="m21 12c0-4.418-3.582-8-8-8s-8 3.582-8 8v3c0 4.418 3.582 8 8 8s8-3.582 8-8v-3z" fill="#4D4D4D"/>
            <path d="m19 12.5c0-0.398-0.158-0.779-0.439-1.061-0.282-0.281-0.663-0.439-1.061-0.439s-0.779 0.158-1.061 0.439c-0.281 0.282-0.439 0.663-0.439 1.061v1c0 0.398 0.158 0.779 0.439 1.061 0.282 0.281 0.663 0.439 1.061 0.439s0.779-0.158 1.061-0.439c0.281-0.282 0.439-0.663 0.439-1.061v-1zm-9 0c0-0.398-0.158-0.779-0.439-1.061-0.282-0.281-0.663-0.439-1.061-0.439s-0.779 0.158-1.061 0.439c-0.281 0.282-0.439 0.663-0.439 1.061v1c0 0.398 0.158 0.779 0.439 1.061 0.282 0.281 0.663 0.439 1.061 0.439s0.779-0.158 1.061-0.439c0.281-0.282 0.439-0.663 0.439-1.061v-1z"/>
            <path d="m20 30v-7c0-0.53 0.211-1.039 0.586-1.414s0.884-0.586 1.414-0.586h2.172c0.53 0 1.039 0.211 1.414 0.586l0.414 0.414h3c0 1.105-0.895 2-2 2h-4v6h-3z" fill="#4D4D4D"/>
        </g>
    </g>
</svg>
