<?xml version="1.0" encoding="UTF-8"?>
<!DOCTYPE svg  PUBLIC '-//W3C//DTD SVG 1.1//EN'  'http://www.w3.org/Graphics/SVG/1.1/DTD/svg11.dtd'>
<svg clip-rule="evenodd" fill-rule="evenodd" stroke-linejoin="round" stroke-miterlimit="1.4142" version="1.1" viewBox="0 0 32 32" xml:space="preserve" xmlns="http://www.w3.org/2000/svg" xmlns:serif="http://www.serif.com/">
<metadata>
<rdf:RDF xmlns:cc="http://web.resource.org/cc/" xmlns:dc="http://purl.org/dc/elements/1.1/" xmlns:rdf="http://www.w3.org/1999/02/22-rdf-syntax-ns#">

     <rdf:Description rdf:about="">
       <dc:title>Mutant Standard emoji 2023.12</dc:title>
     </rdf:Description>

    <cc:work rdf:about="">
        <cc:license rdf:resource="http://creativecommons.org/licenses/by-nc-sa/4.0/"/>
        <cc:attributionName>Caius Nocturne</cc:attributionName>
        <cc:attributionURL>http://mutant.tech/</cc:attributionURL>
    </cc:work>

</rdf:RDF>
</metadata>
<rect id="_8_ball" width="32" height="32" fill="none" serif:id="8_ball"/><clipPath id="_clip1"><rect width="32" height="32"/></clipPath><g clip-path="url(#_clip1)"><g id="outline"><circle cx="16" cy="16" r="16"/></g><g id="emoji"><path d="m15.469 2.01c0.176-7e-3 0.353-0.01 0.531-0.01 7.727 0 14 6.273 14 14s-6.273 14-14 14-14-6.273-14-14c0-0.178 3e-3 -0.355 0.01-0.531 2.255 0.371 13.83-11.204 13.459-13.459z" fill="#333"/><path d="m15.469 2.01c0.371 2.255-1.34 5.861-4.469 8.99s-6.735 4.84-8.99 4.469c0.273-7.305 6.154-13.186 13.459-13.459z" fill="#4c4c4c"/><path d="m25 16c0 4.967-4.033 9-9 9s-9-4.033-9-9 4.033-9 9-9 9 4.033 9 9z" fill="#fff"/><path d="m16 21.958c-1.216 0-2.187-0.309-2.912-0.929-0.725-0.619-1.088-1.459-1.088-2.519v-0.234c0-0.558 0.142-1.063 0.427-1.514 0.284-0.452 0.683-0.801 1.196-1.047-0.424-0.212-0.758-0.518-1.004-0.92-0.245-0.402-0.368-0.859-0.368-1.372v-0.185c0-0.624 0.151-1.179 0.452-1.665 0.301-0.485 0.736-0.862 1.305-1.129 0.569-0.268 1.239-0.402 2.009-0.402s1.439 0.134 2.008 0.402c0.569 0.267 1.004 0.644 1.306 1.129 0.301 0.486 0.451 1.041 0.451 1.665v0.185c0 0.502-0.125 0.956-0.376 1.364-0.251 0.407-0.589 0.716-1.013 0.928 0.514 0.257 0.91 0.611 1.189 1.063s0.418 0.946 0.418 1.481v0.235c0 1.071-0.363 1.916-1.088 2.535-0.725 0.62-1.696 0.929-2.912 0.929zm0.017-7.113c0.513 0 0.909-0.125 1.188-0.376s0.418-0.595 0.418-1.03v-0.184c0-0.424-0.142-0.756-0.426-0.996-0.285-0.239-0.678-0.359-1.18-0.359-0.514 0-0.912 0.12-1.197 0.359-0.284 0.24-0.427 0.572-0.427 0.996v0.184c0 0.435 0.14 0.779 0.419 1.03s0.68 0.376 1.205 0.376zm0 5.255c0.58 0 1.032-0.142 1.355-0.426 0.324-0.285 0.486-0.684 0.486-1.197v-0.251c0-0.491-0.162-0.876-0.486-1.155-0.323-0.279-0.775-0.418-1.355-0.418s-1.035 0.139-1.364 0.418-0.494 0.664-0.494 1.155v0.251c0 0.513 0.162 0.912 0.485 1.197 0.324 0.284 0.781 0.426 1.373 0.426z" fill-rule="nonzero"/></g></g></svg>
