<?xml version="1.0" encoding="UTF-8"?>
<!DOCTYPE svg  PUBLIC '-//W3C//DTD SVG 1.1//EN'  'http://www.w3.org/Graphics/SVG/1.1/DTD/svg11.dtd'>
<svg clip-rule="evenodd" fill-rule="evenodd" stroke-linecap="round" stroke-linejoin="round" stroke-miterlimit="1.5" version="1.1" viewBox="0 0 32 32" xml:space="preserve" xmlns="http://www.w3.org/2000/svg">
<metadata>
<rdf:RDF xmlns:cc="http://web.resource.org/cc/" xmlns:dc="http://purl.org/dc/elements/1.1/" xmlns:rdf="http://www.w3.org/1999/02/22-rdf-syntax-ns#">

     <rdf:Description rdf:about="">
       <dc:title>Mutant Standard emoji 2023.12</dc:title>
     </rdf:Description>

    <cc:work rdf:about="">
        <cc:license rdf:resource="http://creativecommons.org/licenses/by-nc-sa/4.0/"/>
        <cc:attributionName>Caius Nocturne</cc:attributionName>
        <cc:attributionURL>http://mutant.tech/</cc:attributionURL>
    </cc:work>

</rdf:RDF>
</metadata>
<rect id="american_football" width="32" height="32" fill="none"/><clipPath id="_clip1"><rect width="32" height="32"/></clipPath><g clip-path="url(#_clip1)"><g id="outline"><path d="m4 30c-0.53 0-1.039-0.211-1.414-0.586s-0.586-0.884-0.586-1.414v-3c0-12.703 10.297-23 23-23h3c0.53 0 1.039 0.211 1.414 0.586s0.586 0.884 0.586 1.414v3c0 12.703-10.297 23-23 23h-3z" fill="none" stroke="#000" stroke-width="4px"/></g><g id="emoji"><path d="m4 30c-0.53 0-1.039-0.211-1.414-0.586s-0.586-0.884-0.586-1.414v-3c0-12.703 10.297-23 23-23h3c0.53 0 1.039 0.211 1.414 0.586s0.586 0.884 0.586 1.414v3c0 12.703-10.297 23-23 23h-3z" fill="#a65c2f"/><clipPath id="_clip2"><path d="m4 30c-0.53 0-1.039-0.211-1.414-0.586s-0.586-0.884-0.586-1.414v-3c0-12.703 10.297-23 23-23h3c0.53 0 1.039 0.211 1.414 0.586s0.586 0.884 0.586 1.414v3c0 12.703-10.297 23-23 23h-3z"/></clipPath><g clip-path="url(#_clip2)"><path d="m21 0v1e-3c-2.451 10.416-10.583 18.548-20.999 20.999h-1e-3v-21h21z" fill="#b96d3e"/><path d="m1 31 30-30" fill="none" stroke="#7f4724" stroke-width="2px"/><path d="m7.918 24.082c4.412 4.412 5.402 10.586 2.21 13.779-3.193 3.193-9.367 2.203-13.78-2.209-4.412-4.413-5.402-10.587-2.209-13.78 3.193-3.192 9.367-2.202 13.779 2.21z" fill="none" stroke="#fff" stroke-width="3px"/><path d="m35.652-3.652c4.412 4.413 5.402 10.587 2.209 13.78-3.193 3.192-9.367 2.202-13.779-2.21s-5.402-10.586-2.21-13.779c3.193-3.193 9.367-2.203 13.78 2.209z" fill="none" stroke="#fff" stroke-width="3px"/></g><path d="m19.293 11.293-0.939-0.939c-0.094-0.094-0.147-0.221-0.147-0.354s0.053-0.26 0.147-0.354l0.292-0.292c0.094-0.094 0.221-0.147 0.354-0.147s0.26 0.053 0.354 0.147l3.292 3.292c0.094 0.094 0.147 0.221 0.147 0.354s-0.053 0.26-0.147 0.354l-0.292 0.292c-0.094 0.094-0.221 0.147-0.354 0.147s-0.26-0.053-0.354-0.147l-0.939-0.939-2 2 0.939 0.939c0.094 0.094 0.147 0.221 0.147 0.354s-0.053 0.26-0.147 0.354l-0.292 0.292c-0.094 0.094-0.221 0.147-0.354 0.147s-0.26-0.053-0.354-0.147l-0.939-0.939-2 2 0.939 0.939c0.094 0.094 0.147 0.221 0.147 0.354s-0.053 0.26-0.147 0.354l-0.292 0.292c-0.094 0.094-0.221 0.147-0.354 0.147s-0.26-0.053-0.354-0.147l-0.939-0.939-2 2 0.939 0.939c0.094 0.094 0.147 0.221 0.147 0.354s-0.053 0.26-0.147 0.354l-0.292 0.292c-0.094 0.094-0.221 0.147-0.354 0.147s-0.26-0.053-0.354-0.147l-3.292-3.292c-0.094-0.094-0.147-0.221-0.147-0.354s0.053-0.26 0.147-0.354l0.292-0.292c0.094-0.094 0.221-0.147 0.354-0.147s0.26 0.053 0.354 0.147l0.939 0.939 2-2-0.939-0.939c-0.094-0.094-0.147-0.221-0.147-0.354s0.053-0.26 0.147-0.354l0.292-0.292c0.094-0.094 0.221-0.147 0.354-0.147s0.26 0.053 0.354 0.147l0.939 0.939 2-2-0.939-0.939c-0.094-0.094-0.147-0.221-0.147-0.354s0.053-0.26 0.147-0.354l0.292-0.292c0.094-0.094 0.221-0.147 0.354-0.147s0.26 0.053 0.354 0.147l0.939 0.939 2-2z" fill="#fff"/></g></g></svg>
