<?xml version="1.0" encoding="UTF-8"?>
<!DOCTYPE svg  PUBLIC '-//W3C//DTD SVG 1.1//EN'  'http://www.w3.org/Graphics/SVG/1.1/DTD/svg11.dtd'>
<svg clip-rule="evenodd" fill-rule="evenodd" stroke-linejoin="round" stroke-miterlimit="1.4142" version="1.1" viewBox="0 0 32 32" xml:space="preserve" xmlns="http://www.w3.org/2000/svg">
<metadata>
<rdf:RDF xmlns:cc="http://web.resource.org/cc/" xmlns:dc="http://purl.org/dc/elements/1.1/" xmlns:rdf="http://www.w3.org/1999/02/22-rdf-syntax-ns#">

     <rdf:Description rdf:about="">
       <dc:title>Mutant Standard emoji 2023.12</dc:title>
     </rdf:Description>

    <cc:work rdf:about="">
        <cc:license rdf:resource="http://creativecommons.org/licenses/by-nc-sa/4.0/"/>
        <cc:attributionName>Caius Nocturne</cc:attributionName>
        <cc:attributionURL>http://mutant.tech/</cc:attributionURL>
    </cc:work>

</rdf:RDF>
</metadata>
<rect id="football" width="32" height="32" fill="none"/><clipPath id="_clip1"><rect width="32" height="32"/></clipPath><g clip-path="url(#_clip1)"><g id="outline"><circle cx="16" cy="16" r="16"/></g><g id="emoji"><path d="m4.512 24c-0.969-1.388-1.692-2.96-2.108-4.652 3.03 0.438 16.771-13.227 16.953-16.725l0.054-0.107 0.167-0.054c3.578 0.945 6.597 3.272 8.45 6.374l1.842 5.249c0.086 0.626 0.13 1.265 0.13 1.915 0 2.974-0.929 5.732-2.512 8l-7.225 5.338c-1.344 0.43-2.777 0.662-4.263 0.662s-2.919-0.232-4.263-0.662l-7.225-5.338z" fill="#ebebeb"/><path d="m4.641 7.818c1.878-2.6 4.625-4.531 7.815-5.365l6.918 0.157c0.331 3.092-1.702 7.528-5.469 11.295-3.851 3.852-8.404 5.891-11.501 5.443-0.264-1.073-0.404-2.194-0.404-3.348 0-0.379 0.015-0.755 0.045-1.126l2.596-7.056z" fill="#fff"/><path d="m17 14.49 11.332-3.966 0.66 1.888-11.381 3.983 6.841 9.235-1.607 1.191-6.845-9.242-6.741 9.102-1.607-1.191 6.737-9.095-11.407-3.992 0.661-1.888 11.357 3.975v-11.948h2v11.948z" fill="#ccc" fill-rule="nonzero"/><path d="m28.028 8.836c0.941 1.576 1.582 3.352 1.842 5.249l-2.282-1.658c-0.351-0.255-0.497-0.706-0.363-1.118l0.803-2.473z" fill="#303030"/><path d="m27.488 24c-1.74 2.492-4.27 4.393-7.225 5.338l1.51-4.647c0.134-0.412 0.518-0.691 0.951-0.691h4.764z" fill="#303030"/><path d="m4.512 24h4.764c0.433 0 0.817 0.279 0.951 0.691l1.51 4.647c-2.955-0.945-5.485-2.846-7.225-5.338z" fill="#303030"/><path d="m12.456 2.453c1.132-0.296 2.32-0.453 3.544-0.453 1.237 0 2.436 0.161 3.578 0.462l-2.967 2.156c-0.351 0.255-0.825 0.255-1.176 0l-2.979-2.165z" fill="#303030"/><path d="m4.641 7.818 1.134 3.491c0.134 0.412-0.012 0.863-0.363 1.118l-3.367 2.447c0.209-2.621 1.141-5.039 2.596-7.056z" fill="#303030"/><path d="m15.412 8.866c0.351-0.255 0.825-0.255 1.176 0 1.319 0.958 4.505 3.273 5.824 4.231 0.351 0.255 0.497 0.706 0.363 1.118-0.504 1.552-1.72 5.296-2.224 6.847-0.134 0.412-0.518 0.691-0.951 0.691h-7.2c-0.433 0-0.817-0.279-0.951-0.691-0.504-1.551-1.72-5.295-2.224-6.847-0.134-0.412 0.012-0.863 0.363-1.118 1.319-0.958 4.505-3.273 5.824-4.231z" fill="#303030"/></g></g></svg>
