<?xml version="1.0" encoding="UTF-8"?>
<!DOCTYPE svg  PUBLIC '-//W3C//DTD SVG 1.1//EN'  'http://www.w3.org/Graphics/SVG/1.1/DTD/svg11.dtd'>
<svg clip-rule="evenodd" fill-rule="evenodd" stroke-linecap="round" stroke-linejoin="round" stroke-miterlimit="1.5" version="1.1" viewBox="0 0 32 32" xml:space="preserve" xmlns="http://www.w3.org/2000/svg">
<metadata>
<rdf:RDF xmlns:cc="http://web.resource.org/cc/" xmlns:dc="http://purl.org/dc/elements/1.1/" xmlns:rdf="http://www.w3.org/1999/02/22-rdf-syntax-ns#">

     <rdf:Description rdf:about="">
       <dc:title>Mutant Standard emoji 2023.12</dc:title>
     </rdf:Description>

    <cc:work rdf:about="">
        <cc:license rdf:resource="http://creativecommons.org/licenses/by-nc-sa/4.0/"/>
        <cc:attributionName>Caius Nocturne</cc:attributionName>
        <cc:attributionURL>http://mutant.tech/</cc:attributionURL>
    </cc:work>

</rdf:RDF>
</metadata>
<rect id="rugby_ball" width="32" height="32" fill="none"/><clipPath id="_clip1"><rect width="32" height="32"/></clipPath><g clip-path="url(#_clip1)"><g id="outline"><path d="m7 30c-1.326 0-2.598-0.527-3.536-1.464-0.937-0.938-1.464-2.21-1.464-3.536v-2c0-5.57 2.212-10.911 6.151-14.849 3.938-3.939 9.279-6.151 14.849-6.151h2c1.326 0 2.598 0.527 3.536 1.464 0.937 0.938 1.464 2.21 1.464 3.536v2c0 5.57-2.212 10.911-6.151 14.849-3.938 3.939-9.279 6.151-14.849 6.151h-2z" fill="none" stroke="#000" stroke-width="4px"/></g><g id="emoji"><path d="m15.007 29.122c-1.932 0.577-3.954 0.878-6.007 0.878h-2c-1.326 0-2.598-0.527-3.536-1.464l-0.464-1.536 24-24 1.536 0.464c0.937 0.938 1.464 2.21 1.464 3.536v2c0 0.66-0.031 1.317-0.093 1.969-0.03-0.154-16.29 18.33-14.9 18.153z" fill="#2f45a6"/><path d="m21.031 2.093c0.652-0.062 1.309-0.093 1.969-0.093h2c1.326 0 2.598 0.527 3.536 1.464l-25.072 25.072c-0.937-0.938-1.464-2.21-1.464-3.536v-2c0-2.053 0.301-4.075 0.878-6.007-0.177 1.39 18.307-14.87 18.153-14.9z" fill="#de4141"/><path d="m21.031 2.093c0.154 0.03 0.302 0.063 0.446 0.096 0.621 0.142 1.136 0.571 1.387 1.156s0.208 1.254-0.117 1.802c-1.447 2.332-4.107 6.213-7.747 9.853-3.353 3.353-6.91 5.874-9.268 7.39-0.609 0.372-1.37 0.392-1.998 0.051-0.627-0.34-1.025-0.989-1.044-1.703-0.027-1.075 0.011-2.355 0.188-3.745 0.988-3.31 2.786-6.356 5.273-8.842 3.471-3.472 8.033-5.602 12.88-6.058z" fill="#fff"/><path d="m15.007 29.122c-1.39 0.177-2.67 0.215-3.745 0.188-0.714-0.019-1.363-0.417-1.703-1.044-0.341-0.628-0.321-1.389 0.051-1.998 1.516-2.358 4.037-5.915 7.39-9.268 3.64-3.64 7.521-6.3 9.853-7.747 0.548-0.325 1.217-0.368 1.802-0.117s1.014 0.766 1.156 1.387c0.033 0.144 0.066 0.292 0.096 0.446-0.456 4.847-2.586 9.409-6.058 12.88-2.486 2.487-5.532 4.285-8.842 5.273z" fill="#f1f1f1"/><path d="m13.039 7.918c0.598 0.598 0.598 1.566 0 2.164-0.877 0.878-2.108 2.108-2.98 2.98-0.281 0.281-0.662 0.439-1.059 0.439s-0.778-0.158-1.059-0.439c-1e-3 0-1e-3 -1e-3 -2e-3 -1e-3 -0.281-0.282-0.439-0.663-0.439-1.061s0.158-0.779 0.439-1.061c0.887-0.886 2.143-2.142 3.023-3.022 0.275-0.276 0.649-0.43 1.038-0.43s0.763 0.154 1.038 0.43l1e-3 1e-3z" fill="#999" fill-rule="nonzero"/><path d="m24.083 18.962c0.276 0.275 0.43 0.649 0.43 1.038s-0.154 0.763-0.43 1.038c-0.88 0.88-2.136 2.136-3.022 3.023-0.282 0.281-0.663 0.439-1.061 0.439s-0.779-0.158-1.061-0.439c-0.281-0.282-0.439-0.663-0.439-1.061s0.158-0.779 0.439-1.061c0.872-0.871 2.102-2.101 2.979-2.978 0.598-0.598 1.566-0.598 2.164 0 0 0 1e-3 0 1e-3 1e-3z" fill="#8c8c8c" fill-rule="nonzero"/></g></g></svg>
