<?xml version="1.0" encoding="UTF-8"?>
<!DOCTYPE svg  PUBLIC '-//W3C//DTD SVG 1.1//EN'  'http://www.w3.org/Graphics/SVG/1.1/DTD/svg11.dtd'>
<svg clip-rule="evenodd" fill-rule="evenodd" stroke-linecap="round" stroke-linejoin="round" stroke-miterlimit="1.5" version="1.1" viewBox="0 0 32 32" xml:space="preserve" xmlns="http://www.w3.org/2000/svg">
<metadata>
<rdf:RDF xmlns:cc="http://web.resource.org/cc/" xmlns:dc="http://purl.org/dc/elements/1.1/" xmlns:rdf="http://www.w3.org/1999/02/22-rdf-syntax-ns#">

     <rdf:Description rdf:about="">
       <dc:title>Mutant Standard emoji 2023.12</dc:title>
     </rdf:Description>

    <cc:work rdf:about="">
        <cc:license rdf:resource="http://creativecommons.org/licenses/by-nc-sa/4.0/"/>
        <cc:attributionName>Caius Nocturne</cc:attributionName>
        <cc:attributionURL>http://mutant.tech/</cc:attributionURL>
    </cc:work>

</rdf:RDF>
</metadata>
<rect id="tennis_ball" width="32" height="32" fill="none"/><clipPath id="_clip1"><rect width="32" height="32"/></clipPath><g clip-path="url(#_clip1)"><g id="outline"><circle cx="16" cy="16" r="16"/></g><g id="emoji"><path d="m30 16c0 7.727-6.273 14-14 14s-14-6.273-14-14 6.273-14 14-14 14 6.273 14 14z" fill="#e2f10a"/><clipPath id="_clip2"><path d="m30 16c0 7.727-6.273 14-14 14s-14-6.273-14-14 6.273-14 14-14 14 6.273 14 14z"/></clipPath><g clip-path="url(#_clip2)"><path d="m26 1s-0.179 12-10 12-10-12-10-12" fill="none" stroke="#fff" stroke-width="3px"/><path d="m26 31s-0.179-12-10-12-10 12-10 12" fill="none" stroke="#fff" stroke-width="3px"/><path d="m0.76 0.712c4.967-4.968 11.795-6.205 15.238-2.763 3.443 3.443 2.205 10.271-2.762 15.238-4.967 4.968-11.795 6.205-15.238 2.762-3.443-3.442-2.205-10.27 2.762-15.237z" fill="#fff" fill-opacity=".46667"/></g></g></g></svg>
