<?xml version="1.0" encoding="UTF-8"?>
<!DOCTYPE svg  PUBLIC '-//W3C//DTD SVG 1.1//EN'  'http://www.w3.org/Graphics/SVG/1.1/DTD/svg11.dtd'>
<svg clip-rule="evenodd" fill-rule="evenodd" stroke-linecap="round" stroke-linejoin="round" stroke-miterlimit="1.5" version="1.1" viewBox="0 0 32 32" xml:space="preserve" xmlns="http://www.w3.org/2000/svg">
<metadata>
<rdf:RDF xmlns:cc="http://web.resource.org/cc/" xmlns:dc="http://purl.org/dc/elements/1.1/" xmlns:rdf="http://www.w3.org/1999/02/22-rdf-syntax-ns#">

     <rdf:Description rdf:about="">
       <dc:title>Mutant Standard emoji 2023.12</dc:title>
     </rdf:Description>

    <cc:work rdf:about="">
        <cc:license rdf:resource="http://creativecommons.org/licenses/by-nc-sa/4.0/"/>
        <cc:attributionName>Caius Nocturne</cc:attributionName>
        <cc:attributionURL>http://mutant.tech/</cc:attributionURL>
    </cc:work>

</rdf:RDF>
</metadata>
<rect id="volleyball" width="32" height="32" fill="none"/><clipPath id="_clip1"><rect width="32" height="32"/></clipPath><g clip-path="url(#_clip1)"><g id="outline"><circle cx="16" cy="16" r="16"/></g><g id="emoji"><path d="m30 16c0 7.727-6.273 14-14 14s-14-6.273-14-14 6.273-14 14-14 14 6.273 14 14z" fill="#f3f3f3"/><clipPath id="_clip2"><path d="m30 16c0 7.727-6.273 14-14 14s-14-6.273-14-14 6.273-14 14-14 14 6.273 14 14z"/></clipPath><g clip-path="url(#_clip2)"><path d="m4.378 4.378c5.02-5.019 11.229-6.96 13.858-4.331 2.63 2.629 0.689 8.839-4.331 13.858-5.019 5.02-11.229 6.961-13.858 4.331-2.629-2.629-0.688-8.838 4.331-13.858z" fill="#fff"/><g fill="none" stroke="#ccc" stroke-width="2px"><path d="m16 16s0.353 0.084 0.928 0.219c5.788 1.369 11.88-0.165 16.33-4.111"/><path d="m21.605 16.293s-0.011-0.363-0.029-0.953c-0.176-5.946-3.234-11.433-8.198-14.71"/><path d="m27.345 15.305s-0.01-0.363-0.028-0.953c-0.176-5.945-3.235-11.433-8.198-14.71"/></g><g fill="none" stroke="#ccc" stroke-width="2px"><path d="m16 16s-0.249 0.264-0.654 0.694c-4.079 4.329-5.797 10.371-4.604 16.198"/><path d="m12.944 20.707s0.32 0.172 0.84 0.452c5.237 2.82 11.518 2.915 16.838 0.255"/><path d="m10.929 26.173s0.32 0.172 0.84 0.452c5.237 2.82 11.518 2.915 16.838 0.255"/></g><g fill="none" stroke="#ccc" stroke-width="2px"><path d="m16 16s-0.104-0.348-0.274-0.913c-1.709-5.697-6.083-10.206-11.726-12.087"/><path d="m13.451 11s-0.309 0.191-0.811 0.501c-5.061 3.125-8.284 8.518-8.64 14.455"/><path d="m9.726 6.522s-0.309 0.191-0.812 0.501c-5.06 3.125-8.283 8.518-8.64 14.455"/></g></g></g></g></svg>
