<?xml version="1.0" encoding="UTF-8"?>
<!DOCTYPE svg  PUBLIC '-//W3C//DTD SVG 1.1//EN'  'http://www.w3.org/Graphics/SVG/1.1/DTD/svg11.dtd'>
<svg clip-rule="evenodd" fill-rule="evenodd" stroke-linecap="square" stroke-linejoin="round" stroke-miterlimit="1.5" version="1.1" viewBox="0 0 32 32" xml:space="preserve" xmlns="http://www.w3.org/2000/svg">
<metadata>
<rdf:RDF xmlns:cc="http://web.resource.org/cc/" xmlns:dc="http://purl.org/dc/elements/1.1/" xmlns:rdf="http://www.w3.org/1999/02/22-rdf-syntax-ns#">

     <rdf:Description rdf:about="">
       <dc:title>Mutant Standard emoji 2023.12</dc:title>
     </rdf:Description>

    <cc:work rdf:about="">
        <cc:license rdf:resource="http://creativecommons.org/licenses/by-nc-sa/4.0/"/>
        <cc:attributionName>Caius Nocturne</cc:attributionName>
        <cc:attributionURL>http://mutant.tech/</cc:attributionURL>
    </cc:work>

</rdf:RDF>
</metadata>
<rect id="spider" width="32" height="32" fill="none"/><clipPath id="_clip1"><rect width="32" height="32"/></clipPath><g clip-path="url(#_clip1)"><g id="outline" stroke="#000"><path d="m19 14c0-1.657-1.343-3-3-3s-3 1.343-3 3v2c0 1.657 1.343 3 3 3s3-1.343 3-3v-2z" fill="#363636" stroke-width="4px"/><path d="m20 22c0-1.061-0.421-2.078-1.172-2.828-0.75-0.751-1.767-1.172-2.828-1.172s-2.078 0.421-2.828 1.172c-0.751 0.75-1.172 1.767-1.172 2.828v2c0 1.061 0.421 2.078 1.172 2.828 0.75 0.751 1.767 1.172 2.828 1.172s2.078-0.421 2.828-1.172c0.751-0.75 1.172-1.767 1.172-2.828v-2z" fill="#363636" stroke-linecap="round" stroke-width="4px"/><path d="m18 14 5-5v-6" fill="none" stroke-linecap="round" stroke-width="6px"/><path d="m16.5 16.25 10.5-5.25 2-4" fill="none" stroke-linecap="round" stroke-width="6px"/><path d="m18 16 5 5v8" fill="none" stroke-linecap="round" stroke-width="6px"/><path d="m17.5 14.75 8.5 4.25 2 4" fill="none" stroke-linecap="round" stroke-width="6px"/><path d="m15.5 15.5-6.5-6.5v-6" fill="none" stroke-linecap="round" stroke-width="6px"/><path d="m15.5 16.25-10.5-5.25-2-4" fill="none" stroke-linecap="round" stroke-width="6px"/><path d="m14 16-5 5v8" fill="none" stroke-linecap="round" stroke-width="6px"/><path d="m14.5 14.75-8.5 4.25-2 4" fill="none" stroke-linecap="round" stroke-width="6px"/><path d="m17.5 12 1-1v-2" fill="none" stroke-linecap="round" stroke-width="6px"/><path d="m14.5 12-1-1v-2" fill="none" stroke-linecap="round" stroke-width="6px"/></g><g id="emoji"><path d="m20 22c0-1.061-0.421-2.078-1.172-2.828-0.75-0.751-1.767-1.172-2.828-1.172s-2.078 0.421-2.828 1.172c-0.751 0.75-1.172 1.767-1.172 2.828v2c0 1.061 0.421 2.078 1.172 2.828 0.75 0.751 1.767 1.172 2.828 1.172s2.078-0.421 2.828-1.172c0.751-0.75 1.172-1.767 1.172-2.828v-2z" fill="#3f3f3f"/><path d="m18 14 5-5v-6" fill="none" stroke="#5a5a5a" stroke-linecap="round" stroke-width="2px"/><path d="m16.5 16.25 10.5-5.25 2-4" fill="none" stroke="#5a5a5a" stroke-linecap="round" stroke-width="2px"/><path d="m18 16 5 5v8" fill="none" stroke="#5a5a5a" stroke-linecap="round" stroke-width="2px"/><path d="m17.5 14.75 8.5 4.25 2 4" fill="none" stroke="#5a5a5a" stroke-linecap="round" stroke-width="2px"/><path d="m15.5 15.5-6.5-6.5v-6" fill="none" stroke="#5a5a5a" stroke-linecap="round" stroke-width="2px"/><path d="m15.5 16.25-10.5-5.25-2-4" fill="none" stroke="#5a5a5a" stroke-linecap="round" stroke-width="2px"/><path d="m14 16-5 5v8" fill="none" stroke="#5a5a5a" stroke-linecap="round" stroke-width="2px"/><path d="m14.5 14.75-8.5 4.25-2 4" fill="none" stroke="#5a5a5a" stroke-linecap="round" stroke-width="2px"/><path d="m17.5 12 1-1v-2" fill="none" stroke="#5a5a5a" stroke-linecap="round" stroke-width="1px"/><path d="m14.5 12-1-1v-2" fill="none" stroke="#5a5a5a" stroke-linecap="round" stroke-width="1px"/><path d="m19 14c0-1.657-1.343-3-3-3s-3 1.343-3 3v2c0 1.657 1.343 3 3 3s3-1.343 3-3v-2z" fill="#3f3f3f"/></g></g></svg>
