<?xml version="1.0" encoding="UTF-8"?>
<!DOCTYPE svg  PUBLIC '-//W3C//DTD SVG 1.1//EN'  'http://www.w3.org/Graphics/SVG/1.1/DTD/svg11.dtd'>
<svg clip-rule="evenodd" fill-rule="evenodd" stroke-linecap="round" stroke-linejoin="round" version="1.1" viewBox="0 0 32 32" xml:space="preserve" xmlns="http://www.w3.org/2000/svg">
<metadata>
<rdf:RDF xmlns:cc="http://web.resource.org/cc/" xmlns:dc="http://purl.org/dc/elements/1.1/" xmlns:rdf="http://www.w3.org/1999/02/22-rdf-syntax-ns#">

     <rdf:Description rdf:about="">
       <dc:title>Mutant Standard S3</dc:title>
     </rdf:Description>

    <cc:work rdf:about="">
        <cc:license rdf:resource="http://creativecommons.org/licenses/by-nc-sa/4.0/"/>
        <cc:attributionName>Dzuk</cc:attributionName>
        <cc:attributionURL>http://mutant.tech/</cc:attributionURL>
    </cc:work>

</rdf:RDF>
</metadata>

    <rect id="demisexual_sweat_drops" width="32" height="32" fill="none"/>
    <g id="outline">
        <path d="m5 9s-1.413 8.004-2.299 13.028c-0.428 2.423 0.588 4.874 2.603 6.285 0.15 0.105 0.303 0.212 0.457 0.319 1.541 1.079 3.482 1.417 5.297 0.921s3.315-1.774 4.094-3.487c0.036-0.081 0.073-0.161 0.11-0.241 1.053-2.318 0.615-5.041-1.112-6.912-3.548-3.845-9.15-9.913-9.15-9.913zm14 8s1.43 4.401 2.393 7.363c0.511 1.573 1.976 2.637 3.629 2.637h2e-3c2.196 0 3.976-1.78 3.976-3.976v-0.087c0-1.743-1.144-3.28-2.814-3.781-2.957-0.887-7.186-2.156-7.186-2.156zm-9-11.5s6.937-1.734 11.044-2.761c1.815-0.454 3.731 0.146 4.962 1.554 0.046 0.053 0.093 0.106 0.14 0.16 1.081 1.235 1.472 2.928 1.042 4.512s-1.624 2.847-3.181 3.366c-1e-3 0-1e-3 0-2e-3 1e-3 -1.27 0.423-2.662 0.257-3.798-0.452-3.346-2.092-10.207-6.38-10.207-6.38z" fill="none" stroke="#000" stroke-width="4px"/>
    </g>
    <g id="emoji">
        <path d="m5 9s-1.413 8.004-2.299 13.028c-0.428 2.423 0.588 4.874 2.603 6.285 0.15 0.105 0.303 0.212 0.457 0.319 1.541 1.079 3.482 1.417 5.297 0.921s3.315-1.774 4.094-3.487c0.036-0.081 0.073-0.161 0.11-0.241 1.053-2.318 0.615-5.041-1.112-6.912-3.548-3.845-9.15-9.913-9.15-9.913z" fill="#bababa"/>
        <path d="m10 15.891v3.058c0 3.357-2.112 6.325-5.228 7.45-0.919-1.097-1.376-2.557-1.086-4.201 0.65-3.679 1.299-7.358 1.948-11.037l4.366 4.73z" fill="#ececec"/>
        <path d="m10 5.5s6.937-1.734 11.044-2.761c1.815-0.454 3.731 0.146 4.962 1.554 0.046 0.053 0.093 0.106 0.14 0.16 1.081 1.235 1.472 2.928 1.042 4.512s-1.624 2.847-3.181 3.366c-1e-3 0-1e-3 0-2e-3 1e-3 -1.27 0.423-2.662 0.257-3.798-0.452-3.346-2.092-10.207-6.38-10.207-6.38z" fill="#404040"/>
        <path d="m21.788 3.619c1.013 2.475 0.486 5.308-1.32 7.252-2.677-1.609-5.294-3.316-7.942-4.972l8.757-2.189c0.167-0.04 0.335-0.071 0.505-0.091z" fill="#737373"/>
        <path d="m19 17s1.43 4.401 2.393 7.363c0.511 1.573 1.976 2.637 3.629 2.637h2e-3c2.196 0 3.976-1.78 3.976-3.976v-0.087c0-1.743-1.144-3.28-2.814-3.781-2.957-0.887-7.186-2.156-7.186-2.156z" fill="#80189a"/>
        <path d="m24.835 19.794c0.899 1.961 1.062 4.147 0.531 6.171-1.335 0.208-2.584-0.608-3.023-1.915-0.601-1.848-1.201-3.696-1.802-5.544l4.294 1.288z" fill="#b928de"/>
    </g>
</svg>
