<?xml version="1.0" encoding="UTF-8" standalone="no"?>
<!DOCTYPE svg PUBLIC "-//W3C//DTD SVG 1.1//EN" "http://www.w3.org/Graphics/SVG/1.1/DTD/svg11.dtd">
<svg width="100%" height="100%" viewBox="0 0 32 32" version="1.1" xmlns="http://www.w3.org/2000/svg" xmlns:xlink="http://www.w3.org/1999/xlink" xml:space="preserve" xmlns:serif="http://www.serif.com/" style="fill-rule:evenodd;clip-rule:evenodd;stroke-linecap:round;stroke-linejoin:round;">
<metadata>
<rdf:RDF xmlns:cc="http://web.resource.org/cc/"
         xmlns:rdf="http://www.w3.org/1999/02/22-rdf-syntax-ns#"
         xmlns:dc = "http://purl.org/dc/elements/1.1/"
         >

     <rdf:Description rdf:about="">
       <dc:title>Mutant Standard S3</dc:title>
     </rdf:Description>

    <cc:work rdf:about="">
        <cc:license rdf:resource="http://creativecommons.org/licenses/by-nc-sa/4.0/"/>
        <cc:attributionName>Dzuk</cc:attributionName>
        <cc:attributionURL>http://mutant.tech/</cc:attributionURL>
    </cc:work>

</rdf:RDF>
</metadata>

    <rect id="demigirl_sweat_drops" x="0" y="0" width="32" height="32" style="fill:none;"/>
    <g id="outline">
        <path d="M5,9c0,0 -1.413,8.004 -2.299,13.028c-0.428,2.423 0.588,4.874 2.603,6.285c0.15,0.105 0.303,0.212 0.457,0.319c1.541,1.079 3.482,1.417 5.297,0.921c1.815,-0.496 3.315,-1.774 4.094,-3.487c0.036,-0.081 0.073,-0.161 0.11,-0.241c1.053,-2.318 0.615,-5.041 -1.112,-6.912c-3.548,-3.845 -9.15,-9.913 -9.15,-9.913Zm14,8c0,0 1.43,4.401 2.393,7.363c0.511,1.573 1.976,2.637 3.629,2.637c0.001,0 0.001,0 0.002,0c2.196,0 3.976,-1.78 3.976,-3.976c0,-0.029 0,-0.058 0,-0.087c0,-1.743 -1.144,-3.28 -2.814,-3.781c-2.957,-0.887 -7.186,-2.156 -7.186,-2.156Zm-9,-11.5c0,0 6.937,-1.734 11.044,-2.761c1.815,-0.454 3.731,0.146 4.962,1.554c0.046,0.053 0.093,0.106 0.14,0.16c1.081,1.235 1.472,2.928 1.042,4.512c-0.43,1.584 -1.624,2.847 -3.181,3.366c-0.001,0 -0.001,0 -0.002,0.001c-1.27,0.423 -2.662,0.257 -3.798,-0.452c-3.346,-2.092 -10.207,-6.38 -10.207,-6.38Z" style="fill:none;stroke:#000;stroke-width:4px;"/>
    </g>
    <g id="emoji">
        <path d="M5,9c0,0 -1.413,8.004 -2.299,13.028c-0.428,2.423 0.588,4.874 2.603,6.285c0.15,0.105 0.303,0.212 0.457,0.319c1.541,1.079 3.482,1.417 5.297,0.921c1.815,-0.496 3.315,-1.774 4.094,-3.487c0.036,-0.081 0.073,-0.161 0.11,-0.241c1.053,-2.318 0.615,-5.041 -1.112,-6.912c-3.548,-3.845 -9.15,-9.913 -9.15,-9.913Z" style="fill:#818181;"/>
        <path d="M10,15.891l0,3.058c0,3.357 -2.112,6.325 -5.228,7.45c-0.919,-1.097 -1.376,-2.557 -1.086,-4.201c0.65,-3.679 1.299,-7.358 1.948,-11.037l4.366,4.73Z" style="fill:#cacaca;"/>
        <path d="M10,5.5c0,0 6.937,-1.734 11.044,-2.761c1.815,-0.454 3.731,0.146 4.962,1.554c0.046,0.053 0.093,0.106 0.14,0.16c1.081,1.235 1.472,2.928 1.042,4.512c-0.43,1.584 -1.624,2.847 -3.181,3.366c-0.001,0 -0.001,0 -0.002,0.001c-1.27,0.423 -2.662,0.257 -3.798,-0.452c-3.346,-2.092 -10.207,-6.38 -10.207,-6.38Z" style="fill:#e496bd;"/>
        <path d="M21.788,3.619c1.013,2.475 0.486,5.308 -1.32,7.252c-2.677,-1.609 -5.294,-3.316 -7.942,-4.972l8.757,-2.189c0.167,-0.04 0.335,-0.071 0.505,-0.091Z" style="fill:#f6dce9;"/>
        <path d="M19,17c0,0 1.43,4.401 2.393,7.363c0.511,1.573 1.976,2.637 3.629,2.637c0.001,0 0.001,0 0.002,0c2.196,0 3.976,-1.78 3.976,-3.976c0,-0.029 0,-0.058 0,-0.087c0,-1.743 -1.144,-3.28 -2.814,-3.781c-2.957,-0.887 -7.186,-2.156 -7.186,-2.156Z" style="fill:#d8d8d8;"/>
        <path d="M24.835,19.794c0.899,1.961 1.062,4.147 0.531,6.171c-1.335,0.208 -2.584,-0.608 -3.023,-1.915c-0.601,-1.848 -1.201,-3.696 -1.802,-5.544l4.294,1.288Z" style="fill:#fff;"/>
    </g>
</svg>
