<?xml version="1.0" encoding="UTF-8"?>
<!DOCTYPE svg  PUBLIC '-//W3C//DTD SVG 1.1//EN'  'http://www.w3.org/Graphics/SVG/1.1/DTD/svg11.dtd'>
<svg clip-rule="evenodd" fill-rule="evenodd" stroke-linejoin="round" stroke-miterlimit="2" version="1.1" viewBox="0 0 32 32" xml:space="preserve" xmlns="http://www.w3.org/2000/svg">
<metadata>
<rdf:RDF xmlns:cc="http://web.resource.org/cc/" xmlns:dc="http://purl.org/dc/elements/1.1/" xmlns:rdf="http://www.w3.org/1999/02/22-rdf-syntax-ns#">

     <rdf:Description rdf:about="">
       <dc:title>Mutant Standard emoji 2023.12</dc:title>
     </rdf:Description>

    <cc:work rdf:about="">
        <cc:license rdf:resource="http://creativecommons.org/licenses/by-nc-sa/4.0/"/>
        <cc:attributionName>Caius Nocturne</cc:attributionName>
        <cc:attributionURL>http://mutant.tech/</cc:attributionURL>
    </cc:work>

</rdf:RDF>
</metadata>

    <rect id="earth_antarctic" width="32" height="32" fill="none"/>
    <clipPath id="_clip1">
        <rect width="32" height="32"/>
    </clipPath>
    <g clip-path="url(#_clip1)">
        <g id="outline">
            <circle cx="16" cy="16" r="16"/>
        </g>
        <g id="emoji">
            <circle cx="16" cy="16" r="14" fill="#0750fa"/>
            <clipPath id="_clip2">
                <circle cx="16" cy="16" r="14"/>
            </clipPath>
            <g clip-path="url(#_clip2)">
                <circle cx="19" cy="13" r="13" fill="#2867fa"/>
                <path d="m9 11h1l0.573 1.146c0.277 0.554 0.727 1.004 1.281 1.281 0.042 0.021 0.083 0.042 0.125 0.062 0.643 0.322 1.399 0.322 2.042 0h2e-3c0.625-0.313 1.101-0.862 1.323-1.526 0.084-0.253 0.175-0.527 0.262-0.787 0.234-0.702 0.891-1.176 1.632-1.176h3.697c0.651 0 1.247 0.368 1.538 0.951 0.374 0.747 0.883 1.766 1.208 2.416 0.209 0.416 0.317 0.875 0.317 1.341v1.792c0 2.241-0.89 4.39-2.475 5.975l-0.042 0.042c-0.95 0.95-2.237 1.483-3.58 1.483h-4.903l1-2-1-1h-1.595c-0.9 0-1.762-0.357-2.399-0.994l-0.088-0.088c-0.588-0.588-0.918-1.385-0.918-2.216v-0.445c0-0.826 0.193-1.642 0.562-2.382 0.228-0.455 0.438-0.875 0.438-0.875l-1-2v-2l1 1z" fill="#fff"/>
                <path d="m17 31s0.601-1.803 0.871-2.614c0.077-0.23 0.293-0.386 0.536-0.386h0.809c0.181 0 0.352 0.087 0.458 0.235 0.107 0.147 0.135 0.337 0.078 0.509l-0.752 2.256h-2z" fill="#48bd28"/>
                <path d="m24 24.565c0-0.15-0.06-0.293-0.166-0.399s-0.249-0.166-0.399-0.166h-0.87c-0.15 0-0.293 0.06-0.399 0.166s-0.166 0.249-0.166 0.399v0.52c0 0.196 0.101 0.378 0.268 0.481s0.375 0.113 0.55 0.025l0.87-0.435c0.191-0.096 0.312-0.291 0.312-0.505v-0.086z" fill="#48bd28"/>
                <clipPath id="_clip3">
                    <path d="m24 24.565c0-0.15-0.06-0.293-0.166-0.399s-0.249-0.166-0.399-0.166h-0.87c-0.15 0-0.293 0.06-0.399 0.166s-0.166 0.249-0.166 0.399v0.52c0 0.196 0.101 0.378 0.268 0.481s0.375 0.113 0.55 0.025l0.87-0.435c0.191-0.096 0.312-0.291 0.312-0.505v-0.086z"/>
                </clipPath>
                <g clip-path="url(#_clip3)">
                    <circle cx="19" cy="13" r="13" fill="#4ecd2b"/>
                </g>
                <path d="m27 26h-1.233c-1.132 0-2.216 0.449-3.016 1.249l-0.085 0.085c-0.427 0.427-0.666 1.005-0.666 1.608v2.058h5v-5" fill="#48bd28"/>
                <path d="m5 10h1l-0.752 0.752c-0.799 0.799-1.883 1.248-3.013 1.248h-1.235v-4h2l2 2z" fill="#48bd28"/>
                <path d="m21 3s0.407 0.611 0.854 1.281c0.716 1.074 1.921 1.719 3.212 1.719h1.934v-4h-6v1z" fill="#4ecd2b"/>
            </g>
        </g>
    </g>
</svg>
