<?xml version="1.0" encoding="UTF-8"?>
<!DOCTYPE svg  PUBLIC '-//W3C//DTD SVG 1.1//EN'  'http://www.w3.org/Graphics/SVG/1.1/DTD/svg11.dtd'>
<svg clip-rule="evenodd" fill-rule="evenodd" stroke-linejoin="round" stroke-miterlimit="2" version="1.1" viewBox="0 0 32 32" xml:space="preserve" xmlns="http://www.w3.org/2000/svg">
<metadata>
<rdf:RDF xmlns:cc="http://web.resource.org/cc/" xmlns:dc="http://purl.org/dc/elements/1.1/" xmlns:rdf="http://www.w3.org/1999/02/22-rdf-syntax-ns#">

     <rdf:Description rdf:about="">
       <dc:title>Mutant Standard emoji 2023.12</dc:title>
     </rdf:Description>

    <cc:work rdf:about="">
        <cc:license rdf:resource="http://creativecommons.org/licenses/by-nc-sa/4.0/"/>
        <cc:attributionName>Caius Nocturne</cc:attributionName>
        <cc:attributionURL>http://mutant.tech/</cc:attributionURL>
    </cc:work>

</rdf:RDF>
</metadata>

    <rect id="earth_emea" width="32" height="32" fill="none"/>
    <clipPath id="_clip1">
        <rect width="32" height="32"/>
    </clipPath>
    <g clip-path="url(#_clip1)">
        <g id="outline">
            <circle cx="16" cy="16" r="16"/>
        </g>
        <g id="emoji">
            <circle cx="16" cy="16" r="14" fill="#0750fa"/>
            <clipPath id="_clip2">
                <circle cx="16" cy="16" r="14"/>
            </clipPath>
            <g clip-path="url(#_clip2)">
                <circle cx="19" cy="13" r="13" fill="#2867fa"/>
                <path d="m12 3 1 1-1 1s-0.855 0.428-1.447 0.724c-0.339 0.169-0.553 0.515-0.553 0.894v0.382s-0.759 0.506-1.513 1.009c-0.278 0.185-0.426 0.512-0.382 0.843 0.045 0.331 0.274 0.608 0.59 0.713 0.212 0.071 0.417 0.139 0.601 0.2 0.431 0.144 0.907 0.032 1.229-0.29l0.825-0.825c0.388-0.388 0.981-0.484 1.472-0.239 0.269 0.135 0.556 0.278 0.78 0.39 0.264 0.132 0.504 0.305 0.713 0.514l1e-3 1e-3c0.181 0.181 0.427 0.283 0.684 0.283s0.503-0.102 0.684-0.283l0.609-0.609c0.453-0.453 1.067-0.707 1.707-0.707v-1.359c0-0.137 0.071-0.265 0.188-0.337s0.262-0.079 0.385-0.017c0.296 0.147 0.653 0.326 0.935 0.467 0.114 0.057 0.194 0.165 0.214 0.291 0.021 0.126-0.021 0.254-0.111 0.344l-1.611 1.611 2 1h1l-2 2-3-1v1l-3-1-1-1s-0.492 0.164-1.078 0.359c-1.251 0.417-2.346 1.207-3.138 2.262-0.256 0.342-0.524 0.7-0.772 1.03-0.629 0.838-0.775 1.942-0.386 2.914 0.197 0.491 0.415 1.038 0.62 1.549 0.455 1.139 1.558 1.886 2.785 1.886h1.37c0.384 0 0.751 0.152 1.022 0.423l1.577 1.577v1s0.495 0.991 0.789 1.578c0.139 0.277 0.211 0.584 0.211 0.894v1.032c0 0.958 0.38 1.876 1.058 2.554l0.942 0.942h2s0.691-2.072 0.924-2.772c0.051-0.152 0.112-0.3 0.183-0.443 0.362-0.724 1.531-3.061 1.825-3.649 0.045-0.09 0.068-0.188 0.068-0.288v-0.559c0-0.19 0.044-0.378 0.129-0.548 0.443-0.886 1.871-3.741 1.871-3.741-1.208 0-2.294-0.735-2.743-1.857-0.569-1.422-1.257-3.143-1.257-3.143h1s0.901 1.802 1.493 2.987c0.129 0.256 0.361 0.445 0.638 0.519s0.573 0.025 0.812-0.134c0.879-0.587 2.057-1.372 2.057-1.372l-1-1-1-2h1l0.447 0.894c0.339 0.678 1.032 1.106 1.789 1.106h0.764l3-3v1h2v-12h-13-7l-1 3z" fill="#48bd28"/>
                <clipPath id="_clip3">
                    <path d="m12 3 1 1-1 1s-0.855 0.428-1.447 0.724c-0.339 0.169-0.553 0.515-0.553 0.894v0.382s-0.759 0.506-1.513 1.009c-0.278 0.185-0.426 0.512-0.382 0.843 0.045 0.331 0.274 0.608 0.59 0.713 0.212 0.071 0.417 0.139 0.601 0.2 0.431 0.144 0.907 0.032 1.229-0.29l0.825-0.825c0.388-0.388 0.981-0.484 1.472-0.239 0.269 0.135 0.556 0.278 0.78 0.39 0.264 0.132 0.504 0.305 0.713 0.514l1e-3 1e-3c0.181 0.181 0.427 0.283 0.684 0.283s0.503-0.102 0.684-0.283l0.609-0.609c0.453-0.453 1.067-0.707 1.707-0.707v-1.359c0-0.137 0.071-0.265 0.188-0.337s0.262-0.079 0.385-0.017c0.296 0.147 0.653 0.326 0.935 0.467 0.114 0.057 0.194 0.165 0.214 0.291 0.021 0.126-0.021 0.254-0.111 0.344l-1.611 1.611 2 1h1l-2 2-3-1v1l-3-1-1-1s-0.492 0.164-1.078 0.359c-1.251 0.417-2.346 1.207-3.138 2.262-0.256 0.342-0.524 0.7-0.772 1.03-0.629 0.838-0.775 1.942-0.386 2.914 0.197 0.491 0.415 1.038 0.62 1.549 0.455 1.139 1.558 1.886 2.785 1.886h1.37c0.384 0 0.751 0.152 1.022 0.423l1.577 1.577v1s0.495 0.991 0.789 1.578c0.139 0.277 0.211 0.584 0.211 0.894v1.032c0 0.958 0.38 1.876 1.058 2.554l0.942 0.942h2s0.691-2.072 0.924-2.772c0.051-0.152 0.112-0.3 0.183-0.443 0.362-0.724 1.531-3.061 1.825-3.649 0.045-0.09 0.068-0.188 0.068-0.288v-0.559c0-0.19 0.044-0.378 0.129-0.548 0.443-0.886 1.871-3.741 1.871-3.741-1.208 0-2.294-0.735-2.743-1.857-0.569-1.422-1.257-3.143-1.257-3.143h1s0.901 1.802 1.493 2.987c0.129 0.256 0.361 0.445 0.638 0.519s0.573 0.025 0.812-0.134c0.879-0.587 2.057-1.372 2.057-1.372l-1-1-1-2h1l0.447 0.894c0.339 0.678 1.032 1.106 1.789 1.106h0.764l3-3v1h2v-12h-13-7l-1 3z"/>
                </clipPath>
                <g clip-path="url(#_clip3)">
                    <circle cx="19" cy="13" r="13" fill="#4ecd2b"/>
                    <path d="m6 18h2.7c0.855 0 1.698 0.199 2.463 0.581v1e-3c0.55 0.275 1.157 0.418 1.773 0.418h0.368c0.461 0 0.919-0.074 1.356-0.22 0.538-0.179 1.289-0.43 1.793-0.598 0.362-0.12 0.742-0.182 1.123-0.182h2.045c0.762 0 1.379 0.617 1.379 1.379v0.207c0 0.905-0.36 1.774-1 2.414 1.921 0 3.763-0.763 5.121-2.121l1.317-1.317 2.562-4.562 1-2-2-5h-5l0.888 1.776c0.238 0.477 0.213 1.042-0.067 1.495s-0.775 0.729-1.307 0.729h-4.514-11l-2 3 1 4z" fill="#f4c815"/>
                    <path d="m14 25h2v2l1 1 1-1v2l1 2h-5v-6z" fill="#f4c815"/>
                </g>
                <path d="m9.5 3.623c0-0.165 0.066-0.324 0.182-0.441 0.117-0.116 0.276-0.182 0.441-0.182h1e-3c0.23 0 0.441 0.13 0.544 0.337 0.091 0.181 0.198 0.394 0.265 0.529 0.044 0.088 0.067 0.185 0.067 0.284v0.229c0 0.165-0.065 0.323-0.182 0.439-0.116 0.117-0.274 0.182-0.439 0.182h-1e-3c-0.232 0-0.443-0.131-0.547-0.338-0.09-0.18-0.196-0.391-0.263-0.526-0.045-0.089-0.068-0.188-0.068-0.288v-0.225z" fill="#48bd28"/>
                <clipPath id="_clip4">
                    <path d="m9.5 3.623c0-0.165 0.066-0.324 0.182-0.441 0.117-0.116 0.276-0.182 0.441-0.182h1e-3c0.23 0 0.441 0.13 0.544 0.337 0.091 0.181 0.198 0.394 0.265 0.529 0.044 0.088 0.067 0.185 0.067 0.284v0.229c0 0.165-0.065 0.323-0.182 0.439-0.116 0.117-0.274 0.182-0.439 0.182h-1e-3c-0.232 0-0.443-0.131-0.547-0.338-0.09-0.18-0.196-0.391-0.263-0.526-0.045-0.089-0.068-0.188-0.068-0.288v-0.225z"/>
                </clipPath>
                <g clip-path="url(#_clip4)">
                    <circle cx="19" cy="13" r="13" fill="#4ecd2b"/>
                </g>
                <path d="m24 23.507c0-0.28-0.227-0.507-0.507-0.507h-0.128c-0.218 0-0.412 0.14-0.48 0.346-0.185 0.555-0.547 1.641-0.746 2.237-0.08 0.239 0.028 0.501 0.254 0.613 0.249 0.125 0.578 0.29 0.874 0.437 0.157 0.079 0.343 0.071 0.493-0.022 0.149-0.092 0.24-0.255 0.24-0.431v-2.673z" fill="#48bd28"/>
                <clipPath id="_clip5">
                    <path d="m24 23.507c0-0.28-0.227-0.507-0.507-0.507h-0.128c-0.218 0-0.412 0.14-0.48 0.346-0.185 0.555-0.547 1.641-0.746 2.237-0.08 0.239 0.028 0.501 0.254 0.613 0.249 0.125 0.578 0.29 0.874 0.437 0.157 0.079 0.343 0.071 0.493-0.022 0.149-0.092 0.24-0.255 0.24-0.431v-2.673z"/>
                </clipPath>
                <g clip-path="url(#_clip5)">
                    <circle cx="19" cy="13" r="13" fill="#4ecd2b"/>
                </g>
            </g>
            <path d="m22 6.392c0-0.104 0.041-0.204 0.115-0.277 0.073-0.074 0.173-0.115 0.277-0.115h0.216c0.104 0 0.204 0.041 0.277 0.115 0.074 0.073 0.115 0.173 0.115 0.277v0.608l1 2h-1.085c-0.505 0-0.915-0.41-0.915-0.915v-1.693z" fill="#2867fa"/>
        </g>
    </g>
</svg>
