<?xml version="1.0" encoding="UTF-8"?>
<!DOCTYPE svg  PUBLIC '-//W3C//DTD SVG 1.1//EN'  'http://www.w3.org/Graphics/SVG/1.1/DTD/svg11.dtd'>
<svg clip-rule="evenodd" fill-rule="evenodd" stroke-linejoin="round" stroke-miterlimit="2" version="1.1" viewBox="0 0 32 32" xml:space="preserve" xmlns="http://www.w3.org/2000/svg">
<metadata>
<rdf:RDF xmlns:cc="http://web.resource.org/cc/" xmlns:dc="http://purl.org/dc/elements/1.1/" xmlns:rdf="http://www.w3.org/1999/02/22-rdf-syntax-ns#">

     <rdf:Description rdf:about="">
       <dc:title>Mutant Standard emoji 2023.12</dc:title>
     </rdf:Description>

    <cc:work rdf:about="">
        <cc:license rdf:resource="http://creativecommons.org/licenses/by-nc-sa/4.0/"/>
        <cc:attributionName>Caius Nocturne</cc:attributionName>
        <cc:attributionURL>http://mutant.tech/</cc:attributionURL>
    </cc:work>

</rdf:RDF>
</metadata>

    <rect id="earth_arctic" width="32" height="32" fill="none"/>
    <clipPath id="_clip1">
        <rect width="32" height="32"/>
    </clipPath>
    <g clip-path="url(#_clip1)">
        <g id="outline">
            <circle cx="16" cy="16" r="16"/>
        </g>
        <g id="emoji">
            <circle cx="16" cy="16" r="14" fill="#0750fa"/>
            <clipPath id="_clip2">
                <circle cx="16" cy="16" r="14"/>
            </clipPath>
            <g clip-path="url(#_clip2)">
                <circle cx="19" cy="13" r="13" fill="#2867fa"/>
                <path d="m8 17.669c0-0.37 0.299-0.669 0.669-0.669h2.662c0.37 0 0.669 0.299 0.669 0.669v2.105c0 0.806-0.188 1.602-0.548 2.323-0.233 0.466-0.452 0.903-0.452 0.903h-1l-4 2v-2l0.291-0.291c1.094-1.094 1.709-2.578 1.709-4.126v-0.583-0.331z" fill="#fff"/>
                <path d="m10.869 25.869c-0.146-0.146-0.189-0.365-0.11-0.555 0.078-0.19 0.264-0.314 0.47-0.314h2.249c0.139 0 0.271 0.055 0.369 0.153s0.153 0.23 0.153 0.369v0.262c0 0.138-0.055 0.271-0.153 0.369l-0.694 0.694c-0.098 0.098-0.231 0.153-0.369 0.153h-1.262c-0.139 0-0.271-0.055-0.369-0.153s-0.153-0.23-0.153-0.369v-0.294c0-0.118-0.047-0.231-0.13-0.314l-1e-3 -1e-3z" fill="#fff"/>
                <path d="m5 10.983c0-0.614 0.307-1.188 0.818-1.528 0.536-0.358 1.22-0.814 1.678-1.119 0.329-0.219 0.715-0.336 1.11-0.336h1.922c0.31 0 0.617-0.072 0.894-0.211 0.141-0.07 0.305-0.152 0.472-0.236 0.678-0.339 1.106-1.032 1.106-1.789v-0.764l-1-1h1v-2h-3l-4 4h-5v10l0.372-1.116c0.134-0.403 0.468-0.708 0.882-0.806 0.415-0.098 0.85 0.026 1.151 0.327l1.595 1.595h1v-1h-0.266c-0.194 0-0.381-0.077-0.519-0.215s-0.215-0.325-0.215-0.519v-1.266l2 1v-1.982c0-0.624 0.353-1.194 0.911-1.473 0.528-0.264 1.089-0.545 1.089-0.545l-1-1-1.588 0.794c-0.252 0.126-0.412 0.385-0.412 0.667v0.127c0 0.264-0.105 0.517-0.291 0.703l-0.093 0.093c-0.104 0.104-0.259 0.134-0.393 0.079-0.135-0.056-0.223-0.188-0.223-0.334v-0.146z" fill="#48bd28"/>
                <clipPath id="_clip3">
                    <path d="m5 10.983c0-0.614 0.307-1.188 0.818-1.528 0.536-0.358 1.22-0.814 1.678-1.119 0.329-0.219 0.715-0.336 1.11-0.336h1.922c0.31 0 0.617-0.072 0.894-0.211 0.141-0.07 0.305-0.152 0.472-0.236 0.678-0.339 1.106-1.032 1.106-1.789v-0.764l-1-1h1v-2h-3l-4 4h-5v10l0.372-1.116c0.134-0.403 0.468-0.708 0.882-0.806 0.415-0.098 0.85 0.026 1.151 0.327l1.595 1.595h1v-1h-0.266c-0.194 0-0.381-0.077-0.519-0.215s-0.215-0.325-0.215-0.519v-1.266l2 1v-1.982c0-0.624 0.353-1.194 0.911-1.473 0.528-0.264 1.089-0.545 1.089-0.545l-1-1-1.588 0.794c-0.252 0.126-0.412 0.385-0.412 0.667v0.127c0 0.264-0.105 0.517-0.291 0.703l-0.093 0.093c-0.104 0.104-0.259 0.134-0.393 0.079-0.135-0.056-0.223-0.188-0.223-0.334v-0.146z"/>
                </clipPath>
                <g clip-path="url(#_clip3)">
                    <circle cx="19" cy="13" r="13" fill="#4ecd2b"/>
                </g>
                <path d="m16 29 1.662-1.662c0.216-0.216 0.338-0.51 0.338-0.816v-0.522l2.53-2.53c0.301-0.301 0.709-0.47 1.135-0.47h2.335v1s-0.581 0.291-1.117 0.559c-0.541 0.27-0.883 0.823-0.883 1.428v0.013h1s1.456-1.941 2.339-3.119c0.429-0.572 0.661-1.268 0.661-1.983v-2.796c0-0.715-0.232-1.411-0.661-1.983-0.883-1.178-2.339-3.119-2.339-3.119h1v-2.103c0-0.536-0.343-1.011-0.851-1.181-0.887-0.295-2.149-0.716-2.149-0.716s-0.129-0.388-0.295-0.885c-0.451-1.354-1.422-2.474-2.699-3.112l-2.006-1.003v-1h1l3-2h12v31h-11v-3.03c0-0.621 0.247-1.217 0.686-1.656l0.314-0.314h-1l-0.558 0.558c-0.283 0.283-0.442 0.667-0.442 1.067v3.375h-4v-3z" fill="#48bd28"/>
                <clipPath id="_clip4">
                    <path d="m16 29 1.662-1.662c0.216-0.216 0.338-0.51 0.338-0.816v-0.522l2.53-2.53c0.301-0.301 0.709-0.47 1.135-0.47h2.335v1s-0.581 0.291-1.117 0.559c-0.541 0.27-0.883 0.823-0.883 1.428v0.013h1s1.456-1.941 2.339-3.119c0.429-0.572 0.661-1.268 0.661-1.983v-2.796c0-0.715-0.232-1.411-0.661-1.983-0.883-1.178-2.339-3.119-2.339-3.119h1v-2.103c0-0.536-0.343-1.011-0.851-1.181-0.887-0.295-2.149-0.716-2.149-0.716s-0.129-0.388-0.295-0.885c-0.451-1.354-1.422-2.474-2.699-3.112l-2.006-1.003v-1h1l3-2h12v31h-11v-3.03c0-0.621 0.247-1.217 0.686-1.656l0.314-0.314h-1l-0.558 0.558c-0.283 0.283-0.442 0.667-0.442 1.067v3.375h-4v-3z"/>
                </clipPath>
                <g clip-path="url(#_clip4)">
                    <circle cx="19" cy="13" r="13" fill="#4ecd2b"/>
                </g>
                <path d="m10 14 1 1v1h-1.362c-0.434 0-0.851-0.173-1.158-0.48s-0.48-0.724-0.48-1.158v-1.828c0-0.295 0.239-0.534 0.534-0.534h0.136c0.202 0 0.387 0.114 0.478 0.295 0.278 0.557 0.852 1.705 0.852 1.705z" fill="#fff"/>
                <path d="m9.5 10c0.276 0 0.5 0.224 0.5 0.5s-0.224 0.5-0.5 0.5-0.5-0.224-0.5-0.5 0.224-0.5 0.5-0.5z" fill="#fff"/>
                <path d="m21.5 10c0.276 0 0.5 0.224 0.5 0.5s-0.224 0.5-0.5 0.5-0.5-0.224-0.5-0.5 0.224-0.5 0.5-0.5z" fill="#fff"/>
                <path d="m20.5 17c0.276 0 0.5 0.224 0.5 0.5s-0.224 0.5-0.5 0.5-0.5-0.224-0.5-0.5 0.224-0.5 0.5-0.5z" fill="#fff"/>
                <path d="m22.478 14c0.139 0 0.271 0.055 0.369 0.153s0.153 0.23 0.153 0.369v0.956c0 0.139-0.055 0.271-0.153 0.369s-0.23 0.153-0.369 0.153h-0.634c-0.181 0-0.348-0.094-0.444-0.247-0.095-0.154-0.103-0.346-0.022-0.508 0.167-0.334 0.353-0.707 0.478-0.957 0.088-0.176 0.269-0.288 0.466-0.288h0.156z" fill="#fff"/>
                <path d="m16.522 20c-0.139 0-0.271 0.055-0.369 0.153s-0.153 0.23-0.153 0.369v0.956c0 0.139 0.055 0.271 0.153 0.369s0.23 0.153 0.369 0.153h0.156c0.197 0 0.378-0.112 0.466-0.288 0.125-0.25 0.311-0.623 0.478-0.957 0.081-0.162 0.073-0.354-0.022-0.508-0.096-0.153-0.263-0.247-0.444-0.247h-0.634z" fill="#fff"/>
                <path d="m23.5 16c-0.133 0-0.26 0.053-0.354 0.146-0.093 0.094-0.146 0.221-0.146 0.354v2.177c0 0.198 0.112 0.379 0.288 0.467l1.712 0.856-0.847-0.847c-0.098-0.098-0.153-0.231-0.153-0.369v-2.284c0-0.133-0.053-0.26-0.146-0.354-0.094-0.093-0.221-0.146-0.354-0.146z" fill="#fff"/>
                <path d="m0 18h2l1 1 1-1v1.538c0 0.968-0.156 1.93-0.462 2.849-0.262 0.786-0.538 1.613-0.538 1.613h-3v-6z" fill="#48bd28"/>
                <path d="m5 15h2v2.092c0 0.592-0.175 1.171-0.504 1.664l-1.496 2.244-1-2 1-3v-1z" fill="#48bd28"/>
                <clipPath id="_clip5">
                    <path d="m5 15h2v2.092c0 0.592-0.175 1.171-0.504 1.664l-1.496 2.244-1-2 1-3v-1z"/>
                </clipPath>
                <g clip-path="url(#_clip5)">
                    <circle cx="19" cy="13" r="13" fill="#4ecd2b"/>
                </g>
            </g>
        </g>
    </g>
</svg>
