<?xml version="1.0" encoding="UTF-8"?>
<!DOCTYPE svg  PUBLIC '-//W3C//DTD SVG 1.1//EN'  'http://www.w3.org/Graphics/SVG/1.1/DTD/svg11.dtd'>
<svg clip-rule="evenodd" fill-rule="evenodd" stroke-linejoin="round" stroke-miterlimit="2" version="1.1" viewBox="0 0 32 32" xml:space="preserve" xmlns="http://www.w3.org/2000/svg">
<metadata>
<rdf:RDF xmlns:cc="http://web.resource.org/cc/" xmlns:dc="http://purl.org/dc/elements/1.1/" xmlns:rdf="http://www.w3.org/1999/02/22-rdf-syntax-ns#">

     <rdf:Description rdf:about="">
       <dc:title>Mutant Standard emoji 2023.12</dc:title>
     </rdf:Description>

    <cc:work rdf:about="">
        <cc:license rdf:resource="http://creativecommons.org/licenses/by-nc-sa/4.0/"/>
        <cc:attributionName>Caius Nocturne</cc:attributionName>
        <cc:attributionURL>http://mutant.tech/</cc:attributionURL>
    </cc:work>

</rdf:RDF>
</metadata>

    <rect id="earth_asia_oceania" width="32" height="32" fill="none"/>
    <clipPath id="_clip1">
        <rect width="32" height="32"/>
    </clipPath>
    <g clip-path="url(#_clip1)">
        <g id="outline">
            <circle cx="16" cy="16" r="16"/>
        </g>
        <g id="emoji">
            <circle cx="16" cy="16" r="14" fill="#0750fa"/>
            <clipPath id="_clip2">
                <circle cx="16" cy="16" r="14"/>
            </clipPath>
            <g clip-path="url(#_clip2)">
                <circle cx="19" cy="13" r="13" fill="#2867fa"/>
                <path d="m1 14 1 2s0.187 0.562 0.4 1.199c0.395 1.185 1.059 2.26 1.942 3.143l1e-3 1e-3c0.11 0.11 0.275 0.143 0.419 0.083 0.144-0.059 0.238-0.2 0.238-0.355v-0.828c0-0.796 0.316-1.559 0.879-2.122l2.121-2.121 1 2h1v3.241c0 0.503 0.081 1.002 0.24 1.479 0.181 0.544 0.426 1.277 0.588 1.763 0.037 0.111 0.128 0.194 0.242 0.221 0.113 0.027 0.233-7e-3 0.315-0.089l0.443-0.443c0.103-0.103 0.128-0.259 0.063-0.389-0.097-0.195-0.247-0.496-0.397-0.795-0.325-0.65-0.494-1.366-0.494-2.092v-1.896l0.661 1.322c0.208 0.416 0.632 0.678 1.097 0.678h2e-3c0.685 0 1.24-0.555 1.24-1.24v-0.436c0-0.213-0.05-0.423-0.145-0.613-0.277-0.555-0.855-1.711-0.855-1.711h1.528c0.31 0 0.617-0.072 0.894-0.211 0.583-0.291 1.654-0.827 2.472-1.236 0.678-0.339 1.106-1.032 1.106-1.789v-1.292c0-0.31-0.072-0.617-0.211-0.894-0.113-0.227-0.257-0.513-0.39-0.78-0.262-0.525-0.399-1.104-0.399-1.691v-0.107l1.723 1.723c0.073 0.073 0.173 0.114 0.277 0.114s0.204-0.041 0.277-0.114l0.446-0.446c0.073-0.073 0.114-0.173 0.114-0.277s-0.041-0.204-0.114-0.277l-0.723-0.723h0.336c0.367 0 0.664-0.297 0.664-0.664v-2.336s0.718 0.359 1.293 0.647c0.152 0.075 0.331 0.067 0.475-0.022s0.232-0.246 0.232-0.415v-0.095c0-0.076-0.018-0.15-0.052-0.218-0.204-0.409-0.948-1.897-0.948-1.897v-1h-21v12z" fill="#48bd28"/>
                <clipPath id="_clip3">
                    <path d="m1 14 1 2s0.187 0.562 0.4 1.199c0.395 1.185 1.059 2.26 1.942 3.143l1e-3 1e-3c0.11 0.11 0.275 0.143 0.419 0.083 0.144-0.059 0.238-0.2 0.238-0.355v-0.828c0-0.796 0.316-1.559 0.879-2.122l2.121-2.121 1 2h1v3.241c0 0.503 0.081 1.002 0.24 1.479 0.181 0.544 0.426 1.277 0.588 1.763 0.037 0.111 0.128 0.194 0.242 0.221 0.113 0.027 0.233-7e-3 0.315-0.089l0.443-0.443c0.103-0.103 0.128-0.259 0.063-0.389-0.097-0.195-0.247-0.496-0.397-0.795-0.325-0.65-0.494-1.366-0.494-2.092v-1.896l0.661 1.322c0.208 0.416 0.632 0.678 1.097 0.678h2e-3c0.685 0 1.24-0.555 1.24-1.24v-0.436c0-0.213-0.05-0.423-0.145-0.613-0.277-0.555-0.855-1.711-0.855-1.711h1.528c0.31 0 0.617-0.072 0.894-0.211 0.583-0.291 1.654-0.827 2.472-1.236 0.678-0.339 1.106-1.032 1.106-1.789v-1.292c0-0.31-0.072-0.617-0.211-0.894-0.113-0.227-0.257-0.513-0.39-0.78-0.262-0.525-0.399-1.104-0.399-1.691v-0.107l1.723 1.723c0.073 0.073 0.173 0.114 0.277 0.114s0.204-0.041 0.277-0.114l0.446-0.446c0.073-0.073 0.114-0.173 0.114-0.277s-0.041-0.204-0.114-0.277l-0.723-0.723h0.336c0.367 0 0.664-0.297 0.664-0.664v-2.336s0.718 0.359 1.293 0.647c0.152 0.075 0.331 0.067 0.475-0.022s0.232-0.246 0.232-0.415v-0.095c0-0.076-0.018-0.15-0.052-0.218-0.204-0.409-0.948-1.897-0.948-1.897v-1h-21v12z"/>
                </clipPath>
                <g clip-path="url(#_clip3)">
                    <circle cx="19" cy="13" r="13" fill="#4ecd2b"/>
                    <path d="m2 7h13v1e-3c0 0.603-0.367 1.146-0.928 1.37-0.711 0.285-1.572 0.629-1.572 0.629l2 1.5s-0.018 6e-3 -0.049 0.016c-0.961 0.321-1.968 0.484-2.981 0.484h-2.624c-0.224 0-0.44 0.089-0.598 0.248-0.159 0.158-0.248 0.374-0.248 0.598v1e-3c0 0.384 0.261 0.718 0.633 0.811 0.586 0.147 1.367 0.342 1.367 0.342s-2.404 0.401-4.168 0.695c-1.057 0.176-1.832 1.09-1.832 2.162v5.143h-2v-14z" fill="#f4c815"/>
                </g>
                <g fill="#4ecd2b">
                    <path d="m22.279 7c-0.154 0-0.279 0.125-0.279 0.279v1.244c0 0.305-0.121 0.598-0.337 0.814l-1.387 1.387c-0.152 0.152-0.152 0.4 0 0.552l0.387 0.387c0.083 0.083 0.198 0.124 0.315 0.113 0.116-0.012 0.221-0.075 0.286-0.172 0.408-0.612 1.182-1.773 1.543-2.314 0.126-0.189 0.193-0.411 0.193-0.639v-1.372c0-0.154-0.125-0.279-0.279-0.279h-0.442z"/>
                    <path d="m16 17.847c0-0.093-0.064-0.173-0.154-0.194-0.09-0.022-0.183 0.022-0.225 0.105-0.241 0.482-0.522 1.043-0.6 1.2-0.014 0.028-0.021 0.058-0.021 0.089v0.87c0 0.053 0.021 0.104 0.059 0.142l0.6 0.6c0.057 0.057 0.143 0.074 0.218 0.043 0.074-0.031 0.123-0.104 0.123-0.185v-2.67z"/>
                    <path d="m17 20v0.917c0 0.053-0.021 0.104-0.059 0.142l-0.8 0.8c-0.078 0.078-0.078 0.204 0 0.282l0.718 0.718c0.078 0.078 0.204 0.078 0.282 0l0.8-0.8c0.038-0.038 0.059-0.089 0.059-0.142v-0.834c0-0.053 0.021-0.104 0.059-0.142l0.6-0.6c0.057-0.057 0.074-0.143 0.043-0.218-0.031-0.074-0.104-0.123-0.185-0.123h-0.517-1"/>
                    <path d="m20.2 20c-0.11 0-0.2 0.09-0.2 0.2v0.6c0 0.11 0.09 0.2 0.2 0.2h1.753c0.031 0 0.061 7e-3 0.089 0.021 0.213 0.107 1.177 0.589 1.669 0.834 0.062 0.031 0.135 0.028 0.194-8e-3 0.059-0.037 0.095-0.101 0.095-0.171v-0.593c0-0.053 0.021-0.104 0.059-0.142l0.882-0.882c0.038-0.038 0.059-0.089 0.059-0.142v-0.593c0-0.07-0.036-0.134-0.095-0.171-0.059-0.036-0.132-0.039-0.194-8e-3 -0.492 0.245-1.456 0.727-1.669 0.834-0.028 0.014-0.058 0.021-0.089 0.021h-2.753z"/>
                    <path d="m18 17.5c0-0.276 0.224-0.5 0.5-0.5 0.133 0 0.26 0.053 0.354 0.146 0.093 0.094 0.146 0.221 0.146 0.354v0.293c0 0.202-0.122 0.384-0.309 0.462-0.186 0.077-0.402 0.034-0.545-0.109-0.093-0.093-0.146-0.22-0.146-0.353v-0.293z"/>
                    <path d="m18.5 15c-0.276 0-0.5 0.224-0.5 0.5s0.224 0.5 0.5 0.5 0.5-0.224 0.5-0.5-0.224-0.5-0.5-0.5z"/>
                    <path d="m16.2 24c-0.11 0-0.2 0.09-0.2 0.2v0.6c0 0.11 0.09 0.2 0.2 0.2h0.717c0.053 0 0.104-0.021 0.142-0.059l0.6-0.6c0.057-0.057 0.074-0.143 0.043-0.218-0.031-0.074-0.104-0.123-0.185-0.123h-1.317z"/>
                </g>
                <path d="m13.059 23.941c-0.038 0.038-0.059 0.089-0.059 0.142v1.717c0 0.11 0.09 0.2 0.2 0.2h0.676c0.076 0 0.145-0.043 0.179-0.111 0.189-0.377 0.802-1.603 0.924-1.847 0.014-0.028 0.021-0.058 0.021-0.089v-1.47c0-0.081-0.049-0.154-0.123-0.185-0.075-0.031-0.161-0.014-0.218 0.043l-1.6 1.6z" fill="#48bd28"/>
                <clipPath id="_clip4">
                    <path d="m13.059 23.941c-0.038 0.038-0.059 0.089-0.059 0.142v1.717c0 0.11 0.09 0.2 0.2 0.2h0.676c0.076 0 0.145-0.043 0.179-0.111 0.189-0.377 0.802-1.603 0.924-1.847 0.014-0.028 0.021-0.058 0.021-0.089v-1.47c0-0.081-0.049-0.154-0.123-0.185-0.075-0.031-0.161-0.014-0.218 0.043l-1.6 1.6z"/>
                </clipPath>
                <g clip-path="url(#_clip4)">
                    <circle cx="19" cy="13" r="13" fill="#4ecd2b"/>
                </g>
                <path d="m17 30s-0.219-0.656-0.451-1.354c-0.315-0.945 0.112-1.977 1.002-2.422 1.125-0.562 2.449-1.224 2.449-1.224l2-3 1 2h1l1-2v2l2 4-2 3-3-1h-5z" fill="#48bd28"/>
                <clipPath id="_clip5">
                    <path d="m17 30s-0.219-0.656-0.451-1.354c-0.315-0.945 0.112-1.977 1.002-2.422 1.125-0.562 2.449-1.224 2.449-1.224l2-3 1 2h1l1-2v2l2 4-2 3-3-1h-5z"/>
                </clipPath>
                <g clip-path="url(#_clip5)">
                    <circle cx="19" cy="13" r="13" fill="#4ecd2b"/>
                    <path d="m16 26h5l1-1 3 1v3h-6l-3-2v-1" fill="#f4c815"/>
                </g>
                <path d="m8 23 0.986 0.986c9e-3 9e-3 0.018 0.02 0.025 0.03l1.93 2.895c0.037 0.056 0.099 0.089 0.166 0.089h0.693c0.11 0 0.2-0.09 0.2-0.2v-0.717c0-0.053-0.021-0.104-0.059-0.142l-1.941-1.941" fill="#48bd28"/>
                <path d="m26 21v0.917c0 0.053 0.021 0.104 0.059 0.142l1.6 1.6c0.057 0.057 0.143 0.074 0.218 0.043 0.074-0.031 0.123-0.104 0.123-0.185v-0.434c0-0.053-0.021-0.104-0.059-0.142l-1.941-1.941" fill="#48bd28"/>
                <clipPath id="_clip6">
                    <path d="m26 21v0.917c0 0.053 0.021 0.104 0.059 0.142l1.6 1.6c0.057 0.057 0.143 0.074 0.218 0.043 0.074-0.031 0.123-0.104 0.123-0.185v-0.434c0-0.053-0.021-0.104-0.059-0.142l-1.941-1.941"/>
                </clipPath>
                <g clip-path="url(#_clip6)">
                    <circle cx="19" cy="13" r="13" fill="#4ecd2b"/>
                </g>
            </g>
        </g>
    </g>
</svg>
