<?xml version="1.0" encoding="UTF-8"?>
<!DOCTYPE svg  PUBLIC '-//W3C//DTD SVG 1.1//EN'  'http://www.w3.org/Graphics/SVG/1.1/DTD/svg11.dtd'>
<svg clip-rule="evenodd" fill-rule="evenodd" stroke-linejoin="round" stroke-miterlimit="2" version="1.1" viewBox="0 0 32 32" xml:space="preserve" xmlns="http://www.w3.org/2000/svg">
<metadata>
<rdf:RDF xmlns:cc="http://web.resource.org/cc/" xmlns:dc="http://purl.org/dc/elements/1.1/" xmlns:rdf="http://www.w3.org/1999/02/22-rdf-syntax-ns#">

     <rdf:Description rdf:about="">
       <dc:title>Mutant Standard emoji 2023.12</dc:title>
     </rdf:Description>

    <cc:work rdf:about="">
        <cc:license rdf:resource="http://creativecommons.org/licenses/by-nc-sa/4.0/"/>
        <cc:attributionName>Caius Nocturne</cc:attributionName>
        <cc:attributionURL>http://mutant.tech/</cc:attributionURL>
    </cc:work>

</rdf:RDF>
</metadata>

    <rect id="earth_pacific" width="32" height="32" fill="none"/>
    <clipPath id="_clip1">
        <rect width="32" height="32"/>
    </clipPath>
    <g clip-path="url(#_clip1)">
        <g id="outline">
            <circle cx="16" cy="16" r="16"/>
        </g>
        <g id="emoji">
            <circle cx="16" cy="16" r="14" fill="#0750fa"/>
            <clipPath id="_clip2">
                <circle cx="16" cy="16" r="14"/>
            </clipPath>
            <g clip-path="url(#_clip2)">
                <circle cx="19" cy="13" r="13" fill="#2867fa"/>
                <path d="m8 23v0.5c0 0.276 0.224 0.5 0.5 0.5s0.5 0.224 0.5 0.5 0.224 0.5 0.5 0.5h0.421c0.051 0 0.099-0.02 0.135-0.056l0.888-0.888c0.036-0.036 0.056-0.084 0.056-0.135v-0.421c0-0.133-0.053-0.26-0.146-0.354-0.094-0.093-0.221-0.146-0.354-0.146-0.276 0-0.5 0.224-0.5 0.5v0.5l-2-1z" fill="#48bd28"/>
                <path d="m8 25s-1.396 2.792-1.855 3.711c-0.031 0.062-0.028 0.135 8e-3 0.194 0.037 0.059 0.101 0.095 0.171 0.095h1.476c0.11 0 0.2-0.09 0.2-0.2v-0.753c0-0.031 7e-3 -0.061 0.021-0.089 0.144-0.289 0.979-1.958 0.979-1.958" fill="#48bd28"/>
                <g fill="#4ecd2b">
                    <path d="m15.625 13c-0.101 0-0.187 0.075-0.199 0.176-0.012 0.1 0.052 0.194 0.15 0.218 1.03 0.258 2.218 0.555 2.4 0.6 0.016 4e-3 0.032 6e-3 0.049 6e-3h0.775c0.11 0 0.2-0.09 0.2-0.2v-0.6c0-0.11-0.09-0.2-0.2-0.2h-0.8-2.375z"/>
                    <path d="m10.5 20c-0.276 0-0.5 0.224-0.5 0.5s0.224 0.5 0.5 0.5 0.5-0.224 0.5-0.5-0.224-0.5-0.5-0.5z"/>
                    <path d="m19.5 19c-0.276 0-0.5 0.224-0.5 0.5s0.224 0.5 0.5 0.5 0.5-0.224 0.5-0.5-0.224-0.5-0.5-0.5z"/>
                    <path d="m7.5 16c-0.276 0-0.5 0.224-0.5 0.5s0.224 0.5 0.5 0.5 0.5-0.224 0.5-0.5-0.224-0.5-0.5-0.5z"/>
                    <path d="m13.5 12c-0.276 0-0.5 0.224-0.5 0.5s0.224 0.5 0.5 0.5 0.5-0.224 0.5-0.5-0.224-0.5-0.5-0.5z"/>
                    <path d="m11.5 12c-0.276 0-0.5 0.224-0.5 0.5s0.224 0.5 0.5 0.5 0.5-0.224 0.5-0.5-0.224-0.5-0.5-0.5z"/>
                    <path d="m10.5 11c-0.276 0-0.5 0.224-0.5 0.5s0.224 0.5 0.5 0.5 0.5-0.224 0.5-0.5-0.224-0.5-0.5-0.5z"/>
                    <path d="m8.5 11c-0.276 0-0.5 0.224-0.5 0.5s0.224 0.5 0.5 0.5 0.5-0.224 0.5-0.5-0.224-0.5-0.5-0.5z"/>
                    <path d="m12.5 15c-0.276 0-0.5 0.224-0.5 0.5s0.224 0.5 0.5 0.5 0.5-0.224 0.5-0.5-0.224-0.5-0.5-0.5z"/>
                </g>
                <path d="m5.5 18c-0.276 0-0.5 0.224-0.5 0.5s0.224 0.5 0.5 0.5 0.5-0.224 0.5-0.5-0.224-0.5-0.5-0.5z" fill="#48bd28"/>
                <path d="m7.5 20c-0.276 0-0.5 0.224-0.5 0.5s0.224 0.5 0.5 0.5 0.5-0.224 0.5-0.5-0.224-0.5-0.5-0.5z" fill="#48bd28"/>
                <path d="m25 2h-7v0.892c0 0.294 0.117 0.576 0.325 0.783 0.207 0.208 0.489 0.325 0.783 0.325h1.892l-1 1h2l3 1h3l-3-4z" fill="#4ecd2b"/>
                <path d="m12 2v1.106c0 0.548-0.31 1.049-0.799 1.294-0.253 0.126-0.523 0.261-0.743 0.371-0.301 0.151-0.633 0.229-0.97 0.229-0.129 0-0.254 0.051-0.345 0.143-0.092 0.091-0.143 0.216-0.143 0.345v1.512l-1 1v-3h-3v-3h7z" fill="#48bd28"/>
                <clipPath id="_clip3">
                    <path d="m12 2v1.106c0 0.548-0.31 1.049-0.799 1.294-0.253 0.126-0.523 0.261-0.743 0.371-0.301 0.151-0.633 0.229-0.97 0.229-0.129 0-0.254 0.051-0.345 0.143-0.092 0.091-0.143 0.216-0.143 0.345v1.512l-1 1v-3h-3v-3h7z"/>
                </clipPath>
                <g clip-path="url(#_clip3)">
                    <circle cx="19" cy="13" r="13" fill="#4ecd2b"/>
                </g>
                <path d="m6 26v-2l-6-6v8h6z" fill="#48bd28"/>
                <path d="m3 11h1v4l-2 2 1-2v-4" fill="#48bd28"/>
                <path d="m3.212 20.106c-0.13-0.065-0.212-0.198-0.212-0.343v-1e-3c0-0.163 0.085-0.315 0.223-0.401 0.139-0.085 0.313-0.093 0.459-0.02 0.444 0.222 0.982 0.491 1.209 0.604 0.072 0.036 0.151 0.055 0.231 0.055h0.378c0.276 0 0.5 0.224 0.5 0.5s-0.224 0.5-0.5 0.5h-0.378c-0.08 0-0.159-0.019-0.231-0.055-0.319-0.159-1.255-0.627-1.679-0.839z" fill="#48bd28"/>
            </g>
        </g>
    </g>
</svg>
