<?xml version="1.0" encoding="UTF-8"?>
<svg clip-rule="evenodd" fill-rule="evenodd" stroke-linecap="round" stroke-miterlimit="1.5" viewBox="0 0 32 32" xmlns="http://www.w3.org/2000/svg">
 <clipPath id="a">
  <path d="m0 0h32v32h-32z" clip-rule="evenodd"/>
 </clipPath>
 <path d="m0 0h32v32h-32z" fill="none"/>
 <g clip-path="url(#a)">
  <path d="m12 30c-1.326 0-2.598-0.527-3.536-1.464-0.937-0.938-1.464-2.21-1.464-3.536v-13.502c0-2.519 1.001-4.935 2.782-6.716s4.197-2.782 6.716-2.782h0.786c2.577 0 5.048 1.024 6.87 2.846s2.846 4.293 2.846 6.87v1e-3c0 3.344-1.501 6.511-4.089 8.628-3.129 2.56-6.911 5.655-6.911 5.655 0 2.209-1.791 4-4 4z" fill="none" stroke="#000" stroke-width="4"/>
  <path d="m12 30c-1.326 0-2.598-0.527-3.536-1.464-0.937-0.938-1.464-2.21-1.464-3.536v-13.502c0-2.519 1.001-4.935 2.782-6.716s4.197-2.782 6.716-2.782h0.786c2.577 0 5.048 1.024 6.87 2.846s2.846 4.293 2.846 6.87v1e-3c0 3.344-1.501 6.511-4.089 8.628-3.129 2.56-6.911 5.655-6.911 5.655 0 2.209-1.791 4-4 4z" fill="#FEE3D2"/>
  <path d="m10 12v8c0 1.061 0.421 2.078 1.172 2.828 0.75 0.751 1.767 1.172 2.828 1.172h1s4.753-4.753 7.351-7.351c1.056-1.056 1.649-2.488 1.649-3.981v-1.668c0-3.314-2.686-6-6-6h-1c-3.314 0-6 2.686-6 6z" fill="#D4B9AF"/>
  <path d="m13 17c0-.796-.316-1.559-.879-2.121-.562-.563-1.325-.879-2.121-.879-.574 0-1 0-1 0v6h1c.796 0 1.559-.316 2.121-.879.563-.562.879-1.325.879-2.121z" fill="#FEE3D2"/>
  <g fill="none" stroke-width="2">
   <path d="m15 23s2.864-2.228 5.361-4.17c2.296-1.785 3.639-4.531 3.639-7.44v-2e-3c0-3.528-2.86-6.388-6.388-6.388h-0.112c-3.59 0-6.5 2.91-6.5 6.5v2.5s0.808 0.808 1.586 1.586c0.781 0.781 0.781 2.047 0 2.828l-1.586 1.586" stroke="#2b2b2b"/>
   <path d="m15 10c2.761 0 5 2.239 5 5" stroke="#FEE3D2"/>
  </g>
 </g>
</svg>
