<?xml version="1.0" encoding="UTF-8"?>
<!DOCTYPE svg  PUBLIC '-//W3C//DTD SVG 1.1//EN'  'http://www.w3.org/Graphics/SVG/1.1/DTD/svg11.dtd'>
<svg clip-rule="evenodd" fill-rule="evenodd" stroke-linecap="round" stroke-miterlimit="1.5" version="1.1" viewBox="0 0 32 32" xml:space="preserve" xmlns="http://www.w3.org/2000/svg">
<metadata>
<rdf:RDF xmlns:cc="http://web.resource.org/cc/" xmlns:dc="http://purl.org/dc/elements/1.1/" xmlns:rdf="http://www.w3.org/1999/02/22-rdf-syntax-ns#">

     <rdf:Description rdf:about="">
       <dc:title>Mutant Standard emoji 2023.12</dc:title>
     </rdf:Description>

    <cc:work rdf:about="">
        <cc:license rdf:resource="http://creativecommons.org/licenses/by-nc-sa/4.0/"/>
        <cc:attributionName>Caius Nocturne</cc:attributionName>
        <cc:attributionURL>http://mutant.tech/</cc:attributionURL>
    </cc:work>

</rdf:RDF>
</metadata>

    <rect id="ear" width="32" height="32" fill="none"/>
    <clipPath id="_clip1">
        <rect width="32" height="32"/>
    </clipPath>
    <g clip-path="url(#_clip1)">
        <g id="outline">
            <path d="m12 30c-1.326 0-2.598-0.527-3.536-1.464-0.937-0.938-1.464-2.21-1.464-3.536v-13.502c0-2.519 1.001-4.935 2.782-6.716s4.197-2.782 6.716-2.782h0.786c2.577 0 5.048 1.024 6.87 2.846s2.846 4.293 2.846 6.87v1e-3c0 3.344-1.501 6.511-4.089 8.628-3.129 2.56-6.911 5.655-6.911 5.655 0 2.209-1.791 4-4 4z" fill="none" stroke="#000" stroke-width="4px"/>
        </g>
        <g id="emoji">
            <path d="m12 30c-1.326 0-2.598-0.527-3.536-1.464-0.937-0.938-1.464-2.21-1.464-3.536v-13.502c0-2.519 1.001-4.935 2.782-6.716s4.197-2.782 6.716-2.782h0.786c2.577 0 5.048 1.024 6.87 2.846s2.846 4.293 2.846 6.87v1e-3c0 3.344-1.501 6.511-4.089 8.628-3.129 2.56-6.911 5.655-6.911 5.655 0 2.209-1.791 4-4 4z" fill="#F793FE"/>
            <path d="m10 12v8c0 1.061 0.421 2.078 1.172 2.828 0.75 0.751 1.767 1.172 2.828 1.172h1l7.351-7.351c1.056-1.056 1.649-2.488 1.649-3.981v-1.668c0-3.314-2.686-6-6-6h-1c-3.314 0-6 2.686-6 6l-1 1z" fill="#D470F5"/>
            <path d="m13 17c0-0.796-0.316-1.559-0.879-2.121-0.562-0.563-1.325-0.879-2.121-0.879h-1v6h1c0.796 0 1.559-0.316 2.121-0.879 0.563-0.562 0.879-1.325 0.879-2.121z" fill="#F793FE"/>
            <path d="m15 23s2.864-2.228 5.361-4.17c2.296-1.785 3.639-4.531 3.639-7.44v-2e-3c0-3.528-2.86-6.388-6.388-6.388h-0.112c-3.59 0-6.5 2.91-6.5 6.5v2.5l1.586 1.586c0.781 0.781 0.781 2.047 0 2.828l-1.586 1.586" fill="none" stroke="#791F8D" stroke-width="2px"/>
        </g>
        <path d="m15 10c2.761 0 5 2.239 5 5" fill="none" stroke="#F793FE" stroke-width="2px"/>
    </g>
</svg>
