<?xml version="1.0" encoding="UTF-8"?>
<!DOCTYPE svg  PUBLIC '-//W3C//DTD SVG 1.1//EN'  'http://www.w3.org/Graphics/SVG/1.1/DTD/svg11.dtd'>
<svg clip-rule="evenodd" fill-rule="evenodd" stroke-linecap="round" stroke-miterlimit="1.5" version="1.1" viewBox="0 0 32 32" xml:space="preserve" xmlns="http://www.w3.org/2000/svg">
<metadata>
<rdf:RDF xmlns:cc="http://web.resource.org/cc/" xmlns:dc="http://purl.org/dc/elements/1.1/" xmlns:rdf="http://www.w3.org/1999/02/22-rdf-syntax-ns#">

     <rdf:Description rdf:about="">
       <dc:title>Mutant Standard emoji 2023.12</dc:title>
     </rdf:Description>

    <cc:work rdf:about="">
        <cc:license rdf:resource="http://creativecommons.org/licenses/by-nc-sa/4.0/"/>
        <cc:attributionName>Caius Nocturne</cc:attributionName>
        <cc:attributionURL>http://mutant.tech/</cc:attributionURL>
    </cc:work>

</rdf:RDF>
</metadata>

    <rect id="long_pointy_ear" width="32" height="32" fill="none"/>
    <clipPath id="_clip1">
        <rect width="32" height="32"/>
    </clipPath>
    <g clip-path="url(#_clip1)">
        <g id="outline">
            <path d="m6 30c-1.657 0-3-1.343-3-3v-10.317c0-4.531 3.046-8.495 7.423-9.663 5.051-1.347 11.657-3.108 16.417-4.377 0.844-0.225 1.737 0.124 2.205 0.862 0.467 0.738 0.401 1.695-0.163 2.362-2.624 3.101-5.697 6.733-6.612 7.814-0.18 0.213-0.354 0.43-0.521 0.653-0.601 0.803-2.178 2.904-3.528 4.705-1.472 1.962-3.237 3.687-5.233 5.113-1.897 1.354-3.988 2.848-3.988 2.848 0 1.657-1.343 3-3 3z" fill="none" stroke="#000" stroke-width="4px"/>
        </g>
        <g id="emoji">
            <path d="m6 30c-1.657 0-3-1.343-3-3v-10.317c0-4.531 3.046-8.495 7.423-9.663 5.051-1.347 11.657-3.108 16.417-4.377 0.844-0.225 1.737 0.124 2.205 0.862 0.467 0.738 0.401 1.695-0.163 2.362-2.624 3.101-5.697 6.733-6.612 7.814-0.18 0.213-0.354 0.43-0.521 0.653-0.601 0.803-2.178 2.904-3.528 4.705-1.472 1.962-3.237 3.687-5.233 5.113-1.897 1.354-3.988 2.848-3.988 2.848 0 1.657-1.343 3-3 3z" fill="#5C392E"/>
            <path d="m5 17v3c0 2.209 1.791 4 4 4h1l6-6 2-3 8-9-2-1-16 6-3 4v2z" fill="#412116"/>
            <path d="m8 18c0-0.796-0.316-1.559-0.879-2.121-0.562-0.563-1.325-0.879-2.121-0.879h-1v6h1c0.796 0 1.559-0.316 2.121-0.879 0.563-0.562 0.879-1.325 0.879-2.121z" fill="#5C392E"/>
            <path d="m10 23s3.994-3.328 5.465-4.554c0.356-0.297 0.686-0.624 0.985-0.978 0.95-1.122 3.07-3.628 3.07-3.628s4.474-5.288 6.502-7.684c0.128-0.152 0.142-0.37 0.033-0.537-0.109-0.166-0.315-0.241-0.505-0.184-3.06 0.918-10.26 3.078-14.736 4.421-2.365 0.709-4.181 2.612-4.78 5.007-0.022 0.088-0.034 0.137-0.034 0.137l1.586 1.586c0.781 0.781 0.781 2.047 0 2.828l-1.586 1.586" fill="none" stroke="#21120D" stroke-linejoin="round" stroke-width="2px"/>
            <path d="m11 13c1.657 0 3 1.343 3 3" fill="none" stroke="#5C392E" stroke-width="2px"/>
            <path d="m17 11h1e-3c0.552 0 0.999 0.447 0.999 0.999v1e-3" fill="none" stroke="#5C392E" stroke-width="2px"/>
        </g>
    </g>
</svg>
