<?xml version="1.0" encoding="UTF-8"?>
<svg clip-rule="evenodd" fill-rule="evenodd" stroke-linecap="round" stroke-linejoin="round" stroke-miterlimit="1.5" viewBox="0 0 32 32" xmlns="http://www.w3.org/2000/svg">
 <clipPath id="a">
  <path d="m0 0h32v32h-32z" clip-rule="evenodd"/>
 </clipPath>
 <path d="m0 0h32v32h-32z" fill="none"/>
 <g clip-path="url(#a)">
  <path d="m16 2c8.837 0 16 7.163 16 16v1c0 0.894-0.091 1.768-0.264 2.611 0.229 1.613-0.298 3.279-1.494 4.476-1e-3 0-1e-3 1e-3 -1e-3 1e-3 -0.246 0.245-0.513 0.464-0.798 0.654-2.367 3.191-6.164 5.258-10.443 5.258h-6c-7.18 0-13-5.82-13-13v-1c0-8.837 7.163-16 16-16z"/>
  <path d="m25.885 27.579c-1.885 1.515-4.279 2.421-6.885 2.421h-6c-6.075 0-11-4.925-11-11v-1c0-7.732 6.268-14 14-14s14 6.268 14 14v1c0 1.303-0.227 2.554-0.643 3.714 0 0-4.116 4.743-3.472 4.865z" fill="#fbc546"/>
  <path d="m29.357 22.714c-0.691 1.928-1.906 3.607-3.472 4.865-0.644-0.122-1.241-0.435-1.711-0.905l-1e-3 -1e-3c-0.999-0.999-1.247-2.525-0.615-3.789l2.942-5.884z" fill="#e59a10"/>
  <path d="m10.887 9.207.788-.45c.105.083.205.172.3.268.656.656 1.025 1.545 1.025 2.473v2.002c0 1.933-1.567 3.5-3.5 3.5h-.002c-.928 0-1.817-.369-2.473-1.025s-1.025-1.545-1.025-2.473v-1.502l2.005-1.146c.564.134 2.884-.997 2.882-1.647z" fill="#fff"/>
  <path d="m10.887 9.207c.193.096.372.223.527.379.375.375.586.884.586 1.414v2.983c0 .531-.211 1.039-.586 1.415-.375.375-.884.585-1.414.585s-1.039-.21-1.414-.585c-.375-.376-.586-.884-.586-1.415 0-.935 0-2.047 0-2.983 0-.049.002-.098.005-.146z"/>
  <path d="m21.113 9.207-.788-.45c-.105.083-.205.172-.3.268-.656.656-1.025 1.545-1.025 2.473v2.002c0 1.933 1.567 3.5 3.5 3.5h.002c.928 0 1.817-.369 2.473-1.025s1.025-1.545 1.025-2.473v-1.502l-2.005-1.146c-.564.134-2.884-.997-2.882-1.647z" fill="#fff"/>
  <path d="m21.113 9.207c-.193.096-.372.223-.527.379-.375.375-.586.884-.586 1.414v2.983c0 .531.211 1.039.586 1.415.375.375.884.585 1.414.585s1.039-.21 1.414-.585c.375-.376.586-.884.586-1.415 0-.935 0-2.047 0-2.983 0-.049-.002-.098-.005-.146z"/>
  <path d="m9 22s0.921-0.921 1.879-1.879c1.358-1.358 3.2-2.121 5.121-2.121s3.763 0.763 5.121 2.121l1.879 1.879" fill="none" stroke="#593604" stroke-width="2"/>
  <path d="m26.5 15s-1.757 3.514-2.942 5.884c-0.632 1.264-0.384 2.79 0.615 3.789l1e-3 1e-3c0.617 0.617 1.453 0.963 2.326 0.963s1.709-0.346 2.326-0.963l1e-3 -1e-3c0.999-0.999 1.247-2.525 0.615-3.789l-2.942-5.884z" fill="#41b4de"/>
 </g>
</svg>
