<?xml version="1.0" encoding="UTF-8"?>
<!DOCTYPE svg  PUBLIC '-//W3C//DTD SVG 1.1//EN'  'http://www.w3.org/Graphics/SVG/1.1/DTD/svg11.dtd'>
<svg clip-rule="evenodd" fill-rule="evenodd" stroke-linecap="square" stroke-linejoin="round" stroke-miterlimit="1.5" version="1.1" viewBox="0 0 32 32" xml:space="preserve" xmlns="http://www.w3.org/2000/svg">
<metadata>
<rdf:RDF xmlns:cc="http://web.resource.org/cc/" xmlns:dc="http://purl.org/dc/elements/1.1/" xmlns:rdf="http://www.w3.org/1999/02/22-rdf-syntax-ns#">

     <rdf:Description rdf:about="">
       <dc:title>Mutant Standard emoji 2023.12</dc:title>
     </rdf:Description>

    <cc:work rdf:about="">
        <cc:license rdf:resource="http://creativecommons.org/licenses/by-nc-sa/4.0/"/>
        <cc:attributionName>Caius Nocturne</cc:attributionName>
        <cc:attributionURL>http://mutant.tech/</cc:attributionURL>
    </cc:work>

</rdf:RDF>
</metadata>

    <rect id="closed_umbrella" width="32" height="32" fill="none"/>
    <clipPath id="_clip1">
        <rect width="32" height="32"/>
    </clipPath>
    <g clip-path="url(#_clip1)">
        <g id="outline">
            <path d="m18.772 9.986 1.985-1.986s-0.808-0.808-1.585-1.586c-0.781-0.781-0.781-2.047 0-2.828 0.827-0.828 1.71-1.711 1.71-1.711 1.998-1.998 5.238-1.998 7.236 0l7e-3 7e-3c1.998 1.998 1.998 5.238 0 7.236l-5.111 5.11c0.684-0.17 1.411-0.032 1.987 0.383 0.627 0.452 0.999 1.178 0.999 1.951v0.921c0 1.038-0.556 1.995-1.456 2.51-3.044 1.739-20.552 11.743-20.552 11.743-0.783 0.448-1.768 0.316-2.406-0.322s-0.77-1.623-0.322-2.406c0 0 10.004-17.508 11.743-20.552 0.515-0.9 1.472-1.456 2.51-1.456h0.921c0.773 0 1.499 0.372 1.951 0.999 0.415 0.576 0.553 1.303 0.383 1.987z"/>
        </g>
        <g id="emoji">
            <path d="m22 5 1.004-1.004c0.826-0.826 2.166-0.826 2.992 0l8e-3 8e-3c0.396 0.397 0.619 0.935 0.619 1.496s-0.223 1.1-0.619 1.496l-2.267 2.267" fill="none" stroke="#525252" stroke-width="2px"/>
            
                <path d="m17 15.414v-0.828l3.724-3.724 1.603-0.096 0.282 1.039-4.609 4.609-1-1z" fill="#3d3d3d"/>
                <path d="m20.724 10.862 3.276-3.276 1.414 1.414-2.805 2.805-1.885-0.943z" fill="#525252"/>
            
            
                <path d="m18.354 14.646c0.108 0.109 0.269 0.146 0.414 0.098 0.532-0.177 1.227-0.409 1.699-0.566 0.123-0.041 0.259-0.021 0.365 0.055 0.105 0.076 0.168 0.199 0.168 0.329v1.876c0 0.13 0.063 0.253 0.168 0.329 0.106 0.076 0.242 0.096 0.365 0.055 0.546-0.182 1.388-0.462 1.934-0.644 0.123-0.041 0.259-0.021 0.365 0.055 0.105 0.076 0.168 0.199 0.168 0.329v0.921c0 0.32-0.171 0.615-0.448 0.773-3.044 1.74-20.552 11.744-20.552 11.744l0.864-1.372 13.136-13.628 1.354-0.354z" fill="#b3222e"/>
                <path d="m3 30 11.744-20.552c0.158-0.277 0.453-0.448 0.773-0.448h0.921c0.13 0 0.253 0.063 0.329 0.168 0.076 0.106 0.096 0.242 0.055 0.365-0.182 0.546-0.462 1.388-0.644 1.934-0.041 0.123-0.021 0.259 0.055 0.365 0.076 0.105 0.199 0.168 0.329 0.168h1.876c0.13 0 0.253 0.063 0.329 0.168 0.076 0.106 0.096 0.242 0.055 0.365-0.157 0.472-0.389 1.167-0.566 1.699l0.098 0.414-15.354 15.354z" fill="#e82731"/>
            
        </g>
    </g>
</svg>
