<?xml version="1.0" encoding="UTF-8"?>
<!DOCTYPE svg  PUBLIC '-//W3C//DTD SVG 1.1//EN'  'http://www.w3.org/Graphics/SVG/1.1/DTD/svg11.dtd'>
<svg clip-rule="evenodd" fill-rule="evenodd" stroke-linecap="square" stroke-linejoin="round" stroke-miterlimit="1.5" version="1.1" viewBox="0 0 32 32" xml:space="preserve" xmlns="http://www.w3.org/2000/svg">
<metadata>
<rdf:RDF xmlns:cc="http://web.resource.org/cc/" xmlns:dc="http://purl.org/dc/elements/1.1/" xmlns:rdf="http://www.w3.org/1999/02/22-rdf-syntax-ns#">

     <rdf:Description rdf:about="">
       <dc:title>Mutant Standard emoji 2023.12</dc:title>
     </rdf:Description>

    <cc:work rdf:about="">
        <cc:license rdf:resource="http://creativecommons.org/licenses/by-nc-sa/4.0/"/>
        <cc:attributionName>Caius Nocturne</cc:attributionName>
        <cc:attributionURL>http://mutant.tech/</cc:attributionURL>
    </cc:work>

</rdf:RDF>
</metadata>

    <rect id="umbrella" width="32" height="32" fill="none"/>
    <clipPath id="_clip1">
        <rect width="32" height="32"/>
    </clipPath>
    <g clip-path="url(#_clip1)">
        <g id="outline">
            <path d="m13 16.528-2.671 0.445c-0.417 0.069-0.845 5e-3 -1.223-0.184 0 0-1.383-0.691-2.522-1.261-0.695-0.347-1.46-0.528-2.236-0.528h-2.348c-0.693 0-1.337-0.359-1.701-0.949-0.365-0.589-0.398-1.325-0.088-1.945 0 0 0.677-1.353 1.387-2.774 1.249-2.497 3.317-4.49 5.858-5.645 3.242-1.474 7.716-3.508 7.716-3.508 0.526-0.239 1.13-0.239 1.656 0 0 0 4.474 2.034 7.716 3.508 2.541 1.155 4.609 3.148 5.858 5.645 0.71 1.421 1.387 2.774 1.387 2.774 0.31 0.62 0.277 1.356-0.088 1.945-0.364 0.59-1.008 0.949-1.701 0.949h-2.348c-0.776 0-1.541 0.181-2.236 0.528-1.139 0.57-2.522 1.261-2.522 1.261-0.378 0.189-0.806 0.253-1.223 0.184l-2.671-0.445v10.472c-2e-3 0.554-0.092 1.105-0.273 1.628-0.28 0.814-0.772 1.55-1.417 2.12-0.505 0.446-1.1 0.787-1.739 0.999-0.497 0.164-1.017 0.248-1.54 0.253h-0.031c-1.326 0-2.598-0.527-3.536-1.464-0.937-0.938-1.464-2.21-1.464-3.536v-2c0-0.53 0.211-1.039 0.586-1.414s0.884-0.586 1.414-0.586h2v-6.472z"/>
        </g>
        <g id="emoji">
            <path d="m16 11v16c0 0.53-0.211 1.039-0.586 1.414s-0.884 0.586-1.414 0.586-1.039-0.211-1.414-0.586-0.586-0.884-0.586-1.414v-1" fill="none" stroke="#525252" stroke-width="2px"/>
            <rect x="15" y="13.249" width="2" height="6.751" fill="#3d3d3d"/>
            <path d="m16 2s4.475 2.034 7.716 3.507c2.125 0.966 3.853 2.632 4.897 4.719 0.711 1.421 1.387 2.774 1.387 2.774h-2.348c-1.086 0-2.158 0.253-3.13 0.739l-2.522 1.261-6-13z" fill="#a31f28"/>
            <path d="m16 2 3.567 5.351c0.287 0.43 0.505 0.902 0.647 1.399l1.786 6.25s-3.107-0.518-4.849-0.808c-0.762-0.127-1.54-0.127-2.302 0-1.742 0.29-4.849 0.808-4.849 0.808s-1.383-0.691-2.522-1.261c-0.972-0.486-2.044-0.739-3.13-0.739h-2.348l1.387-2.774c1.044-2.087 2.772-3.753 4.897-4.719l7.716-3.507z" fill="#e82731"/>
            <clipPath id="_clip2">
                <path d="m16 2 3.567 5.351c0.287 0.43 0.505 0.902 0.647 1.399l1.786 6.25s-3.107-0.518-4.849-0.808c-0.762-0.127-1.54-0.127-2.302 0-1.742 0.29-4.849 0.808-4.849 0.808s-1.383-0.691-2.522-1.261c-0.972-0.486-2.044-0.739-3.13-0.739h-2.348l1.387-2.774c1.044-2.087 2.772-3.753 4.897-4.719l7.716-3.507z"/>
            </clipPath>
            <g clip-path="url(#_clip2)">
                <path d="m16 1v1s-2.532 3.798-3.567 5.351c-0.287 0.43-0.505 0.902-0.647 1.399-0.517 1.807-1.786 6.25-1.786 6.25v2" fill="none" stroke="#bd242e" stroke-miterlimit="3" stroke-width="2px"/>
            </g>
        </g>
    </g>
</svg>
