<?xml version="1.0" encoding="UTF-8"?>
<!DOCTYPE svg  PUBLIC '-//W3C//DTD SVG 1.1//EN'  'http://www.w3.org/Graphics/SVG/1.1/DTD/svg11.dtd'>
<svg clip-rule="evenodd" fill-rule="evenodd" stroke-linecap="round" stroke-linejoin="round" stroke-miterlimit="1.5" version="1.1" viewBox="0 0 32 32" xml:space="preserve" xmlns="http://www.w3.org/2000/svg">
<metadata>
<rdf:RDF xmlns:cc="http://web.resource.org/cc/" xmlns:dc="http://purl.org/dc/elements/1.1/" xmlns:rdf="http://www.w3.org/1999/02/22-rdf-syntax-ns#">

     <rdf:Description rdf:about="">
       <dc:title>Mutant Standard emoji 2023.12</dc:title>
     </rdf:Description>

    <cc:work rdf:about="">
        <cc:license rdf:resource="http://creativecommons.org/licenses/by-nc-sa/4.0/"/>
        <cc:attributionName>Caius Nocturne</cc:attributionName>
        <cc:attributionURL>http://mutant.tech/</cc:attributionURL>
    </cc:work>

</rdf:RDF>
</metadata>
<rect id="beers" width="32" height="32" fill="none"/><clipPath id="_clip1"><rect width="32" height="32"/></clipPath><g clip-path="url(#_clip1)"><g id="outline"><path d="m18 6v-3" fill="none" stroke="#000" stroke-width="6px"/><path d="m22 7 2-2" fill="none" stroke="#000" stroke-width="6px"/><path d="m13 7-2-2" fill="none" stroke="#000" stroke-width="6px"/><path d="m17 12h9v3h2c0.53 0 1.039 0.211 1.414 0.586s0.586 0.884 0.586 1.414v7c0 0.53-0.211 1.039-0.586 1.414s-0.884 0.586-1.414 0.586h-1.977c0.015 0.121 0.037 0.24 0.067 0.358 0.133 0.535 0.392 1.57 0.599 2.399 0.075 0.299 8e-3 0.616-0.182 0.858-0.189 0.243-0.48 0.385-0.788 0.385h-10.438c-0.308 0-0.599-0.142-0.788-0.385-0.19-0.242-0.257-0.559-0.182-0.858l0.439-1.757h-8.469c-0.308 0-0.599-0.142-0.788-0.385-0.19-0.242-0.257-0.559-0.182-0.858 0.207-0.829 0.466-1.864 0.599-2.399 0.03-0.118 0.052-0.237 0.067-0.358h-1.977c-0.53 0-1.039-0.211-1.414-0.586s-0.586-0.884-0.586-1.414v-7c0-0.53 0.211-1.039 0.586-1.414s0.884-0.586 1.414-0.586h2v-3h11v3zm11 5h-2v7h2v-7zm-22-3h-2v7h2v-7z" fill="none" stroke="#000" stroke-linecap="square" stroke-width="4px"/><rect x="17" y="7" width="5" height="5"/></g><g id="emoji"><path d="m15 12h11v3h2c0.53 0 1.039 0.211 1.414 0.586s0.586 0.884 0.586 1.414v7c0 0.53-0.211 1.039-0.586 1.414s-0.884 0.586-1.414 0.586h-1.977c0.015 0.121 0.037 0.24 0.067 0.358 0.133 0.535 0.392 1.57 0.599 2.399 0.075 0.299 8e-3 0.616-0.182 0.858-0.189 0.243-0.48 0.385-0.788 0.385h-10.438c-0.308 0-0.599-0.142-0.788-0.385-0.19-0.242-0.257-0.559-0.182-0.858 0.207-0.829 0.466-1.864 0.599-2.399 0.06-0.238 0.09-0.482 0.09-0.727v-13.631zm11 12h2v-7h-2v7z" fill="#cfcfcf"/><clipPath id="_clip2"><path d="m15 12h11v3h2c0.53 0 1.039 0.211 1.414 0.586s0.586 0.884 0.586 1.414v7c0 0.53-0.211 1.039-0.586 1.414s-0.884 0.586-1.414 0.586h-1.977c0.015 0.121 0.037 0.24 0.067 0.358 0.133 0.535 0.392 1.57 0.599 2.399 0.075 0.299 8e-3 0.616-0.182 0.858-0.189 0.243-0.48 0.385-0.788 0.385h-10.438c-0.308 0-0.599-0.142-0.788-0.385-0.19-0.242-0.257-0.559-0.182-0.858 0.207-0.829 0.466-1.864 0.599-2.399 0.06-0.238 0.09-0.482 0.09-0.727v-13.631zm11 12h2v-7h-2v7z"/></clipPath><g clip-path="url(#_clip2)"><path d="m16 15 1-1h7l1 1v3l-1 1h-7l-1-1v-3z" fill="#ce9002"/><path d="m16 18h9v7l-0.233 0.233c-1.131 1.131-2.666 1.767-4.266 1.767h-2e-3c-1.6 0-3.135-0.636-4.266-1.767l-0.233-0.233v-7z" fill="#fdb203"/><rect x="16" y="12" width="9" height="3" fill="#fff"/><path d="m22 13.999c0-0.552 0.447-0.999 0.999-0.999h1e-3c0.265 0 0.52 0.105 0.707 0.293 0.188 0.187 0.293 0.442 0.293 0.707v7c0 0.265-0.105 0.52-0.293 0.707-0.187 0.188-0.442 0.293-0.707 0.293h-1e-3c-0.552 0-0.999-0.447-0.999-0.999v-7.002z" fill="#fff" fill-opacity=".60392"/><path d="m6 9h11v13.631c0 0.245 0.03 0.489 0.09 0.727 0.133 0.535 0.392 1.57 0.599 2.399 0.075 0.299 8e-3 0.616-0.182 0.858-0.189 0.243-0.48 0.385-0.788 0.385h-10.438c-0.308 0-0.599-0.142-0.788-0.385-0.19-0.242-0.257-0.559-0.182-0.858 0.207-0.829 0.466-1.864 0.599-2.399 0.06-0.238 0.09-0.482 0.09-0.727v-13.631z" fill="none" stroke="#000" stroke-linecap="square" stroke-opacity=".58824" stroke-width="4px"/></g><path d="m6 12v-3h11v13.631c0 0.245 0.03 0.489 0.09 0.727 0.133 0.535 0.392 1.57 0.599 2.399 0.075 0.299 8e-3 0.616-0.182 0.858-0.189 0.243-0.48 0.385-0.788 0.385h-10.438c-0.308 0-0.599-0.142-0.788-0.385-0.19-0.242-0.257-0.559-0.182-0.858 0.207-0.829 0.466-1.864 0.599-2.399 0.03-0.118 0.052-0.237 0.067-0.358h-1.977c-0.53 0-1.039-0.211-1.414-0.586s-0.586-0.884-0.586-1.414v-7c0-0.53 0.211-1.039 0.586-1.414s0.884-0.586 1.414-0.586h2zm0 9v-7h-2v7h2z" fill="#ccc"/><path d="m7 12 1-1h7l1 1v3l-1 1h-7l-1-1v-3z" fill="#ce9002"/><path d="m7 15h9v7l-0.233 0.233c-1.131 1.131-2.666 1.767-4.266 1.767h-2e-3c-1.6 0-3.135-0.636-4.266-1.767l-0.233-0.233v-7z" fill="#fdb203"/><rect x="7" y="9" width="9" height="3" fill="#fff"/><path d="m13 10.999c0-0.552 0.447-0.999 0.999-0.999h1e-3c0.265 0 0.52 0.105 0.707 0.293 0.188 0.187 0.293 0.442 0.293 0.707v7c0 0.265-0.105 0.52-0.293 0.707-0.187 0.188-0.442 0.293-0.707 0.293h-1e-3c-0.552 0-0.999-0.447-0.999-0.999v-7.002z" fill="#fff" fill-opacity=".60392"/><path d="m18 6v-3" fill="none" stroke="#fff" stroke-width="2px"/><path d="m22 7 2-2" fill="none" stroke="#fff" stroke-width="2px"/><path d="m13 7-2-2" fill="none" stroke="#fff" stroke-width="2px"/></g></g></svg>
