<?xml version="1.0" encoding="UTF-8"?>
<!DOCTYPE svg  PUBLIC '-//W3C//DTD SVG 1.1//EN'  'http://www.w3.org/Graphics/SVG/1.1/DTD/svg11.dtd'>
<svg clip-rule="evenodd" fill-rule="evenodd" stroke-linecap="round" stroke-linejoin="round" stroke-miterlimit="1.5" version="1.1" viewBox="0 0 32 32" xml:space="preserve" xmlns="http://www.w3.org/2000/svg">
<metadata>
<rdf:RDF xmlns:cc="http://web.resource.org/cc/" xmlns:dc="http://purl.org/dc/elements/1.1/" xmlns:rdf="http://www.w3.org/1999/02/22-rdf-syntax-ns#">

     <rdf:Description rdf:about="">
       <dc:title>Mutant Standard emoji 2023.12</dc:title>
     </rdf:Description>

    <cc:work rdf:about="">
        <cc:license rdf:resource="http://creativecommons.org/licenses/by-nc-sa/4.0/"/>
        <cc:attributionName>Caius Nocturne</cc:attributionName>
        <cc:attributionURL>http://mutant.tech/</cc:attributionURL>
    </cc:work>

</rdf:RDF>
</metadata>
<rect id="cannabis_leaf" width="32" height="32" fill="none"/><clipPath id="_clip1"><rect width="32" height="32"/></clipPath><g clip-path="url(#_clip1)"><g id="Layer2"><path d="m15 30v-6.501c-1.356 1.566-3.343 2.501-5.472 2.501h-1.528c1.002-2.004 2.859-3.404 5-3.849v-0.018c-3.647 0.964-7.561 0.586-11-1.133 2.889-1.445 6.114-1.942 9.234-1.492-2.391-1.548-4.336-3.712-5.619-6.278-0.857-1.713-1.615-3.23-1.615-3.23s1.517 0.758 3.23 1.615c3.062 1.531 5.551 4.003 7.103 7.052l7e-3 -7e-3c-2.012-4.395-1.932-9.475 0.238-13.815 0.803-1.606 1.422-2.845 1.422-2.845s0.619 1.239 1.422 2.845c2.17 4.34 2.25 9.42 0.238 13.815l7e-3 7e-3c1.552-3.049 4.041-5.521 7.103-7.052 1.713-0.857 3.23-1.615 3.23-1.615s-0.758 1.517-1.615 3.23c-1.283 2.566-3.228 4.73-5.619 6.278 3.12-0.45 6.345 0.047 9.234 1.492-3.439 1.719-7.353 2.097-11 1.133v0.018c2.141 0.445 3.998 1.845 5 3.849h-1.528c-2.129 0-4.116-0.935-5.472-2.501v6.501h-2z" fill="none" stroke="#000" stroke-width="4px"/></g><g id="Layer1"><path d="m14.34 18.66c-2.012-4.395-1.932-9.475 0.238-13.815 0.803-1.606 1.422-2.845 1.422-2.845s0.619 1.239 1.422 2.845c2.17 4.34 2.25 9.42 0.238 13.815l7e-3 7e-3c1.552-3.049 4.041-5.521 7.103-7.052 1.713-0.857 3.23-1.615 3.23-1.615s-0.758 1.517-1.615 3.23c-1.283 2.566-3.228 4.73-5.619 6.278 3.12-0.45 6.345 0.047 9.234 1.492-3.439 1.719-7.353 2.097-11 1.133v0.018c2.141 0.445 3.998 1.845 5 3.849h-1.528c-2.129 0-4.116-0.935-5.472-2.501v6.501h-2v-6.501c-1.356 1.566-3.343 2.501-5.472 2.501h-1.528c1.002-2.004 2.859-3.404 5-3.849v-0.018c-3.647 0.964-7.561 0.586-11-1.133 2.889-1.445 6.114-1.942 9.234-1.492-2.391-1.548-4.336-3.712-5.619-6.278-0.857-1.713-1.615-3.23-1.615-3.23s1.517 0.758 3.23 1.615c3.062 1.531 5.551 4.003 7.103 7.052l7e-3 -7e-3z" fill="#1cb356"/></g></g></svg>
