<?xml version="1.0" encoding="UTF-8"?>
<!DOCTYPE svg  PUBLIC '-//W3C//DTD SVG 1.1//EN'  'http://www.w3.org/Graphics/SVG/1.1/DTD/svg11.dtd'>
<svg clip-rule="evenodd" fill-rule="evenodd" stroke-linecap="round" stroke-linejoin="round" stroke-miterlimit="10" version="1.1" viewBox="0 0 32 32" xml:space="preserve" xmlns="http://www.w3.org/2000/svg">
<metadata>
<rdf:RDF xmlns:cc="http://web.resource.org/cc/" xmlns:dc="http://purl.org/dc/elements/1.1/" xmlns:rdf="http://www.w3.org/1999/02/22-rdf-syntax-ns#">

     <rdf:Description rdf:about="">
       <dc:title>Mutant Standard emoji 2023.12</dc:title>
     </rdf:Description>

    <cc:work rdf:about="">
        <cc:license rdf:resource="http://creativecommons.org/licenses/by-nc-sa/4.0/"/>
        <cc:attributionName>Caius Nocturne</cc:attributionName>
        <cc:attributionURL>http://mutant.tech/</cc:attributionURL>
    </cc:work>

</rdf:RDF>
</metadata>
<rect id="martini" width="32" height="32" fill="none"/><clipPath id="_clip1"><rect width="32" height="32"/></clipPath><g clip-path="url(#_clip1)"><g id="outline"><path d="m6.409 7.098c-0.266-0.36-0.409-0.741-0.409-1.135 0-2.207 4.481-4 10-4s10 1.793 10 4c0 0.394-0.143 0.775-0.409 1.135l-8.591 12.42v7.475c2.281 0.139 4 0.745 4 1.47 0 0.828-2.24 1.5-5 1.5s-5-0.672-5-1.5c0-0.725 1.719-1.331 4-1.47v-7.475l-8.591-12.42z" fill="none" stroke="#000" stroke-width="4px"/></g><g id="emoji"><path d="m15 28.463v-11.5h2v11.5c0 0.166-0.448 0.3-1 0.3s-1-0.134-1-0.3z" fill="#ccc"/><ellipse cx="16" cy="28.463" rx="5" ry="1.5" fill="#fff"/><path d="m6.316 6.963s5.841 8.445 8.45 12.217c0.281 0.405 0.742 0.647 1.234 0.647s0.953-0.242 1.234-0.647c2.609-3.772 8.45-12.217 8.45-12.217h-19.368z" fill="#fff"/><path d="m23.562 7.963h-15.124s3.689 5.366 5.914 8.603c0.373 0.542 0.989 0.867 1.648 0.867s1.275-0.325 1.648-0.867c2.225-3.237 5.914-8.603 5.914-8.603z" fill="#faf48f"/><clipPath id="_clip2"><path d="m23.562 7.963h-15.124s3.689 5.366 5.914 8.603c0.373 0.542 0.989 0.867 1.648 0.867s1.275-0.325 1.648-0.867c2.225-3.237 5.914-8.603 5.914-8.603z"/></clipPath><g clip-path="url(#_clip2)"><path d="m12.283 12.432c0 1.065 1.356 1.929 3.025 1.929 1.67 0 3.025-0.864 3.025-1.929s-1.355-1.929-3.025-1.929c-1.669 0-3.025 0.864-3.025 1.929z" fill="#417d33"/><path d="m12.164 7.963 3.836 11h-7.261v-11h3.425z" fill="#fff" fill-opacity=".40392"/></g><ellipse cx="16" cy="5.963" rx="9.331" ry="3.393" fill="#d9d9d9"/><clipPath id="_clip3"><ellipse cx="16" cy="5.963" rx="9.331" ry="3.393"/></clipPath><g clip-path="url(#_clip3)"><ellipse cx="16" cy="8.077" rx="7.745" ry="2.568" fill="#ebe13b"/><ellipse cx="16" cy="9.87" rx="7.745" ry="2.568" fill="#faf48f"/></g><path d="m16.258 1.965 0.256 3e-3 0.255 7e-3 0.253 9e-3 0.251 0.011 0.249 0.014 0.247 0.017 0.245 0.019 0.243 0.021 0.241 0.023 0.238 0.026 0.236 0.028 0.234 0.031 0.231 0.032 0.228 0.035 0.226 0.037 0.223 0.039 0.22 0.041 0.217 0.043 0.214 0.045 0.211 0.048 0.208 0.049 0.204 0.051 0.201 0.053 0.198 0.055 0.195 0.056 0.19 0.059 0.187 0.06 0.184 0.062 0.179 0.064 0.176 0.065 0.172 0.067 0.084 0.035 0.083 0.034 0.083 0.035 0.081 0.035 0.08 0.036 0.079 0.036 0.078 0.037 0.077 0.036 0.076 0.038 0.075 0.037 0.074 0.038 0.072 0.039 0.072 0.038 0.07 0.039 0.069 0.04 0.068 0.039 0.067 0.041 0.066 0.04 0.064 0.041 0.063 0.041 0.062 0.041 0.061 0.042 0.06 0.042 0.058 0.042 0.057 0.043 0.056 0.043 0.055 0.043 0.053 0.044 0.052 0.044 0.051 0.044 0.05 0.044 0.048 0.045 0.092 0.09 0.044 0.046 0.043 0.046 0.041 0.046 0.04 0.046 0.039 0.046 0.037 0.047 0.036 0.047 0.034 0.048 0.033 0.047 0.032 0.048 0.03 0.048 0.029 0.048 0.027 0.049 0.026 0.049 0.024 0.048 0.023 0.05 0.021 0.049 0.02 0.049 0.018 0.05 0.017 0.05 0.015 0.05 0.013 0.051 0.012 0.05 0.011 0.051 9e-3 0.051 7e-3 0.051 6e-3 0.051 4e-3 0.051 2e-3 0.052 1e-3 0.051-1e-3 0.052-2e-3 0.051-4e-3 0.052-6e-3 0.051-7e-3 0.051-9e-3 0.051-0.011 0.05-0.012 0.051-0.013 0.05-0.015 0.05-0.017 0.05-0.018 0.05-0.02 0.05-0.021 0.049-0.023 0.049-0.024 0.049-0.026 0.049-0.027 0.048-0.029 0.048-0.03 0.048-0.032 0.048-0.033 0.048-0.034 0.047-0.036 0.047-0.037 0.047-0.039 0.047-0.04 0.046-0.041 0.046-0.043 0.046-0.044 0.045-0.046 0.046-0.046 0.045-0.048 0.044-0.05 0.045-0.051 0.044-0.052 0.044-0.053 0.043-0.055 0.044-0.056 0.043-0.057 0.042-0.058 0.043-0.06 0.042-0.061 0.041-0.062 0.042-0.063 0.041-0.064 0.041-0.066 0.04-0.067 0.04-0.068 0.04-0.069 0.039-0.07 0.039-0.072 0.039-0.072 0.038-0.074 0.038-0.075 0.038-0.076 0.037-0.077 0.037-0.078 0.036-0.079 0.036-0.08 0.036-0.081 0.035-0.166 0.07-0.084 0.034-0.172 0.067-0.176 0.066-0.179 0.063-0.184 0.062-0.187 0.061-0.19 0.058-0.195 0.057-0.198 0.055-0.201 0.053-0.204 0.051-0.208 0.049-0.211 0.047-0.214 0.045-0.217 0.044-0.22 0.041-0.223 0.039-0.226 0.037-0.228 0.034-0.231 0.033-0.234 0.03-0.236 0.028-0.238 0.026-0.241 0.024-0.243 0.021-0.245 0.019-0.247 0.016-0.249 0.014-0.251 0.012-0.253 9e-3 -0.255 6e-3 -0.256 4e-3 -0.258 1e-3 -0.258-1e-3 -0.256-4e-3 -0.255-6e-3 -0.253-9e-3 -0.251-0.012-0.249-0.014-0.247-0.016-0.245-0.019-0.243-0.021-0.241-0.024-0.238-0.026-0.236-0.028-0.234-0.03-0.231-0.033-0.228-0.034-0.226-0.037-0.223-0.039-0.22-0.041-0.217-0.044-0.214-0.045-0.211-0.047-0.208-0.049-0.204-0.051-0.201-0.053-0.198-0.055-0.195-0.057-0.19-0.058-0.187-0.061-0.184-0.062-0.179-0.063-0.176-0.066-0.172-0.067-0.084-0.034-0.166-0.07-0.081-0.035-0.08-0.036-0.079-0.036-0.078-0.036-0.077-0.037-0.076-0.037-0.075-0.038-0.074-0.038-0.072-0.038-0.072-0.039-0.07-0.039-0.069-0.039-0.068-0.04-0.067-0.04-0.066-0.04-0.064-0.041-0.063-0.041-0.062-0.042-0.061-0.041-0.06-0.042-0.058-0.043-0.057-0.042-0.056-0.043-0.055-0.044-0.053-0.043-0.052-0.044-0.051-0.044-0.05-0.045-0.048-0.044-0.046-0.045-0.046-0.046-0.044-0.045-0.043-0.046-0.041-0.046-0.04-0.046-0.039-0.047-0.037-0.047-0.036-0.047-0.034-0.047-0.033-0.048-0.032-0.048-0.03-0.048-0.029-0.048-0.027-0.048-0.026-0.049-0.024-0.049-0.023-0.049-0.021-0.049-0.02-0.05-0.018-0.05-0.017-0.05-0.015-0.05-0.013-0.05-0.012-0.051-0.011-0.05-9e-3 -0.051-7e-3 -0.051-6e-3 -0.051-4e-3 -0.052-2e-3 -0.051-1e-3 -0.052 1e-3 -0.051 2e-3 -0.052 4e-3 -0.051 6e-3 -0.051 7e-3 -0.051 9e-3 -0.051 0.011-0.051 0.012-0.05 0.013-0.051 0.015-0.05 0.017-0.05 0.018-0.05 0.02-0.049 0.021-0.049 0.023-0.05 0.024-0.048 0.026-0.049 0.027-0.049 0.029-0.048 0.03-0.048 0.032-0.048 0.033-0.047 0.034-0.048 0.036-0.047 0.037-0.047 0.039-0.046 0.04-0.046 0.041-0.046 0.043-0.046 0.044-0.046 0.092-0.09 0.048-0.045 0.05-0.044 0.051-0.044 0.052-0.044 0.053-0.044 0.055-0.043 0.056-0.043 0.057-0.043 0.058-0.042 0.06-0.042 0.061-0.042 0.062-0.041 0.063-0.041 0.064-0.041 0.066-0.04 0.067-0.041 0.068-0.039 0.069-0.04 0.07-0.039 0.072-0.038 0.072-0.039 0.074-0.038 0.075-0.037 0.076-0.038 0.077-0.036 0.078-0.037 0.079-0.036 0.08-0.036 0.081-0.035 0.083-0.035 0.083-0.034 0.084-0.035 0.172-0.067 0.176-0.065 0.179-0.064 0.184-0.062 0.187-0.06 0.19-0.059 0.195-0.056 0.198-0.055 0.201-0.053 0.204-0.051 0.208-0.049 0.211-0.048 0.214-0.045 0.217-0.043 0.22-0.041 0.223-0.039 0.226-0.037 0.228-0.035 0.231-0.032 0.234-0.031 0.236-0.028 0.238-0.026 0.241-0.023 0.243-0.021 0.245-0.019 0.247-0.017 0.249-0.014 0.251-0.011 0.253-9e-3 0.255-7e-3 0.256-3e-3 0.258-2e-3 0.258 2e-3zm-0.506 1-0.246 3e-3 -0.244 6e-3 -0.243 9e-3 -0.241 0.011-0.239 0.014-0.237 0.015-0.235 0.018-0.232 0.021-0.23 0.022-0.228 0.025-0.226 0.027-0.223 0.029-0.22 0.031-0.217 0.033-0.215 0.035-0.212 0.037-0.208 0.039-0.206 0.041-0.202 0.043-0.2 0.044-0.195 0.046-0.193 0.048-0.188 0.05-0.186 0.051-0.181 0.053-0.177 0.055-0.174 0.056-0.169 0.057-0.166 0.059-0.161 0.06-0.158 0.062-0.075 0.03-0.075 0.031-0.075 0.032-0.073 0.032-0.072 0.032-0.071 0.032-0.07 0.033-0.068 0.032-0.067 0.033-0.066 0.034-0.065 0.033-0.064 0.033-0.062 0.034-0.061 0.034-0.118 0.068-0.057 0.034-0.055 0.034-0.055 0.035-0.053 0.034-0.051 0.035-0.05 0.034-0.049 0.034-0.048 0.035-0.09 0.068-0.043 0.034-0.042 0.034-0.04 0.034-0.039 0.034-0.037 0.033-0.036 0.034-0.034 0.033-0.033 0.032-0.031 0.033-0.03 0.032-0.029 0.032-0.027 0.031-0.026 0.031-0.024 0.03-0.023 0.031-0.021 0.029-0.02 0.029-0.019 0.028-0.018 0.028-0.016 0.028-0.015 0.026-0.014 0.026-0.012 0.026-0.012 0.025-0.02 0.048-8e-3 0.023-8e-3 0.022-0.012 0.044-5e-3 0.021-4e-3 0.021-4e-3 0.02-3e-3 0.02-4e-3 0.04-1e-3 0.02v0.02 0.02l1e-3 0.02 4e-3 0.04 3e-3 0.02 8e-3 0.042 5e-3 0.021 6e-3 0.021 6e-3 0.022 0.016 0.046 0.02 0.048 0.024 0.05 0.014 0.026 0.015 0.027 0.016 0.027 0.018 0.028 0.019 0.029 0.02 0.029 0.021 0.029 0.023 0.03 0.024 0.031 0.026 0.03 0.027 0.032 0.029 0.032 0.03 0.032 0.031 0.032 0.033 0.033 0.034 0.033 0.036 0.033 0.037 0.034 0.039 0.033 0.04 0.034 0.042 0.034 0.043 0.034 0.045 0.035 0.045 0.034 0.048 0.034 0.049 0.035 0.05 0.034 0.051 0.034 0.053 0.035 0.11 0.068 0.057 0.034 0.059 0.035 0.059 0.034 0.061 0.033 0.062 0.034 0.064 0.034 0.065 0.033 0.066 0.033 0.067 0.033 0.068 0.033 0.07 0.032 0.071 0.033 0.072 0.032 0.073 0.032 0.075 0.031 0.075 0.032 0.075 0.03 0.158 0.062 0.161 0.06 0.166 0.058 0.169 0.058 0.174 0.056 0.177 0.054 0.181 0.053 0.186 0.051 0.188 0.05 0.193 0.048 0.195 0.046 0.2 0.045 0.202 0.043 0.206 0.041 0.208 0.039 0.212 0.037 0.215 0.035 0.217 0.033 0.22 0.031 0.223 0.029 0.226 0.027 0.228 0.024 0.23 0.023 0.232 0.02 0.235 0.018 0.237 0.016 0.239 0.013 0.241 0.011 0.243 9e-3 0.244 6e-3 0.246 4e-3 0.248 1e-3 0.248-1e-3 0.246-4e-3 0.244-6e-3 0.243-9e-3 0.241-0.011 0.239-0.013 0.237-0.016 0.235-0.018 0.232-0.02 0.23-0.023 0.228-0.024 0.226-0.027 0.223-0.029 0.22-0.031 0.217-0.033 0.215-0.035 0.212-0.037 0.208-0.039 0.206-0.041 0.202-0.043 0.2-0.045 0.195-0.046 0.193-0.048 0.188-0.05 0.186-0.051 0.181-0.053 0.177-0.054 0.174-0.056 0.169-0.058 0.166-0.058 0.161-0.06 0.158-0.062 0.075-0.03 0.075-0.032 0.075-0.031 0.073-0.032 0.072-0.032 0.071-0.033 0.07-0.032 0.068-0.033 0.067-0.033 0.066-0.033 0.065-0.033 0.064-0.034 0.062-0.034 0.061-0.033 0.059-0.034 0.059-0.035 0.057-0.034 0.11-0.068 0.053-0.035 0.051-0.034 0.05-0.034 0.049-0.035 0.048-0.034 0.045-0.034 0.045-0.035 0.043-0.034 0.042-0.034 0.04-0.034 0.039-0.033 0.037-0.034 0.036-0.033 0.034-0.033 0.033-0.033 0.031-0.032 0.03-0.032 0.029-0.032 0.027-0.032 0.026-0.03 0.024-0.031 0.023-0.03 0.021-0.029 0.02-0.029 0.019-0.029 0.018-0.028 0.016-0.027 0.015-0.027 0.014-0.026 0.024-0.05 0.02-0.048 0.016-0.046 6e-3 -0.022 6e-3 -0.021 5e-3 -0.022 4e-3 -0.02 4e-3 -0.021 3e-3 -0.02 4e-3 -0.04 1e-3 -0.02v-0.02-0.02l-1e-3 -0.02-4e-3 -0.04-3e-3 -0.02-4e-3 -0.02-4e-3 -0.021-5e-3 -0.021-0.012-0.044-8e-3 -0.022-8e-3 -0.023-0.02-0.048-0.012-0.025-0.012-0.026-0.014-0.026-0.015-0.026-0.016-0.028-0.018-0.028-0.019-0.028-0.02-0.029-0.021-0.029-0.023-0.031-0.024-0.03-0.026-0.031-0.027-0.031-0.029-0.032-0.03-0.032-0.031-0.033-0.033-0.032-0.034-0.033-0.036-0.034-0.037-0.033-0.039-0.034-0.04-0.034-0.042-0.034-0.043-0.034-0.09-0.068-0.048-0.035-0.049-0.034-0.05-0.034-0.051-0.035-0.053-0.034-0.055-0.035-0.055-0.034-0.057-0.034-0.118-0.068-0.061-0.034-0.062-0.034-0.064-0.033-0.065-0.033-0.066-0.034-0.067-0.033-0.068-0.032-0.07-0.033-0.071-0.032-0.072-0.032-0.073-0.032-0.075-0.032-0.075-0.031-0.075-0.03-0.158-0.062-0.161-0.06-0.166-0.059-0.169-0.057-0.174-0.056-0.177-0.055-0.181-0.053-0.186-0.051-0.188-0.05-0.193-0.048-0.195-0.046-0.2-0.044-0.202-0.043-0.206-0.041-0.208-0.039-0.212-0.037-0.215-0.035-0.217-0.033-0.22-0.031-0.223-0.029-0.226-0.027-0.228-0.025-0.23-0.022-0.232-0.021-0.235-0.018-0.237-0.015-0.239-0.014-0.241-0.011-0.243-9e-3 -0.244-6e-3 -0.246-3e-3 -0.248-2e-3 -0.248 2e-3z" fill="#fff"/></g></g></svg>
