<?xml version="1.0" encoding="UTF-8"?>
<!DOCTYPE svg  PUBLIC '-//W3C//DTD SVG 1.1//EN'  'http://www.w3.org/Graphics/SVG/1.1/DTD/svg11.dtd'>
<svg clip-rule="evenodd" fill-rule="evenodd" stroke-linecap="round" stroke-linejoin="round" stroke-miterlimit="1.5" version="1.1" viewBox="0 0 32 32" xml:space="preserve" xmlns="http://www.w3.org/2000/svg">
<metadata>
<rdf:RDF xmlns:cc="http://web.resource.org/cc/" xmlns:dc="http://purl.org/dc/elements/1.1/" xmlns:rdf="http://www.w3.org/1999/02/22-rdf-syntax-ns#">

     <rdf:Description rdf:about="">
       <dc:title>Mutant Standard emoji 2023.12</dc:title>
     </rdf:Description>

    <cc:work rdf:about="">
        <cc:license rdf:resource="http://creativecommons.org/licenses/by-nc-sa/4.0/"/>
        <cc:attributionName>Caius Nocturne</cc:attributionName>
        <cc:attributionURL>http://mutant.tech/</cc:attributionURL>
    </cc:work>

</rdf:RDF>
</metadata>
<rect id="sake" width="32" height="32" fill="none"/><g id="outline" fill="none" stroke="#000" stroke-width="4px"><path d="m17 23c0-1.104 2.913-2 6.5-2s6.5 0.896 6.5 2c0 3.59-2.91 6.5-6.5 6.5s-6.5-2.91-6.5-6.5z"/><path d="m4.318 5.027c-0.205-0.164-0.318-0.341-0.318-0.527 0-0.828 2.24-1.5 5-1.5s5 0.672 5 1.5c0 0.186-0.113 0.363-0.318 0.527-0.237 0.208-1.682 1.615-1.682 4.973 0 3.657 2.888 5.13 3.778 10 1.056 5.771-2.527 9.943-6.729 10h-0.049-0.049c-4.202-0.057-7.785-4.229-6.729-10 0.89-4.87 3.778-6.343 3.778-10 0-3.358-1.445-4.765-1.682-4.973z" stroke-miterlimit="3"/></g><g id="emoji"><path d="m5.981 10.5h6.038c0.247 3.303 2.911 4.858 3.759 9.5 1.06 5.794-2.555 9.975-6.778 10-4.223-0.025-7.838-4.206-6.778-10 0.848-4.642 3.512-6.197 3.759-9.5z" fill="#4f46b8"/><path d="m5.981 10.5c0.013-0.162 0.019-0.329 0.019-0.5 0-3.652-1.709-4.996-1.714-5h9.428s-1.714 1.343-1.714 5c0 0.171 6e-3 0.338 0.019 0.5h-0.019c0 0.497-1.344 0.9-3 0.9s-3-0.403-3-0.9h-0.019z" fill="#e6e6e6"/><ellipse cx="9" cy="4.5" rx="4.726" ry="1.186" fill="#818181"/><path d="m30 23c0 0.698-0.11 1.37-0.313 2-0.463 0.821-0.687 1-0.687 1l-5.5 1-5.5-1s-0.4-0.803-0.687-1c-0.203-0.63-0.313-1.302-0.313-2h6.5 6.5z" fill="#e1e1e1"/><path d="m29.687 25c-0.844 2.611-3.295 4.5-6.187 4.5s-5.343-1.889-6.187-4.5c1.353 0.929 3.62 1.538 6.187 1.538s4.834-0.609 6.187-1.538z" fill="#4f46b8"/><ellipse cx="23.5" cy="23" rx="6.222" ry="1.731" fill="#818181"/><path d="m9.129 3 0.128 2e-3 0.127 2e-3 0.127 4e-3 0.125 4e-3 0.125 5e-3 0.124 6e-3 0.122 7e-3 0.122 8e-3 0.12 9e-3 0.119 0.01 0.118 0.01 0.117 0.012 0.115 0.012 0.115 0.013 0.112 0.014 0.112 0.015 0.11 0.015 0.108 0.016 0.107 0.017 0.106 0.018 0.104 0.018 0.102 0.019 0.101 0.02 0.099 0.021 0.097 0.021 0.095 0.022 0.094 0.023 0.091 0.023 0.09 0.024 0.088 0.024 0.086 0.026 0.084 0.025 0.081 0.027 0.08 0.027 0.078 0.027 0.075 0.028 0.073 0.029 0.071 0.029 0.069 0.03 0.066 0.03 0.064 0.03 0.061 0.032 0.059 0.031 0.057 0.032 0.054 0.033 0.051 0.033 0.049 0.033 0.046 0.034 0.043 0.034 0.041 0.035 0.038 0.035 0.035 0.036 0.032 0.035 0.03 0.036 0.026 0.037 0.024 0.037 0.02 0.037 0.018 0.037 0.014 0.038 6e-3 0.019 0.01 0.038 6e-3 0.038 2e-3 0.019 2e-3 0.02v0.019 0.019l-2e-3 0.02-2e-3 0.019-6e-3 0.038-0.01 0.038-6e-3 0.019-0.014 0.038-0.018 0.037-0.02 0.037-0.024 0.037-0.026 0.037-0.03 0.036-0.032 0.035-0.035 0.036-0.038 0.035-0.041 0.035-0.043 0.034-0.046 0.034-0.049 0.033-0.051 0.033-0.054 0.033-0.057 0.032-0.059 0.031-0.061 0.032-0.064 0.03-0.066 0.03-0.069 0.03-0.071 0.029-0.073 0.029-0.075 0.028-0.078 0.027-0.08 0.027-0.081 0.027-0.084 0.025-0.086 0.026-0.088 0.024-0.09 0.024-0.091 0.023-0.094 0.023-0.095 0.022-0.097 0.021-0.099 0.021-0.101 0.02-0.102 0.019-0.104 0.018-0.106 0.018-0.107 0.017-0.108 0.016-0.11 0.015-0.112 0.015-0.112 0.014-0.115 0.013-0.115 0.012-0.117 0.012-0.118 0.01-0.119 0.01-0.12 9e-3 -0.122 8e-3 -0.122 7e-3 -0.124 6e-3 -0.125 5e-3 -0.125 4e-3 -0.127 4e-3 -0.127 2e-3 -0.128 2e-3h-0.129-0.129l-0.128-2e-3 -0.127-2e-3 -0.127-4e-3 -0.125-4e-3 -0.125-5e-3 -0.124-6e-3 -0.122-7e-3 -0.122-8e-3 -0.12-9e-3 -0.119-0.01-0.118-0.01-0.117-0.012-0.115-0.012-0.115-0.013-0.112-0.014-0.112-0.015-0.11-0.015-0.108-0.016-0.107-0.017-0.106-0.018-0.104-0.018-0.102-0.019-0.101-0.02-0.099-0.021-0.097-0.021-0.095-0.022-0.094-0.023-0.091-0.023-0.09-0.024-0.088-0.024-0.086-0.026-0.084-0.025-0.081-0.027-0.08-0.027-0.078-0.027-0.075-0.028-0.073-0.029-0.071-0.029-0.069-0.03-0.066-0.03-0.064-0.03-0.061-0.032-0.059-0.031-0.057-0.032-0.054-0.033-0.051-0.033-0.049-0.033-0.046-0.034-0.043-0.034-0.041-0.035-0.038-0.035-0.035-0.036-0.032-0.035-0.03-0.036-0.026-0.037-0.024-0.037-0.02-0.037-0.018-0.037-0.014-0.038-6e-3 -0.019-0.01-0.038-6e-3 -0.038-2e-3 -0.019-2e-3 -0.02v-0.019-0.019l2e-3 -0.02 2e-3 -0.019 6e-3 -0.038 0.01-0.038 6e-3 -0.019 0.014-0.038 0.018-0.037 0.02-0.037 0.024-0.037 0.026-0.037 0.03-0.036 0.032-0.035 0.035-0.036 0.038-0.035 0.041-0.035 0.043-0.034 0.046-0.034 0.049-0.033 0.051-0.033 0.054-0.033 0.057-0.032 0.059-0.031 0.061-0.032 0.064-0.03 0.066-0.03 0.069-0.03 0.071-0.029 0.073-0.029 0.075-0.028 0.078-0.027 0.08-0.027 0.081-0.027 0.084-0.025 0.086-0.026 0.088-0.024 0.09-0.024 0.091-0.023 0.094-0.023 0.095-0.022 0.097-0.021 0.099-0.021 0.101-0.02 0.102-0.019 0.104-0.018 0.106-0.018 0.107-0.017 0.108-0.016 0.11-0.015 0.112-0.015 0.112-0.014 0.115-0.013 0.115-0.012 0.117-0.012 0.118-0.01 0.119-0.01 0.12-9e-3 0.122-8e-3 0.122-7e-3 0.124-6e-3 0.125-5e-3 0.125-4e-3 0.127-4e-3 0.127-2e-3 0.128-2e-3h0.129 0.129zm-0.254 0.5-0.125 2e-3 -0.123 2e-3 -0.123 4e-3 -0.121 4e-3 -0.121 5e-3 -0.12 6e-3 -0.236 0.014-0.232 0.018-0.114 0.01-0.112 0.011-0.112 0.012-0.11 0.013-0.108 0.013-0.108 0.014-0.105 0.015-0.104 0.015-0.103 0.017-0.101 0.017-0.099 0.017-0.098 0.018-0.095 0.019-0.094 0.02-0.092 0.02-0.09 0.021-0.088 0.021-0.087 0.022-0.084 0.022-0.081 0.023-0.08 0.023-0.078 0.024-0.075 0.024-0.072 0.025-0.071 0.025-0.068 0.025-0.065 0.026-0.063 0.026-0.06 0.026-0.057 0.026-0.054 0.026-0.052 0.026-0.048 0.026-0.046 0.026-0.042 0.025-0.04 0.026-0.036 0.024-0.032 0.024-0.029 0.023-0.026 0.022-0.023 0.021-0.019 0.019-0.016 0.018-0.012 0.015-0.01 0.014-7e-3 0.011-5e-3 8e-3v1e-3 1e-3l5e-3 8e-3 7e-3 0.011 0.01 0.014 0.012 0.015 0.016 0.018 0.019 0.019 0.023 0.021 0.026 0.022 0.029 0.023 0.032 0.024 0.036 0.024 0.04 0.026 0.042 0.025 0.046 0.026 0.048 0.026 0.052 0.026 0.054 0.026 0.057 0.026 0.06 0.026 0.063 0.026 0.065 0.026 0.068 0.025 0.071 0.025 0.072 0.025 0.075 0.024 0.078 0.024 0.08 0.023 0.081 0.023 0.084 0.022 0.087 0.022 0.088 0.021 0.09 0.021 0.092 0.02 0.094 0.02 0.095 0.019 0.098 0.018 0.099 0.017 0.101 0.017 0.103 0.017 0.104 0.015 0.105 0.015 0.108 0.014 0.108 0.013 0.11 0.013 0.112 0.012 0.112 0.011 0.114 0.01 0.232 0.018 0.236 0.014 0.12 6e-3 0.121 5e-3 0.121 4e-3 0.123 4e-3 0.123 2e-3 0.125 2e-3h0.125 0.125l0.125-2e-3 0.123-2e-3 0.123-4e-3 0.121-4e-3 0.121-5e-3 0.12-6e-3 0.236-0.014 0.232-0.018 0.114-0.01 0.112-0.011 0.112-0.012 0.11-0.013 0.108-0.013 0.108-0.014 0.105-0.015 0.104-0.015 0.103-0.017 0.101-0.017 0.099-0.017 0.098-0.018 0.095-0.019 0.094-0.02 0.092-0.02 0.09-0.021 0.088-0.021 0.087-0.022 0.084-0.022 0.081-0.023 0.08-0.023 0.078-0.024 0.075-0.024 0.072-0.025 0.071-0.025 0.068-0.025 0.065-0.026 0.063-0.026 0.06-0.026 0.057-0.026 0.054-0.026 0.052-0.026 0.048-0.026 0.046-0.026 0.042-0.025 0.04-0.026 0.036-0.024 0.032-0.024 0.029-0.023 0.026-0.022 0.023-0.021 0.019-0.019 0.016-0.018 0.012-0.015 0.01-0.014 7e-3 -0.011 5e-3 -8e-3v-1e-3 -1e-3l-5e-3 -8e-3 -7e-3 -0.011-0.01-0.014-0.012-0.015-0.016-0.018-0.019-0.019-0.023-0.021-0.026-0.022-0.029-0.023-0.032-0.024-0.036-0.024-0.04-0.026-0.042-0.025-0.046-0.026-0.048-0.026-0.052-0.026-0.054-0.026-0.057-0.026-0.06-0.026-0.063-0.026-0.065-0.026-0.068-0.025-0.071-0.025-0.072-0.025-0.075-0.024-0.078-0.024-0.08-0.023-0.081-0.023-0.084-0.022-0.087-0.022-0.088-0.021-0.09-0.021-0.092-0.02-0.094-0.02-0.095-0.019-0.098-0.018-0.099-0.017-0.101-0.017-0.103-0.017-0.104-0.015-0.105-0.015-0.108-0.014-0.108-0.013-0.11-0.013-0.112-0.012-0.112-0.011-0.114-0.01-0.232-0.018-0.236-0.014-0.12-6e-3 -0.121-5e-3 -0.121-4e-3 -0.123-4e-3 -0.123-2e-3 -0.125-2e-3h-0.125-0.125z" fill="#e6e6e6"/><path d="m23.668 21.001 0.166 2e-3 0.166 3e-3 0.164 4e-3 0.163 6e-3 0.162 7e-3 0.161 8e-3 0.159 0.01 0.158 0.01 0.157 0.012 0.155 0.013 0.153 0.014 0.152 0.015 0.15 0.016 0.148 0.018 0.147 0.018 0.145 0.02 0.143 0.02 0.141 0.022 0.139 0.023 0.137 0.023 0.135 0.025 0.133 0.025 0.131 0.027 0.129 0.027 0.126 0.029 0.124 0.029 0.122 0.03 0.119 0.031 0.116 0.032 0.115 0.033 0.111 0.033 0.109 0.034 0.107 0.036 0.103 0.035 0.101 0.037 0.098 0.038 0.095 0.038 0.092 0.039 0.089 0.039 0.086 0.04 0.083 0.041 0.08 0.042 0.077 0.042 0.073 0.043 0.071 0.043 0.066 0.044 0.064 0.045 0.06 0.045 0.056 0.046 0.053 0.046 0.05 0.047 0.045 0.047 0.022 0.024 0.02 0.023 0.02 0.024 0.018 0.025 0.018 0.024 0.017 0.024 0.016 0.025 0.014 0.024 0.014 0.025 0.013 0.025 0.012 0.024 0.011 0.025 0.01 0.025 8e-3 0.026 8e-3 0.025 7e-3 0.025 6e-3 0.026 5e-3 0.025 3e-3 0.026 3e-3 0.025 2e-3 0.052-2e-3 0.052-3e-3 0.025-3e-3 0.026-5e-3 0.025-6e-3 0.026-7e-3 0.025-8e-3 0.025-8e-3 0.026-0.01 0.025-0.011 0.025-0.012 0.024-0.013 0.025-0.014 0.025-0.014 0.024-0.016 0.025-0.017 0.024-0.018 0.024-0.018 0.025-0.02 0.024-0.02 0.023-0.022 0.024-0.045 0.047-0.05 0.047-0.053 0.046-0.056 0.046-0.06 0.045-0.064 0.045-0.066 0.044-0.071 0.043-0.073 0.043-0.077 0.042-0.08 0.042-0.083 0.041-0.086 0.04-0.089 0.039-0.092 0.039-0.095 0.038-0.098 0.038-0.101 0.037-0.103 0.035-0.107 0.036-0.109 0.034-0.111 0.033-0.115 0.033-0.116 0.032-0.119 0.031-0.122 0.03-0.124 0.029-0.126 0.029-0.129 0.027-0.131 0.027-0.133 0.025-0.135 0.025-0.137 0.023-0.139 0.023-0.141 0.022-0.143 0.02-0.145 0.02-0.147 0.018-0.148 0.018-0.15 0.016-0.152 0.015-0.153 0.014-0.155 0.013-0.157 0.012-0.158 0.01-0.159 0.01-0.161 8e-3 -0.162 7e-3 -0.163 6e-3 -0.164 4e-3 -0.166 3e-3 -0.166 2e-3 -0.168 1e-3 -0.168-1e-3 -0.166-2e-3 -0.166-3e-3 -0.164-4e-3 -0.163-6e-3 -0.162-7e-3 -0.161-8e-3 -0.159-0.01-0.158-0.01-0.157-0.012-0.155-0.013-0.153-0.014-0.152-0.015-0.15-0.016-0.148-0.018-0.147-0.018-0.145-0.02-0.143-0.02-0.141-0.022-0.139-0.023-0.137-0.023-0.135-0.025-0.133-0.025-0.131-0.027-0.129-0.027-0.126-0.029-0.124-0.029-0.122-0.03-0.119-0.031-0.116-0.032-0.115-0.033-0.111-0.033-0.109-0.034-0.107-0.036-0.103-0.035-0.101-0.037-0.098-0.038-0.095-0.038-0.092-0.039-0.089-0.039-0.086-0.04-0.083-0.041-0.08-0.042-0.077-0.042-0.073-0.043-0.071-0.043-0.066-0.044-0.064-0.045-0.06-0.045-0.056-0.046-0.053-0.046-0.05-0.047-0.045-0.047-0.022-0.024-0.02-0.023-0.02-0.024-0.018-0.025-0.018-0.024-0.017-0.024-0.016-0.025-0.014-0.024-0.014-0.025-0.013-0.025-0.012-0.024-0.011-0.025-0.01-0.025-8e-3 -0.026-8e-3 -0.025-7e-3 -0.025-6e-3 -0.026-5e-3 -0.025-3e-3 -0.026-3e-3 -0.025-2e-3 -0.052 2e-3 -0.052 3e-3 -0.025 3e-3 -0.026 5e-3 -0.025 6e-3 -0.026 7e-3 -0.025 8e-3 -0.025 8e-3 -0.026 0.01-0.025 0.011-0.025 0.012-0.024 0.013-0.025 0.014-0.025 0.014-0.024 0.016-0.025 0.017-0.024 0.018-0.024 0.018-0.025 0.02-0.024 0.02-0.023 0.022-0.024 0.045-0.047 0.05-0.047 0.053-0.046 0.056-0.046 0.06-0.045 0.064-0.045 0.066-0.044 0.071-0.043 0.073-0.043 0.077-0.042 0.08-0.042 0.083-0.041 0.086-0.04 0.089-0.039 0.092-0.039 0.095-0.038 0.098-0.038 0.101-0.037 0.103-0.035 0.107-0.036 0.109-0.034 0.111-0.033 0.115-0.033 0.116-0.032 0.119-0.031 0.122-0.03 0.124-0.029 0.126-0.029 0.129-0.027 0.131-0.027 0.133-0.025 0.135-0.025 0.137-0.023 0.139-0.023 0.141-0.022 0.143-0.02 0.145-0.02 0.147-0.018 0.148-0.018 0.15-0.016 0.152-0.015 0.153-0.014 0.155-0.013 0.157-0.012 0.158-0.01 0.159-0.01 0.161-8e-3 0.162-7e-3 0.163-6e-3 0.164-4e-3 0.166-3e-3 0.166-2e-3 0.168-1e-3 0.168 1e-3zm-0.332 0.5-0.162 2e-3 -0.162 3e-3 -0.161 4e-3 -0.159 6e-3 -0.158 7e-3 -0.157 8e-3 -0.155 9e-3 -0.154 0.01-0.152 0.011-0.151 0.013-0.149 0.014-0.148 0.014-0.146 0.016-0.144 0.017-0.142 0.018-0.141 0.019-0.139 0.02-0.136 0.021-0.135 0.022-0.132 0.022-0.13 0.024-0.129 0.025-0.125 0.025-0.124 0.027-0.121 0.027-0.118 0.028-0.116 0.029-0.114 0.029-0.111 0.03-0.108 0.031-0.105 0.032-0.103 0.032-0.099 0.033-0.097 0.034-0.093 0.034-0.091 0.034-0.087 0.035-0.084 0.035-0.08 0.036-0.077 0.036-0.074 0.036-0.069 0.037-0.067 0.036-0.062 0.036-0.059 0.037-0.054 0.036-0.051 0.035-0.046 0.035-0.043 0.034-0.038 0.034-0.034 0.032-0.032 0.033-0.011 0.013-0.013 0.014-0.022 0.028-9e-3 0.013-9e-3 0.012-7e-3 0.012-7e-3 0.011-6e-3 0.011-0.01 0.02-4e-3 9e-3 -3e-3 8e-3 -3e-3 7e-3 -2e-3 8e-3 -2e-3 6e-3 -1e-3 7e-3 -1e-3 6e-3 -1e-3 5e-3v5e-3l-1e-3 6e-3v5e-3 5e-3l1e-3 5e-3v6e-3l1e-3 5e-3 1e-3 6e-3 1e-3 7e-3 2e-3 6e-3 2e-3 7e-3 6e-3 0.016 4e-3 9e-3 0.01 0.02 6e-3 0.011 7e-3 0.011 7e-3 0.012 9e-3 0.012 9e-3 0.013 0.022 0.028 0.013 0.014 0.011 0.013 0.032 0.033 0.034 0.032 0.038 0.034 0.043 0.034 0.046 0.035 0.051 0.035 0.054 0.036 0.059 0.037 0.062 0.036 0.067 0.036 0.069 0.037 0.074 0.036 0.077 0.036 0.08 0.036 0.084 0.035 0.087 0.035 0.091 0.034 0.093 0.034 0.097 0.034 0.099 0.033 0.103 0.032 0.105 0.032 0.108 0.031 0.111 0.03 0.114 0.029 0.116 0.029 0.118 0.028 0.121 0.027 0.124 0.027 0.125 0.025 0.129 0.025 0.13 0.024 0.132 0.022 0.135 0.022 0.136 0.021 0.139 0.02 0.141 0.019 0.142 0.018 0.144 0.017 0.146 0.016 0.148 0.014 0.149 0.014 0.151 0.013 0.152 0.011 0.154 0.01 0.155 9e-3 0.157 8e-3 0.158 7e-3 0.159 6e-3 0.161 4e-3 0.162 3e-3 0.162 2e-3 0.164 1e-3 0.164-1e-3 0.162-2e-3 0.162-3e-3 0.161-4e-3 0.159-6e-3 0.158-7e-3 0.157-8e-3 0.155-9e-3 0.154-0.01 0.152-0.011 0.151-0.013 0.149-0.014 0.148-0.014 0.146-0.016 0.144-0.017 0.142-0.018 0.141-0.019 0.139-0.02 0.136-0.021 0.135-0.022 0.132-0.022 0.13-0.024 0.129-0.025 0.125-0.025 0.124-0.027 0.121-0.027 0.118-0.028 0.116-0.029 0.114-0.029 0.111-0.03 0.108-0.031 0.105-0.032 0.103-0.032 0.099-0.033 0.097-0.034 0.093-0.034 0.091-0.034 0.087-0.035 0.084-0.035 0.08-0.036 0.077-0.036 0.074-0.036 0.069-0.037 0.067-0.036 0.062-0.036 0.059-0.037 0.054-0.036 0.051-0.035 0.046-0.035 0.043-0.034 0.038-0.034 0.034-0.032 0.032-0.033 0.011-0.013 0.013-0.014 0.022-0.028 9e-3 -0.013 9e-3 -0.012 7e-3 -0.012 7e-3 -0.011 6e-3 -0.011 0.01-0.02 4e-3 -9e-3 6e-3 -0.016 2e-3 -7e-3 2e-3 -6e-3 1e-3 -7e-3 1e-3 -6e-3 1e-3 -5e-3v-5e-3l1e-3 -6e-3v-5e-3 -5e-3l-1e-3 -6e-3v-5e-3l-1e-3 -5e-3 -1e-3 -6e-3 -1e-3 -7e-3 -2e-3 -6e-3 -2e-3 -8e-3 -3e-3 -7e-3 -3e-3 -8e-3 -4e-3 -9e-3 -0.01-0.02-6e-3 -0.011-7e-3 -0.011-7e-3 -0.012-9e-3 -0.012-9e-3 -0.013-0.022-0.028-0.013-0.014-0.011-0.013-0.032-0.033-0.034-0.032-0.038-0.034-0.043-0.034-0.046-0.035-0.051-0.035-0.054-0.036-0.059-0.037-0.062-0.036-0.067-0.036-0.069-0.037-0.074-0.036-0.077-0.036-0.08-0.036-0.084-0.035-0.087-0.035-0.091-0.034-0.093-0.034-0.097-0.034-0.099-0.033-0.103-0.032-0.105-0.032-0.108-0.031-0.111-0.03-0.114-0.029-0.116-0.029-0.118-0.028-0.121-0.027-0.124-0.027-0.125-0.025-0.129-0.025-0.13-0.024-0.132-0.022-0.135-0.022-0.136-0.021-0.139-0.02-0.141-0.019-0.142-0.018-0.144-0.017-0.146-0.016-0.148-0.014-0.149-0.014-0.151-0.013-0.152-0.011-0.154-0.01-0.155-9e-3 -0.157-8e-3 -0.158-7e-3 -0.159-6e-3 -0.161-4e-3 -0.162-3e-3 -0.162-2e-3 -0.164-1e-3 -0.164 1e-3z" fill="#e6e6e6"/></g></svg>
