<?xml version="1.0" encoding="UTF-8"?>
<!DOCTYPE svg  PUBLIC '-//W3C//DTD SVG 1.1//EN'  'http://www.w3.org/Graphics/SVG/1.1/DTD/svg11.dtd'>
<svg clip-rule="evenodd" fill-rule="evenodd" stroke-linecap="round" stroke-linejoin="round" stroke-miterlimit="10" version="1.1" viewBox="0 0 32 32" xml:space="preserve" xmlns="http://www.w3.org/2000/svg">
<metadata>
<rdf:RDF xmlns:cc="http://web.resource.org/cc/" xmlns:dc="http://purl.org/dc/elements/1.1/" xmlns:rdf="http://www.w3.org/1999/02/22-rdf-syntax-ns#">

     <rdf:Description rdf:about="">
       <dc:title>Mutant Standard emoji 2023.12</dc:title>
     </rdf:Description>

    <cc:work rdf:about="">
        <cc:license rdf:resource="http://creativecommons.org/licenses/by-nc-sa/4.0/"/>
        <cc:attributionName>Caius Nocturne</cc:attributionName>
        <cc:attributionURL>http://mutant.tech/</cc:attributionURL>
    </cc:work>

</rdf:RDF>
</metadata>
<rect id="tropical_drink" width="32" height="32" fill="none"/><clipPath id="_clip1"><rect width="32" height="32"/></clipPath><g clip-path="url(#_clip1)"><g id="outline" fill="none" stroke="#000"><path d="m5.099 6.565c-0.065-0.184-0.099-0.373-0.099-0.565 0-2.208 4.481-4 10-4s10 1.792 10 4c0 0.192-0.034 0.381-0.099 0.565 0.064 0.135 0.099 0.283 0.099 0.435v7c0 5.185-3.947 9.449-9 9.951v3.079c2.281 0.139 4 0.745 4 1.47 0 0.828-2.24 1.5-5 1.5s-5-0.672-5-1.5c0-0.725 1.719-1.331 4-1.47v-3.079c-5.053-0.502-9-4.766-9-9.951v-7c0-0.152 0.035-0.3 0.099-0.435z" stroke-width="4px"/><path d="m22 15v-12l4 1" stroke-width="6px"/></g><g id="emoji"><ellipse cx="15" cy="28.5" rx="5" ry="1.5" fill="#fff"/><path d="m16 28.463c0 0.166-0.448 0.3-1 0.3s-1-0.134-1-0.3v-11.5h2v11.5z" fill="#ccc"/><path d="m5 6v8c0 5.523 4.477 10 10 10s10-4.477 10-10v-8h-20z" fill="#fff"/><path d="m24 6h-18v8.002c0 2.386 0.948 4.675 2.636 6.363 1.687 1.687 3.976 2.635 6.362 2.635h2e-3c2.387 0 4.676-0.948 6.364-2.636s2.636-3.977 2.636-6.364v-8z" fill="#d9d9d9"/><clipPath id="_clip2"><path d="m24 6h-18v8.002c0 2.386 0.948 4.675 2.636 6.363 1.687 1.687 3.976 2.635 6.362 2.635h2e-3c2.387 0 4.676-0.948 6.364-2.636s2.636-3.977 2.636-6.364v-8z"/></clipPath><g clip-path="url(#_clip2)"><rect x="6" y="9" width="18" height="14" fill="#ff8a16"/><path d="m6 13.309c0.468 1.511 4.321 2.691 9 2.691s8.533-1.18 9-2.691v13.691h-18v-13.691z" fill="#ffab4a"/><path d="m8 8v7.169c0 3.618 1.898 6.97 5 8.831h3c-2.518-1.889-4-4.852-4-8v-7l-4-1z" fill="#fff" fill-opacity=".40392"/></g><ellipse cx="15" cy="6" rx="9.419" ry="3.414" fill="#d9d9d9"/><ellipse cx="15" cy="9" rx="9" ry="3" fill="#ff8a16"/><clipPath id="_clip3"><ellipse cx="15" cy="9" rx="9" ry="3"/></clipPath><g clip-path="url(#_clip3)"><path d="m8 8v7.169c0 3.618 1.898 6.97 5 8.831h3c-2.518-1.889-4-4.852-4-8v-7l-4-1z" fill="#fff" fill-opacity=".40784"/></g><path d="m22 15v-12l4 1" fill="none" stroke="#2081ff" stroke-width="2.5px"/><path d="m15.258 2.001 0.256 4e-3 0.255 7e-3 0.253 9e-3 0.251 0.011 0.249 0.014 0.247 0.017 0.245 0.018 0.243 0.022 0.241 0.023 0.238 0.026 0.236 0.028 0.234 0.03 0.231 0.033 0.228 0.035 0.226 0.037 0.223 0.039 0.22 0.041 0.217 0.043 0.214 0.045 0.211 0.047 0.208 0.049 0.204 0.052 0.201 0.053 0.198 0.054 0.195 0.057 0.19 0.059 0.187 0.06 0.184 0.062 0.179 0.064 0.176 0.065 0.172 0.067 0.084 0.034 0.166 0.07 0.081 0.035 0.08 0.036 0.079 0.036 0.078 0.036 0.077 0.037 0.076 0.037 0.075 0.038 0.074 0.038 0.072 0.038 0.072 0.039 0.07 0.039 0.069 0.039 0.068 0.04 0.067 0.04 0.066 0.041 0.064 0.04 0.063 0.042 0.062 0.041 0.061 0.042 0.06 0.042 0.058 0.042 0.057 0.043 0.056 0.043 0.055 0.043 0.053 0.043 0.052 0.044 0.051 0.044 0.05 0.045 0.048 0.045 0.092 0.09 0.044 0.045 0.043 0.046 0.041 0.046 0.04 0.047 0.039 0.046 0.037 0.047 0.036 0.047 0.034 0.047 0.033 0.048 0.032 0.048 0.03 0.048 0.029 0.048 0.027 0.049 0.026 0.048 0.024 0.049 0.023 0.049 0.021 0.05 0.02 0.049 0.018 0.05 0.017 0.05 0.015 0.05 0.013 0.05 0.012 0.051 0.011 0.05 9e-3 0.051 7e-3 0.051 6e-3 0.051 4e-3 0.052 2e-3 0.051 1e-3 0.052-1e-3 0.052-2e-3 0.051-4e-3 0.052-6e-3 0.051-7e-3 0.051-9e-3 0.051-0.011 0.05-0.012 0.051-0.013 0.05-0.015 0.05-0.017 0.05-0.018 0.05-0.02 0.049-0.021 0.05-0.023 0.049-0.024 0.049-0.026 0.048-0.027 0.049-0.029 0.048-0.03 0.048-0.032 0.048-0.033 0.048-0.034 0.047-0.036 0.047-0.037 0.047-0.039 0.046-0.04 0.047-0.041 0.046-0.043 0.046-0.044 0.045-0.092 0.09-0.048 0.045-0.05 0.045-0.051 0.044-0.052 0.044-0.053 0.043-0.055 0.043-0.056 0.043-0.057 0.043-0.058 0.042-0.06 0.042-0.061 0.042-0.062 0.041-0.063 0.042-0.064 0.04-0.066 0.041-0.067 0.04-0.068 0.04-0.069 0.039-0.07 0.039-0.072 0.039-0.072 0.038-0.074 0.038-0.075 0.038-0.076 0.037-0.077 0.037-0.078 0.036-0.079 0.036-0.08 0.036-0.081 0.035-0.166 0.07-0.084 0.034-0.172 0.067-0.176 0.065-0.179 0.064-0.184 0.062-0.187 0.06-0.19 0.059-0.195 0.057-0.198 0.054-0.201 0.053-0.204 0.052-0.208 0.049-0.211 0.047-0.214 0.045-0.217 0.043-0.22 0.041-0.223 0.039-0.226 0.037-0.228 0.035-0.231 0.033-0.234 0.03-0.236 0.028-0.238 0.026-0.241 0.023-0.243 0.022-0.245 0.018-0.247 0.017-0.249 0.014-0.251 0.011-0.253 9e-3 -0.255 7e-3 -0.256 4e-3 -0.258 1e-3 -0.258-1e-3 -0.256-4e-3 -0.255-7e-3 -0.253-9e-3 -0.251-0.011-0.249-0.014-0.247-0.017-0.245-0.018-0.243-0.022-0.241-0.023-0.238-0.026-0.236-0.028-0.234-0.03-0.231-0.033-0.228-0.035-0.226-0.037-0.223-0.039-0.22-0.041-0.217-0.043-0.214-0.045-0.211-0.047-0.208-0.049-0.204-0.052-0.201-0.053-0.198-0.054-0.195-0.057-0.19-0.059-0.187-0.06-0.184-0.062-0.179-0.064-0.176-0.065-0.172-0.067-0.084-0.034-0.166-0.07-0.081-0.035-0.08-0.036-0.079-0.036-0.078-0.036-0.077-0.037-0.076-0.037-0.075-0.038-0.074-0.038-0.072-0.038-0.072-0.039-0.07-0.039-0.069-0.039-0.068-0.04-0.067-0.04-0.066-0.041-0.064-0.04-0.063-0.042-0.062-0.041-0.061-0.042-0.06-0.042-0.058-0.042-0.057-0.043-0.056-0.043-0.055-0.043-0.053-0.043-0.052-0.044-0.051-0.044-0.05-0.045-0.048-0.045-0.092-0.09-0.044-0.045-0.043-0.046-0.041-0.046-0.04-0.047-0.039-0.046-0.037-0.047-0.036-0.047-0.034-0.047-0.033-0.048-0.032-0.048-0.03-0.048-0.029-0.048-0.027-0.049-0.026-0.048-0.024-0.049-0.023-0.049-0.021-0.05-0.02-0.049-0.018-0.05-0.017-0.05-0.015-0.05-0.013-0.05-0.012-0.051-0.011-0.05-9e-3 -0.051-7e-3 -0.051-6e-3 -0.051-4e-3 -0.052-2e-3 -0.051-1e-3 -0.052 1e-3 -0.052 2e-3 -0.051 4e-3 -0.052 6e-3 -0.051 7e-3 -0.051 9e-3 -0.051 0.011-0.05 0.012-0.051 0.013-0.05 0.015-0.05 0.017-0.05 0.018-0.05 0.02-0.049 0.021-0.05 0.023-0.049 0.024-0.049 0.026-0.048 0.027-0.049 0.029-0.048 0.03-0.048 0.032-0.048 0.033-0.048 0.034-0.047 0.036-0.047 0.037-0.047 0.039-0.046 0.04-0.047 0.041-0.046 0.043-0.046 0.044-0.045 0.092-0.09 0.048-0.045 0.05-0.045 0.051-0.044 0.052-0.044 0.053-0.043 0.055-0.043 0.056-0.043 0.057-0.043 0.058-0.042 0.06-0.042 0.061-0.042 0.062-0.041 0.063-0.042 0.064-0.04 0.066-0.041 0.067-0.04 0.068-0.04 0.069-0.039 0.07-0.039 0.072-0.039 0.072-0.038 0.074-0.038 0.075-0.038 0.076-0.037 0.077-0.037 0.078-0.036 0.079-0.036 0.08-0.036 0.081-0.035 0.166-0.07 0.084-0.034 0.172-0.067 0.176-0.065 0.179-0.064 0.184-0.062 0.187-0.06 0.19-0.059 0.195-0.057 0.198-0.054 0.201-0.053 0.204-0.052 0.208-0.049 0.211-0.047 0.214-0.045 0.217-0.043 0.22-0.041 0.223-0.039 0.226-0.037 0.228-0.035 0.231-0.033 0.234-0.03 0.236-0.028 0.238-0.026 0.241-0.023 0.243-0.022 0.245-0.018 0.247-0.017 0.249-0.014 0.251-0.011 0.253-9e-3 0.255-7e-3 0.256-4e-3 0.258-1e-3 0.258 1e-3zm-0.506 1-0.246 4e-3 -0.244 6e-3 -0.243 9e-3 -0.241 0.011-0.239 0.013-0.237 0.016-0.235 0.018-0.232 0.02-0.23 0.023-0.228 0.024-0.226 0.027-0.223 0.029-0.22 0.031-0.217 0.033-0.215 0.036-0.212 0.037-0.208 0.039-0.206 0.041-0.202 0.042-0.2 0.045-0.195 0.046-0.193 0.048-0.188 0.05-0.186 0.051-0.181 0.053-0.177 0.055-0.174 0.055-0.169 0.058-0.166 0.058-0.161 0.06-0.158 0.062-0.15 0.062-0.075 0.032-0.073 0.031-0.072 0.032-0.071 0.033-0.07 0.032-0.068 0.033-0.067 0.033-0.066 0.033-0.065 0.034-0.064 0.033-0.062 0.034-0.061 0.034-0.118 0.068-0.057 0.034-0.055 0.034-0.055 0.035-0.053 0.034-0.051 0.034-0.05 0.035-0.049 0.034-0.048 0.034-0.045 0.035-0.045 0.034-0.043 0.034-0.042 0.034-0.04 0.034-0.039 0.034-0.037 0.033-0.036 0.033-0.034 0.033-0.033 0.033-0.031 0.033-0.03 0.032-0.029 0.031-0.027 0.032-0.026 0.031-0.024 0.03-0.023 0.03-0.021 0.03-0.02 0.029-0.019 0.028-0.018 0.028-0.016 0.027-0.015 0.027-0.014 0.026-0.012 0.026-0.012 0.024-0.01 0.025-0.01 0.023-0.016 0.046-0.012 0.044-5e-3 0.021-4e-3 0.021-4e-3 0.02-3e-3 0.02-4e-3 0.04-1e-3 0.02v0.02 0.02l1e-3 0.02 4e-3 0.04 3e-3 0.02 4e-3 0.02 4e-3 0.021 5e-3 0.021 0.012 0.044 0.016 0.046 0.01 0.023 0.01 0.025 0.012 0.024 0.012 0.026 0.014 0.026 0.015 0.027 0.016 0.027 0.018 0.028 0.019 0.028 0.02 0.029 0.021 0.03 0.023 0.03 0.024 0.03 0.026 0.031 0.027 0.032 0.029 0.031 0.03 0.032 0.031 0.033 0.033 0.033 0.034 0.033 0.036 0.033 0.037 0.033 0.039 0.034 0.04 0.034 0.042 0.034 0.043 0.034 0.045 0.034 0.045 0.035 0.048 0.034 0.049 0.034 0.05 0.035 0.051 0.034 0.053 0.034 0.055 0.035 0.055 0.034 0.057 0.034 0.118 0.068 0.061 0.034 0.062 0.034 0.064 0.033 0.065 0.034 0.066 0.033 0.067 0.033 0.068 0.033 0.07 0.032 0.071 0.033 0.072 0.032 0.073 0.031 0.075 0.032 0.15 0.062 0.158 0.062 0.161 0.06 0.166 0.058 0.169 0.058 0.174 0.055 0.177 0.055 0.181 0.053 0.186 0.051 0.188 0.05 0.193 0.048 0.195 0.046 0.2 0.045 0.202 0.042 0.206 0.041 0.208 0.039 0.212 0.037 0.215 0.036 0.217 0.033 0.22 0.031 0.223 0.029 0.226 0.027 0.228 0.024 0.23 0.023 0.232 0.02 0.235 0.018 0.237 0.016 0.239 0.013 0.241 0.011 0.243 9e-3 0.244 6e-3 0.246 4e-3 0.248 1e-3 0.248-1e-3 0.246-4e-3 0.244-6e-3 0.243-9e-3 0.241-0.011 0.239-0.013 0.237-0.016 0.235-0.018 0.232-0.02 0.23-0.023 0.228-0.024 0.226-0.027 0.223-0.029 0.22-0.031 0.217-0.033 0.215-0.036 0.212-0.037 0.208-0.039 0.206-0.041 0.202-0.042 0.2-0.045 0.195-0.046 0.193-0.048 0.188-0.05 0.186-0.051 0.181-0.053 0.177-0.055 0.174-0.055 0.169-0.058 0.166-0.058 0.161-0.06 0.158-0.062 0.15-0.062 0.075-0.032 0.073-0.031 0.072-0.032 0.071-0.033 0.07-0.032 0.068-0.033 0.067-0.033 0.066-0.033 0.065-0.034 0.064-0.033 0.062-0.034 0.061-0.034 0.06-0.034 0.058-0.034 0.057-0.034 0.055-0.034 0.055-0.035 0.053-0.034 0.051-0.034 0.05-0.035 0.049-0.034 0.048-0.034 0.045-0.035 0.045-0.034 0.043-0.034 0.042-0.034 0.04-0.034 0.039-0.034 0.037-0.033 0.036-0.033 0.034-0.033 0.033-0.033 0.031-0.033 0.03-0.032 0.029-0.032 0.027-0.031 0.026-0.031 0.024-0.03 0.023-0.03 0.021-0.03 0.02-0.029 0.019-0.028 0.018-0.028 0.016-0.027 0.015-0.027 0.014-0.026 0.024-0.05 0.01-0.025 0.01-0.023 0.016-0.046 0.012-0.044 5e-3 -0.021 4e-3 -0.02 4e-3 -0.021 3e-3 -0.02 4e-3 -0.04 1e-3 -0.02v-0.02-0.02l-1e-3 -0.02-4e-3 -0.04-3e-3 -0.02-4e-3 -0.021-4e-3 -0.02-5e-3 -0.021-0.012-0.044-0.016-0.046-0.01-0.023-0.01-0.025-0.024-0.05-0.014-0.026-0.015-0.027-0.016-0.027-0.018-0.028-0.019-0.028-0.02-0.029-0.021-0.03-0.023-0.03-0.024-0.03-0.026-0.031-0.027-0.031-0.029-0.032-0.03-0.032-0.031-0.033-0.033-0.033-0.034-0.033-0.036-0.033-0.037-0.033-0.039-0.034-0.04-0.034-0.042-0.034-0.043-0.034-0.045-0.034-0.045-0.035-0.048-0.034-0.049-0.034-0.05-0.035-0.051-0.034-0.053-0.034-0.055-0.035-0.055-0.034-0.057-0.034-0.058-0.034-0.06-0.034-0.061-0.034-0.062-0.034-0.064-0.033-0.065-0.034-0.066-0.033-0.067-0.033-0.068-0.033-0.07-0.032-0.071-0.033-0.072-0.032-0.073-0.031-0.075-0.032-0.15-0.062-0.158-0.062-0.161-0.06-0.166-0.058-0.169-0.058-0.174-0.055-0.177-0.055-0.181-0.053-0.186-0.051-0.188-0.05-0.193-0.048-0.195-0.046-0.2-0.045-0.202-0.042-0.206-0.041-0.208-0.039-0.212-0.037-0.215-0.036-0.217-0.033-0.22-0.031-0.223-0.029-0.226-0.027-0.228-0.024-0.23-0.023-0.232-0.02-0.235-0.018-0.237-0.016-0.239-0.013-0.241-0.011-0.243-9e-3 -0.244-6e-3 -0.246-4e-3 -0.248-1e-3 -0.248 1e-3z" fill="#fff"/><path d="m22 5v-2l4 1" fill="none" stroke="#2081ff" stroke-width="2.5px"/></g></g></svg>
