<?xml version="1.0" encoding="UTF-8"?>
<!DOCTYPE svg  PUBLIC '-//W3C//DTD SVG 1.1//EN'  'http://www.w3.org/Graphics/SVG/1.1/DTD/svg11.dtd'>
<svg clip-rule="evenodd" fill-rule="evenodd" stroke-linecap="round" stroke-linejoin="round" stroke-miterlimit="10" version="1.1" viewBox="0 0 32 32" xml:space="preserve" xmlns="http://www.w3.org/2000/svg">
<metadata>
<rdf:RDF xmlns:cc="http://web.resource.org/cc/" xmlns:dc="http://purl.org/dc/elements/1.1/" xmlns:rdf="http://www.w3.org/1999/02/22-rdf-syntax-ns#">

     <rdf:Description rdf:about="">
       <dc:title>Mutant Standard emoji 2023.12</dc:title>
     </rdf:Description>

    <cc:work rdf:about="">
        <cc:license rdf:resource="http://creativecommons.org/licenses/by-nc-sa/4.0/"/>
        <cc:attributionName>Caius Nocturne</cc:attributionName>
        <cc:attributionURL>http://mutant.tech/</cc:attributionURL>
    </cc:work>

</rdf:RDF>
</metadata>
<rect id="tumbler_glass" width="32" height="32" fill="none"/><clipPath id="_clip1"><rect width="32" height="32"/></clipPath><g clip-path="url(#_clip1)"><g id="outline"><path d="m4.001 6.551c-1e-3 -0.017-1e-3 -0.034-1e-3 -0.051 0-2.484 5.377-4.5 12-4.5s12 2.016 12 4.5v19c0 2.484-5.377 4.5-12 4.5s-12-2.016-12-4.5c0-0.017 0-0.034 1e-3 -0.051v-18.898z" fill="none" stroke="#000" stroke-width="4px"/></g><g id="emoji"><rect x="4.001" y="6.5" width="23.999" height="19" fill="#fff"/><rect x="5.001" y="6.5" width="21.999" height="19" fill="#d9d9d9"/><ellipse cx="16" cy="6.5" rx="11.306" ry="3.92" fill="#bfbfbf"/><path d="m27 16h-21.999v10.5l4.999 2.5 6 0.5 6-0.5 5-2.5v-10.5z" fill="#bfbfbf"/><path d="m7.553 12 1.447 1v11l-1.447 1.641c-1.593-0.715-2.553-1.636-2.553-2.641 0-0.016 0-0.033 1e-3 -0.049v-10.951h2.552zm17.447 0h2v11c0 0.882-0.74 1.7-2 2.371l-1-1.371v-11l1-1z" fill="#b85e0e"/><path d="m12.553 12 1.447 1v12l-1.447 1.918c-1.971-0.244-3.697-0.692-5-1.277v-13.641h5zm7.447 0h5v13.371c-1.236 0.658-2.972 1.175-5 1.472l-1-1.843v-12l1-1z" fill="#d46a18"/><path d="m12.553 26.918v-13.918h7.447v13.843c-1.24 0.182-2.589 0.282-4 0.282-1.204 0-2.362-0.073-3.447-0.207z" fill="#e2891b"/><ellipse cx="16" cy="12" rx="11" ry="4.125" fill="#d87817"/><path d="m16.31 2.001 0.307 5e-3 0.306 7e-3 0.303 0.01 0.301 0.013 0.299 0.016 0.297 0.018 0.294 0.021 0.292 0.024 0.289 0.027 0.286 0.029 0.283 0.031 0.28 0.035 0.277 0.036 0.274 0.039 0.271 0.042 0.268 0.044 0.264 0.046 0.26 0.049 0.257 0.05 0.253 0.054 0.249 0.055 0.124 0.028 0.122 0.029 0.121 0.03 0.12 0.03 0.12 0.031 0.118 0.031 0.117 0.031 0.116 0.032 0.115 0.033 0.114 0.033 0.113 0.034 0.111 0.034 0.111 0.035 0.109 0.035 0.109 0.036 0.107 0.036 0.106 0.036 0.105 0.037 0.206 0.076 0.101 0.038 0.1 0.039 0.099 0.039 0.097 0.04 0.096 0.04 0.095 0.041 0.094 0.041 0.092 0.041 0.091 0.042 0.09 0.042 0.089 0.043 0.087 0.043 0.17 0.088 0.083 0.044 0.162 0.09 0.078 0.045 0.078 0.046 0.076 0.046 0.074 0.047 0.073 0.047 0.072 0.047 0.07 0.048 0.068 0.048 0.067 0.048 0.066 0.049 0.064 0.049 0.062 0.049 0.061 0.05 0.06 0.05 0.057 0.05 0.057 0.051 0.054 0.051 0.053 0.051 0.051 0.051 0.05 0.052 0.048 0.052 0.046 0.053 0.045 0.052 0.043 0.053 0.041 0.054 0.04 0.053 0.038 0.054 0.036 0.054 0.034 0.054 0.033 0.055 0.031 0.055 0.029 0.055 0.027 0.055 0.026 0.055 0.024 0.056 0.042 0.112 0.018 0.057 0.016 0.056 0.014 0.057 0.013 0.057 0.011 0.057 8e-3 0.058 7e-3 0.057 5e-3 0.058 3e-3 0.058 1e-3 0.058-1e-3 0.058-3e-3 0.058-5e-3 0.058-7e-3 0.057-8e-3 0.058-0.011 0.057-0.013 0.057-0.014 0.057-0.016 0.056-0.018 0.057-0.042 0.112-0.024 0.056-0.026 0.055-0.027 0.055-0.029 0.055-0.031 0.055-0.033 0.055-0.034 0.054-0.036 0.054-0.038 0.054-0.04 0.053-0.041 0.054-0.043 0.053-0.045 0.052-0.046 0.053-0.048 0.052-0.05 0.052-0.051 0.051-0.053 0.051-0.054 0.051-0.057 0.051-0.057 0.05-0.06 0.05-0.061 0.05-0.062 0.049-0.064 0.049-0.066 0.049-0.067 0.048-0.068 0.048-0.07 0.048-0.072 0.047-0.073 0.047-0.074 0.047-0.076 0.046-0.078 0.046-0.078 0.045-0.162 0.09-0.083 0.044-0.17 0.088-0.087 0.043-0.089 0.043-0.09 0.042-0.091 0.042-0.092 0.041-0.094 0.041-0.095 0.041-0.096 0.04-0.097 0.04-0.099 0.039-0.1 0.039-0.101 0.038-0.206 0.076-0.105 0.037-0.106 0.036-0.107 0.036-0.109 0.036-0.109 0.035-0.111 0.035-0.111 0.034-0.113 0.034-0.114 0.033-0.115 0.033-0.116 0.032-0.117 0.031-0.118 0.031-0.12 0.031-0.12 0.03-0.121 0.03-0.122 0.029-0.124 0.028-0.249 0.055-0.253 0.054-0.257 0.05-0.26 0.049-0.264 0.046-0.268 0.044-0.271 0.042-0.274 0.039-0.277 0.036-0.28 0.035-0.283 0.031-0.286 0.029-0.289 0.027-0.292 0.024-0.294 0.021-0.297 0.018-0.299 0.016-0.301 0.013-0.303 0.01-0.306 7e-3 -0.307 5e-3 -0.31 1e-3 -0.31-1e-3 -0.307-5e-3 -0.306-7e-3 -0.303-0.01-0.301-0.013-0.299-0.016-0.297-0.018-0.294-0.021-0.292-0.024-0.289-0.027-0.286-0.029-0.283-0.031-0.28-0.035-0.277-0.036-0.274-0.039-0.271-0.042-0.268-0.044-0.264-0.046-0.26-0.049-0.257-0.05-0.253-0.054-0.249-0.055-0.124-0.028-0.122-0.029-0.121-0.03-0.12-0.03-0.12-0.031-0.118-0.031-0.117-0.031-0.116-0.032-0.115-0.033-0.114-0.033-0.113-0.034-0.111-0.034-0.111-0.035-0.109-0.035-0.109-0.036-0.107-0.036-0.106-0.036-0.105-0.037-0.206-0.076-0.101-0.038-0.1-0.039-0.099-0.039-0.097-0.04-0.096-0.04-0.095-0.041-0.094-0.041-0.092-0.041-0.091-0.042-0.09-0.042-0.089-0.043-0.087-0.043-0.17-0.088-0.083-0.044-0.162-0.09-0.078-0.045-0.078-0.046-0.076-0.046-0.074-0.047-0.073-0.047-0.072-0.047-0.07-0.048-0.068-0.048-0.067-0.048-0.066-0.049-0.064-0.049-0.062-0.049-0.061-0.05-0.06-0.05-0.057-0.05-0.057-0.051-0.054-0.051-0.053-0.051-0.051-0.051-0.05-0.052-0.048-0.052-0.046-0.053-0.045-0.052-0.043-0.053-0.041-0.054-0.04-0.053-0.038-0.054-0.036-0.054-0.034-0.054-0.033-0.055-0.031-0.055-0.029-0.055-0.027-0.055-0.026-0.055-0.024-0.056-0.042-0.112-0.018-0.057-0.016-0.056-0.014-0.057-0.013-0.057-0.011-0.057-8e-3 -0.058-7e-3 -0.057-5e-3 -0.058-3e-3 -0.058-1e-3 -0.058 1e-3 -0.058 3e-3 -0.058 5e-3 -0.058 7e-3 -0.057 8e-3 -0.058 0.011-0.057 0.013-0.057 0.014-0.057 0.016-0.056 0.018-0.057 0.042-0.112 0.024-0.056 0.026-0.055 0.027-0.055 0.029-0.055 0.031-0.055 0.033-0.055 0.034-0.054 0.036-0.054 0.038-0.054 0.04-0.053 0.041-0.054 0.043-0.053 0.045-0.052 0.046-0.053 0.048-0.052 0.05-0.052 0.051-0.051 0.053-0.051 0.054-0.051 0.057-0.051 0.057-0.05 0.06-0.05 0.061-0.05 0.062-0.049 0.064-0.049 0.066-0.049 0.067-0.048 0.068-0.048 0.07-0.048 0.072-0.047 0.073-0.047 0.074-0.047 0.076-0.046 0.078-0.046 0.078-0.045 0.162-0.09 0.083-0.044 0.17-0.088 0.087-0.043 0.089-0.043 0.09-0.042 0.091-0.042 0.092-0.041 0.094-0.041 0.095-0.041 0.096-0.04 0.097-0.04 0.099-0.039 0.1-0.039 0.101-0.038 0.206-0.076 0.105-0.037 0.106-0.036 0.107-0.036 0.109-0.036 0.109-0.035 0.111-0.035 0.111-0.034 0.113-0.034 0.114-0.033 0.115-0.033 0.116-0.032 0.117-0.031 0.118-0.031 0.12-0.031 0.12-0.03 0.121-0.03 0.122-0.029 0.124-0.028 0.249-0.055 0.253-0.054 0.257-0.05 0.26-0.049 0.264-0.046 0.268-0.044 0.271-0.042 0.274-0.039 0.277-0.036 0.28-0.035 0.283-0.031 0.286-0.029 0.289-0.027 0.292-0.024 0.294-0.021 0.297-0.018 0.299-0.016 0.301-0.013 0.303-0.01 0.306-7e-3 0.307-5e-3 0.31-1e-3 0.31 1e-3zm-0.61 1-0.298 5e-3 -0.296 7e-3 -0.294 0.01-0.292 0.012-0.289 0.015-0.287 0.018-0.285 0.021-0.281 0.023-0.279 0.025-0.277 0.028-0.273 0.031-0.27 0.033-0.267 0.035-0.264 0.038-0.26 0.04-0.257 0.042-0.254 0.044-0.249 0.047-0.246 0.048-0.242 0.051-0.24 0.053-0.116 0.027-0.116 0.028-0.23 0.056-0.113 0.029-0.112 0.03-0.111 0.03-0.11 0.03-0.108 0.031-0.108 0.032-0.106 0.031-0.106 0.032-0.104 0.033-0.204 0.066-0.1 0.034-0.099 0.034-0.098 0.035-0.192 0.07-0.186 0.072-0.091 0.036-0.09 0.036-0.088 0.037-0.087 0.037-0.086 0.038-0.084 0.038-0.164 0.076-0.079 0.039-0.079 0.038-0.076 0.039-0.075 0.039-0.074 0.04-0.072 0.039-0.071 0.04-0.069 0.04-0.067 0.039-0.066 0.04-0.064 0.04-0.062 0.041-0.061 0.04-0.059 0.04-0.057 0.04-0.056 0.04-0.054 0.04-0.052 0.04-0.05 0.04-0.049 0.04-0.047 0.039-0.045 0.04-0.044 0.039-0.041 0.039-0.04 0.038-0.038 0.038-0.036 0.038-0.035 0.038-0.033 0.037-0.031 0.036-0.029 0.036-0.027 0.036-0.026 0.035-0.025 0.034-0.022 0.034-0.021 0.033-0.019 0.032-0.018 0.032-0.017 0.031-0.015 0.03-0.013 0.03-0.013 0.029-0.011 0.028-9e-3 0.028-9e-3 0.026-8e-3 0.027-6e-3 0.026-6e-3 0.025-5e-3 0.025-3e-3 0.025-3e-3 0.024-2e-3 0.024-1e-3 0.025-1e-3 0.024 1e-3 0.024 1e-3 0.025 2e-3 0.024 3e-3 0.024 3e-3 0.025 5e-3 0.025 6e-3 0.025 6e-3 0.026 8e-3 0.027 9e-3 0.026 9e-3 0.028 0.011 0.028 0.013 0.029 0.013 0.03 0.015 0.03 0.017 0.031 0.018 0.032 0.019 0.032 0.021 0.033 0.022 0.034 0.025 0.034 0.026 0.035 0.027 0.036 0.029 0.036 0.031 0.036 0.033 0.037 0.035 0.038 0.036 0.038 0.038 0.038 0.04 0.038 0.041 0.039 0.044 0.039 0.045 0.04 0.047 0.039 0.049 0.04 0.05 0.04 0.052 0.04 0.054 0.04 0.056 0.04 0.057 0.04 0.059 0.04 0.061 0.04 0.062 0.041 0.064 0.04 0.066 0.04 0.067 0.039 0.069 0.04 0.071 0.04 0.072 0.039 0.074 0.04 0.075 0.039 0.076 0.039 0.079 0.039 0.079 0.038 0.164 0.076 0.084 0.038 0.086 0.038 0.087 0.037 0.088 0.037 0.09 0.036 0.091 0.036 0.186 0.072 0.192 0.07 0.098 0.035 0.099 0.034 0.1 0.034 0.204 0.066 0.104 0.033 0.212 0.064 0.216 0.062 0.11 0.03 0.111 0.03 0.112 0.03 0.113 0.029 0.23 0.056 0.116 0.028 0.116 0.027 0.24 0.053 0.242 0.051 0.246 0.048 0.249 0.047 0.254 0.044 0.257 0.042 0.26 0.04 0.264 0.038 0.267 0.035 0.27 0.033 0.273 0.031 0.277 0.028 0.279 0.025 0.281 0.023 0.285 0.021 0.287 0.018 0.289 0.015 0.292 0.012 0.294 0.01 0.296 7e-3 0.298 5e-3 0.3 1e-3 0.3-1e-3 0.298-5e-3 0.296-7e-3 0.294-0.01 0.292-0.012 0.289-0.015 0.287-0.018 0.285-0.021 0.281-0.023 0.279-0.025 0.277-0.028 0.273-0.031 0.27-0.033 0.267-0.035 0.264-0.038 0.26-0.04 0.257-0.042 0.254-0.044 0.249-0.047 0.246-0.048 0.242-0.051 0.24-0.053 0.116-0.027 0.116-0.028 0.23-0.056 0.113-0.029 0.112-0.03 0.111-0.03 0.11-0.03 0.216-0.062 0.212-0.064 0.104-0.033 0.204-0.066 0.1-0.034 0.099-0.034 0.098-0.035 0.096-0.035 0.095-0.035 0.094-0.036 0.093-0.036 0.091-0.036 0.09-0.036 0.088-0.037 0.087-0.037 0.086-0.038 0.084-0.038 0.164-0.076 0.079-0.038 0.079-0.039 0.076-0.039 0.075-0.039 0.074-0.04 0.072-0.039 0.071-0.04 0.069-0.04 0.067-0.039 0.066-0.04 0.064-0.04 0.062-0.041 0.061-0.04 0.059-0.04 0.057-0.04 0.056-0.04 0.054-0.04 0.052-0.04 0.05-0.04 0.049-0.04 0.047-0.039 0.045-0.04 0.044-0.039 0.041-0.039 0.04-0.038 0.038-0.038 0.036-0.038 0.035-0.038 0.033-0.037 0.031-0.036 0.029-0.036 0.027-0.036 0.026-0.035 0.024-0.034 0.023-0.034 0.021-0.033 0.019-0.032 0.018-0.032 0.017-0.031 0.015-0.03 0.013-0.03 0.013-0.029 0.011-0.028 9e-3 -0.028 9e-3 -0.026 8e-3 -0.027 6e-3 -0.026 6e-3 -0.025 5e-3 -0.025 3e-3 -0.025 3e-3 -0.024 2e-3 -0.024 1e-3 -0.025 1e-3 -0.024-1e-3 -0.024-1e-3 -0.025-2e-3 -0.024-3e-3 -0.024-3e-3 -0.025-5e-3 -0.025-6e-3 -0.025-6e-3 -0.026-8e-3 -0.027-9e-3 -0.026-9e-3 -0.028-0.011-0.028-0.013-0.029-0.013-0.03-0.015-0.03-0.017-0.031-0.018-0.032-0.019-0.032-0.021-0.033-0.023-0.034-0.024-0.034-0.026-0.035-0.027-0.036-0.029-0.036-0.031-0.036-0.033-0.037-0.035-0.038-0.036-0.038-0.038-0.038-0.04-0.038-0.041-0.039-0.044-0.039-0.045-0.04-0.047-0.039-0.049-0.04-0.05-0.04-0.052-0.04-0.054-0.04-0.056-0.04-0.057-0.04-0.059-0.04-0.061-0.04-0.062-0.041-0.064-0.04-0.066-0.04-0.067-0.039-0.069-0.04-0.071-0.04-0.072-0.039-0.074-0.04-0.075-0.039-0.076-0.039-0.079-0.038-0.079-0.039-0.164-0.076-0.084-0.038-0.086-0.038-0.087-0.037-0.088-0.037-0.09-0.036-0.091-0.036-0.093-0.036-0.094-0.036-0.095-0.035-0.096-0.035-0.098-0.035-0.099-0.034-0.1-0.034-0.204-0.066-0.104-0.033-0.106-0.032-0.106-0.031-0.108-0.032-0.108-0.031-0.11-0.03-0.111-0.03-0.112-0.03-0.113-0.029-0.23-0.056-0.116-0.028-0.116-0.027-0.24-0.053-0.242-0.051-0.246-0.048-0.249-0.047-0.254-0.044-0.257-0.042-0.26-0.04-0.264-0.038-0.267-0.035-0.27-0.033-0.273-0.031-0.277-0.028-0.279-0.025-0.281-0.023-0.285-0.021-0.287-0.018-0.289-0.015-0.292-0.012-0.294-0.01-0.296-7e-3 -0.298-5e-3 -0.3-1e-3 -0.3 1e-3z" fill="#fff"/><path d="m12 10-5-1v19l3 1h2v-19z" fill="#fff" fill-opacity=".2902"/><rect x="1" y="25.5" width="30" height="6.5" fill="none"/><clipPath id="_clip2"><rect x="1" y="25.5" width="30" height="6.5"/></clipPath><g clip-path="url(#_clip2)"><path d="m16.31 21.001 0.307 5e-3 0.306 7e-3 0.303 0.01 0.301 0.013 0.299 0.016 0.297 0.018 0.294 0.021 0.292 0.024 0.289 0.027 0.286 0.029 0.283 0.031 0.28 0.035 0.277 0.036 0.274 0.039 0.271 0.042 0.268 0.044 0.264 0.046 0.26 0.049 0.257 0.05 0.253 0.054 0.249 0.055 0.124 0.028 0.122 0.029 0.121 0.03 0.12 0.03 0.12 0.031 0.118 0.031 0.117 0.031 0.116 0.032 0.115 0.033 0.114 0.033 0.113 0.034 0.111 0.034 0.111 0.035 0.109 0.035 0.109 0.036 0.107 0.036 0.106 0.036 0.105 0.037 0.206 0.076 0.101 0.038 0.1 0.039 0.099 0.039 0.097 0.04 0.096 0.04 0.095 0.041 0.094 0.041 0.092 0.041 0.091 0.042 0.09 0.042 0.089 0.043 0.087 0.043 0.17 0.088 0.083 0.044 0.162 0.09 0.078 0.045 0.078 0.046 0.076 0.046 0.074 0.047 0.073 0.047 0.072 0.047 0.07 0.048 0.068 0.048 0.067 0.048 0.066 0.049 0.064 0.049 0.062 0.049 0.061 0.05 0.06 0.05 0.057 0.05 0.057 0.051 0.054 0.051 0.053 0.051 0.051 0.051 0.05 0.052 0.048 0.052 0.046 0.053 0.045 0.052 0.043 0.053 0.041 0.054 0.04 0.053 0.038 0.054 0.036 0.054 0.034 0.054 0.033 0.055 0.031 0.055 0.029 0.055 0.027 0.055 0.026 0.055 0.024 0.056 0.042 0.112 0.018 0.057 0.016 0.056 0.014 0.057 0.013 0.057 0.011 0.057 8e-3 0.058 7e-3 0.057 5e-3 0.058 3e-3 0.058 1e-3 0.058-1e-3 0.058-3e-3 0.058-5e-3 0.058-7e-3 0.057-8e-3 0.058-0.011 0.057-0.013 0.057-0.014 0.057-0.016 0.056-0.018 0.057-0.042 0.112-0.024 0.056-0.026 0.055-0.027 0.055-0.029 0.055-0.031 0.055-0.033 0.055-0.034 0.054-0.036 0.054-0.038 0.054-0.04 0.053-0.041 0.054-0.043 0.053-0.045 0.052-0.046 0.053-0.048 0.052-0.05 0.052-0.051 0.051-0.053 0.051-0.054 0.051-0.057 0.051-0.057 0.05-0.06 0.05-0.061 0.05-0.062 0.049-0.064 0.049-0.066 0.049-0.067 0.048-0.068 0.048-0.07 0.048-0.072 0.047-0.073 0.047-0.074 0.047-0.076 0.046-0.078 0.046-0.078 0.045-0.162 0.09-0.083 0.044-0.17 0.088-0.087 0.043-0.089 0.043-0.09 0.042-0.091 0.042-0.092 0.041-0.094 0.041-0.095 0.041-0.096 0.04-0.097 0.04-0.099 0.039-0.1 0.039-0.101 0.038-0.206 0.076-0.105 0.037-0.106 0.036-0.107 0.036-0.109 0.036-0.109 0.035-0.111 0.035-0.111 0.034-0.113 0.034-0.114 0.033-0.115 0.033-0.116 0.032-0.117 0.031-0.118 0.031-0.12 0.031-0.12 0.03-0.121 0.03-0.122 0.029-0.124 0.028-0.249 0.055-0.253 0.054-0.257 0.05-0.26 0.049-0.264 0.046-0.268 0.044-0.271 0.042-0.274 0.039-0.277 0.036-0.28 0.035-0.283 0.031-0.286 0.029-0.289 0.027-0.292 0.024-0.294 0.021-0.297 0.018-0.299 0.016-0.301 0.013-0.303 0.01-0.306 7e-3 -0.307 5e-3 -0.31 1e-3 -0.31-1e-3 -0.307-5e-3 -0.306-7e-3 -0.303-0.01-0.301-0.013-0.299-0.016-0.297-0.018-0.294-0.021-0.292-0.024-0.289-0.027-0.286-0.029-0.283-0.031-0.28-0.035-0.277-0.036-0.274-0.039-0.271-0.042-0.268-0.044-0.264-0.046-0.26-0.049-0.257-0.05-0.253-0.054-0.249-0.055-0.124-0.028-0.122-0.029-0.121-0.03-0.12-0.03-0.12-0.031-0.118-0.031-0.117-0.031-0.116-0.032-0.115-0.033-0.114-0.033-0.113-0.034-0.111-0.034-0.111-0.035-0.109-0.035-0.109-0.036-0.107-0.036-0.106-0.036-0.105-0.037-0.206-0.076-0.101-0.038-0.1-0.039-0.099-0.039-0.097-0.04-0.096-0.04-0.095-0.041-0.094-0.041-0.092-0.041-0.091-0.042-0.09-0.042-0.089-0.043-0.087-0.043-0.17-0.088-0.083-0.044-0.162-0.09-0.078-0.045-0.078-0.046-0.076-0.046-0.074-0.047-0.073-0.047-0.072-0.047-0.07-0.048-0.068-0.048-0.067-0.048-0.066-0.049-0.064-0.049-0.062-0.049-0.061-0.05-0.06-0.05-0.057-0.05-0.057-0.051-0.054-0.051-0.053-0.051-0.051-0.051-0.05-0.052-0.048-0.052-0.046-0.053-0.045-0.052-0.043-0.053-0.041-0.054-0.04-0.053-0.038-0.054-0.036-0.054-0.034-0.054-0.033-0.055-0.031-0.055-0.029-0.055-0.027-0.055-0.026-0.055-0.024-0.056-0.042-0.112-0.018-0.057-0.016-0.056-0.014-0.057-0.013-0.057-0.011-0.057-8e-3 -0.058-7e-3 -0.057-5e-3 -0.058-3e-3 -0.058-1e-3 -0.058 1e-3 -0.058 3e-3 -0.058 5e-3 -0.058 7e-3 -0.057 8e-3 -0.058 0.011-0.057 0.013-0.057 0.014-0.057 0.016-0.056 0.018-0.057 0.042-0.112 0.024-0.056 0.026-0.055 0.027-0.055 0.029-0.055 0.031-0.055 0.033-0.055 0.034-0.054 0.036-0.054 0.038-0.054 0.04-0.053 0.041-0.054 0.043-0.053 0.045-0.052 0.046-0.053 0.048-0.052 0.05-0.052 0.051-0.051 0.053-0.051 0.054-0.051 0.057-0.051 0.057-0.05 0.06-0.05 0.061-0.05 0.062-0.049 0.064-0.049 0.066-0.049 0.067-0.048 0.068-0.048 0.07-0.048 0.072-0.047 0.073-0.047 0.074-0.047 0.076-0.046 0.078-0.046 0.078-0.045 0.162-0.09 0.083-0.044 0.17-0.088 0.087-0.043 0.089-0.043 0.09-0.042 0.091-0.042 0.092-0.041 0.094-0.041 0.095-0.041 0.096-0.04 0.097-0.04 0.099-0.039 0.1-0.039 0.101-0.038 0.206-0.076 0.105-0.037 0.106-0.036 0.107-0.036 0.109-0.036 0.109-0.035 0.111-0.035 0.111-0.034 0.113-0.034 0.114-0.033 0.115-0.033 0.116-0.032 0.117-0.031 0.118-0.031 0.12-0.031 0.12-0.03 0.121-0.03 0.122-0.029 0.124-0.028 0.249-0.055 0.253-0.054 0.257-0.05 0.26-0.049 0.264-0.046 0.268-0.044 0.271-0.042 0.274-0.039 0.277-0.036 0.28-0.035 0.283-0.031 0.286-0.029 0.289-0.027 0.292-0.024 0.294-0.021 0.297-0.018 0.299-0.016 0.301-0.013 0.303-0.01 0.306-7e-3 0.307-5e-3 0.31-1e-3 0.31 1e-3zm-0.61 1-0.298 5e-3 -0.296 7e-3 -0.294 0.01-0.292 0.012-0.289 0.015-0.287 0.018-0.285 0.021-0.281 0.023-0.279 0.025-0.277 0.028-0.273 0.031-0.27 0.033-0.267 0.035-0.264 0.038-0.26 0.04-0.257 0.042-0.254 0.044-0.249 0.047-0.246 0.048-0.242 0.051-0.24 0.053-0.116 0.027-0.116 0.028-0.23 0.056-0.113 0.029-0.112 0.03-0.111 0.03-0.11 0.03-0.108 0.031-0.108 0.032-0.106 0.031-0.106 0.032-0.104 0.033-0.204 0.066-0.1 0.034-0.099 0.034-0.098 0.035-0.192 0.07-0.186 0.072-0.091 0.036-0.09 0.036-0.088 0.037-0.087 0.037-0.086 0.038-0.084 0.038-0.164 0.076-0.079 0.039-0.079 0.038-0.076 0.039-0.075 0.039-0.074 0.04-0.072 0.039-0.071 0.04-0.069 0.04-0.067 0.039-0.066 0.04-0.064 0.04-0.062 0.041-0.061 0.04-0.059 0.04-0.057 0.04-0.056 0.04-0.054 0.04-0.052 0.04-0.05 0.04-0.049 0.04-0.047 0.039-0.045 0.04-0.044 0.039-0.041 0.039-0.04 0.038-0.038 0.038-0.036 0.038-0.035 0.038-0.033 0.037-0.031 0.036-0.029 0.036-0.027 0.036-0.026 0.035-0.025 0.034-0.022 0.034-0.021 0.033-0.019 0.032-0.018 0.032-0.017 0.031-0.015 0.03-0.013 0.03-0.013 0.029-0.011 0.028-9e-3 0.028-9e-3 0.026-8e-3 0.027-6e-3 0.026-6e-3 0.025-5e-3 0.025-3e-3 0.025-3e-3 0.024-2e-3 0.024-1e-3 0.025-1e-3 0.024 1e-3 0.024 1e-3 0.025 2e-3 0.024 3e-3 0.024 3e-3 0.025 5e-3 0.025 6e-3 0.025 6e-3 0.026 8e-3 0.027 9e-3 0.026 9e-3 0.028 0.011 0.028 0.013 0.029 0.013 0.03 0.015 0.03 0.017 0.031 0.018 0.032 0.019 0.032 0.021 0.033 0.022 0.034 0.025 0.034 0.026 0.035 0.027 0.036 0.029 0.036 0.031 0.036 0.033 0.037 0.035 0.038 0.036 0.038 0.038 0.038 0.04 0.038 0.041 0.039 0.044 0.039 0.045 0.04 0.047 0.039 0.049 0.04 0.05 0.04 0.052 0.04 0.054 0.04 0.056 0.04 0.057 0.04 0.059 0.04 0.061 0.04 0.062 0.041 0.064 0.04 0.066 0.04 0.067 0.039 0.069 0.04 0.071 0.04 0.072 0.039 0.074 0.04 0.075 0.039 0.076 0.039 0.079 0.038 0.079 0.039 0.164 0.076 0.084 0.038 0.086 0.038 0.087 0.037 0.088 0.037 0.09 0.036 0.091 0.036 0.093 0.036 0.094 0.036 0.095 0.035 0.096 0.035 0.098 0.035 0.099 0.034 0.1 0.034 0.204 0.066 0.104 0.033 0.212 0.064 0.107 0.031 0.109 0.031 0.11 0.03 0.111 0.03 0.112 0.03 0.113 0.029 0.23 0.056 0.116 0.028 0.116 0.027 0.24 0.053 0.242 0.051 0.246 0.048 0.249 0.047 0.254 0.044 0.257 0.042 0.26 0.04 0.264 0.038 0.267 0.035 0.27 0.033 0.273 0.031 0.277 0.028 0.279 0.025 0.281 0.023 0.285 0.021 0.287 0.018 0.289 0.015 0.292 0.012 0.294 0.01 0.296 7e-3 0.298 5e-3 0.3 1e-3 0.3-1e-3 0.298-5e-3 0.296-7e-3 0.294-0.01 0.292-0.012 0.289-0.015 0.287-0.018 0.285-0.021 0.281-0.023 0.279-0.025 0.277-0.028 0.273-0.031 0.27-0.033 0.267-0.035 0.264-0.038 0.26-0.04 0.257-0.042 0.254-0.044 0.249-0.047 0.246-0.048 0.242-0.051 0.24-0.053 0.116-0.027 0.116-0.028 0.23-0.056 0.113-0.029 0.112-0.03 0.111-0.03 0.11-0.03 0.109-0.031 0.107-0.031 0.212-0.064 0.104-0.033 0.204-0.066 0.1-0.034 0.099-0.034 0.098-0.035 0.096-0.035 0.095-0.035 0.094-0.036 0.093-0.036 0.091-0.036 0.09-0.036 0.088-0.037 0.087-0.037 0.086-0.038 0.084-0.038 0.164-0.076 0.079-0.039 0.079-0.038 0.076-0.039 0.075-0.039 0.074-0.04 0.072-0.039 0.071-0.04 0.069-0.04 0.067-0.039 0.066-0.04 0.064-0.04 0.062-0.041 0.061-0.04 0.059-0.04 0.057-0.04 0.056-0.04 0.054-0.04 0.052-0.04 0.05-0.04 0.049-0.04 0.047-0.039 0.045-0.04 0.044-0.039 0.041-0.039 0.04-0.038 0.038-0.038 0.036-0.038 0.035-0.038 0.033-0.037 0.031-0.036 0.029-0.036 0.027-0.036 0.026-0.035 0.024-0.034 0.023-0.034 0.021-0.033 0.019-0.032 0.018-0.032 0.017-0.031 0.015-0.03 0.013-0.03 0.013-0.029 0.011-0.028 9e-3 -0.028 9e-3 -0.026 8e-3 -0.027 6e-3 -0.026 6e-3 -0.025 5e-3 -0.025 3e-3 -0.025 3e-3 -0.024 2e-3 -0.024 1e-3 -0.025 1e-3 -0.024-1e-3 -0.024-1e-3 -0.025-2e-3 -0.024-3e-3 -0.024-3e-3 -0.025-5e-3 -0.025-6e-3 -0.025-6e-3 -0.026-8e-3 -0.027-9e-3 -0.026-9e-3 -0.028-0.011-0.028-0.013-0.029-0.013-0.03-0.015-0.03-0.017-0.031-0.018-0.032-0.019-0.032-0.021-0.033-0.023-0.034-0.024-0.034-0.026-0.035-0.027-0.036-0.029-0.036-0.031-0.036-0.033-0.037-0.035-0.038-0.036-0.038-0.038-0.038-0.04-0.038-0.041-0.039-0.044-0.039-0.045-0.04-0.047-0.039-0.049-0.04-0.05-0.04-0.052-0.04-0.054-0.04-0.056-0.04-0.057-0.04-0.059-0.04-0.061-0.04-0.062-0.041-0.064-0.04-0.066-0.04-0.067-0.039-0.069-0.04-0.071-0.04-0.072-0.039-0.074-0.04-0.075-0.039-0.076-0.039-0.079-0.038-0.079-0.039-0.164-0.076-0.084-0.038-0.086-0.038-0.087-0.037-0.088-0.037-0.09-0.036-0.091-0.036-0.093-0.036-0.094-0.036-0.095-0.035-0.096-0.035-0.098-0.035-0.099-0.034-0.1-0.034-0.204-0.066-0.104-0.033-0.106-0.032-0.106-0.031-0.108-0.032-0.108-0.031-0.11-0.03-0.111-0.03-0.112-0.03-0.113-0.029-0.23-0.056-0.116-0.028-0.116-0.027-0.24-0.053-0.242-0.051-0.246-0.048-0.249-0.047-0.254-0.044-0.257-0.042-0.26-0.04-0.264-0.038-0.267-0.035-0.27-0.033-0.273-0.031-0.277-0.028-0.279-0.025-0.281-0.023-0.285-0.021-0.287-0.018-0.289-0.015-0.292-0.012-0.294-0.01-0.296-7e-3 -0.298-5e-3 -0.3-1e-3 -0.3 1e-3z" fill="#fff"/></g><rect x="1" y="21.5" width="30" height="6.5" fill="none"/></g></g></svg>
