<?xml version="1.0" encoding="UTF-8"?>
<!DOCTYPE svg  PUBLIC '-//W3C//DTD SVG 1.1//EN'  'http://www.w3.org/Graphics/SVG/1.1/DTD/svg11.dtd'>
<svg clip-rule="evenodd" fill-rule="evenodd" stroke-linecap="round" stroke-linejoin="round" stroke-miterlimit="10" version="1.1" viewBox="0 0 32 32" xml:space="preserve" xmlns="http://www.w3.org/2000/svg">
<metadata>
<rdf:RDF xmlns:cc="http://web.resource.org/cc/" xmlns:dc="http://purl.org/dc/elements/1.1/" xmlns:rdf="http://www.w3.org/1999/02/22-rdf-syntax-ns#">

     <rdf:Description rdf:about="">
       <dc:title>Mutant Standard emoji 2023.12</dc:title>
     </rdf:Description>

    <cc:work rdf:about="">
        <cc:license rdf:resource="http://creativecommons.org/licenses/by-nc-sa/4.0/"/>
        <cc:attributionName>Caius Nocturne</cc:attributionName>
        <cc:attributionURL>http://mutant.tech/</cc:attributionURL>
    </cc:work>

</rdf:RDF>
</metadata>
<rect id="wine" width="32" height="32" fill="none"/><clipPath id="_clip1"><rect width="32" height="32"/></clipPath><g clip-path="url(#_clip1)"><g id="outline"><path d="m7 6c0-2.208 4.033-4 9-4s9 1.792 9 4l0.636 5.086c0.345 2.763-0.513 5.542-2.356 7.63-1.621 1.837-3.867 2.983-6.28 3.232v5.082c2.281 0.139 4 0.745 4 1.47 0 0.828-2.24 1.5-5 1.5s-5-0.672-5-1.5c0-0.725 1.719-1.331 4-1.47v-5.082c-2.413-0.249-4.659-1.395-6.28-3.232-1.843-2.088-2.701-4.867-2.356-7.63l0.636-5.086z" fill="none" stroke="#000" stroke-width="4px"/></g><g id="emoji"><ellipse cx="16" cy="28.5" rx="5" ry="1.5" fill="#fff"/><path d="m15 28.463v-11.5h2v11.5c0 0.166-0.448 0.3-1 0.3s-1-0.134-1-0.3z" fill="#ccc"/><path d="m7 6s-0.283 2.262-0.636 5.086c-0.345 2.763 0.513 5.542 2.356 7.63s4.494 3.284 7.279 3.284h2e-3c2.785 0 5.436-1.196 7.279-3.284s2.701-4.867 2.356-7.63c-0.353-2.824-0.636-5.086-0.636-5.086h-18z" fill="#fff"/><path d="m24 6h-16s-0.306 2.295-0.678 5.089c-0.334 2.501 0.428 5.025 2.09 6.923 1.663 1.899 4.063 2.988 6.587 2.988h2e-3c2.524 0 4.925-1.089 6.587-2.988 1.662-1.898 2.424-4.422 2.091-6.923-0.373-2.794-0.679-5.089-0.679-5.089z" fill="#d9d9d9"/><clipPath id="_clip2"><path d="m24 6h-16s-0.306 2.295-0.678 5.089c-0.334 2.501 0.428 5.025 2.09 6.923 1.663 1.899 4.063 2.988 6.587 2.988h2e-3c2.524 0 4.925-1.089 6.587-2.988 1.662-1.898 2.424-4.422 2.091-6.923-0.373-2.794-0.679-5.089-0.679-5.089z"/></clipPath><g clip-path="url(#_clip2)"><rect x="6" y="9" width="20" height="6" fill="#e33152"/><path d="m29.265 9.956v11.811h-25.992v-11.811h3.076l-8e-3 0.152c0 2.37 4.328 4.294 9.659 4.294s9.66-1.924 9.66-4.294l-9e-3 -0.152h3.614z" fill="#b72a44"/><path d="m10 8s-7e-3 0.019-0.021 0.056c-1.814 4.838-0.633 10.29 3.02 13.943l1e-3 1e-3h3v-1e-3c-2.538-3.806-3.276-8.534-2.019-12.932 0.012-0.044 0.019-0.067 0.019-0.067l-4-1z" fill="#fff" fill-opacity=".24706"/></g><ellipse cx="16" cy="6" rx="8.477" ry="3.414" fill="#d9d9d9"/><ellipse cx="16" cy="9" rx="8.374" ry="3" fill="#e33152"/><clipPath id="_clip3"><ellipse cx="16" cy="9" rx="8.374" ry="3"/></clipPath><g clip-path="url(#_clip3)"><path d="m10 8s-7e-3 0.019-0.021 0.056c-1.814 4.838-0.633 10.29 3.02 13.943l1e-3 1e-3h3v-1e-3c-2.538-3.806-3.276-8.534-2.019-12.932 0.012-0.044 0.019-0.067 0.019-0.067l-4-1z" fill="#fff" fill-opacity=".24706"/></g><path d="m16.232 2.001 0.231 4e-3 0.229 7e-3 0.228 9e-3 0.226 0.011 0.224 0.014 0.222 0.017 0.221 0.018 0.218 0.022 0.217 0.023 0.215 0.026 0.212 0.028 0.21 0.03 0.208 0.033 0.206 0.035 0.203 0.037 0.2 0.039 0.198 0.041 0.196 0.043 0.192 0.045 0.19 0.047 0.187 0.049 0.184 0.052 0.182 0.053 0.178 0.054 0.174 0.057 0.172 0.059 0.168 0.06 0.165 0.062 0.162 0.064 0.158 0.065 0.155 0.067 0.151 0.069 0.074 0.035 0.073 0.035 0.072 0.036 0.071 0.036 0.07 0.036 0.07 0.037 0.068 0.037 0.134 0.076 0.065 0.038 0.128 0.078 0.062 0.039 0.061 0.04 0.06 0.04 0.059 0.041 0.058 0.04 0.057 0.042 0.056 0.041 0.055 0.042 0.054 0.042 0.052 0.042 0.102 0.086 0.049 0.043 0.048 0.043 0.047 0.044 0.045 0.044 0.045 0.045 0.043 0.045 0.042 0.045 0.041 0.045 0.04 0.045 0.039 0.046 0.037 0.046 0.036 0.047 0.035 0.046 0.033 0.047 0.032 0.047 0.031 0.047 0.03 0.048 0.056 0.096 0.025 0.048 0.025 0.049 0.023 0.048 0.022 0.049 0.02 0.049 0.019 0.05 0.018 0.049 0.017 0.05 0.015 0.05 0.013 0.05 0.012 0.05 0.011 0.051 0.01 0.05 8e-3 0.051 6e-3 0.051 5e-3 0.051 4e-3 0.052 2e-3 0.051 1e-3 0.052-1e-3 0.052-2e-3 0.051-4e-3 0.052-5e-3 0.051-6e-3 0.051-8e-3 0.051-0.01 0.05-0.011 0.051-0.012 0.05-0.013 0.05-0.015 0.05-0.017 0.05-0.018 0.049-0.019 0.05-0.02 0.049-0.022 0.049-0.023 0.048-0.025 0.049-0.025 0.048-0.056 0.096-0.03 0.048-0.031 0.047-0.032 0.047-0.033 0.047-0.035 0.046-0.036 0.047-0.037 0.046-0.039 0.046-0.04 0.045-0.041 0.045-0.042 0.045-0.043 0.045-0.045 0.045-0.045 0.044-0.047 0.044-0.048 0.043-0.049 0.043-0.102 0.086-0.052 0.042-0.054 0.042-0.055 0.042-0.056 0.041-0.057 0.042-0.058 0.04-0.059 0.041-0.06 0.04-0.061 0.04-0.062 0.039-0.128 0.078-0.065 0.038-0.134 0.076-0.068 0.037-0.07 0.037-0.07 0.036-0.071 0.036-0.072 0.036-0.073 0.035-0.074 0.035-0.151 0.069-0.155 0.067-0.158 0.065-0.162 0.064-0.165 0.062-0.168 0.06-0.172 0.059-0.174 0.057-0.178 0.054-0.182 0.053-0.184 0.052-0.187 0.049-0.19 0.047-0.192 0.045-0.196 0.043-0.198 0.041-0.2 0.039-0.203 0.037-0.206 0.035-0.208 0.033-0.21 0.03-0.212 0.028-0.215 0.026-0.217 0.023-0.218 0.022-0.221 0.018-0.222 0.017-0.224 0.014-0.226 0.011-0.228 9e-3 -0.229 7e-3 -0.231 4e-3 -0.232 1e-3 -0.232-1e-3 -0.231-4e-3 -0.229-7e-3 -0.228-9e-3 -0.226-0.011-0.224-0.014-0.222-0.017-0.221-0.018-0.218-0.022-0.217-0.023-0.215-0.026-0.212-0.028-0.21-0.03-0.208-0.033-0.206-0.035-0.203-0.037-0.2-0.039-0.198-0.041-0.196-0.043-0.192-0.045-0.19-0.047-0.187-0.049-0.184-0.052-0.182-0.053-0.178-0.054-0.174-0.057-0.172-0.059-0.168-0.06-0.165-0.062-0.162-0.064-0.158-0.065-0.155-0.067-0.151-0.069-0.074-0.035-0.073-0.035-0.072-0.036-0.071-0.036-0.07-0.036-0.07-0.037-0.068-0.037-0.134-0.076-0.065-0.038-0.128-0.078-0.062-0.039-0.061-0.04-0.06-0.04-0.059-0.041-0.058-0.04-0.057-0.042-0.056-0.041-0.055-0.042-0.054-0.042-0.052-0.042-0.102-0.086-0.049-0.043-0.048-0.043-0.047-0.044-0.045-0.044-0.045-0.045-0.043-0.045-0.042-0.045-0.041-0.045-0.04-0.045-0.039-0.046-0.037-0.046-0.036-0.047-0.035-0.046-0.033-0.047-0.032-0.047-0.031-0.047-0.03-0.048-0.056-0.096-0.025-0.048-0.025-0.049-0.023-0.048-0.022-0.049-0.02-0.049-0.019-0.05-0.018-0.049-0.017-0.05-0.015-0.05-0.013-0.05-0.012-0.05-0.011-0.051-0.01-0.05-8e-3 -0.051-6e-3 -0.051-5e-3 -0.051-4e-3 -0.052-2e-3 -0.051-1e-3 -0.052 1e-3 -0.052 2e-3 -0.051 4e-3 -0.052 5e-3 -0.051 6e-3 -0.051 8e-3 -0.051 0.01-0.05 0.011-0.051 0.012-0.05 0.013-0.05 0.015-0.05 0.017-0.05 0.018-0.049 0.019-0.05 0.02-0.049 0.022-0.049 0.023-0.048 0.025-0.049 0.025-0.048 0.056-0.096 0.03-0.048 0.031-0.047 0.032-0.047 0.033-0.047 0.035-0.046 0.036-0.047 0.037-0.046 0.039-0.046 0.04-0.045 0.041-0.045 0.042-0.045 0.043-0.045 0.045-0.045 0.045-0.044 0.047-0.044 0.048-0.043 0.049-0.043 0.102-0.086 0.052-0.042 0.054-0.042 0.055-0.042 0.056-0.041 0.057-0.042 0.058-0.04 0.059-0.041 0.06-0.04 0.061-0.04 0.062-0.039 0.128-0.078 0.065-0.038 0.134-0.076 0.068-0.037 0.07-0.037 0.07-0.036 0.071-0.036 0.072-0.036 0.073-0.035 0.074-0.035 0.151-0.069 0.155-0.067 0.158-0.065 0.162-0.064 0.165-0.062 0.168-0.06 0.172-0.059 0.174-0.057 0.178-0.054 0.182-0.053 0.184-0.052 0.187-0.049 0.19-0.047 0.192-0.045 0.196-0.043 0.198-0.041 0.2-0.039 0.203-0.037 0.206-0.035 0.208-0.033 0.21-0.03 0.212-0.028 0.215-0.026 0.217-0.023 0.218-0.022 0.221-0.018 0.222-0.017 0.224-0.014 0.226-0.011 0.228-9e-3 0.229-7e-3 0.231-4e-3 0.232-1e-3 0.232 1e-3zm-0.453 1-0.219 4e-3 -0.218 6e-3 -0.217 9e-3 -0.214 0.011-0.213 0.013-0.211 0.015-0.209 0.018-0.207 0.02-0.205 0.023-0.203 0.024-0.201 0.027-0.198 0.028-0.196 0.031-0.194 0.033-0.191 0.034-0.188 0.037-0.186 0.039-0.183 0.04-0.18 0.042-0.177 0.044-0.173 0.046-0.171 0.047-0.168 0.049-0.164 0.051-0.161 0.052-0.157 0.054-0.154 0.055-0.15 0.056-0.146 0.058-0.143 0.059-0.138 0.06-0.137 0.062-0.064 0.03-0.065 0.031-0.126 0.064-0.122 0.064-0.059 0.032-0.058 0.033-0.057 0.032-0.056 0.033-0.055 0.033-0.054 0.033-0.052 0.033-0.052 0.034-0.05 0.033-0.049 0.034-0.047 0.033-0.047 0.034-0.045 0.033-0.044 0.034-0.043 0.034-0.042 0.033-0.04 0.034-0.04 0.033-0.037 0.033-0.037 0.034-0.07 0.066-0.032 0.033-0.032 0.032-0.03 0.033-0.029 0.032-0.028 0.032-0.027 0.031-0.025 0.032-0.024 0.031-0.023 0.03-0.022 0.031-0.02 0.03-0.02 0.029-0.018 0.029-0.017 0.029-0.016 0.029-0.015 0.027-0.014 0.028-0.013 0.027-0.012 0.026-0.011 0.027-9e-3 0.025-0.01 0.026-8e-3 0.025-0.014 0.048-6e-3 0.024-5e-3 0.024-4e-3 0.023-4e-3 0.024-3e-3 0.023-4e-3 0.046-1e-3 0.023v0.023 0.023l1e-3 0.023 4e-3 0.046 3e-3 0.023 4e-3 0.024 4e-3 0.023 5e-3 0.024 6e-3 0.024 0.014 0.048 8e-3 0.025 0.01 0.026 9e-3 0.025 0.011 0.027 0.012 0.026 0.013 0.027 0.014 0.028 0.015 0.027 0.016 0.029 0.017 0.029 0.018 0.029 0.02 0.029 0.02 0.03 0.022 0.031 0.023 0.03 0.024 0.031 0.025 0.032 0.027 0.031 0.028 0.032 0.029 0.032 0.03 0.033 0.032 0.032 0.032 0.033 0.07 0.066 0.037 0.034 0.037 0.033 0.04 0.033 0.04 0.034 0.042 0.033 0.043 0.034 0.044 0.034 0.045 0.033 0.047 0.034 0.047 0.033 0.049 0.034 0.05 0.033 0.052 0.034 0.052 0.033 0.054 0.033 0.055 0.033 0.056 0.033 0.057 0.032 0.058 0.033 0.059 0.032 0.122 0.064 0.126 0.064 0.065 0.031 0.064 0.03 0.137 0.062 0.138 0.06 0.143 0.059 0.146 0.058 0.15 0.056 0.154 0.055 0.157 0.054 0.161 0.052 0.164 0.051 0.168 0.049 0.171 0.047 0.173 0.046 0.177 0.044 0.18 0.042 0.183 0.04 0.186 0.039 0.188 0.037 0.191 0.034 0.194 0.033 0.196 0.031 0.198 0.028 0.201 0.027 0.203 0.024 0.205 0.023 0.207 0.02 0.209 0.018 0.211 0.015 0.213 0.013 0.214 0.011 0.217 9e-3 0.218 6e-3 0.219 4e-3 0.221 1e-3 0.221-1e-3 0.219-4e-3 0.218-6e-3 0.217-9e-3 0.214-0.011 0.213-0.013 0.211-0.015 0.209-0.018 0.207-0.02 0.205-0.023 0.203-0.024 0.201-0.027 0.198-0.028 0.196-0.031 0.194-0.033 0.191-0.034 0.188-0.037 0.186-0.039 0.183-0.04 0.18-0.042 0.177-0.044 0.173-0.046 0.171-0.047 0.168-0.049 0.164-0.051 0.161-0.052 0.157-0.054 0.154-0.055 0.15-0.056 0.146-0.058 0.143-0.059 0.139-0.06 0.136-0.062 0.064-0.03 0.065-0.031 0.126-0.064 0.122-0.064 0.059-0.032 0.058-0.033 0.057-0.032 0.056-0.033 0.055-0.033 0.054-0.033 0.052-0.033 0.052-0.034 0.05-0.033 0.049-0.034 0.047-0.033 0.047-0.034 0.045-0.033 0.044-0.034 0.043-0.034 0.042-0.033 0.04-0.034 0.04-0.033 0.037-0.033 0.037-0.034 0.07-0.066 0.032-0.033 0.032-0.032 0.03-0.033 0.029-0.032 0.028-0.032 0.027-0.031 0.025-0.032 0.024-0.031 0.023-0.03 0.022-0.031 0.02-0.03 0.02-0.029 0.018-0.029 0.017-0.029 0.016-0.029 0.015-0.027 0.014-0.028 0.013-0.027 0.012-0.026 0.011-0.027 9e-3 -0.025 0.01-0.026 8e-3 -0.025 0.014-0.048 6e-3 -0.024 5e-3 -0.024 4e-3 -0.023 4e-3 -0.024 3e-3 -0.023 4e-3 -0.046 1e-3 -0.023v-0.023-0.023l-1e-3 -0.023-4e-3 -0.046-3e-3 -0.023-4e-3 -0.024-4e-3 -0.023-5e-3 -0.024-6e-3 -0.024-7e-3 -0.024-7e-3 -0.025-8e-3 -0.024-9e-3 -0.026-0.01-0.025-0.011-0.027-0.012-0.026-0.013-0.027-0.014-0.028-0.015-0.027-0.016-0.029-0.017-0.029-0.018-0.029-0.02-0.029-0.02-0.03-0.022-0.031-0.023-0.03-0.024-0.031-0.025-0.032-0.027-0.031-0.028-0.032-0.029-0.032-0.03-0.033-0.032-0.032-0.032-0.033-0.07-0.066-0.037-0.034-0.037-0.033-0.04-0.033-0.04-0.034-0.042-0.033-0.043-0.034-0.044-0.034-0.045-0.033-0.047-0.034-0.047-0.033-0.049-0.034-0.05-0.033-0.052-0.034-0.052-0.033-0.054-0.033-0.055-0.033-0.056-0.033-0.057-0.032-0.058-0.033-0.059-0.032-0.122-0.064-0.126-0.064-0.065-0.031-0.064-0.03-0.137-0.062-0.138-0.06-0.143-0.059-0.146-0.058-0.15-0.056-0.154-0.055-0.157-0.054-0.161-0.052-0.164-0.051-0.168-0.049-0.171-0.047-0.173-0.046-0.177-0.044-0.18-0.042-0.183-0.04-0.186-0.039-0.188-0.037-0.191-0.034-0.194-0.033-0.196-0.031-0.198-0.028-0.201-0.027-0.203-0.024-0.205-0.023-0.207-0.02-0.209-0.018-0.211-0.015-0.213-0.013-0.214-0.011-0.217-9e-3 -0.218-6e-3 -0.219-4e-3 -0.221-1e-3 -0.221 1e-3z" fill="#fff"/></g></g></svg>
