<?xml version="1.0" encoding="UTF-8"?>
<!DOCTYPE svg  PUBLIC '-//W3C//DTD SVG 1.1//EN'  'http://www.w3.org/Graphics/SVG/1.1/DTD/svg11.dtd'>
<svg clip-rule="evenodd" fill-rule="evenodd" stroke-linecap="round" stroke-miterlimit="1.5" version="1.1" viewBox="0 0 32 32" xml:space="preserve" xmlns="http://www.w3.org/2000/svg">
<metadata>
<rdf:RDF xmlns:cc="http://web.resource.org/cc/" xmlns:dc="http://purl.org/dc/elements/1.1/" xmlns:rdf="http://www.w3.org/1999/02/22-rdf-syntax-ns#">

     <rdf:Description rdf:about="">
       <dc:title>Mutant Standard emoji 2023.12</dc:title>
     </rdf:Description>

    <cc:work rdf:about="">
        <cc:license rdf:resource="http://creativecommons.org/licenses/by-nc-sa/4.0/"/>
        <cc:attributionName>Caius Nocturne</cc:attributionName>
        <cc:attributionURL>http://mutant.tech/</cc:attributionURL>
    </cc:work>

</rdf:RDF>
</metadata>

    <rect id="ambulance" width="32" height="32" fill="none"/>
    <clipPath id="_clip1">
        <rect width="32" height="32"/>
    </clipPath>
    <g clip-path="url(#_clip1)">
        <g id="outline" stroke="#000" stroke-width="4px">
            <path d="m27.484 14.226c-0.927-1.39-2.488-2.226-4.16-2.226h-2.324c-0.265 0-0.52 0.105-0.707 0.293-0.188 0.187-0.293 0.442-0.293 0.707v14c0 0.552 0.448 1 1 1h8c0.552 0 1-0.448 1-1v-7.486c0-0.987-0.292-1.952-0.84-2.774-0.485-0.728-1.11-1.665-1.676-2.514z" fill="none"/>
            <path d="m20 10c0-0.265-0.105-0.52-0.293-0.707-0.187-0.188-0.442-0.293-0.707-0.293h-16c-0.265 0-0.52 0.105-0.707 0.293-0.188 0.187-0.293 0.442-0.293 0.707v17c0 0.265 0.105 0.52 0.293 0.707 0.187 0.188 0.442 0.293 0.707 0.293h16c0.265 0 0.52-0.105 0.707-0.293 0.188-0.187 0.293-0.442 0.293-0.707v-17z" fill="none"/>
            <circle cx="8" cy="27" r="3" fill="#fff"/>
            <circle cx="25" cy="27" r="3" fill="#fff"/>
            <path d="m25 10c0-0.552-0.448-1-1-1h-2c-0.552 0-1 0.448-1 1s0.448 1 1 1h2c0.552 0 1-0.448 1-1v0z" fill="none" stroke-linecap="square" stroke-linejoin="round" stroke-miterlimit="3"/>
        </g>
        <g id="emoji">
            <path d="m27.484 14.226c-0.927-1.39-2.488-2.226-4.16-2.226h-2.324c-0.265 0-0.52 0.105-0.707 0.293-0.188 0.187-0.293 0.442-0.293 0.707v14c0 0.552 0.448 1 1 1h8c0.552 0 1-0.448 1-1v-7.486c0-0.987-0.292-1.952-0.84-2.774-0.485-0.728-1.11-1.665-1.676-2.514z" fill="#f1f902"/>
            <clipPath id="_clip2">
                <path d="m27.484 14.226c-0.927-1.39-2.488-2.226-4.16-2.226h-2.324c-0.265 0-0.52 0.105-0.707 0.293-0.188 0.187-0.293 0.442-0.293 0.707v14c0 0.552 0.448 1 1 1h8c0.552 0 1-0.448 1-1v-7.486c0-0.987-0.292-1.952-0.84-2.774-0.485-0.728-1.11-1.665-1.676-2.514z"/>
            </clipPath>
            <g clip-path="url(#_clip2)">
                <rect x="1" y="10" width="30" height="3" fill="#fef681"/>
            </g>
            <path d="m26.693 14.828c-0.752-1.141-2.028-1.828-3.395-1.828h-0.298c-0.265 0-0.52 0.105-0.707 0.293-0.188 0.187-0.293 0.442-0.293 0.707v3c0 1.105 0.895 2 2 2h3.786c0.487 0 0.882-0.394 0.882-0.881v-0.03c0-0.173-0.051-0.342-0.146-0.486-0.323-0.491-1.129-1.713-1.829-2.775z"/>
            <path d="m20 10c0-0.265-0.105-0.52-0.293-0.707-0.187-0.188-0.442-0.293-0.707-0.293h-16c-0.265 0-0.52 0.105-0.707 0.293-0.188 0.187-0.293 0.442-0.293 0.707v17c0 0.265 0.105 0.52 0.293 0.707 0.187 0.188 0.442 0.293 0.707 0.293h16.001c0.552 0 0.999-0.447 0.999-0.999v-1e-3l1-1v-12l-1-1v-3z" fill="#f1f902"/>
            <clipPath id="_clip3">
                <path d="m20 10c0-0.265-0.105-0.52-0.293-0.707-0.187-0.188-0.442-0.293-0.707-0.293h-16c-0.265 0-0.52 0.105-0.707 0.293-0.188 0.187-0.293 0.442-0.293 0.707v17c0 0.265 0.105 0.52 0.293 0.707 0.187 0.188 0.442 0.293 0.707 0.293h16.001c0.552 0 0.999-0.447 0.999-0.999v-1e-3l1-1v-12l-1-1v-3z"/>
            </clipPath>
            <g clip-path="url(#_clip3)">
                <rect x="1" y="8" width="30" height="3" fill="#fef681"/>
            </g>
            <rect x="2" y="21" width="28" height="6" fill="#fdfeb3"/>
            <g fill="#128747">
                <rect x="2" y="21" width="4" height="3"/>
                <rect x="6" y="24" width="4" height="3"/>
                <rect x="10" y="21" width="4" height="3"/>
                <rect x="14" y="24" width="4" height="3"/>
                <rect x="18" y="21" width="4" height="3"/>
                <rect x="18" y="21" width="4" height="3"/>
                <rect x="22" y="24" width="4" height="3"/>
                <rect x="26" y="21" width="4" height="3"/>
            </g>
            <path d="m25 10c0-0.552-0.448-1-1-1h-2c-0.552 0-1 0.448-1 1s0.448 1 1 1h2c0.552 0 1-0.448 1-1z" fill="#2256f2"/>
            <path d="m30 23h-1e-3c-0.552 0-0.999 0.447-0.999 0.999v1.001c0 0.552 0.448 1 1 1v-3z" fill="#2c2c2c"/>
            <path d="m12 26.812c0-1.011-0.402-1.981-1.117-2.695-0.715-0.715-1.684-1.117-2.695-1.117h-0.376c-1.011 0-1.98 0.402-2.695 1.117-0.715 0.714-1.117 1.684-1.117 2.695v1.188h8v-1.188z" fill="#333"/>
            <path d="m29 26.812c0-1.011-0.402-1.981-1.117-2.695-0.715-0.715-1.684-1.117-2.695-1.117h-0.376c-1.011 0-1.98 0.402-2.695 1.117-0.715 0.714-1.117 1.684-1.117 2.695v1.188h8v-1.188z" fill="#333"/>
            <path d="m14 13c0-0.552-0.448-1-1-1h-8c-0.552 0-1 0.448-1 1v5c0 0.552 0.448 1 1 1h8c0.552 0 1-0.448 1-1v-5z"/>
            <circle cx="8" cy="27" r="3" fill="#5a5a5a"/>
            <circle cx="25" cy="27" r="3" fill="#5a5a5a"/>
            <circle cx="25" cy="27" r="1.5" fill="#bfbfbf"/>
            <circle cx="8" cy="27" r="1.5" fill="#bfbfbf"/>
            <circle cx="17" cy="16" r="2" fill="#0e43e3"/>
        </g>
    </g>
</svg>
