<?xml version="1.0" encoding="UTF-8"?>
<!DOCTYPE svg  PUBLIC '-//W3C//DTD SVG 1.1//EN'  'http://www.w3.org/Graphics/SVG/1.1/DTD/svg11.dtd'>
<svg clip-rule="evenodd" fill-rule="evenodd" stroke-linecap="round" stroke-miterlimit="1.5" version="1.1" viewBox="0 0 32 32" xml:space="preserve" xmlns="http://www.w3.org/2000/svg">
<metadata>
<rdf:RDF xmlns:cc="http://web.resource.org/cc/" xmlns:dc="http://purl.org/dc/elements/1.1/" xmlns:rdf="http://www.w3.org/1999/02/22-rdf-syntax-ns#">

     <rdf:Description rdf:about="">
       <dc:title>Mutant Standard emoji 2023.12</dc:title>
     </rdf:Description>

    <cc:work rdf:about="">
        <cc:license rdf:resource="http://creativecommons.org/licenses/by-nc-sa/4.0/"/>
        <cc:attributionName>Caius Nocturne</cc:attributionName>
        <cc:attributionURL>http://mutant.tech/</cc:attributionURL>
    </cc:work>

</rdf:RDF>
</metadata>

    <rect id="articulated_truck" width="32" height="32" fill="none"/>
    <clipPath id="_clip1">
        <rect width="32" height="32"/>
    </clipPath>
    <g clip-path="url(#_clip1)">
        <g id="outline" stroke="#000" stroke-width="4px">
            <path d="m27 11.5c-1.298-0.974-2.877-1.5-4.5-1.5h-2.5c-0.265 0-0.52 0.105-0.707 0.293-0.188 0.187-0.293 0.442-0.293 0.707v11c0 0.552 0.448 1 1 1h3v4h6c0.265 0 0.52-0.105 0.707-0.293 0.188-0.187 0.293-0.442 0.293-0.707v-3.672c0-0.653-0.214-1.289-0.608-1.811-0.209-0.276-0.392-0.517-0.392-0.517v-4.5c0-1.574-0.741-3.056-2-4z" fill="none"/>
            <path d="m19 9c0-0.552-0.448-1-1-1h-15c-0.552 0-1 0.448-1 1v14c0 0.552 0.448 1 1 1h15c0.552 0 1-0.448 1-1v-3-11z" fill="none"/>
            <circle cx="5" cy="27" r="3" fill="#fff"/>
            <circle cx="12" cy="27" r="3" fill="#fff"/>
            <circle cx="23" cy="27" r="3" fill="#fff"/>
        </g>
        <g id="emoji">
            <path d="m19 9c0-0.552-0.448-1-1-1h-15c-0.552 0-1 0.448-1 1v1l1 2v9l-1 2v1e-3c0 0.552 0.447 0.999 0.999 0.999h15.002c0.552 0 0.999-0.447 0.999-0.999v-1e-3l-1-2v-9.409l1-1.591v-1z" fill="#999"/>
            <rect x="2" y="10" width="17" height="13" fill="#66df36"/>
            <path d="m29.397 23 0.603 3c0 0.265-0.105 0.52-0.293 0.707-0.187 0.188-0.442 0.293-0.707 0.293h-2c0-1.195-0.524-2.267-1.354-3l1.354-1h2.397zm-10.397-1v-10l1.193-0.319 5.279-0.119 2.099 0.438c0.909 0.927 1.429 2.181 1.429 3.5v4.5s0.183 0.241 0.392 0.517c0.328 0.434 0.531 0.947 0.59 1.483l-0.982 0.6-9-0.3-1-0.3z" fill="#4dc7e0"/>
            <path d="m19 12v-1c0-0.265 0.105-0.52 0.293-0.707 0.187-0.188 0.442-0.293 0.707-0.293h2.5c1.623 0 3.202 0.526 4.5 1.5 0.204 0.153 0.395 0.32 0.571 0.5h-8.571z" fill="#83d8e9"/>
            <path d="m29.982 22c0.012 0.109 0.018 0.218 0.018 0.328v0.672l-0.475 1h-3.879c-0.705-0.622-1.632-1-2.646-1h-3c-0.552 0-1-0.448-1-1h10.982z" fill="#fff"/>
            <path d="m30 23h-1e-3c-0.552 0-0.999 0.447-0.999 0.999v1.001c0 0.552 0.448 1 1 1v-3z" fill="#2c2c2c"/>
            <path d="m30 14h-2c-0.552 0-1 0.448-1 1v4c0 0.552 0.448 1 1 1h2v-6z"/>
            <path d="m26 15c0-0.265-0.105-0.52-0.293-0.707-0.187-0.188-0.442-0.293-0.707-0.293h-3c-0.552 0-1 0.448-1 1v1.434c0 0.351 0.184 0.677 0.486 0.857 0.687 0.413 1.975 1.185 3 1.8 0.308 0.186 0.693 0.191 1.007 0.013 0.313-0.178 0.507-0.51 0.507-0.87v-3.234z"/>
            
                <circle cx="5" cy="27" r="3" fill="#5a5a5a"/>
                <circle cx="12" cy="27" r="3" fill="#5a5a5a"/>
                <circle cx="23" cy="27" r="3" fill="#5a5a5a"/>
                <circle cx="23" cy="27" r="1.5" fill="#bfbfbf"/>
                <circle cx="5" cy="27" r="1.5" fill="#bfbfbf"/>
                <circle cx="12" cy="27" r="1.5" fill="#bfbfbf"/>
            
            <path d="m10.5 16.5-4-4-1e-3 1e-3c-1.06 1.06-1.656 2.499-1.656 3.999s0.596 2.939 1.656 3.999l1e-3 1e-3 4-4 4 4 1e-3 -1e-3c1.06-1.06 1.656-2.499 1.656-3.999s-0.596-2.939-1.656-3.999l-1e-3 -1e-3 -4 4z" fill="#fff"/>
        </g>
    </g>
</svg>
