<?xml version="1.0" encoding="UTF-8"?>
<!DOCTYPE svg  PUBLIC '-//W3C//DTD SVG 1.1//EN'  'http://www.w3.org/Graphics/SVG/1.1/DTD/svg11.dtd'>
<svg clip-rule="evenodd" fill-rule="evenodd" stroke-linecap="round" stroke-linejoin="round" stroke-miterlimit="1.5" version="1.1" viewBox="0 0 32 32" xml:space="preserve" xmlns="http://www.w3.org/2000/svg">
<metadata>
<rdf:RDF xmlns:cc="http://web.resource.org/cc/" xmlns:dc="http://purl.org/dc/elements/1.1/" xmlns:rdf="http://www.w3.org/1999/02/22-rdf-syntax-ns#">

     <rdf:Description rdf:about="">
       <dc:title>Mutant Standard emoji 2023.12</dc:title>
     </rdf:Description>

    <cc:work rdf:about="">
        <cc:license rdf:resource="http://creativecommons.org/licenses/by-nc-sa/4.0/"/>
        <cc:attributionName>Caius Nocturne</cc:attributionName>
        <cc:attributionURL>http://mutant.tech/</cc:attributionURL>
    </cc:work>

</rdf:RDF>
</metadata>

    <rect id="bus_stop" width="32" height="32" fill="none"/>
    <g id="outline" stroke="#000" stroke-width="4px">
        <ellipse cx="16" cy="28.5" rx="5" ry="1.5" fill="none"/>
        <circle cx="16" cy="4" r="2" fill="none"/>
        <rect x="15" y="5" width="2" height="23" fill="none"/>
        <rect x="6" y="6" width="8" height="8" fill="none"/>
        <rect x="17" y="14" width="2" height="8" fill="#e82731"/>
    </g>
    <g id="emoji">
        <ellipse cx="16" cy="28.5" rx="5" ry="1.5" fill="#5a5a5a"/>
        <ellipse cx="16" cy="28.5" rx="1" ry=".3" fill="#808080"/>
        <rect x="15" y="5.5" width="2" height="23" fill="#a6a6a6"/>
        <rect x="6" y="6" width="8" height="8" fill="#ccc"/>
        <rect x="6" y="6" width="8" height="4" fill="#fff"/>
        <path d="m11 7.388c0-0.214-0.174-0.388-0.388-0.388h-1.224c-0.214 0-0.388 0.174-0.388 0.388v1.224c0 0.214 0.174 0.388 0.388 0.388h1.224c0.214 0 0.388-0.174 0.388-0.388v-1.224z" fill="#e82731"/>
        <circle cx="16" cy="4" r="2" fill="#e82731"/>
        <rect x="17" y="14" width="2" height="8" fill="#7f7f7f"/>
    </g>
</svg>
