<?xml version="1.0" encoding="UTF-8"?>
<svg clip-rule="evenodd" fill-rule="evenodd" stroke-linecap="round" stroke-miterlimit="1.5" viewBox="0 0 32 32" xmlns="http://www.w3.org/2000/svg">
 <clipPath id="a">
  <path d="m0 0h32v32h-32z" clip-rule="evenodd"/>
 </clipPath>
 <clipPath id="b">
  <path d="m24.703 13.542c-1.024-2.732-3.636-4.542-6.554-4.542h-8.135c-2.994 0-5.653 1.916-6.599 4.756l-1e-3 1e-3c-0.936 2.81-1.414 5.753-1.414 8.715v2.528c0 0.53 0.211 1.039 0.586 1.414s0.884 0.586 1.414 0.586h24c0.53 0 1.039-0.211 1.414-0.586s0.586-0.884 0.586-1.414v-4.658c0-1.376-0.937-2.576-2.272-2.91-0.902-0.225-1.728-0.432-1.728-0.432s-0.62-1.654-1.297-3.458z" clip-rule="evenodd"/>
 </clipPath>
 <clipPath id="c">
  <path d="m23.7 14.33c-.707-1.996-2.595-3.33-4.713-3.33h-10.121c-1.178 0-2.291.54-3.02 1.466 0 0-.001.001-.001.001-.794 1.008-1.342 2.187-1.603 3.444-.026.124-.051.244-.074.356-.085.41.168.813.574.915.674.169 1.678.421 2.393.601.574.144 1.165.217 1.757.217h15.094c.233 0 .451-.113.585-.303.135-.19.168-.433.091-.652-.252-.709-.61-1.721-.962-2.715z" clip-rule="evenodd"/>
 </clipPath>
 <path d="m0 0h32v32h-32z" fill="none"/>
 <g clip-path="url(#a)">
  <g fill="none" stroke="#000" stroke-width="4">
   <path d="m24.703 13.542c-1.024-2.732-3.636-4.542-6.554-4.542h-8.135c-2.994 0-5.653 1.916-6.599 4.756l-1e-3 1e-3c-0.936 2.81-1.414 5.753-1.414 8.715v2.528c0 0.53 0.211 1.039 0.586 1.414s0.884 0.586 1.414 0.586h24c0.53 0 1.039-0.211 1.414-0.586s0.586-0.884 0.586-1.414v-4.658c0-1.376-0.937-2.576-2.272-2.91-0.902-0.225-1.728-0.432-1.728-0.432s-0.62-1.654-1.297-3.458z"/>
   <circle cx="7.5" cy="26.5" r="3.5"/>
   <circle cx="23.5" cy="26.5" r="3.5"/>
  </g>
  <path d="m24.703 13.542c-1.024-2.732-3.636-4.542-6.554-4.542h-8.135c-2.994 0-5.653 1.916-6.599 4.756l-1e-3 1e-3c-0.936 2.81-1.414 5.753-1.414 8.715v2.528c0 0.53 0.211 1.039 0.586 1.414s0.884 0.586 1.414 0.586h24c0.53 0 1.039-0.211 1.414-0.586s0.586-0.884 0.586-1.414v-4.658c0-1.376-0.937-2.576-2.272-2.91-0.902-0.225-1.728-0.432-1.728-0.432s-0.62-1.654-1.297-3.458z" fill="#e82731"/>
  <g clip-path="url(#b)">
   <path d="m19 19.499c0-.276-.223-.499-.499-.499-.555 0-1.447 0-2.002 0-.276 0-.499.223-.499.499v.001c0 .133.053.26.146.354.094.093.221.146.354.146h2c.133 0 .26-.053.354-.146.093-.094.146-.221.146-.354z" fill="#dbdbdb"/>
   <path d="m1 7h30v4h-30z" fill="#ef6c73"/>
   <path d="m31 19h-1.5c-.398 0-.779.158-1.061.439-.281.282-.439.663-.439 1.061 0 .828.672 1.5 1.5 1.5h1.5z" fill="#343434"/>
   <path d="m1 19h1c0.552 0 1 0.448 1 1v2c0 0.552-0.448 1-1 1h-1z" fill="#343434"/>
   <path d="m27 24c0-.265-.105-.52-.293-.707-.187-.188-.442-.293-.707-.293-4.772 0-25 0-25 0v2h25c.265 0 .52-.105.707-.293.188-.187.293-.442.293-.707z" fill="#242424"/>
   <g fill="#333">
    <path d="m28 26.5c0-2.485-2.015-4.5-4.5-4.5s-4.5 2.015-4.5 4.5v0.5h9z"/>
    <path d="m12 26.5c0-2.485-2.015-4.5-4.5-4.5s-4.5 2.015-4.5 4.5v0.5h9z"/>
   </g>
  </g>
  <path d="m19 19.499c0-.276-.223-.499-.499-.499-.555 0-1.447 0-2.002 0-.276 0-.499.223-.499.499v.001c0 .133.053.26.146.354.094.093.221.146.354.146h2c.133 0 .26-.053.354-.146.093-.094.146-.221.146-.354z" fill="#f3f3f3"/>
  <path d="m23.7 14.33c-.707-1.996-2.595-3.33-4.713-3.33h-10.121c-1.178 0-2.291.54-3.02 1.466 0 0-.001.001-.001.001-.794 1.008-1.342 2.187-1.603 3.444-.026.124-.051.244-.074.356-.085.41.168.813.574.915.674.169 1.678.421 2.393.601.574.144 1.165.217 1.757.217h15.094c.233 0 .451-.113.585-.303.135-.19.168-.433.091-.652-.252-.709-.61-1.721-.962-2.715z"/>
  <g clip-path="url(#c)" fill="none" stroke="#1a1a1a" stroke-linejoin="round" stroke-width="2">
   <path d="m11 10s-.319 1.276-.597 2.387c-.268 1.071-.403 2.171-.403 3.276v3.337"/>
   <path d="m18 11v8"/>
  </g>
  <circle cx="7.5" cy="26.5" r="3.5" fill="#5a5a5a"/>
  <circle cx="23.5" cy="26.5" r="3.5" fill="#5a5a5a"/>
  <circle cx="23.5" cy="26.5" r="2.5" fill="#bfbfbf"/>
  <circle cx="7.5" cy="26.5" r="2.5" fill="#bfbfbf"/>
  <path d="m22 18c0-0.552-0.448-1-1-1h-1c-0.552 0-1 0.448-1 1s0.448 1 1 1h1c0.552 0 1-0.448 1-1z" fill="#707070"/>
 </g>
</svg>
