<?xml version="1.0" encoding="UTF-8"?>
<!DOCTYPE svg  PUBLIC '-//W3C//DTD SVG 1.1//EN'  'http://www.w3.org/Graphics/SVG/1.1/DTD/svg11.dtd'>
<svg clip-rule="evenodd" fill-rule="evenodd" stroke-linecap="round" stroke-miterlimit="1.5" version="1.1" viewBox="0 0 32 32" xml:space="preserve" xmlns="http://www.w3.org/2000/svg">
<metadata>
<rdf:RDF xmlns:cc="http://web.resource.org/cc/" xmlns:dc="http://purl.org/dc/elements/1.1/" xmlns:rdf="http://www.w3.org/1999/02/22-rdf-syntax-ns#">

     <rdf:Description rdf:about="">
       <dc:title>Mutant Standard emoji 2023.12</dc:title>
     </rdf:Description>

    <cc:work rdf:about="">
        <cc:license rdf:resource="http://creativecommons.org/licenses/by-nc-sa/4.0/"/>
        <cc:attributionName>Caius Nocturne</cc:attributionName>
        <cc:attributionURL>http://mutant.tech/</cc:attributionURL>
    </cc:work>

</rdf:RDF>
</metadata>

    <rect id="car" width="32" height="32" fill="none"/>
    <clipPath id="_clip1">
        <rect width="32" height="32"/>
    </clipPath>
    <g clip-path="url(#_clip1)">
        <g id="outline" fill="none" stroke="#000" stroke-width="4px">
            <path d="m24.703 13.542c-1.024-2.732-3.636-4.542-6.554-4.542h-8.135c-2.994 0-5.653 1.916-6.599 4.756l-1e-3 1e-3c-0.936 2.81-1.414 5.753-1.414 8.715v2.528c0 0.53 0.211 1.039 0.586 1.414s0.884 0.586 1.414 0.586h24c0.53 0 1.039-0.211 1.414-0.586s0.586-0.884 0.586-1.414v-4.658c0-1.376-0.937-2.576-2.272-2.91-0.902-0.225-1.728-0.432-1.728-0.432s-0.62-1.654-1.297-3.458z"/>
            <circle cx="7.5" cy="26.5" r="3.5"/>
            <circle cx="23.5" cy="26.5" r="3.5"/>
        </g>
        <g id="emoji">
            <path d="m24.703 13.542c-1.024-2.732-3.636-4.542-6.554-4.542h-8.135c-2.994 0-5.653 1.916-6.599 4.756l-1e-3 1e-3c-0.936 2.81-1.414 5.753-1.414 8.715v2.528c0 0.53 0.211 1.039 0.586 1.414s0.884 0.586 1.414 0.586h24c0.53 0 1.039-0.211 1.414-0.586s0.586-0.884 0.586-1.414v-4.658c0-1.376-0.937-2.576-2.272-2.91-0.902-0.225-1.728-0.432-1.728-0.432s-0.62-1.654-1.297-3.458z" fill="#e82731"/>
            <clipPath id="_clip2">
                <path d="m24.703 13.542c-1.024-2.732-3.636-4.542-6.554-4.542h-8.135c-2.994 0-5.653 1.916-6.599 4.756l-1e-3 1e-3c-0.936 2.81-1.414 5.753-1.414 8.715v2.528c0 0.53 0.211 1.039 0.586 1.414s0.884 0.586 1.414 0.586h24c0.53 0 1.039-0.211 1.414-0.586s0.586-0.884 0.586-1.414v-4.658c0-1.376-0.937-2.576-2.272-2.91-0.902-0.225-1.728-0.432-1.728-0.432s-0.62-1.654-1.297-3.458z"/>
            </clipPath>
            <g clip-path="url(#_clip2)">
                <path d="m19 19.499c0-0.276-0.223-0.499-0.499-0.499h-2.002c-0.276 0-0.499 0.223-0.499 0.499v1e-3c0 0.133 0.053 0.26 0.146 0.354 0.094 0.093 0.221 0.146 0.354 0.146h2c0.133 0 0.26-0.053 0.354-0.146 0.093-0.094 0.146-0.221 0.146-0.354v-1e-3z" fill="#dbdbdb"/>
                <rect x="1" y="7" width="30" height="4" fill="#ef6c73"/>
                <path d="m31 19h-1.5c-0.398 0-0.779 0.158-1.061 0.439-0.281 0.282-0.439 0.663-0.439 1.061 0 0.828 0.672 1.5 1.5 1.5h1.5v-3z" fill="#343434"/>
                <path d="m1 19h1c0.552 0 1 0.448 1 1v2c0 0.552-0.448 1-1 1h-1v-4z" fill="#343434"/>
                <path d="m27 24c0-0.265-0.105-0.52-0.293-0.707-0.187-0.188-0.442-0.293-0.707-0.293h-25v2h25c0.265 0 0.52-0.105 0.707-0.293 0.188-0.187 0.293-0.442 0.293-0.707z" fill="#242424"/>
                <path d="m28 26.5c0-2.485-2.015-4.5-4.5-4.5s-4.5 2.015-4.5 4.5v0.5h9v-0.5z" fill="#333"/>
                <path d="m12 26.5c0-2.485-2.015-4.5-4.5-4.5s-4.5 2.015-4.5 4.5v0.5h9v-0.5z" fill="#333"/>
            </g>
            <path d="m19 19.499c0-0.276-0.223-0.499-0.499-0.499h-2.002c-0.276 0-0.499 0.223-0.499 0.499v1e-3c0 0.133 0.053 0.26 0.146 0.354 0.094 0.093 0.221 0.146 0.354 0.146h2c0.133 0 0.26-0.053 0.354-0.146 0.093-0.094 0.146-0.221 0.146-0.354v-1e-3z" fill="#f3f3f3"/>
            <path d="m23.7 14.33c-0.707-1.996-2.595-3.33-4.713-3.33h-10.121c-1.178 0-2.291 0.54-3.02 1.466l-1e-3 1e-3c-0.794 1.008-1.342 2.187-1.603 3.444-0.026 0.124-0.051 0.244-0.074 0.356-0.085 0.41 0.168 0.813 0.574 0.915 0.674 0.169 1.678 0.421 2.393 0.601 0.574 0.144 1.165 0.217 1.757 0.217h15.094c0.233 0 0.451-0.113 0.585-0.303 0.135-0.19 0.168-0.433 0.091-0.652-0.252-0.709-0.61-1.721-0.962-2.715z"/>
            <clipPath id="_clip3">
                <path d="m23.7 14.33c-0.707-1.996-2.595-3.33-4.713-3.33h-10.121c-1.178 0-2.291 0.54-3.02 1.466l-1e-3 1e-3c-0.794 1.008-1.342 2.187-1.603 3.444-0.026 0.124-0.051 0.244-0.074 0.356-0.085 0.41 0.168 0.813 0.574 0.915 0.674 0.169 1.678 0.421 2.393 0.601 0.574 0.144 1.165 0.217 1.757 0.217h15.094c0.233 0 0.451-0.113 0.585-0.303 0.135-0.19 0.168-0.433 0.091-0.652-0.252-0.709-0.61-1.721-0.962-2.715z"/>
            </clipPath>
            <g clip-path="url(#_clip3)" fill="none" stroke="#1a1a1a" stroke-linejoin="round" stroke-width="2px">
                <path d="m11 10s-0.319 1.276-0.597 2.387c-0.268 1.071-0.403 2.171-0.403 3.276v3.337"/>
                <path d="m18 11v8"/>
            </g>
            <circle cx="7.5" cy="26.5" r="3.5" fill="#5a5a5a"/>
            <circle cx="23.5" cy="26.5" r="3.5" fill="#5a5a5a"/>
            <circle cx="23.5" cy="26.5" r="2.5" fill="#bfbfbf"/>
            <circle cx="7.5" cy="26.5" r="2.5" fill="#bfbfbf"/>
            <path d="m22 18c0-0.552-0.448-1-1-1h-1c-0.552 0-1 0.448-1 1s0.448 1 1 1h1c0.552 0 1-0.448 1-1z" fill="#707070"/>
        </g>
    </g>
</svg>
