<?xml version="1.0" encoding="UTF-8"?>
<svg clip-rule="evenodd" fill-rule="evenodd" stroke-linecap="round" stroke-miterlimit="1.5" viewBox="0 0 32 32" xmlns="http://www.w3.org/2000/svg">
 <clipPath id="a">
  <path d="m0 0h32v32h-32z" clip-rule="evenodd"/>
 </clipPath>
 <path d="m0 0h32v32h-32z" fill="none"/>
 <g clip-path="url(#a)">
  <g stroke="#000" stroke-width="4">
   <path d="m28.456 12.368c-0.272-0.817-1.037-1.368-1.898-1.368h-6.558c-0.265 0-0.52 0.105-0.707 0.293-0.188 0.187-0.293 0.442-0.293 0.707v10c0 0.552 0.448 1 1 1h3v4h6c0.552 0 1-0.448 1-1v-8.675c0-0.215-0.035-0.429-0.103-0.633-0.262-0.786-0.968-2.906-1.441-4.324z" fill="none"/>
   <path d="m19 10c0-0.552-0.448-1-1-1h-15c-0.552 0-1 0.448-1 1v13c0 0.552 0.448 1 1 1h15c0.552 0 1-0.448 1-1v-3z" fill="none"/>
   <circle cx="6" cy="27" r="3" fill="#fff"/>
   <circle cx="23" cy="27" r="3" fill="#fff"/>
  </g>
  <path d="m19 10c0-0.552-0.448-1-1-1h-15c-0.552 0-1 0.448-1 1v1l1 2v8.694l-1 1.306c0 0.552 0.448 1 1 1h15c0.552 0 1-0.448 1-1l-1-3v-7l1-2z" fill="#999"/>
  <path d="m2 11h17v12h-17z" fill="#facb30"/>
  <path d="m29.528 24 .472 2c0 .552-.448 1-1 1h-2c0-1.195-.524-2.267-1.354-3l1.354-.482h2zm-10.528-2v-9l1.404-1h6.596l1.667 1 1.23 3.692c.068.204.103.418.103.633v4.675l-1 .402h-8.674z" fill="#736fcc"/>
  <path d="m19 13v-1c0-.265.105-.52.293-.707.187-.188.442-.293.707-.293h6.558c.861 0 1.626.551 1.898 1.368l.211.632z" fill="#827fc9"/>
  <path d="m19 22h11v1l-0.436 1h-3.918c-0.705-0.622-1.632-1-2.646-1h-3c-0.265 0-0.52-0.105-0.707-0.293-0.188-0.187-0.293-0.442-0.293-0.707z" fill="#fff"/>
  <path d="m30 23h-.001c-.552 0-.999.447-.999.999v1.001c0 .552.448 1 1 1z" fill="#2c2c2c"/>
  <path d="m31 15h-1c-.265 0-.52.105-.707.293-.188.187-.293.442-.293.707v4c0 .265.105.52.293.707.187.188.442.293.707.293h1z"/>
  <path d="m28 16c0-.265-.105-.52-.293-.707-.187-.188-.442-.293-.707-.293-.871 0-2.129 0-3 0-.552 0-1 .448-1 1v1.434c0 .351.184.677.486.857.687.413 1.975 1.185 3 1.8.308.186.693.191 1.007.013.313-.178.507-.51.507-.87 0-1.054 0-2.355 0-3.234z"/>
  <circle cx="6" cy="27" r="3" fill="#5a5a5a"/>
  <circle cx="23" cy="27" r="3" fill="#5a5a5a"/>
  <circle cx="23" cy="27" r="1.5" fill="#bfbfbf"/>
  <circle cx="6" cy="27" r="1.5" fill="#bfbfbf"/>
  <path d="m10.5 17-4-4s0 0-1e-3 1e-3c-1.06 1.06-1.656 2.499-1.656 3.999s0.596 2.939 1.656 3.999l1e-3 1e-3 4-4 4 4s0 0 1e-3 -1e-3c1.06-1.06 1.656-2.499 1.656-3.999s-0.596-2.939-1.656-3.999l-1e-3 -1e-3z" fill="#fff"/>
 </g>
</svg>
