<?xml version="1.0" encoding="UTF-8"?>
<!DOCTYPE svg  PUBLIC '-//W3C//DTD SVG 1.1//EN'  'http://www.w3.org/Graphics/SVG/1.1/DTD/svg11.dtd'>
<svg clip-rule="evenodd" fill-rule="evenodd" stroke-linecap="round" stroke-miterlimit="1.5" version="1.1" viewBox="0 0 32 32" xml:space="preserve" xmlns="http://www.w3.org/2000/svg">
<metadata>
<rdf:RDF xmlns:cc="http://web.resource.org/cc/" xmlns:dc="http://purl.org/dc/elements/1.1/" xmlns:rdf="http://www.w3.org/1999/02/22-rdf-syntax-ns#">

     <rdf:Description rdf:about="">
       <dc:title>Mutant Standard emoji 2023.12</dc:title>
     </rdf:Description>

    <cc:work rdf:about="">
        <cc:license rdf:resource="http://creativecommons.org/licenses/by-nc-sa/4.0/"/>
        <cc:attributionName>Caius Nocturne</cc:attributionName>
        <cc:attributionURL>http://mutant.tech/</cc:attributionURL>
    </cc:work>

</rdf:RDF>
</metadata>

    <rect id="delivery_truck" width="32" height="32" fill="none"/>
    <clipPath id="_clip1">
        <rect width="32" height="32"/>
    </clipPath>
    <g clip-path="url(#_clip1)">
        <g id="outline" stroke="#000" stroke-width="4px">
            <path d="m28.456 12.368c-0.272-0.817-1.037-1.368-1.898-1.368h-6.558c-0.265 0-0.52 0.105-0.707 0.293-0.188 0.187-0.293 0.442-0.293 0.707v10c0 0.552 0.448 1 1 1h3v4h6c0.552 0 1-0.448 1-1v-8.675c0-0.215-0.035-0.429-0.103-0.633-0.262-0.786-0.968-2.906-1.441-4.324z" fill="none"/>
            <path d="m19 10c0-0.552-0.448-1-1-1h-15c-0.552 0-1 0.448-1 1v13c0 0.552 0.448 1 1 1h15c0.552 0 1-0.448 1-1v-3-10z" fill="none"/>
            <circle cx="6" cy="27" r="3" fill="#fff"/>
            <circle cx="23" cy="27" r="3" fill="#fff"/>
        </g>
        <g id="emoji">
            <path d="m19 10c0-0.552-0.448-1-1-1h-15c-0.552 0-1 0.448-1 1v1l1 2v8.694l-1 1.306c0 0.552 0.448 1 1 1h15c0.552 0 1-0.448 1-1l-1-3v-7l1-2v-1z" fill="#999"/>
            <rect x="2" y="11" width="17" height="12" fill="#facb30"/>
            <path d="m29.528 24 0.472 2c0 0.552-0.448 1-1 1h-2c0-1.195-0.524-2.267-1.354-3l1.354-0.482h2l0.528 0.482zm-10.528-2v-9l1.404-1h6.596l1.667 1 1.23 3.692c0.068 0.204 0.103 0.418 0.103 0.633v4.675l-1 0.402h-8.674l-1.326-0.402z" fill="#736fcc"/>
            <path d="m19 13v-1c0-0.265 0.105-0.52 0.293-0.707 0.187-0.188 0.442-0.293 0.707-0.293h6.558c0.861 0 1.626 0.551 1.898 1.368l0.211 0.632h-9.667z" fill="#827fc9"/>
            <path d="m19 22h11v1l-0.436 1h-3.918c-0.705-0.622-1.632-1-2.646-1h-3c-0.265 0-0.52-0.105-0.707-0.293-0.188-0.187-0.293-0.442-0.293-0.707z" fill="#fff"/>
            <path d="m30 23h-1e-3c-0.552 0-0.999 0.447-0.999 0.999v1.001c0 0.552 0.448 1 1 1v-3z" fill="#2c2c2c"/>
            <path d="m31 15h-1c-0.265 0-0.52 0.105-0.707 0.293-0.188 0.187-0.293 0.442-0.293 0.707v4c0 0.265 0.105 0.52 0.293 0.707 0.187 0.188 0.442 0.293 0.707 0.293h1v-6z"/>
            <path d="m28 16c0-0.265-0.105-0.52-0.293-0.707-0.187-0.188-0.442-0.293-0.707-0.293h-3c-0.552 0-1 0.448-1 1v1.434c0 0.351 0.184 0.677 0.486 0.857 0.687 0.413 1.975 1.185 3 1.8 0.308 0.186 0.693 0.191 1.007 0.013 0.313-0.178 0.507-0.51 0.507-0.87v-3.234z"/>
            <circle cx="6" cy="27" r="3" fill="#5a5a5a"/>
            <circle cx="23" cy="27" r="3" fill="#5a5a5a"/>
            <circle cx="23" cy="27" r="1.5" fill="#bfbfbf"/>
            <circle cx="6" cy="27" r="1.5" fill="#bfbfbf"/>
            <path d="m10.5 17-4-4-1e-3 1e-3c-1.06 1.06-1.656 2.499-1.656 3.999s0.596 2.939 1.656 3.999l1e-3 1e-3 4-4 4 4 1e-3 -1e-3c1.06-1.06 1.656-2.499 1.656-3.999s-0.596-2.939-1.656-3.999l-1e-3 -1e-3 -4 4z" fill="#fff"/>
        </g>
    </g>
</svg>
