<?xml version="1.0" encoding="UTF-8"?>
<!DOCTYPE svg  PUBLIC '-//W3C//DTD SVG 1.1//EN'  'http://www.w3.org/Graphics/SVG/1.1/DTD/svg11.dtd'>
<svg clip-rule="evenodd" fill-rule="evenodd" stroke-linecap="round" stroke-miterlimit="1.5" version="1.1" viewBox="0 0 32 32" xml:space="preserve" xmlns="http://www.w3.org/2000/svg">
<metadata>
<rdf:RDF xmlns:cc="http://web.resource.org/cc/" xmlns:dc="http://purl.org/dc/elements/1.1/" xmlns:rdf="http://www.w3.org/1999/02/22-rdf-syntax-ns#">

     <rdf:Description rdf:about="">
       <dc:title>Mutant Standard emoji 2023.12</dc:title>
     </rdf:Description>

    <cc:work rdf:about="">
        <cc:license rdf:resource="http://creativecommons.org/licenses/by-nc-sa/4.0/"/>
        <cc:attributionName>Caius Nocturne</cc:attributionName>
        <cc:attributionURL>http://mutant.tech/</cc:attributionURL>
    </cc:work>

</rdf:RDF>
</metadata>

    <rect id="fire_engine" width="32" height="32" fill="none"/>
    <clipPath id="_clip1">
        <rect width="32" height="32"/>
    </clipPath>
    <g clip-path="url(#_clip1)">
        <g id="outline" fill="none" stroke="#000" stroke-width="4px">
            <path d="m14 12v-1c0-0.552 0.448-1 1-1h12.172c0.53 0 1.039 0.211 1.414 0.586l0.828 0.828c0.375 0.375 0.586 0.884 0.586 1.414v14.172c0 0.552-0.448 1-1 1h-2.171c-0.412 1.165-1.524 2-2.829 2s-2.417-0.835-2.829-2h-6.171-4.171c-0.412 1.165-1.524 2-2.829 2s-2.417-0.835-2.829-2h-2.171c-0.552 0-1-0.448-1-1v-14c0-0.552 0.448-1 1-1h11z"/>
            <path d="m28 8c0-0.552-0.448-1-1-1h-2c-0.552 0-1 0.448-1 1s0.448 1 1 1h2c0.552 0 1-0.448 1-1v0z" stroke-linecap="square" stroke-linejoin="round" stroke-miterlimit="3"/>
            <path d="m23.203 6.686-18.947 4.464-0.459-1.947 18.947-4.463 0.459 1.946z" stroke-linecap="butt" stroke-linejoin="round" stroke-miterlimit="1.4142"/>
        </g>
        <g id="emoji">
            <path d="m28 8c0-0.552-0.448-1-1-1h-2c-0.552 0-1 0.448-1 1s0.448 1 1 1h2c0.552 0 1-0.448 1-1z" fill="#0e43e3"/>
            <path d="m23.203 6.686-18.947 4.464-0.459-1.947 18.947-4.463 0.459 1.946z" fill="#7f7f7f" fill-rule="nonzero"/>
            <path d="m16 14-2.409-1h-10.829l-0.762 1v13c0 0.552 0.448 1 1 1l0.847-1h8.457l0.696 1h3v-9-5z" fill="#848484"/>
            <clipPath id="_clip2">
                <path d="m16 14-2.409-1h-10.829l-0.762 1v13c0 0.552 0.448 1 1 1l0.847-1h8.457l0.696 1h3v-9-5z"/>
            </clipPath>
            <g clip-path="url(#_clip2)">
                <rect x="3" y="15" width="10" height="6" fill="#4d4d4d"/>
            </g>
            <path d="m16 12h-13c-0.552 0-1 0.448-1 1v1h14v-2z" fill="#f55959"/>
            <path d="m13 22h-10v6h1l0.64-0.692 6.604-0.014 0.756 0.706h1v-6z" fill="#ccc"/>
            
                <path d="m30 26v1c0 0.552-0.448 1-1 1h-1l-1.676-0.563-4.705-0.058-1.619 0.621h-5c-0.265 0-0.52-0.105-0.707-0.293-0.188-0.187-0.293-0.442-0.293-0.707v-3l1-1 13.568 0.218 0.554 0.303c-0.078 0.142 0.326 2.479 0.878 2.479zm-16-4v-10l1-0.866 13 0.115 1.82 0.751c0.118 0.258 0.18 0.54 0.18 0.828v9.172l-1 0.733-14 0.053-1-0.786z" fill="#f11717"/>
                <path d="m14 12v-1c0-0.552 0.448-1 1-1h12.172c0.53 0 1.039 0.211 1.414 0.586l0.828 0.828c0.171 0.171 0.308 0.37 0.406 0.586h-15.82z" fill="#f55959"/>
                <path d="m30 23-1 1h-15v-2h16v1z" fill="#fff"/>
                <path d="m30 23h-1e-3c-0.552 0-0.999 0.447-0.999 0.999v1.001c0 0.552 0.448 1 1 1v-3z" fill="#2c2c2c"/>
            
            <rect x="17" y="25" width="2" height="1" fill="#a60a0a"/>
            
                <path d="m31 13h-1c-0.265 0-0.52 0.105-0.707 0.293-0.188 0.187-0.293 0.442-0.293 0.707v4c0 0.265 0.105 0.52 0.293 0.707 0.187 0.188 0.442 0.293 0.707 0.293h1v-6z"/>
                <path d="m28 14c0-0.265-0.105-0.52-0.293-0.707-0.187-0.188-0.442-0.293-0.707-0.293h-3c-0.265 0-0.52 0.105-0.707 0.293-0.188 0.187-0.293 0.442-0.293 0.707v4c0 0.265 0.105 0.52 0.293 0.707 0.187 0.188 0.442 0.293 0.707 0.293h3c0.265 0 0.52-0.105 0.707-0.293 0.188-0.187 0.293-0.442 0.293-0.707v-4z"/>
                <path d="m21 14c0-0.552-0.448-1-1-1h-1c-0.552 0-1 0.448-1 1v4c0 0.552 0.448 1 1 1h1c0.552 0 1-0.448 1-1v-4z"/>
            
            
                <path d="m12 26.812c0-1.011-0.402-1.981-1.117-2.695-0.715-0.715-1.684-1.117-2.695-1.117h-0.376c-1.011 0-1.98 0.402-2.695 1.117-0.715 0.714-1.117 1.684-1.117 2.695v1.188h8v-1.188z" fill="#333"/>
                <circle cx="8" cy="27" r="3" fill="#5a5a5a"/>
                <circle cx="8" cy="27" r="1.5" fill="#bfbfbf"/>
            
            
                <path d="m28 26.812c0-1.011-0.402-1.981-1.117-2.695-0.715-0.715-1.684-1.117-2.695-1.117h-0.376c-1.011 0-1.98 0.402-2.695 1.117-0.715 0.714-1.117 1.684-1.117 2.695v1.188h8v-1.188z" fill="#333"/>
                <circle cx="24" cy="27" r="3" fill="#5a5a5a"/>
                <circle cx="24" cy="27" r="1.5" fill="#bfbfbf"/>
            
        </g>
    </g>
</svg>
