<?xml version="1.0" encoding="UTF-8"?>
<svg clip-rule="evenodd" fill-rule="evenodd" stroke-linecap="round" stroke-miterlimit="1.5" viewBox="0 0 32 32" xmlns="http://www.w3.org/2000/svg">
 <clipPath id="a">
  <path d="m0 0h32v32h-32z" clip-rule="evenodd"/>
 </clipPath>
 <clipPath id="b">
  <path d="m27.32 11.969c-0.803-1.805-2.593-2.969-4.569-2.969h-19.751c-0.265 0-0.52 0.105-0.707 0.293-0.188 0.187-0.293 0.442-0.293 0.707v15c0 0.53 0.211 1.039 0.586 1.414s0.884 0.586 1.414 0.586h23c1.657 0 3-1.343 3-3v-4.727c0-0.839-0.176-1.669-0.517-2.437-0.545-1.225-1.424-3.204-2.163-4.867z" clip-rule="evenodd"/>
 </clipPath>
 <path d="m0 0h32v32h-32z" fill="none"/>
 <g clip-path="url(#a)">
  <g stroke="#000" stroke-width="4">
   <path d="m27.32 11.969c-0.803-1.805-2.593-2.969-4.569-2.969h-19.751c-0.265 0-0.52 0.105-0.707 0.293-0.188 0.187-0.293 0.442-0.293 0.707v15c0 0.53 0.211 1.039 0.586 1.414s0.884 0.586 1.414 0.586h23c1.657 0 3-1.343 3-3v-4.727c0-0.839-0.176-1.669-0.517-2.437-0.545-1.225-1.424-3.204-2.163-4.867z" fill="none"/>
   <circle cx="8" cy="27" r="3" fill="#fff"/>
   <circle cx="24" cy="27" r="3" fill="#fff"/>
  </g>
  <path d="m27.32 11.969c-0.803-1.805-2.593-2.969-4.569-2.969h-19.751c-0.265 0-0.52 0.105-0.707 0.293-0.188 0.187-0.293 0.442-0.293 0.707v15c0 0.53 0.211 1.039 0.586 1.414s0.884 0.586 1.414 0.586h23c1.657 0 3-1.343 3-3v-4.727c0-0.839-0.176-1.669-0.517-2.437-0.545-1.225-1.424-3.204-2.163-4.867z" fill="#e6e6e6"/>
  <g clip-path="url(#b)">
   <path d="m1 7h30v4h-30z" fill="#fff"/>
   <path d="m20 23c0-.265-.105-.52-.293-.707-.187-.188-.442-.293-.707-.293-3.782 0-17 0-17 0v2h17c.265 0 .52-.105.707-.293.188-.187.293-.442.293-.707z" fill="#6e6e6e"/>
   <g fill="#2c2c2c">
    <path d="m30 23h-.001c-.552 0-.999.447-.999.999v1.001c0 .552.448 1 1 1z"/>
    <path d="m30 23h-.001c-.552 0-.999.447-.999.999v1.001c0 .552.448 1 1 1z"/>
   </g>
  </g>
  <path d="m12 26.812c0-1.011-0.402-1.981-1.117-2.695-0.715-0.715-1.684-1.117-2.695-1.117h-0.376c-1.011 0-1.98 0.402-2.695 1.117-0.715 0.714-1.117 1.684-1.117 2.695v0.188h8z" fill="#333"/>
  <path d="m28 26.812c0-1.011-0.402-1.981-1.117-2.695-0.715-0.715-1.684-1.117-2.695-1.117h-0.376c-1.011 0-1.98 0.402-2.695 1.117-0.715 0.714-1.117 1.684-1.117 2.695v0.188h8z" fill="#333"/>
  <path d="m26.973 13.579c-.442-.962-1.403-1.579-2.462-1.579-.175 0-.348 0-.511 0-.265 0-.52.105-.707.293-.188.187-.293.442-.293.707v4.219c0 .459.312.859.757.97 1.194.299 3.49.873 4.604 1.151.154.039.317.004.441-.093.125-.098.198-.247.198-.405 0-.001 0-.001 0-.001 0-.554-.12-1.102-.35-1.605-.421-.917-1.136-2.477-1.677-3.657z"/>
  <path d="m22 13c0-0.552-0.448-1-1-1h-17c-0.552 0-1 0.448-1 1v6c0 0.552 0.448 1 1 1h17c0.552 0 1-0.448 1-1v-6z"/>
  <path d="m7 12h2v8h-2z" fill="#333"/>
  <path d="m16 12h2v8h-2z" fill="#333"/>
  <circle cx="8" cy="27" r="3" fill="#5a5a5a"/>
  <circle cx="24" cy="27" r="3" fill="#5a5a5a"/>
  <circle cx="24" cy="27" r="1.5" fill="#bfbfbf"/>
  <circle cx="8" cy="27" r="1.5" fill="#bfbfbf"/>
 </g>
</svg>
