<?xml version="1.0" encoding="UTF-8"?>
<!DOCTYPE svg  PUBLIC '-//W3C//DTD SVG 1.1//EN'  'http://www.w3.org/Graphics/SVG/1.1/DTD/svg11.dtd'>
<svg clip-rule="evenodd" fill-rule="evenodd" stroke-linecap="round" stroke-miterlimit="1.5" version="1.1" viewBox="0 0 32 32" xml:space="preserve" xmlns="http://www.w3.org/2000/svg">
<metadata>
<rdf:RDF xmlns:cc="http://web.resource.org/cc/" xmlns:dc="http://purl.org/dc/elements/1.1/" xmlns:rdf="http://www.w3.org/1999/02/22-rdf-syntax-ns#">

     <rdf:Description rdf:about="">
       <dc:title>Mutant Standard emoji 2023.12</dc:title>
     </rdf:Description>

    <cc:work rdf:about="">
        <cc:license rdf:resource="http://creativecommons.org/licenses/by-nc-sa/4.0/"/>
        <cc:attributionName>Caius Nocturne</cc:attributionName>
        <cc:attributionURL>http://mutant.tech/</cc:attributionURL>
    </cc:work>

</rdf:RDF>
</metadata>

    <rect id="minibus" width="32" height="32" fill="none"/>
    <clipPath id="_clip1">
        <rect width="32" height="32"/>
    </clipPath>
    <g clip-path="url(#_clip1)">
        <g id="outline" stroke="#000" stroke-width="4px">
            <path d="m27.32 11.969c-0.803-1.805-2.593-2.969-4.569-2.969h-19.751c-0.265 0-0.52 0.105-0.707 0.293-0.188 0.187-0.293 0.442-0.293 0.707v15c0 0.53 0.211 1.039 0.586 1.414s0.884 0.586 1.414 0.586h23c1.657 0 3-1.343 3-3v-4.727c0-0.839-0.176-1.669-0.517-2.437-0.545-1.225-1.424-3.204-2.163-4.867z" fill="none"/>
            <circle cx="8" cy="27" r="3" fill="#fff"/>
            <circle cx="24" cy="27" r="3" fill="#fff"/>
        </g>
        <g id="emoji">
            <path d="m27.32 11.969c-0.803-1.805-2.593-2.969-4.569-2.969h-19.751c-0.265 0-0.52 0.105-0.707 0.293-0.188 0.187-0.293 0.442-0.293 0.707v15c0 0.53 0.211 1.039 0.586 1.414s0.884 0.586 1.414 0.586h23c1.657 0 3-1.343 3-3v-4.727c0-0.839-0.176-1.669-0.517-2.437-0.545-1.225-1.424-3.204-2.163-4.867z" fill="#e6e6e6"/>
            <clipPath id="_clip2">
                <path d="m27.32 11.969c-0.803-1.805-2.593-2.969-4.569-2.969h-19.751c-0.265 0-0.52 0.105-0.707 0.293-0.188 0.187-0.293 0.442-0.293 0.707v15c0 0.53 0.211 1.039 0.586 1.414s0.884 0.586 1.414 0.586h23c1.657 0 3-1.343 3-3v-4.727c0-0.839-0.176-1.669-0.517-2.437-0.545-1.225-1.424-3.204-2.163-4.867z"/>
            </clipPath>
            <g clip-path="url(#_clip2)">
                <rect x="1" y="7" width="30" height="4" fill="#fff"/>
                <path d="m20 23c0-0.265-0.105-0.52-0.293-0.707-0.187-0.188-0.442-0.293-0.707-0.293h-17v2h17c0.265 0 0.52-0.105 0.707-0.293 0.188-0.187 0.293-0.442 0.293-0.707z" fill="#6e6e6e"/>
                <path d="m30 23h-1e-3c-0.552 0-0.999 0.447-0.999 0.999v1.001c0 0.552 0.448 1 1 1v-3z" fill="#2c2c2c"/>
                <path d="m30 23h-1e-3c-0.552 0-0.999 0.447-0.999 0.999v1.001c0 0.552 0.448 1 1 1v-3z" fill="#2c2c2c"/>
            </g>
            <path d="m12 26.812c0-1.011-0.402-1.981-1.117-2.695-0.715-0.715-1.684-1.117-2.695-1.117h-0.376c-1.011 0-1.98 0.402-2.695 1.117-0.715 0.714-1.117 1.684-1.117 2.695v0.188h8v-0.188z" fill="#333"/>
            <path d="m28 26.812c0-1.011-0.402-1.981-1.117-2.695-0.715-0.715-1.684-1.117-2.695-1.117h-0.376c-1.011 0-1.98 0.402-2.695 1.117-0.715 0.714-1.117 1.684-1.117 2.695v0.188h8v-0.188z" fill="#333"/>
            <path d="m26.973 13.579c-0.442-0.962-1.403-1.579-2.462-1.579h-0.511c-0.265 0-0.52 0.105-0.707 0.293-0.188 0.187-0.293 0.442-0.293 0.707v4.219c0 0.459 0.312 0.859 0.757 0.97 1.194 0.299 3.49 0.873 4.604 1.151 0.154 0.039 0.317 4e-3 0.441-0.093 0.125-0.098 0.198-0.247 0.198-0.405v-1e-3c0-0.554-0.12-1.102-0.35-1.605-0.421-0.917-1.136-2.477-1.677-3.657z"/>
            <path d="m22 13c0-0.552-0.448-1-1-1h-17c-0.552 0-1 0.448-1 1v6c0 0.552 0.448 1 1 1h17c0.552 0 1-0.448 1-1v-6z"/>
            <rect x="7" y="12" width="2" height="8" fill="#333"/>
            <rect x="16" y="12" width="2" height="8" fill="#333"/>
            <circle cx="8" cy="27" r="3" fill="#5a5a5a"/>
            <circle cx="24" cy="27" r="3" fill="#5a5a5a"/>
            <circle cx="24" cy="27" r="1.5" fill="#bfbfbf"/>
            <circle cx="8" cy="27" r="1.5" fill="#bfbfbf"/>
        </g>
    </g>
</svg>
