<?xml version="1.0" encoding="UTF-8"?>
<!DOCTYPE svg  PUBLIC '-//W3C//DTD SVG 1.1//EN'  'http://www.w3.org/Graphics/SVG/1.1/DTD/svg11.dtd'>
<svg clip-rule="evenodd" fill-rule="evenodd" stroke-linecap="round" stroke-linejoin="round" stroke-miterlimit="1.5" version="1.1" viewBox="0 0 32 32" xml:space="preserve" xmlns="http://www.w3.org/2000/svg">
<metadata>
<rdf:RDF xmlns:cc="http://web.resource.org/cc/" xmlns:dc="http://purl.org/dc/elements/1.1/" xmlns:rdf="http://www.w3.org/1999/02/22-rdf-syntax-ns#">

     <rdf:Description rdf:about="">
       <dc:title>Mutant Standard emoji 2023.12</dc:title>
     </rdf:Description>

    <cc:work rdf:about="">
        <cc:license rdf:resource="http://creativecommons.org/licenses/by-nc-sa/4.0/"/>
        <cc:attributionName>Caius Nocturne</cc:attributionName>
        <cc:attributionURL>http://mutant.tech/</cc:attributionURL>
    </cc:work>

</rdf:RDF>
</metadata>

    <rect id="siren" width="32" height="32" fill="none"/>
    <clipPath id="_clip1">
        <rect width="32" height="32"/>
    </clipPath>
    <g clip-path="url(#_clip1)">
        <g id="outline" fill="none" stroke="#000">
            <path d="m10.075 5.333c0-1.287 2.654-2.333 5.923-2.333 3.27 0 5.924 1.046 5.924 2.333l1.63 12.752c1.525 0.778 2.448 1.794 2.448 2.904v3.772h-3e-3c-0.094 2.409-4.538 4.353-9.999 4.353-5.46 0-9.904-1.944-9.998-4.353v-1e-3c-1e-3 -0.025-2e-3 -0.051-2e-3 -0.077s1e-3 -0.052 2e-3 -0.078v-3.506c-2e-3 -0.037-3e-3 -0.073-3e-3 -0.11 0-1.11 0.923-2.126 2.448-2.904l1.63-12.752z" stroke-width="4px"/>
            <path d="m25.5 9 2.5-2" stroke-width="6px"/>
            <path d="m6.5 9-2.5-2" stroke-width="6px"/>
            <path d="m26 12.5h3" stroke-width="6px"/>
            <path d="m6 12.5h-3" stroke-width="6px"/>
            <path d="m26 16 2.5 2" stroke-width="6px"/>
            <path d="m6 16-2.5 2" stroke-width="6px"/>
        </g>
        <g id="emoji">
            <path d="m10.476 20.989c1.583-0.466 3.482-0.738 5.522-0.738 2.041 0 3.94 0.272 5.523 0.738h4.479v3.772h-3e-3c-0.094 2.409-4.538 4.353-9.999 4.353-5.46 0-9.904-1.944-9.998-4.353v-1e-3c-1e-3 -0.025-2e-3 -0.051-2e-3 -0.077s1e-3 -0.052 2e-3 -0.078v-3.616h4.476z" fill="#404040"/>
            <ellipse cx="15.998" cy="20.989" rx="10.002" ry="4.432" fill="#595959"/>
            <path d="m10.075 5.333c0-1.287 2.654-2.333 5.923-2.333 3.27 0 5.924 1.046 5.924 2.333l1.953 15.395c0.015 0.086 0.022 0.173 0.022 0.261 0 1.931-3.539 3.5-7.899 3.5-4.359 0-7.898-1.569-7.898-3.5 0-0.088 7e-3 -0.175 0.022-0.261l1.953-15.395z" fill="#e82731"/>
            <clipPath id="_clip2">
                <path d="m10.075 5.333c0-1.287 2.654-2.333 5.923-2.333 3.27 0 5.924 1.046 5.924 2.333l1.953 15.395c0.015 0.086 0.022 0.173 0.022 0.261 0 1.931-3.539 3.5-7.899 3.5-4.359 0-7.898-1.569-7.898-3.5 0-0.088 7e-3 -0.175 0.022-0.261l1.953-15.395z"/>
            </clipPath>
            <g clip-path="url(#_clip2)">
                <path d="m8.727 4.114 4.281 1.777-1.764 18.713-4.982-3.49 2.465-17z" fill="#ff626a"/>
            </g>
            <path d="m16.151 3.001 0.152 2e-3 0.151 4e-3 0.15 5e-3 0.149 7e-3 0.147 8e-3 0.147 9e-3 0.145 0.011 0.144 0.013 0.142 0.014 0.141 0.015 0.14 0.016 0.139 0.018 0.136 0.019 0.136 0.02 0.133 0.021 0.132 0.023 0.131 0.024 0.128 0.025 0.127 0.027 0.125 0.027 0.123 0.029 0.121 0.03 0.12 0.031 0.117 0.032 0.115 0.033 0.113 0.034 0.111 0.035 0.108 0.036 0.107 0.037 0.104 0.039 0.101 0.039 0.1 0.04 0.097 0.041 0.094 0.042 0.092 0.042 0.089 0.044 0.087 0.045 0.084 0.045 0.081 0.046 0.079 0.047 0.075 0.048 0.073 0.048 0.07 0.05 0.067 0.049 0.064 0.051 0.061 0.051 0.058 0.052 0.054 0.053 0.052 0.053 0.048 0.054 0.045 0.055 0.021 0.027 0.04 0.056 0.019 0.027 0.018 0.028 0.017 0.029 0.016 0.028 0.015 0.028 0.028 0.058 0.012 0.028 0.012 0.029 0.011 0.029 0.01 0.029 9e-3 0.03 8e-3 0.029 7e-3 0.029 6e-3 0.03 5e-3 0.03 5e-3 0.029 3e-3 0.03 4e-3 0.06v0.03l1.953 15.395 0.01 0.065 7e-3 0.065 4e-3 0.065 1e-3 0.066-1e-3 0.045-2e-3 0.045-3e-3 0.045-4e-3 0.045-6e-3 0.044-7e-3 0.045-8e-3 0.044-0.01 0.044-0.011 0.044-0.012 0.044-0.013 0.044-0.014 0.043-0.016 0.044-0.016 0.043-0.018 0.043-0.02 0.043-0.02 0.042-0.021 0.043-0.023 0.042-0.024 0.042-0.025 0.042-0.026 0.041-0.027 0.042-0.028 0.041-0.06 0.082-0.032 0.04-0.033 0.041-0.033 0.04-0.035 0.04-0.036 0.039-0.037 0.04-0.038 0.039-0.039 0.039-0.04 0.038-0.041 0.039-0.086 0.076-0.044 0.037-0.045 0.037-0.046 0.038-0.047 0.036-0.048 0.037-0.049 0.036-0.05 0.036-0.051 0.036-0.052 0.035-0.053 0.035-0.108 0.069-0.112 0.068-0.116 0.067-0.119 0.066-0.122 0.064-0.126 0.063-0.129 0.061-0.133 0.06-0.135 0.059-0.139 0.057-0.142 0.056-0.145 0.054-0.147 0.053-0.151 0.051-0.153 0.05-0.157 0.048-0.159 0.046-0.161 0.045-0.164 0.043-0.167 0.041-0.169 0.04-0.171 0.037-0.174 0.036-0.176 0.035-0.179 0.032-0.18 0.03-0.182 0.029-0.185 0.026-0.186 0.025-0.189 0.022-0.19 0.021-0.192 0.019-0.193 0.016-0.195 0.014-0.197 0.013-0.198 0.01-0.2 8e-3 -0.201 5e-3 -0.203 4e-3 -0.204 1e-3 -0.203-1e-3 -0.203-4e-3 -0.201-5e-3 -0.2-8e-3 -0.198-0.01-0.197-0.013-0.195-0.014-0.194-0.016-0.191-0.019-0.191-0.021-0.188-0.022-0.186-0.025-0.185-0.026-0.182-0.029-0.181-0.03-0.178-0.032-0.176-0.035-0.174-0.036-0.171-0.037-0.169-0.04-0.167-0.041-0.164-0.043-0.161-0.045-0.159-0.046-0.157-0.048-0.153-0.05-0.151-0.051-0.148-0.053-0.144-0.054-0.142-0.056-0.139-0.057-0.136-0.059-0.132-0.06-0.129-0.061-0.126-0.063-0.122-0.064-0.12-0.066-0.115-0.067-0.112-0.068-0.108-0.069-0.053-0.035-0.052-0.035-0.051-0.036-0.05-0.036-0.049-0.036-0.048-0.037-0.047-0.036-0.046-0.038-0.045-0.037-0.044-0.037-0.044-0.038-0.042-0.038-0.041-0.039-0.04-0.038-0.039-0.039-0.038-0.039-0.037-0.04-0.036-0.039-0.035-0.04-0.033-0.04-0.033-0.041-0.032-0.04-0.06-0.082-0.028-0.041-0.027-0.042-0.026-0.041-0.025-0.042-0.024-0.042-0.023-0.042-0.021-0.043-0.02-0.042-0.02-0.043-0.018-0.043-0.016-0.043-0.016-0.044-0.014-0.043-0.014-0.044-0.012-0.044-0.02-0.088-8e-3 -0.044-7e-3 -0.045-6e-3 -0.044-4e-3 -0.045-3e-3 -0.045-2e-3 -0.045-1e-3 -0.045 1e-3 -0.066 4e-3 -0.065 7e-3 -0.065 0.01-0.065 1.953-15.395v-0.03l4e-3 -0.06 3e-3 -0.03 5e-3 -0.029 5e-3 -0.03 6e-3 -0.03 7e-3 -0.029 8e-3 -0.029 9e-3 -0.03 0.01-0.029 0.011-0.029 0.012-0.029 0.012-0.028 0.028-0.058 0.015-0.028 0.016-0.028 0.017-0.028 0.018-0.029 0.019-0.027 0.019-0.028 0.021-0.028 0.021-0.027 0.045-0.055 0.048-0.054 0.052-0.053 0.054-0.053 0.058-0.052 0.061-0.051 0.064-0.051 0.067-0.049 0.07-0.05 0.073-0.048 0.075-0.048 0.079-0.047 0.081-0.046 0.084-0.045 0.087-0.045 0.089-0.044 0.092-0.042 0.094-0.042 0.097-0.041 0.099-0.04 0.102-0.039 0.104-0.039 0.107-0.037 0.108-0.036 0.111-0.035 0.113-0.034 0.115-0.033 0.117-0.032 0.12-0.031 0.121-0.03 0.123-0.029 0.125-0.027 0.127-0.027 0.128-0.025 0.131-0.024 0.132-0.023 0.133-0.021 0.136-0.02 0.136-0.019 0.139-0.018 0.14-0.016 0.141-0.015 0.142-0.014 0.144-0.013 0.145-0.011 0.147-9e-3 0.147-8e-3 0.149-7e-3 0.15-5e-3 0.151-4e-3 0.152-2e-3 0.152-1e-3 0.153 1e-3zm-0.295 1-0.142 2e-3 -0.141 3e-3 -0.14 5e-3 -0.276 0.014-0.136 9e-3 -0.135 0.01-0.134 0.012-0.132 0.012-0.131 0.014-0.13 0.016-0.127 0.016-0.127 0.017-0.124 0.019-0.123 0.02-0.121 0.021-0.119 0.022-0.118 0.023-0.115 0.024-0.113 0.025-0.111 0.026-0.11 0.026-0.106 0.028-0.105 0.029-0.102 0.029-0.1 0.03-0.098 0.031-0.094 0.032-0.093 0.032-0.089 0.033-0.087 0.033-0.084 0.034-0.081 0.034-0.078 0.035-0.075 0.035-0.072 0.035-0.069 0.035-0.065 0.036-0.063 0.035-0.058 0.035-0.055 0.035-0.052 0.034-0.048 0.034-0.044 0.033-0.041 0.033-0.037 0.031-0.033 0.029-0.03 0.029-0.025 0.026-0.022 0.025-0.022 0.027-5e-3 6e-3 -8e-3 0.01-0.012 0.018-5e-3 7e-3 -4e-3 8e-3 -4e-3 6e-3 -3e-3 6e-3 -2e-3 5e-3 -2e-3 4e-3 -2e-3 3e-3 -1e-3 3e-3v2e-3l-1e-3 7e-3 -2e-3 0.055-5e-3 0.055-1.953 15.395-1e-3 -1e-3 -2e-3 0.019-6e-3 0.045-3e-3 0.024-1e-3 0.024-1e-3 0.027v0.013l1e-3 0.017 1e-3 0.016 4e-3 0.034 3e-3 0.016 3e-3 0.017 4e-3 0.018 4e-3 0.017 5e-3 0.018 5e-3 0.019 6e-3 0.018 7e-3 0.019 0.016 0.04 9e-3 0.02 0.01 0.021 0.011 0.021 0.012 0.022 0.012 0.023 0.014 0.022 0.015 0.023 0.015 0.024 0.017 0.024 0.017 0.025 0.019 0.025 0.04 0.05 0.022 0.026 0.023 0.027 0.024 0.026 0.025 0.027 0.082 0.082 0.03 0.027 0.031 0.028 0.032 0.028 0.033 0.028 0.034 0.028 0.035 0.029 0.036 0.028 0.038 0.029 0.038 0.028 0.04 0.028 0.04 0.029 0.042 0.028 0.041 0.027 0.091 0.059 0.093 0.056 0.097 0.056 0.101 0.055 0.104 0.055 0.109 0.055 0.113 0.053 0.116 0.053 0.119 0.052 0.123 0.05 0.127 0.05 0.13 0.049 0.133 0.047 0.137 0.047 0.139 0.045 0.143 0.044 0.145 0.042 0.148 0.041 0.151 0.04 0.154 0.038 0.156 0.036 0.159 0.035 0.162 0.034 0.164 0.032 0.166 0.03 0.168 0.028 0.171 0.027 0.172 0.025 0.175 0.023 0.177 0.021 0.178 0.019 0.181 0.018 0.182 0.015 0.184 0.014 0.185 0.011 0.187 0.01 0.189 7e-3 0.19 5e-3 0.191 4e-3 0.192 1e-3 0.193-1e-3 0.191-4e-3 0.19-5e-3 0.189-7e-3 0.187-0.01 0.185-0.011 0.184-0.014 0.182-0.015 0.18-0.018 0.179-0.019 0.177-0.021 0.175-0.023 0.172-0.025 0.171-0.027 0.168-0.028 0.166-0.03 0.164-0.032 0.162-0.034 0.159-0.035 0.156-0.036 0.154-0.038 0.151-0.04 0.148-0.041 0.145-0.042 0.143-0.044 0.139-0.045 0.137-0.047 0.133-0.047 0.13-0.049 0.126-0.05 0.124-0.05 0.119-0.052 0.116-0.053 0.113-0.053 0.108-0.055 0.105-0.055 0.101-0.055 0.097-0.056 0.093-0.056 0.091-0.059 0.041-0.027 0.041-0.028 0.041-0.029 0.04-0.028 0.038-0.028 0.038-0.029 0.036-0.028 0.035-0.029 0.034-0.028 0.033-0.028 0.032-0.028 0.031-0.028 0.03-0.027 0.082-0.082 0.025-0.027 0.024-0.026 0.023-0.027 0.022-0.026 0.04-0.05 0.019-0.025 0.017-0.025 0.017-0.024 0.015-0.023 0.015-0.024 0.014-0.023 0.024-0.044 0.011-0.021 0.01-0.021 9e-3 -0.02 0.016-0.04 7e-3 -0.019 6e-3 -0.019 0.01-0.036 4e-3 -0.017 4e-3 -0.018 3e-3 -0.016 3e-3 -0.017 4e-3 -0.034 1e-3 -0.016 1e-3 -0.017v-0.013l-1e-3 -0.027-1e-3 -0.024-3e-3 -0.024-8e-3 -0.054-1.954-15.404-5e-3 -0.055-2e-3 -0.055-1e-3 -7e-3v-2e-3l-1e-3 -3e-3 -2e-3 -3e-3 -2e-3 -4e-3 -2e-3 -5e-3 -3e-3 -6e-3 -4e-3 -6e-3 -4e-3 -7e-3 -5e-3 -8e-3 -6e-3 -9e-3 -7e-3 -9e-3 -7e-3 -0.01-5e-3 -6e-3 -0.022-0.027-0.022-0.025-0.055-0.055-0.033-0.029-0.037-0.031-0.041-0.033-0.044-0.033-0.048-0.034-0.052-0.034-0.055-0.035-0.059-0.035-0.062-0.035-0.065-0.036-0.069-0.035-0.072-0.035-0.075-0.035-0.078-0.035-0.081-0.034-0.084-0.034-0.087-0.033-0.089-0.033-0.093-0.032-0.095-0.032-0.097-0.031-0.1-0.03-0.102-0.029-0.105-0.029-0.107-0.028-0.109-0.026-0.111-0.026-0.113-0.025-0.116-0.024-0.117-0.023-0.119-0.022-0.121-0.021-0.123-0.02-0.124-0.019-0.127-0.017-0.127-0.016-0.13-0.016-0.131-0.014-0.132-0.012-0.134-0.012-0.135-0.01-0.136-9e-3 -0.276-0.014-0.14-5e-3 -0.141-3e-3 -0.142-2e-3 -0.143-1e-3 -0.142 1e-3z" fill="#e82731"/>
            <ellipse cx="15.998" cy="5.333" rx="4.917" ry="1.6" fill="#ff626a"/>
            <ellipse cx="15.998" cy="14.5" rx="2.539" ry="5.5" fill="#ffa7ad"/>
            <path d="m25.5 9 2.5-2" fill="none" stroke="#ff5f6a" stroke-width="2px"/>
            <path d="m6.5 9-2.5-2" fill="none" stroke="#ff5f6a" stroke-width="2px"/>
            <path d="m26 12.5h3" fill="none" stroke="#ff5f6a" stroke-width="2px"/>
            <path d="m6 12.5h-3" fill="none" stroke="#ff5f6a" stroke-width="2px"/>
            <path d="m26 16 2.5 2" fill="none" stroke="#ff5f6a" stroke-width="2px"/>
            <path d="m6 16-2.486 1.988-0.014 0.012" fill="none" stroke="#ff5f6a" stroke-width="2px"/>
        </g>
    </g>
</svg>
