<?xml version="1.0" encoding="UTF-8"?>
<!DOCTYPE svg  PUBLIC '-//W3C//DTD SVG 1.1//EN'  'http://www.w3.org/Graphics/SVG/1.1/DTD/svg11.dtd'>
<svg clip-rule="evenodd" fill-rule="evenodd" stroke-linecap="round" stroke-miterlimit="1.5" version="1.1" viewBox="0 0 32 32" xml:space="preserve" xmlns="http://www.w3.org/2000/svg">
<metadata>
<rdf:RDF xmlns:cc="http://web.resource.org/cc/" xmlns:dc="http://purl.org/dc/elements/1.1/" xmlns:rdf="http://www.w3.org/1999/02/22-rdf-syntax-ns#">

     <rdf:Description rdf:about="">
       <dc:title>Mutant Standard emoji 2023.12</dc:title>
     </rdf:Description>

    <cc:work rdf:about="">
        <cc:license rdf:resource="http://creativecommons.org/licenses/by-nc-sa/4.0/"/>
        <cc:attributionName>Caius Nocturne</cc:attributionName>
        <cc:attributionURL>http://mutant.tech/</cc:attributionURL>
    </cc:work>

</rdf:RDF>
</metadata>

    <rect id="suv" width="32" height="32" fill="none"/>
    <clipPath id="_clip1">
        <rect width="32" height="32"/>
    </clipPath>
    <g clip-path="url(#_clip1)">
        <g id="outline" stroke="#000" stroke-width="4px">
            <path d="m24.242 11.183c-0.749-1.919-2.598-3.183-4.659-3.183h-11.607c-1.766 0-3.324 1.159-3.831 2.851-0.303 1.01-0.65 2.165-0.975 3.247-0.776 2.588-1.17 5.274-1.17 7.975v1.927c0 0.53 0.211 1.039 0.586 1.414s0.884 0.586 1.414 0.586h24c0.53 0 1.039-0.211 1.414-0.586s0.586-0.884 0.586-1.414v-4.493c0-0.892-0.591-1.676-1.449-1.922-0.959-0.275-2.04-0.585-2.04-0.585s-1.259-3.227-2.269-5.817z" fill="none"/>
            <circle cx="7.5" cy="26.5" r="3.5" fill="#fff"/>
            <circle cx="23.5" cy="26.5" r="3.5" fill="#fff"/>
        </g>
        <g id="emoji">
            <path d="m24.242 11.183c-0.749-1.919-2.598-3.183-4.659-3.183h-11.607c-1.766 0-3.324 1.159-3.831 2.851-0.303 1.01-0.65 2.165-0.975 3.247-0.776 2.588-1.17 5.274-1.17 7.975v1.927c0 0.53 0.211 1.039 0.586 1.414s0.884 0.586 1.414 0.586h24c0.53 0 1.039-0.211 1.414-0.586s0.586-0.884 0.586-1.414v-4.493c0-0.892-0.591-1.676-1.449-1.922-0.959-0.275-2.04-0.585-2.04-0.585s-1.259-3.227-2.269-5.817z" fill="#ccc"/>
            <clipPath id="_clip2">
                <path d="m24.242 11.183c-0.749-1.919-2.598-3.183-4.659-3.183h-11.607c-1.766 0-3.324 1.159-3.831 2.851-0.303 1.01-0.65 2.165-0.975 3.247-0.776 2.588-1.17 5.274-1.17 7.975v1.927c0 0.53 0.211 1.039 0.586 1.414s0.884 0.586 1.414 0.586h24c0.53 0 1.039-0.211 1.414-0.586s0.586-0.884 0.586-1.414v-4.493c0-0.892-0.591-1.676-1.449-1.922-0.959-0.275-2.04-0.585-2.04-0.585s-1.259-3.227-2.269-5.817z"/>
            </clipPath>
            <g clip-path="url(#_clip2)">
                <path d="m19 19.499c0-0.276-0.223-0.499-0.499-0.499h-2.002c-0.276 0-0.499 0.223-0.499 0.499v1e-3c0 0.133 0.053 0.26 0.146 0.354 0.094 0.093 0.221 0.146 0.354 0.146h2c0.133 0 0.26-0.053 0.354-0.146 0.093-0.094 0.146-0.221 0.146-0.354v-1e-3z" fill="#dbdbdb"/>
                <rect x="1" y="7" width="30" height="3" fill="#f2f2f2"/>
                <path d="m31 19h-3.382c-0.347 0-0.668 0.179-0.851 0.474-0.182 0.295-0.198 0.663-0.043 0.973 0.024 0.049 0.048 0.097 0.07 0.142 0.131 0.261 0.369 0.452 0.652 0.523 1.043 0.26 3.554 0.888 3.554 0.888v-3z" fill="#676767"/>
                <path d="m27 24c0-0.265-0.105-0.52-0.293-0.707-0.187-0.188-0.442-0.293-0.707-0.293h-25v2h25c0.265 0 0.52-0.105 0.707-0.293 0.188-0.187 0.293-0.442 0.293-0.707z" fill="#fff"/>
                <path d="m28 25c0-0.796-0.316-1.559-0.879-2.121-0.562-0.563-1.325-0.879-2.121-0.879h-3c-0.796 0-1.559 0.316-2.121 0.879-0.563 0.562-0.879 1.325-0.879 2.121v2h9v-2z" fill="#333"/>
                <path d="m12 25c0-0.796-0.316-1.559-0.879-2.121-0.562-0.563-1.325-0.879-2.121-0.879h-3c-0.796 0-1.559 0.316-2.121 0.879-0.563 0.562-0.879 1.325-0.879 2.121v2h9v-2z" fill="#333"/>
            </g>
            <path d="m19 19.499c0-0.276-0.223-0.499-0.499-0.499h-2.002c-0.276 0-0.499 0.223-0.499 0.499v1e-3c0 0.133 0.053 0.26 0.146 0.354 0.094 0.093 0.221 0.146 0.354 0.146h2c0.133 0 0.26-0.053 0.354-0.146 0.093-0.094 0.146-0.221 0.146-0.354v-1e-3z" fill="#838383"/>
            <path d="m23.143 11.918c-0.348-1.139-1.399-1.918-2.591-1.918-3.466 1e-3 -10.493 2e-3 -13.497 3e-3 -0.852 0-1.616 0.525-1.922 1.32-0.073 0.192-0.148 0.388-0.22 0.575-0.282 0.732-0.481 1.494-0.595 2.27-0.068 0.462-0.144 0.979-0.205 1.391-0.066 0.452 0.182 0.892 0.604 1.068 0.54 0.226 1.296 0.542 1.947 0.814 0.882 0.369 1.828 0.559 2.784 0.559h14.584c0.227 0 0.441-0.108 0.576-0.29 0.135-0.183 0.176-0.418 0.109-0.635-0.383-1.255-1.076-3.526-1.574-5.157z"/>
            <clipPath id="_clip3">
                <path d="m23.143 11.918c-0.348-1.139-1.399-1.918-2.591-1.918-3.466 1e-3 -10.493 2e-3 -13.497 3e-3 -0.852 0-1.616 0.525-1.922 1.32-0.073 0.192-0.148 0.388-0.22 0.575-0.282 0.732-0.481 1.494-0.595 2.27-0.068 0.462-0.144 0.979-0.205 1.391-0.066 0.452 0.182 0.892 0.604 1.068 0.54 0.226 1.296 0.542 1.947 0.814 0.882 0.369 1.828 0.559 2.784 0.559h14.584c0.227 0 0.441-0.108 0.576-0.29 0.135-0.183 0.176-0.418 0.109-0.635-0.383-1.255-1.076-3.526-1.574-5.157z"/>
            </clipPath>
            <g clip-path="url(#_clip3)">
                <path d="m12 9s-0.319 1.276-0.597 2.387c-0.268 1.071-0.403 2.172-0.403 3.276v4.337" fill="none" stroke="#333" stroke-linejoin="round" stroke-width="2px"/>
            </g>
            <circle cx="7.5" cy="26.5" r="3.5" fill="#5a5a5a"/>
            <circle cx="23.5" cy="26.5" r="3.5" fill="#5a5a5a"/>
            <circle cx="23.5" cy="26.5" r="2.5" fill="#bfbfbf"/>
            <circle cx="7.5" cy="26.5" r="2.5" fill="#bfbfbf"/>
            <path d="m22 18c0-0.552-0.448-1-1-1h-1c-0.552 0-1 0.448-1 1s0.448 1 1 1h1c0.552 0 1-0.448 1-1z" fill="#333"/>
        </g>
    </g>
</svg>
