<?xml version="1.0" encoding="UTF-8"?>
<!DOCTYPE svg  PUBLIC '-//W3C//DTD SVG 1.1//EN'  'http://www.w3.org/Graphics/SVG/1.1/DTD/svg11.dtd'>
<svg clip-rule="evenodd" fill-rule="evenodd" stroke-linecap="round" stroke-miterlimit="1.5" version="1.1" viewBox="0 0 32 32" xml:space="preserve" xmlns="http://www.w3.org/2000/svg">
<metadata>
<rdf:RDF xmlns:cc="http://web.resource.org/cc/" xmlns:dc="http://purl.org/dc/elements/1.1/" xmlns:rdf="http://www.w3.org/1999/02/22-rdf-syntax-ns#">

     <rdf:Description rdf:about="">
       <dc:title>Mutant Standard emoji 2023.12</dc:title>
     </rdf:Description>

    <cc:work rdf:about="">
        <cc:license rdf:resource="http://creativecommons.org/licenses/by-nc-sa/4.0/"/>
        <cc:attributionName>Caius Nocturne</cc:attributionName>
        <cc:attributionURL>http://mutant.tech/</cc:attributionURL>
    </cc:work>

</rdf:RDF>
</metadata>

    <rect id="taxi" width="32" height="32" fill="none"/>
    <clipPath id="_clip1">
        <rect width="32" height="32"/>
    </clipPath>
    <g clip-path="url(#_clip1)">
        <g id="outline">
            <path d="m13 9v-1c0-1.105 0.895-2 2-2s2 0.895 2 2v1h1.149c2.918 0 5.53 1.81 6.554 4.542 0.677 1.804 1.297 3.458 1.297 3.458s0.826 0.207 1.728 0.432c1.335 0.334 2.272 1.534 2.272 2.91v4.658c0 0.53-0.211 1.039-0.586 1.414s-0.884 0.586-1.414 0.586h-1.036c-0.242 1.695-1.702 3-3.464 3s-3.222-1.305-3.464-3h-9.072c-0.242 1.695-1.702 3-3.464 3s-3.222-1.305-3.464-3h-0.036c-0.53 0-1.039-0.211-1.414-0.586s-0.586-0.884-0.586-1.414v-2.528c0-2.962 0.478-5.905 1.414-8.715l1e-3 -1e-3c0.946-2.84 3.605-4.756 6.599-4.756h2.986z" fill="none" stroke="#000" stroke-width="4px"/>
        </g>
        <g id="emoji">
            <path d="m17 8c0-1.105-0.895-2-2-2s-2 0.895-2 2v2h4v-2z" fill="#ffd104"/>
            <path d="m23.048 11c0.717 0.702 1.288 1.563 1.655 2.542 0.677 1.804 1.297 3.458 1.297 3.458s0.826 0.207 1.728 0.432c0.871 0.218 1.573 0.804 1.955 1.568l0.317 3v3c0 0.53-0.211 1.039-0.586 1.414s-0.884 0.586-1.414 0.586c-0.467 0-2-1-2-1h-5s-1.41 1-2 1h-2l-1-1h-9l-4 0.733c-0.598-0.345-1-0.991-1-1.731v-2e-3l1-0.769v-0.806l-1-0.425c0.552 0 0.665-3.877 0.217-3.976 0.225-1.788 0.626-3.552 1.197-5.267l1e-3 -1e-3c0.355-1.066 0.952-2.003 1.717-2.756l2.868-1h13l2.048 1z" fill="#404040"/>
            <path d="m26 24c0-0.552-0.448-1-1-1h-23v2h23c0.552 0 1-0.448 1-1z" fill="#242424"/>
            <path d="m5.132 11c1.273-1.253 3.012-2 4.882-2h8.135c1.872 0 3.618 0.745 4.899 2h-17.916z" fill="#595959"/>
            <path d="m17 17h-7v10h7v-10z" fill="#ffd104"/>
            <path d="m3 26.733v-0.233c0-2.485 2.015-4.5 4.5-4.5s4.5 2.015 4.5 4.5v0.5h-3.377-4.625c-0.364 0-0.704-0.097-0.998-0.267z" fill="#333"/>
            <path d="m19 19.499c0-0.276-0.223-0.499-0.499-0.499h-2.002c-0.276 0-0.499 0.223-0.499 0.499v1e-3c0 0.133 0.053 0.26 0.146 0.354 0.094 0.093 0.221 0.146 0.354 0.146h2c0.133 0 0.26-0.053 0.354-0.146 0.093-0.094 0.146-0.221 0.146-0.354v-1e-3z" fill="#dbdbdb"/>
            <path d="m29.683 19c0.204 0.407 0.317 0.864 0.317 1.342v1.658h-0.5c-0.828 0-1.5-0.672-1.5-1.5 0-0.398 0.158-0.779 0.439-1.061 0.282-0.281 0.663-0.439 1.061-0.439h0.183z" fill="#191919"/>
            <path d="m2.217 19.024c0.448 0.099 0.783 0.498 0.783 0.976v2c0 0.552-0.448 1-1 1v-0.528c0-1.154 0.073-2.306 0.217-3.448z" fill="#191919"/>
            <path d="m28 26.5c0-2.485-2.015-4.5-4.5-4.5s-4.5 2.015-4.5 4.5v0.5h9v-0.5z" fill="#333"/>
            <path d="m23.65 14.29c-0.719-1.975-2.597-3.29-4.699-3.29h-1.951v-1e-3c0-0.265-0.105-0.519-0.293-0.706-0.187-0.188-0.441-0.293-0.706-0.293-1.423 1e-3 -4.087 2e-3 -6.149 2e-3 -1.768 1e-3 -3.404 0.935-4.303 2.457-3e-3 5e-3 -7e-3 0.011-0.01 0.017-0.596 1.009-1.022 2.11-1.26 3.257-0.023 0.112-0.046 0.222-0.068 0.328-0.109 0.525 0.216 1.042 0.736 1.173 0.661 0.165 1.542 0.387 2.188 0.549 0.574 0.144 1.165 0.217 1.757 0.217h15.085c0.234 0 0.453-0.114 0.587-0.305 0.134-0.192 0.166-0.437 0.086-0.656-0.261-0.718-0.635-1.745-1-2.749z"/>
            <clipPath id="_clip2">
                <path d="m23.65 14.29c-0.719-1.975-2.597-3.29-4.699-3.29h-1.951v-1e-3c0-0.265-0.105-0.519-0.293-0.706-0.187-0.188-0.441-0.293-0.706-0.293-1.423 1e-3 -4.087 2e-3 -6.149 2e-3 -1.768 1e-3 -3.404 0.935-4.303 2.457-3e-3 5e-3 -7e-3 0.011-0.01 0.017-0.596 1.009-1.022 2.11-1.26 3.257-0.023 0.112-0.046 0.222-0.068 0.328-0.109 0.525 0.216 1.042 0.736 1.173 0.661 0.165 1.542 0.387 2.188 0.549 0.574 0.144 1.165 0.217 1.757 0.217h15.085c0.234 0 0.453-0.114 0.587-0.305 0.134-0.192 0.166-0.437 0.086-0.656-0.261-0.718-0.635-1.745-1-2.749z"/>
            </clipPath>
            <g clip-path="url(#_clip2)" fill="none" stroke="#1a1a1a" stroke-linejoin="round" stroke-width="2px">
                <path d="m11 10s-0.319 1.276-0.597 2.387c-0.268 1.071-0.403 2.171-0.403 3.276v3.337"/>
                <path d="m18 11v8"/>
            </g>
            <path d="m19 19.499c0-0.276-0.223-0.499-0.499-0.499h-2.002c-0.276 0-0.499 0.223-0.499 0.499v1e-3c0 0.133 0.053 0.26 0.146 0.354 0.094 0.093 0.221 0.146 0.354 0.146h2c0.133 0 0.26-0.053 0.354-0.146 0.093-0.094 0.146-0.221 0.146-0.354v-1e-3z" fill="#838383"/>
            
                <circle cx="7.5" cy="26.5" r="3.5" fill="#5a5a5a"/>
                <circle cx="7.5" cy="26.5" r="2.5" fill="#bfbfbf"/>
            
            
                <circle cx="23.5" cy="26.5" r="3.5" fill="#5a5a5a"/>
                <circle cx="23.5" cy="26.5" r="2.5" fill="#bfbfbf"/>
            
            <path d="m22 18c0-0.552-0.448-1-1-1h-1c-0.552 0-1 0.448-1 1s0.448 1 1 1h1c0.552 0 1-0.448 1-1z" fill="#333"/>
        </g>
    </g>
</svg>
