<?xml version="1.0" encoding="UTF-8"?>
<!DOCTYPE svg  PUBLIC '-//W3C//DTD SVG 1.1//EN'  'http://www.w3.org/Graphics/SVG/1.1/DTD/svg11.dtd'>
<svg clip-rule="evenodd" fill-rule="evenodd" stroke-linecap="round" stroke-linejoin="round" stroke-miterlimit="1.5" version="1.1" viewBox="0 0 32 32" xml:space="preserve" xmlns="http://www.w3.org/2000/svg">
<metadata>
<rdf:RDF xmlns:cc="http://web.resource.org/cc/" xmlns:dc="http://purl.org/dc/elements/1.1/" xmlns:rdf="http://www.w3.org/1999/02/22-rdf-syntax-ns#">

     <rdf:Description rdf:about="">
       <dc:title>Mutant Standard emoji 2023.12</dc:title>
     </rdf:Description>

    <cc:work rdf:about="">
        <cc:license rdf:resource="http://creativecommons.org/licenses/by-nc-sa/4.0/"/>
        <cc:attributionName>Caius Nocturne</cc:attributionName>
        <cc:attributionURL>http://mutant.tech/</cc:attributionURL>
    </cc:work>

</rdf:RDF>
</metadata>

    <rect id="traffic_light_vertical" width="32" height="32" fill="none"/>
    <clipPath id="_clip1">
        <rect width="32" height="32"/>
    </clipPath>
    <g clip-path="url(#_clip1)">
        <g id="outline">
            <path d="m20 30c1.657 0 3-1.343 3-3v-22c0-1.657-1.343-3-3-3h-8c-1.657 0-3 1.343-3 3v22c0 1.657 1.343 3 3 3h8z" fill="none" stroke="#000" stroke-width="4px"/>
        </g>
        <g id="emoji">
            <path d="m20 30c1.657 0 3-1.343 3-3v-22c0-1.657-1.343-3-3-3h-8c-1.657 0-3 1.343-3 3v22c0 1.657 1.343 3 3 3h8z" fill="#404040"/>
            <path d="m20.077 2.001 0.077 3e-3 0.077 5e-3 0.076 6e-3 0.075 9e-3 0.075 0.011 0.074 0.012 0.074 0.014 0.073 0.016 0.072 0.017 0.071 0.02 0.071 0.021 0.07 0.023 0.07 0.024 0.068 0.026 0.068 0.028 0.067 0.029 0.066 0.031 0.065 0.032 0.064 0.034 0.063 0.035 0.063 0.037 0.061 0.039 0.06 0.039 0.06 0.041 0.058 0.043 0.057 0.044 0.056 0.045 0.055 0.047 0.054 0.047 0.053 0.049 0.102 0.102 0.049 0.053 0.047 0.054 0.047 0.055 0.045 0.056 0.044 0.057 0.043 0.058 0.041 0.06 0.039 0.06 0.039 0.061 0.037 0.063 0.035 0.063 0.034 0.064 0.032 0.065 0.031 0.066 0.029 0.067 0.028 0.068 0.026 0.068 0.024 0.07 0.023 0.07 0.021 0.071 0.02 0.071 0.017 0.072 0.016 0.073 0.014 0.074 0.012 0.074 0.011 0.075 9e-3 0.075 6e-3 0.076 5e-3 0.077 3e-3 0.077 1e-3 0.077v22l-1e-3 0.077-3e-3 0.077-5e-3 0.077-6e-3 0.076-9e-3 0.075-0.011 0.075-0.012 0.074-0.014 0.074-0.016 0.073-0.017 0.072-0.02 0.071-0.021 0.071-0.023 0.07-0.024 0.07-0.026 0.068-0.028 0.068-0.029 0.067-0.031 0.066-0.032 0.065-0.034 0.064-0.035 0.063-0.037 0.063-0.039 0.061-0.039 0.06-0.041 0.06-0.043 0.058-0.044 0.057-0.045 0.056-0.047 0.055-0.047 0.054-0.049 0.053-0.102 0.102-0.053 0.049-0.054 0.047-0.055 0.047-0.056 0.045-0.057 0.044-0.058 0.043-0.06 0.041-0.06 0.039-0.061 0.039-0.063 0.037-0.063 0.035-0.064 0.034-0.065 0.032-0.066 0.031-0.067 0.029-0.068 0.028-0.068 0.026-0.07 0.024-0.07 0.023-0.071 0.021-0.071 0.02-0.072 0.017-0.073 0.016-0.074 0.014-0.074 0.012-0.075 0.011-0.075 9e-3 -0.076 6e-3 -0.077 5e-3 -0.077 3e-3 -0.077 1e-3h-8l-0.077-1e-3 -0.077-3e-3 -0.077-5e-3 -0.076-6e-3 -0.075-9e-3 -0.075-0.011-0.074-0.012-0.074-0.014-0.073-0.016-0.072-0.017-0.071-0.02-0.071-0.021-0.07-0.023-0.07-0.024-0.068-0.026-0.068-0.028-0.067-0.029-0.066-0.031-0.065-0.032-0.064-0.034-0.063-0.035-0.063-0.037-0.061-0.039-0.06-0.039-0.06-0.041-0.058-0.043-0.057-0.044-0.056-0.045-0.055-0.047-0.054-0.047-0.053-0.049-0.102-0.102-0.049-0.053-0.047-0.054-0.047-0.055-0.045-0.056-0.044-0.057-0.043-0.058-0.041-0.06-0.039-0.06-0.039-0.061-0.037-0.063-0.035-0.063-0.034-0.064-0.032-0.065-0.031-0.066-0.029-0.067-0.028-0.068-0.026-0.068-0.024-0.07-0.023-0.07-0.021-0.071-0.02-0.071-0.017-0.072-0.016-0.073-0.014-0.074-0.012-0.074-0.011-0.075-9e-3 -0.075-6e-3 -0.076-5e-3 -0.077-3e-3 -0.077-1e-3 -0.077v-22l1e-3 -0.077 3e-3 -0.077 5e-3 -0.077 6e-3 -0.076 9e-3 -0.075 0.011-0.075 0.012-0.074 0.014-0.074 0.016-0.073 0.017-0.072 0.02-0.071 0.021-0.071 0.023-0.07 0.024-0.07 0.026-0.068 0.028-0.068 0.029-0.067 0.031-0.066 0.032-0.065 0.034-0.064 0.035-0.063 0.037-0.063 0.039-0.061 0.039-0.06 0.041-0.06 0.043-0.058 0.044-0.057 0.045-0.056 0.047-0.055 0.047-0.054 0.049-0.053 0.102-0.102 0.053-0.049 0.054-0.047 0.055-0.047 0.056-0.045 0.057-0.044 0.058-0.043 0.06-0.041 0.06-0.039 0.061-0.039 0.063-0.037 0.063-0.035 0.064-0.034 0.065-0.032 0.066-0.031 0.067-0.029 0.068-0.028 0.068-0.026 0.07-0.024 0.07-0.023 0.071-0.021 0.071-0.02 0.072-0.017 0.073-0.016 0.074-0.014 0.074-0.012 0.075-0.011 0.075-9e-3 0.076-6e-3 0.077-5e-3 0.077-3e-3 0.077-1e-3h8l0.077 1e-3zm-8.071 0.999-0.058 1e-3 -0.052 2e-3 -0.051 3e-3 -0.051 4e-3 -0.05 6e-3 -0.05 7e-3 -0.049 8e-3 -0.098 0.02-0.048 0.012-0.047 0.013-0.047 0.014-0.047 0.015-0.046 0.016-0.045 0.017-0.09 0.038-0.044 0.021-0.043 0.021-0.043 0.023-0.042 0.023-0.041 0.025-0.041 0.026-0.04 0.026-0.04 0.028-0.039 0.028-0.038 0.029-0.038 0.03-0.036 0.031-0.036 0.032-0.036 0.033-0.068 0.068-0.033 0.036-0.032 0.036-0.031 0.036-0.03 0.038-0.029 0.038-0.029 0.039-0.027 0.04-0.026 0.04-0.026 0.041-0.025 0.041-0.023 0.042-0.023 0.043-0.021 0.043-0.021 0.044-0.038 0.09-0.017 0.045-0.016 0.046-0.015 0.047-0.014 0.047-0.013 0.047-0.012 0.048-0.02 0.098-8e-3 0.049-7e-3 0.05-6e-3 0.05-4e-3 0.051-3e-3 0.051-2e-3 0.052-1e-3 0.058v21.988l1e-3 0.058 2e-3 0.052 3e-3 0.051 4e-3 0.051 6e-3 0.05 7e-3 0.05 8e-3 0.049 0.02 0.098 0.012 0.048 0.013 0.047 0.014 0.047 0.015 0.047 0.016 0.046 0.017 0.045 0.038 0.09 0.021 0.044 0.021 0.043 0.023 0.043 0.023 0.042 0.025 0.041 0.026 0.041 0.026 0.04 0.028 0.04 0.028 0.039 0.029 0.038 0.03 0.038 0.031 0.036 0.032 0.036 0.033 0.036 0.068 0.068 0.036 0.033 0.036 0.032 0.036 0.031 0.038 0.03 0.038 0.029 0.078 0.056 0.082 0.052 0.041 0.025 0.042 0.023 0.043 0.023 0.043 0.021 0.044 0.021 0.09 0.038 0.045 0.017 0.046 0.016 0.047 0.015 0.047 0.014 0.047 0.013 0.048 0.012 0.098 0.02 0.049 8e-3 0.05 7e-3 0.05 6e-3 0.051 4e-3 0.051 3e-3 0.052 2e-3 0.058 1e-3h7.988l0.058-1e-3 0.052-2e-3 0.051-3e-3 0.051-4e-3 0.05-6e-3 0.05-7e-3 0.049-8e-3 0.098-0.02 0.048-0.012 0.047-0.013 0.047-0.014 0.047-0.015 0.046-0.016 0.045-0.017 0.09-0.038 0.044-0.021 0.043-0.021 0.043-0.023 0.042-0.023 0.041-0.025 0.082-0.052 0.078-0.056 0.038-0.029 0.038-0.03 0.036-0.031 0.036-0.032 0.036-0.033 0.068-0.068 0.033-0.036 0.032-0.036 0.031-0.036 0.03-0.038 0.029-0.038 0.028-0.039 0.028-0.04 0.026-0.04 0.026-0.041 0.025-0.041 0.023-0.042 0.023-0.043 0.021-0.043 0.021-0.044 0.038-0.09 0.017-0.045 0.016-0.046 0.015-0.047 0.014-0.047 0.013-0.047 0.012-0.048 0.02-0.098 8e-3 -0.049 7e-3 -0.05 6e-3 -0.05 4e-3 -0.051 3e-3 -0.051 2e-3 -0.052 1e-3 -0.058v-21.988l-1e-3 -0.058-2e-3 -0.052-3e-3 -0.051-4e-3 -0.051-6e-3 -0.05-7e-3 -0.05-8e-3 -0.049-0.02-0.098-0.012-0.048-0.013-0.047-0.014-0.047-0.015-0.047-0.016-0.046-0.017-0.045-0.038-0.09-0.021-0.044-0.021-0.043-0.023-0.043-0.023-0.042-0.025-0.041-0.026-0.041-0.026-0.04-0.027-0.04-0.029-0.039-0.029-0.038-0.03-0.038-0.031-0.036-0.032-0.036-0.033-0.036-0.068-0.068-0.036-0.033-0.036-0.032-0.036-0.031-0.038-0.03-0.038-0.029-0.039-0.028-0.04-0.028-0.04-0.026-0.041-0.026-0.041-0.025-0.042-0.023-0.043-0.023-0.043-0.021-0.044-0.021-0.09-0.038-0.045-0.017-0.046-0.016-0.047-0.015-0.047-0.014-0.047-0.013-0.048-0.012-0.098-0.02-0.049-8e-3 -0.05-7e-3 -0.05-6e-3 -0.051-4e-3 -0.051-3e-3 -0.052-2e-3 -0.058-1e-3h-7.988z" fill="#a7a7a7"/>
            <path d="m19 8c0 1.656-1.344 3-3 3s-3-1.344-3-3 1.344-3 3-3 3 1.344 3 3z" fill="#ff2626"/>
            <path d="m19 16c0 1.656-1.344 3-3 3s-3-1.344-3-3 1.344-3 3-3 3 1.344 3 3z" fill="#ffc117"/>
            <path d="m19 24c0 1.656-1.344 3-3 3s-3-1.344-3-3 1.344-3 3-3 3 1.344 3 3z" fill="#40ca00"/>
        </g>
    </g>
</svg>
