<?xml version="1.0" encoding="UTF-8"?>
<!DOCTYPE svg  PUBLIC '-//W3C//DTD SVG 1.1//EN'  'http://www.w3.org/Graphics/SVG/1.1/DTD/svg11.dtd'>
<svg clip-rule="evenodd" fill-rule="evenodd" stroke-linecap="round" stroke-miterlimit="1.5" version="1.1" viewBox="0 0 32 32" xml:space="preserve" xmlns="http://www.w3.org/2000/svg">
<metadata>
<rdf:RDF xmlns:cc="http://web.resource.org/cc/" xmlns:dc="http://purl.org/dc/elements/1.1/" xmlns:rdf="http://www.w3.org/1999/02/22-rdf-syntax-ns#">

     <rdf:Description rdf:about="">
       <dc:title>Mutant Standard emoji 2023.12</dc:title>
     </rdf:Description>

    <cc:work rdf:about="">
        <cc:license rdf:resource="http://creativecommons.org/licenses/by-nc-sa/4.0/"/>
        <cc:attributionName>Caius Nocturne</cc:attributionName>
        <cc:attributionURL>http://mutant.tech/</cc:attributionURL>
    </cc:work>

</rdf:RDF>
</metadata>

    <rect id="trolleybus" width="32" height="32" fill="none"/>
    <clipPath id="_clip1">
        <rect width="32" height="32"/>
    </clipPath>
    <g clip-path="url(#_clip1)">
        <g id="outline">
            <path d="m5.171 28h-2.171c-0.552 0-1-0.448-1-1v-18c0-0.265 0.105-0.52 0.293-0.707 0.187-0.188 0.442-0.293 0.707-0.293h24.438c0.918 0 1.718 0.625 1.941 1.515 0.21 0.843 0.452 1.808 0.561 2.246 0.04 0.159 0.06 0.322 0.06 0.485v14.754c0 0.552-0.448 1-1 1h-2.171c-0.412 1.165-1.524 2-2.829 2s-2.417-0.835-2.829-2h-10.342c-0.412 1.165-1.524 2-2.829 2s-2.417-0.835-2.829-2z" fill="none" stroke="#000" stroke-width="4px"/>
            <path d="m15 9 6-3-6-3h-1" fill="none" stroke="#000" stroke-linecap="butt" stroke-linejoin="round" stroke-width="6px"/>
            <rect x="11" y="2" width="5" height="7"/>
            <path d="m14 4-1 1h-1v-3h3v2h-1z" fill="none" stroke="#000" stroke-linejoin="round" stroke-width="4px"/>
        </g>
        <g id="emoji">
            <path d="m15 9 6-3-6-3h-1" fill="none" stroke="#737373" stroke-linecap="square" stroke-linejoin="round" stroke-width="2px"/>
            <path d="m14 4-1 1h-1v-3h3v2h-1z" fill="#8c8c8c"/>
            
                <path d="m29.526 10.105 0.414 1.656c0.04 0.159 0.06 0.322 0.06 0.485v9.754l-0.613 1v2l0.613 1v1c0 0.265-0.105 0.52-0.293 0.707-0.187 0.188-0.442 0.293-0.707 0.293h-1l-1-1h-6l-1 1h-8l-1-1h-6l-1 1h-1c-0.265 0-0.52-0.105-0.707-0.293-0.188-0.187-0.293-0.442-0.293-0.707v-1l0.522-0.5-0.522-0.5v-1l1-1-1-1v-11.895l1-1.105h25l1.526 1.105z" fill="#29b166"/>
                <path d="m2 10.105v-1.105c0-0.552 0.448-1 1-1h24.438c0.918 0 1.718 0.625 1.941 1.515l0.147 0.59h-27.526z" fill="#45d483"/>
                <path d="m30 22h-28v2h27l1-1v-1z" fill="#dee139"/>
                <g fill="#1c7b45">
                    <rect x="13" y="25" width="2" height="1"/>
                    <rect x="2" y="25" width="1" height="1"/>
                    <rect x="17" y="25" width="2" height="1"/>
                </g>
                <path d="m30 23h-1e-3c-0.552 0-0.999 0.447-0.999 0.999v1.001c0 0.552 0.448 1 1 1v-3z" fill="#2c2c2c"/>
            
            
                <path d="m12 26.812c0-1.011-0.402-1.981-1.117-2.695-0.715-0.715-1.684-1.117-2.695-1.117h-0.376c-1.011 0-1.98 0.402-2.695 1.117-0.715 0.714-1.117 1.684-1.117 2.695v1.188h8v-1.188z" fill="#333"/>
                <circle cx="8" cy="27" r="3" fill="#5a5a5a"/>
                <circle cx="8" cy="27" r="1.5" fill="#bfbfbf"/>
            
            
                <path d="m28 26.812c0-1.011-0.402-1.981-1.117-2.695-0.715-0.715-1.684-1.117-2.695-1.117h-0.376c-1.011 0-1.98 0.402-2.695 1.117-0.715 0.714-1.117 1.684-1.117 2.695v1.188h8v-1.188z" fill="#333"/>
                <circle cx="24" cy="27" r="3" fill="#5a5a5a"/>
                <circle cx="24" cy="27" r="1.5" fill="#bfbfbf"/>
            
            <path d="m26 13c0-0.265-0.105-0.52-0.293-0.707-0.187-0.188-0.442-0.293-0.707-0.293h-4l-1 1-1-1h-9l-1 1-1-1h-4c-0.265 0-0.52 0.105-0.707 0.293-0.188 0.187-0.293 0.442-0.293 0.707v7c0 0.265 0.105 0.52 0.293 0.707 0.187 0.188 0.442 0.293 0.707 0.293h4l1-1 1 1h9l1-1 1 1h4c0.265 0 0.52-0.105 0.707-0.293 0.188-0.187 0.293-0.442 0.293-0.707v-7z"/>
            <path d="m31 12h-3c-0.552 0-1 0.448-1 1v7c0 0.552 0.448 1 1 1h3v-9z"/>
            <rect x="8" y="12" width="2" height="9" fill="#333"/>
            <rect x="19" y="12" width="2" height="9" fill="#333"/>
        </g>
    </g>
</svg>
