<?xml version="1.0" encoding="UTF-8"?>
<!DOCTYPE svg  PUBLIC '-//W3C//DTD SVG 1.1//EN'  'http://www.w3.org/Graphics/SVG/1.1/DTD/svg11.dtd'>
<svg clip-rule="evenodd" fill-rule="evenodd" stroke-linejoin="round" stroke-miterlimit="1.5" version="1.1" viewBox="0 0 32 32" xml:space="preserve" xmlns="http://www.w3.org/2000/svg" xmlns:serif="http://www.serif.com/">
<metadata>
<rdf:RDF xmlns:cc="http://web.resource.org/cc/" xmlns:dc="http://purl.org/dc/elements/1.1/" xmlns:rdf="http://www.w3.org/1999/02/22-rdf-syntax-ns#">

     <rdf:Description rdf:about="">
       <dc:title>Mutant Standard emoji 2023.12</dc:title>
     </rdf:Description>

    <cc:work rdf:about="">
        <cc:license rdf:resource="http://creativecommons.org/licenses/by-nc-sa/4.0/"/>
        <cc:attributionName>Caius Nocturne</cc:attributionName>
        <cc:attributionURL>http://mutant.tech/</cc:attributionURL>
    </cc:work>

</rdf:RDF>
</metadata>
<rect id="_5_00" width="32" height="32" fill="none" serif:id="5_00"/><clipPath id="_clip1"><rect width="32" height="32"/></clipPath><g clip-path="url(#_clip1)"><g id="outline"><path d="m16.186 1e-3 0.186 4e-3 0.186 5e-3 0.186 8e-3 0.185 0.011 0.185 0.012 0.184 0.015 0.185 0.017 0.183 0.02 0.184 0.021 0.183 0.024 0.182 0.026 0.182 0.029 0.182 0.03 0.181 0.033 0.18 0.035 0.18 0.037 0.179 0.039 0.179 0.042 0.178 0.043 0.178 0.046 0.177 0.048 0.176 0.05 0.176 0.052 0.174 0.055 0.175 0.056 0.173 0.059 0.173 0.06 0.172 0.063 0.171 0.065 0.17 0.067 0.169 0.069 0.169 0.071 0.168 0.073 0.166 0.075 0.166 0.077 0.165 0.079 0.164 0.082 0.163 0.083 0.162 0.085 0.161 0.087 0.16 0.089 0.159 0.092 0.158 0.093 0.157 0.095 0.156 0.097 0.155 0.099 0.153 0.101 0.152 0.103 0.151 0.105 0.15 0.107 0.149 0.108 0.148 0.111 0.146 0.112 0.145 0.115 0.143 0.116 0.143 0.118 0.141 0.12 0.139 0.122 0.139 0.123 0.137 0.126 0.135 0.127 0.134 0.129 0.133 0.131 0.131 0.133 0.129 0.134 0.127 0.135 0.125 0.137 0.124 0.139 0.122 0.139 0.12 0.141 0.118 0.143 0.116 0.143 0.115 0.145 0.112 0.146 0.111 0.148 0.108 0.149 0.107 0.149 0.105 0.152 0.103 0.152 0.101 0.153 0.099 0.155 0.097 0.156 0.095 0.157 0.093 0.158 0.092 0.159 0.089 0.16 0.087 0.161 0.085 0.162 0.083 0.163 0.082 0.164 0.079 0.165 0.077 0.166 0.075 0.166 0.073 0.168 0.071 0.169 0.069 0.169 0.067 0.17 0.065 0.172 0.063 0.171 0.06 0.173 0.059 0.173 0.056 0.175 0.055 0.174 0.052 0.176 0.05 0.176 0.048 0.177 0.046 0.178 0.043 0.178 0.042 0.179 0.039 0.179 0.037 0.18 0.035 0.18 0.033 0.181 0.03 0.182 0.029 0.182 0.026 0.182 0.024 0.183 0.021 0.184 0.02 0.184 0.017 0.184 0.015 0.184 0.012 0.185 0.011 0.185 8e-3 0.186 5e-3 0.186 4e-3 0.186 1e-3 0.18v2.012l-1e-3 0.187-4e-3 0.193-6e-3 0.192-8e-3 0.192-0.011 0.191-0.014 0.191-0.015 0.19-0.018 0.189-0.021 0.189-0.022 0.188-0.025 0.187-0.028 0.187-0.029 0.186-0.032 0.185-0.034 0.184-0.037 0.184-0.038 0.183-0.041 0.182-0.043 0.181-0.045 0.18-0.048 0.18-0.049 0.178-0.052 0.178-0.054 0.177-0.056 0.176-0.058 0.175-0.06 0.174-0.062 0.173-0.064 0.172-0.066 0.17-0.068 0.17-0.071 0.169-0.072 0.168-0.074 0.167-0.076 0.166-0.078 0.164-0.08 0.164-0.082 0.162-0.084 0.161-0.086 0.16-0.087 0.159-0.089 0.158-0.092 0.156-0.093 0.156-0.095 0.153-0.096 0.153-0.099 0.152-0.1 0.15-0.102 0.149-0.104 0.148-0.105 0.146-0.107 0.145-0.109 0.144-0.11 0.142-0.112 0.141-0.114 0.139-0.115 0.138-0.117 0.137-0.119 0.135-0.12 0.134-0.122 0.132-0.123 0.131-0.125 0.13-0.126 0.128-0.128 0.126-0.13 0.125-0.13 0.123-0.133 0.122-0.134 0.12-0.135 0.119-0.137 0.117-0.138 0.115-0.139 0.114-0.141 0.112-0.142 0.11-0.144 0.109-0.145 0.107-0.146 0.105-0.148 0.104-0.149 0.102-0.15 0.1-0.152 0.099-0.152 0.096-0.154 0.095-0.156 0.093-0.156 0.091-0.158 0.09-0.159 0.087-0.16 0.086-0.161 0.084-0.162 0.082-0.164 0.08-0.164 0.078-0.166 0.076-0.167 0.074-0.168 0.072-0.169 0.071-0.17 0.068-0.171 0.066-0.171 0.064-0.173 0.062-0.174 0.06-0.175 0.058-0.176 0.056-0.177 0.054-0.178 0.052-0.178 0.049-0.18 0.048-0.18 0.045-0.181 0.043-0.182 0.041-0.183 0.038-0.184 0.037-0.184 0.034-0.185 0.032-0.186 0.029-0.187 0.028-0.187 0.025-0.188 0.022-0.189 0.021-0.189 0.018-0.19 0.015-0.191 0.014-0.191 0.011-0.192 8e-3 -0.192 6e-3 -0.193 4e-3 -0.193 1e-3 -0.186-1e-3 -0.186-4e-3 -0.186-5e-3 -0.186-8e-3 -0.185-0.011-0.185-0.012-0.184-0.015-0.184-0.017-0.184-0.02-0.184-0.021-0.183-0.024-0.182-0.026-0.182-0.029-0.182-0.03-0.181-0.033-0.18-0.035-0.18-0.037-0.179-0.039-0.179-0.042-0.178-0.043-0.178-0.046-0.177-0.048-0.176-0.05-0.176-0.052-0.174-0.055-0.175-0.056-0.173-0.059-0.173-0.06-0.172-0.063-0.171-0.065-0.17-0.067-0.169-0.069-0.169-0.071-0.168-0.073-0.166-0.075-0.166-0.077-0.165-0.079-0.164-0.082-0.163-0.083-0.162-0.085-0.161-0.087-0.16-0.089-0.159-0.092-0.158-0.093-0.157-0.095-0.156-0.097-0.155-0.099-0.153-0.101-0.152-0.103-0.151-0.105-0.15-0.107-0.149-0.108-0.148-0.111-0.146-0.112-0.145-0.115-0.143-0.116-0.143-0.118-0.141-0.12-0.139-0.122-0.139-0.124-0.137-0.125-0.135-0.127-0.134-0.129-0.133-0.131-0.131-0.133-0.129-0.134-0.127-0.135-0.125-0.137-0.124-0.139-0.122-0.139-0.12-0.141-0.118-0.143-0.116-0.143-0.115-0.145-0.112-0.146-0.111-0.148-0.108-0.149-0.107-0.15-0.105-0.151-0.103-0.152-0.101-0.153-0.099-0.155-0.097-0.156-0.095-0.157-0.093-0.158-0.092-0.159-0.089-0.16-0.087-0.161-0.085-0.162-0.083-0.163-0.082-0.164-0.079-0.165-0.077-0.166-0.075-0.166-0.073-0.168-0.071-0.169-0.069-0.169-0.067-0.17-0.065-0.171-0.063-0.172-0.06-0.173-0.059-0.173-0.056-0.175-0.055-0.174-0.052-0.176-0.05-0.176-0.048-0.177-0.046-0.178-0.043-0.178-0.042-0.179-0.039-0.179-0.037-0.18-0.035-0.18-0.033-0.181-0.03-0.182-0.029-0.182-0.026-0.182-0.024-0.183-0.021-0.184-0.02-0.183-0.017-0.185-0.015-0.184-0.012-0.185-0.011-0.185-8e-3 -0.186-5e-3 -0.186-4e-3 -0.186-1e-3 -0.18v-2.012l1e-3 -0.187 4e-3 -0.193 6e-3 -0.193 8e-3 -0.191 0.011-0.191 0.014-0.191 0.015-0.19 0.018-0.189 0.021-0.189 0.022-0.188 0.025-0.187 0.028-0.187 0.029-0.186 0.032-0.185 0.034-0.184 0.037-0.184 0.038-0.183 0.041-0.182 0.043-0.181 0.045-0.18 0.048-0.18 0.049-0.178 0.052-0.178 0.054-0.177 0.056-0.176 0.058-0.175 0.06-0.173 0.062-0.173 0.064-0.172 0.066-0.171 0.068-0.17 0.071-0.169 0.072-0.168 0.074-0.167 0.076-0.166 0.078-0.164 0.08-0.164 0.082-0.162 0.084-0.161 0.086-0.16 0.087-0.159 0.09-0.158 0.091-0.156 0.093-0.155 0.095-0.155 0.096-0.152 0.099-0.152 0.1-0.15 0.102-0.149 0.104-0.148 0.105-0.146 0.107-0.145 0.109-0.144 0.11-0.142 0.112-0.141 0.114-0.139 0.115-0.138 0.117-0.137 0.119-0.135 0.12-0.134 0.122-0.132 0.123-0.131 0.125-0.13 0.126-0.128 0.128-0.126 0.13-0.125 0.131-0.123 0.132-0.122 0.134-0.12 0.135-0.119 0.137-0.117 0.138-0.115 0.139-0.114 0.141-0.112 0.142-0.11 0.144-0.109 0.145-0.107 0.146-0.105 0.148-0.104 0.149-0.102 0.15-0.1 0.152-0.099 0.152-0.096 0.154-0.095 0.156-0.093 0.156-0.091 0.158-0.09 0.159-0.087 0.16-0.086 0.161-0.084 0.162-0.082 0.164-0.08 0.164-0.078 0.166-0.076 0.167-0.074 0.168-0.072 0.169-0.071 0.17-0.068 0.171-0.066 0.172-0.064 0.172-0.062 0.174-0.06 0.175-0.058 0.176-0.056 0.177-0.054 0.178-0.052 0.178-0.049 0.18-0.048 0.18-0.045 0.181-0.043 0.182-0.041 0.183-0.038 0.184-0.037 0.184-0.034 0.185-0.032 0.186-0.029 0.187-0.028 0.187-0.025 0.188-0.022 0.189-0.021 0.189-0.018 0.19-0.015 0.191-0.014 0.191-0.011 0.192-8e-3 0.192-6e-3 0.193-4e-3 0.187-1e-3h0.012l0.18 1e-3zm-0.329 4-0.142 3e-3 -0.142 4e-3 -0.141 6e-3 -0.14 8e-3 -0.141 0.01-0.139 0.012-0.139 0.013-0.139 0.015-0.138 0.017-0.137 0.018-0.137 0.02-0.136 0.022-0.136 0.023-0.135 0.025-0.134 0.027-0.134 0.028-0.133 0.03-0.133 0.031-0.132 0.033-0.131 0.035-0.13 0.036-0.13 0.038-0.13 0.039-0.128 0.041-0.256 0.086-0.126 0.046-0.126 0.047-0.125 0.048-0.124 0.05-0.124 0.052-0.123 0.053-0.122 0.054-0.121 0.056-0.121 0.057-0.12 0.058-0.119 0.06-0.118 0.062-0.117 0.062-0.232 0.13-0.115 0.067-0.113 0.068-0.113 0.07-0.112 0.071-0.112 0.072-0.11 0.073-0.109 0.075-0.108 0.076-0.108 0.078-0.106 0.078-0.106 0.08-0.104 0.081-0.104 0.083-0.102 0.083-0.102 0.085-0.1 0.086-0.099 0.087-0.099 0.088-0.097 0.09-0.096 0.09-0.095 0.092-0.094 0.093-0.093 0.094-0.092 0.095-0.09 0.096-0.09 0.097-0.088 0.099-0.087 0.099-0.086 0.1-0.085 0.102-0.083 0.102-0.083 0.104-0.081 0.104-0.08 0.106-0.078 0.106-0.078 0.108-0.076 0.108-0.075 0.109-0.073 0.11-0.072 0.112-0.071 0.112-0.07 0.113-0.068 0.113-0.067 0.115-0.13 0.232-0.062 0.117-0.062 0.118-0.06 0.119-0.058 0.12-0.057 0.121-0.056 0.121-0.055 0.122-0.052 0.123-0.052 0.124-0.05 0.124-0.048 0.125-0.047 0.126-0.046 0.126-0.086 0.256-0.041 0.128-0.039 0.13-0.038 0.13-0.036 0.13-0.035 0.131-0.033 0.132-0.031 0.133-0.03 0.133-0.028 0.134-0.027 0.134-0.025 0.135-0.023 0.136-0.022 0.136-0.02 0.137-0.018 0.137-0.017 0.138-0.015 0.139-0.013 0.139-0.012 0.139-0.01 0.141-8e-3 0.14-6e-3 0.141-4e-3 0.142-3e-3 0.142-1e-3 0.149v1.988l1e-3 0.143 2e-3 0.136 5e-3 0.136 6e-3 0.137 7e-3 0.135 9e-3 0.136 0.011 0.135 0.013 0.135 0.014 0.135 0.016 0.134 0.017 0.135 0.02 0.133 0.02 0.134 0.023 0.133 0.024 0.133 0.025 0.132 0.028 0.132 0.028 0.131 0.031 0.132 0.032 0.13 0.033 0.13 0.035 0.13 0.037 0.129 0.038 0.129 0.04 0.128 0.042 0.128 0.043 0.127 0.044 0.127 0.046 0.126 0.048 0.125 0.049 0.125 0.05 0.124 0.052 0.124 0.054 0.123 0.055 0.123 0.057 0.121 0.058 0.121 0.059 0.12 0.061 0.12 0.063 0.119 0.064 0.118 0.065 0.117 0.067 0.117 0.069 0.116 0.069 0.115 0.072 0.114 0.072 0.113 0.074 0.113 0.076 0.111 0.077 0.111 0.078 0.11 0.079 0.109 0.164 0.216 0.084 0.106 0.085 0.105 0.087 0.105 0.088 0.103 0.089 0.102 0.091 0.102 0.092 0.1 0.093 0.1 0.095 0.098 0.096 0.097 0.097 0.096 0.098 0.095 0.1 0.093 0.1 0.092 0.102 0.091 0.102 0.089 0.103 0.088 0.105 0.087 0.105 0.085 0.106 0.084 0.216 0.164 0.109 0.079 0.11 0.078 0.111 0.077 0.111 0.076 0.113 0.074 0.113 0.073 0.114 0.071 0.115 0.069 0.116 0.069 0.117 0.067 0.117 0.065 0.118 0.064 0.119 0.063 0.12 0.061 0.12 0.059 0.121 0.058 0.122 0.057 0.122 0.055 0.123 0.054 0.123 0.052 0.125 0.05 0.125 0.049 0.125 0.048 0.126 0.046 0.127 0.044 0.127 0.043 0.128 0.042 0.128 0.04 0.129 0.038 0.129 0.037 0.13 0.035 0.13 0.033 0.13 0.032 0.132 0.031 0.131 0.028 0.132 0.028 0.132 0.025 0.133 0.024 0.133 0.023 0.134 0.02 0.133 0.02 0.135 0.017 0.134 0.016 0.135 0.014 0.135 0.013 0.135 0.011 0.136 9e-3 0.135 7e-3 0.137 6e-3 0.136 5e-3 0.136 2e-3 0.137 1e-3 0.143-1e-3 0.142-3e-3 0.142-4e-3 0.141-6e-3 0.14-8e-3 0.14-0.01 0.14-0.012 0.139-0.013 0.139-0.015 0.138-0.017 0.137-0.018 0.137-0.02 0.136-0.022 0.136-0.023 0.135-0.025 0.134-0.027 0.134-0.028 0.133-0.03 0.133-0.031 0.132-0.033 0.131-0.035 0.13-0.036 0.13-0.038 0.13-0.039 0.128-0.041 0.256-0.086 0.126-0.046 0.126-0.047 0.125-0.048 0.124-0.05 0.124-0.052 0.123-0.053 0.122-0.054 0.121-0.056 0.121-0.057 0.12-0.058 0.119-0.06 0.118-0.062 0.117-0.062 0.232-0.13 0.115-0.067 0.113-0.068 0.113-0.07 0.112-0.071 0.112-0.072 0.11-0.073 0.109-0.075 0.108-0.076 0.108-0.078 0.106-0.078 0.106-0.08 0.104-0.081 0.104-0.083 0.102-0.083 0.102-0.085 0.1-0.086 0.099-0.087 0.099-0.088 0.097-0.09 0.096-0.09 0.095-0.092 0.094-0.093 0.093-0.094 0.092-0.095 0.09-0.096 0.09-0.097 0.088-0.099 0.087-0.099 0.086-0.1 0.085-0.102 0.083-0.102 0.083-0.104 0.081-0.104 0.08-0.106 0.078-0.106 0.078-0.108 0.076-0.108 0.074-0.109 0.074-0.111 0.072-0.111 0.071-0.112 0.07-0.113 0.068-0.113 0.067-0.115 0.13-0.232 0.062-0.117 0.062-0.118 0.06-0.119 0.058-0.12 0.057-0.121 0.056-0.121 0.054-0.122 0.053-0.123 0.052-0.124 0.05-0.124 0.048-0.125 0.047-0.126 0.046-0.126 0.086-0.256 0.041-0.128 0.039-0.129 0.038-0.13 0.036-0.131 0.035-0.131 0.033-0.132 0.031-0.133 0.03-0.133 0.028-0.134 0.027-0.134 0.025-0.136 0.023-0.135 0.022-0.136 0.02-0.137 0.018-0.138 0.017-0.137 0.015-0.139 0.013-0.139 0.012-0.14 0.01-0.14 8e-3 -0.14 6e-3 -0.141 4e-3 -0.142 3e-3 -0.142 1e-3 -0.149v-1.988l-1e-3 -0.143-2e-3 -0.136-5e-3 -0.137-6e-3 -0.135-7e-3 -0.136-9e-3 -0.136-0.011-0.135-0.013-0.135-0.014-0.135-0.016-0.134-0.017-0.135-0.02-0.133-0.02-0.134-0.023-0.133-0.024-0.133-0.025-0.132-0.028-0.132-0.028-0.131-0.031-0.132-0.032-0.13-0.033-0.13-0.035-0.13-0.037-0.129-0.038-0.129-0.04-0.128-0.042-0.128-0.043-0.127-0.044-0.127-0.046-0.126-0.048-0.125-0.049-0.125-0.05-0.124-0.052-0.124-0.054-0.123-0.055-0.122-0.057-0.122-0.058-0.121-0.059-0.12-0.061-0.12-0.063-0.119-0.064-0.118-0.065-0.117-0.067-0.117-0.069-0.116-0.069-0.115-0.071-0.114-0.073-0.113-0.074-0.113-0.076-0.112-0.076-0.11-0.079-0.11-0.079-0.109-0.164-0.216-0.084-0.106-0.085-0.105-0.087-0.105-0.088-0.103-0.089-0.102-0.091-0.102-0.092-0.1-0.093-0.1-0.095-0.098-0.096-0.097-0.097-0.096-0.098-0.095-0.1-0.093-0.1-0.092-0.102-0.091-0.102-0.089-0.103-0.088-0.105-0.087-0.105-0.085-0.106-0.084-0.216-0.164-0.109-0.079-0.11-0.078-0.11-0.077-0.112-0.076-0.113-0.074-0.113-0.073-0.114-0.071-0.115-0.069-0.116-0.069-0.117-0.067-0.117-0.065-0.118-0.064-0.119-0.063-0.12-0.061-0.12-0.059-0.121-0.058-0.122-0.057-0.122-0.055-0.123-0.054-0.124-0.052-0.124-0.05-0.125-0.049-0.125-0.048-0.126-0.046-0.127-0.044-0.127-0.043-0.128-0.042-0.128-0.04-0.129-0.038-0.129-0.037-0.13-0.035-0.13-0.033-0.13-0.032-0.132-0.031-0.131-0.028-0.132-0.028-0.132-0.025-0.133-0.024-0.133-0.023-0.134-0.02-0.133-0.02-0.134-0.017-0.135-0.016-0.135-0.014-0.135-0.013-0.135-0.011-0.136-9e-3 -0.135-7e-3 -0.137-6e-3 -0.136-5e-3 -0.136-2e-3 -0.137-1e-3 -0.143 1e-3z"/></g><g id="emoji"><path d="m29 15h-26v2.002c0 7.179 5.819 12.998 12.998 12.998h2e-3c7.18 0 13-5.82 13-13v-2z" fill="#595959"/><circle cx="16" cy="15" r="13" fill="#a6a6a6"/><circle cx="16" cy="15" r="11.5" fill="#fff"/><path d="m19 20.196-3-5.196" fill="none" stroke="#000" stroke-width="2px"/><path d="m16 15v-9" fill="none" stroke="#000" stroke-width="2px"/><circle cx="16" cy="15" r="1"/></g></g></svg>
