<?xml version="1.0" encoding="UTF-8"?>
<svg width="571" height="562" fill="none" viewBox="0 0 571 562" xmlns="http://www.w3.org/2000/svg">
 <path d="m249.12 32.7c-2.84-2.02-4.43-5.3701-4.18-8.8401 0.25-3.48 2.29-6.5699 5.38-8.1599 18.28-9.57 38.89-14.78 60.23-14.78 46.64 0 89.75 24.88 113.07 65.28l4.59 7.9499c0.55 0.96 1.58 1.5501 2.69 1.5501h9.17c46.65 0 89.75 24.89 113.08 65.28 23.32 40.4 23.32 90.17 0 130.57l-4.59 7.95c-0.56 0.96-0.56 2.14 0 3.1l4.59 7.94c23.32 40.4 23.32 90.17 0 130.57-23.33 40.4-66.43 65.28-113.08 65.28h-9.17c-1.11 0-2.14 0.59-2.69 1.55l-4.59 7.95c-23.32 40.4-66.43 65.28-113.07 65.28-46.65 0-89.75-24.88-113.07-65.28l-4.59-7.95c-0.56-0.96-1.58-1.55-2.69-1.55h-9.18c-46.64 0-89.75-24.88-113.07-65.28-18.18-31.5-22.19-68.7-12.02-102.71 0.95-3.1 3.37-5.53 6.47-6.49 3.09-0.96 6.47-0.32 9 1.71 0.71 0.53 1.4 1.08 2.11 1.62 2.14 1.62 3.0201 4.41 2.1801 6.96-9.36 29.32-6.1601 61.64 9.5799 88.91 19.75 34.21 56.25 55.28 95.75 55.28h9.18c8.25 0 15.88 4.41 20.01 11.55l4.58 7.95c19.76 34.21 56.26 55.28 95.76 55.28s76-21.07 95.75-55.28l4.59-7.95c4.13-7.14 11.75-11.55 20.01-11.55h9.17c39.5 0 76.01-21.07 95.76-55.28s19.75-76.36 0-110.57l-4.59-7.94c-4.13-7.15-4.13-15.96 0-23.1l4.59-7.95c19.75-34.21 19.75-76.36 0-110.57s-56.26-55.28-95.76-55.28h-9.17c-8.26 0-15.88-4.4001-20.01-11.55l-4.59-7.9499c-19.75-34.21-56.25-55.28-95.75-55.28-18.81 0-36.95 4.78-52.91 13.48-2.2 1.22-4.9 1.02-6.89-0.51-0.53-0.42-1.08-0.8099-1.63-1.1899zm-115.24 227.9-128.45-170.86c-4.07-5.42-5.82-12.23-4.87-18.94s4.5299-12.77 9.9399-16.84h0.01c5.41-4.07 12.23-5.8302 18.94-4.8802s12.76 4.53 16.84 9.95l52.11 69.33c0.54 0.71 1.5001 0.94 2.3 0.55 0.8-0.39 1.2-1.3 0.97-2.15l-24.67-89.84c-1.82-6.62-0.9299-13.68 2.4601-19.65 3.4-5.96 9.03-10.34 15.64-12.15 6.6199-1.82 13.69-0.93004 19.66 2.46 5.96 3.39 10.33 9.0202 12.15 15.64l20.2 73.56c0.2 0.72 0.05 1.4901-0.41 2.0801-0.45 0.59-1.15 0.9299-1.9 0.9299-11.39 0.04-21.79 7.6702-24.88 19.2l-16.16 60.31c-0.9 3.38 0.93 6.89 4.22 8.08 1.87 0.67 3.93 0.53 5.69-0.39s3.06-2.53 3.57-4.45l16.07-59.97c1.72-6.43 8.34-10.25 14.77-8.52l0.05 0.01c1.41 0.38 2.78 0.84 4.1 1.39 5.98 2.45 11.15 6.54 14.92 11.8 0.09 0.13 0.18 0.25 0.27 0.38 0.54 0.79 1.06 1.6 1.54 2.44 2.82 4.87 4.37 10.32 4.58 15.84 0.14 3.43-0.24 6.88-1.14 10.25l-17.55 65.49c-0.98 3.66 1.17 7.43 4.82 8.45h0.01c1.78 0.5 3.69 0.26 5.3-0.66 1.61-0.91 2.78-2.44 3.26-4.23l10.64-39.71c8.91 6.63 20.84 8.9 32.14 5.03 8.95-3.07 15.85-9.42 19.8-17.24 0.39-0.78 1.09-1.35 1.92-1.59 0.83-0.23 1.73-0.1 2.46 0.37 8.59 5.35 19.42 6.93 29.74 3.39 6.2-2.12 11.42-5.82 15.35-10.5l4.82 12.74c9.36 24.79-0.99 52.68-24.25 65.36l-59.15 32.25c-23.13 12.61-52.01 6.34-67.83-14.71zm67.93-161.69 17.77 51.86c3.75 10.96-2.09 22.89-13.06 26.65-7.18 2.46-14.79 0.8-20.23-3.72-2.08-1.73-2.97-4.5-2.27-7.11 0.75-3.04 1.77-6.85 1.77-6.85 3.31-12.35 1.57-25.52-4.83-36.6l-0.02-0.04c-4.27-7.39-10.4-13.45-17.67-17.64-1.25-0.7-1.85-2.16-1.46-3.53 1.54-5.3801 5.6-9.9502 11.3-11.91l6.2-2.1199c9.25-3.17 19.33 1.76 22.5 11.01zm72.08 49.1c-1.77 6.48-6.61 12-13.44 14.34-10.97 3.76-22.9-2.08-26.66-13.05l-13.26-38.69c-0.08-0.23-0.15-0.45-0.22-0.68-2.71-9.06 2.21-18.72 11.23-21.82l6.2-2.1202c9.25-3.17 19.32 1.7601 22.5 11.01l13.26 38.7c1.41 4.13 1.46 8.4 0.39 12.31zm97.22 30.79 37.93 83.2h-26.67l-4.04-11.01h-25.94l-4.04 11.01h-26.67l37.93-83.2h11.5zm-5.75 36.95-6.24 16.89h12.48l-6.24-16.89zm96.45 26.06v20.19h-50.53v-20.19h13.83v-41.6h-13.83v-20.18h50.53v20.18h-13.82v41.6h13.82zm-225.12 97.64v20.19h-29.12v27.65h-22.88v-81.98h58.12v20.19h-35.24v13.95h29.12zm52.04-34.14c4.16 0 8.22 0.57 12.17 1.72 3.96 1.14 7.53 2.89 10.71 5.26 3.18 2.36 5.73 5.34 7.65 8.93 1.91 3.59 2.87 7.79 2.87 12.6 0 6.12-1.73 11.18-5.2 15.17-3.47 4-7.89 6.73-13.27 8.2l22.63 30.1h-27.89l-21.91-32.55v32.55h-22.88v-81.98h35.12zm-12.24 21.42v15.29c1.39 0.49 2.88 0.9 4.47 1.22 1.59 0.33 3.28 0.49 5.08 0.49 3.59 0 6.58-0.71 8.99-2.14s3.61-3.61 3.61-6.54c0-3.35-1.2-5.57-3.61-6.67s-5.4-1.65-8.99-1.65h-9.55zm109.3 10.52v17.13h-32.54v13.33h36.83v19.58h-59.71v-81.98h59.71v18.97h-36.83v12.97h32.54zm71.74 0v17.13h-32.55v13.33h36.83v19.58h-59.71v-81.98h59.71v18.97h-36.83v12.97h32.55z" clip-rule="evenodd" fill="#d60270" fill-rule="evenodd"/>
</svg>
