<?xml version="1.0" encoding="UTF-8"?>
<!-- Generator: Adobe Illustrator 24.3.0, SVG Export Plug-In . SVG Version: 6.00 Build 0)  -->
<svg enable-background="new 0 0 681.61 533.78" version="1.1" viewBox="0 0 681.61 533.78" xml:space="preserve" xmlns="http://www.w3.org/2000/svg" xmlns:xlink="http://www.w3.org/1999/xlink">
<style type="text/css">
	.st0{fill:#00913E;}
	.st1{fill:#0154D5;}
	.st2{fill:#EE8019;}
	.st3{fill:#F0BC00;}
	.st4{fill:#E679A6;}
	.st5{fill:#E9E7C4;}
	.st6{fill:#F5C200;}
	.st7{fill:#028B3F;}
	.st8{fill:#DC0816;}
	.st9{fill:#EA7AAC;}
	.st10{fill:#020304;}
	.st11{fill:#049DFF;}
	.st12{clip-path:url(#SVGID_2_);}
	.st13{fill:#1026B0;}
	.st14{fill:#1E1232;}
	.st15{fill:#E49924;}
	.st16{fill:#0491FF;}
	.st17{fill:none;stroke:#62FC06;stroke-width:0.3063;stroke-miterlimit:10;}
	.st18{fill:none;stroke:#000000;stroke-width:8.1291;stroke-miterlimit:10;}
	.st19{fill:none;stroke:#000000;stroke-width:0.5314;stroke-miterlimit:10;}
	.st20{fill:none;stroke:#000000;stroke-width:7.7722;stroke-miterlimit:10;}
	.st21{fill:#E7E5C2;}
	.st22{fill:#025BC7;}
	.st23{clip-path:url(#SVGID_4_);}
	.st24{clip-path:url(#SVGID_6_);}
	.st25{fill:#5B1A0E;}
	.st26{fill:#FFFFFF;}
	.st27{fill:#F69225;}
	.st28{fill:#EFEDCA;}
	.st29{fill:#561309;}
	.st30{fill:none;stroke:#000000;stroke-width:10.905;stroke-miterlimit:10;}
	.st31{fill:#EDBCD2;}
	.st32{clip-path:url(#SVGID_8_);}
	.st33{fill:none;stroke:#FBF3A0;stroke-width:1.296;stroke-miterlimit:10;}
	.st34{fill:#1F1332;}
	.st35{fill:#E69B23;}
	.st36{fill:#F08C25;}
	.st37{fill:#5D1A16;}
	.st38{fill:none;stroke:#5AFD06;stroke-width:0.9072;stroke-miterlimit:10;}
	.st39{fill:#F3B5A9;}
	.st40{fill:#E4E1BF;}
	.st41{fill:#F3AD17;}
	.st42{clip-path:url(#SVGID_10_);}
	.st43{fill:#EE6807;}
	.st44{clip-path:url(#SVGID_12_);}
	.st45{fill:#C4681F;}
	.st46{fill:#711C13;}
	.st47{clip-path:url(#SVGID_14_);}
	.st48{clip-path:url(#SVGID_14_);fill:#EDBCD2;}
	.st49{clip-path:url(#SVGID_16_);}
	.st50{fill:#DC0816;stroke:#000000;stroke-width:7.8223;stroke-miterlimit:10;}
	.st51{fill:#DC0816;stroke:#000000;stroke-width:9.4667;stroke-miterlimit:10;}
	.st52{fill:#DC0C18;}
	.st53{fill:#F7B821;}
	.st54{clip-path:url(#SVGID_18_);}
	.st55{fill:none;stroke:#05FF28;stroke-miterlimit:10;}
	.st56{fill:#CA6820;}
	.st57{display:none;fill:none;stroke:#000000;stroke-width:1.5;stroke-linecap:square;stroke-miterlimit:10;}
	.st58{fill:none;stroke:#000000;stroke-width:1.5;stroke-linecap:square;stroke-miterlimit:10;}
	.st59{fill:#008B3F;}
	.st60{fill:#F6C200;}
	.st61{fill:#B76032;}
	.st62{fill:#010101;}
	.st63{fill:#295CA8;}
	.st64{fill:#FEF1E2;}
	.st65{fill:#F39126;}
	.st66{fill:#EDEBC8;}
	.st67{fill:#1D1D1B;}
	.st68{fill:#EC79AC;}
	.st69{fill:#F5A67D;}
	.st70{filter:url(#Adobe_OpacityMaskFilter);}
	.st71{mask:url(#SVGID_19_);}
	.st72{fill:#00913F;}
	.st73{fill:#6C2F10;}
	.st74{fill:#2D57A4;}
	.st75{fill:#893E13;}
	.st76{fill:none;}
</style>







<g id="PAP">
	
		<path class="st8" d="m91.46 0s-91.46 0-91.46 91.18v351.42s0 91.19 91.46 91.19h498.7s91.46 0 91.46-91.19v-351.42s0-91.18-91.46-91.18h-498.7z"/>
		<path d="m105.65 522.42-5.1-3.17c9.36-15.07 8.45-30.91 2.63-41.12-3.91 4.93-10.38 7.24-15.83 5.5-3.38-1.08-6.24-3.96-7.47-7.53-1.12-3.24-0.75-6.58 1-9.16 1.73-2.55 4.37-4.08 7.62-4.42 4.12-0.43 9.06 1.2 12.83 4.14 0.2-1.96 0.12-3.85-0.06-5.44-1.89-16.72-16.22-29.52-27.91-37.32-14.94-9.96-31.38-17.03-48.88-21.01l1.33-5.85c18.22 4.14 35.34 11.5 50.88 21.87 18.28 12.19 28.85 26.59 30.54 41.64 0.36 3.17 0.39 7.32-0.87 11.4 10.92 14.54 8.19 36.13-0.71 50.47zm-15.78-53.97c-0.25 0-0.5 0.01-0.74 0.04-1.48 0.16-2.55 0.75-3.28 1.82-0.68 1-0.79 2.39-0.29 3.82 0.62 1.79 2.04 3.27 3.62 3.77 3.27 1.04 7.45-0.73 9.75-4.12 0.17-0.26 0.34-0.52 0.49-0.78-0.24-0.25-0.48-0.49-0.73-0.73-2.4-2.28-5.98-3.82-8.82-3.82z"/>
		<path d="m658.6 124.39-5.78-1.6c2.56-9.25 1.99-20.16-1.63-31.54-2.68-8.42-7.99-19.49-18.05-24.38-0.03-0.01-0.05-0.02-0.08-0.04-0.57 2.25-1.53 4.33-2.86 6.09-1.86 2.46-4.3 4.11-6.87 4.64-3.45 0.71-6.94-0.66-8.69-3.41-1.92-3.01-1.42-7.29 1.21-10.41 2.93-3.47 7.29-4.66 11.6-4.43-0.04-0.25-0.09-0.5-0.15-0.76-0.78-3.54-2.67-7.1-5.8-10.88-10.01-12.13-26.56-18.61-42.15-16.53l-0.8-5.95c17.59-2.36 36.27 4.96 47.57 18.65 3.74 4.53 6.04 8.92 7.03 13.41 0.24 1.1 0.4 2.21 0.46 3.32 0.74 0.27 1.45 0.57 2.13 0.89 11.98 5.82 18.12 18.41 21.15 27.96 3.99 12.51 4.57 24.6 1.71 34.97zm-32.16-59.13c-2.39 0-4.6 0.7-6 2.36-0.89 1.06-1.22 2.54-0.74 3.31 0.4 0.62 1.47 0.96 2.42 0.76 1.14-0.23 2.31-1.08 3.29-2.37 0.86-1.15 1.49-2.52 1.86-4.02-0.28-0.03-0.55-0.04-0.83-0.04z"/>
		<path d="m103.05 92.22c-3.77 0-6.82-1.65-9.42-3.06-3.7-2-5.96-3.07-9.4-1.78l-2.11-5.62c6.17-2.31 10.71 0.15 14.36 2.12 3.7 2 5.96 3.07 9.4 1.78s4.44-3.58 5.91-7.52c1.45-3.89 3.26-8.73 9.42-11.04 6.17-2.32 10.71 0.15 14.37 2.12 3.7 2 5.96 3.07 9.4 1.78s4.44-3.58 5.91-7.52c1.45-3.89 3.26-8.73 9.43-11.04s10.71 0.15 14.36 2.12c3.7 2 5.96 3.07 9.4 1.78s4.44-3.58 5.91-7.53c1.45-3.89 3.26-8.73 9.43-11.04s10.71 0.15 14.37 2.12c3.7 2 5.96 3.07 9.4 1.78s4.44-3.58 5.92-7.53c1.45-3.89 3.26-8.73 9.43-11.04l2.11 5.62c-3.44 1.29-4.44 3.58-5.92 7.53-1.45 3.89-3.26 8.73-9.43 11.04-6.17 2.32-10.71-0.14-14.37-2.12-3.7-2-5.96-3.07-9.4-1.78s-4.44 3.58-5.91 7.53c-1.45 3.89-3.26 8.73-9.43 11.04s-10.71-0.15-14.36-2.12c-3.7-2-5.96-3.07-9.4-1.78s-4.44 3.58-5.91 7.52c-1.45 3.89-3.26 8.73-9.43 11.04s-10.71-0.15-14.36-2.12c-3.7-2-5.96-3.07-9.4-1.78s-4.44 3.58-5.91 7.52c-1.45 3.89-3.26 8.73-9.42 11.04-1.79 0.67-3.43 0.94-4.95 0.94z"/>
		<path d="m641.42 392.15-5.97-0.58c0.36-3.66-1.26-5.57-4.15-8.62-2.85-3.02-6.4-6.77-5.77-13.33 0.64-6.56 4.85-9.56 8.23-11.96 3.43-2.44 5.38-4 5.74-7.66s-1.26-5.56-4.15-8.62c-2.85-3.02-6.41-6.77-5.77-13.33s4.85-9.55 8.23-11.96c3.43-2.44 5.38-4 5.74-7.66s-1.26-5.56-4.15-8.62c-2.85-3.02-6.41-6.77-5.77-13.33s4.85-9.55 8.23-11.96c3.43-2.44 5.38-4 5.74-7.66s-1.26-5.56-4.15-8.62c-2.85-3.02-6.4-6.77-5.77-13.33 0.64-6.55 4.85-9.55 8.23-11.96 3.43-2.44 5.38-4 5.74-7.66l5.97 0.58c-0.64 6.56-4.85 9.55-8.23 11.96-3.43 2.44-5.38 4-5.74 7.66s1.26 5.56 4.15 8.62c2.85 3.02 6.4 6.77 5.77 13.33-0.64 6.56-4.85 9.55-8.23 11.96-3.43 2.44-5.38 4-5.74 7.66s1.26 5.57 4.15 8.62c2.85 3.02 6.4 6.77 5.77 13.33-0.64 6.56-4.85 9.55-8.23 11.96-3.43 2.44-5.38 4-5.74 7.66s1.26 5.57 4.15 8.62c2.85 3.02 6.4 6.77 5.77 13.33-0.64 6.56-4.85 9.56-8.23 11.96-3.43 2.44-5.38 4-5.74 7.66s1.26 5.57 4.15 8.62c2.86 3.02 6.41 6.77 5.77 13.33z"/>
		<path d="m157.47 406.92c-1.82 0-3.78-0.38-5.9-1.38-5.96-2.8-7.37-7.78-8.51-11.77-1.15-4.05-1.96-6.41-5.29-7.98s-5.67-0.68-9.52 1.02c-3.8 1.68-8.53 3.76-14.49 0.96s-7.37-7.77-8.5-11.77c-1.15-4.05-1.96-6.41-5.29-7.98-3.33-1.56-5.67-0.68-9.51 1.02-3.8 1.67-8.53 3.76-14.49 0.96s-7.37-7.77-8.5-11.77c-1.15-4.05-1.96-6.41-5.29-7.98s-5.67-0.68-9.51 1.02c-3.8 1.67-8.53 3.76-14.49 0.96s-7.37-7.77-8.5-11.77c-1.15-4.05-1.96-6.41-5.28-7.98l2.55-5.43c5.96 2.8 7.37 7.77 8.5 11.77 1.15 4.05 1.96 6.41 5.28 7.98 3.32 1.56 5.66 0.68 9.51-1.02 3.8-1.67 8.53-3.76 14.49-0.96s7.37 7.77 8.5 11.77c1.15 4.05 1.96 6.41 5.29 7.98 3.33 1.56 5.67 0.68 9.51-1.02 3.8-1.67 8.52-3.76 14.49-0.96 5.96 2.8 7.37 7.78 8.5 11.77 1.15 4.05 1.96 6.41 5.29 7.98s5.67 0.68 9.52-1.02c3.8-1.68 8.53-3.76 14.49-0.96s7.37 7.78 8.51 11.77c1.15 4.05 1.96 6.41 5.29 7.98 3.33 1.56 5.67 0.68 9.52-1.01 3.8-1.67 8.53-3.76 14.49-0.96l-2.55 5.43c-3.33-1.57-5.67-0.68-9.52 1.02-2.45 1.08-5.29 2.33-8.59 2.33z"/>
		<path d="m121.89 202.76c-9.41 0-18.32-3.46-24.24-9.3-12.5 5.28-28.37 4.34-40.37-2.76-14.4-8.53-20.86-22.89-23.74-33.43-4.13-15.12-3.77-31.39 1.05-47.06l5.73 1.77c-4.49 14.58-4.83 29.69-1 43.71 2.59 9.48 8.34 22.35 21.01 29.85 9.93 5.88 22.89 6.91 33.41 3.03-0.32-0.52-0.62-1.06-0.89-1.61-2.07-4.11-2.54-8.16-1.35-11.72 1.56-4.68 6.12-8.16 10.86-8.29 2.94-0.07 5.76 1.19 7.69 3.47 2.01 2.38 2.86 5.59 2.26 8.59-0.83 4.2-4.01 8.25-9 11.48 5.94 4.88 14.95 7.3 23.73 5.87 11.86-1.92 22.93-10.29 27.55-20.82l5.49 2.41c-5.41 12.32-18.3 22.1-32.09 24.33-2.03 0.32-4.08 0.48-6.1 0.48zm-19.26-29.83h-0.11c-2.45 0.06-4.67 2.22-5.33 4.19-0.68 2.04-0.34 4.44 1.02 7.13 0.3 0.59 0.63 1.16 0.99 1.71 0.05-0.03 0.11-0.06 0.16-0.1 3.96-2.4 6.53-5.33 7.06-8.04 0.24-1.21-0.13-2.57-0.96-3.55-0.52-0.62-1.43-1.34-2.83-1.34z"/>
		
			<defs>
				<path id="SVGID_11_" d="m91.46 0s-91.46 0-91.46 91.18v351.42s0 91.19 91.46 91.19h498.7s91.46 0 91.46-91.19v-351.42s0-91.18-91.46-91.18h-498.7z"/>
			</defs>
			<clipPath id="SVGID_2_">
				<use xlink:href="#SVGID_11_"/>
			</clipPath>
			<g class="st12">
				<rect class="st45" x="362.56" y="418.36" width="101.27" height="264.27"/>
				<path d="M468.92,687.72H357.47V413.26h111.45V687.72z M367.66,677.53h91.08V423.45h-91.08V677.53z"/>
			</g>
			<rect class="st12" x="419.67" y="402.98" width="10.19" height="137.3"/>
			<g class="st12">
				<rect class="st45" x="360.57" y="375.72" width="199.65" height="42.64"/>
				<path d="m565.3 423.45h-209.83v-52.82h209.83v52.82zm-199.64-10.19h189.46v-32.45h-189.46v32.45z"/>
			
			
				<path class="st13" d="m230.65 375.72-82.61 118.58s-23.1 80.84 59.52 78.17 156.34-114.14 164.33-126.13 49.74-70.62 49.74-70.62h-190.98z"/>
				<path d="m203.63 577.63c-23.74 0-41.2-6.96-51.93-20.72-19.42-24.9-9-62.42-8.55-64.01l0.23-0.82 0.48-0.7 84.13-120.77h203.52l-5.73 8.05c-0.42 0.59-41.8 58.7-49.66 70.49l-0.17 0.26c-19.6 29.42-89.68 125.61-168.24 128.14-1.37 0.06-2.74 0.08-4.08 0.08zm-50.89-81.16c-1.28 5.17-7.87 35.18 7.01 54.21 9.23 11.8 25.25 17.43 47.64 16.7 33.08-1.07 68.78-20.41 106.11-57.48 18.91-18.78 38.08-42.26 53.98-66.13l0.17-0.26c6.24-9.36 32.35-46.16 44.11-62.7h-178.45l-80.57 115.66z"/>
			
			
				<path class="st16" d="m529.13 109.46c-1.52-0.14-3.04-0.22-4.55-0.24-8.86-0.13-17.74 0-26.6 0h-93.21-88.37-21.78v266.49h304.25v-190.1c0-18.69-7.5-36.88-19.94-50.73-12.04-13.36-31.53-23.78-49.8-25.42z"/>
				<path d="m603.94 380.81h-314.42v-276.68h208.45c2.95 0 5.89-0.01 8.84-0.03 5.84-0.03 11.88-0.06 17.83 0.03 1.61 0.02 3.27 0.11 4.93 0.26 19.01 1.7 39.86 12.34 53.12 27.1 13.5 15.02 21.25 34.75 21.25 54.13v195.19zm-304.24-10.19h294.06v-185c0-16.9-6.79-34.15-18.64-47.33-11.45-12.74-30.12-22.29-46.45-23.75-1.41-0.13-2.81-0.2-4.17-0.22-5.86-0.08-11.85-0.05-17.64-0.03-2.96 0.01-5.93 0.03-8.89 0.03h-198.27v256.3z"/>
			
			
				<path class="st16" d="m292.39 109.23c-42.19 0-76.39 34.2-76.39 76.39v190.1h152.79v-190.1c-0.01-42.19-34.21-76.39-76.4-76.39z"/>
				<path d="m373.88 380.81h-162.98v-195.19c0-44.93 36.56-81.49 81.49-81.49s81.49 36.56 81.49 81.49v195.19zm-152.79-10.19h142.6v-185c0-39.32-31.99-71.3-71.3-71.3-39.32 0-71.3 31.99-71.3 71.3v185z"/>
			
			
				<path class="st8" d="m415.42 270.17v-240.73h83.5l-26.2 25.76 26.2 23.1h-52.85v191.87c-0.01 0-15.99 21.32-30.65 0z"/>
				<path d="m429.89 284.74h-0.38c-6.9-0.14-13.05-4.07-18.28-11.68l-0.9-1.3v-247.41h101.04l-31.19 30.65 32.21 28.39h-61.24v188.48l-1.02 1.36c-0.88 1.19-8.96 11.51-20.24 11.51zm-9.38-16.21c2.98 3.92 6.06 5.95 9.18 6.02h0.19c4.44 0 8.86-3.78 11.1-6.23v-195.11h44.47l-20.2-17.8 21.23-20.87h-65.96v233.99z"/>
			
			
				<polygon class="st21" points="368.78 227.81 156.92 227.81 202.67 375.72 368.78 375.72"/>
				<path d="m373.88 380.81h-174.96l-48.9-158.09h223.86v158.09zm-167.45-10.19h157.26v-137.71h-199.86l42.6 137.71z"/>
			
			
				<polygon class="st13" points="192.01 250.02 201.78 282.89 234.2 282.89 222.66 250.02"/>
				<path d="m241.39 287.98h-43.41l-12.8-43.05h41.08l15.13 43.05zm-35.81-10.18h21.44l-7.97-22.68h-20.21l6.74 22.68z"/>
			</g>
			<rect class="st12" x="328.36" y="256.48" width="40.42" height="10.19"/>
			<rect class="st12" x="335.92" y="272.77" width="32.87" height="10.19"/>
			<rect class="st12" x="344.8" y="290.11" width="23.98" height="10.19"/>
			<rect class="st12" x="352.35" y="307.44" width="16.43" height="10.19"/>
			<polygon class="st12" points="360.57 410.12 260.88 410.12 227.22 379.48 234.08 371.95 264.82 399.94 360.57 399.94"/>
			<path class="st12" d="m182.21 551.11c-11.87 0-23.55-1.79-35.02-5.39l3.04-9.72c31.53 9.88 65.09 4.8 99.75-15.1 12.48-7.17 31.48-20.04 51.09-40.67 0.48-0.5 0.83-0.87 1.04-1.08 3.6-3.84 47.87-65.73 76.73-106.39l8.3 5.9c-12.21 17.19-73.32 103.18-77.83 107.69-0.17 0.17-0.46 0.48-0.86 0.89-20.45 21.51-40.33 34.98-53.4 42.48-24.79 14.25-49.17 21.39-72.84 21.39z"/>
			<path class="st12" d="m180.67 545.96h-10.19c0-18.36 12.22-35.59 20.3-46.99 2.41-3.4 4.49-6.34 5.64-8.44 5.42-9.94 59.99-85.29 62.31-88.49l8.25 5.97c-15.7 21.67-57.37 79.61-61.61 87.39-1.43 2.63-3.68 5.79-6.27 9.45-7.34 10.36-18.43 26-18.43 41.11z"/>
			
				<rect class="st12" transform="matrix(.4472 -.8944 .8944 .4472 -3.6112 245.87)" x="190.56" y="109.83" width="13.09" height="32.05"/>
			
				<rect class="st12" transform="matrix(.7518 -.6594 .6594 .7518 -10.696 173.72)" x="218.84" y="86.38" width="13.09" height="29.37"/>
			
				<rect class="st12" transform="matrix(.9694 -.2454 .2454 .9694 -11.995 65.582)" x="250.61" y="65.14" width="13.09" height="31.57"/>
			
				<rect class="st12" transform="matrix(.0788 -.9969 .9969 .0788 197.24 361.73)" x="279.57" y="67.6" width="29.53" height="13.09"/>
			<g class="st12">
				<path class="st13" d="m288.92 227.81v-56.44s2.39-53.92 38-53.92c2.78 0 7.33 3.74 9.47 5.17 21.72 14.44 31.63 38.98 32.14 64.45 0.19 9.2-0.51 18.4-0.11 27.6 0.07 1.54 0.11 3.08 0.13 4.62 0.05 2.84 0.11 5.68 0.16 8.53h-79.79z"/>
				<path d="m373.91 232.91h-90.09l0.01-61.76c0.03-0.58 0.69-14.45 5.97-28.52 7.42-19.8 20.25-30.26 37.12-30.26 3.59 0 7.09 2.3 10.96 5.08 0.51 0.36 0.96 0.69 1.33 0.94 21.28 14.15 33.82 39.14 34.42 68.58 0.08 4.21-0.01 8.44-0.1 12.53-0.11 4.93-0.22 10.03-0.01 14.96 0.07 1.58 0.11 3.16 0.14 4.74l0.25 13.71zm-79.9-10.19h69.52l-0.06-3.34c-0.03-1.5-0.06-2.99-0.13-4.49-0.23-5.27-0.11-10.53 0-15.63 0.09-3.98 0.18-8.1 0.1-12.09-0.54-26.44-11.14-47.86-29.87-60.31-0.46-0.3-1.01-0.7-1.63-1.15-1.21-0.87-4-2.87-5.17-3.17-29.5 0.16-32.61 46.51-32.75 48.96v51.22zm32.68-100.19z"/>
			</g>
			<rect class="st12" x="419.67" y="375.72" width="10.19" height="42.64"/>
			<rect class="st12" x="446.55" y="375.72" width="10.19" height="42.64"/>
			<rect class="st12" x="473.43" y="375.72" width="10.19" height="42.64"/>
			<rect class="st12" x="500.31" y="375.72" width="10.19" height="42.64"/>
			<rect class="st12" x="527.19" y="375.72" width="10.19" height="42.64"/>
			<circle class="st12" cx="430.43" cy="260.99" r="5.66"/>
			<circle class="st12" cx="390.6" cy="391.38" r="5.66"/>
			<path class="st12" d="m532.79 127.3c9.45 2.85 18.61 7.22 26.74 13.33 3.72 3.44 7.05 7.3 9.99 11.39 2.88 4.15 5.38 8.55 7.27 13.19 3.87 9.24 5.53 19.36 4.6 29.18 0.19-9.87-2.21-19.62-6.61-28.26-2.16-4.34-4.87-8.37-7.9-12.1-3.09-3.68-6.5-7.09-10.25-10.07-6.73-6.85-14.92-12.44-23.84-16.66z"/>
			<path class="st12" d="m246.31 357.47c9.95-1.09 19.93-2.11 29.92-3 20.01 0.4 40.01 1.22 59.96 2.42-19.99 0.28-39.95 0.94-59.89 2.01-9.99-0.59-19.99-1.05-29.99-1.43z"/>
			
				<rect class="st12" transform="matrix(.1924 -.9813 .9813 .1924 362.72 598.71)" x="530.62" y="72.43" width="29.01" height="13.09"/>
			
				<rect class="st12" transform="matrix(.4995 -.8663 .8663 .4995 215 552.96)" x="571.87" y="83.87" width="28.35" height="13.09"/>
			
				<rect class="st12" transform="matrix(.8053 -.5929 .5929 .8053 49.124 387.36)" x="601.16" y="112.34" width="26.34" height="13.09"/>
			
				<rect class="st12" transform="matrix(.9948 -.1015 .1015 .9948 -13.228 65.289)" x="621.52" y="156.15" width="27.49" height="13.09"/>
		
		
			<polygon class="st7" points="437.4 375.63 598.7 240.56 598.7 375.72"/>
			<path d="m603.8 380.81-180.4-0.1 180.4-151.06v151.16zm-152.39-10.27 142.21 0.08v-119.16l-142.21 119.08z"/>
		
		<path d="m536.13 507.97-0.42-5.98c13.99-0.98 25.38-4.83 33.83-11.42 4.29-3.34 7.72-7.47 10.11-11.95-3.54-3.54-6.33-7.82-8.01-12.57-1.44-4.09-1.64-7.56-0.63-10.58 1.3-3.88 5.41-7.4 10.05-6.57 4.21 0.76 7.23 4.67 8.09 10.48 0.86 5.83 0.03 11.93-2.22 17.7 5.05 3.84 11.34 6.09 17.7 5.97 11.89-0.22 23.08-8.63 26.6-20l5.73 1.78c-4.26 13.76-17.82 23.95-32.22 24.22-7.31 0.16-14.51-2.29-20.44-6.49-2.74 4.79-6.49 9.17-11.08 12.75-9.41 7.33-21.89 11.6-37.09 12.66zm43.59-53.19c-1.15 0-2.53 1.16-3.01 2.6-0.57 1.71-0.38 3.9 0.6 6.68 1.09 3.11 2.77 5.98 4.88 8.49 1.24-4.08 1.63-8.27 1.04-12.29-0.37-2.49-1.5-5.14-3.21-5.45-0.11-0.03-0.2-0.03-0.3-0.03z"/>
		
			<rect class="st2" x="22.05" y="232.34" width="65.66" height="12"/>
			<rect class="st2" x="73.77" y="259.65" width="48.23" height="12"/>
			<rect class="st2" x="54.88" y="290.44" width="54.33" height="12"/>
			<rect class="st2" x="128.97" y="309.62" width="31.38" height="12"/>
			<rect class="st2" x="147.56" y="340.41" width="27.31" height="12"/>
		
	
</g>



















<g id="BASKETBALL">
	
</g>
























































</svg>
