<?xml version="1.0" encoding="UTF-8"?>
<!DOCTYPE svg  PUBLIC '-//W3C//DTD SVG 1.1//EN'  'http://www.w3.org/Graphics/SVG/1.1/DTD/svg11.dtd'>
<svg clip-rule="evenodd" fill-rule="evenodd" stroke-linecap="round" stroke-linejoin="round" stroke-miterlimit="1.5" version="1.1" viewBox="0 0 32 32" xml:space="preserve" xmlns="http://www.w3.org/2000/svg">
<metadata>
<rdf:RDF xmlns:cc="http://web.resource.org/cc/" xmlns:dc="http://purl.org/dc/elements/1.1/" xmlns:rdf="http://www.w3.org/1999/02/22-rdf-syntax-ns#">

     <rdf:Description rdf:about="">
       <dc:title>Mutant Standard emoji 2023.12</dc:title>
     </rdf:Description>

    <cc:work rdf:about="">
        <cc:license rdf:resource="http://creativecommons.org/licenses/by-nc-sa/4.0/"/>
        <cc:attributionName>Caius Nocturne</cc:attributionName>
        <cc:attributionURL>http://mutant.tech/</cc:attributionURL>
    </cc:work>

</rdf:RDF>
</metadata>

    <rect id="alien" y=".017" width="32" height="32" fill="none"/>
    <clipPath id="_clip1">
        <rect y=".017" width="32" height="32"/>
    </clipPath>
    <g clip-path="url(#_clip1)">
        <g id="outline">
            <path d="m3.812 11.317c-1.113 4.73 0.505 9.685 4.194 12.848 1.886 1.616 3.871 3.318 5.391 4.62 1.498 1.284 3.708 1.284 5.206 0 1.52-1.302 3.505-3.004 5.391-4.62 3.689-3.163 5.307-8.118 4.194-12.848-4e-3 -0.016-7e-3 -0.033-0.011-0.049-1.276-5.42-6.113-9.251-11.681-9.251h-0.992c-5.568 0-10.405 3.831-11.681 9.251-4e-3 0.016-7e-3 0.033-0.011 0.049z" fill="none" stroke="#000" stroke-width="4px"/>
        </g>
        <g id="emoji">
            <path d="m3.812 11.317c-1.113 4.73 0.505 9.685 4.194 12.848 1.886 1.616 3.871 3.318 5.391 4.62 1.498 1.284 3.708 1.284 5.206 0 1.52-1.302 3.505-3.004 5.391-4.62 3.689-3.163 5.307-8.118 4.194-12.848-4e-3 -0.016-7e-3 -0.033-0.011-0.049-1.276-5.42-6.113-9.251-11.681-9.251h-0.992c-5.568 0-10.405 3.831-11.681 9.251-4e-3 0.016-7e-3 0.033-0.011 0.049z" fill="#89c794"/>
            <path d="m18.46 19.556v-0.433c0-1.763 0.701-3.453 1.947-4.699 1.246-1.247 2.937-1.947 4.699-1.947h0.434v0.433c0 1.763-0.701 3.453-1.947 4.7-1.246 1.246-2.937 1.946-4.699 1.946h-0.434z"/>
            <clipPath id="_clip2">
                <path d="m18.46 19.556v-0.433c0-1.763 0.701-3.453 1.947-4.699 1.246-1.247 2.937-1.947 4.699-1.947h0.434v0.433c0 1.763-0.701 3.453-1.947 4.7-1.246 1.246-2.937 1.946-4.699 1.946h-0.434z"/>
            </clipPath>
            <g clip-path="url(#_clip2)">
                <path d="m17 19.017h1c2.761 0 5-2.239 5-5v-4h-6v9z" fill="#666"/>
            </g>
            <path d="m13.625 19.642v-0.604c0-1.763-0.7-3.453-1.947-4.7-1.246-1.246-2.937-1.946-4.699-1.946h-0.604v0.604c0 1.762 0.7 3.453 1.947 4.699 1.246 1.246 2.937 1.947 4.699 1.947h0.604z"/>
            <clipPath id="_clip3">
                <path d="m13.625 19.642v-0.604c0-1.763-0.7-3.453-1.947-4.7-1.246-1.246-2.937-1.946-4.699-1.946h-0.604v0.604c0 1.762 0.7 3.453 1.947 4.699 1.246 1.246 2.937 1.947 4.699 1.947h0.604z"/>
            </clipPath>
            <g clip-path="url(#_clip3)">
                <path d="m6 13.017h2e-3c1.326 0 2.597 0.526 3.534 1.464 0.937 0.937 1.464 2.208 1.464 3.534v3.002h-5v-8z" fill="#666"/>
            </g>
            <path d="m19.354 20.017h-1.354v-1.354c0-3.671 2.976-6.646 6.646-6.646h1.354v1.354c0 3.67-2.976 6.646-6.646 6.646zm5.646-7h-0.354c-3.118 0-5.646 2.527-5.646 5.646v0.354h0.354c3.118 0 5.646-2.528 5.646-5.646v-0.354z"/>
            <path d="m7.354 12.017c3.67 0 6.646 2.975 6.646 6.646v1.354h-1.354c-3.67 0-6.646-2.976-6.646-6.646v-1.354h1.354zm0 1h-0.354v0.354c0 3.118 2.528 5.646 5.646 5.646h0.354v-0.354c0-3.119-2.528-5.646-5.646-5.646z"/>
            <path d="m13 25.017 3-3 3 3" fill="none" stroke="#3f854b" stroke-width="2px"/>
        </g>
    </g>
</svg>
