<?xml version="1.0" encoding="UTF-8"?>
<!DOCTYPE svg  PUBLIC '-//W3C//DTD SVG 1.1//EN'  'http://www.w3.org/Graphics/SVG/1.1/DTD/svg11.dtd'>
<svg clip-rule="evenodd" fill-rule="evenodd" stroke-linecap="round" stroke-linejoin="round" stroke-miterlimit="1.5" version="1.1" viewBox="0 0 32 32" xml:space="preserve" xmlns="http://www.w3.org/2000/svg">
<metadata>
<rdf:RDF xmlns:cc="http://web.resource.org/cc/" xmlns:dc="http://purl.org/dc/elements/1.1/" xmlns:rdf="http://www.w3.org/1999/02/22-rdf-syntax-ns#">

     <rdf:Description rdf:about="">
       <dc:title>Mutant Standard emoji 2023.12</dc:title>
     </rdf:Description>

    <cc:work rdf:about="">
        <cc:license rdf:resource="http://creativecommons.org/licenses/by-nc-sa/4.0/"/>
        <cc:attributionName>Caius Nocturne</cc:attributionName>
        <cc:attributionURL>http://mutant.tech/</cc:attributionURL>
    </cc:work>

</rdf:RDF>
</metadata>

    <rect id="alien_monster" y=".017" width="32" height="32" fill="none"/>
    <clipPath id="_clip1">
        <rect y=".017" width="32" height="32"/>
    </clipPath>
    <g clip-path="url(#_clip1)">
        <g id="outline" fill="none" stroke="#000">
            <path d="m6.816 19.74c-1.091-1.635-1.043-3.778 0.12-5.363 1.176-1.604 2.734-3.728 4.226-5.762 1.13-1.542 2.927-2.452 4.838-2.452s3.708 0.91 4.838 2.452c1.492 2.034 3.05 4.158 4.226 5.762 1.163 1.585 1.211 3.728 0.12 5.363 0 1e-3 0 1e-3 -1e-3 2e-3 -1.265 1.898-3.704 2.623-5.801 1.724-0.635-0.272-1.265-0.542-1.806-0.774-1.007-0.431-2.145-0.431-3.152 0-0.541 0.232-1.171 0.502-1.806 0.774-2.097 0.899-4.536 0.174-5.801-1.724-1e-3 -1e-3 -1e-3 -1e-3 -1e-3 -2e-3z" stroke-width="4px"/>
            <path d="m9.5 20.017s-1.435 1.435-2.586 2.585c-0.375 0.376-0.884 0.586-1.414 0.586s-1.039-0.21-1.414-0.586c-0.375-0.375-0.586-0.883-0.586-1.414v-5.272c0-1.856 0.737-3.637 2.05-4.95 0.631-0.63 1.323-1.323 1.95-1.95 0.531-0.53 0.829-1.249 0.829-1.999s-0.298-1.47-0.829-2v0" stroke-linecap="square" stroke-width="7px"/>
            <path d="m22.5 20.017s1.435 1.435 2.586 2.585c0.375 0.376 0.884 0.586 1.414 0.586s1.039-0.21 1.414-0.586c0.375-0.375 0.586-0.883 0.586-1.414v-5.272c0-1.856-0.737-3.637-2.05-4.95-0.631-0.63-1.323-1.323-1.95-1.95-0.531-0.53-0.829-1.249-0.829-1.999s0.298-1.47 0.829-2v0" stroke-linecap="square" stroke-width="7px"/>
            <path d="m13 21.017v2.666c0 0.217-0.07 0.427-0.2 0.6-0.442 0.59-1.518 2.024-2.2 2.934-0.378 0.503-0.97 0.8-1.6 0.8h-2" stroke-linecap="square" stroke-width="7px"/>
            <path d="m19 21.017v2.666c0 0.217 0.07 0.427 0.2 0.6 0.442 0.59 1.518 2.024 2.2 2.934 0.378 0.503 0.97 0.8 1.6 0.8h2" stroke-linecap="square" stroke-width="7px"/>
        </g>
        <g id="emoji">
            <path d="m9.5 20.017s-1.435 1.435-2.586 2.585c-0.375 0.376-0.884 0.586-1.414 0.586s-1.039-0.21-1.414-0.586c-0.375-0.375-0.586-0.883-0.586-1.414v-5.272c0-1.856 0.737-3.637 2.05-4.95 0.631-0.63 1.323-1.323 1.95-1.95 0.531-0.53 0.829-1.249 0.829-1.999s-0.298-1.47-0.829-2v0" fill="none" stroke="#2336af" stroke-linecap="square" stroke-width="3px"/>
            <path d="m22.5 20.017s1.435 1.435 2.586 2.585c0.375 0.376 0.884 0.586 1.414 0.586s1.039-0.21 1.414-0.586c0.375-0.375 0.586-0.883 0.586-1.414v-5.272c0-1.856-0.737-3.637-2.05-4.95-0.631-0.63-1.323-1.323-1.95-1.95-0.531-0.53-0.829-1.249-0.829-1.999s0.298-1.47 0.829-2v0" fill="none" stroke="#2336af" stroke-linecap="square" stroke-width="3px"/>
            <path d="m13 21.017v2.666c0 0.217-0.07 0.427-0.2 0.6-0.442 0.59-1.518 2.024-2.2 2.934-0.378 0.503-0.97 0.8-1.6 0.8h-2" fill="none" stroke="#2336af" stroke-linecap="square" stroke-width="3px"/>
            <path d="m19 21.017v2.666c0 0.217 0.07 0.427 0.2 0.6 0.442 0.59 1.518 2.024 2.2 2.934 0.378 0.503 0.97 0.8 1.6 0.8h2" fill="none" stroke="#2336af" stroke-linecap="square" stroke-width="3px"/>
            <path d="m6.816 19.74c-1.091-1.635-1.043-3.778 0.12-5.363 1.176-1.604 2.734-3.728 4.226-5.762 1.13-1.542 2.927-2.452 4.838-2.452s3.708 0.91 4.838 2.452c1.492 2.034 3.05 4.158 4.226 5.762 1.163 1.585 1.211 3.728 0.12 5.363 0 1e-3 0 1e-3 -1e-3 2e-3 -1.265 1.898-3.704 2.623-5.801 1.724-0.635-0.272-1.265-0.542-1.806-0.774-1.007-0.431-2.145-0.431-3.152 0-0.541 0.232-1.171 0.502-1.806 0.774-2.097 0.899-4.536 0.174-5.801-1.724-1e-3 -1e-3 -1e-3 -1e-3 -1e-3 -2e-3z" fill="#334cec"/>
            <circle cx="11.5" cy="13.517" r="1.5" fill="#3ae07c"/>
            <circle cx="20.5" cy="13.517" r="1.5" fill="#3ae07c"/>
            <path d="m18 10.017c0-0.553-0.448-1-1-1h-2c-0.552 0-1 0.447-1 1 0 0.552 0.448 1 1 1h2c0.552 0 1-0.448 1-1z" fill="#3ae07c"/>
            <path d="m12 16.517 2 2 2-3 2 3 2-2" fill="none" stroke="#1cb356" stroke-width="1.5px"/>
        </g>
    </g>
</svg>
