<?xml version="1.0" encoding="UTF-8"?>
<!DOCTYPE svg  PUBLIC '-//W3C//DTD SVG 1.1//EN'  'http://www.w3.org/Graphics/SVG/1.1/DTD/svg11.dtd'>
<svg clip-rule="evenodd" fill-rule="evenodd" stroke-linecap="round" stroke-linejoin="round" stroke-miterlimit="1.5" version="1.1" viewBox="0 0 32 32" xml:space="preserve" xmlns="http://www.w3.org/2000/svg">
<metadata>
<rdf:RDF xmlns:cc="http://web.resource.org/cc/" xmlns:dc="http://purl.org/dc/elements/1.1/" xmlns:rdf="http://www.w3.org/1999/02/22-rdf-syntax-ns#">

     <rdf:Description rdf:about="">
       <dc:title>Mutant Standard emoji 2023.12</dc:title>
     </rdf:Description>

    <cc:work rdf:about="">
        <cc:license rdf:resource="http://creativecommons.org/licenses/by-nc-sa/4.0/"/>
        <cc:attributionName>Caius Nocturne</cc:attributionName>
        <cc:attributionURL>http://mutant.tech/</cc:attributionURL>
    </cc:work>

</rdf:RDF>
</metadata>

    <rect id="clown" y=".017" width="32" height="32" fill="none"/>
    <clipPath id="_clip1">
        <rect y=".017" width="32" height="32"/>
    </clipPath>
    <g clip-path="url(#_clip1)">
        <g id="outline">
            <path d="m16.733 2.65c0.833-0.416 1.752-0.633 2.683-0.633h1.685c1.856 0 3.637 0.737 4.949 2.05l0.95 0.95-2 1h0.839c1.888 0 3.564 1.208 4.161 2.999v1e-3l-2 1c1.281 1.28 2 3.017 2 4.828v2.172l-1.13-0.848c0.086 0.603 0.13 1.22 0.13 1.848 0 3.182-1.264 6.235-3.515 8.485-2.25 2.25-5.302 3.515-8.485 3.515h-2c-3.183 0-6.235-1.265-8.485-3.515-2.251-2.25-3.515-5.303-3.515-8.485 0-0.744 0.062-1.473 0.182-2.183l-1.182 1.183v-2.172c0-1.811 0.719-3.548 2-4.828l-2-1v-1e-3c0.597-1.791 2.273-2.999 4.161-2.999h0.839l-2-1 0.95-0.95c1.312-1.313 3.093-2.05 4.949-2.05h1.685c0.931 0 1.85 0.217 2.683 0.633 0.397 0.199 0.733 0.367 0.733 0.367l0.733-0.367z" fill="none" stroke="#000" stroke-width="4px"/>
        </g>
        <g id="emoji">
            <path d="m16 3.017s-0.336-0.168-0.733-0.367c-0.833-0.416-1.752-0.633-2.683-0.633h-1.685c-1.856 0-3.637 0.737-4.949 2.05l-0.95 0.95 2 1h-0.839c-1.888 0-3.564 1.208-4.161 2.999v1e-3l2 1c-1.281 1.28-2 3.017-2 4.828v2.172l3-3h11l1-1v-8l-1-2z" fill="#e02a33"/>
            <path d="m16 3.017s0.336-0.168 0.733-0.367c0.833-0.416 1.752-0.633 2.683-0.633h1.685c1.856 0 3.637 0.737 4.949 2.05l0.95 0.95-2 1h0.839c1.888 0 3.564 1.208 4.161 2.999v1e-3l-2 1c1.281 1.28 2 3.017 2 4.828v2.172l-4-3h-10l-1-1v-8l1-2z" fill="#e02a33"/>
            
                <path d="m3.246 20.413c-0.162-0.769-0.246-1.578-0.246-2.396 0-7.18 5.82-13 13-13s13 5.82 13 13c0 0.818-0.084 1.627-0.246 2.396-0.259-1.011-25.249-1.011-25.508 0z" fill="#fbc546"/>
                <path d="m3.246 20.413c0.259-1.011 0.782-1.909 1.511-2.639 0.151-0.15 0.308-0.292 0.472-0.424-0.15-0.424-0.229-0.875-0.229-1.333v-2.5c0-1.194 0.474-2.338 1.318-3.182s1.989-1.318 3.182-1.318 2.338 0.474 3.182 1.318 1.318 1.988 1.318 3.182v2.5h4v-2.5c0-1.194 0.474-2.338 1.318-3.182s1.989-1.318 3.182-1.318 2.338 0.474 3.182 1.318 1.318 1.988 1.318 3.182v2.5c0 0.458-0.079 0.909-0.229 1.333 0.164 0.132 0.321 0.274 0.472 0.424 0.729 0.73 1.252 1.628 1.511 2.639-0.469 2.303-1.597 4.417-3.269 6.089-2.25 2.25-5.302 3.515-8.485 3.515h-2c-3.183 0-6.235-1.265-8.485-3.515-1.672-1.672-2.8-3.786-3.269-6.089z" fill="#fff"/>
            
            
                <path d="m9.443 25.54c-1.643-1.415-2.799-3.34-3.242-5.523h19.598c-0.443 2.183-1.599 4.108-3.242 5.523-1.09-1.551-12.024-1.551-13.114 0z" fill="#722245"/>
                <path d="m9.443 25.54c1.09-1.551 2.9-2.523 4.882-2.523h3.35c1.982 0 3.792 0.972 4.882 2.523-1.731 1.542-4.036 2.477-6.557 2.477s-4.826-0.935-6.557-2.477z" fill="#ca3b8f"/>
            
            <ellipse cx="16" cy="16.517" rx="4" ry="2.5" fill="#e02a33"/>
            
                <path d="m11 11.517c0-0.829-0.672-1.5-1.5-1.5s-1.5 0.671-1.5 1.5v3c0 0.828 0.672 1.5 1.5 1.5s1.5-0.672 1.5-1.5v-3z"/>
                <path d="m24 11.515c0-0.398-0.158-0.779-0.439-1.06-0.281-0.28-0.662-0.438-1.059-0.438h-4e-3c-0.397 0-0.778 0.158-1.059 0.438-0.281 0.281-0.439 0.662-0.439 1.06v3.004c0 0.397 0.158 0.778 0.439 1.059s0.662 0.439 1.059 0.439h4e-3c0.397 0 0.778-0.158 1.059-0.439s0.439-0.662 0.439-1.059v-3.004z"/>
            
        </g>
    </g>
</svg>
