<?xml version="1.0" encoding="UTF-8"?>
<!DOCTYPE svg  PUBLIC '-//W3C//DTD SVG 1.1//EN'  'http://www.w3.org/Graphics/SVG/1.1/DTD/svg11.dtd'>
<svg clip-rule="evenodd" fill-rule="evenodd" stroke-linecap="round" stroke-linejoin="round" stroke-miterlimit="1.5" version="1.1" viewBox="0 0 32 32" xml:space="preserve" xmlns="http://www.w3.org/2000/svg">
<metadata>
<rdf:RDF xmlns:cc="http://web.resource.org/cc/" xmlns:dc="http://purl.org/dc/elements/1.1/" xmlns:rdf="http://www.w3.org/1999/02/22-rdf-syntax-ns#">

     <rdf:Description rdf:about="">
       <dc:title>Mutant Standard emoji 2023.12</dc:title>
     </rdf:Description>

    <cc:work rdf:about="">
        <cc:license rdf:resource="http://creativecommons.org/licenses/by-nc-sa/4.0/"/>
        <cc:attributionName>Caius Nocturne</cc:attributionName>
        <cc:attributionURL>http://mutant.tech/</cc:attributionURL>
    </cc:work>

</rdf:RDF>
</metadata>

    <rect id="robot" y=".017" width="32" height="32" fill="none"/>
    <clipPath id="_clip1">
        <rect y=".017" width="32" height="32"/>
    </clipPath>
    <g clip-path="url(#_clip1)">
        <g id="outline">
            <path d="m28 30.017h-24v-3c0-0.531 0.211-1.039 0.586-1.415 0.375-0.375 0.884-0.585 1.414-0.585h0.757c0.796 0 1.559 0.316 2.122 0.878 0.181 0.182 0.368 0.368 0.535 0.536 0.375 0.375 0.884 0.586 1.414 0.586h10.344c0.53 0 1.039-0.211 1.414-0.586 0.167-0.168 0.354-0.354 0.535-0.536 0.563-0.562 1.326-0.878 2.122-0.878h0.757c0.53 0 1.039 0.21 1.414 0.585 0.375 0.376 0.586 0.884 0.586 1.415v3zm-1-22.286v-5.714h2v6.586c0.614 0.354 1 1.012 1 1.732v8.363c0 0.8-0.477 1.523-1.212 1.838-0.912 0.391-2.253 0.966-3.728 1.598-5.785 2.479-12.335 2.479-18.12 0-1.475-0.632-2.816-1.207-3.728-1.598-0.735-0.315-1.212-1.038-1.212-1.838v-8.363c0-0.8 0.477-1.523 1.212-1.838 0.912-0.39 2.253-0.965 3.728-1.597 5.785-2.48 12.335-2.48 18.12 0l1.94 0.831z" fill="none" stroke="#000" stroke-width="4px"/>
        </g>
        <g id="emoji">
            
                <path d="m8.879 25.895c0.181 0.182 0.368 0.368 0.535 0.536 0.375 0.375 0.884 0.586 1.414 0.586h10.344c0.53 0 1.039-0.211 1.414-0.586l0.46-0.46v3.546h-14.167v-3.622z" fill="#404040"/>
                <path d="m28 30.017h-24v-3c0-0.531 0.211-1.039 0.586-1.415 0.375-0.375 0.884-0.585 1.414-0.585h0.757c0.769 0 1.508 0.295 2.122 0.878l1.364 1.364c1.125 1.126 2.651 1.758 4.242 1.758h3.03c1.591 0 3.117-0.632 4.242-1.758l1.364-1.364c0.563-0.562 1.326-0.878 2.122-0.878h0.757c0.53 0 1.039 0.21 1.414 0.585 0.375 0.376 0.586 0.884 0.586 1.415v3z" fill="#737373"/>
            
            <rect x="27" y="2.017" width="2" height="10" fill="#4d4d4d"/>
            
                <path d="m28 8.16 0.788 0.337c0.735 0.315 1.212 1.038 1.212 1.838v8.363c0 0.8-0.477 1.523-1.212 1.838-0.912 0.391-2.253 0.966-3.728 1.598-5.785 2.479-12.335 2.479-18.12 0-1.475-0.632-2.816-1.207-3.728-1.598-0.735-0.315-1.212-1.038-1.212-1.838v-8.363c0-0.8 0.477-1.523 1.212-1.838l0.788-0.337h24z" fill="#8a8a8a"/>
                <path d="m4 8.16 2.94-1.26c5.785-2.48 12.335-2.48 18.12 0l2.94 1.26v8.523c0 0.808-0.485 1.536-1.231 1.847-0.788 0.328-1.884 0.784-3.077 1.282-4.923 2.051-10.461 2.051-15.384 0-1.193-0.498-2.289-0.954-3.077-1.282-0.746-0.311-1.231-1.039-1.231-1.847v-8.523z" fill="#333"/>
            
            <path d="m11 9.517c0-0.398-0.158-0.78-0.439-1.061-0.282-0.281-0.663-0.439-1.061-0.439s-0.779 0.158-1.061 0.439c-0.281 0.281-0.439 0.663-0.439 1.061v2c0 0.398 0.158 0.779 0.439 1.06 0.282 0.282 0.663 0.44 1.061 0.44s0.779-0.158 1.061-0.44c0.281-0.281 0.439-0.662 0.439-1.06v-2z" fill="#58d3d7"/>
            <path d="m24 9.517c0-0.398-0.158-0.78-0.439-1.061-0.282-0.281-0.663-0.439-1.061-0.439s-0.779 0.158-1.061 0.439c-0.281 0.281-0.439 0.663-0.439 1.061v2c0 0.398 0.158 0.779 0.439 1.06 0.282 0.282 0.663 0.44 1.061 0.44s0.779-0.158 1.061-0.44c0.281-0.281 0.439-0.662 0.439-1.06v-2z" fill="#58d3d7"/>
            <path d="m11 16.017h1e-3c1.296 1.281 3.045 2 4.868 2h0.303c1.811 0 3.547-0.72 4.828-2" fill="none" stroke="#58d3d7" stroke-width="1.5px"/>
            <path d="m18 7.017c0-0.553-0.448-1-1-1h-2c-0.552 0-1 0.447-1 1 0 0.552 0.448 1 1 1h2c0.552 0 1-0.448 1-1z" fill="#121212"/>
        </g>
    </g>
</svg>
