<?xml version="1.0" encoding="UTF-8"?>
<!DOCTYPE svg  PUBLIC '-//W3C//DTD SVG 1.1//EN'  'http://www.w3.org/Graphics/SVG/1.1/DTD/svg11.dtd'>
<svg clip-rule="evenodd" fill-rule="evenodd" stroke-linecap="round" stroke-linejoin="round" stroke-miterlimit="1.5" version="1.1" viewBox="0 0 32 32" xml:space="preserve" xmlns="http://www.w3.org/2000/svg">
<metadata>
<rdf:RDF xmlns:cc="http://web.resource.org/cc/" xmlns:dc="http://purl.org/dc/elements/1.1/" xmlns:rdf="http://www.w3.org/1999/02/22-rdf-syntax-ns#">

     <rdf:Description rdf:about="">
       <dc:title>Mutant Standard emoji 2023.12</dc:title>
     </rdf:Description>

    <cc:work rdf:about="">
        <cc:license rdf:resource="http://creativecommons.org/licenses/by-nc-sa/4.0/"/>
        <cc:attributionName>Caius Nocturne</cc:attributionName>
        <cc:attributionURL>http://mutant.tech/</cc:attributionURL>
    </cc:work>

</rdf:RDF>
</metadata>

    <rect id="tengu_mask" y=".017" width="32" height="32" fill="none"/>
    <clipPath id="_clip1">
        <rect y=".017" width="32" height="32"/>
    </clipPath>
    <g clip-path="url(#_clip1)">
        <g id="outline">
            <path d="m3 5.385c0-0.989 0.487-1.914 1.302-2.473 0.814-0.56 1.852-0.682 2.775-0.327 0.784 0.301 1.623 0.624 2.461 0.946 4.16 1.6 8.764 1.6 12.924 0 0.838-0.322 1.677-0.645 2.461-0.946 0.923-0.355 1.961-0.233 2.775 0.327 0.815 0.559 1.302 1.484 1.302 2.473v12.59c0 1.959-0.719 3.851-2.021 5.315-1.092 1.229-2.448 2.754-3.592 4.042-1.518 1.708-3.694 2.685-5.98 2.685h-2.093c-2.122 0-4.157-0.843-5.657-2.343-1.329-1.329-2.985-2.986-4.314-4.314-1.5-1.5-2.343-3.535-2.343-5.657v-12.318z" fill="none" stroke="#000" stroke-width="4px"/>
        </g>
        <g id="emoji">
            <path d="m3 5.385c0-0.989 0.487-1.914 1.302-2.473 0.814-0.56 1.852-0.682 2.775-0.327 0.784 0.301 1.623 0.624 2.461 0.946 4.16 1.6 8.764 1.6 12.924 0 0.838-0.322 1.677-0.645 2.461-0.946 0.923-0.355 1.961-0.233 2.775 0.327 0.815 0.559 1.302 1.484 1.302 2.473v12.59c0 1.959-0.719 3.851-2.021 5.315-1.092 1.229-2.448 2.754-3.592 4.042-1.518 1.708-3.694 2.685-5.98 2.685h-2.093c-2.122 0-4.157-0.843-5.657-2.343-1.329-1.329-2.985-2.986-4.314-4.314-1.5-1.5-2.343-3.535-2.343-5.657v-12.318z" fill="#de1a31"/>
            <path d="m6.649 21.153c-0.169-0.296-0.208-0.647-0.11-0.973 0.099-0.326 0.327-0.596 0.631-0.749 0.131-0.065 0.258-0.128 0.371-0.185 0.294-0.147 0.634-0.171 0.945-0.067 1.135 0.378 3.943 1.314 5.052 1.684 0.306 0.102 0.626 0.154 0.949 0.154h3.026c0.323 0 0.643-0.052 0.949-0.154 1.109-0.37 3.917-1.306 5.052-1.684 0.311-0.104 0.651-0.08 0.945 0.067 0.113 0.057 0.24 0.12 0.371 0.185 0.304 0.153 0.532 0.423 0.631 0.749 0.098 0.326 0.059 0.677-0.11 0.973-0.6 1.05-1.505 2.634-2.223 3.89-0.667 1.167-2.029 1.748-3.333 1.423-0.631-0.158-1.235-0.309-1.556-0.39-0.159-0.039-0.322-0.059-0.485-0.059h-3.508c-0.163 0-0.326 0.02-0.485 0.059-0.321 0.081-0.925 0.232-1.556 0.39-1.304 0.325-2.666-0.256-3.333-1.423-0.718-1.256-1.623-2.84-2.223-3.89z" fill="#fff"/>
            <clipPath id="_clip2">
                <path d="m6.649 21.153c-0.169-0.296-0.208-0.647-0.11-0.973 0.099-0.326 0.327-0.596 0.631-0.749 0.131-0.065 0.258-0.128 0.371-0.185 0.294-0.147 0.634-0.171 0.945-0.067 1.135 0.378 3.943 1.314 5.052 1.684 0.306 0.102 0.626 0.154 0.949 0.154h3.026c0.323 0 0.643-0.052 0.949-0.154 1.109-0.37 3.917-1.306 5.052-1.684 0.311-0.104 0.651-0.08 0.945 0.067 0.113 0.057 0.24 0.12 0.371 0.185 0.304 0.153 0.532 0.423 0.631 0.749 0.098 0.326 0.059 0.677-0.11 0.973-0.6 1.05-1.505 2.634-2.223 3.89-0.667 1.167-2.029 1.748-3.333 1.423-0.631-0.158-1.235-0.309-1.556-0.39-0.159-0.039-0.322-0.059-0.485-0.059h-3.508c-0.163 0-0.326 0.02-0.485 0.059-0.321 0.081-0.925 0.232-1.556 0.39-1.304 0.325-2.666-0.256-3.333-1.423-0.718-1.256-1.623-2.84-2.223-3.89z"/>
            </clipPath>
            <g clip-path="url(#_clip2)" stroke="#848484" stroke-width="1px">
                <path d="m6.5 23.017 1.5-1.5 3.5 3.5 2.5-2.5 2 2 2-2 2.5 2.5 3.5-3.5 2 2" fill="none"/>
                <path d="m23.5 25.517v-1e-3c0-1.561-0.78-3.02-2.08-3.886-0.513-0.342-0.92-0.613-0.92-0.613v5.5" fill="#fff"/>
                <path d="m8.5 25.517v-1e-3c0-1.561 0.78-3.02 2.08-3.886 0.513-0.342 0.92-0.613 0.92-0.613v5.5" fill="#fff"/>
            </g>
            <path d="m14.246 27.017c-0.082 0-0.163 0.01-0.242 0.03-0.321 0.08-0.925 0.231-1.557 0.389-1.738 0.434-3.554-0.34-4.443-1.896l-2.223-3.891c-0.305-0.534-0.377-1.17-0.199-1.759s0.591-1.078 1.141-1.353c0.131-0.065 0.258-0.129 0.371-0.185 0.531-0.266 1.146-0.31 1.709-0.122 1.134 0.378 3.942 1.314 5.051 1.684 0.204 0.068 0.418 0.103 0.633 0.103h3.026c0.215 0 0.429-0.035 0.633-0.103 1.109-0.37 3.917-1.306 5.051-1.684 0.563-0.188 1.178-0.144 1.709 0.122 0.113 0.056 0.24 0.12 0.371 0.185 0.55 0.275 0.963 0.764 1.141 1.353s0.106 1.225-0.199 1.759c-0.6 1.05-1.505 2.634-2.223 3.891-0.889 1.556-2.705 2.33-4.443 1.896-0.632-0.158-1.236-0.309-1.557-0.389-0.079-0.02-0.16-0.03-0.242-0.03h-3.508zm3.508-1c0.163 0 0.326 0.02 0.485 0.059 0.321 0.081 0.925 0.232 1.556 0.39 1.304 0.325 2.666-0.256 3.333-1.423 0.718-1.256 1.623-2.84 2.223-3.89 0.169-0.296 0.208-0.647 0.11-0.973-0.099-0.326-0.327-0.596-0.631-0.749-0.131-0.065-0.258-0.128-0.371-0.185-0.294-0.147-0.634-0.171-0.945-0.067-1.135 0.378-3.943 1.314-5.052 1.684-0.306 0.102-0.626 0.154-0.949 0.154h-3.026c-0.323 0-0.643-0.052-0.949-0.154-1.109-0.37-3.917-1.306-5.052-1.684-0.311-0.104-0.651-0.08-0.945 0.067-0.113 0.057-0.24 0.12-0.371 0.185-0.304 0.153-0.532 0.423-0.631 0.749-0.098 0.326-0.059 0.677 0.11 0.973 0.6 1.05 1.505 2.634 2.223 3.89 0.667 1.167 2.029 1.748 3.333 1.423 0.631-0.158 1.235-0.309 1.556-0.39 0.159-0.039 0.322-0.059 0.485-0.059h3.508z" fill="#9b141d"/>
            <path d="m21.028 10.256c-1.155 0.433-1.802 1.665-1.503 2.862l0.015 0.06c0.27 1.081 1.242 1.839 2.356 1.839h2.104c0.796 0 1.559-0.316 2.121-0.879 0.563-0.563 0.879-1.326 0.879-2.121v-1.114c0-0.656-0.322-1.271-0.861-1.644-0.539-0.374-1.227-0.459-1.841-0.229-1.07 0.401-2.278 0.854-3.27 1.226z" fill="#ffba43"/>
            <path d="m10.972 10.256c1.155 0.433 1.802 1.665 1.503 2.862l-0.015 0.06c-0.27 1.081-1.242 1.839-2.356 1.839h-2.104c-0.796 0-1.559-0.316-2.121-0.879-0.563-0.563-0.879-1.326-0.879-2.121v-1.114c0-0.656 0.322-1.271 0.861-1.644 0.539-0.374 1.227-0.459 1.841-0.229 1.07 0.401 2.278 0.854 3.27 1.226z" fill="#ffba43"/>
            <circle cx="22.5" cy="12.517" r="1.5"/>
            <circle cx="9.5" cy="12.517" r="1.5"/>
            <path d="m17.242 11.986c-0.142-0.57-0.654-0.969-1.241-0.969h-2e-3c-0.587 0-1.099 0.399-1.241 0.969-0.059 0.234-0.123 0.493-0.19 0.758-0.334 1.336-1.534 2.273-2.91 2.273h-5.658c-0.53 0-1.039 0.21-1.414 0.585-0.375 0.376-0.586 0.884-0.586 1.415 0 0.53 0.211 1.039 0.586 1.414s0.884 0.586 1.414 0.586h13.218c0.473 0 0.926-0.188 1.26-0.522s0.522-0.788 0.522-1.26v-2e-3c0-0.726-0.465-1.371-1.154-1.601-0.093-0.031-0.188-0.063-0.284-0.095-0.973-0.324-1.713-1.123-1.961-2.118-0.122-0.485-0.251-1.003-0.359-1.433z" fill="#7e1016"/>
            <path d="m20.224 5.667c-0.724 0.207-1.224 0.869-1.224 1.623v3e-3c0 0.952 0.772 1.724 1.724 1.724h1.276c0.649 0 1.281-0.211 1.8-0.6 0.666-0.5 1.613-1.21 2.304-1.728 0.519-0.389 0.685-1.094 0.395-1.674 0-1e-3 -1e-3 -1e-3 -1e-3 -2e-3 -0.289-0.578-0.948-0.868-1.569-0.69-1.267 0.362-3.374 0.964-4.705 1.344z"/>
            <path d="m11.776 5.667c0.724 0.207 1.224 0.869 1.224 1.623v3e-3c0 0.952-0.772 1.724-1.724 1.724h-1.276c-0.649 0-1.281-0.211-1.8-0.6-0.666-0.5-1.613-1.21-2.304-1.728-0.519-0.389-0.685-1.094-0.395-1.674 0-1e-3 1e-3 -1e-3 1e-3 -2e-3 0.289-0.578 0.948-0.868 1.569-0.69 1.267 0.362 3.374 0.964 4.705 1.344z"/>
        </g>
    </g>
</svg>
