<?xml version="1.0" encoding="UTF-8"?>
<!DOCTYPE svg  PUBLIC '-//W3C//DTD SVG 1.1//EN'  'http://www.w3.org/Graphics/SVG/1.1/DTD/svg11.dtd'>
<svg clip-rule="evenodd" fill-rule="evenodd" stroke-linecap="round" stroke-miterlimit="2" version="1.1" viewBox="0 0 32 32" xml:space="preserve" xmlns="http://www.w3.org/2000/svg">
<metadata>
<rdf:RDF xmlns:cc="http://web.resource.org/cc/" xmlns:dc="http://purl.org/dc/elements/1.1/" xmlns:rdf="http://www.w3.org/1999/02/22-rdf-syntax-ns#">

     <rdf:Description rdf:about="">
       <dc:title>Mutant Standard emoji 2023.12</dc:title>
     </rdf:Description>

    <cc:work rdf:about="">
        <cc:license rdf:resource="http://creativecommons.org/licenses/by-nc-sa/4.0/"/>
        <cc:attributionName>Caius Nocturne</cc:attributionName>
        <cc:attributionURL>http://mutant.tech/</cc:attributionURL>
    </cc:work>

</rdf:RDF>
</metadata>

    <rect id="eastern_dragon" width="32" height="32" fill="none"/>
    <clipPath id="_clip1">
        <rect width="32" height="32"/>
    </clipPath>
    <g clip-path="url(#_clip1)">
        <g id="outline" stroke="#000">
            <path d="m26.565 16.177c0.352-1.763-0.104-3.591-1.244-4.981-1.139-1.39-2.842-2.196-4.64-2.196h-3.61c-1.326 0-2.598 0.527-3.535 1.464l-7.536 7.536c-0.64 0-1.254 0.254-1.707 0.707l-1.18 1.18c-0.56 0.56-0.875 1.32-0.875 2.113s0.315 1.553 0.875 2.113l0.887 0.887h2v1e-3c0.214 0.642 0.746 1.128 1.405 1.283 0.659 0.156 1.352-0.041 1.831-0.52l6.532-6.532c0.681-0.681 1.783-0.681 2.464 0l1e-3 1e-3c0.463 0.463 0.598 1.162 0.34 1.764-0.607 1.416-1.705 3.979-2.25 5.248-0.213 0.498-0.323 1.034-0.323 1.576v2.179h9v-4.911c0-0.724 0.072-1.447 0.214-2.157 0.287-1.439 0.824-4.124 1.351-6.755z" fill="none" stroke-width="4px"/>
            <path d="m18 9 0.879 0.879c0.562 0.562 1.325 0.878 2.121 0.878s1.559-0.316 2.121-0.878l0.982-0.982c0.574-0.574 0.897-1.353 0.897-2.165v-0.464c0-0.812-0.323-1.591-0.897-2.165l-2.103-2.103v1.594c0 1.515-0.713 2.941-1.924 3.849-1.025 0.769-2.076 1.557-2.076 1.557z" fill="#be8b40" stroke-linecap="butt" stroke-linejoin="round" stroke-miterlimit="1.5" stroke-width="4px"/>
            <path d="m11 14v-1.929c0-1.326 0.527-2.598 1.464-3.535l3.536-3.536v2l6-2v2h2.929c1.326 0 2.598 0.527 3.535 1.464l1.536 1.536h-2s0.88 1.759 1.472 2.944c0.347 0.695 0.528 1.46 0.528 2.236v3.82l-2-3s0.778 6.221 0.961 7.691c0.026 0.206 0.039 0.413 0.039 0.62v4.689l-3-3 1 4h-3v-16h-13z" fill="#1c5832" stroke-linecap="butt" stroke-linejoin="round" stroke-width="4px"/>
            <path d="m8 18v1c0 0.796 0.316 1.559 0.879 2.121 0.562 0.563 1.325 0.879 2.121 0.879h1.486c1.388 0 2.514-1.126 2.514-2.514v-2e-3c0-0.394 0.156-0.771 0.435-1.049 0.278-0.279 0.655-0.435 1.049-0.435h1.516" fill="none" stroke-linejoin="round" stroke-width="6px"/>
        </g>
        <g id="emoji">
            <path d="m11 14v-1.929c0-1.326 0.527-2.598 1.464-3.535l3.536-3.536v2l6-2v2h2.929c1.326 0 2.598 0.527 3.535 1.464l1.536 1.536h-2s0.88 1.759 1.472 2.944c0.347 0.695 0.528 1.46 0.528 2.236v3.82l-2-3s0.778 6.221 0.961 7.691c0.026 0.206 0.039 0.413 0.039 0.62v4.689l-3-3 1 4h-3v-16h-13z" fill="#742125"/>
            <path d="m6 18 7.536-7.536c0.937-0.937 2.209-1.464 3.535-1.464h3.61c1.798 0 3.501 0.806 4.64 2.196 1.14 1.39 1.596 3.218 1.244 4.981-0.527 2.631-1.064 5.316-1.351 6.755-0.142 0.71-0.214 1.433-0.214 2.157v4.911h-9v-2.179c0-0.542 0.11-1.078 0.323-1.576 0.545-1.269 1.643-3.832 2.25-5.248 0.258-0.602 0.123-1.301-0.34-1.764l-1e-3 -1e-3c-0.681-0.681-1.783-0.681-2.464 0l-6.532 6.532c-0.479 0.479-1.172 0.676-1.831 0.52-0.485-0.114-0.901-0.408-1.172-0.811l0.284-0.66-0.512-0.179-0.713 0.366h-1.292l-0.887-0.887c-0.56-0.56-0.875-1.32-0.875-2.113s0.315-1.553 0.875-2.113l1.18-1.18c0.453-0.453 1.067-0.707 1.707-0.707z" fill="#e02e34"/>
            <path d="m5.292 25 3.708-3.712 2e-3 -1.835c0.032-0.256 0.238-0.447 0.498-0.458h2.5v-1.995h1v2.495c-0.011 0.273-0.224 0.488-0.5 0.5h-2.5v1.5c-9e-3 0.229-0.057 0.256-0.146 0.353l-3.621 3.625c-0.098-0.144-0.176-0.303-0.233-0.472v-1e-3h-0.708z" fill="#9c1b31"/>
            <path d="m5 20.5-1 1" fill="none" stroke="#7f1318" stroke-linejoin="round" stroke-width="2px"/>
            <path d="m17 12h-1.002c-0.795 0-1.558 0.316-2.12 0.878s-0.878 1.325-0.878 2.12v2e-3h1c1.657 0 3-1.343 3-3z"/>
            <path d="m18 9 0.879 0.879c0.562 0.562 1.325 0.878 2.121 0.878s1.559-0.316 2.121-0.878l0.982-0.982c0.574-0.574 0.897-1.353 0.897-2.165v-0.464c0-0.812-0.323-1.591-0.897-2.165l-2.103-2.103v1.594c0 1.515-0.713 2.941-1.924 3.849-1.025 0.769-2.076 1.557-2.076 1.557z" fill="#d8c31e"/>
            <path d="m8 18v1c0 0.796 0.316 1.559 0.879 2.121 0.562 0.563 1.325 0.879 2.121 0.879h1.486c1.388 0 2.514-1.126 2.514-2.514v-2e-3c0-0.394 0.156-0.771 0.435-1.049 0.278-0.279 0.655-0.435 1.049-0.435h1.516" fill="none" stroke="#f1a4a4" stroke-linejoin="round" stroke-width="2px"/>
        </g>
    </g>
</svg>
