<?xml version="1.0" encoding="UTF-8"?>
<svg id="svg835" width="56.321" height="45.224" version="1.1" viewBox="0 0 56.321 45.224" xmlns="http://www.w3.org/2000/svg" xmlns:cc="http://creativecommons.org/ns#" xmlns:dc="http://purl.org/dc/elements/1.1/" xmlns:rdf="http://www.w3.org/1999/02/22-rdf-syntax-ns#">
 <metadata id="metadata841">
  <rdf:RDF>
   <cc:Work rdf:about="">
    <dc:format>image/svg+xml</dc:format>
    <dc:type rdf:resource="http://purl.org/dc/dcmitype/StillImage"/>
    <dc:title/>
   </cc:Work>
  </rdf:RDF>
 </metadata>
 <style id="style2" type="text/css">.st0{fill:#DD2E44;}
	.st1{fill:#FFFFFF;}
	.st2{fill:#FDCB58;}
	.st3{clip-path:url(#SVGID_2_);fill:#FFFFFF;}
	.st4{clip-path:url(#SVGID_4_);fill:#FFFFFF;}
	.st5{clip-path:url(#SVGID_6_);fill:#FFFFFF;}
	.st6{clip-path:url(#SVGID_8_);fill:#FFFFFF;}
	.st7{clip-path:url(#SVGID_10_);fill:#FFFFFF;}</style>
 <g id="g1264" transform="matrix(.048743 0 0 .048743 111.45 76.241)">
  <g id="g1134" transform="translate(-8.5545 957.39)">
   <path id="path924" d="m-1799.8-1838.7c-13.862-3.8476-15.504-22.241-28.998-31.671-13.95-9.7496-27.901 17.536-38.124 5.8458-10.223-11.69 4.643-29.226-4.6646-48.702-9.3078-19.476-24.173-6.8263-26.048-23.38-1.8748-16.553 13.949-19.501 13.949-36.054 0-16.553-6.5171-23.379-4.6646-37.01 1.8528-13.631 23.257-4.8867 26.984-22.095 3.7276-17.231-1.874-25.648-0.9365-36.356 0.9374-10.708 19.531-13.631 29.754-31.166 10.223-17.535-10.222-21.441-4.6425-39.537 5.5802-18.12 22.32-22.818 26.962-41.289 4.6426-18.471-12.075-15.619-7.4319-33.645 4.6426-18.026 14.888-19.943 19.174-34.112 4.3078-14.145-19.271-24.757-18.333-38.411s14.025-15.621 18.333-34.139c4.3078-18.517-9.8669-22.398-11.742-32.147-1.8749-9.7497 19.532-31.19 11.742-46.061-7.7676-14.893-32.187-2.6647-42.432-11.432-10.245-8.7678-3.705-30.208-6.5175-49.194-2.0089-13.49-39.06 0-52.073 0-13.035 0-13.037-40.915-26.05-40.915-39.061 0-52.095 40.915-65.108 40.915-13.013 0-23.749-51.623-39.06-40.915-39.061 27.285-52.075 109.12-52.075 109.12s65.109-54.569 143.23-40.915c78.122 13.654 90.221 54.523 103.23 136.35-15.825 81.294-96.715 258.68-121.83 345.4-25.111 86.695 79.973 143.2 168.34 168.55 2.4356 0.6985 4.8591 1.2297 7.2768 1.6931z" fill="#be1931"/>
  </g>
  <path id="path1138" d="m-1729.8-782.82c0 32.05-55.221 96.149-106.85 96.149-51.6 0-53.394-43.042-53.394-96.149s41.857-96.149 93.456-96.149c51.632 0 66.791 43.042 66.791 96.149z" fill="#be1931"/>
  <path id="path815" d="m-1377.3-782.82c0 32.05-55.221 96.149-106.85 96.149-51.6 0-53.394-43.042-53.394-96.149s41.857-96.149 93.456-96.149c51.632 0 66.791 43.042 66.791 96.149z" fill="#be1931"/>
  <path id="path817" d="m-1274.5-1097.4c4.0989-231.07 98.734-278.97 69.227-284.23-85.044-116.43-147.95 252.01-268.2 278.31l-36.879 8.0652c-303.4 66.351-329.5 82.475-326.76-256.23 1.6552-203.96-152.42-59.783-119.08-5.0408 11.395 18.706-171.1-17.75-132.38 76.286 21.487 52.181 65.367 12.732 78.9 139.63 9.8864 92.711-1.4283 26.814 26.609 208.2 32.316 99.688 87.684 124.3 157.78 154.55 7.4355 35.863 88.905 123.23 138.17 123.23 51.6 0 53.394-43.042 53.394-96.149h160.25c1.0897 0 2.1153-0.3205 3.237-0.3205 9.3264 0.16025 18.813 0.3205 28.812 0.3205 0 32.05 55.481 90.978 106.85 96.149 54.197 5.4544 81.04-25.045 27.018-109.69-2.4649-3.8624-8.3223-68.493 2.5737-81.794-16.072-42.383 28.111-118 30.475-251.28z" fill="#dd2e44"/>
  <g id="g1152" transform="translate(-133.08 165.34)">
   <path id="path20-7" d="m-1523.4-1708.5s-11.181 60.154 23.979 129.02c27.43 53.794 92.859 70.789 92.859 70.789s-36.647 36.071-30.236 96.076c6.4426 60.06 70.464 125.78 70.464 125.78s-77.895 34.459-121.69 85.467c-42.591 49.637-62.096 112.52-62.096 112.52l-61.834-154.06 30.956-72.449-2.3134-86.925-57.685-125.42s-10.979-45.136 20.547-85.436c10.469-59.841 94.906-97.348 97.046-95.362z" fill="#dd2e44" stroke-miterlimit="10"/>
   <path id="path1163" d="m-1590.2-1674.3c-1.134 1.1483-2.2508 2.2866-3.345 3.4202-29.29 30.327-46.508 58.834-56.42 82.696-15.82 38.085-12.767 66.022-12.76 66.086l0.4253 3.3405 1.9213 2.8128c64.402 94.313 72.301 163.27 65.618 208.36-3.3386 22.524-10.054 38.926-15.981 49.725-5.927 10.798-11.239 16.176-11.239 16.176-30.775 38.956-34.805 50.109-28.957 55.441 5.7283 5.4973 22.594 12.022 49.395-35.844 0 0 26.997-28.782 34.787-81.342 5.844-39.427 1.2753-92.639-29.788-158.46l4.8354-3.9752c60.709 44.824 153.24 118.43 213.62 191.8l0.036 0.036c4.9517 6.2185 13.935 7.1652 20.073 2.1142 6.138-5.0509 6.9391-14.049 1.7901-20.105l-0.036-0.036c-75.263-91.459-193.81-179.88-249.68-219.19l-6.4002-4.5041 7.7145-1.3155c6.8118-1.1626 14.523-2.2226 23.327-2.9634 38.039-3.2009 93.04-0.2448 160.35 25.225l0.044 0.02c7.3799 2.8986 15.613-0.752 18.419-8.1674 2.8063-7.4155-0.9464-15.602-8.3963-18.315l-0.021-0.01-0.022-0.01c-71.424-27.025-130.96-30.474-172.75-26.957-19.059 1.6038-34.674 4.7652-46.059 7.7253l-4.7981 1.2468 0.8011-4.8921c1.3714-8.3796 4.2088-19.499 9.8828-33.159 13.662-32.891 44.122-78.44 113.18-126.2l0.014-0.014 0.021-0.01c6.5826-4.4263 8.2564-13.28 3.744-19.804-4.5123-6.5239-13.387-8.0826-19.851-3.485l-0.03 0.03c-25.594 17.702-46.46 35.373-63.448 52.505z" color="#000000" color-rendering="auto" dominant-baseline="auto" fill="#be1931" image-rendering="auto" shape-rendering="auto" solid-color="#000000" style="font-feature-settings:normal;font-variant-alternates:normal;font-variant-caps:normal;font-variant-ligatures:normal;font-variant-numeric:normal;font-variant-position:normal;isolation:auto;mix-blend-mode:normal;shape-padding:0;text-decoration-color:#000000;text-decoration-line:none;text-decoration-style:solid;text-indent:0;text-orientation:mixed;text-transform:none;white-space:normal"/>
  </g>
  <g id="g831" transform="matrix(30.957 -8.295 8.295 30.957 -2505.4 -1577.1)" fill="#be1931" stroke-width=".031202">
   <ellipse id="ellipse821" cx="27.5" cy="24" rx="1.5" ry="1"/>
   <ellipse id="ellipse823" cx="23.5" cy="24" rx="1.5" ry="1"/>
   <ellipse id="ellipse825" cx="19.5" cy="24" rx="1.5" ry="1"/>
   <ellipse id="ellipse827" cx="21.5" cy="26" rx="1.5" ry="1"/>
   <ellipse id="ellipse829" cx="25.5" cy="26" rx="1.5" ry="1"/>
  </g>
  <path id="path4" d="m-1836.6-1373.2c0 85.208-51.022 174.44-124.94 162.06-114.02-19.064-120.08-55.413-137.45-33.115-62.482 80.174-99.474-10.389-113.68-25.404-3.5771-3.7698-73.748-24.44-73.748-63.981 0-25.64 37.485-51.793 62.482-26.368 36.885-0.921 174.94-131.86 262.39-131.86 87.457-0.022 124.94 65.93 124.94 118.67z" fill="#dd2e44"/>
  <path id="path6" d="m-1974.1-1391.1c0 13.794-11.202 24.997-24.997 24.997s-24.997-11.202-24.997-24.997 11.203-24.997 24.997-24.997c13.816 0.022 24.997 11.202 24.997 24.997z" fill="#292f33"/>
  <path id="path8" d="m-2223.9-1322.3c0 10.346-8.3967 6.2545-18.742 6.2545s-18.742 4.0912-18.742-6.2545c0-10.346 8.3965-18.742 18.742-18.742s18.742 8.3967 18.742 18.742z" fill="#be1931"/>
  <path id="path1120" d="m-2049-1303.6c0 13.816-8.3966 12.488-18.742 12.488s-18.742 1.3066-18.742-12.488c0-13.794 8.3965-49.973 18.742-49.973s18.742 36.178 18.742 49.973z" fill="#fff"/>
  <path id="path10" d="m-2099-1291.1c0 13.816-8.3967 12.488-18.742 12.488-10.346 0.022-18.742 1.328-18.742-12.488 0-13.794 8.3967-49.972 18.742-49.972 10.346 0 18.742 36.178 18.742 49.972z" fill="#fff"/>
  <path id="path12" d="m-2050.8-1303.5c-66.294 9.4676-133.12 26.218-161.89 33.822 3.5771 3.7914 8.6323 12.402 15.187 21.87 31.53-8.1396 91.099-22.512 150.26-30.93 6.8329-0.9854 11.567-7.3256 10.603-14.159-1.0067-6.8543-7.3684-11.61-14.158-10.603z" fill="#be1931"/>
  <path id="path16" d="m-2043.6-1375.9c-5.4835 0-10.967-2.0991-15.144-6.2761-8.3752-8.3751-8.3752-21.912 0-30.288 1.7778-1.7779 44.575-43.761 115.11-43.761 11.824 0 21.42 9.5962 21.42 21.42 0 11.824-9.5961 21.42-21.42 21.42-52.157 0-84.501 30.887-84.823 31.209-4.1769 4.177-9.6604 6.2761-15.144 6.2761z" fill="#be1931"/>
  <g id="g1228" transform="rotate(15 -2054.1 -1349.8)">
   <path id="path1222" d="m-1867.3-1470.8c-7.5423 28.149-23.925 20.859-45.004 15.211-21.079-5.6481-38.9-7.5699-31.369-35.675 7.531-28.106 44.389-97.233 65.468-91.585 21.079 5.6482 18.436 83.944 10.905 112.05z" fill="#dd2e44"/>
   <path id="path1224" d="m-1881.5-1561.4c-3.3224-5.4038-47.363 33.452-51.441 67.728 0 0 43.236 16.987 54.84 34.91 0 0 13.225-75.57-3.3985-102.64z" fill="#be1931"/>
   <path id="path1226" d="m-1888.6-1516c0-14.203-54.815 27.453-44.77 37.498s12.606 7.2323 22.651 17.277 22.119-44.73 22.119-54.775z" fill="#dd2e44"/>
  </g>
  <path id="path1131" d="m-1201.6-1317.3c-30.841 34.89-3.1169-32.81-29.244-55.905-26.127-23.095-96.212 7.064-65.42-27.772 30.794-34.836 132.76-107.46 158.89-84.361 26.127 23.095-33.429 133.2-64.222 168.04z" fill="#dd2e44"/>
  <path id="path1140" d="m-1470.6-686.54c-18.307 5.7792-74.519 1.3124-92.845-13.671-18.314-14.974 5.6347-23.256 35.969-32.832 30.334-9.5761 69.776-5.1908 88.09 9.7833 18.326 14.983-0.8799 27.144-31.214 36.72z" fill="#be1931"/>
  <path id="path1142" d="m-1838.4-687.97c-18.307 5.7792-74.519 1.3124-92.845-13.671-18.314-14.974 5.6347-23.256 35.969-32.832 30.334-9.5761 69.776-5.1908 88.09 9.7833 18.326 14.983-0.8799 27.144-31.214 36.72z" fill="#be1931"/>
  <path id="path1144" d="m-1688.8-649.21c-21.689 6.847-88.288 1.5549-110-16.197-21.698-17.741 6.6759-27.554 42.615-38.899 35.939-11.345 82.669-6.15 104.37 11.591 21.712 17.752-1.0424 32.16-36.981 43.505z" fill="#dd2e44"/>
  <path id="path1146" d="m-1331.3-639.23c-21.689 6.847-88.288 1.5549-110-16.197-21.698-17.741 6.6759-27.554 42.615-38.899 35.939-11.345 82.669-6.15 104.37 11.591 21.712 17.752-1.0424 32.16-36.981 43.505z" fill="#dd2e44"/>
  <rect id="rect1220" x="-1339.8" y="-960.07" width="36.823" height="218.78" fill="#dd2e44" style="paint-order:markers stroke fill"/>
 </g>
 <style id="style2-3" type="text/css">.st0{fill:#DD2E44;}
	.st1{fill:#FFFFFF;}
	.st2{fill:#FDCB58;}
	.st3{clip-path:url(#SVGID_2_);fill:#FFFFFF;}
	.st4{clip-path:url(#SVGID_4_);fill:#FFFFFF;}
	.st5{clip-path:url(#SVGID_6_);fill:#FFFFFF;}
	.st6{clip-path:url(#SVGID_8_);fill:#FFFFFF;}
	.st7{clip-path:url(#SVGID_10_);fill:#FFFFFF;}</style>
</svg>
