<?xml version="1.0" encoding="UTF-8"?>
<!DOCTYPE svg  PUBLIC '-//W3C//DTD SVG 1.1//EN'  'http://www.w3.org/Graphics/SVG/1.1/DTD/svg11.dtd'>
<svg clip-rule="evenodd" fill-rule="evenodd" stroke-linecap="round" stroke-miterlimit="3" version="1.1" viewBox="0 0 32 32" xml:space="preserve" xmlns="http://www.w3.org/2000/svg">
<metadata>
<rdf:RDF xmlns:cc="http://web.resource.org/cc/" xmlns:dc="http://purl.org/dc/elements/1.1/" xmlns:rdf="http://www.w3.org/1999/02/22-rdf-syntax-ns#">

     <rdf:Description rdf:about="">
       <dc:title>Mutant Standard emoji 2023.12</dc:title>
     </rdf:Description>

    <cc:work rdf:about="">
        <cc:license rdf:resource="http://creativecommons.org/licenses/by-nc-sa/4.0/"/>
        <cc:attributionName>Caius Nocturne</cc:attributionName>
        <cc:attributionURL>http://mutant.tech/</cc:attributionURL>
    </cc:work>

</rdf:RDF>
</metadata>

    <rect id="western_dragon" width="32" height="32" fill="none"/>
    <clipPath id="_clip1">
        <rect width="32" height="32"/>
    </clipPath>
    <g clip-path="url(#_clip1)">
        <g id="outline">
            <path d="m26.565 16.177c0.352-1.763-0.104-3.591-1.244-4.981-1.139-1.39-2.842-2.196-4.64-2.196h-3.61c-1.326 0-2.598 0.527-3.535 1.464l-7.536 7.536c-0.64 0-1.254 0.254-1.707 0.707l-1.18 1.18c-0.56 0.56-0.875 1.32-0.875 2.113s0.315 1.553 0.875 2.113l0.887 0.887h2l4 4v-3l6.384-6.384c0.34-0.34 0.892-0.34 1.232 0l1e-3 1e-3c0.231 0.231 0.298 0.58 0.169 0.881-0.518 1.21-1.846 4.309-2.463 5.747-0.213 0.498-0.323 1.034-0.323 1.576v2.179h10v-4.911c0-0.724 0.072-1.447 0.214-2.157 0.287-1.439 0.824-4.124 1.351-6.755z" fill="none" stroke="#000" stroke-width="4px"/>
            <path d="m18 9 0.879 0.879c0.562 0.562 1.325 0.878 2.121 0.878s1.559-0.316 2.121-0.878l1.809-1.809c0.698-0.698 1.173-1.587 1.367-2.554 0.295-1.475 0.703-3.516 0.703-3.516l-9 7z" fill="#be8b40" stroke="#000" stroke-linecap="butt" stroke-linejoin="round" stroke-miterlimit="1.5" stroke-width="4px"/>
            <rect x="11" y="20" width="12" height="9"/>
            <path d="m17 14v-5c1.827-1.827 4.553-2.418 6.972-1.511 2.009 0.754 4.028 1.511 4.028 1.511l-2 1 4 6h-2l1 8h-2l1 6h-4v-16h-7z" fill="#1c5832" stroke="#000" stroke-linecap="butt" stroke-linejoin="round" stroke-miterlimit="2" stroke-width="4px"/>
            <path d="m13 12 2-8 2 6-4 2z" fill="none" stroke="#000" stroke-linejoin="round" stroke-miterlimit="2" stroke-width="4px"/>
        </g>
        <g id="emoji">
            <path d="m17 14v-5c1.827-1.827 4.553-2.418 6.972-1.511 2.009 0.754 4.028 1.511 4.028 1.511l-2 1 4 6h-2l1 8h-2l1 6h-4v-16h-7z" fill="#742125"/>
            <path d="m13 12 2-8 2 6-4 2z" fill="#d8c31e"/>
            <path d="m5.292 25h-1.292l-0.887-0.887c-0.56-0.56-0.875-1.32-0.875-2.113s0.315-1.553 0.875-2.113l1.18-1.18c0.453-0.453 1.067-0.707 1.707-0.707l7.536-7.536c0.937-0.937 2.209-1.464 3.535-1.464h3.61c1.798 0 3.501 0.806 4.64 2.196 1.14 1.39 1.596 3.218 1.244 4.981-0.527 2.631-1.064 5.316-1.351 6.755-0.142 0.71-0.214 1.433-0.214 2.157v4.911h-6l-1.308-2.718 0.793-7.356s-1.161-1.25-2.083-0.328l-6.402 6.402v3l-3.647-3.647-0.033-0.332-0.626-0.101-0.402 0.08z" fill="#d5232f"/>
            <path d="m16.384 19.616 0.018-0.018c0.922-0.922 2.376-1.042 3.437-0.284 1e-3 0 1e-3 0 1e-3 1e-3 0.977 0.698 1.359 1.968 0.928 3.089-0.469 1.217-1.055 2.742-1.42 3.692-0.23 0.598-0.348 1.232-0.348 1.872v2.032h-4v-2.179c0-0.542 0.11-1.078 0.323-1.576 0.617-1.438 1.945-4.537 2.463-5.747 0.129-0.301 0.062-0.65-0.169-0.881l-1e-3 -1e-3c-0.34-0.34-0.892-0.34-1.232 0z" fill="#ee869b"/>
            <path d="m5.292 25 3.708-3.712 2e-3 -1.835c0.032-0.256 0.238-0.447 0.498-0.458h2.5v-1.995h1v2.495c-0.011 0.273-0.224 0.488-0.5 0.5h-2.5v1.5c-9e-3 0.229-0.057 0.256-0.146 0.353l-3.501 3.505-0.353-0.353h-0.708z" fill="#9c1b31"/>
            <path d="m5 20.5-1 1" fill="none" stroke="#7f1318" stroke-linejoin="round" stroke-miterlimit="2" stroke-width="2px"/>
            <path d="m17 12h-1.002c-0.795 0-1.558 0.316-2.12 0.878s-0.878 1.325-0.878 2.12v2e-3h1c1.657 0 3-1.343 3-3z"/>
            <path d="m18 9 0.879 0.879c0.562 0.562 1.325 0.878 2.121 0.878s1.559-0.316 2.121-0.878l1.809-1.809c0.698-0.698 1.173-1.587 1.367-2.554 0.295-1.475 0.703-3.516 0.703-3.516l-9 7z" fill="#d8c31e"/>
        </g>
    </g>
</svg>
