<?xml version="1.0" encoding="UTF-8"?>
<!DOCTYPE svg  PUBLIC '-//W3C//DTD SVG 1.1//EN'  'http://www.w3.org/Graphics/SVG/1.1/DTD/svg11.dtd'>
<svg clip-rule="evenodd" fill-rule="evenodd" stroke-linecap="round" stroke-linejoin="round" stroke-miterlimit="1.5" version="1.1" viewBox="0 0 32 32" xml:space="preserve" xmlns="http://www.w3.org/2000/svg">
<metadata>
<rdf:RDF xmlns:cc="http://web.resource.org/cc/" xmlns:dc="http://purl.org/dc/elements/1.1/" xmlns:rdf="http://www.w3.org/1999/02/22-rdf-syntax-ns#">

     <rdf:Description rdf:about="">
       <dc:title>Mutant Standard emoji 2023.12</dc:title>
     </rdf:Description>

    <cc:work rdf:about="">
        <cc:license rdf:resource="http://creativecommons.org/licenses/by-nc-sa/4.0/"/>
        <cc:attributionName>Caius Nocturne</cc:attributionName>
        <cc:attributionURL>http://mutant.tech/</cc:attributionURL>
    </cc:work>

</rdf:RDF>
</metadata>
<rect id="artist_palette" width="32" height="32" fill="none"/><clipPath id="_clip1"><rect width="32" height="32"/></clipPath><g clip-path="url(#_clip1)"><g id="outline"><path d="m30 21.368v2c0 0.405-0.161 0.793-0.447 1.079l-1.407 1.407c-2.655 2.655-6.255 4.146-10.01 4.146h-2.12c-1.987 0-3.952-0.426-5.762-1.248-0.165-0.075-0.335-0.152-0.508-0.231-4.717-2.144-7.746-6.848-7.746-12.03v-2-0.031c0-1.61 0.437-3.189 1.265-4.569 0.047-0.077 0.094-0.156 0.142-0.236 2.849-4.749 7.982-7.655 13.521-7.655h0.358c4.261 0 8.31 1.862 11.083 5.098 1e-3 0 1e-3 0 1e-3 1e-3 1.052 1.227 1.63 2.789 1.63 4.405v2.082c0 0.844-0.54 1.594-1.342 1.861-0.86 0.287-1.985 0.662-2.914 0.972-0.709 0.236-1.26 0.762-1.54 1.42 0.333 0.781 1.045 1.369 1.927 1.516 0.839 0.14 1.778 0.296 2.52 0.42 0.779 0.13 1.349 0.803 1.349 1.592v1e-3z" fill="none" stroke="#000" stroke-width="4px"/></g><g id="emoji"><path d="m30 21.368v2c0 0.405-0.161 0.793-0.447 1.079l-1.407 1.407c-2.655 2.655-6.255 4.146-10.01 4.146h-2.12c-1.987 0-3.952-0.426-5.762-1.248-0.165-0.075-0.335-0.152-0.508-0.231-4.717-2.144-7.746-6.848-7.746-12.03v-2h0.221c0.207-0.912 0.559-1.79 1.044-2.6 0.047-0.077 0.094-0.156 0.142-0.236 2.849-4.749 7.982-7.655 13.521-7.655h0.358c4.261 0 8.31 1.862 11.083 5.098 1e-3 0 1e-3 0 1e-3 1e-3 0.626 0.73 1.084 1.579 1.352 2.487h0.278v2c0 0.844-0.54 1.594-1.342 1.861-0.86 0.287-1.985 0.662-2.914 0.972-1.042 0.347-1.744 1.321-1.744 2.419v2e-3c0 1.246 0.901 2.31 2.131 2.515l0.869 0.145v-0.132h3z" fill="#6f4f30"/><path d="m28.658 13.447c0.802-0.267 1.342-1.017 1.342-1.861v-0.082c0-1.616-0.578-3.178-1.63-4.405 0-1e-3 0-1e-3 -1e-3 -1e-3 -2.773-3.236-6.822-5.098-11.083-5.098h-0.358c-5.539 0-10.672 2.906-13.521 7.655-0.048 0.08-0.095 0.159-0.142 0.236-0.828 1.38-1.265 2.959-1.265 4.569v0.031c0 5.182 3.029 9.886 7.746 12.03 0.173 0.079 0.343 0.156 0.508 0.231 1.81 0.822 3.775 1.248 5.762 1.248h2.12c3.755 0 7.355-1.491 10.01-4.146l1.407-1.407c0.286-0.286 0.447-0.674 0.447-1.079v-1e-3c0-0.789-0.57-1.462-1.349-1.592-0.742-0.124-1.681-0.28-2.52-0.42-1.23-0.205-2.131-1.269-2.131-2.515v-2e-3c0-1.098 0.702-2.072 1.744-2.419 0.929-0.31 2.054-0.685 2.914-0.972z" fill="#b38050"/><path d="m19.292 11.5c-0.188-0.306-0.292-0.645-0.292-1 0-1.38 1.568-2.5 3.5-2.5s3.5 1.12 3.5 2.5c0 0.355-0.104 0.694-0.292 1-0.54-0.883-5.876-0.883-6.416 0z" fill="#6f4f30"/><path d="m19.292 11.5c0.54-0.883 1.774-1.5 3.208-1.5s2.668 0.617 3.208 1.5c-0.54 0.883-1.774 1.5-3.208 1.5s-2.668-0.617-3.208-1.5z"/><path d="m17.422 3c0.382 0 0.76 0.073 1.114 0.215 0.417 0.166 1.029 0.411 1.668 0.667 0.58 0.232 0.993 0.754 1.084 1.372 0.092 0.617-0.152 1.237-0.639 1.627-0.845 0.676-1.712 1.37-2.215 1.772-0.281 0.225-0.63 0.347-0.99 0.347h-1.102c-0.774 0-1.435-0.56-1.563-1.324-0.128-0.772-0.293-1.762-0.438-2.633-0.085-0.509 0.058-1.029 0.391-1.422 0.334-0.394 0.824-0.621 1.339-0.621h1.351z" fill="#a83b6c"/><path d="m11.561 5c0.837 0 1.557 0.59 1.721 1.411 0.143 0.714 0.315 1.575 0.455 2.275 0.155 0.776-0.228 1.56-0.936 1.913-0.056 0.028-0.111 0.056-0.165 0.083-0.404 0.202-0.876 0.222-1.297 0.054-0.775-0.31-2.078-0.832-3.055-1.222-0.736-0.295-1.141-1.087-0.949-1.856 0.015-0.057 0.029-0.116 0.044-0.175 0.365-1.459 1.676-2.483 3.181-2.483h1.001z" fill="#e41d45"/><path d="m8.745 10.873c0.169 0.084 0.323 0.195 0.456 0.328l1.276 1.276c0.353 0.353 0.515 0.854 0.435 1.346-0.08 0.493-0.392 0.917-0.838 1.14h-1e-3c-0.048 0.025-0.1 0.041-0.154 0.049-0.45 0.064-2.689 0.384-4.5 0.642-0.532 0.076-1.066-0.122-1.418-0.527-0.353-0.404-0.477-0.96-0.33-1.476 0.243-0.849 0.514-1.799 0.748-2.618 0.144-0.502 0.503-0.914 0.981-1.124s1.024-0.197 1.491 0.037c0.728 0.363 1.475 0.737 1.854 0.927z" fill="#e4981d"/><path d="m9.316 16.114c0.439-0.073 0.89 0.024 1.261 0.271 0.254 0.169 0.566 0.377 0.88 0.586 0.401 0.268 0.674 0.688 0.756 1.164 0.081 0.475-0.037 0.963-0.326 1.349-0.487 0.65-1.033 1.377-1.412 1.882-0.299 0.399-0.768 0.634-1.267 0.634h-2.135c-0.648 0-1.231-0.394-1.471-0.996-0.227-0.567-0.52-1.298-0.792-1.98-0.198-0.493-0.161-1.049 0.1-1.512 0.26-0.463 0.716-0.783 1.24-0.87 1.114-0.186 2.398-0.4 3.166-0.528z" fill="#8cd2e6"/><path d="m15.03 10.485c0.594-0.297 1.306-0.233 1.838 0.166 0.371 0.278 0.82 0.615 1.26 0.945 0.442 0.332 0.702 0.852 0.702 1.404s-0.26 1.072-0.702 1.404c-0.638 0.478-1.294 0.97-1.706 1.279-0.274 0.206-0.607 0.317-0.95 0.317h-1.888c-0.875 0-1.584-0.709-1.584-1.584v-1.332c0-0.664 0.376-1.272 0.97-1.569 0.625-0.313 1.435-0.717 2.06-1.03z" fill="#7dc45b"/><path d="m18.614 15.693c0.792-0.396 1.754-0.14 2.245 0.596 0.073 0.109 0.147 0.22 0.22 0.33 0.517 0.775 0.338 1.818-0.407 2.377-0.674 0.505-1.463 1.097-2.008 1.506-0.416 0.312-0.958 0.4-1.452 0.235-0.717-0.239-1.815-0.605-2.819-0.939-0.401-0.134-0.682-0.496-0.711-0.918-0.03-0.421 0.197-0.819 0.575-1.008 1.401-0.701 3.158-1.58 4.357-2.179z" fill="#5bc1c4"/><path d="m15.959 21.566c0.623 0.089 1.151 0.505 1.383 1.091 0.232 0.585 0.132 1.25-0.261 1.742-0.418 0.522-0.84 1.049-1.194 1.492-0.533 0.666-1.425 0.93-2.234 0.66-0.741-0.247-1.677-0.559-2.515-0.838-0.496-0.166-0.881-0.559-1.037-1.057s-0.062-1.041 0.251-1.459c0.358-0.476 0.727-0.969 1.025-1.366 0.384-0.512 1.017-0.775 1.652-0.684 0.775 0.111 1.88 0.269 2.93 0.419z" fill="#838cef"/><path d="m22.526 21.504c0.658 0.094 1.206 0.551 1.416 1.182 0.21 0.63 0.046 1.326-0.424 1.796l-1.054 1.054c-0.297 0.297-0.7 0.464-1.12 0.464h-1.411c-0.475 0-0.925-0.213-1.226-0.58s-0.421-0.85-0.328-1.315c0.097-0.487 0.201-1.006 0.295-1.477 0.183-0.913 1.047-1.525 1.969-1.393 0.567 0.081 1.226 0.175 1.883 0.269z" fill="#4853cf"/></g></g></svg>
