<?xml version="1.0" encoding="UTF-8"?>
<!DOCTYPE svg  PUBLIC '-//W3C//DTD SVG 1.1//EN'  'http://www.w3.org/Graphics/SVG/1.1/DTD/svg11.dtd'>
<svg clip-rule="evenodd" fill-rule="evenodd" stroke-linejoin="round" stroke-miterlimit="2" version="1.1" viewBox="0 0 32 32" xml:space="preserve" xmlns="http://www.w3.org/2000/svg"><rect id="bear_flag" width="32" height="32" fill="none"/><clipPath id="_clip1"><rect width="32" height="32"/></clipPath><g clip-path="url(#_clip1)"><g id="outline"><path d="m32 7c-0-0.796-0.316-1.559-0.879-2.121-0.562-0.563-1.325-0.879-2.121-0.879h-26c-0.796-0-1.559 0.316-2.121 0.879-0.563 0.562-0.879 1.325-0.879 2.121v18c0 0.796 0.316 1.559 0.879 2.121 0.562 0.563 1.325 0.879 2.121 0.879h26c0.796 0 1.559-0.316 2.121-0.879 0.563-0.562 0.879-1.325 0.879-2.121v-18z"/></g><g id="emoji"><path d="m30 7c0-0.552-0.448-1-1-1h-26c-0.552 0-1 0.448-1 1v18c-0 0.552 0.448 1 1 1h26c0.552-0 1-0.448 1-1v-18z" fill="none"/><clipPath id="_clip2"><path d="m30 7c0-0.552-0.448-1-1-1h-26c-0.552 0-1 0.448-1 1v18c-0 0.552 0.448 1 1 1h26c0.552-0 1-0.448 1-1v-18z"/></clipPath><g clip-path="url(#_clip2)"><rect x="1" y="22" width="30" height="5" fill="#2e2e2e"/><rect x="1" y="19" width="30" height="4.143" fill="#555"/><rect x="1" y="16.5" width="30" height="3.786" fill="#fff"/><rect x="1" y="14" width="30" height="3.429" fill="#f1d2a6"/><rect x="1" y="11" width="30" height="3.571" fill="#fdcb00"/><rect x="1" y="8" width="30" height="3.714" fill="#df6800"/><rect x="1" y="5" width="30" height="3.857" fill="#6f431d"/></g><path d="m3 11.828c-0-0.53 0.211-1.039 0.586-1.414l2.828-2.828c0.375-0.375 0.884-0.586 1.414-0.586h0.344c0.53-0 1.039 0.211 1.414 0.586l1.828 1.828c0.375 0.375 0.586 0.884 0.586 1.414v3.172c-0 1.105-0.895 2-2 2h-5c-0.53 0-1.039-0.211-1.414-0.586s-0.586-0.884-0.586-1.414v-2.172z" fill="#fff"/><path d="m5.55 13.225c-0.337 0.169-0.55 0.513-0.55 0.89 0 0.321 0.154 0.622 0.414 0.81 0.261 0.188 0.595 0.239 0.9 0.137 0.506-0.169 1.042-0.347 1.37-0.457 0.205-0.068 0.427-0.068 0.632 0 0.328 0.11 0.864 0.288 1.37 0.457 0.305 0.102 0.639 0.051 0.9-0.137 0.26-0.188 0.414-0.489 0.414-0.81 0-0.377-0.213-0.721-0.55-0.89-0.14-0.07-0.295-0.147-0.449-0.225-0.614-0.306-1.001-0.933-1.001-1.619-0-0.487-0.394-0.881-0.881-0.881h-0.238c-0.487 0-0.881 0.394-0.881 0.881-0 0.686-0.387 1.313-1.001 1.619-0.154 0.078-0.309 0.155-0.449 0.225zm-0.55-0.475c0-0.199-0.079-0.39-0.22-0.53-0.14-0.141-0.331-0.22-0.53-0.22s-0.39 0.079-0.53 0.22c-0.141 0.14-0.22 0.331-0.22 0.53v0.5c-0 0.199 0.079 0.39 0.22 0.53 0.14 0.141 0.331 0.22 0.53 0.22s0.39-0.079 0.53-0.22c0.141-0.14 0.22-0.331 0.22-0.53v-0.5zm6.5-1.501c-0-0.414-0.335-0.749-0.749-0.749h-2e-3c-0.414-0-0.749 0.335-0.749 0.749v0.502c0 0.414 0.335 0.749 0.749 0.749h2e-3c0.414 0 0.749-0.335 0.749-0.749v-0.502zm-5-0.499c0-0.199-0.079-0.39-0.22-0.53-0.14-0.141-0.331-0.22-0.53-0.22s-0.39 0.079-0.53 0.22c-0.141 0.14-0.22 0.331-0.22 0.53v0.5c-0 0.199 0.079 0.39 0.22 0.53 0.14 0.141 0.331 0.22 0.53 0.22s0.39-0.079 0.53-0.22c0.141-0.14 0.22-0.331 0.22-0.53v-0.5zm3.5-1.5c0-0.199-0.079-0.39-0.22-0.53-0.14-0.141-0.331-0.22-0.53-0.22s-0.39 0.079-0.53 0.22c-0.141 0.14-0.22 0.331-0.22 0.53v0.5c-0 0.199 0.079 0.39 0.22 0.53 0.14 0.141 0.331 0.22 0.53 0.22s0.39-0.079 0.53-0.22c0.141-0.14 0.22-0.331 0.22-0.53v-0.5zm-2-0.5c0-0.199-0.079-0.39-0.22-0.53-0.14-0.141-0.331-0.22-0.53-0.22s-0.39 0.079-0.53 0.22c-0.141 0.14-0.22 0.331-0.22 0.53v0.5c-0 0.199 0.079 0.39 0.22 0.53 0.14 0.141 0.331 0.22 0.53 0.22s0.39-0.079 0.53-0.22c0.141-0.14 0.22-0.331 0.22-0.53v-0.5z"/></g></g></svg>
