<?xml version="1.0" encoding="UTF-8"?>
<!DOCTYPE svg  PUBLIC '-//W3C//DTD SVG 1.1//EN'  'http://www.w3.org/Graphics/SVG/1.1/DTD/svg11.dtd'>
<svg clip-rule="evenodd" fill-rule="evenodd" stroke-linejoin="round" stroke-miterlimit="2" version="1.1" viewBox="0 0 32 32" xml:space="preserve" xmlns="http://www.w3.org/2000/svg"><rect id="demisexual_flag" width="32" height="32" fill="none"/><clipPath id="_clip1"><rect width="32" height="32"/></clipPath><g clip-path="url(#_clip1)"><g id="outline"><path d="m32 7c-0-0.796-0.316-1.559-0.879-2.121-0.562-0.563-1.325-0.879-2.121-0.879h-26c-0.796-0-1.559 0.316-2.121 0.879-0.563 0.562-0.879 1.325-0.879 2.121v18c0 0.796 0.316 1.559 0.879 2.121 0.562 0.563 1.325 0.879 2.121 0.879h26c0.796 0 1.559-0.316 2.121-0.879 0.563-0.562 0.879-1.325 0.879-2.121v-18z"/></g><g id="emoji"><path d="m3 6h26c0.552 0 1 0.448 1 1v7l-21 1.091s-6.686-8.818-6.68-8.824c0.102-0.094 0.223-0.167 0.354-0.212 0.105-0.037 0.215-0.055 0.326-0.055z" fill="#fff"/><path d="m2.32 25.733c-0.012-0.011 6.68-9.733 6.68-9.733l21 2v7c-0 0.552-0.448 1-1 1h-26-6e-3c-0.111-1e-3 -0.222-0.02-0.326-0.057-0.129-0.045-0.248-0.117-0.348-0.21z" fill="#d8d8d8"/><rect x="10" y="14" width="20" height="4" fill="#80189a"/><path d="m14 16-11.68 9.733c-0.012-0.011-0.024-0.023-0.035-0.035-0.103-0.105-0.182-0.233-0.23-0.372-0.037-0.105-0.055-0.215-0.055-0.326v-18-6e-3c1e-3 -0.111 0.02-0.222 0.057-0.326 0.05-0.145 0.135-0.276 0.245-0.383l0.018-0.018 11.68 9.733z" fill="#333"/></g></g></svg>
