<?xml version="1.0" encoding="UTF-8"?>
<!DOCTYPE svg  PUBLIC '-//W3C//DTD SVG 1.1//EN'  'http://www.w3.org/Graphics/SVG/1.1/DTD/svg11.dtd'>
<svg clip-rule="evenodd" fill-rule="evenodd" stroke-linejoin="round" stroke-miterlimit="2" version="1.1" viewBox="0 0 32 32" xml:space="preserve" xmlns="http://www.w3.org/2000/svg"><rect id="enbian_flag" width="32" height="32" fill="none"/><clipPath id="_clip1"><rect width="32" height="32"/></clipPath><g clip-path="url(#_clip1)"><g id="outline"><path d="m32 7c-0-0.796-0.316-1.559-0.879-2.121-0.562-0.563-1.325-0.879-2.121-0.879h-26c-0.796-0-1.559 0.316-2.121 0.879-0.563 0.562-0.879 1.325-0.879 2.121v18c0 0.796 0.316 1.559 0.879 2.121 0.562 0.563 1.325 0.879 2.121 0.879h26c0.796 0 1.559-0.316 2.121-0.879 0.563-0.562 0.879-1.325 0.879-2.121v-18z"/></g><g id="emoji"><path d="m30 7c0-0.552-0.448-1-1-1h-26c-0.552 0-1 0.448-1 1v18c-0 0.552 0.448 1 1 1h26c0.552-0 1-0.448 1-1v-18z" fill="none"/><clipPath id="_clip2"><path d="m30 7c0-0.552-0.448-1-1-1h-26c-0.552 0-1 0.448-1 1v18c-0 0.552 0.448 1 1 1h26c0.552-0 1-0.448 1-1v-18z"/></clipPath><g clip-path="url(#_clip2)"><rect x="1" y="5" width="30" height="6" fill="#420e47"/><rect x="1" y="10" width="30" height="5" fill="#630f6d"/><rect x="1" y="14" width="30" height="5" fill="#970c9c"/><rect x="1" y="18" width="30" height="5" fill="#b049b0"/><rect x="1" y="22" width="30" height="5" fill="#ca72ca"/></g><path d="m22.952 15.191c0.032 0.264 0.048 0.535 0.048 0.809-0 3.863-3.137 7-7 7s-7-3.137-7-7 3.137-7 7-7c0.274 0 0.545 0.016 0.809 0.048-2.709 0.334-4.809 2.65-4.809 5.452 0 3.036 2.464 5.5 5.5 5.5 2.802-0 5.118-2.1 5.452-4.809z" fill="#f4ec50"/><circle cx="17.5" cy="14.5" r="3.5" fill="#fff"/></g></g></svg>
