<?xml version="1.0" encoding="UTF-8"?>
<!DOCTYPE svg  PUBLIC '-//W3C//DTD SVG 1.1//EN'  'http://www.w3.org/Graphics/SVG/1.1/DTD/svg11.dtd'>
<svg clip-rule="evenodd" fill-rule="evenodd" stroke-linejoin="round" stroke-miterlimit="2" version="1.1" viewBox="0 0 32 32" xml:space="preserve" xmlns="http://www.w3.org/2000/svg"><rect id="intersex_flag" width="32" height="32" fill="none"/><clipPath id="_clip1"><rect width="32" height="32"/></clipPath><g clip-path="url(#_clip1)"><g id="outline"><path d="m32 7c-0-0.796-0.316-1.559-0.879-2.121-0.562-0.563-1.325-0.879-2.121-0.879h-26c-0.796-0-1.559 0.316-2.121 0.879-0.563 0.562-0.879 1.325-0.879 2.121v18c0 0.796 0.316 1.559 0.879 2.121 0.562 0.563 1.325 0.879 2.121 0.879h26c0.796 0 1.559-0.316 2.121-0.879 0.563-0.562 0.879-1.325 0.879-2.121v-18z"/></g><g id="emoji"><path d="m30 7c0-0.552-0.448-1-1-1h-26c-0.552 0-1 0.448-1 1v18c-0 0.552 0.448 1 1 1h26c0.552-0 1-0.448 1-1v-18z" fill="#dac100"/><path d="m16.097 8.501c0.349 6e-3 0.697 0.033 1.043 0.085 0.701 0.108 1.387 0.315 2.03 0.616 1.559 0.728 2.842 1.996 3.589 3.546 0.294 0.61 0.505 1.26 0.624 1.926 0.14 0.782 0.154 1.586 0.044 2.373-0.107 0.764-0.333 1.51-0.668 2.205-0.392 0.813-0.932 1.553-1.585 2.176-0.677 0.645-1.474 1.163-2.339 1.517-0.898 0.367-1.865 0.555-2.835 0.555s-1.937-0.188-2.835-0.555c-0.865-0.354-1.662-0.872-2.339-1.517-0.653-0.623-1.193-1.363-1.585-2.176-0.335-0.695-0.561-1.441-0.668-2.205-0.11-0.787-0.096-1.591 0.044-2.373 0.13-0.726 0.368-1.432 0.705-2.089 0.757-1.476 2.005-2.681 3.509-3.383 0.642-0.301 1.328-0.508 2.029-0.616 0.346-0.052 0.694-0.079 1.043-0.085 0.097-1e-3 0.097-1e-3 0.194-0zm-0.155 2.999c-0.637 0.013-1.264 0.15-1.841 0.42-0.904 0.422-1.655 1.146-2.109 2.034-0.184 0.359-0.32 0.743-0.4 1.138-0.104 0.505-0.12 1.028-0.048 1.539 0.064 0.456 0.199 0.902 0.399 1.318 0.236 0.489 0.561 0.933 0.953 1.308 0.407 0.387 0.885 0.698 1.405 0.911 0.538 0.22 1.118 0.332 1.699 0.332s1.161-0.112 1.699-0.332c0.52-0.213 0.998-0.524 1.405-0.911 0.392-0.375 0.717-0.82 0.953-1.308 0.192-0.399 0.324-0.825 0.391-1.263 0.078-0.509 0.068-1.032-0.029-1.539-0.083-0.432-0.23-0.852-0.436-1.242-0.457-0.865-1.197-1.571-2.084-1.985-0.577-0.27-1.204-0.407-1.841-0.42h-0.116z" fill="#730694" fill-rule="nonzero"/></g></g></svg>
