<?xml version="1.0" encoding="UTF-8"?>
<!DOCTYPE svg  PUBLIC '-//W3C//DTD SVG 1.1//EN'  'http://www.w3.org/Graphics/SVG/1.1/DTD/svg11.dtd'>
<svg clip-rule="evenodd" fill-rule="evenodd" stroke-linejoin="round" stroke-miterlimit="2" version="1.1" viewBox="0 0 32 32" xml:space="preserve" xmlns="http://www.w3.org/2000/svg"><rect id="leather_flag" width="32" height="32" fill="none"/><clipPath id="_clip1"><rect width="32" height="32"/></clipPath><g clip-path="url(#_clip1)"><g id="outline"><path d="m32 7c-0-0.796-0.316-1.559-0.879-2.121-0.562-0.563-1.325-0.879-2.121-0.879h-26c-0.796-0-1.559 0.316-2.121 0.879-0.563 0.562-0.879 1.325-0.879 2.121v18c0 0.796 0.316 1.559 0.879 2.121 0.562 0.563 1.325 0.879 2.121 0.879h26c0.796 0 1.559-0.316 2.121-0.879 0.563-0.562 0.879-1.325 0.879-2.121v-18z"/></g><g id="emoji"><path d="m30 7c0-0.552-0.448-1-1-1h-26c-0.552 0-1 0.448-1 1v18c-0 0.552 0.448 1 1 1h26c0.552-0 1-0.448 1-1v-18z" fill="#333"/><clipPath id="_clip2"><path d="m30 7c0-0.552-0.448-1-1-1h-26c-0.552 0-1 0.448-1 1v18c-0 0.552 0.448 1 1 1h26c0.552-0 1-0.448 1-1v-18z"/></clipPath><g clip-path="url(#_clip2)"><rect x="1" y="14" width="30" height="4" fill="#fff"/><rect x="1" y="21.556" width="30" height="2.222" fill="#5328e0"/><rect x="1" y="17.111" width="30" height="2.222" fill="#5328e0"/><rect x="1" y="12.667" width="30" height="2.222" fill="#5328e0"/><rect x="1" y="8.222" width="30" height="2.222" fill="#5328e0"/></g><path d="m8.171 6.424c0.226 0.011 0.447 0.043 0.665 0.104 0.133 0.038 0.264 0.085 0.391 0.14 0.887 0.39 1.547 1.167 1.981 2.015 0.069 0.135 0.133 0.273 0.192 0.413 0.073 0.172 0.138 0.348 0.196 0.526 0.077 0.237 0.146 0.478 0.195 0.723 0.063 0.323 0.096 0.651 0.108 0.98 0.023 0.617-0.024 1.235-0.106 1.846-0.081 0.591-0.198 1.175-0.338 1.755l-0.182 0.725c-0.393 0.098-0.786 0.201-1.182 0.288-0.704 0.153-1.419 0.269-2.138 0.318-0.634 0.044-1.279 0.04-1.906-0.074-0.182-0.033-0.361-0.077-0.539-0.13-0.356-0.104-0.705-0.228-1.04-0.387-0.345-0.164-0.675-0.36-0.978-0.591-0.682-0.523-1.235-1.248-1.397-2.106-0.037-0.195-0.053-0.393-0.048-0.59 0.026-0.98 0.572-1.902 1.367-2.459 0.33-0.23 0.702-0.399 1.092-0.494 0.153-0.038 0.308-0.063 0.464-0.08 0.01-0.089 0.01-0.089 0.023-0.178 0.021-0.128 0.047-0.254 0.081-0.379 0.075-0.27 0.184-0.529 0.325-0.771 0.421-0.722 1.123-1.277 1.932-1.496 0.22-0.059 0.444-0.09 0.672-0.099 0.085-1e-3 0.085-1e-3 0.17 1e-3z" fill="#fff" fill-rule="nonzero"/><path d="m6.059 10.436c-0.482-1.713 0.749-2.944 1.914-3.011 1.164-0.067 2.262 1.03 2.744 2.744 0.392 1.254 0.107 3.185-0.268 4.657-1.473 0.375-3.404 0.66-4.658 0.268-1.713-0.482-2.811-1.579-2.744-2.744 0.067-1.164 1.298-2.395 3.012-1.914z" fill="#f6004a"/></g></g></svg>
