<?xml version="1.0" encoding="UTF-8"?>
<!DOCTYPE svg  PUBLIC '-//W3C//DTD SVG 1.1//EN'  'http://www.w3.org/Graphics/SVG/1.1/DTD/svg11.dtd'>
<svg clip-rule="evenodd" fill-rule="evenodd" stroke-linejoin="round" stroke-miterlimit="2" version="1.1" viewBox="0 0 32 32" xml:space="preserve" xmlns="http://www.w3.org/2000/svg" xmlns:serif="http://www.serif.com/"><rect id="lesbian_flag" width="32" height="32" fill="none"/><clipPath id="_clip1"><rect width="32" height="32"/></clipPath><g clip-path="url(#_clip1)"><g id="outline"><path d="m32 7c-0-0.796-0.316-1.559-0.879-2.121-0.562-0.563-1.325-0.879-2.121-0.879h-26c-0.796-0-1.559 0.316-2.121 0.879-0.563 0.562-0.879 1.325-0.879 2.121v18c0 0.796 0.316 1.559 0.879 2.121 0.562 0.563 1.325 0.879 2.121 0.879h26c0.796 0 1.559-0.316 2.121-0.879 0.563-0.562 0.879-1.325 0.879-2.121v-18z"/></g><g id="emoji"><g id="emoji1" serif:id="emoji"><path d="m30 7c0-0.552-0.448-1-1-1h-26c-0.552 0-1 0.448-1 1v18c-0 0.552 0.448 1 1 1h26c0.552-0 1-0.448 1-1v-18z" fill="none"/><clipPath id="_clip2"><path d="m30 7c0-0.552-0.448-1-1-1h-26c-0.552 0-1 0.448-1 1v18c-0 0.552 0.448 1 1 1h26c0.552-0 1-0.448 1-1v-18z"/></clipPath><g clip-path="url(#_clip2)"><rect x="1" y="5" width="30" height="7.5" fill="#d52d00"/><rect x="1" y="10" width="30" height="6" fill="#ff9a56"/><rect x="1" y="14" width="30" height="6" fill="#fff"/><rect x="1" y="18" width="30" height="6" fill="#d362a4"/><rect x="1" y="22" width="30" height="5" fill="#a30262"/></g></g></g></g></svg>
