<?xml version="1.0" encoding="UTF-8"?>
<!DOCTYPE svg  PUBLIC '-//W3C//DTD SVG 1.1//EN'  'http://www.w3.org/Graphics/SVG/1.1/DTD/svg11.dtd'>
<svg clip-rule="evenodd" fill-rule="evenodd" stroke-linejoin="round" stroke-miterlimit="2" version="1.1" viewBox="0 0 32 32" xml:space="preserve" xmlns="http://www.w3.org/2000/svg"><rect id="polyamory_flag" width="32" height="32" fill="none"/><clipPath id="_clip1"><rect width="32" height="32"/></clipPath><g clip-path="url(#_clip1)"><g id="outline"><path d="m32 7c-0-0.796-0.316-1.559-0.879-2.121-0.562-0.563-1.325-0.879-2.121-0.879h-26c-0.796-0-1.559 0.316-2.121 0.879-0.563 0.562-0.879 1.325-0.879 2.121v18c0 0.796 0.316 1.559 0.879 2.121 0.562 0.563 1.325 0.879 2.121 0.879h26c0.796 0 1.559-0.316 2.121-0.879 0.563-0.562 0.879-1.325 0.879-2.121v-18z"/></g><g id="emoji"><path d="m30 7c0-0.552-0.448-1-1-1h-26c-0.552 0-1 0.448-1 1v18c-0 0.552 0.448 1 1 1h26c0.552-0 1-0.448 1-1v-18z" fill="none"/><clipPath id="_clip2"><path d="m30 7c0-0.552-0.448-1-1-1h-26c-0.552 0-1 0.448-1 1v18c-0 0.552 0.448 1 1 1h26c0.552-0 1-0.448 1-1v-18z"/></clipPath><g clip-path="url(#_clip2)"><rect x="1" y="12" width="30" height="8" fill="#fa0709"/><rect x="1" y="19.333" width="30" height="7.667" fill="#333"/><rect x="1" y="5" width="30" height="7.667" fill="#0400ed"/></g><path d="m16 14h1 1 1v1h-1v1.494c2e-3 0.061 9e-3 0.12 0.03 0.178 0.05 0.137 0.161 0.248 0.298 0.298 0.047 0.017 0.096 0.025 0.146 0.029l0.538 0.014-0.025 0.999-0.564-0.014c-0.175-0.013-0.344-0.047-0.507-0.116-0.403-0.17-0.719-0.518-0.849-0.936-0.044-0.144-0.063-0.29-0.067-0.44v-1.506h-1v1.506c-4e-3 0.15-0.023 0.296-0.067 0.44-0.13 0.418-0.446 0.766-0.849 0.936-0.163 0.069-0.332 0.103-0.507 0.116l-0.564 0.014-0.025-0.999c0.188-5e-3 0.376-1e-3 0.564-0.016 0.188-0.024 0.352-0.144 0.418-0.325 0.021-0.058 0.028-0.117 0.03-0.178v-1.494h-1v-1h1 1z" fill="#ffeb0c"/></g></g></svg>
