<?xml version="1.0" encoding="UTF-8"?>
<!DOCTYPE svg  PUBLIC '-//W3C//DTD SVG 1.1//EN'  'http://www.w3.org/Graphics/SVG/1.1/DTD/svg11.dtd'>
<svg clip-rule="evenodd" fill-rule="evenodd" stroke-linejoin="round" stroke-miterlimit="2" version="1.1" viewBox="0 0 32 32" xml:space="preserve" xmlns="http://www.w3.org/2000/svg"><rect id="quoiromantic_flag" width="32" height="32" fill="none"/><clipPath id="_clip1"><rect width="32" height="32"/></clipPath><g clip-path="url(#_clip1)"><g id="outline"><path d="m32 7c-0-0.796-0.316-1.559-0.879-2.121-0.562-0.563-1.325-0.879-2.121-0.879h-26c-0.796-0-1.559 0.316-2.121 0.879-0.563 0.562-0.879 1.325-0.879 2.121v18c0 0.796 0.316 1.559 0.879 2.121 0.562 0.563 1.325 0.879 2.121 0.879h26c0.796 0 1.559-0.316 2.121-0.879 0.563-0.562 0.879-1.325 0.879-2.121v-18z"/></g><g id="emoji"><path d="m30 7c0-0.552-0.448-1-1-1h-26c-0.552 0-1 0.448-1 1v18c-0 0.552 0.448 1 1 1h26c0.552-0 1-0.448 1-1v-18z" fill="#f3effe"/><clipPath id="_clip2"><path d="m30 7c0-0.552-0.448-1-1-1h-26c-0.552 0-1 0.448-1 1v18c-0 0.552 0.448 1 1 1h26c0.552-0 1-0.448 1-1v-18z"/></clipPath><g clip-path="url(#_clip2)"><path d="m0 14 16-8 16 8v13h-32v-13z" fill="#85889f"/><path d="m17 16h-1.001c-0.552 0-0.999 0.447-0.999 0.999v2e-3c0 0.552 0.447 0.999 0.999 0.999h1.001v-2z" fill="#d8cbfb"/><path d="m15 15h4c0.265 0 0.52-0.105 0.707-0.293 0.188-0.187 0.293-0.442 0.293-0.707v-2.5c0-0.663-0.263-1.299-0.732-1.768s-1.105-0.732-1.768-0.732c-1.381 0-2.5 1.119-2.5 2.5v0.5h2v-0.5c0-0.276 0.224-0.5 0.5-0.5h0.4c0.027-0 0.052 0.011 0.071 0.029 0.018 0.019 0.029 0.044 0.029 0.071v1.9h-2c-0.552 0-1 0.448-1 1v1z" fill="#d8cbfb"/><path d="m17 19h-4c-0.265-0-0.52 0.105-0.707 0.293-0.188 0.187-0.293 0.442-0.293 0.707v2.5c-0 0.663 0.263 1.299 0.732 1.768s1.105 0.732 1.768 0.732h2e-3c1.38-0 2.498-1.118 2.498-2.498v-0.502h-2v0.9c0 0.027-0.011 0.052-0.029 0.071-0.019 0.018-0.044 0.029-0.071 0.029h-0.4c-0.133-0-0.26-0.053-0.354-0.146-0.093-0.094-0.146-0.221-0.146-0.354v-1.5h2c0.552-0 1-0.448 1-1v-1z" fill="#d8cbfb"/><path d="m18 16v4c-0 0.265 0.105 0.52 0.293 0.707 0.187 0.188 0.442 0.293 0.707 0.293h2.5c0.663 0 1.299-0.263 1.768-0.732s0.732-1.105 0.732-1.768v-2e-3c-0-1.38-1.118-2.498-2.498-2.498h-0.502v2h0.9c0.027-0 0.052 0.011 0.071 0.029 0.018 0.019 0.029 0.044 0.029 0.071-0.051 0.514-0.484 0.905-1 0.905-0.5-5e-3 -1-5e-3 -1-5e-3v-2c-0-0.552-0.448-1-1-1h-1z" fill="#d8cbfb"/><path d="m14 18v-4c0-0.265-0.105-0.52-0.293-0.707-0.187-0.188-0.442-0.293-0.707-0.293h-2.5c-0.663-0-1.299 0.263-1.768 0.732s-0.732 1.105-0.732 1.768c0 1.381 1.119 2.5 2.5 2.5h0.5v-2h-0.5c-0.276 0-0.5-0.224-0.5-0.5 0-0.133 0.053-0.26 0.146-0.354 0.094-0.093 0.221-0.146 0.354-0.146h1.5v2c0 0.552 0.448 1 1 1h1z" fill="#d8cbfb"/></g></g></g></svg>
