<?xml version="1.0" encoding="UTF-8"?>
<!DOCTYPE svg  PUBLIC '-//W3C//DTD SVG 1.1//EN'  'http://www.w3.org/Graphics/SVG/1.1/DTD/svg11.dtd'>
<svg clip-rule="evenodd" fill-rule="evenodd" stroke-linecap="round" stroke-linejoin="round" stroke-miterlimit="1.5" version="1.1" viewBox="0 0 32 32" xml:space="preserve" xmlns="http://www.w3.org/2000/svg">
<metadata>
<rdf:RDF xmlns:cc="http://web.resource.org/cc/" xmlns:dc="http://purl.org/dc/elements/1.1/" xmlns:rdf="http://www.w3.org/1999/02/22-rdf-syntax-ns#">

     <rdf:Description rdf:about="">
       <dc:title>Mutant Standard emoji 2023.12</dc:title>
     </rdf:Description>

    <cc:work rdf:about="">
        <cc:license rdf:resource="http://creativecommons.org/licenses/by-nc-sa/4.0/"/>
        <cc:attributionName>Caius Nocturne</cc:attributionName>
        <cc:attributionURL>http://mutant.tech/</cc:attributionURL>
    </cc:work>

</rdf:RDF>
</metadata>

    <rect id="beach_umbrella" width="32" height="32" fill="none"/>
    <g id="outline">
        <path d="m30 23-8-18-20 4 28 14z" fill="none" stroke="#000" stroke-width="4px"/>
        <rect x="2" y="5" width="29" height="27" fill="none"/>
        <clipPath id="_clip1">
            <rect x="2" y="5" width="29" height="27"/>
        </clipPath>
        <g clip-path="url(#_clip1)">
            <path d="m16.892 14.271-10.892 18.729" fill="none" stroke="#000" stroke-linecap="square" stroke-linejoin="miter" stroke-width="6px"/>
        </g>
    </g>
    <g id="emoji">
        <rect x="2" y="5" width="29" height="25" fill="none"/>
        <clipPath id="_clip2">
            <rect x="2" y="5" width="29" height="25"/>
        </clipPath>
        <g clip-path="url(#_clip2)">
            <path d="m18.259 13.909-11.897 20.458-1.729-1.005 11.898-20.459 1.728 1.006z" fill="#919191" fill-rule="nonzero"/>
            <clipPath id="_clip3">
                <path d="m18.259 13.909-11.897 20.458-1.729-1.005 11.898-20.459 1.728 1.006z" clip-rule="nonzero"/>
            </clipPath>
            <g clip-path="url(#_clip3)">
                <path d="m30 23-28-14 28 14z" fill="none" stroke="#535353" stroke-linejoin="miter" stroke-width="8px"/>
            </g>
        </g>
        <path d="m30 23-8-18-20 4 28 14z" fill="#e34c3e"/>
        <clipPath id="_clip4">
            <path d="m30 23-8-18-20 4 28 14z"/>
        </clipPath>
        <g clip-path="url(#_clip4)">
            <rect x="22" y="5" width="10" height="20" fill="#b7271a"/>
        </g>
    </g>
</svg>
