<?xml version="1.0" encoding="UTF-8"?>
<!DOCTYPE svg  PUBLIC '-//W3C//DTD SVG 1.1//EN'  'http://www.w3.org/Graphics/SVG/1.1/DTD/svg11.dtd'>
<svg clip-rule="evenodd" fill-rule="evenodd" stroke-linecap="round" stroke-linejoin="round" stroke-miterlimit="1.5" version="1.1" viewBox="0 0 32 32" xml:space="preserve" xmlns="http://www.w3.org/2000/svg">
<metadata>
<rdf:RDF xmlns:cc="http://web.resource.org/cc/" xmlns:dc="http://purl.org/dc/elements/1.1/" xmlns:rdf="http://www.w3.org/1999/02/22-rdf-syntax-ns#">

     <rdf:Description rdf:about="">
       <dc:title>Mutant Standard emoji 2023.12</dc:title>
     </rdf:Description>

    <cc:work rdf:about="">
        <cc:license rdf:resource="http://creativecommons.org/licenses/by-nc-sa/4.0/"/>
        <cc:attributionName>Caius Nocturne</cc:attributionName>
        <cc:attributionURL>http://mutant.tech/</cc:attributionURL>
    </cc:work>

</rdf:RDF>
</metadata>

    <rect id="beach" width="32" height="32" fill="none"/>
    <clipPath id="_clip1">
        <rect width="32" height="32"/>
    </clipPath>
    <g clip-path="url(#_clip1)">
        <g id="outline">
            <path d="m32 13c0-1.105-0.895-2-2-2h-28c-1.105 0-2 0.895-2 2v17c0 1.105 0.895 2 2 2h28c1.105 0 2-0.895 2-2v-17z"/>
            <path d="m16.366 9.906-9.366-4.906 15-3 6 14-9.86-5.165-6.278 10.672-1.724-1.014 6.228-10.587z" fill="none" stroke="#000" stroke-width="4px"/>
        </g>
        <g id="emoji">
            <path d="m2 13h28v3.5l-1 0.5v4l1 0.5v2.5l-2 1h-24l-2-1v-11z" fill="#eec470"/>
            <path d="m30 16.5v5l-3 1.5-0.439-0.439c-0.705-0.705-1.179-1.598-1.374-2.561h-13.187v-2h13.187c0.195-0.963 0.669-1.856 1.374-2.561l0.439-0.439 3 1.5z" fill="#916711"/>
            <path d="m30 26-1-1h-26l-1 1v4h28v-4z" fill="#54e2ef"/>
            <rect x="2" y="24" width="28" height="2" fill="#e3fafc"/>
            <path d="m19.155 9.109-2.031 3.452-1.774 0.439v-1.368l2.031-3.452 1.774 0.929z" fill="#535353"/>
            <path d="m10.428 20 4.922-8.368 1.774 0.929-4.376 7.439h-2.32z" fill="#919191"/>
            
                <path d="m22 12.857-15-7.857 15-3 1 4v6l-1 0.857z" fill="#e34c3e"/>
                <path d="m28 16-6-3.143v-10.857l6 14z" fill="#b7271a"/>
            
        </g>
    </g>
</svg>
