<?xml version="1.0" encoding="UTF-8"?>
<!DOCTYPE svg  PUBLIC '-//W3C//DTD SVG 1.1//EN'  'http://www.w3.org/Graphics/SVG/1.1/DTD/svg11.dtd'>
<svg clip-rule="evenodd" fill-rule="evenodd" stroke-linejoin="round" stroke-miterlimit="1.4142" version="1.1" viewBox="0 0 32 32" xml:space="preserve" xmlns="http://www.w3.org/2000/svg">
<metadata>
<rdf:RDF xmlns:cc="http://web.resource.org/cc/" xmlns:dc="http://purl.org/dc/elements/1.1/" xmlns:rdf="http://www.w3.org/1999/02/22-rdf-syntax-ns#">

     <rdf:Description rdf:about="">
       <dc:title>Mutant Standard emoji 2023.12</dc:title>
     </rdf:Description>

    <cc:work rdf:about="">
        <cc:license rdf:resource="http://creativecommons.org/licenses/by-nc-sa/4.0/"/>
        <cc:attributionName>Caius Nocturne</cc:attributionName>
        <cc:attributionURL>http://mutant.tech/</cc:attributionURL>
    </cc:work>

</rdf:RDF>
</metadata>
<rect id="mount_fuji" width="32" height="32" fill="none"/><clipPath id="_clip1"><rect width="32" height="32"/></clipPath><g clip-path="url(#_clip1)"><g id="outline"><path d="m32 2c0-0.53-0.211-1.039-0.586-1.414s-0.884-0.586-1.414-0.586h-28c-0.53 0-1.039 0.211-1.414 0.586s-0.586 0.884-0.586 1.414v28c0 0.53 0.211 1.039 0.586 1.414s0.884 0.586 1.414 0.586h28c0.53 0 1.039-0.211 1.414-0.586s0.586-0.884 0.586-1.414v-28z"/></g><g id="emoji"><path d="m2 2h28v15-0.235c-1.809-0.492-25.525-0.673-28 0v0.235-15z" fill="#789fee"/><path d="m2 16.765c2.475-0.673 4.736-1.97 6.567-3.765l4.433-2h6l6 3.338c1.496 1.11 3.191 1.935 5 2.427v8.235l-1 1h-26l-1-1v-8.235z" fill="#194aa6"/><path d="m19 8 3.647 4.168c0.709 0.81 1.498 1.536 2.353 2.17v0.662l-6-2v1h-4l-2-1h-4.433c0.272-0.267 0.534-0.544 0.786-0.832l3.647-4.168h6z" fill="#e5edfb"/><rect x="2" y="25" width="28" height="5" fill="#163675"/></g></g></svg>
