<?xml version="1.0" encoding="UTF-8"?>
<svg clip-rule="evenodd" fill-rule="evenodd" stroke-linejoin="round" stroke-miterlimit="1.4142" viewBox="0 0 32 32" xmlns="http://www.w3.org/2000/svg">
 <clipPath id="a">
  <path d="m0 0h32v32h-32z" clip-rule="evenodd"/>
 </clipPath>
 <path d="m0 0h32v32h-32z" fill="none"/>
 <g clip-path="url(#a)">
  <path d="m32 2c0-0.53-0.211-1.039-0.586-1.414s-0.884-0.586-1.414-0.586h-28c-0.53 0-1.039 0.211-1.414 0.586s-0.586 0.884-0.586 1.414v28c0 0.53 0.211 1.039 0.586 1.414s0.884 0.586 1.414 0.586h28c0.53 0 1.039-0.211 1.414-0.586s0.586-0.884 0.586-1.414v-28z"/>
  <path d="m2 2h28v15-.235c-1.809-.492-25.525-.673-28 0v.235z" fill="#789fee"/>
  <path d="m2 16.765c2.475-.673 4.736-1.97 6.567-3.765l4.433-2h6l6 3.338c1.496 1.11 3.191 1.935 5 2.427v8.235l-1 1h-26l-1-1z" fill="#194aa6"/>
  <path d="m19 8 3.647 4.168c.709.81 1.498 1.536 2.353 2.17v.662l-6-2v1h-4l-2-1h-4.433c.272-.267.534-.544.786-.832l3.647-4.168z" fill="#e5edfb"/>
  <path d="m2 25h28v5h-28z" fill="#163675"/>
 </g>
</svg>
