<?xml version="1.0" encoding="UTF-8"?>
<!DOCTYPE svg  PUBLIC '-//W3C//DTD SVG 1.1//EN'  'http://www.w3.org/Graphics/SVG/1.1/DTD/svg11.dtd'>
<svg clip-rule="evenodd" fill-rule="evenodd" stroke-linejoin="round" stroke-miterlimit="1.4142" version="1.1" viewBox="0 0 32 32" xml:space="preserve" xmlns="http://www.w3.org/2000/svg">
<metadata>
<rdf:RDF xmlns:cc="http://web.resource.org/cc/" xmlns:dc="http://purl.org/dc/elements/1.1/" xmlns:rdf="http://www.w3.org/1999/02/22-rdf-syntax-ns#">

     <rdf:Description rdf:about="">
       <dc:title>Mutant Standard emoji 2023.12</dc:title>
     </rdf:Description>

    <cc:work rdf:about="">
        <cc:license rdf:resource="http://creativecommons.org/licenses/by-nc-sa/4.0/"/>
        <cc:attributionName>Caius Nocturne</cc:attributionName>
        <cc:attributionURL>http://mutant.tech/</cc:attributionURL>
    </cc:work>

</rdf:RDF>
</metadata>
<rect id="snowy_mountain" width="32" height="32" fill="none"/><clipPath id="_clip1"><rect width="32" height="32"/></clipPath><g clip-path="url(#_clip1)"><g id="outline"><path d="m32 2c0-0.53-0.211-1.039-0.586-1.414s-0.884-0.586-1.414-0.586h-28c-0.53 0-1.039 0.211-1.414 0.586s-0.586 0.884-0.586 1.414v28c0 0.53 0.211 1.039 0.586 1.414s0.884 0.586 1.414 0.586h28c0.53 0 1.039-0.211 1.414-0.586s0.586-0.884 0.586-1.414v-28z"/></g><g id="emoji"><path d="m30 2h-28v7l1 1h26l1-1v-7z" fill="#1185fa"/><path d="m30 16-1 1h-26l-1-1v-7h28v7z" fill="#3899fb"/><path d="m2 20.5v-4.5h6l-6 4.5zm21.5-4.5h6.5v3l-5-2-1.5-1z" fill="#67b2fc"/><path d="m2 22.303v-1.803l3-4.5 6-5 4-5 5 3 5 6 3 2 2 2v2l-1 6h-25l-2-4.697z" fill="#e3ebfb"/><path d="m2 22.303 2.876-4.315-0.876 7.012 6-5 2-2 3 2 1 5 3-5v-3l4 2 1 3 3 3v-2l2 3v-6l1 1v9h-28v-7.697z" fill="#787463"/></g></g></svg>
