<?xml version="1.0" encoding="UTF-8"?>
<!DOCTYPE svg  PUBLIC '-//W3C//DTD SVG 1.1//EN'  'http://www.w3.org/Graphics/SVG/1.1/DTD/svg11.dtd'>
<svg clip-rule="evenodd" fill-rule="evenodd" stroke-linecap="round" stroke-miterlimit="3" version="1.1" viewBox="0 0 32 32" xml:space="preserve" xmlns="http://www.w3.org/2000/svg">
<metadata>
<rdf:RDF xmlns:cc="http://web.resource.org/cc/" xmlns:dc="http://purl.org/dc/elements/1.1/" xmlns:rdf="http://www.w3.org/1999/02/22-rdf-syntax-ns#">

     <rdf:Description rdf:about="">
       <dc:title>Mutant Standard emoji 2023.12</dc:title>
     </rdf:Description>

    <cc:work rdf:about="">
        <cc:license rdf:resource="http://creativecommons.org/licenses/by-nc-sa/4.0/"/>
        <cc:attributionName>Caius Nocturne</cc:attributionName>
        <cc:attributionURL>http://mutant.tech/</cc:attributionURL>
    </cc:work>

</rdf:RDF>
</metadata>

    <rect id="statue_of_liberty" width="32" height="32" fill="none"/>
    <clipPath id="_clip1">
        <rect width="32" height="32"/>
    </clipPath>
    <g clip-path="url(#_clip1)">
        <g id="outline" fill="none" stroke="#000" stroke-width="4px">
            <path d="m15 2-2 7h6l-2-7h-2z"/>
            <path d="m24 9 6-1v1l-5 3-1-3z"/>
            <path d="m8 9-6-1v1l5 3 1-3z"/>
            <path d="m5.004 13.197c-3e-3 -0.065-4e-3 -0.131-4e-3 -0.197 0-2 1.321-3.806 3.438-5.082l-4.438-5.918 7.627 4.576c1.34-0.371 2.819-0.576 4.373-0.576s3.033 0.205 4.373 0.576l7.627-4.576-4.438 5.918c2.117 1.276 3.438 3.082 3.438 5.082 0 0.066-1e-3 0.132-4e-3 0.197l3.004 1.803h-3c0 1.239-0.388 2.414-1.082 3.461-0.139 0.818-0.455 1.596-0.918 2.31v0.306c0 1.251-0.391 2.47-1.118 3.488-0.527 0.738-1.174 1.644-1.788 2.504-1.314 1.839-3.436 2.931-5.696 2.931h-0.796c-2.26 0-4.382-1.092-5.696-2.931-0.614-0.86-1.261-1.766-1.788-2.504-0.727-1.018-1.118-2.237-1.118-3.488v-0.306c-0.463-0.714-0.779-1.492-0.918-2.31-0.694-1.047-1.082-2.222-1.082-3.461h-3l3.004-1.803z" stroke-linejoin="round" stroke-miterlimit="1.5"/>
        </g>
        <g id="emoji">
            <path d="m7 12v9.077c0 1.251 0.391 2.47 1.118 3.488 0.527 0.738 1.174 1.644 1.788 2.504 1.314 1.839 3.436 2.931 5.696 2.931h0.796c2.26 0 4.382-1.092 5.696-2.931 0.614-0.86 1.261-1.766 1.788-2.504 0.727-1.018 1.118-2.237 1.118-3.488v-9.077h-18z" fill="#71c18e"/>
            <path d="m15 2-2 7h6l-2-7h-2z" fill="#71c18e"/>
            <path d="m18 8 10-6-6 8-4-2z" fill="#71c18e"/>
            <path d="m14 8-10-6 6 8 4-2z" fill="#71c18e"/>
            <path d="m24 9 6-1v1l-5 3-1-3z" fill="#71c18e"/>
            <path d="m8 9-6-1v1l5 3 1-3z" fill="#71c18e"/>
            <path d="m25 12 5 3h-5v-3z" fill="#71c18e"/>
            <path d="m7 12-5 3h5v-3z" fill="#71c18e"/>
            <rect x="5" y="13" width="22" height="2" fill="#80ba96"/>
            <ellipse cx="16" cy="13" rx="11" ry="7" fill="#71c18e"/>
            <ellipse cx="16" cy="15" rx="11" ry="8" fill="#223e2c"/>
            <ellipse cx="16" cy="17.5" rx="10" ry="7.5" fill="#71c18e"/>
            <clipPath id="_clip2">
                <ellipse cx="16" cy="17.5" rx="10" ry="7.5"/>
            </clipPath>
            <g clip-path="url(#_clip2)">
                <path d="m16 10 1 1.25s-0.745 0.931-1.326 1.657c-0.436 0.545-1.048 0.921-1.731 1.063-0.282 0.059-0.605 0.126-0.948 0.198-2.469 0.514-4.47 2.317-5.239 4.719-0.407 1.271-0.756 2.363-0.756 2.363l-2-2.25v-13.25h11v4.25z" fill="#46915e"/>
                <path d="m16 10-1 1.25s0.745 0.931 1.326 1.657c0.436 0.545 1.048 0.921 1.731 1.063 0.282 0.059 0.605 0.126 0.948 0.198 2.469 0.514 4.47 2.317 5.239 4.719 0.407 1.271 0.756 2.363 0.756 2.363l2-2.25v-13.25h-11v4.25z" fill="#46915e"/>
                <path d="m27 8h-22v10c0.634 0 1.234-0.281 1.64-0.768 0.664-0.797 1.731-2.078 2.644-3.172 1.087-1.305 2.698-2.06 4.397-2.06h1e-3c0.209 0 0.415-0.049 0.602-0.142l1.716-0.858 1.716 0.858c0.187 0.093 0.393 0.142 0.602 0.142h1e-3c1.699 0 3.31 0.755 4.397 2.06 0.913 1.094 1.98 2.375 2.644 3.172 0.406 0.487 1.006 0.768 1.64 0.768v-10z" fill="#71c18e"/>
            </g>
            <path d="m9 18s1.717-0.429 2.901-0.725c0.682-0.171 1.403 0.029 1.9 0.526l0.199 0.199v1s-1.33 0.332-2.456 0.614c-0.902 0.226-1.84-0.206-2.256-1.038l-0.288-0.576z" fill="#356e49"/>
            <path d="m23 18s-1.717-0.429-2.901-0.725c-0.682-0.171-1.403 0.029-1.9 0.526l-0.199 0.199v1s1.33 0.332 2.456 0.614c0.902 0.226 1.84-0.206 2.256-1.038l0.288-0.576z" fill="#356e49"/>
            <path d="m14 22h4c0 0.613-0.346 1.173-0.894 1.447-0.071 0.035-0.141 0.071-0.212 0.106-0.563 0.281-1.225 0.281-1.788 0-0.071-0.035-0.141-0.071-0.212-0.106-0.548-0.274-0.894-0.834-0.894-1.447z" fill="#356e49"/>
            <path d="m12 27s0.643-0.482 1.2-0.9c0.519-0.389 1.151-0.6 1.8-0.6h2c0.649 0 1.281 0.211 1.8 0.6 0.557 0.418 1.2 0.9 1.2 0.9h-8z" fill="#356e49"/>
        </g>
    </g>
</svg>
