<?xml version="1.0" encoding="UTF-8"?>
<!DOCTYPE svg  PUBLIC '-//W3C//DTD SVG 1.1//EN'  'http://www.w3.org/Graphics/SVG/1.1/DTD/svg11.dtd'>
<svg clip-rule="evenodd" fill-rule="evenodd" stroke-linecap="square" stroke-linejoin="round" stroke-miterlimit="1.5" version="1.1" viewBox="0 0 32 32" xml:space="preserve" xmlns="http://www.w3.org/2000/svg">
<metadata>
<rdf:RDF xmlns:cc="http://web.resource.org/cc/" xmlns:dc="http://purl.org/dc/elements/1.1/" xmlns:rdf="http://www.w3.org/1999/02/22-rdf-syntax-ns#">

     <rdf:Description rdf:about="">
       <dc:title>Mutant Standard emoji 2023.12</dc:title>
     </rdf:Description>

    <cc:work rdf:about="">
        <cc:license rdf:resource="http://creativecommons.org/licenses/by-nc-sa/4.0/"/>
        <cc:attributionName>Caius Nocturne</cc:attributionName>
        <cc:attributionURL>http://mutant.tech/</cc:attributionURL>
    </cc:work>

</rdf:RDF>
</metadata>

    <rect id="tokyo_tower" width="32" height="32" fill="none"/>
    <g id="outline">
        <path d="m13 7h2v-5h2v5h2v2h-0.857l0.571 8h2.286v3h-1.934c0.274 1.136 0.747 2.219 1.4 3.199l4.534 6.801h-2l-2.243-2.243c-1.125-1.125-2.651-1.757-4.242-1.757h-1.03c-1.591 0-3.117 0.632-4.242 1.757l-2.243 2.243h-2l4.534-6.801c0.653-0.98 1.126-2.063 1.4-3.199h-1.934v-3h2.286l0.571-8h-0.857v-2z" fill="none" stroke="#000" stroke-width="4px"/>
    </g>
    <g id="emoji">
        <rect x="15" y="2" width="2" height="6" fill="#e02a33"/>
        <path d="m18.571 15 0.241 3.364c0.123 1.728 0.693 3.394 1.654 4.835l4.534 6.801h-2l-2.243-2.243c-1.125-1.125-2.651-1.757-4.242-1.757h-1.03c-1.591 0-3.117 0.632-4.242 1.757l-2.243 2.243h-2l4.534-6.801c0.961-1.441 1.531-3.107 1.654-4.835l0.241-3.364 0.571-1h4l0.571 1z" fill="#e02a33"/>
        <path d="m18.429 13-0.429 1h-4l-0.429-1 0.143-2 0.286-1h4l0.286 1 0.143 2z" fill="#e02a33"/>
        <path d="m18.571 15h-5.142l0.142-2h4.858l0.142 2z" fill="#fff"/>
        <path d="m13.929 8h4.142l0.215 3h-4.572l0.215-3z" fill="#fff"/>
        <rect x="11" y="17" width="10" height="3" fill="#fff"/>
        <rect x="13" y="7" width="6" height="2" fill="#b5232a"/>
    </g>
</svg>
