<?xml version="1.0" encoding="UTF-8"?>
<!DOCTYPE svg  PUBLIC '-//W3C//DTD SVG 1.1//EN'  'http://www.w3.org/Graphics/SVG/1.1/DTD/svg11.dtd'>
<svg clip-rule="evenodd" fill-rule="evenodd" stroke-linejoin="round" stroke-miterlimit="2" version="1.1" viewBox="0 0 32 32" xml:space="preserve" xmlns="http://www.w3.org/2000/svg">
<metadata>
<rdf:RDF xmlns:cc="http://web.resource.org/cc/" xmlns:dc="http://purl.org/dc/elements/1.1/" xmlns:rdf="http://www.w3.org/1999/02/22-rdf-syntax-ns#">

     <rdf:Description rdf:about="">
       <dc:title>Mutant Standard emoji 2023.12</dc:title>
     </rdf:Description>

    <cc:work rdf:about="">
        <cc:license rdf:resource="http://creativecommons.org/licenses/by-nc-sa/4.0/"/>
        <cc:attributionName>Caius Nocturne</cc:attributionName>
        <cc:attributionURL>http://mutant.tech/</cc:attributionURL>
    </cc:work>

</rdf:RDF>
</metadata>
<rect id="volcano" width="32" height="32" fill="none"/><clipPath id="_clip1"><rect width="32" height="32"/></clipPath><g clip-path="url(#_clip1)"><g id="outline"><path d="m32 2c0-0.53-0.211-1.039-0.586-1.414s-0.884-0.586-1.414-0.586h-28c-0.53 0-1.039 0.211-1.414 0.586s-0.586 0.884-0.586 1.414v28c0 0.53 0.211 1.039 0.586 1.414s0.884 0.586 1.414 0.586h28c0.53 0 1.039-0.211 1.414-0.586s0.586-0.884 0.586-1.414v-28z"/></g><g id="emoji"><path d="m30 2h-28v7l1 1h26l1-1v-7z" fill="#1185fa"/><path d="m30 16-1 1h-26l-1-1v-7h28v7z" fill="#3899fb"/><path d="m25.818 16h4.182v3.429l-4.182-3.429zm-19.182 0-4.636 3.625v-3.625h4.636z" fill="#67b2fc"/><path d="m2 19.625 8-9.625 2-2 2 1 5-2 3 2 1 2 7 8.429v10.571h-28v-10.375z" fill="#49433c"/><path d="m20 16 5 13-2-1-3-9h-1l-1-3h2z" fill="#2d2925"/><path d="m9 21 3-7 2-1 1-3h1l-5 18v-4l-2 1v-4" fill="#2d2925"/><path d="m20 9 4 9h1l-3-7-2-2z" fill="#2d2925"/></g></g></svg>
