<?xml version="1.0" encoding="UTF-8"?>
<!DOCTYPE svg  PUBLIC '-//W3C//DTD SVG 1.1//EN'  'http://www.w3.org/Graphics/SVG/1.1/DTD/svg11.dtd'>
<svg clip-rule="evenodd" fill-rule="evenodd" stroke-linejoin="round" stroke-miterlimit="2" version="1.1" viewBox="0 0 32 32" xml:space="preserve" xmlns="http://www.w3.org/2000/svg">
<metadata>
<rdf:RDF xmlns:cc="http://web.resource.org/cc/" xmlns:dc="http://purl.org/dc/elements/1.1/" xmlns:rdf="http://www.w3.org/1999/02/22-rdf-syntax-ns#">

     <rdf:Description rdf:about="">
       <dc:title>Mutant Standard emoji 2023.12</dc:title>
     </rdf:Description>

    <cc:work rdf:about="">
        <cc:license rdf:resource="http://creativecommons.org/licenses/by-nc-sa/4.0/"/>
        <cc:attributionName>Caius Nocturne</cc:attributionName>
        <cc:attributionURL>http://mutant.tech/</cc:attributionURL>
    </cc:work>

</rdf:RDF>
</metadata>

    <rect id="world_map" width="32" height="32" fill="none"/>
    <clipPath id="_clip1">
        <rect width="32" height="32"/>
    </clipPath>
    <g clip-path="url(#_clip1)">
        <g id="outline">
            <path d="m32 6c0-0.53-0.211-1.039-0.586-1.414s-0.884-0.586-1.414-0.586h-28c-0.53 0-1.039 0.211-1.414 0.586s-0.586 0.884-0.586 1.414v20c0 0.53 0.211 1.039 0.586 1.414s0.884 0.586 1.414 0.586h28c0.53 0 1.039-0.211 1.414-0.586s0.586-0.884 0.586-1.414v-20z"/>
        </g>
        <g id="emoji">
            <rect x="2" y="6" width="28" height="20" fill="#2867fa"/>
            <clipPath id="_clip2">
                <rect x="2" y="6" width="28" height="20"/>
            </clipPath>
            <g clip-path="url(#_clip2)">
                <path d="m1 25h7.186c0.539 0 1.075-0.087 1.587-0.258 0.889-0.296 2.227-0.742 2.227-0.742l1 1h5c1.315-0.658 2.766-1 4.236-1h6.764l-1 1h3v3h-30v-3z" fill="#fff"/>
                <path d="m8 23v-4l-0.201-0.201c-0.512-0.512-0.799-1.206-0.799-1.929v-0.87l-2-1-1-1v-2s-0.041-0.081-0.106-0.211c-0.588-1.177-0.894-2.474-0.894-3.789l4 1h3l-2 2h2l-2 2v1h-2l2 2c1.281 0 2.509 0.509 3.414 1.414l0.586 0.586s-0.304 0.609-0.577 1.155c-0.28 0.56-0.649 1.071-1.091 1.513l-2.332 2.332z" fill="#4ecd2b"/>
                <clipPath id="_clip3">
                    <path d="m8 23v-4l-0.201-0.201c-0.512-0.512-0.799-1.206-0.799-1.929v-0.87l-2-1-1-1v-2s-0.041-0.081-0.106-0.211c-0.588-1.177-0.894-2.474-0.894-3.789l4 1h3l-2 2h2l-2 2v1h-2l2 2c1.281 0 2.509 0.509 3.414 1.414l0.586 0.586s-0.304 0.609-0.577 1.155c-0.28 0.56-0.649 1.071-1.091 1.513l-2.332 2.332z"/>
                </clipPath>
                <g clip-path="url(#_clip3)" fill="#f4c815">
                    <path d="m5 15v-2h1v1l-1 1z"/>
                    <path d="m6 17h2l1 2v5h-3v-7z"/>
                </g>
                <path d="m15 9-0.5 1 0.5 1-1 1h-1v1h1l1-1 1 1v-1h1v1l-1 1h-1-0.925c-0.688 0-1.348 0.273-1.835 0.76l-0.24 0.24v1l0.335 0.335c0.426 0.426 1.003 0.665 1.605 0.665h0.06l1 1v0.586c0 0.905 0.36 1.774 1 2.414h1l2-5h-1v-2l1 1h1v-1l2 3 2-2v1h1s0.275-0.11 0.643-0.257c1.122-0.449 1.857-1.535 1.857-2.743l-0.5-1 1-1h1v-2l-2-1h-1.764c-1.47 0-2.921 0.342-4.236 1l-4-1-2 1z" fill="#4ecd2b"/>
                <clipPath id="_clip4">
                    <path d="m15 9-0.5 1 0.5 1-1 1h-1v1h1l1-1 1 1v-1h1v1l-1 1h-1-0.925c-0.688 0-1.348 0.273-1.835 0.76l-0.24 0.24v1l0.335 0.335c0.426 0.426 1.003 0.665 1.605 0.665h0.06l1 1v0.586c0 0.905 0.36 1.774 1 2.414h1l2-5h-1v-2l1 1h1v-1l2 3 2-2v1h1s0.275-0.11 0.643-0.257c1.122-0.449 1.857-1.535 1.857-2.743l-0.5-1 1-1h1v-2l-2-1h-1.764c-1.47 0-2.921 0.342-4.236 1l-4-1-2 1z"/>
                </clipPath>
                <g clip-path="url(#_clip4)">
                    <path d="m11 14h4l2-2 2 1h3v1l-2 1v1l-1 2h-2l-1-2h-5v-2z" fill="#f4c815"/>
                </g>
                <path d="m7 8h1l1 1v1h0.269c0.448 0 0.858-0.253 1.058-0.654 0.292-0.583 0.673-1.346 0.673-1.346s-0.605-0.303-1.15-0.575c-0.535-0.268-1.165-0.268-1.7 0-0.545 0.272-1.15 0.575-1.15 0.575z" fill="#fff"/>
                <path d="m15 7v-1l-1 1v0.5c0 0.276 0.224 0.5 0.5 0.5s0.5-0.224 0.5-0.5v-0.5z" fill="#fff"/>
                <path d="m24.714 21c-0.189 0-0.371-0.075-0.505-0.209s-0.209-0.316-0.209-0.505v-1e-3c0-0.182 0.073-0.358 0.202-0.487l1.798-1.798v1h1v-1s0.476 0.952 0.771 1.543c0.151 0.3 0.229 0.632 0.229 0.968v1.489l-1-1h-2.286z" fill="#4ecd2b"/>
                <clipPath id="_clip5">
                    <path d="m24.714 21c-0.189 0-0.371-0.075-0.505-0.209s-0.209-0.316-0.209-0.505v-1e-3c0-0.182 0.073-0.358 0.202-0.487l1.798-1.798v1h1v-1s0.476 0.952 0.771 1.543c0.151 0.3 0.229 0.632 0.229 0.968v1.489l-1-1h-2.286z"/>
                </clipPath>
                <g clip-path="url(#_clip5)">
                    <rect x="23" y="20" width="4" height="2" fill="#f4c815"/>
                </g>
                <g fill="#4ecd2b">
                    <path d="m24 15h1v3c-0.552 0-1-0.448-1-1v-2z"/>
                    <rect x="26" y="16" width="1" height="1"/>
                    <rect x="27" y="17" width="1" height="1"/>
                    <rect x="2" y="17" width="1" height="1"/>
                    <path d="m28 12.999c0-0.552 0.447-0.999 0.999-0.999h1e-3v1c0 0.552-0.448 1-1 1v-1.001z"/>
                </g>
                <rect x="5" y="6" width="2" height="2" fill="#4ecd2b"/>
            </g>
            <path d="m14 10c-0.552 0-1 0.448-1 1h1v-1z" fill="#4ecd2b"/>
        </g>
    </g>
</svg>
