<?xml version="1.0" encoding="UTF-8"?>
<!DOCTYPE svg  PUBLIC '-//W3C//DTD SVG 1.1//EN'  'http://www.w3.org/Graphics/SVG/1.1/DTD/svg11.dtd'>
<svg clip-rule="evenodd" fill-rule="evenodd" stroke-linecap="round" stroke-linejoin="round" stroke-miterlimit="1.5" version="1.1" viewBox="0 0 32 32" xml:space="preserve" xmlns="http://www.w3.org/2000/svg">
<metadata>
<rdf:RDF xmlns:cc="http://web.resource.org/cc/" xmlns:dc="http://purl.org/dc/elements/1.1/" xmlns:rdf="http://www.w3.org/1999/02/22-rdf-syntax-ns#">

     <rdf:Description rdf:about="">
       <dc:title>Mutant Standard emoji 2023.12</dc:title>
     </rdf:Description>

    <cc:work rdf:about="">
        <cc:license rdf:resource="http://creativecommons.org/licenses/by-nc-sa/4.0/"/>
        <cc:attributionName>Caius Nocturne</cc:attributionName>
        <cc:attributionURL>http://mutant.tech/</cc:attributionURL>
    </cc:work>

</rdf:RDF>
</metadata>
<rect id="dizzy" width="32" height="32" fill="none"/><g id="outline" fill="none" stroke="#000"><path d="m18.411 12.646c6.213 3.587 10.178 8.371 8.847 10.675-1.33 2.305-7.455 1.263-13.669-2.324-6.213-3.588-10.178-8.371-8.847-10.676 1.33-2.304 7.455-1.262 13.669 2.325z" stroke-width="6px"/><ellipse cx="16" cy="16.821" rx="13" ry="4.821" stroke-width="6px"/><path d="m21 7 3-1 1-4 1 4 3 1-3 1-1 4-1-4-3-1z" stroke-width="4px"/><path d="m11 25 3-1 1-4 1 4 3 1-3 1-1 4-1-4-3-1z" stroke-width="4px"/><path d="m4 11 3-1 1-4 1 4 3 1-3 1-1 4-1-4-3-1z" stroke-width="4px"/></g><g id="emoji"><path d="m18.411 12.646c6.213 3.587 10.178 8.371 8.847 10.675-1.33 2.305-7.455 1.263-13.669-2.324-6.213-3.588-10.178-8.371-8.847-10.676 1.33-2.304 7.455-1.262 13.669 2.325z" fill="none" stroke="#982eee" stroke-width="2px"/><ellipse cx="16" cy="16.821" rx="13" ry="4.821" fill="none" stroke="#982eee" stroke-width="2px"/><path d="m21 7 3-1 1-4 1 4 3 1-3 1-1 4-1-4-3-1z" fill="#fdef24"/><path d="m11 25 3-1 1-4 1 4 3 1-3 1-1 4-1-4-3-1z" fill="#fdef24"/><path d="m4 11 3-1 1-4 1 4 3 1-3 1-1 4-1-4-3-1z" fill="#fdef24"/></g></svg>
