<?xml version="1.0" encoding="UTF-8"?>
<svg clip-rule="evenodd" fill-rule="evenodd" stroke-linecap="round" viewBox="0 0 32 32" xmlns="http://www.w3.org/2000/svg">
 <clipPath id="a">
  <path d="m0 0h32v32h-32z" clip-rule="evenodd"/>
 </clipPath>
 <path d="m0 0h32v32h-32z" fill="none"/>
 <g clip-path="url(#a)">
  <path d="m16 30c-6.627 0-12-5.373-12-12v-7h2.278c1.27 0 2.521 0.176 3.722 0.514v-0.516c0-4.969 4.028-8.998 8.998-8.998h2e-3v4.63c1.28-0.414 2.628-0.63 3.998-0.63h2e-3v10.091c1.554-0.712 3.256-1.091 4.998-1.091h2e-3v3c0 6.627-5.373 12-12 12zm14-23v1.413c0 1.216-0.483 2.383-1.344 3.243-0.86 0.861-2.027 1.344-3.243 1.344h-0.413s0-0.596 0-1.413c0-1.216 0.483-2.383 1.344-3.243 0.86-0.861 2.027-1.344 3.243-1.344zm-22 2h-1.413c-1.216 0-2.383-0.483-3.243-1.344-0.861-0.86-1.344-2.027-1.344-3.243v-2.413h1.413c1.216 0 2.383 0.483 3.243 1.344 0.861 0.86 1.344 2.027 1.344 3.243z" fill="none" stroke="#000" stroke-width="4"/>
  <g fill="#f05400">
   <path d="m30 7s-0.156 0-0.413 0c-1.216 0-2.383 0.483-3.243 1.344-0.861 0.86-1.344 2.027-1.344 3.243v1.413h0.413c1.216 0 2.383-0.483 3.243-1.344 0.861-0.86 1.344-2.027 1.344-3.243v-1.413z"/>
   <path d="m2 2h1.413c1.216 0 2.383 0.483 3.243 1.344 0.861 0.86 1.344 2.027 1.344 3.243v2.413s-0.596 0-1.413 0c-1.216 0-2.383-0.483-3.243-1.344-0.861-0.86-1.344-2.027-1.344-3.243v-2.413z"/>
   <path d="m16 30c-6.627 0-12-5.373-12-12v-7h2.278c1.27 0 2.521 0.176 3.722 0.514v-0.516c0-4.969 4.028-8.998 8.998-8.998h2e-3v4.63c1.28-0.414 2.628-0.63 3.998-0.63h2e-3v10.091c1.554-0.712 3.256-1.091 4.998-1.091h2e-3v3c0 6.627-5.373 12-12 12z"/>
  </g>
  <path d="m17.998 6h2e-3v6.937c1.231-0.611 2.598-0.937 3.998-0.937h2e-3v6c0 0.433-0.031 0.859-0.09 1.276 0.666-0.18 1.367-0.276 2.09-0.276h2c0 5.523-4.477 10-10 10s-10-4.477-10-10v-5h1c1.411 0 2.76 0.266 4 0.75v-1.752c0-3.865 3.133-6.998 6.998-6.998z" fill="#f08c00"/>
  <path d="m16.998 12h.002v4.999c.86-.645 1.911-.999 2.998-.999h.002v4c0 .492-.071.968-.204 1.417.682-.269 1.425-.417 2.202-.417h1.002c0 3.314-2.686 6-6 6h-1c-4.418 0-8-3.582-8-8 0-1.175 0-2 0-2h1.334c1.354 0 2.614.404 3.666 1.098v-2.1c0-2.208 1.79-3.998 3.998-3.998z" fill="#ffbf36"/>
 </g>
</svg>
