<?xml version="1.0" encoding="UTF-8"?>
<!DOCTYPE svg  PUBLIC '-//W3C//DTD SVG 1.1//EN'  'http://www.w3.org/Graphics/SVG/1.1/DTD/svg11.dtd'>
<svg clip-rule="evenodd" fill-rule="evenodd" stroke-linecap="round" stroke-linejoin="round" stroke-miterlimit="1.5" version="1.1" viewBox="0 0 32 32" xml:space="preserve" xmlns="http://www.w3.org/2000/svg">
<metadata>
<rdf:RDF xmlns:cc="http://web.resource.org/cc/" xmlns:dc="http://purl.org/dc/elements/1.1/" xmlns:rdf="http://www.w3.org/1999/02/22-rdf-syntax-ns#">

     <rdf:Description rdf:about="">
       <dc:title>Mutant Standard emoji 2023.12</dc:title>
     </rdf:Description>

    <cc:work rdf:about="">
        <cc:license rdf:resource="http://creativecommons.org/licenses/by-nc-sa/4.0/"/>
        <cc:attributionName>Caius Nocturne</cc:attributionName>
        <cc:attributionURL>http://mutant.tech/</cc:attributionURL>
    </cc:work>

</rdf:RDF>
</metadata>
<rect id="shining_star" width="32" height="32" fill="none"/><clipPath id="_clip1"><rect width="32" height="32"/></clipPath><g clip-path="url(#_clip1)"><g id="emoji"><g fill="none"><path d="m16 15-8.296-11.453" stroke="#000" stroke-width="6px"/><path d="m10.193 6.983-2.489-3.436" stroke="#fdef24" stroke-width="2px"/></g><g fill="none"><path d="m16 15 8.296-11.453" stroke="#000" stroke-width="6px"/><path d="m21.807 6.983 2.489-3.436" stroke="#fdef24" stroke-width="2px"/></g><g fill="none"><path d="m16 15 0.047 14.142" stroke="#000" stroke-width="6px"/><path d="m16.033 24.899 0.014 4.243" stroke="#fdef24" stroke-width="2px"/></g><g fill="none"><path d="m16 15-13.436 4.412" stroke="#000" stroke-width="6px"/><path d="m6.595 18.089-4.031 1.323" stroke="#fdef24" stroke-width="2px"/></g><g fill="none"><path d="m16 15 13.436 4.412" stroke="#000" stroke-width="6px"/><path d="m25.405 18.089 4.031 1.323" stroke="#fdef24" stroke-width="2px"/></g><path d="m15.049 3.927c0.134-0.412 0.518-0.691 0.951-0.691s0.817 0.279 0.951 0.691c0.925 2.847 2.192 6.747 2.192 6.747h7.094c0.433 0 0.817 0.279 0.951 0.691s-0.013 0.863-0.363 1.118c-2.422 1.76-5.739 4.169-5.739 4.169s1.267 3.9 2.192 6.747c0.134 0.412-0.013 0.864-0.363 1.118-0.351 0.255-0.825 0.255-1.176 0-2.422-1.76-5.739-4.169-5.739-4.169s-3.317 2.409-5.739 4.169c-0.351 0.255-0.825 0.255-1.176 0-0.35-0.254-0.497-0.706-0.363-1.118 0.925-2.847 2.192-6.747 2.192-6.747s-3.317-2.409-5.739-4.169c-0.35-0.255-0.497-0.706-0.363-1.118s0.518-0.691 0.951-0.691h7.094s1.267-3.9 2.192-6.747z" fill="#fdef24"/><path d="m16.121 1.238 0.12 7e-3 0.119 0.012 0.118 0.017 0.117 0.021 0.116 0.026 0.115 0.03 0.112 0.035 0.111 0.039 0.108 0.043 0.107 0.047 0.105 0.051 0.102 0.055 0.1 0.059 0.098 0.062 0.095 0.067 0.092 0.07 0.089 0.073 0.088 0.077 0.084 0.08 0.08 0.084 0.078 0.087 0.075 0.09 0.071 0.093 0.067 0.097 0.064 0.099 0.061 0.102 0.056 0.105 0.053 0.107 0.048 0.11 0.044 0.112 0.033 0.095 1.749 5.384h5.661l0.101 2e-3 0.12 7e-3 0.119 0.012 0.119 0.017 0.117 0.021 0.115 0.026 0.115 0.03 0.112 0.035 0.111 0.039 0.109 0.043 0.106 0.047 0.105 0.051 0.102 0.055 0.1 0.059 0.098 0.062 0.095 0.066 0.092 0.07 0.09 0.074 0.087 0.077 0.084 0.08 0.08 0.084 0.078 0.087 0.075 0.09 0.071 0.093 0.068 0.096 0.064 0.1 0.06 0.101 0.056 0.105 0.053 0.108 0.048 0.11 0.044 0.111 0.04 0.115 0.035 0.115 0.03 0.117 0.025 0.117 0.021 0.117 0.016 0.118 0.011 0.119 7e-3 0.117 2e-3 0.118-3e-3 0.117-8e-3 0.117-0.011 0.116-0.017 0.115-0.02 0.115-0.025 0.113-0.03 0.112-0.033 0.111-0.038 0.109-0.042 0.108-0.047 0.107-0.05 0.104-0.055 0.103-0.059 0.101-0.062 0.099-0.067 0.096-0.071 0.094-0.074 0.092-0.079 0.089-0.082 0.086-0.085 0.083-0.09 0.08-0.093 0.076-0.08 0.061-4.58 3.327 1.749 5.384 0.029 0.097 0.031 0.116 0.025 0.117 0.021 0.118 0.016 0.118 0.011 0.118 6e-3 0.118 2e-3 0.118-2e-3 0.117-8e-3 0.116-0.012 0.117-0.016 0.115-0.02 0.114-0.026 0.114-0.029 0.111-0.034 0.111-0.038 0.11-0.042 0.108-0.046 0.106-0.05 0.105-0.055 0.103-0.059 0.1-0.062 0.099-0.067 0.097-0.071 0.094-0.074 0.091-0.079 0.089-0.082 0.086-0.086 0.083-0.089 0.08-0.093 0.077-0.097 0.073-0.099 0.069-0.101 0.064-0.104 0.061-0.105 0.056-0.107 0.051-0.109 0.048-0.11 0.042-0.112 0.038-0.112 0.034-0.113 0.029-0.114 0.025-0.115 0.02-0.115 0.015-0.116 0.012-0.115 6e-3 -0.116 3e-3 -0.116-3e-3 -0.116-6e-3 -0.115-0.012-0.115-0.015-0.115-0.02-0.114-0.025-0.113-0.029-0.113-0.034-0.111-0.038-0.11-0.042-0.109-0.048-0.107-0.051-0.105-0.056-0.104-0.061-0.102-0.064-0.082-0.058-4.58-3.327-4.58 3.327-0.082 0.058-0.102 0.064-0.104 0.061-0.105 0.056-0.107 0.051-0.109 0.048-0.11 0.042-0.111 0.038-0.113 0.034-0.113 0.029-0.114 0.025-0.115 0.02-0.115 0.015-0.115 0.012-0.116 6e-3 -0.116 3e-3 -0.116-3e-3 -0.115-6e-3 -0.116-0.012-0.115-0.015-0.115-0.02-0.114-0.025-0.113-0.029-0.113-0.034-0.111-0.038-0.11-0.042-0.109-0.048-0.107-0.051-0.105-0.056-0.104-0.061-0.101-0.064-0.099-0.069-0.097-0.073-0.093-0.077-0.089-0.08-0.086-0.083-0.082-0.086-0.079-0.089-0.074-0.091-0.071-0.094-0.067-0.097-0.062-0.099-0.059-0.1-0.055-0.103-0.05-0.105-0.046-0.106-0.042-0.108-0.038-0.11-0.034-0.111-0.029-0.112-0.026-0.113-0.02-0.114-0.016-0.115-0.012-0.117-8e-3 -0.116-2e-3 -0.118 2e-3 -0.117 6e-3 -0.118 0.011-0.118 0.016-0.118 0.021-0.118 0.025-0.117 0.031-0.116 0.029-0.097 1.749-5.384-4.58-3.327-0.08-0.061-0.093-0.076-0.089-0.08-0.086-0.083-0.082-0.086-0.079-0.089-0.074-0.092-0.071-0.094-0.067-0.096-0.062-0.099-0.059-0.101-0.055-0.103-0.05-0.104-0.047-0.107-0.042-0.108-0.038-0.109-0.033-0.111-0.03-0.112-0.025-0.113-0.02-0.115-0.017-0.115-0.011-0.116-8e-3 -0.117-3e-3 -0.117 2e-3 -0.118 7e-3 -0.117 0.011-0.119 0.016-0.118 0.021-0.117 0.025-0.117 0.03-0.117 0.035-0.115 0.04-0.115 0.044-0.112 0.048-0.109 0.053-0.108 0.056-0.104 0.06-0.102 0.064-0.1 0.068-0.096 0.071-0.093 0.075-0.09 0.078-0.087 0.08-0.084 0.084-0.08 0.087-0.077 0.09-0.074 0.092-0.07 0.095-0.066 0.098-0.062 0.1-0.059 0.102-0.055 0.105-0.051 0.106-0.047 0.109-0.043 0.111-0.039 0.112-0.035 0.115-0.03 0.115-0.026 0.117-0.021 0.119-0.017 0.119-0.012 0.12-7e-3 0.101-2e-3h5.661l1.749-5.384 0.033-0.095 0.044-0.112 0.048-0.11 0.053-0.107 0.056-0.105 0.061-0.102 0.064-0.1 0.067-0.096 0.071-0.093 0.075-0.09 0.078-0.087 0.08-0.084 0.084-0.08 0.087-0.077 0.09-0.073 0.092-0.07 0.096-0.067 0.097-0.062 0.1-0.059 0.102-0.055 0.105-0.051 0.107-0.047 0.108-0.043 0.111-0.039 0.112-0.035 0.115-0.03 0.116-0.026 0.117-0.021 0.118-0.017 0.119-0.012 0.12-7e-3 0.121-2e-3 0.121 2e-3zm-0.161 1.999-0.041 2e-3 -0.039 4e-3 -0.04 6e-3 -0.039 7e-3 -0.038 9e-3 -0.038 0.01-0.038 0.011-0.036 0.013-0.037 0.014-0.035 0.016-0.035 0.017-0.034 0.018-0.034 0.02-0.032 0.021-0.032 0.022-0.031 0.023-0.03 0.025-0.029 0.026-0.028 0.026-0.027 0.028-0.025 0.029-0.025 0.03-0.024 0.031-0.022 0.032-0.022 0.033-0.02 0.034-0.019 0.035-0.017 0.036-0.016 0.036-0.015 0.038-0.013 0.038-2.192 6.747h-7.094l-0.041 1e-3 -0.04 2e-3 -0.039 4e-3 -0.04 6e-3 -0.039 7e-3 -0.038 8e-3 -0.038 0.01-0.038 0.012-0.036 0.013-0.037 0.014-0.035 0.016-0.035 0.017-0.034 0.018-0.034 0.02-0.032 0.021-0.032 0.022-0.031 0.023-0.03 0.025-0.029 0.025-0.028 0.027-0.027 0.028-0.026 0.029-0.024 0.03-0.024 0.031-0.023 0.032-0.021 0.033-0.02 0.034-0.019 0.035-0.017 0.035-0.016 0.037-0.015 0.038-0.013 0.038-0.012 0.038-0.01 0.039-8e-3 0.039-7e-3 0.04-6e-3 0.039-6e-3 0.078v0.039l1e-3 0.039 2e-3 0.039 4e-3 0.039 6e-3 0.038 6e-3 0.039 9e-3 0.037 0.01 0.038 0.011 0.037 0.012 0.036 0.03 0.072 0.017 0.035 0.018 0.034 0.02 0.034 0.02 0.032 0.023 0.033 0.023 0.031 0.025 0.03 0.026 0.03 0.027 0.029 0.029 0.027 0.03 0.027 0.031 0.025 0.032 0.025 5.739 4.169-2.192 6.747-0.012 0.039-0.01 0.039-8e-3 0.039-7e-3 0.039-5e-3 0.039-4e-3 0.04-2e-3 0.039-1e-3 0.039 1e-3 0.039 2e-3 0.039 4e-3 0.038 6e-3 0.039 7e-3 0.038 8e-3 0.038 0.01 0.037 0.011 0.037 0.013 0.037 0.014 0.036 0.015 0.035 0.017 0.035 0.018 0.034 0.02 0.034 0.021 0.033 0.022 0.032 0.023 0.031 0.025 0.031 0.026 0.029 0.028 0.029 0.028 0.028 0.03 0.026 0.031 0.026 0.032 0.024 0.034 0.023 0.033 0.022 0.035 0.02 0.035 0.019 0.036 0.017 0.036 0.016 0.037 0.014 0.074 0.024 0.076 0.018 0.038 6e-3 0.038 5e-3 0.039 4e-3 0.038 2e-3 0.039 1e-3 0.039-1e-3 0.038-2e-3 0.039-4e-3 0.038-5e-3 0.039-6e-3 0.038-9e-3 0.037-9e-3 0.038-0.012 0.037-0.012 0.036-0.014 0.036-0.016 0.036-0.017 0.035-0.019 0.035-0.02 0.034-0.022 0.033-0.023 5.739-4.169 5.739 4.169 0.033 0.023 0.034 0.022 0.035 0.02 0.035 0.019 0.036 0.017 0.036 0.016 0.036 0.014 0.037 0.012 0.038 0.012 0.037 9e-3 0.038 9e-3 0.039 6e-3 0.038 5e-3 0.039 4e-3 0.038 2e-3 0.039 1e-3 0.039-1e-3 0.038-2e-3 0.039-4e-3 0.038-5e-3 0.038-6e-3 0.076-0.018 0.074-0.024 0.037-0.014 0.036-0.016 0.036-0.017 0.035-0.019 0.035-0.02 0.033-0.022 0.034-0.023 0.032-0.024 0.031-0.026 0.03-0.026 0.028-0.028 0.028-0.029 0.026-0.029 0.025-0.031 0.023-0.031 0.022-0.032 0.021-0.033 0.02-0.034 0.018-0.034 0.017-0.035 0.015-0.035 0.014-0.036 0.013-0.037 0.011-0.037 0.01-0.037 8e-3 -0.038 7e-3 -0.038 6e-3 -0.039 4e-3 -0.038 2e-3 -0.039 1e-3 -0.039-1e-3 -0.039-2e-3 -0.039-4e-3 -0.04-5e-3 -0.039-7e-3 -0.039-8e-3 -0.039-0.01-0.039-0.012-0.039-2.192-6.747 5.739-4.169 0.032-0.025 0.031-0.025 0.03-0.027 0.029-0.027 0.027-0.029 0.026-0.03 0.025-0.03 0.023-0.031 0.023-0.033 0.02-0.032 0.02-0.034 0.018-0.034 0.017-0.035 0.03-0.072 0.012-0.036 0.011-0.037 0.01-0.038 9e-3 -0.037 6e-3 -0.039 6e-3 -0.038 4e-3 -0.039 2e-3 -0.039 1e-3 -0.039v-0.039l-6e-3 -0.078-6e-3 -0.039-7e-3 -0.04-8e-3 -0.039-0.01-0.039-0.012-0.038-0.013-0.038-0.015-0.038-0.016-0.037-0.017-0.035-0.019-0.035-0.02-0.034-0.021-0.033-0.023-0.032-0.024-0.031-0.024-0.03-0.026-0.029-0.027-0.028-0.028-0.027-0.029-0.025-0.03-0.025-0.031-0.023-0.032-0.022-0.032-0.021-0.034-0.02-0.034-0.018-0.035-0.017-0.035-0.016-0.037-0.014-0.036-0.013-0.038-0.012-0.038-0.01-0.038-8e-3 -0.039-7e-3 -0.04-6e-3 -0.039-4e-3 -0.04-2e-3 -0.041-1e-3h-7.094l-2.192-6.747-0.013-0.038-0.015-0.038-0.016-0.036-0.017-0.036-0.019-0.035-0.02-0.034-0.022-0.033-0.022-0.032-0.024-0.031-0.025-0.03-0.025-0.029-0.027-0.028-0.028-0.026-0.029-0.026-0.03-0.025-0.031-0.023-0.032-0.022-0.032-0.021-0.034-0.02-0.034-0.018-0.035-0.017-0.035-0.016-0.037-0.014-0.036-0.013-0.038-0.011-0.038-0.01-0.038-9e-3 -0.039-7e-3 -0.04-6e-3 -0.039-4e-3 -0.041-2e-3 -0.04-1e-3 -0.04 1e-3z"/></g></g></svg>
