<?xml version="1.0" encoding="UTF-8"?>
<!DOCTYPE svg  PUBLIC '-//W3C//DTD SVG 1.1//EN'  'http://www.w3.org/Graphics/SVG/1.1/DTD/svg11.dtd'>
<svg clip-rule="evenodd" fill-rule="evenodd" stroke-linecap="round" stroke-linejoin="round" stroke-miterlimit="1.5" version="1.1" viewBox="0 0 32 32" xml:space="preserve" xmlns="http://www.w3.org/2000/svg" xmlns:serif="http://www.serif.com/">
<metadata>
<rdf:RDF xmlns:cc="http://web.resource.org/cc/" xmlns:dc="http://purl.org/dc/elements/1.1/" xmlns:rdf="http://www.w3.org/1999/02/22-rdf-syntax-ns#">

     <rdf:Description rdf:about="">
       <dc:title>Mutant Standard emoji 2023.12</dc:title>
     </rdf:Description>

    <cc:work rdf:about="">
        <cc:license rdf:resource="http://creativecommons.org/licenses/by-nc-sa/4.0/"/>
        <cc:attributionName>Caius Nocturne</cc:attributionName>
        <cc:attributionURL>http://mutant.tech/</cc:attributionURL>
    </cc:work>

</rdf:RDF>
</metadata>
<rect id="shooting_star" width="32" height="32" fill="none"/><g id="outline"><path id="pre-bake" d="m5.068 16.906c-0.09-7e-3 -0.178-0.038-0.255-0.094-0.175-0.127-0.248-0.353-0.181-0.559 0.577-1.777 1.475-4.539 1.475-4.539s-2.35-1.708-3.862-2.806c-0.175-0.127-0.249-0.353-0.182-0.559s0.259-0.346 0.476-0.346h4.773s0.898-2.762 1.475-4.539c0.067-0.206 0.259-0.346 0.476-0.346 0.03 0 0.059 3e-3 0.088 8e-3 0 0 5.14 0.44 12.649 4.874 5.671 3.349 8 8 8 8v14s-10.79-7.919-15-10c-5.528-2.732-9.932-3.094-9.932-3.094z" fill="none" stroke="#000" stroke-width="4px"/></g><g id="emoji"><path d="m9.351 3.126s5.14 0.44 12.649 4.874c5.671 3.349 8 8 8 8v14s-10.79-7.919-15-10c-5.528-2.732-9.932-3.094-9.932-3.094l4.283-13.78z" fill="#282480"/><clipPath id="_clip1"><path d="m9.351 3.126s5.14 0.44 12.649 4.874c5.671 3.349 8 8 8 8v14s-10.79-7.919-15-10c-5.528-2.732-9.932-3.094-9.932-3.094l4.283-13.78z"/></clipPath><g clip-path="url(#_clip1)" fill="none" stroke-linejoin="miter" stroke-width="2px"><path d="m15 13s2.752 0.928 7 4c6.976 5.045 10 10 10 10" stroke="#bd6cd6"/><path d="m9 5s3.067 0.872 6 2c4.842 1.862 8.919 4.427 13 9" stroke="#6c8fd6"/></g><path id="pre-bake1" d="m8.787 3.464c0.067-0.206 0.259-0.346 0.476-0.346 0.216 0 0.408 0.14 0.475 0.346 0.578 1.777 1.475 4.539 1.475 4.539h4.774c0.217 0 0.408 0.14 0.475 0.346s-6e-3 0.432-0.181 0.559c-1.512 1.098-3.862 2.806-3.862 2.806s0.898 2.762 1.475 4.539c0.067 0.206-6e-3 0.432-0.182 0.559-0.175 0.128-0.412 0.128-0.587 0-1.512-1.098-3.862-2.805-3.862-2.805s-2.35 1.707-3.862 2.805c-0.175 0.128-0.412 0.128-0.588 0-0.175-0.127-0.248-0.353-0.181-0.559 0.577-1.777 1.475-4.539 1.475-4.539s-2.35-1.708-3.862-2.806c-0.175-0.127-0.249-0.353-0.182-0.559s0.259-0.346 0.476-0.346h4.773s0.898-2.762 1.475-4.539z" fill="#fdef24" serif:id="pre-bake"/></g></svg>
