<?xml version="1.0" encoding="UTF-8"?>
<!DOCTYPE svg  PUBLIC '-//W3C//DTD SVG 1.1//EN'  'http://www.w3.org/Graphics/SVG/1.1/DTD/svg11.dtd'>
<svg clip-rule="evenodd" fill-rule="evenodd" stroke-linecap="round" stroke-linejoin="round" stroke-miterlimit="1.5" version="1.1" viewBox="0 0 32 32" xml:space="preserve" xmlns="http://www.w3.org/2000/svg">
<metadata>
<rdf:RDF xmlns:cc="http://web.resource.org/cc/" xmlns:dc="http://purl.org/dc/elements/1.1/" xmlns:rdf="http://www.w3.org/1999/02/22-rdf-syntax-ns#">

     <rdf:Description rdf:about="">
       <dc:title>Mutant Standard emoji 2023.12</dc:title>
     </rdf:Description>

    <cc:work rdf:about="">
        <cc:license rdf:resource="http://creativecommons.org/licenses/by-nc-sa/4.0/"/>
        <cc:attributionName>Caius Nocturne</cc:attributionName>
        <cc:attributionURL>http://mutant.tech/</cc:attributionURL>
    </cc:work>

</rdf:RDF>
</metadata>
<rect id="sparkles" width="32" height="32" fill="none"/><g id="outline" fill="none" stroke="#000" stroke-width="4px"><path d="m14 15 5.5-2.5 2.5-8.5 2.5 8.5 5.5 2.5-5.5 2.5-2.5 8.5-2.5-8.5-5.5-2.5z"/><path d="m4 23 3.5-1.5 1.5-5.5 1.5 5.5 3.5 1.5-3.5 1.5-1.5 5.5-1.5-5.5-3.5-1.5z"/><path d="m2 7 2-1 1-4 1 4 2 1-2 1-1 4-1-4-2-1z"/></g><g id="emoji" fill="#fdef24"><path d="m14 15 5.5-2.5 2.5-8.5 2.5 8.5 5.5 2.5-5.5 2.5-2.5 8.5-2.5-8.5-5.5-2.5z"/><path d="m4 23 3.5-1.5 1.5-5.5 1.5 5.5 3.5 1.5-3.5 1.5-1.5 5.5-1.5-5.5-3.5-1.5z"/><path d="m2 7 2-1 1-4 1 4 2 1-2 1-1 4-1-4-2-1z"/></g></svg>
