<?xml version="1.0" encoding="UTF-8"?>
<!DOCTYPE svg  PUBLIC '-//W3C//DTD SVG 1.1//EN'  'http://www.w3.org/Graphics/SVG/1.1/DTD/svg11.dtd'>
<svg clip-rule="evenodd" fill-rule="evenodd" stroke-linecap="round" stroke-linejoin="round" stroke-miterlimit="1.5" version="1.1" viewBox="0 0 32 32" xml:space="preserve" xmlns="http://www.w3.org/2000/svg">
<metadata>
<rdf:RDF xmlns:cc="http://web.resource.org/cc/" xmlns:dc="http://purl.org/dc/elements/1.1/" xmlns:rdf="http://www.w3.org/1999/02/22-rdf-syntax-ns#">

     <rdf:Description rdf:about="">
       <dc:title>Mutant Standard emoji 2023.12</dc:title>
     </rdf:Description>

    <cc:work rdf:about="">
        <cc:license rdf:resource="http://creativecommons.org/licenses/by-nc-sa/4.0/"/>
        <cc:attributionName>Caius Nocturne</cc:attributionName>
        <cc:attributionURL>http://mutant.tech/</cc:attributionURL>
    </cc:work>

</rdf:RDF>
</metadata>
<path id="eye_speech_bubble" d="m0 0v32h32v-32h-32z" fill="none"/><clipPath id="_clip1"><path d="m0 0v32h32v-32h-32z"/></clipPath><g clip-path="url(#_clip1)"><g id="outline"><path d="m2.001 12.998c2.974-4.886 8.28-7.867 13.999-7.867s11.025 2.981 13.999 7.867l1e-3 2e-3v2s0 1e-3 -1e-3 2e-3c-1.284 2.109-3.001 3.862-4.999 5.175v7.823l-5.507-5.507c-1.135 0.248-2.305 0.376-3.493 0.376-5.719 0-11.025-2.981-13.999-7.867-1e-3 -1e-3 -1e-3 -2e-3 -1e-3 -2e-3v-2l1e-3 -2e-3z" fill="none" stroke="#000" stroke-width="4px"/></g><g id="emoji"><path d="m19.493 22.493c-1.135 0.248-2.305 0.376-3.493 0.376-5.719 0-11.025-2.981-13.999-7.867-1e-3 -1e-3 -1e-3 -2e-3 -1e-3 -2e-3v-2h28v2s0 1e-3 -1e-3 2e-3c-1.284 2.109-3.001 3.862-4.999 5.175v7.823l-5.507-5.507z" fill="#747474"/><path d="m20.296 20.296c-1.383 0.376-2.826 0.573-4.296 0.573-5.719 0-11.025-2.981-13.999-7.867-1e-3 -1e-3 -1e-3 -2e-3 -1e-3 -2e-3s0-1e-3 1e-3 -2e-3c2.974-4.886 8.28-7.867 13.999-7.867s11.025 2.981 13.999 7.867c1e-3 1e-3 1e-3 2e-3 1e-3 2e-3s0 1e-3 -1e-3 2e-3c-1.284 2.109-3.001 3.862-4.999 5.175v6.823l-4.704-4.704z" fill="#fff"/><circle cx="16" cy="13" r="6" fill="#585858"/><circle cx="16" cy="13" r="3"/><circle cx="18" cy="11" r="2" fill="#fff" fill-opacity=".3098"/></g></g></svg>
