<?xml version="1.0" encoding="UTF-8"?>
<!DOCTYPE svg  PUBLIC '-//W3C//DTD SVG 1.1//EN'  'http://www.w3.org/Graphics/SVG/1.1/DTD/svg11.dtd'>
<svg clip-rule="evenodd" fill-rule="evenodd" stroke-linecap="round" stroke-linejoin="round" stroke-miterlimit="1.5" version="1.1" viewBox="0 0 32 32" xml:space="preserve" xmlns="http://www.w3.org/2000/svg">
<metadata>
<rdf:RDF xmlns:cc="http://web.resource.org/cc/" xmlns:dc="http://purl.org/dc/elements/1.1/" xmlns:rdf="http://www.w3.org/1999/02/22-rdf-syntax-ns#">

     <rdf:Description rdf:about="">
       <dc:title>Mutant Standard emoji 2023.12</dc:title>
     </rdf:Description>

    <cc:work rdf:about="">
        <cc:license rdf:resource="http://creativecommons.org/licenses/by-nc-sa/4.0/"/>
        <cc:attributionName>Caius Nocturne</cc:attributionName>
        <cc:attributionURL>http://mutant.tech/</cc:attributionURL>
    </cc:work>

</rdf:RDF>
</metadata>
<path id="speaker_medium_volume" d="m0 0v32h32v-32h-32z" fill="none"/><clipPath id="_clip1"><path d="m0 0v32h32v-32h-32z"/></clipPath><g clip-path="url(#_clip1)"><g id="outline" stroke="#000" stroke-width="4px"><path d="m23.662 24.662c2.297-2.297 3.588-5.413 3.588-8.662s-1.291-6.365-3.588-8.662l-8.662 8.662 8.662 8.662z"/><path d="m4 12v8h6l6 6v-20l-6 6h-6z" fill="none"/></g><g id="emoji"><path d="m15 16 16-16h2v32h-2l-16-16z" fill="none"/><clipPath id="_clip2"><path d="m15 16 16-16h2v32h-2l-16-16z"/></clipPath><g clip-path="url(#_clip2)" fill="none" stroke="#e6e6e6" stroke-width="2.5px"><circle cx="15" cy="16" r="11"/><circle cx="15" cy="16" r="6.5"/></g><path d="m16 22-6-3-6-1v-6h6l6-6v16z" fill="#666"/><path d="m4 18h7.172c0.53 0 1.039 0.211 1.414 0.586l3.414 3.414v4l-6-6h-6v-2z" fill="#515151"/></g></g></svg>
