<?xml version="1.0" encoding="UTF-8"?>
<svg clip-rule="evenodd" fill-rule="evenodd" stroke-linejoin="round" stroke-miterlimit="1.4142" viewBox="0 0 32 32" xmlns="http://www.w3.org/2000/svg">
 <clipPath id="a">
  <path d="m0 0v32h32v-32z" clip-rule="evenodd"/>
 </clipPath>
 <path d="m0 0v32h32v-32z" fill="none"/>
 <g clip-path="url(#a)">
  <path d="m7 22h-2c-1.657 0-3-1.343-3-3v-12c0-1.657 1.343-3 3-3h22c1.657 0 3 1.343 3 3v12c0 1.657-1.343 3-3 3h-13l-7 7z" fill="none" stroke="#000" stroke-width="4"/>
  <path d="m7 22h-2c-1.657 0-3-1.343-3-3v-3h28v3c0 1.657-1.343 3-3 3h-13l-7 7z" fill="#747474" fill-rule="nonzero"/>
  <path d="m7 20h-2c-1.657 0-3-1.343-3-3v-10c0-1.657 1.343-3 3-3h22c1.657 0 3 1.343 3 3v10c0 1.657-1.343 3-3 3h-14l-6 6z" fill="#fff"/>
 </g>
</svg>
