<?xml version="1.0" encoding="UTF-8"?>
<!DOCTYPE svg  PUBLIC '-//W3C//DTD SVG 1.1//EN'  'http://www.w3.org/Graphics/SVG/1.1/DTD/svg11.dtd'>
<svg clip-rule="evenodd" fill-rule="evenodd" stroke-linecap="round" stroke-linejoin="round" stroke-miterlimit="1.5" version="1.1" viewBox="0 0 32 32" xml:space="preserve" xmlns="http://www.w3.org/2000/svg">
<metadata>
<rdf:RDF xmlns:cc="http://web.resource.org/cc/" xmlns:dc="http://purl.org/dc/elements/1.1/" xmlns:rdf="http://www.w3.org/1999/02/22-rdf-syntax-ns#">

     <rdf:Description rdf:about="">
       <dc:title>Mutant Standard emoji 2023.12</dc:title>
     </rdf:Description>

    <cc:work rdf:about="">
        <cc:license rdf:resource="http://creativecommons.org/licenses/by-nc-sa/4.0/"/>
        <cc:attributionName>Caius Nocturne</cc:attributionName>
        <cc:attributionURL>http://mutant.tech/</cc:attributionURL>
    </cc:work>

</rdf:RDF>
</metadata>
<path id="spiky_speech_bubble" d="m0 0v32h32v-32h-32z" fill="none"/><clipPath id="_clip1"><path d="m0 0v32h32v-32h-32z"/></clipPath><g clip-path="url(#_clip1)"><g id="outline"><path d="m6 3 7 3 3-4 3 4 7-3v2l-1.5 5.25 5.5 2.75v2l-5.429 2.714 1.429 4.286v2l-6-2-3 5-2.609-3.914c-2.291 2.335-4.896 4.345-7.743 5.972l-1.648 0.942v-2l0.563-0.703c1.441-1.802 2.674-3.757 3.676-5.827l-4.239 0.53v-2l1.231-2.462-4.231-2.538v-2l5.5-2.75-1.5-5.25v-2z" fill="none" stroke="#000" stroke-width="4px"/></g><g id="emoji"><path d="m10.167 21.354-5.167 0.646v-2l2-2-5-3v-2l6-1-2-7v-2l7 5h6l7-5v2l-2 7 6 1v2l-6 3 2 4v2l-6-2-3 5-2.609-3.914c-2.291 2.335-4.896 4.345-7.743 5.972l-1.648 0.942v-2l3-3v0.774c0.838-1.412 1.563-2.89 2.167-4.42z" fill="#747474"/><path d="m10.167 19.354-5.167 0.646 2-4-5-3 6-3-2-7 7 3 3-4 3 4 7-3-2 7 6 3-6 3 2 6-6-2-3 5-2.609-3.914c-2.291 2.335-4.896 4.345-7.743 5.972-0.952 0.544-1.648 0.942-1.648 0.942s0.223-0.278 0.563-0.703c1.924-2.406 3.475-5.083 4.604-7.943z" fill="#fff"/></g></g></svg>
