<?xml version="1.0" encoding="UTF-8"?>
<!DOCTYPE svg  PUBLIC '-//W3C//DTD SVG 1.1//EN'  'http://www.w3.org/Graphics/SVG/1.1/DTD/svg11.dtd'>
<svg clip-rule="evenodd" fill-rule="evenodd" stroke-linecap="round" stroke-linejoin="round" stroke-miterlimit="1.5" version="1.1" viewBox="0 0 32 32" xml:space="preserve" xmlns="http://www.w3.org/2000/svg">
<metadata>
<rdf:RDF xmlns:cc="http://web.resource.org/cc/" xmlns:dc="http://purl.org/dc/elements/1.1/" xmlns:rdf="http://www.w3.org/1999/02/22-rdf-syntax-ns#">

     <rdf:Description rdf:about="">
       <dc:title>Mutant Standard emoji 2023.12</dc:title>
     </rdf:Description>

    <cc:work rdf:about="">
        <cc:license rdf:resource="http://creativecommons.org/licenses/by-nc-sa/4.0/"/>
        <cc:attributionName>Caius Nocturne</cc:attributionName>
        <cc:attributionURL>http://mutant.tech/</cc:attributionURL>
    </cc:work>

</rdf:RDF>
</metadata>
<path id="thought_bubble" d="m0 0v32h32v-32h-32z" fill="none"/><g id="outline"><path d="m11.476 5.702c1.282-1.644 3.28-2.702 5.524-2.702 2.655 0 4.966 1.481 6.153 3.661 0.683-0.419 1.487-0.661 2.347-0.661 2.484 0 4.5 2.016 4.5 4.5v2c0 1.127-0.415 2.158-1.101 2.948 0.066 0.34 0.101 0.692 0.101 1.052v1e-3 1.998 1e-3c0 3.036-2.464 5.5-5.5 5.5-1.551 0-2.954-0.644-3.954-1.679-1.224 1.047-2.812 1.679-4.546 1.679-0.754 0-1.48-0.119-2.16-0.34-1.58 2.36-3.759 4.299-6.351 5.595l-1.489 0.745v-2c1.147-1.911 1.977-3.983 2.47-6.136-0.308 0.088-0.634 0.136-0.97 0.136-1.932 0-3.5-1.568-3.5-3.5v-2c0-0.513 0.111-1 0.309-1.44-0.816-0.959-1.309-2.203-1.309-3.56v-2c0-3.036 2.464-5.5 5.5-5.5 1.563 0 2.975 0.653 3.976 1.702z" fill="none" stroke="#000" stroke-width="4px"/></g><g id="emoji"><path d="m7 25.58c0.4-1.251 0.683-2.54 0.843-3.847-0.413 0.172-0.867 0.267-1.343 0.267-1.932 0-3.5-1.568-3.5-3.5v-2l0.769-0.961c-1.088-1.005-1.769-2.443-1.769-4.039v-2l2-1.5h24l2 2.5v2c0 1.336-0.584 2.538-1.51 3.362l0.51 0.638v1.999 1e-3c0 3.036-2.464 5.5-5.5 5.5-1.551 0-2.954-0.644-3.954-1.679-1.224 1.047-2.812 1.679-4.546 1.679-0.754 0-1.48-0.119-2.16-0.34-1.58 2.36-3.759 4.299-6.351 5.595-0.881 0.441-1.489 0.745-1.489 0.745v-2l2-2.42z" fill="#747474"/><path d="m11.476 5.702c1.282-1.644 3.28-2.702 5.524-2.702 2.655 0 4.966 1.481 6.153 3.661 0.683-0.419 1.487-0.661 2.347-0.661 2.484 0 4.5 2.016 4.5 4.5 0 1.389-0.631 2.633-1.622 3.458 0.397 0.761 0.622 1.625 0.622 2.542 0 3.036-2.464 5.5-5.5 5.5-1.551 0-2.954-0.644-3.954-1.679-1.224 1.047-2.812 1.679-4.546 1.679-0.754 0-1.48-0.119-2.16-0.34-1.58 2.36-3.759 4.299-6.351 5.595-0.881 0.441-1.489 0.745-1.489 0.745 1.521-2.535 2.486-5.353 2.843-8.267-0.413 0.172-0.867 0.267-1.343 0.267-1.932 0-3.5-1.568-3.5-3.5 0-1.041 0.455-1.976 1.178-2.618-1.323-1.005-2.178-2.594-2.178-4.382 0-3.036 2.464-5.5 5.5-5.5 1.563 0 2.975 0.653 3.976 1.702z" fill="#fff"/></g></svg>
