<?xml version="1.0" encoding="UTF-8"?>
<!DOCTYPE svg  PUBLIC '-//W3C//DTD SVG 1.1//EN'  'http://www.w3.org/Graphics/SVG/1.1/DTD/svg11.dtd'>
<svg clip-rule="evenodd" fill-rule="evenodd" stroke-linecap="round" stroke-miterlimit="1.5" version="1.1" viewBox="0 0 32 32" xml:space="preserve" xmlns="http://www.w3.org/2000/svg" xmlns:serif="http://www.serif.com/">
<metadata>
<rdf:RDF xmlns:cc="http://web.resource.org/cc/" xmlns:dc="http://purl.org/dc/elements/1.1/" xmlns:rdf="http://www.w3.org/1999/02/22-rdf-syntax-ns#">

     <rdf:Description rdf:about="">
       <dc:title>Mutant Standard emoji 2023.12</dc:title>
     </rdf:Description>

    <cc:work rdf:about="">
        <cc:license rdf:resource="http://creativecommons.org/licenses/by-nc-sa/4.0/"/>
        <cc:attributionName>Caius Nocturne</cc:attributionName>
        <cc:attributionURL>http://mutant.tech/</cc:attributionURL>
    </cc:work>

</rdf:RDF>
</metadata>
<rect id="_2_busts_in_silhouette" width="32" height="32" fill="none" serif:id="2_busts_in_silhouette"/><clipPath id="_clip1"><rect width="32" height="32"/></clipPath><g clip-path="url(#_clip1)"><g id="outline"><rect x="10" y="15" width="12" height="9"/><path d="m2 30v-3c0-1.591 0.632-3.117 1.757-4.243 1.126-1.125 2.652-1.757 4.243-1.757h3c1.591 0 3.117 0.632 4.243 1.757 0.284 0.285 0.538 0.596 0.757 0.926 0.219-0.33 0.473-0.641 0.757-0.926 1.126-1.125 2.652-1.757 4.243-1.757h3c1.591 0 3.117 0.632 4.243 1.757 1.125 1.126 1.757 2.652 1.757 4.243v3h-28zm12-15.502c0-1.193-0.474-2.337-1.317-3.181-0.844-0.843-1.988-1.317-3.181-1.317h-4e-3c-1.193 0-2.337 0.474-3.181 1.317-0.843 0.844-1.317 1.988-1.317 3.181v1.004c0 1.193 0.474 2.337 1.317 3.181 0.844 0.843 1.988 1.317 3.181 1.317h4e-3c1.193 0 2.337-0.474 3.181-1.317 0.843-0.844 1.317-1.988 1.317-3.181v-1.004zm13 0c0-1.193-0.474-2.337-1.317-3.181-0.844-0.843-1.988-1.317-3.181-1.317h-4e-3c-1.193 0-2.337 0.474-3.181 1.317-0.843 0.844-1.317 1.988-1.317 3.181v1.004c0 1.193 0.474 2.337 1.317 3.181 0.844 0.843 1.988 1.317 3.181 1.317h4e-3c1.193 0 2.337-0.474 3.181-1.317 0.843-0.844 1.317-1.988 1.317-3.181v-1.004z" fill="none" stroke="#000" stroke-width="4px"/></g><g id="emoji"><path d="m2 30v-3c0-1.591 0.632-3.117 1.757-4.243 1.126-1.125 2.652-1.757 4.243-1.757h3c1.591 0 3.117 0.632 4.243 1.757 0.284 0.285 0.538 0.596 0.757 0.926 0.219-0.33 0.473-0.641 0.757-0.926 1.126-1.125 2.652-1.757 4.243-1.757h3c1.591 0 3.117 0.632 4.243 1.757 1.125 1.126 1.757 2.652 1.757 4.243v3h-28zm12-15.502c0-1.193-0.474-2.337-1.317-3.181-0.844-0.843-1.988-1.317-3.181-1.317h-4e-3c-1.193 0-2.337 0.474-3.181 1.317-0.843 0.844-1.317 1.988-1.317 3.181v1.004c0 1.193 0.474 2.337 1.317 3.181 0.844 0.843 1.988 1.317 3.181 1.317h4e-3c1.193 0 2.337-0.474 3.181-1.317 0.843-0.844 1.317-1.988 1.317-3.181v-1.004zm13 0c0-1.193-0.474-2.337-1.317-3.181-0.844-0.843-1.988-1.317-3.181-1.317h-4e-3c-1.193 0-2.337 0.474-3.181 1.317-0.843 0.844-1.317 1.988-1.317 3.181v1.004c0 1.193 0.474 2.337 1.317 3.181 0.844 0.843 1.988 1.317 3.181 1.317h4e-3c1.193 0 2.337-0.474 3.181-1.317 0.843-0.844 1.317-1.988 1.317-3.181v-1.004z" fill="#666"/></g></g></svg>
