<?xml version="1.0" encoding="UTF-8"?>
<svg clip-rule="evenodd" fill-rule="evenodd" stroke-linecap="round" stroke-miterlimit="1.5" viewBox="0 0 32 32" xmlns="http://www.w3.org/2000/svg">
 <clipPath id="a">
  <path d="m0 0h32v32h-32z" clip-rule="evenodd"/>
 </clipPath>
 <path d="m0 0h32v32h-32z" fill="none"/>
 <g clip-path="url(#a)">
  <path d="m28 26.801c0-2.069-0.822-4.053-2.285-5.516s-3.447-2.285-5.516-2.285h-8.398c-2.069 0-4.053 0.822-5.516 2.285s-2.285 3.447-2.285 5.516v3.199h24s0-1.399 0-3.199zm-6-18.803c0-3.313-2.685-5.998-5.998-5.998h-4e-3c-3.313 0-5.998 2.685-5.998 5.998v3.004c0 3.313 2.685 5.998 5.998 5.998h4e-3c3.313 0 5.998-2.685 5.998-5.998v-3.004z" fill="none" stroke="#000" stroke-width="4"/>
  <path d="m28 26.801c0-2.069-0.822-4.053-2.285-5.516s-3.447-2.285-5.516-2.285h-8.398c-2.069 0-4.053 0.822-5.516 2.285s-2.285 3.447-2.285 5.516v3.199h24s0-1.399 0-3.199zm-6-18.803c0-3.313-2.685-5.998-5.998-5.998h-4e-3c-3.313 0-5.998 2.685-5.998 5.998v3.004c0 3.313 2.685 5.998 5.998 5.998h4e-3c3.313 0 5.998-2.685 5.998-5.998v-3.004z" fill="#666"/>
 </g>
</svg>
