<?xml version="1.0" encoding="UTF-8"?>
<!DOCTYPE svg  PUBLIC '-//W3C//DTD SVG 1.1//EN'  'http://www.w3.org/Graphics/SVG/1.1/DTD/svg11.dtd'>
<svg clip-rule="evenodd" fill-rule="evenodd" stroke-linejoin="round" stroke-miterlimit="1.4142" version="1.1" viewBox="0 0 32 32" xml:space="preserve" xmlns="http://www.w3.org/2000/svg">
<metadata>
<rdf:RDF xmlns:cc="http://web.resource.org/cc/" xmlns:dc="http://purl.org/dc/elements/1.1/" xmlns:rdf="http://www.w3.org/1999/02/22-rdf-syntax-ns#">

     <rdf:Description rdf:about="">
       <dc:title>Mutant Standard emoji 2023.12</dc:title>
     </rdf:Description>

    <cc:work rdf:about="">
        <cc:license rdf:resource="http://creativecommons.org/licenses/by-nc-sa/4.0/"/>
        <cc:attributionName>Caius Nocturne</cc:attributionName>
        <cc:attributionURL>http://mutant.tech/</cc:attributionURL>
    </cc:work>

</rdf:RDF>
</metadata>
<rect id="paws" width="32" height="32" fill="none"/><clipPath id="_clip1"><rect width="32" height="32"/></clipPath><g clip-path="url(#_clip1)"><g id="outline"><path d="m7.615 2e-3 0.114 5e-3 0.114 9e-3 0.113 0.013 0.113 0.016 0.111 0.019 0.11 0.023 0.109 0.026 0.107 0.029 0.106 0.033 0.105 0.035 0.103 0.038 0.101 0.041 0.099 0.044 0.098 0.047 0.096 0.049 0.093 0.051 0.092 0.054 0.09 0.055 0.088 0.058 0.086 0.06 0.084 0.062 0.082 0.064 0.08 0.066 0.077 0.068 0.014 0.012 0.014-0.012 0.077-0.068 0.08-0.066 0.082-0.064 0.084-0.062 0.086-0.06 0.088-0.058 0.09-0.055 0.092-0.054 0.094-0.051 0.095-0.049 0.098-0.047 0.099-0.044 0.101-0.041 0.103-0.038 0.105-0.035 0.106-0.033 0.107-0.029 0.109-0.026 0.11-0.023 0.111-0.019 0.113-0.016 0.113-0.013 0.114-9e-3 0.114-5e-3 0.115-2e-3 0.115 2e-3 0.114 5e-3 0.114 9e-3 0.113 0.013 0.113 0.016 0.111 0.019 0.11 0.023 0.109 0.026 0.107 0.029 0.106 0.033 0.105 0.035 0.103 0.038 0.101 0.041 0.099 0.044 0.098 0.047 0.096 0.049 0.093 0.051 0.092 0.054 0.09 0.055 0.088 0.058 0.086 0.06 0.084 0.062 0.082 0.064 0.08 0.066 0.077 0.068 0.076 0.069 0.074 0.071 0.072 0.072 0.07 0.074 0.068 0.075 0.066 0.077 0.064 0.078 0.062 0.079 0.06 0.081 0.058 0.082 0.056 0.083 0.054 0.084 0.053 0.085 0.05 0.087 0.049 0.087 0.046 0.089 0.045 0.089 0.043 0.091 0.041 0.091 0.039 0.093 0.037 0.093 0.035 0.094 0.033 0.095 0.031 0.095 0.03 0.097 0.027 0.097 0.026 0.098 0.023 0.099 0.022 0.1 0.02 0.1 0.017 0.101 0.016 0.101 0.013 0.103 0.012 0.102 9e-3 0.103 8e-3 0.104 5e-3 0.104 3e-3 0.105 1e-3 0.105-1e-3 0.105-3e-3 0.105-5e-3 0.104-8e-3 0.104-9e-3 0.103-1e-3 0.01 0.096 0.014 0.111 0.019 0.11 0.023 0.109 0.026 0.107 0.029 0.106 0.033 0.105 0.035 0.103 0.038 0.101 0.041 0.099 0.044 0.098 0.047 0.095 0.049 0.094 0.051 0.092 0.053 0.09 0.056 0.088 0.058 0.086 0.06 0.084 0.062 0.082 0.064 0.08 0.066 0.077 0.068 0.076 0.069 0.074 0.071 0.072 0.072 0.07 0.074 0.068 0.075 0.066 0.077 0.064 0.078 0.062 0.079 0.06 0.081 0.058 0.082 0.056 0.083 0.054 0.084 0.053 0.086 0.05 0.086 0.049 0.087 0.046 0.089 0.045 0.089 0.043 0.091 0.041 0.091 0.039 0.093 0.037 0.093 0.035 0.094 0.033 0.095 0.032 0.096 0.029 0.096 0.027 0.097 0.026 0.099 0.023 0.098 0.022 0.1 0.019 0.1 0.018 0.101 0.016 0.101 0.013 0.103 0.012 0.102 9e-3 0.103 8e-3 0.104 5e-3 0.104 3e-3 0.105 1e-3 0.105-1e-3 0.105-3e-3 0.105-5e-3 0.104-8e-3 0.104-9e-3 0.103-0.012 0.102-0.013 0.103-0.016 0.101-0.018 0.101-0.019 0.1-0.022 0.1-0.023 0.098-0.026 0.099-0.027 0.097-0.029 0.096-0.032 0.096-0.033 0.095-0.035 0.094-0.037 0.093-0.039 0.093-0.041 0.091-0.043 0.091-0.045 0.089-0.046 0.089-0.049 0.087-0.05 0.086-0.053 0.086-0.054 0.084-0.056 0.083-0.058 0.082-0.06 0.081-0.062 0.079-0.064 0.078-0.066 0.077-0.068 0.075-0.07 0.074-0.072 0.072-0.074 0.071-0.076 0.069-0.077 0.068-0.08 0.066-0.065 0.05 0.019-7e-3 0.105-0.035 0.106-0.033 0.107-0.029 0.109-0.026 0.11-0.023 0.111-0.019 0.113-0.016 0.113-0.013 0.114-9e-3 0.114-5e-3 0.115-2e-3 0.115 2e-3 0.114 5e-3 0.114 9e-3 0.113 0.013 0.113 0.016 0.111 0.019 0.11 0.023 0.109 0.026 0.107 0.029 0.106 0.033 0.105 0.035 0.103 0.038 0.101 0.041 0.099 0.044 0.098 0.047 0.095 0.049 0.094 0.051 0.092 0.054 0.09 0.055 0.088 0.058 0.086 0.06 0.084 0.063 0.082 0.063 0.08 0.066 0.077 0.068 0.014 0.012 0.014-0.012 0.077-0.068 0.08-0.066 0.082-0.064 0.084-0.062 0.086-0.06 0.088-0.058 0.09-0.055 0.092-0.054 0.094-0.051 0.095-0.049 0.098-0.047 0.099-0.044 0.101-0.041 0.103-0.038 0.105-0.035 0.106-0.033 0.107-0.029 0.109-0.026 0.11-0.023 0.111-0.019 0.113-0.016 0.113-0.013 0.114-9e-3 0.114-5e-3 0.115-2e-3 0.115 2e-3 0.114 5e-3 0.114 9e-3 0.113 0.013 0.113 0.016 0.111 0.019 0.11 0.023 0.109 0.026 0.107 0.029 0.106 0.033 0.105 0.035 0.103 0.038 0.101 0.041 0.099 0.044 0.098 0.047 0.096 0.049 0.093 0.051 0.092 0.054 0.09 0.055 0.088 0.058 0.086 0.06 0.084 0.062 0.082 0.064 0.08 0.066 0.077 0.068 0.076 0.069 0.074 0.071 0.072 0.072 0.07 0.074 0.068 0.075 0.066 0.077 0.064 0.078 0.062 0.079 0.06 0.081 0.058 0.082 0.056 0.083 0.054 0.084 0.053 0.085 0.05 0.087 0.049 0.087 0.046 0.089 0.045 0.089 0.043 0.091 0.041 0.091 0.039 0.093 0.037 0.093 0.035 0.094 0.033 0.095 0.031 0.095 0.03 0.097 0.027 0.098 0.026 0.098 0.023 0.098 0.022 0.1 0.02 0.1 0.017 0.101 0.016 0.101 0.013 0.103 0.012 0.102 9e-3 0.103 8e-3 0.104 5e-3 0.104 3e-3 0.105 1e-3 0.105-1e-3 0.105-3e-3 0.105-5e-3 0.104-8e-3 0.104-9e-3 0.103-1e-3 0.01 0.096 0.014 0.111 0.019 0.11 0.023 0.109 0.026 0.107 0.029 0.106 0.033 0.105 0.035 0.103 0.038 0.101 0.041 0.099 0.044 0.098 0.047 0.095 0.049 0.094 0.051 0.092 0.053 0.09 0.056 0.088 0.058 0.086 0.06 0.084 0.062 0.082 0.064 0.08 0.066 0.077 0.068 0.076 0.069 0.074 0.071 0.072 0.072 0.07 0.074 0.068 0.075 0.066 0.077 0.064 0.078 0.062 0.079 0.06 0.081 0.058 0.082 0.056 0.083 0.054 0.084 0.053 0.086 0.05 0.086 0.049 0.087 0.046 0.089 0.045 0.089 0.043 0.091 0.041 0.091 0.039 0.093 0.037 0.093 0.035 0.094 0.033 0.095 0.032 0.096 0.029 0.096 0.027 0.097 0.026 0.099 0.023 0.098 0.022 0.1 0.02 0.1 0.017 0.101 0.016 0.101 0.013 0.103 0.012 0.102 9e-3 0.103 8e-3 0.104 5e-3 0.104 3e-3 0.105 1e-3 0.105-1e-3 0.105-3e-3 0.105-5e-3 0.104-8e-3 0.104-9e-3 0.103-0.012 0.102-0.013 0.103-0.016 0.101-0.017 0.101-0.02 0.1-0.022 0.1-0.023 0.098-0.026 0.099-0.027 0.097-0.029 0.096-0.032 0.096-0.033 0.095-0.035 0.094-0.037 0.093-0.039 0.093-0.041 0.091-0.043 0.091-0.045 0.089-0.046 0.089-0.049 0.087-0.05 0.086-0.053 0.086-0.054 0.084-0.056 0.083-0.058 0.082-0.06 0.081-0.062 0.079-0.064 0.078-0.066 0.077-0.068 0.075-0.07 0.074-0.072 0.072-0.074 0.071-0.076 0.069-0.077 0.068-0.08 0.066-0.082 0.063-0.084 0.063-0.086 0.06-0.088 0.058-0.09 0.055-0.092 0.054-0.062 0.034 0.036 0.1 0.035 0.106 0.031 0.106 0.029 0.108 0.026 0.108 0.023 0.109 0.019 0.11 0.017 0.111 0.014 0.111 0.011 0.112 8e-3 0.112 5e-3 0.113 1e-3 0.099v0.173l-2e-3 0.108-5e-3 0.122-9e-3 0.121-0.013 0.121-0.016 0.12-0.02 0.12-0.023 0.118-0.027 0.118-0.03 0.116-0.033 0.115-0.037 0.114-0.04 0.113-0.044 0.112-0.046 0.11-0.05 0.108-0.053 0.108-0.056 0.105-0.059 0.104-0.062 0.102-0.065 0.1-0.068 0.099-0.071 0.097-0.074 0.094-0.077 0.093-0.08 0.09-0.082 0.088-0.085 0.086-0.088 0.083-0.091 0.081-0.093 0.079-0.096 0.075-0.098 0.074-0.101 0.07-0.102 0.067-0.104 0.063-0.105 0.061-0.107 0.057-0.109 0.053-0.109 0.051-0.111 0.047-0.112 0.043-0.113 0.041-0.114 0.037-0.115 0.033-0.116 0.03-0.117 0.027-0.117 0.023-0.118 0.02-0.118 0.016-0.119 0.013-0.119 9e-3 -0.12 6e-3 -0.119 2e-3 -0.12-1e-3 -0.12-5e-3 -0.12-8e-3 -0.12-0.012-0.12-0.015-0.119-0.019-0.119-0.023-0.119-0.026-0.118-0.03-0.118-0.033-0.102-0.032-1.689-0.563-0.067-0.022-0.058-0.018-0.059-0.016-0.058-0.015-0.059-0.014-0.059-0.012-0.06-0.012-0.059-0.01-0.06-9e-3 -0.059-8e-3 -0.12-0.012-0.06-4e-3 -0.06-3e-3 -0.06-2e-3h-0.06-0.06l-0.06 2e-3 -0.06 3e-3 -0.06 4e-3 -0.12 0.012-0.059 8e-3 -0.06 9e-3 -0.059 0.01-0.06 0.012-0.059 0.012-0.059 0.014-0.058 0.015-0.059 0.016-0.058 0.018-0.067 0.022-1.689 0.562-0.102 0.033-0.118 0.033-0.118 0.03-0.119 0.026-0.119 0.023-0.119 0.019-0.12 0.015-0.12 0.012-0.12 8e-3 -0.12 5e-3 -0.12 1e-3 -0.119-2e-3 -0.12-6e-3 -0.119-9e-3 -0.119-0.013-0.118-0.016-0.118-0.02-0.117-0.023-0.117-0.027-0.116-0.03-0.115-0.033-0.114-0.037-0.113-0.041-0.112-0.043-0.111-0.047-0.109-0.051-0.109-0.053-0.107-0.057-0.105-0.061-0.104-0.063-0.102-0.067-0.101-0.07-0.098-0.074-0.096-0.075-0.093-0.079-0.091-0.081-0.088-0.083-0.085-0.086-0.082-0.088-0.08-0.091-0.077-0.092-0.074-0.094-0.071-0.097-0.068-0.099-0.065-0.1-0.062-0.102-0.059-0.104-0.056-0.105-0.053-0.108-0.05-0.108-0.046-0.11-0.044-0.112-0.04-0.113-0.037-0.114-0.033-0.115-0.03-0.116-0.027-0.118-0.023-0.118-0.02-0.12-0.016-0.12-0.013-0.121-9e-3 -0.121-5e-3 -0.122-2e-3 -0.108v-0.173l1e-3 -0.099 5e-3 -0.113 8e-3 -0.112 0.011-0.112 0.014-0.111 0.017-0.111 0.019-0.11 0.023-0.109 0.026-0.108 0.029-0.108 0.031-0.106 0.035-0.106 0.036-0.1-0.062-0.034-0.092-0.054-0.09-0.055-0.088-0.058-0.086-0.06-0.084-0.063-0.082-0.063-0.08-0.066-0.077-0.068-0.076-0.069-0.074-0.071-0.072-0.072-0.07-0.074-0.068-0.075-0.066-0.077-0.064-0.078-0.062-0.079-0.06-0.081-0.058-0.082-0.056-0.083-0.054-0.084-0.053-0.086-0.05-0.086-0.049-0.087-0.046-0.089-0.045-0.089-0.043-0.091-0.041-0.091-0.039-0.093-0.037-0.093-0.035-0.094-0.033-0.095-0.032-0.096-0.029-0.096-0.027-0.097-0.026-0.099-0.023-0.098-0.022-0.1-0.02-0.1-0.017-0.101-0.016-0.101-0.013-0.102-0.012-0.103-9e-3 -0.103-8e-3 -0.104-5e-3 -0.104-3e-3 -0.105-1e-3 -0.105 1e-3 -0.105 3e-3 -0.105 5e-3 -0.104 8e-3 -0.104 9e-3 -0.103 0.012-0.103 0.013-0.102 0.016-0.101 0.017-0.101 0.02-0.1 0.022-0.1 0.023-0.098 0.026-0.099 0.027-0.097 0.029-0.096 0.032-0.096 0.033-0.095 0.035-0.094 0.037-0.093 0.039-0.093 0.041-0.091 0.043-0.091 0.045-0.089 0.046-0.089 0.049-0.087 0.05-0.086 0.053-0.086 0.054-0.084 0.056-0.083 0.058-0.082 0.06-0.081 0.062-0.079 0.064-0.078 0.066-0.077 0.068-0.075 0.07-0.074 0.028-0.029-0.097-0.015-0.119-0.023-0.119-0.026-0.118-0.03-0.118-0.033-0.102-0.032-1.689-0.563-0.067-0.022-0.058-0.018-0.059-0.016-0.058-0.015-0.059-0.014-0.059-0.012-0.06-0.012-0.059-0.01-0.06-9e-3 -0.059-8e-3 -0.12-0.012-0.06-4e-3 -0.06-3e-3 -0.06-2e-3h-0.06-0.06l-0.06 2e-3 -0.06 3e-3 -0.06 4e-3 -0.12 0.012-0.059 8e-3 -0.06 9e-3 -0.059 0.01-0.06 0.012-0.059 0.012-0.059 0.014-0.058 0.015-0.059 0.016-0.058 0.018-0.067 0.022-1.689 0.563-0.102 0.032-0.118 0.033-0.118 0.03-0.119 0.026-0.119 0.023-0.119 0.019-0.12 0.015-0.12 0.012-0.12 8e-3 -0.12 5e-3 -0.12 1e-3 -0.119-2e-3 -0.12-6e-3 -0.119-9e-3 -0.119-0.013-0.118-0.016-0.118-0.02-0.117-0.023-0.117-0.027-0.116-0.03-0.115-0.033-0.114-0.037-0.113-0.041-0.112-0.043-0.111-0.047-0.109-0.051-0.109-0.053-0.107-0.057-0.105-0.061-0.104-0.063-0.102-0.067-0.101-0.071-0.098-0.073-0.096-0.075-0.093-0.079-0.091-0.081-0.088-0.083-0.085-0.086-0.082-0.088-0.08-0.09-0.077-0.093-0.074-0.094-0.071-0.097-0.068-0.099-0.065-0.1-0.062-0.102-0.059-0.104-0.056-0.105-0.053-0.108-0.05-0.108-0.046-0.11-0.044-0.112-0.04-0.113-0.037-0.114-0.033-0.115-0.03-0.117-0.027-0.117-0.023-0.118-0.02-0.12-0.016-0.12-0.013-0.121-9e-3 -0.121-5e-3 -0.122-2e-3 -0.108v-0.173l1e-3 -0.099 5e-3 -0.113 8e-3 -0.112 0.011-0.112 0.014-0.111 0.017-0.111 0.019-0.11 0.023-0.109 0.026-0.108 0.029-0.108 0.031-0.106 0.035-0.106 0.036-0.1-0.062-0.034-0.092-0.054-0.09-0.055-0.088-0.058-0.086-0.06-0.084-0.063-0.082-0.063-0.08-0.066-0.077-0.068-0.076-0.069-0.074-0.071-0.072-0.072-0.07-0.074-0.068-0.075-0.066-0.077-0.064-0.078-0.062-0.079-0.06-0.081-0.058-0.082-0.056-0.083-0.054-0.084-0.053-0.086-0.05-0.086-0.049-0.087-0.046-0.089-0.045-0.089-0.043-0.091-0.041-0.091-0.039-0.093-0.037-0.093-0.035-0.094-0.033-0.095-0.032-0.096-0.029-0.096-0.027-0.097-0.026-0.099-0.023-0.098-0.022-0.1-0.02-0.1-0.017-0.101-0.016-0.101-0.013-0.103-0.012-0.102-9e-3 -0.103-8e-3 -0.104-5e-3 -0.104-3e-3 -0.105-1e-3 -0.105 1e-3 -0.105 3e-3 -0.105 5e-3 -0.104 8e-3 -0.104 9e-3 -0.103 0.012-0.103 0.013-0.102 0.016-0.101 0.017-0.101 0.02-0.1 0.022-0.1 0.023-0.098 0.026-0.099 0.027-0.097 0.029-0.096 0.032-0.096 0.033-0.095 0.035-0.094 0.037-0.094 0.039-0.092 0.041-0.091 0.043-0.091 0.045-0.089 0.046-0.089 0.049-0.087 0.05-0.086 0.053-0.086 0.054-0.084 0.056-0.083 0.058-0.082 0.06-0.081 0.062-0.079 0.064-0.078 0.066-0.077 0.068-0.075 0.07-0.074 0.072-0.072 0.074-0.071 0.076-0.069 0.077-0.068 0.08-0.066 0.082-0.064 0.084-0.062 0.086-0.06 0.088-0.058 0.09-0.055 0.092-0.054 0.094-0.051 0.095-0.049 0.098-0.047 0.099-0.044 0.101-0.041 0.103-0.038 0.105-0.035 0.106-0.033 0.107-0.029 0.109-0.026 0.11-0.023 0.111-0.019 0.096-0.014-1e-3 -0.01-9e-3 -0.103-8e-3 -0.104-5e-3 -0.104-3e-3 -0.105-1e-3 -0.105 1e-3 -0.105 3e-3 -0.105 5e-3 -0.104 8e-3 -0.104 9e-3 -0.103 0.012-0.102 0.013-0.103 0.016-0.101 0.017-0.101 0.02-0.1 0.022-0.1 0.023-0.098 0.026-0.098 0.027-0.098 0.03-0.096 0.031-0.096 0.033-0.095 0.035-0.094 0.037-0.094 0.039-0.092 0.041-0.091 0.043-0.091 0.045-0.089 0.046-0.089 0.049-0.087 0.05-0.087 0.053-0.085 0.054-0.084 0.056-0.083 0.058-0.082 0.06-0.081 0.062-0.079 0.064-0.078 0.066-0.077 0.068-0.075 0.07-0.074 0.072-0.072 0.074-0.071 0.076-0.069 0.077-0.068 0.08-0.066 0.082-0.064 0.084-0.062 0.086-0.06 0.088-0.058 0.09-0.055 0.092-0.054 0.093-0.051 0.096-0.049 0.098-0.047 0.099-0.044 0.101-0.041 0.103-0.038 0.105-0.035 0.106-0.033 0.107-0.029 0.109-0.026 0.11-0.023 0.111-0.019 0.113-0.016 0.113-0.013 0.114-9e-3 0.114-5e-3 0.115-2e-3 0.115 2e-3zm14.37 22.998-0.014 1e-3h-0.014l-0.013 1e-3 -0.013 2e-3 -0.014 1e-3 -0.039 6e-3 -0.013 3e-3 -0.012 3e-3 -0.026 6e-3 -0.012 3e-3 -0.012 4e-3 -0.013 4e-3 -0.012 5e-3 -0.012 4e-3 -0.036 0.015-0.012 6e-3 -0.011 5e-3 -0.012 6e-3 -0.011 7e-3 -0.011 6e-3 -0.012 7e-3 -0.011 6e-3 -0.011 8e-3 -0.01 7e-3 -0.011 7e-3 -0.01 8e-3 -0.011 8e-3 -0.01 8e-3 -0.01 9e-3 -0.01 8e-3 -9e-3 9e-3 -0.01 9e-3 -0.018 0.018-9e-3 0.01-9e-3 9e-3 -8e-3 0.01-9e-3 0.01-0.016 0.02-7e-3 0.011-8e-3 0.01-0.028 0.044-6e-3 0.011-0.012 0.024-6e-3 0.011-5e-3 0.012-6e-3 0.012-5e-3 0.013-5e-3 0.012-4e-3 0.013-5e-3 0.013-4e-3 0.013-7e-3 0.023-0.197 0.689-0.024 0.081-0.028 0.089-0.03 0.089-0.031 0.088-0.034 0.088-0.035 0.087-0.036 0.086-0.038 0.085-0.039 0.085-0.041 0.083-0.043 0.083-0.044 0.082-0.046 0.081-0.047 0.081-0.048 0.079-0.05 0.078-0.052 0.078-0.053 0.077-0.054 0.075-0.056 0.075-0.057 0.073-0.059 0.073-0.06 0.071-0.061 0.07-0.063 0.07-0.064 0.068-0.065 0.067-0.134 0.13-0.07 0.063-0.07 0.062-0.064 0.055-1.539 1.283-0.013 0.01-3e-3 3e-3 -1e-3 2e-3 -2e-3 1e-3 -1e-3 2e-3 -4e-3 4e-3 -3e-3 6e-3 -3e-3 3e-3 -2e-3 4e-3v2e-3l-3e-3 6e-3v2e-3l-1e-3 2e-3v2e-3l-1e-3 2e-3v2e-3l-1e-3 2e-3v2e-3 2e-3l-1e-3 3e-3v2e-3 2e-3 0.016 0.115 0.02l2e-3 0.011 3e-3 0.011 5e-3 0.011 6e-3 9e-3 7e-3 9e-3 9e-3 7e-3 0.01 6e-3 0.011 5e-3 0.011 3e-3 0.011 1e-3h2e-3 3e-3 2e-3 2e-3l3e-3 -1e-3h2e-3 2e-3l2e-3 -1e-3h2e-3l3e-3 -1e-3h2e-3l0.016-6e-3 1.68-0.559 0.125-0.041 0.136-0.041 0.136-0.037 0.137-0.036 0.138-0.032 0.137-0.029 0.139-0.027 0.138-0.024 0.139-0.021 0.14-0.018 0.139-0.016 0.14-0.012 0.14-0.01 0.14-7e-3 0.14-4e-3 0.14-2e-3 0.14 2e-3 0.14 4e-3 0.14 7e-3 0.14 0.01 0.14 0.012 0.139 0.016 0.14 0.018 0.139 0.021 0.138 0.024 0.139 0.027 0.137 0.029 0.138 0.032 0.137 0.036 0.136 0.037 0.136 0.041 0.125 0.041 1.68 0.559 0.018 6e-3 0.011 2e-3 0.01 1e-3h2e-3 2e-3l2e-3 -1e-3h3e-3 2e-3 2e-3l3e-3 -1e-3h2e-3l4e-3 -2e-3h2e-3l2e-3 -1e-3 3e-3 -1e-3 0.01-5e-3 1e-3 -1e-3 3e-3 -1e-3 5e-3 -5e-3 2e-3 -1e-3 2e-3 -2e-3 2e-3 -1e-3 1e-3 -2e-3 5e-3 -5e-3 2e-3 -4e-3 2e-3 -1e-3 5e-3 -0.01 1e-3 -3e-3 3e-3 -6e-3v-2e-3l2e-3 -4e-3v-3e-3l1e-3 -2e-3v-2e-3 -2e-3 -2e-3l1e-3 -3e-3v-2e-3 -0.018-0.115-0.016-2e-3 -2e-3l-1e-3 -3e-3v-2e-3 -2e-3l-1e-3 -2e-3v-2e-3l-1e-3 -2e-3v-2e-3l-1e-3 -2e-3v-2e-3l-4e-3 -8e-3v-2e-3l-1e-3 -2e-3 -1e-3 -1e-3 -1e-3 -2e-3 -2e-3 -2e-3 -2e-3 -4e-3 -4e-3 -4e-3 -1e-3 -2e-3 -2e-3 -1e-3 -1e-3 -2e-3 -3e-3 -3e-3 -0.013-0.01-1.539-1.283-0.064-0.055-0.07-0.062-0.069-0.063-0.068-0.065-0.067-0.066-0.065-0.066-0.064-0.068-0.063-0.07-0.061-0.07-0.06-0.072-0.059-0.072-0.057-0.073-0.056-0.075-0.054-0.076-0.053-0.076-0.102-0.156-0.048-0.079-0.047-0.081-0.046-0.081-0.044-0.082-0.042-0.083-0.042-0.084-0.039-0.084-0.038-0.085-0.036-0.086-0.035-0.087-0.034-0.088-0.031-0.088-0.03-0.089-0.028-0.089-0.024-0.081-0.197-0.689-7e-3 -0.023-4e-3 -0.013-5e-3 -0.013-4e-3 -0.013-5e-3 -0.012-5e-3 -0.013-6e-3 -0.012-5e-3 -0.012-6e-3 -0.011-0.012-0.024-6e-3 -0.011-0.028-0.044-8e-3 -0.01-7e-3 -0.011-0.016-0.02-9e-3 -0.01-8e-3 -0.01-9e-3 -9e-3 -9e-3 -0.01-0.018-0.018-0.01-9e-3 -9e-3 -9e-3 -0.01-8e-3 -0.01-9e-3 -0.01-8e-3 -0.011-8e-3 -0.01-8e-3 -0.011-7e-3 -0.01-7e-3 -0.011-8e-3 -0.011-6e-3 -0.012-7e-3 -0.011-6e-3 -0.011-7e-3 -0.012-6e-3 -0.011-5e-3 -0.012-6e-3 -0.036-0.015-0.012-4e-3 -0.012-5e-3 -0.013-4e-3 -0.012-4e-3 -0.012-3e-3 -0.026-6e-3 -0.012-3e-3 -0.013-3e-3 -0.039-6e-3 -0.014-1e-3 -0.013-2e-3 -0.013-1e-3h-0.014l-0.014-1e-3h-0.015-0.015zm-11.705-8.724 0.14 7e-3 0.14 0.01 0.14 0.012 0.14 0.016 0.139 0.018 0.139 0.021 0.138 0.024 0.139 0.027 0.137 0.029 0.138 0.032 0.137 0.036 0.136 0.037 0.136 0.041 0.125 0.04 1.679 0.56 0.019 6e-3 0.012 2e-3 9e-3 1e-3h2e-3 2e-3 2e-3l3e-3 -1e-3h2e-3 2e-3l2e-3 -1e-3h3e-3l4e-3 -2e-3h2e-3l2e-3 -1e-3 3e-3 -1e-3 0.01-5e-3 1e-3 -1e-3 3e-3 -1e-3 2e-3 -2e-3 2e-3 -1e-3 1e-3 -2e-3 2e-3 -1e-3 2e-3 -2e-3 2e-3 -1e-3 1e-3 -2e-3 5e-3 -5e-3 2e-3 -4e-3 2e-3 -1e-3 5e-3 -0.01 1e-3 -3e-3 3e-3 -6e-3v-2e-3l2e-3 -4e-3v-3e-3l1e-3 -2e-3v-2e-3 -2e-3 -2e-3l1e-3 -3e-3v-2e-3 -0.018-0.115-0.016-2e-3 -2e-3l-1e-3 -3e-3v-2e-3 -2e-3l-1e-3 -2e-3v-2e-3l-1e-3 -2e-3v-2e-3l-1e-3 -2e-3v-2e-3l-4e-3 -8e-3v-2e-3l-1e-3 -2e-3 -3e-3 -3e-3 -2e-3 -4e-3 -1e-3 -1e-3 -1e-3 -2e-3 -3e-3 -3e-3 -1e-3 -2e-3 -2e-3 -1e-3 -1e-3 -2e-3 -2e-3 -1e-3 -1e-3 -2e-3 -0.013-0.01-1.539-1.283-0.064-0.055-0.07-0.062-0.07-0.063-0.134-0.13-0.065-0.067-0.064-0.068-0.063-0.07-0.061-0.07-0.06-0.071-0.059-0.073-0.057-0.073-0.056-0.075-0.054-0.076-0.053-0.076-0.051-0.077-0.051-0.079-0.048-0.079-0.047-0.081-0.046-0.081-0.044-0.082-0.043-0.083-0.041-0.083-0.039-0.085-0.038-0.085-0.036-0.086-0.035-0.087-0.034-0.088-0.031-0.088-0.03-0.089-0.028-0.089-0.024-0.081-0.197-0.689-7e-3 -0.023-4e-3 -0.013-5e-3 -0.013-4e-3 -0.013-5e-3 -0.012-5e-3 -0.013-6e-3 -0.012-5e-3 -0.012-6e-3 -0.011-0.012-0.024-6e-3 -0.011-0.028-0.044-8e-3 -0.01-7e-3 -0.011-0.016-0.02-9e-3 -0.01-8e-3 -0.01-9e-3 -9e-3 -9e-3 -0.01-0.018-0.018-0.01-9e-3 -9e-3 -9e-3 -0.01-8e-3 -0.01-9e-3 -0.01-8e-3 -0.011-8e-3 -0.01-8e-3 -0.011-7e-3 -0.01-7e-3 -0.011-8e-3 -0.011-6e-3 -0.011-7e-3 -0.012-6e-3 -0.011-7e-3 -0.012-6e-3 -0.011-5e-3 -0.012-6e-3 -0.036-0.015-0.012-4e-3 -0.012-5e-3 -0.013-4e-3 -0.012-4e-3 -0.012-3e-3 -0.026-6e-3 -0.012-3e-3 -0.013-3e-3 -0.039-6e-3 -0.014-1e-3 -0.013-2e-3 -0.013-1e-3h-0.014l-0.014-1e-3h-0.015-0.015l-0.014 1e-3h-0.013l-0.014 1e-3 -0.013 2e-3 -0.014 1e-3 -0.039 6e-3 -0.013 3e-3 -0.012 3e-3 -0.026 6e-3 -0.012 3e-3 -0.012 4e-3 -0.013 4e-3 -0.012 5e-3 -0.012 4e-3 -0.036 0.015-0.012 6e-3 -0.011 5e-3 -0.012 6e-3 -0.011 7e-3 -0.012 6e-3 -0.011 7e-3 -0.011 6e-3 -0.011 8e-3 -0.01 7e-3 -0.011 7e-3 -0.01 8e-3 -0.011 8e-3 -0.01 8e-3 -0.01 9e-3 -0.01 8e-3 -9e-3 9e-3 -0.01 9e-3 -0.018 0.018-9e-3 0.01-9e-3 9e-3 -8e-3 0.01-9e-3 0.01-0.016 0.02-7e-3 0.011-8e-3 0.01-0.028 0.044-6e-3 0.011-6e-3 0.012-6e-3 0.011-6e-3 0.012-5e-3 0.012-6e-3 0.012-5e-3 0.013-5e-3 0.012-4e-3 0.013-5e-3 0.013-4e-3 0.013-7e-3 0.023-0.197 0.689-0.024 0.081-0.028 0.089-0.03 0.089-0.032 0.088-0.033 0.088-0.035 0.087-0.036 0.086-0.038 0.085-0.039 0.085-0.041 0.083-0.043 0.083-0.044 0.082-0.046 0.081-0.047 0.081-0.049 0.079-0.05 0.078-0.051 0.078-0.053 0.076-0.054 0.076-0.056 0.075-0.057 0.073-0.059 0.073-0.06 0.071-0.061 0.07-0.063 0.07-0.064 0.068-0.065 0.067-0.134 0.13-0.07 0.063-0.07 0.062-0.064 0.055-1.539 1.283-0.013 0.01-1e-3 2e-3 -2e-3 1e-3 -3e-3 3e-3 -1e-3 2e-3 -3e-3 3e-3 -1e-3 2e-3 -1e-3 1e-3 -2e-3 4e-3 -2e-3 2e-3 -1e-3 2e-3 -1e-3 1e-3v2e-3l-4e-3 8e-3v2e-3l-1e-3 2e-3v2e-3l-1e-3 2e-3v2e-3l-1e-3 2e-3v2e-3 2e-3l-1e-3 3e-3v2e-3 2e-3 0.016 0.115 0.02l2e-3 0.011 3e-3 0.011 5e-3 0.011 6e-3 9e-3 7e-3 9e-3 9e-3 7e-3 0.01 6e-3 0.011 5e-3 0.011 3e-3 0.011 1e-3h2e-3 3e-3 2e-3 2e-3l2e-3 -1e-3h3e-3 2e-3l2e-3 -1e-3h2e-3l3e-3 -1e-3h2e-3l0.017-6e-3 1.679-0.56 0.125-0.04 0.136-0.041 0.136-0.037 0.137-0.036 0.138-0.032 0.137-0.029 0.139-0.027 0.138-0.024 0.139-0.021 0.139-0.018 0.14-0.016 0.14-0.012 0.14-0.01 0.14-7e-3 0.14-4e-3 0.14-2e-3 0.14 2e-3 0.14 4e-3z"/></g><g id="emoji"><path d="m27.252 26.377c0.474 0.395 0.748 0.98 0.748 1.596v0.144c0 0.668-0.321 1.295-0.863 1.686-0.542 0.39-1.238 0.497-1.872 0.285-0.577-0.192-1.167-0.389-1.684-0.561-1.026-0.342-2.136-0.342-3.162 0-0.517 0.172-1.107 0.369-1.684 0.561-0.634 0.212-1.33 0.105-1.872-0.285-0.542-0.391-0.863-1.018-0.863-1.686v-0.144c0-0.616 0.274-1.201 0.748-1.596 0.471-0.393 1.077-0.898 1.542-1.285 0.463-0.386 0.798-0.902 0.964-1.481 0.061-0.213 0.128-0.449 0.197-0.689 0.325-1.138 1.365-1.922 2.548-1.922h2e-3c1.183 0 2.223 0.784 2.548 1.922 0.069 0.24 0.136 0.476 0.197 0.689 0.166 0.579 0.501 1.095 0.964 1.481 0.465 0.387 1.071 0.892 1.542 1.285zm0.748-6.377c1.104 0 2 1.12 2 2.5s-0.896 2.5-2 2.5-2-1.12-2-2.5 0.896-2.5 2-2.5zm-12 0c-1.104 0-2 1.12-2 2.5s0.896 2.5 2 2.5 2-1.12 2-2.5-0.896-2.5-2-2.5zm8.5-5c1.104 0 2 1.12 2 2.5s-0.896 2.5-2 2.5-2-1.12-2-2.5 0.896-2.5 2-2.5zm-5 0c-1.104 0-2 1.12-2 2.5s0.896 2.5 2 2.5 2-1.12 2-2.5-0.896-2.5-2-2.5zm-4.248-1.623c0.474 0.395 0.748 0.98 0.748 1.596v0.144c0 0.668-0.321 1.295-0.863 1.686-0.542 0.39-1.238 0.497-1.872 0.285-0.577-0.192-1.167-0.389-1.684-0.561-1.026-0.342-2.136-0.342-3.162 0-0.517 0.172-1.107 0.369-1.684 0.561-0.634 0.212-1.33 0.105-1.872-0.285-0.542-0.391-0.863-1.018-0.863-1.686v-0.144c0-0.616 0.274-1.201 0.748-1.596 0.471-0.393 1.077-0.898 1.542-1.285 0.463-0.386 0.798-0.902 0.964-1.481 0.061-0.213 0.128-0.449 0.197-0.689 0.325-1.138 1.365-1.922 2.548-1.922h2e-3c1.183 0 2.223 0.784 2.548 1.922 0.069 0.24 0.136 0.476 0.197 0.689 0.166 0.579 0.501 1.095 0.964 1.481 0.465 0.387 1.071 0.892 1.542 1.285zm-11.252-6.377c-1.104 0-2 1.12-2 2.5s0.896 2.5 2 2.5 2-1.12 2-2.5-0.896-2.5-2-2.5zm12 0c1.104 0 2 1.12 2 2.5s-0.896 2.5-2 2.5-2-1.12-2-2.5 0.896-2.5 2-2.5zm-8.5-5c-1.104 0-2 1.12-2 2.5s0.896 2.5 2 2.5 2-1.12 2-2.5-0.896-2.5-2-2.5zm5 0c1.104 0 2 1.12 2 2.5s-0.896 2.5-2 2.5-2-1.12-2-2.5 0.896-2.5 2-2.5z" fill="#666"/></g></g></svg>
