<?xml version="1.0" encoding="UTF-8"?>
<!DOCTYPE svg  PUBLIC '-//W3C//DTD SVG 1.1//EN'  'http://www.w3.org/Graphics/SVG/1.1/DTD/svg11.dtd'>
<svg clip-rule="evenodd" fill-rule="evenodd" stroke-linejoin="round" stroke-miterlimit="1.4142" version="1.1" viewBox="0 0 32 32" xml:space="preserve" xmlns="http://www.w3.org/2000/svg">
<metadata>
<rdf:RDF xmlns:cc="http://web.resource.org/cc/" xmlns:dc="http://purl.org/dc/elements/1.1/" xmlns:rdf="http://www.w3.org/1999/02/22-rdf-syntax-ns#">

     <rdf:Description rdf:about="">
       <dc:title>Mutant Standard emoji 2023.12</dc:title>
     </rdf:Description>

    <cc:work rdf:about="">
        <cc:license rdf:resource="http://creativecommons.org/licenses/by-nc-sa/4.0/"/>
        <cc:attributionName>Caius Nocturne</cc:attributionName>
        <cc:attributionURL>http://mutant.tech/</cc:attributionURL>
    </cc:work>

</rdf:RDF>
</metadata>
<rect id="spider_web" width="32" height="32" fill="none"/><clipPath id="_clip1"><rect width="32" height="32"/></clipPath><g clip-path="url(#_clip1)"><g id="outline"><path d="m13 0h6v2.636c0.134 0.093 0.272 0.179 0.416 0.258 0.971 0.534 2.112 0.732 3.207 0.556 0.41-0.066 0.804-0.187 1.187-0.347l1.477-0.633 1.713-1.713c1.414 1.415 2.828 2.829 4.243 4.243l-1.715 1.714c-0.226 0.526-0.454 1.05-0.674 1.578-0.035 0.089-0.068 0.178-0.1 0.268-0.118 0.356-0.201 0.72-0.24 1.093-0.106 1.009 0.103 2.042 0.592 2.932 0.079 0.143 0.165 0.281 0.258 0.415h2.636v6h-2.636c-0.127 0.185-0.242 0.378-0.344 0.579-0.442 0.879-0.616 1.884-0.496 2.86 0.058 0.474 0.189 0.931 0.373 1.371l0.633 1.477 1.713 1.713-4.243 4.243-1.714-1.715c-0.526-0.226-1.05-0.454-1.578-0.674-0.38-0.15-0.772-0.26-1.177-0.318-1.066-0.151-2.172 0.051-3.116 0.57-0.143 0.079-0.281 0.165-0.415 0.258v2.636h-6v-2.636c-0.185-0.127-0.378-0.242-0.579-0.344-0.879-0.442-1.884-0.616-2.86-0.496-0.474 0.058-0.931 0.189-1.371 0.373l-1.477 0.633-1.713 1.713-4.243-4.243 1.715-1.714c0.226-0.526 0.454-1.05 0.674-1.578 0.15-0.38 0.26-0.772 0.318-1.177 0.151-1.067-0.051-2.172-0.57-3.116-0.079-0.143-0.165-0.281-0.258-0.415h-2.636v-6h2.636c0.127-0.185 0.242-0.378 0.344-0.579 0.442-0.879 0.616-1.884 0.496-2.86-0.058-0.474-0.189-0.931-0.373-1.371l-0.633-1.477-1.713-1.713 4.243-4.243 1.714 1.715c0.526 0.226 1.05 0.454 1.578 0.674 0.38 0.15 0.772 0.26 1.177 0.318 1.066 0.151 2.172-0.051 3.115-0.57 0.144-0.079 0.282-0.165 0.416-0.258v-2.636z"/></g><g id="emoji" fill="#c4c4c4"><path d="m28.414 27-1.414 1.414-23.414-23.414 1.414-1.414 23.414 23.414z"/><path d="m30 17h-28v-2h28v2z"/><path d="m28.414 5-23.414 23.414-1.414-1.414 23.414-23.414 1.414 1.414z"/><path d="m17 30h-2v-28h2v28z"/><path d="m16.874 3.46 0.099 0.097 0.097 0.092 0.099 0.089 0.1 0.088 0.101 0.085 0.103 0.083 0.104 0.081 0.105 0.079 0.106 0.077 0.108 0.075 0.109 0.072 0.11 0.07 0.111 0.068 0.112 0.066 0.113 0.064 0.114 0.061 0.115 0.06 0.117 0.057 0.117 0.055 0.118 0.052 0.118 0.051 0.12 0.048 0.12 0.046 0.121 0.043 0.122 0.042 0.123 0.039 0.123 0.037 0.124 0.034 0.124 0.033 0.125 0.03 0.125 0.027 0.126 0.026 0.127 0.023 0.126 0.021 0.127 0.018 0.128 0.017 0.128 0.013 0.128 0.012 0.128 9e-3 0.129 7e-3 0.128 4e-3 0.129 2e-3h0.129l0.129-3e-3 0.129-5e-3 0.129-7e-3 0.129-0.01 0.129-0.012 0.129-0.015 0.129-0.017 0.128-0.02 0.129-0.022 0.128-0.024 0.128-0.027 0.127-0.029 0.128-0.032 0.127-0.034 0.126-0.037 0.126-0.039 0.126-0.041 0.126-0.044 0.124-0.047 0.125-0.049 0.128-0.054 2.017-0.864 0.788 1.838-2.026 0.868-0.155 0.065-0.159 0.063-0.16 0.06-0.162 0.057-0.161 0.053-0.163 0.05-0.162 0.047-0.164 0.044-0.164 0.041-0.164 0.038-0.164 0.034-0.165 0.032-0.165 0.028-0.166 0.025-0.165 0.022-0.166 0.019-0.166 0.016-0.166 0.012-0.166 0.01-0.166 6e-3 -0.166 4e-3h-0.166l-0.165-2e-3 -0.166-6e-3 -0.165-9e-3 -0.165-0.011-0.164-0.015-0.165-0.018-0.163-0.021-0.164-0.024-0.163-0.026-0.162-0.03-0.162-0.033-0.161-0.035-0.161-0.039-0.159-0.042-0.159-0.044-0.159-0.047-0.157-0.051-0.157-0.053-0.155-0.056-0.155-0.059-0.154-0.062-0.153-0.065-0.151-0.068-0.151-0.07-0.149-0.074-0.148-0.076-0.147-0.079-0.146-0.082-0.144-0.085-0.143-0.087-0.142-0.091-0.14-0.093-0.138-0.096-0.137-0.098-0.135-0.102-0.134-0.104-0.132-0.107-0.096-0.081-0.096 0.081-0.132 0.107-0.134 0.104-0.135 0.102-0.137 0.098-0.138 0.096-0.14 0.093-0.142 0.091-0.143 0.087-0.144 0.085-0.146 0.082-0.147 0.079-0.148 0.076-0.149 0.074-0.151 0.07-0.151 0.068-0.153 0.065-0.154 0.062-0.155 0.059-0.155 0.056-0.157 0.053-0.157 0.051-0.159 0.047-0.159 0.044-0.159 0.042-0.161 0.039-0.161 0.035-0.162 0.033-0.162 0.03-0.163 0.026-0.164 0.024-0.163 0.021-0.165 0.018-0.164 0.015-0.165 0.011-0.165 9e-3 -0.166 6e-3 -0.165 2e-3h-0.166l-0.166-4e-3 -0.166-6e-3 -0.166-0.01-0.166-0.012-0.166-0.016-0.166-0.019-0.165-0.022-0.166-0.025-0.165-0.028-0.165-0.032-0.164-0.034-0.165-0.038-0.163-0.041-0.164-0.044-0.162-0.047-0.163-0.05-0.161-0.053-0.162-0.057-0.16-0.06-0.159-0.063-0.155-0.065-2.026-0.868 0.788-1.838 2.017 0.864 0.128 0.054 0.125 0.049 0.124 0.047 0.126 0.044 0.126 0.041 0.126 0.039 0.126 0.037 0.127 0.034 0.128 0.032 0.127 0.029 0.128 0.027 0.128 0.024 0.129 0.022 0.128 0.02 0.129 0.017 0.129 0.015 0.129 0.012 0.129 0.01 0.129 7e-3 0.129 5e-3 0.129 3e-3h0.129l0.129-2e-3 0.128-4e-3 0.129-7e-3 0.128-9e-3 0.128-0.012 0.128-0.013 0.128-0.017 0.127-0.018 0.126-0.021 0.127-0.023 0.126-0.026 0.125-0.027 0.125-0.03 0.124-0.033 0.124-0.034 0.123-0.037 0.123-0.039 0.122-0.042 0.121-0.043 0.12-0.046 0.12-0.048 0.118-0.051 0.118-0.052 0.117-0.055 0.117-0.057 0.115-0.06 0.114-0.061 0.113-0.064 0.112-0.066 0.111-0.068 0.11-0.07 0.109-0.072 0.108-0.075 0.106-0.077 0.105-0.079 0.104-0.081 0.103-0.083 0.101-0.085 0.1-0.088 0.099-0.089 0.097-0.092 0.099-0.097 0.874-0.874 0.874 0.874z"/><path d="m16.879 7.523 0.057 0.11 0.043 0.078 0.045 0.077 0.046 0.075 0.048 0.074 0.049 0.072 0.052 0.07 0.052 0.069 0.054 0.067 0.056 0.066 0.057 0.064 0.058 0.062 0.06 0.061 0.061 0.059 0.062 0.057 0.064 0.056 0.064 0.054 0.066 0.052 0.067 0.05 0.069 0.049 0.069 0.048 0.07 0.045 0.072 0.044 0.072 0.042 0.074 0.04 0.074 0.038 0.075 0.037 0.076 0.034 0.077 0.033 0.077 0.031 0.078 0.03 0.079 0.027 0.079 0.025 0.081 0.024 0.08 0.022 0.081 0.019 0.082 0.018 0.082 0.016 0.082 0.014 0.083 0.012 0.083 9e-3 0.084 8e-3 0.083 6e-3 0.084 4e-3 0.084 2e-3h0.084l0.084-3e-3 0.084-4e-3 0.085-6e-3 0.084-9e-3 0.084-0.01 0.084-0.013 0.084-0.015 0.084-0.017 0.084-0.019 0.083-0.021 0.084-0.024 0.083-0.025 0.082-0.028 0.083-0.03 0.082-0.033 0.082-0.034 0.081-0.037 0.087-0.042-5e-3 3e-3 0.894 1.788-6e-3 3e-3 -0.121 0.059-0.127 0.058-0.129 0.054-0.129 0.051-0.13 0.047-0.13 0.044-0.131 0.041-0.132 0.037-0.132 0.033-0.132 0.031-0.133 0.026-0.133 0.024-0.133 0.02-0.133 0.017-0.134 0.013-0.133 0.01-0.133 7e-3 -0.133 4e-3h-0.133l-0.132-3e-3 -0.132-6e-3 -0.132-9e-3 -0.131-0.013-0.131-0.015-0.13-0.019-0.13-0.022-0.129-0.025-0.129-0.028-0.127-0.031-0.127-0.034-0.126-0.037-0.124-0.04-0.124-0.043-0.123-0.045-0.122-0.049-0.121-0.052-0.119-0.055-0.118-0.057-0.117-0.06-0.116-0.064-0.113-0.066-0.113-0.069-0.111-0.071-0.109-0.075-0.108-0.077-0.106-0.08-0.104-0.082-0.103-0.086-0.1-0.088-0.099-0.09-0.096-0.094-0.095-0.096-0.053-0.057-0.053 0.057-0.095 0.096-0.096 0.094-0.099 0.09-0.1 0.088-0.103 0.086-0.104 0.082-0.106 0.08-0.108 0.077-0.109 0.075-0.111 0.071-0.113 0.069-0.114 0.066-0.115 0.064-0.117 0.06-0.118 0.057-0.119 0.055-0.121 0.052-0.122 0.049-0.123 0.045-0.123 0.043-0.125 0.04-0.126 0.037-0.127 0.034-0.128 0.031-0.128 0.028-0.129 0.025-0.13 0.022-0.13 0.019-0.131 0.015-0.131 0.013-0.132 9e-3 -0.132 6e-3 -0.132 3e-3h-0.133l-0.133-4e-3 -0.133-7e-3 -0.133-0.01-0.134-0.013-0.133-0.017-0.133-0.02-0.133-0.024-0.133-0.026-0.132-0.031-0.132-0.033-0.132-0.037-0.131-0.041-0.13-0.044-0.13-0.047-0.129-0.051-0.129-0.054-0.127-0.058-0.121-0.059-6e-3 -3e-3 0.894-1.788-5e-3 -3e-3 0.086 0.042 0.082 0.037 0.082 0.034 0.082 0.033 0.083 0.03 0.082 0.028 0.083 0.025 0.084 0.024 0.083 0.021 0.084 0.019 0.084 0.017 0.084 0.015 0.084 0.013 0.084 0.01 0.084 9e-3 0.085 6e-3 0.084 4e-3 0.084 3e-3h0.084l0.084-2e-3 0.084-4e-3 0.083-6e-3 0.084-8e-3 0.083-9e-3 0.083-0.012 0.082-0.014 0.082-0.016 0.082-0.018 0.081-0.019 0.08-0.022 0.081-0.024 0.079-0.025 0.079-0.027 0.078-0.03 0.077-0.031 0.077-0.033 0.076-0.034 0.075-0.037 0.074-0.038 0.074-0.04 0.072-0.042 0.072-0.044 0.07-0.045 0.069-0.048 0.069-0.049 0.067-0.05 0.066-0.052 0.065-0.054 0.063-0.056 0.062-0.057 0.061-0.059 0.06-0.061 0.058-0.062 0.057-0.064 0.056-0.066 0.054-0.067 0.053-0.069 0.051-0.07 0.049-0.072 0.048-0.074 0.046-0.075 0.045-0.077 0.043-0.078 0.031-0.06 0.45-1.049 0.739-0.043 0.595 1.042z"/><path d="m20.083 20.527 0.133 4e-3 0.133 7e-3 0.134 0.01 0.133 0.013 0.133 0.017 0.133 0.02 0.133 0.024 0.132 0.026 0.133 0.031 0.132 0.033 0.132 0.037 0.131 0.041 0.13 0.044 0.13 0.047 0.129 0.051 0.129 0.054 0.127 0.058 0.146 0.071 0.03 0.017-0.992 1.736 0.029 0.017-0.061-0.03-0.082-0.037-0.082-0.034-0.082-0.033-0.083-0.03-0.082-0.028-0.083-0.025-0.084-0.024-0.083-0.021-0.084-0.019-0.084-0.017-0.084-0.015-0.084-0.013-0.084-0.01-0.085-9e-3 -0.084-6e-3 -0.084-4e-3 -0.084-3e-3h-0.084l-0.084 2e-3 -0.084 4e-3 -0.083 6e-3 -0.084 8e-3 -0.083 9e-3 -0.083 0.012-0.082 0.014-0.082 0.016-0.082 0.018-0.081 0.019-0.08 0.022-0.081 0.024-0.079 0.025-0.079 0.027-0.078 0.03-0.077 0.031-0.077 0.033-0.076 0.034-0.075 0.037-0.074 0.038-0.074 0.04-0.072 0.042-0.072 0.044-0.07 0.046-0.069 0.047-0.069 0.049-0.067 0.05-0.066 0.052-0.064 0.054-0.064 0.056-0.062 0.058-0.061 0.058-0.06 0.061-0.058 0.062-0.057 0.064-0.056 0.066-0.054 0.067-0.052 0.069-0.052 0.07-0.049 0.072-0.048 0.074-0.046 0.075-0.045 0.077-0.043 0.078-0.057 0.11-0.595 1.042-0.739-0.043-0.45-1.049-0.031-0.06-0.043-0.078-0.045-0.077-0.046-0.075-0.048-0.074-0.049-0.072-0.051-0.07-0.053-0.069-0.054-0.067-0.056-0.066-0.057-0.064-0.058-0.062-0.06-0.061-0.061-0.059-0.062-0.057-0.064-0.056-0.064-0.054-0.066-0.052-0.067-0.05-0.069-0.049-0.069-0.048-0.07-0.045-0.072-0.044-0.072-0.042-0.074-0.04-0.074-0.038-0.075-0.037-0.076-0.034-0.077-0.033-0.077-0.031-0.078-0.03-0.079-0.027-0.079-0.025-0.081-0.024-0.08-0.022-0.081-0.019-0.082-0.018-0.082-0.016-0.082-0.014-0.083-0.012-0.083-9e-3 -0.084-8e-3 -0.083-6e-3 -0.084-4e-3 -0.084-2e-3h-0.084l-0.084 3e-3 -0.084 4e-3 -0.084 6e-3 -0.085 9e-3 -0.084 0.01-0.084 0.013-0.084 0.015-0.084 0.017-0.084 0.019-0.083 0.021-0.084 0.024-0.083 0.025-0.083 0.028-0.082 0.03-0.082 0.033-0.082 0.034-0.082 0.037-0.061 0.03 0.029-0.017-0.992-1.736 0.03-0.017 0.146-0.071 0.127-0.058 0.129-0.054 0.129-0.051 0.13-0.047 0.13-0.044 0.131-0.041 0.132-0.037 0.132-0.033 0.133-0.031 0.132-0.026 0.133-0.024 0.133-0.02 0.133-0.017 0.133-0.013 0.134-0.01 0.133-7e-3 0.133-4e-3h0.133l0.132 3e-3 0.132 6e-3 0.132 9e-3 0.131 0.013 0.131 0.015 0.131 0.019 0.129 0.022 0.129 0.025 0.128 0.028 0.128 0.031 0.127 0.034 0.126 0.037 0.125 0.04 0.123 0.043 0.123 0.045 0.122 0.049 0.121 0.052 0.119 0.055 0.118 0.057 0.117 0.06 0.116 0.064 0.114 0.066 0.112 0.069 0.111 0.071 0.109 0.075 0.108 0.077 0.106 0.08 0.104 0.082 0.103 0.086 0.1 0.088 0.099 0.09 0.096 0.094 0.095 0.096 0.053 0.057 0.053-0.057 0.095-0.096 0.096-0.094 0.099-0.09 0.1-0.088 0.103-0.086 0.104-0.082 0.106-0.08 0.108-0.077 0.109-0.075 0.111-0.071 0.112-0.069 0.114-0.066 0.116-0.064 0.117-0.06 0.118-0.057 0.119-0.055 0.121-0.052 0.122-0.049 0.123-0.045 0.124-0.043 0.124-0.04 0.126-0.037 0.127-0.034 0.127-0.031 0.129-0.028 0.129-0.025 0.129-0.022 0.131-0.019 0.131-0.015 0.131-0.013 0.132-9e-3 0.132-6e-3 0.132-3e-3h0.133z"/><path d="m21.081 9.606 1.838 0.788-9e-3 0.021-0.055 0.113-0.037 0.082-0.034 0.082-0.033 0.082-0.03 0.083-0.028 0.082-0.025 0.083-0.024 0.084-0.021 0.083-0.019 0.084-0.017 0.084-0.015 0.084-0.013 0.084-0.01 0.084-9e-3 0.084-6e-3 0.085-4e-3 0.084-3e-3 0.084v0.084l2e-3 0.084 4e-3 0.084 6e-3 0.084 8e-3 0.083 9e-3 0.083 0.012 0.083 0.014 0.082 0.016 0.082 0.018 0.082 0.019 0.081 0.022 0.08 0.024 0.08 0.025 0.08 0.027 0.079 0.03 0.078 0.031 0.077 0.033 0.077 0.034 0.076 0.037 0.075 0.038 0.074 0.04 0.074 0.042 0.072 0.044 0.072 0.045 0.07 0.048 0.069 0.049 0.069 0.05 0.067 0.053 0.066 0.053 0.065 0.056 0.063 0.057 0.062 0.059 0.061 0.061 0.06 0.062 0.058 0.064 0.057 0.066 0.056 0.067 0.054 0.069 0.052 0.07 0.052 0.072 0.049 0.074 0.048 0.075 0.046 0.077 0.045 0.078 0.043 0.086 0.044 1.047 0.524v0.736l-1.047 0.524-0.086 0.044-0.078 0.043-0.077 0.045-0.075 0.046-0.074 0.048-0.072 0.049-0.07 0.052-0.069 0.052-0.067 0.054-0.066 0.056-0.064 0.057-0.062 0.058-0.061 0.06-0.059 0.061-0.057 0.062-0.056 0.063-0.053 0.065-0.053 0.066-0.05 0.067-0.049 0.069-0.048 0.069-0.045 0.07-0.044 0.072-0.042 0.072-0.04 0.074-0.038 0.074-0.037 0.075-0.034 0.076-0.033 0.077-0.031 0.077-0.03 0.078-0.027 0.079-0.025 0.08-0.024 0.08-0.022 0.08-0.019 0.081-0.018 0.082-0.016 0.082-0.014 0.082-0.012 0.083-9e-3 0.083-8e-3 0.083-6e-3 0.084-4e-3 0.084-2e-3 0.084v0.084l3e-3 0.084 4e-3 0.084 6e-3 0.085 9e-3 0.084 0.01 0.084 0.013 0.084 0.015 0.084 0.017 0.084 0.019 0.084 0.021 0.083 0.024 0.084 0.025 0.083 0.028 0.082 0.03 0.083 0.033 0.082 0.034 0.082 0.037 0.082 0.055 0.113 9e-3 0.021-1.838 0.788 9e-3 0.021-0.046-0.095-0.058-0.127-0.054-0.129-0.051-0.129-0.047-0.13-0.044-0.13-0.041-0.131-0.037-0.132-0.033-0.132-0.031-0.132-0.026-0.133-0.024-0.133-0.02-0.133-0.017-0.133-0.013-0.134-0.01-0.133-7e-3 -0.133-4e-3 -0.133v-0.133l3e-3 -0.132 6e-3 -0.132 9e-3 -0.132 0.013-0.131 0.015-0.131 0.019-0.131 0.022-0.129 0.025-0.129 0.028-0.128 0.031-0.128 0.034-0.127 0.037-0.126 0.04-0.125 0.043-0.123 0.045-0.123 0.049-0.122 0.052-0.121 0.055-0.119 0.057-0.118 0.061-0.117 0.063-0.115 0.066-0.114 0.069-0.113 0.071-0.111 0.075-0.109 0.077-0.108 0.08-0.106 0.082-0.104 0.086-0.103 0.088-0.1 0.09-0.099 0.094-0.096 0.096-0.095 0.057-0.053-0.057-0.053-0.096-0.095-0.094-0.096-0.09-0.099-0.088-0.1-0.086-0.103-0.082-0.104-0.08-0.106-0.077-0.108-0.075-0.109-0.071-0.111-0.069-0.113-0.066-0.114-0.063-0.115-0.061-0.117-0.057-0.118-0.055-0.119-0.052-0.121-0.049-0.122-0.045-0.123-0.043-0.124-0.04-0.124-0.037-0.126-0.034-0.127-0.031-0.127-0.028-0.129-0.025-0.129-0.022-0.129-0.019-0.131-0.015-0.131-0.013-0.131-9e-3 -0.132-6e-3 -0.132-3e-3 -0.132v-0.133l4e-3 -0.133 7e-3 -0.133 0.01-0.133 0.013-0.134 0.017-0.133 0.02-0.133 0.024-0.133 0.026-0.133 0.031-0.132 0.033-0.132 0.037-0.132 0.041-0.131 0.044-0.13 0.047-0.13 0.051-0.129 0.054-0.129 0.058-0.127 0.046-0.095-9e-3 0.021z"/><path d="m10.885 9.534 0.071 0.146 0.058 0.127 0.054 0.129 0.051 0.129 0.047 0.13 0.044 0.13 0.041 0.131 0.037 0.132 0.033 0.132 0.031 0.133 0.026 0.132 0.024 0.133 0.02 0.133 0.017 0.133 0.013 0.133 0.01 0.134 7e-3 0.133 4e-3 0.133v0.133l-3e-3 0.132-6e-3 0.132-9e-3 0.132-0.013 0.131-0.015 0.131-0.019 0.131-0.022 0.129-0.025 0.129-0.028 0.129-0.031 0.127-0.034 0.127-0.037 0.126-0.04 0.124-0.043 0.124-0.045 0.123-0.049 0.122-0.052 0.121-0.055 0.119-0.057 0.118-0.061 0.117-0.063 0.116-0.066 0.113-0.069 0.113-0.071 0.111-0.075 0.109-0.077 0.108-0.08 0.106-0.082 0.104-0.086 0.103-0.088 0.1-0.09 0.099-0.094 0.096-0.096 0.095-0.057 0.053 0.057 0.053 0.096 0.095 0.094 0.096 0.09 0.099 0.088 0.1 0.086 0.103 0.082 0.104 0.08 0.106 0.077 0.108 0.075 0.109 0.071 0.111 0.069 0.113 0.066 0.113 0.063 0.116 0.061 0.117 0.057 0.118 0.055 0.119 0.052 0.121 0.049 0.122 0.045 0.123 0.043 0.123 0.04 0.125 0.037 0.126 0.034 0.127 0.031 0.128 0.028 0.128 0.025 0.129 0.022 0.129 0.019 0.131 0.015 0.131 0.013 0.131 9e-3 0.132 6e-3 0.132 3e-3 0.132v0.133l-4e-3 0.133-7e-3 0.133-0.01 0.134-0.013 0.133-0.017 0.133-0.02 0.133-0.024 0.133-0.026 0.132-0.031 0.133-0.033 0.132-0.037 0.132-0.041 0.131-0.044 0.13-0.047 0.13-0.051 0.129-0.054 0.129-0.058 0.127-0.071 0.146-0.017 0.03-1.736-0.992-0.017 0.029 0.03-0.061 0.037-0.082 0.034-0.082 0.033-0.082 0.03-0.082 0.028-0.083 0.025-0.083 0.024-0.084 0.021-0.083 0.019-0.084 0.017-0.084 0.015-0.084 0.013-0.084 0.01-0.084 9e-3 -0.085 6e-3 -0.084 4e-3 -0.084 3e-3 -0.084v-0.084l-2e-3 -0.084-4e-3 -0.084-6e-3 -0.083-8e-3 -0.084-9e-3 -0.083-0.012-0.083-0.014-0.082-0.016-0.082-0.018-0.082-0.019-0.081-0.022-0.08-0.024-0.081-0.025-0.079-0.027-0.079-0.03-0.078-0.031-0.077-0.033-0.077-0.034-0.076-0.037-0.075-0.038-0.074-0.04-0.074-0.042-0.072-0.044-0.072-0.045-0.07-0.048-0.069-0.049-0.069-0.05-0.067-0.052-0.066-0.054-0.064-0.056-0.064-0.057-0.062-0.059-0.061-0.061-0.06-0.062-0.058-0.064-0.057-0.066-0.056-0.067-0.054-0.069-0.053-0.07-0.051-0.072-0.049-0.074-0.048-0.075-0.046-0.077-0.045-0.078-0.043-0.086-0.044-1.047-0.524v-0.736l1.047-0.524 0.086-0.044 0.078-0.043 0.077-0.045 0.075-0.046 0.074-0.048 0.072-0.049 0.07-0.051 0.069-0.053 0.067-0.054 0.066-0.056 0.064-0.057 0.062-0.058 0.061-0.06 0.059-0.061 0.057-0.062 0.056-0.064 0.054-0.064 0.052-0.066 0.05-0.067 0.049-0.069 0.048-0.069 0.045-0.07 0.044-0.072 0.042-0.072 0.04-0.074 0.038-0.074 0.037-0.075 0.034-0.076 0.033-0.077 0.031-0.077 0.03-0.078 0.027-0.079 0.025-0.079 0.024-0.081 0.022-0.08 0.019-0.081 0.018-0.082 0.016-0.082 0.014-0.082 0.012-0.083 9e-3 -0.083 8e-3 -0.084 6e-3 -0.083 4e-3 -0.084 2e-3 -0.084v-0.084l-3e-3 -0.084-4e-3 -0.084-6e-3 -0.084-9e-3 -0.085-0.01-0.084-0.013-0.084-0.015-0.084-0.017-0.084-0.019-0.084-0.021-0.083-0.024-0.084-0.025-0.083-0.028-0.083-0.03-0.082-0.033-0.082-0.034-0.082-0.037-0.082-0.03-0.061 0.017 0.029 1.736-0.992 0.017 0.03z"/><path d="m27.919 5.394-0.864 2.017-0.054 0.128-0.049 0.125-0.047 0.124-0.044 0.126-0.041 0.126-0.039 0.126-0.037 0.126-0.034 0.127-0.032 0.128-0.029 0.127-0.027 0.128-0.024 0.128-0.022 0.129-0.02 0.128-0.017 0.129-0.015 0.129-0.012 0.129-0.01 0.129-7e-3 0.129-5e-3 0.129-3e-3 0.129v0.129l2e-3 0.129 4e-3 0.128 7e-3 0.129 9e-3 0.128 0.012 0.128 0.013 0.128 0.017 0.128 0.018 0.127 0.021 0.126 0.023 0.127 0.026 0.126 0.027 0.125 0.03 0.125 0.033 0.124 0.034 0.124 0.037 0.123 0.039 0.123 0.042 0.122 0.043 0.121 0.046 0.12 0.048 0.12 0.051 0.118 0.053 0.118 0.054 0.117 0.057 0.117 0.06 0.115 0.061 0.114 0.064 0.113 0.066 0.112 0.068 0.111 0.07 0.11 0.072 0.109 0.075 0.108 0.077 0.106 0.079 0.105 0.081 0.104 0.083 0.103 0.085 0.101 0.088 0.1 0.089 0.099 0.092 0.097 0.097 0.099 0.874 0.874-0.874 0.874-0.097 0.099-0.092 0.097-0.089 0.099-0.088 0.1-0.085 0.101-0.083 0.103-0.081 0.104-0.079 0.105-0.077 0.106-0.075 0.108-0.072 0.109-0.07 0.11-0.068 0.111-0.066 0.112-0.064 0.113-0.061 0.114-0.06 0.115-0.057 0.117-0.054 0.117-0.053 0.118-0.051 0.118-0.048 0.12-0.046 0.12-0.043 0.121-0.042 0.122-0.039 0.123-0.037 0.123-0.034 0.124-0.033 0.124-0.03 0.125-0.027 0.125-0.026 0.126-0.023 0.127-0.021 0.126-0.018 0.127-0.017 0.128-0.013 0.128-0.012 0.128-9e-3 0.128-7e-3 0.129-4e-3 0.128-2e-3 0.129v0.129l3e-3 0.129 5e-3 0.129 7e-3 0.129 0.01 0.129 0.012 0.129 0.015 0.129 0.017 0.129 0.02 0.128 0.022 0.129 0.024 0.128 0.027 0.128 0.029 0.127 0.032 0.128 0.034 0.127 0.037 0.126 0.039 0.126 0.041 0.126 0.044 0.126 0.047 0.124 0.049 0.125 0.054 0.128 0.864 2.017-1.838 0.788-0.868-2.026-0.065-0.155-0.063-0.159-0.06-0.161-0.057-0.161-0.053-0.161-0.05-0.163-0.047-0.162-0.044-0.164-0.041-0.164-0.038-0.164-0.034-0.164-0.032-0.165-0.028-0.165-0.025-0.166-0.022-0.165-0.019-0.166-0.016-0.166-0.012-0.166-0.01-0.166-6e-3 -0.166-4e-3 -0.166v-0.166l2e-3 -0.165 6e-3 -0.166 9e-3 -0.165 0.011-0.165 0.015-0.164 0.018-0.165 0.021-0.163 0.024-0.164 0.026-0.163 0.03-0.162 0.033-0.162 0.035-0.161 0.039-0.16 0.042-0.16 0.044-0.159 0.047-0.159 0.051-0.157 0.053-0.157 0.056-0.155 0.059-0.155 0.062-0.154 0.065-0.153 0.068-0.151 0.07-0.151 0.074-0.149 0.076-0.148 0.079-0.147 0.082-0.146 0.085-0.144 0.087-0.143 0.091-0.142 0.093-0.14 0.096-0.138 0.098-0.137 0.102-0.135 0.104-0.134 0.107-0.132 0.081-0.096-0.081-0.096-0.107-0.132-0.104-0.134-0.102-0.135-0.098-0.137-0.096-0.138-0.093-0.14-0.091-0.142-0.087-0.143-0.085-0.144-0.082-0.146-0.079-0.147-0.076-0.148-0.074-0.149-0.07-0.151-0.068-0.151-0.065-0.153-0.062-0.154-0.059-0.155-0.056-0.155-0.053-0.157-0.051-0.157-0.047-0.159-0.044-0.159-0.042-0.16-0.039-0.16-0.035-0.161-0.033-0.162-0.03-0.162-0.026-0.163-0.024-0.164-0.021-0.163-0.018-0.165-0.015-0.164-0.011-0.165-9e-3 -0.165-6e-3 -0.166-2e-3 -0.165v-0.166l4e-3 -0.166 6e-3 -0.166 0.01-0.166 0.012-0.166 0.016-0.166 0.019-0.166 0.022-0.165 0.025-0.166 0.028-0.165 0.032-0.165 0.034-0.164 0.038-0.164 0.041-0.164 0.044-0.164 0.047-0.162 0.05-0.163 0.053-0.161 0.057-0.161 0.06-0.161 0.063-0.159 0.065-0.155 0.868-2.026 1.838 0.788z"/><path d="m21.933 24.487 0.166 4e-3 0.166 6e-3 0.166 0.01 0.166 0.012 0.166 0.016 0.166 0.019 0.165 0.022 0.166 0.025 0.165 0.028 0.165 0.032 0.164 0.034 0.164 0.038 0.164 0.041 0.164 0.043 0.162 0.048 0.163 0.05 0.161 0.053 0.161 0.057 0.161 0.06 0.159 0.063 0.155 0.065 2.026 0.868-0.788 1.838-2.017-0.864-0.128-0.054-0.125-0.049-0.124-0.047-0.126-0.044-0.126-0.041-0.126-0.039-0.126-0.037-0.127-0.034-0.128-0.032-0.127-0.029-0.128-0.027-0.128-0.024-0.129-0.022-0.128-0.02-0.129-0.017-0.129-0.015-0.129-0.012-0.129-0.01-0.129-7e-3 -0.129-5e-3 -0.129-3e-3h-0.129l-0.129 2e-3 -0.128 4e-3 -0.129 7e-3 -0.128 9e-3 -0.128 0.012-0.128 0.013-0.128 0.017-0.127 0.018-0.126 0.021-0.127 0.023-0.126 0.026-0.125 0.027-0.125 0.03-0.124 0.033-0.124 0.034-0.123 0.037-0.123 0.039-0.122 0.042-0.121 0.043-0.12 0.046-0.12 0.048-0.118 0.051-0.118 0.052-0.117 0.055-0.117 0.057-0.115 0.06-0.114 0.061-0.113 0.064-0.112 0.066-0.111 0.068-0.11 0.07-0.109 0.072-0.108 0.075-0.106 0.077-0.105 0.079-0.104 0.081-0.103 0.083-0.101 0.085-0.1 0.088-0.099 0.089-0.097 0.092-0.099 0.097-0.874 0.874-0.874-0.874-0.099-0.097-0.097-0.092-0.099-0.089-0.1-0.088-0.101-0.085-0.103-0.083-0.104-0.081-0.105-0.079-0.106-0.077-0.108-0.075-0.109-0.072-0.11-0.07-0.111-0.068-0.112-0.066-0.113-0.064-0.114-0.061-0.115-0.06-0.117-0.057-0.117-0.055-0.118-0.052-0.118-0.051-0.12-0.048-0.12-0.046-0.121-0.043-0.122-0.042-0.123-0.039-0.123-0.037-0.124-0.034-0.124-0.033-0.125-0.03-0.125-0.027-0.126-0.026-0.127-0.023-0.126-0.021-0.127-0.018-0.128-0.017-0.128-0.013-0.128-0.012-0.128-9e-3 -0.129-7e-3 -0.128-4e-3 -0.129-2e-3h-0.129l-0.129 3e-3 -0.129 5e-3 -0.129 7e-3 -0.129 0.01-0.129 0.012-0.129 0.015-0.129 0.017-0.128 0.02-0.129 0.022-0.128 0.024-0.128 0.027-0.127 0.029-0.128 0.032-0.127 0.034-0.126 0.037-0.126 0.039-0.126 0.041-0.126 0.044-0.124 0.047-0.125 0.049-0.128 0.054-2.017 0.864-0.788-1.838 2.026-0.868 0.155-0.065 0.159-0.063 0.161-0.06 0.161-0.057 0.161-0.053 0.163-0.05 0.162-0.048 0.164-0.043 0.163-0.041 0.165-0.038 0.164-0.034 0.165-0.032 0.165-0.028 0.166-0.025 0.165-0.022 0.166-0.019 0.166-0.016 0.166-0.012 0.166-0.01 0.166-6e-3 0.166-4e-3h0.166l0.165 2e-3 0.166 6e-3 0.165 9e-3 0.165 0.012 0.164 0.014 0.165 0.018 0.163 0.021 0.164 0.024 0.163 0.026 0.162 0.03 0.162 0.033 0.161 0.035 0.16 0.039 0.16 0.042 0.159 0.044 0.159 0.047 0.157 0.051 0.157 0.053 0.156 0.056 0.154 0.059 0.154 0.062 0.153 0.065 0.151 0.068 0.151 0.07 0.149 0.074 0.148 0.076 0.147 0.079 0.146 0.082 0.144 0.085 0.143 0.087 0.142 0.091 0.14 0.093 0.138 0.096 0.137 0.098 0.135 0.102 0.134 0.104 0.132 0.107 0.096 0.081 0.096-0.081 0.132-0.107 0.134-0.104 0.135-0.102 0.137-0.098 0.138-0.096 0.14-0.093 0.142-0.091 0.143-0.087 0.144-0.085 0.146-0.082 0.147-0.079 0.148-0.076 0.149-0.074 0.151-0.07 0.151-0.068 0.153-0.065 0.154-0.062 0.154-0.059 0.156-0.056 0.157-0.053 0.157-0.051 0.159-0.047 0.159-0.044 0.16-0.042 0.16-0.039 0.161-0.035 0.162-0.033 0.162-0.03 0.163-0.026 0.164-0.024 0.163-0.021 0.165-0.018 0.164-0.014 0.165-0.012 0.165-9e-3 0.166-6e-3 0.165-2e-3h0.166z"/><path d="m6.787 6.632 0.065 0.155 0.063 0.159 0.06 0.161 0.057 0.161 0.053 0.161 0.05 0.163 0.047 0.162 0.044 0.164 0.041 0.164 0.038 0.164 0.034 0.164 0.032 0.165 0.028 0.165 0.025 0.166 0.022 0.165 0.019 0.166 0.016 0.166 0.012 0.166 0.01 0.166 6e-3 0.166 4e-3 0.166v0.166l-2e-3 0.165-6e-3 0.166-9e-3 0.165-0.012 0.165-0.014 0.164-0.018 0.165-0.021 0.163-0.024 0.164-0.026 0.163-0.03 0.162-0.033 0.162-0.035 0.161-0.039 0.16-0.042 0.16-0.044 0.159-0.047 0.159-0.051 0.157-0.053 0.157-0.056 0.155-0.059 0.155-0.062 0.154-0.065 0.153-0.068 0.151-0.07 0.151-0.074 0.149-0.076 0.148-0.079 0.147-0.082 0.146-0.085 0.144-0.087 0.143-0.091 0.142-0.093 0.14-0.096 0.138-0.098 0.137-0.102 0.135-0.104 0.134-0.107 0.132-0.081 0.096 0.081 0.096 0.107 0.132 0.104 0.134 0.102 0.135 0.098 0.137 0.096 0.138 0.093 0.14 0.091 0.142 0.087 0.143 0.085 0.144 0.082 0.146 0.079 0.147 0.076 0.148 0.074 0.149 0.07 0.151 0.068 0.151 0.065 0.153 0.062 0.154 0.059 0.155 0.056 0.155 0.053 0.157 0.051 0.157 0.047 0.159 0.044 0.159 0.042 0.16 0.039 0.16 0.035 0.161 0.033 0.162 0.03 0.162 0.026 0.163 0.024 0.164 0.021 0.163 0.018 0.165 0.014 0.164 0.012 0.165 9e-3 0.165 6e-3 0.166 2e-3 0.165v0.166l-4e-3 0.166-6e-3 0.166-0.01 0.166-0.012 0.166-0.016 0.166-0.019 0.166-0.022 0.165-0.025 0.166-0.028 0.165-0.032 0.165-0.034 0.164-0.038 0.164-0.041 0.164-0.044 0.164-0.047 0.162-0.05 0.163-0.053 0.161-0.057 0.161-0.06 0.161-0.063 0.159-0.065 0.155-0.868 2.026-1.838-0.788 0.864-2.017 0.054-0.128 0.049-0.125 0.047-0.124 0.044-0.126 0.041-0.126 0.039-0.126 0.037-0.126 0.034-0.127 0.032-0.128 0.029-0.127 0.027-0.128 0.024-0.128 0.022-0.129 0.02-0.128 0.017-0.129 0.015-0.129 0.012-0.129 0.01-0.129 7e-3 -0.129 5e-3 -0.129 3e-3 -0.129v-0.129l-2e-3 -0.129-4e-3 -0.128-7e-3 -0.129-9e-3 -0.128-0.012-0.128-0.013-0.128-0.017-0.128-0.018-0.127-0.021-0.126-0.023-0.127-0.026-0.126-0.027-0.125-0.03-0.125-0.033-0.124-0.034-0.124-0.037-0.123-0.039-0.123-0.042-0.122-0.043-0.121-0.046-0.12-0.048-0.12-0.051-0.118-0.052-0.118-0.055-0.117-0.057-0.117-0.06-0.115-0.061-0.114-0.064-0.113-0.066-0.112-0.068-0.111-0.07-0.11-0.072-0.109-0.075-0.108-0.077-0.106-0.079-0.105-0.081-0.104-0.083-0.103-0.085-0.101-0.088-0.1-0.089-0.099-0.092-0.097-0.097-0.099-0.874-0.874 0.874-0.874 0.097-0.099 0.092-0.097 0.089-0.099 0.088-0.1 0.085-0.101 0.083-0.103 0.081-0.104 0.079-0.105 0.077-0.106 0.075-0.108 0.072-0.109 0.07-0.11 0.068-0.111 0.066-0.112 0.064-0.113 0.061-0.114 0.06-0.115 0.057-0.117 0.055-0.117 0.052-0.118 0.051-0.118 0.048-0.12 0.046-0.12 0.043-0.121 0.042-0.122 0.039-0.123 0.037-0.123 0.034-0.124 0.033-0.124 0.03-0.125 0.027-0.125 0.026-0.126 0.023-0.127 0.021-0.126 0.018-0.127 0.017-0.128 0.013-0.128 0.012-0.128 9e-3 -0.128 7e-3 -0.129 4e-3 -0.128 2e-3 -0.129v-0.129l-3e-3 -0.129-5e-3 -0.129-7e-3 -0.129-0.01-0.129-0.012-0.129-0.015-0.129-0.017-0.129-0.02-0.128-0.022-0.129-0.024-0.128-0.027-0.128-0.029-0.127-0.032-0.128-0.034-0.127-0.037-0.126-0.039-0.126-0.041-0.126-0.044-0.126-0.047-0.124-0.049-0.125-0.054-0.128-0.864-2.017 1.838-0.788 0.868 2.026z"/></g></g></svg>
