<?xml version="1.0" encoding="UTF-8"?>
<!DOCTYPE svg  PUBLIC '-//W3C//DTD SVG 1.1//EN'  'http://www.w3.org/Graphics/SVG/1.1/DTD/svg11.dtd'>
<svg clip-rule="evenodd" fill-rule="evenodd" stroke-linejoin="round" stroke-miterlimit="2" version="1.1" viewBox="0 0 32 32" xml:space="preserve" xmlns="http://www.w3.org/2000/svg" xmlns:serif="http://www.serif.com/">
<metadata>
<rdf:RDF xmlns:cc="http://web.resource.org/cc/" xmlns:dc="http://purl.org/dc/elements/1.1/" xmlns:rdf="http://www.w3.org/1999/02/22-rdf-syntax-ns#">

     <rdf:Description rdf:about="">
       <dc:title>Mutant Standard emoji 2023.12</dc:title>
     </rdf:Description>

    <cc:work rdf:about="">
        <cc:license rdf:resource="http://creativecommons.org/licenses/by-nc-sa/4.0/"/>
        <cc:attributionName>Caius Nocturne</cc:attributionName>
        <cc:attributionURL>http://mutant.tech/</cc:attributionURL>
    </cc:work>

</rdf:RDF>
</metadata>

    <rect id="back_of_hand--paw-" width="32" height="32" fill="none" serif:id="back_of_hand [paw]"/>
    <clipPath id="_clip1">
        <rect width="32" height="32"/>
    </clipPath>
    <g clip-path="url(#_clip1)">
        <g id="outline">
            <path d="m17.035 31.996h-1.035v4e-3h-0.133c-3.159 0-6.189-1.255-8.423-3.489l-5.979-5.979c-1.952-1.952-1.952-5.12 0-7.071 1.484-1.485 3.674-1.84 5.496-1.065l-1.701-6.805c-0.602-2.409 0.865-4.854 3.275-5.457 1.354-0.338 2.721-0.023 3.764 0.747 0.65-1.687 2.287-2.885 4.201-2.885 1.81 0 3.372 1.071 4.086 2.613 0.9-0.523 1.984-0.739 3.087-0.532 2.164 0.406 3.675 2.301 3.671 4.427 0.291 0.015 0.584 0.057 0.877 0.131 2.409 0.603 3.875 3.048 3.272 5.457 0 0-1.49 5.956-2.68 10.71-1.352 5.404-6.207 9.194-11.778 9.194z"/>
        </g>
        <g id="emoji">
            <path d="m14 13v-8.504c2e-3 -0.314 0.058-0.624 0.174-0.916 0.283-0.718 0.9-1.278 1.642-1.489 0.263-0.075 0.539-0.106 0.813-0.092 0.279 0.015 0.556 0.076 0.816 0.182 0.288 0.118 0.554 0.291 0.78 0.506 0.232 0.221 0.422 0.488 0.554 0.781 0.146 0.322 0.218 0.671 0.221 1.025v9.507c1e-3 0.067 0.013 0.133 0.039 0.195 0.081 0.191 0.279 0.315 0.487 0.304 0.058-3e-3 0.115-0.016 0.169-0.038 0.055-0.024 0.106-0.058 0.15-0.099 0.046-0.044 0.084-0.098 0.111-0.156 0.029-0.065 0.043-0.135 0.044-0.206v-5.899l0.387-2.062c0.254-1.356 1.561-2.25 2.917-1.996 1.062 0.199 1.84 1.043 2.007 2.05l-1.554 9.325c-0.01 0.066-9e-3 0.133 7e-3 0.198 0.048 0.203 0.223 0.357 0.429 0.381 0.058 6e-3 0.117 3e-3 0.173-0.011 0.059-0.014 0.115-0.038 0.165-0.072 0.053-0.036 0.099-0.083 0.135-0.136 0.039-0.059 0.065-0.126 0.077-0.196l1.123-6.734c0.546-0.323 1.215-0.439 1.879-0.273 1.339 0.336 2.153 1.695 1.817 3.033 0 0-1.494 5.959-2.687 10.714-1.131 4.511-5.186 7.674-9.836 7.674h-1.039v4e-3h-0.133c-2.629 0-5.15-1.044-7.009-2.903-2.371-2.371-5.979-5.98-5.979-5.98-1.171-1.17-1.171-3.071 0-4.242s3.072-1.171 4.242 0l2.879 2.878v-1.449l-2.799-11.198c-0.084-0.344-0.099-0.702-0.035-1.051 0.057-0.316 0.176-0.621 0.348-0.892 0.167-0.264 0.383-0.495 0.634-0.68 0.226-0.166 0.48-0.292 0.748-0.374 0.262-0.08 0.537-0.117 0.81-0.108 0.772 0.024 1.506 0.418 1.955 1.046 0.182 0.255 0.312 0.543 0.39 0.847l0.949 3.794v3.812c1e-3 0.067 0.013 0.133 0.039 0.195 0.081 0.191 0.279 0.315 0.487 0.304 0.058-3e-3 0.115-0.016 0.169-0.038 0.055-0.024 0.106-0.058 0.15-0.099 0.046-0.044 0.084-0.098 0.111-0.156 0.029-0.065 0.043-0.135 0.044-0.206v-0.5z" fill="#8C2B62"/>
        </g>
    </g>
</svg>
