<?xml version="1.0" encoding="UTF-8"?>
<!DOCTYPE svg  PUBLIC '-//W3C//DTD SVG 1.1//EN'  'http://www.w3.org/Graphics/SVG/1.1/DTD/svg11.dtd'>
<svg clip-rule="evenodd" fill-rule="evenodd" stroke-linecap="round" stroke-miterlimit="2" version="1.1" viewBox="0 0 32 32" xml:space="preserve" xmlns="http://www.w3.org/2000/svg" xmlns:serif="http://www.serif.com/">
<metadata>
<rdf:RDF xmlns:cc="http://web.resource.org/cc/" xmlns:dc="http://purl.org/dc/elements/1.1/" xmlns:rdf="http://www.w3.org/1999/02/22-rdf-syntax-ns#">

     <rdf:Description rdf:about="">
       <dc:title>Mutant Standard emoji 2023.12</dc:title>
     </rdf:Description>

    <cc:work rdf:about="">
        <cc:license rdf:resource="http://creativecommons.org/licenses/by-nc-sa/4.0/"/>
        <cc:attributionName>Caius Nocturne</cc:attributionName>
        <cc:attributionURL>http://mutant.tech/</cc:attributionURL>
    </cc:work>

</rdf:RDF>
</metadata>

    <rect id="clap--paw-" width="32" height="32" fill="none" serif:id="clap [paw]"/>
    <clipPath id="_clip1">
        <rect width="32" height="32"/>
    </clipPath>
    <g clip-path="url(#_clip1)">
        <g id="outline">
            <path d="m19.781 7.018c-0.485-0.533-0.781-1.241-0.781-2.018v-2c0-1.656 1.344-3 3-3 1.579 0 2.875 1.222 2.991 2.772 1.178-1.063 2.996-1.027 4.13 0.107s1.17 2.952 0.107 4.13c1.55 0.116 2.772 1.412 2.772 2.991 0 1.656-1.344 3-3 3h-0.154c0.044 0.24 0.067 0.486 0.067 0.738v5.807c0 1.991-0.65 3.914-1.832 5.488-0.091 0.172-0.209 0.333-0.354 0.478v1e-3c-0.078 0.077-0.156 0.153-0.236 0.228-0.082 0.09-0.167 0.179-0.254 0.266h-1e-3c-0.13 0.131-0.275 0.239-0.428 0.326-3.518 2.803-8.454 3.177-12.385 0.822l-0.425-0.254c1e-3 0.033 2e-3 0.067 2e-3 0.1v2c0 1.656-1.344 3-3 3-1.579 0-2.875-1.222-2.991-2.772-1.178 1.063-2.996 1.027-4.13-0.107s-1.17-2.952-0.107-4.13c-1.55-0.116-2.772-1.412-2.772-2.991 0-1.656 1.344-3 3-3h0.375c-0.421-1.05-0.364-2.277 0.261-3.322 0.036-0.059 0.073-0.117 0.111-0.173-0.072-0.095-0.138-0.193-0.2-0.295-0.25-0.411-0.419-0.869-0.496-1.344-0.075-0.46-0.063-0.934 0.035-1.39 0.088-0.411 0.247-0.807 0.466-1.165 0.214-0.349 0.485-0.663 0.8-0.925 0.262-0.218 0.552-0.397 0.859-0.533-0.051-0.262-0.073-0.529-0.067-0.796 0.011-0.466 0.11-0.93 0.291-1.36 0.162-0.388 0.391-0.747 0.673-1.059 0.274-0.304 0.598-0.562 0.956-0.762 0.812-0.452 1.776-0.58 2.674-0.373 0.17-0.487 0.44-0.939 0.797-1.32 0.28-0.299 0.61-0.55 0.971-0.743 0.371-0.198 0.775-0.332 1.191-0.396 0.461-0.071 0.935-0.054 1.39 0.048 0.469 0.106 0.916 0.302 1.312 0.575 0.434 0.301 0.797 0.69 1.071 1.141 2e-3 3e-3 4e-3 7e-3 7e-3 0.01l0.852 1.421c0.477 0.126 0.93 0.343 1.325 0.647 0.199 0.153 0.381 0.324 0.544 0.512 0.183-0.142 0.378-0.27 0.583-0.38z"/>
        </g>
        
            <path d="m6.593 19.067c-0.053 0.109-0.101 0.219-0.143 0.33l-0.498-0.299c-0.826-0.494-1.095-1.566-0.6-2.392 0.19-0.317 0.464-0.551 0.777-0.693-0.035 0.381-0.013 0.765 0.066 1.138-0.093 0.067-0.025 1.309 0.398 1.916zm-0.092-4.356c-0.063 0.125-0.118 0.254-0.166 0.386l-0.574-0.393c-0.203-0.141-0.376-0.321-0.505-0.532-0.116-0.192-0.195-0.406-0.231-0.627-0.035-0.215-0.03-0.436 0.016-0.648 0.041-0.192 0.115-0.375 0.217-0.542 0.1-0.163 0.226-0.309 0.373-0.432 0.414-0.344 0.979-0.478 1.504-0.359 0.214 0.049 0.415 0.139 0.596 0.261l0.524 0.359c-3e-3 0.182 6e-3 0.365 0.029 0.546h-1e-3c-0.903-0.542-2.394 1.432-1.782 1.981zm2.071-3.97c-0.058 0.133-0.109 0.268-0.151 0.406l-0.767-0.767c-0.174-0.176-0.311-0.384-0.399-0.616-0.079-0.21-0.117-0.435-0.111-0.659 5e-3 -0.217 0.051-0.434 0.135-0.634 0.075-0.18 0.182-0.347 0.313-0.492 0.128-0.142 0.279-0.263 0.446-0.356 0.47-0.262 1.051-0.29 1.544-0.076 0.201 0.088 0.382 0.213 0.538 0.367l0.768 0.768c-0.116 0.035-0.231 0.077-0.343 0.124-0.017 7e-3 -0.033 0.014-0.049 0.021-0.755-0.547-2.468 1.161-1.924 1.914zm12.075-1.041-0.362-0.603c0.374-0.349 0.876-0.563 1.427-0.563 0.868 0 1.614 0.53 1.93 1.284-0.327 0.098-0.636 0.236-0.923 0.408-0.679-0.377-1.727-0.521-2.072-0.526zm-7.788-1.129-0.015 0.042c-0.178-0.042-0.36-0.071-0.542-0.086l-0.531-0.885c-0.112-0.188-0.19-0.394-0.225-0.61-0.089-0.531 0.079-1.088 0.448-1.481 0.13-0.139 0.284-0.256 0.453-0.346 0.172-0.092 0.36-0.155 0.553-0.184 0.215-0.033 0.436-0.025 0.648 0.022 0.219 0.05 0.428 0.141 0.612 0.268 0.204 0.141 0.373 0.325 0.502 0.536l0.3 0.502c-0.161 0.06-0.318 0.132-0.47 0.214-0.84-0.373-2.19 1.061-1.733 2.008z" fill="#633A92"/>
            <path d="m6.195 17.151c0.099 0.47 0.286 0.922 0.559 1.324l0.1 0.142c-0.038 0.056-0.075 0.114-0.11 0.173-0.055 0.091-0.105 0.183-0.151 0.277-0.649-0.433-0.931-1.163-0.629-1.666 0.06-0.1 0.138-0.183 0.231-0.25zm0.306-2.44c-0.612-0.549-0.855-1.298-0.54-1.822 0.379-0.63 1.419-0.701 2.322-0.159h1e-3c9e-3 0.078 0.021 0.155 0.036 0.232-0.184 0.081-0.36 0.178-0.527 0.288-0.351 0.231-0.662 0.522-0.917 0.857-0.144 0.189-0.27 0.391-0.375 0.604zm14.146-5.011c0.24-0.204 0.522-0.321 0.822-0.321 0.503 0 0.954 0.33 1.25 0.847l-0.029 0.017c-0.429 0.266-0.806 0.604-1.115 1.004l-0.928-1.547zm-12.075 1.041c-0.544-0.753-0.636-1.626-0.172-2.09 0.466-0.466 1.341-0.371 2.096 0.176-0.369 0.161-0.711 0.382-1.01 0.652-0.304 0.275-0.563 0.599-0.762 0.957-0.056 0.099-0.106 0.201-0.152 0.305zm4.287-2.17c-0.074-0.094-0.143-0.194-0.207-0.301-0.559-0.931-0.518-1.984 0.091-2.351 0.521-0.312 1.288-0.025 1.849 0.644-0.105 0.057-0.207 0.118-0.306 0.185-0.349 0.234-0.658 0.527-0.909 0.864-0.219 0.292-0.394 0.616-0.518 0.959z" fill="#41186C"/>
        
        
            <path d="m16.282 13.093-1.403-2.34c-0.126-0.213-0.209-0.448-0.237-0.694-0.026-0.223-8e-3 -0.45 0.051-0.667 0.058-0.209 0.155-0.408 0.285-0.582 0.117-0.157 0.261-0.293 0.423-0.402 0.159-0.106 0.335-0.187 0.519-0.236 0.52-0.141 1.09-0.027 1.517 0.301 0.174 0.133 0.319 0.299 0.433 0.486l4.142 6.904 0.715 0.715v-2.84c0-1.155 0.938-2.093 2.093-2.093s2.093 0.938 2.093 2.093v5.807c0 1.659-0.578 3.258-1.622 4.53l0.022 0.022c-0.08 0.08-0.161 0.158-0.243 0.234-0.08 0.089-0.163 0.175-0.248 0.26v1e-3l-0.021-0.021c-2.884 2.466-7.051 2.844-10.35 0.868-2.641-1.582-5.391-3.229-5.391-3.229-0.826-0.495-1.095-1.567-0.6-2.393 0.245-0.409 0.633-0.682 1.062-0.792l3.875 2.768c0.039 0.026 0.081 0.046 0.127 0.056 0.141 0.032 0.291-0.03 0.37-0.152 0.022-0.034 0.037-0.072 0.046-0.112 9e-3 -0.041 0.011-0.083 5e-3 -0.125-6e-3 -0.044-0.021-0.088-0.044-0.126-0.024-0.043-0.058-0.08-0.098-0.109l-5.366-3.833c-9e-3 -0.012-0.018-0.025-0.027-0.038-0.302-0.445-0.381-1.021-0.21-1.532 0.061-0.181 0.152-0.352 0.267-0.504 0.119-0.155 0.263-0.29 0.426-0.398 0.182-0.12 0.386-0.205 0.599-0.25 0.219-0.046 0.447-0.05 0.668-0.011 0.244 0.043 0.474 0.139 0.679 0.277l1.208 0.827 2.909 2.91c0.034 0.032 0.072 0.059 0.116 0.076 0.134 0.055 0.293 0.018 0.39-0.089 0.027-0.03 0.049-0.065 0.064-0.103 0.016-0.039 0.025-0.081 0.026-0.123 1e-3 -0.044-7e-3 -0.089-0.023-0.131-0.017-0.047-0.045-0.088-0.079-0.124l-4.69-4.689c-0.153-0.156-0.278-0.336-0.365-0.536-0.214-0.494-0.186-1.075 0.076-1.545 0.093-0.167 0.214-0.318 0.356-0.446 0.145-0.131 0.312-0.237 0.492-0.313 0.2-0.084 0.416-0.13 0.634-0.135 0.224-5e-3 0.449 0.033 0.659 0.112 0.231 0.087 0.44 0.224 0.616 0.398l4.441 4.441c0.034 0.033 0.072 0.059 0.116 0.077 0.134 0.054 0.293 0.018 0.39-0.09 0.027-0.03 0.049-0.064 0.064-0.102 0.016-0.039 0.025-0.081 0.026-0.123 1e-3 -0.045-7e-3 -0.09-0.023-0.132-0.017-0.046-0.045-0.087-0.079-0.123l-1.881-1.88z" fill="#633A92"/>
        
        <g fill="none" stroke="#fff" stroke-width="2px">
            <path d="m22 5v-2"/>
            <path d="m25 7 2-2"/>
            <path d="m27 10h2"/>
            <path d="m10 27v2"/>
            <path d="m7 25-2 2"/>
            <path d="m5 22h-2"/>
        </g>
    </g>
</svg>
