<?xml version="1.0" encoding="UTF-8"?>
<!DOCTYPE svg  PUBLIC '-//W3C//DTD SVG 1.1//EN'  'http://www.w3.org/Graphics/SVG/1.1/DTD/svg11.dtd'>
<svg clip-rule="evenodd" fill-rule="evenodd" stroke-linejoin="round" stroke-miterlimit="2" version="1.1" viewBox="0 0 32 32" xml:space="preserve" xmlns="http://www.w3.org/2000/svg" xmlns:serif="http://www.serif.com/">
<metadata>
<rdf:RDF xmlns:cc="http://web.resource.org/cc/" xmlns:dc="http://purl.org/dc/elements/1.1/" xmlns:rdf="http://www.w3.org/1999/02/22-rdf-syntax-ns#">

     <rdf:Description rdf:about="">
       <dc:title>Mutant Standard emoji 2023.12</dc:title>
     </rdf:Description>

    <cc:work rdf:about="">
        <cc:license rdf:resource="http://creativecommons.org/licenses/by-nc-sa/4.0/"/>
        <cc:attributionName>Caius Nocturne</cc:attributionName>
        <cc:attributionURL>http://mutant.tech/</cc:attributionURL>
    </cc:work>

</rdf:RDF>
</metadata>

    <rect id="crossed_fingers--paw-" width="32" height="32" fill="none" serif:id="crossed_fingers [paw]"/>
    <clipPath id="_clip1">
        <rect width="32" height="32"/>
    </clipPath>
    <g clip-path="url(#_clip1)">
        <g id="Layer10">
            <path d="m18.5 0.258c0.912-0.323 1.935-0.357 2.923-0.027 2.356 0.785 3.631 3.336 2.846 5.692l-1.026 3.077 2.026 6.077 0.012 0.035c1.119 0.241 2.134 0.862 2.861 1.775 0.948 1.193 1.301 2.753 0.959 4.237-0.116 0.502-0.238 1.032-0.363 1.574-1.257 5.445-6.105 9.302-11.693 9.302h-1.073c-5.574 3e-3 -10.434-3.793-11.785-9.2-0.609-2.433-1.178-4.709-1.178-4.709-0.602-2.409 0.865-4.854 3.275-5.457 0.153-0.038 0.306-0.068 0.458-0.09 0.479-1.394 1.631-2.526 3.167-2.91 1.225-0.306 2.46-0.077 3.457 0.539l0.391-1.173-1.026-3.077c-0.785-2.356 0.49-4.907 2.846-5.692 0.988-0.33 2.011-0.296 2.923 0.027z"/>
        </g>
        <g id="Layer9">
            <path d="m15.36 12-0.022-1.419 2.29-6.872c0.072-0.209 0.167-0.409 0.289-0.593 0.252-0.379 0.608-0.684 1.019-0.878 0.173-0.081 0.378-0.146 0.564-0.188l0.013 0.013c0.209 0.218 0.709 0.299 0.857 0.562 0.109 0.195 0.197 0.398 0.269 0.609l1.087 2.766-0.064 1.419-1.748 5.244 3.222 2.337c0.288 0.877 0.576 1.754 0.864 2.632v6.368l-13-4 2.032 3.314-5.235-2.314h-1.295s-0.772-0.967-1.021-1.263l-0.521-2.082 1.04-2.655c3.923-2.944 4.095-3.002 9-3h0.36z" fill="#5E0D79" fill-rule="nonzero"/>
            <path d="m13.762 17.341c0.154-0.348 0.238-0.731 0.238-1.13v-1.617l1.338-4.013 1.473 4.419h-0.811v1.657l-0.72 1.083c0 3.314 3.406 6.26 6.72 6.26l1-1v-2h-1c-2.209 0-4-1.791-4-4h6.229c0.914 0 1.778 0.417 2.348 1.132 0.569 0.716 0.781 1.652 0.575 2.543-0.116 0.502-0.238 1.032-0.363 1.574-1.047 4.537-5.088 7.751-9.744 7.751h-1.076c-4.653 0-8.713-3.17-9.842-7.683l-0.646-2.58c0.562 0.351 1.254 0.469 1.921 0.302l0.011-3e-3c0.915-0.233 1.608-0.894 1.92-1.716 0.668 0.584 1.6 0.844 2.527 0.617 0-1e-3 1e-3 -1e-3 2e-3 -1e-3 0.099-0.024 0.196-0.054 0.29-0.088 0 0 1.338 0.15 2.29-0.334l-0.68-1.173zm-6.365-2.837c0.162 1e-3 0.321 0.018 0.476 0.05l0.582 2.329c4e-3 0.014 8e-3 0.029 0.012 0.043 0.22 0.946-0.355 1.898-1.297 2.14l-0.012 3e-3c-0.58 0.146-1.191-0.071-1.55-0.55l-0.648-0.864-0.011-0.044c-0.335-1.339 0.48-2.697 1.818-3.032 0.205-0.052 0.411-0.076 0.613-0.076l0.017 1e-3zm1.198-1.187c0.238-0.832 0.9-1.518 1.799-1.742 1.004-0.252 2.02 0.145 2.606 0.924v3.712c-1e-3 0.197-0.032 0.392-0.095 0.579-0.15 0.442-0.472 0.816-0.888 1.028-0.173 0.089-0.36 0.149-0.552 0.179-0.19 0.029-0.385 0.028-0.574-4e-3 -0.22-0.036-0.432-0.114-0.624-0.227-0.205-0.12-0.385-0.281-0.528-0.47s-0.252-0.409-0.309-0.64l-0.835-3.339zm14.54 1.683h-5.27l-3.237-9.709c-0.114-0.357-0.156-0.733-0.108-1.106 0.043-0.337 0.156-0.665 0.329-0.958 0.161-0.273 0.374-0.514 0.625-0.707 0.221-0.171 0.47-0.303 0.735-0.392 0.265-0.088 0.545-0.132 0.824-0.128 0.707 0.01 1.398 0.332 1.861 0.867 0.213 0.247 0.371 0.535 0.478 0.842l3.763 11.291zm-3.635-12.95c0.416-0.085 0.859-0.065 1.291 0.078 1.309 0.437 2.017 1.854 1.581 3.163l-0.71 2.128-1.342-4.026c-0.071-0.21-0.16-0.414-0.268-0.608-0.148-0.263-0.33-0.504-0.539-0.722l-0.013-0.013z" fill="#D445D9"/>
            <path d="m16 16.657v0.343c0 3.314 2.686 6 6 6h1v1.158c0 0.923-0.426 1.796-1.154 2.364-0.728 0.569-1.677 0.77-2.574 0.546-0.917-0.229-1.782-0.445-2.294-0.574-0.318-0.079-0.643-0.119-0.97-0.119h-0.016c-0.327 0-0.652 0.04-0.97 0.119-0.512 0.129-1.377 0.345-2.294 0.574-0.897 0.224-1.846 0.023-2.574-0.546-0.728-0.568-1.154-1.441-1.154-2.364v-0.501c0-1.061 0.421-2.078 1.172-2.829l1.98-1.98c0.73-0.264 1.306-0.817 1.61-1.507 0.657-0.443 1.435-0.684 2.238-0.684z" fill="#7D15A0"/>
            <path d="m16.993 3.582c-1.047 0.258-1.601 1.672-1.235 3.156 0.365 1.484 1.513 2.479 2.56 2.221 1.048-0.258 1.602-1.672 1.236-3.156s-1.513-2.479-2.561-2.221z" fill="#7D15A0"/>
        </g>
    </g>
</svg>
