<?xml version="1.0" encoding="UTF-8"?>
<!DOCTYPE svg  PUBLIC '-//W3C//DTD SVG 1.1//EN'  'http://www.w3.org/Graphics/SVG/1.1/DTD/svg11.dtd'>
<svg clip-rule="evenodd" fill-rule="evenodd" stroke-linejoin="round" stroke-miterlimit="2" version="1.1" viewBox="0 0 32 32" xml:space="preserve" xmlns="http://www.w3.org/2000/svg" xmlns:serif="http://www.serif.com/">
<metadata>
<rdf:RDF xmlns:cc="http://web.resource.org/cc/" xmlns:dc="http://purl.org/dc/elements/1.1/" xmlns:rdf="http://www.w3.org/1999/02/22-rdf-syntax-ns#">

     <rdf:Description rdf:about="">
       <dc:title>Mutant Standard emoji 2023.12</dc:title>
     </rdf:Description>

    <cc:work rdf:about="">
        <cc:license rdf:resource="http://creativecommons.org/licenses/by-nc-sa/4.0/"/>
        <cc:attributionName>Caius Nocturne</cc:attributionName>
        <cc:attributionURL>http://mutant.tech/</cc:attributionURL>
    </cc:work>

</rdf:RDF>
</metadata>

    <rect id="fist_facing_right--paw-" width="32" height="32" fill="none" serif:id="fist_facing_right [paw]"/>
    <clipPath id="_clip1">
        <rect width="32" height="32"/>
    </clipPath>
    <g clip-path="url(#_clip1)">
        <g id="outline">
            <path d="m25 6c3.866 0 7 3.134 7 7v3c0 3.171-2.108 5.849-5 6.71v0.29c0 1.326-0.527 2.598-1.464 3.536-0.938 0.937-2.21 1.464-3.536 1.464h-3.277c-2.307 0-4.502-0.996-6.021-2.732l-4.61-5.268h-6.092c-1.105 0-2-0.895-2-2v-10c0-1.105 0.895-2 2-2h23z"/>
        </g>
        <g id="emoji">
            <path d="m7 18h-5v-10h5l1 1v8l-1 1z" fill="#5B4E45"/>
            <path d="m7 8h18c2.761 0 5 2.239 5 5v3c0 2.751-2.221 4.983-4.968 5h-0.032l-1 1 1 1c0 0.796-0.316 1.559-0.879 2.121-0.562 0.563-1.325 0.879-2.121 0.879h-3.277c-1.731 0-3.377-0.747-4.516-2.049l-5.207-5.951h-2v-10z" fill="#807167"/>
            <path d="m25 23h-3.93c-1.003 0-1.939-0.501-2.496-1.336l-3.861-5.791 0.837-0.838c1.326-1.326 3.209-1.933 5.06-1.633s3.445 1.472 4.284 3.15v1e-3l-1.788 0.894s-1e-3 0-1e-3 -1e-3c-0.551-1.102-1.599-1.872-2.815-2.07-1.067-0.173-2.15 0.113-2.988 0.774l2.936 4.405c0.186 0.278 0.498 0.445 0.832 0.445h3.93v2z" fill="#3D3026"/>
        </g>
    </g>
</svg>
