<?xml version="1.0" encoding="UTF-8"?>
<!DOCTYPE svg  PUBLIC '-//W3C//DTD SVG 1.1//EN'  'http://www.w3.org/Graphics/SVG/1.1/DTD/svg11.dtd'>
<svg clip-rule="evenodd" fill-rule="evenodd" stroke-linejoin="round" stroke-miterlimit="2" version="1.1" viewBox="0 0 32 32" xml:space="preserve" xmlns="http://www.w3.org/2000/svg" xmlns:serif="http://www.serif.com/">
<metadata>
<rdf:RDF xmlns:cc="http://web.resource.org/cc/" xmlns:dc="http://purl.org/dc/elements/1.1/" xmlns:rdf="http://www.w3.org/1999/02/22-rdf-syntax-ns#">

     <rdf:Description rdf:about="">
       <dc:title>Mutant Standard emoji 2023.12</dc:title>
     </rdf:Description>

    <cc:work rdf:about="">
        <cc:license rdf:resource="http://creativecommons.org/licenses/by-nc-sa/4.0/"/>
        <cc:attributionName>Caius Nocturne</cc:attributionName>
        <cc:attributionURL>http://mutant.tech/</cc:attributionURL>
    </cc:work>

</rdf:RDF>
</metadata>

    <rect id="handshake--paw-" width="32" height="32" fill="none" serif:id="handshake [paw]"/>
    <clipPath id="_clip1">
        <rect width="32" height="32"/>
    </clipPath>
    <g clip-path="url(#_clip1)">
        <g id="outline">
            <path d="m19.736 10h0.792l11.472-5.736v15.972l-1.045 0.523c-0.242 1.979-1.459 3.729-3.272 4.635-0.447 0.224-0.908 0.454-1.322 0.662-0.727 0.363-1.521 0.486-2.283 0.391l-5.528 2.764c-4.94 2.47-10.947 0.468-13.417-4.472l-1.619-3.239h-3.514v-15.759l6.823 2.262 10.058-3e-3c1.137 0 2.176 0.642 2.684 1.659l0.171 0.341z"/>
        </g>
        <g id="emoji">
            <path d="m21.792 25.354-1.349 0.675-1.443-0.029-0.443 0.971-0.902 0.451c-0.426 0.213-0.862 0.385-1.303 0.516l-1.852 0.062-0.649 0.265c-2.85-0.083-5.564-1.691-6.929-4.42-1.168-2.338-2.172-4.345-2.172-4.345l-2.75 0.011v-11l4.5 1.492s8.061-2e-3 10.382-3e-3c0.358 0 0.688 0.192 0.866 0.5h-6.076l-3.5 3.5 3.394 3.395c1.208 1.208 3.049 1.514 4.581 0.766l5.268 6.773c0.117 0.15 0.243 0.291 0.377 0.42z" fill="#5963EF"/>
            <path d="m16.352 27.938c-0.825 0.246-1.669 0.352-2.501 0.327l-2.127-2.127c0.628-0.314 1.257-0.628 1.885-0.943l2.743 2.743zm4.091-1.909-1.886 0.942-2.833-2.833c0.628-0.314 1.257-0.628 1.885-0.943l2.834 2.834z" fill="#28168F"/>
            <path d="m16 16s-0.324 0.162-0.711 0.355c-0.77 0.385-1.7 0.234-2.308-0.374l-1.981-1.981 2-2h8l9-4.5v11.5l-1 0.5v0.528c0 1.515-0.856 2.9-2.211 3.578-0.448 0.223-0.908 0.454-1.322 0.661-0.513 0.256-1.092 0.273-1.6 0.083 0 0-3.164-7.85-4.867-7.85l-2-0.5h-1z" fill="#5963EF"/>
            <path d="m17 16h4.221c1.703 0 3.26 0.962 4.022 2.486 0.026 0.052 0.052 0.105 0.079 0.157 0.972 1.944 0.414 4.305-1.324 5.609l-0.131 0.098-0.019-8e-3c-0.338-0.133-0.631-0.351-0.855-0.636l-5.993-7.706z" fill="#3932C0"/>
        </g>
    </g>
</svg>
