<?xml version="1.0" encoding="UTF-8"?>
<!DOCTYPE svg  PUBLIC '-//W3C//DTD SVG 1.1//EN'  'http://www.w3.org/Graphics/SVG/1.1/DTD/svg11.dtd'>
<svg clip-rule="evenodd" fill-rule="evenodd" stroke-linejoin="round" stroke-miterlimit="2" version="1.1" viewBox="0 0 32 32" xml:space="preserve" xmlns="http://www.w3.org/2000/svg" xmlns:serif="http://www.serif.com/">
<metadata>
<rdf:RDF xmlns:cc="http://web.resource.org/cc/" xmlns:dc="http://purl.org/dc/elements/1.1/" xmlns:rdf="http://www.w3.org/1999/02/22-rdf-syntax-ns#">

     <rdf:Description rdf:about="">
       <dc:title>Mutant Standard emoji 2023.12</dc:title>
     </rdf:Description>

    <cc:work rdf:about="">
        <cc:license rdf:resource="http://creativecommons.org/licenses/by-nc-sa/4.0/"/>
        <cc:attributionName>Caius Nocturne</cc:attributionName>
        <cc:attributionURL>http://mutant.tech/</cc:attributionURL>
    </cc:work>

</rdf:RDF>
</metadata>

    <rect id="metal--paw-" width="32" height="32" fill="none" serif:id="metal [paw]"/>
    <clipPath id="_clip1">
        <rect width="32" height="32"/>
    </clipPath>
    <g clip-path="url(#_clip1)">
        <g id="Layer10">
            <path d="m25 4.5c0-0.663-0.263-1.299-0.732-1.768s-1.105-0.732-1.768-0.732-1.299 0.263-1.768 0.732-0.732 1.105-0.732 1.768v15.5h5v-15.5z"/>
            <path d="m18 7.528v-3.028c0-1.193 0.474-2.338 1.318-3.182s1.989-1.318 3.182-1.318 2.338 0.474 3.182 1.318 1.318 1.989 1.318 3.182v10.824c0.832 0.315 1.575 0.85 2.142 1.563 0.948 1.193 1.301 2.753 0.959 4.237-0.116 0.502-0.238 1.032-0.363 1.574-1.257 5.445-6.105 9.302-11.693 9.302h-0.873l-4e-3 -4e-3 -0.689 1e-3c-5.343 3e-3 -10.003-3.633-11.299-8.817-1.232-4.927-2.804-11.21-2.804-11.21-0.535-2.141 0.769-4.315 2.91-4.85 2.104-0.527 4.239 0.722 4.821 2.797 0.253-0.117 0.521-0.213 0.802-0.283 0.92-0.23 1.846-0.158 2.672 0.153 0.773-1.365 2.239-2.287 3.919-2.287 0.169 0 0.336 9e-3 0.5 0.028z"/>
        </g>
        <g id="Layer9">
            <path d="m21 24-14-4v-9l4 2 2-1 3-1 2-1h3l4 5v8l-4 1z" fill="#865E1C"/>
            <path d="m23 21c-2.209 0-4-1.791-4-4h6.229c0.914 0 1.778 0.417 2.348 1.132 0.569 0.716 0.781 1.652 0.575 2.543-0.116 0.502-0.238 1.032-0.363 1.574-1.047 4.537-5.088 7.751-9.744 7.751h-0.045c1e-3 -1e-3 1e-3 -3e-3 2e-3 -4e-3h-2e-3 -1.526c-4.424 0-8.28-3.011-9.353-7.302-1.232-4.926-2.803-11.209-2.803-11.209-0.268-1.071 0.384-2.157 1.455-2.425s2.158 0.384 2.426 1.455l0.317 1.267c2e-3 0.195 0.027 0.389 0.074 0.578 0.179 0.717 0.726 2.905 1.147 4.587 0.359 1.436 1.81 2.311 3.247 1.959h1e-3c0.051-0.013 0.101-0.026 0.151-0.042 0 0 5.341 5.803 7.864 5.803l3-1.667v-2h-1zm-13.244-8.1c0.313-0.638 0.895-1.14 1.638-1.325 1.004-0.252 2.02 0.145 2.606 0.924v3.839c-1e-3 0.225-0.046 0.447-0.136 0.654-0.082 0.19-0.201 0.365-0.348 0.511-0.133 0.132-0.288 0.241-0.457 0.321-0.133 0.063-0.274 0.107-0.419 0.133-0.165 0.03-0.334 0.035-0.501 0.014-0.445-0.054-0.859-0.291-1.133-0.646-0.142-0.184-0.241-0.396-0.299-0.62l-0.951-3.805zm7.244 2.1v2c0 0.086 2e-3 0.171 5e-3 0.256-0.268 0.022-0.541-0.015-0.794-0.109-0.481-0.177-0.874-0.555-1.07-1.029-0.093-0.225-0.139-0.466-0.141-0.71v-3.414c3e-3 -1.377 1.122-2.494 2.5-2.494 0.563 0 1.082 0.186 1.5 0.5v5h-2zm8 0h-5v-10.5c9e-3 -0.382 0.088-0.761 0.258-1.105 0.149-0.303 0.36-0.575 0.617-0.795 0.231-0.197 0.498-0.352 0.785-0.454 0.628-0.223 1.339-0.184 1.939 0.109 0.247 0.12 0.473 0.282 0.667 0.476 0.184 0.184 0.339 0.397 0.458 0.628 0.182 0.354 0.268 0.745 0.276 1.141v10.5z" fill="#FFD877"/>
            <path d="m13.136 18.864c0.756-0.233 1.352-0.786 1.651-1.487 0.05 0.052 0.102 0.103 0.156 0.151 0.596 0.537 1.39 0.799 2.187 0.721 0.574 2.714 2.984 4.751 5.87 4.751h1v1.158c0 0.923-0.426 1.796-1.154 2.364-0.728 0.569-1.677 0.77-2.574 0.546-0.917-0.229-1.782-0.445-2.294-0.574-0.318-0.079-0.643-0.119-0.97-0.119h-0.016c-0.327 0-0.652 0.04-0.97 0.119-0.512 0.129-1.377 0.345-2.294 0.574-0.897 0.224-1.846 0.023-2.574-0.546-0.728-0.568-1.154-1.441-1.154-2.364v-0.501c0-1.061 0.421-2.078 1.172-2.829l1.964-1.964z" fill="#BB871F"/>
            <path d="m6.072 10.393c0.849-0.212 1.795 0.641 2.109 1.903 0.315 1.262-0.119 2.459-0.969 2.671s-1.795-0.641-2.109-1.903c-0.315-1.262 0.119-2.459 0.969-2.671zm16.416-6.926c1.104 0 2 1.345 2 3 0 1.656-0.896 3-2 3s-2-1.344-2-3c0-1.655 0.896-3 2-3z" fill="#BB871F"/>
        </g>
    </g>
</svg>
