<?xml version="1.0" encoding="UTF-8"?>
<!DOCTYPE svg  PUBLIC '-//W3C//DTD SVG 1.1//EN'  'http://www.w3.org/Graphics/SVG/1.1/DTD/svg11.dtd'>
<svg clip-rule="evenodd" fill-rule="evenodd" stroke-linejoin="round" stroke-miterlimit="2" version="1.1" viewBox="0 0 32 32" xml:space="preserve" xmlns="http://www.w3.org/2000/svg" xmlns:serif="http://www.serif.com/">
<metadata>
<rdf:RDF xmlns:cc="http://web.resource.org/cc/" xmlns:dc="http://purl.org/dc/elements/1.1/" xmlns:rdf="http://www.w3.org/1999/02/22-rdf-syntax-ns#">

     <rdf:Description rdf:about="">
       <dc:title>Mutant Standard emoji 2023.12</dc:title>
     </rdf:Description>

    <cc:work rdf:about="">
        <cc:license rdf:resource="http://creativecommons.org/licenses/by-nc-sa/4.0/"/>
        <cc:attributionName>Caius Nocturne</cc:attributionName>
        <cc:attributionURL>http://mutant.tech/</cc:attributionURL>
    </cc:work>

</rdf:RDF>
</metadata>

    <rect id="middle_finger--paw-" width="32" height="32" fill="none" serif:id="middle_finger [paw]"/>
    <clipPath id="_clip1">
        <rect width="32" height="32"/>
    </clipPath>
    <g clip-path="url(#_clip1)">
        <g id="outline">
            <path d="m12 9.142v-4.646c0-2.484 2.016-4.5 4.5-4.5s4.5 2.016 4.5 4.5v4.647c0.704-0.183 1.462-0.197 2.216-9e-3 1.733 0.433 2.978 1.819 3.317 3.459 0.061 0.012 0.122 0.026 0.183 0.041 2.41 0.603 3.877 3.048 3.275 5.457 0 0-0.569 2.276-1.178 4.709-1.351 5.407-6.211 9.2-11.785 9.197h-0.196l-4e-3 3e-3h-2.179c-5.557 0-10.387-3.815-11.674-9.221-0.217-0.91-0.43-1.804-0.624-2.621-0.355-1.488-8e-3 -3.057 0.94-4.257 0.78-0.988 1.897-1.637 3.12-1.836-0.284-2.23 1.14-4.372 3.374-4.931 0.754-0.188 1.511-0.174 2.215 8e-3z"/>
        </g>
        <g id="emoji">
            <path d="m12 12h9l3 1 2 2v4h-14v-7z" fill="#1D1659"/>
            <path d="m9.924 20.538-1.924 0.462-2-0.462 1-4.537c0.029 0 0.063-1e-3 0.092-1e-3h1.832l1 4.538z" fill="#373087"/>
            <path d="m8.924 16-0.473-1.894c-0.335-1.338 0.48-2.697 1.819-3.031 1.079-0.27 2.172 0.208 2.73 1.106v2.819c1e-3 0.071 0.015 0.141 0.044 0.206 0.027 0.058 0.065 0.112 0.111 0.156 0.044 0.041 0.095 0.075 0.15 0.099 0.054 0.022 0.111 0.035 0.169 0.038 0.208 0.011 0.406-0.113 0.487-0.304 0.026-0.062 0.038-0.128 0.039-0.195v-2-8.5c3e-3 -0.344 0.07-0.684 0.208-1 0.306-0.697 0.93-1.231 1.667-1.421 0.258-0.066 0.526-0.091 0.791-0.074 0.249 0.017 0.496 0.071 0.729 0.16 0.289 0.111 0.557 0.277 0.787 0.486 0.248 0.226 0.45 0.502 0.591 0.807 0.15 0.327 0.224 0.683 0.227 1.042v4.497 3e-3 6c0 0.276 0.224 0.5 0.5 0.5s0.5-0.224 0.5-0.5v-2.818c0.557-0.898 1.651-1.377 2.731-1.107 1.116 0.278 1.868 1.268 1.894 2.365l-0.985 3.939c-0.016 0.069-0.02 0.14-7e-3 0.21 0.011 0.063 0.035 0.124 0.07 0.178 0.032 0.051 0.073 0.096 0.122 0.133 0.046 0.035 0.098 0.061 0.154 0.078 0.199 0.061 0.421-0.011 0.546-0.178 0.04-0.053 0.068-0.114 0.085-0.179l0.777-3.106c0.276-0.027 0.561-7e-3 0.846 0.064 1.338 0.335 2.153 1.693 1.818 3.032 0 0-0.569 2.275-1.178 4.706-1.129 4.513-5.185 7.679-9.838 7.679h-1.031l-4e-3 4e-3h-1.442c-4.589 0-8.589-3.123-9.702-7.575-0.234-0.935-0.464-1.857-0.674-2.697-0.224-0.897-0.023-1.846 0.546-2.574 0.549-0.704 1.383-1.125 2.272-1.153v3.537c0 0.134 0.028 0.267 0.082 0.39 0.052 0.115 0.125 0.22 0.217 0.307 0.087 0.083 0.189 0.149 0.3 0.194 0.104 0.042 0.215 0.066 0.327 0.07 0.093 4e-3 0.186-6e-3 0.276-0.029 0.213-0.055 0.403-0.183 0.533-0.36 0.055-0.074 0.099-0.156 0.131-0.242 0.038-0.106 0.058-0.218 0.058-0.33v-3.538z" fill="#434895"/>
        </g>
    </g>
</svg>
