<?xml version="1.0" encoding="UTF-8"?>
<!DOCTYPE svg  PUBLIC '-//W3C//DTD SVG 1.1//EN'  'http://www.w3.org/Graphics/SVG/1.1/DTD/svg11.dtd'>
<svg clip-rule="evenodd" fill-rule="evenodd" stroke-linecap="round" stroke-miterlimit="2" version="1.1" viewBox="0 0 32 32" xml:space="preserve" xmlns="http://www.w3.org/2000/svg" xmlns:serif="http://www.serif.com/">
<metadata>
<rdf:RDF xmlns:cc="http://web.resource.org/cc/" xmlns:dc="http://purl.org/dc/elements/1.1/" xmlns:rdf="http://www.w3.org/1999/02/22-rdf-syntax-ns#">

     <rdf:Description rdf:about="">
       <dc:title>Mutant Standard emoji 2023.12</dc:title>
     </rdf:Description>

    <cc:work rdf:about="">
        <cc:license rdf:resource="http://creativecommons.org/licenses/by-nc-sa/4.0/"/>
        <cc:attributionName>Caius Nocturne</cc:attributionName>
        <cc:attributionURL>http://mutant.tech/</cc:attributionURL>
    </cc:work>

</rdf:RDF>
</metadata>

    <rect id="muscle--paw-" width="32" height="32" fill="none" serif:id="muscle [paw]"/>
    <clipPath id="_clip1">
        <rect width="32" height="32"/>
    </clipPath>
    <g clip-path="url(#_clip1)">
        <g id="outline">
            <path d="m15.489 16.34c2.765-1.119 5.851-1.391 8.85-0.699 3.115 0.719 6.111 1.41 6.111 1.41 0.907 0.21 1.55 1.018 1.55 1.949v8c0 0.834-0.517 1.58-1.298 1.873 0 0-1.424 0.534-3.07 1.151-3.485 1.307-7.175 1.976-10.897 1.976-5.417 0-10.74-1.414-15.443-4.101-0.181-0.104-0.284-0.163-0.284-0.163-0.623-0.356-1.008-1.018-1.008-1.736v-4.103c0-3.566 0.967-7.066 2.799-10.126l3.261-5.449c0.772-1.289 1.899-2.328 3.246-2.992 1.38-0.68 3.46-1.705 5.268-2.596 3.017-1.486 6.669-0.382 8.357 2.527 0.387 0.667 0.789 1.361 1.17 2.017 0.761 1.312 0.943 2.882 0.501 4.333s-1.467 2.653-2.831 3.318c-0.067 0.033-0.134 0.065-0.2 0.097-1.542 0.753-3.375 0.58-4.75-0.448l-0.202-0.151-1.373 0.686-0.071 0.32c-0.087 0.388-0.091 0.79-0.013 1.18 0.072 0.36 0.157 0.785 0.245 1.222 0.033 0.168 0.061 0.336 0.082 0.505z"/>
        </g>
        <g id="emoji">
            <path d="m22.725 7.138-0.142 0.272-5.083 2.782-0.672-0.106-0.943 0.472-0.665-0.058-0.23 0.505-0.925 0.463-1.565 0.532 0.669 1.277c-0.093 0.573-0.082 1.158 0.032 1.728 0.072 0.36 0.157 0.785 0.244 1.222 0.126 0.628 0.135 1.264 0.035 1.878l-2.175 3.237 0.535 0.39 4.369-3.527c2.399-0.977 5.078-1.216 7.68-0.615 3.115 0.719 6.111 1.41 6.111 1.41v8s-1.424 0.534-3.071 1.152c-3.259 1.222-6.712 1.848-10.194 1.848-5.069 0-10.05-1.323-14.451-3.838-0.181-0.103-0.284-0.162-0.284-0.162v-4.103c0-3.205 0.869-6.349 2.515-9.099 1.147-1.917 2.432-4.063 3.261-5.449 0.574-0.959 1.412-1.731 2.415-2.225 1.379-0.68 3.459-1.705 5.267-2.596 2.073-1.021 4.583-0.262 5.743 1.737 0.387 0.667 0.789 1.361 1.17 2.017 0.157 0.271 0.275 0.559 0.354 0.856zm0.109 1.063c-0.015 0.278-0.063 0.556-0.145 0.827-0.28 0.92-0.93 1.682-1.795 2.103-0.067 0.033-0.134 0.066-0.199 0.098-0.869 0.423-1.902 0.326-2.676-0.253l-0.295-0.22 0.061-0.571 4.715-2.473 0.334 0.489z" fill="#A3A9FF"/>
            <path d="m14.009 9.042 0.894-0.447 0.982 1.963-0.895 0.447-0.981-1.963zm2.819 1.044 0.668-0.334-0.982-1.962c0.299-0.149 0.597-0.298 0.895-0.448l0.981 1.963 1.611-0.806-0.981-1.962 0.894-0.447 0.982 1.962 1.829-0.914c0.091 0.346 0.128 0.705 0.109 1.063l-5.11 2.555-0.896-0.67z" fill="#343394"/>
            <path d="m13.48 18.105c-0.174 1.082-0.683 2.098-1.48 2.895l1e-3 -1e-3c1.221-1.221 2.656-2.162 4.208-2.794l-4.003 4.003c-0.39 0.39-1.022 0.39-1.412 0-1e-3 0-1e-3 -1e-3 -1e-3 -1e-3 -0.188-0.187-0.293-0.442-0.293-0.707s0.105-0.52 0.293-0.707l2.687-2.688zm-0.311-4.828-2.486-0.829c-0.251-0.083-0.459-0.264-0.578-0.501-0.118-0.237-0.138-0.511-0.054-0.762 0-1e-3 0-2e-3 1e-3 -2e-3 0.083-0.252 0.264-0.459 0.501-0.578 0.237-0.118 0.511-0.138 0.762-0.054l2.75 0.917-0.33 0.164c-0.149 0.075-0.256 0.212-0.292 0.375-0.054 0.244-0.139 0.627-0.221 0.992-0.02 0.093-0.038 0.185-0.053 0.278z" fill="#8484F6"/>
            <path d="m15.5 24.5c2.728 1.273 5.868 1.329 8.639 0.153 0.225-0.095 0.361-0.153 0.361-0.153" fill="none" stroke="#8484F6" stroke-width="2px"/>
        </g>
    </g>
</svg>
