<?xml version="1.0" encoding="UTF-8"?>
<!DOCTYPE svg  PUBLIC '-//W3C//DTD SVG 1.1//EN'  'http://www.w3.org/Graphics/SVG/1.1/DTD/svg11.dtd'>
<svg clip-rule="evenodd" fill-rule="evenodd" stroke-linejoin="round" stroke-miterlimit="1.4142" version="1.1" viewBox="0 0 32 32" xml:space="preserve" xmlns="http://www.w3.org/2000/svg" xmlns:serif="http://www.serif.com/">
<metadata>
<rdf:RDF xmlns:cc="http://web.resource.org/cc/" xmlns:dc="http://purl.org/dc/elements/1.1/" xmlns:rdf="http://www.w3.org/1999/02/22-rdf-syntax-ns#">

     <rdf:Description rdf:about="">
       <dc:title>Mutant Standard emoji 2023.12</dc:title>
     </rdf:Description>

    <cc:work rdf:about="">
        <cc:license rdf:resource="http://creativecommons.org/licenses/by-nc-sa/4.0/"/>
        <cc:attributionName>Caius Nocturne</cc:attributionName>
        <cc:attributionURL>http://mutant.tech/</cc:attributionURL>
    </cc:work>

</rdf:RDF>
</metadata>

    <rect id="open_hands--paw-" width="32" height="32" fill="none" serif:id="open_hands [paw]"/>
    <g id="Layer11">
        <path d="m6.891 15.526-2.845-2.844-0.042-0.044-0.04-0.046-0.037-0.049-0.034-0.05-0.033-0.052-0.029-0.053-0.026-0.055-0.024-0.056-0.021-0.057-0.017-0.058-0.015-0.06-0.012-0.059-8e-3 -0.061-6e-3 -0.06-2e-3 -0.061v-0.061l4e-3 -0.061 7e-3 -0.06 0.01-0.06 0.014-0.06 0.016-0.059 0.019-0.057 0.022-0.057 0.026-0.055 0.028-0.054 0.03-0.053 0.034-0.051 0.036-0.049 0.038-0.047 0.041-0.046 0.043-0.043 0.045-0.04 0.047-0.039 0.05-0.036 0.05-0.033 0.053-0.031 0.054-0.028 0.056-0.025 0.056-0.022 0.058-0.02 0.059-0.016 0.059-0.013 0.06-0.01 0.06-7e-3 0.061-4e-3 0.061-1e-3 0.061 3e-3 0.061 5e-3 0.06 8e-3 0.06 0.012 0.059 0.015 0.058 0.018 0.058 0.02 0.056 0.024 0.055 0.027 0.053 0.029 0.052 0.032 0.05 0.035 0.048 0.037 0.046 0.039 0.044 0.042 2.845 2.845 0.058-0.058-1.783-2.971-0.029-0.05-0.026-0.052-0.024-0.053-0.02-0.055-0.018-0.055-0.016-0.055-0.013-0.057-0.01-0.057-7e-3 -0.058-4e-3 -0.058-2e-3 -0.058 1e-3 -0.058 5e-3 -0.058 7e-3 -0.057 0.01-0.058 0.013-0.056 0.015-0.056 0.018-0.055 0.021-0.054 0.024-0.053 0.026-0.052 0.028-0.051 0.031-0.049 0.034-0.047 0.035-0.046 0.038-0.044 0.04-0.042 0.042-0.04 0.044-0.038 0.046-0.036 0.048-0.033 0.048-0.031 0.051-0.029 0.052-0.026 0.053-0.024 0.054-0.021 0.055-0.018 0.056-0.015 0.057-0.013 0.057-0.01 0.057-7e-3 0.058-4e-3 0.058-2e-3 0.058 1e-3 0.058 5e-3 0.058 7e-3 0.057 0.01 0.057 0.012 0.055 0.016 0.056 0.018 0.054 0.021 0.053 0.024 0.052 0.025 0.05 0.029 0.049 0.031 0.048 0.033 0.046 0.036 0.044 0.038 0.042 0.04 0.04 0.042 0.038 0.044 0.036 0.046 0.033 0.047 0.031 0.049 2.877 4.795 0.417 0.418v-1.972l1e-3 -0.053 3e-3 -0.054 5e-3 -0.054 7e-3 -0.053 0.01-0.053 0.011-0.052 0.012-0.053 0.032-0.102 0.04-0.1 0.023-0.048 0.024-0.049 0.027-0.046 0.028-0.046 0.029-0.045 0.032-0.044 0.033-0.042 0.034-0.04 0.037-0.041 0.037-0.038 0.039-0.037 0.041-0.035 0.041-0.034 0.043-0.032 0.044-0.031 0.092-0.056 0.048-0.025 0.048-0.024 0.049-0.021 0.05-0.02 0.051-0.018 0.05-0.016 0.053-0.014 0.052-0.012 0.053-0.01 0.052-8e-3 0.054-6e-3 0.054-4e-3 0.053-3e-3h0.054l0.054 3e-3 0.053 4e-3 0.054 6e-3 0.053 8e-3 0.052 0.01 0.053 0.012 0.052 0.014 0.051 0.016 0.051 0.018 0.049 0.02 0.05 0.021 0.048 0.024 0.047 0.025 0.092 0.056 0.044 0.031 0.043 0.032 0.042 0.034 0.04 0.035 0.039 0.037 0.038 0.038 0.036 0.041 0.035 0.04 0.032 0.042 0.032 0.044 0.03 0.045 0.028 0.046 0.026 0.047 0.025 0.048 0.022 0.048 0.021 0.05 0.019 0.05 0.017 0.051 0.015 0.051 0.013 0.053 0.011 0.052 9e-3 0.053 7e-3 0.053 5e-3 0.054 3e-3 0.054 1e-3 0.053v4.005 0.054l-1e-3 0.058-4e-3 0.116-8e-3 0.116-4e-3 0.057-6e-3 0.058-6e-3 0.057-6e-3 0.058-0.016 0.114-0.018 0.114-0.011 0.056-0.011 0.057-0.011 0.056-0.012 0.056-0.013 0.055-0.028 0.112-0.016 0.055-0.015 0.055-0.016 0.055-0.017 0.055-0.018 0.055-0.018 0.053-0.019 0.055-0.02 0.053-0.041 0.107-0.021 0.053-0.023 0.052-0.023 0.053-0.023 0.052-0.024 0.052-0.025 0.052-0.026 0.051-0.025 0.051-0.027 0.05-0.027 0.051-0.028 0.05-0.028 0.049-0.03 0.05-0.029 0.049-0.031 0.048-0.031 0.049-0.031 0.048-0.032 0.047-0.033 0.048-4e-3 5e-3 -0.017 0.034-0.028 0.052-0.032 0.051-0.034 0.049-0.037 0.048-0.039 0.045-0.041 0.044-0.198 0.197-9e-3 0.01-0.041 0.042-0.038 0.039-0.048 0.047-0.038 0.038-0.012 0.01-0.335 0.335-0.037 0.036-0.037 0.035-0.037 0.034-0.038 0.035-0.038 0.033-0.039 0.034-0.077 0.066-0.039 0.031-0.04 0.032-0.08 0.062-0.04 0.03-0.041 0.03-0.082 0.058-0.042 0.028-0.041 0.028-0.084 0.055-0.042 0.026-0.086 0.052-0.043 0.025-0.086 0.048-0.044 0.024-0.088 0.046-0.044 0.022-0.045 0.022-0.044 0.021-0.045 0.021-0.09 0.04-0.046 0.019-0.045 0.019-0.045 0.018-0.047 0.018-0.046 0.018-0.046 0.017-0.138 0.048-0.094 0.029-0.094 0.028-0.047 0.013-0.047 0.012-0.048 0.012-0.047 0.012-0.048 0.011-0.047 0.011-0.096 0.02-0.048 9e-3 -0.048 8e-3 -0.048 9e-3 -0.049 7e-3 -0.048 8e-3 -0.048 6e-3 -0.048 7e-3 -0.049 5e-3 -0.097 0.01-0.049 4e-3 -0.048 4e-3 -0.098 6e-3 -0.097 4e-3 -0.05 1e-3 -0.048 2e-3h-0.098l-0.098-2e-3 -0.097-4e-3 -0.049-3e-3 -0.05-3e-3 -0.048-4e-3 -0.049-4e-3 -0.098-0.01-0.097-0.012-0.098-0.014-0.049-8e-3 -0.097-0.016-0.048-0.01-0.097-0.02-0.049-0.011-0.048-0.011-0.096-0.024-0.096-0.026-0.048-0.014-0.047-0.014-0.048-0.015-0.047-0.015-0.048-0.016-0.141-0.051-0.047-0.018-0.047-0.019-0.093-0.038-0.047-0.02-0.046-0.02-0.046-0.022-0.092-0.043-0.045-0.023-0.091-0.046-0.045-0.025-0.044-0.024-0.045-0.025-0.044-0.026-0.042-0.025-4.485-2.686-0.051-0.032-0.048-0.035-0.048-0.037-0.045-0.039-0.043-0.042-0.041-0.044-0.038-0.046-0.037-0.047-0.034-0.05-0.031-0.05-0.029-0.053-0.026-0.054-0.023-0.055-0.02-0.057-0.018-0.057-0.015-0.058-0.011-0.059-8e-3 -0.059-6e-3 -0.06-3e-3 -0.06 1e-3 -0.06 3e-3 -0.059 7e-3 -0.06 9e-3 -0.059 0.013-0.059 0.015-0.058 0.019-0.057 0.021-0.056 0.024-0.054 0.027-0.054 0.029-0.053 0.032-0.05 0.035-0.049 0.037-0.047 0.039-0.045 0.042-0.043 0.043-0.041 0.046-0.039 0.048-0.036 0.049-0.034 0.052-0.031 0.052-0.029 0.054-0.026 0.055-0.023 0.057-0.021 0.057-0.017 0.058-0.014 0.059-0.012 0.059-9e-3 0.06-6e-3 0.06-2e-3h0.06l0.059 4e-3 0.06 7e-3 0.059 9e-3 0.059 0.013 0.058 0.015 0.057 0.018 0.056 0.021 0.055 0.025 0.053 0.026 0.053 0.03 0.359 0.215-1.704-1.166-0.049-0.035-0.047-0.038-0.044-0.04-0.043-0.041-0.041-0.045-0.038-0.046-0.036-0.048-0.033-0.05-0.031-0.051-0.028-0.053-0.026-0.054-0.022-0.056-0.02-0.056-0.017-0.058-0.014-0.058-0.011-0.059-8e-3 -0.059-5e-3 -0.06-2e-3 -0.06 1e-3 -0.06 4e-3 -0.059 7e-3 -0.06 0.01-0.059 0.013-0.058 0.016-0.058 0.019-0.057 0.022-0.056 0.025-0.054 0.027-0.054 0.03-0.052 0.033-0.05 0.035-0.048 0.037-0.047 0.04-0.045 0.042-0.043 0.044-0.04 0.046-0.038 0.048-0.036 0.05-0.034 0.051-0.031 0.053-0.028 0.054-0.025 0.056-0.023 0.057-0.02 0.057-0.017 0.058-0.013 0.059-0.012 0.06-8e-3 0.059-4e-3 0.06-3e-3 0.06 1e-3 0.06 5e-3 0.059 7e-3 0.06 0.01 0.058 0.013 0.058 0.016 0.057 0.018 0.055 0.023 0.055 0.024 0.053 0.027 0.052 0.03 0.05 0.033 2.765 1.892 0.028-0.028z" fill="none" stroke="#000" stroke-width="4px"/>
        <path d="m25.109 15.526 2.845-2.844 0.042-0.044 0.04-0.046 0.037-0.049 0.034-0.05 0.033-0.052 0.029-0.053 0.026-0.055 0.024-0.056 0.021-0.057 0.017-0.058 0.015-0.06 0.012-0.059 8e-3 -0.061 6e-3 -0.06 2e-3 -0.061v-0.061l-4e-3 -0.061-7e-3 -0.06-0.01-0.06-0.014-0.06-0.016-0.059-0.019-0.057-0.022-0.057-0.026-0.055-0.028-0.054-0.03-0.053-0.034-0.051-0.036-0.049-0.038-0.047-0.041-0.046-0.043-0.043-0.045-0.04-0.047-0.039-0.05-0.036-0.05-0.033-0.053-0.031-0.054-0.028-0.056-0.025-0.056-0.022-0.058-0.02-0.059-0.016-0.059-0.013-0.06-0.01-0.06-7e-3 -0.061-4e-3 -0.061-1e-3 -0.061 3e-3 -0.061 5e-3 -0.06 8e-3 -0.06 0.012-0.059 0.015-0.058 0.018-0.058 0.02-0.056 0.024-0.055 0.027-0.053 0.029-0.052 0.032-0.05 0.035-0.048 0.037-0.046 0.039-0.044 0.042-2.845 2.845-0.058-0.058 1.783-2.971 0.029-0.05 0.026-0.052 0.024-0.053 0.02-0.055 0.018-0.055 0.016-0.055 0.013-0.057 0.01-0.057 7e-3 -0.058 4e-3 -0.058 2e-3 -0.058-1e-3 -0.058-5e-3 -0.058-7e-3 -0.057-0.01-0.058-0.013-0.056-0.015-0.056-0.018-0.055-0.021-0.054-0.024-0.053-0.026-0.052-0.028-0.051-0.031-0.049-0.034-0.047-0.035-0.046-0.038-0.044-0.04-0.042-0.042-0.04-0.044-0.038-0.046-0.036-0.048-0.033-0.048-0.031-0.051-0.029-0.052-0.026-0.053-0.024-0.054-0.021-0.055-0.018-0.056-0.015-0.057-0.013-0.057-0.01-0.057-7e-3 -0.058-4e-3 -0.058-2e-3 -0.058 1e-3 -0.058 5e-3 -0.058 7e-3 -0.057 0.01-0.057 0.012-0.055 0.016-0.056 0.018-0.054 0.021-0.053 0.024-0.052 0.025-0.05 0.029-0.049 0.031-0.048 0.033-0.046 0.036-0.044 0.038-0.042 0.04-0.04 0.042-0.038 0.044-0.036 0.046-0.033 0.047-0.031 0.049-2.877 4.795-0.417 0.418v-1.972l-1e-3 -0.053-3e-3 -0.054-5e-3 -0.054-7e-3 -0.053-0.01-0.053-0.011-0.052-0.012-0.053-0.032-0.102-0.04-0.1-0.023-0.048-0.024-0.049-0.027-0.046-0.028-0.046-0.029-0.045-0.032-0.044-0.033-0.042-0.034-0.04-0.037-0.041-0.037-0.038-0.039-0.037-0.041-0.035-0.041-0.034-0.043-0.032-0.044-0.031-0.092-0.056-0.048-0.025-0.048-0.024-0.049-0.021-0.05-0.02-0.051-0.018-0.05-0.016-0.053-0.014-0.052-0.012-0.053-0.01-0.052-8e-3 -0.054-6e-3 -0.054-4e-3 -0.053-3e-3h-0.054l-0.054 3e-3 -0.053 4e-3 -0.054 6e-3 -0.053 8e-3 -0.052 0.01-0.053 0.012-0.052 0.014-0.051 0.016-0.051 0.018-0.049 0.02-0.05 0.021-0.048 0.024-0.047 0.025-0.092 0.056-0.044 0.031-0.043 0.032-0.042 0.034-0.04 0.035-0.039 0.037-0.038 0.038-0.036 0.041-0.035 0.04-0.032 0.042-0.032 0.044-0.03 0.045-0.028 0.046-0.026 0.047-0.025 0.048-0.022 0.048-0.021 0.05-0.019 0.05-0.017 0.051-0.015 0.051-0.013 0.053-0.011 0.052-9e-3 0.053-7e-3 0.053-5e-3 0.054-3e-3 0.054-1e-3 0.053v4.005 0.054l1e-3 0.058 4e-3 0.116 8e-3 0.116 4e-3 0.057 6e-3 0.058 6e-3 0.057 6e-3 0.058 0.016 0.114 0.018 0.114 0.011 0.056 0.011 0.057 0.011 0.056 0.012 0.056 0.013 0.055 0.028 0.112 0.016 0.055 0.015 0.055 0.016 0.055 0.017 0.055 0.018 0.055 0.018 0.053 0.019 0.055 0.02 0.053 0.041 0.107 0.021 0.053 0.023 0.052 0.023 0.053 0.023 0.052 0.024 0.052 0.025 0.052 0.026 0.051 0.025 0.051 0.027 0.05 0.027 0.051 0.028 0.05 0.028 0.049 0.03 0.05 0.029 0.049 0.031 0.048 0.031 0.049 0.031 0.048 0.032 0.047 0.033 0.048 4e-3 5e-3 0.017 0.034 0.028 0.052 0.032 0.051 0.034 0.049 0.037 0.048 0.039 0.045 0.041 0.044 0.198 0.197 9e-3 0.01 0.041 0.042 0.038 0.039 0.048 0.047 0.038 0.038 0.012 0.01 0.335 0.335 0.037 0.036 0.037 0.035 0.037 0.034 0.038 0.035 0.038 0.033 0.039 0.034 0.077 0.066 0.039 0.031 0.04 0.032 0.08 0.062 0.04 0.03 0.041 0.03 0.082 0.058 0.042 0.028 0.041 0.028 0.084 0.055 0.042 0.026 0.086 0.052 0.043 0.025 0.086 0.048 0.044 0.024 0.088 0.046 0.044 0.022 0.045 0.022 0.044 0.021 0.045 0.021 0.09 0.04 0.046 0.019 0.045 0.019 0.045 0.018 0.047 0.018 0.046 0.018 0.046 0.017 0.138 0.048 0.094 0.029 0.094 0.028 0.047 0.013 0.047 0.012 0.048 0.012 0.047 0.012 0.048 0.011 0.047 0.011 0.096 0.02 0.048 9e-3 0.048 8e-3 0.048 9e-3 0.049 7e-3 0.048 8e-3 0.048 6e-3 0.048 7e-3 0.049 5e-3 0.097 0.01 0.049 4e-3 0.048 4e-3 0.098 6e-3 0.097 4e-3 0.05 1e-3 0.048 2e-3h0.098l0.098-2e-3 0.097-4e-3 0.049-3e-3 0.05-3e-3 0.048-4e-3 0.049-4e-3 0.098-0.01 0.097-0.012 0.098-0.014 0.049-8e-3 0.097-0.016 0.048-0.01 0.097-0.02 0.049-0.011 0.048-0.011 0.096-0.024 0.096-0.026 0.048-0.014 0.047-0.014 0.048-0.015 0.047-0.015 0.048-0.016 0.141-0.051 0.047-0.018 0.047-0.019 0.093-0.038 0.047-0.02 0.046-0.02 0.046-0.022 0.092-0.043 0.045-0.023 0.091-0.046 0.045-0.025 0.044-0.024 0.045-0.025 0.044-0.026 0.042-0.025 4.485-2.686 0.051-0.032 0.048-0.035 0.048-0.037 0.045-0.039 0.043-0.042 0.041-0.044 0.038-0.046 0.037-0.047 0.034-0.05 0.031-0.05 0.029-0.053 0.026-0.054 0.023-0.055 0.02-0.057 0.018-0.057 0.015-0.058 0.011-0.059 8e-3 -0.059 6e-3 -0.06 3e-3 -0.06-1e-3 -0.06-3e-3 -0.059-7e-3 -0.06-9e-3 -0.059-0.013-0.059-0.015-0.058-0.019-0.057-0.021-0.056-0.024-0.054-0.027-0.054-0.029-0.053-0.032-0.05-0.035-0.049-0.037-0.047-0.039-0.045-0.042-0.043-0.043-0.041-0.046-0.039-0.048-0.036-0.049-0.034-0.052-0.031-0.052-0.029-0.054-0.026-0.055-0.023-0.057-0.021-0.057-0.017-0.058-0.014-0.059-0.012-0.059-9e-3 -0.06-6e-3 -0.06-2e-3h-0.06l-0.059 4e-3 -0.06 7e-3 -0.059 9e-3 -0.059 0.013-0.058 0.015-0.057 0.018-0.056 0.021-0.055 0.025-0.053 0.026-0.053 0.03-0.359 0.215 1.704-1.166 0.049-0.035 0.047-0.038 0.044-0.04 0.043-0.041 0.041-0.045 0.038-0.046 0.036-0.048 0.033-0.05 0.031-0.051 0.028-0.053 0.026-0.054 0.022-0.056 0.02-0.056 0.017-0.058 0.014-0.058 0.011-0.059 8e-3 -0.059 5e-3 -0.06 2e-3 -0.06-1e-3 -0.06-4e-3 -0.059-7e-3 -0.06-0.01-0.059-0.013-0.058-0.016-0.058-0.019-0.057-0.022-0.056-0.025-0.054-0.027-0.054-0.03-0.052-0.033-0.05-0.035-0.048-0.037-0.047-0.04-0.045-0.042-0.043-0.044-0.04-0.046-0.038-0.048-0.036-0.05-0.034-0.051-0.031-0.053-0.028-0.054-0.025-0.056-0.023-0.057-0.02-0.057-0.017-0.058-0.013-0.059-0.012-0.06-8e-3 -0.059-4e-3 -0.06-3e-3 -0.06 1e-3 -0.06 5e-3 -0.059 7e-3 -0.06 0.01-0.058 0.013-0.058 0.016-0.057 0.018-0.055 0.023-0.055 0.024-0.053 0.027-0.052 0.03-0.05 0.033-2.765 1.892-0.028-0.028z" fill="none" stroke="#000" stroke-width="4px"/>
        
            <path d="m6.891 15.526-2.845-2.844-0.042-0.044-0.04-0.046-0.037-0.049-0.034-0.05-0.033-0.052-0.029-0.053-0.026-0.055-0.024-0.056-0.021-0.057-0.017-0.058-0.015-0.06-0.012-0.059-8e-3 -0.061-6e-3 -0.06-2e-3 -0.061v-0.061l4e-3 -0.061 7e-3 -0.06 0.01-0.06 0.014-0.06 0.016-0.059 0.019-0.057 0.022-0.057 0.026-0.055 0.028-0.054 0.03-0.053 0.034-0.051 0.036-0.049 0.038-0.047 0.041-0.046 0.043-0.043 0.045-0.04 0.047-0.039 0.05-0.036 0.05-0.033 0.053-0.031 0.054-0.028 0.056-0.025 0.056-0.022 0.058-0.02 0.059-0.016 0.059-0.013 0.06-0.01 0.06-7e-3 0.061-4e-3 0.061-1e-3 0.061 3e-3 0.061 5e-3 0.06 8e-3 0.06 0.012 0.059 0.015 0.058 0.018 0.058 0.02 0.056 0.024 0.055 0.027 0.053 0.029 0.052 0.032 0.05 0.035 0.048 0.037 0.046 0.039 0.044 0.042 2.845 2.845 0.058-0.058-1.783-2.971-0.029-0.05-0.026-0.052-0.024-0.053-0.02-0.055-0.018-0.055-0.016-0.055-0.013-0.057-0.01-0.057-7e-3 -0.058-4e-3 -0.058-2e-3 -0.058 1e-3 -0.058 5e-3 -0.058 7e-3 -0.057 0.01-0.058 0.013-0.056 0.015-0.056 0.018-0.055 0.021-0.054 0.024-0.053 0.026-0.052 0.028-0.051 0.031-0.049 0.034-0.047 0.035-0.046 0.038-0.044 0.04-0.042 0.042-0.04 0.044-0.038 0.046-0.036 0.048-0.033 0.048-0.031 0.051-0.029 0.052-0.026 0.053-0.024 0.054-0.021 0.055-0.018 0.056-0.015 0.057-0.013 0.057-0.01 0.057-7e-3 0.058-4e-3 0.058-2e-3 0.058 1e-3 0.058 5e-3 0.058 7e-3 0.057 0.01 0.057 0.012 0.055 0.016 0.056 0.018 0.054 0.021 0.053 0.024 0.052 0.025 0.05 0.029 0.049 0.031 0.048 0.033 0.046 0.036 0.044 0.038 0.042 0.04 0.04 0.042 0.038 0.044 0.036 0.046 0.033 0.047 0.031 0.049 2.877 4.795 0.417 0.418v-1.972l1e-3 -0.053 3e-3 -0.054 5e-3 -0.054 7e-3 -0.053 0.01-0.053 0.011-0.052 0.012-0.053 0.032-0.102 0.04-0.1 0.023-0.048 0.024-0.049 0.027-0.046 0.028-0.046 0.029-0.045 0.032-0.044 0.033-0.042 0.034-0.04 0.037-0.041 0.037-0.038 0.039-0.037 0.041-0.035 0.041-0.034 0.043-0.032 0.044-0.031 0.092-0.056 0.048-0.025 0.048-0.024 0.049-0.021 0.05-0.02 0.051-0.018 0.05-0.016 0.053-0.014 0.052-0.012 0.053-0.01 0.052-8e-3 0.054-6e-3 0.054-4e-3 0.053-3e-3h0.054l0.054 3e-3 0.053 4e-3 0.054 6e-3 0.053 8e-3 0.052 0.01 0.053 0.012 0.052 0.014 0.051 0.016 0.051 0.018 0.049 0.02 0.05 0.021 0.048 0.024 0.047 0.025 0.092 0.056 0.044 0.031 0.043 0.032 0.042 0.034 0.04 0.035 0.039 0.037 0.038 0.038 0.036 0.041 0.035 0.04 0.032 0.042 0.032 0.044 0.03 0.045 0.028 0.046 0.026 0.047 0.025 0.048 0.022 0.048 0.021 0.05 0.019 0.05 0.017 0.051 0.015 0.051 0.013 0.053 0.011 0.052 9e-3 0.053 7e-3 0.053 5e-3 0.054 3e-3 0.054 1e-3 0.053v4.005 0.054l-1e-3 0.058-4e-3 0.116-8e-3 0.116-4e-3 0.057-6e-3 0.058-6e-3 0.057-6e-3 0.058-0.016 0.114-0.018 0.114-0.011 0.056-0.011 0.057-0.011 0.056-0.012 0.056-0.013 0.055-0.028 0.112-0.016 0.055-0.015 0.055-0.016 0.055-0.017 0.055-0.018 0.055-0.018 0.053-0.019 0.055-0.02 0.053-0.041 0.107-0.021 0.053-0.023 0.052-0.023 0.053-0.023 0.052-0.024 0.052-0.025 0.052-0.026 0.051-0.025 0.051-0.027 0.05-0.027 0.051-0.028 0.05-0.028 0.049-0.03 0.05-0.029 0.049-0.031 0.048-0.031 0.049-0.031 0.048-0.032 0.047-0.033 0.048-4e-3 5e-3 -0.017 0.034-0.028 0.052-0.032 0.051-0.034 0.049-0.037 0.048-0.039 0.045-0.041 0.044-0.198 0.197-9e-3 0.01-0.041 0.042-0.038 0.039-0.048 0.047-0.038 0.038-0.012 0.01-0.335 0.335-0.037 0.036-0.037 0.035-0.037 0.034-0.038 0.035-0.038 0.033-0.039 0.034-0.077 0.066-0.039 0.031-0.04 0.032-0.08 0.062-0.04 0.03-0.041 0.03-0.082 0.058-0.042 0.028-0.041 0.028-0.084 0.055-0.042 0.026-0.086 0.052-0.043 0.025-0.086 0.048-0.044 0.024-0.088 0.046-0.044 0.022-0.045 0.022-0.044 0.021-0.045 0.021-0.09 0.04-0.046 0.019-0.045 0.019-0.045 0.018-0.047 0.018-0.046 0.018-0.046 0.017-0.138 0.048-0.094 0.029-0.094 0.028-0.047 0.013-0.047 0.012-0.048 0.012-0.047 0.012-0.048 0.011-0.047 0.011-0.096 0.02-0.048 9e-3 -0.048 8e-3 -0.048 9e-3 -0.049 7e-3 -0.048 8e-3 -0.048 6e-3 -0.048 7e-3 -0.049 5e-3 -0.097 0.01-0.049 4e-3 -0.048 4e-3 -0.098 6e-3 -0.097 4e-3 -0.05 1e-3 -0.048 2e-3h-0.098l-0.098-2e-3 -0.097-4e-3 -0.049-3e-3 -0.05-3e-3 -0.048-4e-3 -0.049-4e-3 -0.098-0.01-0.097-0.012-0.098-0.014-0.049-8e-3 -0.097-0.016-0.048-0.01-0.097-0.02-0.049-0.011-0.048-0.011-0.096-0.024-0.096-0.026-0.048-0.014-0.047-0.014-0.048-0.015-0.047-0.015-0.048-0.016-0.141-0.051-0.047-0.018-0.047-0.019-0.093-0.038-0.047-0.02-0.046-0.02-0.046-0.022-0.092-0.043-0.045-0.023-0.091-0.046-0.045-0.025-0.044-0.024-0.045-0.025-0.044-0.026-0.042-0.025-4.485-2.686-0.051-0.032-0.048-0.035-0.048-0.037-0.045-0.039-0.043-0.042-0.041-0.044-0.038-0.046-0.037-0.047-0.034-0.05-0.031-0.05-0.029-0.053-0.026-0.054-0.023-0.055-0.02-0.057-0.018-0.057-0.015-0.058-0.011-0.059-8e-3 -0.059-6e-3 -0.06-3e-3 -0.06 1e-3 -0.06 3e-3 -0.059 7e-3 -0.06 9e-3 -0.059 0.013-0.059 0.015-0.058 0.019-0.057 0.021-0.056 0.024-0.054 0.027-0.054 0.029-0.053 0.032-0.05 0.035-0.049 0.037-0.047 0.039-0.045 0.042-0.043 0.043-0.041 0.046-0.039 0.048-0.036 0.049-0.034 0.052-0.031 0.052-0.029 0.054-0.026 0.055-0.023 0.057-0.021 0.057-0.017 0.058-0.014 0.059-0.012 0.059-9e-3 0.06-6e-3 0.06-2e-3h0.06l0.059 4e-3 0.06 7e-3 0.059 9e-3 0.059 0.013 0.058 0.015 0.057 0.018 0.056 0.021 0.055 0.025 0.053 0.026 0.053 0.03 0.359 0.215-1.704-1.166-0.049-0.035-0.047-0.038-0.044-0.04-0.043-0.041-0.041-0.045-0.038-0.046-0.036-0.048-0.033-0.05-0.031-0.051-0.028-0.053-0.026-0.054-0.022-0.056-0.02-0.056-0.017-0.058-0.014-0.058-0.011-0.059-8e-3 -0.059-5e-3 -0.06-2e-3 -0.06 1e-3 -0.06 4e-3 -0.059 7e-3 -0.06 0.01-0.059 0.013-0.058 0.016-0.058 0.019-0.057 0.022-0.056 0.025-0.054 0.027-0.054 0.03-0.052 0.033-0.05 0.035-0.048 0.037-0.047 0.04-0.045 0.042-0.043 0.044-0.04 0.046-0.038 0.048-0.036 0.05-0.034 0.051-0.031 0.053-0.028 0.054-0.025 0.056-0.023 0.057-0.02 0.057-0.017 0.058-0.013 0.059-0.012 0.06-8e-3 0.059-4e-3 0.06-3e-3 0.06 1e-3 0.06 5e-3 0.059 7e-3 0.06 0.01 0.058 0.013 0.058 0.016 0.057 0.018 0.055 0.023 0.055 0.024 0.053 0.027 0.052 0.03 0.05 0.033 2.765 1.892 0.028-0.028z" fill="#CBB39C"/>
            <path d="m1.873 15.192 4.098 2.927" fill="none" stroke="#000" stroke-linecap="round" stroke-linejoin="miter" stroke-miterlimit="1.5" stroke-width=".47px"/>
            <path d="m3.713 12.683 3.345 3.345" fill="none" stroke="#000" stroke-linecap="round" stroke-linejoin="miter" stroke-miterlimit="1.5" stroke-width=".47px"/>
            <path d="m5.72 10.676 3.178 3.178" fill="none" stroke="#000" stroke-linecap="round" stroke-linejoin="miter" stroke-miterlimit="1.5" stroke-width=".47px"/>
            <g fill="#89654D">
                <path d="m2.898 14.383c0.257-0.427 0.963-0.476 1.575-0.108 0.613 0.368 0.901 1.014 0.644 1.441-0.256 0.427-0.962 0.475-1.574 0.107-0.613-0.367-0.901-1.013-0.645-1.44z"/>
                <path d="m2.9 17.443c0.214-0.355 0.776-0.41 1.256-0.122 0.479 0.289 0.696 0.811 0.482 1.166-0.213 0.355-0.776 0.41-1.255 0.121-0.48-0.288-0.696-0.81-0.483-1.165z"/>
                <path d="m4.552 11.509c0.369-0.369 1.119-0.219 1.673 0.335 0.553 0.554 0.703 1.303 0.334 1.672-0.369 0.37-1.119 0.22-1.672-0.334-0.554-0.554-0.704-1.303-0.335-1.673z"/>
                <path d="m7.498 9.657c0.413-0.248 1.057 0.062 1.436 0.694 0.379 0.631 0.352 1.345-0.062 1.594-0.414 0.248-1.057-0.063-1.437-0.694-0.379-0.631-0.351-1.345 0.063-1.594z"/>
                <path d="m13.414 12.003c0.604 0 1.095 0.701 1.095 1.563s-0.491 1.563-1.095 1.563c-0.605 0-1.095-0.7-1.095-1.563s0.49-1.563 1.095-1.563z"/>
                <path d="m8.783 20.764c-0.355-0.355-0.554-0.836-0.554-1.339v-2.007c0-0.501 0.199-0.982 0.554-1.337s0.836-0.555 1.337-0.555h2.007c0.503 0 0.984 0.2 1.339 0.555l0.167 0.167c0.309 0.309 0.459 0.744 0.405 1.177-0.053 0.434-0.303 0.819-0.678 1.044-0.384 0.23-0.745 0.447-0.96 0.575-0.132 0.08-0.255 0.175-0.364 0.285-2e-3 1e-3 -4e-3 3e-3 -5e-3 5e-3 -0.11 0.109-0.205 0.231-0.285 0.364-0.128 0.215-0.345 0.576-0.575 0.96-0.225 0.375-0.61 0.625-1.044 0.678-0.433 0.054-0.868-0.096-1.177-0.405l-0.167-0.167z"/>
            </g>
        
        
            <path d="m25.109 15.526 2.845-2.844 0.042-0.044 0.04-0.046 0.037-0.049 0.034-0.05 0.033-0.052 0.029-0.053 0.026-0.055 0.024-0.056 0.021-0.057 0.017-0.058 0.015-0.06 0.012-0.059 8e-3 -0.061 6e-3 -0.06 2e-3 -0.061v-0.061l-4e-3 -0.061-7e-3 -0.06-0.01-0.06-0.014-0.06-0.016-0.059-0.019-0.057-0.022-0.057-0.026-0.055-0.028-0.054-0.03-0.053-0.034-0.051-0.036-0.049-0.038-0.047-0.041-0.046-0.043-0.043-0.045-0.04-0.047-0.039-0.05-0.036-0.05-0.033-0.053-0.031-0.054-0.028-0.056-0.025-0.056-0.022-0.058-0.02-0.059-0.016-0.059-0.013-0.06-0.01-0.06-7e-3 -0.061-4e-3 -0.061-1e-3 -0.061 3e-3 -0.061 5e-3 -0.06 8e-3 -0.06 0.012-0.059 0.015-0.058 0.018-0.058 0.02-0.056 0.024-0.055 0.027-0.053 0.029-0.052 0.032-0.05 0.035-0.048 0.037-0.046 0.039-0.044 0.042-2.845 2.845-0.058-0.058 1.783-2.971 0.029-0.05 0.026-0.052 0.024-0.053 0.02-0.055 0.018-0.055 0.016-0.055 0.013-0.057 0.01-0.057 7e-3 -0.058 4e-3 -0.058 2e-3 -0.058-1e-3 -0.058-5e-3 -0.058-7e-3 -0.057-0.01-0.058-0.013-0.056-0.015-0.056-0.018-0.055-0.021-0.054-0.024-0.053-0.026-0.052-0.028-0.051-0.031-0.049-0.034-0.047-0.035-0.046-0.038-0.044-0.04-0.042-0.042-0.04-0.044-0.038-0.046-0.036-0.048-0.033-0.048-0.031-0.051-0.029-0.052-0.026-0.053-0.024-0.054-0.021-0.055-0.018-0.056-0.015-0.057-0.013-0.057-0.01-0.057-7e-3 -0.058-4e-3 -0.058-2e-3 -0.058 1e-3 -0.058 5e-3 -0.058 7e-3 -0.057 0.01-0.057 0.012-0.055 0.016-0.056 0.018-0.054 0.021-0.053 0.024-0.052 0.025-0.05 0.029-0.049 0.031-0.048 0.033-0.046 0.036-0.044 0.038-0.042 0.04-0.04 0.042-0.038 0.044-0.036 0.046-0.033 0.047-0.031 0.049-2.877 4.795-0.417 0.418v-1.972l-1e-3 -0.053-3e-3 -0.054-5e-3 -0.054-7e-3 -0.053-0.01-0.053-0.011-0.052-0.012-0.053-0.032-0.102-0.04-0.1-0.023-0.048-0.024-0.049-0.027-0.046-0.028-0.046-0.029-0.045-0.032-0.044-0.033-0.042-0.034-0.04-0.037-0.041-0.037-0.038-0.039-0.037-0.041-0.035-0.041-0.034-0.043-0.032-0.044-0.031-0.092-0.056-0.048-0.025-0.048-0.024-0.049-0.021-0.05-0.02-0.051-0.018-0.05-0.016-0.053-0.014-0.052-0.012-0.053-0.01-0.052-8e-3 -0.054-6e-3 -0.054-4e-3 -0.053-3e-3h-0.054l-0.054 3e-3 -0.053 4e-3 -0.054 6e-3 -0.053 8e-3 -0.052 0.01-0.053 0.012-0.052 0.014-0.051 0.016-0.051 0.018-0.049 0.02-0.05 0.021-0.048 0.024-0.047 0.025-0.092 0.056-0.044 0.031-0.043 0.032-0.042 0.034-0.04 0.035-0.039 0.037-0.038 0.038-0.036 0.041-0.035 0.04-0.032 0.042-0.032 0.044-0.03 0.045-0.028 0.046-0.026 0.047-0.025 0.048-0.022 0.048-0.021 0.05-0.019 0.05-0.017 0.051-0.015 0.051-0.013 0.053-0.011 0.052-9e-3 0.053-7e-3 0.053-5e-3 0.054-3e-3 0.054-1e-3 0.053v4.005 0.054l1e-3 0.058 4e-3 0.116 8e-3 0.116 4e-3 0.057 6e-3 0.058 6e-3 0.057 6e-3 0.058 0.016 0.114 0.018 0.114 0.011 0.056 0.011 0.057 0.011 0.056 0.012 0.056 0.013 0.055 0.028 0.112 0.016 0.055 0.015 0.055 0.016 0.055 0.017 0.055 0.018 0.055 0.018 0.053 0.019 0.055 0.02 0.053 0.041 0.107 0.021 0.053 0.023 0.052 0.023 0.053 0.023 0.052 0.024 0.052 0.025 0.052 0.026 0.051 0.025 0.051 0.027 0.05 0.027 0.051 0.028 0.05 0.028 0.049 0.03 0.05 0.029 0.049 0.031 0.048 0.031 0.049 0.031 0.048 0.032 0.047 0.033 0.048 4e-3 5e-3 0.017 0.034 0.028 0.052 0.032 0.051 0.034 0.049 0.037 0.048 0.039 0.045 0.041 0.044 0.198 0.197 9e-3 0.01 0.041 0.042 0.038 0.039 0.048 0.047 0.038 0.038 0.012 0.01 0.335 0.335 0.037 0.036 0.037 0.035 0.037 0.034 0.038 0.035 0.038 0.033 0.039 0.034 0.077 0.066 0.039 0.031 0.04 0.032 0.08 0.062 0.04 0.03 0.041 0.03 0.082 0.058 0.042 0.028 0.041 0.028 0.084 0.055 0.042 0.026 0.086 0.052 0.043 0.025 0.086 0.048 0.044 0.024 0.088 0.046 0.044 0.022 0.045 0.022 0.044 0.021 0.045 0.021 0.09 0.04 0.046 0.019 0.045 0.019 0.045 0.018 0.047 0.018 0.046 0.018 0.046 0.017 0.138 0.048 0.094 0.029 0.094 0.028 0.047 0.013 0.047 0.012 0.048 0.012 0.047 0.012 0.048 0.011 0.047 0.011 0.096 0.02 0.048 9e-3 0.048 8e-3 0.048 9e-3 0.049 7e-3 0.048 8e-3 0.048 6e-3 0.048 7e-3 0.049 5e-3 0.097 0.01 0.049 4e-3 0.048 4e-3 0.098 6e-3 0.097 4e-3 0.05 1e-3 0.048 2e-3h0.098l0.098-2e-3 0.097-4e-3 0.049-3e-3 0.05-3e-3 0.048-4e-3 0.049-4e-3 0.098-0.01 0.097-0.012 0.098-0.014 0.049-8e-3 0.097-0.016 0.048-0.01 0.097-0.02 0.049-0.011 0.048-0.011 0.096-0.024 0.096-0.026 0.048-0.014 0.047-0.014 0.048-0.015 0.047-0.015 0.048-0.016 0.141-0.051 0.047-0.018 0.047-0.019 0.093-0.038 0.047-0.02 0.046-0.02 0.046-0.022 0.092-0.043 0.045-0.023 0.091-0.046 0.045-0.025 0.044-0.024 0.045-0.025 0.044-0.026 0.042-0.025 4.485-2.686 0.051-0.032 0.048-0.035 0.048-0.037 0.045-0.039 0.043-0.042 0.041-0.044 0.038-0.046 0.037-0.047 0.034-0.05 0.031-0.05 0.029-0.053 0.026-0.054 0.023-0.055 0.02-0.057 0.018-0.057 0.015-0.058 0.011-0.059 8e-3 -0.059 6e-3 -0.06 3e-3 -0.06-1e-3 -0.06-3e-3 -0.059-7e-3 -0.06-9e-3 -0.059-0.013-0.059-0.015-0.058-0.019-0.057-0.021-0.056-0.024-0.054-0.027-0.054-0.029-0.053-0.032-0.05-0.035-0.049-0.037-0.047-0.039-0.045-0.042-0.043-0.043-0.041-0.046-0.039-0.048-0.036-0.049-0.034-0.052-0.031-0.052-0.029-0.054-0.026-0.055-0.023-0.057-0.021-0.057-0.017-0.058-0.014-0.059-0.012-0.059-9e-3 -0.06-6e-3 -0.06-2e-3h-0.06l-0.059 4e-3 -0.06 7e-3 -0.059 9e-3 -0.059 0.013-0.058 0.015-0.057 0.018-0.056 0.021-0.055 0.025-0.053 0.026-0.053 0.03-0.359 0.215 1.704-1.166 0.049-0.035 0.047-0.038 0.044-0.04 0.043-0.041 0.041-0.045 0.038-0.046 0.036-0.048 0.033-0.05 0.031-0.051 0.028-0.053 0.026-0.054 0.022-0.056 0.02-0.056 0.017-0.058 0.014-0.058 0.011-0.059 8e-3 -0.059 5e-3 -0.06 2e-3 -0.06-1e-3 -0.06-4e-3 -0.059-7e-3 -0.06-0.01-0.059-0.013-0.058-0.016-0.058-0.019-0.057-0.022-0.056-0.025-0.054-0.027-0.054-0.03-0.052-0.033-0.05-0.035-0.048-0.037-0.047-0.04-0.045-0.042-0.043-0.044-0.04-0.046-0.038-0.048-0.036-0.05-0.034-0.051-0.031-0.053-0.028-0.054-0.025-0.056-0.023-0.057-0.02-0.057-0.017-0.058-0.013-0.059-0.012-0.06-8e-3 -0.059-4e-3 -0.06-3e-3 -0.06 1e-3 -0.06 5e-3 -0.059 7e-3 -0.06 0.01-0.058 0.013-0.058 0.016-0.057 0.018-0.055 0.023-0.055 0.024-0.053 0.027-0.052 0.03-0.05 0.033-2.765 1.892-0.028-0.028z" fill="#CBB39C"/>
            <path d="m30.127 15.192-4.098 2.927" fill="none" stroke="#000" stroke-linecap="round" stroke-linejoin="miter" stroke-miterlimit="1.5" stroke-width=".47px"/>
            <path d="m28.287 12.683-3.345 3.345" fill="none" stroke="#000" stroke-linecap="round" stroke-linejoin="miter" stroke-miterlimit="1.5" stroke-width=".47px"/>
            <path d="m26.28 10.676-3.178 3.178" fill="none" stroke="#000" stroke-linecap="round" stroke-linejoin="miter" stroke-miterlimit="1.5" stroke-width=".47px"/>
            <g fill="#89654D">
                <path d="m29.102 14.383c-0.257-0.427-0.963-0.476-1.575-0.108-0.613 0.368-0.901 1.014-0.644 1.441 0.256 0.427 0.962 0.475 1.574 0.107 0.613-0.367 0.901-1.013 0.645-1.44z"/>
                <path d="m29.1 17.443c-0.214-0.355-0.776-0.41-1.256-0.122-0.479 0.289-0.696 0.811-0.482 1.166 0.213 0.355 0.776 0.41 1.255 0.121 0.48-0.288 0.696-0.81 0.483-1.165z"/>
                <path d="m27.448 11.509c-0.369-0.369-1.119-0.219-1.673 0.335-0.553 0.554-0.703 1.303-0.334 1.672 0.369 0.37 1.119 0.22 1.672-0.334 0.554-0.554 0.704-1.303 0.335-1.673z"/>
                <path d="m24.502 9.657c-0.413-0.248-1.057 0.062-1.436 0.694-0.379 0.631-0.352 1.345 0.062 1.594 0.414 0.248 1.057-0.063 1.437-0.694 0.379-0.631 0.351-1.345-0.063-1.594z"/>
                <path d="m18.586 12.003c-0.604 0-1.095 0.701-1.095 1.563s0.491 1.563 1.095 1.563c0.605 0 1.095-0.7 1.095-1.563s-0.49-1.563-1.095-1.563z"/>
                <path d="m23.217 20.764c0.355-0.355 0.554-0.836 0.554-1.339v-2.007c0-0.501-0.199-0.982-0.554-1.337s-0.836-0.555-1.337-0.555h-2.007c-0.503 0-0.984 0.2-1.339 0.555l-0.167 0.167c-0.309 0.309-0.459 0.744-0.405 1.177 0.053 0.434 0.303 0.819 0.678 1.044 0.384 0.23 0.745 0.447 0.96 0.575 0.132 0.08 0.255 0.175 0.364 0.285 2e-3 1e-3 4e-3 3e-3 5e-3 5e-3 0.11 0.109 0.205 0.231 0.285 0.364 0.128 0.215 0.345 0.576 0.575 0.96 0.225 0.375 0.61 0.625 1.044 0.678 0.433 0.054 0.868-0.096 1.177-0.405l0.167-0.167z"/>
            </g>
        
    </g>
</svg>
