<?xml version="1.0" encoding="UTF-8"?>
<!DOCTYPE svg  PUBLIC '-//W3C//DTD SVG 1.1//EN'  'http://www.w3.org/Graphics/SVG/1.1/DTD/svg11.dtd'>
<svg clip-rule="evenodd" fill-rule="evenodd" stroke-linejoin="round" stroke-miterlimit="2" version="1.1" viewBox="0 0 32 32" xml:space="preserve" xmlns="http://www.w3.org/2000/svg" xmlns:serif="http://www.serif.com/">
<metadata>
<rdf:RDF xmlns:cc="http://web.resource.org/cc/" xmlns:dc="http://purl.org/dc/elements/1.1/" xmlns:rdf="http://www.w3.org/1999/02/22-rdf-syntax-ns#">

     <rdf:Description rdf:about="">
       <dc:title>Mutant Standard emoji 2023.12</dc:title>
     </rdf:Description>

    <cc:work rdf:about="">
        <cc:license rdf:resource="http://creativecommons.org/licenses/by-nc-sa/4.0/"/>
        <cc:attributionName>Caius Nocturne</cc:attributionName>
        <cc:attributionURL>http://mutant.tech/</cc:attributionURL>
    </cc:work>

</rdf:RDF>
</metadata>

    <rect id="palms_up--paw-" width="32" height="32" fill="none" serif:id="palms_up [paw]"/>
    <g id="outline">
        <path d="m16 11.827c0.373-0.361 0.837-0.634 1.365-0.78 0.361-1.123 1.337-1.999 2.582-2.171 0.381-0.053 0.755-0.036 1.11 0.042 0.578-0.624 1.405-1.015 2.323-1.015 0.91 0 1.732 0.385 2.31 1.002 0.423-0.114 0.877-0.142 1.337-0.066 1.725 0.286 2.893 1.917 2.608 3.642l-0.149 0.904c1.813 0.512 2.87 2.4 2.358 4.214 0 0-0.237 0.841-0.518 1.835-0.944 3.346-3.999 5.649-7.468 5.643v0.016h-0.508c-3.433 0-6.41-2.278-7.35-5.514-0.94 3.236-3.917 5.514-7.35 5.514h-0.508v-0.016c-3.469 6e-3 -6.524-2.297-7.468-5.643-0.281-0.994-0.518-1.835-0.518-1.835-0.512-1.814 0.545-3.702 2.358-4.214l-0.149-0.904c-0.285-1.725 0.883-3.356 2.608-3.642 0.46-0.076 0.914-0.048 1.337 0.066 0.578-0.617 1.4-1.002 2.31-1.002 0.918 0 1.745 0.391 2.323 1.015 0.355-0.078 0.729-0.095 1.11-0.042 1.245 0.172 2.221 1.048 2.582 2.171 0.528 0.146 0.992 0.419 1.365 0.78z"/>
    </g>
    <g id="emoji">
        <path d="m7.404 15.159h0.022v-4.089c1e-3 -0.15 0.028-0.298 0.083-0.438 0.135-0.343 0.43-0.611 0.785-0.711 0.126-0.036 0.257-0.051 0.388-0.044 0.134 7e-3 0.266 0.036 0.39 0.087 0.138 0.056 0.265 0.138 0.373 0.241 0.111 0.106 0.201 0.233 0.264 0.373 0.07 0.155 0.105 0.322 0.106 0.492v4.089h0.021v0.383c1e-3 0.032 7e-3 0.064 0.019 0.093 0.039 0.092 0.133 0.151 0.233 0.146 0.027-2e-3 0.055-8e-3 0.08-0.019 0.027-0.011 0.051-0.027 0.072-0.047 0.022-0.021 0.041-0.046 0.053-0.074 0.014-0.032 0.021-0.065 0.021-0.099v-2.817l0.121-0.876c0.091-0.653 0.694-1.11 1.347-1.02 0.653 0.091 1.11 0.694 1.02 1.347l-0.14 1.01-0.519 3.022c-5e-3 0.031-4e-3 0.063 3e-3 0.094 0.023 0.097 0.106 0.172 0.205 0.183 0.027 4e-3 0.055 2e-3 0.082-4e-3 0.028-7e-3 0.055-0.018 0.079-0.035 0.026-0.017 0.048-0.039 0.065-0.064 0.019-0.028 0.031-0.06 0.037-0.093l0.547-3.18c0.24-0.146 0.533-0.208 0.832-0.154 0.648 0.118 1.079 0.74 0.961 1.389 0 0-0.38 2.092-0.745 4.104-0.489 2.687-2.828 4.64-5.559 4.64h-0.285v5e-3s-0.06 1e-3 -0.163 2e-3c-2.608 0.033-4.913-1.689-5.622-4.199-0.28-0.994-0.518-1.835-0.518-1.835-0.214-0.762 0.229-1.554 0.991-1.769 0.619-0.175 1.26 0.086 1.593 0.6l0.313 1.036c0.01 0.03 0.024 0.059 0.045 0.083 0.063 0.076 0.17 0.106 0.264 0.072 0.026-9e-3 0.05-0.023 0.071-0.041 0.022-0.018 0.041-0.041 0.055-0.066 0.015-0.026 0.025-0.056 0.029-0.086 5e-3 -0.034 1e-3 -0.068-8e-3 -0.1l-1.104-4.631c-0.026-0.171-0.02-0.346 0.027-0.513 0.043-0.154 0.117-0.298 0.216-0.424 0.092-0.116 0.206-0.215 0.334-0.29 0.263-0.154 0.584-0.201 0.88-0.13 0.149 0.036 0.292 0.101 0.417 0.191 0.105 0.075 0.198 0.168 0.274 0.273 0.108 0.149 0.177 0.322 0.209 0.503l0.259 3.538c1e-3 0.032 7e-3 0.063 0.019 0.093 0.039 0.091 0.133 0.15 0.232 0.145 0.027-2e-3 0.055-8e-3 0.08-0.019 0.027-0.011 0.051-0.027 0.072-0.047 0.022-0.021 0.04-0.046 0.053-0.074 0.014-0.031 0.02-0.064 0.021-0.098v-0.148z" fill="#CBB39C"/>
        <path d="m11.967 19.909c0-0.362-0.146-0.708-0.406-0.959-0.139-0.136-0.307-0.299-0.492-0.478-1.391-1.35-3.603-1.35-4.994 0-0.184 0.179-0.352 0.342-0.492 0.478-0.259 0.251-0.406 0.597-0.406 0.959v2e-3c0 0.544 0.25 1.058 0.678 1.395 0.428 0.336 0.986 0.457 1.515 0.329 0.291-0.071 0.549-0.133 0.724-0.176 0.157-0.038 0.317-0.057 0.478-0.057s0.322 0.019 0.478 0.057c0.175 0.043 0.433 0.105 0.725 0.176 0.529 0.128 1.087 7e-3 1.515-0.329 0.427-0.337 0.677-0.851 0.677-1.395v-2e-3zm-8.809-4.068c-0.592 0.147-0.883 0.947-0.648 1.786s0.906 1.401 1.499 1.254c0.593-0.146 0.883-0.947 0.648-1.786-0.234-0.839-0.906-1.401-1.499-1.254zm10.957-2.228c-0.412-0.1-0.86 0.258-0.998 0.798-0.139 0.54 0.083 1.059 0.495 1.159 0.412 0.099 0.859-0.258 0.998-0.798 0.138-0.54-0.083-1.06-0.495-1.159zm-8.728-2.246c-0.489 0.068-0.796 0.712-0.685 1.438 0.112 0.725 0.599 1.259 1.088 1.191s0.796-0.712 0.685-1.437c-0.112-0.726-0.599-1.26-1.088-1.192zm6.311 0.065c-0.505-0.067-1 0.451-1.103 1.155-0.103 0.705 0.223 1.331 0.729 1.398s1-0.451 1.103-1.155c0.104-0.705-0.223-1.331-0.729-1.398zm-3.082-0.831c-0.535 0-0.97 0.633-0.97 1.412s0.435 1.412 0.97 1.412 0.97-0.633 0.97-1.412-0.435-1.412-0.97-1.412z" fill="#89654D"/>
        <path d="m22.164 15.159h0.021v-4.089c1e-3 -0.15 0.028-0.298 0.083-0.438 0.135-0.343 0.43-0.611 0.785-0.711 0.126-0.036 0.257-0.051 0.388-0.044 0.134 7e-3 0.266 0.036 0.39 0.087 0.138 0.056 0.265 0.138 0.373 0.241 0.111 0.106 0.201 0.233 0.265 0.373 0.069 0.155 0.104 0.322 0.105 0.492v4.089h0.022v0.148c1e-3 0.032 7e-3 0.063 0.019 0.093 0.039 0.091 0.133 0.15 0.232 0.145 0.027-2e-3 0.055-8e-3 0.08-0.019 0.027-0.011 0.051-0.027 0.072-0.047 0.022-0.021 0.04-0.046 0.053-0.074 0.014-0.031 0.02-0.064 0.021-0.098l0.259-3.538c0.03-0.17 0.093-0.333 0.19-0.477 0.091-0.132 0.208-0.245 0.342-0.331 0.125-0.081 0.264-0.138 0.41-0.168 0.298-0.061 0.617-2e-3 0.874 0.161 0.13 0.082 0.244 0.19 0.334 0.315 0.075 0.105 0.133 0.223 0.171 0.346 0.054 0.176 0.064 0.362 0.036 0.544l-1.104 4.631c-9e-3 0.032-0.013 0.066-8e-3 0.1 4e-3 0.03 0.014 0.06 0.029 0.086 0.014 0.025 0.033 0.048 0.055 0.066 0.021 0.018 0.045 0.032 0.071 0.041 0.094 0.034 0.201 4e-3 0.264-0.072 0.021-0.024 0.035-0.053 0.045-0.083l0.313-1.036c0.333-0.514 0.974-0.775 1.593-0.6 0.762 0.215 1.205 1.007 0.991 1.769 0 0-0.238 0.841-0.518 1.835-0.709 2.51-3.014 4.232-5.622 4.199-0.103-1e-3 -0.163-2e-3 -0.163-2e-3v-5e-3h-0.285c-2.731 0-5.07-1.953-5.559-4.64-0.365-2.012-0.745-4.104-0.745-4.104-0.118-0.649 0.313-1.271 0.961-1.389 0.299-0.054 0.592 8e-3 0.832 0.154l0.547 3.18c5e-3 0.031 0.017 0.061 0.034 0.088 0.054 0.084 0.157 0.126 0.254 0.104 0.027-6e-3 0.053-0.017 0.076-0.032 0.024-0.015 0.046-0.035 0.063-0.058 0.018-0.025 0.032-0.053 0.039-0.083 9e-3 -0.033 0.01-0.067 5e-3 -0.1l-0.519-3.022-0.14-1.01c-0.02-0.148-0.013-0.299 0.022-0.445 0.058-0.238 0.191-0.456 0.375-0.617 0.091-0.08 0.194-0.146 0.305-0.195 0.12-0.053 0.248-0.085 0.379-0.096 0.133-0.012 0.268-1e-3 0.398 0.032 0.144 0.037 0.281 0.101 0.402 0.189 0.125 0.089 0.232 0.203 0.314 0.333 0.09 0.143 0.147 0.305 0.172 0.472l0.121 0.876v2.817c0 0.032 6e-3 0.064 0.019 0.093 0.038 0.092 0.133 0.151 0.232 0.146 0.028-2e-3 0.055-8e-3 0.081-0.019s0.051-0.027 0.071-0.047c0.023-0.021 0.041-0.046 0.053-0.074 0.014-0.032 0.021-0.065 0.022-0.099v-0.383z" fill="#CBB39C"/>
        <path d="m20.033 19.909c0-0.362 0.146-0.708 0.406-0.959 0.139-0.136 0.307-0.299 0.492-0.478 1.391-1.35 3.603-1.35 4.994 0 0.184 0.179 0.352 0.342 0.492 0.478 0.259 0.251 0.406 0.597 0.406 0.959v2e-3c0 0.544-0.25 1.058-0.678 1.395-0.428 0.336-0.986 0.457-1.515 0.329-0.291-0.071-0.549-0.133-0.724-0.176-0.157-0.038-0.317-0.057-0.478-0.057s-0.322 0.019-0.478 0.057c-0.175 0.043-0.433 0.105-0.725 0.176-0.529 0.128-1.087 7e-3 -1.515-0.329-0.427-0.337-0.677-0.851-0.677-1.395v-2e-3zm8.809-4.068c0.592 0.147 0.883 0.947 0.648 1.786s-0.906 1.401-1.499 1.254c-0.593-0.146-0.883-0.947-0.648-1.786 0.234-0.839 0.906-1.401 1.499-1.254zm-10.957-2.228c0.412-0.1 0.86 0.258 0.998 0.798 0.139 0.54-0.083 1.059-0.495 1.159-0.412 0.099-0.859-0.258-0.998-0.798-0.138-0.54 0.083-1.06 0.495-1.159zm8.728-2.246c0.489 0.068 0.796 0.712 0.685 1.438-0.112 0.725-0.599 1.259-1.088 1.191s-0.796-0.712-0.685-1.437c0.112-0.726 0.599-1.26 1.088-1.192zm-6.311 0.065c0.505-0.067 1 0.451 1.103 1.155 0.103 0.705-0.223 1.331-0.729 1.398s-1-0.451-1.103-1.155c-0.104-0.705 0.223-1.331 0.729-1.398zm3.082-0.831c0.535 0 0.97 0.633 0.97 1.412s-0.435 1.412-0.97 1.412-0.97-0.633-0.97-1.412 0.435-1.412 0.97-1.412z" fill="#89654D"/>
    </g>
</svg>
