<?xml version="1.0" encoding="UTF-8"?>
<!DOCTYPE svg  PUBLIC '-//W3C//DTD SVG 1.1//EN'  'http://www.w3.org/Graphics/SVG/1.1/DTD/svg11.dtd'>
<svg clip-rule="evenodd" fill-rule="evenodd" stroke-linejoin="round" stroke-miterlimit="2" version="1.1" viewBox="0 0 32 32" xml:space="preserve" xmlns="http://www.w3.org/2000/svg" xmlns:serif="http://www.serif.com/">
<metadata>
<rdf:RDF xmlns:cc="http://web.resource.org/cc/" xmlns:dc="http://purl.org/dc/elements/1.1/" xmlns:rdf="http://www.w3.org/1999/02/22-rdf-syntax-ns#">

     <rdf:Description rdf:about="">
       <dc:title>Mutant Standard emoji 2023.12</dc:title>
     </rdf:Description>

    <cc:work rdf:about="">
        <cc:license rdf:resource="http://creativecommons.org/licenses/by-nc-sa/4.0/"/>
        <cc:attributionName>Caius Nocturne</cc:attributionName>
        <cc:attributionURL>http://mutant.tech/</cc:attributionURL>
    </cc:work>

</rdf:RDF>
</metadata>

    <path id="pinched_fingers--paw-" d="m32 32v-32h-32v32h32z" fill="none" serif:id="pinched_fingers [paw]"/>
    <clipPath id="_clip1">
        <path d="m32 32v-32h-32v32h32z"/>
    </clipPath>
    <g clip-path="url(#_clip1)">
        <g id="outline">
            <path d="m15.486 4.557c0.163-0.305 0.398-0.555 0.677-0.735l0.023-0.015c0.013-9e-3 0.026-0.017 0.039-0.025l0.03-0.017 0.022-0.012 0.028-0.016 0.017-9e-3 0.052-0.026 0.034-0.016 0.036-0.016 0.012-6e-3c0.321-0.138 0.679-0.194 1.042-0.149l0.036 5e-3 0.017 3e-3 0.026 4e-3 0.035 6e-3 0.014 3e-3c0.15 0.028 0.294 0.074 0.43 0.134l0.027 0.012c7e-3 3e-3 0.015 7e-3 0.023 0.01l0.017 9e-3c0.762-1.328 1.91-2.453 3.381-3.189 0.371-0.185 0.602-0.301 0.602-0.301 0.861-0.43 1.884-0.181 2.46 0.544 0.097-0.025 0.196-0.047 0.295-0.067 0.45-0.09 0.747-0.149 0.747-0.149 1.039-0.208 2.06 0.431 2.327 1.456 0 0 2.161 8.283 2.815 10.79 0.166 0.636 0.25 1.291 0.25 1.949v0.266c0 0.031-1e-3 0.062-2e-3 0.093 1e-3 0.059 2e-3 0.119 2e-3 0.178v5.845c0 2.466-1.678 4.615-4.071 5.213-5.176 1.294-16.842 4.211-21.959 5.49-1.195 0.299-2.461 0.03-3.432-0.728s-1.538-1.921-1.538-3.153v-3.584c0-1.636 0.996-3.106 2.514-3.714 0.925-0.37 2.155-0.861 2.947-1.179l0.408-1.019c1.003-2.506 2.89-4.558 5.305-5.765 0.218-0.109 0.394-0.285 0.503-0.503l3.784-7.568 0.014-0.027 0.011-0.022z"/>
        </g>
        <g id="emoji">
            <path d="m17.808 5.819c0.191 1.667 1.915 7.982 1.915 7.982l-2.723 5.199-5 1v-3s0.802-2.406 0.97-2.909c0.02-0.061 0.044-0.12 0.073-0.177l4.207-8.414 0.558 0.319z" fill="#633A92"/>
            <path d="m17.57 7.86c0.483 1.08 1.838 5.31 1.838 5.31-0.512 0.224-1.115 0.227-1.653-0.043-0.169-0.084-0.341-0.17-0.51-0.254-0.964-0.482-1.354-1.654-0.872-2.618l1.197-2.395z" fill="#41186C"/>
            <path d="m17.808 5.819 0.903 0.516c2.115 1.208 2.894 3.873 1.764 6.031l-0.752 1.435-1.357-2.715c-0.818-1.636-1.012-3.507-0.558-5.267z" fill="#2B123F"/>
            <path d="m26 2.5s-0.297 0.059-0.747 0.149c-1.095 0.219-2.049 0.887-2.631 1.84-0.581 0.954-0.737 2.107-0.43 3.182 0.837 2.93 1.808 6.329 1.808 6.329v1h5v-0.266c0-0.487-0.062-0.973-0.185-1.444-0.654-2.507-2.815-10.79-2.815-10.79z" fill="#4F246C"/>
            <path d="m19.673 5.044c0.563-1.148 1.493-2.127 2.725-2.743 0.371-0.186 0.602-0.301 0.602-0.301s3.935 7.87 5.432 10.863c0.373 0.748 0.568 1.572 0.568 2.408v5.845c0 1.548-1.054 2.897-2.556 3.273-5.176 1.294-16.842 4.211-21.959 5.49-0.597 0.149-1.23 0.015-1.716-0.364-0.485-0.379-0.769-0.961-0.769-1.577v-3.584c0-0.818 0.498-1.553 1.257-1.857 0.925-0.37 2.154-0.862 2.947-1.179 0.508-0.203 0.911-0.606 1.114-1.114 0.117-0.293 0.258-0.645 0.408-1.019 0.821-2.052 2.366-3.731 4.342-4.719h1e-3c0.604-0.303 1.094-0.793 1.397-1.397 0.261-0.522 0.534-1.069 0.534-1.069l5 3.182s-0.132 0.251-0.327 0.625c-0.312 0.594-0.257 1.315 0.142 1.855 0.398 0.54 1.07 0.805 1.73 0.684 1e-3 -1e-3 3e-3 -1e-3 5e-3 -1e-3 0.84-0.155 1.45-0.888 1.45-1.743v-1.161c0-0.24-0.055-0.476-0.162-0.69l-0.939-1.893c0.327-0.039-0.412-6.657-1.226-7.814z" fill="#633A92"/>
            <path d="m19.673 5.044c1.244-0.226 2.539 0.38 3.133 1.569 0.29 0.58 0.598 1.194 0.888 1.774 0.721 1.443 0.136 3.198-1.307 3.919-0.174 0.088-0.35 0.175-0.524 0.263-0.311 0.155-0.637 0.25-0.964 0.289l-1.216-2.451c-0.871-1.755-0.812-3.73-0.01-5.363z" fill="#41186C"/>
        </g>
    </g>
</svg>
