<?xml version="1.0" encoding="UTF-8"?>
<!DOCTYPE svg  PUBLIC '-//W3C//DTD SVG 1.1//EN'  'http://www.w3.org/Graphics/SVG/1.1/DTD/svg11.dtd'>
<svg clip-rule="evenodd" fill-rule="evenodd" stroke-linejoin="round" stroke-miterlimit="2" version="1.1" viewBox="0 0 32 32" xml:space="preserve" xmlns="http://www.w3.org/2000/svg" xmlns:serif="http://www.serif.com/">
<metadata>
<rdf:RDF xmlns:cc="http://web.resource.org/cc/" xmlns:dc="http://purl.org/dc/elements/1.1/" xmlns:rdf="http://www.w3.org/1999/02/22-rdf-syntax-ns#">

     <rdf:Description rdf:about="">
       <dc:title>Mutant Standard emoji 2023.12</dc:title>
     </rdf:Description>

    <cc:work rdf:about="">
        <cc:license rdf:resource="http://creativecommons.org/licenses/by-nc-sa/4.0/"/>
        <cc:attributionName>Caius Nocturne</cc:attributionName>
        <cc:attributionURL>http://mutant.tech/</cc:attributionURL>
    </cc:work>

</rdf:RDF>
</metadata>

    <rect id="point_down--paw-" width="32" height="32" fill="none" serif:id="point_down [paw]"/>
    <clipPath id="_clip1">
        <rect width="32" height="32"/>
    </clipPath>
    <g clip-path="url(#_clip1)">
        <g id="Layer10">
            <path d="m24 18.632v8.868c0 2.484-2.016 4.5-4.5 4.5s-4.5-2.016-4.5-4.5v-3.112c-0.321 0.073-0.656 0.112-1 0.112-1.624 0-3.047-0.862-3.839-2.152-0.714 0.191-1.485 0.209-2.252 0.018-1.536-0.384-2.688-1.516-3.167-2.91-0.153-0.022-0.306-0.052-0.458-0.09-2.41-0.603-3.877-3.048-3.275-5.457 0 0 0.569-2.276 1.178-4.709 1.351-5.407 6.211-9.2 11.785-9.197l0.408 1e-3c0.04-3e-3 0.08-4e-3 0.12-4e-3h1.238c5.596 0 10.564 3.581 12.333 8.889 1.248 3.743 2.493 7.479 2.493 7.479 0.203 0.609 0.101 1.28-0.275 1.801-0.376 0.522-0.979 0.831-1.622 0.831h-2.338l-0.28-5e-3c-0.709-0.037-1.396-0.16-2.049-0.363z"/>
        </g>
        <g id="Layer9">
            <path d="m18 22h-5l-1-1-3-1-2-1-2-2v-5h13v10z" fill="#637017"/>
            <path d="m22 27.5c-1e-3 0.349-0.073 0.696-0.215 1.015-0.132 0.298-0.324 0.569-0.56 0.795-0.226 0.215-0.491 0.387-0.78 0.505-0.264 0.108-0.547 0.17-0.832 0.183-0.274 0.012-0.549-0.021-0.812-0.097-0.234-0.068-0.457-0.17-0.661-0.303-0.452-0.293-0.803-0.732-0.988-1.238-0.101-0.276-0.151-0.567-0.152-0.86v-10c-1e-3 -0.067-0.013-0.133-0.039-0.195-0.081-0.191-0.279-0.315-0.487-0.304-0.058 3e-3 -0.115 0.016-0.169 0.038-0.055 0.024-0.106 0.058-0.15 0.099-0.046 0.044-0.084 0.098-0.111 0.156-0.029 0.065-0.043 0.135-0.044 0.206v3.999c-0.456 0.608-1.183 1.001-2 1.001-1.252 0-2.291-0.923-2.472-2.125l0.96-4.265c0.015-0.07 0.016-0.141 2e-3 -0.211-0.013-0.063-0.038-0.123-0.074-0.176-0.034-0.051-0.076-0.095-0.125-0.13-0.047-0.034-0.1-0.059-0.156-0.075-0.201-0.055-0.42 0.022-0.542 0.191-0.039 0.055-0.065 0.116-0.081 0.181l-0.905 4.025c-0.593 0.496-1.407 0.712-2.213 0.51-1.116-0.278-1.868-1.268-1.894-2.365l0.985-3.939c0.015-0.065 0.02-0.132 9e-3 -0.198-0.032-0.206-0.194-0.373-0.398-0.414-0.057-0.011-0.116-0.012-0.173-3e-3 -0.06 9e-3 -0.117 0.029-0.17 0.059-0.056 0.032-0.105 0.075-0.145 0.125-0.045 0.056-0.075 0.12-0.093 0.189l-0.902 3.606c-0.276 0.027-0.561 7e-3 -0.846-0.064-1.338-0.335-2.153-1.693-1.818-3.032 0 0 0.569-2.275 1.178-4.706 1.129-4.513 5.185-7.679 9.838-7.679h0.531l4e-3 -4e-3h1.238c4.735 0 8.939 3.03 10.436 7.521 1.247 3.743 2.493 7.479 2.493 7.479h-2.338c-0.814 0-1.604-0.165-2.329-0.47-0.19-0.577-1.818-1.921-2-1.376v12.346z" fill="#D9E580"/>
            <path d="m22 12.29c0-0.117 0.02-0.234 0.061-0.344 0.074-0.202 0.214-0.378 0.395-0.495 0.082-0.053 0.171-0.094 0.264-0.121 0.106-0.031 0.216-0.044 0.325-0.039 0.114 5e-3 0.227 0.03 0.333 0.073 0.115 0.047 0.222 0.116 0.312 0.202 0.094 0.09 0.171 0.199 0.224 0.318 0.057 0.128 0.086 0.266 0.086 0.406v4.24c-0.751-0.317-1.433-0.784-2-1.376v-2.864z" fill="#B1C232"/>
        </g>
    </g>
</svg>
