<?xml version="1.0" encoding="UTF-8"?>
<!DOCTYPE svg  PUBLIC '-//W3C//DTD SVG 1.1//EN'  'http://www.w3.org/Graphics/SVG/1.1/DTD/svg11.dtd'>
<svg clip-rule="evenodd" fill-rule="evenodd" stroke-linejoin="round" stroke-miterlimit="2" version="1.1" viewBox="0 0 32 32" xml:space="preserve" xmlns="http://www.w3.org/2000/svg" xmlns:serif="http://www.serif.com/">
<metadata>
<rdf:RDF xmlns:cc="http://web.resource.org/cc/" xmlns:dc="http://purl.org/dc/elements/1.1/" xmlns:rdf="http://www.w3.org/1999/02/22-rdf-syntax-ns#">

     <rdf:Description rdf:about="">
       <dc:title>Mutant Standard emoji 2023.12</dc:title>
     </rdf:Description>

    <cc:work rdf:about="">
        <cc:license rdf:resource="http://creativecommons.org/licenses/by-nc-sa/4.0/"/>
        <cc:attributionName>Caius Nocturne</cc:attributionName>
        <cc:attributionURL>http://mutant.tech/</cc:attributionURL>
    </cc:work>

</rdf:RDF>
</metadata>

    <path id="point_right--paw-" d="m32 0v32h-32v-32h32z" fill="none" serif:id="point_right [paw]"/>
    <g id="Layer10">
        <path d="m18.632 8h8.868c2.484 0 4.5 2.016 4.5 4.5s-2.016 4.5-4.5 4.5h-3.112c0.073 0.321 0.112 0.656 0.112 1 0 1.624-0.862 3.047-2.152 3.839 0.191 0.714 0.209 1.485 0.018 2.252-0.384 1.536-1.516 2.688-2.91 3.167-0.022 0.153-0.052 0.306-0.09 0.458-0.603 2.41-3.048 3.877-5.457 3.275 0 0-2.276-0.569-4.709-1.178-5.407-1.351-9.2-6.211-9.197-11.785l1e-3 -0.408c-3e-3 -0.04-4e-3 -0.08-4e-3 -0.12v-1.238c0-5.596 3.581-10.564 8.889-12.333 3.743-1.248 7.479-2.493 7.479-2.493 0.609-0.203 1.28-0.101 1.801 0.275 0.522 0.376 0.831 0.979 0.831 1.622v2.338l-5e-3 0.28c-0.037 0.709-0.16 1.396-0.363 2.049z"/>
    </g>
    <g id="Layer9">
        <path d="m22 14v5l-1 1-1 3-1 2-2 2h-5v-13h10z" fill="#93482A"/>
        <path d="m27.5 10c0.349 1e-3 0.696 0.073 1.015 0.215 0.298 0.132 0.569 0.324 0.795 0.56 0.215 0.226 0.387 0.491 0.505 0.78 0.108 0.264 0.17 0.547 0.183 0.832 0.012 0.274-0.021 0.549-0.097 0.812-0.068 0.234-0.17 0.457-0.303 0.661-0.293 0.452-0.732 0.803-1.238 0.988-0.276 0.101-0.567 0.151-0.86 0.152h-10c-0.067 1e-3 -0.133 0.013-0.195 0.039-0.191 0.081-0.315 0.279-0.304 0.487 3e-3 0.058 0.016 0.115 0.038 0.169 0.024 0.055 0.058 0.106 0.099 0.15 0.044 0.046 0.098 0.084 0.156 0.111 0.065 0.029 0.135 0.043 0.206 0.044h3.999c0.608 0.456 1.001 1.183 1.001 2 0 1.252-0.923 2.291-2.125 2.472l-4.265-0.96c-0.07-0.015-0.141-0.016-0.211-2e-3 -0.063 0.013-0.123 0.038-0.176 0.074-0.051 0.034-0.095 0.076-0.13 0.125-0.034 0.047-0.059 0.1-0.075 0.156-0.055 0.201 0.022 0.42 0.191 0.542 0.055 0.039 0.116 0.065 0.181 0.081l4.025 0.905c0.496 0.593 0.712 1.407 0.51 2.213-0.278 1.116-1.268 1.868-2.365 1.894l-3.939-0.985c-0.065-0.015-0.132-0.02-0.198-9e-3 -0.206 0.032-0.373 0.194-0.414 0.398-0.011 0.057-0.012 0.116-3e-3 0.173 9e-3 0.06 0.029 0.117 0.059 0.17 0.032 0.056 0.075 0.105 0.125 0.145 0.056 0.045 0.12 0.075 0.189 0.093l3.606 0.902c0.027 0.276 7e-3 0.561-0.064 0.846-0.335 1.338-1.693 2.153-3.032 1.818 0 0-2.275-0.569-4.706-1.178-4.513-1.129-7.679-5.185-7.679-9.838v-0.531l-4e-3 -4e-3v-1.238c0-4.735 3.03-8.939 7.521-10.436 3.743-1.247 7.479-2.493 7.479-2.493v2.338c0 0.814-0.165 1.604-0.47 2.329-0.577 0.19-1.921 1.818-1.376 2h12.346z" fill="#F2B38F"/>
        <path d="m12.29 10c-0.117 0-0.234-0.02-0.344-0.061-0.202-0.074-0.378-0.214-0.495-0.395-0.053-0.082-0.094-0.171-0.121-0.264-0.031-0.106-0.044-0.216-0.039-0.325 5e-3 -0.114 0.03-0.227 0.073-0.333 0.047-0.115 0.116-0.222 0.202-0.312 0.09-0.094 0.199-0.171 0.318-0.224 0.128-0.057 0.266-0.086 0.406-0.086h4.24c-0.317 0.751-0.784 1.433-1.376 2h-2.864z" fill="#E08854"/>
    </g>
</svg>
