<?xml version="1.0" encoding="UTF-8"?>
<!DOCTYPE svg  PUBLIC '-//W3C//DTD SVG 1.1//EN'  'http://www.w3.org/Graphics/SVG/1.1/DTD/svg11.dtd'>
<svg clip-rule="evenodd" fill-rule="evenodd" stroke-linejoin="round" stroke-miterlimit="2" version="1.1" viewBox="0 0 32 32" xml:space="preserve" xmlns="http://www.w3.org/2000/svg" xmlns:serif="http://www.serif.com/">
<metadata>
<rdf:RDF xmlns:cc="http://web.resource.org/cc/" xmlns:dc="http://purl.org/dc/elements/1.1/" xmlns:rdf="http://www.w3.org/1999/02/22-rdf-syntax-ns#">

     <rdf:Description rdf:about="">
       <dc:title>Mutant Standard emoji 2023.12</dc:title>
     </rdf:Description>

    <cc:work rdf:about="">
        <cc:license rdf:resource="http://creativecommons.org/licenses/by-nc-sa/4.0/"/>
        <cc:attributionName>Caius Nocturne</cc:attributionName>
        <cc:attributionURL>http://mutant.tech/</cc:attributionURL>
    </cc:work>

</rdf:RDF>
</metadata>

    <rect id="pray--paw-" width="32" height="32" fill="none" serif:id="pray [paw]"/>
    <path d="m16 2.382c0.13-0.116 0.271-0.222 0.423-0.316 0.884-0.547 1.989-0.596 2.919-0.131 8e-3 4e-3 0.016 8e-3 0.025 0.012 4.065 2.033 6.633 6.188 6.633 10.733v8.492l5.414 5.414c0.375 0.375 0.586 0.884 0.586 1.414v2c0 1.105-0.895 2-2 2h-8c-0.53-3e-3 -1.037-0.213-1.414-0.586l-4.586-4.586-4.586 4.586c-0.371 0.367-0.867 0.576-1.389 0.586h-0.025-8c-1.105 0-2-0.895-2-2v-2c0-0.53 0.211-1.039 0.586-1.414l5.414-5.414v-8.492c0-4.545 2.568-8.7 6.633-10.733 9e-3 -4e-3 0.017-8e-3 0.025-0.012 0.93-0.465 2.035-0.416 2.919 0.131 0.152 0.094 0.293 0.2 0.423 0.316z"/>
    
        <path d="m24.5 22.5h-2l-3 3v2l2.5 2.5h8v-2l-5.5-5.5z" fill="#8D6148"/>
        <path d="m17 9.171v-4.553c0-0.347 0.179-0.668 0.474-0.851 0.295-0.182 0.663-0.198 0.973-0.043 9e-3 4e-3 0.017 8e-3 0.025 0.012 3.388 1.694 5.528 5.157 5.528 8.944v9.32l0.5 0.5-5 5-2.207-2.207c-0.188-0.188-0.293-0.442-0.293-0.707v-12.586c0-0.026 0.029-0.422 0.029-0.422 0.341-0.637 0.271-1.998-0.026-2.408l-3e-3 1e-3z" fill="#A77F58"/>
        <path d="m17.003 9.17c0.24-0.084 0.49-0.137 0.743-0.159 0.171-0.014 0.343-0.013 0.514-2e-3 0.355 0.023 0.707 0.093 1.044 0.21 0.524 0.18 1.009 0.471 1.416 0.848 0.441 0.409 0.787 0.919 1.006 1.479 0.182 0.464 0.27 0.957 0.274 1.454v8h-2v-8c-1e-3 -0.209-0.033-0.417-0.097-0.617-0.073-0.225-0.186-0.436-0.333-0.622-0.241-0.306-0.572-0.537-0.942-0.66-0.159-0.052-0.325-0.085-0.492-0.096-0.109-8e-3 -0.218-8e-3 -0.325 0.013-0.164 0.031-0.319 0.104-0.447 0.21-0.062 0.051-0.117 0.11-0.165 0.174-0.058 0.077-0.105 0.163-0.138 0.254-0.041 0.11-0.06 0.227-0.061 0.344v-2.829l3e-3 -1e-3z" fill="#4E3629"/>
    
    
        <path d="m7.5 22.5h2l3 3v2l-2.5 2.5h-8v-2l5.5-5.5z" fill="#8D6148"/>
        <path d="m15 9.171v-4.553c0-0.347-0.179-0.668-0.474-0.851-0.295-0.182-0.663-0.198-0.973-0.043-9e-3 4e-3 -0.017 8e-3 -0.025 0.012-3.388 1.694-5.528 5.157-5.528 8.944v9.32l-0.5 0.5 5 5 2.207-2.207c0.188-0.188 0.293-0.442 0.293-0.707v-12.586c0-0.026-0.029-0.422-0.029-0.422-0.341-0.637-0.271-1.998 0.026-2.408l3e-3 1e-3z" fill="#A77F58"/>
        <path d="m14.997 9.17c-0.24-0.084-0.49-0.137-0.743-0.159-0.171-0.014-0.343-0.013-0.514-2e-3 -0.355 0.023-0.707 0.093-1.044 0.21-0.524 0.18-1.009 0.471-1.416 0.848-0.441 0.409-0.787 0.919-1.006 1.479-0.182 0.464-0.27 0.957-0.274 1.454v8h2v-8c1e-3 -0.209 0.033-0.417 0.097-0.617 0.073-0.225 0.186-0.436 0.333-0.622 0.241-0.306 0.572-0.537 0.942-0.66 0.159-0.052 0.325-0.085 0.492-0.096 0.109-8e-3 0.218-8e-3 0.325 0.013 0.164 0.031 0.319 0.104 0.447 0.21 0.062 0.051 0.117 0.11 0.165 0.174 0.058 0.077 0.105 0.163 0.138 0.254 0.041 0.11 0.06 0.227 0.061 0.344v-2.829l-3e-3 -1e-3z" fill="#4E3629"/>
    
</svg>
