<?xml version="1.0" encoding="UTF-8"?>
<!DOCTYPE svg  PUBLIC '-//W3C//DTD SVG 1.1//EN'  'http://www.w3.org/Graphics/SVG/1.1/DTD/svg11.dtd'>
<svg clip-rule="evenodd" fill-rule="evenodd" stroke-linejoin="round" stroke-miterlimit="2" version="1.1" viewBox="0 0 32 32" xml:space="preserve" xmlns="http://www.w3.org/2000/svg" xmlns:serif="http://www.serif.com/">
<metadata>
<rdf:RDF xmlns:cc="http://web.resource.org/cc/" xmlns:dc="http://purl.org/dc/elements/1.1/" xmlns:rdf="http://www.w3.org/1999/02/22-rdf-syntax-ns#">

     <rdf:Description rdf:about="">
       <dc:title>Mutant Standard emoji 2023.12</dc:title>
     </rdf:Description>

    <cc:work rdf:about="">
        <cc:license rdf:resource="http://creativecommons.org/licenses/by-nc-sa/4.0/"/>
        <cc:attributionName>Caius Nocturne</cc:attributionName>
        <cc:attributionURL>http://mutant.tech/</cc:attributionURL>
    </cc:work>

</rdf:RDF>
</metadata>

    <rect id="punch--paw-" width="32" height="32" fill="none" serif:id="punch [paw]"/>
    <g id="outline">
        <path d="m1 19.502v-8.177c0-3.444 2.203-6.501 5.47-7.59 0.357-0.119 0.69-0.23 0.974-0.324 0.816-0.272 1.67-0.411 2.53-0.411h9.026c4.677 0 8.521 3.568 8.958 8.13l1.578 1.577c0.937 0.938 1.464 2.21 1.464 3.536v8.343c0 0.795-0.316 1.559-0.879 2.121l-2.414 2.414c-0.562 0.563-1.326 0.879-2.121 0.879h-10.586v-2.002c0-0.694 0.144-1.374 0.417-1.998h-4.417c-1.731 0-3.256-0.879-4.154-2.216-1.837 0.557-3.959-0.091-5.09-1.787-0.499-0.747-0.734-1.602-0.756-2.495z"/>
    </g>
    <g id="emoji">
        <path d="m18.5 15v-3h7.5l1.5 1.5 0.5 1.5v10c-2e-3 0.628-4 1-4 1h-5l-2 2v-3c0-0.265-0.105-0.52-0.293-0.707-0.187-0.188-0.442-0.293-0.707-0.293h-5v-2h-5v-7h12.5z" fill="#2B1B11"/>
        <path d="m28.121 14.121c0.563 0.563 0.879 1.326 0.879 2.122v8.343c0 0.265-0.105 0.519-0.293 0.707l-2.414 2.414c-0.188 0.188-0.442 0.293-0.707 0.293h-8.586v-2e-3c0-1.656 1.342-2.998 2.998-2.998h0.939c0.254 0.131 0.521 0.238 0.795 0.319 0.476 0.14 0.975 0.198 1.471 0.177 0.513-0.023 1.022-0.134 1.498-0.329 0.519-0.212 0.998-0.522 1.404-0.91 0.425-0.405 0.77-0.893 1.009-1.43 0.255-0.575 0.384-1.199 0.386-1.827v-7.5l0.621 0.621z" fill="#553720"/>
        <path d="m7 21.828c-0.318 0.113-0.656 0.172-1 0.172-0.796 0-1.559-0.316-2.121-0.879-0.563-0.562-0.879-1.325-0.879-2.121v-7.675c0-2.583 1.653-4.876 4.103-5.693 0.357-0.119 0.689-0.229 0.973-0.324 0.612-0.204 1.253-0.308 1.898-0.308h9.026c3.866 0 7 3.134 7 7v9c0 1.657-1.343 3-3 3-0.768 0-1.469-0.289-2-0.764v-8.236h-1v6 0.019c-0.01 1.648-1.35 2.981-3 2.981-1.657 0-3-1.343-3-3v-6h-1v8.236c-0.531 0.475-1.232 0.764-2 0.764-1.58 0-2.875-1.221-2.991-2.772l-9e-3 8e-3v-6.236h-1v6.828z" fill="#6A4E35"/>
    </g>
</svg>
