<?xml version="1.0" encoding="UTF-8"?>
<!DOCTYPE svg  PUBLIC '-//W3C//DTD SVG 1.1//EN'  'http://www.w3.org/Graphics/SVG/1.1/DTD/svg11.dtd'>
<svg clip-rule="evenodd" fill-rule="evenodd" stroke-linejoin="round" stroke-miterlimit="1.4142" version="1.1" viewBox="0 0 32 32" xml:space="preserve" xmlns="http://www.w3.org/2000/svg" xmlns:serif="http://www.serif.com/">
<metadata>
<rdf:RDF xmlns:cc="http://web.resource.org/cc/" xmlns:dc="http://purl.org/dc/elements/1.1/" xmlns:rdf="http://www.w3.org/1999/02/22-rdf-syntax-ns#">

     <rdf:Description rdf:about="">
       <dc:title>Mutant Standard emoji 2023.12</dc:title>
     </rdf:Description>

    <cc:work rdf:about="">
        <cc:license rdf:resource="http://creativecommons.org/licenses/by-nc-sa/4.0/"/>
        <cc:attributionName>Caius Nocturne</cc:attributionName>
        <cc:attributionURL>http://mutant.tech/</cc:attributionURL>
    </cc:work>

</rdf:RDF>
</metadata>

    <rect id="raised_hands--paw-" width="32" height="32" fill="none" serif:id="raised_hands [paw]"/>
    <clipPath id="_clip1">
        <rect width="32" height="32"/>
    </clipPath>
    <g clip-path="url(#_clip1)">
        <g id="Layer11">
            <path d="m6.958 20.047v-4.023l2e-3 -0.061 4e-3 -0.061 8e-3 -0.06 0.011-0.06 0.014-0.059 0.017-0.059 0.02-0.057 0.023-0.057 0.026-0.055 0.028-0.053 0.032-0.053 0.034-0.05 0.037-0.049 0.038-0.047 0.042-0.045 0.044-0.042 0.045-0.04 0.048-0.038 0.049-0.035 0.052-0.033 0.053-0.03 0.054-0.027 0.056-0.025 0.057-0.021 0.058-0.018 0.059-0.016 0.06-0.012 0.06-0.01 0.06-6e-3 0.061-3e-3h0.061l0.061 3e-3 0.061 6e-3 0.06 0.01 0.059 0.012 0.059 0.016 0.058 0.018 0.057 0.021 0.056 0.025 0.055 0.027 0.053 0.03 0.051 0.033 0.049 0.035 0.048 0.038 0.046 0.04 0.044 0.042 0.041 0.045 0.039 0.047 0.037 0.049 0.033 0.05 0.032 0.053 0.029 0.053 0.026 0.055 0.022 0.057 0.021 0.057 0.017 0.059 0.013 0.059 0.011 0.06 8e-3 0.06 5e-3 0.061 1e-3 0.061v4.023h0.082l0.84-3.362 0.016-0.056 0.018-0.055 0.021-0.054 0.023-0.053 0.026-0.052 0.029-0.05 0.031-0.05 0.033-0.047 0.036-0.046 0.038-0.044 0.04-0.042 0.042-0.04 0.044-0.038 0.046-0.035 0.047-0.034 0.049-0.031 0.051-0.029 0.051-0.026 0.053-0.023 0.055-0.021 0.055-0.019 0.055-0.015 0.057-0.013 0.057-0.01 0.058-7e-3 0.058-4e-3 0.058-2e-3 0.058 2e-3 0.058 4e-3 0.058 7e-3 0.057 0.01 0.056 0.013 0.056 0.015 0.055 0.018 0.055 0.021 0.053 0.024 0.051 0.026 0.051 0.028 0.049 0.031 0.047 0.034 0.046 0.036 0.044 0.037 0.042 0.04 0.041 0.042 0.037 0.044 0.036 0.046 0.034 0.047 0.031 0.05 0.028 0.05 0.026 0.052 0.024 0.053 0.021 0.054 0.018 0.055 0.016 0.056 0.012 0.057 0.01 0.057 7e-3 0.058 5e-3 0.057 1e-3 0.058-1e-3 0.059-5e-3 0.057-7e-3 0.058-0.01 0.057-0.012 0.057-1.357 5.425v0.59l1.395-1.394 0.038-0.038 0.04-0.035 0.042-0.035 0.042-0.032 0.044-0.031 0.045-0.029 0.046-0.028 0.047-0.026 0.048-0.024 0.049-0.022 0.05-0.02 0.05-0.019 0.052-0.016 0.051-0.015 0.052-0.012 0.053-0.011 0.053-9e-3 0.053-6e-3 0.054-5e-3 0.054-2e-3 0.053-1e-3 0.054 1e-3 0.053 4e-3 0.054 6e-3 0.053 7e-3 0.053 0.01 0.052 0.012 0.052 0.013 0.052 0.016 0.051 0.017 0.05 0.02 0.049 0.021 0.049 0.023 0.047 0.025 0.047 0.027 0.045 0.028 0.045 0.03 0.043 0.032 0.042 0.034 0.041 0.035 0.039 0.036 0.038 0.038 0.037 0.04 0.035 0.04 0.033 0.042 0.032 0.043 0.03 0.045 0.028 0.045 0.027 0.047 0.025 0.047 0.023 0.049 0.022 0.049 0.019 0.05 0.017 0.051 0.016 0.052 0.013 0.052 0.012 0.052 0.01 0.053 7e-3 0.053 6e-3 0.054 4e-3 0.053 1e-3 0.054v0.053l-3e-3 0.054-5e-3 0.054-6e-3 0.053-9e-3 0.053-0.011 0.053-0.012 0.052-0.015 0.052-0.016 0.051-0.019 0.05-0.02 0.05-0.022 0.049-0.024 0.048-0.026 0.047-0.028 0.046-0.029 0.045-0.031 0.044-0.032 0.042-0.034 0.042-0.036 0.04-0.038 0.039-2.831 2.832-0.039 0.038-0.042 0.04-0.042 0.039-0.043 0.04-0.043 0.039-0.044 0.037-0.044 0.038-0.044 0.037-0.09 0.072-0.092 0.07-0.047 0.034-0.094 0.066-0.047 0.032-0.048 0.032-0.049 0.03-0.048 0.031-0.049 0.03-0.05 0.029-0.05 0.028-0.049 0.028-0.051 0.028-0.102 0.052-0.102 0.05-0.052 0.024-0.105 0.047-0.053 0.022-0.052 0.021-0.053 0.021-0.108 0.04-0.054 0.019-0.108 0.036-0.055 0.017-0.11 0.032-0.055 0.015-0.056 0.014-0.055 0.014-0.057 0.013-0.055 0.012-0.057 0.012-0.056 0.011-0.057 0.01-6e-3 1e-3 -0.036 0.012-0.057 0.017-0.059 0.014-0.058 0.01-0.06 8e-3 -0.06 4e-3 -0.06 2e-3h-0.279-0.014l-0.058 1e-3 -0.054 1e-3h-0.068l-0.054-1e-3 -0.015-1e-3h-0.473l-0.052-1e-3 -0.051-2e-3 -0.051-1e-3 -0.153-9e-3 -0.101-9e-3 -0.05-5e-3 -0.05-6e-3 -0.051-6e-3 -0.1-0.014-0.049-7e-3 -0.05-9e-3 -0.049-8e-3 -0.05-0.01-0.049-9e-3 -0.098-0.021-0.049-0.011-0.048-0.012-0.048-0.013-0.049-0.012-0.047-0.013-0.096-0.028-0.047-0.015-0.048-0.015-0.046-0.015-0.047-0.017-0.047-0.016-0.046-0.017-0.138-0.054-0.045-0.018-0.045-0.02-0.046-0.02-0.045-0.02-0.044-0.02-0.044-0.022-0.045-0.021-0.043-0.022-0.087-0.045-0.043-0.023-0.086-0.048-0.126-0.075-0.041-0.026-0.042-0.026-0.041-0.027-0.04-0.027-0.041-0.027-0.08-0.056-0.039-0.029-0.04-0.029-0.038-0.029-0.039-0.03-0.038-0.03-0.076-0.062-0.037-0.031-0.111-0.096-0.072-0.067-0.035-0.034-0.035-0.033-0.069-0.069-0.034-0.035-0.034-0.036-0.067-0.072-0.032-0.036-0.033-0.038-0.031-0.036-0.032-0.038-0.062-0.076-0.061-0.078-0.029-0.039-0.03-0.039-0.029-0.04-0.056-0.081-0.028-0.041-0.054-0.082-0.027-0.042-0.052-0.084-0.025-0.043-0.025-0.044-0.025-0.043-0.024-0.043-0.023-0.044-0.024-0.044-0.044-0.09-0.022-0.044-0.021-0.046-0.021-0.045-0.021-0.046-0.02-0.047-0.039-0.092-0.018-0.048-0.019-0.046-0.051-0.144-0.016-0.048-0.032-0.097-0.042-0.147-0.013-0.05-0.013-0.047-1.271-5.071-0.013-0.058-0.01-0.059-8e-3 -0.06-4e-3 -0.059-1e-3 -0.06 2e-3 -0.06 5e-3 -0.06 8e-3 -0.059 0.011-0.059 0.014-0.058 0.017-0.058 0.02-0.056 0.023-0.056 0.025-0.054 0.028-0.053 0.031-0.052 0.033-0.049 0.036-0.048 0.038-0.047 0.041-0.044 0.042-0.042 0.045-0.039 0.047-0.038 0.048-0.035 0.051-0.033 0.052-0.03 0.053-0.027 0.055-0.025 0.055-0.021 0.058-0.019 0.057-0.016 0.058-0.014 0.06-0.01 0.059-7e-3 0.06-4e-3 0.06-1e-3 0.06 2e-3 0.06 5e-3 0.059 8e-3 0.059 0.011 0.058 0.014 0.057 0.017 0.057 0.02 0.055 0.022 0.055 0.026 0.053 0.028 0.051 0.031 0.05 0.033 0.048 0.036 0.046 0.038 0.044 0.041 0.042 0.042 0.04 0.045 0.037 0.047 0.035 0.049 0.033 0.05 0.03 0.051 0.028 0.054 0.024 0.055 0.022 0.056 0.019 0.056 0.016 0.058 0.102 0.407-0.381-2.03-9e-3 -0.059-7e-3 -0.06-3e-3 -0.06v-0.059l2e-3 -0.06 6e-3 -0.06 8e-3 -0.059 0.012-0.059 0.014-0.058 0.018-0.058 0.02-0.056 0.023-0.055 0.026-0.054 0.029-0.053 0.031-0.051 0.034-0.05 0.036-0.047 0.039-0.046 0.041-0.044 0.043-0.041 0.045-0.04 0.047-0.037 0.049-0.034 0.051-0.032 0.052-0.03 0.053-0.027 0.055-0.024 0.057-0.021 0.056-0.018 0.058-0.016 0.059-0.012 0.059-0.01 0.059-6e-3 0.06-4e-3 0.061-1e-3 0.059 3e-3 0.06 6e-3 0.059 8e-3 0.059 0.012 0.058 0.014 0.057 0.018 0.057 0.02 0.055 0.023 0.054 0.026 0.053 0.029 0.051 0.031 0.049 0.034 0.048 0.037 0.045 0.038 0.044 0.041 0.042 0.043 0.039 0.045 0.037 0.047 0.035 0.049 0.032 0.051 0.03 0.052 0.027 0.054 0.023 0.054 0.022 0.057 0.018 0.057 0.016 0.057 0.012 0.059 0.617 3.293h0.039z" fill="none" stroke="#000" stroke-width="4px"/>
            <path d="m25.042 20.047v-4.023l-2e-3 -0.061-4e-3 -0.061-8e-3 -0.06-0.011-0.06-0.014-0.059-0.017-0.059-0.02-0.057-0.023-0.057-0.026-0.055-0.028-0.053-0.032-0.053-0.034-0.05-0.037-0.049-0.038-0.047-0.042-0.045-0.044-0.042-0.045-0.04-0.048-0.038-0.049-0.035-0.052-0.033-0.053-0.03-0.054-0.027-0.056-0.025-0.057-0.021-0.058-0.018-0.059-0.016-0.06-0.012-0.06-0.01-0.06-6e-3 -0.061-3e-3h-0.061l-0.061 3e-3 -0.061 6e-3 -0.06 0.01-0.059 0.012-0.059 0.016-0.058 0.018-0.057 0.021-0.056 0.025-0.055 0.027-0.053 0.03-0.051 0.033-0.049 0.035-0.048 0.038-0.046 0.04-0.044 0.042-0.041 0.045-0.039 0.047-0.037 0.049-0.033 0.05-0.032 0.053-0.029 0.053-0.026 0.055-0.022 0.057-0.021 0.057-0.017 0.059-0.013 0.059-0.011 0.06-8e-3 0.06-5e-3 0.061-1e-3 0.061v4.023h-0.082l-0.84-3.362-0.016-0.056-0.018-0.055-0.021-0.054-0.023-0.053-0.026-0.052-0.029-0.05-0.031-0.05-0.033-0.047-0.036-0.046-0.038-0.044-0.04-0.042-0.042-0.04-0.044-0.038-0.046-0.035-0.047-0.034-0.049-0.031-0.051-0.029-0.051-0.026-0.053-0.023-0.055-0.021-0.055-0.019-0.055-0.015-0.057-0.013-0.057-0.01-0.058-7e-3 -0.058-4e-3 -0.058-2e-3 -0.058 2e-3 -0.058 4e-3 -0.058 7e-3 -0.057 0.01-0.056 0.013-0.056 0.015-0.055 0.018-0.055 0.021-0.053 0.024-0.051 0.026-0.051 0.028-0.049 0.031-0.047 0.034-0.046 0.036-0.044 0.037-0.042 0.04-0.041 0.042-0.037 0.044-0.036 0.046-0.034 0.047-0.031 0.05-0.028 0.05-0.026 0.052-0.024 0.053-0.021 0.054-0.018 0.055-0.016 0.056-0.012 0.057-0.01 0.057-7e-3 0.058-5e-3 0.057-1e-3 0.058 1e-3 0.059 5e-3 0.057 7e-3 0.058 0.01 0.057 0.012 0.057 1.357 5.425v0.59l-1.395-1.394-0.038-0.038-0.04-0.035-0.042-0.035-0.042-0.032-0.044-0.031-0.045-0.029-0.046-0.028-0.047-0.026-0.048-0.024-0.049-0.022-0.05-0.02-0.05-0.019-0.052-0.016-0.051-0.015-0.052-0.012-0.053-0.011-0.053-9e-3 -0.053-6e-3 -0.054-5e-3 -0.054-2e-3 -0.053-1e-3 -0.054 1e-3 -0.053 4e-3 -0.054 6e-3 -0.053 7e-3 -0.053 0.01-0.052 0.012-0.052 0.013-0.052 0.016-0.051 0.017-0.05 0.02-0.049 0.021-0.049 0.023-0.047 0.025-0.047 0.027-0.045 0.028-0.045 0.03-0.043 0.032-0.042 0.034-0.041 0.035-0.039 0.036-0.038 0.038-0.037 0.04-0.035 0.04-0.033 0.042-0.032 0.043-0.03 0.045-0.028 0.045-0.027 0.047-0.025 0.047-0.023 0.049-0.022 0.049-0.019 0.05-0.017 0.051-0.016 0.052-0.013 0.052-0.012 0.052-0.01 0.053-7e-3 0.053-6e-3 0.054-4e-3 0.053-1e-3 0.054v0.053l3e-3 0.054 5e-3 0.054 6e-3 0.053 9e-3 0.053 0.011 0.053 0.012 0.052 0.015 0.052 0.016 0.051 0.019 0.05 0.02 0.05 0.022 0.049 0.024 0.048 0.026 0.047 0.028 0.046 0.029 0.045 0.031 0.044 0.032 0.042 0.034 0.042 0.036 0.04 0.038 0.039 2.831 2.832 0.039 0.038 0.042 0.04 0.042 0.039 0.043 0.04 0.043 0.039 0.044 0.037 0.044 0.038 0.044 0.037 0.09 0.072 0.092 0.07 0.047 0.034 0.094 0.066 0.047 0.032 0.048 0.032 0.049 0.03 0.048 0.031 0.049 0.03 0.05 0.029 0.05 0.028 0.049 0.028 0.051 0.028 0.102 0.052 0.102 0.05 0.052 0.024 0.105 0.047 0.053 0.022 0.052 0.021 0.053 0.021 0.108 0.04 0.054 0.019 0.108 0.036 0.055 0.017 0.11 0.032 0.055 0.015 0.056 0.014 0.055 0.014 0.057 0.013 0.055 0.012 0.057 0.012 0.056 0.011 0.057 0.01 6e-3 1e-3 0.036 0.012 0.057 0.017 0.059 0.014 0.058 0.01 0.06 8e-3 0.06 4e-3 0.06 2e-3h0.279 0.014l0.058 1e-3 0.054 1e-3h0.068l0.054-1e-3 0.015-1e-3h0.473l0.052-1e-3 0.051-2e-3 0.051-1e-3 0.153-9e-3 0.101-9e-3 0.05-5e-3 0.05-6e-3 0.051-6e-3 0.1-0.014 0.049-7e-3 0.05-9e-3 0.049-8e-3 0.05-0.01 0.049-9e-3 0.098-0.021 0.049-0.011 0.048-0.012 0.048-0.013 0.049-0.012 0.047-0.013 0.096-0.028 0.047-0.015 0.048-0.015 0.046-0.015 0.047-0.017 0.047-0.016 0.046-0.017 0.138-0.054 0.045-0.018 0.045-0.02 0.046-0.02 0.045-0.02 0.044-0.02 0.044-0.022 0.045-0.021 0.043-0.022 0.087-0.045 0.043-0.023 0.086-0.048 0.126-0.075 0.041-0.026 0.042-0.026 0.041-0.027 0.04-0.027 0.041-0.027 0.08-0.056 0.039-0.029 0.04-0.029 0.038-0.029 0.039-0.03 0.038-0.03 0.076-0.062 0.037-0.031 0.111-0.096 0.072-0.067 0.035-0.034 0.035-0.033 0.069-0.069 0.034-0.035 0.034-0.036 0.067-0.072 0.032-0.036 0.033-0.038 0.031-0.036 0.032-0.038 0.062-0.076 0.061-0.078 0.029-0.039 0.03-0.039 0.029-0.04 0.056-0.081 0.028-0.041 0.054-0.082 0.027-0.042 0.052-0.084 0.025-0.043 0.025-0.044 0.025-0.043 0.024-0.043 0.023-0.044 0.024-0.044 0.044-0.09 0.022-0.044 0.021-0.046 0.021-0.045 0.021-0.046 0.02-0.047 0.039-0.092 0.018-0.048 0.019-0.046 0.051-0.144 0.016-0.048 0.032-0.097 0.042-0.147 0.013-0.05 0.013-0.047 1.271-5.071 0.013-0.058 0.01-0.059 8e-3 -0.06 4e-3 -0.059 1e-3 -0.06-2e-3 -0.06-5e-3 -0.06-8e-3 -0.059-0.011-0.059-0.014-0.058-0.017-0.058-0.02-0.056-0.023-0.056-0.025-0.054-0.028-0.053-0.031-0.052-0.033-0.049-0.036-0.048-0.038-0.047-0.041-0.044-0.042-0.042-0.045-0.039-0.047-0.038-0.048-0.035-0.051-0.033-0.052-0.03-0.053-0.027-0.055-0.025-0.055-0.021-0.058-0.019-0.057-0.016-0.058-0.014-0.06-0.01-0.059-7e-3 -0.06-4e-3 -0.06-1e-3 -0.06 2e-3 -0.06 5e-3 -0.059 8e-3 -0.059 0.011-0.058 0.014-0.057 0.017-0.057 0.02-0.055 0.022-0.055 0.026-0.053 0.028-0.051 0.031-0.05 0.033-0.048 0.036-0.046 0.038-0.044 0.041-0.042 0.042-0.04 0.045-0.037 0.047-0.035 0.049-0.033 0.05-0.03 0.051-0.028 0.054-0.024 0.055-0.022 0.056-0.019 0.056-0.016 0.058-0.102 0.407 0.381-2.03 9e-3 -0.059 7e-3 -0.06 3e-3 -0.06v-0.059l-2e-3 -0.06-6e-3 -0.06-8e-3 -0.059-0.012-0.059-0.014-0.058-0.018-0.058-0.02-0.056-0.023-0.055-0.026-0.054-0.029-0.053-0.031-0.051-0.034-0.05-0.036-0.047-0.039-0.046-0.041-0.044-0.043-0.041-0.045-0.04-0.047-0.037-0.049-0.034-0.051-0.032-0.052-0.03-0.053-0.027-0.055-0.024-0.057-0.021-0.056-0.018-0.058-0.016-0.059-0.012-0.059-0.01-0.059-6e-3 -0.06-4e-3 -0.061-1e-3 -0.059 3e-3 -0.06 6e-3 -0.059 8e-3 -0.059 0.012-0.058 0.014-0.057 0.018-0.057 0.02-0.055 0.023-0.054 0.026-0.053 0.029-0.051 0.031-0.049 0.034-0.048 0.037-0.045 0.038-0.044 0.041-0.042 0.043-0.039 0.045-0.037 0.047-0.035 0.049-0.032 0.051-0.03 0.052-0.027 0.054-0.023 0.054-0.022 0.057-0.018 0.057-0.016 0.057-0.012 0.059-0.617 3.293h-0.039z" fill="none" stroke="#000" stroke-width="4px"/>
            <path d="m6.526 5.5c0.247 0.011 0.472 0.103 0.656 0.269 1.034 0.998 2.051 2.015 3.049 3.049 0.101 0.112 0.179 0.24 0.224 0.384 0.037 0.121 0.052 0.249 0.042 0.376-9e-3 0.114-0.038 0.227-0.085 0.332-0.154 0.342-0.495 0.573-0.869 0.589-0.103 5e-3 -0.207-7e-3 -0.307-0.035-0.158-0.043-0.298-0.124-0.418-0.233-1.034-0.998-2.05-2.015-3.049-3.049-0.093-0.103-0.167-0.22-0.213-0.352-0.034-0.098-0.053-0.201-0.056-0.304-9e-3 -0.362 0.185-0.709 0.498-0.891 0.14-0.081 0.297-0.124 0.459-0.134 0.035-1e-3 0.034-1e-3 0.069-1e-3zm19.017 1e-3c0.139 8e-3 0.273 0.04 0.399 0.102 0.324 0.16 0.541 0.492 0.557 0.854 5e-3 0.103-7e-3 0.207-0.035 0.307-0.043 0.158-0.124 0.298-0.233 0.418-0.998 1.034-2.015 2.051-3.049 3.049-0.112 0.101-0.24 0.179-0.384 0.224-0.121 0.037-0.249 0.052-0.376 0.042-0.114-9e-3 -0.227-0.038-0.332-0.085-0.342-0.154-0.573-0.495-0.589-0.869-5e-3 -0.103 7e-3 -0.207 0.035-0.307 0.043-0.158 0.124-0.298 0.233-0.418 0.998-1.034 2.015-2.051 3.049-3.049 0.184-0.166 0.409-0.258 0.656-0.269 0.035 0 0.034 0 0.069 1e-3zm-9.483-3.499c0.106 8e-3 0.209 0.029 0.309 0.069 0.26 0.103 0.469 0.316 0.568 0.579 0.037 0.1 0.056 0.204 0.062 0.31 0.027 1.36 0.027 2.72 0 4.08-9e-3 0.16-0.05 0.314-0.13 0.454-0.179 0.316-0.526 0.513-0.889 0.506-0.106-2e-3 -0.212-0.021-0.312-0.057-0.112-0.039-0.217-0.099-0.309-0.176-0.102-0.085-0.186-0.19-0.247-0.308-0.068-0.131-0.102-0.272-0.111-0.419-0.027-1.36-0.027-2.72 0-4.08 6e-3 -0.106 0.025-0.21 0.062-0.31 0.094-0.25 0.288-0.456 0.531-0.564 0.098-0.043 0.201-0.068 0.307-0.081 0.053-4e-3 0.105-5e-3 0.159-3e-3z" fill="#fff" stroke="#000" stroke-width="4px"/>
            
                <path d="m6.958 20.047v-4.023l2e-3 -0.061 4e-3 -0.061 8e-3 -0.06 0.011-0.06 0.014-0.059 0.017-0.059 0.02-0.057 0.023-0.057 0.026-0.055 0.028-0.053 0.032-0.053 0.034-0.05 0.037-0.049 0.038-0.047 0.042-0.045 0.044-0.042 0.045-0.04 0.048-0.038 0.049-0.035 0.052-0.033 0.053-0.03 0.054-0.027 0.056-0.025 0.057-0.021 0.058-0.018 0.059-0.016 0.06-0.012 0.06-0.01 0.06-6e-3 0.061-3e-3h0.061l0.061 3e-3 0.061 6e-3 0.06 0.01 0.059 0.012 0.059 0.016 0.058 0.018 0.057 0.021 0.056 0.025 0.055 0.027 0.053 0.03 0.051 0.033 0.049 0.035 0.048 0.038 0.046 0.04 0.044 0.042 0.041 0.045 0.039 0.047 0.037 0.049 0.033 0.05 0.032 0.053 0.029 0.053 0.026 0.055 0.022 0.057 0.021 0.057 0.017 0.059 0.013 0.059 0.011 0.06 8e-3 0.06 5e-3 0.061 1e-3 0.061v4.023h0.082l0.84-3.362 0.016-0.056 0.018-0.055 0.021-0.054 0.023-0.053 0.026-0.052 0.029-0.05 0.031-0.05 0.033-0.047 0.036-0.046 0.038-0.044 0.04-0.042 0.042-0.04 0.044-0.038 0.046-0.035 0.047-0.034 0.049-0.031 0.051-0.029 0.051-0.026 0.053-0.023 0.055-0.021 0.055-0.019 0.055-0.015 0.057-0.013 0.057-0.01 0.058-7e-3 0.058-4e-3 0.058-2e-3 0.058 2e-3 0.058 4e-3 0.058 7e-3 0.057 0.01 0.056 0.013 0.056 0.015 0.055 0.018 0.055 0.021 0.053 0.024 0.051 0.026 0.051 0.028 0.049 0.031 0.047 0.034 0.046 0.036 0.044 0.037 0.042 0.04 0.041 0.042 0.037 0.044 0.036 0.046 0.034 0.047 0.031 0.05 0.028 0.05 0.026 0.052 0.024 0.053 0.021 0.054 0.018 0.055 0.016 0.056 0.012 0.057 0.01 0.057 7e-3 0.058 5e-3 0.057 1e-3 0.058-1e-3 0.059-5e-3 0.057-7e-3 0.058-0.01 0.057-0.012 0.057-1.357 5.425v0.59l1.395-1.394 0.038-0.038 0.04-0.035 0.042-0.035 0.042-0.032 0.044-0.031 0.045-0.029 0.046-0.028 0.047-0.026 0.048-0.024 0.049-0.022 0.05-0.02 0.05-0.019 0.052-0.016 0.051-0.015 0.052-0.012 0.053-0.011 0.053-9e-3 0.053-6e-3 0.054-5e-3 0.054-2e-3 0.053-1e-3 0.054 1e-3 0.053 4e-3 0.054 6e-3 0.053 7e-3 0.053 0.01 0.052 0.012 0.052 0.013 0.052 0.016 0.051 0.017 0.05 0.02 0.049 0.021 0.049 0.023 0.047 0.025 0.047 0.027 0.045 0.028 0.045 0.03 0.043 0.032 0.042 0.034 0.041 0.035 0.039 0.036 0.038 0.038 0.037 0.04 0.035 0.04 0.033 0.042 0.032 0.043 0.03 0.045 0.028 0.045 0.027 0.047 0.025 0.047 0.023 0.049 0.022 0.049 0.019 0.05 0.017 0.051 0.016 0.052 0.013 0.052 0.012 0.052 0.01 0.053 7e-3 0.053 6e-3 0.054 4e-3 0.053 1e-3 0.054v0.053l-3e-3 0.054-5e-3 0.054-6e-3 0.053-9e-3 0.053-0.011 0.053-0.012 0.052-0.015 0.052-0.016 0.051-0.019 0.05-0.02 0.05-0.022 0.049-0.024 0.048-0.026 0.047-0.028 0.046-0.029 0.045-0.031 0.044-0.032 0.042-0.034 0.042-0.036 0.04-0.038 0.039-2.831 2.832-0.039 0.038-0.042 0.04-0.042 0.039-0.043 0.04-0.043 0.039-0.044 0.037-0.044 0.038-0.044 0.037-0.09 0.072-0.092 0.07-0.047 0.034-0.094 0.066-0.047 0.032-0.048 0.032-0.049 0.03-0.048 0.031-0.049 0.03-0.05 0.029-0.05 0.028-0.049 0.028-0.051 0.028-0.102 0.052-0.102 0.05-0.052 0.024-0.105 0.047-0.053 0.022-0.052 0.021-0.053 0.021-0.108 0.04-0.054 0.019-0.108 0.036-0.055 0.017-0.11 0.032-0.055 0.015-0.056 0.014-0.055 0.014-0.057 0.013-0.055 0.012-0.057 0.012-0.056 0.011-0.057 0.01-6e-3 1e-3 -0.036 0.012-0.057 0.017-0.059 0.014-0.058 0.01-0.06 8e-3 -0.06 4e-3 -0.06 2e-3h-0.279-0.014l-0.058 1e-3 -0.054 1e-3h-0.068l-0.054-1e-3 -0.015-1e-3h-0.473l-0.052-1e-3 -0.051-2e-3 -0.051-1e-3 -0.153-9e-3 -0.101-9e-3 -0.05-5e-3 -0.05-6e-3 -0.051-6e-3 -0.1-0.014-0.049-7e-3 -0.05-9e-3 -0.049-8e-3 -0.05-0.01-0.049-9e-3 -0.098-0.021-0.049-0.011-0.048-0.012-0.048-0.013-0.049-0.012-0.047-0.013-0.096-0.028-0.047-0.015-0.048-0.015-0.046-0.015-0.047-0.017-0.047-0.016-0.046-0.017-0.138-0.054-0.045-0.018-0.045-0.02-0.046-0.02-0.045-0.02-0.044-0.02-0.044-0.022-0.045-0.021-0.043-0.022-0.087-0.045-0.043-0.023-0.086-0.048-0.126-0.075-0.041-0.026-0.042-0.026-0.041-0.027-0.04-0.027-0.041-0.027-0.08-0.056-0.039-0.029-0.04-0.029-0.038-0.029-0.039-0.03-0.038-0.03-0.076-0.062-0.037-0.031-0.111-0.096-0.072-0.067-0.035-0.034-0.035-0.033-0.069-0.069-0.034-0.035-0.034-0.036-0.067-0.072-0.032-0.036-0.033-0.038-0.031-0.036-0.032-0.038-0.062-0.076-0.061-0.078-0.029-0.039-0.03-0.039-0.029-0.04-0.056-0.081-0.028-0.041-0.054-0.082-0.027-0.042-0.052-0.084-0.025-0.043-0.025-0.044-0.025-0.043-0.024-0.043-0.023-0.044-0.024-0.044-0.044-0.09-0.022-0.044-0.021-0.046-0.021-0.045-0.021-0.046-0.02-0.047-0.039-0.092-0.018-0.048-0.019-0.046-0.051-0.144-0.016-0.048-0.032-0.097-0.042-0.147-0.013-0.05-0.013-0.047-1.271-5.071-0.013-0.058-0.01-0.059-8e-3 -0.06-4e-3 -0.059-1e-3 -0.06 2e-3 -0.06 5e-3 -0.06 8e-3 -0.059 0.011-0.059 0.014-0.058 0.017-0.058 0.02-0.056 0.023-0.056 0.025-0.054 0.028-0.053 0.031-0.052 0.033-0.049 0.036-0.048 0.038-0.047 0.041-0.044 0.042-0.042 0.045-0.039 0.047-0.038 0.048-0.035 0.051-0.033 0.052-0.03 0.053-0.027 0.055-0.025 0.055-0.021 0.058-0.019 0.057-0.016 0.058-0.014 0.06-0.01 0.059-7e-3 0.06-4e-3 0.06-1e-3 0.06 2e-3 0.06 5e-3 0.059 8e-3 0.059 0.011 0.058 0.014 0.057 0.017 0.057 0.02 0.055 0.022 0.055 0.026 0.053 0.028 0.051 0.031 0.05 0.033 0.048 0.036 0.046 0.038 0.044 0.041 0.042 0.042 0.04 0.045 0.037 0.047 0.035 0.049 0.033 0.05 0.03 0.051 0.028 0.054 0.024 0.055 0.022 0.056 0.019 0.056 0.016 0.058 0.102 0.407-0.381-2.03-9e-3 -0.059-7e-3 -0.06-3e-3 -0.06v-0.059l2e-3 -0.06 6e-3 -0.06 8e-3 -0.059 0.012-0.059 0.014-0.058 0.018-0.058 0.02-0.056 0.023-0.055 0.026-0.054 0.029-0.053 0.031-0.051 0.034-0.05 0.036-0.047 0.039-0.046 0.041-0.044 0.043-0.041 0.045-0.04 0.047-0.037 0.049-0.034 0.051-0.032 0.052-0.03 0.053-0.027 0.055-0.024 0.057-0.021 0.056-0.018 0.058-0.016 0.059-0.012 0.059-0.01 0.059-6e-3 0.06-4e-3 0.061-1e-3 0.059 3e-3 0.06 6e-3 0.059 8e-3 0.059 0.012 0.058 0.014 0.057 0.018 0.057 0.02 0.055 0.023 0.054 0.026 0.053 0.029 0.051 0.031 0.049 0.034 0.048 0.037 0.045 0.038 0.044 0.041 0.042 0.043 0.039 0.045 0.037 0.047 0.035 0.049 0.032 0.051 0.03 0.052 0.027 0.054 0.023 0.054 0.022 0.057 0.018 0.057 0.016 0.057 0.012 0.059 0.617 3.293h0.039z" fill="#434895"/>
                <path d="m3.647 16.262 0.828 4.967" fill="none" stroke="#000" stroke-linecap="round" stroke-linejoin="miter" stroke-miterlimit="1.5" stroke-width=".47px"/>
                <path d="m6.722 15.789v4.731" fill="none" stroke="#000" stroke-linecap="round" stroke-linejoin="miter" stroke-miterlimit="1.5" stroke-width=".47px"/>
                <path d="m9.56 15.789v4.494" fill="none" stroke="#000" stroke-linecap="round" stroke-linejoin="miter" stroke-miterlimit="1.5" stroke-width=".47px"/>
                <g fill="#252368">
                    <path d="m4.944 16.415c0.483-0.12 1.016 0.345 1.189 1.038s-0.079 1.353-0.563 1.474c-0.483 0.121-1.016-0.344-1.189-1.037s0.079-1.354 0.563-1.475z"/>
                    <path d="m2.782 18.58c0.402-0.1 0.838 0.26 0.973 0.802 0.135 0.543-0.081 1.065-0.483 1.166-0.402 0.1-0.838-0.259-0.973-0.803-0.136-0.543 0.08-1.065 0.483-1.165z"/>
                    <ellipse cx="8.145" cy="16.972" rx=".946" ry="1.419"/>
                    <path d="m11.538 16.326c0.468 0.117 0.703 0.791 0.525 1.506-0.178 0.714-0.703 1.2-1.171 1.083s-0.703-0.792-0.526-1.506c0.179-0.715 0.703-1.2 1.172-1.083z"/>
                    <path d="m14.062 22.168c0.428 0.428 0.28 1.27-0.33 1.88s-1.453 0.758-1.88 0.331c-0.427-0.428-0.279-1.27 0.331-1.88s1.452-0.758 1.879-0.331z"/>
                    <path d="m4.593 25.088c0-0.502 0.199-0.983 0.554-1.338l1.419-1.419c0.355-0.355 0.836-0.554 1.338-0.554s0.983 0.199 1.338 0.554c0.496 0.496 1.032 1.031 1.419 1.419 0.355 0.355 0.555 0.836 0.555 1.338v0.237c0 0.437-0.202 0.85-0.546 1.118-0.345 0.27-0.794 0.365-1.218 0.259-0.434-0.109-0.843-0.211-1.085-0.272-0.151-0.037-0.304-0.056-0.459-0.056h-8e-3c-0.154 0-0.308 0.019-0.458 0.056-0.243 0.061-0.652 0.163-1.086 0.272-0.424 0.106-0.873 0.011-1.217-0.259-0.345-0.268-0.546-0.681-0.546-1.118v-0.237z"/>
                </g>
            
            
                <path d="m25.042 20.047v-4.023l-2e-3 -0.061-4e-3 -0.061-8e-3 -0.06-0.011-0.06-0.014-0.059-0.017-0.059-0.02-0.057-0.023-0.057-0.026-0.055-0.028-0.053-0.032-0.053-0.034-0.05-0.037-0.049-0.038-0.047-0.042-0.045-0.044-0.042-0.045-0.04-0.048-0.038-0.049-0.035-0.052-0.033-0.053-0.03-0.054-0.027-0.056-0.025-0.057-0.021-0.058-0.018-0.059-0.016-0.06-0.012-0.06-0.01-0.06-6e-3 -0.061-3e-3h-0.061l-0.061 3e-3 -0.061 6e-3 -0.06 0.01-0.059 0.012-0.059 0.016-0.058 0.018-0.057 0.021-0.056 0.025-0.055 0.027-0.053 0.03-0.051 0.033-0.049 0.035-0.048 0.038-0.046 0.04-0.044 0.042-0.041 0.045-0.039 0.047-0.037 0.049-0.033 0.05-0.032 0.053-0.029 0.053-0.026 0.055-0.022 0.057-0.021 0.057-0.017 0.059-0.013 0.059-0.011 0.06-8e-3 0.06-5e-3 0.061-1e-3 0.061v4.023h-0.082l-0.84-3.362-0.016-0.056-0.018-0.055-0.021-0.054-0.023-0.053-0.026-0.052-0.029-0.05-0.031-0.05-0.033-0.047-0.036-0.046-0.038-0.044-0.04-0.042-0.042-0.04-0.044-0.038-0.046-0.035-0.047-0.034-0.049-0.031-0.051-0.029-0.051-0.026-0.053-0.023-0.055-0.021-0.055-0.019-0.055-0.015-0.057-0.013-0.057-0.01-0.058-7e-3 -0.058-4e-3 -0.058-2e-3 -0.058 2e-3 -0.058 4e-3 -0.058 7e-3 -0.057 0.01-0.056 0.013-0.056 0.015-0.055 0.018-0.055 0.021-0.053 0.024-0.051 0.026-0.051 0.028-0.049 0.031-0.047 0.034-0.046 0.036-0.044 0.037-0.042 0.04-0.041 0.042-0.037 0.044-0.036 0.046-0.034 0.047-0.031 0.05-0.028 0.05-0.026 0.052-0.024 0.053-0.021 0.054-0.018 0.055-0.016 0.056-0.012 0.057-0.01 0.057-7e-3 0.058-5e-3 0.057-1e-3 0.058 1e-3 0.059 5e-3 0.057 7e-3 0.058 0.01 0.057 0.012 0.057 1.357 5.425v0.59l-1.395-1.394-0.038-0.038-0.04-0.035-0.042-0.035-0.042-0.032-0.044-0.031-0.045-0.029-0.046-0.028-0.047-0.026-0.048-0.024-0.049-0.022-0.05-0.02-0.05-0.019-0.052-0.016-0.051-0.015-0.052-0.012-0.053-0.011-0.053-9e-3 -0.053-6e-3 -0.054-5e-3 -0.054-2e-3 -0.053-1e-3 -0.054 1e-3 -0.053 4e-3 -0.054 6e-3 -0.053 7e-3 -0.053 0.01-0.052 0.012-0.052 0.013-0.052 0.016-0.051 0.017-0.05 0.02-0.049 0.021-0.049 0.023-0.047 0.025-0.047 0.027-0.045 0.028-0.045 0.03-0.043 0.032-0.042 0.034-0.041 0.035-0.039 0.036-0.038 0.038-0.037 0.04-0.035 0.04-0.033 0.042-0.032 0.043-0.03 0.045-0.028 0.045-0.027 0.047-0.025 0.047-0.023 0.049-0.022 0.049-0.019 0.05-0.017 0.051-0.016 0.052-0.013 0.052-0.012 0.052-0.01 0.053-7e-3 0.053-6e-3 0.054-4e-3 0.053-1e-3 0.054v0.053l3e-3 0.054 5e-3 0.054 6e-3 0.053 9e-3 0.053 0.011 0.053 0.012 0.052 0.015 0.052 0.016 0.051 0.019 0.05 0.02 0.05 0.022 0.049 0.024 0.048 0.026 0.047 0.028 0.046 0.029 0.045 0.031 0.044 0.032 0.042 0.034 0.042 0.036 0.04 0.038 0.039 2.831 2.832 0.039 0.038 0.042 0.04 0.042 0.039 0.043 0.04 0.043 0.039 0.044 0.037 0.044 0.038 0.044 0.037 0.09 0.072 0.092 0.07 0.047 0.034 0.094 0.066 0.047 0.032 0.048 0.032 0.049 0.03 0.048 0.031 0.049 0.03 0.05 0.029 0.05 0.028 0.049 0.028 0.051 0.028 0.102 0.052 0.102 0.05 0.052 0.024 0.105 0.047 0.053 0.022 0.052 0.021 0.053 0.021 0.108 0.04 0.054 0.019 0.108 0.036 0.055 0.017 0.11 0.032 0.055 0.015 0.056 0.014 0.055 0.014 0.057 0.013 0.055 0.012 0.057 0.012 0.056 0.011 0.057 0.01 6e-3 1e-3 0.036 0.012 0.057 0.017 0.059 0.014 0.058 0.01 0.06 8e-3 0.06 4e-3 0.06 2e-3h0.279 0.014l0.058 1e-3 0.054 1e-3h0.068l0.054-1e-3 0.015-1e-3h0.473l0.052-1e-3 0.051-2e-3 0.051-1e-3 0.153-9e-3 0.101-9e-3 0.05-5e-3 0.05-6e-3 0.051-6e-3 0.1-0.014 0.049-7e-3 0.05-9e-3 0.049-8e-3 0.05-0.01 0.049-9e-3 0.098-0.021 0.049-0.011 0.048-0.012 0.048-0.013 0.049-0.012 0.047-0.013 0.096-0.028 0.047-0.015 0.048-0.015 0.046-0.015 0.047-0.017 0.047-0.016 0.046-0.017 0.138-0.054 0.045-0.018 0.045-0.02 0.046-0.02 0.045-0.02 0.044-0.02 0.044-0.022 0.045-0.021 0.043-0.022 0.087-0.045 0.043-0.023 0.086-0.048 0.126-0.075 0.041-0.026 0.042-0.026 0.041-0.027 0.04-0.027 0.041-0.027 0.08-0.056 0.039-0.029 0.04-0.029 0.038-0.029 0.039-0.03 0.038-0.03 0.076-0.062 0.037-0.031 0.111-0.096 0.072-0.067 0.035-0.034 0.035-0.033 0.069-0.069 0.034-0.035 0.034-0.036 0.067-0.072 0.032-0.036 0.033-0.038 0.031-0.036 0.032-0.038 0.062-0.076 0.061-0.078 0.029-0.039 0.03-0.039 0.029-0.04 0.056-0.081 0.028-0.041 0.054-0.082 0.027-0.042 0.052-0.084 0.025-0.043 0.025-0.044 0.025-0.043 0.024-0.043 0.023-0.044 0.024-0.044 0.044-0.09 0.022-0.044 0.021-0.046 0.021-0.045 0.021-0.046 0.02-0.047 0.039-0.092 0.018-0.048 0.019-0.046 0.051-0.144 0.016-0.048 0.032-0.097 0.042-0.147 0.013-0.05 0.013-0.047 1.271-5.071 0.013-0.058 0.01-0.059 8e-3 -0.06 4e-3 -0.059 1e-3 -0.06-2e-3 -0.06-5e-3 -0.06-8e-3 -0.059-0.011-0.059-0.014-0.058-0.017-0.058-0.02-0.056-0.023-0.056-0.025-0.054-0.028-0.053-0.031-0.052-0.033-0.049-0.036-0.048-0.038-0.047-0.041-0.044-0.042-0.042-0.045-0.039-0.047-0.038-0.048-0.035-0.051-0.033-0.052-0.03-0.053-0.027-0.055-0.025-0.055-0.021-0.058-0.019-0.057-0.016-0.058-0.014-0.06-0.01-0.059-7e-3 -0.06-4e-3 -0.06-1e-3 -0.06 2e-3 -0.06 5e-3 -0.059 8e-3 -0.059 0.011-0.058 0.014-0.057 0.017-0.057 0.02-0.055 0.022-0.055 0.026-0.053 0.028-0.051 0.031-0.05 0.033-0.048 0.036-0.046 0.038-0.044 0.041-0.042 0.042-0.04 0.045-0.037 0.047-0.035 0.049-0.033 0.05-0.03 0.051-0.028 0.054-0.024 0.055-0.022 0.056-0.019 0.056-0.016 0.058-0.102 0.407 0.381-2.03 9e-3 -0.059 7e-3 -0.06 3e-3 -0.06v-0.059l-2e-3 -0.06-6e-3 -0.06-8e-3 -0.059-0.012-0.059-0.014-0.058-0.018-0.058-0.02-0.056-0.023-0.055-0.026-0.054-0.029-0.053-0.031-0.051-0.034-0.05-0.036-0.047-0.039-0.046-0.041-0.044-0.043-0.041-0.045-0.04-0.047-0.037-0.049-0.034-0.051-0.032-0.052-0.03-0.053-0.027-0.055-0.024-0.057-0.021-0.056-0.018-0.058-0.016-0.059-0.012-0.059-0.01-0.059-6e-3 -0.06-4e-3 -0.061-1e-3 -0.059 3e-3 -0.06 6e-3 -0.059 8e-3 -0.059 0.012-0.058 0.014-0.057 0.018-0.057 0.02-0.055 0.023-0.054 0.026-0.053 0.029-0.051 0.031-0.049 0.034-0.048 0.037-0.045 0.038-0.044 0.041-0.042 0.043-0.039 0.045-0.037 0.047-0.035 0.049-0.032 0.051-0.03 0.052-0.027 0.054-0.023 0.054-0.022 0.057-0.018 0.057-0.016 0.057-0.012 0.059-0.617 3.293h-0.039z" fill="#434895"/>
                <path d="m28.353 16.262-0.828 4.967" fill="none" stroke="#000" stroke-linecap="round" stroke-linejoin="miter" stroke-miterlimit="1.5" stroke-width=".47px"/>
                <path d="m25.278 15.789v4.731" fill="none" stroke="#000" stroke-linecap="round" stroke-linejoin="miter" stroke-miterlimit="1.5" stroke-width=".47px"/>
                <path d="m22.44 15.789v4.494" fill="none" stroke="#000" stroke-linecap="round" stroke-linejoin="miter" stroke-miterlimit="1.5" stroke-width=".47px"/>
                <g fill="#252368">
                    <path d="m27.056 16.415c-0.483-0.12-1.016 0.345-1.189 1.038s0.079 1.353 0.563 1.474c0.483 0.121 1.016-0.344 1.189-1.037s-0.079-1.354-0.563-1.475z"/>
                    <path d="m29.218 18.58c-0.402-0.1-0.838 0.26-0.973 0.802-0.135 0.543 0.081 1.065 0.483 1.166 0.402 0.1 0.838-0.259 0.973-0.803 0.136-0.543-0.08-1.065-0.483-1.165z"/>
                    <ellipse cx="23.855" cy="16.972" rx=".946" ry="1.419"/>
                    <path d="m20.462 16.326c-0.468 0.117-0.703 0.791-0.525 1.506 0.178 0.714 0.703 1.2 1.171 1.083s0.703-0.792 0.526-1.506c-0.179-0.715-0.703-1.2-1.172-1.083z"/>
                    <path d="m17.938 22.168c-0.428 0.428-0.28 1.27 0.33 1.88s1.453 0.758 1.88 0.331c0.427-0.428 0.279-1.27-0.331-1.88s-1.452-0.758-1.879-0.331z"/>
                    <path d="m27.407 25.088c0-0.502-0.199-0.983-0.554-1.338l-1.419-1.419c-0.355-0.355-0.836-0.554-1.338-0.554s-0.983 0.199-1.338 0.554c-0.496 0.496-1.032 1.031-1.419 1.419-0.355 0.355-0.555 0.836-0.555 1.338v0.237c0 0.437 0.202 0.85 0.546 1.118 0.345 0.27 0.794 0.365 1.218 0.259 0.434-0.109 0.843-0.211 1.085-0.272 0.151-0.037 0.304-0.056 0.459-0.056h8e-3c0.154 0 0.308 0.019 0.458 0.056 0.243 0.061 0.652 0.163 1.086 0.272 0.424 0.106 0.873 0.011 1.217-0.259 0.345-0.268 0.546-0.681 0.546-1.118v-0.237z"/>
                </g>
            
            <path d="m6.526 5.5c0.247 0.011 0.472 0.103 0.656 0.269 1.034 0.998 2.051 2.015 3.049 3.049 0.101 0.112 0.179 0.24 0.224 0.384 0.037 0.121 0.052 0.249 0.042 0.376-9e-3 0.114-0.038 0.227-0.085 0.332-0.154 0.342-0.495 0.573-0.869 0.589-0.103 5e-3 -0.207-7e-3 -0.307-0.035-0.158-0.043-0.298-0.124-0.418-0.233-1.034-0.998-2.05-2.015-3.049-3.049-0.093-0.103-0.167-0.22-0.213-0.352-0.034-0.098-0.053-0.201-0.056-0.304-9e-3 -0.362 0.185-0.709 0.498-0.891 0.14-0.081 0.297-0.124 0.459-0.134 0.035-1e-3 0.034-1e-3 0.069-1e-3zm19.017 1e-3c0.139 8e-3 0.273 0.04 0.399 0.102 0.324 0.16 0.541 0.492 0.557 0.854 5e-3 0.103-7e-3 0.207-0.035 0.307-0.043 0.158-0.124 0.298-0.233 0.418-0.998 1.034-2.015 2.051-3.049 3.049-0.112 0.101-0.24 0.179-0.384 0.224-0.121 0.037-0.249 0.052-0.376 0.042-0.114-9e-3 -0.227-0.038-0.332-0.085-0.342-0.154-0.573-0.495-0.589-0.869-5e-3 -0.103 7e-3 -0.207 0.035-0.307 0.043-0.158 0.124-0.298 0.233-0.418 0.998-1.034 2.015-2.051 3.049-3.049 0.184-0.166 0.409-0.258 0.656-0.269 0.035 0 0.034 0 0.069 1e-3zm-9.483-3.499c0.106 8e-3 0.209 0.029 0.309 0.069 0.26 0.103 0.469 0.316 0.568 0.579 0.037 0.1 0.056 0.204 0.062 0.31 0.027 1.36 0.027 2.72 0 4.08-9e-3 0.16-0.05 0.314-0.13 0.454-0.179 0.316-0.526 0.513-0.889 0.506-0.106-2e-3 -0.212-0.021-0.312-0.057-0.112-0.039-0.217-0.099-0.309-0.176-0.102-0.085-0.186-0.19-0.247-0.308-0.068-0.131-0.102-0.272-0.111-0.419-0.027-1.36-0.027-2.72 0-4.08 6e-3 -0.106 0.025-0.21 0.062-0.31 0.094-0.25 0.288-0.456 0.531-0.564 0.098-0.043 0.201-0.068 0.307-0.081 0.053-4e-3 0.105-5e-3 0.159-3e-3z" fill="#fff"/>
        </g>
    </g>
</svg>
