<?xml version="1.0" encoding="UTF-8"?>
<!DOCTYPE svg  PUBLIC '-//W3C//DTD SVG 1.1//EN'  'http://www.w3.org/Graphics/SVG/1.1/DTD/svg11.dtd'>
<svg clip-rule="evenodd" fill-rule="evenodd" stroke-linejoin="round" stroke-miterlimit="2" version="1.1" viewBox="0 0 32 32" xml:space="preserve" xmlns="http://www.w3.org/2000/svg" xmlns:serif="http://www.serif.com/">
<metadata>
<rdf:RDF xmlns:cc="http://web.resource.org/cc/" xmlns:dc="http://purl.org/dc/elements/1.1/" xmlns:rdf="http://www.w3.org/1999/02/22-rdf-syntax-ns#">

     <rdf:Description rdf:about="">
       <dc:title>Mutant Standard emoji 2023.12</dc:title>
     </rdf:Description>

    <cc:work rdf:about="">
        <cc:license rdf:resource="http://creativecommons.org/licenses/by-nc-sa/4.0/"/>
        <cc:attributionName>Caius Nocturne</cc:attributionName>
        <cc:attributionURL>http://mutant.tech/</cc:attributionURL>
    </cc:work>

</rdf:RDF>
</metadata>

    <rect id="selfie--paw-" width="32" height="32" fill="none" serif:id="selfie [paw]"/>
    <clipPath id="_clip1">
        <rect width="32" height="32"/>
    </clipPath>
    <g clip-path="url(#_clip1)">
        <g id="outline">
            <path d="m14 8v-4c0-1.061 0.421-2.078 1.172-2.828 0.75-0.751 1.767-1.172 2.828-1.172h6c1.061 0 2.078 0.421 2.828 1.172 0.751 0.75 1.172 1.767 1.172 2.828v1.1c1.281 1.307 2 3.066 2 4.898v6.517c0 2.121-0.843 4.156-2.343 5.657l-0.936 0.936-3.335 8.892h-14.994l5.938-9.502-0.93-0.698c-1.505-1.164-2.372-2.897-2.4-4.8v-0.757l-1.879 1.878c-1.17 1.171-3.072 1.171-4.242 0-1.171-1.17-1.171-3.072 0-4.242l0.878-0.879h-0.757c-1.656 0-3-1.344-3-3s1.344-3 3-3h0.757l-0.878-0.879c-1.171-1.17-1.171-3.072 0-4.242 1.17-1.171 3.072-1.171 4.242 0l2 2c1.132 1.131 1.17 2.944 0.115 4.121h2.764z"/>
        </g>
        <g id="emoji">
            <path d="m25 22-3 8h-10l5-8 1-1h6l1 1z" fill="#B58D71"/>
            <path d="m23.002 5c1.326 0 2.597 0.527 3.534 1.464s1.464 2.208 1.464 3.534v6.517c0 1.591-0.632 3.117-1.757 4.242l-1.243 1.243h-8l-2.4-1.8c-0.743-0.557-1.277-1.371-1.492-2.275-0.072-0.303-0.107-0.614-0.108-0.925v-5h6l4-7h2e-3z" fill="#CBB39C"/>
            
                <path d="m26 4c0-0.53-0.211-1.039-0.586-1.414s-0.884-0.586-1.414-0.586h-6c-0.53 0-1.039 0.211-1.414 0.586s-0.586 0.884-0.586 1.414v12c0 0.53 0.211 1.039 0.586 1.414s0.884 0.586 1.414 0.586h6c0.53 0 1.039-0.211 1.414-0.586s0.586-0.884 0.586-1.414v-12z" fill="#fff"/>
                <path d="m23 3h1c0.552 0 1 0.448 1 1v12c0 0.552-0.448 1-1 1-0.296 0-1-1-1-1h-4s-0.722 1-1 1c-0.552 0-1-0.448-1-1v-12c0-0.552 0.448-1 1-1h1v1h4v-1z"/>
                <path d="m22 11c1.105 0 2 0.895 2 2v4h-6v-4c0-1.105 0.895-2 2-2h2zm-1-5c1.104 0 2 0.896 2 2s-0.896 2-2 2-2-0.896-2-2 0.896-2 2-2z" fill="#333"/>
            
            <path d="m13 10h7v1c0 0.796-0.316 1.559-0.879 2.121-0.562 0.563-1.325 0.879-2.121 0.879h-4v-4z" fill="#CBB39C"/>
            <path d="m8.293 13.293-2 2c-0.39 0.39-0.39 1.024 0 1.414s1.024 0.39 1.414 0l2-2c0.39-0.39 0.39-1.024 0-1.414s-1.024-0.39-1.414 0zm0.707-2.293h-4c-0.552 0-1-0.448-1-1s0.448-1 1-1h4c0.552 0 1 0.448 1 1s-0.448 1-1 1zm0.707-5.707-2-2c-0.39-0.39-1.024-0.39-1.414 0s-0.39 1.024 0 1.414l2 2c0.39 0.39 1.024 0.39 1.414 0s0.39-1.024 0-1.414z" fill="#fff"/>
        </g>
    </g>
</svg>
