<?xml version="1.0" encoding="UTF-8"?>
<!DOCTYPE svg  PUBLIC '-//W3C//DTD SVG 1.1//EN'  'http://www.w3.org/Graphics/SVG/1.1/DTD/svg11.dtd'>
<svg clip-rule="evenodd" fill-rule="evenodd" stroke-linejoin="round" stroke-miterlimit="2" version="1.1" viewBox="0 0 32 32" xml:space="preserve" xmlns="http://www.w3.org/2000/svg" xmlns:serif="http://www.serif.com/">
<metadata>
<rdf:RDF xmlns:cc="http://web.resource.org/cc/" xmlns:dc="http://purl.org/dc/elements/1.1/" xmlns:rdf="http://www.w3.org/1999/02/22-rdf-syntax-ns#">

     <rdf:Description rdf:about="">
       <dc:title>Mutant Standard emoji 2023.12</dc:title>
     </rdf:Description>

    <cc:work rdf:about="">
        <cc:license rdf:resource="http://creativecommons.org/licenses/by-nc-sa/4.0/"/>
        <cc:attributionName>Caius Nocturne</cc:attributionName>
        <cc:attributionURL>http://mutant.tech/</cc:attributionURL>
    </cc:work>

</rdf:RDF>
</metadata>

    <rect id="thumbs_up--paw-" width="32" height="32" fill="none" serif:id="thumbs_up [paw]"/>
    <clipPath id="_clip1">
        <rect width="32" height="32"/>
    </clipPath>
    <g clip-path="url(#_clip1)">
        <g id="outline">
            <path d="m8.084 11 2.916-4.582v-6.418c1.051 0 2.103-0.011 3.154 2e-3 0.203 8e-3 0.406 0.02 0.608 0.046 0.443 0.056 0.881 0.163 1.301 0.317 0.772 0.282 1.482 0.725 2.077 1.292 0.629 0.599 1.125 1.335 1.443 2.143 0.182 0.461 0.306 0.946 0.369 1.438 0.026 0.202 0.038 0.405 0.046 0.608 0.011 0.899 2e-3 1.797 2e-3 2.696-2e-3 0.147-0.011 0.293-0.026 0.44 2.043-7e-3 4.086-7e-3 6.128 0.019 0.169 7e-3 0.337 0.019 0.505 0.045 0.39 0.06 0.772 0.178 1.128 0.349 0.462 0.223 0.88 0.535 1.226 0.915 0.324 0.357 0.584 0.774 0.761 1.223 0.171 0.434 0.265 0.898 0.277 1.365 0.01 0.403-0.041 0.808-0.151 1.196-0.079 0.278-0.188 0.547-0.325 0.801 0.156 0.127 0.303 0.265 0.438 0.414 0.325 0.358 0.584 0.774 0.761 1.223 0.284 0.719 0.352 1.517 0.197 2.274-0.085 0.417-0.238 0.819-0.45 1.187-0.102 0.178-0.218 0.348-0.346 0.508 0.25 0.311 0.452 0.66 0.599 1.032 0.171 0.434 0.265 0.898 0.277 1.365 0.01 0.403-0.041 0.808-0.151 1.196-0.133 0.468-0.352 0.911-0.644 1.301-0.381 0.51-0.884 0.925-1.457 1.204 0.155 0.415 0.241 0.856 0.252 1.299 0.01 0.403-0.041 0.808-0.151 1.196-0.15 0.53-0.411 1.026-0.762 1.451-0.409 0.496-0.937 0.89-1.528 1.14-0.491 0.207-1.014 0.308-1.545 0.315h-6.026c-5.029 0-10.058 0.061-15.086-1e-3 -0.099-4e-3 -0.099-4e-3 -0.198-0.01-0.425-0.037-0.839-0.13-1.234-0.293-1.004-0.416-1.81-1.242-2.201-2.256-0.166-0.43-0.25-0.881-0.267-1.341-0.054-4.399-0.054-8.799 0-13.198 0.017-0.46 0.101-0.911 0.267-1.341 0.224-0.581 0.585-1.107 1.047-1.525 0.412-0.373 0.901-0.658 1.428-0.833 0.403-0.133 0.821-0.197 1.244-0.202h4.097z"/>
        </g>
        <g id="emoji">
            <path d="m16.5 13h-12.5c-0.53 0-1.039 0.211-1.414 0.586s-0.586 0.884-0.586 1.414v13c0 0.53 0.211 1.039 0.586 1.414s0.884 0.586 1.414 0.586h12.5v-17z" fill="#B72477"/>
            <path d="m13 7s-3.508 5.512-5.557 8.733c-0.942 1.48-1.443 3.199-1.443 4.955v2.017c0 1.934 0.769 3.79 2.137 5.158s3.224 2.137 5.158 2.137h6.455l2.233-2 0.017-15-2.25-2h-1.132c-0.347 0-0.668-0.179-0.851-0.474-0.182-0.295-0.198-0.663-0.043-0.973 0.022-0.045 0.044-0.089 0.065-0.131 0.139-0.277 0.211-0.584 0.211-0.894v-2.528c0-2.209-1.791-4-4-4h-1v5z" fill="#ED399F"/>
            <path d="m15.448 13c0.994 0 1.947 0.395 2.65 1.098l3.574 3.574c1.562 1.562 1.562 4.094 0 5.656l-3.574 3.574c-0.703 0.703-1.656 1.098-2.65 1.098h-1e-3c-1.262 0-2.447-0.607-3.185-1.63-0.738-1.024-0.939-2.34-0.539-3.538 0.224-0.674 0.425-1.276 0.566-1.7 0.137-0.41 0.137-0.854 0-1.264-0.141-0.424-0.342-1.026-0.566-1.7-0.4-1.198-0.199-2.514 0.539-3.538 0.738-1.023 1.923-1.63 3.185-1.63h1e-3z" fill="#A11B67"/>
            <path d="m19.763 11h6.237v2h2v10h-1v5h-2.017l0.017 2h-5.236c-0.045-0.051-0.089-0.103-0.131-0.156-0.225-0.29-0.397-0.62-0.503-0.971-0.086-0.283-0.13-0.578-0.13-0.873 0-0.824 0.349-1.627 0.95-2.19-0.153-0.056-0.302-0.125-0.445-0.208-0.27-0.155-0.516-0.353-0.726-0.584-0.227-0.25-0.412-0.538-0.543-0.849-0.304-0.718-0.314-1.545-0.028-2.271 0.133-0.336 0.328-0.648 0.571-0.916 0.167-0.183 0.356-0.346 0.562-0.483-0.269-0.178-0.509-0.4-0.708-0.655-0.225-0.29-0.397-0.62-0.503-0.971-0.086-0.283-0.13-0.578-0.13-0.873 0-0.841 0.363-1.659 0.986-2.224 0.2-0.181 0.425-0.335 0.666-0.456 0.097-0.049 0.196-0.092 0.297-0.129-0.059-0.056-0.116-0.113-0.17-0.173-0.227-0.25-0.412-0.538-0.543-0.849-0.304-0.718-0.314-1.545-0.028-2.27 0.13-0.33 0.319-0.635 0.555-0.899z" fill="#780953"/>
            <path d="m25.002 30h-3.002c-1.105 0-2-0.895-2-2v-2e-3c0-1.103 0.895-1.998 1.998-1.998h3.002c1.105 0 2 0.895 2 2v2e-3c0 1.103-0.895 1.998-1.998 1.998zm2-5h-6.004c-1.103 0-1.998-0.895-1.998-1.998v-4e-3c0-1.103 0.895-1.998 1.998-1.998h6.004c1.103 0 1.998 0.895 1.998 1.998v4e-3c0 1.103-0.895 1.998-1.998 1.998zm0-5h-6.004c-1.103 0-1.998-0.895-1.998-1.998v-4e-3c0-1.103 0.895-1.998 1.998-1.998h6.004c1.103 0 1.998 0.895 1.998 1.998v4e-3c0 1.103-0.895 1.998-1.998 1.998zm-1.002-9c1.105 0 2 0.895 2 2s-0.895 2-2 2h-4c-0.279-1e-3 -0.557-0.058-0.812-0.172-0.239-0.106-0.456-0.259-0.636-0.448-0.172-0.181-0.31-0.393-0.404-0.624-0.087-0.212-0.136-0.438-0.146-0.666-0.01-0.219 0.016-0.439 0.077-0.649 0.055-0.187 0.137-0.366 0.243-0.529 0.234-0.362 0.586-0.642 0.99-0.791 0.221-0.08 0.454-0.12 0.688-0.121h4z" fill="#ED399F"/>
        </g>
    </g>
</svg>
