<?xml version="1.0" encoding="UTF-8"?>
<!DOCTYPE svg  PUBLIC '-//W3C//DTD SVG 1.1//EN'  'http://www.w3.org/Graphics/SVG/1.1/DTD/svg11.dtd'>
<svg clip-rule="evenodd" fill-rule="evenodd" stroke-linejoin="round" stroke-miterlimit="2" version="1.1" viewBox="0 0 32 32" xml:space="preserve" xmlns="http://www.w3.org/2000/svg" xmlns:serif="http://www.serif.com/">
<metadata>
<rdf:RDF xmlns:cc="http://web.resource.org/cc/" xmlns:dc="http://purl.org/dc/elements/1.1/" xmlns:rdf="http://www.w3.org/1999/02/22-rdf-syntax-ns#">

     <rdf:Description rdf:about="">
       <dc:title>Mutant Standard emoji 2023.12</dc:title>
     </rdf:Description>

    <cc:work rdf:about="">
        <cc:license rdf:resource="http://creativecommons.org/licenses/by-nc-sa/4.0/"/>
        <cc:attributionName>Caius Nocturne</cc:attributionName>
        <cc:attributionURL>http://mutant.tech/</cc:attributionURL>
    </cc:work>

</rdf:RDF>
</metadata>

    <rect id="v--paw-" width="32" height="32" fill="none" serif:id="v [paw]"/>
    <clipPath id="_clip1">
        <rect width="32" height="32"/>
    </clipPath>
    <g clip-path="url(#_clip1)">
        <g id="Layer10">
            <path d="m19.25 3.52c0.755-2.176 3.064-3.455 5.341-2.886 2.41 0.603 3.877 3.048 3.275 5.457l-1.866 7.463v1.77c0.832 0.315 1.575 0.85 2.142 1.563 0.948 1.193 1.301 2.753 0.959 4.237-0.116 0.502-0.238 1.032-0.363 1.574-1.257 5.445-6.105 9.302-11.693 9.302l-0.045-0.018v0.014h-1.035c-5.571 0-10.426-3.79-11.778-9.194-0.609-2.431-1.178-4.706-1.178-4.706-0.603-2.409 0.864-4.855 3.273-5.457 0.165-0.042 0.331-0.073 0.495-0.096 0.188-1.832 1.498-3.436 3.387-3.909 0.358-0.089 0.718-0.133 1.072-0.135l-0.602-2.408c-0.602-2.409 0.865-4.854 3.275-5.457 2.277-0.569 4.586 0.71 5.341 2.886z"/>
        </g>
        <g id="Layer9">
            <path d="m7 15c2.268-2.268 2.496-1.997 5-4 0.736-0.589 1.057-2 2-2s1.333 1.333 2 2l8 4v9l-8-2h-9v-1.606c-0.517-0.015-1.015-0.156-1.455-0.402l-0.558-2.229 2.013-2.763z" fill="#400B71"/>
            <path d="m24.229 17c0.914 0 1.778 0.417 2.348 1.132 0.569 0.716 0.781 1.652 0.575 2.543-0.116 0.502-0.238 1.032-0.363 1.574-1.047 4.537-5.088 7.751-9.744 7.751h-0.045c1e-3 -1e-3 1e-3 -3e-3 2e-3 -4e-3h-2e-3 -1.035c-4.653 0-8.709-3.166-9.838-7.679l-0.582-2.325c0.681 0.381 1.503 0.511 2.316 0.308 0.01-2e-3 0.021-5e-3 0.031-8e-3 0.933-0.233 1.709-0.877 2.111-1.75 0.138-0.299 0.226-0.614 0.266-0.933 0.694 0.426 1.549 0.577 2.385 0.368 1e-3 0 2e-3 -1e-3 2e-3 -1e-3 0.201-0.05 0.393-0.119 0.574-0.205-0.02 0.019 0.978 0.078 0.909-0.655 0.538-0.562 0.861-1.321 0.861-2.141v-0.447c0-0.405-0.068-0.807-0.2-1.19l-1.059-3.064-1.166-4.668c-0.335-1.338 0.48-2.697 1.819-3.031 1.338-0.335 2.697 0.48 3.031 1.819l1.825 7.298 1.825-7.298c0.088-0.344 0.243-0.666 0.463-0.944 0.2-0.252 0.448-0.465 0.728-0.624 0.271-0.154 0.57-0.257 0.879-0.301 0.277-0.04 0.561-0.032 0.836 0.022 0.269 0.052 0.529 0.149 0.766 0.286 0.22 0.126 0.42 0.286 0.591 0.473 0.347 0.377 0.574 0.86 0.641 1.369 0.041 0.312 0.02 0.627-0.054 0.931l-1.925 7.702v1.692h-8v1.663l-1 1.337c0 3.314 3.686 6 7 6l1-1v-2h-1c-2.209 0-4-1.791-4-4h6.229zm-19.242 0.763-0.038-0.152c-0.335-1.339 0.48-2.697 1.818-3.032 0.521-0.131 1.045-0.087 1.511 0.094l0.786 1.573c0.295 0.589 0.306 1.28 0.031 1.878s-0.807 1.039-1.446 1.198c-0.01 3e-3 -0.02 5e-3 -0.031 8e-3 -1.119 0.28-2.262-0.365-2.6-1.468l-0.031-0.099zm3.816-4.275c-0.26-1.299 0.546-2.589 1.846-2.913 0.876-0.219 1.761 0.054 2.361 0.645l0.845 2.444c0.096 0.278 0.145 0.57 0.145 0.864v0.447c0 0.961-0.654 1.798-1.586 2.031-1e-3 0-2e-3 1e-3 -3e-3 1e-3 -0.96 0.24-1.958-0.219-2.401-1.105l-1.207-2.414z" fill="#925ADB"/>
            <path d="m23 23v1.158c0 0.923-0.426 1.796-1.154 2.364-0.728 0.569-1.677 0.77-2.574 0.546-0.917-0.229-1.782-0.445-2.294-0.574-0.318-0.079-0.643-0.119-0.97-0.119h-0.016c-0.327 0-0.652 0.04-0.97 0.119-0.512 0.129-1.377 0.345-2.294 0.574-0.897 0.224-1.846 0.023-2.574-0.546-0.728-0.568-1.154-1.441-1.154-2.364v-0.501c0-1.061 0.421-2.078 1.172-2.829l3-3c0.019-0.019 0.038-0.038 0.058-0.057 0.345-0.163 0.652-0.386 0.909-0.655 0.569-0.299 1.207-0.459 1.861-0.459v0.343c0 3.314 2.686 6 6 6h1z" fill="#611DB5"/>
            <path d="m23.704 4.041c1.047 0.261 1.589 1.707 1.21 3.226-0.378 1.52-1.536 2.542-2.583 2.281s-1.589-1.707-1.21-3.227c0.379-1.519 1.536-2.541 2.583-2.28zm-8.943 1e-3c-1.047 0.261-1.596 1.677-1.227 3.16 0.37 1.483 1.52 2.475 2.567 2.214s1.597-1.677 1.227-3.16-1.52-2.475-2.567-2.214z" fill="#611DB5"/>
        </g>
    </g>
</svg>
