<?xml version="1.0" encoding="UTF-8"?>
<!DOCTYPE svg  PUBLIC '-//W3C//DTD SVG 1.1//EN'  'http://www.w3.org/Graphics/SVG/1.1/DTD/svg11.dtd'>
<svg clip-rule="evenodd" fill-rule="evenodd" stroke-linecap="round" stroke-miterlimit="1.5" version="1.1" viewBox="0 0 32 32" xml:space="preserve" xmlns="http://www.w3.org/2000/svg" xmlns:serif="http://www.serif.com/">
<metadata>
<rdf:RDF xmlns:cc="http://web.resource.org/cc/" xmlns:dc="http://purl.org/dc/elements/1.1/" xmlns:rdf="http://www.w3.org/1999/02/22-rdf-syntax-ns#">

     <rdf:Description rdf:about="">
       <dc:title>Mutant Standard emoji 2023.12</dc:title>
     </rdf:Description>

    <cc:work rdf:about="">
        <cc:license rdf:resource="http://creativecommons.org/licenses/by-nc-sa/4.0/"/>
        <cc:attributionName>Caius Nocturne</cc:attributionName>
        <cc:attributionURL>http://mutant.tech/</cc:attributionURL>
    </cc:work>

</rdf:RDF>
</metadata>
<rect id="vulkan--paw-" width="32" height="32" fill="none" serif:id="vulkan [paw]"/><g id="outline"><path d="m8.596 2.001 0.162 6e-3 0.162 0.013 0.162 0.018 0.16 0.024 0.16 0.029 0.159 0.036 0.157 0.041 0.156 0.047 0.153 0.052 0.152 0.058 0.15 0.063 0.147 0.069 0.145 0.074 0.142 0.079 0.139 0.084 0.135 0.09 0.133 0.094 0.129 0.098 0.125 0.104 0.122 0.108 0.118 0.112 0.113 0.116 0.109 0.12 0.105 0.124 0.1 0.128 0.096 0.132 0.091 0.135 0.085 0.138 0.081 0.14 0.076 0.144 0.07 0.147 0.065 0.149 0.06 0.151 0.054 0.153 5 15 0.049 0.155 0.043 0.157 0.037 0.158 0.031 0.159 0.026 0.161 0.02 0.161 0.014 0.162 9e-3 0.162 2e-3 0.163-3e-3 0.162-0.01 0.162-0.015 0.162-0.021 0.161-0.027 0.16-0.032 0.16-0.039 0.158-0.044 0.156-0.049 0.155-0.055 0.153-0.061 0.15-0.066 0.149-0.071 0.146-0.077 0.143-0.082 0.14-0.086 0.138-0.092 0.134-0.096 0.131-0.101 0.127-0.106 0.124-0.11 0.119-0.114 0.116-0.119 0.111-0.122 0.107-0.126 0.103-0.13 0.098-0.133 0.093-0.136 0.088-0.14 0.083-0.142 0.079-0.145 0.073-0.148 0.067-0.15 0.063-0.152 0.057-0.154 0.051-0.156 0.046-0.158 0.04-0.158 0.034-0.16 0.029-0.161 0.023-0.162 0.017-0.162 0.011-0.162 5e-3h-0.163l-0.162-6e-3 -0.162-0.013-0.162-0.018-0.16-0.024-0.16-0.029-0.159-0.036-0.157-0.041-0.156-0.047-0.153-0.052-0.152-0.058-0.15-0.063-0.147-0.069-0.145-0.074-0.142-0.079-0.139-0.084-0.135-0.09-0.133-0.094-0.129-0.098-0.125-0.104-0.122-0.108-0.118-0.112-0.113-0.116-0.109-0.12-0.105-0.124-0.1-0.128-0.096-0.132-0.091-0.135-0.085-0.138-0.081-0.141-0.076-0.143-0.07-0.147-0.065-0.149-0.06-0.151-0.054-0.153-5-15-0.049-0.155-0.043-0.157-0.037-0.158-0.031-0.159-0.026-0.161-0.02-0.161-0.014-0.162-9e-3 -0.162-2e-3 -0.163 3e-3 -0.162 0.01-0.162 0.015-0.162 0.021-0.161 0.027-0.16 0.032-0.16 0.039-0.158 0.044-0.156 0.049-0.155 0.055-0.153 0.061-0.15 0.066-0.149 0.071-0.146 0.077-0.143 0.082-0.14 0.086-0.138 0.092-0.134 0.096-0.131 0.102-0.127 0.105-0.124 0.11-0.119 0.114-0.116 0.119-0.111 0.122-0.107 0.126-0.103 0.13-0.098 0.133-0.093 0.136-0.088 0.14-0.083 0.142-0.079 0.145-0.073 0.148-0.067 0.15-0.063 0.152-0.057 0.154-0.051 0.156-0.046 0.158-0.04 0.158-0.034 0.16-0.029 0.161-0.023 0.162-0.017 0.162-0.011 0.162-6e-3 0.163 1e-3z"/><path d="m25.703 3.509 0.157 9e-3 0.156 0.016 0.156 0.02 0.155 0.027 0.154 0.031 0.152 0.037 0.152 0.042 0.149 0.048 0.148 0.052 0.146 0.058 0.144 0.063 0.142 0.068 0.139 0.073 0.137 0.077 0.134 0.082 0.13 0.087 0.128 0.092 0.125 0.096 0.121 0.1 0.117 0.104 0.114 0.108 0.11 0.112 0.106 0.116 0.102 0.12 0.097 0.123 0.094 0.126 0.088 0.13 0.084 0.133 0.08 0.135 0.075 0.138 0.07 0.141 0.065 0.143 0.059 0.145 0.055 0.147 0.05 0.149 0.044 0.151 0.039 0.152 0.034 0.154 0.028 0.154 0.023 0.155 0.018 0.156 0.012 0.157 7e-3 0.157 1e-3 0.157-5e-3 0.157-9e-3 0.157-0.016 0.156-0.02 0.156-0.027 0.155-0.031 0.154-0.037 0.152-0.042 0.152-0.048 0.149-0.052 0.148-0.058 0.146-0.063 0.144-0.068 0.142-7.005 13.996-0.073 0.139-0.077 0.137-0.082 0.134-0.087 0.13-0.092 0.128-0.095 0.125-0.101 0.121-0.104 0.117-0.108 0.114-0.112 0.11-0.116 0.106-0.12 0.102-0.123 0.097-0.126 0.094-0.13 0.088-0.133 0.084-0.135 0.08-0.138 0.075-0.141 0.07-0.143 0.065-0.145 0.059-0.147 0.055-0.149 0.05-0.151 0.044-0.152 0.039-0.154 0.034-0.154 0.028-0.155 0.023-0.156 0.018-0.157 0.012-0.157 7e-3 -0.157 1e-3 -0.157-5e-3 -0.157-9e-3 -0.156-0.016-0.156-0.02-0.155-0.027-0.154-0.031-0.152-0.037-0.152-0.042-0.149-0.048-0.148-0.052-0.146-0.058-0.144-0.063-0.142-0.068-0.139-0.073-0.137-0.077-0.134-0.082-0.13-0.087-0.128-0.092-0.125-0.096-0.121-0.1-0.117-0.104-0.114-0.108-0.11-0.112-0.106-0.116-0.102-0.12-0.097-0.123-0.093-0.126-0.089-0.13-0.084-0.133-0.08-0.135-0.075-0.138-0.07-0.141-0.064-0.143-0.06-0.145-0.055-0.147-0.05-0.149-0.044-0.151-0.039-0.152-0.034-0.154-0.028-0.154-0.023-0.155-0.018-0.157-0.012-0.156-7e-3 -0.157-1e-3 -0.157 5e-3 -0.157 9e-3 -0.157 0.016-0.156 0.021-0.156 0.026-0.155 0.031-0.154 0.037-0.152 0.042-0.152 0.048-0.149 0.052-0.148 0.058-0.146 0.063-0.144 0.068-0.142 7.005-13.996 0.073-0.139 0.077-0.137 0.082-0.134 0.087-0.131 0.092-0.127 0.096-0.125 0.1-0.121 0.104-0.117 0.108-0.114 0.112-0.11 0.116-0.106 0.12-0.102 0.123-0.097 0.126-0.094 0.13-0.088 0.133-0.085 0.135-0.079 0.138-0.075 0.141-0.07 0.143-0.065 0.145-0.059 0.147-0.055 0.149-0.05 0.151-0.044 0.152-0.039 0.154-0.034 0.154-0.028 0.155-0.023 0.157-0.018 0.156-0.012 0.157-7e-3 0.157-1e-3 0.157 5e-3z"/><path d="m20.729 0.506 0.162 0.011 0.162 0.017 0.161 0.023 0.16 0.029 0.158 0.034 0.158 0.04 0.156 0.046 0.154 0.051 0.152 0.057 0.15 0.063 0.148 0.067 0.145 0.073 0.142 0.079 0.14 0.083 0.136 0.088 0.133 0.093 0.13 0.098 0.126 0.103 0.122 0.107 0.119 0.111 0.114 0.116 0.11 0.119 0.106 0.124 0.101 0.127 0.096 0.131 0.092 0.134 0.086 0.138 0.082 0.14 0.077 0.143 0.071 0.146 0.066 0.149 0.061 0.15 0.055 0.153 0.049 0.155 0.044 0.156 0.039 0.158 0.032 0.16 0.027 0.16 0.021 0.161 0.015 0.162 0.01 0.162 3e-3 0.162-2e-3 0.163-9e-3 0.162-0.014 0.162-0.02 0.161-0.026 0.161-0.031 0.159-0.037 0.158-0.043 0.157-0.049 0.155-5 15-0.054 0.153-0.06 0.151-0.065 0.149-0.07 0.147-0.076 0.143-0.081 0.141-0.085 0.138-0.091 0.135-0.096 0.132-0.1 0.128-0.105 0.124-0.109 0.12-0.113 0.116-0.118 0.112-0.122 0.108-0.125 0.104-0.129 0.098-0.133 0.094-0.135 0.09-0.139 0.084-0.142 0.079-0.145 0.074-0.147 0.069-0.15 0.063-0.152 0.058-0.153 0.052-0.156 0.047-0.157 0.041-0.159 0.036-0.16 0.029-0.16 0.024-0.162 0.018-0.162 0.013-0.162 6e-3h-0.163l-0.162-5e-3 -0.162-0.011-0.162-0.017-0.161-0.023-0.16-0.029-0.158-0.034-0.158-0.04-0.156-0.046-0.154-0.051-0.152-0.057-0.15-0.063-0.148-0.067-0.145-0.073-0.142-0.079-0.14-0.083-0.136-0.088-0.133-0.093-0.13-0.098-0.126-0.103-0.122-0.107-0.119-0.111-0.114-0.116-0.11-0.119-0.106-0.124-0.101-0.127-0.096-0.131-0.092-0.134-0.086-0.138-0.082-0.14-0.077-0.143-0.071-0.146-0.066-0.149-0.061-0.15-0.055-0.153-0.049-0.155-0.044-0.156-0.039-0.158-0.032-0.16-0.027-0.16-0.021-0.161-0.015-0.162-0.01-0.162-3e-3 -0.162 2e-3 -0.163 9e-3 -0.162 0.014-0.162 0.02-0.161 0.026-0.161 0.031-0.159 0.037-0.158 0.043-0.157 0.049-0.155 5-15 0.054-0.153 0.06-0.151 0.065-0.149 0.07-0.147 0.076-0.144 0.081-0.14 0.085-0.138 0.091-0.135 0.096-0.132 0.1-0.128 0.105-0.124 0.109-0.12 0.113-0.116 0.118-0.112 0.122-0.108 0.125-0.104 0.129-0.098 0.133-0.094 0.135-0.09 0.139-0.084 0.142-0.079 0.145-0.074 0.147-0.069 0.15-0.063 0.152-0.058 0.153-0.052 0.156-0.047 0.157-0.041 0.159-0.036 0.16-0.029 0.16-0.024 0.162-0.018 0.162-0.013 0.162-6e-3 0.163-1e-3 0.162 6e-3z"/><path d="m26.976 15.667 0.145 8e-3 0.145 0.013 0.144 0.017 0.144 0.021 0.143 0.025 0.143 0.029 0.141 0.034 0.141 0.037 0.139 0.042 0.138 0.045 0.137 0.05 0.135 0.053 0.134 0.058 0.132 0.061 0.13 0.065 0.128 0.069 0.126 0.073 0.124 0.076 0.121 0.08 0.119 0.083 0.117 0.087 0.114 0.09 0.112 0.094 0.109 0.096 0.105 0.1 0.103 0.103 0.1 0.105 0.097 0.109 0.094 0.111 0.09 0.114 0.087 0.117 0.083 0.119 0.081 0.121 0.076 0.124 0.073 0.126 0.069 0.128 0.065 0.13 0.062 0.132 0.058 0.133 0.053 0.135 0.05 0.137 0.046 0.138 0.042 0.139 0.038 0.141 0.033 0.141 0.03 0.142 0.025 0.144 0.022 0.144 0.017 0.144 0.012 0.145 9e-3 0.145 4e-3 0.145v0.146l-4e-3 0.145-8e-3 0.145-0.013 0.145-0.016 0.145-0.021 0.144-0.025 0.143-0.03 0.142-0.033 0.142-0.038 0.141-0.041 0.139-0.046 0.138-0.049 0.137-0.054 0.135-0.058 0.134-0.061 0.131-0.065 0.13-0.069 0.128-0.073 0.127-0.076 0.123-0.08 0.122-0.083 0.119-0.087 0.117-0.09 0.114-0.093 0.112-0.097 0.108-0.099 0.106-0.103 0.103-0.106 0.1-0.109 0.097-0.111 0.093-5.868 4.789-0.09 0.073-0.101 0.08-0.102 0.078-0.102 0.077-0.103 0.076-0.104 0.075-0.104 0.074-0.106 0.073-0.106 0.071-0.106 0.07-0.107 0.069-0.108 0.068-0.109 0.067-0.109 0.065-0.111 0.065-0.11 0.063-0.222 0.122-0.113 0.059-0.114 0.058-0.113 0.057-0.114 0.056-0.23 0.108-0.116 0.052-0.116 0.05-0.117 0.05-0.117 0.048-0.118 0.047-0.118 0.046-0.118 0.044-0.12 0.043-0.119 0.042-0.121 0.041-0.12 0.039-0.121 0.038-0.122 0.037-0.121 0.035-0.122 0.035-0.123 0.033-0.122 0.031-0.124 0.031-0.123 0.029-0.124 0.027-0.125 0.027-0.125 0.025-0.124 0.023-0.125 0.023-0.126 0.021-0.126 0.02-0.126 0.018-0.126 0.017-0.127 0.016-0.126 0.014-0.128 0.013-0.127 0.012-0.127 0.01-0.128 9e-3 -0.128 8e-3 -0.128 6e-3 -0.127 5e-3 -0.129 3e-3 -0.129 2e-3 -0.115 1e-3h-0.547l-0.145-2e-3 -0.146-6e-3 -0.145-0.011-0.144-0.015-0.145-0.019-0.143-0.023-0.143-0.027-0.142-0.032-0.141-0.035-0.14-0.04-0.139-0.044-0.137-0.048-0.136-0.051-0.134-0.056-0.133-0.059-0.131-0.064-0.129-0.067-0.127-0.071-0.125-0.074-0.123-0.079-0.12-0.081-0.118-0.085-0.115-0.089-0.113-0.092-0.11-0.095-0.107-0.098-0.105-0.101-0.101-0.105-0.098-0.107-0.095-0.11-0.092-0.113-0.089-0.115-0.085-0.118-0.081-0.12-0.079-0.123-0.074-0.125-0.071-0.127-0.067-0.129-0.064-0.131-0.059-0.133-0.056-0.134-0.051-0.136-0.048-0.137-0.044-0.139-0.04-0.14-0.035-0.141-0.032-0.142-0.027-0.143-0.023-0.143-0.019-0.145-0.015-0.144-0.011-0.145-6e-3 -0.146-2e-3 -0.145 2e-3 -0.145 6e-3 -0.146 0.011-0.145 0.015-0.144 0.019-0.145 0.023-0.143 0.027-0.143 0.032-0.142 0.035-0.141 0.04-0.14 0.044-0.139 0.048-0.137 0.051-0.136 0.056-0.134 0.059-0.133 0.064-0.131 0.067-0.129 0.071-0.127 0.074-0.125 0.079-0.123 0.081-0.12 0.085-0.118 0.089-0.115 0.092-0.113 0.095-0.11 0.098-0.107 0.101-0.105 0.105-0.101 0.107-0.098 0.11-0.095 0.113-0.092 0.115-0.089 0.118-0.085 0.12-0.081 0.123-0.079 0.125-0.074 0.127-0.071 0.129-0.067 0.131-0.064 0.133-0.059 0.134-0.056 0.136-0.051 0.137-0.048 0.139-0.044 0.14-0.04 0.141-0.035 0.142-0.032 0.143-0.027 0.143-0.023 0.145-0.019 0.144-0.015 0.145-0.011 0.146-6e-3 0.145-2e-3h0.52 0.035l0.02-1e-3h0.02l0.022-1e-3 0.02-1e-3 0.021-1e-3 0.02-1e-3 0.021-2e-3 0.04-4e-3 0.021-2e-3 0.1-0.015 0.021-4e-3 0.04-8e-3 0.019-4e-3 0.02-4e-3 0.06-0.015 0.019-5e-3 0.02-5e-3 0.02-6e-3 0.038-0.012 0.02-7e-3 0.019-6e-3 0.057-0.021 0.02-7e-3 0.018-8e-3 0.057-0.024 0.018-8e-3 0.019-9e-3 0.018-8e-3 0.019-9e-3 0.018-9e-3 0.017-0.01 0.018-9e-3 0.019-0.01 0.018-0.01 0.017-0.01 0.018-0.01 0.017-0.011 0.018-0.01 0.034-0.022 0.017-0.012 0.017-0.011 0.017-0.012 0.017-0.011 0.017-0.012 0.016-0.013 0.017-0.012 0.016-0.013 0.016-0.012 0.026-0.022 5.849-4.772 0.114-0.091 0.116-0.087 0.119-0.083 0.122-0.08 0.123-0.077 0.126-0.072 0.128-0.07 0.13-0.065 0.132-0.061 0.133-0.058 0.136-0.054 0.136-0.05 0.138-0.046 0.139-0.042 0.141-0.037 0.141-0.034 0.143-0.03 0.143-0.025 0.144-0.021 0.144-0.017 0.145-0.013 0.145-9e-3 0.146-4e-3h0.145l0.146 4e-3z"/><path d="m4.67 6.503 0.17 0.01 0.169 0.016 0.169 0.022 0.168 0.029 0.167 0.035 0.165 0.042 0.164 0.048 0.161 0.053 0.16 0.06 0.157 0.066 0.154 0.072 0.152 0.078 0.148 0.083 0.146 0.089 0.141 0.094 0.139 0.1 0.134 0.104 0.13 0.11 0.126 0.115 0.122 0.119 0.117 0.124 0.112 0.128 0.107 0.132 0.102 0.136 0.097 0.14 0.092 0.144 0.086 0.147 0.08 0.15 0.075 0.153 0.069 0.156 0.063 0.158 0.057 0.161 3.755 11.261 0.013 0.041 0.033 0.09 0.011 0.029 0.012 0.029 0.012 0.03 0.012 0.029 0.012 0.028 0.013 0.029 0.013 0.028 8e-3 0.018 0.032 0.066 0.028 0.055 0.029 0.055 0.03 0.053 0.031 0.053 0.032 0.052 0.033 0.052 0.034 0.051 0.035 0.05 0.036 0.049 0.036 0.048 0.038 0.048 0.038 0.047 0.039 0.046 0.082 0.09 0.042 0.044 0.043 0.043 0.043 0.042 0.09 0.082 0.045 0.039 0.047 0.039 0.096 0.074 0.048 0.036 0.05 0.035 0.05 0.034 0.051 0.033 0.051 0.032 0.053 0.031 0.052 0.03 0.053 0.029 0.054 0.028 0.054 0.027 0.055 0.026 0.055 0.025 0.056 0.024 0.056 0.022 0.057 0.022 0.057 0.021 0.058 0.019 0.116 0.036 0.059 0.016 0.059 0.015 0.06 0.014 0.12 0.024 0.061 0.01 0.061 9e-3 0.073 0.01 0.019 2e-3 0.031 3e-3 0.032 3e-3 0.031 3e-3 0.062 4e-3 0.032 2e-3 0.031 1e-3 0.032 2e-3h0.032l0.032 1e-3h0.043 1.482l0.17 3e-3 0.17 0.01 0.17 0.016 0.169 0.023 0.168 0.028 0.166 0.036 0.165 0.041 0.164 0.048 0.161 0.054 0.16 0.06 0.157 0.065 0.154 0.072 0.152 0.078 0.149 0.083 0.145 0.089 0.142 0.094 0.138 0.1 0.134 0.105 0.13 0.109 0.126 0.115 0.122 0.119 0.117 0.124 0.112 0.128 0.107 0.133 0.103 0.136 0.097 0.14 0.091 0.143 0.086 0.147 0.081 0.151 0.074 0.153 0.069 0.155 0.063 0.159 0.057 0.16 0.051 0.163 0.044 0.164 0.039 0.166 0.032 0.167 0.026 0.169 0.019 0.169 0.013 0.17 6e-3 0.17v0.17l-6e-3 0.17-0.013 0.17-0.019 0.169-0.026 0.169-0.032 0.167-0.039 0.166-0.044 0.164-0.051 0.163-0.057 0.161-0.063 0.158-0.069 0.156-0.074 0.153-0.081 0.15-0.086 0.147-0.091 0.143-0.097 0.14-0.103 0.137-0.107 0.132-0.112 0.128-0.117 0.124-0.122 0.119-0.126 0.115-0.13 0.109-0.134 0.105-0.138 0.1-0.142 0.094-0.145 0.089-0.149 0.083-0.152 0.078-0.154 0.072-0.157 0.066-0.16 0.059-0.161 0.054-0.164 0.048-0.165 0.042-0.166 0.035-0.168 0.029-0.169 0.022-0.17 0.016-0.17 0.01-0.17 3e-3h-1.504l-0.111-1e-3 -0.122-1e-3 -0.121-3e-3 -0.122-5e-3 -0.121-5e-3 -0.121-7e-3 -0.121-8e-3 -0.121-9e-3 -0.12-0.01-0.12-0.011-0.12-0.013-0.131-0.015-0.227-0.029-0.237-0.036-0.236-0.04-0.234-0.045-0.234-0.049-0.231-0.054-0.231-0.058-0.228-0.063-0.227-0.067-0.225-0.071-0.224-0.076-0.222-0.079-0.219-0.084-0.218-0.088-0.216-0.092-0.214-0.097-0.211-0.1-0.21-0.104-0.207-0.108-0.206-0.112-0.202-0.116-0.201-0.119-0.198-0.124-0.195-0.127-0.193-0.131-0.191-0.134-0.188-0.138-0.185-0.142-0.182-0.145-0.18-0.149-0.177-0.153-0.174-0.155-0.171-0.159-0.168-0.163-0.165-0.166-0.162-0.169-0.159-0.172-0.156-0.176-0.152-0.179-0.149-0.182-0.146-0.185-0.142-0.188-0.139-0.191-0.135-0.194-0.132-0.197-0.128-0.2-0.124-0.203-0.121-0.206-0.117-0.208-0.112-0.211-0.109-0.214-0.1-0.206-0.056-0.119-0.05-0.11-0.048-0.11-0.048-0.112-0.047-0.111-0.045-0.111-0.045-0.114-0.044-0.114-0.042-0.113-0.041-0.114-0.041-0.115-0.035-0.105-3.762-11.283-0.051-0.162-0.044-0.165-0.039-0.166-0.032-0.167-0.026-0.168-0.019-0.169-0.013-0.17-6e-3 -0.17v-0.171l6e-3 -0.17 0.013-0.17 0.019-0.169 0.026-0.168 0.032-0.168 0.038-0.166 0.045-0.164 0.051-0.163 0.057-0.16 0.063-0.158 0.068-0.156 0.075-0.153 0.081-0.15 0.086-0.147 0.091-0.144 0.097-0.14 0.102-0.136 0.108-0.132 0.112-0.129 0.117-0.123 0.121-0.12 0.126-0.114 0.131-0.11 0.134-0.105 0.138-0.099 0.142-0.095 0.145-0.089 0.149-0.083 0.151-0.078 0.155-0.071 0.157-0.066 0.159-0.06 0.162-0.054 0.163-0.048 0.165-0.041 0.167-0.036 0.168-0.028 0.169-0.023 0.169-0.016 0.17-0.01 0.171-3e-3 0.17 3e-3z"/></g><g id="emoji"><g id="Layer10" fill="#ED9298"><path d="m8.602 4.002 0.12 8e-3 0.12 0.014 0.12 0.019 0.118 0.025 0.117 0.031 0.115 0.036 0.113 0.042 0.111 0.048 0.109 0.053 0.106 0.058 0.103 0.062 0.1 0.068 0.097 0.073 0.093 0.077 0.089 0.082 0.085 0.086 0.081 0.089 0.076 0.094 0.072 0.097 0.067 0.101 0.062 0.103 0.057 0.107 0.051 0.109 0.047 0.112 0.041 0.113 5 15 0.035 0.116 0.03 0.117 0.024 0.118 0.018 0.12 0.013 0.12 7e-3 0.121 1e-3 0.12-5e-3 0.121-0.011 0.12-0.017 0.12-0.022 0.119-0.028 0.117-0.034 0.116-0.039 0.115-0.045 0.112-0.05 0.11-0.055 0.107-0.06 0.105-0.066 0.101-0.07 0.099-0.075 0.095-0.079 0.091-0.084 0.087-0.088 0.083-0.092 0.078-0.095 0.074-0.099 0.07-0.102 0.064-0.105 0.06-0.108 0.054-0.111 0.049-0.112 0.044-0.115 0.038-0.116 0.033-0.118 0.027-0.119 0.021-0.12 0.015-0.12 0.01-0.121 4e-3 -0.121-2e-3 -0.12-8e-3 -0.12-0.014-0.12-0.019-0.118-0.025-0.117-0.031-0.115-0.036-0.113-0.042-0.111-0.048-0.109-0.053-0.106-0.058-0.103-0.062-0.1-0.068-0.097-0.073-0.093-0.077-0.089-0.082-0.085-0.086-0.08-0.089-0.077-0.094-0.072-0.097-0.067-0.101-0.062-0.103-0.057-0.107-0.051-0.109-0.047-0.112-0.041-0.113-5-15-0.035-0.116-0.03-0.117-0.024-0.118-0.018-0.12-0.013-0.12-7e-3 -0.121-1e-3 -0.12 5e-3 -0.121 0.011-0.121 0.017-0.119 0.022-0.119 0.028-0.117 0.034-0.116 0.039-0.115 0.045-0.112 0.05-0.11 0.055-0.107 0.06-0.105 0.066-0.102 0.07-0.098 0.075-0.095 0.079-0.091 0.084-0.087 0.088-0.083 0.092-0.078 0.095-0.074 0.099-0.07 0.102-0.064 0.105-0.06 0.108-0.054 0.111-0.049 0.112-0.044 0.115-0.038 0.116-0.033 0.118-0.027 0.119-0.021 0.12-0.015 0.12-0.01 0.121-4e-3 0.121 2e-3z"/><path d="m25.664 5.509 0.116 0.011 0.116 0.016 0.116 0.021 0.114 0.027 0.113 0.032 0.111 0.037 0.109 0.042 0.107 0.048 0.105 0.052 0.102 0.057 0.1 0.063 0.096 0.066 0.093 0.071 0.09 0.076 0.086 0.079 0.083 0.084 0.078 0.087 0.074 0.091 0.07 0.094 0.065 0.097 0.061 0.1 0.056 0.103 0.051 0.106 0.046 0.108 0.041 0.11 0.035 0.111 0.031 0.113 0.025 0.115 0.02 0.115 0.014 0.117 9e-3 0.117 3e-3 0.117-2e-3 0.117-8e-3 0.117-0.013 0.116-0.019 0.116-0.024 0.115-0.029 0.113-0.035 0.112-0.039 0.111-0.045 0.108-0.05 0.106-7.005 13.996-0.055 0.103-0.06 0.101-0.064 0.098-0.069 0.095-0.073 0.092-0.078 0.088-0.081 0.084-0.086 0.08-0.089 0.076-0.092 0.072-0.096 0.068-0.099 0.063-0.102 0.058-0.104 0.054-0.107 0.048-0.108 0.044-0.111 0.038-0.113 0.033-0.113 0.028-0.116 0.022-0.116 0.017-0.116 0.012-0.117 6e-3 -0.117 1e-3 -0.118-5e-3 -0.116-0.011-0.116-0.016-0.116-0.021-0.114-0.027-0.113-0.032-0.111-0.037-0.109-0.042-0.107-0.048-0.105-0.052-0.102-0.058-0.1-0.062-0.096-0.066-0.093-0.071-0.09-0.076-0.086-0.079-0.082-0.084-0.079-0.087-0.074-0.091-0.07-0.094-0.065-0.097-0.061-0.1-0.056-0.103-0.051-0.106-0.046-0.108-0.041-0.11-0.035-0.111-0.031-0.113-0.025-0.115-0.02-0.115-0.014-0.117-9e-3 -0.117-3e-3 -0.117 2e-3 -0.117 8e-3 -0.117 0.013-0.116 0.019-0.116 0.024-0.115 0.029-0.113 0.035-0.112 0.039-0.111 0.045-0.108 0.05-0.106 7.005-13.996 0.055-0.104 0.06-0.1 0.064-0.098 0.069-0.095 0.073-0.092 0.078-0.088 0.081-0.084 0.086-0.08 0.089-0.076 0.092-0.072 0.096-0.068 0.099-0.063 0.102-0.058 0.104-0.054 0.107-0.048 0.108-0.044 0.111-0.038 0.113-0.033 0.114-0.028 0.115-0.022 0.116-0.017 0.116-0.012 0.117-6e-3 0.117-1e-3 0.118 5e-3z"/><path d="m20.64 2.504 0.12 0.01 0.12 0.015 0.119 0.021 0.118 0.027 0.116 0.033 0.115 0.038 0.112 0.044 0.111 0.049 0.108 0.054 0.105 0.06 0.102 0.064 0.099 0.07 0.095 0.074 0.092 0.078 0.088 0.083 0.084 0.087 0.079 0.091 0.075 0.095 0.07 0.098 0.066 0.102 0.06 0.105 0.055 0.107 0.051 0.11 0.044 0.112 0.039 0.115 0.034 0.116 0.028 0.117 0.022 0.119 0.017 0.12 0.011 0.12 5e-3 0.121-1e-3 0.12-7e-3 0.121-0.013 0.12-0.018 0.12-0.024 0.118-0.03 0.117-0.035 0.116-5 15-0.041 0.113-0.047 0.112-0.051 0.109-0.057 0.107-0.062 0.103-0.067 0.101-0.072 0.097-0.077 0.094-0.08 0.089-0.085 0.086-0.089 0.082-0.093 0.077-0.097 0.073-0.1 0.068-0.103 0.062-0.106 0.058-0.109 0.053-0.111 0.048-0.113 0.042-0.115 0.036-0.117 0.031-0.118 0.025-0.12 0.019-0.12 0.014-0.12 8e-3 -0.121 2e-3 -0.121-4e-3 -0.12-0.01-0.12-0.015-0.119-0.021-0.118-0.027-0.116-0.033-0.115-0.038-0.112-0.044-0.111-0.049-0.108-0.054-0.105-0.06-0.102-0.064-0.099-0.07-0.095-0.074-0.092-0.078-0.088-0.083-0.084-0.087-0.079-0.091-0.075-0.095-0.07-0.099-0.066-0.101-0.06-0.105-0.055-0.107-0.051-0.11-0.044-0.112-0.039-0.115-0.034-0.116-0.028-0.117-0.022-0.119-0.017-0.12-0.011-0.12-5e-3 -0.121 1e-3 -0.12 7e-3 -0.121 0.013-0.12 0.018-0.12 0.024-0.118 0.03-0.117 0.035-0.116 5-15 0.041-0.113 0.047-0.112 0.051-0.109 0.057-0.107 0.062-0.103 0.067-0.101 0.072-0.097 0.077-0.094 0.08-0.089 0.085-0.086 0.089-0.082 0.093-0.077 0.097-0.073 0.1-0.068 0.103-0.062 0.106-0.058 0.109-0.053 0.111-0.048 0.113-0.042 0.115-0.036 0.117-0.031 0.118-0.025 0.12-0.019 0.12-0.014 0.12-8e-3 0.121-2e-3 0.121 4e-3z"/><path d="m26.866 17.664 0.113 6e-3 0.113 0.011 0.113 0.014 0.112 0.019 0.111 0.023 0.11 0.028 0.109 0.031 0.108 0.036 0.107 0.039 0.105 0.044 0.103 0.048 0.101 0.051 0.099 0.055 0.097 0.059 0.095 0.063 0.092 0.066 0.09 0.069 0.087 0.073 0.084 0.076 0.082 0.08 0.078 0.082 0.075 0.085 0.072 0.088 0.068 0.091 0.065 0.093 0.061 0.095 0.058 0.098 0.054 0.1 0.05 0.102 0.046 0.104 0.043 0.105 0.038 0.107 0.034 0.108 0.03 0.11 0.026 0.11 0.022 0.112 0.017 0.112 0.014 0.113 9e-3 0.113 4e-3 0.113 1e-3 0.114-4e-3 0.113-9e-3 0.114-0.012 0.112-0.017 0.113-0.021 0.111-0.025 0.111-0.03 0.11-0.033 0.108-0.038 0.107-0.041 0.106-0.046 0.104-0.049 0.102-0.054 0.1-0.057 0.099-0.061 0.095-0.064 0.094-0.068 0.091-0.071 0.088-0.074 0.086-0.078 0.083-0.081 0.08-0.084 0.076-0.086 0.074-5.865 4.786-0.077 0.062-0.084 0.066-0.084 0.065-0.086 0.065-0.085 0.063-0.174 0.124-0.087 0.06-0.088 0.06-0.089 0.058-0.089 0.057-0.09 0.057-0.182 0.11-0.091 0.053-0.092 0.053-0.093 0.051-0.092 0.05-0.094 0.05-0.094 0.048-0.095 0.048-0.095 0.046-0.095 0.045-0.192 0.088-0.097 0.042-0.097 0.041-0.098 0.04-0.098 0.039-0.098 0.038-0.099 0.037-0.099 0.036-0.1 0.035-0.1 0.034-0.1 0.033-0.1 0.031-0.101 0.031-0.101 0.029-0.102 0.029-0.204 0.054-0.103 0.025-0.103 0.024-0.103 0.023-0.104 0.022-0.103 0.021-0.104 0.02-0.104 0.018-0.105 0.018-0.105 0.016-0.104 0.016-0.106 0.014-0.105 0.013-0.105 0.012-0.106 0.011-0.212 0.018-0.106 7e-3 -0.107 7e-3 -0.106 5e-3 -0.106 4e-3 -0.107 3e-3 -0.107 1e-3 -0.099 1e-3h-0.542l-0.114-2e-3 -0.113-7e-3 -0.113-0.01-0.112-0.015-0.112-0.02-0.111-0.023-0.111-0.028-0.109-0.031-0.107-0.036-0.107-0.04-0.104-0.044-0.103-0.048-0.101-0.052-0.099-0.055-0.097-0.06-0.095-0.063-0.092-0.066-0.089-0.07-0.087-0.073-0.084-0.076-0.081-0.08-0.078-0.082-0.075-0.086-0.072-0.088-0.068-0.091-0.064-0.093-0.061-0.096-0.058-0.098-0.053-0.1-0.05-0.102-0.046-0.104-0.042-0.105-0.038-0.107-0.034-0.109-0.03-0.109-0.025-0.111-0.022-0.111-0.017-0.113-0.013-0.113-8e-3 -0.113-4e-3 -0.113v-0.114l4e-3 -0.113 8e-3 -0.113 0.013-0.113 0.017-0.113 0.022-0.111 0.025-0.111 0.03-0.109 0.034-0.109 0.038-0.107 0.042-0.105 0.046-0.104 0.05-0.102 0.053-0.1 0.058-0.098 0.061-0.096 0.064-0.093 0.068-0.091 0.072-0.088 0.075-0.086 0.078-0.082 0.081-0.08 0.084-0.076 0.087-0.073 0.089-0.07 0.092-0.066 0.095-0.063 0.097-0.06 0.099-0.055 0.101-0.052 0.103-0.048 0.104-0.044 0.107-0.04 0.107-0.036 0.109-0.031 0.111-0.028 0.111-0.023 0.112-0.02 0.112-0.015 0.113-0.01 0.113-7e-3 0.114-2e-3h0.526 0.05l0.084-2e-3 0.043-2e-3 0.084-4e-3 0.041-3e-3 0.042-4e-3 0.042-3e-3 0.042-5e-3 0.042-4e-3 0.041-6e-3 0.041-5e-3 0.042-6e-3 0.123-0.021 0.042-8e-3 0.041-8e-3 0.04-9e-3 0.082-0.018 0.04-0.01 0.04-0.011 0.04-0.01 0.04-0.012 0.041-0.011 0.039-0.012 0.08-0.026 0.039-0.013 0.078-0.028 0.04-0.015 0.038-0.015 0.039-0.015 0.039-0.016 0.038-0.016 0.114-0.051 0.038-0.018 0.037-0.019 0.038-0.018 0.036-0.019 0.111-0.06 0.108-0.063 0.035-0.022 0.036-0.022 0.105-0.069 0.034-0.024 0.035-0.024 0.068-0.05 0.033-0.026 0.034-0.025 0.033-0.026 0.039-0.032 5.852-4.776 0.089-0.07 0.092-0.067 0.095-0.063 0.096-0.059 0.099-0.056 0.101-0.052 0.103-0.048 0.105-0.045 0.106-0.04 0.107-0.036 0.109-0.032 0.11-0.028 0.111-0.024 0.112-0.02 0.113-0.015 0.113-0.011 0.113-7e-3 0.113-2e-3 0.114 1e-3z"/><path d="m4.572 8.501 0.126 8e-3 0.126 0.013 0.125 0.02 0.124 0.027 0.122 0.032 0.121 0.039 0.119 0.045 0.116 0.051 0.113 0.056 0.11 0.063 0.107 0.067 0.104 0.073 0.099 0.079 0.096 0.083 0.091 0.088 0.087 0.092 0.081 0.097 0.077 0.101 0.072 0.104 0.066 0.108 0.061 0.111 0.055 0.114 0.049 0.117 0.043 0.119 3.764 11.27 0.018 0.055 0.018 0.049 0.017 0.048 0.018 0.049 0.038 0.096 0.019 0.047 0.02 0.048 0.02 0.047 0.021 0.046 0.021 0.047 0.019 0.04 0.047 0.097 0.046 0.091 0.048 0.089 0.049 0.087 0.051 0.087 0.053 0.086 0.054 0.084 0.055 0.084 0.057 0.082 0.059 0.08 0.06 0.08 0.062 0.078 0.063 0.077 0.064 0.075 0.066 0.075 0.067 0.072 0.069 0.072 0.07 0.07 0.071 0.069 0.073 0.068 0.073 0.065 0.075 0.065 0.077 0.063 0.077 0.062 0.079 0.06 0.079 0.058 0.081 0.057 0.082 0.056 0.083 0.054 0.084 0.052 0.085 0.051 0.086 0.049 0.087 0.047 0.087 0.046 0.089 0.044 0.09 0.043 0.091 0.04 0.091 0.039 0.092 0.037 0.093 0.036 0.093 0.033 0.095 0.032 0.095 0.03 0.096 0.029 0.097 0.026 0.096 0.025 0.098 0.022 0.099 0.021 0.099 0.019 0.099 0.017 0.101 0.015 0.107 0.014 0.044 5e-3 0.051 5e-3 0.05 5e-3 0.051 5e-3 0.052 3e-3 0.051 4e-3 0.051 3e-3 0.104 4e-3 0.051 1e-3 0.052 1e-3h0.058 1.49l0.127 3e-3 0.126 0.01 0.126 0.016 0.124 0.022 0.124 0.029 0.121 0.035 0.12 0.041 0.118 0.047 0.115 0.053 0.112 0.058 0.109 0.064 0.106 0.07 0.102 0.075 0.098 0.08 0.094 0.085 0.09 0.09 0.085 0.094 0.08 0.098 0.075 0.102 0.07 0.106 0.064 0.109 0.059 0.112 0.052 0.115 0.047 0.118 0.041 0.12 0.035 0.121 0.029 0.124 0.022 0.124 0.016 0.126 0.01 0.126 3e-3 0.127-3e-3 0.127-0.01 0.126-0.016 0.126-0.022 0.124-0.029 0.124-0.035 0.121-0.041 0.12-0.047 0.118-0.052 0.115-0.059 0.112-0.064 0.109-0.07 0.106-0.075 0.102-0.08 0.098-0.085 0.094-0.09 0.09-0.094 0.085-0.098 0.08-0.102 0.075-0.106 0.07-0.109 0.064-0.112 0.059-0.115 0.052-0.118 0.047-0.12 0.041-0.121 0.035-0.124 0.029-0.124 0.022-0.126 0.016-0.126 0.01-0.127 3e-3h-1.502-0.096l-0.102-2e-3 -0.102-3e-3 -0.101-3e-3 -0.202-0.01-0.202-0.014-0.2-0.018-0.101-0.011-0.106-0.012-0.192-0.025-0.198-0.03-0.197-0.033-0.196-0.038-0.194-0.041-0.194-0.045-0.192-0.048-0.191-0.053-0.189-0.055-0.188-0.06-0.187-0.063-0.185-0.066-0.184-0.07-0.181-0.074-0.181-0.077-0.178-0.08-0.177-0.083-0.175-0.087-0.173-0.091-0.171-0.093-0.17-0.097-0.167-0.1-0.165-0.103-0.164-0.106-0.161-0.109-0.159-0.112-0.157-0.116-0.155-0.118-0.152-0.121-0.15-0.125-0.148-0.127-0.146-0.13-0.142-0.133-0.141-0.135-0.138-0.139-0.135-0.141-0.133-0.144-0.13-0.146-0.127-0.15-0.125-0.152-0.121-0.154-0.119-0.157-0.116-0.16-0.113-0.162-0.11-0.164-0.107-0.167-0.104-0.169-0.1-0.171-0.098-0.175-0.094-0.176-0.091-0.178-0.085-0.175-0.045-0.096-0.082-0.184-0.04-0.093-0.039-0.093-0.038-0.093-0.038-0.095-0.036-0.094-0.036-0.095-0.068-0.192-0.031-0.091-3.767-11.281-0.037-0.121-0.031-0.123-0.025-0.124-0.018-0.126-0.012-0.126-6e-3 -0.126 1e-3 -0.127 7e-3 -0.126 0.014-0.126 0.02-0.125 0.027-0.124 0.032-0.123 0.039-0.12 0.045-0.119 0.051-0.116 0.056-0.113 0.062-0.11 0.068-0.107 0.073-0.104 0.078-0.099 0.084-0.096 0.088-0.091 0.092-0.087 0.097-0.082 0.1-0.076 0.105-0.072 0.108-0.066 0.111-0.061 0.114-0.055 0.117-0.049 0.119-0.043 0.121-0.037 0.123-0.031 0.124-0.025 0.125-0.018 0.127-0.012 0.126-6e-3 0.127 1e-3z"/><path d="m22 15-3 4 2 3 5.068-2.28-9.159 8.98-9.909-3.7v-11.815h13l2 1.815z"/></g><path d="m8.11 5.1c1.023-0.255 2.149 0.728 2.514 2.193 0.366 1.466-0.168 2.862-1.19 3.117s-2.149-0.728-2.514-2.193 0.168-2.862 1.19-3.117z" fill="#CB4059"/><path d="m3.874 9.825c0.849-0.212 1.771 0.548 2.057 1.696 0.287 1.148-0.171 2.251-1.02 2.463-0.85 0.212-1.772-0.548-2.058-1.695-0.286-1.148 0.171-2.252 1.021-2.464z" fill="#CB4059"/><path d="m20.817 3.851c1.039 0.371 1.431 1.938 0.874 3.497-0.557 1.56-1.853 2.524-2.892 2.153-1.04-0.371-1.432-1.938-0.875-3.498 0.557-1.559 1.853-2.524 2.893-2.152z" fill="#CB4059"/><path d="m26.069 6.825c0.907 0.467 1.065 1.969 0.354 3.354-0.712 1.384-2.026 2.13-2.933 1.664-0.907-0.467-1.066-1.969-0.354-3.354 0.711-1.384 2.026-2.13 2.933-1.664z" fill="#CB4059"/><path d="m28.406 18.861c0.786 1.007 0.257 2.736-1.181 3.857s-3.243 1.213-4.029 0.206c-0.786-1.008-0.256-2.736 1.181-3.858 1.438-1.121 3.244-1.213 4.029-0.205z" fill="#CB4059"/><rect x="20" y="14.997" width="2" height="9.003" fill="#ED9298"/><path d="m8 23.657c0-1.061 0.421-2.078 1.172-2.829l3-3c0.75-0.75 1.767-1.171 2.828-1.171s2.078 0.421 2.828 1.171l3 3c0.751 0.751 1.172 1.768 1.172 2.829v0.501c0 0.923-0.426 1.796-1.154 2.364-0.728 0.569-1.677 0.77-2.574 0.546-0.917-0.229-1.782-0.445-2.294-0.574-0.318-0.079-0.643-0.119-0.97-0.119h-0.016c-0.327 0-0.652 0.04-0.97 0.119-0.512 0.129-1.377 0.345-2.294 0.574-0.897 0.224-1.846 0.023-2.574-0.546-0.728-0.568-1.154-1.441-1.154-2.364v-0.501z" fill="#CB4059"/><path d="m5 5.5 3.5 10" fill="none" stroke="#000" stroke-width="1px"/><path d="m23.808 5-4 9" fill="none" stroke="#000" stroke-width="1px"/></g></svg>
