<?xml version="1.0" encoding="UTF-8"?>
<!DOCTYPE svg  PUBLIC '-//W3C//DTD SVG 1.1//EN'  'http://www.w3.org/Graphics/SVG/1.1/DTD/svg11.dtd'>
<svg clip-rule="evenodd" fill-rule="evenodd" stroke-linejoin="round" stroke-miterlimit="2" version="1.1" viewBox="0 0 32 32" xml:space="preserve" xmlns="http://www.w3.org/2000/svg" xmlns:serif="http://www.serif.com/">
<metadata>
<rdf:RDF xmlns:cc="http://web.resource.org/cc/" xmlns:dc="http://purl.org/dc/elements/1.1/" xmlns:rdf="http://www.w3.org/1999/02/22-rdf-syntax-ns#">

     <rdf:Description rdf:about="">
       <dc:title>Mutant Standard emoji 2023.12</dc:title>
     </rdf:Description>

    <cc:work rdf:about="">
        <cc:license rdf:resource="http://creativecommons.org/licenses/by-nc-sa/4.0/"/>
        <cc:attributionName>Caius Nocturne</cc:attributionName>
        <cc:attributionURL>http://mutant.tech/</cc:attributionURL>
    </cc:work>

</rdf:RDF>
</metadata>

    <rect id="writing_hand--paw-" width="32" height="32" fill="none" serif:id="writing_hand [paw]"/>
    <clipPath id="_clip1">
        <rect width="32" height="32"/>
    </clipPath>
    <g clip-path="url(#_clip1)">
        <g id="outline">
            <path d="m10.5 28c-0.06 0-0.12-3e-3 -0.179-8e-3l-0.024-2e-3c-1.339-0.08-2.552-0.627-3.478-1.48l-2.491 2.49h-4.328v-4.328l2.113-2.113c-0.107-0.111-0.209-0.227-0.306-0.348l-1.215-1.52 3.404-5.998c0.347-0.611 0.848-1.119 1.454-1.475l3.384-1.986 0.018-0.013c0.051-0.035 0.103-0.068 0.156-0.098l0.615-0.352 1.53-0.898 0.013 0.017 0.061-0.035c1.536-0.878 3.228-1.31 4.91-1.318l5.449-5.449c0.178-0.177 0.386-0.321 0.616-0.421 0.303-0.131 0.637-0.185 0.966-0.158 0.257 0.022 0.51 0.093 0.74 0.211 0.187 0.095 0.358 0.22 0.506 0.368l1.5 1.5c0.143 0.142 0.264 0.306 0.357 0.484 0.199 0.379 0.271 0.818 0.205 1.241-0.029 0.183-0.083 0.363-0.161 0.531-0.099 0.213-0.236 0.405-0.401 0.572l-3.384 3.389c0.242 0.2 0.475 0.41 0.698 0.63l4.595 4.555h2.177c1.105 0 2 0.895 2 2v8.012c0 1.105-0.895 2-2 2h-19.5z"/>
        </g>
        <g id="emoji">
            <path d="m22.5 24h-11.625l-0.375 2h12v-2z" fill="#4F4027"/>
            <path d="m9 19.5-0.162 0.486c-0.031 0.094-0.067 0.186-0.107 0.277-0.167 0.379-0.409 0.724-0.709 1.01-0.234 0.223-0.502 0.411-0.793 0.553-0.47 0.23-0.996 0.341-1.519 0.32-0.441-0.018-0.877-0.13-1.273-0.325-0.293-0.145-0.562-0.336-0.798-0.563l0.861-1.258 11.5-9 1.086-0.414c1.441 0.163 2.836 0.716 4.019 1.638l-0.105 0.776-1 5-2 2s-1.164-1.005-1.243-1.015c0.333-0.057 0.62-0.282 0.753-0.602 0.154-0.374 0.069-0.804-0.217-1.09l-0.251-0.251c-0.622-0.622-1.573-0.777-2.36-0.383l-5.682 2.841z" fill="#A38658"/>
            <path d="m27 26-1-1v-6l1-1.012h3v8.012h-3z" fill="#A38658"/>
            <path d="m27 26h-4.639c-0.448-1e-3 -0.895-0.03-1.338-0.09-0.825-0.111-1.635-0.326-2.406-0.637-0.247-0.1-0.49-0.21-0.728-0.329-0.63-0.314-1.259-0.629-1.889-0.944v-5h0.586c0.058 0 0.115-5e-3 0.171-0.015 0.079 0.01 0.161 0.015 0.243 0.015 1.104 0 2-0.896 2-2 0-0.552-0.224-1.052-0.586-1.414-0.113-0.114-0.232-0.219-0.357-0.315l3.048-3.047c0.248 0.193 0.487 0.403 0.715 0.629l5.18 5.135v8.012zm-16.994-13.137-6e-3 -6e-3 2.219-1.268c1.516-0.866 3.221-1.189 4.867-1.003l-4 4c-0.182 0.183-0.324 0.396-0.424 0.63l0.251 0.335-9.274 5.707c-0.095-0.092-0.186-0.191-0.27-0.297-0.228-0.285-0.369-0.461-0.369-0.461s2.002-3.528 2.735-4.819c0.174-0.306 0.424-0.56 0.727-0.738l3.544-2.08z" fill="#CEB07D"/>
            <path d="m3.5 27h-1.5v-1.5l3.002-3.002 0.739 0.324 0.116 1.178-0.256 0.899-2.101 2.101zm6.828-9.826 12.672-12.674 1.5 1.5-11 11-2.5 1-0.672-0.826z" fill="#fff"/>
            <path d="m13.5 17-7.899 7.899c-0.384-0.763-0.601-1.625-0.601-2.537v-0.362c0-0.63 0.296-1.222 0.8-1.6 0 0 2.839-2.129 3.733-2.8 0.52-0.389 1.151-0.6 1.8-0.6h2.167z" fill="#4F4027"/>
            <path d="m19 19v6h-5s-1.871 0.624-2.658 0.886c-0.227 0.075-0.464 0.114-0.703 0.114h-1e-3c-2.009 0-3.638-1.629-3.638-3.638v-0.362s2.839-2.129 3.733-2.8c0.173-0.13 0.384-0.2 0.6-0.2h7.667z" fill="#CEB07D"/>
        </g>
    </g>
</svg>
