<?xml version="1.0" encoding="UTF-8" standalone="no"?>
<!-- Generator: Adobe Illustrator 16.0.0, SVG Export Plug-In . SVG Version: 6.00 Build 0)  -->
<svg xmlns:dc="http://purl.org/dc/elements/1.1/" xmlns:cc="http://creativecommons.org/ns#" xmlns:rdf="http://www.w3.org/1999/02/22-rdf-syntax-ns#" xmlns:svg="http://www.w3.org/2000/svg" xmlns="http://www.w3.org/2000/svg" xmlns:sodipodi="http://sodipodi.sourceforge.net/DTD/sodipodi-0.dtd" xmlns:inkscape="http://www.inkscape.org/namespaces/inkscape" version="1.1" id="Capa_1" x="0px" y="0px" width="528.807px" height="528.807px" viewBox="0 0 528.807 528.807" style="enable-background:new 0 0 528.807 528.807;" xml:space="preserve" inkscape:version="0.91 r13725" sodipodi:docname="edit26.svg"><metadata id="metadata41"><rdf:RDF><cc:Work rdf:about=""><dc:format>image/svg+xml</dc:format><dc:type rdf:resource="http://purl.org/dc/dcmitype/StillImage"/></cc:Work></rdf:RDF></metadata><defs id="defs39"/><sodipodi:namedview pagecolor="#ffffff" bordercolor="#666666" borderopacity="1" objecttolerance="10" gridtolerance="10" guidetolerance="10" inkscape:pageopacity="0" inkscape:pageshadow="2" inkscape:window-width="1440" inkscape:window-height="815" id="namedview37" showgrid="false" inkscape:zoom="0.44628758" inkscape:cx="232.71511" inkscape:cy="232.71511" inkscape:window-x="0" inkscape:window-y="1" inkscape:window-maximized="1" inkscape:current-layer="Capa_1"/><path inkscape:connector-curvature="0" id="path5" d="m 513.74,204.829 -29.482,29.486 -82.147,-82.139 29.494,-29.489 c 9.292,-9.292 23.253,-10.441 31.138,-2.565 l 53.563,53.572 c 7.873,7.873 6.726,21.843 -2.566,31.135 z m -125.319,-38.97 82.147,82.147 -195.883,195.88 c -0.898,0.898 -3.393,3.393 -6.892,4.285 -0.405,0.195 -0.819,0.361 -1.229,0.491 l -102.23,32.58 c -2.861,0.904 -5.736,0.319 -7.601,-1.549 -1.871,-1.868 -2.45,-4.74 -1.555,-7.602 l 32.58,-102.221 c 0.139,-0.419 0.305,-0.827 0.491,-1.224 0.896,-3.505 3.384,-5.993 4.292,-6.897 l 36.812,-36.812 -124.333,0 c -5.012,0 -9.079,-4.066 -9.079,-9.079 0,-5.023 4.066,-9.078 9.079,-9.078 l 142.491,0 z m -139.004,271.715 -50.569,-50.561 -13.565,42.581 21.554,21.557 z M 385.265,198.508 c -2.908,-2.911 -7.625,-2.911 -10.527,0 L 222.03,351.206 c -2.905,2.908 -2.905,7.625 0,10.533 2.905,2.908 7.625,2.908 10.53,0 L 385.265,209.04 c 2.907,-2.911 2.907,-7.627 0,-10.532 z m -9.228,290.709 c 0,5.455 -4.438,9.9 -9.895,9.9 -123.82459,-2.08987 -200.51115,-0.001 -319.257,-0.001 -5.458,0 -9.909,-4.434 -9.909,-9.9 l 0,-415.792 c 0,-5.458 4.445,-9.9 9.909,-9.9 l 37.12,0 0,15.675 c 0,5.464 4.43,9.897 9.903,9.897 5.471,0 9.901,-4.433 9.901,-9.897 l 0,-15.676 56.92,0 0,15.675 c 0,5.464 4.43,9.897 9.901,9.897 5.473,0 9.903,-4.433 9.903,-9.897 l 0,-15.675 49.497,0 0,15.675 c 0,5.464 4.43,9.897 9.904,9.897 5.47,0 9.9,-4.433 9.9,-9.897 l 0,-15.675 54.453,0 0,15.675 c 0,5.464 4.427,9.897 9.895,9.897 5.473,0 9.906,-4.433 9.906,-9.897 l 0,-15.675 42.072,0 c 5.45,0 9.896,4.442 9.896,9.9 l 0,68.571 10.379,-10.374 19.322,-19.325 0,-38.871 c 0,-21.831 -17.762,-39.596 -39.597,-39.596 l -42.072,0 0,-23.924 C 324.088,4.437 319.654,0 314.182,0 c -5.462,0 -9.895,4.431 -9.895,9.904 l 0,23.924 -54.465,0 0,-23.924 c 0,-5.467 -4.43,-9.904 -9.901,-9.904 -5.473,0 -9.903,4.431 -9.903,9.904 l 0,23.924 -49.497,0 0,-23.924 c 0,-5.467 -4.43,-9.904 -9.904,-9.904 -5.47,0 -9.9,4.431 -9.9,9.904 l 0,23.924 -56.92,0 0,-23.924 C 103.797,4.437 99.366,0 93.896,0 88.423,0 83.993,4.431 83.993,9.904 l 0,23.924 -37.12,0 c -21.832,0 -39.602,17.765 -39.602,39.596 l 0,415.787 c 0,21.834 17.771,39.596 39.602,39.596 l 319.264,0 c 21.835,0 39.597,-17.762 39.597,-39.596 l 0,-144.152 -29.702,29.708 0,114.45 z m -77.33,-336.781 -193.687,0 c -5.012,0 -9.079,4.061 -9.079,9.079 0,5.019 4.066,9.079 9.079,9.079 l 193.687,0 c 5.013,0 9.079,-4.061 9.079,-9.079 0,-5.018 -4.066,-9.079 -9.079,-9.079 z m 0,73.199 -193.687,0 c -5.012,0 -9.079,4.063 -9.079,9.079 0,5.019 4.066,9.079 9.079,9.079 l 193.687,0 c 5.013,0 9.079,-4.061 9.079,-9.079 0,-5.016 -4.066,-9.079 -9.079,-9.079 z" sodipodi:nodetypes="cccccccccscccccccccsssccccccccccsccccccssscsssccsssccsssccssscsscccsscsssccsssccsssccssscssssssccccssssssssssssss"/><g id="g7"/><g id="g9"/><g id="g11"/><g id="g13"/><g id="g15"/><g id="g17"/><g id="g19"/><g id="g21"/><g id="g23"/><g id="g25"/><g id="g27"/><g id="g29"/><g id="g31"/><g id="g33"/><g id="g35"/><script xmlns=""/></svg>