<?xml version="1.0" encoding="UTF-8"?>
<!-- Generator: Adobe Illustrator 24.3.0, SVG Export Plug-In . SVG Version: 6.00 Build 0)  -->
<svg version="1.1" xmlns="http://www.w3.org/2000/svg" xmlns:xlink="http://www.w3.org/1999/xlink" x="0px" y="0px" viewBox="0 0 682.34 534.35" style="enable-background:new 0 0 682.34 534.35;" xml:space="preserve">
<style type="text/css">
	.st0{fill:#00913E;}
	.st1{fill:#0154D5;}
	.st2{fill:#EE8019;}
	.st3{fill:#F0BC00;}
	.st4{fill:#E679A6;}
	.st5{fill:#E9E7C4;}
	.st6{fill:#F5C200;}
	.st7{fill:#028B3F;}
	.st8{fill:#DC0816;}
	.st9{fill:#EA7AAC;}
	.st10{fill:#020304;}
	.st11{fill:#049DFF;}
	.st12{clip-path:url(#SVGID_2_);}
	.st13{fill:#1026B0;}
	.st14{fill:#1E1232;}
	.st15{fill:#E49924;}
	.st16{fill:#0491FF;}
	.st17{fill:none;stroke:#62FC06;stroke-width:0.3063;stroke-miterlimit:10;}
	.st18{fill:none;stroke:#000000;stroke-width:8.1291;stroke-miterlimit:10;}
	.st19{fill:none;stroke:#000000;stroke-width:0.5314;stroke-miterlimit:10;}
	.st20{fill:none;stroke:#000000;stroke-width:7.7722;stroke-miterlimit:10;}
	.st21{fill:#E7E5C2;}
	.st22{fill:#025BC7;}
	.st23{clip-path:url(#SVGID_4_);}
	.st24{clip-path:url(#SVGID_6_);}
	.st25{fill:#5B1A0E;}
	.st26{fill:#FFFFFF;}
	.st27{fill:#F69225;}
	.st28{fill:#EFEDCA;}
	.st29{fill:#561309;}
	.st30{fill:none;stroke:#000000;stroke-width:10.905;stroke-miterlimit:10;}
	.st31{fill:#EDBCD2;}
	.st32{clip-path:url(#SVGID_8_);}
	.st33{fill:none;stroke:#FBF3A0;stroke-width:1.296;stroke-miterlimit:10;}
	.st34{fill:#1F1332;}
	.st35{fill:#E69B23;}
	.st36{fill:#F08C25;}
	.st37{fill:#5D1A16;}
	.st38{fill:none;stroke:#5AFD06;stroke-width:0.9072;stroke-miterlimit:10;}
	.st39{fill:#F3B5A9;}
	.st40{fill:#E4E1BF;}
	.st41{fill:#F3AD17;}
	.st42{clip-path:url(#SVGID_10_);}
	.st43{fill:#EE6807;}
	.st44{clip-path:url(#SVGID_12_);}
	.st45{fill:#C4681F;}
	.st46{fill:#711C13;}
	.st47{clip-path:url(#SVGID_14_);}
	.st48{clip-path:url(#SVGID_14_);fill:#EDBCD2;}
	.st49{clip-path:url(#SVGID_16_);}
	.st50{fill:#DC0816;stroke:#000000;stroke-width:7.8223;stroke-miterlimit:10;}
	.st51{fill:#DC0816;stroke:#000000;stroke-width:9.4667;stroke-miterlimit:10;}
	.st52{fill:#DC0C18;}
	.st53{fill:#F7B821;}
	.st54{clip-path:url(#SVGID_18_);}
	.st55{fill:none;stroke:#05FF28;stroke-miterlimit:10;}
	.st56{fill:#CA6820;}
	.st57{display:none;fill:none;stroke:#000000;stroke-width:1.5;stroke-linecap:square;stroke-miterlimit:10;}
	.st58{fill:none;stroke:#000000;stroke-width:1.5;stroke-linecap:square;stroke-miterlimit:10;}
	.st59{fill:#008B3F;}
	.st60{fill:#F6C200;}
	.st61{fill:#B76032;}
	.st62{fill:#010101;}
	.st63{fill:#295CA8;}
	.st64{fill:#FEF1E2;}
	.st65{fill:#F39126;}
	.st66{fill:#EDEBC8;}
	.st67{fill:#1D1D1B;}
	.st68{fill:#EC79AC;}
	.st69{fill:#F5A67D;}
	.st70{filter:url(#Adobe_OpacityMaskFilter);}
	.st71{mask:url(#SVGID_19_);}
	.st72{fill:#00913F;}
	.st73{fill:#6C2F10;}
	.st74{fill:#2D57A4;}
	.st75{fill:#893E13;}
	.st76{fill:none;}
</style>
<g id="KUEBIKO_BG">
</g>
<g id="KUEBIKO_FARBE">
</g>
<g id="KUEBIKO">
</g>
<g id="FIREWORK_BG_1_">
</g>
<g id="FIREWORK_FARBE">
</g>
<g id="FIREWORK">
</g>
<g id="PP_FARBE">
</g>
<g id="PAP">
</g>
<g id="NAZAR_BG">
</g>
<g id="NAZAR_COLORS">
</g>
<g id="NAZAR">
</g>
<g id="WIKIQUOTE_BG">
</g>
<g id="WIKIQUOTE_FARBE">
</g>
<g id="WIKIQUOTE">
</g>
<g id="WIKIVOYAGE_BG">
</g>
<g id="WIKIVOYAGE_FARBE_1_">
</g>
<g id="WIKIVOYAGE_1_">
</g>
<g id="HAMSA_BG">
</g>
<g id="HAMSA_FARBE">
</g>
<g id="HAMSA">
</g>
<g id="WWW">
</g>
<g id="FOTO_1_">
</g>
<g id="HUMAN_FIGURE">
</g>
<g id="GLASSES">
</g>
<g id="KINTSUGI">
</g>
<g id="RANGOLI">
</g>
<g id="HENNA">
</g>
<g id="BASKETBALL">
	<g id="Ebene_42">
	</g>
</g>
<g id="RUG">
</g>
<g id="KAABA">
</g>
<g id="WIKINEWS">
</g>
<g id="COMMONS">
</g>
<g id="BIWA">
</g>
<g id="_x2B_">
</g>
<g id="IBIS_OF_THOTH">
</g>
<g id="SERPENT">
</g>
<g id="TREE_BG_1_">
</g>
<g id="TREE_FARBEN">
</g>
<g id="TREE_1_">
</g>
<g id="BAPHO_BG_1_">
</g>
<g id="BAPHO_FARBE">
</g>
<g id="BAPHO">
</g>
<g id="SALAM_BG">
</g>
<g id="SALAM_FARBE">
</g>
<g id="SALAM">
</g>
<g id="PAINTING_EASLE_BG">
</g>
<g id="PAINTING_EASLE_FARBE">
</g>
<g id="PAINTING_EASLE_FARBEN">
</g>
<g id="WHEAT_BG">
</g>
<g id="WHEAT_FARBE">
</g>
<g id="WHEAT">
</g>
<g id="SMILE_BG">
</g>
<g id="SMILE_FARBE">
</g>
<g id="SMILE">
</g>
<g id="WIFI_BG">
</g>
<g id="Layer_142">
</g>
<g id="WIFI_FARBE">
</g>
<g id="WIFI">
</g>
<g id="WIND">
</g>
<g id="CHIC_x40_S_1_">
</g>
<g id="ESC">
</g>
<g id="SPRAYCAN_1_">
</g>
<g id="PACHAMAMA">
</g>
<g id="THUNDERBIRD">
</g>
<g id="MARSHA">
</g>
<g id="ARROW">
</g>
<g id="WKTK">
</g>
<g id="psst">
</g>
<g id="WIKIPEDIA">
</g>
<g id="WIKTIONARY_1_">
</g>
<g id="WIKIDATA_1_">
</g>
<g id="RAVEN">
</g>
<g id="OWL_ATHENA">
	<g>
		<path class="st2" d="M91.55,0C91.55,0,0,0,0,91.28v351.79c0,0,0,91.28,91.55,91.28h499.23c0,0,91.55,0,91.55-91.28V91.28    c0,0,0-91.28-91.55-91.28H91.55z"/>
		<polygon class="st5" points="469.36,183.05 494.11,233.3 530.11,314.3 548.11,361.3 578.11,460.3 546.11,452.3 401.11,392.3     410.11,314.3 455.11,255.3   "/>
		<polygon class="st5" points="310.11,153.3 419.11,267.3 365.11,319.3 291.11,368.3 218.11,408.3 158.11,436.3 90.11,465.3     114.11,403.3 159.11,323.3 204.11,261.3 264.11,195.3   "/>
		<polygon class="st59" points="337.11,179.3 368.11,179.3 392.11,167.3 404.11,194.3 421.11,165.3 441.11,179.3 467.11,184.3     458.11,235.3 455.11,255.3 407.11,318.3 401.11,392.3 230.11,402.3 303.11,362.3 365.11,319.3 419.11,267.3   "/>
		<polyline class="st59" points="409.36,119.05 425.11,90.3 456.11,80.3 480.11,83.3 458.11,70.3 429.11,66.3 416.11,69.3     396.11,65.3 370.11,69.3 350.11,79.3 382.11,83.3 398.11,93.3 409.36,119.05   "/>
		<polygon class="st1" points="230.11,402.3 243.11,437.3 301.11,435.3 319.11,402.3 341.11,432.3 385.11,427.3 401.11,392.3   "/>
		<polygon class="st3" points="243.11,437.3 244.11,465.3 217.11,494.3 274.11,476.3 318.11,493.3 305.11,462.3 301.11,435.3   "/>
		<polygon class="st3" points="341.11,432.3 343.11,464.3 322.11,493.3 367.76,469.54 408.11,488.3 387.11,453.3 385.11,427.3   "/>
		<polygon class="st3" points="435.11,83.3 415.11,105.3 409.11,122.3 401.11,100.3 382.11,83.3 355.11,77.3 336.11,84.3     310.11,113.3 306.11,144.3 322.11,171.3 345.11,182.3 380.11,176.3 400.11,160.3 409.11,135.3 418.11,162.3 441.11,179.3     471.11,183.3 496.11,173.3 508.11,147.3 510.11,118.3 496.11,96.3 480.11,83.3   "/>
		<polygon class="st1" points="459.11,106.3 480.11,114.3 486.11,130.3 478.11,150.3 460.11,156.3 444.11,147.3 440.11,124.3   "/>
		<polygon class="st1" points="370.11,108.3 379.11,123.3 376.11,142.3 360.11,153.3 340.11,143.3 335.11,127.3 346.11,110.3   "/>
		<path class="st5" d="M258.91,49.38c-13.86-10.15-36.14-2.01-45.47,10.87c-9.28,12.8-5.42,34.92,12.65,36.76    c15.57,1.58,23.33-20.22,9.6-28.33c-14.6-8.63-34.43,2.32-43.1,14.54c-11.62,16.37-9.43,39.91,3.73,54.69    c2.45,2.75,5.54-1.41,3.74-3.98c-9.56-13.67-12.71-31.73-2.52-46.06c4.19-5.89,10.09-10.52,16.87-13.06    c5.82-2.18,18.92-4.51,22.05,3.28c3.22,8.02-6.79,13.85-13.47,11.43c-8.12-2.94-10.21-11.98-7.46-19.47    c5.26-14.36,28.2-23.94,41.3-14.97C260.3,57.45,261.7,51.43,258.91,49.38L258.91,49.38z"/>
		<path class="st5" d="M586.2,321.09c16.7,6.23,37.01-8.94,41.5-24.94c4.12-14.69-6.48-34.51-23.92-29.68    c-14.84,4.11-14.76,26.95,0.71,30.06c16.46,3.31,32.03-12.72,36.72-26.97c6.12-18.6-2.02-40.35-18.45-50.8    c-3.05-1.94-4.94,3.12-2.61,5.04c12.35,10.16,20.49,25.75,15.58,41.9c-2.17,7.12-6.54,13.53-12.43,18.09    c-5.41,4.19-15.95,9.45-22.2,4.23c-6.18-5.17-0.34-14.29,6.25-15.19c8.75-1.19,15.1,6.23,15.35,14.45    c0.49,16.24-20.25,32.78-35.83,27.56C583.06,313.55,582.99,319.89,586.2,321.09L586.2,321.09z"/>
		<path class="st5" d="M58.9,214.09c-12.86,10.79-10.89,33.23-1.87,45.88c9.15,12.83,31.32,17.53,38.8,0.24    c6.18-14.28-11.97-31.3-24.02-18.62c-11.35,11.94-5.87,33.39,3.25,44.82c12.48,15.63,36.09,20.76,53.76,11.11    c2.98-1.63,1.19-7.19-2.2-5.9c-14.92,5.69-32.46,5.39-44.45-6.43c-5.2-5.12-8.79-11.94-9.97-19.15    c-1.11-6.77-0.57-17.25,6.28-20.98c8.67-4.72,15.62,6.48,10.69,13.65c-4.8,6.98-13.98,7.57-20.9,3.52    c-13.03-7.61-17.54-32.19-5.8-42.77C65.07,217.13,61.83,211.63,58.9,214.09L58.9,214.09z"/>
		<path d="M415.54,64.47c-14.08-3.07-28.57-2.92-42.65,0.06c-13.92,2.95-27.23,8.82-38.82,17.08c-5.88,4.2-11.24,9.06-16.07,14.43    c-5.29,5.89-9.84,12.58-12.65,20.03c-4.61,12.23-3.46,26.18,1.99,37.95c5.41,11.68,14.76,21.84,26.81,26.78    c11.45,4.7,24.19,4.5,36.01,1.26c11.62-3.18,22.82-9.67,30.29-19.26c4.21-5.41,6.66-11.82,8.41-18.4    c1.99-7.47,2.9-15.14,2.28-22.86c-1.12-13.94-7.18-27.72-18.46-36.35c-11.36-8.69-26.39-12.17-40.53-10.58    c-3.4,0.38-6.69,1.12-9.91,2.26c-4.11,1.46-1.39,8.8,2.73,7.34c3.17-1.12,5.46-1.5,8.74-1.82c3.35-0.34,6.73-0.35,10.09-0.09    c2.97,0.23,6.54,0.82,9.76,1.65c1.59,0.41,3.17,0.89,4.72,1.45c0.35,0.13,0.7,0.26,1.04,0.39c-0.5-0.19,0.53,0.22,0.66,0.28    c0.71,0.31,1.41,0.63,2.1,0.98c1.38,0.69,2.72,1.45,4.02,2.27c0.59,0.37,1.16,0.75,1.73,1.15c0.14,0.1,1.01,0.75,0.49,0.35    c0.33,0.25,0.65,0.5,0.97,0.75c1.2,0.96,2.36,1.99,3.45,3.07c0.55,0.55,1.09,1.12,1.62,1.7c0.13,0.15,0.71,0.81,0.3,0.33    c0.28,0.33,0.54,0.67,0.81,1c1.04,1.34,2,2.74,2.87,4.19c0.4,0.67,0.77,1.34,1.14,2.03c-0.34-0.64,0.22,0.46,0.31,0.64    c0.2,0.42,0.39,0.85,0.58,1.28c0.65,1.5,1.2,3.04,1.7,4.6c0.21,0.68,0.42,1.36,0.61,2.04c0.09,0.32,0.16,0.64,0.26,0.96    c0.13,0.45-0.04-0.19-0.05-0.23c0.07,0.27,0.13,0.54,0.19,0.81c0.67,2.93,1.1,5.92,1.28,8.93c0.05,0.79,0.08,1.58,0.09,2.37    c-0.01-0.63,0,0.28-0.01,0.47c0,0.44-0.01,0.88-0.03,1.32c-0.06,1.76-0.19,3.51-0.4,5.26c-0.45,3.72-1.14,6.94-2.16,10.41    c-0.59,1.99-1.25,3.96-1.99,5.9c-0.25,0.67-0.52,1.33-0.8,1.99c-0.12,0.27-0.25,0.55-0.37,0.82c-0.09,0.18-0.17,0.36-0.26,0.54    c-0.03,0.07-0.33,0.64-0.13,0.25c0.19-0.35-0.22,0.39-0.28,0.51c-0.15,0.26-0.3,0.52-0.45,0.78c-0.36,0.6-0.73,1.2-1.13,1.78    c-0.73,1.09-1.52,2.14-2.36,3.16c-0.42,0.51-0.87,1.01-1.31,1.5c-0.44,0.5,0.25-0.24-0.22,0.24c-0.29,0.29-0.58,0.59-0.87,0.88    c-0.97,0.95-1.97,1.86-3.01,2.72c-2.13,1.76-4.4,3.35-6.77,4.76c-0.32,0.19-0.65,0.38-0.98,0.57c-0.35,0.2,0.04-0.02,0.09-0.05    c-0.14,0.08-0.28,0.16-0.43,0.23c-0.67,0.36-1.34,0.71-2.02,1.05c-1.27,0.63-2.56,1.21-3.87,1.75c-2.68,1.1-5.44,2.02-8.24,2.75    c-0.63,0.16-1.27,0.32-1.91,0.46c-0.37,0.08-0.75,0.17-1.12,0.24c-0.4,0.08,0.03-0.01,0.09-0.02c-0.21,0.04-0.43,0.08-0.64,0.12    c-1.39,0.25-2.78,0.46-4.18,0.62c-2.81,0.32-5.64,0.44-8.47,0.33c-0.63-0.02-1.26-0.06-1.89-0.1c-0.36-0.03-0.73-0.06-1.09-0.09    c-0.04,0-0.55-0.06-0.17-0.02c0.37,0.04-0.26-0.03-0.33-0.04c-1.32-0.17-2.64-0.38-3.95-0.66c-1.33-0.28-2.65-0.63-3.95-1.04    c-0.59-0.19-1.18-0.39-1.77-0.61c-0.16-0.06-0.92-0.35-0.4-0.14c-0.41-0.17-0.82-0.34-1.23-0.52c-2.65-1.18-5.13-2.65-7.52-4.29    c-0.1-0.07-0.57-0.41-0.04-0.02c-0.13-0.1-0.27-0.2-0.4-0.3c-0.26-0.2-0.53-0.41-0.79-0.61c-0.61-0.48-1.21-0.98-1.79-1.5    c-1.09-0.95-2.13-1.96-3.13-3.01c-0.5-0.53-0.98-1.07-1.46-1.61c-0.49-0.55,0.25,0.32-0.22-0.26c-0.25-0.3-0.49-0.61-0.73-0.91    c-0.93-1.19-1.81-2.41-2.63-3.68c-0.79-1.22-1.53-2.47-2.22-3.75c-0.16-0.3-0.31-0.59-0.47-0.89c0.33,0.64,0.01,0.02-0.12-0.26    c-0.34-0.7-0.66-1.42-0.97-2.14c-0.57-1.33-1.08-2.69-1.53-4.07c-0.23-0.69-0.43-1.38-0.63-2.08c-0.09-0.32-0.17-0.64-0.26-0.97    c-0.12-0.45,0.04,0.17,0.05,0.21c-0.06-0.27-0.13-0.54-0.19-0.81c-0.62-2.82-0.98-5.67-1.09-8.55c-0.01-0.17-0.01-0.33-0.01-0.5    c0,0.15-0.01,0.74,0,0c0-0.33,0-0.66,0.01-0.99c0.02-0.77,0.06-1.54,0.11-2.31c0.11-1.43,0.29-2.86,0.55-4.27    c0.06-0.33,0.12-0.65,0.19-0.98c0.04-0.2,0.22-0.97,0.08-0.37c0.19-0.76,0.39-1.51,0.61-2.26c0.49-1.62,1.08-3.2,1.75-4.75    c1.41-3.26,3.22-6.29,5.34-9.3c4.11-5.81,8.57-10.48,13.97-15.08c10.21-8.7,21.63-14.86,34.48-18.86    c12.51-3.9,25.95-5.38,39.28-4.01c1.03,0.11,2.9,0.35,4.25,0.56c1.64,0.26,3.26,0.56,4.88,0.9    C419.28,72.63,419.52,65.34,415.54,64.47L415.54,64.47z"/>
		<path d="M416.47,71.61c14.36-2.99,29.47-0.82,43.24,4.18c6.3,2.29,12.81,5.5,18.75,9.23c1.41,0.89,2.8,1.81,4.16,2.76    c0.35,0.24,0.69,0.49,1.04,0.74c0.53,0.38-0.11-0.09,0.4,0.29c0.66,0.5,1.32,1,1.98,1.51c2.44,1.92,4.78,3.97,6.97,6.16    c1.04,1.04,2.05,2.11,3.02,3.22c0.09,0.11,0.68,0.79,0.38,0.43c-0.31-0.37,0.35,0.43,0.45,0.55c0.62,0.77,1.23,1.56,1.83,2.35    c1.14,1.51,2.24,3.05,3.25,4.65c0.39,0.62,0.78,1.26,1.14,1.9c0.18,0.32,0.35,0.64,0.53,0.97c0.34,0.62-0.26-0.58,0.12,0.26    c0.52,1.13,0.99,2.26,1.37,3.44c0.07,0.23,0.14,0.47,0.21,0.7c0.03,0.12,0.06,0.23,0.1,0.35c0.21,0.69-0.07-0.32-0.07-0.32    c0.23,0.15,0.28,1.32,0.34,1.6c0.43,2.35,0.65,4.76,0.84,7.14c0.12,1.55,0.19,3.11,0.23,4.66c0.02,0.75,0,0.2,0,0.05    c0,0.17,0,0.35,0,0.52c0,0.4,0,0.81-0.01,1.21c-0.01,0.81-0.04,1.62-0.08,2.42c-0.15,3.16-0.48,6.31-1.03,9.42    c-0.13,0.73-0.27,1.46-0.42,2.19c-0.07,0.33-0.14,0.67-0.22,1c0.14-0.62-0.13,0.53-0.18,0.73c-0.38,1.53-0.82,3.04-1.31,4.54    c-0.47,1.43-0.99,2.83-1.57,4.22c-0.28,0.66-0.56,1.32-0.87,1.97c-0.16,0.35-0.33,0.69-0.5,1.04c-0.07,0.15-0.15,0.29-0.22,0.44    c-0.29,0.58,0.08-0.14-0.11,0.21c-1.41,2.62-3,5.12-4.87,7.44c-0.44,0.54-0.88,1.07-1.34,1.59c-0.1,0.11-0.63,0.7-0.45,0.5    c0.12-0.13-0.51,0.52-0.7,0.71c-1.02,1.02-2.1,1.98-3.23,2.88c-1.18,0.94-2.42,1.81-3.7,2.61c-0.28,0.17-0.56,0.34-0.84,0.51    c-0.59,0.35-0.2,0.11-0.07,0.04c-0.14,0.08-0.29,0.16-0.44,0.24c-0.69,0.36-1.38,0.71-2.09,1.03c-2.65,1.21-5.41,2.07-8.25,2.72    c-0.13,0.03-0.66,0.13-0.01,0.01c-0.15,0.03-0.3,0.06-0.45,0.09c-0.3,0.05-0.61,0.11-0.91,0.16c-0.76,0.13-1.53,0.23-2.3,0.32    c-1.4,0.16-2.81,0.26-4.22,0.3c-1.49,0.05-2.97,0.03-4.46-0.04c-0.7-0.03-1.39-0.08-2.09-0.14c-0.32-0.03-0.64-0.06-0.96-0.09    c0.62,0.07-0.53-0.07-0.71-0.09c-2.97-0.38-5.91-0.99-8.8-1.79c-1.42-0.4-2.83-0.84-4.22-1.34c-0.72-0.26-1.44-0.52-2.15-0.81    c0.55,0.22-0.17-0.07-0.35-0.15c-0.4-0.17-0.8-0.34-1.2-0.52c-2.71-1.21-5.34-2.61-7.85-4.21c-0.58-0.37-1.16-0.76-1.73-1.15    c-0.26-0.18-0.52-0.37-0.78-0.55c0.64,0.46-0.32-0.24-0.49-0.37c-1.16-0.89-2.29-1.84-3.37-2.83c-1.02-0.94-2.01-1.93-2.94-2.97    c-0.24-0.27-0.47-0.54-0.71-0.81c0.46,0.51,0.09,0.11-0.13-0.16c-0.45-0.55-0.88-1.11-1.29-1.69c-0.82-1.14-1.59-2.32-2.28-3.55    c-0.17-0.3-0.33-0.62-0.5-0.92c-0.23-0.4,0.14,0.27,0.14,0.29c-0.07-0.13-0.13-0.27-0.2-0.4c-0.3-0.63-0.59-1.26-0.85-1.91    c-2.98-7.28-4.65-14.28-4.95-22.25c-0.02-0.44-0.03-0.88-0.04-1.33c0.01,0.61,0.01-0.29,0.01-0.48c0.01-0.91,0.04-1.83,0.1-2.74    c0.1-1.59,0.26-3.17,0.49-4.74c0.11-0.74,0.23-1.47,0.37-2.2c0.07-0.39,0.15-0.78,0.23-1.16c0.03-0.16,0.07-0.33,0.11-0.49    c0.13-0.61-0.22,0.84,0.05-0.2c0.37-1.44,0.76-2.86,1.21-4.27c1.13-3.48,2.38-6.28,4.23-9.18c0.9-1.42,1.89-2.78,2.96-4.08    c1.19-1.44,1.72-1.99,3.1-3.28c2.36-2.19,4.96-4.05,7.71-5.71c0.55-0.33-0.16,0.08,0.4-0.23c0.35-0.19,0.7-0.38,1.05-0.56    c0.55-0.29,1.12-0.56,1.69-0.81c1.16-0.51,2.35-0.94,3.56-1.32c1.29-0.41,2.6-0.76,3.91-1.07c0.36-0.08,0.72-0.17,1.08-0.25    c0.15-0.03,0.94-0.2,0.65-0.14c-0.41,0.08,0.26-0.05,0.35-0.07c0.16-0.03,0.32-0.06,0.48-0.09c0.44-0.08,0.87-0.16,1.31-0.23    c3.07-0.51,6.16-0.86,9.26-1.08c3.18-0.22,6.37-0.3,9.56-0.22c1.54,0.04,3.09,0.11,4.63,0.24c0.32,0.03,0.64,0.05,0.95,0.08    c0.09,0.01,0.75,0.07,0.33,0.03c-0.38-0.04,0.13,0.01,0.17,0.02c0.7,0.08,1.4,0.17,2.1,0.27c2.33,0.35,4.72,0.78,6.95,1.57    c1.89,0.67,3.59-1.17,3.78-2.9c0.23-2.09-1.07-3.92-2.99-4.6c-5.5-1.95-11.46-2.42-17.26-2.54c-6.61-0.14-13.28,0.33-19.79,1.53    c-3.07,0.56-6.13,1.24-9.08,2.24c-2.9,0.98-5.6,2.38-8.22,3.98c-6.03,3.68-11.26,8.85-14.89,14.92    c-7.68,12.84-9.13,28.88-5.81,43.28c1.69,7.32,4.04,14.71,8.5,20.84c3.79,5.22,8.64,9.54,14.05,13.03    c10.69,6.9,23.85,10.59,36.58,10.17c6.17-0.2,12.45-1.44,18.06-4.05c6.03-2.8,11.21-6.95,15.39-12.12    c8.28-10.24,12.02-23.83,12.62-36.81c0.28-6.02,0.07-12.28-1.06-18.22c-1.2-6.29-4.32-11.77-8.12-16.86    c-8.47-11.33-20.03-20-32.69-26.2c-14.15-6.93-30.01-11.03-45.84-10.13c-4,0.23-7.94,0.82-11.86,1.67    c-1.86,0.4-2.3,3.17-1.69,4.64C412.95,71.07,414.5,72.02,416.47,71.61L416.47,71.61z"/>
		<path d="M369.62,104.9c-2.61-0.81-5.04-1.84-7.81-2.01c-2.94-0.18-6.02,0.38-8.86,1.07c-5.41,1.33-10.19,4.2-13.84,8.4    c-6.6,7.58-8.4,19.12-4.01,28.21c4.41,9.13,13.75,15.8,24.14,15.25c10.26-0.54,19.41-7.56,22.39-17.41    c1.96-6.47,2.16-13.86,0.04-20.31c-1.87-5.7-5.94-11.75-12.04-13.3c-1.9-0.48-3.7,1.05-3.83,2.95c-0.14,2,0.99,4.14,3.03,4.67    c0.24,0.06,0.48,0.13,0.71,0.2c-0.47-0.15,0.07,0.02,0.15,0.06c0.43,0.21,0.84,0.44,1.23,0.71c-0.5-0.34-0.01,0,0.07,0.08    c0.18,0.16,0.36,0.31,0.53,0.48c0.17,0.17,0.34,0.34,0.51,0.51c0.78,0.8-0.38-0.57,0.29,0.34c0.59,0.8,1.14,1.63,1.63,2.5    c0.13,0.22,0.7,1.38,0.39,0.72c0.31,0.67,0.61,1.34,0.86,2.03c0.46,1.28,0.52,1.59,0.72,2.81c0.2,1.24,0.32,2.5,0.35,3.75    c0.02,0.73,0.01-0.4,0,0.33c0,0.3-0.01,0.59-0.02,0.89c-0.02,0.58-0.05,1.16-0.1,1.74c-0.1,1.23-0.27,2.46-0.5,3.67    c-0.74,3.82-2.84,7.54-5.61,9.97c-0.71,0.63-1.47,1.21-2.26,1.74c-1.02,0.68-1.1,0.73-2.16,1.23c-0.86,0.41-1.75,0.76-2.65,1.06    c-0.45,0.15-0.91,0.28-1.37,0.4c-0.23,0.06-0.46,0.12-0.69,0.17c-0.23,0.05-0.23,0.05,0.01,0c-0.12,0.02-0.23,0.04-0.35,0.06    c-0.94,0.14-1.88,0.25-2.83,0.27c-0.53,0.02-1.07,0.01-1.6-0.02c-0.24-0.01-0.47-0.03-0.71-0.05c-0.32-0.03,0.18,0.04-0.35-0.05    c-2.09-0.36-3.73-0.85-5.23-1.59c-0.85-0.42-1.67-0.9-2.46-1.42c-0.2-0.13-0.39-0.27-0.59-0.4c0.13,0.1,0.47,0.38-0.09-0.08    c-0.41-0.34-0.83-0.68-1.23-1.04c-0.35-0.32-0.7-0.65-1.03-0.99c-0.17-0.17-0.33-0.34-0.49-0.52c-0.07-0.07-0.56-0.63-0.27-0.29    c0.29,0.34-0.19-0.23-0.25-0.31c-0.15-0.19-0.29-0.38-0.43-0.57c-0.35-0.48-0.69-0.97-1-1.47c-0.25-0.4-0.47-0.82-0.72-1.23    c-0.32-0.53,0.24,0.55-0.01-0.02c-0.09-0.22-0.2-0.43-0.3-0.65c-0.41-0.93-0.74-1.88-1.02-2.85c-0.22-0.75-0.04-0.18-0.01-0.02    c-0.05-0.23-0.1-0.47-0.14-0.7c-0.09-0.48-0.16-0.96-0.22-1.45c-0.05-0.49-0.08-0.97-0.11-1.46c-0.05-0.75,0-0.27-0.01-0.1    c0-0.37,0.02-0.73,0.04-1.09c0.06-0.98,0.2-1.94,0.36-2.9c0.01-0.08,0.14-0.68,0.02-0.15c0.05-0.24,0.12-0.47,0.18-0.71    c0.14-0.53,0.31-1.05,0.49-1.57c0.34-0.98,0.74-1.95,1.22-2.87c-0.23,0.43,0.42-0.71,0.47-0.8c0.28-0.47,0.59-0.93,0.9-1.38    c1.33-1.88,2.4-3.02,4.34-4.46c2.02-1.5,4.26-2.52,6.71-3.27c2.49-0.76,5.08-1.17,7.71-1.18c2.22-0.01,4.65,1.13,6.92,1.82    c1.88,0.58,3.54-1.1,3.73-2.87C372.79,107.44,371.53,105.49,369.62,104.9L369.62,104.9z"/>
		<path d="M472.3,105.54c-1.48-0.43-2.92-0.91-4.45-1.09c-1.74-0.2-3.44-0.23-5.18-0.03c-2.96,0.34-5.9,1.09-8.61,2.33    c-4.75,2.17-8.9,5.56-11.93,9.82c-6.56,9.21-6.72,21.74-0.75,31.29c5.91,9.44,17.91,14.05,28.59,10.79    c11.08-3.39,18.31-15.44,19.33-26.51c0.6-6.56-0.9-13.44-4.94-18.74c-3.91-5.13-9.4-8.55-15.87-9.13    c-1.87-0.17-2.97,2.04-2.95,3.57c0.02,1.63,1.18,4,3.04,4.19c1.07,0.11,2.13,0.31,3.16,0.62c0.23,0.07,0.45,0.15,0.68,0.22    c0.08,0.03,0.64,0.24,0.13,0.03c0.55,0.22,1.09,0.49,1.61,0.77c0.42,0.23,0.83,0.47,1.23,0.73c-0.06-0.04,0.9,0.63,0.49,0.33    c-0.34-0.25,0.25,0.2,0.32,0.26c0.89,0.72,1.71,1.52,2.47,2.37c-0.48-0.54,0.33,0.44,0.48,0.63c0.32,0.44,0.63,0.89,0.91,1.35    c0.13,0.21,0.25,0.41,0.37,0.62c0.1,0.18,0.47,0.9,0.11,0.16c0.27,0.54,0.51,1.09,0.72,1.66c0.72,1.87,1.12,4.01,1.18,6.16    c0.13,4.32-1.32,9.27-3.47,13c-0.59,1.02-1.24,2.01-1.94,2.96c-0.62,0.83-1.46,1.84-1.94,2.31c-1.57,1.54-3.56,3.09-5.18,3.88    c-3.76,1.84-7.81,2.23-11.69,1.41c-1.03-0.22-2.03-0.52-3.02-0.86c-0.68-0.23-0.33-0.12-0.18-0.06c-0.28-0.12-0.57-0.25-0.84-0.38    c-0.56-0.26-1.1-0.55-1.64-0.86c-1.75-1.02-2.95-1.97-4.5-3.78c0.43,0.5-0.08-0.12-0.18-0.25c-0.15-0.2-0.3-0.4-0.44-0.6    c-0.33-0.46-0.63-0.92-0.93-1.4c-0.26-0.43-0.51-0.86-0.73-1.3c0.33,0.64,0.04,0.06-0.02-0.07c-0.15-0.34-0.31-0.68-0.45-1.03    c-0.21-0.52-0.4-1.05-0.58-1.58c-0.06-0.18-0.48-1.7-0.3-0.96c-0.26-1.09-0.44-2.21-0.55-3.33c-0.05-0.5-0.08-1-0.09-1.5    c0.02,0.6,0-0.03,0-0.13c0.01-0.31,0.02-0.63,0.03-0.94c0.06-1.18,0.21-2.37,0.46-3.53c-0.12,0.54,0.21-0.78,0.25-0.88    c0.14-0.47,0.29-0.93,0.46-1.38c0.19-0.51,0.39-1.02,0.62-1.51c0.12-0.28,0.25-0.55,0.38-0.82c-0.2,0.41,0.1-0.18,0.17-0.32    c1.12-2.01,2.72-4.1,4.04-5.39c0.87-0.85,1.8-1.63,2.78-2.35c0.49-0.36,0.99-0.7,1.5-1.03c0.26-0.16,0.52-0.32,0.78-0.48    c0.1-0.06,0.21-0.12,0.31-0.18c-0.19,0.11-0.18,0.11,0.02-0.01c2.21-1.17,4.63-2.11,7.1-2.53c2.78-0.48,6.15-0.72,8.91-0.09    c1.65,0.38,3.06-0.86,3.23-2.49C475.04,107.77,473.96,106.02,472.3,105.54L472.3,105.54z"/>
		<path d="M389.62,166.04c-0.57,5.11,1.55,9.89,3.59,14.44c1.96,4.36,4.15,8.63,6.53,12.78c1.39,2.42,3.28,5.36,6.56,4.18    c1.22-0.44,2.04-1.53,2.89-2.45c0.76-0.82,1.5-1.67,2.21-2.53c2.63-3.18,4.96-6.62,6.93-10.24c2.32-4.26,4.54-8.87,5.67-13.62    c0.47-1.98-0.05-4.19-1.95-5.25c-1.7-0.94-3.81-0.2-4.46,1.66c-1.66,4.76-3.34,9.43-5.77,13.61c-1.26,2.18-2.66,4.29-4.17,6.3    c-0.76,1.01-1.54,1.99-2.35,2.96c-0.41,0.48-0.82,0.96-1.24,1.42c-0.18,0.2-0.41,0.4-0.57,0.62c0.09-0.09,0.05-0.05-0.1,0.1    c-0.46,0.4-0.09,0.37,1.12-0.11c0.54,0.3,1.08,0.61,1.62,0.91c0.26,0.4,0.27,0.41,0.02,0.03c-0.16-0.27-0.32-0.53-0.47-0.8    c-0.31-0.54-0.63-1.07-0.93-1.62c-0.54-0.95-1.07-1.9-1.58-2.86c-1.13-2.09-1.87-3.55-2.91-5.72c-1.01-2.11-2.01-4.23-2.87-6.4    c-0.79-2-1.36-3.68-1.15-5.75c0.19-1.89-0.99-4.02-2.91-4.49C391.4,162.74,389.82,164.21,389.62,166.04L389.62,166.04z"/>
		<path d="M306.32,151.19c-18.46,15.14-35.85,31.52-52.51,48.62c-17.9,18.37-34.9,37.62-51.02,57.57    c-16.4,20.31-31.88,41.36-46.25,63.15c-14.2,21.52-27.29,43.77-38.96,66.77c-10.91,21.51-20.55,43.72-28.1,66.64    c-0.87,2.63-1.71,5.28-2.52,7.93c-0.58,1.9,0.12,4.16,1.92,5.16c1.62,0.9,3.81,0.23,4.38-1.63c6.94-22.69,15.99-44.71,26.37-66.04    c11.03-22.67,23.61-44.58,37.22-65.8c14.04-21.89,29.22-43.05,45.32-63.47c15.76-19.99,32.41-39.27,49.93-57.73    c16.52-17.41,33.85-34.02,51.88-49.86c2.07-1.82,4.16-3.62,6.25-5.42C313.17,154.58,309.55,148.54,306.32,151.19L306.32,151.19z"/>
		<path d="M90.5,468.14c0.99-0.31,1.99-0.59,2.99-0.86c0.49-0.14-0.26,0.05-0.29,0.06c0.57-0.13,0.71-0.15,1.15-0.31    c0.3-0.11,0.59-0.24,0.89-0.36c0.72-0.29,1.44-0.58,2.16-0.87c3.58-1.45,7.12-3.02,10.68-4.5c9.44-3.94,18.89-7.82,28.34-11.72    c16.37-6.77,32.93-13.21,49.02-20.63c12.25-5.65,24.23-11.97,36.27-18.05c13.94-7.04,27.83-14.2,41.57-21.62    c27.78-15.01,55.05-31.09,80.79-49.43c25.32-18.04,49.06-38.31,69.92-61.39c2.56-2.83,5.07-5.7,7.53-8.62    c2.76-3.26-2.45-8.92-5.57-5.23c-19.95,23.56-43.08,44.24-67.84,62.62c-25,18.56-51.63,34.85-78.86,49.91    c-27.37,15.13-55.37,29.07-83.37,43c-5.77,2.87-11.74,5.33-17.67,7.84c-9.23,3.9-18.49,7.74-27.74,11.58    c-9.8,4.06-19.6,8.11-29.37,12.24c-3.93,1.66-7.86,3.33-11.77,5.02c-3.02,1.31-6.41,2.48-9.11,4.38    c-0.79,0.56-1.62,1.07-2.41,1.63C85.34,464.54,87.68,469.01,90.5,468.14L90.5,468.14z"/>
		<path d="M313.5,164.74c7.64,6.82,14.98,13.98,22.25,21.19c8.91,8.82,17.7,17.77,26.43,26.77c8.56,8.82,17.05,17.7,25.52,26.6    c6.64,6.98,13.25,13.97,19.84,21c3.01,3.2,5.89,6.58,9.03,9.66c0.04,0.04,0.08,0.09,0.12,0.13c1.3,1.4,3.7,1.28,4.8-0.27    c1.24-1.75,0.59-4.04-0.76-5.48c-2.45-2.64-4.92-5.26-7.38-7.89c-6.25-6.66-12.51-13.29-18.8-19.91    c-8.33-8.76-16.7-17.48-25.12-26.15c-8.81-9.07-17.68-18.09-26.65-26.99c-7.56-7.5-15.18-14.95-23.07-22.1    c-0.77-0.7-1.54-1.39-2.32-2.08c-1.36-1.21-3.48-1.33-4.61,0.26C311.66,161.03,312.1,163.48,313.5,164.74L313.5,164.74z"/>
		<path d="M464.06,185.24c-3.57,18.6-7.12,37.2-10.62,55.81c-0.79,4.22-1.41,8.29-2.93,12.3c-1.47,3.87-3.87,7.27-6.33,10.59    c-5.61,7.57-11.3,15.07-16.95,22.61c-6.45,8.59-12.89,17.18-19.34,25.78c-2.55,3.4,2.65,9.04,5.54,5.2    c11.59-15.46,23.16-30.93,34.73-46.4c2.72-3.63,5.38-7.27,7.4-11.35c2.03-4.08,2.99-8.55,3.84-13.01    c1.78-9.3,3.49-18.61,5.24-27.92c2-10.65,3.93-21.31,5.9-31.97c0.34-1.82-1.08-3.97-2.86-4.41    C465.71,181.97,464.4,183.47,464.06,185.24L464.06,185.24z"/>
		<path d="M406.43,315.37c-0.63,9.63-1.97,19.23-3.29,28.79c-1.48,10.8-3.1,21.58-4.56,32.38c-0.68,4.97-1.32,9.94-1.82,14.93    c-0.19,1.92,1.01,4.08,2.96,4.56c1.92,0.47,3.55-1.01,3.74-2.88c2.09-20.46,5.69-40.74,8.12-61.16c0.59-4.98,1.14-9.96,1.45-14.96    c0.12-1.9-0.95-4.01-2.91-4.49C408.28,312.08,406.55,313.52,406.43,315.37L406.43,315.37z"/>
		<path d="M228.58,407.01c9.1-1.53,18.39-2.12,27.58-2.84c14.19-1.11,28.39-2,42.6-2.84c15.33-0.9,30.66-1.73,46-2.52    c12.61-0.65,25.22-1.27,37.83-1.86c5.9-0.28,11.86-0.33,17.75-0.85c0.08-0.01,0.17-0.01,0.25-0.01c4.48-0.2,3.23-7.76-0.96-7.58    c-4.88,0.21-9.77,0.39-14.65,0.62c-11.99,0.56-23.97,1.15-35.96,1.77c-15.21,0.78-30.41,1.6-45.62,2.51    c-14.58,0.87-29.16,1.8-43.73,2.92c-9.96,0.77-19.97,1.47-29.85,2.91c-0.73,0.11-1.46,0.22-2.19,0.34    c-1.85,0.32-3.1,1.92-2.78,3.85C225.13,405.05,226.62,407.34,228.58,407.01L228.58,407.01z"/>
		<path d="M282.53,179.35c10.58,17.7,21.38,35.27,32.35,52.73c11.03,17.56,22.24,35.01,33.6,52.36c3.15,4.81,6.32,9.61,9.5,14.4    c3.19,4.8,6.29,9.69,9.65,14.37c1.06,1.48,3.13,2.38,4.73,1.12c1.61-1.26,1.48-3.68,0.49-5.26c-5.42-8.67-11.32-17.08-16.95-25.63    c-5.71-8.67-11.38-17.36-17.01-26.08c-11.25-17.42-22.34-34.94-33.23-52.58c-6.05-9.8-12.05-19.64-17.98-29.52    c-0.93-1.55-3.18-2.28-4.67-1.11C281.4,175.42,281.58,177.76,282.53,179.35L282.53,179.35z"/>
		<path d="M249.5,212.07c13.98,14.47,27.79,29.1,41.43,43.88c13.81,14.96,27.45,30.07,40.91,45.34    c7.47,8.47,14.88,16.99,22.26,25.53c1.24,1.44,3.69,1.23,4.76-0.27c1.26-1.78,0.53-3.94-0.75-5.44    c-13.08-15.28-26.42-30.33-39.9-45.26c-13.64-15.1-27.44-30.06-41.41-44.85c-7.75-8.21-15.56-16.37-23.42-24.47    c-1.28-1.32-3.54-1.25-4.61,0.26C247.6,208.46,248.19,210.71,249.5,212.07L249.5,212.07z"/>
		<path d="M236.47,223.08c7.76,17.91,15.69,35.74,23.83,53.48c8.25,17.98,16.76,35.83,25.57,53.54c4.93,9.91,9.96,19.78,15.11,29.58    c0.86,1.63,3.28,2.27,4.75,1.13c1.7-1.34,1.37-3.61,0.49-5.28c-8.95-17.06-17.43-34.11-25.84-51.64    c-8.45-17.62-16.67-35.36-24.7-53.18c-4.47-9.93-8.88-19.88-13.25-29.85c-0.71-1.62-2.4-3.09-4.28-2.4    C236.39,219.12,235.76,221.45,236.47,223.08L236.47,223.08z"/>
		<path d="M201.85,268.39c11.75,12.6,23.31,25.38,34.63,38.36c11.36,13.02,22.45,26.18,33.3,39.64    c6.04,7.48,11.99,15.04,17.86,22.66c1.12,1.45,3.12,2.42,4.76,1.13c1.51-1.19,1.63-3.8,0.5-5.29    c-10.51-13.74-21.4-27.2-32.53-40.45c-11.42-13.59-23.08-26.97-34.97-40.14c-6.5-7.2-13.06-14.33-19.69-21.41    c-1.25-1.33-3.53-1.23-4.58,0.26C199.94,264.81,200.56,267.01,201.85,268.39L201.85,268.39z"/>
		<path d="M188.04,286.28c14.65,27.91,28.44,56.39,41.42,85.26c3.7,8.24,7.1,16.63,10.92,24.81c0.78,1.66,2.46,3.21,4.43,2.48    c1.86-0.69,2.4-3.07,1.73-4.77c-2.93-7.5-6.38-14.83-9.66-22.18c-3.29-7.36-6.65-14.7-10.06-22.01    c-6.77-14.47-13.76-28.83-20.97-43.09c-4.16-8.22-8.39-16.4-12.69-24.55c-0.84-1.59-3.2-2.22-4.63-1.1    C186.86,282.43,187.18,284.65,188.04,286.28L188.04,286.28z"/>
		<path d="M156.84,330.73c17.54,19.38,35.52,38.36,53.48,57.36c5.04,5.33,9.92,10.89,15.16,16.01c1.32,1.29,3.56,1.3,4.67-0.27    c1.24-1.74,0.53-3.88-0.74-5.34c-4.28-4.93-8.98-9.56-13.47-14.3c-4.45-4.69-8.9-9.38-13.34-14.07    c-9.02-9.53-18.03-19.07-26.96-28.69c-5-5.39-9.98-10.79-14.92-16.23c-1.23-1.36-3.55-1.21-4.6,0.26    C154.92,327.16,155.57,329.33,156.84,330.73L156.84,330.73z"/>
		<path d="M141.78,349.75c9.73,20.55,20.83,40.42,31.17,60.67c0.73,1.43,1.03,2.03,1.8,3.55c0.68,1.34,1.35,2.69,2.01,4.03    c1.44,2.91,2.74,5.95,4.37,8.76c0.83,1.42,2.81,2.16,4.27,1.31c1.53-0.89,1.93-2.87,1.32-4.47c-0.93-2.45-2.21-4.8-3.38-7.15    c-1.3-2.62-2.62-5.24-3.96-7.84c-2.56-5.01-5.17-10-7.8-14.98c-5.32-10.08-10.71-20.12-15.92-30.25c-1.43-2.78-2.45-4.79-3.86-7.6    c-1.37-2.74-2.72-5.49-4.03-8.26c-0.77-1.61-2.38-3.13-4.31-2.41C141.74,345.75,141.02,348.14,141.78,349.75L141.78,349.75z"/>
		<path d="M118.96,397.94c6.26,6.52,12.53,13.03,18.79,19.55c3.1,3.23,6.21,6.46,9.31,9.68c3.15,3.28,6.21,6.69,9.49,9.85    c1.34,1.29,3.58,1.31,4.7-0.27c1.23-1.74,0.55-3.93-0.74-5.37c-2.98-3.33-6.22-6.45-9.32-9.66c-3.17-3.27-6.34-6.55-9.51-9.82    c-6.28-6.49-12.56-12.98-18.84-19.47c-1.27-1.31-3.53-1.25-4.6,0.26C117.07,394.34,117.66,396.58,118.96,397.94L118.96,397.94z"/>
		<path d="M225.56,405.32c0.16,0.31,0.32,0.63,0.48,0.94c0.54,1.05-0.35-0.69,0.2,0.39c0.34,0.67,0.68,1.34,1.01,2.01    c0.65,1.29,1.29,2.59,1.93,3.88c1.45,2.92,2.88,5.85,4.32,8.78c2.8,5.7,5.59,11.4,8.49,17.05c0.83,1.62,3.24,2.23,4.67,1.11    c1.68-1.32,1.34-3.55,0.49-5.2c-0.33-0.63-0.65-1.27-0.97-1.9c-0.55-1.08,0.35,0.69-0.21-0.41c-0.17-0.34-0.34-0.68-0.51-1.02    c-0.65-1.29-1.3-2.58-1.94-3.88c-1.45-2.92-2.9-5.85-4.34-8.77c-2.81-5.69-5.61-11.38-8.52-17.03c-0.82-1.6-3.2-2.2-4.62-1.09    C224.38,401.5,224.73,403.69,225.56,405.32L225.56,405.32z"/>
		<path d="M246.52,440.74c18.52-1.25,37.05-2.38,55.56-3.76c4.44-0.33,3.19-7.77-0.95-7.51c-18.52,1.19-37.02,2.62-55.53,3.94    C241.27,433.72,242.48,441.01,246.52,440.74L246.52,440.74z"/>
		<path d="M304.87,434.63c3.02-5.32,5.95-10.7,8.78-16.12c2.89-5.53,5.86-11.08,8.38-16.79c0.78-1.76-0.26-4.14-1.87-5.03    c-1.82-1.01-3.42-0.07-4.28,1.59c-2.67,5.18-5.11,10.48-7.8,15.65c-2.75,5.3-5.59,10.54-8.51,15.74c-0.96,1.7-0.75,3.85,0.72,5.22    C301.52,436.03,303.91,436.32,304.87,434.63L304.87,434.63z"/>
		<path d="M317.59,400.97c5.98,9.62,12.54,18.88,18.76,28.35c0.81,1.24,1.73,2.46,2.42,3.77c0.76,1.42,2.79,2.09,4.17,1.29    c1.44-0.84,1.97-2.85,1.29-4.37c-1.54-3.48-4.01-6.61-6.13-9.75c-3.44-5.09-6.9-10.16-10.29-15.28c-1.76-2.65-3.5-5.3-5.18-8    c-0.94-1.5-3.09-2.25-4.57-1.08C316.5,397.11,316.63,399.44,317.59,400.97L317.59,400.97z"/>
		<path d="M342.64,436.22c10.57-0.88,21.15-1.76,31.72-2.7c2.64-0.23,5.28-0.47,7.93-0.7c1.26-0.11,2.66-0.09,3.9-0.39    c1.93-0.48,2.49-2.56,3.25-4.19c2.25-4.81,4.5-9.61,6.75-14.42c2.53-5.41,5.12-10.79,7.58-16.23c0.8-1.77-0.27-4.19-1.9-5.09    c-1.81-1-3.51-0.09-4.33,1.61c-5.27,10.9-10.24,21.95-15.35,32.92c0.87-0.67,1.75-1.35,2.62-2.02    c-14.36,1.31-28.72,2.65-43.07,4.04C337.49,429.44,338.68,436.54,342.64,436.22L342.64,436.22z"/>
		<path d="M241.96,437.18c-0.05,9.25-0.82,18.52-0.55,27.76c0.05,1.65,1.62,3.34,3.24,3.47c1.6,0.13,3.11-1.11,3.17-2.8    c0.28-8.93,0.47-17.91,0.44-26.85c-0.01-1.83-0.82-3.8-2.78-4.29C243.81,434.06,241.97,435.4,241.96,437.18L241.96,437.18z"/>
		<path d="M298.36,434.96c2.18,9,3.26,18.27,3.02,27.52c-0.05,1.9,0.9,3.97,2.9,4.47c1.76,0.43,3.63-0.97,3.66-2.82    c0.2-10.29-0.97-20.42-3.46-30.4c-0.39-1.56-2.26-2.8-3.81-2.45C299.13,431.62,297.97,433.35,298.36,434.96L298.36,434.96z"/>
		<path d="M242.07,462.42c-9.01,9.68-19,18.6-28.02,28.35c-1.04,1.12-0.66,3.3,0.1,4.44c0.84,1.26,2.33,1.95,3.8,1.49    c19.34-5.92,38.68-11.82,58.01-17.76c1.83-0.56,2.35-3.09,1.7-4.67c-0.73-1.75-2.4-3.02-4.34-2.43    c-19.33,5.94-38.64,11.93-57.96,17.89c1.3,1.98,2.6,3.95,3.91,5.93c8.92-9.68,18.9-18.7,27.87-28.48c1.24-1.35,0.5-3.9-0.69-5.01    C245.04,460.85,243.32,461.09,242.07,462.42L242.07,462.42z"/>
		<path d="M274.44,479.56c14.97,7.39,30.49,13.67,46.38,18.78c1.31,0.42,2.73-0.41,3.31-1.55c0.73-1.43,0.4-2.85-0.31-4.22    c-5.55-10.67-11.06-21.36-16.55-32.07c-0.85-1.65-3.31-2.28-4.77-1.13c-1.72,1.35-1.36,3.62-0.5,5.31    c5.47,10.71,11.01,21.38,16.6,32.03c1-1.92,2-3.85,3-5.77c-15.35-4.87-30.31-10.86-44.78-17.93    C272.53,470.9,270.72,477.73,274.44,479.56L274.44,479.56z"/>
		<path d="M338.66,434.95c0.27,9.76,0.55,19.52,0.82,29.27c0.2-0.88,0.4-1.76,0.6-2.65c-6.31,8.9-12.61,17.82-18.9,26.74    c-0.89,1.26-1.78,2.52-2.67,3.79c-1.05,1.48-0.73,3.65,0.42,4.97c1.22,1.4,2.79,1.67,4.4,0.74c10.64-6.16,21.57-11.81,32.34-17.74    c2.9-1.6,5.79-3.21,8.66-4.86c1.19-0.68,2.11-1.39,3.38-1.78c0.88-0.28,1.59,0.07,2.62,0.58c5.66,2.81,11.3,5.67,16.95,8.51    c6.54,3.29,13.08,6.57,19.62,9.86c1.38,0.69,3.04,0.49,3.97-0.83c1-1.41,0.7-3.24-0.11-4.65c-3.84-6.74-7.68-13.49-11.52-20.23    c-1.75-3.08-3.6-6.08-4.88-9.05c-0.3-0.7-0.52-1.45-0.84-2.15c-0.55-1.24,0,0.43-0.05,0.07c-0.03-0.24-0.09-0.49-0.13-0.73    c-1.14-6.41-2.26-12.82-3.33-19.25c-0.27-1.61-0.53-3.21-0.77-4.83c-0.07-0.49-0.15-0.98-0.2-1.47c-0.02-0.16-0.03-0.32-0.05-0.48    c-0.01-0.05,0-0.1-0.01-0.15c0.12,0.5-0.01,1.31-0.19,1.78c-0.34,0.49-0.69,0.98-1.03,1.47c0,0,0,0,0.01-0.01    c1.44-1.38,1.71-3.71,0.5-5.37c-1-1.38-3.31-2.6-4.83-1.15c-2.17,2.08-0.97,5.8-0.55,8.41c0.61,3.73,1.25,7.45,1.9,11.18    c0.55,3.18,1.12,6.35,1.68,9.52c0.84,4.69,3.19,8.87,5.53,12.97c4.49,7.88,9,15.74,13.5,23.62c1.29-1.83,2.57-3.65,3.86-5.48    c-11.97-5.99-23.95-11.98-35.92-17.98c-3.08-1.54-6.07-2.64-9.38-1.01c-2.85,1.4-5.55,3.16-8.33,4.71    c-5.68,3.17-11.42,6.25-17.15,9.34c-6.54,3.53-13.05,7.09-19.48,10.82c1.61,1.91,3.21,3.81,4.82,5.72    c3.56-5.06,7.13-10.12,10.69-15.18c2.46-3.5,4.92-7,7.38-10.51c1.14-1.63,2.38-3.22,3.43-4.9c0.83-1.33,0.59-2.89,0.54-4.38    c-0.04-1.32-0.09-2.65-0.13-3.97c-0.08-2.56-0.17-5.13-0.25-7.69c-0.17-5.29-0.35-10.58-0.52-15.87c-0.06-1.79-1.86-3.6-3.66-3.51    C339.33,431.26,338.61,433.2,338.66,434.95L338.66,434.95z"/>
		<path d="M469.08,186.42c8.55,17.05,16.76,34.27,24.64,51.64c7.96,17.56,15.59,35.28,22.89,53.13c7.33,17.92,14.33,35.98,21,54.16    c6.62,18.04,12.92,36.2,18.89,54.47c5.94,18.16,11.55,36.43,16.82,54.8c0.66,2.29,1.31,4.58,1.95,6.86    c0.51,1.82,2.73,3.23,4.56,2.55c2.05-0.76,2.3-3.1,1.78-4.92c-5.18-18.36-10.69-36.62-16.54-54.78    c-5.91-18.36-12.16-36.61-18.75-54.74c-6.61-18.2-13.55-36.28-20.82-54.23c-7.21-17.81-14.75-35.49-22.62-53.02    c-7.83-17.43-15.98-34.72-24.49-51.83c-1.06-2.13-2.12-4.26-3.19-6.38c-0.82-1.63-2.41-3.21-4.4-2.46    C469.07,182.32,468.26,184.79,469.08,186.42L469.08,186.42z"/>
		<path d="M397.32,394.64c23.9,10.01,47.95,19.67,71.98,29.35c24.07,9.7,48.14,19.38,72.24,29.03c11.76,4.71,23.86,9.51,36.51,11.09    c1.92,0.24,3.69-0.87,3.83-2.95c0.12-1.77-0.97-4.42-3.03-4.67c-11.33-1.41-22.24-5.44-32.82-9.59    c-11.73-4.6-23.41-9.34-35.11-14.03c-23.89-9.57-47.77-19.16-71.65-28.73c-13.47-5.4-26.92-10.83-40.44-16.11    c-1.55-0.61-3.08,0.86-3.39,2.25C395.11,391.79,395.75,393.98,397.32,394.64L397.32,394.64z"/>
		<path d="M487.28,223.72c-0.72,1.5-1.43,3.01-2.15,4.51c-1.94,4.07-3.88,8.14-5.82,12.21c-2.88,6.05-5.76,12.09-8.64,18.14    c-3.52,7.38-7.02,14.77-10.52,22.16c-3.81,8.06-7.62,16.12-11.44,24.18c-3.87,8.17-7.73,16.35-11.6,24.52    c-3.6,7.62-7.21,15.24-10.81,22.86c-3.03,6.41-6.07,12.82-9.1,19.23c-2.19,4.63-4.38,9.27-6.57,13.9    c-1.03,2.18-2.16,4.35-3.09,6.58c-0.04,0.1-0.09,0.19-0.13,0.29c-0.81,1.72,0.29,4.13,1.86,5c1.76,0.97,3.46,0.1,4.25-1.58    c0.01-0.02,0.02-0.05,0.03-0.07c0.18-0.38-0.41,0.8-0.35,0.68c0.14-0.29,0.31-0.6,0.46-0.9c0.14-0.28,0.28-0.57,0.42-0.85    c0.54-1.11,1.06-2.24,1.59-3.36c1.92-4.08,3.84-8.16,5.77-12.24c2.86-6.06,5.71-12.12,8.57-18.18c3.48-7.4,6.97-14.8,10.45-22.19    c3.8-8.07,7.6-16.13,11.4-24.2c3.85-8.18,7.71-16.36,11.56-24.54c3.59-7.63,7.19-15.25,10.76-22.89    c3.01-6.43,6.01-12.85,9.02-19.28c2.17-4.64,4.35-9.29,6.52-13.93c1.02-2.19,2.13-4.36,3.08-6.58c0.04-0.1,0.09-0.19,0.14-0.29    c0.75-1.6-0.26-3.82-1.72-4.63C489.58,221.35,488.02,222.17,487.28,223.72L487.28,223.72z"/>
		<path d="M427.58,401.5c11.59-16.25,23.01-32.62,34.23-49.12c11.33-16.66,22.52-33.42,33.62-50.23c3.04-4.61,6.08-9.23,9.11-13.85    c3.09-4.7,6.36-9.34,9.19-14.2c0.97-1.67,0.73-3.83-0.71-5.17c-1.33-1.24-3.41-1.28-4.53,0.26c-2.88,3.96-5.44,8.19-8.13,12.3    c-2.72,4.15-5.44,8.29-8.17,12.44c-5.55,8.42-11.12,16.83-16.72,25.22c-11.18,16.76-22.47,33.45-33.91,50.05    c-6.33,9.19-12.72,18.35-19.17,27.47C420.11,399.88,424.97,405.16,427.58,401.5L427.58,401.5z"/>
		<path d="M515.85,290.54c-6.72,16.17-13.75,32.23-21.11,48.12c-7.37,15.9-15,31.67-22.99,47.27c-4.52,8.83-9.41,17.48-13.86,26.35    c-0.78,1.55,0.18,3.8,1.49,4.72c1.26,0.89,3.3,1.01,4.2-0.53c4.51-7.69,8.48-15.75,12.56-23.67c4.03-7.82,7.99-15.69,11.85-23.6    c7.74-15.82,15.1-31.81,22.11-47.96c3.95-9.11,7.78-18.27,11.49-27.47C523.06,290.13,517.58,286.37,515.85,290.54L515.85,290.54z"/>
		<path d="M481.07,425.13c15.72-21.65,31.35-43.37,46.97-65.09c4.46-6.2,8.76-12.55,13.42-18.6c2.58-3.36-2.84-9.01-5.45-5.12    c-3.74,5.59-7.83,10.97-11.75,16.44c-3.92,5.47-7.85,10.94-11.77,16.41c-7.75,10.81-15.54,21.59-23.24,32.44    c-4.43,6.24-8.86,12.48-13.29,18.71C473.67,423.52,478.45,428.74,481.07,425.13L481.07,425.13z"/>
		<path d="M543.74,363.79c-7.45,18.76-15.96,37.12-25.67,54.82c-2.8,5.1-5.76,10.11-8.65,15.16c-0.99,1.72-0.76,3.93,0.73,5.32    c1.28,1.19,3.63,1.42,4.66-0.27c5.46-8.93,10.4-18.22,15.15-27.54c4.65-9.12,8.97-18.4,12.99-27.81    c2.32-5.43,4.53-10.89,6.66-16.4c0.66-1.71-0.19-3.92-1.79-4.8C546.21,361.39,544.4,362.12,543.74,363.79L543.74,363.79z"/>
		<path d="M536.87,446.35c4.46-6.03,8.92-12.06,13.38-18.08c2.18-2.95,4.36-5.89,6.54-8.84c2.27-3.07,4.75-6.06,6.8-9.28    c2.14-3.36-2.27-8.46-5.26-4.93c-2.41,2.84-4.48,6.04-6.69,9.04c-2.22,3.03-4.43,6.05-6.65,9.08c-4.43,6.05-8.87,12.1-13.3,18.16    C529.35,444.7,534.19,449.97,536.87,446.35L536.87,446.35z"/>
	</g>
</g>
<g id="GHYAMA">
</g>
<g id="Ebene_170">
</g>
<g id="BRAILLE">
</g>
<g id="EYE_OF_HORUS">
</g>
<g id="PARTY_ELEMENT">
</g>
<g id="CAKE">
</g>
<g id="PAPERPLANE">
</g>
<g id="INCUBATOR_1_">
</g>
<g id="_x3D_">
</g>
<g id="COLOR_PALETTE">
</g>
<g id="TAGS">
</g>
<script xmlns=""/></svg>