<?xml version="1.0" encoding="UTF-8" standalone="no"?><!DOCTYPE svg PUBLIC "-//W3C//DTD SVG 1.1//EN" "http://www.w3.org/Graphics/SVG/1.1/DTD/svg11.dtd"><svg width="100%" height="100%" viewBox="0 0 32 32" version="1.1" xmlns="http://www.w3.org/2000/svg" xmlns:xlink="http://www.w3.org/1999/xlink" xml:space="preserve" xmlns:serif="http://www.serif.com/" style="fill-rule:evenodd;clip-rule:evenodd;stroke-linejoin:round;stroke-miterlimit:1.41421;">
<metadata>
<rdf:RDF xmlns:cc="http://web.resource.org/cc/"
         xmlns:rdf="http://www.w3.org/1999/02/22-rdf-syntax-ns#"
         xmlns:dc = "http://purl.org/dc/elements/1.1/"
         >

     <rdf:Description rdf:about="">
       <dc:title>Mutant Standard S3</dc:title>
     </rdf:Description>

    <cc:work rdf:about="">
        <cc:license rdf:resource="http://creativecommons.org/licenses/by-nc-sa/4.0/"/>
        <cc:attributionName>Dzuk</cc:attributionName>
        <cc:attributionURL>http://mutant.tech/</cc:attributionURL>
    </cc:work>

</rdf:RDF>
</metadata>
<rect id="civil" x="0" y="0" width="32" height="32" style="fill:none;"/><clipPath id="_clip1"><rect x="0" y="0" width="32" height="32"/></clipPath><g clip-path="url(#_clip1)"><g id="outline"><path d="M32,8c0,-4.418 -3.582,-8 -8,-8c-4.887,0 -11.113,0 -16,0c-4.418,0 -8,3.582 -8,8c0,4.887 0,11.113 0,16c0,4.418 3.582,8 8,8c4.887,0 11.113,0 16,0c4.418,0 8,-3.582 8,-8c0,-4.887 0,-11.113 0,-16Z"/></g><g id="emoji"><path d="M30,8c0,-1.591 -0.632,-3.117 -1.757,-4.243c-1.126,-1.125 -2.652,-1.757 -4.243,-1.757c-4.724,0 -11.276,0 -16,0c-1.591,0 -3.117,0.632 -4.243,1.757c-1.125,1.126 -1.757,2.652 -1.757,4.243c0,4.724 0,11.276 0,16c0,1.591 0.632,3.117 1.757,4.243c1.126,1.125 2.652,1.757 4.243,1.757c4.724,0 11.276,0 16,0c1.591,0 3.117,-0.632 4.243,-1.757c1.125,-1.126 1.757,-2.652 1.757,-4.243c0,-4.724 0,-11.276 0,-16Z" style="fill:#e02a33;"/><path d="M4.753,20.396c-0.502,-0.488 -0.753,-1.2 -0.753,-2.136l0,-4.505c0,-0.946 0.266,-1.663 0.797,-2.151c0.531,-0.488 1.231,-0.731 2.1,-0.731c0.83,0 1.501,0.241 2.013,0.724c0.512,0.483 0.768,1.217 0.768,2.201l0,0.305l-1.782,0l0,-0.29c0,-0.454 -0.094,-0.789 -0.282,-1.007c-0.189,-0.217 -0.442,-0.326 -0.761,-0.326c-0.376,0 -0.649,0.131 -0.818,0.391c-0.169,0.261 -0.253,0.652 -0.253,1.174l0,4.012c0,0.975 0.357,1.463 1.071,1.463c0.319,0 0.572,-0.111 0.761,-0.334c0.188,-0.222 0.282,-0.55 0.282,-0.984l0,-0.261l1.767,0l0,0.275c0,0.966 -0.268,1.692 -0.804,2.18c-0.536,0.488 -1.224,0.731 -2.064,0.731c-0.859,0 -1.54,-0.243 -2.042,-0.731Z" style="fill:#fff;fill-rule:nonzero;"/><rect x="10.894" y="11.018" width="1.767" height="9.994" style="fill:#fff;fill-rule:nonzero;"/><path d="M13.415,11.018l1.955,0l1.202,7.473l1.217,-7.473l1.955,0l-2.245,9.993l-1.839,0l-2.245,-9.993Z" style="fill:#fff;fill-rule:nonzero;"/><rect x="20.497" y="11.018" width="1.767" height="9.994" style="fill:#fff;fill-rule:nonzero;"/><path d="M23.539,11.018l1.781,0l0,8.4l2.68,0l0,1.593l-4.461,0l0,-9.993Z" style="fill:#fff;fill-rule:nonzero;"/></g></g></svg>