<?xml version="1.0" encoding="UTF-8"?>
<!DOCTYPE svg  PUBLIC '-//W3C//DTD SVG 1.1//EN'  'http://www.w3.org/Graphics/SVG/1.1/DTD/svg11.dtd'>
<svg clip-rule="evenodd" fill-rule="evenodd" stroke-linejoin="round" stroke-miterlimit="1.4142" version="1.1" viewBox="0 0 32 32" xml:space="preserve" xmlns="http://www.w3.org/2000/svg">
<metadata>
<rdf:RDF xmlns:cc="http://web.resource.org/cc/" xmlns:dc="http://purl.org/dc/elements/1.1/" xmlns:rdf="http://www.w3.org/1999/02/22-rdf-syntax-ns#">

     <rdf:Description rdf:about="">
       <dc:title>Mutant Standard S3</dc:title>
     </rdf:Description>

    <cc:work rdf:about="">
        <cc:license rdf:resource="http://creativecommons.org/licenses/by-nc-sa/4.0/"/>
        <cc:attributionName>Dzuk</cc:attributionName>
        <cc:attributionURL>http://mutant.tech/</cc:attributionURL>
    </cc:work>

</rdf:RDF>
</metadata>
<rect id="civil" width="32" height="32" fill="none"/><clipPath id="_clip1"><rect width="32" height="32"/></clipPath><g clip-path="url(#_clip1)"><g id="outline"><path d="m32 8c0-4.418-3.582-8-8-8h-16c-4.418 0-8 3.582-8 8v16c0 4.418 3.582 8 8 8h16c4.418 0 8-3.582 8-8v-16z"/></g><g id="emoji"><path d="m30 8c0-1.591-0.632-3.117-1.757-4.243-1.126-1.125-2.652-1.757-4.243-1.757h-16c-1.591 0-3.117 0.632-4.243 1.757-1.125 1.126-1.757 2.652-1.757 4.243v16c0 1.591 0.632 3.117 1.757 4.243 1.126 1.125 2.652 1.757 4.243 1.757h16c1.591 0 3.117-0.632 4.243-1.757 1.125-1.126 1.757-2.652 1.757-4.243v-16z" fill="#e02a33"/><path d="m4.753 20.396c-0.502-0.488-0.753-1.2-0.753-2.136v-4.505c0-0.946 0.266-1.663 0.797-2.151s1.231-0.731 2.1-0.731c0.83 0 1.501 0.241 2.013 0.724s0.768 1.217 0.768 2.201v0.305h-1.782v-0.29c0-0.454-0.094-0.789-0.282-1.007-0.189-0.217-0.442-0.326-0.761-0.326-0.376 0-0.649 0.131-0.818 0.391-0.169 0.261-0.253 0.652-0.253 1.174v4.012c0 0.975 0.357 1.463 1.071 1.463 0.319 0 0.572-0.111 0.761-0.334 0.188-0.222 0.282-0.55 0.282-0.984v-0.261h1.767v0.275c0 0.966-0.268 1.692-0.804 2.18s-1.224 0.731-2.064 0.731c-0.859 0-1.54-0.243-2.042-0.731z" fill="#fff" fill-rule="nonzero"/><rect x="10.894" y="11.018" width="1.767" height="9.994" fill="#fff" fill-rule="nonzero"/><path d="m13.415 11.018h1.955l1.202 7.473 1.217-7.473h1.955l-2.245 9.993h-1.839l-2.245-9.993z" fill="#fff" fill-rule="nonzero"/><rect x="20.497" y="11.018" width="1.767" height="9.994" fill="#fff" fill-rule="nonzero"/><path d="m23.539 11.018h1.781v8.4h2.68v1.593h-4.461v-9.993z" fill="#fff" fill-rule="nonzero"/></g></g></svg>
