<?xml version="1.0" encoding="UTF-8" standalone="no"?><!DOCTYPE svg PUBLIC "-//W3C//DTD SVG 1.1//EN" "http://www.w3.org/Graphics/SVG/1.1/DTD/svg11.dtd"><svg width="100%" height="100%" viewBox="0 0 32 32" version="1.1" xmlns="http://www.w3.org/2000/svg" xmlns:xlink="http://www.w3.org/1999/xlink" xml:space="preserve" xmlns:serif="http://www.serif.com/" style="fill-rule:evenodd;clip-rule:evenodd;stroke-linecap:round;stroke-linejoin:round;stroke-miterlimit:1.5;">
<metadata>
<rdf:RDF xmlns:cc="http://web.resource.org/cc/"
         xmlns:rdf="http://www.w3.org/1999/02/22-rdf-syntax-ns#"
         xmlns:dc = "http://purl.org/dc/elements/1.1/"
         >

     <rdf:Description rdf:about="">
       <dc:title>Mutant Standard S3</dc:title>
     </rdf:Description>

    <cc:work rdf:about="">
        <cc:license rdf:resource="http://creativecommons.org/licenses/by-nc-sa/4.0/"/>
        <cc:attributionName>Dzuk</cc:attributionName>
        <cc:attributionURL>http://mutant.tech/</cc:attributionURL>
    </cc:work>

</rdf:RDF>
</metadata>
<rect id="s" x="0" y="0" width="32" height="32" style="fill:none;"/><clipPath id="_clip1"><rect x="0" y="0" width="32" height="32"/></clipPath><g clip-path="url(#_clip1)"><g id="outline"><path d="M16,2l-8,6l0,16l8,6l8,-6l0,-16l-8,-6Z" style="fill:none;stroke:#000;stroke-width:4px;"/></g><g id="emoji"><path d="M16,2l-8,6l0,16l8,6l8,-6l0,-16l-8,-6Z" style="fill:#199d4e;"/><clipPath id="_clip2"><path d="M16,2l-8,6l0,16l8,6l8,-6l0,-16l-8,-6Z"/></clipPath><g clip-path="url(#_clip2)"><path d="M16,25l0,-5l-9,-5" style="fill:none;stroke:#000;stroke-width:2px;"/><path d="M16,7l0,5l9,5" style="fill:none;stroke:#000;stroke-width:2px;"/></g></g></g></svg>