<?xml version="1.0" encoding="UTF-8"?>
<!DOCTYPE svg  PUBLIC '-//W3C//DTD SVG 1.1//EN'  'http://www.w3.org/Graphics/SVG/1.1/DTD/svg11.dtd'>
<svg clip-rule="evenodd" fill-rule="evenodd" stroke-linejoin="round" stroke-miterlimit="1.5" version="1.1" viewBox="0 0 32 32" xml:space="preserve" xmlns="http://www.w3.org/2000/svg">
<metadata>
<rdf:RDF xmlns:cc="http://web.resource.org/cc/" xmlns:dc="http://purl.org/dc/elements/1.1/" xmlns:rdf="http://www.w3.org/1999/02/22-rdf-syntax-ns#">

     <rdf:Description rdf:about="">
       <dc:title>Mutant Standard emoji 2023.12</dc:title>
     </rdf:Description>

    <cc:work rdf:about="">
        <cc:license rdf:resource="http://creativecommons.org/licenses/by-nc-sa/4.0/"/>
        <cc:attributionName>Caius Nocturne</cc:attributionName>
        <cc:attributionURL>http://mutant.tech/</cc:attributionURL>
    </cc:work>

</rdf:RDF>
</metadata>

    <rect id="bookmark" width="32" height="32" fill="none"/>
    <clipPath id="_clip1">
        <rect width="32" height="32"/>
    </clipPath>
    <g clip-path="url(#_clip1)">
        <g id="outline" fill="none" stroke="#000" stroke-width="4px">
            <path d="m26 30h-20v-28h13l7 7v21z"/>
            <path d="m28 17h-9c-0.552 0-1 0.448-1 1v6c0 0.552 0.448 1 1 1h9v-8z"/>
        </g>
        <g id="emoji">
            <path d="m26 30h-20v-28h13l1 2 4 4 2 1v21z" fill="#fff"/>
            <rect x="8" y="8" width="16" height="2" fill="#b2b2b2"/>
            <rect x="8" y="11" width="16" height="2" fill="#b2b2b2"/>
            <rect x="8" y="14" width="16" height="2" fill="#b2b2b2"/>
            <rect x="8" y="17" width="16" height="2" fill="#b2b2b2"/>
            <rect x="8" y="20" width="16" height="2" fill="#b2b2b2"/>
            <rect x="8" y="23" width="16" height="2" fill="#b2b2b2"/>
            <rect x="8" y="26" width="16" height="2" fill="#b2b2b2"/>
            <path d="m19 9v-7l7 7h-7z" fill="#666"/>
            <path d="m28 17h-8c-0.53 0-1.039 0.211-1.414 0.586s-0.586 0.884-0.586 1.414v4c0 0.53 0.211 1.039 0.586 1.414s0.884 0.586 1.414 0.586h8v-8z" fill="#4cbf1e"/>
        </g>
    </g>
</svg>
