<?xml version="1.0" encoding="UTF-8"?>
<!DOCTYPE svg  PUBLIC '-//W3C//DTD SVG 1.1//EN'  'http://www.w3.org/Graphics/SVG/1.1/DTD/svg11.dtd'>
<svg clip-rule="evenodd" fill-rule="evenodd" stroke-linejoin="round" stroke-miterlimit="2" version="1.1" viewBox="0 0 32 32" xml:space="preserve" xmlns="http://www.w3.org/2000/svg">
<metadata>
<rdf:RDF xmlns:cc="http://web.resource.org/cc/" xmlns:dc="http://purl.org/dc/elements/1.1/" xmlns:rdf="http://www.w3.org/1999/02/22-rdf-syntax-ns#">

     <rdf:Description rdf:about="">
       <dc:title>Mutant Standard emoji 2023.12</dc:title>
     </rdf:Description>

    <cc:work rdf:about="">
        <cc:license rdf:resource="http://creativecommons.org/licenses/by-nc-sa/4.0/"/>
        <cc:attributionName>Caius Nocturne</cc:attributionName>
        <cc:attributionURL>http://mutant.tech/</cc:attributionURL>
    </cc:work>

</rdf:RDF>
</metadata>

    <rect id="calendar" width="32" height="32" fill="none"/>
    <clipPath id="_clip1">
        <rect width="32" height="32"/>
    </clipPath>
    <g clip-path="url(#_clip1)">
        <g id="outline">
            <path d="m11.149 3e-3 0.148 0.011 0.146 0.018 0.145 0.026 0.143 0.032 0.142 0.039 0.139 0.046 0.136 0.053 0.134 0.059 0.131 0.066 0.128 0.072 0.124 0.079 0.12 0.084 0.117 0.091 0.112 0.097 0.108 0.102 0.102 0.108 0.097 0.112 0.091 0.117 0.084 0.12 0.079 0.124 0.072 0.128 0.066 0.131 0.059 0.134 0.053 0.136 0.046 0.139 0.039 0.142 0.032 0.143 0.026 0.145 0.018 0.147 0.011 0.147 3e-3 0.124v5.05l-3e-3 0.124-0.011 0.147-0.018 0.147-0.026 0.145-0.032 0.143-0.039 0.142-0.046 0.139-0.053 0.136-0.059 0.134-0.066 0.131-0.072 0.128-0.079 0.124-0.084 0.12-0.091 0.117-0.097 0.112-0.102 0.108-0.108 0.102-0.112 0.097-0.117 0.091-0.12 0.084-0.124 0.079-0.128 0.072-0.131 0.066-0.134 0.059-0.136 0.053-0.139 0.046-0.142 0.039-0.143 0.032-0.145 0.026-0.147 0.018-0.147 0.011-0.149 4e-3 -0.149-4e-3 -0.147-0.011-0.147-0.018-0.145-0.026-0.143-0.032-0.142-0.039-0.139-0.046-0.136-0.053-0.134-0.059-0.131-0.066-0.128-0.072-0.124-0.079-0.12-0.084-0.117-0.091-0.112-0.097-0.108-0.102-0.102-0.108-0.097-0.112-0.091-0.117-0.084-0.12-0.079-0.124-0.072-0.128-0.066-0.131-0.059-0.134-0.053-0.136-0.046-0.139-0.039-0.142-0.032-0.143-0.026-0.145-0.018-0.147-0.011-0.147-3e-3 -0.124v-5.05l3e-3 -0.124 0.011-0.147 0.018-0.147 0.026-0.145 0.032-0.143 0.039-0.142 0.046-0.139 0.053-0.136 0.059-0.134 0.066-0.131 0.072-0.128 0.079-0.124 0.084-0.12 0.091-0.117 0.097-0.112 0.102-0.108 0.108-0.102 0.112-0.097 0.117-0.091 0.12-0.084 0.124-0.079 0.128-0.072 0.131-0.066 0.134-0.059 0.136-0.053 0.139-0.046 0.142-0.039 0.143-0.032 0.145-0.026 0.146-0.018 0.148-0.011 0.149-4e-3 0.149 4e-3z"/>
            <path d="m21.149 3e-3 0.148 0.011 0.146 0.018 0.145 0.026 0.143 0.032 0.142 0.039 0.139 0.046 0.136 0.053 0.134 0.059 0.131 0.066 0.128 0.072 0.124 0.079 0.12 0.084 0.117 0.091 0.112 0.097 0.108 0.102 0.102 0.108 0.097 0.112 0.091 0.117 0.084 0.12 0.079 0.124 0.072 0.128 0.066 0.131 0.059 0.134 0.053 0.136 0.046 0.139 0.039 0.142 0.032 0.143 0.026 0.145 0.018 0.147 0.011 0.147 3e-3 0.124v5.05l-3e-3 0.124-0.011 0.147-0.018 0.147-0.026 0.145-0.032 0.143-0.039 0.142-0.046 0.139-0.053 0.136-0.059 0.134-0.066 0.131-0.072 0.128-0.079 0.124-0.084 0.12-0.091 0.117-0.097 0.112-0.102 0.108-0.108 0.102-0.112 0.097-0.117 0.091-0.12 0.084-0.124 0.079-0.128 0.072-0.131 0.066-0.134 0.059-0.136 0.053-0.139 0.046-0.142 0.039-0.143 0.032-0.145 0.026-0.147 0.018-0.147 0.011-0.149 4e-3 -0.149-4e-3 -0.147-0.011-0.147-0.018-0.145-0.026-0.143-0.032-0.142-0.039-0.139-0.046-0.136-0.053-0.134-0.059-0.131-0.066-0.128-0.072-0.124-0.079-0.12-0.084-0.117-0.091-0.112-0.097-0.108-0.102-0.102-0.108-0.097-0.112-0.091-0.117-0.084-0.12-0.079-0.124-0.072-0.128-0.066-0.131-0.059-0.134-0.053-0.136-0.046-0.139-0.039-0.142-0.032-0.143-0.026-0.145-0.018-0.147-0.011-0.147-3e-3 -0.124v-5.05l3e-3 -0.124 0.011-0.147 0.018-0.147 0.026-0.145 0.032-0.143 0.039-0.142 0.046-0.139 0.053-0.136 0.059-0.134 0.066-0.131 0.072-0.128 0.079-0.124 0.084-0.12 0.091-0.117 0.097-0.112 0.102-0.108 0.108-0.102 0.112-0.097 0.117-0.091 0.12-0.084 0.124-0.079 0.128-0.072 0.131-0.066 0.134-0.059 0.136-0.053 0.139-0.046 0.142-0.039 0.143-0.032 0.145-0.026 0.146-0.018 0.148-0.011 0.149-4e-3 0.149 4e-3z"/>
            <path d="m28 6c0-0.53-0.211-1.039-0.586-1.414s-0.884-0.586-1.414-0.586h-20c-0.53 0-1.039 0.211-1.414 0.586s-0.586 0.884-0.586 1.414v24c0 0.53 0.211 1.039 0.586 1.414s0.884 0.586 1.414 0.586h20c0.53 0 1.039-0.211 1.414-0.586s0.586-0.884 0.586-1.414v-24z"/>
            <path d="m11.149 3e-3 0.148 0.011 0.146 0.018 0.145 0.026 0.143 0.032 0.142 0.039 0.139 0.046 0.136 0.053 0.134 0.059 0.131 0.066 0.128 0.072 0.124 0.079 0.12 0.084 0.117 0.091 0.112 0.097 0.108 0.102 0.102 0.108 0.097 0.112 0.091 0.117 0.084 0.12 0.079 0.124 0.072 0.128 0.066 0.131 0.059 0.134 0.053 0.136 0.046 0.139 0.039 0.142 0.032 0.143 0.026 0.145 0.018 0.147 0.011 0.147 3e-3 0.124v5.05l-3e-3 0.124-0.011 0.147-0.018 0.147-0.026 0.145-0.032 0.143-0.039 0.142-0.046 0.139-0.053 0.136-0.059 0.134-0.066 0.131-0.072 0.128-0.079 0.124-0.084 0.12-0.091 0.117-0.097 0.112-0.102 0.108-0.108 0.102-0.112 0.097-0.117 0.091-0.12 0.084-0.124 0.079-0.128 0.072-0.131 0.066-0.134 0.059-0.136 0.053-0.139 0.046-0.142 0.039-0.143 0.032-0.145 0.026-0.147 0.018-0.147 0.011-0.149 4e-3 -0.149-4e-3 -0.147-0.011-0.147-0.018-0.145-0.026-0.143-0.032-0.142-0.039-0.139-0.046-0.136-0.053-0.134-0.059-0.131-0.066-0.128-0.072-0.124-0.079-0.12-0.084-0.117-0.091-0.112-0.097-0.108-0.102-0.102-0.108-0.097-0.112-0.091-0.117-0.084-0.12-0.079-0.124-0.072-0.128-0.066-0.131-0.059-0.134-0.053-0.136-0.046-0.139-0.039-0.142-0.032-0.143-0.026-0.145-0.018-0.147-0.011-0.147-3e-3 -0.124v-5.05l3e-3 -0.124 0.011-0.147 0.018-0.147 0.026-0.145 0.032-0.143 0.039-0.142 0.046-0.139 0.053-0.136 0.059-0.134 0.066-0.131 0.072-0.128 0.079-0.124 0.084-0.12 0.091-0.117 0.097-0.112 0.102-0.108 0.108-0.102 0.112-0.097 0.117-0.091 0.12-0.084 0.124-0.079 0.128-0.072 0.131-0.066 0.134-0.059 0.136-0.053 0.139-0.046 0.142-0.039 0.143-0.032 0.145-0.026 0.146-0.018 0.148-0.011 0.149-4e-3 0.149 4e-3z"/>
            <path d="m21.149 3e-3 0.148 0.011 0.146 0.018 0.145 0.026 0.143 0.032 0.142 0.039 0.139 0.046 0.136 0.053 0.134 0.059 0.131 0.066 0.128 0.072 0.124 0.079 0.12 0.084 0.117 0.091 0.112 0.097 0.108 0.102 0.102 0.108 0.097 0.112 0.091 0.117 0.084 0.12 0.079 0.124 0.072 0.128 0.066 0.131 0.059 0.134 0.053 0.136 0.046 0.139 0.039 0.142 0.032 0.143 0.026 0.145 0.018 0.147 0.011 0.147 3e-3 0.124v5.05l-3e-3 0.124-0.011 0.147-0.018 0.147-0.026 0.145-0.032 0.143-0.039 0.142-0.046 0.139-0.053 0.136-0.059 0.134-0.066 0.131-0.072 0.128-0.079 0.124-0.084 0.12-0.091 0.117-0.097 0.112-0.102 0.108-0.108 0.102-0.112 0.097-0.117 0.091-0.12 0.084-0.124 0.079-0.128 0.072-0.131 0.066-0.134 0.059-0.136 0.053-0.139 0.046-0.142 0.039-0.143 0.032-0.145 0.026-0.147 0.018-0.147 0.011-0.149 4e-3 -0.149-4e-3 -0.147-0.011-0.147-0.018-0.145-0.026-0.143-0.032-0.142-0.039-0.139-0.046-0.136-0.053-0.134-0.059-0.131-0.066-0.128-0.072-0.124-0.079-0.12-0.084-0.117-0.091-0.112-0.097-0.108-0.102-0.102-0.108-0.097-0.112-0.091-0.117-0.084-0.12-0.079-0.124-0.072-0.128-0.066-0.131-0.059-0.134-0.053-0.136-0.046-0.139-0.039-0.142-0.032-0.143-0.026-0.145-0.018-0.147-0.011-0.147-3e-3 -0.124v-5.05l3e-3 -0.124 0.011-0.147 0.018-0.147 0.026-0.145 0.032-0.143 0.039-0.142 0.046-0.139 0.053-0.136 0.059-0.134 0.066-0.131 0.072-0.128 0.079-0.124 0.084-0.12 0.091-0.117 0.097-0.112 0.102-0.108 0.108-0.102 0.112-0.097 0.117-0.091 0.12-0.084 0.124-0.079 0.128-0.072 0.131-0.066 0.134-0.059 0.136-0.053 0.139-0.046 0.142-0.039 0.143-0.032 0.145-0.026 0.146-0.018 0.148-0.011 0.149-4e-3 0.149 4e-3z"/>
        </g>
        <g id="emoji">
            <path d="m26 23-1-1h-18l-1 1v7h20v-7z" fill="#808080"/>
            <rect x="6" y="6" width="20" height="17" fill="#fff"/>
            <path d="m13.11 21.2c-1.185 0-2.093-0.258-2.722-0.776-0.63-0.518-0.945-1.263-0.945-2.234v-0.176h1.953v0.128c0 0.416 0.145 0.734 0.433 0.953s0.704 0.328 1.249 0.328c0.533 0 0.944-0.131 1.233-0.392 0.288-0.262 0.432-0.627 0.432-1.097v-0.24c0-0.502-0.152-0.873-0.456-1.113-0.305-0.24-0.766-0.36-1.385-0.36h-0.625v-1.778h0.609c0.544 0 0.958-0.117 1.241-0.352 0.282-0.235 0.424-0.571 0.424-1.009v-0.192c0-0.416-0.134-0.739-0.4-0.969-0.267-0.229-0.646-0.344-1.137-0.344-0.502 0-0.886 0.112-1.153 0.336s-0.4 0.545-0.4 0.961v0.144h-1.922v-0.144c0-0.993 0.304-1.753 0.913-2.282 0.608-0.528 1.478-0.792 2.61-0.792 1.11 0 1.98 0.256 2.61 0.768 0.63 0.513 0.944 1.217 0.944 2.114v0.208c0 0.512-0.13 0.961-0.392 1.345-0.261 0.384-0.643 0.689-1.145 0.913 0.566 0.192 0.996 0.507 1.289 0.944 0.294 0.438 0.441 0.972 0.441 1.602v0.256c0 1.003-0.334 1.796-1.001 2.378-0.667 0.581-1.567 0.872-2.698 0.872z" fill-rule="nonzero"/>
            <path d="m20.459 12.169-2.353 1.361v-2.161l2.353-1.393h2.098v11.048h-2.098v-8.855z" fill-rule="nonzero"/>
            <path d="m11.504 28.965c-0.63 0-1.122-0.175-1.475-0.524-0.353-0.35-0.529-0.873-0.529-1.568v-0.746c0-0.695 0.18-1.218 0.54-1.568 0.36-0.349 0.857-0.524 1.493-0.524 0.625 0 1.117 0.175 1.475 0.524 0.357 0.35 0.536 0.873 0.536 1.568v0.746c0 0.691-0.182 1.212-0.547 1.564s-0.862 0.528-1.493 0.528zm0.029-0.814c0.724 0 1.086-0.431 1.086-1.292v-0.684c0-0.897-0.362-1.346-1.086-1.346-0.372 0-0.649 0.11-0.83 0.331s-0.271 0.56-0.271 1.015v0.684c0 0.437 0.09 0.762 0.271 0.974s0.458 0.318 0.83 0.318z" fill="#fff" fill-rule="nonzero"/>
            <path d="m16.325 28.965c-0.654 0-1.164-0.175-1.528-0.524-0.365-0.35-0.547-0.873-0.547-1.568v-0.746c0-0.695 0.183-1.218 0.55-1.568 0.367-0.349 0.878-0.524 1.532-0.524 0.597 0 1.074 0.143 1.429 0.431s0.533 0.687 0.533 1.198v0.056h-0.925v-0.028c0-0.267-0.092-0.478-0.275-0.632-0.184-0.154-0.438-0.231-0.762-0.231-0.386 0-0.674 0.11-0.865 0.331-0.19 0.221-0.286 0.56-0.286 1.015v0.684c0 0.437 0.097 0.762 0.29 0.974s0.482 0.318 0.868 0.318c0.324 0 0.577-0.075 0.758-0.225 0.182-0.15 0.272-0.356 0.272-0.618v-0.035h0.918v0.035c0 0.525-0.177 0.932-0.53 1.222s-0.83 0.435-1.432 0.435z" fill="#fff" fill-rule="nonzero"/>
            <path d="m22.5 24.912h-1.461v3.977h-0.924v-3.977h-1.461v-0.788h3.846v0.788z" fill="#fff" fill-rule="nonzero"/>
            <path d="m12 3c0-0.265-0.105-0.52-0.293-0.707-0.187-0.188-0.442-0.293-0.707-0.293s-0.52 0.105-0.707 0.293c-0.188 0.187-0.293 0.442-0.293 0.707v5c0 0.265 0.105 0.52 0.293 0.707 0.187 0.188 0.442 0.293 0.707 0.293s0.52-0.105 0.707-0.293c0.188-0.187 0.293-0.442 0.293-0.707v-5z" fill="#666"/>
            <path d="m22 3c0-0.265-0.105-0.52-0.293-0.707-0.187-0.188-0.442-0.293-0.707-0.293s-0.52 0.105-0.707 0.293c-0.188 0.187-0.293 0.442-0.293 0.707v5c0 0.265 0.105 0.52 0.293 0.707 0.187 0.188 0.442 0.293 0.707 0.293s0.52-0.105 0.707-0.293c0.188-0.187 0.293-0.442 0.293-0.707v-5z" fill="#666"/>
            <path d="m26 30h-9l2-7 7-2v9z" fill="#808080"/>
            <path d="m17 21v9l9-9h-9z" fill="#363636"/>
        </g>
    </g>
</svg>
