<?xml version="1.0" encoding="UTF-8"?>
<!DOCTYPE svg  PUBLIC '-//W3C//DTD SVG 1.1//EN'  'http://www.w3.org/Graphics/SVG/1.1/DTD/svg11.dtd'>
<svg clip-rule="evenodd" fill-rule="evenodd" stroke-linecap="round" stroke-linejoin="round" stroke-miterlimit="1.5" version="1.1" viewBox="0 0 32 32" xml:space="preserve" xmlns="http://www.w3.org/2000/svg" xmlns:serif="http://www.serif.com/">
<metadata>
<rdf:RDF xmlns:cc="http://web.resource.org/cc/" xmlns:dc="http://purl.org/dc/elements/1.1/" xmlns:rdf="http://www.w3.org/1999/02/22-rdf-syntax-ns#">

     <rdf:Description rdf:about="">
       <dc:title>Mutant Standard emoji 2023.12</dc:title>
     </rdf:Description>

    <cc:work rdf:about="">
        <cc:license rdf:resource="http://creativecommons.org/licenses/by-nc-sa/4.0/"/>
        <cc:attributionName>Caius Nocturne</cc:attributionName>
        <cc:attributionURL>http://mutant.tech/</cc:attributionURL>
    </cc:work>

</rdf:RDF>
</metadata>

    <rect id="closed_mailbox_with_no_mail" width="32" height="32" fill="none"/>
    <clipPath id="_clip1">
        <rect width="32" height="32"/>
    </clipPath>
    <g clip-path="url(#_clip1)">
        <g id="outline" fill="none" stroke="#000" stroke-width="4px">
            <path d="m30 13c-0-3.866-3.134-7-7-7h-14c-3.866 0-7 3.134-7 7v11h28v-11z"/>
            <rect x="14" y="23" width="4" height="7" stroke-linejoin="miter"/>
        </g>
        <g id="emoji">
            <rect id="_-Rectangle-" x="14" y="20" width="4" height="10" fill="#595959" serif:id="(Rectangle)"/>
            <path d="m30 13c-0-1.857-0.738-3.637-2.05-4.95-1.313-1.313-3.094-2.05-4.95-2.05h-14l7 18h14v-11z" fill="#b9b9b9"/>
            <path d="m16 13c-0-3.866-3.134-7-7-7s-7 3.134-7 7v11h14v-11z" fill="#fff"/>
            <path d="m18 13v3h6v1c0 0.552 0.448 1 1 1h2c0.552-0 1-0.448 1-1v-3c0-0.552-0.448-1-1-1h-9z" fill="#e02a33"/>
        </g>
    </g>
</svg>
