<?xml version="1.0" encoding="UTF-8"?>
<svg clip-rule="evenodd" fill-rule="evenodd" stroke-linejoin="round" stroke-miterlimit="1.5" viewBox="0 0 32 32" xmlns="http://www.w3.org/2000/svg">
 <clipPath id="a">
  <path d="m0 0h32v32h-32z" clip-rule="evenodd"/>
 </clipPath>
 <path d="m0 0h32v32h-32z" fill="none"/>
 <g clip-path="url(#a)">
  <path d="m6 30c-1.657 0-3-1.343-3-3v-25h21v23h3v2c0 1.657-1.343 3-3 3z" fill="none" stroke="#000" stroke-width="4"/>
  <path d="m3 27v-25h21v23l-2.8 3h-17.2z" fill="#fff"/>
  <path d="m19.2 27-5.908 2.462c-0.853 0.355-1.768 0.538-2.692 0.538h-4.6c-1.657 0-3-1.343-3-3z" fill="#ddd"/>
  <path d="m22 20v2h-17v-2zm0-3v2h-17v-2zm0-3v2h-17v-2zm0-3v2h-17v-2zm0-3v2h-17v-2zm0-3v2h-17v-2z" fill="#b2b2b2"/>
  <path d="m6 30h18c1.657 0 3-1.343 3-3v-2h-18v2c0 1.657-1.343 3-3 3z" fill="#999"/>
 </g>
</svg>
