<?xml version="1.0" encoding="UTF-8"?>
<!DOCTYPE svg  PUBLIC '-//W3C//DTD SVG 1.1//EN'  'http://www.w3.org/Graphics/SVG/1.1/DTD/svg11.dtd'>
<svg clip-rule="evenodd" fill-rule="evenodd" stroke-linejoin="round" stroke-miterlimit="1.5" version="1.1" viewBox="0 0 32 32" xml:space="preserve" xmlns="http://www.w3.org/2000/svg">
<metadata>
<rdf:RDF xmlns:cc="http://web.resource.org/cc/" xmlns:dc="http://purl.org/dc/elements/1.1/" xmlns:rdf="http://www.w3.org/1999/02/22-rdf-syntax-ns#">

     <rdf:Description rdf:about="">
       <dc:title>Mutant Standard emoji 2023.12</dc:title>
     </rdf:Description>

    <cc:work rdf:about="">
        <cc:license rdf:resource="http://creativecommons.org/licenses/by-nc-sa/4.0/"/>
        <cc:attributionName>Caius Nocturne</cc:attributionName>
        <cc:attributionURL>http://mutant.tech/</cc:attributionURL>
    </cc:work>

</rdf:RDF>
</metadata>

    <rect id="curled_page" width="32" height="32" fill="none"/>
    <clipPath id="_clip1">
        <rect width="32" height="32"/>
    </clipPath>
    <g clip-path="url(#_clip1)">
        <g id="outline">
            <path d="m6 30c-1.657 0-3-1.343-3-3v-25h21v23h3v2c0 1.657-1.343 3-3 3h-18z" fill="none" stroke="#000" stroke-width="4px"/>
        </g>
        <g id="emoji">
            <path d="m3 27v-25h21v23l-2.8 3h-17.2l-1-1z" fill="#fff"/>
            <path d="m19.2 27-5.908 2.462c-0.853 0.355-1.768 0.538-2.692 0.538h-4.6c-1.657 0-3-1.343-3-3h16.2z" fill="#ddd"/>
            <path d="m22 20v2h-17v-2h17zm0-3v2h-17v-2h17zm0-3v2h-17v-2h17zm0-3v2h-17v-2h17zm0-3v2h-17v-2h17zm0-3v2h-17v-2h17z" fill="#b2b2b2"/>
            <path d="m6 30h18c1.657 0 3-1.343 3-3v-2h-18v2c0 1.657-1.343 3-3 3z" fill="#999"/>
        </g>
    </g>
</svg>
