<?xml version="1.0" encoding="UTF-8"?>
<!DOCTYPE svg  PUBLIC '-//W3C//DTD SVG 1.1//EN'  'http://www.w3.org/Graphics/SVG/1.1/DTD/svg11.dtd'>
<svg clip-rule="evenodd" fill-rule="evenodd" stroke-linecap="round" stroke-linejoin="round" stroke-miterlimit="1.5" version="1.1" viewBox="0 0 32 32" xml:space="preserve" xmlns="http://www.w3.org/2000/svg">
<metadata>
<rdf:RDF xmlns:cc="http://web.resource.org/cc/" xmlns:dc="http://purl.org/dc/elements/1.1/" xmlns:rdf="http://www.w3.org/1999/02/22-rdf-syntax-ns#">

     <rdf:Description rdf:about="">
       <dc:title>Mutant Standard emoji 2023.12</dc:title>
     </rdf:Description>

    <cc:work rdf:about="">
        <cc:license rdf:resource="http://creativecommons.org/licenses/by-nc-sa/4.0/"/>
        <cc:attributionName>Caius Nocturne</cc:attributionName>
        <cc:attributionURL>http://mutant.tech/</cc:attributionURL>
    </cc:work>

</rdf:RDF>
</metadata>

    <rect id="email" width="32" height="32" fill="none"/>
    <clipPath id="_clip1">
        <rect width="32" height="32"/>
    </clipPath>
    <g clip-path="url(#_clip1)">
        <g id="outline">
            <path d="m8.252 12c-0.164-0.639-0.252-1.31-0.252-2 0-4.415 3.585-8 8-8s8 3.585 8 8c0 0.69-0.088 1.361-0.252 2h4.252c0.53-0 1.039 0.211 1.414 0.586s0.586 0.884 0.586 1.414v14c0 0.53-0.211 1.039-0.586 1.414s-0.884 0.586-1.414 0.586h-24c-0.53 0-1.039-0.211-1.414-0.586s-0.586-0.884-0.586-1.414v-14c-0-0.53 0.211-1.039 0.586-1.414s0.884-0.586 1.414-0.586h4.252z" fill="none" stroke="#000" stroke-width="4px"/>
        </g>
        <g id="emoji">
            <path d="m30 14c0-0.53-0.211-1.039-0.586-1.414s-0.884-0.586-1.414-0.586h-24c-0.53-0-1.039 0.211-1.414 0.586s-0.586 0.884-0.586 1.414v14c-0 0.53 0.211 1.039 0.586 1.414s0.884 0.586 1.414 0.586h24c0.53 0 1.039-0.211 1.414-0.586s0.586-0.884 0.586-1.414v-14z" fill="#fff"/>
            <clipPath id="_clip2">
                <path d="m30 14c0-0.53-0.211-1.039-0.586-1.414s-0.884-0.586-1.414-0.586h-24c-0.53-0-1.039 0.211-1.414 0.586s-0.586 0.884-0.586 1.414v14c-0 0.53 0.211 1.039 0.586 1.414s0.884 0.586 1.414 0.586h24c0.53 0 1.039-0.211 1.414-0.586s0.586-0.884 0.586-1.414v-14z"/>
            </clipPath>
            <g clip-path="url(#_clip2)" stroke-width="2px">
                <path d="m2 30 14-13 14 13" fill="none" stroke="#ccc"/>
                <path d="m2 12s7.348 6.298 11.397 9.769c1.498 1.284 3.708 1.284 5.206-0 4.049-3.471 11.397-9.769 11.397-9.769" fill="#fff" stroke="#999"/>
            </g>
            <circle cx="16" cy="10" r="8" fill="#334cec"/>
            <path d="m18 12h2c0.552-0 1-0.448 1-1v-1c0-1.326-0.527-2.598-1.464-3.536-0.938-0.937-2.21-1.464-3.536-1.464-2.761 0-5 2.239-5 5 0 1.326 0.527 2.598 1.464 3.536 0.938 0.937 2.21 1.464 3.536 1.464h2" fill="none" stroke="#fff" stroke-linecap="butt" stroke-linejoin="miter" stroke-width="2px"/>
            <path d="m19 10v2c0 0.265-0.105 0.52-0.293 0.707-0.187 0.188-0.442 0.293-0.707 0.293h-2c-1.657 0-3-1.343-3-3s1.343-3 3-3c0.796 0 1.559 0.316 2.121 0.879 0.563 0.562 0.879 1.325 0.879 2.121zm-4 0c0 0.552 0.448 1 1 1h1v-1c0-0.265-0.105-0.52-0.293-0.707-0.187-0.188-0.442-0.293-0.707-0.293-0.552 0-1 0.448-1 1z" fill="#fff"/>
        </g>
    </g>
</svg>
