<?xml version="1.0" encoding="UTF-8"?>
<!DOCTYPE svg  PUBLIC '-//W3C//DTD SVG 1.1//EN'  'http://www.w3.org/Graphics/SVG/1.1/DTD/svg11.dtd'>
<svg clip-rule="evenodd" fill-rule="evenodd" stroke-linecap="round" stroke-linejoin="round" stroke-miterlimit="1.5" version="1.1" viewBox="0 0 32 32" xml:space="preserve" xmlns="http://www.w3.org/2000/svg">
<metadata>
<rdf:RDF xmlns:cc="http://web.resource.org/cc/" xmlns:dc="http://purl.org/dc/elements/1.1/" xmlns:rdf="http://www.w3.org/1999/02/22-rdf-syntax-ns#">

     <rdf:Description rdf:about="">
       <dc:title>Mutant Standard emoji 2023.12</dc:title>
     </rdf:Description>

    <cc:work rdf:about="">
        <cc:license rdf:resource="http://creativecommons.org/licenses/by-nc-sa/4.0/"/>
        <cc:attributionName>Caius Nocturne</cc:attributionName>
        <cc:attributionURL>http://mutant.tech/</cc:attributionURL>
    </cc:work>

</rdf:RDF>
</metadata>

    <rect id="envelope" width="32" height="32" fill="none"/>
    <clipPath id="_clip1">
        <rect width="32" height="32"/>
    </clipPath>
    <g clip-path="url(#_clip1)">
        <g id="outline">
            <path d="m30 8c0-0.53-0.211-1.039-0.586-1.414s-0.884-0.586-1.414-0.586h-24c-0.53-0-1.039 0.211-1.414 0.586s-0.586 0.884-0.586 1.414v16c-0 0.53 0.211 1.039 0.586 1.414s0.884 0.586 1.414 0.586h24c0.53 0 1.039-0.211 1.414-0.586s0.586-0.884 0.586-1.414v-16z" fill="none" stroke="#000" stroke-width="4px"/>
        </g>
        <g id="emoji">
            <path d="m30 8c0-0.53-0.211-1.039-0.586-1.414s-0.884-0.586-1.414-0.586h-24c-0.53-0-1.039 0.211-1.414 0.586s-0.586 0.884-0.586 1.414v16c-0 0.53 0.211 1.039 0.586 1.414s0.884 0.586 1.414 0.586h24c0.53 0 1.039-0.211 1.414-0.586s0.586-0.884 0.586-1.414v-16z" fill="#fff"/>
            <clipPath id="_clip2">
                <path d="m30 8c0-0.53-0.211-1.039-0.586-1.414s-0.884-0.586-1.414-0.586h-24c-0.53-0-1.039 0.211-1.414 0.586s-0.586 0.884-0.586 1.414v16c-0 0.53 0.211 1.039 0.586 1.414s0.884 0.586 1.414 0.586h24c0.53 0 1.039-0.211 1.414-0.586s0.586-0.884 0.586-1.414v-16z"/>
            </clipPath>
            <g clip-path="url(#_clip2)" stroke-width="2px">
                <path d="m2 26 14-14.444 14 14.444" fill="none" stroke="#ccc"/>
                <path d="m2 6s7.163 6.822 11.241 10.706c1.545 1.471 3.973 1.471 5.518 0 4.078-3.884 11.241-10.706 11.241-10.706" fill="#fff" stroke="#999"/>
            </g>
        </g>
    </g>
</svg>
