<?xml version="1.0" encoding="UTF-8"?>
<svg clip-rule="evenodd" fill-rule="evenodd" stroke-linecap="round" stroke-linejoin="round" stroke-miterlimit="1.5" viewBox="0 0 32 32" xmlns="http://www.w3.org/2000/svg">
 <clipPath id="a">
  <path d="m0 0h32v32h-32z" clip-rule="evenodd"/>
 </clipPath>
 <clipPath id="b">
  <path d="m30 8c0-0.53-0.211-1.039-0.586-1.414s-0.884-0.586-1.414-0.586h-24c-0.53 0-1.039 0.211-1.414 0.586s-0.586 0.884-0.586 1.414v16c0 0.53 0.211 1.039 0.586 1.414s0.884 0.586 1.414 0.586h24c0.53 0 1.039-0.211 1.414-0.586s0.586-0.884 0.586-1.414v-16z" clip-rule="evenodd"/>
 </clipPath>
 <path d="m0 0h32v32h-32z" fill="none"/>
 <g clip-path="url(#a)">
  <path d="m30 8c0-0.53-0.211-1.039-0.586-1.414s-0.884-0.586-1.414-0.586h-24c-0.53 0-1.039 0.211-1.414 0.586s-0.586 0.884-0.586 1.414v16c0 0.53 0.211 1.039 0.586 1.414s0.884 0.586 1.414 0.586h24c0.53 0 1.039-0.211 1.414-0.586s0.586-0.884 0.586-1.414v-16z" fill="none" stroke="#000" stroke-width="4"/>
  <path d="m30 8c0-0.53-0.211-1.039-0.586-1.414s-0.884-0.586-1.414-0.586h-24c-0.53 0-1.039 0.211-1.414 0.586s-0.586 0.884-0.586 1.414v16c0 0.53 0.211 1.039 0.586 1.414s0.884 0.586 1.414 0.586h24c0.53 0 1.039-0.211 1.414-0.586s0.586-0.884 0.586-1.414v-16z" fill="#fff"/>
  <g clip-path="url(#b)" stroke-width="2">
   <path d="m2 26 14-14.444 14 14.444" fill="none" stroke="#ccc"/>
   <path d="m2 6s7.163 6.822 11.241 10.706c1.545 1.471 3.973 1.471 5.518 0 4.078-3.884 11.241-10.706 11.241-10.706" fill="#fff" stroke="#999"/>
  </g>
 </g>
</svg>
