<?xml version="1.0" encoding="UTF-8"?>
<!DOCTYPE svg  PUBLIC '-//W3C//DTD SVG 1.1//EN'  'http://www.w3.org/Graphics/SVG/1.1/DTD/svg11.dtd'>
<svg clip-rule="evenodd" fill-rule="evenodd" stroke-linecap="round" stroke-linejoin="round" stroke-miterlimit="1.5" version="1.1" viewBox="0 0 32 32" xml:space="preserve" xmlns="http://www.w3.org/2000/svg">
<metadata>
<rdf:RDF xmlns:cc="http://web.resource.org/cc/" xmlns:dc="http://purl.org/dc/elements/1.1/" xmlns:rdf="http://www.w3.org/1999/02/22-rdf-syntax-ns#">

     <rdf:Description rdf:about="">
       <dc:title>Mutant Standard emoji 2023.12</dc:title>
     </rdf:Description>

    <cc:work rdf:about="">
        <cc:license rdf:resource="http://creativecommons.org/licenses/by-nc-sa/4.0/"/>
        <cc:attributionName>Caius Nocturne</cc:attributionName>
        <cc:attributionURL>http://mutant.tech/</cc:attributionURL>
    </cc:work>

</rdf:RDF>
</metadata>

    <rect id="envelope_with_arrow" width="32" height="32" fill="none"/>
    <clipPath id="_clip1">
        <rect width="32" height="32"/>
    </clipPath>
    <g clip-path="url(#_clip1)">
        <g id="outline">
            <path d="m11.369 13.995-2.495-2.495v-2.5l2.121-2.121 3.5 3.5v-8.379h3v8.379l3.5-3.5 2.121 2.121v2.5l-2.495 2.495h5.379c0.53-0 1.039 0.211 1.414 0.586s0.586 0.883 0.586 1.414v12.005c0 0.53-0.211 1.039-0.586 1.414s-0.884 0.586-1.414 0.586h-20c-0.53 0-1.039-0.211-1.414-0.586s-0.586-0.884-0.586-1.414v-12.005c-0-0.531 0.211-1.039 0.586-1.414s0.884-0.586 1.414-0.586h5.369z" fill="none" stroke="#000" stroke-width="4px"/>
        </g>
        <g id="emoji">
            <path d="m28 15.995c0-0.531-0.211-1.039-0.586-1.414s-0.884-0.586-1.414-0.586h-20c-0.53-0-1.039 0.211-1.414 0.586s-0.586 0.883-0.586 1.414v12.005c-0 0.53 0.211 1.039 0.586 1.414s0.884 0.586 1.414 0.586h20c0.53 0 1.039-0.211 1.414-0.586s0.586-0.884 0.586-1.414v-12.005z" fill="#fff"/>
            <clipPath id="_clip2">
                <path d="m28 15.995c0-0.531-0.211-1.039-0.586-1.414s-0.884-0.586-1.414-0.586h-20c-0.53-0-1.039 0.211-1.414 0.586s-0.586 0.883-0.586 1.414v12.005c-0 0.53 0.211 1.039 0.586 1.414s0.884 0.586 1.414 0.586h20c0.53 0 1.039-0.211 1.414-0.586s0.586-0.884 0.586-1.414v-12.005z"/>
            </clipPath>
            <g clip-path="url(#_clip2)" stroke-width="2px">
                <path d="m4 30 12-11.559 12 11.559" fill="none" stroke="#ccc"/>
                <path d="m4 13.995s6.595 5.864 10.007 8.897c1.136 1.011 2.85 1.011 3.986 0 3.412-3.033 10.007-8.897 10.007-8.897" fill="#fff" stroke="#999"/>
            </g>
            <path d="m14.495 12.379h3l3.5-3.5 2.121 0.121v2.5l-7.121 7.121-7.121-7.121v-2.5l2.121-0.121 3.5 3.5z" fill="#9f146a" fill-rule="nonzero"/>
            <path d="m17.495 10.379 3.5-3.5 2.121 2.121-7.121 7.121-7.121-7.121 2.121-2.121 3.5 3.5v-8.379h3v8.379z" fill="#ec2fa4" fill-rule="nonzero"/>
        </g>
    </g>
</svg>
