<?xml version="1.0" encoding="UTF-8"?>
<svg clip-rule="evenodd" fill-rule="evenodd" stroke-miterlimit="1.5" viewBox="0 0 32 32" xmlns="http://www.w3.org/2000/svg">
 <clipPath id="a">
  <path d="m0 0h32v32h-32z" clip-rule="evenodd"/>
 </clipPath>
 <path d="m0 0h32v32h-32z" fill="none"/>
 <g clip-path="url(#a)">
  <path d="m3 4c-0.552 0-1 0.448-1 1v21c0 0.53 0.211 1.039 0.586 1.414s0.884 0.586 1.414 0.586h24c1.105 0 2-0.895 2-2v-17c0-1.105-0.895-2-2-2h-14s-1.146-1.719-1.703-2.555c-0.186-0.278-0.498-0.445-0.832-0.445h-8.465z" fill="none" stroke="#000" stroke-width="4"/>
  <path d="m3 4c-0.552 0-1 0.448-1 1v21c0 0.53 0.211 1.039 0.586 1.414s0.884 0.586 1.414 0.586h24c1.105 0 2-0.895 2-2v-17c0-1.105-0.895-2-2-2h-14s-1.146-1.719-1.703-2.555c-0.186-0.278-0.498-0.445-0.832-0.445h-8.465z" fill="#10768b"/>
  <path d="m4 10c-0.53 0-1.039 0.211-1.414 0.586s-0.586 0.884-0.586 1.414v14c0 0.53 0.211 1.039 0.586 1.414s0.884 0.586 1.414 0.586h24c0.53 0 1.039-0.211 1.414-0.586s0.586-0.884 0.586-1.414v-14c0-0.53-0.211-1.039-0.586-1.414s-0.884-0.586-1.414-0.586h-24z" fill="#30bfdb"/>
 </g>
</svg>
