<?xml version="1.0" encoding="UTF-8"?>
<!DOCTYPE svg  PUBLIC '-//W3C//DTD SVG 1.1//EN'  'http://www.w3.org/Graphics/SVG/1.1/DTD/svg11.dtd'>
<svg clip-rule="evenodd" fill-rule="evenodd" stroke-linejoin="round" stroke-miterlimit="2" version="1.1" viewBox="0 0 32 32" xml:space="preserve" xmlns="http://www.w3.org/2000/svg">
<metadata>
<rdf:RDF xmlns:cc="http://web.resource.org/cc/" xmlns:dc="http://purl.org/dc/elements/1.1/" xmlns:rdf="http://www.w3.org/1999/02/22-rdf-syntax-ns#">

     <rdf:Description rdf:about="">
       <dc:title>Mutant Standard emoji 2023.12</dc:title>
     </rdf:Description>

    <cc:work rdf:about="">
        <cc:license rdf:resource="http://creativecommons.org/licenses/by-nc-sa/4.0/"/>
        <cc:attributionName>Caius Nocturne</cc:attributionName>
        <cc:attributionURL>http://mutant.tech/</cc:attributionURL>
    </cc:work>

</rdf:RDF>
</metadata>

    <rect id="green_book" width="32" height="32" fill="none"/>
    <clipPath id="_clip1">
        <rect width="32" height="32"/>
    </clipPath>
    <g clip-path="url(#_clip1)">
        <g id="outline">
            <path d="m28 30c0 0.53-0.211 1.039-0.586 1.414s-0.884 0.586-1.414 0.586h-16.012l-0.137-2e-3c-0.198-7e-3 -0.394-0.019-0.591-0.044-0.486-0.06-0.964-0.18-1.42-0.356-0.733-0.283-1.408-0.71-1.976-1.251-0.677-0.644-1.198-1.445-1.513-2.324-0.148-0.415-0.251-0.846-0.305-1.283-0.025-0.197-0.037-0.393-0.044-0.591-0.083-6.72-2e-3 -13.441-2e-3 -20.161 2e-3 -0.194 0.01-0.388 0.029-0.581 0.049-0.487 0.157-0.969 0.322-1.43 0.315-0.879 0.836-1.68 1.513-2.324 0.604-0.575 1.328-1.021 2.113-1.302 0.461-0.165 0.943-0.273 1.43-0.322 0.193-0.019 0.387-0.027 0.581-0.029h16.012c0.53 0 1.039 0.211 1.414 0.586s0.586 0.884 0.586 1.414v28z"/>
        </g>
        <g id="emoji">
            <path d="m26 2h-16c-1.061 0-2.078 0.421-2.828 1.172-0.751 0.75-1.172 1.767-1.172 2.828v20h19l1-4v-20z" fill="#4cbf1e"/>
            <path d="m26 22h-16c-1.061 0-2.078 0.421-2.828 1.172-0.751 0.75-1.172 1.767-1.172 2.828 0 2.209 1.791 4 4 4h16v-8z" fill="#337c13"/>
            <path d="m26 24h-16.002c-1.103 0-1.998 0.895-1.998 1.998v2e-3c0 0.53 0.211 1.039 0.586 1.414s0.884 0.586 1.414 0.586h16v-4z" fill="#fff"/>
            <g fill="#337c13">
                <rect x="11" y="7" width="12" height="2"/>
                <rect x="11" y="10" width="12" height="2"/>
            </g>
        </g>
    </g>
</svg>
