<?xml version="1.0" encoding="UTF-8"?>
<!DOCTYPE svg  PUBLIC '-//W3C//DTD SVG 1.1//EN'  'http://www.w3.org/Graphics/SVG/1.1/DTD/svg11.dtd'>
<svg clip-rule="evenodd" fill-rule="evenodd" stroke-linecap="round" stroke-linejoin="round" stroke-miterlimit="1.5" version="1.1" viewBox="0 0 32 32" xml:space="preserve" xmlns="http://www.w3.org/2000/svg">
<metadata>
<rdf:RDF xmlns:cc="http://web.resource.org/cc/" xmlns:dc="http://purl.org/dc/elements/1.1/" xmlns:rdf="http://www.w3.org/1999/02/22-rdf-syntax-ns#">

     <rdf:Description rdf:about="">
       <dc:title>Mutant Standard emoji 2023.12</dc:title>
     </rdf:Description>

    <cc:work rdf:about="">
        <cc:license rdf:resource="http://creativecommons.org/licenses/by-nc-sa/4.0/"/>
        <cc:attributionName>Caius Nocturne</cc:attributionName>
        <cc:attributionURL>http://mutant.tech/</cc:attributionURL>
    </cc:work>

</rdf:RDF>
</metadata>

    <rect id="love_letter" width="32" height="32" fill="none"/>
    <clipPath id="_clip1">
        <rect width="32" height="32"/>
    </clipPath>
    <g clip-path="url(#_clip1)">
        <g id="outline">
            <path d="m22.812 12h5.188c0.53-0 1.039 0.211 1.414 0.586s0.586 0.884 0.586 1.414v14c0 0.53-0.211 1.039-0.586 1.414s-0.884 0.586-1.414 0.586h-24c-0.53 0-1.039-0.211-1.414-0.586s-0.586-0.884-0.586-1.414v-14c-0-0.53 0.211-1.039 0.586-1.414s0.884-0.586 1.414-0.586h5.188c-0.302-0.381-0.584-0.782-0.837-1.202-2.455-4.068-0.75-8.568 2.921-8.789 2.129-0.128 3.65 1.058 4.33 2.54 0.061 0.167 0.22 0.279 0.398 0.279s0.337-0.112 0.398-0.279c0.68-1.482 2.201-2.668 4.33-2.54 3.671 0.221 5.376 4.721 2.921 8.789-0.253 0.42-0.535 0.821-0.837 1.202z" fill="none" stroke="#000" stroke-width="4px"/>
        </g>
        <g id="emoji">
            <path d="m28.413 12.043 1.494 1.354c0.061 0.193 0.093 0.396 0.093 0.603v14c0 0.192-0.027 0.38-0.08 0.561l-1.45 1.383c-0.153 0.037-0.31 0.056-0.47 0.056h-24c-0.16 0-0.317-0.019-0.47-0.056l-1.45-1.383c-0.053-0.181-0.08-0.369-0.08-0.561v-14c-0-0.207 0.032-0.41 0.093-0.603l1.494-1.354c0.135-0.028 0.273-0.043 0.413-0.043h24c0.14-0 0.278 0.015 0.413 0.043z" fill="#fff"/>
            <path d="m2.08 28.561 9.371-8.702 1.686 1.164-9.607 8.921c-0.355-0.086-0.682-0.268-0.944-0.53-0.24-0.239-0.412-0.534-0.506-0.853zm26.39 1.383-9.763-9.066 1.593-1.25 9.62 8.933c-0.094 0.319-0.266 0.614-0.506 0.853-0.262 0.262-0.589 0.444-0.944 0.53z" fill="#ccc"/>
            <path d="m3.587 12.043 10.461 8.966c1.123 0.963 2.781 0.963 3.904 0l10.461-8.966c0.376 0.08 0.725 0.267 1.001 0.543 0.229 0.229 0.397 0.508 0.493 0.811l-10.653 9.131c-1.872 1.605-4.636 1.605-6.508-0l-10.653-9.131c0.096-0.303 0.264-0.582 0.493-0.811 0.276-0.276 0.625-0.463 1.001-0.543z" fill="#999"/>
            <path d="m7.266 5.98c0.791 5.119 16.858 4.98 17.502 0.275 0.142 1.407-0.191 3.005-1.119 4.543-1.992 3.302-5.73 5.392-7.115 6.082-0.338 0.16-0.73 0.16-1.068 1e-3 -1.385-0.691-5.123-2.781-7.115-6.083-0.989-1.639-1.303-3.347-1.085-4.818z" fill="#ce0249"/>
            <path d="m24.768 6.255c-0.644 4.705-6.892 8.642-8.768 8.673-2.037 0.033-7.943-3.829-8.734-8.948 0.322-2.181 1.813-3.839 4.006-3.971 2.129-0.128 3.65 1.058 4.33 2.54 0.061 0.167 0.22 0.279 0.398 0.279s0.337-0.112 0.398-0.279c0.68-1.482 2.201-2.668 4.33-2.54 2.284 0.138 3.807 1.931 4.04 4.246z" fill="#ff3c80"/>
        </g>
    </g>
</svg>
