<?xml version="1.0" encoding="UTF-8"?>
<!DOCTYPE svg  PUBLIC '-//W3C//DTD SVG 1.1//EN'  'http://www.w3.org/Graphics/SVG/1.1/DTD/svg11.dtd'>
<svg clip-rule="evenodd" fill-rule="evenodd" stroke-linejoin="round" stroke-miterlimit="2" version="1.1" viewBox="0 0 32 32" xml:space="preserve" xmlns="http://www.w3.org/2000/svg" xmlns:serif="http://www.serif.com/">
<metadata>
<rdf:RDF xmlns:cc="http://web.resource.org/cc/" xmlns:dc="http://purl.org/dc/elements/1.1/" xmlns:rdf="http://www.w3.org/1999/02/22-rdf-syntax-ns#">

     <rdf:Description rdf:about="">
       <dc:title>Mutant Standard emoji 2023.12</dc:title>
     </rdf:Description>

    <cc:work rdf:about="">
        <cc:license rdf:resource="http://creativecommons.org/licenses/by-nc-sa/4.0/"/>
        <cc:attributionName>Caius Nocturne</cc:attributionName>
        <cc:attributionURL>http://mutant.tech/</cc:attributionURL>
    </cc:work>

</rdf:RDF>
</metadata>

    <rect id="magnifying_glass_right" width="32" height="32" fill="none"/>
    <clipPath id="_clip1">
        <rect width="32" height="32"/>
    </clipPath>
    <g clip-path="url(#_clip1)">
        
        
        <g id="outline1" serif:id="outline">
            <path d="m12.569 1e-3 0.154 3e-3 0.154 5e-3 0.153 7e-3 0.153 8e-3 0.152 0.011 0.152 0.012 0.151 0.015 0.151 0.016 0.151 0.018 0.149 0.02 0.15 0.022 0.148 0.024 0.149 0.026 0.147 0.027 0.147 0.029 0.146 0.031 0.146 0.033 0.145 0.034 0.144 0.036 0.144 0.038 0.142 0.04 0.143 0.041 0.141 0.043 0.141 0.045 0.14 0.046 0.139 0.049 0.138 0.049 0.138 0.052 0.137 0.053 0.136 0.054 0.135 0.057 0.134 0.057 0.133 0.06 0.133 0.061 0.132 0.062 0.13 0.064 0.13 0.066 0.129 0.067 0.128 0.068 0.127 0.071 0.126 0.071 0.126 0.073 0.124 0.075 0.123 0.075 0.122 0.078 0.121 0.079 0.121 0.08 0.119 0.081 0.118 0.083 0.117 0.085 0.116 0.085 0.115 0.087 0.226 0.178 0.112 0.091 0.22 0.186 0.108 0.095 0.107 0.096 0.106 0.098 0.104 0.098 0.104 0.1 0.102 0.101 0.101 0.102 0.1 0.104 0.099 0.105 0.097 0.105 0.096 0.107 0.095 0.109 0.094 0.109 0.092 0.11 0.091 0.112 0.09 0.113 0.088 0.114 0.087 0.114 0.086 0.116 0.084 0.117 0.083 0.119 0.081 0.119 0.081 0.12 0.078 0.121 0.078 0.122 0.076 0.123 0.074 0.125 0.073 0.125 0.072 0.126 0.07 0.127 0.068 0.128 0.067 0.129 0.066 0.13 0.064 0.131 0.063 0.131 0.12 0.266 0.058 0.135 0.056 0.135 0.055 0.136 0.053 0.136 0.051 0.138 0.05 0.138 0.048 0.14 0.046 0.14 0.045 0.14 0.043 0.142 0.041 0.142 0.04 0.143 0.038 0.143 0.036 0.145 0.035 0.144 0.032 0.146 0.031 0.146 0.029 0.147 0.028 0.148 0.025 0.148 0.024 0.148 0.022 0.15 0.02 0.15 0.018 0.15 0.016 0.151 0.015 0.151 0.012 0.152 0.011 0.152 9e-3 0.153 6e-3 0.154 5e-3 0.153 3e-3 0.154 1e-3 0.154v0.127l-2e-3 0.126-4e-3 0.125-4e-3 0.126-6e-3 0.124-7e-3 0.125-8e-3 0.124-0.01 0.124-0.011 0.124-0.012 0.123-0.013 0.123-0.015 0.123-0.016 0.122-0.017 0.122-0.018 0.122-0.02 0.121-0.021 0.121-0.022 0.12-0.023 0.12-0.024 0.12-0.026 0.119-0.026 0.118-0.028 0.119-0.029 0.118-0.03 0.117-0.032 0.117-0.032 0.116-0.034 0.116-0.035 0.116-0.035 0.115-0.037 0.114-0.078 0.228-0.04 0.113-0.041 0.112-0.043 0.112-0.088 0.222-0.046 0.11-0.047 0.11-0.096 0.218-0.05 0.108-0.051 0.107-0.052 0.107-0.053 0.106-0.047 0.092 0.061 0.013 0.141 0.039 0.139 0.046 0.136 0.053 0.134 0.059 0.131 0.066 0.128 0.072 0.124 0.079 0.12 0.084 0.117 0.091 0.112 0.097 0.09 0.085 6.621 6.621 0.085 0.09 0.097 0.112 0.091 0.116 0.085 0.121 0.078 0.125 0.072 0.127 0.066 0.131 0.059 0.134 0.053 0.136 0.046 0.139 0.039 0.141 0.032 0.144 0.026 0.145 0.018 0.146 0.011 0.148 4e-3 0.149-4e-3 0.149-0.011 0.148-0.018 0.146-0.026 0.145-0.032 0.143-0.039 0.141-0.046 0.14-0.053 0.136-0.059 0.134-0.066 0.131-0.072 0.128-0.078 0.124-0.085 0.12-0.091 0.117-0.097 0.112-0.085 0.09-1.621 1.62-0.09 0.086-0.112 0.097-0.117 0.091-0.12 0.084-0.124 0.079-0.128 0.072-0.131 0.066-0.133 0.059-0.137 0.053-0.139 0.046-0.142 0.039-0.143 0.032-0.145 0.026-0.146 0.018-0.148 0.011-0.149 3e-3 -0.148-3e-3 -0.148-0.011-0.147-0.018-0.145-0.026-0.143-0.032-0.142-0.039-0.139-0.046-0.136-0.053-0.134-0.059-0.131-0.066-0.127-0.072-0.124-0.079-0.121-0.084-0.117-0.091-0.112-0.097-0.09-0.086-6.62-6.62-0.086-0.09-0.097-0.112-0.09-0.117-0.085-0.12-0.078-0.124-0.073-0.128-0.066-0.131-0.059-0.134-0.052-0.136-0.046-0.139-0.04-0.142-0.013-0.06-0.092 0.047-0.106 0.053-0.107 0.052-0.107 0.051-0.108 0.049-0.109 0.049-0.109 0.048-0.109 0.047-0.111 0.046-0.222 0.088-0.224 0.084-0.113 0.04-0.114 0.039-0.114 0.038-0.114 0.037-0.115 0.036-0.116 0.035-0.116 0.034-0.116 0.032-0.234 0.062-0.118 0.029-0.118 0.028-0.238 0.052-0.12 0.024-0.12 0.023-0.12 0.022-0.121 0.021-0.121 0.019-0.122 0.019-0.122 0.017-0.122 0.016-0.122 0.014-0.123 0.014-0.124 0.012-0.123 0.011-0.124 9e-3 -0.125 9e-3 -0.124 7e-3 -0.125 6e-3 -0.126 4e-3 -0.125 3e-3 -0.126 2e-3 -0.127 1e-3 -0.153-1e-3 -0.154-3e-3 -0.154-5e-3 -0.153-7e-3 -0.153-8e-3 -0.153-0.011-0.152-0.012-0.151-0.015-0.151-0.016-0.15-0.018-0.15-0.02-0.149-0.022-0.149-0.024-0.148-0.025-0.148-0.028-0.146-0.029-0.147-0.031-0.145-0.033-0.145-0.034-0.144-0.036-0.144-0.038-0.143-0.04-0.142-0.041-0.142-0.043-0.14-0.045-0.14-0.046-0.278-0.098-0.137-0.052-0.137-0.053-0.136-0.054-0.135-0.056-0.135-0.058-0.133-0.06-0.133-0.061-0.131-0.062-0.131-0.064-0.13-0.066-0.129-0.067-0.128-0.068-0.127-0.071-0.126-0.071-0.125-0.073-0.124-0.075-0.124-0.076-0.122-0.077-0.121-0.078-0.12-0.081-0.119-0.081-0.118-0.083-0.117-0.085-0.116-0.085-0.115-0.087-0.114-0.089-0.113-0.089-0.111-0.091-0.111-0.093-0.109-0.093-0.108-0.095-0.107-0.096-0.106-0.097-0.105-0.099-0.103-0.1-0.103-0.101-0.101-0.102-0.1-0.104-0.196-0.21-0.096-0.108-0.095-0.108-0.093-0.109-0.093-0.11-0.091-0.112-0.089-0.113-0.089-0.114-0.087-0.114-0.085-0.116-0.085-0.117-0.083-0.119-0.081-0.119-0.08-0.12-0.079-0.121-0.077-0.122-0.076-0.123-0.075-0.125-0.073-0.125-0.071-0.126-0.07-0.127-0.069-0.128-0.067-0.129-0.066-0.13-0.064-0.131-0.062-0.131-0.061-0.133-0.059-0.133-0.058-0.135-0.056-0.135-0.055-0.136-0.053-0.137-0.052-0.137-0.049-0.138-0.048-0.139-0.047-0.141-0.045-0.14-0.043-0.142-0.041-0.142-0.04-0.143-0.038-0.143-0.036-0.145-0.034-0.144-0.033-0.146-0.031-0.146-0.029-0.147-0.027-0.148-0.026-0.148-0.024-0.149-0.021-0.149-0.02-0.15-0.019-0.15-0.016-0.151-0.014-0.151-0.013-0.152-0.011-0.152-8e-3 -0.153-7e-3 -0.154-5e-3 -0.153-3e-3 -0.155-1e-3 -0.154 1e-3 -0.154 3e-3 -0.155 5e-3 -0.153 7e-3 -0.154 8e-3 -0.153 0.011-0.152 0.013-0.152 0.014-0.151 0.016-0.151 0.019-0.15 0.02-0.15 0.021-0.149 0.024-0.149 0.026-0.148 0.027-0.148 0.029-0.147 0.031-0.146 0.033-0.146 0.034-0.144 0.036-0.145 0.038-0.143 0.04-0.143 0.041-0.142 0.043-0.142 0.045-0.14 0.047-0.141 0.048-0.139 0.049-0.138 0.052-0.137 0.053-0.137 0.055-0.136 0.056-0.136 0.058-0.134 0.059-0.133 0.061-0.133 0.062-0.131 0.064-0.131 0.066-0.13 0.067-0.129 0.069-0.128 0.07-0.127 0.071-0.126 0.073-0.125 0.075-0.125 0.076-0.123 0.077-0.122 0.079-0.121 0.08-0.12 0.081-0.119 0.083-0.119 0.085-0.117 0.085-0.116 0.087-0.114 0.089-0.114 0.09-0.113 0.09-0.112 0.093-0.11 0.093-0.109 0.095-0.108 0.096-0.108 0.196-0.21 0.1-0.104 0.101-0.102 0.103-0.101 0.103-0.1 0.105-0.098 0.106-0.098 0.107-0.096 0.108-0.095 0.109-0.093 0.111-0.093 0.111-0.091 0.113-0.089 0.114-0.089 0.115-0.087 0.116-0.085 0.117-0.085 0.118-0.083 0.119-0.081 0.12-0.08 0.121-0.079 0.122-0.078 0.248-0.15 0.125-0.073 0.126-0.071 0.127-0.071 0.128-0.068 0.129-0.067 0.13-0.066 0.131-0.064 0.132-0.062 0.132-0.061 0.133-0.06 0.27-0.114 0.136-0.054 0.137-0.053 0.137-0.052 0.278-0.098 0.14-0.046 0.14-0.045 0.142-0.043 0.142-0.041 0.143-0.04 0.143-0.038 0.145-0.036 0.145-0.034 0.145-0.033 0.147-0.031 0.146-0.029 0.148-0.028 0.148-0.025 0.149-0.024 0.149-0.022 0.15-0.02 0.15-0.018 0.151-0.016 0.151-0.015 0.152-0.012 0.153-0.011 0.153-8e-3 0.153-7e-3 0.154-5e-3 0.154-3e-3 0.154-1e-3 0.155 1e-3zm9.539 21.693-0.058 0.114 5.364 5.364 0.172-0.172-5.364-5.364-0.114 0.058zm-9.798-17.693-0.103 2e-3 -0.103 3e-3 -0.103 4e-3 -0.102 6e-3 -0.102 7e-3 -0.202 0.018-0.101 0.011-0.1 0.012-0.1 0.014-0.099 0.014-0.099 0.016-0.099 0.017-0.098 0.018-0.098 0.02-0.097 0.02-0.097 0.022-0.096 0.023-0.096 0.024-0.095 0.025-0.095 0.026-0.095 0.028-0.094 0.029-0.093 0.029-0.093 0.031-0.093 0.032-0.091 0.033-0.092 0.034-0.091 0.036-0.09 0.036-0.09 0.037-0.178 0.078-0.176 0.082-0.087 0.043-0.087 0.044-0.085 0.044-0.086 0.046-0.168 0.094-0.084 0.049-0.083 0.05-0.082 0.05-0.162 0.104-0.16 0.108-0.079 0.056-0.078 0.056-0.077 0.057-0.077 0.058-0.076 0.06-0.075 0.059-0.075 0.061-0.074 0.062-0.073 0.062-0.144 0.128-0.071 0.065-0.07 0.066-0.069 0.067-0.136 0.136-0.067 0.069-0.066 0.07-0.065 0.071-0.064 0.071-0.126 0.146-0.062 0.074-0.06 0.074-0.06 0.076-0.059 0.076-0.058 0.076-0.058 0.078-0.056 0.078-0.11 0.158-0.106 0.162-0.052 0.081-0.05 0.082-0.05 0.083-0.049 0.083-0.047 0.085-0.047 0.084-0.045 0.085-0.045 0.086-0.044 0.087-0.043 0.087-0.041 0.087-0.041 0.089-0.039 0.088-0.039 0.09-0.037 0.09-0.036 0.09-0.07 0.182-0.033 0.092-0.032 0.093-0.031 0.093-0.029 0.093-0.029 0.094-0.054 0.19-0.025 0.095-0.024 0.096-0.023 0.096-0.022 0.097-0.02 0.097-0.02 0.098-0.018 0.098-0.017 0.098-0.015 0.099-0.015 0.1-0.013 0.1-0.012 0.1-0.011 0.101-0.01 0.1-8e-3 0.102-7e-3 0.102-6e-3 0.102-5e-3 0.103-3e-3 0.103-2e-3 0.103-1e-3 0.104 1e-3 0.104 2e-3 0.103 3e-3 0.103 5e-3 0.103 6e-3 0.102 7e-3 0.102 8e-3 0.102 0.01 0.1 0.011 0.101 0.012 0.1 0.013 0.1 0.015 0.1 0.015 0.099 0.017 0.098 0.018 0.098 0.02 0.098 0.02 0.097 0.022 0.097 0.023 0.096 0.024 0.096 0.025 0.095 0.054 0.19 0.029 0.094 0.029 0.093 0.031 0.093 0.032 0.093 0.033 0.092 0.07 0.182 0.036 0.09 0.037 0.09 0.039 0.09 0.039 0.088 0.041 0.089 0.041 0.087 0.043 0.087 0.044 0.087 0.045 0.086 0.045 0.085 0.047 0.084 0.047 0.085 0.049 0.083 0.05 0.083 0.05 0.082 0.052 0.081 0.106 0.162 0.11 0.158 0.056 0.078 0.058 0.078 0.058 0.076 0.059 0.076 0.06 0.076 0.06 0.074 0.062 0.074 0.126 0.146 0.064 0.071 0.065 0.071 0.066 0.07 0.067 0.069 0.136 0.136 0.069 0.067 0.07 0.066 0.071 0.065 0.144 0.128 0.073 0.062 0.074 0.062 0.075 0.061 0.075 0.059 0.076 0.06 0.077 0.058 0.077 0.057 0.078 0.056 0.079 0.056 0.16 0.108 0.162 0.104 0.082 0.05 0.083 0.05 0.084 0.049 0.168 0.094 0.086 0.046 0.085 0.044 0.087 0.044 0.087 0.043 0.176 0.082 0.178 0.078 0.09 0.037 0.09 0.036 0.091 0.036 0.092 0.034 0.091 0.033 0.093 0.032 0.093 0.031 0.093 0.029 0.094 0.029 0.095 0.028 0.095 0.026 0.095 0.025 0.096 0.024 0.096 0.023 0.097 0.022 0.097 0.02 0.098 0.02 0.098 0.018 0.099 0.017 0.099 0.016 0.099 0.014 0.1 0.014 0.1 0.012 0.101 0.011 0.202 0.018 0.102 7e-3 0.102 6e-3 0.103 4e-3 0.103 3e-3 0.103 2e-3 0.105 1e-3h0.084l0.084-2e-3 0.085-2e-3 0.083-3e-3 0.084-4e-3 0.166-0.01 0.166-0.014 0.082-8e-3 0.082-9e-3 0.164-0.02 0.162-0.024 0.08-0.013 0.081-0.014 0.08-0.014 0.079-0.016 0.08-0.016 0.079-0.017 0.158-0.036 0.078-0.019 0.078-0.02 0.078-0.021 0.154-0.044 0.077-0.023 0.076-0.024 0.152-0.05 0.075-0.026 0.15-0.054 0.075-0.029 0.074-0.029 0.073-0.029 0.219-0.093 0.144-0.066 0.072-0.034 0.071-0.035 0.07-0.035 0.071-0.036 0.069-0.036 0.07-0.038 0.138-0.076 0.068-0.04 0.068-0.039 0.134-0.082 0.067-0.042 0.132-0.086 0.13-0.088 0.064-0.045 0.128-0.092 0.982-0.731 0.73-0.981 0.092-0.128 0.045-0.064 0.045-0.065 0.043-0.065 0.044-0.066 0.042-0.066 0.042-0.067 0.082-0.134 0.04-0.068 0.039-0.069 0.039-0.068 0.037-0.069 0.038-0.07 0.072-0.14 0.036-0.071 0.068-0.142 0.066-0.144 0.032-0.073 0.031-0.073 0.03-0.073 0.03-0.074 0.029-0.074 0.028-0.074 0.054-0.15 0.026-0.075 0.026-0.076 0.024-0.076 0.024-0.077 0.023-0.076 0.022-0.077 0.022-0.078 0.021-0.077 0.02-0.078 0.019-0.078 0.019-0.079 0.034-0.158 0.017-0.08 0.015-0.079 0.015-0.08 0.026-0.162 0.013-0.08 0.011-0.082 0.011-0.081 0.018-0.164 8e-3 -0.082 8e-3 -0.083 0.012-0.166 4e-3 -0.083 4e-3 -0.084 3e-3 -0.084 4e-3 -0.168v-0.084-0.105l-2e-3 -0.103-8e-3 -0.206-6e-3 -0.102-7e-3 -0.102-9e-3 -0.101-9e-3 -0.102-0.011-0.1-0.012-0.1-0.028-0.2-0.016-0.099-0.017-0.098-0.018-0.098-0.019-0.098-0.021-0.097-0.022-0.097-0.023-0.096-0.024-0.096-0.025-0.096-0.026-0.094-0.028-0.095-0.028-0.094-0.03-0.093-0.031-0.093-0.032-0.093-0.033-0.092-0.034-0.091-0.035-0.091-0.037-0.091-0.037-0.089-0.038-0.09-0.04-0.088-0.04-0.089-0.042-0.087-0.086-0.174-0.045-0.086-0.092-0.17-0.048-0.084-0.098-0.166-0.051-0.082-0.052-0.082-0.052-0.08-0.108-0.16-0.056-0.079-0.056-0.078-0.057-0.078-0.058-0.076-0.059-0.076-0.06-0.076-0.061-0.074-0.062-0.074-0.062-0.073-0.128-0.144-0.065-0.071-0.066-0.07-0.134-0.138-0.138-0.134-0.07-0.066-0.071-0.065-0.071-0.064-0.073-0.064-0.073-0.062-0.074-0.062-0.074-0.061-0.075-0.06-0.077-0.059-0.076-0.058-0.078-0.057-0.078-0.056-0.079-0.056-0.079-0.054-0.08-0.054-0.081-0.052-0.082-0.052-0.082-0.05-0.083-0.05-0.083-0.049-0.084-0.047-0.085-0.047-0.085-0.046-0.086-0.044-0.087-0.044-0.087-0.043-0.087-0.041-0.088-0.041-0.178-0.078-0.09-0.037-0.182-0.072-0.091-0.034-0.092-0.033-0.093-0.032-0.093-0.031-0.093-0.029-0.094-0.029-0.094-0.028-0.095-0.026-0.096-0.025-0.096-0.024-0.096-0.023-0.097-0.022-0.097-0.02-0.098-0.02-0.098-0.018-0.098-0.017-0.099-0.016-0.1-0.014-0.099-0.014-0.101-0.012-0.1-0.011-0.101-9e-3 -0.102-9e-3 -0.102-7e-3 -0.102-6e-3 -0.103-4e-3 -0.103-3e-3 -0.103-2e-3 -0.104-1e-3 -0.104 1e-3z"/>
        </g>
        <g id="emoji1" serif:id="emoji">
            <path d="m20.413 17.999c1.257-1.672 2.001-3.749 2.001-5.999 0-5.519-4.481-10-10-10s-10 4.481-10 10 4.481 10 10 10c2.25 0 4.328-0.745 5.999-2.001l3.001 3.001 2-2-3.001-3.001z" fill="#cdcdcd"/>
            <path d="m20.121 21.293c-0.187 0.187-0.293 0.442-0.293 0.707s0.106 0.52 0.293 0.707l6.586 6.586c0.188 0.187 0.442 0.293 0.707 0.293s0.52-0.106 0.707-0.293c0.479-0.478 1.108-1.108 1.586-1.586 0.188-0.187 0.293-0.442 0.293-0.707s-0.105-0.52-0.293-0.707l-6.586-6.586c-0.187-0.187-0.442-0.293-0.707-0.293s-0.519 0.106-0.707 0.293c-0.478 0.478-1.107 1.108-1.586 1.586z" fill="#4c4c4c"/>
            
                <path d="m6.896 18.463c-1.825-1.559-2.982-3.877-2.982-6.463 0-4.691 3.809-8.5 8.5-8.5 2.586 0 4.904 1.157 6.463 2.981-1.485-1.269-13.251 10.497-11.981 11.982z" fill="#20a0b9"/>
                <path d="m6.896 18.463c-1.27-1.485-2.037-3.413-2.037-5.519 0-4.691 3.808-8.5 8.5-8.5 2.105 0 4.033 0.768 5.518 2.037 1.27 1.486 2.037 3.414 2.037 5.519 0 4.691-3.809 8.5-8.5 8.5-2.105 0-4.033-0.767-5.518-2.037z" fill="#30bfdb"/>
                <circle cx="14.914" cy="9.5" r="4.5" fill="#7ed7e9"/>
            
        </g>
    </g>
</svg>
