<?xml version="1.0" encoding="UTF-8"?>
<svg clip-rule="evenodd" fill-rule="evenodd" stroke-linecap="round" stroke-linejoin="round" stroke-miterlimit="1.5" viewBox="0 0 32 32" xmlns="http://www.w3.org/2000/svg">
 <clipPath id="a">
  <path d="m0 0h32v32h-32z" clip-rule="evenodd"/>
 </clipPath>
 <path d="m0 0h32v32h-32z" fill="none"/>
 <g clip-path="url(#a)">
  <path d="m30 13c0-3.866-3.134-7-7-7h-14c-3.866 0-7 3.134-7 7v11h28z" fill="none" stroke="#000" stroke-width="4"/>
  <path d="m14 23h4v7h-4z" fill="none" stroke="#000" stroke-linejoin="miter" stroke-width="4"/>
  <path d="m14 20h4v10h-4z" fill="#595959"/>
  <path d="m30 13c0-1.857-0.738-3.637-2.05-4.95-1.313-1.313-3.094-2.05-4.95-2.05h-14l7 18h14z" fill="#b9b9b9"/>
  <path d="m9 24h-7v-11c0-3.866 3.134-7 7-7 1.291 0 2.501.35 3.5.971-.546 2.657-3.5 17.029-3.5 17.029z" fill="#333"/>
  <path d="m12.5 6.971c2.11 1.204 3.5 3.454 3.5 6.029v11h-7v-11c0-2.575 1.39-4.825 3.5-6.029z" fill="#262626"/>
  <path d="m18 13v3h6v1c0 0.552 0.448 1 1 1h2c0.552 0 1-0.448 1-1v-3c0-0.552-0.448-1-1-1h-9z" fill="#e02a33"/>
 </g>
</svg>
