<?xml version="1.0" encoding="UTF-8"?>
<!DOCTYPE svg  PUBLIC '-//W3C//DTD SVG 1.1//EN'  'http://www.w3.org/Graphics/SVG/1.1/DTD/svg11.dtd'>
<svg clip-rule="evenodd" fill-rule="evenodd" stroke-linecap="round" stroke-miterlimit="1.5" version="1.1" viewBox="0 0 32 32" xml:space="preserve" xmlns="http://www.w3.org/2000/svg" xmlns:serif="http://www.serif.com/">
<metadata>
<rdf:RDF xmlns:cc="http://web.resource.org/cc/" xmlns:dc="http://purl.org/dc/elements/1.1/" xmlns:rdf="http://www.w3.org/1999/02/22-rdf-syntax-ns#">

     <rdf:Description rdf:about="">
       <dc:title>Mutant Standard emoji 2023.12</dc:title>
     </rdf:Description>

    <cc:work rdf:about="">
        <cc:license rdf:resource="http://creativecommons.org/licenses/by-nc-sa/4.0/"/>
        <cc:attributionName>Caius Nocturne</cc:attributionName>
        <cc:attributionURL>http://mutant.tech/</cc:attributionURL>
    </cc:work>

</rdf:RDF>
</metadata>

    <rect id="mailbox" width="32" height="32" fill="none"/>
    <clipPath id="_clip1">
        <rect width="32" height="32"/>
    </clipPath>
    <g clip-path="url(#_clip1)">
        <g id="outline" fill="none" stroke="#000" stroke-width="4px">
            <rect x="14" y="23" width="4" height="7"/>
            <path d="m18 6v-3c0-0.552 0.448-1 1-1h4c0.265-0 0.52 0.105 0.707 0.293 0.188 0.187 0.293 0.442 0.293 0.707v2c-0 0.552-0.448 1-1 1 3.866 0 7 3.134 7 7v11h-28v-11c0-3.866 3.134-7 7-7h9z" stroke-linejoin="round"/>
        </g>
        <g id="emoji">
            <rect id="_-Rectangle-" x="14" y="20" width="4" height="10" fill="#595959" serif:id="(Rectangle)"/>
            <path d="m30 13c-0-1.857-0.738-3.637-2.05-4.95-1.313-1.313-3.094-2.05-4.95-2.05h-14l7 18h14v-11z" fill="#b9b9b9"/>
            <path d="m18 16h3v-10h2c0.552-0 1-0.448 1-1v-2c-0-0.265-0.105-0.52-0.293-0.707-0.187-0.188-0.442-0.293-0.707-0.293h-4c-0.552-0-1 0.448-1 1v13z" fill="#e02a33"/>
            <path d="m6 24h-4v-11c0-3.866 3.134-7 7-7 1.291-0 2.501 0.35 3.5 0.971-0.627 3.051-6.5 17.029-6.5 17.029z" fill="#333"/>
            <path d="m12.5 6.971c2.11 1.204 3.5 3.454 3.5 6.029l-7 5.121v-5.121c0-2.575 1.39-4.825 3.5-6.029z" fill="#262626"/>
            <path d="m13 13h-7c-0.53-0-1.039 0.211-1.414 0.586s-0.586 0.884-0.586 1.414v7c-0 0.53 0.211 1.039 0.586 1.414s0.884 0.586 1.414 0.586h7l1-1v-9l-1-1z" fill="#fff"/>
            <clipPath id="_clip2">
                <path d="m13 13h-7c-0.53-0-1.039 0.211-1.414 0.586s-0.586 0.884-0.586 1.414v7c-0 0.53 0.211 1.039 0.586 1.414s0.884 0.586 1.414 0.586h7l1-1v-9l-1-1z"/>
            </clipPath>
            <g clip-path="url(#_clip2)" stroke-linejoin="round" stroke-width="2px">
                <path d="m4 24 8-7.944 8 7.944" fill="none" stroke="#ccc"/>
                <path d="m4 13s3.603 3.303 5.973 5.475c1.147 1.051 2.907 1.051 4.054 0 2.37-2.172 5.973-5.475 5.973-5.475" fill="#fff" stroke="#999"/>
            </g>
            <rect x="13" y="13" width="3" height="11" fill="#bfbfbf"/>
            <clipPath id="_clip3">
                <rect x="13" y="13" width="3" height="11"/>
            </clipPath>
            <g clip-path="url(#_clip3)" stroke-linejoin="round" stroke-width="2px">
                <path d="m4 24 8-7.944 8 7.944" fill="none" stroke="#969696"/>
                <path d="m4 13s3.603 3.303 5.973 5.475c1.147 1.051 2.907 1.051 4.054 0 2.37-2.172 5.973-5.475 5.973-5.475" fill="#bfbfbf" stroke="#717171"/>
            </g>
        </g>
    </g>
</svg>
