<?xml version="1.0" encoding="UTF-8"?>
<!DOCTYPE svg  PUBLIC '-//W3C//DTD SVG 1.1//EN'  'http://www.w3.org/Graphics/SVG/1.1/DTD/svg11.dtd'>
<svg clip-rule="evenodd" fill-rule="evenodd" stroke-miterlimit="1.5" version="1.1" viewBox="0 0 32 32" xml:space="preserve" xmlns="http://www.w3.org/2000/svg">
<metadata>
<rdf:RDF xmlns:cc="http://web.resource.org/cc/" xmlns:dc="http://purl.org/dc/elements/1.1/" xmlns:rdf="http://www.w3.org/1999/02/22-rdf-syntax-ns#">

     <rdf:Description rdf:about="">
       <dc:title>Mutant Standard emoji 2023.12</dc:title>
     </rdf:Description>

    <cc:work rdf:about="">
        <cc:license rdf:resource="http://creativecommons.org/licenses/by-nc-sa/4.0/"/>
        <cc:attributionName>Caius Nocturne</cc:attributionName>
        <cc:attributionURL>http://mutant.tech/</cc:attributionURL>
    </cc:work>

</rdf:RDF>
</metadata>

    <rect id="open_folder" width="32" height="32" fill="none"/>
    <clipPath id="_clip1">
        <rect width="32" height="32"/>
    </clipPath>
    <g clip-path="url(#_clip1)">
        <g id="outline">
            <path d="m25.219 27h-22.219c-0.265-0-0.52-0.105-0.707-0.293-0.188-0.187-0.293-0.442-0.293-0.707v-18c-0-0.265 0.105-0.52 0.293-0.707 0.187-0.188 0.442-0.293 0.707-0.293h7.382c0.379 0 0.725 0.214 0.894 0.553 0.296 0.592 0.724 1.447 0.724 1.447h13c0.552 0 1 0.448 1 1v3h2.219c0.308-0 0.599 0.142 0.788 0.385 0.19 0.242 0.257 0.559 0.182 0.858-0.708 2.834-2.427 9.708-3 12-0.111 0.445-0.511 0.757-0.97 0.757z" fill="none" stroke="#000" stroke-width="4px"/>
        </g>
        <g id="emoji">
            <path d="m3 7c-0.265-0-0.52 0.105-0.707 0.293-0.188 0.187-0.293 0.442-0.293 0.707v18c-0 0.265 0.105 0.52 0.293 0.707 0.187 0.188 0.442 0.293 0.707 0.293h22c0.265 0 0.52-0.105 0.707-0.293 0.188-0.187 0.293-0.442 0.293-0.707v-16c0-0.552-0.448-1-1-1h-13s-0.428-0.855-0.724-1.447c-0.169-0.339-0.515-0.553-0.894-0.553h-7.382z" fill="#10768b"/>
            <path d="m6.281 13c-0.459-0-0.859 0.312-0.97 0.757-0.573 2.292-2.292 9.166-3 12-0.075 0.299-8e-3 0.616 0.182 0.858 0.189 0.243 0.48 0.385 0.788 0.385h21.938c0.459 0 0.859-0.312 0.97-0.757 0.573-2.292 2.292-9.166 3-12 0.075-0.299 8e-3 -0.616-0.182-0.858-0.189-0.243-0.48-0.385-0.788-0.385h-21.938z" fill="#30bfdb"/>
        </g>
    </g>
</svg>
