<?xml version="1.0" encoding="UTF-8"?>
<!DOCTYPE svg  PUBLIC '-//W3C//DTD SVG 1.1//EN'  'http://www.w3.org/Graphics/SVG/1.1/DTD/svg11.dtd'>
<svg clip-rule="evenodd" fill-rule="evenodd" stroke-linecap="round" stroke-linejoin="round" stroke-miterlimit="1.5" version="1.1" viewBox="0 0 32 32" xml:space="preserve" xmlns="http://www.w3.org/2000/svg">
<metadata>
<rdf:RDF xmlns:cc="http://web.resource.org/cc/" xmlns:dc="http://purl.org/dc/elements/1.1/" xmlns:rdf="http://www.w3.org/1999/02/22-rdf-syntax-ns#">

     <rdf:Description rdf:about="">
       <dc:title>Mutant Standard emoji 2023.12</dc:title>
     </rdf:Description>

    <cc:work rdf:about="">
        <cc:license rdf:resource="http://creativecommons.org/licenses/by-nc-sa/4.0/"/>
        <cc:attributionName>Caius Nocturne</cc:attributionName>
        <cc:attributionURL>http://mutant.tech/</cc:attributionURL>
    </cc:work>

</rdf:RDF>
</metadata>

    <rect id="outbox" width="32" height="32" fill="none"/>
    <clipPath id="_clip1">
        <rect width="32" height="32"/>
    </clipPath>
    <g clip-path="url(#_clip1)">
        <g id="outline">
            <path d="m14.5 15v-5.379l-3.5 3.5-2.121-2.121v-2l7.121-7.121 7.121 7.121v2l-2.121 2.121-3.5-3.5v5.379h5.5l4 9v6h-22v-6l4-9h5.5z" fill="none" stroke="#000" stroke-width="4px"/>
        </g>
        <g id="emoji">
            <path d="m6 24 4.5-9h11l4.5 9v5h-20v-5z" fill="#0f0f0f"/>
            <path d="m5.4 25-0.4-1 4-9h14l4 9-0.4 1-1.6-0.576-3.3-7.424h-11.4l-3.3 7.424-1.6 0.576z" fill="#4c4c4c" fill-rule="nonzero"/>
            <path d="m27 30h-22v-6h7c0 2.209 1.791 4 4 4s4-1.791 4-4h7v6z" fill="#868686"/>
            <path d="m14.5 9.621-3.5 3.5-2.121-2.121v-2l7.121-6.121 7.121 6.121v2l-2.121 2.121-3.5-3.5-1.5 4.88 1.5 4.999v1.879h-3v-1.879l1.5-4.999-1.5-4.88z" fill="#747474" fill-rule="nonzero"/>
            <path d="m14.5 7.621-3.5 3.5-2.121-2.121 7.121-7.121 7.121 7.121-2.121 2.121-3.5-3.5v11.879h-3v-11.879z" fill="#fff" fill-rule="nonzero"/>
        </g>
    </g>
</svg>
