<?xml version="1.0" encoding="UTF-8"?>
<!DOCTYPE svg  PUBLIC '-//W3C//DTD SVG 1.1//EN'  'http://www.w3.org/Graphics/SVG/1.1/DTD/svg11.dtd'>
<svg clip-rule="evenodd" fill-rule="evenodd" stroke-linejoin="round" stroke-miterlimit="2" version="1.1" viewBox="0 0 32 32" xml:space="preserve" xmlns="http://www.w3.org/2000/svg">
<metadata>
<rdf:RDF xmlns:cc="http://web.resource.org/cc/" xmlns:dc="http://purl.org/dc/elements/1.1/" xmlns:rdf="http://www.w3.org/1999/02/22-rdf-syntax-ns#">

     <rdf:Description rdf:about="">
       <dc:title>Mutant Standard emoji 2023.12</dc:title>
     </rdf:Description>

    <cc:work rdf:about="">
        <cc:license rdf:resource="http://creativecommons.org/licenses/by-nc-sa/4.0/"/>
        <cc:attributionName>Caius Nocturne</cc:attributionName>
        <cc:attributionURL>http://mutant.tech/</cc:attributionURL>
    </cc:work>

</rdf:RDF>
</metadata>

    <rect id="package" width="32" height="32" fill="none"/>
    <g id="outline">
        <path d="m30.764 22.829v-12.829c-0-1.136-0.642-2.175-1.658-2.683-3.026-1.513-9.047-4.523-11.317-5.659-1.126-0.563-2.452-0.563-3.578 0-2.27 1.136-8.291 4.146-11.317 5.659-1 0.5-1.638 1.515-1.657 2.63l-1e-3 0.035v0.018 12.829c0 1.561 0.907 2.978 2.324 3.632 2.543 1.174 8.55 3.946 10.764 4.968 1.063 0.491 2.289 0.491 3.352 0 2.214-1.022 8.221-3.794 10.764-4.968 1.417-0.654 2.324-2.071 2.324-3.632z"/>
    </g>
    <g id="emoji">
        <path d="m28.764 10s-9.643-3.022-12.166-3.813c-0.389-0.122-0.807-0.122-1.196 0-2.523 0.791-12.166 3.813-12.166 3.813v12.829c0 0.78 0.454 1.489 1.162 1.816 2.543 1.174 8.55 3.946 10.764 4.968 0.532 0.246 1.144 0.246 1.676 0 2.214-1.022 8.221-3.794 10.764-4.968 0.708-0.327 1.162-1.036 1.162-1.816v-12.829z" fill="#b28959"/>
        <path d="m28.211 10.894c0.339-0.169 0.553-0.515 0.553-0.894s-0.214-0.725-0.553-0.894c-3.026-1.513-9.046-4.524-11.317-5.659-0.563-0.281-1.225-0.281-1.788 0-2.271 1.135-8.291 4.146-11.317 5.659-0.339 0.169-0.553 0.515-0.553 0.894s0.214 0.725 0.553 0.894c3.026 1.513 9.046 4.524 11.317 5.659 0.563 0.281 1.225 0.281 1.788-0 2.271-1.135 8.291-4.146 11.317-5.659z" fill="#d1ac84"/>
        <path d="m12 5s10.852 5.426 13.447 6.724c0.339 0.169 0.553 0.515 0.553 0.894v5.382l-4 2v-5.382c0-0.379-0.214-0.725-0.553-0.894-2.595-1.298-13.447-6.724-13.447-6.724l4-2z" fill="#f1d4a2"/>
        <path d="m5 15.708c0-0.152 0.079-0.293 0.207-0.372 0.129-0.08 0.291-0.087 0.426-0.019l6.814 3.407c0.339 0.169 0.553 0.515 0.553 0.894v2.674c-0 0.152-0.079 0.293-0.207 0.372-0.129 0.08-0.291 0.087-0.426 0.019l-6.814-3.407c-0.339-0.169-0.553-0.515-0.553-0.894v-2.674z" fill="#fff"/>
    </g>
</svg>
