<?xml version="1.0" encoding="UTF-8"?>
<!DOCTYPE svg  PUBLIC '-//W3C//DTD SVG 1.1//EN'  'http://www.w3.org/Graphics/SVG/1.1/DTD/svg11.dtd'>
<svg clip-rule="evenodd" fill-rule="evenodd" stroke-linecap="square" stroke-linejoin="round" stroke-miterlimit="1.5" version="1.1" viewBox="0 0 32 32" xml:space="preserve" xmlns="http://www.w3.org/2000/svg">
<metadata>
<rdf:RDF xmlns:cc="http://web.resource.org/cc/" xmlns:dc="http://purl.org/dc/elements/1.1/" xmlns:rdf="http://www.w3.org/1999/02/22-rdf-syntax-ns#">

     <rdf:Description rdf:about="">
       <dc:title>Mutant Standard emoji 2023.12</dc:title>
     </rdf:Description>

    <cc:work rdf:about="">
        <cc:license rdf:resource="http://creativecommons.org/licenses/by-nc-sa/4.0/"/>
        <cc:attributionName>Caius Nocturne</cc:attributionName>
        <cc:attributionURL>http://mutant.tech/</cc:attributionURL>
    </cc:work>

</rdf:RDF>
</metadata>

    <rect id="paperclip" width="32" height="32" fill="none"/>
    <clipPath id="_clip1">
        <rect width="32" height="32"/>
    </clipPath>
    <g clip-path="url(#_clip1)">
        <g id="outline">
            <path d="m22 8c0-4.418-3.582-8-8-8s-8 3.582-8 8v14.5c0 2.52 1.001 4.936 2.782 6.718 1.782 1.781 4.198 2.782 6.718 2.782 5.247 0 9.5-4.253 9.5-9.5v-12.5c0-0.53-0.211-1.039-0.586-1.414s-0.884-0.586-1.414-0.586h-1z"/>
        </g>
        <g id="emoji">
            <path d="m22 11v11.5c0 1.724-0.685 3.377-1.904 4.596s-2.872 1.904-4.596 1.904c-3.59 0-6.5-2.91-6.5-6.5v-14.5c0-1.326 0.527-2.598 1.464-3.536 0.938-0.937 2.21-1.464 3.536-1.464 2.761 0 5 2.239 5 5v11.5c0 1.933-1.567 3.5-3.5 3.5s-3.5-1.567-3.5-3.5v-8.5" fill="none" stroke="#a7a7a7" stroke-width="2px"/>
        </g>
    </g>
</svg>
