<?xml version="1.0" encoding="UTF-8"?>
<svg clip-rule="evenodd" fill-rule="evenodd" stroke-linejoin="round" stroke-miterlimit="1.4142" viewBox="0 0 32 32" xmlns="http://www.w3.org/2000/svg">
 <clipPath id="a">
  <path d="m0 0h32v32h-32z" clip-rule="evenodd"/>
 </clipPath>
 <path d="m0 0h32v32h-32z" fill="none"/>
 <g clip-path="url(#a)">
  <path d="m30 28h-28v-24c9.333 8 18.667 16 28 24z" fill="none" stroke="#000" stroke-width="4"/>
  <g fill-rule="nonzero">
   <path d="m3 4.857 1 2.143 21 18 1-.429 4 3.429h-28v-24z" fill="#1ba4ff"/>
   <path d="m3 4.857 1.042 0.893-0.042 0.25 1.177 1.081 0.615 0.169 20.208 17.321v0.429c0 0.552-0.448 1-1 1h-21c-0.552 0-1-0.448-1-1z" fill="#54bbff"/>
   <path d="m16 23h-9v-7.714c3 2.571 6 5.143 9 7.714z"/>
   <path d="m5 27.25h-3v-1.5h3zm1-4h-4v-1.5h4zm-1-4h-3v-1.5h3zm1-4h-4v-1.5h4zm-1-4h-3v-1.5h3zm.792-4h-3.792v-1.5h2.042z" fill="#fff"/>
  </g>
 </g>
</svg>
