<?xml version="1.0" encoding="UTF-8"?>
<!DOCTYPE svg  PUBLIC '-//W3C//DTD SVG 1.1//EN'  'http://www.w3.org/Graphics/SVG/1.1/DTD/svg11.dtd'>
<svg clip-rule="evenodd" fill-rule="evenodd" stroke-linecap="round" stroke-linejoin="round" stroke-miterlimit="1.5" version="1.1" viewBox="0 0 32 32" xml:space="preserve" xmlns="http://www.w3.org/2000/svg">
<metadata>
<rdf:RDF xmlns:cc="http://web.resource.org/cc/" xmlns:dc="http://purl.org/dc/elements/1.1/" xmlns:rdf="http://www.w3.org/1999/02/22-rdf-syntax-ns#">

     <rdf:Description rdf:about="">
       <dc:title>Mutant Standard emoji 2023.12</dc:title>
     </rdf:Description>

    <cc:work rdf:about="">
        <cc:license rdf:resource="http://creativecommons.org/licenses/by-nc-sa/4.0/"/>
        <cc:attributionName>Caius Nocturne</cc:attributionName>
        <cc:attributionURL>http://mutant.tech/</cc:attributionURL>
    </cc:work>

</rdf:RDF>
</metadata>

    <rect id="birthday_cake" width="32" height="32" fill="none"/>
    <clipPath id="_clip1">
        <rect width="32" height="32"/>
    </clipPath>
    <g clip-path="url(#_clip1)">
        <g id="outline" stroke="#000" stroke-width="4px">
            <path d="m30 25c0 2.76-6.273 5-14 5s-14-2.24-14-5v-11c0-0.165 0.022-0.328 0.066-0.489-0.043-0.163-0.066-0.334-0.066-0.511 0-1.104 0.896-2 2-2 0.212 0 0.416 0.033 0.608 0.094 0.688-0.343 1.495-0.654 2.399-0.925-5e-3 -0.056-7e-3 -0.112-7e-3 -0.169 0-1.104 0.896-2 2-2 0.874 0 1.618 0.562 1.89 1.344 0.987-0.138 2.029-0.238 3.11-0.293v-3.051h4v3.051c1.081 0.055 2.123 0.155 3.11 0.293 0.272-0.782 1.016-1.344 1.89-1.344 1.104 0 2 0.896 2 2 0 0.057-2e-3 0.113-7e-3 0.169 0.904 0.271 1.711 0.582 2.399 0.925 0.192-0.061 0.396-0.094 0.608-0.094 1.104 0 2 0.896 2 2 0 0.177-0.023 0.348-0.066 0.511 0.044 0.161 0.066 0.324 0.066 0.489v11z" fill="none"/>
            <path d="m14 6v-1c0-0.796 0.316-1.559 0.879-2.121 0.562-0.563 1.325-0.879 2.121-0.879h2v1c0 0.796-0.316 1.559-0.879 2.121-0.562 0.563-1.325 0.879-2.121 0.879h-2z" fill="#ffa617" stroke-linejoin="miter"/>
        </g>
        <g id="emoji">
            <path d="m30 14v11c0 2.76-6.273 5-14 5s-14-2.24-14-5v-11h28z" fill="#d9d9d9"/>
            <ellipse cx="16" cy="14" rx="14" ry="5" fill="#fff"/>
            <path d="m14 6c0-0.394 0.896-0.714 2-0.714s2 0.32 2 0.714v7c0 0.394-0.896 0.714-2 0.714s-2-0.32-2-0.714v-7z" fill="#6053d0"/>
            <path d="m14 6v-1c0-0.796 0.316-1.559 0.879-2.121 0.562-0.563 1.325-0.879 2.121-0.879h2v1c0 0.796-0.316 1.559-0.879 2.121-0.562 0.563-1.325 0.879-2.121 0.879h-2z" fill="#ffa617"/>
            <g fill="#db3333">
                <circle cx="16" cy="17" r="2"/>
                <circle cx="9" cy="10" r="2"/>
                <circle cx="23" cy="10" r="2"/>
                <circle cx="9" cy="16" r="2"/>
                <circle cx="23" cy="16" r="2"/>
                <circle cx="28" cy="13" r="2"/>
                <circle cx="4" cy="13" r="2"/>
            </g>
        </g>
    </g>
</svg>
