<?xml version="1.0" encoding="UTF-8"?>
<!DOCTYPE svg  PUBLIC '-//W3C//DTD SVG 1.1//EN'  'http://www.w3.org/Graphics/SVG/1.1/DTD/svg11.dtd'>
<svg clip-rule="evenodd" fill-rule="evenodd" stroke-linecap="round" stroke-linejoin="round" stroke-miterlimit="1.5" version="1.1" viewBox="0 0 32 32" xml:space="preserve" xmlns="http://www.w3.org/2000/svg">
<metadata>
<rdf:RDF xmlns:cc="http://web.resource.org/cc/" xmlns:dc="http://purl.org/dc/elements/1.1/" xmlns:rdf="http://www.w3.org/1999/02/22-rdf-syntax-ns#">

     <rdf:Description rdf:about="">
       <dc:title>Mutant Standard emoji 2023.12</dc:title>
     </rdf:Description>

    <cc:work rdf:about="">
        <cc:license rdf:resource="http://creativecommons.org/licenses/by-nc-sa/4.0/"/>
        <cc:attributionName>Caius Nocturne</cc:attributionName>
        <cc:attributionURL>http://mutant.tech/</cc:attributionURL>
    </cc:work>

</rdf:RDF>
</metadata>
<rect id="curry_rice" width="32" height="32" fill="none"/><clipPath id="_clip1"><rect width="32" height="32"/></clipPath><g clip-path="url(#_clip1)"><g id="outline" fill="none" stroke="#000" stroke-width="4px"><path d="m2 15c0-2.76 6.273-5 14-5s14 2.24 14 5c0 6.627-6.268 12-14 12s-14-5.373-14-12z"/><path d="m13 13h1.743c0.805 0 1.577-0.32 2.146-0.889l1.354-1.354c1.125-1.125 2.651-1.757 4.242-1.757h0.515c3.314 0 6 2.686 6 6v4h-16v-6z"/><path d="m3 15s0.593-0.989 1.252-2.087c1.085-1.807 3.038-2.913 5.145-2.913h1.118c1.591 0 3.117 0.632 4.242 1.757l4.314 4.314c0.595 0.595 1.402 0.929 2.243 0.929h7.686-26v-2z"/></g><g id="emoji"><path d="m2 15c0-2.76 6.273-5 14-5s14 2.24 14 5c0 6.627-6.268 12-14 12s-14-5.373-14-12z" fill="#d9d9d9"/><clipPath id="_clip2"><path d="m2 15c0-2.76 6.273-5 14-5s14 2.24 14 5c0 6.627-6.268 12-14 12s-14-5.373-14-12z"/></clipPath><g clip-path="url(#_clip2)"><rect x="1" y="15" width="30" height="13" fill="#b9b9b9"/><path d="m32 29h-32v-15l3 1h26l3-1v15z" fill="none"/><clipPath id="_clip3"><path d="m32 29h-32v-15l3 1h26l3-1v15z"/></clipPath><g clip-path="url(#_clip3)"><ellipse cx="16" cy="15" rx="14" ry="5" fill="none" stroke="#939393" stroke-width="4px"/><path d="m16.181 10 0.36 4e-3 0.358 6e-3 0.178 5e-3 0.177 5e-3 0.177 6e-3 0.176 7e-3 0.175 7e-3 0.175 9e-3 0.174 9e-3 0.346 0.02 0.172 0.012 0.171 0.012 0.34 0.026 0.169 0.014 0.168 0.016 0.167 0.015 0.167 0.017 0.165 0.017 0.165 0.018 0.164 0.019 0.163 0.019 0.162 0.02 0.162 0.021 0.16 0.021 0.159 0.022 0.159 0.023 0.157 0.023 0.157 0.024 0.31 0.05 0.153 0.026 0.153 0.027 0.151 0.027 0.151 0.028 0.149 0.029 0.148 0.029 0.147 0.03 0.146 0.03 0.145 0.031 0.144 0.032 0.143 0.032 0.141 0.033 0.14 0.033 0.139 0.034 0.138 0.035 0.137 0.035 0.135 0.036 0.134 0.036 0.133 0.037 0.132 0.037 0.13 0.038 0.129 0.039 0.128 0.039 0.126 0.039 0.125 0.041 0.124 0.04 0.122 0.041 0.121 0.042 0.12 0.042 0.118 0.043 0.116 0.043 0.115 0.044 0.114 0.044 0.113 0.044 0.11 0.046 0.11 0.045 0.107 0.046 0.107 0.047 0.208 0.094 0.101 0.048 0.1 0.049 0.099 0.048 0.096 0.05 0.096 0.049 0.093 0.05 0.092 0.051 0.09 0.051 0.089 0.051 0.087 0.052 0.085 0.052 0.084 0.053 0.081 0.053 0.08 0.053 0.078 0.054 0.077 0.054 0.075 0.054 0.072 0.055 0.071 0.055 0.07 0.056 0.067 0.056 0.066 0.056 0.063 0.056 0.062 0.057 0.06 0.058 0.058 0.057 0.056 0.058 0.054 0.058 0.052 0.059 0.05 0.059 0.049 0.059 0.046 0.059 0.044 0.06 0.042 0.06 0.04 0.06 0.038 0.061 0.036 0.061 0.034 0.061 0.032 0.061 0.03 0.062 0.028 0.062 0.025 0.062 0.023 0.063 0.022 0.062 0.019 0.063 0.017 0.063 0.014 0.064 0.013 0.063 0.01 0.064 8e-3 0.064 5e-3 0.064 4e-3 0.064 1e-3 0.065-1e-3 0.065-4e-3 0.064-5e-3 0.064-8e-3 0.064-0.01 0.064-0.013 0.063-0.014 0.064-0.017 0.063-0.019 0.063-0.022 0.062-0.023 0.063-0.025 0.062-0.028 0.062-0.03 0.062-0.032 0.061-0.034 0.061-0.036 0.061-0.038 0.061-0.04 0.06-0.042 0.06-0.044 0.06-0.046 0.059-0.049 0.059-0.05 0.059-0.052 0.059-0.054 0.058-0.056 0.058-0.058 0.057-0.06 0.058-0.062 0.057-0.063 0.056-0.066 0.056-0.067 0.056-0.07 0.056-0.071 0.055-0.072 0.055-0.075 0.054-0.077 0.054-0.078 0.054-0.08 0.053-0.081 0.053-0.084 0.053-0.085 0.052-0.087 0.052-0.089 0.051-0.09 0.051-0.092 0.051-0.093 0.05-0.096 0.049-0.096 0.05-0.099 0.048-0.1 0.049-0.101 0.048-0.208 0.094-0.107 0.047-0.107 0.046-0.11 0.045-0.11 0.046-0.113 0.044-0.114 0.044-0.115 0.044-0.116 0.043-0.118 0.043-0.12 0.042-0.121 0.042-0.122 0.041-0.124 0.04-0.125 0.041-0.126 0.039-0.128 0.039-0.129 0.039-0.13 0.038-0.132 0.037-0.133 0.037-0.134 0.036-0.135 0.036-0.137 0.035-0.138 0.035-0.139 0.034-0.14 0.033-0.141 0.033-0.143 0.032-0.144 0.032-0.145 0.031-0.146 0.03-0.147 0.03-0.148 0.029-0.149 0.029-0.151 0.028-0.151 0.027-0.153 0.027-0.153 0.026-0.31 0.05-0.157 0.024-0.157 0.023-0.159 0.023-0.159 0.022-0.16 0.021-0.162 0.021-0.162 0.02-0.163 0.019-0.164 0.019-0.165 0.018-0.165 0.017-0.167 0.017-0.167 0.015-0.168 0.016-0.169 0.014-0.34 0.026-0.171 0.012-0.172 0.012-0.346 0.02-0.174 9e-3 -0.175 9e-3 -0.175 7e-3 -0.176 7e-3 -0.177 6e-3 -0.177 5e-3 -0.178 5e-3 -0.358 6e-3 -0.36 4e-3h-0.181-0.181l-0.36-4e-3 -0.358-6e-3 -0.178-5e-3 -0.177-5e-3 -0.177-6e-3 -0.176-7e-3 -0.175-7e-3 -0.175-9e-3 -0.174-9e-3 -0.346-0.02-0.172-0.012-0.171-0.012-0.34-0.026-0.169-0.014-0.168-0.016-0.167-0.015-0.167-0.017-0.165-0.017-0.165-0.018-0.164-0.019-0.163-0.019-0.162-0.02-0.162-0.021-0.16-0.021-0.159-0.022-0.159-0.023-0.157-0.023-0.157-0.024-0.31-0.05-0.153-0.026-0.153-0.027-0.151-0.027-0.151-0.028-0.149-0.029-0.148-0.029-0.147-0.03-0.146-0.03-0.145-0.031-0.144-0.032-0.143-0.032-0.141-0.033-0.14-0.033-0.139-0.034-0.138-0.035-0.137-0.035-0.135-0.036-0.134-0.036-0.133-0.037-0.132-0.037-0.13-0.038-0.129-0.039-0.128-0.039-0.126-0.039-0.125-0.041-0.124-0.04-0.122-0.041-0.121-0.042-0.12-0.042-0.118-0.043-0.116-0.043-0.115-0.044-0.114-0.044-0.113-0.044-0.11-0.046-0.11-0.045-0.107-0.046-0.107-0.047-0.208-0.094-0.101-0.048-0.1-0.049-0.099-0.048-0.096-0.05-0.096-0.049-0.093-0.05-0.092-0.051-0.09-0.051-0.089-0.051-0.087-0.052-0.085-0.052-0.084-0.053-0.081-0.053-0.08-0.053-0.078-0.054-0.077-0.054-0.075-0.054-0.072-0.055-0.071-0.055-0.07-0.056-0.067-0.056-0.066-0.056-0.063-0.056-0.062-0.057-0.06-0.058-0.058-0.057-0.056-0.058-0.054-0.058-0.052-0.059-0.05-0.059-0.049-0.059-0.046-0.059-0.044-0.06-0.042-0.06-0.04-0.06-0.038-0.061-0.036-0.061-0.034-0.061-0.032-0.061-0.03-0.062-0.028-0.062-0.025-0.062-0.023-0.063-0.022-0.062-0.019-0.063-0.017-0.063-0.014-0.064-0.013-0.063-0.01-0.064-8e-3 -0.064-5e-3 -0.064-4e-3 -0.064-1e-3 -0.065 1e-3 -0.065 4e-3 -0.064 5e-3 -0.064 8e-3 -0.064 0.01-0.064 0.013-0.063 0.014-0.064 0.017-0.063 0.019-0.063 0.022-0.062 0.023-0.063 0.025-0.062 0.028-0.062 0.03-0.062 0.032-0.061 0.034-0.061 0.036-0.061 0.038-0.061 0.04-0.06 0.042-0.06 0.044-0.06 0.046-0.059 0.049-0.059 0.05-0.059 0.052-0.059 0.054-0.058 0.056-0.058 0.058-0.057 0.06-0.058 0.062-0.057 0.063-0.056 0.066-0.056 0.067-0.056 0.07-0.056 0.071-0.055 0.072-0.055 0.075-0.054 0.077-0.054 0.078-0.054 0.08-0.053 0.081-0.053 0.084-0.053 0.085-0.052 0.087-0.052 0.089-0.051 0.09-0.051 0.092-0.051 0.093-0.05 0.096-0.049 0.096-0.05 0.099-0.048 0.1-0.049 0.101-0.048 0.208-0.094 0.107-0.047 0.107-0.046 0.11-0.045 0.11-0.046 0.113-0.044 0.114-0.044 0.115-0.044 0.116-0.043 0.118-0.043 0.12-0.042 0.121-0.042 0.122-0.041 0.124-0.04 0.125-0.041 0.126-0.039 0.128-0.039 0.129-0.039 0.13-0.038 0.132-0.037 0.133-0.037 0.134-0.036 0.135-0.036 0.137-0.035 0.138-0.035 0.139-0.034 0.14-0.033 0.141-0.033 0.143-0.032 0.144-0.032 0.145-0.031 0.146-0.03 0.147-0.03 0.148-0.029 0.149-0.029 0.151-0.028 0.151-0.027 0.153-0.027 0.153-0.026 0.31-0.05 0.157-0.024 0.157-0.023 0.159-0.023 0.159-0.022 0.16-0.021 0.162-0.021 0.162-0.02 0.163-0.019 0.164-0.019 0.165-0.018 0.165-0.017 0.167-0.017 0.167-0.015 0.168-0.016 0.169-0.014 0.34-0.026 0.171-0.012 0.172-0.012 0.346-0.02 0.174-9e-3 0.175-9e-3 0.175-7e-3 0.176-7e-3 0.177-6e-3 0.177-5e-3 0.178-5e-3 0.358-6e-3 0.36-4e-3h0.181 0.181zm-0.344 4-0.162 1e-3 -0.162 2e-3 -0.161 3e-3 -0.16 3e-3 -0.16 4e-3 -0.159 5e-3 -0.158 5e-3 -0.158 6e-3 -0.157 7e-3 -0.157 8e-3 -0.156 8e-3 -0.155 9e-3 -0.154 9e-3 -0.153 0.01-0.153 0.011-0.152 0.011-0.151 0.013-0.15 0.012-0.15 0.014-0.296 0.028-0.147 0.016-0.145 0.015-0.145 0.017-0.144 0.017-0.143 0.018-0.142 0.018-0.28 0.038-0.139 0.02-0.137 0.02-0.137 0.021-0.135 0.022-0.268 0.044-0.131 0.023-0.131 0.024-0.129 0.024-0.129 0.025-0.127 0.025-0.125 0.025-0.124 0.026-0.123 0.026-0.122 0.027-0.12 0.027-0.119 0.028-0.118 0.028-0.116 0.028-0.114 0.029-0.113 0.029-0.112 0.029-0.11 0.03-0.108 0.03-0.107 0.031-0.105 0.03-0.07 0.021 0.07 0.021 0.105 0.03 0.107 0.031 0.108 0.03 0.11 0.03 0.112 0.029 0.113 0.029 0.114 0.029 0.116 0.028 0.118 0.028 0.119 0.028 0.12 0.027 0.122 0.027 0.123 0.026 0.124 0.026 0.125 0.025 0.127 0.025 0.129 0.025 0.129 0.024 0.131 0.024 0.131 0.023 0.268 0.044 0.135 0.022 0.137 0.021 0.137 0.02 0.139 0.02 0.28 0.038 0.142 0.018 0.143 0.018 0.144 0.017 0.145 0.017 0.145 0.015 0.147 0.016 0.296 0.028 0.15 0.014 0.15 0.012 0.151 0.013 0.152 0.011 0.153 0.011 0.153 0.01 0.154 9e-3 0.155 9e-3 0.156 8e-3 0.157 8e-3 0.157 7e-3 0.158 6e-3 0.158 5e-3 0.159 5e-3 0.16 4e-3 0.16 3e-3 0.161 3e-3 0.162 2e-3 0.162 1e-3h0.163 0.163l0.162-1e-3 0.162-2e-3 0.161-3e-3 0.16-3e-3 0.16-4e-3 0.159-5e-3 0.158-5e-3 0.158-6e-3 0.157-7e-3 0.157-8e-3 0.156-8e-3 0.155-9e-3 0.154-9e-3 0.153-0.01 0.153-0.011 0.152-0.011 0.151-0.013 0.15-0.012 0.15-0.014 0.296-0.028 0.147-0.016 0.145-0.015 0.145-0.017 0.144-0.017 0.143-0.018 0.142-0.018 0.28-0.038 0.139-0.02 0.137-0.02 0.137-0.021 0.27-0.044 0.133-0.022 0.131-0.023 0.131-0.024 0.13-0.024 0.128-0.025 0.127-0.025 0.125-0.025 0.125-0.026 0.122-0.026 0.122-0.027 0.12-0.027 0.119-0.028 0.118-0.028 0.116-0.028 0.114-0.029 0.113-0.029 0.112-0.029 0.11-0.03 0.108-0.03 0.107-0.031 0.105-0.03 0.07-0.021-0.07-0.021-0.105-0.03-0.107-0.031-0.108-0.03-0.11-0.03-0.112-0.029-0.113-0.029-0.114-0.029-0.116-0.028-0.118-0.028-0.119-0.028-0.12-0.027-0.122-0.027-0.122-0.026-0.125-0.026-0.125-0.025-0.127-0.025-0.128-0.025-0.13-0.024-0.131-0.024-0.131-0.023-0.133-0.022-0.27-0.044-0.137-0.021-0.137-0.02-0.139-0.02-0.28-0.038-0.142-0.018-0.143-0.018-0.144-0.017-0.145-0.017-0.145-0.015-0.147-0.016-0.296-0.028-0.15-0.014-0.15-0.012-0.151-0.013-0.152-0.011-0.153-0.011-0.153-0.01-0.154-9e-3 -0.155-9e-3 -0.156-8e-3 -0.157-8e-3 -0.157-7e-3 -0.158-6e-3 -0.158-5e-3 -0.159-5e-3 -0.16-4e-3 -0.16-3e-3 -0.161-3e-3 -0.162-2e-3 -0.162-1e-3h-0.163-0.163z" fill="#d9d9d9"/></g></g><path d="m2 15v-12h28v12c0 2.76-6.273 5-14 5s-14-2.24-14-5z" fill="none"/><clipPath id="_clip4"><path d="m2 15v-12h28v12c0 2.76-6.273 5-14 5s-14-2.24-14-5z"/></clipPath><g clip-path="url(#_clip4)"><path d="m13 13h1.743c0.805 0 1.577-0.32 2.146-0.889l1.354-1.354c1.125-1.125 2.651-1.757 4.242-1.757h0.515c3.314 0 6 2.686 6 6v4h-16v-6z" fill="#fff"/><path d="m3 15s0.593-0.989 1.252-2.087c1.085-1.807 3.038-2.913 5.145-2.913h1.118c1.591 0 3.117 0.632 4.242 1.757l2.395 2.395c1.824 1.824 4.297 2.848 6.876 2.848h4.972v3h-26v-5z" fill="#bb662c"/><clipPath id="_clip5"><path d="m3 15s0.593-0.989 1.252-2.087c1.085-1.807 3.038-2.913 5.145-2.913h1.118c1.591 0 3.117 0.632 4.242 1.757l2.395 2.395c1.824 1.824 4.297 2.848 6.876 2.848h4.972v3h-26v-5z"/></clipPath><g clip-path="url(#_clip5)" fill="#9b4d1c"><path d="m8.707 16.707c-0.39-0.39-0.39-1.024 0-1.414l1.586-1.586c0.39-0.39 1.024-0.39 1.414 0l1.586 1.586c0.39 0.39 0.39 1.024 0 1.414l-1.586 1.586c-0.39 0.39-1.024 0.39-1.414 0l-1.586-1.586z"/><path d="m18 17.585c0-0.155-0.062-0.304-0.171-0.414-0.11-0.109-0.259-0.171-0.414-0.171h-2.83c-0.155 0-0.304 0.062-0.414 0.171-0.109 0.11-0.171 0.259-0.171 0.414v2.415h4v-2.415z"/><path d="m6 13c0.265 0 0.52 0.105 0.707 0.293 0.188 0.187 0.293 0.442 0.293 0.707s-0.105 0.52-0.293 0.707c-0.187 0.188-0.442 0.293-0.707 0.293h-4v-2h4z"/><path d="m16 13c-0.265 0-0.52 0.105-0.707 0.293-0.188 0.187-0.293 0.442-0.293 0.707s0.105 0.52 0.293 0.707c0.187 0.188 0.442 0.293 0.707 0.293h4v-2h-4z"/><path d="m15 10h-4c-0.265 0-0.52 0.105-0.707 0.293-0.188 0.187-0.293 0.442-0.293 0.707s0.105 0.52 0.293 0.707c0.187 0.188 0.442 0.293 0.707 0.293h4v-2z"/></g></g><rect y="15" width="31" height="9" fill="none"/><clipPath id="_clip6"><rect y="15" width="31" height="9"/></clipPath><g clip-path="url(#_clip6)"><path d="m16.181 10 0.36 4e-3 0.358 6e-3 0.178 5e-3 0.177 5e-3 0.177 6e-3 0.176 7e-3 0.175 7e-3 0.175 9e-3 0.174 9e-3 0.346 0.02 0.172 0.012 0.171 0.012 0.34 0.026 0.169 0.014 0.168 0.016 0.167 0.015 0.167 0.017 0.165 0.017 0.165 0.018 0.164 0.019 0.163 0.019 0.162 0.02 0.162 0.021 0.16 0.021 0.159 0.022 0.159 0.023 0.157 0.023 0.157 0.024 0.31 0.05 0.153 0.026 0.153 0.027 0.151 0.027 0.151 0.028 0.149 0.029 0.148 0.029 0.147 0.03 0.146 0.03 0.145 0.031 0.144 0.032 0.143 0.032 0.141 0.033 0.14 0.033 0.139 0.034 0.138 0.035 0.137 0.035 0.135 0.036 0.134 0.036 0.133 0.037 0.132 0.037 0.13 0.038 0.129 0.039 0.128 0.039 0.126 0.039 0.125 0.041 0.124 0.04 0.122 0.041 0.121 0.042 0.12 0.042 0.118 0.043 0.116 0.043 0.115 0.044 0.114 0.044 0.113 0.044 0.11 0.046 0.11 0.045 0.107 0.046 0.107 0.047 0.208 0.094 0.101 0.048 0.1 0.049 0.099 0.048 0.096 0.05 0.096 0.049 0.093 0.05 0.092 0.051 0.09 0.051 0.089 0.051 0.087 0.052 0.085 0.052 0.084 0.053 0.081 0.053 0.08 0.053 0.078 0.054 0.077 0.054 0.075 0.054 0.072 0.055 0.071 0.055 0.07 0.056 0.067 0.056 0.066 0.056 0.063 0.056 0.062 0.057 0.06 0.058 0.058 0.057 0.056 0.058 0.054 0.058 0.052 0.059 0.05 0.059 0.049 0.059 0.046 0.059 0.044 0.06 0.042 0.06 0.04 0.06 0.038 0.061 0.036 0.061 0.034 0.061 0.032 0.061 0.03 0.062 0.028 0.062 0.025 0.062 0.023 0.063 0.022 0.062 0.019 0.063 0.017 0.063 0.014 0.064 0.013 0.063 0.01 0.064 8e-3 0.064 5e-3 0.064 4e-3 0.064 1e-3 0.065-1e-3 0.065-4e-3 0.064-5e-3 0.064-8e-3 0.064-0.01 0.064-0.013 0.063-0.014 0.064-0.017 0.063-0.019 0.063-0.022 0.062-0.023 0.063-0.025 0.062-0.028 0.062-0.03 0.062-0.032 0.061-0.034 0.061-0.036 0.061-0.038 0.061-0.04 0.06-0.042 0.06-0.044 0.06-0.046 0.059-0.049 0.059-0.05 0.059-0.052 0.059-0.054 0.058-0.056 0.058-0.058 0.057-0.06 0.058-0.062 0.057-0.063 0.056-0.066 0.056-0.067 0.056-0.07 0.056-0.071 0.055-0.072 0.055-0.075 0.054-0.077 0.054-0.078 0.054-0.08 0.053-0.081 0.053-0.084 0.053-0.085 0.052-0.087 0.052-0.089 0.051-0.09 0.051-0.092 0.051-0.093 0.05-0.096 0.049-0.096 0.05-0.099 0.048-0.1 0.049-0.101 0.048-0.208 0.094-0.107 0.047-0.107 0.046-0.11 0.045-0.11 0.046-0.113 0.044-0.114 0.044-0.115 0.044-0.116 0.043-0.118 0.043-0.12 0.042-0.121 0.042-0.122 0.041-0.124 0.04-0.125 0.041-0.126 0.039-0.128 0.039-0.129 0.039-0.13 0.038-0.132 0.037-0.133 0.037-0.134 0.036-0.135 0.036-0.137 0.035-0.138 0.035-0.139 0.034-0.14 0.033-0.141 0.033-0.143 0.032-0.144 0.032-0.145 0.031-0.146 0.03-0.147 0.03-0.148 0.029-0.149 0.029-0.151 0.028-0.151 0.027-0.153 0.027-0.153 0.026-0.31 0.05-0.157 0.024-0.157 0.023-0.159 0.023-0.159 0.022-0.16 0.021-0.162 0.021-0.162 0.02-0.163 0.019-0.164 0.019-0.165 0.018-0.165 0.017-0.167 0.017-0.167 0.015-0.168 0.016-0.169 0.014-0.34 0.026-0.171 0.012-0.172 0.012-0.346 0.02-0.174 9e-3 -0.175 9e-3 -0.175 7e-3 -0.176 7e-3 -0.177 6e-3 -0.177 5e-3 -0.178 5e-3 -0.358 6e-3 -0.36 4e-3h-0.181-0.181l-0.36-4e-3 -0.358-6e-3 -0.178-5e-3 -0.177-5e-3 -0.177-6e-3 -0.176-7e-3 -0.175-7e-3 -0.175-9e-3 -0.174-9e-3 -0.346-0.02-0.172-0.012-0.171-0.012-0.34-0.026-0.169-0.014-0.168-0.016-0.167-0.015-0.167-0.017-0.165-0.017-0.165-0.018-0.164-0.019-0.163-0.019-0.162-0.02-0.162-0.021-0.16-0.021-0.159-0.022-0.159-0.023-0.157-0.023-0.157-0.024-0.31-0.05-0.153-0.026-0.153-0.027-0.151-0.027-0.151-0.028-0.149-0.029-0.148-0.029-0.147-0.03-0.146-0.03-0.145-0.031-0.144-0.032-0.143-0.032-0.141-0.033-0.14-0.033-0.139-0.034-0.138-0.035-0.137-0.035-0.135-0.036-0.134-0.036-0.133-0.037-0.132-0.037-0.13-0.038-0.129-0.039-0.128-0.039-0.126-0.039-0.125-0.041-0.124-0.04-0.122-0.041-0.121-0.042-0.12-0.042-0.118-0.043-0.116-0.043-0.115-0.044-0.114-0.044-0.113-0.044-0.11-0.046-0.11-0.045-0.107-0.046-0.107-0.047-0.208-0.094-0.101-0.048-0.1-0.049-0.099-0.048-0.096-0.05-0.096-0.049-0.093-0.05-0.092-0.051-0.09-0.051-0.089-0.051-0.087-0.052-0.085-0.052-0.084-0.053-0.081-0.053-0.08-0.053-0.078-0.054-0.077-0.054-0.075-0.054-0.072-0.055-0.071-0.055-0.07-0.056-0.067-0.056-0.066-0.056-0.063-0.056-0.062-0.057-0.06-0.058-0.058-0.057-0.056-0.058-0.054-0.058-0.052-0.059-0.05-0.059-0.049-0.059-0.046-0.059-0.044-0.06-0.042-0.06-0.04-0.06-0.038-0.061-0.036-0.061-0.034-0.061-0.032-0.061-0.03-0.062-0.028-0.062-0.025-0.062-0.023-0.063-0.022-0.062-0.019-0.063-0.017-0.063-0.014-0.064-0.013-0.063-0.01-0.064-8e-3 -0.064-5e-3 -0.064-4e-3 -0.064-1e-3 -0.065 1e-3 -0.065 4e-3 -0.064 5e-3 -0.064 8e-3 -0.064 0.01-0.064 0.013-0.063 0.014-0.064 0.017-0.063 0.019-0.063 0.022-0.062 0.023-0.063 0.025-0.062 0.028-0.062 0.03-0.062 0.032-0.061 0.034-0.061 0.036-0.061 0.038-0.061 0.04-0.06 0.042-0.06 0.044-0.06 0.046-0.059 0.049-0.059 0.05-0.059 0.052-0.059 0.054-0.058 0.056-0.058 0.058-0.057 0.06-0.058 0.062-0.057 0.063-0.056 0.066-0.056 0.067-0.056 0.07-0.056 0.071-0.055 0.072-0.055 0.075-0.054 0.077-0.054 0.078-0.054 0.08-0.053 0.081-0.053 0.084-0.053 0.085-0.052 0.087-0.052 0.089-0.051 0.09-0.051 0.092-0.051 0.093-0.05 0.096-0.049 0.096-0.05 0.099-0.048 0.1-0.049 0.101-0.048 0.208-0.094 0.107-0.047 0.107-0.046 0.11-0.045 0.11-0.046 0.113-0.044 0.114-0.044 0.115-0.044 0.116-0.043 0.118-0.043 0.12-0.042 0.121-0.042 0.122-0.041 0.124-0.04 0.125-0.041 0.126-0.039 0.128-0.039 0.129-0.039 0.13-0.038 0.132-0.037 0.133-0.037 0.134-0.036 0.135-0.036 0.137-0.035 0.138-0.035 0.139-0.034 0.14-0.033 0.141-0.033 0.143-0.032 0.144-0.032 0.145-0.031 0.146-0.03 0.147-0.03 0.148-0.029 0.149-0.029 0.151-0.028 0.151-0.027 0.153-0.027 0.153-0.026 0.31-0.05 0.157-0.024 0.157-0.023 0.159-0.023 0.159-0.022 0.16-0.021 0.162-0.021 0.162-0.02 0.163-0.019 0.164-0.019 0.165-0.018 0.165-0.017 0.167-0.017 0.167-0.015 0.168-0.016 0.169-0.014 0.34-0.026 0.171-0.012 0.172-0.012 0.346-0.02 0.174-9e-3 0.175-9e-3 0.175-7e-3 0.176-7e-3 0.177-6e-3 0.177-5e-3 0.178-5e-3 0.358-6e-3 0.36-4e-3h0.181 0.181zm-0.357 1-0.176 2e-3 -0.35 4e-3 -0.174 4e-3 -0.173 4e-3 -0.173 5e-3 -0.172 6e-3 -0.172 7e-3 -0.171 7e-3 -0.17 8e-3 -0.169 9e-3 -0.169 0.01-0.168 0.01-0.167 0.011-0.167 0.012-0.166 0.013-0.165 0.013-0.328 0.028-0.324 0.032-0.161 0.016-0.16 0.018-0.159 0.018-0.158 0.019-0.157 0.019-0.157 0.02-0.31 0.042-0.153 0.022-0.153 0.023-0.151 0.023-0.151 0.024-0.298 0.05-0.147 0.026-0.146 0.026-0.145 0.027-0.144 0.028-0.143 0.028-0.142 0.028-0.141 0.03-0.139 0.03-0.138 0.03-0.137 0.031-0.136 0.031-0.135 0.032-0.133 0.033-0.132 0.033-0.131 0.034-0.129 0.034-0.128 0.035-0.127 0.035-0.125 0.035-0.124 0.037-0.123 0.036-0.121 0.037-0.12 0.038-0.118 0.038-0.117 0.038-0.116 0.039-0.114 0.039-0.112 0.04-0.111 0.04-0.109 0.04-0.108 0.041-0.107 0.042-0.104 0.041-0.103 0.042-0.102 0.042-0.099 0.043-0.098 0.043-0.097 0.043-0.094 0.044-0.093 0.044-0.092 0.044-0.089 0.044-0.088 0.045-0.085 0.044-0.084 0.045-0.083 0.046-0.08 0.045-0.078 0.045-0.077 0.046-0.075 0.046-0.072 0.045-0.071 0.046-0.069 0.046-0.067 0.046-0.064 0.046-0.063 0.046-0.061 0.045-0.059 0.046-0.057 0.046-0.054 0.045-0.053 0.045-0.05 0.045-0.049 0.044-0.046 0.045-0.044 0.044-0.042 0.043-0.04 0.043-0.038 0.043-0.036 0.042-0.034 0.042-0.032 0.041-0.03 0.04-0.028 0.04-0.026 0.039-0.024 0.038-0.022 0.037-0.02 0.037-0.019 0.036-0.017 0.035-0.015 0.035-0.014 0.033-0.012 0.033-0.011 0.032-0.01 0.032-8e-3 0.031-7e-3 0.03-6e-3 0.03-5e-3 0.03-6e-3 0.058-2e-3 0.058 2e-3 0.058 6e-3 0.058 5e-3 0.03 6e-3 0.03 7e-3 0.03 8e-3 0.031 0.01 0.032 0.011 0.032 0.012 0.033 0.014 0.033 0.015 0.035 0.017 0.035 0.019 0.036 0.02 0.037 0.022 0.037 0.024 0.038 0.026 0.039 0.028 0.04 0.03 0.04 0.032 0.041 0.034 0.042 0.036 0.042 0.038 0.043 0.04 0.043 0.042 0.043 0.044 0.044 0.046 0.045 0.049 0.044 0.05 0.045 0.053 0.045 0.054 0.045 0.057 0.046 0.059 0.046 0.061 0.045 0.063 0.046 0.064 0.046 0.067 0.046 0.069 0.046 0.071 0.046 0.072 0.045 0.075 0.046 0.077 0.046 0.078 0.045 0.08 0.045 0.083 0.046 0.084 0.045 0.085 0.044 0.088 0.045 0.089 0.044 0.092 0.044 0.093 0.044 0.094 0.044 0.097 0.043 0.098 0.043 0.099 0.043 0.102 0.042 0.103 0.042 0.104 0.041 0.107 0.042 0.108 0.041 0.109 0.04 0.111 0.04 0.112 0.04 0.114 0.039 0.116 0.039 0.117 0.038 0.118 0.038 0.12 0.038 0.121 0.037 0.123 0.036 0.124 0.037 0.125 0.035 0.127 0.035 0.128 0.035 0.129 0.034 0.131 0.034 0.132 0.033 0.133 0.033 0.135 0.032 0.136 0.031 0.137 0.031 0.138 0.03 0.139 0.03 0.141 0.03 0.142 0.028 0.143 0.028 0.144 0.028 0.145 0.027 0.146 0.026 0.147 0.026 0.298 0.05 0.151 0.024 0.151 0.023 0.153 0.023 0.153 0.022 0.31 0.042 0.157 0.02 0.157 0.019 0.158 0.019 0.159 0.018 0.16 0.018 0.161 0.016 0.324 0.032 0.328 0.028 0.165 0.013 0.166 0.013 0.167 0.012 0.167 0.011 0.168 0.01 0.169 0.01 0.169 9e-3 0.17 8e-3 0.171 7e-3 0.172 7e-3 0.172 6e-3 0.173 5e-3 0.173 4e-3 0.174 4e-3 0.35 4e-3 0.176 2e-3h0.176 0.176l0.176-2e-3 0.35-4e-3 0.174-4e-3 0.173-4e-3 0.173-5e-3 0.172-6e-3 0.172-7e-3 0.171-7e-3 0.17-8e-3 0.169-9e-3 0.169-0.01 0.168-0.01 0.167-0.011 0.167-0.012 0.166-0.013 0.165-0.013 0.328-0.028 0.324-0.032 0.161-0.016 0.16-0.018 0.159-0.018 0.158-0.019 0.157-0.019 0.157-0.02 0.31-0.042 0.153-0.022 0.153-0.023 0.151-0.023 0.151-0.024 0.298-0.05 0.147-0.026 0.146-0.026 0.145-0.027 0.144-0.028 0.143-0.028 0.142-0.028 0.141-0.03 0.139-0.03 0.138-0.03 0.137-0.031 0.136-0.031 0.135-0.032 0.133-0.033 0.132-0.033 0.131-0.034 0.129-0.034 0.128-0.035 0.127-0.035 0.125-0.035 0.124-0.037 0.123-0.036 0.121-0.037 0.12-0.038 0.118-0.038 0.117-0.038 0.116-0.039 0.114-0.039 0.112-0.04 0.111-0.04 0.109-0.04 0.108-0.041 0.107-0.042 0.104-0.041 0.103-0.042 0.102-0.042 0.099-0.043 0.098-0.043 0.097-0.043 0.094-0.044 0.093-0.044 0.092-0.044 0.089-0.044 0.088-0.045 0.085-0.044 0.084-0.045 0.083-0.046 0.08-0.045 0.078-0.045 0.077-0.046 0.075-0.046 0.072-0.045 0.071-0.046 0.069-0.046 0.067-0.046 0.064-0.046 0.063-0.046 0.061-0.045 0.059-0.046 0.057-0.046 0.054-0.045 0.053-0.045 0.05-0.045 0.049-0.044 0.046-0.045 0.044-0.044 0.042-0.043 0.04-0.043 0.038-0.043 0.036-0.042 0.034-0.042 0.032-0.041 0.03-0.04 0.028-0.04 0.026-0.039 0.024-0.038 0.022-0.037 0.02-0.037 0.019-0.036 0.017-0.035 0.015-0.035 0.014-0.033 0.012-0.033 0.011-0.032 0.01-0.032 8e-3 -0.031 7e-3 -0.03 6e-3 -0.03 5e-3 -0.029 3e-3 -0.03 3e-3 -0.029 2e-3 -0.058-2e-3 -0.058-3e-3 -0.029-3e-3 -0.03-5e-3 -0.029-6e-3 -0.03-7e-3 -0.03-8e-3 -0.031-0.01-0.032-0.011-0.032-0.012-0.033-0.014-0.033-0.015-0.035-0.017-0.035-0.019-0.036-0.02-0.037-0.022-0.037-0.024-0.038-0.026-0.039-0.028-0.04-0.03-0.04-0.032-0.041-0.034-0.042-0.036-0.042-0.038-0.043-0.04-0.043-0.042-0.043-0.044-0.044-0.046-0.045-0.049-0.044-0.05-0.045-0.053-0.045-0.054-0.045-0.057-0.046-0.059-0.046-0.061-0.045-0.063-0.046-0.064-0.046-0.067-0.046-0.069-0.046-0.071-0.046-0.072-0.045-0.075-0.046-0.077-0.046-0.078-0.045-0.08-0.045-0.083-0.046-0.084-0.045-0.085-0.044-0.088-0.045-0.089-0.044-0.092-0.044-0.093-0.044-0.094-0.044-0.097-0.043-0.098-0.043-0.099-0.043-0.102-0.042-0.103-0.042-0.104-0.041-0.107-0.042-0.108-0.041-0.109-0.04-0.111-0.04-0.112-0.04-0.114-0.039-0.116-0.039-0.117-0.038-0.118-0.038-0.12-0.038-0.121-0.037-0.123-0.036-0.124-0.037-0.125-0.035-0.127-0.035-0.128-0.035-0.129-0.034-0.131-0.034-0.132-0.033-0.133-0.033-0.135-0.032-0.136-0.031-0.137-0.031-0.138-0.03-0.139-0.03-0.141-0.03-0.142-0.028-0.143-0.028-0.144-0.028-0.145-0.027-0.146-0.026-0.147-0.026-0.298-0.05-0.151-0.024-0.151-0.023-0.153-0.023-0.153-0.022-0.31-0.042-0.157-0.02-0.157-0.019-0.158-0.019-0.159-0.018-0.16-0.018-0.161-0.016-0.324-0.032-0.328-0.028-0.165-0.013-0.166-0.013-0.167-0.012-0.167-0.011-0.168-0.01-0.169-0.01-0.169-9e-3 -0.17-8e-3 -0.171-7e-3 -0.172-7e-3 -0.172-6e-3 -0.173-5e-3 -0.173-4e-3 -0.174-4e-3 -0.35-4e-3 -0.176-2e-3h-0.176-0.176z" fill="#d9d9d9"/></g></g></g></svg>
