<?xml version="1.0" encoding="UTF-8"?>
<!DOCTYPE svg  PUBLIC '-//W3C//DTD SVG 1.1//EN'  'http://www.w3.org/Graphics/SVG/1.1/DTD/svg11.dtd'>
<svg clip-rule="evenodd" fill-rule="evenodd" stroke-linecap="round" stroke-linejoin="round" stroke-miterlimit="1.5" version="1.1" viewBox="0 0 32 32" xml:space="preserve" xmlns="http://www.w3.org/2000/svg">
<metadata>
<rdf:RDF xmlns:cc="http://web.resource.org/cc/" xmlns:dc="http://purl.org/dc/elements/1.1/" xmlns:rdf="http://www.w3.org/1999/02/22-rdf-syntax-ns#">

     <rdf:Description rdf:about="">
       <dc:title>Mutant Standard emoji 2023.12</dc:title>
     </rdf:Description>

    <cc:work rdf:about="">
        <cc:license rdf:resource="http://creativecommons.org/licenses/by-nc-sa/4.0/"/>
        <cc:attributionName>Caius Nocturne</cc:attributionName>
        <cc:attributionURL>http://mutant.tech/</cc:attributionURL>
    </cc:work>

</rdf:RDF>
</metadata>

    <rect id="donut" width="32" height="32" fill="none"/>
    <clipPath id="_clip1">
        <rect width="32" height="32"/>
    </clipPath>
    <g clip-path="url(#_clip1)">
        <g id="outline">
            <path d="m30 18.5c0 6.347-6.273 11.5-14 11.5s-14-5.153-14-11.5v-4c0-6.347 6.273-11.5 14-11.5s14 5.153 14 11.5v4z" fill="none" stroke="#000" stroke-width="4px"/>
        </g>
        <g id="emoji">
            <path d="m2 14.5h28v4c0 6.347-6.273 11.5-14 11.5s-14-5.153-14-11.5v-4z" fill="#d19747"/>
            <ellipse cx="16" cy="14.5" rx="14" ry="11.5" fill="#daad6d"/>
            <path d="m16 4c7.055 0 12.783 4.705 12.783 10.5s-5.728 10.5-12.783 10.5-12.783-4.705-12.783-10.5 5.728-10.5 12.783-10.5zm0 6c3.024 0 5.478 2.016 5.478 4.5s-2.454 4.5-5.478 4.5-5.478-2.016-5.478-4.5 2.454-4.5 5.478-4.5z" fill="#fff"/>
            <path d="m12.114 15.282c-0.074-0.251-0.114-0.513-0.114-0.782 0-1.813 1.792-3.286 4-3.286s4 1.473 4 3.286c0 0.269-0.04 0.531-0.114 0.782-0.993-0.821-6.779-0.821-7.772 0z" fill="#d19747"/>
            <path d="m12.114 15.282c0.993-0.821 2.368-1.33 3.886-1.33s2.893 0.509 3.886 1.33c-0.427 1.436-2.006 2.504-3.886 2.504s-3.459-1.068-3.886-2.504z"/>
            <g id="sprinkles" fill="none" stroke="#ec79cc" stroke-width="1.5px">
                <path d="m21 10h2"/>
                <path d="m11 10 3-1"/>
                <path d="m18 23 3-1"/>
                <path d="m20 19.5h2"/>
                <path d="m15 21-2 1"/>
                <path d="m8 16-3-1"/>
                <path d="m8 13-1-2"/>
                <path d="m25 15-2-1"/>
                <path d="m25 20v-2"/>
                <path d="m12 7v-1"/>
                <path d="m25 12 1-1"/>
                <path d="m21 7-1-1"/>
                <path d="m8 19 1 2"/>
                <path d="m11 20h1"/>
                <path d="m17 7-2-1"/>
                <path d="m9 9-1-1"/>
            </g>
        </g>
    </g>
</svg>
