<?xml version="1.0" encoding="UTF-8"?>
<!DOCTYPE svg  PUBLIC '-//W3C//DTD SVG 1.1//EN'  'http://www.w3.org/Graphics/SVG/1.1/DTD/svg11.dtd'>
<svg clip-rule="evenodd" fill-rule="evenodd" stroke-linecap="round" stroke-linejoin="round" stroke-miterlimit="1.5" version="1.1" viewBox="0 0 32 32" xml:space="preserve" xmlns="http://www.w3.org/2000/svg">
<metadata>
<rdf:RDF xmlns:cc="http://web.resource.org/cc/" xmlns:dc="http://purl.org/dc/elements/1.1/" xmlns:rdf="http://www.w3.org/1999/02/22-rdf-syntax-ns#">

     <rdf:Description rdf:about="">
       <dc:title>Mutant Standard emoji 2023.12</dc:title>
     </rdf:Description>

    <cc:work rdf:about="">
        <cc:license rdf:resource="http://creativecommons.org/licenses/by-nc-sa/4.0/"/>
        <cc:attributionName>Caius Nocturne</cc:attributionName>
        <cc:attributionURL>http://mutant.tech/</cc:attributionURL>
    </cc:work>

</rdf:RDF>
</metadata>

    <rect id="ice_cream" width="32" height="32" fill="none"/>
    <clipPath id="_clip1">
        <rect width="32" height="32"/>
    </clipPath>
    <g clip-path="url(#_clip1)">
        <g id="outline">
            <path d="m15 24.968c-6.712-0.432-12-5.178-12-10.968 0-0.89 0.947-1.713 2.549-2.378 1.444-5.588 5.577-9.622 10.451-9.622s9.007 4.034 10.451 9.622c1.602 0.665 2.549 1.488 2.549 2.378 0 5.79-5.288 10.536-12 10.968v1.365c2.836 0.147 5 0.907 5 1.821 0 1.019-2.689 1.846-6 1.846s-6-0.827-6-1.846c0-0.914 2.164-1.674 5-1.821v-1.365z" fill="none" stroke="#000" stroke-width="4px"/>
        </g>
        <g id="emoji">
            <ellipse cx="16" cy="28.154" rx="6" ry="1.846" fill="#d6d6d6"/>
            <path d="m17 28c0 0.17-0.448 0.308-1 0.308s-1-0.138-1-0.308v-7h2v7z" fill="#bfbfbf"/>
            
                <path d="m29 14c0 2.289-0.826 4.414-2.24 6.175-1.43 1.308-5.709 3.258-10.76 3.258s-9.33-1.95-10.76-3.258c-1.414-1.761-2.24-3.886-2.24-6.175h13 13z" fill="#e1e1e1"/>
                <path d="m5.24 20.175c1.43 1.308 5.709 2.258 10.76 2.258s9.33-0.95 10.76-2.258c-2.339 2.912-6.285 4.825-10.76 4.825s-8.421-1.913-10.76-4.825z" fill="#bfbfbf"/>
            
            <ellipse cx="16" cy="14" rx="13" ry="4" fill="#a7a7a7"/>
            <path d="m16.335 10.001 0.334 4e-3 0.331 7e-3 0.328 9e-3 0.327 0.011 0.324 0.014 0.321 0.017 0.319 0.018 0.315 0.022 0.313 0.023 0.31 0.026 0.307 0.028 0.304 0.03 0.3 0.033 0.297 0.035 0.293 0.037 0.29 0.039 0.286 0.041 0.282 0.043 0.278 0.045 0.275 0.047 0.27 0.049 0.266 0.052 0.261 0.053 0.257 0.054 0.253 0.057 0.248 0.059 0.243 0.06 0.239 0.062 0.233 0.064 0.115 0.032 0.226 0.066 0.111 0.034 0.109 0.034 0.109 0.035 0.107 0.035 0.105 0.035 0.104 0.036 0.103 0.036 0.102 0.036 0.1 0.037 0.099 0.037 0.097 0.038 0.096 0.038 0.094 0.038 0.093 0.039 0.091 0.039 0.09 0.039 0.089 0.04 0.086 0.04 0.086 0.041 0.084 0.04 0.082 0.042 0.081 0.041 0.079 0.042 0.077 0.042 0.076 0.042 0.074 0.043 0.073 0.043 0.071 0.043 0.069 0.043 0.068 0.044 0.066 0.044 0.064 0.045 0.063 0.045 0.061 0.045 0.059 0.045 0.057 0.045 0.056 0.046 0.053 0.046 0.052 0.047 0.051 0.046 0.048 0.047 0.047 0.047 0.044 0.047 0.043 0.048 0.041 0.048 0.04 0.048 0.037 0.048 0.035 0.049 0.034 0.048 0.031 0.049 0.03 0.049 0.027 0.05 0.026 0.049 0.024 0.05 0.021 0.05 0.02 0.05 0.018 0.05 0.015 0.051 0.014 0.05 0.012 0.051 9e-3 0.051 7e-3 0.051 6e-3 0.052 3e-3 0.051 1e-3 0.052-1e-3 0.052-3e-3 0.051-6e-3 0.052-7e-3 0.051-9e-3 0.051-0.012 0.051-0.014 0.05-0.015 0.051-0.018 0.05-0.02 0.05-0.021 0.05-0.024 0.05-0.026 0.049-0.027 0.05-0.03 0.049-0.031 0.049-0.034 0.048-0.035 0.049-0.037 0.048-0.04 0.048-0.041 0.048-0.043 0.048-0.044 0.047-0.047 0.047-0.048 0.047-0.051 0.046-0.052 0.047-0.053 0.046-0.056 0.046-0.057 0.045-0.059 0.045-0.061 0.045-0.063 0.045-0.064 0.045-0.066 0.044-0.068 0.044-0.069 0.043-0.071 0.043-0.073 0.043-0.074 0.043-0.076 0.042-0.077 0.042-0.079 0.042-0.081 0.041-0.082 0.042-0.084 0.04-0.086 0.041-0.086 0.04-0.089 0.04-0.09 0.039-0.091 0.039-0.093 0.039-0.094 0.038-0.096 0.038-0.097 0.038-0.099 0.037-0.1 0.037-0.102 0.036-0.103 0.036-0.104 0.036-0.105 0.035-0.107 0.035-0.109 0.035-0.109 0.034-0.111 0.034-0.226 0.066-0.115 0.032-0.233 0.064-0.239 0.062-0.243 0.06-0.248 0.059-0.253 0.057-0.257 0.054-0.261 0.053-0.266 0.052-0.27 0.049-0.275 0.047-0.278 0.045-0.282 0.043-0.286 0.041-0.29 0.039-0.293 0.037-0.297 0.035-0.3 0.033-0.304 0.03-0.307 0.028-0.31 0.026-0.313 0.023-0.315 0.022-0.319 0.018-0.321 0.017-0.324 0.014-0.327 0.011-0.328 9e-3 -0.331 7e-3 -0.334 4e-3 -0.335 1e-3 -0.335-1e-3 -0.334-4e-3 -0.331-7e-3 -0.328-9e-3 -0.327-0.011-0.324-0.014-0.321-0.017-0.319-0.018-0.315-0.022-0.313-0.023-0.31-0.026-0.307-0.028-0.304-0.03-0.3-0.033-0.297-0.035-0.293-0.037-0.29-0.039-0.286-0.041-0.282-0.043-0.278-0.045-0.275-0.047-0.27-0.049-0.266-0.052-0.261-0.053-0.257-0.054-0.253-0.057-0.248-0.059-0.243-0.06-0.239-0.062-0.233-0.064-0.115-0.032-0.226-0.066-0.111-0.034-0.109-0.034-0.109-0.035-0.107-0.035-0.105-0.035-0.104-0.036-0.103-0.036-0.102-0.036-0.1-0.037-0.099-0.037-0.097-0.038-0.096-0.038-0.094-0.038-0.093-0.039-0.091-0.039-0.09-0.039-0.089-0.04-0.086-0.04-0.086-0.041-0.084-0.04-0.082-0.042-0.081-0.041-0.079-0.042-0.077-0.042-0.076-0.042-0.074-0.043-0.073-0.043-0.071-0.043-0.069-0.043-0.068-0.044-0.066-0.044-0.064-0.045-0.063-0.045-0.061-0.045-0.059-0.045-0.057-0.045-0.056-0.046-0.053-0.046-0.052-0.047-0.051-0.046-0.048-0.047-0.047-0.047-0.044-0.047-0.043-0.048-0.041-0.048-0.04-0.048-0.037-0.048-0.035-0.049-0.034-0.048-0.031-0.049-0.03-0.049-0.027-0.05-0.026-0.049-0.024-0.05-0.021-0.05-0.02-0.05-0.018-0.05-0.015-0.051-0.014-0.05-0.012-0.051-9e-3 -0.051-7e-3 -0.051-6e-3 -0.052-3e-3 -0.051-1e-3 -0.052 1e-3 -0.052 3e-3 -0.051 6e-3 -0.052 7e-3 -0.051 9e-3 -0.051 0.012-0.051 0.014-0.05 0.015-0.051 0.018-0.05 0.02-0.05 0.021-0.05 0.024-0.05 0.026-0.049 0.027-0.05 0.03-0.049 0.031-0.049 0.034-0.048 0.035-0.049 0.037-0.048 0.04-0.048 0.041-0.048 0.043-0.048 0.044-0.047 0.047-0.047 0.048-0.047 0.051-0.046 0.052-0.047 0.053-0.046 0.056-0.046 0.057-0.045 0.059-0.045 0.061-0.045 0.063-0.045 0.064-0.045 0.066-0.044 0.068-0.044 0.069-0.043 0.071-0.043 0.073-0.043 0.074-0.043 0.076-0.042 0.077-0.042 0.079-0.042 0.081-0.041 0.082-0.042 0.084-0.04 0.086-0.041 0.086-0.04 0.089-0.04 0.09-0.039 0.091-0.039 0.093-0.039 0.094-0.038 0.096-0.038 0.097-0.038 0.099-0.037 0.1-0.037 0.102-0.036 0.103-0.036 0.104-0.036 0.105-0.035 0.107-0.035 0.109-0.035 0.109-0.034 0.111-0.034 0.226-0.066 0.115-0.032 0.233-0.064 0.239-0.062 0.243-0.06 0.248-0.059 0.253-0.057 0.257-0.054 0.261-0.053 0.266-0.052 0.27-0.049 0.275-0.047 0.278-0.045 0.282-0.043 0.286-0.041 0.29-0.039 0.293-0.037 0.297-0.035 0.3-0.033 0.304-0.03 0.307-0.028 0.31-0.026 0.313-0.023 0.315-0.022 0.319-0.018 0.321-0.017 0.324-0.014 0.327-0.011 0.328-9e-3 0.331-7e-3 0.334-4e-3 0.335-1e-3 0.335 1e-3zm-0.663 1-0.325 4e-3 -0.323 6e-3 -0.321 9e-3 -0.319 0.011-0.316 0.014-0.313 0.016-0.311 0.018-0.307 0.021-0.305 0.023-0.302 0.025-0.299 0.027-0.295 0.03-0.292 0.032-0.288 0.033-0.285 0.036-0.281 0.038-0.277 0.04-0.273 0.042-0.269 0.043-0.265 0.046-0.261 0.047-0.256 0.05-0.252 0.051-0.247 0.052-0.242 0.055-0.237 0.056-0.232 0.057-0.227 0.059-0.223 0.061-0.107 0.03-0.108 0.032-0.106 0.031-0.208 0.064-0.101 0.032-0.101 0.033-0.099 0.033-0.097 0.034-0.096 0.033-0.094 0.034-0.093 0.034-0.091 0.035-0.089 0.034-0.088 0.035-0.086 0.035-0.085 0.035-0.083 0.036-0.082 0.036-0.079 0.035-0.078 0.036-0.076 0.036-0.075 0.036-0.072 0.037-0.071 0.036-0.069 0.036-0.067 0.037-0.065 0.036-0.064 0.037-0.061 0.036-0.06 0.036-0.057 0.036-0.056 0.036-0.053 0.036-0.052 0.036-0.05 0.035-0.047 0.036-0.046 0.034-0.043 0.035-0.041 0.034-0.04 0.034-0.037 0.033-0.035 0.032-0.033 0.032-0.031 0.032-0.029 0.03-0.027 0.03-0.024 0.029-0.023 0.028-0.021 0.027-0.019 0.026-0.017 0.024-0.015 0.024-0.014 0.023-0.012 0.021-0.01 0.02-0.01 0.019-7e-3 0.018-7e-3 0.017-5e-3 0.015-5e-3 0.014-3e-3 0.014-3e-3 0.012-2e-3 0.012-2e-3 0.011-2e-3 0.022v0.01l1e-3 0.021 1e-3 0.011 2e-3 0.011 2e-3 0.012 3e-3 0.012 3e-3 0.014 5e-3 0.014 5e-3 0.015 7e-3 0.017 7e-3 0.018 0.01 0.019 0.01 0.02 0.012 0.021 0.014 0.023 0.015 0.024 0.017 0.024 0.019 0.026 0.021 0.027 0.023 0.028 0.024 0.029 0.027 0.03 0.029 0.03 0.031 0.032 0.033 0.032 0.035 0.032 0.037 0.033 0.04 0.034 0.041 0.034 0.043 0.034 0.046 0.035 0.047 0.036 0.05 0.035 0.052 0.036 0.053 0.035 0.056 0.037 0.057 0.036 0.06 0.036 0.061 0.036 0.064 0.037 0.065 0.036 0.067 0.037 0.069 0.036 0.071 0.036 0.072 0.037 0.075 0.036 0.076 0.036 0.078 0.036 0.079 0.035 0.082 0.036 0.083 0.036 0.085 0.035 0.086 0.035 0.088 0.035 0.089 0.034 0.091 0.035 0.093 0.034 0.094 0.034 0.096 0.033 0.097 0.034 0.099 0.033 0.101 0.033 0.101 0.032 0.208 0.064 0.106 0.031 0.108 0.032 0.107 0.03 0.223 0.061 0.227 0.059 0.232 0.057 0.237 0.056 0.242 0.055 0.247 0.052 0.252 0.051 0.256 0.05 0.261 0.047 0.265 0.046 0.269 0.043 0.273 0.042 0.277 0.04 0.281 0.038 0.285 0.036 0.288 0.033 0.292 0.032 0.295 0.03 0.299 0.027 0.302 0.025 0.305 0.023 0.307 0.021 0.311 0.018 0.313 0.016 0.316 0.014 0.319 0.011 0.321 9e-3 0.323 6e-3 0.325 4e-3 0.328 1e-3 0.328-1e-3 0.325-4e-3 0.323-6e-3 0.321-9e-3 0.319-0.011 0.316-0.014 0.313-0.016 0.311-0.018 0.307-0.021 0.305-0.023 0.302-0.025 0.299-0.027 0.295-0.03 0.292-0.032 0.288-0.033 0.285-0.036 0.281-0.038 0.277-0.04 0.273-0.042 0.269-0.043 0.265-0.046 0.261-0.047 0.256-0.05 0.252-0.051 0.247-0.052 0.242-0.055 0.237-0.056 0.232-0.057 0.227-0.059 0.223-0.061 0.107-0.03 0.108-0.032 0.106-0.031 0.208-0.064 0.101-0.032 0.101-0.033 0.099-0.033 0.097-0.034 0.096-0.033 0.094-0.034 0.093-0.034 0.091-0.035 0.089-0.034 0.088-0.035 0.087-0.035 0.084-0.035 0.083-0.036 0.082-0.036 0.079-0.035 0.078-0.036 0.076-0.036 0.075-0.036 0.072-0.037 0.071-0.036 0.069-0.036 0.067-0.037 0.065-0.036 0.064-0.037 0.061-0.036 0.06-0.036 0.057-0.036 0.056-0.037 0.053-0.035 0.052-0.036 0.05-0.035 0.047-0.036 0.046-0.035 0.043-0.034 0.041-0.034 0.04-0.034 0.037-0.033 0.035-0.032 0.033-0.032 0.031-0.032 0.029-0.03 0.027-0.03 0.024-0.029 0.023-0.028 0.021-0.027 0.019-0.026 0.017-0.024 0.015-0.024 0.014-0.023 0.012-0.021 0.01-0.02 0.01-0.019 7e-3 -0.018 7e-3 -0.017 5e-3 -0.015 5e-3 -0.014 3e-3 -0.014 3e-3 -0.012 2e-3 -0.012 2e-3 -0.011 1e-3 -0.011 1e-3 -0.01v-0.011-0.011l-1e-3 -0.01-1e-3 -0.011-2e-3 -0.011-2e-3 -0.012-3e-3 -0.012-3e-3 -0.014-5e-3 -0.014-5e-3 -0.015-7e-3 -0.017-7e-3 -0.018-0.01-0.019-0.01-0.02-0.012-0.021-0.014-0.023-0.015-0.024-0.017-0.024-0.019-0.026-0.021-0.027-0.023-0.028-0.024-0.029-0.027-0.03-0.029-0.03-0.031-0.032-0.033-0.032-0.035-0.032-0.037-0.033-0.04-0.034-0.041-0.034-0.043-0.034-0.046-0.035-0.047-0.036-0.05-0.035-0.052-0.036-0.053-0.036-0.056-0.036-0.057-0.036-0.06-0.036-0.061-0.036-0.064-0.037-0.065-0.036-0.067-0.037-0.069-0.036-0.071-0.036-0.072-0.037-0.075-0.036-0.076-0.036-0.078-0.036-0.079-0.035-0.082-0.036-0.083-0.036-0.084-0.035-0.087-0.035-0.088-0.035-0.089-0.034-0.091-0.035-0.093-0.034-0.094-0.034-0.096-0.033-0.098-0.034-0.098-0.033-0.101-0.033-0.101-0.032-0.208-0.064-0.106-0.031-0.108-0.032-0.107-0.03-0.223-0.061-0.227-0.059-0.232-0.057-0.237-0.056-0.242-0.055-0.247-0.052-0.252-0.051-0.256-0.05-0.261-0.047-0.265-0.046-0.269-0.043-0.273-0.042-0.277-0.04-0.281-0.038-0.285-0.036-0.288-0.033-0.292-0.032-0.295-0.03-0.299-0.027-0.302-0.025-0.305-0.023-0.307-0.021-0.311-0.018-0.313-0.016-0.316-0.014-0.319-0.011-0.321-9e-3 -0.323-6e-3 -0.325-4e-3 -0.328-1e-3 -0.328 1e-3z" fill="#fff"/>
            
                <path d="m23.296 5.523c1.461 1.648 2.574 3.784 3.183 6.206-1.067 2.336-6.211 5.104-10.479 5.104s-9.525-2.655-10.479-5.104c0.501-1.991 1.342-3.789 2.437-5.282 0.542-0.246 3.042-1.447 3.042-1.447h10s1.787 0.373 2.296 0.523z" fill="#f6e8cc"/>
                <path d="m26.479 11.729c0.338 1.347 0.521 2.782 0.521 4.271l-8.25 1.5h-5.5l-8.25-1.5c0-1.489 0.183-2.924 0.521-4.271 2.414 1.887 6.211 3.104 10.479 3.104s8.065-1.217 10.479-3.104z" fill="#dec38c"/>
                <path d="m7.958 6.447c2.008-2.736 4.868-4.447 8.042-4.447 2.799 0 5.355 1.331 7.296 3.523-0.36 0.307-0.819 0.477-1.296 0.477h-1v1c0 0.53-0.211 1.039-0.586 1.414s-0.884 0.586-1.414 0.586h-0.5c-0.398 0-0.779-0.158-1.061-0.439-0.281-0.282-0.439-0.663-0.439-1.061v-0.5c0-0.552-0.448-1-1-1-0.265 0-0.52 0.105-0.707 0.293-0.188 0.187-0.293 0.442-0.293 0.707v3.502c0 0.397-0.158 0.778-0.439 1.059s-0.662 0.439-1.059 0.439h-2e-3c-0.398 0-0.779-0.158-1.061-0.439-0.281-0.282-0.439-0.663-0.439-1.061v-2.5s-0.987 0.015-2 0c-1.652-0.025-1.999-0.928-2.042-1.553z" fill="#4e4229"/>
            
            <rect x="2" y="14" width="28" height="9.624" fill="none"/>
            <clipPath id="_clip2">
                <rect x="2" y="14" width="28" height="9.624"/>
            </clipPath>
            <g clip-path="url(#_clip2)">
                <path d="m16.335 10.001 0.334 4e-3 0.331 7e-3 0.328 9e-3 0.327 0.011 0.324 0.014 0.321 0.017 0.319 0.018 0.315 0.022 0.313 0.023 0.31 0.026 0.307 0.028 0.304 0.03 0.3 0.033 0.297 0.035 0.293 0.037 0.29 0.039 0.286 0.041 0.282 0.043 0.278 0.045 0.275 0.047 0.27 0.049 0.266 0.052 0.261 0.053 0.257 0.054 0.253 0.057 0.248 0.059 0.243 0.06 0.239 0.062 0.233 0.064 0.115 0.032 0.226 0.066 0.111 0.034 0.109 0.034 0.109 0.035 0.107 0.035 0.105 0.035 0.104 0.036 0.103 0.036 0.102 0.036 0.1 0.037 0.099 0.037 0.097 0.038 0.096 0.038 0.094 0.038 0.093 0.039 0.091 0.039 0.09 0.039 0.089 0.04 0.086 0.04 0.086 0.041 0.084 0.04 0.082 0.042 0.081 0.041 0.079 0.042 0.077 0.042 0.076 0.042 0.074 0.043 0.073 0.043 0.071 0.043 0.069 0.043 0.068 0.044 0.066 0.044 0.064 0.045 0.063 0.045 0.061 0.045 0.059 0.045 0.057 0.045 0.056 0.046 0.053 0.046 0.052 0.047 0.051 0.046 0.048 0.047 0.047 0.047 0.044 0.047 0.043 0.048 0.041 0.048 0.04 0.048 0.037 0.048 0.035 0.049 0.034 0.048 0.031 0.049 0.03 0.049 0.027 0.05 0.026 0.049 0.024 0.05 0.021 0.05 0.02 0.05 0.018 0.05 0.015 0.051 0.014 0.05 0.012 0.051 9e-3 0.051 7e-3 0.051 6e-3 0.052 3e-3 0.051 1e-3 0.052-1e-3 0.052-3e-3 0.051-6e-3 0.052-7e-3 0.051-9e-3 0.051-0.012 0.051-0.014 0.05-0.015 0.051-0.018 0.05-0.02 0.05-0.021 0.05-0.024 0.05-0.026 0.049-0.027 0.05-0.03 0.049-0.031 0.049-0.034 0.048-0.035 0.049-0.037 0.048-0.04 0.048-0.041 0.048-0.043 0.048-0.044 0.047-0.047 0.047-0.048 0.047-0.051 0.046-0.052 0.047-0.053 0.046-0.056 0.046-0.057 0.045-0.059 0.045-0.061 0.045-0.063 0.045-0.064 0.045-0.066 0.044-0.068 0.044-0.069 0.043-0.071 0.043-0.073 0.043-0.074 0.043-0.076 0.042-0.077 0.042-0.079 0.042-0.081 0.041-0.082 0.042-0.084 0.04-0.086 0.041-0.086 0.04-0.089 0.04-0.09 0.039-0.091 0.039-0.093 0.039-0.094 0.038-0.096 0.038-0.097 0.038-0.099 0.037-0.1 0.037-0.102 0.036-0.103 0.036-0.104 0.036-0.105 0.035-0.107 0.035-0.109 0.035-0.109 0.034-0.111 0.034-0.226 0.066-0.115 0.032-0.233 0.064-0.239 0.062-0.243 0.06-0.248 0.059-0.253 0.057-0.257 0.054-0.261 0.053-0.266 0.052-0.27 0.049-0.275 0.047-0.278 0.045-0.282 0.043-0.286 0.041-0.29 0.039-0.293 0.037-0.297 0.035-0.3 0.033-0.304 0.03-0.307 0.028-0.31 0.026-0.313 0.023-0.315 0.022-0.319 0.018-0.321 0.017-0.324 0.014-0.327 0.011-0.328 9e-3 -0.331 7e-3 -0.334 4e-3 -0.335 1e-3 -0.335-1e-3 -0.334-4e-3 -0.331-7e-3 -0.328-9e-3 -0.327-0.011-0.324-0.014-0.321-0.017-0.319-0.018-0.315-0.022-0.313-0.023-0.31-0.026-0.307-0.028-0.304-0.03-0.3-0.033-0.297-0.035-0.293-0.037-0.29-0.039-0.286-0.041-0.282-0.043-0.278-0.045-0.275-0.047-0.27-0.049-0.266-0.052-0.261-0.053-0.257-0.054-0.253-0.057-0.248-0.059-0.243-0.06-0.239-0.062-0.233-0.064-0.115-0.032-0.226-0.066-0.111-0.034-0.109-0.034-0.109-0.035-0.107-0.035-0.105-0.035-0.104-0.036-0.103-0.036-0.102-0.036-0.1-0.037-0.099-0.037-0.097-0.038-0.096-0.038-0.094-0.038-0.093-0.039-0.091-0.039-0.09-0.039-0.089-0.04-0.086-0.04-0.086-0.041-0.084-0.04-0.082-0.042-0.081-0.041-0.079-0.042-0.077-0.042-0.076-0.042-0.074-0.043-0.073-0.043-0.071-0.043-0.069-0.043-0.068-0.044-0.066-0.044-0.064-0.045-0.063-0.045-0.061-0.045-0.059-0.045-0.057-0.045-0.056-0.046-0.053-0.046-0.052-0.047-0.051-0.046-0.048-0.047-0.047-0.047-0.044-0.047-0.043-0.048-0.041-0.048-0.04-0.048-0.037-0.048-0.035-0.049-0.034-0.048-0.031-0.049-0.03-0.049-0.027-0.05-0.026-0.049-0.024-0.05-0.021-0.05-0.02-0.05-0.018-0.05-0.015-0.051-0.014-0.05-0.012-0.051-9e-3 -0.051-7e-3 -0.051-6e-3 -0.052-3e-3 -0.051-1e-3 -0.052 1e-3 -0.052 3e-3 -0.051 6e-3 -0.052 7e-3 -0.051 9e-3 -0.051 0.012-0.051 0.014-0.05 0.015-0.051 0.018-0.05 0.02-0.05 0.021-0.05 0.024-0.05 0.026-0.049 0.027-0.05 0.03-0.049 0.031-0.049 0.034-0.048 0.035-0.049 0.037-0.048 0.04-0.048 0.041-0.048 0.043-0.048 0.044-0.047 0.047-0.047 0.048-0.047 0.051-0.046 0.052-0.047 0.053-0.046 0.056-0.046 0.057-0.045 0.059-0.045 0.061-0.045 0.063-0.045 0.064-0.045 0.066-0.044 0.068-0.044 0.069-0.043 0.071-0.043 0.073-0.043 0.074-0.043 0.076-0.042 0.077-0.042 0.079-0.042 0.081-0.041 0.082-0.042 0.084-0.04 0.086-0.041 0.086-0.04 0.089-0.04 0.09-0.039 0.091-0.039 0.093-0.039 0.094-0.038 0.096-0.038 0.097-0.038 0.099-0.037 0.1-0.037 0.102-0.036 0.103-0.036 0.104-0.036 0.105-0.035 0.107-0.035 0.109-0.035 0.109-0.034 0.111-0.034 0.226-0.066 0.115-0.032 0.233-0.064 0.239-0.062 0.243-0.06 0.248-0.059 0.253-0.057 0.257-0.054 0.261-0.053 0.266-0.052 0.27-0.049 0.275-0.047 0.278-0.045 0.282-0.043 0.286-0.041 0.29-0.039 0.293-0.037 0.297-0.035 0.3-0.033 0.304-0.03 0.307-0.028 0.31-0.026 0.313-0.023 0.315-0.022 0.319-0.018 0.321-0.017 0.324-0.014 0.327-0.011 0.328-9e-3 0.331-7e-3 0.334-4e-3 0.335-1e-3 0.335 1e-3zm-0.663 1-0.325 4e-3 -0.323 6e-3 -0.321 9e-3 -0.319 0.011-0.316 0.014-0.313 0.016-0.311 0.018-0.307 0.021-0.305 0.023-0.302 0.025-0.299 0.027-0.295 0.03-0.292 0.032-0.288 0.033-0.285 0.036-0.281 0.038-0.277 0.04-0.273 0.042-0.269 0.043-0.265 0.046-0.261 0.047-0.256 0.05-0.252 0.051-0.247 0.052-0.242 0.055-0.237 0.056-0.232 0.057-0.227 0.059-0.223 0.061-0.107 0.03-0.108 0.032-0.106 0.031-0.208 0.064-0.101 0.032-0.101 0.033-0.099 0.033-0.097 0.034-0.096 0.033-0.094 0.034-0.093 0.034-0.091 0.035-0.089 0.034-0.088 0.035-0.086 0.035-0.085 0.035-0.083 0.036-0.082 0.036-0.079 0.035-0.078 0.036-0.076 0.036-0.075 0.036-0.072 0.037-0.071 0.036-0.069 0.036-0.067 0.037-0.065 0.036-0.064 0.037-0.061 0.036-0.06 0.036-0.057 0.036-0.056 0.036-0.053 0.036-0.052 0.036-0.05 0.035-0.047 0.036-0.046 0.034-0.043 0.035-0.041 0.034-0.04 0.034-0.037 0.033-0.035 0.032-0.033 0.032-0.031 0.032-0.029 0.03-0.027 0.03-0.024 0.029-0.023 0.028-0.021 0.027-0.019 0.026-0.017 0.024-0.015 0.024-0.014 0.023-0.012 0.021-0.01 0.02-0.01 0.019-7e-3 0.018-7e-3 0.017-5e-3 0.015-5e-3 0.014-3e-3 0.014-3e-3 0.012-2e-3 0.012-2e-3 0.011-2e-3 0.022v0.01l1e-3 0.021 1e-3 0.011 2e-3 0.011 2e-3 0.012 3e-3 0.012 3e-3 0.014 5e-3 0.014 5e-3 0.015 7e-3 0.017 7e-3 0.018 0.01 0.019 0.01 0.02 0.012 0.021 0.014 0.023 0.015 0.024 0.017 0.024 0.019 0.026 0.021 0.027 0.023 0.028 0.024 0.029 0.027 0.03 0.029 0.03 0.031 0.032 0.033 0.032 0.035 0.032 0.037 0.033 0.04 0.034 0.041 0.034 0.043 0.034 0.046 0.035 0.047 0.036 0.05 0.035 0.052 0.036 0.053 0.035 0.056 0.037 0.057 0.036 0.06 0.036 0.061 0.036 0.064 0.037 0.065 0.036 0.067 0.037 0.069 0.036 0.071 0.036 0.072 0.037 0.075 0.036 0.076 0.036 0.078 0.036 0.079 0.035 0.082 0.036 0.083 0.036 0.085 0.035 0.086 0.035 0.088 0.035 0.089 0.034 0.091 0.035 0.093 0.034 0.094 0.034 0.096 0.033 0.097 0.034 0.099 0.033 0.101 0.033 0.101 0.032 0.208 0.064 0.106 0.031 0.108 0.032 0.107 0.03 0.223 0.061 0.227 0.059 0.232 0.057 0.237 0.056 0.242 0.055 0.247 0.052 0.252 0.051 0.256 0.05 0.261 0.047 0.265 0.046 0.269 0.043 0.273 0.042 0.277 0.04 0.281 0.038 0.285 0.036 0.288 0.033 0.292 0.032 0.295 0.03 0.299 0.027 0.302 0.025 0.305 0.023 0.307 0.021 0.311 0.018 0.313 0.016 0.316 0.014 0.319 0.011 0.321 9e-3 0.323 6e-3 0.325 4e-3 0.328 1e-3 0.328-1e-3 0.325-4e-3 0.323-6e-3 0.321-9e-3 0.319-0.011 0.316-0.014 0.313-0.016 0.311-0.018 0.307-0.021 0.305-0.023 0.302-0.025 0.299-0.027 0.295-0.03 0.292-0.032 0.288-0.033 0.285-0.036 0.281-0.038 0.277-0.04 0.273-0.042 0.269-0.043 0.265-0.046 0.261-0.047 0.256-0.05 0.252-0.051 0.247-0.052 0.242-0.055 0.237-0.056 0.232-0.057 0.227-0.059 0.223-0.061 0.107-0.03 0.108-0.032 0.106-0.031 0.208-0.064 0.101-0.032 0.101-0.033 0.099-0.033 0.097-0.034 0.096-0.033 0.094-0.034 0.093-0.034 0.091-0.035 0.089-0.034 0.088-0.035 0.087-0.035 0.084-0.035 0.083-0.036 0.082-0.036 0.079-0.035 0.078-0.036 0.076-0.036 0.075-0.036 0.072-0.037 0.071-0.036 0.069-0.036 0.067-0.037 0.065-0.036 0.064-0.037 0.061-0.036 0.06-0.036 0.057-0.036 0.056-0.037 0.053-0.035 0.052-0.036 0.05-0.035 0.047-0.036 0.046-0.035 0.043-0.034 0.041-0.034 0.04-0.034 0.037-0.033 0.035-0.032 0.033-0.032 0.031-0.032 0.029-0.03 0.027-0.03 0.024-0.029 0.023-0.028 0.021-0.027 0.019-0.026 0.017-0.024 0.015-0.024 0.014-0.023 0.012-0.021 0.01-0.02 0.01-0.019 7e-3 -0.018 7e-3 -0.017 5e-3 -0.015 5e-3 -0.014 3e-3 -0.014 3e-3 -0.012 2e-3 -0.012 2e-3 -0.011 1e-3 -0.011 1e-3 -0.01v-0.011-0.011l-1e-3 -0.01-1e-3 -0.011-2e-3 -0.011-2e-3 -0.012-3e-3 -0.012-3e-3 -0.014-5e-3 -0.014-5e-3 -0.015-7e-3 -0.017-7e-3 -0.018-0.01-0.019-0.01-0.02-0.012-0.021-0.014-0.023-0.015-0.024-0.017-0.024-0.019-0.026-0.021-0.027-0.023-0.028-0.024-0.029-0.027-0.03-0.029-0.03-0.031-0.032-0.033-0.032-0.035-0.032-0.037-0.033-0.04-0.034-0.041-0.034-0.043-0.034-0.046-0.035-0.047-0.036-0.05-0.035-0.052-0.036-0.053-0.036-0.056-0.036-0.057-0.036-0.06-0.036-0.061-0.036-0.064-0.037-0.065-0.036-0.067-0.037-0.069-0.036-0.071-0.036-0.072-0.037-0.075-0.036-0.076-0.036-0.078-0.036-0.079-0.035-0.082-0.036-0.083-0.036-0.084-0.035-0.087-0.035-0.088-0.035-0.089-0.034-0.091-0.035-0.093-0.034-0.094-0.034-0.096-0.033-0.098-0.034-0.098-0.033-0.101-0.033-0.101-0.032-0.208-0.064-0.106-0.031-0.108-0.032-0.107-0.03-0.223-0.061-0.227-0.059-0.232-0.057-0.237-0.056-0.242-0.055-0.247-0.052-0.252-0.051-0.256-0.05-0.261-0.047-0.265-0.046-0.269-0.043-0.273-0.042-0.277-0.04-0.281-0.038-0.285-0.036-0.288-0.033-0.292-0.032-0.295-0.03-0.299-0.027-0.302-0.025-0.305-0.023-0.307-0.021-0.311-0.018-0.313-0.016-0.316-0.014-0.319-0.011-0.321-9e-3 -0.323-6e-3 -0.325-4e-3 -0.328-1e-3 -0.328 1e-3z" fill="#fff"/>
            </g>
        </g>
    </g>
</svg>
