<?xml version="1.0" encoding="UTF-8"?>
<svg clip-rule="evenodd" fill-rule="evenodd" stroke-linecap="round" stroke-miterlimit="3" viewBox="0 0 32 32" xmlns="http://www.w3.org/2000/svg">
 <clipPath id="a">
  <path d="m0 0h32v32h-32z" clip-rule="evenodd"/>
 </clipPath>
 <path d="m0 0h32v32h-32z" fill="none"/>
 <g clip-path="url(#a)">
  <g fill="none" stroke="#000" stroke-width="4">
   <path d="m10 29c0 .265.105.52.293.707.187.188.442.293.707.293s.52-.105.707-.293c.188-.187.293-.442.293-.707v-18h-2z"/>
   <path d="m7 9c0 1.061 0.421 2.078 1.172 2.828 0.75 0.751 1.767 1.172 2.828 1.172s2.078-0.421 2.828-1.172c0.751-0.75 1.172-1.767 1.172-2.828v-7h-2v6h-1v-6h-2v6h-1v-6h-2z"/>
   <path d="m21 29c0 .265.105.52.293.707.187.188.442.293.707.293s.52-.105.707-.293c.188-.187.293-.442.293-.707v-18h-2z"/>
   <path d="m17 12c0 3.314 2.686 6 6 6v-16h-2e-3c-3.313 0-5.998 2.685-5.998 5.998z"/>
  </g>
  <path d="m10 29c0 .265.105.52.293.707.187.188.442.293.707.293s.52-.105.707-.293c.188-.187.293-.442.293-.707v-18h-2z" fill="#cecece"/>
  <path d="m7 9c0 1.061 0.421 2.078 1.172 2.828 0.75 0.751 1.767 1.172 2.828 1.172s2.078-0.421 2.828-1.172c0.751-0.75 1.172-1.767 1.172-2.828v-7h-2l-0.5 1-0.5-1h-2l-0.5 1-0.5-1h-2z" fill="#cecece"/>
  <path d="m21 29c0 .265.105.52.293.707.187.188.442.293.707.293s.52-.105.707-.293c.188-.187.293-.442.293-.707v-18h-2z" fill="#cecece"/>
  <path d="m17 12c0 3.314 2.686 6 6 6v-16h-2e-3c-3.313 0-5.998 2.685-5.998 5.998z" fill="#cecece"/>
  <path d="m9 2h1v6h-1z" fill="#666"/>
  <path d="m12 2h1v6h-1z" fill="#666"/>
 </g>
</svg>
