<?xml version="1.0" encoding="UTF-8"?>
<!DOCTYPE svg  PUBLIC '-//W3C//DTD SVG 1.1//EN'  'http://www.w3.org/Graphics/SVG/1.1/DTD/svg11.dtd'>
<svg clip-rule="evenodd" fill-rule="evenodd" stroke-linecap="round" stroke-miterlimit="3" version="1.1" viewBox="0 0 32 32" xml:space="preserve" xmlns="http://www.w3.org/2000/svg">
<metadata>
<rdf:RDF xmlns:cc="http://web.resource.org/cc/" xmlns:dc="http://purl.org/dc/elements/1.1/" xmlns:rdf="http://www.w3.org/1999/02/22-rdf-syntax-ns#">

     <rdf:Description rdf:about="">
       <dc:title>Mutant Standard emoji 2023.12</dc:title>
     </rdf:Description>

    <cc:work rdf:about="">
        <cc:license rdf:resource="http://creativecommons.org/licenses/by-nc-sa/4.0/"/>
        <cc:attributionName>Caius Nocturne</cc:attributionName>
        <cc:attributionURL>http://mutant.tech/</cc:attributionURL>
    </cc:work>

</rdf:RDF>
</metadata>
<rect id="knife_and_fork" width="32" height="32" fill="none"/><clipPath id="_clip1"><rect width="32" height="32"/></clipPath><g clip-path="url(#_clip1)"><g id="outline" fill="none" stroke="#000" stroke-width="4px"><path d="m10 29c0 0.265 0.105 0.52 0.293 0.707 0.187 0.188 0.442 0.293 0.707 0.293s0.52-0.105 0.707-0.293c0.188-0.187 0.293-0.442 0.293-0.707v-18h-2v18z"/><path d="m7 9c0 1.061 0.421 2.078 1.172 2.828 0.75 0.751 1.767 1.172 2.828 1.172s2.078-0.421 2.828-1.172c0.751-0.75 1.172-1.767 1.172-2.828v-7h-2v6h-1v-6h-2v6h-1v-6h-2v7z"/><path d="m21 29c0 0.265 0.105 0.52 0.293 0.707 0.187 0.188 0.442 0.293 0.707 0.293s0.52-0.105 0.707-0.293c0.188-0.187 0.293-0.442 0.293-0.707v-18h-2v18z"/><path d="m17 12c0 3.314 2.686 6 6 6v-16h-2e-3c-3.313 0-5.998 2.685-5.998 5.998v4.002z"/></g><g id="emoji"><path d="m10 29c0 0.265 0.105 0.52 0.293 0.707 0.187 0.188 0.442 0.293 0.707 0.293s0.52-0.105 0.707-0.293c0.188-0.187 0.293-0.442 0.293-0.707v-18h-2v18z" fill="#cecece"/><path d="m7 9c0 1.061 0.421 2.078 1.172 2.828 0.75 0.751 1.767 1.172 2.828 1.172s2.078-0.421 2.828-1.172c0.751-0.75 1.172-1.767 1.172-2.828v-7h-2l-0.5 1-0.5-1h-2l-0.5 1-0.5-1h-2v7z" fill="#cecece"/><path d="m21 29c0 0.265 0.105 0.52 0.293 0.707 0.187 0.188 0.442 0.293 0.707 0.293s0.52-0.105 0.707-0.293c0.188-0.187 0.293-0.442 0.293-0.707v-18h-2v18z" fill="#cecece"/><path d="m17 12c0 3.314 2.686 6 6 6v-16h-2e-3c-3.313 0-5.998 2.685-5.998 5.998v4.002z" fill="#cecece"/><g fill="#666"><rect x="9" y="2" width="1" height="6"/><rect x="12" y="2" width="1" height="6"/></g></g></g></svg>
