<?xml version="1.0" encoding="UTF-8"?>
<!DOCTYPE svg  PUBLIC '-//W3C//DTD SVG 1.1//EN'  'http://www.w3.org/Graphics/SVG/1.1/DTD/svg11.dtd'>
<svg clip-rule="evenodd" fill-rule="evenodd" stroke-linecap="square" stroke-linejoin="round" stroke-miterlimit="1.5" version="1.1" viewBox="0 0 32 32" xml:space="preserve" xmlns="http://www.w3.org/2000/svg">
<metadata>
<rdf:RDF xmlns:cc="http://web.resource.org/cc/" xmlns:dc="http://purl.org/dc/elements/1.1/" xmlns:rdf="http://www.w3.org/1999/02/22-rdf-syntax-ns#">

     <rdf:Description rdf:about="">
       <dc:title>Mutant Standard emoji 2023.12</dc:title>
     </rdf:Description>

    <cc:work rdf:about="">
        <cc:license rdf:resource="http://creativecommons.org/licenses/by-nc-sa/4.0/"/>
        <cc:attributionName>Caius Nocturne</cc:attributionName>
        <cc:attributionURL>http://mutant.tech/</cc:attributionURL>
    </cc:work>

</rdf:RDF>
</metadata>

    <rect id="lollipop" width="32" height="32" fill="none"/>
    <clipPath id="_clip1">
        <rect width="32" height="32"/>
    </clipPath>
    <g clip-path="url(#_clip1)">
        <g id="outline">
            <path d="m3.585 15.441c-0.998-1.393-1.585-3.099-1.585-4.941 0-4.691 3.809-8.5 8.5-8.5 1.842 0 3.548 0.587 4.941 1.585 0.389-0.263 0.922-0.222 1.266 0.122l0.586 0.586c0.344 0.344 0.385 0.877 0.122 1.266 0.998 1.393 1.585 3.099 1.585 4.941 0 1.986-0.682 3.813-1.825 5.261l12.239 12.239-1.414 1.414-12.239-12.239c-1.448 1.143-3.275 1.825-5.261 1.825-1.842 0-3.548-0.587-4.941-1.585-0.389 0.263-0.922 0.222-1.266-0.122l-0.586-0.586c-0.344-0.344-0.385-0.877-0.122-1.266z" fill="none" stroke="#000" stroke-width="4px"/>
        </g>
        <g id="emoji">
            <path d="m19 17.586 1 1.414-1 1.414-7.414-7.414 1.414-1.414 6 6z" fill="#b0b0b0" fill-rule="nonzero"/>
            <path d="m19 17.586 10.414 10.414-1.414 1.414-9-9v-2.828z" fill="#e6e6e6" fill-rule="nonzero"/>
            <circle cx="10.5" cy="10.5" r="8.5" fill="#d21b67"/>
            <clipPath id="_clip2">
                <circle cx="10.5" cy="10.5" r="8.5"/>
            </clipPath>
            <g clip-path="url(#_clip2)">
                <circle cx="10.5" cy="10.5" r="6.5" fill="#be0a55"/>
                <ellipse cx="10.5" cy="6" rx="4.5" ry="3" fill="#f65598"/>
                <path d="m16.707 3.707c-0.39-0.39-1.024-0.39-1.414 0l-11.586 11.586c-0.39 0.39-0.39 1.024 0 1.414l0.586 0.586c0.39 0.39 1.024 0.39 1.414 0l11.586-11.586c0.39-0.39 0.39-1.024 0-1.414l-0.586-0.586z" fill="#d21b67" stroke="#9b144c" stroke-linecap="butt" stroke-width="2px"/>
            </g>
            <path d="m16.707 3.707c-0.39-0.39-1.024-0.39-1.414 0l-11.586 11.586c-0.39 0.39-0.39 1.024 0 1.414l0.586 0.586c0.39 0.39 1.024 0.39 1.414 0l11.586-11.586c0.39-0.39 0.39-1.024 0-1.414l-0.586-0.586z" fill="#d21b67"/>
            <clipPath id="_clip3">
                <path d="m16.707 3.707c-0.39-0.39-1.024-0.39-1.414 0l-11.586 11.586c-0.39 0.39-0.39 1.024 0 1.414l0.586 0.586c0.39 0.39 1.024 0.39 1.414 0l11.586-11.586c0.39-0.39 0.39-1.024 0-1.414l-0.586-0.586z"/>
            </clipPath>
            <g clip-path="url(#_clip3)">
                <circle cx="10.5" cy="10.5" r="7.5" fill="#be0a55"/>
                <path d="m12.572 2.894c1.168 0.406 2.239 1.051 3.144 1.894 5e-3 5e-3 0.011 0.01 0.016 0.015 0.199 0.185 0.314 0.443 0.319 0.714 4e-3 0.272-0.101 0.533-0.293 0.725l-1.447 1.447c-0.803 0.803-1.992 1.084-3.07 0.725-0.654-0.218-1.241-0.414-1.241-0.414v-6s1.371 0.476 2.572 0.894z" fill="#f65598"/>
            </g>
        </g>
    </g>
</svg>
