<?xml version="1.0" encoding="UTF-8"?>
<!DOCTYPE svg  PUBLIC '-//W3C//DTD SVG 1.1//EN'  'http://www.w3.org/Graphics/SVG/1.1/DTD/svg11.dtd'>
<svg clip-rule="evenodd" fill-rule="evenodd" stroke-linejoin="round" stroke-miterlimit="2" version="1.1" viewBox="0 0 32 32" xml:space="preserve" xmlns="http://www.w3.org/2000/svg">
<metadata>
<rdf:RDF xmlns:cc="http://web.resource.org/cc/" xmlns:dc="http://purl.org/dc/elements/1.1/" xmlns:rdf="http://www.w3.org/1999/02/22-rdf-syntax-ns#">

     <rdf:Description rdf:about="">
       <dc:title>Mutant Standard emoji 2023.12</dc:title>
     </rdf:Description>

    <cc:work rdf:about="">
        <cc:license rdf:resource="http://creativecommons.org/licenses/by-nc-sa/4.0/"/>
        <cc:attributionName>Caius Nocturne</cc:attributionName>
        <cc:attributionURL>http://mutant.tech/</cc:attributionURL>
    </cc:work>

</rdf:RDF>
</metadata>

    <rect id="meat_on_bone" width="32" height="32" fill="none"/>
    <clipPath id="_clip1">
        <rect width="32" height="32"/>
    </clipPath>
    <g clip-path="url(#_clip1)">
        <g id="outline">
            <path d="m27 5v-1c0-0.53-0.211-1.039-0.586-1.414s-0.884-0.586-1.414-0.586-1.039 0.211-1.414 0.586-0.586 0.884-0.586 1.414v3l-16 16h-3.002c-1.103 0-1.998 0.895-1.998 1.998v4e-3c0 1.103 0.895 1.998 1.998 1.998h1.002v1.002c0 1.103 0.895 1.998 1.998 1.998h4e-3c1.103 0 1.998-0.895 1.998-1.998v-3.002l16-16h3c0.53 0 1.039-0.211 1.414-0.586s0.586-0.884 0.586-1.414v-2e-3c0-1.103-0.895-1.998-1.998-1.998h-1.002z"/>
            <path d="m12.464 7.536c1.953-1.953 5.119-1.953 7.072 0l4.928 4.928c1.953 1.953 1.953 5.119 0 7.072l-4.928 4.928c-1.953 1.953-5.119 1.953-7.072 0l-4.928-4.928c-1.953-1.953-1.953-5.119 0-7.072l4.928-4.928z"/>
            <path d="m21 6.168c0-0.755-8e-3 -1.511 1e-3 -2.267 0.016-0.427 0.089-0.847 0.233-1.25 0.21-0.586 0.558-1.12 1.008-1.549 0.38-0.361 0.829-0.645 1.318-0.834 0.43-0.166 0.881-0.25 1.341-0.267 0.099-1e-3 0.099-1e-3 0.198 0 0.427 0.016 0.847 0.089 1.25 0.233 0.898 0.322 1.663 0.966 2.133 1.797 0.19 0.336 0.326 0.696 0.416 1.071 0.086 0.021 0.086 0.021 0.172 0.043 0.156 0.046 0.31 0.097 0.461 0.159 0.362 0.15 0.701 0.354 1.004 0.602 0.789 0.646 1.309 1.589 1.435 2.601 0.044 0.359 0.04 0.725-0.014 1.084-0.057 0.386-0.172 0.765-0.339 1.118-0.196 0.415-0.464 0.795-0.789 1.12-0.347 0.347-0.758 0.629-1.207 0.828-0.508 0.225-1.054 0.336-1.609 0.343h-2.183l0.113 0.114c0.588 0.611 1.076 1.319 1.41 2.101 0.222 0.518 0.385 1.059 0.479 1.615 0.206 1.22 0.084 2.488-0.352 3.644-0.224 0.594-0.53 1.156-0.905 1.667-0.176 0.239-0.367 0.464-0.57 0.68-1.674 1.738-3.401 3.425-5.118 5.121-0.611 0.588-1.319 1.076-2.101 1.41-0.518 0.222-1.059 0.385-1.615 0.479-1.219 0.206-2.488 0.084-3.644-0.352-0.594-0.224-1.156-0.53-1.667-0.905-0.239-0.176-0.464-0.367-0.68-0.57-0.06-0.057-0.119-0.115-0.179-0.172 0 0.757 9e-3 1.515-1e-3 2.272-7e-3 0.169-0.019 0.337-0.045 0.504-0.06 0.391-0.178 0.772-0.349 1.128-0.167 0.347-0.385 0.67-0.644 0.955-0.28 0.307-0.607 0.571-0.967 0.778-0.864 0.497-1.902 0.652-2.874 0.433-0.445-0.1-0.872-0.277-1.257-0.521-0.417-0.263-0.785-0.604-1.078-1.001-0.328-0.442-0.555-0.947-0.683-1.481-0.066-0.015-0.132-0.033-0.197-0.051-0.158-0.047-0.313-0.099-0.464-0.163-0.356-0.15-0.689-0.353-0.987-0.599-0.32-0.264-0.599-0.578-0.823-0.928-0.193-0.3-0.345-0.627-0.451-0.968-0.296-0.951-0.222-1.999 0.203-2.899 0.196-0.415 0.464-0.795 0.788-1.12 0.348-0.347 0.759-0.629 1.209-0.828 0.507-0.225 1.053-0.336 1.608-0.343h2.183l-0.113-0.114c-0.588-0.611-1.076-1.319-1.411-2.101-0.221-0.518-0.384-1.059-0.478-1.615-0.206-1.219-0.084-2.488 0.352-3.644 0.224-0.594 0.53-1.156 0.905-1.667 0.176-0.238 0.367-0.464 0.57-0.68 1.673-1.739 3.401-3.425 5.118-5.121 0.278-0.267 0.572-0.514 0.888-0.734 0.704-0.491 1.499-0.849 2.333-1.053 0.327-0.08 0.66-0.136 0.995-0.168 0.167-0.016 0.335-0.024 0.502-0.03 0.168-2e-3 0.168-2e-3 0.336 0 0.167 6e-3 0.335 0.014 0.502 0.03 0.335 0.032 0.668 0.088 0.995 0.168 0.834 0.204 1.629 0.562 2.333 1.053 0.291 0.203 0.564 0.429 0.823 0.672 0.06 0.057 0.119 0.115 0.179 0.172z"/>
        </g>
        <g id="emoji">
            <path d="m27 5v-1c0-0.53-0.211-1.039-0.586-1.414s-0.884-0.586-1.414-0.586-1.039 0.211-1.414 0.586-0.586 0.884-0.586 1.414v3l-16 16h-3.002c-1.103 0-1.998 0.895-1.998 1.998v4e-3c0 1.103 0.895 1.998 1.998 1.998h1.002v1.002c0 1.103 0.895 1.998 1.998 1.998h4e-3c1.103 0 1.998-0.895 1.998-1.998v-3.002l16-16h3c0.53 0 1.039-0.211 1.414-0.586s0.586-0.884 0.586-1.414v-2e-3c0-1.103-0.895-1.998-1.998-1.998h-1.002z" fill="#d9d9d9"/>
            <path d="m12.464 7.536c1.953-1.953 5.119-1.953 7.072 0l4.928 4.928c1.953 1.953 1.953 5.119 0 7.072l-4.928 4.928c-1.953 1.953-5.119 1.953-7.072 0l-4.928-4.928c-1.953-1.953-1.953-5.119 0-7.072l4.928-4.928z" fill="#a25914"/>
        </g>
    </g>
</svg>
