<?xml version="1.0" encoding="UTF-8"?>
<svg clip-rule="evenodd" fill-rule="evenodd" stroke-linecap="square" stroke-linejoin="round" stroke-miterlimit="1.5" viewBox="0 0 32 32" xmlns="http://www.w3.org/2000/svg">
 <clipPath id="a">
  <path d="m0 0h32v32h-32z" clip-rule="evenodd"/>
 </clipPath>
 <clipPath id="b">
  <path d="m3 2c-0.552 0-1 0.448-1 1v9.586c0 0.404 0.244 0.769 0.617 0.924 0.374 0.154 0.804 0.069 1.09-0.217l9.586-9.586c0.286-0.286 0.371-0.716 0.217-1.09-0.155-0.373-0.52-0.617-0.924-0.617h-9.586z" clip-rule="evenodd"/>
 </clipPath>
 <path d="m0 0h32v32h-32z" fill="none"/>
 <g clip-path="url(#a)">
  <path d="m6 6 21 21" fill="none" stroke="#000" stroke-width="6"/>
  <path d="m3 2c-0.552 0-1 0.448-1 1v9.586c0 0.404 0.244 0.769 0.617 0.924 0.374 0.154 0.804 0.069 1.09-0.217l9.586-9.586c0.286-0.286 0.371-0.716 0.217-1.09-0.155-0.373-0.52-0.617-0.924-0.617h-9.586z" fill="#334c68" stroke="#000" stroke-width="4"/>
  <circle cx="13" cy="13" r="8"/>
  <path d="m24.172 12.151c-0.391-0.391-1.024-0.391-1.415 0l-10.606 10.606c-0.391 0.391-0.391 1.024 0 1.415l2.121 2.121c0.391 0.39 1.024 0.39 1.414 0l10.607-10.607c0.39-0.39 0.39-1.023 0-1.414l-2.121-2.121z" fill="#ae9660" stroke="#000" stroke-width="4"/>
  <path d="m6 6 21 21" fill="none" stroke="#a78847" stroke-width="2"/>
  <circle cx="13" cy="13" r="6" fill="#d19644"/>
  <path d="m24.172 12.151c-0.391-0.391-1.024-0.391-1.415 0l-10.606 10.606c-0.391 0.391-0.391 1.024 0 1.415l2.121 2.121c0.391 0.39 1.024 0.39 1.414 0l10.607-10.607c0.39-0.39 0.39-1.023 0-1.414l-2.121-2.121z" fill="#c7c2be"/>
  <path d="m3 2c-0.552 0-1 0.448-1 1v9.586c0 0.404 0.244 0.769 0.617 0.924 0.374 0.154 0.804 0.069 1.09-0.217l9.586-9.586c0.286-0.286 0.371-0.716 0.217-1.09-0.155-0.373-0.52-0.617-0.924-0.617h-9.586z" fill="#677aa0"/>
  <g clip-path="url(#b)" fill="#425273">
   <circle cx="5.5" cy="5.5" r="1.5"/>
   <circle cx="8.5" cy="2.5" r="1.5"/>
   <circle cx="2.5" cy="2.5" r="1.5"/>
   <circle cx="2.5" cy="8.5" r="1.5"/>
  </g>
  <g fill="#ac7931">
   <path d="m14 9c0-0.552-0.448-1-1-1s-1 0.448-1 1v2c0 0.552 0.448 1 1 1s1-0.448 1-1v-2z"/>
   <path d="m17 14c0.552 0 1-0.448 1-1s-0.448-1-1-1h-2c-0.552 0-1 0.448-1 1s0.448 1 1 1z"/>
   <path d="m14 15c0-0.552-0.448-1-1-1s-1 0.448-1 1v2c0 0.552 0.448 1 1 1s1-0.448 1-1v-2z"/>
   <path d="m11 14c0.552 0 1-0.448 1-1s-0.448-1-1-1h-2c-0.552 0-1 0.448-1 1s0.448 1 1 1z"/>
  </g>
 </g>
</svg>
