<?xml version="1.0" encoding="UTF-8"?>
<!DOCTYPE svg  PUBLIC '-//W3C//DTD SVG 1.1//EN'  'http://www.w3.org/Graphics/SVG/1.1/DTD/svg11.dtd'>
<svg clip-rule="evenodd" fill-rule="evenodd" stroke-linecap="round" stroke-linejoin="round" stroke-miterlimit="1.5" version="1.1" viewBox="0 0 32 32" xml:space="preserve" xmlns="http://www.w3.org/2000/svg">
<metadata>
<rdf:RDF xmlns:cc="http://web.resource.org/cc/" xmlns:dc="http://purl.org/dc/elements/1.1/" xmlns:rdf="http://www.w3.org/1999/02/22-rdf-syntax-ns#">

     <rdf:Description rdf:about="">
       <dc:title>Mutant Standard emoji 2023.12</dc:title>
     </rdf:Description>

    <cc:work rdf:about="">
        <cc:license rdf:resource="http://creativecommons.org/licenses/by-nc-sa/4.0/"/>
        <cc:attributionName>Caius Nocturne</cc:attributionName>
        <cc:attributionURL>http://mutant.tech/</cc:attributionURL>
    </cc:work>

</rdf:RDF>
</metadata>
<rect id="onigiri" width="32" height="32" fill="none"/><g id="outline"><path d="m16.011 4.038c1e-3 -0.013 2e-3 -0.026 2e-3 -0.038 2.461 0 5.778 2.757 8 6.144 5.828 8.882 5.677 13.248 4.697 15.325-0.581 1.035-1.676 1.675-2.863 1.675h-9.834l-2e-3 -3e-3v3e-3h-9.834c-1.187 0-2.282-0.64-2.863-1.675-0.981-2.077-1.132-6.443 4.697-15.325 2.222-3.387 5.539-6.144 8-6.144v0.038z" fill="none" stroke="#000" stroke-width="4px"/></g><g id="emoji"><path d="m16.011 4.038c1e-3 -0.013 2e-3 -0.026 2e-3 -0.038 2.461 0 5.778 2.757 8 6.144 5.828 8.882 5.677 13.248 4.697 15.325-0.581 1.035-1.676 1.675-2.863 1.675h-9.834l-2e-3 -3e-3v3e-3h-9.834c-1.187 0-2.282-0.64-2.863-1.675-0.981-2.077-1.132-6.443 4.697-15.325 2.222-3.387 5.539-6.144 8-6.144v0.038z" fill="#fff"/><clipPath id="_clip1"><path d="m16.011 4.038c1e-3 -0.013 2e-3 -0.026 2e-3 -0.038 2.461 0 5.778 2.757 8 6.144 5.828 8.882 5.677 13.248 4.697 15.325-0.581 1.035-1.676 1.675-2.863 1.675h-9.834l-2e-3 -3e-3v3e-3h-9.834c-1.187 0-2.282-0.64-2.863-1.675-0.981-2.077-1.132-6.443 4.697-15.325 2.222-3.387 5.539-6.144 8-6.144v0.038z"/></clipPath><g clip-path="url(#_clip1)"><g fill="none" stroke="#e1e1e1" stroke-width="2px"><path d="m20 12-2 2"/><path d="m9 13-2 2"/><path d="m20 19-2 2"/><path d="m27 12-2 2"/><path d="m29 20-2 2"/><path d="m18 6-2 2"/><path d="m10 20-2 2"/><path d="m13 11-2-2"/><path d="m13 5-2-2"/><path d="m24 18-2-2"/><path d="m24 9-2-2"/><path d="m25 26-2-2"/><path d="m14 18-2-2"/><path d="m4 20-2-2"/><path d="m7 28-2-2"/></g></g><path d="m24 19c0-0.53-0.211-1.039-0.586-1.414s-0.884-0.586-1.414-0.586h-12c-0.53 0-1.039 0.211-1.414 0.586s-0.586 0.884-0.586 1.414v9h16v-9z"/></g></svg>
