<?xml version="1.0" encoding="UTF-8"?>
<!DOCTYPE svg  PUBLIC '-//W3C//DTD SVG 1.1//EN'  'http://www.w3.org/Graphics/SVG/1.1/DTD/svg11.dtd'>
<svg clip-rule="evenodd" fill-rule="evenodd" stroke-linecap="round" stroke-miterlimit="3" version="1.1" viewBox="0 0 32 32" xml:space="preserve" xmlns="http://www.w3.org/2000/svg">
<metadata>
<rdf:RDF xmlns:cc="http://web.resource.org/cc/" xmlns:dc="http://purl.org/dc/elements/1.1/" xmlns:rdf="http://www.w3.org/1999/02/22-rdf-syntax-ns#">

     <rdf:Description rdf:about="">
       <dc:title>Mutant Standard emoji 2023.12</dc:title>
     </rdf:Description>

    <cc:work rdf:about="">
        <cc:license rdf:resource="http://creativecommons.org/licenses/by-nc-sa/4.0/"/>
        <cc:attributionName>Caius Nocturne</cc:attributionName>
        <cc:attributionURL>http://mutant.tech/</cc:attributionURL>
    </cc:work>

</rdf:RDF>
</metadata>
<rect id="plate" width="32" height="32" fill="none"/><clipPath id="_clip1"><rect width="32" height="32"/></clipPath><g clip-path="url(#_clip1)"><g id="outline" fill="none" stroke="#000" stroke-width="4px"><path d="m3 24.5c0 0.828 0.672 1.5 1.5 1.5s1.5-0.672 1.5-1.5v-12.5h-3v12.5z"/><path d="m2 13.5c0 1.381 1.119 2.5 2.5 2.5s2.5-1.119 2.5-2.5v-7.5h-1v5h-1v-5h-1v5h-1v-5h-1v7.5z"/><path d="m27 24.5c0 0.828 0.672 1.5 1.5 1.5s1.5-0.672 1.5-1.5v-12.5h-3v12.5z"/><path d="m26 16c0 2.209 1.791 4 4 4v-14c-2.209 0-4 1.791-4 4v6z"/><circle cx="16" cy="16" r="8"/></g><g id="emoji"><path d="m3 24.5c0 0.828 0.672 1.5 1.5 1.5s1.5-0.672 1.5-1.5v-12.5h-3v12.5z" fill="#cecece"/><path d="m2 13.5c0 1.381 1.119 2.5 2.5 2.5s2.5-1.119 2.5-2.5v-7.5h-1l-0.5 1-0.5-1h-1l-0.5 1-0.5-1h-1v7.5z" fill="#cecece"/><rect x="3" y="6" width="1" height="5" fill="#666"/><rect x="5" y="6" width="1" height="5" fill="#666"/><path d="m27 24.5c0 0.828 0.672 1.5 1.5 1.5s1.5-0.672 1.5-1.5v-12.5h-3v12.5z" fill="#cecece"/><path d="m26 16c0 2.209 1.791 4 4 4v-14c-2.209 0-4 1.791-4 4v6z" fill="#cecece"/><circle cx="16" cy="16" r="8" fill="#fff"/><path d="m16.077 10 0.078 2e-3 0.077 2e-3 0.077 4e-3 0.076 4e-3 0.152 0.012 0.076 7e-3 0.076 8e-3 0.075 9e-3 0.075 0.01 0.074 0.011 0.075 0.012 0.074 0.013 0.073 0.013 0.074 0.015 0.073 0.015 0.072 0.017 0.073 0.017 0.072 0.018 0.071 0.019 0.072 0.02 0.071 0.02 0.07 0.022 0.071 0.022 0.07 0.023 0.069 0.024 0.069 0.025 0.069 0.026 0.068 0.026 0.136 0.056 0.067 0.029 0.066 0.029 0.132 0.062 0.066 0.032 0.065 0.033 0.064 0.033 0.064 0.035 0.063 0.035 0.064 0.035 0.124 0.074 0.062 0.038 0.122 0.078 0.06 0.04 0.059 0.041 0.118 0.084 0.058 0.043 0.057 0.043 0.057 0.044 0.057 0.045 0.056 0.046 0.055 0.046 0.055 0.047 0.054 0.047 0.053 0.048 0.053 0.049 0.053 0.05 0.052 0.05 0.051 0.05 0.05 0.051 0.05 0.052 0.05 0.053 0.049 0.053 0.048 0.053 0.047 0.054 0.047 0.055 0.046 0.055 0.046 0.056 0.045 0.057 0.044 0.057 0.043 0.057 0.043 0.058 0.084 0.118 0.041 0.059 0.04 0.06 0.078 0.122 0.038 0.062 0.074 0.124 0.035 0.064 0.035 0.063 0.035 0.064 0.033 0.064 0.033 0.065 0.032 0.066 0.062 0.132 0.029 0.066 0.029 0.067 0.056 0.136 0.026 0.068 0.026 0.069 0.025 0.069 0.024 0.069 0.023 0.07 0.022 0.071 0.022 0.07 0.02 0.071 0.02 0.072 0.019 0.071 0.018 0.072 0.017 0.073 0.017 0.072 0.015 0.073 0.015 0.074 0.013 0.073 0.013 0.074 0.012 0.075 0.011 0.074 0.01 0.075 9e-3 0.075 8e-3 0.076 7e-3 0.076 0.012 0.152 4e-3 0.076 4e-3 0.077 2e-3 0.077 2e-3 0.078v0.077 0.077l-2e-3 0.078-2e-3 0.077-4e-3 0.077-4e-3 0.076-0.012 0.152-7e-3 0.076-8e-3 0.076-9e-3 0.075-0.01 0.075-0.011 0.074-0.012 0.075-0.013 0.074-0.013 0.073-0.015 0.074-0.015 0.073-0.017 0.072-0.017 0.073-0.018 0.072-0.019 0.071-0.02 0.072-0.02 0.071-0.022 0.07-0.022 0.071-0.023 0.07-0.024 0.069-0.025 0.069-0.026 0.069-0.026 0.068-0.056 0.136-0.029 0.067-0.029 0.066-0.062 0.132-0.032 0.066-0.033 0.065-0.033 0.064-0.035 0.064-0.035 0.063-0.035 0.064-0.074 0.124-0.038 0.062-0.078 0.122-0.04 0.06-0.041 0.059-0.084 0.118-0.043 0.058-0.043 0.057-0.044 0.057-0.045 0.057-0.046 0.056-0.046 0.055-0.047 0.055-0.047 0.054-0.048 0.053-0.049 0.053-0.05 0.053-0.05 0.052-0.05 0.051-0.051 0.05-0.052 0.05-0.053 0.05-0.053 0.049-0.053 0.048-0.054 0.047-0.055 0.047-0.055 0.046-0.056 0.046-0.057 0.045-0.057 0.044-0.057 0.043-0.058 0.043-0.118 0.084-0.059 0.041-0.06 0.04-0.122 0.078-0.062 0.038-0.124 0.074-0.064 0.035-0.063 0.035-0.064 0.035-0.064 0.033-0.065 0.033-0.066 0.032-0.132 0.062-0.066 0.029-0.067 0.029-0.136 0.056-0.068 0.026-0.069 0.026-0.069 0.025-0.069 0.024-0.07 0.023-0.071 0.022-0.07 0.022-0.071 0.02-0.072 0.02-0.071 0.019-0.072 0.018-0.073 0.017-0.072 0.017-0.073 0.015-0.074 0.015-0.073 0.013-0.074 0.013-0.075 0.012-0.074 0.011-0.075 0.01-0.075 9e-3 -0.076 8e-3 -0.076 7e-3 -0.152 0.012-0.076 4e-3 -0.077 4e-3 -0.077 2e-3 -0.078 2e-3h-0.077-0.077l-0.078-2e-3 -0.077-2e-3 -0.077-4e-3 -0.076-4e-3 -0.152-0.012-0.076-7e-3 -0.076-8e-3 -0.075-9e-3 -0.075-0.01-0.074-0.011-0.075-0.012-0.074-0.013-0.073-0.013-0.074-0.015-0.073-0.015-0.072-0.017-0.073-0.017-0.072-0.018-0.071-0.019-0.072-0.02-0.071-0.02-0.07-0.022-0.071-0.022-0.07-0.023-0.069-0.024-0.069-0.025-0.069-0.026-0.068-0.026-0.136-0.056-0.067-0.029-0.066-0.029-0.132-0.062-0.066-0.032-0.065-0.033-0.064-0.033-0.064-0.035-0.063-0.035-0.064-0.035-0.124-0.074-0.062-0.038-0.122-0.078-0.06-0.04-0.059-0.041-0.118-0.084-0.058-0.043-0.057-0.043-0.057-0.044-0.057-0.045-0.056-0.046-0.055-0.046-0.055-0.047-0.054-0.047-0.053-0.048-0.053-0.049-0.053-0.05-0.052-0.05-0.051-0.05-0.05-0.051-0.05-0.052-0.05-0.053-0.049-0.053-0.048-0.053-0.047-0.054-0.047-0.055-0.046-0.055-0.046-0.056-0.045-0.057-0.044-0.057-0.043-0.057-0.043-0.058-0.084-0.118-0.041-0.059-0.04-0.06-0.078-0.122-0.038-0.062-0.074-0.124-0.035-0.064-0.035-0.063-0.035-0.064-0.033-0.064-0.033-0.065-0.032-0.066-0.062-0.132-0.029-0.066-0.029-0.067-0.056-0.136-0.026-0.068-0.026-0.069-0.025-0.069-0.024-0.069-0.023-0.07-0.022-0.071-0.022-0.07-0.02-0.071-0.02-0.072-0.019-0.071-0.018-0.072-0.017-0.073-0.017-0.072-0.015-0.073-0.015-0.074-0.013-0.073-0.013-0.074-0.012-0.075-0.011-0.074-0.01-0.075-9e-3 -0.075-8e-3 -0.076-7e-3 -0.076-0.012-0.152-4e-3 -0.076-4e-3 -0.077-2e-3 -0.077-2e-3 -0.078v-0.077-0.077l2e-3 -0.078 2e-3 -0.077 4e-3 -0.077 4e-3 -0.076 0.012-0.152 7e-3 -0.076 8e-3 -0.076 9e-3 -0.075 0.01-0.075 0.011-0.074 0.012-0.075 0.013-0.074 0.013-0.073 0.015-0.074 0.015-0.073 0.017-0.072 0.017-0.073 0.018-0.072 0.019-0.071 0.02-0.072 0.02-0.071 0.022-0.07 0.022-0.071 0.023-0.07 0.024-0.069 0.025-0.069 0.026-0.069 0.026-0.068 0.056-0.136 0.029-0.067 0.029-0.066 0.062-0.132 0.032-0.066 0.033-0.065 0.033-0.064 0.035-0.064 0.035-0.063 0.035-0.064 0.074-0.124 0.038-0.062 0.078-0.122 0.04-0.06 0.041-0.059 0.084-0.118 0.043-0.058 0.043-0.057 0.044-0.057 0.045-0.057 0.046-0.056 0.046-0.055 0.047-0.055 0.047-0.054 0.048-0.053 0.049-0.053 0.05-0.053 0.05-0.052 0.05-0.051 0.051-0.05 0.052-0.05 0.053-0.05 0.053-0.049 0.053-0.048 0.054-0.047 0.055-0.047 0.055-0.046 0.056-0.046 0.057-0.045 0.057-0.044 0.057-0.043 0.058-0.043 0.118-0.084 0.059-0.041 0.06-0.04 0.122-0.078 0.062-0.038 0.124-0.074 0.064-0.035 0.063-0.035 0.064-0.035 0.064-0.033 0.065-0.033 0.066-0.032 0.132-0.062 0.066-0.029 0.067-0.029 0.136-0.056 0.068-0.026 0.069-0.026 0.069-0.025 0.069-0.024 0.07-0.023 0.071-0.022 0.07-0.022 0.071-0.02 0.072-0.02 0.071-0.019 0.072-0.018 0.073-0.017 0.072-0.017 0.073-0.015 0.074-0.015 0.073-0.013 0.074-0.013 0.075-0.012 0.074-0.011 0.075-0.01 0.075-9e-3 0.076-8e-3 0.076-7e-3 0.152-0.012 0.076-4e-3 0.077-4e-3 0.077-2e-3 0.078-2e-3h0.077 0.077zm-0.142 1-0.064 2e-3 -0.065 2e-3 -0.128 6e-3 -0.063 5e-3 -0.064 5e-3 -0.063 6e-3 -0.063 7e-3 -0.062 7e-3 -0.063 9e-3 -0.062 9e-3 -0.062 0.01-0.061 0.01-0.062 0.012-0.061 0.012-0.061 0.013-0.06 0.013-0.06 0.014-0.06 0.015-0.06 0.016-0.118 0.034-0.118 0.036-0.116 0.04-0.057 0.02-0.171 0.066-0.056 0.024-0.055 0.024-0.056 0.025-0.055 0.025-0.055 0.026-0.108 0.054-0.108 0.056-0.052 0.029-0.053 0.03-0.104 0.062-0.051 0.031-0.051 0.033-0.051 0.032-0.05 0.034-0.049 0.034-0.05 0.034-0.048 0.036-0.049 0.035-0.048 0.037-0.047 0.037-0.048 0.037-0.046 0.038-0.092 0.078-0.045 0.039-0.045 0.04-0.088 0.082-0.086 0.084-0.084 0.086-0.082 0.088-0.04 0.045-0.039 0.045-0.078 0.092-0.038 0.046-0.037 0.048-0.037 0.047-0.037 0.048-0.035 0.048-0.07 0.098-0.068 0.1-0.032 0.051-0.033 0.051-0.031 0.051-0.062 0.104-0.03 0.053-0.029 0.053-0.028 0.053-0.056 0.108-0.026 0.054-0.026 0.055-0.05 0.11-0.024 0.056-0.024 0.057-0.022 0.056-0.044 0.114-0.02 0.057-0.04 0.116-0.036 0.118-0.034 0.118-0.016 0.06-0.015 0.06-0.028 0.12-0.036 0.183-0.02 0.124-0.018 0.124-0.014 0.126-6e-3 0.063-5e-3 0.064-5e-3 0.063-6e-3 0.128-2e-3 0.065-2e-3 0.064v0.065 0.065l2e-3 0.064 2e-3 0.065 6e-3 0.128 5e-3 0.063 5e-3 0.064 6e-3 0.063 0.014 0.126 0.018 0.124 0.02 0.124 0.024 0.122 0.013 0.061 0.013 0.06 0.014 0.06 0.015 0.06 0.016 0.06 0.034 0.118 0.036 0.118 0.04 0.116 0.02 0.057 0.044 0.114 0.022 0.056 0.024 0.057 0.024 0.056 0.05 0.11 0.026 0.055 0.026 0.054 0.056 0.108 0.028 0.053 0.029 0.053 0.03 0.053 0.062 0.104 0.031 0.051 0.033 0.051 0.032 0.051 0.034 0.05 0.034 0.049 0.035 0.05 0.035 0.049 0.035 0.048 0.037 0.048 0.037 0.047 0.037 0.048 0.038 0.046 0.078 0.092 0.039 0.045 0.04 0.045 0.082 0.088 0.084 0.086 0.086 0.084 0.088 0.082 0.045 0.04 0.045 0.039 0.092 0.078 0.047 0.038 0.094 0.074 0.048 0.037 0.049 0.035 0.048 0.035 0.05 0.035 0.049 0.034 0.05 0.034 0.051 0.032 0.051 0.033 0.051 0.031 0.104 0.062 0.053 0.03 0.053 0.029 0.053 0.028 0.054 0.028 0.108 0.054 0.055 0.026 0.11 0.05 0.112 0.048 0.171 0.066 0.057 0.02 0.116 0.04 0.118 0.036 0.118 0.034 0.06 0.016 0.06 0.015 0.12 0.028 0.183 0.036 0.124 0.02 0.124 0.018 0.126 0.014 0.063 6e-3 0.064 5e-3 0.063 5e-3 0.128 6e-3 0.065 2e-3 0.064 2e-3h0.065 0.065l0.064-2e-3 0.065-2e-3 0.128-6e-3 0.063-5e-3 0.064-5e-3 0.063-6e-3 0.126-0.014 0.124-0.018 0.124-0.02 0.183-0.036 0.12-0.028 0.06-0.015 0.06-0.016 0.118-0.034 0.118-0.036 0.116-0.04 0.057-0.02 0.171-0.066 0.112-0.048 0.055-0.024 0.11-0.052 0.054-0.027 0.055-0.027 0.106-0.056 0.053-0.029 0.053-0.03 0.104-0.062 0.051-0.031 0.051-0.033 0.051-0.032 0.05-0.034 0.049-0.034 0.05-0.035 0.049-0.035 0.048-0.035 0.048-0.037 0.094-0.074 0.047-0.038 0.092-0.078 0.045-0.039 0.045-0.041 0.044-0.04 0.044-0.041 0.086-0.084 0.084-0.086 0.082-0.088 0.04-0.045 0.039-0.045 0.078-0.092 0.038-0.047 0.074-0.094 0.037-0.048 0.035-0.048 0.036-0.049 0.034-0.05 0.034-0.049 0.033-0.05 0.066-0.102 0.031-0.051 0.062-0.104 0.03-0.053 0.029-0.053 0.028-0.053 0.056-0.108 0.026-0.054 0.052-0.11 0.024-0.055 0.048-0.112 0.066-0.171 0.02-0.057 0.04-0.116 0.036-0.118 0.034-0.118 0.016-0.06 0.015-0.06 0.014-0.06 0.013-0.06 0.013-0.061 0.024-0.122 0.02-0.124 0.018-0.124 0.014-0.126 6e-3 -0.063 5e-3 -0.064 5e-3 -0.063 6e-3 -0.128 2e-3 -0.065 2e-3 -0.064v-0.065-0.065l-2e-3 -0.064-2e-3 -0.065-6e-3 -0.128-5e-3 -0.063-5e-3 -0.064-6e-3 -0.063-0.014-0.126-0.018-0.124-0.02-0.124-0.024-0.122-0.013-0.061-0.013-0.06-0.014-0.06-0.015-0.06-0.016-0.06-0.034-0.118-0.036-0.118-0.04-0.116-0.02-0.057-0.066-0.171-0.048-0.112-0.024-0.055-0.052-0.11-0.026-0.054-0.056-0.108-0.028-0.053-0.029-0.053-0.03-0.053-0.062-0.104-0.031-0.051-0.033-0.051-0.032-0.051-0.034-0.05-0.034-0.049-0.034-0.05-0.036-0.049-0.035-0.048-0.037-0.048-0.074-0.094-0.038-0.047-0.078-0.092-0.039-0.045-0.04-0.045-0.082-0.088-0.084-0.086-0.086-0.084-0.088-0.082-0.045-0.04-0.045-0.039-0.092-0.078-0.047-0.038-0.046-0.037-0.096-0.074-0.048-0.035-0.049-0.036-0.05-0.034-0.049-0.034-0.05-0.034-0.051-0.032-0.051-0.033-0.051-0.031-0.104-0.062-0.053-0.03-0.053-0.029-0.053-0.028-0.054-0.028-0.108-0.054-0.11-0.052-0.056-0.024-0.055-0.024-0.056-0.024-0.171-0.066-0.057-0.02-0.058-0.02-0.059-0.02-0.058-0.018-0.059-0.018-0.118-0.034-0.06-0.016-0.06-0.015-0.06-0.014-0.06-0.013-0.061-0.013-0.061-0.012-0.062-0.012-0.061-0.01-0.062-0.01-0.062-9e-3 -0.063-9e-3 -0.062-7e-3 -0.063-7e-3 -0.063-6e-3 -0.064-5e-3 -0.063-5e-3 -0.128-6e-3 -0.065-2e-3 -0.064-2e-3h-0.065-0.065z" fill="#ccc"/></g></g></svg>
