<?xml version="1.0" encoding="UTF-8"?>
<!DOCTYPE svg  PUBLIC '-//W3C//DTD SVG 1.1//EN'  'http://www.w3.org/Graphics/SVG/1.1/DTD/svg11.dtd'>
<svg clip-rule="evenodd" fill-rule="evenodd" stroke-linecap="round" stroke-linejoin="round" stroke-miterlimit="1.5" version="1.1" viewBox="0 0 32 32" xml:space="preserve" xmlns="http://www.w3.org/2000/svg">
<metadata>
<rdf:RDF xmlns:cc="http://web.resource.org/cc/" xmlns:dc="http://purl.org/dc/elements/1.1/" xmlns:rdf="http://www.w3.org/1999/02/22-rdf-syntax-ns#">

     <rdf:Description rdf:about="">
       <dc:title>Mutant Standard emoji 2023.12</dc:title>
     </rdf:Description>

    <cc:work rdf:about="">
        <cc:license rdf:resource="http://creativecommons.org/licenses/by-nc-sa/4.0/"/>
        <cc:attributionName>Caius Nocturne</cc:attributionName>
        <cc:attributionURL>http://mutant.tech/</cc:attributionURL>
    </cc:work>

</rdf:RDF>
</metadata>

    <rect id="rice" width="32" height="32" fill="none"/>
    <g id="outline">
        <path d="m5.385 12.692c1.437-5.039 5.649-8.692 10.615-8.692s9.178 3.653 10.615 8.692c1.502 0.652 2.385 1.449 2.385 2.308 0 4.63-2.84 8.647-7 10.648v1.352c0 1.104-2.689 2-6 2s-6-0.896-6-2v-1.352c-4.16-2.001-7-6.018-7-10.648 0-0.859 0.883-1.656 2.385-2.308z" fill="none" stroke="#000" stroke-width="4px"/>
    </g>
    <g id="emoji">
        <path d="m22 27c0 1.104-2.689 2-6 2s-6-0.896-6-2v-2h12v2z" fill="#353535"/>
        <path d="m29 15c0 6.627-5.82 12-13 12-0.776 0-1.535-0.063-2.274-0.183l-2.029-1.441c-1.104-1.545-1.697-3.397-1.697-5.295l1-5.081h5 13zm-23 0 1 3.067c0 1.95 0.36 3.924 0.079 5.662-2.512-2.188-4.079-5.29-4.079-8.729h3z" fill="#4f4f4f"/>
        <path d="m11 15v5.081c0 1.898 0.593 3.75 1.697 5.295l1.029 1.441c-2.549-0.415-4.842-1.516-6.647-3.088-0.709-1.793-1.079-3.712-1.079-5.662v-3.067h5z" fill="#808080"/>
        <ellipse cx="16" cy="15" rx="12.452" ry="3.447" fill="#464646"/>
        <rect x="2" y="10" width="28" height="5" fill="none"/>
        <clipPath id="_clip1">
            <rect x="2" y="10" width="28" height="5"/>
        </clipPath>
        <g clip-path="url(#_clip1)">
            <path d="m16.335 11.001 0.334 4e-3 0.331 7e-3 0.328 9e-3 0.327 0.011 0.324 0.014 0.321 0.017 0.319 0.018 0.315 0.022 0.313 0.023 0.31 0.026 0.307 0.028 0.304 0.03 0.3 0.033 0.297 0.035 0.293 0.037 0.29 0.039 0.286 0.041 0.282 0.043 0.278 0.045 0.275 0.047 0.27 0.049 0.266 0.052 0.261 0.053 0.257 0.054 0.253 0.057 0.248 0.059 0.243 0.06 0.239 0.062 0.233 0.064 0.115 0.032 0.226 0.066 0.111 0.034 0.109 0.034 0.109 0.035 0.107 0.035 0.105 0.035 0.104 0.036 0.103 0.036 0.102 0.036 0.1 0.037 0.099 0.037 0.097 0.038 0.096 0.038 0.094 0.038 0.093 0.039 0.091 0.039 0.09 0.039 0.089 0.04 0.086 0.04 0.086 0.041 0.084 0.04 0.082 0.042 0.081 0.041 0.079 0.042 0.077 0.042 0.076 0.042 0.074 0.043 0.073 0.043 0.071 0.043 0.069 0.043 0.068 0.044 0.066 0.044 0.064 0.045 0.063 0.045 0.061 0.045 0.059 0.045 0.057 0.045 0.056 0.046 0.053 0.046 0.052 0.047 0.051 0.046 0.048 0.047 0.047 0.047 0.044 0.047 0.043 0.048 0.041 0.048 0.04 0.048 0.037 0.048 0.035 0.049 0.034 0.048 0.031 0.049 0.03 0.049 0.027 0.05 0.026 0.049 0.024 0.05 0.021 0.05 0.02 0.05 0.018 0.05 0.015 0.051 0.014 0.05 0.012 0.051 9e-3 0.051 7e-3 0.051 6e-3 0.052 3e-3 0.051 1e-3 0.052-1e-3 0.052-3e-3 0.051-6e-3 0.052-7e-3 0.051-9e-3 0.051-0.012 0.051-0.014 0.05-0.015 0.051-0.018 0.05-0.02 0.05-0.021 0.05-0.024 0.05-0.026 0.049-0.027 0.05-0.03 0.049-0.031 0.049-0.034 0.048-0.035 0.049-0.037 0.048-0.04 0.048-0.041 0.048-0.043 0.048-0.044 0.047-0.047 0.047-0.048 0.047-0.051 0.046-0.052 0.047-0.053 0.046-0.056 0.046-0.057 0.045-0.059 0.045-0.061 0.045-0.063 0.045-0.064 0.045-0.066 0.044-0.068 0.044-0.069 0.043-0.071 0.043-0.073 0.043-0.074 0.043-0.076 0.042-0.077 0.042-0.079 0.042-0.081 0.041-0.082 0.042-0.084 0.04-0.086 0.041-0.086 0.04-0.089 0.04-0.09 0.039-0.091 0.039-0.093 0.039-0.094 0.038-0.096 0.038-0.097 0.038-0.099 0.037-0.1 0.037-0.102 0.036-0.103 0.036-0.104 0.036-0.105 0.035-0.107 0.035-0.109 0.035-0.109 0.034-0.111 0.034-0.226 0.066-0.115 0.032-0.233 0.064-0.239 0.062-0.243 0.06-0.248 0.059-0.253 0.057-0.257 0.054-0.261 0.053-0.266 0.052-0.27 0.049-0.275 0.047-0.278 0.045-0.282 0.043-0.286 0.041-0.29 0.039-0.293 0.037-0.297 0.035-0.3 0.033-0.304 0.03-0.307 0.028-0.31 0.026-0.313 0.023-0.315 0.022-0.319 0.018-0.321 0.017-0.324 0.014-0.327 0.011-0.328 9e-3 -0.331 7e-3 -0.334 4e-3 -0.335 1e-3 -0.335-1e-3 -0.334-4e-3 -0.331-7e-3 -0.328-9e-3 -0.327-0.011-0.324-0.014-0.321-0.017-0.319-0.018-0.315-0.022-0.313-0.023-0.31-0.026-0.307-0.028-0.304-0.03-0.3-0.033-0.297-0.035-0.293-0.037-0.29-0.039-0.286-0.041-0.282-0.043-0.278-0.045-0.275-0.047-0.27-0.049-0.266-0.052-0.261-0.053-0.257-0.054-0.253-0.057-0.248-0.059-0.243-0.06-0.239-0.062-0.233-0.064-0.115-0.032-0.226-0.066-0.111-0.034-0.109-0.034-0.109-0.035-0.107-0.035-0.105-0.035-0.104-0.036-0.103-0.036-0.102-0.036-0.1-0.037-0.099-0.037-0.097-0.038-0.096-0.038-0.094-0.038-0.093-0.039-0.091-0.039-0.09-0.039-0.089-0.04-0.086-0.04-0.086-0.041-0.084-0.04-0.082-0.042-0.081-0.041-0.079-0.042-0.077-0.042-0.076-0.042-0.074-0.043-0.073-0.043-0.071-0.043-0.069-0.043-0.068-0.044-0.066-0.044-0.064-0.045-0.063-0.045-0.061-0.045-0.059-0.045-0.057-0.045-0.056-0.046-0.053-0.046-0.052-0.047-0.051-0.046-0.048-0.047-0.047-0.047-0.044-0.047-0.043-0.048-0.041-0.048-0.04-0.048-0.037-0.048-0.035-0.049-0.034-0.048-0.031-0.049-0.03-0.049-0.027-0.05-0.026-0.049-0.024-0.05-0.021-0.05-0.02-0.05-0.018-0.05-0.015-0.051-0.014-0.05-0.012-0.051-9e-3 -0.051-7e-3 -0.051-6e-3 -0.052-3e-3 -0.051-1e-3 -0.052 1e-3 -0.052 3e-3 -0.051 6e-3 -0.052 7e-3 -0.051 9e-3 -0.051 0.012-0.051 0.014-0.05 0.015-0.051 0.018-0.05 0.02-0.05 0.021-0.05 0.024-0.05 0.026-0.049 0.027-0.05 0.03-0.049 0.031-0.049 0.034-0.048 0.035-0.049 0.037-0.048 0.04-0.048 0.041-0.048 0.043-0.048 0.044-0.047 0.047-0.047 0.048-0.047 0.051-0.046 0.052-0.047 0.053-0.046 0.056-0.046 0.057-0.045 0.059-0.045 0.061-0.045 0.063-0.045 0.064-0.045 0.066-0.044 0.068-0.044 0.069-0.043 0.071-0.043 0.073-0.043 0.074-0.043 0.076-0.042 0.077-0.042 0.079-0.042 0.081-0.041 0.082-0.042 0.084-0.04 0.086-0.041 0.086-0.04 0.089-0.04 0.09-0.039 0.091-0.039 0.093-0.039 0.094-0.038 0.096-0.038 0.097-0.038 0.099-0.037 0.1-0.037 0.102-0.036 0.103-0.036 0.104-0.036 0.105-0.035 0.107-0.035 0.109-0.035 0.109-0.034 0.111-0.034 0.226-0.066 0.115-0.032 0.233-0.064 0.239-0.062 0.243-0.06 0.248-0.059 0.253-0.057 0.257-0.054 0.261-0.053 0.266-0.052 0.27-0.049 0.275-0.047 0.278-0.045 0.282-0.043 0.286-0.041 0.29-0.039 0.293-0.037 0.297-0.035 0.3-0.033 0.304-0.03 0.307-0.028 0.31-0.026 0.313-0.023 0.315-0.022 0.319-0.018 0.321-0.017 0.324-0.014 0.327-0.011 0.328-9e-3 0.331-7e-3 0.334-4e-3 0.335-1e-3 0.335 1e-3zm-0.663 1-0.325 4e-3 -0.323 6e-3 -0.321 9e-3 -0.319 0.011-0.316 0.014-0.313 0.016-0.311 0.018-0.307 0.021-0.305 0.023-0.302 0.025-0.299 0.027-0.295 0.03-0.292 0.032-0.288 0.033-0.285 0.036-0.281 0.038-0.277 0.04-0.273 0.042-0.269 0.043-0.265 0.046-0.261 0.047-0.256 0.05-0.252 0.051-0.247 0.052-0.242 0.055-0.237 0.056-0.232 0.057-0.227 0.059-0.223 0.061-0.107 0.03-0.108 0.032-0.106 0.031-0.208 0.064-0.101 0.032-0.101 0.033-0.099 0.033-0.097 0.034-0.096 0.033-0.094 0.034-0.093 0.034-0.091 0.035-0.089 0.034-0.088 0.035-0.087 0.035-0.084 0.035-0.083 0.036-0.082 0.036-0.079 0.035-0.078 0.036-0.076 0.036-0.075 0.036-0.072 0.037-0.071 0.036-0.069 0.036-0.067 0.037-0.065 0.036-0.064 0.037-0.061 0.036-0.06 0.036-0.057 0.036-0.056 0.036-0.053 0.036-0.052 0.036-0.05 0.035-0.047 0.036-0.046 0.035-0.043 0.034-0.041 0.034-0.04 0.034-0.037 0.033-0.035 0.032-0.033 0.032-0.031 0.032-0.029 0.03-0.027 0.03-0.024 0.029-0.023 0.028-0.021 0.027-0.019 0.025-0.017 0.025-0.015 0.024-0.014 0.023-0.012 0.021-0.01 0.02-0.01 0.019-7e-3 0.018-7e-3 0.017-5e-3 0.015-5e-3 0.014-3e-3 0.014-3e-3 0.012-2e-3 0.012-2e-3 0.011-2e-3 0.022v0.01 0.01l2e-3 0.022 2e-3 0.011 2e-3 0.012 3e-3 0.012 3e-3 0.014 5e-3 0.014 5e-3 0.015 7e-3 0.017 7e-3 0.018 0.01 0.019 0.01 0.02 0.012 0.021 0.014 0.023 0.015 0.024 0.017 0.024 0.019 0.026 0.021 0.027 0.023 0.028 0.024 0.029 0.027 0.03 0.029 0.03 0.031 0.032 0.033 0.032 0.035 0.032 0.037 0.033 0.04 0.034 0.041 0.034 0.043 0.034 0.046 0.035 0.047 0.036 0.05 0.035 0.052 0.036 0.053 0.036 0.056 0.036 0.057 0.036 0.06 0.036 0.061 0.036 0.064 0.037 0.065 0.036 0.067 0.037 0.069 0.036 0.071 0.036 0.072 0.037 0.075 0.036 0.076 0.036 0.078 0.036 0.079 0.035 0.082 0.036 0.083 0.036 0.084 0.035 0.087 0.035 0.088 0.035 0.089 0.034 0.091 0.035 0.093 0.034 0.094 0.034 0.096 0.033 0.098 0.034 0.098 0.033 0.101 0.033 0.101 0.032 0.208 0.064 0.106 0.031 0.108 0.032 0.107 0.03 0.223 0.061 0.227 0.059 0.232 0.057 0.237 0.056 0.242 0.055 0.247 0.052 0.252 0.051 0.256 0.05 0.261 0.047 0.265 0.046 0.269 0.043 0.273 0.042 0.277 0.04 0.281 0.038 0.285 0.036 0.288 0.033 0.292 0.032 0.295 0.03 0.299 0.027 0.302 0.025 0.305 0.023 0.307 0.021 0.311 0.018 0.313 0.016 0.316 0.014 0.319 0.011 0.321 9e-3 0.323 6e-3 0.325 4e-3 0.328 1e-3 0.327-1e-3 0.326-4e-3 0.323-6e-3 0.321-9e-3 0.319-0.011 0.316-0.014 0.313-0.016 0.311-0.018 0.307-0.021 0.305-0.023 0.302-0.025 0.299-0.027 0.295-0.03 0.292-0.032 0.288-0.033 0.285-0.036 0.281-0.038 0.277-0.04 0.273-0.042 0.269-0.043 0.265-0.046 0.261-0.047 0.256-0.05 0.252-0.051 0.247-0.052 0.242-0.055 0.237-0.056 0.232-0.057 0.227-0.059 0.223-0.061 0.107-0.03 0.108-0.032 0.106-0.031 0.208-0.064 0.101-0.032 0.101-0.033 0.098-0.033 0.098-0.034 0.096-0.033 0.094-0.034 0.093-0.034 0.091-0.035 0.089-0.034 0.088-0.035 0.087-0.035 0.084-0.035 0.083-0.036 0.082-0.036 0.079-0.035 0.078-0.036 0.076-0.036 0.075-0.036 0.072-0.037 0.071-0.036 0.069-0.036 0.067-0.037 0.065-0.036 0.064-0.037 0.061-0.036 0.06-0.036 0.057-0.036 0.056-0.036 0.053-0.036 0.052-0.036 0.05-0.035 0.047-0.036 0.046-0.034 0.043-0.035 0.041-0.034 0.04-0.034 0.037-0.033 0.035-0.032 0.033-0.032 0.031-0.032 0.029-0.03 0.027-0.03 0.024-0.029 0.023-0.028 0.021-0.027 0.019-0.026 0.017-0.024 0.015-0.024 0.014-0.023 0.012-0.021 0.01-0.02 0.01-0.019 7e-3 -0.018 7e-3 -0.017 5e-3 -0.015 5e-3 -0.014 3e-3 -0.014 3e-3 -0.012 2e-3 -0.012 2e-3 -0.011 1e-3 -0.011 1e-3 -0.01v-0.011-0.011l-1e-3 -0.01-1e-3 -0.011-2e-3 -0.011-2e-3 -0.012-3e-3 -0.012-3e-3 -0.014-5e-3 -0.014-5e-3 -0.015-7e-3 -0.017-7e-3 -0.018-0.01-0.019-0.01-0.02-0.012-0.021-0.014-0.023-0.015-0.024-0.017-0.024-0.019-0.026-0.021-0.027-0.023-0.028-0.024-0.029-0.027-0.03-0.029-0.03-0.031-0.032-0.033-0.032-0.035-0.032-0.037-0.033-0.04-0.034-0.041-0.034-0.043-0.035-0.046-0.034-0.047-0.036-0.05-0.035-0.052-0.036-0.053-0.036-0.056-0.036-0.057-0.036-0.06-0.036-0.061-0.036-0.064-0.037-0.065-0.036-0.067-0.037-0.069-0.036-0.071-0.036-0.072-0.037-0.075-0.036-0.076-0.036-0.078-0.036-0.079-0.035-0.082-0.036-0.083-0.036-0.084-0.035-0.087-0.035-0.088-0.035-0.089-0.034-0.091-0.035-0.093-0.034-0.094-0.034-0.096-0.033-0.097-0.034-0.099-0.033-0.101-0.033-0.101-0.032-0.208-0.064-0.106-0.031-0.108-0.032-0.107-0.03-0.223-0.061-0.227-0.059-0.232-0.057-0.237-0.056-0.242-0.055-0.247-0.052-0.252-0.051-0.256-0.05-0.261-0.047-0.265-0.046-0.269-0.043-0.273-0.042-0.277-0.04-0.281-0.038-0.285-0.036-0.288-0.033-0.292-0.032-0.295-0.03-0.299-0.027-0.302-0.025-0.305-0.023-0.307-0.021-0.311-0.018-0.313-0.016-0.316-0.014-0.319-0.011-0.321-9e-3 -0.323-6e-3 -0.325-4e-3 -0.328-1e-3 -0.328 1e-3z" fill="#808080"/>
        </g>
        <path d="m4.857 16.536v-0.036c0-6.899 4.993-12.5 11.143-12.5 0.191 0 0.381 5e-3 0.57 0.016l2.396 0.432c2.554 0.791 4.742 2.577 6.21 4.962 0 0 0.061 0.426 0.301 0.931 0 0 0.652 0.945 0.652 0.945 0.651 1.587 1.014 3.353 1.014 5.214v0.036c-2.276 1.162-6.417 1.94-11.143 1.94s-8.867-0.778-11.143-1.94z" fill="#fff"/>
        <path d="m17.113 18.461c-0.197-0.376-0.136-0.852 0.18-1.168l2.001-2.001c0.39-0.39 1.022-0.39 1.412 0 1e-3 0 1e-3 1e-3 1e-3 1e-3 0.391 0.39 0.391 1.024 0 1.414l-1.658 1.658c-0.629 0.047-1.276 0.079-1.936 0.096zm-9.147-0.841 1.328-1.328c0.39-0.39 1.022-0.39 1.412 0l2e-3 2e-3c0.39 0.39 0.39 1.022 0 1.412l-0.371 0.371c-0.845-0.126-1.64-0.28-2.371-0.457zm16.741-3.327c0.391 0.39 0.391 1.024 0 1.414 0 0 0 1e-3 -1e-3 1e-3 -0.39 0.39-1.022 0.39-1.412 0l-2.002-2.002c-0.39-0.39-0.39-1.022 0-1.412l2e-3 -2e-3c0.39-0.39 1.022-0.39 1.412 0l2.001 2.001zm-10 0c0.391 0.39 0.391 1.024 0 1.414 0 0 0 1e-3 -1e-3 1e-3 -0.39 0.39-1.022 0.39-1.412 0l-2.002-2.002c-0.39-0.39-0.39-1.022 0-1.412 0-1e-3 1e-3 -1e-3 1e-3 -1e-3 0.39-0.391 1.024-0.391 1.414 0l2 2zm-4.999-4.999c0.39 0.39 0.39 1.022 0 1.412l-2.002 2.002c-0.39 0.39-1.022 0.39-1.412 0l-2e-3 -2e-3c-0.39-0.39-0.39-1.022 0-1.412l2.002-2.002c0.39-0.39 1.022-0.39 1.412 0l2e-3 2e-3zm10.999-1.001c0.391 0.39 0.391 1.024 0 1.414l-2.001 2.001c-0.39 0.39-1.022 0.39-1.412 0-1e-3 0-1e-3 -1e-3 -1e-3 -1e-3 -0.391-0.39-0.391-1.024 0-1.414l2.001-2.001c0.39-0.39 1.022-0.39 1.412 0 1e-3 0 1e-3 1e-3 1e-3 1e-3zm4.469 1.117c0.363 0.59 0.683 1.218 0.953 1.876l-0.423 0.422c-0.39 0.39-1.022 0.39-1.412 0-1e-3 0-1e-3 -1e-3 -1e-3 -1e-3 -0.391-0.39-0.391-1.024 0-1.414l0.883-0.883zm-10.469-1.117c0.391 0.39 0.391 1.024 0 1.414 0 0 0 1e-3 -1e-3 1e-3 -0.39 0.39-1.022 0.39-1.412 0l-2.001-2.001c-0.391-0.39-0.391-1.024 0-1.414 0 0 0-1e-3 1e-3 -1e-3 0.39-0.39 1.022-0.39 1.412 0l2.001 2.001zm1.863-4.277c0.825 0.047 1.627 0.195 2.396 0.432l-1.26 1.26c-0.39 0.39-1.022 0.39-1.412 0l-2e-3 -2e-3c-0.39-0.39-0.39-1.022 0-1.412l0.278-0.278z" fill="#e1e1e1"/>
        <path d="m30 13-2.407 2h-23.039l-2.554-2v18h28v-18z" fill="none"/>
        <clipPath id="_clip2">
            <path d="m30 13-2.407 2h-23.039l-2.554-2v18h28v-18z"/>
        </clipPath>
        <g clip-path="url(#_clip2)">
            <path d="m16.335 11.001 0.334 4e-3 0.331 7e-3 0.328 9e-3 0.327 0.011 0.324 0.014 0.321 0.017 0.319 0.018 0.315 0.022 0.313 0.023 0.31 0.026 0.307 0.028 0.304 0.03 0.3 0.033 0.297 0.035 0.293 0.037 0.29 0.039 0.286 0.041 0.282 0.043 0.278 0.045 0.275 0.047 0.27 0.049 0.266 0.052 0.261 0.053 0.257 0.054 0.253 0.057 0.248 0.059 0.243 0.06 0.239 0.062 0.233 0.064 0.115 0.032 0.226 0.066 0.111 0.034 0.109 0.034 0.109 0.035 0.107 0.035 0.105 0.035 0.104 0.036 0.103 0.036 0.102 0.036 0.1 0.037 0.099 0.037 0.097 0.038 0.096 0.038 0.094 0.038 0.093 0.039 0.091 0.039 0.09 0.039 0.089 0.04 0.086 0.04 0.086 0.041 0.084 0.04 0.082 0.042 0.081 0.041 0.079 0.042 0.077 0.042 0.076 0.042 0.074 0.043 0.073 0.043 0.071 0.043 0.069 0.043 0.068 0.044 0.066 0.044 0.064 0.045 0.063 0.045 0.061 0.045 0.059 0.045 0.057 0.045 0.056 0.046 0.053 0.046 0.052 0.047 0.051 0.046 0.048 0.047 0.047 0.047 0.044 0.047 0.043 0.048 0.041 0.048 0.04 0.048 0.037 0.048 0.035 0.049 0.034 0.048 0.031 0.049 0.03 0.049 0.027 0.05 0.026 0.049 0.024 0.05 0.021 0.05 0.02 0.05 0.018 0.05 0.015 0.051 0.014 0.05 0.012 0.051 9e-3 0.051 7e-3 0.051 6e-3 0.052 3e-3 0.051 1e-3 0.052-1e-3 0.052-3e-3 0.051-6e-3 0.052-7e-3 0.051-9e-3 0.051-0.012 0.051-0.014 0.05-0.015 0.051-0.018 0.05-0.02 0.05-0.021 0.05-0.024 0.05-0.026 0.049-0.027 0.05-0.03 0.049-0.031 0.049-0.034 0.048-0.035 0.049-0.037 0.048-0.04 0.048-0.041 0.048-0.043 0.048-0.044 0.047-0.047 0.047-0.048 0.047-0.051 0.046-0.052 0.047-0.053 0.046-0.056 0.046-0.057 0.045-0.059 0.045-0.061 0.045-0.063 0.045-0.064 0.045-0.066 0.044-0.068 0.044-0.069 0.043-0.071 0.043-0.073 0.043-0.074 0.043-0.076 0.042-0.077 0.042-0.079 0.042-0.081 0.041-0.082 0.042-0.084 0.04-0.086 0.041-0.086 0.04-0.089 0.04-0.09 0.039-0.091 0.039-0.093 0.039-0.094 0.038-0.096 0.038-0.097 0.038-0.099 0.037-0.1 0.037-0.102 0.036-0.103 0.036-0.104 0.036-0.105 0.035-0.107 0.035-0.109 0.035-0.109 0.034-0.111 0.034-0.226 0.066-0.115 0.032-0.233 0.064-0.239 0.062-0.243 0.06-0.248 0.059-0.253 0.057-0.257 0.054-0.261 0.053-0.266 0.052-0.27 0.049-0.275 0.047-0.278 0.045-0.282 0.043-0.286 0.041-0.29 0.039-0.293 0.037-0.297 0.035-0.3 0.033-0.304 0.03-0.307 0.028-0.31 0.026-0.313 0.023-0.315 0.022-0.319 0.018-0.321 0.017-0.324 0.014-0.327 0.011-0.328 9e-3 -0.331 7e-3 -0.334 4e-3 -0.335 1e-3 -0.335-1e-3 -0.334-4e-3 -0.331-7e-3 -0.328-9e-3 -0.327-0.011-0.324-0.014-0.321-0.017-0.319-0.018-0.315-0.022-0.313-0.023-0.31-0.026-0.307-0.028-0.304-0.03-0.3-0.033-0.297-0.035-0.293-0.037-0.29-0.039-0.286-0.041-0.282-0.043-0.278-0.045-0.275-0.047-0.27-0.049-0.266-0.052-0.261-0.053-0.257-0.054-0.253-0.057-0.248-0.059-0.243-0.06-0.239-0.062-0.233-0.064-0.115-0.032-0.226-0.066-0.111-0.034-0.109-0.034-0.109-0.035-0.107-0.035-0.105-0.035-0.104-0.036-0.103-0.036-0.102-0.036-0.1-0.037-0.099-0.037-0.097-0.038-0.096-0.038-0.094-0.038-0.093-0.039-0.091-0.039-0.09-0.039-0.089-0.04-0.086-0.04-0.086-0.041-0.084-0.04-0.082-0.042-0.081-0.041-0.079-0.042-0.077-0.042-0.076-0.042-0.074-0.043-0.073-0.043-0.071-0.043-0.069-0.043-0.068-0.044-0.066-0.044-0.064-0.045-0.063-0.045-0.061-0.045-0.059-0.045-0.057-0.045-0.056-0.046-0.053-0.046-0.052-0.047-0.051-0.046-0.048-0.047-0.047-0.047-0.044-0.047-0.043-0.048-0.041-0.048-0.04-0.048-0.037-0.048-0.035-0.049-0.034-0.048-0.031-0.049-0.03-0.049-0.027-0.05-0.026-0.049-0.024-0.05-0.021-0.05-0.02-0.05-0.018-0.05-0.015-0.051-0.014-0.05-0.012-0.051-9e-3 -0.051-7e-3 -0.051-6e-3 -0.052-3e-3 -0.051-1e-3 -0.052 1e-3 -0.052 3e-3 -0.051 6e-3 -0.052 7e-3 -0.051 9e-3 -0.051 0.012-0.051 0.014-0.05 0.015-0.051 0.018-0.05 0.02-0.05 0.021-0.05 0.024-0.05 0.026-0.049 0.027-0.05 0.03-0.049 0.031-0.049 0.034-0.048 0.035-0.049 0.037-0.048 0.04-0.048 0.041-0.048 0.043-0.048 0.044-0.047 0.047-0.047 0.048-0.047 0.051-0.046 0.052-0.047 0.053-0.046 0.056-0.046 0.057-0.045 0.059-0.045 0.061-0.045 0.063-0.045 0.064-0.045 0.066-0.044 0.068-0.044 0.069-0.043 0.071-0.043 0.073-0.043 0.074-0.043 0.076-0.042 0.077-0.042 0.079-0.042 0.081-0.041 0.082-0.042 0.084-0.04 0.086-0.041 0.086-0.04 0.089-0.04 0.09-0.039 0.091-0.039 0.093-0.039 0.094-0.038 0.096-0.038 0.097-0.038 0.099-0.037 0.1-0.037 0.102-0.036 0.103-0.036 0.104-0.036 0.105-0.035 0.107-0.035 0.109-0.035 0.109-0.034 0.111-0.034 0.226-0.066 0.115-0.032 0.233-0.064 0.239-0.062 0.243-0.06 0.248-0.059 0.253-0.057 0.257-0.054 0.261-0.053 0.266-0.052 0.27-0.049 0.275-0.047 0.278-0.045 0.282-0.043 0.286-0.041 0.29-0.039 0.293-0.037 0.297-0.035 0.3-0.033 0.304-0.03 0.307-0.028 0.31-0.026 0.313-0.023 0.315-0.022 0.319-0.018 0.321-0.017 0.324-0.014 0.327-0.011 0.328-9e-3 0.331-7e-3 0.334-4e-3 0.335-1e-3 0.335 1e-3zm-0.663 1-0.325 4e-3 -0.323 6e-3 -0.321 9e-3 -0.319 0.011-0.316 0.014-0.313 0.016-0.311 0.018-0.307 0.021-0.305 0.023-0.302 0.025-0.299 0.027-0.295 0.03-0.292 0.032-0.288 0.033-0.285 0.036-0.281 0.038-0.277 0.04-0.273 0.042-0.269 0.043-0.265 0.046-0.261 0.047-0.256 0.05-0.252 0.051-0.247 0.052-0.242 0.055-0.237 0.056-0.232 0.057-0.227 0.059-0.223 0.061-0.107 0.03-0.108 0.032-0.106 0.031-0.208 0.064-0.101 0.032-0.101 0.033-0.099 0.033-0.097 0.034-0.096 0.033-0.094 0.034-0.093 0.034-0.091 0.035-0.089 0.034-0.088 0.035-0.087 0.035-0.084 0.035-0.083 0.036-0.082 0.036-0.079 0.035-0.078 0.036-0.076 0.036-0.075 0.036-0.072 0.037-0.071 0.036-0.069 0.036-0.067 0.037-0.065 0.036-0.064 0.037-0.061 0.036-0.06 0.036-0.057 0.036-0.056 0.036-0.053 0.036-0.052 0.036-0.05 0.035-0.047 0.036-0.046 0.035-0.043 0.034-0.041 0.034-0.04 0.034-0.037 0.033-0.035 0.032-0.033 0.032-0.031 0.032-0.029 0.03-0.027 0.03-0.024 0.029-0.023 0.028-0.021 0.027-0.019 0.025-0.017 0.025-0.015 0.024-0.014 0.023-0.012 0.021-0.01 0.02-0.01 0.019-7e-3 0.018-7e-3 0.017-5e-3 0.015-5e-3 0.014-3e-3 0.014-3e-3 0.012-2e-3 0.012-2e-3 0.011-2e-3 0.022v0.01 0.01l2e-3 0.022 2e-3 0.011 2e-3 0.012 3e-3 0.012 3e-3 0.014 5e-3 0.014 5e-3 0.015 7e-3 0.017 7e-3 0.018 0.01 0.019 0.01 0.02 0.012 0.021 0.014 0.023 0.015 0.024 0.017 0.024 0.019 0.026 0.021 0.027 0.023 0.028 0.024 0.029 0.027 0.03 0.029 0.03 0.031 0.032 0.033 0.032 0.035 0.032 0.037 0.033 0.04 0.034 0.041 0.034 0.043 0.034 0.046 0.035 0.047 0.036 0.05 0.035 0.052 0.036 0.053 0.036 0.056 0.036 0.057 0.036 0.06 0.036 0.061 0.036 0.064 0.037 0.065 0.036 0.067 0.037 0.069 0.036 0.071 0.036 0.072 0.037 0.075 0.036 0.076 0.036 0.078 0.036 0.079 0.035 0.082 0.036 0.083 0.036 0.084 0.035 0.087 0.035 0.088 0.035 0.089 0.034 0.091 0.035 0.093 0.034 0.094 0.034 0.096 0.033 0.098 0.034 0.098 0.033 0.101 0.033 0.101 0.032 0.208 0.064 0.106 0.031 0.108 0.032 0.107 0.03 0.223 0.061 0.227 0.059 0.232 0.057 0.237 0.056 0.242 0.055 0.247 0.052 0.252 0.051 0.256 0.05 0.261 0.047 0.265 0.046 0.269 0.043 0.273 0.042 0.277 0.04 0.281 0.038 0.285 0.036 0.288 0.033 0.292 0.032 0.295 0.03 0.299 0.027 0.302 0.025 0.305 0.023 0.307 0.021 0.311 0.018 0.313 0.016 0.316 0.014 0.319 0.011 0.321 9e-3 0.323 6e-3 0.325 4e-3 0.328 1e-3 0.327-1e-3 0.326-4e-3 0.323-6e-3 0.321-9e-3 0.319-0.011 0.316-0.014 0.313-0.016 0.311-0.018 0.307-0.021 0.305-0.023 0.302-0.025 0.299-0.027 0.295-0.03 0.292-0.032 0.288-0.033 0.285-0.036 0.281-0.038 0.277-0.04 0.273-0.042 0.269-0.043 0.265-0.046 0.261-0.047 0.256-0.05 0.252-0.051 0.247-0.052 0.242-0.055 0.237-0.056 0.232-0.057 0.227-0.059 0.223-0.061 0.107-0.03 0.108-0.032 0.106-0.031 0.208-0.064 0.101-0.032 0.101-0.033 0.098-0.033 0.098-0.034 0.096-0.033 0.094-0.034 0.093-0.034 0.091-0.035 0.089-0.034 0.088-0.035 0.087-0.035 0.084-0.035 0.083-0.036 0.082-0.036 0.079-0.035 0.078-0.036 0.076-0.036 0.075-0.036 0.072-0.037 0.071-0.036 0.069-0.036 0.067-0.037 0.065-0.036 0.064-0.037 0.061-0.036 0.06-0.036 0.057-0.036 0.056-0.036 0.053-0.036 0.052-0.036 0.05-0.035 0.047-0.036 0.046-0.034 0.043-0.035 0.041-0.034 0.04-0.034 0.037-0.033 0.035-0.032 0.033-0.032 0.031-0.032 0.029-0.03 0.027-0.03 0.024-0.029 0.023-0.028 0.021-0.027 0.019-0.026 0.017-0.024 0.015-0.024 0.014-0.023 0.012-0.021 0.01-0.02 0.01-0.019 7e-3 -0.018 7e-3 -0.017 5e-3 -0.015 5e-3 -0.014 3e-3 -0.014 3e-3 -0.012 2e-3 -0.012 2e-3 -0.011 1e-3 -0.011 1e-3 -0.01v-0.011-0.011l-1e-3 -0.01-1e-3 -0.011-2e-3 -0.011-2e-3 -0.012-3e-3 -0.012-3e-3 -0.014-5e-3 -0.014-5e-3 -0.015-7e-3 -0.017-7e-3 -0.018-0.01-0.019-0.01-0.02-0.012-0.021-0.014-0.023-0.015-0.024-0.017-0.024-0.019-0.026-0.021-0.027-0.023-0.028-0.024-0.029-0.027-0.03-0.029-0.03-0.031-0.032-0.033-0.032-0.035-0.032-0.037-0.033-0.04-0.034-0.041-0.034-0.043-0.035-0.046-0.034-0.047-0.036-0.05-0.035-0.052-0.036-0.053-0.036-0.056-0.036-0.057-0.036-0.06-0.036-0.061-0.036-0.064-0.037-0.065-0.036-0.067-0.037-0.069-0.036-0.071-0.036-0.072-0.037-0.075-0.036-0.076-0.036-0.078-0.036-0.079-0.035-0.082-0.036-0.083-0.036-0.084-0.035-0.087-0.035-0.088-0.035-0.089-0.034-0.091-0.035-0.093-0.034-0.094-0.034-0.096-0.033-0.097-0.034-0.099-0.033-0.101-0.033-0.101-0.032-0.208-0.064-0.106-0.031-0.108-0.032-0.107-0.03-0.223-0.061-0.227-0.059-0.232-0.057-0.237-0.056-0.242-0.055-0.247-0.052-0.252-0.051-0.256-0.05-0.261-0.047-0.265-0.046-0.269-0.043-0.273-0.042-0.277-0.04-0.281-0.038-0.285-0.036-0.288-0.033-0.292-0.032-0.295-0.03-0.299-0.027-0.302-0.025-0.305-0.023-0.307-0.021-0.311-0.018-0.313-0.016-0.316-0.014-0.319-0.011-0.321-9e-3 -0.323-6e-3 -0.325-4e-3 -0.328-1e-3 -0.328 1e-3z" fill="#808080"/>
        </g>
    </g>
</svg>
