<?xml version="1.0" encoding="UTF-8"?>
<!DOCTYPE svg  PUBLIC '-//W3C//DTD SVG 1.1//EN'  'http://www.w3.org/Graphics/SVG/1.1/DTD/svg11.dtd'>
<svg clip-rule="evenodd" fill-rule="evenodd" stroke-linecap="square" stroke-linejoin="round" stroke-miterlimit="1.5" version="1.1" viewBox="0 0 32 32" xml:space="preserve" xmlns="http://www.w3.org/2000/svg">
<metadata>
<rdf:RDF xmlns:cc="http://web.resource.org/cc/" xmlns:dc="http://purl.org/dc/elements/1.1/" xmlns:rdf="http://www.w3.org/1999/02/22-rdf-syntax-ns#">

     <rdf:Description rdf:about="">
       <dc:title>Mutant Standard emoji 2023.12</dc:title>
     </rdf:Description>

    <cc:work rdf:about="">
        <cc:license rdf:resource="http://creativecommons.org/licenses/by-nc-sa/4.0/"/>
        <cc:attributionName>Caius Nocturne</cc:attributionName>
        <cc:attributionURL>http://mutant.tech/</cc:attributionURL>
    </cc:work>

</rdf:RDF>
</metadata>

    <rect id="shaved_ice" width="32" height="32" fill="none"/>
    <clipPath id="_clip1">
        <rect width="32" height="32"/>
    </clipPath>
    <g clip-path="url(#_clip1)">
        <g id="outline">
            <path d="m6.337 13.325 3.825-7.65c1.106-2.211 3.366-3.607 5.838-3.607s4.732 1.396 5.838 3.607l3.825 7.65c2.074 0.709 3.337 1.647 3.337 2.675v1.172c0 0.542-0.147 1.074-0.425 1.539l-5.675 9.5c-0.01 0.018-0.021 0.035-0.032 0.053v1e-3c-0.634 0.988-3.47 1.735-6.868 1.735s-6.234-0.747-6.868-1.735v-1e-3c-0.011-0.018-0.022-0.035-0.032-0.053l-5.675-9.5c-0.278-0.465-0.425-0.997-0.425-1.539v-1.172c0-1.028 1.263-1.966 3.337-2.675z" fill="none" stroke="#000" stroke-width="4px"/>
        </g>
        <g id="emoji">
            <path d="m29 16v1.172c0 0.542-0.147 1.074-0.425 1.539l-5.675 9.5c-0.01 0.018-0.021 0.035-0.032 0.053v1e-3c-0.634 0.988-3.47 1.735-6.868 1.735s-6.234-0.747-6.868-1.735v-1e-3c-0.011-0.018-0.022-0.035-0.032-0.053l-5.675-9.5c-0.278-0.465-0.425-0.997-0.425-1.539v-1.172h26z" fill="#338ceb"/>
            <ellipse cx="16" cy="16" rx="13" ry="4" fill="#136cc5"/>
            <path d="m16.335 12.001 0.334 4e-3 0.331 7e-3 0.328 9e-3 0.327 0.011 0.324 0.014 0.321 0.017 0.319 0.018 0.315 0.022 0.313 0.023 0.31 0.026 0.307 0.028 0.304 0.03 0.3 0.033 0.297 0.035 0.293 0.037 0.29 0.039 0.286 0.041 0.282 0.043 0.278 0.045 0.275 0.047 0.27 0.049 0.266 0.052 0.261 0.053 0.257 0.054 0.253 0.057 0.248 0.059 0.243 0.06 0.239 0.062 0.233 0.064 0.115 0.032 0.226 0.066 0.111 0.034 0.109 0.034 0.109 0.035 0.107 0.035 0.105 0.035 0.104 0.036 0.103 0.036 0.102 0.036 0.1 0.037 0.099 0.037 0.097 0.038 0.096 0.038 0.094 0.038 0.093 0.039 0.091 0.039 0.09 0.039 0.089 0.04 0.086 0.04 0.086 0.041 0.084 0.04 0.082 0.042 0.081 0.041 0.079 0.042 0.077 0.042 0.076 0.042 0.074 0.043 0.073 0.043 0.071 0.043 0.069 0.043 0.068 0.044 0.066 0.044 0.064 0.045 0.063 0.045 0.061 0.045 0.059 0.045 0.057 0.045 0.056 0.046 0.053 0.046 0.052 0.047 0.051 0.046 0.048 0.047 0.047 0.047 0.044 0.047 0.043 0.048 0.041 0.048 0.04 0.048 0.037 0.048 0.035 0.049 0.034 0.048 0.031 0.049 0.03 0.049 0.027 0.05 0.026 0.049 0.024 0.05 0.021 0.05 0.02 0.05 0.018 0.05 0.015 0.051 0.014 0.05 0.012 0.051 9e-3 0.051 7e-3 0.051 6e-3 0.052 3e-3 0.051 1e-3 0.052-1e-3 0.052-3e-3 0.051-6e-3 0.052-7e-3 0.051-9e-3 0.051-0.012 0.051-0.014 0.05-0.015 0.051-0.018 0.05-0.02 0.05-0.021 0.05-0.024 0.05-0.026 0.049-0.027 0.05-0.03 0.049-0.031 0.049-0.034 0.048-0.035 0.049-0.037 0.048-0.04 0.048-0.041 0.048-0.043 0.048-0.044 0.047-0.047 0.047-0.048 0.047-0.051 0.046-0.052 0.047-0.053 0.046-0.056 0.046-0.057 0.045-0.059 0.045-0.061 0.045-0.063 0.045-0.064 0.045-0.066 0.044-0.068 0.044-0.069 0.043-0.071 0.043-0.073 0.043-0.074 0.043-0.076 0.042-0.077 0.042-0.079 0.042-0.081 0.041-0.082 0.042-0.084 0.04-0.086 0.041-0.086 0.04-0.089 0.04-0.09 0.039-0.091 0.039-0.093 0.039-0.094 0.038-0.096 0.038-0.097 0.038-0.099 0.037-0.1 0.037-0.102 0.036-0.103 0.036-0.104 0.036-0.105 0.035-0.107 0.035-0.109 0.035-0.109 0.034-0.111 0.034-0.226 0.066-0.115 0.032-0.233 0.064-0.239 0.062-0.243 0.06-0.248 0.059-0.253 0.057-0.257 0.054-0.261 0.053-0.266 0.052-0.27 0.049-0.275 0.047-0.278 0.045-0.282 0.043-0.286 0.041-0.29 0.039-0.293 0.037-0.297 0.035-0.3 0.033-0.304 0.03-0.307 0.028-0.31 0.026-0.313 0.023-0.315 0.022-0.319 0.018-0.321 0.017-0.324 0.014-0.327 0.011-0.328 9e-3 -0.331 7e-3 -0.334 4e-3 -0.335 1e-3 -0.335-1e-3 -0.334-4e-3 -0.331-7e-3 -0.328-9e-3 -0.327-0.011-0.324-0.014-0.321-0.017-0.319-0.018-0.315-0.022-0.313-0.023-0.31-0.026-0.307-0.028-0.304-0.03-0.3-0.033-0.297-0.035-0.293-0.037-0.29-0.039-0.286-0.041-0.282-0.043-0.278-0.045-0.275-0.047-0.27-0.049-0.266-0.052-0.261-0.053-0.257-0.054-0.253-0.057-0.248-0.059-0.243-0.06-0.239-0.062-0.233-0.064-0.115-0.032-0.226-0.066-0.111-0.034-0.109-0.034-0.109-0.035-0.107-0.035-0.105-0.035-0.104-0.036-0.103-0.036-0.102-0.036-0.1-0.037-0.099-0.037-0.097-0.038-0.096-0.038-0.094-0.038-0.093-0.039-0.091-0.039-0.09-0.039-0.089-0.04-0.086-0.04-0.086-0.041-0.084-0.04-0.082-0.042-0.081-0.041-0.079-0.042-0.077-0.042-0.076-0.042-0.074-0.043-0.073-0.043-0.071-0.043-0.069-0.043-0.068-0.044-0.066-0.044-0.064-0.045-0.063-0.045-0.061-0.045-0.059-0.045-0.057-0.045-0.056-0.046-0.053-0.046-0.052-0.047-0.051-0.046-0.048-0.047-0.047-0.047-0.044-0.047-0.043-0.048-0.041-0.048-0.04-0.048-0.037-0.048-0.035-0.049-0.034-0.048-0.031-0.049-0.03-0.049-0.027-0.05-0.026-0.049-0.024-0.05-0.021-0.05-0.02-0.05-0.018-0.05-0.015-0.051-0.014-0.05-0.012-0.051-9e-3 -0.051-7e-3 -0.051-6e-3 -0.052-3e-3 -0.051-1e-3 -0.052 1e-3 -0.052 3e-3 -0.051 6e-3 -0.052 7e-3 -0.051 9e-3 -0.051 0.012-0.051 0.014-0.05 0.015-0.051 0.018-0.05 0.02-0.05 0.021-0.05 0.024-0.05 0.026-0.049 0.027-0.05 0.03-0.049 0.031-0.049 0.034-0.048 0.035-0.049 0.037-0.048 0.04-0.048 0.041-0.048 0.043-0.048 0.044-0.047 0.047-0.047 0.048-0.047 0.051-0.046 0.052-0.047 0.053-0.046 0.056-0.046 0.057-0.045 0.059-0.045 0.061-0.045 0.063-0.045 0.064-0.045 0.066-0.044 0.068-0.044 0.069-0.043 0.071-0.043 0.073-0.043 0.074-0.043 0.076-0.042 0.077-0.042 0.079-0.042 0.081-0.041 0.082-0.042 0.084-0.04 0.086-0.041 0.086-0.04 0.089-0.04 0.09-0.039 0.091-0.039 0.093-0.039 0.094-0.038 0.096-0.038 0.097-0.038 0.099-0.037 0.1-0.037 0.102-0.036 0.103-0.036 0.104-0.036 0.105-0.035 0.107-0.035 0.109-0.035 0.109-0.034 0.111-0.034 0.226-0.066 0.115-0.032 0.233-0.064 0.239-0.062 0.243-0.06 0.248-0.059 0.253-0.057 0.257-0.054 0.261-0.053 0.266-0.052 0.27-0.049 0.275-0.047 0.278-0.045 0.282-0.043 0.286-0.041 0.29-0.039 0.293-0.037 0.297-0.035 0.3-0.033 0.304-0.03 0.307-0.028 0.31-0.026 0.313-0.023 0.315-0.022 0.319-0.018 0.321-0.017 0.324-0.014 0.327-0.011 0.328-9e-3 0.331-7e-3 0.334-4e-3 0.335-1e-3 0.335 1e-3zm-0.659 1.5-0.321 4e-3 -0.319 6e-3 -0.317 9e-3 -0.315 0.011-0.312 0.013-0.31 0.016-0.306 0.018-0.304 0.021-0.301 0.022-0.297 0.025-0.295 0.027-0.291 0.029-0.288 0.031-0.284 0.034-0.28 0.035-0.277 0.037-0.273 0.039-0.268 0.042-0.265 0.043-0.26 0.044-0.256 0.047-0.251 0.048-0.247 0.05-0.242 0.052-0.237 0.053-0.231 0.055-0.227 0.056-0.221 0.057-0.218 0.06-0.104 0.029-0.104 0.03-0.103 0.031-0.101 0.031-0.1 0.031-0.099 0.031-0.097 0.032-0.095 0.032-0.094 0.032-0.092 0.032-0.091 0.033-0.089 0.033-0.087 0.033-0.086 0.033-0.084 0.033-0.082 0.034-0.081 0.033-0.079 0.034-0.077 0.034-0.075 0.033-0.073 0.034-0.072 0.034-0.07 0.034-0.067 0.034-0.066 0.034-0.064 0.033-0.062 0.034-0.06 0.033-0.058 0.034-0.056 0.033-0.054 0.032-0.051 0.033-0.05 0.032-0.047 0.032-0.046 0.031-0.043 0.031-0.04 0.03-0.039 0.03-0.037 0.029-0.034 0.028-0.032 0.027-0.03 0.027-0.027 0.025-0.026 0.025-0.023 0.023-0.021 0.022-0.018 0.021-0.017 0.02-0.015 0.017-0.012 0.017-2e-3 2e-3 0.014 0.019 0.015 0.017 0.017 0.02 0.018 0.021 0.021 0.022 0.023 0.023 0.026 0.025 0.027 0.025 0.03 0.027 0.032 0.027 0.034 0.028 0.037 0.029 0.039 0.03 0.04 0.03 0.043 0.031 0.046 0.031 0.047 0.032 0.05 0.032 0.051 0.033 0.054 0.032 0.056 0.033 0.058 0.034 0.06 0.033 0.062 0.034 0.064 0.033 0.066 0.034 0.067 0.034 0.07 0.034 0.072 0.034 0.073 0.034 0.075 0.033 0.077 0.034 0.079 0.034 0.081 0.033 0.082 0.034 0.084 0.033 0.086 0.033 0.087 0.033 0.089 0.033 0.091 0.033 0.092 0.032 0.094 0.032 0.095 0.032 0.097 0.032 0.099 0.031 0.1 0.031 0.101 0.031 0.103 0.031 0.104 0.03 0.104 0.029 0.218 0.06 0.221 0.057 0.227 0.056 0.231 0.055 0.237 0.053 0.242 0.052 0.247 0.05 0.251 0.048 0.256 0.047 0.26 0.044 0.265 0.043 0.268 0.042 0.273 0.039 0.277 0.037 0.28 0.035 0.284 0.034 0.288 0.031 0.291 0.029 0.295 0.027 0.297 0.025 0.301 0.022 0.304 0.021 0.306 0.018 0.31 0.016 0.312 0.013 0.315 0.011 0.317 9e-3 0.319 6e-3 0.321 4e-3 0.324 1e-3 0.324-1e-3 0.321-4e-3 0.319-6e-3 0.317-9e-3 0.315-0.011 0.312-0.013 0.31-0.016 0.306-0.018 0.304-0.021 0.301-0.022 0.297-0.025 0.295-0.027 0.291-0.029 0.288-0.031 0.284-0.034 0.28-0.035 0.277-0.037 0.273-0.039 0.268-0.042 0.265-0.043 0.26-0.044 0.256-0.047 0.251-0.048 0.247-0.05 0.242-0.052 0.237-0.053 0.231-0.055 0.227-0.056 0.221-0.057 0.218-0.06 0.104-0.029 0.104-0.03 0.103-0.031 0.101-0.031 0.1-0.031 0.099-0.031 0.097-0.032 0.095-0.032 0.094-0.032 0.092-0.032 0.091-0.033 0.089-0.033 0.087-0.033 0.086-0.033 0.084-0.033 0.082-0.034 0.081-0.033 0.079-0.034 0.077-0.034 0.075-0.033 0.073-0.034 0.072-0.034 0.07-0.034 0.067-0.034 0.066-0.034 0.064-0.033 0.062-0.034 0.06-0.033 0.058-0.034 0.056-0.033 0.054-0.032 0.051-0.033 0.05-0.032 0.047-0.032 0.046-0.031 0.043-0.031 0.04-0.03 0.039-0.03 0.037-0.029 0.034-0.028 0.032-0.027 0.03-0.027 0.027-0.025 0.026-0.025 0.023-0.023 0.021-0.022 0.018-0.021 0.017-0.02 0.015-0.017 0.012-0.017 2e-3 -2e-3 -2e-3 -2e-3 -0.012-0.017-0.015-0.017-0.017-0.02-0.018-0.021-0.021-0.022-0.023-0.023-0.026-0.025-0.027-0.025-0.03-0.027-0.032-0.027-0.034-0.028-0.037-0.029-0.039-0.03-0.04-0.03-0.043-0.031-0.046-0.031-0.047-0.032-0.05-0.032-0.051-0.033-0.054-0.032-0.056-0.033-0.058-0.034-0.06-0.033-0.062-0.034-0.064-0.033-0.066-0.034-0.067-0.034-0.07-0.034-0.072-0.034-0.073-0.034-0.075-0.033-0.077-0.034-0.079-0.034-0.081-0.033-0.082-0.034-0.084-0.033-0.086-0.033-0.087-0.033-0.089-0.033-0.091-0.033-0.092-0.032-0.094-0.032-0.095-0.032-0.097-0.032-0.099-0.031-0.1-0.031-0.101-0.031-0.103-0.031-0.104-0.03-0.104-0.029-0.218-0.06-0.221-0.057-0.227-0.056-0.231-0.055-0.237-0.053-0.242-0.052-0.247-0.05-0.251-0.048-0.256-0.047-0.26-0.044-0.265-0.043-0.268-0.042-0.273-0.039-0.277-0.037-0.28-0.035-0.284-0.034-0.288-0.031-0.291-0.029-0.295-0.027-0.297-0.025-0.301-0.022-0.304-0.021-0.306-0.018-0.31-0.016-0.312-0.013-0.315-0.011-0.317-9e-3 -0.319-6e-3 -0.321-4e-3 -0.324-1e-3 -0.324 1e-3z" fill="#68aef9"/>
            <path d="m7.012 11.977c0.232 0.351 2.174-1.852 4.77-1.455 2.186 0.334 6.72 3e-3 9.115 0.754 3.681 1.153 4.905 3.419 5.025 3.334 0.052 0.344 0.078 0.693 0.078 1.042v2.348l-10 1-10-1v-2.348c0-1.086 0.253-2.158 0.739-3.13l0.273-0.545z" fill="#fff"/>
            <path d="m9 8 3.521-2.623 9.028 1.112 2.784 4.178 0.928 1.855c0.329 0.659 0.552 1.364 0.661 2.088-0.29 0.205-0.634 0.329-0.996 0.355-0.57 0.04-1.13-0.169-1.534-0.573-0.369-0.369-0.87-0.577-1.392-0.577s-1.023 0.208-1.392 0.577l-1.729 1.729c-0.563 0.563-1.326 0.879-2.122 0.879h-1.235c-0.669 0-1.31-0.266-1.783-0.739s-0.739-1.114-0.739-1.783v-2e-3c0-0.557-0.276-1.077-0.736-1.388-0.461-0.312-1.046-0.375-1.562-0.169-0.098 0.039-0.195 0.078-0.293 0.117-1.254 0.502-2.669 0.041-3.397-1.059l1.988-3.977z" fill="#ffb8c9"/>
            <path d="m9 8 1.162-2.325c1.106-2.211 3.366-3.607 5.838-3.607s4.732 1.396 5.838 3.607l2.495 4.992-0.555 0.138c-0.454 0.114-0.927-0.103-1.137-0.522l-0.021-0.042c-0.143-0.288-0.416-0.488-0.734-0.54-0.317-0.051-0.64 0.053-0.867 0.28l-2.433 2.433c-0.375 0.375-0.884 0.586-1.414 0.586h-0.172c-0.53 0-1.039-0.211-1.414-0.586s-0.586-0.884-0.586-1.414v-2.919c0-0.385-0.22-0.735-0.567-0.902-0.346-0.166-0.758-0.119-1.058 0.121-0.795 0.636-1.727 1.381-2.409 1.927-0.236 0.189-0.544 0.261-0.839 0.196s-0.545-0.259-0.68-0.529l-0.447-0.894z" fill="#f63a69"/>
            <rect x="2" y="16" width="28" height="9" fill="none"/>
            <clipPath id="_clip2">
                <rect x="2" y="16" width="28" height="9"/>
            </clipPath>
            <g clip-path="url(#_clip2)">
                <path d="m16.335 12.001 0.334 4e-3 0.331 7e-3 0.328 9e-3 0.327 0.011 0.324 0.014 0.321 0.017 0.319 0.018 0.315 0.022 0.313 0.023 0.31 0.026 0.307 0.028 0.304 0.03 0.3 0.033 0.297 0.035 0.293 0.037 0.29 0.039 0.286 0.041 0.282 0.043 0.278 0.045 0.275 0.047 0.27 0.049 0.266 0.052 0.261 0.053 0.257 0.054 0.253 0.057 0.248 0.059 0.243 0.06 0.239 0.062 0.233 0.064 0.115 0.032 0.226 0.066 0.111 0.034 0.109 0.034 0.109 0.035 0.107 0.035 0.105 0.035 0.104 0.036 0.103 0.036 0.102 0.036 0.1 0.037 0.099 0.037 0.097 0.038 0.096 0.038 0.094 0.038 0.093 0.039 0.091 0.039 0.09 0.039 0.089 0.04 0.086 0.04 0.086 0.041 0.084 0.04 0.082 0.042 0.081 0.041 0.079 0.042 0.077 0.042 0.076 0.042 0.074 0.043 0.073 0.043 0.071 0.043 0.069 0.043 0.068 0.044 0.066 0.044 0.064 0.045 0.063 0.045 0.061 0.045 0.059 0.045 0.057 0.045 0.056 0.046 0.053 0.046 0.052 0.047 0.051 0.046 0.048 0.047 0.047 0.047 0.044 0.047 0.043 0.048 0.041 0.048 0.04 0.048 0.037 0.048 0.035 0.049 0.034 0.048 0.031 0.049 0.03 0.049 0.027 0.05 0.026 0.049 0.024 0.05 0.021 0.05 0.02 0.05 0.018 0.05 0.015 0.051 0.014 0.05 0.012 0.051 9e-3 0.051 7e-3 0.051 6e-3 0.052 3e-3 0.051 1e-3 0.052-1e-3 0.052-3e-3 0.051-6e-3 0.052-7e-3 0.051-9e-3 0.051-0.012 0.051-0.014 0.05-0.015 0.051-0.018 0.05-0.02 0.05-0.021 0.05-0.024 0.05-0.026 0.049-0.027 0.05-0.03 0.049-0.031 0.049-0.034 0.048-0.035 0.049-0.037 0.048-0.04 0.048-0.041 0.048-0.043 0.048-0.044 0.047-0.047 0.047-0.048 0.047-0.051 0.046-0.052 0.047-0.053 0.046-0.056 0.046-0.057 0.045-0.059 0.045-0.061 0.045-0.063 0.045-0.064 0.045-0.066 0.044-0.068 0.044-0.069 0.043-0.071 0.043-0.073 0.043-0.074 0.043-0.076 0.042-0.077 0.042-0.079 0.042-0.081 0.041-0.082 0.042-0.084 0.04-0.086 0.041-0.086 0.04-0.089 0.04-0.09 0.039-0.091 0.039-0.093 0.039-0.094 0.038-0.096 0.038-0.097 0.038-0.099 0.037-0.1 0.037-0.102 0.036-0.103 0.036-0.104 0.036-0.105 0.035-0.107 0.035-0.109 0.035-0.109 0.034-0.111 0.034-0.226 0.066-0.115 0.032-0.233 0.064-0.239 0.062-0.243 0.06-0.248 0.059-0.253 0.057-0.257 0.054-0.261 0.053-0.266 0.052-0.27 0.049-0.275 0.047-0.278 0.045-0.282 0.043-0.286 0.041-0.29 0.039-0.293 0.037-0.297 0.035-0.3 0.033-0.304 0.03-0.307 0.028-0.31 0.026-0.313 0.023-0.315 0.022-0.319 0.018-0.321 0.017-0.324 0.014-0.327 0.011-0.328 9e-3 -0.331 7e-3 -0.334 4e-3 -0.335 1e-3 -0.335-1e-3 -0.334-4e-3 -0.331-7e-3 -0.328-9e-3 -0.327-0.011-0.324-0.014-0.321-0.017-0.319-0.018-0.315-0.022-0.313-0.023-0.31-0.026-0.307-0.028-0.304-0.03-0.3-0.033-0.297-0.035-0.293-0.037-0.29-0.039-0.286-0.041-0.282-0.043-0.278-0.045-0.275-0.047-0.27-0.049-0.266-0.052-0.261-0.053-0.257-0.054-0.253-0.057-0.248-0.059-0.243-0.06-0.239-0.062-0.233-0.064-0.115-0.032-0.226-0.066-0.111-0.034-0.109-0.034-0.109-0.035-0.107-0.035-0.105-0.035-0.104-0.036-0.103-0.036-0.102-0.036-0.1-0.037-0.099-0.037-0.097-0.038-0.096-0.038-0.094-0.038-0.093-0.039-0.091-0.039-0.09-0.039-0.089-0.04-0.086-0.04-0.086-0.041-0.084-0.04-0.082-0.042-0.081-0.041-0.079-0.042-0.077-0.042-0.076-0.042-0.074-0.043-0.073-0.043-0.071-0.043-0.069-0.043-0.068-0.044-0.066-0.044-0.064-0.045-0.063-0.045-0.061-0.045-0.059-0.045-0.057-0.045-0.056-0.046-0.053-0.046-0.052-0.047-0.051-0.046-0.048-0.047-0.047-0.047-0.044-0.047-0.043-0.048-0.041-0.048-0.04-0.048-0.037-0.048-0.035-0.049-0.034-0.048-0.031-0.049-0.03-0.049-0.027-0.05-0.026-0.049-0.024-0.05-0.021-0.05-0.02-0.05-0.018-0.05-0.015-0.051-0.014-0.05-0.012-0.051-9e-3 -0.051-7e-3 -0.051-6e-3 -0.052-3e-3 -0.051-1e-3 -0.052 1e-3 -0.052 3e-3 -0.051 6e-3 -0.052 7e-3 -0.051 9e-3 -0.051 0.012-0.051 0.014-0.05 0.015-0.051 0.018-0.05 0.02-0.05 0.021-0.05 0.024-0.05 0.026-0.049 0.027-0.05 0.03-0.049 0.031-0.049 0.034-0.048 0.035-0.049 0.037-0.048 0.04-0.048 0.041-0.048 0.043-0.048 0.044-0.047 0.047-0.047 0.048-0.047 0.051-0.046 0.052-0.047 0.053-0.046 0.056-0.046 0.057-0.045 0.059-0.045 0.061-0.045 0.063-0.045 0.064-0.045 0.066-0.044 0.068-0.044 0.069-0.043 0.071-0.043 0.073-0.043 0.074-0.043 0.076-0.042 0.077-0.042 0.079-0.042 0.081-0.041 0.082-0.042 0.084-0.04 0.086-0.041 0.086-0.04 0.089-0.04 0.09-0.039 0.091-0.039 0.093-0.039 0.094-0.038 0.096-0.038 0.097-0.038 0.099-0.037 0.1-0.037 0.102-0.036 0.103-0.036 0.104-0.036 0.105-0.035 0.107-0.035 0.109-0.035 0.109-0.034 0.111-0.034 0.226-0.066 0.115-0.032 0.233-0.064 0.239-0.062 0.243-0.06 0.248-0.059 0.253-0.057 0.257-0.054 0.261-0.053 0.266-0.052 0.27-0.049 0.275-0.047 0.278-0.045 0.282-0.043 0.286-0.041 0.29-0.039 0.293-0.037 0.297-0.035 0.3-0.033 0.304-0.03 0.307-0.028 0.31-0.026 0.313-0.023 0.315-0.022 0.319-0.018 0.321-0.017 0.324-0.014 0.327-0.011 0.328-9e-3 0.331-7e-3 0.334-4e-3 0.335-1e-3 0.335 1e-3zm-0.659 1.5-0.321 4e-3 -0.319 6e-3 -0.317 9e-3 -0.315 0.011-0.312 0.013-0.31 0.016-0.306 0.018-0.304 0.021-0.301 0.022-0.297 0.025-0.295 0.027-0.291 0.029-0.288 0.031-0.284 0.034-0.28 0.035-0.277 0.037-0.273 0.039-0.268 0.042-0.265 0.043-0.26 0.044-0.256 0.047-0.251 0.048-0.247 0.05-0.242 0.052-0.237 0.053-0.231 0.055-0.227 0.056-0.221 0.057-0.218 0.06-0.104 0.029-0.104 0.03-0.103 0.031-0.101 0.031-0.1 0.031-0.099 0.031-0.097 0.032-0.095 0.032-0.094 0.032-0.092 0.032-0.091 0.033-0.089 0.033-0.087 0.033-0.086 0.033-0.084 0.033-0.082 0.034-0.081 0.033-0.079 0.034-0.077 0.034-0.075 0.033-0.073 0.034-0.072 0.034-0.07 0.034-0.067 0.034-0.066 0.034-0.064 0.033-0.062 0.034-0.06 0.033-0.058 0.034-0.056 0.033-0.054 0.032-0.051 0.033-0.05 0.032-0.047 0.032-0.046 0.031-0.043 0.031-0.04 0.03-0.039 0.03-0.037 0.029-0.034 0.028-0.032 0.027-0.03 0.027-0.027 0.025-0.026 0.025-0.023 0.023-0.021 0.022-0.018 0.021-0.017 0.02-0.015 0.017-0.012 0.017-2e-3 2e-3 0.014 0.019 0.015 0.017 0.017 0.02 0.018 0.021 0.021 0.022 0.023 0.023 0.026 0.025 0.027 0.025 0.03 0.027 0.032 0.027 0.034 0.028 0.037 0.029 0.039 0.03 0.04 0.03 0.043 0.031 0.046 0.031 0.047 0.032 0.05 0.032 0.051 0.033 0.054 0.032 0.056 0.033 0.058 0.034 0.06 0.033 0.062 0.034 0.064 0.033 0.066 0.034 0.067 0.034 0.07 0.034 0.072 0.034 0.073 0.034 0.075 0.033 0.077 0.034 0.079 0.034 0.081 0.033 0.082 0.034 0.084 0.033 0.086 0.033 0.087 0.033 0.089 0.033 0.091 0.033 0.092 0.032 0.094 0.032 0.095 0.032 0.097 0.032 0.099 0.031 0.1 0.031 0.101 0.031 0.103 0.031 0.104 0.03 0.104 0.029 0.218 0.06 0.221 0.057 0.227 0.056 0.231 0.055 0.237 0.053 0.242 0.052 0.247 0.05 0.251 0.048 0.256 0.047 0.26 0.044 0.265 0.043 0.268 0.042 0.273 0.039 0.277 0.037 0.28 0.035 0.284 0.034 0.288 0.031 0.291 0.029 0.295 0.027 0.297 0.025 0.301 0.022 0.304 0.021 0.306 0.018 0.31 0.016 0.312 0.013 0.315 0.011 0.317 9e-3 0.319 6e-3 0.321 4e-3 0.324 1e-3 0.324-1e-3 0.321-4e-3 0.319-6e-3 0.317-9e-3 0.315-0.011 0.312-0.013 0.31-0.016 0.306-0.018 0.304-0.021 0.301-0.022 0.297-0.025 0.295-0.027 0.291-0.029 0.288-0.031 0.284-0.034 0.28-0.035 0.277-0.037 0.273-0.039 0.268-0.042 0.265-0.043 0.26-0.044 0.256-0.047 0.251-0.048 0.247-0.05 0.242-0.052 0.237-0.053 0.231-0.055 0.227-0.056 0.221-0.057 0.218-0.06 0.104-0.029 0.104-0.03 0.103-0.031 0.101-0.031 0.1-0.031 0.099-0.031 0.097-0.032 0.095-0.032 0.094-0.032 0.092-0.032 0.091-0.033 0.089-0.033 0.087-0.033 0.086-0.033 0.084-0.033 0.082-0.034 0.081-0.033 0.079-0.034 0.077-0.034 0.075-0.033 0.073-0.034 0.072-0.034 0.07-0.034 0.067-0.034 0.066-0.034 0.064-0.033 0.062-0.034 0.06-0.033 0.058-0.034 0.056-0.033 0.054-0.032 0.051-0.033 0.05-0.032 0.047-0.032 0.046-0.031 0.043-0.031 0.04-0.03 0.039-0.03 0.037-0.029 0.034-0.028 0.032-0.027 0.03-0.027 0.027-0.025 0.026-0.025 0.023-0.023 0.021-0.022 0.018-0.021 0.017-0.02 0.015-0.017 0.012-0.017 2e-3 -2e-3 -2e-3 -2e-3 -0.012-0.017-0.015-0.017-0.017-0.02-0.018-0.021-0.021-0.022-0.023-0.023-0.026-0.025-0.027-0.025-0.03-0.027-0.032-0.027-0.034-0.028-0.037-0.029-0.039-0.03-0.04-0.03-0.043-0.031-0.046-0.031-0.047-0.032-0.05-0.032-0.051-0.033-0.054-0.032-0.056-0.033-0.058-0.034-0.06-0.033-0.062-0.034-0.064-0.033-0.066-0.034-0.067-0.034-0.07-0.034-0.072-0.034-0.073-0.034-0.075-0.033-0.077-0.034-0.079-0.034-0.081-0.033-0.082-0.034-0.084-0.033-0.086-0.033-0.087-0.033-0.089-0.033-0.091-0.033-0.092-0.032-0.094-0.032-0.095-0.032-0.097-0.032-0.099-0.031-0.1-0.031-0.101-0.031-0.103-0.031-0.104-0.03-0.104-0.029-0.218-0.06-0.221-0.057-0.227-0.056-0.231-0.055-0.237-0.053-0.242-0.052-0.247-0.05-0.251-0.048-0.256-0.047-0.26-0.044-0.265-0.043-0.268-0.042-0.273-0.039-0.277-0.037-0.28-0.035-0.284-0.034-0.288-0.031-0.291-0.029-0.295-0.027-0.297-0.025-0.301-0.022-0.304-0.021-0.306-0.018-0.31-0.016-0.312-0.013-0.315-0.011-0.317-9e-3 -0.319-6e-3 -0.321-4e-3 -0.324-1e-3 -0.324 1e-3z" fill="#68aef9"/>
            </g>
        </g>
    </g>
</svg>
