<?xml version="1.0" encoding="UTF-8"?>
<!DOCTYPE svg  PUBLIC '-//W3C//DTD SVG 1.1//EN'  'http://www.w3.org/Graphics/SVG/1.1/DTD/svg11.dtd'>
<svg clip-rule="evenodd" fill-rule="evenodd" stroke-linecap="round" stroke-linejoin="round" stroke-miterlimit="1.5" version="1.1" viewBox="0 0 32 32" xml:space="preserve" xmlns="http://www.w3.org/2000/svg">
<metadata>
<rdf:RDF xmlns:cc="http://web.resource.org/cc/" xmlns:dc="http://purl.org/dc/elements/1.1/" xmlns:rdf="http://www.w3.org/1999/02/22-rdf-syntax-ns#">

     <rdf:Description rdf:about="">
       <dc:title>Mutant Standard emoji 2023.12</dc:title>
     </rdf:Description>

    <cc:work rdf:about="">
        <cc:license rdf:resource="http://creativecommons.org/licenses/by-nc-sa/4.0/"/>
        <cc:attributionName>Caius Nocturne</cc:attributionName>
        <cc:attributionURL>http://mutant.tech/</cc:attributionURL>
    </cc:work>

</rdf:RDF>
</metadata>

    <rect id="shortcake" width="32" height="32" fill="none"/>
    <g id="outline">
        <path d="m15.086 6.532c0.129-0.53 0.401-1.019 0.793-1.411l1-1c0.562-0.562 1.325-0.878 2.121-0.878s1.559 0.316 2.121 0.878l0.758 0.758c0.268 0.268 0.48 0.581 0.628 0.922 2.498 0.742 4.839 1.987 6.87 3.68 0.384 0.32 0.623 0.519 0.623 0.519v13l-28 7v-13l13.086-10.468z" fill="none" stroke="#000" stroke-width="4px"/>
    </g>
    <g id="emoji">
        <path d="m2 19v-2l2-1 23-7 3 1v13l-2 0.5-26-4.5z" fill="#ccc"/>
        <path d="m28 18.5v5l-26 6.5v-5l1-1 24-6 1 0.5zm-26 4.5v-4l24.757-6.189c0.299-0.075 0.616-8e-3 0.858 0.182 0.243 0.189 0.385 0.48 0.385 0.788v2.719l-1 1.5-24 5.5-1-0.5z" fill="#eaae53"/>
        <path d="m28 18.5-26 6.5v-2l26-6.5v2z" fill="#da6363"/>
        <path d="m2 17 15-12c4.523 0 8.903 1.586 12.377 4.481 0.384 0.32 0.623 0.519 0.623 0.519l-28 7z" fill="#fff"/>
        <path d="m16 11c-0.265 0-0.52-0.105-0.707-0.293-0.188-0.187-0.293-0.442-0.293-0.707v-2.757c0-0.796 0.316-1.559 0.879-2.122l1-1c0.562-0.562 1.325-0.878 2.121-0.878s1.559 0.316 2.121 0.878l0.758 0.758c0.562 0.562 0.878 1.325 0.878 2.121s-0.316 1.559-0.878 2.121l-1 1c-0.563 0.563-1.326 0.879-2.122 0.879h-2.757z" fill="#d72d35"/>
    </g>
</svg>
