<?xml version="1.0" encoding="UTF-8"?>
<svg clip-rule="evenodd" fill-rule="evenodd" stroke-linecap="round" stroke-linejoin="round" stroke-miterlimit="1.5" viewBox="0 0 32 32" xmlns="http://www.w3.org/2000/svg">
 <path d="m0 0h32v32h-32z" fill="none"/>
 <path d="m15.086 6.532c.129-.53.401-1.019.793-1.411l1-1c.562-.562 1.325-.878 2.121-.878s1.559.316 2.121.878c.251.251.507.507.758.758.268.268.48.581.628.922 2.498.742 4.839 1.987 6.87 3.68.384.32.623.519.623.519v13l-28 7v-13z" fill="none" stroke="#000" stroke-width="4"/>
 <path d="m2 19v-2l2-1 23-7 3 1v13l-2 .5z" fill="#ccc"/>
 <path d="m28 18.5v5l-26 6.5v-5l1-1 24-6zm-26 4.5v-4l24.757-6.189c.299-.075.616-.008.858.182.243.189.385.48.385.788v2.719l-1 1.5-24 5.5-1-.5z" fill="#eaae53"/>
 <path d="m28 18.5-26 6.5v-2l26-6.5z" fill="#da6363"/>
 <path d="m2 17 15-12c4.523 0 8.903 1.586 12.377 4.481.384.32.623.519.623.519l-28 7z" fill="#fff"/>
 <path d="m16 11c-0.265 0-0.52-0.105-0.707-0.293-0.188-0.187-0.293-0.442-0.293-0.707v-2.757c0-0.796 0.316-1.559 0.879-2.122l1-1c0.562-0.562 1.325-0.878 2.121-0.878s1.559 0.316 2.121 0.878l0.758 0.758c0.562 0.562 0.878 1.325 0.878 2.121s-0.316 1.559-0.878 2.121l-1 1c-0.563 0.563-1.326 0.879-2.122 0.879h-2.757z" fill="#d72d35"/>
</svg>
