<?xml version="1.0" encoding="UTF-8"?>
<!DOCTYPE svg  PUBLIC '-//W3C//DTD SVG 1.1//EN'  'http://www.w3.org/Graphics/SVG/1.1/DTD/svg11.dtd'>
<svg clip-rule="evenodd" fill-rule="evenodd" stroke-linejoin="round" stroke-miterlimit="2" version="1.1" viewBox="0 0 32 32" xml:space="preserve" xmlns="http://www.w3.org/2000/svg" xmlns:serif="http://www.serif.com/">
<metadata>
<rdf:RDF xmlns:cc="http://web.resource.org/cc/" xmlns:dc="http://purl.org/dc/elements/1.1/" xmlns:rdf="http://www.w3.org/1999/02/22-rdf-syntax-ns#">

     <rdf:Description rdf:about="">
       <dc:title>Mutant Standard emoji 2023.12</dc:title>
     </rdf:Description>

    <cc:work rdf:about="">
        <cc:license rdf:resource="http://creativecommons.org/licenses/by-nc-sa/4.0/"/>
        <cc:attributionName>Caius Nocturne</cc:attributionName>
        <cc:attributionURL>http://mutant.tech/</cc:attributionURL>
    </cc:work>

</rdf:RDF>
</metadata>

    <rect id="_1f372_stew" width="32" height="32" fill="none" serif:id="1f372_stew"/>
    <clipPath id="_clip1">
        <rect width="32" height="32"/>
    </clipPath>
    <g clip-path="url(#_clip1)">
        <path d="m2 14.229c-3e-3 -0.076-5e-3 -0.152-5e-3 -0.228 0-2.035 1.148-3.907 3.067-5.382l-0.768-0.964c-0.417-0.522-0.576-1.232-0.201-1.911 0.397-0.722 1.237-1.194 2.046-1.44l3.435-1.044c1.031-0.314 2.125-0.328 3.095-0.125 0.916 0.193 1.798 0.596 2.331 1.264l0.782 0.981c0.072-1e-3 0.143-1e-3 0.216-1e-3 7.728 0 14.002 3.863 14.002 8.622v5.999c-0 5-4.838 10-14 10s-14-6-14-10v-5.771z" fill="none" stroke="#000" stroke-width="4px"/>
        <path d="m30 14.001v5.999c-0 5-4.838 10-14 10s-14-6-14-10v-5.999h28z" fill="#8b8b8b"/>
        <path d="m6.599 6.164 2.975-0.904c1.031-0.314 2.125-0.328 3.095-0.125 0.916 0.193 1.798 0.596 2.331 1.264l12.124 15.21 0.994-0.108v1.915 0.076c-6e-3 0.25-0.072 0.506-0.211 0.759-0.397 0.722-1.237 1.193-2.046 1.439l-3.435 1.045c-1.031 0.313-2.125 0.328-3.095 0.124-0.916-0.192-1.798-0.595-2.331-1.264l-0.776-0.973v-2l0.211-3e-3 6.847-4.781s-2.148-4.41-3.282-3.842c-1.134 0.569-7.237 4.283-7.237 4.283l-0.122 1.848-8.347-10.472c-0.263-0.329-0.423-0.731-0.412-1.154v-2.005l2.729-0.389-0.012 0.057z" fill="#a8a8a8"/>
        <ellipse cx="15.998" cy="14.001" rx="14.002" ry="8.622" fill="#8b8b8b"/>
        <path d="m16 10.073c6.623 0 12 3.102 12 6.923-0 1.394-5.377 4.347-12 4.347s-12-2.706-12-4.347c-0-3.821 5.377-6.923 12-6.923z" fill="#744d26"/>
        <path d="m15.99 13.432c-1.226-0.179-2.608-0.539-2.639-1.288-0.032-0.766 1.603-2.531 3.553-2.472 1.559 0.048 3.301 1.482 3.281 2.233-0.024 0.872-2.662 1.751-4.195 1.527z" fill="#a66b32"/>
        <path d="m20.7 14.412c-0.275 0.01-0.532-0.135-0.665-0.374-0.134-0.24-0.123-0.535 0.03-0.763l0.951-1.427c0.197-0.294 0.576-0.406 0.901-0.265l2.134 0.928c0.196 0.085 0.34 0.259 0.389 0.467 0.048 0.209-5e-3 0.428-0.143 0.591l-0.502 0.591c-0.079 0.092-0.192 0.147-0.313 0.152l-2.782 0.1zm-0.402 3.624c0.654 0.117 2.105 0.702 3.385 1.445 1.279 0.743-0.537 1.733-1.032 1.816-0.496 0.082-2.6-2.147-2.889-2.518-0.289-0.372 0.235-0.797 0.536-0.743z" fill="#d87200"/>
        <path d="m17.216 17.221c-0.173 1e-3 -0.335-0.08-0.44-0.216-0.104-0.137-0.139-0.315-0.094-0.481 0.287-0.593 0.905-1.411 2.499-1.608 1.429-0.178 2.418 0.711 2.974 1.436 0.121 0.155 0.143 0.365 0.057 0.541-0.086 0.177-0.265 0.289-0.462 0.289-1.258 0.039-3.454 0.039-4.534 0.039zm-1.714 0.555c2.071-0.31 3.657 0.672 2.483 1.962-1.174 1.291-2.844 1.446-3.883 0.465s-0.304-2.171 1.4-2.427z" fill="#73a002"/>
        <path d="m27.201 17.491c0.115 2.092-1.012 3.579-2.187 2.289s-1.172-2.968-0.098-3.91 2.19-0.099 2.285 1.621z" fill="#c3ab4a"/>
        <path d="m8.219 14.08c-0.414-2e-3 -0.749-0.339-0.747-0.753 1e-3 -0.414 0.339-0.749 0.752-0.747 2.454 9e-3 4.677 0.529 6.65 1.595 0.364 0.196 0.5 0.652 0.304 1.016-0.197 0.364-0.652 0.5-1.017 0.304-1.762-0.952-3.75-1.407-5.942-1.415zm-1.905 2.197c-0.414 0.019-0.765-0.302-0.784-0.715-0.019-0.414 0.301-0.765 0.715-0.784-0 0 3.596-0.166 7.068 1.156 0.387 0.148 0.581 0.581 0.434 0.968s-0.581 0.582-0.968 0.434c-3.176-1.21-6.465-1.059-6.465-1.059zm-0.342 2.791c-0.403 0.092-0.806-0.16-0.898-0.563-0.093-0.404 0.159-0.807 0.563-0.899-0-0 2.53-0.594 6.511 0.111 0.408 0.072 0.68 0.462 0.608 0.869-0.072 0.408-0.462 0.68-0.87 0.608-3.616-0.64-5.914-0.126-5.914-0.126z" fill="#b28d50"/>
        <path d="m16.224 22.622c-0.075 0-0.151 1e-3 -0.226 1e-3 -7.729-0-14.003-3.864-14.003-8.622 0-2.035 1.148-3.907 3.067-5.382l-0.768-0.964c-0.417-0.522-0.576-1.232-0.201-1.911 0.397-0.722 1.237-1.194 2.046-1.44l3.435-1.044c1.031-0.314 2.125-0.328 3.095-0.125 0.916 0.193 1.798 0.596 2.331 1.264l0.782 0.981c0.072-1e-3 0.143-1e-3 0.216-1e-3 7.728 0 14.002 3.863 14.002 8.622 0 2.033-1.145 3.902-3.06 5.377l0.766 0.961c0.417 0.523 0.576 1.232 0.201 1.912-0.397 0.722-1.237 1.193-2.046 1.439l-3.435 1.045c-1.031 0.313-2.125 0.328-3.095 0.124-0.916-0.192-1.798-0.595-2.331-1.264l-0.776-0.973zm-9.916-12.44c-0.111 0.085-0.219 0.172-0.323 0.26-1.203 1.009-1.99 2.212-1.99 3.559 0 1.346 0.787 2.55 1.99 3.559 1.993 1.674 5.084 2.783 8.609 3.017 0.461 0.03 0.929 0.046 1.404 0.046 3.914-0 7.424-1.066 9.696-2.809 0.108-0.083 0.214-0.168 0.317-0.254 1.202-1.009 1.989-2.213 1.989-3.559-0-1.347-0.787-2.55-1.989-3.559-1.992-1.673-5.078-2.78-8.598-3.016-0.465-0.031-0.937-0.047-1.415-0.047-3.911 0-7.418 1.063-9.69 2.803z" fill="#e5e3df"/>
    </g>
</svg>
