<?xml version="1.0" encoding="UTF-8"?>
<!DOCTYPE svg  PUBLIC '-//W3C//DTD SVG 1.1//EN'  'http://www.w3.org/Graphics/SVG/1.1/DTD/svg11.dtd'>
<svg clip-rule="evenodd" fill-rule="evenodd" stroke-linejoin="round" stroke-miterlimit="1.5" version="1.1" viewBox="0 0 32 32" xml:space="preserve" xmlns="http://www.w3.org/2000/svg">
<metadata>
<rdf:RDF xmlns:cc="http://web.resource.org/cc/" xmlns:dc="http://purl.org/dc/elements/1.1/" xmlns:rdf="http://www.w3.org/1999/02/22-rdf-syntax-ns#">

     <rdf:Description rdf:about="">
       <dc:title>Mutant Standard emoji 2023.12</dc:title>
     </rdf:Description>

    <cc:work rdf:about="">
        <cc:license rdf:resource="http://creativecommons.org/licenses/by-nc-sa/4.0/"/>
        <cc:attributionName>Caius Nocturne</cc:attributionName>
        <cc:attributionURL>http://mutant.tech/</cc:attributionURL>
    </cc:work>

</rdf:RDF>
</metadata>
<rect id="sushi" width="32" height="32" fill="none"/><g id="outline" fill="none" stroke="#000" stroke-width="4px"><ellipse cx="9" cy="14.5" rx="6" ry="1.5"/><ellipse cx="9" cy="25.5" rx="6" ry="1.5"/><rect x="3" y="14.5" width="12" height="11"/><path d="m7 13.185c0 0.806 0.455 1.543 1.177 1.903 2.129 1.065 6.662 3.331 9.455 4.728 1.491 0.745 3.245 0.745 4.736 0 1.723-0.862 3.934-1.967 5.001-2.5 0.387-0.194 0.631-0.589 0.631-1.022v-4.294l-13-5.5-8 4v2.685z"/><path d="m7.114 11.443c-0.508 0.254-1.124 0.096-1.447-0.37s-0.254-1.099 0.161-1.485c0.685-0.636 1.386-1.287 2.075-1.926 3.667-3.406 9.063-4.179 13.539-1.941l2.444 1.222c2.611 1.306 4.521 3.687 5.23 6.519 0.177 0.711 0.35 1.402 0.495 1.982 0.227 0.909-0.208 1.854-1.046 2.273-0.943 0.472-2.173 1.087-3.119 1.56-0.843 0.422-1.867 0.197-2.456-0.54-0.396-0.494-0.861-1.076-1.305-1.631-1.11-1.387-2.508-2.518-4.098-3.312-1.416-0.708-3.214-1.607-4.704-2.353-1.815-0.907-3.951-0.907-5.766 0-1e-3 1e-3 -2e-3 2e-3 -3e-3 2e-3z"/></g><g id="emoji"><path d="m7 13.185c0 0.806 0.455 1.543 1.177 1.903 2.129 1.065 6.662 3.331 9.455 4.728 1.491 0.745 3.245 0.745 4.736 0 2.359-1.179 5.632-2.816 5.632-2.816v-5l-13-5.5-8 4v2.685z" fill="#e0e0e0"/><clipPath id="_clip1"><path d="m7 13.185c0 0.806 0.455 1.543 1.177 1.903 2.129 1.065 6.662 3.331 9.455 4.728 1.491 0.745 3.245 0.745 4.736 0 2.359-1.179 5.632-2.816 5.632-2.816v-5l-13-5.5-8 4v2.685z"/></clipPath><g clip-path="url(#_clip1)"><rect x="3" y="6" width="17" height="18" fill="#aaa"/></g><ellipse cx="9" cy="25.5" rx="6" ry="1.5" fill="#33402e"/><rect x="3" y="14.5" width="12" height="11" fill="#33402e"/><ellipse cx="9" cy="14.5" rx="6" ry="1.5" fill="#fff"/><ellipse cx="9" cy="14.5" rx="3" ry=".75" fill="#e9554a"/><path d="m7.114 11.443c-0.508 0.254-1.124 0.096-1.447-0.37s-0.254-1.099 0.161-1.485c0.685-0.636 1.386-1.287 2.075-1.926 3.667-3.406 9.063-4.179 13.539-1.941l2.444 1.222c2.611 1.306 4.521 3.687 5.23 6.519 0.177 0.711 0.35 1.402 0.495 1.982 0.227 0.909-0.208 1.854-1.046 2.273-0.943 0.472-2.173 1.087-3.119 1.56-0.843 0.422-1.867 0.197-2.456-0.54-0.396-0.494-0.861-1.076-1.305-1.631-1.11-1.387-2.508-2.518-4.098-3.312-1.416-0.708-3.214-1.607-4.704-2.353-1.815-0.907-3.951-0.907-5.766 0-1e-3 1e-3 -2e-3 2e-3 -3e-3 2e-3z" fill="#b84b43"/><clipPath id="_clip2"><path d="m7.114 11.443c-0.508 0.254-1.124 0.096-1.447-0.37s-0.254-1.099 0.161-1.485c0.685-0.636 1.386-1.287 2.075-1.926 3.667-3.406 9.063-4.179 13.539-1.941l2.444 1.222c2.611 1.306 4.521 3.687 5.23 6.519 0.177 0.711 0.35 1.402 0.495 1.982 0.227 0.909-0.208 1.854-1.046 2.273-0.943 0.472-2.173 1.087-3.119 1.56-0.843 0.422-1.867 0.197-2.456-0.54-0.396-0.494-0.861-1.076-1.305-1.631-1.11-1.387-2.508-2.518-4.098-3.312-1.416-0.708-3.214-1.607-4.704-2.353-1.815-0.907-3.951-0.907-5.766 0-1e-3 1e-3 -2e-3 2e-3 -3e-3 2e-3z"/></clipPath><g clip-path="url(#_clip2)" fill="none" stroke="#853631" stroke-linecap="round" stroke-width="2px"><path d="m16 5.5-4 2"/><path d="m21 7-4 2"/><path d="m25 9-4 2"/></g></g></svg>
