<?xml version="1.0" encoding="UTF-8"?>
<svg id="svg912" width="68.12" height="68.12" version="1.1" xmlns="http://www.w3.org/2000/svg" xmlns:cc="http://creativecommons.org/ns#" xmlns:dc="http://purl.org/dc/elements/1.1/" xmlns:rdf="http://www.w3.org/1999/02/22-rdf-syntax-ns#">
 <metadata id="metadata918">
  <rdf:RDF>
   <cc:Work rdf:about="">
    <dc:format>image/svg+xml</dc:format>
    <dc:type rdf:resource="http://purl.org/dc/dcmitype/StillImage"/>
    <dc:title/>
   </cc:Work>
  </rdf:RDF>
 </metadata>
 <circle id="path835" cx="34.06" cy="34.06" r="34.06" fill="#520044" style="paint-order:stroke fill markers"/>
 <div id="saka-gui-root">
  <div>
   <div>
    <style/>
   </div>
  </div>
 </div>
 <path id="path819" d="m25.016 17.638c-3.9101-0.02201-6.9536 2.2457-9.0801 4.6621-2.0973 2.3833-3.8331 5.3337-5.6621 8.9805-2.057 4.1004 1.0356 9.112 5.623 9.1113h14.441c1.1409 2.0165 2.3067 3.9006 3.666 5.457 2.1038 2.4089 5.1098 4.6909 9.0117 4.7129 3.9088 0.02201 6.953-2.2434 9.0801-4.6602 2.0975-2.3832 3.8331-5.3338 5.6621-8.9805 2.057-4.1004-1.0356-9.112-5.623-9.1113h-14.441c-1.141-2.0166-2.3052-3.9007-3.6641-5.457-2.1032-2.4088-5.1104-4.6929-9.0137-4.7148zm-0.02344 4.4375c2.1801 0.01227 4.0382 1.2996 5.6934 3.1953 1.2452 1.4262 2.4952 3.4454 3.7871 5.8184a2.2186 2.2186 0 0 0 1.9492 1.1582h15.713c1.4725-2.11e-4 2.3184 1.3694 1.6582 2.6855-1.7511 3.4913-3.3374 6.1167-5.0293 8.0391-1.6624 1.8888-3.5515 3.1646-5.7246 3.1523-2.18-0.01227-4.0403-1.2983-5.6953-3.1934-1.2451-1.4256-2.4931-3.4451-3.7852-5.8184a2.2186 2.2186 0 0 0-1.9492-1.1582h-15.713c-1.4725 2.11e-4 -2.3184-1.3694-1.6582-2.6855 1.751-3.4912 3.3372-6.1163 5.0293-8.0391 1.6629-1.8897 3.5513-3.1665 5.7246-3.1543z" color="#000000" color-rendering="auto" dominant-baseline="auto" fill="#fa005a" font-family="sans-serif" image-rendering="auto" shape-rendering="auto" solid-color="#000000" stroke="#fff" stroke-linecap="round" stroke-linejoin="round" stroke-opacity=".72772" stroke-width="3" text-rendering="auto" style="font-feature-settings:normal;font-variant-alternates:normal;font-variant-caps:normal;font-variant-ligatures:normal;font-variant-numeric:normal;font-variant-position:normal;isolation:auto;mix-blend-mode:normal;paint-order:stroke fill markers;shape-padding:0;text-decoration-color:#000000;text-decoration-line:none;text-decoration-style:solid;text-indent:0;text-orientation:mixed;text-transform:none;white-space:normal"/>
 <path id="path837" d="m52.096 45.902c-29.311 4.1069-14.655 2.0534 0 0zm-27.104-23.826c2.1801 0.01227 4.0382 1.2996 5.6934 3.1953 1.2452 1.4262 2.4952 3.4454 3.7871 5.8184 0.38852 0.71399 1.1364 1.1584 1.9492 1.1582h15.713c1.4725-2.11e-4 2.3184 1.3694 1.6582 2.6855-1.7511 3.4913-3.3374 6.1167-5.0293 8.0391-1.6624 1.8888-3.5515 3.1646-5.7246 3.1523-2.18-0.01227-4.0403-1.2983-5.6953-3.1934-1.2451-1.4256-2.4931-3.4451-3.7852-5.8184-0.38852-0.71399-1.1364-1.1584-1.9492-1.1582h-15.713c-1.4725 2.11e-4 -2.3184-1.3694-1.6582-2.6855 1.751-3.4912 3.3372-6.1163 5.0293-8.0391 1.6629-1.8897 3.5513-3.1665 5.7246-3.1543z" color="#000000" color-rendering="auto" dominant-baseline="auto" fill="#ffc500" font-family="sans-serif" image-rendering="auto" shape-rendering="auto" solid-color="#000000" text-rendering="auto" style="font-feature-settings:normal;font-variant-alternates:normal;font-variant-caps:normal;font-variant-ligatures:normal;font-variant-numeric:normal;font-variant-position:normal;isolation:auto;mix-blend-mode:normal;paint-order:stroke fill markers;shape-padding:0;text-decoration-color:#000000;text-decoration-line:none;text-decoration-style:solid;text-indent:0;text-orientation:mixed;text-transform:none;white-space:normal"/>
</svg>
