<?xml version="1.0" encoding="UTF-8"?>
<!DOCTYPE svg  PUBLIC '-//W3C//DTD SVG 1.1//EN'  'http://www.w3.org/Graphics/SVG/1.1/DTD/svg11.dtd'>
<svg id="RSSicon" width="128px" height="128px" version="1.1" viewBox="0 0 256 256" xmlns="http://www.w3.org/2000/svg">
 <defs>
  <linearGradient id="RSSg" x1=".085" x2=".915" y1=".085" y2=".915">
   <stop stop-color="#E3702D" offset="0"/>
   <stop stop-color="#EA7D31" offset=".1071"/>
   <stop stop-color="#F69537" offset=".3503"/>
   <stop stop-color="#FB9E3A" offset=".5"/>
   <stop stop-color="#EA7C31" offset=".7016"/>
   <stop stop-color="#DE642B" offset=".8866"/>
   <stop stop-color="#D95B29" offset="1"/>
  </linearGradient>
 </defs>
 <rect width="256" height="256" rx="55" ry="55" fill="#CC5D15"/>
 <rect x="5" y="5" width="246" height="246" rx="50" ry="50" fill="#F49C52"/>
 <rect x="10" y="10" width="236" height="236" rx="47" ry="47" fill="url(#RSSg)"/>
 <circle cx="68" cy="189" r="24" fill="#FFF"/>
 <path d="m160 213h-34a82 82 0 0 0-82-82v-34a116 116 0 0 1 116 116z" fill="#FFF"/>
 <path d="M184 213A140 140 0 0 0 44 73 V 38a175 175 0 0 1 175 175z" fill="#FFF"/>
</svg>
