<?xml version="1.0" encoding="UTF-8"?>
<!DOCTYPE svg  PUBLIC '-//W3C//DTD SVG 1.1//EN'  'http://www.w3.org/Graphics/SVG/1.1/DTD/svg11.dtd'>
<svg clip-rule="evenodd" fill-rule="evenodd" stroke-linejoin="round" stroke-miterlimit="1.5" version="1.1" viewBox="0 0 32 32" xml:space="preserve" xmlns="http://www.w3.org/2000/svg">
<metadata>
<rdf:RDF xmlns:cc="http://web.resource.org/cc/" xmlns:dc="http://purl.org/dc/elements/1.1/" xmlns:rdf="http://www.w3.org/1999/02/22-rdf-syntax-ns#">

     <rdf:Description rdf:about="">
       <dc:title>Mutant Standard emoji 2023.12</dc:title>
     </rdf:Description>

    <cc:work rdf:about="">
        <cc:license rdf:resource="http://creativecommons.org/licenses/by-nc-sa/4.0/"/>
        <cc:attributionName>Caius Nocturne</cc:attributionName>
        <cc:attributionURL>http://mutant.tech/</cc:attributionURL>
    </cc:work>

</rdf:RDF>
</metadata>
<rect id="ghost" width="32" height="32" fill="none"/><clipPath id="_clip1"><rect width="32" height="32"/></clipPath><g clip-path="url(#_clip1)"><g id="outline"><path d="m13.828 4c-1.811 0-3.547 0.719-4.828 2s-2 3.017-2 4.828v2.115c0 0.699 0.122 1.393 0.361 2.05 0.781 2.148 2.615 7.19 3.338 9.179 0.199 0.548 0.301 1.126 0.301 1.709v3.119l3-3 2 3 2-3 3 3v-3.119c0-0.583 0.102-1.161 0.301-1.709 0.723-1.989 2.557-7.031 3.338-9.179 0.239-0.657 0.361-1.351 0.361-2.05v-2.115c0-1.811-0.719-3.547-2-4.828s-3.017-2-4.828-2h-4.344z" fill="none" stroke="#000" stroke-width="4px"/><path d="m10.094 12.002 0.023 2e-3 0.024 1e-3 0.046 4e-3 0.024 3e-3 0.023 2e-3 0.046 6e-3 0.024 4e-3 0.023 3e-3 0.046 8e-3 0.023 5e-3 0.023 4e-3 0.023 6e-3 0.023 5e-3 0.022 6e-3 0.023 5e-3 0.023 7e-3 0.022 6e-3 0.023 7e-3 0.022 6e-3 0.022 8e-3 0.023 7e-3 0.022 8e-3 0.022 7e-3 0.022 9e-3 0.022 8e-3 0.021 9e-3 0.044 0.018 0.021 9e-3 0.021 0.011 0.022 9e-3 0.021 0.011 0.021 0.01 0.02 0.011 0.042 0.022 0.02 0.011 0.021 0.012 0.06 0.036 0.019 0.013 0.02 0.013 0.019 0.013 0.02 0.013 0.019 0.014 0.019 0.013 0.019 0.015 0.019 0.014 0.018 0.014 0.036 0.03 0.019 0.015 0.017 0.015 0.018 0.015 0.017 0.016 0.018 0.016 0.016 0.016 0.018 0.016 0.016 0.017 0.017 0.016 0.016 0.018 0.016 0.016 0.016 0.018 0.016 0.017 0.015 0.018 0.015 0.017 0.015 0.019 0.03 0.036 0.014 0.018 0.014 0.019 0.015 0.019 0.013 0.019 0.014 0.019 0.013 0.02 0.013 0.019 0.013 0.02 0.013 0.019 0.036 0.06 0.012 0.021 0.011 0.02 0.022 0.042 0.011 0.02 0.01 0.021 0.011 0.021 9e-3 0.022 0.011 0.021 9e-3 0.021 0.018 0.044 9e-3 0.021 8e-3 0.022 9e-3 0.022 7e-3 0.022 8e-3 0.022 7e-3 0.023 8e-3 0.022 6e-3 0.022 7e-3 0.023 6e-3 0.022 7e-3 0.023 5e-3 0.023 6e-3 0.022 5e-3 0.023 6e-3 0.023 4e-3 0.023 5e-3 0.023 8e-3 0.046 3e-3 0.023 4e-3 0.024 6e-3 0.046 2e-3 0.023 3e-3 0.024 4e-3 0.046 1e-3 0.024 2e-3 0.023v0.024l1e-3 0.023v0.024l1e-3 0.023v7.245l-0.308 0.24-5.643-1.411-0.155-0.041-0.164-0.046-0.163-0.05-0.161-0.054-0.16-0.056-0.158-0.06-0.156-0.063-0.154-0.066-0.153-0.069-0.151-0.072-0.149-0.075-0.147-0.078-0.145-0.081-0.143-0.083-0.141-0.087-0.139-0.089-0.137-0.092-0.134-0.094-0.133-0.097-0.13-0.1-0.129-0.102-0.125-0.105-0.124-0.107-0.121-0.11-0.119-0.112-0.117-0.114-0.114-0.117-0.111-0.119-0.11-0.121-0.106-0.123-0.104-0.125-0.102-0.127-0.099-0.13-0.096-0.131-0.094-0.133-0.09-0.136-0.089-0.137-0.085-0.139-0.083-0.14-0.079-0.143-0.077-0.144-0.074-0.146-0.071-0.147-0.069-0.15-0.065-0.15-0.062-0.152-0.059-0.154-0.056-0.155-0.053-0.157-0.049-0.157-0.047-0.16-0.043-0.16-0.04-0.161-0.037-0.163-0.033-0.164-0.03-0.165-0.026-0.165-0.023-0.167-0.02-0.168-0.016-0.168-0.013-0.17-9e-3 -0.17-5e-3 -0.17-2e-3 -0.161v-3.833l1e-3 -0.08 6e-3 -0.099 9e-3 -0.098 0.013-0.096 0.016-0.097 0.02-0.095 0.023-0.094 0.027-0.093 0.03-0.091 0.033-0.09 0.037-0.089 0.039-0.087 0.043-0.086 0.045-0.083 0.049-0.083 0.051-0.08 0.054-0.078 0.058-0.076 0.06-0.075 0.063-0.071 0.065-0.07 0.068-0.068 0.071-0.065 0.073-0.063 0.075-0.059 0.078-0.058 0.081-0.055 0.082-0.052 0.085-0.049 0.086-0.046 0.09-0.043 0.09-0.039 0.092-0.036 0.093-0.033 0.094-0.029 0.094-0.025 0.095-0.021 0.096-0.019 0.096-0.014 0.096-0.011 0.096-7e-3 0.095-4e-3 0.097-1e-3 0.096 4e-3 0.094 6e-3 0.095 0.01 0.094 0.014 0.095 0.017 0.093 0.02 0.092 0.023 0.091 0.028 0.091 0.03 0.09 0.034 0.088 0.037 0.087 0.04 0.086 0.043 0.085 0.047 0.082 0.05 0.082 0.053 0.08 0.057 0.077 0.06 0.075 0.062 0.074 0.066 0.058 0.056 1.167 1.166 0.065 0.067 0.07 0.074 0.069 0.075 0.068 0.076 0.066 0.077 0.064 0.078 0.064 0.079 0.062 0.08 0.06 0.081 0.06 0.082 0.057 0.083 0.057 0.084 0.054 0.085 0.054 0.086 0.052 0.086 0.05 0.088 0.049 0.088 0.048 0.089 0.046 0.09 0.045 0.091 0.043 0.091 0.041 0.093 0.04 0.093 0.038 0.093 0.037 0.095 0.035 0.095 0.034 0.095 0.032 0.097 0.031 0.097 0.028 0.097 0.028 0.098 0.023 0.09 0.352 1.409 3e-3 0.01h0.01 2.428l0.023 1e-3h0.024l0.023 1e-3h0.024zm-4.619 3.416 0.064 0.051 0.065 0.05 0.066 0.048 0.067 0.047 0.068 0.046 0.07 0.045 0.07 0.043 0.071 0.041 0.073 0.041 0.073 0.039 0.074 0.037 0.075 0.036 0.077 0.034 0.077 0.033 0.078 0.032 0.078 0.029 0.08 0.029 0.081 0.026 0.082 0.026 0.082 0.023 0.094 0.024 0.96 0.24v-0.438h-0.449l-0.075-1e-3 -0.085-3e-3 -0.085-4e-3 -0.085-6e-3 -0.083-8e-3 -0.085-0.01-0.083-0.012-0.083-0.013-0.082-0.015-0.083-0.017-0.081-0.018-0.081-0.02-0.08-0.022-0.079-0.023-0.08-0.025-0.078-0.026-0.077-0.028-0.077-0.03-0.076-0.031-0.076-0.032-0.074-0.034-0.074-0.036-0.073-0.037-0.072-0.038-0.072-0.04-0.07-0.042-0.052-0.032 0.025 0.021z"/><path d="m29.432 5.886 0.095 4e-3 0.096 7e-3 0.096 0.011 0.096 0.014 0.096 0.019 0.095 0.021 0.094 0.025 0.094 0.029 0.093 0.033 0.092 0.036 0.09 0.039 0.09 0.043 0.086 0.046 0.085 0.049 0.082 0.052 0.081 0.055 0.078 0.058 0.075 0.059 0.073 0.063 0.071 0.065 0.068 0.068 0.065 0.07 0.063 0.071 0.06 0.075 0.058 0.076 0.054 0.078 0.051 0.08 0.049 0.083 0.045 0.083 0.043 0.086 0.039 0.087 0.037 0.089 0.033 0.09 0.03 0.091 0.027 0.093 0.023 0.094 0.02 0.095 0.016 0.097 0.013 0.097 9e-3 0.097 5e-3 0.099 2e-3 0.08v3.833l-2e-3 0.161-5e-3 0.17-9e-3 0.17-0.013 0.17-0.016 0.168-0.02 0.168-0.023 0.167-0.026 0.165-0.03 0.165-0.033 0.164-0.037 0.163-0.04 0.161-0.043 0.16-0.047 0.16-0.049 0.157-0.053 0.157-0.056 0.155-0.059 0.153-0.062 0.153-0.065 0.15-0.069 0.15-0.071 0.147-0.074 0.146-0.077 0.144-0.079 0.143-0.083 0.14-0.085 0.139-0.089 0.137-0.09 0.136-0.094 0.133-0.096 0.131-0.099 0.13-0.102 0.127-0.104 0.125-0.106 0.123-0.11 0.121-0.111 0.119-0.114 0.117-0.117 0.114-0.119 0.112-0.121 0.11-0.124 0.107-0.125 0.105-0.129 0.102-0.13 0.1-0.133 0.097-0.134 0.094-0.137 0.092-0.139 0.089-0.141 0.087-0.143 0.083-0.145 0.081-0.147 0.078-0.149 0.075-0.151 0.072-0.153 0.069-0.154 0.066-0.156 0.063-0.158 0.06-0.16 0.056-0.161 0.054-0.163 0.05-0.164 0.046-0.155 0.041-5.643 1.411-0.308-0.24v-7.245l1e-3 -0.023v-0.024l1e-3 -0.023v-0.024l2e-3 -0.023 1e-3 -0.024 4e-3 -0.046 3e-3 -0.024 2e-3 -0.023 6e-3 -0.046 4e-3 -0.024 3e-3 -0.023 8e-3 -0.046 5e-3 -0.023 4e-3 -0.023 6e-3 -0.023 5e-3 -0.023 6e-3 -0.022 5e-3 -0.023 7e-3 -0.023 6e-3 -0.022 7e-3 -0.023 6e-3 -0.022 8e-3 -0.022 7e-3 -0.023 8e-3 -0.022 7e-3 -0.022 9e-3 -0.022 8e-3 -0.022 9e-3 -0.021 0.018-0.044 9e-3 -0.021 0.011-0.021 9e-3 -0.022 0.011-0.021 0.01-0.021 0.011-0.02 0.022-0.042 0.011-0.02 0.012-0.021 0.036-0.06 0.013-0.019 0.013-0.02 0.013-0.019 0.013-0.02 0.014-0.019 0.013-0.019 0.015-0.019 0.014-0.019 0.014-0.018 0.03-0.036 0.015-0.019 0.015-0.017 0.015-0.018 0.016-0.017 0.016-0.018 0.016-0.016 0.016-0.018 0.017-0.016 0.016-0.017 0.018-0.016 0.016-0.016 0.018-0.016 0.017-0.016 0.018-0.015 0.017-0.015 0.019-0.015 0.036-0.03 0.018-0.014 0.019-0.014 0.019-0.015 0.019-0.013 0.019-0.014 0.02-0.013 0.019-0.013 0.02-0.013 0.019-0.013 0.06-0.036 0.021-0.012 0.02-0.011 0.042-0.022 0.02-0.011 0.021-0.01 0.021-0.011 0.022-9e-3 0.021-0.011 0.021-9e-3 0.044-0.018 0.021-9e-3 0.022-8e-3 0.022-9e-3 0.022-7e-3 0.022-8e-3 0.023-7e-3 0.022-8e-3 0.022-6e-3 0.023-7e-3 0.022-6e-3 0.023-7e-3 0.023-5e-3 0.022-6e-3 0.023-5e-3 0.023-6e-3 0.023-4e-3 0.023-5e-3 0.046-8e-3 0.023-3e-3 0.024-4e-3 0.046-6e-3 0.023-2e-3 0.024-3e-3 0.046-4e-3 0.024-1e-3 0.023-2e-3h0.024l0.023-1e-3h0.024l0.023-1e-3h2.428 0.01l3e-3 -0.01 0.352-1.409 0.023-0.09 0.028-0.098 0.028-0.097 0.031-0.097 0.032-0.097 0.034-0.095 0.035-0.095 0.037-0.095 0.038-0.093 0.04-0.093 0.041-0.093 0.043-0.091 0.045-0.091 0.046-0.09 0.048-0.089 0.049-0.088 0.05-0.088 0.052-0.086 0.054-0.086 0.054-0.085 0.057-0.084 0.057-0.083 0.06-0.082 0.06-0.081 0.062-0.08 0.064-0.079 0.064-0.078 0.066-0.077 0.068-0.076 0.069-0.075 0.07-0.074 0.065-0.067 1.167-1.167 0.058-0.055 0.074-0.066 0.075-0.062 0.077-0.06 0.08-0.057 0.082-0.053 0.082-0.05 0.085-0.047 0.086-0.043 0.087-0.04 0.088-0.037 0.09-0.034 0.091-0.03 0.091-0.028 0.092-0.023 0.093-0.02 0.095-0.017 0.094-0.014 0.095-0.01 0.094-6e-3 0.096-4e-3 0.097 1e-3zm-2.934 9.543-0.07 0.042-0.072 0.04-0.072 0.038-0.073 0.037-0.074 0.036-0.074 0.034-0.076 0.032-0.076 0.031-0.077 0.03-0.077 0.028-0.078 0.026-0.08 0.025-0.079 0.023-0.08 0.022-0.081 0.02-0.081 0.018-0.083 0.017-0.082 0.015-0.083 0.013-0.083 0.012-0.085 0.01-0.083 8e-3 -0.085 6e-3 -0.085 4e-3 -0.085 3e-3 -0.075 1e-3h-0.449v0.438l0.96-0.24 0.094-0.024 0.082-0.023 0.082-0.026 0.081-0.026 0.08-0.029 0.078-0.029 0.078-0.032 0.077-0.033 0.077-0.034 0.075-0.036 0.074-0.037 0.073-0.039 0.073-0.041 0.071-0.041 0.07-0.043 0.07-0.045 0.068-0.046 0.067-0.047 0.066-0.048 0.065-0.05 0.064-0.051 0.025-0.021-0.052 0.032z"/></g><g id="emoji"><path d="m13.828 4c-1.811 0-3.547 0.719-4.828 2s-2 3.017-2 4.828v2.115c0 0.699 0.122 1.393 0.361 2.05 0.781 2.148 2.615 7.19 3.338 9.179 0.199 0.548 0.301 1.126 0.301 1.709v3.119l3-3 2 3 2-3 3 3v-3.119c0-0.583 0.102-1.161 0.301-1.709 0.723-1.989 2.557-7.031 3.338-9.179 0.239-0.657 0.361-1.351 0.361-2.05v-2.115c0-1.811-0.719-3.547-2-4.828s-3.017-2-4.828-2h-4.344z" fill="#fff"/><path d="m10 14h-2.438c-0.918 0-1.718-0.625-1.941-1.515-0.117-0.469-0.244-0.977-0.352-1.41-0.176-0.703-0.54-1.346-1.052-1.858l-1.148-1.148c-0.179-0.179-0.449-0.233-0.683-0.136-0.233 0.097-0.386 0.325-0.386 0.579v3.803c0 2.754 1.874 5.153 4.545 5.821 1.803 0.451 3.455 0.864 3.455 0.864v-5" fill="#fff"/><path d="m22 14h2.438c0.918 0 1.718-0.625 1.941-1.515 0.117-0.469 0.244-0.977 0.352-1.41 0.176-0.703 0.54-1.346 1.052-1.858l1.148-1.148c0.179-0.179 0.449-0.233 0.683-0.136 0.233 0.097 0.386 0.325 0.386 0.579v3.803c0 2.754-1.874 5.153-4.545 5.821-1.803 0.451-3.455 0.864-3.455 0.864v-5" fill="#fff"/><path d="m15 14-2-1-1 1-3-1s0.15 0.601 0.334 1.337c0.415 1.659 1.648 2.99 3.27 3.531l2.447 0.816c0.616 0.205 1.282 0.205 1.898 0 0.879-0.293 2.051-0.684 2.051-0.684s0.156-0.052 0.396-0.132c1.622-0.541 2.855-1.872 3.27-3.531 0.184-0.736 0.334-1.337 0.334-1.337l-3 1-1-1-2 1-1-1-1 1z" fill="#75050d"/><path d="m11.457 17.315 0.652-0.979c0.237-0.355 0.542-0.649 0.891-0.87 0 0 0.837 0.095 1 0.534 0.161 0.433-9e-3 0.622 0 1 8e-3 0.338-0.954 0.951-0.942 1.019l-0.454-0.151c-0.41-0.137-0.794-0.323-1.147-0.553zm7.485 0.704c0.018-0.102-0.658-0.479-0.942-1.019-0.159-0.303-3e-3 -0.752 0-1 3e-3 -0.27 1-0.534 1-0.534 0.349 0.221 0.654 0.515 0.891 0.87l0.652 0.979c-0.353 0.23-0.737 0.416-1.147 0.553-0.24 0.08-0.396 0.132-0.396 0.132l-0.058 0.019z" fill="#b40816"/><path d="m13 15.466c0.473-0.3 1.028-0.466 1.606-0.466h2.788c0.578 0 1.133 0.166 1.606 0.466v1.877c0 1.061-0.421 2.078-1.172 2.829l-0.242 0.242c-0.375 0.375-0.884 0.586-1.414 0.586h-0.344c-0.53 0-1.039-0.211-1.414-0.586l-0.242-0.242c-0.751-0.751-1.172-1.768-1.172-2.829v-1.877z" fill="#f4101c"/><path d="m11.015 8.5 0.028 1e-3 0.056 4e-3 0.028 3e-3 0.027 4e-3 0.056 0.01 0.027 6e-3 0.027 8e-3 0.027 7e-3 0.027 9e-3 0.026 9e-3 0.026 0.01 0.052 0.022 0.025 0.013 2 1 0.025 0.012 0.025 0.014 0.024 0.014 0.024 0.015 0.046 0.032 0.022 0.017 0.022 0.018 0.042 0.036 0.021 0.02 0.02 0.019 0.019 0.021 0.018 0.021 0.019 0.021 0.017 0.022 0.017 0.023 0.032 0.046 0.015 0.024 0.014 0.024 0.013 0.024 0.013 0.025 0.012 0.026 0.012 0.025 0.02 0.052 0.01 0.027 8e-3 0.027 8e-3 0.026 7e-3 0.028 0.012 0.054 8e-3 0.056 6e-3 0.056 2e-3 0.056v0.028l-1e-3 0.028-4e-3 0.056-3e-3 0.028-4e-3 0.027-0.01 0.056-6e-3 0.027-8e-3 0.027-7e-3 0.027-9e-3 0.027-9e-3 0.026-0.01 0.026-0.022 0.052-0.013 0.025-0.012 0.025-0.014 0.025-0.014 0.024-0.015 0.024-0.032 0.046-0.017 0.022-0.018 0.022-0.036 0.042-0.02 0.021-0.019 0.02-0.021 0.019-0.021 0.018-0.021 0.019-0.022 0.017-0.023 0.017-0.046 0.032-0.024 0.015-0.024 0.014-0.024 0.013-0.025 0.013-0.026 0.012-0.025 0.012-0.052 0.02-0.027 0.01-0.027 8e-3 -0.026 8e-3 -0.028 7e-3 -0.054 0.012-0.056 8e-3 -0.056 6e-3 -0.056 2e-3h-0.028l-0.028-1e-3 -0.056-4e-3 -0.028-3e-3 -0.027-4e-3 -0.056-0.01-0.027-6e-3 -0.027-8e-3 -0.027-7e-3 -0.027-9e-3 -0.026-9e-3 -0.026-0.01-0.052-0.022-0.025-0.013-2-1-0.025-0.012-0.025-0.014-0.024-0.014-0.024-0.015-0.046-0.032-0.022-0.017-0.022-0.018-0.042-0.036-0.021-0.02-0.02-0.019-0.019-0.021-0.018-0.021-0.019-0.021-0.017-0.022-0.017-0.023-0.032-0.046-0.015-0.024-0.014-0.024-0.013-0.024-0.013-0.025-0.012-0.026-0.012-0.025-0.02-0.052-0.01-0.027-8e-3 -0.027-8e-3 -0.026-7e-3 -0.028-0.012-0.054-8e-3 -0.056-6e-3 -0.056-2e-3 -0.056v-0.028l1e-3 -0.028 4e-3 -0.056 3e-3 -0.028 4e-3 -0.027 0.01-0.056 6e-3 -0.027 8e-3 -0.027 7e-3 -0.027 9e-3 -0.027 9e-3 -0.026 0.01-0.026 0.022-0.052 0.013-0.025 0.012-0.025 0.014-0.025 0.014-0.024 0.015-0.024 0.032-0.046 0.017-0.022 0.018-0.022 0.036-0.042 0.02-0.021 0.019-0.02 0.021-0.019 0.021-0.018 0.021-0.019 0.022-0.017 0.023-0.017 0.046-0.032 0.024-0.015 0.024-0.014 0.024-0.013 0.025-0.013 0.026-0.012 0.025-0.012 0.052-0.02 0.027-0.01 0.027-8e-3 0.026-8e-3 0.028-7e-3 0.054-0.012 0.056-8e-3 0.056-6e-3 0.056-2e-3h0.028z"/><path d="m21.041 8.501 0.028 1e-3 0.056 6e-3 0.056 8e-3 0.054 0.012 0.028 7e-3 0.026 8e-3 0.027 8e-3 0.027 0.01 0.052 0.02 0.025 0.012 0.026 0.012 0.025 0.013 0.024 0.013 0.024 0.014 0.024 0.015 0.046 0.032 0.023 0.017 0.022 0.017 0.021 0.019 0.021 0.018 0.021 0.019 0.019 0.02 0.02 0.021 0.036 0.042 0.018 0.022 0.017 0.022 0.032 0.046 0.015 0.024 0.014 0.024 0.014 0.025 0.012 0.025 0.013 0.025 0.022 0.052 0.01 0.026 9e-3 0.026 9e-3 0.027 7e-3 0.027 8e-3 0.027 6e-3 0.027 0.01 0.056 4e-3 0.027 3e-3 0.028 4e-3 0.056 1e-3 0.028v0.028l-2e-3 0.056-6e-3 0.056-8e-3 0.056-0.012 0.054-7e-3 0.028-8e-3 0.026-8e-3 0.027-0.01 0.027-0.02 0.052-0.012 0.025-0.012 0.026-0.013 0.025-0.013 0.024-0.014 0.024-0.015 0.024-0.032 0.046-0.017 0.023-0.017 0.022-0.019 0.021-0.018 0.021-0.019 0.021-0.02 0.019-0.021 0.02-0.042 0.036-0.022 0.018-0.022 0.017-0.046 0.032-0.024 0.015-0.024 0.014-0.025 0.014-0.025 0.012-2 1-0.025 0.013-0.052 0.022-0.026 0.01-0.026 9e-3 -0.027 9e-3 -0.027 7e-3 -0.027 8e-3 -0.027 6e-3 -0.056 0.01-0.027 4e-3 -0.028 3e-3 -0.056 4e-3 -0.028 1e-3h-0.028l-0.056-2e-3 -0.056-6e-3 -0.056-8e-3 -0.054-0.012-0.028-7e-3 -0.026-8e-3 -0.027-8e-3 -0.027-0.01-0.052-0.02-0.025-0.012-0.026-0.012-0.025-0.013-0.024-0.013-0.024-0.014-0.024-0.015-0.046-0.032-0.023-0.017-0.022-0.017-0.021-0.019-0.021-0.018-0.021-0.019-0.019-0.02-0.02-0.021-0.036-0.042-0.018-0.022-0.017-0.022-0.032-0.046-0.015-0.024-0.014-0.024-0.014-0.025-0.012-0.025-0.013-0.025-0.022-0.052-0.01-0.026-9e-3 -0.026-9e-3 -0.027-7e-3 -0.027-8e-3 -0.027-6e-3 -0.027-0.01-0.056-4e-3 -0.027-3e-3 -0.028-4e-3 -0.056-1e-3 -0.028v-0.028l2e-3 -0.056 6e-3 -0.056 8e-3 -0.056 0.012-0.054 7e-3 -0.028 8e-3 -0.026 8e-3 -0.027 0.01-0.027 0.02-0.052 0.012-0.025 0.012-0.026 0.013-0.025 0.013-0.024 0.014-0.024 0.015-0.024 0.032-0.046 0.017-0.023 0.017-0.022 0.019-0.021 0.018-0.021 0.019-0.021 0.02-0.019 0.021-0.02 0.042-0.036 0.022-0.018 0.022-0.017 0.046-0.032 0.024-0.015 0.024-0.014 0.025-0.014 0.025-0.012 2-1 0.025-0.013 0.052-0.022 0.026-0.01 0.026-9e-3 0.027-9e-3 0.027-7e-3 0.027-8e-3 0.027-6e-3 0.056-0.01 0.027-4e-3 0.028-3e-3 0.056-4e-3 0.028-1e-3h0.028l0.028 1e-3z"/></g></g></svg>
