<?xml version="1.0" encoding="UTF-8"?>
<!DOCTYPE svg  PUBLIC '-//W3C//DTD SVG 1.1//EN'  'http://www.w3.org/Graphics/SVG/1.1/DTD/svg11.dtd'>
<svg clip-rule="evenodd" fill-rule="evenodd" stroke-linejoin="round" stroke-miterlimit="1.4142" version="1.1" viewBox="0 0 32 32" xml:space="preserve" xmlns="http://www.w3.org/2000/svg">
<metadata>
<rdf:RDF xmlns:cc="http://web.resource.org/cc/" xmlns:dc="http://purl.org/dc/elements/1.1/" xmlns:rdf="http://www.w3.org/1999/02/22-rdf-syntax-ns#">

     <rdf:Description rdf:about="">
       <dc:title>Mutant Standard emoji 2023.12</dc:title>
     </rdf:Description>

    <cc:work rdf:about="">
        <cc:license rdf:resource="http://creativecommons.org/licenses/by-nc-sa/4.0/"/>
        <cc:attributionName>Caius Nocturne</cc:attributionName>
        <cc:attributionURL>http://mutant.tech/</cc:attributionURL>
    </cc:work>

</rdf:RDF>
</metadata>
<rect id="jack_o_lantern" width="32" height="32" fill="none"/><clipPath id="_clip1"><rect width="32" height="32"/></clipPath><g clip-path="url(#_clip1)"><g id="outline"><path d="m20.465 7.069c0.161 0.017 0.322 0.037 0.483 0.061 1.116 0.163 2.208 0.482 3.237 0.944 1.403 0.629 2.684 1.524 3.758 2.624 0.981 1.006 1.786 2.18 2.371 3.457 0.52 1.135 0.863 2.348 1 3.589 0.148 1.335 0.06 2.693-0.257 3.998-0.07 0.287-0.151 0.572-0.243 0.853-0.094 0.29-0.202 0.575-0.306 0.86-0.401 1.101-0.95 2.146-1.63 3.1-0.903 1.266-2.035 2.365-3.325 3.233-1.395 0.939-2.972 1.603-4.619 1.944-0.783 0.161-1.577 0.246-2.375 0.266-1.663 0.024-3.327 9e-3 -4.99 1e-3 -0.423-6e-3 -0.845-0.028-1.266-0.074-0.826-0.088-1.644-0.257-2.438-0.502-1.406-0.434-2.736-1.109-3.917-1.987-1.084-0.806-2.041-1.781-2.826-2.881-0.657-0.922-1.185-1.927-1.588-2.985-0.09-0.244-0.179-0.488-0.266-0.734-0.138-0.4-0.259-0.805-0.354-1.217-0.199-0.859-0.299-1.74-0.298-2.621 1e-3 -1.05 0.147-2.099 0.431-3.11 0.621-2.206 1.89-4.219 3.594-5.749 1.115-1.002 2.415-1.796 3.815-2.331 0.911-0.349 1.863-0.588 2.831-0.71 0.083-0.011 0.166-0.02 0.249-0.029l2.022-6.069h4.884l2.023 6.069z"/></g><g id="emoji"><path d="m12 12 3-9h2l3 9h-8z" fill="#219555"/><path d="m28.801 15.729c-1.482-4.042-5.33-6.729-9.635-6.729h-6.332c-4.305 0-8.153 2.687-9.635 6.729v1e-3c-0.774 2.112-0.777 4.429-9e-3 6.543 0.059 0.162 0.119 0.327 0.18 0.494 1.579 4.342 5.706 7.233 10.326 7.233h4.608c4.62 0 8.747-2.891 10.326-7.233 0.061-0.167 0.121-0.332 0.18-0.494 0.768-2.114 0.765-4.431-9e-3 -6.543v-1e-3z" fill="#ec6c10"/><path d="m5 17 4 6 3-2 2 2 2-2 2 2 2-2 3 2 4-6v3.528c0 2.741-1.549 5.246-4 6.472l-3-2-2 2-2-2-1.624 2-2.376-2-3 2c-2.451-1.226-4-3.731-4-6.472v-3.528z" fill="#ffec70"/><path d="m7 13 6 5s-0.926 0.309-2.051 0.684c-0.915 0.305-1.921 0.151-2.703-0.413-0.782-0.563-1.246-1.469-1.246-2.433v-2.838z" fill="#ffec70"/><path d="m25 13-6 5s0.926 0.309 2.051 0.684c0.915 0.305 1.921 0.151 2.703-0.413 0.782-0.563 1.246-1.469 1.246-2.433v-2.838z" fill="#ffec70"/></g></g></svg>
