<?xml version="1.0" encoding="UTF-8"?>
<!DOCTYPE svg  PUBLIC '-//W3C//DTD SVG 1.1//EN'  'http://www.w3.org/Graphics/SVG/1.1/DTD/svg11.dtd'>
<svg clip-rule="evenodd" fill-rule="evenodd" stroke-linejoin="round" stroke-miterlimit="1.4142" version="1.1" viewBox="0 0 32 32" xml:space="preserve" xmlns="http://www.w3.org/2000/svg">
<metadata>
<rdf:RDF xmlns:cc="http://web.resource.org/cc/" xmlns:dc="http://purl.org/dc/elements/1.1/" xmlns:rdf="http://www.w3.org/1999/02/22-rdf-syntax-ns#">

     <rdf:Description rdf:about="">
       <dc:title>Mutant Standard emoji 2023.12</dc:title>
     </rdf:Description>

    <cc:work rdf:about="">
        <cc:license rdf:resource="http://creativecommons.org/licenses/by-nc-sa/4.0/"/>
        <cc:attributionName>Caius Nocturne</cc:attributionName>
        <cc:attributionURL>http://mutant.tech/</cc:attributionURL>
    </cc:work>

</rdf:RDF>
</metadata>
<rect id="skull_and_crossbones" width="32" height="32" fill="none"/><clipPath id="_clip1"><rect width="32" height="32"/></clipPath><g clip-path="url(#_clip1)"><g id="outline"><path d="m5.997 11.038c-9e-3 -1.047-3e-3 -2.094 4e-3 -3.141 5e-3 -0.272 0.02-0.543 0.051-0.813 0.068-0.593 0.202-1.179 0.401-1.742 0.364-1.034 0.944-1.99 1.691-2.792 0.855-0.919 1.926-1.632 3.105-2.064 0.592-0.217 1.209-0.362 1.835-0.434 0.27-0.031 0.541-0.046 0.813-0.051 1.402-9e-3 2.804-9e-3 4.206 0 0.272 5e-3 0.543 0.02 0.813 0.051 0.626 0.072 1.243 0.217 1.835 0.434 1.029 0.377 1.976 0.967 2.769 1.723 0.885 0.845 1.573 1.891 1.994 3.04 0.205 0.56 0.347 1.143 0.422 1.735 0.034 0.269 0.053 0.539 0.061 0.811 0.021 1.08 6e-3 2.162 3e-3 3.243 0.268 0.038 0.53 0.105 0.784 0.205 0.841 0.332 1.534 0.992 1.906 1.816 0.14 0.309 0.232 0.637 0.279 0.972 0.074 0.011 0.074 0.011 0.148 0.023 0.425 0.082 0.83 0.229 1.2 0.454 0.8 0.486 1.383 1.291 1.594 2.203 0.079 0.346 0.106 0.703 0.079 1.056-0.029 0.377-0.119 0.748-0.266 1.096-0.164 0.389-0.399 0.747-0.69 1.052-0.311 0.325-0.683 0.59-1.093 0.775-0.45 0.204-0.935 0.304-1.428 0.31h-3.687l-1.223 0.612 0.763 0.381c1.408-5e-3 2.816-0.01 4.223 8e-3 0.148 6e-3 0.295 0.017 0.442 0.039 0.342 0.052 0.676 0.156 0.988 0.306 0.404 0.195 0.77 0.468 1.071 0.8 0.285 0.313 0.512 0.677 0.667 1.07 0.139 0.352 0.219 0.727 0.239 1.106 0.018 0.353-0.018 0.709-0.106 1.051-0.248 0.963-0.911 1.79-1.795 2.243-0.353 0.181-0.734 0.298-1.126 0.353-0.011 0.074-0.011 0.074-0.023 0.148-0.082 0.424-0.229 0.83-0.454 1.2-0.502 0.825-1.342 1.418-2.289 1.612-0.318 0.065-0.646 0.086-0.97 0.061-0.377-0.029-0.748-0.119-1.096-0.266-0.389-0.164-0.747-0.399-1.052-0.691-0.325-0.31-0.59-0.682-0.775-1.092-0.186-0.412-0.286-0.853-0.306-1.303l-6.227-3.113-5.777 2.888v0.1c-6e-3 0.493-0.106 0.978-0.31 1.428-0.185 0.41-0.45 0.782-0.775 1.092-0.305 0.292-0.663 0.527-1.052 0.691-0.348 0.147-0.719 0.237-1.096 0.266-0.353 0.027-0.711 0-1.056-0.08-0.997-0.23-1.861-0.904-2.327-1.815-0.181-0.353-0.298-0.734-0.353-1.126-0.074-0.011-0.074-0.011-0.148-0.023-0.424-0.082-0.829-0.229-1.199-0.454-0.801-0.486-1.384-1.291-1.594-2.203-0.08-0.346-0.107-0.703-0.08-1.056 0.029-0.377 0.119-0.748 0.266-1.096 0.164-0.389 0.399-0.747 0.691-1.052 0.31-0.325 0.682-0.59 1.092-0.775 0.45-0.204 0.935-0.304 1.428-0.31h3.687l0.776-0.388-1.204-0.602c-1.111 3e-3 -2.223 3e-3 -3.335-0.011-0.089-3e-3 -0.089-3e-3 -0.178-9e-3 -0.147-0.013-0.292-0.031-0.436-0.061-0.337-0.069-0.664-0.188-0.967-0.352-0.769-0.419-1.365-1.125-1.646-1.955-0.112-0.332-0.174-0.682-0.183-1.033-9e-3 -0.353 0.035-0.707 0.132-1.046 0.116-0.41 0.308-0.797 0.563-1.138 0.268-0.359 0.605-0.665 0.987-0.897 0.412-0.25 0.872-0.41 1.348-0.477 0.011-0.074 0.011-0.074 0.023-0.148 0.066-0.341 0.172-0.669 0.33-0.978 0.399-0.779 1.091-1.391 1.913-1.692 0.228-0.084 0.462-0.141 0.7-0.175z"/></g><g id="emoji"><path d="m22.339 23.216 1.661 0.83v-0.046h4.5c0.828 0 1.5 0.672 1.5 1.5s-0.672 1.5-1.5 1.5h-1.5v1.5c0 0.828-0.672 1.5-1.5 1.5s-1.5-0.672-1.5-1.5v-1.1l-4.811-2.405c0.156-9e-3 0.811-0.995 0.811-0.995s2.316-0.755 2.339-0.784zm-15.32-4.216h-3.519c-0.828 0-1.5-0.672-1.5-1.5s0.672-1.5 1.5-1.5h1.5v-1.5c0-0.828 0.672-1.5 1.5-1.5 0.157 0 0.309 0.024 0.451 0.069 0 0.387 0.549 0.931 0.549 0.931l0.5 4s-0.988 0.93-0.981 1z" fill="#d9d9d9"/><path d="m9.661 23.216-1.661 0.83v-0.046h-4.5c-0.828 0-1.5 0.672-1.5 1.5s0.672 1.5 1.5 1.5h1.5v1.5c0 0.828 0.672 1.5 1.5 1.5s1.5-0.672 1.5-1.5v-1.1l4.811-2.405c-0.156-9e-3 -0.811-0.995-0.811-0.995s-2.316-0.755-2.339-0.784zm15.32-4.216h3.519c0.828 0 1.5-0.672 1.5-1.5s-0.672-1.5-1.5-1.5h-1.5v-1.5c0-0.828-0.672-1.5-1.5-1.5-0.157 0-0.309 0.024-0.451 0.069 0 0.387-0.549 0.931-0.549 0.931l-0.5 4s0.988 0.93 0.981 1z" fill="#d9d9d9"/><path d="m22.5 16.796 1.5-0.75v-1.546c0-0.671 0.441-1.239 1.049-1.431 0 1.907-0.012 3.813-0.051 5.719-4e-3 0.071-0.01 0.142-0.017 0.212h-0.18l-11.99 5.995c-0.287-0.017-0.57-0.057-0.848-0.131-0.631-0.17-1.218-0.496-1.695-0.942-0.168-0.157-0.319-0.329-0.459-0.51-0.049-0.066-0.098-0.131-0.148-0.196l4.432-2.216h5.907l2.5-2v-2.204z" fill="#5a5a5a"/><path d="m17.907 21 4.432 2.216c-0.05 0.065-0.099 0.13-0.148 0.196-0.14 0.181-0.291 0.353-0.459 0.51-0.477 0.446-1.064 0.772-1.695 0.942-0.278 0.074-0.561 0.114-0.848 0.131l-11.99-5.995h-0.18c-7e-3 -0.07-0.013-0.141-0.017-0.212-0.039-1.906-0.051-3.812-0.051-5.719 0.608 0.192 1.049 0.76 1.049 1.431v1.546l1.5 0.75v2.204l2.5 2h5.907z" fill="#5a5a5a"/><path d="m8 8c0-3.314 2.686-6 6-6h4c3.314 0 6 2.686 6 6v3.343c0 1.061-0.421 2.078-1.172 2.829l-0.656 0.656c-0.751 0.751-1.768 1.172-2.829 1.172h-6.686c-1.061 0-2.078-0.421-2.829-1.172l-0.656-0.656c-0.751-0.751-1.172-1.768-1.172-2.829v-3.343z" fill="#d9d9d9"/><path d="m20 18h-2l-0.5-0.5-0.5 0.5h-2l-0.5-0.5-0.5 0.5h-2v-4h8v4z" fill="#d9d9d9"/><g fill="#5b5b5b"><rect x="14" y="15" width="1" height="3"/><rect x="17" y="15" width="1" height="3"/></g><path d="m9 16v2.667c0 0.216 0.07 0.427 0.2 0.6 0.442 0.589 1.518 2.024 2.2 2.933 0.378 0.504 0.97 0.8 1.6 0.8h6c0.63 0 1.222-0.296 1.6-0.8 0.682-0.909 1.758-2.344 2.2-2.933 0.13-0.173 0.2-0.384 0.2-0.6v-2.667h-1v2l-1 1-0.5 0.7-0.5 0.3h-2l-0.5 0.5-0.5-0.5h-2l-0.5 0.5-0.5-0.5h-2l-0.5-0.3-0.5-0.7-1-1v-2h-1z" fill="#d9d9d9"/><path d="m15 22h-1v-2h1v2zm3 0h-1v-2h1v2zm-6-2v1l-1-1v-1l1 1zm9-1v1l-1 1v-1l1-1z" fill="#5b5b5b"/><path d="m14 10c0-0.53-0.211-1.039-0.586-1.414s-0.884-0.586-1.414-0.586-1.039 0.211-1.414 0.586-0.586 0.884-0.586 1.414v1c0 0.53 0.211 1.039 0.586 1.414s0.884 0.586 1.414 0.586 1.039-0.211 1.414-0.586 0.586-0.884 0.586-1.414v-1z"/><path d="m22 10c0-0.53-0.211-1.039-0.586-1.414s-0.884-0.586-1.414-0.586-1.039 0.211-1.414 0.586-0.586 0.884-0.586 1.414v1c0 0.53 0.211 1.039 0.586 1.414s0.884 0.586 1.414 0.586 1.039-0.211 1.414-0.586 0.586-0.884 0.586-1.414v-1z"/></g></g></svg>
