<?xml version="1.0" encoding="UTF-8"?>
<!DOCTYPE svg  PUBLIC '-//W3C//DTD SVG 1.1//EN'  'http://www.w3.org/Graphics/SVG/1.1/DTD/svg11.dtd'>
<svg clip-rule="evenodd" fill-rule="evenodd" stroke-linejoin="round" stroke-miterlimit="1.4142" version="1.1" viewBox="0 0 32 32" xml:space="preserve" xmlns="http://www.w3.org/2000/svg">
<metadata>
<rdf:RDF xmlns:cc="http://web.resource.org/cc/" xmlns:dc="http://purl.org/dc/elements/1.1/" xmlns:rdf="http://www.w3.org/1999/02/22-rdf-syntax-ns#">

     <rdf:Description rdf:about="">
       <dc:title>Mutant Standard emoji 2023.12</dc:title>
     </rdf:Description>

    <cc:work rdf:about="">
        <cc:license rdf:resource="http://creativecommons.org/licenses/by-nc-sa/4.0/"/>
        <cc:attributionName>Caius Nocturne</cc:attributionName>
        <cc:attributionURL>http://mutant.tech/</cc:attributionURL>
    </cc:work>

</rdf:RDF>
</metadata>
<rect id="skull" width="32" height="32" fill="none"/><clipPath id="_clip1"><rect width="32" height="32"/></clipPath><g clip-path="url(#_clip1)"><g id="outline"><path d="m6 19.991-0.024-0.022c-0.268-0.248-0.517-0.512-0.74-0.802-0.507-0.663-0.873-1.43-1.069-2.241-0.099-0.411-0.148-0.827-0.165-1.248-0.026-1.936-0.013-3.871-1e-3 -5.807 7e-3 -0.382 0.031-0.763 0.079-1.142 0.094-0.739 0.271-1.468 0.527-2.167 0.54-1.475 1.432-2.813 2.581-3.883 1.003-0.933 2.196-1.658 3.489-2.113 0.704-0.248 1.436-0.416 2.177-0.501 0.338-0.039 0.677-0.058 1.017-0.064 1.419-9e-3 2.839-9e-3 4.258 0 0.34 6e-3 0.679 0.025 1.017 0.064 0.741 0.085 1.473 0.253 2.177 0.501 1.293 0.455 2.486 1.18 3.489 2.113 1.149 1.07 2.041 2.408 2.581 3.883 0.256 0.699 0.433 1.428 0.527 2.167 0.048 0.379 0.072 0.76 0.079 1.142 0.012 1.887 1e-3 3.774 1e-3 5.661-5e-3 0.365-0.035 0.728-0.102 1.087-0.153 0.82-0.478 1.606-0.95 2.294-0.239 0.348-0.515 0.663-0.817 0.957-0.044 0.041-0.087 0.081-0.131 0.12v6.01h-0.028c-1e-3 0.01-3e-3 0.019-4e-3 0.029-0.065 0.435-0.227 0.855-0.472 1.222-0.105 0.158-0.226 0.301-0.357 0.439-1.07 1.069-2.127 2.152-3.21 3.208-0.145 0.134-0.295 0.261-0.457 0.375-0.427 0.3-0.912 0.515-1.421 0.629-0.257 0.058-0.517 0.087-0.78 0.097-2.181 0.027-4.361 0.027-6.542 0-0.263-0.01-0.523-0.039-0.78-0.097-0.509-0.114-0.994-0.329-1.421-0.629-0.162-0.114-0.312-0.241-0.457-0.375-1.083-1.056-2.14-2.139-3.21-3.208-0.131-0.138-0.252-0.281-0.357-0.439-0.245-0.367-0.407-0.787-0.472-1.222-1e-3 -0.01-3e-3 -0.019-4e-3 -0.029h-0.028v-6.009z"/></g><g id="emoji"><path d="m6 10c0-4.418 3.582-8 8-8h4c4.418 0 8 3.582 8 8v5.519c0 1.134-0.481 2.214-1.324 2.973-0.179 0.16-0.36 0.324-0.535 0.481-0.735 0.661-1.688 1.027-2.676 1.027h-10.93c-0.988 0-1.941-0.366-2.676-1.027-0.175-0.157-0.356-0.321-0.535-0.481-0.843-0.759-1.324-1.839-1.324-2.973v-5.519z" fill="#d9d9d9"/><path d="m20 23h-2l-0.5-0.5-0.5 0.5h-2l-0.5-0.5-0.5 0.5h-2v-4h8v4z" fill="#d9d9d9"/><g fill="#5b5b5b"><rect x="14" y="20" width="1" height="3"/><rect x="17" y="20" width="1" height="3"/></g><path d="m8 21v4.586c0 0.265 0.105 0.519 0.293 0.707l3.121 3.121c0.375 0.375 0.884 0.586 1.414 0.586h6.344c0.53 0 1.039-0.211 1.414-0.586l3.121-3.121c0.188-0.188 0.293-0.442 0.293-0.707v-4.586h-1v4l-4 2h-6l-4-2v-4h-1z" fill="#d9d9d9"/><path d="m20 25h-2l-0.5 0.5-0.5-0.5h-2l-0.5 0.5-0.5-0.5h-2v3h8v-3z" fill="#d9d9d9"/><g fill="#5b5b5b"><rect x="14" y="25" width="1" height="3"/><rect x="17" y="25" width="1" height="3"/></g><path d="m8 14c0-1.657 1.343-3 3-3h1c1.105 0 2 0.895 2 2v1c0 1.657-1.343 3-3 3h-1c-1.105 0-2-0.895-2-2v-1z"/><path d="m18 13c0-1.105 0.895-2 2-2h1c1.657 0 3 1.343 3 3v1c0 1.105-0.895 2-2 2h-1c-1.657 0-3-1.343-3-3v-1z"/><path d="m14 18 2-2 2 2v1h-4v-1z"/></g></g></svg>
