<?xml version="1.0" encoding="UTF-8" standalone="no"?>
<!DOCTYPE svg PUBLIC "-//W3C//DTD SVG 1.1//EN" "http://www.w3.org/Graphics/SVG/1.1/DTD/svg11.dtd">
<svg width="100%" height="100%" viewBox="0 0 32 32" version="1.1" xmlns="http://www.w3.org/2000/svg" xmlns:xlink="http://www.w3.org/1999/xlink" xml:space="preserve" xmlns:serif="http://www.serif.com/" style="fill-rule:evenodd;clip-rule:evenodd;stroke-linejoin:round;stroke-miterlimit:1.41421;">
<metadata>
<rdf:RDF xmlns:cc="http://web.resource.org/cc/"
         xmlns:rdf="http://www.w3.org/1999/02/22-rdf-syntax-ns#"
         xmlns:dc = "http://purl.org/dc/elements/1.1/"
         >

     <rdf:Description rdf:about="">
       <dc:title>Mutant Standard S3</dc:title>
     </rdf:Description>

    <cc:work rdf:about="">
        <cc:license rdf:resource="http://creativecommons.org/licenses/by-nc-sa/4.0/"/>
        <cc:attributionName>Dzuk</cc:attributionName>
        <cc:attributionURL>http://mutant.tech/</cc:attributionURL>
    </cc:work>

</rdf:RDF>
</metadata>

    <rect id="bear_100" x="0" y="0" width="32" height="32" style="fill:none;"/>
    <clipPath id="_clip1">
        <rect x="0" y="0" width="32" height="32"/>
    </clipPath>
    <g clip-path="url(#_clip1)">
        <g id="outline">
            <path d="M20.021,3.553c1.42,-1.898 3.835,-2.959 6.286,-2.551l0.041,0.008l0.021,0.004l0.002,0c1.79,0.297 3.372,1.333 4.365,2.847c0.994,1.515 1.311,3.38 0.871,5.139l0,0.002c-0.614,2.456 -1.457,5.831 -2.039,8.16l-0.002,0.002c-0.335,1.339 -1.082,2.487 -2.075,3.337c0.652,0.638 1.059,1.525 1.059,2.499c0,1.92 -1.58,3.5 -3.501,3.5c-0.016,0 -0.032,0 -0.049,0l-0.486,0c0.024,0.163 0.036,0.33 0.036,0.5c0,1.92 -1.58,3.5 -3.501,3.5c-0.016,0 -0.033,0 -0.049,0l-9.025,0c-0.269,0 -0.536,0.044 -0.791,0.129c-1.446,0.482 -4.077,1.359 -4.077,1.359c-0.357,0.119 -0.731,0.18 -1.107,0.18c-1.921,0 -3.501,-1.58 -3.501,-3.501c0,-1.137 0.553,-2.182 1.44,-2.829c-0.233,-0.38 -0.395,-0.807 -0.468,-1.262c-1.802,-0.133 -3.243,-1.657 -3.243,-3.49c0,-0.316 0.043,-0.631 0.127,-0.936c0,0 1.756,-7.019 3.006,-12.021c-1.167,-0.598 -1.903,-1.804 -1.903,-3.115c0,-1.519 0.988,-2.872 2.435,-3.334c0,0 0.805,-0.269 1.58,-0.528c0.744,-0.248 1.535,-0.28 2.281,-0.119c0.746,0.162 1.449,0.518 2.023,1.051c0.197,0.182 0.374,0.381 0.531,0.593c1.438,-1.335 3.456,-2.015 5.499,-1.675l0.041,0.008l0.021,0.004l0.002,0c1.666,0.277 3.151,1.192 4.15,2.539Z"/>
        </g>
        <g id="emoji">
            <path d="M20.993,25.5c0.007,0 0.014,0 0.021,0c0.823,0 1.5,0.677 1.5,1.5c0,0.823 -0.677,1.5 -1.5,1.5c-0.007,0 -0.014,0 -0.021,0l-9.026,0c-0.483,0 -0.964,0.077 -1.423,0.23c-1.446,0.483 -4.077,1.36 -4.077,1.36c-0.16,0.057 -0.329,0.085 -0.499,0.085c-0.823,0 -1.5,-0.677 -1.5,-1.5c0,-0.653 0.427,-1.235 1.05,-1.431c0,0 2.632,-0.877 4.076,-1.359c0.765,-0.255 1.567,-0.385 2.373,-0.385l9.026,0Zm4,-4c0.007,0 0.014,0 0.021,0c0.823,0 1.5,0.677 1.5,1.5c0,0.823 -0.677,1.5 -1.5,1.5c-0.007,0 -0.014,0 -0.021,0l-14.026,0c-0.483,0 -0.964,0.077 -1.423,0.23c-0.882,0.295 -2.077,0.694 -2.077,0.694c-0.153,0.051 -0.313,0.077 -0.474,0.077c-0.823,0 -1.501,-0.678 -1.501,-1.501c0,-0.644 0.415,-1.22 1.026,-1.424c0,0 1.196,-0.397 2.076,-0.691c0.765,-0.255 1.567,-0.385 2.373,-0.385l14.026,0Zm-17.67,-18.516c-0.401,-0.086 -0.824,-0.067 -1.225,0.067c-0.775,0.259 -1.58,0.525 -1.58,0.525c-0.611,0.204 -1.026,0.78 -1.026,1.424c0,0.823 0.678,1.501 1.501,1.501c0.161,0 0.321,-0.026 0.474,-0.077c0,0 0.314,-0.106 0.407,-0.137c-1.184,4.735 -3.586,14.35 -3.586,14.35c-0.036,0.129 -0.054,0.263 -0.054,0.397c0,0.823 0.677,1.5 1.5,1.5c0.7,0 1.31,-0.489 1.464,-1.171c0,0 2.859,-11.433 3.887,-15.547c0.206,-0.821 -0.057,-1.693 -0.674,-2.265c-0.309,-0.287 -0.687,-0.48 -1.088,-0.567Zm4.66,17.034c-0.001,0 -0.025,-0.003 -0.033,-0.004c-1.238,-0.206 -2.334,-0.922 -3.022,-1.971c-0.688,-1.049 -0.907,-2.34 -0.603,-3.559l0,-0.002c0.614,-2.456 1.459,-5.828 2.041,-8.158l0,-0.002c0.566,-2.261 2.804,-3.731 5.105,-3.347l0.018,0.004l0.013,0.003c0,0 0,0 0.003,0l-0.003,0c0.003,0 0.026,0.003 0.032,0.004l0.002,0c1.238,0.206 2.334,0.922 3.021,1.971c0.688,1.049 0.908,2.34 0.604,3.559l0,0.002c-0.614,2.456 -1.459,5.828 -2.041,8.158l0,0.002c-0.567,2.261 -2.805,3.731 -5.106,3.347l-0.017,-0.003l-0.014,-0.004c0.001,0 0,0 -0.002,0l0.002,0Zm10.5,0c-0.001,0 -0.025,-0.003 -0.033,-0.004c-1.238,-0.206 -2.334,-0.922 -3.022,-1.971c-0.688,-1.049 -0.907,-2.34 -0.603,-3.559l0,-0.002c0.614,-2.456 1.459,-5.828 2.041,-8.158l0,-0.002c0.566,-2.261 2.804,-3.731 5.105,-3.347l0.018,0.004l0.013,0.003c0,0 0,0 0.003,0l-0.003,0c0.003,0 0.026,0.003 0.032,0.004l0.002,0c1.238,0.206 2.334,0.922 3.021,1.971c0.688,1.049 0.908,2.34 0.604,3.559l0,0.002c-0.614,2.456 -1.459,5.828 -2.041,8.158l0,0.002c-0.567,2.261 -2.805,3.731 -5.106,3.347l-0.017,-0.003l-0.014,-0.004c0.001,0 0,0 -0.002,0l0.002,0Zm3.026,-14.078c-0.01,-0.002 -0.032,-0.006 -0.065,-0.012l0.035,0.007c-0.785,-0.13 -1.509,0.343 -1.703,1.116c-0.582,2.33 -1.425,5.704 -2.039,8.16c-0.102,0.408 -0.029,0.837 0.201,1.187c0.23,0.351 0.595,0.588 1.006,0.657l0.018,0.002l0.014,0.003c0.011,0.002 0.032,0.006 0.066,0.012l-0.035,-0.008c0.785,0.131 1.509,-0.342 1.703,-1.115c0.582,-2.33 1.425,-5.704 2.039,-8.16c0.102,-0.408 0.029,-0.837 -0.201,-1.187c-0.23,-0.351 -0.595,-0.588 -1.006,-0.657l-0.018,-0.002l-0.015,-0.003Zm-10.5,0c-0.01,-0.002 -0.032,-0.006 -0.065,-0.012l0.035,0.007c-0.785,-0.13 -1.509,0.343 -1.703,1.116c-0.582,2.33 -1.425,5.704 -2.039,8.16c-0.102,0.408 -0.029,0.837 0.201,1.187c0.23,0.351 0.595,0.588 1.006,0.657l0.018,0.002l0.014,0.003c0.011,0.002 0.032,0.006 0.066,0.012l-0.035,-0.008c0.785,0.131 1.509,-0.342 1.703,-1.115c0.582,-2.33 1.425,-5.704 2.039,-8.16c0.102,-0.408 0.029,-0.837 -0.201,-1.187c-0.23,-0.351 -0.595,-0.588 -1.006,-0.657l-0.018,-0.002l-0.015,-0.003Zm7.967,11.12c-0.01,-0.002 -0.009,-0.002 0.003,0.001l-0.003,-0.001Zm-10.5,0c-0.01,-0.002 -0.009,-0.002 0.003,0.001l-0.003,-0.001Zm13.033,-11.12c0.011,0.002 0.01,0.002 -0.002,-0.001l0.002,0.001Zm-10.5,0c0.011,0.002 0.01,0.002 -0.002,-0.001l0.002,0.001Z" style="fill:none;"/>
            <clipPath id="_clip2">
                <path d="M20.993,25.5c0.007,0 0.014,0 0.021,0c0.823,0 1.5,0.677 1.5,1.5c0,0.823 -0.677,1.5 -1.5,1.5c-0.007,0 -0.014,0 -0.021,0l-9.026,0c-0.483,0 -0.964,0.077 -1.423,0.23c-1.446,0.483 -4.077,1.36 -4.077,1.36c-0.16,0.057 -0.329,0.085 -0.499,0.085c-0.823,0 -1.5,-0.677 -1.5,-1.5c0,-0.653 0.427,-1.235 1.05,-1.431c0,0 2.632,-0.877 4.076,-1.359c0.765,-0.255 1.567,-0.385 2.373,-0.385l9.026,0Zm4,-4c0.007,0 0.014,0 0.021,0c0.823,0 1.5,0.677 1.5,1.5c0,0.823 -0.677,1.5 -1.5,1.5c-0.007,0 -0.014,0 -0.021,0l-14.026,0c-0.483,0 -0.964,0.077 -1.423,0.23c-0.882,0.295 -2.077,0.694 -2.077,0.694c-0.153,0.051 -0.313,0.077 -0.474,0.077c-0.823,0 -1.501,-0.678 -1.501,-1.501c0,-0.644 0.415,-1.22 1.026,-1.424c0,0 1.196,-0.397 2.076,-0.691c0.765,-0.255 1.567,-0.385 2.373,-0.385l14.026,0Zm-17.67,-18.516c-0.401,-0.086 -0.824,-0.067 -1.225,0.067c-0.775,0.259 -1.58,0.525 -1.58,0.525c-0.611,0.204 -1.026,0.78 -1.026,1.424c0,0.823 0.678,1.501 1.501,1.501c0.161,0 0.321,-0.026 0.474,-0.077c0,0 0.314,-0.106 0.407,-0.137c-1.184,4.735 -3.586,14.35 -3.586,14.35c-0.036,0.129 -0.054,0.263 -0.054,0.397c0,0.823 0.677,1.5 1.5,1.5c0.7,0 1.31,-0.489 1.464,-1.171c0,0 2.859,-11.433 3.887,-15.547c0.206,-0.821 -0.057,-1.693 -0.674,-2.265c-0.309,-0.287 -0.687,-0.48 -1.088,-0.567Zm4.66,17.034c-0.001,0 -0.025,-0.003 -0.033,-0.004c-1.238,-0.206 -2.334,-0.922 -3.022,-1.971c-0.688,-1.049 -0.907,-2.34 -0.603,-3.559l0,-0.002c0.614,-2.456 1.459,-5.828 2.041,-8.158l0,-0.002c0.566,-2.261 2.804,-3.731 5.105,-3.347l0.018,0.004l0.013,0.003c0,0 0,0 0.003,0l-0.003,0c0.003,0 0.026,0.003 0.032,0.004l0.002,0c1.238,0.206 2.334,0.922 3.021,1.971c0.688,1.049 0.908,2.34 0.604,3.559l0,0.002c-0.614,2.456 -1.459,5.828 -2.041,8.158l0,0.002c-0.567,2.261 -2.805,3.731 -5.106,3.347l-0.017,-0.003l-0.014,-0.004c0.001,0 0,0 -0.002,0l0.002,0Zm10.5,0c-0.001,0 -0.025,-0.003 -0.033,-0.004c-1.238,-0.206 -2.334,-0.922 -3.022,-1.971c-0.688,-1.049 -0.907,-2.34 -0.603,-3.559l0,-0.002c0.614,-2.456 1.459,-5.828 2.041,-8.158l0,-0.002c0.566,-2.261 2.804,-3.731 5.105,-3.347l0.018,0.004l0.013,0.003c0,0 0,0 0.003,0l-0.003,0c0.003,0 0.026,0.003 0.032,0.004l0.002,0c1.238,0.206 2.334,0.922 3.021,1.971c0.688,1.049 0.908,2.34 0.604,3.559l0,0.002c-0.614,2.456 -1.459,5.828 -2.041,8.158l0,0.002c-0.567,2.261 -2.805,3.731 -5.106,3.347l-0.017,-0.003l-0.014,-0.004c0.001,0 0,0 -0.002,0l0.002,0Zm3.026,-14.078c-0.01,-0.002 -0.032,-0.006 -0.065,-0.012l0.035,0.007c-0.785,-0.13 -1.509,0.343 -1.703,1.116c-0.582,2.33 -1.425,5.704 -2.039,8.16c-0.102,0.408 -0.029,0.837 0.201,1.187c0.23,0.351 0.595,0.588 1.006,0.657l0.018,0.002l0.014,0.003c0.011,0.002 0.032,0.006 0.066,0.012l-0.035,-0.008c0.785,0.131 1.509,-0.342 1.703,-1.115c0.582,-2.33 1.425,-5.704 2.039,-8.16c0.102,-0.408 0.029,-0.837 -0.201,-1.187c-0.23,-0.351 -0.595,-0.588 -1.006,-0.657l-0.018,-0.002l-0.015,-0.003Zm-10.5,0c-0.01,-0.002 -0.032,-0.006 -0.065,-0.012l0.035,0.007c-0.785,-0.13 -1.509,0.343 -1.703,1.116c-0.582,2.33 -1.425,5.704 -2.039,8.16c-0.102,0.408 -0.029,0.837 0.201,1.187c0.23,0.351 0.595,0.588 1.006,0.657l0.018,0.002l0.014,0.003c0.011,0.002 0.032,0.006 0.066,0.012l-0.035,-0.008c0.785,0.131 1.509,-0.342 1.703,-1.115c0.582,-2.33 1.425,-5.704 2.039,-8.16c0.102,-0.408 0.029,-0.837 -0.201,-1.187c-0.23,-0.351 -0.595,-0.588 -1.006,-0.657l-0.018,-0.002l-0.015,-0.003Zm7.967,11.12c-0.01,-0.002 -0.009,-0.002 0.003,0.001l-0.003,-0.001Zm-10.5,0c-0.01,-0.002 -0.009,-0.002 0.003,0.001l-0.003,-0.001Zm13.033,-11.12c0.011,0.002 0.01,0.002 -0.002,-0.001l0.002,0.001Zm-10.5,0c0.011,0.002 0.01,0.002 -0.002,-0.001l0.002,0.001Z"/>
            </clipPath>
            <g clip-path="url(#_clip2)">
                <rect x="-0.007" y="2.914" width="32" height="27.3" style="fill:none;"/>
                <clipPath id="_clip3">
                    <rect x="-0.007" y="2.914" width="32" height="27.3"/>
                </clipPath>
                <g clip-path="url(#_clip3)">
                    <g>
                        <rect x="-1.15" y="24.754" width="34.286" height="6.825" style="fill:#2e2e2e;"/>
                        <path d="M33.136,20.659l-32.286,0l0,7.655l9.15,-3l23.136,0l0,-4.655Z" style="fill:#555;"/>
                        <path d="M33.136,16.316l-34.286,0l0,7.684l4.65,-0.39l4.5,-2.314l25.136,0l0,-4.98Z" style="fill:#fff;"/>
                        <rect x="-1.15" y="13.106" width="34.286" height="4.403" style="fill:#f1d2a6;"/>
                        <rect x="-1.15" y="9.254" width="34.286" height="4.586" style="fill:#fdcb00;"/>
                        <rect x="-1.15" y="5.401" width="34.286" height="4.769" style="fill:#df6800;"/>
                        <rect x="-1.15" y="1.549" width="34.286" height="4.953" style="fill:#6f431d;"/>
                    </g>
                </g>
                <path d="M1.743,1.337l8,0l0,5l-2,6l-4.4,0l1.4,-5l-3,0l0,-6Z" style="fill:#fff;"/>
                <path d="M2.55,8.668c-0.337,0.169 -0.55,0.513 -0.55,0.89c0,0.321 0.154,0.622 0.414,0.81c0.261,0.188 0.595,0.239 0.9,0.137c0.506,-0.169 1.042,-0.347 1.37,-0.457c0.205,-0.068 0.427,-0.068 0.632,0c0.328,0.11 0.864,0.288 1.37,0.457c0.305,0.102 0.639,0.051 0.9,-0.137c0.26,-0.188 0.414,-0.489 0.414,-0.81c0,-0.377 -0.213,-0.721 -0.55,-0.89c-0.14,-0.07 -0.295,-0.147 -0.449,-0.225c-0.614,-0.306 -1.001,-0.933 -1.001,-1.619c0,-0.487 -0.394,-0.881 -0.881,-0.881l-0.238,0c-0.487,0 -0.881,0.394 -0.881,0.881c0,0.686 -0.387,1.313 -1.001,1.619c-0.154,0.078 -0.309,0.155 -0.449,0.225Zm-0.55,-0.475c0,-0.199 -0.079,-0.39 -0.22,-0.53c-0.14,-0.141 -0.331,-0.22 -0.53,-0.22c-0.199,0 -0.39,0.079 -0.53,0.22c-0.141,0.14 -0.22,0.331 -0.22,0.53l0,0.5c0,0.199 0.079,0.39 0.22,0.53c0.14,0.141 0.331,0.22 0.53,0.22c0.199,0 0.39,-0.079 0.53,-0.22c0.141,-0.14 0.22,-0.331 0.22,-0.53l0,-0.5Zm6.5,-1.501c0,-0.414 -0.335,-0.749 -0.749,-0.749l-0.002,0c-0.414,0 -0.749,0.335 -0.749,0.749l0,0.502c0,0.414 0.335,0.749 0.749,0.749l0.002,0c0.414,0 0.749,-0.335 0.749,-0.749l0,-0.502Zm-5,-0.499c0,-0.199 -0.079,-0.39 -0.22,-0.53c-0.14,-0.141 -0.331,-0.22 -0.53,-0.22c-0.199,0 -0.39,0.079 -0.53,0.22c-0.141,0.14 -0.22,0.331 -0.22,0.53l0,0.5c0,0.199 0.079,0.39 0.22,0.53c0.14,0.141 0.331,0.22 0.53,0.22c0.199,0 0.39,-0.079 0.53,-0.22c0.141,-0.14 0.22,-0.331 0.22,-0.53l0,-0.5Zm3.5,-1.5c0,-0.199 -0.079,-0.39 -0.22,-0.53c-0.14,-0.141 -0.331,-0.22 -0.53,-0.22c-0.199,0 -0.39,0.079 -0.53,0.22c-0.141,0.14 -0.22,0.331 -0.22,0.53l0,0.5c0,0.199 0.079,0.39 0.22,0.53c0.14,0.141 0.331,0.22 0.53,0.22c0.199,0 0.39,-0.079 0.53,-0.22c0.141,-0.14 0.22,-0.331 0.22,-0.53l0,-0.5Zm-2,-0.5c0,-0.199 -0.079,-0.39 -0.22,-0.53c-0.14,-0.141 -0.331,-0.22 -0.53,-0.22c-0.199,0 -0.39,0.079 -0.53,0.22c-0.141,0.14 -0.22,0.331 -0.22,0.53l0,0.5c0,0.199 0.079,0.39 0.22,0.53c0.14,0.141 0.331,0.22 0.53,0.22c0.199,0 0.39,-0.079 0.53,-0.22c0.141,-0.14 0.22,-0.331 0.22,-0.53l0,-0.5Z"/>
            </g>
        </g>
    </g>
</svg>
