<?xml version="1.0" encoding="UTF-8"?>
<!DOCTYPE svg  PUBLIC '-//W3C//DTD SVG 1.1//EN'  'http://www.w3.org/Graphics/SVG/1.1/DTD/svg11.dtd'>
<svg clip-rule="evenodd" fill-rule="evenodd" stroke-linejoin="round" stroke-miterlimit="1.4142" version="1.1" viewBox="0 0 32 32" xml:space="preserve" xmlns="http://www.w3.org/2000/svg">
<metadata>
<rdf:RDF xmlns:cc="http://web.resource.org/cc/" xmlns:dc="http://purl.org/dc/elements/1.1/" xmlns:rdf="http://www.w3.org/1999/02/22-rdf-syntax-ns#">

     <rdf:Description rdf:about="">
       <dc:title>Mutant Standard S3</dc:title>
     </rdf:Description>

    <cc:work rdf:about="">
        <cc:license rdf:resource="http://creativecommons.org/licenses/by-nc-sa/4.0/"/>
        <cc:attributionName>Dzuk</cc:attributionName>
        <cc:attributionURL>http://mutant.tech/</cc:attributionURL>
    </cc:work>

</rdf:RDF>
</metadata>

    <rect id="bigender_100" width="32" height="32" fill="none"/>
    <clipPath id="_clip1">
        <rect width="32" height="32"/>
    </clipPath>
    <g clip-path="url(#_clip1)">
        <g id="outline">
            <path d="m20.021 3.553c1.42-1.898 3.835-2.959 6.286-2.551l0.041 8e-3 0.021 4e-3h2e-3c1.79 0.297 3.372 1.333 4.365 2.847 0.994 1.515 1.311 3.38 0.871 5.139v2e-3c-0.614 2.456-1.457 5.831-2.039 8.16l-2e-3 2e-3c-0.335 1.339-1.082 2.487-2.075 3.337 0.652 0.638 1.059 1.525 1.059 2.499 0 1.92-1.58 3.5-3.501 3.5h-0.049-0.486c0.024 0.163 0.036 0.33 0.036 0.5 0 1.92-1.58 3.5-3.501 3.5h-0.049-9.025c-0.269 0-0.536 0.044-0.791 0.129l-4.077 1.359c-0.357 0.119-0.731 0.18-1.107 0.18-1.921 0-3.501-1.58-3.501-3.501 0-1.137 0.553-2.182 1.44-2.829-0.233-0.38-0.395-0.807-0.468-1.262-1.802-0.133-3.243-1.657-3.243-3.49 0-0.316 0.043-0.631 0.127-0.936 0 0 1.756-7.019 3.006-12.021-1.167-0.598-1.903-1.804-1.903-3.115 0-1.519 0.988-2.872 2.435-3.334 0 0 0.805-0.269 1.58-0.528 0.744-0.248 1.535-0.28 2.281-0.119 0.746 0.162 1.449 0.518 2.023 1.051 0.197 0.182 0.374 0.381 0.531 0.593 1.438-1.335 3.456-2.015 5.499-1.675l0.041 8e-3 0.021 4e-3h2e-3c1.666 0.277 3.151 1.192 4.15 2.539z"/>
        </g>
        <g id="emoji">
            <path d="m21 25.5h0.021c0.823 0 1.5 0.677 1.5 1.5s-0.677 1.5-1.5 1.5h-0.021-9.025c-0.484 0-0.965 0.077-1.424 0.23-1.446 0.483-4.076 1.36-4.076 1.36-0.161 0.057-0.33 0.085-0.5 0.085-0.823 0-1.5-0.677-1.5-1.5 0-0.653 0.427-1.235 1.05-1.431 0 0 2.632-0.877 4.077-1.359 0.765-0.255 1.566-0.385 2.373-0.385h9.025zm4-4h0.021c0.823 0 1.5 0.677 1.5 1.5s-0.677 1.5-1.5 1.5h-0.021-14.025c-0.484 0-0.965 0.077-1.424 0.23-0.882 0.295-2.076 0.694-2.076 0.694-0.153 0.051-0.314 0.077-0.475 0.077-0.823 0-1.501-0.678-1.501-1.501 0-0.644 0.415-1.22 1.026-1.424 0 0 1.196-0.397 2.077-0.691 0.765-0.255 1.566-0.385 2.373-0.385h14.025zm-17.67-18.516c-0.401-0.086-0.824-0.067-1.225 0.067-0.775 0.259-1.58 0.525-1.58 0.525-0.611 0.204-1.026 0.78-1.026 1.424 0 0.823 0.678 1.501 1.501 1.501 0.161 0 0.322-0.026 0.475-0.077 0 0 0.314-0.106 0.406-0.137-1.184 4.735-3.586 14.35-3.586 14.35-0.036 0.129-0.054 0.263-0.054 0.397 0 0.823 0.678 1.5 1.501 1.5 0.699 0 1.31-0.489 1.463-1.171 0 0 2.859-11.433 3.887-15.547 0.206-0.821-0.057-1.693-0.674-2.265-0.309-0.287-0.687-0.48-1.088-0.567zm4.661 17.034c-2e-3 0-0.026-3e-3 -0.034-4e-3 -1.238-0.206-2.334-0.922-3.021-1.971-0.688-1.049-0.908-2.34-0.604-3.559v-2e-3c0.614-2.456 1.459-5.828 2.041-8.158v-2e-3c0.567-2.261 2.804-3.731 5.106-3.347l0.017 4e-3 0.014 3e-3h2e-3 -2e-3c2e-3 0 0.025 3e-3 0.031 4e-3h2e-3c1.238 0.206 2.334 0.922 3.021 1.971 0.688 1.049 0.908 2.34 0.604 3.559v2e-3c-0.614 2.456-1.459 5.828-2.041 8.158v2e-3c-0.567 2.261-2.804 3.731-5.106 3.347l-0.017-3e-3 -0.013-4e-3h-3e-3 3e-3zm10.5 0c-2e-3 0-0.026-3e-3 -0.034-4e-3 -1.238-0.206-2.334-0.922-3.021-1.971-0.688-1.049-0.908-2.34-0.604-3.559v-2e-3c0.614-2.456 1.459-5.828 2.041-8.158v-2e-3c0.567-2.261 2.804-3.731 5.106-3.347l0.017 4e-3 0.014 3e-3h2e-3 -2e-3c2e-3 0 0.025 3e-3 0.031 4e-3h2e-3c1.238 0.206 2.334 0.922 3.021 1.971 0.688 1.049 0.908 2.34 0.604 3.559v2e-3c-0.614 2.456-1.459 5.828-2.041 8.158v2e-3c-0.567 2.261-2.804 3.731-5.106 3.347l-0.017-3e-3 -0.013-4e-3h-3e-3 3e-3zm3.026-14.078c-0.011-2e-3 -0.032-6e-3 -0.066-0.012l0.035 7e-3c-0.785-0.13-1.509 0.343-1.703 1.116-0.582 2.33-1.425 5.704-2.039 8.16-0.102 0.408-0.029 0.837 0.201 1.187 0.23 0.351 0.595 0.588 1.006 0.657l0.018 2e-3 0.014 3e-3c0.011 2e-3 0.032 6e-3 0.066 0.012l-0.035-8e-3c0.785 0.131 1.509-0.342 1.703-1.115 0.582-2.33 1.425-5.704 2.039-8.16 0.102-0.408 0.029-0.837-0.201-1.187-0.23-0.351-0.595-0.588-1.006-0.657l-0.018-2e-3 -0.014-3e-3zm-10.5 0c-0.011-2e-3 -0.032-6e-3 -0.066-0.012l0.035 7e-3c-0.785-0.13-1.509 0.343-1.703 1.116-0.582 2.33-1.425 5.704-2.039 8.16-0.102 0.408-0.029 0.837 0.201 1.187 0.23 0.351 0.595 0.588 1.006 0.657l0.018 2e-3 0.014 3e-3c0.011 2e-3 0.032 6e-3 0.066 0.012l-0.035-8e-3c0.785 0.131 1.509-0.342 1.703-1.115 0.582-2.33 1.425-5.704 2.039-8.16 0.102-0.408 0.029-0.837-0.201-1.187-0.23-0.351-0.595-0.588-1.006-0.657l-0.018-2e-3 -0.014-3e-3zm7.966 11.12c-0.01-2e-3 -9e-3 -2e-3 3e-3 1e-3l-3e-3 -1e-3zm-10.5 0c-0.01-2e-3 -9e-3 -2e-3 3e-3 1e-3l-3e-3 -1e-3zm13.034-11.12c0.01 2e-3 9e-3 2e-3 -3e-3 -1e-3l3e-3 1e-3zm-10.5 0c0.01 2e-3 9e-3 2e-3 -3e-3 -1e-3l3e-3 1e-3z" fill="none"/>
            <clipPath id="_clip2">
                <path d="m21 25.5h0.021c0.823 0 1.5 0.677 1.5 1.5s-0.677 1.5-1.5 1.5h-0.021-9.025c-0.484 0-0.965 0.077-1.424 0.23-1.446 0.483-4.076 1.36-4.076 1.36-0.161 0.057-0.33 0.085-0.5 0.085-0.823 0-1.5-0.677-1.5-1.5 0-0.653 0.427-1.235 1.05-1.431 0 0 2.632-0.877 4.077-1.359 0.765-0.255 1.566-0.385 2.373-0.385h9.025zm4-4h0.021c0.823 0 1.5 0.677 1.5 1.5s-0.677 1.5-1.5 1.5h-0.021-14.025c-0.484 0-0.965 0.077-1.424 0.23-0.882 0.295-2.076 0.694-2.076 0.694-0.153 0.051-0.314 0.077-0.475 0.077-0.823 0-1.501-0.678-1.501-1.501 0-0.644 0.415-1.22 1.026-1.424 0 0 1.196-0.397 2.077-0.691 0.765-0.255 1.566-0.385 2.373-0.385h14.025zm-17.67-18.516c-0.401-0.086-0.824-0.067-1.225 0.067-0.775 0.259-1.58 0.525-1.58 0.525-0.611 0.204-1.026 0.78-1.026 1.424 0 0.823 0.678 1.501 1.501 1.501 0.161 0 0.322-0.026 0.475-0.077 0 0 0.314-0.106 0.406-0.137-1.184 4.735-3.586 14.35-3.586 14.35-0.036 0.129-0.054 0.263-0.054 0.397 0 0.823 0.678 1.5 1.501 1.5 0.699 0 1.31-0.489 1.463-1.171 0 0 2.859-11.433 3.887-15.547 0.206-0.821-0.057-1.693-0.674-2.265-0.309-0.287-0.687-0.48-1.088-0.567zm4.661 17.034c-2e-3 0-0.026-3e-3 -0.034-4e-3 -1.238-0.206-2.334-0.922-3.021-1.971-0.688-1.049-0.908-2.34-0.604-3.559v-2e-3c0.614-2.456 1.459-5.828 2.041-8.158v-2e-3c0.567-2.261 2.804-3.731 5.106-3.347l0.017 4e-3 0.014 3e-3h2e-3 -2e-3c2e-3 0 0.025 3e-3 0.031 4e-3h2e-3c1.238 0.206 2.334 0.922 3.021 1.971 0.688 1.049 0.908 2.34 0.604 3.559v2e-3c-0.614 2.456-1.459 5.828-2.041 8.158v2e-3c-0.567 2.261-2.804 3.731-5.106 3.347l-0.017-3e-3 -0.013-4e-3h-3e-3 3e-3zm10.5 0c-2e-3 0-0.026-3e-3 -0.034-4e-3 -1.238-0.206-2.334-0.922-3.021-1.971-0.688-1.049-0.908-2.34-0.604-3.559v-2e-3c0.614-2.456 1.459-5.828 2.041-8.158v-2e-3c0.567-2.261 2.804-3.731 5.106-3.347l0.017 4e-3 0.014 3e-3h2e-3 -2e-3c2e-3 0 0.025 3e-3 0.031 4e-3h2e-3c1.238 0.206 2.334 0.922 3.021 1.971 0.688 1.049 0.908 2.34 0.604 3.559v2e-3c-0.614 2.456-1.459 5.828-2.041 8.158v2e-3c-0.567 2.261-2.804 3.731-5.106 3.347l-0.017-3e-3 -0.013-4e-3h-3e-3 3e-3zm3.026-14.078c-0.011-2e-3 -0.032-6e-3 -0.066-0.012l0.035 7e-3c-0.785-0.13-1.509 0.343-1.703 1.116-0.582 2.33-1.425 5.704-2.039 8.16-0.102 0.408-0.029 0.837 0.201 1.187 0.23 0.351 0.595 0.588 1.006 0.657l0.018 2e-3 0.014 3e-3c0.011 2e-3 0.032 6e-3 0.066 0.012l-0.035-8e-3c0.785 0.131 1.509-0.342 1.703-1.115 0.582-2.33 1.425-5.704 2.039-8.16 0.102-0.408 0.029-0.837-0.201-1.187-0.23-0.351-0.595-0.588-1.006-0.657l-0.018-2e-3 -0.014-3e-3zm-10.5 0c-0.011-2e-3 -0.032-6e-3 -0.066-0.012l0.035 7e-3c-0.785-0.13-1.509 0.343-1.703 1.116-0.582 2.33-1.425 5.704-2.039 8.16-0.102 0.408-0.029 0.837 0.201 1.187 0.23 0.351 0.595 0.588 1.006 0.657l0.018 2e-3 0.014 3e-3c0.011 2e-3 0.032 6e-3 0.066 0.012l-0.035-8e-3c0.785 0.131 1.509-0.342 1.703-1.115 0.582-2.33 1.425-5.704 2.039-8.16 0.102-0.408 0.029-0.837-0.201-1.187-0.23-0.351-0.595-0.588-1.006-0.657l-0.018-2e-3 -0.014-3e-3zm7.966 11.12c-0.01-2e-3 -9e-3 -2e-3 3e-3 1e-3l-3e-3 -1e-3zm-10.5 0c-0.01-2e-3 -9e-3 -2e-3 3e-3 1e-3l-3e-3 -1e-3zm13.034-11.12c0.01 2e-3 9e-3 2e-3 -3e-3 -1e-3l3e-3 1e-3zm-10.5 0c0.01 2e-3 9e-3 2e-3 -3e-3 -1e-3l3e-3 1e-3z"/>
            </clipPath>
            <g clip-path="url(#_clip2)">
                <rect y="2.914" width="32" height="27.262"/>
                <clipPath id="_clip3">
                    <rect y="2.914" width="32" height="27.262"/>
                </clipPath>
                <g clip-path="url(#_clip3)">
                    
                        <rect x="-1.143" y="24.723" width="34.286" height="6.815" fill="#6160b1"/>
                        <path d="m33.143 20.634h-34.286v7.647l12.643-3h21.643v-4.647z" fill="#7fabdd"/>
                        <path d="m33.143 16.176h-34.286v8.547l10.36-3.598h23.926v-4.949z" fill="#d8c0f7"/>
                        <rect x="-1.143" y="12.997" width="34.286" height="4.361" fill="#fff"/>
                        <rect x="-1.143" y="9.181" width="34.286" height="4.541" fill="#d8c0f7"/>
                        <rect x="-1.143" y="5.366" width="34.286" height="4.723" fill="#d993bd"/>
                        <rect x="-1.143" y="1.551" width="34.286" height="4.905" fill="#af599a"/>
                    
                </g>
            </g>
        </g>
    </g>
</svg>
