<?xml version="1.0" encoding="UTF-8"?>
<!DOCTYPE svg  PUBLIC '-//W3C//DTD SVG 1.1//EN'  'http://www.w3.org/Graphics/SVG/1.1/DTD/svg11.dtd'>
<svg clip-rule="evenodd" fill-rule="evenodd" stroke-linejoin="round" stroke-miterlimit="2" version="1.1" viewBox="0 0 32 32" xml:space="preserve" xmlns="http://www.w3.org/2000/svg">
<metadata>
<rdf:RDF xmlns:cc="http://web.resource.org/cc/" xmlns:dc="http://purl.org/dc/elements/1.1/" xmlns:rdf="http://www.w3.org/1999/02/22-rdf-syntax-ns#">

     <rdf:Description rdf:about="">
       <dc:title>Mutant Standard emoji 2023.12</dc:title>
     </rdf:Description>

    <cc:work rdf:about="">
        <cc:license rdf:resource="http://creativecommons.org/licenses/by-nc-sa/4.0/"/>
        <cc:attributionName>Caius Nocturne</cc:attributionName>
        <cc:attributionURL>http://mutant.tech/</cc:attributionURL>
    </cc:work>

</rdf:RDF>
</metadata>

    <rect id="bone" width="32" height="32" fill="none"/>
    <clipPath id="_clip1">
        <rect width="32" height="32"/>
    </clipPath>
    <g clip-path="url(#_clip1)">
        <g id="outline">
            <path d="m23.615 1e-3c0.153 6e-3 0.304 0.016 0.455 0.035 0.37 0.047 0.734 0.14 1.08 0.277 1.117 0.44 2.028 1.33 2.496 2.435 0.172 0.408 0.279 0.837 0.329 1.277 0.104 0.012 0.104 0.012 0.208 0.027 0.185 0.03 0.367 0.068 0.548 0.119 0.422 0.12 0.826 0.302 1.196 0.539 1.015 0.651 1.74 1.704 1.982 2.885 0.09 0.443 0.114 0.9 0.069 1.35-0.043 0.438-0.152 0.87-0.32 1.277-0.212 0.51-0.517 0.98-0.898 1.38-0.407 0.428-0.898 0.773-1.437 1.012-0.403 0.179-0.831 0.298-1.268 0.352-0.18 0.022-0.361 0.032-0.543 0.034h-2.684l-11.828 11.828v2.686c-2e-3 0.182-0.012 0.362-0.034 0.543-0.054 0.436-0.173 0.865-0.351 1.267-0.239 0.539-0.585 1.03-1.012 1.437-0.4 0.38-0.87 0.685-1.379 0.897-1.14 0.472-2.453 0.452-3.577-0.056-0.428-0.194-0.825-0.455-1.173-0.771-0.347-0.315-0.643-0.684-0.877-1.09-0.22-0.382-0.383-0.797-0.482-1.227-0.041-0.178-0.069-0.358-0.09-0.539-0.096-0.011-0.096-0.011-0.191-0.024-0.182-0.03-0.361-0.065-0.539-0.115-0.458-0.127-0.896-0.327-1.293-0.592-0.492-0.328-0.918-0.754-1.246-1.246-0.305-0.458-0.525-0.971-0.646-1.507-0.261-1.156-0.048-2.393 0.586-3.395 0.237-0.376 0.53-0.716 0.867-1.006 0.334-0.287 0.711-0.526 1.114-0.704 0.403-0.179 0.831-0.298 1.268-0.352 0.18-0.022 0.361-0.032 0.543-0.034h2.684l11.828-11.828v-2.684c6e-3 -0.477 0.078-0.948 0.228-1.402 0.196-0.593 0.517-1.143 0.936-1.606 0.446-0.493 1-0.883 1.614-1.138 0.339-0.14 0.695-0.239 1.057-0.293 0.147-0.022 0.294-0.034 0.442-0.044 0.113-4e-3 0.225-5e-3 0.338-4e-3z" fill-rule="nonzero"/>
        </g>
        <g id="emoji">
            <path d="m26 6v-1.5c0-1.381-1.119-2.5-2.5-2.5-0.663 0-1.299 0.263-1.768 0.732s-0.732 1.105-0.732 1.768v3.5l-13 13h-3.502c-0.663 0-1.298 0.263-1.766 0.732-0.469 0.468-0.732 1.103-0.732 1.766v4e-3c0 0.663 0.263 1.298 0.732 1.766 0.468 0.469 1.104 0.732 1.766 0.732h1.502v1.502c0 0.662 0.263 1.298 0.732 1.766 0.468 0.469 1.103 0.732 1.766 0.732h4e-3c0.663 0 1.298-0.263 1.766-0.732 0.469-0.468 0.732-1.103 0.732-1.766v-3.502l13-13h3.5c0.663 0 1.299-0.263 1.768-0.732s0.732-1.105 0.732-1.768c0-1.381-1.119-2.5-2.5-2.5h-1.5z" fill="#d9d9d9"/>
        </g>
    </g>
</svg>
