<?xml version="1.0" encoding="UTF-8"?>
<!DOCTYPE svg  PUBLIC '-//W3C//DTD SVG 1.1//EN'  'http://www.w3.org/Graphics/SVG/1.1/DTD/svg11.dtd'>
<svg clip-rule="evenodd" fill-rule="evenodd" stroke-linecap="round" stroke-linejoin="round" stroke-miterlimit="1.5" version="1.1" viewBox="0 0 32 32" xml:space="preserve" xmlns="http://www.w3.org/2000/svg">
<metadata>
<rdf:RDF xmlns:cc="http://web.resource.org/cc/" xmlns:dc="http://purl.org/dc/elements/1.1/" xmlns:rdf="http://www.w3.org/1999/02/22-rdf-syntax-ns#">

     <rdf:Description rdf:about="">
       <dc:title>Mutant Standard emoji 2023.12</dc:title>
     </rdf:Description>

    <cc:work rdf:about="">
        <cc:license rdf:resource="http://creativecommons.org/licenses/by-nc-sa/4.0/"/>
        <cc:attributionName>Caius Nocturne</cc:attributionName>
        <cc:attributionURL>http://mutant.tech/</cc:attributionURL>
    </cc:work>

</rdf:RDF>
</metadata>

    <rect id="briefcase" width="32" height="32" fill="none"/>
    <clipPath id="_clip1">
        <rect width="32" height="32"/>
    </clipPath>
    <g clip-path="url(#_clip1)">
        <g id="outline">
            <path d="m9 8v-2c0-1.657 1.343-3 3-3h8c1.657 0 3 1.343 3 3v2h5c0.53 0 1.039 0.211 1.414 0.586s0.586 0.884 0.586 1.414v16c0 0.53-0.211 1.039-0.586 1.414s-0.884 0.586-1.414 0.586h-24c-0.53 0-1.039-0.211-1.414-0.586s-0.586-0.884-0.586-1.414v-16c0-0.53 0.211-1.039 0.586-1.414s0.884-0.586 1.414-0.586h5zm11 0v-1c0-0.552-0.448-1-1-1h-6c-0.552 0-1 0.448-1 1v1h8z" fill="none" stroke="#000" stroke-width="4px"/>
        </g>
        <g id="emoji">
            <path d="m30 10c0-1.105-0.895-2-2-2h-24c-1.105 0-2 0.895-2 2v4h28v-4z" fill="#5a5a5a"/>
            <path d="m30 14c0-1.105-0.895-2-2-2h-24c-1.105 0-2 0.895-2 2v12c0 1.105 0.895 2 2 2h24c1.105 0 2-0.895 2-2v-12z" fill="#404040"/>
            <path d="m9 10v-4c0-1.657 1.343-3 3-3h8c1.657 0 3 1.343 3 3v4h-3v-3c0-0.552-0.448-1-1-1h-6c-0.552 0-1 0.448-1 1v3h-3z" fill="#404040"/>
            <path d="m7 9.5c0-0.133-0.053-0.26-0.146-0.354-0.094-0.093-0.221-0.146-0.354-0.146h-2c-0.133 0-0.26 0.053-0.354 0.146-0.093 0.094-0.146 0.221-0.146 0.354v1c0 0.133 0.053 0.26 0.146 0.354 0.094 0.093 0.221 0.146 0.354 0.146h2c0.133 0 0.26-0.053 0.354-0.146 0.093-0.094 0.146-0.221 0.146-0.354v-1z" fill="#d2a53d"/>
            <path d="m28 9.5c0-0.133-0.053-0.26-0.146-0.354-0.094-0.093-0.221-0.146-0.354-0.146h-2c-0.133 0-0.26 0.053-0.354 0.146-0.093 0.094-0.146 0.221-0.146 0.354v1c0 0.133 0.053 0.26 0.146 0.354 0.094 0.093 0.221 0.146 0.354 0.146h2c0.133 0 0.26-0.053 0.354-0.146 0.093-0.094 0.146-0.221 0.146-0.354v-1z" fill="#d2a53d"/>
        </g>
    </g>
</svg>
