<?xml version="1.0" encoding="UTF-8"?>
<svg clip-rule="evenodd" fill-rule="evenodd" stroke-linecap="round" stroke-linejoin="round" stroke-miterlimit="1.5" viewBox="0 0 32 32" xmlns="http://www.w3.org/2000/svg">
 <clipPath id="a">
  <path d="m0 0h32v32h-32z" clip-rule="evenodd"/>
 </clipPath>
 <path d="m0 0h32v32h-32z" fill="none"/>
 <g clip-path="url(#a)">
  <path d="m9 8v-2c0-1.657 1.343-3 3-3h8c1.657 0 3 1.343 3 3v2h5c0.53 0 1.039 0.211 1.414 0.586s0.586 0.884 0.586 1.414v16c0 0.53-0.211 1.039-0.586 1.414s-0.884 0.586-1.414 0.586h-24c-0.53 0-1.039-0.211-1.414-0.586s-0.586-0.884-0.586-1.414v-16c0-0.53 0.211-1.039 0.586-1.414s0.884-0.586 1.414-0.586zm11 0v-1c0-0.552-0.448-1-1-1h-6c-0.552 0-1 0.448-1 1v1z" fill="none" stroke="#000" stroke-width="4"/>
  <path d="m30 10c0-1.105-0.895-2-2-2h-24c-1.105 0-2 0.895-2 2v4h28z" fill="#5a5a5a"/>
  <path d="m30 14c0-1.105-0.895-2-2-2h-24c-1.105 0-2 0.895-2 2v12c0 1.105 0.895 2 2 2h24c1.105 0 2-0.895 2-2v-12z" fill="#404040"/>
  <path d="m9 10v-4c0-1.657 1.343-3 3-3h8c1.657 0 3 1.343 3 3v4h-3v-3c0-0.552-0.448-1-1-1h-6c-0.552 0-1 0.448-1 1v3z" fill="#404040"/>
  <g fill="#d2a53d">
   <path d="m7 9.5c0-.133-.053-.26-.146-.354-.094-.093-.221-.146-.354-.146-.555 0-1.445 0-2 0-.133 0-.26.053-.354.146-.093.094-.146.221-.146.354v1c0 .133.053.26.146.354.094.093.221.146.354.146h2c.133 0 .26-.053.354-.146.093-.094.146-.221.146-.354 0-.305 0-.695 0-1z"/>
   <path d="m28 9.5c0-.133-.053-.26-.146-.354-.094-.093-.221-.146-.354-.146-.555 0-1.445 0-2 0-.133 0-.26.053-.354.146-.093.094-.146.221-.146.354v1c0 .133.053.26.146.354.094.093.221.146.354.146h2c.133 0 .26-.053.354-.146.093-.094.146-.221.146-.354 0-.305 0-.695 0-1z"/>
  </g>
 </g>
</svg>
