<?xml version="1.0" encoding="UTF-8"?>
<!DOCTYPE svg  PUBLIC '-//W3C//DTD SVG 1.1//EN'  'http://www.w3.org/Graphics/SVG/1.1/DTD/svg11.dtd'>
<svg clip-rule="evenodd" fill-rule="evenodd" stroke-linecap="round" stroke-linejoin="round" stroke-miterlimit="1.5" version="1.1" viewBox="0 0 32 32" xml:space="preserve" xmlns="http://www.w3.org/2000/svg">
<metadata>
<rdf:RDF xmlns:cc="http://web.resource.org/cc/" xmlns:dc="http://purl.org/dc/elements/1.1/" xmlns:rdf="http://www.w3.org/1999/02/22-rdf-syntax-ns#">

     <rdf:Description rdf:about="">
       <dc:title>Mutant Standard emoji 2023.12</dc:title>
     </rdf:Description>

    <cc:work rdf:about="">
        <cc:license rdf:resource="http://creativecommons.org/licenses/by-nc-sa/4.0/"/>
        <cc:attributionName>Caius Nocturne</cc:attributionName>
        <cc:attributionURL>http://mutant.tech/</cc:attributionURL>
    </cc:work>

</rdf:RDF>
</metadata>

    <rect id="glowstick" width="32" height="32" fill="none"/>
    <g id="outline">
        <path d="m24 4 4 4-21 21c-1.105 1.105-2.895 1.105-4 0-0.531-0.531-0.829-1.25-0.829-2s0.298-1.469 0.829-2l0.5-0.5c0.276-0.276 0.724-0.276 1 0s0.276 0.724 0 1l-0.5 0.5c-0.552 0.552-0.552 1.448 0 2s1.448 0.552 2 0l2-2-3-3 19-19z" fill="none" stroke="#000" stroke-width="4px"/>
        <path d="m25 2 5 5-4 4-5-5 4-4z" fill="none" stroke="#000" stroke-width="4px"/>
        <path d="m3 25 3-3" fill="none" stroke="#000" stroke-linecap="butt" stroke-width="4px"/>
        <path d="m14 8v-3" fill="none" stroke="#000" stroke-width="6px"/>
        <path d="m18 24v3" fill="none" stroke="#000" stroke-width="6px"/>
        <path d="m8 14h-3" fill="none" stroke="#000" stroke-width="6px"/>
        <path d="m24 18h3" fill="none" stroke="#000" stroke-width="6px"/>
        <path d="m10 10-2-2" fill="none" stroke="#000" stroke-width="6px"/>
        <path d="m22 22 2 2" fill="none" stroke="#000" stroke-width="6px"/>
        <rect x="9" y="9" width="13" height="13"/>
    </g>
    <g id="emoji">
        <path d="m24 4 4 4-21 21c-1.105 1.105-2.895 1.105-4 0-0.531-0.531-0.829-1.25-0.829-2s0.298-1.469 0.829-2l0.5-0.5c0.276-0.276 0.724-0.276 1 0s0.276 0.724 0 1l-0.5 0.5c-0.552 0.552-0.552 1.448 0 2s1.448 0.552 2 0l2-2-3-3 19-19z" fill="#3cf875"/>
        <path d="m25 2 5 5-4 4-5-5 4-4z" fill="#75cf90"/>
        <path d="m14 8v-3" fill="none" stroke="#3cf875" stroke-width="2px"/>
        <path d="m18 24v3" fill="none" stroke="#3cf875" stroke-width="2px"/>
        <path d="m8 14h-3" fill="none" stroke="#3cf875" stroke-width="2px"/>
        <path d="m24 18h3" fill="none" stroke="#3cf875" stroke-width="2px"/>
        <path d="m10 10-2-2" fill="none" stroke="#3cf875" stroke-width="2px"/>
        <path d="m22 22 2 2" fill="none" stroke="#3cf875" stroke-width="2px"/>
    </g>
</svg>
