<?xml version="1.0" encoding="UTF-8"?>
<!DOCTYPE svg  PUBLIC '-//W3C//DTD SVG 1.1//EN'  'http://www.w3.org/Graphics/SVG/1.1/DTD/svg11.dtd'>
<svg clip-rule="evenodd" fill-rule="evenodd" stroke-miterlimit="1.5" version="1.1" viewBox="0 0 32 32" xml:space="preserve" xmlns="http://www.w3.org/2000/svg">
<metadata>
<rdf:RDF xmlns:cc="http://web.resource.org/cc/" xmlns:dc="http://purl.org/dc/elements/1.1/" xmlns:rdf="http://www.w3.org/1999/02/22-rdf-syntax-ns#">

     <rdf:Description rdf:about="">
       <dc:title>Mutant Standard emoji 2023.12</dc:title>
     </rdf:Description>

    <cc:work rdf:about="">
        <cc:license rdf:resource="http://creativecommons.org/licenses/by-nc-sa/4.0/"/>
        <cc:attributionName>Caius Nocturne</cc:attributionName>
        <cc:attributionURL>http://mutant.tech/</cc:attributionURL>
    </cc:work>

</rdf:RDF>
</metadata>

    <rect id="chart" width="32" height="32" fill="none"/>
    <g id="outline">
        <path d="m32 4c0-2.209-1.791-4-4-4h-24c-2.209 0-4 1.791-4 4v24c0 2.209 1.791 4 4 4h24c2.209 0 4-1.791 4-4v-24z"/>
    </g>
    <g id="emoji">
        <path d="m30 4c0-0.53-0.211-1.039-0.586-1.414s-0.884-0.586-1.414-0.586h-24c-0.53 0-1.039 0.211-1.414 0.586s-0.586 0.884-0.586 1.414v24c0 0.53 0.211 1.039 0.586 1.414s0.884 0.586 1.414 0.586h24c0.53 0 1.039-0.211 1.414-0.586s0.586-0.884 0.586-1.414v-24z" fill="#199d4e"/>
        <clipPath id="_clip1">
            <path d="m30 4c0-0.53-0.211-1.039-0.586-1.414s-0.884-0.586-1.414-0.586h-24c-0.53 0-1.039 0.211-1.414 0.586s-0.586 0.884-0.586 1.414v24c0 0.53 0.211 1.039 0.586 1.414s0.884 0.586 1.414 0.586h24c0.53 0 1.039-0.211 1.414-0.586s0.586-0.884 0.586-1.414v-24z"/>
        </clipPath>
        <g clip-path="url(#_clip1)">
            <rect x="3" y="14" width="25" height="1.5" fill="#1fc260"/>
            <rect x="3" y="17" width="25" height="1.5" fill="#1fc260"/>
            <rect x="3" y="20" width="25" height="1.5" fill="#1fc260"/>
            <rect x="3" y="23" width="25" height="1.5" fill="#1fc260"/>
            <path d="m3 2v27h27" fill="none" stroke="#fff" stroke-width="2px"/>
        </g>
        <path d="m12 7c0-1.657-1.343-3-3-3s-3 1.343-3 3 1.343 3 3 3 3-1.343 3-3z" fill="#fff"/>
    </g>
    <path d="m9 22 3 3 5-10 4 4 5.5-11" fill="none" stroke="#fff" stroke-miterlimit="2" stroke-width="2px"/>
</svg>
