<?xml version="1.0" encoding="UTF-8"?>
<!DOCTYPE svg  PUBLIC '-//W3C//DTD SVG 1.1//EN'  'http://www.w3.org/Graphics/SVG/1.1/DTD/svg11.dtd'>
<svg clip-rule="evenodd" fill-rule="evenodd" stroke-linecap="round" stroke-linejoin="round" stroke-miterlimit="2" version="1.1" viewBox="0 0 32 32" xml:space="preserve" xmlns="http://www.w3.org/2000/svg">
<metadata>
<rdf:RDF xmlns:cc="http://web.resource.org/cc/" xmlns:dc="http://purl.org/dc/elements/1.1/" xmlns:rdf="http://www.w3.org/1999/02/22-rdf-syntax-ns#">

     <rdf:Description rdf:about="">
       <dc:title>Mutant Standard emoji 2023.12</dc:title>
     </rdf:Description>

    <cc:work rdf:about="">
        <cc:license rdf:resource="http://creativecommons.org/licenses/by-nc-sa/4.0/"/>
        <cc:attributionName>Caius Nocturne</cc:attributionName>
        <cc:attributionURL>http://mutant.tech/</cc:attributionURL>
    </cc:work>

</rdf:RDF>
</metadata>

    <rect id="circle" width="32" height="32" fill="none"/>
    <g id="outline">
        <path d="m3 15c0-7.174 5.825-12.998 13-12.998s13 5.824 13 12.998v2c0 7.174-5.825 12.998-13 12.998s-13-5.824-13-12.998v-2zm19.929 1c-0.486-3.39-3.405-5.999-6.929-5.999s-6.443 2.609-6.929 5.999c0.486 3.39 3.405 5.999 6.929 5.999s6.443-2.609 6.929-5.999z" fill="none" stroke="#000" stroke-width="4px"/>
    </g>
    <g id="emoji">
        <path d="m3.153 15c0.964-6.226 6.352-10.998 12.847-10.998s11.883 4.772 12.847 10.998h0.153v2c0 7.174-5.825 12.998-13 12.998s-13-5.824-13-12.998v-2h0.153zm19.847 2c0-3.863-3.137-6.999-7-6.999s-7 3.136-7 6.999 3.137 6.999 7 6.999 7-3.136 7-6.999z" fill="#93151c"/>
        <path d="m16 2.002c7.175 0 13 5.824 13 12.998s-5.825 12.998-13 12.998-13-5.824-13-12.998 5.825-12.998 13-12.998zm0 5.999c3.863 0 7 3.136 7 6.999s-3.137 6.999-7 6.999-7-3.136-7-6.999 3.137-6.999 7-6.999z" fill="#e02a33"/>
    </g>
</svg>
