<?xml version="1.0" encoding="UTF-8"?>
<!DOCTYPE svg  PUBLIC '-//W3C//DTD SVG 1.1//EN'  'http://www.w3.org/Graphics/SVG/1.1/DTD/svg11.dtd'>
<svg clip-rule="evenodd" fill-rule="evenodd" stroke-linejoin="round" stroke-miterlimit="1.5" version="1.1" viewBox="0 0 32 32" xml:space="preserve" xmlns="http://www.w3.org/2000/svg">
<metadata>
<rdf:RDF xmlns:cc="http://web.resource.org/cc/" xmlns:dc="http://purl.org/dc/elements/1.1/" xmlns:rdf="http://www.w3.org/1999/02/22-rdf-syntax-ns#">

     <rdf:Description rdf:about="">
       <dc:title>Mutant Standard emoji 2023.12</dc:title>
     </rdf:Description>

    <cc:work rdf:about="">
        <cc:license rdf:resource="http://creativecommons.org/licenses/by-nc-sa/4.0/"/>
        <cc:attributionName>Caius Nocturne</cc:attributionName>
        <cc:attributionURL>http://mutant.tech/</cc:attributionURL>
    </cc:work>

</rdf:RDF>
</metadata>

    <rect id="currency_conversion" width="32" height="32" fill="none"/>
    <clipPath id="_clip1">
        <rect width="32" height="32"/>
    </clipPath>
    <g clip-path="url(#_clip1)">
        <g id="outline">
            <rect x="8" y="7" width="18" height="18"/>
            <path d="m4.454 17.925c-0.839-0.238-1.454-1.01-1.454-1.925v-12c0-1.105 0.895-2 2-2h8c1.105 0 2 0.895 2 2v12c0 1.105-0.895 2-2 2h-1.379l1.44 1.439v2l-2.122 2.122-0.87-0.871c0.201 0.361 0.452 0.695 0.749 0.992 0.844 0.844 1.989 1.318 3.182 1.318h2v5h-2c-4.142 0-7.5-3.358-7.5-7.5v-0.379l-1.439 1.44-2.122-2.122v-2l1.515-1.514zm15.925-3.925-1.44-1.439v-2l2.122-2.122 0.87 0.871c-0.201-0.361-0.452-0.695-0.749-0.992-0.844-0.844-1.989-1.318-3.182-1.318h-2v-5h2c4.142 0 7.5 3.358 7.5 7.5v0.379l1.439-1.44 2.122 2.122v2l-1.515 1.514c0.839 0.238 1.454 1.01 1.454 1.925v12c0 1.105-0.895 2-2 2h-8c-1.105 0-2-0.895-2-2v-12c0-1.105 0.895-2 2-2h1.379z" fill="none" stroke="#000" stroke-width="4px"/>
        </g>
        <g id="emoji">
            <g fill="#666">
                <path d="m15 4c0-1.105-0.895-2-2-2h-8c-1.105 0-2 0.895-2 2v12c0 1.105 0.895 2 2 2h8c1.105 0 2-0.895 2-2v-12z"/>
                <path d="m29 16c0-1.105-0.895-2-2-2h-8c-1.105 0-2 0.895-2 2v12c0 1.105 0.895 2 2 2h8c1.105 0 2-0.895 2-2v-12z"/>
            </g>
            <path d="m8 5v-2h2v2h3v2h-6c-0.265 0-0.52 0.105-0.707 0.293-0.188 0.187-0.293 0.442-0.293 0.707 0 0.552 0.448 1 1 1h4c1.657 0 3 1.343 3 3 0 0.796-0.316 1.559-0.879 2.121-0.562 0.563-1.325 0.879-2.121 0.879h-1v2h-2v-2h-3v-2h6c0.265 0 0.52-0.105 0.707-0.293 0.188-0.187 0.293-0.442 0.293-0.707 0-0.552-0.448-1-1-1h-4c-1.657 0-3-1.343-3-3 0-0.796 0.316-1.559 0.879-2.121 0.562-0.563 1.325-0.879 2.121-0.879h1z" fill="#fff"/>
            
                <path d="m6.5 22.121-1.439 1.44-2.122-2.122v-2l5.061-3.06 5.061 3.06v2l-2.122 2.122-1.439-1.44v0.379c0 2.485 2.015 4.5 4.5 4.5h2v3h-2c-4.142 0-7.5-3.358-7.5-7.5v-0.379z" fill="#2b6d11"/>
                <path d="m6.5 20.121-1.439 1.44-2.122-2.122 5.061-5.06 5.061 5.06-2.122 2.122-1.439-1.44v0.379c0 2.485 2.015 4.5 4.5 4.5h2v3h-2c-4.142 0-7.5-3.358-7.5-7.5v-0.379z" fill="#4cbf1e"/>
            
            
                <path d="m22.5 12.543v-1.043c0-2.485-2.015-4.5-4.5-4.5h-2v-3h2c4.142 0 7.5 3.358 7.5 7.5v1.043l3.561-1.982v2l-5.061 5.06-5.061-5.06v-2l3.561 1.982z" fill="#2b6d11"/>
                <path d="m22.5 9.879v-0.379c0-2.485-2.015-4.5-4.5-4.5h-2v-3h2c4.142 0 7.5 3.358 7.5 7.5v0.379l1.439-1.44 2.122 2.122-5.061 5.06-5.061-5.06 2.122-2.122 1.439 1.44z" fill="#4cbf1e"/>
            
            <path d="m21.586 21-3.293-3.293 1.414-1.414 3.293 3.293 3.293-3.293 1.414 1.414-3.293 3.293h2.586v2h-3v1h3v2h-3v2h-2v-2h-3v-2h3v-1h-3v-2h2.586z" fill="#fff"/>
        </g>
    </g>
</svg>
