<?xml version="1.0" encoding="UTF-8"?>
<!DOCTYPE svg  PUBLIC '-//W3C//DTD SVG 1.1//EN'  'http://www.w3.org/Graphics/SVG/1.1/DTD/svg11.dtd'>
<svg clip-rule="evenodd" fill-rule="evenodd" stroke-linecap="round" stroke-linejoin="round" stroke-miterlimit="2" version="1.1" viewBox="0 0 32 32" xml:space="preserve" xmlns="http://www.w3.org/2000/svg">
<metadata>
<rdf:RDF xmlns:cc="http://web.resource.org/cc/" xmlns:dc="http://purl.org/dc/elements/1.1/" xmlns:rdf="http://www.w3.org/1999/02/22-rdf-syntax-ns#">

     <rdf:Description rdf:about="">
       <dc:title>Mutant Standard emoji 2023.12</dc:title>
     </rdf:Description>

    <cc:work rdf:about="">
        <cc:license rdf:resource="http://creativecommons.org/licenses/by-nc-sa/4.0/"/>
        <cc:attributionName>Caius Nocturne</cc:attributionName>
        <cc:attributionURL>http://mutant.tech/</cc:attributionURL>
    </cc:work>

</rdf:RDF>
</metadata>

    <rect id="diamond_with_dot" width="32" height="32" fill="none"/>
    <g id="outline">
        <path d="m10.062 8.938c-0.402-0.756-0.285-1.715 0.352-2.352l3.465-3.465c1.171-1.171 3.071-1.171 4.242 0l3.465 3.465c0.637 0.637 0.754 1.596 0.352 2.352l1.124 1.124c0.756-0.402 1.715-0.285 2.352 0.352l3.465 3.465c1.171 1.171 1.171 3.071 0 4.242l-3.465 3.465c-0.637 0.637-1.596 0.754-2.352 0.352l-1.124 1.124c0.402 0.756 0.285 1.715-0.352 2.352l-3.465 3.465c-1.171 1.171-3.071 1.171-4.242 0l-3.465-3.465c-0.637-0.637-0.754-1.596-0.352-2.352l-1.124-1.124c-0.756 0.402-1.715 0.285-2.352-0.352l-3.465-3.465c-1.171-1.171-1.171-3.071 0-4.242l3.465-3.465c0.637-0.637 1.596-0.754 2.352-0.352l1.124-1.124z" fill="none" stroke="#000" stroke-width="4px"/>
    </g>
    <g id="emoji">
        <path d="m16 29-13-13 13-13 13 13-13 13z" fill="#731637"/>
        <path d="m16 15-5.586-5.586c-0.781-0.781-0.781-2.047 0-2.828l3.465-3.465c1.171-1.171 3.071-1.171 4.242 0l3.465 3.465c0.781 0.781 0.781 2.047 0 2.828l-5.586 5.586z" fill="#ff4586"/>
        <path d="m17 16 5.586-5.586c0.781-0.781 2.047-0.781 2.828 0l3.465 3.465c1.171 1.171 1.171 3.071 0 4.242l-3.465 3.465c-0.781 0.781-2.047 0.781-2.828 0l-5.586-5.586z" fill="#ff4586"/>
        <path d="m16 17 5.586 5.586c0.781 0.781 0.781 2.047 0 2.828l-3.465 3.465c-1.171 1.171-3.071 1.171-4.242 0l-3.465-3.465c-0.781-0.781-0.781-2.047 0-2.828l5.586-5.586z" fill="#ff4586"/>
        <path d="m15 16-5.586 5.586c-0.781 0.781-2.047 0.781-2.828 0l-3.465-3.465c-1.171-1.171-1.171-3.071 0-4.242l3.465-3.465c0.781-0.781 2.047-0.781 2.828 0l5.586 5.586z" fill="#ff4586"/>
        <circle cx="16" cy="16" r="3"/>
    </g>
</svg>
