<?xml version="1.0" encoding="UTF-8"?>
<svg clip-rule="evenodd" fill-rule="evenodd" stroke-linejoin="round" stroke-miterlimit="1.5" viewBox="0 0 32 32" xmlns="http://www.w3.org/2000/svg">
 <clipPath id="a">
  <path d="m0 0v32h32v-32z" clip-rule="evenodd"/>
 </clipPath>
 <path d="m0 0v32h32v-32z" fill="none"/>
 <g clip-path="url(#a)">
  <circle cx="16" cy="16" r="14" fill="none" stroke="#000" stroke-width="4"/>
  <path d="m2.009 16.5c-.006-.166-.009-.333-.009-.5 0-7.727 6.273-14 14-14s14 6.273 14 14c0 .167-.003.334-.009.5-.263-7.496-27.719-7.496-27.982 0z" fill="#4d4d4d"/>
  <path d="m2.009 16.5c.263-7.496 6.432-13.5 13.991-13.5s13.728 6.004 13.991 13.5c-.263 7.496-6.432 13.5-13.991 13.5s-13.728-6.004-13.991-13.5z" fill="#808080"/>
  <path d="m24 16h-16v2c0 4.418 3.582 8 8 8s8-3.582 8-8v-2z" fill="#5c5c5c"/>
  <circle cx="16" cy="16" r="8" fill="#fff"/>
 </g>
</svg>
