<?xml version="1.0" encoding="UTF-8"?>
<!DOCTYPE svg  PUBLIC '-//W3C//DTD SVG 1.1//EN'  'http://www.w3.org/Graphics/SVG/1.1/DTD/svg11.dtd'>
<svg clip-rule="evenodd" fill-rule="evenodd" stroke-linejoin="round" stroke-miterlimit="2" version="1.1" viewBox="0 0 32 32" xml:space="preserve" xmlns="http://www.w3.org/2000/svg">
<metadata>
<rdf:RDF xmlns:cc="http://web.resource.org/cc/" xmlns:dc="http://purl.org/dc/elements/1.1/" xmlns:rdf="http://www.w3.org/1999/02/22-rdf-syntax-ns#">

     <rdf:Description rdf:about="">
       <dc:title>Mutant Standard emoji 2023.12</dc:title>
     </rdf:Description>

    <cc:work rdf:about="">
        <cc:license rdf:resource="http://creativecommons.org/licenses/by-nc-sa/4.0/"/>
        <cc:attributionName>Caius Nocturne</cc:attributionName>
        <cc:attributionURL>http://mutant.tech/</cc:attributionURL>
    </cc:work>

</rdf:RDF>
</metadata>

    <rect id="spiral" width="32" height="32" fill="none"/>
    <g id="outline">
        <path d="m17.677 1.004c0.157 0.012 0.197 0.012 0.353 0.036 0.351 0.054 0.693 0.161 1.011 0.318 0.319 0.156 0.613 0.361 0.87 0.605 0.386 0.367 0.686 0.822 0.871 1.321 0.185 0.5 0.254 1.04 0.2 1.57-0.036 0.353-0.126 0.7-0.266 1.026-0.062 0.145-0.083 0.179-0.156 0.319l-0.016 0.027c0.144 0.028 0.287 0.061 0.431 0.094 0.139 0.034 0.278 0.07 0.417 0.108 0.368 0.104 0.731 0.222 1.088 0.36 0.849 0.327 1.658 0.753 2.408 1.267 0.918 0.628 1.746 1.388 2.451 2.248 0.638 0.779 1.176 1.641 1.595 2.556 0.478 1.045 0.802 2.16 0.958 3.299 0.124 0.908 0.138 1.828 0.058 2.741-0.191 2.209-0.946 4.358-2.176 6.203-0.907 1.36-2.066 2.549-3.404 3.489-1.457 1.024-3.12 1.749-4.862 2.119-0.638 0.136-1.285 0.224-1.936 0.265-0.363 0.022-0.727 0.026-1.091 0.025-0.794-2e-3 -1.588-0.065-2.371-0.195-1.871-0.31-3.675-0.993-5.284-1.997-1.525-0.952-2.869-2.188-3.945-3.627-1.055-1.411-1.85-3.013-2.331-4.708-0.365-1.285-0.548-2.618-0.55-3.954-1e-3 -0.499-1e-3 -0.998 0.03-1.496 0.052-0.815 0.17-1.626 0.354-2.422 0.37-1.605 1.009-3.147 1.882-4.544 0.92-1.475 2.098-2.786 3.464-3.86 1.14-0.896 2.409-1.625 3.758-2.157 1.152-0.454 2.361-0.764 3.59-0.92 0.568-0.072 1.138-0.108 1.711-0.119 0.296-2e-3 0.592-4e-3 0.888 3e-3z" fill-rule="nonzero"/>
    </g>
    <g id="emoji">
        <path d="m17.615 3.004c0.115 0.014 0.226 0.031 0.338 0.066 0.256 0.081 0.488 0.231 0.667 0.432 0.102 0.114 0.186 0.245 0.249 0.384 0.062 0.14 0.104 0.29 0.121 0.442 0.053 0.461-0.115 0.931-0.45 1.253-0.11 0.106-0.237 0.195-0.374 0.263-0.138 0.068-0.286 0.115-0.437 0.138-0.101 0.016-0.127 0.014-0.229 0.018-0.216 0-0.432-1e-3 -0.648 1e-3 -0.382 7e-3 -0.764 0.031-1.144 0.079-0.776 0.099-1.541 0.29-2.273 0.568-1.916 0.728-3.584 2.056-4.731 3.754-0.566 0.837-1.003 1.76-1.291 2.728-0.202 0.678-0.33 1.377-0.384 2.082-0.033 0.43-0.03 0.86-0.029 1.291 1e-3 0.958 0.142 1.913 0.427 2.828 0.341 1.099 0.886 2.132 1.597 3.036 0.729 0.928 1.63 1.718 2.645 2.319 1.07 0.632 2.263 1.05 3.494 1.222 0.442 0.062 0.887 0.091 1.334 0.092 0.29 1e-3 0.578-1e-3 0.868-0.023 0.471-0.035 0.939-0.111 1.397-0.226 1.142-0.287 2.218-0.82 3.138-1.555 1.032-0.824 1.858-1.896 2.393-3.103 0.382-0.862 0.614-1.788 0.684-2.728 0.036-0.482 0.031-0.967-0.029-1.447-0.091-0.738-0.305-1.459-0.631-2.126-0.217-0.446-0.484-0.868-0.793-1.255-0.348-0.435-0.749-0.826-1.192-1.163-0.526-0.399-1.11-0.72-1.729-0.95-0.727-0.271-1.494-0.409-2.269-0.423-0.238-2e-3 -0.476-4e-3 -0.713 1e-3 -0.567 0.017-1.128 0.111-1.667 0.29-0.647 0.214-1.255 0.543-1.788 0.969-0.592 0.473-1.088 1.063-1.453 1.727-0.385 0.701-0.622 1.48-0.691 2.277-0.036 0.41-0.03 0.823 0.041 1.229 0.119 0.681 0.406 1.329 0.831 1.874 0.214 0.275 0.463 0.524 0.738 0.738 0.327 0.255 0.691 0.461 1.078 0.61 0.37 0.143 0.761 0.234 1.157 0.268 0.313 0.027 0.629 0.019 0.942 0.015 0.081-3e-3 0.081-3e-3 0.162-8e-3 0.347-0.03 0.686-0.107 1.009-0.24 0.496-0.206 0.939-0.534 1.279-0.949 0.271-0.331 0.475-0.714 0.599-1.122 0.07-0.231 0.115-0.469 0.133-0.709 0.015-0.199 0.014-0.398-0.026-0.594-0.116-0.565-0.522-1.046-1.058-1.258-0.188-0.074-0.386-0.111-0.588-0.118-0.134-2e-3 -0.269-6e-3 -0.403 2e-3 -0.105 9e-3 -0.207 0.032-0.305 0.072-0.248 0.103-0.448 0.308-0.545 0.559-0.041 0.106-0.061 0.218-0.066 0.331-2e-3 0.179 0 0.357 0 0.535-4e-3 0.116-0.013 0.228-0.039 0.342-0.062 0.261-0.194 0.505-0.38 0.698-0.133 0.138-0.292 0.25-0.467 0.329-0.14 0.062-0.29 0.104-0.442 0.121-0.461 0.053-0.931-0.115-1.253-0.45-0.106-0.11-0.195-0.237-0.263-0.374-0.068-0.138-0.115-0.286-0.138-0.437-0.016-0.101-0.014-0.127-0.018-0.229 0-0.203-1e-3 -0.406 1e-3 -0.609 0.017-0.459 0.101-0.909 0.266-1.338 0.141-0.364 0.335-0.707 0.575-1.015 0.463-0.594 1.094-1.051 1.803-1.304 0.337-0.121 0.691-0.197 1.049-0.223 0.196-0.015 0.393-0.012 0.589-0.011 0.782 3e-3 1.557 0.198 2.245 0.571 0.366 0.199 0.705 0.447 1.007 0.734 0.273 0.261 0.516 0.554 0.72 0.873 0.333 0.52 0.563 1.105 0.671 1.713 0.077 0.43 0.089 0.868 0.057 1.303-0.057 0.766-0.256 1.52-0.584 2.214-0.462 0.978-1.179 1.829-2.064 2.451-0.711 0.5-1.526 0.849-2.378 1.019-0.354 0.071-0.712 0.107-1.073 0.12-0.277 4e-3 -0.553 5e-3 -0.83 0-0.83-0.026-1.649-0.184-2.425-0.483-0.66-0.255-1.282-0.607-1.84-1.042-0.471-0.366-0.896-0.791-1.262-1.262-0.344-0.442-0.637-0.924-0.871-1.434-0.306-0.67-0.51-1.387-0.601-2.119-0.068-0.548-0.07-1.103-0.022-1.653 0.093-1.068 0.383-2.118 0.854-3.082 0.313-0.644 0.706-1.248 1.167-1.796 1.133-1.349 2.669-2.337 4.367-2.808 0.552-0.153 1.12-0.252 1.692-0.295 0.38-0.028 0.76-0.024 1.142-0.024 0.679 1e-3 1.358 0.072 2.023 0.213 1.009 0.215 1.983 0.591 2.875 1.11 0.796 0.463 1.526 1.039 2.16 1.706 0.551 0.579 1.03 1.226 1.424 1.921 0.586 1.037 0.98 2.182 1.156 3.36 0.119 0.799 0.135 1.611 0.065 2.416-0.139 1.6-0.625 3.165-1.415 4.563-0.774 1.368-1.836 2.569-3.099 3.504-1.216 0.9-2.612 1.55-4.084 1.901-0.627 0.149-1.268 0.245-1.911 0.284-0.321 0.02-0.641 0.023-0.962 0.022-0.424-1e-3 -0.848-0.022-1.27-0.064-1.637-0.167-3.235-0.659-4.68-1.445-1.364-0.74-2.586-1.736-3.588-2.921-0.976-1.155-1.74-2.485-2.242-3.911-0.469-1.33-0.705-2.736-0.707-4.146-1e-3 -0.511-1e-3 -1.019 0.038-1.529 0.07-0.917 0.237-1.827 0.499-2.709 0.405-1.361 1.036-2.652 1.859-3.809 1.452-2.043 3.493-3.646 5.825-4.565 1.049-0.414 2.152-0.688 3.272-0.816 0.493-0.057 0.988-0.082 1.484-0.085 0.349 0 0.349-7e-3 0.638 4e-3z" fill="#982eee" fill-rule="nonzero"/>
    </g>
</svg>
