<?xml version="1.0" encoding="UTF-8"?>
<!DOCTYPE svg  PUBLIC '-//W3C//DTD SVG 1.1//EN'  'http://www.w3.org/Graphics/SVG/1.1/DTD/svg11.dtd'>
<svg clip-rule="evenodd" fill-rule="evenodd" stroke-linecap="round" stroke-linejoin="round" stroke-miterlimit="1.5" version="1.1" viewBox="0 0 32 32" xml:space="preserve" xmlns="http://www.w3.org/2000/svg">
<metadata>
<rdf:RDF xmlns:cc="http://web.resource.org/cc/" xmlns:dc="http://purl.org/dc/elements/1.1/" xmlns:rdf="http://www.w3.org/1999/02/22-rdf-syntax-ns#">

     <rdf:Description rdf:about="">
       <dc:title>Mutant Standard emoji 2023.12</dc:title>
     </rdf:Description>

    <cc:work rdf:about="">
        <cc:license rdf:resource="http://creativecommons.org/licenses/by-nc-sa/4.0/"/>
        <cc:attributionName>Caius Nocturne</cc:attributionName>
        <cc:attributionURL>http://mutant.tech/</cc:attributionURL>
    </cc:work>

</rdf:RDF>
</metadata>

    <rect id="staff_of_asclepius" width="32" height="32" fill="none"/>
    <clipPath id="_clip1">
        <rect width="32" height="32"/>
    </clipPath>
    <g clip-path="url(#_clip1)">
        <g id="outline">
            <path d="m14.037 23c-0.024-0.315-0.037-0.631-0.037-0.947v-2.053h-1.5c-2.485 0-4.5-2.015-4.5-4.5s2.015-4.5 4.5-4.5h1.5v-3h-2.394c-0.395 0-0.781 0.117-1.11 0.336-0.142 0.095-0.306 0.204-0.481 0.32-1.314 0.876-2.858 1.344-4.437 1.344h-3.578l1.618-3.236c0.847-1.694 2.578-2.764 4.472-2.764h0.556c0.899 0 1.795 0.11 2.668 0.328 0.758 0.19 1.666 0.417 2.208 0.553 0.158 0.039 0.317 0.069 0.478 0.089v-0.97c0-0.53 0.211-1.039 0.586-1.414s0.884-0.586 1.414-0.586 1.039 0.211 1.414 0.586 0.586 0.884 0.586 1.414v1h2.5c1.193 0 2.338 0.474 3.182 1.318s1.318 1.989 1.318 3.182c0 2.485-2.015 4.5-4.5 4.5h-2.5v3h0.5c2.485 0 4.5 2.015 4.5 4.5s-2.015 4.5-4.5 4.5h-1.167l-1.333 4-1.333-4h-3.667v-2e-3c0-0.795 0.316-1.558 0.878-2.12s1.325-0.878 2.12-0.878h0.039zm3.963-3v2.053c0 0.316-0.013 0.632-0.037 0.947h0.537c0.398 0 0.779-0.158 1.061-0.439 0.281-0.282 0.439-0.663 0.439-1.061 0-0.828-0.672-1.5-1.5-1.5h-0.5zm-4-6h-1.5c-0.828 0-1.5 0.672-1.5 1.5s0.672 1.5 1.5 1.5h1.5v-3zm4-6v3h2.5c0.828 0 1.5-0.672 1.5-1.5 0-0.398-0.158-0.779-0.439-1.061-0.282-0.281-0.663-0.439-1.061-0.439h-2.5z" fill="none" stroke="#000" stroke-width="4px"/>
        </g>
        <g id="emoji">
            <rect x="13" y="11" width="6" height="3.007" fill="#2bbc95"/>
            <path d="m18 23 1 2-1 1h-7v-2e-3c0-0.795 0.316-1.558 0.878-2.12s1.325-0.878 2.12-0.878h4.002z" fill="#2bbc95"/>
            
                <path d="m18 21v1.053c0 1.289-0.208 2.571-0.616 3.794-0.588 1.764-1.384 4.153-1.384 4.153s-0.796-2.389-1.384-4.153c-0.408-1.223-0.616-2.505-0.616-3.794v-1.053l2-1 2 1zm0-3h-4v-9l2-1 2 1v9zm0-12h-4v-2c0-0.53 0.211-1.039 0.586-1.414s0.884-0.586 1.414-0.586 1.039 0.211 1.414 0.586 0.586 0.884 0.586 1.414v2z" fill="#deb83c"/>
                <rect x="14" y="6" width="4" height="3" fill="#b6962f"/>
                <rect x="14" y="18" width="4" height="3" fill="#b6962f"/>
            
            
                <path d="m2 10 1.618-3.236c0.847-1.694 2.578-2.764 4.472-2.764h0.556c0.899 0 1.795 0.11 2.668 0.328 0.758 0.19 1.666 0.417 2.208 0.553 0.318 0.079 0.643 0.119 0.97 0.119h6.008c1.193 0 2.338 0.474 3.182 1.318s1.318 1.989 1.318 3.182c0 1.405-0.644 2.66-1.654 3.486-0.114 9e-3 -2.23 0.514-2.346 0.514l-3-0.5v-2h2.5c0.398 0 0.779-0.158 1.061-0.439 0.281-0.282 0.439-0.663 0.439-1.061v-0.019c-0.01-1.372-1.126-1.981-2.5-1.981h-7.084c-0.931 0-1.85 0.186-2.683 0.602l-2.134 1.067c-0.398 0.199-0.82 0.344-1.256 0.431l-4.343 0.4z" fill="#2bbc95"/>
                <path d="m23.346 12.986c-0.775 0.634-1.766 1.014-2.846 1.014h-2.5v-1h5c0.116 0 0.232-5e-3 0.346-0.014zm-17.003-3.855c0.436-0.087 0.858-0.232 1.256-0.43 0.562-0.281 1.42-0.711 2.134-1.068 0.833-0.416 1.752-0.633 2.683-0.633h7.084c1.374 0 2.49 1.109 2.5 2.481-5e-3 -0.391-0.162-0.765-0.439-1.042-0.282-0.281-0.663-0.439-1.061-0.439h-8.894c-0.395 0-0.781 0.117-1.11 0.336-0.142 0.095-0.306 0.204-0.481 0.32-1.314 0.876-2.858 1.344-4.437 1.344h-3.578l4.343-0.869zm15.657 0.369z" fill="#218d70"/>
            
            
                <path d="m9.653 18.985c-1.009-0.825-1.653-2.08-1.653-3.485v-2e-3c0-1.193 0.474-2.337 1.317-3.181 0.844-0.843 1.988-1.317 3.181-1.317h1.502v2.5h-0.502c-0.663 0-1.209 0.132-1.577 0.335-0.543 0.299-0.886 0.919-0.918 1.535-2e-3 0.032-3e-3 0.065-3e-3 0.098v0.016 0.014 2e-3c0.016 0.831 0.695 1.5 1.53 1.5h5.97c2.485 0 4.5 2.015 4.5 4.5s-2.015 4.5-4.5 4.5h-0.5v-3h0.5c0.828 0 1.5-0.672 1.5-1.5v-0.017-2e-3c-0.01-1.372-1.202-1.95-2.576-1.95h-5.503s-2.154-0.536-2.268-0.546z" fill="#2bbc95"/>
                <path d="m20 21.5v-0.017 0.017zm-10.347-2.515c0.114 0.01 0.23 0.015 0.346 0.015h7.501c1.374 0 2.49 1.109 2.5 2.481-0.01-0.82-0.678-1.481-1.5-1.481h-6c-1.08 0-2.072-0.381-2.847-1.015zm1.347-3.495v0.01-2e-3 -0.014 6e-3zm3-2.49v1h-1.532c-0.389 0-0.763 0.155-1.038 0.43-0.252 0.252-0.403 0.586-0.427 0.94 0.032-0.616 0.29-1.2 0.729-1.638 0.468-0.469 1.103-0.732 1.766-0.732h0.502z" fill="#218d70"/>
            
            <path d="m6.5 5.75c0-0.199-0.079-0.39-0.22-0.53-0.14-0.141-0.331-0.22-0.53-0.22s-0.39 0.079-0.53 0.22c-0.141 0.14-0.22 0.331-0.22 0.53v0.5c0 0.199 0.079 0.39 0.22 0.53 0.14 0.141 0.331 0.22 0.53 0.22s0.39-0.079 0.53-0.22c0.141-0.14 0.22-0.331 0.22-0.53v-0.5z"/>
        </g>
    </g>
</svg>
