<?xml version="1.0" encoding="UTF-8"?>
<svg clip-rule="evenodd" fill-rule="evenodd" stroke-linejoin="round" stroke-miterlimit="1.5" viewBox="0 0 32 32" xmlns="http://www.w3.org/2000/svg">
 <clipPath id="a">
  <path d="m0 0v32h32v-32z" clip-rule="evenodd"/>
 </clipPath>
 <path d="m0 0v32h32v-32z" fill="none"/>
 <g clip-path="url(#a)">
  <path d="m30 6c0-1.061-.421-2.078-1.172-2.828-.75-.751-1.767-1.172-2.828-1.172h-20c-1.061 0-2.078.421-2.828 1.172-.751.75-1.172 1.767-1.172 2.828v20c0 1.061.421 2.078 1.172 2.828.75.751 1.767 1.172 2.828 1.172h20c1.061 0 2.078-.421 2.828-1.172.751-.75 1.172-1.767 1.172-2.828z" fill="none" stroke="#000" stroke-width="4"/>
  <path d="m30 7h-28v-1c0-1.061.421-2.078 1.172-2.828.75-.751 1.767-1.172 2.828-1.172h20c1.061 0 2.078.421 2.828 1.172.751.75 1.172 1.767 1.172 2.828z" fill="#4d4d4d"/>
  <path d="m30 26c0 1.061-0.421 2.078-1.172 2.828-0.75 0.751-1.767 1.172-2.828 1.172h-20c-1.061 0-2.078-0.421-2.828-1.172-0.751-0.75-1.172-1.767-1.172-2.828v-19c0-1.061 0.421-2.078 1.172-2.828 0.75-0.751 1.767-1.172 2.828-1.172h20c1.061 0 2.078 0.421 2.828 1.172 0.751 0.75 1.172 1.767 1.172 2.828z" fill="#808080"/>
  <g fill-rule="nonzero">
   <path d="m27.768 11.768-15.768 15.768-7.768-7.768v-2l3.536-2.536 4.232 4.232 12.232-12.232 3.536 2.536z" fill="#5c5c5c"/>
   <path d="m27.768 9.768-15.768 15.768-7.768-7.768 3.536-3.536 4.232 4.232 12.232-12.232z" fill="#fff"/>
  </g>
 </g>
</svg>
