<?xml version="1.0" encoding="UTF-8"?>
<!DOCTYPE svg  PUBLIC '-//W3C//DTD SVG 1.1//EN'  'http://www.w3.org/Graphics/SVG/1.1/DTD/svg11.dtd'>
<svg clip-rule="evenodd" fill-rule="evenodd" stroke-linejoin="round" stroke-miterlimit="2" version="1.1" viewBox="0 0 32 32" xml:space="preserve" xmlns="http://www.w3.org/2000/svg">
<metadata>
<rdf:RDF xmlns:cc="http://web.resource.org/cc/" xmlns:dc="http://purl.org/dc/elements/1.1/" xmlns:rdf="http://www.w3.org/1999/02/22-rdf-syntax-ns#">

     <rdf:Description rdf:about="">
       <dc:title>Mutant Standard emoji 2023.12</dc:title>
     </rdf:Description>

    <cc:work rdf:about="">
        <cc:license rdf:resource="http://creativecommons.org/licenses/by-nc-sa/4.0/"/>
        <cc:attributionName>Caius Nocturne</cc:attributionName>
        <cc:attributionURL>http://mutant.tech/</cc:attributionURL>
    </cc:work>

</rdf:RDF>
</metadata>

    <rect id="zzz" width="32" height="32" fill="none"/>
    <clipPath id="_clip1">
        <rect width="32" height="32"/>
    </clipPath>
    <g clip-path="url(#_clip1)">
        <g id="outline">
            <path d="m32 14h-10l-1 1v8h-8l-1 1v8h-12v-12h6l2-2v-8h8l2-2v-8h14v14z"/>
        </g>
        <g id="emoji" fill="#1d5dff">
            <path d="m20 5v-3h10v2.121l-4.879 4.879h4.879v3h-10v-2.121l4.879-4.879h-4.879z"/>
            <path d="m19 12v2.121l-3.879 3.879h3.879v3h-9v-2.121l3.879-3.879h-3.879v-3h9z"/>
            <path d="m2 25v-3h8v2.121l-2.879 2.879h2.879v3h-8v-2.121l2.879-2.879h-2.879z"/>
        </g>
    </g>
</svg>
