<?xml version="1.0" encoding="UTF-8"?>
<!DOCTYPE svg  PUBLIC '-//W3C//DTD SVG 1.1//EN'  'http://www.w3.org/Graphics/SVG/1.1/DTD/svg11.dtd'>
<svg clip-rule="evenodd" fill-rule="evenodd" stroke-linecap="round" stroke-linejoin="round" stroke-miterlimit="1.5" version="1.1" viewBox="0 0 32 32" xml:space="preserve" xmlns="http://www.w3.org/2000/svg">
<metadata>
<rdf:RDF xmlns:cc="http://web.resource.org/cc/" xmlns:dc="http://purl.org/dc/elements/1.1/" xmlns:rdf="http://www.w3.org/1999/02/22-rdf-syntax-ns#">

     <rdf:Description rdf:about="">
       <dc:title>Mutant Standard emoji 2023.12</dc:title>
     </rdf:Description>

    <cc:work rdf:about="">
        <cc:license rdf:resource="http://creativecommons.org/licenses/by-nc-sa/4.0/"/>
        <cc:attributionName>Caius Nocturne</cc:attributionName>
        <cc:attributionURL>http://mutant.tech/</cc:attributionURL>
    </cc:work>

</rdf:RDF>
</metadata>
<rect id="airplane" width="32" height="32" fill="none"/><g id="outline"><path d="m19.626 8.374 3.572-3.573c1.175-1.174 2.671-1.975 4.3-2.301 0.149-0.029 0.298-0.059 0.445-0.089 0.459-0.091 0.933 0.052 1.265 0.383 0.331 0.331 0.475 0.805 0.384 1.264-0.031 0.157-0.062 0.317-0.094 0.476-0.325 1.639-1.13 3.144-2.313 4.324l-3.514 3.504 0.351 2.202 0.433-0.433 1.414 1.414-1.459 1.459 0.435 2.737 0.61-0.61 1.414 1.414-1.636 1.636 0.767 4.819-1 1-6.41-10.572-5.797 5.781-0.543 5.791-1 1-1.928-4.284-3.41 1.462c-0.044 0.018-0.089 0.033-0.134 0.044l-1.278 1.278c-0.276 0.276-0.724 0.276-1 0s-0.276-0.724 0-1l1.273-1.273c0.011-0.048 0.027-0.096 0.047-0.142l1.46-3.409-4.28-1.926 1-1 5.79-0.543 5.763-5.762-10.553-5.9 1-1 4.48 0.56 1.975-1.974 1.414 1.414-0.875 0.875 2.82 0.352 1.641-1.641 1.414 1.414-0.541 0.541 2.298 0.288z" fill="none" stroke="#000" stroke-width="4px"/></g><g id="emoji"><path d="m17.869 7.545-3.414 3.415-1.415-1.415 3.415-3.414 1.414 1.414z" fill="#737373" fill-rule="nonzero"/><path d="m25.869 15.545-3.414 3.415-1.415-1.415 3.415-3.414 1.414 1.414z" fill="#737373" fill-rule="nonzero"/><path d="m12.869 6.545-3.414 3.415-1.415-1.415 3.415-3.414 1.414 1.414z" fill="#737373" fill-rule="nonzero"/><path d="m26.869 20.545-3.414 3.415-1.415-1.415 3.415-3.414 1.414 1.414z" fill="#737373" fill-rule="nonzero"/><path d="m23.455 11 2.545 16-1 1-7-11.545 5.455-5.455z" fill="#b3b3b3"/><path d="m13 21-0.75 8-1 1-2.25-5 4-4z" fill="#b3b3b3"/><path d="m11 19-8 0.75-1 1 5 2.25 4-4z" fill="#b3b3b3"/><path d="m21 8.545-16-2-1 1 11.545 6.455 5.455-5.455z" fill="#b3b3b3"/><path d="m10.017 25.418c0.649-0.278 1.24-0.677 1.74-1.176 2.652-2.644 11.562-11.529 15.428-15.384 1.183-1.18 1.988-2.685 2.313-4.324 0.032-0.159 0.063-0.319 0.094-0.476 0.091-0.459-0.053-0.933-0.384-1.264-0.332-0.331-0.806-0.474-1.265-0.383-0.147 0.03-0.296 0.06-0.445 0.089-1.629 0.326-3.125 1.127-4.3 2.301-3.857 3.857-12.782 12.781-15.439 15.437-0.501 0.501-0.903 1.094-1.182 1.746-0.455 1.061-1.189 2.774-1.757 4.101-0.135 0.313-0.065 0.676 0.176 0.916 0.241 0.241 0.603 0.311 0.916 0.177 1.329-0.57 3.044-1.305 4.105-1.76z" fill="#f3f3f3"/><path d="m8.5 23.5c-0.276-0.276-0.724-0.276-1 0l-4 4c-0.276 0.276-0.276 0.724 0 1s0.724 0.276 1 0l4-4c0.276-0.276 0.276-0.724 0-1z" fill="#b3b3b3"/><path d="m25.5 3.5h1.554c0.383 0 0.751 0.152 1.022 0.424 0.272 0.271 0.424 0.639 0.424 1.022v1.554h-0.176c-0.455 0-0.824-0.369-0.824-0.824v-2e-3c0-0.648-0.526-1.174-1.174-1.174h-2e-3c-0.455 0-0.824-0.369-0.824-0.824v-0.176z" fill="#3d3d3d"/></g></svg>
