<?xml version="1.0" encoding="UTF-8"?>
<!DOCTYPE svg  PUBLIC '-//W3C//DTD SVG 1.1//EN'  'http://www.w3.org/Graphics/SVG/1.1/DTD/svg11.dtd'>
<svg clip-rule="evenodd" fill-rule="evenodd" stroke-linecap="round" stroke-linejoin="round" stroke-miterlimit="10" version="1.1" viewBox="0 0 32 32" xml:space="preserve" xmlns="http://www.w3.org/2000/svg" xmlns:serif="http://www.serif.com/">
<metadata>
<rdf:RDF xmlns:cc="http://web.resource.org/cc/" xmlns:dc="http://purl.org/dc/elements/1.1/" xmlns:rdf="http://www.w3.org/1999/02/22-rdf-syntax-ns#">

     <rdf:Description rdf:about="">
       <dc:title>Mutant Standard emoji 2023.12</dc:title>
     </rdf:Description>

    <cc:work rdf:about="">
        <cc:license rdf:resource="http://creativecommons.org/licenses/by-nc-sa/4.0/"/>
        <cc:attributionName>Caius Nocturne</cc:attributionName>
        <cc:attributionURL>http://mutant.tech/</cc:attributionURL>
    </cc:work>

</rdf:RDF>
</metadata>
<rect id="claw_hand_modifier" width="32" height="32" fill="none"/><clipPath id="_clip1"><rect width="32" height="32"/></clipPath><g clip-path="url(#_clip1)"><g id="outline"><path d="m3 15 13-13 13 13v2l-13 13-13-13v-2z" fill="none" stroke="#000" stroke-width="4px"/></g><g id="emoji"><path d="m3 17v-2l13-11 13 11v2l-13 13-13-13z" fill="#464646"/><path d="m3 15 13-13 13 13-13 13-13-13z" fill="#fff"/><clipPath id="_clip2"><path d="m3 15 13-13 13 13-13 13-13-13z"/></clipPath><g clip-path="url(#_clip2)"><clipPath id="_clip3"><rect x="4" y="5" width="32" height="32"/></clipPath><g clip-path="url(#_clip3)"><rect id="hand--clw-" x="4" y="5" width="32" height="32" fill="none" serif:id="hand [clw]"/><path id="Layer1" d="m24.597 5 1.403 0.581v13.287c0.085-0.05 0.172-0.096 0.259-0.142 0.083-0.042 0.166-0.083 0.251-0.123 0.368-0.168 0.747-0.306 1.14-0.405 0.518-0.131 1.048-0.194 1.582-0.198h5.004l-6.935 13.871c-0.073 0.143-0.073 0.142-0.149 0.284-0.106 0.19-0.215 0.378-0.332 0.562-0.261 0.408-0.554 0.796-0.876 1.158-1.165 1.313-2.701 2.281-4.389 2.765-0.517 0.148-1.047 0.252-1.582 0.308-0.271 0.029-0.543 0.043-0.816 0.051l-0.214 1e-3h-0.888l-0.172-1e-3c-0.375-7e-3 -0.749-0.028-1.122-0.071-0.862-0.098-1.712-0.299-2.527-0.598-1.584-0.579-3.026-1.528-4.19-2.748-1.072-1.126-1.904-2.477-2.42-3.943-0.273-0.776-0.459-1.583-0.552-2.4-0.043-0.373-0.064-0.747-0.071-1.122l-1e-3 -0.136v-2.983c-0.064-2.756-0.033-5.513 1e-3 -8.269 0.01-0.263 0.039-0.523 0.097-0.78 0.115-0.509 0.329-0.994 0.629-1.421 0.131-0.185 0.278-0.357 0.436-0.519l4.133-4.134 0.707 0.293 3.169-3.168h0.425l1.403 0.581v0.591l1.172-1.172h2.828v2.172l2.172-2.172h0.425z"/><g id="Layer11" serif:id="Layer1"><path d="m20 19h1l0.5-0.5-0.5-0.5v-5l0.5-0.5-0.5-0.5v-0.172c0-0.53 0.211-1.039 0.586-1.414l2.414-2.414v4l-0.5 0.5 0.5 0.5v5l-0.5 0.5 0.5 0.5v5s0.858-1.144 1.657-2.209c0.845-1.127 2.173-1.791 3.582-1.791h1.761s-3.263 6.526-5.484 10.969c-1.236 2.47-3.761 4.031-6.523 4.031h-0.968c-4.984 0-9.025-4.041-9.025-9.025v-3.424-1.551l0.5-0.5-0.5-0.5v-4l0.5-0.5-0.5-0.5v-0.172c0-0.53 0.211-1.039 0.586-1.414l2.414-2.414v4l-0.5 0.5 0.5 0.5v4l-0.5 0.5 0.5 0.5h1v-1l0.5-0.5-0.5-0.5v-4l0.5-0.5-0.5-0.5v-2.172c0-0.53 0.211-1.039 0.586-1.414l2.414-2.414v6l-0.5 0.5 0.5 0.5v4l-0.5 0.5 0.5 0.5h1v-1l0.5-0.5-0.5-0.5v-5l0.5-0.5-0.5-0.5v-1.172c0-0.53 0.211-1.039 0.586-1.414l2.414-2.414v5l-0.5 0.5 0.5 0.5v5l-0.5 0.5 0.5 0.5z" fill="#808080"/><clipPath id="_clip4"><path d="m20 19h1l0.5-0.5-0.5-0.5v-5l0.5-0.5-0.5-0.5v-0.172c0-0.53 0.211-1.039 0.586-1.414l2.414-2.414v4l-0.5 0.5 0.5 0.5v5l-0.5 0.5 0.5 0.5v5s0.858-1.144 1.657-2.209c0.845-1.127 2.173-1.791 3.582-1.791h1.761s-3.263 6.526-5.484 10.969c-1.236 2.47-3.761 4.031-6.523 4.031h-0.968c-4.984 0-9.025-4.041-9.025-9.025v-3.424-1.551l0.5-0.5-0.5-0.5v-4l0.5-0.5-0.5-0.5v-0.172c0-0.53 0.211-1.039 0.586-1.414l2.414-2.414v4l-0.5 0.5 0.5 0.5v4l-0.5 0.5 0.5 0.5h1v-1l0.5-0.5-0.5-0.5v-4l0.5-0.5-0.5-0.5v-2.172c0-0.53 0.211-1.039 0.586-1.414l2.414-2.414v6l-0.5 0.5 0.5 0.5v4l-0.5 0.5 0.5 0.5h1v-1l0.5-0.5-0.5-0.5v-5l0.5-0.5-0.5-0.5v-1.172c0-0.53 0.211-1.039 0.586-1.414l2.414-2.414v5l-0.5 0.5 0.5 0.5v5l-0.5 0.5 0.5 0.5z"/></clipPath><g clip-path="url(#_clip4)"><path d="m25.587 18.004c0.126 0.015 0.246 0.044 0.36 0.102 0.343 0.171 0.562 0.535 0.553 0.918-4e-3 0.149-0.043 0.288-0.106 0.423l-3.471 6.943c-0.328-0.186-0.654-0.375-0.984-0.558-0.064-0.033-0.128-0.064-0.194-0.094-0.285-0.122-0.583-0.203-0.892-0.23-0.789-0.069-1.586 0.205-2.164 0.746-0.228 0.212-0.414 0.461-0.563 0.733-0.421 0.815-0.821 1.64-1.232 2.46-0.07 0.131-0.158 0.246-0.275 0.338-0.099 0.078-0.212 0.137-0.333 0.173-0.1 0.03-0.205 0.044-0.31 0.042-0.339-8e-3 -0.658-0.194-0.833-0.484-0.054-0.09-0.094-0.188-0.117-0.29-0.033-0.143-0.034-0.293-4e-3 -0.437 0.014-0.062 0.034-0.12 0.057-0.179 0.384-0.832 0.818-1.64 1.227-2.459 0.094-0.181 0.194-0.357 0.307-0.526 0.227-0.337 0.497-0.646 0.8-0.915 0.426-0.378 0.919-0.679 1.45-0.886 1.004-0.39 2.134-0.434 3.163-0.113l2.58-5.158c0.03-0.056 0.061-0.109 0.099-0.16 0.128-0.167 0.307-0.291 0.509-0.351 0.081-0.024 0.163-0.035 0.247-0.041 0.063-1e-3 0.063-1e-3 0.126 3e-3z" fill="#616161" fill-rule="nonzero"/></g><g fill="#616161"><rect x="21" y="12" width="3" height="1"/><rect x="21" y="18" width="3" height="1"/><rect x="17" y="12" width="3" height="1"/><rect x="17" y="18" width="3" height="1"/><rect x="13" y="14" width="3" height="1"/><rect x="13" y="19" width="3" height="1"/><rect x="9" y="15" width="3" height="1"/><rect x="9" y="20" width="3" height="1"/></g></g></g></g></g></g></svg>
