<?xml version="1.0" encoding="UTF-8"?>
<svg clip-rule="evenodd" fill-rule="evenodd" stroke-linecap="round" stroke-linejoin="round" stroke-miterlimit="10" viewBox="0 0 32 32" xmlns="http://www.w3.org/2000/svg">
 <clipPath id="a">
  <path d="m0 0h32v32h-32z" clip-rule="evenodd"/>
 </clipPath>
 <path d="m0 0h32v32h-32z" fill="none"/>
 <g clip-path="url(#a)">
  <path d="m3 15 13-13 13 13v2l-13 13-13-13z" fill="none" stroke="#000" stroke-width="4"/>
  <path d="m3 17v-2l13-11 13 11v2l-13 13z" fill="#b1c232"/>
  <path d="m29 15-13 13-13-13 13-13z" fill="#d9e580"/>
  <path d="m24.586 13.586c0.375 0.375 0.586 0.884 0.586 1.414s-0.211 1.039-0.586 1.414l-7.172 7.172c-0.375 0.375-0.884 0.586-1.414 0.586s-1.039-0.211-1.414-0.586l-7.172-7.172c-0.375-0.375-0.586-0.884-0.586-1.414s0.211-1.039 0.586-1.414l7.172-7.172c0.375-0.375 0.884-0.586 1.414-0.586s1.039 0.211 1.414 0.586l7.172 7.172z" fill="#b1c232"/>
  <g fill="none" stroke="#d9e580" stroke-linecap="square" stroke-miterlimit="3" stroke-width="2">
   <path d="m9 12 3 3-3 3"/>
   <path d="m19 8-3 3-3-3"/>
   <path d="m23 12-3 3 3 3"/>
   <path d="m19 22-3-3-3 3"/>
  </g>
 </g>
</svg>
