<?xml version="1.0" encoding="UTF-8"?>
<!DOCTYPE svg  PUBLIC '-//W3C//DTD SVG 1.1//EN'  'http://www.w3.org/Graphics/SVG/1.1/DTD/svg11.dtd'>
<svg clip-rule="evenodd" fill-rule="evenodd" stroke-linecap="round" stroke-linejoin="round" stroke-miterlimit="10" version="1.1" viewBox="0 0 32 32" xml:space="preserve" xmlns="http://www.w3.org/2000/svg"><rect id="color_modifier" width="32" height="32" fill="none"/><clipPath id="_clip1"><rect width="32" height="32"/></clipPath><g clip-path="url(#_clip1)"><g id="outline"><path d="m3 15 13-13 13 13v2l-13 13-13-13v-2z" fill="none" stroke="#000" stroke-width="4px"/></g><g id="emoji"><path d="m3 17v-2l13-11 13 11v2l-13 13-13-13z" fill="#a90eb1"/><path d="m29 15-13 13-13-13 13-13 13 13z" fill="#f10dc3"/><path d="m24.586 13.586c0.375 0.375 0.586 0.884 0.586 1.414s-0.211 1.039-0.586 1.414l-7.172 7.172c-0.375 0.375-0.884 0.586-1.414 0.586s-1.039-0.211-1.414-0.586l-7.172-7.172c-0.375-0.375-0.586-0.884-0.586-1.414s0.211-1.039 0.586-1.414l7.172-7.172c0.375-0.375 0.884-0.586 1.414-0.586s1.039 0.211 1.414 0.586l7.172 7.172z" fill="#a90eb1"/><path d="m9 12 3 3-3 3" fill="none" stroke="#f10dc3" stroke-linecap="square" stroke-miterlimit="3" stroke-width="2px"/><path d="m19 8-3 3-3-3" fill="none" stroke="#f10dc3" stroke-linecap="square" stroke-miterlimit="3" stroke-width="2px"/><path d="m23 12-3 3 3 3" fill="none" stroke="#f10dc3" stroke-linecap="square" stroke-miterlimit="3" stroke-width="2px"/><path d="m19 22-3-3-3 3" fill="none" stroke="#f10dc3" stroke-linecap="square" stroke-miterlimit="3" stroke-width="2px"/></g></g></svg>
