<?xml version="1.0" encoding="UTF-8"?>
<!DOCTYPE svg  PUBLIC '-//W3C//DTD SVG 1.1//EN'  'http://www.w3.org/Graphics/SVG/1.1/DTD/svg11.dtd'>
<svg clip-rule="evenodd" fill-rule="evenodd" stroke-linecap="round" stroke-linejoin="round" stroke-miterlimit="10" version="1.1" viewBox="0 0 32 32" xml:space="preserve" xmlns="http://www.w3.org/2000/svg" xmlns:serif="http://www.serif.com/">
<metadata>
<rdf:RDF xmlns:cc="http://web.resource.org/cc/" xmlns:dc="http://purl.org/dc/elements/1.1/" xmlns:rdf="http://www.w3.org/1999/02/22-rdf-syntax-ns#">

     <rdf:Description rdf:about="">
       <dc:title>Mutant Standard emoji 2023.12</dc:title>
     </rdf:Description>

    <cc:work rdf:about="">
        <cc:license rdf:resource="http://creativecommons.org/licenses/by-nc-sa/4.0/"/>
        <cc:attributionName>Caius Nocturne</cc:attributionName>
        <cc:attributionURL>http://mutant.tech/</cc:attributionURL>
    </cc:work>

</rdf:RDF>
</metadata>

    <rect id="hoof_hand_modifier" width="32" height="32" fill="none"/>
    <clipPath id="_clip1">
        <rect width="32" height="32"/>
    </clipPath>
    <g clip-path="url(#_clip1)">
        <g id="outline">
            <path d="m3 15 13-13 13 13v2l-13 13-13-13v-2z" fill="none" stroke="#000" stroke-width="4px"/>
        </g>
        <g id="emoji">
            <path d="m3 17v-2l13-11 13 11v2l-13 13-13-13z" fill="#464646"/>
            <path d="m3 15 13-13 13 13-13 13-13-13z" fill="#fff"/>
            <clipPath id="_clip2">
                <path d="m3 15 13-13 13 13-13 13-13-13z"/>
            </clipPath>
            <g clip-path="url(#_clip2)">
                <clipPath id="_clip3">
                    <rect x="5" y="5" width="32" height="32"/>
                </clipPath>
                <g clip-path="url(#_clip3)">
                    <rect id="hand--hoof-" x="5" y="5" width="32" height="32" fill="none" serif:id="hand [hoof]"/>
                    
                        <g id="outline1" fill="none" stroke="#000" stroke-miterlimit="1.5" stroke-width="4px" serif:id="outline">
                            <path d="m13 9-1.485 1.485c-2.251 2.251-3.515 5.303-3.515 8.486v2.029h6v-5.317c0-1.119-0.111-2.236-0.33-3.334-0.291-1.456-0.67-3.349-0.67-3.349z"/>
                            <path d="m35 19c-1.973 0.658-3.765 1.765-5.236 3.236l-0.764 0.764 3 6s0.697-1.195 1.469-2.519c1.317-2.258 1.855-4.886 1.531-7.48v-1e-3z"/>
                            <path d="m19 35c-2.917 0-5.715-1.159-7.778-3.222s-3.222-4.861-3.222-7.778v-3-1h20v4l1-1 3 6c-2.499 3.748-6.706 6-11.211 6h-1.789z"/>
                            <rect x="15" y="14" width="6" height="7"/>
                            <path d="m19 7c-2.561 2.561-4 6.035-4 9.656v3.344h6v-4.802c0-2.113-0.403-4.206-1.188-6.167-0.43-1.076-0.812-2.031-0.812-2.031z"/>
                            <path d="m24 7c2.561 2.561 4 6.035 4 9.656v3.344h-6v-4.802c0-2.113 0.403-4.206 1.188-6.167 0.43-1.076 0.812-2.031 0.812-2.031z"/>
                        </g>
                        <g id="emoji1" serif:id="emoji">
                            <path d="m19 7c-2.561 2.561-4 6.035-4 9.656v3.344l3 1 3-1v-4.802c0-2.113-0.403-4.206-1.188-6.167-0.43-1.076-0.812-2.031-0.812-2.031z" fill="#464646"/>
                            <clipPath id="_clip4">
                                <path d="m19 7c-2.561 2.561-4 6.035-4 9.656v3.344l3 1 3-1v-4.802c0-2.113-0.403-4.206-1.188-6.167-0.43-1.076-0.812-2.031-0.812-2.031z"/>
                            </clipPath>
                            <g clip-path="url(#_clip4)">
                                <rect x="15" y="18" width="6" height="3" fill="#808080"/>
                            </g>
                            <path d="m24 7c2.561 2.561 4 6.035 4 9.656v3.344l-3 1-3-1v-4.802c0-2.113 0.403-4.206 1.188-6.167 0.43-1.076 0.812-2.031 0.812-2.031z" fill="#464646"/>
                            <clipPath id="_clip5">
                                <path d="m24 7c2.561 2.561 4 6.035 4 9.656v3.344l-3 1-3-1v-4.802c0-2.113 0.403-4.206 1.188-6.167 0.43-1.076 0.812-2.031 0.812-2.031z"/>
                            </clipPath>
                            <g clip-path="url(#_clip5)">
                                <rect x="22" y="18" width="6" height="3" fill="#808080"/>
                            </g>
                            <path d="m13 9-1.485 1.485c-2.251 2.251-3.515 5.303-3.515 8.486v1.029l3 1 3-1v-4.317c0-1.119-0.111-2.236-0.33-3.334-0.291-1.456-0.67-3.349-0.67-3.349z" fill="#464646"/>
                            <clipPath id="_clip6">
                                <path id="_-Curve-" d="m13 9-1.485 1.485c-2.251 2.251-3.515 5.303-3.515 8.486v1.029l3 1 3-1v-4.317c0-1.119-0.111-2.236-0.33-3.334-0.291-1.456-0.67-3.349-0.67-3.349z" serif:id="(Curve)"/>
                            </clipPath>
                            <g clip-path="url(#_clip6)">
                                <rect x="8" y="19" width="6" height="2" fill="#808080"/>
                            </g>
                            <path d="m35 19c-1.973 0.658-3.765 1.765-5.236 3.236l-0.764 0.764v4l3 2s0.697-1.195 1.469-2.519c1.317-2.258 1.855-4.886 1.531-7.48v-1e-3z" fill="#464646"/>
                            <path d="m19 35c-2.917 0-5.715-1.159-7.778-3.222s-3.222-4.861-3.222-7.778v-3-1h20v4l1-1 3 6c-2.499 3.748-6.706 6-11.211 6h-1.789z" fill="#808080"/>
                            <clipPath id="_clip7">
                                <path d="m19 35c-2.917 0-5.715-1.159-7.778-3.222s-3.222-4.861-3.222-7.778v-3-1h20v4l1-1 3 6c-2.499 3.748-6.706 6-11.211 6h-1.789z"/>
                            </clipPath>
                            <g clip-path="url(#_clip7)">
                                <path d="m31.55 19.004-4 4c-1.791 0-3.382 1.147-3.948 2.846-0.033 0.098-0.052 0.154-0.052 0.154" fill="none" stroke="#616161" stroke-linejoin="miter" stroke-miterlimit="1.5" stroke-width="2px"/>
                            </g>
                        </g>
                    
                </g>
            </g>
        </g>
    </g>
</svg>
