<?xml version="1.0" encoding="UTF-8"?>
<!DOCTYPE svg  PUBLIC '-//W3C//DTD SVG 1.1//EN'  'http://www.w3.org/Graphics/SVG/1.1/DTD/svg11.dtd'>
<svg clip-rule="evenodd" fill-rule="evenodd" stroke-linecap="round" stroke-linejoin="round" stroke-miterlimit="10" version="1.1" viewBox="0 0 32 32" xml:space="preserve" xmlns="http://www.w3.org/2000/svg" xmlns:serif="http://www.serif.com/">
<metadata>
<rdf:RDF xmlns:cc="http://web.resource.org/cc/" xmlns:dc="http://purl.org/dc/elements/1.1/" xmlns:rdf="http://www.w3.org/1999/02/22-rdf-syntax-ns#">

     <rdf:Description rdf:about="">
       <dc:title>Mutant Standard emoji 2023.12</dc:title>
     </rdf:Description>

    <cc:work rdf:about="">
        <cc:license rdf:resource="http://creativecommons.org/licenses/by-nc-sa/4.0/"/>
        <cc:attributionName>Caius Nocturne</cc:attributionName>
        <cc:attributionURL>http://mutant.tech/</cc:attributionURL>
    </cc:work>

</rdf:RDF>
</metadata>
<rect id="paw_hand_modifier" width="32" height="32" fill="none"/><clipPath id="_clip1"><rect width="32" height="32"/></clipPath><g clip-path="url(#_clip1)"><g id="outline"><path d="m3 15 13-13 13 13v2l-13 13-13-13v-2z" fill="none" stroke="#000" stroke-width="4px"/></g><g id="emoji"><path d="m3 17v-2l13-11 13 11v2l-13 13-13-13z" fill="#464646"/><path d="m3 15 13-13 13 13-13 13-13-13z" fill="#fff"/><clipPath id="_clip2"><path d="m3 15 13-13 13 13-13 13-13-13z"/></clipPath><g clip-path="url(#_clip2)"><clipPath id="_clip3"><rect x="6" y="5" width="32" height="32"/></clipPath><g clip-path="url(#_clip3)"><rect id="hand--paw-" x="6" y="5" width="32" height="32" fill="none" serif:id="hand [paw]"/><g id="outline1" serif:id="outline"><path d="m15.259 7.001 0.17 7e-3 0.17 0.014 0.169 0.02 0.168 0.026 0.167 0.033 0.166 0.039 0.164 0.045 0.163 0.051 0.16 0.058 0.158 0.064 0.156 0.069 0.152 0.075 0.15 0.081 0.147 0.087 0.143 0.092 0.14 0.098 0.136 0.102 0.131 0.108 0.128 0.113 0.123 0.117 0.119 0.122 0.114 0.127 0.11 0.131 0.104 0.134 0.099 0.139 0.094 0.142 0.088 0.146 0.083 0.149 0.077 0.151 0.071 0.155 0.065 0.157 0.06 0.16 0.053 0.162 0.047 0.164 0.041 0.165 0.034 0.167 3.094 16.5 0.028 0.168 0.022 0.169 0.015 0.169 9e-3 0.17 3e-3 0.171-4e-3 0.17-0.01 0.17-0.017 0.169-0.023 0.169-0.03 0.168-0.036 0.166-0.042 0.165-0.048 0.164-0.054 0.161-0.061 0.159-0.067 0.157-0.072 0.154-0.078 0.151-0.084 0.149-0.089 0.145-0.095 0.141-0.1 0.138-0.106 0.134-0.11 0.13-0.115 0.125-0.12 0.121-0.124 0.117-0.129 0.111-0.132 0.107-0.137 0.102-0.14 0.096-0.144 0.091-0.148 0.086-0.15 0.08-0.153 0.074-0.156 0.068-0.159 0.062-0.161 0.057-0.163 0.05-0.164 0.044-0.166 0.037-0.168 0.032-0.168 0.025-0.169 0.018-0.17 0.013-0.17 5e-3h-0.171l-0.17-7e-3 -0.17-0.014-0.169-0.02-0.168-0.026-0.167-0.033-0.166-0.039-0.164-0.045-0.163-0.051-0.16-0.058-0.158-0.064-0.155-0.069-0.153-0.075-0.15-0.081-0.147-0.087-0.143-0.092-0.139-0.098-0.136-0.102-0.132-0.108-0.128-0.113-0.123-0.117-0.119-0.122-0.114-0.127-0.109-0.131-0.105-0.134-0.099-0.139-0.093-0.142-0.089-0.146-0.082-0.149-0.077-0.151-0.072-0.155-0.065-0.157-0.059-0.16-0.053-0.162-0.048-0.164-0.04-0.165-0.035-0.167-3.094-16.5-0.028-0.168-0.022-0.169-0.015-0.169-9e-3 -0.17-3e-3 -0.171 4e-3 -0.17 0.011-0.17 0.016-0.169 0.023-0.169 0.03-0.168 0.036-0.166 0.042-0.165 0.048-0.164 0.055-0.161 0.06-0.159 0.067-0.157 0.072-0.154 0.078-0.151 0.084-0.149 0.09-0.145 0.095-0.141 0.1-0.138 0.105-0.134 0.11-0.13 0.115-0.125 0.12-0.121 0.124-0.117 0.129-0.111 0.133-0.107 0.136-0.102 0.141-0.096 0.144-0.091 0.147-0.086 0.15-0.08 0.154-0.074 0.156-0.068 0.158-0.062 0.161-0.057 0.163-0.05 0.164-0.044 0.166-0.037 0.168-0.032 0.168-0.025 0.17-0.018 0.169-0.013 0.171-5e-3h0.17z"/><path d="m28.562 7.004 0.166 0.01 0.165 0.016 0.165 0.022 0.164 0.029 0.163 0.034 0.161 0.04 0.16 0.047 0.158 0.052 0.155 0.058 0.154 0.063 0.151 0.07 0.149 0.074 0.145 0.081 0.143 0.085 0.139 0.091 0.136 0.096 0.133 0.101 0.128 0.106 0.124 0.11 0.121 0.115 0.116 0.119 0.111 0.123 0.107 0.128 0.102 0.131 0.097 0.135 0.092 0.139 0.087 0.142 0.082 0.144 0.076 0.148 0.07 0.151 0.065 0.153 0.06 0.155 0.053 0.158 0.048 0.159 0.042 0.161 0.036 0.162 0.029 0.164 0.024 0.165 0.018 0.165 0.011 0.166 6e-3 0.166-1e-3 0.166-7e-3 0.167-0.013 0.165-0.019 0.166-0.026 0.164-0.031 0.163-0.037 0.162-3.874 15.496-0.044 0.161-0.049 0.159-0.055 0.157-0.061 0.155-0.066 0.152-0.072 0.15-0.078 0.147-0.083 0.144-0.088 0.141-0.093 0.138-0.099 0.134-0.103 0.13-0.108 0.127-0.113 0.122-0.117 0.118-0.121 0.114-0.126 0.109-0.129 0.105-0.133 0.099-0.137 0.095-0.14 0.089-0.144 0.084-0.146 0.079-0.149 0.074-0.152 0.068-0.154 0.062-0.157 0.056-0.158 0.051-0.16 0.045-0.162 0.038-0.163 0.033-0.164 0.027-0.165 0.021-0.166 0.014-0.166 9e-3 -0.166 2e-3 -0.167-4e-3 -0.166-0.01-0.165-0.016-0.165-0.022-0.164-0.029-0.163-0.034-0.161-0.04-0.16-0.046-0.158-0.053-0.155-0.058-0.154-0.063-0.151-0.07-0.149-0.074-0.145-0.081-0.143-0.085-0.139-0.091-0.136-0.096-0.132-0.101-0.129-0.105-0.124-0.111-0.121-0.115-0.116-0.119-0.111-0.123-0.107-0.128-0.102-0.131-0.097-0.135-0.092-0.139-0.087-0.141-0.082-0.145-0.076-0.148-0.07-0.151-0.065-0.153-0.06-0.155-0.053-0.158-0.048-0.159-0.042-0.161-0.036-0.162-0.029-0.164-0.024-0.165-0.018-0.165-0.011-0.166-6e-3 -0.166 1e-3 -0.166 7e-3 -0.167 0.013-0.165 0.019-0.166 0.026-0.164 0.031-0.163 0.037-0.162 3.874-15.496 0.044-0.161 0.049-0.159 0.055-0.157 0.061-0.155 0.066-0.152 0.072-0.15 0.078-0.147 0.083-0.144 0.088-0.141 0.093-0.138 0.099-0.134 0.103-0.13 0.108-0.127 0.113-0.122 0.117-0.118 0.121-0.114 0.126-0.109 0.129-0.104 0.133-0.1 0.137-0.095 0.14-0.089 0.144-0.084 0.146-0.079 0.149-0.074 0.152-0.068 0.154-0.062 0.157-0.056 0.158-0.051 0.16-0.045 0.162-0.038 0.163-0.033 0.164-0.027 0.165-0.021 0.166-0.014 0.166-9e-3 0.166-2e-3 0.167 4e-3z"/><path d="m21.762 5.004 0.174 0.013 0.173 0.02 0.172 0.027 0.172 0.034 0.169 0.04 0.169 0.047 0.166 0.053 0.164 0.06 0.161 0.066 0.159 0.072 0.156 0.079 0.153 0.084 0.149 0.09 0.146 0.096 0.142 0.101 0.138 0.107 0.134 0.113 0.129 0.117 0.125 0.122 0.119 0.127 0.115 0.132 0.11 0.135 0.104 0.14 0.099 0.144 0.093 0.148 0.087 0.151 0.081 0.154 0.076 0.158 0.069 0.16 0.063 0.163 0.056 0.165 0.05 0.167 0.044 0.169 0.037 0.171 0.03 0.172 0.024 0.173 0.016 0.173 0.011 0.175 3e-3 0.174v17l-3e-3 0.175-0.011 0.174-0.016 0.173-0.024 0.173-0.03 0.172-0.037 0.171-0.044 0.169-0.05 0.167-0.056 0.165-0.063 0.163-0.069 0.16-0.076 0.158-0.081 0.154-0.087 0.151-0.093 0.148-0.099 0.144-0.104 0.14-0.11 0.136-0.115 0.131-0.119 0.127-0.125 0.122-0.129 0.118-0.134 0.112-0.138 0.107-0.142 0.101-0.146 0.096-0.149 0.09-0.153 0.084-0.156 0.079-0.159 0.072-0.161 0.066-0.164 0.06-0.166 0.053-0.169 0.047-0.169 0.04-0.172 0.034-0.172 0.027-0.173 0.02-0.174 0.013-0.175 7e-3h-0.174l-0.175-7e-3 -0.174-0.013-0.173-0.02-0.172-0.027-0.172-0.034-0.17-0.04-0.168-0.047-0.166-0.053-0.164-0.06-0.161-0.066-0.159-0.072-0.156-0.079-0.153-0.084-0.149-0.09-0.146-0.096-0.142-0.101-0.138-0.107-0.134-0.112-0.129-0.118-0.125-0.122-0.119-0.127-0.115-0.131-0.11-0.136-0.104-0.14-0.099-0.144-0.093-0.148-0.087-0.151-0.081-0.154-0.076-0.158-0.069-0.16-0.063-0.163-0.056-0.165-0.05-0.167-0.044-0.169-0.037-0.171-0.03-0.172-0.024-0.173-0.017-0.173-0.01-0.174-3e-3 -0.175v-17l3e-3 -0.174 0.01-0.175 0.017-0.173 0.024-0.173 0.03-0.172 0.037-0.171 0.044-0.169 0.05-0.167 0.056-0.165 0.063-0.163 0.069-0.16 0.076-0.158 0.081-0.154 0.087-0.151 0.093-0.148 0.099-0.144 0.104-0.14 0.11-0.135 0.115-0.132 0.119-0.127 0.125-0.122 0.129-0.117 0.134-0.113 0.138-0.107 0.142-0.101 0.146-0.096 0.149-0.09 0.153-0.084 0.156-0.079 0.159-0.072 0.161-0.066 0.164-0.06 0.166-0.053 0.168-0.047 0.17-0.04 0.172-0.034 0.172-0.027 0.173-0.02 0.174-0.013 0.175-7e-3h0.174l0.175 7e-3z"/><path d="m33.074 18.997 0.148 4e-3 0.148 9e-3 0.148 0.013 0.147 0.017 0.146 0.022 0.146 0.027 0.145 0.03 0.144 0.035 0.143 0.039 0.142 0.043 0.14 0.048 0.139 0.051 0.138 0.056 0.135 0.06 0.134 0.063 0.132 0.068 0.13 0.072 0.127 0.075 0.125 0.079 0.123 0.083 0.121 0.086 0.118 0.09 0.115 0.094 0.112 0.096 0.109 0.1 0.106 0.104 0.104 0.106 0.1 0.109 0.096 0.112 0.094 0.116 0.09 0.117 0.086 0.121 0.083 0.123 0.079 0.125 0.075 0.127 0.072 0.13 0.068 0.132 0.063 0.134 0.06 0.135 0.056 0.138 0.051 0.139 0.048 0.14 0.043 0.142 0.039 0.143 0.035 0.144 0.03 0.145 0.027 0.146 0.022 0.146 0.017 0.147 0.013 0.148 9e-3 0.148 4e-3 0.148v0.148l-4e-3 0.148-9e-3 0.148-0.013 0.148-0.017 0.147-0.022 0.146-0.027 0.146-0.03 0.145-0.035 0.144-0.039 0.143-0.043 0.142-0.048 0.14-0.051 0.139-0.056 0.138-0.06 0.135-0.063 0.134-0.068 0.132-0.072 0.13-0.075 0.127-0.079 0.126-0.083 0.122-0.086 0.121-0.09 0.118-0.094 0.115-0.096 0.112-0.1 0.109-0.104 0.107-5.99 5.99-0.094 0.093-0.107 0.103-0.107 0.101-0.109 0.1-0.11 0.098-0.111 0.096-0.112 0.096-0.113 0.093-0.114 0.093-0.115 0.091-0.116 0.089-0.117 0.088-0.118 0.086-0.119 0.085-0.121 0.083-0.12 0.082-0.122 0.08-0.123 0.079-0.124 0.077-0.124 0.075-0.126 0.075-0.126 0.072-0.127 0.071-0.128 0.069-0.129 0.068-0.129 0.066-0.13 0.064-0.131 0.063-0.132 0.061-0.133 0.06-0.133 0.058-0.133 0.056-0.135 0.055-0.135 0.053-0.136 0.052-0.136 0.05-0.138 0.048-0.137 0.046-0.138 0.045-0.139 0.043-0.14 0.042-0.14 0.039-0.14 0.038-0.141 0.037-0.142 0.034-0.142 0.033-0.142 0.032-0.143 0.029-0.143 0.028-0.144 0.026-0.144 0.024-0.145 0.023-0.145 0.02-0.145 0.019-0.145 0.017-0.147 0.016-0.146 0.013-0.146 0.012-0.147 0.01-0.147 8e-3 -0.147 7e-3 -0.148 4e-3 -0.148 3e-3 -0.132 1e-3h-0.149l-0.148-2e-3 -0.148-7e-3 -0.148-0.011-0.147-0.015-0.147-0.02-0.146-0.024-0.146-0.028-0.144-0.033-0.144-0.037-0.142-0.041-0.141-0.045-0.14-0.05-0.138-0.054-0.137-0.057-0.134-0.062-0.133-0.066-0.131-0.069-0.129-0.074-0.126-0.077-0.124-0.081-0.122-0.085-0.119-0.088-0.116-0.091-0.114-0.095-0.111-0.099-0.108-0.101-0.105-0.105-0.101-0.108-0.099-0.111-0.095-0.114-0.091-0.116-0.088-0.119-0.085-0.122-0.081-0.124-0.077-0.126-0.074-0.129-0.069-0.131-0.066-0.133-0.062-0.134-0.057-0.137-0.054-0.138-0.05-0.14-0.045-0.141-0.041-0.142-0.037-0.144-0.033-0.144-0.028-0.146-0.024-0.146-0.02-0.147-0.015-0.147-0.011-0.148-7e-3 -0.148-2e-3 -0.148 2e-3 -0.148 7e-3 -0.148 0.011-0.148 0.015-0.147 0.02-0.147 0.024-0.146 0.028-0.146 0.033-0.144 0.037-0.144 0.041-0.142 0.045-0.141 0.05-0.14 0.054-0.138 0.057-0.137 0.062-0.134 0.066-0.133 0.069-0.131 0.074-0.129 0.077-0.126 0.081-0.124 0.085-0.122 0.088-0.119 0.091-0.116 0.095-0.114 0.099-0.111 0.101-0.108 0.105-0.105 0.108-0.101 0.111-0.099 0.114-0.095 0.116-0.091 0.119-0.088 0.122-0.085 0.124-0.081 0.126-0.077 0.129-0.074 0.131-0.069 0.133-0.066 0.134-0.062 0.137-0.057 0.138-0.054 0.14-0.05 0.141-0.045 0.142-0.041 0.144-0.037 0.144-0.033 0.146-0.028 0.146-0.024 0.147-0.02 0.147-0.015 0.148-0.011 0.148-7e-3 0.148-2e-3h0.157l0.024-1e-3h0.023l0.024-1e-3 0.024-2e-3 0.023-1e-3 0.048-4e-3 0.046-6e-3 0.024-3e-3 0.023-3e-3 0.023-4e-3 0.023-3e-3 0.023-5e-3 0.023-4e-3 0.046-0.01 0.022-5e-3 0.023-6e-3 0.022-5e-3 0.023-7e-3 0.023-6e-3 0.022-7e-3 0.022-6e-3 0.023-8e-3 0.022-7e-3 0.022-8e-3 0.021-8e-3 0.022-8e-3 0.044-0.018 0.021-9e-3 0.022-9e-3 0.021-9e-3 0.042-0.02 0.021-0.011 0.021-0.01 0.02-0.011 0.021-0.011 0.02-0.012 0.021-0.011 0.04-0.024 0.019-0.013 0.02-0.012 0.02-0.013 0.019-0.013 0.019-0.014 0.019-0.013 0.057-0.042 0.036-0.03 0.019-0.015 0.017-0.015 0.018-0.016 0.018-0.015 0.017-0.016 0.018-0.017 0.017-0.016 5.996-5.996 0.107-0.104 0.109-0.1 0.112-0.096 0.115-0.094 0.118-0.09 0.121-0.086 0.122-0.083 0.126-0.079 0.127-0.075 0.13-0.072 0.132-0.068 0.134-0.063 0.135-0.06 0.138-0.056 0.139-0.051 0.14-0.048 0.142-0.043 0.143-0.039 0.144-0.035 0.145-0.03 0.146-0.027 0.146-0.022 0.147-0.017 0.148-0.013 0.148-9e-3 0.148-4e-3h0.148z"/><path d="m11.046 11.503 0.17 0.01 0.169 0.016 0.169 0.023 0.168 0.029 0.167 0.035 0.165 0.042 0.163 0.048 0.162 0.054 0.159 0.06 0.157 0.066 0.155 0.072 0.151 0.078 0.149 0.083 0.145 0.089 0.142 0.094 0.138 0.1 0.134 0.105 0.13 0.11 0.126 0.115 0.121 0.119 0.117 0.124 0.112 0.128 0.108 0.132 0.102 0.137 0.096 0.14 0.092 0.144 0.086 0.147 0.08 0.15 0.075 0.153 0.069 0.156 0.062 0.158 0.057 0.161 0.051 0.162 0.044 0.165 2.678 10.698 0.011 0.045 9e-3 0.033 9e-3 0.032 9e-3 0.033 0.03 0.096 0.011 0.032 0.011 0.031 0.011 0.032 0.012 0.03 0.012 0.032 0.024 0.06 0.013 0.031 0.013 0.03 0.014 0.03 0.013 0.03 0.014 0.029 0.014 0.03 0.015 0.028 0.045 0.087 0.064 0.112 0.017 0.028 0.034 0.054 0.018 0.028 0.018 0.026 0.018 0.027 0.018 0.026 0.019 0.027 0.018 0.026 0.019 0.025 0.02 0.026 0.02 0.025 0.02 0.026 0.04 0.05 0.063 0.072 0.022 0.025 0.021 0.023 0.022 0.024 0.044 0.046 0.023 0.023 0.023 0.022 0.023 0.023 0.023 0.022 0.024 0.022 0.024 0.021 0.023 0.022 0.025 0.021 0.024 0.021 0.025 0.021 0.025 0.02 0.024 0.02 0.026 0.02 0.025 0.02 0.052 0.038 0.025 0.019 0.027 0.019 0.026 0.018 0.054 0.036 0.027 0.017 0.027 0.018 0.027 0.016 0.027 0.017 0.028 0.017 0.028 0.016 0.028 0.015 0.028 0.016 0.056 0.03 0.029 0.015 0.029 0.014 0.029 0.015 0.029 0.013 0.029 0.014 0.058 0.026 0.03 0.012 0.03 0.013 0.03 0.012 0.03 0.011 0.03 0.012 0.06 0.022 0.062 0.02 0.03 0.01 0.031 0.01 0.062 0.018 0.032 8e-3 0.03 9e-3 0.032 7e-3 0.064 0.016 0.031 6e-3 0.032 7e-3 0.031 6e-3 0.066 0.012 0.031 5e-3 0.066 0.01 0.032 4e-3 0.033 5e-3 0.033 3e-3 0.033 4e-3 0.033 3e-3 0.034 2e-3 0.034 3e-3 0.033 1e-3 0.033 2e-3 0.102 3e-3h2.07l0.17 3e-3 0.17 0.01 0.17 0.016 0.169 0.023 0.168 0.028 0.166 0.036 0.165 0.041 0.164 0.048 0.161 0.054 0.16 0.06 0.157 0.065 0.154 0.072 0.152 0.078 0.149 0.083 0.145 0.089 0.142 0.094 0.138 0.1 0.134 0.105 0.13 0.109 0.126 0.115 0.122 0.119 0.117 0.124 0.112 0.128 0.107 0.133 0.103 0.136 0.097 0.14 0.091 0.143 0.086 0.147 0.081 0.151 0.074 0.153 0.069 0.155 0.063 0.159 0.057 0.16 0.051 0.163 0.044 0.164 0.039 0.166 0.032 0.167 0.026 0.169 0.019 0.169 0.013 0.17 6e-3 0.17v0.17l-6e-3 0.17-0.013 0.17-0.019 0.169-0.026 0.169-0.032 0.167-0.039 0.166-0.044 0.164-0.051 0.163-0.057 0.161-0.063 0.158-0.069 0.156-0.074 0.153-0.081 0.15-0.086 0.147-0.091 0.143-0.097 0.14-0.103 0.137-0.107 0.132-0.112 0.128-0.117 0.124-0.122 0.119-0.126 0.115-0.13 0.109-0.134 0.105-0.138 0.1-0.142 0.094-0.145 0.089-0.149 0.083-0.152 0.078-0.154 0.072-0.157 0.066-0.16 0.059-0.161 0.054-0.164 0.048-0.165 0.042-0.166 0.035-0.168 0.029-0.169 0.022-0.17 0.016-0.17 0.01-0.17 3e-3h-2.047l-0.118-1e-3 -0.13-2e-3 -0.13-3e-3 -0.128-5e-3 -0.13-6e-3 -0.129-8e-3 -0.128-8e-3 -0.128-0.011-0.129-0.011-0.127-0.013-0.127-0.014-0.127-0.016-0.128-0.017-0.125-0.018-0.126-0.019-0.127-0.021-0.124-0.022-0.25-0.048-0.124-0.026-0.124-0.028-0.123-0.028-0.122-0.03-0.123-0.031-0.122-0.032-0.121-0.033-0.121-0.035-0.121-0.036-0.12-0.037-0.12-0.038-0.119-0.04-0.118-0.04-0.118-0.042-0.118-0.043-0.116-0.044-0.117-0.046-0.116-0.046-0.115-0.048-0.114-0.049-0.114-0.05-0.114-0.051-0.113-0.052-0.224-0.108-0.11-0.056-0.111-0.056-0.11-0.058-0.109-0.059-0.108-0.06-0.108-0.061-0.107-0.062-0.106-0.063-0.106-0.065-0.105-0.065-0.105-0.066-0.206-0.136-0.103-0.07-0.101-0.07-0.1-0.071-0.101-0.073-0.099-0.073-0.099-0.075-0.097-0.075-0.097-0.077-0.097-0.078-0.095-0.078-0.094-0.079-0.094-0.081-0.093-0.081-0.092-0.082-0.092-0.084-0.09-0.084-0.09-0.085-0.089-0.086-0.088-0.087-0.087-0.088-0.086-0.088-0.086-0.09-0.084-0.091-0.084-0.092-0.082-0.092-0.082-0.093-0.081-0.094-0.08-0.096-0.079-0.096-0.078-0.096-0.077-0.098-0.076-0.098-0.075-0.099-0.075-0.101-0.073-0.101-0.072-0.101-0.072-0.103-0.07-0.104-0.069-0.104-0.068-0.105-0.068-0.106-0.066-0.107-0.065-0.107-0.064-0.108-0.063-0.109-0.062-0.11-0.061-0.111-0.118-0.222-0.057-0.113-0.057-0.114-0.055-0.114-0.054-0.115-0.053-0.115-0.052-0.116-0.051-0.117-0.049-0.117-0.049-0.119-0.047-0.119-0.046-0.119-0.044-0.12-0.044-0.121-0.042-0.121-0.041-0.122-0.04-0.123-0.039-0.123-0.037-0.124-0.036-0.124-0.035-0.124-0.033-0.126-0.029-0.114-2.683-10.722-0.039-0.166-0.032-0.167-0.025-0.168-0.019-0.169-0.013-0.17-6e-3 -0.171v-0.17l6e-3 -0.17 0.013-0.17 0.02-0.169 0.026-0.168 0.032-0.168 0.038-0.166 0.045-0.164 0.051-0.162 0.057-0.161 0.063-0.158 0.069-0.156 0.075-0.153 0.081-0.15 0.086-0.147 0.091-0.143 0.098-0.14 0.102-0.136 0.107-0.133 0.112-0.128 0.118-0.123 0.121-0.12 0.126-0.114 0.131-0.11 0.134-0.104 0.138-0.1 0.142-0.094 0.146-0.089 0.148-0.083 0.152-0.077 0.154-0.072 0.157-0.066 0.16-0.06 0.162-0.053 0.163-0.048 0.165-0.041 0.167-0.035 0.168-0.029 0.169-0.022 0.169-0.016 0.17-0.01 0.171-3e-3 0.17 3e-3z"/></g><g id="emoji1" serif:id="emoji"><path d="m15.326 9.006 0.126 0.012 0.126 0.018 0.124 0.024 0.123 0.031 0.121 0.037 0.119 0.043 0.117 0.049 0.114 0.055 0.111 0.06 0.108 0.067 0.105 0.071 0.101 0.077 0.096 0.082 0.093 0.086 0.088 0.091 0.083 0.096 0.078 0.099 0.074 0.104 0.067 0.107 0.063 0.11 0.057 0.113 0.05 0.116 0.045 0.119 0.039 0.12 0.033 0.122 0.026 0.124 3.094 16.5 0.02 0.125 0.014 0.126 8e-3 0.127 1e-3 0.126-6e-3 0.127-0.012 0.126-0.018 0.125-0.024 0.125-0.031 0.122-0.037 0.122-0.043 0.119-0.049 0.117-0.055 0.114-0.06 0.111-0.067 0.108-0.071 0.105-0.077 0.1-0.082 0.097-0.086 0.093-0.091 0.088-0.096 0.083-0.099 0.078-0.104 0.073-0.107 0.068-0.11 0.063-0.113 0.056-0.116 0.051-0.119 0.045-0.12 0.039-0.122 0.033-0.124 0.026-0.125 0.02-0.126 0.014-0.127 8e-3 -0.126 1e-3 -0.127-6e-3 -0.126-0.012-0.125-0.018-0.125-0.024-0.122-0.031-0.122-0.037-0.119-0.043-0.117-0.049-0.114-0.055-0.111-0.06-0.108-0.067-0.105-0.071-0.1-0.077-0.097-0.082-0.093-0.086-0.088-0.091-0.083-0.096-0.078-0.099-0.073-0.104-0.068-0.107-0.063-0.11-0.056-0.113-0.051-0.116-0.045-0.119-0.039-0.12-0.033-0.122-0.026-0.124-3.094-16.5-0.02-0.125-0.014-0.126-7e-3 -0.127-1e-3 -0.126 5e-3 -0.127 0.012-0.126 0.018-0.125 0.025-0.125 0.03-0.122 0.037-0.122 0.043-0.119 0.049-0.117 0.055-0.114 0.061-0.111 0.066-0.108 0.071-0.105 0.077-0.1 0.082-0.097 0.086-0.093 0.092-0.088 0.095-0.083 0.099-0.078 0.104-0.073 0.107-0.068 0.11-0.063 0.113-0.056 0.116-0.051 0.119-0.045 0.12-0.039 0.123-0.033 0.124-0.026 0.125-0.02 0.125-0.014 0.127-8e-3 0.127-1e-3 0.126 6e-3z" fill="#808080"/><path d="m28.496 9.003 0.122 9e-3 0.122 0.015 0.121 0.021 0.119 0.027 0.119 0.032 0.116 0.039 0.115 0.044 0.112 0.05 0.109 0.055 0.107 0.06 0.104 0.066 0.1 0.07 0.097 0.076 0.093 0.08 0.089 0.084 0.085 0.089 0.08 0.093 0.075 0.097 0.071 0.1 0.066 0.104 0.06 0.106 0.055 0.11 0.05 0.112 0.044 0.115 0.039 0.116 0.033 0.118 0.027 0.12 0.021 0.121 0.015 0.122 9e-3 0.122 3e-3 0.123-3e-3 0.123-9e-3 0.122-0.015 0.122-0.021 0.121-0.027 0.119-3.874 15.496-0.032 0.119-0.039 0.116-0.044 0.115-0.05 0.112-0.055 0.11-0.06 0.106-0.066 0.104-0.07 0.1-0.076 0.097-0.08 0.093-0.084 0.089-0.089 0.085-0.093 0.08-0.097 0.075-0.1 0.071-0.104 0.066-0.106 0.06-0.11 0.056-0.112 0.049-0.115 0.045-0.116 0.038-0.118 0.033-0.12 0.027-0.121 0.021-0.122 0.015-0.122 9e-3 -0.123 3e-3 -0.123-3e-3 -0.122-9e-3 -0.122-0.015-0.121-0.021-0.119-0.027-0.119-0.032-0.116-0.039-0.115-0.044-0.112-0.049-0.109-0.056-0.107-0.06-0.104-0.066-0.1-0.07-0.097-0.076-0.093-0.08-0.089-0.084-0.085-0.089-0.08-0.093-0.075-0.097-0.071-0.1-0.066-0.104-0.06-0.106-0.055-0.11-0.05-0.112-0.044-0.115-0.039-0.116-0.033-0.118-0.027-0.12-0.021-0.121-0.015-0.122-9e-3 -0.122-3e-3 -0.123 3e-3 -0.122 9e-3 -0.123 0.015-0.122 0.021-0.121 0.027-0.119 3.874-15.496 0.032-0.119 0.039-0.116 0.044-0.115 0.05-0.112 0.055-0.109 0.06-0.107 0.066-0.104 0.07-0.1 0.076-0.097 0.08-0.093 0.084-0.089 0.089-0.085 0.093-0.08 0.097-0.075 0.1-0.071 0.104-0.066 0.107-0.06 0.109-0.055 0.112-0.05 0.115-0.044 0.116-0.039 0.118-0.033 0.12-0.027 0.121-0.021 0.122-0.015 0.122-9e-3 0.123-3e-3 0.123 3e-3z" fill="#808080"/><path d="m21.693 7.004 0.128 0.013 0.127 0.02 0.126 0.026 0.125 0.033 0.122 0.039 0.121 0.045 0.118 0.052 0.115 0.057 0.112 0.064 0.109 0.069 0.104 0.074 0.101 0.08 0.097 0.085 0.092 0.09 0.088 0.095 0.082 0.099 0.078 0.102 0.071 0.107 0.067 0.111 0.06 0.113 0.055 0.117 0.048 0.119 0.043 0.122 0.036 0.123 0.029 0.126 0.023 0.126 0.017 0.128 0.01 0.128 3e-3 0.129v17l-3e-3 0.129-0.01 0.128-0.017 0.128-0.023 0.126-0.029 0.126-0.036 0.123-0.043 0.122-0.048 0.119-0.055 0.117-0.06 0.113-0.067 0.111-0.071 0.107-0.078 0.103-0.082 0.098-0.088 0.095-0.092 0.09-0.097 0.085-0.101 0.08-0.104 0.074-0.109 0.069-0.112 0.064-0.115 0.057-0.118 0.052-0.121 0.045-0.122 0.039-0.125 0.033-0.126 0.027-0.127 0.019-0.128 0.014-0.129 6e-3h-0.128l-0.129-6e-3 -0.128-0.014-0.127-0.019-0.126-0.027-0.125-0.033-0.122-0.039-0.121-0.045-0.118-0.052-0.115-0.057-0.112-0.064-0.109-0.069-0.105-0.074-0.101-0.08-0.096-0.085-0.092-0.09-0.088-0.095-0.082-0.098-0.078-0.103-0.071-0.107-0.067-0.111-0.06-0.113-0.055-0.117-0.048-0.119-0.043-0.122-0.036-0.123-0.029-0.126-0.023-0.126-0.017-0.128-0.01-0.128-3e-3 -0.129v-17l3e-3 -0.129 0.01-0.128 0.017-0.128 0.023-0.126 0.029-0.126 0.036-0.123 0.043-0.122 0.048-0.119 0.055-0.117 0.06-0.113 0.067-0.111 0.071-0.107 0.078-0.102 0.082-0.099 0.088-0.095 0.092-0.09 0.096-0.085 0.101-0.08 0.105-0.074 0.109-0.069 0.112-0.064 0.115-0.057 0.118-0.052 0.121-0.045 0.122-0.039 0.125-0.033 0.126-0.026 0.127-0.02 0.128-0.013 0.129-7e-3h0.128l0.129 7e-3z" fill="#808080"/><path d="m33.142 20.999 0.113 8e-3 0.113 0.012 0.112 0.016 0.112 0.02 0.111 0.025 0.11 0.028 0.109 0.033 0.107 0.037 0.106 0.041 0.104 0.045 0.103 0.049 0.1 0.052 0.099 0.057 0.096 0.06 0.094 0.064 0.091 0.067 0.089 0.071 0.086 0.074 0.084 0.077 0.08 0.08 0.077 0.084 0.074 0.086 0.071 0.089 0.067 0.091 0.064 0.094 0.06 0.096 0.057 0.099 0.052 0.1 0.049 0.103 0.045 0.104 0.041 0.106 0.037 0.107 0.033 0.109 0.028 0.11 0.025 0.111 0.02 0.112 0.016 0.112 0.012 0.113 8e-3 0.113 3e-3 0.114-1e-3 0.113-6e-3 0.114-9e-3 0.113-0.014 0.112-0.018 0.113-0.023 0.111-0.026 0.11-0.031 0.11-0.035 0.108-0.039 0.106-0.043 0.105-0.047 0.104-0.051 0.101-0.054 0.1-0.059 0.097-0.062 0.095-0.065 0.093-0.069 0.09-0.072 0.088-0.076 0.085-0.079 0.081-5.986 5.987-0.081 0.08-0.089 0.085-0.089 0.084-0.09 0.083-0.092 0.082-0.092 0.08-0.093 0.079-0.094 0.078-0.095 0.077-0.096 0.076-0.097 0.074-0.097 0.073-0.098 0.072-0.1 0.071-0.099 0.069-0.101 0.068-0.101 0.067-0.102 0.065-0.103 0.064-0.104 0.063-0.105 0.062-0.105 0.06-0.105 0.059-0.107 0.058-0.107 0.056-0.108 0.055-0.108 0.053-0.109 0.053-0.109 0.051-0.222 0.098-0.111 0.047-0.112 0.045-0.112 0.044-0.113 0.043-0.114 0.042-0.114 0.04-0.115 0.038-0.114 0.038-0.116 0.036-0.116 0.034-0.117 0.033-0.116 0.032-0.118 0.03-0.117 0.029-0.119 0.027-0.118 0.026-0.119 0.025-0.119 0.023-0.12 0.022-0.12 0.02-0.12 0.018-0.121 0.018-0.12 0.015-0.122 0.015-0.121 0.013-0.122 0.011-0.122 0.01-0.122 8e-3 -0.122 7e-3 -0.123 5e-3 -0.122 4e-3 -0.123 2e-3 -0.114 1e-3h-0.143l-0.114-2e-3 -0.113-7e-3 -0.113-0.01-0.112-0.015-0.112-0.02-0.111-0.023-0.111-0.028-0.109-0.031-0.107-0.036-0.107-0.04-0.104-0.044-0.103-0.048-0.101-0.052-0.099-0.055-0.097-0.06-0.095-0.063-0.092-0.066-0.089-0.07-0.087-0.073-0.084-0.076-0.081-0.08-0.078-0.082-0.075-0.086-0.072-0.088-0.068-0.091-0.064-0.093-0.061-0.096-0.058-0.098-0.053-0.1-0.05-0.102-0.046-0.104-0.042-0.105-0.038-0.107-0.034-0.109-0.03-0.109-0.025-0.111-0.022-0.111-0.017-0.113-0.013-0.113-8e-3 -0.113-4e-3 -0.113v-0.114l4e-3 -0.113 8e-3 -0.113 0.013-0.113 0.017-0.113 0.022-0.111 0.025-0.111 0.03-0.109 0.034-0.109 0.038-0.107 0.042-0.105 0.046-0.104 0.05-0.102 0.053-0.1 0.058-0.098 0.061-0.096 0.064-0.093 0.068-0.091 0.072-0.088 0.075-0.086 0.078-0.082 0.081-0.08 0.084-0.076 0.087-0.073 0.089-0.07 0.092-0.066 0.095-0.063 0.097-0.06 0.099-0.055 0.101-0.052 0.103-0.048 0.104-0.044 0.107-0.04 0.107-0.036 0.109-0.031 0.111-0.028 0.111-0.023 0.112-0.02 0.112-0.015 0.113-0.01 0.113-7e-3 0.114-2e-3h0.182l0.048-1e-3 0.049-2e-3 0.048-2e-3 0.049-3e-3 0.048-3e-3 0.096-8e-3 0.048-5e-3 0.048-6e-3 0.047-6e-3 0.048-7e-3 0.047-7e-3 0.048-8e-3 0.094-0.018 0.094-0.02 0.046-0.011 0.047-0.011 0.092-0.024 0.046-0.014 0.046-0.013 0.045-0.014 0.046-0.015 0.045-0.015 0.09-0.032 0.044-0.017 0.045-0.018 0.088-0.036 0.044-0.019 0.086-0.04 0.044-0.021 0.042-0.021 0.043-0.022 0.042-0.022 0.084-0.046 0.082-0.048 0.082-0.05 0.08-0.052 0.04-0.027 0.039-0.027 0.078-0.056 0.039-0.029 0.038-0.03 0.037-0.029 0.038-0.031 0.074-0.062 0.108-0.096 0.035-0.034 0.035-0.033 0.042-0.041 5.973-5.973 0.081-0.079 0.085-0.076 0.088-0.072 0.09-0.069 0.093-0.065 0.095-0.062 0.097-0.059 0.1-0.054 0.101-0.051 0.104-0.047 0.105-0.043 0.106-0.039 0.109-0.035 0.109-0.031 0.11-0.026 0.111-0.023 0.113-0.018 0.112-0.014 0.113-9e-3 0.114-6e-3 0.113-1e-3 0.114 3e-3z" fill="#808080"/><path d="m11.008 13.504 0.127 0.011 0.125 0.017 0.125 0.023 0.123 0.03 0.121 0.035 0.12 0.042 0.117 0.048 0.115 0.054 0.112 0.059 0.108 0.066 0.106 0.07 0.101 0.076 0.098 0.081 0.093 0.085 0.089 0.09 0.084 0.095 0.079 0.099 0.074 0.103 0.069 0.106 0.064 0.109 0.058 0.113 0.052 0.116 0.046 0.118 0.04 0.12 0.034 0.122 2.685 10.707 0.016 0.06 0.014 0.054 0.03 0.106 0.016 0.052 0.016 0.053 0.017 0.052 0.018 0.051 0.018 0.052 0.018 0.051 0.019 0.051 0.02 0.05 0.019 0.05 0.021 0.051 0.042 0.098 0.022 0.049 0.023 0.049 0.022 0.049 0.048 0.096 0.024 0.047 0.075 0.141 0.027 0.046 0.026 0.046 0.027 0.046 0.056 0.09 0.028 0.044 0.029 0.045 0.029 0.044 0.03 0.044 0.06 0.086 0.031 0.043 0.096 0.126 0.033 0.041 0.032 0.041 0.034 0.04 0.034 0.041 0.034 0.04 0.105 0.117 0.072 0.076 0.037 0.038 0.074 0.074 0.038 0.037 0.038 0.036 0.038 0.035 0.039 0.036 0.039 0.035 0.04 0.034 0.039 0.034 0.041 0.034 0.04 0.033 0.041 0.033 0.082 0.064 0.042 0.032 0.042 0.031 0.043 0.031 0.129 0.09 0.044 0.029 0.088 0.056 0.045 0.028 0.045 0.027 0.044 0.027 0.138 0.078 0.046 0.025 0.046 0.024 0.094 0.048 0.047 0.022 0.048 0.023 0.048 0.022 0.047 0.022 0.048 0.021 0.049 0.021 0.098 0.04 0.049 0.019 0.049 0.018 0.1 0.036 0.1 0.034 0.05 0.016 0.051 0.016 0.051 0.015 0.051 0.014 0.051 0.015 0.051 0.013 0.104 0.026 0.052 0.012 0.104 0.022 0.159 0.03 0.053 8e-3 0.053 9e-3 0.053 7e-3 0.054 7e-3 0.053 7e-3 0.055 6e-3 0.162 0.015 0.055 4e-3 0.055 3e-3 0.109 4e-3 0.056 2e-3 0.055 1e-3h2.094l0.127 3e-3 0.126 0.01 0.126 0.016 0.124 0.022 0.124 0.029 0.121 0.035 0.12 0.041 0.118 0.047 0.115 0.053 0.112 0.058 0.109 0.064 0.106 0.07 0.102 0.075 0.098 0.08 0.094 0.085 0.09 0.09 0.085 0.094 0.08 0.098 0.075 0.102 0.07 0.106 0.064 0.109 0.059 0.112 0.052 0.115 0.047 0.118 0.041 0.12 0.035 0.121 0.029 0.124 0.022 0.124 0.016 0.126 0.01 0.126 3e-3 0.127-3e-3 0.127-0.01 0.126-0.016 0.126-0.022 0.124-0.029 0.124-0.035 0.121-0.041 0.12-0.047 0.118-0.052 0.115-0.059 0.112-0.064 0.109-0.07 0.106-0.075 0.102-0.08 0.098-0.085 0.094-0.09 0.09-0.094 0.085-0.098 0.08-0.102 0.075-0.106 0.07-0.109 0.064-0.112 0.059-0.115 0.052-0.118 0.047-0.12 0.041-0.121 0.035-0.124 0.029-0.124 0.022-0.126 0.016-0.126 0.01-0.127 3e-3h-2.045-0.102l-0.109-2e-3 -0.108-3e-3 -0.108-4e-3 -0.108-5e-3 -0.107-7e-3 -0.108-7e-3 -0.214-0.018-0.106-0.011-0.106-0.012-0.107-0.013-0.106-0.014-0.105-0.015-0.105-0.016-0.105-0.018-0.104-0.018-0.105-0.02-0.104-0.02-0.206-0.044-0.104-0.024-0.102-0.025-0.102-0.026-0.102-0.027-0.101-0.027-0.101-0.029-0.101-0.03-0.1-0.031-0.1-0.032-0.099-0.033-0.099-0.034-0.098-0.035-0.098-0.036-0.098-0.037-0.097-0.038-0.097-0.039-0.096-0.039-0.095-0.041-0.096-0.042-0.095-0.043-0.094-0.043-0.093-0.045-0.094-0.045-0.092-0.046-0.184-0.096-0.091-0.049-0.091-0.05-0.09-0.051-0.089-0.052-0.089-0.053-0.088-0.053-0.088-0.055-0.087-0.055-0.087-0.057-0.086-0.057-0.085-0.058-0.085-0.059-0.084-0.059-0.084-0.061-0.083-0.061-0.082-0.062-0.082-0.063-0.081-0.064-0.16-0.13-0.079-0.067-0.078-0.067-0.078-0.068-0.077-0.068-0.152-0.14-0.075-0.072-0.074-0.071-0.146-0.146-0.072-0.074-0.072-0.075-0.14-0.152-0.069-0.077-0.069-0.079-0.067-0.078-0.067-0.079-0.066-0.08-0.065-0.081-0.128-0.164-0.063-0.083-0.062-0.083-0.061-0.085-0.12-0.17-0.059-0.087-0.114-0.174-0.057-0.089-0.055-0.089-0.054-0.089-0.054-0.09-0.052-0.092-0.052-0.091-0.051-0.092-0.05-0.093-0.049-0.093-0.048-0.094-0.047-0.095-0.046-0.095-0.045-0.096-0.044-0.096-0.044-0.097-0.042-0.098-0.082-0.196-0.039-0.1-0.039-0.099-0.037-0.101-0.072-0.202-0.034-0.101-0.066-0.206-0.031-0.103-0.03-0.104-0.029-0.104-0.028-0.105-0.026-0.099-2.688-10.72-0.028-0.123-0.021-0.125-0.015-0.126-9e-3 -0.126-2e-3 -0.127 4e-3 -0.127 0.011-0.126 0.017-0.125 0.023-0.125 0.029-0.123 0.036-0.122 0.042-0.119 0.048-0.117 0.054-0.115 0.059-0.112 0.065-0.109 0.071-0.105 0.076-0.101 0.08-0.098 0.086-0.093 0.09-0.089 0.095-0.084 0.099-0.08 0.102-0.074 0.107-0.069 0.109-0.063 0.113-0.058 0.115-0.052 0.118-0.046 0.121-0.04 0.122-0.034 0.123-0.028 0.125-0.021 0.126-0.015 0.126-9e-3 0.127-2e-3 0.126 4e-3z" fill="#808080"/><path d="m27.932 18v9l4.068-2.28-9.16 8.98-9.908-3.7v-12h15z" fill="#808080"/><path d="m12 10 1.75 10.5" fill="none" stroke="#000" stroke-linejoin="miter" stroke-miterlimit="1.5" stroke-width="1px"/><path d="m18.5 9v10" fill="none" stroke="#000" stroke-linejoin="miter" stroke-miterlimit="1.5" stroke-width="1px"/><path d="m24.5 9v9.5" fill="none" stroke="#000" stroke-linejoin="miter" stroke-miterlimit="1.5" stroke-width="1px"/><path d="m14.742 10.323c1.022-0.255 2.149 0.728 2.514 2.193 0.366 1.466-0.168 2.862-1.19 3.117s-2.149-0.728-2.514-2.193c-0.366-1.465 0.168-2.862 1.19-3.117z" fill="#464646"/><path d="m10.171 14.9c0.85-0.212 1.772 0.548 2.058 1.695 0.286 1.148-0.171 2.252-1.021 2.464-0.85 0.211-1.772-0.548-2.058-1.696s0.171-2.252 1.021-2.463z" fill="#464646"/><ellipse cx="21.509" cy="11.5" rx="2" ry="3" fill="#464646"/><path d="m28.681 10.134c0.989 0.247 1.487 1.673 1.11 3.184-0.376 1.51-1.485 2.536-2.475 2.29-0.99-0.247-1.487-1.674-1.111-3.184 0.377-1.511 1.486-2.537 2.476-2.29z" fill="#464646"/><path d="m34.018 22.485c0.903 0.903 0.59 2.684-0.699 3.973s-3.07 1.602-3.973 0.699c-0.904-0.904-0.591-2.684 0.699-3.973 1.289-1.29 3.069-1.603 3.973-0.699z" fill="#464646"/><path d="m14 28.657c0-1.061 0.421-2.078 1.172-2.829l3-3c0.75-0.75 1.767-1.171 2.828-1.171s2.078 0.421 2.828 1.171l3 3c0.751 0.751 1.172 1.768 1.172 2.829v0.501c0 0.923-0.426 1.796-1.154 2.364-0.728 0.569-1.677 0.77-2.574 0.546-0.917-0.229-1.782-0.445-2.294-0.574-0.318-0.079-0.643-0.119-0.97-0.119h-0.016c-0.327 0-0.652 0.04-0.97 0.119-0.512 0.129-1.377 0.345-2.294 0.574-0.897 0.224-1.846 0.023-2.574-0.546-0.728-0.568-1.154-1.441-1.154-2.364v-0.501z" fill="#464646"/></g></g></g></g></g></svg>
