<?xml version="1.0" encoding="UTF-8"?>
<!DOCTYPE svg  PUBLIC '-//W3C//DTD SVG 1.1//EN'  'http://www.w3.org/Graphics/SVG/1.1/DTD/svg11.dtd'>
<svg clip-rule="evenodd" fill-rule="evenodd" stroke-linecap="round" stroke-linejoin="round" stroke-miterlimit="10" version="1.1" viewBox="0 0 32 32" xml:space="preserve" xmlns="http://www.w3.org/2000/svg">
<metadata>
<rdf:RDF xmlns:cc="http://web.resource.org/cc/" xmlns:dc="http://purl.org/dc/elements/1.1/" xmlns:rdf="http://www.w3.org/1999/02/22-rdf-syntax-ns#">

     <rdf:Description rdf:about="">
       <dc:title>Mutant Standard emoji 2023.12</dc:title>
     </rdf:Description>

    <cc:work rdf:about="">
        <cc:license rdf:resource="http://creativecommons.org/licenses/by-nc-sa/4.0/"/>
        <cc:attributionName>Caius Nocturne</cc:attributionName>
        <cc:attributionURL>http://mutant.tech/</cc:attributionURL>
    </cc:work>

</rdf:RDF>
</metadata>
<rect id="undefined_character" width="32" height="32" fill="none"/><g id="outline"><path d="m3 15 13-13 13 13v2l-13 13-13-13v-2z" fill="none" stroke="#000" stroke-width="4px"/></g><g id="emoji"><path d="m3 17v-2l13-11 13 11v2l-13 13-13-13z" fill="#bebebe"/><path d="m29 15-13 13-13-13 13-13 13 13z" fill="#fff"/><path d="m14.315 18.966c-0.075 0-0.139-0.026-0.191-0.078-0.053-0.053-0.079-0.116-0.079-0.191v-0.719c0-0.75 0.191-1.353 0.573-1.809 0.382-0.457 0.933-0.941 1.652-1.45 0.584-0.404 1.018-0.764 1.303-1.079 0.285-0.314 0.427-0.696 0.427-1.146 0-0.479-0.18-0.865-0.539-1.157-0.36-0.292-0.832-0.438-1.416-0.438-0.629 0-1.135 0.157-1.517 0.472-0.382 0.314-0.573 0.719-0.573 1.213v0.36c0 0.165-0.09 0.247-0.27 0.247l-2.629-0.112c-0.18 0-0.269-0.083-0.269-0.248v-0.247c0-0.899 0.224-1.696 0.674-2.393 0.449-0.697 1.075-1.236 1.876-1.618 0.802-0.382 1.727-0.573 2.775-0.573 1.019 0 1.914 0.184 2.686 0.551 0.771 0.367 1.367 0.88 1.786 1.539 0.42 0.659 0.629 1.423 0.629 2.292 0 0.659-0.116 1.225-0.348 1.697s-0.513 0.857-0.843 1.157c-0.329 0.3-0.749 0.629-1.258 0.989-0.539 0.374-0.936 0.696-1.191 0.966s-0.382 0.599-0.382 0.989v0.517c0 0.075-0.026 0.138-0.079 0.191-0.052 0.052-0.116 0.078-0.191 0.078h-2.606zm1.213 5.034c-0.509 0-0.932-0.169-1.27-0.506-0.337-0.337-0.505-0.76-0.505-1.269 0-0.51 0.165-0.929 0.494-1.259 0.33-0.329 0.757-0.494 1.281-0.494s0.948 0.161 1.27 0.483 0.483 0.745 0.483 1.27c0 0.509-0.165 0.932-0.494 1.269-0.33 0.337-0.75 0.506-1.259 0.506z" fill="#171717" fill-rule="nonzero"/></g></svg>
