<?xml version="1.0" encoding="UTF-8"?>
<!DOCTYPE svg  PUBLIC '-//W3C//DTD SVG 1.1//EN'  'http://www.w3.org/Graphics/SVG/1.1/DTD/svg11.dtd'>
<svg clip-rule="evenodd" fill-rule="evenodd" stroke-linejoin="round" stroke-miterlimit="1.4142" version="1.1" viewBox="0 0 32 32" xml:space="preserve" xmlns="http://www.w3.org/2000/svg">
<metadata>
<rdf:RDF xmlns:cc="http://web.resource.org/cc/" xmlns:dc="http://purl.org/dc/elements/1.1/" xmlns:rdf="http://www.w3.org/1999/02/22-rdf-syntax-ns#">

     <rdf:Description rdf:about="">
       <dc:title>Mutant Standard S3</dc:title>
     </rdf:Description>

    <cc:work rdf:about="">
        <cc:license rdf:resource="http://creativecommons.org/licenses/by-nc-sa/4.0/"/>
        <cc:attributionName>Dzuk</cc:attributionName>
        <cc:attributionURL>http://mutant.tech/</cc:attributionURL>
    </cc:work>

</rdf:RDF>
</metadata>
<rect id="cursed_eyebrows" width="32" height="32" fill="none"/><clipPath id="_clip1"><rect width="32" height="32"/></clipPath><g clip-path="url(#_clip1)"><g id="outline"><path d="m16.199 1e-3 0.198 4e-3 0.198 6e-3 0.198 9e-3 0.198 0.011 0.197 0.013 0.197 0.016 0.196 0.018 0.196 0.021 0.196 0.023 0.195 0.025 0.195 0.028 0.194 0.031 0.193 0.032 0.194 0.035 0.192 0.037 0.192 0.04 0.191 0.042 0.191 0.044 0.19 0.047 0.189 0.048 0.189 0.051 0.188 0.054 0.187 0.056 0.187 0.058 0.186 0.06 0.185 0.062 0.184 0.065 0.183 0.067 0.183 0.069 0.181 0.071 0.181 0.074 0.18 0.076 0.179 0.078 0.178 0.08 0.177 0.082 0.175 0.085 0.175 0.086 0.174 0.089 0.173 0.091 0.172 0.093 0.171 0.095 0.169 0.097 0.169 0.1 0.167 0.101 0.166 0.104 0.165 0.105 0.164 0.108 0.162 0.11 0.162 0.112 0.159 0.114 0.159 0.116 0.157 0.118 0.156 0.119 0.155 0.122 0.153 0.124 0.152 0.126 0.15 0.128 0.149 0.13 0.148 0.132 0.146 0.134 0.144 0.136 0.143 0.138 0.142 0.139 0.139 0.142 0.138 0.143 0.136 0.144 0.134 0.146 0.132 0.148 0.13 0.149 0.128 0.15 0.126 0.152 0.124 0.153 0.122 0.155 0.119 0.156 0.118 0.157 0.116 0.159 0.114 0.16 0.112 0.161 0.11 0.162 0.108 0.164 0.105 0.165 0.104 0.166 0.101 0.167 0.1 0.169 0.097 0.169 0.095 0.171 0.093 0.172 0.091 0.173 0.089 0.174 0.086 0.175 0.085 0.175 0.082 0.177 0.08 0.178 0.078 0.179 0.076 0.18 0.074 0.181 0.071 0.181 0.069 0.183 0.067 0.183 0.065 0.184 0.062 0.185 0.06 0.186 0.058 0.187 0.056 0.187 0.054 0.188 0.051 0.189 0.048 0.189 0.047 0.19 0.044 0.191 0.042 0.191 0.04 0.192 0.037 0.192 0.035 0.194 0.032 0.193 0.031 0.194 0.028 0.195 0.025 0.195 0.023 0.196 0.021 0.196 0.018 0.196 0.016 0.197 0.013 0.197 0.011 0.198 9e-3 0.198 6e-3 0.198 4e-3 0.198 1e-3 0.193v3.012l-1e-3 0.162-3e-3 0.167-5e-3 0.166-8e-3 0.166-9e-3 0.166-0.012 0.165-0.013 0.165-0.016 0.164-0.018 0.163-0.019 0.163-0.022 0.163-0.024 0.161-0.025 0.161-0.028 0.161-0.03 0.16-0.031 0.159-0.034 0.158-0.035 0.158-0.037 0.157-0.039 0.156-0.041 0.156-0.043 0.155-0.045 0.154-0.047 0.153-0.048 0.153-0.05 0.151-0.053 0.151-0.053 0.15-0.056 0.149-0.057 0.148-0.12 0.294-0.063 0.145-0.064 0.145-0.066 0.143-0.068 0.143-0.069 0.142-0.071 0.141-0.073 0.139-0.074 0.139-0.076 0.138-0.078 0.136-0.079 0.136-0.08 0.134-0.082 0.134-0.084 0.132-0.086 0.132-0.086 0.13-0.089 0.129-0.09 0.128-0.091 0.127-0.093 0.125-0.094 0.125-0.096 0.123-0.097 0.122-0.098 0.121-0.1 0.12-0.102 0.118-0.102 0.117-0.105 0.116-0.105 0.115-0.107 0.113-0.108 0.113-0.22 0.22-0.113 0.108-0.113 0.107-0.115 0.105-0.116 0.105-0.117 0.102-0.118 0.102-0.12 0.1-0.121 0.098-0.122 0.097-0.123 0.096-0.125 0.094-0.125 0.093-0.127 0.092-0.128 0.089-0.129 0.089-0.13 0.086-0.132 0.086-0.132 0.084-0.134 0.082-0.134 0.08-0.136 0.079-0.136 0.078-0.138 0.076-0.139 0.074-0.139 0.073-0.141 0.071-0.142 0.069-0.143 0.068-0.143 0.066-0.145 0.064-0.145 0.063-0.294 0.12-0.148 0.057-0.149 0.056-0.15 0.053-0.151 0.053-0.151 0.05-0.153 0.048-0.153 0.047-0.154 0.045-0.155 0.043-0.156 0.041-0.156 0.039-0.157 0.037-0.158 0.035-0.158 0.034-0.159 0.031-0.16 0.03-0.161 0.028-0.161 0.025-0.162 0.024-0.162 0.022-0.163 0.019-0.163 0.018-0.164 0.016-0.165 0.013-0.165 0.012-0.166 9e-3 -0.166 8e-3 -0.166 5e-3 -0.167 3e-3 -0.162 1e-3h-6.012l-0.162-1e-3 -0.167-3e-3 -0.166-5e-3 -0.166-8e-3 -0.166-9e-3 -0.165-0.012-0.165-0.013-0.164-0.016-0.163-0.018-0.163-0.019-0.162-0.022-0.162-0.024-0.161-0.025-0.161-0.028-0.16-0.03-0.159-0.031-0.158-0.034-0.158-0.035-0.157-0.037-0.156-0.039-0.156-0.041-0.155-0.043-0.154-0.045-0.153-0.047-0.153-0.048-0.151-0.05-0.151-0.053-0.15-0.053-0.149-0.056-0.148-0.057-0.294-0.12-0.145-0.063-0.145-0.064-0.143-0.066-0.143-0.068-0.142-0.069-0.141-0.071-0.139-0.073-0.139-0.074-0.138-0.076-0.136-0.078-0.136-0.079-0.134-0.08-0.134-0.082-0.132-0.084-0.132-0.086-0.13-0.086-0.129-0.089-0.128-0.089-0.127-0.092-0.125-0.093-0.125-0.094-0.123-0.096-0.122-0.097-0.121-0.098-0.12-0.1-0.118-0.102-0.117-0.102-0.116-0.105-0.115-0.105-0.113-0.107-0.113-0.108-0.22-0.22-0.108-0.113-0.107-0.113-0.105-0.115-0.105-0.116-0.102-0.117-0.102-0.118-0.1-0.12-0.098-0.121-0.097-0.122-0.096-0.123-0.094-0.125-0.093-0.125-0.091-0.127-0.09-0.128-0.089-0.129-0.086-0.13-0.086-0.132-0.084-0.132-0.082-0.134-0.08-0.134-0.079-0.136-0.078-0.136-0.076-0.138-0.074-0.139-0.073-0.139-0.071-0.141-0.069-0.142-0.068-0.143-0.066-0.143-0.064-0.145-0.063-0.145-0.12-0.294-0.057-0.148-0.056-0.149-0.053-0.15-0.053-0.151-0.05-0.151-0.048-0.153-0.047-0.153-0.045-0.154-0.043-0.155-0.041-0.156-0.039-0.156-0.037-0.157-0.035-0.158-0.034-0.158-0.031-0.159-0.03-0.16-0.028-0.161-0.025-0.161-0.024-0.161-0.022-0.163-0.019-0.163-0.018-0.163-0.016-0.164-0.013-0.165-0.012-0.165-9e-3 -0.166-8e-3 -0.166-5e-3 -0.166-3e-3 -0.167-1e-3 -0.162v-3.012l1e-3 -0.2 4e-3 -0.206 7e-3 -0.205 9e-3 -0.205 0.011-0.204 0.015-0.203 0.016-0.203 0.019-0.201 0.022-0.202 0.024-0.2 0.027-0.2 0.029-0.199 0.032-0.198 0.034-0.198 0.036-0.197 0.039-0.195 0.041-0.195 0.044-0.195 0.046-0.193 0.048-0.192 0.05-0.192 0.053-0.19 0.055-0.19 0.058-0.188 0.059-0.188 0.062-0.186 0.064-0.186 0.066-0.184 0.069-0.184 0.07-0.182 0.073-0.181 0.075-0.181 0.077-0.179 0.079-0.177 0.081-0.177 0.084-0.176 0.085-0.174 0.087-0.173 0.09-0.172 0.091-0.171 0.094-0.169 0.095-0.169 0.097-0.166 0.1-0.166 0.101-0.164 0.103-0.163 0.105-0.162 0.107-0.16 0.108-0.159 0.111-0.158 0.112-0.156 0.115-0.154 0.116-0.153 0.117-0.152 0.12-0.151 0.121-0.148 0.123-0.148 0.125-0.145 0.127-0.145 0.128-0.142 0.13-0.142 0.131-0.139 0.133-0.138 0.135-0.137 0.137-0.135 0.138-0.133 0.139-0.131 0.141-0.13 0.143-0.128 0.145-0.127 0.145-0.125 0.148-0.123 0.148-0.121 0.151-0.12 0.152-0.117 0.153-0.116 0.154-0.115 0.156-0.112 0.158-0.111 0.159-0.108 0.16-0.107 0.162-0.105 0.163-0.103 0.164-0.101 0.166-0.1 0.166-0.097 0.169-0.095 0.169-0.094 0.171-0.091 0.172-0.09 0.173-0.087 0.174-0.085 0.176-0.084 0.177-0.081 0.177-0.079 0.179-0.077 0.181-0.075 0.181-0.073 0.182-0.07 0.184-0.069 0.184-0.066 0.186-0.064 0.186-0.062 0.188-0.059 0.188-0.058 0.19-0.055 0.19-0.053 0.192-0.05 0.192-0.048 0.193-0.046 0.195-0.044 0.195-0.041 0.195-0.039 0.197-0.036 0.198-0.034 0.198-0.032 0.199-0.029 0.2-0.027 0.2-0.024 0.202-0.022 0.201-0.019 0.203-0.016 0.203-0.015 0.204-0.011 0.205-9e-3 0.205-7e-3 0.206-4e-3 0.2-1e-3h0.012l0.193 1e-3zm-0.355 4-0.155 3e-3 -0.154 5e-3 -0.154 7e-3 -0.154 8e-3 -0.152 0.011-0.153 0.013-0.151 0.014-0.151 0.016-0.151 0.019-0.15 0.02-0.149 0.021-0.149 0.024-0.148 0.026-0.147 0.027-0.147 0.029-0.146 0.031-0.145 0.032-0.145 0.035-0.143 0.036-0.144 0.038-0.142 0.039-0.142 0.041-0.141 0.043-0.141 0.045-0.139 0.046-0.139 0.048-0.138 0.05-0.137 0.051-0.137 0.053-0.135 0.054-0.135 0.056-0.134 0.058-0.134 0.059-0.132 0.061-0.131 0.062-0.131 0.064-0.13 0.066-0.129 0.067-0.128 0.068-0.127 0.07-0.126 0.072-0.125 0.073-0.124 0.074-0.123 0.076-0.122 0.077-0.122 0.079-0.12 0.08-0.119 0.082-0.118 0.083-0.117 0.084-0.117 0.086-0.115 0.087-0.114 0.089-0.112 0.089-0.112 0.091-0.111 0.093-0.109 0.094-0.109 0.095-0.107 0.096-0.106 0.098-0.105 0.098-0.104 0.1-0.204 0.204-0.1 0.104-0.098 0.105-0.098 0.106-0.096 0.107-0.095 0.109-0.094 0.109-0.093 0.111-0.091 0.112-0.089 0.112-0.089 0.114-0.087 0.115-0.086 0.116-0.084 0.118-0.083 0.118-0.082 0.119-0.08 0.12-0.079 0.122-0.077 0.122-0.076 0.123-0.074 0.124-0.073 0.125-0.072 0.126-0.07 0.127-0.068 0.128-0.067 0.129-0.066 0.13-0.064 0.131-0.062 0.131-0.061 0.132-0.059 0.134-0.058 0.134-0.056 0.135-0.054 0.135-0.053 0.137-0.051 0.137-0.05 0.138-0.048 0.139-0.046 0.139-0.045 0.141-0.043 0.141-0.041 0.142-0.039 0.142-0.038 0.144-0.036 0.143-0.035 0.145-0.032 0.145-0.031 0.146-0.029 0.147-0.027 0.147-0.026 0.148-0.024 0.149-0.021 0.149-0.02 0.15-0.019 0.151-0.016 0.151-0.014 0.151-0.013 0.153-0.011 0.152-8e-3 0.154-7e-3 0.154-5e-3 0.154-3e-3 0.155-1e-3 0.162v2.988l1e-3 0.123 2e-3 0.116 4e-3 0.116 5e-3 0.116 6e-3 0.115 8e-3 0.115 0.01 0.114 0.011 0.114 0.012 0.113 0.013 0.113 0.015 0.112 0.017 0.112 0.018 0.112 0.019 0.111 0.02 0.11 0.022 0.11 0.023 0.109 0.024 0.109 0.026 0.109 0.027 0.108 0.058 0.214 0.031 0.106 0.032 0.106 0.068 0.21 0.036 0.104 0.038 0.104 0.038 0.102 0.04 0.103 0.04 0.102 0.042 0.101 0.088 0.2 0.046 0.099 0.047 0.099 0.047 0.098 0.1 0.194 0.051 0.096 0.053 0.095 0.053 0.094 0.055 0.094 0.056 0.093 0.057 0.093 0.058 0.091 0.059 0.091 0.06 0.091 0.061 0.089 0.062 0.089 0.064 0.088 0.064 0.087 0.065 0.086 0.134 0.17 0.068 0.084 0.07 0.083 0.07 0.082 0.071 0.081 0.073 0.081 0.073 0.08 0.074 0.078 0.075 0.078 0.076 0.077 0.077 0.076 0.078 0.075 0.078 0.074 0.08 0.073 0.081 0.073 0.081 0.071 0.082 0.07 0.083 0.07 0.084 0.068 0.17 0.134 0.086 0.065 0.087 0.064 0.088 0.064 0.089 0.062 0.089 0.061 0.091 0.06 0.091 0.059 0.091 0.058 0.093 0.057 0.093 0.056 0.094 0.055 0.094 0.053 0.095 0.053 0.096 0.051 0.194 0.1 0.098 0.048 0.198 0.092 0.2 0.088 0.101 0.042 0.102 0.04 0.103 0.04 0.102 0.038 0.104 0.038 0.104 0.036 0.21 0.068 0.106 0.032 0.106 0.031 0.214 0.058 0.108 0.027 0.109 0.026 0.109 0.024 0.109 0.023 0.11 0.022 0.111 0.02 0.111 0.019 0.111 0.018 0.112 0.017 0.112 0.015 0.113 0.013 0.113 0.012 0.114 0.011 0.114 0.01 0.115 8e-3 0.115 6e-3 0.116 5e-3 0.116 4e-3 0.116 2e-3 0.123 1e-3h5.988l0.123-1e-3 0.116-2e-3 0.116-4e-3 0.116-5e-3 0.115-6e-3 0.115-8e-3 0.114-0.01 0.114-0.011 0.113-0.012 0.113-0.013 0.112-0.015 0.112-0.017 0.111-0.018 0.111-0.019 0.111-0.02 0.11-0.022 0.109-0.023 0.109-0.024 0.109-0.026 0.108-0.027 0.214-0.058 0.106-0.031 0.106-0.032 0.21-0.068 0.104-0.036 0.104-0.038 0.102-0.038 0.103-0.04 0.102-0.04 0.101-0.042 0.2-0.088 0.198-0.092 0.098-0.048 0.194-0.1 0.096-0.051 0.095-0.053 0.094-0.053 0.094-0.055 0.093-0.056 0.093-0.057 0.091-0.058 0.091-0.059 0.091-0.06 0.089-0.061 0.089-0.062 0.088-0.064 0.087-0.064 0.086-0.065 0.17-0.134 0.084-0.068 0.083-0.07 0.082-0.07 0.081-0.071 0.081-0.073 0.08-0.073 0.078-0.074 0.078-0.075 0.077-0.076 0.076-0.077 0.075-0.078 0.074-0.078 0.073-0.08 0.073-0.081 0.071-0.081 0.07-0.082 0.07-0.083 0.068-0.084 0.134-0.17 0.065-0.086 0.064-0.087 0.064-0.088 0.062-0.089 0.061-0.089 0.06-0.091 0.059-0.091 0.058-0.091 0.057-0.093 0.056-0.093 0.055-0.094 0.053-0.094 0.053-0.095 0.051-0.096 0.1-0.194 0.047-0.098 0.047-0.099 0.046-0.099 0.088-0.2 0.042-0.102 0.04-0.101 0.04-0.103 0.038-0.102 0.038-0.104 0.036-0.104 0.068-0.21 0.032-0.106 0.031-0.106 0.058-0.214 0.027-0.108 0.026-0.109 0.024-0.109 0.023-0.109 0.022-0.11 0.02-0.11 0.019-0.111 0.018-0.112 0.017-0.112 0.015-0.112 0.013-0.113 0.012-0.113 0.011-0.114 0.01-0.114 8e-3 -0.115 6e-3 -0.115 5e-3 -0.116 4e-3 -0.116 2e-3 -0.116 1e-3 -0.123v-2.988l-1e-3 -0.155-3e-3 -0.149-4e-3 -0.149-7e-3 -0.148-8e-3 -0.148-0.01-0.148-0.012-0.148-0.014-0.147-0.015-0.147-0.018-0.147-0.019-0.146-0.021-0.146-0.022-0.146-0.025-0.145-0.026-0.145-0.028-0.144-0.029-0.144-0.032-0.143-0.033-0.143-0.035-0.143-0.037-0.142-0.038-0.142-0.04-0.141-0.042-0.14-0.043-0.14-0.045-0.139-0.047-0.139-0.049-0.138-0.05-0.138-0.052-0.136-0.053-0.137-0.055-0.135-0.057-0.135-0.059-0.134-0.06-0.134-0.062-0.132-0.063-0.132-0.065-0.132-0.067-0.13-0.068-0.13-0.07-0.129-0.071-0.128-0.073-0.127-0.074-0.126-0.076-0.126-0.078-0.124-0.079-0.124-0.081-0.123-0.082-0.121-0.084-0.121-0.086-0.12-0.087-0.119-0.088-0.118-0.09-0.117-0.092-0.116-0.093-0.115-0.094-0.114-0.096-0.113-0.097-0.111-0.099-0.111-0.101-0.11-0.102-0.108-0.103-0.107-0.105-0.106-0.106-0.105-0.107-0.103-0.108-0.102-0.11-0.101-0.111-0.099-0.111-0.097-0.113-0.096-0.114-0.094-0.115-0.093-0.116-0.092-0.117-0.09-0.118-0.088-0.119-0.087-0.12-0.086-0.242-0.166-0.123-0.081-0.124-0.079-0.124-0.078-0.126-0.076-0.126-0.074-0.127-0.073-0.128-0.071-0.129-0.07-0.13-0.068-0.13-0.067-0.132-0.065-0.132-0.063-0.132-0.062-0.134-0.06-0.134-0.059-0.135-0.057-0.135-0.055-0.137-0.053-0.136-0.052-0.138-0.05-0.138-0.049-0.139-0.047-0.139-0.045-0.14-0.043-0.14-0.042-0.141-0.04-0.142-0.038-0.142-0.037-0.143-0.035-0.143-0.033-0.143-0.032-0.144-0.029-0.144-0.028-0.145-0.026-0.145-0.025-0.146-0.022-0.146-0.021-0.146-0.019-0.147-0.018-0.147-0.015-0.147-0.014-0.148-0.012-0.148-0.01-0.148-8e-3 -0.148-7e-3 -0.149-4e-3 -0.149-3e-3 -0.149-1e-3 -0.156 1e-3z"/></g><g id="emoji"><path d="m30 16c0-3.713-1.475-7.274-4.101-9.899-2.625-2.626-6.186-4.101-9.899-4.101-7.732 0-14 6.268-14 14v3c0 6.075 4.925 11 11 11h6c6.075 0 11-4.925 11-11v-3z" fill="#fbc546"/><path d="m11 12h-3v4.5c0 0.828 0.672 1.5 1.5 1.5s1.5-0.672 1.5-1.5v-4.5z"/><path d="m24 13.498c0-0.397-0.158-0.778-0.439-1.059s-0.662-0.439-1.059-0.439h-4e-3c-0.397 0-0.778 0.158-1.059 0.439s-0.439 0.662-0.439 1.059v3.004c0 0.397 0.158 0.778 0.439 1.059s0.662 0.439 1.059 0.439h4e-3c0.397 0 0.778-0.158 1.059-0.439s0.439-0.662 0.439-1.059v-3.004z"/><path d="m10.798 22.052 0.054 0.089 0.053 0.084 0.055 0.083 0.055 0.082 0.057 0.081 0.059 0.08 0.059 0.078 0.061 0.078 0.061 0.076 0.063 0.076 0.064 0.074 0.065 0.073 0.066 0.072 0.067 0.071 0.069 0.069 0.069 0.068 0.07 0.068 0.072 0.066 0.072 0.064 0.073 0.064 0.075 0.062 0.075 0.061 0.076 0.06 0.077 0.059 0.078 0.057 0.079 0.056 0.079 0.055 0.081 0.054 0.081 0.052 0.082 0.051 0.083 0.05 0.084 0.048 0.084 0.047 0.086 0.045 0.085 0.045 0.174 0.084 0.088 0.04 0.089 0.039 0.089 0.037 0.09 0.036 0.091 0.034 0.091 0.033 0.092 0.032 0.092 0.03 0.093 0.029 0.093 0.027 0.094 0.026 0.094 0.024 0.095 0.023 0.095 0.021 0.096 0.02 0.096 0.018 0.096 0.017 0.097 0.015 0.097 0.013 0.098 0.012 0.098 0.011 0.098 9e-3 0.099 7e-3 0.099 6e-3 0.099 4e-3 0.1 2e-3 0.1 1e-3 0.1-1e-3 0.1-2e-3 0.099-4e-3 0.099-6e-3 0.099-7e-3 0.098-9e-3 0.098-0.011 0.098-0.012 0.097-0.013 0.097-0.015 0.096-0.017 0.096-0.018 0.096-0.02 0.095-0.021 0.095-0.023 0.094-0.024 0.094-0.026 0.093-0.027 0.093-0.029 0.092-0.03 0.092-0.032 0.091-0.033 0.091-0.034 0.09-0.036 0.089-0.037 0.089-0.039 0.088-0.04 0.174-0.084 0.085-0.045 0.086-0.045 0.084-0.047 0.084-0.048 0.083-0.05 0.082-0.051 0.081-0.052 0.081-0.054 0.079-0.055 0.079-0.056 0.078-0.057 0.077-0.059 0.076-0.06 0.075-0.061 0.075-0.062 0.073-0.064 0.072-0.064 0.072-0.066 0.07-0.068 0.069-0.068 0.069-0.069 0.067-0.071 0.066-0.072 0.065-0.073 0.064-0.074 0.063-0.076 0.061-0.076 0.061-0.078 0.059-0.078 0.059-0.08 0.057-0.081 0.055-0.082 0.055-0.083 0.053-0.084 0.054-0.089 1.232-2.052h1.566l0.078 3e-3 0.078 9e-3 0.077 0.016 0.076 0.021 0.074 0.027 0.071 0.033 0.068 0.038 0.066 0.044 0.061 0.049 0.058 0.053 0.053 0.058 0.049 0.061 0.044 0.066 0.038 0.068 0.033 0.071 0.027 0.074 0.021 0.076 0.016 0.077 9e-3 0.078 3e-3 0.078-3e-3 0.078-9e-3 0.078-0.016 0.077-0.021 0.076-0.027 0.074-0.033 0.071-0.038 0.068-0.044 0.066-0.049 0.061-0.053 0.058-0.058 0.053-0.061 0.049-0.066 0.044-0.068 0.038-0.071 0.033-0.074 0.027-0.076 0.021-0.077 0.016-0.078 9e-3 -0.078 3e-3h-0.434l-0.653 1.088-0.067 0.11-0.071 0.112-0.072 0.11-0.074 0.109-0.076 0.108-0.078 0.106-0.078 0.104-0.081 0.103-0.082 0.102-0.084 0.1-0.085 0.099-0.086 0.097-0.088 0.096-0.09 0.094-0.091 0.092-0.092 0.091-0.093 0.09-0.095 0.088-0.096 0.086-0.098 0.084-0.099 0.083-0.1 0.082-0.101 0.079-0.102 0.078-0.104 0.076-0.105 0.075-0.106 0.073-0.107 0.071-0.108 0.07-0.109 0.067-0.11 0.066-0.111 0.064-0.113 0.063-0.113 0.06-0.114 0.059-0.115 0.057-0.116 0.055-0.117 0.054-0.118 0.051-0.119 0.05-0.12 0.047-0.12 0.046-0.121 0.044-0.122 0.042-0.123 0.04-0.123 0.038-0.124 0.037-0.125 0.034-0.125 0.032-0.127 0.03-0.126 0.029-0.127 0.026-0.128 0.024-0.129 0.022-0.129 0.02-0.129 0.018-0.13 0.016-0.13 0.014-0.131 0.012-0.131 0.01-0.132 7e-3 -0.132 6e-3 -0.132 3e-3 -0.128 1e-3h-0.01l-0.128-1e-3 -0.132-3e-3 -0.132-6e-3 -0.132-7e-3 -0.131-0.01-0.131-0.012-0.13-0.014-0.13-0.016-0.129-0.018-0.129-0.02-0.129-0.022-0.128-0.024-0.127-0.026-0.126-0.029-0.127-0.03-0.125-0.032-0.125-0.034-0.124-0.037-0.123-0.038-0.123-0.04-0.122-0.042-0.121-0.044-0.12-0.046-0.12-0.047-0.119-0.05-0.118-0.051-0.117-0.054-0.116-0.055-0.115-0.057-0.114-0.059-0.113-0.06-0.113-0.063-0.111-0.064-0.11-0.066-0.109-0.067-0.108-0.07-0.107-0.071-0.106-0.073-0.105-0.075-0.104-0.076-0.102-0.078-0.101-0.079-0.1-0.082-0.099-0.083-0.098-0.084-0.096-0.086-0.095-0.088-0.093-0.09-0.092-0.091-0.091-0.092-0.09-0.094-0.088-0.096-0.086-0.097-0.085-0.099-0.084-0.1-0.082-0.102-0.081-0.103-0.078-0.104-0.078-0.106-0.076-0.108-0.074-0.109-0.072-0.11-0.071-0.112-0.067-0.11-0.653-1.088h-0.434l-0.078-3e-3 -0.078-9e-3 -0.077-0.016-0.076-0.021-0.074-0.027-0.071-0.033-0.068-0.038-0.066-0.044-0.061-0.049-0.058-0.053-0.053-0.058-0.049-0.061-0.044-0.066-0.038-0.068-0.033-0.071-0.027-0.074-0.021-0.076-0.016-0.077-9e-3 -0.078-3e-3 -0.078 3e-3 -0.078 9e-3 -0.078 0.016-0.077 0.021-0.076 0.027-0.074 0.033-0.071 0.038-0.068 0.044-0.066 0.049-0.061 0.053-0.058 0.058-0.053 0.061-0.049 0.066-0.044 0.068-0.038 0.071-0.033 0.074-0.027 0.076-0.021 0.077-0.016 0.078-9e-3 0.078-3e-3h1.566l1.232 2.052z" fill="#593604"/></g><path d="m5 15v-0.586c0-0.905 0.36-1.774 1-2.414s1.509-1 2.414-1h0.937c0.43 0 0.857 0.069 1.265 0.205 0.708 0.236 1.824 0.608 2.23 0.744 0.102 0.034 0.209 0.051 0.316 0.051h1.838v1c0 0.552-0.448 1-1 1h-1.261c-0.491 0-0.98-0.06-1.456-0.179-0.492-0.123-1.163-0.291-1.771-0.443-0.963-0.241-1.983-0.064-2.809 0.486-0.811 0.541-1.703 1.136-1.703 1.136z"/><path d="m27 11v-1.586c0-0.905-0.36-1.774-1-2.414s-1.509-1-2.414-1h-0.087c-0.96 0-1.88 0.381-2.559 1.06l-1.647 1.647c-0.188 0.188-0.442 0.293-0.707 0.293h-1.586v1c0 0.552 0.448 1 1 1h0.028c1.28 0 2.526-0.415 3.55-1.183 0 0 0-1e-3 1e-3 -1e-3 1.389-1.042 3.333-0.904 4.561 0.324l0.86 0.86z"/></g></svg>
