<?xml version="1.0" encoding="UTF-8"?>
<!DOCTYPE svg  PUBLIC '-//W3C//DTD SVG 1.1//EN'  'http://www.w3.org/Graphics/SVG/1.1/DTD/svg11.dtd'>
<svg clip-rule="evenodd" fill-rule="evenodd" stroke-linejoin="round" stroke-miterlimit="1.4142" version="1.1" viewBox="0 0 32 32" xml:space="preserve" xmlns="http://www.w3.org/2000/svg">
<metadata>
<rdf:RDF xmlns:cc="http://web.resource.org/cc/" xmlns:dc="http://purl.org/dc/elements/1.1/" xmlns:rdf="http://www.w3.org/1999/02/22-rdf-syntax-ns#">

     <rdf:Description rdf:about="">
       <dc:title>Mutant Standard S3</dc:title>
     </rdf:Description>

    <cc:work rdf:about="">
        <cc:license rdf:resource="http://creativecommons.org/licenses/by-nc-sa/4.0/"/>
        <cc:attributionName>Dzuk</cc:attributionName>
        <cc:attributionURL>http://mutant.tech/</cc:attributionURL>
    </cc:work>

</rdf:RDF>
</metadata>
<rect id="rave" width="32" height="32" fill="none"/><clipPath id="_clip1"><rect width="32" height="32"/></clipPath><g clip-path="url(#_clip1)"><g id="outline"><path d="m16.206 1e-3 0.206 4e-3 0.205 7e-3 0.205 9e-3 0.204 0.011 0.203 0.015 0.203 0.016 0.202 0.019 0.201 0.022 0.2 0.024 0.2 0.027 0.199 0.029 0.198 0.032 0.198 0.034 0.197 0.036 0.195 0.039 0.195 0.041 0.195 0.044 0.193 0.046 0.192 0.048 0.192 0.05 0.19 0.053 0.19 0.055 0.188 0.058 0.188 0.059 0.186 0.062 0.186 0.064 0.184 0.066 0.184 0.069 0.182 0.07 0.181 0.073 0.181 0.075 0.179 0.077 0.177 0.079 0.177 0.081 0.176 0.084 0.174 0.085 0.173 0.087 0.172 0.09 0.171 0.091 0.169 0.094 0.169 0.095 0.166 0.097 0.166 0.1 0.164 0.101 0.163 0.103 0.162 0.105 0.16 0.107 0.159 0.108 0.158 0.111 0.156 0.112 0.154 0.115 0.153 0.116 0.152 0.117 0.151 0.12 0.148 0.121 0.148 0.123 0.145 0.125 0.145 0.127 0.142 0.128 0.142 0.13 0.139 0.131 0.138 0.133 0.137 0.135 0.135 0.137 0.133 0.138 0.131 0.139 0.13 0.142 0.128 0.142 0.127 0.145 0.125 0.145 0.123 0.148 0.121 0.148 0.12 0.151 0.117 0.152 0.116 0.153 0.115 0.154 0.112 0.156 0.111 0.158 0.108 0.159 0.107 0.16 0.105 0.162 0.103 0.163 0.101 0.164 0.1 0.166 0.097 0.166 0.095 0.169 0.094 0.169 0.091 0.171 0.09 0.172 0.087 0.173 0.085 0.174 0.084 0.176 0.081 0.177 0.079 0.177 0.077 0.179 0.075 0.181 0.073 0.181 0.07 0.182 0.069 0.184 0.066 0.184 0.064 0.186 0.062 0.186 0.059 0.188 0.058 0.188 0.055 0.19 0.053 0.19 0.05 0.192 0.048 0.192 0.046 0.193 0.044 0.195 0.041 0.195 0.039 0.195 0.036 0.197 0.034 0.198 0.032 0.198 0.029 0.199 0.027 0.2 0.024 0.2 0.022 0.202 0.019 0.201 0.016 0.203 0.015 0.203 0.011 0.204 9e-3 0.205 7e-3 0.205 4e-3 0.206 1e-3 0.2v0.012l-1e-3 0.2-4e-3 0.206-7e-3 0.205-9e-3 0.205-0.011 0.204-0.015 0.203-0.016 0.203-0.019 0.201-0.022 0.202-0.024 0.2-0.027 0.2-0.029 0.199-0.032 0.198-0.034 0.198-0.036 0.197-0.039 0.195-0.041 0.195-0.044 0.195-0.046 0.193-0.048 0.192-0.05 0.192-0.053 0.19-0.055 0.19-0.058 0.188-0.059 0.188-0.062 0.186-0.064 0.186-0.066 0.184-0.069 0.184-0.07 0.182-0.073 0.181-0.075 0.181-0.077 0.179-0.079 0.177-0.081 0.177-0.084 0.176-0.085 0.174-0.087 0.173-0.09 0.172-0.091 0.171-0.094 0.169-0.095 0.169-0.097 0.166-0.1 0.166-0.101 0.164-0.103 0.163-0.105 0.162-0.107 0.16-0.108 0.159-0.111 0.157-0.112 0.157-0.115 0.154-0.116 0.153-0.117 0.152-0.12 0.151-0.121 0.148-0.123 0.148-0.125 0.145-0.127 0.145-0.128 0.142-0.13 0.142-0.131 0.139-0.133 0.138-0.135 0.137-0.137 0.135-0.138 0.133-0.139 0.131-0.142 0.13-0.142 0.128-0.145 0.127-0.145 0.125-0.148 0.123-0.148 0.121-0.151 0.12-0.152 0.117-0.153 0.116-0.154 0.115-0.157 0.112-0.157 0.111-0.159 0.108-0.16 0.107-0.162 0.105-0.163 0.103-0.164 0.101-0.166 0.1-0.166 0.097-0.169 0.095-0.169 0.094-0.171 0.091-0.172 0.09-0.173 0.087-0.174 0.085-0.176 0.083-0.177 0.082-0.177 0.079-0.179 0.077-0.181 0.075-0.181 0.073-0.182 0.07-0.184 0.069-0.184 0.066-0.186 0.064-0.186 0.062-0.188 0.059-0.188 0.058-0.19 0.055-0.19 0.053-0.192 0.05-0.192 0.048-0.193 0.046-0.195 0.044-0.195 0.041-0.195 0.039-0.197 0.036-0.198 0.034-0.198 0.032-0.199 0.029-0.2 0.027-0.2 0.024-0.202 0.022-0.201 0.019-0.203 0.016-0.203 0.015-0.204 0.011-0.205 9e-3 -0.205 7e-3 -0.206 4e-3 -0.2 1e-3h-0.012l-0.2-1e-3 -0.206-4e-3 -0.205-7e-3 -0.205-9e-3 -0.204-0.011-0.203-0.015-0.203-0.016-0.201-0.019-0.202-0.022-0.2-0.024-0.2-0.027-0.199-0.029-0.198-0.032-0.198-0.034-0.197-0.036-0.195-0.039-0.195-0.041-0.195-0.044-0.193-0.046-0.192-0.048-0.192-0.05-0.19-0.053-0.19-0.055-0.188-0.058-0.188-0.059-0.186-0.062-0.186-0.064-0.184-0.066-0.184-0.069-0.182-0.07-0.181-0.073-0.181-0.075-0.179-0.077-0.177-0.079-0.177-0.081-0.176-0.084-0.174-0.085-0.173-0.087-0.172-0.09-0.171-0.091-0.169-0.094-0.169-0.095-0.166-0.097-0.166-0.1-0.164-0.101-0.163-0.103-0.162-0.105-0.16-0.107-0.159-0.108-0.158-0.111-0.156-0.112-0.154-0.115-0.153-0.116-0.152-0.117-0.151-0.12-0.148-0.121-0.148-0.123-0.145-0.125-0.145-0.127-0.143-0.128-0.141-0.13-0.139-0.131-0.138-0.133-0.137-0.135-0.135-0.137-0.133-0.138-0.131-0.139-0.13-0.141-0.128-0.143-0.127-0.145-0.125-0.145-0.123-0.148-0.121-0.148-0.12-0.151-0.117-0.152-0.116-0.153-0.115-0.154-0.112-0.156-0.111-0.158-0.108-0.159-0.107-0.16-0.105-0.162-0.103-0.163-0.101-0.164-0.1-0.166-0.097-0.166-0.095-0.169-0.094-0.169-0.091-0.171-0.09-0.172-0.087-0.173-0.085-0.174-0.084-0.176-0.081-0.177-0.079-0.177-0.077-0.179-0.075-0.181-0.073-0.181-0.07-0.182-0.069-0.184-0.066-0.184-0.064-0.186-0.062-0.186-0.059-0.188-0.058-0.188-0.055-0.19-0.053-0.19-0.05-0.192-0.048-0.192-0.046-0.193-0.044-0.195-0.041-0.195-0.039-0.195-0.036-0.197-0.034-0.198-0.032-0.198-0.029-0.199-0.027-0.2-0.024-0.2-0.022-0.202-0.019-0.201-0.016-0.203-0.015-0.203-0.011-0.204-9e-3 -0.205-7e-3 -0.205-4e-3 -0.206-1e-3 -0.206 1e-3 -0.206 4e-3 -0.206 7e-3 -0.205 9e-3 -0.205 0.011-0.204 0.015-0.203 0.016-0.203 0.019-0.201 0.022-0.202 0.024-0.2 0.027-0.2 0.029-0.199 0.032-0.198 0.034-0.198 0.036-0.197 0.039-0.195 0.041-0.195 0.044-0.195 0.046-0.193 0.048-0.192 0.05-0.192 0.053-0.19 0.055-0.19 0.058-0.188 0.059-0.188 0.062-0.186 0.064-0.186 0.066-0.184 0.069-0.184 0.07-0.182 0.073-0.181 0.075-0.181 0.077-0.179 0.079-0.177 0.081-0.177 0.084-0.176 0.085-0.174 0.087-0.173 0.09-0.172 0.091-0.171 0.094-0.169 0.095-0.169 0.097-0.166 0.1-0.166 0.101-0.164 0.103-0.163 0.105-0.162 0.107-0.16 0.108-0.159 0.111-0.158 0.112-0.156 0.115-0.154 0.116-0.153 0.117-0.152 0.12-0.151 0.121-0.148 0.123-0.148 0.125-0.145 0.127-0.145 0.128-0.142 0.13-0.142 0.131-0.139 0.133-0.138 0.135-0.137 0.137-0.135 0.138-0.133 0.139-0.131 0.142-0.13 0.142-0.128 0.145-0.127 0.145-0.125 0.148-0.123 0.148-0.121 0.151-0.12 0.152-0.117 0.153-0.116 0.154-0.115 0.156-0.112 0.158-0.111 0.159-0.108 0.16-0.107 0.162-0.105 0.163-0.103 0.164-0.101 0.166-0.1 0.166-0.097 0.169-0.095 0.169-0.094 0.171-0.091 0.172-0.09 0.173-0.087 0.174-0.085 0.176-0.084 0.177-0.081 0.177-0.079 0.179-0.077 0.181-0.075 0.181-0.073 0.182-0.07 0.184-0.069 0.184-0.066 0.186-0.064 0.186-0.062 0.188-0.059 0.188-0.058 0.19-0.055 0.19-0.053 0.192-0.05 0.192-0.048 0.193-0.046 0.195-0.044 0.195-0.041 0.195-0.039 0.197-0.036 0.198-0.034 0.198-0.032 0.199-0.029 0.2-0.027 0.2-0.024 0.202-0.022 0.201-0.019 0.203-0.016 0.203-0.015 0.204-0.011 0.205-9e-3 0.205-7e-3 0.206-4e-3 0.2-1e-3h0.012l0.2 1e-3zm-0.362 4-0.155 3e-3 -0.154 5e-3 -0.154 7e-3 -0.154 8e-3 -0.152 0.011-0.153 0.013-0.151 0.014-0.151 0.016-0.151 0.019-0.15 0.02-0.149 0.021-0.149 0.024-0.148 0.026-0.147 0.027-0.147 0.029-0.146 0.031-0.145 0.032-0.145 0.035-0.143 0.036-0.144 0.038-0.142 0.039-0.142 0.041-0.141 0.043-0.141 0.045-0.139 0.046-0.139 0.048-0.138 0.05-0.137 0.051-0.137 0.053-0.135 0.054-0.135 0.056-0.134 0.058-0.134 0.059-0.132 0.061-0.131 0.062-0.131 0.064-0.13 0.066-0.129 0.067-0.128 0.068-0.127 0.07-0.126 0.072-0.125 0.073-0.124 0.074-0.123 0.076-0.122 0.077-0.122 0.079-0.12 0.08-0.119 0.082-0.118 0.083-0.117 0.084-0.117 0.086-0.115 0.087-0.114 0.089-0.112 0.089-0.112 0.091-0.111 0.093-0.109 0.094-0.109 0.095-0.107 0.096-0.106 0.098-0.105 0.098-0.104 0.1-0.204 0.204-0.1 0.104-0.098 0.105-0.098 0.106-0.096 0.107-0.095 0.109-0.094 0.109-0.093 0.111-0.091 0.112-0.089 0.112-0.089 0.114-0.087 0.115-0.086 0.116-0.084 0.118-0.083 0.118-0.082 0.119-0.08 0.12-0.079 0.122-0.077 0.122-0.076 0.123-0.074 0.124-0.073 0.125-0.072 0.126-0.07 0.127-0.068 0.128-0.067 0.129-0.066 0.13-0.064 0.131-0.062 0.131-0.061 0.132-0.059 0.134-0.058 0.134-0.056 0.135-0.054 0.135-0.053 0.137-0.051 0.137-0.05 0.138-0.048 0.139-0.046 0.139-0.045 0.141-0.043 0.141-0.041 0.142-0.039 0.142-0.038 0.144-0.036 0.143-0.035 0.145-0.032 0.145-0.031 0.146-0.029 0.147-0.027 0.147-0.026 0.148-0.024 0.149-0.021 0.149-0.02 0.15-0.019 0.151-0.016 0.151-0.014 0.151-0.013 0.153-0.011 0.152-8e-3 0.154-7e-3 0.154-5e-3 0.154-3e-3 0.155-1e-3 0.156 1e-3 0.156 3e-3 0.155 5e-3 0.154 7e-3 0.154 8e-3 0.154 0.011 0.152 0.013 0.153 0.014 0.151 0.016 0.151 0.019 0.151 0.02 0.15 0.021 0.149 0.024 0.149 0.026 0.148 0.027 0.147 0.029 0.147 0.031 0.146 0.032 0.145 0.035 0.145 0.036 0.143 0.038 0.144 0.039 0.142 0.041 0.142 0.043 0.141 0.045 0.141 0.046 0.139 0.048 0.139 0.05 0.138 0.051 0.137 0.053 0.137 0.054 0.135 0.056 0.135 0.058 0.134 0.059 0.134 0.061 0.132 0.062 0.131 0.064 0.131 0.066 0.13 0.067 0.129 0.068 0.128 0.07 0.127 0.072 0.126 0.073 0.125 0.074 0.124 0.076 0.123 0.077 0.122 0.079 0.122 0.08 0.12 0.082 0.119 0.083 0.118 0.084 0.117 0.086 0.117 0.087 0.115 0.089 0.114 0.089 0.112 0.091 0.112 0.093 0.111 0.094 0.109 0.095 0.109 0.096 0.107 0.098 0.106 0.098 0.105 0.1 0.104 0.204 0.204 0.104 0.1 0.105 0.098 0.106 0.098 0.107 0.096 0.109 0.095 0.109 0.094 0.111 0.092 0.112 0.092 0.112 0.089 0.114 0.089 0.115 0.087 0.117 0.086 0.117 0.084 0.118 0.083 0.119 0.082 0.12 0.08 0.122 0.079 0.122 0.077 0.123 0.076 0.124 0.074 0.125 0.073 0.126 0.072 0.127 0.07 0.128 0.068 0.129 0.067 0.13 0.066 0.131 0.064 0.131 0.062 0.132 0.061 0.134 0.059 0.134 0.058 0.135 0.056 0.135 0.054 0.137 0.053 0.137 0.051 0.138 0.05 0.139 0.048 0.14 0.046 0.14 0.045 0.141 0.043 0.142 0.041 0.142 0.039 0.144 0.038 0.143 0.036 0.145 0.035 0.145 0.032 0.146 0.031 0.147 0.029 0.147 0.027 0.148 0.026 0.149 0.024 0.149 0.021 0.15 0.02 0.151 0.019 0.151 0.016 0.151 0.014 0.153 0.013 0.152 0.011 0.154 8e-3 0.154 7e-3 0.154 5e-3 0.155 3e-3 0.156 1e-3 0.156-1e-3 0.155-3e-3 0.154-5e-3 0.154-7e-3 0.154-8e-3 0.152-0.011 0.153-0.013 0.151-0.014 0.151-0.016 0.151-0.019 0.15-0.02 0.149-0.021 0.149-0.024 0.148-0.026 0.147-0.027 0.147-0.029 0.146-0.031 0.145-0.032 0.145-0.035 0.144-0.036 0.143-0.038 0.142-0.039 0.142-0.041 0.141-0.043 0.14-0.045 0.14-0.046 0.139-0.048 0.138-0.05 0.137-0.051 0.137-0.053 0.135-0.054 0.135-0.056 0.134-0.058 0.134-0.059 0.132-0.061 0.131-0.062 0.131-0.064 0.13-0.066 0.129-0.067 0.128-0.068 0.127-0.07 0.126-0.072 0.125-0.073 0.124-0.074 0.123-0.076 0.122-0.077 0.122-0.079 0.12-0.08 0.119-0.082 0.118-0.083 0.117-0.084 0.117-0.086 0.115-0.087 0.114-0.089 0.112-0.089 0.112-0.091 0.111-0.093 0.109-0.094 0.109-0.095 0.107-0.096 0.106-0.098 0.105-0.098 0.104-0.1 0.204-0.204 0.1-0.104 0.098-0.105 0.098-0.106 0.096-0.107 0.095-0.109 0.094-0.109 0.093-0.111 0.091-0.112 0.089-0.112 0.089-0.114 0.087-0.115 0.086-0.116 0.084-0.118 0.083-0.118 0.082-0.119 0.08-0.12 0.079-0.122 0.077-0.122 0.076-0.123 0.074-0.124 0.073-0.125 0.072-0.126 0.07-0.127 0.068-0.128 0.067-0.129 0.066-0.13 0.064-0.131 0.062-0.131 0.061-0.132 0.059-0.134 0.058-0.134 0.056-0.135 0.054-0.135 0.053-0.137 0.051-0.137 0.05-0.138 0.048-0.139 0.046-0.139 0.045-0.141 0.043-0.141 0.041-0.142 0.039-0.142 0.038-0.144 0.036-0.143 0.035-0.145 0.032-0.145 0.031-0.146 0.029-0.147 0.027-0.147 0.026-0.148 0.024-0.149 0.021-0.149 0.02-0.15 0.019-0.151 0.016-0.151 0.014-0.151 0.013-0.153 0.011-0.152 8e-3 -0.154 7e-3 -0.154 5e-3 -0.154 3e-3 -0.155 1e-3 -0.156-1e-3 -0.156-3e-3 -0.155-5e-3 -0.154-7e-3 -0.154-8e-3 -0.154-0.011-0.152-0.013-0.153-0.014-0.151-0.016-0.151-0.019-0.151-0.02-0.15-0.021-0.149-0.024-0.149-0.026-0.148-0.027-0.147-0.029-0.147-0.031-0.146-0.032-0.145-0.035-0.145-0.036-0.143-0.038-0.144-0.039-0.142-0.041-0.142-0.043-0.141-0.045-0.141-0.046-0.139-0.048-0.139-0.05-0.138-0.051-0.137-0.053-0.137-0.054-0.135-0.056-0.135-0.058-0.134-0.059-0.134-0.061-0.132-0.062-0.131-0.064-0.131-0.066-0.13-0.067-0.129-0.068-0.128-0.07-0.127-0.072-0.126-0.073-0.125-0.074-0.124-0.076-0.123-0.077-0.122-0.079-0.122-0.08-0.12-0.082-0.119-0.083-0.118-0.084-0.117-0.086-0.117-0.087-0.115-0.089-0.114-0.089-0.112-0.091-0.112-0.093-0.111-0.094-0.109-0.095-0.109-0.096-0.107-0.098-0.106-0.098-0.105-0.1-0.104-0.204-0.204-0.104-0.1-0.105-0.098-0.106-0.098-0.107-0.096-0.109-0.095-0.109-0.094-0.111-0.093-0.112-0.091-0.112-0.089-0.114-0.089-0.115-0.087-0.117-0.086-0.117-0.084-0.118-0.083-0.119-0.082-0.12-0.08-0.122-0.079-0.122-0.077-0.123-0.076-0.124-0.074-0.125-0.073-0.126-0.072-0.127-0.07-0.128-0.068-0.129-0.067-0.13-0.066-0.131-0.064-0.131-0.062-0.132-0.061-0.134-0.059-0.134-0.058-0.135-0.056-0.135-0.054-0.137-0.053-0.137-0.051-0.138-0.05-0.139-0.048-0.139-0.046-0.141-0.045-0.141-0.043-0.142-0.041-0.142-0.039-0.144-0.038-0.143-0.036-0.145-0.035-0.145-0.032-0.146-0.031-0.147-0.029-0.147-0.027-0.148-0.026-0.149-0.024-0.149-0.021-0.15-0.02-0.151-0.019-0.151-0.016-0.151-0.014-0.153-0.013-0.152-0.011-0.154-8e-3 -0.154-7e-3 -0.154-5e-3 -0.155-3e-3 -0.156-1e-3 -0.156 1e-3z"/></g><g id="emoji"><path d="m30 16c0-7.732-6.268-14-14-14s-14 6.268-14 14 6.268 14 14 14 14-6.268 14-14z" fill="#ffee50"/><path d="m9.656 20.077 0.06 0.116 0.059 0.11 0.061 0.11 0.062 0.108 0.065 0.106 0.066 0.106 0.067 0.103 0.07 0.103 0.071 0.101 0.072 0.1 0.075 0.098 0.076 0.096 0.077 0.096 0.079 0.093 0.08 0.093 0.082 0.09 0.084 0.09 0.084 0.087 0.087 0.086 0.087 0.085 0.089 0.083 0.091 0.081 0.091 0.08 0.093 0.078 0.095 0.077 0.095 0.075 0.097 0.073 0.098 0.071 0.099 0.07 0.1 0.068 0.102 0.066 0.102 0.065 0.104 0.063 0.105 0.061 0.106 0.059 0.106 0.058 0.108 0.055 0.109 0.054 0.109 0.052 0.111 0.05 0.112 0.049 0.112 0.046 0.113 0.044 0.114 0.043 0.115 0.04 0.116 0.039 0.116 0.037 0.117 0.034 0.118 0.033 0.118 0.031 0.12 0.028 0.119 0.027 0.121 0.025 0.121 0.022 0.121 0.021 0.122 0.018 0.123 0.016 0.123 0.014 0.124 0.012 0.124 0.01 0.125 8e-3 0.125 6e-3 0.125 3e-3 0.126 1e-3 0.126-1e-3 0.125-3e-3 0.125-6e-3 0.125-8e-3 0.124-0.01 0.124-0.012 0.123-0.014 0.123-0.016 0.122-0.018 0.121-0.021 0.121-0.022 0.121-0.025 0.119-0.027 0.12-0.028 0.118-0.031 0.118-0.033 0.117-0.034 0.116-0.037 0.116-0.039 0.115-0.04 0.114-0.043 0.113-0.044 0.112-0.046 0.112-0.049 0.111-0.05 0.109-0.052 0.109-0.054 0.108-0.055 0.106-0.058 0.106-0.059 0.105-0.061 0.104-0.063 0.102-0.065 0.102-0.066 0.1-0.068 0.099-0.07 0.098-0.071 0.097-0.073 0.095-0.075 0.095-0.077 0.093-0.078 0.091-0.08 0.091-0.081 0.089-0.083 0.087-0.085 0.087-0.086 0.084-0.087 0.084-0.09 0.082-0.09 0.08-0.093 0.079-0.093 0.077-0.096 0.076-0.096 0.075-0.098 0.072-0.1 0.071-0.101 0.07-0.103 0.067-0.103 0.066-0.106 0.065-0.106 0.062-0.108 0.061-0.11 0.059-0.11 0.06-0.116 1.038-2.077h1.618l0.083 3e-3 0.082 0.011 0.08 0.017 0.08 0.023 0.077 0.03 0.074 0.037 0.071 0.042 0.067 0.048 0.063 0.053 0.059 0.059 0.053 0.063 0.048 0.067 0.042 0.071 0.037 0.074 0.03 0.077 0.023 0.08 0.017 0.08 0.011 0.082 3e-3 0.083-3e-3 0.083-0.011 0.082-0.017 0.08-0.023 0.08-0.03 0.077-0.037 0.074-0.042 0.071-0.048 0.067-0.053 0.063-0.059 0.059-0.063 0.053-0.067 0.048-0.071 0.042-0.074 0.037-0.077 0.03-0.08 0.023-0.08 0.017-0.082 0.011-0.083 3e-3h-0.382l-0.49 0.979-0.071 0.14-0.075 0.141-0.078 0.141-0.081 0.138-0.082 0.137-0.085 0.135-0.087 0.133-0.089 0.131-0.091 0.13-0.093 0.127-0.095 0.126-0.098 0.124-0.099 0.123-0.101 0.12-0.103 0.118-0.105 0.117-0.107 0.114-0.109 0.112-0.111 0.111-0.112 0.108-0.114 0.107-0.116 0.104-0.118 0.102-0.119 0.1-0.121 0.099-0.122 0.096-0.124 0.093-0.126 0.092-0.127 0.089-0.129 0.088-0.13 0.085-0.131 0.082-0.133 0.081-0.134 0.078-0.136 0.076-0.136 0.074-0.138 0.071-0.14 0.069-0.14 0.067-0.142 0.064-0.143 0.062-0.144 0.059-0.145 0.057-0.147 0.055-0.147 0.052-0.148 0.049-0.149 0.047-0.15 0.045-0.152 0.042-0.152 0.039-0.152 0.037-0.154 0.034-0.155 0.032-0.155 0.029-0.156 0.026-0.156 0.023-0.158 0.021-0.158 0.018-0.158 0.016-0.159 0.012-0.16 0.01-0.16 7e-3 -0.161 5e-3 -0.156 1e-3h-0.01l-0.156-1e-3 -0.161-5e-3 -0.16-7e-3 -0.16-0.01-0.159-0.012-0.158-0.016-0.158-0.018-0.158-0.021-0.156-0.023-0.156-0.026-0.155-0.029-0.155-0.032-0.154-0.034-0.152-0.037-0.152-0.039-0.152-0.042-0.15-0.045-0.149-0.047-0.148-0.049-0.147-0.052-0.147-0.055-0.145-0.057-0.144-0.059-0.143-0.062-0.142-0.064-0.14-0.067-0.14-0.069-0.138-0.071-0.136-0.074-0.136-0.076-0.134-0.078-0.133-0.081-0.131-0.082-0.13-0.085-0.129-0.088-0.127-0.089-0.126-0.092-0.124-0.093-0.122-0.096-0.121-0.099-0.119-0.1-0.118-0.102-0.116-0.104-0.114-0.107-0.112-0.108-0.111-0.111-0.109-0.112-0.107-0.114-0.105-0.117-0.103-0.118-0.101-0.12-0.099-0.123-0.098-0.124-0.095-0.126-0.093-0.127-0.091-0.13-0.089-0.131-0.087-0.133-0.085-0.135-0.082-0.137-0.081-0.138-0.078-0.141-0.075-0.141-0.071-0.14-0.49-0.979h-0.382l-0.083-3e-3 -0.082-0.011-0.08-0.017-0.08-0.023-0.077-0.03-0.074-0.037-0.071-0.042-0.067-0.048-0.063-0.053-0.059-0.059-0.053-0.063-0.048-0.067-0.042-0.071-0.037-0.074-0.03-0.077-0.023-0.08-0.017-0.08-0.011-0.082-3e-3 -0.083 3e-3 -0.083 0.011-0.082 0.017-0.08 0.023-0.08 0.03-0.077 0.037-0.074 0.042-0.071 0.048-0.067 0.053-0.063 0.059-0.059 0.063-0.053 0.067-0.048 0.071-0.042 0.074-0.037 0.077-0.03 0.08-0.023 0.08-0.017 0.082-0.011 0.083-3e-3h1.618l1.038 2.077z" fill="#7c7007"/></g><ellipse cx="10" cy="12.5" rx="2" ry="3.5"/><ellipse cx="22" cy="12.5" rx="2" ry="3.5"/></g></svg>
