<?xml version="1.0" encoding="UTF-8"?>
<!DOCTYPE svg  PUBLIC '-//W3C//DTD SVG 1.1//EN'  'http://www.w3.org/Graphics/SVG/1.1/DTD/svg11.dtd'>
<svg width="906px" height="654px" clip-rule="evenodd" fill-rule="evenodd" image-rendering="optimizeQuality" shape-rendering="geometricPrecision" text-rendering="geometricPrecision" version="1.1" xmlns="http://www.w3.org/2000/svg">
 <path d="m89.5-0.5h726c51.904 9.2376 81.904 39.904 90 92v241c-92.001-0.167-184 0-276 0.5-60.875 96.247-121.38 192.75-181.5 289.5-60.125-96.753-120.62-193.25-181.5-289.5-88.999-0.5-178-0.667-267-0.5v-241c8.0957-52.096 38.096-82.762 90-92z" fill="#1b2f4c"/>
 <path d="m447.5 40.5c60.69 96.2 121.02 192.7 181 289.5-1.161 2.593-3.161 4.259-6 5-58.299 23.266-116.63 46.433-175 69.5-58.955-23.596-117.96-47.096-177-70.5-1.399-1.062-2.399-2.395-3-4 59.813-96.64 119.81-193.14 180-289.5z" fill="#fefffe"/>
 <path d="m-0.5 332.5c89.001-0.167 178 0 267 0.5 60.875 96.247 121.38 192.75 181.5 289.5 60.125-96.753 120.62-193.25 181.5-289.5 91.999-0.5 184-0.667 276-0.5v229c-6.233 44.746-30.899 74.246-74 88.5-5.815 1.129-11.481 2.295-17 3.5h-724c-42.982-6.263-71.815-29.93-86.5-71-1.8453-7.07-3.3453-14.07-4.5-21v-229z" fill="#fefffe"/>
</svg>
