<?xml version="1.0" encoding="UTF-8"?>
<!DOCTYPE svg PUBLIC "-//W3C//DTD SVG 1.1//EN" "http://www.w3.org/Graphics/SVG/1.1/DTD/svg11.dtd">
<svg xmlns="http://www.w3.org/2000/svg" version="1.1" width="906px" height="654px" style="shape-rendering:geometricPrecision; text-rendering:geometricPrecision; image-rendering:optimizeQuality; fill-rule:evenodd; clip-rule:evenodd" xmlns:xlink="http://www.w3.org/1999/xlink">
<g><path style="opacity:1" fill="#1b2f4c" d="M 89.5,-0.5 C 331.5,-0.5 573.5,-0.5 815.5,-0.5C 867.404,8.7376 897.404,39.4043 905.5,91.5C 905.5,171.833 905.5,252.167 905.5,332.5C 813.499,332.333 721.499,332.5 629.5,333C 568.625,429.247 508.125,525.747 448,622.5C 387.875,525.747 327.375,429.247 266.5,333C 177.501,332.5 88.5006,332.333 -0.5,332.5C -0.5,252.167 -0.5,171.833 -0.5,91.5C 7.59574,39.4043 37.5957,8.7376 89.5,-0.5 Z"/></g>
<g><path style="opacity:1" fill="#fefffe" d="M 447.5,40.5 C 508.19,136.7 568.524,233.2 628.5,330C 627.339,332.593 625.339,334.259 622.5,335C 564.201,358.266 505.867,381.433 447.5,404.5C 388.545,380.904 329.545,357.404 270.5,334C 269.101,332.938 268.101,331.605 267.5,330C 327.313,233.36 387.313,136.86 447.5,40.5 Z"/></g>
<g><path style="opacity:1" fill="#fefffe" d="M -0.5,332.5 C 88.5006,332.333 177.501,332.5 266.5,333C 327.375,429.247 387.875,525.747 448,622.5C 508.125,525.747 568.625,429.247 629.5,333C 721.499,332.5 813.499,332.333 905.5,332.5C 905.5,408.833 905.5,485.167 905.5,561.5C 899.267,606.246 874.601,635.746 831.5,650C 825.685,651.129 820.019,652.295 814.5,653.5C 573.167,653.5 331.833,653.5 90.5,653.5C 47.5179,647.237 18.6846,623.57 4,582.5C 2.15469,575.43 0.654689,568.43 -0.5,561.5C -0.5,485.167 -0.5,408.833 -0.5,332.5 Z"/></g>
</svg>
