<?xml version="1.0" encoding="UTF-8"?>
<svg viewBox="0 0 1e3 1e3" xmlns="http://www.w3.org/2000/svg">
 <defs>
  <style>.cls-1,.cls-6{fill:none;}.cls-2{fill:#936026;}.cls-3{fill:#62cdf6;}.cls-4{fill:#f7a9b8;}.cls-5{fill:#fff;}.cls-6{stroke:#fff;stroke-miterlimit:10;stroke-width:7.9px;}.cls-7{fill:#55899b;}.cls-8{fill:#2e162e;}.cls-9{clip-path:url(#clip-path);}.cls-10{fill:#e5e6e6;}.cls-11{fill:#2f172e;}</style>
  <clipPath id="clip-path">
   <path class="cls-1" d="m830.31 903c8.25-129.37-3.79-311.15-134.84-374-190.12-98-300.83 30.16-348.72 207a818 818 0 0 1-82.5 157.36c-4 4.75-4.71 11-1.26 16.32 61.79 114.7 494.49 98.85 567.32-6.67"/>
  </clipPath>
 </defs>
 <g id="Layer_2" data-name="Layer 2">
  <path class="cls-2" d="M952.29,509.31C924.64,659.46,898.23,809,837.07,953.46c-3.27,7.73,21.63,10.75,25,3,74.52-170.93,104.1-332.57,117.28-496.69"/>
 </g>
 <g id="Layer_3_copy" data-name="Layer 3 copy">
  <path class="cls-3" d="M6.91,134.19C329.38,304.65,656.38-95.76,987.9,32.32q-5,253.23-13.6,507.46c-299.47-155.95-594.41,201.93-884.82,81Q50,379.07,6.91,134.19Z"/>
  <path class="cls-4" d="M24,232.05C340.06,391.74,660.64-.4,985.75,133.66q-3.43,152.07-8.16,304.49C671.71,287.36,370.36,654,73.54,523.94Q49.41,378.59,24,232.05Z"/>
  <path class="cls-5" d="M40.8,329.62C350.44,479,664.62,95.24,983.31,235.08q-1.27,50.73-2.71,101.5c-312.29-145.42-620,229.81-923.29,90.33Q49.12,378.32,40.8,329.62Z"/>
  <path class="cls-6" d="M6.91,134.19q8.63,49,17.09,97.86t16.8,97.57q8.33,48.7,16.51,97.29t16.23,97q8,48.45,15.94,96.79c290.41,121,585.35-236.9,884.82-81q1.71-50.83,3.29-101.63t3-101.57q1.42-50.77,2.71-101.5t2.44-101.42Q986.89,83,987.9,32.32C656.38-95.76,329.38,304.65,6.91,134.19Z"/>
 </g>
 <g id="Layer_5" data-name="Layer 5">
  <g id="Layer_6" data-name="Layer 6">
   <path class="cls-7" d="m830.31 903c8.25-129.37-3.79-311.15-134.84-374-190.12-98-300.83 30.16-348.72 207a818 818 0 0 1-82.5 157.36c-4 4.75-4.71 11-1.26 16.32 61.79 114.7 494.49 98.85 567.32-6.67"/>
   <path class="cls-8" d="m525 741.21c1 70.57-106.6 70.58-105.6 0-0.95-70.58 106.6-70.58 105.6 0z"/>
   <path class="cls-7" d="M798.13,692.4c59.77-15,176.83,27.18,114.13,99.21C875.33,828,820.72,848,776.19,875.12"/>
   <g class="cls-9">
    <path class="cls-10" d="M467.06,989.11C631.4,826.56,470.3,529.83,581,484.09c311.56-143.51,335.49,289.5,250.56,484.12-55.94,87.52-343.88,140.11-358.52,11.24"/>
   </g>
   <path class="cls-11" d="M593.37,585.78a4.38,4.38,0,0,0,.33.76c-.06,0-.61-1.52-.17-.4.18.45.36.91.53,1.36.39,1,.76,2.1,1.1,3.17q1,3.09,1.69,6.27c.47,2,.87,4.12,1.22,6.2.18,1.05.34,2.09.5,3.14l.21,1.48.12.84c.2,1.45-.15-1.13,0-.27,1.15,9.06,2,18.22,4,27.14a74.81,74.81,0,0,0,5.17,15c1.8,3.87,7.56,4.12,10.31,1.33,4.48-4.56,7.5-10.55,10.4-16.17,3.35-6.49,6.5-13.11,10.25-19.39.89-1.48,1.81-2.94,2.79-4.37.43-.62.88-1.24,1.33-1.85.9-1.23-1.08,1.33-.13.17l.76-.93a28.8,28.8,0,0,1,3-3.13l.72-.61c.6-.52-1.66,1.21-.36.29a16.09,16.09,0,0,1,1.64-1,4.28,4.28,0,0,0,.83-.41c.07-.07-1.78.69-1.06.45l.34-.13a14.37,14.37,0,0,1,1.71-.46c.93-.21-2,.19-1,.14l.35,0a8.81,8.81,0,0,1,.89,0c.24,0,.48,0,.71,0-2.5-.07-1.22-.2-.47,0a49.83,49.83,0,0,1,5.76,2.14q3.23,1.22,6.47,2.37a176.79,176.79,0,0,0,22.34,6.51c5.87,1.24,12.07,2.27,18.1,1.79,5.22-.41,10.39-1.76,14.28-5.46,3.67-3.5,5.2-8.73,5-13.69-.27-6.42-2.56-12.48-5.18-18.27a153.28,153.28,0,0,0-12.91-22.26q-2.22-3.28-4.53-6.51a7,7,0,0,0-3.92-3,6.72,6.72,0,0,0-5.06.66c-2.76,1.79-4.48,6-2.35,9a203.28,203.28,0,0,1,15,23.74q1.25,2.37,2.36,4.8l.48,1.07c.08.2.17.4.25.59.38.86-.41-.92-.36-.87a8,8,0,0,1,.89,2.25,41.52,41.52,0,0,1,2.15,7.64l.12.79c-.43-2.64-.18-1.37-.12-.73s.08,1,.1,1.53,0,1,0,1.44c0,.2,0,.39-.05.58-.11,1.42.32-1.79.11-.77a21.48,21.48,0,0,1-.66,2.38c.85-2.53.51-1.14.13-.46-.2.35-.44.67-.66,1,1.38-2.18.81-1,.25-.42-.28.29-.59.54-.89.81,1.91-1.75,1-.73.31-.31a11.2,11.2,0,0,1-1.13.62c-.58.28-1.58.51.83-.34l-.58.23c-.45.16-.9.3-1.36.42s-.94.23-1.41.32l-.62.11c-1.48.25,1.78-.2.7-.09a40.66,40.66,0,0,1-7.15.08c-.63,0-1.27-.1-1.9-.16l-1.09-.13-.44,0c-1.05-.12,1.9.27.85.11-1.5-.23-3-.47-4.49-.76A165.91,165.91,0,0,1,668.84,597c-4.26-1.47-8.49-3.05-12.68-4.69a15.93,15.93,0,0,0-10.25-.39c-6.86,2.09-11.7,7.89-15.59,13.59-4,5.89-7.2,12.33-10.42,18.69-2.89,5.71-5.66,11.64-9.45,16.83-.36.48-1.33,1.55.3-.38l-.48.59q-.57.69-1.2,1.32l10.31,1.33c-.23-.5-.43-1-.69-1.53,0,0,.52,1.28.25.61l-.31-.78c-.41-1-.79-2.08-1.14-3.14-.68-2-1.26-4.13-1.76-6.23-1-4.18-1.68-8.43-2.27-12.68-.13-.89.18,1.37.06.48,0-.21-.06-.42-.08-.63-.08-.57-.15-1.13-.22-1.69-.14-1.13-.28-2.26-.41-3.39q-.4-3.28-.82-6.56c-.62-4.71-1.28-9.42-2.3-14.06a78.11,78.11,0,0,0-5-15.12,6.57,6.57,0,0,0-3.92-3,6.72,6.72,0,0,0-5.06.67,6.64,6.64,0,0,0-3,3.92,7.61,7.61,0,0,0,.67,5.06Z"/>
  </g>
 </g>
</svg>
