<?xml version="1.0" encoding="UTF-8"?>
<svg viewBox="0 0 1e3 1e3" xmlns="http://www.w3.org/2000/svg">
 <defs>
  <style>.cls-1,.cls-9{fill:none;}.cls-2{fill:#936026;}.cls-3{fill:#63cdf4;}.cls-4{fill:#fff;}.cls-5{fill:#4670b6;}.cls-6{fill:#2c2e2d;}.cls-7{fill:#343636;}.cls-8{fill:#4f76ba;}.cls-9{stroke:#231f20;stroke-miterlimit:10;stroke-width:6.02px;}.cls-10{clip-path:url(#clip-path);}.cls-11{fill:#e5e6e6;}.cls-12{fill:#55899b;}.cls-13{fill:#2e162e;}.cls-14{clip-path:url(#clip-path-2);}.cls-15{fill:#2f172e;}</style>
  <clipPath id="clip-path">
   <path class="cls-1" d="M830.31-117c8.25-129.37-3.79-311.15-134.84-374C505.35-589,394.64-460.84,346.75-284a818,818,0,0,1-82.5,157.36c-4,4.75-4.71,11-1.26,16.32C324.78,4.35,757.48-11.5,830.31-117"/>
  </clipPath>
  <clipPath id="clip-path-2">
   <path class="cls-1" d="M823.31,903c7.72-56.12,3.26-108.64-7.62-164.2-12.19-62.24-26.81-128.57-71.63-172.15-16.2-15.75-35.58-27.64-55.61-37.69-36.22-18.17-75.53-30.79-115.78-32.48s-81.54,8.07-114.83,31.43c-32.77,23-56.23,57.77-73.68,94.44S354.6,698.09,339.74,736a817.83,817.83,0,0,1-82.5,157.37c-1.61,2.4-3.28,4.92-3.56,7.82s1,5.86,2.3,8.5c12.23,24.1,35.07,41.07,59.67,50.94s51.11,13.35,77.36,16.27c84.26,9.36,169.52,13.61,253.67,3.26,64.93-8,132.9-27.07,176.63-77.14"/>
  </clipPath>
 </defs>
 <g id="Layer_2" data-name="Layer 2">
  <path class="cls-2" d="m945.28 509.31c-27.64 150.15-54.06 299.69-115.22 444.15-3.27 7.73 21.63 10.75 25 3 74.52-170.9 104.09-332.54 117.27-496.66"/>
  <path class="cls-3" d="M976.05,175.25q-1.23,65.12-2.71,130.31c-5.61-4.07-11.38-6.27-17.11-8.65C660,174.56,367.36,516.63,78.39,393.69c-6-2.52-12-5.62-17.69-7.18Q49.91,324,38.87,261.2C347.33,423.09,659.72,36.88,976.05,175.25Z"/>
  <path class="cls-4" d="M976.05,175.25C659.72,36.88,347.33,423.09,38.87,261.2Q28.25,200.77,17.32,140.06c-.54-2.95-.25-3.55,3.48-1.53C334.7,308.76,652.42-80,974,44.42c3.83,1.5,4.27,2.6,4.22,5.62Q977.12,112.54,976.05,175.25Z"/>
  <path class="cls-5" d="M60.7,386.51c5.66,1.56,11.72,4.66,17.69,7.18,289,122.94,581.58-219.13,877.84-96.78,5.73,2.38,11.5,4.58,17.11,8.65,0,1.07-.05,2.15-.07,3.23-1.75.82-1.21,3.16-1.26,5.07q-1.29,55.25-2.69,110.57c-.05,1.92-.66,3.7,1,6.19,0,1.08,0,2.16-.08,3.23-4.21.61-8.29-4.3-12.43-6.24-292.11-135.8-580.45,206-865.08,86.51-2.5-1-5.13-2.58-7.34-2.42-1.16.08-2.47-1.41-3.68-2.45-.23-1.37-.47-2.74-.7-4.12,1.36-.81.48-3,.17-4.87Q72.33,448,63.26,395.52c-.32-1.83-.09-3.53-2-5.91C61.05,388.57,60.88,387.54,60.7,386.51Z"/>
  <path class="cls-6" d="m81.67 509.25c1.21 1 2.53 2.53 3.68 2.45 2.21-0.16 4.84 1.38 7.34 2.42 284.63 119.48 573-222.31 865.08-86.51 4.14 1.94 8.22 6.85 12.43 6.24l-0.12 4.32c-1.92 1-1.2 3.9-1.26 6.15q-1.65 59.16-3.38 118.43c-291.27-159.35-578.62 191.59-862.05 70.25q-9.31-56.28-18.88-112.77c-0.37-2.15 0-4.14-2.14-6.88-0.24-1.35-0.47-2.73-0.7-4.1z"/>
  <path class="cls-7" d="M82.37,513.37c2.14,2.74,1.77,4.73,2.14,6.88q9.6,56.5,18.88,112.77c-2.36-1.86-1.46-3.2-1.68-4.53Q92.07,571,82.37,513.37Z"/>
  <path class="cls-7" d="m965.44 562.75q1.77-59.25 3.38-118.43c0.06-2.25-0.66-5.11 1.26-6.15q-1.61 60.4-3.49 120.83c-0.04 1.4 1.14 4-1.15 3.75z"/>
  <path class="cls-8" d="m970.28 430.62c-1.62-2.49-1-4.27-1-6.19q1.39-55.33 2.69-110.57c0-1.91-0.49-4.25 1.26-5.07q-1.34 60.88-2.95 121.83z"/>
  <path class="cls-8" d="M61.23,389.61c1.94,2.37,1.72,4.08,2,5.91Q72.34,448,81.14,500.26c.31,1.83,1.19,4.06-.17,4.87Q71.2,447.47,61.23,389.61Z"/>
  <path class="cls-9" d="M966.59,559q1.95-60.39,3.49-120.83l.12-4.32c0-1.07,0-2.15.08-3.23q1.61-60.94,3-121.83c0-1.08.05-2.16.07-3.23q1.49-65.21,2.71-130.31,1.17-62.67,2.21-125.21c0-3-.39-4.12-4.22-5.62C652.42-80,334.7,308.76,20.8,138.53c-3.73-2-4-1.42-3.48,1.53q11,60.78,21.55,121.14Q49.91,324,60.7,386.51c.18,1,.35,2.06.53,3.1q10,57.87,19.74,115.52c.23,1.38.47,2.75.7,4.12s.46,2.75.7,4.12Q92.1,571,101.71,628.49c.22,1.33-.67,2.67,1.68,4.53C386.82,754.34,674.17,403.4,965.44,562.75,967.73,563,966.55,560.4,966.59,559Z"/>
 </g>
 <g id="Layer_5" data-name="Layer 5">
  <g id="Layer_6" data-name="Layer 6">
   <g class="cls-10">
    <path class="cls-11" d="M467.06-30.89C631.4-193.44,470.3-490.17,581-535.91,892.56-679.42,916.49-246.41,831.56-51.79,775.62,35.73,487.68,88.32,473-40.55"/>
   </g>
   <path class="cls-12" d="M823.31,903c7.72-56.12,3.26-108.64-7.62-164.2-12.19-62.24-26.81-128.57-71.63-172.15-16.2-15.75-35.58-27.64-55.61-37.69-36.22-18.17-75.53-30.79-115.78-32.48s-81.54,8.07-114.83,31.43c-32.77,23-56.23,57.77-73.68,94.44S354.6,698.09,339.74,736a817.83,817.83,0,0,1-82.5,157.37c-1.61,2.4-3.28,4.92-3.56,7.82s1,5.86,2.3,8.5c12.23,24.1,35.07,41.07,59.67,50.94s51.11,13.35,77.36,16.27c84.26,9.36,169.52,13.61,253.67,3.26,64.93-8,132.9-27.07,176.63-77.14"/>
   <ellipse class="cls-13" cx="465.23" cy="741.21" rx="52.8" ry="54.39"/>
   <path class="cls-12" d="m791.13 692.4c20.91-4.12 43.08-2.64 63.91 1.75 26.18 5.52 52.66 17.14 63.23 37.12 10.4 19.65 2.61 43.05-13 60.33s-38 29.7-60 41.76l-76.05 41.76"/>
   <g class="cls-14">
    <path class="cls-11" d="m460.05 989.11c80.68-91.22 94.6-251.14 78.48-368.87-15.4-52-22.1-114.34 35.49-136.15 171.19-90.09 315.71 52.79 292.44 235.42-23.21 80.44 2.07 178.14-41.89 248.7-56 87.52-343.9 140.11-358.54 11.24"/>
   </g>
   <path class="cls-15" d="M586.36,585.78a4.47,4.47,0,0,0,.34.76c-.07,0-.62-1.52-.18-.4l.54,1.36c.39,1,.75,2.1,1.09,3.17.66,2.06,1.21,4.15,1.69,6.27s.87,4.12,1.22,6.2c.18,1.05.34,2.09.5,3.14l.21,1.48.12.84c.2,1.45-.15-1.13,0-.27,1.16,9.06,2,18.22,4,27.14a75.43,75.43,0,0,0,5.17,15,6.46,6.46,0,0,0,5.67,3.25,6.67,6.67,0,0,0,5.67-3.25l21.46-35.14,5.33-8.73c.4-.65.79-1.31,1.2-2,.18-.28.36-.56.55-.83.68-1,.17.21-.19.22.1,0,.58-.59.68-.7.57-.64-1.37.92-.25.22s-1.06.22-.25.11c1.64-.21-1.28-.15,0,0,.27,0,.56,0,.83,0,1.45,0-1.5-.4-.09,0,.62.18,1.25.3,1.86.49,1.56.48,3.1,1,4.64,1.55q4.84,1.62,9.73,3.14,9.52,3,19.16,5.58c6.58,1.78,13.62,4.16,20.51,3.81s13.77-3.54,17.22-9.73a17.29,17.29,0,0,0,1.64-11.94,50.37,50.37,0,0,0-2.81-8.61,151,151,0,0,0-20.28-37,7.2,7.2,0,0,0-3.92-3,6.71,6.71,0,0,0-5.06.66c-2.71,1.75-4.57,6.05-2.36,9a144.85,144.85,0,0,1,10,15.07c1.46,2.56,2.85,5.15,4.16,7.79.62,1.26,1.23,2.52,1.81,3.8.28.6.55,1.2.82,1.81.18.41.36.81.53,1.22s.87,1.59,0,.06A32.59,32.59,0,0,1,701,591.5c.53,1.38,1,2.77,1.52,4.16a38.34,38.34,0,0,1,1.29,4.45c.3,1.32-.07-.38,0-.37s0,1.24,0,1.38c0,.73-.44.62.11-.57a8.16,8.16,0,0,0-.25,1l-.11.33q-.35,1,.27-.6a4,4,0,0,0-.31.62c-.17.31-.37.59-.56.89-.36.58-.44,0,.38-.5a10.48,10.48,0,0,0-1.23,1.26c-.72.72.38-.29.49-.35-.35.17-.69.49-1,.7a11.37,11.37,0,0,0-1.42.77l.91-.38-.67.25-.67.22a17.94,17.94,0,0,0-2,.42l.81-.12c-.23,0-.47,0-.7.06-.55,0-1.1.05-1.65,0s-1.41-.06-2.12-.13l-.23,0c-.74-.09-.63-.07.33.05a5.59,5.59,0,0,0-.94-.15c-1.73-.3-3.44-.72-5.13-1.14q-4.73-1.2-9.4-2.49-9.51-2.61-18.9-5.57-4.65-1.47-9.26-3c-3.22-1.08-6.52-2.32-10-2.15-4.74.22-8.2,2.71-10.86,6.48-1.81,2.57-3.34,5.38-5,8.06L601,643.87h11.34c-.24-.5-.43-1-.7-1.53,0,0,.53,1.28.26.61l-.31-.78c-.41-1-.79-2.08-1.14-3.14-.69-2-1.27-4.13-1.77-6.23-1-4.18-1.67-8.43-2.27-12.68-.12-.89.18,1.37.06.48,0-.21,0-.42-.08-.63l-.21-1.69c-.15-1.13-.28-2.26-.42-3.39-.27-2.19-.53-4.38-.82-6.56-.62-4.71-1.28-9.42-2.29-14.06a78.8,78.8,0,0,0-5-15.12,6.59,6.59,0,0,0-3.93-3,6.73,6.73,0,0,0-5.06.67,6.58,6.58,0,0,0-3,3.92,7.54,7.54,0,0,0,.66,5.06Z"/>
  </g>
 </g>
</svg>
