<svg xmlns="http://www.w3.org/2000/svg" xmlns:xlink="http://www.w3.org/1999/xlink" viewBox="0 0 1000 1000"><defs><style>.cls-1,.cls-8{fill:none;}.cls-2{fill:#936026;}.cls-3{clip-path:url(#clip-path);}.cls-4{fill:#231f20;stroke:#fff;stroke-width:0.83px;}.cls-4,.cls-5,.cls-8{stroke-miterlimit:10;}.cls-5,.cls-7{fill:#fff;}.cls-5,.cls-8{stroke:#231f20;}.cls-5{stroke-width:0.94px;}.cls-6{fill:#010101;}.cls-8{stroke-width:0.96px;}.cls-9{clip-path:url(#clip-path-2);}.cls-10{fill:#e5e6e6;}.cls-11{fill:#55899b;}.cls-12{fill:#2e162e;}.cls-13{clip-path:url(#clip-path-3);}.cls-14{fill:#2f172e;}</style><clipPath id="clip-path"><path class="cls-1" d="M10.48,140C330,325.7,653.51-94.55,981.09,43.31q-4.22,271.94-12.33,545.14C673.79,418.66,382.86,792.77,96,663Q55.17,403.43,10.48,140Z"/></clipPath><clipPath id="clip-path-2"><path class="cls-1" d="M823.31-117c7.72-56.12,3.26-108.64-7.62-164.2-12.19-62.24-26.81-128.57-71.63-172.15-16.2-15.75-35.58-27.64-55.61-37.69-36.22-18.17-75.53-30.79-115.78-32.48s-81.54,8.07-114.83,31.43c-32.77,23-56.23,57.77-73.68,94.44S354.6-321.91,339.74-284a817.83,817.83,0,0,1-82.5,157.37c-1.61,2.4-3.28,4.92-3.56,7.82s1,5.86,2.3,8.5c12.23,24.1,35.07,41.07,59.67,50.94S366.76-46.06,393-43.14c84.26,9.36,169.52,13.61,253.67,3.26,64.93-8,132.9-27.07,176.63-77.14"/></clipPath><clipPath id="clip-path-3"><path class="cls-1" d="M823.31,903c7.72-56.12,3.26-108.64-7.62-164.2-12.19-62.24-26.81-128.57-71.63-172.15-16.2-15.75-35.58-27.64-55.61-37.69-36.22-18.17-75.53-30.79-115.78-32.48s-81.54,8.07-114.83,31.43c-32.77,23-56.23,57.77-73.68,94.44S354.6,698.09,339.74,736a817.83,817.83,0,0,1-82.5,157.37c-1.61,2.4-3.28,4.92-3.56,7.82s1,5.86,2.3,8.5c12.23,24.1,35.07,41.07,59.67,50.94s51.11,13.35,77.36,16.27c84.26,9.36,169.52,13.61,253.67,3.26,64.93-8,132.9-27.07,176.63-77.14"/></clipPath></defs><g id="Layer_20" data-name="Layer 20"><path class="cls-2" d="M945.28,509.31C917.64,659.46,891.22,809,830.06,953.46c-3.27,7.73,21.63,10.75,25,3C929.58,785.56,959.15,623.92,972.33,459.8"/><g class="cls-3"><path class="cls-4" d="M10.48,140C330,325.7,653.51-94.55,981.09,43.31q-4.22,271.94-12.33,545.14C673.79,418.66,382.86,792.77,96,663Q55.17,403.43,10.48,140Z"/><path class="cls-5" d="M30.73,305.12c308.91,176.32,621.86-229,938.84-90.05q-1.71,92.26-3.87,184.66C659.78,249.8,357.9,639.77,60.05,483Q45.62,394.32,30.73,305.12Z"/><path class="cls-6" d="M435.81,320.72c11.59-4.31,22.4-8.45,33.21-12.65,1.65-.64,3.3-1.06,5.61-1.79,5.46,27.27,10.76,54.32,16.2,82.59.49-30.45,1-59.6,1.49-89.34q19.41-7.66,38.85-15.37C528,330,525,375.48,522,421.57c-17.38,6.81-34.21,13.55-51.06,19.73-1.37.53-3.83-1.22-4.21-2.75-8.84-34-17.67-68-26.72-102C438.62,331.62,437.35,326.65,435.81,320.72Z"/><path class="cls-6" d="M715.56,309.2q16.49-3.61,33-6.24c.1,4.19.1,8.28.27,12.34.15,3.46-.07,7.15,1,10.24.71,2.12,3.39,5,5.06,4.68a10.93,10.93,0,0,0,6.75-5.28c3.77-8.51.2-20.58-7.16-24.85-6.38-3.69-12.81-7.33-19.75-9.77-20.18-7-23.83-23.15-22.16-43.3,1.21-14.59,9.57-24.92,23.85-30.69,13.23-5.3,26.46-7.11,39.31-3.33,9.83,2.9,15.83,9.18,16.46,19.76.34,5.76,1.1,11.49,1.73,17.88-11.68.78-23.35,2-35,3.7-.1-4.85.36-9.65-.53-14-.47-2.29-3.31-3.85-5.11-5.71-2.1,2.2-5.41,4.27-6.07,6.67-2.76,10,.59,16.33,9.41,20.58,7.92,3.83,15.86,7.85,23.65,12.26,9.36,5.32,14.75,13.62,15.61,24.61.49,6.29,1.36,12.6,1.09,18.89-.78,18.28-8,27.43-26.1,32.25a104.32,104.32,0,0,1-29.37,3.56c-15.39-.41-23.31-8-25.26-22.83C715.4,324,715.78,316.86,715.56,309.2Z"/><path class="cls-6" d="M650.59,292.43q.54,12.49,1.07,25-11,3.45-22.08,7.17.69,14.87,1.38,29.73,12.66-4.21,25.33-8.09.54,13,1.06,26.07c-20.28,6.11-40.53,13-60.77,20.31q-3.5-65.52-7.24-130.88c20.07-7.46,40.15-14.55,60.25-21q.57,12.79,1.13,25.59-11.78,3.72-23.55,7.75l1.23,25.57Q639.5,295.93,650.59,292.43Z"/><path class="cls-6" d="M294.79,469.23l3,25.41a479.18,479.18,0,0,1-56.44,7.45q-8.44-64.77-17.16-129.59c12-.6,23.93-1.72,35.9-3.29q6.6,51.81,13,103.62Q284,471.27,294.79,469.23Z"/><path class="cls-6" d="M391.08,470.1q-17.37,5.7-34.73,10.69-6.86-64.44-14-128.83,17.85-4.92,35.71-10.7Q384.73,405.64,391.08,470.1Z"/><path class="cls-7" d="M218.56,333.61q-8.82-65-17.9-130.12c21.33.43,42.33-1.6,63.34-2.8,11.65-.69,19.27,6.23,22.68,16.09a95.1,95.1,0,0,1,3,12.21c2.37,11.6.76,22.34-16.63,28.69,20.29.32,24.62,11.05,25.95,24.54a209.77,209.77,0,0,1,1.45,23.43c-.15,10.56-5.22,17.65-16.33,20.1C262.58,330.41,240.85,332.64,218.56,333.61Zm29.14-60.24q2.3,17.58,4.56,35.14c9.33-.34,10.95-1.73,10.59-9.34-.31-6-1.45-11.9-2-17.92-.63-7.1-4.67-9.61-13.14-7.88Zm-6.4-48.83,3.63,27.58c9.43.07,10.93-1.24,10.56-8.93a71.18,71.18,0,0,0-1.41-11.91c-1.65-7.56-3.12-8.14-12.75-6.74Z"/><path class="cls-7" d="M699.93,52.19q18.55-4.94,37.12-8.84.72,23.81,1.41,47.62l1.68,0c3.08-10.89,6.23-21.75,9.26-32.61,5.19-18.55,5.16-18.84,25-21.75q7.95-1.11,15.9-2c-6.11,19.08-11.65,37.49-17.83,55.83a22.63,22.63,0,0,0,.22,16.12c7,19.06,13.52,38.51,20.08,58.12.58,1.72,1.07,3.48,1.72,5.74-12.71,1-25.4,2.53-38.09,4.53q-7.53-25.32-15.25-50.36l-1.2.37q.74,26.24,1.42,52.5-18.33,3.42-36.64,8Q702.45,118.73,699.93,52.19Z"/><path class="cls-7" d="M480.9,264.88q-19,7.49-38.08,14.71c2.34-45.33,4.76-90.29,7.27-135.8,18.35-7.08,36.71-14.4,55.08-21.75,10.54,39.93,20.73,80,30.85,120.84q-18.84,7.44-37.65,14.93c-1.27-7-2.54-13.91-3.9-21.3l-12.94,5.11Zm10.46-52.15c-3.13-16.41-6.17-32.17-9.25-47.93l-1,.3q-1.22,26.31-2.42,52.62Q485,215.25,491.36,212.73Z"/><path class="cls-7" d="M657.62,122.81c-13,4.1-25.9,8.49-38.85,13.08-.38-7.31-.71-14.47-1.15-21.58-.26-3.83-.24-7.87-1.41-11.19-.61-1.68-3.73-3.33-5.38-2.63A13.83,13.83,0,0,0,604.7,107c-1.19,3.28-1,6.68-.85,9.79q1.73,32.92,3.68,65.76c.15,2.69.24,5.71,1.57,7.57s4.14,2.23,6.34,3.26c1.83-2.63,5.1-5.6,5.23-7.79.45-7.93-.18-15.59-.36-23.36a38.39,38.39,0,0,1,.32-4.45q18.54-6.52,37.08-12.4c.79,12.11,2,24-2.45,36.91-5,14.37-16.71,23.85-30.23,30a104.32,104.32,0,0,1-26.15,7.67c-14.4,2.23-24.73-2.64-26.24-16-2.9-25.53-5.22-51.37-5.89-77.73-.45-16.94,9.86-30.9,28.13-41.43,13.54-7.78,27.3-12.27,40.4-10.41,9.05,1.28,15.86,5.4,17.52,14.29C654.82,99.62,656,110.93,657.62,122.81Z"/><path class="cls-7" d="M347.93,311.49q-7-64.11-14.33-128.17,18.72-5.19,37.47-11.28c.26,2.39.51,4.78.77,7.18,3.11,29.42,6.41,58.78,9.06,88.36.58,6.39,3.05,7.49,9.49,4.68,4.47-1.93,9.1-3.18,14-4.91l2.46,25.18C387.21,299.45,367.56,305.86,347.93,311.49Z"/><path class="cls-7" d="M262,673.3c-.45-2.55-.95-4.71-1.23-6.89-4.88-38.84-9.76-77.69-15-116.53-.69-5.36.72-7,6.19-7.34a356.34,356.34,0,0,0,38.7-4.93c5.15,18.61,10.18,36.7,15.07,54.77l.95-.08c.24-9.88.59-19.75.73-29.66.16-7.89,0-15.78.39-23.7.08-1.66,1.83-4.65,3.1-5,13.79-3.2,27.65-6.51,41.91-10.46q6.88,64.61,13.53,129.27-14.5,4.16-29,7.68-4.28-39.06-8.62-78.1l-1.36.27c-.56,21.68-1.35,43.4-1.56,65-.16,16.55.14,16.59-16.4,19.5-3.91.67-5.68-.23-6.72-4C297,641.28,291,619.41,285,597.51a22.39,22.39,0,0,0-3.36-7.06q4.81,39.62,9.54,79.23Q276.59,672,262,673.3Z"/><path class="cls-7" d="M719.17,398.37c19.7-3,38.64-5.45,57.5-5.54,10.82,0,17.61,7.34,19.63,17.41,1.77,8.82,1.75,18.14,1.62,27.25-.15,9.82-5.21,16.3-15.72,18.58,12.84,3.65,16.83,12.72,16.66,24.82-.22,15,.11,30.1.2,45.69-10.54.07-21.07.58-31.59,1.47-.2-2.61-.52-5.27-.6-8q-.61-22.43-1.15-44.84c-.15-6.46-3.49-8.35-10.08-6.6q.48,30.23.92,60.49-17.1,1.89-34.17,5Q720.92,466.19,719.17,398.37Zm36.48,48.18c7.18-.09,10.09-3.69,9.92-10.35-.06-4,0-7.93-.17-11.88-.24-6.35-3.59-8.94-10.29-7.52Z"/><path class="cls-7" d="M467.38,618.43q-17.24,6.51-34.43,12.69c-1.34-7.12-2.69-14.28-4.13-21.9q-6,2.12-11.94,4.18c-.14,7.69-.28,15.56-.44,23.72q-17.47,6-34.94,11.39c.13-8.28.21-16.33.44-24.4,1.16-34.71,2.48-69.45,3.65-104.23.16-4.32,1.2-6.79,6.19-8.3,13.23-4,26.44-8.69,39.64-13.62,3.82-1.39,5.93-1.31,6.91,2.57,9.65,38.32,19.27,76.58,28.56,114.92A23.23,23.23,0,0,1,467.38,618.43Zm-50.51-77.18-1.76.46c-.4,16-.79,32.07-1.18,48.24q5.88-2,11.75-4.1C422.73,570.74,419.84,556,416.87,541.25Z"/><path class="cls-7" d="M638.45,421.08c19.45-6.24,38.92-11.87,58.41-16.58q.4,13.23.8,26.47-11.16,2.64-22.29,5.69l.87,25.39q10.32-2.78,20.67-5.23l.75,25.79Q687.33,485,677,487.76l1,29.37q12.16-3.18,24.34-5.9.36,13.47.71,27c-19.72,4.31-39.42,9.64-59.1,15.67Q641.31,487.4,638.45,421.08Z"/><path class="cls-7" d="M533.19,459.89q.84,12.64,1.67,25.31l-20.5,8q3.66,52.17,7.17,104.43-17.11,6.63-34.2,13.22-3.88-51.86-7.94-103.63-10.33,4-20.66,7.88-1.05-12.75-2.12-25.51C482.11,480,507.63,469.84,533.19,459.89Z"/><path class="cls-7" d="M607,566q-17.09,5.91-34.14,12.25-2.9-52.44-6-104.8-10.38,3.92-20.74,7.92L544.48,455c25.42-9.83,50.87-19.4,76.35-28q.61,13,1.22,26.1-10.12,3.41-20.25,7Q604.49,513,607,566Z"/></g><path class="cls-8" d="M10.48,140C330,325.7,653.51-94.55,981.09,43.31q-4.22,271.94-12.33,545.14C673.79,418.66,382.86,792.77,96,663Q55.17,403.43,10.48,140Z"/></g><g id="Layer_21" data-name="Layer 21"><g class="cls-9"><path class="cls-10" d="M460.05-30.89c80.68-91.22,94.6-251.14,78.48-368.87-15.4-52-22.1-114.34,35.49-136.15C745.21-626,889.73-483.12,866.46-300.49c-23.21,80.44,2.07,178.14-41.89,248.7C768.61,35.73,480.67,88.32,466-40.55"/></g><path class="cls-11" d="M823.31,903c7.72-56.12,3.26-108.64-7.62-164.2-12.19-62.24-26.81-128.57-71.63-172.15-16.2-15.75-35.58-27.64-55.61-37.69-36.22-18.17-75.53-30.79-115.78-32.48s-81.54,8.07-114.83,31.43c-32.77,23-56.23,57.77-73.68,94.44S354.6,698.09,339.74,736a817.83,817.83,0,0,1-82.5,157.37c-1.61,2.4-3.28,4.92-3.56,7.82s1,5.86,2.3,8.5c12.23,24.1,35.07,41.07,59.67,50.94s51.11,13.35,77.36,16.27c84.26,9.36,169.52,13.61,253.67,3.26,64.93-8,132.9-27.07,176.63-77.14"/><ellipse class="cls-12" cx="465.23" cy="741.21" rx="52.8" ry="54.39"/><path class="cls-11" d="M791.13,692.4c20.91-4.12,43.08-2.64,63.91,1.75,26.18,5.52,52.66,17.14,63.23,37.12,10.4,19.65,2.61,43.05-13,60.33s-38,29.7-60,41.76l-76.05,41.76"/><g class="cls-13"><path class="cls-10" d="M460.05,989.11c80.68-91.22,94.6-251.14,78.48-368.87-15.4-52-22.1-114.34,35.49-136.15C745.21,394,889.73,536.88,866.46,719.51c-23.21,80.44,2.07,178.14-41.89,248.7-56,87.52-343.9,140.11-358.54,11.24"/></g><path class="cls-14" d="M586.36,585.78a4.47,4.47,0,0,0,.34.76c-.07,0-.62-1.52-.18-.4l.54,1.36c.39,1,.75,2.1,1.09,3.17.66,2.06,1.21,4.15,1.69,6.27s.87,4.12,1.22,6.2c.18,1.05.34,2.09.5,3.14l.21,1.48.12.84c.2,1.45-.15-1.13,0-.27,1.16,9.06,2,18.22,4,27.14a75.43,75.43,0,0,0,5.17,15,6.46,6.46,0,0,0,5.67,3.25,6.67,6.67,0,0,0,5.67-3.25l21.46-35.14,5.33-8.73c.4-.65.79-1.31,1.2-2,.18-.28.36-.56.55-.83.68-1,.17.21-.19.22.1,0,.58-.59.68-.7.57-.64-1.37.92-.25.22s-1.06.22-.25.11c1.64-.21-1.28-.15,0,0,.27,0,.56,0,.83,0,1.45,0-1.5-.4-.09,0,.62.18,1.25.3,1.86.49,1.56.48,3.1,1,4.64,1.55q4.84,1.62,9.73,3.14,9.52,3,19.16,5.58c6.58,1.78,13.62,4.16,20.51,3.81s13.77-3.54,17.22-9.73a17.29,17.29,0,0,0,1.64-11.94,50.37,50.37,0,0,0-2.81-8.61,151,151,0,0,0-20.28-37,7.2,7.2,0,0,0-3.92-3,6.71,6.71,0,0,0-5.06.66c-2.71,1.75-4.57,6.05-2.36,9a144.85,144.85,0,0,1,10,15.07c1.46,2.56,2.85,5.15,4.16,7.79.62,1.26,1.23,2.52,1.81,3.8.28.6.55,1.2.82,1.81.18.41.36.81.53,1.22s.87,1.59,0,.06A32.59,32.59,0,0,1,701,591.5c.53,1.38,1,2.77,1.52,4.16a38.34,38.34,0,0,1,1.29,4.45c.3,1.32-.07-.38,0-.37s0,1.24,0,1.38c0,.73-.44.62.11-.57a8.16,8.16,0,0,0-.25,1l-.11.33q-.35,1,.27-.6a4,4,0,0,0-.31.62c-.17.31-.37.59-.56.89-.36.58-.44,0,.38-.5a10.48,10.48,0,0,0-1.23,1.26c-.72.72.38-.29.49-.35-.35.17-.69.49-1,.7a11.37,11.37,0,0,0-1.42.77l.91-.38-.67.25-.67.22a17.94,17.94,0,0,0-2,.42l.81-.12c-.23,0-.47,0-.7.06-.55,0-1.1.05-1.65,0s-1.41-.06-2.12-.13l-.23,0c-.74-.09-.63-.07.33.05a5.59,5.59,0,0,0-.94-.15c-1.73-.3-3.44-.72-5.13-1.14q-4.73-1.2-9.4-2.49-9.51-2.61-18.9-5.57-4.65-1.47-9.26-3c-3.22-1.08-6.52-2.32-10-2.15-4.74.22-8.2,2.71-10.86,6.48-1.81,2.57-3.34,5.38-5,8.06L601,643.87h11.34c-.24-.5-.43-1-.7-1.53,0,0,.53,1.28.26.61l-.31-.78c-.41-1-.79-2.08-1.14-3.14-.69-2-1.27-4.13-1.77-6.23-1-4.18-1.67-8.43-2.27-12.68-.12-.89.18,1.37.06.48,0-.21,0-.42-.08-.63l-.21-1.69c-.15-1.13-.28-2.26-.42-3.39-.27-2.19-.53-4.38-.82-6.56-.62-4.71-1.28-9.42-2.29-14.06a78.8,78.8,0,0,0-5-15.12,6.59,6.59,0,0,0-3.93-3,6.73,6.73,0,0,0-5.06.67,6.58,6.58,0,0,0-3,3.92,7.54,7.54,0,0,0,.66,5.06Z"/></g></svg>