<?xml version="1.0" encoding="UTF-8"?>
<svg viewBox="0 0 1e3 1e3" xmlns="http://www.w3.org/2000/svg">
 <defs>
  <style>.cls-1,.cls-13{fill:none;}.cls-2{fill:#936026;}.cls-3{fill:#fff;}.cls-4{fill:#f7abb8;}.cls-5{fill:#d94686;}.cls-6{fill:#2c2e2d;}.cls-7{fill:#414343;}.cls-8{fill:#dd5891;}.cls-9{fill:#dd5892;}.cls-10{fill:#f8b8c2;}.cls-11{fill:#e05e92;}.cls-12{fill:#45323b;}.cls-13{stroke:#231f20;stroke-miterlimit:10;stroke-width:6px;}.cls-14{fill:#55899b;}.cls-15{fill:#2e162e;}.cls-16{clip-path:url(#clip-path);}.cls-17{fill:#e5e6e6;}.cls-18{fill:#2f172e;}</style>
  <clipPath id="clip-path">
   <path class="cls-1" d="M823.31,903c7.72-56.12,3.26-108.64-7.62-164.2-12.19-62.24-26.81-128.57-71.63-172.15-16.2-15.75-35.58-27.64-55.61-37.69-36.22-18.17-75.53-30.79-115.78-32.48s-81.54,8.07-114.83,31.43c-32.77,23-56.23,57.77-73.68,94.44S354.6,698.09,339.74,736a817.83,817.83,0,0,1-82.5,157.37c-1.61,2.4-3.28,4.92-3.56,7.82s1,5.86,2.3,8.5c12.23,24.1,35.07,41.07,59.67,50.94s51.11,13.35,77.36,16.27c84.26,9.36,169.52,13.61,253.67,3.26,64.93-8,132.9-27.07,176.63-77.14"/>
  </clipPath>
 </defs>
 <g id="Layer_2" data-name="Layer 2">
  <path class="cls-2" d="m945.28 509.31c-27.64 150.15-54.06 299.69-115.22 444.15-3.27 7.73 21.63 10.75 25 3 74.52-170.9 104.09-332.54 117.27-496.66"/>
  <path class="cls-3" d="M51.79,261.73Q41.05,200.17,30,138.31c-.28-1.59,0-1.69,1.81-.7C344.48,310.78,661-82,981.36,45.43c1.84.74,2.19,1.22,2.17,2.85q-1,63.5-2.19,127.12l-.52-.16c-1.05-.48-2.09-1-3.14-1.42C666.6,40.39,359.37,419,56,263.48A18.7,18.7,0,0,0,51.79,261.73Z"/>
  <path class="cls-4" d="M51.79,261.73A18.7,18.7,0,0,1,56,263.48C359.36,419,666.61,40.39,977.68,173.82c1.05.45,2.09.94,3.14,1.42l.51.64q-1.2,64.32-2.65,128.74l-.52-.16c-1.27-.63-2.54-1.27-3.81-1.86C676.35,164.49,382.06,517.91,91.49,394c-6.1-2.58-12.29-5.79-18.24-8Q62.65,324,51.79,261.73Z"/>
  <path class="cls-5" d="M73.25,386c5.94,2.19,12.14,5.4,18.24,8C382.06,517.9,676.35,164.48,974.35,302.6c1.27.59,2.54,1.23,3.81,1.86l.51.64q-1.45,64.41-3.14,128.88l-.5-.16c-1.07-.58-2.14-1.18-3.21-1.72C741.75,315.9,514,508.21,288.63,536.29c-63.42,8-126.65,3.15-189.71-24.87-1.45-.64-2.74-.53-4.3-1.83-.15-.68,0-1.28-.78-2.14-.07-.45-.15-.91-.23-1.37.68-.31.21-1.35.07-2.15q-9.44-56.42-19.15-113a3.84,3.84,0,0,0-.88-2.61C73.52,387.51,73.38,386.75,73.25,386Z"/>
  <path class="cls-6" d="M94.62,509.59c1.56,1.3,2.85,1.19,4.3,1.83,63.06,28,126.29,32.87,189.71,24.87C514,508.21,741.75,315.9,971.82,432.1c1.07.54,2.14,1.14,3.21,1.72l.49.64Q973.86,498,972,561.55c0,1.57-.28,1.86-2,.91-288.36-158.42-572.86,191-853.47,71-2.88-1.23-1.9-2.35-2.34-3.61.67-.33.2-1.36.07-2.16Q105,571,95.4,514.15a3.86,3.86,0,0,0-.87-2.58c-.12-.76-.25-1.52-.38-2.29Z"/>
  <path class="cls-7" d="M94.53,511.57a3.85,3.85,0,0,1,.87,2.58Q105,571,114.25,627.68c.13.8.6,1.82-.07,2.16Q104.48,570.82,94.53,511.57Z"/>
  <path class="cls-8" d="M73.65,388.28a3.84,3.84,0,0,1,.88,2.61q9.7,56.64,19.15,113c.14.8.61,1.85-.07,2.15Q83.74,447.29,73.65,388.28Z"/>
  <path class="cls-9" d="m94.62 509.59-0.47-0.31c-0.1-0.61-0.2-1.22-0.31-1.83 0.81 0.86 0.63 1.46 0.78 2.14z"/>
  <path class="cls-10" d="m981.33 175.88-0.51-0.64 0.52 0.16c-0.01 0.16-0.01 0.32-0.01 0.48z"/>
  <path class="cls-11" d="m978.67 305.1-0.51-0.64 0.52 0.16c-0.01 0.16-0.01 0.32-0.01 0.48z"/>
  <path class="cls-12" d="m975.52 434.46c-0.16-0.21-0.32-0.43-0.49-0.64l0.5 0.16c0 0.16-0.01 0.32-0.01 0.48z"/>
  <path class="cls-13" d="M972,561.55q1.83-63.61,3.53-127.09c0-.16,0-.32,0-.48q1.69-64.47,3.14-128.88c0-.16,0-.32,0-.48q1.44-64.41,2.65-128.74c0-.16,0-.32,0-.48q1.18-63.61,2.19-127.12c0-1.63-.33-2.11-2.17-2.85C661-82,344.48,310.78,31.84,137.61c-1.79-1-2.09-.88-1.81.7Q41.1,200.2,51.79,261.73,62.65,324,73.25,386c.14.77.27,1.54.4,2.3q10.09,59,20,117.8c.08.46.16.92.23,1.37.1.61.21,1.22.31,1.83.13.77.26,1.53.38,2.29q9.94,59.23,19.65,118.27c.44,1.26-.54,2.38,2.34,3.61C397.13,753.5,681.63,404,970,562.46,971.71,563.41,972,563.12,972,561.55Z"/>
 </g>
 <g id="Layer_5" data-name="Layer 5">
  <g id="Layer_6" data-name="Layer 6">
   <path class="cls-14" d="M823.31,903c7.72-56.12,3.26-108.64-7.62-164.2-12.19-62.24-26.81-128.57-71.63-172.15-16.2-15.75-35.58-27.64-55.61-37.69-36.22-18.17-75.53-30.79-115.78-32.48s-81.54,8.07-114.83,31.43c-32.77,23-56.23,57.77-73.68,94.44S354.6,698.09,339.74,736a817.83,817.83,0,0,1-82.5,157.37c-1.61,2.4-3.28,4.92-3.56,7.82s1,5.86,2.3,8.5c12.23,24.1,35.07,41.07,59.67,50.94s51.11,13.35,77.36,16.27c84.26,9.36,169.52,13.61,253.67,3.26,64.93-8,132.9-27.07,176.63-77.14"/>
   <ellipse class="cls-15" cx="465.23" cy="741.21" rx="52.8" ry="54.39"/>
   <path class="cls-14" d="m791.13 692.4c20.91-4.12 43.08-2.64 63.91 1.75 26.18 5.52 52.66 17.14 63.23 37.12 10.4 19.65 2.61 43.05-13 60.33s-38 29.7-60 41.76l-76.05 41.76"/>
   <g class="cls-16">
    <path class="cls-17" d="m460.05 989.11c80.68-91.22 94.6-251.14 78.48-368.87-15.4-52-22.1-114.34 35.49-136.15 171.19-90.09 315.71 52.79 292.44 235.42-23.21 80.44 2.07 178.14-41.89 248.7-56 87.52-343.9 140.11-358.54 11.24"/>
   </g>
   <path class="cls-18" d="M586.36,585.78a4.47,4.47,0,0,0,.34.76c-.07,0-.62-1.52-.18-.4l.54,1.36c.39,1,.75,2.1,1.09,3.17.66,2.06,1.21,4.15,1.69,6.27s.87,4.12,1.22,6.2c.18,1.05.34,2.09.5,3.14l.21,1.48.12.84c.2,1.45-.15-1.13,0-.27,1.16,9.06,2,18.22,4,27.14a75.43,75.43,0,0,0,5.17,15,6.46,6.46,0,0,0,5.67,3.25,6.67,6.67,0,0,0,5.67-3.25l21.46-35.14,5.33-8.73c.4-.65.79-1.31,1.2-2,.18-.28.36-.56.55-.83.68-1,.17.21-.19.22.1,0,.58-.59.68-.7.57-.64-1.37.92-.25.22s-1.06.22-.25.11c1.64-.21-1.28-.15,0,0,.27,0,.56,0,.83,0,1.45,0-1.5-.4-.09,0,.62.18,1.25.3,1.86.49,1.56.48,3.1,1,4.64,1.55q4.84,1.62,9.73,3.14,9.52,3,19.16,5.58c6.58,1.78,13.62,4.16,20.51,3.81s13.77-3.54,17.22-9.73a17.29,17.29,0,0,0,1.64-11.94,50.37,50.37,0,0,0-2.81-8.61,151,151,0,0,0-20.28-37,7.2,7.2,0,0,0-3.92-3,6.71,6.71,0,0,0-5.06.66c-2.71,1.75-4.57,6.05-2.36,9a144.85,144.85,0,0,1,10,15.07c1.46,2.56,2.85,5.15,4.16,7.79.62,1.26,1.23,2.52,1.81,3.8.28.6.55,1.2.82,1.81.18.41.36.81.53,1.22s.87,1.59,0,.06A32.59,32.59,0,0,1,701,591.5c.53,1.38,1,2.77,1.52,4.16a38.34,38.34,0,0,1,1.29,4.45c.3,1.32-.07-.38,0-.37s0,1.24,0,1.38c0,.73-.44.62.11-.57a8.16,8.16,0,0,0-.25,1l-.11.33q-.35,1,.27-.6a4,4,0,0,0-.31.62c-.17.31-.37.59-.56.89-.36.58-.44,0,.38-.5a10.48,10.48,0,0,0-1.23,1.26c-.72.72.38-.29.49-.35-.35.17-.69.49-1,.7a11.37,11.37,0,0,0-1.42.77l.91-.38-.67.25-.67.22a17.94,17.94,0,0,0-2,.42l.81-.12c-.23,0-.47,0-.7.06-.55,0-1.1.05-1.65,0s-1.41-.06-2.12-.13l-.23,0c-.74-.09-.63-.07.33.05a5.59,5.59,0,0,0-.94-.15c-1.73-.3-3.44-.72-5.13-1.14q-4.73-1.2-9.4-2.49-9.51-2.61-18.9-5.57-4.65-1.47-9.26-3c-3.22-1.08-6.52-2.32-10-2.15-4.74.22-8.2,2.71-10.86,6.48-1.81,2.57-3.34,5.38-5,8.06L601,643.87h11.34c-.24-.5-.43-1-.7-1.53,0,0,.53,1.28.26.61l-.31-.78c-.41-1-.79-2.08-1.14-3.14-.69-2-1.27-4.13-1.77-6.23-1-4.18-1.67-8.43-2.27-12.68-.12-.89.18,1.37.06.48,0-.21,0-.42-.08-.63l-.21-1.69c-.15-1.13-.28-2.26-.42-3.39-.27-2.19-.53-4.38-.82-6.56-.62-4.71-1.28-9.42-2.29-14.06a78.8,78.8,0,0,0-5-15.12,6.59,6.59,0,0,0-3.93-3,6.73,6.73,0,0,0-5.06.67,6.58,6.58,0,0,0-3,3.92,7.54,7.54,0,0,0,.66,5.06Z"/>
  </g>
 </g>
</svg>
