<?xml version="1.0" encoding="UTF-8"?>
<svg viewBox="0 0 1e3 1e3" xmlns="http://www.w3.org/2000/svg">
 <defs>
  <style>.cls-1,.cls-2{fill:none;}.cls-2{stroke:#333;stroke-miterlimit:10;stroke-width:2px;}.cls-3{clip-path:url(#clip-path);}.cls-4{fill:#e5e6e6;}.cls-5{fill:#55899b;}.cls-6{clip-path:url(#clip-path-2);}.cls-7{fill:#231f20;}.cls-8{fill:#333;}.cls-9{clip-path:url(#clip-path-3);}.cls-10{fill:#e32026;}.cls-11{fill:#f78c1f;}.cls-12{fill:#fdeb1a;}.cls-13{fill:#108141;}.cls-14{fill:#415fab;}.cls-15{fill:#722a83;}.cls-16{fill:#80b842;}.cls-17{fill:#2360ad;}.cls-18{fill:#612d90;}.cls-19{fill:#fff;opacity:0.4;}</style>
  <clipPath id="clip-path">
   <path class="cls-1" d="M823.31-117c7.72-56.12,3.26-108.64-7.62-164.2-12.19-62.24-26.81-128.57-71.63-172.15-16.2-15.75-35.58-27.64-55.61-37.69-36.22-18.17-75.53-30.79-115.78-32.48s-81.54,8.07-114.83,31.43c-32.77,23-56.23,57.77-73.68,94.44S354.6-321.91,339.74-284a817.83,817.83,0,0,1-82.5,157.37c-1.61,2.4-3.28,4.92-3.56,7.82s1,5.86,2.3,8.5c12.23,24.1,35.07,41.07,59.67,50.94S366.76-46.06,393-43.14c84.26,9.36,169.52,13.61,253.67,3.26,64.93-8,132.9-27.07,176.63-77.14"/>
  </clipPath>
  <clipPath id="clip-path-2">
   <path class="cls-1" d="m310.08 887.36c-13.54-139.07 28.47-263.74 114.73-379.42 26.95-36.14 124.31-126.13 227.9-126.13 128.58 0 187.86 78.3 204.69 103 32.6 48.02 104.8 215.5 111.6 299.9 2.77 34.67 9.12 126.7-17.55 151.72-17.7 16.6-43.63 23.33-68.46 28.68a1326.6 1326.6 0 0 1-421.42 21.73c-35.36-3.85-71.54-9.46-102-26.19s-54.14-47-51.33-79.09"/>
  </clipPath>
  <clipPath id="clip-path-3">
   <path class="cls-2" d="M880.28,96.16C734-51.31,534.19,14.41,467.5,229.76c-1,3.33-3.72,3.44-5.93.26C307.05,7.4,43,1.48,14.07,283.22-28.6,698.57,261.6,765.82,508.17,520.28c2.72-2.71,21.44-3,24.92.28C801.62,776.05,1179.4,443.8,880.28,96.16ZM136.44,440.89C-46.27,264,232.77,95.28,350.43,295.8c4.37,7.46,7.39,17.46,8.27,29.75C366.32,431.72,200.73,503.14,136.44,440.89Zm690.21-89c-64.36,143.47-257.52,111.37-313.13-41.58C500.75,79.78,860.72,93.24,826.65,351.92Z"/>
  </clipPath>
 </defs>
 <g id="Flagset2">
  <g class="cls-3">
   <path class="cls-4" d="M460.05-30.89c80.68-91.22,94.6-251.14,78.48-368.87-15.4-52-22.1-114.34,35.49-136.15C745.21-626,889.73-483.12,866.46-300.49c-23.21,80.44,2.07,178.14-41.89,248.7C768.61,35.73,480.67,88.32,466-40.55"/>
  </g>
 </g>
 <g id="Layer_12" data-name="Layer 12">
  <g id="Layer_16" data-name="Layer 16">
   <path class="cls-5" d="m310.08 887.37c-13.54-139.08 28.47-263.75 114.73-379.43 26.95-36.14 124.31-126.13 227.9-126.13 128.58 0 187.86 78.29 204.69 103 32.55 47.86 10.85 61.08 35.7 134.41 18.35 54.12 50.22 98.24 67.82 176.34 13 57.55 25 108.45-9.51 140.83-17.7 16.6-43.63 23.33-68.46 28.68a1326.6 1326.6 0 0 1-421.42 21.73c-35.36-3.85-71.54-9.46-102-26.19-35.26-19.4-45.57-58.92-51.33-79.09"/>
   <g class="cls-6">
    <path class="cls-4" d="m176.13 1006.7c165.76-96.95 57.09-393.85 203.69-517.09 170.11-143.88 254.41 103.6 253 266 24.57 146.49 125.45 225.29 82.91 273.23-146.55 92.84-423 131.63-536.28-27.91"/>
   </g>
   <ellipse class="cls-7" cx="710.35" cy="631.71" rx="62.33" ry="54.67"/>
   <path class="cls-7" d="M452.21,492.18A73.17,73.17,0,0,0,435.13,513,153.14,153.14,0,0,0,425,536.77a62,62,0,0,0-3.48,12.35,23.74,23.74,0,0,0,.21,8.19,18.42,18.42,0,0,0,3.93,7.72c5.7,7.11,16.38,9,25,8.77A73,73,0,0,0,467.31,571c5.27-1.43,10.52-3.29,15.92-4.18l-1.88.26a8.7,8.7,0,0,1,2.39,0l-1.88-.26c1.07.24-.52-.3-.63-.36s-1.22-1.21-.55-.41c0,0-.83-1.31-.6-.71.08.21.22.41.32.61.42.83.83,1.66,1.27,2.47.94,1.72,2,3.38,3.06,5a78.21,78.21,0,0,0,8.39,10.38,88.55,88.55,0,0,0,10.33,9,56.43,56.43,0,0,0,10.79,6.82c5.23,2.33,11,3.36,16.52,1.4,4.87-1.73,8.85-4.79,12.75-8.11a73.54,73.54,0,0,0,16.34-19.73,61,61,0,0,0,7.84-27,7.14,7.14,0,0,0-7.09-7.08,7.23,7.23,0,0,0-7.08,7.08c-.07,1.45-.2,2.9-.38,4.34l.25-1.89a51.27,51.27,0,0,1-2.45,10.15c-.28.82-.59,1.64-.92,2.44a2.18,2.18,0,0,1-.21.52c-.07.08.66-1.52.34-.83l-.62,1.38q-1.18,2.5-2.59,4.89c-.92,1.57-1.92,3.09-3,4.57-.27.38-.54.75-.82,1.12-.92,1.22.78-1,0,0-.59.73-1.18,1.46-1.79,2.17a72.64,72.64,0,0,1-8.38,8.26l-1.31,1.08-.67.53c-.73.58,1.17-.87.47-.37s-1.68,1.23-2.58,1.77c-.45.28-.92.54-1.39.79l-.54.27c-1.25.64,1.18-.41.39-.16A20.82,20.82,0,0,1,524,588l1.88-.26a14.58,14.58,0,0,1-3.43,0l1.89.25a14.27,14.27,0,0,1-4.05-1.12c.1,0,1.61.74.56.21l-.75-.37c-.72-.37-1.43-.77-2.13-1.19-2.3-1.38-4.52-2.9-6.67-4.5-.38-.29-1.43-1.27.09.09-.2-.19-.44-.35-.65-.52-.55-.43-1.08-.87-1.62-1.32-1.05-.87-2.07-1.78-3.08-2.71a76,76,0,0,1-5.43-5.63q-.58-.66-1.14-1.35c-.32-.38-1.75-2.31-.35-.4-.76-1-1.53-2.06-2.25-3.13a57.31,57.31,0,0,1-3.72-6.33,14.37,14.37,0,0,0-2.68-4,11.13,11.13,0,0,0-7.48-2.94c-3.32-.13-6.91,1.06-10.1,1.92-6.56,1.78-13,3.91-19.78,4.84l1.89-.25a42.39,42.39,0,0,1-11.14,0l1.89.26a31.23,31.23,0,0,1-5.07-1.13l-1-.35c-1.74-.64,1.15.59.08.05-.66-.33-1.31-.65-1.93-1-.32-.19-.63-.45-.95-.63,1.61.91,1,.77.43.31a10.83,10.83,0,0,1-.91-.88l-.21-.23c-.49-.57-.37-.41.34.48a7,7,0,0,0-.63-1c-.13-.22-.25-.45-.36-.67.45,1.12.55,1.34.28.66a15.3,15.3,0,0,1-.6-2.49l.26,1.88a17.53,17.53,0,0,1,.07-4.46l-.26,1.89a60,60,0,0,1,3.23-11.05c1.27-3.6,2.58-7.19,4-10.73.12-.3.72-1.71.24-.57s.13-.3.25-.57c.41-.94.83-1.88,1.27-2.81q1.23-2.64,2.62-5.19c.93-1.71,1.92-3.4,3-5,.5-.77,1-1.54,1.53-2.29.31-.44.61-.87.93-1.29l.35-.48c.67-.9.05-.1-.26.32a56.85,56.85,0,0,1,9.8-10.05,7.12,7.12,0,0,0,2.07-5,7.08,7.08,0,0,0-7.08-7.09,8,8,0,0,0-5,2.08Z"/>
  </g>
  <g id="Layer_17" data-name="Layer 17">
   <path class="cls-8" d="M86.25,372.78c6.7-90.34,75.61-158.87,153.92-153.07,30.43,2.26,57.8,15.42,79.51,36C296.32,218,259,192.29,215.32,189.05,137,183.25,68.1,251.78,61.4,342.12c-4.09,55.24,16,105.83,50.16,138.14C93,450.31,83.29,412.77,86.25,372.78Z"/>
   <path class="cls-8" d="m552.28 362.85c-25.39-87 20-176.71 101.33-200.47a146.16 146.16 0 0 1 93.3 4c-37.08-26.56-84-36.62-129.39-23.38-81.35 23.74-126.71 113.5-101.32 200.45 15.53 53.17 53.91 93 100 110.45-29.45-21.08-52.68-52.56-63.92-91.05z"/>
   <g class="cls-9">
    <path class="cls-10" d="M603.84-631.17c51.76-10.54,103.54-21,155.26-31.74,4.44-.92,5.87-.21,7.07,5.06q134.18,591.51,268.63,1183,63,277.46,126.2,554.88c1.2,5.27.2,6.48-4.25,7.37-51.8,10.35-103.55,21-155.32,31.5Z"/>
    <path class="cls-11" d="M603.84-631.17l397.59,1750-160.82,32.75c-.64-3.2-1.21-6.42-1.94-9.6Q642.07,276.54,445.42-588.91c-.73-3.18-1.6-6.34-2.41-9.5Z"/>
    <path class="cls-12" d="M443-598.41c.81,3.16,1.68,6.32,2.41,9.5Q642.05,276.54,838.67,1142c.73,3.18,1.3,6.4,1.94,9.6L681,1184.11l-397.6-1750Z"/>
    <ellipse class="cls-13" transform="translate(-62.21 97.06) rotate(-12.81)" cx="401.18" cy="325.6" rx="115.15" ry="1269"/>
    <ellipse class="cls-14" transform="translate(-73.47 62.21) rotate(-12.81)" cx="240.36" cy="358.35" rx="115.15" ry="1269"/>
    <path class="cls-15" d="M358.13,1249.86c-51.36,10.46-102.73,20.85-154,31.5-4.44.92-5.88.2-7.07-5.07Q62.68,684.11-71.93,92q-62.88-276.76-125.88-553.51c-1.2-5.27-.2-6.48,4.24-7.37,51.4-10.27,102.75-20.79,154.11-31.25Z"/>
    <ellipse class="cls-16" transform="translate(-56.54 114.38) rotate(-12.8)" cx="481.59" cy="309.22" rx=".88" ry="1269"/>
    <ellipse class="cls-17" transform="translate(-67.79 79.56) rotate(-12.8)" cx="320.77" cy="341.97" rx=".88" ry="1269"/>
    <ellipse class="cls-18" transform="matrix(.98 -.22 .22 .98 -79.05 44.75)" cx="159.94" cy="374.72" rx=".88" ry="1269"/>
    <path class="cls-7" d="m111.27 625a2 2 0 0 0 1.42 2.06c-0.44-2.2-0.8-4.41-1-6.65z"/>
    <path class="cls-8" d="M943.41,61.64c-8.42-9.12-17.47-17.83-28.17-23.9-9.67-5.48-20.4-8.62-31-11.73C822.31,7.91,759.68-10.31,695.37-12.83c-8.61-.34-18.37.09-24.12,6.7s-1.35,20.59,7.08,18.78l-3-.37c60.39,4.9,118,26.5,160.92,70.49s86.59,98,108.79,156c18.73,49,22.45,88.63,20.2,140.83-.05,1.22-5.25,27.1-6,28l-11.58,33.22a202,202,0,0,1-27.77,52.91c-45.33,62-46.91,52.2-73.53,72.29-10.72,8.1-63.55,30.36-101.43,30.36-70.7,0-151.47-10.32-194-68.46-14.49-19.8-29.34-44.5-53.35-46.34-24.64-1.89-43.07,21.47-59.21,40.73C360.74,615,230.9,657.21,115.68,627.85a1.93,1.93,0,0,0-2.31,2.36c6.2,26,24.61,48.27,46.88,62.51,25,16,54.48,23,83.7,26.8,82.09,10.7,165.09-1.88,247.64-7.8,105-7.53,212.82-4.66,312.15-40.5,27.42-9.9,54.22-22.9,76.28-42.38C911.51,601,931.33,562,948.26,523c6.28-14.49,14.93-43.45,19.48-70.79a1.92,1.92,0,0,1,1.24-1.51,25.45,25.45,0,0,0,3-1.22c30.64-14.49,45.68-50.41,52.91-84.32C1047.64,258.42,1016.52,140.8,943.41,61.64Z"/>
   </g>
   <path class="cls-2" d="M880.28,96.16C734-51.31,534.19,14.41,467.5,229.76c-1,3.33-3.72,3.44-5.93.26C307.05,7.4,43,1.48,14.07,283.22-28.6,698.57,261.6,765.82,508.17,520.28c2.72-2.71,21.44-3,24.92.28C801.62,776.05,1179.4,443.8,880.28,96.16ZM136.44,440.89C-46.27,264,232.77,95.28,350.43,295.8c4.37,7.46,7.39,17.46,8.27,29.75C366.32,431.72,200.73,503.14,136.44,440.89Zm690.21-89c-64.36,143.47-257.52,111.37-313.13-41.58C500.75,79.78,860.72,93.24,826.65,351.92Z"/>
  </g>
  <path class="cls-5" d="M922.56,754.31c25.84-43.27,40.12-94,49.6-144.63,6.12-32.73,10.36-66.91,3.21-98.53s-28.1-60.2-56.27-64.37C887,442,856.24,468.92,835,498.81,798.5,550,777.26,615.1,775.91,679.74"/>
  <g id="Layer_18" data-name="Layer 18">
   <path class="cls-7" d="M799.87,625c-.57-2.7-1.08-5.41-1.5-8.13-.09-.62-.19-1.24-.27-1.86a6.29,6.29,0,0,1-.11-.74c0,1.49.06.38,0,0-.17-1.36-.32-2.73-.45-4.1a148.89,148.89,0,0,1-.69-15.94,154.28,154.28,0,0,1,1-15.93c.07-.62.14-1.25.22-1.87,0-.32.24-1.63,0,0,0-.24.07-.49.1-.74.21-1.43.43-2.85.67-4.28.45-2.66,1-5.31,1.55-7.94q1.71-7.73,4.18-15.27,1.29-3.95,2.78-7.81c.45-1.18.92-2.35,1.4-3.51.09-.23.19-.46.29-.7.5-1.22-.5,1.14,0-.07l.9-2.08a159.4,159.4,0,0,1,15.89-27.8q1.32-1.85,2.69-3.65c.18-.23.93-1.3.06-.08.22-.31.46-.6.7-.89.46-.6.94-1.19,1.41-1.77q2.87-3.53,5.92-6.86a147.94,147.94,0,0,1,13.06-12.6c2.2-1.88,2.08-5.89,0-7.8a5.65,5.65,0,0,0-7.79,0,158.33,158.33,0,0,0-40,52.8,167.12,167.12,0,0,0-16,64.94,154.27,154.27,0,0,0,3.33,37.67,5.55,5.55,0,0,0,6.77,3.85,5.64,5.64,0,0,0,3.85-6.78Z"/>
  </g>
  <path class="cls-5" d="m353.91 631.71c-51.2 27.11-101.35 6.31-116.75 17.75-16.08 11.94-22.11 33.89-18.77 52.65s14.47 34.79 27 48.79c24.45 27.43 30.47 30.56 63.87 45.24"/>
 </g>
 <g id="Layer_19" data-name="Layer 19">
  <path class="cls-19" d="m473 236.42c32.63-45.32 51.18-99.42 82.46-145.68 5.86-8.68 12.58-17.41 22.13-21.69s22.62-2.45 27.89 6.6c6.42 11-1.5 24.59-9.13 34.8l-61.14 81.85c-15.53 20.8-34.39 43.48-60.29 45.11"/>
 </g>
</svg>
