<svg xmlns="http://www.w3.org/2000/svg" xmlns:xlink="http://www.w3.org/1999/xlink" viewBox="0 0 1000 1000"><defs><style>.cls-1,.cls-12,.cls-2{fill:none;}.cls-2{stroke:#333;stroke-miterlimit:10;stroke-width:2px;}.cls-3{clip-path:url(#clip-path);}.cls-4{fill:#e5e6e6;}.cls-5{clip-path:url(#clip-path-2);}.cls-6{fill:#e32026;}.cls-7{fill:#333;}.cls-8{fill:#936026;}.cls-9{fill:#1d439b;}.cls-10{fill:#9c5097;}.cls-11{fill:#d61772;}.cls-12{stroke:#fff;stroke-width:10px;}.cls-13{fill:#55899b;}.cls-14{fill:#2e162e;}.cls-15{clip-path:url(#clip-path-3);}.cls-16{fill:#2f172e;}</style><clipPath id="clip-path"><path class="cls-1" d="M823.31-117c7.72-56.12,3.26-108.64-7.62-164.2-12.19-62.24-26.81-128.57-71.63-172.15-16.2-15.75-35.58-27.64-55.61-37.69-36.22-18.17-75.53-30.79-115.78-32.48s-81.54,8.07-114.83,31.43c-32.77,23-56.23,57.77-73.68,94.44S354.6-321.91,339.74-284a817.83,817.83,0,0,1-82.5,157.37c-1.61,2.4-3.28,4.92-3.56,7.82s1,5.86,2.3,8.5c12.23,24.1,35.07,41.07,59.67,50.94S366.76-46.06,393-43.14c84.26,9.36,169.52,13.61,253.67,3.26,64.93-8,132.9-27.07,176.63-77.14"/></clipPath><clipPath id="clip-path-2"><path class="cls-2" d="M-139.72,96.16C-286-51.31-485.81,14.41-552.5,229.76c-1,3.33-3.72,3.44-5.93.26C-712.95,7.4-977,1.48-1005.93,283.22c-42.67,415.35,247.53,482.6,494.1,237.06,2.72-2.71,21.44-3,24.92.28C-218.38,776.05,159.4,443.8-139.72,96.16ZM-883.56,440.89C-1066.27,264-787.23,95.28-669.57,295.8c4.37,7.46,7.39,17.46,8.27,29.75C-653.68,431.72-819.27,503.14-883.56,440.89Zm690.21-89c-64.36,143.47-257.52,111.37-313.13-41.58C-519.25,79.78-159.28,93.24-193.35,351.92Z"/></clipPath><clipPath id="clip-path-3"><path class="cls-1" d="M823.31,903c7.72-56.12,3.26-108.64-7.62-164.2-12.19-62.24-26.81-128.57-71.63-172.15-16.2-15.75-35.58-27.64-55.61-37.69-36.22-18.17-75.53-30.79-115.78-32.48s-81.54,8.07-114.83,31.43c-32.77,23-56.23,57.77-73.68,94.44S354.6,698.09,339.74,736a817.83,817.83,0,0,1-82.5,157.37c-1.61,2.4-3.28,4.92-3.56,7.82s1,5.86,2.3,8.5c12.23,24.1,35.07,41.07,59.67,50.94s51.11,13.35,77.36,16.27c84.26,9.36,169.52,13.61,253.67,3.26,64.93-8,132.9-27.07,176.63-77.14"/></clipPath></defs><g id="Flagset2"><g class="cls-3"><path class="cls-4" d="M460.05-30.89c80.68-91.22,94.6-251.14,78.48-368.87-15.4-52-22.1-114.34,35.49-136.15C745.21-626,889.73-483.12,866.46-300.49c-23.21,80.44,2.07,178.14-41.89,248.7C768.61,35.73,480.67,88.32,466-40.55"/></g></g><g id="Layer_12" data-name="Layer 12"><g id="Layer_17" data-name="Layer 17"><g class="cls-5"><path class="cls-6" d="M-416.16-631.17c51.76-10.54,103.54-21,155.26-31.74,4.44-.92,5.87-.21,7.07,5.06Q-119.65-66.34,14.8,525.11,77.85,802.57,141,1080c1.2,5.27.2,6.48-4.25,7.37-51.8,10.35-103.55,21-155.32,31.5Z"/><path class="cls-7" d="M-76.59,61.64c-8.42-9.12-17.47-17.83-28.17-23.9-9.67-5.48-20.4-8.62-31-11.73-61.91-18.1-124.54-36.32-188.85-38.84-8.61-.34-18.37.09-24.12,6.7s-1.35,20.59,7.08,18.78l-3-.37c60.39,4.9,118,26.5,160.92,70.49s86.59,98,108.79,156c18.73,49,22.45,88.63,20.2,140.83,0,1.22-5.25,27.1-6,28l-11.58,33.22a202,202,0,0,1-27.77,52.91c-45.33,62-46.91,52.2-73.53,72.29-10.72,8.1-63.55,30.36-101.43,30.36-70.7,0-151.47-10.32-194-68.46-14.49-19.8-29.34-44.5-53.35-46.34-24.64-1.89-43.07,21.47-59.21,40.73C-659.26,615-789.1,657.21-904.32,627.85a1.93,1.93,0,0,0-2.31,2.36c6.2,26,24.61,48.27,46.88,62.51,25,16,54.48,23,83.7,26.8,82.09,10.7,165.09-1.88,247.64-7.8,105-7.53,212.82-4.66,312.15-40.5,27.42-9.9,54.22-22.9,76.28-42.38C-108.49,601-88.67,562-71.74,523c6.28-14.49,14.93-43.45,19.48-70.79A1.92,1.92,0,0,1-51,450.66a25.45,25.45,0,0,0,3-1.22C-17.38,435-2.34,399,4.89,365.12,27.64,258.42-3.48,140.8-76.59,61.64Z"/></g><path class="cls-2" d="M-139.72,96.16C-286-51.31-485.81,14.41-552.5,229.76c-1,3.33-3.72,3.44-5.93.26C-712.95,7.4-977,1.48-1005.93,283.22c-42.67,415.35,247.53,482.6,494.1,237.06,2.72-2.71,21.44-3,24.92.28C-218.38,776.05,159.4,443.8-139.72,96.16ZM-883.56,440.89C-1066.27,264-787.23,95.28-669.57,295.8c4.37,7.46,7.39,17.46,8.27,29.75C-653.68,431.72-819.27,503.14-883.56,440.89Zm690.21-89c-64.36,143.47-257.52,111.37-313.13-41.58C-519.25,79.78-159.28,93.24-193.35,351.92Z"/></g></g><g id="Layer_20" data-name="Layer 20"><path class="cls-8" d="M945.28,509.31C917.64,659.46,891.22,809,830.06,953.46c-3.27,7.73,21.63,10.75,25,3C929.58,785.56,959.15,623.92,972.33,459.8"/><path class="cls-9" d="M35,134.74c313,176.67,629.83-218.24,950.39-89Q982.19,304.83,975,565.31c-288.4-161.58-573,189.55-853.9,67.85Q80,386,35,134.74Z"/><path class="cls-10" d="M35,134.74c313,176.67,629.83-218.24,950.39-89q-1.89,155.46-5.25,311.44C678.82,207.84,381.32,576.92,87.59,434.79Q62,285.54,35,134.74Z"/><path class="cls-11" d="M35,134.74c313,176.67,629.83-218.24,950.39-89q-1.26,103.64-3.18,207.52c-307.69-142.86-611.63,235-911.79,81.88Q53,235.29,35,134.74Z"/><path class="cls-12" d="M975,565.31q4.35-156.22,7.21-312.06h0q1.92-103.87,3.18-207.52C664.78-83.5,348,311.41,35,134.74Q53,235.3,70.37,335.13h0q26.07,149.75,50.68,298C401.92,754.86,686.55,403.73,975,565.31Z"/></g><g id="Layer_21" data-name="Layer 21"><path class="cls-13" d="M823.31,903c7.72-56.12,3.26-108.64-7.62-164.2-12.19-62.24-26.81-128.57-71.63-172.15-16.2-15.75-35.58-27.64-55.61-37.69-36.22-18.17-75.53-30.79-115.78-32.48s-81.54,8.07-114.83,31.43c-32.77,23-56.23,57.77-73.68,94.44S354.6,698.09,339.74,736a817.83,817.83,0,0,1-82.5,157.37c-1.61,2.4-3.28,4.92-3.56,7.82s1,5.86,2.3,8.5c12.23,24.1,35.07,41.07,59.67,50.94s51.11,13.35,77.36,16.27c84.26,9.36,169.52,13.61,253.67,3.26,64.93-8,132.9-27.07,176.63-77.14"/><ellipse class="cls-14" cx="465.23" cy="741.21" rx="52.8" ry="54.39"/><path class="cls-13" d="M791.13,692.4c20.91-4.12,43.08-2.64,63.91,1.75,26.18,5.52,52.66,17.14,63.23,37.12,10.4,19.65,2.61,43.05-13,60.33s-38,29.7-60,41.76l-76.05,41.76"/><g class="cls-15"><path class="cls-4" d="M460.05,989.11c80.68-91.22,94.6-251.14,78.48-368.87-15.4-52-22.1-114.34,35.49-136.15C745.21,394,889.73,536.88,866.46,719.51c-23.21,80.44,2.07,178.14-41.89,248.7-56,87.52-343.9,140.11-358.54,11.24"/></g><path class="cls-16" d="M586.36,585.78a4.47,4.47,0,0,0,.34.76c-.07,0-.62-1.52-.18-.4l.54,1.36c.39,1,.75,2.1,1.09,3.17.66,2.06,1.21,4.15,1.69,6.27s.87,4.12,1.22,6.2c.18,1.05.34,2.09.5,3.14l.21,1.48.12.84c.2,1.45-.15-1.13,0-.27,1.16,9.06,2,18.22,4,27.14a75.43,75.43,0,0,0,5.17,15,6.46,6.46,0,0,0,5.67,3.25,6.67,6.67,0,0,0,5.67-3.25l21.46-35.14,5.33-8.73c.4-.65.79-1.31,1.2-2,.18-.28.36-.56.55-.83.68-1,.17.21-.19.22.1,0,.58-.59.68-.7.57-.64-1.37.92-.25.22s-1.06.22-.25.11c1.64-.21-1.28-.15,0,0,.27,0,.56,0,.83,0,1.45,0-1.5-.4-.09,0,.62.18,1.25.3,1.86.49,1.56.48,3.1,1,4.64,1.55q4.84,1.62,9.73,3.14,9.52,3,19.16,5.58c6.58,1.78,13.62,4.16,20.51,3.81s13.77-3.54,17.22-9.73a17.29,17.29,0,0,0,1.64-11.94,50.37,50.37,0,0,0-2.81-8.61,151,151,0,0,0-20.28-37,7.2,7.2,0,0,0-3.92-3,6.71,6.71,0,0,0-5.06.66c-2.71,1.75-4.57,6.05-2.36,9a144.85,144.85,0,0,1,10,15.07c1.46,2.56,2.85,5.15,4.16,7.79.62,1.26,1.23,2.52,1.81,3.8.28.6.55,1.2.82,1.81.18.41.36.81.53,1.22s.87,1.59,0,.06A32.59,32.59,0,0,1,701,591.5c.53,1.38,1,2.77,1.52,4.16a38.34,38.34,0,0,1,1.29,4.45c.3,1.32-.07-.38,0-.37s0,1.24,0,1.38c0,.73-.44.62.11-.57a8.16,8.16,0,0,0-.25,1l-.11.33q-.35,1,.27-.6a4,4,0,0,0-.31.62c-.17.31-.37.59-.56.89-.36.58-.44,0,.38-.5a10.48,10.48,0,0,0-1.23,1.26c-.72.72.38-.29.49-.35-.35.17-.69.49-1,.7a11.37,11.37,0,0,0-1.42.77l.91-.38-.67.25-.67.22a17.94,17.94,0,0,0-2,.42l.81-.12c-.23,0-.47,0-.7.06-.55,0-1.1.05-1.65,0s-1.41-.06-2.12-.13l-.23,0c-.74-.09-.63-.07.33.05a5.59,5.59,0,0,0-.94-.15c-1.73-.3-3.44-.72-5.13-1.14q-4.73-1.2-9.4-2.49-9.51-2.61-18.9-5.57-4.65-1.47-9.26-3c-3.22-1.08-6.52-2.32-10-2.15-4.74.22-8.2,2.71-10.86,6.48-1.81,2.57-3.34,5.38-5,8.06L601,643.87h11.34c-.24-.5-.43-1-.7-1.53,0,0,.53,1.28.26.61l-.31-.78c-.41-1-.79-2.08-1.14-3.14-.69-2-1.27-4.13-1.77-6.23-1-4.18-1.67-8.43-2.27-12.68-.12-.89.18,1.37.06.48,0-.21,0-.42-.08-.63l-.21-1.69c-.15-1.13-.28-2.26-.42-3.39-.27-2.19-.53-4.38-.82-6.56-.62-4.71-1.28-9.42-2.29-14.06a78.8,78.8,0,0,0-5-15.12,6.59,6.59,0,0,0-3.93-3,6.73,6.73,0,0,0-5.06.67,6.58,6.58,0,0,0-3,3.92,7.54,7.54,0,0,0,.66,5.06Z"/></g></svg>