<svg xmlns="http://www.w3.org/2000/svg" xmlns:xlink="http://www.w3.org/1999/xlink" viewBox="0 0 1000 1000"><defs><style>.cls-1,.cls-8{fill:none;}.cls-2{fill:#936026;}.cls-3{clip-path:url(#clip-path);}.cls-4{fill:#231f20;stroke:#fff;stroke-width:0.83px;}.cls-4,.cls-5,.cls-8{stroke-miterlimit:10;}.cls-5,.cls-7{fill:#fff;}.cls-5,.cls-8{stroke:#231f20;}.cls-5{stroke-width:0.94px;}.cls-6{fill:#010101;}.cls-8{stroke-width:0.96px;}.cls-9{fill:#55899b;}.cls-10{fill:#2e162e;}.cls-11{clip-path:url(#clip-path-2);}.cls-12{fill:#e5e6e6;}.cls-13{fill:#2f172e;}</style><clipPath id="clip-path"><path class="cls-1" d="M10.48,140C330,325.7,653.51-94.55,981.09,43.31q-4.22,271.94-12.33,545.14C673.79,418.66,382.86,792.77,96,663Q55.17,403.43,10.48,140Z"/></clipPath><clipPath id="clip-path-2"><path class="cls-1" d="M843.71,914.85c6.38-44.62,2.7-86.39-6.29-130.57-10.08-49.49-22.17-102.24-59.21-136.9-13.39-12.52-29.41-22-46-30-29.94-14.45-62.43-24.49-95.7-25.83s-67.39,6.41-94.91,25c-27.09,18.29-46.48,45.94-60.9,75.1S456.31,751.93,444,782a641.52,641.52,0,0,1-68.18,125.14c-1.33,1.91-2.72,3.92-2.94,6.22s.79,4.66,1.9,6.76c10.1,19.17,29,32.66,49.31,40.51s42.25,10.62,63.94,12.93c69.65,7.45,140.12,10.83,209.68,2.6,53.66-6.35,109.84-21.52,146-61.35"/></clipPath></defs><g id="Layer_20" data-name="Layer 20"><path class="cls-2" d="M945.28,509.31C917.64,659.46,891.22,809,830.06,953.46c-3.27,7.73,21.63,10.75,25,3C929.58,785.56,959.15,623.92,972.33,459.8"/><g class="cls-3"><path class="cls-4" d="M10.48,140C330,325.7,653.51-94.55,981.09,43.31q-4.22,271.94-12.33,545.14C673.79,418.66,382.86,792.77,96,663Q55.17,403.43,10.48,140Z"/><path class="cls-5" d="M30.73,305.12c308.91,176.32,621.86-229,938.84-90.05q-1.71,92.26-3.87,184.66C659.78,249.8,357.9,639.77,60.05,483Q45.62,394.32,30.73,305.12Z"/><path class="cls-6" d="M435.81,320.72c11.59-4.31,22.4-8.45,33.21-12.65,1.65-.64,3.3-1.06,5.61-1.79,5.46,27.27,10.76,54.32,16.2,82.59.49-30.45,1-59.6,1.49-89.34q19.41-7.66,38.85-15.37C528,330,525,375.48,522,421.57c-17.38,6.81-34.21,13.55-51.06,19.73-1.37.53-3.83-1.22-4.21-2.75-8.84-34-17.67-68-26.72-102C438.62,331.62,437.35,326.65,435.81,320.72Z"/><path class="cls-6" d="M715.56,309.2q16.49-3.61,33-6.24c.1,4.19.1,8.28.27,12.34.15,3.46-.07,7.15,1,10.24.71,2.12,3.39,5,5.06,4.68a10.93,10.93,0,0,0,6.75-5.28c3.77-8.51.2-20.58-7.16-24.85-6.38-3.69-12.81-7.33-19.75-9.77-20.18-7-23.83-23.15-22.16-43.3,1.21-14.59,9.57-24.92,23.85-30.69,13.23-5.3,26.46-7.11,39.31-3.33,9.83,2.9,15.83,9.18,16.46,19.76.34,5.76,1.1,11.49,1.73,17.88-11.68.78-23.35,2-35,3.7-.1-4.85.36-9.65-.53-14-.47-2.29-3.31-3.85-5.11-5.71-2.1,2.2-5.41,4.27-6.07,6.67-2.76,10,.59,16.33,9.41,20.58,7.92,3.83,15.86,7.85,23.65,12.26,9.36,5.32,14.75,13.62,15.61,24.61.49,6.29,1.36,12.6,1.09,18.89-.78,18.28-8,27.43-26.1,32.25a104.32,104.32,0,0,1-29.37,3.56c-15.39-.41-23.31-8-25.26-22.83C715.4,324,715.78,316.86,715.56,309.2Z"/><path class="cls-6" d="M650.59,292.43q.54,12.49,1.07,25-11,3.45-22.08,7.17.69,14.87,1.38,29.73,12.66-4.21,25.33-8.09.54,13,1.06,26.07c-20.28,6.11-40.53,13-60.77,20.31q-3.5-65.52-7.24-130.88c20.07-7.46,40.15-14.55,60.25-21q.57,12.79,1.13,25.59-11.78,3.72-23.55,7.75l1.23,25.57Q639.5,295.93,650.59,292.43Z"/><path class="cls-6" d="M294.79,469.23l3,25.41a479.18,479.18,0,0,1-56.44,7.45q-8.44-64.77-17.16-129.59c12-.6,23.93-1.72,35.9-3.29q6.6,51.81,13,103.62Q284,471.27,294.79,469.23Z"/><path class="cls-6" d="M391.08,470.1q-17.37,5.7-34.73,10.69-6.86-64.44-14-128.83,17.85-4.92,35.71-10.7Q384.73,405.64,391.08,470.1Z"/><path class="cls-7" d="M218.56,333.61q-8.82-65-17.9-130.12c21.33.43,42.33-1.6,63.34-2.8,11.65-.69,19.27,6.23,22.68,16.09a95.1,95.1,0,0,1,3,12.21c2.37,11.6.76,22.34-16.63,28.69,20.29.32,24.62,11.05,25.95,24.54a209.77,209.77,0,0,1,1.45,23.43c-.15,10.56-5.22,17.65-16.33,20.1C262.58,330.41,240.85,332.64,218.56,333.61Zm29.14-60.24q2.3,17.58,4.56,35.14c9.33-.34,10.95-1.73,10.59-9.34-.31-6-1.45-11.9-2-17.92-.63-7.1-4.67-9.61-13.14-7.88Zm-6.4-48.83,3.63,27.58c9.43.07,10.93-1.24,10.56-8.93a71.18,71.18,0,0,0-1.41-11.91c-1.65-7.56-3.12-8.14-12.75-6.74Z"/><path class="cls-7" d="M699.93,52.19q18.55-4.94,37.12-8.84.72,23.81,1.41,47.62l1.68,0c3.08-10.89,6.23-21.75,9.26-32.61,5.19-18.55,5.16-18.84,25-21.75q7.95-1.11,15.9-2c-6.11,19.08-11.65,37.49-17.83,55.83a22.63,22.63,0,0,0,.22,16.12c7,19.06,13.52,38.51,20.08,58.12.58,1.72,1.07,3.48,1.72,5.74-12.71,1-25.4,2.53-38.09,4.53q-7.53-25.32-15.25-50.36l-1.2.37q.74,26.24,1.42,52.5-18.33,3.42-36.64,8Q702.45,118.73,699.93,52.19Z"/><path class="cls-7" d="M480.9,264.88q-19,7.49-38.08,14.71c2.34-45.33,4.76-90.29,7.27-135.8,18.35-7.08,36.71-14.4,55.08-21.75,10.54,39.93,20.73,80,30.85,120.84q-18.84,7.44-37.65,14.93c-1.27-7-2.54-13.91-3.9-21.3l-12.94,5.11Zm10.46-52.15c-3.13-16.41-6.17-32.17-9.25-47.93l-1,.3q-1.22,26.31-2.42,52.62Q485,215.25,491.36,212.73Z"/><path class="cls-7" d="M657.62,122.81c-13,4.1-25.9,8.49-38.85,13.08-.38-7.31-.71-14.47-1.15-21.58-.26-3.83-.24-7.87-1.41-11.19-.61-1.68-3.73-3.33-5.38-2.63A13.83,13.83,0,0,0,604.7,107c-1.19,3.28-1,6.68-.85,9.79q1.73,32.92,3.68,65.76c.15,2.69.24,5.71,1.57,7.57s4.14,2.23,6.34,3.26c1.83-2.63,5.1-5.6,5.23-7.79.45-7.93-.18-15.59-.36-23.36a38.39,38.39,0,0,1,.32-4.45q18.54-6.52,37.08-12.4c.79,12.11,2,24-2.45,36.91-5,14.37-16.71,23.85-30.23,30a104.32,104.32,0,0,1-26.15,7.67c-14.4,2.23-24.73-2.64-26.24-16-2.9-25.53-5.22-51.37-5.89-77.73-.45-16.94,9.86-30.9,28.13-41.43,13.54-7.78,27.3-12.27,40.4-10.41,9.05,1.28,15.86,5.4,17.52,14.29C654.82,99.62,656,110.93,657.62,122.81Z"/><path class="cls-7" d="M347.93,311.49q-7-64.11-14.33-128.17,18.72-5.19,37.47-11.28c.26,2.39.51,4.78.77,7.18,3.11,29.42,6.41,58.78,9.06,88.36.58,6.39,3.05,7.49,9.49,4.68,4.47-1.93,9.1-3.18,14-4.91l2.46,25.18C387.21,299.45,367.56,305.86,347.93,311.49Z"/><path class="cls-7" d="M262,673.3c-.45-2.55-.95-4.71-1.23-6.89-4.88-38.84-9.76-77.69-15-116.53-.69-5.36.72-7,6.19-7.34a356.34,356.34,0,0,0,38.7-4.93c5.15,18.61,10.18,36.7,15.07,54.77l.95-.08c.24-9.88.59-19.75.73-29.66.16-7.89,0-15.78.39-23.7.08-1.66,1.83-4.65,3.1-5,13.79-3.2,27.65-6.51,41.91-10.46q6.88,64.61,13.53,129.27-14.5,4.16-29,7.68-4.28-39.06-8.62-78.1l-1.36.27c-.56,21.68-1.35,43.4-1.56,65-.16,16.55.14,16.59-16.4,19.5-3.91.67-5.68-.23-6.72-4C297,641.28,291,619.41,285,597.51a22.39,22.39,0,0,0-3.36-7.06q4.81,39.62,9.54,79.23Q276.59,672,262,673.3Z"/><path class="cls-7" d="M719.17,398.37c19.7-3,38.64-5.45,57.5-5.54,10.82,0,17.61,7.34,19.63,17.41,1.77,8.82,1.75,18.14,1.62,27.25-.15,9.82-5.21,16.3-15.72,18.58,12.84,3.65,16.83,12.72,16.66,24.82-.22,15,.11,30.1.2,45.69-10.54.07-21.07.58-31.59,1.47-.2-2.61-.52-5.27-.6-8q-.61-22.43-1.15-44.84c-.15-6.46-3.49-8.35-10.08-6.6q.48,30.23.92,60.49-17.1,1.89-34.17,5Q720.92,466.19,719.17,398.37Zm36.48,48.18c7.18-.09,10.09-3.69,9.92-10.35-.06-4,0-7.93-.17-11.88-.24-6.35-3.59-8.94-10.29-7.52Z"/><path class="cls-7" d="M467.38,618.43q-17.24,6.51-34.43,12.69c-1.34-7.12-2.69-14.28-4.13-21.9q-6,2.12-11.94,4.18c-.14,7.69-.28,15.56-.44,23.72q-17.47,6-34.94,11.39c.13-8.28.21-16.33.44-24.4,1.16-34.71,2.48-69.45,3.65-104.23.16-4.32,1.2-6.79,6.19-8.3,13.23-4,26.44-8.69,39.64-13.62,3.82-1.39,5.93-1.31,6.91,2.57,9.65,38.32,19.27,76.58,28.56,114.92A23.23,23.23,0,0,1,467.38,618.43Zm-50.51-77.18-1.76.46c-.4,16-.79,32.07-1.18,48.24q5.88-2,11.75-4.1C422.73,570.74,419.84,556,416.87,541.25Z"/><path class="cls-7" d="M638.45,421.08c19.45-6.24,38.92-11.87,58.41-16.58q.4,13.23.8,26.47-11.16,2.64-22.29,5.69l.87,25.39q10.32-2.78,20.67-5.23l.75,25.79Q687.33,485,677,487.76l1,29.37q12.16-3.18,24.34-5.9.36,13.47.71,27c-19.72,4.31-39.42,9.64-59.1,15.67Q641.31,487.4,638.45,421.08Z"/><path class="cls-7" d="M533.19,459.89q.84,12.64,1.67,25.31l-20.5,8q3.66,52.17,7.17,104.43-17.11,6.63-34.2,13.22-3.88-51.86-7.94-103.63-10.33,4-20.66,7.88-1.05-12.75-2.12-25.51C482.11,480,507.63,469.84,533.19,459.89Z"/><path class="cls-7" d="M607,566q-17.09,5.91-34.14,12.25-2.9-52.44-6-104.8-10.38,3.92-20.74,7.92L544.48,455c25.42-9.83,50.87-19.4,76.35-28q.61,13,1.22,26.1-10.12,3.41-20.25,7Q604.49,513,607,566Z"/></g><path class="cls-8" d="M10.48,140C330,325.7,653.51-94.55,981.09,43.31q-4.22,271.94-12.33,545.14C673.79,418.66,382.86,792.77,96,663Q55.17,403.43,10.48,140Z"/></g><g id="Layer_21" data-name="Layer 21"><path class="cls-9" d="M843.71,914.85c6.38-44.62,2.7-86.39-6.29-130.57-10.08-49.49-22.17-102.24-59.21-136.9-13.39-12.52-29.41-22-46-30-29.94-14.45-62.43-24.49-95.7-25.83s-67.39,6.41-94.91,25c-27.09,18.29-46.48,45.94-60.9,75.1S456.31,751.93,444,782a641.52,641.52,0,0,1-68.18,125.14c-1.33,1.91-2.72,3.92-2.94,6.22s.79,4.66,1.9,6.76c10.1,19.17,29,32.66,49.31,40.51s42.25,10.62,63.94,12.93c69.65,7.45,140.12,10.83,209.68,2.6,53.66-6.35,109.84-21.52,146-61.35"/><ellipse class="cls-10" cx="547.75" cy="786.21" rx="43.64" ry="43.25"/><path class="cls-9" d="M817.11,747.4c17.29-3.28,35.61-2.1,52.83,1.39,21.64,4.39,43.52,13.63,52.26,29.52,8.6,15.62,2.16,34.23-10.76,48S880,849.9,861.83,859.49L799,892.7"/><g class="cls-11"><path class="cls-12" d="M543.47,983.35c66.68-72.54,78.19-199.71,64.86-293.33-12.72-41.34-18.27-90.93,29.34-108.27,141.49-71.63,260.94,42,241.71,187.21-19.18,64,1.71,141.66-34.63,197.76-46.25,69.61-284.24,111.42-296.34,8.95"/></g><path class="cls-13" d="M648,662.66c.1.23.92,1.89.3.66a14,14,0,0,1,.61,1.56c.39,1,.74,2.11,1.06,3.18.64,2.15,1.15,4.33,1.58,6.53s.74,4.16,1,6.26c0,.26.3,2.14.1.69.08.56.14,1.12.22,1.69l.42,3.38c1.21,9.48,2.6,18.82,6.8,27.52,1.82,3.78,7.2,3.13,9.19,0L687.17,686l4.5-7.1c.3-.47.6-.94.91-1.41.11-.15.6-.81.13-.22s0,0,.18-.17.76-.62.15-.19c-.85.6.61-.41-.19.1-.57.36.12,0,.32-.06.4-.09.27-.07-.4.05a4.3,4.3,0,0,1,.62,0c.2,0,1,.17.33,0s.17.06.35.11c.56.13,1.11.29,1.66.46l3.85,1.25q4,1.26,7.93,2.45,7.95,2.38,16,4.46c5.32,1.37,11,3.21,16.55,2.85s11-2.82,13.88-7.74c3.16-5.43,1.15-11.15-1-16.5a123.17,123.17,0,0,0-17.57-30.47c-1.72-2.2-5.74-1.94-7.52,0-2.15,2.34-1.84,5.18,0,7.53.61.78.09.12,0,0l.54.7,1,1.42q1.1,1.51,2.16,3.06,2,3,3.89,6.13A114.39,114.39,0,0,1,742,665.36c.06.15.42,1,.16.38s.09.22.15.38l.66,1.63c.45,1.16.9,2.33,1.31,3.51.2.58.39,1.16.55,1.75.08.29.14.59.21.89.12.49.35.51,0-.07a3,3,0,0,1,0,.9c0,1-.17-.26.05-.27,0,0-.18.73-.17.67-.23.92.41-.68.08-.15-.1.17-.93,1.41-.41.78s-.34.33-.52.51a3.6,3.6,0,0,1-.53.47c.09,0,.9-.61.22-.18-.32.21-1.4.6-1.57.9.06-.09,1.2-.42.27-.12l-.69.23c-.42.13-.85.2-1.27.31-.79.19.84,0,0,0-.31,0-.61,0-.92.06a20.82,20.82,0,0,1-2.09,0c-.3,0-2-.28-.91-.08-.61-.11-1.23-.21-1.85-.34-1.31-.26-2.61-.59-3.91-.91q-3.92-1-7.81-2-7.66-2.05-15.25-4.37-3.85-1.17-7.68-2.42c-2.73-.89-5.54-1.73-8.44-1.34-3.47.46-5.94,2.38-7.94,5.17-1.44,2-2.68,4.17-4,6.26l-19.61,30.89h9.19c-.25-.51-.48-1-.71-1.53s-.22-.51,0,.11l-.3-.77c-.41-1-.77-2.1-1.1-3.16a66.51,66.51,0,0,1-1.65-6.5c-.43-2.07-.77-4.15-1.08-6.24l-.24-1.68c-.08-.62-.07-.57,0,.15,0-.28-.07-.56-.11-.85-.14-1.12-.28-2.25-.43-3.37-1.2-9.51-2.53-18.85-6.57-27.63-1.17-2.54-5-3.36-7.29-1.91a5.47,5.47,0,0,0-1.9,7.28Z"/></g></svg>