<svg xmlns="http://www.w3.org/2000/svg" xmlns:xlink="http://www.w3.org/1999/xlink" viewBox="0 0 1000 1000"><defs><style>.cls-1,.cls-15,.cls-16{fill:none;}.cls-2{fill:#936026;}.cls-3{fill:#6d2a7f;}.cls-4{fill:#2e59a5;}.cls-5{fill:#78b943;}.cls-6{fill:#efe41f;}.cls-7{fill:#f18821;}.cls-8{fill:#e12726;}.cls-9{fill:#010101;}.cls-10{fill:#945724;}.cls-11{fill:#7ccce4;}.cls-12{fill:#f4afc8;}.cls-13{fill:#fff;}.cls-14{fill:#fcd812;}.cls-15{stroke:#67358c;}.cls-15,.cls-16{stroke-miterlimit:10;stroke-width:13.1px;}.cls-16{stroke:#fff;}.cls-17{fill:#55899b;}.cls-18{fill:#2e162e;}.cls-19{clip-path:url(#clip-path);}.cls-20{fill:#e5e6e6;}.cls-21{fill:#2f172e;}</style><clipPath id="clip-path"><path class="cls-1" d="M823.31,903c7.72-56.12,3.26-108.64-7.62-164.2-12.19-62.24-26.81-128.57-71.63-172.15-16.2-15.75-35.58-27.64-55.61-37.69-36.22-18.17-75.53-30.79-115.78-32.48s-81.54,8.07-114.83,31.43c-32.77,23-56.23,57.77-73.68,94.44S354.6,698.09,339.74,736a817.83,817.83,0,0,1-82.5,157.37c-1.61,2.4-3.28,4.92-3.56,7.82s1,5.86,2.3,8.5c12.23,24.1,35.07,41.07,59.67,50.94s51.11,13.35,77.36,16.27c84.26,9.36,169.52,13.61,253.67,3.26,64.93-8,132.9-27.07,176.63-77.14"/></clipPath></defs><g id="Layer_2" data-name="Layer 2"><path class="cls-2" d="M945.28,509.31C917.64,659.46,891.22,809,830.06,953.46c-3.27,7.73,21.63,10.75,25,3C929.58,785.56,959.15,623.92,972.33,459.8"/><path class="cls-3" d="M967.76,551.84C675.46,393.22,387.84,756,104.92,630.18Q67.27,390.41,26.37,147.68C340.85,321.42,660-84.64,983.88,49Q977.45,300,967.76,551.84Z"/><path class="cls-4" d="M970.9,467.94C673.34,313.13,380.46,683.25,92.28,550.18Q60.46,350,26.37,147.68C340.85,321.42,660-84.64,983.88,49Q978.52,258.17,970.9,467.94Z"/><path class="cls-5" d="M973.86,384.07C671,233.21,372.9,610.66,79.46,470Q53.65,309.55,26.37,147.68C340.85,321.42,660-84.64,983.88,49Q979.59,216.32,973.86,384.07Z"/><path class="cls-6" d="M976.64,300.23c-308.09-146.75-611.48,238-910.18,89.47q-19.63-120.61-40.09-242C340.85,321.42,660-84.64,983.88,49Q980.67,174.48,976.64,300.23Z"/><path class="cls-7" d="M979.23,216.42c-313.34-142.49-622,249.41-925.95,92.79Q40,228.63,26.37,147.68C340.85,321.42,660-84.64,983.88,49Q981.74,132.64,979.23,216.42Z"/><path class="cls-8" d="M981.65,132.66C663-5.45,349.13,393.58,39.92,228.54q-6.73-40.38-13.55-80.86C340.85,321.42,660-84.64,983.88,49Q982.8,90.79,981.65,132.66Z"/><path class="cls-9" d="M967.76,551.84c-76.83-42-153.33-47.57-229.51-35.47C652.12,449.27,561.49,409,466.35,365.71,549.29,254.88,637,136.54,729.49,35,814,15.8,898.76,13.52,983.88,49Q977.45,300,967.76,551.84Z"/><path class="cls-10" d="M967.76,551.84c-58.9-32.21-117.61-43-176.13-40.82-85.33-78.3-175.16-124.29-269.5-166.91C606.2,231.77,695.05,116.86,788.68,24.59c64.87-7.8,129.94-2.81,195.2,24.36Q977.45,300,967.76,551.84Z"/><path class="cls-11" d="M967.76,551.84c-41.12-22.48-82.14-34.53-123.07-39C760.15,421.17,671.1,367.17,577.55,322.75,662.76,211.09,752.74,101.91,847.49,21.28c45.37.54,90.83,8.7,136.39,27.67Q977.45,300,967.76,551.84Z"/><path class="cls-12" d="M967.76,551.84a334.43,334.43,0,0,0-69.63-28.64c-83.74-107.33-172-171.74-264.74-220.43C719.73,194.05,810.84,93,906.73,26.57A356,356,0,0,1,983.88,49Q977.45,300,967.76,551.84Z"/><path class="cls-13" d="M967.76,551.84q-8.12-4.43-16.22-8.33c-82.9-125.16-170.3-202.31-262.21-257.73C776.76,182.27,869,91.75,965.91,42q9,3.19,18,6.93Q977.45,300,967.76,551.84Z"/><path class="cls-14" d="M969.16,515.11c-71.31-111.46-145.9-186.7-223.78-241.86,75.7-82,154.88-150.48,237.54-187.66Q977.24,300.08,969.16,515.11Z"/><path class="cls-15" d="M953.23,290c-.87,29.46-29.11,41.28-62.94,34.64-33.83-6.84-61.16-29.83-61.17-58.6,0-28.49,28-52.56,62.73-46.5C926.57,225.41,954.11,260.66,953.23,290Z"/><path class="cls-16" d="M967.76,551.84q3.93-102,7.32-204,.79-23.81,1.56-47.59h0q2.68-83.84,5-167.57h0q.18-6.8.37-13.59.47-16.74.9-33.48h0q.5-18.33,1-36.64-9-3.75-18-6.93h0A363.24,363.24,0,0,0,847.49,21.28h0c-39.41-.47-78.74,4.8-118,13.74h0C492.57,89.33,258.19,275.21,26.37,147.68q34.1,202.38,65.91,402.5h0q6.36,40.05,12.64,80c225.91,99.94,454.82-110,686.71-119.16h0c35.43-1.31,70.93,2.12,106.5,12.18h0A334.43,334.43,0,0,1,967.76,551.84Z"/></g><g id="Layer_5" data-name="Layer 5"><g id="Layer_6" data-name="Layer 6"><path class="cls-17" d="M823.31,903c7.72-56.12,3.26-108.64-7.62-164.2-12.19-62.24-26.81-128.57-71.63-172.15-16.2-15.75-35.58-27.64-55.61-37.69-36.22-18.17-75.53-30.79-115.78-32.48s-81.54,8.07-114.83,31.43c-32.77,23-56.23,57.77-73.68,94.44S354.6,698.09,339.74,736a817.83,817.83,0,0,1-82.5,157.37c-1.61,2.4-3.28,4.92-3.56,7.82s1,5.86,2.3,8.5c12.23,24.1,35.07,41.07,59.67,50.94s51.11,13.35,77.36,16.27c84.26,9.36,169.52,13.61,253.67,3.26,64.93-8,132.9-27.07,176.63-77.14"/><ellipse class="cls-18" cx="465.23" cy="741.21" rx="52.8" ry="54.39"/><path class="cls-17" d="M791.13,692.4c20.91-4.12,43.08-2.64,63.91,1.75,26.18,5.52,52.66,17.14,63.23,37.12,10.4,19.65,2.61,43.05-13,60.33s-38,29.7-60,41.76l-76.05,41.76"/><g class="cls-19"><path class="cls-20" d="M460.05,989.11c80.68-91.22,94.6-251.14,78.48-368.87-15.4-52-22.1-114.34,35.49-136.15C745.21,394,889.73,536.88,866.46,719.51c-23.21,80.44,2.07,178.14-41.89,248.7-56,87.52-343.9,140.11-358.54,11.24"/></g><path class="cls-21" d="M586.36,585.78a4.47,4.47,0,0,0,.34.76c-.07,0-.62-1.52-.18-.4l.54,1.36c.39,1,.75,2.1,1.09,3.17.66,2.06,1.21,4.15,1.69,6.27s.87,4.12,1.22,6.2c.18,1.05.34,2.09.5,3.14l.21,1.48.12.84c.2,1.45-.15-1.13,0-.27,1.16,9.06,2,18.22,4,27.14a75.43,75.43,0,0,0,5.17,15,6.46,6.46,0,0,0,5.67,3.25,6.67,6.67,0,0,0,5.67-3.25l21.46-35.14,5.33-8.73c.4-.65.79-1.31,1.2-2,.18-.28.36-.56.55-.83.68-1,.17.21-.19.22.1,0,.58-.59.68-.7.57-.64-1.37.92-.25.22s-1.06.22-.25.11c1.64-.21-1.28-.15,0,0,.27,0,.56,0,.83,0,1.45,0-1.5-.4-.09,0,.62.18,1.25.3,1.86.49,1.56.48,3.1,1,4.64,1.55q4.84,1.62,9.73,3.14,9.52,3,19.16,5.58c6.58,1.78,13.62,4.16,20.51,3.81s13.77-3.54,17.22-9.73a17.29,17.29,0,0,0,1.64-11.94,50.37,50.37,0,0,0-2.81-8.61,151,151,0,0,0-20.28-37,7.2,7.2,0,0,0-3.92-3,6.71,6.71,0,0,0-5.06.66c-2.71,1.75-4.57,6.05-2.36,9a144.85,144.85,0,0,1,10,15.07c1.46,2.56,2.85,5.15,4.16,7.79.62,1.26,1.23,2.52,1.81,3.8.28.6.55,1.2.82,1.81.18.41.36.81.53,1.22s.87,1.59,0,.06A32.59,32.59,0,0,1,701,591.5c.53,1.38,1,2.77,1.52,4.16a38.34,38.34,0,0,1,1.29,4.45c.3,1.32-.07-.38,0-.37s0,1.24,0,1.38c0,.73-.44.62.11-.57a8.16,8.16,0,0,0-.25,1l-.11.33q-.35,1,.27-.6a4,4,0,0,0-.31.62c-.17.31-.37.59-.56.89-.36.58-.44,0,.38-.5a10.48,10.48,0,0,0-1.23,1.26c-.72.72.38-.29.49-.35-.35.17-.69.49-1,.7a11.37,11.37,0,0,0-1.42.77l.91-.38-.67.25-.67.22a17.94,17.94,0,0,0-2,.42l.81-.12c-.23,0-.47,0-.7.06-.55,0-1.1.05-1.65,0s-1.41-.06-2.12-.13l-.23,0c-.74-.09-.63-.07.33.05a5.59,5.59,0,0,0-.94-.15c-1.73-.3-3.44-.72-5.13-1.14q-4.73-1.2-9.4-2.49-9.51-2.61-18.9-5.57-4.65-1.47-9.26-3c-3.22-1.08-6.52-2.32-10-2.15-4.74.22-8.2,2.71-10.86,6.48-1.81,2.57-3.34,5.38-5,8.06L601,643.87h11.34c-.24-.5-.43-1-.7-1.53,0,0,.53,1.28.26.61l-.31-.78c-.41-1-.79-2.08-1.14-3.14-.69-2-1.27-4.13-1.77-6.23-1-4.18-1.67-8.43-2.27-12.68-.12-.89.18,1.37.06.48,0-.21,0-.42-.08-.63l-.21-1.69c-.15-1.13-.28-2.26-.42-3.39-.27-2.19-.53-4.38-.82-6.56-.62-4.71-1.28-9.42-2.29-14.06a78.8,78.8,0,0,0-5-15.12,6.59,6.59,0,0,0-3.93-3,6.73,6.73,0,0,0-5.06.67,6.58,6.58,0,0,0-3,3.92,7.54,7.54,0,0,0,.66,5.06Z"/></g></g></svg>