<?xml version="1.0" encoding="UTF-8"?>
<svg viewBox="0 0 1e3 1e3" xmlns="http://www.w3.org/2000/svg">
 <defs>
  <style>.cls-1,.cls-12{fill:none;}.cls-2{fill:#936026;}.cls-3{fill:#fff;}.cls-4{fill:#010101;}.cls-5{clip-path:url(#clip-path);}.cls-6{fill:#732a83;}.cls-7{fill:#405fac;}.cls-8{fill:#108140;}.cls-9{fill:#fdec09;}.cls-10{fill:#f78c1e;}.cls-11{fill:#e31e26;}.cls-12{stroke:#231f20;stroke-miterlimit:10;stroke-width:3px;}.cls-13{clip-path:url(#clip-path-2);}.cls-14{fill:#e5e6e6;}.cls-15{fill:#55899b;}.cls-16{fill:#2e162e;}.cls-17{clip-path:url(#clip-path-3);}.cls-18{fill:#2f172e;}</style>
  <clipPath id="clip-path">
   <path class="cls-1" d="M524.9,445.78c-44.61,71.51-87.49,142.27-128.65,209.05C302,682.35,208.19,694.2,114.73,655,226.24,547.76,353.3,345.72,495.91,126.2c173.62,98.6,330.36,205.22,470.23,464.35-95.74-54.45-191.1-52-286.08-29.18C630.21,517.78,578.49,481.13,524.9,445.78Z"/>
  </clipPath>
  <clipPath id="clip-path-2">
   <path class="cls-1" d="M823.31-117c7.72-56.12,3.26-108.64-7.62-164.2-12.19-62.24-26.81-128.57-71.63-172.15-16.2-15.75-35.58-27.64-55.61-37.69-36.22-18.17-75.53-30.79-115.78-32.48s-81.54,8.07-114.83,31.43c-32.77,23-56.23,57.77-73.68,94.44S354.6-321.91,339.74-284a817.83,817.83,0,0,1-82.5,157.37c-1.61,2.4-3.28,4.92-3.56,7.82s1,5.86,2.3,8.5c12.23,24.1,35.07,41.07,59.67,50.94S366.76-46.06,393-43.14c84.26,9.36,169.52,13.61,253.67,3.26,64.93-8,132.9-27.07,176.63-77.14"/>
  </clipPath>
  <clipPath id="clip-path-3">
   <path class="cls-1" d="M823.31,903c7.72-56.12,3.26-108.64-7.62-164.2-12.19-62.24-26.81-128.57-71.63-172.15-16.2-15.75-35.58-27.64-55.61-37.69-36.22-18.17-75.53-30.79-115.78-32.48s-81.54,8.07-114.83,31.43c-32.77,23-56.23,57.77-73.68,94.44S354.6,698.09,339.74,736a817.83,817.83,0,0,1-82.5,157.37c-1.61,2.4-3.28,4.92-3.56,7.82s1,5.86,2.3,8.5c12.23,24.1,35.07,41.07,59.67,50.94s51.11,13.35,77.36,16.27c84.26,9.36,169.52,13.61,253.67,3.26,64.93-8,132.9-27.07,176.63-77.14"/>
  </clipPath>
 </defs>
 <g id="Layer_20" data-name="Layer 20">
  <path class="cls-2" d="m945.28 509.31c-27.64 150.15-54.06 299.69-115.22 444.15-3.27 7.73 21.63 10.75 25 3 74.52-170.9 104.09-332.54 117.27-496.66"/>
  <path class="cls-3" d="M24.14,149.68C336.94,327.21,653.17-62,972.81,63.75q-1,262.46-6.67,526.8c-287.22-162.48-571,183-851.41,64.43Q71.71,404.68,24.14,149.68Z"/>
  <path id="a" class="cls-4" d="M24.14,149.68C336.94,327.21,653.17-62,972.81,63.75q-.16,43.74-.48,87.54C658.09,19,347.27,401.26,39.87,234.6Q32.07,192.23,24.14,149.68Z"/>
  <path id="a-2" class="cls-4" d="M55.35,319.23C357.35,475.43,662.76,100.3,971.6,239q-.44,43.85-1,87.76c-303.43-144.86-603.44,223-900,76.85Q63,361.47,55.35,319.23Z" data-name="a"/>
  <path id="a-3" class="cls-4" d="M85.54,487.62c291.2,136.56,585.81-224,883.83-73.05q-.68,43.95-1.49,87.94C675.26,345.74,386.05,698.76,100.26,571.43Q93,529.6,85.54,487.62Z" data-name="a"/>
  <g class="cls-5">
   <path class="cls-6" d="M24.14,149.68C336.94,327.21,653.17-62,972.81,63.75q-1,262.46-6.67,526.8c-287.22-162.48-571,183-851.41,64.43Q71.71,404.68,24.14,149.68Z"/>
   <path class="cls-7" d="M24.14,149.68C336.94,327.21,653.17-62,972.81,63.75q-.88,218.72-4.93,438.76C675.26,345.74,386.05,698.76,100.26,571.43Q63.78,362.24,24.14,149.68Z"/>
   <path class="cls-8" d="M24.14,149.68C336.94,327.21,653.17-62,972.81,63.75q-.7,175-3.44,350.82c-298-150.91-592.63,209.61-883.83,73.05Q55.86,319.77,24.14,149.68Z"/>
   <path class="cls-9" d="M24.14,149.68C336.94,327.21,653.17-62,972.81,63.75q-.52,131.22-2.2,263c-303.43-144.86-603.44,223-900,76.85Q47.92,277.26,24.14,149.68Z"/>
   <path class="cls-10" d="M24.14,149.68C336.94,327.21,653.17-62,972.81,63.75q-.34,87.48-1.21,175.2C662.76,100.3,357.35,475.43,55.35,319.23Q40,234.75,24.14,149.68Z"/>
   <path id="a-4" class="cls-11" d="M24.14,149.68C336.94,327.21,653.17-62,972.81,63.75q-.16,43.74-.48,87.54C658.09,19,347.27,401.26,39.87,234.6Q32.07,192.23,24.14,149.68Z" data-name="a"/>
  </g>
  <path class="cls-12" d="M680.05,561.37c95-22.8,190.35-25.27,286.09,29.18q4.68-220.18,6.19-439.26h0q.31-43.8.48-87.54C653.17-62,336.94,327.21,24.14,149.68Q40,234.76,55.35,319.23,63,361.46,70.57,403.56h0q7.56,42.1,15,84.06t14.72,83.81h0q7.3,41.84,14.47,83.55c93.46,39.22,187.3,27.37,281.52-.15h0c94.22-27.49,188.82-70.64,283.8-93.46Z"/>
 </g>
 <g id="Layer_21" data-name="Layer 21">
  <g class="cls-13">
   <path class="cls-14" d="M460.05-30.89c80.68-91.22,94.6-251.14,78.48-368.87-15.4-52-22.1-114.34,35.49-136.15C745.21-626,889.73-483.12,866.46-300.49c-23.21,80.44,2.07,178.14-41.89,248.7C768.61,35.73,480.67,88.32,466-40.55"/>
  </g>
  <path class="cls-15" d="M823.31,903c7.72-56.12,3.26-108.64-7.62-164.2-12.19-62.24-26.81-128.57-71.63-172.15-16.2-15.75-35.58-27.64-55.61-37.69-36.22-18.17-75.53-30.79-115.78-32.48s-81.54,8.07-114.83,31.43c-32.77,23-56.23,57.77-73.68,94.44S354.6,698.09,339.74,736a817.83,817.83,0,0,1-82.5,157.37c-1.61,2.4-3.28,4.92-3.56,7.82s1,5.86,2.3,8.5c12.23,24.1,35.07,41.07,59.67,50.94s51.11,13.35,77.36,16.27c84.26,9.36,169.52,13.61,253.67,3.26,64.93-8,132.9-27.07,176.63-77.14"/>
  <ellipse class="cls-16" cx="465.23" cy="741.21" rx="52.8" ry="54.39"/>
  <path class="cls-15" d="m791.13 692.4c20.91-4.12 43.08-2.64 63.91 1.75 26.18 5.52 52.66 17.14 63.23 37.12 10.4 19.65 2.61 43.05-13 60.33s-38 29.7-60 41.76l-76.05 41.76"/>
  <g class="cls-17">
   <path class="cls-14" d="m460.05 989.11c80.68-91.22 94.6-251.14 78.48-368.87-15.4-52-22.1-114.34 35.49-136.15 171.19-90.09 315.71 52.79 292.44 235.42-23.21 80.44 2.07 178.14-41.89 248.7-56 87.52-343.9 140.11-358.54 11.24"/>
  </g>
  <path class="cls-18" d="M586.36,585.78a4.47,4.47,0,0,0,.34.76c-.07,0-.62-1.52-.18-.4l.54,1.36c.39,1,.75,2.1,1.09,3.17.66,2.06,1.21,4.15,1.69,6.27s.87,4.12,1.22,6.2c.18,1.05.34,2.09.5,3.14l.21,1.48.12.84c.2,1.45-.15-1.13,0-.27,1.16,9.06,2,18.22,4,27.14a75.43,75.43,0,0,0,5.17,15,6.46,6.46,0,0,0,5.67,3.25,6.67,6.67,0,0,0,5.67-3.25l21.46-35.14,5.33-8.73c.4-.65.79-1.31,1.2-2,.18-.28.36-.56.55-.83.68-1,.17.21-.19.22.1,0,.58-.59.68-.7.57-.64-1.37.92-.25.22s-1.06.22-.25.11c1.64-.21-1.28-.15,0,0,.27,0,.56,0,.83,0,1.45,0-1.5-.4-.09,0,.62.18,1.25.3,1.86.49,1.56.48,3.1,1,4.64,1.55q4.84,1.62,9.73,3.14,9.52,3,19.16,5.58c6.58,1.78,13.62,4.16,20.51,3.81s13.77-3.54,17.22-9.73a17.29,17.29,0,0,0,1.64-11.94,50.37,50.37,0,0,0-2.81-8.61,151,151,0,0,0-20.28-37,7.2,7.2,0,0,0-3.92-3,6.71,6.71,0,0,0-5.06.66c-2.71,1.75-4.57,6.05-2.36,9a144.85,144.85,0,0,1,10,15.07c1.46,2.56,2.85,5.15,4.16,7.79.62,1.26,1.23,2.52,1.81,3.8.28.6.55,1.2.82,1.81.18.41.36.81.53,1.22s.87,1.59,0,.06A32.59,32.59,0,0,1,701,591.5c.53,1.38,1,2.77,1.52,4.16a38.34,38.34,0,0,1,1.29,4.45c.3,1.32-.07-.38,0-.37s0,1.24,0,1.38c0,.73-.44.62.11-.57a8.16,8.16,0,0,0-.25,1l-.11.33q-.35,1,.27-.6a4,4,0,0,0-.31.62c-.17.31-.37.59-.56.89-.36.58-.44,0,.38-.5a10.48,10.48,0,0,0-1.23,1.26c-.72.72.38-.29.49-.35-.35.17-.69.49-1,.7a11.37,11.37,0,0,0-1.42.77l.91-.38-.67.25-.67.22a17.94,17.94,0,0,0-2,.42l.81-.12c-.23,0-.47,0-.7.06-.55,0-1.1.05-1.65,0s-1.41-.06-2.12-.13l-.23,0c-.74-.09-.63-.07.33.05a5.59,5.59,0,0,0-.94-.15c-1.73-.3-3.44-.72-5.13-1.14q-4.73-1.2-9.4-2.49-9.51-2.61-18.9-5.57-4.65-1.47-9.26-3c-3.22-1.08-6.52-2.32-10-2.15-4.74.22-8.2,2.71-10.86,6.48-1.81,2.57-3.34,5.38-5,8.06L601,643.87h11.34c-.24-.5-.43-1-.7-1.53,0,0,.53,1.28.26.61l-.31-.78c-.41-1-.79-2.08-1.14-3.14-.69-2-1.27-4.13-1.77-6.23-1-4.18-1.67-8.43-2.27-12.68-.12-.89.18,1.37.06.48,0-.21,0-.42-.08-.63l-.21-1.69c-.15-1.13-.28-2.26-.42-3.39-.27-2.19-.53-4.38-.82-6.56-.62-4.71-1.28-9.42-2.29-14.06a78.8,78.8,0,0,0-5-15.12,6.59,6.59,0,0,0-3.93-3,6.73,6.73,0,0,0-5.06.67,6.58,6.58,0,0,0-3,3.92,7.54,7.54,0,0,0,.66,5.06Z"/>
 </g>
</svg>
