<svg xmlns="http://www.w3.org/2000/svg" xmlns:xlink="http://www.w3.org/1999/xlink" viewBox="0 0 1000 1000"><defs><style>.cls-1,.cls-2,.cls-20{fill:none;}.cls-2{stroke:#333;stroke-miterlimit:10;stroke-width:2px;}.cls-3{clip-path:url(#clip-path);}.cls-4{fill:#e5e6e6;}.cls-5{clip-path:url(#clip-path-2);}.cls-6{fill:#e32026;}.cls-7{fill:#f78c1f;}.cls-8{fill:#fdeb1a;}.cls-9{fill:#108141;}.cls-10{fill:#415fab;}.cls-11{fill:#722a83;}.cls-12{fill:#80b842;}.cls-13{fill:#2360ad;}.cls-14{fill:#612d90;}.cls-15{fill:#936026;}.cls-16{fill:#2d2d2c;}.cls-17{fill:#8a5fa8;}.cls-18{fill:#fdfeff;}.cls-19{fill:#f8ed42;}.cls-20{stroke:#fff;stroke-width:10px;}.cls-21{fill:#55899b;}.cls-22{fill:#2e162e;}.cls-23{clip-path:url(#clip-path-3);}.cls-24{fill:#2f172e;}</style><clipPath id="clip-path"><path class="cls-1" d="M310.08-132.64c-13.54-139.07,28.47-263.74,114.73-379.42,26.95-36.14,124.31-126.13,227.9-126.13,128.58,0,187.86,78.3,204.69,103C890-487.17,962.2-319.69,969-235.29c2.77,34.67,9.12,126.7-17.55,151.72C933.71-67,907.78-60.24,883-54.89A1326.56,1326.56,0,0,1,461.53-33.16C426.17-37,390-42.62,359.56-59.35s-54.14-47.05-51.33-79.09"/></clipPath><clipPath id="clip-path-2"><path class="cls-2" d="M880.28-923.84C734-1071.31,534.19-1005.59,467.5-790.24c-1,3.33-3.72,3.44-5.93.26C307.05-1012.6,43-1018.52,14.07-736.78-28.6-321.43,261.6-254.18,508.17-499.72c2.72-2.71,21.44-3,24.92.28C801.62-243.95,1179.4-576.2,880.28-923.84ZM136.44-579.11C-46.27-756,232.77-924.72,350.43-724.2c4.37,7.46,7.39,17.46,8.27,29.75C366.32-588.28,200.73-516.86,136.44-579.11Zm690.21-89c-64.36,143.47-257.52,111.37-313.13-41.58C500.75-940.22,860.72-926.76,826.65-668.08Z"/></clipPath><clipPath id="clip-path-3"><path class="cls-1" d="M823.31,903c7.72-56.12,3.26-108.64-7.62-164.2-12.19-62.24-26.81-128.57-71.63-172.15-16.2-15.75-35.58-27.64-55.61-37.69-36.22-18.17-75.53-30.79-115.78-32.48s-81.54,8.07-114.83,31.43c-32.77,23-56.23,57.77-73.68,94.44S354.6,698.09,339.74,736a817.83,817.83,0,0,1-82.5,157.37c-1.61,2.4-3.28,4.92-3.56,7.82s1,5.86,2.3,8.5c12.23,24.1,35.07,41.07,59.67,50.94s51.11,13.35,77.36,16.27c84.26,9.36,169.52,13.61,253.67,3.26,64.93-8,132.9-27.07,176.63-77.14"/></clipPath></defs><g id="Layer_12" data-name="Layer 12"><g id="Layer_16" data-name="Layer 16"><g class="cls-3"><path class="cls-4" d="M176.13-13.34c165.76-96.95,57.09-393.85,203.69-517.09,170.11-143.88,254.41,103.6,253,266C657.39-117.95,758.27-39.15,715.73,8.79c-146.55,92.84-423,131.63-536.28-27.91"/></g></g><g id="Layer_17" data-name="Layer 17"><g class="cls-5"><path class="cls-6" d="M603.84-1651.17c51.76-10.54,103.54-21,155.26-31.74,4.44-.92,5.87-.21,7.07,5.06q134.18,591.51,268.63,1183Q1097.84-217.44,1161,60c1.2,5.27.2,6.48-4.25,7.37-51.8,10.35-103.55,21-155.32,31.5Z"/><path class="cls-7" d="M603.84-1651.17l397.59,1750L840.61,131.61c-.64-3.2-1.21-6.42-1.94-9.6Q642.07-743.46,445.42-1608.91c-.73-3.18-1.6-6.34-2.41-9.5Z"/><path class="cls-8" d="M443-1618.41c.81,3.16,1.68,6.32,2.41,9.5Q642.05-743.45,838.67,122c.73,3.18,1.3,6.4,1.94,9.6L681,164.11l-397.6-1750Z"/><ellipse class="cls-9" cx="401.18" cy="-694.4" rx="115.15" ry="1268.99" transform="translate(163.96 71.67) rotate(-12.81)"/><ellipse class="cls-10" cx="240.36" cy="-661.65" rx="115.15" ry="1268.99" transform="translate(152.69 36.82) rotate(-12.81)"/><path class="cls-11" d="M358.13,229.86c-51.36,10.46-102.73,20.85-154,31.5-4.44.92-5.88.2-7.07-5.07Q62.68-335.9-71.93-928q-62.88-276.77-125.88-553.51c-1.2-5.27-.2-6.48,4.24-7.37,51.4-10.27,102.75-20.79,154.11-31.25Z"/><ellipse class="cls-12" cx="481.59" cy="-710.78" rx="0.88" ry="1268.98" transform="translate(169.44 89.03) rotate(-12.8)"/><ellipse class="cls-13" cx="320.77" cy="-678.03" rx="0.88" ry="1269.01" transform="translate(158.19 54.22) rotate(-12.8)"/><ellipse class="cls-14" cx="159.94" cy="-645.28" rx="0.88" ry="1269.01" transform="matrix(0.98, -0.22, 0.22, 0.98, 146.94, 19.4)"/></g><path class="cls-2" d="M880.28-923.84C734-1071.31,534.19-1005.59,467.5-790.24c-1,3.33-3.72,3.44-5.93.26C307.05-1012.6,43-1018.52,14.07-736.78-28.6-321.43,261.6-254.18,508.17-499.72c2.72-2.71,21.44-3,24.92.28C801.62-243.95,1179.4-576.2,880.28-923.84ZM136.44-579.11C-46.27-756,232.77-924.72,350.43-724.2c4.37,7.46,7.39,17.46,8.27,29.75C366.32-588.28,200.73-516.86,136.44-579.11Zm690.21-89c-64.36,143.47-257.52,111.37-313.13-41.58C500.75-940.22,860.72-926.76,826.65-668.08Z"/></g></g><g id="Layer_20" data-name="Layer 20"><path class="cls-15" d="M945.28,509.31C917.64,659.46,891.22,809,830.06,953.46c-3.27,7.73,21.63,10.75,25,3C929.58,785.56,959.15,623.92,972.33,459.8"/><path class="cls-16" d="M28.13,129.7C340.94,307.23,657.16-82,976.81,43.77q-1.06,262.44-6.68,526.79c-287.22-162.47-571,183-851.41,64.44"/><path class="cls-17" d="M28.13,129.7C340.94,307.23,657.16-82,976.81,43.77Q976,240.6,972.65,438.55c-295.32-153.87-587.23,202.92-875.72,71"/><path class="cls-18" d="M28.13,129.7C340.94,307.23,657.16-82,976.81,43.77q-.54,131.22-2.2,263c-303.44-144.85-603.45,223-900,76.86"/><path class="cls-19" d="M28.13,129.7C340.94,307.23,657.16-82,976.81,43.77q-.27,65.61-.82,131.35C664.45,39.64,356.33,418.35,51.63,257"/><path class="cls-20" d="M970.13,570.56q1.39-66,2.52-132h0Q976,240.66,976.81,43.77C657.16-82,340.94,307.23,28.13,129.7Q40,193.5,51.63,257h0q11.61,63.46,22.93,126.61h0Q97.21,509.88,118.72,635C399.11,753.52,682.91,408.09,970.13,570.56Z"/></g><g id="Layer_21" data-name="Layer 21"><path class="cls-21" d="M823.31,903c7.72-56.12,3.26-108.64-7.62-164.2-12.19-62.24-26.81-128.57-71.63-172.15-16.2-15.75-35.58-27.64-55.61-37.69-36.22-18.17-75.53-30.79-115.78-32.48s-81.54,8.07-114.83,31.43c-32.77,23-56.23,57.77-73.68,94.44S354.6,698.09,339.74,736a817.83,817.83,0,0,1-82.5,157.37c-1.61,2.4-3.28,4.92-3.56,7.82s1,5.86,2.3,8.5c12.23,24.1,35.07,41.07,59.67,50.94s51.11,13.35,77.36,16.27c84.26,9.36,169.52,13.61,253.67,3.26,64.93-8,132.9-27.07,176.63-77.14"/><ellipse class="cls-22" cx="465.23" cy="741.21" rx="52.8" ry="54.39"/><path class="cls-21" d="M791.13,692.4c20.91-4.12,43.08-2.64,63.91,1.75,26.18,5.52,52.66,17.14,63.23,37.12,10.4,19.65,2.61,43.05-13,60.33s-38,29.7-60,41.76l-76.05,41.76"/><g class="cls-23"><path class="cls-4" d="M460.05,989.11c80.68-91.22,94.6-251.14,78.48-368.87-15.4-52-22.1-114.34,35.49-136.15C745.21,394,889.73,536.88,866.46,719.51c-23.21,80.44,2.07,178.14-41.89,248.7-56,87.52-343.9,140.11-358.54,11.24"/></g><path class="cls-24" d="M586.36,585.78a4.47,4.47,0,0,0,.34.76c-.07,0-.62-1.52-.18-.4l.54,1.36c.39,1,.75,2.1,1.09,3.17.66,2.06,1.21,4.15,1.69,6.27s.87,4.12,1.22,6.2c.18,1.05.34,2.09.5,3.14l.21,1.48.12.84c.2,1.45-.15-1.13,0-.27,1.16,9.06,2,18.22,4,27.14a75.43,75.43,0,0,0,5.17,15,6.46,6.46,0,0,0,5.67,3.25,6.67,6.67,0,0,0,5.67-3.25l21.46-35.14,5.33-8.73c.4-.65.79-1.31,1.2-2,.18-.28.36-.56.55-.83.68-1,.17.21-.19.22.1,0,.58-.59.68-.7.57-.64-1.37.92-.25.22s-1.06.22-.25.11c1.64-.21-1.28-.15,0,0,.27,0,.56,0,.83,0,1.45,0-1.5-.4-.09,0,.62.18,1.25.3,1.86.49,1.56.48,3.1,1,4.64,1.55q4.84,1.62,9.73,3.14,9.52,3,19.16,5.58c6.58,1.78,13.62,4.16,20.51,3.81s13.77-3.54,17.22-9.73a17.29,17.29,0,0,0,1.64-11.94,50.37,50.37,0,0,0-2.81-8.61,151,151,0,0,0-20.28-37,7.2,7.2,0,0,0-3.92-3,6.71,6.71,0,0,0-5.06.66c-2.71,1.75-4.57,6.05-2.36,9a144.85,144.85,0,0,1,10,15.07c1.46,2.56,2.85,5.15,4.16,7.79.62,1.26,1.23,2.52,1.81,3.8.28.6.55,1.2.82,1.81.18.41.36.81.53,1.22s.87,1.59,0,.06A32.59,32.59,0,0,1,701,591.5c.53,1.38,1,2.77,1.52,4.16a38.34,38.34,0,0,1,1.29,4.45c.3,1.32-.07-.38,0-.37s0,1.24,0,1.38c0,.73-.44.62.11-.57a8.16,8.16,0,0,0-.25,1l-.11.33q-.35,1,.27-.6a4,4,0,0,0-.31.62c-.17.31-.37.59-.56.89-.36.58-.44,0,.38-.5a10.48,10.48,0,0,0-1.23,1.26c-.72.72.38-.29.49-.35-.35.17-.69.49-1,.7a11.37,11.37,0,0,0-1.42.77l.91-.38-.67.25-.67.22a17.94,17.94,0,0,0-2,.42l.81-.12c-.23,0-.47,0-.7.06-.55,0-1.1.05-1.65,0s-1.41-.06-2.12-.13l-.23,0c-.74-.09-.63-.07.33.05a5.59,5.59,0,0,0-.94-.15c-1.73-.3-3.44-.72-5.13-1.14q-4.73-1.2-9.4-2.49-9.51-2.61-18.9-5.57-4.65-1.47-9.26-3c-3.22-1.08-6.52-2.32-10-2.15-4.74.22-8.2,2.71-10.86,6.48-1.81,2.57-3.34,5.38-5,8.06L601,643.87h11.34c-.24-.5-.43-1-.7-1.53,0,0,.53,1.28.26.61l-.31-.78c-.41-1-.79-2.08-1.14-3.14-.69-2-1.27-4.13-1.77-6.23-1-4.18-1.67-8.43-2.27-12.68-.12-.89.18,1.37.06.48,0-.21,0-.42-.08-.63l-.21-1.69c-.15-1.13-.28-2.26-.42-3.39-.27-2.19-.53-4.38-.82-6.56-.62-4.71-1.28-9.42-2.29-14.06a78.8,78.8,0,0,0-5-15.12,6.59,6.59,0,0,0-3.93-3,6.73,6.73,0,0,0-5.06.67,6.58,6.58,0,0,0-3,3.92,7.54,7.54,0,0,0,.66,5.06Z"/></g></svg>