<?xml version="1.0" encoding="UTF-8"?>
<svg id="Prior_to_November" data-name="Prior to November" viewBox="0 0 800 800" xmlns="http://www.w3.org/2000/svg">
 <defs>
  <style>.cls-1,.cls-11{fill:none;}.cls-2,.cls-7{fill:#ec3868;}.cls-11,.cls-2{stroke:#381e25;stroke-miterlimit:10;stroke-width:3px;}.cls-3{fill:#54899b;}.cls-4{clip-path:url(#clip-path);}.cls-5{fill:#e7e7e8;}.cls-6{fill:#2f152f;}.cls-8{clip-path:url(#clip-path-2);}.cls-9{opacity:0.25;}.cls-10{fill:#8f2470;}.cls-12{fill:#558b9c;}.cls-13{opacity:0.51;}.cls-14{fill:#eef3df;}.cls-15{clip-path:url(#clip-path-3);}</style>
  <clipPath id="clip-path">
   <path class="cls-1" d="m19.11 741.48c-32.5-476 644-718.57 710.47-365.65 6 64.35 38.23 227.22 47.14 313.85 1.43 13.91-8.41 23.72-18.76 33.13-133.81 116.91-627.7 58.73-738.85 18.67"/>
  </clipPath>
  <clipPath id="clip-path-2">
   <path class="cls-2" d="M370,285C202.93-262-301.6,341,254,719.68c5.72,3.9,58.38-3.07,65.15-4.17C1045.21,598.12,703.5-119.78,370,285"/>
  </clipPath>
  <clipPath id="clip-path-3">
   <path class="cls-1" d="m98.92-82.82c5.46-142.91 95.4-301.73 207.65-355.48 114.63-54.88 356.8-146.4 373.88 164.19 2.34 42.45 22.36 103.15 24.73 163 0.29 7.36-21.37 24.44-25.8 30.33-35.77 47.52-241.71 40.52-301.61 47.52-107.86 12.62-248.44-20-278.85-49.56"/>
  </clipPath>
 </defs>
 <g id="hold_asparagus" data-name="hold asparagus">
  <g id="Layer_133" data-name="Layer 133">
   <path class="cls-3" d="M18.54,738.41C145.12,258.72,512.77-57.31,689,372c32.7,79.65,81.1,256.15,87.11,314.58,1.43,13.91-8.41,23.72-18.76,33.13-133.81,116.91-627.7,58.72-738.85,18.67"/>
   <g class="cls-4">
    <path class="cls-5" d="M85.43,692.76c20-77.31,43.89-137.18,78.92-208.65S376.76,117.86,553.27,380.32c25.39,37.75,33.18,84.95,41.7,130C608.17,580.1,619.08,652,607.11,722c-.65,3.79-1.46,7.77-4,10.62s-5.94,3.94-9.33,5c-128.09,41.93,100.56,92.26-33.47,81.41-17.68-1.43-401-46.5-418.2-51.12-10.22-2.74-16.38,24.63-24.47,17.66C104,773.84,71.9,773.91,66.83,756.36"/>
   </g>
   <ellipse class="cls-6" transform="translate(-121.04 200.74) rotate(-15.59)" cx="672.83" cy="542.58" rx="60.64" ry="70.96"/>
   <path class="cls-7" d="M370,285C202.93-262-301.6,341,254,719.68c5.72,3.9,58.38-3.07,65.15-4.17C1045.21,598.12,703.5-119.78,370,285"/>
   <g class="cls-8">
    <g class="cls-9">
     <path class="cls-10" d="M725.27,201.84c-49.42,114-130.06,210-218.29,293.36s-184.87,156-275.87,235.87C289.24,771.21,365,760,434.76,758.38c47.58-1.09,95.26,3,142.67-2S673.26,736.2,709,702c34.68-33.24,54-81.09,66-129,32-127.53,16.6-271-56.47-375.63"/>
    </g>
   </g>
   <path class="cls-11" d="M370,285C202.93-262-301.6,341,254,719.68c5.72,3.9,58.38-3.07,65.15-4.17C1045.21,598.12,703.5-119.78,370,285"/>
   <path class="cls-12" d="M74.68,603.82c30.49-13.15,31.24-21,53.09-47.62,19.33-23.55,35.82-52.74,63.08-63.59,32.88-13.09,71.64,7.65,89.17,40.61s16.79,74.46,6.21,110.76c-6.87,23.57-17.92,46.19-34.66,62.93-9.65,9.64-21,17.14-32.83,23.2-32.69,16.71-67.3,18.73-103.38,20.59-24,1.24-52.19,3.8-70.36-13.3-14.52-13.66-.4-34.18-.43-55,0-33.22,28.56-78.93,58.59-90.32"/>
   <path class="cls-3" d="M77.2,608.14c10.19-4.4,20.16-9.53,28.35-17.14a90.33,90.33,0,0,0,8.91-9.84c1.78-2.21,3.51-4.46,5.24-6.71l2.64-3.43c.21-.27.41-.54.62-.8-.51.65-.28.36.06-.08.51-.66,1-1.32,1.54-2,4.46-5.72,9.11-11.29,13.54-17,4.28-5.54,8.44-11.18,12.71-16.74.24-.31.73-.94.2-.25l.73-.95c.57-.74,1.15-1.47,1.72-2.2,1.07-1.35,2.15-2.7,3.24-4,2.2-2.69,4.46-5.33,6.8-7.89s4.6-4.87,7-7.16c1.2-1.12,2.43-2.23,3.68-3.29.63-.53,1.26-1.06,1.89-1.57l.89-.71c.27-.21.45-.58-.12.09a3.91,3.91,0,0,1,.6-.45,75.17,75.17,0,0,1,8.12-5.33c1.41-.79,2.85-1.54,4.32-2.23l1.2-.54c.16-.08,1.22-.52.61-.27l.61-.25,1.34-.5a55.1,55.1,0,0,1,8.82-2.42c.74-.14,1.48-.26,2.23-.38,1-.15-.92.11.05,0l1.2-.14c1.56-.15,3.11-.24,4.67-.27,3-.06,6,.35,9,.49,0,0-1-.15-.46-.06l.51.08,1.21.19c.74.13,1.49.26,2.23.42,1.54.31,3.08.69,4.6,1.11s2.94.87,4.38,1.38c.67.23,1.34.48,2,.73l1.17.45c.2.09,1.35.58.72.3l.55.24,1.14.52,2.11,1q2.19,1.1,4.3,2.32A82.79,82.79,0,0,1,252,508l.88.66.08.06.22.17c.63.5,1.25,1,1.87,1.52,1.23,1,2.44,2.09,3.61,3.19a90.41,90.41,0,0,1,6.85,7.13c.53.62,1.05,1.25,1.56,1.88l.71.87.35.45c.44.55-.52-.69-.1-.12,1,1.31,1.94,2.62,2.86,4a88.25,88.25,0,0,1,5.17,8.68c.86,1.64,1.67,3.31,2.44,5l.52,1.17c.12.26.23.52.34.78,0,.07.32.72.09.19s0,.11.07.18l.25.6.55,1.38a120.87,120.87,0,0,1,6.15,21.59c.36,1.9.68,3.82.95,5.74.06.38.18,1.28.06.38.06.43.11.86.16,1.29.13,1,.24,2,.34,3q.57,5.64.7,11.29a168.07,168.07,0,0,1-1,23c-.11.94-.23,1.89-.35,2.83a3,3,0,0,1-.05.42c-.08.58-.16,1.16-.25,1.74q-.42,2.82-.93,5.63-1,5.59-2.34,11.14a198.85,198.85,0,0,1-6.64,21.87q-1,2.65-2,5.28l-.57,1.41c-.13.3-.51,1.2-.17.41-.4.93-.8,1.86-1.22,2.78q-2.3,5.13-4.94,10.09c-1.79,3.34-3.7,6.6-5.76,9.78q-1.5,2.32-3.1,4.58c-.49.69-1,1.38-1.5,2.06l-.89,1.18c0,.06-.47.62-.12.17s-.2.25-.26.32a108.44,108.44,0,0,1-16,16.38c-.76.63-1.53,1.25-2.3,1.86l-.54.42c.07,0,.57-.43.11-.09l-1.27,1q-2.37,1.76-4.82,3.4c-3.31,2.22-6.72,4.3-10.2,6.24s-7,3.77-10.66,5.44c-.92.42-1.84.84-2.77,1.24l-1.28.55c.19-.08.82-.34-.09,0l-.85.35q-2.78,1.13-5.59,2.15a174.81,174.81,0,0,1-22.91,6.49q-5.74,1.23-11.54,2.14c-2,.32-4,.62-6,.89l-.47.06-1.35.17-3.16.38c-8,.9-15.95,1.52-23.95,2-7.59.47-15.18.85-22.77,1.25-6.86.36-13.72.65-20.59.46-3.38-.09-6.76-.3-10.12-.69l-1.15-.14c-.73-.08.91.14.18,0l-.57-.08c-.82-.12-1.64-.26-2.46-.4-1.68-.3-3.36-.66-5-1.08s-3.15-.86-4.69-1.38c-.71-.24-1.41-.5-2.11-.76l-1.21-.49.34.14a4.38,4.38,0,0,1-.69-.3,47.16,47.16,0,0,1-8.55-5,3.27,3.27,0,0,1-.46-.35s.7.57.26.2l-.89-.73c-.69-.58-1.37-1.18-2-1.8s-1.1-1.11-1.61-1.7c-.11-.13-.62-.77-.19-.23l-.06-.08c-.23-.35-.47-.69-.7-1.05-.4-.65-.75-1.32-1.09-2-.42-.85.28.81,0-.08-.14-.37-.28-.75-.4-1.13-.22-.7-.4-1.42-.55-2.14-.07-.34-.12-.68-.18-1s0-.62,0,0,0-.2,0-.37a31,31,0,0,1,0-4.62c0-.73.11-1.47.19-2.2,0-.25.19-1.51.09-.83s.1-.61.13-.84c.55-3.42,1.34-6.79,2.13-10.16,1.74-7.45,3.49-15,3.53-22.71a74.59,74.59,0,0,1,.55-8.58c.12-1-.15,1,0,0l.18-1.16c.12-.73.24-1.45.38-2.18.28-1.47.6-2.94,1-4.39.74-3.07,1.65-6.11,2.67-9.1q.78-2.25,1.65-4.48c.3-.75.6-1.49.91-2.24s-.31.71.07-.18l.53-1.2a130.75,130.75,0,0,1,9.44-17.52c1.81-2.82,3.73-5.58,5.75-8.25.11-.14.81-1,.41-.54s.31-.39.42-.53c.54-.69,1.09-1.36,1.65-2q1.53-1.84,3.14-3.65c2.14-2.37,4.38-4.66,6.73-6.83,1.11-1,2.26-2,3.43-3q.85-.72,1.74-1.41a3,3,0,0,1,.4-.32s-.78.59-.33.26l1-.72a67.92,67.92,0,0,1,7-4.6q1.73-1,3.51-1.83c.56-.27,1.12-.52,1.69-.78.81-.36-1,.38.08,0l1-.39c2.43-.93,4.38-3.41,3.49-6.15-.77-2.37-3.54-4.49-6.15-3.49C89.89,591.78,79.69,600,71.2,609.45a131.55,131.55,0,0,0-22.45,34.73c-5.25,11.91-9.11,24.74-9.18,37.86,0,1.87-.08,3.73-.27,5.59,0,.49-.1,1-.16,1.47-.11,1,.1-.65,0,.35s-.3,1.95-.48,2.92c-.66,3.71-1.54,7.37-2.4,11-1.58,6.79-3.36,14-2.61,21a26.8,26.8,0,0,0,3.23,10.67,29.49,29.49,0,0,0,7.4,8.22,56,56,0,0,0,19.34,9.91c13.7,4,28.32,3.66,42.43,3,15.84-.79,31.73-1.49,47.5-3.22,16.35-1.8,32.64-4.7,48.2-10.18a151.94,151.94,0,0,0,44.37-24.29A120.9,120.9,0,0,0,276,682.23a192.53,192.53,0,0,0,22.76-91.83c-.26-15.63-2.74-31.42-8.29-46.07-5.2-13.75-12.87-26.35-23.47-36.61a87.67,87.67,0,0,0-34.74-20.94c-12.54-3.86-26.3-4.33-38.87-.37-13.51,4.26-25,13-34.69,23.17-10,10.47-18.4,22.33-27.16,33.82L130,545.45l-.37.48c.63-.82.19-.24,0-.07l-.85,1.1c-1.1,1.4-2.2,2.79-3.32,4.18-2.28,2.83-4.59,5.64-6.84,8.49-2.09,2.66-4.16,5.35-6.22,8l-1.25,1.62-.66.85c-.33.44.35-.44.33-.41s-.25.31-.37.47c-.79,1-1.58,2-2.38,3A98.53,98.53,0,0,1,99,583.42c-.8.77-1.63,1.51-2.47,2.23-.41.36-.83.7-1.25,1.05l-.7.55c-.41.34.57-.44.51-.39l-.42.32a71.33,71.33,0,0,1-6.16,4.15,136.42,136.42,0,0,1-16.36,8.18c-2.41,1-3.14,4.76-1.8,6.84,1.61,2.5,4.26,2.91,6.84,1.79Z"/>
   <path class="cls-3" d="M687.51,756.89C641.19,728,618.32,682,600.33,634.34,591.72,611.52,558,499.93,496.59,521.51a119.28,119.28,0,0,0-49.94,34.31,192.89,192.89,0,0,0-47.59,128c.1,20.17,3.38,40.67,13.11,58.9s26.44,34.08,47.78,41c10,3.25,20.61,4.5,31.2,4.91,17.79.7,35.58-.88,53.3-2.46,39.6-3.53,79.77-7.17,116.88-20,5.41-1.86,11.85-6.47,9-10.94"/>
   <g class="cls-13">
    <path class="cls-14" d="m53.32 250.7c8.28-50.29 38.51-107.83 83.53-134.25 36.17-13.55 58.92 23.19 38.82 53.16-21.28 39.52-28 91.67-61.4 122.09-36.28 33.08-82.48 20.08-60.95-41"/>
   </g>
  </g>
 </g>
 <g id="Sassage">
  <g class="cls-15">
   <path class="cls-5" d="M511.91-5.19C498.7-39,503-76.89,507.53-113l23.64-188.85C535.82-339,540-378.88,522.52-412c-14-26.5-40.57-44.86-69.17-53.84s-59.21-9.43-89.08-6.94C309-468.17,253.75-453.32,207.63-422.6,179.72-404,155.72-380,134.51-354c-26.12,32-48.73,68.42-55.66,109.14-3.06,17.95-3,36.27-2.55,54.47,1.08,45.58,4.42,91.24,13.25,136,3.69,18.72,8.59,37.78,19.83,53.19,20.48,28.07,57.75,38.37,92.46,40s69.81-3.42,104.08,2.31c27.74,4.65,54.32,16.29,82.43,17.22,19.08.63,37.93-3.72,56.53-8l36.8-8.56c5.25-1.22,10.68-2.53,14.89-5.88C509.11,25.85,504,5.11,512.38-8.55"/>
  </g>
 </g>
</svg>
