<svg id="Prior_to_November" data-name="Prior to November" xmlns="http://www.w3.org/2000/svg" xmlns:xlink="http://www.w3.org/1999/xlink" viewBox="0 0 800 800"><defs><style>.cls-1,.cls-23,.cls-3,.cls-31{fill:none;}.cls-2,.cls-4,.cls-9{fill:#ec3868;}.cls-2,.cls-23{stroke:#2f152f;}.cls-2,.cls-23,.cls-3,.cls-31,.cls-4{stroke-miterlimit:10;}.cls-2,.cls-23,.cls-31,.cls-4{stroke-width:3px;}.cls-3{stroke:#5ba4bb;}.cls-31,.cls-4{stroke:#439eba;}.cls-5{fill:#54899b;}.cls-6{clip-path:url(#clip-path);}.cls-7{fill:#e7e7e8;}.cls-8{fill:#2f152f;}.cls-10{clip-path:url(#clip-path-2);}.cls-11{fill:#db1082;}.cls-12{fill:#c4d9e3;}.cls-13{fill:#e6bac5;}.cls-14{fill:#ebe0e1;}.cls-15{fill:#e22228;}.cls-16{fill:#f58b20;}.cls-17{fill:#108041;}.cls-18{fill:#4260a9;}.cls-19{fill:#732a81;}.cls-20{fill:#fae903;}.cls-21{opacity:0.25;}.cls-22{fill:#8f2470;}.cls-24{fill:#558b9c;}.cls-25{opacity:0.51;}.cls-26{fill:#eef3df;}.cls-27{clip-path:url(#clip-path-3);}.cls-28{clip-path:url(#clip-path-4);}.cls-29{fill:#6ec9ec;}.cls-30{fill:#f0a9b7;}</style><clipPath id="clip-path"><path class="cls-1" d="M30.68,741.48c-32.5-476,644-718.57,710.47-365.65,6,64.35,38.23,227.22,47.14,313.85,1.43,13.91-8.41,23.72-18.76,33.13-133.81,116.91-627.7,58.73-738.85,18.67"/></clipPath><clipPath id="clip-path-2"><path class="cls-2" d="M381.56,285C214.5-262-290,341,265.6,719.68c5.72,3.9,58.38-3.07,65.15-4.17,726-117.39,384.32-835.29,50.81-430.49"/></clipPath><clipPath id="clip-path-3"><path class="cls-3" d="M1206,288.11c-167.06-547-671.59,56-116,434.66,5.72,3.9,58.38-3.07,65.15-4.16,726-117.39,384.32-835.3,50.81-430.5"/></clipPath><clipPath id="clip-path-4"><path class="cls-4" d="M1206,286.28c-167.06-556.27-671.59,57-116,442,5.72,4,58.38-3.13,65.15-4.24,726-119.38,384.32-849.46,50.81-437.79"/></clipPath></defs><g id="hold_asparagus" data-name="hold asparagus"><g id="heart"><path class="cls-5" d="M30.11,738.41C156.69,258.72,524.34-57.31,700.61,372c32.7,79.65,81.1,256.15,87.11,314.58,1.43,13.91-8.41,23.72-18.76,33.13-133.81,116.91-627.7,58.72-738.85,18.67"/><g class="cls-6"><path class="cls-7" d="M97,692.76c20-77.31,43.9-137.18,78.93-208.65s212.4-366.25,388.91-103.79c25.39,37.75,33.18,84.95,41.7,130C619.75,580.1,630.65,652,618.68,722c-.65,3.79-1.46,7.77-4,10.62s-5.94,3.94-9.33,5c-128.09,41.93,100.56,92.26-33.47,81.41-17.68-1.43-401-46.5-418.2-51.12-10.22-2.74-16.38,24.63-24.47,17.66-13.67-11.77-45.76-11.7-50.83-29.25"/></g><ellipse class="cls-8" cx="684.4" cy="542.58" rx="60.64" ry="70.96" transform="translate(-120.62 203.85) rotate(-15.59)"/><path class="cls-9" d="M381.56,285C214.5-262-290,341,265.6,719.68c5.72,3.9,58.38-3.07,65.15-4.17,726-117.39,384.32-835.29,50.81-430.49"/><g class="cls-10"><path class="cls-11" d="M381.21,334.94c-163-548.21-672,51.07-119.15,433.79,5.69,3.94,58.4-2.64,65.18-3.69,726.87-112,390.45-832.44,54-430.1"/><rect class="cls-12" x="-66.82" y="272.44" width="828.22" height="287.41" transform="translate(97.52 -64.9) rotate(12.41)"/><rect class="cls-12" x="-58.75" y="109.51" width="828.22" height="650.95" transform="translate(101.76 -66.19) rotate(12.41)"/><rect class="cls-13" x="-72.67" y="300.83" width="828.22" height="291.29" transform="translate(103.9 -62.93) rotate(12.41)"/><rect class="cls-14" x="-104.08" y="354.48" width="892.43" height="177.64" transform="translate(103.24 -63.16) rotate(12.41)"/><path class="cls-15" d="M-158.16,94.27C-152.7,57.81-147,21.38-141.95-15.12c.85-6.06,2.28-7.05,8.32-6.14Q174.62,25.26,483,71.33q249.2,37.35,498.42,74.53c6,.9,7.12,2.27,6.16,8.31-5.83,36.4-11.11,72.88-16.57,109.34-2.83,2.71-6.28,3.05-10,2.69-4.74-.47-9.44-1.18-14.14-1.88L-135.36,102.11c-4.7-.71-9.4-1.4-14.07-2.35C-153.06,99-156.25,97.7-158.16,94.27Z"/><path class="cls-16" d="M-158.16,94.27,971,263.51,953.51,379.93c-2.83,2.72-6.28,3.05-10,2.69-4.74-.47-9.44-1.18-14.14-1.88L-152.81,218.53c-4.7-.71-9.4-1.4-14.07-2.35-3.63-.73-6.82-2.06-8.73-5.49Z"/><path class="cls-17" d="M-210.25,441.77l17.45-116.42c2.83-2.72,6.28-3.05,10-2.69,4.74.46,9.44,1.17,14.14,1.88L913.52,486.75c4.7.7,9.4,1.4,14.07,2.34,3.63.74,6.82,2.07,8.73,5.5L918.87,611c-2.83,2.71-6.27,3-10,2.69-4.73-.47-9.44-1.18-14.14-1.88Q353.66,530.71-187.44,449.61c-4.7-.71-9.41-1.4-14.07-2.35C-205.14,446.53-208.34,445.2-210.25,441.77Z"/><path class="cls-18" d="M-210.25,441.77,918.87,611,901.42,727.43c-2.83,2.71-6.27,3.05-10,2.69-4.73-.47-9.44-1.18-14.14-1.88Q336.21,647.15-204.89,566c-4.7-.71-9.41-1.4-14.07-2.35-3.63-.73-6.83-2.06-8.74-5.49Z"/><path class="cls-19" d="M-227.7,558.19c3.23.53,6.45,1.1,9.68,1.58Q336.85,642.95,891.71,726.1c3.23.49,6.47.89,9.71,1.33-5.46,36.45-11.11,72.88-16.21,109.39-.85,6.06-2.28,7-8.32,6.14q-309.14-46.65-618.34-92.85Q10.22,712.88-238.11,675.84c-6-.9-7.12-2.27-6.16-8.31C-238.44,631.13-233.16,594.65-227.7,558.19Z"/><path class="cls-20" d="M936.32,494.59c-3.53-.3-7.1-.39-10.59-.92q-554.07-83-1108.13-166.09c-3.5-.52-6.93-1.48-10.4-2.23l17.19-114.66c3.83.45,7.68.8,11.49,1.38Q389,294.95,942.12,377.87c3.81.57,7.59,1.37,11.39,2.06Z"/><g class="cls-21"><path class="cls-22" d="M736.84,201.84c-49.42,114-130.06,210-218.29,293.36s-184.87,156-275.87,235.87c58.13,40.14,133.93,28.92,203.65,27.31,47.58-1.09,95.26,3,142.67-2S684.83,736.2,720.52,702c34.68-33.24,54-81.09,66-129,32-127.53,16.61-271-56.47-375.63"/></g></g><path class="cls-23" d="M381.56,285C214.5-262-290,341,265.6,719.68c5.72,3.9,58.38-3.07,65.15-4.17,726-117.39,384.32-835.29,50.81-430.49"/><path class="cls-24" d="M86.25,603.82c30.49-13.15,31.24-21,53.09-47.62,19.33-23.55,35.82-52.74,63.08-63.59,32.88-13.09,71.64,7.65,89.17,40.61S308.38,607.68,297.8,644c-6.87,23.57-17.92,46.19-34.66,62.93-9.65,9.64-21,17.14-32.83,23.2-32.69,16.71-67.3,18.73-103.38,20.59-24,1.24-52.19,3.8-70.36-13.3-14.52-13.66-.4-34.18-.43-55,0-33.22,28.56-78.93,58.59-90.32"/><path class="cls-5" d="M88.77,608.14c10.19-4.4,20.16-9.53,28.35-17.14a90.33,90.33,0,0,0,8.91-9.84c1.78-2.21,3.51-4.46,5.24-6.71l2.64-3.43c.21-.27.41-.54.62-.8-.5.65-.28.36.06-.08l1.54-2c4.46-5.72,9.11-11.29,13.54-17,4.28-5.54,8.44-11.18,12.71-16.74.24-.31.73-.94.2-.25l.73-.95c.57-.74,1.15-1.47,1.73-2.2,1.06-1.35,2.14-2.7,3.23-4,2.2-2.69,4.46-5.33,6.8-7.89s4.6-4.87,7-7.16c1.2-1.12,2.43-2.23,3.68-3.29.63-.53,1.26-1.06,1.89-1.57l.89-.71c.27-.21.45-.58-.12.09a3.91,3.91,0,0,1,.6-.45,75.17,75.17,0,0,1,8.12-5.33c1.42-.79,2.86-1.54,4.32-2.23l1.2-.54c.16-.08,1.22-.52.61-.27l.62-.25,1.33-.5a55.1,55.1,0,0,1,8.82-2.42c.74-.14,1.49-.26,2.23-.38,1-.15-.92.11,0,0l1.21-.14c1.55-.15,3.1-.24,4.66-.27,3-.06,6,.35,9,.49,0,0-1-.15-.46-.06l.51.08,1.21.19c.74.13,1.49.26,2.23.42,1.55.31,3.08.69,4.6,1.11s2.94.87,4.38,1.38c.67.23,1.34.48,2,.73l1.16.45c.2.09,1.35.58.72.3l.55.24,1.14.52,2.11,1q2.19,1.1,4.3,2.32a82.79,82.79,0,0,1,7.94,5.21l.88.66.08.06.22.17c.63.5,1.25,1,1.87,1.52,1.23,1,2.44,2.09,3.61,3.19a88.64,88.64,0,0,1,6.85,7.13c.53.62,1.05,1.25,1.57,1.88l.7.87.35.45c.44.55-.52-.69-.09-.12,1,1.31,1.94,2.62,2.85,4a86.33,86.33,0,0,1,5.17,8.68c.86,1.64,1.67,3.31,2.44,5l.52,1.17c.12.26.23.52.34.78,0,.07.32.72.09.19s0,.11.07.18.17.4.25.6l.55,1.38a120,120,0,0,1,6.15,21.59c.36,1.9.68,3.82.95,5.74.06.38.18,1.28.06.38.06.43.11.86.17,1.29.12,1,.23,2,.33,3q.57,5.64.7,11.29a168.07,168.07,0,0,1-1,23c-.11.94-.23,1.89-.35,2.83a3,3,0,0,1,0,.42c-.08.58-.16,1.16-.25,1.74q-.42,2.82-.92,5.63-1,5.59-2.35,11.14a198.85,198.85,0,0,1-6.64,21.87q-1,2.65-2,5.28l-.57,1.41c-.13.3-.51,1.2-.17.41-.4.93-.8,1.86-1.22,2.78q-2.29,5.13-4.94,10.09c-1.79,3.34-3.7,6.6-5.76,9.78q-1.5,2.32-3.1,4.58c-.49.69-1,1.38-1.5,2.06l-.89,1.18c0,.06-.47.62-.12.17s-.2.25-.26.32a108.44,108.44,0,0,1-16,16.38c-.76.63-1.53,1.25-2.3,1.86l-.54.42c.07,0,.57-.43.11-.09l-1.27,1q-2.37,1.76-4.81,3.4-5,3.33-10.21,6.24t-10.66,5.44c-.91.42-1.84.84-2.77,1.24l-1.28.55c.19-.08.82-.34-.08,0l-.86.35q-2.78,1.13-5.59,2.15A174.81,174.81,0,0,1,189,739.19q-5.75,1.23-11.54,2.14-3,.48-6,.89l-.47.06-1.35.17-3.15.38c-8,.9-16,1.52-24,2-7.59.47-15.18.85-22.77,1.25-6.86.36-13.72.65-20.59.46-3.38-.09-6.76-.3-10.12-.69l-1.15-.14c-.73-.08.91.14.18,0l-.57-.08c-.82-.12-1.64-.26-2.46-.4-1.68-.3-3.36-.66-5-1.08s-3.15-.86-4.69-1.38c-.71-.24-1.41-.5-2.11-.76L72,741.56l.34.14a4.38,4.38,0,0,1-.69-.3,47.16,47.16,0,0,1-8.55-5,3.27,3.27,0,0,1-.46-.35s.7.57.26.2l-.89-.73c-.69-.58-1.37-1.18-2-1.8s-1.1-1.11-1.61-1.7c-.1-.13-.61-.77-.19-.23s0,0,0-.08c-.24-.35-.48-.69-.71-1.05-.4-.65-.75-1.32-1.09-2-.42-.85.28.81,0-.08-.13-.37-.27-.75-.4-1.13-.22-.7-.4-1.42-.55-2.14-.07-.34-.12-.68-.18-1s0-.62,0,0,0-.2,0-.37a33.93,33.93,0,0,1,0-4.62c0-.73.11-1.47.19-2.2,0-.25.19-1.51.09-.83s.1-.61.13-.84c.55-3.42,1.34-6.79,2.13-10.16,1.74-7.45,3.49-15,3.53-22.71a74.59,74.59,0,0,1,.55-8.58c.12-1-.15,1,0,0l.18-1.16c.12-.73.24-1.45.38-2.18.28-1.47.6-2.94,1-4.39.74-3.07,1.65-6.11,2.67-9.1q.78-2.25,1.65-4.48c.3-.75.6-1.49.91-2.24s-.31.71.08-.18c.17-.4.34-.8.52-1.2a130.75,130.75,0,0,1,9.44-17.52c1.81-2.82,3.73-5.58,5.75-8.25.11-.14.81-1,.41-.54s.31-.39.42-.53c.54-.69,1.09-1.36,1.65-2q1.53-1.84,3.14-3.65c2.14-2.37,4.38-4.66,6.73-6.83,1.11-1,2.26-2,3.43-3q.85-.72,1.74-1.41a3,3,0,0,1,.4-.32s-.78.59-.33.26l1-.72a67.92,67.92,0,0,1,7-4.6q1.72-1,3.51-1.83c.56-.27,1.12-.52,1.69-.78.81-.36-1,.38.08,0l1-.39c2.43-.93,4.38-3.41,3.49-6.15-.77-2.37-3.53-4.49-6.15-3.49-11.94,4.57-22.14,12.8-30.63,22.24a131.55,131.55,0,0,0-22.45,34.73c-5.25,11.91-9.11,24.74-9.18,37.86,0,1.87-.08,3.73-.27,5.59,0,.49-.1,1-.16,1.47-.11,1,.1-.65-.05.35s-.3,1.95-.47,2.92c-.67,3.71-1.55,7.37-2.41,11-1.58,6.79-3.36,14-2.61,21a26.8,26.8,0,0,0,3.23,10.67,29.49,29.49,0,0,0,7.4,8.22,56,56,0,0,0,19.34,9.91c13.7,4,28.32,3.66,42.43,3,15.84-.79,31.73-1.49,47.5-3.22,16.35-1.8,32.64-4.7,48.2-10.18a151.94,151.94,0,0,0,44.37-24.29,120.9,120.9,0,0,0,29.92-36.28,192.53,192.53,0,0,0,22.76-91.83c-.26-15.63-2.74-31.42-8.29-46.07-5.2-13.75-12.87-26.35-23.47-36.61a87.67,87.67,0,0,0-34.74-20.94c-12.54-3.86-26.3-4.33-38.87-.37-13.51,4.26-25,13-34.69,23.17-10,10.47-18.4,22.33-27.16,33.82l-1.57,2.05-.37.48c.63-.82.19-.24.05-.07l-.85,1.1q-1.63,2.1-3.32,4.18c-2.28,2.83-4.59,5.64-6.84,8.49-2.09,2.66-4.16,5.35-6.22,8l-1.25,1.62-.66.85c-.33.44.35-.44.33-.41s-.25.31-.37.47c-.79,1-1.58,2-2.38,3a98.53,98.53,0,0,1-9.07,10.19c-.8.77-1.62,1.51-2.47,2.23-.41.36-.83.7-1.25,1.05l-.7.55c-.41.34.57-.44.51-.39l-.42.32a71.33,71.33,0,0,1-6.16,4.15,136.42,136.42,0,0,1-16.36,8.18c-2.41,1-3.14,4.76-1.8,6.84,1.61,2.5,4.26,2.91,6.84,1.79Z"/><path class="cls-5" d="M699.08,756.89C652.76,728,629.89,682,611.9,634.34c-8.61-22.82-42.31-134.41-103.74-112.83a119.28,119.28,0,0,0-49.94,34.31,192.89,192.89,0,0,0-47.59,128c.11,20.17,3.38,40.67,13.11,58.9s26.44,34.08,47.78,41c10,3.25,20.61,4.5,31.2,4.91,17.79.7,35.58-.88,53.3-2.46,39.6-3.53,79.77-7.17,116.88-20,5.41-1.86,11.85-6.47,9-10.94"/><g class="cls-25"><path class="cls-26" d="M64.9,250.7c8.27-50.29,38.51-107.83,83.52-134.25,36.17-13.55,58.92,23.19,38.82,53.16-21.28,39.52-28,91.67-61.4,122.09-36.28,33.08-82.48,20.08-60.94-41"/></g></g><g id="Layer_132" data-name="Layer 132"><g class="cls-27"><rect class="cls-12" x="757.6" y="275.54" width="828.22" height="287.41" transform="translate(117.44 -241.96) rotate(12.41)"/><rect class="cls-12" x="765.67" y="112.6" width="828.22" height="650.95" transform="translate(121.68 -243.25) rotate(12.41)"/><rect class="cls-13" x="751.74" y="303.93" width="828.22" height="291.29" transform="translate(123.82 -239.99) rotate(12.41)"/><rect class="cls-14" x="720.34" y="357.58" width="892.43" height="177.64" transform="translate(123.15 -240.21) rotate(12.41)"/><path class="cls-15" d="M666.26,97.37C671.72,60.91,677.37,24.48,682.47-12c.85-6.06,2.28-7.06,8.32-6.15Q999,28.35,1307.37,74.42q249.2,37.35,498.42,74.53c6,.9,7.12,2.27,6.15,8.32-5.82,36.39-11.1,72.88-16.57,109.33-2.82,2.72-6.27,3-9.95,2.69-4.74-.46-9.44-1.17-14.15-1.88Q1230.16,186.32,689.06,105.2c-4.7-.7-9.41-1.4-14.07-2.34C671.36,102.12,668.16,100.79,666.26,97.37Z"/><path class="cls-16" d="M666.26,97.37,1795.37,266.6,1777.92,383c-2.82,2.72-6.27,3.05-10,2.69-4.74-.46-9.44-1.17-14.15-1.88L671.61,221.63c-4.7-.71-9.41-1.41-14.07-2.35-3.63-.74-6.83-2.07-8.73-5.49Z"/><path class="cls-17" d="M614.17,444.87l17.45-116.43c2.83-2.71,6.27-3.05,10-2.69,4.74.47,9.44,1.18,14.14,1.89l1082.21,162.2c4.71.71,9.41,1.41,14.08,2.35,3.63.74,6.82,2.06,8.73,5.49L1743.29,614.1c-2.83,2.72-6.27,3-10,2.69-4.74-.46-9.44-1.17-14.14-1.88Q1178.08,533.82,637,452.7c-4.71-.7-9.41-1.4-14.08-2.34C619.28,449.62,616.08,448.29,614.17,444.87Z"/><path class="cls-18" d="M614.17,444.87,1743.29,614.1l-17.45,116.42c-2.83,2.72-6.27,3.05-10,2.69-4.74-.46-9.44-1.17-14.14-1.88L619.53,569.13c-4.71-.71-9.41-1.41-14.08-2.35-3.62-.74-6.82-2.07-8.73-5.49Z"/><path class="cls-19" d="M596.72,561.29c3.23.53,6.44,1.09,9.68,1.58L1716.13,729.2c3.23.48,6.47.88,9.71,1.32-5.47,36.46-11.11,72.89-16.21,109.39-.85,6.06-2.28,7.06-8.32,6.15Q1392.16,799.41,1083,753.2,834.65,716,586.3,678.93c-6-.89-7.12-2.26-6.15-8.31C586,634.23,591.26,597.74,596.72,561.29Z"/><path class="cls-20" d="M1760.74,497.68c-3.53-.29-7.1-.39-10.6-.91Q1196.07,413.76,642,330.68c-3.5-.53-6.93-1.48-10.4-2.24l17.19-114.65c3.83.45,7.67.8,11.49,1.37Q1213.43,298,1766.53,381c3.82.57,7.6,1.36,11.39,2Z"/><path class="cls-9" d="M1206,286.28c-167.06-556.27-671.59,57-116,442,5.72,4,58.38-3.13,65.15-4.24,726-119.38,384.32-849.46,50.81-437.79"/><g class="cls-28"><polygon class="cls-12" points="1545.26 652.84 736.39 471.88 798.14 186.42 1607.02 367.39 1545.26 652.84"/><polygon class="cls-29" points="1514.28 849.82 705.41 667.87 845.27 17.82 1654.14 199.78 1514.28 849.82"/><polygon class="cls-30" points="1528.81 731 720.2 547.85 802.89 165.58 1611.5 348.74 1528.81 731"/><polygon class="cls-14" points="1583.26 631.77 711.67 435.71 749.84 258.32 1621.43 454.37 1583.26 631.77"/></g><path class="cls-31" d="M1206,286.28c-167.06-556.27-671.59,57-116,442,5.72,4,58.38-3.13,65.15-4.24,726-119.38,384.32-849.46,50.81-437.79"/></g><path class="cls-3" d="M1206,288.11c-167.06-547-671.59,56-116,434.66,5.72,3.9,58.38-3.07,65.15-4.16,726-117.39,384.32-835.3,50.81-430.5"/></g></g></svg>