<?xml version="1.0" encoding="UTF-8"?>
<svg id="Prior_to_November" data-name="Prior to November" viewBox="0 0 800 800" xmlns="http://www.w3.org/2000/svg">
 <defs>
  <style>.cls-1,.cls-4,.cls-5{fill:#ec3868;}.cls-1,.cls-14{stroke:#2f152f;}.cls-1,.cls-14,.cls-29,.cls-3,.cls-4{stroke-miterlimit:10;}.cls-1,.cls-14,.cls-29,.cls-4{stroke-width:3px;}.cls-14,.cls-2,.cls-29,.cls-3{fill:none;}.cls-3{stroke:#5ba4bb;}.cls-29,.cls-4{stroke:#439eba;}.cls-6{clip-path:url(#clip-path);}.cls-7{fill:#c4d9e3;}.cls-8{fill:#e22228;}.cls-9{fill:#f58b20;}.cls-10{fill:#108041;}.cls-11{fill:#4260a9;}.cls-12{fill:#732a81;}.cls-13{fill:#fae903;}.cls-15{fill:#54899b;}.cls-16{clip-path:url(#clip-path-2);}.cls-17{fill:#e7e7e8;}.cls-18{fill:#2f152f;}.cls-19{clip-path:url(#clip-path-3);}.cls-20{fill:#db1082;}.cls-21{fill:#e6bac5;}.cls-22{fill:#ebe0e1;}.cls-23{opacity:0.25;}.cls-24{fill:#8f2470;}.cls-25{clip-path:url(#clip-path-4);}.cls-26{fill:#6ec9ec;}.cls-27{fill:#f0a9b7;}.cls-28{opacity:0.08;}.cls-30{fill:#558b9c;}.cls-31{opacity:0.51;}.cls-32{fill:#eef3df;}.cls-33{clip-path:url(#clip-path-5);}</style>
  <clipPath id="clip-path">
   <path class="cls-1" d="M-438.44,285C-605.5-262-1110,341-554.4,719.68c5.72,3.9,58.38-3.07,65.15-4.17,726-117.39,384.32-835.29,50.81-430.49"/>
  </clipPath>
  <clipPath id="clip-path-2">
   <path class="cls-2" d="M35.1,744.58C2.6,268.56,679.13,26,745.57,378.93c6,64.34,38.22,227.22,47.14,313.85,1.43,13.91-8.42,23.72-18.76,33.13-133.81,116.9-627.7,58.72-738.85,18.67"/>
  </clipPath>
  <clipPath id="clip-path-3">
   <path class="cls-3" d="m386 288.11c-167.06-547-671.59 56-116 434.66 5.72 3.9 58.38-3.07 65.15-4.16 726-117.39 384.32-835.3 50.81-430.5"/>
  </clipPath>
  <clipPath id="clip-path-4">
   <path class="cls-4" d="m386 286.28c-167.06-556.27-671.59 57-116 442 5.72 4 58.38-3.13 65.15-4.24 726-119.38 384.32-849.46 50.81-437.79"/>
  </clipPath>
  <clipPath id="clip-path-5">
   <path class="cls-2" d="M708.56-98.71c-5.46-142.92-95.4-301.74-207.65-355.48C386.28-509.07,144.12-600.59,127-290c-2.33,42.44-22.36,103.15-24.73,163-.29,7.37,21.38,24.45,25.81,30.34,35.76,47.56,241.71,40.56,301.6,47.56,107.87,12.61,248.45-20,278.85-49.56"/>
  </clipPath>
 </defs>
 <g id="hold_asparagus" data-name="hold asparagus">
  <g id="heart">
   <path class="cls-5" d="M-438.44,285C-605.5-262-1110,341-554.4,719.68c5.72,3.9,58.38-3.07,65.15-4.17,726-117.39,384.32-835.29,50.81-430.49"/>
   <g class="cls-6">
    <rect class="cls-7" transform="translate(82.61 109.99) rotate(12.41)" x="-878.75" y="109.51" width="828.22" height="650.95"/>
    <path class="cls-8" d="m-978.16 94.27c5.46-36.46 11.16-72.89 16.21-109.39 0.85-6.06 2.28-7.05 8.32-6.14q308.25 46.52 616.63 92.59 249.2 37.35 498.42 74.53c6 0.9 7.12 2.27 6.16 8.31-5.83 36.4-11.11 72.88-16.57 109.34-2.83 2.71-6.28 3.05-10 2.69-4.74-0.47-9.44-1.18-14.14-1.88l-1082.2-162.21c-4.7-0.71-9.4-1.4-14.07-2.35-3.63-0.76-6.82-2.06-8.73-5.49z"/>
    <path class="cls-9" d="M-978.16,94.27,151,263.51,133.51,379.93c-2.83,2.72-6.28,3.05-10,2.69-4.74-.47-9.44-1.18-14.14-1.88L-972.81,218.53c-4.7-.71-9.4-1.4-14.07-2.35-3.63-.73-6.82-2.06-8.73-5.49Z"/>
    <path class="cls-10" d="m-1030.2 441.77 17.45-116.42c2.83-2.72 6.28-3.05 10-2.69 4.74 0.46 9.44 1.17 14.14 1.88l1082.2 162.21c4.7 0.7 9.4 1.4 14.07 2.34 3.63 0.74 6.82 2.07 8.73 5.5l-17.45 116.41c-2.83 2.71-6.27 3-10 2.69-4.73-0.47-9.44-1.18-14.14-1.88q-541.11-81.11-1082.2-162.21c-4.7-0.71-9.41-1.4-14.07-2.35-3.59-0.72-6.79-2.05-8.7-5.48z"/>
    <path class="cls-11" d="M-1030.25,441.77,98.87,611,81.42,727.43c-2.83,2.71-6.27,3.05-10,2.69-4.73-.47-9.44-1.18-14.14-1.88Q-483.79,647.15-1024.89,566c-4.7-.71-9.41-1.4-14.07-2.35-3.63-.73-6.83-2.06-8.74-5.49Z"/>
    <path class="cls-12" d="m-1047.7 558.19c3.23 0.53 6.45 1.1 9.68 1.58q554.87 83.18 1109.7 166.33c3.23 0.49 6.47 0.89 9.71 1.33-5.42 36.45-11.11 72.88-16.21 109.39-0.85 6.06-2.28 7-8.32 6.14q-309.13-46.65-618.34-92.85-248.32-37.23-496.66-74.27c-6.05-0.9-7.12-2.27-6.16-8.31 5.83-36.4 11.11-72.88 16.57-109.34z"/>
    <path class="cls-13" d="M116.32,494.59c-3.53-.3-7.1-.39-10.59-.92q-554.07-83-1108.13-166.09c-3.5-.52-6.93-1.48-10.4-2.23l17.19-114.66c3.83.45,7.68.8,11.49,1.38Q-431,294.95,122.12,377.87c3.81.57,7.59,1.37,11.39,2.06Z"/>
   </g>
   <path class="cls-14" d="M-438.44,285C-605.5-262-1110,341-554.4,719.68c5.72,3.9,58.38-3.07,65.15-4.17,726-117.39,384.32-835.29,50.81-430.49"/>
  </g>
  <g id="Layer_132" data-name="Layer 132">
   <path class="cls-15" d="M34.53,741.51C161.1,261.81,528.75-54.22,705,375.13c32.7,79.65,81.11,256.14,87.12,314.58,1.43,13.91-8.41,23.71-18.76,33.12-133.81,116.91-627.7,58.73-738.85,18.68"/>
   <g class="cls-16">
    <path class="cls-17" d="M101.41,695.86c20.06-77.31,43.9-137.19,78.93-208.66S392.75,121,569.25,383.41c25.4,37.76,33.19,85,41.71,130,13.2,69.79,24.11,141.66,12.13,211.69-.64,3.79-1.46,7.77-4,10.62-2.4,2.7-5.94,3.94-9.33,5C481.7,782.69,710.35,833,576.31,822.16c-17.67-1.43-401-46.5-418.19-51.11-10.22-2.75-16.38,24.63-24.47,17.66C120,776.94,87.89,777,82.82,759.45"/>
   </g>
   <ellipse class="cls-18" transform="translate(-121.29 205.15) rotate(-15.59)" cx="688.82" cy="545.67" rx="60.64" ry="70.96"/>
   <g class="cls-19">
    <path class="cls-20" d="m385.63 338c-163-548.2-672 51.08-119.15 433.8 5.69 3.94 58.4-2.64 65.18-3.69 726.87-112 390.45-832.44 54-430.11"/>
    <rect class="cls-7" transform="translate(98.29 -65.77) rotate(12.41)" x="-62.4" y="275.54" width="828.22" height="287.41"/>
    <rect class="cls-7" transform="translate(102.53 -67.07) rotate(12.41)" x="-54.33" y="112.6" width="828.22" height="650.95"/>
    <rect class="cls-21" transform="translate(104.67 -63.81) rotate(12.41)" x="-68.26" y="303.93" width="828.22" height="291.29"/>
    <rect class="cls-22" transform="translate(104 -64.03) rotate(12.41)" x="-99.66" y="357.58" width="892.43" height="177.64"/>
    <path class="cls-8" d="m-153.74 97.37c5.46-36.46 11.11-72.89 16.21-109.39 0.85-6.06 2.28-7.06 8.32-6.15q308.21 46.52 616.58 92.59 249.2 37.35 498.42 74.58c6 0.9 7.12 2.27 6.15 8.32-5.82 36.39-11.1 72.88-16.57 109.33-2.82 2.72-6.27 3-10 2.69-4.74-0.46-9.44-1.17-14.15-1.88q-541.06-81.14-1082.2-162.26c-4.7-0.7-9.41-1.4-14.07-2.34-3.63-0.74-6.83-2.07-8.73-5.49z"/>
    <path class="cls-9" d="M-153.74,97.37,975.37,266.6,957.92,383c-2.82,2.72-6.27,3.05-9.95,2.69-4.74-.46-9.44-1.17-14.15-1.88L-148.39,221.63c-4.7-.71-9.41-1.41-14.07-2.35-3.63-.74-6.83-2.07-8.73-5.49Z"/>
    <path class="cls-10" d="m-205.83 444.87 17.45-116.43c2.83-2.71 6.27-3.05 10-2.69 4.74 0.47 9.44 1.18 14.14 1.89l1082.2 162.2c4.71 0.71 9.41 1.41 14.08 2.35 3.63 0.74 6.82 2.06 8.73 5.49l-17.45 116.42c-2.83 2.72-6.27 3-10 2.69-4.74-0.46-9.44-1.17-14.14-1.88q-541.07-81.09-1082.2-162.21c-4.71-0.7-9.41-1.4-14.08-2.34-3.64-0.74-6.84-2.07-8.75-5.49z"/>
    <path class="cls-11" d="M-205.83,444.87,923.29,614.1,905.84,730.52c-2.83,2.72-6.27,3.05-10,2.69-4.74-.46-9.44-1.17-14.14-1.88L-200.47,569.13c-4.71-.71-9.41-1.41-14.08-2.35-3.62-.74-6.82-2.07-8.73-5.49Z"/>
    <path class="cls-12" d="M-223.28,561.29c3.23.53,6.44,1.09,9.68,1.58L896.13,729.2c3.23.48,6.47.88,9.71,1.32-5.47,36.46-11.11,72.89-16.21,109.39-.85,6.06-2.28,7.06-8.32,6.15Q572.16,799.41,263,753.2,14.65,716-233.7,678.93c-6-.89-7.12-2.26-6.15-8.31C-234,634.23-228.74,597.74-223.28,561.29Z"/>
    <path class="cls-13" d="M940.74,497.68c-3.53-.29-7.1-.39-10.6-.91Q376.07,413.76-178,330.68c-3.5-.53-6.93-1.48-10.4-2.24l17.19-114.65c3.83.45,7.67.8,11.49,1.37Q393.43,298,946.53,381c3.82.57,7.6,1.36,11.39,2Z"/>
    <g class="cls-23">
     <path class="cls-24" d="M741.26,204.93C691.83,319,611.2,414.89,523,498.3S338.1,654.24,247.1,734.17c58.13,40.14,133.93,28.91,203.64,27.31,47.59-1.1,95.26,3,142.68-2s95.83-20.17,131.52-54.38c34.67-33.24,54-81.08,66-129,32-127.53,16.6-271-56.47-375.64"/>
    </g>
    <path class="cls-5" d="m386 286.28c-167.06-556.27-671.59 57-116 442 5.72 4 58.38-3.13 65.15-4.24 726-119.38 384.32-849.46 50.81-437.79"/>
    <g class="cls-25">
     <path class="cls-20" d="m385.63 337c-163-557.5-672 51.94-119.15 441.15 5.69 4 58.4-2.68 65.18-3.75 726.87-113.94 390.45-846.56 54-437.4"/>
     <polygon class="cls-7" points="725.26 652.84 -83.61 471.88 -21.86 186.42 787.01 367.39"/>
     <polygon class="cls-26" points="694.28 849.82 -114.59 667.87 25.27 17.82 834.14 199.78"/>
     <polygon class="cls-27" points="708.81 731 -99.8 547.85 -17.11 165.58 791.5 348.74"/>
     <polygon class="cls-22" points="763.26 631.77 -108.33 435.71 -70.16 258.32 801.43 454.37"/>
     <g class="cls-28">
      <path class="cls-24" d="M751.68,232.51C702.26,348.46,621.62,446,533.39,530.86S348.52,689.44,257.52,770.73c58.14,40.82,133.94,29.4,203.65,27.77,47.58-1.12,95.26,3,142.68-2s95.82-20.51,131.51-55.31c34.68-33.8,54-82.46,66-131.16,32-129.69,16.6-275.61-56.47-382"/>
     </g>
    </g>
    <path class="cls-29" d="m386 286.28c-167.06-556.27-671.59 57-116 442 5.72 4 58.38-3.13 65.15-4.24 726-119.38 384.32-849.46 50.81-437.79"/>
   </g>
   <path class="cls-3" d="m386 288.11c-167.06-547-671.59 56-116 434.66 5.72 3.9 58.38-3.07 65.15-4.16 726-117.39 384.32-835.3 50.81-430.5"/>
   <path class="cls-30" d="M90.67,606.92c30.49-13.15,31.24-21,53.09-47.63,19.33-23.55,35.82-52.73,63.08-63.59,32.88-13.09,71.64,7.65,89.17,40.62s16.79,74.45,6.21,110.75c-6.87,23.58-17.92,46.19-34.66,62.93-9.65,9.65-21,17.15-32.84,23.21-32.68,16.71-67.3,18.72-103.37,20.59-24,1.24-52.19,3.8-70.36-13.3-14.52-13.66-.4-34.18-.43-55-.05-33.22,28.56-78.94,58.59-90.32"/>
   <path class="cls-15" d="M93.19,611.24c10.19-4.41,20.15-9.53,28.35-17.15a92.22,92.22,0,0,0,8.91-9.83c1.78-2.21,3.51-4.46,5.24-6.71l2.64-3.44c.21-.26.41-.53.62-.8-.51.65-.28.36.06-.08l1.54-2c4.46-5.72,9.11-11.29,13.54-17,4.28-5.55,8.44-11.19,12.71-16.74.24-.32.73-1,.19-.26l.74-1,1.72-2.2q1.61-2,3.24-4c2.2-2.69,4.46-5.33,6.8-7.89s4.6-4.87,7-7.16q1.8-1.69,3.68-3.3l1.89-1.57.89-.7c.27-.22.45-.59-.12.09a3.36,3.36,0,0,1,.6-.45,73.7,73.7,0,0,1,8.12-5.33q2.11-1.2,4.32-2.23l1.19-.55c.17-.07,1.23-.52.62-.27l.61-.24c.45-.18.89-.35,1.34-.51a56.16,56.16,0,0,1,8.82-2.42c.74-.14,1.48-.26,2.23-.37,1-.15-.93.1.05,0L222,497c1.55-.16,3.11-.25,4.67-.28,3-.06,6,.36,9,.5,0,0-1-.15-.47-.06l.52.07,1.21.19,2.23.42c1.54.32,3.08.69,4.6,1.12s2.94.87,4.38,1.37c.67.24,1.34.48,2,.74.39.14.78.3,1.16.45.2.08,1.36.57.73.29s.38.18.55.25l1.14.52c.71.32,1.41.66,2.11,1,1.45.73,2.89,1.5,4.3,2.31a86.78,86.78,0,0,1,7.94,5.21l.88.66c.09.07.59.46.08.06s.09.07.22.18c.63.5,1.25,1,1.86,1.51,1.24,1,2.44,2.1,3.62,3.19a90.54,90.54,0,0,1,6.85,7.14c.53.62,1,1.24,1.56,1.87l.71.88c.11.15.23.3.35.44.44.56-.52-.68-.1-.12,1,1.32,1.94,2.63,2.86,4a88.25,88.25,0,0,1,5.17,8.68q1.29,2.46,2.44,5l.52,1.17.34.78.08.19.08.19.24.59c.19.46.38.93.56,1.39a120.53,120.53,0,0,1,6.15,21.58q.54,2.87.95,5.74c.06.38.18,1.29.06.39.06.43.11.86.16,1.29.13,1,.24,2,.34,3,.38,3.75.61,7.52.7,11.29a167.86,167.86,0,0,1-1,23c-.1,1-.22,1.89-.34,2.84a2.87,2.87,0,0,1-.05.41c-.08.58-.17,1.16-.25,1.74q-.42,2.82-.93,5.64-1,5.6-2.34,11.13a198.19,198.19,0,0,1-6.64,21.87q-1,2.67-2,5.29l-.57,1.41c-.13.3-.52,1.2-.17.41-.4.93-.81,1.86-1.22,2.78q-2.3,5.13-4.94,10.09c-1.79,3.33-3.71,6.6-5.76,9.78-1,1.54-2,3.07-3.1,4.57-.5.7-1,1.38-1.5,2.06-.29.4-.59.79-.89,1.19,0,.06-.48.61-.12.16l-.26.33a109.39,109.39,0,0,1-16,16.38q-1.14.94-2.31,1.86l-.53.42c.07-.06.56-.43.11-.09s-.85.64-1.27,1c-1.58,1.17-3.19,2.31-4.82,3.4-3.31,2.23-6.72,4.31-10.2,6.25s-7,3.77-10.66,5.44l-2.77,1.24-1.28.55c.19-.08.82-.34-.09,0l-.85.36q-2.78,1.13-5.59,2.14a173.32,173.32,0,0,1-22.91,6.5c-3.83.82-7.68,1.52-11.55,2.14q-3,.48-6,.89l-.47.06-1.35.17-3.16.37c-8,.91-16,1.52-24,2-7.59.47-15.18.85-22.77,1.24-6.86.36-13.73.66-20.59.47-3.38-.09-6.76-.3-10.12-.69l-1.15-.14c-.74-.09.91.13.18,0l-.57-.08c-.82-.12-1.64-.25-2.46-.4-1.68-.3-3.36-.65-5-1.07s-3.15-.86-4.69-1.39c-.71-.24-1.41-.49-2.11-.76-.41-.15-.81-.32-1.21-.48s.33.14.33.14a4.74,4.74,0,0,1-.68-.3,47.21,47.21,0,0,1-8.55-5,2.61,2.61,0,0,1-.46-.34s.7.56.26.2-.6-.48-.89-.73c-.69-.58-1.37-1.18-2-1.81a21.56,21.56,0,0,1-1.61-1.7c-.11-.13-.62-.76-.19-.22l-.06-.08c-.24-.35-.48-.7-.7-1.05-.4-.65-.75-1.32-1.09-2s.28.82,0-.07c-.14-.38-.28-.75-.4-1.13-.22-.71-.4-1.42-.55-2.15-.07-.33-.12-.67-.18-1s0-.63,0,0,0-.2,0-.37a30.85,30.85,0,0,1,0-4.61c0-.74.11-1.47.18-2.2,0-.25.2-1.51.1-.83s.1-.62.13-.84c.55-3.42,1.34-6.8,2.13-10.17,1.74-7.45,3.49-15,3.53-22.7a72.58,72.58,0,0,1,.55-8.59c.11-1-.15,1,0,0l.18-1.16c.11-.73.24-1.46.38-2.18.28-1.47.6-2.94,1-4.4.74-3.07,1.64-6.1,2.67-9.09.52-1.5,1.07-3,1.65-4.48.3-.75.6-1.5.91-2.24.37-.9-.31.71.07-.18l.53-1.2a131.48,131.48,0,0,1,9.44-17.53q2.72-4.23,5.75-8.24c.11-.15.81-1,.41-.54l.42-.53q.81-1,1.65-2,1.53-1.86,3.14-3.65,3.21-3.57,6.72-6.83c1.12-1,2.27-2,3.43-3l1.75-1.42a4.31,4.31,0,0,1,.4-.32l-.34.26,1-.71a69.15,69.15,0,0,1,7-4.6c1.15-.65,2.32-1.27,3.51-1.84.56-.27,1.12-.52,1.69-.77.8-.37-1,.38.08,0,.33-.14.65-.27,1-.39,2.43-.94,4.38-3.41,3.49-6.15-.77-2.38-3.54-4.5-6.15-3.5-11.94,4.58-22.14,12.81-30.63,22.25a131.41,131.41,0,0,0-22.45,34.72c-5.25,11.91-9.11,24.75-9.18,37.86,0,1.87-.09,3.73-.27,5.59,0,.49-.11,1-.16,1.47-.12,1,.1-.64-.05.35s-.3,2-.48,2.92c-.67,3.71-1.55,7.38-2.4,11-1.58,6.79-3.37,14-2.61,21a26.7,26.7,0,0,0,3.23,10.67,29.53,29.53,0,0,0,7.4,8.23,56.17,56.17,0,0,0,19.33,9.91c13.71,4,28.33,3.65,42.44,2.95,15.84-.78,31.72-1.49,47.5-3.22,16.35-1.79,32.64-4.69,48.2-10.17a151.86,151.86,0,0,0,44.37-24.3A121,121,0,0,0,292,685.33a192.61,192.61,0,0,0,22.76-91.83c-.26-15.63-2.74-31.42-8.29-46.08-5.2-13.75-12.87-26.34-23.47-36.6a87.55,87.55,0,0,0-34.74-20.94c-12.54-3.87-26.3-4.34-38.87-.37-13.51,4.26-25,13-34.69,23.17-10,10.46-18.41,22.33-27.16,33.81-.52.69-1.05,1.38-1.58,2.06l-.36.47c.63-.81.18-.24,0-.06l-.85,1.09c-1.1,1.4-2.2,2.8-3.32,4.18-2.28,2.83-4.59,5.64-6.84,8.5q-3.13,4-6.22,8l-1.25,1.63-.66.85c-.33.43.35-.44.32-.42l-.36.47c-.79,1-1.58,2-2.38,3.05A98.53,98.53,0,0,1,115,586.52c-.8.76-1.63,1.51-2.47,2.23-.41.35-.83.7-1.26,1l-.69.56c-.41.33.57-.44.5-.39l-.41.31a69.11,69.11,0,0,1-6.16,4.15,135.08,135.08,0,0,1-16.37,8.18c-2.41,1-3.13,4.76-1.79,6.84,1.61,2.5,4.26,2.91,6.84,1.8Z"/>
   <path class="cls-15" d="M703.5,760c-46.32-28.86-69.19-74.91-87.18-122.55C607.71,614.61,574,503,512.58,524.6c-20,7-36.8,19.35-49.94,34.31a192.91,192.91,0,0,0-47.59,128c.1,20.18,3.38,40.67,13.1,58.91s26.45,34.08,47.79,41c9.95,3.24,20.61,4.49,31.2,4.91,17.79.7,35.58-.88,53.29-2.46,39.61-3.53,79.78-7.18,116.89-19.95,5.41-1.87,11.85-6.47,9-11"/>
   <g class="cls-31">
    <path class="cls-32" d="m69.31 253.79c8.28-50.29 38.51-107.79 83.53-134.25 36.17-13.54 58.91 23.2 38.82 53.17-21.28 39.52-28 91.66-61.41 122.09-36.27 33.08-82.47 20.08-60.94-41"/>
   </g>
  </g>
  <g id="Layer_74" data-name="Layer 74">
   <g class="cls-33">
    <path class="cls-17" d="M295.57-21.08c13.21-33.86,8.9-71.7,4.38-107.77L276.31-317.7c-4.65-37.17-8.84-77.07,8.65-110.19,14-26.51,40.57-44.86,69.17-53.84s59.22-9.43,89.09-6.94c55.22,4.6,110.51,19.46,156.63,50.18,27.92,18.59,51.92,42.59,73.13,68.57,26.11,32,48.73,68.43,55.66,109.15,3.06,17.95,3,36.27,2.55,54.47-1.09,45.58-4.42,91.24-13.25,136-3.7,18.72-8.59,37.78-19.84,53.19-20.48,28.07-57.74,38.37-92.45,40s-69.82-3.43-104.09,2.31c-27.73,4.65-54.32,16.29-82.42,17.22-19.09.63-37.94-3.72-56.53-8L325.8,25.79c-5.24-1.22-10.67-2.53-14.89-5.88-12.53-10-7.46-30.69-15.81-44.35"/>
   </g>
  </g>
 </g>
</svg>
