<?xml version="1.0" encoding="UTF-8"?>
<!DOCTYPE svg  PUBLIC '-//W3C//DTD SVG 1.1//EN'  'http://www.w3.org/Graphics/SVG/1.1/DTD/svg11.dtd'>
<svg clip-rule="evenodd" fill-rule="evenodd" stroke-linecap="round" stroke-linejoin="round" stroke-miterlimit="1.5" version="1.1" viewBox="0 0 32 32" xml:space="preserve" xmlns="http://www.w3.org/2000/svg">
<metadata>
<rdf:RDF xmlns:cc="http://web.resource.org/cc/" xmlns:dc="http://purl.org/dc/elements/1.1/" xmlns:rdf="http://www.w3.org/1999/02/22-rdf-syntax-ns#">

     <rdf:Description rdf:about="">
       <dc:title>Mutant Standard emoji 2023.12</dc:title>
     </rdf:Description>

    <cc:work rdf:about="">
        <cc:license rdf:resource="http://creativecommons.org/licenses/by-nc-sa/4.0/"/>
        <cc:attributionName>Caius Nocturne</cc:attributionName>
        <cc:attributionURL>http://mutant.tech/</cc:attributionURL>
    </cc:work>

</rdf:RDF>
</metadata>

    <rect id="crossed_flags" width="32" height="32" fill="none"/>
    <g id="outline">
        <path d="m16 15.764 5.553-11.106 1.789 0.895-0.448 0.894 7.106 3.553-4 8-7.106-3.553-1.776 3.553 4.224 8.447-1.789 0.895-3.553-7.106-3.553 7.106-1.789-0.895 4.224-8.447-1.776-3.553-7.106 3.553-4-8 7.106-3.553-0.448-0.894 1.789-0.895 5.553 11.106z" fill="none" stroke="#000" stroke-width="4px"/>
    </g>
    <g id="emoji">
        <path d="m10 6-8 4 4 8 8-4-4-8z" fill="#f1a500"/>
        <path d="m22 6 8 4-4 8-8-4 4-8z" fill="#f1a500"/>
        <path d="m17.118 13.528 0.882 0.277 0.236 1.959-5.789 11.578-1.789-0.895 6.46-12.919z" fill="#595858"/>
        <path d="m17.118 13.528 4.435-8.87 1.789 0.895-5.106 10.211-1.118-2.236z" fill="#949393"/>
        <path d="m21.342 26.447-1.789 0.895-10.895-21.789 1.789-0.895 10.895 21.789z" fill="#949393"/>
    </g>
</svg>
