<svg xmlns="http://www.w3.org/2000/svg" viewBox="0 0 36 36"><path fill="#80b" d="M4 5C1.873 5 .1608 6.6486.0254 8.7402l1.832 1.832h32.2852l1.832-1.832C35.8392 6.6486 34.127 5 32 5H4z"/><path fill="#00f" d="M.0273 8.7148v3.713l1.8575 1.8574h32.2851L36 12.455V8.7148H.0273z"/><path fill="#8bd" d="M.0273 12.4277v3.7149L1.8848 18h32.2851L36 16.17v-3.7423H.0273z"/><path fill="#6b4" d="M.0273 16.1426v3.7148l1.8575 1.8574h32.2851L36 19.8848v-3.7422H.0273z"/><path fill="#fe0" d="M.0273 19.8574v3.7149l1.8555 1.8554h32.289L36 23.5997v-3.7423H.0273z"/><path fill="#f41" d="M.0273 23.5723v3.7129l1.8575 1.8574h32.2851L36 27.3125v-3.7402H.0273z"/><path fill="#f10" d="M.0273 27.2852C.1751 29.3646 1.8817 31 4 31h28c2.1183 0 3.8249-1.6354 3.9727-3.7148H.0273z"/><path fill="none" stroke="#fff" stroke-width="1.85714" d="m12 24 6-6 6 6m-6-14v16"/><ellipse cx="18" cy="18" fill="none" stroke="#fff" stroke-width="2" rx="7.8798566" ry="7.8798552"/><script xmlns=""/></svg>