<?xml version="1.0" encoding="UTF-8"?>
<!DOCTYPE svg  PUBLIC '-//W3C//DTD SVG 1.1//EN'  'http://www.w3.org/Graphics/SVG/1.1/DTD/svg11.dtd'>
<svg clip-rule="evenodd" fill-rule="evenodd" stroke-linejoin="round" stroke-miterlimit="2" version="1.1" viewBox="0 0 32 32" xml:space="preserve" xmlns="http://www.w3.org/2000/svg">
<metadata>
<rdf:RDF xmlns:cc="http://web.resource.org/cc/" xmlns:dc="http://purl.org/dc/elements/1.1/" xmlns:rdf="http://www.w3.org/1999/02/22-rdf-syntax-ns#">

     <rdf:Description rdf:about="">
       <dc:title>Mutant Standard emoji 2023.12</dc:title>
     </rdf:Description>

    <cc:work rdf:about="">
        <cc:license rdf:resource="http://creativecommons.org/licenses/by-nc-sa/4.0/"/>
        <cc:attributionName>Caius Nocturne</cc:attributionName>
        <cc:attributionURL>http://mutant.tech/</cc:attributionURL>
    </cc:work>

</rdf:RDF>
</metadata>

    <rect id="pirate_flag" width="32" height="32" fill="none"/>
    <clipPath id="_clip1">
        <rect width="32" height="32"/>
    </clipPath>
    <g clip-path="url(#_clip1)">
        <g id="outline">
            <path d="m32 7c-0-0.796-0.316-1.559-0.879-2.121-0.562-0.563-1.325-0.879-2.121-0.879h-26c-0.796-0-1.559 0.316-2.121 0.879-0.563 0.562-0.879 1.325-0.879 2.121v18c0 0.796 0.316 1.559 0.879 2.121 0.562 0.563 1.325 0.879 2.121 0.879h26c0.796 0 1.559-0.316 2.121-0.879 0.563-0.562 0.879-1.325 0.879-2.121v-18z"/>
        </g>
        <g id="emoji">
            <path d="m30 7c0-0.552-0.448-1-1-1h-26c-0.552 0-1 0.448-1 1v18c-0 0.552 0.448 1 1 1h26c0.552-0 1-0.448 1-1v-18z" fill="#3f3f3f"/>
            <path d="m24 21c0.552 0 1 0.448 1 1s-0.448 1-1 1h-1v1c-0 0.552-0.448 1-1 1s-1-0.448-1-1v-1.876l-5-1.667-5 1.667v1.851c-0 0.272-0.108 0.533-0.3 0.725s-0.453 0.3-0.725 0.3h-1e-3c-0.258 0-0.506-0.103-0.689-0.285-0.182-0.183-0.285-0.431-0.285-0.689v-1.026h-1c-0.552-0-1-0.448-1-1s0.448-1 1-1h1.628l4-1.333-5-1.667h-1.628c-0.552-0-1-0.448-1-1s0.448-1 1-1h1v-1c0-0.552 0.448-1 1-1s1 0.448 1 1v1.876l2.65 0.883c0.099 0.243 0.247 0.466 0.436 0.655 0.375 0.375 0.884 0.586 1.414 0.586h3c0.53-0 1.039-0.211 1.414-0.586 0.189-0.189 0.337-0.412 0.436-0.655l2.65-0.883v-1.876c0-0.552 0.448-1 1-1s1 0.448 1 1v1h1c0.552-0 1 0.448 1 1s-0.448 1-1 1h-1.628l-5 1.667 4 1.333h1.628zm-10.5-5.292c-0.493-0.199-0.945-0.497-1.328-0.88-0.751-0.75-1.172-1.767-1.172-2.828v-1c-0-1.061 0.421-2.078 1.172-2.828 0.75-0.751 1.767-1.172 2.828-1.172h2c1.061-0 2.078 0.421 2.828 1.172 0.751 0.75 1.172 1.767 1.172 2.828v1c0 1.061-0.421 2.078-1.172 2.828-0.383 0.383-0.835 0.681-1.328 0.88v1.292c-0 0.552-0.448 1-1 1h-3c-0.552 0-1-0.448-1-1v-1.292zm1.5-3.21c0-0.397-0.158-0.778-0.439-1.059s-0.662-0.439-1.059-0.439h-0.034c-0.389-0-0.763 0.155-1.038 0.43s-0.43 0.649-0.43 1.038v0.064c-0 0.389 0.155 0.763 0.43 1.038s0.649 0.43 1.038 0.43h0.034c0.397 0 0.778-0.158 1.059-0.439s0.439-0.662 0.439-1.059v-4e-3zm5 0c0-0.397-0.158-0.778-0.439-1.059s-0.662-0.439-1.059-0.439h-0.034c-0.389-0-0.763 0.155-1.038 0.43s-0.43 0.649-0.43 1.038v0.064c-0 0.389 0.155 0.763 0.43 1.038s0.649 0.43 1.038 0.43h0.034c0.397 0 0.778-0.158 1.059-0.439s0.439-0.662 0.439-1.059v-4e-3z" fill="#fff"/>
        </g>
    </g>
</svg>
