<?xml version="1.0" encoding="UTF-8"?>
<!DOCTYPE svg  PUBLIC '-//W3C//DTD SVG 1.1//EN'  'http://www.w3.org/Graphics/SVG/1.1/DTD/svg11.dtd'>
<svg clip-rule="evenodd" fill-rule="evenodd" stroke-linejoin="round" stroke-miterlimit="1.5" version="1.1" viewBox="0 0 32 32" xml:space="preserve" xmlns="http://www.w3.org/2000/svg">
<metadata>
<rdf:RDF xmlns:cc="http://web.resource.org/cc/" xmlns:dc="http://purl.org/dc/elements/1.1/" xmlns:rdf="http://www.w3.org/1999/02/22-rdf-syntax-ns#">

     <rdf:Description rdf:about="">
       <dc:title>Mutant Standard emoji 2023.12</dc:title>
     </rdf:Description>

    <cc:work rdf:about="">
        <cc:license rdf:resource="http://creativecommons.org/licenses/by-nc-sa/4.0/"/>
        <cc:attributionName>Caius Nocturne</cc:attributionName>
        <cc:attributionURL>http://mutant.tech/</cc:attributionURL>
    </cc:work>

</rdf:RDF>
</metadata>
<rect id="cheetah" width="32" height="32" fill="none"/><clipPath id="_clip1"><rect width="32" height="32"/></clipPath><g clip-path="url(#_clip1)"><g id="outline" fill="none" stroke="#000" stroke-width="4px"><path d="m18 9 8 5 2.828-2.828c0.751-0.751 1.172-1.768 1.172-2.829v-0.489c0-1.04-0.538-2.005-1.423-2.552-0.884-0.546-1.989-0.596-2.919-0.131-3.435 1.718-7.658 3.829-7.658 3.829z"/><path d="m14 9-8 5-2.828-2.828c-0.751-0.751-1.172-1.768-1.172-2.829v-0.489c0-1.04 0.538-2.005 1.423-2.552 0.884-0.546 1.989-0.596 2.919-0.131 3.435 1.718 7.658 3.829 7.658 3.829z"/><path d="m7.444 7.905c-1.551 1.33-2.444 3.271-2.444 5.315v2.081c0 2.387 0.854 4.695 2.407 6.508 1.669 1.947 3.593 4.191 3.593 4.191v0c0 1.657 1.343 3 3 3h4c1.657 0 3-1.343 3-3v0s1.924-2.244 3.593-4.191c1.553-1.813 2.407-4.121 2.407-6.508v-2.081c0-2.044-0.893-3.985-2.444-5.315-0.708-0.606-1.478-1.267-2.181-1.87-1.533-1.313-3.484-2.035-5.503-2.035h-1.744c-2.019 0-3.97 0.722-5.503 2.035-0.703 0.603-1.473 1.264-2.181 1.87z" stroke-linecap="round"/></g><g id="emoji"><path d="m18 9 8 5 2.828-2.828c0.751-0.751 1.172-1.768 1.172-2.829v-0.489c0-1.04-0.538-2.005-1.423-2.552-0.884-0.546-1.989-0.596-2.919-0.131-3.435 1.718-7.658 3.829-7.658 3.829z" fill="#ab7314"/><clipPath id="_clip2"><path d="m18 9 8 5 2.828-2.828c0.751-0.751 1.172-1.768 1.172-2.829v-0.489c0-1.04-0.538-2.005-1.423-2.552-0.884-0.546-1.989-0.596-2.919-0.131-3.435 1.718-7.658 3.829-7.658 3.829z"/></clipPath><g clip-path="url(#_clip2)"><path d="m22 9s4.248-2.124 6.553-3.276c0.31-0.155 0.678-0.139 0.973 0.043 0.295 0.183 0.474 0.504 0.474 0.851v8.382h-8v-6z" fill="#d3d3d3"/></g><path d="m14 9-8 5-2.828-2.828c-0.751-0.751-1.172-1.768-1.172-2.829v-0.489c0-1.04 0.538-2.005 1.423-2.552 0.884-0.546 1.989-0.596 2.919-0.131 3.435 1.718 7.658 3.829 7.658 3.829z" fill="#ab7314"/><clipPath id="_clip3"><path d="m14 9-8 5-2.828-2.828c-0.751-0.751-1.172-1.768-1.172-2.829v-0.489c0-1.04 0.538-2.005 1.423-2.552 0.884-0.546 1.989-0.596 2.919-0.131 3.435 1.718 7.658 3.829 7.658 3.829z"/></clipPath><g clip-path="url(#_clip3)"><path d="m10 9s-4.248-2.124-6.553-3.276c-0.31-0.155-0.678-0.139-0.973 0.043-0.295 0.183-0.474 0.504-0.474 0.851v8.382h8v-6z" fill="#d3d3d3"/></g><path d="m7.444 7.905c-1.551 1.33-2.444 3.271-2.444 5.315v2.081c0 2.387 0.854 4.695 2.407 6.508 1.669 1.947 3.593 4.191 3.593 4.191 0 1.657 1.343 3 3 3h4c1.657 0 3-1.343 3-3 0 0 1.924-2.244 3.593-4.191 1.553-1.813 2.407-4.121 2.407-6.508v-2.081c0-2.044-0.893-3.985-2.444-5.315-0.708-0.606-1.478-1.267-2.181-1.87-1.533-1.313-3.484-2.035-5.503-2.035h-1.744c-2.019 0-3.97 0.722-5.503 2.035-0.703 0.603-1.473 1.264-2.181 1.87z" fill="#e9ae41"/><clipPath id="_clip4"><path d="m7.444 7.905c-1.551 1.33-2.444 3.271-2.444 5.315v2.081c0 2.387 0.854 4.695 2.407 6.508 1.669 1.947 3.593 4.191 3.593 4.191 0 1.657 1.343 3 3 3h4c1.657 0 3-1.343 3-3 0 0 1.924-2.244 3.593-4.191 1.553-1.813 2.407-4.121 2.407-6.508v-2.081c0-2.044-0.893-3.985-2.444-5.315-0.708-0.606-1.478-1.267-2.181-1.87-1.533-1.313-3.484-2.035-5.503-2.035h-1.744c-2.019 0-3.97 0.722-5.503 2.035-0.703 0.603-1.473 1.264-2.181 1.87z"/></clipPath><g clip-path="url(#_clip4)"><path d="m19 21v2h2c1.105 0 2-0.895 2-2l2-2h4v12h-26v-12h4l2 2c0 1.105 0.895 2 2 2h2v-2h6z" fill="#f1f1f1"/></g><path d="m21.5 6c0.133 0 0.26 0.053 0.354 0.146 0.093 0.094 0.146 0.221 0.146 0.354v1e-3c0 0.276-0.223 0.499-0.499 0.499h-1.002c-0.276 0-0.499-0.223-0.499-0.499v-1e-3c0-0.133 0.053-0.26 0.146-0.354 0.094-0.093 0.221-0.146 0.354-0.146h1z"/><path d="m19.5 7c0.133 0 0.26 0.053 0.354 0.146 0.093 0.094 0.146 0.221 0.146 0.354v1e-3c0 0.276-0.223 0.499-0.499 0.499h-1.002c-0.276 0-0.499-0.223-0.499-0.499v-1e-3c0-0.133 0.053-0.26 0.146-0.354 0.094-0.093 0.221-0.146 0.354-0.146h1z"/><path d="m16.5 7c0.133 0 0.26 0.053 0.354 0.146 0.093 0.094 0.146 0.221 0.146 0.354v1e-3c0 0.276-0.223 0.499-0.499 0.499h-1.002c-0.276 0-0.499-0.223-0.499-0.499v-1e-3c0-0.133 0.053-0.26 0.146-0.354 0.094-0.093 0.221-0.146 0.354-0.146h1z"/><path d="m13.5 7c0.133 0 0.26 0.053 0.354 0.146 0.093 0.094 0.146 0.221 0.146 0.354v1e-3c0 0.276-0.223 0.499-0.499 0.499h-1.002c-0.276 0-0.499-0.223-0.499-0.499v-1e-3c0-0.133 0.053-0.26 0.146-0.354 0.094-0.093 0.221-0.146 0.354-0.146h1z"/><path d="m12.5 9c0.133 0 0.26 0.053 0.354 0.146 0.093 0.094 0.146 0.221 0.146 0.354v2c0 0.133-0.053 0.26-0.146 0.354-0.094 0.093-0.221 0.146-0.354 0.146s-0.26-0.053-0.354-0.146c-0.093-0.094-0.146-0.221-0.146-0.354v-2c0-0.133 0.053-0.26 0.146-0.354 0.094-0.093 0.221-0.146 0.354-0.146z"/><path d="m19.501 9c0.276 0 0.499 0.223 0.499 0.499v2.002c0 0.276-0.223 0.499-0.499 0.499h-2e-3c-0.276 0-0.499-0.223-0.499-0.499v-2.002c0-0.276 0.223-0.499 0.499-0.499h2e-3z"/><path d="m16.501 9c0.276 0 0.499 0.223 0.499 0.499v1e-3c0 0.133-0.053 0.26-0.146 0.354-0.094 0.093-0.221 0.146-0.354 0.146h-1c-0.133 0-0.26-0.053-0.354-0.146-0.093-0.094-0.146-0.221-0.146-0.354v-1e-3c0-0.276 0.223-0.499 0.499-0.499h1.002z"/><path d="m18.5 5c0.133 0 0.26 0.053 0.354 0.146 0.093 0.094 0.146 0.221 0.146 0.354v1e-3c0 0.276-0.223 0.499-0.499 0.499h-1.002c-0.276 0-0.499-0.223-0.499-0.499v-1e-3c0-0.133 0.053-0.26 0.146-0.354 0.094-0.093 0.221-0.146 0.354-0.146h1z"/><path d="m14.501 5c0.276 0 0.499 0.223 0.499 0.499v1e-3c0 0.133-0.053 0.26-0.146 0.354-0.094 0.093-0.221 0.146-0.354 0.146h-1c-0.133 0-0.26-0.053-0.354-0.146-0.093-0.094-0.146-0.221-0.146-0.354v-1e-3c0-0.276 0.223-0.499 0.499-0.499h1.002z"/><path d="m11.501 6c0.276 0 0.499 0.223 0.499 0.499v1e-3c0 0.133-0.053 0.26-0.146 0.354-0.094 0.093-0.221 0.146-0.354 0.146h-1c-0.133 0-0.26-0.053-0.354-0.146-0.093-0.094-0.146-0.221-0.146-0.354v-1e-3c0-0.276 0.223-0.499 0.499-0.499h1.002z"/><path d="m11 26.5h1.292c0.466 0 0.925-0.108 1.341-0.317 0.881-0.44 2.367-1.183 2.367-1.183s1.486 0.743 2.367 1.183c0.416 0.209 0.875 0.317 1.341 0.317h1.292" fill="none" stroke="#000" stroke-linejoin="miter" stroke-width="1px"/><path d="m13 20h6v1.382c0 0.379-0.214 0.725-0.553 0.894-0.592 0.296-1.447 0.724-1.447 0.724v2h-2v-2s-0.855-0.428-1.447-0.724c-0.339-0.169-0.553-0.515-0.553-0.894v-1.382z"/><path d="m19.5 15v0.757c0 0.796 0.316 1.559 0.879 2.122l1.242 1.242c0.563 0.563 0.879 1.326 0.879 2.122v4.757" fill="none" stroke="#000" stroke-width="1px"/><path d="m12.5 15v0.757c0 0.796-0.316 1.559-0.879 2.122l-1.242 1.242c-0.563 0.563-0.879 1.326-0.879 2.122v4.757" fill="none" stroke="#000" stroke-width="1px"/><path d="m11 13c0.53 0 1.039 0.211 1.414 0.586s0.586 0.884 0.586 1.414v1h-1.838c-1.291 0-2.437-0.826-2.846-2.051-0.175-0.527-0.316-0.949-0.316-0.949h3z"/><path d="m21 13c-0.53 0-1.039 0.211-1.414 0.586s-0.586 0.884-0.586 1.414v1h1.838c1.291 0 2.437-0.826 2.846-2.051 0.175-0.527 0.316-0.949 0.316-0.949h-3z"/><path d="m8 16-1 2" fill="none" stroke="#000" stroke-linecap="round" stroke-width="1px"/><path d="m8.5 19-0.5 1" fill="none" stroke="#000" stroke-linecap="round" stroke-width="1px"/><path d="m23.5 19 0.5 1" fill="none" stroke="#000" stroke-linecap="round" stroke-width="1px"/><path d="m24 16 1 2" fill="none" stroke="#000" stroke-linecap="round" stroke-width="1px"/></g></g></svg>
