<?xml version="1.0" encoding="UTF-8"?>
<!DOCTYPE svg  PUBLIC '-//W3C//DTD SVG 1.1//EN'  'http://www.w3.org/Graphics/SVG/1.1/DTD/svg11.dtd'>
<svg clip-rule="evenodd" fill-rule="evenodd" stroke-linejoin="round" stroke-miterlimit="1.5" version="1.1" viewBox="0 0 32 32" xml:space="preserve" xmlns="http://www.w3.org/2000/svg">
<metadata>
<rdf:RDF xmlns:cc="http://web.resource.org/cc/" xmlns:dc="http://purl.org/dc/elements/1.1/" xmlns:rdf="http://www.w3.org/1999/02/22-rdf-syntax-ns#">

     <rdf:Description rdf:about="">
       <dc:title>Mutant Standard emoji 2023.12</dc:title>
     </rdf:Description>

    <cc:work rdf:about="">
        <cc:license rdf:resource="http://creativecommons.org/licenses/by-nc-sa/4.0/"/>
        <cc:attributionName>Caius Nocturne</cc:attributionName>
        <cc:attributionURL>http://mutant.tech/</cc:attributionURL>
    </cc:work>

</rdf:RDF>
</metadata>
<rect id="jaguar" width="32" height="32" fill="none"/><clipPath id="_clip1"><rect width="32" height="32"/></clipPath><g clip-path="url(#_clip1)"><g id="outline" fill="none" stroke="#000" stroke-width="4px"><path d="m21 8 5 5s0.864-0.432 1.789-0.894c1.355-0.678 2.211-2.063 2.211-3.578v-0.753c0-0.643-0.309-1.247-0.831-1.623-0.521-0.376-1.192-0.478-1.801-0.275-2.657 0.886-6.368 2.123-6.368 2.123z"/><path d="m11 8-5 5s-0.864-0.432-1.789-0.894c-1.355-0.678-2.211-2.063-2.211-3.578v-0.753c0-0.643 0.309-1.247 0.831-1.623 0.521-0.376 1.192-0.478 1.801-0.275 2.657 0.886 6.368 2.123 6.368 2.123z"/><path d="m6.049 9.207c-1.302 1.139-2.049 2.785-2.049 4.516v1.861c0 0.931 0.217 1.85 0.633 2.683 0.361 0.722 0.796 1.591 1.077 2.152 0.192 0.385 0.445 0.736 0.749 1.04l3.541 3.541v0c0 1.657 1.343 3 3 3h6c1.657 0 3-1.343 3-3v0l3.541-3.541c0.304-0.304 0.557-0.655 0.749-1.04 0.281-0.561 0.716-1.43 1.077-2.152 0.416-0.833 0.633-1.752 0.633-2.683v-1.861c0-1.731-0.747-3.377-2.049-4.516-1.086-0.95-2.427-2.123-3.56-3.115-1.541-1.349-3.52-2.092-5.568-2.092h-1.646c-2.048 0-4.027 0.743-5.568 2.092-1.133 0.992-2.474 2.165-3.56 3.115z" stroke-linecap="round"/></g><g id="emoji"><path d="m21 8 5 5s0.864-0.432 1.789-0.894c1.355-0.678 2.211-2.063 2.211-3.578v-0.753c0-0.643-0.309-1.247-0.831-1.623-0.521-0.376-1.192-0.478-1.801-0.275-2.657 0.886-6.368 2.123-6.368 2.123z" fill="#a5650a"/><clipPath id="_clip2"><path d="m21 8 5 5s0.864-0.432 1.789-0.894c1.355-0.678 2.211-2.063 2.211-3.578v-0.753c0-0.643-0.309-1.247-0.831-1.623-0.521-0.376-1.192-0.478-1.801-0.275-2.657 0.886-6.368 2.123-6.368 2.123z"/></clipPath><g clip-path="url(#_clip2)"><path d="m31 7.387c0-0.321-0.155-0.623-0.415-0.811-0.261-0.188-0.596-0.239-0.901-0.137-2.499 0.833-7.684 2.561-7.684 2.561l5 5h4v-6.613z" fill="#f1f1f1"/></g><path d="m11 8-5 5s-0.864-0.432-1.789-0.894c-1.355-0.678-2.211-2.063-2.211-3.578v-0.753c0-0.643 0.309-1.247 0.831-1.623 0.521-0.376 1.192-0.478 1.801-0.275 2.657 0.886 6.368 2.123 6.368 2.123z" fill="#a5650a"/><clipPath id="_clip3"><path d="m11 8-5 5s-0.864-0.432-1.789-0.894c-1.355-0.678-2.211-2.063-2.211-3.578v-0.753c0-0.643 0.309-1.247 0.831-1.623 0.521-0.376 1.192-0.478 1.801-0.275 2.657 0.886 6.368 2.123 6.368 2.123z"/></clipPath><g clip-path="url(#_clip3)"><path d="m1 7.387c0-0.321 0.155-0.623 0.415-0.811 0.261-0.188 0.596-0.239 0.901-0.137 2.499 0.833 7.684 2.561 7.684 2.561l-5 5h-4v-6.613z" fill="#f1f1f1"/></g><path d="m6.049 9.207c-1.302 1.139-2.049 2.785-2.049 4.516v1.861c0 0.931 0.217 1.85 0.633 2.683 0.361 0.722 0.796 1.591 1.077 2.152 0.192 0.385 0.445 0.736 0.749 1.04l3.541 3.541c0 1.657 1.343 3 3 3h6c1.657 0 3-1.343 3-3l3.541-3.541c0.304-0.304 0.557-0.655 0.749-1.04 0.281-0.561 0.716-1.43 1.077-2.152 0.416-0.833 0.633-1.752 0.633-2.683v-1.861c0-1.731-0.747-3.377-2.049-4.516-1.086-0.95-2.427-2.123-3.56-3.115-1.541-1.349-3.52-2.092-5.568-2.092h-1.646c-2.048 0-4.027 0.743-5.568 2.092-1.133 0.992-2.474 2.165-3.56 3.115z" fill="#c87c12"/><clipPath id="_clip4"><path d="m6.049 9.207c-1.302 1.139-2.049 2.785-2.049 4.516v1.861c0 0.931 0.217 1.85 0.633 2.683 0.361 0.722 0.796 1.591 1.077 2.152 0.192 0.385 0.445 0.736 0.749 1.04l3.541 3.541c0 1.657 1.343 3 3 3h6c1.657 0 3-1.343 3-3l3.541-3.541c0.304-0.304 0.557-0.655 0.749-1.04 0.281-0.561 0.716-1.43 1.077-2.152 0.416-0.833 0.633-1.752 0.633-2.683v-1.861c0-1.731-0.747-3.377-2.049-4.516-1.086-0.95-2.427-2.123-3.56-3.115-1.541-1.349-3.52-2.092-5.568-2.092h-1.646c-2.048 0-4.027 0.743-5.568 2.092-1.133 0.992-2.474 2.165-3.56 3.115z"/></clipPath><g clip-path="url(#_clip4)"><path d="m19 20v2h1c0.53 0 1.039-0.211 1.414-0.586s0.586-0.884 0.586-1.414c0-0.796 0.316-1.559 0.879-2.121 0.562-0.563 1.325-0.879 2.121-0.879h4v13h-26v-13h4c0.796 0 1.559 0.316 2.121 0.879 0.563 0.562 0.879 1.325 0.879 2.121 0 0.53 0.211 1.039 0.586 1.414s0.884 0.586 1.414 0.586h1v-2h6z" fill="#f1f1f1"/></g><path d="m19.5 9c0.552 0 1 0.448 1 1s-0.448 1-1 1h-1c-0.552 0-1-0.448-1-1s0.448-1 1-1h1z"/><path d="m18 12c0.552 0 1 0.448 1 1s-0.448 1-1 1-1-0.448-1-1 0.448-1 1-1z"/><path d="m14 12c0.552 0 1 0.448 1 1s-0.448 1-1 1-1-0.448-1-1 0.448-1 1-1z"/><path d="m13.5 9c0.552 0 1 0.448 1 1s-0.448 1-1 1h-1c-0.552 0-1-0.448-1-1s0.448-1 1-1h1z"/><path d="m20 6c0.552 0 1 0.448 1 1s-0.448 1-1 1h-1c-0.552 0-1-0.448-1-1s0.448-1 1-1h1z"/><path d="m13 6c0.552 0 1 0.448 1 1s-0.448 1-1 1h-1c-0.552 0-1-0.448-1-1s0.448-1 1-1h1z"/><path d="m16 5c0.552 0 1 0.448 1 1s-0.448 1-1 1-1-0.448-1-1 0.448-1 1-1z"/><path d="m16 8c0.552 0 1 0.448 1 1s-0.448 1-1 1-1-0.448-1-1 0.448-1 1-1z"/><path d="m5 15c0-0.552 0.448-1 1-1s1 0.448 1 1-0.448 1-1 1-1-0.448-1-1z"/><path d="m25 15c0-0.552 0.448-1 1-1s1 0.448 1 1-0.448 1-1 1-1-0.448-1-1z"/><path d="m5 12c0-0.552 0.448-1 1-1s1 0.448 1 1-0.448 1-1 1-1-0.448-1-1z"/><path d="m25 12c0-0.552 0.448-1 1-1s1 0.448 1 1-0.448 1-1 1-1-0.448-1-1z"/><path d="m10 25.5h2.292c0.466 0 0.925-0.108 1.341-0.317 0.881-0.44 2.367-1.183 2.367-1.183s1.486 0.743 2.367 1.183c0.416 0.209 0.875 0.317 1.341 0.317h2.292" fill="none" stroke="#000" stroke-linejoin="miter" stroke-width="1px"/><path d="m13 19h6s0.171 0.257 0.372 0.557c0.159 0.239 0.208 0.535 0.134 0.812s-0.263 0.509-0.519 0.638c-0.871 0.435-1.987 0.993-1.987 0.993v2h-2v-2s-1.116-0.558-1.987-0.993c-0.256-0.129-0.445-0.361-0.519-0.638s-0.025-0.573 0.134-0.812c0.201-0.3 0.372-0.557 0.372-0.557z"/><path d="m11.5 14v1.757c0 0.796-0.316 1.559-0.879 2.122l-1.121 1.121" fill="none" stroke="#614216" stroke-width="1px"/><path d="m20.5 14v1.757c0 0.796 0.316 1.559 0.879 2.122l1.121 1.121" fill="none" stroke="#614216" stroke-width="1px"/><path d="m11 12c0.552 0 1 0.448 1 1v2h-0.838c-1.291 0-2.437-0.826-2.846-2.051-0.175-0.527-0.316-0.949-0.316-0.949h3z"/><path d="m21 12c-0.552 0-1 0.448-1 1v2h0.838c1.291 0 2.437-0.826 2.846-2.051 0.175-0.527 0.316-0.949 0.316-0.949h-3z"/><path d="m7.5 20 1 1" fill="none" stroke="#000" stroke-linecap="round" stroke-width="2px"/><path d="m6.5 16.5 1 1" fill="none" stroke="#000" stroke-linecap="round" stroke-width="2px"/><path d="m24.5 20-1 1" fill="none" stroke="#000" stroke-linecap="round" stroke-width="2px"/><path d="m25 16.5-1 1" fill="none" stroke="#000" stroke-linecap="round" stroke-width="2px"/><path d="m22.5 9 1 1" fill="none" stroke="#000" stroke-linecap="round" stroke-width="2px"/><path d="m9.5 9-1 1" fill="none" stroke="#000" stroke-linecap="round" stroke-width="2px"/></g></g></svg>
