<?xml version="1.0" encoding="UTF-8"?>
<svg clip-rule="evenodd" fill-rule="evenodd" stroke-linejoin="round" stroke-miterlimit="1.5" viewBox="0 0 32 32" xmlns="http://www.w3.org/2000/svg">
 <clipPath id="a">
  <path d="m0 0h32v32h-32z" clip-rule="evenodd"/>
 </clipPath>
 <clipPath id="b">
  <path d="m21 8 5 5s0.864-0.432 1.789-0.894c1.355-0.678 2.211-2.063 2.211-3.578v-0.753c0-0.643-0.309-1.247-0.831-1.623-0.521-0.376-1.192-0.478-1.801-0.275-2.657 0.886-6.368 2.123-6.368 2.123z" clip-rule="evenodd"/>
 </clipPath>
 <clipPath id="c">
  <path d="m11 8-5 5s-.864-.432-1.789-.894c-1.355-.678-2.211-2.063-2.211-3.578 0-.249 0-.502 0-.753 0-.643.309-1.247.831-1.623.521-.376 1.192-.478 1.801-.275 2.657.886 6.368 2.123 6.368 2.123z" clip-rule="evenodd"/>
 </clipPath>
 <clipPath id="d">
  <path d="m6.049 9.207c-1.302 1.139-2.049 2.785-2.049 4.516v1.861c0 0.931 0.217 1.85 0.633 2.683 0.361 0.722 0.796 1.591 1.077 2.152 0.192 0.385 0.445 0.736 0.749 1.04l3.541 3.541c0 1.657 1.343 3 3 3h6c1.657 0 3-1.343 3-3s2.49-2.49 3.541-3.541c0.304-0.304 0.557-0.655 0.749-1.04 0.281-0.561 0.716-1.43 1.077-2.152 0.416-0.833 0.633-1.752 0.633-2.683v-1.861c0-1.731-0.747-3.377-2.049-4.516-1.086-0.95-2.427-2.123-3.56-3.115-1.541-1.349-3.52-2.092-5.568-2.092h-1.646c-2.048 0-4.027 0.743-5.568 2.092-1.133 0.992-2.474 2.165-3.56 3.115z" clip-rule="evenodd"/>
 </clipPath>
 <path d="m0 0h32v32h-32z" fill="none"/>
 <g clip-path="url(#a)">
  <path d="m21 8 5 5s0.864-0.432 1.789-0.894c1.355-0.678 2.211-2.063 2.211-3.578v-0.753c0-0.643-0.309-1.247-0.831-1.623-0.521-0.376-1.192-0.478-1.801-0.275-2.657 0.886-6.368 2.123-6.368 2.123z" fill="none" stroke="#000" stroke-width="4"/>
  <path d="m11 8-5 5s-.864-.432-1.789-.894c-1.355-.678-2.211-2.063-2.211-3.578 0-.249 0-.502 0-.753 0-.643.309-1.247.831-1.623.521-.376 1.192-.478 1.801-.275 2.657.886 6.368 2.123 6.368 2.123z" fill="none" stroke="#000" stroke-width="4"/>
  <path d="m6.049 9.207c-1.302 1.139-2.049 2.785-2.049 4.516v1.861c0 0.931 0.217 1.85 0.633 2.683 0.361 0.722 0.796 1.591 1.077 2.152 0.192 0.385 0.445 0.736 0.749 1.04l3.541 3.541c0 1.657 1.343 3 3 3h6c1.657 0 3-1.343 3-3s2.49-2.49 3.541-3.541c0.304-0.304 0.557-0.655 0.749-1.04 0.281-0.561 0.716-1.43 1.077-2.152 0.416-0.833 0.633-1.752 0.633-2.683v-1.861c0-1.731-0.747-3.377-2.049-4.516-1.086-0.95-2.427-2.123-3.56-3.115-1.541-1.349-3.52-2.092-5.568-2.092h-1.646c-2.048 0-4.027 0.743-5.568 2.092-1.133 0.992-2.474 2.165-3.56 3.115z" fill="none" stroke="#000" stroke-linecap="round" stroke-width="4"/>
  <path d="m21 8 5 5s0.864-0.432 1.789-0.894c1.355-0.678 2.211-2.063 2.211-3.578v-0.753c0-0.643-0.309-1.247-0.831-1.623-0.521-0.376-1.192-0.478-1.801-0.275-2.657 0.886-6.368 2.123-6.368 2.123z" fill="#a5650a"/>
  <g clip-path="url(#b)">
   <path d="m31 7.387c0-.321-.155-.623-.415-.811-.261-.188-.596-.239-.901-.137-2.499.833-7.684 2.561-7.684 2.561l5 5h4s0-4.322 0-6.613z" fill="#f1f1f1"/>
  </g>
  <path d="m11 8-5 5s-.864-.432-1.789-.894c-1.355-.678-2.211-2.063-2.211-3.578 0-.249 0-.502 0-.753 0-.643.309-1.247.831-1.623.521-.376 1.192-.478 1.801-.275 2.657.886 6.368 2.123 6.368 2.123z" fill="#a5650a"/>
  <g clip-path="url(#c)">
   <path d="m1 7.387c0-.321.155-.623.415-.811.261-.188.596-.239.901-.137 2.499.833 7.684 2.561 7.684 2.561l-5 5h-4s0-4.322 0-6.613z" fill="#f1f1f1"/>
  </g>
  <path d="m6.049 9.207c-1.302 1.139-2.049 2.785-2.049 4.516v1.861c0 0.931 0.217 1.85 0.633 2.683 0.361 0.722 0.796 1.591 1.077 2.152 0.192 0.385 0.445 0.736 0.749 1.04l3.541 3.541c0 1.657 1.343 3 3 3h6c1.657 0 3-1.343 3-3s2.49-2.49 3.541-3.541c0.304-0.304 0.557-0.655 0.749-1.04 0.281-0.561 0.716-1.43 1.077-2.152 0.416-0.833 0.633-1.752 0.633-2.683v-1.861c0-1.731-0.747-3.377-2.049-4.516-1.086-0.95-2.427-2.123-3.56-3.115-1.541-1.349-3.52-2.092-5.568-2.092h-1.646c-2.048 0-4.027 0.743-5.568 2.092-1.133 0.992-2.474 2.165-3.56 3.115z" fill="#c87c12"/>
  <g clip-path="url(#d)">
   <path d="m19 20v2h1c.53 0 1.039-.211 1.414-.586s.586-.884.586-1.414c0-.796.316-1.559.879-2.121.562-.563 1.325-.879 2.121-.879h4v13h-26v-13h4c.796 0 1.559.316 2.121.879.563.562.879 1.325.879 2.121 0 .53.211 1.039.586 1.414s.884.586 1.414.586h1v-2z" fill="#f1f1f1"/>
  </g>
  <path d="m19.5 9c0.552 0 1 0.448 1 1s-0.448 1-1 1h-1c-0.552 0-1-0.448-1-1s0.448-1 1-1z"/>
  <path d="m18 12c.552 0 1 .448 1 1s-.448 1-1 1-1-.448-1-1 .448-1 1-1z"/>
  <path d="m14 12c.552 0 1 .448 1 1s-.448 1-1 1-1-.448-1-1 .448-1 1-1z"/>
  <path d="m13.5 9c0.552 0 1 0.448 1 1s-0.448 1-1 1h-1c-0.552 0-1-0.448-1-1s0.448-1 1-1z"/>
  <path d="m20 6c0.552 0 1 0.448 1 1s-0.448 1-1 1h-1c-0.552 0-1-0.448-1-1s0.448-1 1-1z"/>
  <path d="m13 6c0.552 0 1 0.448 1 1s-0.448 1-1 1h-1c-0.552 0-1-0.448-1-1s0.448-1 1-1z"/>
  <path d="m16 5c.552 0 1 .448 1 1s-.448 1-1 1-1-.448-1-1 .448-1 1-1z"/>
  <path d="m16 8c.552 0 1 .448 1 1s-.448 1-1 1-1-.448-1-1 .448-1 1-1z"/>
  <path d="m5 15c0-.552.448-1 1-1s1 .448 1 1-.448 1-1 1-1-.448-1-1z"/>
  <path d="m25 15c0-.552.448-1 1-1s1 .448 1 1-.448 1-1 1-1-.448-1-1z"/>
  <path d="m5 12c0-.552.448-1 1-1s1 .448 1 1-.448 1-1 1-1-.448-1-1z"/>
  <path d="m25 12c0-.552.448-1 1-1s1 .448 1 1-.448 1-1 1-1-.448-1-1z"/>
  <path d="m10 25.5h2.292c.466 0 .925-.108 1.341-.317.881-.44 2.367-1.183 2.367-1.183s1.486.743 2.367 1.183c.416.209.875.317 1.341.317h2.292" fill="none" stroke="#000" stroke-linejoin="miter"/>
  <path d="m13 19h6s.171.257.372.557c.159.239.208.535.134.812s-.263.509-.519.638c-.871.435-1.987.993-1.987.993v2h-2v-2s-1.116-.558-1.987-.993c-.256-.129-.445-.361-.519-.638s-.025-.573.134-.812c.201-.3.372-.557.372-.557z"/>
  <path d="m11.5 14v1.757c0 0.796-0.316 1.559-0.879 2.122l-1.121 1.121" fill="none" stroke="#614216"/>
  <path d="m20.5 14v1.757c0 0.796 0.316 1.559 0.879 2.122l1.121 1.121" fill="none" stroke="#614216"/>
  <path d="m11 12c.552 0 1 .448 1 1v2s-.364 0-.838 0c-1.291 0-2.437-.826-2.846-2.051-.175-.527-.316-.949-.316-.949z"/>
  <path d="m21 12c-.552 0-1 .448-1 1v2h.838c1.291 0 2.437-.826 2.846-2.051.175-.527.316-.949.316-.949s-1.815 0-3 0z"/>
  <g fill="none" stroke="#000" stroke-linecap="round" stroke-width="2">
   <path d="m7.5 20 1 1"/>
   <path d="m6.5 16.5 1 1"/>
   <path d="m24.5 20-1 1"/>
   <path d="m25 16.5-1 1"/>
   <path d="m22.5 9 1 1"/>
   <path d="m9.5 9-1 1"/>
  </g>
 </g>
</svg>
