<?xml version="1.0" encoding="UTF-8"?>
<!DOCTYPE svg  PUBLIC '-//W3C//DTD SVG 1.1//EN'  'http://www.w3.org/Graphics/SVG/1.1/DTD/svg11.dtd'>
<svg clip-rule="evenodd" fill-rule="evenodd" stroke-linejoin="round" stroke-miterlimit="1.5" version="1.1" viewBox="0 0 32 32" xml:space="preserve" xmlns="http://www.w3.org/2000/svg">
<metadata>
<rdf:RDF xmlns:cc="http://web.resource.org/cc/" xmlns:dc="http://purl.org/dc/elements/1.1/" xmlns:rdf="http://www.w3.org/1999/02/22-rdf-syntax-ns#">

     <rdf:Description rdf:about="">
       <dc:title>Mutant Standard emoji 2023.12</dc:title>
     </rdf:Description>

    <cc:work rdf:about="">
        <cc:license rdf:resource="http://creativecommons.org/licenses/by-nc-sa/4.0/"/>
        <cc:attributionName>Caius Nocturne</cc:attributionName>
        <cc:attributionURL>http://mutant.tech/</cc:attributionURL>
    </cc:work>

</rdf:RDF>
</metadata>
<rect id="leopard" width="32" height="32" fill="none"/><clipPath id="_clip1"><rect width="32" height="32"/></clipPath><g clip-path="url(#_clip1)"><g id="outline" fill="none" stroke="#000" stroke-width="4px"><path d="m18 9 8 5s0.864-0.432 1.789-0.894c1.355-0.678 2.211-2.063 2.211-3.578v-3.292c0-0.693-0.359-1.337-0.949-1.701-0.589-0.365-1.325-0.398-1.945-0.088-3.551 1.776-9.106 4.553-9.106 4.553z"/><path d="m14 9-8 5s-0.864-0.432-1.789-0.894c-1.355-0.678-2.211-2.063-2.211-3.578v-3.292c0-0.693 0.359-1.337 0.949-1.701 0.589-0.365 1.325-0.398 1.945-0.088 3.551 1.776 9.106 4.553 9.106 4.553z"/><path d="m7.444 7.905c-1.551 1.33-2.444 3.271-2.444 5.315v3.466c0 2.122 0.843 4.157 2.343 5.657l3.657 3.657v2e-3c0 0.795 0.316 1.558 0.878 2.12s1.325 0.878 2.12 0.878h4.002c1.657 0 3-1.343 3-3v0l3.657-3.657c1.5-1.5 2.343-3.535 2.343-5.657v-3.466c0-2.044-0.893-3.985-2.444-5.315-0.708-0.606-1.478-1.267-2.181-1.87-1.533-1.313-3.484-2.035-5.503-2.035h-1.744c-2.019 0-3.97 0.722-5.503 2.035-0.703 0.603-1.473 1.264-2.181 1.87z" stroke-linecap="round"/></g><g id="emoji"><path d="m18 9 8 5s0.864-0.432 1.789-0.894c1.355-0.678 2.211-2.063 2.211-3.578v-3.292c0-0.693-0.359-1.337-0.949-1.701-0.589-0.365-1.325-0.398-1.945-0.088-3.551 1.776-9.106 4.553-9.106 4.553z" fill="#ab7314"/><clipPath id="_clip2"><path d="m18 9 8 5s0.864-0.432 1.789-0.894c1.355-0.678 2.211-2.063 2.211-3.578v-3.292c0-0.693-0.359-1.337-0.949-1.701-0.589-0.365-1.325-0.398-1.945-0.088-3.551 1.776-9.106 4.553-9.106 4.553z"/></clipPath><g clip-path="url(#_clip2)"><path d="m22 9s4.248-2.124 6.553-3.276c0.31-0.155 0.678-0.139 0.973 0.043 0.295 0.183 0.474 0.504 0.474 0.851v8.382h-8v-6z" fill="#d3d3d3"/></g><path d="m14 9-8 5s-0.864-0.432-1.789-0.894c-1.355-0.678-2.211-2.063-2.211-3.578v-3.292c0-0.693 0.359-1.337 0.949-1.701 0.589-0.365 1.325-0.398 1.945-0.088 3.551 1.776 9.106 4.553 9.106 4.553z" fill="#ab7314"/><clipPath id="_clip3"><path d="m14 9-8 5s-0.864-0.432-1.789-0.894c-1.355-0.678-2.211-2.063-2.211-3.578v-3.292c0-0.693 0.359-1.337 0.949-1.701 0.589-0.365 1.325-0.398 1.945-0.088 3.551 1.776 9.106 4.553 9.106 4.553z"/></clipPath><g clip-path="url(#_clip3)"><path d="m10 9s-4.248-2.124-6.553-3.276c-0.31-0.155-0.678-0.139-0.973 0.043-0.295 0.183-0.474 0.504-0.474 0.851v8.382h8v-6z" fill="#d3d3d3"/></g><path d="m7.444 7.905c-1.551 1.33-2.444 3.271-2.444 5.315v3.466c0 2.122 0.843 4.157 2.343 5.657l3.657 3.657v2e-3c0 0.795 0.316 1.558 0.878 2.12s1.325 0.878 2.12 0.878h4.002c1.657 0 3-1.343 3-3l3.657-3.657c1.5-1.5 2.343-3.535 2.343-5.657v-3.466c0-2.044-0.893-3.985-2.444-5.315-0.708-0.606-1.478-1.267-2.181-1.87-1.533-1.313-3.484-2.035-5.503-2.035h-1.744c-2.019 0-3.97 0.722-5.503 2.035-0.703 0.603-1.473 1.264-2.181 1.87z" fill="#e9ae41"/><clipPath id="_clip4"><path d="m7.444 7.905c-1.551 1.33-2.444 3.271-2.444 5.315v3.466c0 2.122 0.843 4.157 2.343 5.657l3.657 3.657v2e-3c0 0.795 0.316 1.558 0.878 2.12s1.325 0.878 2.12 0.878h4.002c1.657 0 3-1.343 3-3l3.657-3.657c1.5-1.5 2.343-3.535 2.343-5.657v-3.466c0-2.044-0.893-3.985-2.444-5.315-0.708-0.606-1.478-1.267-2.181-1.87-1.533-1.313-3.484-2.035-5.503-2.035h-1.744c-2.019 0-3.97 0.722-5.503 2.035-0.703 0.603-1.473 1.264-2.181 1.87z"/></clipPath><g clip-path="url(#_clip4)"><path d="m19 21v2h2c1.105 0 2-0.895 2-2l2-2h4v12h-26v-12h4l2 2v2e-3c0 1.103 0.895 1.998 1.998 1.998h2.002v-2h6z" fill="#f1f1f1"/></g><path d="m19 5c0.552 0 1 0.448 1 1s-0.448 1-1 1-1-0.448-1-1 0.448-1 1-1z"/><path d="m13 5c0.552 0 1 0.448 1 1s-0.448 1-1 1-1-0.448-1-1 0.448-1 1-1z"/><path d="m22 8 1 1" fill="none" stroke="#000" stroke-linecap="round" stroke-width="2px"/><path d="m10 8-1 1" fill="none" stroke="#000" stroke-linecap="round" stroke-width="2px"/><path d="m13 9-1 0.5" fill="none" stroke="#000" stroke-linecap="round" stroke-width="2px"/><path d="m19 9 1 0.5" fill="none" stroke="#000" stroke-linecap="round" stroke-width="2px"/><path d="m25 11c0.552 0 1 0.448 1 1s-0.448 1-1 1-1-0.448-1-1 0.448-1 1-1z"/><path d="m7 11c0.552 0 1 0.448 1 1s-0.448 1-1 1-1-0.448-1-1 0.448-1 1-1z"/><path d="m16 7c0.552 0 1 0.448 1 1s-0.448 1-1 1-1-0.448-1-1 0.448-1 1-1z"/><path d="m16 4c0.552 0 1 0.448 1 1s-0.448 1-1 1-1-0.448-1-1 0.448-1 1-1z"/><path d="m16 10c0.552 0 1 0.448 1 1s-0.448 1-1 1-1-0.448-1-1 0.448-1 1-1z"/><path d="m11 26.5h1.292c0.466 0 0.925-0.108 1.341-0.317 0.881-0.44 2.367-1.183 2.367-1.183s1.486 0.743 2.367 1.183c0.416 0.209 0.875 0.317 1.341 0.317h1.292" fill="none" stroke="#000" stroke-linejoin="miter" stroke-width="1px"/><path d="m13 21h6v0.382c0 0.379-0.214 0.725-0.553 0.894-0.592 0.296-1.447 0.724-1.447 0.724v2h-2v-2s-0.855-0.428-1.447-0.724c-0.339-0.169-0.553-0.515-0.553-0.894v-0.382z"/><path d="m20.5 15v1.292c0 0.466 0.108 0.925 0.317 1.341 0.293 0.586 0.683 1.367 0.683 1.367" fill="none" stroke="#6f4b0d" stroke-width="1px"/><path d="m11.5 15v1.292c0 0.466-0.108 0.925-0.317 1.341-0.293 0.586-0.683 1.367-0.683 1.367" fill="none" stroke="#6f4b0d" stroke-width="1px"/><path d="m11 13c0.552 0 1 0.448 1 1v2h-0.838c-1.291 0-2.437-0.826-2.846-2.051-0.175-0.527-0.316-0.949-0.316-0.949h3z"/><path d="m21 13c-0.552 0-1 0.448-1 1v2h0.838c1.291 0 2.437-0.826 2.846-2.051 0.175-0.527 0.316-0.949 0.316-0.949h-3z"/><path d="m25 16 0.5 1" fill="none" stroke="#000" stroke-linecap="round" stroke-width="2px"/><path d="m7 16-0.5 1" fill="none" stroke="#000" stroke-linecap="round" stroke-width="2px"/><path d="m24 19c0.552 0 1 0.448 1 1s-0.448 1-1 1-1-0.448-1-1 0.448-1 1-1z"/><path d="m8 19c0.552 0 1 0.448 1 1s-0.448 1-1 1-1-0.448-1-1 0.448-1 1-1z"/><path d="m22 22c0.552 0 1 0.448 1 1s-0.448 1-1 1-1-0.448-1-1 0.448-1 1-1z"/><path d="m10 22c0.552 0 1 0.448 1 1s-0.448 1-1 1-1-0.448-1-1 0.448-1 1-1z"/></g></g></svg>
