<?xml version="1.0" encoding="UTF-8"?>
<!DOCTYPE svg  PUBLIC '-//W3C//DTD SVG 1.1//EN'  'http://www.w3.org/Graphics/SVG/1.1/DTD/svg11.dtd'>
<svg clip-rule="evenodd" fill-rule="evenodd" stroke-linejoin="round" stroke-miterlimit="1.5" version="1.1" viewBox="0 0 32 32" xml:space="preserve" xmlns="http://www.w3.org/2000/svg">
<metadata>
<rdf:RDF xmlns:cc="http://web.resource.org/cc/" xmlns:dc="http://purl.org/dc/elements/1.1/" xmlns:rdf="http://www.w3.org/1999/02/22-rdf-syntax-ns#">

     <rdf:Description rdf:about="">
       <dc:title>Mutant Standard emoji 2023.12</dc:title>
     </rdf:Description>

    <cc:work rdf:about="">
        <cc:license rdf:resource="http://creativecommons.org/licenses/by-nc-sa/4.0/"/>
        <cc:attributionName>Caius Nocturne</cc:attributionName>
        <cc:attributionURL>http://mutant.tech/</cc:attributionURL>
    </cc:work>

</rdf:RDF>
</metadata>
<rect id="lion_with_mane" width="32" height="32" fill="none"/><clipPath id="_clip1"><rect width="32" height="32"/></clipPath><g clip-path="url(#_clip1)"><g id="outline" fill="none" stroke="#000" stroke-width="4px"><path d="m16 30-2-2-2 2-3-3v3l-4-4-2 2v-9l-1 1v-6.82c0-0.776 0.181-1.541 0.528-2.236 0.861-1.721 2.472-4.944 2.472-4.944h-2l6-3-1-1h4.189c0.537 0 1.071 0.087 1.581 0.257 0.889 0.296 2.23 0.743 2.23 0.743s1.341-0.447 2.23-0.743c0.51-0.17 1.044-0.257 1.581-0.257h4.189l-1 1 6 3h-2s1.611 3.223 2.472 4.944c0.347 0.695 0.528 1.46 0.528 2.236v6.82l-1-1v9l-2-2-4 4v-3l-3 3-2-2-2 2z"/><path d="m22 5 5 5s0.339-0.169 0.789-0.394c1.355-0.678 2.211-2.063 2.211-3.578v-1.028c0-1.105-0.895-2-2-2h-1.292c-0.466 0-0.925 0.108-1.341 0.317-1.128 0.564-3.367 1.683-3.367 1.683z"/><path d="m10 5-5 5s-0.339-0.169-0.789-0.394c-1.355-0.678-2.211-2.063-2.211-3.578v-1.028c0-1.105 0.895-2 2-2h1.292c0.466 0 0.925 0.108 1.341 0.317 1.128 0.564 3.367 1.683 3.367 1.683z"/></g><g id="emoji"><path d="m16 30-2-2-2 2-3-3v3l-4-4-2 2v-9l-1 1v-6.82c0-0.776 0.181-1.541 0.528-2.236 0.861-1.721 2.472-4.944 2.472-4.944h-2l6-3-1-1h4.189c0.537 0 1.071 0.087 1.581 0.257 0.889 0.296 2.23 0.743 2.23 0.743s1.341-0.447 2.23-0.743c0.51-0.17 1.044-0.257 1.581-0.257h4.189l-1 1 6 3h-2s1.611 3.223 2.472 4.944c0.347 0.695 0.528 1.46 0.528 2.236v6.82l-1-1v9l-2-2-4 4v-3l-3 3-2-2-2 2z" fill="#865227"/><path d="m7.879 9.121c-0.563 0.563-0.879 1.326-0.879 2.122v5.813c0 0.621 0.145 1.233 0.422 1.789 0.583 1.165 1.654 3.306 2.472 4.944 0.678 1.355 2.063 2.211 3.578 2.211h5.056c1.515 0 2.9-0.856 3.578-2.211 0.818-1.638 1.889-3.779 2.472-4.944 0.277-0.556 0.422-1.168 0.422-1.789v-5.813c0-0.796-0.316-1.559-0.879-2.122l-2.242-2.242c-0.563-0.563-1.326-0.879-2.122-0.879h-1.343c-0.265 0-0.519 0.105-0.707 0.293l-1.707 1.707-1.707-1.707c-0.188-0.188-0.442-0.293-0.707-0.293h-1.343c-0.796 0-1.559 0.316-2.122 0.879l-2.242 2.242z" fill="#cf9f5a"/><path d="m12 23 3-1 1-1 1 1 3 1" fill="none" stroke="#000" stroke-linejoin="miter" stroke-width="1px"/><path d="m13 14-1-1h-1l1 1v3l1 1h1l-1-1v-3z" fill="#a3722f"/><path d="m19 14 1-1h1l-1 1v3l-1 1h-1l1-1v-3z" fill="#a3722f"/><path d="m13 17h6v0.382c0 0.379-0.214 0.725-0.553 0.894-0.278 0.14-0.616 0.308-0.894 0.448-0.339 0.169-0.553 0.515-0.553 0.894v0.382h-2v-0.382c0-0.379-0.214-0.725-0.553-0.894-0.278-0.14-0.616-0.308-0.894-0.448-0.339-0.169-0.553-0.515-0.553-0.894v-0.382z"/><path d="m20 12c-0.552 0-1 0.448-1 1v1h1.764c0.155 0 0.308-0.036 0.447-0.106 0.514-0.257 1.789-0.894 1.789-0.894 0-0.552-0.448-1-1-1h-2z"/><path d="m12 12c0.552 0 1 0.448 1 1v1h-1.764c-0.155 0-0.308-0.036-0.447-0.106-0.514-0.257-1.789-0.894-1.789-0.894 0-0.552 0.448-1 1-1h2z"/><path d="m22 5 5 5s0.339-0.169 0.789-0.394c1.355-0.678 2.211-2.063 2.211-3.578v-1.028c0-1.105-0.895-2-2-2h-1.292c-0.466 0-0.925 0.108-1.341 0.317-1.128 0.564-3.367 1.683-3.367 1.683z" fill="#cf9f5a"/><clipPath id="_clip2"><path d="m22 5 5 5s0.339-0.169 0.789-0.394c1.355-0.678 2.211-2.063 2.211-3.578v-1.028c0-1.105-0.895-2-2-2h-1.292c-0.466 0-0.925 0.108-1.341 0.317-1.128 0.564-3.367 1.683-3.367 1.683z"/></clipPath><g clip-path="url(#_clip2)"><path d="m22 9.5 5-5h2" fill="none" stroke="#a3722f" stroke-width="1px"/></g><path d="m10 5-5 5s-0.339-0.169-0.789-0.394c-1.355-0.678-2.211-2.063-2.211-3.578v-1.028c0-1.105 0.895-2 2-2h1.292c0.466 0 0.925 0.108 1.341 0.317 1.128 0.564 3.367 1.683 3.367 1.683z" fill="#cf9f5a"/><clipPath id="_clip3"><path d="m10 5-5 5s-0.339-0.169-0.789-0.394c-1.355-0.678-2.211-2.063-2.211-3.578v-1.028c0-1.105 0.895-2 2-2h1.292c0.466 0 0.925 0.108 1.341 0.317 1.128 0.564 3.367 1.683 3.367 1.683z"/></clipPath><g clip-path="url(#_clip3)"><path d="m10 9.5-5-5h-2" fill="none" stroke="#a3722f" stroke-width="1px"/></g></g></g></svg>
