<?xml version="1.0" encoding="UTF-8"?>
<!DOCTYPE svg  PUBLIC '-//W3C//DTD SVG 1.1//EN'  'http://www.w3.org/Graphics/SVG/1.1/DTD/svg11.dtd'>
<svg clip-rule="evenodd" fill-rule="evenodd" stroke-linejoin="round" stroke-miterlimit="1.5" version="1.1" viewBox="0 0 32 32" xml:space="preserve" xmlns="http://www.w3.org/2000/svg">
<metadata>
<rdf:RDF xmlns:cc="http://web.resource.org/cc/" xmlns:dc="http://purl.org/dc/elements/1.1/" xmlns:rdf="http://www.w3.org/1999/02/22-rdf-syntax-ns#">

     <rdf:Description rdf:about="">
       <dc:title>Mutant Standard emoji 2023.12</dc:title>
     </rdf:Description>

    <cc:work rdf:about="">
        <cc:license rdf:resource="http://creativecommons.org/licenses/by-nc-sa/4.0/"/>
        <cc:attributionName>Caius Nocturne</cc:attributionName>
        <cc:attributionURL>http://mutant.tech/</cc:attributionURL>
    </cc:work>

</rdf:RDF>
</metadata>
<rect id="lion_without_mane" width="32" height="32" fill="none"/><g id="outline" fill="none" stroke="#000" stroke-width="4px"><path d="m21 7 5 5s0.573-0.382 1.219-0.813c1.113-0.741 1.781-1.99 1.781-3.328v-1.859c0-1.105-0.895-2-2-2h-1.757c-0.796 0-1.559 0.316-2.122 0.879l-2.121 2.121z"/><path d="m11 7-5 5s-0.573-0.382-1.219-0.813c-1.113-0.741-1.781-1.99-1.781-3.328v-1.859c0-1.105 0.895-2 2-2h1.757c0.796 0 1.559 0.316 2.122 0.879l2.121 2.121z"/><path d="m6.879 10.121c-0.563 0.563-0.879 1.326-0.879 2.122v3.868c0 1.242 0.289 2.467 0.845 3.578 0.839 1.678 2.129 4.26 3.049 6.1 0.678 1.355 2.063 2.211 3.578 2.211h5.056c1.515 0 2.9-0.856 3.578-2.211 0.92-1.84 2.21-4.422 3.049-6.1 0.556-1.111 0.845-2.336 0.845-3.578v-3.868c0-0.796-0.316-1.559-0.879-2.122l-3.121-3.121h-12l-3.121 3.121z" stroke-linecap="round"/></g><g id="emoji"><path d="m6.879 10.121c-0.563 0.563-0.879 1.326-0.879 2.122v3.868c0 1.242 0.289 2.467 0.845 3.578 0.839 1.678 2.129 4.26 3.049 6.1 0.678 1.355 2.063 2.211 3.578 2.211h5.056c1.515 0 2.9-0.856 3.578-2.211 0.92-1.84 2.21-4.422 3.049-6.1 0.556-1.111 0.845-2.336 0.845-3.578v-3.868c0-0.796-0.316-1.559-0.879-2.122l-3.121-3.121h-12l-3.121 3.121z" fill="#cf9f5a"/><path d="m12 25 3-1 1-1 1 1 3 1" fill="none" stroke="#000" stroke-linejoin="miter" stroke-width="1px"/><path d="m13 16-1-1h-1l1 1v3l1 1h1l-1-1v-3z" fill="#a3722f"/><path d="m19 16 1-1h1l-1 1v3l-1 1h-1l1-1v-3z" fill="#a3722f"/><path d="m13 19h6v0.382c0 0.379-0.214 0.725-0.553 0.894-0.278 0.14-0.616 0.308-0.894 0.448-0.339 0.169-0.553 0.515-0.553 0.894v0.382h-2v-0.382c0-0.379-0.214-0.725-0.553-0.894-0.278-0.14-0.616-0.308-0.894-0.448-0.339-0.169-0.553-0.515-0.553-0.894v-0.382z"/><path d="m20 14c-0.552 0-1 0.448-1 1v1h1.764c0.155 0 0.308-0.036 0.447-0.106 0.514-0.257 1.789-0.894 1.789-0.894 0-0.552-0.448-1-1-1h-2z"/><path d="m12 14c0.552 0 1 0.448 1 1v1h-1.764c-0.155 0-0.308-0.036-0.447-0.106-0.514-0.257-1.789-0.894-1.789-0.894 0-0.552 0.448-1 1-1h2z"/><path d="m21 7 5 5s0.573-0.382 1.219-0.813c1.113-0.741 1.781-1.99 1.781-3.328v-1.859c0-1.105-0.895-2-2-2h-1.757c-0.796 0-1.559 0.316-2.122 0.879l-2.121 2.121z" fill="#cf9f5a"/><clipPath id="_clip1"><path d="m21 7 5 5s0.573-0.382 1.219-0.813c1.113-0.741 1.781-1.99 1.781-3.328v-1.859c0-1.105-0.895-2-2-2h-1.757c-0.796 0-1.559 0.316-2.122 0.879l-2.121 2.121z"/></clipPath><g clip-path="url(#_clip1)"><path d="m21 11.5 5-5h2" fill="none" stroke="#a3722f" stroke-width="1px"/></g><path d="m11 7-5 5s-0.573-0.382-1.219-0.813c-1.113-0.741-1.781-1.99-1.781-3.328v-1.859c0-1.105 0.895-2 2-2h1.757c0.796 0 1.559 0.316 2.122 0.879l2.121 2.121z" fill="#cf9f5a"/><clipPath id="_clip2"><path d="m11 7-5 5s-0.573-0.382-1.219-0.813c-1.113-0.741-1.781-1.99-1.781-3.328v-1.859c0-1.105 0.895-2 2-2h1.757c0.796 0 1.559 0.316 2.122 0.879l2.121 2.121z"/></clipPath><g clip-path="url(#_clip2)"><path d="m11 11.5-5-5h-2" fill="none" stroke="#a3722f" stroke-width="1px"/></g></g></svg>
