<?xml version="1.0" encoding="UTF-8"?>
<svg clip-rule="evenodd" fill-rule="evenodd" stroke-linejoin="round" stroke-miterlimit="1.5" viewBox="0 0 32 32" xmlns="http://www.w3.org/2000/svg">
 <clipPath id="a">
  <path d="m21 7 5 5s0.573-0.382 1.219-0.813c1.113-0.741 1.781-1.99 1.781-3.328v-1.859c0-1.105-0.895-2-2-2h-1.757c-0.796 0-1.559 0.316-2.122 0.879l-2.121 2.121z" clip-rule="evenodd"/>
 </clipPath>
 <clipPath id="b">
  <path d="m11 7-5 5s-0.573-0.382-1.219-0.813c-1.113-0.741-1.781-1.99-1.781-3.328v-1.859c0-1.105 0.895-2 2-2h1.757c0.796 0 1.559 0.316 2.122 0.879l2.121 2.121z" clip-rule="evenodd"/>
 </clipPath>
 <g fill="none">
  <path d="m0 0h32v32h-32z"/>
  <path d="m21 7 5 5s0.573-0.382 1.219-0.813c1.113-0.741 1.781-1.99 1.781-3.328v-1.859c0-1.105-0.895-2-2-2h-1.757c-0.796 0-1.559 0.316-2.122 0.879l-2.121 2.121z" stroke="#000" stroke-width="4"/>
  <path d="m11 7-5 5s-0.573-0.382-1.219-0.813c-1.113-0.741-1.781-1.99-1.781-3.328v-1.859c0-1.105 0.895-2 2-2h1.757c0.796 0 1.559 0.316 2.122 0.879l2.121 2.121z" stroke="#000" stroke-width="4"/>
  <path d="m6.879 10.121c-0.563 0.563-0.879 1.326-0.879 2.122v3.868c0 1.242 0.289 2.467 0.845 3.578 0.839 1.678 2.129 4.26 3.049 6.1 0.678 1.355 2.063 2.211 3.578 2.211h5.056c1.515 0 2.9-0.856 3.578-2.211 0.92-1.84 2.21-4.422 3.049-6.1 0.556-1.111 0.845-2.336 0.845-3.578v-3.868c0-0.796-0.316-1.559-0.879-2.122l-3.121-3.121h-12s-1.944 1.944-3.121 3.121z" stroke="#000" stroke-linecap="round" stroke-width="4"/>
 </g>
 <path d="m6.879 10.121c-0.563 0.563-0.879 1.326-0.879 2.122v3.868c0 1.242 0.289 2.467 0.845 3.578 0.839 1.678 2.129 4.26 3.049 6.1 0.678 1.355 2.063 2.211 3.578 2.211h5.056c1.515 0 2.9-0.856 3.578-2.211 0.92-1.84 2.21-4.422 3.049-6.1 0.556-1.111 0.845-2.336 0.845-3.578v-3.868c0-0.796-0.316-1.559-0.879-2.122l-3.121-3.121h-12s-1.944 1.944-3.121 3.121z" fill="#cf9f5a"/>
 <path d="m12 25 3-1 1-1 1 1 3 1" fill="none" stroke="#000" stroke-linejoin="miter"/>
 <path d="m13 16-1-1h-1l1 1v3l1 1h1l-1-1z" fill="#a3722f"/>
 <path d="m19 16 1-1h1l-1 1v3l-1 1h-1l1-1z" fill="#a3722f"/>
 <path d="m13 19h6v.382c0 .379-.214.725-.553.894-.278.14-.616.308-.894.448-.339.169-.553.515-.553.894v.382h-2s0-.177 0-.382c0-.379-.214-.725-.553-.894-.278-.14-.616-.308-.894-.448-.339-.169-.553-.515-.553-.894 0-.205 0-.382 0-.382z"/>
 <path d="m20 14c-0.552 0-1 0.448-1 1v1h1.764c0.155 0 0.308-0.036 0.447-0.106 0.514-0.257 1.789-0.894 1.789-0.894 0-0.552-0.448-1-1-1h-2z"/>
 <path d="m12 14c.552 0 1 .448 1 1v1s-1.235 0-1.764 0c-.155 0-.308-.036-.447-.106-.514-.257-1.789-.894-1.789-.894 0-.552.448-1 1-1z"/>
 <path d="m21 7 5 5s0.573-0.382 1.219-0.813c1.113-0.741 1.781-1.99 1.781-3.328v-1.859c0-1.105-0.895-2-2-2h-1.757c-0.796 0-1.559 0.316-2.122 0.879l-2.121 2.121z" fill="#cf9f5a"/>
 <g clip-path="url(#a)">
  <path d="m21 11.5 5-5h2" fill="none" stroke="#a3722f"/>
 </g>
 <path d="m11 7-5 5s-0.573-0.382-1.219-0.813c-1.113-0.741-1.781-1.99-1.781-3.328v-1.859c0-1.105 0.895-2 2-2h1.757c0.796 0 1.559 0.316 2.122 0.879l2.121 2.121z" fill="#cf9f5a"/>
 <g clip-path="url(#b)">
  <path d="m11 11.5-5-5h-2" fill="none" stroke="#a3722f"/>
 </g>
</svg>
