<?xml version="1.0" encoding="UTF-8"?>
<svg clip-rule="evenodd" fill-rule="evenodd" stroke-linejoin="round" stroke-miterlimit="1.5" viewBox="0 0 32 32" xmlns="http://www.w3.org/2000/svg">
 <clipPath id="a">
  <path d="m0 0h32v32h-32z" clip-rule="evenodd"/>
 </clipPath>
 <clipPath id="b">
  <path d="m12 25-4 4-1-3-2 1v-4l-2 1s-0.354-1.062-0.641-1.922c-0.238-0.714-0.359-1.462-0.359-2.214v-3.864c0-7.18 5.82-13 13-13h2c7.18 0 13 5.82 13 13v3.864c0 0.752-0.121 1.5-0.359 2.214-0.287 0.86-0.641 1.922-0.641 1.922l-2-1v4l-2-1-1 3-4-4z" clip-rule="evenodd"/>
 </clipPath>
 <clipPath id="c">
  <path d="m22 4 6 6s0.305-0.609 0.578-1.155c0.277-0.556 0.422-1.168 0.422-1.789v-3.056c0-1.105-0.895-2-2-2h-1.757c-0.796 0-1.559 0.316-2.122 0.879l-1.121 1.121z" clip-rule="evenodd"/>
 </clipPath>
 <clipPath id="d">
  <path d="m10 4-6 6s-0.305-0.609-0.578-1.155c-0.277-0.556-0.422-1.168-0.422-1.789v-3.056c0-1.105 0.895-2 2-2h1.757c0.796 0 1.559 0.316 2.122 0.879l1.121 1.121z" clip-rule="evenodd"/>
 </clipPath>
 <path d="m0 0h32v32h-32z" fill="none"/>
 <g clip-path="url(#a)">
  <path d="m20 6 7 6s0.991-1.982 1.578-3.155c0.277-0.556 0.422-1.168 0.422-1.789v-3.056c0-1.105-0.895-2-2-2h-1.757c-0.796 0-1.559 0.316-2.122 0.879l-3.121 3.121z" fill="none" stroke="#000" stroke-width="4"/>
  <path d="m12 6-7 6s-0.991-1.982-1.578-3.155c-0.277-0.556-0.422-1.168-0.422-1.789v-3.056c0-1.105 0.895-2 2-2h1.757c0.796 0 1.559 0.316 2.122 0.879l3.121 3.121z" fill="none" stroke="#000" stroke-width="4"/>
  <path d="m12 25-4 4-1-3-2 1v-4l-2 1s-0.354-1.062-0.641-1.922c-0.238-0.714-0.359-1.462-0.359-2.214v-3.864c0-7.18 5.82-13 13-13h2c7.18 0 13 5.82 13 13v3.864c0 0.752-0.121 1.5-0.359 2.214-0.287 0.86-0.641 1.922-0.641 1.922l-2-1v4l-2-1-1 3-4-4z" fill="none" stroke="#000" stroke-width="4"/>
  <path d="m12 25-4 4-1-3-2 1v-4l-2 1s-0.354-1.062-0.641-1.922c-0.238-0.714-0.359-1.462-0.359-2.214v-3.864c0-7.18 5.82-13 13-13h2c7.18 0 13 5.82 13 13v3.864c0 0.752-0.121 1.5-0.359 2.214-0.287 0.86-0.641 1.922-0.641 1.922l-2-1v4l-2-1-1 3-4-4z" fill="#e5e5e5"/>
  <g clip-path="url(#b)">
   <path d="m27.934 18.967c-1.155-0.577-2.55-0.351-3.463 0.562l-1.592 1.592c-0.563 0.563-1.326 0.879-2.122 0.879h-0.757-8s-0.35 0-0.757 0c-0.796 0-1.559-0.316-2.122-0.879l-1.592-1.592c-0.913-0.913-2.308-1.139-3.463-0.562-1.407 0.703-3.066 1.533-3.066 1.533v-19.5h30v19.5s-1.659-0.83-3.066-1.533z" fill="#999"/>
  </g>
  <path d="m10 24v2c0 1.061 0.421 2.078 1.172 2.828 0.75 0.751 1.767 1.172 2.828 1.172l2-1 2 1c1.061 0 2.078-0.421 2.828-1.172 0.751-0.75 1.172-1.767 1.172-2.828v-2" fill="none" stroke="#000" stroke-linejoin="miter" stroke-width="4"/>
  <path d="m10 23h12v3c0 2.209-1.791 4-4 4l-2-1-2 1c-2.209 0-4-1.791-4-4v-3z" fill="#e5e5e5"/>
  <path d="m9 26s.703.234 1.428.476c1.007.336 2.105.257 3.054-.217 1.139-.569 2.518-1.259 2.518-1.259s1.379.69 2.518 1.259c.949.474 2.047.553 3.054.217.725-.242 1.428-.476 1.428-.476" fill="none" stroke="#000" stroke-linejoin="miter"/>
  <path d="m19 17s-.429-1.717-.725-2.901c-.171-.682.029-1.403.526-1.9.059-.059.119-.119.18-.18.608-.608 1.538-.759 2.308-.374.518.258 1.108.554 1.605.802.678.339 1.106 1.032 1.106 1.789v.764h-3z" fill="#e5e5e5"/>
  <path d="m13 17s.429-1.717.725-2.901c.171-.682-.029-1.403-.526-1.9-.059-.059-.119-.119-.18-.18-.608-.608-1.538-.759-2.308-.374-.518.258-1.108.554-1.605.802-.678.339-1.106 1.032-1.106 1.789v.764h3z" fill="#e5e5e5"/>
  <path d="m22 14c-1.657 0-3 1.343-3 3h2.146c1.136 0 2.175-0.642 2.683-1.658l0.171-0.342c0-0.552-0.448-1-1-1h-1z"/>
  <path d="m10 14c1.657 0 3 1.343 3 3s-1.1 0-2.146 0c-1.136 0-2.175-0.642-2.683-1.658l-0.171-0.342c0-0.552 0.448-1 1-1z"/>
  <path d="m22 4 6 6s0.305-0.609 0.578-1.155c0.277-0.556 0.422-1.168 0.422-1.789v-3.056c0-1.105-0.895-2-2-2h-1.757c-0.796 0-1.559 0.316-2.122 0.879l-1.121 1.121z" fill="#999"/>
  <g clip-path="url(#c)">
   <path d="m31 3s-3 0-4.757 0c-0.796 0-1.559 0.316-2.122 0.879l-2.121 2.121v7h9z" fill="#e5e5e5"/>
  </g>
  <path d="m10 4-6 6s-0.305-0.609-0.578-1.155c-0.277-0.556-0.422-1.168-0.422-1.789v-3.056c0-1.105 0.895-2 2-2h1.757c0.796 0 1.559 0.316 2.122 0.879l1.121 1.121z" fill="#999"/>
  <g clip-path="url(#d)">
   <path d="m1 3h4.757c0.796 0 1.559 0.316 2.122 0.879l2.121 2.121v7h-9z" fill="#e5e5e5"/>
  </g>
  <path d="m13.85 23c-.491 0-.961-.195-1.308-.542s-.542-.817-.542-1.308c0-.094 0-.15 0-.15h8v.136c0 .494-.196.968-.546 1.318s-.824.546-1.318.546h-.001c-.089 0-.176.021-.256.06-.432.216-1.879.94-1.879.94s-1.42-.71-1.867-.933c-.087-.044-.184-.067-.282-.067z"/>
  <path d="m15 5c0-0.552-0.448-1-1-1h-2c-0.552 0-1 0.448-1 1s0.448 1 1 1h2c0.552 0 1-0.448 1-1z"/>
  <path d="m21 8c0-0.552 0.448-1 1-1h1c0.552 0 1 0.448 1 1s-0.448 1-1 1h-1c-0.552 0-1-0.448-1-1z"/>
  <path d="m17 9c0-0.552 0.448-1 1-1h1c0.552 0 1 0.448 1 1s-0.448 1-1 1h-1c-0.552 0-1-0.448-1-1z"/>
  <path d="m12 9c0-0.552 0.448-1 1-1h1c0.552 0 1 0.448 1 1s-0.448 1-1 1h-1c-0.552 0-1-0.448-1-1z"/>
  <path d="m8 8c0-0.552 0.448-1 1-1h1c0.552 0 1 0.448 1 1s-0.448 1-1 1h-1c-0.552 0-1-0.448-1-1z"/>
  <path d="m27 16c0-0.552 0.448-1 1-1s1 0.448 1 1v2c0 0.552-0.448 1-1 1s-1-0.448-1-1v-2z"/>
  <path d="m3 16c0-0.552 0.448-1 1-1s1 0.448 1 1v2c0 0.552-0.448 1-1 1s-1-0.448-1-1v-2z"/>
  <path d="m6 22c0-0.552 0.448-1 1-1s1 0.448 1 1v1c0 0.552-0.448 1-1 1s-1-0.448-1-1v-1z"/>
  <path d="m24 22c0-0.552 0.448-1 1-1s1 0.448 1 1v1c0 0.552-0.448 1-1 1s-1-0.448-1-1v-1z"/>
  <path d="m4 12c0-0.552 0.448-1 1-1s1 0.448 1 1v1c0 0.552-0.448 1-1 1s-1-0.448-1-1v-1z"/>
  <path d="m26 12c0-0.552 0.448-1 1-1s1 0.448 1 1v1c0 0.552-0.448 1-1 1s-1-0.448-1-1v-1z"/>
  <path d="m17 5c0-0.552 0.448-1 1-1h2c0.552 0 1 0.448 1 1s-0.448 1-1 1h-2c-0.552 0-1-0.448-1-1z"/>
  <g fill="none" stroke="#000" stroke-linecap="round" stroke-width="2">
   <path d="m7 18 1 1"/>
   <path d="m9 11h-1"/>
   <path d="m23 11h1"/>
   <path d="m25 18-1 1"/>
  </g>
  <path d="m15 23h2v2.5h-2z"/>
 </g>
</svg>
