<?xml version="1.0" encoding="UTF-8"?>
<!DOCTYPE svg  PUBLIC '-//W3C//DTD SVG 1.1//EN'  'http://www.w3.org/Graphics/SVG/1.1/DTD/svg11.dtd'>
<svg clip-rule="evenodd" fill-rule="evenodd" stroke-linejoin="round" stroke-miterlimit="1.5" version="1.1" viewBox="0 0 32 32" xml:space="preserve" xmlns="http://www.w3.org/2000/svg">
<metadata>
<rdf:RDF xmlns:cc="http://web.resource.org/cc/" xmlns:dc="http://purl.org/dc/elements/1.1/" xmlns:rdf="http://www.w3.org/1999/02/22-rdf-syntax-ns#">

     <rdf:Description rdf:about="">
       <dc:title>Mutant Standard emoji 2023.12</dc:title>
     </rdf:Description>

    <cc:work rdf:about="">
        <cc:license rdf:resource="http://creativecommons.org/licenses/by-nc-sa/4.0/"/>
        <cc:attributionName>Caius Nocturne</cc:attributionName>
        <cc:attributionURL>http://mutant.tech/</cc:attributionURL>
    </cc:work>

</rdf:RDF>
</metadata>
<rect id="snow_leopard" width="32" height="32" fill="none"/><clipPath id="_clip1"><rect width="32" height="32"/></clipPath><g clip-path="url(#_clip1)"><g id="outline" fill="none" stroke="#000" stroke-width="4px"><path d="m20 6 7 6s0.991-1.982 1.578-3.155c0.277-0.556 0.422-1.168 0.422-1.789v-3.056c0-1.105-0.895-2-2-2h-1.757c-0.796 0-1.559 0.316-2.122 0.879l-3.121 3.121z"/><path d="m12 6-7 6s-0.991-1.982-1.578-3.155c-0.277-0.556-0.422-1.168-0.422-1.789v-3.056c0-1.105 0.895-2 2-2h1.757c0.796 0 1.559 0.316 2.122 0.879l3.121 3.121z"/><path d="m12 25-4 4-1-3-2 1v-4l-2 1s-0.354-1.062-0.641-1.922c-0.238-0.714-0.359-1.462-0.359-2.214v-3.864c0-7.18 5.82-13 13-13h2c7.18 0 13 5.82 13 13v3.864c0 0.752-0.121 1.5-0.359 2.214-0.287 0.86-0.641 1.922-0.641 1.922l-2-1v4l-2-1-1 3-4-4h-8z"/></g><g id="emoji"><path d="m12 25-4 4-1-3-2 1v-4l-2 1s-0.354-1.062-0.641-1.922c-0.238-0.714-0.359-1.462-0.359-2.214v-3.864c0-7.18 5.82-13 13-13h2c7.18 0 13 5.82 13 13v3.864c0 0.752-0.121 1.5-0.359 2.214-0.287 0.86-0.641 1.922-0.641 1.922l-2-1v4l-2-1-1 3-4-4h-8z" fill="#e5e5e5"/><clipPath id="_clip2"><path d="m12 25-4 4-1-3-2 1v-4l-2 1s-0.354-1.062-0.641-1.922c-0.238-0.714-0.359-1.462-0.359-2.214v-3.864c0-7.18 5.82-13 13-13h2c7.18 0 13 5.82 13 13v3.864c0 0.752-0.121 1.5-0.359 2.214-0.287 0.86-0.641 1.922-0.641 1.922l-2-1v4l-2-1-1 3-4-4h-8z"/></clipPath><g clip-path="url(#_clip2)"><path d="m27.934 18.967c-1.155-0.577-2.55-0.351-3.463 0.562l-1.592 1.592c-0.563 0.563-1.326 0.879-2.122 0.879h-0.757-8-0.757c-0.796 0-1.559-0.316-2.122-0.879l-1.592-1.592c-0.913-0.913-2.308-1.139-3.463-0.562-1.407 0.703-3.066 1.533-3.066 1.533v-19.5h30v19.5s-1.659-0.83-3.066-1.533z" fill="#999"/></g><path d="m10 24v2c0 1.061 0.421 2.078 1.172 2.828 0.75 0.751 1.767 1.172 2.828 1.172l2-1 2 1c1.061 0 2.078-0.421 2.828-1.172 0.751-0.75 1.172-1.767 1.172-2.828v-2" fill="none" stroke="#000" stroke-linejoin="miter" stroke-width="4px"/><path d="m10 23h12v3c0 2.209-1.791 4-4 4l-2-1-2 1c-2.209 0-4-1.791-4-4v-3z" fill="#e5e5e5"/><path d="m9 26s0.703 0.234 1.428 0.476c1.007 0.336 2.105 0.257 3.054-0.217 1.139-0.569 2.518-1.259 2.518-1.259s1.379 0.69 2.518 1.259c0.949 0.474 2.047 0.553 3.054 0.217 0.725-0.242 1.428-0.476 1.428-0.476" fill="none" stroke="#000" stroke-linejoin="miter" stroke-width="1px"/><path d="m19 17s-0.429-1.717-0.725-2.901c-0.171-0.682 0.029-1.403 0.526-1.9l0.18-0.18c0.608-0.608 1.538-0.759 2.308-0.374 0.518 0.258 1.108 0.554 1.605 0.802 0.678 0.339 1.106 1.032 1.106 1.789v0.764h-3l-2 2z" fill="#e5e5e5"/><path d="m13 17s0.429-1.717 0.725-2.901c0.171-0.682-0.029-1.403-0.526-1.9l-0.18-0.18c-0.608-0.608-1.538-0.759-2.308-0.374-0.518 0.258-1.108 0.554-1.605 0.802-0.678 0.339-1.106 1.032-1.106 1.789v0.764h3l2 2z" fill="#e5e5e5"/><path d="m22 14c-1.657 0-3 1.343-3 3h2.146c1.136 0 2.175-0.642 2.683-1.658l0.171-0.342c0-0.552-0.448-1-1-1h-1z"/><path d="m10 14c1.657 0 3 1.343 3 3h-2.146c-1.136 0-2.175-0.642-2.683-1.658l-0.171-0.342c0-0.552 0.448-1 1-1h1z"/><path d="m22 4 6 6s0.305-0.609 0.578-1.155c0.277-0.556 0.422-1.168 0.422-1.789v-3.056c0-1.105-0.895-2-2-2h-1.757c-0.796 0-1.559 0.316-2.122 0.879l-1.121 1.121z" fill="#999"/><clipPath id="_clip3"><path d="m22 4 6 6s0.305-0.609 0.578-1.155c0.277-0.556 0.422-1.168 0.422-1.789v-3.056c0-1.105-0.895-2-2-2h-1.757c-0.796 0-1.559 0.316-2.122 0.879l-1.121 1.121z"/></clipPath><g clip-path="url(#_clip3)"><path d="m31 3h-4.757c-0.796 0-1.559 0.316-2.122 0.879l-2.121 2.121v7h9v-10z" fill="#e5e5e5"/></g><path d="m10 4-6 6s-0.305-0.609-0.578-1.155c-0.277-0.556-0.422-1.168-0.422-1.789v-3.056c0-1.105 0.895-2 2-2h1.757c0.796 0 1.559 0.316 2.122 0.879l1.121 1.121z" fill="#999"/><clipPath id="_clip4"><path d="m10 4-6 6s-0.305-0.609-0.578-1.155c-0.277-0.556-0.422-1.168-0.422-1.789v-3.056c0-1.105 0.895-2 2-2h1.757c0.796 0 1.559 0.316 2.122 0.879l1.121 1.121z"/></clipPath><g clip-path="url(#_clip4)"><path d="m1 3h4.757c0.796 0 1.559 0.316 2.122 0.879l2.121 2.121v7h-9v-10z" fill="#e5e5e5"/></g><path d="m13.85 23c-0.491 0-0.961-0.195-1.308-0.542s-0.542-0.817-0.542-1.308v-0.15h8v0.136c0 0.494-0.196 0.968-0.546 1.318s-0.824 0.546-1.318 0.546h-1e-3c-0.089 0-0.176 0.021-0.256 0.06-0.432 0.216-1.879 0.94-1.879 0.94s-1.42-0.71-1.867-0.933c-0.087-0.044-0.184-0.067-0.282-0.067h-1e-3z"/><g id="v"><path d="m15 5c0-0.552-0.448-1-1-1h-2c-0.552 0-1 0.448-1 1s0.448 1 1 1h2c0.552 0 1-0.448 1-1z"/><path d="m21 8c0-0.552 0.448-1 1-1h1c0.552 0 1 0.448 1 1s-0.448 1-1 1h-1c-0.552 0-1-0.448-1-1z"/><path d="m17 9c0-0.552 0.448-1 1-1h1c0.552 0 1 0.448 1 1s-0.448 1-1 1h-1c-0.552 0-1-0.448-1-1z"/><path d="m12 9c0-0.552 0.448-1 1-1h1c0.552 0 1 0.448 1 1s-0.448 1-1 1h-1c-0.552 0-1-0.448-1-1z"/><path d="m8 8c0-0.552 0.448-1 1-1h1c0.552 0 1 0.448 1 1s-0.448 1-1 1h-1c-0.552 0-1-0.448-1-1z"/><path d="m27 16c0-0.552 0.448-1 1-1s1 0.448 1 1v2c0 0.552-0.448 1-1 1s-1-0.448-1-1v-2z"/><path d="m3 16c0-0.552 0.448-1 1-1s1 0.448 1 1v2c0 0.552-0.448 1-1 1s-1-0.448-1-1v-2z"/><path d="m6 22c0-0.552 0.448-1 1-1s1 0.448 1 1v1c0 0.552-0.448 1-1 1s-1-0.448-1-1v-1z"/><path d="m24 22c0-0.552 0.448-1 1-1s1 0.448 1 1v1c0 0.552-0.448 1-1 1s-1-0.448-1-1v-1z"/><path d="m4 12c0-0.552 0.448-1 1-1s1 0.448 1 1v1c0 0.552-0.448 1-1 1s-1-0.448-1-1v-1z"/><path d="m26 12c0-0.552 0.448-1 1-1s1 0.448 1 1v1c0 0.552-0.448 1-1 1s-1-0.448-1-1v-1z"/><path d="m17 5c0-0.552 0.448-1 1-1h2c0.552 0 1 0.448 1 1s-0.448 1-1 1h-2c-0.552 0-1-0.448-1-1z"/><path d="m7 18 1 1" fill="none" stroke="#000" stroke-linecap="round" stroke-width="2px"/><path d="m9 11h-1" fill="none" stroke="#000" stroke-linecap="round" stroke-width="2px"/><path d="m23 11h1" fill="none" stroke="#000" stroke-linecap="round" stroke-width="2px"/><path d="m25 18-1 1" fill="none" stroke="#000" stroke-linecap="round" stroke-width="2px"/></g><rect x="15" y="23" width="2" height="2.5"/></g></g></svg>
