<?xml version="1.0" encoding="UTF-8"?>
<!DOCTYPE svg  PUBLIC '-//W3C//DTD SVG 1.1//EN'  'http://www.w3.org/Graphics/SVG/1.1/DTD/svg11.dtd'>
<svg clip-rule="evenodd" fill-rule="evenodd" stroke-linejoin="round" stroke-miterlimit="1.5" version="1.1" viewBox="0 0 32 32" xml:space="preserve" xmlns="http://www.w3.org/2000/svg">
<metadata>
<rdf:RDF xmlns:cc="http://web.resource.org/cc/" xmlns:dc="http://purl.org/dc/elements/1.1/" xmlns:rdf="http://www.w3.org/1999/02/22-rdf-syntax-ns#">

     <rdf:Description rdf:about="">
       <dc:title>Mutant Standard emoji 2023.12</dc:title>
     </rdf:Description>

    <cc:work rdf:about="">
        <cc:license rdf:resource="http://creativecommons.org/licenses/by-nc-sa/4.0/"/>
        <cc:attributionName>Caius Nocturne</cc:attributionName>
        <cc:attributionURL>http://mutant.tech/</cc:attributionURL>
    </cc:work>

</rdf:RDF>
</metadata>
<rect id="tiger" width="32" height="32" fill="none"/><clipPath id="_clip1"><rect width="32" height="32"/></clipPath><g clip-path="url(#_clip1)"><g id="outline" fill="none" stroke="#000" stroke-width="4px"><path d="m21 5 5 5s0.573-0.382 1.219-0.813c1.113-0.741 1.781-1.99 1.781-3.328v-1.859c0-1.105-0.895-2-2-2h-1.757c-0.796 0-1.559 0.316-2.122 0.879l-2.121 2.121z"/><path d="m11 5-5 5s-0.573-0.382-1.219-0.813c-1.113-0.741-1.781-1.99-1.781-3.328v-1.859c0-1.105 0.895-2 2-2h1.757c0.796 0 1.559 0.316 2.122 0.879l2.121 2.121z"/><path d="m12 25-4 4-2-2-2 2v-5l-2 2v-10.858c0-2.652 1.054-5.196 2.929-7.071l3.899-3.899c0.751-0.751 1.768-1.172 2.829-1.172h8.686c1.061 0 2.078 0.421 2.829 1.172l3.899 3.899c1.875 1.875 2.929 4.419 2.929 7.071v10.858l-2-2v5l-2-2-2 2-4-4h-8z"/></g><g id="emoji"><path d="m12 25-4 4-2-2-2 2v-5l-2 2v-10.858c0-2.652 1.054-5.196 2.929-7.071l3.899-3.899c0.751-0.751 1.768-1.172 2.829-1.172h8.686c1.061 0 2.078 0.421 2.829 1.172l3.899 3.899c1.875 1.875 2.929 4.419 2.929 7.071v10.858l-2-2v5l-2-2-2 2-4-4h-8z" fill="#c0843b"/><clipPath id="_clip2"><path d="m12 25-4 4-2-2-2 2v-5l-2 2v-10.858c0-2.652 1.054-5.196 2.929-7.071l3.899-3.899c0.751-0.751 1.768-1.172 2.829-1.172h8.686c1.061 0 2.078 0.421 2.829 1.172l3.899 3.899c1.875 1.875 2.929 4.419 2.929 7.071v10.858l-2-2v5l-2-2-2 2-4-4h-8z"/></clipPath><g clip-path="url(#_clip2)"><path d="m6 16s0.391 1.172 0.684 2.051c0.199 0.598 0.667 1.066 1.265 1.265 0.879 0.293 2.051 0.684 2.051 0.684l1 1v4h10v-4l1-1s1.172-0.391 2.051-0.684c0.598-0.199 1.066-0.667 1.265-1.265 0.293-0.879 0.684-2.051 0.684-2.051l6-2v16h-32v-16l6 2z" fill="#e5e5e5"/></g><path d="m10 23v2c0 2.761 2.239 5 5 5h2c2.761 0 5-2.239 5-5v-2" fill="none" stroke="#000" stroke-width="4px"/><g fill="#e5e5e5"><path d="m12.316 17.228c0.409-0.136 0.684-0.518 0.684-0.949v-0.865c0-0.265-0.105-0.519-0.293-0.707l-1.707-1.707 1-1v-4l-4.414 4.414c-0.375 0.375-0.586 0.884-0.586 1.414v1.102c0 0.668 0.334 1.293 0.891 1.664 0.41 0.274 0.894 0.596 1.295 0.863 0.514 0.343 1.156 0.429 1.742 0.234 0.448-0.15 0.977-0.326 1.388-0.463z"/><path d="m19.684 17.228c-0.409-0.136-0.684-0.518-0.684-0.949v-0.865c0-0.265 0.105-0.519 0.293-0.707l1.707-1.707-1-1v-4l4.414 4.414c0.375 0.375 0.586 0.884 0.586 1.414v1.102c0 0.668-0.334 1.293-0.891 1.664-0.41 0.274-0.894 0.596-1.295 0.863-0.514 0.343-1.156 0.429-1.742 0.234-0.448-0.15-0.977-0.326-1.388-0.463z"/></g><path d="m22 20h-12l1 5h10l1-5z" fill="#c0843b"/><path d="m15 30c-2.761 0-5-2.239-5-5v-5h1v3c0 0.552 0.448 1 1 1h1v-1h6v1h1c0.552 0 1-0.448 1-1v-3h1v5c0 2.761-2.239 5-5 5h-2z" fill="#e5e5e5"/><path d="m9 26s0.916 0.305 1.735 0.578c0.821 0.274 1.709 0.274 2.53 0 0.819-0.273 1.735-0.578 1.735-0.578l1-1 1 1s0.916 0.305 1.735 0.578c0.821 0.274 1.709 0.274 2.53 0 0.819-0.273 1.735-0.578 1.735-0.578" fill="none" stroke="#000" stroke-linejoin="miter" stroke-width="1px"/><path d="m20.553 14.724c-0.339 0.169-0.553 0.515-0.553 0.894v2.382h1v-1h0.172c0.53 0 1.039-0.211 1.414-0.586l1.414-1.414c0-0.552-0.448-1-1-1h-0.764c-0.155 0-0.308 0.036-0.447 0.106-0.291 0.145-0.827 0.413-1.236 0.618z"/><path d="m11.447 14.724c0.339 0.169 0.553 0.515 0.553 0.894v2.382h-1v-1h-0.172c-0.53 0-1.039-0.211-1.414-0.586l-1.414-1.414c0-0.552 0.448-1 1-1h0.764c0.155 0 0.308 0.036 0.447 0.106 0.291 0.145 0.827 0.413 1.236 0.618z"/><path d="m21 5 5 5s0.573-0.382 1.219-0.813c1.113-0.741 1.781-1.99 1.781-3.328v-1.859c0-1.105-0.895-2-2-2h-1.757c-0.796 0-1.559 0.316-2.122 0.879l-2.121 2.121z" fill="#c0843b"/><clipPath id="_clip3"><path d="m21 5 5 5s0.573-0.382 1.219-0.813c1.113-0.741 1.781-1.99 1.781-3.328v-1.859c0-1.105-0.895-2-2-2h-1.757c-0.796 0-1.559 0.316-2.122 0.879l-2.121 2.121z"/></clipPath><g clip-path="url(#_clip3)"><path d="m31 3h-4.757c-0.796 0-1.559 0.316-2.122 0.879l-2.121 2.121 4 4h5v-7z" fill="#e5e5e5"/></g><path d="m11 5-5 5s-0.573-0.382-1.219-0.813c-1.113-0.741-1.781-1.99-1.781-3.328v-1.859c0-1.105 0.895-2 2-2h1.757c0.796 0 1.559 0.316 2.122 0.879l2.121 2.121z" fill="#c0843b"/><clipPath id="_clip4"><path d="m11 5-5 5s-0.573-0.382-1.219-0.813c-1.113-0.741-1.781-1.99-1.781-3.328v-1.859c0-1.105 0.895-2 2-2h1.757c0.796 0 1.559 0.316 2.122 0.879l2.121 2.121z"/></clipPath><g clip-path="url(#_clip4)"><path d="m1 3h4.757c0.796 0 1.559 0.316 2.122 0.879l2.121 2.121-4 4h-5v-7z" fill="#e5e5e5"/></g><path d="m12 21h1v1h1l1 1h2l1-1h1v-1h1v1l-0.707 0.707c-0.188 0.188-0.442 0.293-0.707 0.293h-0.586c0 0.552-0.448 1-1 1h-2.001c-0.552 0-0.999-0.447-0.999-0.999v-1e-3h-0.586c-0.265 0-0.519-0.105-0.707-0.293l-0.707-0.707v-1z"/><path d="m5 16c0-0.265 0.105-0.52 0.293-0.707 0.187-0.188 0.442-0.293 0.707-0.293s0.52 0.105 0.707 0.293c0.188 0.187 0.293 0.442 0.293 0.707v3c0 0.265 0.105 0.52 0.293 0.707 0.187 0.188 0.442 0.293 0.707 0.293h0.5c0.133 0 0.26 0.053 0.354 0.146 0.093 0.094 0.146 0.221 0.146 0.354s-0.053 0.26-0.146 0.354c-0.094 0.093-0.221 0.146-0.354 0.146h-1.5c-1.105 0-2-0.895-2-2v-3z"/><path d="m27 16c0-0.265-0.105-0.52-0.293-0.707-0.187-0.188-0.442-0.293-0.707-0.293s-0.52 0.105-0.707 0.293c-0.188 0.187-0.293 0.442-0.293 0.707v3c0 0.265-0.105 0.52-0.293 0.707-0.187 0.188-0.442 0.293-0.707 0.293h-0.5c-0.133 0-0.26 0.053-0.354 0.146-0.093 0.094-0.146 0.221-0.146 0.354s0.053 0.26 0.146 0.354c0.094 0.093 0.221 0.146 0.354 0.146h1.5c1.105 0 2-0.895 2-2v-3z"/><path d="m13 27h6l-3-2-3 2z"/><path d="m5.6 10.6c-0.147-0.147-0.353-0.221-0.56-0.2-0.208 0.02-0.395 0.133-0.511 0.306-0.437 0.656-1.064 1.597-1.361 2.042-0.11 0.164-0.168 0.357-0.168 0.555v5.197c0 0.133 0.053 0.26 0.146 0.354 0.094 0.093 0.221 0.146 0.354 0.146s0.26-0.053 0.354-0.146c0.093-0.094 0.146-0.221 0.146-0.354v-4.197c0-0.198 0.058-0.391 0.168-0.555 0.335-0.502 1.09-1.635 1.519-2.279 0.182-0.273 0.146-0.636-0.086-0.868l-1e-3 -1e-3z"/><path d="m26.4 10.6c0.147-0.147 0.353-0.221 0.56-0.2 0.208 0.02 0.395 0.133 0.511 0.306 0.437 0.656 1.064 1.597 1.361 2.042 0.11 0.164 0.168 0.357 0.168 0.555v5.197c0 0.133-0.053 0.26-0.146 0.354-0.094 0.093-0.221 0.146-0.354 0.146s-0.26-0.053-0.354-0.146c-0.093-0.094-0.146-0.221-0.146-0.354v-4.197c0-0.198-0.058-0.391-0.168-0.555-0.335-0.502-1.09-1.635-1.519-2.279-0.182-0.273-0.146-0.636 0.086-0.868l1e-3 -1e-3z"/><path d="m28 22c0 1.657-1.343 3-3 3h-2v-1h2v-1c0-0.552 0.448-1 1-1h2z"/><path d="m4 22v2e-3c0 1.656 1.342 2.998 2.998 2.998h2.002v-1h-2v-1c0-0.552-0.448-1-1-1h-2z"/><path d="m15 9c0-0.265-0.105-0.52-0.293-0.707-0.187-0.188-0.442-0.293-0.707-0.293h-3c-0.265 0-0.52 0.105-0.707 0.293-0.188 0.187-0.293 0.442-0.293 0.707s0.105 0.52 0.293 0.707c0.187 0.188 0.442 0.293 0.707 0.293h3c0.265 0 0.52-0.105 0.707-0.293 0.188-0.187 0.293-0.442 0.293-0.707z"/><path d="m22 9c0-0.265-0.105-0.52-0.293-0.707-0.187-0.188-0.442-0.293-0.707-0.293h-3c-0.265 0-0.52 0.105-0.707 0.293-0.188 0.187-0.293 0.442-0.293 0.707s0.105 0.52 0.293 0.707c0.187 0.188 0.442 0.293 0.707 0.293h3c0.265 0 0.52-0.105 0.707-0.293 0.188-0.187 0.293-0.442 0.293-0.707z"/><path d="m20 12c0-0.552-0.448-1-1-1h-1c-0.552 0-1 0.448-1 1s0.448 1 1 1h1c0.552 0 1-0.448 1-1z"/><path d="m15 12c0-0.552-0.448-1-1-1h-1c-0.552 0-1 0.448-1 1s0.448 1 1 1h1c0.552 0 1-0.448 1-1z"/><path d="m15 6.5c0-0.133-0.053-0.26-0.146-0.354-0.094-0.093-0.221-0.146-0.354-0.146h-4c-0.133 0-0.26 0.053-0.354 0.146-0.093 0.094-0.146 0.221-0.146 0.354s0.053 0.26 0.146 0.354c0.094 0.093 0.221 0.146 0.354 0.146h4c0.133 0 0.26-0.053 0.354-0.146 0.093-0.094 0.146-0.221 0.146-0.354z"/><path d="m22 6.5c0-0.133-0.053-0.26-0.146-0.354-0.094-0.093-0.221-0.146-0.354-0.146h-4c-0.133 0-0.26 0.053-0.354 0.146-0.093 0.094-0.146 0.221-0.146 0.354s0.053 0.26 0.146 0.354c0.094 0.093 0.221 0.146 0.354 0.146h4c0.133 0 0.26-0.053 0.354-0.146 0.093-0.094 0.146-0.221 0.146-0.354z"/><path d="m15 4.5c0-0.133-0.053-0.26-0.146-0.354-0.094-0.093-0.221-0.146-0.354-0.146h-4c-0.133 0-0.26 0.053-0.354 0.146-0.093 0.094-0.146 0.221-0.146 0.354s0.053 0.26 0.146 0.354c0.094 0.093 0.221 0.146 0.354 0.146h4c0.133 0 0.26-0.053 0.354-0.146 0.093-0.094 0.146-0.221 0.146-0.354z"/><path d="m22 4.5c0-0.133-0.053-0.26-0.146-0.354-0.094-0.093-0.221-0.146-0.354-0.146h-4c-0.133 0-0.26 0.053-0.354 0.146-0.093 0.094-0.146 0.221-0.146 0.354s0.053 0.26 0.146 0.354c0.094 0.093 0.221 0.146 0.354 0.146h4c0.133 0 0.26-0.053 0.354-0.146 0.093-0.094 0.146-0.221 0.146-0.354z"/></g></g></svg>
