<?xml version="1.0" encoding="UTF-8"?>
<!DOCTYPE svg  PUBLIC '-//W3C//DTD SVG 1.1//EN'  'http://www.w3.org/Graphics/SVG/1.1/DTD/svg11.dtd'>
<svg clip-rule="evenodd" fill-rule="evenodd" stroke-linejoin="round" stroke-miterlimit="2" version="1.1" viewBox="0 0 32 32" xml:space="preserve" xmlns="http://www.w3.org/2000/svg" xmlns:serif="http://www.serif.com/">
<metadata>
<rdf:RDF xmlns:cc="http://web.resource.org/cc/" xmlns:dc="http://purl.org/dc/elements/1.1/" xmlns:rdf="http://www.w3.org/1999/02/22-rdf-syntax-ns#">

     <rdf:Description rdf:about="">
       <dc:title>Mutant Standard emoji 2020.04</dc:title>
     </rdf:Description>

    <cc:work rdf:about="">
        <cc:license rdf:resource="http://creativecommons.org/licenses/by-nc-sa/4.0/"/>
        <cc:attributionName>Dzuk</cc:attributionName>
        <cc:attributionURL>http://mutant.tech/</cc:attributionURL>
    </cc:work>

</rdf:RDF>
</metadata>

    <rect id="index_finger--hmn-" width="32" height="32" fill="none" serif:id="index_finger [hmn]"/>
    <clipPath id="_clip1">
        <rect width="32" height="32"/>
    </clipPath>
    <g clip-path="url(#_clip1)">
        <g id="outline">
            <path d="m16.968 9.033c1e-3 -1.873 0.01-3.747 0.033-5.62 0.014-0.374 0.078-0.741 0.204-1.093 0.34-0.951 1.093-1.722 2.035-2.086 0.376-0.145 0.771-0.218 1.173-0.233 0.087-1e-3 0.087-1e-3 0.174 0 0.402 0.015 0.797 0.088 1.173 0.233 0.536 0.207 1.017 0.547 1.392 0.982 0.298 0.346 0.527 0.751 0.671 1.185 0.116 0.351 0.172 0.717 0.177 1.087v13.284c0.077 0.044 0.076 0.045 0.156 0.095l0.117 0.077c0.188 0.135 0.368 0.278 0.533 0.441 0.489 0.482 0.85 1.088 1.039 1.748 0.091 0.315 0.136 0.635 0.153 0.962 0.016 0.909 7e-3 1.818 1e-3 2.727-5e-3 0.307-0.022 0.613-0.056 0.918-0.076 0.678-0.227 1.348-0.45 1.994-0.271 0.787-0.648 1.537-1.118 2.223-0.411 0.6-0.892 1.151-1.431 1.639-1.324 1.199-2.989 1.999-4.752 2.285-0.377 0.061-0.757 0.098-1.139 0.113-0.344 0.012-0.691 6e-3 -1.035 6e-3 -1.107-1e-3 -2.213-0.167-3.271-0.496-1.15-0.358-2.24-0.907-3.213-1.617-1.757-1.281-3.117-3.079-3.864-5.121-0.283-0.771-0.478-1.574-0.582-2.389-0.053-0.418-0.079-0.838-0.087-1.26l-1e-3 -0.117v-0.029c-3e-3 -0.567-4e-3 -1.134-4e-3 -1.701-7e-3 -1.952-0.019-3.904 5e-3 -5.857 0.014-0.374 0.078-0.741 0.204-1.094 0.154-0.43 0.393-0.829 0.7-1.168 0.405-0.447 0.924-0.785 1.496-0.974 0.383-0.127 0.782-0.181 1.186-0.176 0.423 0.016 0.837 0.097 1.229 0.256 0.378-0.452 0.868-0.808 1.424-1.022 0.376-0.146 0.771-0.219 1.173-0.234 0.087-1e-3 0.087-1e-3 0.174 0 0.402 0.015 0.797 0.088 1.173 0.234 0.262 0.101 0.51 0.233 0.74 0.393 0.276-0.192 0.58-0.345 0.901-0.451 0.383-0.127 0.782-0.181 1.186-0.176 0.128 5e-3 0.255 0.015 0.381 0.032z"/>
        </g>
        <g id="emoji">
            <path d="m22.894 18.447c0.678 0.339 1.106 1.032 1.106 1.789v2.471c0 1.934-0.768 3.789-2.136 5.157s-3.223 2.136-5.157 2.136h-0.682c-4.984 0-9.025-4.041-9.025-9.025v-7.475h1.5v-1.5h12v0.499h1.5v5.501l0.894 0.447z" fill="#FFD877"/>
            <clipPath id="_clip2">
                <path d="m22.894 18.447c0.678 0.339 1.106 1.032 1.106 1.789v2.471c0 1.934-0.768 3.789-2.136 5.157s-3.223 2.136-5.157 2.136h-0.682c-4.984 0-9.025-4.041-9.025-9.025v-7.475h1.5v-1.5h12v0.499h1.5v5.501l0.894 0.447z"/>
            </clipPath>
            <g clip-path="url(#_clip2)">
                <path d="m15.546 20.001c0.133 9e-3 0.262 0.038 0.383 0.096 0.354 0.168 0.581 0.538 0.571 0.929-4e-3 0.134-0.036 0.262-0.089 0.385-0.651 1.371-1.33 2.728-2.035 4.071-0.08 0.139-0.186 0.259-0.319 0.349-0.302 0.202-0.7 0.223-1.022 0.054-0.094-0.049-0.18-0.113-0.254-0.189-0.083-0.086-0.15-0.187-0.198-0.296-0.053-0.122-0.081-0.254-0.083-0.386-2e-3 -0.148 0.031-0.29 0.089-0.425 0.651-1.371 1.33-2.728 2.035-4.071 0.121-0.21 0.303-0.373 0.532-0.457 0.075-0.027 0.152-0.044 0.231-0.055 0.053-5e-3 0.106-6e-3 0.159-5e-3z" fill="#DFAA50" fill-rule="nonzero"/>
                <path d="m8.5 13.5v-2.5h12v1.5h2.5v5.499l-8 1e-3v0.506c-4e-3 0.327-0.065 0.648-0.19 0.951-0.086 0.207-0.2 0.403-0.338 0.58-0.483 0.619-1.248 0.982-2.034 0.962-0.286-7e-3 -0.571-0.063-0.838-0.167-0.286-0.11-0.551-0.273-0.778-0.479-0.243-0.22-0.442-0.488-0.582-0.785-0.031-0.064-0.058-0.13-0.083-0.196-0.501 0.442-1.173 0.671-1.843 0.621-0.224-0.017-0.446-0.064-0.657-0.139-0.288-0.104-0.557-0.26-0.789-0.46-0.248-0.214-0.454-0.478-0.602-0.771-0.099-0.198-0.17-0.408-0.214-0.623h-0.052v-0.496c-0.016-1.334-0.016-2.669 0-4.004h2.5z" fill="#865E1C"/>
            </g>
            <path d="m11 12.5c0-0.398 0.158-0.779 0.439-1.061 0.282-0.281 0.663-0.439 1.061-0.439s0.779 0.158 1.061 0.439c0.281 0.282 0.439 0.663 0.439 1.061v6c0 0.398-0.158 0.779-0.439 1.061-0.282 0.281-0.663 0.439-1.061 0.439s-0.779-0.158-1.061-0.439c-0.281-0.282-0.439-0.663-0.439-1.061v-6zm-4 1c0-0.398 0.158-0.779 0.439-1.061 0.282-0.281 0.663-0.439 1.061-0.439s0.779 0.158 1.061 0.439c0.281 0.282 0.439 0.663 0.439 1.061v4c0 0.398-0.158 0.779-0.439 1.061-0.282 0.281-0.663 0.439-1.061 0.439s-0.779-0.158-1.061-0.439c-0.281-0.282-0.439-0.663-0.439-1.061v-4zm15-10c0-0.828-0.672-1.5-1.5-1.5s-1.5 0.672-1.5 1.5v12.5h3v-12.5zm-4 12.499h-3v-3.5c0-0.397 0.158-0.779 0.439-1.06 0.282-0.282 0.663-0.44 1.061-0.44s0.779 0.158 1.061 0.44c0.281 0.281 0.439 0.663 0.439 1.06v3.5z" fill="#FFD877"/>
            <path d="m22 18h-6.874c0.02 0.08 0.044 0.158 0.069 0.237 0.127 0.384 0.308 0.748 0.542 1.078 0.505 0.71 1.241 1.247 2.073 1.505 0.369 0.115 0.752 0.172 1.138 0.18l0.469 3e-3 2.29 2.29-1.414 1.414-1.722-1.722c-0.112-8e-3 -0.223-0.02-0.334-0.033-0.735-0.098-1.445-0.322-2.098-0.677-1.319-0.717-2.342-1.928-2.824-3.351-0.209-0.619-0.311-1.268-0.315-1.921v-1.003h9v2z" fill="#865E1C" fill-rule="nonzero"/>
        </g>
    </g>
</svg>
