<?xml version="1.0" encoding="UTF-8"?>
<svg clip-rule="evenodd" fill-rule="evenodd" stroke-linecap="round" stroke-linejoin="round" stroke-miterlimit="1.5" viewBox="0 0 32 32" xmlns="http://www.w3.org/2000/svg">
 <clipPath id="a">
  <path d="m0 0h32v32h-32z" clip-rule="evenodd"/>
 </clipPath>
 <path d="m0 0h32v32h-32z" fill="none"/>
 <g clip-path="url(#a)">
  <g fill="none">
   <path d="m15 22c0 3.866 3.134 7 7 7h2" stroke="#000" stroke-width="6"/>
   <path d="m7 10c0-4.418 3.582-8 8-8s8 3.582 8 8v0.642c0 2.15-0.854 4.212-2.375 5.733l-4.625 4.625 2 2h-6l2-2s-2.595-2.595-4.625-4.625c-1.521-1.521-2.375-3.583-2.375-5.733v-0.642z" stroke="#000" stroke-width="4"/>
   <path d="m15 22c0 3.866 3.134 7 7 7h2" stroke="#656565" stroke-width="2"/>
  </g>
  <path d="m7 10c0-4.418 3.582-8 8-8s8 3.582 8 8v0.642c0 2.15-0.854 4.212-2.375 5.733l-4.625 4.625 2 2h-6l2-2s-2.595-2.595-4.625-4.625c-1.521-1.521-2.375-3.583-2.375-5.733v-0.642z" fill="#e02a33"/>
  <circle cx="12" cy="7" r="3" fill="#f06f76"/>
 </g>
</svg>
