<?xml version="1.0" encoding="UTF-8"?>
<!DOCTYPE svg  PUBLIC '-//W3C//DTD SVG 1.1//EN'  'http://www.w3.org/Graphics/SVG/1.1/DTD/svg11.dtd'>
<svg clip-rule="evenodd" fill-rule="evenodd" stroke-linecap="round" stroke-linejoin="round" stroke-miterlimit="1.5" version="1.1" viewBox="0 0 32 32" xml:space="preserve" xmlns="http://www.w3.org/2000/svg">
<metadata>
<rdf:RDF xmlns:cc="http://web.resource.org/cc/" xmlns:dc="http://purl.org/dc/elements/1.1/" xmlns:rdf="http://www.w3.org/1999/02/22-rdf-syntax-ns#">

     <rdf:Description rdf:about="">
       <dc:title>Mutant Standard emoji 2023.12</dc:title>
     </rdf:Description>

    <cc:work rdf:about="">
        <cc:license rdf:resource="http://creativecommons.org/licenses/by-nc-sa/4.0/"/>
        <cc:attributionName>Caius Nocturne</cc:attributionName>
        <cc:attributionURL>http://mutant.tech/</cc:attributionURL>
    </cc:work>

</rdf:RDF>
</metadata>
<rect id="balloon" width="32" height="32" fill="none"/><clipPath id="_clip1"><rect width="32" height="32"/></clipPath><g clip-path="url(#_clip1)"><g id="outline" fill="none" stroke="#000"><path d="m15 22c0 3.866 3.134 7 7 7h2" stroke-width="6px"/><path d="m7 10c0-4.418 3.582-8 8-8s8 3.582 8 8v0.642c0 2.15-0.854 4.212-2.375 5.733l-4.625 4.625 2 2h-6l2-2-4.625-4.625c-1.521-1.521-2.375-3.583-2.375-5.733v-0.642z" stroke-width="4px"/></g><g id="emoji"><path d="m15 22c0 3.866 3.134 7 7 7h2" fill="none" stroke="#656565" stroke-width="2px"/><path d="m7 10c0-4.418 3.582-8 8-8s8 3.582 8 8v0.642c0 2.15-0.854 4.212-2.375 5.733l-4.625 4.625 2 2h-6l2-2-4.625-4.625c-1.521-1.521-2.375-3.583-2.375-5.733v-0.642z" fill="#e02a33"/><circle cx="12" cy="7" r="3" fill="#f06f76"/></g></g></svg>
