<?xml version="1.0" encoding="UTF-8"?>
<!DOCTYPE svg  PUBLIC '-//W3C//DTD SVG 1.1//EN'  'http://www.w3.org/Graphics/SVG/1.1/DTD/svg11.dtd'>
<svg clip-rule="evenodd" fill-rule="evenodd" stroke-linecap="round" stroke-linejoin="round" stroke-miterlimit="1.5" version="1.1" viewBox="0 0 32 32" xml:space="preserve" xmlns="http://www.w3.org/2000/svg">
<metadata>
<rdf:RDF xmlns:cc="http://web.resource.org/cc/" xmlns:dc="http://purl.org/dc/elements/1.1/" xmlns:rdf="http://www.w3.org/1999/02/22-rdf-syntax-ns#">

     <rdf:Description rdf:about="">
       <dc:title>Mutant Standard S3</dc:title>
     </rdf:Description>

    <cc:work rdf:about="">
        <cc:license rdf:resource="http://creativecommons.org/licenses/by-nc-sa/4.0/"/>
        <cc:attributionName>Dzuk</cc:attributionName>
        <cc:attributionURL>http://mutant.tech/</cc:attributionURL>
    </cc:work>

</rdf:RDF>
</metadata>
<rect id="avoado_toast" width="32" height="32" fill="none"/><clipPath id="_clip1"><rect width="32" height="32"/></clipPath><g clip-path="url(#_clip1)"><g id="outline"><path d="m30 13c0-6.075-4.925-11-11-11h-6c-6.075 0-11 4.925-11 11v2.23c0 0.509 0.097 1.013 0.286 1.485 0.291 0.727 0.75 1.875 1.12 2.799 0.381 0.954 0.381 2.018 0 2.972-0.37 0.924-0.829 2.072-1.12 2.799-0.189 0.472-0.286 0.976-0.286 1.485v2.23c0 0.552 0.448 1 1 1h26c0.552 0 1-0.448 1-1v-2.23c0-0.509-0.097-1.013-0.286-1.485-0.291-0.727-0.75-1.875-1.12-2.799-0.381-0.954-0.381-2.018 0-2.972 0.37-0.924 0.829-2.072 1.12-2.799 0.189-0.472 0.286-0.976 0.286-1.485v-2.23z" fill="none" stroke="#000" stroke-width="4px"/></g><g id="emoji"><path d="m30 13c0-6.075-4.925-11-11-11h-6c-6.075 0-11 4.925-11 11v2.23c0 0.509 0.097 1.013 0.286 1.485 0.291 0.727 0.75 1.875 1.12 2.799 0.381 0.954 0.381 2.018 0 2.972-0.37 0.924-0.829 2.072-1.12 2.799-0.189 0.472-0.286 0.976-0.286 1.485v2.23c0 0.552 0.448 1 1 1h26c0.552 0 1-0.448 1-1v-2.23c0-0.509-0.097-1.013-0.286-1.485-0.291-0.727-0.75-1.875-1.12-2.799-0.381-0.954-0.381-2.018 0-2.972 0.37-0.924 0.829-2.072 1.12-2.799 0.189-0.472 0.286-0.976 0.286-1.485v-2.23z" fill="#ae853a"/><path d="m19 2 0.142 1e-3 0.142 3e-3 0.141 4e-3 0.141 6e-3 0.14 8e-3 0.14 0.01 0.14 0.012 0.139 0.013 0.138 0.015 0.138 0.016 0.137 0.019 0.137 0.02 0.136 0.021 0.136 0.024 0.135 0.025 0.135 0.026 0.134 0.029 0.133 0.03 0.133 0.031 0.132 0.033 0.132 0.035 0.13 0.036 0.131 0.038 0.258 0.08 0.128 0.043 0.127 0.044 0.127 0.045 0.126 0.047 0.125 0.049 0.125 0.05 0.124 0.051 0.123 0.053 0.122 0.055 0.121 0.056 0.121 0.057 0.12 0.058 0.119 0.06 0.118 0.062 0.117 0.063 0.117 0.064 0.115 0.065 0.115 0.067 0.114 0.069 0.113 0.069 0.112 0.071 0.111 0.072 0.11 0.074 0.109 0.074 0.109 0.076 0.107 0.078 0.106 0.078 0.106 0.08 0.104 0.081 0.104 0.082 0.102 0.084 0.202 0.17 0.099 0.087 0.098 0.089 0.097 0.089 0.096 0.09 0.095 0.092 0.094 0.093 0.093 0.094 0.092 0.095 0.09 0.096 0.089 0.097 0.089 0.098 0.087 0.099 0.17 0.202 0.084 0.102 0.082 0.104 0.081 0.104 0.08 0.106 0.078 0.106 0.078 0.107 0.076 0.109 0.074 0.109 0.074 0.11 0.072 0.111 0.071 0.112 0.07 0.113 0.068 0.114 0.067 0.115 0.065 0.115 0.064 0.117 0.063 0.117 0.062 0.118 0.06 0.119 0.058 0.12 0.058 0.121 0.055 0.121 0.055 0.122 0.053 0.123 0.051 0.124 0.05 0.125 0.049 0.125 0.047 0.126 0.045 0.127 0.044 0.127 0.043 0.128 0.08 0.258 0.038 0.131 0.036 0.13 0.035 0.132 0.033 0.132 0.031 0.133 0.03 0.133 0.029 0.134 0.026 0.135 0.025 0.135 0.024 0.136 0.021 0.136 0.02 0.137 0.019 0.137 0.016 0.138 0.015 0.138 0.013 0.139 0.012 0.14 0.01 0.14 8e-3 0.14 6e-3 0.141 4e-3 0.141 3e-3 0.142 1e-3 0.142v2.23l-1e-3 0.095-4e-3 0.095-5e-3 0.095-8e-3 0.095-0.01 0.095-0.013 0.094-0.014 0.094-0.017 0.093-0.019 0.093-0.022 0.093-0.023 0.092-0.026 0.091-0.028 0.091-0.03 0.091-0.032 0.089-0.034 0.089-1.12 2.799-0.034 0.09-0.033 0.09-0.03 0.091-0.028 0.092-0.026 0.092-0.023 0.092-0.021 0.093-0.019 0.093-0.017 0.093-0.015 0.094-0.012 0.094-0.01 0.094-8e-3 0.094-5e-3 0.095-4e-3 0.094-1e-3 0.095 1e-3 0.095 4e-3 0.094 5e-3 0.095 8e-3 0.094 0.01 0.094 0.012 0.094 0.015 0.094 0.017 0.093 0.019 0.093 0.021 0.093 0.023 0.092 0.026 0.092 0.028 0.092 0.03 0.091 0.033 0.09 0.034 0.09 1.12 2.799 0.034 0.089 0.032 0.089 0.03 0.091 0.028 0.091 0.026 0.091 0.023 0.092 0.022 0.093 0.019 0.093 0.017 0.093 0.014 0.094 0.013 0.094 0.01 0.095 8e-3 0.095 5e-3 0.095 4e-3 0.095 1e-3 0.095v2.23l-1e-3 0.051-4e-3 0.051-7e-3 0.05-8e-3 0.05-0.011 0.048-0.014 0.047-0.016 0.047-0.018 0.045-0.02 0.045-0.022 0.043-0.024 0.042-0.026 0.04-0.028 0.039-0.029 0.038-0.032 0.036-0.033 0.035-0.035 0.033-0.036 0.032-0.038 0.029-0.039 0.028-0.04 0.026-0.042 0.024-0.043 0.022-0.045 0.02-0.045 0.018-0.047 0.016-0.047 0.014-0.048 0.011-0.05 8e-3 -0.05 7e-3 -0.051 4e-3 -0.051 1e-3h-26l-0.051-1e-3 -0.051-4e-3 -0.05-7e-3 -0.05-8e-3 -0.048-0.011-0.047-0.014-0.047-0.016-0.045-0.018-0.045-0.02-0.043-0.022-0.042-0.024-0.04-0.026-0.039-0.028-0.038-0.029-0.036-0.032-0.035-0.033-0.033-0.035-0.032-0.036-0.029-0.038-0.028-0.039-0.026-0.04-0.024-0.042-0.022-0.043-0.02-0.045-0.018-0.045-0.016-0.047-0.014-0.047-0.011-0.048-8e-3 -0.05-7e-3 -0.05-4e-3 -0.051-1e-3 -0.051v-2.23l1e-3 -0.095 4e-3 -0.095 5e-3 -0.095 8e-3 -0.095 0.01-0.095 0.013-0.094 0.014-0.094 0.017-0.093 0.019-0.093 0.022-0.093 0.023-0.092 0.026-0.091 0.028-0.091 0.03-0.091 0.032-0.089 0.034-0.089 1.12-2.799 0.034-0.09 0.033-0.09 0.03-0.091 0.028-0.092 0.026-0.092 0.023-0.092 0.021-0.093 0.019-0.093 0.017-0.093 0.015-0.094 0.012-0.094 0.01-0.094 8e-3 -0.094 5e-3 -0.095 4e-3 -0.094 1e-3 -0.095-1e-3 -0.095-4e-3 -0.094-5e-3 -0.095-8e-3 -0.094-0.01-0.094-0.012-0.094-0.015-0.094-0.017-0.093-0.019-0.093-0.021-0.093-0.023-0.092-0.026-0.092-0.028-0.092-0.03-0.091-0.033-0.09-0.034-0.09-1.12-2.799-0.034-0.089-0.032-0.089-0.03-0.091-0.028-0.091-0.026-0.091-0.023-0.092-0.022-0.093-0.019-0.093-0.017-0.093-0.014-0.094-0.013-0.094-0.01-0.095-8e-3 -0.095-5e-3 -0.095-4e-3 -0.095-1e-3 -0.095v-2.23l1e-3 -0.142 3e-3 -0.142 4e-3 -0.141 6e-3 -0.141 8e-3 -0.14 0.01-0.14 0.012-0.14 0.013-0.139 0.015-0.138 0.016-0.138 0.019-0.137 0.02-0.137 0.021-0.136 0.024-0.136 0.025-0.135 0.026-0.135 0.029-0.134 0.03-0.133 0.031-0.133 0.033-0.132 0.035-0.132 0.036-0.13 0.038-0.131 0.08-0.258 0.043-0.128 0.044-0.127 0.045-0.127 0.047-0.126 0.049-0.125 0.05-0.125 0.051-0.124 0.053-0.123 0.055-0.122 0.055-0.121 0.058-0.121 0.058-0.12 0.06-0.119 0.062-0.118 0.063-0.117 0.064-0.117 0.065-0.115 0.067-0.115 0.068-0.114 0.07-0.113 0.071-0.112 0.072-0.111 0.074-0.11 0.074-0.109 0.076-0.109 0.078-0.107 0.078-0.106 0.08-0.106 0.081-0.104 0.082-0.104 0.084-0.102 0.17-0.202 0.087-0.099 0.089-0.098 0.089-0.097 0.09-0.096 0.092-0.095 0.093-0.094 0.094-0.093 0.095-0.092 0.096-0.09 0.097-0.089 0.098-0.089 0.099-0.087 0.202-0.17 0.102-0.084 0.104-0.082 0.104-0.081 0.106-0.08 0.106-0.078 0.107-0.078 0.109-0.076 0.109-0.074 0.11-0.074 0.111-0.072 0.112-0.071 0.113-0.069 0.114-0.069 0.115-0.067 0.115-0.065 0.117-0.064 0.117-0.063 0.118-0.062 0.119-0.06 0.12-0.058 0.121-0.057 0.121-0.056 0.122-0.055 0.123-0.053 0.124-0.051 0.125-0.05 0.125-0.049 0.126-0.047 0.127-0.045 0.127-0.044 0.128-0.043 0.258-0.08 0.131-0.038 0.13-0.036 0.132-0.035 0.132-0.033 0.133-0.031 0.133-0.03 0.134-0.029 0.135-0.026 0.135-0.025 0.136-0.024 0.136-0.021 0.137-0.02 0.137-0.019 0.138-0.016 0.138-0.015 0.139-0.013 0.14-0.012 0.14-0.01 0.14-8e-3 0.141-6e-3 0.141-4e-3 0.142-3e-3 0.142-1e-3h6zm-5.994 2-0.123 1e-3 -0.116 2e-3 -0.116 4e-3 -0.116 5e-3 -0.115 6e-3 -0.115 8e-3 -0.114 0.01-0.114 0.011-0.113 0.012-0.113 0.013-0.112 0.015-0.112 0.017-0.112 0.018-0.111 0.019-0.11 0.02-0.11 0.022-0.109 0.023-0.109 0.024-0.109 0.026-0.108 0.027-0.214 0.058-0.106 0.031-0.106 0.032-0.21 0.068-0.104 0.036-0.104 0.038-0.102 0.038-0.103 0.04-0.101 0.04-0.102 0.042-0.2 0.088-0.099 0.046-0.099 0.047-0.098 0.047-0.194 0.1-0.096 0.051-0.095 0.053-0.094 0.053-0.094 0.055-0.093 0.056-0.093 0.057-0.091 0.058-0.091 0.059-0.091 0.06-0.089 0.061-0.089 0.062-0.088 0.064-0.087 0.064-0.086 0.065-0.17 0.134-0.084 0.068-0.083 0.07-0.082 0.07-0.082 0.071-0.16 0.146-0.078 0.074-0.078 0.075-0.077 0.076-0.076 0.077-0.075 0.078-0.074 0.078-0.073 0.08-0.073 0.081-0.071 0.081-0.07 0.082-0.07 0.083-0.068 0.084-0.134 0.17-0.065 0.086-0.064 0.087-0.064 0.088-0.062 0.089-0.061 0.089-0.06 0.091-0.059 0.091-0.058 0.091-0.057 0.093-0.056 0.093-0.055 0.094-0.053 0.094-0.053 0.095-0.051 0.096-0.1 0.194-0.048 0.098-0.092 0.198-0.088 0.2-0.042 0.102-0.04 0.101-0.04 0.103-0.076 0.206-0.036 0.104-0.068 0.21-0.032 0.106-0.031 0.106-0.058 0.214-0.027 0.108-0.026 0.109-0.024 0.109-0.023 0.109-0.022 0.11-0.02 0.111-0.019 0.11-0.018 0.112-0.017 0.112-0.015 0.112-0.013 0.113-0.012 0.113-0.011 0.114-0.01 0.114-8e-3 0.115-6e-3 0.115-5e-3 0.116-4e-3 0.116-2e-3 0.116-1e-3 0.123v2.212l1e-3 0.059 1e-3 0.048 3e-3 0.047 4e-3 0.048 5e-3 0.047 6e-3 0.047 0.016 0.094 0.01 0.046 0.01 0.047 0.012 0.046 0.013 0.045 0.014 0.046 0.015 0.045 0.016 0.045 0.021 0.056 1.12 2.799 0.048 0.123 0.048 0.136 0.046 0.136 0.042 0.137 0.038 0.138 0.035 0.138 0.032 0.14 0.029 0.139 0.025 0.14 0.022 0.141 0.018 0.141 0.015 0.141 0.012 0.142 8e-3 0.141 5e-3 0.142 2e-3 0.142-2e-3 0.142-5e-3 0.142-8e-3 0.141-0.012 0.142-0.015 0.141-0.018 0.141-0.022 0.141-0.025 0.14-0.029 0.139-0.032 0.14-0.035 0.138-0.038 0.138-0.042 0.137-0.046 0.136-0.048 0.136-0.048 0.123-1.12 2.799-0.021 0.056-0.016 0.045-0.015 0.045-0.014 0.046-0.013 0.045-0.012 0.046-0.01 0.047-0.01 0.046-0.016 0.094-6e-3 0.047-5e-3 0.047-4e-3 0.048-3e-3 0.047-1e-3 0.048-1e-3 0.059v1.218h24v-1.218l-1e-3 -0.059-1e-3 -0.048-3e-3 -0.047-4e-3 -0.048-5e-3 -0.047-6e-3 -0.047-0.016-0.094-0.01-0.046-0.01-0.047-0.012-0.046-0.013-0.045-0.014-0.046-0.015-0.045-0.016-0.045-0.021-0.056-1.12-2.799-0.048-0.123-0.048-0.136-0.046-0.136-0.042-0.137-0.038-0.138-0.035-0.138-0.032-0.14-0.029-0.139-0.025-0.14-0.022-0.141-0.018-0.141-0.015-0.141-0.012-0.142-8e-3 -0.141-5e-3 -0.142-2e-3 -0.142 2e-3 -0.142 5e-3 -0.142 8e-3 -0.141 0.012-0.142 0.015-0.141 0.018-0.141 0.022-0.141 0.025-0.14 0.029-0.139 0.032-0.14 0.035-0.138 0.038-0.138 0.042-0.137 0.046-0.136 0.048-0.136 0.048-0.123 1.12-2.799 0.021-0.056 0.016-0.045 0.015-0.045 0.014-0.046 0.013-0.045 0.012-0.046 0.01-0.047 0.01-0.046 0.016-0.094 6e-3 -0.047 5e-3 -0.047 4e-3 -0.048 3e-3 -0.047 1e-3 -0.048 1e-3 -0.059v-2.212l-1e-3 -0.123-2e-3 -0.116-4e-3 -0.116-5e-3 -0.116-6e-3 -0.115-8e-3 -0.115-0.01-0.114-0.011-0.114-0.012-0.113-0.013-0.113-0.015-0.112-0.017-0.112-0.018-0.112-0.019-0.11-0.02-0.111-0.022-0.11-0.023-0.109-0.024-0.109-0.026-0.109-0.027-0.108-0.058-0.214-0.031-0.106-0.032-0.106-0.068-0.21-0.036-0.104-0.038-0.104-0.038-0.102-0.04-0.103-0.04-0.101-0.042-0.102-0.088-0.2-0.092-0.198-0.048-0.098-0.1-0.194-0.051-0.096-0.053-0.095-0.053-0.094-0.055-0.094-0.056-0.093-0.057-0.093-0.058-0.091-0.059-0.091-0.06-0.091-0.061-0.089-0.062-0.089-0.064-0.088-0.064-0.087-0.065-0.086-0.134-0.17-0.068-0.084-0.07-0.083-0.07-0.082-0.071-0.081-0.073-0.081-0.073-0.08-0.074-0.078-0.075-0.078-0.076-0.077-0.077-0.076-0.078-0.075-0.078-0.074-0.16-0.146-0.082-0.071-0.082-0.07-0.083-0.07-0.084-0.068-0.17-0.134-0.086-0.065-0.087-0.064-0.088-0.064-0.089-0.062-0.089-0.061-0.091-0.06-0.091-0.059-0.091-0.058-0.093-0.057-0.093-0.056-0.094-0.055-0.094-0.053-0.095-0.053-0.096-0.051-0.194-0.1-0.098-0.047-0.099-0.047-0.099-0.046-0.2-0.088-0.102-0.042-0.101-0.04-0.103-0.04-0.102-0.038-0.104-0.038-0.104-0.036-0.21-0.068-0.106-0.032-0.106-0.031-0.214-0.058-0.108-0.027-0.109-0.026-0.109-0.024-0.109-0.023-0.11-0.022-0.11-0.02-0.111-0.019-0.112-0.018-0.112-0.017-0.112-0.015-0.113-0.013-0.113-0.012-0.114-0.011-0.114-0.01-0.115-8e-3 -0.115-6e-3 -0.116-5e-3 -0.116-4e-3 -0.116-2e-3 -0.123-1e-3h-5.988z" fill="#87632d"/><path d="m23 5c0.649 0 1.281 0.211 1.8 0.6 0.325 0.244 0.717 0.538 1.114 0.836 1.17 0.877 1.451 2.516 0.64 3.733-1e-3 1e-3 -1e-3 1e-3 -1e-3 2e-3 -0.354 0.531-0.483 1.181-0.358 1.806 0.232 1.158 0.604 3.018 0.747 3.732 0.038 0.193 0.058 0.391 0.058 0.588v6.46c0 0.796-0.316 1.559-0.879 2.122l-1.242 1.242c-0.563 0.563-1.326 0.879-2.122 0.879h-13.514c-0.796 0-1.559-0.316-2.122-0.879l-0.242-0.242c-0.563-0.563-0.879-1.326-0.879-2.122v-6.388c0-0.245-0.03-0.489-0.09-0.727-0.189-0.76-0.631-2.524-0.82-3.284-0.06-0.238-0.09-0.482-0.09-0.727v-1.025c0-1.004 0.501-1.94 1.336-2.497 0.274-0.182 0.556-0.37 0.808-0.538 0.555-0.37 0.971-0.915 1.181-1.547 0.075-0.225 0.156-0.468 0.235-0.704 0.279-0.837 0.913-1.509 1.732-1.837 0.625-0.25 1.384-0.553 2.051-0.82 1.005-0.402 2.153-0.167 2.919 0.599 0.473 0.473 1.113 0.738 1.781 0.738h5.957z" fill="#afd43f"/><clipPath id="_clip2"><path d="m23 5c0.649 0 1.281 0.211 1.8 0.6 0.325 0.244 0.717 0.538 1.114 0.836 1.17 0.877 1.451 2.516 0.64 3.733-1e-3 1e-3 -1e-3 1e-3 -1e-3 2e-3 -0.354 0.531-0.483 1.181-0.358 1.806 0.232 1.158 0.604 3.018 0.747 3.732 0.038 0.193 0.058 0.391 0.058 0.588v6.46c0 0.796-0.316 1.559-0.879 2.122l-1.242 1.242c-0.563 0.563-1.326 0.879-2.122 0.879h-13.514c-0.796 0-1.559-0.316-2.122-0.879l-0.242-0.242c-0.563-0.563-0.879-1.326-0.879-2.122v-6.388c0-0.245-0.03-0.489-0.09-0.727-0.189-0.76-0.631-2.524-0.82-3.284-0.06-0.238-0.09-0.482-0.09-0.727v-1.025c0-1.004 0.501-1.94 1.336-2.497 0.274-0.182 0.556-0.37 0.808-0.538 0.555-0.37 0.971-0.915 1.181-1.547 0.075-0.225 0.156-0.468 0.235-0.704 0.279-0.837 0.913-1.509 1.732-1.837 0.625-0.25 1.384-0.553 2.051-0.82 1.005-0.402 2.153-0.167 2.919 0.599 0.473 0.473 1.113 0.738 1.781 0.738h5.957z"/></clipPath><g clip-path="url(#_clip2)" fill="none" stroke="#65a926" stroke-width="3px"><path d="m14 14-2.828 2.828c-0.751 0.751-1.768 1.172-2.829 1.172h-2.343"/><path d="m15 2-2.828 2.828c-0.751 0.751-1.768 1.172-2.829 1.172h-2.343"/><path d="m18 20h4.343c1.061 0 2.078 0.421 2.829 1.172l2.828 2.828"/><path d="m20 10s0.741-0.445 1.652-0.991c1.968-1.181 4.486-0.871 6.108 0.751l2.24 2.24"/><path d="m11 24 3.536 3.536c0.937 0.937 2.209 1.464 3.535 1.464h4.929"/></g><path d="m25 24c0-0.552-0.448-1-1-1s-1 0.448-1 1v1c0 0.552 0.448 1 1 1s1-0.448 1-1v-1z" fill="#6a4e23"/><path d="m16 17c0-0.552-0.448-1-1-1s-1 0.448-1 1v1c0 0.552 0.448 1 1 1s1-0.448 1-1v-1z" fill="#6a4e23"/><path d="m10 14c0-0.552-0.448-1-1-1s-1 0.448-1 1v1c0 0.552 0.448 1 1 1s1-0.448 1-1v-1z" fill="#6a4e23"/><path d="m24 15c0-0.552-0.448-1-1-1s-1 0.448-1 1v1c0 0.552 0.448 1 1 1s1-0.448 1-1v-1z" fill="#6a4e23"/><path d="m20 21.5c0-0.552-0.448-1-1-1s-1 0.448-1 1v1c0 0.552 0.448 1 1 1s1-0.448 1-1v-1z" fill="#6a4e23"/><path d="m19 10.5c0-0.552-0.448-1-1-1s-1 0.448-1 1v1c0 0.552 0.448 1 1 1s1-0.448 1-1v-1z" fill="#6a4e23"/><path d="m23 6.5c0-0.552-0.448-1-1-1s-1 0.448-1 1v1c0 0.552 0.448 1 1 1s1-0.448 1-1v-1z" fill="#6a4e23"/><path d="m12 23c0-0.552-0.448-1-1-1s-1 0.448-1 1v1c0 0.552 0.448 1 1 1s1-0.448 1-1v-1z" fill="#6a4e23"/><path d="m12 8c0-0.552-0.448-1-1-1s-1 0.448-1 1v1c0 0.552 0.448 1 1 1s1-0.448 1-1v-1z" fill="#6a4e23"/></g></g></svg>
