<?xml version="1.0" encoding="UTF-8" standalone="no"?><!DOCTYPE svg PUBLIC "-//W3C//DTD SVG 1.1//EN" "http://www.w3.org/Graphics/SVG/1.1/DTD/svg11.dtd"><svg width="100%" height="100%" viewBox="0 0 32 32" version="1.1" xmlns="http://www.w3.org/2000/svg" xmlns:xlink="http://www.w3.org/1999/xlink" xml:space="preserve" xmlns:serif="http://www.serif.com/" style="fill-rule:evenodd;clip-rule:evenodd;stroke-linecap:round;stroke-linejoin:round;stroke-miterlimit:1.5;">
<metadata>
<rdf:RDF xmlns:cc="http://web.resource.org/cc/"
         xmlns:rdf="http://www.w3.org/1999/02/22-rdf-syntax-ns#"
         xmlns:dc = "http://purl.org/dc/elements/1.1/"
         >

     <rdf:Description rdf:about="">
       <dc:title>Mutant Standard S3</dc:title>
     </rdf:Description>

    <cc:work rdf:about="">
        <cc:license rdf:resource="http://creativecommons.org/licenses/by-nc-sa/4.0/"/>
        <cc:attributionName>Dzuk</cc:attributionName>
        <cc:attributionURL>http://mutant.tech/</cc:attributionURL>
    </cc:work>

</rdf:RDF>
</metadata>
<rect id="avoado_toast" x="0" y="0" width="32" height="32" style="fill:none;"/><clipPath id="_clip1"><rect x="0" y="0" width="32" height="32"/></clipPath><g clip-path="url(#_clip1)"><g id="outline"><path d="M30,13c0,-6.075 -4.925,-11 -11,-11c-1.972,0 -4.028,0 -6,0c-6.075,0 -11,4.925 -11,11c0,0.917 0,1.695 0,2.23c0,0.509 0.097,1.013 0.286,1.485c0.291,0.727 0.75,1.875 1.12,2.799c0.381,0.954 0.381,2.018 0,2.972c-0.37,0.924 -0.829,2.072 -1.12,2.799c-0.189,0.472 -0.286,0.976 -0.286,1.485c0,0.635 0,1.54 0,2.23c0,0.552 0.448,1 1,1c4.355,0 21.645,0 26,0c0.552,0 1,-0.448 1,-1c0,-0.69 0,-1.595 0,-2.23c0,-0.509 -0.097,-1.013 -0.286,-1.485c-0.291,-0.727 -0.75,-1.875 -1.12,-2.799c-0.381,-0.954 -0.381,-2.018 0,-2.972c0.37,-0.924 0.829,-2.072 1.12,-2.799c0.189,-0.472 0.286,-0.976 0.286,-1.485c0,-0.535 0,-1.313 0,-2.23Z" style="fill:none;stroke:#000;stroke-width:4px;"/></g><g id="emoji"><path d="M30,13c0,-6.075 -4.925,-11 -11,-11c-1.972,0 -4.028,0 -6,0c-6.075,0 -11,4.925 -11,11c0,0.917 0,1.695 0,2.23c0,0.509 0.097,1.013 0.286,1.485c0.291,0.727 0.75,1.875 1.12,2.799c0.381,0.954 0.381,2.018 0,2.972c-0.37,0.924 -0.829,2.072 -1.12,2.799c-0.189,0.472 -0.286,0.976 -0.286,1.485c0,0.635 0,1.54 0,2.23c0,0.552 0.448,1 1,1c4.355,0 21.645,0 26,0c0.552,0 1,-0.448 1,-1c0,-0.69 0,-1.595 0,-2.23c0,-0.509 -0.097,-1.013 -0.286,-1.485c-0.291,-0.727 -0.75,-1.875 -1.12,-2.799c-0.381,-0.954 -0.381,-2.018 0,-2.972c0.37,-0.924 0.829,-2.072 1.12,-2.799c0.189,-0.472 0.286,-0.976 0.286,-1.485c0,-0.535 0,-1.313 0,-2.23Z" style="fill:#ae853a;"/><path d="M19,2l0.142,0.001l0.142,0.003l0.141,0.004l0.141,0.006l0.14,0.008l0.14,0.01l0.14,0.012l0.139,0.013l0.138,0.015l0.138,0.016l0.137,0.019l0.137,0.02l0.136,0.021l0.136,0.024l0.135,0.025l0.135,0.026l0.134,0.029l0.133,0.03l0.133,0.031l0.132,0.033l0.132,0.035l0.13,0.036l0.131,0.038l0.129,0.04l0.129,0.04l0.128,0.043l0.127,0.044l0.127,0.045l0.126,0.047l0.125,0.049l0.125,0.05l0.124,0.051l0.123,0.053l0.122,0.055l0.121,0.056l0.121,0.057l0.12,0.058l0.119,0.06l0.118,0.062l0.117,0.063l0.117,0.064l0.115,0.065l0.115,0.067l0.114,0.069l0.113,0.069l0.112,0.071l0.111,0.072l0.11,0.074l0.109,0.074l0.109,0.076l0.107,0.078l0.106,0.078l0.106,0.08l0.104,0.081l0.104,0.082l0.102,0.084l0.101,0.085l0.101,0.085l0.099,0.087l0.098,0.089l0.097,0.089l0.096,0.09l0.095,0.092l0.094,0.093l0.093,0.094l0.092,0.095l0.09,0.096l0.089,0.097l0.089,0.098l0.087,0.099l0.085,0.101l0.085,0.101l0.084,0.102l0.082,0.104l0.081,0.104l0.08,0.106l0.078,0.106l0.078,0.107l0.076,0.109l0.074,0.109l0.074,0.11l0.072,0.111l0.071,0.112l0.07,0.113l0.068,0.114l0.067,0.115l0.065,0.115l0.064,0.117l0.063,0.117l0.062,0.118l0.06,0.119l0.058,0.12l0.058,0.121l0.055,0.121l0.055,0.122l0.053,0.123l0.051,0.124l0.05,0.125l0.049,0.125l0.047,0.126l0.045,0.127l0.044,0.127l0.043,0.128l0.04,0.129l0.04,0.129l0.038,0.131l0.036,0.13l0.035,0.132l0.033,0.132l0.031,0.133l0.03,0.133l0.029,0.134l0.026,0.135l0.025,0.135l0.024,0.136l0.021,0.136l0.02,0.137l0.019,0.137l0.016,0.138l0.015,0.138l0.013,0.139l0.012,0.14l0.01,0.14l0.008,0.14l0.006,0.141l0.004,0.141l0.003,0.142l0.001,0.142l0,2.23l-0.001,0.095l-0.004,0.095l-0.005,0.095l-0.008,0.095l-0.01,0.095l-0.013,0.094l-0.014,0.094l-0.017,0.093l-0.019,0.093l-0.022,0.093l-0.023,0.092l-0.026,0.091l-0.028,0.091l-0.03,0.091l-0.032,0.089l-0.034,0.089l-1.12,2.799l-0.034,0.09l-0.033,0.09l-0.03,0.091l-0.028,0.092l-0.026,0.092l-0.023,0.092l-0.021,0.093l-0.019,0.093l-0.017,0.093l-0.015,0.094l-0.012,0.094l-0.01,0.094l-0.008,0.094l-0.005,0.095l-0.004,0.094l-0.001,0.095l0.001,0.095l0.004,0.094l0.005,0.095l0.008,0.094l0.01,0.094l0.012,0.094l0.015,0.094l0.017,0.093l0.019,0.093l0.021,0.093l0.023,0.092l0.026,0.092l0.028,0.092l0.03,0.091l0.033,0.09l0.034,0.09l1.12,2.799l0.034,0.089l0.032,0.089l0.03,0.091l0.028,0.091l0.026,0.091l0.023,0.092l0.022,0.093l0.019,0.093l0.017,0.093l0.014,0.094l0.013,0.094l0.01,0.095l0.008,0.095l0.005,0.095l0.004,0.095l0.001,0.095l0,2.23l-0.001,0.051l-0.004,0.051l-0.007,0.05l-0.008,0.05l-0.011,0.048l-0.014,0.047l-0.016,0.047l-0.018,0.045l-0.02,0.045l-0.022,0.043l-0.024,0.042l-0.026,0.04l-0.028,0.039l-0.029,0.038l-0.032,0.036l-0.033,0.035l-0.035,0.033l-0.036,0.032l-0.038,0.029l-0.039,0.028l-0.04,0.026l-0.042,0.024l-0.043,0.022l-0.045,0.02l-0.045,0.018l-0.047,0.016l-0.047,0.014l-0.048,0.011l-0.05,0.008l-0.05,0.007l-0.051,0.004l-0.051,0.001l-26,0l-0.051,-0.001l-0.051,-0.004l-0.05,-0.007l-0.05,-0.008l-0.048,-0.011l-0.047,-0.014l-0.047,-0.016l-0.045,-0.018l-0.045,-0.02l-0.043,-0.022l-0.042,-0.024l-0.04,-0.026l-0.039,-0.028l-0.038,-0.029l-0.036,-0.032l-0.035,-0.033l-0.033,-0.035l-0.032,-0.036l-0.029,-0.038l-0.028,-0.039l-0.026,-0.04l-0.024,-0.042l-0.022,-0.043l-0.02,-0.045l-0.018,-0.045l-0.016,-0.047l-0.014,-0.047l-0.011,-0.048l-0.008,-0.05l-0.007,-0.05l-0.004,-0.051l-0.001,-0.051l0,-2.23l0.001,-0.095l0.004,-0.095l0.005,-0.095l0.008,-0.095l0.01,-0.095l0.013,-0.094l0.014,-0.094l0.017,-0.093l0.019,-0.093l0.022,-0.093l0.023,-0.092l0.026,-0.091l0.028,-0.091l0.03,-0.091l0.032,-0.089l0.034,-0.089l1.12,-2.799l0.034,-0.09l0.033,-0.09l0.03,-0.091l0.028,-0.092l0.026,-0.092l0.023,-0.092l0.021,-0.093l0.019,-0.093l0.017,-0.093l0.015,-0.094l0.012,-0.094l0.01,-0.094l0.008,-0.094l0.005,-0.095l0.004,-0.094l0.001,-0.095l-0.001,-0.095l-0.004,-0.094l-0.005,-0.095l-0.008,-0.094l-0.01,-0.094l-0.012,-0.094l-0.015,-0.094l-0.017,-0.093l-0.019,-0.093l-0.021,-0.093l-0.023,-0.092l-0.026,-0.092l-0.028,-0.092l-0.03,-0.091l-0.033,-0.09l-0.034,-0.09l-1.12,-2.799l-0.034,-0.089l-0.032,-0.089l-0.03,-0.091l-0.028,-0.091l-0.026,-0.091l-0.023,-0.092l-0.022,-0.093l-0.019,-0.093l-0.017,-0.093l-0.014,-0.094l-0.013,-0.094l-0.01,-0.095l-0.008,-0.095l-0.005,-0.095l-0.004,-0.095l-0.001,-0.095l0,-2.23l0.001,-0.142l0.003,-0.142l0.004,-0.141l0.006,-0.141l0.008,-0.14l0.01,-0.14l0.012,-0.14l0.013,-0.139l0.015,-0.138l0.016,-0.138l0.019,-0.137l0.02,-0.137l0.021,-0.136l0.024,-0.136l0.025,-0.135l0.026,-0.135l0.029,-0.134l0.03,-0.133l0.031,-0.133l0.033,-0.132l0.035,-0.132l0.036,-0.13l0.038,-0.131l0.04,-0.129l0.04,-0.129l0.043,-0.128l0.044,-0.127l0.045,-0.127l0.047,-0.126l0.049,-0.125l0.05,-0.125l0.051,-0.124l0.053,-0.123l0.055,-0.122l0.055,-0.121l0.058,-0.121l0.058,-0.12l0.06,-0.119l0.062,-0.118l0.063,-0.117l0.064,-0.117l0.065,-0.115l0.067,-0.115l0.068,-0.114l0.07,-0.113l0.071,-0.112l0.072,-0.111l0.074,-0.11l0.074,-0.109l0.076,-0.109l0.078,-0.107l0.078,-0.106l0.08,-0.106l0.081,-0.104l0.082,-0.104l0.084,-0.102l0.085,-0.101l0.085,-0.101l0.087,-0.099l0.089,-0.098l0.089,-0.097l0.09,-0.096l0.092,-0.095l0.093,-0.094l0.094,-0.093l0.095,-0.092l0.096,-0.09l0.097,-0.089l0.098,-0.089l0.099,-0.087l0.101,-0.085l0.101,-0.085l0.102,-0.084l0.104,-0.082l0.104,-0.081l0.106,-0.08l0.106,-0.078l0.107,-0.078l0.109,-0.076l0.109,-0.074l0.11,-0.074l0.111,-0.072l0.112,-0.071l0.113,-0.069l0.114,-0.069l0.115,-0.067l0.115,-0.065l0.117,-0.064l0.117,-0.063l0.118,-0.062l0.119,-0.06l0.12,-0.058l0.121,-0.057l0.121,-0.056l0.122,-0.055l0.123,-0.053l0.124,-0.051l0.125,-0.05l0.125,-0.049l0.126,-0.047l0.127,-0.045l0.127,-0.044l0.128,-0.043l0.129,-0.04l0.129,-0.04l0.131,-0.038l0.13,-0.036l0.132,-0.035l0.132,-0.033l0.133,-0.031l0.133,-0.03l0.134,-0.029l0.135,-0.026l0.135,-0.025l0.136,-0.024l0.136,-0.021l0.137,-0.02l0.137,-0.019l0.138,-0.016l0.138,-0.015l0.139,-0.013l0.14,-0.012l0.14,-0.01l0.14,-0.008l0.141,-0.006l0.141,-0.004l0.142,-0.003l0.142,-0.001l6,0Zm-5.994,2l-0.123,0.001l-0.116,0.002l-0.116,0.004l-0.116,0.005l-0.115,0.006l-0.115,0.008l-0.114,0.01l-0.114,0.011l-0.113,0.012l-0.113,0.013l-0.112,0.015l-0.112,0.017l-0.112,0.018l-0.111,0.019l-0.11,0.02l-0.11,0.022l-0.109,0.023l-0.109,0.024l-0.109,0.026l-0.108,0.027l-0.107,0.029l-0.107,0.029l-0.106,0.031l-0.106,0.032l-0.105,0.034l-0.105,0.034l-0.104,0.036l-0.104,0.038l-0.102,0.038l-0.103,0.04l-0.101,0.04l-0.102,0.042l-0.1,0.044l-0.1,0.044l-0.099,0.046l-0.099,0.047l-0.098,0.047l-0.097,0.05l-0.097,0.05l-0.096,0.051l-0.095,0.053l-0.094,0.053l-0.094,0.055l-0.093,0.056l-0.093,0.057l-0.091,0.058l-0.091,0.059l-0.091,0.06l-0.089,0.061l-0.089,0.062l-0.088,0.064l-0.087,0.064l-0.086,0.065l-0.085,0.067l-0.085,0.067l-0.084,0.068l-0.083,0.07l-0.082,0.07l-0.082,0.071l-0.08,0.073l-0.08,0.073l-0.078,0.074l-0.078,0.075l-0.077,0.076l-0.076,0.077l-0.075,0.078l-0.074,0.078l-0.073,0.08l-0.073,0.081l-0.071,0.081l-0.07,0.082l-0.07,0.083l-0.068,0.084l-0.067,0.085l-0.067,0.085l-0.065,0.086l-0.064,0.087l-0.064,0.088l-0.062,0.089l-0.061,0.089l-0.06,0.091l-0.059,0.091l-0.058,0.091l-0.057,0.093l-0.056,0.093l-0.055,0.094l-0.053,0.094l-0.053,0.095l-0.051,0.096l-0.05,0.097l-0.05,0.097l-0.048,0.098l-0.046,0.099l-0.046,0.099l-0.044,0.1l-0.044,0.1l-0.042,0.102l-0.04,0.101l-0.04,0.103l-0.038,0.103l-0.038,0.103l-0.036,0.104l-0.034,0.105l-0.034,0.105l-0.032,0.106l-0.031,0.106l-0.029,0.107l-0.029,0.107l-0.027,0.108l-0.026,0.109l-0.024,0.109l-0.023,0.109l-0.022,0.11l-0.02,0.111l-0.019,0.11l-0.018,0.112l-0.017,0.112l-0.015,0.112l-0.013,0.113l-0.012,0.113l-0.011,0.114l-0.01,0.114l-0.008,0.115l-0.006,0.115l-0.005,0.116l-0.004,0.116l-0.002,0.116l-0.001,0.123l0,2.212l0.001,0.059l0.001,0.048l0.003,0.047l0.004,0.048l0.005,0.047l0.006,0.047l0.008,0.047l0.008,0.047l0.01,0.046l0.01,0.047l0.012,0.046l0.013,0.045l0.014,0.046l0.015,0.045l0.016,0.045l0.021,0.056l1.12,2.799l0.048,0.123l0.048,0.136l0.046,0.136l0.042,0.137l0.038,0.138l0.035,0.138l0.032,0.14l0.029,0.139l0.025,0.14l0.022,0.141l0.018,0.141l0.015,0.141l0.012,0.142l0.008,0.141l0.005,0.142l0.002,0.142l-0.002,0.142l-0.005,0.142l-0.008,0.141l-0.012,0.142l-0.015,0.141l-0.018,0.141l-0.022,0.141l-0.025,0.14l-0.029,0.139l-0.032,0.14l-0.035,0.138l-0.038,0.138l-0.042,0.137l-0.046,0.136l-0.048,0.136l-0.048,0.123l-1.12,2.799l-0.021,0.056l-0.016,0.045l-0.015,0.045l-0.014,0.046l-0.013,0.045l-0.012,0.046l-0.01,0.047l-0.01,0.046l-0.008,0.047l-0.008,0.047l-0.006,0.047l-0.005,0.047l-0.004,0.048l-0.003,0.047l-0.001,0.048l-0.001,0.059l0,1.218l24,0l0,-1.218l-0.001,-0.059l-0.001,-0.048l-0.003,-0.047l-0.004,-0.048l-0.005,-0.047l-0.006,-0.047l-0.008,-0.047l-0.008,-0.047l-0.01,-0.046l-0.01,-0.047l-0.012,-0.046l-0.013,-0.045l-0.014,-0.046l-0.015,-0.045l-0.016,-0.045l-0.021,-0.056l-1.12,-2.799l-0.048,-0.123l-0.048,-0.136l-0.046,-0.136l-0.042,-0.137l-0.038,-0.138l-0.035,-0.138l-0.032,-0.14l-0.029,-0.139l-0.025,-0.14l-0.022,-0.141l-0.018,-0.141l-0.015,-0.141l-0.012,-0.142l-0.008,-0.141l-0.005,-0.142l-0.002,-0.142l0.002,-0.142l0.005,-0.142l0.008,-0.141l0.012,-0.142l0.015,-0.141l0.018,-0.141l0.022,-0.141l0.025,-0.14l0.029,-0.139l0.032,-0.14l0.035,-0.138l0.038,-0.138l0.042,-0.137l0.046,-0.136l0.048,-0.136l0.048,-0.123l1.12,-2.799l0.021,-0.056l0.016,-0.045l0.015,-0.045l0.014,-0.046l0.013,-0.045l0.012,-0.046l0.01,-0.047l0.01,-0.046l0.008,-0.047l0.008,-0.047l0.006,-0.047l0.005,-0.047l0.004,-0.048l0.003,-0.047l0.001,-0.048l0.001,-0.059l0,-2.212l-0.001,-0.123l-0.002,-0.116l-0.004,-0.116l-0.005,-0.116l-0.006,-0.115l-0.008,-0.115l-0.01,-0.114l-0.011,-0.114l-0.012,-0.113l-0.013,-0.113l-0.015,-0.112l-0.017,-0.112l-0.018,-0.112l-0.019,-0.11l-0.02,-0.111l-0.022,-0.11l-0.023,-0.109l-0.024,-0.109l-0.026,-0.109l-0.027,-0.108l-0.029,-0.107l-0.029,-0.107l-0.031,-0.106l-0.032,-0.106l-0.034,-0.105l-0.034,-0.105l-0.036,-0.104l-0.038,-0.104l-0.038,-0.102l-0.04,-0.103l-0.04,-0.101l-0.042,-0.102l-0.044,-0.1l-0.044,-0.1l-0.046,-0.099l-0.046,-0.099l-0.048,-0.098l-0.05,-0.097l-0.05,-0.097l-0.051,-0.096l-0.053,-0.095l-0.053,-0.094l-0.055,-0.094l-0.056,-0.093l-0.057,-0.093l-0.058,-0.091l-0.059,-0.091l-0.06,-0.091l-0.061,-0.089l-0.062,-0.089l-0.064,-0.088l-0.064,-0.087l-0.065,-0.086l-0.067,-0.085l-0.067,-0.085l-0.068,-0.084l-0.07,-0.083l-0.07,-0.082l-0.071,-0.081l-0.073,-0.081l-0.073,-0.08l-0.074,-0.078l-0.075,-0.078l-0.076,-0.077l-0.077,-0.076l-0.078,-0.075l-0.078,-0.074l-0.08,-0.073l-0.08,-0.073l-0.082,-0.071l-0.082,-0.07l-0.083,-0.07l-0.084,-0.068l-0.085,-0.067l-0.085,-0.067l-0.086,-0.065l-0.087,-0.064l-0.088,-0.064l-0.089,-0.062l-0.089,-0.061l-0.091,-0.06l-0.091,-0.059l-0.091,-0.058l-0.093,-0.057l-0.093,-0.056l-0.094,-0.055l-0.094,-0.053l-0.095,-0.053l-0.096,-0.051l-0.097,-0.05l-0.097,-0.05l-0.098,-0.047l-0.099,-0.047l-0.099,-0.046l-0.1,-0.044l-0.1,-0.044l-0.102,-0.042l-0.101,-0.04l-0.103,-0.04l-0.102,-0.038l-0.104,-0.038l-0.104,-0.036l-0.105,-0.034l-0.105,-0.034l-0.106,-0.032l-0.106,-0.031l-0.107,-0.029l-0.107,-0.029l-0.108,-0.027l-0.109,-0.026l-0.109,-0.024l-0.109,-0.023l-0.11,-0.022l-0.11,-0.02l-0.111,-0.019l-0.112,-0.018l-0.112,-0.017l-0.112,-0.015l-0.113,-0.013l-0.113,-0.012l-0.114,-0.011l-0.114,-0.01l-0.115,-0.008l-0.115,-0.006l-0.116,-0.005l-0.116,-0.004l-0.116,-0.002l-0.123,-0.001l-5.988,0Z" style="fill:#87632d;"/><path d="M23,5c0.649,0 1.281,0.211 1.8,0.6c0.325,0.244 0.717,0.538 1.114,0.836c1.17,0.877 1.451,2.516 0.64,3.733c-0.001,0.001 -0.001,0.001 -0.001,0.002c-0.354,0.531 -0.483,1.181 -0.358,1.806c0.232,1.158 0.604,3.018 0.747,3.732c0.038,0.193 0.058,0.391 0.058,0.588c0,1.041 0,4.56 0,6.46c0,0.796 -0.316,1.559 -0.879,2.122c-0.391,0.391 -0.851,0.851 -1.242,1.242c-0.563,0.563 -1.326,0.879 -2.122,0.879c-2.984,0 -10.53,0 -13.514,0c-0.796,0 -1.559,-0.316 -2.122,-0.879c-0.08,-0.08 -0.162,-0.162 -0.242,-0.242c-0.563,-0.563 -0.879,-1.326 -0.879,-2.122c0,-1.859 0,-5.265 0,-6.388c0,-0.245 -0.03,-0.489 -0.09,-0.727c-0.189,-0.76 -0.631,-2.524 -0.82,-3.284c-0.06,-0.238 -0.09,-0.482 -0.09,-0.727c0,-0.265 0,-0.64 0,-1.025c0,-1.004 0.501,-1.94 1.336,-2.497c0.274,-0.182 0.556,-0.37 0.808,-0.538c0.555,-0.37 0.971,-0.915 1.181,-1.547c0.075,-0.225 0.156,-0.468 0.235,-0.704c0.279,-0.837 0.913,-1.509 1.732,-1.837c0.625,-0.25 1.384,-0.553 2.051,-0.82c1.005,-0.402 2.153,-0.167 2.919,0.599c0,0 0,0 0,0c0.473,0.473 1.113,0.738 1.781,0.738c1.548,0 4.434,0 5.957,0Z" style="fill:#afd43f;"/><clipPath id="_clip2"><path d="M23,5c0.649,0 1.281,0.211 1.8,0.6c0.325,0.244 0.717,0.538 1.114,0.836c1.17,0.877 1.451,2.516 0.64,3.733c-0.001,0.001 -0.001,0.001 -0.001,0.002c-0.354,0.531 -0.483,1.181 -0.358,1.806c0.232,1.158 0.604,3.018 0.747,3.732c0.038,0.193 0.058,0.391 0.058,0.588c0,1.041 0,4.56 0,6.46c0,0.796 -0.316,1.559 -0.879,2.122c-0.391,0.391 -0.851,0.851 -1.242,1.242c-0.563,0.563 -1.326,0.879 -2.122,0.879c-2.984,0 -10.53,0 -13.514,0c-0.796,0 -1.559,-0.316 -2.122,-0.879c-0.08,-0.08 -0.162,-0.162 -0.242,-0.242c-0.563,-0.563 -0.879,-1.326 -0.879,-2.122c0,-1.859 0,-5.265 0,-6.388c0,-0.245 -0.03,-0.489 -0.09,-0.727c-0.189,-0.76 -0.631,-2.524 -0.82,-3.284c-0.06,-0.238 -0.09,-0.482 -0.09,-0.727c0,-0.265 0,-0.64 0,-1.025c0,-1.004 0.501,-1.94 1.336,-2.497c0.274,-0.182 0.556,-0.37 0.808,-0.538c0.555,-0.37 0.971,-0.915 1.181,-1.547c0.075,-0.225 0.156,-0.468 0.235,-0.704c0.279,-0.837 0.913,-1.509 1.732,-1.837c0.625,-0.25 1.384,-0.553 2.051,-0.82c1.005,-0.402 2.153,-0.167 2.919,0.599c0,0 0,0 0,0c0.473,0.473 1.113,0.738 1.781,0.738c1.548,0 4.434,0 5.957,0Z"/></clipPath><g clip-path="url(#_clip2)"><path d="M14,14c0,0 -1.648,1.648 -2.828,2.828c-0.751,0.751 -1.768,1.172 -2.829,1.172c-1.1,0 -2.343,0 -2.343,0" style="fill:none;stroke:#65a926;stroke-width:3px;"/><path d="M15,2c0,0 -1.648,1.648 -2.828,2.828c-0.751,0.751 -1.768,1.172 -2.829,1.172c-1.1,0 -2.343,0 -2.343,0" style="fill:none;stroke:#65a926;stroke-width:3px;"/><path d="M18,20c0,0 2.567,0 4.343,0c1.061,0 2.078,0.421 2.829,1.172c1.18,1.18 2.828,2.828 2.828,2.828" style="fill:none;stroke:#65a926;stroke-width:3px;"/><path d="M20,10c0,0 0.741,-0.445 1.652,-0.991c1.968,-1.181 4.486,-0.871 6.108,0.751c1.158,1.158 2.24,2.24 2.24,2.24" style="fill:none;stroke:#65a926;stroke-width:3px;"/><path d="M11,24c0,0 2.06,2.06 3.536,3.536c0.937,0.937 2.209,1.464 3.535,1.464c2.064,0 4.929,0 4.929,0" style="fill:none;stroke:#65a926;stroke-width:3px;"/></g><path d="M25,24c0,-0.552 -0.448,-1 -1,-1c-0.552,0 -1,0.448 -1,1c0,0.322 0,0.678 0,1c0,0.552 0.448,1 1,1c0.552,0 1,-0.448 1,-1c0,-0.322 0,-0.678 0,-1Z" style="fill:#6a4e23;"/><path d="M16,17c0,-0.552 -0.448,-1 -1,-1c-0.552,0 -1,0.448 -1,1c0,0.322 0,0.678 0,1c0,0.552 0.448,1 1,1c0.552,0 1,-0.448 1,-1c0,-0.322 0,-0.678 0,-1Z" style="fill:#6a4e23;"/><path d="M10,14c0,-0.552 -0.448,-1 -1,-1c-0.552,0 -1,0.448 -1,1c0,0.322 0,0.678 0,1c0,0.552 0.448,1 1,1c0.552,0 1,-0.448 1,-1c0,-0.322 0,-0.678 0,-1Z" style="fill:#6a4e23;"/><path d="M24,15c0,-0.552 -0.448,-1 -1,-1c-0.552,0 -1,0.448 -1,1c0,0.322 0,0.678 0,1c0,0.552 0.448,1 1,1c0.552,0 1,-0.448 1,-1c0,-0.322 0,-0.678 0,-1Z" style="fill:#6a4e23;"/><path d="M20,21.5c0,-0.552 -0.448,-1 -1,-1c-0.552,0 -1,0.448 -1,1c0,0.322 0,0.678 0,1c0,0.552 0.448,1 1,1c0.552,0 1,-0.448 1,-1c0,-0.322 0,-0.678 0,-1Z" style="fill:#6a4e23;"/><path d="M19,10.5c0,-0.552 -0.448,-1 -1,-1c-0.552,0 -1,0.448 -1,1c0,0.322 0,0.678 0,1c0,0.552 0.448,1 1,1c0.552,0 1,-0.448 1,-1c0,-0.322 0,-0.678 0,-1Z" style="fill:#6a4e23;"/><path d="M23,6.5c0,-0.552 -0.448,-1 -1,-1c-0.552,0 -1,0.448 -1,1c0,0.322 0,0.678 0,1c0,0.552 0.448,1 1,1c0.552,0 1,-0.448 1,-1c0,-0.322 0,-0.678 0,-1Z" style="fill:#6a4e23;"/><path d="M12,23c0,-0.552 -0.448,-1 -1,-1c-0.552,0 -1,0.448 -1,1c0,0.322 0,0.678 0,1c0,0.552 0.448,1 1,1c0.552,0 1,-0.448 1,-1c0,-0.322 0,-0.678 0,-1Z" style="fill:#6a4e23;"/><path d="M12,8c0,-0.552 -0.448,-1 -1,-1c-0.552,0 -1,0.448 -1,1c0,0.322 0,0.678 0,1c0,0.552 0.448,1 1,1c0.552,0 1,-0.448 1,-1c0,-0.322 0,-0.678 0,-1Z" style="fill:#6a4e23;"/></g></g></svg>