<?xml version="1.0" encoding="UTF-8"?>
<!DOCTYPE svg  PUBLIC '-//W3C//DTD SVG 1.1//EN'  'http://www.w3.org/Graphics/SVG/1.1/DTD/svg11.dtd'>
<svg clip-rule="evenodd" fill-rule="evenodd" stroke-linejoin="round" stroke-miterlimit="1.4142" version="1.1" viewBox="0 0 32 32" xml:space="preserve" xmlns="http://www.w3.org/2000/svg">
<metadata>
<rdf:RDF xmlns:cc="http://web.resource.org/cc/" xmlns:dc="http://purl.org/dc/elements/1.1/" xmlns:rdf="http://www.w3.org/1999/02/22-rdf-syntax-ns#">

     <rdf:Description rdf:about="">
       <dc:title>Mutant Standard S3</dc:title>
     </rdf:Description>

    <cc:work rdf:about="">
        <cc:license rdf:resource="http://creativecommons.org/licenses/by-nc-sa/4.0/"/>
        <cc:attributionName>Dzuk</cc:attributionName>
        <cc:attributionURL>http://mutant.tech/</cc:attributionURL>
    </cc:work>

</rdf:RDF>
</metadata>
<rect id="cursed_eggplant" width="32" height="32" fill="none"/><g id="outline"><path d="m8.24 0.993 0.128 3e-3 0.127 6e-3 0.127 9e-3 0.128 0.01 0.127 0.013 0.126 0.015 0.127 0.017 0.127 0.02 0.126 0.021 0.126 0.025 0.125 0.026 0.125 0.028 0.125 0.031 0.124 0.033 0.124 0.036 0.124 0.037 0.123 0.04 0.122 0.042 0.122 0.045 0.121 0.046 0.12 0.049 0.12 0.052 0.119 0.053 0.118 0.056 0.118 0.058 0.117 0.06 0.115 0.062 0.115 0.065 0.114 0.067 0.105 0.064 4.149 2.593 0.107 0.066 0.102 0.061 0.103 0.059 0.103 0.058 0.104 0.056 0.105 0.055 0.106 0.053 0.107 0.052 0.107 0.05 0.108 0.049 0.108 0.047 0.11 0.046 0.11 0.044 0.11 0.043 0.112 0.041 0.118 0.042 4.983 1.72 0.14 0.049 0.145 0.053 0.143 0.055 0.143 0.057 0.142 0.058 0.142 0.06 0.14 0.062 0.139 0.063 0.139 0.065 0.137 0.067 0.137 0.068 0.135 0.07 0.135 0.072 0.133 0.073 0.133 0.075 0.131 0.076 0.131 0.078 0.129 0.08 0.129 0.081 0.127 0.083 0.126 0.084 0.125 0.086 0.124 0.087 0.123 0.089 0.121 0.09 0.121 0.092 0.119 0.093 0.118 0.095 0.117 0.096 0.116 0.097 0.115 0.099 0.113 0.101 0.112 0.101 0.111 0.104 0.109 0.104 0.108 0.106 0.107 0.107 0.106 0.109 0.104 0.109 0.103 0.112 0.102 0.112 0.1 0.114 0.099 0.115 0.097 0.116 0.096 0.118 0.095 0.119 0.093 0.12 0.091 0.121 0.091 0.122 0.088 0.124 0.088 0.125 0.086 0.126 0.084 0.127 0.082 0.128 0.082 0.13 0.079 0.13 0.078 0.132 0.077 0.133 0.075 0.134 0.073 0.135 0.072 0.136 0.07 0.137 0.068 0.138 0.067 0.139 0.065 0.14 0.063 0.14 0.061 0.141 0.059 0.142 0.058 0.143 0.056 0.142 0.054 0.144 0.052 0.144 0.05 0.144 0.048 0.145 0.046 0.146 0.045 0.146 0.043 0.146 0.041 0.147 0.039 0.147 0.037 0.147 0.035 0.148 0.034 0.148 0.031 0.149 0.03 0.149 0.028 0.149 0.026 0.149 0.024 0.15 0.022 0.15 0.02 0.15 0.019 0.15 0.017 0.151 0.014 0.151 0.013 0.15 0.011 0.151 0.01 0.151 7e-3 0.152 5e-3 0.151 4e-3 0.151 2e-3 0.151-1e-3 0.152-2e-3 0.151-4e-3 0.152-5e-3 0.151-8e-3 0.151-0.01 0.152-0.011 0.151-0.013 0.151-0.016 0.151-0.017 0.151-0.019 0.15-0.02 0.151-0.023 0.15-0.025 0.15-0.026 0.15-0.029 0.15-0.03 0.149-0.032 0.149-0.034 0.149-0.036 0.149-0.038 0.148-0.039 0.148-0.042 0.147-0.044 0.147-0.045 0.147-0.047 0.146-0.049 0.146-0.051 0.145-0.051 0.139-0.215 0.576-0.056 0.149-0.061 0.155-0.064 0.153-0.065 0.152-0.067 0.152-0.069 0.15-0.071 0.149-0.073 0.148-0.075 0.146-0.077 0.146-0.078 0.145-0.081 0.143-0.082 0.142-0.084 0.14-0.086 0.14-0.088 0.138-0.089 0.137-0.092 0.136-0.093 0.134-0.095 0.133-0.096 0.132-0.098 0.13-0.1 0.129-0.102 0.127-0.103 0.126-0.105 0.125-0.106 0.123-0.109 0.122-0.109 0.12-0.111 0.119-0.113 0.118-0.115 0.115-0.116 0.115-0.117 0.112-0.119 0.112-0.12 0.109-0.122 0.108-0.124 0.107-0.124 0.104-0.126 0.103-0.128 0.102-0.129 0.1-0.13 0.098-0.132 0.096-0.133 0.095-0.135 0.093-0.135 0.091-0.137 0.089-0.139 0.088-0.139 0.086-0.141 0.084-0.142 0.082-0.143 0.08-0.145 0.079-0.146 0.077-0.146 0.074-0.148 0.073-0.149 0.071-0.151 0.069-0.151 0.067-0.152 0.065-0.154 0.063-0.154 0.061-0.156 0.059-0.156 0.057-0.157 0.054-0.158 0.053-0.158 0.05-0.158 0.048-0.159 0.046-0.159 0.044-0.16 0.041-0.16 0.039-0.16 0.038-0.161 0.034-0.161 0.033-0.161 0.031-0.161 0.028-0.162 0.026-0.162 0.024-0.162 0.022-0.163 0.019-0.162 0.017-0.163 0.016-0.162 0.013-0.163 0.01-0.163 9e-3 -0.163 6e-3 -0.163 5e-3 -0.163 2e-3h-0.163l-0.162-2e-3 -0.163-5e-3 -0.163-6e-3 -0.162-9e-3 -0.163-0.011-0.162-0.013-0.162-0.015-0.162-0.018-0.162-0.019-0.161-0.022-0.161-0.024-0.161-0.026-0.16-0.028-0.161-0.03-0.159-0.032-0.16-0.035-0.159-0.037-0.159-0.038-0.158-0.041-0.158-0.044-0.157-0.045-0.156-0.047-0.157-0.05-0.155-0.051-0.155-0.054-0.155-0.056-0.154-0.058-0.153-0.06-0.152-0.063-0.152-0.064-0.151-0.067-0.151-0.068-0.149-0.071-0.149-0.073-0.148-0.075-0.147-0.077-0.141-0.076-2.4-1.32-0.116-0.065-0.119-0.067-0.236-0.136-0.117-0.07-0.116-0.07-0.115-0.071-0.115-0.072-0.115-0.073-0.226-0.148-0.113-0.075-0.112-0.076-0.111-0.077-0.11-0.077-0.11-0.079-0.109-0.079-0.109-0.08-0.107-0.08-0.107-0.081-0.107-0.083-0.106-0.082-0.105-0.084-0.104-0.084-0.104-0.085-0.103-0.086-0.102-0.086-0.102-0.088-0.101-0.087-0.2-0.178-0.099-0.09-0.098-0.091-0.097-0.091-0.097-0.092-0.096-0.093-0.095-0.093-0.095-0.095-0.093-0.094-0.094-0.096-0.092-0.096-0.091-0.096-0.091-0.098-0.18-0.196-0.088-0.1-0.088-0.099-0.174-0.202-0.17-0.204-0.084-0.103-0.166-0.208-0.162-0.21-0.16-0.212-0.078-0.107-0.078-0.108-0.077-0.108-0.076-0.109-0.075-0.109-0.075-0.11-0.074-0.11-0.073-0.111-0.072-0.112-0.142-0.224-0.069-0.113-0.069-0.114-0.068-0.114-0.067-0.115-0.132-0.23-0.064-0.116-0.064-0.117-0.063-0.117-0.062-0.118-0.122-0.236-0.059-0.119-0.059-0.12-0.058-0.119-0.057-0.121-0.056-0.121-0.055-0.121-0.054-0.121-0.053-0.123-0.053-0.122-0.102-0.246-0.05-0.124-0.049-0.125-0.048-0.124-0.047-0.125-0.046-0.126-0.045-0.125-0.045-0.127-0.043-0.126-0.043-0.127-0.041-0.128-0.041-0.127-0.04-0.129-0.038-0.128-0.038-0.129-0.037-0.129-0.036-0.129-0.035-0.13-0.034-0.13-0.066-0.262-0.031-0.131-0.03-0.132-0.029-0.131-0.029-0.133-0.027-0.132-0.052-0.266-0.024-0.133-0.024-0.134-0.022-0.133-0.021-0.135-0.021-0.134-0.038-0.27-0.017-0.135-0.016-0.131-0.664-5.642-0.013-0.118-0.011-0.126-0.01-0.125-7e-3 -0.126-4e-3 -0.126-3e-3 -0.126-1e-3 -0.125 2e-3 -0.125 4e-3 -0.125 6e-3 -0.124 8e-3 -0.124 0.011-0.124 0.012-0.124 0.015-0.123 0.016-0.123 0.019-0.122 0.021-0.122 0.022-0.121 0.025-0.12 0.027-0.121 0.029-0.119 0.031-0.119 0.033-0.118 0.035-0.118 0.037-0.117 0.039-0.116 0.041-0.116 0.042-0.115 0.045-0.114 0.047-0.113 0.048-0.112 0.051-0.112 0.052-0.111 0.054-0.109 0.056-0.109 0.058-0.108 0.06-0.107 0.061-0.106 0.064-0.105 0.065-0.104 0.067-0.103 0.068-0.102 0.071-0.1 0.072-0.1 0.074-0.098 0.076-0.097 0.078-0.096 0.079-0.095 0.081-0.093 0.082-0.093 0.085-0.09 0.086-0.09 0.087-0.088 0.09-0.087 0.091-0.085 0.092-0.084 0.094-0.082 0.096-0.081 0.097-0.08 0.099-0.077 0.1-0.076 0.102-0.075 0.104-0.073 0.097-0.066 0.558-0.372 0.103-0.067 0.112-0.071 0.113-0.068 0.114-0.065 0.115-0.064 0.115-0.061 0.117-0.06 0.117-0.057 0.119-0.054 0.118-0.053 0.12-0.05 0.121-0.048 0.121-0.046 0.121-0.043 0.123-0.041 0.122-0.039 0.124-0.037 0.124-0.035 0.124-0.032 0.125-0.03 0.125-0.027 0.125-0.026 0.126-0.023 0.126-0.021 0.126-0.019 0.127-0.016 0.127-0.015 0.127-0.012 0.127-9e-3 0.127-8e-3 0.128-5e-3 0.127-3e-3 0.128-1e-3 0.127 2e-3zm-0.196 3.999-0.057 1e-3 -0.057 2e-3 -0.056 4e-3 -0.057 4e-3 -0.057 5e-3 -0.056 7e-3 -0.057 7e-3 -0.056 8e-3 -0.112 0.02-0.056 0.011-0.056 0.013-0.055 0.013-0.056 0.014-0.055 0.016-0.054 0.016-0.055 0.017-0.108 0.038-0.054 0.02-0.054 0.022-0.053 0.022-0.053 0.023-0.052 0.025-0.053 0.025-0.051 0.026-0.052 0.028-0.051 0.028-0.051 0.029-0.1 0.062-0.058 0.037-0.527 0.352-0.054 0.037-0.047 0.033-0.045 0.033-0.045 0.034-0.044 0.034-0.086 0.072-0.042 0.036-0.041 0.038-0.08 0.076-0.039 0.039-0.038 0.04-0.037 0.04-0.037 0.041-0.036 0.042-0.035 0.042-0.035 0.043-0.034 0.043-0.033 0.044-0.032 0.044-0.062 0.09-0.03 0.046-0.029 0.046-0.028 0.047-0.027 0.047-0.027 0.048-0.026 0.048-0.025 0.049-0.024 0.049-0.023 0.049-0.023 0.05-0.042 0.1-0.02 0.051-0.019 0.051-0.036 0.104-0.032 0.104-0.028 0.106-0.013 0.053-0.012 0.054-0.011 0.053-0.01 0.054-9e-3 0.054-9e-3 0.055-7e-3 0.054-0.012 0.11-5e-3 0.055-6e-3 0.11-2e-3 0.056v0.055 0.056l1e-3 0.056 2e-3 0.056 3e-3 0.056 4e-3 0.056 6e-3 0.057 7e-3 0.065 0.66 5.617 0.014 0.109 0.013 0.105 0.03 0.21 0.016 0.105 0.016 0.104 0.036 0.208 0.019 0.104 0.02 0.103 0.02 0.104 0.044 0.206 0.022 0.102 0.024 0.103 0.024 0.102 0.025 0.101 0.026 0.102 0.054 0.202 0.028 0.101 0.029 0.101 0.029 0.1 0.03 0.1 0.031 0.099 0.032 0.1 0.032 0.099 0.033 0.099 0.034 0.098 0.07 0.196 0.036 0.098 0.036 0.097 0.076 0.194 0.038 0.096 0.08 0.192 0.082 0.19 0.043 0.095 0.086 0.188 0.044 0.094 0.045 0.093 0.092 0.186 0.047 0.092 0.048 0.092 0.048 0.091 0.049 0.091 0.05 0.091 0.05 0.09 0.051 0.09 0.052 0.09 0.052 0.089 0.053 0.089 0.053 0.088 0.055 0.088 0.054 0.088 0.112 0.174 0.114 0.172 0.058 0.086 0.059 0.085 0.059 0.084 0.06 0.085 0.06 0.083 0.062 0.084 0.061 0.083 0.126 0.164 0.063 0.081 0.064 0.081 0.065 0.081 0.132 0.16 0.066 0.079 0.067 0.079 0.068 0.078 0.069 0.078 0.138 0.154 0.07 0.076 0.071 0.076 0.071 0.075 0.072 0.075 0.072 0.074 0.073 0.074 0.074 0.073 0.074 0.072 0.075 0.073 0.075 0.071 0.152 0.142 0.077 0.07 0.077 0.069 0.078 0.069 0.079 0.069 0.079 0.067 0.08 0.068 0.08 0.066 0.081 0.067 0.081 0.065 0.164 0.13 0.083 0.063 0.083 0.064 0.168 0.124 0.085 0.062 0.086 0.061 0.172 0.12 0.087 0.059 0.087 0.058 0.088 0.058 0.089 0.058 0.178 0.112 0.09 0.056 0.273 0.162 0.092 0.053 0.093 0.052 0.096 0.053 2.382 1.311 0.105 0.056 0.099 0.052 0.099 0.051 0.101 0.049 0.1 0.047 0.101 0.046 0.102 0.045 0.102 0.043 0.103 0.042 0.103 0.041 0.103 0.039 0.104 0.038 0.104 0.036 0.21 0.068 0.106 0.032 0.105 0.03 0.106 0.029 0.107 0.028 0.107 0.026 0.214 0.048 0.107 0.022 0.108 0.02 0.108 0.019 0.108 0.017 0.109 0.016 0.108 0.015 0.109 0.013 0.109 0.012 0.109 0.01 0.109 9e-3 0.11 7e-3 0.109 6e-3 0.109 4e-3 0.11 3e-3 0.109 2e-3h0.11l0.11-2e-3 0.109-2e-3 0.11-5e-3 0.109-6e-3 0.11-7e-3 0.109-9e-3 0.11-0.01 0.109-0.011 0.218-0.028 0.109-0.016 0.109-0.018 0.109-0.019 0.108-0.02 0.109-0.022 0.108-0.024 0.107-0.025 0.108-0.026 0.107-0.028 0.108-0.029 0.106-0.031 0.107-0.033 0.106-0.033 0.212-0.072 0.105-0.039 0.105-0.04 0.104-0.041 0.103-0.042 0.103-0.044 0.102-0.045 0.101-0.046 0.1-0.048 0.099-0.049 0.099-0.05 0.098-0.052 0.097-0.052 0.097-0.055 0.095-0.055 0.095-0.056 0.094-0.058 0.093-0.059 0.092-0.06 0.182-0.124 0.089-0.064 0.089-0.065 0.088-0.066 0.086-0.067 0.086-0.068 0.085-0.069 0.084-0.071 0.083-0.071 0.082-0.073 0.081-0.074 0.08-0.075 0.079-0.075 0.078-0.077 0.077-0.078 0.076-0.079 0.075-0.08 0.074-0.081 0.072-0.082 0.072-0.083 0.071-0.084 0.069-0.085 0.136-0.172 0.066-0.088 0.065-0.088 0.126-0.18 0.122-0.184 0.059-0.093 0.058-0.093 0.056-0.095 0.056-0.096 0.054-0.096 0.053-0.097 0.051-0.098 0.051-0.099 0.049-0.099 0.047-0.1 0.047-0.101 0.045-0.102 0.044-0.103 0.042-0.103 0.042-0.104 0.042-0.111 0.205-0.551 0.038-0.104 0.034-0.098 0.033-0.098 0.032-0.098 0.031-0.099 0.029-0.099 0.028-0.099 0.027-0.099 0.025-0.1 0.024-0.1 0.023-0.1 0.022-0.1 0.02-0.101 0.019-0.101 0.018-0.1 0.017-0.101 0.015-0.101 0.014-0.102 0.013-0.101 0.011-0.102 0.01-0.101 9e-3 -0.102 8e-3 -0.102 6e-3 -0.101 6e-3 -0.102 6e-3 -0.204 1e-3 -0.102 1e-3 -0.101-4e-3 -0.204-4e-3 -0.102-5e-3 -0.102-6e-3 -0.101-7e-3 -0.102-9e-3 -0.101-0.01-0.102-0.011-0.101-0.026-0.202-0.015-0.101-0.016-0.101-0.018-0.1-0.019-0.101-0.02-0.1-0.021-0.1-0.022-0.099-0.024-0.1-0.025-0.099-0.026-0.099-0.028-0.099-0.029-0.098-0.03-0.098-0.031-0.098-0.032-0.098-0.034-0.097-0.035-0.097-0.036-0.096-0.076-0.192-0.04-0.095-0.084-0.19-0.044-0.094-0.045-0.094-0.046-0.093-0.047-0.092-0.048-0.091-0.049-0.091-0.102-0.18-0.106-0.176-0.055-0.087-0.112-0.172-0.058-0.085-0.059-0.084-0.059-0.083-0.061-0.082-0.062-0.082-0.062-0.081-0.064-0.079-0.065-0.08-0.065-0.078-0.134-0.154-0.068-0.075-0.07-0.075-0.07-0.074-0.071-0.073-0.072-0.072-0.073-0.072-0.073-0.07-0.15-0.138-0.076-0.067-0.077-0.067-0.078-0.066-0.158-0.128-0.081-0.063-0.081-0.061-0.082-0.061-0.082-0.06-0.084-0.059-0.084-0.057-0.085-0.057-0.085-0.056-0.174-0.108-0.176-0.104-0.089-0.05-0.09-0.049-0.09-0.048-0.092-0.048-0.092-0.046-0.092-0.044-0.093-0.044-0.094-0.043-0.094-0.041-0.095-0.041-0.096-0.039-0.096-0.038-0.097-0.037-0.097-0.035-0.104-0.037-4.985-1.721-0.158-0.056-0.165-0.061-0.163-0.063-0.162-0.065-0.162-0.067-0.16-0.07-0.16-0.072-0.158-0.074-0.157-0.077-0.157-0.079-0.155-0.081-0.154-0.083-0.153-0.085-0.151-0.088-0.151-0.089-0.143-0.088-4.145-2.591-0.058-0.036-0.051-0.03-0.052-0.028-0.051-0.028-0.052-0.027-0.053-0.026-0.052-0.025-0.053-0.024-0.053-0.022-0.054-0.022-0.054-0.021-0.108-0.038-0.055-0.018-0.055-0.017-0.11-0.03-0.056-0.014-0.055-0.013-0.112-0.022-0.056-0.01-0.057-8e-3 -0.056-8e-3 -0.057-7e-3 -0.056-5e-3 -0.057-5e-3 -0.057-4e-3 -0.056-2e-3 -0.057-2e-3 -0.057-1e-3 -0.057 1e-3z"/><path d="m3.875 3e-3 0.129 9e-3 0.128 0.016 0.126 0.022 0.125 0.028 0.123 0.034 0.121 0.041 0.119 0.045 0.117 0.052 0.114 0.057 0.111 0.063 0.108 0.069 0.105 0.073 0.102 0.08 0.098 0.084 0.075 0.072 4.422 4.421-0.025 0.253-6.728 4.485-0.27-0.084-2.19-5.476-0.03-0.078-0.032-0.093-0.03-0.093-0.026-0.094-0.023-0.095-0.021-0.095-0.017-0.096-0.014-0.095-0.012-0.096-9e-3 -0.097-5e-3 -0.096-3e-3 -0.096v-0.096l3e-3 -0.096 6e-3 -0.096 9e-3 -0.096 0.012-0.095 0.014-0.095 0.018-0.094 0.02-0.094 0.023-0.094 0.026-0.092 0.029-0.093 0.032-0.091 0.034-0.09 0.038-0.09 0.04-0.088 0.043-0.088 0.046-0.086 0.048-0.086 0.052-0.084 0.053-0.082 0.057-0.081 0.059-0.078 0.061-0.077 0.063-0.075 0.065-0.072 0.068-0.07 0.069-0.068 0.071-0.066 0.073-0.063 0.075-0.061 0.076-0.059 0.079-0.056 0.079-0.054 0.082-0.051 0.082-0.049 0.084-0.046 0.086-0.044 0.087-0.041 0.088-0.039 0.089-0.035 0.09-0.034 0.092-0.03 0.092-0.028 0.093-0.025 0.095-0.022 0.095-0.019 0.096-0.017 0.096-0.013 0.097-0.011 0.098-7e-3 0.098-5e-3 0.083-1e-3h0.043l0.105 3e-3z"/></g><g id="emoji"><path d="m5.201 3.866c1.704-1.136 3.915-1.168 5.652-0.083 1.447 0.904 3.112 1.945 4.147 2.592 0.665 0.415 1.374 0.754 2.115 1.01 1.12 0.387 2.966 1.024 4.984 1.721 2.604 0.899 4.734 2.81 5.91 5.301 1.175 2.492 1.296 5.352 0.334 7.933-0.069 0.187-0.139 0.375-0.209 0.563-1.038 2.785-3.236 4.981-6.021 6.016-2.786 1.035-5.885 0.807-8.489-0.626-0.807-0.444-1.611-0.886-2.391-1.315-4.539-2.496-7.592-7.031-8.197-12.176-0.236-2.002-0.474-4.027-0.663-5.629-0.229-1.947 0.654-3.858 2.285-4.945 0.18-0.12 0.362-0.241 0.543-0.362z" fill="#8434b2"/><clipPath id="_clip1"><path d="m5.201 3.866c1.704-1.136 3.915-1.168 5.652-0.083 1.447 0.904 3.112 1.945 4.147 2.592 0.665 0.415 1.374 0.754 2.115 1.01 1.12 0.387 2.966 1.024 4.984 1.721 2.604 0.899 4.734 2.81 5.91 5.301 1.175 2.492 1.296 5.352 0.334 7.933-0.069 0.187-0.139 0.375-0.209 0.563-1.038 2.785-3.236 4.981-6.021 6.016-2.786 1.035-5.885 0.807-8.489-0.626-0.807-0.444-1.611-0.886-2.391-1.315-4.539-2.496-7.592-7.031-8.197-12.176-0.236-2.002-0.474-4.027-0.663-5.629-0.229-1.947 0.654-3.858 2.285-4.945 0.18-0.12 0.362-0.241 0.543-0.362z"/></clipPath><g clip-path="url(#_clip1)"><path d="m3 14 2-4 4 1 1-4 4 1v-3l-5-4h-8v13h2z" fill="#219555"/><path d="m12 13h-3v3.5c0 0.398 0.158 0.779 0.439 1.061 0.282 0.281 0.663 0.439 1.061 0.439s0.779-0.158 1.061-0.439c0.281-0.282 0.439-0.663 0.439-1.061v-3.5z"/><path d="m23 13.498c0-0.397-0.158-0.778-0.439-1.059s-0.662-0.439-1.059-0.439h-4e-3c-0.397 0-0.778 0.158-1.059 0.439s-0.439 0.662-0.439 1.059v3.004c0 0.397 0.158 0.778 0.439 1.059s0.662 0.439 1.059 0.439h4e-3c0.397 0 0.778-0.158 1.059-0.439s0.439-0.662 0.439-1.059v-3.004z"/><path d="m12.551 21.866 0.033 0.064 0.032 0.061 0.033 0.059 0.034 0.059 0.035 0.058 0.036 0.057 0.037 0.056 0.038 0.056 0.038 0.055 0.04 0.054 0.04 0.053 0.041 0.053 0.042 0.052 0.043 0.051 0.044 0.05 0.09 0.098 0.046 0.047 0.047 0.047 0.047 0.046 0.049 0.045 0.049 0.044 0.05 0.044 0.05 0.042 0.052 0.042 0.052 0.041 0.052 0.039 0.053 0.039 0.054 0.038 0.055 0.037 0.055 0.036 0.112 0.07 0.057 0.033 0.058 0.032 0.058 0.031 0.058 0.03 0.059 0.03 0.06 0.028 0.06 0.027 0.122 0.052 0.061 0.024 0.062 0.023 0.063 0.022 0.062 0.021 0.064 0.02 0.063 0.019 0.064 0.018 0.13 0.032 0.13 0.028 0.066 0.012 0.066 0.011 0.066 0.01 0.067 9e-3 0.134 0.014 0.068 5e-3 0.067 5e-3 0.068 3e-3 0.069 1e-3 0.068 1e-3 0.068-1e-3 0.069-1e-3 0.068-3e-3 0.067-5e-3 0.068-5e-3 0.134-0.014 0.067-9e-3 0.066-0.01 0.066-0.011 0.066-0.012 0.13-0.028 0.13-0.032 0.064-0.018 0.063-0.019 0.064-0.02 0.062-0.021 0.063-0.022 0.062-0.023 0.061-0.024 0.122-0.052 0.06-0.027 0.06-0.028 0.059-0.03 0.058-0.03 0.058-0.031 0.058-0.032 0.057-0.033 0.112-0.07 0.055-0.036 0.055-0.037 0.054-0.038 0.053-0.039 0.052-0.039 0.052-0.041 0.052-0.042 0.05-0.042 0.05-0.044 0.049-0.044 0.049-0.045 0.047-0.046 0.047-0.047 0.046-0.047 0.046-0.049 0.044-0.049 0.044-0.05 0.043-0.051 0.042-0.052 0.041-0.053 0.04-0.053 0.04-0.054 0.038-0.055 0.038-0.056 0.037-0.056 0.036-0.057 0.035-0.058 0.034-0.059 0.033-0.059 0.032-0.061 0.033-0.064 0.933-1.866h1.618l0.068 2e-3 0.068 7e-3 0.067 0.012 0.067 0.016 0.065 0.021 0.063 0.025 0.062 0.029 0.06 0.034 0.057 0.037 0.054 0.041 0.052 0.045 0.048 0.048 0.045 0.052 0.041 0.054 0.037 0.057 0.034 0.06 0.029 0.062 0.025 0.063 0.021 0.065 0.016 0.067 0.012 0.067 7e-3 0.068 2e-3 0.068-2e-3 0.068-7e-3 0.068-0.012 0.067-0.016 0.067-0.021 0.065-0.025 0.063-0.029 0.062-0.034 0.06-0.037 0.057-0.041 0.054-0.045 0.052-0.048 0.048-0.052 0.045-0.054 0.041-0.057 0.037-0.06 0.034-0.062 0.029-0.063 0.025-0.065 0.021-0.067 0.016-0.067 0.012-0.068 7e-3 -0.068 2e-3h-0.382l-0.384 0.768-0.045 0.088-0.049 0.092-0.05 0.09-0.052 0.089-0.053 0.088-0.054 0.087-0.056 0.086-0.116 0.168-0.06 0.082-0.062 0.081-0.062 0.08-0.064 0.079-0.065 0.077-0.067 0.076-0.068 0.075-0.069 0.074-0.07 0.072-0.071 0.072-0.072 0.069-0.074 0.069-0.074 0.067-0.076 0.066-0.077 0.065-0.078 0.063-0.158 0.122-0.081 0.059-0.082 0.057-0.083 0.057-0.168 0.108-0.086 0.052-0.086 0.05-0.088 0.049-0.088 0.047-0.089 0.046-0.089 0.045-0.091 0.043-0.091 0.041-0.092 0.04-0.093 0.038-0.093 0.037-0.095 0.035-0.094 0.033-0.096 0.032-0.096 0.031-0.097 0.028-0.097 0.027-0.098 0.026-0.098 0.023-0.099 0.022-0.1 0.021-0.1 0.018-0.1 0.017-0.101 0.015-0.102 0.014-0.101 0.011-0.102 0.01-0.103 8e-3 -0.103 7e-3 -0.103 4e-3 -0.103 3e-3 -0.1 1e-3h-8e-3l-0.1-1e-3 -0.103-3e-3 -0.103-4e-3 -0.103-7e-3 -0.103-8e-3 -0.102-0.01-0.101-0.011-0.102-0.014-0.101-0.015-0.1-0.017-0.1-0.018-0.1-0.021-0.099-0.022-0.098-0.023-0.098-0.026-0.097-0.027-0.097-0.028-0.096-0.031-0.096-0.032-0.094-0.033-0.095-0.035-0.093-0.037-0.093-0.038-0.092-0.04-0.091-0.041-0.091-0.043-0.089-0.045-0.089-0.046-0.088-0.047-0.088-0.049-0.086-0.05-0.086-0.052-0.168-0.108-0.083-0.057-0.082-0.057-0.081-0.059-0.158-0.122-0.078-0.063-0.077-0.065-0.076-0.066-0.074-0.067-0.074-0.069-0.072-0.069-0.071-0.072-0.07-0.072-0.069-0.074-0.068-0.075-0.066-0.076-0.066-0.077-0.064-0.079-0.062-0.08-0.062-0.081-0.06-0.082-0.116-0.168-0.056-0.086-0.054-0.087-0.053-0.088-0.052-0.089-0.05-0.09-0.049-0.092-0.045-0.088-0.384-0.768h-0.382l-0.068-2e-3 -0.068-7e-3 -0.067-0.012-0.067-0.016-0.065-0.021-0.063-0.025-0.062-0.029-0.06-0.034-0.057-0.037-0.054-0.041-0.052-0.045-0.048-0.048-0.045-0.052-0.041-0.054-0.037-0.057-0.034-0.06-0.029-0.062-0.025-0.063-0.021-0.065-0.016-0.067-0.012-0.067-7e-3 -0.068-2e-3 -0.068 2e-3 -0.068 7e-3 -0.068 0.012-0.067 0.016-0.067 0.021-0.065 0.025-0.063 0.029-0.062 0.034-0.06 0.037-0.057 0.041-0.054 0.045-0.052 0.048-0.048 0.052-0.045 0.054-0.041 0.057-0.037 0.06-0.034 0.062-0.029 0.063-0.025 0.065-0.021 0.067-0.016 0.067-0.012 0.068-7e-3 0.068-2e-3h1.618l0.933 1.866z" fill="#3a1750"/><path d="m6 16v-0.586c0-0.905 0.36-1.774 1-2.414s1.509-1 2.414-1h0.937c0.43 0 0.857 0.069 1.265 0.205 0.708 0.236 1.824 0.608 2.23 0.744 0.102 0.034 0.209 0.051 0.316 0.051h1.838v1c0 0.552-0.448 1-1 1h-1.261c-0.491 0-0.98-0.06-1.456-0.179-0.492-0.123-1.163-0.291-1.771-0.443-0.963-0.241-1.983-0.064-2.809 0.486-0.811 0.541-1.703 1.136-1.703 1.136z"/><path d="m26 12v-1.586c0-0.905-0.36-1.774-1-2.414s-1.509-1-2.414-1h-0.087c-0.96 0-1.88 0.381-2.559 1.06l-1.647 1.647c-0.188 0.188-0.442 0.293-0.707 0.293h-1.586v1c0 0.552 0.448 1 1 1h0.028c1.28 0 2.526-0.415 3.55-1.183 0 0 0-1e-3 1e-3 -1e-3 1.389-1.042 3.333-0.904 4.561 0.324l0.86 0.86z"/></g><path d="m4 7s-0.768-1.921-1.353-3.382c-0.145-0.363-0.101-0.775 0.119-1.1 0.219-0.324 0.585-0.518 0.977-0.518h3e-3c0.162 0 0.319 0.065 0.434 0.18l2.82 2.82-3 2z" fill="#219555"/></g></svg>
