<?xml version="1.0" encoding="UTF-8" standalone="no"?><!DOCTYPE svg PUBLIC "-//W3C//DTD SVG 1.1//EN" "http://www.w3.org/Graphics/SVG/1.1/DTD/svg11.dtd"><svg width="100%" height="100%" viewBox="0 0 32 32" version="1.1" xmlns="http://www.w3.org/2000/svg" xmlns:xlink="http://www.w3.org/1999/xlink" xml:space="preserve" xmlns:serif="http://www.serif.com/" style="fill-rule:evenodd;clip-rule:evenodd;stroke-linejoin:round;stroke-miterlimit:1.41421;">
<metadata>
<rdf:RDF xmlns:cc="http://web.resource.org/cc/"
         xmlns:rdf="http://www.w3.org/1999/02/22-rdf-syntax-ns#"
         xmlns:dc = "http://purl.org/dc/elements/1.1/"
         >

     <rdf:Description rdf:about="">
       <dc:title>Mutant Standard S3</dc:title>
     </rdf:Description>

    <cc:work rdf:about="">
        <cc:license rdf:resource="http://creativecommons.org/licenses/by-nc-sa/4.0/"/>
        <cc:attributionName>Dzuk</cc:attributionName>
        <cc:attributionURL>http://mutant.tech/</cc:attributionURL>
    </cc:work>

</rdf:RDF>
</metadata>
<rect id="cursed_eggplant" x="0" y="0" width="32" height="32" style="fill:none;"/><g id="outline"><path d="M8.24,0.993l0.128,0.003l0.127,0.006l0.127,0.009l0.128,0.01l0.127,0.013l0.126,0.015l0.127,0.017l0.127,0.02l0.126,0.021l0.126,0.025l0.125,0.026l0.125,0.028l0.125,0.031l0.124,0.033l0.124,0.036l0.124,0.037l0.123,0.04l0.122,0.042l0.122,0.045l0.121,0.046l0.12,0.049l0.12,0.052l0.119,0.053l0.118,0.056l0.118,0.058l0.117,0.06l0.115,0.062l0.115,0.065l0.114,0.067l0.105,0.064l4.149,2.593l0.107,0.066l0.102,0.061l0.103,0.059l0.103,0.058l0.104,0.056l0.105,0.055l0.106,0.053l0.107,0.052l0.107,0.05l0.108,0.049l0.108,0.047l0.11,0.046l0.11,0.044l0.11,0.043l0.112,0.041l0.118,0.042l4.983,1.72l0.14,0.049l0.145,0.053l0.143,0.055l0.143,0.057l0.142,0.058l0.142,0.06l0.14,0.062l0.139,0.063l0.139,0.065l0.137,0.067l0.137,0.068l0.135,0.07l0.135,0.072l0.133,0.073l0.133,0.075l0.131,0.076l0.131,0.078l0.129,0.08l0.129,0.081l0.127,0.083l0.126,0.084l0.125,0.086l0.124,0.087l0.123,0.089l0.121,0.09l0.121,0.092l0.119,0.093l0.118,0.095l0.117,0.096l0.116,0.097l0.115,0.099l0.113,0.101l0.112,0.101l0.111,0.104l0.109,0.104l0.108,0.106l0.107,0.107l0.106,0.109l0.104,0.109l0.103,0.112l0.102,0.112l0.1,0.114l0.099,0.115l0.097,0.116l0.096,0.118l0.095,0.119l0.093,0.12l0.091,0.121l0.091,0.122l0.088,0.124l0.088,0.125l0.086,0.126l0.084,0.127l0.082,0.128l0.082,0.13l0.079,0.13l0.078,0.132l0.077,0.133l0.075,0.134l0.073,0.135l0.072,0.136l0.07,0.137l0.068,0.138l0.067,0.139l0.065,0.14l0.063,0.14l0.061,0.141l0.059,0.142l0.058,0.143l0.056,0.142l0.054,0.144l0.052,0.144l0.05,0.144l0.048,0.145l0.046,0.146l0.045,0.146l0.043,0.146l0.041,0.147l0.039,0.147l0.037,0.147l0.035,0.148l0.034,0.148l0.031,0.149l0.03,0.149l0.028,0.149l0.026,0.149l0.024,0.15l0.022,0.15l0.02,0.15l0.019,0.15l0.017,0.151l0.014,0.151l0.013,0.15l0.011,0.151l0.01,0.151l0.007,0.152l0.005,0.151l0.004,0.151l0.002,0.151l-0.001,0.152l-0.002,0.151l-0.004,0.152l-0.005,0.151l-0.008,0.151l-0.01,0.152l-0.011,0.151l-0.013,0.151l-0.016,0.151l-0.017,0.151l-0.019,0.15l-0.02,0.151l-0.023,0.15l-0.025,0.15l-0.026,0.15l-0.029,0.15l-0.03,0.149l-0.032,0.149l-0.034,0.149l-0.036,0.149l-0.038,0.148l-0.039,0.148l-0.042,0.147l-0.044,0.147l-0.045,0.147l-0.047,0.146l-0.049,0.146l-0.051,0.145l-0.051,0.139l-0.215,0.576l-0.056,0.149l-0.061,0.155l-0.064,0.153l-0.065,0.152l-0.067,0.152l-0.069,0.15l-0.071,0.149l-0.073,0.148l-0.075,0.146l-0.077,0.146l-0.078,0.145l-0.081,0.143l-0.082,0.142l-0.084,0.14l-0.086,0.14l-0.088,0.138l-0.089,0.137l-0.092,0.136l-0.093,0.134l-0.095,0.133l-0.096,0.132l-0.098,0.13l-0.1,0.129l-0.102,0.127l-0.103,0.126l-0.105,0.125l-0.106,0.123l-0.109,0.122l-0.109,0.12l-0.111,0.119l-0.113,0.118l-0.115,0.115l-0.116,0.115l-0.117,0.112l-0.119,0.112l-0.12,0.109l-0.122,0.108l-0.124,0.107l-0.124,0.104l-0.126,0.103l-0.128,0.102l-0.129,0.1l-0.13,0.098l-0.132,0.096l-0.133,0.095l-0.135,0.093l-0.135,0.091l-0.137,0.089l-0.139,0.088l-0.139,0.086l-0.141,0.084l-0.142,0.082l-0.143,0.08l-0.145,0.079l-0.146,0.077l-0.146,0.074l-0.148,0.073l-0.149,0.071l-0.151,0.069l-0.151,0.067l-0.152,0.065l-0.154,0.063l-0.154,0.061l-0.156,0.059l-0.156,0.057l-0.157,0.054l-0.158,0.053l-0.158,0.05l-0.158,0.048l-0.159,0.046l-0.159,0.044l-0.16,0.041l-0.16,0.039l-0.16,0.038l-0.161,0.034l-0.161,0.033l-0.161,0.031l-0.161,0.028l-0.162,0.026l-0.162,0.024l-0.162,0.022l-0.163,0.019l-0.162,0.017l-0.163,0.016l-0.162,0.013l-0.163,0.01l-0.163,0.009l-0.163,0.006l-0.163,0.005l-0.163,0.002l-0.163,0l-0.162,-0.002l-0.163,-0.005l-0.163,-0.006l-0.162,-0.009l-0.163,-0.011l-0.162,-0.013l-0.162,-0.015l-0.162,-0.018l-0.162,-0.019l-0.161,-0.022l-0.161,-0.024l-0.161,-0.026l-0.16,-0.028l-0.161,-0.03l-0.159,-0.032l-0.16,-0.035l-0.159,-0.037l-0.159,-0.038l-0.158,-0.041l-0.158,-0.044l-0.157,-0.045l-0.156,-0.047l-0.157,-0.05l-0.155,-0.051l-0.155,-0.054l-0.155,-0.056l-0.154,-0.058l-0.153,-0.06l-0.152,-0.063l-0.152,-0.064l-0.151,-0.067l-0.151,-0.068l-0.149,-0.071l-0.149,-0.073l-0.148,-0.075l-0.147,-0.077l-0.141,-0.076l-2.4,-1.32l-0.116,-0.065l-0.119,-0.067l-0.118,-0.068l-0.118,-0.068l-0.117,-0.07l-0.116,-0.07l-0.115,-0.071l-0.115,-0.072l-0.115,-0.073l-0.113,-0.074l-0.113,-0.074l-0.113,-0.075l-0.112,-0.076l-0.111,-0.077l-0.11,-0.077l-0.11,-0.079l-0.109,-0.079l-0.109,-0.08l-0.107,-0.08l-0.107,-0.081l-0.107,-0.083l-0.106,-0.082l-0.105,-0.084l-0.104,-0.084l-0.104,-0.085l-0.103,-0.086l-0.102,-0.086l-0.102,-0.088l-0.101,-0.087l-0.1,-0.089l-0.1,-0.089l-0.099,-0.09l-0.098,-0.091l-0.097,-0.091l-0.097,-0.092l-0.096,-0.093l-0.095,-0.093l-0.095,-0.095l-0.093,-0.094l-0.094,-0.096l-0.092,-0.096l-0.091,-0.096l-0.091,-0.098l-0.09,-0.098l-0.09,-0.098l-0.088,-0.1l-0.088,-0.099l-0.087,-0.101l-0.087,-0.101l-0.085,-0.102l-0.085,-0.102l-0.084,-0.103l-0.083,-0.104l-0.083,-0.104l-0.081,-0.105l-0.081,-0.105l-0.08,-0.106l-0.08,-0.106l-0.078,-0.107l-0.078,-0.108l-0.077,-0.108l-0.076,-0.109l-0.075,-0.109l-0.075,-0.11l-0.074,-0.11l-0.073,-0.111l-0.072,-0.112l-0.071,-0.112l-0.071,-0.112l-0.069,-0.113l-0.069,-0.114l-0.068,-0.114l-0.067,-0.115l-0.066,-0.115l-0.066,-0.115l-0.064,-0.116l-0.064,-0.117l-0.063,-0.117l-0.062,-0.118l-0.061,-0.118l-0.061,-0.118l-0.059,-0.119l-0.059,-0.12l-0.058,-0.119l-0.057,-0.121l-0.056,-0.121l-0.055,-0.121l-0.054,-0.121l-0.053,-0.123l-0.053,-0.122l-0.051,-0.123l-0.051,-0.123l-0.05,-0.124l-0.049,-0.125l-0.048,-0.124l-0.047,-0.125l-0.046,-0.126l-0.045,-0.125l-0.045,-0.127l-0.043,-0.126l-0.043,-0.127l-0.041,-0.128l-0.041,-0.127l-0.04,-0.129l-0.038,-0.128l-0.038,-0.129l-0.037,-0.129l-0.036,-0.129l-0.035,-0.13l-0.034,-0.13l-0.033,-0.131l-0.033,-0.131l-0.031,-0.131l-0.03,-0.132l-0.029,-0.131l-0.029,-0.133l-0.027,-0.132l-0.026,-0.133l-0.026,-0.133l-0.024,-0.133l-0.024,-0.134l-0.022,-0.133l-0.021,-0.135l-0.021,-0.134l-0.019,-0.135l-0.019,-0.135l-0.017,-0.135l-0.016,-0.131l-0.664,-5.642l-0.013,-0.118l-0.011,-0.126l-0.01,-0.125l-0.007,-0.126l-0.004,-0.126l-0.003,-0.126l-0.001,-0.125l0.002,-0.125l0.004,-0.125l0.006,-0.124l0.008,-0.124l0.011,-0.124l0.012,-0.124l0.015,-0.123l0.016,-0.123l0.019,-0.122l0.021,-0.122l0.022,-0.121l0.025,-0.12l0.027,-0.121l0.029,-0.119l0.031,-0.119l0.033,-0.118l0.035,-0.118l0.037,-0.117l0.039,-0.116l0.041,-0.116l0.042,-0.115l0.045,-0.114l0.047,-0.113l0.048,-0.112l0.051,-0.112l0.052,-0.111l0.054,-0.109l0.056,-0.109l0.058,-0.108l0.06,-0.107l0.061,-0.106l0.064,-0.105l0.065,-0.104l0.067,-0.103l0.068,-0.102l0.071,-0.1l0.072,-0.1l0.074,-0.098l0.076,-0.097l0.078,-0.096l0.079,-0.095l0.081,-0.093l0.082,-0.093l0.085,-0.09l0.086,-0.09l0.087,-0.088l0.09,-0.087l0.091,-0.085l0.092,-0.084l0.094,-0.082l0.096,-0.081l0.097,-0.08l0.099,-0.077l0.1,-0.076l0.102,-0.075l0.104,-0.073l0.097,-0.066l0.558,-0.372l0.103,-0.067l0.112,-0.071l0.113,-0.068l0.114,-0.065l0.115,-0.064l0.115,-0.061l0.117,-0.06l0.117,-0.057l0.119,-0.054l0.118,-0.053l0.12,-0.05l0.121,-0.048l0.121,-0.046l0.121,-0.043l0.123,-0.041l0.122,-0.039l0.124,-0.037l0.124,-0.035l0.124,-0.032l0.125,-0.03l0.125,-0.027l0.125,-0.026l0.126,-0.023l0.126,-0.021l0.126,-0.019l0.127,-0.016l0.127,-0.015l0.127,-0.012l0.127,-0.009l0.127,-0.008l0.128,-0.005l0.127,-0.003l0.128,-0.001l0.127,0.002Zm-0.196,3.999l-0.057,0.001l-0.057,0.002l-0.056,0.004l-0.057,0.004l-0.057,0.005l-0.056,0.007l-0.057,0.007l-0.056,0.008l-0.056,0.01l-0.056,0.01l-0.056,0.011l-0.056,0.013l-0.055,0.013l-0.056,0.014l-0.055,0.016l-0.054,0.016l-0.055,0.017l-0.054,0.019l-0.054,0.019l-0.054,0.02l-0.054,0.022l-0.053,0.022l-0.053,0.023l-0.052,0.025l-0.053,0.025l-0.051,0.026l-0.052,0.028l-0.051,0.028l-0.051,0.029l-0.05,0.031l-0.05,0.031l-0.058,0.037l-0.527,0.352l-0.054,0.037l-0.047,0.033l-0.045,0.033l-0.045,0.034l-0.044,0.034l-0.043,0.036l-0.043,0.036l-0.042,0.036l-0.041,0.038l-0.04,0.038l-0.04,0.038l-0.039,0.039l-0.038,0.04l-0.037,0.04l-0.037,0.041l-0.036,0.042l-0.035,0.042l-0.035,0.043l-0.034,0.043l-0.033,0.044l-0.032,0.044l-0.031,0.045l-0.031,0.045l-0.03,0.046l-0.029,0.046l-0.028,0.047l-0.027,0.047l-0.027,0.048l-0.026,0.048l-0.025,0.049l-0.024,0.049l-0.023,0.049l-0.023,0.05l-0.021,0.05l-0.021,0.05l-0.02,0.051l-0.019,0.051l-0.018,0.052l-0.018,0.052l-0.016,0.052l-0.016,0.052l-0.014,0.053l-0.014,0.053l-0.013,0.053l-0.012,0.054l-0.011,0.053l-0.01,0.054l-0.009,0.054l-0.009,0.055l-0.007,0.054l-0.006,0.055l-0.006,0.055l-0.005,0.055l-0.003,0.055l-0.003,0.055l-0.002,0.056l0,0.055l0,0.056l0.001,0.056l0.002,0.056l0.003,0.056l0.004,0.056l0.006,0.057l0.007,0.065l0.66,5.617l0.014,0.109l0.013,0.105l0.015,0.105l0.015,0.105l0.016,0.105l0.016,0.104l0.018,0.104l0.018,0.104l0.019,0.104l0.02,0.103l0.02,0.104l0.022,0.103l0.022,0.103l0.022,0.102l0.024,0.103l0.024,0.102l0.025,0.101l0.026,0.102l0.027,0.101l0.027,0.101l0.028,0.101l0.029,0.101l0.029,0.1l0.03,0.1l0.031,0.099l0.032,0.1l0.032,0.099l0.033,0.099l0.034,0.098l0.035,0.098l0.035,0.098l0.036,0.098l0.036,0.097l0.038,0.097l0.038,0.097l0.038,0.096l0.04,0.096l0.04,0.096l0.041,0.095l0.041,0.095l0.043,0.095l0.043,0.094l0.043,0.094l0.044,0.094l0.045,0.093l0.046,0.093l0.046,0.093l0.047,0.092l0.048,0.092l0.048,0.091l0.049,0.091l0.05,0.091l0.05,0.09l0.051,0.09l0.052,0.09l0.052,0.089l0.053,0.089l0.053,0.088l0.055,0.088l0.054,0.088l0.056,0.087l0.056,0.087l0.057,0.086l0.057,0.086l0.058,0.086l0.059,0.085l0.059,0.084l0.06,0.085l0.06,0.083l0.062,0.084l0.061,0.083l0.063,0.082l0.063,0.082l0.063,0.081l0.064,0.081l0.065,0.081l0.066,0.08l0.066,0.08l0.066,0.079l0.067,0.079l0.068,0.078l0.069,0.078l0.069,0.077l0.069,0.077l0.07,0.076l0.071,0.076l0.071,0.075l0.072,0.075l0.072,0.074l0.073,0.074l0.074,0.073l0.074,0.072l0.075,0.073l0.075,0.071l0.076,0.071l0.076,0.071l0.077,0.07l0.077,0.069l0.078,0.069l0.079,0.069l0.079,0.067l0.08,0.068l0.08,0.066l0.081,0.067l0.081,0.065l0.082,0.065l0.082,0.065l0.083,0.063l0.083,0.064l0.084,0.062l0.084,0.062l0.085,0.062l0.086,0.061l0.086,0.06l0.086,0.06l0.087,0.059l0.087,0.058l0.088,0.058l0.089,0.058l0.089,0.056l0.089,0.056l0.09,0.056l0.091,0.054l0.091,0.054l0.091,0.054l0.092,0.053l0.093,0.052l0.096,0.053l2.382,1.311l0.105,0.056l0.099,0.052l0.099,0.051l0.101,0.049l0.1,0.047l0.101,0.046l0.102,0.045l0.102,0.043l0.103,0.042l0.103,0.041l0.103,0.039l0.104,0.038l0.104,0.036l0.105,0.034l0.105,0.034l0.106,0.032l0.105,0.03l0.106,0.029l0.107,0.028l0.107,0.026l0.107,0.024l0.107,0.024l0.107,0.022l0.108,0.02l0.108,0.019l0.108,0.017l0.109,0.016l0.108,0.015l0.109,0.013l0.109,0.012l0.109,0.01l0.109,0.009l0.11,0.007l0.109,0.006l0.109,0.004l0.11,0.003l0.109,0.002l0.11,0l0.11,-0.002l0.109,-0.002l0.11,-0.005l0.109,-0.006l0.11,-0.007l0.109,-0.009l0.11,-0.01l0.109,-0.011l0.109,-0.014l0.109,-0.014l0.109,-0.016l0.109,-0.018l0.109,-0.019l0.108,-0.02l0.109,-0.022l0.108,-0.024l0.107,-0.025l0.108,-0.026l0.107,-0.028l0.108,-0.029l0.106,-0.031l0.107,-0.033l0.106,-0.033l0.106,-0.036l0.106,-0.036l0.105,-0.039l0.105,-0.04l0.104,-0.041l0.103,-0.042l0.103,-0.044l0.102,-0.045l0.101,-0.046l0.1,-0.048l0.099,-0.049l0.099,-0.05l0.098,-0.052l0.097,-0.052l0.097,-0.055l0.095,-0.055l0.095,-0.056l0.094,-0.058l0.093,-0.059l0.092,-0.06l0.091,-0.062l0.091,-0.062l0.089,-0.064l0.089,-0.065l0.088,-0.066l0.086,-0.067l0.086,-0.068l0.085,-0.069l0.084,-0.071l0.083,-0.071l0.082,-0.073l0.081,-0.074l0.08,-0.075l0.079,-0.075l0.078,-0.077l0.077,-0.078l0.076,-0.079l0.075,-0.08l0.074,-0.081l0.072,-0.082l0.072,-0.083l0.071,-0.084l0.069,-0.085l0.068,-0.086l0.068,-0.086l0.066,-0.088l0.065,-0.088l0.063,-0.09l0.063,-0.09l0.061,-0.092l0.061,-0.092l0.059,-0.093l0.058,-0.093l0.056,-0.095l0.056,-0.096l0.054,-0.096l0.053,-0.097l0.051,-0.098l0.051,-0.099l0.049,-0.099l0.047,-0.1l0.047,-0.101l0.045,-0.102l0.044,-0.103l0.042,-0.103l0.042,-0.104l0.042,-0.111l0.205,-0.551l0.038,-0.104l0.034,-0.098l0.033,-0.098l0.032,-0.098l0.031,-0.099l0.029,-0.099l0.028,-0.099l0.027,-0.099l0.025,-0.1l0.024,-0.1l0.023,-0.1l0.022,-0.1l0.02,-0.101l0.019,-0.101l0.018,-0.1l0.017,-0.101l0.015,-0.101l0.014,-0.102l0.013,-0.101l0.011,-0.102l0.01,-0.101l0.009,-0.102l0.008,-0.102l0.006,-0.101l0.006,-0.102l0.003,-0.102l0.003,-0.102l0.001,-0.102l0.001,-0.101l-0.002,-0.102l-0.002,-0.102l-0.004,-0.102l-0.005,-0.102l-0.006,-0.101l-0.007,-0.102l-0.009,-0.101l-0.01,-0.102l-0.011,-0.101l-0.013,-0.101l-0.013,-0.101l-0.015,-0.101l-0.016,-0.101l-0.018,-0.1l-0.019,-0.101l-0.02,-0.1l-0.021,-0.1l-0.022,-0.099l-0.024,-0.1l-0.025,-0.099l-0.026,-0.099l-0.028,-0.099l-0.029,-0.098l-0.03,-0.098l-0.031,-0.098l-0.032,-0.098l-0.034,-0.097l-0.035,-0.097l-0.036,-0.096l-0.038,-0.096l-0.038,-0.096l-0.04,-0.095l-0.042,-0.095l-0.042,-0.095l-0.044,-0.094l-0.045,-0.094l-0.046,-0.093l-0.047,-0.092l-0.048,-0.091l-0.049,-0.091l-0.051,-0.09l-0.051,-0.09l-0.053,-0.088l-0.053,-0.088l-0.055,-0.087l-0.056,-0.086l-0.056,-0.086l-0.058,-0.085l-0.059,-0.084l-0.059,-0.083l-0.061,-0.082l-0.062,-0.082l-0.062,-0.081l-0.064,-0.079l-0.065,-0.08l-0.065,-0.078l-0.067,-0.077l-0.067,-0.077l-0.068,-0.075l-0.07,-0.075l-0.07,-0.074l-0.071,-0.073l-0.072,-0.072l-0.073,-0.072l-0.073,-0.07l-0.075,-0.069l-0.075,-0.069l-0.076,-0.067l-0.077,-0.067l-0.078,-0.066l-0.079,-0.064l-0.079,-0.064l-0.081,-0.063l-0.081,-0.061l-0.082,-0.061l-0.082,-0.06l-0.084,-0.059l-0.084,-0.057l-0.085,-0.057l-0.085,-0.056l-0.087,-0.054l-0.087,-0.054l-0.088,-0.052l-0.088,-0.052l-0.089,-0.05l-0.09,-0.049l-0.09,-0.048l-0.092,-0.048l-0.092,-0.046l-0.092,-0.044l-0.093,-0.044l-0.094,-0.043l-0.094,-0.041l-0.095,-0.041l-0.096,-0.039l-0.096,-0.038l-0.097,-0.037l-0.097,-0.035l-0.104,-0.037l-4.985,-1.721l-0.158,-0.056l-0.165,-0.061l-0.163,-0.063l-0.162,-0.065l-0.162,-0.067l-0.16,-0.07l-0.16,-0.072l-0.158,-0.074l-0.157,-0.077l-0.157,-0.079l-0.155,-0.081l-0.154,-0.083l-0.153,-0.085l-0.151,-0.088l-0.151,-0.089l-0.143,-0.088l-4.145,-2.591l-0.058,-0.036l-0.051,-0.03l-0.052,-0.028l-0.051,-0.028l-0.052,-0.027l-0.053,-0.026l-0.052,-0.025l-0.053,-0.024l-0.053,-0.022l-0.054,-0.022l-0.054,-0.021l-0.054,-0.019l-0.054,-0.019l-0.055,-0.018l-0.055,-0.017l-0.055,-0.015l-0.055,-0.015l-0.056,-0.014l-0.055,-0.013l-0.056,-0.011l-0.056,-0.011l-0.056,-0.01l-0.057,-0.008l-0.056,-0.008l-0.057,-0.007l-0.056,-0.005l-0.057,-0.005l-0.057,-0.004l-0.056,-0.002l-0.057,-0.002l-0.057,-0.001l-0.057,0.001Z"/><path d="M3.875,0.003l0.129,0.009l0.128,0.016l0.126,0.022l0.125,0.028l0.123,0.034l0.121,0.041l0.119,0.045l0.117,0.052l0.114,0.057l0.111,0.063l0.108,0.069l0.105,0.073l0.102,0.08l0.098,0.084l0.075,0.072l4.422,4.421l-0.025,0.253l-6.728,4.485l-0.27,-0.084l-2.19,-5.476l-0.03,-0.078l-0.032,-0.093l-0.03,-0.093l-0.026,-0.094l-0.023,-0.095l-0.021,-0.095l-0.017,-0.096l-0.014,-0.095l-0.012,-0.096l-0.009,-0.097l-0.005,-0.096l-0.003,-0.096l0,-0.096l0.003,-0.096l0.006,-0.096l0.009,-0.096l0.012,-0.095l0.014,-0.095l0.018,-0.094l0.02,-0.094l0.023,-0.094l0.026,-0.092l0.029,-0.093l0.032,-0.091l0.034,-0.09l0.038,-0.09l0.04,-0.088l0.043,-0.088l0.046,-0.086l0.048,-0.086l0.052,-0.084l0.053,-0.082l0.057,-0.081l0.059,-0.078l0.061,-0.077l0.063,-0.075l0.065,-0.072l0.068,-0.07l0.069,-0.068l0.071,-0.066l0.073,-0.063l0.075,-0.061l0.076,-0.059l0.079,-0.056l0.079,-0.054l0.082,-0.051l0.082,-0.049l0.084,-0.046l0.086,-0.044l0.087,-0.041l0.088,-0.039l0.089,-0.035l0.09,-0.034l0.092,-0.03l0.092,-0.028l0.093,-0.025l0.095,-0.022l0.095,-0.019l0.096,-0.017l0.096,-0.013l0.097,-0.011l0.098,-0.007l0.098,-0.005l0.083,-0.001l0.043,0l0.105,0.003Z"/></g><g id="emoji"><path d="M5.201,3.866c1.704,-1.136 3.915,-1.168 5.652,-0.083c1.447,0.904 3.112,1.945 4.147,2.592c0.665,0.415 1.374,0.754 2.115,1.01c1.12,0.387 2.966,1.024 4.984,1.721c2.604,0.899 4.734,2.81 5.91,5.301c1.175,2.492 1.296,5.352 0.334,7.933c-0.069,0.187 -0.139,0.375 -0.209,0.563c-1.038,2.785 -3.236,4.981 -6.021,6.016c-2.786,1.035 -5.885,0.807 -8.489,-0.626c-0.807,-0.444 -1.611,-0.886 -2.391,-1.315c-4.539,-2.496 -7.592,-7.031 -8.197,-12.176c-0.236,-2.002 -0.474,-4.027 -0.663,-5.629c-0.229,-1.947 0.654,-3.858 2.285,-4.945c0.18,-0.12 0.362,-0.241 0.543,-0.362Z" style="fill:#8434b2;"/><clipPath id="_clip1"><path d="M5.201,3.866c1.704,-1.136 3.915,-1.168 5.652,-0.083c1.447,0.904 3.112,1.945 4.147,2.592c0.665,0.415 1.374,0.754 2.115,1.01c1.12,0.387 2.966,1.024 4.984,1.721c2.604,0.899 4.734,2.81 5.91,5.301c1.175,2.492 1.296,5.352 0.334,7.933c-0.069,0.187 -0.139,0.375 -0.209,0.563c-1.038,2.785 -3.236,4.981 -6.021,6.016c-2.786,1.035 -5.885,0.807 -8.489,-0.626c-0.807,-0.444 -1.611,-0.886 -2.391,-1.315c-4.539,-2.496 -7.592,-7.031 -8.197,-12.176c-0.236,-2.002 -0.474,-4.027 -0.663,-5.629c-0.229,-1.947 0.654,-3.858 2.285,-4.945c0.18,-0.12 0.362,-0.241 0.543,-0.362Z"/></clipPath><g clip-path="url(#_clip1)"><path d="M3,14l2,-4l4,1l1,-4l4,1l0,-3l-5,-4l-8,0l0,13l2,0Z" style="fill:#219555;"/><path d="M12,13l-3,0c0,0 0,2.027 0,3.5c0,0.398 0.158,0.779 0.439,1.061c0.282,0.281 0.663,0.439 1.061,0.439c0.398,0 0.779,-0.158 1.061,-0.439c0.281,-0.282 0.439,-0.663 0.439,-1.061c0,-1.473 0,-3.5 0,-3.5Z"/><path d="M23,13.498c0,-0.397 -0.158,-0.778 -0.439,-1.059c-0.281,-0.281 -0.662,-0.439 -1.059,-0.439c-0.001,0 -0.003,0 -0.004,0c-0.397,0 -0.778,0.158 -1.059,0.439c-0.281,0.281 -0.439,0.662 -0.439,1.059c0,0.917 0,2.087 0,3.004c0,0.397 0.158,0.778 0.439,1.059c0.281,0.281 0.662,0.439 1.059,0.439c0.001,0 0.003,0 0.004,0c0.397,0 0.778,-0.158 1.059,-0.439c0.281,-0.281 0.439,-0.662 0.439,-1.059c0,-0.917 0,-2.087 0,-3.004Z"/><path d="M12.551,21.866l0.033,0.064l0.032,0.061l0.033,0.059l0.034,0.059l0.035,0.058l0.036,0.057l0.037,0.056l0.038,0.056l0.038,0.055l0.04,0.054l0.04,0.053l0.041,0.053l0.042,0.052l0.043,0.051l0.044,0.05l0.045,0.049l0.045,0.049l0.046,0.047l0.047,0.047l0.047,0.046l0.049,0.045l0.049,0.044l0.05,0.044l0.05,0.042l0.052,0.042l0.052,0.041l0.052,0.039l0.053,0.039l0.054,0.038l0.055,0.037l0.055,0.036l0.056,0.035l0.056,0.035l0.057,0.033l0.058,0.032l0.058,0.031l0.058,0.03l0.059,0.03l0.06,0.028l0.06,0.027l0.061,0.026l0.061,0.026l0.061,0.024l0.062,0.023l0.063,0.022l0.062,0.021l0.064,0.02l0.063,0.019l0.064,0.018l0.065,0.016l0.065,0.016l0.065,0.014l0.065,0.014l0.066,0.012l0.066,0.011l0.066,0.01l0.067,0.009l0.067,0.007l0.067,0.007l0.068,0.005l0.067,0.005l0.068,0.003l0.069,0.001l0.068,0.001l0.068,-0.001l0.069,-0.001l0.068,-0.003l0.067,-0.005l0.068,-0.005l0.067,-0.007l0.067,-0.007l0.067,-0.009l0.066,-0.01l0.066,-0.011l0.066,-0.012l0.065,-0.014l0.065,-0.014l0.065,-0.016l0.065,-0.016l0.064,-0.018l0.063,-0.019l0.064,-0.02l0.062,-0.021l0.063,-0.022l0.062,-0.023l0.061,-0.024l0.061,-0.026l0.061,-0.026l0.06,-0.027l0.06,-0.028l0.059,-0.03l0.058,-0.03l0.058,-0.031l0.058,-0.032l0.057,-0.033l0.056,-0.035l0.056,-0.035l0.055,-0.036l0.055,-0.037l0.054,-0.038l0.053,-0.039l0.052,-0.039l0.052,-0.041l0.052,-0.042l0.05,-0.042l0.05,-0.044l0.049,-0.044l0.049,-0.045l0.047,-0.046l0.047,-0.047l0.046,-0.047l0.046,-0.049l0.044,-0.049l0.044,-0.05l0.043,-0.051l0.042,-0.052l0.041,-0.053l0.04,-0.053l0.04,-0.054l0.038,-0.055l0.038,-0.056l0.037,-0.056l0.036,-0.057l0.035,-0.058l0.034,-0.059l0.033,-0.059l0.032,-0.061l0.033,-0.064l0.933,-1.866l1.618,0l0.068,0.002l0.068,0.007l0.067,0.012l0.067,0.016l0.065,0.021l0.063,0.025l0.062,0.029l0.06,0.034l0.057,0.037l0.054,0.041l0.052,0.045l0.048,0.048l0.045,0.052l0.041,0.054l0.037,0.057l0.034,0.06l0.029,0.062l0.025,0.063l0.021,0.065l0.016,0.067l0.012,0.067l0.007,0.068l0.002,0.068l-0.002,0.068l-0.007,0.068l-0.012,0.067l-0.016,0.067l-0.021,0.065l-0.025,0.063l-0.029,0.062l-0.034,0.06l-0.037,0.057l-0.041,0.054l-0.045,0.052l-0.048,0.048l-0.052,0.045l-0.054,0.041l-0.057,0.037l-0.06,0.034l-0.062,0.029l-0.063,0.025l-0.065,0.021l-0.067,0.016l-0.067,0.012l-0.068,0.007l-0.068,0.002l-0.382,0l-0.384,0.768l-0.045,0.088l-0.049,0.092l-0.05,0.09l-0.052,0.089l-0.053,0.088l-0.054,0.087l-0.056,0.086l-0.058,0.084l-0.058,0.084l-0.06,0.082l-0.062,0.081l-0.062,0.08l-0.064,0.079l-0.065,0.077l-0.067,0.076l-0.068,0.075l-0.069,0.074l-0.07,0.072l-0.071,0.072l-0.072,0.069l-0.074,0.069l-0.074,0.067l-0.076,0.066l-0.077,0.065l-0.078,0.063l-0.079,0.061l-0.079,0.061l-0.081,0.059l-0.082,0.057l-0.083,0.057l-0.084,0.054l-0.084,0.054l-0.086,0.052l-0.086,0.05l-0.088,0.049l-0.088,0.047l-0.089,0.046l-0.089,0.045l-0.091,0.043l-0.091,0.041l-0.092,0.04l-0.093,0.038l-0.093,0.037l-0.095,0.035l-0.094,0.033l-0.096,0.032l-0.096,0.031l-0.097,0.028l-0.097,0.027l-0.098,0.026l-0.098,0.023l-0.099,0.022l-0.1,0.021l-0.1,0.018l-0.1,0.017l-0.101,0.015l-0.102,0.014l-0.101,0.011l-0.102,0.01l-0.103,0.008l-0.103,0.007l-0.103,0.004l-0.103,0.003l-0.1,0.001l-0.008,0l-0.1,-0.001l-0.103,-0.003l-0.103,-0.004l-0.103,-0.007l-0.103,-0.008l-0.102,-0.01l-0.101,-0.011l-0.102,-0.014l-0.101,-0.015l-0.1,-0.017l-0.1,-0.018l-0.1,-0.021l-0.099,-0.022l-0.098,-0.023l-0.098,-0.026l-0.097,-0.027l-0.097,-0.028l-0.096,-0.031l-0.096,-0.032l-0.094,-0.033l-0.095,-0.035l-0.093,-0.037l-0.093,-0.038l-0.092,-0.04l-0.091,-0.041l-0.091,-0.043l-0.089,-0.045l-0.089,-0.046l-0.088,-0.047l-0.088,-0.049l-0.086,-0.05l-0.086,-0.052l-0.084,-0.054l-0.084,-0.054l-0.083,-0.057l-0.082,-0.057l-0.081,-0.059l-0.079,-0.061l-0.079,-0.061l-0.078,-0.063l-0.077,-0.065l-0.076,-0.066l-0.074,-0.067l-0.074,-0.069l-0.072,-0.069l-0.071,-0.072l-0.07,-0.072l-0.069,-0.074l-0.068,-0.075l-0.066,-0.076l-0.066,-0.077l-0.064,-0.079l-0.062,-0.08l-0.062,-0.081l-0.06,-0.082l-0.058,-0.084l-0.058,-0.084l-0.056,-0.086l-0.054,-0.087l-0.053,-0.088l-0.052,-0.089l-0.05,-0.09l-0.049,-0.092l-0.045,-0.088l-0.384,-0.768l-0.382,0l-0.068,-0.002l-0.068,-0.007l-0.067,-0.012l-0.067,-0.016l-0.065,-0.021l-0.063,-0.025l-0.062,-0.029l-0.06,-0.034l-0.057,-0.037l-0.054,-0.041l-0.052,-0.045l-0.048,-0.048l-0.045,-0.052l-0.041,-0.054l-0.037,-0.057l-0.034,-0.06l-0.029,-0.062l-0.025,-0.063l-0.021,-0.065l-0.016,-0.067l-0.012,-0.067l-0.007,-0.068l-0.002,-0.068l0.002,-0.068l0.007,-0.068l0.012,-0.067l0.016,-0.067l0.021,-0.065l0.025,-0.063l0.029,-0.062l0.034,-0.06l0.037,-0.057l0.041,-0.054l0.045,-0.052l0.048,-0.048l0.052,-0.045l0.054,-0.041l0.057,-0.037l0.06,-0.034l0.062,-0.029l0.063,-0.025l0.065,-0.021l0.067,-0.016l0.067,-0.012l0.068,-0.007l0.068,-0.002l1.618,0l0.933,1.866Z" style="fill:#3a1750;"/><path d="M6,16c0,0 0,-0.257 0,-0.586c0,-0.905 0.36,-1.774 1,-2.414c0,0 0,0 0,0c0.64,-0.64 1.509,-1 2.414,-1c0.328,0 0.661,0 0.937,0c0.43,0 0.857,0.069 1.265,0.205c0.708,0.236 1.824,0.608 2.23,0.744c0.102,0.034 0.209,0.051 0.316,0.051c0.477,0 1.838,0 1.838,0c0,0 0,0.5 0,1c0,0.552 -0.448,1 -1,1c-0.412,0 -0.881,0 -1.261,0c-0.491,0 -0.98,-0.06 -1.456,-0.179c-0.492,-0.123 -1.163,-0.291 -1.771,-0.443c-0.963,-0.241 -1.983,-0.064 -2.809,0.486c-0.811,0.541 -1.703,1.136 -1.703,1.136Z"/><path d="M26,12c0,0 0,-0.808 0,-1.586c0,-0.905 -0.36,-1.774 -1,-2.414c0,0 0,0 0,0c-0.64,-0.64 -1.509,-1 -2.414,-1c-0.029,0 -0.058,0 -0.087,0c-0.96,0 -1.88,0.381 -2.559,1.06c-0.585,0.585 -1.268,1.268 -1.647,1.647c-0.188,0.188 -0.442,0.293 -0.707,0.293c-0.586,0 -1.586,0 -1.586,0c0,0 0,0.5 0,1c0,0.552 0.448,1 1,1c0.009,0 0.019,0 0.028,0c1.28,0 2.526,-0.415 3.55,-1.183c0,0 0,-0.001 0.001,-0.001c1.389,-1.042 3.333,-0.904 4.561,0.324c0.485,0.485 0.86,0.86 0.86,0.86Z"/></g><path d="M4,7c0,0 -0.768,-1.921 -1.353,-3.382c-0.145,-0.363 -0.101,-0.775 0.119,-1.1c0.219,-0.324 0.585,-0.518 0.977,-0.518c0.001,0 0.002,0 0.003,0c0.162,0 0.319,0.065 0.434,0.18c0.647,0.647 2.82,2.82 2.82,2.82l-3,2Z" style="fill:#219555;"/></g></svg>