<?xml version="1.0" encoding="UTF-8"?>
<!DOCTYPE svg  PUBLIC '-//W3C//DTD SVG 1.1//EN'  'http://www.w3.org/Graphics/SVG/1.1/DTD/svg11.dtd'>
<svg clip-rule="evenodd" fill-rule="evenodd" stroke-linecap="round" stroke-linejoin="round" stroke-miterlimit="1.5" version="1.1" viewBox="0 0 32 32" xml:space="preserve" xmlns="http://www.w3.org/2000/svg">
<metadata>
<rdf:RDF xmlns:cc="http://web.resource.org/cc/" xmlns:dc="http://purl.org/dc/elements/1.1/" xmlns:rdf="http://www.w3.org/1999/02/22-rdf-syntax-ns#">

     <rdf:Description rdf:about="">
       <dc:title>Mutant Standard S3</dc:title>
     </rdf:Description>

    <cc:work rdf:about="">
        <cc:license rdf:resource="http://creativecommons.org/licenses/by-nc-sa/4.0/"/>
        <cc:attributionName>Dzuk</cc:attributionName>
        <cc:attributionURL>http://mutant.tech/</cc:attributionURL>
    </cc:work>

</rdf:RDF>
</metadata>
<rect id="no_ice" width="32" height="32" fill="none"/><g id="outline" fill="none" stroke="#000" stroke-width="4px"><path d="m2 2h6l22 28h-6l-22-28z"/><path d="m5.106 8.447c-0.678 0.339-1.106 1.032-1.106 1.789v12.528c0 0.757 0.428 1.45 1.106 1.789l10 5c0.563 0.281 1.225 0.281 1.788 0l10-5c0.678-0.339 1.106-1.032 1.106-1.789v-12.528c0-0.757-0.428-1.45-1.106-1.789l-10-5c-0.563-0.281-1.225-0.281-1.788 0l-10 5z"/></g><g id="emoji"><path d="m5.106 8.447c-0.678 0.339-1.106 1.032-1.106 1.789v12.528c0 0.757 0.428 1.45 1.106 1.789l10 5c0.563 0.281 1.225 0.281 1.788 0l10-5c0.678-0.339 1.106-1.032 1.106-1.789v-12.528c0-0.757-0.428-1.45-1.106-1.789l-10-5c-0.563-0.281-1.225-0.281-1.788 0l-10 5z" fill="#fff"/><clipPath id="_clip1"><path d="m5.106 8.447c-0.678 0.339-1.106 1.032-1.106 1.789v12.528c0 0.757 0.428 1.45 1.106 1.789l10 5c0.563 0.281 1.225 0.281 1.788 0l10-5c0.678-0.339 1.106-1.032 1.106-1.789v-12.528c0-0.757-0.428-1.45-1.106-1.789l-10-5c-0.563-0.281-1.225-0.281-1.788 0l-10 5z"/></clipPath><g clip-path="url(#_clip1)"><path d="m11.106 12.447c-0.678 0.339-1.106 1.032-1.106 1.789v4.528c0 0.757 0.428 1.45 1.106 1.789 1.151 0.576 2.933 1.467 4 2 0.563 0.281 1.225 0.281 1.788 0 1.067-0.533 2.849-1.424 4-2 0.678-0.339 1.106-1.032 1.106-1.789v-4.528c0-0.757-0.428-1.45-1.106-1.789-1.151-0.576-2.933-1.467-4-2-0.563-0.281-1.225-0.281-1.788 0-1.067 0.533-2.849 1.424-4 2z" fill="#9cc2ff" fill-opacity=".38431"/><path d="m5.106 8.447c-0.678 0.339-1.106 1.032-1.106 1.789v12.528c0 0.757 0.428 1.45 1.106 1.789l10 5c0.563 0.281 1.225 0.281 1.788 0l10-5c0.678-0.339 1.106-1.032 1.106-1.789v-12.528c0-0.757-0.428-1.45-1.106-1.789l-10-5c-0.563-0.281-1.225-0.281-1.788 0l-10 5z" fill="none" stroke="#aac0ff" stroke-width="4px"/><path d="m4 10 12 6 12-6" fill="none" stroke="#aac0ff" stroke-width="2px"/><path d="m16 15v17" fill="none" stroke="#aac0ff" stroke-width="2px"/></g><path d="m2 2h6l22 28h-6l-22-28z" fill="#e02a33"/></g></svg>
