<?xml version="1.0" encoding="UTF-8" standalone="no"?><!DOCTYPE svg PUBLIC "-//W3C//DTD SVG 1.1//EN" "http://www.w3.org/Graphics/SVG/1.1/DTD/svg11.dtd"><svg width="100%" height="100%" viewBox="0 0 32 32" version="1.1" xmlns="http://www.w3.org/2000/svg" xmlns:xlink="http://www.w3.org/1999/xlink" xml:space="preserve" xmlns:serif="http://www.serif.com/" style="fill-rule:evenodd;clip-rule:evenodd;stroke-linecap:round;stroke-linejoin:round;stroke-miterlimit:1.5;">
<metadata>
<rdf:RDF xmlns:cc="http://web.resource.org/cc/"
         xmlns:rdf="http://www.w3.org/1999/02/22-rdf-syntax-ns#"
         xmlns:dc = "http://purl.org/dc/elements/1.1/"
         >

     <rdf:Description rdf:about="">
       <dc:title>Mutant Standard S3</dc:title>
     </rdf:Description>

    <cc:work rdf:about="">
        <cc:license rdf:resource="http://creativecommons.org/licenses/by-nc-sa/4.0/"/>
        <cc:attributionName>Dzuk</cc:attributionName>
        <cc:attributionURL>http://mutant.tech/</cc:attributionURL>
    </cc:work>

</rdf:RDF>
</metadata>
<rect id="no_ice" x="0" y="0" width="32" height="32" style="fill:none;"/><g id="outline"><path d="M2,2l6,0l22,28l-6,0l-22,-28Z" style="fill:none;stroke:#000;stroke-width:4px;"/><path d="M5.106,8.447c-0.678,0.339 -1.106,1.032 -1.106,1.789c0,2.821 0,9.707 0,12.528c0,0.757 0.428,1.45 1.106,1.789c2.358,1.179 7.842,3.921 10,5c0.563,0.281 1.225,0.281 1.788,0c2.158,-1.079 7.642,-3.821 10,-5c0.678,-0.339 1.106,-1.032 1.106,-1.789c0,-2.821 0,-9.707 0,-12.528c0,-0.757 -0.428,-1.45 -1.106,-1.789c-2.358,-1.179 -7.842,-3.921 -10,-5c-0.563,-0.281 -1.225,-0.281 -1.788,0c-2.158,1.079 -7.642,3.821 -10,5Z" style="fill:none;stroke:#000;stroke-width:4px;"/></g><g id="emoji"><path d="M5.106,8.447c-0.678,0.339 -1.106,1.032 -1.106,1.789c0,2.821 0,9.707 0,12.528c0,0.757 0.428,1.45 1.106,1.789c2.358,1.179 7.842,3.921 10,5c0.563,0.281 1.225,0.281 1.788,0c2.158,-1.079 7.642,-3.821 10,-5c0.678,-0.339 1.106,-1.032 1.106,-1.789c0,-2.821 0,-9.707 0,-12.528c0,-0.757 -0.428,-1.45 -1.106,-1.789c-2.358,-1.179 -7.842,-3.921 -10,-5c-0.563,-0.281 -1.225,-0.281 -1.788,0c-2.158,1.079 -7.642,3.821 -10,5Z" style="fill:#fff;"/><clipPath id="_clip1"><path d="M5.106,8.447c-0.678,0.339 -1.106,1.032 -1.106,1.789c0,2.821 0,9.707 0,12.528c0,0.757 0.428,1.45 1.106,1.789c2.358,1.179 7.842,3.921 10,5c0.563,0.281 1.225,0.281 1.788,0c2.158,-1.079 7.642,-3.821 10,-5c0.678,-0.339 1.106,-1.032 1.106,-1.789c0,-2.821 0,-9.707 0,-12.528c0,-0.757 -0.428,-1.45 -1.106,-1.789c-2.358,-1.179 -7.842,-3.921 -10,-5c-0.563,-0.281 -1.225,-0.281 -1.788,0c-2.158,1.079 -7.642,3.821 -10,5Z"/></clipPath><g clip-path="url(#_clip1)"><path d="M11.106,12.447c-0.678,0.339 -1.106,1.032 -1.106,1.789c0,1.275 0,3.253 0,4.528c0,0.757 0.428,1.45 1.106,1.789c1.151,0.576 2.933,1.467 4,2c0.563,0.281 1.225,0.281 1.788,0c1.067,-0.533 2.849,-1.424 4,-2c0.678,-0.339 1.106,-1.032 1.106,-1.789c0,-1.275 0,-3.253 0,-4.528c0,-0.757 -0.428,-1.45 -1.106,-1.789c-1.151,-0.576 -2.933,-1.467 -4,-2c-0.563,-0.281 -1.225,-0.281 -1.788,0c-1.067,0.533 -2.849,1.424 -4,2Z" style="fill:#9cc2ff;fill-opacity:0.384314;"/><path d="M5.106,8.447c-0.678,0.339 -1.106,1.032 -1.106,1.789c0,2.821 0,9.707 0,12.528c0,0.757 0.428,1.45 1.106,1.789c2.358,1.179 7.842,3.921 10,5c0.563,0.281 1.225,0.281 1.788,0c2.158,-1.079 7.642,-3.821 10,-5c0.678,-0.339 1.106,-1.032 1.106,-1.789c0,-2.821 0,-9.707 0,-12.528c0,-0.757 -0.428,-1.45 -1.106,-1.789c-2.358,-1.179 -7.842,-3.921 -10,-5c-0.563,-0.281 -1.225,-0.281 -1.788,0c-2.158,1.079 -7.642,3.821 -10,5Z" style="fill:none;stroke:#aac0ff;stroke-width:4px;"/><path d="M4,10l12,6l12,-6" style="fill:none;stroke:#aac0ff;stroke-width:2px;"/><path d="M16,15l0,17" style="fill:none;stroke:#aac0ff;stroke-width:2px;"/></g><path d="M2,2l6,0l22,28l-6,0l-22,-28Z" style="fill:#e02a33;"/></g></svg>