<?xml version="1.0" encoding="UTF-8" standalone="no"?><!DOCTYPE svg PUBLIC "-//W3C//DTD SVG 1.1//EN" "http://www.w3.org/Graphics/SVG/1.1/DTD/svg11.dtd"><svg width="100%" height="100%" viewBox="0 0 32 32" version="1.1" xmlns="http://www.w3.org/2000/svg" xmlns:xlink="http://www.w3.org/1999/xlink" xml:space="preserve" xmlns:serif="http://www.serif.com/" style="fill-rule:evenodd;clip-rule:evenodd;stroke-linecap:square;stroke-miterlimit:1.5;">
<metadata>
<rdf:RDF xmlns:cc="http://web.resource.org/cc/"
         xmlns:rdf="http://www.w3.org/1999/02/22-rdf-syntax-ns#"
         xmlns:dc = "http://purl.org/dc/elements/1.1/"
         >

     <rdf:Description rdf:about="">
       <dc:title>Mutant Standard S3</dc:title>
     </rdf:Description>

    <cc:work rdf:about="">
        <cc:license rdf:resource="http://creativecommons.org/licenses/by-nc-sa/4.0/"/>
        <cc:attributionName>Dzuk</cc:attributionName>
        <cc:attributionURL>http://mutant.tech/</cc:attributionURL>
    </cc:work>

</rdf:RDF>
</metadata>
<rect id="trainsgender" x="0" y="0" width="32" height="32" style="fill:none;"/><clipPath id="_clip1"><rect x="0" y="0" width="32" height="32"/></clipPath><g clip-path="url(#_clip1)"><g id="outline"><path d="M3.433,18.914c-0.627,0.538 -1.002,1.314 -1.034,2.14c-0.032,0.826 0.283,1.628 0.867,2.212c0.001,0.001 0.001,0.001 0.001,0.001c1.11,1.11 2.614,1.733 4.183,1.733c6.297,0 22.55,0 22.55,0l0,-16c0,0 -3.818,0 -7.602,0c-4.774,0 -9.39,1.708 -13.015,4.815c-2.07,1.774 -4.307,3.691 -5.95,5.099Z" style="fill:none;stroke:#000;stroke-width:4px;"/><rect x="2" y="28" width="28" height="2" style="fill:none;stroke:#000;stroke-width:4px;stroke-linecap:round;"/></g><g id="emoji"><path d="M3.433,18.914c-0.627,0.538 -1.002,1.314 -1.034,2.14c-0.032,0.826 0.283,1.628 0.867,2.212c0.001,0.001 0.001,0.001 0.001,0.001c1.11,1.11 2.614,1.733 4.183,1.733c6.297,0 22.55,0 22.55,0l0,-16c0,0 -3.818,0 -7.602,0c-4.774,0 -9.39,1.708 -13.015,4.815c-2.07,1.774 -4.307,3.691 -5.95,5.099Z" style="fill:#e6e6e6;"/><clipPath id="_clip2"><path d="M3.433,18.914c-0.627,0.538 -1.002,1.314 -1.034,2.14c-0.032,0.826 0.283,1.628 0.867,2.212c0.001,0.001 0.001,0.001 0.001,0.001c1.11,1.11 2.614,1.733 4.183,1.733c6.297,0 22.55,0 22.55,0l0,-16c0,0 -3.818,0 -7.602,0c-4.774,0 -9.39,1.708 -13.015,4.815c-2.07,1.774 -4.307,3.691 -5.95,5.099Z"/></clipPath><g clip-path="url(#_clip2)"><rect x="2" y="9" width="28" height="16" style="fill:none;"/><clipPath id="_clip3"><rect x="2" y="9" width="28" height="16"/></clipPath><g clip-path="url(#_clip3)"><rect x="1" y="14.6" width="30" height="4.8" style="fill:#fff;"/><rect x="1" y="18.6" width="30" height="4" style="fill:#e596b6;"/><rect x="1" y="21.8" width="30" height="4" style="fill:#46c2e4;"/><rect x="1" y="11.4" width="30" height="4" style="fill:#e596b6;"/><rect x="1" y="8.2" width="30" height="4" style="fill:#46c2e4;"/></g><path d="M3,16c0,0 2.144,2.144 3.293,3.293c0.453,0.453 0.707,1.067 0.707,1.707c0,0 0,0 0,0c0,0.64 -0.254,1.254 -0.707,1.707c-1.149,1.149 -3.293,3.293 -3.293,3.293" style="fill:none;stroke:#000;stroke-opacity:0.313726;stroke-width:1px;"/><path d="M19.05,11.001l0.049,0.001l0.05,0.004l0.049,0.004l0.049,0.005l0.048,0.007l0.049,0.008l0.048,0.009l0.048,0.01l0.047,0.011l0.048,0.013l0.047,0.013l0.046,0.015l0.046,0.016l0.046,0.017l0.045,0.018l0.045,0.019l0.045,0.021l0.043,0.021l0.044,0.023l0.043,0.023l0.042,0.025l0.042,0.025l0.041,0.027l0.04,0.028l0.04,0.028l0.039,0.03l0.039,0.031l0.037,0.032l0.037,0.032l0.037,0.034l0.035,0.035l0.035,0.035l0.034,0.037l0.032,0.037l0.032,0.037l0.031,0.039l0.03,0.039l0.028,0.04l0.028,0.04l0.027,0.041l0.025,0.042l0.025,0.042l0.023,0.043l0.023,0.044l0.021,0.043l0.021,0.045l0.019,0.045l0.018,0.045l0.017,0.046l0.016,0.046l0.015,0.046l0.013,0.047l0.013,0.048l0.011,0.047l0.01,0.048l0.009,0.048l0.008,0.049l0.007,0.048l0.005,0.049l0.004,0.049l0.004,0.05l0.001,0.049l0.001,0.05l0,6l-0.001,0.05l-0.001,0.049l-0.004,0.05l-0.004,0.049l-0.005,0.049l-0.007,0.048l-0.008,0.049l-0.009,0.048l-0.01,0.048l-0.011,0.047l-0.013,0.048l-0.013,0.047l-0.015,0.046l-0.016,0.046l-0.017,0.046l-0.018,0.045l-0.019,0.045l-0.021,0.045l-0.021,0.043l-0.023,0.044l-0.023,0.043l-0.025,0.042l-0.025,0.042l-0.027,0.041l-0.028,0.04l-0.028,0.04l-0.03,0.039l-0.031,0.039l-0.032,0.037l-0.032,0.037l-0.034,0.037l-0.035,0.035l-0.035,0.035l-0.037,0.034l-0.037,0.032l-0.037,0.032l-0.039,0.031l-0.039,0.03l-0.04,0.028l-0.04,0.028l-0.041,0.027l-0.042,0.025l-0.042,0.025l-0.043,0.023l-0.044,0.023l-0.043,0.021l-0.045,0.021l-0.045,0.019l-0.045,0.018l-0.046,0.017l-0.046,0.016l-0.046,0.015l-0.047,0.013l-0.048,0.013l-0.047,0.011l-0.048,0.01l-0.048,0.009l-0.049,0.008l-0.048,0.007l-0.049,0.005l-0.049,0.004l-0.05,0.004l-0.049,0.001l-0.05,0.001l-1,0l-0.05,-0.001l-0.049,-0.001l-0.05,-0.004l-0.049,-0.004l-0.049,-0.005l-0.048,-0.007l-0.049,-0.008l-0.048,-0.009l-0.048,-0.01l-0.047,-0.011l-0.048,-0.013l-0.047,-0.013l-0.046,-0.015l-0.046,-0.016l-0.046,-0.017l-0.045,-0.018l-0.045,-0.019l-0.045,-0.021l-0.043,-0.021l-0.044,-0.023l-0.043,-0.023l-0.042,-0.025l-0.042,-0.025l-0.041,-0.027l-0.04,-0.028l-0.04,-0.028l-0.039,-0.03l-0.039,-0.031l-0.037,-0.032l-0.037,-0.032l-0.037,-0.034l-0.035,-0.035l-0.035,-0.035l-0.034,-0.037l-0.032,-0.037l-0.032,-0.037l-0.031,-0.039l-0.03,-0.039l-0.028,-0.04l-0.028,-0.04l-0.027,-0.041l-0.025,-0.042l-0.025,-0.042l-0.023,-0.043l-0.023,-0.044l-0.021,-0.043l-0.021,-0.045l-0.019,-0.045l-0.018,-0.045l-0.017,-0.046l-0.016,-0.046l-0.015,-0.046l-0.013,-0.047l-0.013,-0.048l-0.011,-0.047l-0.01,-0.048l-0.009,-0.048l-0.008,-0.049l-0.007,-0.048l-0.005,-0.049l-0.004,-0.049l-0.004,-0.05l-0.001,-0.049l-0.001,-0.05l0,-6l0.001,-0.05l0.001,-0.049l0.004,-0.05l0.004,-0.049l0.005,-0.049l0.007,-0.048l0.008,-0.049l0.009,-0.048l0.01,-0.048l0.011,-0.047l0.013,-0.048l0.013,-0.047l0.015,-0.046l0.016,-0.046l0.017,-0.046l0.018,-0.045l0.019,-0.045l0.021,-0.045l0.021,-0.043l0.023,-0.044l0.023,-0.043l0.025,-0.042l0.025,-0.042l0.027,-0.041l0.028,-0.04l0.028,-0.04l0.03,-0.039l0.031,-0.039l0.032,-0.037l0.032,-0.037l0.034,-0.037l0.035,-0.035l0.035,-0.035l0.037,-0.034l0.037,-0.032l0.037,-0.032l0.039,-0.031l0.039,-0.03l0.04,-0.028l0.04,-0.028l0.041,-0.027l0.042,-0.025l0.042,-0.025l0.043,-0.023l0.044,-0.023l0.043,-0.021l0.045,-0.021l0.045,-0.019l0.045,-0.018l0.046,-0.017l0.046,-0.016l0.046,-0.015l0.047,-0.013l0.048,-0.013l0.047,-0.011l0.048,-0.01l0.048,-0.009l0.049,-0.008l0.048,-0.007l0.049,-0.005l0.049,-0.004l0.05,-0.004l0.049,-0.001l0.05,-0.001l1,0l0.05,0.001Zm-1.044,0.999l-0.031,0l-0.025,0.001l-0.024,0.002l-0.025,0.002l-0.024,0.003l-0.025,0.003l-0.024,0.004l-0.024,0.004l-0.024,0.006l-0.024,0.005l-0.023,0.006l-0.024,0.007l-0.023,0.008l-0.023,0.008l-0.023,0.008l-0.023,0.009l-0.022,0.01l-0.022,0.01l-0.022,0.011l-0.022,0.011l-0.021,0.012l-0.021,0.012l-0.021,0.013l-0.021,0.013l-0.02,0.014l-0.02,0.014l-0.019,0.015l-0.02,0.016l-0.019,0.015l-0.018,0.017l-0.018,0.017l-0.018,0.017l-0.017,0.018l-0.017,0.018l-0.017,0.018l-0.016,0.019l-0.015,0.02l-0.015,0.019l-0.014,0.02l-0.014,0.02l-0.013,0.021l-0.013,0.021l-0.012,0.021l-0.012,0.021l-0.011,0.022l-0.011,0.022l-0.01,0.022l-0.01,0.022l-0.009,0.023l-0.008,0.023l-0.008,0.023l-0.008,0.023l-0.007,0.024l-0.006,0.023l-0.005,0.024l-0.006,0.024l-0.004,0.024l-0.004,0.024l-0.003,0.025l-0.003,0.024l-0.002,0.025l-0.002,0.024l-0.001,0.025l0,0.031l0,5.988l0,0.031l0.001,0.025l0.002,0.024l0.002,0.025l0.003,0.024l0.003,0.025l0.004,0.024l0.004,0.024l0.006,0.024l0.005,0.024l0.006,0.023l0.007,0.024l0.008,0.023l0.008,0.023l0.008,0.023l0.009,0.023l0.01,0.022l0.01,0.022l0.011,0.022l0.011,0.022l0.012,0.021l0.012,0.021l0.013,0.021l0.013,0.021l0.014,0.02l0.014,0.02l0.015,0.019l0.015,0.02l0.016,0.019l0.017,0.018l0.017,0.018l0.017,0.018l0.018,0.017l0.018,0.017l0.018,0.017l0.019,0.016l0.02,0.015l0.019,0.015l0.02,0.014l0.02,0.014l0.021,0.013l0.021,0.013l0.021,0.012l0.021,0.012l0.022,0.011l0.022,0.011l0.022,0.01l0.022,0.01l0.023,0.009l0.023,0.008l0.023,0.008l0.023,0.008l0.024,0.007l0.023,0.006l0.024,0.005l0.024,0.006l0.024,0.004l0.024,0.004l0.025,0.003l0.024,0.003l0.025,0.002l0.024,0.002l0.025,0.001l0.031,0l0.988,0l0.031,0l0.025,-0.001l0.024,-0.002l0.025,-0.002l0.024,-0.003l0.025,-0.003l0.024,-0.004l0.024,-0.004l0.024,-0.006l0.024,-0.005l0.023,-0.006l0.024,-0.007l0.023,-0.008l0.023,-0.008l0.023,-0.008l0.023,-0.009l0.022,-0.01l0.022,-0.01l0.022,-0.011l0.022,-0.011l0.021,-0.012l0.021,-0.012l0.021,-0.013l0.021,-0.013l0.02,-0.014l0.02,-0.014l0.019,-0.015l0.02,-0.015l0.019,-0.016l0.018,-0.017l0.018,-0.017l0.018,-0.017l0.017,-0.018l0.017,-0.018l0.017,-0.018l0.016,-0.019l0.015,-0.02l0.015,-0.019l0.014,-0.02l0.014,-0.02l0.013,-0.021l0.013,-0.021l0.012,-0.021l0.012,-0.021l0.011,-0.022l0.011,-0.022l0.01,-0.022l0.01,-0.022l0.009,-0.023l0.008,-0.023l0.008,-0.023l0.008,-0.023l0.007,-0.024l0.006,-0.023l0.005,-0.024l0.006,-0.024l0.004,-0.024l0.004,-0.024l0.003,-0.025l0.003,-0.024l0.002,-0.025l0.002,-0.024l0.001,-0.025l0,-0.031l0,-5.988l0,-0.031l-0.001,-0.025l-0.002,-0.024l-0.002,-0.025l-0.003,-0.024l-0.003,-0.025l-0.004,-0.024l-0.004,-0.024l-0.006,-0.024l-0.005,-0.024l-0.006,-0.023l-0.007,-0.024l-0.008,-0.023l-0.008,-0.023l-0.008,-0.023l-0.009,-0.023l-0.01,-0.022l-0.01,-0.022l-0.011,-0.022l-0.011,-0.022l-0.012,-0.021l-0.012,-0.021l-0.013,-0.021l-0.013,-0.021l-0.014,-0.02l-0.014,-0.02l-0.015,-0.019l-0.015,-0.02l-0.016,-0.019l-0.017,-0.018l-0.017,-0.018l-0.017,-0.018l-0.018,-0.017l-0.018,-0.017l-0.018,-0.017l-0.019,-0.015l-0.02,-0.016l-0.019,-0.015l-0.02,-0.014l-0.02,-0.014l-0.021,-0.013l-0.021,-0.013l-0.021,-0.012l-0.021,-0.012l-0.022,-0.011l-0.022,-0.011l-0.022,-0.01l-0.022,-0.01l-0.023,-0.009l-0.023,-0.008l-0.023,-0.008l-0.023,-0.008l-0.024,-0.007l-0.023,-0.006l-0.024,-0.005l-0.024,-0.006l-0.024,-0.004l-0.024,-0.004l-0.025,-0.003l-0.024,-0.003l-0.025,-0.002l-0.024,-0.002l-0.025,-0.001l-0.031,0l-0.988,0Z" style="fill-opacity:0.313726;"/><path d="M20,13c0,-0.552 -0.448,-1 -1,-1c-0.322,0 -0.678,0 -1,0c-0.552,0 -1,0.448 -1,1c0,0.871 0,2.129 0,3c0,0.552 0.448,1 1,1c0.322,0 0.678,0 1,0c0.552,0 1,-0.448 1,-1c0,-0.871 0,-2.129 0,-3Z"/><path d="M26,13.5c0,-0.398 -0.158,-0.779 -0.439,-1.061c-0.282,-0.281 -0.663,-0.439 -1.061,-0.439c-0.398,0 -0.779,0.158 -1.061,0.439c-0.281,0.282 -0.439,0.663 -0.439,1.061c0,0.633 0,1.367 0,2c0,0.398 0.158,0.779 0.439,1.061c0.282,0.281 0.663,0.439 1.061,0.439c0.398,0 0.779,-0.158 1.061,-0.439c0.281,-0.282 0.439,-0.663 0.439,-1.061c0,-0.633 0,-1.367 0,-2Z"/><path d="M31,13.5c0,-0.398 -0.158,-0.779 -0.439,-1.061c-0.282,-0.281 -0.663,-0.439 -1.061,-0.439c-0.398,0 -0.779,0.158 -1.061,0.439c-0.281,0.282 -0.439,0.663 -0.439,1.061c0,0.633 0,1.367 0,2c0,0.398 0.158,0.779 0.439,1.061c0.282,0.281 0.663,0.439 1.061,0.439c0.398,0 0.779,-0.158 1.061,-0.439c0.281,-0.282 0.439,-0.663 0.439,-1.061c0,-0.633 0,-1.367 0,-2Z"/></g><path d="M19,8l-6.658,2l-8.342,7l0,1.6l15,0l0,-10.6Z" style="fill:none;"/><clipPath id="_clip4"><path d="M19,8l-6.658,2l-8.342,7l0,1.6l15,0l0,-10.6Z"/></clipPath><g clip-path="url(#_clip4)"><path d="M16,7c0,0 0.17,0.509 0.369,1.107c0.382,1.147 0.039,2.411 -0.87,3.207c-1.67,1.46 -4.307,3.768 -5.651,4.944c-0.547,0.478 -1.249,0.742 -1.975,0.742c-1.475,0 -3.873,0 -3.873,0l0,-10l12,0Z"/></g><rect x="2" y="28" width="28" height="2" style="fill:#7f7f7f;"/></g></g></svg>