<?xml version="1.0" encoding="UTF-8"?>
<!DOCTYPE svg  PUBLIC '-//W3C//DTD SVG 1.1//EN'  'http://www.w3.org/Graphics/SVG/1.1/DTD/svg11.dtd'>
<svg clip-rule="evenodd" fill-rule="evenodd" stroke-linecap="square" stroke-miterlimit="1.5" version="1.1" viewBox="0 0 32 32" xml:space="preserve" xmlns="http://www.w3.org/2000/svg">
<metadata>
<rdf:RDF xmlns:cc="http://web.resource.org/cc/" xmlns:dc="http://purl.org/dc/elements/1.1/" xmlns:rdf="http://www.w3.org/1999/02/22-rdf-syntax-ns#">

     <rdf:Description rdf:about="">
       <dc:title>Mutant Standard S3</dc:title>
     </rdf:Description>

    <cc:work rdf:about="">
        <cc:license rdf:resource="http://creativecommons.org/licenses/by-nc-sa/4.0/"/>
        <cc:attributionName>Dzuk</cc:attributionName>
        <cc:attributionURL>http://mutant.tech/</cc:attributionURL>
    </cc:work>

</rdf:RDF>
</metadata>
<rect id="trainsgender" width="32" height="32" fill="none"/><clipPath id="_clip1"><rect width="32" height="32"/></clipPath><g clip-path="url(#_clip1)"><g id="outline" fill="none" stroke="#000" stroke-width="4px"><path d="m3.433 18.914c-0.627 0.538-1.002 1.314-1.034 2.14s0.283 1.628 0.867 2.212l1e-3 1e-3c1.11 1.11 2.614 1.733 4.183 1.733h22.55v-16h-7.602c-4.774 0-9.39 1.708-13.015 4.815-2.07 1.774-4.307 3.691-5.95 5.099z"/><rect x="2" y="28" width="28" height="2" stroke-linecap="round"/></g><g id="emoji"><path d="m3.433 18.914c-0.627 0.538-1.002 1.314-1.034 2.14s0.283 1.628 0.867 2.212l1e-3 1e-3c1.11 1.11 2.614 1.733 4.183 1.733h22.55v-16h-7.602c-4.774 0-9.39 1.708-13.015 4.815-2.07 1.774-4.307 3.691-5.95 5.099z" fill="#e6e6e6"/><clipPath id="_clip2"><path d="m3.433 18.914c-0.627 0.538-1.002 1.314-1.034 2.14s0.283 1.628 0.867 2.212l1e-3 1e-3c1.11 1.11 2.614 1.733 4.183 1.733h22.55v-16h-7.602c-4.774 0-9.39 1.708-13.015 4.815-2.07 1.774-4.307 3.691-5.95 5.099z"/></clipPath><g clip-path="url(#_clip2)"><rect x="2" y="9" width="28" height="16" fill="none"/><clipPath id="_clip3"><rect x="2" y="9" width="28" height="16"/></clipPath><g clip-path="url(#_clip3)"><rect x="1" y="14.6" width="30" height="4.8" fill="#fff"/><rect x="1" y="18.6" width="30" height="4" fill="#e596b6"/><rect x="1" y="21.8" width="30" height="4" fill="#46c2e4"/><rect x="1" y="11.4" width="30" height="4" fill="#e596b6"/><rect x="1" y="8.2" width="30" height="4" fill="#46c2e4"/></g><path d="m3 16 3.293 3.293c0.453 0.453 0.707 1.067 0.707 1.707s-0.254 1.254-0.707 1.707l-3.293 3.293" fill="none" stroke="#000" stroke-opacity=".31373" stroke-width="1px"/><path d="m19.05 11.001 0.049 1e-3 0.05 4e-3 0.049 4e-3 0.049 5e-3 0.048 7e-3 0.049 8e-3 0.048 9e-3 0.048 0.01 0.047 0.011 0.048 0.013 0.047 0.013 0.046 0.015 0.046 0.016 0.046 0.017 0.045 0.018 0.045 0.019 0.045 0.021 0.043 0.021 0.044 0.023 0.043 0.023 0.084 0.05 0.041 0.027 0.08 0.056 0.039 0.03 0.039 0.031 0.074 0.064 0.037 0.034 0.07 0.07 0.034 0.037 0.064 0.074 0.031 0.039 0.03 0.039 0.056 0.08 0.027 0.041 0.05 0.084 0.023 0.043 0.023 0.044 0.021 0.043 0.021 0.045 0.019 0.045 0.018 0.045 0.017 0.046 0.016 0.046 0.015 0.046 0.013 0.047 0.013 0.048 0.011 0.047 0.01 0.048 9e-3 0.048 8e-3 0.049 7e-3 0.048 5e-3 0.049 4e-3 0.049 4e-3 0.05 1e-3 0.049 1e-3 0.05v6l-1e-3 0.05-1e-3 0.049-4e-3 0.05-4e-3 0.049-5e-3 0.049-7e-3 0.048-8e-3 0.049-9e-3 0.048-0.01 0.048-0.011 0.047-0.013 0.048-0.013 0.047-0.015 0.046-0.016 0.046-0.017 0.046-0.018 0.045-0.019 0.045-0.021 0.045-0.021 0.043-0.023 0.044-0.023 0.043-0.05 0.084-0.027 0.041-0.056 0.08-0.03 0.039-0.031 0.039-0.064 0.074-0.034 0.037-0.07 0.07-0.037 0.034-0.074 0.064-0.039 0.031-0.039 0.03-0.08 0.056-0.041 0.027-0.084 0.05-0.043 0.023-0.044 0.023-0.043 0.021-0.045 0.021-0.045 0.019-0.045 0.018-0.046 0.017-0.046 0.016-0.046 0.015-0.047 0.013-0.048 0.013-0.047 0.011-0.048 0.01-0.048 9e-3 -0.049 8e-3 -0.048 7e-3 -0.049 5e-3 -0.049 4e-3 -0.05 4e-3 -0.049 1e-3 -0.05 1e-3h-1l-0.05-1e-3 -0.049-1e-3 -0.05-4e-3 -0.049-4e-3 -0.049-5e-3 -0.048-7e-3 -0.049-8e-3 -0.048-9e-3 -0.048-0.01-0.047-0.011-0.048-0.013-0.047-0.013-0.046-0.015-0.046-0.016-0.046-0.017-0.045-0.018-0.045-0.019-0.045-0.021-0.043-0.021-0.044-0.023-0.043-0.023-0.084-0.05-0.041-0.027-0.08-0.056-0.039-0.03-0.039-0.031-0.074-0.064-0.037-0.034-0.07-0.07-0.034-0.037-0.064-0.074-0.031-0.039-0.03-0.039-0.056-0.08-0.027-0.041-0.05-0.084-0.023-0.043-0.023-0.044-0.021-0.043-0.021-0.045-0.019-0.045-0.018-0.045-0.017-0.046-0.016-0.046-0.015-0.046-0.013-0.047-0.013-0.048-0.011-0.047-0.01-0.048-9e-3 -0.048-8e-3 -0.049-7e-3 -0.048-5e-3 -0.049-4e-3 -0.049-4e-3 -0.05-1e-3 -0.049-1e-3 -0.05v-6l1e-3 -0.05 1e-3 -0.049 4e-3 -0.05 4e-3 -0.049 5e-3 -0.049 7e-3 -0.048 8e-3 -0.049 9e-3 -0.048 0.01-0.048 0.011-0.047 0.013-0.048 0.013-0.047 0.015-0.046 0.016-0.046 0.017-0.046 0.018-0.045 0.019-0.045 0.021-0.045 0.021-0.043 0.023-0.044 0.023-0.043 0.05-0.084 0.027-0.041 0.056-0.08 0.03-0.039 0.031-0.039 0.064-0.074 0.034-0.037 0.07-0.07 0.037-0.034 0.074-0.064 0.039-0.031 0.039-0.03 0.08-0.056 0.041-0.027 0.084-0.05 0.043-0.023 0.044-0.023 0.043-0.021 0.045-0.021 0.045-0.019 0.045-0.018 0.046-0.017 0.046-0.016 0.046-0.015 0.047-0.013 0.048-0.013 0.047-0.011 0.048-0.01 0.048-9e-3 0.049-8e-3 0.048-7e-3 0.049-5e-3 0.049-4e-3 0.05-4e-3 0.049-1e-3 0.05-1e-3h1l0.05 1e-3zm-1.044 0.999h-0.031l-0.025 1e-3 -0.024 2e-3 -0.025 2e-3 -0.024 3e-3 -0.025 3e-3 -0.048 8e-3 -0.024 6e-3 -0.024 5e-3 -0.023 6e-3 -0.024 7e-3 -0.069 0.024-0.023 9e-3 -0.044 0.02-0.044 0.022-0.042 0.024-0.042 0.026-0.04 0.028-0.019 0.015-0.02 0.016-0.019 0.015-0.054 0.051-0.051 0.054-0.016 0.019-0.015 0.02-0.015 0.019-0.028 0.04-0.026 0.042-0.024 0.042-0.022 0.044-0.02 0.044-9e-3 0.023-0.024 0.069-7e-3 0.024-6e-3 0.023-5e-3 0.024-6e-3 0.024-8e-3 0.048-3e-3 0.025-3e-3 0.024-2e-3 0.025-2e-3 0.024-1e-3 0.025v0.031 5.988 0.031l1e-3 0.025 2e-3 0.024 2e-3 0.025 3e-3 0.024 3e-3 0.025 8e-3 0.048 6e-3 0.024 5e-3 0.024 6e-3 0.023 7e-3 0.024 0.024 0.069 9e-3 0.023 0.02 0.044 0.022 0.044 0.024 0.042 0.026 0.042 0.028 0.04 0.015 0.019 0.015 0.02 0.016 0.019 0.051 0.054 0.054 0.051 0.019 0.016 0.02 0.015 0.019 0.015 0.04 0.028 0.042 0.026 0.042 0.024 0.044 0.022 0.044 0.02 0.023 9e-3 0.069 0.024 0.024 7e-3 0.023 6e-3 0.024 5e-3 0.024 6e-3 0.048 8e-3 0.025 3e-3 0.024 3e-3 0.025 2e-3 0.024 2e-3 0.025 1e-3h0.031 0.988 0.031l0.025-1e-3 0.024-2e-3 0.025-2e-3 0.024-3e-3 0.025-3e-3 0.048-8e-3 0.024-6e-3 0.024-5e-3 0.023-6e-3 0.024-7e-3 0.069-0.024 0.023-9e-3 0.044-0.02 0.044-0.022 0.042-0.024 0.042-0.026 0.04-0.028 0.019-0.015 0.02-0.015 0.019-0.016 0.054-0.051 0.051-0.054 0.016-0.019 0.015-0.02 0.015-0.019 0.028-0.04 0.026-0.042 0.024-0.042 0.022-0.044 0.02-0.044 9e-3 -0.023 0.024-0.069 7e-3 -0.024 6e-3 -0.023 5e-3 -0.024 6e-3 -0.024 8e-3 -0.048 3e-3 -0.025 3e-3 -0.024 2e-3 -0.025 2e-3 -0.024 1e-3 -0.025v-0.031-5.988-0.031l-1e-3 -0.025-2e-3 -0.024-2e-3 -0.025-3e-3 -0.024-3e-3 -0.025-8e-3 -0.048-6e-3 -0.024-5e-3 -0.024-6e-3 -0.023-7e-3 -0.024-0.024-0.069-9e-3 -0.023-0.02-0.044-0.022-0.044-0.024-0.042-0.026-0.042-0.028-0.04-0.015-0.019-0.015-0.02-0.016-0.019-0.051-0.054-0.054-0.051-0.019-0.015-0.02-0.016-0.019-0.015-0.04-0.028-0.042-0.026-0.042-0.024-0.044-0.022-0.044-0.02-0.023-9e-3 -0.069-0.024-0.024-7e-3 -0.023-6e-3 -0.024-5e-3 -0.024-6e-3 -0.048-8e-3 -0.025-3e-3 -0.024-3e-3 -0.025-2e-3 -0.024-2e-3 -0.025-1e-3h-0.031-0.988z" fill-opacity=".31373"/><path d="m20 13c0-0.552-0.448-1-1-1h-1c-0.552 0-1 0.448-1 1v3c0 0.552 0.448 1 1 1h1c0.552 0 1-0.448 1-1v-3z"/><path d="m26 13.5c0-0.398-0.158-0.779-0.439-1.061-0.282-0.281-0.663-0.439-1.061-0.439s-0.779 0.158-1.061 0.439c-0.281 0.282-0.439 0.663-0.439 1.061v2c0 0.398 0.158 0.779 0.439 1.061 0.282 0.281 0.663 0.439 1.061 0.439s0.779-0.158 1.061-0.439c0.281-0.282 0.439-0.663 0.439-1.061v-2z"/><path d="m31 13.5c0-0.398-0.158-0.779-0.439-1.061-0.282-0.281-0.663-0.439-1.061-0.439s-0.779 0.158-1.061 0.439c-0.281 0.282-0.439 0.663-0.439 1.061v2c0 0.398 0.158 0.779 0.439 1.061 0.282 0.281 0.663 0.439 1.061 0.439s0.779-0.158 1.061-0.439c0.281-0.282 0.439-0.663 0.439-1.061v-2z"/></g><path d="m19 8-6.658 2-8.342 7v1.6h15v-10.6z" fill="none"/><clipPath id="_clip4"><path d="m19 8-6.658 2-8.342 7v1.6h15v-10.6z"/></clipPath><g clip-path="url(#_clip4)"><path d="m16 7s0.17 0.509 0.369 1.107c0.382 1.147 0.039 2.411-0.87 3.207-1.67 1.46-4.307 3.768-5.651 4.944-0.547 0.478-1.249 0.742-1.975 0.742h-3.873v-10h12z"/></g><rect x="2" y="28" width="28" height="2" fill="#7f7f7f"/></g></g></svg>
