<?xml version="1.0" encoding="UTF-8"?>
<!DOCTYPE svg  PUBLIC '-//W3C//DTD SVG 1.1//EN'  'http://www.w3.org/Graphics/SVG/1.1/DTD/svg11.dtd'>
<svg clip-rule="evenodd" fill-rule="evenodd" stroke-linecap="round" stroke-linejoin="round" stroke-miterlimit="1.5" version="1.1" viewBox="0 0 32 32" xml:space="preserve" xmlns="http://www.w3.org/2000/svg">
<metadata>
<rdf:RDF xmlns:cc="http://web.resource.org/cc/" xmlns:dc="http://purl.org/dc/elements/1.1/" xmlns:rdf="http://www.w3.org/1999/02/22-rdf-syntax-ns#">

     <rdf:Description rdf:about="">
       <dc:title>Mutant Standard emoji 2023.12</dc:title>
     </rdf:Description>

    <cc:work rdf:about="">
        <cc:license rdf:resource="http://creativecommons.org/licenses/by-nc-sa/4.0/"/>
        <cc:attributionName>Caius Nocturne</cc:attributionName>
        <cc:attributionURL>http://mutant.tech/</cc:attributionURL>
    </cc:work>

</rdf:RDF>
</metadata>

    <rect id="tofu" width="32" height="32" fill="none"/>
    <g id="outline">
        <path d="m21 21 9-4v9l-9 4v-9zm-5.782-17.553c-0.142-0.459-0.218-0.945-0.218-1.446v-1e-3s0.449 0.09 1.079 0.216c1.175 0.235 2.181 0.881 2.879 1.77l6.042 2.014v8.857l5 2.143-9 4v9l-7-3v-3l-3 3-9-2v-9l5-5 2 0.444v-1.249c-0.085-0.014-0.169-0.029-0.254-0.046-0.449-0.09-0.746-0.149-0.746-0.149l1-1.333v-1.667l2.85-1.629c-0.913-0.848-1.571-1.978-1.83-3.273-0.013-0.063-0.02-0.098-0.02-0.098s0.498 0.1 1.18 0.236c1.228 0.246 2.323 0.852 3.169 1.707l0.869-0.496z" fill="none" stroke="#000" stroke-width="4px"/>
    </g>
    <g id="emoji">
        
            <path d="m10.431 17.533 4.463-4.283 1.106-0.25v9l-5 5-0.792-1.034 0.223-8.433z" fill="#c0b08a"/>
            <path d="m11 17.208-7.949-1.492-1.051 0.284v9l9 2v-9.792z" fill="#d6ceb0"/>
            <path d="m11 18-9-2 5-5 9 2-5 5z" fill="#ede9db"/>
        
        
            <path d="m21 30-0.914-1.474 0.63-8.823 7.367-2.95 1.917 0.247v9l-9 4z" fill="#c0b08a"/>
            <path d="m21 20.169-5.476-2.116-1.524-0.053v9l7 3v-9.831z" fill="#d6ceb0"/>
            <path d="m21 21-7-3 9-4 7 3-9 4z" fill="#ede9db"/>
        
        
            <path d="m18.104 9.232 5.78-3.14 1.116-0.092v9l-7 4-0.681-1.36-0.087-7.178 0.872-1.23z" fill="#c0b08a"/>
            <path d="m18 9.024-8.215-2.169-0.785 0.145v9l9 3v-9.976z" fill="#d6ceb0"/>
            <path d="m18 10-9-3 7-4 9 3-7 4z" fill="#ede9db"/>
        
    </g>
    <path d="m15.4 7-0.168 0.28c-1.339 2.231-3.935 3.379-6.486 2.869-0.449-0.09-0.746-0.149-0.746-0.149s0.535-0.713 1.153-1.538c0.913-1.217 2.233-2.04 3.696-2.338-1.427-0.862-2.484-2.297-2.829-4.026-0.013-0.063-0.02-0.098-0.02-0.098s0.498 0.1 1.18 0.236c2.063 0.413 3.752 1.843 4.514 3.764h1.39c-1.273-0.89-2.084-2.365-2.084-3.999v-1e-3s0.449 0.09 1.079 0.216c1.945 0.389 3.426 1.903 3.818 3.784h1.103v1h-2.1c-0.463 2.282-2.481 4-4.9 4 0 0 0.04-0.16 0.104-0.417 0.371-1.482 1.27-2.746 2.49-3.583h-1.194z" fill="#73a538"/>
</svg>
