<?xml version="1.0" encoding="UTF-8"?>
<!DOCTYPE svg  PUBLIC '-//W3C//DTD SVG 1.1//EN'  'http://www.w3.org/Graphics/SVG/1.1/DTD/svg11.dtd'>
<svg clip-rule="evenodd" fill-rule="evenodd" stroke-linejoin="round" stroke-miterlimit="2" version="1.1" viewBox="0 0 32 32" xml:space="preserve" xmlns="http://www.w3.org/2000/svg" xmlns:serif="http://www.serif.com/">
<metadata>
<rdf:RDF xmlns:cc="http://web.resource.org/cc/" xmlns:dc="http://purl.org/dc/elements/1.1/" xmlns:rdf="http://www.w3.org/1999/02/22-rdf-syntax-ns#">

     <rdf:Description rdf:about="">
       <dc:title>Mutant Standard emoji 2023.12</dc:title>
     </rdf:Description>

    <cc:work rdf:about="">
        <cc:license rdf:resource="http://creativecommons.org/licenses/by-nc-sa/4.0/"/>
        <cc:attributionName>Caius Nocturne</cc:attributionName>
        <cc:attributionURL>http://mutant.tech/</cc:attributionURL>
    </cc:work>

</rdf:RDF>
</metadata>

    <rect id="back_of_hand--hoof-" width="32" height="32" fill="none" serif:id="back_of_hand [hoof]"/>
    <clipPath id="_clip1">
        <rect width="32" height="32"/>
    </clipPath>
    <g clip-path="url(#_clip1)">
        <g id="outline">
            <path d="m31 19c0 3.448-1.37 6.754-3.808 9.192s-5.744 3.808-9.192 3.808h-1.789c-5.154 0-9.967-2.566-12.841-6.84l-0.034-0.051-9e-3 -0.014-0.019-0.029-0.018-0.029-8e-3 -0.013-0.01-0.016s-0.697-1.195-1.469-2.519c-1.538-2.637-2.166-5.707-1.788-8.736v-1e-3c0.075-0.595 0.412-1.125 0.919-1.444s1.13-0.395 1.698-0.205h1e-3c1.573 0.524 3.047 1.298 4.367 2.288v-2.735c0-4.152 1.649-8.134 4.586-11.07 0.475-0.476 1.158-0.68 1.816-0.545 0.659 0.135 1.205 0.592 1.455 1.216l0.643 1.608 0.643-1.608c0.25-0.624 0.796-1.081 1.455-1.216 0.658-0.135 1.341 0.069 1.816 0.545 1.009 1.009 1.866 2.141 2.557 3.362l0.068-0.34c0.144-0.723 0.675-1.308 1.381-1.522s1.473-0.022 1.994 0.5c0 0 0.652 0.652 1.486 1.485 2.625 2.626 4.1 6.187 4.1 9.9v5.029z"/>
        </g>
        <g id="emoji">
            <path d="m2 14.001v-1e-3c1.973 0.658 3.765 1.765 5.236 3.236l0.764 0.764v4l-3 2s-0.697-1.195-1.469-2.519c-1.317-2.258-1.855-4.886-1.531-7.48zm21-1e-3v-3.317c0-1.119 0.111-2.236 0.33-3.334 0.291-1.456 0.67-3.349 0.67-3.349l1.485 1.485c2.251 2.251 3.515 5.303 3.515 8.486v0.029l-3.5 2.5-2.5-2.5zm-14-1v-1.344c0-3.621 1.439-7.095 4-9.656 0 0 0.382 0.955 0.812 2.031 0.785 1.961 1.188 4.054 1.188 6.167v2.802l-3.5 2-2.5-2zm7 0v-2.802c0-2.113 0.403-4.206 1.188-6.167 0.43-1.076 0.812-2.031 0.812-2.031 2.561 2.561 4 6.035 4 9.656v1.344l-3.5 1.5-2.5-1.5z" fill="#2FA08A"/>
            <path d="m29 19c0 2.917-1.159 5.715-3.222 7.778s-4.861 3.222-7.778 3.222h-1.789c-4.496 0-8.695-2.243-11.196-5.978l-0.015-0.022 3-6 1 1v-6h6v2h1v-2h6v2h1v-1h6v5z" fill="#8DEBCF"/>
        </g>
    </g>
</svg>
