<?xml version="1.0" encoding="UTF-8"?>
<!DOCTYPE svg  PUBLIC '-//W3C//DTD SVG 1.1//EN'  'http://www.w3.org/Graphics/SVG/1.1/DTD/svg11.dtd'>
<svg clip-rule="evenodd" fill-rule="evenodd" stroke-linejoin="round" stroke-miterlimit="2" version="1.1" viewBox="0 0 32 32" xml:space="preserve" xmlns="http://www.w3.org/2000/svg" xmlns:serif="http://www.serif.com/">
<metadata>
<rdf:RDF xmlns:cc="http://web.resource.org/cc/" xmlns:dc="http://purl.org/dc/elements/1.1/" xmlns:rdf="http://www.w3.org/1999/02/22-rdf-syntax-ns#">

     <rdf:Description rdf:about="">
       <dc:title>Mutant Standard emoji 2023.12</dc:title>
     </rdf:Description>

    <cc:work rdf:about="">
        <cc:license rdf:resource="http://creativecommons.org/licenses/by-nc-sa/4.0/"/>
        <cc:attributionName>Caius Nocturne</cc:attributionName>
        <cc:attributionURL>http://mutant.tech/</cc:attributionURL>
    </cc:work>

</rdf:RDF>
</metadata>

    <rect id="hand--hoof-" width="32" height="32" fill="none" serif:id="hand [hoof]"/>
    <clipPath id="_clip1">
        <rect width="32" height="32"/>
    </clipPath>
    <g clip-path="url(#_clip1)">
        <g id="outline">
            <path d="m1 13.971c0-3.713 1.475-7.274 4.1-9.9 0.834-0.833 1.486-1.485 1.486-1.485 0.521-0.522 1.288-0.714 1.994-0.5s1.237 0.799 1.381 1.522l0.068 0.34c0.691-1.221 1.548-2.353 2.557-3.362 0.475-0.476 1.158-0.68 1.816-0.545 0.659 0.135 1.205 0.592 1.455 1.216l0.643 1.608 0.643-1.608c0.25-0.624 0.796-1.081 1.455-1.216 0.658-0.135 1.341 0.069 1.816 0.545 2.937 2.936 4.586 6.918 4.586 11.07v2.735c1.32-0.99 2.794-1.764 4.367-2.288h1e-3c0.568-0.19 1.191-0.114 1.698 0.205s0.844 0.849 0.919 1.444v1e-3c0.378 3.029-0.25 6.099-1.788 8.736-0.772 1.324-1.469 2.519-1.469 2.519l-0.01 0.016-0.018 0.029-0.017 0.028-0.01 0.014-9e-3 0.014c-2.87 4.305-7.701 6.891-12.875 6.891h-1.789c-3.448 0-6.754-1.37-9.192-3.808s-3.808-5.744-3.808-9.192v-5.029z"/>
        </g>
        <g id="emoji">
            <path d="m30 14.001v-1e-3c-1.973 0.658-3.765 1.765-5.236 3.236l-0.764 0.764v4l3 2s0.697-1.195 1.469-2.519c1.317-2.258 1.855-4.886 1.531-7.48zm-27-1e-3v-0.029c0-3.183 1.264-6.235 3.515-8.486l1.485-1.485s0.379 1.893 0.67 3.349c0.219 1.098 0.33 2.215 0.33 3.334v3.317l-3 2.5-3-2.5zm14-1v-2.802c0-2.113 0.403-4.206 1.188-6.167 0.43-1.076 0.812-2.031 0.812-2.031 2.561 2.561 4 6.035 4 9.656v1.344l-1 1.241-4-0.241-1-1zm-7 0v-1.344c0-3.621 1.439-7.095 4-9.656 0 0 0.382 0.955 0.812 2.031 0.785 1.961 1.188 4.054 1.188 6.167v2.802l-3.162 1-2.838-1z" fill="#B53D95"/>
            <path d="m23 16.172-0.5 0.828v1.5l0.5 0.5 1-1 3 6-0.029 0.044c-2.503 3.722-6.695 5.956-11.182 5.956h-1.789c-2.917 0-5.715-1.159-7.778-3.222s-3.222-4.861-3.222-7.778v-5h6v1h1v-2h6v2h1v-2h6v3.172z" fill="#FD9BD6"/>
            <path d="m22.586 19c-1.361 0-2.57 0.871-3 2.162-7e-3 0.02-0.025 0.076-0.051 0.153-0.175 0.524-0.741 0.807-1.265 0.633 0-1e-3 -1e-3 -1e-3 -1e-3 -1e-3 -0.523-0.174-0.806-0.74-0.632-1.263 0.026-0.078 0.045-0.135 0.051-0.154 0.657-1.97 2.423-3.341 4.465-3.512l0.847-0.846v2.828h-0.414z" fill="#E461B2"/>
        </g>
    </g>
</svg>
