<?xml version="1.0" encoding="UTF-8"?>
<!DOCTYPE svg  PUBLIC '-//W3C//DTD SVG 1.1//EN'  'http://www.w3.org/Graphics/SVG/1.1/DTD/svg11.dtd'>
<svg clip-rule="evenodd" fill-rule="evenodd" stroke-linecap="round" stroke-miterlimit="2" version="1.1" viewBox="0 0 32 32" xml:space="preserve" xmlns="http://www.w3.org/2000/svg" xmlns:serif="http://www.serif.com/">
<metadata>
<rdf:RDF xmlns:cc="http://web.resource.org/cc/" xmlns:dc="http://purl.org/dc/elements/1.1/" xmlns:rdf="http://www.w3.org/1999/02/22-rdf-syntax-ns#">

     <rdf:Description rdf:about="">
       <dc:title>Mutant Standard emoji 2023.12</dc:title>
     </rdf:Description>

    <cc:work rdf:about="">
        <cc:license rdf:resource="http://creativecommons.org/licenses/by-nc-sa/4.0/"/>
        <cc:attributionName>Caius Nocturne</cc:attributionName>
        <cc:attributionURL>http://mutant.tech/</cc:attributionURL>
    </cc:work>

</rdf:RDF>
</metadata>

    <rect id="muscle--hoof-" width="32" height="32" fill="none" serif:id="muscle [hoof]"/>
    <clipPath id="_clip1">
        <rect width="32" height="32"/>
    </clipPath>
    <g clip-path="url(#_clip1)">
        <g id="outline">
            <path d="m15.489 16.34c2.765-1.119 5.851-1.391 8.85-0.699 3.115 0.719 6.111 1.41 6.111 1.41 0.907 0.21 1.55 1.018 1.55 1.949v8c0 0.834-0.517 1.58-1.298 1.873 0 0-1.424 0.534-3.07 1.151-3.485 1.307-7.175 1.976-10.897 1.976-5.417 0-10.74-1.414-15.443-4.101-0.181-0.104-0.284-0.163-0.284-0.163-0.623-0.356-1.008-1.018-1.008-1.736v-3.626c0-3.899 1.156-7.711 3.322-10.953l3.732-5.586c0.39-0.584 0.927-1.056 1.558-1.366 1.395-0.687 5.5-2.711 7.997-3.941 2.074-1.021 4.584-0.263 5.744 1.736 0.461 0.796 1.011 1.744 1.541 2.657 0.815 1.405 1.01 3.084 0.539 4.638-0.472 1.554-1.567 2.842-3.025 3.556 0 1e-3 -1e-3 1e-3 -1e-3 1e-3 -1.925 0.944-4.162 0.899-6.027-0.07l-0.134 0.067-0.071 0.32c-0.087 0.388-0.091 0.79-0.013 1.18 0.072 0.36 0.157 0.785 0.245 1.222 0.033 0.168 0.061 0.336 0.082 0.505z"/>
        </g>
        <g id="emoji">
            <path d="m16.735 30c-5.069 0-10.05-1.323-14.451-3.838-0.181-0.103-0.284-0.162-0.284-0.162v-3.626c0-3.504 1.039-6.929 2.985-9.842 1.478-2.212 3.082-4.614 3.732-5.586 0.195-0.292 0.464-0.528 0.779-0.683 1.395-0.687 5.5-2.71 7.997-3.941 1.13-0.557 2.498-0.143 3.13 0.946l1.213 2.092-0.511 1.013-5.771 2.783-0.564 1.849-0.925 0.463-1.065 0.167 0.169 1.642c-0.093 0.573-0.082 1.158 0.032 1.728 0.072 0.36 0.157 0.785 0.244 1.222 0.126 0.628 0.135 1.264 0.035 1.878l-1.98 2.895 0.5 0.5 4.209-3.295c2.399-0.977 5.078-1.216 7.68-0.615 3.115 0.719 6.111 1.41 6.111 1.41v8s-1.424 0.534-3.071 1.152c-3.259 1.222-6.712 1.848-10.194 1.848z" fill="#ccc"/>
            <path d="m22.662 8.275c-0.025 0.237-0.073 0.472-0.143 0.703-0.311 1.023-1.032 1.871-1.991 2.342h-2e-3c-1.286 0.631-2.771 0.632-4.04 0.043l0.257-0.647 5.477-2.425 0.442-0.016zm-4.78 1.604c-0.537 0.268-1.529 0.594-2.066 0.863l-0.963-1.538 0.143-0.424 1.611-0.805 0.512 0.214 0.763 1.69zm2.451-1.089c-0.537 0.268-1.538 0.655-2.075 0.924l-0.878-1.692 0.121-0.495 1.611-0.805 0.388 0.278 0.833 1.79zm1.503-3.43c0.11 0.188 0.219 0.377 0.328 0.565 0.046 0.079 0.089 0.16 0.13 0.242 0.155 0.319 0.265 0.657 0.329 1.005l1e-3 4e-3 -0.157 0.533-1.758 0.94-0.886-1.844 0.184-0.53 1.829-0.915z" fill="#7C7C7C"/>
            <path d="m15.5 10.75-0.51 0.255-0.021-0.042-1.26-2.521 0.894-0.447 1.277 2.553 1.611-0.806-1.277-2.552c0.299-0.149 0.597-0.298 0.895-0.448l1.276 2.553 1.611-0.805-1.276-2.553 0.894-0.447 1.277 2.553 1.733-0.867c0.065 0.361 0.078 0.732 0.038 1.099l-6.176 3.088-0.03-0.014c-0.195-0.094-0.385-0.199-0.566-0.318-0.134-0.088-0.261-0.185-0.39-0.281z" fill="#595959"/>
            <path d="m13.48 18.105c-0.174 1.082-0.683 2.098-1.48 2.895l1e-3 -1e-3c1.221-1.221 2.656-2.162 4.208-2.794l-4.002 4.002c-0.101 0.1-0.22 0.178-0.353 0.228-0.121 0.046-0.249 0.068-0.378 0.065-0.125-3e-3 -0.249-0.03-0.364-0.078-0.103-0.043-0.199-0.104-0.282-0.179-0.081-0.074-0.15-0.161-0.204-0.256-0.15-0.27-0.166-0.603-0.043-0.886 0.05-0.115 0.122-0.219 0.21-0.308l2.687-2.688zm-2.796-5.656c-0.119-0.041-0.23-0.101-0.326-0.182-0.237-0.198-0.371-0.503-0.357-0.812 5e-3 -0.109 0.028-0.218 0.068-0.32 0.041-0.104 0.099-0.201 0.172-0.286 0.081-0.095 0.18-0.174 0.291-0.232 0.113-0.06 0.238-0.099 0.366-0.112 0.141-0.015 0.283 2e-3 0.418 0.046l2.749 0.917-0.33 0.164c-0.149 0.075-0.256 0.212-0.292 0.375-0.054 0.244-0.139 0.627-0.221 0.992-0.02 0.093-0.038 0.185-0.053 0.278l-2.485-0.828z" fill="#9C9C9C"/>
            <path d="m15.5 24.5c2.728 1.273 5.868 1.329 8.639 0.153 0.225-0.095 0.361-0.153 0.361-0.153" fill="none" stroke="#9C9C9C" stroke-width="2px"/>
        </g>
    </g>
</svg>
