<?xml version="1.0" encoding="UTF-8"?>
<!DOCTYPE svg  PUBLIC '-//W3C//DTD SVG 1.1//EN'  'http://www.w3.org/Graphics/SVG/1.1/DTD/svg11.dtd'>
<svg clip-rule="evenodd" fill-rule="evenodd" stroke-linejoin="round" stroke-miterlimit="2" version="1.1" viewBox="0 0 32 32" xml:space="preserve" xmlns="http://www.w3.org/2000/svg" xmlns:serif="http://www.serif.com/">
<metadata>
<rdf:RDF xmlns:cc="http://web.resource.org/cc/" xmlns:dc="http://purl.org/dc/elements/1.1/" xmlns:rdf="http://www.w3.org/1999/02/22-rdf-syntax-ns#">

     <rdf:Description rdf:about="">
       <dc:title>Mutant Standard emoji 2023.12</dc:title>
     </rdf:Description>

    <cc:work rdf:about="">
        <cc:license rdf:resource="http://creativecommons.org/licenses/by-nc-sa/4.0/"/>
        <cc:attributionName>Caius Nocturne</cc:attributionName>
        <cc:attributionURL>http://mutant.tech/</cc:attributionURL>
    </cc:work>

</rdf:RDF>
</metadata>

    <rect id="nail_polish--hoof-" width="32" height="32" fill="none" serif:id="nail_polish [hoof]"/>
    <clipPath id="_clip1">
        <rect width="32" height="32"/>
    </clipPath>
    <g clip-path="url(#_clip1)">
        <g id="outline">
            <path d="m16 11c0-0.758 0.428-1.45 1.106-1.789 0 0 0.379-0.189 0.807-0.404 0.387-0.193 0.701-0.507 0.894-0.894 0.59-1.179 1.404-2.807 1.404-2.807 0.391-0.782 1.225-1.196 2.045-1.09l2.008-4.016h6.472l-3.302 6.605c0.577 0.593 0.746 1.508 0.355 2.289 0 0-0.814 1.629-1.404 2.808-0.58 1.161-1.522 2.103-2.683 2.683l-0.808 0.404c-0.563 0.281-1.225 0.281-1.788 0l-0.125-0.062c1e-3 8e-3 3e-3 0.017 4e-3 0.025l0.055 0.443c0.168 1.342 0.179 2.684 0.04 4.003l0.288-0.095c0.503-0.168 1.054-0.129 1.528 0.109 0.475 0.238 0.836 0.655 1.003 1.16 0 0 0.021 0.064 0.023 0.069 1.26 3.837 1.121 7.913-0.259 11.559h-23.663v-17.828c3.379-3.326 8.096-4.926 12.805-4.337 0.856 0.107 1.443 0.18 1.443 0.18 0.645 0.081 1.181 0.461 1.484 0.985h0.268z"/>
        </g>
        <g id="emoji">
            
                <path d="m2 24.638 5.979-5.814 1.186-0.402 1.835 1.578-9 9v-4.362z" fill="#865E1C"/>
                <path d="m2 15.044c0.808-0.705 1.691-1.306 2.628-1.794-0.149 0.847 2.937 3.745 4.872 5.46-0.336 0.336-1.024 0.401-1.391 0.768-1.827 1.826-3.998 3.997-6.109 6.108v-10.542z" fill="#BB871F"/>
                <path d="m8.109 19.478c-1.163-0.461-2.154-1.302-2.799-2.407-0.678-1.165-0.911-2.521-0.682-3.821 2.408-1.258 5.17-1.775 7.929-1.43 0.856 0.107 1.443 0.18 1.443 0.18s-0.117 1.287-0.238 2.616c-6e-3 0.064-0.012 0.129-0.02 0.193-0.472 0.547-4.696 4.438-5.633 4.669z" fill="#ED96D8"/>
                <path d="m13.742 14.809c-0.206 1.791-1.013 3.462-2.29 4.739l-0.452 0.452-1.433-0.159c-0.506-0.056-0.996-0.18-1.458-0.363l2.701-2.701c0.819-0.819 1.818-1.491 2.932-1.968z" fill="#A04C8C"/>
            
            
                <path d="m8.441 30 4.559-4 1.062-0.476c0.708 0.333 1.378 0.523 1.935 0.476h3e-3s-0.076 1.076-1.385 2.385l-1.615 1.615h-4.559z" fill="#865E1C"/>
                <path d="m2 27 6.335-6.335c0.18 0.651 3.2 3.67 5.727 4.859l-4.476 4.476h-7.586v-3z" fill="#BB871F"/>
                <path d="m13.747 25.839c-1.695-0.39-3.223-1.378-4.276-2.824-0.525-0.72-0.905-1.517-1.136-2.35l3.095-3.095c1.646-1.646 3.877-2.57 6.204-2.57h1.366s0.02 0.163 0.055 0.443c0.253 2.019 0.104 4.04-0.409 5.958-0.356 0.733-3.21 3.795-4.899 4.438z" fill="#ED96D8"/>
                <path d="m18.646 21.401c-0.231 0.864-0.537 1.707-0.913 2.52l-1.733 2.079h-3e-3c-0.765 0.064-1.523 7e-3 -2.25-0.161l2.7-2.7c0.665-0.665 1.404-1.248 2.199-1.738z" fill="#A04C8C"/>
            
            <path d="m11 30 3.249-3.249c0.2 0.688 2.056 1.197 4.209 2.249l-1.969 1h-5.489z" fill="#BB871F"/>
            <path d="m16.489 30c-0.138-0.104-0.273-0.215-0.403-0.331-0.882-0.79-1.513-1.804-1.837-2.918l2.913-2.913c1.209-1.209 2.682-2.119 4.304-2.66 0.317-0.106 0.534-0.178 0.534-0.178 0.989 2.968 1.031 6.1 0.217 9h-5.728z" fill="#ED96D8"/>
            <path d="m27.5 2h-2l-4.5 9h2l4.5-9z" fill="#575757"/>
            <path d="m18 11s0.379-0.19 0.807-0.404c0.775-0.387 1.402-1.014 1.789-1.789 0.59-1.178 1.404-2.807 1.404-2.807l4 2s-0.814 1.629-1.404 2.807c-0.387 0.775-1.014 1.402-1.789 1.789-0.428 0.214-0.807 0.404-0.807 0.404l-4-2z" fill="#ED96D8"/>
        </g>
    </g>
</svg>
