<?xml version="1.0" encoding="UTF-8"?>
<!DOCTYPE svg  PUBLIC '-//W3C//DTD SVG 1.1//EN'  'http://www.w3.org/Graphics/SVG/1.1/DTD/svg11.dtd'>
<svg clip-rule="evenodd" fill-rule="evenodd" stroke-linejoin="round" stroke-miterlimit="2" version="1.1" viewBox="0 0 32 32" xml:space="preserve" xmlns="http://www.w3.org/2000/svg" xmlns:serif="http://www.serif.com/">
<metadata>
<rdf:RDF xmlns:cc="http://web.resource.org/cc/" xmlns:dc="http://purl.org/dc/elements/1.1/" xmlns:rdf="http://www.w3.org/1999/02/22-rdf-syntax-ns#">

     <rdf:Description rdf:about="">
       <dc:title>Mutant Standard emoji 2023.12</dc:title>
     </rdf:Description>

    <cc:work rdf:about="">
        <cc:license rdf:resource="http://creativecommons.org/licenses/by-nc-sa/4.0/"/>
        <cc:attributionName>Caius Nocturne</cc:attributionName>
        <cc:attributionURL>http://mutant.tech/</cc:attributionURL>
    </cc:work>

</rdf:RDF>
</metadata>

    <rect id="ok_hand--hoof-" width="32" height="32" fill="none" serif:id="ok_hand [hoof]"/>
    <clipPath id="_clip1">
        <rect width="32" height="32"/>
    </clipPath>
    <g clip-path="url(#_clip1)">
        <g id="outline">
            <path d="m18.451 1.916c0.196-0.251 0.408-0.492 0.636-0.722 0.357-0.36 0.597-0.603 0.597-0.603 0.768-0.774 2.015-0.79 2.803-0.036 0 0 0.153 0.146 0.382 0.365 1.498 1.434 2.739 3.115 3.666 4.97l2.043 4.085c0.277 0.555 0.422 1.168 0.422 1.789v6.235 1e-3 3.464c0 0.699-0.183 1.387-0.53 1.994-0.658 1.152-2.385 4.175-3.441 6.023-0.89 1.558-2.547 2.519-4.341 2.519h-7.659c-1.292 0-2.504-0.624-3.255-1.675-0.257-0.361-0.581-0.814-0.935-1.31-2.497-3.495-3.839-7.683-3.839-11.978v-1.037c0-0.664 0.329-1.284 0.879-1.656 0.407-0.276 0.896-0.389 1.373-0.328l-0.109-0.273c-0.205-0.512-0.189-1.085 0.043-1.584 0.231-0.5 0.659-0.882 1.182-1.056 0 0 0.625-0.209 1.305-0.436 1.326-0.442 2.715-0.667 4.113-0.667h0.558c-1.089-1.826-1.422-4.039-0.862-6.15 0.201-0.761 0.357-1.348 0.357-1.348 0.139-0.526 0.487-0.972 0.963-1.236s1.039-0.323 1.56-0.162c0.717 0.221 1.415 0.493 2.089 0.812z"/>
        </g>
        <g id="emoji">
            <path d="m20 13.086-2.966-2.882c-1.556-1.511-2.175-3.744-1.619-5.841 0.202-0.761 0.357-1.348 0.357-1.348 0.888 0.274 1.742 0.636 2.55 1.079-0.2 2.114 1.678 8.85 1.678 8.85v0.142z" fill="#093857" fill-rule="nonzero"/>
            <path d="m18.322 4.094c1.131 0.621 2.173 1.401 3.092 2.32l5.586 5.586-4 4-3-2.914v-0.142l-1.494-2.988c-0.936-1.871-0.967-4.013-0.184-5.862z" fill="#112747" fill-rule="nonzero"/>
            <path d="m26.789 10.87c0.139 0.277 0.211 0.583 0.211 0.894v8.236h-6v-7.292s-0.776-1.552-1.6-3.199c-1.15-2.302-0.705-5.08 1.107-6.907 0.357-0.36 0.597-0.602 0.597-0.602s0.153 0.146 0.382 0.365c1.333 1.275 2.436 2.77 3.26 4.419 0.607 1.213 1.352 2.704 2.043 4.086z" fill="#093857" fill-rule="nonzero"/>
            <path d="m21 12.708 6 3v4.292h-6v-6l-0.5-1 0.5-0.292z" fill="#112747"/>
            <path d="m20.47 20.589s4.271-4.553 4.275-4.57l0.56 0.279c1.003 0.486 1.695 1.514 1.695 2.702v2.464c0 0.351-0.092 0.696-0.266 1.001-0.657 1.151-2.381 4.168-3.438 6.016-0.536 0.939-1.535 1.519-2.617 1.519h-7.65c-0.646 0-1.252-0.312-1.627-0.838-0.258-0.36-0.582-0.813-0.936-1.309-0.435-0.61-0.831-1.242-1.187-1.894 1.29-2.414 2.984-2.706 5.018-3.365l0.054 0.108c0.097 0.193 0.254 0.35 0.447 0.447 0.323 0.162 0.843 0.422 1.223 0.612 0.299 0.149 0.653 0.139 0.944-0.027 0.717-0.409 2.076-1.186 2.703-1.544 0.214-0.123 0.375-0.319 0.453-0.552l0.349-1.049z" fill="#1F5F7D"/>
            <path d="m20.485 20.596-5.193-2.596h-1e-3c-2.592 0-4.922-1.578-5.885-3.984-0.238-0.596-0.406-1.016-0.406-1.016s0.626-0.209 1.306-0.435c1.122-0.374 2.297-0.565 3.48-0.565h2.218c0.463 0 0.92 0.108 1.334 0.315l7.407 3.704c-0.313 1.117-0.91 2.146-1.745 2.981-0.718 0.718-1.579 1.259-2.515 1.596z" fill="#093857"/>
            <path d="m9.279 25.959c-1.49-2.726-2.279-5.792-2.279-8.922v-1.037s0.758 0.303 1.684 0.673c2.136 0.855 3.884 2.464 4.913 4.522l0.7 1.399c-1.065 1.745-2.859 3.022-5.018 3.365z" fill="#093857"/>
        </g>
    </g>
</svg>
