<?xml version="1.0" encoding="UTF-8"?>
<!DOCTYPE svg  PUBLIC '-//W3C//DTD SVG 1.1//EN'  'http://www.w3.org/Graphics/SVG/1.1/DTD/svg11.dtd'>
<svg clip-rule="evenodd" fill-rule="evenodd" stroke-linejoin="round" stroke-miterlimit="2" version="1.1" viewBox="0 0 32 32" xml:space="preserve" xmlns="http://www.w3.org/2000/svg" xmlns:serif="http://www.serif.com/">
<metadata>
<rdf:RDF xmlns:cc="http://web.resource.org/cc/" xmlns:dc="http://purl.org/dc/elements/1.1/" xmlns:rdf="http://www.w3.org/1999/02/22-rdf-syntax-ns#">

     <rdf:Description rdf:about="">
       <dc:title>Mutant Standard emoji 2023.12</dc:title>
     </rdf:Description>

    <cc:work rdf:about="">
        <cc:license rdf:resource="http://creativecommons.org/licenses/by-nc-sa/4.0/"/>
        <cc:attributionName>Caius Nocturne</cc:attributionName>
        <cc:attributionURL>http://mutant.tech/</cc:attributionURL>
    </cc:work>

</rdf:RDF>
</metadata>

    <path id="pinched_fingers--hoof-" d="m32 32v-32h-32v32h32z" fill="none" serif:id="pinched_fingers [hoof]"/>
    <clipPath id="_clip1">
        <path d="m32 32v-32h-32v32h32z"/>
    </clipPath>
    <g clip-path="url(#_clip1)">
        <g id="outline">
            <path d="m23.502 1.134c0.43-0.201 0.886-0.351 1.359-0.446 0.45-0.09 0.747-0.149 0.747-0.149 1.039-0.208 2.06 0.431 2.327 1.456 0 0 2.161 8.283 2.815 10.79 0.166 0.636 0.25 1.291 0.25 1.949v0.266c0 0.031-1e-3 0.062-2e-3 0.093 1e-3 0.059 2e-3 0.119 2e-3 0.178v5.845c0 2.466-1.678 4.615-4.071 5.213-5.176 1.294-16.842 4.211-21.959 5.49-1.195 0.299-2.461 0.03-3.432-0.728s-1.538-1.921-1.538-3.153v-3.584c0-1.636 0.996-3.106 2.514-3.714 0.925-0.37 2.155-0.861 2.947-1.179l0.767-1.916c0.728-1.821 1.916-3.421 3.446-4.646l1.662-1.329 1.001-2.003c1.048-2.096 2.593-3.904 4.5-5.266h1e-3c0.287-0.205 0.617-0.326 0.954-0.362 0.716-1.347 1.844-2.493 3.312-3.227 1e-3 -1e-3 2e-3 -1e-3 2e-3 -1e-3 0.677-0.339 1.488-0.266 2.094 0.189l0.037 0.028c0.089 0.067 0.177 0.136 0.265 0.206z"/>
        </g>
        <g id="emoji">
            <path d="m25.5 6.5c-0.245-0.488-1.018-2.59-1.398-3l0.016-0.437 0.02-0.011c0.265-0.143 0.546-0.256 0.836-0.336 0.092-0.026 0.185-0.048 0.279-0.067 0.249-0.049 0.498-0.099 0.747-0.149l1.78 6.825-2.28-2.825z" fill="#2C2C2C"/>
            <path d="m24.129 3.074c0.38 0.41 0.731 0.846 1.049 1.305 0.311 0.45 0.589 0.921 0.834 1.41l1.768 3.536 1.035 3.965c0.123 0.471 0.185 0.957 0.185 1.444v0.266h-5v-1s-0.971-3.399-1.808-6.329c-0.307-1.075-0.151-2.228 0.43-3.182 0.369-0.604 0.887-1.093 1.496-1.426l0.011 0.011z" fill="#1A1A1A"/>
            <path d="m13 12.8s4.309 3.354 5.593 3.181c-0.218 0.557-0.138 1.192 0.222 1.681 0.398 0.54 1.07 0.805 1.73 0.684 1e-3 -1e-3 3e-3 -1e-3 5e-3 -1e-3 0.84-0.155 1.45-0.888 1.45-1.743v-0.647c0.849 0.673 6.993-0.948 6.993-0.948 5e-3 0.087 7e-3 0.176 7e-3 0.264v5.845c0 1.548-1.054 2.897-2.556 3.273-5.176 1.294-16.842 4.211-21.959 5.49-0.597 0.149-1.23 0.015-1.716-0.364-0.485-0.379-0.769-0.961-0.769-1.577v-3.584c0-0.818 0.498-1.553 1.257-1.857 0.925-0.37 2.154-0.862 2.947-1.179 0.508-0.203 0.911-0.606 1.114-1.114 0.209-0.52 0.492-1.229 0.767-1.917 0.6-1.499 1.578-2.817 2.839-3.826l2.076-1.661z" fill="#4D4D4D"/>
            <path d="m18.082 5.975c0.649 1.317 1.912 7.309 1.912 7.309l-1.321 2.523c-0.03 0.057-0.057 0.115-0.08 0.174-0.822 0.553-1.844 0.769-2.845 0.569-1e-3 -1e-3 -1e-3 -1e-3 -2e-3 -1e-3 -1.597-0.319-2.746-1.721-2.746-3.349v-0.4l-0.071 0.057 1.197-2.395c0.902-1.804 2.232-3.361 3.874-4.533l0.082 0.046z" fill="#2C2C2C"/>
            <path d="m18.082 5.975 0.629 0.36c2.115 1.208 2.894 3.873 1.764 6.031l-0.481 0.918-1.406-2.833c-0.716-1.443-0.855-3.022-0.506-4.476z" fill="#1A1A1A"/>
            <path d="m22 15.955v-0.514c0-0.24-0.055-0.476-0.162-0.69-0.379-0.764-1.368-2.758-2.354-4.745-1.373-2.767-0.248-6.124 2.515-7.505l1e-3 -1e-3c1.315 0.986 2.383 2.266 3.118 3.736 1.028 2.056 2.511 5.022 3.314 6.627 0.334 0.669 0.525 1.399 0.561 2.144l-0.579 0.579c-0.905 0.905-2.133 1.414-3.414 1.414-1.095 0-2.151-0.372-3-1.045z" fill="#2C2C2C"/>
        </g>
    </g>
</svg>
