<?xml version="1.0" encoding="UTF-8"?>
<!DOCTYPE svg  PUBLIC '-//W3C//DTD SVG 1.1//EN'  'http://www.w3.org/Graphics/SVG/1.1/DTD/svg11.dtd'>
<svg clip-rule="evenodd" fill-rule="evenodd" stroke-linejoin="round" stroke-miterlimit="2" version="1.1" viewBox="0 0 32 32" xml:space="preserve" xmlns="http://www.w3.org/2000/svg" xmlns:serif="http://www.serif.com/">
<metadata>
<rdf:RDF xmlns:cc="http://web.resource.org/cc/" xmlns:dc="http://purl.org/dc/elements/1.1/" xmlns:rdf="http://www.w3.org/1999/02/22-rdf-syntax-ns#">

     <rdf:Description rdf:about="">
       <dc:title>Mutant Standard emoji 2023.12</dc:title>
     </rdf:Description>

    <cc:work rdf:about="">
        <cc:license rdf:resource="http://creativecommons.org/licenses/by-nc-sa/4.0/"/>
        <cc:attributionName>Caius Nocturne</cc:attributionName>
        <cc:attributionURL>http://mutant.tech/</cc:attributionURL>
    </cc:work>

</rdf:RDF>
</metadata>

    <path id="point_left--hoof-" d="m0 0v32h32v-32h-32z" fill="none" serif:id="point_left [hoof]"/>
    <clipPath id="_clip1">
        <path d="m0 0v32h32v-32h-32z"/>
    </clipPath>
    <g clip-path="url(#_clip1)">
        <g id="outline">
            <path d="m25.109 3.336 0.016 0.011c4.295 2.87 6.875 7.696 6.875 12.864v1.789c0 3.448-1.37 6.754-3.808 9.192s-5.744 3.808-9.192 3.808h-5.002c-1.326 0-2.597-0.527-3.534-1.464s-1.464-2.208-1.464-3.534v-4e-3c0-1.087 0.354-2.138 0.999-2.998-0.188-0.141-0.367-0.296-0.535-0.464-0.937-0.937-1.464-2.208-1.464-3.534v-4e-3c0-0.725 0.158-1.434 0.455-2.08-1.77-0.166-3.51-0.586-5.167-1.249-1.075-0.43-2.031-0.812-2.031-0.812-0.624-0.25-1.081-0.796-1.216-1.455-0.135-0.658 0.069-1.341 0.545-1.816 2.936-2.937 6.918-4.586 11.07-4.586h2.735c-0.99-1.32-1.764-2.794-2.288-4.367v-1e-3c-0.19-0.568-0.114-1.191 0.205-1.698s0.849-0.844 1.444-0.919h1e-3c3.029-0.378 6.099 0.25 8.736 1.788 1.324 0.772 2.519 1.469 2.519 1.469l0.045 0.029 0.056 0.035z"/>
        </g>
        <g id="emoji">
            <path d="m15 23 1 1v4l-1 1h-1.002c-0.795 0-1.558-0.316-2.12-0.878s-0.878-1.325-0.878-2.12v-4e-3c0-0.795 0.316-1.558 0.878-2.12s1.325-0.878 2.12-0.878h1.002zm-1-7 1 1v4l-1 1h-1c-0.796 0-1.559-0.316-2.121-0.879-0.563-0.562-0.879-1.325-0.879-2.121v-2e-3c0-0.795 0.316-1.558 0.878-2.12s1.325-0.878 2.12-0.878h1.002zm0-4-1 3h-2.802c-2.113 0-4.206-0.403-6.167-1.188-1.076-0.43-2.031-0.812-2.031-0.812 2.561-2.561 6.035-4 9.657-4h1.343l1 3zm1e-3 -10h-1e-3c0.658 1.973 1.765 3.765 3.236 5.236l0.764 0.764h4l2-3s-1.195-0.697-2.519-1.469c-2.258-1.317-4.886-1.855-7.48-1.531z" fill="#41186C"/>
            <path d="m13 9v6h2v1h-1v6h1v7h4c2.917 0 5.715-1.159 7.778-3.222s3.222-4.861 3.222-7.778v-1.789c0-4.505-2.252-8.712-6-11.211l-6 3 1 1h-6z" fill="#633A92"/>
            <path d="m15 29v-6h2.5v6h-2.5z" fill="#633A92"/>
        </g>
    </g>
</svg>
