<?xml version="1.0" encoding="UTF-8"?>
<!DOCTYPE svg  PUBLIC '-//W3C//DTD SVG 1.1//EN'  'http://www.w3.org/Graphics/SVG/1.1/DTD/svg11.dtd'>
<svg clip-rule="evenodd" fill-rule="evenodd" stroke-linejoin="round" stroke-miterlimit="2" version="1.1" viewBox="0 0 32 32" xml:space="preserve" xmlns="http://www.w3.org/2000/svg" xmlns:serif="http://www.serif.com/">
<metadata>
<rdf:RDF xmlns:cc="http://web.resource.org/cc/" xmlns:dc="http://purl.org/dc/elements/1.1/" xmlns:rdf="http://www.w3.org/1999/02/22-rdf-syntax-ns#">

     <rdf:Description rdf:about="">
       <dc:title>Mutant Standard emoji 2023.12</dc:title>
     </rdf:Description>

    <cc:work rdf:about="">
        <cc:license rdf:resource="http://creativecommons.org/licenses/by-nc-sa/4.0/"/>
        <cc:attributionName>Caius Nocturne</cc:attributionName>
        <cc:attributionURL>http://mutant.tech/</cc:attributionURL>
    </cc:work>

</rdf:RDF>
</metadata>

    <rect id="point_down--hoof-" width="32" height="32" fill="none" serif:id="point_down [hoof]"/>
    <clipPath id="_clip1">
        <rect width="32" height="32"/>
    </clipPath>
    <g clip-path="url(#_clip1)">
        <g id="outline">
            <path d="m28.699 6.947 0.029 0.045s0.697 1.195 1.469 2.519c1.538 2.637 2.166 5.707 1.788 8.736v1e-3c-0.075 0.595-0.412 1.125-0.919 1.444s-1.13 0.395-1.698 0.205h-1e-3c-1.573-0.524-3.047-1.298-4.367-2.288v2.735c0 4.152-1.649 8.134-4.586 11.07-0.475 0.476-1.158 0.68-1.816 0.545-0.659-0.135-1.205-0.592-1.455-1.216 0 0-0.382-0.956-0.812-2.031-0.663-1.657-1.083-3.397-1.249-5.167-0.646 0.297-1.355 0.455-2.08 0.455h-4e-3c-1.326 0-2.597-0.527-3.534-1.464-0.168-0.168-0.323-0.347-0.464-0.535-0.86 0.645-1.911 0.999-2.998 0.999h-4e-3c-1.326 0-2.597-0.527-3.534-1.464s-1.464-2.208-1.464-3.534v-5.002c0-3.448 1.37-6.754 3.808-9.192s5.744-3.808 9.192-3.808h1.789c5.168 0 9.994 2.58 12.864 6.875l0.011 0.016 0.035 0.056z"/>
        </g>
        <g id="emoji">
            <path d="m19 30c2.561-2.561 4-6.035 4-9.657v-1.343l-3-1-3 1v2.802c0 2.113 0.403 4.206 1.188 6.167 0.43 1.076 0.812 2.031 0.812 2.031zm-5.998-8h-2e-3c-0.796 0-1.559-0.316-2.121-0.879-0.563-0.562-0.879-1.325-0.879-2.121v-1l1-1h4l1 1v1.002c0 0.795-0.316 1.558-0.878 2.12s-1.325 0.878-2.12 0.878zm-7-1h-4e-3c-0.795 0-1.558-0.316-2.12-0.878s-0.878-1.325-0.878-2.12v-1.002l1-1h4l1 1v1.002c0 0.795-0.316 1.558-0.878 2.12s-1.325 0.878-2.12 0.878zm23.998-3.001v1e-3c-1.973-0.658-3.765-1.765-5.236-3.236l-0.764-0.764v-4l3-2s0.697 1.195 1.469 2.519c1.317 2.258 1.855 4.886 1.531 7.48z" fill="#432C1B"/>
            <path d="m23 19h-6v-2h-1v1h-6v-1h-7v-4c0-2.917 1.159-5.715 3.222-7.778s4.861-3.222 7.778-3.222h1.789c4.505 0 8.712 2.252 11.211 6l-3 6-1-1v6z" fill="#6A4E35"/>
            <rect x="3" y="14.5" width="6" height="2.5" fill="#6A4E35"/>
        </g>
    </g>
</svg>
