<?xml version="1.0" encoding="UTF-8"?>
<!DOCTYPE svg  PUBLIC '-//W3C//DTD SVG 1.1//EN'  'http://www.w3.org/Graphics/SVG/1.1/DTD/svg11.dtd'>
<svg clip-rule="evenodd" fill-rule="evenodd" stroke-linejoin="round" stroke-miterlimit="2" version="1.1" viewBox="0 0 32 32" xml:space="preserve" xmlns="http://www.w3.org/2000/svg" xmlns:serif="http://www.serif.com/">
<metadata>
<rdf:RDF xmlns:cc="http://web.resource.org/cc/" xmlns:dc="http://purl.org/dc/elements/1.1/" xmlns:rdf="http://www.w3.org/1999/02/22-rdf-syntax-ns#">

     <rdf:Description rdf:about="">
       <dc:title>Mutant Standard emoji 2023.12</dc:title>
     </rdf:Description>

    <cc:work rdf:about="">
        <cc:license rdf:resource="http://creativecommons.org/licenses/by-nc-sa/4.0/"/>
        <cc:attributionName>Caius Nocturne</cc:attributionName>
        <cc:attributionURL>http://mutant.tech/</cc:attributionURL>
    </cc:work>

</rdf:RDF>
</metadata>

    <path id="point_right--hoof-" d="m32 0v32h-32v-32h32z" fill="none" serif:id="point_right [hoof]"/>
    <clipPath id="_clip1">
        <path d="m32 0v32h-32v-32h32z"/>
    </clipPath>
    <g clip-path="url(#_clip1)">
        <g id="outline">
            <path d="m6.947 3.301 0.045-0.029s1.195-0.697 2.519-1.469c2.637-1.538 5.707-2.166 8.736-1.788h1e-3c0.595 0.075 1.125 0.412 1.444 0.919s0.395 1.13 0.205 1.698v1e-3c-0.524 1.573-1.298 3.047-2.288 4.367h2.735c4.152 0 8.134 1.649 11.07 4.586 0.476 0.475 0.68 1.158 0.545 1.816-0.135 0.659-0.592 1.205-1.216 1.455 0 0-0.956 0.382-2.031 0.812-1.657 0.663-3.397 1.083-5.167 1.249 0.297 0.646 0.455 1.355 0.455 2.08v4e-3c0 1.326-0.527 2.597-1.464 3.534-0.168 0.168-0.347 0.323-0.535 0.464 0.645 0.86 0.999 1.911 0.999 2.998v4e-3c0 1.326-0.527 2.597-1.464 3.534s-2.208 1.464-3.534 1.464h-5.002c-3.448 0-6.754-1.37-9.192-3.808s-3.808-5.744-3.808-9.192v-1.789c0-5.168 2.58-9.994 6.875-12.864l0.016-0.011 0.056-0.035z"/>
        </g>
        <g id="emoji">
            <path d="m18.002 29h-1.002l-1-1v-4l1-1h1.002c0.795 0 1.558 0.316 2.12 0.878s0.878 1.325 0.878 2.12v4e-3c0 0.795-0.316 1.558-0.878 2.12s-1.325 0.878-2.12 0.878zm0.998-7h-1l-1-1v-4l1-1h1.002c0.795 0 1.558 0.316 2.12 0.878s0.878 1.325 0.878 2.12v2e-3c0 0.796-0.316 1.559-0.879 2.121-0.562 0.563-1.325 0.879-2.121 0.879zm1.343-13c3.622 0 7.096 1.439 9.657 4 0 0-0.955 0.382-2.031 0.812-1.961 0.785-4.054 1.188-6.167 1.188h-2.802l-1-3 1-3h1.343zm-6.343-1h-4l-2-3s1.195-0.697 2.519-1.469c2.258-1.317 4.886-1.855 7.48-1.531h1e-3c-0.658 1.973-1.765 3.765-3.236 5.236l-0.764 0.764z" fill="#72820A"/>
            <path d="m19 9v6h-2v1h1v6h-1v7h-4c-2.917 0-5.715-1.159-7.778-3.222s-3.222-4.861-3.222-7.778v-1.789c0-4.505 2.252-8.712 6-11.211l6 3-1 1h6z" fill="#B8D419"/>
            <path d="m17 29v-6h-2.5v6h2.5z" fill="#B8D419"/>
        </g>
    </g>
</svg>
