<?xml version="1.0" encoding="UTF-8"?>
<!DOCTYPE svg  PUBLIC '-//W3C//DTD SVG 1.1//EN'  'http://www.w3.org/Graphics/SVG/1.1/DTD/svg11.dtd'>
<svg clip-rule="evenodd" fill-rule="evenodd" stroke-linejoin="round" stroke-miterlimit="2" version="1.1" viewBox="0 0 32 32" xml:space="preserve" xmlns="http://www.w3.org/2000/svg" xmlns:serif="http://www.serif.com/">
<metadata>
<rdf:RDF xmlns:cc="http://web.resource.org/cc/" xmlns:dc="http://purl.org/dc/elements/1.1/" xmlns:rdf="http://www.w3.org/1999/02/22-rdf-syntax-ns#">

     <rdf:Description rdf:about="">
       <dc:title>Mutant Standard emoji 2023.12</dc:title>
     </rdf:Description>

    <cc:work rdf:about="">
        <cc:license rdf:resource="http://creativecommons.org/licenses/by-nc-sa/4.0/"/>
        <cc:attributionName>Caius Nocturne</cc:attributionName>
        <cc:attributionURL>http://mutant.tech/</cc:attributionURL>
    </cc:work>

</rdf:RDF>
</metadata>

    <rect id="selfie--hoof-" width="32" height="32" fill="none" serif:id="selfie [hoof]"/>
    <clipPath id="_clip1">
        <rect width="32" height="32"/>
    </clipPath>
    <g clip-path="url(#_clip1)">
        <g id="outline">
            <path d="m14 7.816v-3.816c0-1.061 0.421-2.078 1.172-2.828 0.75-0.751 1.767-1.172 2.828-1.172h6c1.061 0 2.078 0.421 2.828 1.172 0.751 0.75 1.172 1.767 1.172 2.828v2.042c1.276 1.546 2 3.507 2 5.563v5.738c0 1.591-0.632 3.118-1.757 4.243l-1.522 1.522-3.335 8.892h-14.994l5.938-9.502-1.73-1.298c-0.993-0.768-1.6-1.938-1.6-3.2v-1.757l-1.879 1.878c-1.17 1.171-3.072 1.171-4.242 0-1.171-1.17-1.171-3.072 0-4.242l0.878-0.879h-0.757c-1.656 0-3-1.344-3-3s1.344-3 3-3h0.757l-0.878-0.879c-1.171-1.17-1.171-3.072 0-4.242 1.17-1.171 3.072-1.171 4.242 0l2 2c1.132 1.131 1.17 2.944 0.115 4.121 0.415 0.464 0.688 1.057 0.75 1.711 0.51-0.773 1.197-1.426 2.014-1.895z"/>
        </g>
        <g id="emoji">
            
                <path d="m25 22-3 8h-10l5-8 1-1h6l1 1z" fill="#13595E"/>
                <path d="m19 11 9 3.5v2.843c-2e-3 0.525-0.104 1.046-0.304 1.531-0.201 0.485-0.498 0.925-0.868 1.298l-1.828 1.828h-8s-2.033-1.525-3.2-2.4c-0.504-0.378-0.8-0.97-0.8-1.6v-4l6-3z" fill="#1B7A76"/>
                <path d="m25 6c0.606 0.404 1.145 0.905 1.59 1.481 0.524 0.676 0.916 1.452 1.151 2.275 0.172 0.601 0.257 1.224 0.259 1.849v2.895h-9v-3.5l6-5z" fill="#0A4547"/>
            
            
                <path d="m26 4c0-0.53-0.211-1.039-0.586-1.414s-0.884-0.586-1.414-0.586h-6c-0.53 0-1.039 0.211-1.414 0.586s-0.586 0.884-0.586 1.414v12c0 0.53 0.211 1.039 0.586 1.414s0.884 0.586 1.414 0.586h6c0.53 0 1.039-0.211 1.414-0.586s0.586-0.884 0.586-1.414v-12z" fill="#fff"/>
                <path d="m23 3h1c0.552 0 1 0.448 1 1v12c0 0.55-0.444 0.997-0.994 1h-6e-3l-1-1h-4l-1 1h-1e-3c-0.265 0-0.519-0.105-0.706-0.293-0.188-0.187-0.293-0.441-0.293-0.706v-12.001c0-0.552 0.448-1 1-1h1v1h4v-1z"/>
                <path d="m22 11c1.105 0 2 0.895 2 2v4h-6v-4c0-1.105 0.895-2 2-2h2zm-1-5c1.104 0 2 0.896 2 2s-0.896 2-2 2-2-0.896-2-2 0.896-2 2-2z" fill="#333"/>
            
            <path d="m13 12.999c0-1.775 1.177-3.335 2.884-3.823 1.929-0.551 4.116-1.176 4.116-1.176v1.737c0 1.34-0.888 2.517-2.176 2.885-2.055 0.587-4.824 1.378-4.824 1.378v-1.001z" fill="#0A4547"/>
            <path d="m8.293 13.293-2 2c-0.39 0.39-0.39 1.024 0 1.414s1.024 0.39 1.414 0l2-2c0.39-0.39 0.39-1.024 0-1.414s-1.024-0.39-1.414 0zm0.707-2.293h-4c-0.552 0-1-0.448-1-1s0.448-1 1-1h4c0.552 0 1 0.448 1 1s-0.448 1-1 1zm0.707-5.707-2-2c-0.39-0.39-1.024-0.39-1.414 0s-0.39 1.024 0 1.414l2 2c0.39 0.39 1.024 0.39 1.414 0s0.39-1.024 0-1.414z" fill="#fff"/>
        </g>
    </g>
</svg>
