<?xml version="1.0" encoding="UTF-8"?>
<!DOCTYPE svg  PUBLIC '-//W3C//DTD SVG 1.1//EN'  'http://www.w3.org/Graphics/SVG/1.1/DTD/svg11.dtd'>
<svg clip-rule="evenodd" fill-rule="evenodd" stroke-linejoin="round" stroke-miterlimit="2" version="1.1" viewBox="0 0 32 32" xml:space="preserve" xmlns="http://www.w3.org/2000/svg" xmlns:serif="http://www.serif.com/">
<metadata>
<rdf:RDF xmlns:cc="http://web.resource.org/cc/" xmlns:dc="http://purl.org/dc/elements/1.1/" xmlns:rdf="http://www.w3.org/1999/02/22-rdf-syntax-ns#">

     <rdf:Description rdf:about="">
       <dc:title>Mutant Standard emoji 2023.12</dc:title>
     </rdf:Description>

    <cc:work rdf:about="">
        <cc:license rdf:resource="http://creativecommons.org/licenses/by-nc-sa/4.0/"/>
        <cc:attributionName>Caius Nocturne</cc:attributionName>
        <cc:attributionURL>http://mutant.tech/</cc:attributionURL>
    </cc:work>

</rdf:RDF>
</metadata>

    <rect id="wave--hoof-" width="32" height="32" fill="none" serif:id="wave [hoof]"/>
    <g id="outline">
        <path d="m19.788 1.365c0.08-0.108 0.169-0.212 0.267-0.31 1.074-1.073 2.816-1.073 3.89 0l2 2c0.756 0.757 0.979 1.846 0.669 2.799 1.79 1.616 3.077 3.722 3.694 6.067 0.342 1.297 0.65 2.468 0.65 2.468l0.012 0.053 0.015 0.064 4e-3 0.019c0.897 4.517-0.519 9.186-3.777 12.443-0.046 0.047-0.093 0.094-0.14 0.141-2.438 2.437-5.745 3.807-9.192 3.807-2.593 0-5.106-0.774-7.23-2.196-0.122 0.442-0.356 0.858-0.702 1.206-0.736 0.739-1.791 0.971-2.727 0.696-0.082 0.113-0.175 0.221-0.276 0.323-1.074 1.073-2.816 1.073-3.89 0l-2-2c-1.073-1.074-1.073-2.816 0-3.89 0.098-0.098 0.202-0.187 0.31-0.267-0.278-0.935-0.05-1.99 0.687-2.729 0.566-0.568 1.319-0.837 2.062-0.806-0.807-1.792-1.236-3.75-1.236-5.753v-1.221c0-0.737 0.406-1.415 1.056-1.763 0.557-0.298 1.215-0.313 1.777-0.054-0.235-1.02-0.357-2.071-0.357-3.135v-1e-3c0-0.672 0.338-1.299 0.899-1.669 0.561-0.371 1.271-0.434 1.889-0.169l0.822 0.352-0.352-0.822c-0.265-0.618-0.202-1.327 0.168-1.888 0.37-0.562 0.998-0.899 1.67-0.899h1e-3c2.287 0 4.517 0.561 6.504 1.608-0.972-1.079-0.938-2.745 0.1-3.784 0.74-0.739 1.797-0.969 2.733-0.69z"/>
    </g>
    <g id="emoji">
        <path d="m7.984 23.556c-1.995-2.202-3.106-5.071-3.106-8.056v-1.221s1.261 0.841 2.314 1.543c0.931 0.621 1.799 1.333 2.591 2.124l1.905 1.906-0.463 0.986-2.233 2.202-1.008 0.516zm3.704-4.943-0.832-0.832c-2.242-2.242-3.502-5.283-3.502-8.454v-1e-3s0.622 0.267 1.395 0.598c1.942 0.832 3.707 2.027 5.2 3.521l1.454 1.453-0.385 1.09-2.315 2.672-1.015-0.047zm13.002-11.763c-0.814 1.628-1.238 3.424-1.238 5.245v0.946l2.476 2.477 3.096-0.62s-0.308-1.171-0.65-2.468c-0.582-2.214-1.877-4.175-3.684-5.58zm-14.239-0.619c3.171 0 6.212 1.259 8.454 3.501l0.832 0.832-0.318 1.068-2.591 2.364-0.806 0.283-1.454-1.453c-1.493-1.494-2.688-3.259-3.52-5.201-0.332-0.772-0.598-1.394-0.598-1.394h1e-3z" fill="#2C2C2C"/>
        <path d="m21.701 12.528 0.143 0.803 1.156 0.885 0.452 0.063v-1.238l5.572 1.857v1e-3c0.774 3.868-0.437 7.866-3.226 10.655l-0.14 0.14c-2.063 2.063-4.861 3.222-7.778 3.222-2.918 0-5.716-1.159-7.779-3.222l-2.128-2.128 3.715-3.714 0.619 0.619 0.619-0.619-1.238-1.239 3.715-3.715 1.238 1.239 0.619-0.619-1.238-1.239 3.715-3.715 1.964 1.964z" fill="#4D4D4D"/>
        <path d="m23.195 14.536c-0.843 0.843-1.051 2.13-0.519 3.196 8e-3 0.015 0.031 0.06 0.061 0.121 0.216 0.432 0.041 0.958-0.391 1.174 0 0-1e-3 0-1e-3 1e-3 -0.432 0.216-0.958 0.041-1.174-0.391l-0.061-0.122c-0.813-1.627-0.568-3.569 0.591-4.939v-1.048l1.751 1.751-0.257 0.257z" fill="#333"/>
        <path d="m5.531 28.47c0.141 0.141 0.219 0.331 0.219 0.53s-0.078 0.389-0.219 0.53h-1e-3c-0.14 0.141-0.331 0.22-0.53 0.22s-0.39-0.079-0.53-0.22c-0.561-0.56-1.441-1.44-2.001-2-0.141-0.141-0.219-0.331-0.219-0.53s0.078-0.389 0.219-0.53h1e-3c0.14-0.141 0.331-0.22 0.53-0.22s0.39 0.079 0.53 0.22c0.561 0.56 1.441 1.44 2.001 2zm2.999-1.016c0.293 0.292 0.294 0.766 2e-3 1.059 0 1e-3 -1e-3 1e-3 -1e-3 2e-3 -0.292 0.293-0.767 0.294-1.06 2e-3 -0.972-0.969-3.029-3.018-4.001-3.986-0.293-0.292-0.294-0.767-2e-3 -1.06l1e-3 -1e-3c0.292-0.293 0.767-0.294 1.06-2e-3 0.972 0.969 3.029 3.017 4.001 3.986zm14-20.984c0.141 0.14 0.22 0.331 0.22 0.53s-0.079 0.39-0.22 0.53c-0.14 0.141-0.331 0.22-0.53 0.22s-0.39-0.079-0.53-0.22c-0.779-0.778-2.222-2.221-3-3-0.141-0.14-0.22-0.331-0.22-0.53s0.079-0.39 0.22-0.53c0.14-0.141 0.331-0.22 0.53-0.22s0.39 0.079 0.53 0.22c0.779 0.778 2.222 2.221 3 3zm2.001-2c0.141 0.141 0.219 0.331 0.219 0.53s-0.078 0.389-0.219 0.53l-1e-3 1e-3c-0.141 0.141-0.331 0.219-0.53 0.219s-0.389-0.078-0.53-0.219c-0.56-0.56-1.44-1.44-2-2.001-0.141-0.14-0.22-0.331-0.22-0.53s0.079-0.39 0.22-0.53v-1e-3c0.141-0.141 0.331-0.219 0.53-0.219s0.389 0.078 0.53 0.219c0.56 0.561 1.44 1.441 2.001 2.001z" fill="#565656"/>
    </g>
</svg>
