<?xml version="1.0" encoding="UTF-8"?>
<!DOCTYPE svg  PUBLIC '-//W3C//DTD SVG 1.1//EN'  'http://www.w3.org/Graphics/SVG/1.1/DTD/svg11.dtd'>
<svg clip-rule="evenodd" fill-rule="evenodd" stroke-linecap="round" stroke-linejoin="round" stroke-miterlimit="1.5" version="1.1" viewBox="0 0 32 32" xml:space="preserve" xmlns="http://www.w3.org/2000/svg">
<metadata>
<rdf:RDF xmlns:cc="http://web.resource.org/cc/" xmlns:dc="http://purl.org/dc/elements/1.1/" xmlns:rdf="http://www.w3.org/1999/02/22-rdf-syntax-ns#">

     <rdf:Description rdf:about="">
       <dc:title>Mutant Standard emoji VIP 2018-04</dc:title>
     </rdf:Description>

    <cc:work rdf:about="">
        <cc:license rdf:resource="http://creativecommons.org/licenses/by-nc-sa/4.0/"/>
        <cc:attributionName>Dzuk</cc:attributionName>
        <cc:attributionURL>http://mutant.tech/</cc:attributionURL>
    </cc:work>

</rdf:RDF>
</metadata>
<rect id="anticipation" width="32" height="32" fill="none"/><clipPath id="_clip1"><rect width="32" height="32"/></clipPath><g clip-path="url(#_clip1)"><g id="outline" fill="none" stroke="#000" stroke-width="4px"><path d="m2 16h5l4-2h10l4 2h5l-6.121-6.121c-0.563-0.563-1.326-0.879-2.122-0.879h-3.049c-0.466 0-0.925 0.108-1.341 0.317-0.586 0.293-1.367 0.683-1.367 0.683s-0.781-0.39-1.367-0.683c-0.416-0.209-0.875-0.317-1.341-0.317h-3.049c-0.796 0-1.559 0.316-2.122 0.879l-6.121 6.121z"/><path d="m2 16s3.078-0.385 5.416-0.677c1.648-0.206 3.308 0.281 4.585 1.344 1.078 0.898 2.349 1.958 3.165 2.638 0.539 0.449 1.218 0.695 1.92 0.695h2.862c0.681 0 1.342-0.232 1.874-0.657 1.419-1.136 4.178-3.343 4.178-3.343h4l-5.843 5.843c-0.752 0.752-1.724 1.244-2.775 1.406-1.585 0.244-4.085 0.628-6.339 0.975-3.005 0.462-5.965-1.068-7.325-3.788-0.24-0.48-0.475-0.949-0.69-1.379-0.652-1.306-1.843-2.261-3.259-2.615-0.917-0.229-1.769-0.442-1.769-0.442z"/></g><g id="emoji"><path d="m26 15h-18v5.5h15l4-3.5-1-2z" fill="#ebebeb"/><path d="m30 16-1-1h-3v2h2l2-1z" fill="#e3131e"/><rect x="7" y="16" width="19" height="1" fill="#6d6d6d"/><path d="m2 16s3.078-0.385 5.416-0.677c1.648-0.206 3.308 0.281 4.585 1.344 1.078 0.898 2.349 1.958 3.165 2.638 0.539 0.449 1.218 0.695 1.92 0.695h2.862c0.681 0 1.342-0.232 1.874-0.657 1.419-1.136 4.178-3.343 4.178-3.343h4l-5.843 5.843c-0.752 0.752-1.724 1.244-2.775 1.406-1.585 0.244-4.085 0.628-6.339 0.975-3.005 0.462-5.965-1.068-7.325-3.788-0.24-0.48-0.475-0.949-0.69-1.379-0.652-1.306-1.843-2.261-3.259-2.615-0.917-0.229-1.769-0.442-1.769-0.442z" fill="#e3131e"/><rect x="7" y="12" width="19" height="4" fill="#ebebeb"/><path d="m2 16h5l1.536-1.536c0.937-0.937 2.209-1.464 3.535-1.464h8.262c1.082 0 2.135 0.351 3 1 1.164 0.873 2.667 2 2.667 2h4l-6.121-6.121c-0.563-0.563-1.326-0.879-2.122-0.879h-3.049c-0.466 0-0.925 0.108-1.341 0.317-0.586 0.293-1.367 0.683-1.367 0.683s-0.781-0.39-1.367-0.683c-0.416-0.209-0.875-0.317-1.341-0.317h-3.049c-0.796 0-1.559 0.316-2.122 0.879l-6.121 6.121z" fill="#e3131e"/></g></g></svg>
