<?xml version="1.0" encoding="UTF-8" standalone="no"?><!DOCTYPE svg PUBLIC "-//W3C//DTD SVG 1.1//EN" "http://www.w3.org/Graphics/SVG/1.1/DTD/svg11.dtd"><svg width="100%" height="100%" viewBox="0 0 32 32" version="1.1" xmlns="http://www.w3.org/2000/svg" xmlns:xlink="http://www.w3.org/1999/xlink" xml:space="preserve" xmlns:serif="http://www.serif.com/" style="fill-rule:evenodd;clip-rule:evenodd;stroke-linecap:round;stroke-linejoin:round;stroke-miterlimit:1.5;">
<metadata>
<rdf:RDF xmlns:cc="http://web.resource.org/cc/"
         xmlns:rdf="http://www.w3.org/1999/02/22-rdf-syntax-ns#"
         xmlns:dc = "http://purl.org/dc/elements/1.1/"
         >

     <rdf:Description rdf:about="">
       <dc:title>Mutant Standard emoji VIP 2018-04</dc:title>
     </rdf:Description>

    <cc:work rdf:about="">
        <cc:license rdf:resource="http://creativecommons.org/licenses/by-nc-sa/4.0/"/>
        <cc:attributionName>Dzuk</cc:attributionName>
        <cc:attributionURL>http://mutant.tech/</cc:attributionURL>
    </cc:work>

</rdf:RDF>
</metadata>
<rect id="cat_tilting_head" x="0" y="0" width="32" height="32" style="fill:none;"/><clipPath id="_clip1"><rect x="0" y="0" width="32" height="32"/></clipPath><g clip-path="url(#_clip1)"><g id="outline"><path d="M26.088,11.585l-5.464,-1.464c-2.578,1.488 -6.082,3.511 -8.66,5l-1.464,5.464c1.047,1.814 2.278,3.945 3.095,5.36c0.585,1.013 1.506,1.789 2.604,2.193c1.022,0.376 2.333,0.858 3.433,1.263c1.393,0.512 2.941,0.379 4.226,-0.363c0.905,-0.522 1.968,-1.136 2.872,-1.658c1.285,-0.742 2.174,-2.016 2.427,-3.478c0.2,-1.155 0.438,-2.532 0.623,-3.605c0.199,-1.153 -0.012,-2.339 -0.597,-3.352c-0.817,-1.415 -2.047,-3.546 -3.095,-5.36Z" style="fill:none;stroke:#000;stroke-width:4px;"/><path d="M29,19.773c0,0.595 -0.146,1.092 -0.438,1.491c-0.292,0.399 -0.752,0.755 -1.381,1.07c-0.528,0.269 -0.874,0.5 -1.036,0.691c-0.163,0.19 -0.267,0.367 -0.312,0.53c-0.045,0.163 -0.067,0.351 -0.067,0.565l0,0.488l-1.988,0l0,-0.674c0,-1.011 0.303,-1.729 0.909,-2.156c0.214,-0.157 0.528,-0.343 0.944,-0.556c0.415,-0.213 0.716,-0.43 0.901,-0.649c0.185,-0.219 0.278,-0.499 0.278,-0.842c0,-0.342 -0.14,-0.629 -0.421,-0.859c-0.281,-0.23 -0.696,-0.345 -1.247,-0.345c-0.55,0 -0.982,0.132 -1.297,0.396c-0.314,0.263 -0.494,0.609 -0.539,1.036l-2.072,0c0.056,-0.978 0.416,-1.761 1.078,-2.35c0.663,-0.59 1.592,-0.885 2.788,-0.885c1.196,0 2.145,0.292 2.847,0.876c0.702,0.584 1.053,1.308 1.053,2.173Zm-5.18,6.065c0.253,-0.247 0.584,-0.371 0.994,-0.371c0.41,0 0.749,0.124 1.019,0.371c0.269,0.247 0.404,0.561 0.404,0.943c0,0.382 -0.135,0.699 -0.404,0.952c-0.27,0.253 -0.609,0.379 -1.019,0.379c-0.41,0 -0.741,-0.126 -0.994,-0.379c-0.253,-0.253 -0.379,-0.57 -0.379,-0.952c0,-0.382 0.126,-0.696 0.379,-0.943Z" style="fill:none;stroke:#000;stroke-width:4px;stroke-linecap:butt;stroke-miterlimit:1.41421;"/><path d="M17.16,12.121c0,0 2.296,-4.319 3.582,-6.737c0.17,-0.321 0.502,-0.524 0.865,-0.531c0.364,-0.006 0.702,0.185 0.884,0.5c1.313,2.275 3.597,6.232 3.597,6.232l-8.928,0.536Z" style="fill:none;stroke:#000;stroke-width:4px;stroke-linecap:square;"/><path d="M15.428,13.121c0,0 -4.888,-0.171 -7.625,-0.267c-0.363,-0.013 -0.705,0.173 -0.892,0.484c-0.187,0.312 -0.191,0.7 -0.009,1.015c1.314,2.275 3.598,6.232 3.598,6.232l4.928,-7.464Z" style="fill:none;stroke:#000;stroke-width:4px;stroke-linecap:square;"/></g><g id="emoji"><path d="M17.16,12.121c0,0 2.296,-4.319 3.582,-6.737c0.17,-0.321 0.502,-0.524 0.865,-0.531c0.364,-0.006 0.702,0.185 0.884,0.5c1.313,2.275 3.597,6.232 3.597,6.232l-8.928,0.536Z" style="fill:#828282;"/><clipPath id="_clip2"><path d="M17.16,12.121c0,0 2.296,-4.319 3.582,-6.737c0.17,-0.321 0.502,-0.524 0.865,-0.531c0.364,-0.006 0.702,0.185 0.884,0.5c1.313,2.275 3.597,6.232 3.597,6.232l-8.928,0.536Z"/></clipPath><g clip-path="url(#_clip2)"><g><path d="M17.16,12.121c0,0 2.296,-4.319 3.582,-6.737c0.17,-0.321 0.502,-0.524 0.865,-0.531c0.364,-0.006 0.702,0.185 0.884,0.5c1.313,2.275 3.597,6.232 3.597,6.232l-8.928,0.536Z" style="fill:#828282;"/><path d="M21.675,4.854l0.034,0.003l0.033,0.003l0.033,0.005l0.033,0.005l0.033,0.007l0.032,0.008l0.032,0.008l0.031,0.01l0.032,0.011l0.03,0.012l0.031,0.013l0.03,0.013l0.029,0.015l0.029,0.016l0.028,0.017l0.028,0.017l0.027,0.019l0.027,0.019l0.026,0.02l0.025,0.022l0.025,0.022l0.024,0.022l0.023,0.024l0.023,0.025l0.021,0.025l0.021,0.026l0.02,0.027l0.02,0.028l0.018,0.028l0.018,0.029l3.597,6.232l-8.928,0.536l3.582,-6.737l0.016,-0.03l0.017,-0.029l0.019,-0.028l0.019,-0.028l0.02,-0.027l0.021,-0.026l0.021,-0.025l0.023,-0.025l0.023,-0.023l0.024,-0.023l0.024,-0.022l0.026,-0.021l0.025,-0.021l0.027,-0.019l0.027,-0.019l0.028,-0.017l0.028,-0.017l0.029,-0.016l0.03,-0.015l0.029,-0.014l0.031,-0.013l0.031,-0.011l0.031,-0.011l0.031,-0.01l0.032,-0.009l0.033,-0.008l0.033,-0.007l0.033,-0.005l0.033,-0.005l0.033,-0.003l0.034,-0.002l0.034,-0.002l0.034,0l0.034,0.001Zm-0.054,1.007l-2.741,5.155l5.533,-0.332l-2.784,-4.823l-0.004,-0.007l-0.004,0.007Z" style="fill:#F59C32;"/></g></g><path d="M15.428,13.121c0,0 -4.888,-0.171 -7.625,-0.267c-0.363,-0.013 -0.705,0.173 -0.892,0.484c-0.187,0.312 -0.191,0.7 -0.009,1.015c1.314,2.275 3.598,6.232 3.598,6.232l4.928,-7.464Z" style="fill:#828282;"/><clipPath id="_clip3"><path d="M15.428,13.121c0,0 -4.888,-0.171 -7.625,-0.267c-0.363,-0.013 -0.705,0.173 -0.892,0.484c-0.187,0.312 -0.191,0.7 -0.009,1.015c1.314,2.275 3.598,6.232 3.598,6.232l4.928,-7.464Z"/></clipPath><g clip-path="url(#_clip3)"><g><path d="M15.428,13.121c0,0 -4.888,-0.171 -7.625,-0.267c-0.363,-0.013 -0.705,0.173 -0.892,0.484c-0.187,0.312 -0.191,0.7 -0.009,1.015c1.314,2.275 3.598,6.232 3.598,6.232l4.928,-7.464Z" style="fill:#828282;"/><path d="M7.803,12.854l7.625,0.267l-4.928,7.464l-3.598,-6.232l-0.016,-0.03l-0.016,-0.03l-0.014,-0.03l-0.013,-0.031l-0.013,-0.031l-0.011,-0.032l-0.01,-0.031l-0.009,-0.032l-0.007,-0.033l-0.007,-0.032l-0.006,-0.032l-0.004,-0.033l-0.004,-0.033l-0.002,-0.033l-0.002,-0.033l0,-0.033l0.001,-0.032l0.002,-0.033l0.003,-0.033l0.004,-0.033l0.005,-0.032l0.006,-0.033l0.008,-0.032l0.008,-0.032l0.01,-0.032l0.01,-0.031l0.012,-0.032l0.012,-0.031l0.014,-0.03l0.015,-0.031l0.016,-0.029l0.017,-0.03l0.018,-0.029l0.019,-0.028l0.02,-0.027l0.02,-0.027l0.022,-0.025l0.022,-0.025l0.023,-0.024l0.023,-0.024l0.025,-0.022l0.025,-0.022l0.025,-0.021l0.027,-0.019l0.027,-0.019l0.027,-0.018l0.028,-0.017l0.029,-0.017l0.029,-0.015l0.03,-0.014l0.03,-0.013l0.031,-0.013l0.031,-0.011l0.031,-0.01l0.032,-0.009l0.032,-0.009l0.032,-0.007l0.033,-0.006l0.033,-0.005l0.033,-0.004l0.034,-0.003l0.033,-0.001l0.034,-0.001l0.034,0.001Zm-0.031,1.007l2.785,4.823l3.054,-4.626l-5.834,-0.204l-0.009,-0.001l0.004,0.008Z" style="fill:#F59C32;"/></g></g><path d="M25.588,10.719l-6.696,0.402l-5.196,3l-3.696,5.598c0,0 2.281,3.95 3.595,6.226c0.585,1.013 1.506,1.789 2.604,2.193c1.022,0.376 2.333,0.858 3.433,1.263c1.393,0.512 2.941,0.379 4.226,-0.363c0.905,-0.522 1.968,-1.136 2.872,-1.658c1.285,-0.742 2.174,-2.016 2.427,-3.478c0.2,-1.155 0.438,-2.532 0.623,-3.605c0.199,-1.153 -0.012,-2.339 -0.597,-3.352c-1.314,-2.276 -3.595,-6.226 -3.595,-6.226Z" style="fill:#F59C32;"/><path d="M15.83,19.817c-0.276,-0.478 -0.888,-0.642 -1.366,-0.366c-0.478,0.276 -0.642,0.888 -0.366,1.366c0.305,0.529 0.695,1.203 1,1.732c0.276,0.478 0.888,0.642 1.366,0.366c0.478,-0.276 0.642,-0.888 0.366,-1.366c-0.305,-0.529 -0.694,-1.203 -1,-1.732Z"/><path d="M24.49,14.817c-0.276,-0.478 -0.887,-0.642 -1.366,-0.366c-0.478,0.276 -0.642,0.888 -0.366,1.366c0.306,0.529 0.695,1.203 1,1.732c0.276,0.478 0.888,0.642 1.366,0.366c0.479,-0.276 0.643,-0.888 0.366,-1.366c-0.305,-0.529 -0.694,-1.203 -1,-1.732Z"/><path d="M22.294,23.013c0,0 -1.15,-0.308 -2.232,-0.598c-0.312,-0.084 -0.544,-0.348 -0.586,-0.668c-0.042,-0.321 0.113,-0.636 0.393,-0.798c0.592,-0.342 1.258,-0.726 1.85,-1.068c0.28,-0.162 0.631,-0.139 0.887,0.058c0.257,0.197 0.37,0.53 0.286,0.842c-0.29,1.082 -0.598,2.232 -0.598,2.232Z"/><path d="M21.794,22.147c0,0 0.5,0.866 1,1.732c0.553,0.957 0.225,2.18 -0.732,2.732c-0.171,0.099 -0.343,0.198 -0.507,0.293c-0.784,0.453 -1.716,0.576 -2.591,0.341c0,0 0,0 0,0" style="fill:none;stroke:#000;stroke-width:1px;stroke-linecap:butt;"/><path d="M21.794,22.147c0,0 0.5,0.866 1,1.732c0.265,0.46 0.702,0.795 1.215,0.932c0.512,0.137 1.058,0.065 1.517,-0.2c0.172,-0.099 0.343,-0.198 0.508,-0.293c0.784,-0.452 1.356,-1.198 1.59,-2.073c0,0 0,0 0,0" style="fill:none;stroke:#000;stroke-width:1px;stroke-linecap:butt;"/></g><path d="M12.229,6.016c0,0.784 -0.192,1.439 -0.577,1.964c-0.384,0.525 -0.991,0.995 -1.819,1.409c-0.695,0.355 -1.15,0.658 -1.365,0.91c-0.214,0.251 -0.351,0.484 -0.41,0.699c-0.059,0.214 -0.089,0.462 -0.089,0.743l0,0.644l-2.618,0l0,-0.888c0,-1.331 0.399,-2.278 1.198,-2.84c0.281,-0.207 0.695,-0.451 1.242,-0.732c0.548,-0.282 0.943,-0.566 1.188,-0.855c0.244,-0.288 0.366,-0.658 0.366,-1.109c0,-0.451 -0.185,-0.829 -0.555,-1.132c-0.37,-0.303 -0.917,-0.455 -1.642,-0.455c-0.725,0 -1.294,0.174 -1.709,0.522c-0.414,0.347 -0.651,0.802 -0.71,1.364l-2.729,0c0.074,-1.287 0.547,-2.318 1.42,-3.095c0.873,-0.777 2.097,-1.165 3.672,-1.165c1.576,0 2.826,0.385 3.75,1.154c0.925,0.769 1.387,1.723 1.387,2.862Zm-6.823,7.988c0.333,-0.325 0.769,-0.488 1.309,-0.488c0.54,0 0.988,0.163 1.343,0.488c0.355,0.326 0.532,0.74 0.532,1.243c0,0.503 -0.177,0.921 -0.532,1.254c-0.355,0.333 -0.803,0.499 -1.343,0.499c-0.54,0 -0.976,-0.166 -1.309,-0.499c-0.333,-0.333 -0.499,-0.751 -0.499,-1.254c0,-0.503 0.166,-0.917 0.499,-1.243Z" style="fill:none;stroke:#000;stroke-width:4px;stroke-linecap:butt;stroke-miterlimit:1.41421;"/><path d="M12.229,6.016c0,0.784 -0.192,1.439 -0.577,1.964c-0.384,0.525 -0.991,0.995 -1.819,1.409c-0.695,0.355 -1.15,0.658 -1.365,0.91c-0.214,0.251 -0.351,0.484 -0.41,0.699c-0.059,0.214 -0.089,0.462 -0.089,0.743l0,0.644l-2.618,0l0,-0.888c0,-1.331 0.399,-2.278 1.198,-2.84c0.281,-0.207 0.695,-0.451 1.242,-0.732c0.548,-0.282 0.943,-0.566 1.188,-0.855c0.244,-0.288 0.366,-0.658 0.366,-1.109c0,-0.451 -0.185,-0.829 -0.555,-1.132c-0.37,-0.303 -0.917,-0.455 -1.642,-0.455c-0.725,0 -1.294,0.174 -1.709,0.522c-0.414,0.347 -0.651,0.802 -0.71,1.364l-2.729,0c0.074,-1.287 0.547,-2.318 1.42,-3.095c0.873,-0.777 2.097,-1.165 3.672,-1.165c1.576,0 2.826,0.385 3.75,1.154c0.925,0.769 1.387,1.723 1.387,2.862Zm-6.823,7.988c0.333,-0.325 0.769,-0.488 1.309,-0.488c0.54,0 0.988,0.163 1.343,0.488c0.355,0.326 0.532,0.74 0.532,1.243c0,0.503 -0.177,0.921 -0.532,1.254c-0.355,0.333 -0.803,0.499 -1.343,0.499c-0.54,0 -0.976,-0.166 -1.309,-0.499c-0.333,-0.333 -0.499,-0.751 -0.499,-1.254c0,-0.503 0.166,-0.917 0.499,-1.243Z" style="fill:#982eee;fill-rule:nonzero;"/></g></svg>