<?xml version="1.0" encoding="UTF-8"?>
<!DOCTYPE svg  PUBLIC '-//W3C//DTD SVG 1.1//EN'  'http://www.w3.org/Graphics/SVG/1.1/DTD/svg11.dtd'>
<svg clip-rule="evenodd" fill-rule="evenodd" stroke-linecap="round" stroke-linejoin="round" stroke-miterlimit="1.5" version="1.1" viewBox="0 0 32 32" xml:space="preserve" xmlns="http://www.w3.org/2000/svg">
<metadata>
<rdf:RDF xmlns:cc="http://web.resource.org/cc/" xmlns:dc="http://purl.org/dc/elements/1.1/" xmlns:rdf="http://www.w3.org/1999/02/22-rdf-syntax-ns#">

     <rdf:Description rdf:about="">
       <dc:title>Mutant Standard emoji VIP 2018-04</dc:title>
     </rdf:Description>

    <cc:work rdf:about="">
        <cc:license rdf:resource="http://creativecommons.org/licenses/by-nc-sa/4.0/"/>
        <cc:attributionName>Dzuk</cc:attributionName>
        <cc:attributionURL>http://mutant.tech/</cc:attributionURL>
    </cc:work>

</rdf:RDF>
</metadata>
<rect id="cat_tilting_head" width="32" height="32" fill="none"/><clipPath id="_clip1"><rect width="32" height="32"/></clipPath><g clip-path="url(#_clip1)"><g id="outline" fill="none" stroke="#000" stroke-width="4px"><path d="m26.088 11.585-5.464-1.464c-2.578 1.488-6.082 3.511-8.66 5l-1.464 5.464c1.047 1.814 2.278 3.945 3.095 5.36 0.585 1.013 1.506 1.789 2.604 2.193 1.022 0.376 2.333 0.858 3.433 1.263 1.393 0.512 2.941 0.379 4.226-0.363 0.905-0.522 1.968-1.136 2.872-1.658 1.285-0.742 2.174-2.016 2.427-3.478 0.2-1.155 0.438-2.532 0.623-3.605 0.199-1.153-0.012-2.339-0.597-3.352-0.817-1.415-2.047-3.546-3.095-5.36z"/><path d="m29 19.773c0 0.595-0.146 1.092-0.438 1.491s-0.752 0.755-1.381 1.07c-0.528 0.269-0.874 0.5-1.036 0.691-0.163 0.19-0.267 0.367-0.312 0.53s-0.067 0.351-0.067 0.565v0.488h-1.988v-0.674c0-1.011 0.303-1.729 0.909-2.156 0.214-0.157 0.528-0.343 0.944-0.556 0.415-0.213 0.716-0.43 0.901-0.649s0.278-0.499 0.278-0.842c0-0.342-0.14-0.629-0.421-0.859s-0.696-0.345-1.247-0.345c-0.55 0-0.982 0.132-1.297 0.396-0.314 0.263-0.494 0.609-0.539 1.036h-2.072c0.056-0.978 0.416-1.761 1.078-2.35 0.663-0.59 1.592-0.885 2.788-0.885s2.145 0.292 2.847 0.876 1.053 1.308 1.053 2.173zm-5.18 6.065c0.253-0.247 0.584-0.371 0.994-0.371s0.749 0.124 1.019 0.371c0.269 0.247 0.404 0.561 0.404 0.943s-0.135 0.699-0.404 0.952c-0.27 0.253-0.609 0.379-1.019 0.379s-0.741-0.126-0.994-0.379-0.379-0.57-0.379-0.952 0.126-0.696 0.379-0.943z" stroke-linecap="butt" stroke-miterlimit="1.4142"/><path d="m17.16 12.121s2.296-4.319 3.582-6.737c0.17-0.321 0.502-0.524 0.865-0.531 0.364-6e-3 0.702 0.185 0.884 0.5 1.313 2.275 3.597 6.232 3.597 6.232l-8.928 0.536z" stroke-linecap="square"/><path d="m15.428 13.121s-4.888-0.171-7.625-0.267c-0.363-0.013-0.705 0.173-0.892 0.484-0.187 0.312-0.191 0.7-9e-3 1.015 1.314 2.275 3.598 6.232 3.598 6.232l4.928-7.464z" stroke-linecap="square"/></g><g id="emoji"><path d="m17.16 12.121s2.296-4.319 3.582-6.737c0.17-0.321 0.502-0.524 0.865-0.531 0.364-6e-3 0.702 0.185 0.884 0.5 1.313 2.275 3.597 6.232 3.597 6.232l-8.928 0.536z" fill="#828282"/><clipPath id="_clip2"><path d="m17.16 12.121s2.296-4.319 3.582-6.737c0.17-0.321 0.502-0.524 0.865-0.531 0.364-6e-3 0.702 0.185 0.884 0.5 1.313 2.275 3.597 6.232 3.597 6.232l-8.928 0.536z"/></clipPath><g clip-path="url(#_clip2)"><path d="m17.16 12.121s2.296-4.319 3.582-6.737c0.17-0.321 0.502-0.524 0.865-0.531 0.364-6e-3 0.702 0.185 0.884 0.5 1.313 2.275 3.597 6.232 3.597 6.232l-8.928 0.536z" fill="#828282"/><path d="m21.675 4.854 0.034 3e-3 0.033 3e-3 0.066 0.01 0.033 7e-3 0.064 0.016 0.031 0.01 0.032 0.011 0.03 0.012 0.031 0.013 0.03 0.013 0.029 0.015 0.029 0.016 0.056 0.034 0.054 0.038 0.026 0.02 0.05 0.044 0.024 0.022 0.023 0.024 0.023 0.025 0.021 0.025 0.021 0.026 0.02 0.027 0.02 0.028 0.018 0.028 0.018 0.029 3.597 6.232-8.928 0.536 3.582-6.737 0.016-0.03 0.017-0.029 0.038-0.056 0.02-0.027 0.021-0.026 0.021-0.025 0.023-0.025 0.023-0.023 0.024-0.023 0.024-0.022 0.026-0.021 0.025-0.021 0.054-0.038 0.056-0.034 0.029-0.016 0.03-0.015 0.029-0.014 0.031-0.013 0.062-0.022 0.031-0.01 0.032-9e-3 0.033-8e-3 0.033-7e-3 0.066-0.01 0.033-3e-3 0.068-4e-3h0.034l0.034 1e-3zm-0.054 1.007-2.741 5.155 5.533-0.332-2.784-4.823-4e-3 -7e-3 -4e-3 7e-3z" fill="#F59C32"/></g><path d="m15.428 13.121s-4.888-0.171-7.625-0.267c-0.363-0.013-0.705 0.173-0.892 0.484-0.187 0.312-0.191 0.7-9e-3 1.015 1.314 2.275 3.598 6.232 3.598 6.232l4.928-7.464z" fill="#828282"/><clipPath id="_clip3"><path d="m15.428 13.121s-4.888-0.171-7.625-0.267c-0.363-0.013-0.705 0.173-0.892 0.484-0.187 0.312-0.191 0.7-9e-3 1.015 1.314 2.275 3.598 6.232 3.598 6.232l4.928-7.464z"/></clipPath><g clip-path="url(#_clip3)"><path d="m15.428 13.121s-4.888-0.171-7.625-0.267c-0.363-0.013-0.705 0.173-0.892 0.484-0.187 0.312-0.191 0.7-9e-3 1.015 1.314 2.275 3.598 6.232 3.598 6.232l4.928-7.464z" fill="#828282"/><path d="m7.803 12.854 7.625 0.267-4.928 7.464-3.598-6.232-0.032-0.06-0.014-0.03-0.026-0.062-0.011-0.032-0.01-0.031-9e-3 -0.032-7e-3 -0.033-7e-3 -0.032-6e-3 -0.032-8e-3 -0.066-4e-3 -0.066v-0.033l1e-3 -0.032 2e-3 -0.033 3e-3 -0.033 4e-3 -0.033 5e-3 -0.032 6e-3 -0.033 0.016-0.064 0.01-0.032 0.01-0.031 0.012-0.032 0.012-0.031 0.014-0.03 0.015-0.031 0.016-0.029 0.017-0.03 0.018-0.029 0.019-0.028 0.04-0.054 0.044-0.05 0.046-0.048 0.05-0.044 0.025-0.021 0.054-0.038 0.027-0.018 0.028-0.017 0.029-0.017 0.029-0.015 0.03-0.014 0.03-0.013 0.031-0.013 0.031-0.011 0.031-0.01 0.064-0.018 0.032-7e-3 0.033-6e-3 0.033-5e-3 0.033-4e-3 0.034-3e-3 0.033-1e-3 0.034-1e-3 0.034 1e-3zm-0.031 1.007 2.785 4.823 3.054-4.626-5.834-0.204-9e-3 -1e-3 4e-3 8e-3z" fill="#F59C32"/></g><path d="m25.588 10.719-6.696 0.402-5.196 3-3.696 5.598s2.281 3.95 3.595 6.226c0.585 1.013 1.506 1.789 2.604 2.193 1.022 0.376 2.333 0.858 3.433 1.263 1.393 0.512 2.941 0.379 4.226-0.363 0.905-0.522 1.968-1.136 2.872-1.658 1.285-0.742 2.174-2.016 2.427-3.478 0.2-1.155 0.438-2.532 0.623-3.605 0.199-1.153-0.012-2.339-0.597-3.352-1.314-2.276-3.595-6.226-3.595-6.226z" fill="#F59C32"/><path d="m15.83 19.817c-0.276-0.478-0.888-0.642-1.366-0.366s-0.642 0.888-0.366 1.366c0.305 0.529 0.695 1.203 1 1.732 0.276 0.478 0.888 0.642 1.366 0.366s0.642-0.888 0.366-1.366c-0.305-0.529-0.694-1.203-1-1.732z"/><path d="m24.49 14.817c-0.276-0.478-0.887-0.642-1.366-0.366-0.478 0.276-0.642 0.888-0.366 1.366 0.306 0.529 0.695 1.203 1 1.732 0.276 0.478 0.888 0.642 1.366 0.366 0.479-0.276 0.643-0.888 0.366-1.366-0.305-0.529-0.694-1.203-1-1.732z"/><path d="m22.294 23.013s-1.15-0.308-2.232-0.598c-0.312-0.084-0.544-0.348-0.586-0.668-0.042-0.321 0.113-0.636 0.393-0.798 0.592-0.342 1.258-0.726 1.85-1.068 0.28-0.162 0.631-0.139 0.887 0.058 0.257 0.197 0.37 0.53 0.286 0.842-0.29 1.082-0.598 2.232-0.598 2.232z"/><path d="m21.794 22.147 1 1.732c0.553 0.957 0.225 2.18-0.732 2.732-0.171 0.099-0.343 0.198-0.507 0.293-0.784 0.453-1.716 0.576-2.591 0.341" fill="none" stroke="#000" stroke-linecap="butt" stroke-width="1px"/><path d="m21.794 22.147 1 1.732c0.265 0.46 0.702 0.795 1.215 0.932 0.512 0.137 1.058 0.065 1.517-0.2 0.172-0.099 0.343-0.198 0.508-0.293 0.784-0.452 1.356-1.198 1.59-2.073" fill="none" stroke="#000" stroke-linecap="butt" stroke-width="1px"/></g><path d="m12.229 6.016c0 0.784-0.192 1.439-0.577 1.964-0.384 0.525-0.991 0.995-1.819 1.409-0.695 0.355-1.15 0.658-1.365 0.91-0.214 0.251-0.351 0.484-0.41 0.699-0.059 0.214-0.089 0.462-0.089 0.743v0.644h-2.618v-0.888c0-1.331 0.399-2.278 1.198-2.84 0.281-0.207 0.695-0.451 1.242-0.732 0.548-0.282 0.943-0.566 1.188-0.855 0.244-0.288 0.366-0.658 0.366-1.109s-0.185-0.829-0.555-1.132-0.917-0.455-1.642-0.455-1.294 0.174-1.709 0.522c-0.414 0.347-0.651 0.802-0.71 1.364h-2.729c0.074-1.287 0.547-2.318 1.42-3.095s2.097-1.165 3.672-1.165c1.576 0 2.826 0.385 3.75 1.154 0.925 0.769 1.387 1.723 1.387 2.862zm-6.823 7.988c0.333-0.325 0.769-0.488 1.309-0.488s0.988 0.163 1.343 0.488c0.355 0.326 0.532 0.74 0.532 1.243s-0.177 0.921-0.532 1.254-0.803 0.499-1.343 0.499-0.976-0.166-1.309-0.499-0.499-0.751-0.499-1.254 0.166-0.917 0.499-1.243z" fill="none" stroke="#000" stroke-linecap="butt" stroke-miterlimit="1.4142" stroke-width="4px"/><path d="m12.229 6.016c0 0.784-0.192 1.439-0.577 1.964-0.384 0.525-0.991 0.995-1.819 1.409-0.695 0.355-1.15 0.658-1.365 0.91-0.214 0.251-0.351 0.484-0.41 0.699-0.059 0.214-0.089 0.462-0.089 0.743v0.644h-2.618v-0.888c0-1.331 0.399-2.278 1.198-2.84 0.281-0.207 0.695-0.451 1.242-0.732 0.548-0.282 0.943-0.566 1.188-0.855 0.244-0.288 0.366-0.658 0.366-1.109s-0.185-0.829-0.555-1.132-0.917-0.455-1.642-0.455-1.294 0.174-1.709 0.522c-0.414 0.347-0.651 0.802-0.71 1.364h-2.729c0.074-1.287 0.547-2.318 1.42-3.095s2.097-1.165 3.672-1.165c1.576 0 2.826 0.385 3.75 1.154 0.925 0.769 1.387 1.723 1.387 2.862zm-6.823 7.988c0.333-0.325 0.769-0.488 1.309-0.488s0.988 0.163 1.343 0.488c0.355 0.326 0.532 0.74 0.532 1.243s-0.177 0.921-0.532 1.254-0.803 0.499-1.343 0.499-0.976-0.166-1.309-0.499-0.499-0.751-0.499-1.254 0.166-0.917 0.499-1.243z" fill="#982eee" fill-rule="nonzero"/></g></svg>
