<?xml version="1.0" encoding="UTF-8" standalone="no"?><!DOCTYPE svg PUBLIC "-//W3C//DTD SVG 1.1//EN" "http://www.w3.org/Graphics/SVG/1.1/DTD/svg11.dtd"><svg width="100%" height="100%" viewBox="0 0 32 32" version="1.1" xmlns="http://www.w3.org/2000/svg" xmlns:xlink="http://www.w3.org/1999/xlink" xml:space="preserve" xmlns:serif="http://www.serif.com/" style="fill-rule:evenodd;clip-rule:evenodd;stroke-linecap:round;stroke-linejoin:round;stroke-miterlimit:1.5;">
<metadata>
<rdf:RDF xmlns:cc="http://web.resource.org/cc/"
         xmlns:rdf="http://www.w3.org/1999/02/22-rdf-syntax-ns#"
         xmlns:dc = "http://purl.org/dc/elements/1.1/"
         >

     <rdf:Description rdf:about="">
       <dc:title>Mutant Standard emoji VIP 2018-04</dc:title>
     </rdf:Description>

    <cc:work rdf:about="">
        <cc:license rdf:resource="http://creativecommons.org/licenses/by-nc-sa/4.0/"/>
        <cc:attributionName>Dzuk</cc:attributionName>
        <cc:attributionURL>http://mutant.tech/</cc:attributionURL>
    </cc:work>

</rdf:RDF>
</metadata>
<rect id="dog_tilting_head" x="0" y="0" width="32" height="32" style="fill:none;"/><clipPath id="_clip1"><rect x="0" y="0" width="32" height="32"/></clipPath><g clip-path="url(#_clip1)"><g id="outline"><path d="M24.187,9.232l-6.331,-0.964l-6.928,4l-2.33,5.964c0,0 2.845,4.928 4.243,7.349c0.494,0.855 1.229,1.545 2.114,1.982c0.785,0.388 1.794,0.887 2.708,1.339c1.499,0.741 3.269,0.684 4.717,-0.152c1.246,-0.719 2.779,-1.604 4.025,-2.324c1.448,-0.835 2.382,-2.34 2.49,-4.008c0.065,-1.018 0.138,-2.142 0.194,-3.015c0.064,-0.985 -0.166,-1.967 -0.659,-2.822c-1.398,-2.421 -4.243,-7.349 -4.243,-7.349Z" style="fill:none;stroke:#000;stroke-width:4px;"/><path d="M20.065,7.17c-0.316,0.065 -0.619,0.18 -0.898,0.341c-0.513,0.296 -1.311,0.757 -1.311,0.757l2.732,0.732c0,0 0.706,1.223 1.28,2.215c0.455,0.79 1.245,1.329 2.146,1.466c1.867,0.285 4.905,0.747 4.905,0.747c0,0 -1.257,-2.977 -2.178,-5.162c-0.556,-1.318 -1.965,-2.06 -3.366,-1.773c-1.225,0.251 -2.602,0.533 -3.31,0.677Z" style="fill:none;stroke:#000;stroke-width:4px;stroke-linecap:butt;"/><path d="M8.873,13.632c0.214,-0.241 0.466,-0.446 0.745,-0.607c0.512,-0.296 1.31,-0.757 1.31,-0.757l-0.732,2.732c0,0 0.706,1.223 1.279,2.215c0.456,0.79 0.528,1.743 0.196,2.592c-0.687,1.759 -1.805,4.621 -1.805,4.621c0,0 -1.95,-2.576 -3.382,-4.467c-0.863,-1.14 -0.801,-2.731 0.148,-3.801c0.83,-0.936 1.762,-1.987 2.241,-2.528Z" style="fill:none;stroke:#000;stroke-width:4px;stroke-linecap:butt;"/></g><g id="emoji"><path d="M24.187,9.232l-5.465,-1.464l-8.66,5l-1.464,5.464c0,0 2.845,4.928 4.243,7.349c0.494,0.855 1.229,1.545 2.114,1.982c0.785,0.388 1.794,0.887 2.708,1.339c1.499,0.741 3.269,0.684 4.717,-0.152c1.246,-0.719 2.779,-1.604 4.025,-2.324c1.448,-0.835 2.382,-2.34 2.49,-4.008c0.065,-1.018 0.138,-2.142 0.194,-3.015c0.064,-0.985 -0.166,-1.967 -0.659,-2.822c-1.398,-2.421 -4.243,-7.349 -4.243,-7.349Z" style="fill:#be8b40;"/><path d="M14.928,19.196c-0.276,-0.478 -0.888,-0.642 -1.366,-0.366c-0.478,0.276 -0.642,0.888 -0.366,1.366c0.306,0.529 0.695,1.203 1,1.732c0.276,0.478 0.888,0.642 1.366,0.366c0.478,-0.276 0.642,-0.887 0.366,-1.366c-0.305,-0.529 -0.694,-1.203 -1,-1.732Z"/><path d="M23.588,14.196c-0.276,-0.478 -0.887,-0.642 -1.366,-0.366c-0.478,0.276 -0.642,0.888 -0.366,1.366c0.306,0.529 0.695,1.203 1,1.732c0.277,0.478 0.888,0.642 1.366,0.366c0.479,-0.276 0.643,-0.887 0.366,-1.366c-0.305,-0.529 -0.694,-1.203 -1,-1.732Z"/><path d="M19.777,22.489c-0.378,0.023 -0.736,-0.17 -0.926,-0.498c-0.06,-0.105 -0.126,-0.218 -0.191,-0.331c-0.276,-0.478 -0.112,-1.09 0.366,-1.366c0.529,-0.305 1.203,-0.694 1.732,-1c0.479,-0.276 1.09,-0.112 1.366,0.366c0.065,0.113 0.131,0.226 0.191,0.331c0.19,0.328 0.178,0.735 -0.031,1.051c-0.365,0.552 -0.892,1.35 -0.892,1.35c0,0 -0.954,0.058 -1.615,0.097Z"/><path d="M20.392,20.66c0,0 0.804,1.393 1.5,2.598c0.266,0.46 0.337,1.006 0.2,1.518c-0.137,0.512 -0.472,0.949 -0.932,1.214c-0.171,0.099 -0.342,0.198 -0.507,0.293c-0.784,0.453 -1.716,0.576 -2.591,0.341c0,0 0,0 0,0" style="fill:none;stroke:#000;stroke-width:1px;stroke-linecap:butt;"/><path d="M20.392,20.66c0,0 0.804,1.393 1.5,2.598c0.266,0.46 0.702,0.795 1.215,0.932c0.512,0.137 1.058,0.066 1.517,-0.2c0.172,-0.099 0.343,-0.197 0.508,-0.293c0.784,-0.452 1.356,-1.198 1.59,-2.073c0,0 0,0 0,0" style="fill:none;stroke:#000;stroke-width:1px;stroke-linecap:butt;"/><path d="M20.065,7.17c-0.316,0.065 -0.619,0.18 -0.898,0.341c-0.513,0.296 -1.311,0.757 -1.311,0.757c0,0 0.799,0.214 1.532,0.41c0.769,0.206 1.424,0.709 1.822,1.398c0.208,0.361 0.442,0.766 0.658,1.139c0.455,0.79 1.245,1.329 2.146,1.466c1.867,0.285 4.905,0.747 4.905,0.747c0,0 -1.257,-2.977 -2.178,-5.162c-0.556,-1.318 -1.965,-2.06 -3.366,-1.773c-1.225,0.251 -2.602,0.533 -3.31,0.677Z" style="fill:#735427;"/><path d="M8.873,13.632c0.214,-0.241 0.466,-0.446 0.745,-0.607c0.512,-0.296 1.31,-0.757 1.31,-0.757c0,0 -0.214,0.798 -0.41,1.532c-0.206,0.768 -0.098,1.587 0.299,2.276c0.209,0.361 0.443,0.766 0.658,1.139c0.456,0.79 0.528,1.743 0.196,2.592c-0.687,1.759 -1.805,4.621 -1.805,4.621c0,0 -1.95,-2.576 -3.382,-4.467c-0.863,-1.14 -0.801,-2.731 0.148,-3.801c0.83,-0.936 1.762,-1.987 2.241,-2.528Z" style="fill:#735427;"/></g><path d="M12.229,6.016c0,0.784 -0.192,1.439 -0.577,1.964c-0.384,0.525 -0.991,0.995 -1.819,1.409c-0.695,0.355 -1.15,0.658 -1.365,0.91c-0.214,0.251 -0.351,0.484 -0.41,0.699c-0.059,0.214 -0.089,0.462 -0.089,0.743l0,0.644l-2.618,0l0,-0.888c0,-1.331 0.399,-2.278 1.198,-2.84c0.281,-0.207 0.695,-0.451 1.242,-0.732c0.548,-0.282 0.943,-0.566 1.188,-0.855c0.244,-0.288 0.366,-0.658 0.366,-1.109c0,-0.451 -0.185,-0.829 -0.555,-1.132c-0.37,-0.303 -0.917,-0.455 -1.642,-0.455c-0.725,0 -1.294,0.174 -1.709,0.522c-0.414,0.347 -0.651,0.802 -0.71,1.364l-2.729,0c0.074,-1.287 0.547,-2.318 1.42,-3.095c0.873,-0.777 2.097,-1.165 3.672,-1.165c1.576,0 2.826,0.385 3.75,1.154c0.925,0.769 1.387,1.723 1.387,2.862Zm-6.823,7.988c0.333,-0.325 0.769,-0.488 1.309,-0.488c0.54,0 0.988,0.163 1.343,0.488c0.355,0.326 0.532,0.74 0.532,1.243c0,0.503 -0.177,0.921 -0.532,1.254c-0.355,0.333 -0.803,0.499 -1.343,0.499c-0.54,0 -0.976,-0.166 -1.309,-0.499c-0.333,-0.333 -0.499,-0.751 -0.499,-1.254c0,-0.503 0.166,-0.917 0.499,-1.243Z" style="fill:none;stroke:#000;stroke-width:4px;stroke-linecap:butt;stroke-miterlimit:1.41421;"/><path d="M12.229,6.016c0,0.784 -0.192,1.439 -0.577,1.964c-0.384,0.525 -0.991,0.995 -1.819,1.409c-0.695,0.355 -1.15,0.658 -1.365,0.91c-0.214,0.251 -0.351,0.484 -0.41,0.699c-0.059,0.214 -0.089,0.462 -0.089,0.743l0,0.644l-2.618,0l0,-0.888c0,-1.331 0.399,-2.278 1.198,-2.84c0.281,-0.207 0.695,-0.451 1.242,-0.732c0.548,-0.282 0.943,-0.566 1.188,-0.855c0.244,-0.288 0.366,-0.658 0.366,-1.109c0,-0.451 -0.185,-0.829 -0.555,-1.132c-0.37,-0.303 -0.917,-0.455 -1.642,-0.455c-0.725,0 -1.294,0.174 -1.709,0.522c-0.414,0.347 -0.651,0.802 -0.71,1.364l-2.729,0c0.074,-1.287 0.547,-2.318 1.42,-3.095c0.873,-0.777 2.097,-1.165 3.672,-1.165c1.576,0 2.826,0.385 3.75,1.154c0.925,0.769 1.387,1.723 1.387,2.862Zm-6.823,7.988c0.333,-0.325 0.769,-0.488 1.309,-0.488c0.54,0 0.988,0.163 1.343,0.488c0.355,0.326 0.532,0.74 0.532,1.243c0,0.503 -0.177,0.921 -0.532,1.254c-0.355,0.333 -0.803,0.499 -1.343,0.499c-0.54,0 -0.976,-0.166 -1.309,-0.499c-0.333,-0.333 -0.499,-0.751 -0.499,-1.254c0,-0.503 0.166,-0.917 0.499,-1.243Z" style="fill:#982eee;fill-rule:nonzero;"/></g></svg>