<?xml version="1.0" encoding="UTF-8"?>
<!DOCTYPE svg  PUBLIC '-//W3C//DTD SVG 1.1//EN'  'http://www.w3.org/Graphics/SVG/1.1/DTD/svg11.dtd'>
<svg clip-rule="evenodd" fill-rule="evenodd" stroke-linecap="round" stroke-linejoin="round" stroke-miterlimit="1.5" version="1.1" viewBox="0 0 32 32" xml:space="preserve" xmlns="http://www.w3.org/2000/svg">
<metadata>
<rdf:RDF xmlns:cc="http://web.resource.org/cc/" xmlns:dc="http://purl.org/dc/elements/1.1/" xmlns:rdf="http://www.w3.org/1999/02/22-rdf-syntax-ns#">

     <rdf:Description rdf:about="">
       <dc:title>Mutant Standard emoji VIP 2018-04</dc:title>
     </rdf:Description>

    <cc:work rdf:about="">
        <cc:license rdf:resource="http://creativecommons.org/licenses/by-nc-sa/4.0/"/>
        <cc:attributionName>Dzuk</cc:attributionName>
        <cc:attributionURL>http://mutant.tech/</cc:attributionURL>
    </cc:work>

</rdf:RDF>
</metadata>
<rect id="frankensteins_monster" width="32" height="32" fill="none"/><clipPath id="_clip1"><rect width="32" height="32"/></clipPath><g clip-path="url(#_clip1)"><g id="outline" fill="none" stroke="#000" stroke-width="4px"><path d="m5 14s2.386-5.368 3.472-7.812c0.321-0.723 1.037-1.188 1.828-1.188h11.4c0.791 0 1.507 0.465 1.828 1.188 1.086 2.444 3.472 7.812 3.472 7.812s-2.126 8.503-2.798 11.194c-0.132 0.527-0.405 1.009-0.79 1.394l-2.533 2.533c-0.563 0.563-1.326 0.879-2.122 0.879h-5.514c-0.796 0-1.559-0.316-2.122-0.879l-2.533-2.533c-0.385-0.385-0.658-0.867-0.79-1.394-0.672-2.691-2.798-11.194-2.798-11.194z"/><rect x="6" y="27" width="20" height="3" stroke-linecap="butt"/><path d="m5 14v-6c0-1.591 0.632-3.117 1.757-4.243 1.126-1.125 2.652-1.757 4.243-1.757h10c1.591 0 3.117 0.632 4.243 1.757 1.125 1.126 1.757 2.652 1.757 4.243v6h-22z" stroke-linecap="butt"/><path d="m8 13h-2c-1.105 0-2 0.895-2 2v3c0 1.105 0.895 2 2 2h2v-7z" stroke-linecap="square"/><path d="m24 13h2c1.105 0 2 0.895 2 2v3c0 1.105-0.895 2-2 2h-2v-7z" stroke-linecap="square"/></g><g id="emoji"><rect x="6" y="27" width="20" height="3" fill="#999"/><clipPath id="_clip2"><rect x="6" y="27" width="20" height="3"/></clipPath><g clip-path="url(#_clip2)"><path d="m20.511 3.001 0.111 3e-3 0.11 5e-3 0.11 7e-3 0.109 9e-3 0.109 0.011 0.109 0.013 0.108 0.015 0.108 0.017 0.107 0.019 0.106 0.021 0.106 0.022 0.106 0.025 0.105 0.026 0.104 0.028 0.103 0.03 0.103 0.032 0.102 0.034 0.102 0.035 0.1 0.037 0.1 0.039 0.099 0.041 0.098 0.042 0.098 0.044 0.096 0.046 0.096 0.048 0.095 0.049 0.093 0.05 0.093 0.053 0.092 0.054 0.091 0.056 0.09 0.057 0.089 0.059 0.088 0.06 0.086 0.062 0.086 0.064 0.085 0.065 0.083 0.067 0.082 0.068 0.081 0.069 0.08 0.071 0.079 0.073 0.077 0.074 0.076 0.075 0.075 0.077 0.074 0.078 0.072 0.08 0.071 0.081 0.069 0.083 0.068 0.083 0.067 0.085 0.065 0.087 0.064 0.088 0.062 0.089 0.061 0.09 0.059 0.091 0.057 0.093 0.056 0.094 0.055 0.095 0.104 0.194 0.049 0.099 0.048 0.099 0.042 0.093 2.948 6.633 0.049 0.123 0.042 0.126 0.033 0.128 0.025 0.13 0.016 0.132 7e-3 0.132-2e-3 0.133-0.011 0.132-0.019 0.131-0.028 0.13-2.8 11.202-0.019 0.074-0.023 0.082-0.024 0.081-0.025 0.081-0.027 0.08-0.028 0.08-0.06 0.158-0.032 0.078-0.033 0.077-0.035 0.077-0.036 0.076-0.037 0.076-0.038 0.075-0.04 0.074-0.041 0.074-0.042 0.073-0.043 0.072-0.045 0.071-0.046 0.071-0.046 0.07-0.098 0.138-0.05 0.067-0.052 0.067-0.053 0.066-0.054 0.065-0.055 0.064-0.056 0.063-0.057 0.063-0.059 0.061-0.053 0.055-2.549 2.548-0.08 0.078-0.091 0.085-0.092 0.081-0.095 0.08-0.096 0.077-0.098 0.074-0.099 0.072-0.102 0.069-0.102 0.067-0.104 0.064-0.106 0.061-0.107 0.059-0.109 0.056-0.109 0.054-0.111 0.051-0.112 0.048-0.113 0.045-0.115 0.042-0.115 0.04-0.116 0.037-0.118 0.034-0.118 0.031-0.119 0.029-0.12 0.025-0.12 0.023-0.121 0.019-0.122 0.017-0.122 0.014-0.124 0.01-0.123 8e-3 -0.123 5e-3 -0.112 1e-3h-5.54l-0.112-1e-3 -0.123-5e-3 -0.123-8e-3 -0.124-0.01-0.122-0.014-0.122-0.017-0.121-0.019-0.12-0.023-0.12-0.025-0.119-0.029-0.118-0.031-0.118-0.034-0.116-0.037-0.115-0.04-0.115-0.042-0.113-0.045-0.112-0.048-0.111-0.051-0.109-0.054-0.109-0.056-0.107-0.059-0.106-0.061-0.104-0.064-0.102-0.067-0.102-0.069-0.099-0.072-0.098-0.074-0.096-0.077-0.095-0.08-0.092-0.081-0.091-0.085-0.08-0.078-2.549-2.548-0.053-0.055-0.059-0.061-0.057-0.063-0.056-0.063-0.055-0.064-0.054-0.065-0.053-0.066-0.052-0.067-0.05-0.067-0.098-0.138-0.046-0.07-0.046-0.071-0.045-0.071-0.043-0.072-0.042-0.073-0.041-0.074-0.04-0.074-0.038-0.075-0.037-0.076-0.036-0.076-0.068-0.154-0.032-0.078-0.06-0.158-0.028-0.08-0.027-0.08-0.025-0.081-0.024-0.081-0.023-0.082-0.019-0.074-2.8-11.202-0.028-0.13-0.019-0.131-0.011-0.132-2e-3 -0.133 7e-3 -0.132 0.016-0.132 0.025-0.13 0.033-0.128 0.042-0.126 0.049-0.123 2.948-6.633 0.042-0.093 0.048-0.099 0.049-0.099 0.104-0.194 0.055-0.095 0.056-0.094 0.057-0.093 0.059-0.091 0.061-0.09 0.062-0.089 0.064-0.088 0.065-0.087 0.067-0.085 0.068-0.083 0.069-0.083 0.071-0.081 0.072-0.08 0.074-0.078 0.075-0.077 0.076-0.075 0.077-0.074 0.079-0.073 0.08-0.071 0.081-0.069 0.082-0.068 0.083-0.067 0.085-0.065 0.086-0.064 0.086-0.062 0.088-0.06 0.089-0.059 0.09-0.057 0.091-0.056 0.092-0.054 0.093-0.053 0.093-0.05 0.095-0.049 0.096-0.048 0.096-0.046 0.098-0.044 0.098-0.042 0.099-0.041 0.1-0.039 0.1-0.037 0.102-0.035 0.102-0.034 0.103-0.032 0.103-0.03 0.104-0.028 0.105-0.026 0.106-0.025 0.106-0.022 0.106-0.021 0.107-0.019 0.108-0.017 0.108-0.015 0.109-0.013 0.109-0.011 0.109-9e-3 0.11-7e-3 0.11-5e-3 0.111-3e-3 0.101-1e-3h8.82l0.101 1e-3zm-8.985 2-0.074 2e-3 -0.074 3e-3 -0.073 5e-3 -0.073 6e-3 -0.073 7e-3 -0.072 9e-3 -0.072 0.01-0.072 0.011-0.142 0.026-0.071 0.015-0.14 0.034-0.069 0.019-0.069 0.02-0.069 0.021-0.068 0.023-0.067 0.023-0.067 0.025-0.067 0.026-0.066 0.027-0.065 0.028-0.13 0.06-0.064 0.032-0.063 0.033-0.062 0.034-0.062 0.035-0.062 0.036-0.06 0.037-0.06 0.038-0.059 0.039-0.059 0.041-0.058 0.041-0.057 0.042-0.112 0.088-0.055 0.046-0.054 0.046-0.053 0.047-0.053 0.049-0.051 0.049-0.051 0.05-0.05 0.052-0.049 0.052-0.048 0.053-0.047 0.054-0.046 0.055-0.046 0.056-0.044 0.056-0.086 0.116-0.082 0.12-0.078 0.122-0.037 0.063-0.036 0.063-0.035 0.065-0.034 0.065-0.033 0.066-0.032 0.066-0.031 0.067-2.944 6.625 2.798 11.194 0.013 0.049 0.028 0.098 0.015 0.048 0.016 0.049 0.017 0.047 0.018 0.048 0.018 0.047 0.02 0.047 0.019 0.046 0.021 0.047 0.022 0.045 0.022 0.046 0.023 0.045 0.048 0.088 0.026 0.044 0.052 0.086 0.028 0.043 0.028 0.042 0.058 0.082 0.031 0.041 0.031 0.04 0.031 0.039 0.066 0.078 0.033 0.038 0.07 0.074 0.036 0.037 2.533 2.533 0.054 0.052 0.054 0.051 0.056 0.049 0.056 0.048 0.058 0.046 0.059 0.044 0.06 0.043 0.06 0.042 0.062 0.04 0.062 0.038 0.064 0.037 0.064 0.036 0.065 0.033 0.066 0.032 0.066 0.031 0.068 0.029 0.068 0.027 0.068 0.025 0.069 0.024 0.07 0.022 0.07 0.021 0.071 0.019 0.072 0.017 0.072 0.015 0.072 0.013 0.073 0.012 0.073 0.01 0.073 8e-3 0.074 7e-3 0.074 4e-3 0.074 3e-3 0.075 1e-3h5.514l0.075-1e-3 0.074-3e-3 0.074-4e-3 0.074-7e-3 0.073-8e-3 0.073-0.01 0.073-0.012 0.072-0.013 0.072-0.015 0.072-0.017 0.071-0.019 0.07-0.021 0.07-0.022 0.069-0.024 0.068-0.025 0.068-0.027 0.068-0.029 0.066-0.031 0.066-0.032 0.065-0.033 0.064-0.036 0.064-0.037 0.062-0.038 0.062-0.04 0.06-0.042 0.06-0.043 0.059-0.044 0.058-0.046 0.056-0.048 0.056-0.049 0.054-0.051 0.054-0.052 2.533-2.533 0.036-0.037 0.07-0.074 0.033-0.038 0.066-0.078 0.031-0.039 0.031-0.04 0.031-0.041 0.058-0.082 0.028-0.042 0.028-0.043 0.052-0.086 0.026-0.044 0.048-0.088 0.023-0.045 0.022-0.046 0.022-0.045 0.021-0.047 0.019-0.046 0.02-0.047 0.018-0.047 0.018-0.048 0.017-0.047 0.016-0.049 0.015-0.048 0.028-0.098 0.013-0.049 2.798-11.194-2.944-6.625-0.031-0.067-0.032-0.066-0.033-0.066-0.034-0.065-0.035-0.065-0.036-0.063-0.037-0.063-0.078-0.122-0.082-0.12-0.086-0.116-0.044-0.056-0.046-0.056-0.046-0.055-0.047-0.054-0.048-0.053-0.049-0.052-0.05-0.052-0.051-0.05-0.051-0.049-0.053-0.049-0.053-0.047-0.054-0.046-0.055-0.046-0.112-0.088-0.057-0.042-0.058-0.041-0.059-0.041-0.059-0.039-0.06-0.038-0.06-0.037-0.062-0.036-0.062-0.035-0.062-0.034-0.063-0.033-0.064-0.032-0.13-0.06-0.065-0.028-0.066-0.027-0.067-0.026-0.067-0.025-0.067-0.023-0.068-0.023-0.069-0.021-0.069-0.02-0.069-0.019-0.14-0.034-0.071-0.015-0.142-0.026-0.072-0.011-0.072-0.01-0.072-9e-3 -0.073-7e-3 -0.073-6e-3 -0.073-5e-3 -0.074-3e-3 -0.074-2e-3 -0.073-1e-3h-8.802l-0.073 1e-3z" fill="#666"/></g><path d="m8 13h-2c-1.105 0-2 0.895-2 2v3c0 1.105 0.895 2 2 2h2v-7z" fill="#8bd184"/><path d="m24 13h2c1.105 0 2 0.895 2 2v3c0 1.105-0.895 2-2 2h-2v-7z" fill="#8bd184"/><path d="m5 14 1-9h20l1 9s-2.126 8.503-2.798 11.194c-0.132 0.527-0.405 1.009-0.79 1.394l-2.533 2.533c-0.563 0.563-1.326 0.879-2.122 0.879h-5.514c-0.796 0-1.559-0.316-2.122-0.879l-2.533-2.533c-0.385-0.385-0.658-0.867-0.79-1.394-0.672-2.691-2.798-11.194-2.798-11.194z" fill="#8bd184"/><clipPath id="_clip3"><path d="m5 14 1-9h20l1 9s-2.126 8.503-2.798 11.194c-0.132 0.527-0.405 1.009-0.79 1.394l-2.533 2.533c-0.563 0.563-1.326 0.879-2.122 0.879h-5.514c-0.796 0-1.559-0.316-2.122-0.879l-2.533-2.533c-0.385-0.385-0.658-0.867-0.79-1.394-0.672-2.691-2.798-11.194-2.798-11.194z"/></clipPath><g clip-path="url(#_clip3)" fill="none" stroke="#306329" stroke-linecap="square" stroke-width="2px"><path d="m19 4v4"/><path d="m23 5v4"/><path d="m9 5v4"/><path d="m13 4v4"/></g><path d="m5 14s0.413-1.652 0.864-3.455c0.668-2.671 3.067-4.545 5.821-4.545h8.63c2.754 0 5.153 1.874 5.821 4.545 0.451 1.803 0.864 3.455 0.864 3.455v-6c0-1.591-0.632-3.117-1.757-4.243-1.126-1.125-2.652-1.757-4.243-1.757h-10c-1.591 0-3.117 0.632-4.243 1.757-1.125 1.126-1.757 2.652-1.757 4.243v6z" fill="#262626"/><clipPath id="_clip4"><path d="m5 14s0.413-1.652 0.864-3.455c0.668-2.671 3.067-4.545 5.821-4.545h8.63c2.754 0 5.153 1.874 5.821 4.545 0.451 1.803 0.864 3.455 0.864 3.455v-6c0-1.591-0.632-3.117-1.757-4.243-1.126-1.125-2.652-1.757-4.243-1.757h-10c-1.591 0-3.117 0.632-4.243 1.757-1.125 1.126-1.757 2.652-1.757 4.243v6z"/></clipPath><g clip-path="url(#_clip4)" fill="#636363"><rect x="11" y="1" width="2" height="6"/><rect x="15" y="1" width="2" height="6"/></g><path d="m25 6v9.172c0 0.53 0.211 1.039 0.586 1.414l0.414 0.414 1-3v-5l-2-3z" fill="#262626"/><path d="m7 6v9.172c0 0.53-0.211 1.039-0.586 1.414l-0.414 0.414-1-3v-5l2-3z" fill="#262626"/><path d="m18.066 15.653c-0.307-0.246-0.426-0.66-0.296-1.032 0.131-0.372 0.482-0.621 0.876-0.621h2.882c0.31 0 0.617 0.072 0.894 0.211 0.103 0.051 0.217 0.109 0.337 0.169 0.288 0.143 0.488 0.416 0.54 0.734 0.051 0.317-0.053 0.64-0.28 0.867l-0.12 0.12c-1.081 1.081-2.802 1.177-3.996 0.222-0.277-0.222-0.56-0.449-0.837-0.67z"/><path d="m13.934 15.653c0.307-0.246 0.426-0.66 0.296-1.032-0.131-0.372-0.482-0.621-0.876-0.621h-2.882c-0.31 0-0.617 0.072-0.894 0.211-0.103 0.051-0.217 0.109-0.337 0.169-0.288 0.143-0.488 0.416-0.54 0.734-0.051 0.317 0.053 0.64 0.28 0.867l0.12 0.12c1.081 1.081 2.802 1.177 3.996 0.222 0.277-0.222 0.56-0.449 0.837-0.67z"/><path d="m13 20 2 1h2l2-1" fill="none" stroke="#428d36" stroke-linecap="butt" stroke-width="2px"/><path d="m12 26 1-1h6l1 1" fill="none" stroke="#428d36" stroke-linecap="butt" stroke-width="2px"/></g></g></svg>
