<?xml version="1.0" encoding="UTF-8" standalone="no"?><!DOCTYPE svg PUBLIC "-//W3C//DTD SVG 1.1//EN" "http://www.w3.org/Graphics/SVG/1.1/DTD/svg11.dtd"><svg width="100%" height="100%" viewBox="0 0 32 32" version="1.1" xmlns="http://www.w3.org/2000/svg" xmlns:xlink="http://www.w3.org/1999/xlink" xml:space="preserve" xmlns:serif="http://www.serif.com/" style="fill-rule:evenodd;clip-rule:evenodd;stroke-linecap:round;stroke-linejoin:round;stroke-miterlimit:1.5;">
<metadata>
<rdf:RDF xmlns:cc="http://web.resource.org/cc/"
         xmlns:rdf="http://www.w3.org/1999/02/22-rdf-syntax-ns#"
         xmlns:dc = "http://purl.org/dc/elements/1.1/"
         >

     <rdf:Description rdf:about="">
       <dc:title>Mutant Standard emoji VIP 2018-04</dc:title>
     </rdf:Description>

    <cc:work rdf:about="">
        <cc:license rdf:resource="http://creativecommons.org/licenses/by-nc-sa/4.0/"/>
        <cc:attributionName>Dzuk</cc:attributionName>
        <cc:attributionURL>http://mutant.tech/</cc:attributionURL>
    </cc:work>

</rdf:RDF>
</metadata>
<rect id="frankensteins_monster" x="0" y="0" width="32" height="32" style="fill:none;"/><clipPath id="_clip1"><rect x="0" y="0" width="32" height="32"/></clipPath><g clip-path="url(#_clip1)"><g id="outline"><path d="M5,14c0,0 2.386,-5.368 3.472,-7.812c0.321,-0.723 1.037,-1.188 1.828,-1.188c2.667,0 8.733,0 11.4,0c0.791,0 1.507,0.465 1.828,1.188c1.086,2.444 3.472,7.812 3.472,7.812c0,0 -2.126,8.503 -2.798,11.194c-0.132,0.527 -0.405,1.009 -0.79,1.394c-0.667,0.667 -1.764,1.764 -2.533,2.533c-0.563,0.563 -1.326,0.879 -2.122,0.879c-1.501,0 -4.013,0 -5.514,0c-0.796,0 -1.559,-0.316 -2.122,-0.879c-0.769,-0.769 -1.866,-1.866 -2.533,-2.533c-0.385,-0.385 -0.658,-0.867 -0.79,-1.394c-0.672,-2.691 -2.798,-11.194 -2.798,-11.194Z" style="fill:none;stroke:#000;stroke-width:4px;"/><rect x="6" y="27" width="20" height="3" style="fill:none;stroke:#000;stroke-width:4px;stroke-linecap:butt;"/><path d="M5,14c0,0 0,-3 0,-6c0,-1.591 0.632,-3.117 1.757,-4.243c1.126,-1.125 2.652,-1.757 4.243,-1.757l10,0c1.591,0 3.117,0.632 4.243,1.757c1.125,1.126 1.757,2.652 1.757,4.243c0,3 0,6 0,6l-22,0Z" style="fill:none;stroke:#000;stroke-width:4px;stroke-linecap:butt;"/><path d="M8,13c0,0 -1,0 -2,0c-1.105,0 -2,0.895 -2,2c0,0.941 0,2.059 0,3c0,1.105 0.895,2 2,2c1,0 2,0 2,0l0,-7Z" style="fill:none;stroke:#000;stroke-width:4px;stroke-linecap:square;"/><path d="M24,13c0,0 1,0 2,0c1.105,0 2,0.895 2,2c0,0.941 0,2.059 0,3c0,1.105 -0.895,2 -2,2c-1,0 -2,0 -2,0l0,-7Z" style="fill:none;stroke:#000;stroke-width:4px;stroke-linecap:square;"/></g><g id="emoji"><rect x="6" y="27" width="20" height="3" style="fill:#999;"/><clipPath id="_clip2"><rect x="6" y="27" width="20" height="3"/></clipPath><g clip-path="url(#_clip2)"><path d="M20.511,3.001l0.111,0.003l0.11,0.005l0.11,0.007l0.109,0.009l0.109,0.011l0.109,0.013l0.108,0.015l0.108,0.017l0.107,0.019l0.106,0.021l0.106,0.022l0.106,0.025l0.105,0.026l0.104,0.028l0.103,0.03l0.103,0.032l0.102,0.034l0.102,0.035l0.1,0.037l0.1,0.039l0.099,0.041l0.098,0.042l0.098,0.044l0.096,0.046l0.096,0.048l0.095,0.049l0.093,0.05l0.093,0.053l0.092,0.054l0.091,0.056l0.09,0.057l0.089,0.059l0.088,0.06l0.086,0.062l0.086,0.064l0.085,0.065l0.083,0.067l0.082,0.068l0.081,0.069l0.08,0.071l0.079,0.073l0.077,0.074l0.076,0.075l0.075,0.077l0.074,0.078l0.072,0.08l0.071,0.081l0.069,0.083l0.068,0.083l0.067,0.085l0.065,0.087l0.064,0.088l0.062,0.089l0.061,0.09l0.059,0.091l0.057,0.093l0.056,0.094l0.055,0.095l0.052,0.097l0.052,0.097l0.049,0.099l0.048,0.099l0.042,0.093l2.948,6.633l0.049,0.123l0.042,0.126l0.033,0.128l0.025,0.13l0.016,0.132l0.007,0.132l-0.002,0.133l-0.011,0.132l-0.019,0.131l-0.028,0.13l-2.8,11.202l-0.019,0.074l-0.023,0.082l-0.024,0.081l-0.025,0.081l-0.027,0.08l-0.028,0.08l-0.03,0.079l-0.03,0.079l-0.032,0.078l-0.033,0.077l-0.035,0.077l-0.036,0.076l-0.037,0.076l-0.038,0.075l-0.04,0.074l-0.041,0.074l-0.042,0.073l-0.043,0.072l-0.045,0.071l-0.046,0.071l-0.046,0.07l-0.049,0.069l-0.049,0.069l-0.05,0.067l-0.052,0.067l-0.053,0.066l-0.054,0.065l-0.055,0.064l-0.056,0.063l-0.057,0.063l-0.059,0.061l-0.053,0.055l-2.549,2.548l-0.08,0.078l-0.091,0.085l-0.092,0.081l-0.095,0.08l-0.096,0.077l-0.098,0.074l-0.099,0.072l-0.102,0.069l-0.102,0.067l-0.104,0.064l-0.106,0.061l-0.107,0.059l-0.109,0.056l-0.109,0.054l-0.111,0.051l-0.112,0.048l-0.113,0.045l-0.115,0.042l-0.115,0.04l-0.116,0.037l-0.118,0.034l-0.118,0.031l-0.119,0.029l-0.12,0.025l-0.12,0.023l-0.121,0.019l-0.122,0.017l-0.122,0.014l-0.124,0.01l-0.123,0.008l-0.123,0.005l-0.112,0.001l-5.54,0l-0.112,-0.001l-0.123,-0.005l-0.123,-0.008l-0.124,-0.01l-0.122,-0.014l-0.122,-0.017l-0.121,-0.019l-0.12,-0.023l-0.12,-0.025l-0.119,-0.029l-0.118,-0.031l-0.118,-0.034l-0.116,-0.037l-0.115,-0.04l-0.115,-0.042l-0.113,-0.045l-0.112,-0.048l-0.111,-0.051l-0.109,-0.054l-0.109,-0.056l-0.107,-0.059l-0.106,-0.061l-0.104,-0.064l-0.102,-0.067l-0.102,-0.069l-0.099,-0.072l-0.098,-0.074l-0.096,-0.077l-0.095,-0.08l-0.092,-0.081l-0.091,-0.085l-0.08,-0.078l-2.549,-2.548l-0.053,-0.055l-0.059,-0.061l-0.057,-0.063l-0.056,-0.063l-0.055,-0.064l-0.054,-0.065l-0.053,-0.066l-0.052,-0.067l-0.05,-0.067l-0.049,-0.069l-0.049,-0.069l-0.046,-0.07l-0.046,-0.071l-0.045,-0.071l-0.043,-0.072l-0.042,-0.073l-0.041,-0.074l-0.04,-0.074l-0.038,-0.075l-0.037,-0.076l-0.036,-0.076l-0.034,-0.077l-0.034,-0.077l-0.032,-0.078l-0.03,-0.079l-0.03,-0.079l-0.028,-0.08l-0.027,-0.08l-0.025,-0.081l-0.024,-0.081l-0.023,-0.082l-0.019,-0.074l-2.8,-11.202l-0.028,-0.13l-0.019,-0.131l-0.011,-0.132l-0.002,-0.133l0.007,-0.132l0.016,-0.132l0.025,-0.13l0.033,-0.128l0.042,-0.126l0.049,-0.123l2.948,-6.633l0.042,-0.093l0.048,-0.099l0.049,-0.099l0.052,-0.097l0.052,-0.097l0.055,-0.095l0.056,-0.094l0.057,-0.093l0.059,-0.091l0.061,-0.09l0.062,-0.089l0.064,-0.088l0.065,-0.087l0.067,-0.085l0.068,-0.083l0.069,-0.083l0.071,-0.081l0.072,-0.08l0.074,-0.078l0.075,-0.077l0.076,-0.075l0.077,-0.074l0.079,-0.073l0.08,-0.071l0.081,-0.069l0.082,-0.068l0.083,-0.067l0.085,-0.065l0.086,-0.064l0.086,-0.062l0.088,-0.06l0.089,-0.059l0.09,-0.057l0.091,-0.056l0.092,-0.054l0.093,-0.053l0.093,-0.05l0.095,-0.049l0.096,-0.048l0.096,-0.046l0.098,-0.044l0.098,-0.042l0.099,-0.041l0.1,-0.039l0.1,-0.037l0.102,-0.035l0.102,-0.034l0.103,-0.032l0.103,-0.03l0.104,-0.028l0.105,-0.026l0.106,-0.025l0.106,-0.022l0.106,-0.021l0.107,-0.019l0.108,-0.017l0.108,-0.015l0.109,-0.013l0.109,-0.011l0.109,-0.009l0.11,-0.007l0.11,-0.005l0.111,-0.003l0.101,-0.001l8.82,0l0.101,0.001Zm-8.985,2l-0.074,0.002l-0.074,0.003l-0.073,0.005l-0.073,0.006l-0.073,0.007l-0.072,0.009l-0.072,0.01l-0.072,0.011l-0.071,0.013l-0.071,0.013l-0.071,0.015l-0.07,0.017l-0.07,0.017l-0.069,0.019l-0.069,0.02l-0.069,0.021l-0.068,0.023l-0.067,0.023l-0.067,0.025l-0.067,0.026l-0.066,0.027l-0.065,0.028l-0.065,0.03l-0.065,0.03l-0.064,0.032l-0.063,0.033l-0.062,0.034l-0.062,0.035l-0.062,0.036l-0.06,0.037l-0.06,0.038l-0.059,0.039l-0.059,0.041l-0.058,0.041l-0.057,0.042l-0.056,0.044l-0.056,0.044l-0.055,0.046l-0.054,0.046l-0.053,0.047l-0.053,0.049l-0.051,0.049l-0.051,0.05l-0.05,0.052l-0.049,0.052l-0.048,0.053l-0.047,0.054l-0.046,0.055l-0.046,0.056l-0.044,0.056l-0.043,0.058l-0.043,0.058l-0.041,0.06l-0.041,0.06l-0.039,0.061l-0.039,0.061l-0.037,0.063l-0.036,0.063l-0.035,0.065l-0.034,0.065l-0.033,0.066l-0.032,0.066l-0.031,0.067l-2.944,6.625l2.798,11.194l0.013,0.049l0.014,0.049l0.014,0.049l0.015,0.048l0.016,0.049l0.017,0.047l0.018,0.048l0.018,0.047l0.02,0.047l0.019,0.046l0.021,0.047l0.022,0.045l0.022,0.046l0.023,0.045l0.024,0.044l0.024,0.044l0.026,0.044l0.026,0.043l0.026,0.043l0.028,0.043l0.028,0.042l0.029,0.041l0.029,0.041l0.031,0.041l0.031,0.04l0.031,0.039l0.033,0.039l0.033,0.039l0.033,0.038l0.035,0.037l0.035,0.037l0.036,0.037l2.533,2.533l0.054,0.052l0.054,0.051l0.056,0.049l0.056,0.048l0.058,0.046l0.059,0.044l0.06,0.043l0.06,0.042l0.062,0.04l0.062,0.038l0.064,0.037l0.064,0.036l0.065,0.033l0.066,0.032l0.066,0.031l0.068,0.029l0.068,0.027l0.068,0.025l0.069,0.024l0.07,0.022l0.07,0.021l0.071,0.019l0.072,0.017l0.072,0.015l0.072,0.013l0.073,0.012l0.073,0.01l0.073,0.008l0.074,0.007l0.074,0.004l0.074,0.003l0.075,0.001l5.514,0l0.075,-0.001l0.074,-0.003l0.074,-0.004l0.074,-0.007l0.073,-0.008l0.073,-0.01l0.073,-0.012l0.072,-0.013l0.072,-0.015l0.072,-0.017l0.071,-0.019l0.07,-0.021l0.07,-0.022l0.069,-0.024l0.068,-0.025l0.068,-0.027l0.068,-0.029l0.066,-0.031l0.066,-0.032l0.065,-0.033l0.064,-0.036l0.064,-0.037l0.062,-0.038l0.062,-0.04l0.06,-0.042l0.06,-0.043l0.059,-0.044l0.058,-0.046l0.056,-0.048l0.056,-0.049l0.054,-0.051l0.054,-0.052l2.533,-2.533l0.036,-0.037l0.035,-0.037l0.035,-0.037l0.033,-0.038l0.033,-0.039l0.033,-0.039l0.031,-0.039l0.031,-0.04l0.031,-0.041l0.029,-0.041l0.029,-0.041l0.028,-0.042l0.028,-0.043l0.026,-0.043l0.026,-0.043l0.026,-0.044l0.024,-0.044l0.024,-0.044l0.023,-0.045l0.022,-0.046l0.022,-0.045l0.021,-0.047l0.019,-0.046l0.02,-0.047l0.018,-0.047l0.018,-0.048l0.017,-0.047l0.016,-0.049l0.015,-0.048l0.014,-0.049l0.014,-0.049l0.013,-0.049l2.798,-11.194l-2.944,-6.625l-0.031,-0.067l-0.032,-0.066l-0.033,-0.066l-0.034,-0.065l-0.035,-0.065l-0.036,-0.063l-0.037,-0.063l-0.039,-0.061l-0.039,-0.061l-0.041,-0.06l-0.041,-0.06l-0.043,-0.058l-0.043,-0.058l-0.044,-0.056l-0.046,-0.056l-0.046,-0.055l-0.047,-0.054l-0.048,-0.053l-0.049,-0.052l-0.05,-0.052l-0.051,-0.05l-0.051,-0.049l-0.053,-0.049l-0.053,-0.047l-0.054,-0.046l-0.055,-0.046l-0.056,-0.044l-0.056,-0.044l-0.057,-0.042l-0.058,-0.041l-0.059,-0.041l-0.059,-0.039l-0.06,-0.038l-0.06,-0.037l-0.062,-0.036l-0.062,-0.035l-0.062,-0.034l-0.063,-0.033l-0.064,-0.032l-0.065,-0.03l-0.065,-0.03l-0.065,-0.028l-0.066,-0.027l-0.067,-0.026l-0.067,-0.025l-0.067,-0.023l-0.068,-0.023l-0.069,-0.021l-0.069,-0.02l-0.069,-0.019l-0.07,-0.017l-0.07,-0.017l-0.071,-0.015l-0.071,-0.013l-0.071,-0.013l-0.072,-0.011l-0.072,-0.01l-0.072,-0.009l-0.073,-0.007l-0.073,-0.006l-0.073,-0.005l-0.074,-0.003l-0.074,-0.002l-0.073,-0.001l-8.802,0l-0.073,0.001Z" style="fill:#666;"/></g><path d="M8,13c0,0 -1,0 -2,0c-1.105,0 -2,0.895 -2,2c0,0.941 0,2.059 0,3c0,1.105 0.895,2 2,2c1,0 2,0 2,0l0,-7Z" style="fill:#8bd184;"/><path d="M24,13c0,0 1,0 2,0c1.105,0 2,0.895 2,2c0,0.941 0,2.059 0,3c0,1.105 -0.895,2 -2,2c-1,0 -2,0 -2,0l0,-7Z" style="fill:#8bd184;"/><path d="M5,14l1,-9l20,0l1,9c0,0 -2.126,8.503 -2.798,11.194c-0.132,0.527 -0.405,1.009 -0.79,1.394c-0.667,0.667 -1.764,1.764 -2.533,2.533c-0.563,0.563 -1.326,0.879 -2.122,0.879c-1.501,0 -4.013,0 -5.514,0c-0.796,0 -1.559,-0.316 -2.122,-0.879c-0.769,-0.769 -1.866,-1.866 -2.533,-2.533c-0.385,-0.385 -0.658,-0.867 -0.79,-1.394c-0.672,-2.691 -2.798,-11.194 -2.798,-11.194Z" style="fill:#8bd184;"/><clipPath id="_clip3"><path d="M5,14l1,-9l20,0l1,9c0,0 -2.126,8.503 -2.798,11.194c-0.132,0.527 -0.405,1.009 -0.79,1.394c-0.667,0.667 -1.764,1.764 -2.533,2.533c-0.563,0.563 -1.326,0.879 -2.122,0.879c-1.501,0 -4.013,0 -5.514,0c-0.796,0 -1.559,-0.316 -2.122,-0.879c-0.769,-0.769 -1.866,-1.866 -2.533,-2.533c-0.385,-0.385 -0.658,-0.867 -0.79,-1.394c-0.672,-2.691 -2.798,-11.194 -2.798,-11.194Z"/></clipPath><g clip-path="url(#_clip3)"><path d="M19,4l0,4" style="fill:none;stroke:#306329;stroke-width:2px;stroke-linecap:square;"/><path d="M23,5l0,4" style="fill:none;stroke:#306329;stroke-width:2px;stroke-linecap:square;"/><path d="M9,5l0,4" style="fill:none;stroke:#306329;stroke-width:2px;stroke-linecap:square;"/><path d="M13,4l0,4" style="fill:none;stroke:#306329;stroke-width:2px;stroke-linecap:square;"/></g><path d="M5,14c0,0 0.413,-1.652 0.864,-3.455c0.668,-2.671 3.067,-4.545 5.821,-4.545c2.657,0 5.973,0 8.63,0c2.754,0 5.153,1.874 5.821,4.545c0.451,1.803 0.864,3.455 0.864,3.455c0,0 0,-3 0,-6c0,-1.591 -0.632,-3.117 -1.757,-4.243c-1.126,-1.125 -2.652,-1.757 -4.243,-1.757c-3.108,0 -6.892,0 -10,0c-1.591,0 -3.117,0.632 -4.243,1.757c-1.125,1.126 -1.757,2.652 -1.757,4.243c0,3 0,6 0,6Z" style="fill:#262626;"/><clipPath id="_clip4"><path d="M5,14c0,0 0.413,-1.652 0.864,-3.455c0.668,-2.671 3.067,-4.545 5.821,-4.545c2.657,0 5.973,0 8.63,0c2.754,0 5.153,1.874 5.821,4.545c0.451,1.803 0.864,3.455 0.864,3.455c0,0 0,-3 0,-6c0,-1.591 -0.632,-3.117 -1.757,-4.243c-1.126,-1.125 -2.652,-1.757 -4.243,-1.757c-3.108,0 -6.892,0 -10,0c-1.591,0 -3.117,0.632 -4.243,1.757c-1.125,1.126 -1.757,2.652 -1.757,4.243c0,3 0,6 0,6Z"/></clipPath><g clip-path="url(#_clip4)"><rect x="11" y="1" width="2" height="6" style="fill:#636363;"/><rect x="15" y="1" width="2" height="6" style="fill:#636363;"/></g><path d="M25,6l0,9.172c0,0.53 0.211,1.039 0.586,1.414c0.218,0.218 0.414,0.414 0.414,0.414l1,-3l0,-5l-2,-3Z" style="fill:#262626;"/><path d="M7,6l0,9.172c0,0.53 -0.211,1.039 -0.586,1.414c-0.218,0.218 -0.414,0.414 -0.414,0.414l-1,-3l0,-5l2,-3Z" style="fill:#262626;"/><path d="M18.066,15.653c-0.307,-0.246 -0.426,-0.66 -0.296,-1.032c0.131,-0.372 0.482,-0.621 0.876,-0.621c1.095,0 2.254,0 2.882,0c0.31,0 0.617,0.072 0.894,0.211c0.103,0.051 0.217,0.109 0.337,0.169c0.288,0.143 0.488,0.416 0.54,0.734c0.051,0.317 -0.053,0.64 -0.28,0.867c-0.04,0.04 -0.08,0.08 -0.12,0.12c-1.081,1.081 -2.802,1.177 -3.996,0.222c-0.277,-0.222 -0.56,-0.449 -0.837,-0.67Z"/><path d="M13.934,15.653c0.307,-0.246 0.426,-0.66 0.296,-1.032c-0.131,-0.372 -0.482,-0.621 -0.876,-0.621c-1.095,0 -2.254,0 -2.882,0c-0.31,0 -0.617,0.072 -0.894,0.211c-0.103,0.051 -0.217,0.109 -0.337,0.169c-0.288,0.143 -0.488,0.416 -0.54,0.734c-0.051,0.317 0.053,0.64 0.28,0.867c0.04,0.04 0.08,0.08 0.12,0.12c1.081,1.081 2.802,1.177 3.996,0.222c0.277,-0.222 0.56,-0.449 0.837,-0.67Z"/><path d="M13,20l2,1l2,0l2,-1" style="fill:none;stroke:#428d36;stroke-width:2px;stroke-linecap:butt;"/><path d="M12,26l1,-1l6,0l1,1" style="fill:none;stroke:#428d36;stroke-width:2px;stroke-linecap:butt;"/></g></g></svg>