<?xml version="1.0" encoding="UTF-8"?>
<!DOCTYPE svg  PUBLIC '-//W3C//DTD SVG 1.1//EN'  'http://www.w3.org/Graphics/SVG/1.1/DTD/svg11.dtd'>
<svg clip-rule="evenodd" fill-rule="evenodd" stroke-linejoin="round" stroke-miterlimit="1.4142" version="1.1" viewBox="0 0 32 32" xml:space="preserve" xmlns="http://www.w3.org/2000/svg">
<metadata>
<rdf:RDF xmlns:cc="http://web.resource.org/cc/" xmlns:dc="http://purl.org/dc/elements/1.1/" xmlns:rdf="http://www.w3.org/1999/02/22-rdf-syntax-ns#">

     <rdf:Description rdf:about="">
       <dc:title>Mutant Standard emoji VIP 2018-04</dc:title>
     </rdf:Description>

    <cc:work rdf:about="">
        <cc:license rdf:resource="http://creativecommons.org/licenses/by-nc-sa/4.0/"/>
        <cc:attributionName>Dzuk</cc:attributionName>
        <cc:attributionURL>http://mutant.tech/</cc:attributionURL>
    </cc:work>

</rdf:RDF>
</metadata>
<rect id="purple_sunset" width="32" height="32" fill="none"/><g id="outline"><rect width="32" height="32"/></g><g id="emoji"><rect x="2" y="2" width="28" height="28" fill="#871cd8"/><clipPath id="_clip1"><rect x="2" y="2" width="28" height="28"/></clipPath><g clip-path="url(#_clip1)"><rect x="2" y="8" width="28" height="15" fill="#b52bc7"/><rect x="2" y="14" width="28" height="16" fill="#e34c7e"/><rect x="2" y="19" width="28" height="2" fill="#ff6004"/><circle cx="16" cy="20" r="5" fill="#ffa90a"/><rect x="2" y="20" width="28" height="10" fill="#531a93"/><g fill="#ff7104"><path d="m21 21.5c0-0.133-0.053-0.26-0.146-0.354-0.094-0.093-0.221-0.146-0.354-0.146h-9c-0.133 0-0.26 0.053-0.354 0.146-0.093 0.094-0.146 0.221-0.146 0.354s0.053 0.26 0.146 0.354c0.094 0.093 0.221 0.146 0.354 0.146h9c0.133 0 0.26-0.053 0.354-0.146 0.093-0.094 0.146-0.221 0.146-0.354z"/><path d="m20 22.5c0-0.276-0.224-0.5-0.5-0.5h-7c-0.276 0-0.5 0.224-0.5 0.5s0.224 0.5 0.5 0.5h7c0.276 0 0.5-0.224 0.5-0.5z"/><rect x="12.5" y="21.445" width="7" height=".934"/><path d="m19 24.5c0-0.133-0.053-0.26-0.146-0.354-0.094-0.093-0.221-0.146-0.354-0.146h-5c-0.133 0-0.26 0.053-0.354 0.146-0.093 0.094-0.146 0.221-0.146 0.354s0.053 0.26 0.146 0.354c0.094 0.093 0.221 0.146 0.354 0.146h5c0.133 0 0.26-0.053 0.354-0.146 0.093-0.094 0.146-0.221 0.146-0.354z"/><path d="m18 27.5c0-0.133-0.053-0.26-0.146-0.354-0.094-0.093-0.221-0.146-0.354-0.146h-3c-0.133 0-0.26 0.053-0.354 0.146-0.093 0.094-0.146 0.221-0.146 0.354s0.053 0.26 0.146 0.354c0.094 0.093 0.221 0.146 0.354 0.146h3c0.133 0 0.26-0.053 0.354-0.146 0.093-0.094 0.146-0.221 0.146-0.354z"/></g><path d="m10 13 3.121-3.121c0.563-0.563 1.326-0.879 2.122-0.879h3.757l2.121-2.121c0.563-0.563 1.326-0.879 2.122-0.879h7.757v7h-21" fill="#52048e"/><clipPath id="_clip2"><path d="m10 13 3.121-3.121c0.563-0.563 1.326-0.879 2.122-0.879h3.757l2.121-2.121c0.563-0.563 1.326-0.879 2.122-0.879h7.757v7h-21"/></clipPath><g clip-path="url(#_clip2)"><path d="m10 13s2.239-1.119 3.367-1.683c0.416-0.209 0.875-0.317 1.341-0.317h5.292s1.697-0.566 2.538-0.846c0.306-0.102 0.626-0.154 0.949-0.154h7.513v3h-21z" fill="#dc6114"/></g><path d="m21 7-2.121-2.121c-0.563-0.563-1.326-0.879-2.122-0.879h-4.757s-3.824-1.912-5.367-2.683c-0.416-0.209-0.875-0.317-1.341-0.317h-7.292v4h8l3.578 1.789c0.277 0.139 0.584 0.211 0.894 0.211h7.528l4 2v-2h-1z" fill="#52048e"/><clipPath id="_clip3"><path d="m21 7-2.121-2.121c-0.563-0.563-1.326-0.879-2.122-0.879h-4.757s-3.824-1.912-5.367-2.683c-0.416-0.209-0.875-0.317-1.341-0.317h-7.292v4h8l3.578 1.789c0.277 0.139 0.584 0.211 0.894 0.211h7.528l4 2v-2h-1z"/></clipPath><g clip-path="url(#_clip3)"><path d="m1 4h5.292c0.466 0 0.925 0.108 1.341 0.317 1.128 0.564 3.367 1.683 3.367 1.683h6.092c0.592 0 1.171 0.175 1.664 0.504l2.244 1.496h-20v-4z" fill="#dc6114"/></g><path d="m0 10h1.172c0.53 0 1.039 0.211 1.414 0.586l1.414 1.414h2.343c1.061 0 2.078 0.421 2.829 1.172l2.828 2.828h-12v-6z" fill="#52048e"/><clipPath id="_clip4"><path d="m0 10h1.172c0.53 0 1.039 0.211 1.414 0.586l1.414 1.414h2.343c1.061 0 2.078 0.421 2.829 1.172l2.828 2.828h-12v-6z"/></clipPath><g clip-path="url(#_clip4)"><path d="m9 16-1.121-1.121c-0.563-0.563-1.326-0.879-2.122-0.879h-6.757v3h10v-1z" fill="#dc6114"/></g><path d="m26.828 16c-0.53 0-1.039 0.211-1.414 0.586l-1.414 1.414h7v-2h-4.172z" fill="#52048e"/></g></g></svg>
