<?xml version="1.0" encoding="UTF-8"?>
<!DOCTYPE svg  PUBLIC '-//W3C//DTD SVG 1.1//EN'  'http://www.w3.org/Graphics/SVG/1.1/DTD/svg11.dtd'>
<svg clip-rule="evenodd" fill-rule="evenodd" stroke-linecap="round" stroke-linejoin="round" stroke-miterlimit="1.5" version="1.1" viewBox="0 0 32 32" xml:space="preserve" xmlns="http://www.w3.org/2000/svg" xmlns:serif="http://www.serif.com/">
<metadata>
<rdf:RDF xmlns:cc="http://web.resource.org/cc/" xmlns:dc="http://purl.org/dc/elements/1.1/" xmlns:rdf="http://www.w3.org/1999/02/22-rdf-syntax-ns#">

     <rdf:Description rdf:about="">
       <dc:title>Mutant Standard emoji 2023.12</dc:title>
     </rdf:Description>

    <cc:work rdf:about="">
        <cc:license rdf:resource="http://creativecommons.org/licenses/by-nc-sa/4.0/"/>
        <cc:attributionName>Caius Nocturne</cc:attributionName>
        <cc:attributionURL>http://mutant.tech/</cc:attributionURL>
    </cc:work>

</rdf:RDF>
</metadata>

    <rect id="_1f627_anguished" width="32" height="32" fill="none" serif:id="1f627_anguished"/>
    <clipPath id="_clip1">
        <rect width="32" height="32"/>
    </clipPath>
    <g clip-path="url(#_clip1)">
        <path d="m16 29.5c-8.1-0-14-4.764-14-11.5 0-8.538 6.912-14 14-14s14 5.462 14 14c0 6.736-5.9 11.5-14 11.5z" fill="none" stroke="#000" stroke-width="4px"/>
        <path d="m16 29.5c-8.1-0-14-4.764-14-11.5 0-8.538 6.912-14 14-14s14 5.462 14 14c0 6.736-5.9 11.5-14 11.5z" fill="#ffb636"/>
        <path d="m8.543 8.448c0.414 0.717 1.72 0.739 2.915 0.049s1.829-1.832 1.415-2.549-1.72-0.739-2.915-0.049c-1.195 0.689-1.829 1.832-1.415 2.549z"/>
        <path d="m23.457 8.448c-0.414 0.717-1.72 0.739-2.915 0.049s-1.829-1.832-1.415-2.549 1.72-0.739 2.915-0.049c1.195 0.689 1.829 1.832 1.415 2.549z"/>
        <path d="m11.837 25.993c-0.405-0.038-0.777-0.25-1.018-0.584-0.267-0.37-0.34-0.847-0.195-1.281l0.214-0.641c0.694-2.082 2.643-3.487 4.838-3.487h0.648c2.195 0 4.144 1.405 4.838 3.487l0.214 0.641c0.145 0.434 0.072 0.911-0.195 1.281-0.241 0.334-0.613 0.546-1.018 0.584-0.935-1.244-7.391-1.244-8.326 0z"/>
        <path d="m20.163 25.993c-0.045 5e-3 -0.09 7e-3 -0.136 7e-3h-8.054c-0.046-0-0.091-2e-3 -0.136-7e-3 0.935-1.244 2.407-1.989 3.983-1.989h0.36c1.576 0 3.048 0.745 3.983 1.989z" fill="#c33700"/>
        <path d="m22.5 20c-2.484-0-4.5-2.464-4.5-5.5-0-1.959 0.839-3.679 2.102-4.654l6.187 1.687c0.45 0.857 0.711 1.875 0.711 2.967 0 3.036-2.016 5.5-4.5 5.5zm-13-0c-2.484-0-4.5-2.464-4.5-5.5-0-1.092 0.261-2.11 0.711-2.967l6.187-1.687c1.263 0.975 2.102 2.695 2.102 4.654-0 3.036-2.016 5.5-4.5 5.5z" fill="#fff"/>
        <path d="m10.5 12c1.38 0 2.5 1.12 2.5 2.5s-1.12 2.5-2.5 2.5-2.5-1.12-2.5-2.5 1.12-2.5 2.5-2.5zm11 0c1.38 0 2.5 1.12 2.5 2.5s-1.12 2.5-2.5 2.5-2.5-1.12-2.5-2.5 1.12-2.5 2.5-2.5z"/>
    </g>
</svg>
