<?xml version="1.0" encoding="UTF-8"?>
<!DOCTYPE svg  PUBLIC '-//W3C//DTD SVG 1.1//EN'  'http://www.w3.org/Graphics/SVG/1.1/DTD/svg11.dtd'>
<svg clip-rule="evenodd" fill-rule="evenodd" stroke-linejoin="round" stroke-miterlimit="1.5" version="1.1" viewBox="0 0 32 32" xml:space="preserve" xmlns="http://www.w3.org/2000/svg" xmlns:serif="http://www.serif.com/">
<metadata>
<rdf:RDF xmlns:cc="http://web.resource.org/cc/" xmlns:dc="http://purl.org/dc/elements/1.1/" xmlns:rdf="http://www.w3.org/1999/02/22-rdf-syntax-ns#">

     <rdf:Description rdf:about="">
       <dc:title>Mutant Standard emoji 2023.12</dc:title>
     </rdf:Description>

    <cc:work rdf:about="">
        <cc:license rdf:resource="http://creativecommons.org/licenses/by-nc-sa/4.0/"/>
        <cc:attributionName>Caius Nocturne</cc:attributionName>
        <cc:attributionURL>http://mutant.tech/</cc:attributionURL>
    </cc:work>

</rdf:RDF>
</metadata>

    <rect id="_1f618_blowing_a_kiss" width="32" height="32" fill="none" serif:id="1f618_blowing_a_kiss"/>
    <clipPath id="_clip1">
        <rect width="32" height="32"/>
    </clipPath>
    <g clip-path="url(#_clip1)">
        <path d="m24.995 28.327c-0.248 0.045-0.503-0.023-0.696-0.186-0.78-0.691-2.849-2.702-3.569-5.199-0.888-3.076 1.006-5.707 3.434-5.21 1.407 0.288 2.19 1.324 2.374 2.408 0.011 0.119 0.095 0.219 0.211 0.25s0.239-0.013 0.307-0.112c0.702-0.846 1.898-1.352 3.261-0.897 2.351 0.784 2.676 4.009 0.369 6.228-1.873 1.802-4.67 2.51-5.691 2.718z" fill="none" stroke="#000" stroke-width="4px"/>
        <path d="m16 30c-8.1 0-14-5.5-14-12.5 0-11.095 9.192-14 14-14s14 2.905 14 14c-0 7-5.9 12.5-14 12.5z" fill="none" stroke="#000" stroke-linecap="round" stroke-width="4px"/>
        <path d="m16 30c-8.1 0-14-5.5-14-12.5 0-11.095 9.192-14 14-14s14 2.905 14 14c-0 7-5.9 12.5-14 12.5z" fill="#ffb636"/>
        <path d="m24.995 28.327c-0.248 0.045-0.503-0.023-0.696-0.186-0.78-0.691-2.849-2.702-3.569-5.199-0.888-3.076 1.006-5.707 3.434-5.21 1.407 0.288 2.19 1.324 2.374 2.408 0.011 0.119 0.095 0.219 0.211 0.25s0.239-0.013 0.307-0.112c0.702-0.846 1.898-1.352 3.261-0.897 2.351 0.784 2.676 4.009 0.369 6.228-1.873 1.802-4.67 2.51-5.691 2.718z" fill="#ff3c80"/>
        <path d="m7.293 7.845c0.215 0.799 1.471 1.159 2.804 0.801 1.332-0.357 2.24-1.296 2.026-2.095-0.214-0.8-1.47-1.159-2.803-0.802s-2.241 1.296-2.027 2.096z"/>
        <path d="m24.792 10.198c-0 0.827-1.12 1.5-2.5 1.5s-2.5-0.673-2.5-1.5c-0-0.828 1.12-1.5 2.5-1.5s2.5 0.672 2.5 1.5z"/>
        <path d="m19 17s0.059-0.137 0.16-0.372c0.564-1.318 1.805-2.22 3.233-2.351 1.427-0.131 2.812 0.53 3.607 1.723v0" fill="none" stroke="#000" stroke-linecap="round" stroke-width="2px"/>
        <path d="m12.087 19.5h-5.174c-1.157-0.996-1.913-2.641-1.913-4.5-0-3.036 2.016-5.5 4.5-5.5s4.5 2.464 4.5 5.5c-0 1.859-0.756 3.504-1.913 4.5z" fill="#fff"/>
        <ellipse cx="10.25" cy="15" rx="2.5" ry="3"/>
        <path d="m16 27s0.596-0.149 1.137-0.284c0.507-0.127 0.863-0.583 0.863-1.105v-0.222c-0-0.522-0.356-0.978-0.863-1.105-0.541-0.135-1.137-0.284-1.137-0.284s0.596-0.149 1.137-0.284c0.507-0.127 0.863-0.583 0.863-1.105v-0.222c-0-0.522-0.356-0.978-0.863-1.105-0.541-0.135-1.137-0.284-1.137-0.284" fill="none" stroke="#694300" stroke-linecap="round" stroke-width="2px"/>
    </g>
</svg>
