<?xml version="1.0" encoding="UTF-8"?>
<!DOCTYPE svg  PUBLIC '-//W3C//DTD SVG 1.1//EN'  'http://www.w3.org/Graphics/SVG/1.1/DTD/svg11.dtd'>
<svg clip-rule="evenodd" fill-rule="evenodd" stroke-linecap="round" stroke-linejoin="round" stroke-miterlimit="1.5" version="1.1" viewBox="0 0 32 32" xml:space="preserve" xmlns="http://www.w3.org/2000/svg" xmlns:serif="http://www.serif.com/">
<metadata>
<rdf:RDF xmlns:cc="http://web.resource.org/cc/" xmlns:dc="http://purl.org/dc/elements/1.1/" xmlns:rdf="http://www.w3.org/1999/02/22-rdf-syntax-ns#">

     <rdf:Description rdf:about="">
       <dc:title>Mutant Standard emoji 2023.12</dc:title>
     </rdf:Description>

    <cc:work rdf:about="">
        <cc:license rdf:resource="http://creativecommons.org/licenses/by-nc-sa/4.0/"/>
        <cc:attributionName>Caius Nocturne</cc:attributionName>
        <cc:attributionURL>http://mutant.tech/</cc:attributionURL>
    </cc:work>

</rdf:RDF>
</metadata>

    <rect id="_1f61a_blush_kiss" width="32" height="32" fill="none" serif:id="1f61a_blush_kiss"/>
    <path d="m16.463 3.509c4.91 0.18 13.537 3.242 13.537 13.991-0 7-5.9 12.5-14 12.5s-14-5.5-14-12.5c0-11.095 9.192-14 14-14l0.463 9e-3z" fill="none" stroke="#000" stroke-width="4px"/>
    <path d="m2.007 16.968c0.289-10.656 9.263-13.468 13.993-13.468l0.463 9e-3c4.828 0.177 13.25 3.141 13.53 13.459-0.95-0.605-2.598 7.489-2.175 7.409-2.423 3.408-6.678 5.623-11.818 5.623s-9.395-2.215-11.818-5.623c0.423 0.08-1.225-8.014-2.175-7.409z" fill="none" stroke="#000" stroke-width="4px"/>
    <path d="m2.007 16.968c0.289-10.656 9.263-13.468 13.993-13.468l0.463 9e-3c4.828 0.177 13.25 3.141 13.53 13.459-0.95-0.605-2.598 7.489-2.175 7.409-2.423 3.408-6.678 5.623-11.818 5.623s-9.395-2.215-11.818-5.623c0.423 0.08-1.225-8.014-2.175-7.409z" fill="#ffb636"/>
    <path d="m27.818 24.377c-0.423 0.08-0.864 0.123-1.318 0.123-3.036 0-5.5-1.904-5.5-4.25s2.464-4.25 5.5-4.25c1.326 0 2.543 0.363 3.493 0.968 5e-3 0.175 7e-3 0.353 7e-3 0.532 0 2.558-0.788 4.915-2.182 6.877zm-23.636 0c-1.394-1.962-2.182-4.319-2.182-6.877 0-0.179 2e-3 -0.357 7e-3 -0.532 0.95-0.605 2.167-0.968 3.493-0.968 3.036 0 5.5 1.904 5.5 4.25s-2.464 4.25-5.5 4.25c-0.454 0-0.895-0.043-1.318-0.123z" fill="#f26f1c"/>
    <path d="m7.543 10.75c0.414 0.717 1.72 0.739 2.915 0.049s1.829-1.832 1.415-2.549-1.72-0.739-2.915-0.049-1.829 1.832-1.415 2.549z"/>
    <path d="m24.457 10.75c-0.414 0.717-1.72 0.739-2.915 0.049s-1.829-1.832-1.415-2.549 1.72-0.739 2.915-0.049 1.829 1.832 1.415 2.549z"/>
    <path d="m19 17s0.059-0.137 0.16-0.372c0.564-1.318 1.805-2.22 3.233-2.351 1.427-0.131 2.812 0.53 3.607 1.723" fill="none" stroke="#000" stroke-width="2px"/>
    <path d="m13 17s-0.059-0.137-0.16-0.372c-0.564-1.318-1.805-2.22-3.233-2.351-1.427-0.131-2.812 0.53-3.607 1.723" fill="none" stroke="#000" stroke-width="2px"/>
    <path d="m16 27s0.596-0.149 1.137-0.284c0.507-0.127 0.863-0.583 0.863-1.105v-0.222c-0-0.522-0.356-0.978-0.863-1.105-0.541-0.135-1.137-0.284-1.137-0.284s0.596-0.149 1.137-0.284c0.507-0.127 0.863-0.583 0.863-1.105v-0.222c-0-0.522-0.356-0.978-0.863-1.105-0.541-0.135-1.137-0.284-1.137-0.284" fill="none" stroke="#694300" stroke-width="2px"/>
</svg>
