<?xml version="1.0" encoding="UTF-8"?>
<!DOCTYPE svg  PUBLIC '-//W3C//DTD SVG 1.1//EN'  'http://www.w3.org/Graphics/SVG/1.1/DTD/svg11.dtd'>
<svg clip-rule="evenodd" fill-rule="evenodd" stroke-linecap="round" stroke-linejoin="round" stroke-miterlimit="1.5" version="1.1" viewBox="0 0 32 32" xml:space="preserve" xmlns="http://www.w3.org/2000/svg" xmlns:serif="http://www.serif.com/">
<metadata>
<rdf:RDF xmlns:cc="http://web.resource.org/cc/" xmlns:dc="http://purl.org/dc/elements/1.1/" xmlns:rdf="http://www.w3.org/1999/02/22-rdf-syntax-ns#">

     <rdf:Description rdf:about="">
       <dc:title>Mutant Standard emoji 2023.12</dc:title>
     </rdf:Description>

    <cc:work rdf:about="">
        <cc:license rdf:resource="http://creativecommons.org/licenses/by-nc-sa/4.0/"/>
        <cc:attributionName>Caius Nocturne</cc:attributionName>
        <cc:attributionURL>http://mutant.tech/</cc:attributionURL>
    </cc:work>

</rdf:RDF>
</metadata>

    <rect id="_1f616_confounded" width="32" height="32" fill="none" serif:id="1f616_confounded"/>
    <path d="m16 29.5c-8.1 0-14-3.792-14-10 0-7.868 6.75-13.5 14-13.5s14 5.632 14 13.5c0 6.208-5.9 10-14 10z" fill="none" stroke="#000" stroke-width="4px"/>
    <path d="m16 29.5c-8.1 0-14-3.792-14-10 0-7.868 6.75-13.5 14-13.5s14 5.632 14 13.5c0 6.208-5.9 10-14 10z" fill="#ffb636"/>
    <path d="m19 19.996s2e-3 -4e-3 6e-3 -0.01c1.196-1.793 3.39-2.641 5.481-2.119 0.312 0.078 0.513 0.129 0.513 0.129" fill="none" stroke="#000" stroke-width="2px"/>
    <path d="m13 20s-2e-3 -3e-3 -6e-3 -0.01c-1.196-1.793-3.39-2.641-5.481-2.118-0.312 0.078-0.513 0.128-0.513 0.128" fill="none" stroke="#000" stroke-width="2px"/>
    <path d="m9.5 26 1.5-2.5 2.5 2 2.5-2 2.5 2 2.5-2 1.5 2.5" fill="none" stroke="#694300" stroke-width="2px"/>
    <path d="m9.941 11.794c-0.586 0.585-0.269 1.853 0.707 2.828 0.975 0.976 2.243 1.293 2.828 0.707 0.585-0.585 0.269-1.852-0.707-2.828s-2.243-1.293-2.828-0.707z"/>
    <path d="m22.059 11.794c0.586 0.585 0.269 1.853-0.707 2.828-0.975 0.976-2.243 1.293-2.828 0.707-0.585-0.585-0.269-1.852 0.707-2.828s2.243-1.293 2.828-0.707z"/>
</svg>
