<?xml version="1.0" encoding="UTF-8"?>
<!DOCTYPE svg  PUBLIC '-//W3C//DTD SVG 1.1//EN'  'http://www.w3.org/Graphics/SVG/1.1/DTD/svg11.dtd'>
<svg clip-rule="evenodd" fill-rule="evenodd" stroke-linecap="round" stroke-linejoin="round" stroke-miterlimit="1.5" version="1.1" viewBox="0 0 32 32" xml:space="preserve" xmlns="http://www.w3.org/2000/svg" xmlns:serif="http://www.serif.com/">
<metadata>
<rdf:RDF xmlns:cc="http://web.resource.org/cc/" xmlns:dc="http://purl.org/dc/elements/1.1/" xmlns:rdf="http://www.w3.org/1999/02/22-rdf-syntax-ns#">

     <rdf:Description rdf:about="">
       <dc:title>Mutant Standard emoji 2023.12</dc:title>
     </rdf:Description>

    <cc:work rdf:about="">
        <cc:license rdf:resource="http://creativecommons.org/licenses/by-nc-sa/4.0/"/>
        <cc:attributionName>Caius Nocturne</cc:attributionName>
        <cc:attributionURL>http://mutant.tech/</cc:attributionURL>
    </cc:work>

</rdf:RDF>
</metadata>

    <rect id="_1f920_cowhand" width="32" height="32" fill="none" serif:id="1f920_cowhand"/>
    <clipPath id="_clip1">
        <rect width="32" height="32"/>
    </clipPath>
    <g clip-path="url(#_clip1)">
        <path d="m5.98 11h-0.844c-0.832-0-1.629-0.33-2.217-0.919-0.589-0.588-0.919-1.386-0.919-2.218-0-0.565 0.311-1.085 0.809-1.351 0.498-0.267 1.103-0.238 1.573 0.076l1.603 1.068c0.526 0.351 1.09 0.637 1.678 0.853l1.96-4.41c0.349-0.786 1.018-1.384 1.837-1.642 0.82-0.259 1.711-0.155 2.448 0.288l2.092 1.255 2.092-1.255c0.737-0.443 1.628-0.547 2.448-0.288 0.819 0.258 1.488 0.856 1.837 1.642l1.96 4.41c0.588-0.216 1.152-0.502 1.678-0.853l1.603-1.068c0.47-0.314 1.075-0.343 1.573-0.076 0.498 0.266 0.809 0.786 0.809 1.351 0 0.832-0.33 1.63-0.919 2.218-0.588 0.589-1.385 0.919-2.217 0.919h-0.844c1.511 1.956 2.48 4.45 2.48 7.415-0 6.208-5.268 11.085-12.5 11.085s-12.5-4.877-12.5-11.085c-0-2.965 0.969-5.459 2.48-7.415z" fill="none" stroke="#000" stroke-width="4px"/>
        <path d="m16 29.5c-7.232 0-12.5-4.877-12.5-11.085 0-7.868 6.822-12.415 12.5-12.415s12.5 4.547 12.5 12.415c0 6.208-5.268 11.085-12.5 11.085z" fill="#ffb636"/>
        <rect x="4" y="10" width="11" height="12" fill="none"/>
        <ellipse cx="10" cy="16" rx="4" ry="5" fill="#fff"/>
        <ellipse cx="11" cy="16" rx="2.5" ry="3"/>
        <rect x="17" y="10" width="11" height="12" fill="none"/>
        <ellipse cx="22" cy="16" rx="4" ry="5" fill="#fff"/>
        <ellipse cx="21" cy="16" rx="2.5" ry="3"/>
        <path d="m12.061 23.004s0.144 0.127 0.378 0.331c2.074 1.815 5.17 1.815 7.244 0 0.234-0.204 0.378-0.331 0.378-0.331" fill="none" stroke="#694300" stroke-width="2px"/>
        
            <path d="m17.487 7.4 6.624 0.6 0.889 2h-18l0.889-2 6.54-0.615-6.096-0.385 1.29-2.901c0.349-0.786 1.018-1.384 1.837-1.642 0.82-0.259 1.711-0.155 2.448 0.288l2.092 1.255 2.092-1.255c0.737-0.443 1.628-0.547 2.448-0.288 0.819 0.258 1.488 0.856 1.837 1.642l1.29 2.901-6.18 0.4z" fill="#6c5935"/>
            <path d="m7.889 8 0.444-1h15.334l0.444 1h-16.222z" fill="#978156"/>
            <path d="m5.985 7.656c1.314 0.876 2.858 1.344 4.437 1.344h11.156c1.579-0 3.123-0.468 4.437-1.344 0.515-0.342 1.072-0.714 1.603-1.068 0.47-0.314 1.075-0.343 1.573-0.076 0.498 0.266 0.809 0.786 0.809 1.351v1e-3c0 0.832-0.33 1.629-0.919 2.217-0.588 0.589-1.385 0.919-2.217 0.919h-21.728c-0.832-0-1.629-0.33-2.217-0.919-0.589-0.588-0.919-1.385-0.919-2.217v-1e-3c-0-0.565 0.311-1.085 0.809-1.351 0.498-0.267 1.103-0.238 1.573 0.076 0.531 0.354 1.088 0.726 1.603 1.068z" fill="#4e4024"/>
        
    </g>
</svg>
