<?xml version="1.0" encoding="UTF-8"?>
<!DOCTYPE svg  PUBLIC '-//W3C//DTD SVG 1.1//EN'  'http://www.w3.org/Graphics/SVG/1.1/DTD/svg11.dtd'>
<svg clip-rule="evenodd" fill-rule="evenodd" stroke-linecap="round" stroke-linejoin="round" stroke-miterlimit="1.5" version="1.1" viewBox="0 0 32 32" xml:space="preserve" xmlns="http://www.w3.org/2000/svg" xmlns:serif="http://www.serif.com/">
<metadata>
<rdf:RDF xmlns:cc="http://web.resource.org/cc/" xmlns:dc="http://purl.org/dc/elements/1.1/" xmlns:rdf="http://www.w3.org/1999/02/22-rdf-syntax-ns#">

     <rdf:Description rdf:about="">
       <dc:title>Mutant Standard emoji 2023.12</dc:title>
     </rdf:Description>

    <cc:work rdf:about="">
        <cc:license rdf:resource="http://creativecommons.org/licenses/by-nc-sa/4.0/"/>
        <cc:attributionName>Caius Nocturne</cc:attributionName>
        <cc:attributionURL>http://mutant.tech/</cc:attributionURL>
    </cc:work>

</rdf:RDF>
</metadata>

    <rect id="_1f92a_crazy" width="32" height="32" fill="none" serif:id="1f92a_crazy"/>
    <path d="m16 30c-8.1-0-14-4.764-14-11.5 0-8.538 7.163-14 14-14s14 5.462 14 14c0 6.736-5.9 11.5-14 11.5z" fill="none" stroke="#000" stroke-width="4px"/>
    <path d="m16 30c-8.1-0-14-4.764-14-11.5 0-8.538 7.163-14 14-14s14 5.462 14 14c0 6.736-5.9 11.5-14 11.5z" fill="#ffb636"/>
    <path d="m9.973 9.025c2.262 0.237 4.027 2.151 4.027 4.475-0 2.484-2.016 4.5-4.5 4.5-2.324-0-4.238-1.765-4.475-4.027 0.633 0.635 5.583-4.315 4.948-4.948z" fill="#fff"/>
    <path d="m26.975 13.973c-0.237 2.262-2.151 4.027-4.475 4.027-2.484-0-4.5-2.016-4.5-4.5 0-2.324 1.765-4.238 4.027-4.475-0.635 0.633 4.315 5.583 4.948 4.948z" fill="#fff"/>
    <path d="m5.025 13.973c-0.017-0.155-0.025-0.313-0.025-0.473-0-2.484 2.016-4.5 4.5-4.5 0.16-0 0.318 8e-3 0.473 0.025 0.635 0.633 1.027 1.509 1.027 2.475 0 1.932-1.568 3.5-3.5 3.5-0.966-0-1.842-0.392-2.475-1.027z"/>
    <path d="m26.975 13.973c-0.633 0.635-1.509 1.027-2.475 1.027-1.932-0-3.5-1.568-3.5-3.5 0-0.966 0.392-1.842 1.027-2.475 0.155-0.017 0.313-0.025 0.473-0.025 2.484-0 4.5 2.016 4.5 4.5 0 0.16-8e-3 0.318-0.025 0.473z"/>
    <path d="m21.005 23.428c0.616-0.675 1.091-1.49 1.373-2.405l0.061-0.198c0.107-0.349 0.015-0.729-0.24-0.99-0.254-0.261-0.632-0.363-0.983-0.265-1.448 0.429-3.522 0.93-5.216 0.93s-3.768-0.501-5.218-0.924c-0.349-0.098-0.724 3e-3 -0.977 0.263s-0.344 0.637-0.238 0.984c0.014 0.067 0.035 0.133 0.055 0.2 0.282 0.915 0.757 1.73 1.373 2.405 1.006-1.207 9.004-1.207 10.01 0z"/>
    <path d="m20 24.32c-0.454-0.51-0.5-1.108 0-1.823 0.371 0.264 0.71 0.576 1.005 0.931-0.303 0.333-0.64 0.632-1.005 0.892zm-8-1.823c0.286 0.643 0.259 1.248 0 1.823-0.365-0.26-0.702-0.559-1.005-0.892 0.295-0.355 0.634-0.667 1.005-0.931z" fill="#872600"/>
    <path d="m20 24.32c-5e-3 3e-3 -9e-3 7e-3 -0.014 0.01-0.077 0.94-0.486 1.826-1.158 2.498-0.75 0.751-1.767 1.172-2.828 1.172s-2.078-0.421-2.828-1.172c-0.672-0.672-1.081-1.558-1.158-2.498-5e-3 -3e-3 -9e-3 -7e-3 -0.014-0.01v-1.823c0.892-0.635 1.972-0.993 3.104-0.993h1.792c1.132 0 2.212 0.358 3.104 0.993v1.823z" fill="#c33700"/>
</svg>
