<?xml version="1.0" encoding="UTF-8"?>
<!DOCTYPE svg  PUBLIC '-//W3C//DTD SVG 1.1//EN'  'http://www.w3.org/Graphics/SVG/1.1/DTD/svg11.dtd'>
<svg clip-rule="evenodd" fill-rule="evenodd" stroke-linecap="round" stroke-linejoin="round" stroke-miterlimit="1.5" version="1.1" viewBox="0 0 32 32" xml:space="preserve" xmlns="http://www.w3.org/2000/svg" xmlns:serif="http://www.serif.com/">
<metadata>
<rdf:RDF xmlns:cc="http://web.resource.org/cc/" xmlns:dc="http://purl.org/dc/elements/1.1/" xmlns:rdf="http://www.w3.org/1999/02/22-rdf-syntax-ns#">

     <rdf:Description rdf:about="">
       <dc:title>Mutant Standard emoji 2023.12</dc:title>
     </rdf:Description>

    <cc:work rdf:about="">
        <cc:license rdf:resource="http://creativecommons.org/licenses/by-nc-sa/4.0/"/>
        <cc:attributionName>Caius Nocturne</cc:attributionName>
        <cc:attributionURL>http://mutant.tech/</cc:attributionURL>
    </cc:work>

</rdf:RDF>
</metadata>

    <rect id="_1f635_dead" width="32" height="32" fill="none" serif:id="1f635_dead"/>
    <clipPath id="_clip1">
        <rect width="32" height="32"/>
    </clipPath>
    <g clip-path="url(#_clip1)">
        <path d="m16 30c-8.1-0-14-3.625-14-8.802-0-3.105 1.522-6.833 3.658-8.876 2.625-2.509 5.725-4.322 10.342-4.322s7.717 1.813 10.342 4.322c2.136 2.043 3.658 5.771 3.658 8.876 0 5.177-5.9 8.802-14 8.802z" fill="none" stroke="#000" stroke-width="4px"/>
        <path d="m16 30c-8.1-0-14-3.625-14-8.802-0-3.105 1.522-6.833 3.658-8.876 2.625-2.509 5.725-4.322 10.342-4.322s7.717 1.813 10.342 4.322c2.136 2.043 3.658 5.771 3.658 8.876 0 5.177-5.9 8.802-14 8.802z" fill="#ffb636"/>
        <g fill="none" stroke="#000" stroke-width="2px">
            <path d="m19.5 13.5 5 4"/>
            <path d="m19.5 17.5 5-4"/>
        
        
            <path d="m12.5 17.5-5-4"/>
            <path d="m12.5 13.5-5 4"/>
        </g>
        <path d="m12.773 26h-0.302c-0.862 0-1.652-0.482-2.046-1.248s-0.327-1.689 0.173-2.39l0.695-0.972c1.071-1.5 2.801-2.39 4.644-2.39h0.126c1.843 0 3.573 0.89 4.644 2.39l0.695 0.972c0.5 0.701 0.567 1.624 0.173 2.39s-1.184 1.248-2.046 1.248h-0.302c-0.416-1.178-6.038-1.178-6.454-0z"/>
        <path d="m19.227 26c-0.416-1.178-1.537-2-2.829-2h-0.796c-1.292-0-2.413 0.822-2.829 2h6.454z" fill="#c33700"/>
    </g>
</svg>
