<?xml version="1.0" encoding="UTF-8"?>
<!DOCTYPE svg  PUBLIC '-//W3C//DTD SVG 1.1//EN'  'http://www.w3.org/Graphics/SVG/1.1/DTD/svg11.dtd'>
<svg clip-rule="evenodd" fill-rule="evenodd" stroke-linecap="round" stroke-linejoin="round" stroke-miterlimit="1.5" version="1.1" viewBox="0 0 32 32" xml:space="preserve" xmlns="http://www.w3.org/2000/svg" xmlns:serif="http://www.serif.com/">
<metadata>
<rdf:RDF xmlns:cc="http://web.resource.org/cc/" xmlns:dc="http://purl.org/dc/elements/1.1/" xmlns:rdf="http://www.w3.org/1999/02/22-rdf-syntax-ns#">

     <rdf:Description rdf:about="">
       <dc:title>Mutant Standard emoji 2023.12</dc:title>
     </rdf:Description>

    <cc:work rdf:about="">
        <cc:license rdf:resource="http://creativecommons.org/licenses/by-nc-sa/4.0/"/>
        <cc:attributionName>Caius Nocturne</cc:attributionName>
        <cc:attributionURL>http://mutant.tech/</cc:attributionURL>
    </cc:work>

</rdf:RDF>
</metadata>

    <rect id="_1f61e_disappointed" width="32" height="32" fill="none" serif:id="1f61e_disappointed"/>
    <clipPath id="_clip1">
        <rect width="32" height="32"/>
    </clipPath>
    <g clip-path="url(#_clip1)">
        <path d="m16 30c-8.1 0-14-4.492-14-11.328 0-3.529 1.356-6.814 4.111-9.6 2.683-2.713 6.618-4.072 9.889-4.072s7.206 1.359 9.889 4.072c2.755 2.786 4.111 6.071 4.111 9.6 0 6.836-5.9 11.328-14 11.328z" fill="none" stroke="#000" stroke-width="4px"/>
        <path d="m16 30c-8.1 0-14-4.492-14-11.328 0-3.529 1.356-6.814 4.111-9.6 2.683-2.713 6.618-4.072 9.889-4.072s7.206 1.359 9.889 4.072c2.755 2.786 4.111 6.071 4.111 9.6 0 6.836-5.9 11.328-14 11.328z" fill="#ffb636"/>
        <path d="m19 17s0.178 0.237 0.446 0.595c1.479 1.972 4.156 2.604 6.361 1.502 0.122-0.062 0.193-0.097 0.193-0.097" fill="none" stroke="#000" stroke-width="2px"/>
        <path d="m13 17s-0.178 0.237-0.446 0.595c-1.479 1.972-4.156 2.604-6.361 1.502-0.122-0.062-0.193-0.097-0.193-0.097" fill="none" stroke="#000" stroke-width="2px"/>
        <path d="m11.061 25.004s0.62-0.376 1.42-0.863c2.165-1.314 4.878-1.322 7.05-0.021 0.826 0.494 1.469 0.88 1.469 0.88" fill="none" stroke="#694300" stroke-width="2px"/>
    </g>
</svg>
