<?xml version="1.0" encoding="UTF-8"?>
<!DOCTYPE svg  PUBLIC '-//W3C//DTD SVG 1.1//EN'  'http://www.w3.org/Graphics/SVG/1.1/DTD/svg11.dtd'>
<svg clip-rule="evenodd" fill-rule="evenodd" stroke-linecap="round" stroke-linejoin="round" stroke-miterlimit="1.5" version="1.1" viewBox="0 0 32 32" xml:space="preserve" xmlns="http://www.w3.org/2000/svg" xmlns:serif="http://www.serif.com/">
<metadata>
<rdf:RDF xmlns:cc="http://web.resource.org/cc/" xmlns:dc="http://purl.org/dc/elements/1.1/" xmlns:rdf="http://www.w3.org/1999/02/22-rdf-syntax-ns#">

     <rdf:Description rdf:about="">
       <dc:title>Mutant Standard emoji 2023.12</dc:title>
     </rdf:Description>

    <cc:work rdf:about="">
        <cc:license rdf:resource="http://creativecommons.org/licenses/by-nc-sa/4.0/"/>
        <cc:attributionName>Caius Nocturne</cc:attributionName>
        <cc:attributionURL>http://mutant.tech/</cc:attributionURL>
    </cc:work>

</rdf:RDF>
</metadata>

    <rect id="_1f625_disappointed_but_relieved" width="32" height="32" fill="none" serif:id="1f625_disappointed_but_relieved"/>
    <clipPath id="_clip1">
        <rect width="32" height="32"/>
    </clipPath>
    <g clip-path="url(#_clip1)">
        <path d="m25 2s-2.065 3.717-3.541 6.373c-0.864 1.555-0.592 3.494 0.666 4.752l0.058 0.058c0.747 0.747 1.761 1.167 2.817 1.167s2.07-0.42 2.817-1.167l0.058-0.058c1.258-1.258 1.53-3.197 0.666-4.752-1.476-2.656-3.541-6.373-3.541-6.373z" fill="none" stroke="#000" stroke-width="4px"/>
        <path d="m16 30c-8.1 0-14-4.492-14-11.328 0-3.529 1.356-6.814 4.111-9.6 2.683-2.713 6.618-4.072 9.889-4.072s7.206 1.359 9.889 4.072c2.755 2.786 4.111 6.071 4.111 9.6 0 6.836-5.9 11.328-14 11.328z" fill="none" stroke="#000" stroke-width="4px"/>
        <path d="m16 30c-8.1 0-14-4.492-14-11.328 0-3.529 1.356-6.814 4.111-9.6 2.683-2.713 6.618-4.072 9.889-4.072s7.206 1.359 9.889 4.072c2.755 2.786 4.111 6.071 4.111 9.6 0 6.836-5.9 11.328-14 11.328z" fill="#ffb636"/>
        <path d="m13 17s-0.242 0.182-0.607 0.455c-1.947 1.46-4.671 1.267-6.392-0.454l-1e-3 -1e-3" fill="none" stroke="#000" stroke-width="2px"/>
        <path d="m19 17s0.242 0.182 0.607 0.455c1.947 1.46 4.671 1.267 6.392-0.454l1e-3 -1e-3" fill="none" stroke="#000" stroke-width="2px"/>
        <path d="m25 2s-2.065 3.717-3.541 6.373c-0.864 1.555-0.592 3.494 0.666 4.752l0.058 0.058c0.747 0.747 1.761 1.167 2.817 1.167s2.07-0.42 2.817-1.167l0.058-0.058c1.258-1.258 1.53-3.197 0.666-4.752-1.476-2.656-3.541-6.373-3.541-6.373z" fill="#3fa7ff"/>
        <path d="m12.061 24.004 1e-3 -1e-3c0.954-1.211 2.409-1.92 3.95-1.926 1.542-7e-3 3.002 0.691 3.965 1.895 0.015 0.018 0.023 0.028 0.023 0.028" fill="none" stroke="#694300" stroke-width="2px"/>
    </g>
</svg>
