<?xml version="1.0" encoding="UTF-8"?>
<!DOCTYPE svg  PUBLIC '-//W3C//DTD SVG 1.1//EN'  'http://www.w3.org/Graphics/SVG/1.1/DTD/svg11.dtd'>
<svg clip-rule="evenodd" fill-rule="evenodd" stroke-linecap="round" stroke-linejoin="round" stroke-miterlimit="1.5" version="1.1" viewBox="0 0 32 32" xml:space="preserve" xmlns="http://www.w3.org/2000/svg" xmlns:serif="http://www.serif.com/">
<metadata>
<rdf:RDF xmlns:cc="http://web.resource.org/cc/" xmlns:dc="http://purl.org/dc/elements/1.1/" xmlns:rdf="http://www.w3.org/1999/02/22-rdf-syntax-ns#">

     <rdf:Description rdf:about="">
       <dc:title>Mutant Standard emoji 2023.12</dc:title>
     </rdf:Description>

    <cc:work rdf:about="">
        <cc:license rdf:resource="http://creativecommons.org/licenses/by-nc-sa/4.0/"/>
        <cc:attributionName>Caius Nocturne</cc:attributionName>
        <cc:attributionURL>http://mutant.tech/</cc:attributionURL>
    </cc:work>

</rdf:RDF>
</metadata>

    <rect id="_1f978_disguised_face" width="32" height="32" fill="none" serif:id="1f978_disguised_face"/>
    <clipPath id="_clip1">
        <rect width="32" height="32"/>
    </clipPath>
    <g clip-path="url(#_clip1)">
        <path d="m16 29.5c-8.1 0-14-5.5-14-12.5 0-8.873 7.64-14 14-14s14 5.127 14 14c0 7-5.9 12.5-14 12.5z" fill="none" stroke="#000" stroke-width="4px"/>
        <path d="m16 29.5c-8.1 0-14-5.5-14-12.5 0-8.873 7.64-14 14-14s14 5.127 14 14c0 7-5.9 12.5-14 12.5z" fill="#ffb636"/>
        <path d="m4.549 10.703c-0.265 0.14-0.588 0.111-0.825-0.072s-0.345-0.489-0.277-0.781c0.19-0.88 0.411-1.825 0.506-2.228 0.032-0.136 0.099-0.261 0.195-0.362 0.545-0.533 2.471-2.26 4.848-2.26 2.815 0 5.004 0.72 5.004 3s-2.269 1.263-5.004 1.263c-1.541 0-3.249 0.769-4.447 1.44z"/>
        <path d="m27.451 10.703c0.265 0.14 0.588 0.111 0.825-0.072s0.345-0.489 0.277-0.781c-0.19-0.88-0.411-1.825-0.506-2.228-0.032-0.136-0.099-0.261-0.195-0.362-0.545-0.533-2.471-2.26-4.848-2.26-2.815 0-5.004 0.72-5.004 3s2.269 1.263 5.004 1.263c1.541 0 3.249 0.769 4.447 1.44z"/>
        <path d="m21 25.263c0.265 0 0.52-0.105 0.707-0.293 0.188-0.187 0.293-0.442 0.293-0.707v-3.263c-0-0.265-0.105-0.52-0.293-0.707-0.187-0.188-0.442-0.293-0.707-0.293h-10c-0.265-0-0.52 0.105-0.707 0.293-0.188 0.187-0.293 0.442-0.293 0.707v3.263c0 0.265 0.105 0.52 0.293 0.707 0.187 0.188 0.442 0.293 0.707 0.293h10z"/>
        <path d="m6 14h-4" fill="none" stroke="#595040" stroke-width="1.5px"/>
        <path d="m30 14h-4" fill="none" stroke="#595040" stroke-width="1.5px"/>
        <path d="m18 13.5h-4" fill="none" stroke="#595040" stroke-width="1.5px"/>
        <circle cx="9.5" cy="14.5" r="5.5" fill="#fff" stroke="#595040" stroke-width="1.5px"/>
        <circle cx="22.5" cy="14.5" r="5.5" fill="#fff" stroke="#595040" stroke-width="1.5px"/>
        <ellipse cx="21.5" cy="14.5" rx="2" ry="2.5"/>
        <ellipse cx="10.5" cy="14.5" rx="2" ry="2.5"/>
        <path d="m17.342 14.683c-0.254-0.508-0.774-0.829-1.342-0.829s-1.088 0.321-1.342 0.829c-0.805 1.612-1.817 3.636-2.573 5.146-0.232 0.465-0.207 1.017 0.066 1.46 0.273 0.442 0.756 0.711 1.276 0.711h5.146c0.52-0 1.003-0.269 1.276-0.711 0.273-0.443 0.298-0.995 0.066-1.46-0.756-1.51-1.768-3.534-2.573-5.146z" fill="#ab5e03"/>
    </g>
</svg>
