<?xml version="1.0" encoding="UTF-8"?>
<!DOCTYPE svg  PUBLIC '-//W3C//DTD SVG 1.1//EN'  'http://www.w3.org/Graphics/SVG/1.1/DTD/svg11.dtd'>
<svg clip-rule="evenodd" fill-rule="evenodd" stroke-linecap="round" stroke-linejoin="round" stroke-miterlimit="1.5" version="1.1" viewBox="0 0 32 32" xml:space="preserve" xmlns="http://www.w3.org/2000/svg" xmlns:serif="http://www.serif.com/">
<metadata>
<rdf:RDF xmlns:cc="http://web.resource.org/cc/" xmlns:dc="http://purl.org/dc/elements/1.1/" xmlns:rdf="http://www.w3.org/1999/02/22-rdf-syntax-ns#">

     <rdf:Description rdf:about="">
       <dc:title>Mutant Standard emoji 2023.12</dc:title>
     </rdf:Description>

    <cc:work rdf:about="">
        <cc:license rdf:resource="http://creativecommons.org/licenses/by-nc-sa/4.0/"/>
        <cc:attributionName>Caius Nocturne</cc:attributionName>
        <cc:attributionURL>http://mutant.tech/</cc:attributionURL>
    </cc:work>

</rdf:RDF>
</metadata>

    <rect id="_1f912_face_with_thermometer" width="32" height="32" fill="none" serif:id="1f912_face_with_thermometer"/>
    <clipPath id="_clip1">
        <rect width="32" height="32"/>
    </clipPath>
    <g clip-path="url(#_clip1)">
        <path d="m30 17.762c-0.015 6.855-5.91 12.238-14 12.238-8.1 0-14-5.396-14-12.264 0-8.706 7.64-13.736 14-13.736 4.935-0 10.642 3.03 12.951 8.456 0.548-0.031 1.107 0.162 1.526 0.581l0.712 0.712c0.78 0.78 0.78 2.044-0 2.824l-1.189 1.189z" fill="none" stroke="#000" stroke-width="4px"/>
        <path d="m28.248 11.049c-0.607 0.145-0.92 13.907-0.777 13.889-2.47 3.084-6.567 5.062-11.471 5.062s-9.001-1.978-11.471-5.062c0.315 0.041-1.577-7.595-2.528-7.024-1e-3 -0.059-1e-3 -0.118-1e-3 -0.178 0-8.706 7.64-13.736 14-13.736 4.491-0 9.621 2.509 12.248 7.049z" fill="#ffb636"/>
        <path d="m4.529 24.938c-1.575-1.967-2.488-4.383-2.528-7.024 0.951-0.571 2.17-0.914 3.499-0.914 3.036-0 5.5 1.792 5.5 4s-2.464 4-5.5 4c-0.331-0-0.656-0.021-0.971-0.062z" fill="#f26f1c"/>
        <path d="m27.471 24.938c-0.315 0.041-0.64 0.062-0.971 0.062-3.036-0-5.5-1.792-5.5-4s2.464-4 5.5-4c1.329-0 2.548 0.343 3.499 0.914-0.04 2.641-0.953 5.057-2.528 7.024z" fill="#f26f1c"/>
        <path d="m29.753 20.13-1.278 1.278c-0.535 0.535-1.229 0.882-1.978 0.989l-1.157 0.165c-0.106 0.016-0.205 0.065-0.281 0.141l-2.358 2.358c-0.015 0.014-0.03 0.029-0.045 0.043l-4.18-2.786c0.071-0.139 0.163-0.266 0.275-0.379l2.772-2.772c0.076-0.076 0.126-0.174 0.141-0.281l0.165-1.157c0.107-0.749 0.454-1.443 0.989-1.978l3.775-3.774c0.473-0.474 1.048-0.783 1.655-0.928 1.093 1.889 1.752 4.129 1.752 6.687 0 0.821-0.084 1.621-0.247 2.394z" fill="#694300"/>
        <path d="m8.543 11.75c0.414 0.717 1.72 0.739 2.915 0.049s1.829-1.832 1.415-2.549-1.72-0.739-2.915-0.049-1.829 1.832-1.415 2.549z"/>
        <path d="m23.457 11.75c-0.414 0.717-1.72 0.739-2.915 0.049s-1.829-1.832-1.415-2.549 1.72-0.739 2.915-0.049 1.829 1.832 1.415 2.549z"/>
        <path d="m19 17.496s2e-3 -4e-3 6e-3 -0.01c1.196-1.793 3.39-2.641 5.481-2.119 0.312 0.078 0.513 0.129 0.513 0.129" fill="none" stroke="#000" stroke-width="2px"/>
        <path d="m13 17.5s-2e-3 -3e-3 -6e-3 -0.01c-1.196-1.793-3.39-2.641-5.481-2.118-0.312 0.078-0.513 0.128-0.513 0.128" fill="none" stroke="#000" stroke-width="2px"/>
        <path d="m19.812 23 2.772-2.772c0.306-0.306 0.504-0.702 0.565-1.129 0.051-0.358 0.114-0.8 0.165-1.158 0.061-0.427 0.259-0.824 0.565-1.129 0.82-0.82 2.54-2.54 3.774-3.775 0.78-0.779 2.044-0.779 2.824 0 0.234 0.235 0.477 0.478 0.712 0.712 0.78 0.78 0.78 2.044-0 2.824-1.235 1.235-2.955 2.955-3.775 3.774-0.305 0.306-0.701 0.504-1.129 0.565-0.358 0.051-0.799 0.114-1.157 0.165-0.428 0.062-0.824 0.26-1.13 0.565-0.804 0.805-2.357 2.358-2.357 2.358l-1.829-1z" fill="#fff"/>
        <path d="m30.147 16.201c0.379-0.379 0.379-0.993-0-1.372-0.24-0.24-0.509-0.51-0.749-0.749-0.379-0.379-0.994-0.379-1.373-0l-1.456 1.456c-0.379 0.379-0.379 0.993 0 1.372l0.749 0.749c0.379 0.379 0.994 0.379 1.373 0l1.456-1.456z" fill="#1ece6c"/>
        <path d="m10.061 24.504s0.205-0.154 0.54-0.405c3.236-2.426 7.684-2.426 10.92 0 0.335 0.251 0.54 0.405 0.54 0.405" fill="none" stroke="#694300" stroke-width="2px"/>
    </g>
</svg>
