<?xml version="1.0" encoding="UTF-8"?>
<!DOCTYPE svg  PUBLIC '-//W3C//DTD SVG 1.1//EN'  'http://www.w3.org/Graphics/SVG/1.1/DTD/svg11.dtd'>
<svg clip-rule="evenodd" fill-rule="evenodd" stroke-linecap="round" stroke-linejoin="round" stroke-miterlimit="1.5" version="1.1" viewBox="0 0 32 32" xml:space="preserve" xmlns="http://www.w3.org/2000/svg" xmlns:serif="http://www.serif.com/">
<metadata>
<rdf:RDF xmlns:cc="http://web.resource.org/cc/" xmlns:dc="http://purl.org/dc/elements/1.1/" xmlns:rdf="http://www.w3.org/1999/02/22-rdf-syntax-ns#">

     <rdf:Description rdf:about="">
       <dc:title>Mutant Standard emoji 2023.12</dc:title>
     </rdf:Description>

    <cc:work rdf:about="">
        <cc:license rdf:resource="http://creativecommons.org/licenses/by-nc-sa/4.0/"/>
        <cc:attributionName>Caius Nocturne</cc:attributionName>
        <cc:attributionURL>http://mutant.tech/</cc:attributionURL>
    </cc:work>

</rdf:RDF>
</metadata>

    <rect id="_1f626-frown_open_mouth" width="32" height="32" fill="none" serif:id="1f626 frown_open_mouth"/>
    <path d="m16 29.5c-8.1-0-14-5.5-14-12.5 0-8.873 7.64-14 14-14s14 5.127 14 14c0 7-5.9 12.5-14 12.5z" fill="none" stroke="#000" stroke-width="4px"/>
    <path d="m16 29.5c-8.1-0-14-5.5-14-12.5 0-8.873 7.64-14 14-14s14 5.127 14 14c0 7-5.9 12.5-14 12.5z" fill="#ffb636"/>
    <path d="m8.543 8.052c0.414 0.717 1.72 0.739 2.915 0.049 1.195-0.689 1.829-1.832 1.415-2.549s-1.72-0.739-2.915-0.049-1.829 1.832-1.415 2.549z"/>
    <path d="m23.457 8.052c-0.414 0.717-1.72 0.739-2.915 0.049-1.195-0.689-1.829-1.832-1.415-2.549s1.72-0.739 2.915-0.049 1.829 1.832 1.415 2.549z"/>
    <rect x="17" y="8" width="11" height="12" fill="none"/>
    <clipPath id="_clip1">
        <rect x="17" y="8" width="11" height="12"/>
    </clipPath>
    <g clip-path="url(#_clip1)">
        <ellipse cx="22.5" cy="14.5" rx="4.5" ry="5.5" fill="#fff"/>
        <circle cx="21.5" cy="14.5" r="2.5"/>
    </g>
    <rect x="4" y="8" width="11" height="12" fill="none"/>
    <ellipse cx="9.5" cy="14.5" rx="4.5" ry="5.5" fill="#fff"/>
    <circle cx="10.5" cy="14.5" r="2.5"/>
    <path d="m11.832 26h-0.356c-0.531 0-1.023-0.275-1.302-0.726s-0.304-1.014-0.067-1.488l0.169-0.337c1.056-2.114 3.217-3.449 5.58-3.449h0.288c2.363 0 4.524 1.335 5.58 3.449l0.169 0.337c0.237 0.474 0.212 1.037-0.067 1.488s-0.771 0.726-1.302 0.726h-0.356c-0.935-1.248-7.401-1.248-8.336 0z"/>
    <path d="m20.168 26c-0.935-1.248-2.409-1.996-3.988-1.996h-0.36c-1.579 0-3.053 0.748-3.988 1.996h8.336z" fill="#c33700"/>
</svg>
