<?xml version="1.0" encoding="UTF-8"?>
<!DOCTYPE svg  PUBLIC '-//W3C//DTD SVG 1.1//EN'  'http://www.w3.org/Graphics/SVG/1.1/DTD/svg11.dtd'>
<svg clip-rule="evenodd" fill-rule="evenodd" stroke-linecap="round" stroke-linejoin="round" stroke-miterlimit="1.5" version="1.1" viewBox="0 0 32 32" xml:space="preserve" xmlns="http://www.w3.org/2000/svg" xmlns:serif="http://www.serif.com/">
<metadata>
<rdf:RDF xmlns:cc="http://web.resource.org/cc/" xmlns:dc="http://purl.org/dc/elements/1.1/" xmlns:rdf="http://www.w3.org/1999/02/22-rdf-syntax-ns#">

     <rdf:Description rdf:about="">
       <dc:title>Mutant Standard emoji 2023.12</dc:title>
     </rdf:Description>

    <cc:work rdf:about="">
        <cc:license rdf:resource="http://creativecommons.org/licenses/by-nc-sa/4.0/"/>
        <cc:attributionName>Caius Nocturne</cc:attributionName>
        <cc:attributionURL>http://mutant.tech/</cc:attributionURL>
    </cc:work>

</rdf:RDF>
</metadata>

    <rect id="_1f62c_grimace" width="32" height="32" fill="none" serif:id="1f62c_grimace"/>
    <clipPath id="_clip1">
        <rect width="32" height="32"/>
    </clipPath>
    <g clip-path="url(#_clip1)">
        <path d="m16 30c-8.1-0-14-5.604-14-12.736 0-9.04 6.542-14.264 14-14.264s14 5.224 14 14.264c0 7.132-5.9 12.736-14 12.736z" fill="none" stroke="#000" stroke-width="4px"/>
        <path d="m16 30c-8.1-0-14-5.604-14-12.736 0-9.04 6.542-14.264 14-14.264s14 5.224 14 14.264c0 7.132-5.9 12.736-14 12.736z" fill="#ffb636"/>
        <rect x="17" y="8" width="11" height="12" fill="none"/>
        <clipPath id="_clip2">
            <rect x="17" y="8" width="11" height="12"/>
        </clipPath>
        <g clip-path="url(#_clip2)">
            <ellipse cx="22.5" cy="14.5" rx="4.5" ry="5.5" fill="#fff"/>
            <circle cx="21.5" cy="14.5" r="2.25"/>
        </g>
        <rect x="4" y="8" width="11" height="12" fill="none"/>
        <clipPath id="_clip3">
            <rect x="4" y="8" width="11" height="12"/>
        </clipPath>
        <g clip-path="url(#_clip3)">
            <ellipse cx="9.5" cy="14.5" rx="4.5" ry="5.5" fill="#fff"/>
            <circle cx="10.5" cy="14.5" r="2.25"/>
        </g>
        <path d="m8.543 7.448c0.414 0.717 1.72 0.739 2.915 0.049s1.829-1.832 1.415-2.549-1.72-0.739-2.915-0.049c-1.195 0.689-1.829 1.832-1.415 2.549z"/>
        <path d="m23.457 7.448c-0.414 0.717-1.72 0.739-2.915 0.049s-1.829-1.832-1.415-2.549 1.72-0.739 2.915-0.049c1.195 0.689 1.829 1.832 1.415 2.549z"/>
        
            <path d="m8.725 24h14.55c0.13-0.13 0.797-0.046 0.884-0.201-0.021-0.279-0.298-0.916-0.472-1.142-0.246-0.318-1.057-0.62-1.457-0.657-1.568-0.118-3.808-0.523-6.346-0.523-2.537 0-5.125 0.37-6.698 0.491-0.398 0.039-0.974 0.433-1.218 0.749-0.175 0.226-0.065 0.806-0.086 1.087-0.979 0.784 0.322 0.299 0.843 0.196z" fill="#fff"/>
            <path d="m23.701 24.671c0.375 0.378 0.13 1.229 0.218 1.645-0.49 0.654-1.293 1.044-2.158 0.974-1.636-0.137-3.886-0.29-5.761-0.29s-4.125 0.153-5.761 0.291c-0.865 0.069-1.668-0.32-2.158-0.973 0.087-0.417-0.099-1.269 0.276-1.647 4.824-0.619 10.469-0.566 15.344 0z" fill="#fff"/>
            <path d="m23.275 24c-0.291 0.294-0.701 0.5-1.275 0.5 0.574-0 0.984 0.206 1.275 0.5h-14.55c0.291-0.294 0.701-0.5 1.275-0.5-0.574-0-0.984-0.206-1.275-0.5h14.55z" fill="#9c9c9c"/>
            <path d="m8.404 23.572c-0.334-0.588-0.392-1.278-0.402-1.5 0.414-0.474 0.996-0.773 1.626-0.83 1.587-0.122 3.799-0.242 6.372-0.242s4.785 0.12 6.372 0.239c0.63 0.057 1.212 0.355 1.626 0.829-9e-3 0.215-0.065 0.908-0.399 1.499-0.022-0.279-0.124-0.549-0.299-0.775-0.245-0.318-0.612-0.52-1.012-0.557-1.568-0.118-3.751-0.236-6.288-0.236s-4.719 0.118-6.292 0.24c-0.398 0.038-0.762 0.239-1.006 0.555-0.175 0.227-0.277 0.497-0.298 0.778z" fill="#9c9c9c"/>
            <path d="m22 24.5c1.804-0 1.981-2.033 1.998-2.432 0.032 0.036 0.063 0.074 0.094 0.113 0.417 0.54 0.59 1.229 0.478 1.902-0.065 0.389-0.132 0.788-0.197 1.169-0.066 0.399-0.226 0.76-0.454 1.064-0.156-0.74-0.607-1.816-1.919-1.816zm-13.998-2.428c0.019 0.41 0.201 2.428 1.998 2.428-1.313-0-1.764 1.078-1.919 1.818-0.229-0.305-0.389-0.667-0.456-1.066-0.063-0.381-0.13-0.78-0.192-1.169-0.112-0.672 0.061-1.361 0.478-1.9 0.029-0.038 0.06-0.075 0.091-0.111z" fill="#563600"/>
        
    </g>
</svg>
