<?xml version="1.0" encoding="UTF-8"?>
<!DOCTYPE svg  PUBLIC '-//W3C//DTD SVG 1.1//EN'  'http://www.w3.org/Graphics/SVG/1.1/DTD/svg11.dtd'>
<svg clip-rule="evenodd" fill-rule="evenodd" stroke-linecap="round" stroke-linejoin="round" stroke-miterlimit="1.5" version="1.1" viewBox="0 0 32 32" xml:space="preserve" xmlns="http://www.w3.org/2000/svg" xmlns:serif="http://www.serif.com/">
<metadata>
<rdf:RDF xmlns:cc="http://web.resource.org/cc/" xmlns:dc="http://purl.org/dc/elements/1.1/" xmlns:rdf="http://www.w3.org/1999/02/22-rdf-syntax-ns#">

     <rdf:Description rdf:about="">
       <dc:title>Mutant Standard emoji 2023.12</dc:title>
     </rdf:Description>

    <cc:work rdf:about="">
        <cc:license rdf:resource="http://creativecommons.org/licenses/by-nc-sa/4.0/"/>
        <cc:attributionName>Caius Nocturne</cc:attributionName>
        <cc:attributionURL>http://mutant.tech/</cc:attributionURL>
    </cc:work>

</rdf:RDF>
</metadata>

    <rect id="_1f601_grin" width="32" height="32" fill="none" serif:id="1f601_grin"/>
    <path d="m16 29.5c-8.1 0-14-5.5-14-12.5 0-8.873 7.64-14 14-14s14 5.127 14 14c0 7-5.9 12.5-14 12.5z" fill="none" stroke="#000" stroke-width="4px"/>
    <path d="m16 29.5c-8.1 0-14-5.5-14-12.5 0-8.873 7.64-14 14-14s14 5.127 14 14c0 7-5.9 12.5-14 12.5z" fill="#ffb636"/>
    <path d="m19 16 0.137-0.274c0.625-1.25 1.843-2.094 3.232-2.242 1.389-0.147 2.758 0.424 3.63 1.515l1e-3 1e-3" fill="none" stroke="#000" stroke-width="2px"/>
    <path d="m13 16-0.137-0.274c-0.625-1.25-1.843-2.094-3.232-2.242-1.389-0.147-2.758 0.424-3.63 1.515l-1e-3 1e-3" fill="none" stroke="#000" stroke-width="2px"/>
    <path d="m8.293 9.845c0.215 0.799 1.471 1.159 2.804 0.801 1.332-0.357 2.24-1.296 2.026-2.095-0.214-0.8-1.47-1.159-2.803-0.802s-2.241 1.296-2.027 2.096z"/>
    <path d="m23.707 9.845c-0.215 0.799-1.471 1.159-2.804 0.801-1.332-0.357-2.24-1.296-2.026-2.095 0.214-0.8 1.47-1.159 2.803-0.802s2.241 1.296 2.027 2.096z"/>
    <path d="m23.539 22.302c0.08 0.153-0.145 1.027-0.105 1.21-1.487 1.355-3.813 2.488-7.434 2.488-3.619-0-5.945-1.132-7.435-2.484 0.041-0.185-0.367-0.811-0.287-0.965l15.261-0.249zm-15.126 0.08c-0.326-0.409-1.057-1.718-1.216-2.382 0.068-0.099 5.007-0.566 9.154-0.56 3.913 6e-3 8.312 0.074 8.161 0.7-0.159 0.659-0.551 1.935-0.875 2.342l-15.224-0.1z" fill="#fff"/>
    <path d="m23.421 22c-0.246 0.31-0.318 0.706-0.164 1h-14.514c0.154-0.294 0.082-0.69-0.164-1h14.842zm-15.554-1.691c-0.445-0.115-0.551-0.469-0.206-1.115 0.241-0.126 0.511-0.194 0.791-0.194 3.845-0 11.251-0 15.096 0.011 0.28-0 0.55 0.068 0.789 0.194 0.178 0.621 0.095 0.986-0.207 1.118-0.129-0.194-0.347-0.312-0.582-0.312h-3e-3c-3.844-0.011-11.249-0.011-15.093-0.011-0.235-0-0.454 0.116-0.585 0.309z" fill="#9c9c9c"/>
    <path d="m7.661 19.194c-0.279 0.145-0.517 0.368-0.682 0.648-0.307 0.522-0.315 1.168-0.02 1.697 0.379 0.644 0.899 1.335 1.606 1.977 0.118-0.538 0.379-1.016 0.935-1.016-1.136 0-1.626-1.773-1.839-3.306z" fill="#563600"/>
    <path d="m22.5 22.5c1.133 0 1.624-1.765 1.837-3.295 0.276 0.145 0.511 0.365 0.674 0.643 0.305 0.518 0.313 1.16 0.021 1.686-0.377 0.644-0.893 1.336-1.598 1.978-0.118-0.536-0.379-1.012-0.934-1.012z" fill="#563600"/>
</svg>
