<?xml version="1.0" encoding="UTF-8"?>
<!DOCTYPE svg  PUBLIC '-//W3C//DTD SVG 1.1//EN'  'http://www.w3.org/Graphics/SVG/1.1/DTD/svg11.dtd'>
<svg clip-rule="evenodd" fill-rule="evenodd" stroke-linecap="round" stroke-linejoin="round" stroke-miterlimit="1.5" version="1.1" viewBox="0 0 32 32" xml:space="preserve" xmlns="http://www.w3.org/2000/svg" xmlns:serif="http://www.serif.com/">
<metadata>
<rdf:RDF xmlns:cc="http://web.resource.org/cc/" xmlns:dc="http://purl.org/dc/elements/1.1/" xmlns:rdf="http://www.w3.org/1999/02/22-rdf-syntax-ns#">

     <rdf:Description rdf:about="">
       <dc:title>Mutant Standard emoji 2023.12</dc:title>
     </rdf:Description>

    <cc:work rdf:about="">
        <cc:license rdf:resource="http://creativecommons.org/licenses/by-nc-sa/4.0/"/>
        <cc:attributionName>Caius Nocturne</cc:attributionName>
        <cc:attributionURL>http://mutant.tech/</cc:attributionURL>
    </cc:work>

</rdf:RDF>
</metadata>

    <rect id="_1f92d_hand_over_mouth" width="32" height="32" fill="none" serif:id="1f92d_hand_over_mouth"/>
    <path d="m7.589 25.567c-3.458-1.882-5.589-5.047-5.589-9.095 0-8.538 6.546-14.472 14-14.472s14 5.934 14 14.472c0 6.156-4.928 10.271-11.96 10.934-0.76 1.169-1.925 2.023-3.278 2.393-1.467 0.4-3.033 0.198-4.35-0.563l-0.134-0.076c-1.379-0.797-2.329-2.109-2.689-3.593z" fill="none" stroke="#000" stroke-width="4px"/>
    <path d="m16 27.5c-8.1 0-14-4.292-14-11.028 0-8.538 6.546-14.472 14-14.472s14 5.934 14 14.472c0 6.736-5.9 11.028-14 11.028z" fill="none" stroke="#000" stroke-width="4px"/>
    <path d="m16 27.5c-8.1 0-14-4.292-14-11.028 0-8.538 6.546-14.472 14-14.472s14 5.934 14 14.472c0 6.736-5.9 11.028-14 11.028z" fill="#ffb636"/>
    <path d="m2.008 15.968c0.252-8.267 6.685-13.968 13.992-13.968s13.74 5.701 13.992 13.968c-0.95-0.605-3.011 7.52-2.777 7.496-1.637 1.687-3.919 2.899-6.635 3.532 0 0-15.142-3.315-15.15-2.92-0.225-0.197-0.44-0.4-0.645-0.612 0.234 0.024-1.827-8.101-2.777-7.496z" fill="none" stroke="#000" stroke-width="4px"/>
    <path d="m2.008 15.968c0.252-8.267 6.685-13.968 13.992-13.968s13.74 5.701 13.992 13.968c-0.95-0.605-3.011 7.52-2.777 7.496-1.637 1.687-3.919 2.899-6.635 3.532 0 0-15.142-3.315-15.15-2.92-0.225-0.197-0.44-0.4-0.645-0.612 0.234 0.024-1.827-8.101-2.777-7.496z" fill="#ffb636"/>
    <path d="m4.785 23.464c-1.768-1.821-2.785-4.196-2.785-6.992 0-0.169 3e-3 -0.337 8e-3 -0.504 0.95-0.605 2.166-0.968 3.492-0.968 3.036-0 5.5 1.904 5.5 4.25s-2.464 4.25-5.5 4.25c-0.242 0-0.481-0.012-0.715-0.036z" fill="#f26f1c"/>
    <path d="m27.215 23.464c-0.234 0.024-0.473 0.036-0.715 0.036-3.036 0-5.5-1.904-5.5-4.25s2.464-4.25 5.5-4.25c1.326-0 2.542 0.363 3.492 0.968 5e-3 0.167 8e-3 0.335 8e-3 0.504 0 2.796-1.017 5.171-2.785 6.992z" fill="#f26f1c"/>
    <path d="m5.43 24.076c8e-3 -0.395 0.046-0.793 0.116-1.191l0.424-2.399c0.187-1.058 0.878-1.959 1.853-2.413 0.897-0.418 1.93-0.409 2.815 0.015 0.872-1.126 2.093-1.944 3.484-2.316 1.678-0.45 3.467-0.215 4.972 0.654l0.029 0.017c3.097 1.788 4.176 5.738 2.418 8.852l-0.961 1.701c-1.418 0.331-2.955 0.504-4.58 0.504-4.348 0-8.062-1.237-10.57-3.424z" fill="#694300"/>
    <path d="m13 14s-0.059-0.137-0.16-0.372c-0.564-1.318-1.805-2.22-3.233-2.351-1.427-0.131-2.812 0.53-3.607 1.723" fill="none" stroke="#000" stroke-width="2px"/>
    <path d="m19 14s0.059-0.137 0.16-0.372c0.564-1.318 1.805-2.22 3.233-2.351 1.427-0.131 2.812 0.53 3.607 1.723" fill="none" stroke="#000" stroke-width="2px"/>
    <path d="m11.875 19.824c0.604-1.045 1.598-1.808 2.764-2.12 1.167-0.313 2.409-0.149 3.455 0.454 9e-3 6e-3 0.019 0.012 0.029 0.017 2.147 1.24 2.895 3.978 1.676 6.137-0.505 0.894-1.048 1.857-1.575 2.791-0.748 1.324-1.994 2.295-3.462 2.696-1.467 0.4-3.033 0.198-4.35-0.563-0.045-0.025-0.089-0.051-0.134-0.076-2.075-1.199-3.179-3.567-2.762-5.927 0.148-0.839 0.298-1.686 0.424-2.399 0.073-0.416 0.345-0.77 0.728-0.948 0.383-0.179 0.828-0.159 1.194 0.052 0.742 0.428 1.461 0.843 1.461 0.843s0.227-0.393 0.552-0.957z" fill="#ffb636"/>
</svg>
