<?xml version="1.0" encoding="UTF-8"?>
<!DOCTYPE svg  PUBLIC '-//W3C//DTD SVG 1.1//EN'  'http://www.w3.org/Graphics/SVG/1.1/DTD/svg11.dtd'>
<svg clip-rule="evenodd" fill-rule="evenodd" stroke-linecap="round" stroke-linejoin="round" stroke-miterlimit="1.5" version="1.1" viewBox="0 0 32 32" xml:space="preserve" xmlns="http://www.w3.org/2000/svg" xmlns:serif="http://www.serif.com/">
<metadata>
<rdf:RDF xmlns:cc="http://web.resource.org/cc/" xmlns:dc="http://purl.org/dc/elements/1.1/" xmlns:rdf="http://www.w3.org/1999/02/22-rdf-syntax-ns#">

     <rdf:Description rdf:about="">
       <dc:title>Mutant Standard emoji 2023.12</dc:title>
     </rdf:Description>

    <cc:work rdf:about="">
        <cc:license rdf:resource="http://creativecommons.org/licenses/by-nc-sa/4.0/"/>
        <cc:attributionName>Caius Nocturne</cc:attributionName>
        <cc:attributionURL>http://mutant.tech/</cc:attributionURL>
    </cc:work>

</rdf:RDF>
</metadata>

    <rect id="_1f619_happy_kiss" width="32" height="32" fill="none" serif:id="1f619_happy_kiss"/>
    <path d="m16 30c-8.1 0-14-5.5-14-12.5 0-11.095 9.192-14 14-14s14 2.905 14 14c-0 7-5.9 12.5-14 12.5z" fill="none" stroke="#000" stroke-width="4px"/>
    <path d="m16 30c-8.1 0-14-5.5-14-12.5 0-11.095 9.192-14 14-14s14 2.905 14 14c-0 7-5.9 12.5-14 12.5z" fill="#ffb636"/>
    <path d="m7.543 10.75c0.414 0.717 1.72 0.739 2.915 0.049s1.829-1.832 1.415-2.549-1.72-0.739-2.915-0.049-1.829 1.832-1.415 2.549z"/>
    <path d="m24.457 10.75c-0.414 0.717-1.72 0.739-2.915 0.049s-1.829-1.832-1.415-2.549 1.72-0.739 2.915-0.049 1.829 1.832 1.415 2.549z"/>
    <path d="m19 17s0.059-0.137 0.16-0.372c0.564-1.318 1.805-2.22 3.233-2.351 1.427-0.131 2.812 0.53 3.607 1.723" fill="none" stroke="#000" stroke-width="2px"/>
    <path d="m13 17s-0.059-0.137-0.16-0.372c-0.564-1.318-1.805-2.22-3.233-2.351-1.427-0.131-2.812 0.53-3.607 1.723" fill="none" stroke="#000" stroke-width="2px"/>
    <path d="m16 27s0.596-0.149 1.137-0.284c0.507-0.127 0.863-0.583 0.863-1.105v-0.222c-0-0.522-0.356-0.978-0.863-1.105-0.541-0.135-1.137-0.284-1.137-0.284s0.596-0.149 1.137-0.284c0.507-0.127 0.863-0.583 0.863-1.105v-0.222c-0-0.522-0.356-0.978-0.863-1.105-0.541-0.135-1.137-0.284-1.137-0.284" fill="none" stroke="#694300" stroke-width="2px"/>
</svg>
