<?xml version="1.0" encoding="UTF-8"?>
<!DOCTYPE svg  PUBLIC '-//W3C//DTD SVG 1.1//EN'  'http://www.w3.org/Graphics/SVG/1.1/DTD/svg11.dtd'>
<svg clip-rule="evenodd" fill-rule="evenodd" stroke-linecap="round" stroke-linejoin="round" stroke-miterlimit="1.5" version="1.1" viewBox="0 0 32 32" xml:space="preserve" xmlns="http://www.w3.org/2000/svg" xmlns:serif="http://www.serif.com/">
<metadata>
<rdf:RDF xmlns:cc="http://web.resource.org/cc/" xmlns:dc="http://purl.org/dc/elements/1.1/" xmlns:rdf="http://www.w3.org/1999/02/22-rdf-syntax-ns#">

     <rdf:Description rdf:about="">
       <dc:title>Mutant Standard emoji 2023.12</dc:title>
     </rdf:Description>

    <cc:work rdf:about="">
        <cc:license rdf:resource="http://creativecommons.org/licenses/by-nc-sa/4.0/"/>
        <cc:attributionName>Caius Nocturne</cc:attributionName>
        <cc:attributionURL>http://mutant.tech/</cc:attributionURL>
    </cc:work>

</rdf:RDF>
</metadata>

    <rect id="_1f642_etc_head_shaking_horizontally" width="32" height="32" fill="none" serif:id="1f642_etc_head_shaking_horizontally"/>
    <clipPath id="_clip1">
        <rect width="32" height="32"/>
    </clipPath>
    <g clip-path="url(#_clip1)">
        <path d="m29 13.5c1.316 0.481 1.158 1.823-0.147 2.604-1.441 0.861-3.421 1.503-4.853 1.896" fill="none" stroke="#000" stroke-width="6px"/>
        <path d="m30 19.5c-1.842 1.395-4.482 2.34-7 2.5" fill="none" stroke="#000" stroke-width="6px"/>
        <path d="m15 29.5c-7.521 0-13-5.292-13-12.028 0-8.538 7.095-13.472 13-13.472s13 4.934 13 13.472c0 6.736-5.479 12.028-13 12.028z" fill="none" stroke="#000" stroke-width="4px"/>
        <path d="m15 29.5c-7.521 0-13-5.292-13-12.028 0-8.538 7.095-13.472 13-13.472s13 4.934 13 13.472c0 6.736-5.479 12.028-13 12.028z" fill="#ffb636"/>
        <path d="m8 17s-0.179 0.157-0.456 0.399c-0.785 0.687-1.813 1.032-2.855 0.957-1.041-0.075-2.009-0.563-2.688-1.355l-1e-3 -1e-3" fill="none" stroke="#000" stroke-width="2px"/>
        <path d="m14 17s0.179 0.157 0.456 0.399c0.785 0.687 1.813 1.032 2.855 0.957 1.041-0.075 2.009-0.563 2.688-1.355l1e-3 -1e-3" fill="none" stroke="#000" stroke-width="2px"/>
        <path d="m6.5 23s1.488 0.504 4.5 0.504 4.5-0.504 4.5-0.504" fill="none" stroke="#694300" stroke-width="2px"/>
        <path d="m29 13.5c0.954 0.462 0.925 1.924-0.216 2.698-1.336 0.906-3.271 1.625-4.784 1.802" fill="none" stroke="#fff" stroke-width="2px"/>
        <path d="m30 19.5c-1.842 1.395-4.482 2.34-7 2.5" fill="none" stroke="#fff" stroke-width="2px"/>
    </g>
</svg>
