<?xml version="1.0" encoding="UTF-8"?>
<!DOCTYPE svg  PUBLIC '-//W3C//DTD SVG 1.1//EN'  'http://www.w3.org/Graphics/SVG/1.1/DTD/svg11.dtd'>
<svg clip-rule="evenodd" fill-rule="evenodd" stroke-linecap="round" stroke-linejoin="round" stroke-miterlimit="1.5" version="1.1" viewBox="0 0 32 32" xml:space="preserve" xmlns="http://www.w3.org/2000/svg">
<metadata>
<rdf:RDF xmlns:cc="http://web.resource.org/cc/" xmlns:dc="http://purl.org/dc/elements/1.1/" xmlns:rdf="http://www.w3.org/1999/02/22-rdf-syntax-ns#">

     <rdf:Description rdf:about="">
       <dc:title>Mutant Standard emoji 2023.12</dc:title>
     </rdf:Description>

    <cc:work rdf:about="">
        <cc:license rdf:resource="http://creativecommons.org/licenses/by-nc-sa/4.0/"/>
        <cc:attributionName>Caius Nocturne</cc:attributionName>
        <cc:attributionURL>http://mutant.tech/</cc:attributionURL>
    </cc:work>

</rdf:RDF>
</metadata>

    <rect id="mtnt_headpats" width="32" height="32" fill="none"/>
    <clipPath id="_clip1">
        <rect width="32" height="32"/>
    </clipPath>
    <g clip-path="url(#_clip1)">
        <path d="m20.906 7.77c5.425 1.783 9.094 6.442 9.094 11.688 0 6.709-5.277 10.542-14 10.542s-14-3.833-14-10.542c-0-4.048 1.673-7.295 4.431-9.458h-1.693c-0.96-0-1.738-0.778-1.738-1.738v-2.086c-0-0.71 0.433-1.349 1.092-1.613l2.638-1.055c0.839-0.336 1.734-0.508 2.637-0.508h5.214c2.21 0 4.349 0.773 6.048 2.185l0.426 0.354c0.507 0.421 0.636 1.146 0.307 1.717l-0.039 0.067c-0.105 0.182-0.249 0.334-0.417 0.447zm1.469-6.102c0.276-0.478 0.888-0.642 1.366-0.366s0.642 0.888 0.366 1.366l-1 1.732c-0.276 0.478-0.888 0.642-1.366 0.366s-0.642-0.888-0.366-1.366l1-1.732zm4.332 5.039c-0.39 0.39-1.024 0.39-1.414 0s-0.39-1.024-0-1.414l2-2c0.39-0.39 1.024-0.39 1.414-0s0.39 1.024 0 1.414l-2 2zm2.061 3.659c-0.478 0.276-1.09 0.112-1.366-0.366s-0.112-1.09 0.366-1.366l1.732-1c0.478-0.276 1.09-0.112 1.366 0.366s0.112 1.09-0.366 1.366l-1.732 1z" fill="none" stroke="#000" stroke-width="4px"/>
        <path d="m22.887 8.586c4.318 2.162 7.113 6.294 7.113 10.872 0 6.709-5.277 10.542-14 10.542s-14-3.833-14-10.542c-0-2.953 0.89-5.479 2.442-7.47 0.053 5e-3 4.196-2.683 9.092-3.507 4.101-0.69 9.068 0.507 9.353 0.105z" fill="none" stroke="#000" stroke-width="4px"/>
        <path d="m22.887 8.586c4.318 2.162 7.113 6.294 7.113 10.872 0 6.709-5.277 10.542-14 10.542s-14-3.833-14-10.542c-0-2.953 0.89-5.479 2.442-7.47 0.053 5e-3 4.196-2.683 9.092-3.507 4.101-0.69 9.068 0.507 9.353 0.105z" fill="#ffb636"/>
        <path d="m4.442 11.988c2.477-3.177 6.639-4.988 11.558-4.988 2.54 0 4.878 0.58 6.887 1.586-0.625 0.881-1.642 1.414-2.736 1.414h-3.488c-0.562 1.182-1.767 2-3.163 2h-8.762c-0.1-0-0.199-4e-3 -0.296-0.012z" fill="#694300"/>
        <path d="m10 24.5s0.158 0.395 0.348 0.871c0.394 0.984 1.347 1.629 2.407 1.629h0.633c0.403-0 0.799-0.094 1.159-0.274 0.592-0.296 1.453-0.726 1.453-0.726s0.861 0.43 1.453 0.726c0.36 0.18 0.756 0.274 1.159 0.274h0.633c1.06-0 2.013-0.645 2.407-1.629 0.19-0.476 0.348-0.871 0.348-0.871" fill="none" stroke="#694300" stroke-width="2px"/>
        <path d="m7.293 14.734c0.215 0.8 1.471 1.159 2.804 0.802 1.332-0.357 2.24-1.296 2.026-2.096s-1.47-1.159-2.803-0.802-2.241 1.296-2.027 2.096z"/>
        <path d="m24.707 14.734c-0.215 0.8-1.471 1.159-2.804 0.802-1.332-0.357-2.24-1.296-2.026-2.096s1.47-1.159 2.803-0.802 2.241 1.296 2.027 2.096z"/>
        <path d="m19 21s0.17-0.283 0.429-0.715c0.576-0.959 1.591-1.569 2.708-1.627s2.19 0.445 2.861 1.34l2e-3 2e-3" fill="none" stroke="#000" stroke-width="2px"/>
        <path d="m14.895 9.052c-0.22 0.555-0.761 0.948-1.395 0.948h-8.762c-0.96-0-1.738-0.778-1.738-1.738v-2.086c-0-0.71 0.433-1.349 1.092-1.613l2.638-1.055c0.839-0.336 1.734-0.508 2.637-0.508h5.214c2.21 0 4.349 0.773 6.048 2.185l0.426 0.354c0.507 0.421 0.636 1.146 0.307 1.717l-0.039 0.067c-0.242 0.419-0.688 0.677-1.172 0.677h-3.549c-1.019-1.71-2.296 0.097-1.707 1.052z" fill="#ffb636"/>
        <path d="m14.895 9.052c-0.589-0.955-1.492-1.288-2.638-1.14-0.547 0.071-1.049-0.316-1.12-0.864-0.071-0.547 0.316-1.049 0.864-1.12 2.013-0.26 3.582 0.362 4.601 2.072h-1.602v0.5c-0 0.195-0.037 0.381-0.105 0.552z" fill="#694300"/>
        <path d="m13 21s-0.17-0.283-0.429-0.715c-0.576-0.959-1.591-1.569-2.708-1.627s-2.19 0.445-2.861 1.34l-2e-3 2e-3" fill="none" stroke="#000" stroke-width="2px"/>
        <path d="m22.375 1.668c0.276-0.478 0.888-0.642 1.366-0.366s0.642 0.888 0.366 1.366l-1 1.732c-0.276 0.478-0.888 0.642-1.366 0.366s-0.642-0.888-0.366-1.366l1-1.732zm4.332 5.039c-0.39 0.39-1.024 0.39-1.414 0s-0.39-1.024-0-1.414l2-2c0.39-0.39 1.024-0.39 1.414-0s0.39 1.024 0 1.414l-2 2zm2.061 3.659c-0.478 0.276-1.09 0.112-1.366-0.366s-0.112-1.09 0.366-1.366l1.732-1c0.478-0.276 1.09-0.112 1.366 0.366s0.112 1.09-0.366 1.366l-1.732 1z" fill="#fff"/>
    </g>
</svg>
