<?xml version="1.0" encoding="UTF-8"?>
<!DOCTYPE svg  PUBLIC '-//W3C//DTD SVG 1.1//EN'  'http://www.w3.org/Graphics/SVG/1.1/DTD/svg11.dtd'>
<svg clip-rule="evenodd" fill-rule="evenodd" stroke-linecap="round" stroke-linejoin="round" stroke-miterlimit="1.5" version="1.1" viewBox="0 0 32 32" xml:space="preserve" xmlns="http://www.w3.org/2000/svg" xmlns:serif="http://www.serif.com/">
<metadata>
<rdf:RDF xmlns:cc="http://web.resource.org/cc/" xmlns:dc="http://purl.org/dc/elements/1.1/" xmlns:rdf="http://www.w3.org/1999/02/22-rdf-syntax-ns#">

     <rdf:Description rdf:about="">
       <dc:title>Mutant Standard emoji 2023.12</dc:title>
     </rdf:Description>

    <cc:work rdf:about="">
        <cc:license rdf:resource="http://creativecommons.org/licenses/by-nc-sa/4.0/"/>
        <cc:attributionName>Caius Nocturne</cc:attributionName>
        <cc:attributionURL>http://mutant.tech/</cc:attributionURL>
    </cc:work>

</rdf:RDF>
</metadata>

    <rect id="_1f642_etc_head_shaking_vertically" width="32" height="32" fill="none" serif:id="1f642_etc_head_shaking_vertically"/>
    <clipPath id="_clip1">
        <rect width="32" height="32"/>
    </clipPath>
    <g clip-path="url(#_clip1)">
        <path d="m7.102 2.987c-0.543 0.905-0.751 2.042-0.901 3.068-0.332 2.28-0.243 4.646 0.082 6.922" fill="none" stroke="#000" stroke-width="6px"/>
        <path d="m10.864 2.799c-0.355 0.118-0.47 1.375-0.52 1.638-0.325 1.696-0.488 3.622-0.243 5.34" fill="none" stroke="#000" stroke-width="6px"/>
        <path d="m16 29.5c-8.1 0-14-5.292-14-12.028 0-8.538 7.64-13.472 14-13.472s14 4.934 14 13.472c0 6.736-5.9 12.028-14 12.028z" fill="none" stroke="#000" stroke-width="4px"/>
        <path d="m16 29.5c-8.1 0-14-5.292-14-12.028 0-8.538 7.64-13.472 14-13.472s14 4.934 14 13.472c0 6.736-5.9 12.028-14 12.028z" fill="#ffb636"/>
        <path d="m13 19.5s-0.242 0.182-0.607 0.455c-1.947 1.46-4.671 1.267-6.392-0.454l-1e-3 -1e-3" fill="none" stroke="#000" stroke-width="2px"/>
        <path d="m19 19.5s0.242 0.182 0.607 0.455c1.947 1.46 4.671 1.267 6.392-0.454l1e-3 -1e-3" fill="none" stroke="#000" stroke-width="2px"/>
        <path d="m11.061 25.504s1.653 0.5 5 0.5 5-0.5 5-0.5" fill="none" stroke="#694300" stroke-width="2px"/>
        <path d="m7.102 2.987c-0.543 0.905-0.751 2.042-0.901 3.068-0.332 2.28-0.243 4.646 0.082 6.922" fill="none" stroke="#fff" stroke-width="2px"/>
        <path d="m10.864 2.799c-0.355 0.118-0.47 1.375-0.52 1.638-0.325 1.696-0.488 3.622-0.243 5.34" fill="none" stroke="#fff" stroke-width="2px"/>
    </g>
</svg>
