<?xml version="1.0" encoding="UTF-8"?>
<!DOCTYPE svg  PUBLIC '-//W3C//DTD SVG 1.1//EN'  'http://www.w3.org/Graphics/SVG/1.1/DTD/svg11.dtd'>
<svg clip-rule="evenodd" fill-rule="evenodd" stroke-linejoin="round" stroke-miterlimit="1.5" version="1.1" viewBox="0 0 32 32" xml:space="preserve" xmlns="http://www.w3.org/2000/svg" xmlns:serif="http://www.serif.com/">
<metadata>
<rdf:RDF xmlns:cc="http://web.resource.org/cc/" xmlns:dc="http://purl.org/dc/elements/1.1/" xmlns:rdf="http://www.w3.org/1999/02/22-rdf-syntax-ns#">

     <rdf:Description rdf:about="">
       <dc:title>Mutant Standard emoji 2023.12</dc:title>
     </rdf:Description>

    <cc:work rdf:about="">
        <cc:license rdf:resource="http://creativecommons.org/licenses/by-nc-sa/4.0/"/>
        <cc:attributionName>Caius Nocturne</cc:attributionName>
        <cc:attributionURL>http://mutant.tech/</cc:attributionURL>
    </cc:work>

</rdf:RDF>
</metadata>

    <rect id="_1f60d_heart_eyes" width="32" height="32" fill="none" serif:id="1f60d_heart_eyes"/>
    <clipPath id="_clip1">
        <rect width="32" height="32"/>
    </clipPath>
    <g clip-path="url(#_clip1)">
        <path d="m21.251 17.998c0.234 0.194 0.542 0.274 0.841 0.218 1.231-0.26 4.601-1.141 6.844-3.333 2.764-2.7 2.342-6.59-0.503-7.514-1.649-0.536-3.088 0.086-3.927 1.113-0.082 0.12-0.23 0.175-0.37 0.138-0.14-0.036-0.243-0.156-0.256-0.301-0.233-1.305-1.187-2.549-2.889-2.884-2.935-0.576-5.197 2.616-4.097 6.32 0.893 3.007 3.408 5.416 4.357 6.243z" fill="none" stroke="#000" stroke-width="4px"/>
        <path d="m21.251 17.998c0.234 0.194 0.542 0.274 0.841 0.218 1.231-0.26 4.601-1.141 6.844-3.333 2.764-2.7 2.342-6.59-0.503-7.514-1.649-0.536-3.088 0.086-3.927 1.113-0.082 0.12-0.23 0.175-0.37 0.138-0.14-0.036-0.243-0.156-0.256-0.301-0.233-1.305-1.187-2.549-2.889-2.884-2.935-0.576-5.197 2.616-4.097 6.32 0.893 3.007 3.408 5.416 4.357 6.243z" fill="#ff3c80"/>
        <path d="m10.749 17.998c-0.234 0.194-0.542 0.274-0.841 0.218-1.231-0.26-4.601-1.141-6.844-3.333-2.764-2.7-2.342-6.59 0.503-7.514 1.649-0.536 3.088 0.086 3.927 1.113 0.082 0.12 0.23 0.175 0.37 0.138 0.14-0.036 0.243-0.156 0.256-0.301 0.233-1.305 1.187-2.549 2.889-2.884 2.935-0.576 5.197 2.616 4.097 6.32-0.893 3.007-3.408 5.416-4.357 6.243z" fill="none" stroke="#000" stroke-width="4px"/>
        <path d="m10.749 17.998c-0.234 0.194-0.542 0.274-0.841 0.218-1.231-0.26-4.601-1.141-6.844-3.333-2.764-2.7-2.342-6.59 0.503-7.514 1.649-0.536 3.088 0.086 3.927 1.113 0.082 0.12 0.23 0.175 0.37 0.138 0.14-0.036 0.243-0.156 0.256-0.301 0.233-1.305 1.187-2.549 2.889-2.884 2.935-0.576 5.197 2.616 4.097 6.32-0.893 3.007-3.408 5.416-4.357 6.243z" fill="#ff3c80"/>
        <path d="m16 30c-8.1-0-13-4.92-13-9.6-0-7.4 6.939-14 13-14s13 6.6 13 14c-0 4.68-4.9 9.6-13 9.6z" fill="none" stroke="#000" stroke-linecap="round" stroke-width="4px"/>
        <path d="m16 30c-8.1-0-13-4.92-13-9.6-0-7.4 6.939-14 13-14s13 6.6 13 14c-0 4.68-4.9 9.6-13 9.6z" fill="#ffb636"/>
        <path d="m20.205 25.878c1.607-0.98 2.842-2.542 3.386-4.446l0.045-0.16c0.087-0.301 0.026-0.625-0.162-0.875-0.189-0.25-0.484-0.397-0.797-0.397h-13.354c-0.313 0-0.608 0.147-0.797 0.397-0.188 0.25-0.249 0.574-0.162 0.875l0.045 0.16c0.544 1.904 1.779 3.466 3.386 4.446 1.01-1.181 7.4-1.181 8.41 0z"/>
        <path d="m20.205 25.878c-1.01-1.181-2.493-1.874-4.067-1.874h-0.276c-1.574 0-3.057 0.693-4.067 1.874 1.175 0.717 2.548 1.122 3.996 1.122h0.418c1.448 0 2.821-0.405 3.996-1.122z" fill="#c33700"/>
        <path d="m21.251 17.998c0.234 0.194 0.542 0.274 0.841 0.218 1.231-0.26 4.601-1.141 6.844-3.333 2.764-2.7 2.342-6.59-0.503-7.514-1.649-0.536-3.088 0.086-3.927 1.113-0.082 0.12-0.23 0.175-0.37 0.138-0.14-0.036-0.243-0.156-0.256-0.301-0.233-1.305-1.187-2.549-2.889-2.884-2.935-0.576-5.197 2.616-4.097 6.32 0.893 3.007 3.408 5.416 4.357 6.243z" fill="#ff3c80"/>
        <path d="m10.749 17.998c-0.234 0.194-0.542 0.274-0.841 0.218-1.231-0.26-4.601-1.141-6.844-3.333-2.764-2.7-2.342-6.59 0.503-7.514 1.649-0.536 3.088 0.086 3.927 1.113 0.082 0.12 0.23 0.175 0.37 0.138 0.14-0.036 0.243-0.156 0.256-0.301 0.233-1.305 1.187-2.549 2.889-2.884 2.935-0.576 5.197 2.616 4.097 6.32-0.893 3.007-3.408 5.416-4.357 6.243z" fill="#ff3c80"/>
    </g>
</svg>
