<?xml version="1.0" encoding="UTF-8"?>
<!DOCTYPE svg  PUBLIC '-//W3C//DTD SVG 1.1//EN'  'http://www.w3.org/Graphics/SVG/1.1/DTD/svg11.dtd'>
<svg clip-rule="evenodd" fill-rule="evenodd" stroke-linecap="round" stroke-linejoin="round" stroke-miterlimit="1.5" version="1.1" viewBox="0 0 32 32" xml:space="preserve" xmlns="http://www.w3.org/2000/svg" xmlns:serif="http://www.serif.com/">
<metadata>
<rdf:RDF xmlns:cc="http://web.resource.org/cc/" xmlns:dc="http://purl.org/dc/elements/1.1/" xmlns:rdf="http://www.w3.org/1999/02/22-rdf-syntax-ns#">

     <rdf:Description rdf:about="">
       <dc:title>Mutant Standard emoji 2023.12</dc:title>
     </rdf:Description>

    <cc:work rdf:about="">
        <cc:license rdf:resource="http://creativecommons.org/licenses/by-nc-sa/4.0/"/>
        <cc:attributionName>Caius Nocturne</cc:attributionName>
        <cc:attributionURL>http://mutant.tech/</cc:attributionURL>
    </cc:work>

</rdf:RDF>
</metadata>

    <rect id="_1f979_holding_back_tears" width="32" height="32" fill="none" serif:id="1f979_holding_back_tears"/>
    <clipPath id="_clip1">
        <rect width="32" height="32"/>
    </clipPath>
    <g clip-path="url(#_clip1)">
        <path d="m16 29.5c-8.1 0-14-4.764-14-11.5 0-8.538 7.64-14 14-14s14 5.462 14 14c0 6.736-5.9 11.5-14 11.5z" fill="none" stroke="#000" stroke-width="4px"/>
        <path d="m16 29.5c-8.1 0-14-4.764-14-11.5 0-8.538 7.64-14 14-14s14 5.462 14 14c0 6.736-5.9 11.5-14 11.5z" fill="#ffb636"/>
        <path d="m23.043 11.747 3.885 1.766c0.047 0.32 0.072 0.65 0.072 0.987 0 3.036-2.016 5.5-4.5 5.5s-4.5-2.464-4.5-5.5c0-1.73 0.655-3.274 1.678-4.283l1.727 0.785c-1.336 0.07 2.221 1.386 1.638 0.745zm-12.448-0.745 1.727-0.785c1.023 1.009 1.678 2.553 1.678 4.283-0 3.036-2.016 5.5-4.5 5.5s-4.5-2.464-4.5-5.5c-0-0.337 0.025-0.667 0.072-0.987l3.885-1.766c-0.583 0.641 2.974-0.675 1.638-0.745z" fill="#fff"/>
        <path d="m23.043 11.747c0.583 0.641 0.957 1.636 0.957 2.753 0 1.932-1.12 3.5-2.5 3.5s-2.5-1.568-2.5-3.5c0-1.887 1.069-3.428 2.405-3.498l1.638 0.745zm-12.448-0.745c1.336 0.07 2.405 1.611 2.405 3.498-0 1.932-1.12 3.5-2.5 3.5s-2.5-1.568-2.5-3.5c-0-1.117 0.374-2.112 0.957-2.753l1.638-0.745z"/>
        <path d="m12 22s1.358 1.648 4 1.648 4-1.648 4-1.648" fill="none" stroke="#694300" stroke-width="2px"/>
        <ellipse cx="25.5" cy="20" rx="2.5" ry="2" fill="#3fa7ff"/>
        <ellipse cx="6.5" cy="20" rx="2.5" ry="2" fill="#3fa7ff"/>
        <path d="m7.543 9.448c0.414 0.717 1.72 0.739 2.915 0.049s1.829-1.832 1.415-2.549-1.72-0.739-2.915-0.049c-1.195 0.689-1.829 1.832-1.415 2.549z"/>
        <path d="m24.457 9.448c-0.414 0.717-1.72 0.739-2.915 0.049s-1.829-1.832-1.415-2.549 1.72-0.739 2.915-0.049c1.195 0.689 1.829 1.832 1.415 2.549z"/>
    </g>
</svg>
