<?xml version="1.0" encoding="UTF-8"?>
<!DOCTYPE svg  PUBLIC '-//W3C//DTD SVG 1.1//EN'  'http://www.w3.org/Graphics/SVG/1.1/DTD/svg11.dtd'>
<svg clip-rule="evenodd" fill-rule="evenodd" stroke-linecap="round" stroke-linejoin="round" stroke-miterlimit="1.5" version="1.1" viewBox="0 0 32 32" xml:space="preserve" xmlns="http://www.w3.org/2000/svg" xmlns:serif="http://www.serif.com/">
<metadata>
<rdf:RDF xmlns:cc="http://web.resource.org/cc/" xmlns:dc="http://purl.org/dc/elements/1.1/" xmlns:rdf="http://www.w3.org/1999/02/22-rdf-syntax-ns#">

     <rdf:Description rdf:about="">
       <dc:title>Mutant Standard emoji 2023.12</dc:title>
     </rdf:Description>

    <cc:work rdf:about="">
        <cc:license rdf:resource="http://creativecommons.org/licenses/by-nc-sa/4.0/"/>
        <cc:attributionName>Caius Nocturne</cc:attributionName>
        <cc:attributionURL>http://mutant.tech/</cc:attributionURL>
    </cc:work>

</rdf:RDF>
</metadata>

    <rect id="_1f917_hugging_face" width="32" height="32" fill="none" serif:id="1f917_hugging_face"/>
    <clipPath id="_clip1">
        <rect width="32" height="32"/>
    </clipPath>
    <g clip-path="url(#_clip1)">
        <path d="m7.915 26.332c-3.65-2.234-5.915-5.995-5.915-10.332 0-8.873 5.127-14 14-14s14 5.127 14 14c0 4.337-2.265 8.098-5.915 10.332l0.415 0.415 0.781-0.781c0.854-0.854 2.012-1.333 3.219-1.333s2.365 0.479 3.219 1.333l0.024 0.024c1.753 1.753 1.767 4.591 0.031 6.361l-2.245 2.288c-1.065 1.086-2.52 1.701-4.041 1.709-1.521 7e-3 -2.981-0.594-4.057-1.669l-0.108-0.109c-1.695-1.695-2.148-4.268-1.135-6.44l0.082-0.176c-1.331 0.355-2.762 0.546-4.27 0.546s-2.939-0.191-4.27-0.546l0.082 0.176c1.013 2.172 0.56 4.745-1.135 6.44l-0.108 0.109c-1.076 1.075-2.536 1.676-4.057 1.669-1.521-8e-3 -2.976-0.623-4.041-1.709l-2.245-2.288c-1.736-1.77-1.722-4.608 0.031-6.361l0.024-0.024c0.854-0.854 2.012-1.333 3.219-1.333s2.365 0.479 3.219 1.333l0.781 0.781 0.415-0.415z" fill="none" stroke="#000" stroke-width="4px"/>
        <path d="m4.026 22.652c-0.079-0.118-0.157-0.237-0.233-0.358 0.529 0.131-0.825-7.947-1.767-7.361 0.399-8.216 5.463-12.933 13.974-12.933 8.525 0 13.592 4.733 13.976 12.973-0.952-0.61-2.307 7.446-1.758 7.303-0.078 0.125-0.158 0.249-0.241 0.371-1.259 0.095-9.941 5.369-10.05 5.746-0.627 0.071-1.27 0.107-1.927 0.107-0.679-0-1.343-0.039-1.99-0.114-0.109-0.375-8.748-5.628-9.984-5.734z" fill="none" stroke="#000" stroke-width="4px"/>
        <path d="m4.026 22.652c-0.079-0.118-0.157-0.237-0.233-0.358 0.529 0.131-0.825-7.947-1.767-7.361 0.399-8.216 5.463-12.933 13.974-12.933 8.525 0 13.592 4.733 13.976 12.973-0.952-0.61-2.307 7.446-1.758 7.303-0.078 0.125-0.158 0.249-0.241 0.371-1.259 0.095-9.941 5.369-10.05 5.746-0.627 0.071-1.27 0.107-1.927 0.107-0.679-0-1.343-0.039-1.99-0.114-0.109-0.375-8.748-5.628-9.984-5.734z" fill="#ffb636"/>
        <path d="m17.927 28.393c0.109-0.377 0.248-0.749 0.418-1.113l1.812-3.883c0.276-0.591 0.823-1.01 1.466-1.124 0.642-0.113 1.299 0.095 1.761 0.556l1.129 1.129c1.002-0.759 2.205-1.216 3.464-1.311-2.093 3.095-5.669 5.255-10.05 5.746z" fill="#694300"/>
        <path d="m14.01 28.386c-4.35-0.505-7.9-2.656-9.984-5.734 1.236 0.106 2.415 0.56 3.4 1.306l1.129-1.129c0.462-0.461 1.119-0.669 1.762-0.556 0.642 0.114 1.189 0.533 1.465 1.124l1.812 3.883c0.169 0.362 0.307 0.731 0.416 1.106z" fill="#694300"/>
        <path d="m3.793 22.294c-1.151-1.839-1.793-3.985-1.793-6.294 0-0.362 9e-3 -0.718 0.026-1.067 0.942-0.586 2.14-0.937 3.444-0.937 3.035-0 5.5 1.904 5.5 4.25-0 2.345-2.465 4.25-5.5 4.25-0.585-0-1.148-0.071-1.677-0.202zm24.425-0.018c-0.549 0.143-1.137 0.22-1.748 0.22-3.036-0-5.5-1.905-5.5-4.25-0-2.346 2.464-4.25 5.5-4.25 1.332-0 2.554 0.367 3.506 0.977 0.016 0.336 0.024 0.679 0.024 1.027-0 2.302-0.638 4.441-1.782 6.276z" fill="#f26f1c"/>
        <path d="m7.293 7.449c0.215 0.8 1.471 1.159 2.804 0.802 1.332-0.357 2.24-1.296 2.026-2.096-0.214-0.799-1.47-1.159-2.803-0.801-1.333 0.357-2.241 1.296-2.027 2.095z"/>
        <path d="m24.707 7.449c-0.215 0.8-1.471 1.159-2.804 0.802-1.332-0.357-2.24-1.296-2.026-2.096 0.214-0.799 1.47-1.159 2.803-0.801 1.333 0.357 2.241 1.296 2.027 2.095z"/>
        <path d="m13 14s-0.059-0.137-0.16-0.372c-0.564-1.318-1.805-2.22-3.233-2.351-1.427-0.131-2.812 0.53-3.607 1.723" fill="none" stroke="#000" stroke-width="2px"/>
        <path d="m19 14s0.059-0.137 0.16-0.372c0.564-1.318 1.805-2.22 3.233-2.351 1.427-0.131 2.812 0.53 3.607 1.723" fill="none" stroke="#000" stroke-width="2px"/>
        <path d="m10 18s1.648 3 6 3 6-3 6-3" fill="none" stroke="#694300" stroke-width="2px"/>
        <path d="m25.281 25.966c0.854-0.854 2.012-1.333 3.219-1.333s2.365 0.479 3.219 1.333l0.024 0.024c1.753 1.753 1.767 4.591 0.031 6.361-0.719 0.734-1.494 1.523-2.245 2.288-1.065 1.086-2.52 1.701-4.041 1.709-1.521 7e-3 -2.981-0.594-4.057-1.669-0.036-0.037-0.072-0.073-0.108-0.109-1.695-1.695-2.148-4.268-1.135-6.44 0.895-1.918 1.812-3.883 1.812-3.883l2.5 2.5 0.781-0.781z" fill="#ffb636"/>
        <path d="m6.719 25.966c-0.854-0.854-2.012-1.333-3.219-1.333s-2.365 0.479-3.219 1.333l-0.024 0.024c-1.753 1.753-1.767 4.591-0.031 6.361 0.719 0.734 1.494 1.523 2.245 2.288 1.065 1.086 2.52 1.701 4.041 1.709 1.521 7e-3 2.981-0.594 4.057-1.669 0.036-0.037 0.072-0.073 0.108-0.109 1.695-1.695 2.148-4.268 1.135-6.44-0.895-1.918-1.812-3.883-1.812-3.883l-2.5 2.5-0.781-0.781z" fill="#ffb636"/>
    </g>
</svg>
