<?xml version="1.0" encoding="UTF-8"?>
<!DOCTYPE svg  PUBLIC '-//W3C//DTD SVG 1.1//EN'  'http://www.w3.org/Graphics/SVG/1.1/DTD/svg11.dtd'>
<svg clip-rule="evenodd" fill-rule="evenodd" stroke-linecap="round" stroke-linejoin="round" stroke-miterlimit="1.5" version="1.1" viewBox="0 0 32 32" xml:space="preserve" xmlns="http://www.w3.org/2000/svg" xmlns:serif="http://www.serif.com/">
<metadata>
<rdf:RDF xmlns:cc="http://web.resource.org/cc/" xmlns:dc="http://purl.org/dc/elements/1.1/" xmlns:rdf="http://www.w3.org/1999/02/22-rdf-syntax-ns#">

     <rdf:Description rdf:about="">
       <dc:title>Mutant Standard emoji 2023.12</dc:title>
     </rdf:Description>

    <cc:work rdf:about="">
        <cc:license rdf:resource="http://creativecommons.org/licenses/by-nc-sa/4.0/"/>
        <cc:attributionName>Caius Nocturne</cc:attributionName>
        <cc:attributionURL>http://mutant.tech/</cc:attributionURL>
    </cc:work>

</rdf:RDF>
</metadata>

    <rect id="_1f62f_hushed" width="32" height="32" fill="none" serif:id="1f62f_hushed"/>
    <path d="m16 29.5c-8.1-0-14-5.5-14-12.5 0-8.873 7.64-14 14-14s14 5.127 14 14c0 7-5.9 12.5-14 12.5z" fill="none" stroke="#000" stroke-width="4px"/>
    <path d="m16 29.5c-8.1-0-14-5.5-14-12.5 0-8.873 7.64-14 14-14s14 5.127 14 14c0 7-5.9 12.5-14 12.5z" fill="#ffb636"/>
    <path d="m7.293 8.06c0.215 0.8 1.471 1.159 2.804 0.802 1.332-0.357 2.24-1.296 2.026-2.096s-1.47-1.159-2.803-0.802-2.241 1.296-2.027 2.096z"/>
    <path d="m24.707 8.06c-0.215 0.8-1.471 1.159-2.804 0.802-1.332-0.357-2.24-1.296-2.026-2.096s1.47-1.159 2.803-0.802 2.241 1.296 2.027 2.096z"/>
    <rect x="17" y="9" width="11" height="12" fill="none"/>
    <clipPath id="_clip1">
        <rect x="17" y="9" width="11" height="12"/>
    </clipPath>
    <g clip-path="url(#_clip1)">
        <ellipse cx="22.5" cy="15.5" rx="4.5" ry="5.5" fill="#fff"/>
        <ellipse cx="21.5" cy="15.5" rx="2.5" ry="3.5"/>
    </g>
    <path d="m18.415 25.783c0.368-0.497 0.585-1.113 0.585-1.779v-4e-3c-0-1.654-1.341-2.996-2.996-2.996h-8e-3c-1.655 0-2.996 1.342-2.996 2.996v4e-3c0 0.666 0.217 1.282 0.585 1.779 0.536-0.486 4.294-0.486 4.83 0z"/>
    <path d="m13.585 25.783c0.546 0.738 1.423 1.217 2.411 1.217h8e-3c0.988 0 1.865-0.479 2.411-1.217-0.536-0.486-1.246-0.779-2.017-0.779h-0.796c-0.771 0-1.481 0.293-2.017 0.779z" fill="#c33700"/>
    <rect x="4" y="9" width="11" height="12" fill="none"/>
    <clipPath id="_clip2">
        <rect x="4" y="9" width="11" height="12"/>
    </clipPath>
    <g clip-path="url(#_clip2)">
        <ellipse cx="9.5" cy="15.5" rx="4.5" ry="5.5" fill="#fff"/>
        <ellipse cx="10.5" cy="15.5" rx="2.5" ry="3.5"/>
    </g>
</svg>
