<?xml version="1.0" encoding="UTF-8"?>
<!DOCTYPE svg  PUBLIC '-//W3C//DTD SVG 1.1//EN'  'http://www.w3.org/Graphics/SVG/1.1/DTD/svg11.dtd'>
<svg clip-rule="evenodd" fill-rule="evenodd" stroke-linecap="round" stroke-linejoin="round" stroke-miterlimit="1.5" version="1.1" viewBox="0 0 32 32" xml:space="preserve" xmlns="http://www.w3.org/2000/svg" xmlns:serif="http://www.serif.com/">
<metadata>
<rdf:RDF xmlns:cc="http://web.resource.org/cc/" xmlns:dc="http://purl.org/dc/elements/1.1/" xmlns:rdf="http://www.w3.org/1999/02/22-rdf-syntax-ns#">

     <rdf:Description rdf:about="">
       <dc:title>Mutant Standard emoji 2023.12</dc:title>
     </rdf:Description>

    <cc:work rdf:about="">
        <cc:license rdf:resource="http://creativecommons.org/licenses/by-nc-sa/4.0/"/>
        <cc:attributionName>Caius Nocturne</cc:attributionName>
        <cc:attributionURL>http://mutant.tech/</cc:attributionURL>
    </cc:work>

</rdf:RDF>
</metadata>

    <rect id="_1f47f_imp_angry" width="32" height="32" fill="none" serif:id="1f47f_imp_angry"/>
    <g id="outline" fill="none" stroke="#000" stroke-width="4px">
        <path d="m16 29.5c-8.1 0-14-4.764-14-11.5 0-8.538 6.605-14 14-14s14 5.462 14 14c0 6.736-5.9 11.5-14 11.5z"/>
        <path d="m20 6s2.524-0.333 4.387-1.464c1.871-1.135 3.613-2.536 3.613-2.536s1.099 4.655 0 7-2 3-2 3l-6-6z"/>
        <path d="m12 6s-2.524-0.333-4.387-1.464c-1.871-1.135-3.613-2.536-3.613-2.536s-1.099 4.655 0 7 2 3 2 3l6-6z"/>
    </g>
    <path d="m20 6s2.524-0.333 4.387-1.464c1.871-1.135 3.613-2.536 3.613-2.536s1.099 4.655 0 7-2 3-2 3l-6-6z" fill="#8400d0"/>
    <path d="m12 6s-2.524-0.333-4.387-1.464c-1.871-1.135-3.613-2.536-3.613-2.536s-1.099 4.655 0 7 2 3 2 3l6-6z" fill="#8400d0"/>
    <path d="m16 29.5c-8.1 0-14-4.764-14-11.5 0-8.538 6.605-14 14-14s14 5.462 14 14c0 6.736-5.9 11.5-14 11.5z" fill="#b535ff"/>
    <path d="m9 25 2-3 2.5 2.5 2.5-2.5 2.5 2.5 2.5-2.5 2 3" fill="none" stroke="#4a0074" stroke-width="2px"/>
    <path d="m23.202 12.925 2.616-2.139c0.734 0.978 1.182 2.283 1.182 3.714 0 3.036-2.016 5.5-4.5 5.5-1.801 0-3.356-1.296-4.075-3.166l1.271-1.039c0.322 1.008 3.695-2.412 3.506-2.87z"/>
    <path d="m12.304 15.795 1.271 1.039c-0.719 1.87-2.274 3.166-4.075 3.166-2.484 0-4.5-2.464-4.5-5.5-0-1.431 0.448-2.736 1.182-3.714l2.616 2.139c-0.189 0.458 3.184 3.878 3.506 2.87z"/>
    <path d="m23.202 12.925c0.189 0.458 0.298 0.998 0.298 1.575 0 1.656-0.896 3-2 3-0.795-0-1.482-0.697-1.804-1.705l3.506-2.87z" fill="#ffb636"/>
    <path d="m12.304 15.795c-0.322 1.008-1.009 1.705-1.804 1.705-1.104-0-2-1.344-2-3-0-0.577 0.109-1.117 0.298-1.575l3.506 2.87z" fill="#ffb636"/>
    <path d="m9.941 9.171c-0.586 0.585-0.269 1.852 0.707 2.828 0.975 0.976 2.243 1.293 2.828 0.707 0.585-0.585 0.269-1.853-0.707-2.828-0.976-0.976-2.243-1.293-2.828-0.707z"/>
    <path d="m22.059 9.171c0.586 0.585 0.269 1.852-0.707 2.828-0.975 0.976-2.243 1.293-2.828 0.707-0.585-0.585-0.269-1.853 0.707-2.828 0.976-0.976 2.243-1.293 2.828-0.707z"/>
</svg>
