<?xml version="1.0" encoding="UTF-8"?>
<!DOCTYPE svg  PUBLIC '-//W3C//DTD SVG 1.1//EN'  'http://www.w3.org/Graphics/SVG/1.1/DTD/svg11.dtd'>
<svg clip-rule="evenodd" fill-rule="evenodd" stroke-linecap="round" stroke-linejoin="round" stroke-miterlimit="1.5" version="1.1" viewBox="0 0 32 32" xml:space="preserve" xmlns="http://www.w3.org/2000/svg" xmlns:serif="http://www.serif.com/">
<metadata>
<rdf:RDF xmlns:cc="http://web.resource.org/cc/" xmlns:dc="http://purl.org/dc/elements/1.1/" xmlns:rdf="http://www.w3.org/1999/02/22-rdf-syntax-ns#">

     <rdf:Description rdf:about="">
       <dc:title>Mutant Standard emoji 2023.12</dc:title>
     </rdf:Description>

    <cc:work rdf:about="">
        <cc:license rdf:resource="http://creativecommons.org/licenses/by-nc-sa/4.0/"/>
        <cc:attributionName>Caius Nocturne</cc:attributionName>
        <cc:attributionURL>http://mutant.tech/</cc:attributionURL>
    </cc:work>

</rdf:RDF>
</metadata>

    <rect id="_1f602_joy" width="32" height="32" fill="none" serif:id="1f602_joy"/>
    <clipPath id="_clip1">
        <rect width="32" height="32"/>
    </clipPath>
    <g clip-path="url(#_clip1)">
        <path d="m25 19c2.434 0.696 5 2.469 5 5 0 1.056-0.578 2.063-1.758 2.429-1.36 0.423-2.854-0.372-3.218-1.623-0.506-1.739 0.848-3.419-0.024-5.806z" fill="none" stroke="#000" stroke-width="4px"/>
        <path d="m7 19c-2.434 0.696-5 2.469-5 5 0 1.056 0.578 2.063 1.758 2.429 1.36 0.423 2.854-0.372 3.218-1.623 0.506-1.739-0.848-3.419 0.024-5.806z" fill="none" stroke="#000" stroke-width="4px"/>
        <path d="m16 30c-8.701-0-13.5-5.396-13.5-12.264 0-8.706 7.368-13.736 13.5-13.736s13.5 5.03 13.5 13.736c0 6.868-4.799 12.264-13.5 12.264z" fill="none" stroke="#000" stroke-width="4px"/>
        <path d="m16 30c-8.701-0-13.5-5.396-13.5-12.264 0-8.706 7.368-13.736 13.5-13.736s13.5 5.03 13.5 13.736c0 6.868-4.799 12.264-13.5 12.264z" fill="#ffb636"/>
        <path d="m25 19c2.434 0.696 5 2.469 5 5 0 1.056-0.578 2.063-1.758 2.429-1.36 0.423-2.854-0.372-3.218-1.623-0.506-1.739 0.848-3.419-0.024-5.806z" fill="#3fa7ff"/>
        <path d="m7 19c-2.434 0.696-5 2.469-5 5 0 1.056 0.578 2.063 1.758 2.429 1.36 0.423 2.854-0.372 3.218-1.623 0.506-1.739-0.848-3.419 0.024-5.806z" fill="#3fa7ff"/>
        <path d="m20.351 27.057c2.261-1.119 3.469-3.005 4.081-4.376 0.148-0.335 0.101-0.725-0.123-1.015-0.225-0.29-0.591-0.433-0.952-0.373-1.8 0.295-4.774 0.707-7.357 0.707s-5.557-0.412-7.357-0.707c-0.362-0.061-0.727 0.083-0.952 0.373s-0.272 0.68-0.123 1.015c0.612 1.371 1.82 3.257 4.081 4.376 1.009-1.29 7.693-1.29 8.702 0z"/>
        <path d="m20.351 27.057c-1.009-1.29-2.561-2.053-4.213-2.053h-0.276c-1.652 0-3.204 0.763-4.213 2.053 1.155 0.572 2.585 0.943 4.351 0.943s3.196-0.371 4.351-0.943z" fill="#c33700"/>
        <path d="m13 19c-0.811-2.136-3.824-3.396-6-2.004" fill="none" stroke="#000" stroke-width="2px"/>
        <path d="m19 19c0.811-2.136 3.824-3.396 6-2.004" fill="none" stroke="#000" stroke-width="2px"/>
        <path d="m8.293 11.353c-0.214 0.8 0.694 1.739 2.027 2.096s2.589-2e-3 2.803-0.802-0.694-1.739-2.026-2.096c-1.333-0.357-2.589 2e-3 -2.804 0.802z"/>
        <path d="m23.707 11.353c0.214 0.8-0.694 1.739-2.027 2.096s-2.589-2e-3 -2.803-0.802 0.694-1.739 2.026-2.096c1.333-0.357 2.589 2e-3 2.804 0.802z"/>
    </g>
</svg>
