<?xml version="1.0" encoding="UTF-8"?>
<!DOCTYPE svg  PUBLIC '-//W3C//DTD SVG 1.1//EN'  'http://www.w3.org/Graphics/SVG/1.1/DTD/svg11.dtd'>
<svg clip-rule="evenodd" fill-rule="evenodd" stroke-linecap="round" stroke-linejoin="round" stroke-miterlimit="1.5" version="1.1" viewBox="0 0 32 32" xml:space="preserve" xmlns="http://www.w3.org/2000/svg" xmlns:serif="http://www.serif.com/">
<metadata>
<rdf:RDF xmlns:cc="http://web.resource.org/cc/" xmlns:dc="http://purl.org/dc/elements/1.1/" xmlns:rdf="http://www.w3.org/1999/02/22-rdf-syntax-ns#">

     <rdf:Description rdf:about="">
       <dc:title>Mutant Standard emoji 2023.12</dc:title>
     </rdf:Description>

    <cc:work rdf:about="">
        <cc:license rdf:resource="http://creativecommons.org/licenses/by-nc-sa/4.0/"/>
        <cc:attributionName>Caius Nocturne</cc:attributionName>
        <cc:attributionURL>http://mutant.tech/</cc:attributionURL>
    </cc:work>

</rdf:RDF>
</metadata>

    <rect id="_1f606_laughing" width="32" height="32" fill="none" serif:id="1f606_laughing"/>
    <path d="m16 30c-9.024-0-14-5.396-14-12.264 0-8.706 7.64-13.736 14-13.736s14 5.03 14 13.736c0 6.868-4.976 12.264-14 12.264z" fill="none" stroke="#000" stroke-width="4px"/>
    <path d="m16 30c-9.024-0-14-5.396-14-12.264 0-8.706 7.64-13.736 14-13.736s14 5.03 14 13.736c0 6.868-4.976 12.264-14 12.264z" fill="#ffb636"/>
    <path d="m19 18.496s2e-3 -4e-3 6e-3 -0.01c1.196-1.793 3.39-2.641 5.481-2.119 0.312 0.078 0.513 0.129 0.513 0.129" fill="none" stroke="#000" stroke-width="2px"/>
    <path d="m13 18.5s-2e-3 -3e-3 -6e-3 -0.01c-1.196-1.793-3.39-2.641-5.481-2.118-0.312 0.078-0.513 0.128-0.513 0.128" fill="none" stroke="#000" stroke-width="2px"/>
    <path d="m9.941 9.732c-0.586 0.586-0.269 1.853 0.707 2.829 0.975 0.975 2.243 1.292 2.828 0.707 0.585-0.586 0.269-1.853-0.707-2.829-0.976-0.975-2.243-1.292-2.828-0.707z"/>
    <path d="m22.059 9.732c0.586 0.586 0.269 1.853-0.707 2.829-0.975 0.975-2.243 1.292-2.828 0.707-0.585-0.586-0.269-1.853 0.707-2.829 0.976-0.975 2.243-1.292 2.828-0.707z"/>
    <path d="m20.351 27.057c2.261-1.119 3.469-3.005 4.081-4.376 0.148-0.335 0.101-0.725-0.123-1.015-0.225-0.29-0.591-0.433-0.952-0.373-1.8 0.295-4.774 0.707-7.357 0.707s-5.557-0.412-7.357-0.707c-0.362-0.061-0.727 0.083-0.952 0.373s-0.272 0.68-0.123 1.015c0.612 1.371 1.82 3.257 4.081 4.376 1.009-1.29 7.693-1.29 8.702 0z"/>
    <path d="m20.351 27.057c-1.009-1.29-2.561-2.053-4.213-2.053h-0.276c-1.652 0-3.204 0.763-4.213 2.053 1.155 0.572 2.585 0.943 4.351 0.943s3.196-0.371 4.351-0.943z" fill="#c33700"/>
</svg>
