<?xml version="1.0" encoding="UTF-8"?>
<!DOCTYPE svg  PUBLIC '-//W3C//DTD SVG 1.1//EN'  'http://www.w3.org/Graphics/SVG/1.1/DTD/svg11.dtd'>
<svg clip-rule="evenodd" fill-rule="evenodd" stroke-linecap="round" stroke-linejoin="round" stroke-miterlimit="1.5" version="1.1" viewBox="0 0 32 32" xml:space="preserve" xmlns="http://www.w3.org/2000/svg">
<metadata>
<rdf:RDF xmlns:cc="http://web.resource.org/cc/" xmlns:dc="http://purl.org/dc/elements/1.1/" xmlns:rdf="http://www.w3.org/1999/02/22-rdf-syntax-ns#">

     <rdf:Description rdf:about="">
       <dc:title>Mutant Standard emoji 2023.12</dc:title>
     </rdf:Description>

    <cc:work rdf:about="">
        <cc:license rdf:resource="http://creativecommons.org/licenses/by-nc-sa/4.0/"/>
        <cc:attributionName>Caius Nocturne</cc:attributionName>
        <cc:attributionURL>http://mutant.tech/</cc:attributionURL>
    </cc:work>

</rdf:RDF>
</metadata>

    <rect id="mtnt_mild_panic" width="32" height="32" fill="none"/>
    <path d="m26 2s-1.618 2.831-2.795 4.892c-0.712 1.245-0.502 2.811 0.512 3.825l0.035 0.035c1.242 1.242 3.254 1.242 4.496 0l0.035-0.035c1.014-1.014 1.224-2.58 0.512-3.825-1.177-2.061-2.795-4.892-2.795-4.892z" fill="none" stroke="#000" stroke-width="4px"/>
    <path d="m16 29.5c-8.1-0-14-5.5-14-12.5 0-8.873 7.64-14 14-14s14 5.127 14 14c0 7-5.9 12.5-14 12.5z" fill="none" stroke="#000" stroke-width="4px"/>
    <path d="m16 29.5c-8.1-0-14-5.5-14-12.5 0-8.873 7.64-14 14-14s14 5.127 14 14c0 7-5.9 12.5-14 12.5z" fill="#ffb636"/>
    <path d="m12 22s0 1e-3 1e-3 2e-3c0.82 1.435 2.346 2.32 3.999 2.32s3.179-0.885 3.999-2.32c1e-3 -1e-3 1e-3 -2e-3 1e-3 -2e-3" fill="none" stroke="#694300" stroke-width="2px"/>
    <circle cx="22.5" cy="14.5" r="5.5" fill="#fff"/>
    <circle cx="9.5" cy="14.5" r="5.5" fill="#fff"/>
    <circle cx="22.5" cy="14.5" r="3"/>
    <circle cx="9.5" cy="14.5" r="3"/>
    <path d="m26 2s-1.618 2.831-2.795 4.892c-0.712 1.245-0.502 2.811 0.512 3.825l0.035 0.035c1.242 1.242 3.254 1.242 4.496 0l0.035-0.035c1.014-1.014 1.224-2.58 0.512-3.825-1.177-2.061-2.795-4.892-2.795-4.892z" fill="#3fa7ff"/>
</svg>
