<?xml version="1.0" encoding="UTF-8"?>
<!DOCTYPE svg  PUBLIC '-//W3C//DTD SVG 1.1//EN'  'http://www.w3.org/Graphics/SVG/1.1/DTD/svg11.dtd'>
<svg clip-rule="evenodd" fill-rule="evenodd" stroke-linejoin="round" stroke-miterlimit="2" version="1.1" viewBox="0 0 32 32" xml:space="preserve" xmlns="http://www.w3.org/2000/svg" xmlns:serif="http://www.serif.com/">
<metadata>
<rdf:RDF xmlns:cc="http://web.resource.org/cc/" xmlns:dc="http://purl.org/dc/elements/1.1/" xmlns:rdf="http://www.w3.org/1999/02/22-rdf-syntax-ns#">

     <rdf:Description rdf:about="">
       <dc:title>Mutant Standard emoji 2023.12</dc:title>
     </rdf:Description>

    <cc:work rdf:about="">
        <cc:license rdf:resource="http://creativecommons.org/licenses/by-nc-sa/4.0/"/>
        <cc:attributionName>Caius Nocturne</cc:attributionName>
        <cc:attributionURL>http://mutant.tech/</cc:attributionURL>
    </cc:work>

</rdf:RDF>
</metadata>

    <rect id="_1f911_money_face" width="32" height="32" fill="none" serif:id="1f911_money_face"/>
    <clipPath id="_clip1">
        <rect width="32" height="32"/>
    </clipPath>
    <g clip-path="url(#_clip1)">
        <path d="m4.5 14.5c-0-0.276 0.224-0.5 0.5-0.5h6.5c0.133 0 0.26-0.053 0.354-0.146 0.093-0.094 0.146-0.221 0.146-0.354 0-0.276-0.224-0.5-0.5-0.5h-4.5c-1.933-0-3.5-1.567-3.5-3.5-0-0.928 0.369-1.818 1.025-2.475 0.657-0.656 1.547-1.025 2.475-1.025h0.75v-1.5c-0-0.133 0.053-0.26 0.146-0.354 0.094-0.093 0.221-0.146 0.354-0.146h2c0.133-0 0.26 0.053 0.354 0.146 0.093 0.094 0.146 0.221 0.146 0.354v1.5h2.75c0.133 0 0.26 0.053 0.354 0.146 0.093 0.094 0.146 0.221 0.146 0.354v2c0 0.276-0.224 0.5-0.5 0.5h-6.5c-0.133-0-0.26 0.053-0.354 0.146-0.093 0.094-0.146 0.221-0.146 0.354 0 0.276 0.224 0.5 0.5 0.5h4.5c1.933 0 3.5 1.567 3.5 3.5-0 0.928-0.369 1.818-1.025 2.475-0.657 0.656-1.547 1.025-2.475 1.025h-0.75v1.5c0 0.133-0.053 0.26-0.146 0.354-0.094 0.093-0.221 0.146-0.354 0.146h-2c-0.133 0-0.26-0.053-0.354-0.146-0.093-0.094-0.146-0.221-0.146-0.354v-1.5h-2.75c-0.133-0-0.26-0.053-0.354-0.146-0.093-0.094-0.146-0.221-0.146-0.354v-2z" fill="none" stroke="#000" stroke-width="4px"/>
        <path d="m18 14.5c-0-0.276 0.224-0.5 0.5-0.5h6.5c0.133 0 0.26-0.053 0.354-0.146 0.093-0.094 0.146-0.221 0.146-0.354 0-0.276-0.224-0.5-0.5-0.5h-4.5c-1.933-0-3.5-1.567-3.5-3.5-0-0.928 0.369-1.818 1.025-2.475 0.657-0.656 1.547-1.025 2.475-1.025h0.75v-1.5c-0-0.133 0.053-0.26 0.146-0.354 0.094-0.093 0.221-0.146 0.354-0.146h2c0.133-0 0.26 0.053 0.354 0.146 0.093 0.094 0.146 0.221 0.146 0.354v1.5h2.75c0.133 0 0.26 0.053 0.354 0.146 0.093 0.094 0.146 0.221 0.146 0.354v2c0 0.276-0.224 0.5-0.5 0.5h-6.5c-0.133-0-0.26 0.053-0.354 0.146-0.093 0.094-0.146 0.221-0.146 0.354 0 0.276 0.224 0.5 0.5 0.5h4.5c1.933 0 3.5 1.567 3.5 3.5-0 0.928-0.369 1.818-1.025 2.475-0.657 0.656-1.547 1.025-2.475 1.025h-0.75v1.5c0 0.133-0.053 0.26-0.146 0.354-0.094 0.093-0.221 0.146-0.354 0.146h-2c-0.133 0-0.26-0.053-0.354-0.146-0.093-0.094-0.146-0.221-0.146-0.354v-1.5h-2.75c-0.133-0-0.26-0.053-0.354-0.146-0.093-0.094-0.146-0.221-0.146-0.354v-2z" fill="none" stroke="#000" stroke-width="4px"/>
        <path d="m16 30c-9.032 0-14-5.396-14-12.264 0-8.706 7.64-13.736 14-13.736s14 5.03 14 13.736c0 6.868-4.968 12.264-14 12.264z" fill="none" stroke="#000" stroke-linecap="round" stroke-miterlimit="1.5" stroke-width="4px"/>
        <path d="m16 30c-9.032 0-14-5.396-14-12.264 0-8.706 7.64-13.736 14-13.736s14 5.03 14 13.736c0 6.868-4.968 12.264-14 12.264z" fill="#ffb636"/>
        <path d="m21.178 25.647c1.258-0.843 2.277-2.042 2.899-3.494l0.327-0.762c0.132-0.308 0.1-0.662-0.084-0.942-0.185-0.28-0.498-0.449-0.834-0.449h-14.972c-0.336-0-0.649 0.169-0.834 0.449-0.184 0.28-0.216 0.634-0.084 0.942l0.327 0.762c0.622 1.452 1.641 2.651 2.899 3.494 1.002-1.339 9.354-1.339 10.356-0z"/>
        <path d="m12 24.497c1.112 0.505 1.129 1.104 0 1.803-0.411-0.185-0.805-0.403-1.178-0.653 0.334-0.446 0.732-0.833 1.178-1.15zm8 1.803c-1.279-0.439-1.156-1.056 0-1.803 0.446 0.317 0.844 0.704 1.178 1.15-0.373 0.25-0.767 0.468-1.178 0.653z" fill="#2a6d11"/>
        <path d="m20 26.3c-4e-3 1e-3 -8e-3 3e-3 -0.012 5e-3 -0.072 0.949-0.482 1.845-1.16 2.523-0.75 0.751-1.767 1.172-2.828 1.172s-2.078-0.421-2.828-1.172c-0.678-0.678-1.088-1.574-1.16-2.523-4e-3 -2e-3 -8e-3 -4e-3 -0.012-5e-3v-1.803c0.892-0.635 1.972-0.993 3.104-0.993h1.792c1.132 0 2.212 0.358 3.104 0.993v1.803z" fill="#41a91a"/>
        <path d="m4.5 14.5c-0-0.276 0.224-0.5 0.5-0.5h6.5c0.133 0 0.26-0.053 0.354-0.146 0.093-0.094 0.146-0.221 0.146-0.354 0-0.276-0.224-0.5-0.5-0.5h-4.5c-1.933-0-3.5-1.567-3.5-3.5-0-0.928 0.369-1.818 1.025-2.475 0.657-0.656 1.547-1.025 2.475-1.025h0.75v-1.5c-0-0.133 0.053-0.26 0.146-0.354 0.094-0.093 0.221-0.146 0.354-0.146h2c0.133-0 0.26 0.053 0.354 0.146 0.093 0.094 0.146 0.221 0.146 0.354v1.5h2.75c0.133 0 0.26 0.053 0.354 0.146 0.093 0.094 0.146 0.221 0.146 0.354v2c0 0.276-0.224 0.5-0.5 0.5h-6.5c-0.133-0-0.26 0.053-0.354 0.146-0.093 0.094-0.146 0.221-0.146 0.354 0 0.276 0.224 0.5 0.5 0.5h4.5c1.933 0 3.5 1.567 3.5 3.5-0 0.928-0.369 1.818-1.025 2.475-0.657 0.656-1.547 1.025-2.475 1.025h-0.75v1.5c0 0.133-0.053 0.26-0.146 0.354-0.094 0.093-0.221 0.146-0.354 0.146h-2c-0.133 0-0.26-0.053-0.354-0.146-0.093-0.094-0.146-0.221-0.146-0.354v-1.5h-2.75c-0.133-0-0.26-0.053-0.354-0.146-0.093-0.094-0.146-0.221-0.146-0.354v-2zm13.5 0c-0-0.276 0.224-0.5 0.5-0.5h6.5c0.133 0 0.26-0.053 0.354-0.146 0.093-0.094 0.146-0.221 0.146-0.354 0-0.276-0.224-0.5-0.5-0.5h-4.5c-1.933-0-3.5-1.567-3.5-3.5 0-0.928 0.369-1.818 1.025-2.475 0.657-0.656 1.547-1.025 2.475-1.025h0.75v-1.5c-0-0.133 0.053-0.26 0.146-0.354 0.094-0.093 0.221-0.146 0.354-0.146h2c0.133-0 0.26 0.053 0.354 0.146 0.093 0.094 0.146 0.221 0.146 0.354v1.5h2.75c0.133 0 0.26 0.053 0.354 0.146 0.093 0.094 0.146 0.221 0.146 0.354v2c0 0.276-0.224 0.5-0.5 0.5h-6.5c-0.133-0-0.26 0.053-0.354 0.146-0.093 0.094-0.146 0.221-0.146 0.354 0 0.276 0.224 0.5 0.5 0.5h4.5c1.933 0 3.5 1.567 3.5 3.5-0 0.928-0.369 1.818-1.025 2.475-0.657 0.656-1.547 1.025-2.475 1.025h-0.75v1.5c0 0.133-0.053 0.26-0.146 0.354-0.094 0.093-0.221 0.146-0.354 0.146h-2c-0.133 0-0.26-0.053-0.354-0.146-0.093-0.094-0.146-0.221-0.146-0.354v-1.5h-2.75c-0.133-0-0.26-0.053-0.354-0.146-0.093-0.094-0.146-0.221-0.146-0.354v-2z" fill="#40a519"/>
    </g>
</svg>
