<?xml version="1.0" encoding="UTF-8"?>
<!DOCTYPE svg  PUBLIC '-//W3C//DTD SVG 1.1//EN'  'http://www.w3.org/Graphics/SVG/1.1/DTD/svg11.dtd'>
<svg clip-rule="evenodd" fill-rule="evenodd" stroke-linecap="round" stroke-linejoin="round" stroke-miterlimit="1.5" version="1.1" viewBox="0 0 32 32" xml:space="preserve" xmlns="http://www.w3.org/2000/svg" xmlns:serif="http://www.serif.com/">
<metadata>
<rdf:RDF xmlns:cc="http://web.resource.org/cc/" xmlns:dc="http://purl.org/dc/elements/1.1/" xmlns:rdf="http://www.w3.org/1999/02/22-rdf-syntax-ns#">

     <rdf:Description rdf:about="">
       <dc:title>Mutant Standard emoji 2023.12</dc:title>
     </rdf:Description>

    <cc:work rdf:about="">
        <cc:license rdf:resource="http://creativecommons.org/licenses/by-nc-sa/4.0/"/>
        <cc:attributionName>Caius Nocturne</cc:attributionName>
        <cc:attributionURL>http://mutant.tech/</cc:attributionURL>
    </cc:work>

</rdf:RDF>
</metadata>

    <rect id="_1f9d0_monocle" width="32" height="32" fill="none" serif:id="1f9d0_monocle"/>
    <clipPath id="_clip1">
        <rect width="32" height="32"/>
    </clipPath>
    <g clip-path="url(#_clip1)">
        <path d="m2 29v-14c0-0.198 0.077-0.378 0.202-0.512 1.357-8.164 9.24-11.488 13.798-11.488 5 0 14 4 14 14-0 7-5.9 12.5-14 12.5-5.664 0-10.253-2.689-12.5-6.701v6.201c0 0.414-0.336 0.75-0.75 0.75s-0.75-0.336-0.75-0.75z" fill="none" stroke="#000" stroke-width="4px"/>
        <path d="m16 29.5c-8.1 0-14-5.5-14-12.5 0-8.873 7.64-14 14-14s14 5.127 14 14c0 7-5.9 12.5-14 12.5z" fill="none" stroke="#000" stroke-width="4px"/>
        <path d="m16 29.5c-8.1 0-14-5.5-14-12.5 0-8.873 7.64-14 14-14s14 5.127 14 14c0 7-5.9 12.5-14 12.5z" fill="#ffb636"/>
        <path d="m22.5 19c-2.484 0-4.5-2.464-4.5-5.5 0-1.092 0.261-2.11 0.711-2.967l6.187-1.687c1.263 0.975 2.102 2.695 2.102 4.654 0 3.036-2.016 5.5-4.5 5.5z" fill="#fff"/>
        <ellipse cx="21.5" cy="13.5" rx="2.5" ry="3.5"/>
        <path d="m2 15c0-0.414 0.336-0.75 0.75-0.75s0.75 0.336 0.75 0.75v14c0 0.414-0.336 0.75-0.75 0.75s-0.75-0.336-0.75-0.75v-14z" fill="#9d9d9d"/>
        <path d="m9.859 13.01c0.546-0.078 1.053 0.302 1.131 0.849 0.078 0.546-0.302 1.053-0.849 1.131l-7 1c-0.546 0.078-1.053-0.302-1.131-0.849-0.078-0.546 0.302-1.053 0.849-1.131l7-1z" fill="#606060"/>
        <circle cx="10" cy="14" r="6" fill="#fff"/>
        <ellipse cx="10.5" cy="13.5" rx="2.5" ry="3.5"/>
        <path d="m11.122 23.004s2.08-1.5 4.939-1.5 4.939 1.5 4.939 1.5" fill="none" stroke="#694300" stroke-width="2px"/>
        <path d="m9.293 5.353c0.215-0.8 1.471-1.159 2.804-0.802 1.332 0.357 2.24 1.296 2.026 2.096s-1.47 1.159-2.803 0.802-2.241-1.296-2.027-2.096zm13.414 1.573c0.214 0.8-0.694 1.739-2.027 2.096s-2.589-2e-3 -2.803-0.802 0.694-1.739 2.026-2.096c1.333-0.357 2.589 2e-3 2.804 0.802z"/>
        <path d="m10 7.25c3.725 0 6.75 3.025 6.75 6.75s-3.025 6.75-6.75 6.75-6.75-3.025-6.75-6.75 3.025-6.75 6.75-6.75zm-0 1.5c-2.898 0-5.25 2.352-5.25 5.25s2.352 5.25 5.25 5.25 5.25-2.352 5.25-5.25-2.352-5.25-5.25-5.25z" fill="#595040"/>
    </g>
</svg>
