<?xml version="1.0" encoding="UTF-8"?>
<!DOCTYPE svg  PUBLIC '-//W3C//DTD SVG 1.1//EN'  'http://www.w3.org/Graphics/SVG/1.1/DTD/svg11.dtd'>
<svg clip-rule="evenodd" fill-rule="evenodd" stroke-linecap="round" stroke-linejoin="round" stroke-miterlimit="1.5" version="1.1" viewBox="0 0 32 32" xml:space="preserve" xmlns="http://www.w3.org/2000/svg" xmlns:serif="http://www.serif.com/">
<metadata>
<rdf:RDF xmlns:cc="http://web.resource.org/cc/" xmlns:dc="http://purl.org/dc/elements/1.1/" xmlns:rdf="http://www.w3.org/1999/02/22-rdf-syntax-ns#">

     <rdf:Description rdf:about="">
       <dc:title>Mutant Standard emoji 2023.12</dc:title>
     </rdf:Description>

    <cc:work rdf:about="">
        <cc:license rdf:resource="http://creativecommons.org/licenses/by-nc-sa/4.0/"/>
        <cc:attributionName>Caius Nocturne</cc:attributionName>
        <cc:attributionURL>http://mutant.tech/</cc:attributionURL>
    </cc:work>

</rdf:RDF>
</metadata>

    <rect id="_1f922_nauseous" width="32" height="32" fill="none" serif:id="1f922_nauseous"/>
    <path d="m16 29.5c-8.1-0-14-5.5-14-12.5 0-10 7.269-14 14-14s14 4 14 14c0 7-5.9 12.5-14 12.5z" fill="none" stroke="#000" stroke-width="4px"/>
    <path d="m2.019 16.13c0.41-9.363 7.449-13.13 13.981-13.13s13.571 3.767 13.981 13.13c-0.948-0.706-3.195 8.865-3.054 8.855-2.505 2.772-6.367 4.515-10.927 4.515s-8.422-1.743-10.927-4.515c0.141 0.01-2.106-9.561-3.054-8.855z" fill="none" stroke="#000" stroke-width="4px"/>
    <path d="m2.019 16.13c0.41-9.363 7.449-13.13 13.981-13.13s13.571 3.767 13.981 13.13c-0.948-0.706-3.195 8.865-3.054 8.855-2.505 2.772-6.367 4.515-10.927 4.515s-8.422-1.743-10.927-4.515c0.141 0.01-2.106-9.561-3.054-8.855z" fill="#8cc31c"/>
    <path d="m26.927 24.985c-0.141 0.01-0.283 0.015-0.427 0.015-3.036 0-5.5-2.24-5.5-5s2.464-5 5.5-5c1.32 0 2.533 0.424 3.481 1.13 0.013 0.285 0.019 0.575 0.019 0.87 0 3.06-1.127 5.833-3.073 7.985z" fill="#6d9816"/>
    <path d="m5.073 24.985c-1.946-2.152-3.073-4.925-3.073-7.985-0-0.295 6e-3 -0.585 0.019-0.87 0.948-0.706 2.161-1.13 3.481-1.13 3.036-0 5.5 2.24 5.5 5s-2.464 5-5.5 5c-0.144-0-0.286-5e-3 -0.427-0.015z" fill="#6d9816"/>
    <path d="m9.941 8.232c-0.586 0.586-0.269 1.853 0.707 2.829 0.975 0.975 2.243 1.292 2.828 0.707 0.585-0.586 0.269-1.853-0.707-2.829-0.976-0.975-2.243-1.292-2.828-0.707z"/>
    <path d="m22.059 8.232c0.586 0.586 0.269 1.853-0.707 2.829-0.975 0.975-2.243 1.292-2.828 0.707-0.585-0.586-0.269-1.853 0.707-2.829 0.976-0.975 2.243-1.292 2.828-0.707z"/>
    <path d="m19 15.996s2e-3 -4e-3 6e-3 -0.01c1.196-1.793 3.39-2.641 5.481-2.119 0.312 0.078 0.513 0.129 0.513 0.129" fill="none" stroke="#000" stroke-width="2px"/>
    <path d="m13 16s-2e-3 -3e-3 -6e-3 -0.01c-1.196-1.793-3.39-2.641-5.481-2.118-0.312 0.078-0.513 0.128-0.513 0.128" fill="none" stroke="#000" stroke-width="2px"/>
    <path d="m10 22 1-2 3 1.5 2-1.5 2 1.5 3-1.5 1 2" fill="none" stroke="#32450a" stroke-width="2px"/>
</svg>
