<?xml version="1.0" encoding="UTF-8"?>
<!DOCTYPE svg  PUBLIC '-//W3C//DTD SVG 1.1//EN'  'http://www.w3.org/Graphics/SVG/1.1/DTD/svg11.dtd'>
<svg clip-rule="evenodd" fill-rule="evenodd" stroke-linecap="round" stroke-linejoin="round" stroke-miterlimit="1.5" version="1.1" viewBox="0 0 32 32" xml:space="preserve" xmlns="http://www.w3.org/2000/svg" xmlns:serif="http://www.serif.com/">
<metadata>
<rdf:RDF xmlns:cc="http://web.resource.org/cc/" xmlns:dc="http://purl.org/dc/elements/1.1/" xmlns:rdf="http://www.w3.org/1999/02/22-rdf-syntax-ns#">

     <rdf:Description rdf:about="">
       <dc:title>Mutant Standard emoji 2023.12</dc:title>
     </rdf:Description>

    <cc:work rdf:about="">
        <cc:license rdf:resource="http://creativecommons.org/licenses/by-nc-sa/4.0/"/>
        <cc:attributionName>Caius Nocturne</cc:attributionName>
        <cc:attributionURL>http://mutant.tech/</cc:attributionURL>
    </cc:work>

</rdf:RDF>
</metadata>

    <rect id="_1f913_nerd" width="32" height="32" fill="none" serif:id="1f913_nerd"/>
    <path d="m16 29.5c-8.1-0-14-5.5-14-12.5 0-8.873 7.64-14 14-14s14 5.127 14 14c0 7-5.9 12.5-14 12.5z" fill="none" stroke="#000" stroke-width="4px"/>
    <path d="m16 29.5c-8.1-0-14-5.5-14-12.5 0-8.873 7.64-14 14-14s14 5.127 14 14c0 7-5.9 12.5-14 12.5z" fill="#ffb636"/>
    <path d="m17.145 9.812c0.425-0.498 1.834-1.812 4.855-1.812h4c1.583-0 4.104 0.728 4.811 0.942 0.112 0.034 0.189 0.138 0.189 0.256v1.637c-0 0.103-0.06 0.197-0.153 0.241-0.472 0.235-1.862 1.054-1.862 2.418-0 1.643-0.38 2.433-1.13 3.354-1.479 1.819-7.345 2.17-9.379 0.353-1.823-1.629-1.107-5.201-2.476-5.201s-0.653 3.572-2.476 5.201c-2.034 1.817-7.9 1.466-9.379-0.353-0.75-0.921-1.13-1.711-1.13-3.354 0-1.364-1.39-2.183-1.862-2.418-0.093-0.044-0.153-0.138-0.153-0.241v-1.637c0-0.118 0.077-0.222 0.189-0.256 0.707-0.214 3.228-0.942 4.811-0.942h4c3.021-0 4.43 1.314 4.855 1.812 0.271-0.12 0.676-0.253 1.145-0.253s0.874 0.133 1.145 0.253z"/>
    
        <path d="m19.356 25.08c1.014-0.613 1.858-1.507 2.408-2.609l0.514-1.027c0.154-0.309 0.138-0.676-0.044-0.971-0.182-0.294-0.503-0.473-0.849-0.473h-2.385l-3.088 1-2.912-1h-2.385c-0.346 0-0.667 0.179-0.849 0.473-0.182 0.295-0.198 0.662-0.044 0.971l0.514 1.027c0.55 1.102 1.394 1.996 2.408 2.609 0.915-0.689 5.797-0.689 6.712 0z"/>
        <path d="m12.644 25.08c0.978 0.591 2.114 0.92 3.301 0.92h0.11c1.187 0 2.323-0.329 3.301-0.92-0.915-0.689-2.041-1.076-3.218-1.076h-0.276c-1.177 0-2.303 0.387-3.218 1.076z" fill="#c33700"/>
        <path d="m13 20v1c0 0.552 0.448 1 1 1h4c0.552 0 1-0.448 1-1v-1h-6z" fill="#fff"/>
    
    <path d="m4.913 10.052c0.751-0.707 2.679-1.052 5.087-1.052 1.785-0 3.427 0.813 3.869 1.843 0.429 1.001 0.377 4.072-1.105 5.482-1.279 1.217-6.398 1.226-7.639-0.454-1.22-1.652-1.096-4.985-0.212-5.819zm22.174-0c0.884 0.834 1.008 4.167-0.212 5.819-1.241 1.68-6.36 1.671-7.639 0.454-1.482-1.41-1.534-4.481-1.105-5.482 0.442-1.03 2.084-1.843 3.869-1.843 2.408-0 4.336 0.345 5.087 1.052z" fill="#fff"/>
    <path d="m11 10.5c1.104-0 2 1.232 2 2.75s-0.896 2.75-2 2.75-2-1.232-2-2.75 0.896-2.75 2-2.75zm10-0c1.104-0 2 1.232 2 2.75s-0.896 2.75-2 2.75-2-1.232-2-2.75 0.896-2.75 2-2.75z"/>
    <path d="m2.5 10h0.5" fill="none" stroke="#bdbdbd" stroke-width="1px"/>
    <path d="m29 10h0.5" fill="none" stroke="#bdbdbd" stroke-width="1px"/>
</svg>
