<?xml version="1.0" encoding="UTF-8"?>
<!DOCTYPE svg  PUBLIC '-//W3C//DTD SVG 1.1//EN'  'http://www.w3.org/Graphics/SVG/1.1/DTD/svg11.dtd'>
<svg clip-rule="evenodd" fill-rule="evenodd" stroke-linejoin="round" stroke-miterlimit="2" version="1.1" viewBox="0 0 32 32" xml:space="preserve" xmlns="http://www.w3.org/2000/svg" xmlns:serif="http://www.serif.com/">
<metadata>
<rdf:RDF xmlns:cc="http://web.resource.org/cc/" xmlns:dc="http://purl.org/dc/elements/1.1/" xmlns:rdf="http://www.w3.org/1999/02/22-rdf-syntax-ns#">

     <rdf:Description rdf:about="">
       <dc:title>Mutant Standard emoji 2023.12</dc:title>
     </rdf:Description>

    <cc:work rdf:about="">
        <cc:license rdf:resource="http://creativecommons.org/licenses/by-nc-sa/4.0/"/>
        <cc:attributionName>Caius Nocturne</cc:attributionName>
        <cc:attributionURL>http://mutant.tech/</cc:attributionURL>
    </cc:work>

</rdf:RDF>
</metadata>

    <rect id="_1fae5_outline_face" width="32" height="32" fill="none" serif:id="1fae5_outline_face"/>
    <clipPath id="_clip1">
        <rect width="32" height="32"/>
    </clipPath>
    <g clip-path="url(#_clip1)">
        <path d="m16 31.5c-9.319 0-16-6.447-16-14.5 0-10.14 8.732-16 16-16s16 5.86 16 16c0 8.053-6.681 14.5-16 14.5z"/>
        <path d="m14.298 29.417c-0.549-0.055-0.951-0.545-0.897-1.094 0.055-0.55 0.545-0.951 1.094-0.897 0.491 0.049 0.993 0.074 1.505 0.074s1.014-0.025 1.505-0.074c0.549-0.054 1.039 0.347 1.094 0.897 0.054 0.549-0.348 1.039-0.897 1.094-0.555 0.055-1.123 0.083-1.702 0.083s-1.147-0.028-1.702-0.083zm7.565-0.988c-0.514 0.201-1.095-0.053-1.296-0.566-0.202-0.514 0.052-1.095 0.566-1.296 0.945-0.371 1.817-0.844 2.599-1.406 0.449-0.322 1.074-0.219 1.396 0.229 0.322 0.449 0.219 1.074-0.229 1.396-0.914 0.656-1.932 1.21-3.036 1.643zm6.079-4.739c-0.311 0.456-0.934 0.573-1.39 0.261-0.455-0.311-0.572-0.934-0.26-1.39 0.547-0.8 0.975-1.677 1.266-2.611 0.164-0.528 0.724-0.822 1.252-0.659 0.527 0.164 0.822 0.725 0.658 1.252-0.35 1.126-0.866 2.183-1.526 3.147zm2.038-7.461c0.029 0.552-0.396 1.022-0.947 1.05s-1.022-0.396-1.05-0.947c-0.053-1.036-0.229-2.008-0.507-2.913-0.163-0.528 0.134-1.088 0.661-1.25 0.528-0.163 1.088 0.134 1.25 0.661 0.325 1.057 0.532 2.191 0.593 3.399zm-2.517-7.268c0.322 0.448 0.22 1.074-0.228 1.396-0.448 0.323-1.073 0.221-1.396-0.227-0.586-0.814-1.267-1.538-2.013-2.166-0.423-0.355-0.477-0.987-0.121-1.409 0.355-0.422 0.986-0.476 1.409-0.121 0.87 0.733 1.665 1.577 2.349 2.527zm-5.998-4.783c0.506 0.22 0.739 0.809 0.519 1.315-0.22 0.507-0.809 0.739-1.316 0.52-0.929-0.404-1.888-0.69-2.839-0.853-0.544-0.094-0.91-0.611-0.817-1.155s0.611-0.91 1.155-0.817c1.105 0.19 2.219 0.522 3.298 0.99zm-7.632-0.99c0.544-0.093 1.062 0.273 1.155 0.817s-0.273 1.061-0.817 1.155c-0.951 0.163-1.91 0.449-2.839 0.853-0.507 0.219-1.096-0.013-1.316-0.52-0.22-0.506 0.013-1.095 0.519-1.315 1.079-0.468 2.193-0.8 3.298-0.99zm-6.947 3.246c0.423-0.355 1.054-0.301 1.409 0.121 0.356 0.422 0.302 1.054-0.121 1.409-0.746 0.628-1.427 1.352-2.013 2.166-0.323 0.448-0.948 0.55-1.396 0.227-0.448-0.322-0.55-0.948-0.228-1.396 0.684-0.95 1.479-1.794 2.349-2.527zm-4.273 6.396c0.162-0.527 0.722-0.824 1.25-0.661 0.527 0.162 0.824 0.722 0.661 1.25-0.278 0.905-0.454 1.877-0.507 2.913-0.028 0.551-0.499 0.975-1.05 0.947s-0.976-0.498-0.947-1.05c0.061-1.208 0.268-2.342 0.593-3.399zm-0.081 7.713c-0.164-0.527 0.131-1.088 0.658-1.252 0.528-0.163 1.088 0.131 1.252 0.659 0.291 0.934 0.719 1.811 1.266 2.611 0.312 0.456 0.195 1.079-0.26 1.39-0.456 0.312-1.079 0.195-1.39-0.261-0.66-0.964-1.176-2.021-1.526-3.147zm4.569 6.243c-0.448-0.322-0.551-0.947-0.229-1.396 0.322-0.448 0.947-0.551 1.396-0.229 0.782 0.562 1.654 1.035 2.599 1.406 0.514 0.201 0.768 0.782 0.566 1.296-0.201 0.513-0.782 0.767-1.296 0.566-1.104-0.433-2.122-0.987-3.036-1.643zm14.399-15.786c1.38-0 2.5 1.568 2.5 3.5s-1.12 3.5-2.5 3.5-2.5-1.568-2.5-3.5 1.12-3.5 2.5-3.5zm-11-0c1.38-0 2.5 1.568 2.5 3.5s-1.12 3.5-2.5 3.5-2.5-1.568-2.5-3.5 1.12-3.5 2.5-3.5z" fill="#ffb636"/>
    </g>
</svg>
