<?xml version="1.0" encoding="UTF-8"?>
<!DOCTYPE svg  PUBLIC '-//W3C//DTD SVG 1.1//EN'  'http://www.w3.org/Graphics/SVG/1.1/DTD/svg11.dtd'>
<svg clip-rule="evenodd" fill-rule="evenodd" stroke-linecap="round" stroke-linejoin="round" stroke-miterlimit="1.5" version="1.1" viewBox="0 0 32 32" xml:space="preserve" xmlns="http://www.w3.org/2000/svg" xmlns:serif="http://www.serif.com/">
<metadata>
<rdf:RDF xmlns:cc="http://web.resource.org/cc/" xmlns:dc="http://purl.org/dc/elements/1.1/" xmlns:rdf="http://www.w3.org/1999/02/22-rdf-syntax-ns#">

     <rdf:Description rdf:about="">
       <dc:title>Mutant Standard emoji 2023.12</dc:title>
     </rdf:Description>

    <cc:work rdf:about="">
        <cc:license rdf:resource="http://creativecommons.org/licenses/by-nc-sa/4.0/"/>
        <cc:attributionName>Caius Nocturne</cc:attributionName>
        <cc:attributionURL>http://mutant.tech/</cc:attributionURL>
    </cc:work>

</rdf:RDF>
</metadata>

    <rect id="_1f693_party_face" width="32" height="32" fill="none" serif:id="1f693_party_face"/>
    <clipPath id="_clip1">
        <rect width="32" height="32"/>
    </clipPath>
    <g clip-path="url(#_clip1)">
        <g id="outline" stroke="#000">
            <path d="m13.513 5.775c0.063-0.203 0.039-0.423-0.065-0.608s-0.28-0.319-0.485-0.371c-2.707-0.703-10.963-2.796-10.963-2.796s0.738 8.114 0.946 10.405c0.03 0.337 0.272 0.618 0.602 0.698 0.846-4e-3 2.647-0.295 5.422-2.425 2.885-2.214 4.069-3.958 4.543-4.903z" fill="none" stroke-width="4px"/>
            <path d="m15.25 30c-7.521-0-13-5.292-13-12.028-0-8.538 7.095-13.472 13-13.472s13 4.934 13 13.472c-0 6.736-5.479 12.028-13 12.028z" fill="none" stroke-width="4px"/>
            <path id="aaa" d="m16 22.5h8c3.776 0 5-2.295 5-4.248 0-1.235-0.817-3.294-3-3.294-1.924 0-3.049 1.404-3.093 2.623-0.032 0.916 0.562 1.947 1.622 1.947 0.589 0 1.471-0.421 1.471-1.567" fill="none" stroke-width="6px"/>
            <path d="m24.426 3.583c1.841-2.086 7.585 1.941 5.525 4-2.059 2.059-7.503-1.759-5.525-4z" fill="#ff9a4c" stroke-width="4px"/>
            <path d="m0.017 16.775c0.309-2.765 5.28-2.798 4.777 0.071-0.504 2.868-5.109 2.899-4.777-0.071z" fill="#f2484a" stroke-width="4px"/>
            <path d="m22.042 26.741c1.621-2.261 7.742 1.165 5.901 3.422s-7.643-0.993-5.901-3.422z" fill="#982eee" stroke-width="4px"/>
            <path d="m8.643 25.16c0.274 2.041-6.495 3.61-6.642 1.556-0.104-1.454 6.368-3.597 6.642-1.556z" fill="#f248db" stroke-width="4px"/>
            <path d="m19.687-2.645c1.496 1.415-2.782 6.891-4.187 5.386-0.995-1.066 2.69-6.801 4.187-5.386z" fill="#d8fdeb" stroke-width="4px"/>
        </g>
        <path d="m2.188 4.07c-0.065-0.553 1.197-1.658 2.043-1.504 0.526 0.133 1.116 0.283 1.738 0.441-0.756 0.633-3.198 2.376-3.64 2.617l-0.141-1.554zm0.375 4.126c0.307-1.099 0.629-2.446 1.437-3.196 0.954-0.885 2.711-1.257 4.149-1.44 0.827 0.21 1.647 0.418 2.397 0.608-2.375 0.184-7.328 4.687-7.769 6.38l-0.214-2.352z" fill="#f47da8"/>
        <path d="m8.149 3.56c-1.508 0.409-2.712 1.091-3.666 1.976-0.808 0.749-1.439 1.648-1.92 2.66l-0.234-2.572c0.285-0.537 0.654-1.002 1.119-1.394 0.653-0.551 1.486-0.956 2.521-1.223 0.701 0.177 1.443 0.366 2.18 0.553zm-5.372 6.988c0.441-1.693 1.19-3.17 2.386-4.279 1.259-1.168 3.008-1.917 5.383-2.101 0.847 0.216 1.602 0.408 2.174 0.553 0.25 0.064 0.454 0.247 0.544 0.489 0.09 0.243 0.056 0.514-0.093 0.726-0.839 1.157-2.44 3.161-4.47 4.731-2.728 2.111-4.394 2.425-5.181 2.441-0.316-0.089-0.544-0.364-0.573-0.691l-0.17-1.869zm1.454-7.982c-0.542 0.252-1.016 0.552-1.428 0.9-0.222 0.187-0.427 0.389-0.615 0.604l-0.188-2.07s0.913 0.231 2.231 0.566z" fill="#982eee"/>
        <path d="m15.25 30c-7.521-0-13-5.292-13-12.028-0-8.538 7.095-13.472 13-13.472s13 4.934 13 13.472c-0 6.736-5.479 12.028-13 12.028z" fill="#ffb636"/>
        <g id="face">
            <circle cx="25.924" cy="18.264" r="2.984" fill="#ffb636"/>
            <path d="m7.543 9.085c0.215 0.8 1.471 1.159 2.804 0.802 1.332-0.357 2.24-1.296 2.026-2.096s-1.47-1.159-2.803-0.802-2.241 1.296-2.027 2.096z"/>
            <path d="m22.957 9.085c-0.215 0.8-1.471 1.159-2.804 0.802-1.332-0.357-2.24-1.296-2.026-2.096s1.47-1.159 2.803-0.802 2.241 1.296 2.027 2.096z"/>
            <path d="m12.25 16.25-0.137-0.274c-0.625-1.25-1.843-2.094-3.232-2.242-1.389-0.147-2.758 0.424-3.63 1.515l-1e-3 1e-3" fill="none" stroke="#000" stroke-width="2px"/>
            <path d="m18.25 16.25 0.137-0.274c0.625-1.25 1.843-2.094 3.232-2.242 1.389-0.147 2.758 0.424 3.63 1.515l1e-3 1e-3" fill="none" stroke="#000" stroke-width="2px"/>
            <rect x="24" y="15" width="4" height="2" fill="#ffb636"/>
            <path id="aaa1" d="m16 22.5h8c3.776 0 5-2.295 5-4.248 0-1.235-0.817-3.294-3-3.294-1.924 0-3.049 1.404-3.093 2.623-0.032 0.916 0.562 1.947 1.622 1.947 0.589 0 1.471-0.421 1.471-1.567" fill="none" stroke="#00a5fa" stroke-width="2px" serif:id="aaa"/>
            <rect x="16" y="21" width="3" height="3" fill="#0071ab"/>
            <path d="m14.25 25.25s0.596-0.149 1.137-0.284c0.507-0.127 0.863-0.583 0.863-1.105v-0.222c-0-0.522-0.356-0.978-0.863-1.105-0.541-0.135-1.137-0.284-1.137-0.284s0.596-0.149 1.137-0.284c0.507-0.127 0.863-0.583 0.863-1.105v-0.222c-0-0.522-0.356-0.978-0.863-1.105-0.541-0.135-1.137-0.284-1.137-0.284" fill="none" stroke="#694300" stroke-width="2px"/>
        </g>
        <g id="confetti">
            <path d="m24.426 3.583c1.841-2.086 7.585 1.941 5.525 4-2.059 2.059-7.503-1.759-5.525-4z" fill="#ff9a4c"/>
            <path d="m0.017 16.775c0.309-2.765 5.28-2.798 4.777 0.071-0.504 2.868-5.109 2.899-4.777-0.071z" fill="#4cb5ff"/>
            <path d="m22.042 26.741c1.621-2.261 7.742 1.165 5.901 3.422s-7.643-0.993-5.901-3.422z" fill="#ae68f7"/>
            <path d="m8.643 25.16c0.274 2.041-6.495 3.61-6.642 1.556-0.104-1.454 6.368-3.597 6.642-1.556z" fill="#f248db"/>
            <path d="m19.687-2.645c1.496 1.415-2.782 6.891-4.187 5.386-0.995-1.066 2.69-6.801 4.187-5.386z" fill="#704ef6"/>
        </g>
    </g>
</svg>
