<?xml version="1.0" encoding="UTF-8"?>
<!DOCTYPE svg  PUBLIC '-//W3C//DTD SVG 1.1//EN'  'http://www.w3.org/Graphics/SVG/1.1/DTD/svg11.dtd'>
<svg clip-rule="evenodd" fill-rule="evenodd" stroke-linecap="round" stroke-linejoin="round" stroke-miterlimit="1.5" version="1.1" viewBox="0 0 32 32" xml:space="preserve" xmlns="http://www.w3.org/2000/svg" xmlns:serif="http://www.serif.com/">
<metadata>
<rdf:RDF xmlns:cc="http://web.resource.org/cc/" xmlns:dc="http://purl.org/dc/elements/1.1/" xmlns:rdf="http://www.w3.org/1999/02/22-rdf-syntax-ns#">

     <rdf:Description rdf:about="">
       <dc:title>Mutant Standard emoji 2023.12</dc:title>
     </rdf:Description>

    <cc:work rdf:about="">
        <cc:license rdf:resource="http://creativecommons.org/licenses/by-nc-sa/4.0/"/>
        <cc:attributionName>Caius Nocturne</cc:attributionName>
        <cc:attributionURL>http://mutant.tech/</cc:attributionURL>
    </cc:work>

</rdf:RDF>
</metadata>

    <rect id="_1f614_pensive" width="32" height="32" fill="none" serif:id="1f614_pensive"/>
    <clipPath id="_clip1">
        <rect width="32" height="32"/>
    </clipPath>
    <g clip-path="url(#_clip1)">
        <path d="m16 30c-8.1 0-14-4.492-14-11.328 0-3.529 1.356-6.814 4.111-9.6 2.683-2.713 6.618-4.072 9.889-4.072s7.206 1.359 9.889 4.072c2.755 2.786 4.111 6.071 4.111 9.6 0 6.836-5.9 11.328-14 11.328z" fill="none" stroke="#000" stroke-width="4px"/>
        <path d="m16 30c-8.1 0-14-4.492-14-11.328 0-3.529 1.356-6.814 4.111-9.6 2.683-2.713 6.618-4.072 9.889-4.072s7.206 1.359 9.889 4.072c2.755 2.786 4.111 6.071 4.111 9.6 0 6.836-5.9 11.328-14 11.328z" fill="#ffb636"/>
        <path d="m8.543 15.448c0.414 0.717 1.72 0.739 2.915 0.049s1.829-1.832 1.415-2.549-1.72-0.739-2.915-0.049c-1.195 0.689-1.829 1.832-1.415 2.549z"/>
        <path d="m23.457 15.448c-0.414 0.717-1.72 0.739-2.915 0.049s-1.829-1.832-1.415-2.549 1.72-0.739 2.915-0.049c1.195 0.689 1.829 1.832 1.415 2.549z"/>
        <path d="m19 18s0.178 0.237 0.446 0.595c1.479 1.972 4.156 2.604 6.361 1.502 0.122-0.062 0.193-0.097 0.193-0.097" fill="none" stroke="#000" stroke-width="2px"/>
        <path d="m13 18s-0.178 0.237-0.446 0.595c-1.479 1.972-4.156 2.604-6.361 1.502-0.122-0.062-0.193-0.097-0.193-0.097" fill="none" stroke="#000" stroke-width="2px"/>
        <path d="m12 25.004s1.669-1.5 3.969-1.5 4.031 1.498 4.031 1.498" fill="none" stroke="#694300" stroke-width="2px"/>
    </g>
</svg>
