<?xml version="1.0" encoding="UTF-8"?>
<!DOCTYPE svg  PUBLIC '-//W3C//DTD SVG 1.1//EN'  'http://www.w3.org/Graphics/SVG/1.1/DTD/svg11.dtd'>
<svg clip-rule="evenodd" fill-rule="evenodd" stroke-linecap="round" stroke-linejoin="round" stroke-miterlimit="1.5" version="1.1" viewBox="0 0 32 32" xml:space="preserve" xmlns="http://www.w3.org/2000/svg" xmlns:serif="http://www.serif.com/">
<metadata>
<rdf:RDF xmlns:cc="http://web.resource.org/cc/" xmlns:dc="http://purl.org/dc/elements/1.1/" xmlns:rdf="http://www.w3.org/1999/02/22-rdf-syntax-ns#">

     <rdf:Description rdf:about="">
       <dc:title>Mutant Standard emoji 2023.12</dc:title>
     </rdf:Description>

    <cc:work rdf:about="">
        <cc:license rdf:resource="http://creativecommons.org/licenses/by-nc-sa/4.0/"/>
        <cc:attributionName>Caius Nocturne</cc:attributionName>
        <cc:attributionURL>http://mutant.tech/</cc:attributionURL>
    </cc:work>

</rdf:RDF>
</metadata>

    <rect id="_1f623_persevering" width="32" height="32" fill="none" serif:id="1f623_persevering"/>
    <clipPath id="_clip1">
        <rect width="32" height="32"/>
    </clipPath>
    <g clip-path="url(#_clip1)">
        <path d="m16 30c-8.1 0-14-4.492-14-11.328 0-3.529 1.356-6.814 4.111-9.6 2.683-2.713 6.618-4.072 9.889-4.072s7.206 1.359 9.889 4.072c2.755 2.786 4.111 6.071 4.111 9.6 0 6.836-5.9 11.328-14 11.328z" fill="none" stroke="#000" stroke-width="4px"/>
        <path d="m16 30c-8.1 0-14-4.492-14-11.328 0-3.529 1.356-6.814 4.111-9.6 2.683-2.713 6.618-4.072 9.889-4.072s7.206 1.359 9.889 4.072c2.755 2.786 4.111 6.071 4.111 9.6 0 6.836-5.9 11.328-14 11.328z" fill="#ffb636"/>
        <path d="m9.941 12.732c-0.586 0.586-0.269 1.853 0.707 2.829 0.975 0.975 2.243 1.292 2.828 0.707 0.585-0.586 0.269-1.853-0.707-2.829-0.976-0.975-2.243-1.292-2.828-0.707z"/>
        <path d="m22.059 12.732c0.586 0.586 0.269 1.853-0.707 2.829-0.975 0.975-2.243 1.292-2.828 0.707-0.585-0.586-0.269-1.853 0.707-2.829 0.976-0.975 2.243-1.292 2.828-0.707z"/>
        <path d="m19 19.996s0.205-0.205 0.507-0.508c1.45-1.449 3.721-1.674 5.426-0.537 0.043 0.029 0.067 0.045 0.067 0.045" fill="none" stroke="#000" stroke-width="2px"/>
        <path d="m13 20-0.507-0.507c-1.45-1.45-3.721-1.675-5.426-0.538-0.043 0.029-0.067 0.045-0.067 0.045" fill="none" stroke="#000" stroke-width="2px"/>
        <path d="m12.061 26.004c0.688-1.573 2.241-2.591 3.958-2.596s3.275 1.004 3.973 2.573c5e-3 0.013 8e-3 0.019 8e-3 0.019" fill="none" stroke="#694300" stroke-width="2px"/>
    </g>
</svg>
