<?xml version="1.0" encoding="UTF-8"?>
<!DOCTYPE svg  PUBLIC '-//W3C//DTD SVG 1.1//EN'  'http://www.w3.org/Graphics/SVG/1.1/DTD/svg11.dtd'>
<svg clip-rule="evenodd" fill-rule="evenodd" stroke-linecap="round" stroke-linejoin="round" stroke-miterlimit="1.5" version="1.1" viewBox="0 0 32 32" xml:space="preserve" xmlns="http://www.w3.org/2000/svg" xmlns:serif="http://www.serif.com/">
<metadata>
<rdf:RDF xmlns:cc="http://web.resource.org/cc/" xmlns:dc="http://purl.org/dc/elements/1.1/" xmlns:rdf="http://www.w3.org/1999/02/22-rdf-syntax-ns#">

     <rdf:Description rdf:about="">
       <dc:title>Mutant Standard emoji 2023.12</dc:title>
     </rdf:Description>

    <cc:work rdf:about="">
        <cc:license rdf:resource="http://creativecommons.org/licenses/by-nc-sa/4.0/"/>
        <cc:attributionName>Caius Nocturne</cc:attributionName>
        <cc:attributionURL>http://mutant.tech/</cc:attributionURL>
    </cc:work>

</rdf:RDF>
</metadata>

    <rect id="_1f97a_pleading" width="32" height="32" fill="none" serif:id="1f97a_pleading"/>
    <clipPath id="_clip1">
        <rect width="32" height="32"/>
    </clipPath>
    <g clip-path="url(#_clip1)">
        <path d="m16 29.5c-8.1-0-14-4.5-14-11.5 0-10 8-14 14-14s14 4 14 14c-0 7-5.9 11.5-14 11.5z" fill="none" stroke="#000" stroke-width="4px"/>
        <path d="m16 29.5c-8.1-0-14-4.5-14-11.5 0-10 8-14 14-14s14 4 14 14c-0 7-5.9 11.5-14 11.5z" fill="#ffb636"/>
        <path d="m8.543 9.052c0.414 0.717 1.72 0.739 2.915 0.049 1.195-0.689 1.829-1.832 1.415-2.549s-1.72-0.739-2.915-0.049-1.829 1.832-1.415 2.549z"/>
        <path d="m23.457 9.052c-0.414 0.717-1.72 0.739-2.915 0.049-1.195-0.689-1.829-1.832-1.415-2.549s1.72-0.739 2.915-0.049 1.829 1.832 1.415 2.549z"/>
        <path d="m12 24s0-1e-3 1e-3 -2e-3c0.82-1.435 2.346-2.32 3.999-2.32s3.179 0.885 3.999 2.32c1e-3 1e-3 1e-3 2e-3 1e-3 2e-3" fill="none" stroke="#694300" stroke-width="2px"/>
        <circle cx="22.5" cy="15.5" r="5.5" fill="#fff"/>
        <circle cx="9.5" cy="15.5" r="5.5" fill="#fff"/>
        <circle cx="22" cy="15" r="4"/>
        <circle cx="10" cy="15" r="4"/>
    </g>
</svg>
