<?xml version="1.0" encoding="UTF-8"?>
<!DOCTYPE svg  PUBLIC '-//W3C//DTD SVG 1.1//EN'  'http://www.w3.org/Graphics/SVG/1.1/DTD/svg11.dtd'>
<svg clip-rule="evenodd" fill-rule="evenodd" stroke-linecap="round" stroke-linejoin="round" stroke-miterlimit="1.5" version="1.1" viewBox="0 0 32 32" xml:space="preserve" xmlns="http://www.w3.org/2000/svg" xmlns:serif="http://www.serif.com/">
<metadata>
<rdf:RDF xmlns:cc="http://web.resource.org/cc/" xmlns:dc="http://purl.org/dc/elements/1.1/" xmlns:rdf="http://www.w3.org/1999/02/22-rdf-syntax-ns#">

     <rdf:Description rdf:about="">
       <dc:title>Mutant Standard emoji 2023.12</dc:title>
     </rdf:Description>

    <cc:work rdf:about="">
        <cc:license rdf:resource="http://creativecommons.org/licenses/by-nc-sa/4.0/"/>
        <cc:attributionName>Caius Nocturne</cc:attributionName>
        <cc:attributionURL>http://mutant.tech/</cc:attributionURL>
    </cc:work>

</rdf:RDF>
</metadata>

    <rect id="_1f4a9_poop" width="32" height="32" fill="none" serif:id="1f4a9_poop"/>
    <path d="m23.548 11.572c2.618 0.882 4.192 2.531 4.452 5.428 0.141 1.568-0.052 2.848-1.034 3.817 1.622 0.918 2.794 2.063 2.972 3.434 0.512 3.946-2.865 5.749-13.938 5.749s-14.45-1.803-13.938-5.749c0.178-1.371 1.35-2.516 2.972-3.434-0.982-0.969-1.175-2.249-1.034-3.817 0.261-2.91 1.848-4.561 4.488-5.439-0.879-1.308-0.909-2.836-0.454-4.086 1.181-3.25 6.944-4.475 6.944-4.475s-1.254 1.471-0.644 2.744c0.927 1.933 5.606 0.264 8.227 2.595 1.083 0.964 1.43 2.192 0.987 3.233z" fill="none" stroke="#000" stroke-width="4px"/>
    <path d="m23.548 11.572c2.618 0.882 4.192 2.531 4.452 5.428 0.141 1.568-0.052 2.848-1.034 3.817 1.622 0.918 2.794 2.063 2.972 3.434 0.512 3.946-2.865 5.749-13.938 5.749s-14.45-1.803-13.938-5.749c0.178-1.371 1.35-2.516 2.972-3.434-0.982-0.969-1.175-2.249-1.034-3.817 0.261-2.91 1.848-4.561 4.488-5.439-0.879-1.308-0.909-2.836-0.454-4.086 1.181-3.25 6.944-4.475 6.944-4.475s-1.254 1.471-0.644 2.744c0.927 1.933 5.606 0.264 8.227 2.595 1.083 0.964 1.43 2.192 0.987 3.233z" fill="#a77235"/>
    <circle cx="21.5" cy="16.5" r="4.5" fill="#fff"/>
    <circle cx="21" cy="16.5" r="2.5"/>
    <circle cx="10.5" cy="16.5" r="4.5" fill="#fff"/>
    <circle cx="11" cy="16.5" r="2.5"/>
    <path d="m20.074 26.727c1.128-0.811 2.007-1.969 2.468-3.352l0.02-0.061c0.102-0.305 0.051-0.639-0.137-0.9-0.188-0.26-0.489-0.414-0.81-0.414h-11.23c-0.321-0-0.622 0.154-0.81 0.414-0.188 0.261-0.239 0.595-0.137 0.9l0.02 0.061c0.461 1.383 1.34 2.541 2.468 3.352 1.004-1.091 7.144-1.091 8.148 0z"/>
    <path d="m11.926 26.727c1.124 0.809 2.496 1.273 3.949 1.273h0.25c1.453-0 2.825-0.464 3.949-1.273-1.004-1.091-2.428-1.727-3.936-1.727h-0.276c-1.508 0-2.932 0.636-3.936 1.727z" fill="#c33700"/>
</svg>
