<?xml version="1.0" encoding="UTF-8"?>
<!DOCTYPE svg  PUBLIC '-//W3C//DTD SVG 1.1//EN'  'http://www.w3.org/Graphics/SVG/1.1/DTD/svg11.dtd'>
<svg clip-rule="evenodd" fill-rule="evenodd" stroke-linecap="round" stroke-linejoin="round" stroke-miterlimit="1.5" version="1.1" viewBox="0 0 32 32" xml:space="preserve" xmlns="http://www.w3.org/2000/svg" xmlns:serif="http://www.serif.com/">
<metadata>
<rdf:RDF xmlns:cc="http://web.resource.org/cc/" xmlns:dc="http://purl.org/dc/elements/1.1/" xmlns:rdf="http://www.w3.org/1999/02/22-rdf-syntax-ns#">

     <rdf:Description rdf:about="">
       <dc:title>Mutant Standard emoji 2023.12</dc:title>
     </rdf:Description>

    <cc:work rdf:about="">
        <cc:license rdf:resource="http://creativecommons.org/licenses/by-nc-sa/4.0/"/>
        <cc:attributionName>Caius Nocturne</cc:attributionName>
        <cc:attributionURL>http://mutant.tech/</cc:attributionURL>
    </cc:work>

</rdf:RDF>
</metadata>

    <rect id="_1f923_rofl" width="32" height="32" fill="none" serif:id="1f923_rofl"/>
    <clipPath id="_clip1">
        <rect width="32" height="32"/>
    </clipPath>
    <g clip-path="url(#_clip1)">
        <path d="m22.082 11.582s3.095-1.827 4.863-1.565c1.662 0.246 2.486 1.51 2.286 2.951-0.195 1.411-2.264 2.05-3.477 1.576-1.482-0.579-3.672-2.962-3.672-2.962z" fill="none" stroke="#000" stroke-width="4px"/>
        <path d="m6.588 20.744s-3.092 1.83-3.715 3.506c-0.585 1.575 0.125 2.906 1.484 3.426 1.33 0.508 2.887-0.996 3.057-2.288 0.207-1.577-0.826-4.644-0.826-4.644z" fill="none" stroke="#000" stroke-width="4px"/>
        <path d="m15.301 30c-6.716-0-13-5.396-13-12.264-0-7.93 4.743-11.578 9.261-12.891 7.022-2.041 16.739 3.08 16.739 12.891-0 6.868-6.132 12.264-13 12.264z" fill="none" stroke="#000" stroke-width="4px"/>
        <path d="m15.301 30c-6.716-0-13-5.396-13-12.264-0-7.93 4.743-11.578 9.261-12.891 7.022-2.041 16.739 3.08 16.739 12.891-0 6.868-6.132 12.264-13 12.264z" fill="#ffb636"/>
        <path d="m22.209 20.895c1.803-2.653 1.697-5.547 1.494-6.964-0.079-0.494-0.513-0.852-1.013-0.836-1.398 0.158-4.441 0.754-8.355 3.068s-5.902 4.693-6.709 5.845c-0.254 0.428-0.151 0.978 0.241 1.285 1.143 0.862 3.626 2.351 6.82 2.049 0.205-1.635 5.99-5.056 7.522-4.447z"/>
        <path d="m22.209 20.895c-1.532-0.609-3.268-0.48-4.699 0.366l-0.237 0.14c-1.431 0.847-2.381 2.306-2.586 3.941 1.305-0.123 2.729-0.545 4.229-1.432 1.499-0.886 2.556-1.931 3.293-3.015z" fill="#c33700"/>
        <path d="m10.226 15.108c-2.116-0.699-4.923 1.817-4.658 3.911" fill="none" stroke="#000" stroke-width="2px"/>
        <path d="m15.391 12.054c0.407-2.191 3.964-3.438 5.671-2.197" fill="none" stroke="#000" stroke-width="2px"/>
        <path d="m3.511 12.998c0.222 0.797 1.482 1.143 2.811 0.772s2.227-1.319 2.005-2.117c-0.223-0.797-1.483-1.143-2.812-0.772s-2.227 1.319-2.004 2.117z"/>
        <path d="m16.778 5.153c0.591 0.579 0.288 1.85-0.678 2.836-0.965 0.985-2.229 1.315-2.821 0.736-0.591-0.579-0.287-1.85 0.678-2.836 0.966-0.985 2.23-1.315 2.821-0.736z"/>
        <path d="m22.082 11.582s3.095-1.827 4.863-1.565c1.662 0.246 2.486 1.51 2.286 2.951-0.195 1.411-2.264 2.05-3.477 1.576-1.482-0.579-3.672-2.962-3.672-2.962z" fill="#3fa7ff"/>
        <path d="m6.588 20.744s-3.092 1.83-3.715 3.506c-0.585 1.575 0.125 2.906 1.484 3.426 1.33 0.508 2.887-0.996 3.057-2.288 0.207-1.577-0.826-4.644-0.826-4.644z" fill="#3fa7ff"/>
    </g>
</svg>
