<?xml version="1.0" encoding="UTF-8"?>
<!DOCTYPE svg  PUBLIC '-//W3C//DTD SVG 1.1//EN'  'http://www.w3.org/Graphics/SVG/1.1/DTD/svg11.dtd'>
<svg clip-rule="evenodd" fill-rule="evenodd" stroke-linecap="round" stroke-linejoin="round" stroke-miterlimit="1.5" version="1.1" viewBox="0 0 32 32" xml:space="preserve" xmlns="http://www.w3.org/2000/svg" xmlns:serif="http://www.serif.com/">
<metadata>
<rdf:RDF xmlns:cc="http://web.resource.org/cc/" xmlns:dc="http://purl.org/dc/elements/1.1/" xmlns:rdf="http://www.w3.org/1999/02/22-rdf-syntax-ns#">

     <rdf:Description rdf:about="">
       <dc:title>Mutant Standard emoji 2023.12</dc:title>
     </rdf:Description>

    <cc:work rdf:about="">
        <cc:license rdf:resource="http://creativecommons.org/licenses/by-nc-sa/4.0/"/>
        <cc:attributionName>Caius Nocturne</cc:attributionName>
        <cc:attributionURL>http://mutant.tech/</cc:attributionURL>
    </cc:work>

</rdf:RDF>
</metadata>

    <rect id="_1f644_rolling_eyes" width="32" height="32" fill="none" serif:id="1f644_rolling_eyes"/>
    <clipPath id="_clip1">
        <rect width="32" height="32"/>
    </clipPath>
    <g clip-path="url(#_clip1)">
        <path d="m16 29.5c-8.1 0-14-4.764-14-11.5 0-8.538 7.13-14 14-14s14 5.462 14 14c0 6.736-5.9 11.5-14 11.5z" fill="none" stroke="#000" stroke-width="4px"/>
        <path d="m16 29.5c-8.1 0-14-4.764-14-11.5 0-8.538 7.13-14 14-14s14 5.462 14 14c0 6.736-5.9 11.5-14 11.5z" fill="#ffb636"/>
        <path d="m8.02 7.344c0.215-0.799 1.471-1.159 2.804-0.801 1.332 0.357 2.24 1.296 2.026 2.096-0.214 0.799-1.47 1.158-2.803 0.801s-2.241-1.296-2.027-2.096zm15.96 0c0.214 0.8-0.694 1.739-2.027 2.096s-2.589-2e-3 -2.803-0.801c-0.214-0.8 0.694-1.739 2.026-2.096 1.333-0.358 2.589 2e-3 2.804 0.801z"/>
        <path d="m26.847 14.706c0.1 0.413 0.153 0.846 0.153 1.294 0 2.76-2.016 5-4.5 5s-4.5-2.24-4.5-5 2.016-5 4.5-5c0.082 0 0.164 2e-3 0.246 7e-3 -0.461 0.635 3.75 5.037 4.101 3.699z" fill="#fff"/>
        <path d="m13.847 14.706c0.1 0.413 0.153 0.846 0.153 1.294 0 2.76-2.016 5-4.5 5s-4.5-2.24-4.5-5 2.016-5 4.5-5c0.082-0 0.164 2e-3 0.246 7e-3 -0.461 0.635 3.75 5.037 4.101 3.699z" fill="#fff"/>
        <path d="m26.847 14.706c-0.351 1.338-1.27 2.294-2.347 2.294-1.38-0-2.5-1.568-2.5-3.5 0-0.975 0.285-1.858 0.746-2.493 1.972 0.118 3.608 1.65 4.101 3.699z"/>
        <path d="m13.847 14.706c-0.351 1.338-1.27 2.294-2.347 2.294-1.38 0-2.5-1.568-2.5-3.5 0-0.975 0.285-1.858 0.746-2.493 1.972 0.118 3.608 1.65 4.101 3.699z"/>
        <path d="m12.061 24.004s1.93-2.004 3.939-2.004 4 2 4 2" fill="none" stroke="#694300" stroke-width="2px"/>
    </g>
</svg>
