<?xml version="1.0" encoding="UTF-8"?>
<!DOCTYPE svg  PUBLIC '-//W3C//DTD SVG 1.1//EN'  'http://www.w3.org/Graphics/SVG/1.1/DTD/svg11.dtd'>
<svg clip-rule="evenodd" fill-rule="evenodd" stroke-linecap="round" stroke-linejoin="round" stroke-miterlimit="1.5" version="1.1" viewBox="0 0 32 32" xml:space="preserve" xmlns="http://www.w3.org/2000/svg" xmlns:serif="http://www.serif.com/">
<metadata>
<rdf:RDF xmlns:cc="http://web.resource.org/cc/" xmlns:dc="http://purl.org/dc/elements/1.1/" xmlns:rdf="http://www.w3.org/1999/02/22-rdf-syntax-ns#">

     <rdf:Description rdf:about="">
       <dc:title>Mutant Standard emoji 2023.12</dc:title>
     </rdf:Description>

    <cc:work rdf:about="">
        <cc:license rdf:resource="http://creativecommons.org/licenses/by-nc-sa/4.0/"/>
        <cc:attributionName>Caius Nocturne</cc:attributionName>
        <cc:attributionURL>http://mutant.tech/</cc:attributionURL>
    </cc:work>

</rdf:RDF>
</metadata>

    <rect id="_1f628_scared" width="32" height="32" fill="none" serif:id="1f628_scared"/>
    <clipPath id="_clip1">
        <rect width="32" height="32"/>
    </clipPath>
    <g clip-path="url(#_clip1)">
        <path d="m16 29.5c-8.1 0-14-4.764-14-11.5 0-8.538 7.015-14 14-14s14 5.462 14 14c0 6.736-5.9 11.5-14 11.5z" fill="none" stroke="#000" stroke-width="4px"/>
        <path d="m16 29.5c-8.1 0-14-4.764-14-11.5 0-8.538 7.015-14 14-14s14 5.462 14 14c0 6.736-5.9 11.5-14 11.5z" fill="#ffb636"/>
        <path d="m2.147 19.807c-0.097-0.584-0.147-1.187-0.147-1.807 0-8.538 7.015-14 14-14s14 5.462 14 14c-0 0.62-0.05 1.223-0.147 1.807-0.885-1.128-26.821-1.128-27.706-0z" fill="#739dff"/>
        <path d="m29.853 19.807c-0.957 5.765-6.498 9.693-13.853 9.693s-12.896-3.928-13.853-9.693c0.885-1.128 5.747-6.807 13.853-6.807s12.968 5.679 13.853 6.807z" fill="#ffb636"/>
        <path d="m8.543 8.448c0.414 0.717 1.72 0.739 2.915 0.049s1.829-1.832 1.415-2.549-1.72-0.739-2.915-0.049c-1.195 0.689-1.829 1.832-1.415 2.549z"/>
        <path d="m23.457 8.448c-0.414 0.717-1.72 0.739-2.915 0.049s-1.829-1.832-1.415-2.549 1.72-0.739 2.915-0.049c1.195 0.689 1.829 1.832 1.415 2.549z"/>
        <path d="m11.876 24.942c-0.306-0.095-0.569-0.303-0.732-0.59-0.226-0.4-0.22-0.892 0.017-1.286l0.347-0.579c0.926-1.543 2.593-2.487 4.393-2.487h0.198c1.8-0 3.467 0.944 4.393 2.487l0.347 0.579c0.237 0.394 0.243 0.886 0.017 1.286-0.163 0.287-0.426 0.495-0.732 0.59-0.936-1.213-7.312-1.213-8.248 0z"/>
        <path d="m20.124 24.942c-0.121 0.038-0.249 0.058-0.38 0.058h-7.488c-0.131-0-0.259-0.02-0.38-0.058 0.936-1.213 2.39-1.938 3.944-1.938h0.36c1.554 0 3.008 0.725 3.944 1.938z" fill="#c33700"/>
        <path d="m22.5 20c-2.484-0-4.5-2.464-4.5-5.5 0-1.959 0.839-3.679 2.102-4.654l6.187 1.687c0.45 0.857 0.711 1.875 0.711 2.967 0 3.036-2.016 5.5-4.5 5.5zm-13-0c-2.484-0-4.5-2.464-4.5-5.5 0-1.092 0.261-2.11 0.711-2.967l6.187-1.687c1.263 0.975 2.102 2.695 2.102 4.654 0 3.036-2.016 5.5-4.5 5.5z" fill="#fff"/>
        <circle cx="21.5" cy="14.5" r="2"/>
        <circle cx="10.5" cy="14.5" r="2"/>
    </g>
</svg>
