<?xml version="1.0" encoding="UTF-8"?>
<!DOCTYPE svg  PUBLIC '-//W3C//DTD SVG 1.1//EN'  'http://www.w3.org/Graphics/SVG/1.1/DTD/svg11.dtd'>
<svg clip-rule="evenodd" fill-rule="evenodd" stroke-linecap="round" stroke-linejoin="round" stroke-miterlimit="1.5" version="1.1" viewBox="0 0 32 32" xml:space="preserve" xmlns="http://www.w3.org/2000/svg" xmlns:serif="http://www.serif.com/">
<metadata>
<rdf:RDF xmlns:cc="http://web.resource.org/cc/" xmlns:dc="http://purl.org/dc/elements/1.1/" xmlns:rdf="http://www.w3.org/1999/02/22-rdf-syntax-ns#">

     <rdf:Description rdf:about="">
       <dc:title>Mutant Standard emoji 2023.12</dc:title>
     </rdf:Description>

    <cc:work rdf:about="">
        <cc:license rdf:resource="http://creativecommons.org/licenses/by-nc-sa/4.0/"/>
        <cc:attributionName>Caius Nocturne</cc:attributionName>
        <cc:attributionURL>http://mutant.tech/</cc:attributionURL>
    </cc:work>

</rdf:RDF>
</metadata>

    <rect id="_1f631_scream" width="32" height="32" fill="none" serif:id="1f631_scream"/>
    <path d="m3.112 20.943c-0.401-1.235-0.612-2.56-0.612-3.943-0-10 7.5-14 13.5-14s13.5 4 13.5 14c-0 1.383-0.211 2.708-0.612 3.943 0.028 0.018 0.055 0.037 0.082 0.057 1.769 1.322 0.03 3.427 0.03 6v3h-5.446c0-0.496 0.016-1.426 0.173-2.545-2.118 1.296-4.739 2.045-7.727 2.045s-5.609-0.749-7.727-2.045c0.157 1.119 0.173 2.049 0.173 2.545h-5.446v-3c-0-2.573-1.739-4.678 0.03-6 0.027-0.02 0.054-0.039 0.082-0.057z" fill="none" stroke="#000" stroke-width="4px"/>
    <path d="m2.564 18.304c-0.043-0.428-0.064-0.863-0.064-1.304 0-10 7.5-14 13.5-14s13.5 4 13.5 14c0 0.441-0.021 0.876-0.064 1.304-1.54-1.769-25.332-1.769-26.872 0z" fill="#739dff"/>
    <path d="m17.939 9.587c2.237-2.236 6.247-2.064 8.931 0.62 2.684 2.685 2.856 6.695 0.62 8.931s-6.246 2.064-8.931-0.62c-2.684-2.684-2.856-6.694-0.62-8.931zm-3.878 0c2.236 2.237 2.064 6.247-0.62 8.931-2.685 2.684-6.695 2.856-8.931 0.62s-2.064-6.246 0.62-8.931c2.684-2.684 6.694-2.856 8.931-0.62z" fill="#305ec9"/>
    <path d="m15.424 12.01c0.19-7e-3 0.382-0.01 0.576-0.01s0.386 3e-3 0.576 0.01c-0.541 2.112 7.544 8.073 9.697 7.435-0.592 0.533-4.009 7.278-4.145 8.841-1.789 0.78-3.852 1.214-6.128 1.214s-4.339-0.434-6.128-1.214c-0.136-1.563-3.553-8.308-4.145-8.841 2.153 0.638 10.238-5.323 9.697-7.435zm13.194 5.419c0.332 0.332 0.605 0.63 0.818 0.875-0.038 0.389-0.093 0.771-0.165 1.147-0.652 0.294-2.009 0.674-2.493 0.115-0.054-0.063 0.914-1.798 1.84-2.137zm-25.889 2.022c-0.072-0.376-0.127-0.758-0.165-1.147 0.213-0.245 0.486-0.543 0.818-0.875 1.234-0.038 1.991 2.265 2.053 2.321-0.7-0.169-2.033 0.229-2.706-0.299z" fill="#ffb636"/>
    <clipPath id="_clip1">
        <path d="m15.424 12.01c0.19-7e-3 0.382-0.01 0.576-0.01s0.386 3e-3 0.576 0.01c-0.541 2.112 7.544 8.073 9.697 7.435-0.592 0.533-4.009 7.278-4.145 8.841-1.789 0.78-3.852 1.214-6.128 1.214s-4.339-0.434-6.128-1.214c-0.136-1.563-3.553-8.308-4.145-8.841 2.153 0.638 10.238-5.323 9.697-7.435zm13.194 5.419c0.332 0.332 0.605 0.63 0.818 0.875-0.038 0.389-0.093 0.771-0.165 1.147-0.652 0.294-2.009 0.674-2.493 0.115-0.054-0.063 0.914-1.798 1.84-2.137zm-25.889 2.022c-0.072-0.376-0.127-0.758-0.165-1.147 0.213-0.245 0.486-0.543 0.818-0.875 1.234-0.038 1.991 2.265 2.053 2.321-0.7-0.169-2.033 0.229-2.706-0.299z"/>
    </clipPath>
    <g clip-path="url(#_clip1)">
        <path d="m19 10.648c1.708-1.708 4.759-1.43 6.809 0.62s2.328 5.101 0.62 6.809-4.759 1.43-6.809-0.62-2.328-5.101-0.62-6.809zm-6 0c1.708 1.708 1.43 4.759-0.62 6.809s-5.101 2.328-6.809 0.62-1.43-4.759 0.62-6.809 5.101-2.328 6.809-0.62z" fill="none"/>
    </g>
    <path d="m9.872 28.286c-3.815-1.662-6.389-4.893-7.143-8.835 0.593-0.257 1.262-0.31 1.962-0.141-0.061-0.056-0.122-0.113-0.181-0.172-0.494-0.494-0.871-1.075-1.128-1.709 1.997-2 6.112-5.221 12.042-5.419 0.541 2.112-0.109 4.633-1.983 6.508-1.936 1.936-4.561 2.565-6.714 1.927 0.592 0.533 1.151 1.239 1.604 2.112 1.029 1.982 1.405 4.166 1.541 5.729z" fill="#694300"/>
    <path d="m22.128 28.286c0.136-1.563 0.512-3.747 1.541-5.729 0.453-0.873 1.012-1.579 1.604-2.112-2.153 0.638-4.778 9e-3 -6.714-1.927-1.874-1.875-2.524-4.396-1.983-6.508 5.93 0.198 10.045 3.419 12.042 5.419-0.257 0.634-0.634 1.215-1.128 1.709-0.059 0.059-0.12 0.116-0.181 0.172 0.7-0.169 1.369-0.116 1.962 0.141-0.754 3.942-3.328 7.173-7.143 8.835z" fill="#694300"/>
    <path d="m8.543 8.052c-0.414-0.717 0.22-1.859 1.415-2.549s2.501-0.668 2.915 0.049-0.22 1.86-1.415 2.549c-1.195 0.69-2.501 0.668-2.915-0.049zm14.914 0c-0.414 0.717-1.72 0.739-2.915 0.049-1.195-0.689-1.829-1.832-1.415-2.549s1.72-0.739 2.915-0.049 1.829 1.832 1.415 2.549z"/>
    <path d="m11.71 26.226-0.344 0.098c-0.45 0.129-0.935-7e-3 -1.252-0.352-0.318-0.344-0.414-0.838-0.25-1.276l0.937-2.499c0.721-1.923 2.56-3.197 4.614-3.197h1.17c2.054-0 3.893 1.274 4.614 3.197l0.937 2.499c0.164 0.438 0.068 0.932-0.25 1.276-0.317 0.345-0.802 0.481-1.252 0.352l-0.344-0.098-4.217-2-4.363 2z"/>
    <path d="m20.29 26.226-0.218-0.544c-0.648-1.617-2.214-2.678-3.956-2.678h-0.232c-1.742 0-3.308 1.061-3.956 2.678l-0.218 0.544 1.971-0.563c1.516-0.433 3.122-0.433 4.638-0l1.971 0.563z" fill="#c33700"/>
    <path d="m19 10.648c1.708-1.708 4.759-1.43 6.809 0.62s2.328 5.101 0.62 6.809-4.759 1.43-6.809-0.62-2.328-5.101-0.62-6.809zm-6 0c1.708 1.708 1.43 4.759-0.62 6.809s-5.101 2.328-6.809 0.62-1.43-4.759 0.62-6.809 5.101-2.328 6.809-0.62z" fill="#fff"/>
    <path d="m7 23.248c1.373 2.646 1.446 5.69 1.446 6.752h-5.446v-3c-0-2.573-1.739-4.678 0.03-6 1.072-0.801 2.876 0.14 3.97 2.248zm18 0c1.094-2.108 2.898-3.049 3.97-2.248 1.769 1.322 0.03 3.427 0.03 6v3h-5.446c0-1.062 0.073-4.106 1.446-6.752z" fill="#ffb636"/>
</svg>
