<?xml version="1.0" encoding="UTF-8"?>
<!DOCTYPE svg  PUBLIC '-//W3C//DTD SVG 1.1//EN'  'http://www.w3.org/Graphics/SVG/1.1/DTD/svg11.dtd'>
<svg clip-rule="evenodd" fill-rule="evenodd" stroke-linecap="round" stroke-linejoin="round" stroke-miterlimit="1.5" version="1.1" viewBox="0 0 32 32" xml:space="preserve" xmlns="http://www.w3.org/2000/svg" xmlns:serif="http://www.serif.com/">
<metadata>
<rdf:RDF xmlns:cc="http://web.resource.org/cc/" xmlns:dc="http://purl.org/dc/elements/1.1/" xmlns:rdf="http://www.w3.org/1999/02/22-rdf-syntax-ns#">

     <rdf:Description rdf:about="">
       <dc:title>Mutant Standard emoji 2023.12</dc:title>
     </rdf:Description>

    <cc:work rdf:about="">
        <cc:license rdf:resource="http://creativecommons.org/licenses/by-nc-sa/4.0/"/>
        <cc:attributionName>Caius Nocturne</cc:attributionName>
        <cc:attributionURL>http://mutant.tech/</cc:attributionURL>
    </cc:work>

</rdf:RDF>
</metadata>

    <rect id="_1fae8_shaking_face" width="32" height="32" fill="none" serif:id="1fae8_shaking_face"/>
    <clipPath id="_clip1">
        <rect width="32" height="32"/>
    </clipPath>
    <g clip-path="url(#_clip1)">
        <path d="m15 28.974c-0.329 0.017-0.662 0.026-1 0.026-7.521 0-13-4.396-13-11 0-8.371 6.589-14 13-14 0.333 0 0.667 0.015 1 0.045 0.333-0.03 0.667-0.045 1-0.045s0.667 0.015 1 0.045c0.333-0.03 0.667-0.045 1-0.045 6.411 0 13 5.629 13 14 0 6.604-5.479 11-13 11-0.338 0-0.671-9e-3 -1-0.026-0.329 0.017-0.662 0.026-1 0.026s-0.671-9e-3 -1-0.026z" fill="none" stroke="#000" stroke-width="4px"/>
        <path d="m16 28.892c-0.648 0.072-1.316 0.108-2 0.108-7.521 0-13-4.396-13-11 0-8.371 6.589-14 13-14 0.667 0 1.336 0.061 2 0.18 0.664-0.119 1.333-0.18 2-0.18 6.411 0 13 5.629 13 14 0 6.604-5.479 11-13 11-0.684 0-1.352-0.036-2-0.108z" fill="#9e7121"/>
        <path d="m16 29c-7.521 0-13-4.396-13-11 0-8.371 6.589-14 13-14s13 5.629 13 14c0 6.604-5.479 11-13 11z" fill="#ffb636"/>
        <g fill="none" stroke="#9e7121" stroke-width="2px">
            <path d="m21 14.996s0.364-0.485 0.837-1.117c1.214-1.618 3.479-2.006 5.162-0.884 1e-3 0 1e-3 1e-3 1e-3 1e-3"/>
            <path d="m15 15s-0.364-0.485-0.837-1.117c-1.214-1.617-3.479-2.005-5.162-0.884l-1e-3 1e-3"/>
            <path d="m17 14.996s0.364-0.485 0.837-1.117c1.214-1.618 3.479-2.006 5.162-0.884 1e-3 0 1e-3 1e-3 1e-3 1e-3"/>
            <path d="m11 15s-0.364-0.485-0.837-1.117c-1.214-1.617-3.479-2.005-5.162-0.884l-1e-3 1e-3"/>
        </g>
        <path d="m19 14.996s0.364-0.485 0.837-1.117c1.214-1.618 3.479-2.006 5.162-0.884 1e-3 0 1e-3 1e-3 1e-3 1e-3" fill="none" stroke="#000" stroke-width="2px"/>
        <path d="m13 15s-0.364-0.485-0.837-1.117c-1.214-1.617-3.479-2.005-5.162-0.884l-1e-3 1e-3" fill="none" stroke="#000" stroke-width="2px"/>
        <path d="m10.532 7.116c0.58-0.368 1.623-0.277 2.593 0.283 1.195 0.689 1.829 1.832 1.415 2.549-0.346 0.599-1.315 0.713-2.322 0.331-0.58 0.369-1.623 0.277-2.593-0.282-1.195-0.69-1.829-1.832-1.415-2.549 0.346-0.6 1.315-0.713 2.322-0.332zm9.25 3.163c-1.007 0.382-1.976 0.268-2.322-0.331-0.414-0.717 0.22-1.86 1.415-2.549 0.97-0.56 2.013-0.651 2.593-0.283 1.007-0.381 1.976-0.268 2.322 0.332 0.414 0.717-0.22 1.859-1.415 2.549-0.97 0.559-2.013 0.651-2.593 0.282z" fill="#9e7121"/>
        <path d="m9.21 7.448c-0.414 0.717 0.22 1.859 1.415 2.549s2.501 0.668 2.915-0.049-0.22-1.86-1.415-2.549c-1.195-0.69-2.501-0.668-2.915 0.049z"/>
        <path d="m22.79 7.448c0.414 0.717-0.22 1.859-1.415 2.549s-2.501 0.668-2.915-0.049 0.22-1.86 1.415-2.549c1.195-0.69 2.501-0.668 2.915 0.049z"/>
        <path d="m22.311 25h-2l-4.311-1-4.311 1h-2c-0.646 0-1.257-0.298-1.655-0.808-0.398-0.509-0.539-1.174-0.382-1.801l0.162-0.646c0.697-2.789 3.203-4.745 6.077-4.745h0.218c0.655-0 1.291 0.102 1.891 0.292 0.6-0.19 1.236-0.292 1.891-0.292h0.218c2.874-0 5.38 1.956 6.077 4.745l0.162 0.646c0.157 0.627 0.016 1.292-0.382 1.801-0.398 0.51-1.009 0.808-1.655 0.808z" fill="#9e7121"/>
        <path d="m11.231 24.949c-0.47-0.105-0.894-0.37-1.197-0.757-0.398-0.509-0.539-1.174-0.382-1.801l0.162-0.646c0.697-2.789 3.203-4.745 6.077-4.745h0.218c2.874-0 5.38 1.956 6.077 4.745l0.162 0.646c0.157 0.627 0.016 1.292-0.382 1.801-0.303 0.387-0.727 0.652-1.197 0.757-0 0-2.736-1.16-4.769-0.894-2.364 0.308-4.769 0.894-4.769 0.894z"/>
        <path d="m20.769 24.949-0.317-0.527c-0.901-1.5-2.523-2.418-4.272-2.418h-0.36c-1.749 0-3.371 0.918-4.272 2.418l-0.317 0.527c0.149 0.034 0.303 0.051 0.458 0.051h8.622c0.155 0 0.309-0.017 0.458-0.051z" fill="#c33700"/>
    </g>
</svg>
