<?xml version="1.0" encoding="UTF-8"?>
<!DOCTYPE svg  PUBLIC '-//W3C//DTD SVG 1.1//EN'  'http://www.w3.org/Graphics/SVG/1.1/DTD/svg11.dtd'>
<svg clip-rule="evenodd" fill-rule="evenodd" stroke-linecap="round" stroke-linejoin="round" stroke-miterlimit="1.5" version="1.1" viewBox="0 0 32 32" xml:space="preserve" xmlns="http://www.w3.org/2000/svg" xmlns:serif="http://www.serif.com/">
<metadata>
<rdf:RDF xmlns:cc="http://web.resource.org/cc/" xmlns:dc="http://purl.org/dc/elements/1.1/" xmlns:rdf="http://www.w3.org/1999/02/22-rdf-syntax-ns#">

     <rdf:Description rdf:about="">
       <dc:title>Mutant Standard emoji 2023.12</dc:title>
     </rdf:Description>

    <cc:work rdf:about="">
        <cc:license rdf:resource="http://creativecommons.org/licenses/by-nc-sa/4.0/"/>
        <cc:attributionName>Caius Nocturne</cc:attributionName>
        <cc:attributionURL>http://mutant.tech/</cc:attributionURL>
    </cc:work>

</rdf:RDF>
</metadata>

    <rect id="_1f92b_shush" width="32" height="32" fill="none" serif:id="1f92b_shush"/>
    <clipPath id="_clip1">
        <rect width="32" height="32"/>
    </clipPath>
    <g clip-path="url(#_clip1)">
        <path d="m18 28.385c-0.65 0.076-1.317 0.115-2 0.115-8.1 0-14-5.5-14-12.5 0-8.873 6.717-14 14-14s14 5.127 14 14c0 3.619-1.577 6.838-4.221 9.102-0.865 0.742-1.844 1.381-2.92 1.898h3.641c0.398-0 0.779 0.158 1.061 0.439 0.281 0.282 0.439 0.663 0.439 1.061s-0.158 0.779-0.439 1.061c-0.282 0.281-0.663 0.439-1.061 0.439h-0.5v0.5c0 0.315-0.148 0.611-0.4 0.8l-2.92 2.19c-0.441 0.331-0.978 0.51-1.53 0.51h-3.15v-5.615z" fill="none" stroke="#000" stroke-width="4px"/>
        <path d="m16 28.5c-8.1 0-14-5.5-14-12.5 0-8.873 6.717-14 14-14s14 5.127 14 14c0 3.619-1.577 6.838-4.221 9.102-0.248-0.066-9.779 3.398-9.779 3.398z" fill="#ffb636"/>
        <path d="m16 28.5v-5.002c0-1.932 1.566-3.498 3.498-3.498h4e-3c1.932-0 3.498 1.566 3.498 3.498v1.502h2c0.27-0 0.531 0.036 0.779 0.102-2.468 2.115-5.867 3.398-9.779 3.398z" fill="#694300"/>
        <path d="m8.543 6.448c0.414 0.717 1.72 0.739 2.915 0.049s1.829-1.832 1.415-2.549-1.72-0.739-2.915-0.049c-1.195 0.689-1.829 1.832-1.415 2.549z"/>
        <path d="m23.457 6.448c-0.414 0.717-1.72 0.739-2.915 0.049s-1.829-1.832-1.415-2.549 1.72-0.739 2.915-0.049c1.195 0.689 1.829 1.832 1.415 2.549z"/>
        <rect x="17" y="7" width="11" height="12" fill="none"/>
        <clipPath id="_clip2">
            <rect x="17" y="7" width="11" height="12"/>
        </clipPath>
        <g clip-path="url(#_clip2)">
            <ellipse cx="22.5" cy="13.5" rx="4.5" ry="5.5" fill="#fff"/>
            <ellipse cx="21.5" cy="13.5" rx="2" ry="3.5"/>
        </g>
        <rect x="4" y="7" width="11" height="12" fill="none"/>
        <clipPath id="_clip3">
            <rect x="4" y="7" width="11" height="12"/>
        </clipPath>
        <g clip-path="url(#_clip3)">
            <ellipse cx="9.5" cy="13.5" rx="4.5" ry="5.5" fill="#fff"/>
            <ellipse cx="10.5" cy="13.5" rx="2" ry="3.5"/>
        </g>
        <path d="m18.766 24.162c0.153-0.365 0.234-0.759 0.234-1.162v-0.996c0-0.795-0.316-1.558-0.879-2.121-0.562-0.563-1.325-0.879-2.121-0.879s-1.559 0.316-2.121 0.879c-0.563 0.563-0.879 1.326-0.879 2.121v0.996c-0 0.403 0.081 0.797 0.234 1.162 0.553-0.71 4.979-0.71 5.532-0z"/>
        <path d="m13.234 24.162c0.149 0.355 0.367 0.682 0.645 0.959 0.562 0.563 1.325 0.879 2.121 0.879s1.559-0.316 2.121-0.879c0.278-0.277 0.496-0.604 0.645-0.959-0.553-0.71-1.414-1.158-2.368-1.158h-0.796c-0.954 0-1.815 0.448-2.368 1.158z" fill="#c33700"/>
        <path d="m28 28.5c-0-0.398-0.158-0.779-0.439-1.061-0.282-0.281-0.663-0.439-1.061-0.439h-2.5v3h2.5c0.398 0 0.779-0.158 1.061-0.439 0.281-0.282 0.439-0.663 0.439-1.061z" fill="#ab6d00"/>
        <path d="m18 23.498c0-0.827 0.671-1.498 1.498-1.498h4e-3c0.827-0 1.498 0.671 1.498 1.498v3.502h4c0.552-0 1 0.448 1 1v2.5c0 0.315-0.148 0.611-0.4 0.8-0.683 0.512-2.081 1.561-2.92 2.19-0.441 0.331-0.978 0.51-1.53 0.51h-3.15v-10.502z" fill="#ffb636"/>
    </g>
</svg>
