<?xml version="1.0" encoding="UTF-8"?>
<!DOCTYPE svg  PUBLIC '-//W3C//DTD SVG 1.1//EN'  'http://www.w3.org/Graphics/SVG/1.1/DTD/svg11.dtd'>
<svg clip-rule="evenodd" fill-rule="evenodd" stroke-linejoin="round" stroke-miterlimit="1.5" version="1.1" viewBox="0 0 32 32" xml:space="preserve" xmlns="http://www.w3.org/2000/svg" xmlns:serif="http://www.serif.com/">
<metadata>
<rdf:RDF xmlns:cc="http://web.resource.org/cc/" xmlns:dc="http://purl.org/dc/elements/1.1/" xmlns:rdf="http://www.w3.org/1999/02/22-rdf-syntax-ns#">

     <rdf:Description rdf:about="">
       <dc:title>Mutant Standard emoji 2023.12</dc:title>
     </rdf:Description>

    <cc:work rdf:about="">
        <cc:license rdf:resource="http://creativecommons.org/licenses/by-nc-sa/4.0/"/>
        <cc:attributionName>Caius Nocturne</cc:attributionName>
        <cc:attributionURL>http://mutant.tech/</cc:attributionURL>
    </cc:work>

</rdf:RDF>
</metadata>

    <rect id="_1f970_smile_hearts" width="32" height="32" fill="none" serif:id="1f970_smile_hearts"/>
    <clipPath id="_clip1">
        <rect width="32" height="32"/>
    </clipPath>
    <g clip-path="url(#_clip1)">
        <path d="m2.356 14.556c-1.221-0.362-2.838-1.017-4.062-2.155-2.231-2.074-1.975-5.149 0.249-5.934 1.29-0.455 2.437 7e-3 3.118 0.801 0.067 0.092 0.185 0.133 0.295 0.101 0.11-0.031 0.188-0.128 0.196-0.242 0.158-1.034 0.886-2.034 2.221-2.331 1.682-0.374 3.121 0.845 3.464 2.676 2.489-1.728 5.54-2.472 8.163-2.472 1.1-0 2.275 0.131 3.452 0.41-0.044-0.116-0.084-0.232-0.122-0.35-0.994-3.11 0.86-5.846 3.35-5.41 1.443 0.252 2.271 1.286 2.49 2.385 0.014 0.122 0.103 0.221 0.222 0.25 0.119 0.028 0.243-0.021 0.31-0.123 0.691-0.883 1.896-1.434 3.298-1.01 2.419 0.732 2.844 4.01 0.557 6.339-0.906 0.923-2.044 1.586-3.091 2.052 2.367 2.543 3.534 4.506 3.534 7.857 0 2.872-0.993 5.341-2.725 7.253 0.032 0.227 0.035 0.456 0.011 0.679-0.02 0.108 0.029 0.217 0.124 0.273 0.094 0.057 0.214 0.048 0.299-0.022 0.83-0.572 2.012-0.721 3.102 0.02 1.88 1.277 1.364 4.204-1.225 5.589-2.101 1.125-4.746 1.053-5.7 0.983-0.23-0.023-0.438-0.146-0.567-0.338-0.385-0.599-1.219-2.022-1.625-3.694-1.715 0.559-3.633 0.857-5.694 0.857-8.1-0-14-4.6-14-11.6-0-1.068 0.118-1.994 0.356-2.844z" fill="none" stroke="#000" stroke-width="4px"/>
        <path d="m2.42 14.339c0.594-1.923 1.82-3.466 3.691-5.404 2.683-2.778 6.618-3.935 9.889-3.935s7.206 1.157 9.889 3.935c1.871 1.938 3.097 3.481 3.691 5.404-0.622-0.216-0.454 5.507 0.219 5.24-1.098 5.76-6.573 9.421-13.799 9.421s-12.701-3.661-13.799-9.421c0.673 0.267 0.841-5.456 0.219-5.24z" fill="none" stroke="#000" stroke-linecap="round" stroke-width="4px"/>
        <path d="m2.42 14.339c0.594-1.923 1.82-3.466 3.691-5.404 2.683-2.778 6.618-3.935 9.889-3.935s7.206 1.157 9.889 3.935c1.871 1.938 3.097 3.481 3.691 5.404-0.622-0.216-0.454 5.507 0.219 5.24-1.098 5.76-6.573 9.421-13.799 9.421s-12.701-3.661-13.799-9.421c0.673 0.267 0.841-5.456 0.219-5.24z" fill="#ffb636"/>
        <path d="m2.201 19.579c-0.132-0.696-0.201-1.424-0.201-2.179-0-1.159 0.14-2.152 0.42-3.061 0.622-0.216 1.33-0.339 2.08-0.339 2.484 0 4.5 1.344 4.5 3s-2.016 3-4.5 3c-0.84 0-1.626-0.154-2.299-0.421zm27.598 0c-0.673 0.267-1.459 0.421-2.299 0.421-2.484 0-4.5-1.344-4.5-3s2.016-3 4.5-3c0.75 0 1.458 0.123 2.08 0.339 0.28 0.909 0.42 1.902 0.42 3.061 0 0.755-0.069 1.483-0.201 2.179z" fill="#f26f1c"/>
        <path d="m16 5c3.271 0 7.206 1.157 9.889 3.935 2.755 2.853 4.111 4.852 4.111 8.465 0 7-5.9 11.6-14 11.6s-14-4.6-14-11.6c0-3.613 1.356-5.612 4.111-8.465 2.683-2.778 6.618-3.935 9.889-3.935z" fill="none"/>
        <path d="m11.061 19.504s0 1e-3 1e-3 2e-3c1.114 1.671 2.99 2.675 4.999 2.675s3.885-1.004 4.999-2.675c1e-3 -1e-3 1e-3 -2e-3 1e-3 -2e-3" fill="none" stroke="#694300" stroke-linecap="round" stroke-width="2px"/>
        <path d="m19 15s0.105-0.157 0.28-0.42c0.769-1.154 2.095-1.812 3.48-1.725 1.385 0.086 2.619 0.903 3.239 2.144l1e-3 1e-3" fill="none" stroke="#000" stroke-linecap="round" stroke-width="2px"/>
        <path d="m13 15s-0.105-0.157-0.28-0.42c-0.769-1.154-2.095-1.812-3.48-1.725-1.385 0.086-2.619 0.903-3.239 2.144l-1e-3 1e-3" fill="none" stroke="#000" stroke-linecap="round" stroke-width="2px"/>
        <path d="m23.833 10.426c-0.251 0.053-0.513-9e-3 -0.714-0.169-0.815-0.682-2.982-2.673-3.789-5.197-0.994-3.11 0.86-5.846 3.35-5.41 1.443 0.252 2.271 1.286 2.49 2.385 0.014 0.122 0.103 0.221 0.222 0.25 0.119 0.028 0.243-0.021 0.31-0.123 0.691-0.883 1.896-1.434 3.298-1.01 2.419 0.732 2.844 4.01 0.557 6.339-1.857 1.891-4.688 2.694-5.724 2.935z" fill="#ff3c80"/>
        <path d="m4.414 14.706c-0.18 0.158-0.421 0.227-0.658 0.189-0.976-0.181-3.65-0.809-5.462-2.494-2.231-2.074-1.975-5.149 0.249-5.934 1.29-0.455 2.437 7e-3 3.118 0.801 0.067 0.092 0.185 0.133 0.295 0.101 0.11-0.031 0.188-0.128 0.196-0.242 0.158-1.034 0.886-2.034 2.221-2.331 2.303-0.512 4.149 1.961 3.354 4.903-0.645 2.388-2.581 4.337-3.313 5.007z" fill="#ff3c80"/>
        <path d="m23.886 32.175c-0.23-0.023-0.438-0.146-0.567-0.338-0.517-0.804-1.842-3.094-1.857-5.478-0.018-2.935 2.308-4.786 4.328-3.743 1.17 0.604 1.604 1.714 1.496 2.716-0.02 0.108 0.029 0.217 0.124 0.273 0.094 0.057 0.214 0.048 0.299-0.022 0.83-0.572 2.012-0.721 3.102 0.02 1.88 1.277 1.364 4.204-1.225 5.589-2.101 1.125-4.746 1.053-5.7 0.983z" fill="#ff3c80"/>
    </g>
</svg>
