<?xml version="1.0" encoding="UTF-8"?>
<!DOCTYPE svg  PUBLIC '-//W3C//DTD SVG 1.1//EN'  'http://www.w3.org/Graphics/SVG/1.1/DTD/svg11.dtd'>
<svg clip-rule="evenodd" fill-rule="evenodd" stroke-linecap="round" stroke-linejoin="round" stroke-miterlimit="1.5" version="1.1" viewBox="0 0 32 32" xml:space="preserve" xmlns="http://www.w3.org/2000/svg" xmlns:serif="http://www.serif.com/">
<metadata>
<rdf:RDF xmlns:cc="http://web.resource.org/cc/" xmlns:dc="http://purl.org/dc/elements/1.1/" xmlns:rdf="http://www.w3.org/1999/02/22-rdf-syntax-ns#">

     <rdf:Description rdf:about="">
       <dc:title>Mutant Standard emoji 2023.12</dc:title>
     </rdf:Description>

    <cc:work rdf:about="">
        <cc:license rdf:resource="http://creativecommons.org/licenses/by-nc-sa/4.0/"/>
        <cc:attributionName>Caius Nocturne</cc:attributionName>
        <cc:attributionURL>http://mutant.tech/</cc:attributionURL>
    </cc:work>

</rdf:RDF>
</metadata>

    <rect id="_1f972_smile_with_tear" width="32" height="32" fill="none" serif:id="1f972_smile_with_tear"/>
    <clipPath id="_clip1">
        <rect width="32" height="32"/>
    </clipPath>
    <g clip-path="url(#_clip1)">
        <path d="m27 19s-1.618 2.831-2.795 4.892c-0.712 1.245-0.502 2.811 0.512 3.825l0.035 0.035c1.242 1.242 3.254 1.242 4.496 0l0.035-0.035c1.014-1.014 1.224-2.58 0.512-3.825-1.177-2.061-2.795-4.892-2.795-4.892z" fill="none" stroke="#000" stroke-width="4px"/>
        <path d="m27 19s-1.618 2.831-2.795 4.892c-0.712 1.245-0.502 2.811 0.512 3.825l0.035 0.035c1.242 1.242 3.254 1.242 4.496 0l0.035-0.035c1.014-1.014 1.224-2.58 0.512-3.825-1.177-2.061-2.795-4.892-2.795-4.892z" fill="#3fa7ff"/>
        <path d="m16 29.5c-8.1-0-14-5.5-14-12.5 0-8.873 7.64-14 14-14s14 5.127 14 14c0 7-5.9 12.5-14 12.5z" fill="none" stroke="#000" stroke-width="4px"/>
        <path d="m16 29.5c-8.1-0-14-5.5-14-12.5 0-8.873 7.64-14 14-14s14 5.127 14 14c0 7-5.9 12.5-14 12.5z" fill="#ffb636"/>
        <path d="m27 19s-1.618 2.831-2.795 4.892c-0.712 1.245-0.502 2.811 0.512 3.825l0.035 0.035c1.242 1.242 3.254 1.242 4.496 0l0.035-0.035c1.014-1.014 1.224-2.58 0.512-3.825-1.177-2.061-2.795-4.892-2.795-4.892z" fill="#3fa7ff"/>
        <path d="m22.5 20c-2.484 0-4.5-2.464-4.5-5.5 0-2.314 1.172-4.296 2.829-5.108l5.353 1.947c0.515 0.894 0.818 1.985 0.818 3.161 0 3.036-2.016 5.5-4.5 5.5zm-13 0c-2.484 0-4.5-2.464-4.5-5.5-0-1.176 0.303-2.267 0.818-3.161l5.353-1.947c1.657 0.812 2.829 2.794 2.829 5.108-0 3.036-2.016 5.5-4.5 5.5z" fill="#fff"/>
        <path d="m10.5 11c1.38-0 2.5 1.568 2.5 3.5s-1.12 3.5-2.5 3.5-2.5-1.568-2.5-3.5 1.12-3.5 2.5-3.5zm11-0c1.38-0 2.5 1.568 2.5 3.5s-1.12 3.5-2.5 3.5-2.5-1.568-2.5-3.5 1.12-3.5 2.5-3.5z"/>
        <path d="m12 22.5 1e-3 1e-3c1.06 1.06 2.499 1.656 3.999 1.656s2.939-0.596 3.999-1.656l1e-3 -1e-3" fill="none" stroke="#694300" stroke-width="2px"/>
        <path d="m8.543 8.448c0.414 0.717 1.72 0.739 2.915 0.049s1.829-1.832 1.415-2.549-1.72-0.739-2.915-0.049c-1.195 0.689-1.829 1.832-1.415 2.549z"/>
        <path d="m23.457 8.448c-0.414 0.717-1.72 0.739-2.915 0.049s-1.829-1.832-1.415-2.549 1.72-0.739 2.915-0.049c1.195 0.689 1.829 1.832 1.415 2.549z"/>
    </g>
</svg>
