<?xml version="1.0" encoding="UTF-8"?>
<!DOCTYPE svg  PUBLIC '-//W3C//DTD SVG 1.1//EN'  'http://www.w3.org/Graphics/SVG/1.1/DTD/svg11.dtd'>
<svg clip-rule="evenodd" fill-rule="evenodd" stroke-linecap="round" stroke-linejoin="round" stroke-miterlimit="1.5" version="1.1" viewBox="0 0 32 32" xml:space="preserve" xmlns="http://www.w3.org/2000/svg" xmlns:serif="http://www.serif.com/">
<metadata>
<rdf:RDF xmlns:cc="http://web.resource.org/cc/" xmlns:dc="http://purl.org/dc/elements/1.1/" xmlns:rdf="http://www.w3.org/1999/02/22-rdf-syntax-ns#">

     <rdf:Description rdf:about="">
       <dc:title>Mutant Standard emoji 2023.12</dc:title>
     </rdf:Description>

    <cc:work rdf:about="">
        <cc:license rdf:resource="http://creativecommons.org/licenses/by-nc-sa/4.0/"/>
        <cc:attributionName>Caius Nocturne</cc:attributionName>
        <cc:attributionURL>http://mutant.tech/</cc:attributionURL>
    </cc:work>

</rdf:RDF>
</metadata>

    <rect id="_1f603_smiley" width="32" height="32" fill="none" serif:id="1f603_smiley"/>
    <path d="m16 29.5c-8.1 0-14-5.5-14-12.5 0-8.873 7.64-14 14-14s14 5.127 14 14c0 7-5.9 12.5-14 12.5z" fill="none" stroke="#000" stroke-width="4px"/>
    <path d="m16 29.5c-8.1 0-14-5.5-14-12.5 0-8.873 7.64-14 14-14s14 5.127 14 14c0 7-5.9 12.5-14 12.5z" fill="#ffb636"/>
    <path d="m19.913 17c-1.157-0.996-1.913-2.641-1.913-4.5 0-3.036 2.016-5.5 4.5-5.5s4.5 2.464 4.5 5.5c0 1.859-0.756 3.504-1.913 4.5h-5.174zm-13 0c-1.157-0.996-1.913-2.641-1.913-4.5-0-3.036 2.016-5.5 4.5-5.5s4.5 2.464 4.5 5.5c-0 1.859-0.756 3.504-1.913 4.5h-5.174z" fill="#fff"/>
    <ellipse cx="21.5" cy="12.5" rx="2.5" ry="3.5"/>
    <ellipse cx="10.5" cy="12.5" rx="2.5" ry="3.5"/>
    <path d="m20.379 26.093c3.01-1.422 4.293-4.18 4.807-5.806 0.091-0.301 0.035-0.628-0.153-0.881s-0.484-0.402-0.799-0.402c-3.454-4e-3 -13.014-4e-3 -16.468-4e-3 -0.316-0-0.614 0.15-0.802 0.403-0.189 0.254-0.246 0.583-0.154 0.885 0.517 1.626 1.801 4.383 4.811 5.805 1.009-1.312 7.749-1.312 8.758-0z"/>
    <path d="m20.379 26.093c-1.009-1.312-2.574-2.089-4.241-2.089h-0.276c-1.667 0-3.232 0.777-4.241 2.089 1.177 0.555 2.617 0.907 4.379 0.907s3.202-0.352 4.379-0.907z" fill="#c33700"/>
</svg>
