<?xml version="1.0" encoding="UTF-8"?>
<!DOCTYPE svg  PUBLIC '-//W3C//DTD SVG 1.1//EN'  'http://www.w3.org/Graphics/SVG/1.1/DTD/svg11.dtd'>
<svg clip-rule="evenodd" fill-rule="evenodd" stroke-linecap="round" stroke-linejoin="round" stroke-miterlimit="1.5" version="1.1" viewBox="0 0 32 32" xml:space="preserve" xmlns="http://www.w3.org/2000/svg" xmlns:serif="http://www.serif.com/">
<metadata>
<rdf:RDF xmlns:cc="http://web.resource.org/cc/" xmlns:dc="http://purl.org/dc/elements/1.1/" xmlns:rdf="http://www.w3.org/1999/02/22-rdf-syntax-ns#">

     <rdf:Description rdf:about="">
       <dc:title>Mutant Standard emoji 2023.12</dc:title>
     </rdf:Description>

    <cc:work rdf:about="">
        <cc:license rdf:resource="http://creativecommons.org/licenses/by-nc-sa/4.0/"/>
        <cc:attributionName>Caius Nocturne</cc:attributionName>
        <cc:attributionURL>http://mutant.tech/</cc:attributionURL>
    </cc:work>

</rdf:RDF>
</metadata>

    <rect id="_1f604_smile" width="32" height="32" fill="none" serif:id="1f604_smile"/>
    <path d="m16 30c-8.1-0-14-5.604-14-12.736 0-9.04 7.64-14.264 14-14.264s14 5.224 14 14.264c0 7.132-5.9 12.736-14 12.736z" fill="none" stroke="#000" stroke-width="4px"/>
    <path d="m16 30c-8.1-0-14-5.604-14-12.736 0-9.04 7.64-14.264 14-14.264s14 5.224 14 14.264c0 7.132-5.9 12.736-14 12.736z" fill="#ffb636"/>
    <path d="m19 17s0.059-0.137 0.16-0.372c0.564-1.318 1.805-2.22 3.233-2.351 1.427-0.131 2.812 0.53 3.607 1.723" fill="none" stroke="#000" stroke-width="2px"/>
    <path d="m13 17s-0.059-0.137-0.16-0.372c-0.564-1.318-1.805-2.22-3.233-2.351-1.427-0.131-2.812 0.53-3.607 1.723" fill="none" stroke="#000" stroke-width="2px"/>
    <path d="m8.293 9.845c0.215 0.799 1.471 1.159 2.804 0.801 1.332-0.357 2.24-1.296 2.026-2.095-0.214-0.8-1.47-1.159-2.803-0.802s-2.241 1.296-2.027 2.096z"/>
    <path d="m23.707 9.845c-0.215 0.799-1.471 1.159-2.804 0.801-1.332-0.357-2.24-1.296-2.026-2.095 0.214-0.8 1.47-1.159 2.803-0.802s2.241 1.296 2.027 2.096z"/>
    <path d="m19.972 26.623c2.383-1.235 3.361-3.505 3.759-5.039 0.087-0.341-0.013-0.702-0.262-0.951-0.249-0.248-0.611-0.347-0.952-0.259-1.351 0.286-3.583 0.626-6.517 0.626s-5.166-0.34-6.518-0.624c-0.34-0.087-0.701 0.011-0.95 0.259-0.248 0.248-0.347 0.608-0.26 0.949 0.396 1.534 1.373 3.804 3.756 5.039 0.998-1.025 6.946-1.025 7.944-0z"/>
    <path d="m19.972 26.623c-0.998-1.025-2.377-1.619-3.834-1.619h-0.276c-1.457 0-2.836 0.594-3.834 1.619 1.036 0.536 2.337 0.877 3.972 0.877s2.936-0.341 3.972-0.877z" fill="#c33700"/>
</svg>
