<?xml version="1.0" encoding="UTF-8"?>
<!DOCTYPE svg  PUBLIC '-//W3C//DTD SVG 1.1//EN'  'http://www.w3.org/Graphics/SVG/1.1/DTD/svg11.dtd'>
<svg clip-rule="evenodd" fill-rule="evenodd" stroke-linecap="round" stroke-linejoin="round" stroke-miterlimit="1.5" version="1.1" viewBox="0 0 32 32" xml:space="preserve" xmlns="http://www.w3.org/2000/svg" xmlns:serif="http://www.serif.com/">
<metadata>
<rdf:RDF xmlns:cc="http://web.resource.org/cc/" xmlns:dc="http://purl.org/dc/elements/1.1/" xmlns:rdf="http://www.w3.org/1999/02/22-rdf-syntax-ns#">

     <rdf:Description rdf:about="">
       <dc:title>Mutant Standard emoji 2023.12</dc:title>
     </rdf:Description>

    <cc:work rdf:about="">
        <cc:license rdf:resource="http://creativecommons.org/licenses/by-nc-sa/4.0/"/>
        <cc:attributionName>Caius Nocturne</cc:attributionName>
        <cc:attributionURL>http://mutant.tech/</cc:attributionURL>
    </cc:work>

</rdf:RDF>
</metadata>

    <rect id="_1f62d_sob" width="32" height="32" fill="none" serif:id="1f62d_sob"/>
    <clipPath id="_clip1">
        <rect width="32" height="32"/>
    </clipPath>
    <g clip-path="url(#_clip1)">
        <path d="m4.541 23.703c-1.618-1.693-2.541-3.93-2.541-6.699 0-3.613 1.356-6.977 4.111-9.83 2.683-2.778 6.618-4.17 9.889-4.17s7.206 1.392 9.889 4.17c2.755 2.853 4.111 6.217 4.111 9.83 0 2.769-0.923 5.006-2.541 6.699 1.601 0.65 2.541 1.442 2.541 2.297 0 2.208-6.273 4-14 4s-14-1.792-14-4c0-0.855 0.94-1.647 2.541-2.297z" fill="none" stroke="#000" stroke-width="4px"/>
        <path d="m29.219 24.68c0.506 0.414 0.781 0.858 0.781 1.32 0 2.208-6.273 4-14 4s-14-1.792-14-4c0-0.462 0.275-0.906 0.781-1.32 3.437 0.311 22.719 1.017 26.438 0z" fill="#3fa7ff"/>
        <path d="m2.781 24.68c1.91-1.56 7.11-2.68 13.219-2.68s11.309 1.12 13.219 2.68c-2.449 2.991-7.241 3.924-13.219 3.924s-10.77-0.933-13.219-3.924z" fill="#007fea"/>
        <path d="m16 3.004c3.271 0 7.206 1.392 9.889 4.17 2.755 2.853 4.111 6.217 4.111 9.83 0 7-5.9 10.6-14 10.6s-14-3.6-14-10.6c0-3.613 1.356-6.977 4.111-9.83 2.683-2.778 6.618-4.17 9.889-4.17z" fill="#ffb636"/>
        <path d="m12.5 13v16h-5v-13l5-3zm7 0 5 3v13h-5v-16z" fill="#3fa7ff"/>
        <path d="m8.543 10.448c0.414 0.717 1.72 0.739 2.915 0.049s1.829-1.832 1.415-2.549-1.72-0.739-2.915-0.049c-1.195 0.689-1.829 1.832-1.415 2.549z"/>
        <path d="m23.457 10.448c-0.414 0.717-1.72 0.739-2.915 0.049s-1.829-1.832-1.415-2.549 1.72-0.739 2.915-0.049c1.195 0.689 1.829 1.832 1.415 2.549z"/>
        <path d="m11.832 23h-0.902c-0.457-0-0.887-0.214-1.162-0.579s-0.363-0.837-0.238-1.276l0.136-0.478c0.79-2.762 3.315-4.667 6.188-4.667h0.292c2.873 0 5.398 1.905 6.188 4.667l0.136 0.478c0.125 0.439 0.037 0.911-0.238 1.276s-0.705 0.579-1.162 0.579h-0.902c-0.935-1.248-7.401-1.248-8.336-0z"/>
        <path d="m20.168 23c-0.935-1.248-2.409-1.996-3.988-1.996h-0.36c-1.579 0-3.053 0.748-3.988 1.996h8.336z" fill="#c33700"/>
        <path d="m19.5 12.5s0.075 0.175 0.192 0.447c0.754 1.76 2.673 2.712 4.53 2.247 0.459-0.114 0.778-0.194 0.778-0.194" fill="none" stroke="#000" stroke-width="2px"/>
        <path d="m12.5 12.5s-0.075 0.175-0.192 0.447c-0.754 1.76-2.673 2.712-4.53 2.247-0.459-0.114-0.778-0.194-0.778-0.194" fill="none" stroke="#000" stroke-width="2px"/>
    </g>
</svg>
