<?xml version="1.0" encoding="UTF-8"?>
<!DOCTYPE svg  PUBLIC '-//W3C//DTD SVG 1.1//EN'  'http://www.w3.org/Graphics/SVG/1.1/DTD/svg11.dtd'>
<svg clip-rule="evenodd" fill-rule="evenodd" stroke-linecap="round" stroke-linejoin="round" stroke-miterlimit="1.5" version="1.1" viewBox="0 0 32 32" xml:space="preserve" xmlns="http://www.w3.org/2000/svg" xmlns:serif="http://www.serif.com/">
<metadata>
<rdf:RDF xmlns:cc="http://web.resource.org/cc/" xmlns:dc="http://purl.org/dc/elements/1.1/" xmlns:rdf="http://www.w3.org/1999/02/22-rdf-syntax-ns#">

     <rdf:Description rdf:about="">
       <dc:title>Mutant Standard emoji 2023.12</dc:title>
     </rdf:Description>

    <cc:work rdf:about="">
        <cc:license rdf:resource="http://creativecommons.org/licenses/by-nc-sa/4.0/"/>
        <cc:attributionName>Caius Nocturne</cc:attributionName>
        <cc:attributionURL>http://mutant.tech/</cc:attributionURL>
    </cc:work>

</rdf:RDF>
</metadata>

    <rect id="_1f60e_sunglasses_face" width="32" height="32" fill="none" serif:id="1f60e_sunglasses_face"/>
    <path d="m16 29.5c-8.1-0-14-5.5-14-12.5 0-8.873 7.64-14 14-14s14 5.127 14 14c0 7-5.9 12.5-14 12.5z" fill="none" stroke="#000" stroke-width="4px"/>
    <path d="m16 29.5c-8.1-0-14-5.5-14-12.5 0-8.873 7.64-14 14-14s14 5.127 14 14c0 7-5.9 12.5-14 12.5z" fill="#ffb636"/>
    <path d="m11 21.004s1.755 1.996 5 1.996 5-2 5-2" fill="none" stroke="#694300" stroke-width="2px"/>
    <path d="m1.545 8.837c-0.322 0.092-0.543 0.386-0.543 0.721-2e-3 0.321-2e-3 0.719-2e-3 1.015 0 0.269 0.145 0.518 0.379 0.652 0.599 0.319 1.636 1.091 1.636 2.269 0 1.643 0.38 2.433 1.13 3.354 1.479 1.819 7.345 2.17 9.379 0.353 1.823-1.629 1.107-4.201 2.476-4.201 1-0-1-3-1-3s-1.272-2-5-2h-4c-1.38-0-3.473 0.553-4.455 0.837z"/>
    <path d="m30.455 8.837c0.322 0.092 0.543 0.386 0.543 0.721 2e-3 0.321 2e-3 0.719 2e-3 1.015-0 0.269-0.145 0.518-0.379 0.652-0.599 0.319-1.636 1.091-1.636 2.269-0 1.643-0.38 2.433-1.13 3.354-1.479 1.819-7.345 2.17-9.379 0.353-1.823-1.629-1.107-4.201-2.476-4.201-1-0 1-3 1-3s1.272-2 5-2h4c1.38-0 3.473 0.553 4.455 0.837z"/>
    <path d="m4.913 10.052c-0.884 0.834-1.008 4.167 0.212 5.819 1.241 1.68 6.36 1.671 7.639 0.454 1.482-1.41 1.534-4.481 1.105-5.482-0.442-1.03-2.084-1.843-3.869-1.843-2.408-0-4.336 0.345-5.087 1.052z" fill="#202020"/>
    <path d="m27.087 10.052c0.884 0.834 1.008 4.167-0.212 5.819-1.241 1.68-6.36 1.671-7.639 0.454-1.482-1.41-1.534-4.481-1.105-5.482 0.442-1.03 2.084-1.843 3.869-1.843 2.408-0 4.336 0.345 5.087 1.052z" fill="#202020"/>
    <path d="m14.5 10.001s0.644-0.442 1.5-0.442 1.5 0.442 1.5 0.442v2.498h-3v-2.498z"/>
</svg>
