<?xml version="1.0" encoding="UTF-8"?>
<!DOCTYPE svg  PUBLIC '-//W3C//DTD SVG 1.1//EN'  'http://www.w3.org/Graphics/SVG/1.1/DTD/svg11.dtd'>
<svg clip-rule="evenodd" fill-rule="evenodd" stroke-linecap="round" stroke-linejoin="round" stroke-miterlimit="1.5" version="1.1" viewBox="0 0 32 32" xml:space="preserve" xmlns="http://www.w3.org/2000/svg" xmlns:serif="http://www.serif.com/">
<metadata>
<rdf:RDF xmlns:cc="http://web.resource.org/cc/" xmlns:dc="http://purl.org/dc/elements/1.1/" xmlns:rdf="http://www.w3.org/1999/02/22-rdf-syntax-ns#">

     <rdf:Description rdf:about="">
       <dc:title>Mutant Standard emoji 2023.12</dc:title>
     </rdf:Description>

    <cc:work rdf:about="">
        <cc:license rdf:resource="http://creativecommons.org/licenses/by-nc-sa/4.0/"/>
        <cc:attributionName>Caius Nocturne</cc:attributionName>
        <cc:attributionURL>http://mutant.tech/</cc:attributionURL>
    </cc:work>

</rdf:RDF>
</metadata>

    <rect id="_1f605_sweat_smile" width="32" height="32" fill="none" serif:id="1f605_sweat_smile"/>
    <path d="m26 2s-1.618 2.831-2.795 4.892c-0.712 1.245-0.502 2.811 0.512 3.825l0.035 0.035c1.242 1.242 3.254 1.242 4.496 0l0.035-0.035c1.014-1.014 1.224-2.58 0.512-3.825-1.177-2.061-2.795-4.892-2.795-4.892z" fill="none" stroke="#000" stroke-width="4px"/>
    <path d="m16 30c-8.969 0-14-5.396-14-12.264 0-8.706 7.64-13.736 14-13.736s14 5.03 14 13.736c0 6.868-5.031 12.264-14 12.264z" fill="none" stroke="#000" stroke-width="4px"/>
    <path d="m16 30c-8.969 0-14-5.396-14-12.264 0-8.706 7.64-13.736 14-13.736s14 5.03 14 13.736c0 6.868-5.031 12.264-14 12.264z" fill="#ffb636"/>
    <path d="m19 18.5s0.188-0.377 0.471-0.942c0.586-1.172 1.699-1.991 2.993-2.2 1.293-0.21 2.608 0.214 3.535 1.141l1e-3 1e-3" fill="none" stroke="#000" stroke-width="2px"/>
    <path d="m13 18.5s-0.188-0.377-0.471-0.942c-0.586-1.172-1.699-1.991-2.993-2.2-1.293-0.21-2.608 0.214-3.535 1.141l-1e-3 1e-3" fill="none" stroke="#000" stroke-width="2px"/>
    <path d="m8.293 11.345c0.215 0.799 1.471 1.159 2.804 0.801 1.332-0.357 2.24-1.296 2.026-2.095-0.214-0.8-1.47-1.159-2.803-0.802s-2.241 1.296-2.027 2.096z"/>
    <path d="m23.707 11.345c-0.215 0.799-1.471 1.159-2.804 0.801-1.332-0.357-2.24-1.296-2.026-2.095 0.214-0.8 1.47-1.159 2.803-0.802s2.241 1.296 2.027 2.096z"/>
    <path d="m26 2s-1.618 2.831-2.795 4.892c-0.712 1.245-0.502 2.811 0.512 3.825l0.035 0.035c1.242 1.242 3.254 1.242 4.496 0l0.035-0.035c1.014-1.014 1.224-2.58 0.512-3.825-1.177-2.061-2.795-4.892-2.795-4.892z" fill="#3fa7ff"/>
    <path d="m20.351 27.057c2.232-1.104 3.437-2.956 4.057-4.322 0.153-0.341 0.103-0.739-0.129-1.031-0.233-0.292-0.609-0.43-0.975-0.358-1.624 0.291-4.271 0.654-7.304 0.654s-5.68-0.363-7.304-0.652c-0.366-0.073-0.742 0.064-0.975 0.356-0.232 0.292-0.281 0.69-0.127 1.03 0.619 1.366 1.823 3.219 4.055 4.323 1.009-1.29 7.693-1.29 8.702 0z"/>
    <path d="m20.351 27.057c-1.009-1.29-2.561-2.053-4.213-2.053h-0.276c-1.652 0-3.204 0.763-4.213 2.053 1.155 0.572 2.585 0.943 4.351 0.943s3.196-0.371 4.351-0.943z" fill="#c33700"/>
</svg>
