<?xml version="1.0" encoding="UTF-8"?>
<!DOCTYPE svg  PUBLIC '-//W3C//DTD SVG 1.1//EN'  'http://www.w3.org/Graphics/SVG/1.1/DTD/svg11.dtd'>
<svg clip-rule="evenodd" fill-rule="evenodd" stroke-linecap="round" stroke-linejoin="round" stroke-miterlimit="1.5" version="1.1" viewBox="0 0 32 32" xml:space="preserve" xmlns="http://www.w3.org/2000/svg" xmlns:serif="http://www.serif.com/">
<metadata>
<rdf:RDF xmlns:cc="http://web.resource.org/cc/" xmlns:dc="http://purl.org/dc/elements/1.1/" xmlns:rdf="http://www.w3.org/1999/02/22-rdf-syntax-ns#">

     <rdf:Description rdf:about="">
       <dc:title>Mutant Standard emoji 2023.12</dc:title>
     </rdf:Description>

    <cc:work rdf:about="">
        <cc:license rdf:resource="http://creativecommons.org/licenses/by-nc-sa/4.0/"/>
        <cc:attributionName>Caius Nocturne</cc:attributionName>
        <cc:attributionURL>http://mutant.tech/</cc:attributionURL>
    </cc:work>

</rdf:RDF>
</metadata>

    <rect id="_1f92c_swearing" width="32" height="32" fill="none" serif:id="1f92c_swearing"/>
    <clipPath id="_clip1">
        <rect width="32" height="32"/>
    </clipPath>
    <g clip-path="url(#_clip1)">
        <path d="m16 27.6c-8.6-0-14-5.257-14-10.796-0-10.804 8.01-13.804 14-13.804s14 3 14 13.804c0 5.539-5.4 10.796-14 10.796z" fill="none" stroke="#000" stroke-width="4px"/>
        <path d="m16 27.6c-8.6-0-14-5.257-14-10.796-0-10.804 8.01-13.804 14-13.804s14 3 14 13.804c0 5.539-5.4 10.796-14 10.796z" fill="#ff662a"/>
        <path d="m9.941 4.732c-0.586 0.586-0.269 1.853 0.707 2.829 0.975 0.975 2.243 1.292 2.828 0.707 0.585-0.586 0.269-1.853-0.707-2.829-0.976-0.975-2.243-1.292-2.828-0.707z"/>
        <path d="m22.059 4.732c0.586 0.586 0.269 1.853-0.707 2.829-0.975 0.975-2.243 1.292-2.828 0.707-0.585-0.586-0.269-1.853 0.707-2.829 0.976-0.975 2.243-1.292 2.828-0.707z"/>
        <path d="m23.219 9.042 2.806-1.785c1.022 1.293 1.416 3.23 0.894 5.178-0.8 2.983-3.447 4.87-5.908 4.211-1.775-0.476-2.972-2.147-3.201-4.161l0.734-0.468c0.246 1.41 1.477 2.483 2.956 2.483 1.656 0 3-1.344 3-3 0-1.016-0.506-1.915-1.281-2.458z" fill="#fff"/>
        <path d="m13.456 12.017 0.734 0.468c-0.229 2.014-1.426 3.685-3.201 4.161-2.461 0.659-5.108-1.228-5.908-4.211-0.522-1.948-0.128-3.885 0.894-5.178l2.806 1.785c-0.775 0.543-1.281 1.442-1.281 2.458 0 1.656 1.344 3 3 3 1.479 0 2.71-1.073 2.956-2.483z" fill="#fff"/>
        <path d="m23.219 9.042c0.775 0.543 1.281 1.442 1.281 2.458 0 1.656-1.344 3-3 3-1.479 0-2.71-1.073-2.956-2.483l4.675-2.975z"/>
        <path d="m13.456 12.017c-0.246 1.41-1.477 2.483-2.956 2.483-1.656 0-3-1.344-3-3 0-1.016 0.506-1.915 1.281-2.458l4.675 2.975z"/>
        <path d="m30 20c-0-1.105-0.895-2-2-2h-24c-1.105 0-2 0.895-2 2v9c0 1.105 0.895 2 2 2h24c1.105-0 2-0.895 2-2v-9z"/>
        <path d="m8.74 23.05-0.16 1.263h0.906v1.056h-1.044l-0.31 2.341h-1.194l0.31-2.341h-1.216l-0.31 2.341h-1.183l0.31-2.341h-0.849v-1.056h0.987l0.172-1.263h-0.872v-1.056h1.01l0.287-2.203h1.182l-0.287 2.203h1.217l0.287-2.203h1.182l-0.287 2.203h0.895v1.056h-1.033zm-1.182 0h-1.217l-0.172 1.263h1.217l0.172-1.263zm7.139 3.558c-0.313 0.368-0.75 0.605-1.308 0.712v1.079h-1.182v-1.056c-0.574-0.084-1.026-0.319-1.355-0.706-0.329-0.386-0.509-0.897-0.539-1.532h1.32c0.046 0.382 0.158 0.652 0.338 0.809s0.45 0.235 0.809 0.235c0.659 0 0.988-0.298 0.988-0.895-0-0.268-0.065-0.472-0.196-0.614-0.13-0.142-0.34-0.239-0.631-0.293l-0.562-0.103c-0.643-0.115-1.119-0.335-1.429-0.66s-0.465-0.775-0.465-1.349c-0-0.566 0.153-1.033 0.459-1.4s0.727-0.604 1.263-0.712v-0.906h1.182v0.918c0.497 0.107 0.891 0.339 1.182 0.694 0.291 0.356 0.455 0.817 0.494 1.383h-1.355c-0.03-0.329-0.122-0.568-0.275-0.717s-0.383-0.224-0.689-0.224c-0.283 0-0.501 0.075-0.654 0.224s-0.23 0.362-0.23 0.637c0 0.245 0.073 0.436 0.218 0.574 0.146 0.138 0.383 0.237 0.712 0.298l0.654 0.127c0.574 0.107 1.005 0.325 1.291 0.654 0.287 0.329 0.431 0.78 0.431 1.354-0 0.612-0.157 1.102-0.471 1.469zm3.719 2.112c-0.681-0.367-1.211-0.882-1.59-1.543-0.378-0.662-0.568-1.426-0.568-2.29v-0.804c0-0.864 0.19-1.628 0.568-2.29 0.379-0.661 0.909-1.176 1.59-1.543 0.681-0.368 1.462-0.551 2.342-0.551 0.864-0 1.637 0.182 2.318 0.545s1.213 0.874 1.595 1.532c0.383 0.658 0.574 1.408 0.574 2.25v0.803c0 0.735-0.183 1.295-0.551 1.682-0.367 0.386-0.83 0.579-1.388 0.579-0.345 0-0.639-0.065-0.884-0.195s-0.433-0.313-0.563-0.551c-0.244 0.498-0.734 0.746-1.469 0.746-1.155 0-1.733-0.692-1.733-2.077v-1.01c0-0.658 0.136-1.171 0.408-1.538 0.271-0.367 0.686-0.551 1.245-0.551 0.275 0 0.518 0.054 0.729 0.161 0.21 0.107 0.365 0.248 0.465 0.424v-0.459h1.251v3.271c-0 0.245 0.051 0.427 0.155 0.546 0.103 0.118 0.239 0.178 0.407 0.178 0.214-0 0.375-0.094 0.482-0.282 0.107-0.187 0.161-0.491 0.161-0.912v-0.804c-0-0.65-0.128-1.214-0.385-1.693-0.256-0.478-0.623-0.847-1.102-1.107-0.478-0.26-1.05-0.39-1.715-0.39-1.003-0-1.789 0.287-2.359 0.86-0.57 0.574-0.855 1.359-0.855 2.353v0.815c-0 0.651 0.128 1.221 0.384 1.71 0.257 0.49 0.626 0.869 1.108 1.137s1.056 0.401 1.722 0.401c0.459 0 0.872-0.047 1.239-0.143s0.746-0.243 1.136-0.442l0.505 0.976c-0.443 0.26-0.895 0.451-1.354 0.574-0.459 0.122-0.968 0.183-1.526 0.183-0.88 0-1.661-0.183-2.342-0.551zm3.065-3.741v-0.965c-0-0.681-0.253-1.021-0.758-1.021-0.268-0-0.465 0.09-0.591 0.27-0.126 0.179-0.189 0.426-0.189 0.74v0.941c-0 0.344 0.061 0.608 0.183 0.792 0.123 0.184 0.322 0.276 0.597 0.276 0.505-0 0.758-0.345 0.758-1.033zm4.901-5.188h1.618l-0.275 5.279h-1.068l-0.275-5.279zm0.057 6.427h1.504v1.492h-1.504v-1.492z" fill="#fff"/>
    </g>
</svg>
