<?xml version="1.0" encoding="UTF-8"?>
<!DOCTYPE svg  PUBLIC '-//W3C//DTD SVG 1.1//EN'  'http://www.w3.org/Graphics/SVG/1.1/DTD/svg11.dtd'>
<svg clip-rule="evenodd" fill-rule="evenodd" stroke-linecap="round" stroke-linejoin="round" stroke-miterlimit="1.5" version="1.1" viewBox="0 0 32 32" xml:space="preserve" xmlns="http://www.w3.org/2000/svg" xmlns:serif="http://www.serif.com/">
<metadata>
<rdf:RDF xmlns:cc="http://web.resource.org/cc/" xmlns:dc="http://purl.org/dc/elements/1.1/" xmlns:rdf="http://www.w3.org/1999/02/22-rdf-syntax-ns#">

     <rdf:Description rdf:about="">
       <dc:title>Mutant Standard emoji 2023.12</dc:title>
     </rdf:Description>

    <cc:work rdf:about="">
        <cc:license rdf:resource="http://creativecommons.org/licenses/by-nc-sa/4.0/"/>
        <cc:attributionName>Caius Nocturne</cc:attributionName>
        <cc:attributionURL>http://mutant.tech/</cc:attributionURL>
    </cc:work>

</rdf:RDF>
</metadata>

    <rect id="_1f914_thinking" width="32" height="32" fill="none" serif:id="1f914_thinking"/>
    <clipPath id="_clip1">
        <rect width="32" height="32"/>
    </clipPath>
    <g clip-path="url(#_clip1)">
        <path d="m5.464 23.36c-2.185-2.22-3.464-5.164-3.464-8.411 0-11.953 11-12.949 14-12.949s14 0.996 14 12.949c0 6.973-5.9 12.551-14 12.551-1.406-0-2.746-0.168-4-0.482v2.982c0 0.53-0.211 1.039-0.586 1.414s-0.884 0.586-1.414 0.586h-4c-1.105-0-2-0.895-2-2v-2.942c0-1.392 0.536-2.71 1.464-3.698z" fill="none" stroke="#000" stroke-width="4px"/>
        <path d="m4.177 21.821c-1.391-1.969-2.177-4.328-2.177-6.872-0-11.953 11-12.949 14-12.949s14 0.996 14 12.949c0 6.563-5.226 11.89-12.594 12.494 0.384-0.572-12.806-6.043-13.229-5.622z" fill="none" stroke="#000" stroke-width="4px"/>
        <path d="m4.177 21.821c-1.391-1.969-2.177-4.328-2.177-6.872-0-11.953 11-12.949 14-12.949s14 0.996 14 12.949c0 6.563-5.226 11.89-12.594 12.494 0.384-0.572-12.806-6.043-13.229-5.622z" fill="#ffb636"/>
        <path d="m4.177 21.821c0.423-0.421 0.901-0.795 1.427-1.11l1.613-0.964c0.773-0.462 1.734-0.472 2.517-0.028 0.782 0.444 1.266 1.274 1.266 2.174v0.107h3.506c1.93 0 3.494 1.564 3.494 3.494 0 0.699-0.21 1.377-0.594 1.949-0.46 0.038-0.929 0.057-1.406 0.057-5.144-0-9.402-2.25-11.823-5.679z" fill="#694300"/>
        <path d="m26.981 10.988c0.012 0.168 0.019 0.339 0.019 0.512-0 3.036-2.016 5.5-4.5 5.5s-4.5-2.464-4.5-5.5c0-1.859 0.756-3.504 1.913-4.5h5.087c-1.104 0 1.845 5.689 1.981 3.988z" fill="#fff"/>
        <path d="m25 7h0.087l4e-3 4e-3c-0.03-3e-3 -0.061-4e-3 -0.091-4e-3z" fill="#fff"/>
        <path d="m13.98 11h2e-3c0.012 0.165 0.018 0.331 0.018 0.5-0 3.036-2.016 5.5-4.5 5.5s-4.5-2.464-4.5-5.5c-0-0.169 6e-3 -0.335 0.018-0.5h5.002c0.139 1.695 3.821 1.695 3.96 0z" fill="#fff"/>
        <path d="m26.981 10.988c-0.136 1.701-0.972 3.012-1.981 3.012-1.104 0-2-1.568-2-3.5s0.896-3.5 2-3.5c0.03-0 0.061 1e-3 0.091 4e-3 1.047 0.903 1.765 2.339 1.89 3.984z"/>
        <path d="m13.98 11c-0.139 1.695-0.973 3-1.98 3s-1.841-1.305-1.98-3h3.96z"/>
        <path d="m12.061 19.004s2.179-0.315 4.095-0.592c1.793-0.26 3.605 0.328 4.904 1.592h1e-3" fill="none" stroke="#694300" stroke-width="2px"/>
        <path d="m24 3.5c0 0.828-1.12 1.5-2.5 1.5s-2.5-0.672-2.5-1.5 1.12-1.5 2.5-1.5 2.5 0.672 2.5 1.5z"/>
        <path d="m13.665 8.448c-0.414 0.717-1.72 0.739-2.915 0.049s-1.829-1.832-1.415-2.549 1.72-0.739 2.915-0.049c1.195 0.689 1.829 1.832 1.415 2.549z"/>
        <path d="m9 21.883c0-0.18-0.097-0.346-0.254-0.435-0.156-0.089-0.349-0.086-0.503 6e-3 -0.441 0.265-1.027 0.616-1.621 0.973-1.627 0.976-2.622 2.734-2.622 4.631v2.942c0 1.105 0.895 2 2 2h4c0.53-0 1.039-0.211 1.414-0.586s0.586-0.884 0.586-1.414v-3h2.5c0.398 0 0.779-0.158 1.061-0.439 0.281-0.282 0.439-0.663 0.439-1.061s-0.158-0.779-0.439-1.061c-0.282-0.281-0.663-0.439-1.061-0.439h-5.5v-2.117z" fill="#ffb636"/>
    </g>
</svg>
