<?xml version="1.0" encoding="UTF-8"?>
<!DOCTYPE svg  PUBLIC '-//W3C//DTD SVG 1.1//EN'  'http://www.w3.org/Graphics/SVG/1.1/DTD/svg11.dtd'>
<svg clip-rule="evenodd" fill-rule="evenodd" stroke-linecap="round" stroke-linejoin="round" stroke-miterlimit="1.5" version="1.1" viewBox="0 0 32 32" xml:space="preserve" xmlns="http://www.w3.org/2000/svg" xmlns:serif="http://www.serif.com/">
<metadata>
<rdf:RDF xmlns:cc="http://web.resource.org/cc/" xmlns:dc="http://purl.org/dc/elements/1.1/" xmlns:rdf="http://www.w3.org/1999/02/22-rdf-syntax-ns#">

     <rdf:Description rdf:about="">
       <dc:title>Mutant Standard emoji 2023.12</dc:title>
     </rdf:Description>

    <cc:work rdf:about="">
        <cc:license rdf:resource="http://creativecommons.org/licenses/by-nc-sa/4.0/"/>
        <cc:attributionName>Caius Nocturne</cc:attributionName>
        <cc:attributionURL>http://mutant.tech/</cc:attributionURL>
    </cc:work>

</rdf:RDF>
</metadata>

    <rect id="_1f624_triumph" width="32" height="32" fill="none" serif:id="1f624_triumph"/>
    <path d="m15.916 29.604c-8.025-0.067-13.855-5.642-13.855-12.6-0-11.935 7.853-13.978 13.901-14h0.137c6.048 0.022 13.901 2.065 13.901 14-0 6.958-5.83 12.533-13.855 12.6h-0.229z" fill="none" stroke="#000" stroke-width="4px"/>
    <path d="m3.542 26.616c-0.536-0.213-0.968-0.635-1.192-1.175-0.261-0.629-0.208-1.345 0.143-1.929l0.091-0.151c0.34-0.568 0.923-0.947 1.58-1.028 0.467-0.057 0.935 0.041 1.334 0.27l3.502-5.603-0.707 7.073 0.893 0.223c0.66 0.166 1.203 0.634 1.464 1.263s0.208 1.345-0.143 1.929l-0.091 0.151c-0.34 0.568-0.923 0.947-1.58 1.028-0.423 0.052-0.847-0.024-1.22-0.209-0.213 0.536-0.635 0.968-1.175 1.192-0.629 0.261-1.345 0.208-1.929-0.143l-0.151-0.091c-0.568-0.34-0.947-0.923-1.028-1.58-0.052-0.423 0.024-0.847 0.209-1.22z" fill="none" stroke="#000" stroke-width="4px"/>
    <path d="m28.458 26.616c0.536-0.213 0.968-0.635 1.192-1.175 0.261-0.629 0.208-1.345-0.143-1.929l-0.091-0.151c-0.34-0.568-0.923-0.947-1.58-1.028-0.467-0.057-0.935 0.041-1.334 0.27l-3.502-5.603 0.707 7.073-0.893 0.223c-0.66 0.166-1.203 0.634-1.464 1.263s-0.208 1.345 0.143 1.929l0.091 0.151c0.34 0.568 0.923 0.947 1.58 1.028 0.423 0.052 0.847-0.024 1.22-0.209 0.213 0.536 0.635 0.968 1.175 1.192 0.629 0.261 1.345 0.208 1.929-0.143l0.151-0.091c0.568-0.34 0.947-0.923 1.028-1.58 0.052-0.423-0.024-0.847-0.209-1.22z" fill="none" stroke="#000" stroke-width="4px"/>
    <path d="m15.916 29.604c-8.025-0.067-13.855-5.642-13.855-12.6-0-11.935 7.853-13.978 13.901-14h0.137c6.048 0.022 13.901 2.065 13.901 14-0 6.958-5.83 12.533-13.855 12.6h-0.229z" fill="#ffb636"/>
    <path d="m9.543 6.552c-0.414 0.717 0.22 1.86 1.415 2.549 1.195 0.69 2.501 0.668 2.915-0.049s-0.22-1.859-1.415-2.549-2.501-0.668-2.915 0.049z"/>
    <path d="m22.457 6.552c0.414 0.717-0.22 1.86-1.415 2.549-1.195 0.69-2.501 0.668-2.915-0.049s0.22-1.859 1.415-2.549 2.501-0.668 2.915 0.049z"/>
    <path d="m19 12s0.178 0.237 0.446 0.595c1.479 1.972 4.156 2.604 6.361 1.502 0.122-0.062 0.193-0.097 0.193-0.097" fill="none" stroke="#000" stroke-width="2px"/>
    <path d="m13 12s-0.178 0.237-0.446 0.595c-1.479 1.972-4.156 2.604-6.361 1.502-0.122-0.062-0.193-0.097-0.193-0.097" fill="none" stroke="#000" stroke-width="2px"/>
    <path d="m10 21v-0.446c0-0.349 0.165-0.676 0.445-0.884 0.177-0.131 0.4-0.297 0.653-0.485 2.942-2.181 6.97-2.162 9.89 0.049 0.097 0.073 0.19 0.144 0.276 0.209 0.464 0.351 0.736 0.899 0.736 1.48v0.077" fill="none" stroke="#694300" stroke-width="2px"/>
    <path d="m3.542 26.616c-0.536-0.213-0.968-0.635-1.192-1.175-0.261-0.629-0.208-1.345 0.143-1.929l0.091-0.151c0.34-0.568 0.923-0.947 1.58-1.028 0.467-0.057 0.935 0.041 1.334 0.27l3.502-5.603-0.707 7.073 0.893 0.223c0.66 0.166 1.203 0.634 1.464 1.263s0.208 1.345-0.143 1.929l-0.091 0.151c-0.34 0.568-0.923 0.947-1.58 1.028-0.423 0.052-0.847-0.024-1.22-0.209-0.213 0.536-0.635 0.968-1.175 1.192-0.629 0.261-1.345 0.208-1.929-0.143l-0.151-0.091c-0.568-0.34-0.947-0.923-1.028-1.58-0.052-0.423 0.024-0.847 0.209-1.22z" fill="#fff"/>
    <path d="m28.458 26.616c0.536-0.213 0.968-0.635 1.192-1.175 0.261-0.629 0.208-1.345-0.143-1.929l-0.091-0.151c-0.34-0.568-0.923-0.947-1.58-1.028-0.467-0.057-0.935 0.041-1.334 0.27l-3.502-5.603 0.707 7.073-0.893 0.223c-0.66 0.166-1.203 0.634-1.464 1.263s-0.208 1.345 0.143 1.929l0.091 0.151c0.34 0.568 0.923 0.947 1.58 1.028 0.423 0.052 0.847-0.024 1.22-0.209 0.213 0.536 0.635 0.968 1.175 1.192 0.629 0.261 1.345 0.208 1.929-0.143l0.151-0.091c0.568-0.34 0.947-0.923 1.028-1.58 0.052-0.423-0.024-0.847-0.209-1.22z" fill="#fff"/>
</svg>
