<?xml version="1.0" encoding="UTF-8"?>
<!DOCTYPE svg  PUBLIC '-//W3C//DTD SVG 1.1//EN'  'http://www.w3.org/Graphics/SVG/1.1/DTD/svg11.dtd'>
<svg clip-rule="evenodd" fill-rule="evenodd" stroke-linecap="round" stroke-linejoin="round" stroke-miterlimit="1.5" version="1.1" viewBox="0 0 32 32" xml:space="preserve" xmlns="http://www.w3.org/2000/svg" xmlns:serif="http://www.serif.com/">
<metadata>
<rdf:RDF xmlns:cc="http://web.resource.org/cc/" xmlns:dc="http://purl.org/dc/elements/1.1/" xmlns:rdf="http://www.w3.org/1999/02/22-rdf-syntax-ns#">

     <rdf:Description rdf:about="">
       <dc:title>Mutant Standard emoji 2023.12</dc:title>
     </rdf:Description>

    <cc:work rdf:about="">
        <cc:license rdf:resource="http://creativecommons.org/licenses/by-nc-sa/4.0/"/>
        <cc:attributionName>Caius Nocturne</cc:attributionName>
        <cc:attributionURL>http://mutant.tech/</cc:attributionURL>
    </cc:work>

</rdf:RDF>
</metadata>

    <rect id="_1f92e_vomiting" width="32" height="32" fill="none" serif:id="1f92e_vomiting"/>
    <clipPath id="_clip1">
        <rect width="32" height="32"/>
    </clipPath>
    <g clip-path="url(#_clip1)">
        <path d="m11.072 26.426c-1.438-0.359-2.748-0.879-3.898-1.545-1.193-0.691-2.213-1.54-3.024-2.528-1.375-1.675-2.15-3.751-2.15-6.145 0-9.434 7.124-14.208 14-14.208s14 4.774 14 14.208c0 1.81-0.443 3.439-1.254 4.85-1.031 1.795-2.658 3.237-4.721 4.251-0.946 0.465-1.983 0.839-3.097 1.117l0.472 1.574h4.775c0.474-0 0.9 0.285 1.081 0.722s0.081 0.941-0.253 1.275l-3e-3 3e-3h-22l-3e-3 -3e-3c-0.334-0.334-0.434-0.838-0.253-1.275s0.607-0.722 1.081-0.722h4.775l0.472-1.574zm15.635-2.719c0.78-0.781 1.889-0.939 2.475-0.354 0.585 0.586 0.427 1.695-0.354 2.475-0.78 0.781-1.889 0.939-2.475 0.354-0.585-0.586-0.427-1.695 0.354-2.475zm-24 3.354c-0.781-0.781-0.939-1.89-0.354-2.475 0.586-0.586 1.695-0.427 2.475 0.353 0.781 0.781 0.939 1.89 0.354 2.475-0.586 0.586-1.695 0.427-2.475-0.353z" fill="none" stroke="#000" stroke-width="4px"/>
        <path d="m4.15 22.353c-1.375-1.675-2.15-3.751-2.15-6.145 0-9.434 7.124-14.208 14-14.208s14 4.774 14 14.208c0 1.81-0.443 3.439-1.254 4.85-1.138-0.154-4.738 3.228-4.721 4.251-2.23 1.096-4.971 1.691-8.025 1.691-3.43-0-6.466-0.751-8.826-2.119-0.208-0.479-2.289-2.363-3.024-2.528z" fill="none" stroke="#000" stroke-width="4px"/>
        <path d="m4.15 22.353c-1.375-1.675-2.15-3.751-2.15-6.145 0-9.434 7.124-14.208 14-14.208s14 4.774 14 14.208c0 1.81-0.443 3.439-1.254 4.85-1.138-0.154-4.738 3.228-4.721 4.251-2.23 1.096-4.971 1.691-8.025 1.691-3.43-0-6.466-0.751-8.826-2.119-0.208-0.479-2.289-2.363-3.024-2.528z" fill="#ffb636"/>
        <path d="m24.025 25.309c-0.017-1.023 0.378-2.126 1.268-3.016 1.018-1.019 2.315-1.389 3.453-1.235-1.031 1.795-2.658 3.237-4.721 4.251zm-16.851-0.428c-1.193-0.691-2.213-1.54-3.024-2.528 0.735 0.165 1.466 0.546 2.092 1.172 0.416 0.416 0.724 0.877 0.932 1.356z" fill="#694300"/>
        <path d="m11.366 25.324c-0.45 0.129-0.935-7e-3 -1.252-0.352-0.318-0.344-0.414-0.838-0.25-1.276 0.239-0.636 0.504-1.343 0.763-2.036 0.826-2.201 2.931-3.66 5.282-3.66h0.182c2.351 0 4.456 1.459 5.282 3.66 0.259 0.693 0.524 1.4 0.763 2.036 0.164 0.438 0.068 0.932-0.25 1.276-0.317 0.345-0.802 0.481-1.252 0.352-0.747-0.213-1.571-0.449-2.315-0.661-1.516-0.433-3.122-0.433-4.638-0-0.744 0.212-1.568 0.448-2.315 0.661z"/>
        <path d="m9.941 8.232c-0.586 0.586-0.269 1.853 0.707 2.829 0.975 0.975 2.243 1.292 2.828 0.707 0.585-0.586 0.269-1.853-0.707-2.829-0.976-0.975-2.243-1.292-2.828-0.707z"/>
        <path d="m22.059 8.232c0.586 0.586 0.269 1.853-0.707 2.829-0.975 0.975-2.243 1.292-2.828 0.707-0.585-0.586-0.269-1.853 0.707-2.829 0.976-0.975 2.243-1.292 2.828-0.707z"/>
        <path d="m19 15.996s2e-3 -4e-3 6e-3 -0.01c1.196-1.793 3.39-2.641 5.481-2.119 0.312 0.078 0.513 0.129 0.513 0.129" fill="none" stroke="#000" stroke-width="2px"/>
        <path d="m13 16s-2e-3 -3e-3 -6e-3 -0.01c-1.196-1.793-3.39-2.641-5.481-2.118-0.312 0.078-0.513 0.128-0.513 0.128" fill="none" stroke="#000" stroke-width="2px"/>
        <path d="m26.175 28h-20.35c-0.474-0-0.9 0.285-1.081 0.722s-0.081 0.941 0.253 1.275l3e-3 3e-3h22l3e-3 -3e-3c0.334-0.334 0.434-0.838 0.253-1.275s-0.607-0.722-1.081-0.722z" fill="#8cc31c"/>
        <path d="m12.185 22.716c0.484-1.612 1.967-2.716 3.65-2.716h0.33c1.683-0 3.166 1.104 3.65 2.716 0.888 2.961 2.185 7.284 2.185 7.284h-12s1.297-4.323 2.185-7.284z" fill="#8cc31c"/>
        <clipPath id="_clip2">
            <path d="m12.185 22.716c0.484-1.612 1.967-2.716 3.65-2.716h0.33c1.683-0 3.166 1.104 3.65 2.716 0.888 2.961 2.185 7.284 2.185 7.284h-12s1.297-4.323 2.185-7.284z"/>
        </clipPath>
        <g clip-path="url(#_clip2)" fill="none" stroke="#668e14" stroke-width="2px">
            <path d="m15 21c-0.858 1.863-1.104 3.498-1 5"/>
            <path d="m18.204 24.745c0.592 2.121 0.807 3.69 0.624 5.767"/>
        </g>
        <path d="m26.707 23.707c0.78-0.781 1.889-0.939 2.475-0.354 0.585 0.586 0.427 1.695-0.354 2.475-0.78 0.781-1.889 0.939-2.475 0.354-0.585-0.586-0.427-1.695 0.354-2.475z" fill="#8cc31c"/>
        <path d="m2.707 27.061c-0.781-0.781-0.939-1.89-0.354-2.475 0.586-0.586 1.695-0.427 2.475 0.353 0.781 0.781 0.939 1.89 0.354 2.475-0.586 0.586-1.695 0.427-2.475-0.353z" fill="#8cc31c"/>
    </g>
</svg>
