<?xml version="1.0" encoding="UTF-8"?>
<!DOCTYPE svg  PUBLIC '-//W3C//DTD SVG 1.1//EN'  'http://www.w3.org/Graphics/SVG/1.1/DTD/svg11.dtd'>
<svg clip-rule="evenodd" fill-rule="evenodd" stroke-linecap="round" stroke-linejoin="round" stroke-miterlimit="1.5" version="1.1" viewBox="0 0 32 32" xml:space="preserve" xmlns="http://www.w3.org/2000/svg" xmlns:serif="http://www.serif.com/">
<metadata>
<rdf:RDF xmlns:cc="http://web.resource.org/cc/" xmlns:dc="http://purl.org/dc/elements/1.1/" xmlns:rdf="http://www.w3.org/1999/02/22-rdf-syntax-ns#">

     <rdf:Description rdf:about="">
       <dc:title>Mutant Standard emoji 2023.12</dc:title>
     </rdf:Description>

    <cc:work rdf:about="">
        <cc:license rdf:resource="http://creativecommons.org/licenses/by-nc-sa/4.0/"/>
        <cc:attributionName>Caius Nocturne</cc:attributionName>
        <cc:attributionURL>http://mutant.tech/</cc:attributionURL>
    </cc:work>

</rdf:RDF>
</metadata>

    <rect id="_1f629_weary" width="32" height="32" fill="none" serif:id="1f629_weary"/>
    <clipPath id="_clip1">
        <rect width="32" height="32"/>
    </clipPath>
    <g clip-path="url(#_clip1)">
        <path d="m16 29.5c-10.46 0-14-4.764-14-11.5 0-8.538 7.64-14 14-14s14 5.462 14 14c0 6.736-3.54 11.5-14 11.5z" fill="none" stroke="#000" stroke-width="4px"/>
        <path d="m16 29.5c-10.46 0-14-4.764-14-11.5 0-8.538 7.64-14 14-14s14 5.462 14 14c0 6.736-3.54 11.5-14 11.5z" fill="#ffb636"/>
        <path d="m13 15s-0.263 1.571-2.236 2.508c-2.56 1.217-4.764-0.508-4.764-0.508" fill="none" stroke="#000" stroke-width="2px"/>
        <path d="m19 15s0.263 1.571 2.236 2.508c2.56 1.217 4.764-0.508 4.764-0.508" fill="none" stroke="#000" stroke-width="2px"/>
        <path d="m8.21 12.44c0.414 0.717 1.72 0.739 2.915 0.049s1.829-1.832 1.415-2.549-1.72-0.739-2.915-0.049-1.829 1.832-1.415 2.549z"/>
        <path d="m23.79 12.44c-0.414 0.717-1.72 0.739-2.915 0.049s-1.829-1.832-1.415-2.549 1.72-0.739 2.915-0.049 1.829 1.832 1.415 2.549z"/>
        <path d="m11.201 27h-0.171c-0.689 0-1.334-0.338-1.726-0.904s-0.482-1.288-0.24-1.933l0.231-0.616c1.025-2.735 3.64-4.547 6.561-4.547h0.288c2.921 0 5.536 1.812 6.561 4.547l0.231 0.616c0.242 0.645 0.152 1.367-0.24 1.933s-1.037 0.904-1.726 0.904h-0.171l-4.884-1-4.714 1z"/>
        <path d="m20.799 27-0.347-0.578c-0.901-1.5-2.523-2.418-4.272-2.418h-0.36c-1.749 0-3.371 0.918-4.272 2.418l-0.347 0.578h9.598z" fill="#c33700"/>
    </g>
</svg>
