<?xml version="1.0" encoding="UTF-8"?>
<!DOCTYPE svg  PUBLIC '-//W3C//DTD SVG 1.1//EN'  'http://www.w3.org/Graphics/SVG/1.1/DTD/svg11.dtd'>
<svg clip-rule="evenodd" fill-rule="evenodd" stroke-linecap="round" stroke-linejoin="round" stroke-miterlimit="1.5" version="1.1" viewBox="0 0 32 32" xml:space="preserve" xmlns="http://www.w3.org/2000/svg" xmlns:serif="http://www.serif.com/">
<metadata>
<rdf:RDF xmlns:cc="http://web.resource.org/cc/" xmlns:dc="http://purl.org/dc/elements/1.1/" xmlns:rdf="http://www.w3.org/1999/02/22-rdf-syntax-ns#">

     <rdf:Description rdf:about="">
       <dc:title>Mutant Standard emoji 2023.12</dc:title>
     </rdf:Description>

    <cc:work rdf:about="">
        <cc:license rdf:resource="http://creativecommons.org/licenses/by-nc-sa/4.0/"/>
        <cc:attributionName>Caius Nocturne</cc:attributionName>
        <cc:attributionURL>http://mutant.tech/</cc:attributionURL>
    </cc:work>

</rdf:RDF>
</metadata>

    <rect id="_1f971_yawn" width="32" height="32" fill="none" serif:id="1f971_yawn"/>
    <clipPath id="_clip1">
        <rect width="32" height="32"/>
    </clipPath>
    <g clip-path="url(#_clip1)">
        <path d="m10.668 28.662c-1.135-0.379-2.186-0.879-3.135-1.481-3.425-2.173-5.533-5.683-5.533-9.709 0-8.538 7.64-13.472 14-13.472s14 4.934 14 13.472c0 4.752-2.937 8.786-7.511 10.75-1.203 0.516-2.519 0.889-3.925 1.095-1.005 0.82-2.266 1.277-3.576 1.283-1.521 8e-3 -2.981-0.593-4.057-1.669l-0.108-0.108c-0.053-0.053-0.105-0.107-0.155-0.161z" fill="none" stroke="#000" stroke-width="4px"/>
        <path d="m7.533 27.181c-3.425-2.173-5.533-5.683-5.533-9.709 0-8.538 7.64-13.472 14-13.472s14 4.934 14 13.472c0 4.752-2.937 8.786-7.511 10.75-0-0-15.548-2.858-14.956-1.041z" fill="none" stroke="#000" stroke-width="4px"/>
        <path d="m7.533 27.181c-3.425-2.173-5.533-5.683-5.533-9.709 0-8.538 7.64-13.472 14-13.472s14 4.934 14 13.472c0 4.752-2.937 8.786-7.511 10.75-0-0-15.548-2.858-14.956-1.041z" fill="#ffb636"/>
        <path d="m7.533 27.181c-0.592-1.817-0.502-3.834 0.343-5.644l1.03-2.207c0.454-0.974 1.355-1.666 2.414-1.852 0.975-0.172 1.971 0.104 2.716 0.743 1.133-0.862 2.524-1.336 3.964-1.335 1.738-0 3.404 0.69 4.633 1.919l0.024 0.024c2.529 2.529 2.549 6.623 0.044 9.176l-0.212 0.217c-1.91 0.819-4.104 1.278-6.489 1.278-3.259 0-6.161-0.857-8.467-2.319z" fill="#694300"/>
        <path d="m7.011 21.774c-7e-3 -0.077-0.011-0.155-0.011-0.236 0-3.933 4.423-7.538 9-7.538s9 3.605 9 7.538c0 0.081-4e-3 0.159-0.011 0.236 7e-3 0.061 0.011 0.124 0.011 0.188 0 3.151-4.423 6.038-9 6.038s-9-2.887-9-6.038c0-0.064 4e-3 -0.127 0.011-0.188z"/>
        <path d="m12.5 10c-0.94 1.999-2.524 3.144-5 3" fill="none" stroke="#000" stroke-width="2px"/>
        <path d="m19.5 10c0.94 1.999 2.524 3.144 5 3" fill="none" stroke="#000" stroke-width="2px"/>
        <path d="m14.781 20.219c0.854-0.854 2.012-1.334 3.219-1.333 1.207-0 2.365 0.479 3.219 1.333l0.024 0.024c1.753 1.753 1.767 4.591 0.031 6.361-0.719 0.733-1.494 1.523-2.245 2.288-1.065 1.086-2.52 1.701-4.041 1.708-1.521 8e-3 -2.981-0.593-4.057-1.669l-0.108-0.108c-1.695-1.695-2.148-4.269-1.135-6.44 0.36-0.772 0.724-1.552 1.03-2.208 0.179-0.382 0.533-0.654 0.949-0.727 0.416-0.074 0.842 0.061 1.14 0.359l1.193 1.193 0.781-0.781z" fill="#ffb636"/>
        <path d="m8.543 7.448c0.414 0.717 1.72 0.739 2.915 0.049s1.829-1.832 1.415-2.549-1.72-0.739-2.915-0.049c-1.195 0.689-1.829 1.832-1.415 2.549z"/>
        <path d="m23.457 7.448c-0.414 0.717-1.72 0.739-2.915 0.049s-1.829-1.832-1.415-2.549 1.72-0.739 2.915-0.049c1.195 0.689 1.829 1.832 1.415 2.549z"/>
    </g>
</svg>
