<?xml version="1.0" encoding="UTF-8"?>
<!DOCTYPE svg  PUBLIC '-//W3C//DTD SVG 1.1//EN'  'http://www.w3.org/Graphics/SVG/1.1/DTD/svg11.dtd'>
<svg clip-rule="evenodd" fill-rule="evenodd" stroke-linecap="round" stroke-linejoin="round" stroke-miterlimit="1.5" version="1.1" viewBox="0 0 32 32" xml:space="preserve" xmlns="http://www.w3.org/2000/svg" xmlns:serif="http://www.serif.com/">
<metadata>
<rdf:RDF xmlns:cc="http://web.resource.org/cc/" xmlns:dc="http://purl.org/dc/elements/1.1/" xmlns:rdf="http://www.w3.org/1999/02/22-rdf-syntax-ns#">

     <rdf:Description rdf:about="">
       <dc:title>Mutant Standard emoji 2023.12</dc:title>
     </rdf:Description>

    <cc:work rdf:about="">
        <cc:license rdf:resource="http://creativecommons.org/licenses/by-nc-sa/4.0/"/>
        <cc:attributionName>Caius Nocturne</cc:attributionName>
        <cc:attributionURL>http://mutant.tech/</cc:attributionURL>
    </cc:work>

</rdf:RDF>
</metadata>

    <rect id="_1f60b_yum" width="32" height="32" fill="none" serif:id="1f60b_yum"/>
    <clipPath id="_clip1">
        <rect width="32" height="32"/>
    </clipPath>
    <g clip-path="url(#_clip1)">
        <path d="m16 30c-8.1-0-14-5.604-14-12.736 0-9.04 7.64-14.264 14-14.264s14 5.224 14 14.264c0 7.132-5.9 12.736-14 12.736z" fill="none" stroke="#000" stroke-width="4px"/>
        <path d="m16 30c-8.1-0-14-5.604-14-12.736 0-9.04 7.64-14.264 14-14.264s14 5.224 14 14.264c0 7.132-5.9 12.736-14 12.736z" fill="#ffb636"/>
        <path d="m17 24s0.707 1.179 1.435 2.391c0.883 1.472 2.751 2.016 4.286 1.248 0.035-0.017 0.071-0.035 0.106-0.052 0.818-0.41 1.429-1.142 1.685-2.02 0.256-0.879 0.134-1.824-0.337-2.609-0.628-1.046-1.175-1.958-1.175-1.958l-6 3z" fill="#c33700"/>
        
            <g fill="none" stroke="#694300" stroke-width="2px">
                <path d="m8 19c-0 2.5 3.458 5 8 5"/>
                <path d="m24 19c-0 2.5-4.103 5-8 5"/>
            </g>
        
        <path d="m19 15c0.755-1.006 1.908-1.635 3.162-1.724s2.484 0.37 3.373 1.259l0.465 0.465" fill="none" stroke="#000" stroke-width="2px"/>
        <path d="m13 15c-0.755-1.006-1.908-1.635-3.162-1.724s-2.484 0.37-3.373 1.259l-0.465 0.465" fill="none" stroke="#000" stroke-width="2px"/>
        <path d="m8.293 8.845c0.215 0.799 1.471 1.159 2.804 0.801 1.332-0.357 2.24-1.296 2.026-2.095-0.214-0.8-1.47-1.159-2.803-0.802s-2.241 1.296-2.027 2.096z"/>
        <path d="m23.707 8.845c-0.215 0.799-1.471 1.159-2.804 0.801-1.332-0.357-2.24-1.296-2.026-2.095 0.214-0.8 1.47-1.159 2.803-0.802s2.241 1.296 2.027 2.096z"/>
    </g>
</svg>
