<?xml version="1.0" encoding="UTF-8"?>
<!DOCTYPE svg  PUBLIC '-//W3C//DTD SVG 1.1//EN'  'http://www.w3.org/Graphics/SVG/1.1/DTD/svg11.dtd'>
<svg clip-rule="evenodd" fill-rule="evenodd" stroke-linecap="round" stroke-linejoin="round" stroke-miterlimit="1.5" version="1.1" viewBox="0 0 32 32" xml:space="preserve" xmlns="http://www.w3.org/2000/svg" xmlns:serif="http://www.serif.com/">
<metadata>
<rdf:RDF xmlns:cc="http://web.resource.org/cc/" xmlns:dc="http://purl.org/dc/elements/1.1/" xmlns:rdf="http://www.w3.org/1999/02/22-rdf-syntax-ns#">

     <rdf:Description rdf:about="">
       <dc:title>Mutant Standard emoji 2023.12</dc:title>
     </rdf:Description>

    <cc:work rdf:about="">
        <cc:license rdf:resource="http://creativecommons.org/licenses/by-nc-sa/4.0/"/>
        <cc:attributionName>Caius Nocturne</cc:attributionName>
        <cc:attributionURL>http://mutant.tech/</cc:attributionURL>
    </cc:work>

</rdf:RDF>
</metadata>

    <rect id="_1f910_zippy_face" width="32" height="32" fill="none" serif:id="1f910_zippy_face"/>
    <path d="m26.492 22.118c-0.396-0.396-0.932-0.618-1.492-0.618s-1.096 0.222-1.492 0.618c-5e-3 5e-3 -0.011 0.01-0.016 0.016-0.396 0.395-0.618 0.932-0.618 1.492s0.222 1.096 0.618 1.492c0.978 0.978 2.203 2.202 2.916 2.916 0.157 0.157 0.37 0.245 0.592 0.245s0.435-0.088 0.592-0.245l1.816-1.816c0.157-0.157 0.245-0.37 0.245-0.592s-0.088-0.435-0.245-0.592c-0.713-0.714-1.938-1.938-2.916-2.916z" fill="none" stroke="#000" stroke-width="4px"/>
    <path d="m16 29.5c-8.1 0-14-5.5-14-12.5 0-8.873 7.64-14 14-14s14 5.127 14 14c0 7-5.9 12.5-14 12.5z" fill="none" stroke="#000" stroke-width="4px"/>
    <path d="m16 29.5c-8.1 0-14-5.5-14-12.5 0-8.873 7.64-14 14-14s14 5.127 14 14c0 7-5.9 12.5-14 12.5z" fill="#ffb636"/>
    <g id="zipper">
        <path d="m8.5 20c-0-0.552-0.448-1-1-1h-0.5c-0.552-0-1 0.448-1 1v2.5c-0 0.133 0.053 0.26 0.146 0.354 0.094 0.093 0.221 0.146 0.354 0.146h1.5c0.133-0 0.26-0.053 0.354-0.146 0.093-0.094 0.146-0.221 0.146-0.354v-2.5z" fill="#717171"/>
        <path d="m13.5 20c-0-0.552-0.448-1-1-1h-0.5c-0.552-0-1 0.448-1 1v2.5c-0 0.133 0.053 0.26 0.146 0.354 0.094 0.093 0.221 0.146 0.354 0.146h1.5c0.133-0 0.26-0.053 0.354-0.146 0.093-0.094 0.146-0.221 0.146-0.354v-2.5z" fill="#717171"/>
        <path d="m18.5 20c-0-0.552-0.448-1-1-1h-0.5c-0.552-0-1 0.448-1 1v2.5c-0 0.133 0.053 0.26 0.146 0.354 0.094 0.093 0.221 0.146 0.354 0.146h1.5c0.133-0 0.26-0.053 0.354-0.146 0.093-0.094 0.146-0.221 0.146-0.354v-2.5z" fill="#717171"/>
        <path d="m23.5 20c-0-0.552-0.448-1-1-1h-0.5c-0.552-0-1 0.448-1 1v2.5c-0 0.133 0.053 0.26 0.146 0.354 0.094 0.093 0.221 0.146 0.354 0.146h1.5c0.133-0 0.26-0.053 0.354-0.146 0.093-0.094 0.146-0.221 0.146-0.354v-2.5z" fill="#717171"/>
        <path d="m11 21.5c0-0.133-0.053-0.26-0.146-0.354-0.094-0.093-0.221-0.146-0.354-0.146h-1.5c-0.133 0-0.26 0.053-0.354 0.146-0.093 0.094-0.146 0.221-0.146 0.354v2.5c0 0.552 0.448 1 1 1h0.5c0.552 0 1-0.448 1-1v-2.5z" fill="#717171"/>
        <path d="m16 21.5c0-0.133-0.053-0.26-0.146-0.354-0.094-0.093-0.221-0.146-0.354-0.146h-1.5c-0.133 0-0.26 0.053-0.354 0.146-0.093 0.094-0.146 0.221-0.146 0.354v2.5c0 0.552 0.448 1 1 1h0.5c0.552 0 1-0.448 1-1v-2.5z" fill="#717171"/>
        <path d="m21 21.5c0-0.133-0.053-0.26-0.146-0.354-0.094-0.093-0.221-0.146-0.354-0.146h-1.5c-0.133 0-0.26 0.053-0.354 0.146-0.093 0.094-0.146 0.221-0.146 0.354v2.5c0 0.552 0.448 1 1 1h0.5c0.552 0 1-0.448 1-1v-2.5z" fill="#717171"/>
        <path d="m26.492 22.118c-0.396-0.396-0.932-0.618-1.492-0.618s-1.096 0.222-1.492 0.618c-5e-3 5e-3 -0.011 0.01-0.016 0.016-0.396 0.395-0.618 0.932-0.618 1.492s0.222 1.096 0.618 1.492c0.978 0.978 2.203 2.202 2.916 2.916 0.157 0.157 0.37 0.245 0.592 0.245s0.435-0.088 0.592-0.245l1.816-1.816c0.157-0.157 0.245-0.37 0.245-0.592s-0.088-0.435-0.245-0.592c-0.713-0.714-1.938-1.938-2.916-2.916z" fill="#717171"/>
        <circle cx="25" cy="23.626" r="1" fill="#ffb636"/>
    </g>
    <rect x="17" y="6.5" width="11" height="12" fill="none"/>
    <clipPath id="_clip1">
        <rect x="17" y="6.5" width="11" height="12"/>
    </clipPath>
    <g clip-path="url(#_clip1)">
        <ellipse cx="22.5" cy="13" rx="4.5" ry="5.5" fill="#fff"/>
        <circle cx="21.5" cy="13" r="2.5"/>
    </g>
    <rect x="4" y="6.5" width="11" height="12" fill="none"/>
    <clipPath id="_clip2">
        <rect x="4" y="6.5" width="11" height="12"/>
    </clipPath>
    <g clip-path="url(#_clip2)">
        <ellipse cx="9.5" cy="13" rx="4.5" ry="5.5" fill="#fff"/>
        <circle cx="10.5" cy="13" r="2.5"/>
    </g>
    <rect x="6" y="21.5" width="17.5" height="1" fill="#717171"/>
</svg>
