<?xml version="1.0" encoding="UTF-8"?>
<!DOCTYPE svg  PUBLIC '-//W3C//DTD SVG 1.1//EN'  'http://www.w3.org/Graphics/SVG/1.1/DTD/svg11.dtd'>
<svg clip-rule="evenodd" fill-rule="evenodd" stroke-miterlimit="1.5" version="1.1" viewBox="0 0 32 32" xml:space="preserve" xmlns="http://www.w3.org/2000/svg">
<metadata>
<rdf:RDF xmlns:cc="http://web.resource.org/cc/" xmlns:dc="http://purl.org/dc/elements/1.1/" xmlns:rdf="http://www.w3.org/1999/02/22-rdf-syntax-ns#">

     <rdf:Description rdf:about="">
       <dc:title>Mutant Standard emoji 2023.12</dc:title>
     </rdf:Description>

    <cc:work rdf:about="">
        <cc:license rdf:resource="http://creativecommons.org/licenses/by-nc-sa/4.0/"/>
        <cc:attributionName>Caius Nocturne</cc:attributionName>
        <cc:attributionURL>http://mutant.tech/</cc:attributionURL>
    </cc:work>

</rdf:RDF>
</metadata>

    <rect id="gryphon" width="32" height="32" fill="none"/>
    <clipPath id="_clip1">
        <rect width="32" height="32"/>
    </clipPath>
    <g clip-path="url(#_clip1)">
        <g id="outline" fill="none" stroke="#000" stroke-width="4px">
            <path d="m5 14 9 2v-6h-10v2l1 2z"/>
            <path d="m14 7h-4.584c-0.931 0-1.85 0.217-2.683 0.633-1.76 0.881-4.733 2.367-4.733 2.367l3 6v-3h9v-6" stroke-linejoin="round"/>
            <path d="m30 14c0-2.387-0.948-4.676-2.636-6.364s-3.977-2.636-6.364-2.636h-1.639c-1.553 0-3.084 0.361-4.472 1.056-0.962 0.48-1.889 0.944-1.889 0.944v6.757c0 0.796 0.316 1.559 0.879 2.122l0.535 0.535c0.375 0.375 0.586 0.884 0.586 1.414v3.172l12 4 3 3v-4.882c0-1.399-0.267-2.786-0.787-4.085-0.56-1.4-1.213-3.033-1.213-3.033l2 1v-3z" stroke-linejoin="round"/>
            <path d="m27 25h-12.846-2.154v5h15v-5z"/>
            <path d="m14 16h3v14h-5v-3l-2 2v-1.494c0-3.416 1.792-6.581 4.721-8.339 0.173-0.104 0.279-0.29 0.279-0.492v-0.847c0-0.53-0.211-1.039-0.586-1.414l-0.414-0.414z" stroke-linejoin="round"/>
            <path d="m20 5h10l-2.243 2.243c-1.125 1.125-2.651 1.757-4.242 1.757h-3.515v-4z" stroke-linejoin="round"/>
        </g>
        <g id="emoji">
            <path d="m5 14 9 2v-6h-10v2l1 2z" fill="#726123"/>
            <path d="m14 7h-4.584c-0.931 0-1.85 0.217-2.683 0.633-1.76 0.881-4.733 2.367-4.733 2.367l3 6v-3h9v-6" fill="#a48233"/>
            <path d="m30 14c0-2.387-0.948-4.676-2.636-6.364s-3.977-2.636-6.364-2.636h-1.639c-1.553 0-3.084 0.361-4.472 1.056-0.962 0.48-1.889 0.944-1.889 0.944v6.757c0 0.796 0.316 1.559 0.879 2.122l0.535 0.535c0.375 0.375 0.586 0.884 0.586 1.414v2.172c0 0.649-0.211 1.281-0.6 1.8-0.344 0.458-0.788 1.05-1.2 1.6-0.779 1.039-1.2 2.302-1.2 3.6v3h15v-5l3 3v-4.882c0-1.399-0.267-2.786-0.787-4.085-0.56-1.4-1.213-3.033-1.213-3.033l2 1v-3z" fill="#835118"/>
            <path d="m14 16h1e-3c1.819 0 3.464 1.084 4.18 2.756 0.84 1.959 1.819 4.244 1.819 4.244h-2l2.333 7h-8.333v-3l-2 2v-1.494c0-3.416 1.792-6.581 4.721-8.339 0.173-0.104 0.279-0.29 0.279-0.492v-0.847c0-0.53-0.211-1.039-0.586-1.414l-0.414-0.414z" fill="#c69359"/>
            <path d="m20 5h10l-2.243 2.243c-1.125 1.125-2.651 1.757-4.242 1.757h-3.515v-4z" fill="#835118"/>
            <path d="m12 8.5c0-0.133-0.053-0.26-0.146-0.354-0.094-0.093-0.221-0.146-0.354-0.146h-1c-0.133 0-0.26 0.053-0.354 0.146-0.093 0.094-0.146 0.221-0.146 0.354s0.053 0.26 0.146 0.354c0.094 0.093 0.221 0.146 0.354 0.146h1c0.133 0 0.26-0.053 0.354-0.146 0.093-0.094 0.146-0.221 0.146-0.354z" fill="#726123"/>
            <path d="m17 9h2c1.105 0 2-0.895 2-2h-3c-0.552 0-1 0.448-1 1v1z"/>
        </g>
    </g>
</svg>
