<?xml version="1.0" encoding="UTF-8"?>
<!DOCTYPE svg  PUBLIC '-//W3C//DTD SVG 1.1//EN'  'http://www.w3.org/Graphics/SVG/1.1/DTD/svg11.dtd'>
<svg clip-rule="evenodd" fill-rule="evenodd" stroke-linecap="round" version="1.1" viewBox="0 0 32 32" xml:space="preserve" xmlns="http://www.w3.org/2000/svg">
<metadata>
<rdf:RDF xmlns:cc="http://web.resource.org/cc/" xmlns:dc="http://purl.org/dc/elements/1.1/" xmlns:rdf="http://www.w3.org/1999/02/22-rdf-syntax-ns#">

     <rdf:Description rdf:about="">
       <dc:title>Mutant Standard emoji 2023.12</dc:title>
     </rdf:Description>

    <cc:work rdf:about="">
        <cc:license rdf:resource="http://creativecommons.org/licenses/by-nc-sa/4.0/"/>
        <cc:attributionName>Caius Nocturne</cc:attributionName>
        <cc:attributionURL>http://mutant.tech/</cc:attributionURL>
    </cc:work>

</rdf:RDF>
</metadata>
<rect id="slime" width="32" height="32" fill="none"/><clipPath id="_clip1"><rect width="32" height="32"/></clipPath><g clip-path="url(#_clip1)"><g id="outline"><path d="m2.656 22.607c-0.432-2.377-0.353-4.82 0.233-7.164 0.254-1.014 0.542-2.167 0.839-3.353 1.335-5.342 6.135-9.09 11.641-9.09h1.262c5.506 0 10.306 3.748 11.641 9.09 0.297 1.186 0.585 2.339 0.839 3.353 0.586 2.344 0.665 4.787 0.233 7.164-0.166 0.912-0.346 1.904-0.519 2.855-0.207 1.141-0.9 2.136-1.897 2.727-0.998 0.59-2.203 0.719-3.303 0.353-0.125-0.042-0.245-0.082-0.36-0.12-0.821-0.274-1.709-0.274-2.53 0-1.021 0.34-2.449 0.816-3.47 1.156-0.821 0.274-1.709 0.274-2.53 0-1.021-0.34-2.449-0.816-3.47-1.156-0.821-0.274-1.709-0.274-2.53 0-0.115 0.038-0.235 0.078-0.36 0.12-1.1 0.366-2.305 0.237-3.303-0.353-0.997-0.591-1.69-1.586-1.897-2.727-0.173-0.951-0.353-1.943-0.519-2.855z" fill="none" stroke="#000" stroke-width="4px"/></g><g id="emoji"><path d="m2.656 22.607c-0.432-2.377-0.353-4.82 0.233-7.164 0.254-1.014 0.542-2.167 0.839-3.353 1.335-5.342 6.135-9.09 11.641-9.09h1.262c5.506 0 10.306 3.748 11.641 9.09 0.297 1.186 0.585 2.339 0.839 3.353 0.586 2.344 0.665 4.787 0.233 7.164-0.166 0.912-0.346 1.904-0.519 2.855-0.207 1.141-0.9 2.136-1.897 2.727-0.998 0.59-2.203 0.719-3.303 0.353-0.125-0.042-0.245-0.082-0.36-0.12-0.821-0.274-1.709-0.274-2.53 0-1.021 0.34-2.449 0.816-3.47 1.156-0.821 0.274-1.709 0.274-2.53 0-1.021-0.34-2.449-0.816-3.47-1.156-0.821-0.274-1.709-0.274-2.53 0-0.115 0.038-0.235 0.078-0.36 0.12-1.1 0.366-2.305 0.237-3.303-0.353-0.997-0.591-1.69-1.586-1.897-2.727-0.173-0.951-0.353-1.943-0.519-2.855z" fill="#2af237"/><path d="m12 11.5c0-0.828-0.672-1.5-1.5-1.5s-1.5 0.672-1.5 1.5v3c0 0.828 0.672 1.5 1.5 1.5s1.5-0.672 1.5-1.5v-3z"/><path d="m23 11.5c0-0.828-0.672-1.5-1.5-1.5s-1.5 0.672-1.5 1.5v3c0 0.828 0.672 1.5 1.5 1.5s1.5-0.672 1.5-1.5v-3z"/><path d="m9 19 2.031 2.031c0.579 0.579 1.463 0.722 2.194 0.356 0.623-0.311 1.365-0.682 1.925-0.962 0.535-0.268 1.165-0.268 1.7 0 0.56 0.28 1.302 0.651 1.925 0.962 0.731 0.366 1.615 0.223 2.194-0.356l2.031-2.031" fill="none" stroke="#000" stroke-width="2px"/><path d="m15.5 5h-2e-3c-5.246 0-9.498 4.252-9.498 9.498v0.502" fill="none" stroke="#9df78b" stroke-width="2px"/></g></g></svg>
