<?xml version="1.0" encoding="UTF-8"?>
<!DOCTYPE svg  PUBLIC '-//W3C//DTD SVG 1.1//EN'  'http://www.w3.org/Graphics/SVG/1.1/DTD/svg11.dtd'>
<svg clip-rule="evenodd" fill-rule="evenodd" stroke-linecap="round" stroke-linejoin="round" stroke-miterlimit="1.5" version="1.1" viewBox="0 0 32 32" xml:space="preserve" xmlns="http://www.w3.org/2000/svg">
<metadata>
<rdf:RDF xmlns:cc="http://web.resource.org/cc/" xmlns:dc="http://purl.org/dc/elements/1.1/" xmlns:rdf="http://www.w3.org/1999/02/22-rdf-syntax-ns#">

     <rdf:Description rdf:about="">
       <dc:title>Mutant Standard emoji 2023.12</dc:title>
     </rdf:Description>

    <cc:work rdf:about="">
        <cc:license rdf:resource="http://creativecommons.org/licenses/by-nc-sa/4.0/"/>
        <cc:attributionName>Caius Nocturne</cc:attributionName>
        <cc:attributionURL>http://mutant.tech/</cc:attributionURL>
    </cc:work>

</rdf:RDF>
</metadata>
<rect id="arrow" width="32" height="32" fill="none"/><clipPath id="_clip1"><rect width="32" height="32"/></clipPath><g clip-path="url(#_clip1)"><g id="outline"><path d="m2 2 3 8 5-5-8-3z" fill="none" stroke="#000" stroke-width="4px"/><path d="m27.121 22.879-4.242 4.242-20-20 4.242-4.242 20 20z" fill-rule="nonzero"/><path d="m21 25 5 5v-4h4l-5-5h-4v4z" fill="none" stroke="#000" stroke-linecap="butt" stroke-width="4px"/></g><g id="emoji"><path d="m25.707 24.293-1.414 1.414-20-20 1.414-1.414 20 20z" fill="#c7a272" fill-rule="nonzero"/><path d="m21 25 5 5v-4h4l-5-5h-4v4z" fill="#c4b1a4"/><path d="m2 2 3 8 5-5-8-3z" fill="#c9d3d6"/></g></g></svg>
