<?xml version="1.0" encoding="UTF-8"?>
<!DOCTYPE svg  PUBLIC '-//W3C//DTD SVG 1.1//EN'  'http://www.w3.org/Graphics/SVG/1.1/DTD/svg11.dtd'>
<svg clip-rule="evenodd" fill-rule="evenodd" stroke-linecap="round" stroke-linejoin="round" stroke-miterlimit="1.5" version="1.1" viewBox="0 0 32 32" xml:space="preserve" xmlns="http://www.w3.org/2000/svg">
<metadata>
<rdf:RDF xmlns:cc="http://web.resource.org/cc/" xmlns:dc="http://purl.org/dc/elements/1.1/" xmlns:rdf="http://www.w3.org/1999/02/22-rdf-syntax-ns#">

     <rdf:Description rdf:about="">
       <dc:title>Mutant Standard emoji 2023.12</dc:title>
     </rdf:Description>

    <cc:work rdf:about="">
        <cc:license rdf:resource="http://creativecommons.org/licenses/by-nc-sa/4.0/"/>
        <cc:attributionName>Caius Nocturne</cc:attributionName>
        <cc:attributionURL>http://mutant.tech/</cc:attributionURL>
    </cc:work>

</rdf:RDF>
</metadata>
<rect id="bow_and_arrow" width="32" height="32" fill="none"/><clipPath id="_clip1"><rect width="32" height="32"/></clipPath><g clip-path="url(#_clip1)"><g id="outline"><path d="m21 21h4l5 5h-4v4l-5-5v-4zm-11.002-5.999c-0.916 0.229-1.664 0.889-2.005 1.77-0.34 0.881-0.231 1.872 0.293 2.658 0.632 0.949 1.31 1.965 1.911 2.867 1.101 1.651 1.152 3.789 0.131 5.491-0.055 0.091-0.109 0.182-0.163 0.271-0.723 1.205-2.025 1.942-3.43 1.942h-0.084c-0.22 0-0.414-0.144-0.478-0.355s0.018-0.439 0.201-0.561c0.285-0.19 0.577-0.385 0.833-0.555 0.514-0.343 0.899-0.847 1.094-1.433l1e-3 -1e-3c0.439-1.318 0.228-2.766-0.568-3.904-0.403-0.575-0.873-1.247-1.368-1.954-1.068-1.526-1.392-3.452-0.882-5.244 0.511-1.792 1.801-3.258 3.514-3.992 1e-3 -1e-3 2e-3 -1e-3 2e-3 -1e-3l3-3 1e-3 -2e-3c0.734-1.713 2.2-3.003 3.992-3.514 1.792-0.51 3.718-0.186 5.244 0.882 0.707 0.495 1.379 0.965 1.954 1.368 1.138 0.796 2.586 1.007 3.904 0.568l1e-3 -1e-3c0.586-0.195 1.09-0.58 1.433-1.094 0.17-0.256 0.365-0.548 0.555-0.833 0.122-0.183 0.35-0.265 0.561-0.201s0.355 0.258 0.355 0.478v0.084c0 1.405-0.737 2.707-1.942 3.43-0.089 0.054-0.18 0.108-0.271 0.163-1.702 1.021-3.84 0.97-5.491-0.131-0.902-0.601-1.918-1.279-2.867-1.911-0.786-0.524-1.777-0.633-2.658-0.293-0.881 0.341-1.541 1.089-1.77 2.005-1e-3 1e-3 -1e-3 2e-3 -1e-3 2e-3l-5 5-2e-3 1e-3zm-7.998-13.001 3 8 5-5-8-3z" fill="none" stroke="#000" stroke-width="4px"/><path d="m13.121 8.879 2.879-2.879 5.172 2.586 1.707-1.707 4.242 4.242-5.878 5.879 5.878 5.879-4.242 4.242-5.879-5.878-5.879 5.878-4.242-4.242 1.707-1.707-2.586-5.172 2.879-2.879-6-6 4.242-4.242 6 6z" fill-rule="nonzero"/></g><g id="emoji"><path d="m25.707 9.707-16 16-0.707-2.121 14-14 2.707 0.121z" fill="#7d6e5d" fill-rule="nonzero"/><path d="m12 9 2-1 1 2-5 5-2-1 1-2 3-3z" fill="#5a3a24"/><path d="m6.366 21.237c-1.068-1.526-1.392-3.452-0.882-5.244 0.511-1.792 1.801-3.258 3.514-3.992 1e-3 -1e-3 2e-3 -1e-3 2e-3 -1e-3l1 3s-1e-3 0-2e-3 1e-3c-0.916 0.229-1.664 0.889-2.005 1.77-0.34 0.881-0.231 1.872 0.293 2.658 0.632 0.949 1.31 1.965 1.911 2.867 1.101 1.651 1.152 3.789 0.131 5.491-0.055 0.091-0.109 0.182-0.163 0.271-0.723 1.205-2.025 1.942-3.43 1.942h-0.084c-0.22 0-0.414-0.144-0.478-0.355s0.018-0.439 0.201-0.561c0.285-0.19 0.577-0.385 0.833-0.555 0.514-0.343 0.899-0.847 1.094-1.433l1e-3 -1e-3c0.439-1.318 0.228-2.766-0.568-3.904-0.403-0.575-0.873-1.247-1.368-1.954z" fill="#895b36"/><path d="m21.237 6.366c-1.526-1.068-3.452-1.392-5.244-0.882-1.792 0.511-3.258 1.801-3.992 3.514-1e-3 1e-3 -1e-3 2e-3 -1e-3 2e-3l3 1s0-1e-3 1e-3 -2e-3c0.229-0.916 0.889-1.664 1.77-2.005 0.881-0.34 1.872-0.231 2.658 0.293 0.949 0.632 1.965 1.31 2.867 1.911 1.651 1.101 3.789 1.152 5.491 0.131 0.091-0.055 0.182-0.109 0.271-0.163 1.205-0.723 1.942-2.025 1.942-3.43v-0.084c0-0.22-0.144-0.414-0.355-0.478s-0.439 0.018-0.561 0.201c-0.19 0.285-0.385 0.577-0.555 0.833-0.343 0.514-0.847 0.899-1.433 1.094l-1e-3 1e-3c-1.318 0.439-2.766 0.228-3.904-0.568-0.575-0.403-1.247-0.873-1.954-1.368z" fill="#895b36"/><path d="m5 5 20 20" fill="none" stroke="#c7a272" stroke-linecap="butt" stroke-width="2px"/><path d="m21 25 5 5v-4h4l-5-5h-4v4z" fill="#c4b1a4"/><path d="m2 2 3 8 5-5-8-3z" fill="#c9d3d6"/></g></g></svg>
