<?xml version="1.0" encoding="UTF-8"?>
<!DOCTYPE svg  PUBLIC '-//W3C//DTD SVG 1.1//EN'  'http://www.w3.org/Graphics/SVG/1.1/DTD/svg11.dtd'>
<svg clip-rule="evenodd" fill-rule="evenodd" stroke-linecap="round" stroke-linejoin="round" stroke-miterlimit="5" version="1.1" viewBox="0 0 32 32" xml:space="preserve" xmlns="http://www.w3.org/2000/svg">
<metadata>
<rdf:RDF xmlns:cc="http://web.resource.org/cc/" xmlns:dc="http://purl.org/dc/elements/1.1/" xmlns:rdf="http://www.w3.org/1999/02/22-rdf-syntax-ns#">

     <rdf:Description rdf:about="">
       <dc:title>Mutant Standard emoji 2023.12</dc:title>
     </rdf:Description>

    <cc:work rdf:about="">
        <cc:license rdf:resource="http://creativecommons.org/licenses/by-nc-sa/4.0/"/>
        <cc:attributionName>Caius Nocturne</cc:attributionName>
        <cc:attributionURL>http://mutant.tech/</cc:attributionURL>
    </cc:work>

</rdf:RDF>
</metadata>
<rect id="broadsword" width="32" height="32" fill="none"/><clipPath id="_clip1"><rect width="32" height="32"/></clipPath><g clip-path="url(#_clip1)"><g id="outline"><path d="m5.871 7.871c-0.275 0.084-0.568 0.129-0.871 0.129-1.656 0-3-1.344-3-3s1.344-3 3-3 3 1.344 3 3c0 0.303-0.045 0.596-0.129 0.871l3.129 3.129 1-1 5-3 1 3-4 2-0.062 0.063 14.062 15.937 2 4-4-2-15.938-14.062-0.062 0.062-2 4-3-1 3-5 1-1-3.129-3.129z" fill="none" stroke="#000" stroke-width="4px"/></g><g id="emoji"><path d="m12 10-6-6-2 2 6 6 2-2z" fill="#604934"/><path d="m13 9 15 17 2 4-3-2-17-16 3-3z" fill="#e1f1f4"/><path d="m11 11 19 19-4-2-17-15 2-2z" fill="#98bdd0"/><path d="m5 17 3-5 4-4 5-3 1 3-4 2-4 4-2 4-3-1z" fill="#708e94"/><circle cx="5" cy="5" r="3" fill="#708e94"/></g></g></svg>
