<?xml version="1.0" encoding="UTF-8"?>
<!DOCTYPE svg  PUBLIC '-//W3C//DTD SVG 1.1//EN'  'http://www.w3.org/Graphics/SVG/1.1/DTD/svg11.dtd'>
<svg clip-rule="evenodd" fill-rule="evenodd" stroke-linejoin="round" stroke-miterlimit="1.5" version="1.1" viewBox="0 0 32 32" xml:space="preserve" xmlns="http://www.w3.org/2000/svg">
<metadata>
<rdf:RDF xmlns:cc="http://web.resource.org/cc/" xmlns:dc="http://purl.org/dc/elements/1.1/" xmlns:rdf="http://www.w3.org/1999/02/22-rdf-syntax-ns#">

     <rdf:Description rdf:about="">
       <dc:title>Mutant Standard emoji 2023.12</dc:title>
     </rdf:Description>

    <cc:work rdf:about="">
        <cc:license rdf:resource="http://creativecommons.org/licenses/by-nc-sa/4.0/"/>
        <cc:attributionName>Caius Nocturne</cc:attributionName>
        <cc:attributionURL>http://mutant.tech/</cc:attributionURL>
    </cc:work>

</rdf:RDF>
</metadata>
<rect id="crossbow" width="32" height="32" fill="none"/><g id="outline"><path d="m10.176 6.882 2.019-1.345c2.414-1.609 5.413-2.078 8.203-1.281 0 1e-3 0 1e-3 1e-3 1e-3 1.65 0.471 3.424 0.194 4.852-0.758 0.303-0.202 0.551-0.367 0.671-0.447 0.051-0.034 0.111-0.052 0.172-0.052h2e-3c0.283 0 0.536 0.179 0.63 0.447s9e-3 0.565-0.213 0.743c-0.416 0.332-0.876 0.701-1.323 1.058-1.348 1.079-3.181 1.327-4.767 0.647h-2e-3c-2.595-1.112-5.613-0.305-7.307 1.953-0.073 0.097-0.114 0.152-0.114 0.152l-0.571 0.571 0.571 0.429 4 4 12 14-2 2-15-13-3-3-0.429-0.571-0.571 0.571-0.152 0.114c-2.258 1.694-3.065 4.712-1.953 7.307v2e-3c0.68 1.586 0.432 3.419-0.647 4.767-0.357 0.447-0.726 0.907-1.058 1.323-0.178 0.222-0.475 0.307-0.743 0.213s-0.447-0.347-0.447-0.63v-2e-3c0-0.061 0.018-0.121 0.052-0.172 0.08-0.12 0.245-0.368 0.447-0.671 0.952-1.428 1.229-3.202 0.758-4.852 0-1e-3 0-1e-3 -1e-3 -1e-3 -0.797-2.79-0.328-5.789 1.281-8.203l1.345-2.019-3.882-5.176 2-2 5.176 3.882z" fill="none" stroke="#000" stroke-width="4px"/><path d="m5 23 13-5 5-13" fill="none" stroke="#000" stroke-width="6px"/><path d="m5 16 11-11h7v6l-12 12h-6v-7z"/></g><g id="emoji"><path d="m29 27-12-14-4-4-8-6-2 2 6 8 3 3 15 13 2-2z" fill="#ae7a46"/><path d="m18.707 17.293-1.414 1.414-6-6 1.414-1.414 6 6z" fill="#2a2a2a" fill-rule="nonzero"/><path d="m5 23 13-5 5-13" fill="none" stroke="#adb4b6" stroke-width="2px"/><path d="m10 7 2-1 1 2-5 5-2-1 1-2 3-3z" fill="#5a3a24"/><path d="m20.398 4.256c-2.79-0.797-5.789-0.328-8.203 1.281-1.189 0.792-2.195 1.463-2.195 1.463l3 1s0.041-0.055 0.114-0.152c1.694-2.258 4.712-3.065 7.307-1.953h2e-3c1.586 0.68 3.419 0.432 4.767-0.647 0.447-0.357 0.907-0.726 1.323-1.058 0.222-0.178 0.307-0.475 0.213-0.743s-0.347-0.447-0.63-0.447h-2e-3c-0.061 0-0.121 0.018-0.172 0.052-0.12 0.08-0.368 0.245-0.671 0.447-1.428 0.952-3.202 1.229-4.852 0.758-1e-3 0-1e-3 0-1e-3 -1e-3z" fill="#789095"/><path d="m4.256 20.398c-0.797-2.79-0.328-5.789 1.281-8.203 0.792-1.189 1.463-2.195 1.463-2.195l1 3s-0.055 0.041-0.152 0.114c-2.258 1.694-3.065 4.712-1.953 7.307v2e-3c0.68 1.586 0.432 3.419-0.647 4.767-0.357 0.447-0.726 0.907-1.058 1.323-0.178 0.222-0.475 0.307-0.743 0.213s-0.447-0.347-0.447-0.63v-2e-3c0-0.061 0.018-0.121 0.052-0.172 0.08-0.12 0.245-0.368 0.447-0.671 0.952-1.428 1.229-3.202 0.758-4.852 0-1e-3 0-1e-3 -1e-3 -1e-3z" fill="#789095"/></g></svg>
