<?xml version="1.0" encoding="UTF-8"?>
<!DOCTYPE svg  PUBLIC '-//W3C//DTD SVG 1.1//EN'  'http://www.w3.org/Graphics/SVG/1.1/DTD/svg11.dtd'>
<svg clip-rule="evenodd" fill-rule="evenodd" stroke-linejoin="round" stroke-miterlimit="5" version="1.1" viewBox="0 0 32 32" xml:space="preserve" xmlns="http://www.w3.org/2000/svg">
<metadata>
<rdf:RDF xmlns:cc="http://web.resource.org/cc/" xmlns:dc="http://purl.org/dc/elements/1.1/" xmlns:rdf="http://www.w3.org/1999/02/22-rdf-syntax-ns#">

     <rdf:Description rdf:about="">
       <dc:title>Mutant Standard emoji 2023.12</dc:title>
     </rdf:Description>

    <cc:work rdf:about="">
        <cc:license rdf:resource="http://creativecommons.org/licenses/by-nc-sa/4.0/"/>
        <cc:attributionName>Caius Nocturne</cc:attributionName>
        <cc:attributionURL>http://mutant.tech/</cc:attributionURL>
    </cc:work>

</rdf:RDF>
</metadata>
<rect id="european_battle_axe" width="32" height="32" fill="none"/><g id="outline" fill="#8e8e8e" stroke="#000" stroke-width="4px"><path d="m3 27 2 2 19.5-19.5 3-5-5 3-19.5 19.5z"/><path d="m22.5 10.5 1.233 1.233c0.45 0.45 1.07 0.687 1.705 0.652s1.225-0.339 1.623-0.836c1.122-1.403 2.439-3.049 2.439-3.049s0.138 0.896 0.341 2.218c0.388 2.518-0.448 5.071-2.25 6.873s-4.355 2.638-6.873 2.25c-1.322-0.203-2.218-0.341-2.218-0.341s1.646-1.317 3.049-2.439c0.497-0.398 0.801-0.988 0.836-1.623s-0.202-1.255-0.652-1.705l-1.233-1.233 2-2z"/><path d="m21.5 9.5-6-4 4 6 2-2z" stroke-linecap="round" stroke-miterlimit="7"/></g><g id="emoji"><path d="m21.5 9.5-6-4 4 6 2-2z" fill="#98bdd0"/><path d="m28.413 9.858 1.087-1.358s0.138 0.896 0.341 2.218c0.388 2.518-0.448 5.071-2.25 6.873s-4.355 2.638-6.873 2.25c-1.322-0.203-2.218-0.341-2.218-0.341l1.358-1.087c0.193 0.03 3.972-1.234 6.142-3.413 2.015-2.023 2.441-4.963 2.413-5.142z" fill="#e1f1f4"/><path d="m28.413 9.858c0.057 0.373 0.087 0.754 0.087 1.142 0 4.139-3.361 7.5-7.5 7.5-0.388 0-0.769-0.03-1.142-0.087l1.691-1.352c0.497-0.398 0.801-0.988 0.836-1.623s-0.202-1.255-0.652-1.705l-1.233-1.233 2-2 1.233 1.233c0.45 0.45 1.07 0.687 1.705 0.652s1.225-0.339 1.623-0.836l1.352-1.691z" fill="#98bdd0"/><path d="m16.5 13.5-0.5 2.5 2.5-0.5 6-6-0.5-1.5-1.5-0.5-6 6z" fill="#e1f1f4"/><path d="m22.5 7.5 2 2 3-5-5 3z" fill="#98bdd0"/><path d="m17 13 2 2-14 14-2-2 14-14z" fill="#6e4d31"/></g></svg>
