<?xml version="1.0" encoding="UTF-8"?>
<svg clip-rule="evenodd" fill-rule="evenodd" stroke-miterlimit="5" viewBox="0 0 32 32" xmlns="http://www.w3.org/2000/svg">
 <clipPath id="a">
  <path d="m0 0h32v32h-32z" clip-rule="evenodd"/>
 </clipPath>
 <path d="m0 0h32v32h-32z" fill="none"/>
 <g clip-path="url(#a)">
  <g stroke="#000">
   <path d="m2.707 20.293c-0.39 0.39-0.39 1.024 0 1.414l0.586 0.586c0.39 0.39 1.024 0.39 1.414 0l17.293-17.293c0.265-0.265 0.414-0.625 0.414-1s-0.149-0.735-0.414-1-0.625-0.414-1-0.414-0.735 0.149-1 0.414l-17.293 17.293z" fill="#8e8e8e" stroke-width="4"/>
   <path d="m23.586 18.172 3.364-1.122-1.122 3.364 3.172 1.586-3.172 1.586 1.122 3.364-3.364-1.122-1.586 3.172-1.586-3.172-3.364 1.122 1.122-3.364-3.172-1.586 3.172-1.586-1.122-3.364 3.364 1.122 1.586-3.172z" fill="#919191" stroke-linejoin="round" stroke-miterlimit="1.5" stroke-width="4"/>
   <path d="m22 4v17" fill="none" stroke-linecap="round" stroke-linejoin="round" stroke-miterlimit="1.5" stroke-width="6"/>
  </g>
  <path d="m22 4v17" fill="none" stroke="#647982" stroke-linecap="round" stroke-linejoin="round" stroke-miterlimit="1.5" stroke-width="2"/>
  <path d="m3 20v2h2l13-13v-2h-2z" fill="#6e4d31"/>
  <path d="m16 7 2 2s2.541-2.541 4-4c0.552-0.552 0.552-1.448 0-2s-1.448-0.552-2 0l-4 4z" fill="#9faeb5"/>
  <path d="m23.586 18.172 3.364-1.122-1.122 3.364 3.172 1.586-3.172 1.586 1.122 3.364-3.364-1.122-1.586 3.172-1.586-3.172-3.364 1.122 1.122-3.364-3.172-1.586 3.172-1.586-1.122-3.364 3.364 1.122 1.586-3.172zm-2.829.828-1.757 1.757v2.486l1.757 1.757h2.486l1.757-1.757v-2.486l-1.757-1.757z" fill="#9faeb5"/>
  <circle cx="22" cy="22" r="4" fill="#d8e3e5"/>
  <circle cx="22" cy="22" r="2" fill="#9faeb5"/>
  <path d="m4.707 22.293c-0.187 0.187-0.442 0.293-0.707 0.293s-0.52-0.106-0.707-0.293l-0.586-0.586c-0.187-0.187-0.293-0.442-0.293-0.707s0.106-0.52 0.293-0.707l0.293-0.293 2 2s-0.128 0.128-0.293 0.293z" fill="#9faeb5"/>
 </g>
</svg>
