<?xml version="1.0" encoding="UTF-8"?>
<!DOCTYPE svg  PUBLIC '-//W3C//DTD SVG 1.1//EN'  'http://www.w3.org/Graphics/SVG/1.1/DTD/svg11.dtd'>
<svg clip-rule="evenodd" fill-rule="evenodd" stroke-miterlimit="5" version="1.1" viewBox="0 0 32 32" xml:space="preserve" xmlns="http://www.w3.org/2000/svg">
<metadata>
<rdf:RDF xmlns:cc="http://web.resource.org/cc/" xmlns:dc="http://purl.org/dc/elements/1.1/" xmlns:rdf="http://www.w3.org/1999/02/22-rdf-syntax-ns#">

     <rdf:Description rdf:about="">
       <dc:title>Mutant Standard emoji 2023.12</dc:title>
     </rdf:Description>

    <cc:work rdf:about="">
        <cc:license rdf:resource="http://creativecommons.org/licenses/by-nc-sa/4.0/"/>
        <cc:attributionName>Caius Nocturne</cc:attributionName>
        <cc:attributionURL>http://mutant.tech/</cc:attributionURL>
    </cc:work>

</rdf:RDF>
</metadata>
<rect id="flail" width="32" height="32" fill="none"/><clipPath id="_clip1"><rect width="32" height="32"/></clipPath><g clip-path="url(#_clip1)"><g id="outline" stroke="#000"><path d="m2.707 20.293c-0.39 0.39-0.39 1.024 0 1.414l0.586 0.586c0.39 0.39 1.024 0.39 1.414 0l17.293-17.293c0.265-0.265 0.414-0.625 0.414-1s-0.149-0.735-0.414-1-0.625-0.414-1-0.414-0.735 0.149-1 0.414l-17.293 17.293z" fill="#8e8e8e" stroke-width="4px"/><path d="m23.586 18.172 3.364-1.122-1.122 3.364 3.172 1.586-3.172 1.586 1.122 3.364-3.364-1.122-1.586 3.172-1.586-3.172-3.364 1.122 1.122-3.364-3.172-1.586 3.172-1.586-1.122-3.364 3.364 1.122 1.586-3.172 1.586 3.172z" fill="#919191" stroke-linejoin="round" stroke-miterlimit="1.5" stroke-width="4px"/><path d="m22 4v17" fill="none" stroke-linecap="round" stroke-linejoin="round" stroke-miterlimit="1.5" stroke-width="6px"/></g><g id="emoji"><path d="m22 4v17" fill="none" stroke="#647982" stroke-linecap="round" stroke-linejoin="round" stroke-miterlimit="1.5" stroke-width="2px"/><path d="m3 20v2h2l13-13v-2h-2l-13 13z" fill="#6e4d31"/><path d="m16 7 2 2 4-4c0.552-0.552 0.552-1.448 0-2s-1.448-0.552-2 0l-4 4z" fill="#9faeb5"/><path d="m23.586 18.172 3.364-1.122-1.122 3.364 3.172 1.586-3.172 1.586 1.122 3.364-3.364-1.122-1.586 3.172-1.586-3.172-3.364 1.122 1.122-3.364-3.172-1.586 3.172-1.586-1.122-3.364 3.364 1.122 1.586-3.172 1.586 3.172zm-2.829 0.828-1.757 1.757v2.486l1.757 1.757h2.486l1.757-1.757v-2.486l-1.757-1.757h-2.486z" fill="#9faeb5"/><circle cx="22" cy="22" r="4" fill="#d8e3e5"/><circle cx="22" cy="22" r="2" fill="#9faeb5"/><path d="m4.707 22.293c-0.187 0.187-0.442 0.293-0.707 0.293s-0.52-0.106-0.707-0.293l-0.586-0.586c-0.187-0.187-0.293-0.442-0.293-0.707s0.106-0.52 0.293-0.707l0.293-0.293 2 2-0.293 0.293z" fill="#9faeb5"/></g></g></svg>
