<?xml version="1.0" encoding="UTF-8"?>
<!DOCTYPE svg  PUBLIC '-//W3C//DTD SVG 1.1//EN'  'http://www.w3.org/Graphics/SVG/1.1/DTD/svg11.dtd'>
<svg clip-rule="evenodd" fill-rule="evenodd" stroke-miterlimit="5" version="1.1" viewBox="0 0 32 32" xml:space="preserve" xmlns="http://www.w3.org/2000/svg">
<metadata>
<rdf:RDF xmlns:cc="http://web.resource.org/cc/" xmlns:dc="http://purl.org/dc/elements/1.1/" xmlns:rdf="http://www.w3.org/1999/02/22-rdf-syntax-ns#">

     <rdf:Description rdf:about="">
       <dc:title>Mutant Standard emoji 2023.12</dc:title>
     </rdf:Description>

    <cc:work rdf:about="">
        <cc:license rdf:resource="http://creativecommons.org/licenses/by-nc-sa/4.0/"/>
        <cc:attributionName>Caius Nocturne</cc:attributionName>
        <cc:attributionURL>http://mutant.tech/</cc:attributionURL>
    </cc:work>

</rdf:RDF>
</metadata>
<rect id="glaive" width="32" height="32" fill="none"/><clipPath id="_clip1"><rect width="32" height="32"/></clipPath><g clip-path="url(#_clip1)"><g id="outline" fill="#8e8e8e" stroke="#000" stroke-width="4px"><path d="m3 28 1 1 17-17-1-1-17 17z"/><path d="m19 12 1.828-1.828c0.751-0.751 1.172-1.768 1.172-2.829v-1.343c1.657 0 3-1.343 3-3v-1l1e-3 1e-3c2.761 2.761 2.761 7.237 0 9.998l-1.001 1.001c-1.105 1.105-2.895 1.105-4 0l-1-1z" stroke-linejoin="round"/><path d="m16.5 12.5c0.276-0.276 0.724-0.276 1 0l2 2c0.276 0.276 0.276 0.724 0 1v0c-0.276 0.276-0.724 0.276-1 0l-2-2c-0.276-0.276-0.276-0.724 0-1v0z" stroke-linecap="square" stroke-linejoin="round" stroke-miterlimit="1.5"/></g><g id="emoji"><path d="m3 28 1 1 14-14v-1h-1l-14 14z" fill="#6e4d31"/><path d="m19 12 1.828-1.828c0.751-0.751 1.172-1.768 1.172-2.829v-1.343c1.657 0 3-1.343 3-3v-1l1e-3 1e-3c2.761 2.761 2.761 7.237 0 9.998l-1.001 1.001c-1.105 1.105-2.895 1.105-4 0l-1 1h-1v-1l1-1z" fill="#d1dee1"/><path d="m16.5 12.5c0.276-0.276 0.724-0.276 1 0l2 2c0.276 0.276 0.276 0.724 0 1s-0.724 0.276-1 0l-2-2c-0.276-0.276-0.276-0.724 0-1z" fill="#758b95"/></g></g></svg>
