<?xml version="1.0" encoding="UTF-8"?>
<!DOCTYPE svg  PUBLIC '-//W3C//DTD SVG 1.1//EN'  'http://www.w3.org/Graphics/SVG/1.1/DTD/svg11.dtd'>
<svg clip-rule="evenodd" fill-rule="evenodd" stroke-miterlimit="5" version="1.1" viewBox="0 0 32 32" xml:space="preserve" xmlns="http://www.w3.org/2000/svg">
<metadata>
<rdf:RDF xmlns:cc="http://web.resource.org/cc/" xmlns:dc="http://purl.org/dc/elements/1.1/" xmlns:rdf="http://www.w3.org/1999/02/22-rdf-syntax-ns#">

     <rdf:Description rdf:about="">
       <dc:title>Mutant Standard emoji 2023.12</dc:title>
     </rdf:Description>

    <cc:work rdf:about="">
        <cc:license rdf:resource="http://creativecommons.org/licenses/by-nc-sa/4.0/"/>
        <cc:attributionName>Caius Nocturne</cc:attributionName>
        <cc:attributionURL>http://mutant.tech/</cc:attributionURL>
    </cc:work>

</rdf:RDF>
</metadata>
<rect id="great_axe" width="32" height="32" fill="none"/><clipPath id="_clip1"><rect width="32" height="32"/></clipPath><g clip-path="url(#_clip1)"><g id="outline" fill="#8e8e8e" stroke="#000" stroke-width="4px"><path d="m3 27 2 2 19-19-2-2-19 19z"/><path d="m22 11 1.233 1.233c0.45 0.45 1.07 0.687 1.705 0.652s1.225-0.339 1.623-0.836c1.122-1.403 2.439-3.049 2.439-3.049s0.138 0.896 0.341 2.218c0.388 2.518-0.448 5.071-2.25 6.873s-4.355 2.638-6.873 2.25c-1.322-0.203-2.218-0.341-2.218-0.341s1.646-1.317 3.049-2.439c0.497-0.398 0.801-0.988 0.836-1.623s-0.202-1.255-0.652-1.705l-1.233-1.233 2-2z" stroke-linejoin="round"/><path d="m19 12-1.233-1.233c-0.45-0.45-1.07-0.687-1.705-0.652s-1.225 0.339-1.623 0.836c-1.122 1.403-2.439 3.049-2.439 3.049s-0.138-0.896-0.341-2.218c-0.388-2.518 0.448-5.071 2.25-6.873s4.355-2.638 6.873-2.25c1.322 0.203 2.218 0.341 2.218 0.341s-1.646 1.317-3.049 2.439c-0.497 0.398-0.801 0.988-0.836 1.623s0.202 1.255 0.652 1.705l1.233 1.233-2 2z" stroke-linejoin="round"/></g><g id="emoji"><path d="m13.087 12.642-1.087 1.358s-0.138-0.896-0.341-2.218c-0.388-2.518 0.448-5.071 2.25-6.873s4.355-2.638 6.873-2.25c1.322 0.203 2.218 0.341 2.218 0.341l-1.358 1.087c-0.195-0.03-3.453 0.714-5.642 2.913-1.991 2-2.941 5.464-2.913 5.642z" fill="#e1f1f4"/><path d="m13.087 12.642c-0.057-0.373-0.087-0.754-0.087-1.142 0-4.139 3.361-7.5 7.5-7.5 0.388 0 0.769 0.03 1.142 0.087l-1.691 1.352c-0.497 0.398-0.801 0.988-0.836 1.623s0.202 1.255 0.652 1.705l1.233 1.233-2 2-1.233-1.233c-0.45-0.45-1.07-0.687-1.705-0.652s-1.225 0.339-1.623 0.836l-1.352 1.691z" fill="#98bdd0"/><path d="m19.358 18.913-1.358 1.087s0.896 0.138 2.218 0.341c2.518 0.388 5.071-0.448 6.873-2.25s2.638-4.355 2.25-6.873c-0.203-1.322-0.341-2.218-0.341-2.218l-1.087 1.358c0.03 0.195-0.714 3.453-2.913 5.642-2 1.991-5.464 2.941-5.642 2.913z" fill="#e1f1f4"/><path d="m19.358 18.913c0.373 0.057 0.754 0.087 1.142 0.087 4.139 0 7.5-3.361 7.5-7.5 0-0.388-0.03-0.769-0.087-1.142l-1.352 1.691c-0.398 0.497-0.988 0.801-1.623 0.836s-1.255-0.202-1.705-0.652l-1.233-1.233-2 2 1.233 1.233c0.45 0.45 0.687 1.07 0.652 1.705s-0.339 1.225-0.836 1.623l-1.691 1.352z" fill="#98bdd0"/><path d="m17 13v2h2l5-5-2-2-5 5z" fill="#e1f1f4"/><path d="m17 13 2 2-14 14-2-2 14-14z" fill="#6e4d31"/></g></g></svg>
