<?xml version="1.0" encoding="UTF-8"?>
<!DOCTYPE svg  PUBLIC '-//W3C//DTD SVG 1.1//EN'  'http://www.w3.org/Graphics/SVG/1.1/DTD/svg11.dtd'>
<svg clip-rule="evenodd" fill-rule="evenodd" stroke-miterlimit="5" version="1.1" viewBox="0 0 32 32" xml:space="preserve" xmlns="http://www.w3.org/2000/svg">
<metadata>
<rdf:RDF xmlns:cc="http://web.resource.org/cc/" xmlns:dc="http://purl.org/dc/elements/1.1/" xmlns:rdf="http://www.w3.org/1999/02/22-rdf-syntax-ns#">

     <rdf:Description rdf:about="">
       <dc:title>Mutant Standard emoji 2023.12</dc:title>
     </rdf:Description>

    <cc:work rdf:about="">
        <cc:license rdf:resource="http://creativecommons.org/licenses/by-nc-sa/4.0/"/>
        <cc:attributionName>Caius Nocturne</cc:attributionName>
        <cc:attributionURL>http://mutant.tech/</cc:attributionURL>
    </cc:work>

</rdf:RDF>
</metadata>
<rect id="halberd" width="32" height="32" fill="none"/><clipPath id="_clip1"><rect width="32" height="32"/></clipPath><g clip-path="url(#_clip1)"><g id="outline" stroke="#000" stroke-width="4px"><path d="m2.707 25.293c-0.187 0.187-0.293 0.442-0.293 0.707s0.106 0.52 0.293 0.707l0.086 0.086c0.39 0.39 1.024 0.39 1.414 0l17.793-17.793-1-2-18.293 18.293z" fill="#8e8e8e"/><path d="m21.5 6.5 6 6-0.085 0.085c-1.808 1.808-4.433 2.535-6.915 1.915l1-4-2-2 2-2z" fill="none" stroke-miterlimit="7"/><path d="m21.5 6.5-2.5-2.5v4l0.5 0.5 2-2z" fill="#8e8e8e" stroke-linejoin="round" stroke-miterlimit="7"/><path d="m21 7 2-2 4-2-3 4-1 1-2-1z" fill="#77a0b4" stroke-linejoin="round" stroke-miterlimit="7"/></g><g id="emoji"><path d="m20 8 3-3 4-2-3 4-1 1h-3z" fill="#77a0b4"/><path d="m4.5 23.5 1.5 1.5 17-17-2-1-16.5 16.5z" fill="#6e4d31"/><path d="m19 4 8.5 8.5-0.085 0.085c-1.808 1.808-4.433 2.535-6.915 1.915l1-4-2.5-2.5v-4z" fill="#d1dee1"/><path d="m5 23 1.5 1.5-2.293 2.293c-0.39 0.39-1.024 0.39-1.414 0l-0.086-0.086c-0.39-0.39-0.39-1.024 0-1.414l2.293-2.293z" fill="#9faeb5"/></g></g></svg>
