<?xml version="1.0" encoding="UTF-8"?>
<svg clip-rule="evenodd" fill-rule="evenodd" stroke-miterlimit="5" viewBox="0 0 32 32" xmlns="http://www.w3.org/2000/svg">
 <clipPath id="a">
  <path d="m0 0h32v32h-32z" clip-rule="evenodd"/>
 </clipPath>
 <path d="m0 0h32v32h-32z" fill="none"/>
 <g clip-path="url(#a)">
  <g stroke="#000" stroke-width="4">
   <path d="m2.707 25.293c-0.187 0.187-0.293 0.442-0.293 0.707s0.106 0.52 0.293 0.707l0.086 0.086c0.39 0.39 1.024 0.39 1.414 0l17.793-17.793-1-2s-14.849 14.849-18.293 18.293z" fill="#8e8e8e"/>
   <path d="m21.5 6.5 6 6s-.03.03-.085.085c-1.808 1.808-4.433 2.535-6.915 1.915l1-4-2-2z" fill="none" stroke-miterlimit="7"/>
   <path d="m21.5 6.5-2.5-2.5v4l.5.5z" fill="#8e8e8e" stroke-linejoin="round" stroke-miterlimit="7"/>
   <path d="m21 7 2-2 4-2-3 4-1 1z" fill="#77a0b4" stroke-linejoin="round" stroke-miterlimit="7"/>
  </g>
  <path d="m20 8 3-3 4-2-3 4-1 1z" fill="#77a0b4"/>
  <path d="m4.5 23.5 1.5 1.5 17-17-2-1z" fill="#6e4d31"/>
  <path d="m19 4 8.5 8.5s-.03.03-.085.085c-1.808 1.808-4.433 2.535-6.915 1.915l1-4-2.5-2.5z" fill="#d1dee1"/>
  <path d="m5 23 1.5 1.5s-1.406 1.406-2.293 2.293c-0.39 0.39-1.024 0.39-1.414 0l-0.086-0.086c-0.39-0.39-0.39-1.024 0-1.414l2.293-2.293z" fill="#9faeb5"/>
 </g>
</svg>
