<?xml version="1.0" encoding="UTF-8"?>
<!DOCTYPE svg  PUBLIC '-//W3C//DTD SVG 1.1//EN'  'http://www.w3.org/Graphics/SVG/1.1/DTD/svg11.dtd'>
<svg clip-rule="evenodd" fill-rule="evenodd" stroke-linejoin="round" stroke-miterlimit="5" version="1.1" viewBox="0 0 32 32" xml:space="preserve" xmlns="http://www.w3.org/2000/svg">
<metadata>
<rdf:RDF xmlns:cc="http://web.resource.org/cc/" xmlns:dc="http://purl.org/dc/elements/1.1/" xmlns:rdf="http://www.w3.org/1999/02/22-rdf-syntax-ns#">

     <rdf:Description rdf:about="">
       <dc:title>Mutant Standard emoji 2023.12</dc:title>
     </rdf:Description>

    <cc:work rdf:about="">
        <cc:license rdf:resource="http://creativecommons.org/licenses/by-nc-sa/4.0/"/>
        <cc:attributionName>Caius Nocturne</cc:attributionName>
        <cc:attributionURL>http://mutant.tech/</cc:attributionURL>
    </cc:work>

</rdf:RDF>
</metadata>
<rect id="mace" width="32" height="32" fill="none"/><clipPath id="_clip1"><rect width="32" height="32"/></clipPath><g clip-path="url(#_clip1)"><g id="outline"><path d="m24.586 5.172 3.364-1.122-1.122 3.364 3.172 1.586-3.172 1.586 1.122 3.364-3.364-1.122-1.586 3.172-1.586-3.172-0.364 0.122-2.55 2.55 0.5 0.5c0.276 0.276 0.276 0.724 0 1s-0.724 0.276-1 0l-0.5-0.5-12.793 12.793c-0.187 0.187-0.442 0.293-0.707 0.293s-0.52-0.106-0.707-0.293l-0.586-0.586c-0.187-0.187-0.293-0.442-0.293-0.707s0.106-0.52 0.293-0.707l12.793-12.793-0.5-0.5c-0.276-0.276-0.276-0.724 0-1s0.724-0.276 1 0l0.5 0.5 2.55-2.55 0.122-0.364-3.172-1.586 3.172-1.586-1.122-3.364 3.364 1.122 1.586-3.172 1.586 3.172z" fill="#8e8e8e" stroke="#000" stroke-width="4px"/></g><g id="emoji"><path d="m3 27v2h2l11-11v-2h-2l-11 11z" fill="#6e4d31"/><path d="m14 16 2 2 6-6-2-2-6 6z" fill="#647982"/><path d="m24.586 5.172 3.364-1.122-1.122 3.364 3.172 1.586-3.172 1.586 1.122 3.364-3.364-1.122-1.586 3.172-1.586-3.172-3.364 1.122 1.122-3.364-3.172-1.586 3.172-1.586-1.122-3.364 3.364 1.122 1.586-3.172 1.586 3.172zm-2.829 0.828-1.757 1.757v2.486l1.757 1.757h2.486l1.757-1.757v-2.486l-1.757-1.757h-2.486z" fill="#9faeb5"/><circle cx="23" cy="9" r="4" fill="#d8e3e5"/><circle cx="23" cy="9" r="2" fill="#9faeb5"/><path d="m15 14c-0.276-0.276-0.276-0.724 0-1s0.724-0.276 1 0l3 3c0.276 0.276 0.276 0.724 0 1s-0.724 0.276-1 0l-3-3z" fill="#9faeb5"/><path d="m4.707 29.293c-0.187 0.187-0.442 0.293-0.707 0.293s-0.52-0.106-0.707-0.293l-0.586-0.586c-0.187-0.187-0.293-0.442-0.293-0.707s0.106-0.52 0.293-0.707l0.293-0.293 2 2-0.293 0.293z" fill="#9faeb5"/></g></g></svg>
