<?xml version="1.0" encoding="UTF-8"?>
<!DOCTYPE svg  PUBLIC '-//W3C//DTD SVG 1.1//EN'  'http://www.w3.org/Graphics/SVG/1.1/DTD/svg11.dtd'>
<svg clip-rule="evenodd" fill-rule="evenodd" stroke-linecap="round" stroke-miterlimit="1.5" version="1.1" viewBox="0 0 32 32" xml:space="preserve" xmlns="http://www.w3.org/2000/svg">
<metadata>
<rdf:RDF xmlns:cc="http://web.resource.org/cc/" xmlns:dc="http://purl.org/dc/elements/1.1/" xmlns:rdf="http://www.w3.org/1999/02/22-rdf-syntax-ns#">

     <rdf:Description rdf:about="">
       <dc:title>Mutant Standard emoji 2023.12</dc:title>
     </rdf:Description>

    <cc:work rdf:about="">
        <cc:license rdf:resource="http://creativecommons.org/licenses/by-nc-sa/4.0/"/>
        <cc:attributionName>Caius Nocturne</cc:attributionName>
        <cc:attributionURL>http://mutant.tech/</cc:attributionURL>
    </cc:work>

</rdf:RDF>
</metadata>
<rect id="rapier" width="32" height="32" fill="none"/><clipPath id="_clip1"><rect width="32" height="32"/></clipPath><g clip-path="url(#_clip1)"><g id="outline" fill="none" stroke="#000"><path d="m6 4 0.382-0.382c0.618-0.618 1.618-0.618 2.236 0l1.503 1.503c0.563 0.563 0.879 1.326 0.879 2.122v1.757" stroke-width="6px"/><path d="m8.5 10.5-5.5-5.5c-0.552-0.552-0.552-1.448 0-2s1.448-0.552 2 0l5.5 5.5 2.564-2.564c-0.041-0.138-0.064-0.285-0.064-0.436 0-0.828 0.672-1.5 1.5-1.5s1.5 0.672 1.5 1.5-0.672 1.5-1.5 1.5c-0.151 0-0.298-0.023-0.436-0.064l-1.149 1.149c0.211 0.101 0.409 0.239 0.584 0.414l2e-3 2e-3c0.828 0.828 0.828 2.17 0 2.998l-1e-3 1e-3 16.5 16.5v2h-2l-16.5-16.5-1e-3 1e-3c-0.828 0.828-2.17 0.828-2.998 0l-2e-3 -2e-3c-0.175-0.175-0.313-0.373-0.414-0.584l-1.149 1.149c0.041 0.138 0.064 0.285 0.064 0.436 0 0.828-0.672 1.5-1.5 1.5s-1.5-0.672-1.5-1.5 0.672-1.5 1.5-1.5c0.151 0 0.298 0.023 0.436 0.064l2.564-2.564z" stroke-width="4px"/></g><g id="emoji"><path d="m6 4 0.382-0.382c0.618-0.618 1.618-0.618 2.236 0l1.071 1.071c0.803 0.803 1.084 1.992 0.725 3.07-0.218 0.654-0.414 1.241-0.414 1.241" fill="none" stroke="#98bdd0" stroke-width="2px"/><path d="m11 9 19 19v2l-2-1-18-18 1-2z" fill="#e1f1f4"/><path d="m10 10 20 20h-2l-19-19 1-1z" fill="#98bdd0"/><path d="m3 3c0.552-0.552 1.448-0.552 2 0l6 6-2 2-6-6c-0.552-0.552-0.552-1.448 0-2z" fill="#e1f1f4"/><path d="m5 14 9-9 1 1-9 9-1-1z" fill="#708e94"/><circle cx="14.5" cy="5.5" r="1.5" fill="#708e94"/><circle cx="5.5" cy="14.5" r="1.5" fill="#708e94"/><path d="m10.501 8.499c0.828-0.828 2.17-0.828 2.998 0l2e-3 2e-3c0.828 0.828 0.828 2.17 0 2.998l-2.002 2.002c-0.828 0.828-2.17 0.828-2.998 0l-2e-3 -2e-3c-0.828-0.828-0.828-2.17 0-2.998l2.002-2.002z" fill="#708e94"/></g></g></svg>
