<?xml version="1.0" encoding="UTF-8"?>
<!DOCTYPE svg  PUBLIC '-//W3C//DTD SVG 1.1//EN'  'http://www.w3.org/Graphics/SVG/1.1/DTD/svg11.dtd'>
<svg clip-rule="evenodd" fill-rule="evenodd" stroke-linecap="square" stroke-miterlimit="3" version="1.1" viewBox="0 0 32 32" xml:space="preserve" xmlns="http://www.w3.org/2000/svg">
<metadata>
<rdf:RDF xmlns:cc="http://web.resource.org/cc/" xmlns:dc="http://purl.org/dc/elements/1.1/" xmlns:rdf="http://www.w3.org/1999/02/22-rdf-syntax-ns#">

     <rdf:Description rdf:about="">
       <dc:title>Mutant Standard emoji 2023.12</dc:title>
     </rdf:Description>

    <cc:work rdf:about="">
        <cc:license rdf:resource="http://creativecommons.org/licenses/by-nc-sa/4.0/"/>
        <cc:attributionName>Caius Nocturne</cc:attributionName>
        <cc:attributionURL>http://mutant.tech/</cc:attributionURL>
    </cc:work>

</rdf:RDF>
</metadata>
<rect id="sabre" width="32" height="32" fill="none"/><clipPath id="_clip1"><rect width="32" height="32"/></clipPath><g clip-path="url(#_clip1)"><g id="outline" stroke="#000"><path d="m11.296 11.296-5.296-5.296-1.172 1.172c-1.562 1.562-1.562 4.094 0 5.656l0.344 0.344c1.562 1.562 4.094 1.562 5.656 0l2.879-2.879c0.188-0.188 0.442-0.293 0.707-0.293h0.586" fill="none" stroke-width="6px"/><path d="m12 11c2.962 3.023 6.912 7.212 11.683 10.504 1.93 1.332 4.653 2.624 6.317 3.496-1.779-0.028-3.515 0.089-5.249-0.322-2.423-0.573-5.468-2.588-7.618-4.643-2.112-2.019-7.133-7.035-7.133-7.035l2-2z" fill="#a6a6a6" stroke-linecap="round" stroke-linejoin="round" stroke-miterlimit="1.5" stroke-width="4px"/></g><g id="emoji"><path d="m11.411 11.589c2.962 3.023 6.801 7.096 11.572 10.388 1.93 1.331 5.221 2.56 7.017 3.023-1.779-0.028-3.515 0.089-5.249-0.322-2.423-0.573-5.468-2.588-7.618-4.643-2.112-2.019-7.133-7.035-7.133-7.035l1.411-1.411z" fill="#98bdd0"/><path d="m12 11c2.962 3.023 6.912 7.212 11.683 10.504 1.93 1.332 4.653 2.624 6.317 3.496-1.779-0.028-4.257-1.05-5.968-1.876-1.889-0.912-3.917-2.033-6.032-4.124-2.079-2.056-7-7-7-7l1-1z" fill="#e1f1f4"/><path d="m6 8 4 4 1-1-5-5-1.172 1.172c-1.562 1.562-1.562 4.094 0 5.656l0.344 0.344c1.562 1.562 4.094 1.562 5.656 0l2.879-2.879c0.188-0.188 0.442-0.293 0.707-0.293h0.586" fill="none" stroke="#7c5636" stroke-width="2px"/></g></g></svg>
