<?xml version="1.0" encoding="UTF-8"?>
<!DOCTYPE svg  PUBLIC '-//W3C//DTD SVG 1.1//EN'  'http://www.w3.org/Graphics/SVG/1.1/DTD/svg11.dtd'>
<svg clip-rule="evenodd" fill-rule="evenodd" stroke-linejoin="round" stroke-miterlimit="1.5" version="1.1" viewBox="0 0 32 32" xml:space="preserve" xmlns="http://www.w3.org/2000/svg">
<metadata>
<rdf:RDF xmlns:cc="http://web.resource.org/cc/" xmlns:dc="http://purl.org/dc/elements/1.1/" xmlns:rdf="http://www.w3.org/1999/02/22-rdf-syntax-ns#">

     <rdf:Description rdf:about="">
       <dc:title>Mutant Standard emoji 2023.12</dc:title>
     </rdf:Description>

    <cc:work rdf:about="">
        <cc:license rdf:resource="http://creativecommons.org/licenses/by-nc-sa/4.0/"/>
        <cc:attributionName>Caius Nocturne</cc:attributionName>
        <cc:attributionURL>http://mutant.tech/</cc:attributionURL>
    </cc:work>

</rdf:RDF>
</metadata>
<rect id="shuriken" width="32" height="32" fill="none"/><clipPath id="_clip1"><rect width="32" height="32"/></clipPath><g clip-path="url(#_clip1)"><g id="outline"><path d="m23 30h-2.93c-4.057 0-7.496-2.983-8.07-6.999v-1e-3s1.225 0.816 2.109 1.406c0.54 0.36 1.242 0.36 1.782 0 1e-3 0 1e-3 -1e-3 2e-3 -2e-3 0.47-0.313 0.752-0.84 0.752-1.404s-0.282-1.091-0.752-1.404c-0.501-0.334-0.893-0.596-0.893-0.596v-3h4v3.444c0 2.917 1.159 5.715 3.222 7.778l0.778 0.778zm-9-11h-3.444c-2.917 0-5.715 1.159-7.778 3.222l-0.778 0.778v-2.93c0-4.057 2.983-7.496 6.999-8.07h1e-3s-0.816 1.225-1.406 2.109c-0.36 0.54-0.36 1.242 0 1.782 0 1e-3 1e-3 1e-3 2e-3 2e-3 0.313 0.47 0.84 0.752 1.404 0.752s1.091-0.282 1.404-0.752c0.334-0.501 0.596-0.893 0.596-0.893h3v4zm7-2h-3v-4h3.444c2.917 0 5.715-1.159 7.778-3.222l0.778-0.778v2.93c0 4.057-2.983 7.496-6.999 8.07h-1e-3s0.816-1.225 1.406-2.109c0.36-0.54 0.36-1.242 0-1.782 0-1e-3 -1e-3 -1e-3 -2e-3 -2e-3 -0.313-0.47-0.84-0.752-1.404-0.752s-1.091 0.282-1.404 0.752l-0.596 0.893zm-4-3h-4v-3.444c0-2.917-1.159-5.715-3.222-7.778l-0.778-0.778h2.93c4.057 0 7.496 2.983 8.07 6.999v1e-3s-1.225-0.816-2.109-1.406c-0.54-0.36-1.242-0.36-1.782 0-1e-3 0-1e-3 1e-3 -2e-3 2e-3 -0.47 0.313-0.752 0.84-0.752 1.404s0.282 1.091 0.752 1.404c0.501 0.334 0.893 0.596 0.893 0.596v3z" fill="none" stroke="#000" stroke-width="4px"/><circle cx="16" cy="16" r="8"/></g><g id="emoji"><path d="m20.155 11.673c0.406 0.39 0.757 0.837 1.041 1.327h0.248c2.917 0 5.715-1.159 7.778-3.222l0.778-0.778v2.93c0 4.057-2.983 7.496-6.999 8.07h-1e-3s0.816-1.225 1.406-2.109c0.36-0.54 0.36-1.242 0-1.782 0-1e-3 -1e-3 -1e-3 -2e-3 -2e-3 -0.313-0.47-0.84-0.752-1.404-0.752-0.368 0-0.721 0.12-1.008 0.334 5e-3 0.103 8e-3 0.207 8e-3 0.311 0 2.219-1.207 4.158-3 5.196v0.248c0 2.917 1.159 5.715 3.222 7.778l0.778 0.778h-2.93c-4.057 0-7.496-2.983-8.07-6.999v-1e-3s1.225 0.816 2.109 1.406c0.54 0.36 1.242 0.36 1.782 0 1e-3 0 1e-3 -1e-3 2e-3 -2e-3 0.47-0.313 0.752-0.84 0.752-1.404 0-0.368-0.12-0.721-0.334-1.008-0.103 5e-3 -0.207 8e-3 -0.311 8e-3 -1.699 0-3.235-0.708-4.327-1.845l0.327-2.155 6.871-6.386 1.284 0.059zm-12.411 4.411c0.317 0.354 0.773 0.561 1.256 0.561 0.231 0 0.456-0.047 0.662-0.135l-0.255 0.88-0.95 1.279-2.132 1.177c-1.314 0.548-2.521 1.35-3.547 2.376l-0.778 0.778v-1.172l1-1.828 4-4 0.744 0.084zm7.746-7.746c-0.088 0.206-0.135 0.431-0.135 0.662 0 0.368 0.12 0.721 0.334 1.008 0.103-5e-3 0.207-8e-3 0.311-8e-3 0.057 0 0.113 1e-3 0.169 2e-3l-0.169 0.998-5 5-0.998 0.169c-1e-3 -0.056-2e-3 -0.112-2e-3 -0.169 0-1.069 0.28-2.073 0.771-2.943l0.775-0.927 1.442-1.306 0.337-0.851 1.633-1.654 0.532 0.019zm3.011-3.011c0.337 0.458 0.627 0.953 0.864 1.48l0.056 0.614-0.561 0.432-0.557 0.016-0.412-0.275c-0.453-0.302-1.021-0.351-1.511-0.145l0.017-0.637 1.467-1.493 0.637 8e-3zm-6.44 0.783c-0.543-1.23-1.313-2.362-2.283-3.332l-0.778-0.778h2.93c1.234 0 2.411 0.276 3.468 0.774l-0.037 0.565-2.762 2.652-0.538 0.119z" fill="#b1cad5"/><path d="m2 21.828v-1.758c0-4.057 2.983-7.496 6.999-8.07h1e-3s-0.816 1.225-1.406 2.109c-0.36 0.54-0.36 1.242 0 1.782 0 1e-3 1e-3 1e-3 2e-3 2e-3 0.045 0.068 0.094 0.132 0.148 0.191l-5.744 5.744zm14.169-11.826c1.545 0.043 2.946 0.672 3.986 1.671l-8.482 8.482c-0.334-0.347-0.626-0.735-0.869-1.155h-0.248c-1.466 0-2.903 0.293-4.231 0.846l3.337-3.336c0.123-0.053 0.239-0.119 0.346-0.199-2e-3 -0.047-4e-3 -0.094-6e-3 -0.142l6.167-6.167zm-0.771-7.228c1.232 0.579 2.299 1.459 3.103 2.553l-2.121 2.122c-0.094 0.039-0.184 0.087-0.271 0.145-1e-3 0-1e-3 1e-3 -2e-3 2e-3 -0.278 0.184-0.49 0.444-0.617 0.742l-4.719 4.719c0.528-0.935 1.3-1.715 2.229-2.253v-0.248c0-1.546-0.326-3.058-0.939-4.446l3.337-3.336zm3.967 4.033c0.307 0.683 0.524 1.418 0.635 2.192v1e-3l-1.697-1.131 1.062-1.062z" fill="#dee9ed"/><circle cx="16" cy="16" r="2"/></g></g></svg>
