<?xml version="1.0" encoding="UTF-8"?>
<!DOCTYPE svg  PUBLIC '-//W3C//DTD SVG 1.1//EN'  'http://www.w3.org/Graphics/SVG/1.1/DTD/svg11.dtd'>
<svg clip-rule="evenodd" fill-rule="evenodd" stroke-linejoin="round" stroke-miterlimit="7" version="1.1" viewBox="0 0 32 32" xml:space="preserve" xmlns="http://www.w3.org/2000/svg">
<metadata>
<rdf:RDF xmlns:cc="http://web.resource.org/cc/" xmlns:dc="http://purl.org/dc/elements/1.1/" xmlns:rdf="http://www.w3.org/1999/02/22-rdf-syntax-ns#">

     <rdf:Description rdf:about="">
       <dc:title>Mutant Standard emoji 2023.12</dc:title>
     </rdf:Description>

    <cc:work rdf:about="">
        <cc:license rdf:resource="http://creativecommons.org/licenses/by-nc-sa/4.0/"/>
        <cc:attributionName>Caius Nocturne</cc:attributionName>
        <cc:attributionURL>http://mutant.tech/</cc:attributionURL>
    </cc:work>

</rdf:RDF>
</metadata>
<rect id="tomahawk" width="32" height="32" fill="none"/><clipPath id="_clip1"><rect width="32" height="32"/></clipPath><g clip-path="url(#_clip1)"><g id="outline"><path d="m27.828 7-22.828 22.828-4.828-4.828 22.828-22.828 4.828 4.828z" fill-rule="nonzero"/><path d="m22 6 8 8s-0.33 0.247-0.8 0.6c-2.077 1.558-4.604 2.4-7.2 2.4v-6h-1l-2-2 3-3z" fill="none" stroke="#000" stroke-width="4px"/></g><g id="emoji"><path d="m3 25 2 2 16-16v-2h-2l-16 16z" fill="#6e4d31"/><path d="m22 6 1-1 2 2-1 1h-2v-2z" fill="#77a0b4"/><path d="m22 6 8 8s-0.33 0.247-0.8 0.6c-2.077 1.558-4.604 2.4-7.2 2.4v-6h-1l-2-2 3-3z" fill="#d1dee1"/></g></g></svg>
