<?xml version="1.0" encoding="UTF-8"?>
<!DOCTYPE svg  PUBLIC '-//W3C//DTD SVG 1.1//EN'  'http://www.w3.org/Graphics/SVG/1.1/DTD/svg11.dtd'>
<svg clip-rule="evenodd" fill-rule="evenodd" stroke-linecap="round" stroke-linejoin="round" stroke-miterlimit="5" version="1.1" viewBox="0 0 32 32" xml:space="preserve" xmlns="http://www.w3.org/2000/svg">
<metadata>
<rdf:RDF xmlns:cc="http://web.resource.org/cc/" xmlns:dc="http://purl.org/dc/elements/1.1/" xmlns:rdf="http://www.w3.org/1999/02/22-rdf-syntax-ns#">

     <rdf:Description rdf:about="">
       <dc:title>Mutant Standard emoji 2023.12</dc:title>
     </rdf:Description>

    <cc:work rdf:about="">
        <cc:license rdf:resource="http://creativecommons.org/licenses/by-nc-sa/4.0/"/>
        <cc:attributionName>Caius Nocturne</cc:attributionName>
        <cc:attributionURL>http://mutant.tech/</cc:attributionURL>
    </cc:work>

</rdf:RDF>
</metadata>
<rect id="zweihander" width="32" height="32" fill="none"/><clipPath id="_clip1"><rect width="32" height="32"/></clipPath><g clip-path="url(#_clip1)"><g id="outline" fill="none" stroke="#000"><path d="m15.208 13.208c1.257-0.725 2.771-0.882 4.158-0.419 0.37 0.123 0.634 0.211 0.634 0.211s-0.874 0.291-1.679 0.56c-0.651 0.217-1.257 0.545-1.793 0.968l12.472 12.472 1 3-3-1-12.472-12.472c-0.423 0.536-0.751 1.142-0.968 1.793-0.269 0.805-0.56 1.679-0.56 1.679s-0.088-0.264-0.211-0.634c-0.463-1.387-0.306-2.901 0.419-4.158l-3.208-3.208 2-2 3.208 3.208zm-10.25-6.25c-0.148 0.028-0.302 0.042-0.458 0.042-1.38 0-2.5-1.12-2.5-2.5s1.12-2.5 2.5-2.5 2.5 1.12 2.5 2.5c0 0.156-0.014 0.31-0.042 0.458l4.042 4.042-2 2-4.042-4.042z" stroke-width="4px"/><path d="m6 16v-1l9-9h1" stroke-linecap="square" stroke-miterlimit="1.5" stroke-width="6px"/></g><g id="emoji"><path d="m11 9-5-5-2 2 5 5 2-2z" fill="#604934"/><path d="m14 14s0.409-0.273 0.925-0.617c1.309-0.873 2.948-1.092 4.441-0.594 0.37 0.123 0.634 0.211 0.634 0.211s-0.874 0.291-1.679 0.56c-0.869 0.289-1.658 0.777-2.306 1.425l-1.03 1.03c-0.648 0.648-1.136 1.437-1.425 2.306-0.269 0.805-0.56 1.679-0.56 1.679s-0.088-0.264-0.211-0.634c-0.498-1.493-0.279-3.132 0.594-4.441 0.344-0.516 0.617-0.925 0.617-0.925z" fill="#98bdd0"/><path d="m12 10 17 17 1 3-3-2-16-16-1-2h2z" fill="#e1f1f4"/><path d="m10 10 20 20-3-1-17-17v-2z" fill="#98bdd0"/><circle cx="4.5" cy="4.5" r="2.5" fill="#708e94"/><path d="m6 16v-1l9-9h1" fill="none" stroke="#708e94" stroke-linecap="square" stroke-miterlimit="1.5" stroke-width="2px"/></g></g></svg>
