<?xml version="1.0" encoding="UTF-8" standalone="no"?><!DOCTYPE svg PUBLIC "-//W3C//DTD SVG 1.1//EN" "http://www.w3.org/Graphics/SVG/1.1/DTD/svg11.dtd"><svg width="100%" height="100%" viewBox="0 0 34 34" version="1.1" xmlns="http://www.w3.org/2000/svg" xmlns:xlink="http://www.w3.org/1999/xlink" xml:space="preserve" xmlns:serif="http://www.serif.com/" style="fill-rule:evenodd;clip-rule:evenodd;stroke-linecap:round;stroke-linejoin:round;stroke-miterlimit:1.5;"><rect id="ferris_question" x="0" y="0" width="34" height="34" style="fill:none;"/><clipPath id="_clip1"><rect x="0" y="0" width="34" height="34"/></clipPath><g clip-path="url(#_clip1)"><g id="st_outline"><path d="M3,12l0,-3.719c0,-0.308 0.142,-0.599 0.385,-0.788c0.242,-0.19 0.559,-0.257 0.858,-0.182c0.544,0.136 1.177,0.294 1.699,0.425c0.631,0.157 1.291,-0.109 1.636,-0.661c0.42,-0.671 0.984,-1.574 1.392,-2.227c0.141,-0.225 0.365,-0.385 0.623,-0.444c0.259,-0.06 0.53,-0.015 0.755,0.126c0.625,0.391 1.479,0.924 2.14,1.338c0.592,0.37 1.362,0.282 1.856,-0.212c0.596,-0.596 1.386,-1.386 1.949,-1.949c0.39,-0.39 1.024,-0.39 1.414,0c0.563,0.563 1.353,1.353 1.949,1.949c0.494,0.494 1.264,0.582 1.856,0.212c0.661,-0.414 1.515,-0.947 2.14,-1.338c0.091,-0.057 0.189,-0.098 0.291,-0.123c0.729,-0.861 1.819,-1.407 3.035,-1.407c0.015,0 0.029,0 0.044,0c2.197,0 3.978,1.781 3.978,3.978c0,0.046 0,0.092 0,0.137c0,0.264 -0.027,0.524 -0.078,0.779c0.051,0.121 0.078,0.252 0.078,0.387l0,15.719c0,0 -1.678,0.599 -3.873,1.383c-2.996,1.07 -6.119,1.651 -9.252,1.742l1.125,1.875c0,0 -1.966,0.59 -4.155,1.247c-3.511,1.053 -7.307,-0.196 -9.506,-3.129c-1.25,-1.666 -2.339,-3.118 -2.339,-3.118l0,-12Zm24.99,-4.249c0.007,-0.041 0.01,-0.082 0.01,-0.123c0,-0.173 0,-0.387 0,-0.603c0,-0.272 -0.108,-0.533 -0.3,-0.725c-0.192,-0.192 -0.453,-0.3 -0.725,-0.3l-0.001,0c-0.258,0 -0.506,0.103 -0.689,0.285c-0.078,0.079 -0.142,0.17 -0.189,0.268l0.326,0.522c0.332,0.532 0.958,0.799 1.568,0.676Z" style="fill:none;stroke:#fff;stroke-width:4.5px;"/><rect x="25" y="5" width="4" height="4" style="stroke:#fff;stroke-width:4.5px;stroke-linejoin:miter;stroke-miterlimit:3;"/></g><g id="Layer1"><path d="M3,12l0,-3.719c0,-0.308 0.142,-0.599 0.385,-0.788c0.242,-0.19 0.559,-0.257 0.858,-0.182c0.544,0.136 1.177,0.294 1.699,0.425c0.631,0.157 1.291,-0.109 1.636,-0.661c0.42,-0.671 0.984,-1.574 1.392,-2.227c0.141,-0.225 0.365,-0.385 0.623,-0.444c0.259,-0.06 0.53,-0.015 0.755,0.126c0.625,0.391 1.479,0.924 2.14,1.338c0.592,0.37 1.362,0.282 1.856,-0.212c0.596,-0.596 1.386,-1.386 1.949,-1.949c0.39,-0.39 1.024,-0.39 1.414,0c0.563,0.563 1.353,1.353 1.949,1.949c0.494,0.494 1.264,0.582 1.856,0.212c0.661,-0.414 1.515,-0.947 2.14,-1.338c0.091,-0.057 0.189,-0.098 0.291,-0.123c0.729,-0.861 1.819,-1.407 3.035,-1.407c0.015,0 0.029,0 0.044,0c2.197,0 3.978,1.781 3.978,3.978c0,0.046 0,0.092 0,0.137c0,0.264 -0.027,0.524 -0.078,0.779c0.051,0.121 0.078,0.252 0.078,0.387l0,15.719c0,0 -1.678,0.599 -3.873,1.383c-2.996,1.07 -6.119,1.651 -9.252,1.742l1.125,1.875c0,0 -1.966,0.59 -4.155,1.247c-3.511,1.053 -7.307,-0.196 -9.506,-3.129c-1.25,-1.666 -2.339,-3.118 -2.339,-3.118l0,-12Zm24.99,-4.249c0.007,-0.041 0.01,-0.082 0.01,-0.123c0,-0.173 0,-0.387 0,-0.603c0,-0.272 -0.108,-0.533 -0.3,-0.725c-0.192,-0.192 -0.453,-0.3 -0.725,-0.3l-0.001,0c-0.258,0 -0.506,0.103 -0.689,0.285c-0.078,0.079 -0.142,0.17 -0.189,0.268l0.326,0.522c0.332,0.532 0.958,0.799 1.568,0.676Z" style="fill:none;stroke:#000;stroke-width:4px;"/><rect x="25" y="5" width="4" height="4"/></g><g id="emoji"><path d="M12.488,5.868c0.592,0.37 1.362,0.282 1.856,-0.212c0.596,-0.596 1.386,-1.386 1.949,-1.949c0.39,-0.39 1.024,-0.39 1.414,0c0.563,0.563 1.353,1.353 1.949,1.949c0.494,0.494 1.264,0.582 1.856,0.212c0.661,-0.414 1.515,-0.947 2.14,-1.338c0.225,-0.141 0.496,-0.186 0.755,-0.126c0.258,0.059 0.482,0.219 0.623,0.444c0.408,0.653 0.972,1.556 1.392,2.227c0.345,0.552 1.005,0.818 1.636,0.661c0.522,-0.131 1.155,-0.289 1.699,-0.425c0.299,-0.075 0.616,-0.008 0.858,0.182c0.243,0.189 0.385,0.48 0.385,0.788l0,15.719c0,0 -1.678,0.599 -3.873,1.383c-2.28,0.815 -4.634,1.345 -7.01,1.593c-1.29,0.134 -4.273,-1.06 -6.437,-1.403c-5.295,-0.84 -10.68,-1.573 -10.68,-1.573l0,-12l0,-3.719c0,-0.308 0.142,-0.599 0.385,-0.788c0.242,-0.19 0.559,-0.257 0.858,-0.182c0.544,0.136 1.177,0.294 1.699,0.425c0.631,0.157 1.291,-0.109 1.636,-0.661c0.42,-0.671 0.984,-1.574 1.392,-2.227c0.141,-0.225 0.365,-0.385 0.623,-0.444c0.259,-0.06 0.53,-0.015 0.755,0.126c0.625,0.391 1.479,0.924 2.14,1.338Z" style="fill:#ec7235;"/><path d="M3,17l28,0l0,7c0,0 -1.678,0.599 -3.873,1.383c-6.549,2.339 -13.705,2.339 -20.254,0c-2.195,-0.784 -3.873,-1.383 -3.873,-1.383l0,-7Z" style="fill:none;"/><clipPath id="_clip2"><path d="M3,17l28,0l0,7c0,0 -1.678,0.599 -3.873,1.383c-6.549,2.339 -13.705,2.339 -20.254,0c-2.195,-0.784 -3.873,-1.383 -3.873,-1.383l0,-7Z"/></clipPath><g clip-path="url(#_clip2)"><path d="M19,29c0,0 -0.54,-0.9 -1.162,-1.936c-1.117,-1.863 -3.228,-2.89 -5.383,-2.621c-2.14,0.268 -4.455,0.557 -4.455,0.557l-5,-4l0,3c0,0 1.089,1.452 2.339,3.118c2.199,2.933 5.995,4.182 9.506,3.129c2.189,-0.657 4.155,-1.247 4.155,-1.247Z" style="fill:none;stroke:#a53a0c;stroke-width:4px;stroke-linecap:square;stroke-linejoin:miter;stroke-miterlimit:3;"/></g><path d="M18.488,28.146l0.512,0.854c0,0 -1.966,0.59 -4.155,1.247c-3.511,1.053 -7.307,-0.196 -9.506,-3.129c-1.25,-1.666 -2.339,-3.118 -2.339,-3.118l0,-3l5,4c0,0 2.315,-0.289 4.455,-0.557c2.155,-0.269 4.266,0.758 5.383,2.621l0.108,0.18l-0.397,0.662l0.939,0.24Z" style="fill:#ec7235;"/><path d="M18.488,28.146l-3.022,0.864c-2.065,0.59 -4.274,-0.222 -5.465,-2.009c-0.001,-0.001 -0.001,-0.001 -0.001,-0.001c0,0 0.17,-0.085 0.411,-0.206c1.004,-0.501 2.181,-0.516 3.197,-0.039c0.565,0.265 1.162,0.545 1.58,0.741c0.356,0.167 0.758,0.21 1.142,0.121l1.616,-0.373l0.542,0.902Z" style="fill:#b54b12;"/><path d="M27,13c0.828,0 1.5,0.672 1.5,1.5c0,0.828 -0.672,1.5 -1.5,1.5c-0.828,0 -1.5,-0.672 -1.5,-1.5c0,-0.828 0.672,-1.5 1.5,-1.5Zm-3.5,-5c-0.133,0 -0.26,-0.053 -0.354,-0.146c-0.093,-0.094 -0.146,-0.221 -0.146,-0.354c0,-0.149 0,-0.326 0,-0.522c0,-2.197 1.781,-3.978 3.978,-3.978c0.015,0 0.029,0 0.044,0c2.197,0 3.978,1.781 3.978,3.978c0,0.046 0,0.092 0,0.137c0,1.191 -0.542,2.318 -1.472,3.063c-0.281,0.224 -0.546,0.437 -0.737,0.589c-0.184,0.147 -0.291,0.37 -0.291,0.606c0,0.041 0,0.084 0,0.127c0,0.133 -0.053,0.26 -0.146,0.354c-0.094,0.093 -0.221,0.146 -0.354,0.146c-0.615,0 -1.641,0 -2.167,0c-0.184,0 -0.333,-0.149 -0.333,-0.333c0,0 0,-0.001 0,-0.001c0,-1.053 0.479,-2.049 1.301,-2.707c0.342,-0.273 0.679,-0.543 0.908,-0.726c0.184,-0.147 0.291,-0.37 0.291,-0.605c0,-0.173 0,-0.387 0,-0.603c0,-0.272 -0.108,-0.533 -0.3,-0.725c-0.192,-0.192 -0.453,-0.3 -0.725,-0.3l-0.001,0c-0.258,0 -0.506,0.103 -0.689,0.285c-0.182,0.183 -0.285,0.431 -0.285,0.689l0,0.869c0,0.042 -0.017,0.082 -0.046,0.111c-0.029,0.029 -0.069,0.046 -0.111,0.046c-0.432,0 -1.649,0 -2.343,0Z" style="fill:#fff;"/><g><path d="M23.255,14.515c-1.848,-0.673 -3.341,0.344 -3.958,1.711c-0.748,1.658 -0.922,3.066 -0.321,4.227c0.661,1.276 2.001,2.066 3.353,1.745c1.827,-0.434 2.473,-1.343 2.831,-3.372c0.357,-2.029 -0.279,-3.72 -1.905,-4.311Z"/><path d="M11.93,12.518c-1.849,-0.673 -3.341,0.344 -3.958,1.711c-0.748,1.658 -0.922,3.066 -0.321,4.227c0.661,1.276 2.001,2.066 3.353,1.745c1.827,-0.434 2.473,-1.343 2.83,-3.372c0.358,-2.029 -0.279,-3.72 -1.904,-4.311Z"/><path d="M22.587,16.14c0.058,-0.327 -0.017,-0.663 -0.207,-0.935c-0.19,-0.271 -0.48,-0.456 -0.807,-0.514c-0.326,-0.057 -0.662,0.017 -0.934,0.208c-0.272,0.19 -0.456,0.48 -0.514,0.806c-0.055,0.314 -0.115,0.65 -0.17,0.963c-0.057,0.327 0.017,0.663 0.207,0.934c0.19,0.272 0.481,0.457 0.807,0.514c0.327,0.058 0.663,-0.017 0.934,-0.207c0.272,-0.19 0.457,-0.48 0.514,-0.807c0.055,-0.313 0.115,-0.649 0.17,-0.962Z" style="fill:#e5e5e5;"/><path d="M11.262,14.141c0.058,-0.326 -0.017,-0.662 -0.207,-0.933c-0.19,-0.271 -0.479,-0.456 -0.805,-0.513c-0.001,0 -0.002,0 -0.002,-0.001c-0.327,-0.057 -0.663,0.017 -0.934,0.208c-0.272,0.19 -0.457,0.48 -0.514,0.806c-0.056,0.314 -0.115,0.65 -0.17,0.963c-0.058,0.327 0.017,0.663 0.207,0.934c0.19,0.272 0.48,0.457 0.807,0.514c0.326,0.058 0.662,-0.017 0.934,-0.207c0.271,-0.19 0.456,-0.48 0.514,-0.807c0.055,-0.313 0.115,-0.651 0.17,-0.964Z" style="fill:#e5e5e5;"/></g></g></g></svg>