<?xml version="1.0" encoding="UTF-8" standalone="no"?><!DOCTYPE svg PUBLIC "-//W3C//DTD SVG 1.1//EN" "http://www.w3.org/Graphics/SVG/1.1/DTD/svg11.dtd"><svg width="100%" height="100%" viewBox="0 0 34 34" version="1.1" xmlns="http://www.w3.org/2000/svg" xmlns:xlink="http://www.w3.org/1999/xlink" xml:space="preserve" xmlns:serif="http://www.serif.com/" style="fill-rule:evenodd;clip-rule:evenodd;stroke-linecap:round;stroke-linejoin:round;stroke-miterlimit:1.5;"><rect id="ferris" x="0" y="0" width="34" height="34" style="fill:none;"/><g id="st_outline"><path d="M3,8.281c0,-0.308 0.142,-0.599 0.385,-0.788c0.242,-0.19 0.559,-0.257 0.858,-0.182c0.544,0.136 1.177,0.294 1.699,0.425c0.631,0.157 1.291,-0.109 1.636,-0.661c0.42,-0.671 0.984,-1.574 1.392,-2.227c0.141,-0.225 0.365,-0.385 0.623,-0.444c0.259,-0.06 0.53,-0.015 0.755,0.126c0.625,0.391 1.479,0.924 2.14,1.338c0.592,0.37 1.362,0.282 1.856,-0.212c0.596,-0.596 1.386,-1.386 1.949,-1.949c0.39,-0.39 1.024,-0.39 1.414,0c0.563,0.563 1.353,1.353 1.949,1.949c0.494,0.494 1.264,0.582 1.856,0.212c0.661,-0.414 1.515,-0.947 2.14,-1.338c0.225,-0.141 0.496,-0.186 0.755,-0.126c0.258,0.059 0.482,0.219 0.623,0.444c0.408,0.653 0.972,1.556 1.392,2.227c0.345,0.552 1.005,0.818 1.636,0.661c0.522,-0.131 1.155,-0.289 1.699,-0.425c0.299,-0.075 0.616,-0.008 0.858,0.182c0.243,0.189 0.385,0.48 0.385,0.788l0,15.719c0,3.866 -3.134,7 -7,7c-1.68,0 -3,0 -3,0l0,-1.158c0,-1.152 0.357,-2.229 0.972,-3.118c-3.291,0.551 -6.653,0.551 -9.944,0c0.615,0.889 0.972,1.966 0.972,3.118l0,1.158c0,0 -1.32,0 -3,0c-3.866,0 -7,-3.134 -7,-7l0,-15.719Z" style="fill:none;stroke:#fff;stroke-width:4.5px;"/></g><g id="outline"><path d="M3,8.281c0,-0.308 0.142,-0.599 0.385,-0.788c0.242,-0.19 0.559,-0.257 0.858,-0.182c0.544,0.136 1.177,0.294 1.699,0.425c0.631,0.157 1.291,-0.109 1.636,-0.661c0.42,-0.671 0.984,-1.574 1.392,-2.227c0.141,-0.225 0.365,-0.385 0.623,-0.444c0.259,-0.06 0.53,-0.015 0.755,0.126c0.625,0.391 1.479,0.924 2.14,1.338c0.592,0.37 1.362,0.282 1.856,-0.212c0.596,-0.596 1.386,-1.386 1.949,-1.949c0.39,-0.39 1.024,-0.39 1.414,0c0.563,0.563 1.353,1.353 1.949,1.949c0.494,0.494 1.264,0.582 1.856,0.212c0.661,-0.414 1.515,-0.947 2.14,-1.338c0.225,-0.141 0.496,-0.186 0.755,-0.126c0.258,0.059 0.482,0.219 0.623,0.444c0.408,0.653 0.972,1.556 1.392,2.227c0.345,0.552 1.005,0.818 1.636,0.661c0.522,-0.131 1.155,-0.289 1.699,-0.425c0.299,-0.075 0.616,-0.008 0.858,0.182c0.243,0.189 0.385,0.48 0.385,0.788l0,15.719c0,3.866 -3.134,7 -7,7c-1.68,0 -3,0 -3,0l0,-1.158c0,-1.152 0.357,-2.229 0.972,-3.118c-3.291,0.551 -6.653,0.551 -9.944,0c0.615,0.889 0.972,1.966 0.972,3.118l0,1.158c0,0 -1.32,0 -3,0c-3.866,0 -7,-3.134 -7,-7l0,-15.719Z" style="fill:none;stroke:#000;stroke-width:4px;"/></g><g id="emoji"><path d="M3,20l0,-11.719c0,-0.308 0.142,-0.599 0.385,-0.788c0.242,-0.19 0.559,-0.257 0.858,-0.182c0.544,0.136 1.177,0.294 1.699,0.425c0.631,0.157 1.291,-0.109 1.636,-0.661c0.42,-0.671 0.984,-1.574 1.392,-2.227c0.141,-0.225 0.365,-0.385 0.623,-0.444c0.259,-0.06 0.53,-0.015 0.755,0.126c0.625,0.391 1.479,0.924 2.14,1.338c0.592,0.37 1.362,0.282 1.856,-0.212c0.596,-0.596 1.386,-1.386 1.949,-1.949c0.39,-0.39 1.024,-0.39 1.414,0c0.563,0.563 1.353,1.353 1.949,1.949c0.494,0.494 1.264,0.582 1.856,0.212c0.661,-0.414 1.515,-0.947 2.14,-1.338c0.225,-0.141 0.496,-0.186 0.755,-0.126c0.258,0.059 0.482,0.219 0.623,0.444c0.408,0.653 0.972,1.556 1.392,2.227c0.345,0.552 1.005,0.818 1.636,0.661c0.522,-0.131 1.155,-0.289 1.699,-0.425c0.299,-0.075 0.616,-0.008 0.858,0.182c0.243,0.189 0.385,0.48 0.385,0.788l0,11.719l-1.514,4.541l-2.359,-0.158c-1.68,0.6 -7.577,2.646 -7.579,2.646c-1.696,0.144 -3.401,0.144 -5.096,0c-0.004,0 -5.896,-2.045 -7.579,-2.646l-2.359,0.158l-1.514,-4.541Z" style="fill:#ec7235;"/><path d="M3,20l0,-8.719l28,0l0,8.719l-1.514,4.541l-2.359,0.842c-6.549,2.339 -13.705,2.339 -20.254,0l-2.359,-0.842l-1.514,-4.541Z" style="fill:none;"/><clipPath id="_clip1"><path d="M3,20l0,-8.719l28,0l0,8.719l-1.514,4.541l-2.359,0.842c-6.549,2.339 -13.705,2.339 -20.254,0l-2.359,-0.842l-1.514,-4.541Z"/></clipPath><g clip-path="url(#_clip1)"><path d="M21,31l0,-1.158c0,-2.766 2.06,-5.099 4.804,-5.443c1.699,-0.212 3.196,-0.399 3.196,-0.399l4,-8l0,8c0,1.857 -0.738,3.637 -2.05,4.95c-1.313,1.313 -3.093,2.05 -4.95,2.05l-5,0Z" style="fill:none;stroke:#a53a0c;stroke-width:4px;stroke-linecap:square;"/><path d="M13,31l0,-1.158c0,-2.766 -2.06,-5.099 -4.804,-5.443c-1.699,-0.212 -3.196,-0.399 -3.196,-0.399l-4,-8l0,8c0,1.857 0.738,3.637 2.05,4.95c1.313,1.313 3.093,2.05 4.95,2.05l5,0Z" style="fill:none;stroke:#a53a0c;stroke-width:4px;stroke-linecap:square;"/></g><g><path d="M21.064,29c0.369,-2.385 2.279,-4.293 4.74,-4.601c1.699,-0.212 3.196,-0.399 3.196,-0.399l2,-4l0,4c0,3.866 -3.134,7 -7,7c-1.68,0 -3,0 -3,0l0,-1l0.481,-0.585l-0.417,-0.415Z" style="fill:#ec7235;"/><path d="M21.064,29l0.208,0c0.466,0 0.913,-0.185 1.243,-0.515c0.387,-0.387 0.931,-0.931 1.411,-1.411c0.688,-0.688 1.62,-1.074 2.592,-1.074l0.482,0c0,0 -0.233,0.467 -0.541,1.081c-0.894,1.789 -2.722,2.919 -4.722,2.919l-0.737,0l0,-0.158c0,-0.286 0.022,-0.567 0.064,-0.842Z" style="fill:#b54b12;"/></g><g><path d="M12.936,29c-0.369,-2.385 -2.279,-4.293 -4.74,-4.601c-1.699,-0.212 -3.196,-0.399 -3.196,-0.399l-2,-4l0,4c0,3.866 3.134,7 7,7c1.68,0 3,0 3,0l0,-1l-0.481,-0.585l0.417,-0.415Z" style="fill:#ec7235;"/><path d="M12.936,29l-0.208,0c-0.466,0 -0.913,-0.185 -1.243,-0.515c-0.387,-0.387 -0.931,-0.931 -1.411,-1.411c-0.688,-0.688 -1.62,-1.074 -2.592,-1.074l-0.482,0c0,0 0.233,0.467 0.541,1.081c0.894,1.789 2.722,2.919 4.722,2.919l0.737,0l0,-0.158c0,-0.286 -0.022,-0.567 -0.064,-0.842Z" style="fill:#b54b12;"/></g><path d="M23.376,14.056c-1.937,-0.341 -3.231,0.919 -3.601,2.373c-0.448,1.763 -0.375,3.18 0.418,4.218c0.872,1.142 2.33,1.688 3.605,1.137c1.724,-0.745 2.202,-1.752 2.202,-3.813c0,-2.06 -0.921,-3.614 -2.624,-3.915Z"/><path d="M11.876,14.056c-1.937,-0.341 -3.231,0.919 -3.601,2.373c-0.448,1.763 -0.375,3.18 0.418,4.218c0.872,1.142 2.33,1.688 3.605,1.137c1.724,-0.745 2.202,-1.752 2.202,-3.813c0,-2.06 -0.921,-3.614 -2.624,-3.915Z"/><path d="M23,15.77c0,-0.331 -0.131,-0.648 -0.366,-0.882c-0.234,-0.234 -0.551,-0.366 -0.882,-0.366c-0.001,0 -0.003,0 -0.004,0c-0.331,0 -0.648,0.132 -0.882,0.366c-0.235,0.234 -0.366,0.551 -0.366,0.882c0,0.32 0,0.663 0,0.982c0,0.331 0.131,0.648 0.366,0.882c0.234,0.235 0.551,0.366 0.882,0.366c0.001,0 0.003,0 0.004,0c0.331,0 0.648,-0.131 0.882,-0.366c0.235,-0.234 0.366,-0.551 0.366,-0.882c0,-0.319 0,-0.662 0,-0.982Z" style="fill:#e5e5e5;"/><path d="M11.5,15.77c0,-0.331 -0.131,-0.648 -0.366,-0.882c-0.234,-0.234 -0.551,-0.366 -0.882,-0.366c-0.001,0 -0.003,0 -0.004,0c-0.331,0 -0.648,0.132 -0.882,0.366c-0.235,0.234 -0.366,0.551 -0.366,0.882c0,0.32 0,0.663 0,0.982c0,0.331 0.131,0.648 0.366,0.882c0.234,0.235 0.551,0.366 0.882,0.366c0.001,0 0.003,0 0.004,0c0.331,0 0.648,-0.131 0.882,-0.366c0.235,-0.234 0.366,-0.551 0.366,-0.882c0,-0.319 0,-0.662 0,-0.982Z" style="fill:#e5e5e5;"/></g></svg>