<?xml version="1.0" encoding="UTF-8"?>
<!DOCTYPE svg  PUBLIC '-//W3C//DTD SVG 1.1//EN'  'http://www.w3.org/Graphics/SVG/1.1/DTD/svg11.dtd'>
<svg clip-rule="evenodd" fill-rule="evenodd" stroke-linecap="round" stroke-linejoin="round" stroke-miterlimit="1.5" version="1.1" viewBox="0 0 34 34" xml:space="preserve" xmlns="http://www.w3.org/2000/svg" xmlns:serif="http://www.serif.com/"><rect id="ferris_party" width="34" height="34" fill="none"/><g id="Layer1" fill="none" stroke="#fff" stroke-width="4.5px"><path d="m12.488 9.868c0.592 0.37 1.362 0.282 1.856-0.212l1.949-1.949c0.39-0.39 1.024-0.39 1.414 0l1.949 1.949c0.494 0.494 1.264 0.582 1.856 0.212 0.661-0.414 1.515-0.947 2.14-1.338 0.225-0.141 0.496-0.186 0.755-0.126 0.258 0.059 0.482 0.219 0.623 0.444 0.408 0.653 0.972 1.556 1.392 2.227 0.345 0.552 1.005 0.818 1.636 0.661 0.522-0.131 1.155-0.289 1.699-0.425 0.299-0.075 0.616-8e-3 0.858 0.182 0.243 0.189 0.385 0.48 0.385 0.788v15.719s-1.247 0.445-2.997 1.07c-7.115 2.541-14.891 2.541-22.006 0-1.75-0.625-2.997-1.07-2.997-1.07v-12-3.719c0-0.308 0.142-0.599 0.385-0.788 0.242-0.19 0.559-0.257 0.858-0.182 0.544 0.136 1.177 0.294 1.699 0.425 0.631 0.157 1.291-0.109 1.636-0.661 0.42-0.671 0.984-1.574 1.392-2.227 0.141-0.225 0.365-0.385 0.623-0.444 0.259-0.06 0.53-0.015 0.755 0.126 0.625 0.391 1.479 0.924 2.14 1.338z"/><path d="m5.866 16.467c-1.057-0.265-1.739-1.291-1.573-2.368 0.555-3.61 1.707-11.099 1.707-11.099s6.333 5.066 8.919 7.135c0.622 0.498 0.79 1.375 0.394 2.067-0.056 0.099-0.116 0.202-0.177 0.31-1.855 3.246-5.642 4.862-9.268 3.955h-2e-3z" stroke-miterlimit="3"/><path d="m24 5h1.172c1.811 0 3.547-0.719 4.828-2l1 3s-0.421 0.28-0.947 0.631c-1.339 0.893-2.912 1.369-4.521 1.369h-0.532l-1-3z" stroke-miterlimit="3"/><path d="m30 27h-1.172c-1.811 0-3.547-0.719-4.828-2l-1 3s0.421 0.28 0.947 0.631c1.339 0.893 2.912 1.369 4.521 1.369h0.532l1-3z" stroke-miterlimit="3"/></g><g id="Layer11" fill="none" stroke="#000" stroke-width="4px" serif:id="Layer1"><path d="m12.488 9.868c0.592 0.37 1.362 0.282 1.856-0.212l1.949-1.949c0.39-0.39 1.024-0.39 1.414 0l1.949 1.949c0.494 0.494 1.264 0.582 1.856 0.212 0.661-0.414 1.515-0.947 2.14-1.338 0.225-0.141 0.496-0.186 0.755-0.126 0.258 0.059 0.482 0.219 0.623 0.444 0.408 0.653 0.972 1.556 1.392 2.227 0.345 0.552 1.005 0.818 1.636 0.661 0.522-0.131 1.155-0.289 1.699-0.425 0.299-0.075 0.616-8e-3 0.858 0.182 0.243 0.189 0.385 0.48 0.385 0.788v15.719s-1.247 0.445-2.997 1.07c-7.115 2.541-14.891 2.541-22.006 0-1.75-0.625-2.997-1.07-2.997-1.07v-12-3.719c0-0.308 0.142-0.599 0.385-0.788 0.242-0.19 0.559-0.257 0.858-0.182 0.544 0.136 1.177 0.294 1.699 0.425 0.631 0.157 1.291-0.109 1.636-0.661 0.42-0.671 0.984-1.574 1.392-2.227 0.141-0.225 0.365-0.385 0.623-0.444 0.259-0.06 0.53-0.015 0.755 0.126 0.625 0.391 1.479 0.924 2.14 1.338z"/><path d="m5.866 16.467c-1.057-0.265-1.739-1.291-1.573-2.368 0.555-3.61 1.707-11.099 1.707-11.099s6.333 5.066 8.919 7.135c0.622 0.498 0.79 1.375 0.394 2.067-0.056 0.099-0.116 0.202-0.177 0.31-1.855 3.246-5.642 4.862-9.268 3.955h-2e-3z" stroke-miterlimit="3"/><path d="m24 5h1.172c1.811 0 3.547-0.719 4.828-2l1 3s-0.421 0.28-0.947 0.631c-1.339 0.893-2.912 1.369-4.521 1.369h-0.532l-1-3z" stroke-miterlimit="3"/><path d="m30 27h-1.172c-1.811 0-3.547-0.719-4.828-2l-1 3s0.421 0.28 0.947 0.631c1.339 0.893 2.912 1.369 4.521 1.369h0.532l1-3z" stroke-miterlimit="3"/></g><g id="emoji"><path d="m3 26v-13.719c0-0.308 0.142-0.599 0.385-0.788 0.242-0.19 0.559-0.257 0.858-0.182 0.544 0.136 1.177 0.294 1.699 0.425 0.631 0.157 1.291-0.109 1.636-0.661 0.42-0.671 0.984-1.574 1.392-2.227 0.141-0.225 0.365-0.385 0.623-0.444 0.259-0.06 0.53-0.015 0.755 0.126 0.625 0.391 1.479 0.924 2.14 1.338 0.592 0.37 1.362 0.282 1.856-0.212l1.949-1.949c0.39-0.39 1.024-0.39 1.414 0l1.949 1.949c0.494 0.494 1.264 0.582 1.856 0.212 0.661-0.414 1.515-0.947 2.14-1.338 0.225-0.141 0.496-0.186 0.755-0.126 0.258 0.059 0.482 0.219 0.623 0.444 0.408 0.653 0.972 1.556 1.392 2.227 0.345 0.552 1.005 0.818 1.636 0.661 0.522-0.131 1.155-0.289 1.699-0.425 0.299-0.075 0.616-8e-3 0.858 0.182 0.243 0.189 0.385 0.48 0.385 0.788v15.719s-1.247 0.445-2.997 1.07c-0.662 0.237-1.33 0.451-2.003 0.644l-1.593-0.032-2.059 0.854c-5.455 0.904-11.084 0.415-16.351-1.466l-0.859-0.306c-0.304-0.474-0.405-1.18-0.787-1.664-0.552-0.697-1.351-1.1-1.351-1.1z" fill="#ec7235"/><path d="m22 13s-0.613-0.204-1.284-0.428c-1.137-0.379-2.327-0.572-3.524-0.572h-1.192l-1 3h2.192c1.197 0 2.387 0.193 3.524 0.572 0.671 0.224 1.284 0.428 1.284 0.428v-3z" fill="#df5211"/><path d="m3 26 3-3 2 2s-0.204 0.136-0.505 0.336c-1.209 0.807-2.044 2.04-2.357 3.428l-2.138-0.764v-2z" fill="#df5211"/><path d="m22.348 30.536 2.652-3.536 1 2v0.714c-1.204 0.345-2.424 0.619-3.652 0.822z" fill="#df5211"/><path d="m12.718 25.655c-0.186-0.309-0.191-0.694-0.013-1.007 0.177-0.314 0.51-0.508 0.87-0.508h6.85c0.36 0 0.693 0.194 0.87 0.508 0.178 0.313 0.173 0.698-0.013 1.007-0.225 0.376-0.471 0.786-0.709 1.182-0.753 1.255-2.109 2.023-3.572 2.023h-2e-3c-1.463 0-2.819-0.768-3.572-2.023-0.238-0.396-0.484-0.806-0.709-1.182z"/><clipPath id="_clip1"><path d="m12.718 25.655c-0.186-0.309-0.191-0.694-0.013-1.007 0.177-0.314 0.51-0.508 0.87-0.508h6.85c0.36 0 0.693 0.194 0.87 0.508 0.178 0.313 0.173 0.698-0.013 1.007-0.225 0.376-0.471 0.786-0.709 1.182-0.753 1.255-2.109 2.023-3.572 2.023h-2e-3c-1.463 0-2.819-0.768-3.572-2.023-0.238-0.396-0.484-0.806-0.709-1.182z"/></clipPath><g clip-path="url(#_clip1)"><path d="m12 29.5 1.586-1.586c0.905-0.905 2.133-1.414 3.414-1.414s2.509 0.509 3.414 1.414l1.586 1.586h-10z" fill="#8b8b8b"/></g><path d="m20.425 24.14 0.034 1e-3 0.066 4e-3 0.034 4e-3 0.032 5e-3 0.033 6e-3 0.032 7e-3 0.064 0.018 0.031 0.01 0.03 0.011 0.031 0.012 0.03 0.013 0.029 0.014 0.029 0.015 0.029 0.016 0.028 0.017 0.027 0.018 0.027 0.019 0.026 0.019 0.05 0.042 0.024 0.022 0.024 0.023 0.023 0.024 0.022 0.024 0.042 0.052 0.038 0.054 0.018 0.029 0.017 0.029 0.016 0.029 0.015 0.03 0.014 0.031 0.013 0.03 0.012 0.031 0.011 0.032 0.01 0.031 0.016 0.064 0.012 0.064 4e-3 0.033 3e-3 0.032 3e-3 0.033 1e-3 0.032v0.033l-1e-3 0.033-2e-3 0.032-3e-3 0.033-4e-3 0.032-5e-3 0.032-7e-3 0.033-7e-3 0.031-8e-3 0.032-0.01 0.032-0.01 0.031-0.024 0.062-0.014 0.03-0.015 0.03-0.016 0.03-0.017 0.029-0.709 1.182-0.072 0.116-0.076 0.114-0.039 0.055-0.04 0.055-0.041 0.054-0.041 0.053-0.043 0.053-0.043 0.051-0.044 0.051-0.045 0.051-0.045 0.049-0.046 0.049-0.047 0.047-0.096 0.094-0.049 0.045-0.1 0.088-0.051 0.043-0.052 0.042-0.052 0.041-0.053 0.04-0.054 0.04-0.054 0.038-0.055 0.038-0.055 0.037-0.056 0.036-0.056 0.035-0.057 0.034-0.058 0.033-0.058 0.032-0.058 0.031-0.059 0.031-0.12 0.058-0.06 0.027-0.061 0.027-0.061 0.026-0.124 0.048-0.063 0.023-0.126 0.042-0.064 0.02-0.128 0.036-0.065 0.017-0.065 0.015-0.066 0.015-0.066 0.014-0.066 0.012-0.066 0.011-0.067 0.011-0.066 9e-3 -0.067 8e-3 -0.068 8e-3 -0.067 6e-3 -0.068 5e-3 -0.068 4e-3 -0.068 2e-3 -0.069 2e-3 -0.068 1e-3h-2e-3l-0.068-1e-3 -0.069-2e-3 -0.068-2e-3 -0.068-4e-3 -0.068-5e-3 -0.067-6e-3 -0.068-8e-3 -0.067-8e-3 -0.066-9e-3 -0.067-0.011-0.066-0.011-0.066-0.012-0.066-0.014-0.066-0.015-0.065-0.015-0.065-0.017-0.128-0.036-0.064-0.02-0.126-0.042-0.063-0.023-0.124-0.048-0.061-0.026-0.061-0.027-0.06-0.027-0.12-0.058-0.059-0.031-0.058-0.031-0.058-0.032-0.058-0.033-0.057-0.034-0.056-0.035-0.056-0.036-0.055-0.037-0.055-0.038-0.054-0.038-0.054-0.04-0.053-0.04-0.052-0.041-0.052-0.042-0.051-0.043-0.1-0.088-0.049-0.045-0.096-0.094-0.047-0.047-0.046-0.049-0.045-0.049-0.045-0.051-0.044-0.051-0.043-0.051-0.043-0.053-0.041-0.053-0.041-0.054-0.04-0.055-0.039-0.055-0.076-0.114-0.072-0.116-0.709-1.182-0.017-0.029-0.016-0.03-0.015-0.03-0.014-0.03-0.024-0.062-0.01-0.031-0.01-0.032-8e-3 -0.032-7e-3 -0.031-7e-3 -0.033-5e-3 -0.032-4e-3 -0.032-3e-3 -0.033-2e-3 -0.032-1e-3 -0.033v-0.033l1e-3 -0.032 3e-3 -0.033 3e-3 -0.032 4e-3 -0.033 0.012-0.064 0.016-0.064 0.01-0.031 0.011-0.032 0.012-0.031 0.013-0.03 0.014-0.031 0.015-0.03 0.016-0.029 0.017-0.029 0.018-0.029 0.038-0.054 0.042-0.052 0.022-0.024 0.023-0.024 0.024-0.023 0.024-0.022 0.05-0.042 0.026-0.019 0.027-0.019 0.027-0.018 0.028-0.017 0.029-0.016 0.029-0.015 0.029-0.014 0.03-0.013 0.031-0.012 0.03-0.011 0.031-0.01 0.064-0.018 0.032-7e-3 0.033-6e-3 0.032-5e-3 0.034-4e-3 0.066-4e-3 0.034-1e-3h6.85zm-6.842 1-8e-3 1e-3 4e-3 7e-3 0.703 1.171 0.03 0.048 0.027 0.044 0.058 0.086 0.06 0.084 0.031 0.041 0.064 0.08 0.033 0.04 0.033 0.038 0.034 0.039 0.07 0.074 0.035 0.036 0.036 0.036 0.074 0.07 0.076 0.066 0.039 0.033 0.039 0.032 0.08 0.062 0.041 0.03 0.041 0.029 0.042 0.029 0.042 0.028 0.042 0.027 0.043 0.027 0.044 0.025 0.043 0.026 0.044 0.024 0.045 0.024 0.045 0.023 0.09 0.044 0.046 0.021 0.047 0.02 0.046 0.02 0.047 0.019 0.048 0.017 0.047 0.018 0.096 0.032 0.049 0.015 0.048 0.014 0.049 0.014 0.049 0.012 0.05 0.012 0.05 0.011 0.1 0.02 0.05 9e-3 0.051 8e-3 0.051 7e-3 0.05 6e-3 0.052 5e-3 0.051 5e-3 0.051 4e-3 0.052 3e-3 0.052 2e-3 0.052 1e-3 0.053 1e-3 0.053-1e-3 0.052-1e-3 0.052-2e-3 0.052-3e-3 0.051-4e-3 0.051-5e-3 0.052-5e-3 0.05-6e-3 0.051-7e-3 0.051-8e-3 0.05-9e-3 0.1-0.02 0.05-0.011 0.05-0.012 0.049-0.012 0.049-0.014 0.048-0.014 0.049-0.015 0.096-0.032 0.047-0.018 0.048-0.017 0.047-0.019 0.046-0.02 0.047-0.02 0.046-0.021 0.09-0.044 0.045-0.023 0.045-0.024 0.044-0.024 0.044-0.026 0.043-0.025 0.043-0.027 0.042-0.027 0.042-0.028 0.042-0.029 0.041-0.029 0.041-0.03 0.08-0.062 0.039-0.032 0.039-0.033 0.076-0.066 0.074-0.07 0.036-0.036 0.035-0.036 0.07-0.074 0.034-0.039 0.033-0.038 0.033-0.04 0.064-0.08 0.031-0.041 0.06-0.084 0.058-0.086 0.027-0.044 0.03-0.048 0.703-1.171 4e-3 -7e-3 -8e-3 -1e-3h-6.834z"/><path d="m20.734 24 0.034 1e-3 0.033 1e-3 0.033 3e-3 0.033 4e-3 0.033 5e-3 0.033 6e-3 0.032 7e-3 0.032 8e-3 0.031 9e-3 0.032 0.011 0.03 0.011 0.031 0.012 0.03 0.013 0.029 0.014 0.029 0.015 0.028 0.016 0.028 0.017 0.028 0.018 0.026 0.018 0.027 0.02 0.025 0.02 0.025 0.022 0.024 0.022 0.024 0.023 0.023 0.024 0.022 0.024 0.021 0.025 0.02 0.026 0.02 0.027 0.019 0.028 0.018 0.028 0.017 0.029 0.016 0.03 0.015 0.03 0.014 0.03 0.013 0.031 0.012 0.031 0.011 0.031 9e-3 0.032 9e-3 0.031 8e-3 0.032 6e-3 0.033 0.01 0.064 3e-3 0.033 2e-3 0.032 2e-3 0.033v0.033l-1e-3 0.032-2e-3 0.033-3e-3 0.032-4e-3 0.033-0.012 0.064-7e-3 0.032-9e-3 0.032-9e-3 0.031-0.01 0.032-0.012 0.031-0.013 0.03-0.013 0.031-0.015 0.03-0.016 0.029-0.017 0.029-0.805 1.343-0.038 0.062-0.039 0.061-0.04 0.061-0.04 0.059-0.042 0.059-0.042 0.058-0.043 0.057-0.044 0.057-0.045 0.055-0.046 0.055-0.046 0.054-0.096 0.106-0.049 0.051-0.05 0.051-0.05 0.05-0.051 0.049-0.052 0.048-0.053 0.047-0.053 0.046-0.054 0.046-0.11 0.088-0.057 0.042-0.056 0.042-0.058 0.041-0.058 0.04-0.058 0.039-0.059 0.038-0.06 0.037-0.06 0.036-0.061 0.035-0.062 0.034-0.124 0.066-0.063 0.031-0.064 0.03-0.064 0.029-0.065 0.028-0.13 0.054-0.066 0.025-0.066 0.024-0.067 0.023-0.067 0.022-0.068 0.021-0.136 0.038-0.068 0.018-0.069 0.016-0.07 0.016-0.069 0.014-0.07 0.013-0.071 0.013-0.07 0.011-0.142 0.018-0.072 8e-3 -0.071 6e-3 -0.072 6e-3 -0.072 4e-3 -0.072 3e-3 -0.073 1e-3 -0.072 1e-3h-2e-3l-0.072-1e-3 -0.073-1e-3 -0.072-3e-3 -0.072-4e-3 -0.072-6e-3 -0.071-6e-3 -0.072-8e-3 -0.142-0.018-0.07-0.011-0.071-0.013-0.07-0.013-0.069-0.014-0.07-0.016-0.069-0.016-0.068-0.018-0.136-0.038-0.068-0.021-0.067-0.022-0.067-0.023-0.066-0.024-0.066-0.025-0.13-0.054-0.065-0.028-0.064-0.029-0.064-0.03-0.063-0.031-0.124-0.066-0.062-0.034-0.061-0.035-0.06-0.036-0.06-0.037-0.059-0.038-0.058-0.039-0.058-0.04-0.058-0.041-0.056-0.042-0.057-0.042-0.11-0.088-0.054-0.046-0.053-0.046-0.053-0.047-0.052-0.048-0.051-0.049-0.05-0.05-0.05-0.051-0.049-0.051-0.096-0.106-0.046-0.054-0.046-0.055-0.045-0.055-0.044-0.057-0.043-0.057-0.042-0.058-0.042-0.059-0.04-0.059-0.04-0.061-0.039-0.061-0.038-0.062-0.805-1.343-0.017-0.029-0.016-0.029-0.015-0.03-0.013-0.031-0.013-0.03-0.012-0.031-0.01-0.032-9e-3 -0.031-9e-3 -0.032-7e-3 -0.032-0.012-0.064-4e-3 -0.033-3e-3 -0.032-2e-3 -0.033-1e-3 -0.032v-0.033l2e-3 -0.033 2e-3 -0.032 3e-3 -0.033 0.01-0.064 6e-3 -0.033 8e-3 -0.032 9e-3 -0.031 9e-3 -0.032 0.011-0.031 0.012-0.031 0.013-0.031 0.014-0.03 0.015-0.03 0.016-0.03 0.017-0.029 0.018-0.028 0.019-0.028 0.02-0.027 0.02-0.026 0.021-0.025 0.022-0.024 0.023-0.024 0.024-0.023 0.024-0.022 0.025-0.022 0.025-0.02 0.027-0.02 0.026-0.018 0.028-0.018 0.028-0.017 0.028-0.016 0.029-0.015 0.029-0.014 0.03-0.013 0.031-0.012 0.03-0.011 0.032-0.011 0.031-9e-3 0.032-8e-3 0.032-7e-3 0.033-6e-3 0.033-5e-3 0.033-4e-3 0.033-3e-3 0.033-1e-3 0.034-1e-3h7.468zm-7.459 1h-9e-3l5e-3 7e-3 0.799 1.332 0.031 0.052 0.03 0.047 0.031 0.047 0.031 0.046 0.032 0.045 0.033 0.045 0.068 0.088 0.034 0.043 0.072 0.084 0.036 0.041 0.037 0.041 0.038 0.04 0.039 0.039 0.078 0.076 0.041 0.037 0.04 0.037 0.041 0.035 0.042 0.036 0.043 0.034 0.042 0.034 0.044 0.033 0.088 0.064 0.045 0.03 0.045 0.031 0.092 0.058 0.047 0.028 0.047 0.027 0.096 0.052 0.048 0.025 0.049 0.024 0.098 0.046 0.05 0.022 0.051 0.021 0.05 0.02 0.051 0.019 0.052 0.019 0.051 0.018 0.052 0.017 0.052 0.016 0.106 0.03 0.106 0.026 0.054 0.012 0.054 0.011 0.108 0.02 0.054 8e-3 0.055 8e-3 0.055 7e-3 0.055 6e-3 0.056 5e-3 0.055 4e-3 0.056 3e-3 0.112 4e-3h0.057 0.057l0.112-4e-3 0.056-3e-3 0.055-4e-3 0.056-5e-3 0.055-6e-3 0.055-7e-3 0.055-8e-3 0.054-8e-3 0.108-0.02 0.054-0.011 0.054-0.012 0.106-0.026 0.106-0.03 0.052-0.016 0.052-0.017 0.051-0.018 0.052-0.019 0.051-0.019 0.05-0.02 0.051-0.021 0.049-0.022 0.05-0.023 0.049-0.023 0.049-0.024 0.048-0.025 0.096-0.052 0.047-0.027 0.047-0.028 0.092-0.058 0.045-0.03 0.045-0.031 0.088-0.064 0.044-0.033 0.042-0.034 0.043-0.034 0.042-0.036 0.041-0.035 0.041-0.037 0.04-0.037 0.078-0.076 0.039-0.039 0.037-0.04 0.038-0.041 0.036-0.041 0.072-0.084 0.034-0.043 0.035-0.044 0.033-0.044 0.033-0.045 0.032-0.045 0.031-0.046 0.031-0.047 0.03-0.048 0.031-0.051 0.8-1.332 4e-3 -7e-3h-9e-3 -7.45z"/><path d="m8 21s0.281-0.375 0.6-0.8c0.567-0.755 1.456-1.2 2.4-1.2s1.833 0.445 2.4 1.2c0.319 0.425 0.6 0.8 0.6 0.8" fill="none" stroke="#000" stroke-miterlimit="3" stroke-width="2px"/><path d="m26 21s-0.281-0.375-0.601-0.801c-0.566-0.755-1.454-1.199-2.398-1.199h-2e-3c-0.944 0-1.832 0.444-2.398 1.199-0.32 0.426-0.601 0.801-0.601 0.801" fill="none" stroke="#000" stroke-miterlimit="3" stroke-width="2px"/><path d="m11.918 15.681c-1.801 0.991-3.952 1.31-6.05 0.786h-2e-3c-1.057-0.265-1.739-1.291-1.573-2.368 0.555-3.61 1.707-11.099 1.707-11.099l1.271 1.506 5.301 9.91-0.654 1.265z" fill="#753ee4"/><path d="m11.918 15.681-5.918-12.681s6.333 5.066 8.919 7.135c0.622 0.498 0.79 1.375 0.394 2.067-0.056 0.099-0.116 0.202-0.177 0.31-0.782 1.368-1.907 2.446-3.218 3.169z" fill="#874ff7"/><g fill="#f5d81b"><path d="m24 12h-1.172c-1.811 0-3.547-0.719-4.828-2l-1 3s0.421 0.28 0.947 0.631c1.339 0.893 2.912 1.369 4.521 1.369h0.532l1-3z"/><path d="m24 5h1.172c1.811 0 3.547-0.719 4.828-2l1 3s-0.421 0.28-0.947 0.631c-1.339 0.893-2.912 1.369-4.521 1.369h-0.532l-1-3z"/><path d="m3 23c1.281 0 2.509-0.509 3.414-1.414l0.586-0.586 1 3s-0.645 0.43-1.336 0.891c-1.085 0.723-2.36 1.109-3.664 1.109v-3z"/><path d="m30 27h-1.172c-1.811 0-3.547-0.719-4.828-2l-1 3s0.421 0.28 0.947 0.631c1.339 0.893 2.912 1.369 4.521 1.369h0.532l1-3z"/></g></g></svg>
