<?xml version="1.0" encoding="UTF-8" standalone="no"?><!DOCTYPE svg PUBLIC "-//W3C//DTD SVG 1.1//EN" "http://www.w3.org/Graphics/SVG/1.1/DTD/svg11.dtd"><svg width="100%" height="100%" viewBox="0 0 34 34" version="1.1" xmlns="http://www.w3.org/2000/svg" xmlns:xlink="http://www.w3.org/1999/xlink" xml:space="preserve" xmlns:serif="http://www.serif.com/" style="fill-rule:evenodd;clip-rule:evenodd;stroke-linecap:round;stroke-linejoin:round;stroke-miterlimit:1.5;"><rect id="ferris_thinking" x="0" y="0" width="34" height="34" style="fill:none;"/><g id="st_outline"><path d="M3,8.281c0,-0.308 0.142,-0.599 0.385,-0.788c0.242,-0.19 0.559,-0.257 0.858,-0.182c0.544,0.136 1.177,0.294 1.699,0.425c0.631,0.157 1.291,-0.109 1.636,-0.661c0.42,-0.671 0.984,-1.574 1.392,-2.227c0.141,-0.225 0.365,-0.385 0.623,-0.444c0.259,-0.06 0.53,-0.015 0.755,0.126c0.625,0.391 1.479,0.924 2.14,1.338c0.592,0.37 1.362,0.282 1.856,-0.212c0.596,-0.596 1.386,-1.386 1.949,-1.949c0.39,-0.39 1.024,-0.39 1.414,0c0.563,0.563 1.353,1.353 1.949,1.949c0.494,0.494 1.264,0.582 1.856,0.212c0.661,-0.414 1.515,-0.947 2.14,-1.338c0.225,-0.141 0.496,-0.186 0.755,-0.126c0.258,0.059 0.482,0.219 0.623,0.444c0.408,0.653 0.972,1.556 1.392,2.227c0.345,0.552 1.005,0.818 1.636,0.661c0.522,-0.131 1.155,-0.289 1.699,-0.425c0.299,-0.075 0.616,-0.008 0.858,0.182c0.243,0.189 0.385,0.48 0.385,0.788l0,15.719c0,0 -1.678,0.599 -3.873,1.383c-2.996,1.07 -6.119,1.651 -9.252,1.742l1.125,1.875c0,0 -1.966,0.59 -4.155,1.247c-3.511,1.053 -7.307,-0.196 -9.506,-3.129c-1.25,-1.666 -2.339,-3.118 -2.339,-3.118l0,-15.719Z" style="fill:none;stroke:#fff;stroke-width:4.5px;"/></g><g id="Layer1"><path d="M3,8.281c0,-0.308 0.142,-0.599 0.385,-0.788c0.242,-0.19 0.559,-0.257 0.858,-0.182c0.544,0.136 1.177,0.294 1.699,0.425c0.631,0.157 1.291,-0.109 1.636,-0.661c0.42,-0.671 0.984,-1.574 1.392,-2.227c0.141,-0.225 0.365,-0.385 0.623,-0.444c0.259,-0.06 0.53,-0.015 0.755,0.126c0.625,0.391 1.479,0.924 2.14,1.338c0.592,0.37 1.362,0.282 1.856,-0.212c0.596,-0.596 1.386,-1.386 1.949,-1.949c0.39,-0.39 1.024,-0.39 1.414,0c0.563,0.563 1.353,1.353 1.949,1.949c0.494,0.494 1.264,0.582 1.856,0.212c0.661,-0.414 1.515,-0.947 2.14,-1.338c0.225,-0.141 0.496,-0.186 0.755,-0.126c0.258,0.059 0.482,0.219 0.623,0.444c0.408,0.653 0.972,1.556 1.392,2.227c0.345,0.552 1.005,0.818 1.636,0.661c0.522,-0.131 1.155,-0.289 1.699,-0.425c0.299,-0.075 0.616,-0.008 0.858,0.182c0.243,0.189 0.385,0.48 0.385,0.788l0,15.719c0,0 -1.678,0.599 -3.873,1.383c-2.996,1.07 -6.119,1.651 -9.252,1.742l1.125,1.875c0,0 -1.966,0.59 -4.155,1.247c-3.511,1.053 -7.307,-0.196 -9.506,-3.129c-1.25,-1.666 -2.339,-3.118 -2.339,-3.118l0,-15.719Z" style="fill:none;stroke:#000;stroke-width:4px;"/></g><g id="emoji"><path d="M12.488,5.868c0.592,0.37 1.362,0.282 1.856,-0.212c0.596,-0.596 1.386,-1.386 1.949,-1.949c0.39,-0.39 1.024,-0.39 1.414,0c0.563,0.563 1.353,1.353 1.949,1.949c0.494,0.494 1.264,0.582 1.856,0.212c0.661,-0.414 1.515,-0.947 2.14,-1.338c0.225,-0.141 0.496,-0.186 0.755,-0.126c0.258,0.059 0.482,0.219 0.623,0.444c0.408,0.653 0.972,1.556 1.392,2.227c0.345,0.552 1.005,0.818 1.636,0.661c0.522,-0.131 1.155,-0.289 1.699,-0.425c0.299,-0.075 0.616,-0.008 0.858,0.182c0.243,0.189 0.385,0.48 0.385,0.788l0,15.719c0,0 -1.678,0.599 -3.873,1.383c-2.28,0.815 -4.634,1.345 -7.01,1.593c-1.29,0.134 -4.273,-1.06 -6.437,-1.403c-5.295,-0.84 -10.68,-1.573 -10.68,-1.573l0,-12l0,-3.719c0,-0.308 0.142,-0.599 0.385,-0.788c0.242,-0.19 0.559,-0.257 0.858,-0.182c0.544,0.136 1.177,0.294 1.699,0.425c0.631,0.157 1.291,-0.109 1.636,-0.661c0.42,-0.671 0.984,-1.574 1.392,-2.227c0.141,-0.225 0.365,-0.385 0.623,-0.444c0.259,-0.06 0.53,-0.015 0.755,0.126c0.625,0.391 1.479,0.924 2.14,1.338Z" style="fill:#ec7235;"/><path d="M3,17l28,0l0,7c0,0 -1.678,0.599 -3.873,1.383c-6.549,2.339 -13.705,2.339 -20.254,0c-2.195,-0.784 -3.873,-1.383 -3.873,-1.383l0,-7Z" style="fill:none;"/><clipPath id="_clip1"><path d="M3,17l28,0l0,7c0,0 -1.678,0.599 -3.873,1.383c-6.549,2.339 -13.705,2.339 -20.254,0c-2.195,-0.784 -3.873,-1.383 -3.873,-1.383l0,-7Z"/></clipPath><g clip-path="url(#_clip1)"><path d="M19,29c0,0 -0.54,-0.9 -1.162,-1.936c-1.117,-1.863 -3.228,-2.89 -5.383,-2.621c-2.14,0.268 -4.455,0.557 -4.455,0.557l-5,-4l0,3c0,0 1.089,1.452 2.339,3.118c2.199,2.933 5.995,4.182 9.506,3.129c2.189,-0.657 4.155,-1.247 4.155,-1.247Z" style="fill:none;stroke:#a53a0c;stroke-width:4px;stroke-linecap:square;stroke-linejoin:miter;stroke-miterlimit:3;"/></g><path d="M18.488,28.146l0.512,0.854c0,0 -1.966,0.59 -4.155,1.247c-3.511,1.053 -7.307,-0.196 -9.506,-3.129c-1.25,-1.666 -2.339,-3.118 -2.339,-3.118l0,-3l5,4c0,0 2.315,-0.289 4.455,-0.557c2.155,-0.269 4.266,0.758 5.383,2.621l0.108,0.18l-0.397,0.662l0.939,0.24Z" style="fill:#ec7235;"/><path d="M18.488,28.146l-3.022,0.864c-2.065,0.59 -4.274,-0.222 -5.465,-2.009c-0.001,-0.001 -0.001,-0.001 -0.001,-0.001c0,0 0.17,-0.085 0.411,-0.206c1.004,-0.501 2.181,-0.516 3.197,-0.039c0.565,0.265 1.162,0.545 1.58,0.741c0.356,0.167 0.758,0.21 1.142,0.121l1.616,-0.373l0.542,0.902Z" style="fill:#b54b12;"/><g><path d="M23.255,14.515c-1.848,-0.673 -3.341,0.344 -3.958,1.711c-0.748,1.658 -0.922,3.066 -0.321,4.227c0.661,1.276 2.001,2.066 3.353,1.745c1.827,-0.434 2.473,-1.343 2.831,-3.372c0.357,-2.029 -0.279,-3.72 -1.905,-4.311Z"/><path d="M11.93,12.518c-1.849,-0.673 -3.341,0.344 -3.958,1.711c-0.748,1.658 -0.922,3.066 -0.321,4.227c0.661,1.276 2.001,2.066 3.353,1.745c1.827,-0.434 2.473,-1.343 2.83,-3.372c0.358,-2.029 -0.279,-3.72 -1.904,-4.311Z"/><path d="M22.587,16.138c0.058,-0.326 -0.017,-0.662 -0.206,-0.933c-0.19,-0.271 -0.48,-0.456 -0.806,-0.513c-0.001,0 -0.003,-0.001 -0.004,-0.001c-0.326,-0.057 -0.661,0.017 -0.932,0.207c-0.272,0.19 -0.456,0.479 -0.514,0.805c-0.055,0.315 -0.115,0.653 -0.17,0.967c-0.058,0.326 0.017,0.661 0.207,0.933c0.189,0.271 0.479,0.455 0.805,0.513c0.002,0 0.003,0 0.004,0.001c0.326,0.057 0.662,-0.017 0.933,-0.207c0.271,-0.19 0.455,-0.48 0.513,-0.806c0.055,-0.314 0.115,-0.652 0.17,-0.966Z" style="fill:#e5e5e5;"/><path d="M11.262,14.141c0.058,-0.326 -0.017,-0.662 -0.207,-0.933c-0.19,-0.271 -0.479,-0.456 -0.805,-0.513c-0.001,0 -0.002,0 -0.002,-0.001c-0.327,-0.057 -0.663,0.017 -0.934,0.208c-0.272,0.19 -0.457,0.48 -0.514,0.806c-0.056,0.314 -0.115,0.651 -0.17,0.965c-0.058,0.326 0.016,0.662 0.206,0.933c0.19,0.271 0.48,0.455 0.806,0.513c0.001,0 0.001,0 0.002,0c0.326,0.058 0.662,-0.017 0.934,-0.207c0.271,-0.19 0.456,-0.48 0.514,-0.807c0.055,-0.313 0.115,-0.651 0.17,-0.964Z" style="fill:#e5e5e5;"/></g></g></svg>