<?xml version="1.0" encoding="UTF-8" standalone="no"?><!DOCTYPE svg PUBLIC "-//W3C//DTD SVG 1.1//EN" "http://www.w3.org/Graphics/SVG/1.1/DTD/svg11.dtd"><svg width="100%" height="100%" viewBox="0 0 34 34" version="1.1" xmlns="http://www.w3.org/2000/svg" xmlns:xlink="http://www.w3.org/1999/xlink" xml:space="preserve" xmlns:serif="http://www.serif.com/" style="fill-rule:evenodd;clip-rule:evenodd;stroke-linecap:round;stroke-linejoin:round;stroke-miterlimit:1.5;"><rect id="ferris_smile" x="0" y="0" width="34" height="34" style="fill:none;"/><g id="st_outline"><path d="M3,8.281c0,-0.308 0.142,-0.599 0.385,-0.788c0.242,-0.19 0.559,-0.257 0.858,-0.182c0.544,0.136 1.177,0.294 1.699,0.425c0.631,0.157 1.291,-0.109 1.636,-0.661c0.42,-0.671 0.984,-1.574 1.392,-2.227c0.141,-0.225 0.365,-0.385 0.623,-0.444c0.259,-0.06 0.53,-0.015 0.755,0.126c0.625,0.391 1.479,0.924 2.14,1.338c0.592,0.37 1.362,0.282 1.856,-0.212c0.596,-0.596 1.386,-1.386 1.949,-1.949c0.39,-0.39 1.024,-0.39 1.414,0c0.563,0.563 1.353,1.353 1.949,1.949c0.494,0.494 1.264,0.582 1.856,0.212c0.661,-0.414 1.515,-0.947 2.14,-1.338c0.225,-0.141 0.496,-0.186 0.755,-0.126c0.258,0.059 0.482,0.219 0.623,0.444c0.408,0.653 0.972,1.556 1.392,2.227c0.345,0.552 1.005,0.818 1.636,0.661c0.522,-0.131 1.155,-0.289 1.699,-0.425c0.299,-0.075 0.616,-0.008 0.858,0.182c0.243,0.189 0.385,0.48 0.385,0.788l0,15.719c0,3.866 -3.134,7 -7,7c-1.68,0 -3,0 -3,0l0,-1.158c0,-1.152 0.357,-2.229 0.972,-3.118c-3.291,0.551 -6.653,0.551 -9.944,0c0.615,0.889 0.972,1.966 0.972,3.118l0,1.158c0,0 -1.32,0 -3,0c-3.866,0 -7,-3.134 -7,-7l0,-15.719Z" style="fill:none;stroke:#fff;stroke-width:4.5px;"/></g><g id="Layer1"><path d="M3,8.281c0,-0.308 0.142,-0.599 0.385,-0.788c0.242,-0.19 0.559,-0.257 0.858,-0.182c0.544,0.136 1.177,0.294 1.699,0.425c0.631,0.157 1.291,-0.109 1.636,-0.661c0.42,-0.671 0.984,-1.574 1.392,-2.227c0.141,-0.225 0.365,-0.385 0.623,-0.444c0.259,-0.06 0.53,-0.015 0.755,0.126c0.625,0.391 1.479,0.924 2.14,1.338c0.592,0.37 1.362,0.282 1.856,-0.212c0.596,-0.596 1.386,-1.386 1.949,-1.949c0.39,-0.39 1.024,-0.39 1.414,0c0.563,0.563 1.353,1.353 1.949,1.949c0.494,0.494 1.264,0.582 1.856,0.212c0.661,-0.414 1.515,-0.947 2.14,-1.338c0.225,-0.141 0.496,-0.186 0.755,-0.126c0.258,0.059 0.482,0.219 0.623,0.444c0.408,0.653 0.972,1.556 1.392,2.227c0.345,0.552 1.005,0.818 1.636,0.661c0.522,-0.131 1.155,-0.289 1.699,-0.425c0.299,-0.075 0.616,-0.008 0.858,0.182c0.243,0.189 0.385,0.48 0.385,0.788l0,15.719c0,3.866 -3.134,7 -7,7c-1.68,0 -3,0 -3,0l0,-1.158c0,-1.152 0.357,-2.229 0.972,-3.118c-3.291,0.551 -6.653,0.551 -9.944,0c0.615,0.889 0.972,1.966 0.972,3.118l0,1.158c0,0 -1.32,0 -3,0c-3.866,0 -7,-3.134 -7,-7l0,-15.719Z" style="fill:none;stroke:#000;stroke-width:4px;"/></g><g id="emoji"><path d="M3,20l0,-11.719c0,-0.308 0.142,-0.599 0.385,-0.788c0.242,-0.19 0.559,-0.257 0.858,-0.182c0.544,0.136 1.177,0.294 1.699,0.425c0.631,0.157 1.291,-0.109 1.636,-0.661c0.42,-0.671 0.984,-1.574 1.392,-2.227c0.141,-0.225 0.365,-0.385 0.623,-0.444c0.259,-0.06 0.53,-0.015 0.755,0.126c0.625,0.391 1.479,0.924 2.14,1.338c0.592,0.37 1.362,0.282 1.856,-0.212c0.596,-0.596 1.386,-1.386 1.949,-1.949c0.39,-0.39 1.024,-0.39 1.414,0c0.563,0.563 1.353,1.353 1.949,1.949c0.494,0.494 1.264,0.582 1.856,0.212c0.661,-0.414 1.515,-0.947 2.14,-1.338c0.225,-0.141 0.496,-0.186 0.755,-0.126c0.258,0.059 0.482,0.219 0.623,0.444c0.408,0.653 0.972,1.556 1.392,2.227c0.345,0.552 1.005,0.818 1.636,0.661c0.522,-0.131 1.155,-0.289 1.699,-0.425c0.299,-0.075 0.616,-0.008 0.858,0.182c0.243,0.189 0.385,0.48 0.385,0.788l0,11.719l-1.514,4.541l-2.359,-0.158c-1.68,0.6 -7.577,2.646 -7.579,2.646c-1.696,0.144 -3.401,0.144 -5.096,0c-0.004,0 -5.896,-2.045 -7.579,-2.646l-2.359,0.158l-1.514,-4.541Z" style="fill:#ec7235;"/><path d="M3,20l0,-8.719l28,0l0,8.719l-1.514,4.541l-2.359,0.842c-6.549,2.339 -13.705,2.339 -20.254,0l-2.359,-0.842l-1.514,-4.541Z" style="fill:none;"/><clipPath id="_clip1"><path d="M3,20l0,-8.719l28,0l0,8.719l-1.514,4.541l-2.359,0.842c-6.549,2.339 -13.705,2.339 -20.254,0l-2.359,-0.842l-1.514,-4.541Z"/></clipPath><g clip-path="url(#_clip1)"><path d="M21,31l0,-1.158c0,-2.766 2.06,-5.099 4.804,-5.443c1.699,-0.212 3.196,-0.399 3.196,-0.399l4,-8l0,8c0,1.857 -0.738,3.637 -2.05,4.95c-1.313,1.313 -3.093,2.05 -4.95,2.05l-5,0Z" style="fill:none;stroke:#a53a0c;stroke-width:4px;stroke-linecap:square;"/><path d="M13,31l0,-1.158c0,-2.766 -2.06,-5.099 -4.804,-5.443c-1.699,-0.212 -3.196,-0.399 -3.196,-0.399l-4,-8l0,8c0,1.857 0.738,3.637 2.05,4.95c1.313,1.313 3.093,2.05 4.95,2.05l5,0Z" style="fill:none;stroke:#a53a0c;stroke-width:4px;stroke-linecap:square;"/></g><g><path d="M21.064,29c0.369,-2.385 2.279,-4.293 4.74,-4.601c1.699,-0.212 3.196,-0.399 3.196,-0.399l2,-4l0,4c0,3.866 -3.134,7 -7,7c-1.68,0 -3,0 -3,0l0,-1l0.481,-0.585l-0.417,-0.415Z" style="fill:#ec7235;"/><path d="M21.064,29l0.208,0c0.466,0 0.913,-0.185 1.243,-0.515c0.387,-0.387 0.931,-0.931 1.411,-1.411c0.688,-0.688 1.62,-1.074 2.592,-1.074l0.482,0c0,0 -0.233,0.467 -0.541,1.081c-0.894,1.789 -2.722,2.919 -4.722,2.919l-0.737,0l0,-0.158c0,-0.286 0.022,-0.567 0.064,-0.842Z" style="fill:#b54b12;"/></g><g><path d="M12.936,29c-0.369,-2.385 -2.279,-4.293 -4.74,-4.601c-1.699,-0.212 -3.196,-0.399 -3.196,-0.399l-2,-4l0,4c0,3.866 3.134,7 7,7c1.68,0 3,0 3,0l0,-1l-0.481,-0.585l0.417,-0.415Z" style="fill:#ec7235;"/><path d="M12.936,29l-0.208,0c-0.466,0 -0.913,-0.185 -1.243,-0.515c-0.387,-0.387 -0.931,-0.931 -1.411,-1.411c-0.688,-0.688 -1.62,-1.074 -2.592,-1.074l-0.482,0c0,0 0.233,0.467 0.541,1.081c0.894,1.789 2.722,2.919 4.722,2.919l0.737,0l0,-0.158c0,-0.286 -0.022,-0.567 -0.064,-0.842Z" style="fill:#b54b12;"/></g><g><path d="M23.876,13.056c-1.937,-0.341 -3.231,0.919 -3.601,2.373c-0.448,1.763 -0.375,3.18 0.418,4.218c0.872,1.142 2.33,1.688 3.605,1.137c1.724,-0.745 2.202,-1.752 2.202,-3.813c0,-2.06 -0.921,-3.614 -2.624,-3.915Z"/><path d="M23.5,14.77c0,-0.331 -0.131,-0.648 -0.366,-0.882c-0.234,-0.234 -0.551,-0.366 -0.882,-0.366c-0.001,0 -0.001,0 -0.002,0c-0.332,0 -0.649,0.132 -0.884,0.367c-0.234,0.234 -0.366,0.552 -0.366,0.883c0,0.318 0,0.66 0,0.978c0,0.332 0.132,0.649 0.366,0.884c0.235,0.234 0.552,0.366 0.884,0.366c0.001,0 0.001,0 0.002,0c0.331,0 0.648,-0.131 0.882,-0.366c0.235,-0.234 0.366,-0.551 0.366,-0.882c0,-0.319 0,-0.662 0,-0.982Z" style="fill:#e5e5e5;"/></g><g><path d="M11.376,13.056c-1.937,-0.341 -3.231,0.919 -3.601,2.373c-0.448,1.763 -0.375,3.18 0.418,4.218c0.872,1.142 2.33,1.688 3.605,1.137c1.724,-0.745 2.202,-1.752 2.202,-3.813c0,-2.06 -0.921,-3.614 -2.624,-3.915Z"/><path d="M11,14.77c0,-0.331 -0.131,-0.648 -0.366,-0.882c-0.234,-0.234 -0.551,-0.366 -0.882,-0.366c-0.001,0 -0.001,0 -0.002,0c-0.332,0 -0.649,0.132 -0.884,0.367c-0.234,0.234 -0.366,0.552 -0.366,0.883c0,0.318 0,0.66 0,0.978c0,0.332 0.132,0.649 0.366,0.884c0.235,0.234 0.552,0.366 0.884,0.366c0.001,0 0.001,0 0.002,0c0.331,0 0.648,-0.131 0.882,-0.366c0.235,-0.234 0.366,-0.551 0.366,-0.882c0,-0.319 0,-0.662 0,-0.982Z" style="fill:#e5e5e5;"/></g><g><path d="M12.718,22.655c-0.186,-0.309 -0.191,-0.694 -0.013,-1.007c0.177,-0.314 0.51,-0.508 0.87,-0.508c1.911,0 4.939,0 6.85,0c0.36,0 0.693,0.194 0.87,0.508c0.178,0.313 0.173,0.698 -0.013,1.007c-0.225,0.376 -0.471,0.786 -0.709,1.182c-0.753,1.255 -2.109,2.023 -3.572,2.023c-0.001,0 -0.001,0 -0.002,0c-1.463,0 -2.819,-0.768 -3.572,-2.023c-0.238,-0.396 -0.484,-0.806 -0.709,-1.182Z"/><clipPath id="_clip2"><path d="M12.718,22.655c-0.186,-0.309 -0.191,-0.694 -0.013,-1.007c0.177,-0.314 0.51,-0.508 0.87,-0.508c1.911,0 4.939,0 6.85,0c0.36,0 0.693,0.194 0.87,0.508c0.178,0.313 0.173,0.698 -0.013,1.007c-0.225,0.376 -0.471,0.786 -0.709,1.182c-0.753,1.255 -2.109,2.023 -3.572,2.023c-0.001,0 -0.001,0 -0.002,0c-1.463,0 -2.819,-0.768 -3.572,-2.023c-0.238,-0.396 -0.484,-0.806 -0.709,-1.182Z"/></clipPath><g clip-path="url(#_clip2)"><path d="M12,26.5c0,0 0.808,-0.808 1.586,-1.586c0.905,-0.905 2.133,-1.414 3.414,-1.414c0,0 0,0 0,0c1.281,0 2.509,0.509 3.414,1.414c0.778,0.778 1.586,1.586 1.586,1.586l-10,0Z" style="fill:#8b8b8b;"/></g><path d="M20.425,21.14l0.034,0.001l0.033,0.002l0.033,0.002l0.034,0.004l0.032,0.005l0.033,0.006l0.032,0.007l0.032,0.009l0.032,0.009l0.031,0.01l0.03,0.011l0.031,0.012l0.03,0.013l0.029,0.014l0.029,0.015l0.029,0.016l0.028,0.017l0.027,0.018l0.027,0.019l0.026,0.019l0.025,0.021l0.025,0.021l0.024,0.022l0.024,0.023l0.023,0.024l0.022,0.024l0.021,0.026l0.021,0.026l0.019,0.027l0.019,0.027l0.018,0.029l0.017,0.029l0.016,0.029l0.015,0.03l0.014,0.031l0.013,0.03l0.012,0.031l0.011,0.032l0.01,0.031l0.008,0.032l0.008,0.032l0.006,0.032l0.006,0.032l0.004,0.033l0.003,0.032l0.003,0.033l0.001,0.032l0,0.033l-0.001,0.033l-0.002,0.032l-0.003,0.033l-0.004,0.032l-0.005,0.032l-0.007,0.033l-0.007,0.031l-0.008,0.032l-0.01,0.032l-0.01,0.031l-0.012,0.031l-0.012,0.031l-0.014,0.03l-0.015,0.03l-0.016,0.03l-0.017,0.029l-0.709,1.182l-0.036,0.058l-0.036,0.058l-0.038,0.057l-0.038,0.057l-0.039,0.055l-0.04,0.055l-0.041,0.054l-0.041,0.053l-0.043,0.053l-0.043,0.051l-0.044,0.051l-0.045,0.051l-0.045,0.049l-0.046,0.049l-0.047,0.047l-0.048,0.047l-0.048,0.047l-0.049,0.045l-0.05,0.044l-0.05,0.044l-0.051,0.043l-0.052,0.042l-0.052,0.041l-0.053,0.04l-0.054,0.04l-0.054,0.038l-0.055,0.038l-0.055,0.037l-0.056,0.036l-0.056,0.035l-0.057,0.034l-0.058,0.033l-0.058,0.032l-0.058,0.031l-0.059,0.031l-0.06,0.029l-0.06,0.029l-0.06,0.027l-0.061,0.027l-0.061,0.026l-0.062,0.024l-0.062,0.024l-0.063,0.023l-0.063,0.021l-0.063,0.021l-0.064,0.02l-0.064,0.018l-0.064,0.018l-0.065,0.017l-0.065,0.015l-0.066,0.015l-0.066,0.014l-0.066,0.012l-0.066,0.011l-0.067,0.011l-0.066,0.009l-0.067,0.008l-0.068,0.008l-0.067,0.006l-0.068,0.005l-0.068,0.004l-0.068,0.002l-0.069,0.002l-0.068,0.001l-0.002,0l-0.068,-0.001l-0.069,-0.002l-0.068,-0.002l-0.068,-0.004l-0.068,-0.005l-0.067,-0.006l-0.068,-0.008l-0.067,-0.008l-0.066,-0.009l-0.067,-0.011l-0.066,-0.011l-0.066,-0.012l-0.066,-0.014l-0.066,-0.015l-0.065,-0.015l-0.065,-0.017l-0.064,-0.018l-0.064,-0.018l-0.064,-0.02l-0.063,-0.021l-0.063,-0.021l-0.063,-0.023l-0.062,-0.024l-0.062,-0.024l-0.061,-0.026l-0.061,-0.027l-0.06,-0.027l-0.06,-0.029l-0.06,-0.029l-0.059,-0.031l-0.058,-0.031l-0.058,-0.032l-0.058,-0.033l-0.057,-0.034l-0.056,-0.035l-0.056,-0.036l-0.055,-0.037l-0.055,-0.038l-0.054,-0.038l-0.054,-0.04l-0.053,-0.04l-0.052,-0.041l-0.052,-0.042l-0.051,-0.043l-0.05,-0.044l-0.05,-0.044l-0.049,-0.045l-0.048,-0.047l-0.048,-0.047l-0.047,-0.047l-0.046,-0.049l-0.045,-0.049l-0.045,-0.051l-0.044,-0.051l-0.043,-0.051l-0.043,-0.053l-0.041,-0.053l-0.041,-0.054l-0.04,-0.055l-0.039,-0.055l-0.038,-0.057l-0.038,-0.057l-0.036,-0.058l-0.036,-0.058l-0.709,-1.182l-0.017,-0.029l-0.016,-0.03l-0.015,-0.03l-0.014,-0.03l-0.012,-0.031l-0.012,-0.031l-0.01,-0.031l-0.01,-0.032l-0.008,-0.032l-0.007,-0.031l-0.007,-0.033l-0.005,-0.032l-0.004,-0.032l-0.003,-0.033l-0.002,-0.032l-0.001,-0.033l0,-0.033l0.001,-0.032l0.003,-0.033l0.003,-0.032l0.004,-0.033l0.006,-0.032l0.006,-0.032l0.008,-0.032l0.008,-0.032l0.01,-0.031l0.011,-0.032l0.012,-0.031l0.013,-0.03l0.014,-0.031l0.015,-0.03l0.016,-0.029l0.017,-0.029l0.018,-0.029l0.019,-0.027l0.019,-0.027l0.021,-0.026l0.021,-0.026l0.022,-0.024l0.023,-0.024l0.024,-0.023l0.024,-0.022l0.025,-0.021l0.025,-0.021l0.026,-0.019l0.027,-0.019l0.027,-0.018l0.028,-0.017l0.029,-0.016l0.029,-0.015l0.029,-0.014l0.03,-0.013l0.031,-0.012l0.03,-0.011l0.031,-0.01l0.032,-0.009l0.032,-0.009l0.032,-0.007l0.033,-0.006l0.032,-0.005l0.034,-0.004l0.033,-0.002l0.033,-0.002l0.034,-0.001l6.85,0Zm-6.842,1l-0.008,0.001l0.004,0.007l0.703,1.171l0.029,0.048l0.028,0.044l0.029,0.043l0.029,0.043l0.03,0.042l0.03,0.042l0.031,0.041l0.032,0.04l0.032,0.04l0.033,0.04l0.033,0.038l0.034,0.039l0.035,0.037l0.035,0.037l0.035,0.036l0.036,0.036l0.037,0.035l0.037,0.034l0.038,0.034l0.038,0.034l0.039,0.032l0.039,0.032l0.04,0.031l0.04,0.031l0.041,0.03l0.041,0.029l0.042,0.029l0.042,0.028l0.042,0.027l0.043,0.027l0.044,0.025l0.043,0.026l0.044,0.024l0.045,0.024l0.045,0.023l0.045,0.022l0.046,0.022l0.045,0.021l0.047,0.02l0.046,0.02l0.047,0.018l0.048,0.018l0.047,0.018l0.048,0.016l0.048,0.016l0.049,0.015l0.048,0.014l0.049,0.014l0.049,0.012l0.05,0.012l0.05,0.011l0.05,0.01l0.05,0.01l0.05,0.009l0.051,0.008l0.051,0.007l0.051,0.006l0.051,0.005l0.051,0.005l0.052,0.004l0.051,0.003l0.052,0.002l0.052,0.001l0.053,0.001l0.053,-0.001l0.052,-0.001l0.052,-0.002l0.051,-0.003l0.052,-0.004l0.051,-0.005l0.051,-0.005l0.051,-0.006l0.051,-0.007l0.051,-0.008l0.05,-0.009l0.05,-0.01l0.05,-0.01l0.05,-0.011l0.05,-0.012l0.049,-0.012l0.049,-0.014l0.048,-0.014l0.049,-0.015l0.048,-0.016l0.048,-0.016l0.047,-0.018l0.048,-0.018l0.047,-0.018l0.046,-0.02l0.047,-0.02l0.045,-0.021l0.046,-0.022l0.045,-0.022l0.045,-0.023l0.045,-0.024l0.044,-0.024l0.043,-0.026l0.044,-0.025l0.043,-0.027l0.042,-0.027l0.042,-0.028l0.042,-0.029l0.041,-0.029l0.041,-0.03l0.04,-0.031l0.04,-0.031l0.039,-0.032l0.039,-0.032l0.038,-0.034l0.038,-0.034l0.037,-0.034l0.037,-0.035l0.036,-0.036l0.035,-0.036l0.035,-0.037l0.035,-0.037l0.034,-0.039l0.033,-0.038l0.033,-0.04l0.032,-0.04l0.032,-0.04l0.031,-0.041l0.03,-0.042l0.03,-0.042l0.029,-0.043l0.029,-0.043l0.027,-0.044l0.03,-0.048l0.703,-1.171l0.004,-0.007l-0.008,-0.001l-6.834,0Z"/><path d="M20.734,21l0.034,0.001l0.033,0.001l0.033,0.003l0.033,0.004l0.033,0.005l0.033,0.006l0.032,0.007l0.032,0.008l0.031,0.009l0.032,0.011l0.03,0.011l0.031,0.012l0.03,0.013l0.029,0.014l0.029,0.015l0.028,0.016l0.028,0.017l0.028,0.018l0.026,0.018l0.027,0.02l0.025,0.02l0.025,0.022l0.024,0.022l0.024,0.023l0.023,0.024l0.022,0.024l0.021,0.025l0.02,0.026l0.02,0.027l0.019,0.028l0.018,0.028l0.017,0.029l0.016,0.03l0.015,0.03l0.014,0.03l0.013,0.031l0.012,0.031l0.011,0.031l0.009,0.032l0.009,0.031l0.008,0.032l0.006,0.033l0.005,0.032l0.005,0.032l0.003,0.033l0.002,0.032l0.002,0.033l0,0.033l-0.001,0.032l-0.002,0.033l-0.003,0.032l-0.004,0.033l-0.006,0.032l-0.006,0.032l-0.007,0.032l-0.009,0.032l-0.009,0.031l-0.01,0.032l-0.012,0.031l-0.013,0.03l-0.013,0.031l-0.015,0.03l-0.016,0.029l-0.017,0.029l-0.805,1.343l-0.038,0.062l-0.039,0.061l-0.04,0.061l-0.04,0.059l-0.042,0.059l-0.042,0.058l-0.043,0.057l-0.044,0.057l-0.045,0.055l-0.046,0.055l-0.046,0.054l-0.048,0.053l-0.048,0.053l-0.049,0.051l-0.05,0.051l-0.05,0.05l-0.051,0.049l-0.052,0.048l-0.053,0.047l-0.053,0.046l-0.054,0.046l-0.055,0.044l-0.055,0.044l-0.057,0.042l-0.056,0.042l-0.058,0.041l-0.058,0.04l-0.058,0.039l-0.059,0.038l-0.06,0.037l-0.06,0.036l-0.061,0.035l-0.062,0.034l-0.062,0.033l-0.062,0.033l-0.063,0.031l-0.064,0.03l-0.064,0.029l-0.065,0.028l-0.065,0.027l-0.065,0.027l-0.066,0.025l-0.066,0.024l-0.067,0.023l-0.067,0.022l-0.068,0.021l-0.068,0.019l-0.068,0.019l-0.068,0.018l-0.069,0.016l-0.07,0.016l-0.069,0.014l-0.07,0.013l-0.071,0.013l-0.07,0.011l-0.071,0.009l-0.071,0.009l-0.072,0.008l-0.071,0.006l-0.072,0.006l-0.072,0.004l-0.072,0.003l-0.073,0.001l-0.072,0.001l-0.002,0l-0.072,-0.001l-0.073,-0.001l-0.072,-0.003l-0.072,-0.004l-0.072,-0.006l-0.071,-0.006l-0.072,-0.008l-0.071,-0.009l-0.071,-0.009l-0.07,-0.011l-0.071,-0.013l-0.07,-0.013l-0.069,-0.014l-0.07,-0.016l-0.069,-0.016l-0.068,-0.018l-0.068,-0.019l-0.068,-0.019l-0.068,-0.021l-0.067,-0.022l-0.067,-0.023l-0.066,-0.024l-0.066,-0.025l-0.065,-0.027l-0.065,-0.027l-0.065,-0.028l-0.064,-0.029l-0.064,-0.03l-0.063,-0.031l-0.062,-0.033l-0.062,-0.033l-0.062,-0.034l-0.061,-0.035l-0.06,-0.036l-0.06,-0.037l-0.059,-0.038l-0.058,-0.039l-0.058,-0.04l-0.058,-0.041l-0.056,-0.042l-0.057,-0.042l-0.055,-0.044l-0.055,-0.044l-0.054,-0.046l-0.053,-0.046l-0.053,-0.047l-0.052,-0.048l-0.051,-0.049l-0.05,-0.05l-0.05,-0.051l-0.049,-0.051l-0.048,-0.053l-0.048,-0.053l-0.046,-0.054l-0.046,-0.055l-0.045,-0.055l-0.044,-0.057l-0.043,-0.057l-0.042,-0.058l-0.042,-0.059l-0.04,-0.059l-0.04,-0.061l-0.039,-0.061l-0.038,-0.062l-0.805,-1.343l-0.017,-0.029l-0.016,-0.029l-0.015,-0.03l-0.013,-0.031l-0.013,-0.03l-0.012,-0.031l-0.01,-0.032l-0.009,-0.031l-0.009,-0.032l-0.007,-0.032l-0.006,-0.032l-0.006,-0.032l-0.004,-0.033l-0.003,-0.032l-0.002,-0.033l-0.001,-0.032l0,-0.033l0.002,-0.033l0.002,-0.032l0.003,-0.033l0.005,-0.032l0.005,-0.032l0.006,-0.033l0.008,-0.032l0.009,-0.031l0.009,-0.032l0.011,-0.031l0.012,-0.031l0.013,-0.031l0.014,-0.03l0.015,-0.03l0.016,-0.03l0.017,-0.029l0.018,-0.028l0.019,-0.028l0.02,-0.027l0.02,-0.026l0.021,-0.025l0.022,-0.024l0.023,-0.024l0.024,-0.023l0.024,-0.022l0.025,-0.022l0.025,-0.02l0.027,-0.02l0.026,-0.018l0.028,-0.018l0.028,-0.017l0.028,-0.016l0.029,-0.015l0.029,-0.014l0.03,-0.013l0.031,-0.012l0.03,-0.011l0.032,-0.011l0.031,-0.009l0.032,-0.008l0.032,-0.007l0.033,-0.006l0.033,-0.005l0.033,-0.004l0.033,-0.003l0.033,-0.001l0.034,-0.001l7.468,0Zm-7.459,1l-0.009,0l0.005,0.007l0.799,1.332l0.031,0.051l0.03,0.048l0.031,0.047l0.031,0.046l0.032,0.045l0.033,0.045l0.033,0.044l0.035,0.044l0.034,0.043l0.036,0.042l0.036,0.042l0.036,0.041l0.037,0.041l0.038,0.04l0.039,0.039l0.039,0.038l0.039,0.038l0.04,0.037l0.041,0.037l0.041,0.036l0.042,0.035l0.043,0.034l0.042,0.034l0.044,0.033l0.044,0.032l0.044,0.032l0.045,0.03l0.045,0.031l0.046,0.029l0.046,0.029l0.047,0.028l0.047,0.027l0.048,0.026l0.048,0.026l0.048,0.025l0.049,0.024l0.049,0.023l0.05,0.023l0.049,0.022l0.051,0.021l0.05,0.02l0.051,0.019l0.052,0.019l0.051,0.018l0.052,0.017l0.052,0.016l0.053,0.015l0.053,0.015l0.053,0.013l0.053,0.013l0.054,0.012l0.054,0.011l0.054,0.01l0.054,0.01l0.054,0.008l0.055,0.008l0.055,0.007l0.055,0.006l0.056,0.005l0.055,0.004l0.056,0.003l0.056,0.002l0.056,0.002l0.057,0l0.057,0l0.056,-0.002l0.056,-0.002l0.056,-0.003l0.055,-0.004l0.056,-0.005l0.055,-0.006l0.055,-0.007l0.055,-0.008l0.054,-0.008l0.054,-0.01l0.054,-0.01l0.054,-0.011l0.054,-0.012l0.053,-0.013l0.053,-0.013l0.053,-0.015l0.053,-0.015l0.052,-0.016l0.052,-0.017l0.051,-0.018l0.052,-0.019l0.051,-0.019l0.05,-0.02l0.051,-0.021l0.049,-0.022l0.05,-0.023l0.049,-0.023l0.049,-0.024l0.048,-0.025l0.048,-0.026l0.048,-0.026l0.047,-0.027l0.047,-0.028l0.046,-0.029l0.046,-0.029l0.045,-0.03l0.045,-0.031l0.044,-0.032l0.044,-0.032l0.044,-0.033l0.042,-0.034l0.043,-0.034l0.042,-0.035l0.041,-0.036l0.041,-0.037l0.04,-0.037l0.039,-0.038l0.039,-0.038l0.039,-0.039l0.038,-0.04l0.037,-0.041l0.036,-0.041l0.036,-0.042l0.036,-0.042l0.034,-0.043l0.035,-0.044l0.033,-0.044l0.033,-0.045l0.032,-0.045l0.031,-0.046l0.031,-0.047l0.03,-0.048l0.031,-0.051l0.799,-1.332l0.005,-0.007l-0.009,0l-7.45,0Z"/></g></g></svg>