<?xml version="1.0" encoding="UTF-8"?>
<!DOCTYPE svg  PUBLIC '-//W3C//DTD SVG 1.1//EN'  'http://www.w3.org/Graphics/SVG/1.1/DTD/svg11.dtd'>
<svg clip-rule="evenodd" fill-rule="evenodd" stroke-linecap="round" stroke-linejoin="round" stroke-miterlimit="1.5" version="1.1" viewBox="0 0 34 34" xml:space="preserve" xmlns="http://www.w3.org/2000/svg"><rect id="ferris_worried" width="34" height="34" fill="none"/><g id="st_outline"><path d="m3 12v-3.719c0-0.308 0.142-0.599 0.385-0.788 0.242-0.19 0.559-0.257 0.858-0.182 0.544 0.136 1.177 0.294 1.699 0.425 0.631 0.157 1.291-0.109 1.636-0.661 0.42-0.671 0.984-1.574 1.392-2.227 0.141-0.225 0.365-0.385 0.623-0.444 0.259-0.06 0.53-0.015 0.755 0.126 0.625 0.391 1.479 0.924 2.14 1.338 0.592 0.37 1.362 0.282 1.856-0.212l1.949-1.949c0.39-0.39 1.024-0.39 1.414 0l1.949 1.949c0.494 0.494 1.264 0.582 1.856 0.212 0.661-0.414 1.515-0.947 2.14-1.338 0.225-0.141 0.496-0.186 0.755-0.126 0.258 0.059 0.482 0.219 0.623 0.444l0.97 1.552v-2.4c0-0.552 0.448-1 1-1h2c0.552 0 1 0.448 1 1v3.281c0.221 0 0.438 0.073 0.615 0.212 0.243 0.189 0.385 0.48 0.385 0.788v15.719c0 3.866-3.134 7-7 7h-3v-1.158c0-1.152 0.357-2.229 0.972-3.118-3.291 0.551-6.653 0.551-9.944 0 0.615 0.889 0.972 1.966 0.972 3.118v1.158h-3c-3.866 0-7-3.134-7-7v-12z" fill="none" stroke="#fff" stroke-width="4.5px"/></g><g id="Layer1"><path d="m3 12v-3.719c0-0.308 0.142-0.599 0.385-0.788 0.242-0.19 0.559-0.257 0.858-0.182 0.544 0.136 1.177 0.294 1.699 0.425 0.631 0.157 1.291-0.109 1.636-0.661 0.42-0.671 0.984-1.574 1.392-2.227 0.141-0.225 0.365-0.385 0.623-0.444 0.259-0.06 0.53-0.015 0.755 0.126 0.625 0.391 1.479 0.924 2.14 1.338 0.592 0.37 1.362 0.282 1.856-0.212l1.949-1.949c0.39-0.39 1.024-0.39 1.414 0l1.949 1.949c0.494 0.494 1.264 0.582 1.856 0.212 0.661-0.414 1.515-0.947 2.14-1.338 0.225-0.141 0.496-0.186 0.755-0.126 0.258 0.059 0.482 0.219 0.623 0.444l0.97 1.552v-2.4c0-0.552 0.448-1 1-1h2c0.552 0 1 0.448 1 1v3.281c0.221 0 0.438 0.073 0.615 0.212 0.243 0.189 0.385 0.48 0.385 0.788v15.719c0 3.866-3.134 7-7 7h-3v-1.158c0-1.152 0.357-2.229 0.972-3.118-3.291 0.551-6.653 0.551-9.944 0 0.615 0.889 0.972 1.966 0.972 3.118v1.158h-3c-3.866 0-7-3.134-7-7v-12z" fill="none" stroke="#000" stroke-width="4px"/></g><g id="emoji"><path d="m3 20v-11.719c0-0.308 0.142-0.599 0.385-0.788 0.242-0.19 0.559-0.257 0.858-0.182 0.544 0.136 1.177 0.294 1.699 0.425 0.631 0.157 1.291-0.109 1.636-0.661 0.42-0.671 0.984-1.574 1.392-2.227 0.141-0.225 0.365-0.385 0.623-0.444 0.259-0.06 0.53-0.015 0.755 0.126 0.625 0.391 1.479 0.924 2.14 1.338 0.592 0.37 1.362 0.282 1.856-0.212l1.949-1.949c0.39-0.39 1.024-0.39 1.414 0l1.949 1.949c0.494 0.494 1.264 0.582 1.856 0.212 0.661-0.414 1.515-0.947 2.14-1.338 0.225-0.141 0.496-0.186 0.755-0.126 0.258 0.059 0.482 0.219 0.623 0.444 0.408 0.653 0.972 1.556 1.392 2.227 0.345 0.552 1.005 0.818 1.636 0.661 0.522-0.131 1.155-0.289 1.699-0.425 0.299-0.075 0.616-8e-3 0.858 0.182 0.243 0.189 0.385 0.48 0.385 0.788v11.719l-1.514 4.541-2.359-0.158c-1.68 0.6-7.577 2.646-7.579 2.646-1.696 0.144-3.401 0.144-5.096 0-4e-3 0-5.896-2.045-7.579-2.646l-2.359 0.158-1.514-4.541z" fill="#ec7235"/><path d="m3 20v-8.719h28v8.719l-1.514 4.541-2.359 0.842c-6.549 2.339-13.705 2.339-20.254 0l-2.359-0.842-1.514-4.541z" fill="none"/><clipPath id="_clip1"><path d="m3 20v-8.719h28v8.719l-1.514 4.541-2.359 0.842c-6.549 2.339-13.705 2.339-20.254 0l-2.359-0.842-1.514-4.541z"/></clipPath><g clip-path="url(#_clip1)" fill="none" stroke="#a53a0c" stroke-linecap="square" stroke-width="4px"><path d="m21 31v-1.158c0-2.766 2.06-5.099 4.804-5.443 1.699-0.212 3.196-0.399 3.196-0.399l4-8v8c0 1.857-0.738 3.637-2.05 4.95-1.313 1.313-3.093 2.05-4.95 2.05h-5z"/><path d="m13 31v-1.158c0-2.766-2.06-5.099-4.804-5.443-1.699-0.212-3.196-0.399-3.196-0.399l-4-8v8c0 1.857 0.738 3.637 2.05 4.95 1.313 1.313 3.093 2.05 4.95 2.05h5z"/></g><path d="m21.064 29c0.369-2.385 2.279-4.293 4.74-4.601 1.699-0.212 3.196-0.399 3.196-0.399l2-4v4c0 3.866-3.134 7-7 7h-3v-1l0.481-0.585-0.417-0.415z" fill="#ec7235"/><path d="m21.064 29h0.208c0.466 0 0.913-0.185 1.243-0.515l1.411-1.411c0.688-0.688 1.62-1.074 2.592-1.074h0.482s-0.233 0.467-0.541 1.081c-0.894 1.789-2.722 2.919-4.722 2.919h-0.737v-0.158c0-0.286 0.022-0.567 0.064-0.842z" fill="#b54b12"/><path d="m12.936 29c-0.369-2.385-2.279-4.293-4.74-4.601-1.699-0.212-3.196-0.399-3.196-0.399l-2-4v4c0 3.866 3.134 7 7 7h3v-1l-0.481-0.585 0.417-0.415z" fill="#ec7235"/><path d="m12.936 29h-0.208c-0.466 0-0.913-0.185-1.243-0.515l-1.411-1.411c-0.688-0.688-1.62-1.074-2.592-1.074h-0.482s0.233 0.467 0.541 1.081c0.894 1.789 2.722 2.919 4.722 2.919h0.737v-0.158c0-0.286-0.022-0.567-0.064-0.842z" fill="#b54b12"/><path d="m13.232 22.987c-0.167 0.46-0.1 0.973 0.181 1.374 0.281 0.4 0.739 0.639 1.229 0.639h4.716c0.49 0 0.948-0.239 1.229-0.639 0.281-0.401 0.348-0.914 0.181-1.374-0.134-0.37-0.276-0.759-0.414-1.138-0.513-1.41-1.853-2.349-3.353-2.349h-2e-3c-1.5 0-2.84 0.939-3.353 2.349-0.138 0.379-0.28 0.768-0.414 1.138z"/><path d="m17.071 19.501 0.07 2e-3 0.07 3e-3 0.069 5e-3 0.069 6e-3 0.069 7e-3 0.069 9e-3 0.068 0.01 0.067 0.011 0.068 0.013 0.067 0.014 0.067 0.015 0.066 0.016 0.065 0.018 0.066 0.019 0.065 0.02 0.064 0.021 0.064 0.022 0.063 0.024 0.063 0.025 0.062 0.026 0.062 0.027 0.061 0.028 0.061 0.029 0.06 0.031 0.059 0.031 0.059 0.033 0.058 0.034 0.058 0.035 0.056 0.036 0.056 0.037 0.056 0.038 0.054 0.039 0.054 0.04 0.053 0.041 0.053 0.042 0.051 0.043 0.051 0.044 0.05 0.045 0.049 0.046 0.049 0.047 0.094 0.096 0.045 0.05 0.045 0.051 0.044 0.051 0.043 0.053 0.042 0.053 0.041 0.054 0.04 0.055 0.039 0.056 0.038 0.056 0.037 0.058 0.036 0.058 0.035 0.059 0.033 0.06 0.033 0.061 0.032 0.061 0.03 0.062 0.029 0.063 0.029 0.064 0.027 0.064 0.025 0.065 0.025 0.066 0.414 1.138 0.015 0.044 0.014 0.043 0.012 0.044 0.011 0.044 9e-3 0.044 9e-3 0.045 6e-3 0.044 6e-3 0.045 4e-3 0.044 3e-3 0.045 1e-3 0.045v0.044l-1e-3 0.045-2e-3 0.044-4e-3 0.045-5e-3 0.044-7e-3 0.044-8e-3 0.044-9e-3 0.044-0.01 0.043-0.012 0.043-0.013 0.043-0.014 0.043-0.016 0.042-0.017 0.041-0.018 0.041-0.019 0.041-0.021 0.04-0.022 0.04-0.023 0.039-0.024 0.039-0.026 0.038-0.027 0.037-0.028 0.036-0.028 0.035-0.03 0.034-0.031 0.033-0.032 0.032-0.032 0.031-0.034 0.031-0.034 0.029-0.035 0.027-0.036 0.027-0.036 0.026-0.037 0.025-0.038 0.023-0.078 0.044-0.04 0.02-0.04 0.018-0.041 0.018-0.084 0.032-0.042 0.013-0.043 0.013-0.044 0.011-0.043 0.011-0.045 8e-3 -0.044 8e-3 -0.045 6e-3 -0.045 5e-3 -0.045 3e-3 -0.046 2e-3 -0.046 1e-3h-4.716l-0.046-1e-3 -0.046-2e-3 -0.045-3e-3 -0.045-5e-3 -0.045-6e-3 -0.044-8e-3 -0.045-8e-3 -0.043-0.011-0.044-0.011-0.043-0.013-0.042-0.013-0.084-0.032-0.041-0.018-0.04-0.018-0.04-0.02-0.078-0.044-0.038-0.023-0.037-0.025-0.036-0.026-0.036-0.027-0.035-0.027-0.034-0.029-0.034-0.031-0.032-0.031-0.032-0.032-0.031-0.033-0.03-0.034-0.028-0.035-0.028-0.036-0.027-0.037-0.026-0.038-0.024-0.039-0.023-0.039-0.022-0.04-0.021-0.04-0.019-0.041-0.018-0.041-0.017-0.041-0.016-0.042-0.014-0.043-0.013-0.043-0.012-0.043-0.01-0.043-9e-3 -0.044-8e-3 -0.044-7e-3 -0.044-5e-3 -0.044-4e-3 -0.045-2e-3 -0.044-1e-3 -0.045v-0.044l1e-3 -0.045 3e-3 -0.045 4e-3 -0.044 6e-3 -0.045 6e-3 -0.044 9e-3 -0.045 9e-3 -0.044 0.011-0.044 0.012-0.044 0.014-0.043 0.015-0.044 0.414-1.138 0.025-0.066 0.025-0.065 0.027-0.064 0.029-0.064 0.029-0.063 0.03-0.062 0.032-0.061 0.033-0.061 0.033-0.06 0.035-0.059 0.036-0.058 0.037-0.058 0.038-0.056 0.039-0.056 0.04-0.055 0.041-0.054 0.042-0.053 0.043-0.053 0.044-0.051 0.045-0.051 0.045-0.05 0.094-0.096 0.049-0.047 0.049-0.046 0.05-0.045 0.051-0.044 0.051-0.043 0.053-0.042 0.053-0.041 0.054-0.04 0.054-0.039 0.056-0.038 0.056-0.037 0.056-0.036 0.058-0.035 0.058-0.034 0.059-0.033 0.059-0.031 0.06-0.031 0.061-0.029 0.061-0.028 0.062-0.027 0.062-0.026 0.063-0.025 0.063-0.024 0.064-0.022 0.064-0.021 0.065-0.02 0.066-0.019 0.065-0.018 0.066-0.016 0.067-0.015 0.067-0.014 0.068-0.013 0.067-0.011 0.068-0.01 0.069-9e-3 0.069-7e-3 0.069-6e-3 0.069-5e-3 0.07-3e-3 0.07-2e-3 0.072-1e-3 0.07 1e-3zm-0.123 1-0.05 1e-3 -0.05 2e-3 -0.1 8e-3 -0.05 6e-3 -0.049 6e-3 -0.049 7e-3 -0.049 8e-3 -0.048 9e-3 -0.048 0.01-0.048 0.011-0.048 0.012-0.047 0.012-0.094 0.028-0.092 0.032-0.045 0.017-0.046 0.018-0.044 0.018-0.045 0.02-0.044 0.02-0.043 0.021-0.044 0.022-0.042 0.023-0.043 0.023-0.042 0.025-0.041 0.025-0.041 0.026-0.04 0.026-0.04 0.028-0.039 0.028-0.078 0.058-0.111 0.093-0.036 0.033-0.035 0.033-0.035 0.034-0.034 0.034-0.034 0.035-0.033 0.036-0.032 0.036-0.031 0.037-0.031 0.038-0.03 0.038-0.03 0.039-0.029 0.04-0.028 0.04-0.027 0.04-0.027 0.042-0.05 0.084-0.025 0.043-0.046 0.088-0.022 0.045-0.021 0.045-0.04 0.092-0.018 0.047-0.02 0.052-0.41 1.127-7e-3 0.022-5e-3 0.014-4e-3 0.015-4e-3 0.014-3e-3 0.015-2e-3 0.015-3e-3 0.015-1e-3 0.015-2e-3 0.014-1e-3 0.015v0.015 0.015 0.015l2e-3 0.03 2e-3 0.014 2e-3 0.015 3e-3 0.015 3e-3 0.014 3e-3 0.015 8e-3 0.028 5e-3 0.015 5e-3 0.014 6e-3 0.013 0.012 0.028 7e-3 0.013 8e-3 0.013 7e-3 0.013 8e-3 0.013 9e-3 0.013 0.018 0.024 0.01 0.012 0.02 0.022 0.021 0.021 0.012 0.01 0.011 0.01 0.036 0.027 0.012 8e-3 0.013 8e-3 0.039 0.021 0.014 6e-3 0.013 6e-3 0.014 6e-3 0.014 5e-3 0.014 4e-3 0.015 5e-3 0.014 3e-3 0.015 4e-3 0.014 3e-3 0.045 6e-3 0.03 2e-3h0.023 4.702 0.023l0.03-2e-3 0.045-6e-3 0.014-3e-3 0.015-4e-3 0.014-3e-3 0.015-5e-3 0.014-4e-3 0.014-5e-3 0.014-6e-3 0.013-6e-3 0.014-6e-3 0.039-0.021 0.013-8e-3 0.012-8e-3 0.036-0.027 0.011-0.01 0.012-0.01 0.021-0.021 0.02-0.022 0.01-0.012 0.018-0.024 9e-3 -0.013 8e-3 -0.013 7e-3 -0.013 8e-3 -0.013 7e-3 -0.013 0.012-0.028 6e-3 -0.013 5e-3 -0.014 5e-3 -0.015 8e-3 -0.028 3e-3 -0.015 3e-3 -0.014 3e-3 -0.015 2e-3 -0.015 2e-3 -0.014 2e-3 -0.03v-0.015-0.015-0.015l-1e-3 -0.015-2e-3 -0.014-1e-3 -0.015-3e-3 -0.015-2e-3 -0.015-3e-3 -0.015-4e-3 -0.014-4e-3 -0.015-5e-3 -0.014-7e-3 -0.022-0.41-1.127-0.02-0.052-0.018-0.047-0.04-0.092-0.021-0.045-0.022-0.045-0.046-0.088-0.025-0.043-0.05-0.084-0.027-0.042-0.027-0.04-0.028-0.04-0.029-0.04-0.03-0.039-0.03-0.038-0.031-0.038-0.031-0.037-0.032-0.036-0.033-0.036-0.034-0.035-0.034-0.034-0.035-0.034-0.035-0.033-0.036-0.033-0.111-0.093-0.078-0.058-0.039-0.028-0.04-0.028-0.04-0.026-0.041-0.026-0.041-0.025-0.042-0.025-0.043-0.023-0.042-0.023-0.044-0.022-0.043-0.021-0.044-0.02-0.045-0.02-0.044-0.018-0.046-0.018-0.045-0.017-0.092-0.032-0.094-0.028-0.047-0.012-0.048-0.012-0.048-0.011-0.048-0.01-0.048-9e-3 -0.049-8e-3 -0.049-7e-3 -0.049-6e-3 -0.05-6e-3 -0.1-8e-3 -0.05-2e-3 -0.05-1e-3 -0.052-1e-3 -0.052 1e-3z"/><path d="m23.876 13.056c-1.937-0.341-3.231 0.919-3.601 2.373-0.448 1.763-0.375 3.18 0.418 4.218 0.872 1.142 2.33 1.688 3.605 1.137 1.724-0.745 2.202-1.752 2.202-3.813 0-2.06-0.921-3.614-2.624-3.915z"/><path d="m23.5 14.772c0-0.331-0.132-0.649-0.366-0.883-0.235-0.235-0.552-0.367-0.884-0.367h-2e-3c-0.331 0-0.648 0.132-0.882 0.366-0.235 0.234-0.366 0.551-0.366 0.882v0.982c0 0.331 0.131 0.648 0.366 0.882 0.234 0.235 0.551 0.366 0.882 0.366h2e-3c0.332 0 0.649-0.132 0.884-0.366 0.234-0.235 0.366-0.552 0.366-0.884v-0.978z" fill="#e5e5e5"/><path d="m11.376 13.056c-1.937-0.341-3.231 0.919-3.601 2.373-0.448 1.763-0.375 3.18 0.418 4.218 0.872 1.142 2.33 1.688 3.605 1.137 1.724-0.745 2.202-1.752 2.202-3.813 0-2.06-0.921-3.614-2.624-3.915z"/><path d="m11 14.772c0-0.331-0.132-0.649-0.366-0.883-0.235-0.235-0.552-0.367-0.884-0.367h-2e-3c-0.331 0-0.648 0.132-0.882 0.366-0.235 0.234-0.366 0.551-0.366 0.882v0.982c0 0.331 0.131 0.648 0.366 0.882 0.234 0.235 0.551 0.366 0.882 0.366h2e-3c0.332 0 0.649-0.132 0.884-0.366 0.234-0.235 0.366-0.552 0.366-0.884v-0.978z" fill="#e5e5e5"/><circle cx="28" cy="14" r="2" fill="#fff"/><path d="m30 4c0-0.552-0.448-1-1-1h-2c-0.552 0-1 0.448-1 1v5.5c0 0.552 0.448 1 1 1h2c0.552 0 1-0.448 1-1v-5.5z" fill="#fff"/></g></svg>
