<?xml version="1.0" encoding="UTF-8"?>
<svg clip-rule="evenodd" fill-rule="evenodd" stroke-linecap="round" stroke-linejoin="round" stroke-miterlimit="1.5" viewBox="0 0 32 32" xmlns="http://www.w3.org/2000/svg">
 <path d="m0 0h32v32h-32z" fill="none"/>
 <path d="m26.999 4.999c-3.313-3.313-8.685-3.313-11.998 0l-10.002 10.002c-3.313 3.313-3.313 8.685 0 11.998l2e-3 2e-3c3.313 3.313 8.685 3.313 11.998 0l10.002-10.002c3.313-3.313 3.313-8.685 0-11.998l-2e-3 -2e-3z" fill="none" stroke="#000" stroke-width="4"/>
 <path d="m4.999 15.001 7-7c-3.313 3.313 8.687 15.313 12 12l-7 7c-3.313 3.313-8.685 3.313-11.998 0l-2e-3 -2e-3c-3.313-3.313-3.313-8.685 0-11.998z" fill="#30bcdb"/>
 <path d="m15.001 4.999c3.313-3.313 8.685-3.313 11.998 0l2e-3 2e-3c3.313 3.313 3.313 8.685 0 11.998l-3.002 3.002c-3.313 3.313-8.685 3.313-11.998 0l-2e-3 -2e-3c-3.313-3.313-3.313-8.685 0-11.998z" fill="#feef24"/>
 <circle cx="21" cy="7" r="3" fill="#fff"/>
</svg>
