<?xml version="1.0" encoding="UTF-8"?>
<!DOCTYPE svg  PUBLIC '-//W3C//DTD SVG 1.1//EN'  'http://www.w3.org/Graphics/SVG/1.1/DTD/svg11.dtd'>
<svg clip-rule="evenodd" fill-rule="evenodd" stroke-linecap="round" stroke-linejoin="round" stroke-miterlimit="1.5" version="1.1" viewBox="0 0 32 32" xml:space="preserve" xmlns="http://www.w3.org/2000/svg">
<metadata>
<rdf:RDF xmlns:cc="http://web.resource.org/cc/" xmlns:dc="http://purl.org/dc/elements/1.1/" xmlns:rdf="http://www.w3.org/1999/02/22-rdf-syntax-ns#">

     <rdf:Description rdf:about="">
       <dc:title>Mutant Standard emoji 2023.12</dc:title>
     </rdf:Description>

    <cc:work rdf:about="">
        <cc:license rdf:resource="http://creativecommons.org/licenses/by-nc-sa/4.0/"/>
        <cc:attributionName>Caius Nocturne</cc:attributionName>
        <cc:attributionURL>http://mutant.tech/</cc:attributionURL>
    </cc:work>

</rdf:RDF>
</metadata>
<rect id="microscope" width="32" height="32" fill="none"/><clipPath id="_clip1"><rect width="32" height="32"/></clipPath><g clip-path="url(#_clip1)"><g id="outline"><path d="m12 6h1l4-4 3 3-4 4v1h2c4.418 0 8 3.582 8 8v12h-20c0-2.034 1.518-3.714 3.483-3.967l1.517-3.033h3l1.5 3h0.5c0.338 0 0.673-0.034 1-0.101v-3.899h-9v-2h13v-2c0-1.591-0.632-3.117-1.757-4.243-0.887-0.886-2.023-1.467-3.243-1.673v1.166l-7 1.75s-0.287-0.573-0.553-1.106c-0.294-0.588-0.447-1.236-0.447-1.894v-3c0-0.796 0.316-1.559 0.879-2.121 0.562-0.563 1.325-0.879 2.121-0.879h1zm-1 9h2v4h-2v-4zm3 0 2-1 1 2-2 1-1-2z" fill="none" stroke="#000" stroke-width="4px"/></g><g id="emoji"><path d="m9 27 2-4h3l2 4h-7z" fill="#4d4d4d"/><path d="m17 22h-9v-2h9l1 1-1 1z" fill="#4d4d4d"/><rect x="17" y="20" width="7" height="7" fill="#999"/><path d="m8 12c0 0.658 0.153 1.306 0.447 1.894 0.266 0.533 0.553 1.106 0.553 1.106l7-1.75v-1.25l-1-1h-6l-1 1z" fill="#4d4d4d"/><path d="m12 6h1l4-4 3 3-4 4v1h-4v-4z" fill="#4d4d4d"/><path d="m15 12h-7v-3c0-0.796 0.316-1.559 0.879-2.121 0.562-0.563 1.325-0.879 2.121-0.879h1l4 4h2c4.418 0 8 3.582 8 8v12h-20c0-2.209 1.791-4 4-4h6c1.326 0 2.598-0.527 3.536-1.464 0.937-0.938 1.464-2.21 1.464-3.536v-3c0-1.591-0.632-3.117-1.757-4.243-1.126-1.125-2.652-1.757-4.243-1.757z" fill="#fff"/><circle cx="22" cy="25" r="3" fill="#4d4d4d"/><rect x="11" y="15" width="2" height="4" fill="#999"/><path d="m14 15 2-1 1 2-2 1-1-2z" fill="#999"/><path d="m17.182 14.978-7 1.75-0.364-1.456 7-1.75 0.364 1.456z" fill="#4d4d4d" fill-rule="nonzero"/></g></g></svg>
