<?xml version="1.0" encoding="UTF-8"?>
<svg clip-rule="evenodd" fill-rule="evenodd" stroke-linejoin="round" stroke-miterlimit="1.5" viewBox="0 0 32 32" xmlns="http://www.w3.org/2000/svg">
 <clipPath id="a">
  <path d="m0 0h32v32h-32z" clip-rule="evenodd"/>
 </clipPath>
 <clipPath id="b">
  <circle cx="18" cy="20" r="8" clip-rule="evenodd"/>
 </clipPath>
 <path d="m0 0h32v32h-32z" fill="none"/>
 <g clip-path="url(#a)">
  <path d="m10 8h.146c1.136 0 2.175-.642 2.683-1.658.209-.417.427-.854.618-1.236.339-.678 1.032-1.106 1.789-1.106h5.528c.757 0 1.45.428 1.789 1.106.191.382.409.819.618 1.236.508 1.016 1.547 1.658 2.683 1.658h.146c1.061 0 2.078.421 2.828 1.172.751.75 1.172 1.767 1.172 2.828v15c0 1.657-1.343 3-3 3h-22c-.329 0-.671 0-1 0-.53 0-1.039-.211-1.414-.586s-.586-.884-.586-1.414c0-3.61 0-11.277 0-16 0-2.209 1.791-4 4-4v-2h4z" fill="none" stroke="#000" stroke-width="4"/>
  <path d="m6 6h4v3h-4z" fill="#2f2f2f"/>
  <path d="m5 30h22c1.657 0 3-1.343 3-3v-15c0-1.061-0.421-2.078-1.172-2.828-0.75-0.751-1.767-1.172-2.828-1.172h-0.146c-1.136 0-2.175-0.642-2.683-1.658-0.209-0.417-0.427-0.854-0.618-1.236-0.339-0.678-1.032-1.106-1.789-1.106h-5.528c-0.757 0-1.45 0.428-1.789 1.106-0.191 0.382-0.409 0.819-0.618 1.236-0.508 1.016-1.547 1.658-2.683 1.658h-4.146l-1 16z" fill="#323232"/>
  <circle cx="18" cy="20" r="10" fill="#1a1a1a"/>
  <circle cx="18" cy="20" r="8" fill="#585858"/>
  <g clip-path="url(#b)">
   <circle cx="18" cy="20" r="6" fill="#618f77"/>
   <circle cx="18" cy="20" r="4" fill="#25362d"/>
  </g>
  <ellipse cx="18" cy="17" rx="3.316" ry="2" fill="#eff4f1" fill-opacity=".34"/>
  <path d="m2 12c0-2.209 1.791-4 4-4h3v2.757c0 0.796-0.316 1.559-0.879 2.122l-0.242 0.242c-0.563 0.563-0.879 1.326-0.879 2.122v12.757c0 1.105-0.895 2-2 2h-1c-0.53 0-1.039-0.211-1.414-0.586s-0.586-0.884-0.586-1.414v-16z" fill="#595959"/>
  <path d="m15 5h6v1h-6z" fill="#8b8b8b"/>
  <path d="m8 10.5c0-.398-.158-.779-.439-1.061-.282-.281-.663-.439-1.061-.439-.327 0-.673 0-1 0-.398 0-.779.158-1.061.439-.281.282-.439.663-.439 1.061s.158.779.439 1.061c.282.281.663.439 1.061.439h1c.398 0 .779-.158 1.061-.439.281-.282.439-.663.439-1.061z" fill="#1d1d1d"/>
 </g>
</svg>
