<?xml version="1.0" encoding="UTF-8"?>
<!DOCTYPE svg  PUBLIC '-//W3C//DTD SVG 1.1//EN'  'http://www.w3.org/Graphics/SVG/1.1/DTD/svg11.dtd'>
<svg clip-rule="evenodd" fill-rule="evenodd" stroke-linejoin="round" stroke-miterlimit="1.4142" version="1.1" viewBox="0 0 32 32" xml:space="preserve" xmlns="http://www.w3.org/2000/svg">
<metadata>
<rdf:RDF xmlns:cc="http://web.resource.org/cc/" xmlns:dc="http://purl.org/dc/elements/1.1/" xmlns:rdf="http://www.w3.org/1999/02/22-rdf-syntax-ns#">

     <rdf:Description rdf:about="">
       <dc:title>Mutant Standard emoji 2023.12</dc:title>
     </rdf:Description>

    <cc:work rdf:about="">
        <cc:license rdf:resource="http://creativecommons.org/licenses/by-nc-sa/4.0/"/>
        <cc:attributionName>Caius Nocturne</cc:attributionName>
        <cc:attributionURL>http://mutant.tech/</cc:attributionURL>
    </cc:work>

</rdf:RDF>
</metadata>
<rect id="cassette" width="32" height="32" fill="none"/><clipPath id="_clip1"><rect width="32" height="32"/></clipPath><g clip-path="url(#_clip1)"><g id="outline"><path d="m32 7c0-0.53-0.211-1.039-0.586-1.414s-0.884-0.586-1.414-0.586h-28c-0.53 0-1.039 0.211-1.414 0.586s-0.586 0.884-0.586 1.414v19c0 0.53 0.211 1.039 0.586 1.414s0.884 0.586 1.414 0.586h28c0.53 0 1.039-0.211 1.414-0.586s0.586-0.884 0.586-1.414v-19z"/></g><g id="emoji"><path d="m30 26h-2.764l-1.209-0.197-1.027 0.197h-18l-1-0.229-1.236 0.229h-2.764v-19h28v19z" fill="#666"/><path d="m4.764 26 2.447-4.894c0.079-0.146 0.164-0.283 0.272-0.409 0.268-0.312 0.631-0.537 1.03-0.637 0.161-0.04 0.322-0.055 0.487-0.06 4.708 0 9.418-0.141 14.123 4e-3 0.165 0.015 0.324 0.04 0.482 0.09 0.392 0.124 0.741 0.371 0.989 0.699 0.075 0.099 0.136 0.203 0.195 0.313l2.447 4.894h-2.236l-2-4h-14l-2 4h-2.236z" fill="#333"/><rect x="3" y="8" width="26" height="12" fill="#fff"/><rect x="9.5" y="12" width="13" height="5" fill="#4d4d4d"/><circle cx="22.5" cy="14.5" r="2.5"/><circle cx="9.5" cy="14.5" r="2.5"/><circle cx="11" cy="24" r="1" fill="#333"/><circle cx="21" cy="24" r="1" fill="#333"/><rect x="13" y="13" width="6" height="2"/></g></g></svg>
