<?xml version="1.0" encoding="UTF-8"?>
<!DOCTYPE svg  PUBLIC '-//W3C//DTD SVG 1.1//EN'  'http://www.w3.org/Graphics/SVG/1.1/DTD/svg11.dtd'>
<svg clip-rule="evenodd" fill-rule="evenodd" stroke-linejoin="round" stroke-miterlimit="1.4142" version="1.1" viewBox="0 0 32 32" xml:space="preserve" xmlns="http://www.w3.org/2000/svg">
<metadata>
<rdf:RDF xmlns:cc="http://web.resource.org/cc/" xmlns:dc="http://purl.org/dc/elements/1.1/" xmlns:rdf="http://www.w3.org/1999/02/22-rdf-syntax-ns#">

     <rdf:Description rdf:about="">
       <dc:title>Mutant Standard emoji 2023.12</dc:title>
     </rdf:Description>

    <cc:work rdf:about="">
        <cc:license rdf:resource="http://creativecommons.org/licenses/by-nc-sa/4.0/"/>
        <cc:attributionName>Caius Nocturne</cc:attributionName>
        <cc:attributionURL>http://mutant.tech/</cc:attributionURL>
    </cc:work>

</rdf:RDF>
</metadata>
<rect id="cd" width="32" height="32" fill="none"/><clipPath id="_clip1"><rect width="32" height="32"/></clipPath><g clip-path="url(#_clip1)"><g id="outline"><circle cx="16" cy="16" r="16"/></g><g id="emoji"><circle cx="16" cy="16" r="14" fill="#e8e8e8"/><path d="m8.222 6.808c-0.188-0.188-0.442-0.293-0.707-0.293s-0.52 0.105-0.707 0.293c-0.188 0.187-0.293 0.442-0.293 0.707s0.105 0.519 0.293 0.707l16.97 16.97c0.188 0.188 0.442 0.293 0.707 0.293s0.52-0.105 0.707-0.293c0.188-0.187 0.293-0.442 0.293-0.707s-0.105-0.519-0.293-0.707l-16.97-16.97z" fill="#fff"/><path d="m4.668 11.928c-0.256-0.068-0.529-0.032-0.759 0.1-0.23 0.133-0.397 0.351-0.466 0.607-0.069 0.257-0.033 0.529 0.1 0.759 0.132 0.23 0.351 0.397 0.607 0.466 3.993 1.07 19.189 5.142 23.182 6.212 0.256 0.068 0.529 0.032 0.759-0.1 0.23-0.133 0.397-0.351 0.466-0.607 0.069-0.257 0.033-0.529-0.1-0.759-0.132-0.23-0.351-0.397-0.607-0.466-3.993-1.07-19.189-5.142-23.182-6.212z" fill="#fff"/><circle cx="16" cy="16" r="6" fill="#bababa"/><circle cx="16" cy="16" r="3" fill="#e8e8e8"/><circle cx="16" cy="16" r="2"/></g></g></svg>
