<?xml version="1.0" encoding="UTF-8"?>
<!DOCTYPE svg  PUBLIC '-//W3C//DTD SVG 1.1//EN'  'http://www.w3.org/Graphics/SVG/1.1/DTD/svg11.dtd'>
<svg clip-rule="evenodd" fill-rule="evenodd" stroke-linejoin="round" stroke-miterlimit="2" version="1.1" viewBox="0 0 32 32" xml:space="preserve" xmlns="http://www.w3.org/2000/svg">
<metadata>
<rdf:RDF xmlns:cc="http://web.resource.org/cc/" xmlns:dc="http://purl.org/dc/elements/1.1/" xmlns:rdf="http://www.w3.org/1999/02/22-rdf-syntax-ns#">

     <rdf:Description rdf:about="">
       <dc:title>Mutant Standard emoji 2023.12</dc:title>
     </rdf:Description>

    <cc:work rdf:about="">
        <cc:license rdf:resource="http://creativecommons.org/licenses/by-nc-sa/4.0/"/>
        <cc:attributionName>Caius Nocturne</cc:attributionName>
        <cc:attributionURL>http://mutant.tech/</cc:attributionURL>
    </cc:work>

</rdf:RDF>
</metadata>

    <rect id="control_knobs" width="32" height="32" fill="none"/>
    <clipPath id="_clip1">
        <rect width="32" height="32"/>
    </clipPath>
    <g clip-path="url(#_clip1)">
        <g id="outline">
            <path d="m32 2c0-0.53-0.211-1.039-0.586-1.414s-0.884-0.586-1.414-0.586h-28c-0.53 0-1.039 0.211-1.414 0.586s-0.586 0.884-0.586 1.414v28c0 0.53 0.211 1.039 0.586 1.414s0.884 0.586 1.414 0.586h28c0.53 0 1.039-0.211 1.414-0.586s0.586-0.884 0.586-1.414v-28z"/>
        </g>
        <g id="emoji">
            <rect x="2" y="2" width="28" height="28" fill="#636363"/>
            <path d="m15 9.5h-11v2c0 3.038 2.462 5.5 5.5 5.5s5.5-2.462 5.5-5.5v-2z" fill="#454545"/>
            <path d="m15 22.5h-11v2c0 3.038 2.462 5.5 5.5 5.5s5.5-2.462 5.5-5.5v-2z" fill="#454545"/>
            <path d="m28 9.5h-11v2c0 3.038 2.462 5.5 5.5 5.5s5.5-2.462 5.5-5.5v-2z" fill="#454545"/>
            <path d="m28 22.5h-11v2c0 3.038 2.462 5.5 5.5 5.5s5.5-2.462 5.5-5.5v-2z" fill="#454545"/>
            <circle cx="9.5" cy="9.5" r="5.5" fill="#191919"/>
            <clipPath id="_clip2">
                <circle cx="9.5" cy="9.5" r="5.5"/>
            </clipPath>
            <g clip-path="url(#_clip2)">
                <path d="m10 3h-1v6.5c0 0.276 0.224 0.5 0.5 0.5s0.5-0.224 0.5-0.5v-6.5z" fill="#e3e3e3"/>
            </g>
            <path d="m4 22c0-3.036 2.464-5.5 5.5-5.5s5.5 2.464 5.5 5.5-2.464 5.5-5.5 5.5-5.5-2.464-5.5-5.5z" fill="#191919"/>
            <clipPath id="_clip3">
                <path d="m4 22c0-3.036 2.464-5.5 5.5-5.5s5.5 2.464 5.5 5.5-2.464 5.5-5.5 5.5-5.5-2.464-5.5-5.5z"/>
            </clipPath>
            <g clip-path="url(#_clip3)">
                <path d="m3 21.5v1h6.5c0.276 0 0.5-0.224 0.5-0.5s-0.224-0.5-0.5-0.5h-6.5z" fill="#e3e3e3"/>
            </g>
            <circle cx="22.5" cy="9.5" r="5.5" fill="#191919"/>
            <clipPath id="_clip4">
                <circle cx="22.5" cy="9.5" r="5.5"/>
            </clipPath>
            <g clip-path="url(#_clip4)">
                <path d="m23 3h-1v6.5c0 0.276 0.224 0.5 0.5 0.5s0.5-0.224 0.5-0.5v-6.5z" fill="#fff"/>
            </g>
            <path d="m18.611 18.111c2.146-2.147 5.632-2.147 7.778 0 2.147 2.146 2.147 5.632 0 7.778-2.146 2.147-5.632 2.147-7.778 0-2.147-2.146-2.147-5.632 0-7.778z" fill="#191919"/>
            <clipPath id="_clip5">
                <path d="m18.611 18.111c2.146-2.147 5.632-2.147 7.778 0 2.147 2.146 2.147 5.632 0 7.778-2.146 2.147-5.632 2.147-7.778 0-2.147-2.146-2.147-5.632 0-7.778z"/>
            </clipPath>
            <g clip-path="url(#_clip5)">
                <path d="m18.257 17.05-0.707 0.707s3.465 3.466 4.597 4.597c0.195 0.195 0.511 0.195 0.706 0l1e-3 -1e-3c0.195-0.195 0.195-0.511 0-0.706-1.131-1.132-4.597-4.597-4.597-4.597z" fill="#e3e3e3"/>
            </g>
        </g>
    </g>
</svg>
