<?xml version="1.0" encoding="UTF-8"?>
<!DOCTYPE svg  PUBLIC '-//W3C//DTD SVG 1.1//EN'  'http://www.w3.org/Graphics/SVG/1.1/DTD/svg11.dtd'>
<svg clip-rule="evenodd" fill-rule="evenodd" stroke-miterlimit="1.5" version="1.1" viewBox="0 0 32 32" xml:space="preserve" xmlns="http://www.w3.org/2000/svg">
<metadata>
<rdf:RDF xmlns:cc="http://web.resource.org/cc/" xmlns:dc="http://purl.org/dc/elements/1.1/" xmlns:rdf="http://www.w3.org/1999/02/22-rdf-syntax-ns#">

     <rdf:Description rdf:about="">
       <dc:title>Mutant Standard emoji 2023.12</dc:title>
     </rdf:Description>

    <cc:work rdf:about="">
        <cc:license rdf:resource="http://creativecommons.org/licenses/by-nc-sa/4.0/"/>
        <cc:attributionName>Caius Nocturne</cc:attributionName>
        <cc:attributionURL>http://mutant.tech/</cc:attributionURL>
    </cc:work>

</rdf:RDF>
</metadata>

    <rect id="fax_machine" width="32" height="32" fill="none"/>
    <clipPath id="_clip1">
        <rect width="32" height="32"/>
    </clipPath>
    <g clip-path="url(#_clip1)">
        <g id="outline" fill="none" stroke="#000">
            <path d="m3 25v-1.292c0-0.466 0.108-0.925 0.317-1.341 0.945-1.892 3.683-7.367 3.683-7.367" stroke-width="6px"/>
            <path d="m8.5 22v4c0 1.105-0.895 2-2 2h-1.5c-1.105 0-2-0.895-2-2v-2" stroke-width="6px"/>
            <path d="m12 9v-6.5c0-0.133 0.053-0.26 0.146-0.354 0.094-0.093 0.221-0.146 0.354-0.146h15c0.133 0 0.26 0.053 0.354 0.146 0.093 0.094 0.146 0.221 0.146 0.354v6.5h1c0.265 0 0.52 0.105 0.707 0.293 0.188 0.187 0.293 0.442 0.293 0.707v19c0 0.265-0.105 0.52-0.293 0.707-0.187 0.188-0.442 0.293-0.707 0.293h-23c-0.265 0-0.52-0.105-0.707-0.293-0.188-0.187-0.293-0.442-0.293-0.707v-19c0-0.265 0.105-0.52 0.293-0.707 0.187-0.188 0.442-0.293 0.707-0.293h6z" stroke-linecap="square" stroke-linejoin="round" stroke-width="4px"/>
        </g>
        <g id="emoji">
            <path d="m28 2.5c0-0.133-0.053-0.26-0.146-0.354-0.094-0.093-0.221-0.146-0.354-0.146h-15c-0.133 0-0.26 0.053-0.354 0.146-0.093 0.094-0.146 0.221-0.146 0.354v13.5h16v-13.5z" fill="#313131"/>
            <rect x="13" y="3" width="14" height="12" fill="#fff"/>
            <path d="m26 8v1h-12v-1h12zm0-2v1h-12v-1h12zm0-2v1h-12v-1h12z" fill="#cbcbcb"/>
            <path d="m5 24h25v5c0 0.265-0.105 0.52-0.293 0.707-0.187 0.188-0.442 0.293-0.707 0.293h-23c-0.265 0-0.52-0.105-0.707-0.293-0.188-0.187-0.293-0.442-0.293-0.707v-5z" fill="#404040"/>
            <path d="m3 25v-1.292c0-0.466 0.108-0.925 0.317-1.341 0.945-1.892 3.683-7.367 3.683-7.367" fill="none" stroke="#252525" stroke-linecap="square" stroke-width="2px"/>
            <path d="m5 10c0-0.552 0.448-1 1-1h23c0.552 0 1 0.448 1 1v14c0 0.552-0.448 1-1 1h-23c-0.552 0-1-0.448-1-1v-14z" fill="#595959"/>
            <path d="m28 27c0-0.552-0.448-1-1-1h-14c-0.552 0-1 0.448-1 1s0.448 1 1 1h14c0.552 0 1-0.448 1-1z"/>
            <path d="m11 11c0-0.552-0.448-1-1-1h-3c-0.552 0-1 0.448-1 1v12c0 0.552 0.448 1 1 1h3c0.552 0 1-0.448 1-1v-12z" fill="#252525"/>
            <path d="m8.5 22v4c0 1.105-0.895 2-2 2h-1.5c-1.105 0-2-0.895-2-2v-1" fill="none" stroke="#252525" stroke-linecap="square" stroke-width="2px"/>
            <g fill="#252525">
                <path d="m17 15c0-0.552-0.448-1-1-1h-2c-0.552 0-1 0.448-1 1s0.448 1 1 1h2c0.552 0 1-0.448 1-1z"/>
                <path d="m17 18c0-0.552-0.448-1-1-1h-2c-0.552 0-1 0.448-1 1s0.448 1 1 1h2c0.552 0 1-0.448 1-1z"/>
                <path d="m17 21c0-0.552-0.448-1-1-1h-2c-0.552 0-1 0.448-1 1s0.448 1 1 1h2c0.552 0 1-0.448 1-1z"/>
                <path d="m22 15c0-0.552-0.448-1-1-1h-2c-0.552 0-1 0.448-1 1s0.448 1 1 1h2c0.552 0 1-0.448 1-1z"/>
                <path d="m22 18c0-0.552-0.448-1-1-1h-2c-0.552 0-1 0.448-1 1s0.448 1 1 1h2c0.552 0 1-0.448 1-1z"/>
                <path d="m22 21c0-0.552-0.448-1-1-1h-2c-0.552 0-1 0.448-1 1s0.448 1 1 1h2c0.552 0 1-0.448 1-1z"/>
                <path d="m27 15c0-0.552-0.448-1-1-1h-2c-0.552 0-1 0.448-1 1s0.448 1 1 1h2c0.552 0 1-0.448 1-1z"/>
                <path d="m27 18c0-0.552-0.448-1-1-1h-2c-0.552 0-1 0.448-1 1s0.448 1 1 1h2c0.552 0 1-0.448 1-1z"/>
                <path d="m27 21c0-0.552-0.448-1-1-1h-2c-0.552 0-1 0.448-1 1s0.448 1 1 1h2c0.552 0 1-0.448 1-1z"/>
            </g>
            <rect x="13" y="10" width="14" height="2" fill="#313131"/>
        </g>
    </g>
</svg>
