<?xml version="1.0" encoding="UTF-8"?>
<!DOCTYPE svg  PUBLIC '-//W3C//DTD SVG 1.1//EN'  'http://www.w3.org/Graphics/SVG/1.1/DTD/svg11.dtd'>
<svg clip-rule="evenodd" fill-rule="evenodd" stroke-linejoin="round" stroke-miterlimit="2" version="1.1" viewBox="0 0 32 32" xml:space="preserve" xmlns="http://www.w3.org/2000/svg">
    <rect id="film_celluloid" width="32" height="32" fill="none"/>
    <clipPath id="_clip1">
        <rect width="32" height="32"/>
    </clipPath>
    <g clip-path="url(#_clip1)">
        
        
        <rect width="32" height="32"/>
        <path d="m30 2h-7l-1 1h-12l-1-1h-7v28h7l1-1h12l1 1h7v-28z" fill="#4d4d4d"/>
        <g fill="#bfbfbf">
            <path d="m23 2h-14v5c0 0.552 0.448 1 1 1h12c0.552 0 1-0.448 1-1v-5z"/>
            <path d="m23 30h-14v-5c0-0.552 0.448-1 1-1h12c0.552 0 1 0.448 1 1v5z"/>
            <path d="m23 21c0 0.552-0.448 1-1 1h-12c-0.552 0-1-0.448-1-1v-10c0-0.552 0.448-1 1-1h12c0.552 0 1 0.448 1 1v10z"/>
        </g>
        <g fill="#bfbfbf">
            <path d="m29 9c0 0.552-0.448 1-1 1h-2c-0.552 0-1-0.448-1-1v-1c0-0.552 0.448-1 1-1h2c0.552 0 1 0.448 1 1v1z"/>
            <path d="m29 4c0 0.552-0.448 1-1 1h-2c-0.552 0-1-0.448-1-1v-1c0-0.552 0.448-1 1-1h2c0.552 0 1 0.448 1 1v1z"/>
            <path d="m29 29c0 0.552-0.448 1-1 1h-2c-0.552 0-1-0.448-1-1v-1c0-0.552 0.448-1 1-1h2c0.552 0 1 0.448 1 1v1z"/>
            <path d="m29 14c0 0.552-0.448 1-1 1h-2c-0.552 0-1-0.448-1-1v-1c0-0.552 0.448-1 1-1h2c0.552 0 1 0.448 1 1v1z"/>
            <path d="m29 19c0 0.552-0.448 1-1 1h-2c-0.552 0-1-0.448-1-1v-1c0-0.552 0.448-1 1-1h2c0.552 0 1 0.448 1 1v1z"/>
            <path d="m29 24c0 0.552-0.448 1-1 1h-2c-0.552 0-1-0.448-1-1v-1c0-0.552 0.448-1 1-1h2c0.552 0 1 0.448 1 1v1z"/>
        </g>
        <g fill="#bfbfbf">
            <path d="m7 9c0 0.552-0.448 1-1 1h-2c-0.552 0-1-0.448-1-1v-1c0-0.552 0.448-1 1-1h2c0.552 0 1 0.448 1 1v1z"/>
            <path d="m7 4c0 0.552-0.448 1-1 1h-2c-0.552 0-1-0.448-1-1v-1c0-0.552 0.448-1 1-1h2c0.552 0 1 0.448 1 1v1z"/>
            <path d="m7 29c0 0.552-0.448 1-1 1h-2c-0.552 0-1-0.448-1-1v-1c0-0.552 0.448-1 1-1h2c0.552 0 1 0.448 1 1v1z"/>
            <path d="m7 14c0 0.552-0.448 1-1 1h-2c-0.552 0-1-0.448-1-1v-1c0-0.552 0.448-1 1-1h2c0.552 0 1 0.448 1 1v1z"/>
            <path d="m7 19c0 0.552-0.448 1-1 1h-2c-0.552 0-1-0.448-1-1v-1c0-0.552 0.448-1 1-1h2c0.552 0 1 0.448 1 1v1z"/>
            <path d="m7 24c0 0.552-0.448 1-1 1h-2c-0.552 0-1-0.448-1-1v-1c0-0.552 0.448-1 1-1h2c0.552 0 1 0.448 1 1v1z"/>
        </g>
    </g>
</svg>
