<?xml version="1.0" encoding="UTF-8"?>
<svg clip-rule="evenodd" fill-rule="evenodd" stroke-linejoin="round" stroke-miterlimit="1.4142" viewBox="0 0 32 32" xmlns="http://www.w3.org/2000/svg">
 <clipPath id="a">
  <path d="m0 0h32v32h-32z" clip-rule="evenodd"/>
 </clipPath>
 <path d="m0 0h32v32h-32z" fill="none"/>
 <g clip-path="url(#a)">
  <path d="m0 0h32v32h-32z"/>
  <path d="m30 2h-7l-1 1h-12l-1-1h-7v28h7l1-1h12l1 1h7z" fill="#4d4d4d"/>
  <g fill="#939393">
   <path d="m23 2h-14v5c0 0.552 0.448 1 1 1h12c0.552 0 1-0.448 1-1v-5z"/>
   <path d="m23 30h-14s0-3.293 0-5c0-.552.448-1 1-1h12c.552 0 1 .448 1 1z"/>
   <path d="m23 21c0 0.552-0.448 1-1 1h-12c-0.552 0-1-0.448-1-1v-10c0-0.552 0.448-1 1-1h12c0.552 0 1 0.448 1 1z"/>
   <path d="m29 9c0 0.552-0.448 1-1 1h-2c-0.552 0-1-0.448-1-1v-1c0-0.552 0.448-1 1-1h2c0.552 0 1 0.448 1 1z"/>
   <path d="m29 4c0 0.552-0.448 1-1 1h-2c-0.552 0-1-0.448-1-1v-1c0-0.552 0.448-1 1-1h2c0.552 0 1 0.448 1 1z"/>
   <path d="m29 29c0 0.552-0.448 1-1 1h-2c-0.552 0-1-0.448-1-1v-1c0-0.552 0.448-1 1-1h2c0.552 0 1 0.448 1 1z"/>
   <path d="m29 14c0 0.552-0.448 1-1 1h-2c-0.552 0-1-0.448-1-1v-1c0-0.552 0.448-1 1-1h2c0.552 0 1 0.448 1 1z"/>
   <path d="m29 19c0 0.552-0.448 1-1 1h-2c-0.552 0-1-0.448-1-1v-1c0-0.552 0.448-1 1-1h2c0.552 0 1 0.448 1 1z"/>
   <path d="m29 24c0 0.552-0.448 1-1 1h-2c-0.552 0-1-0.448-1-1v-1c0-0.552 0.448-1 1-1h2c0.552 0 1 0.448 1 1z"/>
   <path d="m7 9c0 0.552-0.448 1-1 1h-2c-0.552 0-1-0.448-1-1v-1c0-0.552 0.448-1 1-1h2c0.552 0 1 0.448 1 1z"/>
   <path d="m7 4c0 0.552-0.448 1-1 1h-2c-0.552 0-1-0.448-1-1v-1c0-0.552 0.448-1 1-1h2c0.552 0 1 0.448 1 1z"/>
   <path d="m7 29c0 0.552-0.448 1-1 1h-2c-0.552 0-1-0.448-1-1v-1c0-0.552 0.448-1 1-1h2c0.552 0 1 0.448 1 1z"/>
   <path d="m7 14c0 0.552-0.448 1-1 1h-2c-0.552 0-1-0.448-1-1v-1c0-0.552 0.448-1 1-1h2c0.552 0 1 0.448 1 1z"/>
   <path d="m7 19c0 0.552-0.448 1-1 1h-2c-0.552 0-1-0.448-1-1v-1c0-0.552 0.448-1 1-1h2c0.552 0 1 0.448 1 1z"/>
   <path d="m7 24c0 0.552-0.448 1-1 1h-2c-0.552 0-1-0.448-1-1v-1c0-0.552 0.448-1 1-1h2c0.552 0 1 0.448 1 1z"/>
  </g>
 </g>
</svg>
