<?xml version="1.0" encoding="UTF-8"?>
<!DOCTYPE svg  PUBLIC '-//W3C//DTD SVG 1.1//EN'  'http://www.w3.org/Graphics/SVG/1.1/DTD/svg11.dtd'>
<svg clip-rule="evenodd" fill-rule="evenodd" stroke-linejoin="round" stroke-miterlimit="1.4142" version="1.1" viewBox="0 0 32 32" xml:space="preserve" xmlns="http://www.w3.org/2000/svg">
<metadata>
<rdf:RDF xmlns:cc="http://web.resource.org/cc/" xmlns:dc="http://purl.org/dc/elements/1.1/" xmlns:rdf="http://www.w3.org/1999/02/22-rdf-syntax-ns#">

     <rdf:Description rdf:about="">
       <dc:title>Mutant Standard emoji 2023.12</dc:title>
     </rdf:Description>

    <cc:work rdf:about="">
        <cc:license rdf:resource="http://creativecommons.org/licenses/by-nc-sa/4.0/"/>
        <cc:attributionName>Caius Nocturne</cc:attributionName>
        <cc:attributionURL>http://mutant.tech/</cc:attributionURL>
    </cc:work>

</rdf:RDF>
</metadata>
<rect id="floppy_disk" width="32" height="32" fill="none"/><clipPath id="_clip1"><rect width="32" height="32"/></clipPath><g clip-path="url(#_clip1)"><g id="outline"><path d="m30 5.414c0-0.265-0.105-0.519-0.293-0.707l-2.414-2.414c-0.188-0.188-0.442-0.293-0.707-0.293h-23.586c-0.552 0-1 0.448-1 1v26c0 0.552 0.448 1 1 1h26c0.552 0 1-0.448 1-1v-23.586z"/><path d="m26.734 3e-3 0.148 0.011 0.147 0.018 0.145 0.026 0.143 0.032 0.142 0.039 0.138 0.046 0.137 0.053 0.134 0.059 0.131 0.066 0.127 0.072 0.125 0.079 0.12 0.084 0.117 0.091 0.112 0.097 0.09 0.085 2.449 2.449 0.085 0.09 0.097 0.112 0.091 0.117 0.084 0.12 0.079 0.124 0.072 0.128 0.066 0.131 0.059 0.134 0.053 0.136 0.046 0.14 0.039 0.141 0.032 0.143 0.026 0.146 0.018 0.146 0.011 0.147 3e-3 0.125v23.635l-3e-3 0.128-0.012 0.152-0.019 0.149-0.026 0.148-0.034 0.146-0.041 0.144-0.047 0.139-0.054 0.137-0.06 0.134-0.067 0.129-0.072 0.126-0.078 0.122-0.084 0.117-0.088 0.113-0.094 0.109-0.099 0.104-0.104 0.099-0.108 0.094-0.114 0.089-0.117 0.083-0.122 0.078-0.125 0.072-0.13 0.067-0.134 0.06-0.137 0.054-0.14 0.047-0.143 0.041-0.146 0.034-0.148 0.026-0.15 0.019-0.151 0.012-0.128 3e-3h-26.05l-0.128-3e-3 -0.151-0.012-0.15-0.019-0.148-0.026-0.146-0.034-0.143-0.041-0.14-0.047-0.137-0.054-0.134-0.06-0.13-0.067-0.125-0.072-0.122-0.078-0.117-0.084-0.113-0.088-0.109-0.094-0.104-0.099-0.099-0.104-0.094-0.109-0.088-0.112-0.084-0.118-0.078-0.122-0.072-0.126-0.067-0.129-0.06-0.134-0.054-0.136-0.047-0.14-0.041-0.144-0.034-0.146-0.026-0.148-0.019-0.15-0.012-0.151-3e-3 -0.127v-26.052l3e-3 -0.127 0.012-0.151 0.019-0.15 0.026-0.148 0.034-0.146 0.041-0.144 0.047-0.14 0.054-0.136 0.06-0.134 0.067-0.13 0.072-0.125 0.078-0.122 0.083-0.117 0.089-0.114 0.094-0.108 0.099-0.104 0.104-0.099 0.109-0.094 0.113-0.088 0.117-0.084 0.122-0.078 0.126-0.072 0.129-0.067 0.134-0.06 0.136-0.054 0.141-0.047 0.143-0.041 0.146-0.034 0.148-0.026 0.15-0.019 0.151-0.012 0.128-3e-3h23.635l0.124 3e-3zm-22.734 3.997v24h24v-22.172l-1.828-1.828h-22.172z"/></g><g id="emoji"><path d="m30 5.414c0-0.265-0.105-0.519-0.293-0.707l-2.414-2.414c-0.188-0.188-0.442-0.293-0.707-0.293h-2.586l-1 1h-17l-1-1h-2c-0.552 0-1 0.448-1 1v26c0 0.552 0.448 1 1 1h2l1-1h20l1 1h2c0.552 0 1-0.448 1-1v-23.586z" fill="#4d4d4d"/><path d="m27 17c0-0.552-0.448-1-1-1h-20c-0.552 0-1 0.448-1 1v13h22v-13z" fill="#fff"/><rect x="6" y="19" width="20" height="1" fill="#b2d6ff"/><rect x="6" y="23" width="20" height="1" fill="#b2d6ff"/><rect x="6" y="27" width="20" height="1" fill="#b2d6ff"/><path d="m10 2h-5v9c0 0.552 0.448 1 1 1h4l1-1v-8l-1-1z" fill="#333"/><path d="m24 2h-14v10h13c0.552 0 1-0.448 1-1v-9z" fill="#ccc"/><rect x="18" y="3" width="4" height="8" fill="#333"/></g></g></svg>
