<?xml version="1.0" encoding="UTF-8"?>
<!DOCTYPE svg  PUBLIC '-//W3C//DTD SVG 1.1//EN'  'http://www.w3.org/Graphics/SVG/1.1/DTD/svg11.dtd'>
<svg clip-rule="evenodd" fill-rule="evenodd" stroke-linecap="square" stroke-linejoin="round" stroke-miterlimit="1.5" version="1.1" viewBox="0 0 32 32" xml:space="preserve" xmlns="http://www.w3.org/2000/svg">
<metadata>
<rdf:RDF xmlns:cc="http://web.resource.org/cc/" xmlns:dc="http://purl.org/dc/elements/1.1/" xmlns:rdf="http://www.w3.org/1999/02/22-rdf-syntax-ns#">

     <rdf:Description rdf:about="">
       <dc:title>Mutant Standard emoji 2023.12</dc:title>
     </rdf:Description>

    <cc:work rdf:about="">
        <cc:license rdf:resource="http://creativecommons.org/licenses/by-nc-sa/4.0/"/>
        <cc:attributionName>Caius Nocturne</cc:attributionName>
        <cc:attributionURL>http://mutant.tech/</cc:attributionURL>
    </cc:work>

</rdf:RDF>
</metadata>

    <rect id="keyboard" width="32" height="32" fill="none"/>
    <clipPath id="_clip1">
        <rect width="32" height="32"/>
    </clipPath>
    <g clip-path="url(#_clip1)">
        <g id="outline">
            <path d="m30 7c0-0.552-0.448-1-1-1h-26c-0.552 0-1 0.448-1 1v18c0 0.552 0.448 1 1 1h26c0.552 0 1-0.448 1-1v-18z" fill="none" stroke="#000" stroke-width="4px"/>
        </g>
        <g id="emoji">
            <path d="m30 7c0-0.552-0.448-1-1-1h-26c-0.552 0-1 0.448-1 1v18c0 0.552 0.448 1 1 1h26c0.552 0 1-0.448 1-1v-18z" fill="#b3b3b3"/>
            <path d="m21 23c0-0.552-0.448-1-1-1h-8c-0.552 0-1 0.448-1 1v1c0 0.552 0.448 1 1 1h8c0.552 0 1-0.448 1-1v-1z" fill="#fff"/>
            <path d="m14 15c0-0.552-0.448-1-1-1h-1c-0.552 0-1 0.448-1 1v1c0 0.552 0.448 1 1 1h1c0.552 0 1-0.448 1-1v-1z" fill="#fff"/>
            <path d="m16 19c0-0.552-0.448-1-1-1h-1c-0.552 0-1 0.448-1 1v1c0 0.552 0.448 1 1 1h1c0.552 0 1-0.448 1-1v-1z" fill="#fff"/>
            <path d="m15 11c0-0.552-0.448-1-1-1h-1c-0.552 0-1 0.448-1 1v1c0 0.552 0.448 1 1 1h1c0.552 0 1-0.448 1-1v-1z" fill="#fff"/>
            <path d="m18 15c0-0.552-0.448-1-1-1h-1c-0.552 0-1 0.448-1 1v1c0 0.552 0.448 1 1 1h1c0.552 0 1-0.448 1-1v-1z" fill="#fff"/>
            <path d="m20 19c0-0.552-0.448-1-1-1h-1c-0.552 0-1 0.448-1 1v1c0 0.552 0.448 1 1 1h1c0.552 0 1-0.448 1-1v-1z" fill="#fff"/>
            <path d="m19 11c0-0.552-0.448-1-1-1h-1c-0.552 0-1 0.448-1 1v1c0 0.552 0.448 1 1 1h1c0.552 0 1-0.448 1-1v-1z" fill="#fff"/>
            <path d="m7 23c0-0.552 0.448-1 1-1h1c0.552 0 1 0.448 1 1v1c0 0.552-0.448 1-1 1h-1c-0.552 0-1-0.448-1-1v-1z" fill="#fff"/>
            <path d="m7 15c0-0.552 0.448-1 1-1h1c0.552 0 1 0.448 1 1v1c0 0.552-0.448 1-1 1h-1c-0.552 0-1-0.448-1-1v-1z" fill="#fff"/>
            <path d="m9 19c0-0.552 0.448-1 1-1h1c0.552 0 1 0.448 1 1v1c0 0.552-0.448 1-1 1h-1c-0.552 0-1-0.448-1-1v-1z" fill="#fff"/>
            <path d="m8 11c0-0.552 0.448-1 1-1h1c0.552 0 1 0.448 1 1v1c0 0.552-0.448 1-1 1h-1c-0.552 0-1-0.448-1-1v-1z" fill="#fff"/>
            <path d="m3 23c0-0.552 0.448-1 1-1h1c0.552 0 1 0.448 1 1v1c0 0.552-0.448 1-1 1h-1c-0.552 0-1-0.448-1-1v-1z" fill="#fff"/>
            <path d="m3 15c0-0.552 0.448-1 1-1h1c0.552 0 1 0.448 1 1v1c0 0.552-0.448 1-1 1h-1c-0.552 0-1-0.448-1-1v-1z" fill="#fff"/>
            <path d="m3 19c0-0.552 0.448-1 1-1h3c0.552 0 1 0.448 1 1v1c0 0.552-0.448 1-1 1h-3c-0.552 0-1-0.448-1-1v-1z" fill="#fff"/>
            <path d="m3 11c0-0.552 0.448-1 1-1h2c0.552 0 1 0.448 1 1v1c0 0.552-0.448 1-1 1h-2c-0.552 0-1-0.448-1-1v-1z" fill="#fff"/>
            <path d="m26 23c0-0.552 0.448-1 1-1h1c0.552 0 1 0.448 1 1v1c0 0.552-0.448 1-1 1h-1c-0.552 0-1-0.448-1-1v-1z" fill="#fff"/>
            <path d="m25 19c0-0.552 0.448-1 1-1h2c0.552 0 1 0.448 1 1v1c0 0.552-0.448 1-1 1h-2c-0.552 0-1-0.448-1-1v-1z" fill="#fff"/>
            <path d="m24 11c0-0.552 0.448-1 1-1h3c0.552 0 1 0.448 1 1v1c0 0.552-0.448 1-1 1h-3c-0.552 0-1-0.448-1-1v-1z" fill="#fff"/>
            <path d="m22 23c0-0.552 0.448-1 1-1h1c0.552 0 1 0.448 1 1v1c0 0.552-0.448 1-1 1h-1c-0.552 0-1-0.448-1-1v-1z" fill="#fff"/>
            <path d="m19 15c0-0.552 0.448-1 1-1h1c0.552 0 1 0.448 1 1v1c0 0.552-0.448 1-1 1h-1c-0.552 0-1-0.448-1-1v-1z" fill="#fff"/>
            <path d="m23 15c0-0.552 0.448-1 1-1h4c0.552 0 1 0.448 1 1v1c0 0.552-0.448 1-1 1h-4c-0.552 0-1-0.448-1-1v-1z" fill="#fff"/>
            <path d="m21 19c0-0.552 0.448-1 1-1h1c0.552 0 1 0.448 1 1v1c0 0.552-0.448 1-1 1h-1c-0.552 0-1-0.448-1-1v-1z" fill="#fff"/>
            <path d="m20 11c0-0.552 0.448-1 1-1h1c0.552 0 1 0.448 1 1v1c0 0.552-0.448 1-1 1h-1c-0.552 0-1-0.448-1-1v-1z" fill="#fff"/>
        </g>
    </g>
</svg>
