<?xml version="1.0" encoding="UTF-8"?>
<svg clip-rule="evenodd" fill-rule="evenodd" stroke-linecap="square" stroke-linejoin="round" stroke-miterlimit="1.5" viewBox="0 0 32 32" xmlns="http://www.w3.org/2000/svg">
 <clipPath id="a">
  <path d="m0 0h32v32h-32z" clip-rule="evenodd"/>
 </clipPath>
 <path d="m0 0h32v32h-32z" fill="none"/>
 <g clip-path="url(#a)">
  <path d="m30 7c0-0.552-0.448-1-1-1h-26c-0.552 0-1 0.448-1 1v18c0 0.552 0.448 1 1 1h26c0.552 0 1-0.448 1-1v-18z" fill="none" stroke="#000" stroke-width="4"/>
  <path d="m30 7c0-0.552-0.448-1-1-1h-26c-0.552 0-1 0.448-1 1v18c0 0.552 0.448 1 1 1h26c0.552 0 1-0.448 1-1v-18z" fill="#b3b3b3"/>
  <g fill="#fff">
   <path d="m21 23c0-0.552-0.448-1-1-1h-8c-0.552 0-1 0.448-1 1v1c0 0.552 0.448 1 1 1h8c0.552 0 1-0.448 1-1v-1z"/>
   <path d="m14 15c0-0.552-0.448-1-1-1h-1c-0.552 0-1 0.448-1 1v1c0 0.552 0.448 1 1 1h1c0.552 0 1-0.448 1-1z"/>
   <path d="m16 19c0-0.552-0.448-1-1-1h-1c-0.552 0-1 0.448-1 1v1c0 0.552 0.448 1 1 1h1c0.552 0 1-0.448 1-1z"/>
   <path d="m15 11c0-0.552-0.448-1-1-1h-1c-0.552 0-1 0.448-1 1v1c0 0.552 0.448 1 1 1h1c0.552 0 1-0.448 1-1z"/>
   <path d="m18 15c0-0.552-0.448-1-1-1h-1c-0.552 0-1 0.448-1 1v1c0 0.552 0.448 1 1 1h1c0.552 0 1-0.448 1-1z"/>
   <path d="m20 19c0-0.552-0.448-1-1-1h-1c-0.552 0-1 0.448-1 1v1c0 0.552 0.448 1 1 1h1c0.552 0 1-0.448 1-1z"/>
   <path d="m19 11c0-0.552-0.448-1-1-1h-1c-0.552 0-1 0.448-1 1v1c0 0.552 0.448 1 1 1h1c0.552 0 1-0.448 1-1z"/>
   <path d="m7 23c0-0.552 0.448-1 1-1h1c0.552 0 1 0.448 1 1v1c0 0.552-0.448 1-1 1h-1c-0.552 0-1-0.448-1-1z"/>
   <path d="m7 15c0-0.552 0.448-1 1-1h1c0.552 0 1 0.448 1 1v1c0 0.552-0.448 1-1 1h-1c-0.552 0-1-0.448-1-1z"/>
   <path d="m9 19c0-0.552 0.448-1 1-1h1c0.552 0 1 0.448 1 1v1c0 0.552-0.448 1-1 1h-1c-0.552 0-1-0.448-1-1z"/>
   <path d="m8 11c0-0.552 0.448-1 1-1h1c0.552 0 1 0.448 1 1v1c0 0.552-0.448 1-1 1h-1c-0.552 0-1-0.448-1-1z"/>
   <path d="m3 23c0-0.552 0.448-1 1-1h1c0.552 0 1 0.448 1 1v1c0 0.552-0.448 1-1 1h-1c-0.552 0-1-0.448-1-1z"/>
   <path d="m3 15c0-0.552 0.448-1 1-1h1c0.552 0 1 0.448 1 1v1c0 0.552-0.448 1-1 1h-1c-0.552 0-1-0.448-1-1z"/>
   <path d="m3 19c0-0.552 0.448-1 1-1h3c0.552 0 1 0.448 1 1v1c0 0.552-0.448 1-1 1h-3c-0.552 0-1-0.448-1-1v-1z"/>
   <path d="m3 11c0-0.552 0.448-1 1-1h2c0.552 0 1 0.448 1 1v1c0 0.552-0.448 1-1 1h-2c-0.552 0-1-0.448-1-1v-1z"/>
   <path d="m26 23c0-0.552 0.448-1 1-1h1c0.552 0 1 0.448 1 1v1c0 0.552-0.448 1-1 1h-1c-0.552 0-1-0.448-1-1z"/>
   <path d="m25 19c0-0.552 0.448-1 1-1h2c0.552 0 1 0.448 1 1v1c0 0.552-0.448 1-1 1h-2c-0.552 0-1-0.448-1-1v-1z"/>
   <path d="m24 11c0-0.552 0.448-1 1-1h3c0.552 0 1 0.448 1 1v1c0 0.552-0.448 1-1 1h-3c-0.552 0-1-0.448-1-1v-1z"/>
   <path d="m22 23c0-0.552 0.448-1 1-1h1c0.552 0 1 0.448 1 1v1c0 0.552-0.448 1-1 1h-1c-0.552 0-1-0.448-1-1z"/>
   <path d="m19 15c0-0.552 0.448-1 1-1h1c0.552 0 1 0.448 1 1v1c0 0.552-0.448 1-1 1h-1c-0.552 0-1-0.448-1-1z"/>
   <path d="m23 15c0-0.552 0.448-1 1-1h4c0.552 0 1 0.448 1 1v1c0 0.552-0.448 1-1 1h-4c-0.552 0-1-0.448-1-1v-1z"/>
   <path d="m21 19c0-0.552 0.448-1 1-1h1c0.552 0 1 0.448 1 1v1c0 0.552-0.448 1-1 1h-1c-0.552 0-1-0.448-1-1z"/>
   <path d="m20 11c0-0.552 0.448-1 1-1h1c0.552 0 1 0.448 1 1v1c0 0.552-0.448 1-1 1h-1c-0.552 0-1-0.448-1-1z"/>
  </g>
 </g>
</svg>
