<?xml version="1.0" encoding="UTF-8"?>
<!DOCTYPE svg  PUBLIC '-//W3C//DTD SVG 1.1//EN'  'http://www.w3.org/Graphics/SVG/1.1/DTD/svg11.dtd'>
<svg clip-rule="evenodd" fill-rule="evenodd" stroke-linecap="square" stroke-linejoin="round" stroke-miterlimit="1.5" version="1.1" viewBox="0 0 32 32" xml:space="preserve" xmlns="http://www.w3.org/2000/svg">
<metadata>
<rdf:RDF xmlns:cc="http://web.resource.org/cc/" xmlns:dc="http://purl.org/dc/elements/1.1/" xmlns:rdf="http://www.w3.org/1999/02/22-rdf-syntax-ns#">

     <rdf:Description rdf:about="">
       <dc:title>Mutant Standard emoji 2023.12</dc:title>
     </rdf:Description>

    <cc:work rdf:about="">
        <cc:license rdf:resource="http://creativecommons.org/licenses/by-nc-sa/4.0/"/>
        <cc:attributionName>Caius Nocturne</cc:attributionName>
        <cc:attributionURL>http://mutant.tech/</cc:attributionURL>
    </cc:work>

</rdf:RDF>
</metadata>

    <rect id="landline_phone" width="32" height="32" fill="none"/>
    <clipPath id="_clip1">
        <rect width="32" height="32"/>
    </clipPath>
    <g clip-path="url(#_clip1)">
        <g id="outline" fill="none" stroke="#000">
            <path d="m6 6c0-0.552 0.448-1 1-1h22c0.552 0 1 0.448 1 1v19c0 0.552-0.448 1-1 1h-22c-0.552 0-1-0.448-1-1v-19z" stroke-width="4px"/>
            <path d="m4 21v-1.292c0-0.466 0.108-0.925 0.317-1.341 0.945-1.892 3.683-7.367 3.683-7.367" stroke-linecap="butt" stroke-linejoin="miter" stroke-width="6px"/>
            <path d="m9.5 18v4c0 1.105-0.895 2-2 2h-1.5c-1.105 0-2-0.895-2-2v-2" stroke-linecap="butt" stroke-linejoin="miter" stroke-width="6px"/>
        </g>
        <g id="emoji">
            <path d="m4 21v-1.292c0-0.466 0.108-0.925 0.317-1.341 0.945-1.892 3.683-7.367 3.683-7.367" fill="none" stroke="#252525" stroke-linejoin="miter" stroke-width="2px"/>
            <path d="m30 20v5c0 0.552-0.448 1-1 1h-22c-0.552 0-1-0.448-1-1v-5h24z" fill="#404040"/>
            <path d="m6 6c0-0.552 0.448-1 1-1h22c0.552 0 1 0.448 1 1v14c0 0.552-0.448 1-1 1h-22c-0.552 0-1-0.448-1-1v-14z" fill="#595959"/>
            <path d="m12 7c0-0.552-0.448-1-1-1h-3c-0.552 0-1 0.448-1 1v12c0 0.552 0.448 1 1 1h3c0.552 0 1-0.448 1-1v-12z" fill="#252525"/>
            <path d="m9.5 18v4c0 1.105-0.895 2-2 2h-1.5c-1.105 0-2-0.895-2-2v-1" fill="none" stroke="#252525" stroke-linejoin="miter" stroke-width="2px"/>
            <g fill="#252525">
                <path d="m18 11c0-0.552-0.448-1-1-1h-2c-0.552 0-1 0.448-1 1s0.448 1 1 1h2c0.552 0 1-0.448 1-1z"/>
                <path d="m18 14c0-0.552-0.448-1-1-1h-2c-0.552 0-1 0.448-1 1s0.448 1 1 1h2c0.552 0 1-0.448 1-1z"/>
                <path d="m18 17c0-0.552-0.448-1-1-1h-2c-0.552 0-1 0.448-1 1s0.448 1 1 1h2c0.552 0 1-0.448 1-1z"/>
                <path d="m23 11c0-0.552-0.448-1-1-1h-2c-0.552 0-1 0.448-1 1s0.448 1 1 1h2c0.552 0 1-0.448 1-1z"/>
                <path d="m23 14c0-0.552-0.448-1-1-1h-2c-0.552 0-1 0.448-1 1s0.448 1 1 1h2c0.552 0 1-0.448 1-1z"/>
                <path d="m23 17c0-0.552-0.448-1-1-1h-2c-0.552 0-1 0.448-1 1s0.448 1 1 1h2c0.552 0 1-0.448 1-1z"/>
                <path d="m28 11c0-0.552-0.448-1-1-1h-2c-0.552 0-1 0.448-1 1s0.448 1 1 1h2c0.552 0 1-0.448 1-1z"/>
                <path d="m28 14c0-0.552-0.448-1-1-1h-2c-0.552 0-1 0.448-1 1s0.448 1 1 1h2c0.552 0 1-0.448 1-1z"/>
                <path d="m28 17c0-0.552-0.448-1-1-1h-2c-0.552 0-1 0.448-1 1s0.448 1 1 1h2c0.552 0 1-0.448 1-1z"/>
            </g>
            <rect x="14" y="6" width="14" height="2" fill="#313131"/>
        </g>
    </g>
</svg>
