<?xml version="1.0" encoding="UTF-8"?>
<svg clip-rule="evenodd" fill-rule="evenodd" stroke-linecap="square" stroke-linejoin="round" stroke-miterlimit="1.5" viewBox="0 0 32 32" xmlns="http://www.w3.org/2000/svg">
 <clipPath id="a">
  <path d="m0 0h32v32h-32z" clip-rule="evenodd"/>
 </clipPath>
 <path d="m0 0h32v32h-32z" fill="none"/>
 <g clip-path="url(#a)">
  <path d="m6 6c0-0.552 0.448-1 1-1h22c0.552 0 1 0.448 1 1v19c0 0.552-0.448 1-1 1h-22c-0.552 0-1-0.448-1-1v-19z" fill="none" stroke="#000" stroke-width="4"/>
  <path d="m4 21v-1.292c0-.466.108-.925.317-1.341.945-1.892 3.683-7.367 3.683-7.367" fill="none" stroke="#000" stroke-linecap="butt" stroke-linejoin="miter" stroke-width="6"/>
  <path d="m9.5 18v4c0 1.105-0.895 2-2 2h-1.5c-1.105 0-2-0.895-2-2v-2" fill="none" stroke="#000" stroke-linecap="butt" stroke-linejoin="miter" stroke-width="6"/>
  <path d="m4 21v-1.292c0-.466.108-.925.317-1.341.945-1.892 3.683-7.367 3.683-7.367" fill="none" stroke="#252525" stroke-linejoin="miter" stroke-width="2"/>
  <path d="m30 20v5c0 0.552-0.448 1-1 1h-22c-0.552 0-1-0.448-1-1v-5z" fill="#404040"/>
  <path d="m6 6c0-0.552 0.448-1 1-1h22c0.552 0 1 0.448 1 1v14c0 0.552-0.448 1-1 1h-22c-0.552 0-1-0.448-1-1v-14z" fill="#595959"/>
  <path d="m12 7c0-0.552-0.448-1-1-1h-3c-0.552 0-1 0.448-1 1v12c0 0.552 0.448 1 1 1h3c0.552 0 1-0.448 1-1v-12z" fill="#252525"/>
  <path d="m9.5 18v4c0 1.105-0.895 2-2 2h-1.5c-1.105 0-2-0.895-2-2v-1" fill="none" stroke="#252525" stroke-linejoin="miter" stroke-width="2"/>
  <g fill="#252525">
   <path d="m18 11c0-0.552-0.448-1-1-1h-2c-0.552 0-1 0.448-1 1s0.448 1 1 1h2c0.552 0 1-0.448 1-1z"/>
   <path d="m18 14c0-0.552-0.448-1-1-1h-2c-0.552 0-1 0.448-1 1s0.448 1 1 1h2c0.552 0 1-0.448 1-1z"/>
   <path d="m18 17c0-0.552-0.448-1-1-1h-2c-0.552 0-1 0.448-1 1s0.448 1 1 1h2c0.552 0 1-0.448 1-1z"/>
   <path d="m23 11c0-0.552-0.448-1-1-1h-2c-0.552 0-1 0.448-1 1s0.448 1 1 1h2c0.552 0 1-0.448 1-1z"/>
   <path d="m23 14c0-0.552-0.448-1-1-1h-2c-0.552 0-1 0.448-1 1s0.448 1 1 1h2c0.552 0 1-0.448 1-1z"/>
   <path d="m23 17c0-0.552-0.448-1-1-1h-2c-0.552 0-1 0.448-1 1s0.448 1 1 1h2c0.552 0 1-0.448 1-1z"/>
   <path d="m28 11c0-0.552-0.448-1-1-1h-2c-0.552 0-1 0.448-1 1s0.448 1 1 1h2c0.552 0 1-0.448 1-1z"/>
   <path d="m28 14c0-0.552-0.448-1-1-1h-2c-0.552 0-1 0.448-1 1s0.448 1 1 1h2c0.552 0 1-0.448 1-1z"/>
   <path d="m28 17c0-0.552-0.448-1-1-1h-2c-0.552 0-1 0.448-1 1s0.448 1 1 1h2c0.552 0 1-0.448 1-1z"/>
  </g>
  <path d="m14 6h14v2h-14z" fill="#313131"/>
 </g>
</svg>
