<?xml version="1.0" encoding="UTF-8"?>
<!DOCTYPE svg  PUBLIC '-//W3C//DTD SVG 1.1//EN'  'http://www.w3.org/Graphics/SVG/1.1/DTD/svg11.dtd'>
<svg clip-rule="evenodd" fill-rule="evenodd" stroke-linecap="round" stroke-linejoin="round" stroke-miterlimit="1.5" version="1.1" viewBox="0 0 32 32" xml:space="preserve" xmlns="http://www.w3.org/2000/svg">
<metadata>
<rdf:RDF xmlns:cc="http://web.resource.org/cc/" xmlns:dc="http://purl.org/dc/elements/1.1/" xmlns:rdf="http://www.w3.org/1999/02/22-rdf-syntax-ns#">

     <rdf:Description rdf:about="">
       <dc:title>Mutant Standard emoji 2023.12</dc:title>
     </rdf:Description>

    <cc:work rdf:about="">
        <cc:license rdf:resource="http://creativecommons.org/licenses/by-nc-sa/4.0/"/>
        <cc:attributionName>Caius Nocturne</cc:attributionName>
        <cc:attributionURL>http://mutant.tech/</cc:attributionURL>
    </cc:work>

</rdf:RDF>
</metadata>

    <rect id="laptop" width="32" height="32" fill="none"/>
    <clipPath id="_clip1">
        <rect width="32" height="32"/>
    </clipPath>
    <g clip-path="url(#_clip1)">
        <g id="outline">
            <path d="m2.145 28.567c-8e-3 -0.062-5e-3 -0.126 0.01-0.188l1.75-7c0.02-0.08 0.058-0.15 0.11-0.209-0.01-0.056-0.015-0.113-0.015-0.17v-16c-0-0.265 0.105-0.52 0.293-0.707 0.187-0.188 0.442-0.293 0.707-0.293h22c0.265 0 0.52 0.105 0.707 0.293 0.188 0.187 0.293 0.442 0.293 0.707v16c0 0.057-5e-3 0.114-0.015 0.17 0.052 0.059 0.09 0.129 0.11 0.209l1.75 7c0.015 0.062 0.018 0.126 0.01 0.188h8e-3v0.933c-0 0.276-0.224 0.5-0.5 0.5h-26.726c-0.276-0-0.5-0.224-0.5-0.5v-0.933h8e-3z" fill="none" stroke="#000" stroke-width="4px"/>
        </g>
        <g id="emoji">
            <path d="m2.137 28.567v0.933c0 0.276 0.224 0.5 0.5 0.5h26.726c0.276-0 0.5-0.224 0.5-0.5v-0.933h-27.726z" fill="#888"/>
            <path d="m28 20-11.94 0.58-12.06-0.58v-15c-0-0.265 0.105-0.52 0.293-0.707 0.187-0.188 0.442-0.293 0.707-0.293h22c0.265 0 0.52 0.105 0.707 0.293 0.188 0.187 0.293 0.442 0.293 0.707v15z" fill="#313131"/>
            <path d="m4 20h24v1c0 0.265-0.105 0.52-0.293 0.707-0.187 0.188-0.442 0.293-0.707 0.293h-22c-0.265-0-0.52-0.105-0.707-0.293-0.188-0.187-0.293-0.442-0.293-0.707v-1z" fill="#454545"/>
            
                <path d="m27 12.386v6.614h-22v-2.6c3.027-0.97 8.232-0.851 13.279-2.128 4.341-1.098 6.771-1.378 8.721-1.886z" fill="#89f"/>
                <path d="m5 16.4v-6.627c3.091-0.359 7.251-1.208 11.52-2.375 3.778-1.033 5.73-1.702 9.323-2.398h1.157v7.386c-1.514 1.26-4.103 2.769-8.444 3.867-5.047 1.277-10.648 0.643-13.556 0.147z" fill="#5a72f9"/>
                <path d="m5 9.773v-4.773h20.843c-2.088 1.885-4.99 3.821-8.769 4.854-4.268 1.167-9.062 0.551-12.074-0.081z" fill="#4c48ff"/>
            
            <path d="m2.155 28.379 1.75-7c0.056-0.223 0.256-0.379 0.485-0.379h23.22c0.229-0 0.429 0.156 0.485 0.379l1.75 7c0.037 0.149 3e-3 0.307-0.091 0.429-0.095 0.121-0.24 0.192-0.394 0.192h-26.72c-0.154-0-0.299-0.071-0.394-0.192-0.094-0.122-0.128-0.28-0.091-0.429z" fill="#e6e6e6"/>
            <path d="m11.89 26h8.22c0.229-0 0.429 0.156 0.485 0.379l0.25 1c0.037 0.149 3e-3 0.307-0.091 0.429-0.095 0.121-0.24 0.192-0.394 0.192h-8.72c-0.154 0-0.299-0.071-0.394-0.192-0.094-0.122-0.128-0.28-0.091-0.429l0.25-1c0.056-0.223 0.256-0.379 0.485-0.379zm-7.235-3.621c0.056-0.223 0.256-0.379 0.485-0.379h21.72c0.229 0 0.429 0.156 0.485 0.379l0.5 2c0.037 0.149 3e-3 0.307-0.091 0.429-0.095 0.121-0.24 0.192-0.394 0.192h-22.72c-0.154 0-0.299-0.071-0.394-0.192-0.094-0.122-0.128-0.28-0.091-0.429l0.5-2z" fill="#a6a6a6"/>
        </g>
        <path d="m22 7c-0 0.552-0.448 1-1 1s-1-0.448-1-1 0.448-1 1-1 1 0.448 1 1zm-0 3c-0 0.552-0.448 1-1 1s-1-0.448-1-1 0.448-1 1-1 1 0.448 1 1zm-0 3c-0 0.552-0.448 1-1 1s-1-0.448-1-1 0.448-1 1-1 1 0.448 1 1zm4-5.5c-0 0.133-0.053 0.26-0.146 0.354-0.094 0.093-0.221 0.146-0.354 0.146h-2c-0.133 0-0.26-0.053-0.354-0.146-0.093-0.094-0.146-0.221-0.146-0.354s0.053-0.26 0.146-0.354c0.094-0.093 0.221-0.146 0.354-0.146h2c0.133-0 0.26 0.053 0.354 0.146 0.093 0.094 0.146 0.221 0.146 0.354zm0 3c-0 0.133-0.053 0.26-0.146 0.354-0.094 0.093-0.221 0.146-0.354 0.146h-2c-0.133 0-0.26-0.053-0.354-0.146-0.093-0.094-0.146-0.221-0.146-0.354s0.053-0.26 0.146-0.354c0.094-0.093 0.221-0.146 0.354-0.146h2c0.133-0 0.26 0.053 0.354 0.146 0.093 0.094 0.146 0.221 0.146 0.354zm0 3c-0 0.133-0.053 0.26-0.146 0.354-0.094 0.093-0.221 0.146-0.354 0.146h-2c-0.133 0-0.26-0.053-0.354-0.146-0.093-0.094-0.146-0.221-0.146-0.354s0.053-0.26 0.146-0.354c0.094-0.093 0.221-0.146 0.354-0.146h2c0.133-0 0.26 0.053 0.354 0.146 0.093 0.094 0.146 0.221 0.146 0.354z" fill="#d5dbfb"/>
    </g>
</svg>
