<?xml version="1.0" encoding="UTF-8"?>
<svg clip-rule="evenodd" fill-rule="evenodd" stroke-linejoin="round" stroke-miterlimit="2" viewBox="0 0 32 32" xmlns="http://www.w3.org/2000/svg">
 <clipPath id="a">
  <path d="m0 0h32v32h-32z" clip-rule="evenodd"/>
 </clipPath>
 <path d="m0 0h32v32h-32z" fill="none"/>
 <g clip-path="url(#a)">
  <path d="m26 2c0-0.53-0.211-1.039-0.586-1.414s-0.884-0.586-1.414-0.586h-16c-0.53 0-1.039 0.211-1.414 0.586s-0.586 0.884-0.586 1.414v28c0 0.53 0.211 1.039 0.586 1.414s0.884 0.586 1.414 0.586h16c0.53 0 1.039-0.211 1.414-0.586s0.586-0.884 0.586-1.414v-28z"/>
  <path d="m8 2h16v28h-16z" fill="#636363"/>
  <path d="m22 13h-12v3c0 0.552 0.448 1 1 1h10c0.552 0 1-0.448 1-1v-3z" fill="#454545"/>
  <path d="m15 4h2v24h-2z" fill="#333"/>
  <path d="m22 12c0-0.552-0.448-1-1-1h-10c-0.552 0-1 0.448-1 1v2c0 0.552 0.448 1 1 1h10c0.552 0 1-0.448 1-1v-2z" fill="#191919"/>
 </g>
</svg>
