<?xml version="1.0" encoding="UTF-8"?>
<!DOCTYPE svg  PUBLIC '-//W3C//DTD SVG 1.1//EN'  'http://www.w3.org/Graphics/SVG/1.1/DTD/svg11.dtd'>
<svg clip-rule="evenodd" fill-rule="evenodd" stroke-linejoin="round" stroke-miterlimit="2" version="1.1" viewBox="0 0 32 32" xml:space="preserve" xmlns="http://www.w3.org/2000/svg">
<metadata>
<rdf:RDF xmlns:cc="http://web.resource.org/cc/" xmlns:dc="http://purl.org/dc/elements/1.1/" xmlns:rdf="http://www.w3.org/1999/02/22-rdf-syntax-ns#">

     <rdf:Description rdf:about="">
       <dc:title>Mutant Standard emoji 2023.12</dc:title>
     </rdf:Description>

    <cc:work rdf:about="">
        <cc:license rdf:resource="http://creativecommons.org/licenses/by-nc-sa/4.0/"/>
        <cc:attributionName>Caius Nocturne</cc:attributionName>
        <cc:attributionURL>http://mutant.tech/</cc:attributionURL>
    </cc:work>

</rdf:RDF>
</metadata>

    <rect id="level_slider" width="32" height="32" fill="none"/>
    <clipPath id="_clip1">
        <rect width="32" height="32"/>
    </clipPath>
    <g clip-path="url(#_clip1)">
        <g id="outline">
            <path d="m26 2c0-0.53-0.211-1.039-0.586-1.414s-0.884-0.586-1.414-0.586h-16c-0.53 0-1.039 0.211-1.414 0.586s-0.586 0.884-0.586 1.414v28c0 0.53 0.211 1.039 0.586 1.414s0.884 0.586 1.414 0.586h16c0.53 0 1.039-0.211 1.414-0.586s0.586-0.884 0.586-1.414v-28z"/>
        </g>
        <g id="emoji">
            <rect x="8" y="2" width="16" height="28" fill="#636363"/>
            <path d="m22 13h-12v3c0 0.552 0.448 1 1 1h10c0.552 0 1-0.448 1-1v-3z" fill="#454545"/>
            <rect x="15" y="4" width="2" height="24" fill="#333"/>
            <path d="m22 12c0-0.552-0.448-1-1-1h-10c-0.552 0-1 0.448-1 1v2c0 0.552 0.448 1 1 1h10c0.552 0 1-0.448 1-1v-2z" fill="#191919"/>
        </g>
    </g>
</svg>
