<?xml version="1.0" encoding="UTF-8"?>
<!DOCTYPE svg  PUBLIC '-//W3C//DTD SVG 1.1//EN'  'http://www.w3.org/Graphics/SVG/1.1/DTD/svg11.dtd'>
<svg clip-rule="evenodd" fill-rule="evenodd" stroke-linecap="round" stroke-linejoin="round" stroke-miterlimit="1.5" version="1.1" viewBox="0 0 32 32" xml:space="preserve" xmlns="http://www.w3.org/2000/svg">
<metadata>
<rdf:RDF xmlns:cc="http://web.resource.org/cc/" xmlns:dc="http://purl.org/dc/elements/1.1/" xmlns:rdf="http://www.w3.org/1999/02/22-rdf-syntax-ns#">

     <rdf:Description rdf:about="">
       <dc:title>Mutant Standard emoji 2023.12</dc:title>
     </rdf:Description>

    <cc:work rdf:about="">
        <cc:license rdf:resource="http://creativecommons.org/licenses/by-nc-sa/4.0/"/>
        <cc:attributionName>Caius Nocturne</cc:attributionName>
        <cc:attributionURL>http://mutant.tech/</cc:attributionURL>
    </cc:work>

</rdf:RDF>
</metadata>
<rect id="lp" width="32" height="32" fill="none"/><clipPath id="_clip1"><rect width="32" height="32"/></clipPath><g clip-path="url(#_clip1)"><g id="outline"><circle cx="16" cy="16" r="16"/></g><g id="emoji"><circle cx="16" cy="16" r="14" fill="#4d4d4d"/><circle cx="16" cy="16" r="6" fill="#fff"/><circle cx="16" cy="16" r="1.5"/><path d="m16 4h-2e-3c-3.182 0-6.234 1.264-8.484 3.514s-3.514 5.302-3.514 8.484v2e-3" fill="none" stroke="#636363" stroke-width="1.5px"/><path d="m16 7h-2e-3c-2.386 0-4.675 0.948-6.363 2.635-1.687 1.688-2.635 3.977-2.635 6.363v2e-3" fill="none" stroke="#636363" stroke-width="1.5px"/><path d="m16 28c6.627 0 12-5.373 12-12" fill="none" stroke="#636363" stroke-width="1.5px"/><path d="m16 25c4.971 0 9-4.029 9-9" fill="none" stroke="#636363" stroke-width="1.5px"/></g></g></svg>
