<?xml version="1.0" encoding="UTF-8"?>
<!DOCTYPE svg  PUBLIC '-//W3C//DTD SVG 1.1//EN'  'http://www.w3.org/Graphics/SVG/1.1/DTD/svg11.dtd'>
<svg clip-rule="evenodd" fill-rule="evenodd" stroke-linecap="square" stroke-linejoin="round" stroke-miterlimit="1.5" version="1.1" viewBox="0 0 32 32" xml:space="preserve" xmlns="http://www.w3.org/2000/svg">
<metadata>
<rdf:RDF xmlns:cc="http://web.resource.org/cc/" xmlns:dc="http://purl.org/dc/elements/1.1/" xmlns:rdf="http://www.w3.org/1999/02/22-rdf-syntax-ns#">

     <rdf:Description rdf:about="">
       <dc:title>Mutant Standard emoji 2023.12</dc:title>
     </rdf:Description>

    <cc:work rdf:about="">
        <cc:license rdf:resource="http://creativecommons.org/licenses/by-nc-sa/4.0/"/>
        <cc:attributionName>Caius Nocturne</cc:attributionName>
        <cc:attributionURL>http://mutant.tech/</cc:attributionURL>
    </cc:work>

</rdf:RDF>
</metadata>

    <rect id="microphone" width="32" height="32" fill="none"/>
    <clipPath id="_clip1">
        <rect width="32" height="32"/>
    </clipPath>
    <g clip-path="url(#_clip1)">
        <g id="outline">
            <path d="m10 13v-7.816c0-1.485 1.086-2.747 2.554-2.967 0.962-0.113 2.14-0.217 3.446-0.217s2.484 0.104 3.443 0.233c1.461 0.219 2.541 1.474 2.541 2.951 0.016 3.039 0.016 7.812 0.016 7.816v2h2v-2h2v7c0 3.314-2.686 6-6 6h-8c-3.314 0-6-2.686-6-6v-7h2v2h2v-2z" fill="none" stroke="#000" stroke-width="4px"/>
            <rect x="14" y="26" width="4" height="4" fill="#404040" stroke="#000" stroke-linejoin="miter" stroke-width="4px"/>
            <rect x="7" y="16" width="18" height="9"/>
        </g>
        <g id="emoji">
            <rect x="7" y="15" width="18" height="2" fill="#333"/>
            <path d="m10 19c0 0.796 0.316 1.559 0.879 2.121 0.562 0.563 1.325 0.879 2.121 0.879h6c0.796 0 1.559-0.316 2.121-0.879 0.563-0.562 0.879-1.325 0.879-2.121v-6l-1-1h-10l-1 1v6z" fill="#666"/>
            <path d="m10 5.184c0-1.485 1.086-2.747 2.554-2.967 0.962-0.113 2.14-0.217 3.446-0.217s2.484 0.104 3.443 0.233c1.461 0.219 2.541 1.474 2.541 2.951 0.016 3.041 0.016 7.816 0.016 7.816h-12v-7.816z" fill="#333"/>
            <path d="m6 13h2v7c0 1.061 0.421 2.078 1.172 2.828 0.75 0.751 1.767 1.172 2.828 1.172h8c1.061 0 2.078-0.421 2.828-1.172 0.751-0.75 1.172-1.767 1.172-2.828v-7h2v7c0 3.314-2.686 6-6 6h-8c-3.314 0-6-2.686-6-6v-7z" fill="#595959"/>
            <rect x="14" y="25" width="4" height="5" fill="#595959"/>
        </g>
    </g>
</svg>
