<?xml version="1.0" encoding="UTF-8"?>
<svg clip-rule="evenodd" fill-rule="evenodd" stroke-linejoin="round" stroke-miterlimit="1.5" viewBox="0 0 32 32" xmlns="http://www.w3.org/2000/svg">
 <clipPath id="a">
  <path d="m0 0h32v32h-32z" clip-rule="evenodd"/>
 </clipPath>
 <path d="m0 0h32v32h-32z" fill="none"/>
 <g clip-path="url(#a)">
  <path d="m32 5c0-2.761-2.239-5-5-5-6 0-16 0-22 0-1.326 0-2.598.527-3.536 1.464-.937.938-1.464 2.21-1.464 3.536v24c0 .796.316 1.559.879 2.121.562.563 1.325.879 2.121.879h26c.796 0 1.559-.316 2.121-.879.563-.562.879-1.325.879-2.121 0-5.505 0-17.269 0-24z"/>
  <path d="m30 5c0-1.657-1.343-3-3-3h-22c-1.657 0-3 1.343-3 3v24c0 0.552 0.448 1 1 1h26c0.552 0 1-0.448 1-1v-8l-1-1v-8l1-1s0-3.382 0-6z" fill="#e6e6e6"/>
  <circle cx="16" cy="16" r="13" fill="#8c8c8c"/>
  <path d="m14 4.5 2-1 2 1z" fill="#5d5d5d" stroke="#5d5d5d"/>
  <path d="m14.378 6.082c-.143-.534-.692-.85-1.225-.707s-.85.691-.707 1.225c.948 3.539 4.228 15.778 5.176 19.318.143.534.692.85 1.225.707s.85-.691.707-1.225c-.948-3.539-4.228-15.778-5.176-19.318z" fill="#a6a6a6"/>
  <path d="m9.636 8.222c-0.39-0.391-1.024-0.391-1.414 0-0.391 0.39-0.391 1.024 0 1.414l14.142 14.142c0.39 0.391 1.024 0.391 1.414 0 0.391-0.39 0.391-1.024 0-1.414l-14.142-14.142z" fill="#a6a6a6"/>
  <circle cx="16" cy="16" r="5" fill="#e6e6e6"/>
  <circle cx="16" cy="16" r="3" fill="#515151"/>
  <path d="m30 11s-6.586 0-10 0c-1.105 0-2 .895-2 2v6c0 1.105.895 2 2 2h10z" fill="#414141"/>
  <path d="m17 6c0-0.552-0.448-1-1-1h-12c-0.552 0-1 0.448-1 1v22c0 0.552 0.448 1 1 1h12c0.552 0 1-0.448 1-1v-22z" fill="#fff" fill-opacity=".26667"/>
 </g>
</svg>
