<?xml version="1.0" encoding="UTF-8"?>
<!DOCTYPE svg  PUBLIC '-//W3C//DTD SVG 1.1//EN'  'http://www.w3.org/Graphics/SVG/1.1/DTD/svg11.dtd'>
<svg clip-rule="evenodd" fill-rule="evenodd" stroke-linejoin="round" stroke-miterlimit="1.5" version="1.1" viewBox="0 0 32 32" xml:space="preserve" xmlns="http://www.w3.org/2000/svg">
<metadata>
<rdf:RDF xmlns:cc="http://web.resource.org/cc/" xmlns:dc="http://purl.org/dc/elements/1.1/" xmlns:rdf="http://www.w3.org/1999/02/22-rdf-syntax-ns#">

     <rdf:Description rdf:about="">
       <dc:title>Mutant Standard emoji 2023.12</dc:title>
     </rdf:Description>

    <cc:work rdf:about="">
        <cc:license rdf:resource="http://creativecommons.org/licenses/by-nc-sa/4.0/"/>
        <cc:attributionName>Caius Nocturne</cc:attributionName>
        <cc:attributionURL>http://mutant.tech/</cc:attributionURL>
    </cc:work>

</rdf:RDF>
</metadata>
<rect id="minidisc" width="32" height="32" fill="none"/><clipPath id="_clip1"><rect width="32" height="32"/></clipPath><g clip-path="url(#_clip1)"><g id="outline"><path d="m32 5c0-2.761-2.239-5-5-5h-22c-1.326 0-2.598 0.527-3.536 1.464-0.937 0.938-1.464 2.21-1.464 3.536v24c0 0.796 0.316 1.559 0.879 2.121 0.562 0.563 1.325 0.879 2.121 0.879h26c0.796 0 1.559-0.316 2.121-0.879 0.563-0.562 0.879-1.325 0.879-2.121v-24z"/></g><g id="emoji"><path d="m30 5c0-1.657-1.343-3-3-3h-22c-1.657 0-3 1.343-3 3v24c0 0.552 0.448 1 1 1h26c0.552 0 1-0.448 1-1v-8l-1-1v-8l1-1v-6z" fill="#e6e6e6"/><circle cx="16" cy="16" r="13" fill="#8c8c8c"/><path d="m14 4.5 2-1 2 1h-4z" fill="#5d5d5d" stroke="#5d5d5d" stroke-width="1px"/><path d="m14.378 6.082c-0.143-0.534-0.692-0.85-1.225-0.707s-0.85 0.691-0.707 1.225c0.948 3.539 4.228 15.778 5.176 19.318 0.143 0.534 0.692 0.85 1.225 0.707s0.85-0.691 0.707-1.225c-0.948-3.539-4.228-15.778-5.176-19.318z" fill="#a6a6a6"/><path d="m9.636 8.222c-0.39-0.391-1.024-0.391-1.414 0-0.391 0.39-0.391 1.024 0 1.414l14.142 14.142c0.39 0.391 1.024 0.391 1.414 0 0.391-0.39 0.391-1.024 0-1.414l-14.142-14.142z" fill="#a6a6a6"/><circle cx="16" cy="16" r="5" fill="#e6e6e6"/><circle cx="16" cy="16" r="3" fill="#515151"/><path d="m30 11h-10c-1.105 0-2 0.895-2 2v6c0 1.105 0.895 2 2 2h10v-10z" fill="#414141"/><path d="m17 6c0-0.552-0.448-1-1-1h-12c-0.552 0-1 0.448-1 1v22c0 0.552 0.448 1 1 1h12c0.552 0 1-0.448 1-1v-22z" fill="#fff" fill-opacity=".26667"/></g></g></svg>
