<?xml version="1.0" encoding="UTF-8"?>
<!DOCTYPE svg  PUBLIC '-//W3C//DTD SVG 1.1//EN'  'http://www.w3.org/Graphics/SVG/1.1/DTD/svg11.dtd'>
<svg clip-rule="evenodd" fill-rule="evenodd" stroke-linecap="square" stroke-linejoin="round" stroke-miterlimit="1.5" version="1.1" viewBox="0 0 32 32" xml:space="preserve" xmlns="http://www.w3.org/2000/svg">
<metadata>
<rdf:RDF xmlns:cc="http://web.resource.org/cc/" xmlns:dc="http://purl.org/dc/elements/1.1/" xmlns:rdf="http://www.w3.org/1999/02/22-rdf-syntax-ns#">

     <rdf:Description rdf:about="">
       <dc:title>Mutant Standard emoji 2023.12</dc:title>
     </rdf:Description>

    <cc:work rdf:about="">
        <cc:license rdf:resource="http://creativecommons.org/licenses/by-nc-sa/4.0/"/>
        <cc:attributionName>Caius Nocturne</cc:attributionName>
        <cc:attributionURL>http://mutant.tech/</cc:attributionURL>
    </cc:work>

</rdf:RDF>
</metadata>

    <rect id="movie_camera" width="32" height="32" fill="none"/>
    <clipPath id="_clip1">
        <rect width="32" height="32"/>
    </clipPath>
    <g clip-path="url(#_clip1)">
        <g id="outline">
            <rect x="3" y="10" width="21" height="10"/>
            <path d="m11 19v-2c0-0.552 0.448-1 1-1h7.351c0.43 0 0.857-0.069 1.265-0.205 1.151-0.384 3.617-1.206 4.768-1.59 0.408-0.136 0.835-0.205 1.265-0.205h2.351c0.552 0 1 0.448 1 1v10c0 0.265-0.105 0.52-0.293 0.707-0.187 0.188-0.442 0.293-0.707 0.293h-17c-0.552 0-1-0.448-1-1v-2h-3l-3 3h-3v-10h3l3 3h3zm4-9c0-1.105-0.895-2-2-2h-9c-0.53 0-1.039 0.211-1.414 0.586s-0.586 0.884-0.586 1.414c0 1.105 0.895 2 2 2h9c1.105 0 2-0.895 2-2zm8-2 5-3 2 4-6 2h-6v-3h5z" fill="none" stroke="#000" stroke-width="4px"/>
        </g>
        <g id="emoji">
            <path d="m18 8h5l3.462-2.077 0.538 0.077 2 3-0.714 0.571-4.286 1.429h-6v-3z" fill="#404040"/>
            
                <path d="m4 17v8l1 1 3-3 0.477-1 0.523 1h1l0.577-1 0.423 1h1v-4h-1l-0.4 1-0.6-1h-1l-0.436 1-0.564-1-3-3-1 1z" fill="#404040"/>
                <rect x="2" y="16" width="3" height="10" fill="#333"/>
                <rect x="10" y="19" width="1" height="4" fill="#676767"/>
                <rect x="8" y="19" width="1" height="4" fill="#676767"/>
            
            <path d="m26.649 14c-0.43 0-0.857 0.069-1.265 0.205-1.151 0.384-3.617 1.206-4.768 1.59-0.408 0.136-0.835 0.205-1.265 0.205h-7.351c-0.552 0-1 0.448-1 1v8c0 0.552 0.448 1 1 1h17c0.265 0 0.52-0.105 0.707-0.293 0.188-0.187 0.293-0.442 0.293-0.707v-10c0-0.552-0.448-1-1-1h-2.351z" fill="#404040"/>
            <path d="m15 10c0-1.105-0.895-2-2-2h-9c-0.53 0-1.039 0.211-1.414 0.586s-0.586 0.884-0.586 1.414c0 1.105 0.895 2 2 2h9c1.105 0 2-0.895 2-2z" fill="#333"/>
            <path d="m20 18-7-7" fill="none" stroke="#404040" stroke-linecap="round" stroke-width="3px"/>
            <path d="m28 18c0-0.552-0.448-1-1-1h-6c-0.552 0-1 0.448-1 1v6c0 0.552 0.448 1 1 1h6c0.552 0 1-0.448 1-1v-6z" fill="#1a1a1a"/>
            <g fill="#666">
                <path d="m15 19c0-0.552-0.448-1-1-1s-1 0.448-1 1v2c0 0.552 0.448 1 1 1s1-0.448 1-1v-2z"/>
                <path d="m18 19c0-0.552-0.448-1-1-1s-1 0.448-1 1v2c0 0.552 0.448 1 1 1s1-0.448 1-1v-2z"/>
                <path d="m15 24c0-0.552-0.448-1-1-1s-1 0.448-1 1 0.448 1 1 1 1-0.448 1-1z"/>
                <path d="m18 24c0-0.552-0.448-1-1-1s-1 0.448-1 1 0.448 1 1 1 1-0.448 1-1z"/>
            </g>
            <g fill="#666">
                <rect x="21" y="18" width="1" height="3"/>
                <rect x="23" y="18" width="1" height="1"/>
                <rect x="24.5" y="18" width="1" height="1"/>
                <rect x="23" y="22" width="1" height="1"/>
                <rect x="24.5" y="22" width="1" height="1"/>
                <rect x="21" y="22" width="1" height="2"/>
            </g>
            <path d="m26.462 5.923 1.538-0.923 2 4-1.714 0.571-1.824-3.648z" fill="#323232"/>
        </g>
    </g>
</svg>
