<?xml version="1.0" encoding="UTF-8"?>
<!DOCTYPE svg  PUBLIC '-//W3C//DTD SVG 1.1//EN'  'http://www.w3.org/Graphics/SVG/1.1/DTD/svg11.dtd'>
<svg clip-rule="evenodd" fill-rule="evenodd" stroke-linecap="square" stroke-miterlimit="3" version="1.1" viewBox="0 0 32 32" xml:space="preserve" xmlns="http://www.w3.org/2000/svg">
<metadata>
<rdf:RDF xmlns:cc="http://web.resource.org/cc/" xmlns:dc="http://purl.org/dc/elements/1.1/" xmlns:rdf="http://www.w3.org/1999/02/22-rdf-syntax-ns#">

     <rdf:Description rdf:about="">
       <dc:title>Mutant Standard emoji 2023.12</dc:title>
     </rdf:Description>

    <cc:work rdf:about="">
        <cc:license rdf:resource="http://creativecommons.org/licenses/by-nc-sa/4.0/"/>
        <cc:attributionName>Caius Nocturne</cc:attributionName>
        <cc:attributionURL>http://mutant.tech/</cc:attributionURL>
    </cc:work>

</rdf:RDF>
</metadata>

    <rect id="phone_off" width="32" height="32" fill="none"/>
    <clipPath id="_clip1">
        <rect width="32" height="32"/>
    </clipPath>
    <g clip-path="url(#_clip1)">
        <path d="m20 26.828v0.172c-0 2.761-2.239 5-5 5h-10c-2.761-0-5-2.239-5-5v-22c0-2.761 2.239-5 5-5h10c2.761 0 5 2.239 5 5v4.172c1.045 1.044 2.879 2.878 2.879 2.878l3.585-3.586c0.782-0.781 2.048-0.781 2.829 0l2.121 2.122c0.383 0.382 0.586 0.894 0.586 1.414v2c0 0.53-0.211 1.039-0.586 1.414l-2.586 2.586 2.586 2.586c0.383 0.382 0.586 0.894 0.586 1.414v2c0 0.53-0.211 1.039-0.586 1.414l-2.121 2.122c-0.781 0.781-2.047 0.781-2.829-0l-3.585-3.586-2.879 2.878z"/>
        
            <path d="m18 5c-0-1.657-1.343-3-3-3h-10c-1.657 0-3 1.343-3 3v22c0 1.657 1.343 3 3 3h10c1.657-0 3-1.343 3-3v-22z" fill="#e6e6e6"/>
            <path d="m17 27c-0 1.105-0.895 2-2 2h-10c-1.105-0-2-0.895-2-2v-22c0-1.105 0.895-2 2-2h10c1.105 0 2 0.895 2 2v22z" fill="#3c3c3c"/>
            <path d="m12 5c-0-0.552-0.448-1-1-1h-2c-0.552 0-1 0.448-1 1s0.448 1 1 1h2c0.552-0 1-0.448 1-1z"/>
            <path d="m14 26.75c-0-0.414-0.336-0.75-0.75-0.75h-6.5c-0.414 0-0.75 0.336-0.75 0.75s0.336 0.75 0.75 0.75h6.5c0.414-0 0.75-0.336 0.75-0.75z" fill="#fff"/>
        
        <path d="m15.757 22 5.5-2.5-5.5-5.5v-2l2.122-0.121 7.121 5.121v2l-7.121 7.121-2.122-2.121v-2z" fill="#9a1e24" fill-rule="nonzero"/>
        <path d="m30 22-5.5-2.5 5.5-5.5v-2l-2.121-0.121-7.122 5.121v2l7.122 7.121 2.121-2.121v-2z" fill="#9a1e24" fill-rule="nonzero"/>
        <path d="m17.879 12 5 5-5 5" fill="none" stroke="#e02a33" stroke-width="3px"/>
        <path d="m27.879 12-5 5 5 5" fill="none" stroke="#e02a33" stroke-width="3px"/>
    </g>
</svg>
