<?xml version="1.0" encoding="UTF-8"?>
<!DOCTYPE svg  PUBLIC '-//W3C//DTD SVG 1.1//EN'  'http://www.w3.org/Graphics/SVG/1.1/DTD/svg11.dtd'>
<svg clip-rule="evenodd" fill-rule="evenodd" stroke-linejoin="round" stroke-miterlimit="1.4142" version="1.1" viewBox="0 0 32 32" xml:space="preserve" xmlns="http://www.w3.org/2000/svg">
<metadata>
<rdf:RDF xmlns:cc="http://web.resource.org/cc/" xmlns:dc="http://purl.org/dc/elements/1.1/" xmlns:rdf="http://www.w3.org/1999/02/22-rdf-syntax-ns#">

     <rdf:Description rdf:about="">
       <dc:title>Mutant Standard emoji 2023.12</dc:title>
     </rdf:Description>

    <cc:work rdf:about="">
        <cc:license rdf:resource="http://creativecommons.org/licenses/by-nc-sa/4.0/"/>
        <cc:attributionName>Caius Nocturne</cc:attributionName>
        <cc:attributionURL>http://mutant.tech/</cc:attributionURL>
    </cc:work>

</rdf:RDF>
</metadata>

    <rect id="phone_with_arrow" width="32" height="32" fill="none"/>
    <clipPath id="_clip1">
        <rect width="32" height="32"/>
    </clipPath>
    <g clip-path="url(#_clip1)">
        <path d="m11.379 20h-9.379v-5h9.379l-1.5-1.5v-2l2.121-2.121 7.121 7.121v2l-7.121 7.121-2.121-2.121v-2l1.5-1.5z" fill="#747474" fill-rule="nonzero" stroke="#000" stroke-width="4px"/>
        
            <path d="m30 5c-0-1.657-1.343-3-3-3h-10c-1.657 0-3 1.343-3 3v22c0 1.657 1.343 3 3 3h10c1.657-0 3-1.343 3-3v-22z" fill="none" stroke="#000" stroke-linecap="round" stroke-miterlimit="2" stroke-width="4px"/>
            <path d="m30 5c-0-1.657-1.343-3-3-3h-10c-1.657 0-3 1.343-3 3v22c0 1.657 1.343 3 3 3h10c1.657-0 3-1.343 3-3v-22z" fill="#e6e6e6"/>
            
                <path d="m15 21.802c1.958-1.594 2.162-3.102 6.663-3.585 4.788-0.513 5.877 1.545 7.337 1.549v7.234c-0 1.105-0.895 2-2 2h-10c-1.105-0-2-0.895-2-2v-5.198z" fill="#89f"/>
                <path d="m29 12.188v7.578c-1.226 0.534-2.692 1.044-4.444 1.487-3.642 0.921-7.062 0.848-9.556 0.549v-6.663c2.017-1.38 4.094-3.282 7.503-4.213 2.293-0.627 4.835 2.341 6.497 1.262z" fill="#5a72f9"/>
                <path d="m15 15.139v-10.139c0-1.105 0.895-2 2-2h10c1.105 0 2 0.895 2 2v7.188c-1.662 1.079-3.632 2.039-5.926 2.666-3.408 0.932-6.164 0.727-8.074 0.285z" fill="#4c48ff"/>
            
            <path d="m24 5c-0-0.552-0.448-1-1-1h-2c-0.552 0-1 0.448-1 1s0.448 1 1 1h2c0.552-0 1-0.448 1-1z"/>
            <path d="m26 26.75c-0-0.414-0.336-0.75-0.75-0.75h-6.5c-0.414 0-0.75 0.336-0.75 0.75s0.336 0.75 0.75 0.75h6.5c0.414-0 0.75-0.336 0.75-0.75z" fill="#fff"/>
        
        <path d="m13.379 20h-11.379v-2l11.379-1-3.5-3.5v-2l2.121-0.121 7.121 5.121v2l-7.121 7.121-2.121-2.121v-2l3.5-1.5z" fill="#8c1c61" fill-rule="nonzero"/>
        <path d="m13.379 18h-11.379v-3h11.379l-3.5-3.5 2.121-2.121 7.121 7.121-7.121 7.121-2.121-2.121 1.06-1.061 2.44-2.439z" fill="#f229a2"/>
    </g>
</svg>
