<?xml version="1.0" encoding="UTF-8"?>
<!DOCTYPE svg  PUBLIC '-//W3C//DTD SVG 1.1//EN'  'http://www.w3.org/Graphics/SVG/1.1/DTD/svg11.dtd'>
<svg clip-rule="evenodd" fill-rule="evenodd" stroke-linejoin="round" stroke-miterlimit="1.5" version="1.1" viewBox="0 0 32 32" xml:space="preserve" xmlns="http://www.w3.org/2000/svg">
<metadata>
<rdf:RDF xmlns:cc="http://web.resource.org/cc/" xmlns:dc="http://purl.org/dc/elements/1.1/" xmlns:rdf="http://www.w3.org/1999/02/22-rdf-syntax-ns#">

     <rdf:Description rdf:about="">
       <dc:title>Mutant Standard emoji 2023.12</dc:title>
     </rdf:Description>

    <cc:work rdf:about="">
        <cc:license rdf:resource="http://creativecommons.org/licenses/by-nc-sa/4.0/"/>
        <cc:attributionName>Caius Nocturne</cc:attributionName>
        <cc:attributionURL>http://mutant.tech/</cc:attributionURL>
    </cc:work>

</rdf:RDF>
</metadata>

    <rect id="phone_receiver" width="32" height="32" fill="none"/>
    <g id="outline">
        <path d="m28.612 4.612c0.92 0.92 1.336 2.229 1.114 3.51-0.574 3.203-2.274 9.426-7.226 14.378s-11.175 6.652-14.379 7.222c-1.28 0.221-2.588-0.193-3.506-1.112-0.39-0.385-0.812-0.807-1.201-1.196-0.375-0.375-0.586-0.884-0.586-1.414s0.211-1.039 0.586-1.414l4.172-4.172c0.781-0.781 2.047-0.781 2.828 0l1.586 1.586s3.096 0.904 7-3 3-7 3-7l-1.586-1.586c-0.781-0.781-0.781-2.047 0-2.828l4.172-4.172c0.375-0.375 0.884-0.586 1.414-0.586s1.039 0.211 1.414 0.586l1.198 1.198z" fill="#4c4c4c" stroke="#000" stroke-width="4px"/>
    </g>
    <g id="emoji">
        <path d="m28.612 4.612c0.92 0.92 1.336 2.229 1.114 3.51-0.574 3.203-2.274 9.426-7.226 14.378s-11.175 6.652-14.379 7.222c-1.28 0.221-2.588-0.193-3.506-1.112-0.345-0.34-0.615-0.61-0.615-0.61l7-7 0.8 0.8c0.13 0.13 0.293 0.222 0.471 0.266 0.841 0.103 3.51 0.153 6.729-3.066s3.169-5.888 3.053-6.726c-0.043-0.176-0.133-0.337-0.261-0.465-0.283-0.3-0.792-0.809-0.792-0.809l7-7 0.612 0.612z" fill="#404040"/>
        <path d="m28.586 4.586c0.375 0.375 0.586 0.884 0.586 1.414s-0.211 1.039-0.586 1.414l-4.172 4.172c-0.375 0.375-0.884 0.586-1.414 0.586s-1.039-0.211-1.414-0.586l-1.172-1.172c-0.375-0.375-0.586-0.884-0.586-1.414s0.211-1.039 0.586-1.414l4.172-4.172c0.375-0.375 0.884-0.586 1.414-0.586s1.039 0.211 1.414 0.586l1.172 1.172z" fill="#666"/>
        <path d="m11.586 21.586c0.375 0.375 0.586 0.884 0.586 1.414s-0.211 1.039-0.586 1.414l-4.172 4.172c-0.375 0.375-0.884 0.586-1.414 0.586s-1.039-0.211-1.414-0.586l-1.172-1.172c-0.375-0.375-0.586-0.884-0.586-1.414s0.211-1.039 0.586-1.414l4.172-4.172c0.375-0.375 0.884-0.586 1.414-0.586s1.039 0.211 1.414 0.586l1.172 1.172z" fill="#666"/>
    </g>
</svg>
