<?xml version="1.0" encoding="UTF-8"?>
<svg clip-rule="evenodd" fill-rule="evenodd" stroke-linecap="round" stroke-linejoin="round" stroke-miterlimit="1.5" viewBox="0 0 32 32" xmlns="http://www.w3.org/2000/svg">
 <clipPath id="a">
  <path d="m0 0h32v32h-32z" clip-rule="evenodd"/>
 </clipPath>
 <path d="m0 0h32v32h-32z" fill="none"/>
 <g clip-path="url(#a)">
  <path d="m26 4c0-1.061-0.421-2.078-1.172-2.828-0.75-0.751-1.767-1.172-2.828-1.172h-12c-1.061 0-2.078 0.421-2.828 1.172-0.751 0.75-1.172 1.767-1.172 2.828v24c0 1.061 0.421 2.078 1.172 2.828 0.75 0.751 1.767 1.172 2.828 1.172h12c1.061 0 2.078-0.421 2.828-1.172 0.751-0.75 1.172-1.767 1.172-2.828v-24z"/>
  <g fill="none">
   <path d="m5 9-2 4 2 4-2 4 2 4" stroke="#000" stroke-width="6"/>
   <path d="m27 8 2 4-2 4 2 4-2 4" stroke="#000" stroke-width="6"/>
   <path d="m5 9-2 4 2 4-2 4 2 4" stroke="#fd6823" stroke-width="2"/>
   <path d="m9 9-2 4 2 4-2 4 2 4" stroke="#fd6823" stroke-width="2"/>
   <path d="m27 8 2 4-2 4 2 4-2 4" stroke="#fd6823" stroke-width="2"/>
   <path d="m23 8 2 4-2 4 2 4-2 4" stroke="#fd6823" stroke-width="2"/>
  </g>
  <path d="m24 4c0-1.105-0.895-2-2-2h-12c-1.105 0-2 0.895-2 2v24c0 1.105 0.895 2 2 2h12c1.105 0 2-0.895 2-2v-24z" fill="#fff"/>
  <path d="m23 4c0-0.552-0.448-1-1-1h-12c-0.552 0-1 0.448-1 1v24c0 0.552 0.448 1 1 1h12c0.552 0 1-0.448 1-1v-24z" fill="#4961ea"/>
  <path d="m11 3h.5c.133 0 .26.053.354.146.093.094.146.221.146.354v.5c0 .552.448 1 1 1h6c.552 0 1-.448 1-1 0-.174 0-.347 0-.5 0-.133.053-.26.146-.354.094-.093.221-.146.354-.146h.5v-1h-10z" fill="#fff"/>
  <path d="m15 9c0-.265-.105-.52-.293-.707-.187-.188-.442-.293-.707-.293-.871 0-2.129 0-3 0-.265 0-.52.105-.707.293-.188.187-.293.442-.293.707v3c0 .265.105.52.293.707.187.188.442.293.707.293h3c.265 0 .52-.105.707-.293.188-.187.293-.442.293-.707 0-.871 0-2.129 0-3z" fill="#263cbd"/>
  <path d="m15 16c0-.265-.105-.52-.293-.707-.187-.188-.442-.293-.707-.293-.871 0-2.129 0-3 0-.265 0-.52.105-.707.293-.188.187-.293.442-.293.707v3c0 .265.105.52.293.707.187.188.442.293.707.293h3c.265 0 .52-.105.707-.293.188-.187.293-.442.293-.707 0-.871 0-2.129 0-3z" fill="#263cbd"/>
  <path d="m15 23c0-.265-.105-.52-.293-.707-.187-.188-.442-.293-.707-.293-.871 0-2.129 0-3 0-.265 0-.52.105-.707.293-.188.187-.293.442-.293.707v3c0 .265.105.52.293.707.187.188.442.293.707.293h3c.265 0 .52-.105.707-.293.188-.187.293-.442.293-.707 0-.871 0-2.129 0-3z" fill="#263cbd"/>
  <path d="m22 9c0-.265-.105-.52-.293-.707-.187-.188-.442-.293-.707-.293-.871 0-2.129 0-3 0-.265 0-.52.105-.707.293-.188.187-.293.442-.293.707v3c0 .265.105.52.293.707.187.188.442.293.707.293h3c.265 0 .52-.105.707-.293.188-.187.293-.442.293-.707 0-.871 0-2.129 0-3z" fill="#263cbd"/>
  <path d="m22 16c0-.265-.105-.52-.293-.707-.187-.188-.442-.293-.707-.293-.871 0-2.129 0-3 0-.265 0-.52.105-.707.293-.188.187-.293.442-.293.707v3c0 .265.105.52.293.707.187.188.442.293.707.293h3c.265 0 .52-.105.707-.293.188-.187.293-.442.293-.707 0-.871 0-2.129 0-3z" fill="#263cbd"/>
  <path d="m22 23c0-.265-.105-.52-.293-.707-.187-.188-.442-.293-.707-.293-.871 0-2.129 0-3 0-.265 0-.52.105-.707.293-.188.187-.293.442-.293.707v3c0 .265.105.52.293.707.187.188.442.293.707.293h3c.265 0 .52-.105.707-.293.188-.187.293-.442.293-.707 0-.871 0-2.129 0-3z" fill="#263cbd"/>
 </g>
</svg>
