<?xml version="1.0" encoding="UTF-8"?>
<!DOCTYPE svg  PUBLIC '-//W3C//DTD SVG 1.1//EN'  'http://www.w3.org/Graphics/SVG/1.1/DTD/svg11.dtd'>
<svg clip-rule="evenodd" fill-rule="evenodd" stroke-linejoin="round" stroke-miterlimit="2" version="1.1" viewBox="0 0 32 32" xml:space="preserve" xmlns="http://www.w3.org/2000/svg">
<metadata>
<rdf:RDF xmlns:cc="http://web.resource.org/cc/" xmlns:dc="http://purl.org/dc/elements/1.1/" xmlns:rdf="http://www.w3.org/1999/02/22-rdf-syntax-ns#">

     <rdf:Description rdf:about="">
       <dc:title>Mutant Standard emoji 2023.12</dc:title>
     </rdf:Description>

    <cc:work rdf:about="">
        <cc:license rdf:resource="http://creativecommons.org/licenses/by-nc-sa/4.0/"/>
        <cc:attributionName>Caius Nocturne</cc:attributionName>
        <cc:attributionURL>http://mutant.tech/</cc:attributionURL>
    </cc:work>

</rdf:RDF>
</metadata>

    <rect id="phone_vibrate" width="32" height="32" fill="none"/>
    <clipPath id="_clip1">
        <rect width="32" height="32"/>
    </clipPath>
    <g clip-path="url(#_clip1)">
        <path d="m6.065 27.805c-1.312 0.499-2.837 0.02-3.609-1.215l-1.545-2.472c-1.233-1.972-1.125-4.499 0.27-6.359l0.569-0.759-0.569-0.759c-1.395-1.86-1.503-4.387-0.27-6.359l1.545-2.472c0.759-1.214 2.247-1.698 3.544-1.239v-1.171c0-2.761 2.239-5 5-5h10c2.761 0 5 2.239 5 5v0.171c1.297-0.459 2.785 0.025 3.544 1.239l1.545 2.472c1.233 1.972 1.125 4.499-0.27 6.359l-0.569 0.759 0.787 1.049c1.152 1.536 1.441 3.554 0.767 5.352l-0.995 2.652c-0.581 1.551-2.312 2.337-3.862 1.756-0.359-0.135-0.677-0.331-0.947-0.572v0.763c-0 2.761-2.239 5-5 5h-10c-2.487-0-4.55-1.816-4.935-4.195zm19.935-7.472v0.456l0.114-0.304-0.114-0.152z"/>
        <g fill="#fd6823">
            <path d="m4.2 8.4c0.331-0.442 0.958-0.531 1.4-0.2s0.531 0.958 0.2 1.4l-1.437 1.916c-0.598 0.798-0.519 1.914 0.186 2.619l1e-3 1e-3c1.582 1.582 1.582 4.146 0 5.728l-0.187 0.187c-0.598 0.599-0.666 1.546-0.158 2.222l1.595 2.127c0.331 0.442 0.242 1.069-0.2 1.4s-1.069 0.242-1.4-0.2l-1.595-2.127c-1.105-1.473-0.958-3.534 0.344-4.836l0.187-0.187c0.801-0.801 0.801-2.099 0-2.9l-1e-3 -1e-3c-1.409-1.409-1.567-3.639-0.372-5.233l1.437-1.916z"/>
            <path d="m8.2 8.4c0.331-0.442 0.958-0.531 1.4-0.2s0.531 0.958 0.2 1.4l-1.437 1.916c-0.598 0.798-0.519 1.914 0.186 2.619l1e-3 1e-3c1.582 1.582 1.582 4.146 0 5.728l-0.187 0.187c-0.598 0.599-0.666 1.546-0.158 2.222l1.595 2.127c0.331 0.442 0.242 1.069-0.2 1.4s-1.069 0.242-1.4-0.2l-1.595-2.127c-1.105-1.473-0.958-3.534 0.344-4.836l0.187-0.187c0.801-0.801 0.801-2.099 0-2.9l-1e-3 -1e-3c-1.409-1.409-1.567-3.639-0.372-5.233l1.437-1.916z"/>
            <path d="m26.2 8.6c-0.331-0.442-0.242-1.069 0.2-1.4s1.069-0.242 1.4 0.2l1.437 1.916c1.195 1.594 1.037 3.824-0.372 5.233l-1e-3 1e-3c-0.801 0.801-0.801 2.099-0 2.9l0.263 0.263c1.248 1.248 1.557 3.154 0.768 4.733l-1.001 2.001c-0.246 0.494-0.848 0.694-1.341 0.447-0.494-0.246-0.694-0.848-0.447-1.341l1-2.002c0.405-0.808 0.246-1.785-0.393-2.424l-0.263-0.263c-1.582-1.582-1.582-4.146-0-5.728l1e-3 -1e-3c0.705-0.705 0.784-1.821 0.186-2.619l-1.437-1.916z"/>
            <path d="m22.2 8.6c-0.331-0.442-0.242-1.069 0.2-1.4s1.069-0.242 1.4 0.2l1.437 1.916c1.195 1.594 1.037 3.824-0.372 5.233l-1e-3 1e-3c-0.801 0.801-0.801 2.099-0 2.9l0.263 0.263c1.248 1.248 1.557 3.154 0.768 4.733l-1.001 2.001c-0.246 0.494-0.848 0.694-1.341 0.447-0.494-0.246-0.694-0.848-0.447-1.341l1-2.002c0.405-0.808 0.246-1.785-0.393-2.424l-0.263-0.263c-1.582-1.582-1.582-4.146-0-5.728l1e-3 -1e-3c0.705-0.705 0.784-1.821 0.186-2.619l-1.437-1.916z"/>
        </g>
        <path d="m23 5c-0-1.105-0.895-2-2-2h-10c-1.105 0-2 0.895-2 2v22c0 1.105 0.895 2 2 2h10c1.105-0 2-0.895 2-2v-22z" fill="#4c48ff"/>
        <clipPath id="_clip2">
            <path d="m23 5c-0-1.105-0.895-2-2-2h-10c-1.105 0-2 0.895-2 2v22c0 1.105 0.895 2 2 2h10c1.105-0 2-0.895 2-2v-22z"/>
        </clipPath>
        <g clip-path="url(#_clip2)">
            <path d="m6 14s4.215 2.73 11.074 0.854c8.885-2.429 12.926-9.854 12.926-9.854l-3 25h-19c-3.319-0.018-13.341-5.561-2-16z" fill="#5a72f9"/>
            <path d="m5 21s6.343 2.077 13.556 0.253c8.93-2.259 10.444-6.253 10.444-6.253l-2 15h-19l-3-9z" fill="#89f"/>
        </g>
        <path d="m18 5c-0-0.552-0.448-1-1-1h-2c-0.552 0-1 0.448-1 1s0.448 1 1 1h2c0.552-0 1-0.448 1-1z"/>
        <path d="m20 26.75c-0-0.414-0.336-0.75-0.75-0.75h-6.5c-0.414 0-0.75 0.336-0.75 0.75s0.336 0.75 0.75 0.75h6.5c0.414-0 0.75-0.336 0.75-0.75z" fill="#fff"/>
        
            <path d="m24 5c-0-1.657-1.343-3-3-3h-10c-1.657 0-3 1.343-3 3v22c0 1.657 1.343 3 3 3h10c1.657-0 3-1.343 3-3v-22z" fill="#e6e6e6"/>
            
                <path d="m9 21.802c1.958-1.594 2.162-3.102 6.663-3.585 4.788-0.513 5.877 1.545 7.337 1.549v7.234c-0 1.105-0.895 2-2 2h-10c-1.105-0-2-0.895-2-2v-5.198z" fill="#89f"/>
                <path d="m23 12.188v7.578c-1.226 0.534-2.692 1.044-4.444 1.487-3.642 0.921-7.062 0.848-9.556 0.549v-6.663c2.017-1.38 4.094-3.282 7.503-4.213 2.293-0.627 4.835 2.341 6.497 1.262z" fill="#5a72f9"/>
                <path d="m9 15.139v-10.139c0-1.105 0.895-2 2-2h10c1.105 0 2 0.895 2 2v7.188c-1.662 1.079-3.632 2.039-5.926 2.666-3.408 0.932-6.164 0.727-8.074 0.285z" fill="#4c48ff"/>
            
            <path d="m18 5c-0-0.552-0.448-1-1-1h-2c-0.552 0-1 0.448-1 1s0.448 1 1 1h2c0.552-0 1-0.448 1-1z"/>
            <path d="m20 26.75c-0-0.414-0.336-0.75-0.75-0.75h-6.5c-0.414 0-0.75 0.336-0.75 0.75s0.336 0.75 0.75 0.75h6.5c0.414-0 0.75-0.336 0.75-0.75z" fill="#fff"/>
        
    </g>
</svg>
