<?xml version="1.0" encoding="UTF-8"?>
<svg clip-rule="evenodd" fill-rule="evenodd" stroke-linejoin="round" stroke-miterlimit="1.5" viewBox="0 0 32 32" xmlns="http://www.w3.org/2000/svg">
 <path d="m0 0h32v32h-32z" fill="none"/>
 <path d="m28.612 4.612c0.92 0.92 1.336 2.229 1.114 3.51-0.574 3.203-2.274 9.426-7.226 14.378s-11.175 6.652-14.379 7.222c-1.28 0.221-2.588-0.193-3.506-1.112-0.39-0.385-0.812-0.807-1.201-1.196-0.375-0.375-0.586-0.884-0.586-1.414s0.211-1.039 0.586-1.414l4.172-4.172c0.781-0.781 2.047-0.781 2.828 0l1.586 1.586s3.096 0.904 7-3 3-7 3-7-0.808-0.808-1.586-1.586c-0.781-0.781-0.781-2.047 0-2.828l4.172-4.172c0.375-0.375 0.884-0.586 1.414-0.586s1.039 0.211 1.414 0.586l1.198 1.198z" fill="#4c4c4c" stroke="#000" stroke-width="4"/>
 <path d="m28.612 4.612c.92.92 1.336 2.229 1.114 3.51-.574 3.203-2.274 9.426-7.226 14.378s-11.175 6.652-14.379 7.222c-1.28.221-2.588-.193-3.506-1.112-.345-.34-.615-.61-.615-.61l7-7s.509.509.8.8c.13.13.293.222.471.266.841.103 3.51.153 6.729-3.066s3.169-5.888 3.053-6.726c-.043-.176-.133-.337-.261-.465-.283-.3-.792-.809-.792-.809l7-7s.27.27.612.612z" fill="#404040"/>
 <g fill="#666">
  <path d="m28.586 4.586c0.375 0.375 0.586 0.884 0.586 1.414s-0.211 1.039-0.586 1.414l-4.172 4.172c-0.375 0.375-0.884 0.586-1.414 0.586s-1.039-0.211-1.414-0.586l-1.172-1.172c-0.375-0.375-0.586-0.884-0.586-1.414s0.211-1.039 0.586-1.414l4.172-4.172c0.375-0.375 0.884-0.586 1.414-0.586s1.039 0.211 1.414 0.586l1.172 1.172z"/>
  <path d="m11.586 21.586c0.375 0.375 0.586 0.884 0.586 1.414s-0.211 1.039-0.586 1.414l-4.172 4.172c-0.375 0.375-0.884 0.586-1.414 0.586s-1.039-0.211-1.414-0.586l-1.172-1.172c-0.375-0.375-0.586-0.884-0.586-1.414s0.211-1.039 0.586-1.414l4.172-4.172c0.375-0.375 0.884-0.586 1.414-0.586s1.039 0.211 1.414 0.586l1.172 1.172z"/>
 </g>
</svg>
