<?xml version="1.0" encoding="UTF-8"?>
<!DOCTYPE svg  PUBLIC '-//W3C//DTD SVG 1.1//EN'  'http://www.w3.org/Graphics/SVG/1.1/DTD/svg11.dtd'>
<svg clip-rule="evenodd" fill-rule="evenodd" stroke-linecap="round" stroke-linejoin="round" stroke-miterlimit="1.5" version="1.1" viewBox="0 0 32 32" xml:space="preserve" xmlns="http://www.w3.org/2000/svg">
<metadata>
<rdf:RDF xmlns:cc="http://web.resource.org/cc/" xmlns:dc="http://purl.org/dc/elements/1.1/" xmlns:rdf="http://www.w3.org/1999/02/22-rdf-syntax-ns#">

     <rdf:Description rdf:about="">
       <dc:title>Mutant Standard emoji 2023.12</dc:title>
     </rdf:Description>

    <cc:work rdf:about="">
        <cc:license rdf:resource="http://creativecommons.org/licenses/by-nc-sa/4.0/"/>
        <cc:attributionName>Caius Nocturne</cc:attributionName>
        <cc:attributionURL>http://mutant.tech/</cc:attributionURL>
    </cc:work>

</rdf:RDF>
</metadata>

    <rect id="projector" width="32" height="32" fill="none"/>
    <clipPath id="_clip1">
        <rect width="32" height="32"/>
    </clipPath>
    <g clip-path="url(#_clip1)">
        <g id="outline" fill="none" stroke="#000" stroke-width="4px">
            <path d="m30 10.5s-3.01-0.753-6.239-1.56c-5.096-1.274-10.426-1.274-15.522 0-3.229 0.807-6.239 1.56-6.239 1.56v11s3.01 0.753 6.239 1.56c5.096 1.274 10.426 1.274 15.522 0 3.229-0.807 6.239-1.56 6.239-1.56v-11z"/>
            <rect x="5" y="19" width="22" height="6" stroke-linejoin="miter"/>
        </g>
        <g id="emoji">
            <rect x="5" y="19" width="22" height="6" fill="#333"/>
            <path d="m30 10.5s-3.01-0.753-6.239-1.56c-5.096-1.274-10.426-1.274-15.522 0-3.229 0.807-6.239 1.56-6.239 1.56v2.5l1 1-1 1v2l1 1-1 1v2.5s3.01 0.753 6.239 1.56c5.096 1.274 10.426 1.274 15.522 0 3.229-0.807 6.239-1.56 6.239-1.56v-2.5l-1-1 1-1v-2l-1-1 1-1v-2.5z" fill="#4c4c4c"/>
            <circle cx="16" cy="16" r="7" fill="#262626"/>
            <circle cx="16" cy="16" r="5" fill="#3232be"/>
            <circle cx="16" cy="16" r="3" fill="#4144ff"/>
            <ellipse cx="16" cy="14" rx="2.235" ry="2" fill="#b8b9ff" fill-opacity=".34"/>
            <rect x="26" y="13" width="4" height="2" fill="#333"/>
            <rect x="26" y="17" width="4" height="2" fill="#333"/>
            <rect x="2" y="13" width="4" height="2" fill="#333"/>
            <rect x="2" y="17" width="4" height="2" fill="#333"/>
        </g>
    </g>
</svg>
