<?xml version="1.0" encoding="UTF-8"?>
<!DOCTYPE svg  PUBLIC '-//W3C//DTD SVG 1.1//EN'  'http://www.w3.org/Graphics/SVG/1.1/DTD/svg11.dtd'>
<svg clip-rule="evenodd" fill-rule="evenodd" stroke-linecap="round" stroke-linejoin="round" stroke-miterlimit="1.5" version="1.1" viewBox="0 0 32 32" xml:space="preserve" xmlns="http://www.w3.org/2000/svg">
<metadata>
<rdf:RDF xmlns:cc="http://web.resource.org/cc/" xmlns:dc="http://purl.org/dc/elements/1.1/" xmlns:rdf="http://www.w3.org/1999/02/22-rdf-syntax-ns#">

     <rdf:Description rdf:about="">
       <dc:title>Mutant Standard emoji 2023.12</dc:title>
     </rdf:Description>

    <cc:work rdf:about="">
        <cc:license rdf:resource="http://creativecommons.org/licenses/by-nc-sa/4.0/"/>
        <cc:attributionName>Caius Nocturne</cc:attributionName>
        <cc:attributionURL>http://mutant.tech/</cc:attributionURL>
    </cc:work>

</rdf:RDF>
</metadata>

    <rect id="radio" width="32" height="32" fill="none"/>
    <clipPath id="_clip1">
        <rect width="32" height="32"/>
    </clipPath>
    <g clip-path="url(#_clip1)">
        <g id="outline">
            <path d="m30 13c0-0.265-0.105-0.52-0.293-0.707-0.187-0.188-0.442-0.293-0.707-0.293h-26c-0.265 0-0.52 0.105-0.707 0.293-0.188 0.187-0.293 0.442-0.293 0.707v16c0 0.265 0.105 0.52 0.293 0.707 0.187 0.188 0.442 0.293 0.707 0.293h26c0.265 0 0.52-0.105 0.707-0.293 0.188-0.187 0.293-0.442 0.293-0.707v-16z" fill="none" stroke="#000" stroke-width="4px"/>
            <path d="m30.162 5.5c0.168 0.503 0.129 1.052-0.108 1.527-0.237 0.474-0.653 0.835-1.157 1.003-6.325 2.108-26.294 8.765-26.294 8.765l-1.898-5.692s19.97-6.657 26.295-8.765c0.503-0.168 1.052-0.129 1.527 0.108 0.474 0.237 0.835 0.653 1.003 1.157 0.203 0.61 0.429 1.286 0.632 1.897z"/>
        </g>
        <g id="emoji">
            <path d="m4.5 13 16.5-5.5" fill="none" stroke="#999" stroke-linecap="square" stroke-width="2px"/>
            <path d="m4.5 13 22.5-7.5" fill="none" stroke="#999" stroke-linecap="square" stroke-width="1px"/>
            <path d="m25 6.167 2-0.667" fill="none" stroke="#999" stroke-linecap="square" stroke-width="2px"/>
            <path d="m30 18-3-2h-22l-3 2v11c0 0.552 0.448 1 1 1h26c0.552 0 1-0.448 1-1v-11z" fill="#d9d9d9"/>
            <path d="m30 13c0-0.552-0.448-1-1-1h-26c-0.552 0-1 0.448-1 1v5h28v-5z" fill="#333"/>
            <g fill="#999">
                <circle cx="4" cy="21" r="1"/>
                <circle cx="7" cy="21" r="1"/>
                <circle cx="10" cy="21" r="1"/>
                <circle cx="13" cy="21" r="1"/>
                <circle cx="16" cy="21" r="1"/>
                <circle cx="19" cy="21" r="1"/>
                <circle cx="22" cy="21" r="1"/>
                <circle cx="25" cy="21" r="1"/>
                <circle cx="28" cy="21" r="1"/>
                <circle cx="4" cy="24" r="1"/>
                <circle cx="7" cy="24" r="1"/>
                <circle cx="10" cy="24" r="1"/>
                <circle cx="13" cy="24" r="1"/>
                <circle cx="16" cy="24" r="1"/>
                <circle cx="19" cy="24" r="1"/>
                <circle cx="22" cy="24" r="1"/>
                <circle cx="25" cy="24" r="1"/>
                <circle cx="28" cy="24" r="1"/>
                <circle cx="4" cy="27" r="1"/>
                <circle cx="7" cy="27" r="1"/>
                <circle cx="10" cy="27" r="1"/>
                <circle cx="13" cy="27" r="1"/>
                <circle cx="16" cy="27" r="1"/>
                <circle cx="19" cy="27" r="1"/>
                <circle cx="22" cy="27" r="1"/>
                <circle cx="25" cy="27" r="1"/>
                <circle cx="28" cy="27" r="1"/>
            </g>
            <rect x="3" y="14" width="14" height="3"/>
            <g fill="#797979">
                <circle cx="19.5" cy="15.5" r="1.5"/>
                <circle cx="23.5" cy="15.5" r="1.5"/>
                <circle cx="27.5" cy="15.5" r="1.5"/>
            </g>
        </g>
    </g>
</svg>
