<?xml version="1.0" encoding="UTF-8"?>
<svg clip-rule="evenodd" fill-rule="evenodd" stroke-linejoin="round" stroke-miterlimit="1.4142" viewBox="0 0 32 32" xmlns="http://www.w3.org/2000/svg">
 <clipPath id="a">
  <path d="m0 0h32v32h-32z" clip-rule="evenodd"/>
 </clipPath>
 <path d="m0 0h32v32h-32z" fill="none"/>
 <g clip-path="url(#a)">
  <path d="m26 3c0-1.657-1.343-3-3-3h-14c-1.657 0-3 1.343-3 3v26c0 1.657 1.343 3 3 3h14c1.657 0 3-1.343 3-3v-26z"/>
  <path d="m24 3c0-0.552-0.448-1-1-1h-14c-0.552 0-1 0.448-1 1v26c0 0.552 0.448 1 1 1h14c0.552 0 1-0.448 1-1v-26z" fill="#4d4d4d"/>
  <circle cx="16" cy="10" r="7" fill="#b3b3b3"/>
  <circle cx="16" cy="10" r="6" fill="#666"/>
  <circle cx="16" cy="10" r="2" fill="#1a1a1a"/>
  <circle cx="16" cy="23.5" r="4.5" fill="#b3b3b3"/>
  <circle cx="16" cy="23.5" r="3.5" fill="#666"/>
  <circle cx="16" cy="23.5" r="1.5" fill="#1a1a1a"/>
 </g>
</svg>
