<?xml version="1.0" encoding="UTF-8"?>
<!DOCTYPE svg  PUBLIC '-//W3C//DTD SVG 1.1//EN'  'http://www.w3.org/Graphics/SVG/1.1/DTD/svg11.dtd'>
<svg clip-rule="evenodd" fill-rule="evenodd" stroke-linejoin="round" stroke-miterlimit="1.4142" version="1.1" viewBox="0 0 32 32" xml:space="preserve" xmlns="http://www.w3.org/2000/svg">
<metadata>
<rdf:RDF xmlns:cc="http://web.resource.org/cc/" xmlns:dc="http://purl.org/dc/elements/1.1/" xmlns:rdf="http://www.w3.org/1999/02/22-rdf-syntax-ns#">

     <rdf:Description rdf:about="">
       <dc:title>Mutant Standard emoji 2023.12</dc:title>
     </rdf:Description>

    <cc:work rdf:about="">
        <cc:license rdf:resource="http://creativecommons.org/licenses/by-nc-sa/4.0/"/>
        <cc:attributionName>Caius Nocturne</cc:attributionName>
        <cc:attributionURL>http://mutant.tech/</cc:attributionURL>
    </cc:work>

</rdf:RDF>
</metadata>
<rect id="speaker" width="32" height="32" fill="none"/><clipPath id="_clip1"><rect width="32" height="32"/></clipPath><g clip-path="url(#_clip1)"><g id="outline"><path d="m26 3c0-1.657-1.343-3-3-3h-14c-1.657 0-3 1.343-3 3v26c0 1.657 1.343 3 3 3h14c1.657 0 3-1.343 3-3v-26z"/></g><g id="emoji"><path d="m24 3c0-0.552-0.448-1-1-1h-14c-0.552 0-1 0.448-1 1v26c0 0.552 0.448 1 1 1h14c0.552 0 1-0.448 1-1v-26z" fill="#4d4d4d"/><circle cx="16" cy="10" r="7" fill="#b3b3b3"/><circle cx="16" cy="10" r="6" fill="#666"/><circle cx="16" cy="10" r="2" fill="#1a1a1a"/><circle cx="16" cy="23.5" r="4.5" fill="#b3b3b3"/><circle cx="16" cy="23.5" r="3.5" fill="#666"/><circle cx="16" cy="23.5" r="1.5" fill="#1a1a1a"/></g></g></svg>
