<?xml version="1.0" encoding="UTF-8"?>
<!DOCTYPE svg  PUBLIC '-//W3C//DTD SVG 1.1//EN'  'http://www.w3.org/Graphics/SVG/1.1/DTD/svg11.dtd'>
<svg clip-rule="evenodd" fill-rule="evenodd" stroke-linejoin="round" stroke-miterlimit="2" version="1.1" viewBox="0 0 32 32" xml:space="preserve" xmlns="http://www.w3.org/2000/svg">
<metadata>
<rdf:RDF xmlns:cc="http://web.resource.org/cc/" xmlns:dc="http://purl.org/dc/elements/1.1/" xmlns:rdf="http://www.w3.org/1999/02/22-rdf-syntax-ns#">

     <rdf:Description rdf:about="">
       <dc:title>Mutant Standard emoji 2023.12</dc:title>
     </rdf:Description>

    <cc:work rdf:about="">
        <cc:license rdf:resource="http://creativecommons.org/licenses/by-nc-sa/4.0/"/>
        <cc:attributionName>Caius Nocturne</cc:attributionName>
        <cc:attributionURL>http://mutant.tech/</cc:attributionURL>
    </cc:work>

</rdf:RDF>
</metadata>

    <rect id="tv" width="32" height="32" fill="none"/>
    <clipPath id="_clip1">
        <rect width="32" height="32"/>
    </clipPath>
    <g clip-path="url(#_clip1)">
        <g id="outline">
            <path d="m32 28c0 0.53-0.211 1.039-0.586 1.414s-0.884 0.586-1.414 0.586h-3c-0.53-0-1.039-0.211-1.414-0.586s-0.586-0.884-0.586-1.414v-1h-18v1c0 0.53-0.211 1.039-0.586 1.414s-0.884 0.586-1.414 0.586h-3c-0.53-0-1.039-0.211-1.414-0.586s-0.586-0.884-0.586-1.414v-22c0-0.796 0.316-1.559 0.879-2.121 0.562-0.563 1.325-0.879 2.121-0.879h26c0.796-0 1.559 0.316 2.121 0.879 0.563 0.562 0.879 1.325 0.879 2.121v22z"/>
        </g>
        <g id="emoji">
            <path d="m5 28h-3v-3l3-1v4z" fill="#666"/>
            <path d="m30 28h-3v-4l3 1v3z" fill="#666"/>
            <path d="m30 6c0-0.552-0.448-1-1-1h-26c-0.552 0-1 0.448-1 1v19h28v-19z" fill="#333"/>
            
                <path d="m29 13.818v9.182h-26v-3.157c3.37-1.765 23.184-7.431 26-6.025z" fill="#89f"/>
                <path d="m3 19.843v-8.047c3.488-0.899 20.541-4.296 23.562-5.796h2.438v7.818c-1.414 1.662-4.451 4.155-10.675 5.846-5.706 1.551-12.037 0.781-15.325 0.179z" fill="#5a72f9"/>
                <path d="m3 11.796v-5.796h23.562c-2.361 2.289-5.642 4.64-9.913 5.895-4.825 1.417-10.244 0.668-13.649-0.099z" fill="#4c48ff"/>
            
        </g>
    </g>
</svg>
