<?xml version="1.0" encoding="UTF-8"?>
<!DOCTYPE svg  PUBLIC '-//W3C//DTD SVG 1.1//EN'  'http://www.w3.org/Graphics/SVG/1.1/DTD/svg11.dtd'>
<svg clip-rule="evenodd" fill-rule="evenodd" stroke-linejoin="round" stroke-miterlimit="1.4142" version="1.1" viewBox="0 0 32 32" xml:space="preserve" xmlns="http://www.w3.org/2000/svg">
<metadata>
<rdf:RDF xmlns:cc="http://web.resource.org/cc/" xmlns:dc="http://purl.org/dc/elements/1.1/" xmlns:rdf="http://www.w3.org/1999/02/22-rdf-syntax-ns#">

     <rdf:Description rdf:about="">
       <dc:title>Mutant Standard emoji 2023.12</dc:title>
     </rdf:Description>

    <cc:work rdf:about="">
        <cc:license rdf:resource="http://creativecommons.org/licenses/by-nc-sa/4.0/"/>
        <cc:attributionName>Caius Nocturne</cc:attributionName>
        <cc:attributionURL>http://mutant.tech/</cc:attributionURL>
    </cc:work>

</rdf:RDF>
</metadata>
<rect id="vr_headset" width="32" height="32" fill="none"/><clipPath id="_clip1"><rect width="32" height="32"/></clipPath><g clip-path="url(#_clip1)"><g id="outline"><path d="m1.999 7 3e-3 -0.174c0.023-0.746 0.156-1.483 0.408-2.186 0.153-0.429 0.349-0.843 0.583-1.234 0.827-1.383 2.129-2.453 3.647-2.996 0.703-0.252 1.44-0.385 2.186-0.408 4.753-0.088 9.507-0.031 14.261-1e-3 0.775 0.014 1.542 0.147 2.273 0.409 1.518 0.543 2.82 1.613 3.647 2.996 0.234 0.391 0.43 0.805 0.583 1.234 0.252 0.703 0.385 1.44 0.408 2.186l3e-3 0.174c1.104 0 1.999 0.894 2 1.998 6e-3 4.367 0.024 8.734-2e-3 13.101-5e-3 0.264-0.019 0.528-0.048 0.79-0.069 0.616-0.21 1.225-0.419 1.809-0.176 0.49-0.399 0.963-0.667 1.409-0.674 1.128-1.629 2.084-2.758 2.758-0.446 0.268-0.919 0.491-1.409 0.667-0.805 0.288-1.647 0.439-2.499 0.466-0.664 0.012-1.327 0.022-1.99 0.03-0.322 0.35-0.726 0.625-1.177 0.79-0.235 0.086-0.48 0.142-0.728 0.167-0.129 0.013-0.155 0.012-0.279 0.015h-8.05c-0.124-3e-3 -0.15-2e-3 -0.279-0.015-0.248-0.025-0.493-0.081-0.728-0.167-0.458-0.168-0.867-0.448-1.191-0.806-0.626-4e-3 -1.251-9e-3 -1.876-0.013-0.887-0.016-1.763-0.168-2.598-0.467-0.491-0.176-0.964-0.399-1.411-0.667-1.128-0.674-2.083-1.629-2.757-2.757-0.301-0.503-0.546-1.039-0.73-1.595-0.268-0.809-0.4-1.653-0.405-2.504v-13.011c0-1.103 0.895-1.998 1.998-1.998h1e-3zm3.923 12.286c0.014 0.938 0.04 1.876 0.081 2.813 0.01 0.197 0.048 0.39 0.114 0.575 0.207 0.576 0.674 1.032 1.255 1.225 0.195 0.064 0.398 0.097 0.603 0.101 0.592 3e-3 1.184 9e-3 1.777 0.016 0.328-0.371 0.746-0.662 1.216-0.834 0.235-0.086 0.48-0.142 0.728-0.167 0.129-0.013 0.155-0.012 0.279-0.015 2.726 0 5.453-0.066 8.178 3e-3 0.134 0.01 0.168 0.01 0.301 0.031 0.246 0.037 0.486 0.105 0.714 0.202 0.434 0.183 0.817 0.469 1.119 0.825 0.604-0.017 1.208-0.037 1.812-0.064 0.197-0.01 0.39-0.048 0.575-0.114 0.576-0.207 1.032-0.674 1.225-1.255 0.064-0.195 0.097-0.398 0.101-0.603v-0.034-2.667c-0.208 0.099-0.422 0.188-0.64 0.266-0.703 0.252-1.44 0.385-2.186 0.408-4.782 0.089-9.566 0.089-14.348 0-0.746-0.023-1.483-0.156-2.186-0.408-0.246-0.088-0.485-0.189-0.718-0.304z"/></g><g id="emoji"><path d="m28 7c0-2.761-2.239-5-5-5h-4l-1 1h-4l-1-1h-4c-2.761 0-5 2.239-5 5v6c0 1.326 0.527 2.598 1.464 3.536 0.938 0.937 2.21 1.464 3.536 1.464h14c1.326 0 2.598-0.527 3.536-1.464 0.937-0.938 1.464-2.21 1.464-3.536v-6z" fill="#999"/><rect x="13" y="2" width="6" height="2" fill="#ef9b00"/><path d="m26 8c0-1.061-0.421-2.078-1.172-2.828-0.75-0.751-1.767-1.172-2.828-1.172h-12c-1.061 0-2.078 0.421-2.828 1.172-0.751 0.75-1.172 1.767-1.172 2.828v4c0 1.061 0.421 2.078 1.172 2.828 0.75 0.751 1.767 1.172 2.828 1.172h1.838c0.277 0 0.542-0.115 0.731-0.318 0.426-0.457 1.24-1.33 1.968-2.112 0.378-0.406 0.908-0.636 1.463-0.636s1.085 0.23 1.463 0.636c0.728 0.782 1.542 1.655 1.968 2.112 0.189 0.203 0.454 0.318 0.731 0.318h1.838c1.061 0 2.078-0.421 2.828-1.172 0.751-0.75 1.172-1.767 1.172-2.828v-4z" fill="#4d4d4d"/><circle cx="10.5" cy="9.5" r="3.5"/><circle cx="21.5" cy="9.5" r="3.5"/><path d="m30 22.075c-0.013 0.664-0.127 1.321-0.351 1.948-0.148 0.414-0.343 0.808-0.575 1.18-0.704 1.128-1.802 1.998-3.051 2.446-0.603 0.216-1.234 0.329-1.874 0.349-5.432 0.102-10.866 0.102-16.298 0-0.64-0.02-1.271-0.133-1.874-0.349-1.301-0.466-2.417-1.383-3.126-2.568-0.225-0.377-0.409-0.779-0.547-1.196-0.202-0.608-0.3-1.242-0.304-1.882v-13.003h2c0 4.383-0.134 8.768 3e-3 13.149 0.018 0.409 0.093 0.813 0.231 1.2 0.311 0.867 0.922 1.61 1.712 2.083 0.252 0.151 0.52 0.273 0.798 0.366 0.39 0.129 0.796 0.194 1.206 0.202 5.4 0.033 10.802 0.164 16.199-3e-3 0.41-0.018 0.813-0.093 1.2-0.231 0.83-0.298 1.563-0.876 2.031-1.626 0.155-0.25 0.286-0.514 0.386-0.791 0.149-0.418 0.225-0.856 0.234-1.299v-0.053-12.997h2s0.025 8.716 0 13.075z" fill="#333" fill-rule="nonzero"/><path d="m21 28c0 0.552-0.448 1-1 1h-8c-0.552 0-1-0.448-1-1v-2c0-0.552 0.448-1 1-1h8c0.552 0 1 0.448 1 1v2z" fill="#4d4d4d"/></g></g></svg>
