<?xml version="1.0" encoding="UTF-8"?>
<svg clip-rule="evenodd" fill-rule="evenodd" stroke-linecap="round" stroke-linejoin="round" stroke-miterlimit="2" viewBox="0 0 32 32" xmlns="http://www.w3.org/2000/svg">
 <clipPath id="a">
  <path d="m0 0h32v32h-32z" clip-rule="evenodd"/>
 </clipPath>
 <path d="m0 0h32v32h-32z" fill="none"/>
 <g clip-path="url(#a)">
  <path d="m27 8c0-1.061-0.421-2.078-1.172-2.828-0.75-0.751-1.767-1.172-2.828-1.172h-14c-1.061 0-2.078 0.421-2.828 1.172-0.751 0.75-1.172 1.767-1.172 2.828v16c0 1.061 0.421 2.078 1.172 2.828 0.75 0.751 1.767 1.172 2.828 1.172h14c1.061 0 2.078-0.421 2.828-1.172 0.751-0.75 1.172-1.767 1.172-2.828v-16z"/>
  <path d="m23 2c0-1.105-0.895-2-2-2h-10c-1.105 0-2 0.895-2 2v28c0 1.105 0.895 2 2 2h10c1.105 0 2-0.895 2-2v-28z"/>
  <path d="m27 15c0-0.552-0.448-1-1-1h-3v4h3c0.552 0 1-0.448 1-1v-2z" fill="none" stroke="#000" stroke-width="4"/>
  <path d="m11 2h10v28h-10z" fill="#4c4c4c"/>
  <path d="m27 15c0-0.552-0.448-1-1-1h-3v4h3c0.552 0 1-0.448 1-1v-2z" fill="#5a5a5a"/>
  <path d="m25 8c0-0.53-0.211-1.039-0.586-1.414s-0.884-0.586-1.414-0.586h-14c-0.53 0-1.039 0.211-1.414 0.586s-0.586 0.884-0.586 1.414v16c0 0.53 0.211 1.039 0.586 1.414s0.884 0.586 1.414 0.586h14c0.53 0 1.039-0.211 1.414-0.586s0.586-0.884 0.586-1.414v-16z" fill="#2f2f2f"/>
  <path d="m9 8h14v16h-14z"/>
  <path d="m16 10v6h4" fill="none" stroke="#fff" stroke-linecap="butt" stroke-miterlimit="1.5" stroke-width="2"/>
 </g>
</svg>
