<?xml version="1.0" encoding="UTF-8"?>
<svg clip-rule="evenodd" fill-rule="evenodd" stroke-linejoin="round" stroke-miterlimit="2" viewBox="0 0 32 32" xmlns="http://www.w3.org/2000/svg">
 <clipPath id="a">
  <path d="m0 8e-3h32v32h-32z" clip-rule="evenodd"/>
 </clipPath>
 <path d="m0 8e-3h32v32h-32z" fill="none"/>
 <g clip-path="url(#a)">
  <path d="m16 2.008c8.837 0 16 7.164 16 16v1c0 7.18-5.82 13-13 13h-6c-7.18 0-13-5.82-13-13v-1c0-8.836 7.163-16 16-16z"/>
  <path d="m30 18.008c0-7.732-6.268-14-14-14s-14 6.268-14 14v1c0 6.075 4.925 11 11 11h6c6.075 0 11-4.925 11-11v-1z" fill="#fbc546"/>
  <path d="m9.502 18.008c0.928 0 1.817-0.368 2.473-1.024s1.025-1.546 1.025-2.474v-2.002c0-1.933-1.567-3.5-3.5-3.5h-2e-3c-0.928 0-1.817 0.369-2.473 1.025s-1.025 1.546-1.025 2.473v2.002c0 1.933 1.567 3.5 3.5 3.5z" fill="#fff"/>
  <path d="m8 12.008c0-.53.211-1.039.586-1.414s.884-.586 1.414-.586 1.039.211 1.414.586.586.884.586 1.414v2.984c0 .53-.211 1.039-.586 1.414s-.884.586-1.414.586-1.039-.211-1.414-.586-.586-.884-.586-1.414c0-.936 0-2.048 0-2.984z"/>
  <path d="m22.498 18.008c-0.928 0-1.817-0.368-2.473-1.024s-1.025-1.546-1.025-2.474v-2.002c0-1.933 1.567-3.5 3.5-3.5h2e-3c0.928 0 1.817 0.369 2.473 1.025s1.025 1.546 1.025 2.473v2.002c0 1.933-1.567 3.5-3.5 3.5z" fill="#fff"/>
  <path d="m24 12.008c0-.53-.211-1.039-.586-1.414s-.884-.586-1.414-.586-1.039.211-1.414.586-.586.884-.586 1.414v2.984c0 .53.211 1.039.586 1.414s.884.586 1.414.586 1.039-.211 1.414-.586.586-.884.586-1.414c0-.936 0-2.048 0-2.984z"/>
  <path d="m12.586 24.094c-.372-.607-.586-1.321-.586-2.086 0-2.209 1.791-4 4-4 2.209 0 4 1.791 4 4 0 .765-.214 1.479-.586 2.086-.977-.691-5.851-.691-6.828 0z" fill="#722245"/>
  <path d="m12.586 24.094c0.977-0.691 2.163-1.086 3.414-1.086s2.437 0.395 3.414 1.086c-0.703 1.148-1.969 1.914-3.414 1.914s-2.711-0.766-3.414-1.914z" fill="#ca3b8f"/>
 </g>
</svg>
