<?xml version="1.0" encoding="UTF-8"?>
<svg clip-rule="evenodd" fill-rule="evenodd" stroke-linejoin="round" stroke-miterlimit="2" viewBox="0 0 32 32" xmlns="http://www.w3.org/2000/svg">
 <clipPath id="a">
  <path d="m0 .017h32v32h-32z" clip-rule="evenodd"/>
 </clipPath>
 <path d="m0 .017h32v32h-32z" fill="none"/>
 <g clip-path="url(#a)">
  <path d="m15.263 3.019c2.717.047 5.258.816 7.438 2.124l2.01-4.021c.339-.677 1.031-1.105 1.789-1.105s1.45.428 1.789 1.105c0 0 1.757 3.514 2.942 5.884 1.017 2.034.618 4.49-.989 6.098-.001 0-.001 0-.001.001-.26.259-.543.489-.846.686.394 1.34.605 2.758.605 4.226v1.006c0 7.176-5.818 12.994-12.994 12.994h-4.012c-7.176 0-12.994-5.818-12.994-12.994v-1.006c0-8.285 6.716-15 15-15l.263.002z"/>
  <path d="m15.084 5.017c2.463 0.016 4.763 0.716 6.72 1.92 0 0 5.391 7.682 5.729 7.615 0.304 1.103 0.467 2.265 0.467 3.465v1.006c0 6.072-4.922 10.994-10.994 10.994h-4.012c-6.072 0-10.994-4.922-10.994-10.994v-1.006c0-7.18 5.82-13 13-13z" fill="#fbc546"/>
  <path d="m21.804 6.937c2.765 1.702 4.845 4.41 5.729 7.615-.338.067-.684.102-1.033.102-1.403 0-2.749-.557-3.741-1.549 0-.001 0-.001-.001-.001-1.607-1.608-2.006-4.064-.989-6.098z" fill="#e59a10"/>
  <path d="m7.447 15.911 4-2c.494-.247.694-.848.447-1.342-.246-.493-.848-.694-1.341-.447l-4 2c-.494.247-.694.848-.447 1.342.246.494.848.694 1.341.447z"/>
  <path d="m23.447 14.122-4-2c-.493-.247-1.095-.046-1.341.447-.247.494-.047 1.095.447 1.342l4 2c.493.247 1.095.047 1.341-.447.247-.494.047-1.095-.447-1.342z"/>
  <path d="m8.852 24.017h-1.234c-.347 0-.668-.18-.851-.475-.182-.294-.198-.663-.043-.973.378-.757.862-1.725 1.341-2.683 1.186-2.371 3.61-3.869 6.261-3.869h1.348c2.651 0 5.075 1.498 6.261 3.869.479.958.963 1.926 1.341 2.683.155.31.139.679-.043.973-.183.295-.504.475-.851.475h-1.234c-1.115-1.246-11.181-1.246-12.296 0z" fill="#722245"/>
  <path d="m8.852 24.017c1.115-1.246 2.727-2 4.473-2h3.35c1.746 0 3.358.754 4.473 2z" fill="#ca3b8f"/>
  <path d="m26.5 2.017s-1.757 3.514-2.942 5.884c-0.632 1.263-0.384 2.789 0.615 3.788 0 1e-3 0 1e-3 1e-3 1e-3 0.617 0.617 1.453 0.964 2.326 0.964s1.709-0.347 2.326-0.964c1e-3 0 1e-3 0 1e-3 -1e-3 0.999-0.999 1.247-2.525 0.615-3.788l-2.942-5.884z" fill="#1BB0E6"/>
 </g>
</svg>
