<?xml version="1.0" encoding="UTF-8"?>
<svg clip-rule="evenodd" fill-rule="evenodd" stroke-linejoin="round" stroke-miterlimit="2" viewBox="0 0 32 32" xmlns="http://www.w3.org/2000/svg">
 <clipPath id="a">
  <path d="m0 0h32v32h-32z" clip-rule="evenodd"/>
 </clipPath>
 <path d="m0 0h32v32h-32z" fill="none"/>
 <g clip-path="url(#a)">
  <path d="m16 2c8.837 0 16 7.163 16 16v1c0 7.18-5.82 13-13 13h-6c-7.18 0-13-5.82-13-13v-1c0-8.837 7.163-16 16-16z"/>
  <path d="m30 18c0-7.732-6.268-14-14-14s-14 6.268-14 14v1c0 6.075 4.925 11 11 11h6c6.075 0 11-4.925 11-11v-1z" fill="#fbc546"/>
  <path d="m9.502 18c0.928 0 1.817-0.369 2.473-1.025s1.025-1.545 1.025-2.473v-2.002c0-1.933-1.567-3.5-3.5-3.5h-2e-3c-0.928 0-1.817 0.369-2.473 1.025s-1.025 1.545-1.025 2.473v2.002c0 1.933 1.567 3.5 3.5 3.5z" fill="#fff"/>
  <path d="m8 13c0-.53.211-1.039.586-1.414s.884-.586 1.414-.586c1.105 0 2 .895 2 2v.983c0 .531-.211 1.039-.586 1.415-.375.375-.884.585-1.414.585-1.105 0-2-.895-2-2z"/>
  <path d="m22.498 18c-0.928 0-1.817-0.369-2.473-1.025s-1.025-1.545-1.025-2.473v-2.002c0-1.933 1.567-3.5 3.5-3.5h2e-3c0.928 0 1.817 0.369 2.473 1.025s1.025 1.545 1.025 2.473v2.002c0 1.933-1.567 3.5-3.5 3.5z" fill="#fff"/>
  <path d="m24 13c0-.53-.211-1.039-.586-1.414s-.884-.586-1.414-.586c-1.105 0-2 .895-2 2v.983c0 .531.211 1.039.586 1.415.375.375.884.585 1.414.585 1.105 0 2-.895 2-2z"/>
  <path d="m19 21.586 2.293-2.293c.39-.391 1.024-.391 1.414 0l4 4c.39.39.39 1.024 0 1.414s-1.024.39-1.414 0l-3.293-3.293-2.293 2.293c-.402.383-1.012.383-1.414 0l-2.293-2.293-2.293 2.293c-.402.383-1.012.383-1.414 0l-2.293-2.293-3.293 3.293c-.39.39-1.024.39-1.414 0s-.39-1.024 0-1.414l4-4c.39-.391 1.024-.391 1.414 0l2.293 2.293 2.293-2.293c.402-.383 1.012-.383 1.414 0z" fill="#593604"/>
 </g>
</svg>
