<?xml version="1.0" encoding="UTF-8"?>
<!DOCTYPE svg  PUBLIC '-//W3C//DTD SVG 1.1//EN'  'http://www.w3.org/Graphics/SVG/1.1/DTD/svg11.dtd'>
<svg clip-rule="evenodd" fill-rule="evenodd" stroke-linejoin="round" stroke-miterlimit="2" version="1.1" viewBox="0 0 32 32" xml:space="preserve" xmlns="http://www.w3.org/2000/svg" xmlns:serif="http://www.serif.com/">
<metadata>
<rdf:RDF xmlns:cc="http://web.resource.org/cc/" xmlns:dc="http://purl.org/dc/elements/1.1/" xmlns:rdf="http://www.w3.org/1999/02/22-rdf-syntax-ns#">

     <rdf:Description rdf:about="">
       <dc:title>Mutant Standard emoji 2023.12</dc:title>
     </rdf:Description>

    <cc:work rdf:about="">
        <cc:license rdf:resource="http://creativecommons.org/licenses/by-nc-sa/4.0/"/>
        <cc:attributionName>Caius Nocturne</cc:attributionName>
        <cc:attributionURL>http://mutant.tech/</cc:attributionURL>
    </cc:work>

</rdf:RDF>
</metadata>

    <rect id="back_of_hand--clw-" width="32" height="32" fill="none" serif:id="back_of_hand [clw]"/>
    <clipPath id="_clip1">
        <rect width="32" height="32"/>
    </clipPath>
    <g clip-path="url(#_clip1)">
        <g id="outline">
            <path d="m24 0v5.172l3.061-3.062c0.313 0.13 0.626 0.259 0.939 0.389v12.001c0 2.158 0.013 4.315 0 6.473v0.027l-1e-3 0.117c-3e-3 0.142-7e-3 0.283-0.013 0.424-0.021 0.372-0.057 0.742-0.113 1.111-0.124 0.809-0.338 1.604-0.638 2.366-0.602 1.526-1.549 2.91-2.749 4.028-1.073 0.999-2.344 1.78-3.72 2.284-0.946 0.347-1.94 0.562-2.945 0.638-0.262 0.02-0.525 0.029-0.787 0.032h-1.032-4e-3c-0.16-1e-3 -0.159-1e-3 -0.32-6e-3 -0.271-0.012-0.542-0.031-0.813-0.064-0.533-0.066-1.06-0.178-1.574-0.335-1.731-0.53-3.29-1.569-4.444-2.964-0.449-0.542-0.827-1.134-1.148-1.76l-6.359-12.719 1.753-0.935 0.162-0.078c0.15-0.069 0.301-0.135 0.455-0.193 0.353-0.134 0.718-0.237 1.089-0.307 0.977-0.185 1.994-0.139 2.951 0.13 0.425 0.119 0.834 0.283 1.227 0.484-5e-3 -2.175-3e-3 -4.349 0.024-6.524 4e-3 -0.099 4e-3 -0.098 0.01-0.198 0.023-0.261 0.064-0.519 0.135-0.772 0.13-0.471 0.348-0.917 0.639-1.31 0.115-0.156 0.242-0.302 0.378-0.44l4.009-4.009h1.828v1.172l1.172-1.172h2.828v2.172l2.172-2.172h1.828z"/>
        </g>
        <g id="emoji">
            <path d="m26 20.975c0 4.984-4.041 9.025-9.025 9.025h-0.968c-2.762 0-5.287-1.561-6.523-4.031-2.221-4.443-5.484-10.969-5.484-10.969l0.013-7e-3c1.693-0.839 3.663-0.507 4.987 0.689l0.786 2.318 1.214 1v-12.172c1e-3 -0.164 0.02-0.328 0.06-0.487 0.088-0.349 0.271-0.672 0.526-0.927l2.414-2.414v11h1v-8.172c1e-3 -0.164 0.02-0.328 0.06-0.487 0.088-0.349 0.271-0.672 0.526-0.927l2.414-2.414v13h1v-8.172c1e-3 -0.164 0.02-0.328 0.06-0.487 0.088-0.349 0.271-0.672 0.526-0.927l2.414-2.414v13h1v-6.172c1e-3 -0.164 0.02-0.328 0.06-0.487 0.088-0.349 0.271-0.672 0.526-0.927l2.414-2.414v14.975z" fill="#925ADB"/>
            <path d="m11 20c0 0.14-0.029 0.278-0.086 0.406-0.053 0.119-0.13 0.228-0.224 0.318-0.09 0.086-0.197 0.155-0.312 0.202-0.106 0.043-0.219 0.068-0.333 0.073-0.109 5e-3 -0.219-8e-3 -0.325-0.039-0.093-0.027-0.182-0.068-0.264-0.121-0.181-0.117-0.321-0.293-0.395-0.495-0.041-0.11-0.061-0.227-0.061-0.344v-4.318c0.401 0.362 0.743 0.805 1 1.318 0.551 1.101 1 2 1 2v1z" fill="#7B24CC"/>
        </g>
    </g>
</svg>
