<?xml version="1.0" encoding="UTF-8"?>
<!DOCTYPE svg  PUBLIC '-//W3C//DTD SVG 1.1//EN'  'http://www.w3.org/Graphics/SVG/1.1/DTD/svg11.dtd'>
<svg clip-rule="evenodd" fill-rule="evenodd" stroke-linecap="round" stroke-miterlimit="2" version="1.1" viewBox="0 0 32 32" xml:space="preserve" xmlns="http://www.w3.org/2000/svg" xmlns:serif="http://www.serif.com/">
<metadata>
<rdf:RDF xmlns:cc="http://web.resource.org/cc/" xmlns:dc="http://purl.org/dc/elements/1.1/" xmlns:rdf="http://www.w3.org/1999/02/22-rdf-syntax-ns#">

     <rdf:Description rdf:about="">
       <dc:title>Mutant Standard emoji 2023.12</dc:title>
     </rdf:Description>

    <cc:work rdf:about="">
        <cc:license rdf:resource="http://creativecommons.org/licenses/by-nc-sa/4.0/"/>
        <cc:attributionName>Caius Nocturne</cc:attributionName>
        <cc:attributionURL>http://mutant.tech/</cc:attributionURL>
    </cc:work>

</rdf:RDF>
</metadata>

    <rect id="clap--clw-" width="32" height="32" fill="none" serif:id="clap [clw]"/>
    <clipPath id="_clip1">
        <rect width="32" height="32"/>
    </clipPath>
    <g clip-path="url(#_clip1)">
        <g id="outline" fill="none" stroke="#000" stroke-width="6px">
            <path d="m22 5v-2"/>
            <path d="m25 7 2-2"/>
            <path d="m27 10h2"/>
            <path d="m10 27v2"/>
            <path d="m7 25-2 2"/>
            <path d="m5 22h-2"/>
        </g>
        <g id="emoji">
            
                <path d="m11.03 6.333c0.422 0 0.828 0.168 1.126 0.466l6.85 6.85s-0.253-0.758-0.563-1.688c-0.621-1.865 0.386-3.881 2.252-4.503 0 0 1.836 5.51 3.087 9.26 0.694 2.086 0.151 4.385-1.403 5.94l-0.545 0.545c-2.805 2.805-7.353 2.805-10.158 0l-8.428-8.428h2.717c0.422 0 0.827 0.168 1.126 0.466l3.473 3.473 0.563-0.562-7.316-7.317h2.717c0.422 0 0.827 0.168 1.125 0.466l4.6 4.599 0.562-0.562-7.316-7.317h2.717c0.422 0 0.828 0.168 1.126 0.466l4.599 4.599 0.563-0.562-6.191-6.191h2.717z" fill="none" stroke="#000" stroke-linecap="butt" stroke-miterlimit="3" stroke-width="4px"/>
                
                    <path d="m11.03 6.333c0.422 0 0.828 0.168 1.126 0.466l6.85 6.85s-0.253-0.758-0.563-1.688c-0.621-1.865 0.386-3.881 2.252-4.503 0 0 1.836 5.51 3.087 9.26 0.694 2.086 0.151 4.385-1.403 5.94l-0.545 0.545c-2.805 2.805-7.353 2.805-10.158 0l-8.428-8.428h2.717c0.422 0 0.827 0.168 1.126 0.466l3.473 3.473 0.563-0.562-7.316-7.317h2.717c0.422 0 0.827 0.168 1.125 0.466l4.6 4.599 0.562-0.562-7.316-7.317h2.717c0.422 0 0.828 0.168 1.126 0.466l4.599 4.599 0.563-0.562-6.191-6.191h2.717z" fill="#CE8D15"/>
                
            
            
                <path d="m14.678 9.98c0.422 0 0.827 0.168 1.125 0.466l6.851 6.851s-0.254-0.759-0.563-1.689c-0.622-1.865 0.386-3.881 2.251-4.502 0 0 1.836 5.509 3.087 9.26 0.694 2.085 0.152 4.385-1.403 5.939-0.177 0.178-0.359 0.36-0.544 0.545-2.805 2.805-7.354 2.805-10.159 0l-8.428-8.428h2.717c0.423 0 0.828 0.168 1.126 0.466l3.474 3.474 0.562-0.563-7.316-7.316h2.717c0.422 0 0.828 0.167 1.126 0.466l4.599 4.599 0.563-0.563-7.317-7.316h2.718c0.422 0 0.827 0.167 1.125 0.466l4.599 4.599 0.563-0.563-6.191-6.191h2.718z" fill="none" stroke="#000" stroke-linecap="butt" stroke-miterlimit="3" stroke-width="4px"/>
                
                    <path d="m14.678 9.98c0.422 0 0.827 0.168 1.125 0.466l6.851 6.851v-0.294l-0.396-2.182-0.346-0.517c0.072-1.422 0.998-2.721 2.43-3.198 0 0 1.836 5.509 3.087 9.26 0.694 2.085 0.152 4.385-1.403 5.939-0.177 0.178-0.359 0.36-0.544 0.545-2.805 2.805-7.354 2.805-10.159 0l-8.428-8.428h2.717c0.423 0 0.828 0.168 1.126 0.466l3.474 3.474 0.562-0.563-7.316-7.316h2.717c0.422 0 0.828 0.167 1.126 0.466l4.599 4.599 0.563-0.563-7.317-7.316h2.718c0.422 0 0.827 0.167 1.125 0.466l4.599 4.599 0.563-0.563-6.191-6.191h2.718z" fill="#FFC20B"/>
                    <clipPath id="_clip2">
                        <path d="m24.342 11.106s1.836 5.509 3.087 9.26c0.694 2.085 0.152 4.385-1.403 5.939-0.177 0.178-0.359 0.36-0.544 0.545-2.805 2.805-7.354 2.805-10.159 0-1.524-1.525-2.8-2.8-2.8-2.8l2.814-2.814-0.563-0.563 1.689-1.688-0.563-0.563 3.94-3.939 2.814 2.814s-0.254-0.759-0.563-1.689c-0.622-1.865 0.386-3.881 2.251-4.502z"/>
                    </clipPath>
                    <g clip-path="url(#_clip2)">
                        <path d="m22.654 17.297-2.252-4.503 3.94 3.94c0.311 0.31 0.311 0.815 0 1.125-0.311 0.311-0.815 0.311-1.126 0l-0.562-0.562z" fill="#CE8D15"/>
                    </g>
                
            
            <path d="m22 5v-2" fill="none" stroke="#fff" stroke-width="2px"/>
            <path d="m25 7 2-2" fill="none" stroke="#fff" stroke-width="2px"/>
            <path d="m27 10h2" fill="none" stroke="#fff" stroke-width="2px"/>
            <path d="m10 27v2" fill="none" stroke="#fff" stroke-width="2px"/>
            <path d="m7 25-2 2" fill="none" stroke="#fff" stroke-width="2px"/>
            <path d="m5 22h-2" fill="none" stroke="#fff" stroke-width="2px"/>
        </g>
    </g>
</svg>
