<?xml version="1.0" encoding="UTF-8"?>
<!DOCTYPE svg  PUBLIC '-//W3C//DTD SVG 1.1//EN'  'http://www.w3.org/Graphics/SVG/1.1/DTD/svg11.dtd'>
<svg clip-rule="evenodd" fill-rule="evenodd" stroke-linejoin="round" stroke-miterlimit="2" version="1.1" viewBox="0 0 32 32" xml:space="preserve" xmlns="http://www.w3.org/2000/svg" xmlns:serif="http://www.serif.com/">
<metadata>
<rdf:RDF xmlns:cc="http://web.resource.org/cc/" xmlns:dc="http://purl.org/dc/elements/1.1/" xmlns:rdf="http://www.w3.org/1999/02/22-rdf-syntax-ns#">

     <rdf:Description rdf:about="">
       <dc:title>Mutant Standard emoji 2023.12</dc:title>
     </rdf:Description>

    <cc:work rdf:about="">
        <cc:license rdf:resource="http://creativecommons.org/licenses/by-nc-sa/4.0/"/>
        <cc:attributionName>Caius Nocturne</cc:attributionName>
        <cc:attributionURL>http://mutant.tech/</cc:attributionURL>
    </cc:work>

</rdf:RDF>
</metadata>

    <rect id="crossed_fingers--clw-" width="32" height="32" fill="none" serif:id="crossed_fingers [clw]"/>
    <g id="outline">
        <path d="m23.526 0 1.795 1.152-1.962 7.851 1.544 6.177 0.034 0.158c0.021 0.117 0.039 0.233 0.05 0.351 0.01 0.114 9e-3 0.157 0.013 0.28v0.803c0.077 0.044 0.076 0.045 0.156 0.095l0.117 0.077c0.188 0.135 0.368 0.278 0.533 0.441 0.489 0.482 0.85 1.088 1.039 1.748 0.091 0.315 0.136 0.635 0.153 0.962 0.016 0.909 7e-3 1.818 1e-3 2.728-5e-3 0.306-0.022 0.612-0.056 0.917-0.076 0.678-0.227 1.348-0.45 1.994-0.271 0.787-0.648 1.536-1.118 2.223-0.411 0.6-0.892 1.151-1.431 1.639-1.324 1.199-2.989 1.999-4.752 2.285-0.377 0.061-0.757 0.098-1.139 0.113-0.085 3e-3 -0.17 5e-3 -0.256 6e-3h-0.777-1e-3c-1.108-1e-3 -2.214-0.167-3.272-0.496-1.066-0.332-2.08-0.827-2.997-1.463-1.86-1.29-3.302-3.149-4.08-5.275-0.299-0.815-0.5-1.665-0.598-2.527-0.043-0.373-0.064-0.747-0.071-1.122-6e-3 -0.865-5e-3 -1.73-4e-3 -2.595-6e-3 -2.037-0.021-4.073 4e-3 -6.109 0.015-0.402 0.088-0.797 0.234-1.173 0.363-0.942 1.134-1.695 2.085-2.035 0.353-0.127 0.72-0.19 1.093-0.204 0.087-1e-3 0.087-1e-3 0.174 0 0.402 0.015 0.797 0.088 1.173 0.234 0.019 7e-3 0.038 0.014 0.056 0.022 0.397-0.473 0.916-0.842 1.504-1.052 0.352-0.126 0.72-0.19 1.093-0.204 0.087-1e-3 0.087-1e-3 0.174 0 0.402 0.015 0.797 0.088 1.173 0.234 0.482 0.185 0.92 0.478 1.276 0.852 0.018 0.019 0.036 0.039 0.053 0.058l0.038-0.15c-0.15-0.611-0.298-1.221-0.443-1.833-0.02-0.093-0.02-0.093-0.037-0.187-0.041-0.249-0.064-0.499-0.06-0.751 7e-3 -0.471 0.098-0.939 0.267-1.378 0.067-0.173 0.147-0.341 0.236-0.504l2.43-4.342h2.588l0.358 1.431 1.788-1.431h0.272z"/>
    </g>
    <g id="emoji">
        <path d="m18.792 6.655c0.033-0.132 0.079-0.26 0.138-0.383 0.13-0.269 0.32-0.507 0.553-0.694 0.552-0.442 1.657-1.326 1.657-1.326l0.616 0.938 0.056 1.751-1.014 4.059 2.202 4.999v2.001 8l-6-2-7-2.226-2-3.371v-5.903c1.293 0 1.5-0.207 1.5-1.5h8.206l1.086-4.345z" fill="#003A6D"/>
        <path d="m14.108 17.27 3.096-0.27 5.034 0.238 0.762 0.762 0.894 0.447c0.678 0.339 1.106 1.032 1.106 1.789v2.471c0 1.934-0.768 3.789-2.136 5.157s-3.223 2.136-5.157 2.136h-0.682c-4.984 0-9.025-4.041-9.025-9.025v-2.572c0.055 0.063 0.112 0.124 0.172 0.183l3.828 3.828v-3l2.783 2.783 1.019 1.624 0.347-0.23 0.351-0.789-0.5-2.254c-0.593-0.545-1.071-1.225-1.383-2.005l-0.509-1.273z" fill="#09A4E7"/>
        <path d="m12.523 16 1.166 2.914c0.31 0.776 0.759 1.467 1.311 2.051v0.035l-2.414-2.414c-0.375-0.375-0.586-0.884-0.586-1.414v-5.672c0-0.398 0.158-0.779 0.439-1.061 0.282-0.281 0.663-0.439 1.061-0.439s0.779 0.158 1.061 0.439c0.281 0.282 0.439 0.663 0.439 1.061v4.5h-2.477zm-3.053-5c0.845 0 1.53 0.685 1.53 1.53v7.47l-2.121-2.121c-0.563-0.563-0.879-1.326-0.879-2.122v-3.289c0-0.389 0.155-0.763 0.43-1.038s0.649-0.43 1.038-0.43h2e-3zm9.452 5h-2.466c0.408-1.635 0.817-3.269 1.225-4.904l1.241 4.904zm4.078 0h-3.046l-0.67-2.681 1.411-0.751 1.499 0.024 0.761 3.044c0.018 0.079 0.024 0.099 0.034 0.18s8e-3 0.102 0.011 0.183v1e-3zm-3.841-7.424-1.118-0.227-0.395-1.579c-0.123-0.495-0.053-1.018 0.195-1.462 0.616-1.101 1.75-3.128 1.75-3.128l1.361 5.442-0.769 0.69 1.011 0.28 0.758 3.03-1.452 0.698-1.459 0.029-0.757-3.03 0.875-0.743zm2.653-1.635-0.672-2.689 1.681-1.344-1.009 4.033z" fill="#09A4E7"/>
        <path d="m16 20.134c0.281-0.162 0.636-0.184 0.947-0.028 0.494 0.246 0.694 0.848 0.447 1.341l-2 4c-0.246 0.494-0.848 0.694-1.341 0.447-0.494-0.246-0.694-0.848-0.447-1.341l1.177-2.356 1.217 1.217v-3.28z" fill="#0072CF"/>
        <path d="m23 18h-7.523l0.069 0.171c0.683 1.709 2.338 2.829 4.178 2.829h0.69l2.293 2.293-1.414 1.414-1.709-1.709c-2.601-0.055-4.926-1.659-5.895-4.084l-1.166-2.914h10.477v2z" fill="#003A6D"/>
        <path d="m22.194 12.592-2.91 0.727-0.243-0.97 2.911-0.727 0.242 0.97zm-1-4-2.91 0.727-0.243-0.97 2.911-0.727 0.242 0.97z" fill="#0072CF"/>
    </g>
</svg>
