<?xml version="1.0" encoding="UTF-8"?>
<!DOCTYPE svg  PUBLIC '-//W3C//DTD SVG 1.1//EN'  'http://www.w3.org/Graphics/SVG/1.1/DTD/svg11.dtd'>
<svg clip-rule="evenodd" fill-rule="evenodd" stroke-linejoin="round" stroke-miterlimit="2" version="1.1" viewBox="0 0 32 32" xml:space="preserve" xmlns="http://www.w3.org/2000/svg" xmlns:serif="http://www.serif.com/">
<metadata>
<rdf:RDF xmlns:cc="http://web.resource.org/cc/" xmlns:dc="http://purl.org/dc/elements/1.1/" xmlns:rdf="http://www.w3.org/1999/02/22-rdf-syntax-ns#">

     <rdf:Description rdf:about="">
       <dc:title>Mutant Standard emoji 2023.12</dc:title>
     </rdf:Description>

    <cc:work rdf:about="">
        <cc:license rdf:resource="http://creativecommons.org/licenses/by-nc-sa/4.0/"/>
        <cc:attributionName>Caius Nocturne</cc:attributionName>
        <cc:attributionURL>http://mutant.tech/</cc:attributionURL>
    </cc:work>

</rdf:RDF>
</metadata>

    <rect id="fist_facing_left--clw-" width="32" height="32" fill="none" serif:id="fist_facing_left [clw]"/>
    <clipPath id="_clip1">
        <rect width="32" height="32"/>
    </clipPath>
    <g clip-path="url(#_clip1)">
        <g id="outline">
            <path d="m30 8c1.105 0 2 0.895 2 2v6c0 1.105-0.895 2-2 2h-5.24l-6.726 5.979c-1.465 1.302-3.356 2.021-5.315 2.021h-5.719c-1.061 0-2.078-0.421-2.828-1.172-0.751-0.75-1.172-1.767-1.172-2.828v-0.128c-0.686-0.176-1.319-0.534-1.828-1.044-0.751-0.75-1.172-1.767-1.172-2.828v-6c0-1.061 0.421-2.078 1.172-2.828 0.75-0.751 1.767-1.172 2.828-1.172h26z"/>
        </g>
        <g id="emoji">
            <path d="m4 20c-0.246-2e-3 -0.49-0.045-0.72-0.134-0.175-0.068-0.34-0.16-0.49-0.273-0.493-0.375-0.79-0.973-0.79-1.593v-6c0-0.62 0.297-1.218 0.79-1.593 0.15-0.113 0.315-0.205 0.49-0.273 0.23-0.089 0.474-0.132 0.72-0.134h21l1 1v4l-1 1h-1l-7.579 6.737c-0.285 0.252-0.596 0.472-0.93 0.653-0.724 0.395-1.539 0.603-2.363 0.61h-6.13c-0.246-2e-3 -0.49-0.045-0.719-0.134-0.569-0.22-1.015-0.699-1.193-1.283-0.057-0.189-0.086-0.386-0.086-0.583l1-1-1-1h-1z" fill="#6A4E35"/>
            <path d="m11.791 15c-0.365 0-0.725 0.085-1.051 0.248-1.149 0.574-3.293 1.646-3.293 1.646l-0.894-1.788s2.144-1.072 3.292-1.647c0.604-0.302 1.271-0.459 1.946-0.459h4.209l0.707 1.707-6.414 6.414c-0.563 0.563-1.326 0.879-2.121 0.879h-3.172v-2h3.172c0.177-4e-3 0.351-0.05 0.504-0.14 0.074-0.043 0.141-0.095 0.203-0.153l4.707-4.707h-1.795z" fill="#2B1B11"/>
            <rect x="25" y="10" width="5" height="6" fill="#553720"/>
        </g>
    </g>
</svg>
