<?xml version="1.0" encoding="UTF-8"?>
<!DOCTYPE svg  PUBLIC '-//W3C//DTD SVG 1.1//EN'  'http://www.w3.org/Graphics/SVG/1.1/DTD/svg11.dtd'>
<svg clip-rule="evenodd" fill-rule="evenodd" stroke-linejoin="round" stroke-miterlimit="2" version="1.1" viewBox="0 0 32 32" xml:space="preserve" xmlns="http://www.w3.org/2000/svg" xmlns:serif="http://www.serif.com/">
<metadata>
<rdf:RDF xmlns:cc="http://web.resource.org/cc/" xmlns:dc="http://purl.org/dc/elements/1.1/" xmlns:rdf="http://www.w3.org/1999/02/22-rdf-syntax-ns#">

     <rdf:Description rdf:about="">
       <dc:title>Mutant Standard emoji 2023.12</dc:title>
     </rdf:Description>

    <cc:work rdf:about="">
        <cc:license rdf:resource="http://creativecommons.org/licenses/by-nc-sa/4.0/"/>
        <cc:attributionName>Caius Nocturne</cc:attributionName>
        <cc:attributionURL>http://mutant.tech/</cc:attributionURL>
    </cc:work>

</rdf:RDF>
</metadata>

    <rect id="fist--clw-" width="32" height="32" fill="none" serif:id="fist [clw]"/>
    <g id="outline">
        <path d="m8.401 3.253c0.222-0.458 0.532-0.872 0.908-1.214 0.406-0.369 0.888-0.653 1.407-0.829 0.41-0.138 0.837-0.204 1.269-0.21 0.04 0 0.08 1e-3 0.119 1e-3 0.136 5e-3 0.27 0.014 0.405 0.031 0.328 0.042 0.651 0.124 0.959 0.246 0.373 0.147 0.722 0.35 1.034 0.6 0.336-0.269 0.715-0.486 1.123-0.635 0.41-0.15 0.837-0.225 1.273-0.242 0.102-1e-3 0.102-1e-3 0.204 0 0.136 5e-3 0.27 0.014 0.405 0.031 0.329 0.042 0.652 0.124 0.96 0.246 0.373 0.147 0.722 0.35 1.034 0.601 0.311-0.25 0.658-0.454 1.032-0.601 0.308-0.122 0.631-0.204 0.96-0.246 0.135-0.017 0.269-0.026 0.405-0.031 0.102-1e-3 0.102-1e-3 0.204 0 0.136 5e-3 0.27 0.014 0.405 0.031 0.329 0.042 0.652 0.124 0.96 0.246 0.569 0.224 1.083 0.58 1.494 1.032 0.369 0.406 0.653 0.888 0.829 1.408 0.138 0.41 0.205 0.837 0.21 1.27v6.012 1.558c0.114 0.038 0.228 0.076 0.341 0.115 0.075 0.027 0.149 0.056 0.223 0.087 0.432 0.189 0.83 0.442 1.174 0.765 0.583 0.548 0.994 1.269 1.167 2.05 0.058 0.259 0.086 0.521 0.094 0.786 0.013 1.264 8e-3 2.529 0 3.794-9e-3 0.458-0.037 0.916-0.095 1.371-0.113 0.887-0.325 1.761-0.633 2.6-0.499 1.363-1.248 2.631-2.198 3.728-1.039 1.2-2.317 2.191-3.739 2.898-1.013 0.503-2.098 0.862-3.212 1.061-0.996 0.178-2.01 0.223-3.019 0.159-1.05-0.067-2.092-0.252-3.1-0.551-1.306-0.389-2.554-0.971-3.692-1.72-1.31-0.862-2.473-1.945-3.427-3.189-0.86-1.121-1.548-2.372-2.034-3.698-0.379-1.035-0.634-2.114-0.759-3.209-0.054-0.473-0.081-0.948-0.09-1.425-9e-3 -1.522-6e-3 -3.044-3e-3 -4.567-7e-3 -2.238-0.025-4.477 3e-3 -6.715 0.017-0.436 0.092-0.863 0.242-1.274 0.39-1.064 1.235-1.93 2.29-2.346 0.308-0.121 0.631-0.204 0.96-0.246 0.135-0.017 0.269-0.026 0.405-0.031 0.102-1e-3 0.102-1e-3 0.204 0 0.136 5e-3 0.27 0.014 0.405 0.031 0.305 0.039 0.606 0.113 0.894 0.221z"/>
    </g>
    <g id="emoji">
        <path d="m17 30c-3.183 0-6.235-1.264-8.485-3.515-2.251-2.25-3.515-5.302-3.515-8.485v-2.623l10-2.377h8l1 1s0.841 0.28 1.632 0.544c0.817 0.272 1.368 1.037 1.368 1.898v3.558c0 5.523-4.477 10-10 10z" fill="#00E2D7"/>
        <path d="m14.356 18.053-2.25 4.5c-0.247 0.493-0.047 1.095 0.447 1.341 0.493 0.247 1.095 0.047 1.341-0.447l2.25-4.5c0.247-0.493 0.047-1.095-0.447-1.341-0.493-0.247-1.095-0.047-1.341 0.447z" fill="#00A6AF"/>
        <path d="m24 12-1 1h-11l1.065 2.13c0.471 0.942 1.137 1.746 1.935 2.373v3.911l-5-5v4.001l-4.829-4.829-0.171-0.209v-7.377c2.457 0 2-0.616 2-3h17v7z" fill="#005766"/>
        <path d="m10 5c0-1.105 0.895-2 2-2s2 0.895 2 2v14l-3.414-3.414c-0.375-0.375-0.586-0.884-0.586-1.414v-9.172zm-5 2c0-0.53 0.211-1.039 0.586-1.414s0.884-0.586 1.414-0.586c1.105 0 2 0.895 2 2v11.001s-1.944-1.945-3.122-3.122c-0.562-0.563-0.878-1.326-0.878-2.121v-5.758zm17.002-4c1.103 0 1.998 0.895 1.998 1.998v7.002l-1 1h-3v-8.002c0-1.103 0.895-1.998 1.998-1.998h4e-3zm-4.987 0c0.222 2e-3 0.442 0.039 0.651 0.113 0.281 0.099 0.538 0.262 0.749 0.472 0.21 0.211 0.373 0.468 0.472 0.749 0.075 0.213 0.112 0.438 0.113 0.664v8.002h-4v-8.002c0-1.103 0.895-1.998 1.998-1.998h0.017z" fill="#00E2D7"/>
        <path d="m24 14h-10.382l0.342 0.683c1.016 2.033 3.094 3.317 5.366 3.317h1.079l3.2 3.1-1.392 1.436-2.618-2.536h-0.269c-3.03 0-5.8-1.712-7.155-4.422l-1.789-3.578h13.618v2z" fill="#005766"/>
    </g>
</svg>
