<?xml version="1.0" encoding="UTF-8"?>
<!DOCTYPE svg  PUBLIC '-//W3C//DTD SVG 1.1//EN'  'http://www.w3.org/Graphics/SVG/1.1/DTD/svg11.dtd'>
<svg clip-rule="evenodd" fill-rule="evenodd" stroke-linejoin="round" stroke-miterlimit="2" version="1.1" viewBox="0 0 32 32" xml:space="preserve" xmlns="http://www.w3.org/2000/svg" xmlns:serif="http://www.serif.com/">
<metadata>
<rdf:RDF xmlns:cc="http://web.resource.org/cc/" xmlns:dc="http://purl.org/dc/elements/1.1/" xmlns:rdf="http://www.w3.org/1999/02/22-rdf-syntax-ns#">

     <rdf:Description rdf:about="">
       <dc:title>Mutant Standard emoji 2023.12</dc:title>
     </rdf:Description>

    <cc:work rdf:about="">
        <cc:license rdf:resource="http://creativecommons.org/licenses/by-nc-sa/4.0/"/>
        <cc:attributionName>Caius Nocturne</cc:attributionName>
        <cc:attributionURL>http://mutant.tech/</cc:attributionURL>
    </cc:work>

</rdf:RDF>
</metadata>

    <rect id="hand--clw-" width="32" height="32" fill="none" serif:id="hand [clw]"/>
    <clipPath id="_clip1">
        <rect width="32" height="32"/>
    </clipPath>
    <g clip-path="url(#_clip1)">
        <g id="Layer1">
            <path d="m20.597 0 1.403 0.581v11.419 1.868c0.085-0.05 0.172-0.096 0.259-0.142 0.083-0.042 0.166-0.083 0.251-0.123 0.368-0.168 0.747-0.306 1.14-0.405 0.518-0.131 1.048-0.194 1.582-0.198h5.004l-6.935 13.871c-0.073 0.143-0.073 0.142-0.149 0.284-0.106 0.19-0.215 0.378-0.332 0.562-0.261 0.408-0.554 0.796-0.876 1.158-1.165 1.313-2.701 2.281-4.389 2.765-0.517 0.148-1.047 0.252-1.582 0.308-0.271 0.029-0.543 0.043-0.816 0.051l-0.214 1e-3h-0.888l-0.172-1e-3c-0.375-7e-3 -0.749-0.028-1.122-0.071-0.862-0.098-1.712-0.299-2.527-0.598-1.584-0.579-3.026-1.528-4.19-2.748-1.072-1.126-1.904-2.477-2.42-3.943-0.273-0.776-0.459-1.583-0.552-2.4-0.043-0.373-0.064-0.747-0.071-1.122l-1e-3 -0.136v-2.983c-0.064-2.756-0.033-5.513 1e-3 -8.269 0.01-0.263 0.039-0.523 0.097-0.78 0.115-0.509 0.329-0.994 0.629-1.421 0.131-0.185 0.278-0.357 0.436-0.519l4.133-4.134 0.707 0.293 3.169-3.168h0.425l1.403 0.581v0.591l1.172-1.172h2.828v2.172l2.172-2.172h0.425z"/>
        </g>
        <g id="Layer11" serif:id="Layer1">
            <path d="m14.993 30h-0.968c-4.984 0-9.025-4.041-9.025-9.025v-4.975l0.5-0.5-0.5-0.5v-4l0.5-0.5-0.5-0.5v-0.172c0-0.53 0.211-1.039 0.586-1.414l2.414-2.414v4l-0.5 0.5 0.5 0.5v4l-0.5 0.5 0.5 0.5h1v-1l0.5-0.5-0.5-0.5v-4l0.5-0.5-0.5-0.5v-2.172c0-0.53 0.211-1.039 0.586-1.414l2.414-2.414v6l-0.5 0.5 0.5 0.5v4l-0.5 0.5 0.5 0.5h1v-1l0.5-0.5-0.5-0.5v-5l0.5-0.5-0.5-0.5v-1.172c0-0.53 0.211-1.039 0.586-1.414l2.414-2.414v5l-0.5 0.5 0.5 0.5v5l-0.5 0.5 0.5 0.5h1l0.5-0.5-0.5-0.5v-5l0.5-0.5-0.5-0.5v-0.172c0-0.53 0.211-1.039 0.586-1.414l2.414-2.414v4l-0.5 0.5 0.5 0.5v5l-0.5 0.5 0.5 0.5v0.528l-0.321 3.472 0.321 1 1.657-2.209c0.223-0.295 0.48-0.564 0.768-0.796 0.535-0.433 1.17-0.739 1.842-0.888 0.319-0.071 0.645-0.106 0.972-0.107h1.761l-5.484 10.969c-0.298 0.588-0.668 1.136-1.11 1.625-0.937 1.039-2.172 1.795-3.524 2.157-0.595 0.16-1.208 0.241-1.824 0.249h-0.065z" fill="#CBB39C"/>
            <path d="m20 19-1.195 2.39c-0.328-0.186-0.654-0.375-0.984-0.558-0.064-0.033-0.128-0.064-0.194-0.094-0.285-0.122-0.583-0.203-0.892-0.23-0.789-0.069-1.586 0.205-2.165 0.746-0.227 0.212-0.413 0.461-0.562 0.733-0.421 0.815-0.822 1.64-1.232 2.46-0.07 0.131-0.158 0.246-0.275 0.338-0.099 0.078-0.212 0.137-0.333 0.173-0.1 0.03-0.205 0.044-0.31 0.042-0.339-8e-3 -0.658-0.194-0.833-0.484-0.054-0.09-0.094-0.188-0.117-0.29-0.033-0.143-0.035-0.293-4e-3 -0.437 0.014-0.062 0.034-0.12 0.057-0.179 0.384-0.832 0.818-1.64 1.227-2.459 0.094-0.181 0.194-0.357 0.307-0.526 0.227-0.337 0.497-0.646 0.8-0.915 0.426-0.378 0.919-0.679 1.45-0.886 1.004-0.39 2.134-0.434 3.163-0.113l2.092-4.183v4.472z" fill="#B58D71"/>
            <path d="m8 15v1h-3v-1h3zm4-1v1h-3v-1h3zm8-1v1h-3v-1h3zm-4 0v1h-3v-1h3zm-8-3v1h-3v-1h3zm4-1v1h-3v-1h3zm8-2v1h-3v-1h3zm-4 0v1h-3v-1h3z" fill="#B58D71"/>
        </g>
    </g>
</svg>
