<?xml version="1.0" encoding="UTF-8"?>
<!DOCTYPE svg  PUBLIC '-//W3C//DTD SVG 1.1//EN'  'http://www.w3.org/Graphics/SVG/1.1/DTD/svg11.dtd'>
<svg clip-rule="evenodd" fill-rule="evenodd" stroke-miterlimit="2" version="1.1" viewBox="0 0 32 32" xml:space="preserve" xmlns="http://www.w3.org/2000/svg" xmlns:serif="http://www.serif.com/">
<metadata>
<rdf:RDF xmlns:cc="http://web.resource.org/cc/" xmlns:dc="http://purl.org/dc/elements/1.1/" xmlns:rdf="http://www.w3.org/1999/02/22-rdf-syntax-ns#">

     <rdf:Description rdf:about="">
       <dc:title>Mutant Standard emoji 2023.12</dc:title>
     </rdf:Description>

    <cc:work rdf:about="">
        <cc:license rdf:resource="http://creativecommons.org/licenses/by-nc-sa/4.0/"/>
        <cc:attributionName>Caius Nocturne</cc:attributionName>
        <cc:attributionURL>http://mutant.tech/</cc:attributionURL>
    </cc:work>

</rdf:RDF>
</metadata>

    <rect id="handshake--clw-" width="32" height="32" fill="none" serif:id="handshake [clw]"/>
    <clipPath id="_clip1">
        <rect width="32" height="32"/>
    </clipPath>
    <g clip-path="url(#_clip1)">
        <g id="outline" fill="none" stroke="#000" stroke-width="4px">
            <path d="m4.344 19.344c-0.228-0.228-0.491-0.418-0.779-0.562-0.589-0.294-1.565-0.782-1.565-0.782v-9.489l5 2.489h10.886c0.378 0 0.724 0.213 0.894 0.551 0.917 1.825 3.864 7.685 4.997 9.94 0.12 0.237 0.14 0.512 0.056 0.764s-0.264 0.461-0.502 0.579c-1.811 0.906-5.943 2.972-8.397 4.199-1.155 0.577-2.55 0.351-3.463-0.562l-7.127-7.127z"/>
            <path d="m30 18v-10l-10 5h-6.537l-2.963 3 0.501 0.501c0.398 0.398 0.937 0.621 1.499 0.621s1.101-0.223 1.499-0.621l0.501-0.501h2.5l5.581 5.581c0.376 0.376 0.886 0.586 1.417 0.585 0.532-1e-3 1.042-0.213 1.416-0.591 0.109-0.109 0.21-0.211 0.296-0.297 0.186-0.188 0.29-0.441 0.29-0.705v-0.573l4-2z"/>
        </g>
        <g id="emoji">
            <path d="m4.233 19.233c-0.154-0.154-0.333-0.282-0.528-0.379-0.556-0.275-1.705-0.843-1.705-0.843v-9.5l5 2.489h10.886c0.378 0 0.724 0.213 0.894 0.551 0.917 1.825 3.864 7.685 4.997 9.94 0.12 0.237 0.14 0.512 0.056 0.764s-0.264 0.461-0.502 0.579c-1.811 0.906-5.943 2.972-8.397 4.199-1.155 0.577-2.55 0.351-3.463-0.562l-7.238-7.238z" fill="#00E2D7"/>
            <clipPath id="_clip2">
                <path d="m4.233 19.233c-0.154-0.154-0.333-0.282-0.528-0.379-0.556-0.275-1.705-0.843-1.705-0.843v-9.5l5 2.489h10.886c0.378 0 0.724 0.213 0.894 0.551 0.917 1.825 3.864 7.685 4.997 9.94 0.12 0.237 0.14 0.512 0.056 0.764s-0.264 0.461-0.502 0.579c-1.811 0.906-5.943 2.972-8.397 4.199-1.155 0.577-2.55 0.351-3.463-0.562l-7.238-7.238z"/>
            </clipPath>
            <g clip-path="url(#_clip2)">
                <path d="m8 25 10-5 5 5-10 5-5-5z" fill="none"/>
                <clipPath id="_clip3">
                    <path d="m8 25 10-5 5 5-10 5-5-5z"/>
                </clipPath>
                <g clip-path="url(#_clip3)" fill="none" stroke="#005766" stroke-width="2px">
                    <path d="m20 27-7-7"/>
                    <path d="m17 29-7-7"/>
                </g>
                <path d="m12.622 19h-3.122l-1.42-3.408 4.09-4.127 7.362 0.033 12.468-6.234v13.972l-4.085 2.042c-0.127 0.529-0.397 1.017-0.786 1.409-0.086 0.086-0.187 0.188-0.295 0.297-0.75 0.755-1.768 1.18-2.832 1.182-1.063 2e-3 -2.084-0.419-2.836-1.171l-4.994-4.995h-0.861c-0.745 0.643-1.699 1-2.689 1zm17.378-1v-9.5l-10 5-7-0.031-3.5 3.531h3.122c0.562 0 1.101-0.223 1.499-0.621l0.379-0.379h2.5l5.581 5.581c0.376 0.376 0.886 0.586 1.417 0.585 0.532-1e-3 1.042-0.213 1.416-0.591 0.109-0.109 0.21-0.211 0.296-0.297 0.186-0.188 0.29-0.441 0.29-0.705v-0.573l4-2z"/>
            </g>
            <path d="m30 18v-10l-10 5h-6.537l-3.938 4h3.097c0.562 0 1.101-0.223 1.499-0.621l0.379-0.379h2.5l5.581 5.581c0.376 0.376 0.886 0.586 1.417 0.585 0.532-1e-3 1.042-0.213 1.416-0.591 0.109-0.109 0.21-0.211 0.296-0.297 0.186-0.188 0.29-0.441 0.29-0.705v-0.573l4-2z" fill="#00E2D7"/>
            <clipPath id="_clip4">
                <path d="m30 18v-10l-10 5h-6.537l-3.938 4h3.097c0.562 0 1.101-0.223 1.499-0.621l0.379-0.379h2.5l5.581 5.581c0.376 0.376 0.886 0.586 1.417 0.585 0.532-1e-3 1.042-0.213 1.416-0.591 0.109-0.109 0.21-0.211 0.296-0.297 0.186-0.188 0.29-0.441 0.29-0.705v-0.573l4-2z"/>
            </clipPath>
            <g clip-path="url(#_clip4)" fill="none" stroke="#00A6AF">
                <path d="m18 18.5h2.257c0.796 0 1.559-0.316 2.122-0.879l1.621-1.621" stroke-width="2px"/>
                <path d="m14.5 17.5v-2c0-0.53-0.211-1.039-0.586-1.414s-0.884-0.586-1.414-0.586h-2" stroke-linecap="round" stroke-linejoin="round" stroke-miterlimit="1.5" stroke-width="1px"/>
            </g>
        </g>
    </g>
</svg>
