<?xml version="1.0" encoding="UTF-8"?>
<!DOCTYPE svg  PUBLIC '-//W3C//DTD SVG 1.1//EN'  'http://www.w3.org/Graphics/SVG/1.1/DTD/svg11.dtd'>
<svg clip-rule="evenodd" fill-rule="evenodd" stroke-linejoin="round" stroke-miterlimit="2" version="1.1" viewBox="0 0 32 32" xml:space="preserve" xmlns="http://www.w3.org/2000/svg" xmlns:serif="http://www.serif.com/">
<metadata>
<rdf:RDF xmlns:cc="http://web.resource.org/cc/" xmlns:dc="http://purl.org/dc/elements/1.1/" xmlns:rdf="http://www.w3.org/1999/02/22-rdf-syntax-ns#">

     <rdf:Description rdf:about="">
       <dc:title>Mutant Standard emoji 2023.12</dc:title>
     </rdf:Description>

    <cc:work rdf:about="">
        <cc:license rdf:resource="http://creativecommons.org/licenses/by-nc-sa/4.0/"/>
        <cc:attributionName>Caius Nocturne</cc:attributionName>
        <cc:attributionURL>http://mutant.tech/</cc:attributionURL>
    </cc:work>

</rdf:RDF>
</metadata>

    <rect id="hand_splayed--clw-" width="32" height="32" fill="none" serif:id="hand_splayed [clw]"/>
    <clipPath id="_clip1">
        <rect width="32" height="32"/>
    </clipPath>
    <g clip-path="url(#_clip1)">
        <g id="outline">
            <path d="m4.825 5c0.16-0.453 0.402-0.88 0.721-1.256l3.17-3.744h1.392l1.018 4.073c0.179-0.677 0.526-1.3 1.016-1.801 0.194-0.199 0.409-0.374 0.639-0.53l2.613-1.742h2.606v4.315c0.354-0.57 0.834-1.039 1.412-1.379l3.922-2.269 2.317 1.158-3.651 14.602v0.462l0.053-0.057c1.444-1.562 3.599-2.257 5.684-1.833 1.293 0.263 3.263 0.663 3.263 0.663l0.828 2.838s-7.207 7.208-10.778 10.778c-1.743 1.743-4.106 2.722-6.571 2.722h-0.454c-2.924 0-5.728-1.162-7.796-3.229-2.067-2.068-3.229-4.872-3.229-7.796v-1.975h-0.022l-2.166-6.497c-0.099-0.3-0.164-0.61-0.191-0.924-0.048-0.56 0.024-1.128 0.209-1.658 0.089-0.256 0.205-0.501 0.343-0.734l2.5-4.187h1.152z"/>
        </g>
        <g id="emoji">
            <path d="m16 14h1.453l0.323-1.291 1.641 0.029 1.269 0.699-0.686 2.744v2.405l-0.18 1.891 1.15-0.033c0.284 9e-3 0.564-0.104 0.764-0.321 0.58-0.627 1.222-1.321 1.787-1.933 0.97-1.049 2.417-1.516 3.817-1.231 1.293 0.263 2.662 0.541 2.662 0.541l-10.364 10.364c-1.368 1.368-3.223 2.136-5.157 2.136h-0.454c-4.984 0-9.025-4.041-9.025-9.025v-2.232l-0.624-1.872 1.019-0.911 1.692-0.444 0.161 0.484h1.706l-0.699-2.798 1.485-0.714 1.425-0.014 0.631 2.526h1.204v-3l1.44-0.378 1.56 0.378v2zm-9.233 0.557-1.408 1.03-1.302 0.326-0.967-2.899 1.231-0.976 1.48-0.379 0.966 2.898zm14.919-5.12-0.757 3.03-1.528 0.035-1.383-0.763 0.758-3.03 1.505 0.028 1.405 0.7zm-10.764 2.067-1.343 0.69-1.567 0.038-0.757-3.03 1.381-0.795 1.529 0.067 0.757 3.03zm-5.441-0.804-1.256 1.048-1.454 0.308-0.062-0.186c-0.184-0.552-0.118-1.158 0.181-1.658 0.599-1.003 1.559-2.61 1.559-2.61l1.032 3.098zm10.519 0.3-1.473 0.284-1.527-0.284v-3l1.676-0.449 1.324 0.449v3zm5.929-2.533-1.653 3e-3 -1.258-0.731 0.457-1.826c0.039-0.154 0.095-0.304 0.17-0.445 0.174-0.333 0.443-0.613 0.769-0.801 0.96-0.556 1.921-1.111 2.881-1.667l-1.366 5.467zm-12.007-0.963-1.436 0.729-1.474-1e-3 -0.354-1.418c-0.043-0.174-0.064-0.352-0.06-0.531 0.011-0.455 0.18-0.9 0.474-1.247 0.575-0.679 1.15-1.357 1.724-2.036l1.126 4.504zm6.078-0.504-1.442 0.449-1.558-0.449v-1.93c0-0.498 0.19-0.984 0.526-1.351 0.109-0.118 0.231-0.224 0.365-0.313 0.703-0.469 1.406-0.937 2.109-1.406v5z" fill="#6DD349"/>
            <path d="m7.087 15.516-2.711 1.355-0.319-0.958 2.71-1.356 0.32 0.959zm13.842-3.049-0.243 0.97-2.91-0.728 0.242-0.97 2.911 0.728zm-9.764 7e-3 -2.91 0.728-0.243-0.97 2.91-0.728 0.243 0.97zm-5.364-0.815-2.711 1.355-0.319-0.958 2.71-1.356 0.32 0.959zm10.199 0.341h-3v-1h3v1zm5.929-3.533-0.243 0.97-2.91-0.728 0.242-0.97 2.911 0.728zm-11.764 7e-3 -2.91 0.728-0.243-0.97 2.91-0.728 0.243 0.97zm2.835-0.474v-1h3v1h-3z" fill="#2EA82C" fill-rule="nonzero"/>
            <path d="m20 18.586v0.859c0 0.411 0.252 0.781 0.636 0.931 0.108 0.043 0.221 0.065 0.334 0.068l-2.47 2.47-0.708-0.708c-0.475-0.475-1.12-0.742-1.792-0.742s-1.317 0.267-1.792 0.742l-2.001 2.001c-0.39 0.39-1.024 0.39-1.414 0s-0.39-1.024 0-1.414l2.001-2.001c0.85-0.85 2.004-1.328 3.206-1.328 0.864 0 1.702 0.246 2.421 0.7l1.579-1.578z" fill="#2EA82C"/>
        </g>
    </g>
</svg>
