<?xml version="1.0" encoding="UTF-8"?>
<!DOCTYPE svg  PUBLIC '-//W3C//DTD SVG 1.1//EN'  'http://www.w3.org/Graphics/SVG/1.1/DTD/svg11.dtd'>
<svg clip-rule="evenodd" fill-rule="evenodd" stroke-linejoin="round" stroke-miterlimit="2" version="1.1" viewBox="0 0 32 32" xml:space="preserve" xmlns="http://www.w3.org/2000/svg" xmlns:serif="http://www.serif.com/">
<metadata>
<rdf:RDF xmlns:cc="http://web.resource.org/cc/" xmlns:dc="http://purl.org/dc/elements/1.1/" xmlns:rdf="http://www.w3.org/1999/02/22-rdf-syntax-ns#">

     <rdf:Description rdf:about="">
       <dc:title>Mutant Standard emoji 2023.12</dc:title>
     </rdf:Description>

    <cc:work rdf:about="">
        <cc:license rdf:resource="http://creativecommons.org/licenses/by-nc-sa/4.0/"/>
        <cc:attributionName>Caius Nocturne</cc:attributionName>
        <cc:attributionURL>http://mutant.tech/</cc:attributionURL>
    </cc:work>

</rdf:RDF>
</metadata>

    <rect id="index_finger--clw-" width="32" height="32" fill="none" serif:id="index_finger [clw]"/>
    <clipPath id="_clip1">
        <rect width="32" height="32"/>
    </clipPath>
    <g clip-path="url(#_clip1)">
        <g id="outline">
            <path d="m24 0v14 2.772c0.077 0.044 0.076 0.045 0.156 0.095l0.117 0.077c0.188 0.135 0.368 0.278 0.533 0.441 0.489 0.482 0.85 1.088 1.039 1.748 0.091 0.315 0.136 0.635 0.153 0.962 0.016 0.909 7e-3 1.818 1e-3 2.728-5e-3 0.306-0.022 0.612-0.056 0.916-0.076 0.679-0.227 1.349-0.45 1.995-0.271 0.787-0.648 1.536-1.118 2.223-0.411 0.6-0.892 1.151-1.431 1.639-1.324 1.199-2.989 1.999-4.752 2.285-0.377 0.061-0.757 0.098-1.139 0.113-0.085 3e-3 -0.17 5e-3 -0.254 6e-3h-0.781c-1.108-1e-3 -2.213-0.167-3.271-0.496-1.15-0.358-2.24-0.907-3.213-1.617-1.757-1.281-3.117-3.079-3.864-5.121-0.283-0.771-0.478-1.574-0.582-2.389-0.053-0.418-0.079-0.838-0.087-1.26l-1e-3 -0.117v-0.029c-3e-3 -0.588-4e-3 -1.176-4e-3 -1.764-7e-3 -2.265-0.023-4.53 5e-3 -6.794 0.015-0.402 0.088-0.797 0.234-1.173 0.363-0.942 1.134-1.695 2.085-2.035 0.352-0.126 0.72-0.19 1.093-0.204 0.087-1e-3 0.087-1e-3 0.174 0 0.402 0.015 0.797 0.088 1.173 0.234 0.019 7e-3 0.038 0.014 0.056 0.022 0.378-0.452 0.868-0.808 1.424-1.022 0.376-0.146 0.771-0.219 1.173-0.234 0.087-1e-3 0.087-1e-3 0.174 0 0.402 0.015 0.797 0.088 1.173 0.234 0.262 0.101 0.511 0.233 0.741 0.394 0.228-0.16 0.476-0.293 0.739-0.394 0.376-0.146 0.771-0.219 1.173-0.234 0.087-1e-3 0.087-1e-3 0.174 0 0.133 5e-3 0.265 0.016 0.396 0.034 3e-3 -0.768 9e-3 -1.537 0.018-2.306 0.011-0.296 0.047-0.588 0.119-0.876 0.128-0.505 0.354-0.985 0.665-1.404 0.115-0.156 0.243-0.302 0.378-0.44l3.009-3.009h2.828z"/>
        </g>
        <g id="emoji">
            <path d="m18.949 11.001c0.032 0.163 3.048 4.834 3.051 4.999v2l-1 1.5 1 3v2.499h-5l-7.5-1.499s-2.467-5.06-2.5-5.098v-4.902c1.785 0 1.5-0.715 1.5-2.5l10.449 1e-3z" fill="#20631A"/>
            <path d="m16.707 30h-0.682c-4.984 0-9.025-4.041-9.025-9.025v-2.573c0.033 0.038 0.068 0.075 0.102 0.113 0.627 0.642 1.262 1.276 1.898 1.908 0.51 0.507 1.491 1.48 2 1.989v-2.995c0.918 0.937 1.852 1.858 2.782 2.782l0.218 0.801 1 0.797 0.933-1.427c0.814 0.388 1.715 0.608 2.651 0.628l1.709 1.709 1.414-1.414-2.293-2.293h-0.69c-1.84 0-3.495-1.12-4.178-2.829l-0.069-0.171h7.523l0.894 0.447c0.678 0.339 1.106 1.032 1.106 1.789v2.471c0 1.934-0.768 3.789-2.136 5.157s-3.223 2.136-5.157 2.136zm-5.184-14 1.166 2.914c0.31 0.776 0.759 1.467 1.311 2.051v0.035l-2.414-2.414c-0.375-0.375-0.586-0.884-0.586-1.414v-5.672c0-0.398 0.158-0.779 0.439-1.061 0.282-0.281 0.663-0.439 1.061-0.439s0.779 0.158 1.061 0.439c0.281 0.282 0.439 0.663 0.439 1.061v4.5h-2.477zm-3.053-5c0.845 0 1.53 0.685 1.53 1.53v7.47l-2.121-2.121c-0.563-0.563-0.879-1.326-0.879-2.122v-3.289c0-0.389 0.155-0.763 0.43-1.038s0.649-0.43 1.038-0.43h2e-3zm9.53 5h-3v-4.501c1e-3 -0.209 0.044-0.416 0.129-0.607 0.079-0.18 0.195-0.344 0.337-0.479 0.133-0.127 0.29-0.229 0.46-0.299 0.159-0.066 0.328-0.104 0.5-0.113 0.484-0.024 0.96 0.194 1.257 0.577 0.087 0.111 0.157 0.234 0.21 0.364 0.071 0.178 0.106 0.367 0.107 0.557v4.501zm1 0h3v-2l-0.5-0.5 0.5-0.5v-4l-0.5-0.5 0.5-0.5v-6l-2.414 2.414c-0.375 0.375-0.586 0.884-0.586 1.414v2.172l0.5 0.5-0.5 0.5v4l0.5 0.5-0.5 0.5v2z" fill="#6DD349"/>
            <g fill="#2EA82C">
                <rect x="19" y="8" width="3" height="1"/>
                <rect x="19" y="13" width="3" height="1"/>
                <path d="m13.782 22.199c0.25 0.248 0.969 0.966 1.218 1.215v-1.586c0.295 0.206 0.607 0.388 0.933 0.542l-1.539 3.077c-0.064 0.127-0.152 0.239-0.263 0.329-0.099 0.081-0.215 0.142-0.338 0.18-0.119 0.036-0.245 0.051-0.369 0.041-0.112-8e-3 -0.222-0.036-0.325-0.081-0.1-0.044-0.193-0.104-0.274-0.178-0.228-0.208-0.348-0.519-0.321-0.826 0.011-0.125 0.046-0.247 0.102-0.359l1.176-2.354z"/>
            </g>
        </g>
    </g>
</svg>
