<?xml version="1.0" encoding="UTF-8"?>
<!DOCTYPE svg  PUBLIC '-//W3C//DTD SVG 1.1//EN'  'http://www.w3.org/Graphics/SVG/1.1/DTD/svg11.dtd'>
<svg clip-rule="evenodd" fill-rule="evenodd" stroke-linejoin="round" stroke-miterlimit="2" version="1.1" viewBox="0 0 32 32" xml:space="preserve" xmlns="http://www.w3.org/2000/svg" xmlns:serif="http://www.serif.com/">
<metadata>
<rdf:RDF xmlns:cc="http://web.resource.org/cc/" xmlns:dc="http://purl.org/dc/elements/1.1/" xmlns:rdf="http://www.w3.org/1999/02/22-rdf-syntax-ns#">

     <rdf:Description rdf:about="">
       <dc:title>Mutant Standard emoji 2023.12</dc:title>
     </rdf:Description>

    <cc:work rdf:about="">
        <cc:license rdf:resource="http://creativecommons.org/licenses/by-nc-sa/4.0/"/>
        <cc:attributionName>Caius Nocturne</cc:attributionName>
        <cc:attributionURL>http://mutant.tech/</cc:attributionURL>
    </cc:work>

</rdf:RDF>
</metadata>

    <rect id="metal--clw-" width="32" height="32" fill="none" serif:id="metal [clw]"/>
    <clipPath id="_clip1">
        <rect width="32" height="32"/>
    </clipPath>
    <g clip-path="url(#_clip1)">
        <g id="outline">
            <path d="m25 0v16.772c0.077 0.044 0.076 0.045 0.156 0.095l0.117 0.077c0.188 0.135 0.368 0.278 0.533 0.441 0.489 0.482 0.85 1.088 1.039 1.748 0.091 0.315 0.136 0.635 0.153 0.962 0.016 0.909 7e-3 1.818 1e-3 2.728-5e-3 0.306-0.022 0.612-0.056 0.916-0.076 0.679-0.227 1.349-0.45 1.995-0.271 0.787-0.648 1.536-1.118 2.223-0.411 0.6-0.892 1.151-1.431 1.639-1.324 1.199-2.989 1.999-4.752 2.285-0.377 0.061-0.757 0.098-1.139 0.113-0.085 3e-3 -0.17 5e-3 -0.255 6e-3h-0.78c-1.108-1e-3 -2.213-0.167-3.271-0.496-1.15-0.358-2.24-0.907-3.213-1.617-1.757-1.281-3.117-3.079-3.864-5.121-0.299-0.815-0.5-1.665-0.598-2.527-0.043-0.373-0.064-0.747-0.071-1.122-7e-3 -1.018-5e-3 -2.036-3e-3 -3.054l-1.901-5.702-0.045-0.143c-0.045-0.157-0.088-0.313-0.123-0.473-0.057-0.263-0.096-0.529-0.117-0.798-0.067-0.853 0.051-1.719 0.343-2.523 0.129-0.353 0.293-0.689 0.481-1.014l2.221-3.717c0.598 0.065 1.197 0.13 1.795 0.195l1.906 5.719c0.399-0.618 0.99-1.105 1.682-1.372 0.376-0.146 0.771-0.219 1.173-0.234 0.087-1e-3 0.087-1e-3 0.174 0 0.402 0.015 0.797 0.088 1.173 0.234 0.262 0.101 0.511 0.233 0.741 0.394 0.252-0.176 0.527-0.32 0.819-0.424 0.352-0.126 0.719-0.19 1.093-0.204 0.087-1e-3 0.087-1e-3 0.174 0 0.139 5e-3 0.276 0.017 0.413 0.037v-1.394l2e-3 -0.136c0.014-0.395 0.058-0.785 0.145-1.171 0.172-0.762 0.494-1.49 0.944-2.129 0.197-0.281 0.418-0.539 0.657-0.784l2.424-2.424h2.828z"/>
        </g>
        <g id="emoji">
            <path d="m21 11 2 5.001v1.999l1 5-2 2h-11l-3-14h13z" fill="#5E0D1C"/>
            <path d="m17.707 30h-0.682c-4.984 0-9.025-4.041-9.025-9.025v-3.231l-0.465-1.395 0.465-0.27v-0.635l-0.781-0.044-0.784-2.351 1.065-1.049 0.5 0.028v-0.318l-0.5 0.29-1.381 0.1-0.12-0.359c-0.369-1.105-0.237-2.316 0.361-3.316 0.531-0.889 1.088-1.822 1.088-1.822l1.517 4.548-0.69 0.4 0.254 0.507 0.752 0.042 0.784 2.351-0.227 0.224 0.368 0.738 0.175-0.013 0.362 1.085 0.255 0.511c1e-3 0.083 2e-3 0.167 3e-3 0.25 7e-3 0.197 0.029 0.393 0.072 0.585 0.086 0.382 0.248 0.746 0.473 1.066 0.085 0.121 0.18 0.234 0.281 0.343 0.973 0.998 1.966 1.977 2.955 2.959l0.218 1.301 1 0.257 0.933-1.387c0.814 0.388 1.715 0.608 2.651 0.628l1.709 1.709 1.414-1.414-2.293-2.293h-0.69c-0.417-1e-3 -0.832-0.058-1.233-0.172-0.452-0.129-0.883-0.329-1.273-0.59-0.39-0.262-0.739-0.584-1.029-0.953-0.196-0.248-0.365-0.517-0.504-0.8-0.038-0.077-0.073-0.155-0.107-0.234-0.035-0.083-0.068-0.167-0.101-0.251h7.523l0.894 0.447c0.678 0.339 1.106 1.032 1.106 1.789v2.471c0 1.934-0.768 3.789-2.136 5.157s-3.223 2.136-5.157 2.136zm-5.184-14 1.166 2.914c0.31 0.776 0.759 1.467 1.311 2.051v0.035l-2.414-2.414c-0.375-0.375-0.586-0.884-0.586-1.414v-5.672c0-0.398 0.158-0.779 0.439-1.061 0.282-0.281 0.663-0.439 1.061-0.439s0.779 0.158 1.061 0.439c0.281 0.282 0.439 0.663 0.439 1.061v4.5h-2.477zm6.477 0h-3v-4.501c1e-3 -0.209 0.044-0.416 0.129-0.607 0.079-0.18 0.195-0.344 0.337-0.479 0.133-0.127 0.29-0.229 0.46-0.299 0.159-0.066 0.328-0.104 0.5-0.113 0.484-0.024 0.96 0.194 1.257 0.577 0.087 0.111 0.157 0.234 0.21 0.364 0.071 0.178 0.106 0.367 0.107 0.557v4.501zm4 0h-3v-2l0.5-0.5-0.5-0.5v-4l0.5-0.5-0.5-0.5v-1.343c0-1.061 0.421-2.078 1.171-2.827l1.829-1.829v5.999l-0.5 0.5 0.5 0.5v4l-0.5 0.5 0.5 0.5v2z" fill="#E91C2A"/>
            <path d="m14.782 22.199c0.25 0.249 0.969 0.966 1.218 1.215v-0.663-0.923c0.295 0.206 0.607 0.388 0.933 0.542l-1.539 3.077c-0.064 0.127-0.152 0.239-0.263 0.329-0.099 0.081-0.215 0.142-0.338 0.18-0.119 0.036-0.245 0.051-0.369 0.041-0.112-8e-3 -0.222-0.036-0.325-0.081-0.1-0.044-0.193-0.104-0.274-0.178-0.228-0.208-0.348-0.519-0.321-0.826 0.011-0.125 0.046-0.247 0.102-0.359l1.176-2.354z" fill="#A41933"/>
            <path d="m10.381 15.4-2.846 0.949-0.316-0.949 2.846-0.949 0.316 0.949zm12.619-2.4v1h-3v-1h3zm-13.719-0.9-2.846 0.949-0.316-0.949 2.846-0.949 0.316 0.949zm13.719-4.1v1h-3v-1h3z" fill="#A41933"/>
        </g>
    </g>
</svg>
