<?xml version="1.0" encoding="UTF-8"?>
<!DOCTYPE svg  PUBLIC '-//W3C//DTD SVG 1.1//EN'  'http://www.w3.org/Graphics/SVG/1.1/DTD/svg11.dtd'>
<svg clip-rule="evenodd" fill-rule="evenodd" stroke-linejoin="round" stroke-miterlimit="2" version="1.1" viewBox="0 0 32 32" xml:space="preserve" xmlns="http://www.w3.org/2000/svg" xmlns:serif="http://www.serif.com/">
<metadata>
<rdf:RDF xmlns:cc="http://web.resource.org/cc/" xmlns:dc="http://purl.org/dc/elements/1.1/" xmlns:rdf="http://www.w3.org/1999/02/22-rdf-syntax-ns#">

     <rdf:Description rdf:about="">
       <dc:title>Mutant Standard emoji 2023.12</dc:title>
     </rdf:Description>

    <cc:work rdf:about="">
        <cc:license rdf:resource="http://creativecommons.org/licenses/by-nc-sa/4.0/"/>
        <cc:attributionName>Caius Nocturne</cc:attributionName>
        <cc:attributionURL>http://mutant.tech/</cc:attributionURL>
    </cc:work>

</rdf:RDF>
</metadata>

    <rect id="middle_finger--clw-" width="32" height="32" fill="none" serif:id="middle_finger [clw]"/>
    <clipPath id="_clip1">
        <rect width="32" height="32"/>
    </clipPath>
    <g clip-path="url(#_clip1)">
        <g id="outline">
            <path d="m19 0v11.038c0.137-0.02 0.274-0.032 0.413-0.037 0.087-1e-3 0.087-1e-3 0.174 0 0.402 0.015 0.797 0.088 1.173 0.234 0.428 0.165 0.821 0.414 1.153 0.729 0.096 0.092 0.188 0.19 0.273 0.292 0.044-0.018 0.089-0.035 0.134-0.051 0.352-0.126 0.72-0.19 1.093-0.204 0.087-1e-3 0.087-1e-3 0.174 0 0.402 0.015 0.797 0.088 1.173 0.234 0.401 0.154 0.771 0.383 1.089 0.67 0.447 0.405 0.785 0.924 0.974 1.496 0.116 0.351 0.173 0.717 0.177 1.087v1.012c0 1.538 9e-3 3.075-1e-3 4.612-2e-3 0.137-7e-3 0.273-0.013 0.41-0.02 0.362-0.053 0.722-0.107 1.081-0.119 0.8-0.327 1.587-0.618 2.341-0.536 1.389-1.355 2.664-2.394 3.73-1.134 1.163-2.525 2.068-4.048 2.634-0.928 0.346-1.903 0.565-2.89 0.651-0.322 0.028-0.644 0.038-0.967 0.041h-0.918l-0.171-2e-3c-0.3-8e-3 -0.598-0.026-0.896-0.06-0.585-0.068-1.164-0.192-1.726-0.37-1.887-0.597-3.559-1.803-4.721-3.406-0.312-0.43-0.587-0.888-0.821-1.365-0.106-0.216-0.2-0.436-0.291-0.658-0.389-1.008-0.77-2.018-1.138-3.033-0.06-0.177-0.113-0.356-0.155-0.539-0.082-0.36-0.124-0.73-0.125-1.1 0-0.237-6e-3 -0.479 6e-3 -0.717 0.016-0.327 0.065-0.652 0.145-0.97 0.168-0.672 0.478-1.307 0.904-1.854 0.429-0.55 0.974-1.009 1.589-1.337 0.113-0.06 0.228-0.116 0.345-0.167 0-0.671 4e-3 -1.341 0.012-2.011 0.014-0.381 0.08-0.756 0.212-1.114 0.351-0.96 1.124-1.733 2.084-2.084 0.358-0.132 0.733-0.198 1.114-0.212 0.089-1e-3 0.089-1e-3 0.178 0 0.129 5e-3 0.258 0.016 0.385 0.033 2e-3 -1.435 9e-3 -2.87 0.027-4.305 4e-3 -0.099 4e-3 -0.099 0.01-0.198 0.023-0.261 0.064-0.519 0.135-0.772 0.13-0.471 0.348-0.917 0.639-1.31 0.115-0.156 0.243-0.302 0.378-0.44l4.009-4.009h1.828z"/>
        </g>
        <g id="emoji">
            <path d="m14 6.828c0-0.53 0.211-1.039 0.586-1.414l2.414-2.414v17h-3v-13.172z" fill="#ED9298"/>
            <path d="m10 14.498c0-0.397 0.158-0.778 0.439-1.059s0.662-0.439 1.059-0.439h4e-3c0.397 0 0.778 0.158 1.059 0.439s0.439 0.662 0.439 1.059v4.502h-3v-4.502z" fill="#ED9298"/>
            <path d="m18 14.498c0-0.827 0.671-1.498 1.498-1.498h4e-3c0.827 0 1.498 0.671 1.498 1.498v3.502h-3v-3.502z" fill="#ED9298"/>
            <path d="m22 15.5c0-0.398 0.158-0.779 0.439-1.061 0.282-0.281 0.663-0.439 1.061-0.439s0.779 0.158 1.061 0.439c0.281 0.282 0.439 0.663 0.439 1.061v2.5h-3v-2.5z" fill="#ED9298"/>
            <path d="m10 18c-1.657 0-3 1.343-3 3v0.456c0 0.36 0.065 0.717 0.191 1.053 0.222 0.594 0.614 1.636 1.034 2.759 1.068 2.846 3.789 4.732 6.829 4.732h0.921c2.394 0 4.689-0.951 6.382-2.643 1.692-1.693 2.643-3.988 2.643-6.382v-4.975h-5v-1h-10v3z" fill="#ED9298"/>
            <clipPath id="_clip2">
                <path d="m10 18c-1.657 0-3 1.343-3 3v0.456c0 0.36 0.065 0.717 0.191 1.053 0.222 0.594 0.614 1.636 1.034 2.759 1.068 2.846 3.789 4.732 6.829 4.732h0.921c2.394 0 4.689-0.951 6.382-2.643 1.692-1.693 2.643-3.988 2.643-6.382v-4.975h-5v-1h-10v3z"/>
            </clipPath>
            <g clip-path="url(#_clip2)">
                <path d="m10 18-2-2v4c0 0.265 0.105 0.52 0.293 0.707 0.187 0.188 0.442 0.293 0.707 0.293 0.552 0 1-0.448 1-1v-2z" fill="#DA657A"/>
            </g>
        </g>
    </g>
</svg>
