<?xml version="1.0" encoding="UTF-8"?>
<!DOCTYPE svg  PUBLIC '-//W3C//DTD SVG 1.1//EN'  'http://www.w3.org/Graphics/SVG/1.1/DTD/svg11.dtd'>
<svg clip-rule="evenodd" fill-rule="evenodd" stroke-linecap="round" stroke-miterlimit="2" version="1.1" viewBox="0 0 32 32" xml:space="preserve" xmlns="http://www.w3.org/2000/svg" xmlns:serif="http://www.serif.com/">
<metadata>
<rdf:RDF xmlns:cc="http://web.resource.org/cc/" xmlns:dc="http://purl.org/dc/elements/1.1/" xmlns:rdf="http://www.w3.org/1999/02/22-rdf-syntax-ns#">

     <rdf:Description rdf:about="">
       <dc:title>Mutant Standard emoji 2023.12</dc:title>
     </rdf:Description>

    <cc:work rdf:about="">
        <cc:license rdf:resource="http://creativecommons.org/licenses/by-nc-sa/4.0/"/>
        <cc:attributionName>Caius Nocturne</cc:attributionName>
        <cc:attributionURL>http://mutant.tech/</cc:attributionURL>
    </cc:work>

</rdf:RDF>
</metadata>

    <rect id="muscle--clw-" width="32" height="32" fill="none" serif:id="muscle [clw]"/>
    <clipPath id="_clip1">
        <rect width="32" height="32"/>
    </clipPath>
    <g clip-path="url(#_clip1)">
        <g id="outline">
            <path d="m15.489 16.34c2.765-1.119 5.851-1.391 8.85-0.699 3.115 0.719 6.111 1.41 6.111 1.41 0.907 0.21 1.55 1.018 1.55 1.949v8c0 0.834-0.517 1.58-1.298 1.873 0 0-1.424 0.534-3.07 1.151-3.485 1.307-7.175 1.976-10.897 1.976-5.417 0-10.74-1.414-15.443-4.101-0.181-0.104-0.284-0.163-0.284-0.163-0.623-0.356-1.008-1.018-1.008-1.736v-3.626c0-3.899 1.156-7.711 3.322-10.953l3.732-5.586c0.39-0.584 0.927-1.056 1.558-1.366 1.395-0.687 5.5-2.711 7.997-3.941 2.074-1.021 4.584-0.263 5.744 1.736 0.698 1.204 1.599 2.757 2.326 4.011 0.612 1.054 0.758 2.316 0.403 3.482s-1.179 2.132-2.275 2.667c-2.281 1.112-5.43 2.648-5.43 2.648-0.502 0.245-1.083 0.269-1.603 0.066-0.213-0.082-0.407-0.2-0.576-0.346l0.209 1.043c0.041 0.224 0.04 0.216 0.075 0.448l7e-3 0.057z"/>
        </g>
        <g id="emoji">
            <path d="m22.836 7.082-0.211 0.563-5.125 2.467-0.672-0.026-0.94 0.47-0.628-0.165-0.267 0.612-0.928 0.465-1.565 0.532 0.669 1.277c-0.093 0.573-0.082 1.158 0.032 1.728 0.072 0.36 0.157 0.785 0.244 1.222 0.126 0.628 0.135 1.264 0.035 1.878l-2.296 3.248 0.671 0.269 4.354-3.417c2.399-0.977 5.078-1.216 7.68-0.615 3.115 0.719 6.111 1.41 6.111 1.41v8s-1.424 0.534-3.071 1.152c-3.259 1.222-6.712 1.848-10.194 1.848-5.069 0-10.05-1.323-14.451-3.838-0.181-0.103-0.284-0.162-0.284-0.162v-3.626c0-3.504 1.039-6.929 2.985-9.842 1.478-2.212 3.082-4.614 3.732-5.586 0.195-0.292 0.464-0.528 0.779-0.683 1.395-0.687 5.5-2.71 7.997-3.941 1.13-0.557 2.498-0.143 3.13 0.946l2.213 3.814zm0.389 0.924c0.078 0.384 0.06 0.785-0.056 1.168-0.194 0.635-0.642 1.161-1.239 1.452-2.28 1.112-5.43 2.649-5.43 2.649v-1e-3c-0.229-0.583-0.286-1.213-0.173-1.819l0.673-0.814 5.784-2.641 0.441 6e-3z" fill="#5963EF"/>
            <path d="m16.828 10.086 0.671-0.335-1.276-2.553 0.894-0.447 1.276 2.552 1.611-0.805-1.276-2.553 0.894-0.447 1.277 2.553 1.937-0.969 0.113 0.196c0.133 0.228 0.225 0.474 0.276 0.728l-6.898 3.449c0.045-0.243 0.117-0.481 0.216-0.711l0.285-0.658zm-3.111-1.636 0.894-0.447 1.277 2.553-0.895 0.447-1.276-2.553z" fill="#28168F"/>
            <path d="m13.48 18.105c-0.174 1.082-0.683 2.098-1.48 2.895l1e-3 -1e-3c1.221-1.221 2.656-2.162 4.208-2.794l-4.003 4.003c-0.39 0.39-1.022 0.39-1.412 0-1e-3 0-1e-3 -1e-3 -1e-3 -1e-3 -0.188-0.187-0.293-0.442-0.293-0.707s0.105-0.52 0.293-0.707l2.687-2.688zm-0.311-4.828-2.485-0.828c-0.524-0.175-0.807-0.741-0.633-1.265 0.175-0.524 0.741-0.807 1.265-0.633l2.749 0.917-0.33 0.164c-0.149 0.075-0.256 0.212-0.292 0.375-0.054 0.244-0.139 0.627-0.221 0.992-0.02 0.093-0.038 0.185-0.053 0.278z" fill="#4E39D7"/>
            <path d="m15.5 24.5c2.728 1.273 5.868 1.329 8.639 0.153 0.225-0.095 0.361-0.153 0.361-0.153" fill="none" stroke="#4E39D7" stroke-width="2px"/>
        </g>
    </g>
</svg>
