<?xml version="1.0" encoding="UTF-8"?>
<!DOCTYPE svg  PUBLIC '-//W3C//DTD SVG 1.1//EN'  'http://www.w3.org/Graphics/SVG/1.1/DTD/svg11.dtd'>
<svg clip-rule="evenodd" fill-rule="evenodd" stroke-linejoin="round" stroke-miterlimit="2" version="1.1" viewBox="0 0 32 32" xml:space="preserve" xmlns="http://www.w3.org/2000/svg" xmlns:serif="http://www.serif.com/">
<metadata>
<rdf:RDF xmlns:cc="http://web.resource.org/cc/" xmlns:dc="http://purl.org/dc/elements/1.1/" xmlns:rdf="http://www.w3.org/1999/02/22-rdf-syntax-ns#">

     <rdf:Description rdf:about="">
       <dc:title>Mutant Standard emoji 2023.12</dc:title>
     </rdf:Description>

    <cc:work rdf:about="">
        <cc:license rdf:resource="http://creativecommons.org/licenses/by-nc-sa/4.0/"/>
        <cc:attributionName>Caius Nocturne</cc:attributionName>
        <cc:attributionURL>http://mutant.tech/</cc:attributionURL>
    </cc:work>

</rdf:RDF>
</metadata>

    <rect id="nail_polish--clw-" width="32" height="32" fill="none" serif:id="nail_polish [clw]"/>
    <clipPath id="_clip1">
        <rect width="32" height="32"/>
    </clipPath>
    <g clip-path="url(#_clip1)">
        <g id="outline">
            <path d="m27.434 6.605c0.577 0.593 0.746 1.508 0.355 2.289 0 0-0.814 1.629-1.404 2.808-0.58 1.161-1.522 2.103-2.683 2.683l-0.808 0.404c-0.563 0.281-1.225 0.281-1.788 0l-1.345-0.672-1.336 4.677c0.047 0.324 0.075 0.649 0.084 0.977l1e-3 0.053c0.738-0.534 1.556-0.954 2.425-1.244l5.03-1.676-2.545 8.906c0.234 1.636-0.066 3.308-0.804 4.87l-0.042 0.088-0.737 1.232h-21.837v-17.828l4.417-4.418c0.988-0.988 2.193-1.732 3.518-2.174l5.03-1.676-2.54 8.89c0.044 0.291 0.07 0.582 0.081 0.872l1.911-1.912c0.988-0.988 2.193-1.732 3.518-2.174l0.138-0.046c-0.048-0.171-0.073-0.351-0.073-0.534 0-0.758 0.428-1.45 1.106-1.789 0 0 0.379-0.189 0.807-0.404 0.387-0.193 0.701-0.507 0.894-0.894 0.59-1.179 1.404-2.807 1.404-2.807 0.391-0.782 1.225-1.196 2.045-1.09l2.008-4.016h6.472l-3.302 6.605z"/>
        </g>
        <g id="emoji">
            <path d="m16.372 18.697c0.429 1.935-0.11 4.041-1.615 5.546l-5.757 5.757h-7v-3l7.207-7.207c0.142 0.662 7.165-1.096 7.165-1.096zm5 7c0.321 1.446 0.101 2.988-0.66 4.303h-9.712l3.207-3.207c1.069-0.153 7.165-1.096 7.165-1.096zm-13-11c0.429 1.935-0.11 4.041-1.615 5.546l-4.757 4.757v-7.007c0.742 0.024 6.372-3.296 6.372-3.296z" fill="#A77F58"/>
            <path d="m14.207 28.207c-0.39-0.39-0.39-1.024 0-1.414l4.625-4.625c0.768-0.768 1.705-1.347 2.736-1.691 0.726-0.242 1.432-0.477 1.432-0.477s-1.069 3.742-1.644 5.754c-0.234 0.817-0.671 1.561-1.272 2.162l-0.963 0.963c-0.562 0.562-1.325 0.878-2.121 0.878s-1.559-0.316-2.121-0.878l-0.672-0.672zm-5-7c-0.39-0.39-0.39-1.024 0-1.414l4.625-4.625c0.768-0.768 1.705-1.347 2.736-1.691 0.726-0.242 1.432-0.477 1.432-0.477s-1.069 3.742-1.644 5.754c-0.234 0.817-0.671 1.561-1.272 2.162l-0.963 0.963c-0.562 0.562-1.325 0.878-2.121 0.878s-1.559-0.316-2.121-0.878l-0.672-0.672zm-7.207-6.207 3.832-3.832c0.768-0.768 1.705-1.347 2.736-1.691 0.726-0.242 1.432-0.477 1.432-0.477s-1.069 3.742-1.644 5.754c-0.234 0.817-0.671 1.561-1.272 2.162l-0.963 0.963c-0.562 0.562-1.325 0.878-2.121 0.878-0.74 0-1.451-0.273-2-0.764v-2.993z" fill="#74DAFF"/>
            <path d="m27.5 2h-2l-4.5 9h2l4.5-9z" fill="#575757"/>
            <path d="m18 11s0.379-0.19 0.807-0.404c0.775-0.387 1.402-1.014 1.789-1.789 0.59-1.178 1.404-2.807 1.404-2.807l4 2s-0.814 1.629-1.404 2.807c-0.387 0.775-1.014 1.402-1.789 1.789-0.428 0.214-0.807 0.404-0.807 0.404l-4-2z" fill="#74DAFF"/>
        </g>
    </g>
</svg>
