<?xml version="1.0" encoding="UTF-8"?>
<!DOCTYPE svg  PUBLIC '-//W3C//DTD SVG 1.1//EN'  'http://www.w3.org/Graphics/SVG/1.1/DTD/svg11.dtd'>
<svg clip-rule="evenodd" fill-rule="evenodd" stroke-miterlimit="3" version="1.1" viewBox="0 0 32 32" xml:space="preserve" xmlns="http://www.w3.org/2000/svg" xmlns:serif="http://www.serif.com/">
<metadata>
<rdf:RDF xmlns:cc="http://web.resource.org/cc/" xmlns:dc="http://purl.org/dc/elements/1.1/" xmlns:rdf="http://www.w3.org/1999/02/22-rdf-syntax-ns#">

     <rdf:Description rdf:about="">
       <dc:title>Mutant Standard emoji 2023.12</dc:title>
     </rdf:Description>

    <cc:work rdf:about="">
        <cc:license rdf:resource="http://creativecommons.org/licenses/by-nc-sa/4.0/"/>
        <cc:attributionName>Caius Nocturne</cc:attributionName>
        <cc:attributionURL>http://mutant.tech/</cc:attributionURL>
    </cc:work>

</rdf:RDF>
</metadata>

    <rect id="open_hands--clw-" width="32" height="32" fill="none" serif:id="open_hands [clw]"/>
    <clipPath id="_clip1">
        <rect width="32" height="32"/>
    </clipPath>
    <g clip-path="url(#_clip1)">
        <g id="outline" fill="none" stroke="#000" stroke-width="4px">
            <path d="m9.007 15.806 0.521-0.26-1.861-3.738c-0.138-0.276-0.16-0.596-0.062-0.889 0.229-0.682 0.632-1.885 0.632-1.885l4.153 8.34s0.15-0.819 0.29-1.582c0.148-0.806 0.668-1.497 1.402-1.863 0.477-0.237 0.09-0.045 0.09-0.045s0.821 3.836 0.817 6.728c-4e-3 1.609-0.914 3.078-2.354 3.794-0.165 0.082-0.333 0.166-0.505 0.252-2.597 1.293-5.752 0.236-7.046-2.362l-2.893-5.81c-0.137-0.276-0.16-0.596-0.061-0.889 0.228-0.681 0.631-1.885 0.631-1.885l2.596 5.213 0.521-0.26-2.381-4.781c-0.137-0.276-0.159-0.596-0.061-0.889 0.228-0.681 0.631-1.884 0.631-1.884l3.115 6.254 0.521-0.259-2.38-4.781c-0.138-0.276-0.16-0.596-0.062-0.889 0.228-0.682 0.632-1.885 0.632-1.885l3.114 6.255z"/>
            <path d="m22.993 15.806-0.521-0.26 1.861-3.738c0.138-0.276 0.16-0.596 0.062-0.889-0.229-0.682-0.632-1.885-0.632-1.885l-4.153 8.34s-0.15-0.819-0.29-1.582c-0.148-0.806-0.668-1.497-1.402-1.863-0.477-0.237-0.09-0.045-0.09-0.045s-0.821 3.836-0.817 6.728c4e-3 1.609 0.914 3.078 2.354 3.794 0.165 0.082 0.333 0.166 0.505 0.252 2.597 1.293 5.752 0.236 7.046-2.362l2.893-5.81c0.137-0.276 0.16-0.596 0.061-0.889-0.228-0.681-0.631-1.885-0.631-1.885l-2.596 5.213-0.521-0.26 2.381-4.781c0.137-0.276 0.159-0.596 0.061-0.889-0.228-0.681-0.631-1.884-0.631-1.884l-3.115 6.254-0.521-0.259 2.38-4.781c0.138-0.276 0.16-0.596 0.062-0.889-0.228-0.682-0.632-1.885-0.632-1.885l-3.114 6.255z"/>
            <path d="m17.486 13.715c1.188 0.592 0.03 1.71 0.269 3.016 0.227 1.234 0.47 2.56 0.47 2.56h-4.45s0.243-1.326 0.47-2.56c0.239-1.306-0.919-2.424 0.269-3.016 0.771-0.384 1.486-0.74 1.486-0.74l1.486 0.74z"/>
        </g>
        <g id="emoji">
            
                <path d="m12.452 17.036c0.056-0.309 0.144-0.786 0.228-1.244 0.148-0.806 0.668-1.497 1.402-1.863 0.477-0.237 0.918-0.457 0.918-0.457s-7e-3 4.248-0.011 7.14c-4e-3 1.609-0.914 3.078-2.354 3.794-0.165 0.082-0.333 0.166-0.505 0.252-2.597 1.293-5.752 0.236-7.046-2.362l-1.291-2.593 0.131-0.39-0.391-0.131-1.038-2.085 0.131-0.39-0.39-0.131-0.045-0.09c-0.137-0.276-0.16-0.596-0.061-0.889 0.228-0.681 0.631-1.885 0.631-1.885l1.038 2.085-0.13 0.391 0.39 0.13 1.038 2.085-0.131 0.391 0.391 0.131 0.521-0.26-0.26-0.521 0.131-0.391-0.39-0.13-1.038-2.085 0.13-0.391-0.39-0.13-0.564-1.133c-0.137-0.276-0.159-0.596-0.061-0.889 0.228-0.681 0.631-1.884 0.631-1.884l1.558 3.127-0.131 0.39 0.39 0.131 1.038 2.085-0.13 0.39 0.39 0.131 0.521-0.259-0.259-0.522 0.13-0.39-0.39-0.131-1.298-2.606 0.131-0.39-0.39-0.131-0.304-0.611c-0.138-0.276-0.16-0.596-0.062-0.889 0.228-0.682 0.632-1.885 0.632-1.885l1.297 2.606-0.13 0.391 0.39 0.131 1.298 2.606-0.131 0.39 0.39 0.131 0.521-0.26 0.131-0.39-0.39-0.131-1.298-2.606 0.131-0.39-0.39-0.131-0.045-0.09c-0.138-0.276-0.16-0.596-0.062-0.889 0.229-0.682 0.632-1.885 0.632-1.885l1.038 2.085-0.131 0.391 0.391 0.13 1.297 2.606-0.13 0.391 0.39 0.131 0.198 0.398-4e-3 2.569c-0.62 0.1-1.197 0.416-1.619 0.88-0.223 0.246-0.402 0.531-0.526 0.838-0.088 0.219-0.149 0.45-0.18 0.685-0.015 0.117-0.021 0.235-0.023 0.354-1e-3 0.533-0.017 1.066-1e-3 1.6 3e-3 0.036 8e-3 0.072 0.016 0.108 0.022 0.083 0.061 0.161 0.116 0.227 0.038 0.047 0.085 0.087 0.136 0.12 0.167 0.106 0.381 0.12 0.56 0.036 0.055-0.026 0.106-0.06 0.151-0.102 0.053-0.05 0.097-0.11 0.128-0.177 0.037-0.078 0.053-0.161 0.056-0.247 1e-3 -0.534-4e-3 -1.068 3e-3 -1.602 7e-3 -0.18 0.04-0.358 0.104-0.528 0.16-0.432 0.505-0.782 0.934-0.951 0.168-0.066 0.344-0.101 0.525-0.111 0.042-2e-3 0.083-2e-3 0.125-2e-3 0.22 0.01 0.438 0.024 0.658 0.036l3e-3 -1.863z" fill="#C596FD"/>
                <path d="m12.39 17.374 0.062-0.338-3e-3 1.863c-0.22-0.012-0.438-0.026-0.658-0.036-0.042 0-0.083 0-0.125 2e-3 -0.181 0.01-0.357 0.045-0.525 0.111-0.429 0.169-0.774 0.519-0.934 0.951-0.064 0.17-0.097 0.348-0.104 0.528-7e-3 0.534-2e-3 1.068-3e-3 1.602-3e-3 0.086-0.019 0.169-0.056 0.247-0.031 0.067-0.075 0.127-0.128 0.177-0.045 0.042-0.096 0.076-0.151 0.102-0.179 0.084-0.393 0.07-0.56-0.036-0.051-0.033-0.098-0.073-0.136-0.12-0.055-0.066-0.094-0.144-0.116-0.227-8e-3 -0.036-0.013-0.072-0.016-0.108-0.016-0.534 0-1.067 1e-3 -1.6 2e-3 -0.119 8e-3 -0.237 0.023-0.354 0.031-0.235 0.092-0.466 0.18-0.685 0.124-0.307 0.303-0.592 0.526-0.838 0.422-0.464 0.999-0.78 1.619-0.88l4e-3 -2.569 1.1 2.208z" fill="#BB77F3"/>
                <g fill="#BB77F3">
                    <path d="m9.275 11.119-1.563 0.779 0.259 0.521 1.564-0.779-0.26-0.521z"/>
                    <path d="m10.832 14.246-1.563 0.779 0.259 0.521 1.564-0.778-0.26-0.522z"/>
                    <path d="m7.19 12.157-1.563 0.779 0.259 0.521 1.564-0.778-0.26-0.522z"/>
                    <path d="m8.748 15.285-1.564 0.778 0.26 0.521 1.563-0.778-0.259-0.521z"/>
                    <path d="m5.625 14.238-1.564 0.779 0.26 0.521 1.563-0.779-0.259-0.521z"/>
                    <path d="m6.922 16.844-1.563 0.779 0.259 0.521 1.564-0.779-0.26-0.521z"/>
                    <path d="m3.799 15.797-1.563 0.779 0.259 0.521 1.564-0.779-0.26-0.521z"/>
                    <path d="m5.097 18.403-1.564 0.779 0.26 0.521 1.564-0.778-0.26-0.522z"/>
                </g>
            
            
                <path d="m20.71 15.166 0.198-0.398 0.39-0.131-0.13-0.391 1.297-2.606 0.391-0.13-0.131-0.391 1.038-2.085s0.403 1.203 0.632 1.885c0.098 0.293 0.076 0.613-0.062 0.889l-0.045 0.09-0.39 0.131 0.131 0.39-1.298 2.606-0.39 0.131 0.131 0.39 0.521 0.26 0.39-0.131-0.131-0.39 1.298-2.606 0.39-0.131-0.13-0.391 1.297-2.606s0.404 1.203 0.632 1.885c0.098 0.293 0.076 0.613-0.062 0.889l-0.304 0.611-0.39 0.131 0.131 0.39-1.298 2.606-0.39 0.131 0.13 0.39-0.259 0.522 0.521 0.259 0.39-0.131-0.13-0.39 1.038-2.085 0.39-0.131-0.131-0.39 1.558-3.127s0.403 1.203 0.631 1.884c0.098 0.293 0.076 0.613-0.061 0.889l-0.564 1.133-0.39 0.13 0.13 0.391-1.038 2.085-0.39 0.13 0.131 0.391-0.26 0.521 0.521 0.26 0.391-0.131-0.131-0.391 1.038-2.085 0.39-0.13-0.13-0.391 1.038-2.085s0.403 1.204 0.631 1.885c0.099 0.293 0.076 0.613-0.061 0.889l-0.045 0.09-0.39 0.131 0.131 0.39-1.038 2.085-0.391 0.131 0.131 0.39-1.291 2.593c-1.294 2.598-4.449 3.655-7.046 2.362-0.172-0.086-0.34-0.17-0.505-0.252-1.44-0.716-2.35-2.185-2.354-3.794-4e-3 -2.892-0.011-7.14-0.011-7.14s0.441 0.22 0.918 0.457c0.734 0.366 1.254 1.057 1.402 1.863 0.084 0.458 0.172 0.935 0.228 1.244l0.074 0.816c0.219-0.011 1.088-2.686 1.088-2.686z" fill="#C596FD"/>
                <path d="m20.71 15.166 4e-3 2.569c0.62 0.1 1.197 0.416 1.619 0.88 0.223 0.246 0.402 0.531 0.526 0.838 0.088 0.219 0.149 0.45 0.18 0.685 0.015 0.117 0.021 0.235 0.023 0.354 1e-3 0.533 0.017 1.066 1e-3 1.6-3e-3 0.036-8e-3 0.072-0.016 0.108-0.022 0.083-0.061 0.161-0.116 0.227-0.038 0.047-0.085 0.087-0.136 0.12-0.167 0.106-0.381 0.12-0.56 0.036-0.055-0.026-0.106-0.06-0.151-0.102-0.053-0.05-0.097-0.11-0.128-0.177-0.037-0.078-0.053-0.161-0.056-0.247-1e-3 -0.534 4e-3 -1.068-3e-3 -1.602-7e-3 -0.18-0.04-0.358-0.104-0.528-0.16-0.432-0.505-0.782-0.934-0.951-0.168-0.066-0.344-0.101-0.525-0.111-0.042-2e-3 -0.083-2e-3 -0.125-2e-3 -0.22 0.01-0.438 0.024-0.658 0.036l-3e-3 -1.863 0.062 0.338 1.1-2.208z" fill="#BB77F3"/>
                <g fill="#BB77F3">
                    <path d="m22.725 11.119 1.563 0.779-0.259 0.521-1.564-0.779 0.26-0.521z"/>
                    <path d="m21.168 14.246 1.563 0.779-0.259 0.521-1.564-0.778 0.26-0.522z"/>
                    <path d="m24.81 12.157 1.563 0.779-0.259 0.521-1.564-0.778 0.26-0.522z"/>
                    <path d="m23.252 15.285 1.564 0.778-0.26 0.521-1.563-0.778 0.259-0.521z"/>
                    <path d="m26.375 14.238 1.564 0.779-0.26 0.521-1.563-0.779 0.259-0.521z"/>
                    <path d="m25.078 16.844 1.563 0.779-0.259 0.521-1.564-0.779 0.26-0.521z"/>
                    <path d="m28.201 15.797 1.563 0.779-0.259 0.521-1.564-0.779 0.26-0.521z"/>
                    <path d="m26.903 18.403 1.564 0.779-0.26 0.521-1.564-0.778 0.26-0.522z"/>
                </g>
            
        </g>
    </g>
</svg>
