<?xml version="1.0" encoding="UTF-8"?>
<!DOCTYPE svg  PUBLIC '-//W3C//DTD SVG 1.1//EN'  'http://www.w3.org/Graphics/SVG/1.1/DTD/svg11.dtd'>
<svg clip-rule="evenodd" fill-rule="evenodd" stroke-linejoin="round" stroke-miterlimit="2" version="1.1" viewBox="0 0 32 32" xml:space="preserve" xmlns="http://www.w3.org/2000/svg" xmlns:serif="http://www.serif.com/">
<metadata>
<rdf:RDF xmlns:cc="http://web.resource.org/cc/" xmlns:dc="http://purl.org/dc/elements/1.1/" xmlns:rdf="http://www.w3.org/1999/02/22-rdf-syntax-ns#">

     <rdf:Description rdf:about="">
       <dc:title>Mutant Standard emoji 2023.12</dc:title>
     </rdf:Description>

    <cc:work rdf:about="">
        <cc:license rdf:resource="http://creativecommons.org/licenses/by-nc-sa/4.0/"/>
        <cc:attributionName>Caius Nocturne</cc:attributionName>
        <cc:attributionURL>http://mutant.tech/</cc:attributionURL>
    </cc:work>

</rdf:RDF>
</metadata>

    <rect id="point_up--clw-" width="32" height="32" fill="none" serif:id="point_up [clw]"/>
    <clipPath id="_clip1">
        <rect width="32" height="32"/>
    </clipPath>
    <g clip-path="url(#_clip1)">
        <g id="outline">
            <path d="m16 0v9.038c0.137-0.02 0.274-0.032 0.413-0.037 0.087-1e-3 0.087-1e-3 0.174 0 0.402 0.015 0.797 0.088 1.173 0.234 0.262 0.101 0.511 0.233 0.741 0.394 0.229-0.16 0.476-0.293 0.739-0.394 0.376-0.146 0.771-0.219 1.173-0.234 0.087-1e-3 0.087-1e-3 0.174 0 0.431 0.016 0.853 0.1 1.252 0.265 0.524 0.217 0.985 0.561 1.345 0.991 0.045-0.018 0.09-0.036 0.136-0.052 0.352-0.126 0.719-0.19 1.093-0.204 0.087-1e-3 0.087-1e-3 0.174 0 0.402 0.015 0.797 0.088 1.173 0.234 0.482 0.186 0.92 0.479 1.276 0.852 0.355 0.373 0.625 0.824 0.787 1.313 0.116 0.352 0.172 0.717 0.177 1.087v1.034c0 2.15 0.012 4.301 0 6.451v0.028l-1e-3 0.117c-3e-3 0.142-7e-3 0.283-0.013 0.424-0.021 0.372-0.057 0.742-0.113 1.111-0.124 0.809-0.338 1.604-0.638 2.366-0.586 1.485-1.498 2.836-2.653 3.938-1.093 1.041-2.398 1.855-3.816 2.374-0.946 0.347-1.94 0.562-2.945 0.638-0.262 0.02-0.524 0.029-0.787 0.032h-1.033-3e-3c-0.16-1e-3 -0.159-1e-3 -0.319-6e-3 -0.272-0.012-0.543-0.031-0.814-0.064-0.533-0.066-1.06-0.178-1.574-0.335-1.731-0.53-3.29-1.569-4.444-2.964-0.31-0.374-0.59-0.773-0.838-1.192-0.11-0.186-0.211-0.376-0.31-0.568l-7.435-14.871c1.861 0 3.722-0.016 5.583 1e-3 0.114 3e-3 0.114 3e-3 0.229 8e-3 0.414 0.026 0.824 0.083 1.227 0.184 0.577 0.144 1.126 0.371 1.645 0.661l0.041 0.024c-0.01-2.383-0.017-4.766 0.012-7.149 0.01-0.263 0.039-0.523 0.097-0.78 0.114-0.509 0.329-0.994 0.629-1.421 0.131-0.185 0.278-0.357 0.436-0.519l3.009-3.009h2.828z"/>
        </g>
        <g id="emoji">
            <path d="m3.5 14s3.614 7.229 5.984 11.969c1.236 2.47 3.761 4.031 6.523 4.031h0.968c4.984 0 9.025-4.041 9.025-9.025v-4.975h-5v-1h-3v-1h-7v5s-0.633-1.266-1.262-2.525c-0.759-1.517-2.309-2.475-4.006-2.475h-2.232z" fill="#ED9298"/>
            <clipPath id="_clip2">
                <path d="m3.5 14s3.614 7.229 5.984 11.969c1.236 2.47 3.761 4.031 6.523 4.031h0.968c4.984 0 9.025-4.041 9.025-9.025v-4.975h-5v-1h-3v-1h-7v5s-0.633-1.266-1.262-2.525c-0.759-1.517-2.309-2.475-4.006-2.475h-2.232z"/>
            </clipPath>
            <g clip-path="url(#_clip2)">
                <path d="m11 11.5h-2v8.5c0 0.552 0.448 1 1 1s1-0.448 1-1v-8.5z" fill="#DA657A"/>
            </g>
            <path d="m18 12.5c0-0.828-0.672-1.5-1.5-1.5s-1.5 0.672-1.5 1.5v4.5h3v-4.5z" fill="#ED9298"/>
            <path d="m22 12.5c0-0.828-0.672-1.5-1.5-1.5s-1.5 0.672-1.5 1.5v4.5h3v-4.5z" fill="#ED9298"/>
            <path d="m26 13.5c0-0.398-0.158-0.779-0.439-1.061-0.282-0.281-0.663-0.439-1.061-0.439s-0.779 0.158-1.061 0.439c-0.281 0.282-0.439 0.663-0.439 1.061v3.5h3v-3.5z" fill="#ED9298"/>
            <path d="m14 17v-15l-2.414 2.414c-0.375 0.375-0.586 0.884-0.586 1.414v11.172" fill="#ED9298"/>
        </g>
    </g>
</svg>
