<?xml version="1.0" encoding="UTF-8"?>
<!DOCTYPE svg  PUBLIC '-//W3C//DTD SVG 1.1//EN'  'http://www.w3.org/Graphics/SVG/1.1/DTD/svg11.dtd'>
<svg clip-rule="evenodd" fill-rule="evenodd" stroke-linejoin="round" stroke-miterlimit="2" version="1.1" viewBox="0 0 32 32" xml:space="preserve" xmlns="http://www.w3.org/2000/svg" xmlns:serif="http://www.serif.com/">
<metadata>
<rdf:RDF xmlns:cc="http://web.resource.org/cc/" xmlns:dc="http://purl.org/dc/elements/1.1/" xmlns:rdf="http://www.w3.org/1999/02/22-rdf-syntax-ns#">

     <rdf:Description rdf:about="">
       <dc:title>Mutant Standard emoji 2023.12</dc:title>
     </rdf:Description>

    <cc:work rdf:about="">
        <cc:license rdf:resource="http://creativecommons.org/licenses/by-nc-sa/4.0/"/>
        <cc:attributionName>Caius Nocturne</cc:attributionName>
        <cc:attributionURL>http://mutant.tech/</cc:attributionURL>
    </cc:work>

</rdf:RDF>
</metadata>

    <path id="point_left--clw-" d="m0 0v32h32v-32h-32z" fill="none" serif:id="point_left [clw]"/>
    <clipPath id="_clip1">
        <path d="m0 0v32h32v-32h-32z"/>
    </clipPath>
    <g clip-path="url(#_clip1)">
        <g id="outline">
            <path d="m0 16h9.038c-0.02 0.137-0.032 0.274-0.037 0.413-1e-3 0.087-1e-3 0.087 0 0.174 0.015 0.402 0.088 0.797 0.234 1.173 0.101 0.262 0.233 0.511 0.394 0.741-0.16 0.229-0.293 0.476-0.394 0.739-0.146 0.376-0.219 0.771-0.234 1.173-1e-3 0.087-1e-3 0.087 0 0.174 0.016 0.431 0.1 0.853 0.265 1.252 0.217 0.524 0.561 0.985 0.991 1.345-0.018 0.045-0.036 0.09-0.052 0.136-0.126 0.352-0.19 0.719-0.204 1.093-1e-3 0.087-1e-3 0.087 0 0.174 0.015 0.402 0.088 0.797 0.234 1.173 0.186 0.482 0.479 0.92 0.852 1.276 0.373 0.355 0.824 0.625 1.313 0.787 0.352 0.116 0.717 0.172 1.087 0.177h1.034c2.15 0 4.301 0.012 6.451 0h0.028l0.117-1e-3c0.142-3e-3 0.283-7e-3 0.424-0.013 0.372-0.021 0.742-0.057 1.111-0.113 0.809-0.124 1.604-0.338 2.366-0.638 1.485-0.586 2.836-1.498 3.938-2.653 1.041-1.093 1.855-2.398 2.374-3.816 0.347-0.946 0.562-1.94 0.638-2.945 0.02-0.262 0.029-0.524 0.032-0.787v-1.033-3e-3c-1e-3 -0.16-1e-3 -0.159-6e-3 -0.319-0.012-0.272-0.031-0.543-0.064-0.814-0.066-0.533-0.178-1.06-0.335-1.574-0.53-1.731-1.569-3.29-2.964-4.444-0.374-0.31-0.773-0.59-1.192-0.838-0.186-0.11-0.376-0.211-0.568-0.31l-14.871-7.435c0 1.861-0.016 3.722 1e-3 5.583 3e-3 0.114 3e-3 0.114 8e-3 0.229 0.026 0.414 0.083 0.824 0.184 1.227 0.144 0.577 0.371 1.126 0.661 1.645l0.024 0.041c-2.383-0.01-4.766-0.017-7.149 0.012-0.263 0.01-0.523 0.039-0.78 0.097-0.509 0.114-0.994 0.329-1.421 0.629-0.185 0.131-0.357 0.278-0.519 0.436l-3.009 3.009v2.828z"/>
        </g>
        <g id="emoji">
            <path d="m14 3.5s7.229 3.614 11.969 5.984c2.47 1.236 4.031 3.761 4.031 6.523v0.968c0 4.984-4.041 9.025-9.025 9.025h-4.975v-5h-1v-3h-1v-7h5s-1.266-0.633-2.525-1.262c-1.517-0.759-2.475-2.309-2.475-4.006v-2.232z" fill="#B1ED9B"/>
            <clipPath id="_clip2">
                <path d="m14 3.5s7.229 3.614 11.969 5.984c2.47 1.236 4.031 3.761 4.031 6.523v0.968c0 4.984-4.041 9.025-9.025 9.025h-4.975v-5h-1v-3h-1v-7h5s-1.266-0.633-2.525-1.262c-1.517-0.759-2.475-2.309-2.475-4.006v-2.232z"/>
            </clipPath>
            <g clip-path="url(#_clip2)">
                <path d="m11.5 11v-2h8.5c0.552 0 1 0.448 1 1s-0.448 1-1 1h-8.5z" fill="#7AC85B"/>
            </g>
            <path d="m12.5 18c-0.828 0-1.5-0.672-1.5-1.5s0.672-1.5 1.5-1.5h4.5v3h-4.5z" fill="#B1ED9B"/>
            <path d="m12.5 22c-0.828 0-1.5-0.672-1.5-1.5s0.672-1.5 1.5-1.5h4.5v3h-4.5z" fill="#B1ED9B"/>
            <path d="m13.5 26c-0.398 0-0.779-0.158-1.061-0.439-0.281-0.282-0.439-0.663-0.439-1.061s0.158-0.779 0.439-1.061c0.282-0.281 0.663-0.439 1.061-0.439h3.5v3h-3.5z" fill="#B1ED9B"/>
            <path d="m17 14h-15l2.414-2.414c0.375-0.375 0.884-0.586 1.414-0.586h11.172" fill="#B1ED9B"/>
        </g>
    </g>
</svg>
