<?xml version="1.0" encoding="UTF-8"?>
<!DOCTYPE svg  PUBLIC '-//W3C//DTD SVG 1.1//EN'  'http://www.w3.org/Graphics/SVG/1.1/DTD/svg11.dtd'>
<svg clip-rule="evenodd" fill-rule="evenodd" stroke-linejoin="round" stroke-miterlimit="2" version="1.1" viewBox="0 0 32 32" xml:space="preserve" xmlns="http://www.w3.org/2000/svg" xmlns:serif="http://www.serif.com/">
<metadata>
<rdf:RDF xmlns:cc="http://web.resource.org/cc/" xmlns:dc="http://purl.org/dc/elements/1.1/" xmlns:rdf="http://www.w3.org/1999/02/22-rdf-syntax-ns#">

     <rdf:Description rdf:about="">
       <dc:title>Mutant Standard emoji 2023.12</dc:title>
     </rdf:Description>

    <cc:work rdf:about="">
        <cc:license rdf:resource="http://creativecommons.org/licenses/by-nc-sa/4.0/"/>
        <cc:attributionName>Caius Nocturne</cc:attributionName>
        <cc:attributionURL>http://mutant.tech/</cc:attributionURL>
    </cc:work>

</rdf:RDF>
</metadata>

    <rect id="pray--clw-" width="32" height="32" fill="none" serif:id="pray [clw]"/>
    <path d="m24 23 6 6v1h-8l-4.707-4.707c-0.188-0.188-0.293-0.442-0.293-0.707v-17.878c0-0.466 0.108-0.925 0.317-1.341 0.564-1.128 1.683-3.367 1.683-3.367s3.584 7.168 4.683 9.367c0.209 0.416 0.317 0.875 0.317 1.341v10.292z" fill="none" stroke="#000" stroke-width="4px"/>
    <path d="m8 23-6 6v1h8l4.707-4.707c0.188-0.188 0.293-0.442 0.293-0.707v-17.878c0-0.466-0.108-0.925-0.317-1.341-0.564-1.128-1.683-3.367-1.683-3.367s-3.584 7.168-4.683 9.367c-0.209 0.416-0.317 0.875-0.317 1.341v10.292z" fill="none" stroke="#000" stroke-width="4px"/>
    <path d="m8 23h1l3.5 3.5v1l-2.5 2.5h-8v-1l6-6z" fill="#8D6148"/>
    <path d="m24 23h-1l-3.5 3.5v1l2.5 2.5h8v-1l-6-6z" fill="#8D6148"/>
    <path d="m8 23 4.5 4.5 2.207-2.207c0.188-0.188 0.293-0.442 0.293-0.707v-17.878c0-0.466-0.108-0.925-0.317-1.341-0.564-1.128-1.683-3.367-1.683-3.367s-3.584 7.168-4.683 9.367c-0.209 0.416-0.317 0.875-0.317 1.341v10.292z" fill="#A77F58"/>
    <clipPath id="_clip1">
        <path d="m8 23 4.5 4.5 2.207-2.207c0.188-0.188 0.293-0.442 0.293-0.707v-17.878c0-0.466-0.108-0.925-0.317-1.341-0.564-1.128-1.683-3.367-1.683-3.367s-3.584 7.168-4.683 9.367c-0.209 0.416-0.317 0.875-0.317 1.341v10.292z"/>
    </clipPath>
    <g clip-path="url(#_clip1)">
        <path d="m11 22c0 1.105 0.895 2 2 2h2c1.105 0 2-0.895 2-2v-9.586c0-0.795-0.316-1.558-0.879-2.121-0.555-0.556-1.707-1.707-1.707-1.707-0.572-0.572-1.432-0.743-2.179-0.434-0.748 0.31-1.235 1.039-1.235 1.848v12zm2 0h2v-9.586c0-0.265-0.105-0.519-0.293-0.707l-1.707-1.707v12z" fill="#4E3629"/>
        <path d="m9 23v-2h7v4l-6-1-1-1z" fill="#A77F58"/>
    </g>
    <path d="m24 23-4.5 4.5-2.207-2.207c-0.188-0.188-0.293-0.442-0.293-0.707v-17.878c0-0.466 0.108-0.925 0.317-1.341 0.564-1.128 1.683-3.367 1.683-3.367s3.584 7.168 4.683 9.367c0.209 0.416 0.317 0.875 0.317 1.341v10.292z" fill="#A77F58"/>
    <clipPath id="_clip2">
        <path d="m24 23-4.5 4.5-2.207-2.207c-0.188-0.188-0.293-0.442-0.293-0.707v-17.878c0-0.466 0.108-0.925 0.317-1.341 0.564-1.128 1.683-3.367 1.683-3.367s3.584 7.168 4.683 9.367c0.209 0.416 0.317 0.875 0.317 1.341v10.292z"/>
    </clipPath>
    <g clip-path="url(#_clip2)">
        <path d="m19 24c1.105 0 2-0.895 2-2v-12c0-0.809-0.487-1.538-1.235-1.848-0.747-0.309-1.607-0.138-2.179 0.434 0 0-1.152 1.151-1.707 1.707-0.563 0.563-0.879 1.326-0.879 2.121v9.586c0 1.105 0.895 2 2 2h2zm0-14c-0.177 0.177-2 1.458-2 2.414-2e-3 3.195 0 6.391 0 9.586h2v-12z" fill="#4E3629"/>
        <path d="m23 23v-2h-7v4l6-1 1-1z" fill="#A77F58"/>
    </g>
</svg>
