<?xml version="1.0" encoding="UTF-8"?>
<!DOCTYPE svg  PUBLIC '-//W3C//DTD SVG 1.1//EN'  'http://www.w3.org/Graphics/SVG/1.1/DTD/svg11.dtd'>
<svg clip-rule="evenodd" fill-rule="evenodd" stroke-linecap="round" stroke-linejoin="round" stroke-miterlimit="2" version="1.1" viewBox="0 0 32 32" xml:space="preserve" xmlns="http://www.w3.org/2000/svg" xmlns:serif="http://www.serif.com/">
<metadata>
<rdf:RDF xmlns:cc="http://web.resource.org/cc/" xmlns:dc="http://purl.org/dc/elements/1.1/" xmlns:rdf="http://www.w3.org/1999/02/22-rdf-syntax-ns#">

     <rdf:Description rdf:about="">
       <dc:title>Mutant Standard emoji 2023.12</dc:title>
     </rdf:Description>

    <cc:work rdf:about="">
        <cc:license rdf:resource="http://creativecommons.org/licenses/by-nc-sa/4.0/"/>
        <cc:attributionName>Caius Nocturne</cc:attributionName>
        <cc:attributionURL>http://mutant.tech/</cc:attributionURL>
    </cc:work>

</rdf:RDF>
</metadata>

    <rect id="punch--clw-" width="32" height="32" fill="none" serif:id="punch [clw]"/>
    <clipPath id="_clip1">
        <rect width="32" height="32"/>
    </clipPath>
    <g clip-path="url(#_clip1)">
        <g id="outline">
            <path d="m3 19.502v-12.673c0-1.291 0.826-2.438 2.051-2.846 1.768-0.589 4.207-1.402 5.333-1.778 0.408-0.136 0.835-0.205 1.265-0.205h11.351c0.796 0 1.559 0.316 2.121 0.879 0.563 0.562 0.879 1.325 0.879 2.121v7l3.414 3.414c0.375 0.375 0.586 0.884 0.586 1.414v9.344c0 0.53-0.211 1.039-0.586 1.414l-1.828 1.828c-0.375 0.375-0.884 0.586-1.414 0.586h-15.172s0.987-1.234 1.98-2.476c1.277-1.595 3.21-2.524 5.253-2.524h2.767v-12h-7v9.502c0 1.38-1.118 2.498-2.498 2.498h-4e-3c-1.38 0-2.498-1.118-2.498-2.498v-9.502h-1v6.502c0 1.38-1.118 2.498-2.498 2.498h-4e-3c-1.38 0-2.498-1.118-2.498-2.498z" fill="none" stroke="#000" stroke-width="4px"/>
        </g>
        <g id="emoji">
            <path d="m5.5 11h16.5v9h1v2.118c0.613-0.632 1-1.118 1-1.118v-7l2-2 2 2 1 9-2 5h-13v-1.5c0-0.828-0.672-1.5-1.5-1.5h-1v-3h-6v-11z" fill="#84511A"/>
            <path d="m28 14 1.707 1.707c0.188 0.188 0.293 0.442 0.293 0.707v9.758c0 0.53-0.211 1.039-0.586 1.414l-1.828 1.828c-0.375 0.375-0.884 0.586-1.414 0.586h-15.172s0.987-1.234 1.98-2.476c0.484-0.604 1.063-1.114 1.706-1.513 0.77 0.619 1.749 0.989 2.814 0.989h2e-3c1.109 0 2.176-0.41 2.999-1.145 0.796 0.712 1.847 1.145 2.999 1.145h2e-3c1.193 0 2.337-0.474 3.181-1.317 0.843-0.844 1.317-1.988 1.317-3.181v-8.502z" fill="#D99561"/>
            <path d="m3 19.502v-12.673c0-1.291 0.826-2.438 2.051-2.846 1.768-0.589 4.207-1.402 5.333-1.778 0.408-0.136 0.835-0.205 1.265-0.205h11.351c0.796 0 1.559 0.316 2.121 0.879 0.563 0.562 0.879 1.325 0.879 2.121v17.502c0 1.38-1.118 2.498-2.498 2.498h-4e-3c-1.38 0-2.498-1.118-2.498-2.498v-9.502h-1v9.502c0 1.38-1.118 2.498-2.498 2.498h-4e-3c-1.38 0-2.498-1.118-2.498-2.498v-9.502h-1v9.502c0 1.38-1.118 2.498-2.498 2.498h-4e-3c-1.38 0-2.498-1.118-2.498-2.498v-9.502h-1v6.502c0 1.38-1.118 2.498-2.498 2.498h-4e-3c-1.38 0-2.498-1.118-2.498-2.498z" fill="#F2C181"/>
        </g>
    </g>
</svg>
