<?xml version="1.0" encoding="UTF-8"?>
<!DOCTYPE svg  PUBLIC '-//W3C//DTD SVG 1.1//EN'  'http://www.w3.org/Graphics/SVG/1.1/DTD/svg11.dtd'>
<svg clip-rule="evenodd" fill-rule="evenodd" stroke-linecap="round" stroke-linejoin="round" stroke-miterlimit="2" version="1.1" viewBox="0 0 32 32" xml:space="preserve" xmlns="http://www.w3.org/2000/svg" xmlns:serif="http://www.serif.com/">
<metadata>
<rdf:RDF xmlns:cc="http://web.resource.org/cc/" xmlns:dc="http://purl.org/dc/elements/1.1/" xmlns:rdf="http://www.w3.org/1999/02/22-rdf-syntax-ns#">

     <rdf:Description rdf:about="">
       <dc:title>Mutant Standard emoji 2023.12</dc:title>
     </rdf:Description>

    <cc:work rdf:about="">
        <cc:license rdf:resource="http://creativecommons.org/licenses/by-nc-sa/4.0/"/>
        <cc:attributionName>Caius Nocturne</cc:attributionName>
        <cc:attributionURL>http://mutant.tech/</cc:attributionURL>
    </cc:work>

</rdf:RDF>
</metadata>

    <rect id="raised_hands--clw-" width="32" height="32" fill="none" serif:id="raised_hands [clw]"/>
    <clipPath id="_clip1">
        <rect width="32" height="32"/>
    </clipPath>
    <g clip-path="url(#_clip1)">
        <g id="outline" fill="none" stroke="#000">
            <path d="m16 4v4" stroke-width="6px"/>
            <path d="m9.5 10.5-3-3" stroke-width="6px"/>
            <path d="m22.5 10.5 3-3" stroke-width="6px"/>
            <path d="m9.319 20.697h0.517v-3.704c0-0.273 0.109-0.536 0.302-0.73l1.247-1.247v8.263s0.443-0.59 0.856-1.14c0.436-0.582 1.122-0.925 1.85-0.925h0.909l-2.832 5.664c-0.638 1.276-1.942 2.082-3.369 2.082h-0.5c-2.574 0-4.661-2.087-4.661-4.661v-5.756c0-0.274 0.109-0.537 0.303-0.731 0.451-0.45 1.247-1.246 1.247-1.246v5.164h0.516v-4.737c0-0.273 0.109-0.536 0.303-0.73l1.247-1.247v6.198h0.516v-4.737c0-0.274 0.109-0.537 0.303-0.73 0.45-0.451 1.246-1.247 1.246-1.247v6.197z" stroke-linecap="butt" stroke-linejoin="miter" stroke-miterlimit="3" stroke-width="4px"/>
            <path d="m22.681 20.697h-0.517v-3.704c0-0.273-0.109-0.536-0.302-0.73l-1.247-1.247v8.263s-0.443-0.59-0.856-1.14c-0.436-0.582-1.122-0.925-1.85-0.925h-0.909l2.832 5.664c0.638 1.276 1.942 2.082 3.369 2.082h0.5c2.574 0 4.661-2.087 4.661-4.661v-5.756c0-0.274-0.109-0.537-0.303-0.731-0.451-0.45-1.247-1.246-1.247-1.246v5.164h-0.516v-4.737c0-0.273-0.109-0.536-0.303-0.73l-1.247-1.247v6.198h-0.516v-4.737c0-0.274-0.109-0.537-0.303-0.73-0.45-0.451-1.246-1.247-1.246-1.247v6.197z" stroke-linecap="butt" stroke-linejoin="miter" stroke-miterlimit="3" stroke-width="4px"/>
        </g>
        <g id="emoji">
            <path d="m16 4v4" fill="none" stroke="#fff" stroke-width="2px"/>
            <path d="m9.5 10.5-3-3" fill="none" stroke="#fff" stroke-width="2px"/>
            <path d="m22.5 10.5 3-3" fill="none" stroke="#fff" stroke-width="2px"/>
            
                <path d="m3.638 21.73 0.259-0.258-0.259-0.258v-2.066l0.259-0.258-0.259-0.259v-0.088c0-0.274 0.109-0.537 0.303-0.731 0.451-0.45 1.247-1.246 1.247-1.246v2.065l-0.258 0.259 0.258 0.258v2.066l-0.258 0.258 0.258 0.258h0.516v-0.516l0.258-0.259-0.258-0.258v-2.066l0.258-0.258-0.258-0.258v-1.122c0-0.273 0.109-0.536 0.303-0.73l1.247-1.247v3.099l-0.259 0.258 0.259 0.258v2.066l-0.259 0.258 0.259 0.259h0.516v-0.517l0.258-0.258-0.258-0.258v-2.582l0.258-0.259-0.258-0.258v-0.605c0-0.274 0.109-0.537 0.303-0.73 0.45-0.451 1.246-1.247 1.246-1.247v2.582l-0.258 0.258 0.258 0.259v2.582l-0.258 0.258 0.258 0.258h0.517l0.258-0.258-0.258-0.258v-2.582l0.258-0.259-0.258-0.258v-0.089c0-0.273 0.109-0.536 0.302-0.73l1.247-1.247v2.066l-0.258 0.258 0.258 0.259v2.582l-0.258 0.258 0.258 0.258v0.395s-0.263 2.288-0.093 2.384l0.275-0.44 0.674-0.897c0.436-0.582 1.122-0.925 1.85-0.925h0.909l-2.832 5.664c-0.638 1.276-1.942 2.082-3.369 2.082h-0.5c-2.574 0-4.661-2.087-4.661-4.661v-2.569z" fill="#FFC20B"/>
                <path d="m11.385 23.279 0.182-0.243-0.738 1.478c-0.17-0.096-0.338-0.194-0.508-0.289-0.033-0.017-0.066-0.033-0.101-0.048-0.147-0.063-0.301-0.105-0.46-0.119-0.408-0.036-0.819 0.106-1.118 0.385-0.118 0.11-0.214 0.238-0.291 0.379-0.217 0.421-0.424 0.847-0.636 1.27-0.036 0.068-0.081 0.127-0.142 0.175-0.051 0.04-0.109 0.071-0.172 0.089-0.051 0.016-0.106 0.023-0.16 0.022-0.175-4e-3 -0.34-0.1-0.43-0.25-0.028-0.046-0.049-0.097-0.06-0.15-0.018-0.074-0.018-0.151-3e-3 -0.225 8e-3 -0.032 0.018-0.062 0.03-0.093 0.198-0.43 0.422-0.847 0.634-1.27 0.048-0.093 0.1-0.184 0.158-0.271 0.117-0.174 0.257-0.334 0.413-0.473 0.22-0.195 0.475-0.351 0.749-0.458 0.519-0.201 1.102-0.224 1.634-0.058l1.019-2.038v2.187z" fill="#CE8D15"/>
                <g fill="#CE8D15">
                    <rect x="9.836" y="17.082" width="1.549" height=".516"/>
                    <rect x="9.836" y="20.181" width="1.549" height=".516"/>
                    <rect x="7.77" y="17.082" width="1.549" height=".516"/>
                    <rect x="7.77" y="20.181" width="1.549" height=".516"/>
                    <rect x="5.704" y="18.115" width="1.549" height=".516"/>
                    <rect x="5.704" y="20.697" width="1.549" height=".516"/>
                    <rect x="3.638" y="18.631" width="1.549" height=".516"/>
                    <rect x="3.638" y="21.214" width="1.549" height=".516"/>
                </g>
            
            
                <path d="m22.681 20.697 0.258-0.258-0.258-0.258v-2.582l0.258-0.259-0.258-0.258v-2.582s0.796 0.796 1.246 1.247c0.194 0.193 0.303 0.456 0.303 0.73v0.605l-0.258 0.258 0.258 0.259v2.582l-0.258 0.258 0.258 0.258v0.517h0.516l0.259-0.259-0.259-0.258v-2.066l0.259-0.258-0.259-0.258v-3.099l1.247 1.247c0.194 0.194 0.303 0.457 0.303 0.73v1.122l-0.258 0.258 0.258 0.258v2.066l-0.258 0.258 0.258 0.259v0.516h0.516l0.258-0.258-0.258-0.258v-2.066l0.258-0.258-0.258-0.259v-2.065s0.796 0.796 1.247 1.246c0.194 0.194 0.303 0.457 0.303 0.731v0.088l-0.259 0.259 0.259 0.258v2.066l-0.259 0.258 0.259 0.258v2.569c0 2.574-2.087 4.661-4.661 4.661h-0.5c-1.427 0-2.731-0.806-3.369-2.082-1.146-2.292-2.828-5.657-2.832-5.664h0.909c0.728 0 1.414 0.343 1.85 0.925l0.674 0.897 0.6 0.933c0.17-0.096-0.418-2.877-0.418-2.877v-0.395l0.258-0.258-0.258-0.258v-2.582l0.258-0.259-0.258-0.258v-2.066l1.247 1.247c0.193 0.194 0.302 0.457 0.302 0.73v0.089l-0.258 0.258 0.258 0.259v2.582l-0.258 0.258 0.258 0.258h0.517z" fill="#FFC20B"/>
                <path d="m20.615 21.092 1.019 2.038c0.532-0.166 1.115-0.143 1.634 0.058 0.274 0.107 0.529 0.263 0.749 0.458 0.156 0.139 0.296 0.299 0.413 0.473 0.058 0.087 0.11 0.178 0.158 0.271 0.212 0.423 0.436 0.84 0.634 1.27 0.012 0.031 0.022 0.061 0.03 0.093 0.015 0.074 0.015 0.151-3e-3 0.225-0.011 0.053-0.032 0.104-0.06 0.15-0.09 0.15-0.255 0.246-0.43 0.25-0.054 1e-3 -0.109-6e-3 -0.16-0.022-0.063-0.018-0.121-0.049-0.172-0.089-0.061-0.048-0.106-0.107-0.142-0.175-0.212-0.423-0.419-0.849-0.636-1.27-0.077-0.141-0.173-0.269-0.291-0.379-0.299-0.279-0.71-0.421-1.118-0.385-0.159 0.014-0.313 0.056-0.46 0.119-0.035 0.015-0.068 0.031-0.101 0.048-0.17 0.095-0.338 0.193-0.508 0.289l-0.738-1.478 0.182 0.243v-2.187z" fill="#CE8D15"/>
                <g fill="#CE8D15">
                    <rect x="20.615" y="17.082" width="1.549" height=".516"/>
                    <rect x="20.615" y="20.181" width="1.549" height=".516"/>
                    <rect x="22.681" y="17.082" width="1.549" height=".516"/>
                    <rect x="22.681" y="20.181" width="1.549" height=".516"/>
                    <rect x="24.746" y="18.115" width="1.549" height=".516"/>
                    <rect x="24.746" y="20.697" width="1.549" height=".516"/>
                    <rect x="26.812" y="18.631" width="1.549" height=".516"/>
                    <rect x="26.812" y="21.214" width="1.549" height=".516"/>
                </g>
            
        </g>
    </g>
</svg>
