<?xml version="1.0" encoding="UTF-8"?>
<!DOCTYPE svg  PUBLIC '-//W3C//DTD SVG 1.1//EN'  'http://www.w3.org/Graphics/SVG/1.1/DTD/svg11.dtd'>
<svg clip-rule="evenodd" fill-rule="evenodd" stroke-linejoin="round" stroke-miterlimit="2" version="1.1" viewBox="0 0 32 32" xml:space="preserve" xmlns="http://www.w3.org/2000/svg" xmlns:serif="http://www.serif.com/">
<metadata>
<rdf:RDF xmlns:cc="http://web.resource.org/cc/" xmlns:dc="http://purl.org/dc/elements/1.1/" xmlns:rdf="http://www.w3.org/1999/02/22-rdf-syntax-ns#">

     <rdf:Description rdf:about="">
       <dc:title>Mutant Standard emoji 2023.12</dc:title>
     </rdf:Description>

    <cc:work rdf:about="">
        <cc:license rdf:resource="http://creativecommons.org/licenses/by-nc-sa/4.0/"/>
        <cc:attributionName>Caius Nocturne</cc:attributionName>
        <cc:attributionURL>http://mutant.tech/</cc:attributionURL>
    </cc:work>

</rdf:RDF>
</metadata>

    <rect id="selfie--clw-" width="32" height="32" fill="none" serif:id="selfie [clw]"/>
    <clipPath id="_clip1">
        <rect width="32" height="32"/>
    </clipPath>
    <g clip-path="url(#_clip1)">
        <g id="outline">
            <path d="m11.236 8h2.732c6e-3 -1.366 0.017-2.733 0.033-4.099 0.016-0.427 0.089-0.847 0.233-1.251 0.166-0.46 0.416-0.89 0.735-1.261 0.428-0.497 0.979-0.885 1.591-1.121 0.43-0.166 0.881-0.25 1.341-0.267 2.066-0.025 4.132-0.025 6.198 0 0.46 0.017 0.911 0.101 1.341 0.267 0.612 0.236 1.163 0.624 1.591 1.121 0.278 0.323 0.504 0.691 0.667 1.085l1.363-1.364c0.313 0.13 0.626 0.259 0.939 0.389v15.857l-2e-3 0.136c-0.014 0.395-0.058 0.785-0.145 1.171-0.183 0.811-0.536 1.582-1.03 2.25-0.175 0.235-0.367 0.454-0.571 0.664l-1.531 1.531-3.335 8.892h-14.851l-0.067-0.122 5.862-9.38-1.742-1.307c-0.087-0.067-0.087-0.067-0.172-0.137-0.234-0.205-0.449-0.427-0.634-0.677-0.365-0.495-0.614-1.074-0.721-1.679-0.04-0.226-0.058-0.454-0.061-0.683v-1.772l-1.879 1.878c-1.17 1.171-3.072 1.171-4.242 0-1.171-1.17-1.171-3.072 0-4.242l0.878-0.879h-0.757c-1.656 0-3-1.344-3-3s1.344-3 3-3h0.757l-0.878-0.879c-1.171-1.17-1.171-3.072 0-4.242 1.17-1.171 3.072-1.171 4.242 0l2 2c1.132 1.131 1.17 2.944 0.115 4.121z"/>
        </g>
        <g id="emoji">
            <path d="m13 12v6c0 0.63 0.296 1.222 0.8 1.6 1.167 0.875 3.2 2.4 3.2 2.4v1h7l2.828-2.828c0.751-0.751 1.172-1.768 1.172-2.829v-12.343l-3 3-6 4h-6z" fill="#F2B38F"/>
            <path d="m17 22h8l-3 8h-10l5-8z" fill="#E08854"/>
            
                <path d="m26 4c0-0.53-0.211-1.039-0.586-1.414s-0.884-0.586-1.414-0.586h-6c-0.53 0-1.039 0.211-1.414 0.586s-0.586 0.884-0.586 1.414v12c0 0.53 0.211 1.039 0.586 1.414s0.884 0.586 1.414 0.586h6c0.53 0 1.039-0.211 1.414-0.586s0.586-0.884 0.586-1.414v-12z" fill="#fff"/>
                <path d="m23 3h1c0.552 0 1 0.448 1 1v12c0 0.552-0.448 1-1 1h-6c-0.552 0-1-0.448-1-1v-12c0-0.552 0.448-1 1-1h1v1h4v-1z"/>
                <path d="m22 11c1.105 0 2 0.895 2 2v4h-6v-4c0-1.105 0.895-2 2-2h2zm-1-5c1.104 0 2 0.896 2 2s-0.896 2-2 2-2-0.896-2-2 0.896-2 2-2z" fill="#333"/>
            
            <path d="m13 10h9s-0.382 0.573-0.813 1.219c-0.741 1.113-1.99 1.781-3.328 1.781h-4.859v-3z" fill="#F2B38F"/>
            <path d="m8.293 13.293-2 2c-0.39 0.39-0.39 1.024 0 1.414s1.024 0.39 1.414 0l2-2c0.39-0.39 0.39-1.024 0-1.414s-1.024-0.39-1.414 0zm0.707-2.293h-4c-0.552 0-1-0.448-1-1s0.448-1 1-1h4c0.552 0 1 0.448 1 1s-0.448 1-1 1zm0.707-5.707-2-2c-0.39-0.39-1.024-0.39-1.414 0s-0.39 1.024 0 1.414l2 2c0.39 0.39 1.024 0.39 1.414 0s0.39-1.024 0-1.414z" fill="#fff"/>
        </g>
    </g>
</svg>
