<?xml version="1.0" encoding="UTF-8"?>
<!DOCTYPE svg  PUBLIC '-//W3C//DTD SVG 1.1//EN'  'http://www.w3.org/Graphics/SVG/1.1/DTD/svg11.dtd'>
<svg clip-rule="evenodd" fill-rule="evenodd" stroke-linejoin="round" stroke-miterlimit="2" version="1.1" viewBox="0 0 32 32" xml:space="preserve" xmlns="http://www.w3.org/2000/svg" xmlns:serif="http://www.serif.com/">
<metadata>
<rdf:RDF xmlns:cc="http://web.resource.org/cc/" xmlns:dc="http://purl.org/dc/elements/1.1/" xmlns:rdf="http://www.w3.org/1999/02/22-rdf-syntax-ns#">

     <rdf:Description rdf:about="">
       <dc:title>Mutant Standard emoji 2023.12</dc:title>
     </rdf:Description>

    <cc:work rdf:about="">
        <cc:license rdf:resource="http://creativecommons.org/licenses/by-nc-sa/4.0/"/>
        <cc:attributionName>Caius Nocturne</cc:attributionName>
        <cc:attributionURL>http://mutant.tech/</cc:attributionURL>
    </cc:work>

</rdf:RDF>
</metadata>

    <rect id="thumbs_down--clw-" width="32" height="32" fill="none" serif:id="thumbs_down [clw]"/>
    <clipPath id="_clip1">
        <rect width="32" height="32"/>
    </clipPath>
    <g clip-path="url(#_clip1)">
        <g id="outline">
            <path d="m12.828 32 4.423-4.423c0.239-0.245 0.461-0.504 0.658-0.784 0.45-0.64 0.772-1.367 0.944-2.13 0.087-0.386 0.131-0.776 0.145-1.171 9e-3 -0.678 2e-3 -1.356 2e-3 -2.035-3e-3 -0.227-0.021-0.453-0.06-0.677-0.067-0.378-0.19-0.739-0.356-1.084l-0.338-0.677c2.781 0.011 5.562 0.015 8.344-0.02 0.147-6e-3 0.294-0.017 0.44-0.039 0.343-0.052 0.677-0.156 0.989-0.306 0.404-0.195 0.77-0.468 1.071-0.8 0.285-0.313 0.512-0.677 0.667-1.07 0.15-0.38 0.232-0.786 0.242-1.194 9e-3 -0.353-0.035-0.707-0.132-1.047-0.101-0.356-0.259-0.695-0.466-1.001-9e-3 -0.014-0.019-0.028-0.029-0.042 0.177-0.253 0.319-0.529 0.423-0.82 0.136-0.378 0.205-0.779 0.205-1.18 0-0.573-0.142-1.143-0.412-1.648-0.065-0.121-0.137-0.239-0.216-0.352 0.156-0.223 0.285-0.463 0.385-0.716 0.15-0.38 0.232-0.786 0.242-1.195 9e-3 -0.353-0.035-0.706-0.132-1.046-0.124-0.437-0.334-0.848-0.614-1.205-0.149-0.189-0.317-0.363-0.501-0.517 5e-3 -0.014 0.01-0.027 0.016-0.04 0.132-0.344 0.21-0.709 0.228-1.077 0.034-0.693-0.14-1.391-0.496-1.986-0.209-0.349-0.478-0.661-0.793-0.919-0.267-0.219-0.567-0.398-0.886-0.53-0.425-0.177-0.879-0.263-1.339-0.269h-20.489l-0.095 1e-3c-0.102 4e-3 -0.102 4e-3 -0.204 0.01-0.398 0.036-0.788 0.12-1.161 0.267-1.055 0.416-1.9 1.282-2.29 2.347-0.15 0.41-0.225 0.837-0.242 1.273-0.039 3.068-0.039 6.136 0 9.204 5e-3 0.136 0.014 0.27 0.031 0.405 0.042 0.329 0.124 0.652 0.246 0.96 0.236 0.598 0.618 1.136 1.104 1.557 0.39 0.338 0.846 0.6 1.335 0.766 0.411 0.138 0.838 0.205 1.27 0.21h2.777l3.236 6.472v8.528h1.828z"/>
        </g>
        <g id="emoji">
            <path d="m17.5 15h-12.5c-0.53 0-1.039-0.211-1.414-0.586s-0.586-0.884-0.586-1.414v-9c0-0.53 0.211-1.039 0.586-1.414s0.884-0.586 1.414-0.586h12.5v13z" fill="#373087"/>
            <path d="m20.599 2h-9.574c-0.803 0-1.572 0.319-2.139 0.886s-0.886 1.336-0.886 2.139v6.253c0 1.133 0.264 2.249 0.77 3.262l1.73 3.46 2.5 0.5 2.618-0.5c0-0.183 0.05-0.365 0.149-0.526 0.177-0.285 0.484-0.463 0.818-0.473l3.915-0.692s0.037-14.255 0.099-14.309zm-3.599 20v-0.528c0-0.31-0.072-0.617-0.211-0.894l-0.789-1.578-3-0.5-2 0.5 1.5 3 2.5 0.5 2-0.5zm-4 1v6l2.828-2.828c0.751-0.751 1.172-1.768 1.172-2.829v-0.343l-2-0.5-2 0.5z" fill="#434895"/>
            <path d="m16.585 17.001 0.017-1e-3h0.016 9.882v-1.496h0.5v-12.004h-1.5v-1.5h-4.901c-0.062 0.054-0.122 0.11-0.18 0.167l-3.833 3.833s1.477 2e-3 2.01 2e-3c-0.06 0.054-0.12 0.109-0.177 0.165l-3.833 3.833s2.869 6e-3 4.003 9e-3c-0.058 0.051-0.115 0.104-0.17 0.158l-3.833 3.833s3.49 9e-3 4.998 0.013c-0.056 0.05-0.111 0.101-0.165 0.154l-2.834 2.834z" fill="#1D1659"/>
            <path d="m16 19-0.276-0.553c-0.071-0.141-0.106-0.294-0.106-0.447h-5.118l0.5 1h5zm1 3h-4.5l0.5 1h4v-1z" fill="#373087"/>
            <path d="m25.5 2h-2.257c-0.796 0-1.559 0.316-2.122 0.879l-2.121 2.121h6.5c0.398 0 0.779-0.158 1.061-0.439 0.281-0.282 0.439-0.663 0.439-1.061s-0.158-0.779-0.439-1.061c-0.282-0.281-0.663-0.439-1.061-0.439zm1 7c0.398 0 0.779-0.158 1.061-0.439 0.281-0.282 0.439-0.663 0.439-1.061s-0.158-0.779-0.439-1.061c-0.282-0.281-0.663-0.439-1.061-0.439h-5.257c-0.247 1e-3 -0.493 0.03-0.732 0.09-0.523 0.132-1.008 0.407-1.39 0.789l-2.121 2.121h9.5zm2e-3 4c0.827 0 1.498-0.671 1.498-1.498v-2e-3c0-0.398-0.158-0.779-0.439-1.061-0.282-0.281-0.663-0.439-1.061-0.439h-5.257c-0.247 1e-3 -0.493 0.03-0.732 0.09-0.523 0.132-1.008 0.407-1.39 0.789l-2.121 2.121h9.502zm0 4c0.397 0 0.778-0.158 1.059-0.439s0.439-0.662 0.439-1.059v-2e-3c0-0.398-0.158-0.779-0.439-1.061-0.282-0.281-0.663-0.439-1.061-0.439h-4.257c-0.247 1e-3 -0.492 0.03-0.732 0.09-0.523 0.132-1.008 0.407-1.39 0.789l-2.121 2.121h8.502z" fill="#434895"/>
        </g>
    </g>
</svg>
