<?xml version="1.0" encoding="UTF-8"?>
<!DOCTYPE svg  PUBLIC '-//W3C//DTD SVG 1.1//EN'  'http://www.w3.org/Graphics/SVG/1.1/DTD/svg11.dtd'>
<svg clip-rule="evenodd" fill-rule="evenodd" stroke-linejoin="round" stroke-miterlimit="2" version="1.1" viewBox="0 0 32 32" xml:space="preserve" xmlns="http://www.w3.org/2000/svg" xmlns:serif="http://www.serif.com/">
<metadata>
<rdf:RDF xmlns:cc="http://web.resource.org/cc/" xmlns:dc="http://purl.org/dc/elements/1.1/" xmlns:rdf="http://www.w3.org/1999/02/22-rdf-syntax-ns#">

     <rdf:Description rdf:about="">
       <dc:title>Mutant Standard emoji 2023.12</dc:title>
     </rdf:Description>

    <cc:work rdf:about="">
        <cc:license rdf:resource="http://creativecommons.org/licenses/by-nc-sa/4.0/"/>
        <cc:attributionName>Caius Nocturne</cc:attributionName>
        <cc:attributionURL>http://mutant.tech/</cc:attributionURL>
    </cc:work>

</rdf:RDF>
</metadata>

    <rect id="v--clw-" width="32" height="32" fill="none" serif:id="v [clw]"/>
    <clipPath id="_clip1">
        <rect width="32" height="32"/>
    </clipPath>
    <g clip-path="url(#_clip1)">
        <g id="outline">
            <path d="m12.905 8.051-1.591-6.365 1.557-1.557 4.694 2.716c0.246 0.144 0.478 0.311 0.689 0.504 0.505 0.459 0.888 1.048 1.103 1.696 0.032 0.096 0.06 0.194 0.085 0.292 0.103 0.411 0.309 1.235 0.309 1.235s0.206-0.824 0.309-1.235c0.024-0.098 0.053-0.196 0.084-0.292 0.216-0.648 0.599-1.237 1.104-1.696 0.211-0.193 0.443-0.36 0.689-0.504l4.376-2.532 1.775 1.775-3.088 12.35v2.335c1.232 0.71 2 2.028 2 3.463v2.471c0 2.465-0.979 4.828-2.722 6.571s-4.106 2.722-6.571 2.722h-0.682c-6.089 0-11.025-4.936-11.025-11.025v-8.475c0-0.928 0.369-1.818 1.025-2.475 0.656-0.656 1.547-1.025 2.475-1.025l0.174 4e-3c0.394 0.02 0.779 0.106 1.14 0.252 0.067-0.08 0.137-0.157 0.211-0.231 0.515-0.514 1.173-0.852 1.88-0.974z"/>
        </g>
        <g id="emoji">
            <path d="m14.346 11 1.086-1.086 1.568 0.086v7h-3l0.617 1.543c0.312 0.78 0.79 1.46 1.383 2.005v2.866l-4-4v3l-3.828-3.828c-0.06-0.059-0.117-0.12-0.172-0.183v-2.403l1.5-5h4.846z" fill="#5E0D79"/>
            <path d="m14.108 17.27 3.096-0.27-1.155-4.622 1.215-0.769 1.695 0.042 0.587 2.349h0.41l0.587-2.349c1.525 6e-3 1.54 0.059 2.91 0.728l-0.453 1.812v1.809l-0.603 0.603-0.159 0.635 0.762 0.762 0.894 0.447c0.678 0.339 1.106 1.032 1.106 1.789v2.471c0 1.934-0.768 3.789-2.136 5.157s-3.223 2.136-5.157 2.136h-0.682c-4.984 0-9.025-4.041-9.025-9.025v-2.572c0.055 0.063 0.112 0.124 0.172 0.183l3.828 3.828v-3l2.783 2.783 1.019 1.624 0.347-0.23 0.351-0.789-0.5-2.254c-0.593-0.545-1.071-1.225-1.383-2.005l-0.509-1.273zm10.345-8.891-0.757 3.03-1.578 0.273-1.333-1.001 0.758-3.03 1.434-0.154 1.476 0.882zm-9.021 1.535-0.383-1.536 1.451-0.878 1.459 0.151 0.757 3.03-1.368 0.765-1.35-0.033c-0.019-0.55-0.218-1.076-0.566-1.499zm-1.751-7.006c0.961 0.556 1.921 1.112 2.882 1.668 0.325 0.188 0.594 0.468 0.769 0.801 0.074 0.141 0.13 0.29 0.17 0.445l0.214 0.859-1.509 0.788-1.401-0.061-1.125-4.5zm11.015 4.501-1.724 0.022-1.187-0.75 0.215-0.859c0.04-0.155 0.096-0.304 0.17-0.445 0.175-0.333 0.443-0.613 0.769-0.801 0.96-0.556 1.921-1.112 2.882-1.668l-1.125 4.501z" fill="#D445D9"/>
            <path d="m16 20.134c0.281-0.162 0.636-0.184 0.947-0.028 0.494 0.246 0.694 0.848 0.447 1.341l-2 4c-0.246 0.494-0.848 0.694-1.341 0.447-0.494-0.246-0.694-0.848-0.447-1.341l1.177-2.356 1.217 1.217v-3.28z" fill="#9F1BC0"/>
            <path d="m23.696 11.409-0.243 0.97-2.91-0.728 0.242-0.97 2.911 0.728zm1-4-0.243 0.97-2.91-0.728 0.242-0.97 2.911 0.728z" fill="#9F1BC0" fill-rule="nonzero"/>
            <g fill="#D445D9">
                <path d="m12 11.5c0-0.398 0.158-0.779 0.439-1.061 0.282-0.281 0.663-0.439 1.061-0.439s0.779 0.158 1.061 0.439c0.281 0.282 0.439 0.663 0.439 1.061v9.5l-2.414-2.414c-0.375-0.375-0.586-0.884-0.586-1.414v-5.672z"/>
                <path d="m8 12.468c0-0.389 0.155-0.763 0.43-1.038s0.649-0.43 1.038-0.43h2e-3c0.845 0 1.53 0.685 1.53 1.53v7.47l-2.121-2.121c-0.563-0.563-0.879-1.326-0.879-2.122v-3.289z"/>
            </g>
            <path d="m15.996 11.361 2.72-0.68 0.243 0.97-2.91 0.727-0.049-0.194v-0.684c0-0.041-1e-3 -0.083-3e-3 -0.124l-1e-3 -0.015zm1.963-3.71-2.91 0.727-0.243-0.97 2.91-0.727 0.243 0.97z" fill="#9F1BC0" fill-rule="nonzero"/>
            <path d="m23 18h-7.523l0.069 0.171c0.683 1.709 2.338 2.829 4.178 2.829h0.69l2.293 2.293-1.414 1.414-1.709-1.709c-2.601-0.055-4.926-1.659-5.895-4.084l-1.166-2.914h10.477v2z" fill="#5E0D79"/>
        </g>
    </g>
</svg>
