<?xml version="1.0" encoding="UTF-8"?>
<!DOCTYPE svg  PUBLIC '-//W3C//DTD SVG 1.1//EN'  'http://www.w3.org/Graphics/SVG/1.1/DTD/svg11.dtd'>
<svg clip-rule="evenodd" fill-rule="evenodd" stroke-linecap="round" stroke-linejoin="round" stroke-miterlimit="2" version="1.1" viewBox="0 0 32 32" xml:space="preserve" xmlns="http://www.w3.org/2000/svg" xmlns:serif="http://www.serif.com/">
<metadata>
<rdf:RDF xmlns:cc="http://web.resource.org/cc/" xmlns:dc="http://purl.org/dc/elements/1.1/" xmlns:rdf="http://www.w3.org/1999/02/22-rdf-syntax-ns#">

     <rdf:Description rdf:about="">
       <dc:title>Mutant Standard emoji 2023.12</dc:title>
     </rdf:Description>

    <cc:work rdf:about="">
        <cc:license rdf:resource="http://creativecommons.org/licenses/by-nc-sa/4.0/"/>
        <cc:attributionName>Caius Nocturne</cc:attributionName>
        <cc:attributionURL>http://mutant.tech/</cc:attributionURL>
    </cc:work>

</rdf:RDF>
</metadata>

    <rect id="writing_hand--clw-" width="32" height="32" fill="none" serif:id="writing_hand [clw]"/>
    <clipPath id="_clip1">
        <rect width="32" height="32"/>
    </clipPath>
    <g clip-path="url(#_clip1)">
        <g id="outline">
            <rect x="9" y="23" width="13" height="2" fill="none" stroke="#000" stroke-width="4px"/>
            <path d="m12 12.273s-3.575 1.625-5.206 2.366c-0.506 0.23-0.894 0.661-1.07 1.188-0.742 2.226-2.724 8.173-2.724 8.173 1.657 0.552 3.448-0.343 4-2l1-3 7-3.5" fill="none" stroke="#000" stroke-linejoin="miter" stroke-width="4px"/>
            <path d="m21 23h-8l-1.564 1.564c-0.919 0.919-2.167 1.436-3.467 1.436h-0.782c-0.774 0-1.531-0.229-2.175-0.658-0.874-0.583-2.012-1.342-2.012-1.342l5-2s1.175-2.35 1.724-3.447c0.169-0.339 0.515-0.553 0.894-0.553h10.382" fill="none" stroke="#000" stroke-width="4px"/>
            <rect y="16" width="25" height="11" fill="none"/>
            <clipPath id="_clip2">
                <rect y="16" width="25" height="11"/>
            </clipPath>
            <g clip-path="url(#_clip2)">
                <path d="m21 23h-8l-1.564 1.564c-0.919 0.919-2.167 1.436-3.467 1.436h-0.782c-0.774 0-1.531-0.229-2.175-0.658-0.874-0.583-2.012-1.342-2.012-1.342l5-2s1.175-2.35 1.724-3.447c0.169-0.339 0.515-0.553 0.894-0.553h10.382" fill="none" stroke="#000" stroke-width="8px"/>
            </g>
            <path d="m16 23s0.927 0.464 1.889 0.944c1.388 0.695 2.919 1.056 4.472 1.056h7.639v-7.012h-2.989s-5.804-4.631-8.573-6.841c-0.882-0.704-2.085-0.853-3.113-0.386-1.775 0.807-4.325 1.966-4.325 1.966l1 4.273 2.682-1.341c0.787-0.394 1.738-0.239 2.36 0.383l0.251 0.251c0.286 0.286 0.371 0.716 0.217 1.09-0.155 0.373-0.52 0.617-0.924 0.617h-0.586" fill="none" stroke="#000" stroke-width="4px"/>
            <path d="m2 25.5v1.5h1.5l11.5-11.5-1.5-1.5-11.5 11.5z" fill="none" stroke="#000" stroke-linejoin="miter" stroke-width="4px"/>
            <path d="m11 16.5 1.5 1.5 12-12-1.5-1.5-12 12z" fill="none" stroke="#000" stroke-width="4px"/>
        </g>
        <g id="emoji">
            <rect x="9" y="23" width="13" height="2" fill="#112747"/>
            <path d="m12 12.273s-3.575 1.625-5.206 2.366c-0.506 0.23-0.894 0.661-1.07 1.188-0.742 2.226-2.724 8.173-2.724 8.173 1.657 0.552 3.448-0.343 4-2l1-3 7-3.5" fill="#1F5F7D"/>
            <clipPath id="_clip3">
                <path d="m12 12.273s-3.575 1.625-5.206 2.366c-0.506 0.23-0.894 0.661-1.07 1.188-0.742 2.226-2.724 8.173-2.724 8.173 1.657 0.552 3.448-0.343 4-2l1-3 7-3.5"/>
            </clipPath>
            <g clip-path="url(#_clip3)" fill="none" stroke="#1A466A">
                <path d="m3 24s8.649-5.988 11.838-8.195c0.673-0.466 1.583-0.384 2.162 0.195" stroke-width="4px"/>
                <path d="m5 14 6 6" stroke-linecap="square" stroke-linejoin="miter" stroke-miterlimit="1.414" stroke-width="1px"/>
            </g>
            <path d="m3.5 27 4-4h3.5v-4h4v-5h-15v13h3.5z" fill="none"/>
            <clipPath id="_clip4">
                <path d="m3.5 27 4-4h3.5v-4h4v-5h-15v13h3.5z"/>
            </clipPath>
            <g clip-path="url(#_clip4)">
                <path d="m2 25.5v1.5h1.5l11.5-11.5-1.5-1.5-11.5 11.5z" fill="#fff"/>
                <path d="m21 23h-8l-1.564 1.564c-0.919 0.919-2.167 1.436-3.467 1.436h-0.782c-0.774 0-1.531-0.229-2.175-0.658-0.874-0.583-2.012-1.342-2.012-1.342l5-2s1.175-2.35 1.724-3.447c0.169-0.339 0.515-0.553 0.894-0.553h10.382" fill="none" stroke="#112747" stroke-width="4px"/>
                <path d="m14.5 16-2 2h3.5v-2h-1.5z"/>
            </g>
            <path d="m21 23h-8l-1.564 1.564c-0.919 0.919-2.167 1.436-3.467 1.436h-0.782c-0.774 0-1.531-0.229-2.175-0.658-0.874-0.583-2.012-1.342-2.012-1.342l5-2s1.175-2.35 1.724-3.447c0.169-0.339 0.515-0.553 0.894-0.553h10.382" fill="#1F5F7D"/>
            <clipPath id="_clip5">
                <path d="m21 23h-8l-1.564 1.564c-0.919 0.919-2.167 1.436-3.467 1.436h-0.782c-0.774 0-1.531-0.229-2.175-0.658-0.874-0.583-2.012-1.342-2.012-1.342l5-2s1.175-2.35 1.724-3.447c0.169-0.339 0.515-0.553 0.894-0.553h10.382"/>
            </clipPath>
            <g clip-path="url(#_clip5)" fill="none" stroke="#1A466A" stroke-linecap="square" stroke-linejoin="miter" stroke-miterlimit="1.414" stroke-width="1px">
                <path d="m7 21 5 5"/>
                <path d="m10 17 4 8"/>
            </g>
            <path d="m16 23s0.927 0.464 1.889 0.944c1.388 0.695 2.919 1.056 4.472 1.056h7.639v-7.012h-2.989s-5.804-4.631-8.573-6.841c-0.882-0.704-2.085-0.853-3.113-0.386-1.775 0.807-4.325 1.966-4.325 1.966l3 3.273 0.682-0.341c0.787-0.394 1.738-0.239 2.36 0.383l0.251 0.251c0.286 0.286 0.371 0.716 0.217 1.09-0.155 0.373-0.52 0.617-0.924 0.617h-0.586" fill="#1F5F7D"/>
            <clipPath id="_clip6">
                <path d="m16 23s0.927 0.464 1.889 0.944c1.388 0.695 2.919 1.056 4.472 1.056h7.639v-7.012h-2.989s-5.804-4.631-8.573-6.841c-0.882-0.704-2.085-0.853-3.113-0.386-1.775 0.807-4.325 1.966-4.325 1.966l3 3.273 0.682-0.341c0.787-0.394 1.738-0.239 2.36 0.383l0.251 0.251c0.286 0.286 0.371 0.716 0.217 1.09-0.155 0.373-0.52 0.617-0.924 0.617h-0.586"/>
            </clipPath>
            <g clip-path="url(#_clip6)">
                <rect x="26" y="17" width="5" height="10" fill="#1A466A"/>
                <path d="m3 24s8.649-5.988 11.838-8.195c0.673-0.466 1.583-0.384 2.162 0.195" fill="none" stroke="#1A466A" stroke-width="4px"/>
                <path d="m15.5 15 7-7" fill="none" stroke="#1A466A" stroke-miterlimit="1.5" stroke-width="4px"/>
                <path d="m12 11 3 6" fill="none" stroke="#1A466A" stroke-linecap="square" stroke-linejoin="miter" stroke-miterlimit="1.414" stroke-width="1px"/>
            </g>
            <path d="m11.5 16h3l10-10-1.5-1.5-11.5 11.5z" fill="#fff"/>
        </g>
    </g>
</svg>
