<?xml version="1.0" encoding="UTF-8"?>
<!DOCTYPE svg  PUBLIC '-//W3C//DTD SVG 1.1//EN'  'http://www.w3.org/Graphics/SVG/1.1/DTD/svg11.dtd'>
<svg clip-rule="evenodd" fill-rule="evenodd" stroke-linejoin="round" stroke-miterlimit="1.5" version="1.1" viewBox="0 0 32 32" xml:space="preserve" xmlns="http://www.w3.org/2000/svg">
<metadata>
<rdf:RDF xmlns:cc="http://web.resource.org/cc/" xmlns:dc="http://purl.org/dc/elements/1.1/" xmlns:rdf="http://www.w3.org/1999/02/22-rdf-syntax-ns#">

     <rdf:Description rdf:about="">
       <dc:title>Mutant Standard emoji 2023.12</dc:title>
     </rdf:Description>

    <cc:work rdf:about="">
        <cc:license rdf:resource="http://creativecommons.org/licenses/by-nc-sa/4.0/"/>
        <cc:attributionName>Caius Nocturne</cc:attributionName>
        <cc:attributionURL>http://mutant.tech/</cc:attributionURL>
    </cc:work>

</rdf:RDF>
</metadata>

    <rect id="bugbear" width="32" height="32" fill="none"/>
    <g id="outline">
        <path d="m22.989 8.098c1.777-1.477 3.885-2.514 6.152-3.018 0.224-0.05 0.359-0.08 0.359-0.08s0.156 1.095 0.346 2.419c0.379 2.657-0.721 5.297-2.846 6.899v1.52c0 2.094-0.338 4.175-1 6.162l-1.375-2.063-0.286 0.716c-0.872 2.18-2.385 4.044-4.339 5.347l-0.183-1.831c-0.933 1.317-2.266 2.314-3.817 2.831-1.551-0.517-2.884-1.514-3.817-2.831l-0.183 1.831c-1.954-1.303-3.467-3.167-4.339-5.347l-0.286-0.715-1.375 2.062c-0.662-1.987-1-4.068-1-6.162v-1.52c-2.125-1.602-3.225-4.242-2.846-6.899 0.19-1.324 0.346-2.419 0.346-2.419s0.135 0.03 0.359 0.08c2.267 0.504 4.375 1.541 6.152 3.018 1.095-0.872 2.337-1.547 3.672-1.992 0.195-0.065 0.317-0.106 0.317-0.106l0.586 0.586c0.199 0.199 0.379 0.414 0.539 0.642 0.496-0.552 1.136-0.982 1.874-1.228h1e-3 1e-3c0.738 0.246 1.378 0.676 1.874 1.228 0.16-0.228 0.34-0.443 0.539-0.642l0.586-0.586s0.122 0.041 0.317 0.106c1.335 0.445 2.577 1.12 3.672 1.992z" fill="none" stroke="#000" stroke-width="4px"/>
    </g>
    <g id="emoji">
        <path d="m17.875 7.228c0.16-0.228 0.34-0.443 0.539-0.642l0.586-0.586s0.122 0.041 0.317 0.106c1.764 0.588 3.368 1.579 4.683 2.894h1v3h2v3.838c0 2.094-0.338 4.175-1 6.162l-1.375-2.063-0.286 0.716c-0.872 2.18-2.385 4.044-4.339 5.347l-0.183-1.831c-0.933 1.317-2.266 2.314-3.817 2.831-1.551-0.517-2.884-1.514-3.817-2.831l-0.183 1.831c-1.954-1.303-3.467-3.167-4.339-5.347l-0.286-0.715-1.375 2.062c-0.662-1.987-1-4.068-1-6.162v-3.838h2v-3h1c1.315-1.315 2.919-2.306 4.683-2.894 0.195-0.065 0.317-0.106 0.317-0.106l0.586 0.586c0.199 0.199 0.379 0.414 0.539 0.642 0.496-0.552 1.136-0.982 1.874-1.228h1e-3 1e-3c0.738 0.246 1.378 0.676 1.874 1.228z" fill="#9b6c3d"/>
        
            <path d="m29.5 5c-0.053 1.508-1.228 3.437-2.644 4.286-0.049 0.03-0.098 0.059-0.147 0.088-0.864 0.519-1.705 1.501-2.644 1.345-0.542-0.719-1.247-1.31-2.065-1.719 1.959-1.959 4.437-3.319 7.141-3.92 0.224-0.05 0.359-0.08 0.359-0.08z" fill="#9b6c3d"/>
            <path d="m29.855 7.484c0.394 2.76-0.831 5.5-3.15 7.046-1e-3 1e-3 -1e-3 1e-3 -2e-3 1e-3 -0.172 0.115-0.386 0.146-0.584 0.084-0.197-0.061-0.356-0.208-0.433-0.4-0.23-0.575-0.554-1.384-0.856-2.139-0.195-0.488-0.453-0.944-0.765-1.357 0.189-0.969 0.78-1.826 1.644-2.345 0.049-0.029 0.098-0.058 0.147-0.088 1.416-0.849 2.653-1.965 3.644-3.286l0.355 2.484z" fill="#d3b190"/>
        
        
            <path d="m2.859 5.08c2.704 0.601 5.182 1.961 7.141 3.92-1.076 0.538-1.956 1.39-2.5 2.428 0 0 0.028-0.015 0-0.035-0.346-0.242-2.59-1.742-3.847-3.11-1.093-1.189-1.104-2.602-1.153-3.283l0.359 0.08z" fill="#9b6c3d"/>
            <path d="m2.5 5c0.653 1.306 1.665 2.399 2.917 3.15 0.125 0.075 0.25 0.15 0.374 0.224 1.06 0.637 1.709 1.783 1.709 3.019v0.035l-0.33 0.648c-0.302 0.755-0.626 1.564-0.856 2.139-0.077 0.192-0.236 0.339-0.433 0.4-0.198 0.062-0.412 0.031-0.584-0.084-1e-3 0-1e-3 0-2e-3 -1e-3 -2.319-1.546-3.544-4.286-3.15-7.046 0.193-1.353 0.355-2.484 0.355-2.484z" fill="#d3b190"/>
        
        <path d="m11.778 10c-1.09 0-2.086 0.616-2.573 1.59-0.357 0.715-0.751 1.502-0.988 1.976-0.13 0.259-0.079 0.572 0.126 0.777l0.657 0.657s-0.404 2.02-0.698 3.492c-0.175 0.874 0.298 1.748 1.126 2.079 0.249 0.1 0.516 0.206 0.787 0.315 1.84 0.736 3.803 1.114 5.785 1.114s3.945-0.378 5.785-1.114c0.271-0.109 0.538-0.215 0.787-0.315 0.828-0.331 1.301-1.205 1.126-2.079-0.219-1.096-0.499-2.495-0.627-3.139-0.044-0.22 0.025-0.449 0.184-0.608l0.402-0.402c0.205-0.205 0.256-0.518 0.126-0.777-0.237-0.474-0.631-1.261-0.988-1.976-0.487-0.974-1.483-1.59-2.573-1.59h-8.444z" fill="#d3b190"/>
        
            <path d="m14.158 15.158c-0.042-0.042-0.065-0.099-0.065-0.158s0.023-0.116 0.065-0.158l0.135-0.135c0.453-0.453 1.067-0.707 1.707-0.707s1.254 0.254 1.707 0.707l0.135 0.135c0.042 0.042 0.065 0.099 0.065 0.158s-0.023 0.116-0.065 0.158l-0.193 0.193c-0.098 0.098-0.218 0.172-0.349 0.216-0.409 0.136-1.3 0.433-1.3 0.433s-0.891-0.297-1.3-0.433c-0.131-0.044-0.251-0.118-0.349-0.216l-0.193-0.193z" fill="#383838"/>
            <path d="m13 12c0-0.552-0.448-1-1-1s-1 0.448-1 1v2c0 0.552 0.448 1 1 1s1-0.448 1-1v-2z"/>
            <path d="m21 12c0-0.552-0.448-1-1-1s-1 0.448-1 1v2c0 0.552 0.448 1 1 1s1-0.448 1-1v-2z"/>
            <path d="m10 18c0-0.652 0.193-1.289 0.555-1.832 0.23-0.346 0.445-0.668 0.445-0.668l1 3.5-2-1z" fill="#fff"/>
            <path d="m22 18c0-0.652-0.193-1.289-0.555-1.832-0.23-0.346-0.445-0.668-0.445-0.668l-1 3.5 2-1z" fill="#fff"/>
            <path d="m10 18.5s0.122 0.061 0.317 0.158c1.764 0.883 3.71 1.342 5.683 1.342v0c1.973 0 3.919-0.459 5.683-1.342 0.195-0.097 0.317-0.158 0.317-0.158" fill="none" stroke="#81654c" stroke-linecap="round" stroke-width="1.5px"/>
        
    </g>
</svg>
