<?xml version="1.0" encoding="UTF-8"?>
<!DOCTYPE svg  PUBLIC '-//W3C//DTD SVG 1.1//EN'  'http://www.w3.org/Graphics/SVG/1.1/DTD/svg11.dtd'>
<svg clip-rule="evenodd" fill-rule="evenodd" stroke-linejoin="round" stroke-miterlimit="2" version="1.1" viewBox="0 0 32 32" xml:space="preserve" xmlns="http://www.w3.org/2000/svg">
<metadata>
<rdf:RDF xmlns:cc="http://web.resource.org/cc/" xmlns:dc="http://purl.org/dc/elements/1.1/" xmlns:rdf="http://www.w3.org/1999/02/22-rdf-syntax-ns#">

     <rdf:Description rdf:about="">
       <dc:title>Mutant Standard emoji 2023.12</dc:title>
     </rdf:Description>

    <cc:work rdf:about="">
        <cc:license rdf:resource="http://creativecommons.org/licenses/by-nc-sa/4.0/"/>
        <cc:attributionName>Caius Nocturne</cc:attributionName>
        <cc:attributionURL>http://mutant.tech/</cc:attributionURL>
    </cc:work>

</rdf:RDF>
</metadata>

    <rect id="dark_elf" width="32" height="32" fill="none"/>
    <clipPath id="_clip1">
        <rect width="32" height="32"/>
    </clipPath>
    <g clip-path="url(#_clip1)">
        <g id="outline">
            <path d="m17.542 0 0.154 1e-3c0.375 7e-3 0.749 0.029 1.122 0.072 0.83 0.096 1.648 0.286 2.435 0.567 1.442 0.515 2.773 1.333 3.883 2.389 1.05 0.999 1.895 2.204 2.48 3.526l2.739-2.738 1.645 0.833v2.503l-1.824 11.856-0.022 0.129c-0.028 0.13-0.033 0.163-0.068 0.291-0.064 0.237-0.15 0.468-0.257 0.69-0.206 0.427-0.488 0.815-0.829 1.144v9.028l-0.846 0.522-1.154-0.577v1.764h-2.198l-4.614-0.923c-0.348 0.161-0.706 0.302-1.071 0.422-1.005 0.331-2.062 0.5-3.12 0.501h-9e-3c-0.108 0-0.216-2e-3 -0.324-5e-3 -1.015-0.033-2.024-0.221-2.983-0.557-0.301-0.105-0.596-0.224-0.885-0.358l-4.598 0.92h-2.198v-1.764l-1.154 0.577-0.846-0.522v-9.028c-0.376-0.363-0.68-0.798-0.89-1.277-0.138-0.314-0.228-0.641-0.286-0.977l-1.824-11.856v-2.503l1.645-0.833 2.766 2.766c0.378-0.861 0.865-1.673 1.449-2.41 1.244-1.572 2.917-2.788 4.797-3.486 0.826-0.306 1.689-0.513 2.565-0.614 0.373-0.043 0.747-0.065 1.122-0.072l0.154-1e-3h3.044z"/>
        </g>
        <g id="emoji">
            <path d="m12 16v13l-5 1v-3l-2 1v-12h7zm15 0v12l-2-1v3l-5-1v-13h7z" fill="#e6e6e6"/>
            <path d="m29.736 8.718-0.113 0.203-1.496 9.731s0.023 0.159 0.049 0.17c-0.165 0.733-0.729 1.316-1.466 1.5-1.169 0.293-2.71 0.678-2.71 0.678v-8l6-6-0.264 1.718z" fill="#827599"/>
            <path d="m2.264 8.718 0.113 0.203 1.496 9.731s-0.023 0.159-0.049 0.17c0.165 0.733 0.729 1.316 1.466 1.5 1.169 0.293 2.71 0.678 2.71 0.678v-8l-6-6 0.264 1.718z" fill="#827599"/>
            <path d="m29.736 8.718-1.534 9.968c-7e-3 0.046-0.016 0.092-0.026 0.136-0.218-0.098-0.418-0.236-0.59-0.408-0.375-0.375-0.586-0.884-0.586-1.414v-5.519c0.922-0.911 1.834-1.832 2.736-2.763z" fill="#664e79"/>
            <path d="m2.264 8.718 1.534 9.968c7e-3 0.046 0.016 0.092 0.026 0.136 0.218-0.098 0.418-0.236 0.59-0.408 0.375-0.375 0.586-0.884 0.586-1.414v-5.519c-0.922-0.911-1.834-1.832-2.736-2.763z" fill="#664e79"/>
            <path d="m5.497 11.472c-0.129-2.465 6.519-7.472 8.988-7.472h3.07c2.469 0 9.117 5.007 8.988 7.472-0.123 2.338-0.246 4.679-0.34 6.461-0.107 2.038-0.732 4.014-1.815 5.743-0.504 0.804-1.068 1.704-1.609 2.567-1.465 2.338-4.03 3.757-6.789 3.757-2.79 0-5.379-1.449-6.839-3.826-0.524-0.855-1.069-1.742-1.555-2.533-1.047-1.707-1.651-3.649-1.756-5.649-0.094-1.788-0.218-4.156-0.343-6.52z" fill="#827599"/>
            <path d="m14 14.842c0-0.223-0.089-0.437-0.247-0.595s-0.372-0.247-0.595-0.247h-4.158c-0.379 0-0.725 0.214-0.894 0.553-0.17 0.339-0.133 0.744 0.094 1.047 0.412 0.55 0.856 1.142 1.2 1.6 0.159 0.212 0.396 0.352 0.659 0.39 0.262 0.037 0.529-0.031 0.741-0.19 0.994-0.745 2.614-1.96 3.074-2.306 0.079-0.059 0.126-0.152 0.126-0.251v-1e-3zm4-9e-3c0-0.46 0.373-0.833 0.833-0.833h4.167c0.379 0 0.725 0.214 0.894 0.553 0.17 0.339 0.133 0.744-0.094 1.047-0.412 0.55-0.856 1.142-1.2 1.6-0.159 0.212-0.396 0.352-0.659 0.39-0.262 0.037-0.529-0.031-0.741-0.19-0.988-0.741-2.596-1.947-3.067-2.3-0.084-0.063-0.133-0.162-0.133-0.266v-1e-3z"/>
            <path d="m5.497 11.472c-0.129-2.465 0.76-4.876 2.459-6.667 1.7-1.791 4.06-2.805 6.529-2.805h3.07c2.469 0 4.829 1.014 6.529 2.805 1.699 1.791 2.588 4.202 2.459 6.667-0.129 2.453-0.258 4.91-0.353 6.72-0.099 1.868-0.671 3.68-1.665 5.265-0.537 0.857-1.155 1.843-1.746 2.786-1.465 2.338-4.03 3.757-6.789 3.757-2.79 0-5.379-1.449-6.839-3.826-0.573-0.934-1.169-1.906-1.688-2.75-0.96-1.564-1.513-3.344-1.61-5.178-0.095-1.815-0.225-4.296-0.356-6.774z" fill="none"/>
            <clipPath id="_clip2">
                <path d="m5.497 11.472c-0.129-2.465 0.76-4.876 2.459-6.667 1.7-1.791 4.06-2.805 6.529-2.805h3.07c2.469 0 4.829 1.014 6.529 2.805 1.699 1.791 2.588 4.202 2.459 6.667-0.129 2.453-0.258 4.91-0.353 6.72-0.099 1.868-0.671 3.68-1.665 5.265-0.537 0.857-1.155 1.843-1.746 2.786-1.465 2.338-4.03 3.757-6.789 3.757-2.79 0-5.379-1.449-6.839-3.826-0.573-0.934-1.169-1.906-1.688-2.75-0.96-1.564-1.513-3.344-1.61-5.178-0.095-1.815-0.225-4.296-0.356-6.774z"/>
            </clipPath>
            <g clip-path="url(#_clip2)">
                <path d="m16 10-3-3v6c-1.657 0-3-1.343-3-3v-1l-3 10-2-2.5v-15.5h22v15.5l-2 2.5-3-10v1.002c0 0.795-0.316 1.558-0.878 2.12s-1.325 0.878-2.12 0.878h-2e-3v-6l-3 3z" fill="#e6e6e6"/>
            </g>
            <path d="m20.036 23.001c0.17 0.01 0.331 0.053 0.478 0.142 0.081 0.048 0.154 0.107 0.218 0.175 0.273 0.293 0.344 0.733 0.178 1.097-0.055 0.119-0.133 0.228-0.228 0.317-0.112 0.103-0.242 0.174-0.385 0.223-0.744 0.208-1.498 0.381-2.249 0.563-0.583 0.131-1.175 0.213-1.773 0.232-0.55 0.016-1.102-0.017-1.646-0.101-0.227-0.035-0.453-0.081-0.677-0.131-0.733-0.178-1.463-0.365-2.195-0.548-0.145-0.041-0.279-0.104-0.396-0.201-0.101-0.084-0.185-0.187-0.246-0.303-0.044-0.083-0.075-0.172-0.094-0.264-0.069-0.333 0.041-0.688 0.287-0.924 0.081-0.077 0.175-0.141 0.277-0.188 0.191-0.087 0.397-0.106 0.603-0.072 0.744 0.164 1.478 0.373 2.219 0.552 0.454 0.102 0.914 0.166 1.379 0.18 0.609 0.019 1.214-0.046 1.807-0.18 0.723-0.175 1.443-0.36 2.164-0.54 0.056-0.012 0.055-0.012 0.111-0.021 0.056-6e-3 0.111-9e-3 0.168-8e-3zm-1.022-2.644-1.478 0.888-0.082 0.047c-0.241 0.128-0.492 0.23-0.758 0.294-0.555 0.132-1.144 0.103-1.683-0.085-0.192-0.067-0.373-0.155-0.549-0.256l-1.478-0.888 1.028-1.714c0.501 0.3 0.996 0.608 1.502 0.899 0.23 0.123 0.496 0.159 0.749 0.09 0.091-0.025 0.175-0.064 0.257-0.111l1.464-0.878c0.343 0.571 0.685 1.143 1.028 1.714z" fill="#54396a"/>
        </g>
    </g>
</svg>
