<?xml version="1.0" encoding="UTF-8"?>
<!DOCTYPE svg  PUBLIC '-//W3C//DTD SVG 1.1//EN'  'http://www.w3.org/Graphics/SVG/1.1/DTD/svg11.dtd'>
<svg clip-rule="evenodd" fill-rule="evenodd" stroke-linejoin="round" stroke-miterlimit="1.5" version="1.1" viewBox="0 0 32 32" xml:space="preserve" xmlns="http://www.w3.org/2000/svg">
<metadata>
<rdf:RDF xmlns:cc="http://web.resource.org/cc/" xmlns:dc="http://purl.org/dc/elements/1.1/" xmlns:rdf="http://www.w3.org/1999/02/22-rdf-syntax-ns#">

     <rdf:Description rdf:about="">
       <dc:title>Mutant Standard emoji 2023.12</dc:title>
     </rdf:Description>

    <cc:work rdf:about="">
        <cc:license rdf:resource="http://creativecommons.org/licenses/by-nc-sa/4.0/"/>
        <cc:attributionName>Caius Nocturne</cc:attributionName>
        <cc:attributionURL>http://mutant.tech/</cc:attributionURL>
    </cc:work>

</rdf:RDF>
</metadata>

    <rect id="demon" width="32" height="32" fill="none"/>
    <clipPath id="_clip1">
        <rect width="32" height="32"/>
    </clipPath>
    <g clip-path="url(#_clip1)">
        <g id="outline">
            <path d="m31.468 12.223-1.518 6.507-0.018 0.075-0.044 0.164-0.025 0.082-0.025 0.081-0.027 0.08-0.028 0.08-0.03 0.079-0.03 0.078-0.032 0.078-0.068 0.154-0.036 0.076-0.037 0.074-0.038 0.075-0.039 0.074-0.041 0.072-0.084 0.144-0.044 0.07-0.045 0.07-0.047 0.069-0.047 0.068-0.048 0.067-0.05 0.067-0.102 0.13-0.106 0.126-0.055 0.063-0.056 0.061-0.057 0.06-0.057 0.059-0.059 0.058-0.12 0.114-0.062 0.055-0.062 0.054-0.128 0.106-0.065 0.051-0.066 0.05-0.067 0.049-0.068 0.048-0.069 0.047-0.069 0.046-0.07 0.044-0.071 0.044-0.072 0.042-0.073 0.042-0.073 0.039-0.075 0.039-0.075 0.038-0.075 0.036-0.077 0.036-0.077 0.034-0.156 0.064-0.079 0.03-0.08 0.029-0.08 0.028-0.081 0.026-0.082 0.025-0.074 0.021-4.06 1.128-0.369-0.281v-9.625l8.761-2.102 0.707 0.702zm-5.468 4.554v1.207l4e-3 -0.01 7e-3 -0.015 0.012-0.032 5e-3 -0.015 6e-3 -0.017 5e-3 -0.016 4e-3 -0.016 5e-3 -0.016 4e-3 -0.017 7e-3 -0.025 0.257-1.104-0.316 0.076z"/>
            <path d="m10 13.623v9.625l-0.369 0.281-4.06-1.128-0.074-0.021-0.082-0.025-0.081-0.026-0.08-0.028-0.08-0.029-0.079-0.03-0.079-0.032-0.077-0.032-0.077-0.034-0.077-0.035-0.075-0.037-0.075-0.038-0.074-0.038-0.074-0.04-0.073-0.042-0.072-0.042-0.071-0.044-0.07-0.044-0.069-0.046-0.069-0.047-0.068-0.048-0.067-0.049-0.066-0.05-0.065-0.051-0.064-0.052-0.064-0.054-0.062-0.054-0.062-0.055-0.12-0.114-0.059-0.058-0.057-0.059-0.057-0.06-0.056-0.061-0.055-0.063-0.053-0.062-0.053-0.064-0.052-0.065-0.05-0.065-0.098-0.134-0.047-0.068-0.047-0.069-0.045-0.07-0.044-0.07-0.084-0.144-0.041-0.073-0.039-0.073-0.038-0.074-0.037-0.076-0.036-0.075-0.068-0.154-0.032-0.078-0.03-0.078-0.03-0.08-0.028-0.079-0.027-0.08-0.05-0.162-0.022-0.083-0.022-0.082-0.018-0.075-1.518-6.507 0.707-0.702 8.761 2.102zm-4.059 4.182 7e-3 0.025 4e-3 0.016 4e-3 0.017 0.01 0.032 0.012 0.032 5e-3 0.016 6e-3 0.016 7e-3 0.015 4e-3 0.01v-1.207l-0.316-0.076 0.257 1.104z"/>
            <path d="m21.657 8h3.028c0.848 0 1.656-0.359 2.224-0.987 0.569-0.628 0.845-1.468 0.761-2.312-0.139-1.394-0.27-2.701-0.27-2.701s0.96 2.953 1.713 5.271c0.496 1.527-0.297 3.173-1.8 3.736l-2.807 1.053c0.324 0.937 0.494 1.93 0.494 2.94v5.029c0 2.755-1.137 5.388-3.142 7.278-0.494 0.466-0.983 0.927-1.414 1.332-0.927 0.874-2.154 1.361-3.429 1.361h-2.03c-1.275 0-2.502-0.487-3.429-1.361-0.431-0.405-0.92-0.866-1.414-1.332-2.005-1.89-3.142-4.523-3.142-7.278v-5.029c0-1.01 0.17-2.003 0.494-2.94l-2.807-1.053c-1.503-0.563-2.296-2.209-1.8-3.736 0.753-2.318 1.713-5.271 1.713-5.271s-0.131 1.307-0.27 2.701c-0.084 0.844 0.192 1.684 0.761 2.312 0.568 0.628 1.376 0.987 2.224 0.987h3.028c1.594-1.288 3.589-2 5.657-2s4.063 0.712 5.657 2z" fill="none" stroke="#000" stroke-width="4px"/>
        </g>
        <g id="emoji">
            <path d="m7 14.96c0.011-2.373 0.958-4.646 2.636-6.324 1.688-1.688 3.977-2.636 6.364-2.636s4.676 0.948 6.364 2.636c1.678 1.678 2.625 3.951 2.636 6.324l4-0.96s-0.582 2.495-0.996 4.267c-0.249 1.069-1.061 1.916-2.118 2.209l-0.915 0.254c-0.185 2.442-1.262 4.742-3.04 6.452-0.516 0.496-1.03 0.99-1.479 1.422-0.932 0.896-2.174 1.396-3.466 1.396h-1.972c-1.292 0-2.534-0.5-3.466-1.396-0.449-0.432-0.963-0.926-1.479-1.422-1.778-1.71-2.855-4.01-3.04-6.452l-0.915-0.254c-1.057-0.293-1.869-1.14-2.118-2.209-0.414-1.772-0.996-4.267-0.996-4.267l4 0.96z" fill="#e02e31"/>
            <path d="m8 16h3c0.53 0 1.039 0.211 1.414 0.586s0.586 0.884 0.586 1.414v1h-3c-0.53 0-1.039-0.211-1.414-0.586s-0.586-0.884-0.586-1.414v-1z"/>
            <path d="m24 16h-3c-0.53 0-1.039 0.211-1.414 0.586s-0.586 0.884-0.586 1.414v1h3c0.53 0 1.039-0.211 1.414-0.586s0.586-0.884 0.586-1.414v-1z"/>
            <path d="m11.066 23.002 0.063 6e-3 0.062 0.01 0.061 0.014 0.06 0.018 0.059 0.022 0.058 0.025 0.056 0.028 0.054 0.033 0.052 0.035 0.049 0.039 2.393 1.994 1.968-1.477 1.967 1.479 2.391-1.996 0.05-0.038 0.051-0.036 0.054-0.032 0.056-0.029 0.058-0.025 0.059-0.022 0.06-0.017 0.061-0.014 0.062-0.011 0.063-6e-3 0.063-2e-3 0.062 2e-3 0.063 5e-3 0.062 0.01 0.061 0.013 0.061 0.018 0.059 0.021 0.058 0.024 0.056 0.029 0.054 0.031 0.052 0.035 0.05 0.039 0.047 0.041 0.045 0.044 0.042 0.047 0.038 0.05 0.036 0.051 0.032 0.054 0.029 0.056 0.025 0.058 0.022 0.059 0.017 0.06 0.014 0.061 0.011 0.062 6e-3 0.063 2e-3 0.063-2e-3 0.062-5e-3 0.063-0.01 0.062-0.013 0.061-0.018 0.061-0.021 0.059-0.024 0.058-0.029 0.056-0.031 0.054-0.035 0.052-0.039 0.05-0.041 0.047-0.044 0.045-0.047 0.042-3.609 3.012-2.033-1.529-2.032 1.523-3.607-3.006-0.047-0.041-0.044-0.045-0.042-0.047-0.038-0.05-0.035-0.052-0.032-0.054-0.028-0.056-0.025-0.058-0.021-0.059-0.017-0.061-0.014-0.061-0.01-0.062-5e-3 -0.063-2e-3 -0.063 2e-3 -0.062 6e-3 -0.063 0.01-0.062 0.014-0.061 0.018-0.06 0.022-0.059 0.025-0.058 0.028-0.056 0.033-0.054 0.035-0.052 0.039-0.049 0.041-0.047 0.045-0.044 0.047-0.042 0.05-0.038 0.052-0.035 0.054-0.032 0.056-0.028 0.058-0.025 0.059-0.021 0.061-0.017 0.061-0.014 0.062-0.01 0.063-5e-3 0.063-2e-3 0.062 2e-3z" fill="#800e0e"/>
            <path d="m16 18-2 4h4l-2-4z" fill="#800e0e"/>
            <path d="m10 8h-2.685c-0.848 0-1.656-0.359-2.224-0.987-0.569-0.628-0.845-1.468-0.761-2.312 0.139-1.394 0.27-2.701 0.27-2.701s-0.96 2.953-1.713 5.271c-0.496 1.527 0.297 3.173 1.8 3.736 2.324 0.872 5.313 1.993 5.313 1.993h0.5c1.381 0 2.5-1.119 2.5-2.5s-1.119-2.5-2.5-2.5h-0.5z" fill="#fede30"/>
            <path d="m22 8h2.685c0.848 0 1.656-0.359 2.224-0.987 0.569-0.628 0.845-1.468 0.761-2.312-0.139-1.394-0.27-2.701-0.27-2.701s0.96 2.953 1.713 5.271c0.496 1.527-0.297 3.173-1.8 3.736-2.324 0.872-5.313 1.993-5.313 1.993h-0.5c-1.381 0-2.5-1.119-2.5-2.5s1.119-2.5 2.5-2.5h0.5z" fill="#fede30"/>
        </g>
    </g>
</svg>
