<?xml version="1.0" encoding="UTF-8"?>
<!DOCTYPE svg  PUBLIC '-//W3C//DTD SVG 1.1//EN'  'http://www.w3.org/Graphics/SVG/1.1/DTD/svg11.dtd'>
<svg clip-rule="evenodd" fill-rule="evenodd" stroke-linejoin="round" stroke-miterlimit="2" version="1.1" viewBox="0 0 32 32" xml:space="preserve" xmlns="http://www.w3.org/2000/svg">
<metadata>
<rdf:RDF xmlns:cc="http://web.resource.org/cc/" xmlns:dc="http://purl.org/dc/elements/1.1/" xmlns:rdf="http://www.w3.org/1999/02/22-rdf-syntax-ns#">

     <rdf:Description rdf:about="">
       <dc:title>Mutant Standard emoji 2023.12</dc:title>
     </rdf:Description>

    <cc:work rdf:about="">
        <cc:license rdf:resource="http://creativecommons.org/licenses/by-nc-sa/4.0/"/>
        <cc:attributionName>Caius Nocturne</cc:attributionName>
        <cc:attributionURL>http://mutant.tech/</cc:attributionURL>
    </cc:work>

</rdf:RDF>
</metadata>

    <rect id="elf" width="32" height="32" fill="none"/>
    <clipPath id="_clip1">
        <rect width="32" height="32"/>
    </clipPath>
    <g clip-path="url(#_clip1)">
        <g id="outline">
            <path d="m0 4.65 1.645-0.833 2.947 2.946c0.569-1.037 1.279-1.997 2.106-2.845 1.316-1.347 2.923-2.404 4.683-3.073 0.955-0.363 1.953-0.612 2.966-0.741 0.438-0.055 0.877-0.086 1.318-0.1 0.067-1e-3 0.133-2e-3 0.199-3e-3 0.043 0 0.087-1e-3 0.13-1e-3 0.067 0 0.134 1e-3 0.201 1e-3 0.26 5e-3 0.52 0.016 0.78 0.036 0.172 0.012 0.344 0.028 0.515 0.048 1.017 0.116 2.019 0.353 2.98 0.704 1.819 0.666 3.479 1.744 4.832 3.129 0.828 0.848 1.537 1.808 2.106 2.846l2.947-2.947 1.645 0.833v2.503l-1.824 11.856-0.022 0.129c-0.028 0.13-0.033 0.163-0.068 0.291-0.064 0.237-0.15 0.468-0.257 0.69-0.206 0.427-0.488 0.815-0.829 1.144v10.737h-1e-3c-4.253 0-4.797-0.151-7.9-1.402-0.625 0.371-1.291 0.674-1.982 0.901-1.005 0.331-2.062 0.5-3.12 0.501h-9e-3c-0.108 0-0.216-2e-3 -0.324-5e-3 -1.015-0.033-2.024-0.221-2.983-0.557-0.626-0.218-1.229-0.499-1.799-0.837l-3.497 1.399h-4.385c0-3.584-0.012-7.169-0.016-10.753-0.368-0.359-0.667-0.788-0.874-1.261-0.138-0.314-0.228-0.641-0.286-0.977l-1.824-11.856v-2.503z"/>
            <path d="m16 2c-6.075 0-11 4.925-11 11v17h2l5-2h8l5 2h2v-17c0-6.075-4.925-11-11-11z" fill="#805c1b"/>
        </g>
        <g id="emoji">
            
                <path d="m2.264 8.718 0.113 0.203 1.496 9.731s-0.023 0.159-0.049 0.17c0.165 0.733 0.729 1.316 1.466 1.5 1.169 0.293 2.71 0.678 2.71 0.678v-8l-6-6 0.264 1.718z" fill="#fbc546"/>
                <path d="m2.264 8.718 1.534 9.968c7e-3 0.046 0.016 0.092 0.026 0.136 0.218-0.098 0.418-0.236 0.59-0.408 0.375-0.375 0.586-0.884 0.586-1.414v-5.519c-0.922-0.911-1.834-1.832-2.736-2.763z" fill="#e59a10"/>
            
            
                <path d="m29.736 8.718-0.113 0.203-1.496 9.731s0.023 0.159 0.049 0.17c-0.165 0.733-0.729 1.316-1.466 1.5-1.169 0.293-2.71 0.678-2.71 0.678v-8l6-6-0.264 1.718z" fill="#fbc546"/>
                <path d="m29.736 8.718-1.534 9.968c-7e-3 0.046-0.016 0.092-0.026 0.136-0.218-0.098-0.418-0.236-0.59-0.408-0.375-0.375-0.586-0.884-0.586-1.414v-5.519c0.922-0.911 1.834-1.832 2.736-2.763z" fill="#e59a10"/>
            
            <path d="m6 12c0-1.591 0.632-3.117 1.757-4.243 1.126-1.125 2.652-1.757 4.243-1.757h8.04c1.591 0 3.117 0.632 4.243 1.757 1.125 1.126 1.757 2.652 1.757 4.243v5.59c0 2.254-0.635 4.463-1.832 6.373-0.456 0.728-0.952 1.518-1.429 2.28-1.465 2.338-4.03 3.757-6.789 3.757-2.79 0-5.379-1.449-6.839-3.826-0.462-0.753-0.939-1.53-1.378-2.246-1.159-1.888-1.773-4.061-1.773-6.277v-5.651z" fill="#fbc546"/>
            <path d="m6 12.5v-0.5c0-5.523 4.477-10 10-10h0.04c5.523 0 10 4.477 10 10v0.5h-4.04c-1.591 0-3.117-0.632-4.243-1.757-1.006-1.007-1.618-2.335-1.736-3.743h-0.042c-0.118 1.408-0.73 2.736-1.736 3.743-1.126 1.125-2.652 1.757-4.243 1.757h-4z" fill="#805c1b"/>
            <path d="m12.082 23.003c0.151 0.017 0.293 0.058 0.424 0.135 0.045 0.026 0.052 0.032 0.094 0.062 1e-3 1e-3 -5e-3 -4e-3 -4e-3 -3e-3 0.098 0.072 0.097 0.071 0.196 0.141 0.097 0.065 0.096 0.065 0.195 0.128 0.424 0.261 0.874 0.472 1.35 0.618 1.188 0.365 2.484 0.326 3.648-0.109 0.359-0.134 0.704-0.305 1.028-0.509 0.134-0.084 0.263-0.175 0.39-0.269 2e-3 -1e-3 -5e-3 4e-3 -3e-3 3e-3 0.015-0.01 0.03-0.021 0.045-0.032 0.048-0.03 0.047-0.03 0.097-0.057 0.188-0.09 0.391-0.131 0.599-0.101 0.111 0.016 0.219 0.05 0.319 0.102 0.32 0.166 0.53 0.501 0.54 0.861 2e-3 0.093-9e-3 0.187-0.032 0.278-0.033 0.127-0.091 0.247-0.17 0.351-0.09 0.12-0.206 0.206-0.327 0.293-0.086 0.061-0.172 0.121-0.261 0.179-0.434 0.286-0.898 0.527-1.381 0.719-0.851 0.338-1.762 0.521-2.677 0.539-0.966 0.019-1.933-0.145-2.837-0.484-0.486-0.181-0.953-0.413-1.392-0.689-0.178-0.111-0.349-0.231-0.518-0.356-0.017-0.012-0.033-0.025-0.049-0.038-0.113-0.1-0.206-0.216-0.268-0.355-0.038-0.085-0.065-0.176-0.078-0.268-0.054-0.377 0.117-0.761 0.433-0.972 0.142-0.096 0.302-0.147 0.471-0.166 0.057-4e-3 0.111-4e-3 0.168-1e-3zm6.932-2.646-1.478 0.888-0.082 0.047c-0.241 0.128-0.492 0.23-0.758 0.294-0.555 0.132-1.144 0.103-1.683-0.085-0.192-0.067-0.373-0.155-0.549-0.256l-1.478-0.888 1.028-1.714c0.501 0.3 0.996 0.608 1.502 0.899 0.23 0.123 0.496 0.159 0.749 0.09 0.091-0.025 0.175-0.064 0.257-0.111l1.464-0.878c0.343 0.571 0.685 1.143 1.028 1.714z" fill="#e1853e"/>
            <path d="m19 15c0-0.552 0.448-1 1-1h1.513c0.323 0 0.643 0.052 0.949 0.154 0.171 0.057 0.378 0.126 0.598 0.199 0.363 0.121 0.625 0.438 0.675 0.816 0.051 0.379-0.118 0.753-0.436 0.965-0.19 0.126-0.375 0.25-0.543 0.362-0.493 0.329-1.072 0.504-1.664 0.504h-1.092c-0.552 0-1-0.448-1-1v-1zm-6 0c0-0.552-0.448-1-1-1h-1.513c-0.323 0-0.643 0.052-0.949 0.154-0.171 0.057-0.378 0.126-0.598 0.199-0.363 0.121-0.625 0.438-0.675 0.816-0.051 0.379 0.118 0.753 0.436 0.965 0.19 0.126 0.375 0.25 0.543 0.362 0.493 0.329 1.072 0.504 1.664 0.504h1.092c0.552 0 1-0.448 1-1v-1z"/>
        </g>
    </g>
</svg>
