<?xml version="1.0" encoding="UTF-8"?>
<!DOCTYPE svg  PUBLIC '-//W3C//DTD SVG 1.1//EN'  'http://www.w3.org/Graphics/SVG/1.1/DTD/svg11.dtd'>
<svg clip-rule="evenodd" fill-rule="evenodd" stroke-linecap="round" stroke-linejoin="round" stroke-miterlimit="1.5" version="1.1" viewBox="0 0 32 32" xml:space="preserve" xmlns="http://www.w3.org/2000/svg">
<metadata>
<rdf:RDF xmlns:cc="http://web.resource.org/cc/" xmlns:dc="http://purl.org/dc/elements/1.1/" xmlns:rdf="http://www.w3.org/1999/02/22-rdf-syntax-ns#">

     <rdf:Description rdf:about="">
       <dc:title>Mutant Standard emoji 2023.12</dc:title>
     </rdf:Description>

    <cc:work rdf:about="">
        <cc:license rdf:resource="http://creativecommons.org/licenses/by-nc-sa/4.0/"/>
        <cc:attributionName>Caius Nocturne</cc:attributionName>
        <cc:attributionURL>http://mutant.tech/</cc:attributionURL>
    </cc:work>

</rdf:RDF>
</metadata>

    <rect id="fish_person" width="32" height="32" fill="none"/>
    <clipPath id="_clip1">
        <rect width="32" height="32"/>
    </clipPath>
    <g clip-path="url(#_clip1)">
        <g id="outline">
            <path d="m6 12c0-5.523 4.477-10 10-10h0.04c5.523 0 10 4.477 10 10v2.145c0 1.903-0.453 3.778-1.32 5.472-0.677 1.321-1.517 2.959-2.273 4.436-1.242 2.423-3.735 3.947-6.458 3.947h-1e-3c-2.751 0-5.267-1.552-6.501-4.011-0.739-1.474-1.556-3.1-2.212-4.409-0.839-1.67-1.275-3.513-1.275-5.382v-2.198z" fill="none" stroke="#000" stroke-width="4px"/>
            <path d="m15 2c-7.18 0-13 5.82-13 13v2l10-4h8l10 4v-2c0-7.18-5.82-13-13-13h-2z" fill="#30c99e"/>
            <clipPath id="_clip2">
                <path d="m15 2c-7.18 0-13 5.82-13 13v2l10-4h8l10 4v-2c0-7.18-5.82-13-13-13h-2z"/>
            </clipPath>
            <g clip-path="url(#_clip2)" fill="none" stroke="#219781" stroke-linecap="butt" stroke-linejoin="miter" stroke-miterlimit="3" stroke-width="4px">
                <path d="m23 15s-2.386-4.771-3.472-6.944c-0.347-0.695-0.528-1.46-0.528-2.236v-5.82"/>
                <path d="m9 15s2.386-4.771 3.472-6.944c0.347-0.695 0.528-1.46 0.528-2.236v-5.82"/>
            </g>
            <path d="m17.193 1e-3 0.193 4e-3 0.192 6e-3 0.192 8e-3 0.191 0.011 0.191 0.014 0.19 0.015 0.189 0.018 0.189 0.021 0.188 0.022 0.187 0.025 0.187 0.028 0.186 0.029 0.185 0.032 0.184 0.034 0.184 0.037 0.183 0.038 0.182 0.041 0.181 0.043 0.18 0.045 0.18 0.048 0.178 0.049 0.178 0.052 0.177 0.054 0.176 0.056 0.175 0.058 0.173 0.06 0.174 0.062 0.171 0.064 0.171 0.066 0.17 0.068 0.169 0.071 0.168 0.072 0.167 0.074 0.166 0.076 0.164 0.078 0.164 0.08 0.162 0.082 0.161 0.084 0.16 0.086 0.159 0.087 0.158 0.09 0.156 0.091 0.156 0.093 0.153 0.095 0.153 0.096 0.152 0.099 0.15 0.1 0.149 0.102 0.148 0.104 0.146 0.105 0.145 0.107 0.144 0.109 0.142 0.11 0.141 0.112 0.139 0.114 0.138 0.115 0.137 0.117 0.135 0.119 0.134 0.12 0.132 0.122 0.131 0.123 0.13 0.125 0.128 0.126 0.126 0.128 0.125 0.13 0.123 0.131 0.122 0.132 0.12 0.134 0.119 0.135 0.117 0.137 0.115 0.138 0.114 0.139 0.112 0.141 0.11 0.142 0.109 0.144 0.107 0.145 0.105 0.146 0.104 0.148 0.102 0.149 0.1 0.15 0.099 0.152 0.096 0.153 0.095 0.153 0.093 0.156 0.092 0.156 0.089 0.158 0.087 0.159 0.086 0.16 0.084 0.161 0.082 0.162 0.08 0.164 0.078 0.164 0.076 0.166 0.074 0.167 0.072 0.168 0.071 0.169 0.068 0.17 0.066 0.171 0.064 0.171 0.062 0.173 0.06 0.174 0.058 0.175 0.056 0.176 0.054 0.177 0.052 0.178 0.049 0.178 0.048 0.18 0.045 0.18 0.043 0.181 0.041 0.182 0.038 0.183 0.037 0.184 0.034 0.184 0.032 0.185 0.029 0.186 0.028 0.187 0.025 0.187 0.022 0.188 0.021 0.189 0.018 0.189 0.015 0.19 0.014 0.191 0.011 0.191 8e-3 0.191 6e-3 0.193 4e-3 0.193 1e-3 0.187v4.275l-0.636 0.431-7.107-2.843-4.642-1.857h-7.23l-4.642 1.857-7.107 2.843-0.636-0.431v-4.275l1e-3 -0.187 4e-3 -0.193 6e-3 -0.193 8e-3 -0.191 0.011-0.191 0.014-0.191 0.015-0.19 0.018-0.189 0.021-0.189 0.022-0.188 0.025-0.187 0.028-0.187 0.029-0.186 0.032-0.185 0.034-0.184 0.037-0.184 0.038-0.183 0.041-0.182 0.043-0.181 0.045-0.18 0.048-0.18 0.049-0.178 0.052-0.178 0.054-0.177 0.056-0.176 0.058-0.175 0.06-0.174 0.062-0.172 0.064-0.173 0.066-0.171 0.068-0.169 0.071-0.169 0.072-0.168 0.074-0.167 0.076-0.165 0.078-0.165 0.08-0.164 0.082-0.162 0.084-0.161 0.085-0.16 0.088-0.159 0.09-0.158 0.091-0.156 0.093-0.155 0.095-0.155 0.096-0.152 0.099-0.152 0.1-0.15 0.102-0.149 0.104-0.148 0.105-0.146 0.107-0.145 0.109-0.143 0.11-0.143 0.112-0.141 0.114-0.139 0.115-0.138 0.117-0.137 0.119-0.135 0.12-0.134 0.122-0.132 0.123-0.131 0.125-0.13 0.126-0.128 0.128-0.126 0.13-0.125 0.131-0.123 0.132-0.122 0.134-0.12 0.135-0.119 0.137-0.117 0.138-0.115 0.139-0.114 0.141-0.112 0.142-0.11 0.144-0.109 0.145-0.107 0.146-0.105 0.148-0.104 0.149-0.102 0.15-0.1 0.152-0.099 0.152-0.096 0.155-0.095 0.155-0.093 0.156-0.091 0.158-0.09 0.159-0.087 0.16-0.086 0.161-0.084 0.162-0.082 0.164-0.08 0.164-0.078 0.166-0.076 0.167-0.074 0.168-0.072 0.169-0.071 0.17-0.068 0.171-0.066 0.171-0.064 0.173-0.062 0.174-0.06 0.175-0.058 0.176-0.056 0.177-0.054 0.178-0.052 0.178-0.049 0.18-0.048 0.18-0.045 0.181-0.043 0.182-0.041 0.183-0.038 0.184-0.037 0.184-0.034 0.185-0.032 0.186-0.029 0.187-0.028 0.187-0.025 0.188-0.022 0.189-0.021 0.189-0.018 0.19-0.015 0.191-0.014 0.191-0.011 0.192-8e-3 0.192-6e-3 0.193-4e-3 0.187-1e-3h2.012l0.187 1e-3zm-2.193 1.999-0.168 1e-3 -0.168 3e-3 -0.167 6e-3 -0.166 7e-3 -0.166 9e-3 -0.165 0.012-0.165 0.013-0.164 0.016-0.164 0.018-0.163 0.019-0.162 0.022-0.162 0.024-0.161 0.025-0.16 0.028-0.16 0.03-0.159 0.031-0.158 0.034-0.158 0.035-0.157 0.037-0.156 0.039-0.155 0.041-0.155 0.043-0.154 0.045-0.153 0.046-0.152 0.049-0.151 0.05-0.151 0.052-0.15 0.054-0.149 0.055-0.148 0.058-0.147 0.059-0.146 0.061-0.146 0.062-0.144 0.064-0.143 0.066-0.143 0.068-0.142 0.069-0.14 0.071-0.14 0.073-0.139 0.074-0.137 0.076-0.137 0.077-0.135 0.079-0.135 0.081-0.133 0.082-0.133 0.084-0.131 0.085-0.13 0.087-0.13 0.089-0.128 0.089-0.126 0.092-0.126 0.093-0.125 0.094-0.123 0.096-0.122 0.097-0.121 0.099-0.12 0.1-0.119 0.101-0.117 0.103-0.116 0.104-0.115 0.106-0.113 0.107-0.112 0.108-0.111 0.11-0.11 0.111-0.108 0.112-0.107 0.113-0.106 0.115-0.104 0.116-0.103 0.117-0.101 0.119-0.1 0.12-0.099 0.121-0.097 0.122-0.096 0.123-0.094 0.125-0.093 0.126-0.092 0.126-0.089 0.128-0.089 0.13-0.087 0.13-0.085 0.131-0.084 0.133-0.082 0.133-0.081 0.135-0.079 0.135-0.077 0.137-0.076 0.137-0.074 0.139-0.073 0.14-0.071 0.14-0.069 0.142-0.068 0.143-0.066 0.143-0.064 0.144-0.062 0.146-0.061 0.146-0.059 0.147-0.058 0.148-0.055 0.149-0.054 0.15-0.052 0.151-0.05 0.151-0.049 0.152-0.046 0.153-0.045 0.154-0.043 0.155-0.041 0.155-0.039 0.156-0.037 0.157-0.035 0.158-0.034 0.158-0.031 0.159-0.03 0.16-0.028 0.16-0.025 0.161-0.024 0.162-0.022 0.162-0.019 0.163-0.018 0.164-0.016 0.164-0.013 0.165-0.012 0.165-9e-3 0.166-7e-3 0.166-6e-3 0.167-3e-3 0.168-1e-3 0.168v2l10-4h8l10 4v-2l-1e-3 -0.168-3e-3 -0.168-6e-3 -0.167-7e-3 -0.166-9e-3 -0.166-0.012-0.165-0.013-0.165-0.016-0.164-0.018-0.164-0.019-0.163-0.022-0.162-0.024-0.162-0.025-0.161-0.028-0.16-0.03-0.16-0.031-0.159-0.034-0.158-0.035-0.158-0.037-0.157-0.039-0.156-0.041-0.155-0.043-0.155-0.045-0.154-0.046-0.153-0.049-0.152-0.05-0.151-0.052-0.151-0.054-0.15-0.055-0.149-0.058-0.148-0.059-0.147-0.061-0.146-0.062-0.146-0.064-0.144-0.066-0.143-0.068-0.143-0.069-0.142-0.071-0.14-0.073-0.14-0.074-0.139-0.076-0.137-0.077-0.137-0.079-0.135-0.081-0.135-0.082-0.133-0.084-0.133-0.085-0.131-0.087-0.13-0.089-0.13-0.089-0.128-0.092-0.126-0.093-0.126-0.094-0.125-0.096-0.123-0.097-0.122-0.099-0.121-0.1-0.12-0.101-0.119-0.103-0.117-0.104-0.116-0.106-0.115-0.107-0.113-0.108-0.112-0.11-0.111-0.111-0.11-0.112-0.108-0.113-0.107-0.115-0.106-0.116-0.104-0.117-0.103-0.119-0.101-0.12-0.1-0.121-0.099-0.122-0.097-0.123-0.096-0.125-0.094-0.126-0.093-0.126-0.092-0.128-0.089-0.13-0.089-0.13-0.087-0.131-0.085-0.133-0.084-0.133-0.082-0.135-0.081-0.135-0.079-0.137-0.077-0.137-0.076-0.139-0.074-0.14-0.073-0.14-0.071-0.142-0.069-0.143-0.068-0.143-0.066-0.144-0.064-0.146-0.062-0.146-0.061-0.147-0.059-0.148-0.058-0.149-0.055-0.15-0.054-0.151-0.052-0.151-0.05-0.152-0.049-0.153-0.046-0.154-0.045-0.155-0.043-0.155-0.041-0.156-0.039-0.157-0.037-0.158-0.035-0.158-0.034-0.159-0.031-0.16-0.03-0.16-0.028-0.161-0.025-0.162-0.024-0.162-0.022-0.163-0.019-0.164-0.018-0.164-0.016-0.165-0.013-0.165-0.012-0.166-9e-3 -0.166-7e-3 -0.167-6e-3 -0.168-3e-3 -0.168-1e-3h-2z"/>
            <path d="m8 21v7l-1 2h18l-1-2v-7h-16z" fill="none" stroke="#000" stroke-linecap="butt" stroke-linejoin="miter" stroke-miterlimit="3" stroke-width="4px"/>
            <path d="m23 20 3 2-1.58 1.58c-0.111 0.111-0.174 0.262-0.174 0.42s0.063 0.309 0.174 0.42l1.58 1.58-1.58 1.58c-0.111 0.111-0.174 0.262-0.174 0.42s0.063 0.309 0.174 0.42l1.58 1.58h-3l-1-2v-8h1z" fill="none" stroke="#000" stroke-linecap="butt" stroke-miterlimit="3" stroke-width="4px"/>
            <path d="m9 20-3 2 1.58 1.58c0.111 0.111 0.174 0.262 0.174 0.42s-0.063 0.309-0.174 0.42l-1.58 1.58 1.58 1.58c0.111 0.111 0.174 0.262 0.174 0.42s-0.063 0.309-0.174 0.42l-1.58 1.58h3l1-2v-8h-1z" fill="none" stroke="#000" stroke-linecap="butt" stroke-miterlimit="3" stroke-width="4px"/>
        </g>
        <g id="emoji">
            <path d="m8 21v7l-1 2h18l-1-2v-7h-16z" fill="#219781"/>
            <path d="m23 20 3 2-1.58 1.58c-0.111 0.111-0.174 0.262-0.174 0.42s0.063 0.309 0.174 0.42l1.58 1.58-1.58 1.58c-0.111 0.111-0.174 0.262-0.174 0.42s0.063 0.309 0.174 0.42l1.58 1.58h-3l-1-2v-8h1z" fill="#a94451"/>
            <clipPath id="_clip3">
                <path d="m23 20 3 2-1.58 1.58c-0.111 0.111-0.174 0.262-0.174 0.42s0.063 0.309 0.174 0.42l1.58 1.58-1.58 1.58c-0.111 0.111-0.174 0.262-0.174 0.42s0.063 0.309 0.174 0.42l1.58 1.58h-3l-1-2v-8h1z"/>
            </clipPath>
            <g clip-path="url(#_clip3)" fill="none" stroke="#9c2028" stroke-linecap="butt" stroke-linejoin="miter" stroke-miterlimit="3" stroke-width="1px">
                <path d="m26 25-4-4"/>
                <path d="m26 29-5-5"/>
            </g>
            <path d="m9 20-3 2 1.58 1.58c0.111 0.111 0.174 0.262 0.174 0.42s-0.063 0.309-0.174 0.42l-1.58 1.58 1.58 1.58c0.111 0.111 0.174 0.262 0.174 0.42s-0.063 0.309-0.174 0.42l-1.58 1.58h3l1-2v-8h-1z" fill="#a94451"/>
            <clipPath id="_clip4">
                <path d="m9 20-3 2 1.58 1.58c0.111 0.111 0.174 0.262 0.174 0.42s-0.063 0.309-0.174 0.42l-1.58 1.58 1.58 1.58c0.111 0.111 0.174 0.262 0.174 0.42s-0.063 0.309-0.174 0.42l-1.58 1.58h3l1-2v-8h-1z"/>
            </clipPath>
            <g clip-path="url(#_clip4)" fill="none" stroke="#9c2028" stroke-linecap="butt" stroke-linejoin="miter" stroke-miterlimit="3" stroke-width="1px">
                <path d="m6 25 4-4"/>
                <path d="m6 29 5-5"/>
            </g>
            <path d="m6 14c0-2.209 1.791-4 4-4h12.04c2.209 0 4 1.791 4 4v0.145c0 1.903-0.453 3.778-1.32 5.472-0.677 1.321-1.517 2.959-2.273 4.436-1.242 2.423-3.735 3.947-6.458 3.947h-1e-3c-2.751 0-5.267-1.552-6.501-4.011-0.739-1.474-1.556-3.1-2.212-4.409-0.839-1.67-1.275-3.513-1.275-5.382v-0.198z" fill="#30c99e"/>
            <path d="m12 22c2.371 1.778 5.629 1.778 8 0" fill="none" stroke="#219781" stroke-linejoin="miter" stroke-width="2px"/>
            <path d="m19 12.878c0-1.037 0.841-1.878 1.878-1.878h2e-3c0.717 0 1.405 0.285 1.912 0.792l0.501 0.501c0.39 0.39 0.39 1.024 0 1.414l-0.501 0.501c-0.507 0.507-1.195 0.792-1.912 0.792h-2e-3c-1.037 0-1.878-0.841-1.878-1.878v-0.244z"/>
            <path d="m13 12.878c0-1.037-0.841-1.878-1.878-1.878h-2e-3c-0.717 0-1.405 0.285-1.912 0.792l-0.501 0.501c-0.39 0.39-0.39 1.024 0 1.414l0.501 0.501c0.507 0.507 1.195 0.792 1.912 0.792h2e-3c1.037 0 1.878-0.841 1.878-1.878v-0.244z"/>
            <path d="m14 19s0.428-0.855 0.724-1.447c0.169-0.339 0.515-0.553 0.894-0.553h0.764c0.379 0 0.725 0.214 0.894 0.553 0.296 0.592 0.724 1.447 0.724 1.447h-4z" fill="#219781"/>
        </g>
    </g>
</svg>
