<?xml version="1.0" encoding="UTF-8"?>
<!DOCTYPE svg  PUBLIC '-//W3C//DTD SVG 1.1//EN'  'http://www.w3.org/Graphics/SVG/1.1/DTD/svg11.dtd'>
<svg clip-rule="evenodd" fill-rule="evenodd" stroke-linejoin="round" stroke-miterlimit="2" version="1.1" viewBox="0 0 32 32" xml:space="preserve" xmlns="http://www.w3.org/2000/svg">
<metadata>
<rdf:RDF xmlns:cc="http://web.resource.org/cc/" xmlns:dc="http://purl.org/dc/elements/1.1/" xmlns:rdf="http://www.w3.org/1999/02/22-rdf-syntax-ns#">

     <rdf:Description rdf:about="">
       <dc:title>Mutant Standard emoji 2023.12</dc:title>
     </rdf:Description>

    <cc:work rdf:about="">
        <cc:license rdf:resource="http://creativecommons.org/licenses/by-nc-sa/4.0/"/>
        <cc:attributionName>Caius Nocturne</cc:attributionName>
        <cc:attributionURL>http://mutant.tech/</cc:attributionURL>
    </cc:work>

</rdf:RDF>
</metadata>

    <rect id="goblin" width="32" height="32" fill="none"/>
    <clipPath id="_clip1">
        <rect width="32" height="32"/>
    </clipPath>
    <g clip-path="url(#_clip1)">
        <g id="outline">
            <path d="m0 8.757 0.399-0.399 6.91 2.304c0.063-0.235 0.136-0.468 0.218-0.697 0.46-1.283 1.213-2.456 2.189-3.408 0.948-0.925 2.1-1.635 3.353-2.066 0.625-0.216 1.274-0.362 1.931-0.435 0.295-0.033 0.591-0.05 0.888-0.055 0.114-1e-3 0.114-1e-3 0.228 0 0.306 6e-3 0.611 0.023 0.915 0.058 0.667 0.076 1.326 0.227 1.96 0.45 1.163 0.41 2.238 1.062 3.14 1.902 1.034 0.963 1.837 2.168 2.322 3.494 0.091 0.249 0.171 0.501 0.239 0.756l6.909-2.303 0.399 0.399v2.592c-0.49 1.498-0.978 2.997-1.505 4.483-0.04 0.108-0.081 0.216-0.125 0.323-0.247 0.58-0.563 1.126-0.953 1.622-0.44 0.561-0.967 1.054-1.555 1.456-0.261 0.178-0.533 0.336-0.814 0.479l-2.459 1.23c-0.18 0.605-0.416 1.193-0.706 1.753-0.317 0.614-0.698 1.189-1.131 1.726-0.77 0.934-1.55 1.86-2.325 2.791-0.207 0.241-0.429 0.465-0.676 0.666-0.563 0.459-1.226 0.792-1.931 0.97-0.357 0.09-0.719 0.135-1.086 0.15-0.45 7e-3 -0.901 2e-3 -1.351 2e-3 -0.316-4e-3 -0.629-0.031-0.94-0.092-0.709-0.138-1.387-0.431-1.973-0.854-0.297-0.214-0.563-0.461-0.81-0.731-0.807-0.934-1.595-1.885-2.384-2.834-0.3-0.369-0.577-0.756-0.824-1.162-0.449-0.74-0.801-1.538-1.046-2.368-0.871-0.434-1.74-0.872-2.602-1.323-0.102-0.055-0.203-0.112-0.302-0.171-0.54-0.326-1.035-0.716-1.472-1.172-0.513-0.536-0.939-1.154-1.259-1.823-0.123-0.259-0.229-0.525-0.321-0.796l-1.45-4.349v-2.568z"/>
        </g>
        <g id="emoji">
            <path d="m23 13c0-3.866-3.134-7-7-7-1.857 0-3.637 0.737-4.95 2.05s-2.05 3.093-2.05 4.95v5.138c0 1.883 0.665 3.707 1.877 5.148 0.762 0.906 1.606 1.91 2.224 2.645 0.57 0.678 1.41 1.069 2.296 1.069h1.198c0.89 0 1.735-0.395 2.305-1.079 0.624-0.75 1.478-1.775 2.246-2.696 1.198-1.438 1.854-3.25 1.854-5.121v-5.104z" fill="#77b84c"/>
            <path d="m29.5 12.5 0.5-1.5-8 2.667v6.333l1.714-0.857 5.786-6.643z" fill="#77b84c"/>
            <path d="m29.5 12.5-2.938 0.979c-0.973 0.325-1.713 1.124-1.961 2.119l-0.887 3.545 2.434-1.217c1.186-0.593 2.088-1.633 2.507-2.891l0.845-2.535z" fill="#618e29"/>
            <path d="m2.5 12.5-0.5-1.5 8 2.667v6.333l-1.714-0.857-5.786-6.643z" fill="#77b84c"/>
            <path d="m2.5 12.5 2.938 0.979c0.973 0.325 1.713 1.124 1.961 2.119l0.887 3.545-2.434-1.217c-1.186-0.593-2.088-1.633-2.507-2.891l-0.845-2.535z" fill="#618e29"/>
            <path d="m19.707 22.707c-0.087 0.087-0.173 0.175-0.265 0.258-0.122 0.11-0.25 0.213-0.384 0.308-0.454 0.318-0.973 0.541-1.517 0.65-0.226 0.045-0.454 0.067-0.684 0.076-0.571 7e-3 -1.143 7e-3 -1.714 0-0.23-9e-3 -0.458-0.031-0.684-0.076-0.544-0.109-1.063-0.332-1.516-0.65-0.135-0.095-0.263-0.198-0.385-0.308-0.092-0.083-0.178-0.171-0.265-0.258l1.414-1.414c0.064 0.064 0.127 0.128 0.193 0.19 0.037 0.032 0.075 0.064 0.114 0.095 0.235 0.178 0.5 0.308 0.789 0.373 0.128 0.029 0.258 0.043 0.39 0.048 0.538 7e-3 1.076 7e-3 1.614 0 0.395-0.014 0.776-0.135 1.1-0.363 0.143-0.1 0.263-0.22 0.386-0.343l1.414 1.414zm-1-4-2.707 2.707-2.707-2.707 1.414-1.414 1.293 1.293 1.293-1.293 1.414 1.414z" fill="#456e17"/>
            <path d="m10.748 15.832c-0.367-0.244-0.53-0.7-0.402-1.122 0.127-0.422 0.516-0.71 0.957-0.71h1.828c0.369 0 0.708 0.203 0.882 0.528s0.155 0.72-0.049 1.027c-0.166 0.248-0.33 0.494-0.474 0.71-0.28 0.42-0.828 0.566-1.28 0.34-0.559-0.279-1.21-0.605-1.21-0.605s-0.095-0.064-0.252-0.168zm10.504 0c0.367-0.244 0.53-0.7 0.402-1.122-0.127-0.422-0.516-0.71-0.957-0.71h-1.828c-0.369 0-0.708 0.203-0.882 0.528s-0.155 0.72 0.049 1.027c0.166 0.248 0.33 0.494 0.474 0.71 0.28 0.42 0.828 0.566 1.28 0.34 0.559-0.279 1.21-0.605 1.21-0.605s0.095-0.064 0.252-0.168z"/>
        </g>
    </g>
</svg>
