<?xml version="1.0" encoding="UTF-8"?>
<!DOCTYPE svg  PUBLIC '-//W3C//DTD SVG 1.1//EN'  'http://www.w3.org/Graphics/SVG/1.1/DTD/svg11.dtd'>
<svg clip-rule="evenodd" fill-rule="evenodd" version="1.1" viewBox="0 0 32 32" xml:space="preserve" xmlns="http://www.w3.org/2000/svg">
<metadata>
<rdf:RDF xmlns:cc="http://web.resource.org/cc/" xmlns:dc="http://purl.org/dc/elements/1.1/" xmlns:rdf="http://www.w3.org/1999/02/22-rdf-syntax-ns#">

     <rdf:Description rdf:about="">
       <dc:title>Mutant Standard emoji 2023.12</dc:title>
     </rdf:Description>

    <cc:work rdf:about="">
        <cc:license rdf:resource="http://creativecommons.org/licenses/by-nc-sa/4.0/"/>
        <cc:attributionName>Caius Nocturne</cc:attributionName>
        <cc:attributionURL>http://mutant.tech/</cc:attributionURL>
    </cc:work>

</rdf:RDF>
</metadata>

    <rect id="half_demon" width="32" height="32" fill="none"/>
    <clipPath id="_clip1">
        <rect width="32" height="32"/>
    </clipPath>
    <g clip-path="url(#_clip1)">
        <g id="outline">
            <path d="m16 7c-4.971 0-9 4.029-9 9v4c0 1.298 0.421 2.561 1.2 3.6 1.151 1.534 2.862 3.816 3.9 5.2 0.567 0.755 1.456 1.2 2.4 1.2h3c0.944 0 1.833-0.445 2.4-1.2 1.038-1.384 2.749-3.666 3.9-5.2 0.779-1.039 1.2-2.302 1.2-3.6v-4c0-4.971-4.029-9-9-9z" fill="none" stroke="#000" stroke-width="4px"/>
            <path d="m9 9 3-6 2 2 2-2 2 2 2-2 3 6v4h-14v-4z" fill="none" stroke="#000" stroke-width="4px"/>
            <path d="m12.702 9.351c0.796 0.398 1.298 1.211 1.298 2.1v0.202c0 1.296-1.051 2.347-2.347 2.347h-0.102c-3.066 0-5.551-2.485-5.551-5.551v-1.792c0-1.061 0.421-2.078 1.172-2.829l0.828-0.828v1.528c0 1.515 0.856 2.9 2.211 3.578 0.838 0.419 1.764 0.882 2.491 1.245z" fill="none" stroke="#000" stroke-width="4px"/>
            <path d="m19.298 9.351c-0.796 0.398-1.298 1.211-1.298 2.1v0.202c0 1.296 1.051 2.347 2.347 2.347h0.102c3.066 0 5.551-2.485 5.551-5.551v-1.792c0-1.061-0.421-2.078-1.172-2.829l-0.828-0.828v1.528c0 1.515-0.856 2.9-2.211 3.578-0.838 0.419-1.764 0.882-2.491 1.245z" fill="none" stroke="#000" stroke-width="4px"/>
            <path d="m29 10.709v8.304l-1e-3 0.089-4e-3 0.103-6e-3 0.101-9e-3 0.1-0.012 0.101-0.014 0.1-0.016 0.099-0.019 0.098-0.021 0.097-0.024 0.097-0.026 0.096-0.028 0.095-0.031 0.094-0.032 0.093-0.035 0.091-0.037 0.09-0.039 0.09-0.041 0.089-0.044 0.087-0.045 0.085-0.047 0.084-0.049 0.084-0.051 0.081-0.053 0.081-0.055 0.079-0.056 0.077-0.059 0.076-0.06 0.075-0.062 0.073-0.063 0.072-0.066 0.07-0.066 0.068-0.069 0.067-0.07 0.066-0.071 0.063-0.074 0.062-0.074 0.06-0.076 0.058-0.079 0.057-0.078 0.055-0.08 0.053-0.083 0.051-0.082 0.049-0.085 0.047-0.085 0.045-0.088 0.044-0.088 0.041-0.089 0.039-0.091 0.037-0.092 0.035-0.092 0.033-0.094 0.03-0.095 0.028-0.096 0.026-0.097 0.024-0.097 0.021-0.098 0.019-0.099 0.016-0.1 0.014-0.1 0.012-0.101 9e-3 -0.102 6e-3 -0.102 4e-3 -0.089 1e-3h-4.013v-9.236l7.154-3.577 0.846 0.522zm-4 5.527v2.751-2.751z"/>
            <path d="m11 13.764v9.236h-4.013l-0.089-1e-3 -0.102-4e-3 -0.102-6e-3 -0.101-9e-3 -0.1-0.012-0.1-0.014-0.099-0.016-0.098-0.019-0.098-0.021-0.096-0.024-0.096-0.026-0.095-0.028-0.093-0.03-0.093-0.033-0.092-0.035-0.091-0.037-0.089-0.039-0.088-0.041-0.087-0.044-0.086-0.045-0.085-0.047-0.083-0.049-0.081-0.051-0.081-0.053-0.079-0.055-0.077-0.057-0.077-0.058-0.074-0.06-0.073-0.062-0.072-0.063-0.07-0.066-0.069-0.067-0.066-0.068-0.065-0.07-0.064-0.071-0.062-0.074-0.06-0.074-0.059-0.077-0.056-0.077-0.055-0.079-0.053-0.08-0.051-0.082-0.049-0.084-0.047-0.084-0.045-0.086-0.044-0.087-0.041-0.088-0.039-0.089-0.037-0.091-0.035-0.092-0.033-0.093-0.03-0.093-0.028-0.095-0.026-0.096-0.024-0.096-0.021-0.098-0.019-0.099-0.016-0.098-0.014-0.1-0.012-0.1-9e-3 -0.101-6e-3 -0.102-4e-3 -0.102-1e-3 -0.089v-8.304l0.846-0.522 7.154 3.577zm-4 5.223v-2.751 2.751z"/>
        </g>
        <g id="emoji">
            <path d="m16 7c-4.971 0-9 4.029-9 9v4c0 1.298 0.421 2.561 1.2 3.6 1.151 1.534 2.862 3.816 3.9 5.2 0.567 0.755 1.456 1.2 2.4 1.2h3c0.944 0 1.833-0.445 2.4-1.2 1.038-1.384 2.749-3.666 3.9-5.2 0.779-1.039 1.2-2.302 1.2-3.6v-4c0-4.971-4.029-9-9-9z" fill="#e02e34"/>
            <path d="m9 9 3-6 2 2 2-2 2 2 2-2 3 6v2l-7 2-7-2v-2z" fill="#402126"/>
            <path d="m12.723 9.361c0.782 0.392 1.277 1.192 1.277 2.067v0.261c0 0.613-0.243 1.201-0.677 1.634-0.433 0.434-1.021 0.677-1.634 0.677h-0.138c-3.066 0-5.551-2.485-5.551-5.551v-1.792c0-1.061 0.421-2.078 1.172-2.829l0.828-0.828v1.528c0 1.515 0.856 2.9 2.211 3.578 0.846 0.422 1.782 0.89 2.512 1.255z" fill="#81192b"/>
            <path d="m19.277 9.361c-0.782 0.392-1.277 1.192-1.277 2.067v0.261c0 0.613 0.243 1.201 0.677 1.634 0.433 0.434 1.021 0.677 1.634 0.677h0.138c3.066 0 5.551-2.485 5.551-5.551v-1.792c0-1.061-0.421-2.078-1.172-2.829l-0.828-0.828v1.528c0 1.515-0.856 2.9-2.211 3.578-0.846 0.422-1.782 0.89-2.512 1.255z" fill="#81192b"/>
            <path d="m18.999 16c-0.265 0-0.519 0.105-0.706 0.293-0.188 0.187-0.293 0.441-0.293 0.706v1e-3s2.48 1.653 2.93 1.953c0.046 0.031 0.099 0.047 0.154 0.047h2e-3c1.057 0 1.914-0.857 1.914-1.914v-1.086h-4.001z"/>
            <path d="m13 16c0.552 0 1 0.448 1 1 0 0-2.48 1.653-2.93 1.953-0.046 0.031-0.099 0.047-0.154 0.047h-2e-3c-1.057 0-1.914-0.857-1.914-1.914v-1.086h4z"/>
            <path d="m14 21 2 1 2-1" fill="none" stroke="#800e0e" stroke-width="2px"/>
            <path d="m12 25s1.275 0.637 1.789 0.894c0.139 0.07 0.292 0.106 0.447 0.106h3.528c0.155 0 0.308-0.036 0.447-0.106 0.514-0.257 1.789-0.894 1.789-0.894" fill="none" stroke="#800e0e" stroke-width="2px"/>
            <path d="m23 15 4-2v6c0 1.105-0.895 2-2 2h-2v-6z" fill="#e02e34"/>
            <clipPath id="_clip2">
                <path d="m23 15 4-2v6c0 1.105-0.895 2-2 2h-2v-6z"/>
            </clipPath>
            <g clip-path="url(#_clip2)">
                <path d="m29 21-4 2v-6c0-1.105 0.895-2 2-2h2v6z" fill="#9c1b31"/>
            </g>
            <path d="m9 15-4-2v6c0 1.105 0.895 2 2 2h2v-6z" fill="#e02e34"/>
            <clipPath id="_clip3">
                <path d="m9 15-4-2v6c0 1.105 0.895 2 2 2h2v-6z"/>
            </clipPath>
            <g clip-path="url(#_clip3)">
                <path d="m3 21 4 2v-6c0-1.105-0.895-2-2-2h-2v6z" fill="#9c1b31"/>
            </g>
        </g>
    </g>
</svg>
