<?xml version="1.0" encoding="UTF-8"?>
<!DOCTYPE svg  PUBLIC '-//W3C//DTD SVG 1.1//EN'  'http://www.w3.org/Graphics/SVG/1.1/DTD/svg11.dtd'>
<svg clip-rule="evenodd" fill-rule="evenodd" stroke-miterlimit="1.5" version="1.1" viewBox="0 0 32 32" xml:space="preserve" xmlns="http://www.w3.org/2000/svg">
<metadata>
<rdf:RDF xmlns:cc="http://web.resource.org/cc/" xmlns:dc="http://purl.org/dc/elements/1.1/" xmlns:rdf="http://www.w3.org/1999/02/22-rdf-syntax-ns#">

     <rdf:Description rdf:about="">
       <dc:title>Mutant Standard emoji 2023.12</dc:title>
     </rdf:Description>

    <cc:work rdf:about="">
        <cc:license rdf:resource="http://creativecommons.org/licenses/by-nc-sa/4.0/"/>
        <cc:attributionName>Caius Nocturne</cc:attributionName>
        <cc:attributionURL>http://mutant.tech/</cc:attributionURL>
    </cc:work>

</rdf:RDF>
</metadata>

    <rect id="kobold" width="32" height="32" fill="none"/>
    <g id="outline">
        <path d="m22.63 6.267 0.819-1.636 5.382-3.589c0.39 0.209 0.779 0.417 1.169 0.626 0 3.889-0.05 5.966-0.373 7.884 0.031 0.093 0.061 0.187 0.092 0.28l0.037 0.118c0.038 0.138 0.073 0.274 0.098 0.415 0.042 0.232 0.064 0.467 0.065 0.703 1e-3 0.285-0.033 0.564-0.088 0.843-0.257 1.112-0.551 2.214-0.827 3.321-2e-3 5e-3 -4e-3 0.015-4e-3 0.015-0.024 1.618 0.028 3.237-2e-3 4.856-4e-3 0.115-9e-3 0.23-0.017 0.346-0.055 0.685-0.202 1.358-0.45 2-0.331 0.858-0.831 1.637-1.46 2.306-1.566 1.625-3.191 3.193-4.787 4.789-0.203 0.199-0.419 0.383-0.651 0.547-0.534 0.375-1.14 0.643-1.776 0.787-0.321 0.072-0.647 0.108-0.976 0.121-1.883 0.023-3.767 1e-3 -5.651 1e-3 -0.284-4e-3 -0.567-0.025-0.847-0.074-0.642-0.112-1.261-0.351-1.812-0.699-0.278-0.176-0.534-0.381-0.775-0.605-1.643-1.602-3.275-3.216-4.867-4.868-0.59-0.627-1.066-1.349-1.396-2.146s-0.504-1.645-0.531-2.505c-0.03-1.619 0.073-3.24-2e-3 -4.857-0.251-1.075-0.536-2.142-0.803-3.213l-0.028-0.121c-0.027-0.14-0.052-0.279-0.067-0.421-0.029-0.281-0.028-0.566 3e-3 -0.846 0.024-0.216 0.068-0.427 0.123-0.636l-0.228-0.684v-7.657l1.169-0.626c1.794 1.196 3.588 2.392 5.382 3.589l0.819 1.636c0.371 0.127 0.727 0.297 1.059 0.506 0.278 0.176 0.534 0.381 0.775 0.605 0.21 0.205 0.414 0.417 0.624 0.622 3e-3 3e-3 9e-3 0 0.013 0h8.318 0.013c0.183-0.179 0.363-0.363 0.544-0.544 0.085-0.083 0.084-0.082 0.171-0.163 0.246-0.217 0.506-0.415 0.788-0.584 0.302-0.18 0.623-0.329 0.955-0.442z"/>
    </g>
    <g id="emoji">
        <path d="m6 15-2-6v-5l3 2 2 4-3 5z" fill="#a18330"/>
        <path d="m26 15 2-6v-5l-3 2-2 4 3 5z" fill="#a18330"/>
        <path d="m4.141 11.565c-0.092-0.369-0.077-0.757 0.043-1.118 0.04-0.12 0.085-0.254 0.132-0.396 0.409-1.225 1.555-2.051 2.846-2.051h0.595c0.796 0 1.559 0.316 2.122 0.879l0.535 0.535c0.375 0.375 0.884 0.586 1.414 0.586h8.344c0.53 0 1.039-0.211 1.414-0.586l0.535-0.535c0.563-0.563 1.326-0.879 2.122-0.879h0.595c1.291 0 2.437 0.826 2.846 2.051 0.047 0.142 0.092 0.276 0.132 0.396 0.12 0.361 0.135 0.749 0.043 1.118-0.222 0.888-0.644 2.574-0.799 3.196-0.04 0.159-0.06 0.322-0.06 0.485v4.683c0 1.326-0.527 2.598-1.464 3.535l-4.657 4.657c-0.563 0.563-1.326 0.879-2.122 0.879h-5.514c-0.796 0-1.559-0.316-2.122-0.879l-4.657-4.657c-0.937-0.937-1.464-2.209-1.464-3.535v-4.683c0-0.163-0.02-0.326-0.06-0.485-0.155-0.622-0.577-2.308-0.799-3.196z" fill="#618e29"/>
        <clipPath id="_clip1">
            <path d="m4.141 11.565c-0.092-0.369-0.077-0.757 0.043-1.118 0.04-0.12 0.085-0.254 0.132-0.396 0.409-1.225 1.555-2.051 2.846-2.051h0.595c0.796 0 1.559 0.316 2.122 0.879l0.535 0.535c0.375 0.375 0.884 0.586 1.414 0.586h8.344c0.53 0 1.039-0.211 1.414-0.586l0.535-0.535c0.563-0.563 1.326-0.879 2.122-0.879h0.595c1.291 0 2.437 0.826 2.846 2.051 0.047 0.142 0.092 0.276 0.132 0.396 0.12 0.361 0.135 0.749 0.043 1.118-0.222 0.888-0.644 2.574-0.799 3.196-0.04 0.159-0.06 0.322-0.06 0.485v4.683c0 1.326-0.527 2.598-1.464 3.535l-4.657 4.657c-0.563 0.563-1.326 0.879-2.122 0.879h-5.514c-0.796 0-1.559-0.316-2.122-0.879l-4.657-4.657c-0.937-0.937-1.464-2.209-1.464-3.535v-4.683c0-0.163-0.02-0.326-0.06-0.485-0.155-0.622-0.577-2.308-0.799-3.196z"/>
        </clipPath>
        <g clip-path="url(#_clip1)">
            <path d="m11 15 1 3v1e-3c0 0.587 0.4 1.099 0.97 1.241 0.805 0.202 1.916 0.48 2.545 0.637 0.318 0.079 0.652 0.079 0.97 0 0.629-0.157 1.74-0.435 2.545-0.637 0.57-0.142 0.97-0.654 0.97-1.241v-1e-3l1-3s1.379-0.69 2.518-1.259c0.949-0.474 1.67-1.306 2.006-2.313 0.593-1.778 1.476-4.428 1.476-4.428h-22s0.883 2.65 1.476 4.428c0.336 1.007 1.057 1.839 2.006 2.313 1.139 0.569 2.518 1.259 2.518 1.259z" fill="#77b84c"/>
            <path d="m3 19 6 2 2 3 1-1 2 2.5h4l2-2.5 1 1 2-3 6-2" fill="none" stroke="#2f4d00" stroke-width="1px"/>
            <path d="m17 9.5c0-0.265-0.105-0.52-0.293-0.707-0.187-0.188-0.442-0.293-0.707-0.293s-0.52 0.105-0.707 0.293c-0.188 0.187-0.293 0.442-0.293 0.707v5c0 0.265 0.105 0.52 0.293 0.707 0.187 0.188 0.442 0.293 0.707 0.293s0.52-0.105 0.707-0.293c0.188-0.187 0.293-0.442 0.293-0.707v-5z" fill="#618e29"/>
        </g>
        <path d="m11.32 15.279c-0.199-0.797-0.792-1.436-1.571-1.696h-1e-3c-0.451-0.151-0.944-0.106-1.361 0.123-0.416 0.228-0.719 0.62-0.834 1.081-0.034 0.138-0.069 0.278-0.104 0.416-0.253 1.014 0.317 2.052 1.308 2.383 0.361 0.12 0.702 0.234 0.935 0.311 0.204 0.068 0.418 0.103 0.633 0.103h1.675s-0.388-1.55-0.68-2.721z"/>
        <path d="m20.68 15.279c0.199-0.797 0.792-1.436 1.571-1.696h1e-3c0.451-0.151 0.944-0.106 1.361 0.123 0.416 0.228 0.719 0.62 0.834 1.081 0.034 0.138 0.069 0.278 0.104 0.416 0.253 1.014-0.317 2.052-1.308 2.383-0.361 0.12-0.702 0.234-0.935 0.311-0.204 0.068-0.418 0.103-0.633 0.103h-1.675s0.388-1.55 0.68-2.721z"/>
        <path d="m12.43 20c-0.306 0-0.591-0.159-0.752-0.419-0.161-0.261-0.175-0.586-0.038-0.86v-2e-3c0.199-0.397 0.682-0.558 1.079-0.359 0.24 0.119 0.503 0.251 0.728 0.364 0.339 0.169 0.553 0.515 0.553 0.894v1.382l-1-1h-0.57z"/>
        <path d="m19.57 20c0.306 0 0.591-0.159 0.752-0.419 0.161-0.261 0.175-0.586 0.038-0.86v-2e-3c-0.199-0.397-0.682-0.558-1.079-0.359-0.24 0.119-0.503 0.251-0.728 0.364-0.339 0.169-0.553 0.515-0.553 0.894v1.382l0.719-0.719c0.18-0.18 0.424-0.281 0.679-0.281h0.172z"/>
    </g>
</svg>
