<?xml version="1.0" encoding="UTF-8"?>
<!DOCTYPE svg  PUBLIC '-//W3C//DTD SVG 1.1//EN'  'http://www.w3.org/Graphics/SVG/1.1/DTD/svg11.dtd'>
<svg clip-rule="evenodd" fill-rule="evenodd" stroke-linecap="round" stroke-linejoin="round" stroke-miterlimit="1.5" version="1.1" viewBox="0 0 32 32" xml:space="preserve" xmlns="http://www.w3.org/2000/svg">
<metadata>
<rdf:RDF xmlns:cc="http://web.resource.org/cc/" xmlns:dc="http://purl.org/dc/elements/1.1/" xmlns:rdf="http://www.w3.org/1999/02/22-rdf-syntax-ns#">

     <rdf:Description rdf:about="">
       <dc:title>Mutant Standard emoji 2023.12</dc:title>
     </rdf:Description>

    <cc:work rdf:about="">
        <cc:license rdf:resource="http://creativecommons.org/licenses/by-nc-sa/4.0/"/>
        <cc:attributionName>Caius Nocturne</cc:attributionName>
        <cc:attributionURL>http://mutant.tech/</cc:attributionURL>
    </cc:work>

</rdf:RDF>
</metadata>

    <rect id="merperson" width="32" height="32" fill="none"/>
    <clipPath id="_clip1">
        <rect width="32" height="32"/>
    </clipPath>
    <g clip-path="url(#_clip1)">
        <g id="outline">
            <path d="m15 30c-3.314 0-6-2.686-6-6v-13h6v11c0 1.657 1.343 3 3 3h0.929c1.326 0 2.598-0.527 3.535-1.464l0.536-0.536v-1.414c0-0.375 0.149-0.735 0.414-1l2.586-2.586v4h4l-2.586 2.586c-0.265 0.265-0.625 0.414-1 0.414h-1.414l-2.364 2.364c-1.688 1.688-3.977 2.636-6.364 2.636h-1.272z" fill="#616161" stroke="#000" stroke-width="4px"/>
            <path d="m15 5.721c0-1.503-1.218-2.721-2.721-2.721h-0.558c-1.503 0-2.721 1.218-2.721 2.721v1.558c0 1.503 1.218 2.721 2.721 2.721h0.558c1.503 0 2.721-1.218 2.721-2.721v-1.558z" fill="#616161" stroke="#000" stroke-width="4px"/>
            <path d="m14 12h2c0.552 0 1 0.448 1 1v4l3 3" fill="none" stroke="#000" stroke-width="6px"/>
            <path d="m10 12h-2c-0.552 0-1 0.448-1 1v4l-3 3" fill="none" stroke="#000" stroke-width="6px"/>
            <rect x="16" y="20" width="6" height="5"/>
        </g>
        <g id="emoji">
            <path d="m9 23v-12h6v12l-0.75 1h-4.5l-0.75-1z" fill="#616161"/>
            <path d="m15 5.721c0-1.503-1.218-2.721-2.721-2.721h-0.558c-1.503 0-2.721 1.218-2.721 2.721v1.558c0 1.503 1.218 2.721 2.721 2.721h0.558c1.503 0 2.721-1.218 2.721-2.721v-1.558z" fill="#616161"/>
            <path d="m14 12h2c0.552 0 1 0.448 1 1v4l3 3" fill="none" stroke="#616161" stroke-width="2px"/>
            <path d="m10 12h-2c-0.552 0-1 0.448-1 1v4l-3 3" fill="none" stroke="#616161" stroke-width="2px"/>
            <path d="m15 30c-1.591 0-3.117-0.632-4.243-1.757-1.125-1.126-1.757-2.652-1.757-4.243v-2h6v2e-3c0 0.795 0.316 1.558 0.878 2.12s1.325 0.878 2.12 0.878h0.931c1.326 0 2.598-0.527 3.535-1.464l0.536-0.536v-1.414c0-0.375 0.149-0.735 0.414-1l2.586-2.586v4h4l-2.586 2.586c-0.265 0.265-0.625 0.414-1 0.414h-1.414l-2.364 2.364c-1.688 1.688-3.977 2.636-6.364 2.636h-1.272z" fill="#1aa880"/>
            <path d="m11 5.5c0-0.133-0.053-0.26-0.146-0.354-0.094-0.093-0.221-0.146-0.354-0.146s-0.26 0.053-0.354 0.146c-0.093 0.094-0.146 0.221-0.146 0.354v1c0 0.133 0.053 0.26 0.146 0.354 0.094 0.093 0.221 0.146 0.354 0.146s0.26-0.053 0.354-0.146c0.093-0.094 0.146-0.221 0.146-0.354v-1z"/>
            <path d="m14 5.5c0-0.133-0.053-0.26-0.146-0.354-0.094-0.093-0.221-0.146-0.354-0.146s-0.26 0.053-0.354 0.146c-0.093 0.094-0.146 0.221-0.146 0.354v1c0 0.133 0.053 0.26 0.146 0.354 0.094 0.093 0.221 0.146 0.354 0.146s0.26-0.053 0.354-0.146c0.093-0.094 0.146-0.221 0.146-0.354v-1z"/>
        </g>
    </g>
</svg>
