<?xml version="1.0" encoding="UTF-8"?>
<svg clip-rule="evenodd" fill-rule="evenodd" stroke-linecap="round" stroke-linejoin="round" stroke-miterlimit="1.5" viewBox="0 0 32 32" xmlns="http://www.w3.org/2000/svg">
 <clipPath id="a">
  <path d="m0 0h32v32h-32z" clip-rule="evenodd"/>
 </clipPath>
 <path d="m0 0h32v32h-32z" fill="none"/>
 <g clip-path="url(#a)">
  <g stroke="#000">
   <path d="m15 30c-3.314 0-6-2.686-6-6v-13h6v11c0 1.657 1.343 3 3 3h0.929c1.326 0 2.598-0.527 3.535-1.464l0.536-0.536v-1.414c0-0.375 0.149-0.735 0.414-1l2.586-2.586v4h4s-1.763 1.763-2.586 2.586c-0.265 0.265-0.625 0.414-1 0.414h-1.414s-1.161 1.161-2.364 2.364c-1.688 1.688-3.977 2.636-6.364 2.636z" fill="#FEE3D2" stroke-width="4"/>
   <path d="m15 5.721c0-1.503-1.218-2.721-2.721-2.721h-0.558c-1.503 0-2.721 1.218-2.721 2.721v1.558c0 1.503 1.218 2.721 2.721 2.721h0.558c1.503 0 2.721-1.218 2.721-2.721v-1.558z" fill="#FEE3D2" stroke-width="4"/>
   <path d="m14 12h2c.552 0 1 .448 1 1v4l3 3" fill="none" stroke-width="6"/>
   <path d="m10 12h-2c-.552 0-1 .448-1 1v4l-3 3" fill="none" stroke-width="6"/>
  </g>
  <path d="m16 20h6v5h-6z"/>
  <path d="m9 23v-12h6v12l-.75 1h-4.5z" fill="#FEE3D2"/>
  <path d="m15 5.721c0-1.503-1.218-2.721-2.721-2.721h-0.558c-1.503 0-2.721 1.218-2.721 2.721v1.558c0 1.503 1.218 2.721 2.721 2.721h0.558c1.503 0 2.721-1.218 2.721-2.721v-1.558z" fill="#FEE3D2"/>
  <path d="m14 12h2c.552 0 1 .448 1 1v4l3 3" fill="none" stroke="#FEE3D2" stroke-width="2"/>
  <path d="m10 12h-2c-.552 0-1 .448-1 1v4l-3 3" fill="none" stroke="#FEE3D2" stroke-width="2"/>
  <path d="m15 30c-1.591 0-3.117-0.632-4.243-1.757-1.125-1.126-1.757-2.652-1.757-4.243v-2h6v2e-3c0 0.795 0.316 1.558 0.878 2.12s1.325 0.878 2.12 0.878h0.931c1.326 0 2.598-0.527 3.535-1.464l0.536-0.536v-1.414c0-0.375 0.149-0.735 0.414-1l2.586-2.586v4h4s-1.763 1.763-2.586 2.586c-0.265 0.265-0.625 0.414-1 0.414h-1.414s-1.161 1.161-2.364 2.364c-1.688 1.688-3.977 2.636-6.364 2.636z" fill="#21D3A1"/>
  <path d="m11 5.5c0-.133-.053-.26-.146-.354-.094-.093-.221-.146-.354-.146s-.26.053-.354.146c-.093.094-.146.221-.146.354v1c0 .133.053.26.146.354.094.093.221.146.354.146s.26-.053.354-.146c.093-.094.146-.221.146-.354 0-.305 0-.695 0-1z"/>
  <path d="m14 5.5c0-.133-.053-.26-.146-.354-.094-.093-.221-.146-.354-.146s-.26.053-.354.146c-.093.094-.146.221-.146.354v1c0 .133.053.26.146.354.094.093.221.146.354.146s.26-.053.354-.146c.093-.094.146-.221.146-.354 0-.305 0-.695 0-1z"/>
 </g>
</svg>
