<?xml version="1.0" encoding="UTF-8"?>
<svg clip-rule="evenodd" fill-rule="evenodd" stroke-linecap="round" viewBox="0 0 32 32" xmlns="http://www.w3.org/2000/svg">
 <clipPath id="a">
  <path d="m0 0h32v32h-32z" clip-rule="evenodd"/>
 </clipPath>
 <clipPath id="b">
  <path d="m8 7v11.757c0 0.796 0.316 1.559 0.879 2.122l2.121 2.121v2c0 1.657 1.343 3 3 3h4c1.657 0 3-1.343 3-3v-2s1.236-1.236 2.121-2.121c0.563-0.563 0.879-1.326 0.879-2.122v-11.757z" clip-rule="evenodd"/>
 </clipPath>
 <clipPath id="c">
  <path d="m23 17v-3c0-1.105 0.895-2 2-2h4s-1.92 2.4-3.099 3.874c-0.57 0.712-1.432 1.126-2.343 1.126h-0.558z" clip-rule="evenodd"/>
 </clipPath>
 <clipPath id="d">
  <path d="m9 17v-3c0-1.105-0.895-2-2-2h-4s1.92 2.4 3.099 3.874c0.57 0.712 1.432 1.126 2.343 1.126z" clip-rule="evenodd"/>
 </clipPath>
 <path d="m0 0h32v32h-32z" fill="none"/>
 <g clip-path="url(#a)">
  <g stroke="#000" stroke-width="4">
   <path d="m8 7v11.757c0 0.796 0.316 1.559 0.879 2.122l2.121 2.121v2c0 1.657 1.343 3 3 3h4c1.657 0 3-1.343 3-3v-2s1.236-1.236 2.121-2.121c0.563-0.563 0.879-1.326 0.879-2.122v-11.757z" fill="none"/>
   <path d="m21 8c0-0.552 0.448-1 1-1h2.757c0.796 0 1.559-0.316 2.122-0.879l0.535-0.535c0.375-0.375 0.884-0.586 1.414-0.586h1.172s-1.633 2.45-2.813 4.219c-0.741 1.113-1.99 1.781-3.328 1.781h-1.859c-0.552 0-1-0.448-1-1v-2z" fill="none"/>
   <path d="m11 8c0-0.552-0.448-1-1-1h-2.757c-0.796 0-1.559-0.316-2.122-0.879l-0.535-0.535c-0.375-0.375-0.884-0.586-1.414-0.586h-1.172s1.633 2.45 2.813 4.219c0.741 1.113 1.99 1.781 3.328 1.781h1.859c0.552 0 1-0.448 1-1v-2z" fill="none"/>
   <path d="m23 17v-3c0-1.105 0.895-2 2-2h4s-1.92 2.4-3.099 3.874c-0.57 0.712-1.432 1.126-2.343 1.126h-0.558z" fill="#ad8348" stroke-linejoin="round"/>
   <path d="m9 17v-3c0-1.105-0.895-2-2-2h-4s1.92 2.4 3.099 3.874c0.57 0.712 1.432 1.126 2.343 1.126z" fill="#ad8348" stroke-linejoin="round"/>
   <path d="m8 8 2-4 2 2 2-2 2 2 2-2 2 2 2-2 2 4v2h-16z" fill="#5b4526" stroke-linejoin="round"/>
  </g>
  <path d="m8 8 2-4 2 2 2-2 2 2 2-2 2 2 2-2 2 4v2h-16z" fill="#5b4526"/>
  <path d="m8 7v11.757c0 0.796 0.316 1.559 0.879 2.122l2.121 2.121v2c0 1.657 1.343 3 3 3h4c1.657 0 3-1.343 3-3v-2s1.236-1.236 2.121-2.121c0.563-0.563 0.879-1.326 0.879-2.122v-11.757z" fill="#ad8348"/>
  <g clip-path="url(#b)">
   <path d="m11 25s.69.345 1.259.63c.474.237 1.024.276 1.527.108.889-.296 2.214-.738 2.214-.738s1.325.442 2.214.738c.503.168 1.053.129 1.527-.108.569-.285 1.259-.63 1.259-.63" fill="none" stroke="#5b4526"/>
  </g>
  <path d="m18 23 1-1v-.5c0-.133-.053-.26-.146-.354-.094-.093-.221-.146-.354-.146-.305 0-.695 0-1 0-.133 0-.26.053-.354.146-.093.094-.146.221-.146.354v1c0 .133.053.26.146.354.094.093.221.146.354.146z" fill="#3c2e19"/>
  <path d="m14 23-1-1v-.5c0-.133.053-.26.146-.354.094-.093.221-.146.354-.146h1c.133 0 .26.053.354.146.093.094.146.221.146.354v1c0 .133-.053.26-.146.354-.094.093-.221.146-.354.146-.25 0-.5 0-.5 0z" fill="#3c2e19"/>
  <path d="m10 11s2.55 1.275 3.578 1.789c0.277 0.139 0.584 0.211 0.894 0.211h3.056c0.31 0 0.617-0.072 0.894-0.211l3.578-1.789v-5h-12z" fill="#5b4526"/>
  <path d="m21 8c0-0.552 0.448-1 1-1h2.757c0.796 0 1.559-0.316 2.122-0.879l0.535-0.535c0.375-0.375 0.884-0.586 1.414-0.586h1.172s-1.633 2.45-2.813 4.219c-0.741 1.113-1.99 1.781-3.328 1.781h-1.859c-0.552 0-1-0.448-1-1v-2z" fill="#beac92"/>
  <path d="m11 8c0-0.552-0.448-1-1-1h-2.757c-0.796 0-1.559-0.316-2.122-0.879l-0.535-0.535c-0.375-0.375-0.884-0.586-1.414-0.586h-1.172s1.633 2.45 2.813 4.219c0.741 1.113 1.99 1.781 3.328 1.781h1.859c0.552 0 1-0.448 1-1v-2z" fill="#beac92"/>
  <path d="m22 15h-1.764c-0.757 0-1.45 0.428-1.789 1.106l-0.447 0.894h3c0.552 0 1-0.448 1-1v-1z"/>
  <path d="m10 15h1.764c0.757 0 1.45 0.428 1.789 1.106l0.447 0.894h-3c-0.552 0-1-0.448-1-1v-1z"/>
  <path d="m23 17v-3c0-1.105 0.895-2 2-2h4s-1.92 2.4-3.099 3.874c-0.57 0.712-1.432 1.126-2.343 1.126h-0.558z" fill="#ad8348"/>
  <g clip-path="url(#c)">
   <path d="m29 13h-3c-.53 0-1.039.211-1.414.586s-.586.884-.586 1.414v3h5z" fill="#5b4526"/>
  </g>
  <path d="m9 17v-3c0-1.105-0.895-2-2-2h-4s1.92 2.4 3.099 3.874c0.57 0.712 1.432 1.126 2.343 1.126z" fill="#ad8348"/>
  <g clip-path="url(#d)">
   <path d="m3 13h3c.53 0 1.039.211 1.414.586s.586.884.586 1.414v3h-5z" fill="#5b4526"/>
  </g>
 </g>
</svg>
