<?xml version="1.0" encoding="UTF-8"?>
<!DOCTYPE svg  PUBLIC '-//W3C//DTD SVG 1.1//EN'  'http://www.w3.org/Graphics/SVG/1.1/DTD/svg11.dtd'>
<svg clip-rule="evenodd" fill-rule="evenodd" stroke-linecap="round" version="1.1" viewBox="0 0 32 32" xml:space="preserve" xmlns="http://www.w3.org/2000/svg">
<metadata>
<rdf:RDF xmlns:cc="http://web.resource.org/cc/" xmlns:dc="http://purl.org/dc/elements/1.1/" xmlns:rdf="http://www.w3.org/1999/02/22-rdf-syntax-ns#">

     <rdf:Description rdf:about="">
       <dc:title>Mutant Standard emoji 2023.12</dc:title>
     </rdf:Description>

    <cc:work rdf:about="">
        <cc:license rdf:resource="http://creativecommons.org/licenses/by-nc-sa/4.0/"/>
        <cc:attributionName>Caius Nocturne</cc:attributionName>
        <cc:attributionURL>http://mutant.tech/</cc:attributionURL>
    </cc:work>

</rdf:RDF>
</metadata>

    <rect id="minotaur" width="32" height="32" fill="none"/>
    <clipPath id="_clip1">
        <rect width="32" height="32"/>
    </clipPath>
    <g clip-path="url(#_clip1)">
        <g id="outline" stroke="#000" stroke-width="4px">
            <path d="m8 7v11.757c0 0.796 0.316 1.559 0.879 2.122l2.121 2.121v2c0 1.657 1.343 3 3 3h4c1.657 0 3-1.343 3-3v-2l2.121-2.121c0.563-0.563 0.879-1.326 0.879-2.122v-11.757h-16z" fill="none"/>
            <path d="m21 8c0-0.552 0.448-1 1-1h2.757c0.796 0 1.559-0.316 2.122-0.879l0.535-0.535c0.375-0.375 0.884-0.586 1.414-0.586h1.172s-1.633 2.45-2.813 4.219c-0.741 1.113-1.99 1.781-3.328 1.781h-1.859c-0.552 0-1-0.448-1-1v-2z" fill="none"/>
            <path d="m11 8c0-0.552-0.448-1-1-1h-2.757c-0.796 0-1.559-0.316-2.122-0.879l-0.535-0.535c-0.375-0.375-0.884-0.586-1.414-0.586h-1.172s1.633 2.45 2.813 4.219c0.741 1.113 1.99 1.781 3.328 1.781h1.859c0.552 0 1-0.448 1-1v-2z" fill="none"/>
            <path d="m23 17v-3c0-1.105 0.895-2 2-2h4s-1.92 2.4-3.099 3.874c-0.57 0.712-1.432 1.126-2.343 1.126h-0.558z" fill="#ad8348" stroke-linejoin="round"/>
            <path d="m9 17v-3c0-1.105-0.895-2-2-2h-4s1.92 2.4 3.099 3.874c0.57 0.712 1.432 1.126 2.343 1.126h0.558z" fill="#ad8348" stroke-linejoin="round"/>
            <path d="m8 8 2-4 2 2 2-2 2 2 2-2 2 2 2-2 2 4v2h-16v-2z" fill="#5b4526" stroke-linejoin="round"/>
        </g>
        <g id="emoji">
            <path d="m8 8 2-4 2 2 2-2 2 2 2-2 2 2 2-2 2 4v2h-16v-2z" fill="#5b4526"/>
            <path d="m8 7v11.757c0 0.796 0.316 1.559 0.879 2.122l2.121 2.121v2c0 1.657 1.343 3 3 3h4c1.657 0 3-1.343 3-3v-2l2.121-2.121c0.563-0.563 0.879-1.326 0.879-2.122v-11.757h-16z" fill="#ad8348"/>
            <clipPath id="_clip2">
                <path d="m8 7v11.757c0 0.796 0.316 1.559 0.879 2.122l2.121 2.121v2c0 1.657 1.343 3 3 3h4c1.657 0 3-1.343 3-3v-2l2.121-2.121c0.563-0.563 0.879-1.326 0.879-2.122v-11.757h-16z"/>
            </clipPath>
            <g clip-path="url(#_clip2)">
                <path d="m11 25s0.69 0.345 1.259 0.63c0.474 0.237 1.024 0.276 1.527 0.108 0.889-0.296 2.214-0.738 2.214-0.738s1.325 0.442 2.214 0.738c0.503 0.168 1.053 0.129 1.527-0.108 0.569-0.285 1.259-0.63 1.259-0.63" fill="none" stroke="#5b4526" stroke-width="1px"/>
            </g>
            <path d="m18 23 1-1v-0.5c0-0.133-0.053-0.26-0.146-0.354-0.094-0.093-0.221-0.146-0.354-0.146h-1c-0.133 0-0.26 0.053-0.354 0.146-0.093 0.094-0.146 0.221-0.146 0.354v1c0 0.133 0.053 0.26 0.146 0.354 0.094 0.093 0.221 0.146 0.354 0.146h0.5z" fill="#3c2e19"/>
            <path d="m14 23-1-1v-0.5c0-0.133 0.053-0.26 0.146-0.354 0.094-0.093 0.221-0.146 0.354-0.146h1c0.133 0 0.26 0.053 0.354 0.146 0.093 0.094 0.146 0.221 0.146 0.354v1c0 0.133-0.053 0.26-0.146 0.354-0.094 0.093-0.221 0.146-0.354 0.146h-0.5z" fill="#3c2e19"/>
            <path d="m10 11 3.578 1.789c0.277 0.139 0.584 0.211 0.894 0.211h3.056c0.31 0 0.617-0.072 0.894-0.211l3.578-1.789v-5h-12v5z" fill="#5b4526"/>
            <path d="m21 8c0-0.552 0.448-1 1-1h2.757c0.796 0 1.559-0.316 2.122-0.879l0.535-0.535c0.375-0.375 0.884-0.586 1.414-0.586h1.172s-1.633 2.45-2.813 4.219c-0.741 1.113-1.99 1.781-3.328 1.781h-1.859c-0.552 0-1-0.448-1-1v-2z" fill="#beac92"/>
            <path d="m11 8c0-0.552-0.448-1-1-1h-2.757c-0.796 0-1.559-0.316-2.122-0.879l-0.535-0.535c-0.375-0.375-0.884-0.586-1.414-0.586h-1.172s1.633 2.45 2.813 4.219c0.741 1.113 1.99 1.781 3.328 1.781h1.859c0.552 0 1-0.448 1-1v-2z" fill="#beac92"/>
            <path d="m22 15h-1.764c-0.757 0-1.45 0.428-1.789 1.106l-0.447 0.894h3c0.552 0 1-0.448 1-1v-1z"/>
            <path d="m10 15h1.764c0.757 0 1.45 0.428 1.789 1.106l0.447 0.894h-3c-0.552 0-1-0.448-1-1v-1z"/>
            <path d="m23 17v-3c0-1.105 0.895-2 2-2h4s-1.92 2.4-3.099 3.874c-0.57 0.712-1.432 1.126-2.343 1.126h-0.558z" fill="#ad8348"/>
            <clipPath id="_clip3">
                <path d="m23 17v-3c0-1.105 0.895-2 2-2h4s-1.92 2.4-3.099 3.874c-0.57 0.712-1.432 1.126-2.343 1.126h-0.558z"/>
            </clipPath>
            <g clip-path="url(#_clip3)">
                <path d="m29 13h-3c-0.53 0-1.039 0.211-1.414 0.586s-0.586 0.884-0.586 1.414v3h5v-5z" fill="#5b4526"/>
            </g>
            <path d="m9 17v-3c0-1.105-0.895-2-2-2h-4s1.92 2.4 3.099 3.874c0.57 0.712 1.432 1.126 2.343 1.126h0.558z" fill="#ad8348"/>
            <clipPath id="_clip4">
                <path d="m9 17v-3c0-1.105-0.895-2-2-2h-4s1.92 2.4 3.099 3.874c0.57 0.712 1.432 1.126 2.343 1.126h0.558z"/>
            </clipPath>
            <g clip-path="url(#_clip4)">
                <path d="m3 13h3c0.53 0 1.039 0.211 1.414 0.586s0.586 0.884 0.586 1.414v3h-5v-5z" fill="#5b4526"/>
            </g>
        </g>
    </g>
</svg>
