<?xml version="1.0" encoding="UTF-8"?>
<!DOCTYPE svg  PUBLIC '-//W3C//DTD SVG 1.1//EN'  'http://www.w3.org/Graphics/SVG/1.1/DTD/svg11.dtd'>
<svg clip-rule="evenodd" fill-rule="evenodd" version="1.1" viewBox="0 0 32 32" xml:space="preserve" xmlns="http://www.w3.org/2000/svg">
<metadata>
<rdf:RDF xmlns:cc="http://web.resource.org/cc/" xmlns:dc="http://purl.org/dc/elements/1.1/" xmlns:rdf="http://www.w3.org/1999/02/22-rdf-syntax-ns#">

     <rdf:Description rdf:about="">
       <dc:title>Mutant Standard emoji 2023.12</dc:title>
     </rdf:Description>

    <cc:work rdf:about="">
        <cc:license rdf:resource="http://creativecommons.org/licenses/by-nc-sa/4.0/"/>
        <cc:attributionName>Caius Nocturne</cc:attributionName>
        <cc:attributionURL>http://mutant.tech/</cc:attributionURL>
    </cc:work>

</rdf:RDF>
</metadata>

    <rect id="oni" width="32" height="32" fill="none"/>
    <clipPath id="_clip1">
        <rect width="32" height="32"/>
    </clipPath>
    <g clip-path="url(#_clip1)">
        <g id="outline" fill="none" stroke="#000" stroke-width="4px">
            <path d="m12 4s1.146-0.573 2.211-1.106c1.126-0.563 2.452-0.563 3.578 0 1.065 0.533 2.211 1.106 2.211 1.106 1.259-0.63 2.741-0.63 4 0 1.745 0.873 4 2 4 2l-2 1 0.433 0.433c1.025 1.025 1.753 2.31 2.104 3.717 0.593 2.369 1.463 5.85 1.463 5.85h-3c1.281 1.281 2 3.017 2 4.828v2.172l-2-2v6l-4-4h-14l-4 4v-6l-2 2v-2.172c0-1.811 0.719-3.547 2-4.828h-3s0.87-3.481 1.463-5.85c0.351-1.407 1.079-2.692 2.104-3.717l0.433-0.433-2-1s2.379-1.19 4.141-2.071c1.17-0.585 2.548-0.585 3.718 0 0.088 0.045 0.141 0.071 0.141 0.071z"/>
            <path d="m6.303 16.787c-0.199 0.797-0.199 1.629 0 2.426 0.367 1.466 0.982 3.927 1.362 5.448 0.213 0.85 0.786 1.564 1.569 1.956 0.706 0.353 1.562 0.781 2.133 1.066 0.416 0.209 0.875 0.317 1.341 0.317h6.584c0.466 0 0.925-0.108 1.341-0.317 0.571-0.285 1.427-0.713 2.133-1.066 0.783-0.392 1.356-1.106 1.569-1.956 0.38-1.521 0.995-3.982 1.362-5.448 0.199-0.797 0.199-1.629 0-2.426-0.451-1.802-1.311-5.244-1.94-7.757-0.445-1.781-2.045-3.03-3.88-3.03h-7.754c-1.835 0-3.435 1.249-3.88 3.03-0.629 2.513-1.489 5.955-1.94 7.757z" stroke-linejoin="round" stroke-miterlimit="1.5"/>
        </g>
        <g id="emoji">
            <path d="m12 4s1.146-0.573 2.211-1.106c1.126-0.563 2.452-0.563 3.578 0 1.065 0.533 2.211 1.106 2.211 1.106 1.259-0.63 2.741-0.63 4 0 1.745 0.873 4 2 4 2l-2 1 0.433 0.433c1.025 1.025 1.753 2.31 2.104 3.717 0.593 2.369 1.463 5.85 1.463 5.85h-3c1.281 1.281 2 3.017 2 4.828v2.172l-2-2v6l-4-4h-14l-4 4v-6l-2 2v-2.172c0-1.811 0.719-3.547 2-4.828h-3s0.87-3.481 1.463-5.85c0.351-1.407 1.079-2.692 2.104-3.717l0.433-0.433-2-1s2.379-1.19 4.141-2.071c1.17-0.585 2.548-0.585 3.718 0 0.088 0.045 0.141 0.071 0.141 0.071z" fill="#262626"/>
            <path d="m6.303 16.787c-0.199 0.797-0.199 1.629 0 2.426 0.367 1.466 0.982 3.927 1.362 5.448 0.213 0.85 0.786 1.564 1.569 1.956 0.706 0.353 1.562 0.781 2.133 1.066 0.416 0.209 0.875 0.317 1.341 0.317h6.584c0.466 0 0.925-0.108 1.341-0.317 0.571-0.285 1.427-0.713 2.133-1.066 0.783-0.392 1.356-1.106 1.569-1.956 0.38-1.521 0.995-3.982 1.362-5.448 0.199-0.797 0.199-1.629 0-2.426-0.451-1.802-1.311-5.244-1.94-7.757-0.445-1.781-2.045-3.03-3.88-3.03h-7.754c-1.835 0-3.435 1.249-3.88 3.03-0.629 2.513-1.489 5.955-1.94 7.757z" fill="#e02e34"/>
            <path d="m8 12c0-2.209 1.791-4 4-4h8c2.209 0 4 1.791 4 4v5l3-3v-3l-3-4-1-2h-14l-1 2-3 3v4l3 3v-5z" fill="#262626"/>
            <path d="m21.483 12.322c-0.299-0.199-0.681-0.223-1.002-0.062-0.285 0.142-0.638 0.319-0.928 0.464-0.339 0.169-0.553 0.515-0.553 0.894v0.162c0 0.3 0.134 0.584 0.366 0.774 0.232 0.189 0.536 0.266 0.83 0.207 0.433-0.087 0.938-0.188 1.437-0.288 0.396-0.079 0.706-0.389 0.785-0.786 0.078-0.397-0.09-0.802-0.427-1.026-0.185-0.124-0.359-0.24-0.508-0.339z"/>
            <path d="m10.517 12.322c0.299-0.199 0.681-0.223 1.002-0.062 0.285 0.142 0.638 0.319 0.928 0.464 0.339 0.169 0.553 0.515 0.553 0.894v0.162c0 0.3-0.134 0.584-0.366 0.774-0.232 0.189-0.536 0.266-0.83 0.207-0.433-0.087-0.938-0.188-1.437-0.288-0.396-0.079-0.706-0.389-0.785-0.786-0.078-0.397 0.09-0.802 0.427-1.026 0.185-0.124 0.359-0.24 0.508-0.339z"/>
            <path d="m13 17s1.487 0.496 2.368 0.789c0.41 0.137 0.854 0.137 1.264 0 0.881-0.293 2.368-0.789 2.368-0.789" fill="none" stroke="#800e0e" stroke-linejoin="round" stroke-miterlimit="1.5" stroke-width="2px"/>
            <path d="m9 22 1-4 3 5-4-1z" fill="#fff"/>
            <path d="m23 22-1-4-3 5 4-1z" fill="#fff"/>
            <path d="m8 22s1.697 0.566 2.538 0.846c0.306 0.102 0.626 0.154 0.949 0.154h9.026c0.323 0 0.643-0.052 0.949-0.154 0.841-0.28 2.538-0.846 2.538-0.846" fill="none" stroke="#800e0e" stroke-linejoin="round" stroke-miterlimit="1.5" stroke-width="2px"/>
            <path d="m19 9.314c0-0.203 0.069-0.4 0.196-0.559 0.803-1.004 3.804-4.755 3.804-4.755v5.302c0 0.452-0.154 0.89-0.436 1.243-4e-3 5e-3 -9e-3 0.011-0.013 0.016-0.529 0.661-1.418 0.916-2.217 0.636s-1.334-1.035-1.334-1.881v-2e-3z" fill="#dacd17"/>
            <path d="m13 9.314c0-0.203-0.069-0.4-0.196-0.559-0.803-1.004-3.804-4.755-3.804-4.755v5.302c0 0.452 0.154 0.89 0.436 1.243 4e-3 5e-3 9e-3 0.011 0.013 0.016 0.529 0.661 1.418 0.916 2.217 0.636s1.334-1.035 1.334-1.881v-2e-3z" fill="#dacd17"/>
        </g>
    </g>
</svg>
