<?xml version="1.0" encoding="UTF-8"?>
<!DOCTYPE svg  PUBLIC '-//W3C//DTD SVG 1.1//EN'  'http://www.w3.org/Graphics/SVG/1.1/DTD/svg11.dtd'>
<svg clip-rule="evenodd" fill-rule="evenodd" stroke-linejoin="round" stroke-miterlimit="2" version="1.1" viewBox="0 0 32 32" xml:space="preserve" xmlns="http://www.w3.org/2000/svg">
<metadata>
<rdf:RDF xmlns:cc="http://web.resource.org/cc/" xmlns:dc="http://purl.org/dc/elements/1.1/" xmlns:rdf="http://www.w3.org/1999/02/22-rdf-syntax-ns#">

     <rdf:Description rdf:about="">
       <dc:title>Mutant Standard emoji 2023.12</dc:title>
     </rdf:Description>

    <cc:work rdf:about="">
        <cc:license rdf:resource="http://creativecommons.org/licenses/by-nc-sa/4.0/"/>
        <cc:attributionName>Caius Nocturne</cc:attributionName>
        <cc:attributionURL>http://mutant.tech/</cc:attributionURL>
    </cc:work>

</rdf:RDF>
</metadata>

    <rect id="orc" width="32" height="32" fill="none"/>
    <clipPath id="_clip1">
        <rect width="32" height="32"/>
    </clipPath>
    <g clip-path="url(#_clip1)">
        <g id="outline">
            <path d="m4.261 9.504c0.107-0.506 0.246-1.004 0.418-1.492 0.578-1.641 1.519-3.15 2.735-4.395 1.248-1.279 2.781-2.274 4.46-2.888 0.839-0.308 1.713-0.52 2.6-0.633 0.455-0.058 0.913-0.086 1.371-0.095 0.156-1e-3 0.155-1e-3 0.31 0 0.458 9e-3 0.916 0.037 1.371 0.095 0.887 0.113 1.761 0.325 2.6 0.633 1.679 0.614 3.212 1.609 4.46 2.888 1.216 1.245 2.157 2.754 2.735 4.395 0.172 0.488 0.311 0.986 0.418 1.492l3.953-0.989c0.103 0.08 0.205 0.16 0.308 0.24 0 2.445 0.017 4.889-1e-3 7.333-2e-3 0.089-5e-3 0.176-9e-3 0.264-0.031 0.465-0.109 0.924-0.242 1.37-0.257 0.856-0.706 1.651-1.307 2.312-0.254 0.28-0.535 0.533-0.835 0.762l-1.739 1.304c-0.051 0.335-0.115 0.668-0.194 0.998-0.404 1.696-1.181 3.298-2.263 4.665-0.479 0.606-1.018 1.158-1.6 1.664-0.381 0.322-0.765 0.639-1.147 0.958-0.235 0.191-0.477 0.37-0.732 0.532-0.683 0.431-1.441 0.743-2.23 0.918-0.447 0.099-0.9 0.148-1.358 0.163-1.514 0.017-3.029 2e-3 -4.544 2e-3 -0.353-4e-3 -0.704-0.028-1.053-0.081-0.749-0.115-1.477-0.353-2.15-0.701-0.393-0.203-0.761-0.445-1.111-0.715l-0.749 1.497h-5.736v-10.745c-0.224-0.169-0.447-0.339-0.67-0.508-0.07-0.055-0.138-0.11-0.206-0.167-0.353-0.303-0.673-0.64-0.95-1.015-0.531-0.719-0.898-1.555-1.066-2.432-0.072-0.372-0.105-0.748-0.108-1.126v-7.252l0.308-0.24 3.953 0.989z"/>
        </g>
        <g id="emoji">
            <path d="m5 30h2.5l2.5-5v-12h-5v17z" fill="#1c2c12"/>
            <path d="m30 12.031-2.393 7.764-3.607 2.705v-10l6-1.5v1.031z" fill="#77b84c"/>
            <path d="m30 12.031v3.969c0 1.259-0.593 2.445-1.6 3.2l-0.793 0.595c-0.378-0.366-0.607-0.878-0.607-1.435v-5.579l3-0.75z" fill="#618e29"/>
            <path d="m2 12.031 2.393 7.764 3.607 2.705v-10l-6-1.5v1.031z" fill="#77b84c"/>
            <path d="m2 12.031v3.969c0 1.259 0.593 2.445 1.6 3.2l0.793 0.595c0.378-0.366 0.607-0.878 0.607-1.435v-5.579l-3-0.75z" fill="#618e29"/>
            <path d="m22.001 4c2.428 1.824 3.999 4.729 3.999 8v8.316c0 2.968-1.318 5.783-3.598 7.682-0.356 0.297-0.7 0.584-1.011 0.843-0.899 0.749-2.032 1.159-3.201 1.159h-4.38c-1.169 0-2.302-0.41-3.201-1.159-0.311-0.259-0.655-0.546-1.011-0.843-2.28-1.899-3.598-4.714-3.598-7.682v-8.222-0.094l16-8h1e-3z" fill="#77b84c"/>
            <path d="m8.036 14.555c-0.204-0.307-0.223-0.702-0.049-1.027s0.513-0.528 0.882-0.528h3.131c0.552 0 1 0.448 1 1v1c0 0.552-0.448 1-1 1h-2.465c-0.334 0-0.646-0.167-0.832-0.445-0.18-0.271-0.422-0.633-0.667-1zm15.928 0c0.204-0.307 0.223-0.702 0.049-1.027s-0.513-0.528-0.882-0.528h-3.131c-0.552 0-1 0.448-1 1v1c0 0.552 0.448 1 1 1h2.465c0.334 0 0.646-0.167 0.832-0.445 0.18-0.271 0.422-0.633 0.667-1z"/>
            <path d="m19.316 19.949c-0.709 0.236-1.416 0.479-2.128 0.708-0.078 0.024-0.155 0.045-0.234 0.065-0.47 0.111-0.953 0.145-1.434 0.087-0.24-0.029-0.476-0.082-0.708-0.152l-0.072-0.023-2.056-0.685 0.632-1.898c0.71 0.237 1.413 0.493 2.129 0.708 0.065 0.018 0.13 0.033 0.196 0.046 0.32 0.055 0.642 0.036 0.953-0.058l0.043-0.014 2.047-0.682c0.211 0.633 0.421 1.265 0.632 1.898z" fill="#456e17" fill-rule="nonzero"/>
            <path d="m12 24h-3l1-4 2 4zm11 0-1-4-2 4h3z" fill="#fff"/>
            <path d="m22.838 22.513 0.624 1.872-0.014 8e-3c-1.156 0.579-2.307 1.17-3.47 1.739-0.179 0.083-0.364 0.152-0.556 0.2-0.384 0.097-0.781 0.113-1.173 0.059-0.716-0.113-1.426-0.275-2.146-0.358-0.083-8e-3 -0.166-6e-3 -0.248 5e-3 -0.723 0.113-1.441 0.26-2.166 0.359-0.177 0.02-0.353 0.028-0.53 0.019-0.375-0.019-0.738-0.111-1.081-0.261-1.192-0.553-2.35-1.173-3.525-1.761-5e-3 -2e-3 -0.01-5e-3 -0.015-8e-3l0.624-1.873c0.025 4e-3 0.05 9e-3 0.075 0.015 0.074 0.018 0.141 0.046 0.21 0.078 1.163 0.581 2.29 1.241 3.491 1.741 0.166 0.066 0.342 0.087 0.519 0.063 0.705-0.111 1.406-0.241 2.11-0.351 0.29-0.039 0.578-0.039 0.867 1e-3 0.723 0.113 1.438 0.289 2.166 0.36 0.179 0.014 0.355-0.018 0.518-0.094 1.15-0.562 2.289-1.147 3.434-1.721 0.06-0.028 0.075-0.036 0.138-0.057 0.049-0.016 0.098-0.027 0.148-0.035z" fill="#456e17"/>
            <path d="m6 12c0-5.523 4.477-10 10-10 2.251 0 4.329 0.744 6 1.999v1.93c0 1.326-0.527 2.598-1.464 3.535l-7.536 7.536v-6l-7 7v-5.969-0.031z" fill="#1c2c12"/>
        </g>
    </g>
</svg>
