<?xml version="1.0" encoding="UTF-8"?>
<!DOCTYPE svg  PUBLIC '-//W3C//DTD SVG 1.1//EN'  'http://www.w3.org/Graphics/SVG/1.1/DTD/svg11.dtd'>
<svg clip-rule="evenodd" fill-rule="evenodd" stroke-linejoin="round" stroke-miterlimit="2" version="1.1" viewBox="0 0 32 32" xml:space="preserve" xmlns="http://www.w3.org/2000/svg">
<metadata>
<rdf:RDF xmlns:cc="http://web.resource.org/cc/" xmlns:dc="http://purl.org/dc/elements/1.1/" xmlns:rdf="http://www.w3.org/1999/02/22-rdf-syntax-ns#">

     <rdf:Description rdf:about="">
       <dc:title>Mutant Standard emoji 2023.12</dc:title>
     </rdf:Description>

    <cc:work rdf:about="">
        <cc:license rdf:resource="http://creativecommons.org/licenses/by-nc-sa/4.0/"/>
        <cc:attributionName>Caius Nocturne</cc:attributionName>
        <cc:attributionURL>http://mutant.tech/</cc:attributionURL>
    </cc:work>

</rdf:RDF>
</metadata>

    <rect id="troll" width="32" height="32" fill="none"/>
    <g id="outline">
        <path d="m14.828 0 4.61 4.61c1.244 0.455 2.394 1.159 3.365 2.061 0.644 0.598 1.207 1.281 1.673 2.025l5.919-5.92 1.605 0.909v2.572c-0.999 4.03-1.984 8.064-3.024 12.084-0.027 0.096-0.055 0.192-0.085 0.287-0.155 0.469-0.359 0.918-0.621 1.337-0.551 0.883-1.332 1.616-2.249 2.108-0.19 0.103-0.385 0.193-0.585 0.274-0.149 0.444-0.326 0.879-0.527 1.304-0.157 0.32-0.314 0.639-0.472 0.958l1.891 1.891-5.5 5.5h-0.425l-1.301-0.539c-0.248 0.104-0.503 0.193-0.762 0.268-0.589 0.169-1.194 0.254-1.806 0.27l-0.154 1e-3h-0.76l-0.154-1e-3c-0.612-0.016-1.217-0.101-1.806-0.27-0.259-0.075-0.514-0.164-0.762-0.268l-1.301 0.539h-0.425l-5.5-5.5 1.891-1.891c-0.158-0.319-0.315-0.638-0.472-0.958-0.114-0.241-0.223-0.483-0.32-0.731-0.075-0.189-0.145-0.381-0.209-0.574-0.38-0.156-0.744-0.346-1.086-0.576-0.864-0.58-1.57-1.385-2.032-2.318-0.19-0.383-0.335-0.786-0.443-1.2l-3.001-12.006v-2.561l1.605-0.909 5.919 5.919c0.334-0.534 0.718-1.036 1.147-1.498 0.107-0.115 0.217-0.228 0.329-0.338v-6.278l1.403-0.581h0.425l1.172 1.172v-1.172h2.828z"/>
    </g>
    <g id="emoji">
        <path d="m29.48 8.079 0.52-2.079-4.312 4.312c-0.456 0.456-0.835 0.982-1.123 1.559-0.589 1.177-1.565 3.129-1.565 3.129h-2v6h2s0.586-0.167 1.279-0.365c1.374-0.393 2.435-1.489 2.781-2.876l1.472-5.889-0.021-0.042 0.903-3.645 0.066-0.104z" fill="#00bcf0"/>
        <path d="m29.48 8.079c-1.182 1.161-2.33 2.357-3.502 3.529-0.262 0.267-0.507 0.549-0.726 0.853-0.192 0.267-0.362 0.548-0.518 0.837-0.213 0.416-0.419 0.836-0.628 1.255-0.068 0.144-0.107 0.295-0.106 0.455 1e-3 0.122 0.024 0.244 0.069 0.357 0.045 0.114 0.11 0.22 0.193 0.31 0.071 0.077 0.153 0.143 0.245 0.195 0.307 0.174 0.694 0.171 1-8e-3 0.153-0.09 0.272-0.217 0.363-0.369 0.222-0.416 0.42-0.845 0.635-1.265 0.111-0.206 0.233-0.407 0.37-0.597 0.137-0.191 0.289-0.369 0.45-0.54 0.401-0.409 0.803-0.816 1.207-1.221l0.948-3.791z" fill="#2697c0"/>
        <path d="m2.52 8.079-0.52-2.079 4.312 4.312c0.456 0.456 0.835 0.982 1.123 1.559 0.589 1.177 1.565 3.129 1.565 3.129h2v6h-2s-0.586-0.167-1.279-0.365c-1.374-0.393-2.435-1.489-2.781-2.876l-1.472-5.889 0.021-0.042-0.903-3.645-0.066-0.104z" fill="#00bcf0"/>
        <path d="m2.52 8.079c1.182 1.161 2.33 2.357 3.502 3.529 0.262 0.267 0.507 0.549 0.726 0.853 0.192 0.267 0.362 0.548 0.518 0.837 0.213 0.416 0.419 0.836 0.628 1.255 0.068 0.144 0.107 0.295 0.106 0.455-1e-3 0.122-0.024 0.244-0.069 0.357-0.045 0.114-0.11 0.22-0.193 0.31-0.071 0.077-0.153 0.143-0.245 0.195-0.307 0.174-0.694 0.171-1-8e-3 -0.153-0.09-0.272-0.217-0.363-0.369-0.222-0.416-0.42-0.845-0.635-1.265-0.111-0.206-0.233-0.407-0.37-0.597-0.137-0.191-0.289-0.369-0.45-0.54-0.401-0.409-0.803-0.816-1.207-1.221l-0.948-3.791z" fill="#2697c0"/>
        <path d="m19 7-5-5v5h5z" fill="#b01d50"/>
        <path d="m10.667 26.333-1.717-3.433c-0.625-1.249-0.95-2.627-0.95-4.025v-4.875c0-2.122 0.843-4.157 2.343-5.657 0.209-0.209 0.428-0.405 0.657-0.588 0 0 7.313-1.007 7.805-1.247 1.061 0.397 2.035 1.019 2.852 1.835 1.5 1.5 2.343 3.535 2.343 5.657v4.875c0 1.398-0.325 2.776-0.95 4.025l-1.717 3.433-1.174 1.738-0.159 0.409c-0.927 0.957-2.216 1.52-3.59 1.52h-0.82c-1.374 0-2.663-0.563-3.59-1.52l-0.175-0.414-1.158-1.733z" fill="#00bcf0"/>
        <path d="m21.333 26.333-0.451 0.903c-0.232 0.465-0.531 0.883-0.882 1.244v-0.48l-3-3 2.5-0.5 1.833 1.833zm-10.666 0 1.833-1.833 2.5 0.5-3 3v0.48c-0.351-0.361-0.65-0.779-0.882-1.244l-0.451-0.903z" fill="#2697c0"/>
        <path d="m11 7.755c1.412-1.131 3.174-1.755 5-1.755 0.967 0 1.916 0.175 2.805 0.508-0.492 0.24-0.946 0.562-1.341 0.956-0.937 0.938-1.464 2.21-1.464 3.536v4l-3-3-2-4.245z" fill="#b01d50"/>
        <path d="m18 15.865c0-0.229 0.091-0.449 0.253-0.612 0.163-0.162 0.383-0.253 0.612-0.253h2.135c0.552 0 1 0.448 1 1v1.123c0 0.233-0.092 0.456-0.257 0.62-0.164 0.165-0.387 0.257-0.62 0.257h-1e-3c-0.718 0-1.407-0.285-1.915-0.793l-1.112-1.112c-0.061-0.061-0.095-0.143-0.095-0.23zm-4 8e-3c0-0.482-0.391-0.873-0.873-0.873h-2.127c-0.552 0-1 0.448-1 1v1.123c0 0.233 0.092 0.456 0.257 0.62 0.164 0.165 0.387 0.257 0.62 0.257h1e-3c0.718 0 1.407-0.285 1.915-0.793l1.118-1.118c0.057-0.057 0.089-0.134 0.089-0.215v-1e-3z"/>
        <path d="m13 5 1 1v-4l3 3-1 3v7l-3-3-0.123-0.238-0.061-6.578 0.184-0.184z" fill="#b01d50"/>
        <path d="m13 5v7l-2-2v-7l2 2z" fill="#7c1439"/>
        <path d="m18 24 3 3v2l2.5-2.5-3-3-2.5 0.5zm-4 0-3 3v2l-2.5-2.5 3-3 2.5 0.5z" fill="#fff"/>
        <path d="m18.414 26h-4.828c-0.206-0.206-0.497-0.524-0.762-0.758-0.165-0.138-0.363-0.221-0.578-0.239-0.246-0.015-0.523-3e-3 -0.746-3e-3 -0.16-5e-3 -0.313-0.037-0.457-0.11-0.123-0.064-0.232-0.152-0.32-0.26-0.214-0.264-0.279-0.628-0.17-0.95 0.031-0.094 0.077-0.183 0.135-0.263 0.057-0.08 0.127-0.152 0.205-0.212 0.161-0.122 0.348-0.185 0.548-0.203 0.268-8e-3 0.537-4e-3 0.805-1e-3 0.197 7e-3 0.393 0.029 0.585 0.072 0.382 0.086 0.746 0.248 1.066 0.473 0.121 0.085 0.234 0.18 0.343 0.281l0.049 0.047 0.125 0.126h3.172c0.058-0.058 0.116-0.116 0.174-0.173 0.055-0.051 0.11-0.1 0.167-0.148 0.365-0.291 0.784-0.503 1.241-0.606 0.193-0.043 0.389-0.065 0.586-0.072 0.249-3e-3 0.497-1e-3 0.746-1e-3 0.059 2e-3 0.059 2e-3 0.118 7e-3 0.199 0.03 0.382 0.104 0.535 0.235 0.075 0.065 0.14 0.141 0.193 0.224 0.226 0.359 0.198 0.835-0.069 1.164-0.075 0.092-0.166 0.171-0.268 0.231-0.139 0.082-0.29 0.123-0.45 0.137-0.268 8e-3 -0.537-0.012-0.805 5e-3 -0.243 0.021-0.462 0.124-0.637 0.294l-0.703 0.703zm1.226-5.232c-0.59 0.492-1.176 0.991-1.772 1.476-0.053 0.041-0.106 0.081-0.161 0.12-0.255 0.172-0.529 0.309-0.823 0.4-0.678 0.208-1.421 0.168-2.073-0.113-0.263-0.113-0.505-0.265-0.727-0.446l-1.724-1.437 1.28-1.536c0.591 0.492 1.156 1.016 1.774 1.475 0.279 0.198 0.643 0.246 0.962 0.116 0.098-0.039 0.187-0.095 0.268-0.162l1.716-1.429c0.427 0.512 0.853 1.024 1.28 1.536z" fill="#007792"/>
    </g>
</svg>
