<?xml version="1.0" encoding="UTF-8"?>
<!DOCTYPE svg  PUBLIC '-//W3C//DTD SVG 1.1//EN'  'http://www.w3.org/Graphics/SVG/1.1/DTD/svg11.dtd'>
<svg clip-rule="evenodd" fill-rule="evenodd" stroke-linejoin="round" stroke-miterlimit="1.4142" version="1.1" viewBox="0 0 32 32" xml:space="preserve" xmlns="http://www.w3.org/2000/svg">
<metadata>
<rdf:RDF xmlns:cc="http://web.resource.org/cc/" xmlns:dc="http://purl.org/dc/elements/1.1/" xmlns:rdf="http://www.w3.org/1999/02/22-rdf-syntax-ns#">

     <rdf:Description rdf:about="">
       <dc:title>Mutant Standard emoji 2023.12</dc:title>
     </rdf:Description>

    <cc:work rdf:about="">
        <cc:license rdf:resource="http://creativecommons.org/licenses/by-nc-sa/4.0/"/>
        <cc:attributionName>Caius Nocturne</cc:attributionName>
        <cc:attributionURL>http://mutant.tech/</cc:attributionURL>
    </cc:work>

</rdf:RDF>
</metadata>
<rect id="oil_lamp" width="32" height="32" fill="none"/><clipPath id="_clip1"><rect width="32" height="32"/></clipPath><g clip-path="url(#_clip1)"><g id="outline"><path d="m21 11.102c0.1 0.103 0.198 0.208 0.292 0.317 0.442 0.51 0.81 1.084 1.088 1.7 0.605 1.336 0.772 2.853 0.478 4.29-0.138 0.673-0.376 1.325-0.704 1.929-0.31 0.57-0.7 1.096-1.154 1.56v3.102h-1v0.171c0.057 0.02 0.113 0.042 0.169 0.065 0.806 0.341 1.436 1.036 1.696 1.872 0.06 0.192 0.1 0.389 0.12 0.588 0.013 0.129 0.012 0.155 0.015 0.279v5.025h-12v-5.025c3e-3 -0.124 2e-3 -0.15 0.015-0.279 0.02-0.199 0.06-0.396 0.12-0.588 0.275-0.884 0.963-1.608 1.834-1.926 0.01-4e-3 0.02-8e-3 0.031-0.011v-0.171h-1v-3.102c-0.454-0.464-0.844-0.99-1.154-1.56-0.328-0.604-0.566-1.256-0.704-1.929-0.282-1.38-0.14-2.837 0.409-4.134 0.264-0.623 0.618-1.206 1.049-1.728 0.127-0.154 0.26-0.302 0.4-0.445v-11.102h10v11.102z"/></g><g id="emoji"><rect x="13" y="2" width="6" height="20" fill="#e5e5e5"/><circle cx="16" cy="16" r="5" fill="#e5e5e5"/><circle cx="16" cy="16" r="4" fill="#f6c738"/><circle cx="16" cy="18" r="2" fill="#fce9b0"/><circle cx="16" cy="18" r="1" fill="#fff"/><path d="m18 21-1-1h-2l-1 1v6h4v-6z" fill="#915732"/><path d="m20 27c0-0.552-0.448-1-1-1h-6c-0.552 0-1 0.448-1 1v3h8v-3z" fill="#be916a"/><path d="m16 2h-2v8c0 0.265 0.105 0.52 0.293 0.707 0.187 0.188 0.442 0.293 0.707 0.293s0.52-0.105 0.707-0.293c0.188-0.187 0.293-0.442 0.293-0.707v-8z" fill="#fff"/></g></g></svg>
