<?xml version="1.0" encoding="UTF-8"?>
<svg clip-rule="evenodd" fill-rule="evenodd" stroke-linecap="round" stroke-linejoin="round" stroke-miterlimit="1.5" viewBox="0 0 32 32" xmlns="http://www.w3.org/2000/svg">
 <clipPath id="a">
  <path d="m0 0h32v32h-32z" clip-rule="evenodd"/>
 </clipPath>
 <path d="m0 0h32v32h-32z" fill="none"/>
 <g clip-path="url(#a)">
  <path d="m2 28 2 2 11-11s5.818-6.545 7.531-8.472c0.263-0.297 0.25-0.747-0.03-1.027l-2e-3 -2e-3c-0.28-0.28-0.73-0.293-1.027-0.03-1.927 1.713-8.472 7.531-8.472 7.531l-11 11z" fill="#715845" stroke="#000" stroke-width="4"/>
  <path d="m23 16 2-5 5-2-5-2-2-5-2 5-5 2 5 2z" fill="#fdef24" stroke="#000" stroke-width="4"/>
  <path d="m23 16 2-5 5-2-5-2-2-5-2 5-5 2 5 2z" fill="#fdef24"/>
  <path d="m2 28 2 2 11-11s5.818-6.545 7.531-8.472c0.263-0.297 0.25-0.747-0.03-1.027l-2e-3 -2e-3c-0.28-0.28-0.73-0.293-1.027-0.03-1.927 1.713-8.472 7.531-8.472 7.531l-11 11z" fill="#715845"/>
 </g>
</svg>
