<?xml version="1.0" encoding="UTF-8"?>
<!DOCTYPE svg  PUBLIC '-//W3C//DTD SVG 1.1//EN'  'http://www.w3.org/Graphics/SVG/1.1/DTD/svg11.dtd'>
<svg clip-rule="evenodd" fill-rule="evenodd" stroke-linecap="round" stroke-linejoin="round" stroke-miterlimit="1.5" version="1.1" viewBox="0 0 32 32" xml:space="preserve" xmlns="http://www.w3.org/2000/svg">
<metadata>
<rdf:RDF xmlns:cc="http://web.resource.org/cc/" xmlns:dc="http://purl.org/dc/elements/1.1/" xmlns:rdf="http://www.w3.org/1999/02/22-rdf-syntax-ns#">

     <rdf:Description rdf:about="">
       <dc:title>Mutant Standard emoji 2023.12</dc:title>
     </rdf:Description>

    <cc:work rdf:about="">
        <cc:license rdf:resource="http://creativecommons.org/licenses/by-nc-sa/4.0/"/>
        <cc:attributionName>Caius Nocturne</cc:attributionName>
        <cc:attributionURL>http://mutant.tech/</cc:attributionURL>
    </cc:work>

</rdf:RDF>
</metadata>

    <rect id="magic_wand" width="32" height="32" fill="none"/>
    <clipPath id="_clip1">
        <rect width="32" height="32"/>
    </clipPath>
    <g clip-path="url(#_clip1)">
        <g id="outline" stroke="#000" stroke-width="4px">
            <path d="m2 28 2 2 11-11s5.818-6.545 7.531-8.472c0.263-0.297 0.25-0.747-0.03-1.027l-2e-3 -2e-3c-0.28-0.28-0.73-0.293-1.027-0.03-1.927 1.713-8.472 7.531-8.472 7.531l-11 11z" fill="#715845"/>
            <path d="m23 16 2-5 5-2-5-2-2-5-2 5-5 2 5 2 2 5z" fill="#fdef24"/>
        </g>
        <g id="emoji">
            <path d="m23 16 2-5 5-2-5-2-2-5-2 5-5 2 5 2 2 5z" fill="#fdef24"/>
            <path d="m2 28 2 2 11-11s5.818-6.545 7.531-8.472c0.263-0.297 0.25-0.747-0.03-1.027l-2e-3 -2e-3c-0.28-0.28-0.73-0.293-1.027-0.03-1.927 1.713-8.472 7.531-8.472 7.531l-11 11z" fill="#715845"/>
        </g>
    </g>
</svg>
