<?xml version="1.0" encoding="UTF-8"?>
<svg clip-rule="evenodd" fill-rule="evenodd" stroke-linecap="round" stroke-linejoin="round" stroke-miterlimit="1.5" viewBox="0 0 32 32" xmlns="http://www.w3.org/2000/svg">
 <clipPath id="a">
  <path d="m0 0h32v32h-32z" clip-rule="evenodd"/>
 </clipPath>
 <path d="m0 0h32v32h-32z" fill="none"/>
 <g clip-path="url(#a)">
  <path d="m30 23c0 1.105-0.895 2-2 2h-24c-1.105 0-2-0.895-2-2v-15c0-1.105 0.895-2 2-2h24c1.105 0 2 0.895 2 2z" fill="none" stroke="#000" stroke-width="4"/>
  <path d="m30 23c0 0.53-0.211 1.039-0.586 1.414s-0.884 0.586-1.414 0.586h-24c-0.53 0-1.039-0.211-1.414-0.586s-0.586-0.884-0.586-1.414v-5h28z" fill="#603c2c"/>
  <path d="m30 8c0-1.105-0.895-2-2-2h-24c-1.105 0-2 0.895-2 2v10c0 1.105 0.895 2 2 2h24c1.105 0 2-0.895 2-2v-10z" fill="#b46343"/>
  <g fill="#332017">
   <circle cx="7" cy="13" r="3"/>
   <circle cx="16" cy="13" r="3"/>
   <circle cx="25" cy="13" r="3"/>
  </g>
 </g>
</svg>
