<?xml version="1.0" encoding="UTF-8"?>
<!DOCTYPE svg  PUBLIC '-//W3C//DTD SVG 1.1//EN'  'http://www.w3.org/Graphics/SVG/1.1/DTD/svg11.dtd'>
<svg clip-rule="evenodd" fill-rule="evenodd" stroke-linecap="round" stroke-linejoin="round" stroke-miterlimit="1.5" version="1.1" viewBox="0 0 32 32" xml:space="preserve" xmlns="http://www.w3.org/2000/svg">
<metadata>
<rdf:RDF xmlns:cc="http://web.resource.org/cc/" xmlns:dc="http://purl.org/dc/elements/1.1/" xmlns:rdf="http://www.w3.org/1999/02/22-rdf-syntax-ns#">

     <rdf:Description rdf:about="">
       <dc:title>Mutant Standard emoji 2023.12</dc:title>
     </rdf:Description>

    <cc:work rdf:about="">
        <cc:license rdf:resource="http://creativecommons.org/licenses/by-nc-sa/4.0/"/>
        <cc:attributionName>Caius Nocturne</cc:attributionName>
        <cc:attributionURL>http://mutant.tech/</cc:attributionURL>
    </cc:work>

</rdf:RDF>
</metadata>
<rect id="scales" width="32" height="32" fill="none"/><clipPath id="_clip1"><rect width="32" height="32"/></clipPath><g clip-path="url(#_clip1)"><g id="outline"><path d="m28 4c0-0.53-0.211-1.039-0.586-1.414s-0.884-0.586-1.414-0.586h-20c-0.53 0-1.039 0.211-1.414 0.586s-0.586 0.884-0.586 1.414v24c0 0.53 0.211 1.039 0.586 1.414s0.884 0.586 1.414 0.586h20c0.53 0 1.039-0.211 1.414-0.586s0.586-0.884 0.586-1.414v-24z" fill="none" stroke="#000" stroke-width="4px"/></g><g id="emoji"><path d="m28 20h-24v8c0 0.53 0.211 1.039 0.586 1.414s0.884 0.586 1.414 0.586h20c0.53 0 1.039-0.211 1.414-0.586s0.586-0.884 0.586-1.414v-8z" fill="#4d4d4d"/><path d="m28 4c0-0.53-0.211-1.039-0.586-1.414s-0.884-0.586-1.414-0.586h-20c-0.53 0-1.039 0.211-1.414 0.586s-0.586 0.884-0.586 1.414v16c0 0.53 0.211 1.039 0.586 1.414s0.884 0.586 1.414 0.586h20c0.53 0 1.039-0.211 1.414-0.586s0.586-0.884 0.586-1.414v-16z" fill="#999"/><path d="m27 18h-22v1c0 0.53 0.211 1.039 0.586 1.414s0.884 0.586 1.414 0.586h18c0.53 0 1.039-0.211 1.414-0.586s0.586-0.884 0.586-1.414v-1z" fill="#808080"/><path d="m27 5c0-0.53-0.211-1.039-0.586-1.414s-0.884-0.586-1.414-0.586h-18c-0.53 0-1.039 0.211-1.414 0.586s-0.586 0.884-0.586 1.414v13c0 0.53 0.211 1.039 0.586 1.414s0.884 0.586 1.414 0.586h18c0.53 0 1.039-0.211 1.414-0.586s0.586-0.884 0.586-1.414v-13z" fill="#f3f3f3"/><path d="m19 24c0-0.552-0.448-1-1-1h-12c-0.552 0-1 0.448-1 1v4c0 0.552 0.448 1 1 1h12c0.552 0 1-0.448 1-1v-4z" fill="#1a1a1a"/><path d="m10 26.5c0-0.133-0.053-0.26-0.146-0.354-0.094-0.093-0.221-0.146-0.354-0.146h-3c-0.133 0-0.26 0.053-0.354 0.146-0.093 0.094-0.146 0.221-0.146 0.354v1c0 0.133 0.053 0.26 0.146 0.354 0.094 0.093 0.221 0.146 0.354 0.146h3c0.133 0 0.26-0.053 0.354-0.146 0.093-0.094 0.146-0.221 0.146-0.354v-1z" fill="#1aa0e4"/><path d="m15 26.5c0-0.133-0.053-0.26-0.146-0.354-0.094-0.093-0.221-0.146-0.354-0.146h-3c-0.133 0-0.26 0.053-0.354 0.146-0.093 0.094-0.146 0.221-0.146 0.354v1c0 0.133 0.053 0.26 0.146 0.354 0.094 0.093 0.221 0.146 0.354 0.146h3c0.133 0 0.26-0.053 0.354-0.146 0.093-0.094 0.146-0.221 0.146-0.354v-1z" fill="#1aa0e4"/><path d="m23 24c0-0.552-0.448-1-1-1h-1c-0.552 0-1 0.448-1 1v4c0 0.552 0.448 1 1 1h1c0.552 0 1-0.448 1-1v-4z" fill="#b3b3b3"/><path d="m27 24c0-0.552-0.448-1-1-1h-1c-0.552 0-1 0.448-1 1v4c0 0.552 0.448 1 1 1h1c0.552 0 1-0.448 1-1v-4z" fill="#b3b3b3"/></g></g></svg>
