<?xml version="1.0" encoding="UTF-8"?>
<!DOCTYPE svg  PUBLIC '-//W3C//DTD SVG 1.1//EN'  'http://www.w3.org/Graphics/SVG/1.1/DTD/svg11.dtd'>
<svg clip-rule="evenodd" fill-rule="evenodd" stroke-linecap="round" stroke-linejoin="round" stroke-miterlimit="3" version="1.1" viewBox="0 0 32 32" xml:space="preserve" xmlns="http://www.w3.org/2000/svg">
<metadata>
<rdf:RDF xmlns:cc="http://web.resource.org/cc/" xmlns:dc="http://purl.org/dc/elements/1.1/" xmlns:rdf="http://www.w3.org/1999/02/22-rdf-syntax-ns#">

     <rdf:Description rdf:about="">
       <dc:title>Mutant Standard emoji 2023.12</dc:title>
     </rdf:Description>

    <cc:work rdf:about="">
        <cc:license rdf:resource="http://creativecommons.org/licenses/by-nc-sa/4.0/"/>
        <cc:attributionName>Caius Nocturne</cc:attributionName>
        <cc:attributionURL>http://mutant.tech/</cc:attributionURL>
    </cc:work>

</rdf:RDF>
</metadata>
<path id="wrench" d="m0 0v32h32v-32h-32z" fill="none"/><clipPath id="_clip1"><path d="m0 0v32h32v-32h-32z"/></clipPath><g clip-path="url(#_clip1)"><g id="outline"><path d="m9.962 12.991 0.917-3.555-1.068-1.796c-2.303-0.576-6.561-1.64-6.561-1.64 0.397-1.59 1.682-2.804 3.292-3.11 1.155-0.22 2.537-0.484 3.817-0.727 2.254-0.43 4.441 1.007 4.942 3.246l1.411 6.303 11.789 11.789c1.38 1.38 1.38 3.618 0 4.998l-2e-3 2e-3c-1.38 1.38-3.618 1.38-4.998 0l-9.501-9.501h-5.589l0.329-1.275-2.648-0.677c-2.408-0.617-4.092-2.787-4.092-5.272v-0.776l7.962 1.991z" fill="none" stroke="#000" stroke-width="4px"/><path d="m3.25 6-1.25 5 9 2.25 1.25-5-9-2.25z" fill="none" stroke="#000" stroke-width="4px"/><path d="m3.25 5-2.25 6 10 3.25 1.25-7-9-2.25z"/></g><g id="emoji"><path d="m8.022 12.505 2.978 0.745-1.187 4.75-3.01-0.771-0.459-1.04 0.734-3.249 0.944-0.435z" fill="#999"/><path d="m8.022 12.505-1.219 4.724-0.711-0.181c-2.408-0.617-4.092-2.787-4.092-5.272v-0.776l6.022 1.505z" fill="#d9d9d9"/><path d="m15.075 4.698c0.095 0.226 0.17 0.464 0.226 0.711l1.411 6.303 11.789 11.789c1.38 1.38 1.38 3.618 0 4.998l-2e-3 2e-3c-1.38 1.38-3.618 1.38-4.998 0l-9.501-9.501h-2.5l-0.619-1.014 3.046-12.442 1.148-0.846z" fill="#b3b3b3"/><path d="m11.5 19h-3.089s1.699-6.583 2.468-9.564l-1.068-1.796c-2.303-0.576-6.561-1.64-6.561-1.64 0.397-1.59 1.682-2.804 3.292-3.11 1.155-0.22 2.537-0.484 3.817-0.727 2.005-0.382 3.957 0.713 4.716 2.535l-3.575 14.302z" fill="#d9d9d9"/><path d="m14.499 17.499c-0.828-0.828-0.828-2.17 0-2.998l2e-3 -2e-3c0.828-0.828 2.17-0.828 2.998 0l10.002 10.002-3 3-10.002-10.002z" fill="#808080"/><path d="m24.499 27.499c-0.828-0.828-0.828-2.17 0-2.998l2e-3 -2e-3c0.828-0.828 2.17-0.828 2.998 0l2e-3 2e-3c0.828 0.828 0.828 2.17 0 2.998l-2e-3 2e-3c-0.828 0.828-2.17 0.828-2.998 0l-2e-3 -2e-3z"/></g></g></svg>
