<?xml version="1.0" encoding="UTF-8"?>
<!DOCTYPE svg  PUBLIC '-//W3C//DTD SVG 1.1//EN'  'http://www.w3.org/Graphics/SVG/1.1/DTD/svg11.dtd'>
<svg clip-rule="evenodd" fill-rule="evenodd" stroke-linecap="round" stroke-linejoin="round" stroke-miterlimit="1.5" version="1.1" viewBox="0 0 32 32" xml:space="preserve" xmlns="http://www.w3.org/2000/svg">
<metadata>
<rdf:RDF xmlns:cc="http://web.resource.org/cc/" xmlns:dc="http://purl.org/dc/elements/1.1/" xmlns:rdf="http://www.w3.org/1999/02/22-rdf-syntax-ns#">

     <rdf:Description rdf:about="">
       <dc:title>Mutant Standard emoji 2023.12</dc:title>
     </rdf:Description>

    <cc:work rdf:about="">
        <cc:license rdf:resource="http://creativecommons.org/licenses/by-nc-sa/4.0/"/>
        <cc:attributionName>Caius Nocturne</cc:attributionName>
        <cc:attributionURL>http://mutant.tech/</cc:attributionURL>
    </cc:work>

</rdf:RDF>
</metadata>

    <rect id="club_suit" width="32" height="32" fill="none"/>
    <clipPath id="_clip1">
        <rect width="32" height="32"/>
    </clipPath>
    <g clip-path="url(#_clip1)">
        <g id="outline">
            <path d="m10.425 7.363c0.022-1.278 0.484-2.545 1.372-3.56h1e-3c1.06-1.212 2.592-1.907 4.202-1.907s3.142 0.695 4.202 1.907h1e-3c0.888 1.015 1.35 2.282 1.372 3.56 1e-3 0.063 1e-3 0.126 0 0.189v1.811c0.014 0.848-0.165 1.701-0.543 2.49 1.366-0.525 2.898-0.504 4.268 0.087 1.705 0.736 2.94 2.262 3.305 4.084 0.02 0.101 0.04 0.201 0.06 0.302 0.069 0.344 0.105 0.692 0.108 1.037h1e-3v2h-1e-3c0.013 1.299-0.427 2.574-1.264 3.595-1.06 1.292-2.644 2.042-4.315 2.042h-3e-3c-1.973 0-3.795-1.057-4.774-2.77l-0.535-0.936 1.118 6.706v2h-6v-2l1.126-6.753-0.587 1.015c-0.978 1.694-2.786 2.738-4.742 2.738h-3e-3c-1.668 0-3.249-0.748-4.307-2.039-0.85-1.036-1.291-2.335-1.261-3.654v-1.754c-9e-3 -0.404 0.026-0.811 0.106-1.215 0.021-0.105 0.042-0.209 0.063-0.314 0.365-1.822 1.6-3.348 3.305-4.084 1.37-0.591 2.902-0.612 4.268-0.087-0.378-0.789-0.557-1.642-0.543-2.49v-1.811c-1e-3 -0.063-1e-3 -0.126 0-0.189z" fill="none" stroke="#000" stroke-width="4px"/>
        </g>
        <g id="emoji">
            <path d="m10.834 7.363c0.227-0.558 0.549-1.086 0.963-1.56h1e-3c1.06-1.212 2.592-1.907 4.202-1.907s3.142 0.695 4.202 1.907h1e-3c0.414 0.474 0.736 1.002 0.963 1.56h0.409v2c0.019 1.099-0.288 2.207-0.931 3.171l-1.644 2.466s0.417-0.261 1.061-0.663c1.575-0.985 3.533-1.133 5.239-0.397 1.494 0.645 2.628 1.897 3.131 3.423h0.343v2h-1e-3c0.013 1.299-0.427 2.574-1.264 3.595-1.06 1.292-2.644 2.042-4.315 2.042h-3e-3c-1.973 0-3.795-1.057-4.774-2.77l-1.144-2.003 1.727 7.773v2h-6v-2l1.736-7.81-1.197 2.072c-0.978 1.694-2.786 2.738-4.742 2.738h-3e-3c-1.668 0-3.249-0.748-4.307-2.039-0.85-1.036-1.291-2.335-1.261-3.654v-1.944h0.343c0.503-1.526 1.637-2.778 3.131-3.423 1.706-0.736 3.664-0.588 5.239 0.397 0.644 0.402 1.061 0.663 1.061 0.663l-1.644-2.466c-0.643-0.964-0.95-2.072-0.931-3.171v-2h0.409z" fill="#474747"/>
            <path d="m14.594 18.435-1.055 1.827c-0.978 1.694-2.786 2.738-4.742 2.738h-3e-3c-1.668 0-3.249-0.748-4.307-2.039-1.058-1.29-1.482-2.987-1.155-4.623 0.021-0.105 0.042-0.209 0.063-0.314 0.365-1.822 1.6-3.348 3.305-4.084 1.706-0.736 3.664-0.588 5.239 0.397 0.644 0.402 1.061 0.663 1.061 0.663l-1.644-2.466c-1.39-2.085-1.21-4.844 0.441-6.731h1e-3c1.06-1.212 2.592-1.907 4.202-1.907s3.142 0.695 4.202 1.907h1e-3c1.651 1.887 1.831 4.646 0.441 6.731l-1.644 2.466s0.417-0.261 1.061-0.663c1.575-0.985 3.533-1.133 5.239-0.397 1.705 0.736 2.94 2.262 3.305 4.084 0.02 0.101 0.04 0.201 0.06 0.302 0.328 1.639-0.096 3.339-1.156 4.632-1.06 1.292-2.644 2.042-4.315 2.042h-3e-3c-1.973 0-3.795-1.057-4.774-2.77l-1.005-1.759 1.588 9.529h-6l1.594-9.565z" fill="#717171"/>
        </g>
    </g>
</svg>
