<?xml version="1.0" encoding="UTF-8"?>
<!DOCTYPE svg  PUBLIC '-//W3C//DTD SVG 1.1//EN'  'http://www.w3.org/Graphics/SVG/1.1/DTD/svg11.dtd'>
<svg clip-rule="evenodd" fill-rule="evenodd" stroke-linejoin="round" stroke-miterlimit="1.4142" version="1.1" viewBox="0 0 32 32" xml:space="preserve" xmlns="http://www.w3.org/2000/svg">
<metadata>
<rdf:RDF xmlns:cc="http://web.resource.org/cc/" xmlns:dc="http://purl.org/dc/elements/1.1/" xmlns:rdf="http://www.w3.org/1999/02/22-rdf-syntax-ns#">

     <rdf:Description rdf:about="">
       <dc:title>Mutant Standard emoji 2023.12</dc:title>
     </rdf:Description>

    <cc:work rdf:about="">
        <cc:license rdf:resource="http://creativecommons.org/licenses/by-nc-sa/4.0/"/>
        <cc:attributionName>Caius Nocturne</cc:attributionName>
        <cc:attributionURL>http://mutant.tech/</cc:attributionURL>
    </cc:work>

</rdf:RDF>
</metadata>

    <path id="divide" d="m0 0v32h32v-32h-32z" fill="none"/>
    <clipPath id="_clip1">
        <path d="m0 0v32h32v-32h-32z"/>
    </clipPath>
    <g clip-path="url(#_clip1)">
        <g id="outline" fill="none" stroke="#000" stroke-width="4px">
            <path d="m29 20h-26v-7h26v7z"/>
            <path d="m16 21c-1.933 0-3.5 1.567-3.5 3.5v2.002c0 0.928 0.369 1.817 1.025 2.473s1.545 1.025 2.473 1.025h2e-3c1.933 0 3.5-1.567 3.5-3.5v-2.002c0-0.928-0.369-1.817-1.025-2.473s-1.545-1.025-2.473-1.025h-2e-3z" stroke-miterlimit="1.5"/>
            <path d="m16 3c-1.933 0-3.5 1.567-3.5 3.5v2.002c0 0.928 0.369 1.817 1.025 2.473s1.545 1.025 2.473 1.025h2e-3c1.933 0 3.5-1.567 3.5-3.5v-2.002c0-0.928-0.369-1.817-1.025-2.473s-1.545-1.025-2.473-1.025h-2e-3z" stroke-miterlimit="1.5"/>
        </g>
        <g id="emoji">
            <path d="m29 20h-26v-2l2-2h22l2 2v2z" fill="#747474" fill-rule="nonzero"/>
            <path d="m29 18h-26v-5h26v5z" fill="#fff" fill-rule="nonzero"/>
            <path d="m12.5 24v2.5c0 1.933 1.567 3.5 3.5 3.5s3.5-1.567 3.5-3.5v-2.5h-7z" fill="#747474"/>
            <path d="m12.5 6v2.5c0 1.933 1.567 3.5 3.5 3.5s3.5-1.567 3.5-3.5v-2.5h-7z" fill="#747474"/>
            <circle cx="16" cy="24.5" r="3.5" fill="#fff"/>
            <circle cx="16" cy="6.5" r="3.5" fill="#fff"/>
        </g>
    </g>
</svg>
