<?xml version="1.0" encoding="UTF-8"?>
<svg clip-rule="evenodd" fill-rule="evenodd" stroke-linejoin="round" stroke-miterlimit="1.4142" viewBox="0 0 32 32" xmlns="http://www.w3.org/2000/svg">
 <clipPath id="a">
  <path d="m0 0v32h32v-32z" clip-rule="evenodd"/>
 </clipPath>
 <path d="m0 0v32h32v-32z" fill="none"/>
 <g clip-path="url(#a)">
  <g fill="none" stroke="#000" stroke-width="4">
   <path d="m29 20h-26v-7h26z"/>
   <path d="m16 21c-1.933 0-3.5 1.567-3.5 3.5v2.002c0 0.928 0.369 1.817 1.025 2.473s1.545 1.025 2.473 1.025h2e-3c1.933 0 3.5-1.567 3.5-3.5v-2.002c0-0.928-0.369-1.817-1.025-2.473s-1.545-1.025-2.473-1.025h-2e-3z" stroke-miterlimit="1.5"/>
   <path d="m16 3c-1.933 0-3.5 1.567-3.5 3.5v2.002c0 0.928 0.369 1.817 1.025 2.473s1.545 1.025 2.473 1.025h2e-3c1.933 0 3.5-1.567 3.5-3.5v-2.002c0-0.928-0.369-1.817-1.025-2.473s-1.545-1.025-2.473-1.025h-2e-3z" stroke-miterlimit="1.5"/>
  </g>
  <path d="m29 20h-26v-2l2-2h22l2 2z" fill="#747474" fill-rule="nonzero"/>
  <path d="m29 18h-26v-5h26z" fill="#fff" fill-rule="nonzero"/>
  <path d="m12.5 24v2.5c0 1.933 1.567 3.5 3.5 3.5s3.5-1.567 3.5-3.5v-2.5z" fill="#747474"/>
  <path d="m12.5 6v2.5c0 1.933 1.567 3.5 3.5 3.5s3.5-1.567 3.5-3.5v-2.5z" fill="#747474"/>
  <circle cx="16" cy="24.5" r="3.5" fill="#fff"/>
  <circle cx="16" cy="6.5" r="3.5" fill="#fff"/>
 </g>
</svg>
