<?xml version="1.0" encoding="UTF-8"?>
<!DOCTYPE svg  PUBLIC '-//W3C//DTD SVG 1.1//EN'  'http://www.w3.org/Graphics/SVG/1.1/DTD/svg11.dtd'>
<svg clip-rule="evenodd" fill-rule="evenodd" stroke-linecap="round" stroke-linejoin="round" stroke-miterlimit="1.5" version="1.1" viewBox="0 0 32 32" xml:space="preserve" xmlns="http://www.w3.org/2000/svg">
<metadata>
<rdf:RDF xmlns:cc="http://web.resource.org/cc/" xmlns:dc="http://purl.org/dc/elements/1.1/" xmlns:rdf="http://www.w3.org/1999/02/22-rdf-syntax-ns#">

     <rdf:Description rdf:about="">
       <dc:title>Mutant Standard emoji 2023.12</dc:title>
     </rdf:Description>

    <cc:work rdf:about="">
        <cc:license rdf:resource="http://creativecommons.org/licenses/by-nc-sa/4.0/"/>
        <cc:attributionName>Caius Nocturne</cc:attributionName>
        <cc:attributionURL>http://mutant.tech/</cc:attributionURL>
    </cc:work>

</rdf:RDF>
</metadata>

    <rect id="dollar" width="32" height="32" fill="none"/>
    <clipPath id="_clip1">
        <rect width="32" height="32"/>
    </clipPath>
    <g clip-path="url(#_clip1)">
        <g id="outline">
            <path d="m17.5 10v3h4c1.459 0 2.858 0.579 3.889 1.611 0.582 0.582 1.02 1.281 1.292 2.042 0.208 0.414 0.319 0.875 0.319 1.347v2.5c0 1.459-0.579 2.858-1.611 3.889-1.031 1.032-2.43 1.611-3.889 1.611h-4v4h-3v-4h-7.5v-5h7.5v-3h-4c-1.459 0-2.858-0.579-3.889-1.611-1.032-1.031-1.611-2.43-1.611-3.889v-1.502c0-0.077 2e-3 -0.153 7e-3 -0.229-5e-3 -0.089-7e-3 -0.179-7e-3 -0.269 0-3.038 2.462-5.5 5.5-5.5h4v-3h3v3h7.5v5h-7.5zm0 8v3h4c0.663 0 1.299-0.263 1.768-0.732 0.223-0.223 0.399-0.484 0.523-0.768-0.124-0.284-0.3-0.545-0.523-0.768-0.469-0.469-1.105-0.732-1.768-0.732h-4zm-3-8h-4c-0.663 0-1.299 0.263-1.768 0.732-0.223 0.223-0.399 0.484-0.523 0.768 0.124 0.284 0.3 0.545 0.523 0.768 0.469 0.469 1.105 0.732 1.768 0.732h4v-3z" fill="none" stroke="#000" stroke-width="4px"/>
        </g>
        <g id="emoji">
            <path d="m17.5 28v2h-3v-2l0.846-1h0.654l1.5 1zm7.5-21v3h-14.5c-0.663 0-1.299 0.263-1.768 0.732s-0.732 1.105-0.732 1.768c0 1.381 1.119 2.5 2.5 2.5h13.5c0.796 0 1.559 0.316 2.121 0.879 0.563 0.562 0.879 1.325 0.879 2.121v2.5c0 1.459-0.579 2.858-1.611 3.889-1.031 1.032-2.43 1.611-3.889 1.611h-14.5v-3h14.5c0.663 0 1.299-0.263 1.768-0.732s0.732-1.105 0.732-1.768-0.263-1.299-0.732-1.768-1.105-0.732-1.768-0.732h-11c-1.459 0-2.858-0.579-3.889-1.611-1.032-1.031-1.611-2.43-1.611-3.889v-1.502c0-1.06 0.421-2.077 1.171-2.827s1.767-1.171 2.827-1.171h16.002z" fill="#737373"/>
            <path d="m10.5 5h4v-3h3v3h7.5v3h-7.5v5h4c1.459 0 2.858 0.579 3.889 1.611 1.032 1.031 1.611 2.43 1.611 3.889 0 3.038-2.462 5.5-5.5 5.5h-4v4h-3v-4h-7.5v-3h7.5v-5h-4c-1.459 0-2.858-0.579-3.889-1.611-1.032-1.031-1.611-2.43-1.611-3.889 0-3.038 2.462-5.5 5.5-5.5zm7 11v5h4c0.663 0 1.299-0.263 1.768-0.732s0.732-1.105 0.732-1.768-0.263-1.299-0.732-1.768-1.105-0.732-1.768-0.732h-4zm-3-8h-4c-0.663 0-1.299 0.263-1.768 0.732s-0.732 1.105-0.732 1.768 0.263 1.299 0.732 1.768 1.105 0.732 1.768 0.732h4v-5z" fill="#fff"/>
        </g>
    </g>
</svg>
