<?xml version="1.0" encoding="UTF-8"?>
<!DOCTYPE svg  PUBLIC '-//W3C//DTD SVG 1.1//EN'  'http://www.w3.org/Graphics/SVG/1.1/DTD/svg11.dtd'>
<svg clip-rule="evenodd" fill-rule="evenodd" stroke-linejoin="round" stroke-miterlimit="1.4142" version="1.1" viewBox="0 0 32 32" xml:space="preserve" xmlns="http://www.w3.org/2000/svg">
<metadata>
<rdf:RDF xmlns:cc="http://web.resource.org/cc/" xmlns:dc="http://purl.org/dc/elements/1.1/" xmlns:rdf="http://www.w3.org/1999/02/22-rdf-syntax-ns#">

     <rdf:Description rdf:about="">
       <dc:title>Mutant Standard emoji 2023.12</dc:title>
     </rdf:Description>

    <cc:work rdf:about="">
        <cc:license rdf:resource="http://creativecommons.org/licenses/by-nc-sa/4.0/"/>
        <cc:attributionName>Caius Nocturne</cc:attributionName>
        <cc:attributionURL>http://mutant.tech/</cc:attributionURL>
    </cc:work>

</rdf:RDF>
</metadata>

    <path id="exclamation_exclamation" d="m0 0v32h32v-32h-32z" fill="none"/>
    <g id="outline" fill="none" stroke="#000" stroke-width="4px">
        <path d="m7.776 20.597c-0.118 0-0.219-0.044-0.302-0.132s-0.124-0.195-0.124-0.321l-0.604-16.313c0-0.302 0.142-0.453 0.426-0.453h5.047c0.284 0 0.426 0.151 0.426 0.453l-0.604 16.313c0 0.126-0.042 0.233-0.124 0.321-0.083 0.088-0.184 0.132-0.303 0.132h-3.838zm1.671 9.176c-0.901 0-1.641-0.308-2.221-0.925-0.581-0.617-0.871-1.403-0.871-2.36s0.29-1.737 0.871-2.341c0.58-0.604 1.32-0.906 2.221-0.906 0.9 0 1.64 0.302 2.221 0.906 0.58 0.604 0.87 1.384 0.87 2.341 0 0.932-0.29 1.712-0.87 2.341-0.581 0.63-1.321 0.944-2.221 0.944z"/>
        <path d="m20.776 20.597c-0.118 0-0.219-0.044-0.302-0.132s-0.124-0.195-0.124-0.321l-0.604-16.313c0-0.302 0.142-0.453 0.426-0.453h5.047c0.284 0 0.426 0.151 0.426 0.453l-0.604 16.313c0 0.126-0.042 0.233-0.124 0.321-0.083 0.088-0.184 0.132-0.303 0.132h-3.838zm1.671 9.176c-0.901 0-1.641-0.308-2.221-0.925-0.581-0.617-0.871-1.403-0.871-2.36s0.29-1.737 0.871-2.341c0.58-0.604 1.32-0.906 2.221-0.906 0.9 0 1.64 0.302 2.221 0.906 0.58 0.604 0.87 1.384 0.87 2.341 0 0.932-0.29 1.712-0.87 2.341-0.581 0.63-1.321 0.944-2.221 0.944z"/>
        <path d="m7.776 19.597c-0.118 0-0.219-0.044-0.302-0.132s-0.124-0.195-0.124-0.321l-0.604-16.313c0-0.302 0.142-0.453 0.426-0.453h5.047c0.284 0 0.426 0.151 0.426 0.453l-0.604 16.313c0 0.126-0.042 0.233-0.124 0.321-0.083 0.088-0.184 0.132-0.303 0.132h-3.838zm1.671 9.176c-0.901 0-1.641-0.308-2.221-0.925-0.581-0.617-0.871-1.403-0.871-2.36s0.29-1.737 0.871-2.341c0.58-0.604 1.32-0.906 2.221-0.906 0.9 0 1.64 0.302 2.221 0.906 0.58 0.604 0.87 1.384 0.87 2.341 0 0.932-0.29 1.712-0.87 2.341-0.581 0.63-1.321 0.944-2.221 0.944z"/>
        <path d="m20.776 19.597c-0.118 0-0.219-0.044-0.302-0.132s-0.124-0.195-0.124-0.321l-0.604-16.313c0-0.302 0.142-0.453 0.426-0.453h5.047c0.284 0 0.426 0.151 0.426 0.453l-0.604 16.313c0 0.126-0.042 0.233-0.124 0.321-0.083 0.088-0.184 0.132-0.303 0.132h-3.838zm1.671 9.176c-0.901 0-1.641-0.308-2.221-0.925-0.581-0.617-0.871-1.403-0.871-2.36s0.29-1.737 0.871-2.341c0.58-0.604 1.32-0.906 2.221-0.906 0.9 0 1.64 0.302 2.221 0.906 0.58 0.604 0.87 1.384 0.87 2.341 0 0.932-0.29 1.712-0.87 2.341-0.581 0.63-1.321 0.944-2.221 0.944z"/>
    </g>
    <g id="emoji" fill-rule="nonzero">
        <path d="m7.776 20.597c-0.118 0-0.219-0.044-0.302-0.132s-0.124-0.195-0.124-0.321l-0.604-16.313c0-0.302 0.142-0.453 0.426-0.453h5.047c0.284 0 0.426 0.151 0.426 0.453l-0.604 16.313c0 0.126-0.042 0.233-0.124 0.321-0.083 0.088-0.184 0.132-0.303 0.132h-3.838zm1.671 9.176c-0.901 0-1.641-0.308-2.221-0.925-0.581-0.617-0.871-1.403-0.871-2.36s0.29-1.737 0.871-2.341c0.58-0.604 1.32-0.906 2.221-0.906 0.9 0 1.64 0.302 2.221 0.906 0.58 0.604 0.87 1.384 0.87 2.341 0 0.932-0.29 1.712-0.87 2.341-0.581 0.63-1.321 0.944-2.221 0.944z" fill="#841319"/>
        <path d="m20.776 20.597c-0.118 0-0.219-0.044-0.302-0.132s-0.124-0.195-0.124-0.321l-0.604-16.313c0-0.302 0.142-0.453 0.426-0.453h5.047c0.284 0 0.426 0.151 0.426 0.453l-0.604 16.313c0 0.126-0.042 0.233-0.124 0.321-0.083 0.088-0.184 0.132-0.303 0.132h-3.838zm1.671 9.176c-0.901 0-1.641-0.308-2.221-0.925-0.581-0.617-0.871-1.403-0.871-2.36s0.29-1.737 0.871-2.341c0.58-0.604 1.32-0.906 2.221-0.906 0.9 0 1.64 0.302 2.221 0.906 0.58 0.604 0.87 1.384 0.87 2.341 0 0.932-0.29 1.712-0.87 2.341-0.581 0.63-1.321 0.944-2.221 0.944z" fill="#841319"/>
        <path d="m7.776 19.597c-0.118 0-0.219-0.044-0.302-0.132s-0.124-0.195-0.124-0.321l-0.604-16.313c0-0.302 0.142-0.453 0.426-0.453h5.047c0.284 0 0.426 0.151 0.426 0.453l-0.604 16.313c0 0.126-0.042 0.233-0.124 0.321-0.083 0.088-0.184 0.132-0.303 0.132h-3.838zm1.671 9.176c-0.901 0-1.641-0.308-2.221-0.925-0.581-0.617-0.871-1.403-0.871-2.36s0.29-1.737 0.871-2.341c0.58-0.604 1.32-0.906 2.221-0.906 0.9 0 1.64 0.302 2.221 0.906 0.58 0.604 0.87 1.384 0.87 2.341 0 0.932-0.29 1.712-0.87 2.341-0.581 0.63-1.321 0.944-2.221 0.944z" fill="#e82731"/>
        <path d="m20.776 19.597c-0.118 0-0.219-0.044-0.302-0.132s-0.124-0.195-0.124-0.321l-0.604-16.313c0-0.302 0.142-0.453 0.426-0.453h5.047c0.284 0 0.426 0.151 0.426 0.453l-0.604 16.313c0 0.126-0.042 0.233-0.124 0.321-0.083 0.088-0.184 0.132-0.303 0.132h-3.838zm1.671 9.176c-0.901 0-1.641-0.308-2.221-0.925-0.581-0.617-0.871-1.403-0.871-2.36s0.29-1.737 0.871-2.341c0.58-0.604 1.32-0.906 2.221-0.906 0.9 0 1.64 0.302 2.221 0.906 0.58 0.604 0.87 1.384 0.87 2.341 0 0.932-0.29 1.712-0.87 2.341-0.581 0.63-1.321 0.944-2.221 0.944z" fill="#e82731"/>
    </g>
</svg>
