<?xml version="1.0" encoding="UTF-8"?>
<!DOCTYPE svg  PUBLIC '-//W3C//DTD SVG 1.1//EN'  'http://www.w3.org/Graphics/SVG/1.1/DTD/svg11.dtd'>
<svg clip-rule="evenodd" fill-rule="evenodd" stroke-linecap="round" stroke-linejoin="round" stroke-miterlimit="1.5" version="1.1" viewBox="0 0 32 32" xml:space="preserve" xmlns="http://www.w3.org/2000/svg">
<metadata>
<rdf:RDF xmlns:cc="http://web.resource.org/cc/" xmlns:dc="http://purl.org/dc/elements/1.1/" xmlns:rdf="http://www.w3.org/1999/02/22-rdf-syntax-ns#">

     <rdf:Description rdf:about="">
       <dc:title>Mutant Standard emoji 2023.12</dc:title>
     </rdf:Description>

    <cc:work rdf:about="">
        <cc:license rdf:resource="http://creativecommons.org/licenses/by-nc-sa/4.0/"/>
        <cc:attributionName>Caius Nocturne</cc:attributionName>
        <cc:attributionURL>http://mutant.tech/</cc:attributionURL>
    </cc:work>

</rdf:RDF>
</metadata>

    <rect id="heart_suit" width="32" height="32" fill="none"/>
    <clipPath id="_clip1">
        <rect width="32" height="32"/>
    </clipPath>
    <g clip-path="url(#_clip1)">
        <g id="outline">
            <path d="m16 8c1.182-3.011 2.582-6 6.535-6 3.29 0 5.509 2.613 5.471 6.373v1.808 0.191 1e-3c-1e-3 0.117-5e-3 0.235-0.01 0.354-0.174 3.697-2.93 7.56-5.722 11.191-3.447 4.482-6.271 8.078-6.274 8.082 0 0-2.825-3.597-6.274-8.082-2.792-3.631-5.548-7.494-5.722-11.191-5e-3 -0.119-9e-3 -0.237-0.01-0.354v-1e-3 -0.191-1.808c-0.038-3.76 2.181-6.373 5.471-6.373 3.953 0 5.353 2.989 6.535 6z" fill="none" stroke="#000" stroke-width="4px"/>
        </g>
        <g id="emoji">
            <path d="m16.682 8.373c1.095-2.375 2.621-4.373 5.853-4.373 2.668 0 4.632 1.718 5.259 4.373h0.212v1.808 0.191 1e-3c-1e-3 0.117-5e-3 0.235-0.01 0.354-0.174 3.697-2.93 7.56-5.722 11.191-3.233 4.204-5.918 7.629-6.241 8.041l-0.033 0.041s-2.825-3.597-6.274-8.082c-2.792-3.631-5.548-7.494-5.722-11.191-5e-3 -0.119-9e-3 -0.237-0.01-0.354v-1e-3 -0.191-1.808h0.212c0.627-2.655 2.591-4.373 5.259-4.373 3.232 0 4.758 1.998 5.853 4.373h1.364z" fill="#9d151d"/>
            <path d="m16.056 7.859c1.17-2.963 2.587-5.859 6.479-5.859 3.393 0 5.646 2.778 5.461 6.727-0.174 3.697-2.93 7.56-5.722 11.191-3.018 3.924-5.558 7.169-6.146 7.919l-0.128 0.163s-2.825-3.597-6.274-8.082c-2.792-3.631-5.548-7.494-5.722-11.191-0.185-3.949 2.068-6.727 5.461-6.727 3.953 0 5.353 2.989 6.535 6l0.056-0.141z" fill="#e82731"/>
        </g>
    </g>
</svg>
