<?xml version="1.0" encoding="UTF-8"?>
<!DOCTYPE svg  PUBLIC '-//W3C//DTD SVG 1.1//EN'  'http://www.w3.org/Graphics/SVG/1.1/DTD/svg11.dtd'>
<svg clip-rule="evenodd" fill-rule="evenodd" stroke-linejoin="round" stroke-miterlimit="1.4142" version="1.1" viewBox="0 0 32 32" xml:space="preserve" xmlns="http://www.w3.org/2000/svg">
<metadata>
<rdf:RDF xmlns:cc="http://web.resource.org/cc/" xmlns:dc="http://purl.org/dc/elements/1.1/" xmlns:rdf="http://www.w3.org/1999/02/22-rdf-syntax-ns#">

     <rdf:Description rdf:about="">
       <dc:title>Mutant Standard emoji 2023.12</dc:title>
     </rdf:Description>

    <cc:work rdf:about="">
        <cc:license rdf:resource="http://creativecommons.org/licenses/by-nc-sa/4.0/"/>
        <cc:attributionName>Caius Nocturne</cc:attributionName>
        <cc:attributionURL>http://mutant.tech/</cc:attributionURL>
    </cc:work>

</rdf:RDF>
</metadata>

    <path id="multiply" d="m0 0v32h32v-32h-32z" fill="none"/>
    <g id="outline">
        <path d="m16 11.5 7.425-7.424 3.535 3.535v2l-6.424 6.425 6.424 6.424v2l-3.535 3.536-7.425-7.425-7.425 7.425-3.535-3.536v-2l6.424-6.424-6.424-6.425v-2l3.535-3.535 7.425 7.424z" fill="none" stroke="#000" stroke-width="4px"/>
    </g>
    <g id="emoji" fill-rule="nonzero">
        <path d="m16 13.741 7.425-7.665 3.535 1.535v2l-7.599 7.599 4.639 4.79 2.96 0.46v2l-3.535 3.536-7.425-7.425-7.425 7.425-3.535-3.536v-2l2.96-0.46 4.639-4.79-7.599-7.599v-2l3.535-1.535 7.425 7.665z" fill="#747474"/>
        <path d="m16 11.5 7.425-7.424 3.535 3.535-7.424 7.425 7.424 7.424-3.535 3.536-7.425-7.425-7.425 7.425-3.535-3.536 7.424-7.424-7.424-7.425 3.535-3.535 7.425 7.424z" fill="#fff"/>
    </g>
</svg>
