<?xml version="1.0" encoding="UTF-8"?>
<!DOCTYPE svg  PUBLIC '-//W3C//DTD SVG 1.1//EN'  'http://www.w3.org/Graphics/SVG/1.1/DTD/svg11.dtd'>
<svg clip-rule="evenodd" fill-rule="evenodd" stroke-linecap="round" stroke-linejoin="round" stroke-miterlimit="1.5" version="1.1" viewBox="0 0 32 32" xml:space="preserve" xmlns="http://www.w3.org/2000/svg">
<metadata>
<rdf:RDF xmlns:cc="http://web.resource.org/cc/" xmlns:dc="http://purl.org/dc/elements/1.1/" xmlns:rdf="http://www.w3.org/1999/02/22-rdf-syntax-ns#">

     <rdf:Description rdf:about="">
       <dc:title>Mutant Standard emoji 2023.12</dc:title>
     </rdf:Description>

    <cc:work rdf:about="">
        <cc:license rdf:resource="http://creativecommons.org/licenses/by-nc-sa/4.0/"/>
        <cc:attributionName>Caius Nocturne</cc:attributionName>
        <cc:attributionURL>http://mutant.tech/</cc:attributionURL>
    </cc:work>

</rdf:RDF>
</metadata>

    <rect id="spade_suit" width="32" height="32" fill="none"/>
    <g id="outline">
        <path d="m16.026 2.037c0.256 0.365 2.386 3.395 5.074 6.963 2.621 3.478 5.3 7.469 5.771 9.958 0.062 0.328 0.088 0.649 0.08 0.958v1.782c0.068 2.707-2.399 4.644-5.242 4.24-1.458-0.207-2.575-1.242-3.481-2.573l0.772 4.635v2h-6v-2l0.772-4.635c-0.906 1.331-2.023 2.366-3.481 2.573-2.843 0.404-5.31-1.533-5.242-4.24v-1.782c-8e-3 -0.309 0.018-0.63 0.08-0.958 0.471-2.489 3.15-6.48 5.771-9.958 2.868-3.806 5.1-7 5.1-7l0.026 0.037z" fill="none" stroke="#000" stroke-width="4px"/>
    </g>
    <g id="emoji">
        <path d="m16.026 4.037c0.256 0.365 2.386 3.395 5.074 6.963 2.265 3.005 4.572 6.393 5.462 8.864h0.389v1.834c0.068 2.707-2.399 4.644-5.242 4.24-1.58-0.224-2.759-1.42-3.704-2.911l0.995 4.973v2h-6v-2l0.995-4.973c-0.945 1.491-2.124 2.687-3.704 2.911-2.843 0.404-5.31-1.533-5.242-4.24v-1.834h0.389c0.89-2.471 3.197-5.859 5.462-8.864 2.868-3.806 5.1-7 5.1-7l0.026 0.037z" fill="#474747"/>
        <path d="m16.026 2.037c0.255 0.365 2.386 3.395 5.074 6.963 2.621 3.478 5.3 7.469 5.771 9.958 0.585 3.084-2.066 5.419-5.162 4.98-1.711-0.243-2.951-1.625-3.934-3.288l1.225 7.35h-6l1.225-7.35c-0.983 1.663-2.223 3.045-3.934 3.288-3.096 0.439-5.747-1.896-5.162-4.98 0.471-2.489 3.15-6.48 5.771-9.958 2.868-3.806 5.1-7 5.1-7l0.026 0.037z" fill="#717171"/>
    </g>
</svg>
