<?xml version="1.0" encoding="UTF-8"?>
<!DOCTYPE svg  PUBLIC '-//W3C//DTD SVG 1.1//EN'  'http://www.w3.org/Graphics/SVG/1.1/DTD/svg11.dtd'>
<svg clip-rule="evenodd" fill-rule="evenodd" stroke-linejoin="round" stroke-miterlimit="1.4142" version="1.1" viewBox="0 0 32 32" xml:space="preserve" xmlns="http://www.w3.org/2000/svg" xmlns:serif="http://www.serif.com/">
<metadata>
<rdf:RDF xmlns:cc="http://web.resource.org/cc/" xmlns:dc="http://purl.org/dc/elements/1.1/" xmlns:rdf="http://www.w3.org/1999/02/22-rdf-syntax-ns#">

     <rdf:Description rdf:about="">
       <dc:title>Mutant Standard emoji 2023.12</dc:title>
     </rdf:Description>

    <cc:work rdf:about="">
        <cc:license rdf:resource="http://creativecommons.org/licenses/by-nc-sa/4.0/"/>
        <cc:attributionName>Caius Nocturne</cc:attributionName>
        <cc:attributionURL>http://mutant.tech/</cc:attributionURL>
    </cc:work>

</rdf:RDF>
</metadata>

    <path id="tilde" d="m0 0v32h32v-32h-32z" fill="none"/>
    <g id="outline">
        <path id="path3" d="m10.463 11.777c-2.624 0-5.134 1.098-6.914 3.028-0.208 0.225-1.385 1.5-1.385 1.5v2l3.672 3.39s0.578-0.624 1.387-1.5l2e-3 -2e-3c0.833-0.904 2.006-1.416 3.238-1.416 1.23 0 2.399 0.512 3.234 1.414l4e-3 4e-3v2e-3c3e-3 4e-3 9e-3 5e-3 0.012 8e-3 1.78 1.922 4.283 3.018 6.902 3.018 2.623 0 5.132-1.097 6.912-3.026l2e-3 -2e-3c1.284-1.39 2.307-2.5 2.307-2.5v-2l-3.672-3.39s-1.025 1.108-2.31 2.5v2e-3c-0.834 0.903-2.007 1.416-3.239 1.416s-2.403-0.513-3.238-1.418c-1e-3 -1e-3 -1e-3 -2e-3 -2e-3 -2e-3 -2e-3 -2e-3 -4e-3 -2e-3 -6e-3 -4e-3 -1e-3 -1e-3 -1e-3 -2e-3 -2e-3 -2e-3 -1.78-1.925-4.284-3.02-6.904-3.02z" fill="none" stroke="#000" stroke-width="4px"/>
    </g>
    <g id="emoji" fill-rule="nonzero">
        <path id="path31" d="m10.463 13.777c-2.624 0-5.134 1.098-6.914 3.028-0.208 0.225-1.385-0.5-1.385-0.5v2l3.672 3.39s0.578-0.624 1.387-1.5l2e-3 -2e-3c0.833-0.904 2.006-1.416 3.238-1.416 1.23 0 2.399 0.512 3.234 1.414l4e-3 4e-3v2e-3c3e-3 4e-3 9e-3 5e-3 0.012 8e-3 1.78 1.922 4.283 3.018 6.902 3.018 2.623 0 5.132-1.097 6.912-3.026l2e-3 -2e-3c1.284-1.39 2.307-2.5 2.307-2.5v-2l-3.672-1.39s-1.025 1.108-2.31 2.5v2e-3c-0.834 0.903-2.007 1.416-3.239 1.416s-2.403-0.513-3.238-1.418c-1e-3 -1e-3 -1e-3 -2e-3 -2e-3 -2e-3 -2e-3 -2e-3 -4e-3 -2e-3 -6e-3 -4e-3 -1e-3 -1e-3 -1e-3 -2e-3 -2e-3 -2e-3 -1.78-1.925-4.284-3.02-6.904-3.02z" fill="#747474" serif:id="path3"/>
        <path id="path32" d="m10.463 11.777c-2.624 0-5.134 1.098-6.914 3.028-0.808 0.875-1.385 1.5-1.385 1.5l3.672 3.39s0.578-0.624 1.387-1.5l2e-3 -2e-3c0.833-0.904 2.006-1.416 3.238-1.416 1.23 0 2.399 0.512 3.234 1.414l4e-3 4e-3v2e-3c3e-3 4e-3 9e-3 5e-3 0.012 8e-3 1.78 1.922 4.283 3.018 6.902 3.018 2.623 0 5.132-1.097 6.912-3.026l2e-3 -2e-3c1.284-1.39 2.307-2.5 2.307-2.5l-3.672-3.39s-1.025 1.108-2.31 2.5v2e-3c-0.834 0.903-2.007 1.416-3.239 1.416s-2.403-0.513-3.238-1.418c-1e-3 -1e-3 -1e-3 -2e-3 -2e-3 -2e-3 -2e-3 -2e-3 -4e-3 -2e-3 -6e-3 -4e-3 -1e-3 -1e-3 -1e-3 -2e-3 -2e-3 -2e-3 -1.78-1.925-4.284-3.02-6.904-3.02z" fill="#fff" serif:id="path3"/>
    </g>
</svg>
