<?xml version="1.0" encoding="UTF-8"?>
<!DOCTYPE svg  PUBLIC '-//W3C//DTD SVG 1.1//EN'  'http://www.w3.org/Graphics/SVG/1.1/DTD/svg11.dtd'>
<svg clip-rule="evenodd" fill-rule="evenodd" stroke-linejoin="round" stroke-miterlimit="1.4142" version="1.1" viewBox="0 0 32 32" xml:space="preserve" xmlns="http://www.w3.org/2000/svg" xmlns:serif="http://www.serif.com/">
<metadata>
<rdf:RDF xmlns:cc="http://web.resource.org/cc/" xmlns:dc="http://purl.org/dc/elements/1.1/" xmlns:rdf="http://www.w3.org/1999/02/22-rdf-syntax-ns#">

     <rdf:Description rdf:about="">
       <dc:title>Mutant Standard emoji 2023.12</dc:title>
     </rdf:Description>

    <cc:work rdf:about="">
        <cc:license rdf:resource="http://creativecommons.org/licenses/by-nc-sa/4.0/"/>
        <cc:attributionName>Caius Nocturne</cc:attributionName>
        <cc:attributionURL>http://mutant.tech/</cc:attributionURL>
    </cc:work>

</rdf:RDF>
</metadata>

    <path id="wavy_dash" d="m0 0v32h32v-32h-32z" fill="none"/>
    <g id="outline">
        <path id="path3" d="m16 12.576c-1.485 0-2.906 0.622-3.914 1.713v2e-3c-0.528 0.573-1.086 1.177-1.611 1.746-1e-3 1e-3 -2e-3 1e-3 -2e-3 2e-3 -0.251 0.272-0.594 0.423-0.961 0.426h-4e-3c-0.367 3e-3 -0.716-0.145-0.969-0.41-1.483-1.557-3.092-3.242-3.092-3.242l-2.894 2.759v2s1.609 1.687 3.092 3.242c1.014 1.065 2.427 1.664 3.898 1.651 1.47-0.012 2.872-0.633 3.869-1.713 0.528-0.571 1.087-1.177 1.615-1.75 0.253-0.272 0.603-0.426 0.973-0.426 0.371 0 0.722 0.155 0.975 0.428 0.528 0.573 1.085 1.177 1.613 1.748 0.997 1.08 2.4 1.702 3.871 1.713 1.471 0.012 2.882-0.587 3.896-1.651 1.483-1.555 3.092-3.242 3.092-3.242v-2l-2.894-2.759s-1.609 1.685-3.092 3.242c-0.253 0.265-0.602 0.413-0.969 0.41h-4e-3c-0.367-3e-3 -0.71-0.154-0.961-0.426 0-1e-3 -1e-3 -1e-3 -2e-3 -2e-3 -0.525-0.569-1.083-1.174-1.611-1.746v-2e-3c-1.008-1.091-2.429-1.713-3.914-1.713z" fill="none" stroke="#000" stroke-width="4px"/>
    </g>
    <g id="emoji" fill-rule="nonzero">
        <path id="path31" d="m16 14.576c-1.485 0-6.121 3.886-6.488 3.889h-4e-3c-0.367 3e-3 -4.061-3.652-4.061-3.652l-2.894 0.759v2s1.609 1.687 3.092 3.242c1.014 1.065 2.427 1.664 3.898 1.651 1.47-0.012 2.872-0.633 3.869-1.713 0.528-0.571 1.087-1.177 1.615-1.75 0.253-0.272 0.603-0.426 0.973-0.426 0.371 0 0.722 0.155 0.975 0.428 0.528 0.573 1.085 1.177 1.613 1.748 0.997 1.08 2.4 1.702 3.871 1.713 1.471 0.012 2.882-0.587 3.896-1.651 1.483-1.555 3.092-3.242 3.092-3.242v-2l-2.894-0.759s-3.694 3.655-4.061 3.652h-4e-3c-0.367-3e-3 -5.003-3.889-6.488-3.889z" fill="#747474" serif:id="path3"/>
        <path id="path32" d="m16 12.576c-1.485 0-2.906 0.622-3.914 1.713v2e-3c-0.528 0.573-1.086 1.177-1.611 1.746-1e-3 1e-3 -2e-3 1e-3 -2e-3 2e-3 -0.251 0.272-0.594 0.423-0.961 0.426h-4e-3c-0.367 3e-3 -0.716-0.145-0.969-0.41-1.483-1.557-3.092-3.242-3.092-3.242l-2.894 2.759s1.609 1.687 3.092 3.242c1.014 1.065 2.427 1.664 3.898 1.651 1.47-0.012 2.872-0.633 3.869-1.713 0.528-0.571 1.087-1.177 1.615-1.75 0.253-0.272 0.603-0.426 0.973-0.426 0.371 0 0.722 0.155 0.975 0.428 0.528 0.573 1.085 1.177 1.613 1.748 0.997 1.08 2.4 1.702 3.871 1.713 1.471 0.012 2.882-0.587 3.896-1.651 1.483-1.555 3.092-3.242 3.092-3.242l-2.894-2.759s-1.609 1.685-3.092 3.242c-0.253 0.265-0.602 0.413-0.969 0.41h-4e-3c-0.367-3e-3 -0.71-0.154-0.961-0.426 0-1e-3 -1e-3 -1e-3 -2e-3 -2e-3 -0.525-0.569-1.083-1.174-1.611-1.746v-2e-3c-1.008-1.091-2.429-1.713-3.914-1.713z" fill="#fff" serif:id="path3"/>
    </g>
</svg>
