<?xml version="1.0" encoding="UTF-8"?>
<svg viewBox="0 0 814 290" xmlns="http://www.w3.org/2000/svg">
  <g transform="matrix(0.1, 0, 0, -0.1, 0, 290)" fill="#d800d8" stroke="none">
    <path d="M3176 2859 c-29 -23 -36 -77 -12 -101 11 -12 11 -18 -5 -37 -40 -49 -12 -109 56 -118 31 -4 46 0 68 17 34 27 37 80 7 110 -11 11 -16 20 -11 20 5 0 14 14 21 30 31 74 -58 131 -124 79z m84 -34 c29 -35 -26 -85 -58 -53 -13 13 -16 50 -5 61 12 12 50 7 63 -8z m0 -121 c21 -24 8 -59 -23 -62 -50 -6 -74 33 -41 69 16 18 46 15 64 -7z" style="fill: rgb(253, 243, 50);"/>
    <path d="M2955 2785 c-20 -19 -25 -34 -25 -75 0 -66 30 -100 88 -100 56 0 87 36 87 102 0 42 -4 53 -28 74 -38 32 -90 32 -122 -1z m97 -29 c9 -13 10 -68 2 -90 -7 -19 -55 -21 -72 -4 -21 21 -15 85 9 102 22 15 48 11 61 -8z" style="fill: rgb(253, 243, 50);"/>
    <path d="M5463 2786 c-24 -21 -28 -32 -28 -74 0 -65 31 -102 84 -102 57 1 91 39 91 100 0 88 -83 131 -147 76z m87 -26 c41 -41 10 -126 -40 -113 -42 11 -50 100 -12 123 24 13 30 12 52 -10z" style="fill: rgb(152, 87, 205);"/>
    <path d="M5673 2786 c-24 -21 -28 -32 -28 -74 0 -65 31 -102 84 -102 57 1 91 39 91 100 0 88 -83 131 -147 76z m87 -26 c41 -41 10 -126 -40 -113 -42 11 -50 100 -12 123 24 13 30 12 52 -10z" style="fill: rgb(152, 87, 205);"/>
    <path d="M5876 2779 c-56 -66 -16 -169 64 -169 30 0 44 6 64 31 56 66 16 169 -64 169 -30 0 -44 -6 -64 -31z m94 -19 c35 -35 22 -98 -23 -113 -25 -9 -57 27 -57 63 0 29 29 70 50 70 6 0 19 -9 30 -20z" style="fill: rgb(152, 87, 205);"/>
    <path d="M6086 2779 c-56 -66 -16 -169 64 -169 30 0 44 6 64 31 56 66 16 169 -64 169 -30 0 -44 -6 -64 -31z m94 -19 c35 -35 22 -98 -23 -113 -25 -9 -57 27 -57 63 0 29 29 70 50 70 6 0 19 -9 30 -20z" style="fill: rgb(152, 87, 205);"/>
    <path d="M7755 2785 c-35 -34 -35 -111 0 -149 63 -68 174 5 151 100 -18 70 -103 98 -151 49z m82 -13 c38 -24 33 -115 -7 -125 -54 -14 -86 84 -38 117 25 18 28 19 45 8z" style="fill: rgb(152, 87, 205);"/>
    <path d="M2787 2664 c-11 -11 -8 -52 3 -59 6 -3 19 -3 31 0 28 9 23 59 -6 63 -12 2 -24 0 -28 -4z" style="fill: rgb(253, 243, 50);"/>
    <path d="M5285 2649 c-14 -43 45 -66 61 -24 8 19 -13 45 -37 45 -10 0 -21 -10 -24 -21z" style="fill: rgb(152, 87, 205);"/>
    <path d="M6331 2656 c-9 -11 -10 -20 -1 -36 13 -24 38 -23 53 1 23 37 -25 68 -52 35z" style="fill: rgb(152, 87, 205);"/>
    <path d="M7587 2664 c-13 -13 -7 -52 8 -58 27 -10 46 5 43 33 -3 26 -35 41 -51 25z" style="fill: rgb(152, 87, 205);"/>
    <path d="M2550 2415 c0 -42 3 -55 15 -55 12 0 15 13 15 55 0 42 -3 55 -15 55 -12 0 -15 -13 -15 -55z" style="fill: rgb(253, 243, 50);"/>
    <path d="M2614 2433 c3 -21 6 -46 6 -55 0 -10 7 -18 15 -18 12 0 15 13 15 55 0 49 -2 55 -21 55 -19 0 -21 -4 -15 -37z" style="fill: rgb(253, 243, 50);"/>
    <path d="M5140 2425 l0 -45 -39 0 c-30 0 -44 -6 -60 -25 -28 -37 -35 -77 -17 -118 18 -45 45 -59 104 -55 l47 3 3 143 c2 137 2 142 -18 142 -17 0 -20 -6 -20 -45z m-9 -85 c5 0 9 -27 9 -60 0 -69 -14 -83 -55 -56 -20 13 -25 25 -25 56 0 42 23 75 47 66 8 -3 19 -6 24 -6z" style="fill: rgb(152, 87, 205);"/>
    <path d="M5470 2421 c0 -28 5 -53 11 -56 15 -10 16 -7 24 53 6 48 5 52 -14 52 -18 0 -21 -6 -21 -49z" style="fill: rgb(152, 87, 205);"/>
    <path d="M5540 2421 c0 -28 5 -53 11 -56 14 -9 15 -7 23 53 6 48 5 52 -14 52 -17 0 -20 -6 -20 -49z" style="fill: rgb(152, 87, 205);"/>
    <path d="M5680 2421 c0 -28 5 -53 11 -56 15 -10 16 -7 24 53 6 48 5 52 -14 52 -18 0 -21 -6 -21 -49z" style="fill: rgb(152, 87, 205);"/>
    <path d="M5750 2421 c0 -28 5 -53 11 -56 14 -9 15 -7 23 53 6 48 5 52 -14 52 -17 0 -20 -6 -20 -49z" style="fill: rgb(152, 87, 205);"/>
    <path d="M6492 2328 l3 -143 47 -3 c57 -4 83 9 104 50 35 67 -8 148 -78 148 l-38 0 0 45 c0 39 -3 45 -20 45 -20 0 -20 -5 -18 -142z m102 9 c28 -20 26 -85 -4 -109 -40 -33 -55 -21 -58 49 -3 62 -2 63 39 72 3 0 13 -5 23 -12z" style="fill: rgb(152, 87, 205);"/>
    <path d="M2755 2425 c-28 -28 -33 -76 -10 -95 14 -11 14 -15 -2 -32 -20 -22 -22 -80 -4 -102 18 -22 76 -31 111 -16 47 19 60 100 21 125 -8 4 -6 13 4 28 8 12 15 32 15 45 0 33 -43 72 -80 72 -19 0 -40 -9 -55 -25z m85 -30 c16 -19 -1 -65 -24 -65 -31 0 -60 53 -39 73 12 12 50 7 63 -8z m5 -128 c20 -29 3 -57 -35 -57 -40 0 -58 32 -36 65 18 27 49 24 71 -8z" style="fill: rgb(253, 243, 50);"/>
    <path d="M2966 2429 c-29 -23 -36 -77 -12 -101 11 -12 11 -18 -5 -37 -40 -49 -12 -109 56 -118 31 -4 46 0 68 17 34 27 37 80 7 110 -11 11 -16 20 -11 20 5 0 14 14 21 30 31 74 -58 131 -124 79z m84 -34 c29 -35 -26 -85 -58 -53 -13 13 -16 50 -5 61 12 12 50 7 63 -8z m0 -121 c21 -24 8 -59 -23 -62 -50 -6 -74 33 -41 69 16 18 46 15 64 -7z" style="fill: rgb(253, 243, 50);"/>
    <path d="M3176 2429 c-29 -23 -36 -77 -12 -101 11 -12 11 -18 -5 -37 -40 -49 -12 -109 56 -118 31 -4 46 0 68 17 34 27 37 80 7 110 -11 11 -16 20 -11 20 5 0 14 14 21 30 31 74 -58 131 -124 79z m84 -34 c29 -35 -26 -85 -58 -53 -13 13 -16 50 -5 61 12 12 50 7 63 -8z m0 -121 c21 -24 8 -59 -23 -62 -50 -6 -74 33 -41 69 16 18 46 15 64 -7z" style="fill: rgb(253, 243, 50);"/>
    <path d="M6113 2440 c-40 -17 -58 -85 -29 -109 13 -11 12 -17 -6 -47 -17 -29 -18 -39 -8 -63 27 -67 136 -67 159 1 11 30 2 70 -18 83 -8 4 -6 13 4 28 44 63 -28 138 -102 107z m73 -56 c4 -17 1 -31 -9 -42 -23 -22 -67 -2 -67 31 0 31 7 37 41 37 22 0 30 -6 35 -26z m-10 -109 c21 -21 23 -28 14 -46 -8 -15 -19 -19 -42 -17 -43 4 -56 29 -35 62 22 32 31 33 63 1z" style="fill: rgb(152, 87, 205);"/>
    <path d="M6307 2430 c-30 -24 -38 -78 -13 -102 11 -12 11 -18 -5 -37 -40 -49 -12 -109 56 -118 31 -4 46 0 68 17 33 26 37 80 9 108 -18 18 -18 19 0 42 20 25 18 64 -6 88 -24 25 -79 26 -109 2z m83 -35 c29 -35 -26 -85 -58 -53 -13 13 -16 50 -5 61 12 12 50 7 63 -8z m0 -121 c21 -24 8 -59 -23 -62 -50 -6 -74 33 -41 69 16 18 46 15 64 -7z" style="fill: rgb(152, 87, 205);"/>
    <path d="M7363 2440 c-40 -17 -58 -85 -29 -109 13 -11 12 -17 -6 -47 -17 -29 -18 -39 -8 -63 27 -67 136 -67 159 1 11 30 2 70 -18 83 -8 4 -6 13 4 28 44 63 -28 138 -102 107z m73 -56 c4 -17 1 -31 -9 -42 -23 -22 -67 -2 -67 31 0 31 7 37 41 37 22 0 30 -6 35 -26z m-10 -109 c21 -21 23 -28 14 -46 -8 -15 -19 -19 -42 -17 -43 4 -56 29 -35 62 22 32 31 33 63 1z" style="fill: rgb(152, 87, 205);"/>
    <path d="M7573 2440 c-40 -17 -58 -85 -29 -109 13 -11 12 -17 -6 -47 -17 -29 -18 -39 -8 -63 27 -67 136 -67 159 1 11 30 2 70 -18 83 -8 4 -6 13 4 28 44 63 -28 138 -102 107z m73 -56 c4 -17 1 -31 -9 -42 -23 -22 -67 -2 -67 31 0 31 7 37 41 37 22 0 30 -6 35 -26z m-10 -109 c21 -21 23 -28 14 -46 -8 -15 -19 -19 -42 -17 -43 4 -56 29 -35 62 22 32 31 33 63 1z" style="fill: rgb(152, 87, 205);"/>
    <path d="M7767 2430 c-30 -24 -38 -78 -13 -102 11 -12 11 -18 -5 -37 -40 -49 -12 -109 56 -118 31 -4 46 0 68 17 33 26 37 80 9 108 -18 18 -18 19 0 42 20 25 18 64 -6 88 -24 25 -79 26 -109 2z m83 -35 c29 -35 -26 -85 -58 -53 -13 13 -16 50 -5 61 12 12 50 7 63 -8z m0 -121 c21 -24 8 -59 -23 -62 -50 -6 -74 33 -41 69 16 18 46 15 64 -7z" style="fill: rgb(152, 87, 205);"/>
    <path d="M5240 2310 c0 -123 1 -130 20 -130 17 0 20 7 20 50 l0 50 34 0 c51 0 86 33 86 80 0 54 -34 80 -106 80 l-54 0 0 -130z m101 90 c12 -7 19 -21 19 -40 0 -31 -22 -50 -59 -50 -18 0 -21 6 -21 50 0 44 3 50 21 50 11 0 29 -5 40 -10z" style="fill: rgb(152, 87, 205);"/>
    <path d="M5840 2435 c0 -3 18 -41 40 -85 29 -58 40 -92 40 -125 0 -38 3 -45 20 -45 17 0 20 7 20 48 0 36 9 65 40 122 22 41 40 78 40 83 0 4 -9 7 -20 7 -16 0 -27 -15 -47 -60 -14 -33 -29 -60 -33 -60 -4 0 -19 27 -33 60 -20 45 -31 60 -47 60 -11 0 -20 -2 -20 -5z" style="fill: rgb(152, 87, 205);"/>
    <path d="M7133 2356 c-24 -21 -28 -32 -28 -74 0 -65 31 -102 84 -102 57 1 91 39 91 100 0 88 -83 131 -147 76z m87 -26 c41 -41 10 -126 -40 -113 -42 11 -50 100 -12 123 24 13 30 12 52 -10z" style="fill: rgb(152, 87, 205);"/>
    <path d="M4871 2226 c-9 -11 -10 -20 -1 -36 13 -24 38 -23 53 1 23 37 -25 68 -52 35z" style="fill: rgb(152, 87, 205);"/>
    <path d="M6090 2035 c0 -10 11 -15 35 -15 l35 0 0 -155 0 -155 -35 0 c-24 0 -35 -5 -35 -15 0 -12 13 -15 55 -15 l55 0 0 185 0 185 -55 0 c-42 0 -55 -3 -55 -15z" style="fill: rgb(152, 87, 205);"/>
    <path d="M6754 1988 c12 -90 28 -88 41 5 6 46 6 47 -21 47 -26 0 -27 0 -20 -52z" style="fill: rgb(152, 87, 205);"/>
    <path d="M2755 1995 c-28 -28 -33 -76 -10 -95 14 -11 14 -15 -2 -32 -20 -22 -22 -80 -4 -102 18 -22 76 -31 111 -16 47 19 60 100 21 125 -8 4 -6 13 4 28 8 12 15 32 15 45 0 33 -43 72 -80 72 -19 0 -40 -9 -55 -25z m85 -30 c16 -19 -1 -65 -24 -65 -31 0 -60 53 -39 73 12 12 50 7 63 -8z m5 -128 c20 -29 3 -57 -35 -57 -40 0 -58 32 -36 65 18 27 49 24 71 -8z" style="fill: rgb(253, 243, 50);"/>
    <path d="M2966 1999 c-29 -23 -36 -77 -12 -101 11 -12 11 -18 -5 -37 -40 -49 -12 -109 56 -118 31 -4 46 0 68 17 34 27 37 80 7 110 -11 11 -16 20 -11 20 5 0 14 14 21 30 31 74 -58 131 -124 79z m84 -34 c29 -35 -26 -85 -58 -53 -13 13 -16 50 -5 61 12 12 50 7 63 -8z m0 -121 c21 -24 8 -59 -23 -62 -50 -6 -74 33 -41 69 16 18 46 15 64 -7z" style="fill: rgb(253, 243, 50);"/>
    <path d="M3176 1999 c-29 -23 -36 -77 -12 -101 11 -12 11 -18 -5 -37 -40 -49 -12 -109 56 -118 31 -4 46 0 68 17 34 27 37 80 7 110 -11 11 -16 20 -11 20 5 0 14 14 21 30 31 74 -58 131 -124 79z m84 -34 c29 -35 -26 -85 -58 -53 -13 13 -16 50 -5 61 12 12 50 7 63 -8z m0 -121 c21 -24 8 -59 -23 -62 -50 -6 -74 33 -41 69 16 18 46 15 64 -7z" style="fill: rgb(253, 243, 50);"/>
    <path d="M6307 2000 c-30 -24 -38 -78 -13 -102 11 -12 11 -18 -5 -37 -40 -49 -12 -109 56 -118 31 -4 46 0 68 17 33 26 37 80 9 108 -18 18 -18 19 0 42 20 25 18 64 -6 88 -24 25 -79 26 -109 2z m83 -35 c29 -35 -26 -85 -58 -53 -13 13 -16 50 -5 61 12 12 50 7 63 -8z m0 -121 c21 -24 8 -59 -23 -62 -50 -6 -74 33 -41 69 16 18 46 15 64 -7z" style="fill: rgb(152, 87, 205);"/>
    <path d="M7363 2010 c-40 -17 -58 -85 -29 -109 13 -11 12 -17 -6 -47 -17 -29 -18 -39 -8 -63 27 -67 136 -67 159 1 11 30 2 70 -18 83 -8 4 -6 13 4 28 44 63 -28 138 -102 107z m73 -56 c4 -17 1 -31 -9 -42 -23 -22 -67 -2 -67 31 0 31 7 37 41 37 22 0 30 -6 35 -26z m-10 -109 c21 -21 23 -28 14 -46 -8 -15 -19 -19 -42 -17 -43 4 -56 29 -35 62 22 32 31 33 63 1z" style="fill: rgb(152, 87, 205);"/>
    <path d="M7573 2010 c-40 -17 -58 -85 -29 -109 13 -11 12 -17 -6 -47 -17 -29 -18 -39 -8 -63 27 -67 136 -67 159 1 11 30 2 70 -18 83 -8 4 -6 13 4 28 44 63 -28 138 -102 107z m73 -56 c4 -17 1 -31 -9 -42 -23 -22 -67 -2 -67 31 0 31 7 37 41 37 22 0 30 -6 35 -26z m-10 -109 c21 -21 23 -28 14 -46 -8 -15 -19 -19 -42 -17 -43 4 -56 29 -35 62 22 32 31 33 63 1z" style="fill: rgb(152, 87, 205);"/>
    <path d="M7767 2000 c-30 -24 -38 -78 -13 -102 11 -12 11 -18 -5 -37 -40 -49 -12 -109 56 -118 31 -4 46 0 68 17 33 26 37 80 9 108 -18 18 -18 19 0 42 20 25 18 64 -6 88 -24 25 -79 26 -109 2z m83 -35 c29 -35 -26 -85 -58 -53 -13 13 -16 50 -5 61 12 12 50 7 63 -8z m0 -121 c21 -24 8 -59 -23 -62 -50 -6 -74 33 -41 69 16 18 46 15 64 -7z" style="fill: rgb(152, 87, 205);"/>
    <path d="M6490 1880 c0 -123 1 -130 20 -130 17 0 20 7 20 50 l0 50 38 0 c20 0 45 7 55 14 39 30 38 103 -1 132 -9 7 -43 14 -74 14 l-58 0 0 -130z m101 90 c12 -7 19 -21 19 -40 0 -31 -22 -50 -59 -50 -18 0 -21 6 -21 50 0 44 3 50 21 50 11 0 29 -5 40 -10z" style="fill: rgb(152, 87, 205);"/>
    <path d="M35 1925 c-36 -35 -36 -115 0 -150 34 -35 93 -34 126 1 34 36 34 112 0 148 -33 35 -92 36 -126 1z m93 -27 c13 -13 16 -66 6 -92 -7 -19 -55 -21 -72 -4 -15 15 -16 63 -2 89 12 21 50 25 68 7z" style="fill: rgb(253, 243, 50);"/>
    <path d="M241 1926 c-57 -60 -24 -168 53 -174 48 -4 81 17 96 63 14 43 -1 97 -33 120 -34 23 -90 19 -116 -9z m97 -28 c16 -16 16 -80 0 -96 -7 -7 -21 -12 -33 -12 -31 0 -45 19 -45 60 0 41 14 60 45 60 12 0 26 -5 33 -12z" style="fill: rgb(253, 243, 50);"/>
    <path d="M467 1939 c-50 -29 -59 -120 -16 -165 26 -28 83 -32 116 -9 47 33 47 137 0 170 -24 17 -74 19 -100 4z m91 -83 c4 -43 -11 -66 -42 -66 -32 0 -46 19 -46 61 0 81 81 84 88 5z" style="fill: rgb(253, 243, 50);"/>
    <path d="M1302 1943 c-19 -7 -42 -58 -42 -93 0 -37 23 -85 45 -94 9 -3 29 -6 45 -6 42 0 59 9 75 41 27 50 16 116 -24 146 -16 12 -75 16 -99 6z m89 -60 c17 -44 0 -87 -36 -91 -33 -4 -55 18 -55 56 0 40 18 62 51 62 23 0 32 -6 40 -27z" style="fill: rgb(253, 243, 50);"/>
    <path d="M1495 1925 c-20 -19 -25 -34 -25 -75 0 -66 30 -100 88 -100 56 0 87 36 87 102 0 42 -4 53 -28 74 -38 32 -90 32 -122 -1z m97 -29 c9 -13 10 -68 2 -90 -7 -19 -55 -21 -72 -4 -21 21 -15 85 9 102 22 15 48 11 61 -8z" style="fill: rgb(253, 243, 50);"/>
    <path d="M3383 1935 c-50 -35 -50 -135 0 -170 28 -19 77 -19 104 0 47 33 47 137 0 170 -27 19 -76 19 -104 0z m95 -79 c4 -43 -11 -66 -42 -66 -32 0 -46 19 -46 61 0 81 81 84 88 5z" style="fill: rgb(253, 243, 50);"/>
    <path d="M3593 1935 c-50 -35 -50 -135 0 -170 28 -19 77 -19 104 0 47 33 47 137 0 170 -27 19 -76 19 -104 0z m95 -79 c4 -43 -11 -66 -42 -66 -32 0 -46 19 -46 61 0 81 81 84 88 5z" style="fill: rgb(253, 243, 50);"/>
    <path d="M3789 1924 c-19 -20 -24 -37 -24 -74 0 -64 31 -100 87 -100 56 0 88 37 88 100 0 36 -6 53 -25 74 -33 36 -92 36 -126 0z m107 -51 c11 -44 -7 -78 -44 -81 -27 -3 -34 1 -42 24 -15 38 -3 84 23 93 29 11 55 -4 63 -36z" style="fill: rgb(253, 243, 50);"/>
    <path d="M3999 1924 c-19 -20 -24 -37 -24 -74 0 -64 31 -100 87 -100 56 0 88 37 88 100 0 36 -6 53 -25 74 -33 36 -92 36 -126 0z m107 -51 c11 -44 -7 -78 -44 -81 -27 -3 -34 1 -42 24 -15 38 -3 84 23 93 29 11 55 -4 63 -36z" style="fill: rgb(253, 243, 50);"/>
    <path d="M697 1803 c-22 -21 0 -63 33 -63 18 0 32 40 19 56 -12 15 -41 19 -52 7z" style="fill: rgb(253, 243, 50);"/>
    <path d="M1117 1804 c-11 -11 -8 -52 3 -59 6 -3 19 -3 31 0 28 9 23 59 -6 63 -12 2 -24 0 -28 -4z" style="fill: rgb(253, 243, 50);"/>
    <path d="M1735 1789 c-10 -30 18 -58 43 -43 9 6 17 22 17 35 0 34 -50 41 -60 8z" style="fill: rgb(253, 243, 50);"/>
    <path d="M4247 1804 c-11 -11 -8 -52 3 -59 6 -3 19 -3 31 0 28 9 23 59 -6 63 -12 2 -24 0 -28 -4z" style="fill: rgb(253, 243, 50);"/>
    <path d="M65 1599 c-8 -12 33 -59 52 -59 20 0 15 24 -10 48 -26 25 -33 27 -42 11z" style="fill: rgb(253, 243, 50);"/>
    <path d="M1090 1555 c0 -42 3 -55 15 -55 12 0 15 13 15 55 0 42 -3 55 -15 55 -12 0 -15 -13 -15 -55z" style="fill: rgb(253, 243, 50);"/>
    <path d="M1154 1573 c3 -21 6 -46 6 -55 0 -10 7 -18 15 -18 12 0 15 13 15 55 0 49 -2 55 -21 55 -19 0 -21 -4 -15 -37z" style="fill: rgb(253, 243, 50);"/>
    <path d="M1900 1465 l0 -145 53 0 c63 0 93 18 106 65 20 72 -18 135 -81 135 l-38 0 0 45 c0 38 -3 45 -20 45 -19 0 -20 -7 -20 -145z m115 -46 c0 -36 -4 -45 -24 -55 -40 -20 -51 -8 -51 56 0 48 3 59 18 63 34 8 57 -17 57 -64z" style="fill: rgb(253, 243, 50);"/>
    <path d="M2850 1565 l0 -45 -39 0 c-53 0 -81 -25 -88 -77 -7 -51 10 -96 41 -112 12 -7 44 -11 72 -9 l49 3 3 143 c2 137 2 142 -18 142 -17 0 -20 -6 -20 -45z m-2 -149 l3 -56 -35 0 c-25 0 -38 6 -46 19 -27 52 7 119 52 102 20 -7 23 -16 26 -65z" style="fill: rgb(253, 243, 50);"/>
    <path d="M3414 1553 c4 -31 9 -59 11 -62 11 -11 23 17 30 67 7 52 7 52 -20 52 l-28 0 7 -57z" style="fill: rgb(253, 243, 50);"/>
    <path d="M3823 1599 c-9 -9 -4 -18 18 -36 38 -32 55 -21 27 18 -24 32 -29 34 -45 18z" style="fill: rgb(253, 243, 50);"/>
    <path d="M4402 1468 l3 -143 56 -3 c53 -3 58 -1 83 28 62 75 11 185 -79 168 -24 -5 -25 -3 -25 43 0 43 -3 49 -20 49 -20 0 -20 -5 -18 -142z m119 -9 c17 -33 3 -88 -26 -99 -42 -16 -55 -3 -55 54 0 61 3 66 41 66 19 0 32 -7 40 -21z" style="fill: rgb(253, 243, 50);"/>
    <path d="M5980 1561 c0 -46 -1 -48 -25 -43 -90 17 -141 -93 -79 -168 25 -29 30 -31 83 -28 l56 3 3 143 c2 137 2 142 -18 142 -17 0 -20 -6 -20 -49z m-19 -81 c15 -9 19 -22 19 -64 0 -59 -12 -72 -54 -56 -41 15 -50 76 -16 110 23 23 25 23 51 10z" style="fill: rgb(152, 87, 205);"/>
    <path d="M6550 1556 c0 -52 11 -78 25 -56 3 5 9 32 12 60 5 46 4 50 -16 50 -19 0 -21 -5 -21 -54z" style="fill: rgb(152, 87, 205);"/>
    <path d="M261 1577 c-35 -18 -46 -59 -27 -99 14 -28 14 -33 1 -48 -42 -46 2 -120 72 -120 68 0 110 83 63 125 -18 16 -18 20 -6 34 58 65 -23 149 -103 108z m74 -61 c0 -17 -7 -33 -18 -40 -15 -9 -22 -7 -37 12 -26 32 -11 65 28 60 22 -2 27 -8 27 -32z m15 -125 c0 -26 -24 -43 -57 -39 -22 2 -29 9 -31 29 -2 15 4 34 13 43 15 14 19 14 46 1 16 -9 29 -24 29 -34z" style="fill: rgb(253, 243, 50);"/>
    <path d="M471 1578 c-35 -19 -46 -60 -27 -100 14 -28 14 -33 1 -48 -42 -46 2 -120 72 -120 68 0 109 84 64 129 -17 17 -17 20 -3 34 20 20 20 73 0 93 -20 21 -78 27 -107 12z m74 -62 c0 -36 -26 -56 -49 -37 -16 14 -22 52 -9 65 4 4 19 6 33 4 20 -2 25 -8 25 -32z m15 -125 c0 -26 -24 -43 -57 -39 -22 2 -29 9 -31 29 -2 15 4 34 13 43 15 14 19 14 46 1 16 -9 29 -24 29 -34z" style="fill: rgb(253, 243, 50);"/>
    <path d="M680 1577 c-35 -18 -48 -61 -29 -95 13 -24 13 -30 -2 -60 -34 -65 17 -122 96 -108 61 12 83 70 45 119 -17 22 -18 26 -5 37 25 21 19 76 -11 99 -30 24 -58 26 -94 8z m75 -61 c0 -40 -27 -56 -54 -32 -12 11 -21 24 -21 31 0 20 24 36 50 33 20 -2 25 -8 25 -32z m1 -107 c25 -28 8 -54 -37 -54 -28 0 -35 4 -37 23 -2 13 -1 30 2 38 8 21 50 17 72 -7z" style="fill: rgb(253, 243, 50);"/>
    <path d="M1506 1569 c-29 -23 -36 -77 -12 -101 11 -12 11 -18 -5 -37 -40 -49 -12 -109 56 -118 31 -4 46 0 68 17 34 27 37 80 7 110 -11 11 -16 20 -11 20 5 0 14 14 21 30 31 74 -58 131 -124 79z m84 -34 c29 -35 -26 -85 -58 -53 -13 13 -16 50 -5 61 12 12 50 7 63 -8z m0 -121 c21 -24 8 -59 -23 -62 -50 -6 -74 33 -41 69 16 18 46 15 64 -7z" style="fill: rgb(253, 243, 50);"/>
    <path d="M1716 1569 c-20 -15 -26 -29 -26 -58 0 -20 5 -42 11 -48 8 -8 7 -17 -5 -34 -54 -77 52 -158 128 -98 30 23 35 72 12 104 -12 17 -12 23 0 47 20 38 18 55 -11 83 -30 31 -73 32 -109 4z m84 -38 c7 -15 5 -24 -8 -41 -16 -19 -22 -21 -40 -11 -21 11 -30 50 -15 64 13 14 53 6 63 -12z m-2 -114 c22 -17 14 -56 -13 -63 -51 -13 -78 19 -51 61 16 24 34 25 64 2z" style="fill: rgb(253, 243, 50);"/>
    <path d="M2966 1569 c-29 -23 -36 -77 -12 -101 11 -12 11 -18 -5 -37 -40 -49 -12 -109 56 -118 31 -4 46 0 68 17 34 27 37 80 7 110 -11 11 -16 20 -11 20 5 0 14 14 21 30 31 74 -58 131 -124 79z m84 -34 c29 -35 -26 -85 -58 -53 -13 13 -16 50 -5 61 12 12 50 7 63 -8z m0 -121 c21 -24 8 -59 -23 -62 -50 -6 -74 33 -41 69 16 18 46 15 64 -7z" style="fill: rgb(253, 243, 50);"/>
    <path d="M3176 1569 c-29 -23 -36 -77 -12 -101 11 -12 11 -18 -5 -37 -40 -49 -12 -109 56 -118 31 -4 46 0 68 17 34 27 37 80 7 110 -11 11 -16 20 -11 20 5 0 14 14 21 30 31 74 -58 131 -124 79z m84 -34 c29 -35 -26 -85 -58 -53 -13 13 -16 50 -5 61 12 12 50 7 63 -8z m0 -121 c21 -24 8 -59 -23 -62 -50 -6 -74 33 -41 69 16 18 46 15 64 -7z" style="fill: rgb(253, 243, 50);"/>
    <path d="M4020 1577 c-36 -18 -49 -61 -29 -96 14 -24 14 -30 3 -46 -19 -25 -18 -80 1 -99 52 -51 155 -18 155 50 0 12 -9 33 -20 47 -17 22 -18 26 -5 37 25 21 19 76 -11 99 -30 24 -58 26 -94 8z m75 -61 c0 -40 -27 -56 -54 -32 -12 11 -21 24 -21 31 0 20 24 36 50 33 20 -2 25 -8 25 -32z m-21 -88 c53 -24 39 -82 -18 -76 -26 2 -32 8 -34 31 -2 16 2 35 9 43 14 17 12 17 43 2z" style="fill: rgb(253, 243, 50);"/>
    <path d="M4215 1565 c-28 -28 -33 -76 -10 -95 14 -11 14 -15 -2 -32 -20 -22 -22 -80 -4 -102 18 -22 76 -31 111 -16 47 19 60 100 21 125 -8 4 -6 13 4 28 8 12 15 32 15 45 0 33 -43 72 -80 72 -19 0 -40 -9 -55 -25z m85 -30 c16 -19 -1 -65 -24 -65 -31 0 -60 53 -39 73 12 12 50 7 63 -8z m5 -128 c20 -29 3 -57 -35 -57 -40 0 -58 32 -36 65 18 27 49 24 71 -8z" style="fill: rgb(253, 243, 50);"/>
    <path d="M6113 1580 c-40 -17 -58 -85 -29 -109 13 -11 12 -17 -6 -47 -17 -29 -18 -39 -8 -63 27 -67 136 -67 159 1 11 30 2 70 -18 83 -8 4 -6 13 4 28 44 63 -28 138 -102 107z m73 -56 c4 -17 1 -31 -9 -42 -23 -22 -67 -2 -67 31 0 31 7 37 41 37 22 0 30 -6 35 -26z m-10 -109 c21 -21 23 -28 14 -46 -8 -15 -19 -19 -42 -17 -43 4 -56 29 -35 62 22 32 31 33 63 1z" style="fill: rgb(152, 87, 205);"/>
    <path d="M7363 1580 c-40 -17 -58 -85 -29 -109 13 -11 12 -17 -6 -47 -17 -29 -18 -39 -8 -63 27 -67 136 -67 159 1 11 30 2 70 -18 83 -8 4 -6 13 4 28 44 63 -28 138 -102 107z m73 -56 c4 -17 1 -31 -9 -42 -23 -22 -67 -2 -67 31 0 31 7 37 41 37 22 0 30 -6 35 -26z m-10 -109 c21 -21 23 -28 14 -46 -8 -15 -19 -19 -42 -17 -43 4 -56 29 -35 62 22 32 31 33 63 1z" style="fill: rgb(152, 87, 205);"/>
    <path d="M7573 1580 c-40 -17 -58 -85 -29 -109 13 -11 12 -17 -6 -47 -17 -29 -18 -39 -8 -63 27 -67 136 -67 159 1 11 30 2 70 -18 83 -8 4 -6 13 4 28 44 63 -28 138 -102 107z m73 -56 c4 -17 1 -31 -9 -42 -23 -22 -67 -2 -67 31 0 31 7 37 41 37 22 0 30 -6 35 -26z m-10 -109 c21 -21 23 -28 14 -46 -8 -15 -19 -19 -42 -17 -43 4 -56 29 -35 62 22 32 31 33 63 1z" style="fill: rgb(152, 87, 205);"/>
    <path d="M7767 1570 c-30 -24 -38 -78 -13 -102 11 -12 11 -18 -5 -37 -40 -49 -12 -109 56 -118 31 -4 46 0 68 17 33 26 37 80 9 108 -18 18 -18 19 0 42 20 25 18 64 -6 88 -24 25 -79 26 -109 2z m83 -35 c29 -35 -26 -85 -58 -53 -13 13 -16 50 -5 61 12 12 50 7 63 -8z m0 -121 c21 -24 8 -59 -23 -62 -50 -6 -74 33 -41 69 16 18 46 15 64 -7z" style="fill: rgb(152, 87, 205);"/>
    <path d="M857 1573 c-4 -3 -7 -62 -7 -130 l0 -123 25 0 c23 0 25 3 25 50 l0 50 34 0 c78 0 115 82 61 135 -20 20 -34 25 -78 25 -29 0 -57 -3 -60 -7z m115 -46 c21 -32 -11 -77 -54 -77 -15 0 -18 9 -18 51 l0 52 32 -7 c18 -3 36 -12 40 -19z" style="fill: rgb(253, 243, 50);"/>
    <path d="M1255 1558 c4 -13 22 -51 41 -86 24 -45 34 -76 34 -107 0 -38 3 -45 20 -45 17 0 20 7 20 45 0 33 11 67 40 125 22 44 40 82 40 85 0 3 -10 5 -22 5 -18 0 -27 -11 -44 -52 -12 -29 -26 -54 -31 -55 -6 -2 -21 21 -34 51 -19 44 -29 56 -47 56 -20 0 -22 -4 -17 -22z" style="fill: rgb(253, 243, 50);"/>
    <path d="M6280 1450 c0 -123 1 -130 20 -130 17 0 20 7 20 50 l0 50 38 0 c20 0 45 7 55 14 39 30 38 103 -1 132 -9 7 -43 14 -74 14 l-58 0 0 -130z m101 90 c12 -7 19 -21 19 -40 0 -31 -22 -50 -59 -50 -18 0 -21 6 -21 50 0 44 3 50 21 50 11 0 29 -5 40 -10z" style="fill: rgb(152, 87, 205);"/>
    <path d="M5704 1365 c-15 -38 29 -72 52 -40 9 13 10 23 3 36 -12 23 -47 25 -55 4z" style="fill: rgb(152, 87, 205);"/>
    <path d="M5560 1135 l0 -45 -38 0 c-51 0 -83 -33 -89 -94 -5 -40 -2 -48 26 -76 28 -28 36 -31 83 -28 l53 3 3 143 c2 137 2 142 -18 142 -17 0 -20 -6 -20 -45z m-9 -85 c16 0 11 -117 -5 -123 -27 -11 -55 5 -66 38 -17 51 10 101 48 89 8 -2 18 -4 23 -4z" style="fill: rgb(152, 87, 205);"/>
    <path d="M5920 1126 c0 -55 15 -81 31 -55 5 8 9 35 9 62 0 40 -3 47 -20 47 -18 0 -20 -7 -20 -54z" style="fill: rgb(152, 87, 205);"/>
    <path d="M263 1148 c-35 -17 -48 -61 -29 -99 14 -29 14 -34 1 -49 -42 -46 2 -120 72 -120 68 0 110 83 63 125 -18 16 -18 20 -6 34 57 64 -21 148 -101 109z m72 -62 c0 -17 -7 -33 -18 -40 -15 -9 -22 -7 -37 12 -26 32 -11 65 28 60 22 -2 27 -8 27 -32z m15 -125 c0 -26 -24 -43 -57 -39 -22 2 -29 9 -31 29 -2 15 4 34 13 43 15 14 19 14 46 1 16 -9 29 -24 29 -34z" style="fill: rgb(253, 243, 50);"/>
    <path d="M473 1148 c-35 -17 -48 -61 -29 -99 14 -29 14 -34 1 -49 -42 -46 2 -120 72 -120 68 0 110 83 63 125 -18 16 -18 20 -6 34 57 64 -21 148 -101 109z m72 -62 c0 -17 -7 -33 -18 -40 -15 -9 -22 -7 -37 12 -26 32 -11 65 28 60 22 -2 27 -8 27 -32z m15 -125 c0 -26 -24 -43 -57 -39 -22 2 -29 9 -31 29 -2 15 4 34 13 43 15 14 19 14 46 1 16 -9 29 -24 29 -34z" style="fill: rgb(253, 243, 50);"/>
    <path d="M680 1147 c-36 -18 -49 -61 -29 -96 14 -24 14 -30 3 -46 -19 -25 -18 -80 1 -99 52 -51 155 -18 155 50 0 12 -9 33 -20 47 -17 22 -18 26 -5 37 25 21 19 76 -11 99 -30 24 -58 26 -94 8z m75 -61 c0 -40 -27 -56 -54 -32 -12 11 -21 24 -21 31 0 20 24 36 50 33 20 -2 25 -8 25 -32z m-21 -88 c53 -24 39 -82 -18 -76 -26 2 -32 8 -34 31 -2 16 2 35 9 43 14 17 12 17 43 2z" style="fill: rgb(253, 243, 50);"/>
    <path d="M1506 1139 c-29 -23 -36 -77 -12 -101 11 -12 11 -18 -5 -37 -40 -49 -12 -109 56 -118 31 -4 46 0 68 17 34 27 37 80 7 110 -11 11 -16 20 -11 20 5 0 14 14 21 30 31 74 -58 131 -124 79z m84 -34 c29 -35 -26 -85 -58 -53 -13 13 -16 50 -5 61 12 12 50 7 63 -8z m0 -121 c21 -24 8 -59 -23 -62 -50 -6 -74 33 -41 69 16 18 46 15 64 -7z" style="fill: rgb(253, 243, 50);"/>
    <path d="M1716 1139 c-20 -15 -26 -29 -26 -58 0 -20 5 -42 11 -48 8 -8 7 -17 -5 -34 -54 -77 52 -158 128 -98 30 23 35 72 12 104 -12 17 -12 23 0 47 20 38 18 55 -11 83 -30 31 -73 32 -109 4z m84 -38 c7 -15 5 -24 -8 -41 -16 -19 -22 -21 -40 -11 -21 11 -30 50 -15 64 13 14 53 6 63 -12z m-2 -114 c22 -17 14 -56 -13 -63 -51 -13 -78 19 -51 61 16 24 34 25 64 2z" style="fill: rgb(253, 243, 50);"/>
    <path d="M1933 1148 c-35 -17 -48 -61 -29 -99 14 -29 14 -34 1 -49 -42 -46 2 -120 72 -120 68 0 110 83 63 125 -18 16 -18 20 -6 34 57 64 -21 148 -101 109z m72 -62 c0 -17 -7 -33 -18 -40 -15 -9 -22 -7 -37 12 -26 32 -11 65 28 60 22 -2 27 -8 27 -32z m15 -125 c0 -26 -24 -43 -57 -39 -22 2 -29 9 -31 29 -2 15 4 34 13 43 15 14 19 14 46 1 16 -9 29 -24 29 -34z" style="fill: rgb(253, 243, 50);"/>
    <path d="M2755 1135 c-28 -27 -33 -76 -10 -95 12 -10 11 -16 -7 -40 -15 -21 -19 -36 -13 -57 10 -39 22 -52 61 -59 70 -13 127 40 105 98 -5 14 -15 29 -20 33 -8 4 -6 13 4 28 8 12 15 32 15 45 0 33 -43 72 -80 72 -19 0 -40 -9 -55 -25z m85 -30 c16 -19 -1 -65 -24 -65 -31 0 -60 53 -39 73 12 12 50 7 63 -8z m0 -121 c7 -7 10 -23 8 -36 -2 -17 -11 -24 -33 -26 -47 -6 -64 34 -33 74 10 14 43 7 58 -12z" style="fill: rgb(253, 243, 50);"/>
    <path d="M2966 1139 c-29 -23 -36 -77 -12 -101 11 -12 11 -18 -5 -37 -40 -49 -12 -109 56 -118 31 -4 46 0 68 17 34 27 37 80 7 110 -11 11 -16 20 -11 20 5 0 14 14 21 30 31 74 -58 131 -124 79z m84 -34 c29 -35 -26 -85 -58 -53 -13 13 -16 50 -5 61 12 12 50 7 63 -8z m0 -121 c7 -7 10 -23 8 -36 -2 -19 -9 -23 -37 -23 -45 0 -61 24 -38 58 17 27 46 27 67 1z" style="fill: rgb(253, 243, 50);"/>
    <path d="M3176 1139 c-29 -23 -36 -77 -12 -101 11 -12 11 -18 -5 -37 -40 -49 -12 -109 56 -118 31 -4 46 0 68 17 34 27 37 80 7 110 -11 11 -16 20 -11 20 5 0 14 14 21 30 31 74 -58 131 -124 79z m84 -34 c29 -35 -26 -85 -58 -53 -13 13 -16 50 -5 61 12 12 50 7 63 -8z m0 -121 c7 -7 10 -23 8 -36 -2 -19 -9 -23 -37 -23 -45 0 -61 24 -38 58 17 27 46 27 67 1z" style="fill: rgb(253, 243, 50);"/>
    <path d="M4020 1147 c-35 -18 -48 -61 -29 -95 13 -24 13 -30 -2 -60 -34 -65 17 -122 96 -108 61 12 83 70 45 119 -17 22 -18 26 -5 37 25 21 19 76 -11 99 -30 24 -58 26 -94 8z m75 -61 c0 -40 -27 -56 -54 -32 -12 11 -21 24 -21 31 0 20 24 36 50 33 20 -2 25 -8 25 -32z m-8 -100 c23 -20 26 -28 17 -43 -7 -12 -23 -18 -45 -18 -30 0 -34 3 -37 28 -3 27 12 57 29 57 4 0 21 -11 36 -24z" style="fill: rgb(253, 243, 50);"/>
    <path d="M4215 1135 c-28 -27 -33 -76 -10 -95 12 -10 11 -16 -7 -40 -15 -21 -19 -36 -13 -57 10 -39 22 -52 61 -59 70 -13 127 40 105 98 -5 14 -15 29 -20 33 -8 4 -6 13 4 28 8 12 15 32 15 45 0 33 -43 72 -80 72 -19 0 -40 -9 -55 -25z m85 -30 c16 -19 -1 -65 -24 -65 -31 0 -60 53 -39 73 12 12 50 7 63 -8z m0 -121 c7 -7 10 -23 8 -36 -2 -17 -11 -24 -33 -26 -47 -6 -64 34 -33 74 10 14 43 7 58 -12z" style="fill: rgb(253, 243, 50);"/>
    <path d="M4425 1135 c-28 -27 -33 -76 -10 -95 12 -10 11 -16 -7 -40 -15 -21 -19 -36 -13 -57 10 -39 22 -52 61 -59 70 -13 127 40 105 98 -5 14 -15 29 -20 33 -8 4 -6 13 4 28 8 12 15 32 15 45 0 33 -43 72 -80 72 -19 0 -40 -9 -55 -25z m85 -30 c16 -19 -1 -65 -24 -65 -31 0 -60 53 -39 73 12 12 50 7 63 -8z m0 -121 c7 -7 10 -23 8 -36 -2 -17 -11 -24 -33 -26 -47 -6 -64 34 -33 74 10 14 43 7 58 -12z" style="fill: rgb(253, 243, 50);"/>
    <path d="M7363 1150 c-41 -17 -58 -85 -28 -110 13 -11 14 -15 1 -29 -62 -71 18 -161 108 -120 43 20 54 100 17 124 -8 4 -6 13 4 28 44 63 -28 138 -102 107z m73 -56 c4 -17 1 -31 -9 -42 -23 -22 -67 -2 -67 31 0 31 7 37 41 37 22 0 30 -6 35 -26z m-1 -117 c21 -31 2 -59 -37 -55 -42 4 -56 29 -35 61 19 29 49 27 72 -6z" style="fill: rgb(152, 87, 205);"/>
    <path d="M7573 1150 c-41 -17 -58 -85 -28 -110 13 -11 14 -15 1 -29 -62 -71 18 -161 108 -120 43 20 54 100 17 124 -8 4 -6 13 4 28 44 63 -28 138 -102 107z m73 -56 c4 -17 1 -31 -9 -42 -23 -22 -67 -2 -67 31 0 31 7 37 41 37 22 0 30 -6 35 -26z m-1 -117 c21 -31 2 -59 -37 -55 -42 4 -56 29 -35 61 19 29 49 27 72 -6z" style="fill: rgb(152, 87, 205);"/>
    <path d="M7766 1139 c-29 -23 -36 -77 -12 -101 11 -12 11 -18 -5 -37 -40 -49 -12 -109 56 -118 57 -7 95 24 95 78 0 27 -6 42 -19 51 -19 11 -19 12 1 39 51 69 -46 143 -116 88z m84 -34 c29 -35 -26 -85 -58 -53 -13 13 -16 50 -5 61 12 12 50 7 63 -8z m8 -153 c-2 -21 -9 -28 -31 -30 -51 -6 -74 33 -41 69 15 17 19 17 46 3 23 -12 29 -21 26 -42z" style="fill: rgb(152, 87, 205);"/>
    <path d="M5657 1143 c-4 -3 -7 -62 -7 -130 l0 -123 25 0 c23 0 25 3 25 50 l0 50 35 0 c46 0 85 37 85 80 0 51 -38 80 -103 80 -29 0 -57 -3 -60 -7z m107 -39 c32 -31 16 -70 -32 -80 l-32 -6 0 51 c0 47 2 51 24 51 14 0 32 -7 40 -16z" style="fill: rgb(152, 87, 205);"/>
    <path d="M5285 930 c-7 -23 10 -50 30 -50 20 0 37 27 30 50 -4 13 -15 20 -30 20 -15 0 -26 -7 -30 -20z" style="fill: rgb(152, 87, 205);"/>
    <path d="M263 718 c-35 -17 -48 -61 -29 -99 14 -29 14 -34 1 -49 -42 -46 2 -120 72 -120 68 0 110 83 63 125 -18 16 -18 20 -6 34 57 64 -21 148 -101 109z m72 -62 c0 -17 -7 -33 -18 -40 -15 -9 -22 -7 -37 12 -26 32 -11 65 28 60 22 -2 27 -8 27 -32z m15 -125 c0 -26 -24 -43 -57 -39 -22 2 -29 9 -31 29 -2 15 4 34 13 43 15 14 19 14 46 1 16 -9 29 -24 29 -34z" style="fill: rgb(253, 243, 50);"/>
    <path d="M473 718 c-35 -17 -48 -61 -29 -99 14 -29 14 -34 1 -49 -42 -46 2 -120 72 -120 68 0 110 83 63 125 -18 16 -18 20 -6 34 57 64 -21 148 -101 109z m72 -62 c0 -17 -7 -33 -18 -40 -15 -9 -22 -7 -37 12 -26 32 -11 65 28 60 22 -2 27 -8 27 -32z m15 -125 c0 -26 -24 -43 -57 -39 -22 2 -29 9 -31 29 -2 15 4 34 13 43 15 14 19 14 46 1 16 -9 29 -24 29 -34z" style="fill: rgb(253, 243, 50);"/>
    <path d="M680 717 c-36 -18 -49 -61 -29 -96 14 -24 14 -30 3 -46 -19 -25 -18 -80 1 -99 52 -51 155 -18 155 50 0 12 -9 33 -20 47 -17 22 -18 26 -5 37 25 21 19 76 -11 99 -30 24 -58 26 -94 8z m75 -61 c0 -40 -27 -56 -54 -32 -12 11 -21 24 -21 31 0 20 24 36 50 33 20 -2 25 -8 25 -32z m-21 -88 c53 -24 39 -82 -18 -76 -26 2 -32 8 -34 31 -2 16 2 35 9 43 14 17 12 17 43 2z" style="fill: rgb(253, 243, 50);"/>
    <path d="M1506 709 c-29 -23 -36 -77 -12 -101 11 -12 11 -18 -5 -37 -50 -62 19 -142 100 -116 53 16 70 86 31 125 -11 11 -16 20 -11 20 5 0 14 14 21 30 31 74 -58 131 -124 79z m84 -34 c29 -35 -26 -85 -58 -53 -13 13 -16 50 -5 61 12 12 50 7 63 -8z m0 -121 c21 -24 8 -59 -23 -62 -50 -6 -74 33 -41 69 16 18 46 15 64 -7z" style="fill: rgb(253, 243, 50);"/>
    <path d="M1716 709 c-20 -15 -26 -29 -26 -58 0 -20 5 -42 11 -48 8 -8 7 -17 -5 -34 -54 -77 52 -158 128 -98 30 23 35 72 12 104 -12 17 -12 23 0 47 20 38 18 55 -11 83 -30 31 -73 32 -109 4z m84 -38 c7 -15 5 -24 -8 -41 -16 -19 -22 -21 -40 -11 -21 11 -30 50 -15 64 13 14 53 6 63 -12z m-2 -114 c22 -17 14 -56 -13 -63 -51 -13 -78 19 -51 61 16 24 34 25 64 2z" style="fill: rgb(253, 243, 50);"/>
    <path d="M1933 718 c-35 -17 -48 -61 -29 -99 14 -29 14 -34 1 -49 -42 -46 2 -120 72 -120 68 0 110 83 63 125 -18 16 -18 20 -6 34 57 64 -21 148 -101 109z m72 -62 c0 -17 -7 -33 -18 -40 -15 -9 -22 -7 -37 12 -26 32 -11 65 28 60 22 -2 27 -8 27 -32z m15 -125 c0 -26 -24 -43 -57 -39 -22 2 -29 9 -31 29 -2 15 4 34 13 43 15 14 19 14 46 1 16 -9 29 -24 29 -34z" style="fill: rgb(253, 243, 50);"/>
    <path d="M2755 705 c-28 -28 -33 -76 -10 -95 14 -11 14 -15 -2 -32 -20 -22 -22 -80 -4 -102 18 -22 76 -31 111 -16 47 19 60 100 21 125 -8 4 -6 13 4 28 8 12 15 32 15 45 0 33 -43 72 -80 72 -19 0 -40 -9 -55 -25z m85 -30 c16 -19 -1 -65 -24 -65 -31 0 -60 53 -39 73 12 12 50 7 63 -8z m5 -128 c20 -29 3 -57 -35 -57 -40 0 -58 32 -36 65 18 27 49 24 71 -8z" style="fill: rgb(253, 243, 50);"/>
    <path d="M2966 709 c-29 -23 -36 -77 -12 -101 11 -12 11 -18 -5 -37 -40 -49 -12 -109 56 -118 31 -4 46 0 68 17 34 27 37 80 7 110 -11 11 -16 20 -11 20 5 0 14 14 21 30 31 74 -58 131 -124 79z m84 -34 c29 -35 -26 -85 -58 -53 -13 13 -16 50 -5 61 12 12 50 7 63 -8z m0 -121 c21 -24 8 -59 -23 -62 -50 -6 -74 33 -41 69 16 18 46 15 64 -7z" style="fill: rgb(253, 243, 50);"/>
    <path d="M3176 709 c-29 -23 -36 -77 -12 -101 11 -12 11 -18 -5 -37 -40 -49 -12 -109 56 -118 31 -4 46 0 68 17 34 27 37 80 7 110 -11 11 -16 20 -11 20 5 0 14 14 21 30 31 74 -58 131 -124 79z m84 -34 c29 -35 -26 -85 -58 -53 -13 13 -16 50 -5 61 12 12 50 7 63 -8z m0 -121 c21 -24 8 -59 -23 -62 -50 -6 -74 33 -41 69 16 18 46 15 64 -7z" style="fill: rgb(253, 243, 50);"/>
    <path d="M4020 717 c-36 -18 -49 -61 -29 -96 14 -24 14 -30 3 -46 -19 -25 -18 -80 1 -99 52 -51 155 -18 155 50 0 12 -9 33 -20 47 -17 22 -18 26 -5 37 25 21 19 76 -11 99 -30 24 -58 26 -94 8z m75 -61 c0 -40 -27 -56 -54 -32 -12 11 -21 24 -21 31 0 20 24 36 50 33 20 -2 25 -8 25 -32z m-21 -88 c53 -24 39 -82 -18 -76 -26 2 -32 8 -34 31 -2 16 2 35 9 43 14 17 12 17 43 2z" style="fill: rgb(253, 243, 50);"/>
    <path d="M4215 705 c-28 -28 -33 -76 -10 -95 14 -11 14 -15 -2 -32 -20 -22 -22 -80 -4 -102 18 -22 76 -31 111 -16 47 19 60 100 21 125 -8 4 -6 13 4 28 8 12 15 32 15 45 0 33 -43 72 -80 72 -19 0 -40 -9 -55 -25z m85 -30 c16 -19 -1 -65 -24 -65 -31 0 -60 53 -39 73 12 12 50 7 63 -8z m5 -128 c20 -29 3 -57 -35 -57 -40 0 -58 32 -36 65 18 27 49 24 71 -8z" style="fill: rgb(253, 243, 50);"/>
    <path d="M4425 705 c-28 -28 -33 -76 -10 -95 14 -11 14 -15 -2 -32 -20 -22 -22 -80 -4 -102 18 -22 76 -31 111 -16 47 19 60 100 21 125 -8 4 -6 13 4 28 8 12 15 32 15 45 0 33 -43 72 -80 72 -19 0 -40 -9 -55 -25z m85 -30 c16 -19 -1 -65 -24 -65 -31 0 -60 53 -39 73 12 12 50 7 63 -8z m5 -128 c20 -29 3 -57 -35 -57 -40 0 -58 32 -36 65 18 27 49 24 71 -8z" style="fill: rgb(253, 243, 50);"/>
    <path d="M7363 720 c-40 -17 -58 -85 -29 -109 13 -11 12 -17 -6 -47 -17 -29 -18 -39 -8 -63 27 -67 136 -67 159 1 11 30 2 70 -18 83 -8 4 -6 13 4 28 44 63 -28 138 -102 107z m73 -56 c4 -17 1 -31 -9 -42 -23 -22 -67 -2 -67 31 0 31 7 37 41 37 22 0 30 -6 35 -26z m-10 -109 c21 -21 23 -28 14 -46 -8 -15 -19 -19 -42 -17 -43 4 -56 29 -35 62 22 32 31 33 63 1z" style="fill: rgb(152, 87, 205);"/>
    <path d="M7573 720 c-40 -17 -58 -85 -29 -109 13 -11 12 -17 -6 -47 -17 -29 -18 -39 -8 -63 27 -67 136 -67 159 1 11 30 2 70 -18 83 -8 4 -6 13 4 28 44 63 -28 138 -102 107z m73 -56 c4 -17 1 -31 -9 -42 -23 -22 -67 -2 -67 31 0 31 7 37 41 37 22 0 30 -6 35 -26z m-10 -109 c21 -21 23 -28 14 -46 -8 -15 -19 -19 -42 -17 -43 4 -56 29 -35 62 22 32 31 33 63 1z" style="fill: rgb(152, 87, 205);"/>
    <path d="M7767 710 c-30 -24 -38 -78 -13 -102 11 -12 11 -18 -5 -37 -40 -49 -12 -109 56 -118 31 -4 46 0 68 17 33 26 37 80 9 108 -18 18 -18 19 0 42 20 25 18 64 -6 88 -24 25 -79 26 -109 2z m83 -35 c29 -35 -26 -85 -58 -53 -13 13 -16 50 -5 61 12 12 50 7 63 -8z m0 -121 c21 -24 8 -59 -23 -62 -50 -6 -74 33 -41 69 16 18 46 15 64 -7z" style="fill: rgb(152, 87, 205);"/>
    <path d="M5240 590 c0 -123 1 -130 20 -130 17 0 20 7 20 50 l0 50 34 0 c51 0 86 33 86 80 0 54 -34 80 -106 80 l-54 0 0 -130z m101 90 c12 -7 19 -21 19 -40 0 -31 -22 -50 -59 -50 -18 0 -21 6 -21 50 0 44 3 50 21 50 11 0 29 -5 40 -10z" style="fill: rgb(152, 87, 205);"/>
    <path d="M5053 645 c-50 -35 -50 -135 0 -170 33 -23 84 -19 112 10 20 19 25 34 25 75 0 41 -5 56 -25 75 -28 29 -79 33 -112 10z m75 -31 c30 -21 31 -87 1 -108 -22 -15 -48 -11 -61 8 -14 20 -8 84 8 100 19 20 24 20 52 0z" style="fill: rgb(152, 87, 205);"/>
    <path d="M6723 645 c-32 -23 -47 -77 -33 -120 22 -67 98 -88 145 -40 20 19 25 34 25 75 0 41 -5 56 -25 75 -28 29 -79 33 -112 10z m75 -31 c30 -21 31 -87 1 -108 -22 -15 -48 -11 -61 8 -14 20 -8 84 8 100 19 20 24 20 52 0z" style="fill: rgb(152, 87, 205);"/>
    <path d="M4871 506 c-9 -11 -10 -20 -1 -36 13 -24 38 -23 53 1 23 37 -25 68 -52 35z" style="fill: rgb(152, 87, 205);"/>
    <path d="M6541 506 c-9 -11 -10 -20 -1 -36 13 -24 38 -23 53 1 23 37 -25 68 -52 35z" style="fill: rgb(152, 87, 205);"/>
    <path d="M2774 309 c-10 -17 41 -63 61 -55 15 5 14 9 -7 35 -24 32 -42 38 -54 20z" style="fill: rgb(253, 243, 50);"/>
    <path d="M3360 175 l0 -145 53 0 c63 0 93 18 106 65 20 72 -18 135 -81 135 l-38 0 0 45 c0 38 -3 45 -20 45 -19 0 -20 -7 -20 -145z m115 -46 c0 -36 -4 -45 -24 -55 -40 -20 -51 -8 -51 56 0 48 3 59 18 63 34 8 57 -17 57 -64z" style="fill: rgb(253, 243, 50);"/>
    <path d="M3890 275 l0 -45 -40 0 c-65 0 -100 -50 -86 -125 10 -51 48 -77 110 -73 l51 3 3 143 c2 137 2 142 -18 142 -17 0 -20 -6 -20 -45z m0 -146 c0 -59 0 -59 -30 -59 -39 0 -64 37 -55 80 7 33 36 51 67 42 15 -3 18 -15 18 -63z" style="fill: rgb(253, 243, 50);"/>
    <path d="M4460 266 c0 -55 15 -81 31 -55 5 8 9 35 9 62 0 40 -3 47 -20 47 -18 0 -20 -7 -20 -54z" style="fill: rgb(253, 243, 50);"/>
    <path d="M263 288 c-35 -17 -48 -61 -29 -99 14 -29 14 -34 1 -49 -42 -46 2 -120 72 -120 68 0 110 83 63 125 -18 16 -18 20 -6 34 57 64 -21 148 -101 109z m72 -62 c0 -17 -7 -33 -18 -40 -15 -9 -22 -7 -37 12 -26 32 -11 65 28 60 22 -2 27 -8 27 -32z m15 -125 c0 -26 -24 -43 -57 -39 -22 2 -29 9 -31 29 -2 15 4 34 13 43 15 14 19 14 46 1 16 -9 29 -24 29 -34z" style="fill: rgb(253, 243, 50);"/>
    <path d="M473 288 c-35 -17 -48 -61 -29 -99 14 -29 14 -34 1 -49 -42 -46 2 -120 72 -120 68 0 110 83 63 125 -18 16 -18 20 -6 34 57 64 -21 148 -101 109z m72 -62 c0 -17 -7 -33 -18 -40 -15 -9 -22 -7 -37 12 -26 32 -11 65 28 60 22 -2 27 -8 27 -32z m15 -125 c0 -26 -24 -43 -57 -39 -22 2 -29 9 -31 29 -2 15 4 34 13 43 15 14 19 14 46 1 16 -9 29 -24 29 -34z" style="fill: rgb(253, 243, 50);"/>
    <path d="M680 287 c-36 -18 -49 -61 -29 -96 14 -24 14 -30 3 -46 -19 -25 -18 -80 1 -99 52 -51 155 -18 155 50 0 12 -9 33 -20 47 -17 22 -18 26 -5 37 25 21 19 76 -11 99 -30 24 -58 26 -94 8z m75 -61 c0 -40 -27 -56 -54 -32 -12 11 -21 24 -21 31 0 20 24 36 50 33 20 -2 25 -8 25 -32z m-21 -88 c53 -24 39 -82 -18 -76 -26 2 -32 8 -34 31 -2 16 2 35 9 43 14 17 12 17 43 2z" style="fill: rgb(253, 243, 50);"/>
    <path d="M1507 280 c-30 -24 -38 -78 -13 -102 11 -12 11 -18 -5 -37 -11 -13 -19 -33 -19 -45 0 -68 103 -101 155 -50 20 20 19 88 0 104 -14 12 -14 15 0 36 31 48 6 101 -55 110 -27 4 -42 1 -63 -16z m83 -35 c29 -35 -26 -85 -58 -53 -13 13 -16 50 -5 61 12 12 50 7 63 -8z m0 -121 c21 -24 8 -59 -23 -62 -50 -6 -74 33 -41 69 16 18 46 15 64 -7z" style="fill: rgb(253, 243, 50);"/>
    <path d="M1716 279 c-20 -15 -26 -29 -26 -58 0 -20 5 -42 11 -48 8 -8 7 -17 -5 -34 -54 -77 52 -158 128 -98 30 23 35 72 12 104 -12 17 -12 23 0 47 20 38 18 55 -11 83 -30 31 -73 32 -109 4z m84 -38 c7 -15 5 -24 -8 -41 -16 -19 -22 -21 -40 -11 -21 11 -30 50 -15 64 13 14 53 6 63 -12z m-2 -114 c22 -17 14 -56 -13 -63 -51 -13 -78 19 -51 61 16 24 34 25 64 2z" style="fill: rgb(253, 243, 50);"/>
    <path d="M1933 288 c-35 -17 -48 -61 -29 -99 14 -29 14 -34 1 -49 -42 -46 2 -120 72 -120 68 0 110 83 63 125 -18 16 -18 20 -6 34 57 64 -21 148 -101 109z m72 -62 c0 -17 -7 -33 -18 -40 -15 -9 -22 -7 -37 12 -26 32 -11 65 28 60 22 -2 27 -8 27 -32z m15 -125 c0 -26 -24 -43 -57 -39 -22 2 -29 9 -31 29 -2 15 4 34 13 43 15 14 19 14 46 1 16 -9 29 -24 29 -34z" style="fill: rgb(253, 243, 50);"/>
    <path d="M3176 279 c-29 -23 -36 -77 -12 -101 11 -12 11 -18 -5 -37 -40 -49 -12 -109 56 -118 31 -4 46 0 68 17 34 27 37 80 7 110 -11 11 -16 20 -12 20 10 0 32 45 32 66 0 8 -11 26 -25 39 -30 31 -73 32 -109 4z m84 -34 c29 -35 -26 -85 -58 -53 -13 13 -16 50 -5 61 12 12 50 7 63 -8z m0 -121 c21 -24 8 -59 -23 -62 -50 -6 -74 33 -41 69 16 18 46 15 64 -7z" style="fill: rgb(253, 243, 50);"/>
    <path d="M4005 275 c-28 -27 -32 -61 -11 -91 12 -17 12 -22 0 -39 -18 -25 -18 -80 1 -99 52 -51 155 -18 155 50 0 12 -9 33 -20 47 -17 22 -18 26 -5 37 16 13 20 67 7 86 -26 39 -93 44 -127 9z m90 -49 c0 -40 -27 -56 -54 -32 -12 11 -21 24 -21 31 0 20 24 36 50 33 20 -2 25 -8 25 -32z m-21 -88 c53 -24 39 -82 -18 -76 -26 2 -32 8 -34 31 -2 16 2 35 9 43 14 17 12 17 43 2z" style="fill: rgb(253, 243, 50);"/>
    <path d="M4855 288 c-11 -6 -23 -16 -27 -22 -13 -18 -9 -74 6 -88 11 -12 11 -18 -5 -37 -40 -49 -12 -109 56 -118 31 -4 46 0 68 17 33 26 37 80 9 108 -18 18 -18 19 0 42 25 30 23 56 -7 85 -26 27 -67 32 -100 13z m75 -43 c29 -35 -26 -85 -58 -53 -13 13 -16 50 -5 61 12 12 50 7 63 -8z m0 -121 c21 -24 8 -59 -23 -62 -50 -6 -74 33 -41 69 16 18 46 15 64 -7z" style="fill: rgb(152, 87, 205);"/>
    <path d="M5061 288 c-35 -19 -46 -60 -27 -100 14 -28 14 -33 1 -48 -22 -24 -19 -73 6 -96 32 -29 105 -26 130 5 25 30 24 69 -1 96 -18 20 -19 23 -5 35 19 16 20 84 1 99 -22 18 -78 23 -105 9z m74 -62 c0 -17 -7 -33 -18 -40 -15 -9 -22 -7 -37 12 -26 32 -11 65 28 60 22 -2 27 -8 27 -32z m6 -102 c6 -8 8 -25 5 -39 -6 -23 -11 -26 -44 -23 -32 3 -37 7 -40 29 -6 49 47 71 79 33z" style="fill: rgb(152, 87, 205);"/>
    <path d="M5271 288 c-35 -19 -46 -60 -27 -100 14 -28 14 -33 1 -48 -22 -24 -19 -73 6 -96 32 -29 105 -26 130 5 25 30 24 69 -1 96 -18 20 -19 23 -5 35 19 16 20 84 1 99 -22 18 -78 23 -105 9z m74 -62 c0 -17 -7 -33 -18 -40 -15 -9 -22 -7 -37 12 -26 32 -11 65 28 60 22 -2 27 -8 27 -32z m6 -102 c6 -8 8 -25 5 -39 -6 -23 -11 -26 -44 -23 -32 3 -37 7 -40 29 -6 49 47 71 79 33z" style="fill: rgb(152, 87, 205);"/>
    <path d="M5465 275 c-29 -28 -32 -61 -9 -93 15 -21 15 -25 0 -41 -46 -51 4 -128 77 -118 47 6 64 20 72 59 5 22 2 37 -13 57 -17 24 -18 29 -6 46 15 20 18 63 6 81 -26 39 -93 44 -127 9z m79 -21 c20 -8 21 -48 1 -64 -32 -27 -82 23 -55 55 13 16 29 19 54 9z m-10 -116 c53 -24 39 -82 -18 -76 -26 2 -32 8 -34 31 -2 16 2 35 9 43 14 17 12 17 43 2z" style="fill: rgb(152, 87, 205);"/>
    <path d="M5675 275 c-29 -28 -32 -61 -9 -93 15 -21 15 -25 0 -41 -46 -51 4 -128 77 -118 47 6 64 20 72 59 5 22 2 37 -13 57 -17 24 -18 29 -6 46 15 20 18 63 6 81 -26 39 -93 44 -127 9z m79 -21 c20 -8 21 -48 1 -64 -32 -27 -82 23 -55 55 13 16 29 19 54 9z m-10 -116 c53 -24 39 -82 -18 -76 -26 2 -32 8 -34 31 -2 16 2 35 9 43 14 17 12 17 43 2z" style="fill: rgb(152, 87, 205);"/>
    <path d="M5886 279 c-29 -23 -36 -78 -12 -98 13 -11 12 -17 -6 -47 -17 -29 -18 -39 -8 -63 27 -67 136 -67 159 1 11 30 2 70 -18 83 -8 4 -6 13 4 28 35 50 -2 117 -65 117 -15 0 -39 -9 -54 -21z m82 -31 c17 -17 15 -43 -3 -58 -23 -19 -65 3 -65 34 0 34 43 49 68 24z m-2 -123 c21 -21 23 -28 14 -46 -8 -15 -19 -19 -42 -17 -43 4 -56 29 -35 62 22 32 31 33 63 1z" style="fill: rgb(152, 87, 205);"/>
    <path d="M6096 279 c-29 -23 -36 -78 -12 -98 13 -11 12 -17 -6 -47 -17 -29 -18 -39 -8 -63 27 -67 136 -67 159 1 11 30 2 70 -18 83 -8 4 -6 13 4 28 35 50 -2 117 -65 117 -15 0 -39 -9 -54 -21z m82 -31 c17 -17 15 -43 -3 -58 -23 -19 -65 3 -65 34 0 34 43 49 68 24z m-2 -123 c21 -21 23 -28 14 -46 -8 -15 -19 -19 -42 -17 -43 4 -56 29 -35 62 22 32 31 33 63 1z" style="fill: rgb(152, 87, 205);"/>
    <path d="M6315 288 c-11 -6 -23 -16 -27 -22 -13 -18 -9 -74 6 -88 11 -12 11 -18 -5 -37 -40 -49 -12 -109 56 -118 31 -4 46 0 68 17 33 26 37 80 9 108 -18 18 -18 19 0 42 25 30 23 56 -7 85 -26 27 -67 32 -100 13z m75 -43 c29 -35 -26 -85 -58 -53 -13 13 -16 50 -5 61 12 12 50 7 63 -8z m0 -121 c21 -24 8 -59 -23 -62 -50 -6 -74 33 -41 69 16 18 46 15 64 -7z" style="fill: rgb(152, 87, 205);"/>
    <path d="M6525 288 c-11 -6 -23 -16 -27 -22 -13 -18 -9 -74 6 -88 11 -12 11 -18 -5 -37 -40 -49 -12 -109 56 -118 31 -4 46 0 68 17 33 26 37 80 9 108 -18 18 -18 19 0 42 25 30 23 56 -7 85 -26 27 -67 32 -100 13z m75 -43 c29 -35 -26 -85 -58 -53 -13 13 -16 50 -5 61 12 12 50 7 63 -8z m0 -121 c21 -24 8 -59 -23 -62 -50 -6 -74 33 -41 69 16 18 46 15 64 -7z" style="fill: rgb(152, 87, 205);"/>
    <path d="M6731 288 c-35 -19 -46 -60 -27 -100 14 -28 14 -33 1 -48 -22 -24 -19 -73 6 -96 32 -29 105 -26 130 5 25 30 24 69 -1 96 -18 20 -19 23 -5 35 19 16 20 84 1 99 -22 18 -78 23 -105 9z m74 -62 c0 -17 -7 -33 -18 -40 -15 -9 -22 -7 -37 12 -26 32 -11 65 28 60 22 -2 27 -8 27 -32z m6 -102 c6 -8 8 -25 5 -39 -6 -23 -11 -26 -44 -23 -32 3 -37 7 -40 29 -6 49 47 71 79 33z" style="fill: rgb(152, 87, 205);"/>
    <path d="M7346 279 c-29 -23 -36 -78 -12 -98 13 -11 12 -17 -5 -46 -25 -42 -17 -80 22 -100 53 -28 111 -11 128 37 11 30 2 70 -18 83 -8 4 -6 13 4 28 35 50 -2 117 -65 117 -15 0 -39 -9 -54 -21z m82 -31 c17 -17 15 -43 -3 -58 -23 -19 -65 3 -65 34 0 34 43 49 68 24z m-2 -123 c21 -21 23 -28 14 -46 -8 -15 -19 -19 -42 -17 -43 4 -56 29 -35 62 22 32 31 33 63 1z" style="fill: rgb(152, 87, 205);"/>
    <path d="M7556 279 c-29 -23 -36 -78 -12 -98 13 -11 12 -17 -6 -47 -17 -29 -18 -39 -8 -63 27 -67 136 -67 159 1 11 30 2 70 -18 83 -8 4 -6 13 4 28 35 50 -2 117 -65 117 -15 0 -39 -9 -54 -21z m82 -31 c17 -17 15 -43 -3 -58 -23 -19 -65 3 -65 34 0 34 43 49 68 24z m-2 -123 c21 -21 23 -28 14 -46 -8 -15 -19 -19 -42 -17 -43 4 -56 29 -35 62 22 32 31 33 63 1z" style="fill: rgb(152, 87, 205);"/>
    <path d="M7775 288 c-11 -6 -23 -16 -27 -22 -13 -18 -9 -74 6 -88 11 -12 11 -18 -5 -37 -40 -49 -12 -109 56 -118 31 -4 46 0 68 17 33 26 37 80 9 108 -18 18 -18 19 0 42 25 30 23 56 -7 85 -26 27 -67 32 -100 13z m75 -43 c29 -35 -26 -85 -58 -53 -13 13 -16 50 -5 61 12 12 50 7 63 -8z m0 -121 c21 -24 8 -59 -23 -62 -50 -6 -74 33 -41 69 16 18 46 15 64 -7z" style="fill: rgb(152, 87, 205);"/>
    <path d="M2920 278 c0 -7 18 -46 40 -86 30 -54 40 -85 40 -118 0 -37 3 -44 20 -44 17 0 20 7 20 51 0 35 7 63 24 92 14 23 32 59 41 80 15 36 15 37 -8 37 -18 0 -28 -12 -51 -62 l-28 -63 -30 63 c-21 44 -35 62 -49 62 -10 0 -19 -6 -19 -12z" style="fill: rgb(253, 243, 50);"/>
    <path d="M4190 160 c0 -123 1 -130 20 -130 17 0 20 7 20 50 l0 50 39 0 c50 0 80 25 87 72 5 30 2 41 -19 62 -22 22 -35 26 -87 26 l-60 0 0 -130z m110 80 c11 -11 20 -24 20 -30 0 -19 -40 -50 -65 -50 -23 0 -25 3 -25 50 0 47 2 50 25 50 14 0 34 -9 45 -20z" style="fill: rgb(253, 243, 50);"/>
    <path d="M35 205 c-20 -19 -25 -34 -25 -75 0 -66 30 -100 88 -100 56 0 87 36 87 102 0 42 -4 53 -28 74 -38 32 -90 32 -122 -1z m97 -29 c9 -13 10 -68 2 -90 -7 -19 -55 -21 -72 -4 -21 21 -15 85 9 102 22 15 48 11 61 -8z" style="fill: rgb(253, 243, 50);"/>
    <path d="M869 204 c-19 -20 -24 -37 -24 -74 0 -64 31 -100 87 -100 56 0 88 37 88 100 0 36 -6 53 -25 74 -33 36 -92 36 -126 0z m107 -51 c11 -44 -7 -78 -44 -81 -27 -3 -34 1 -42 24 -15 38 -3 84 23 93 29 11 55 -4 63 -36z" style="fill: rgb(253, 243, 50);"/>
    <path d="M1302 223 c-19 -7 -42 -58 -42 -93 0 -37 23 -85 45 -94 41 -16 83 -6 109 25 55 65 16 170 -62 168 -21 0 -43 -3 -50 -6z m91 -69 c13 -46 -6 -84 -42 -84 -50 0 -70 71 -31 110 26 26 62 13 73 -26z" style="fill: rgb(253, 243, 50);"/>
    <path d="M2119 204 c-19 -20 -24 -37 -24 -74 0 -64 31 -100 87 -100 56 0 88 37 88 100 0 36 -6 53 -25 74 -33 36 -92 36 -126 0z m107 -51 c11 -44 -7 -78 -44 -81 -27 -3 -34 1 -42 24 -15 38 -3 84 23 93 29 11 55 -4 63 -36z" style="fill: rgb(253, 243, 50);"/>
    <path d="M3593 215 c-32 -23 -47 -77 -33 -120 14 -42 44 -65 85 -65 42 0 72 24 84 65 12 45 -2 99 -32 120 -27 19 -76 19 -104 0z m95 -79 c4 -43 -11 -66 -42 -66 -32 0 -46 19 -46 61 0 81 81 84 88 5z" style="fill: rgb(253, 243, 50);"/>
    <path d="M7133 206 c-24 -21 -28 -32 -28 -74 0 -65 31 -102 84 -102 57 1 91 39 91 100 0 88 -83 131 -147 76z m87 -26 c41 -41 10 -126 -40 -113 -42 11 -50 100 -12 123 24 13 30 12 52 -10z" style="fill: rgb(152, 87, 205);"/>
    <path d="M7965 205 c-35 -34 -35 -111 0 -149 63 -68 174 5 151 100 -18 70 -103 98 -151 49z m82 -13 c38 -24 33 -115 -7 -125 -54 -14 -86 84 -38 117 25 18 28 19 45 8z" style="fill: rgb(152, 87, 205);"/>
  </g>
<script xmlns=""/></svg>