<?xml version="1.0" encoding="UTF-8"?>
<svg clip-rule="evenodd" fill-rule="evenodd" stroke-linejoin="round" stroke-miterlimit="2" viewBox="0 0 32 32" xmlns="http://www.w3.org/2000/svg">
 <clipPath id="a">
  <path d="m0 0h32v32h-32z" clip-rule="evenodd"/>
 </clipPath>
 <clipPath id="b">
  <path d="m27 14s0.698-2.442 1.269-4.441c0.485-1.698 0.731-3.455 0.731-5.22v-1.68c0-0.364-0.295-0.659-0.659-0.659h-1e-3c-1.842 0-3.635 0.603-5.102 1.718-2.666 2.024-6.738 5.115-6.738 5.115z" clip-rule="evenodd"/>
 </clipPath>
 <clipPath id="c">
  <path d="m5 14s-0.698-2.442-1.269-4.441c-0.485-1.698-0.731-3.455-0.731-5.22v-1.68c0-0.364 0.295-0.659 0.659-0.659h1e-3c1.842 0 3.635 0.603 5.102 1.718 2.666 2.024 6.738 5.115 6.738 5.115z" clip-rule="evenodd"/>
 </clipPath>
 <path d="m0 0h32v32h-32z" fill="none"/>
 <g clip-path="url(#a)">
  <path d="m19.491 4.051 2.537-1.926c1.816-1.379 4.033-2.125 6.312-2.125h1e-3c1.469 0 2.659 1.19 2.659 2.659v1.68c0 1.951-0.272 3.893-0.808 5.769l-0.719 2.516c1.962 5.118 0.761 10.971-3.175 14.906l-1.248 1.248c-2.063 2.063-4.861 3.222-7.778 3.222h-2.544c-2.917 0-5.715-1.159-7.778-3.222l-1.248-1.248c-3.936-3.935-5.137-9.788-3.175-14.906l-0.719-2.516c-0.536-1.876-0.808-3.818-0.808-5.769v-1.68c0-1.469 1.19-2.659 2.659-2.659h1e-3c2.279 0 4.496 0.746 6.312 2.125l2.537 1.926c0.348-0.034 0.699-0.051 1.053-0.051h4.876c0.354 0 0.705 0.017 1.053 0.051z"/>
  <path d="m27 14s0.698-2.442 1.269-4.441c0.485-1.698 0.731-3.455 0.731-5.22v-1.68c0-0.364-0.295-0.659-0.659-0.659h-1e-3c-1.842 0-3.635 0.603-5.102 1.718-2.666 2.024-6.738 5.115-6.738 5.115z" fill="#F59C32"/>
  <g clip-path="url(#b)">
   <path d="m21 8s1.18-1.18 2.258-2.258c1.149-1.149 2.52-2.053 4.029-2.657 1.317-.527 2.713-1.085 2.713-1.085v12h-9z" fill="#FFB466"/>
  </g>
  <path d="m5 14s-0.698-2.442-1.269-4.441c-0.485-1.698-0.731-3.455-0.731-5.22v-1.68c0-0.364 0.295-0.659 0.659-0.659h1e-3c1.842 0 3.635 0.603 5.102 1.718 2.666 2.024 6.738 5.115 6.738 5.115z" fill="#F59C32"/>
  <g clip-path="url(#c)">
   <path d="m11 8s-1.18-1.18-2.258-2.258c-1.149-1.149-2.52-2.053-4.029-2.657-1.317-.527-2.713-1.085-2.713-1.085v12h9z" fill="#FFB466"/>
  </g>
  <path d="m13.562 6c-3.409 0-6.525 1.926-8.05 4.975-0.21 0.421-0.426 0.853-0.644 1.289-2.31 4.62-1.404 10.2 2.248 13.852l1.248 1.248c1.688 1.688 3.977 2.636 6.364 2.636h2.544c2.387 0 4.676-0.948 6.364-2.636l1.248-1.248c3.652-3.652 4.558-9.232 2.248-13.852-0.218-0.436-0.434-0.868-0.644-1.289-1.525-3.049-4.641-4.975-8.05-4.975h-4.876z" fill="#F59C32"/>
  <path d="m9.502 19c0.928 0 1.817-0.369 2.473-1.025s1.025-1.545 1.025-2.473v-1.16c0-1.933-1.567-3.5-3.5-3.5h-2e-3c-0.928 0-1.817 0.369-2.473 1.025s-1.025 1.546-1.025 2.473v1.16c0 1.933 1.567 3.5 3.5 3.5z" fill="#fbe844"/>
  <path d="m9 12.841c0-.264.105-.519.293-.706.187-.187.441-.293.706-.293h.002c.265 0 .519.106.706.293.188.187.293.442.293.706v4.16c0 .265-.105.519-.293.706-.187.188-.441.293-.706.293-.001 0-.001 0-.002 0-.265 0-.519-.105-.706-.293-.188-.187-.293-.441-.293-.706 0-1.146 0-3.014 0-4.16z"/>
  <path d="m22.498 19c-0.928 0-1.817-0.369-2.473-1.025s-1.025-1.545-1.025-2.473v-1.16c0-1.933 1.567-3.5 3.5-3.5h2e-3c0.928 0 1.817 0.369 2.473 1.025s1.025 1.546 1.025 2.473v1.16c0 1.933-1.567 3.5-3.5 3.5z" fill="#fbe844"/>
  <path d="m23 12.841c0-.264-.105-.519-.293-.706-.187-.187-.441-.293-.706-.293-.001 0-.001 0-.002 0-.265 0-.519.106-.706.293-.188.187-.293.442-.293.706v4.16c0 .265.105.519.293.706.187.188.441.293.706.293h.002c.265 0 .519-.105.706-.293.188-.187.293-.441.293-.706 0-1.146 0-3.014 0-4.16z"/>
  <path d="m11.534 27.409c-.624-.509-1.165-1.127-1.592-1.839-.524-.873-.942-1.57-.942-1.57s.905.226 1.854.464c1.367.341 2.814.091 3.986-.691.621-.414 1.16-.773 1.16-.773s.539.359 1.16.773c1.172.782 2.619 1.032 3.986.691.949-.238 1.854-.464 1.854-.464s-.418.697-.942 1.57c-.427.712-.968 1.33-1.592 1.839-1.066-.897-7.866-.897-8.932 0z" fill="#F31E3E"/>
  <path d="m11.534 27.409c1.066-0.897 2.429-1.409 3.863-1.409h1.206c1.434 0 2.797 0.512 3.863 1.409-1.242 1.014-2.814 1.591-4.466 1.591s-3.224-0.577-4.466-1.591z" fill="#DA8291"/>
  <path d="m13 19.819c0-.217.086-.426.24-.579.153-.154.362-.24.579-.24h4.352c.22 0 .431.087.586.243.156.155.243.366.243.586 0 .107-.053.207-.142.266-.595.397-2.858 1.905-2.858 1.905s-2.243-1.495-2.85-1.9c-.094-.062-.15-.168-.15-.28 0-.001 0-.001 0-.001z" fill="#DA8291"/>
 </g>
</svg>
