<?xml version="1.0" encoding="UTF-8"?>
<svg clip-rule="evenodd" fill-rule="evenodd" stroke-linecap="round" stroke-linejoin="round" stroke-miterlimit="1.5" viewBox="0 0 32 32" xmlns="http://www.w3.org/2000/svg">
 <clipPath id="a">
  <path d="m0 0h32v32h-32z" clip-rule="evenodd"/>
 </clipPath>
 <clipPath id="b">
  <path d="m27 14s0.698-2.442 1.269-4.441c0.485-1.698 0.731-3.455 0.731-5.22v-1.68c0-0.364-0.295-0.659-0.659-0.659h-1e-3c-1.842 0-3.635 0.603-5.102 1.718-2.666 2.024-6.738 5.115-6.738 5.115z" clip-rule="evenodd"/>
 </clipPath>
 <clipPath id="c">
  <path d="m5 14s-0.698-2.442-1.269-4.441c-0.485-1.698-0.731-3.455-0.731-5.22v-1.68c0-0.364 0.295-0.659 0.659-0.659h1e-3c1.842 0 3.635 0.603 5.102 1.718 2.666 2.024 6.738 5.115 6.738 5.115z" clip-rule="evenodd"/>
 </clipPath>
 <path d="m0 0h32v32h-32z" fill="none"/>
 <g clip-path="url(#a)">
  <path d="m24.251 26.749-0.615 0.615c-1.688 1.688-3.977 2.636-6.364 2.636h-2.544c-2.387 0-4.676-0.948-6.364-2.636l-1.248-1.248c-3.527-3.527-4.492-8.851-2.475-13.372l-0.91-3.185c-0.485-1.698-0.731-3.455-0.731-5.22v-1.68c0-0.364 0.295-0.659 0.659-0.659h1e-3c1.842 0 3.635 0.603 5.102 1.718l3.196 2.426c0.524-0.095 1.06-0.144 1.604-0.144h4.876c0.544 0 1.08 0.049 1.604 0.144l3.196-2.426c1.467-1.115 3.26-1.718 5.102-1.718h1e-3c0.364 0 0.659 0.295 0.659 0.659v1.68c0 1.765-0.246 3.522-0.731 5.22l-0.91 3.185c1.07 2.398 1.301 5.023 0.755 7.485l1.328 2.655c0.632 1.264 0.384 2.79-0.615 3.789l-1e-3 1e-3c-0.617 0.617-1.453 0.963-2.326 0.963-0.836 0-1.64-0.318-2.249-0.888z" fill="none" stroke="#000" stroke-width="4"/>
  <path d="m27 14s0.698-2.442 1.269-4.441c0.485-1.698 0.731-3.455 0.731-5.22v-1.68c0-0.364-0.295-0.659-0.659-0.659h-1e-3c-1.842 0-3.635 0.603-5.102 1.718-2.666 2.024-6.738 5.115-6.738 5.115z" fill="#F59C32"/>
  <g clip-path="url(#b)">
   <path d="m21 8s1.18-1.18 2.258-2.258c1.149-1.149 2.52-2.053 4.029-2.657 1.317-.527 2.713-1.085 2.713-1.085v12h-9z" fill="#FFB466"/>
  </g>
  <path d="m5 14s-0.698-2.442-1.269-4.441c-0.485-1.698-0.731-3.455-0.731-5.22v-1.68c0-0.364 0.295-0.659 0.659-0.659h1e-3c1.842 0 3.635 0.603 5.102 1.718 2.666 2.024 6.738 5.115 6.738 5.115z" fill="#F59C32"/>
  <g clip-path="url(#c)">
   <path d="m11 8s-1.18-1.18-2.258-2.258c-1.149-1.149-2.52-2.053-4.029-2.657-1.317-.527-2.713-1.085-2.713-1.085v12h9z" fill="#FFB466"/>
  </g>
  <path d="m13.562 6c-3.409 0-6.525 1.926-8.05 4.975-0.21 0.421-0.426 0.853-0.644 1.289-2.31 4.62-1.404 10.2 2.248 13.852l1.248 1.248c1.688 1.688 3.977 2.636 6.364 2.636h2.544c2.387 0 4.676-0.948 6.364-2.636l1.248-1.248c3.652-3.652 4.558-9.232 2.248-13.852-0.218-0.436-0.434-0.868-0.644-1.289-1.525-3.049-4.641-4.975-8.05-4.975h-4.876z" fill="#F59C32"/>
  <path d="m10.865 11.119c1.255 0.532 2.135 1.775 2.135 3.223v1.16c0 0.928-0.369 1.817-1.025 2.473s-1.545 1.025-2.473 1.025h-2e-3c-1.933 0-3.5-1.567-3.5-3.5v-1.16c0-0.241 0.025-0.479 0.073-0.712z" fill="#fbe844"/>
  <path d="m9 12.841c0-.264.105-.519.293-.706.187-.187.441-.293.706-.293h.002c.265 0 .519.106.706.293.188.187.293.442.293.706v4.16c0 .265-.105.519-.293.706-.187.188-.441.293-.706.293-.001 0-.001 0-.002 0-.265 0-.519-.105-.706-.293-.188-.187-.293-.441-.293-.706 0-1.146 0-3.014 0-4.16z"/>
  <path d="m21.191 11.095 4.691 2.346c0.078 0.291 0.118 0.593 0.118 0.899v1.16c0 1.933-1.567 3.5-3.5 3.5h-2e-3c-0.928 0-1.817-0.369-2.473-1.025s-1.025-1.545-1.025-2.473v-1.16c0-1.47 0.907-2.728 2.191-3.247z" fill="#fbe844"/>
  <path d="m23 12.841c0-.264-.105-.519-.293-.706-.187-.187-.441-.293-.706-.293-.001 0-.001 0-.002 0-.265 0-.519.106-.706.293-.188.187-.293.442-.293.706v4.16c0 .265.105.519.293.706.187.188.441.293.706.293h.002c.265 0 .519-.105.706-.293.188-.187.293-.441.293-.706 0-1.146 0-3.014 0-4.16z"/>
  <path d="m13 19.829c0-.22.087-.431.243-.586.155-.156.366-.243.586-.243h4.342c.22 0 .431.087.586.243.156.155.243.366.243.586 0 .107-.053.207-.142.266-.595.397-2.858 1.905-2.858 1.905s-2.263-1.508-2.858-1.905c-.089-.059-.142-.159-.142-.266z" fill="#DA8291"/>
  <path d="m12 27 4-3 4 3" fill="none" stroke="#F31E3E" stroke-linejoin="miter" stroke-width="1.5"/>
  <path d="m26.5 17s-1.757 3.514-2.942 5.884c-0.632 1.264-0.384 2.79 0.615 3.789l1e-3 1e-3c0.617 0.617 1.453 0.963 2.326 0.963s1.709-0.346 2.326-0.963l1e-3 -1e-3c0.999-0.999 1.247-2.525 0.615-3.789l-2.942-5.884z" fill="#00bafe"/>
 </g>
</svg>
