<?xml version="1.0" encoding="UTF-8"?>
<svg clip-rule="evenodd" fill-rule="evenodd" stroke-linecap="round" stroke-linejoin="round" stroke-miterlimit="1.5" viewBox="0 0 32 32" xmlns="http://www.w3.org/2000/svg">
 <clipPath id="a">
  <path d="m0 0h32v32h-32z" clip-rule="evenodd"/>
 </clipPath>
 <clipPath id="b">
  <path d="m27 14s0.698-2.442 1.269-4.441c0.485-1.698 0.731-3.455 0.731-5.22v-1.68c0-0.364-0.295-0.659-0.659-0.659h-1e-3c-1.842 0-3.635 0.603-5.102 1.718-2.666 2.024-6.738 5.115-6.738 5.115z" clip-rule="evenodd"/>
 </clipPath>
 <clipPath id="c">
  <path d="m5 14s-0.698-2.442-1.269-4.441c-0.485-1.698-0.731-3.455-0.731-5.22v-1.68c0-0.364 0.295-0.659 0.659-0.659h1e-3c1.842 0 3.635 0.603 5.102 1.718 2.666 2.024 6.738 5.115 6.738 5.115z" clip-rule="evenodd"/>
 </clipPath>
 <path d="m0 0h32v32h-32z" fill="none"/>
 <g clip-path="url(#a)">
  <path d="m19.491 4.051 2.537-1.926c1.816-1.379 4.033-2.125 6.312-2.125h1e-3c1.469 0 2.659 1.19 2.659 2.659v1.68c0 1.951-0.272 3.893-0.808 5.769l-0.295 1.031c0.593 0.815 0.918 1.802 0.92 2.823 2e-3 0.753-0.172 1.489-0.5 2.151 0.45 4.134-0.957 8.356-4.019 11.417l-1.248 1.248c-2.063 2.063-4.861 3.222-7.778 3.222h-2.544c-2.917 0-5.715-1.159-7.778-3.222l-1.248-1.248c-3.048-3.047-4.456-7.245-4.025-11.361-0.803-1.599-0.661-3.551 0.427-5.024l-0.296-1.037c-0.536-1.876-0.808-3.818-0.808-5.769v-1.68c0-1.469 1.19-2.659 2.659-2.659h1e-3c2.279 0 4.496 0.746 6.312 2.125l2.537 1.926c0.348-0.034 0.699-0.051 1.053-0.051h4.876c0.354 0 0.705 0.017 1.053 0.051z"/>
  <path d="m27 14s0.698-2.442 1.269-4.441c0.485-1.698 0.731-3.455 0.731-5.22v-1.68c0-0.364-0.295-0.659-0.659-0.659h-1e-3c-1.842 0-3.635 0.603-5.102 1.718-2.666 2.024-6.738 5.115-6.738 5.115z" fill="#F59C32"/>
  <g clip-path="url(#b)">
   <path d="m21 8s1.18-1.18 2.258-2.258c1.149-1.149 2.52-2.053 4.029-2.657 1.317-.527 2.713-1.085 2.713-1.085v12h-9z" fill="#FFB466"/>
  </g>
  <path d="m5 14s-0.698-2.442-1.269-4.441c-0.485-1.698-0.731-3.455-0.731-5.22v-1.68c0-0.364 0.295-0.659 0.659-0.659h1e-3c1.842 0 3.635 0.603 5.102 1.718 2.666 2.024 6.738 5.115 6.738 5.115z" fill="#F59C32"/>
  <g clip-path="url(#c)">
   <path d="m11 8s-1.18-1.18-2.258-2.258c-1.149-1.149-2.52-2.053-4.029-2.657-1.317-.527-2.713-1.085-2.713-1.085v12h9z" fill="#FFB466"/>
  </g>
  <path d="m13.562 6c-3.409 0-6.525 1.926-8.05 4.975-0.21 0.421-0.426 0.853-0.644 1.289-2.31 4.62-1.404 10.2 2.248 13.852l1.248 1.248c1.688 1.688 3.977 2.636 6.364 2.636h2.544c2.387 0 4.676-0.948 6.364-2.636l1.248-1.248c3.652-3.652 4.558-9.232 2.248-13.852-0.218-0.436-0.434-0.868-0.644-1.289-1.525-3.049-4.641-4.975-8.05-4.975h-4.876z" fill="#F59C32"/>
  <path d="m9 23s.077.231.189.566c.484 1.453 1.845 2.434 3.377 2.434h.234c1.348 0 2.581-.762 3.184-1.968.01-.021.016-.032.016-.032s.006.011.016.032c.603 1.206 1.836 1.968 3.184 1.968h.234c1.532 0 2.893-.981 3.377-2.434.112-.335.189-.566.189-.566" fill="none" stroke="#F31E3E" stroke-width="1.5"/>
  <path d="m22.964 21s-2.919-2.934-4.978-5.003c-1.097-1.104-1.095-2.888.006-3.989 0 0 .001-.001.002-.002.531-.531 1.252-.829 2.004-.828s1.472.302 2.002.835c.533.537.964.971.964.971s.476-.468 1.051-1.033c1.101-1.082 2.866-1.078 3.962.008 0 0 .001.001.001.001.535.531.837 1.253.839 2.007s-.297 1.477-.83 2.01c-2.079 2.08-5.023 5.023-5.023 5.023z" fill="#d92020"/>
  <path d="m8.964 21s-2.919-2.934-4.978-5.003c-1.097-1.104-1.095-2.888.006-3.989 0 0 .001-.001.002-.002.531-.531 1.252-.829 2.004-.828s1.472.302 2.002.835c.533.537.964.971.964.971s.476-.468 1.051-1.033c1.101-1.082 2.866-1.078 3.962.008 0 0 .001.001.001.001.535.531.837 1.253.839 2.007s-.297 1.477-.83 2.01c-2.079 2.08-5.023 5.023-5.023 5.023z" fill="#d92020"/>
  <path d="m13 19.829c0-.22.087-.431.243-.586.155-.156.366-.243.586-.243h4.342c.22 0 .431.087.586.243.156.155.243.366.243.586 0 .107-.053.207-.142.266-.595.397-2.858 1.905-2.858 1.905s-2.263-1.508-2.858-1.905c-.089-.059-.142-.159-.142-.266z" fill="#DA8291"/>
 </g>
</svg>
