<?xml version="1.0" encoding="UTF-8"?>
<!DOCTYPE svg  PUBLIC '-//W3C//DTD SVG 1.1//EN'  'http://www.w3.org/Graphics/SVG/1.1/DTD/svg11.dtd'>
<svg clip-rule="evenodd" fill-rule="evenodd" stroke-linecap="round" stroke-miterlimit="3" version="1.1" viewBox="0 0 32 32" xml:space="preserve" xmlns="http://www.w3.org/2000/svg">
<metadata>
<rdf:RDF xmlns:cc="http://web.resource.org/cc/" xmlns:dc="http://purl.org/dc/elements/1.1/" xmlns:rdf="http://www.w3.org/1999/02/22-rdf-syntax-ns#">

     <rdf:Description rdf:about="">
       <dc:title>Mutant Standard emoji 2023.12</dc:title>
     </rdf:Description>

    <cc:work rdf:about="">
        <cc:license rdf:resource="http://creativecommons.org/licenses/by-nc-sa/4.0/"/>
        <cc:attributionName>Caius Nocturne</cc:attributionName>
        <cc:attributionURL>http://mutant.tech/</cc:attributionURL>
    </cc:work>

</rdf:RDF>
</metadata>
<rect id="cactus" width="32" height="32" fill="none"/><clipPath id="_clip1"><rect width="32" height="32"/></clipPath><g clip-path="url(#_clip1)"><g id="outline" fill="none" stroke="#000" stroke-width="4px"><path d="m20 6c0-1.061-0.421-2.078-1.172-2.828-0.75-0.751-1.767-1.172-2.828-1.172s-2.078 0.421-2.828 1.172c-0.751 0.75-1.172 1.767-1.172 2.828v24h8v-24z"/><path d="m10 12c0-0.53-0.211-1.039-0.586-1.414s-0.884-0.586-1.414-0.586c-1.105 0-2 0.895-2 2v5c0 3.866 3.134 7 7 7h0.5c1.381 0 2.5-1.119 2.5-2.5 0-0.663-0.263-1.299-0.732-1.768s-1.105-0.732-1.768-0.732h-1.5c-1.105 0-2-0.895-2-2v-5z"/><path d="m22 8c0-1.105 0.895-2 2-2s2 0.895 2 2v4.488c0 1.727-0.686 3.383-1.907 4.605-1.222 1.221-2.878 1.907-4.605 1.907h-2e-3c-1.373 0-2.486-1.113-2.486-2.486v-0.014c0-0.663 0.263-1.299 0.732-1.768s1.105-0.732 1.768-0.732c1.381 0 2.5-1.119 2.5-2.5v-3.5z"/></g><g id="emoji"><path d="m14.5 2.295c0.45-0.19 0.97-0.295 1.5-0.295 1.061 0 2.078 0.421 2.828 1.172 0.751 0.75 1.172 1.767 1.172 2.828v24h-3l-2.5-2s0.245-25.605 0-25.705z" fill="#74bc41"/><path d="m14.5 2.295c0.511 0.209 0.953 0.502 1.328 0.877 0.751 0.75 1.172 1.767 1.172 2.828v24h-5v-24c0-1.061 0.421-2.078 1.172-2.828 0.375-0.375 0.817-0.668 1.328-0.877z" fill="#609b36"/><path d="m8 10c0.53 0 1.039 0.211 1.414 0.586s0.586 0.884 0.586 1.414v5c0 1.105 0.895 2 2 2h1.5c0.663 0 1.299 0.263 1.768 0.732 0.351 0.352 0.587 0.797 0.633 1.268l-5.901 1-3-2.268v-7.732l1-2z" fill="#74bc41"/><path d="m8 10v7c0 1.061 0.421 2.078 1.172 2.828 0.75 0.751 1.767 1.172 2.828 1.172h3.901l0.099 0.5c0 1.381-1.119 2.5-2.5 2.5h-0.5c-3.866 0-7-3.134-7-7v-5c0-1.077 0.851-1.955 2-2z" fill="#609b36"/><path d="m22 8c0-1.105 0.895-2 2-2s2 0.895 2 2v4.488c0 1.727-0.686 3.383-1.907 4.605-1.222 1.221-2.878 1.907-4.605 1.907h-2e-3c-1.373 0-2.486-1.113-2.486-2.486v-0.014c0-0.663 0.263-1.299 0.732-1.768s1.105-0.732 1.768-0.732c1.381 0 2.5-1.119 2.5-2.5v-3.5z" fill="#74bc41"/></g></g></svg>
