<?xml version="1.0" encoding="UTF-8"?>
<!DOCTYPE svg  PUBLIC '-//W3C//DTD SVG 1.1//EN'  'http://www.w3.org/Graphics/SVG/1.1/DTD/svg11.dtd'>
<svg clip-rule="evenodd" fill-rule="evenodd" stroke-linecap="square" stroke-miterlimit="1.5" version="1.1" viewBox="0 0 32 32" xml:space="preserve" xmlns="http://www.w3.org/2000/svg">
<metadata>
<rdf:RDF xmlns:cc="http://web.resource.org/cc/" xmlns:dc="http://purl.org/dc/elements/1.1/" xmlns:rdf="http://www.w3.org/1999/02/22-rdf-syntax-ns#">

     <rdf:Description rdf:about="">
       <dc:title>Mutant Standard emoji 2023.12</dc:title>
     </rdf:Description>

    <cc:work rdf:about="">
        <cc:license rdf:resource="http://creativecommons.org/licenses/by-nc-sa/4.0/"/>
        <cc:attributionName>Caius Nocturne</cc:attributionName>
        <cc:attributionURL>http://mutant.tech/</cc:attributionURL>
    </cc:work>

</rdf:RDF>
</metadata>
<rect id="evergreen_tree" width="32" height="32" fill="none"/><clipPath id="_clip1"><rect width="32" height="32"/></clipPath><g clip-path="url(#_clip1)"><g id="outline" fill="none" stroke="#000" stroke-width="4px"><rect x="14" y="19" width="4" height="11"/><path d="m18.844 8.637c0.444-0.011 0.888-0.07 1.325-0.179 0.941-0.235 1.831-0.458 1.831-0.458s-0.859 1.719-1.658 3.317c-0.074 0.146-0.153 0.288-0.24 0.424 0.242-0.023 0.482-0.058 0.721-0.106 1.429-0.285 3.177-0.635 3.177-0.635s-0.466 1.087-1.031 2.405c-0.393 0.917-0.954 1.729-1.638 2.405l0.026-4e-3c2.036-0.291 5.643-0.806 5.643-0.806s-0.232 0.618-0.567 1.511c-0.608 1.622-1.608 3.017-2.868 4.093l5.435-0.604s-0.442 0.662-1.031 1.547c-1.855 2.782-4.977 4.453-8.321 4.453h-7.296c-3.344 0-6.466-1.671-8.321-4.453-0.589-0.885-1.031-1.547-1.031-1.547l5.435 0.604c-1.26-1.076-2.26-2.471-2.868-4.093-0.335-0.893-0.567-1.511-0.567-1.511s3.307 0.472 5.375 0.768c0.096 0.014 0.192 0.026 0.288 0.036-0.681-0.675-1.24-1.484-1.632-2.399-0.565-1.318-1.031-2.405-1.031-2.405s1.471 0.294 2.818 0.564c0.35 0.07 0.703 0.117 1.058 0.142-0.078-0.126-0.151-0.255-0.218-0.389-0.799-1.598-1.658-3.317-1.658-3.317s0.89 0.223 1.831 0.458c0.437 0.109 0.881 0.168 1.325 0.179l2.844-6.637 2.844 6.637z" stroke-linejoin="round"/></g><g id="emoji"><path d="m14 18h4v10l-2 1-2-1v-10z" fill="#43330f"/><rect x="14" y="28" width="4" height="2" fill="#574213"/><path d="m15.824 2.412 3.176 7.588 1 4 2 5v6l-6 1h-3.648c-3.344 0-6.466-1.671-8.321-4.453-0.589-0.885-1.031-1.547-1.031-1.547l5.435 0.604c-1.26-1.076-2.26-2.471-2.868-4.093-0.335-0.893-0.567-1.511-0.567-1.511s3.307 0.472 5.375 0.768c0.096 0.014 0.192 0.026 0.288 0.036-0.681-0.675-1.24-1.484-1.632-2.399-0.565-1.318-1.031-2.405-1.031-2.405s1.471 0.294 2.818 0.564c0.35 0.07 0.703 0.117 1.058 0.142-0.078-0.126-0.151-0.255-0.218-0.389-0.799-1.598-1.658-3.317-1.658-3.317s0.89 0.223 1.831 0.458c0.437 0.109 0.881 0.168 1.325 0.179l2.668-6.225z" fill="#199d4e"/><path d="m15.824 2.412 0.176-0.412 2.844 6.637c0.444-0.011 0.888-0.07 1.325-0.179 0.941-0.235 1.831-0.458 1.831-0.458s-0.859 1.719-1.658 3.317c-0.074 0.146-0.153 0.288-0.24 0.424 0.242-0.023 0.482-0.058 0.721-0.106 1.429-0.285 3.177-0.635 3.177-0.635s-0.466 1.087-1.031 2.405c-0.393 0.917-0.954 1.729-1.638 2.405l0.026-4e-3c2.036-0.291 5.643-0.806 5.643-0.806s-0.232 0.618-0.567 1.511c-0.608 1.622-1.608 3.017-2.868 4.093l5.435-0.604s-0.442 0.662-1.031 1.547c-1.855 2.782-4.977 4.453-8.321 4.453h-3.648l5-5h-5l4-5h-4l3-4h-3l2-3h-3l0.824-6.588z" fill="#126d36"/></g></g></svg>
