<?xml version="1.0" encoding="UTF-8"?>
<!DOCTYPE svg  PUBLIC '-//W3C//DTD SVG 1.1//EN'  'http://www.w3.org/Graphics/SVG/1.1/DTD/svg11.dtd'>
<svg clip-rule="evenodd" fill-rule="evenodd" stroke-linecap="round" stroke-linejoin="round" stroke-miterlimit="1.5" version="1.1" viewBox="0 0 32 32" xml:space="preserve" xmlns="http://www.w3.org/2000/svg">
<metadata>
<rdf:RDF xmlns:cc="http://web.resource.org/cc/" xmlns:dc="http://purl.org/dc/elements/1.1/" xmlns:rdf="http://www.w3.org/1999/02/22-rdf-syntax-ns#">

     <rdf:Description rdf:about="">
       <dc:title>Mutant Standard emoji 2023.12</dc:title>
     </rdf:Description>

    <cc:work rdf:about="">
        <cc:license rdf:resource="http://creativecommons.org/licenses/by-nc-sa/4.0/"/>
        <cc:attributionName>Caius Nocturne</cc:attributionName>
        <cc:attributionURL>http://mutant.tech/</cc:attributionURL>
    </cc:work>

</rdf:RDF>
</metadata>
<rect id="maple_leaf" width="32" height="32" fill="none"/><clipPath id="_clip1"><rect width="32" height="32"/></clipPath><g clip-path="url(#_clip1)"><g id="Layer2"><path d="m11.613 11.829c0.076-2.614 0.934-5.225 2.612-7.462 1.044-1.393 1.775-2.367 1.775-2.367s0.731 0.974 1.775 2.367c1.678 2.237 2.536 4.848 2.612 7.462 2.055-1.772 4.726-2.829 7.613-2.829 0 0-0.067 0.367-0.176 0.967-0.52 2.86-1.84 5.434-3.725 7.481 2.015-0.091 4.073 0.409 5.9 1.552h1e-3c-1.061 2.122-2.921 3.735-5.172 4.485-0.479 0.16-0.968 0.278-1.461 0.354 0.401 0.623 0.633 1.365 0.633 2.161h-2c-1.889 0-3.667-0.889-4.8-2.4l-0.2-0.267v6.667h-2v-6.667l-0.2 0.267c-1.133 1.511-2.911 2.4-4.8 2.4h-2v-2e-3c0-0.973 0.348-1.865 0.926-2.558-0.508-0.092-1.011-0.226-1.504-0.403-2.419-0.868-4.378-2.687-5.421-5.036l-1e-3 -1e-3h1e-3c1.725-0.863 3.588-1.22 5.407-1.115-1.622-1.947-2.759-4.314-3.232-6.918-0.109-0.6-0.176-0.967-0.176-0.967 2.887 0 5.558 1.057 7.613 2.829z" fill="none" stroke="#000" stroke-width="4px"/></g><g id="Layer1"><rect x="15" y="20" width="2" height="10" fill="#7c1414"/><path d="m11.613 11.831c0.075-2.614 0.934-5.227 2.612-7.464 1.044-1.393 1.775-2.367 1.775-2.367s0.731 0.974 1.775 2.367c1.678 2.237 2.537 4.85 2.612 7.464 2.054-1.773 4.725-2.831 7.613-2.831 0 0-0.067 0.367-0.176 0.967-0.52 2.861-1.841 5.436-3.727 7.482 2.015-0.092 4.074 0.408 5.902 1.551h1e-3c-1.061 2.122-2.921 3.735-5.172 4.485-0.48 0.161-0.97 0.279-1.464 0.352 0.403 0.624 0.636 1.366 0.636 2.163h-2c-1.889 0-3.667-0.889-4.8-2.4-0.139-0.185-0.274-0.365-0.4-0.533-0.189-0.252-0.485-0.4-0.8-0.4s-0.611 0.148-0.8 0.4c-0.126 0.168-0.261 0.348-0.4 0.533-1.133 1.511-2.911 2.4-4.8 2.4h-2v-2e-3c0-0.974 0.348-1.866 0.927-2.559-0.509-0.091-1.012-0.225-1.505-0.402-2.419-0.868-4.378-2.687-5.421-5.036l-1e-3 -1e-3h1e-3c1.726-0.863 3.59-1.22 5.41-1.114-1.624-1.947-2.762-4.314-3.235-6.919-0.109-0.6-0.176-0.967-0.176-0.967 2.888 0 5.559 1.058 7.613 2.831z" fill="#b11522"/><path d="m17.775 4.367 0.079 0.105 0.152 0.212 0.148 0.214 0.072 0.108 0.071 0.108 0.138 0.218 0.067 0.11 0.066 0.11 0.065 0.111 0.064 0.111 0.062 0.111 0.062 0.112 0.06 0.113 0.059 0.112 0.057 0.114 0.057 0.113 0.11 0.228 0.053 0.115 0.052 0.115 0.05 0.116 0.05 0.115 0.048 0.117 0.047 0.116 0.046 0.117 0.045 0.117 0.043 0.117 0.043 0.118 0.041 0.118 0.04 0.118 0.039 0.118 0.038 0.119 0.072 0.238 0.034 0.12 0.033 0.119 0.032 0.12 0.031 0.12 0.029 0.121 0.029 0.12 0.027 0.121 0.026 0.121 0.025 0.121 0.046 0.242 0.021 0.122 0.021 0.121 0.019 0.122 0.018 0.122 0.032 0.244 0.028 0.244 0.012 0.122 0.011 0.123 0.01 0.122 8e-3 0.123 8e-3 0.122 6e-3 0.123 6e-3 0.122 4e-3 0.123 0.096-0.083 0.098-0.081 0.099-0.081 0.099-0.079 0.1-0.079 0.101-0.077 0.102-0.076 0.103-0.075 0.104-0.074 0.104-0.073 0.212-0.142 0.214-0.138 0.109-0.067 0.109-0.066 0.11-0.064 0.111-0.064 0.111-0.062 0.112-0.062 0.113-0.06 0.228-0.116 0.115-0.056 0.116-0.055 0.116-0.054 0.117-0.053 0.118-0.051 0.118-0.05 0.119-0.049 0.24-0.094 0.242-0.088 0.122-0.042 0.123-0.041 0.123-0.04 0.124-0.038 0.124-0.037 0.125-0.036 0.125-0.034 0.126-0.033 0.126-0.031 0.127-0.031 0.256-0.056 0.128-0.026 0.129-0.024 0.129-0.023 0.13-0.022 0.13-0.02 0.131-0.019 0.131-0.017 0.132-0.016 0.132-0.014 0.132-0.013 0.133-0.011 0.133-0.01 0.133-9e-3 0.134-7e-3 0.134-5e-3 0.135-4e-3 0.135-2e-3 0.135-1e-3 -0.176 0.967-0.025 0.133-0.026 0.134-0.027 0.133-0.029 0.133-0.029 0.132-0.031 0.132-0.032 0.131-0.033 0.131-0.034 0.13-0.035 0.13-0.074 0.258-0.039 0.129-0.04 0.128-0.04 0.127-0.042 0.127-0.043 0.127-0.045 0.126-0.045 0.125-0.046 0.125-0.047 0.124-0.049 0.124-0.049 0.123-0.05 0.123-0.104 0.244-0.054 0.121-0.11 0.24-0.057 0.12-0.058 0.118-0.058 0.119-0.06 0.117-0.061 0.117-0.061 0.116-0.063 0.116-0.063 0.115-0.065 0.115-0.066 0.114-0.066 0.113-0.136 0.224-0.069 0.112-0.142 0.22-0.072 0.109-0.073 0.109-0.074 0.108-0.075 0.107-0.076 0.107-0.077 0.106-0.077 0.105-0.158 0.208-0.081 0.103-0.081 0.102-0.082 0.102-0.083 0.101-0.084 0.1-0.084 0.099-0.086 0.099-0.086 0.098-0.087 0.097-0.088 0.096 0.094-4e-3 0.095-3e-3 0.094-2e-3 0.19-2e-3 0.095 1e-3 0.094 1e-3 0.095 2e-3 0.095 3e-3 0.095 4e-3 0.095 5e-3 0.094 6e-3 0.19 0.014 0.095 8e-3 0.094 0.01 0.095 0.01 0.095 0.011 0.094 0.012 0.095 0.013 0.094 0.013 0.095 0.015 0.094 0.015 0.188 0.034 0.094 0.018 0.094 0.019 0.094 0.02 0.094 0.021 0.093 0.022 0.094 0.023 0.093 0.023 0.094 0.025 0.093 0.025 0.093 0.026 0.092 0.028 0.093 0.028 0.092 0.029 0.093 0.03 0.184 0.062 0.091 0.033 0.092 0.034 0.091 0.034 0.091 0.035 0.182 0.074 0.09 0.038 0.09 0.039 0.09 0.04 0.09 0.041 0.089 0.042 0.09 0.043 0.088 0.044 0.089 0.044 0.088 0.046 0.176 0.094 0.088 0.048 0.174 0.1 0.086 0.051 0.086 0.052 0.087 0.054-0.05 0.099-0.052 0.099-0.106 0.194-0.055 0.096-0.056 0.095-0.057 0.095-0.118 0.186-0.06 0.092-0.124 0.182-0.064 0.089-0.065 0.089-0.065 0.088-0.067 0.087-0.068 0.086-0.069 0.085-0.14 0.168-0.072 0.082-0.073 0.082-0.148 0.16-0.076 0.079-0.076 0.078-0.156 0.152-0.08 0.075-0.08 0.074-0.081 0.073-0.082 0.072-0.083 0.071-0.083 0.07-0.085 0.069-0.085 0.068-0.086 0.067-0.088 0.066-0.087 0.064-0.089 0.064-0.09 0.063-0.09 0.061-0.091 0.061-0.092 0.059-0.092 0.058-0.093 0.058-0.095 0.056-0.094 0.054-0.096 0.054-0.096 0.053-0.097 0.051-0.098 0.051-0.098 0.049-0.099 0.048-0.099 0.047-0.202 0.09-0.101 0.043-0.102 0.042-0.103 0.041-0.208 0.078-0.104 0.037-0.106 0.035-0.09 0.03-0.09 0.028-0.091 0.028-0.091 0.027-0.182 0.05-0.091 0.023-0.092 0.023-0.091 0.021-0.092 0.021-0.184 0.038-0.093 0.017-0.184 0.032-0.093 0.014 0.074 0.118 0.035 0.061 0.034 0.06 0.033 0.062 0.032 0.062 0.031 0.063 0.03 0.063 0.029 0.064 0.028 0.065 0.027 0.065 0.025 0.065 0.025 0.067 0.023 0.067 0.022 0.067 0.021 0.068 0.02 0.068 0.036 0.138 0.016 0.07 0.015 0.07 0.014 0.071 0.012 0.071 0.011 0.072 0.01 0.072 9e-3 0.072 7e-3 0.073 6e-3 0.073 5e-3 0.073 3e-3 0.074 2e-3 0.074 1e-3 0.075h-2l-0.088-1e-3 -0.089-2e-3 -0.088-3e-3 -0.088-4e-3 -0.087-6e-3 -0.088-7e-3 -0.174-0.018-0.087-0.011-0.086-0.012-0.086-0.013-0.086-0.015-0.086-0.016-0.085-0.017-0.085-0.018-0.084-0.02-0.085-0.02-0.083-0.022-0.084-0.023-0.083-0.024-0.083-0.026-0.082-0.026-0.082-0.028-0.081-0.029-0.081-0.03-0.08-0.031-0.16-0.066-0.079-0.035-0.156-0.072-0.077-0.038-0.077-0.04-0.076-0.04-0.076-0.041-0.075-0.042-0.075-0.044-0.073-0.044-0.074-0.046-0.144-0.094-0.071-0.049-0.071-0.05-0.07-0.051-0.069-0.052-0.069-0.053-0.067-0.054-0.068-0.055-0.066-0.056-0.065-0.057-0.065-0.058-0.064-0.058-0.063-0.06-0.063-0.061-0.061-0.062-0.061-0.063-0.06-0.064-0.059-0.065-0.058-0.065-0.057-0.067-0.112-0.136-0.108-0.14-0.4-0.533-0.018-0.024-0.038-0.044-0.02-0.022-0.02-0.021-0.021-0.02-0.021-0.019-0.022-0.019-0.046-0.036-0.023-0.016-0.024-0.017-0.024-0.015-0.025-0.015-0.025-0.014-0.026-0.013-0.052-0.024-0.026-0.011-0.027-0.01-0.028-0.01-0.027-8e-3 -0.028-8e-3 -0.056-0.014-0.028-5e-3 -0.029-5e-3 -0.087-9e-3 -0.03-1e-3h-0.029-0.029l-0.03 1e-3 -0.087 9e-3 -0.029 5e-3 -0.028 5e-3 -0.056 0.014-0.028 8e-3 -0.027 8e-3 -0.028 0.01-0.027 0.01-0.026 0.011-0.052 0.024-0.026 0.013-0.025 0.014-0.025 0.015-0.024 0.015-0.024 0.017-0.023 0.016-0.046 0.036-0.022 0.019-0.021 0.019-0.021 0.02-0.02 0.021-0.02 0.022-0.038 0.044-0.018 0.024-0.4 0.533-0.108 0.14-0.112 0.136-0.057 0.067-0.058 0.065-0.059 0.065-0.06 0.064-0.061 0.063-0.061 0.062-0.063 0.061-0.063 0.06-0.064 0.058-0.065 0.058-0.065 0.057-0.066 0.056-0.068 0.055-0.067 0.054-0.069 0.053-0.069 0.052-0.07 0.051-0.071 0.05-0.071 0.049-0.144 0.094-0.074 0.046-0.073 0.044-0.075 0.044-0.075 0.042-0.076 0.041-0.076 0.04-0.077 0.04-0.077 0.038-0.156 0.072-0.079 0.035-0.16 0.066-0.08 0.031-0.081 0.03-0.081 0.029-0.082 0.028-0.082 0.026-0.083 0.026-0.083 0.024-0.084 0.023-0.083 0.022-0.085 0.02-0.084 0.02-0.085 0.018-0.085 0.017-0.086 0.016-0.086 0.015-0.086 0.013-0.086 0.012-0.087 0.011-0.174 0.018-0.088 7e-3 -0.087 6e-3 -0.088 4e-3 -0.088 3e-3 -0.089 2e-3 -0.088 1e-3h-2v-2e-3l1e-3 -0.091 3e-3 -0.091 5e-3 -0.09 7e-3 -0.089 9e-3 -0.089 0.011-0.088 0.013-0.088 0.014-0.087 0.017-0.087 0.018-0.085 0.021-0.085 0.022-0.085 0.023-0.083 0.026-0.083 0.027-0.082 0.029-0.082 0.031-0.08 0.032-0.08 0.035-0.079 0.035-0.077 0.037-0.077 0.039-0.076 0.041-0.076 0.042-0.074 0.043-0.073 0.045-0.072 0.047-0.071 0.048-0.07 0.049-0.069 0.051-0.068 0.052-0.066 0.054-0.066-0.096-0.018-0.095-0.018-0.095-0.02-0.19-0.042-0.094-0.023-0.095-0.023-0.094-0.025-0.188-0.052-0.093-0.028-0.094-0.029-0.093-0.029-0.093-0.031-0.093-0.032-0.092-0.032-0.226-0.084-0.111-0.044-0.111-0.046-0.11-0.047-0.11-0.048-0.109-0.05-0.108-0.05-0.214-0.106-0.105-0.055-0.105-0.056-0.104-0.057-0.104-0.059-0.102-0.06-0.102-0.061-0.101-0.062-0.1-0.064-0.099-0.065-0.098-0.066-0.097-0.067-0.097-0.068-0.096-0.07-0.094-0.071-0.094-0.072-0.093-0.073-0.092-0.074-0.091-0.075-0.09-0.077-0.088-0.077-0.088-0.079-0.087-0.08-0.086-0.081-0.085-0.082-0.084-0.083-0.083-0.084-0.082-0.085-0.081-0.086-0.08-0.087-0.078-0.088-0.078-0.089-0.152-0.182-0.074-0.092-0.073-0.093-0.072-0.094-0.071-0.095-0.069-0.096-0.069-0.097-0.067-0.098-0.066-0.099-0.065-0.099-0.126-0.202-0.061-0.103-0.06-0.103-0.059-0.104-0.057-0.105-0.056-0.105-0.055-0.107-0.054-0.107-0.052-0.108-0.051-0.109-0.049-0.11-1e-3 -1e-3h1e-3l0.081-0.041 0.081-0.039 0.163-0.076 0.164-0.074 0.164-0.07 0.165-0.068 0.166-0.065 0.166-0.062 0.167-0.058 0.168-0.056 0.168-0.054 0.168-0.05 0.169-0.047 0.17-0.045 0.169-0.041 0.17-0.039 0.171-0.036 0.17-0.033 0.171-0.03 0.171-0.027 0.172-0.025 0.171-0.022 0.171-0.019 0.172-0.016 0.172-0.013 0.171-0.011 0.172-8e-3 0.171-5e-3 0.172-2e-3h0.171l0.171 4e-3 0.171 6e-3 0.171 8e-3 -0.076-0.091-0.075-0.093-0.074-0.092-0.074-0.094-0.073-0.094-0.072-0.094-0.071-0.096-0.071-0.095-0.07-0.097-0.069-0.097-0.068-0.097-0.068-0.098-0.067-0.099-0.066-0.099-0.13-0.2-0.064-0.101-0.063-0.101-0.062-0.102-0.062-0.103-0.12-0.206-0.059-0.104-0.059-0.105-0.057-0.105-0.057-0.106-0.11-0.212-0.055-0.108-0.053-0.107-0.052-0.108-0.052-0.109-0.051-0.109-0.05-0.109-0.049-0.11-0.096-0.222-0.046-0.111-0.046-0.112-0.045-0.113-0.044-0.112-0.043-0.114-0.042-0.113-0.041-0.114-0.041-0.115-0.078-0.23-0.074-0.232-0.036-0.117-0.035-0.117-0.034-0.117-0.033-0.118-0.032-0.118-0.032-0.119-0.03-0.119-0.029-0.119-0.029-0.12-0.027-0.12-0.027-0.121-0.05-0.242-0.024-0.121-0.022-0.122-0.176-0.967 0.135 1e-3 0.135 2e-3 0.135 4e-3 0.134 5e-3 0.134 7e-3 0.133 9e-3 0.133 0.01 0.133 0.011 0.132 0.013 0.132 0.014 0.132 0.016 0.131 0.017 0.131 0.019 0.13 0.02 0.13 0.022 0.129 0.023 0.129 0.024 0.128 0.026 0.256 0.056 0.127 0.031 0.126 0.031 0.126 0.033 0.125 0.034 0.125 0.036 0.124 0.037 0.124 0.038 0.123 0.04 0.123 0.041 0.122 0.042 0.242 0.088 0.24 0.094 0.119 0.049 0.118 0.05 0.118 0.051 0.117 0.053 0.116 0.054 0.116 0.055 0.115 0.056 0.228 0.116 0.113 0.06 0.112 0.062 0.111 0.062 0.111 0.064 0.11 0.064 0.109 0.066 0.109 0.067 0.214 0.138 0.212 0.142 0.104 0.073 0.104 0.074 0.103 0.075 0.102 0.076 0.101 0.077 0.1 0.079 0.099 0.079 0.099 0.081 0.098 0.081 0.096 0.083 4e-3 -0.123 6e-3 -0.122 6e-3 -0.123 8e-3 -0.122 8e-3 -0.123 0.01-0.122 0.011-0.123 0.012-0.122 0.028-0.244 0.032-0.244 0.018-0.122 0.019-0.122 0.021-0.121 0.021-0.122 0.046-0.242 0.025-0.121 0.026-0.121 0.027-0.121 0.029-0.12 0.029-0.121 0.031-0.12 0.032-0.12 0.033-0.119 0.034-0.12 0.072-0.238 0.038-0.119 0.039-0.118 0.04-0.118 0.041-0.118 0.043-0.118 0.043-0.117 0.045-0.117 0.046-0.117 0.047-0.116 0.048-0.117 0.05-0.115 0.05-0.116 0.052-0.115 0.053-0.115 0.11-0.228 0.057-0.113 0.057-0.114 0.059-0.112 0.06-0.113 0.062-0.112 0.062-0.111 0.064-0.111 0.065-0.111 0.066-0.11 0.067-0.11 0.138-0.218 0.071-0.108 0.072-0.108 0.148-0.214 0.152-0.212 0.079-0.105 1.775-2.367 1.775 2.367zm-1.948 1.196-0.069 0.094-0.065 0.089-0.064 0.091-0.063 0.09-0.063 0.091-0.061 0.092-0.06 0.092-0.059 0.092-0.058 0.092-0.057 0.093-0.056 0.094-0.055 0.093-0.054 0.094-0.053 0.095-0.052 0.095-0.051 0.095-0.05 0.095-0.049 0.096-0.048 0.096-0.047 0.097-0.09 0.194-0.044 0.097-0.043 0.098-0.042 0.098-0.041 0.098-0.04 0.098-0.076 0.198-0.037 0.1-0.036 0.099-0.035 0.1-0.034 0.1-0.033 0.1-0.032 0.101-0.031 0.1-0.03 0.101-0.029 0.101-0.028 0.102-0.027 0.101-0.026 0.102-0.025 0.102-0.024 0.101-0.023 0.103-0.022 0.102-0.021 0.102-0.02 0.103-0.019 0.103-0.018 0.103-0.017 0.103-0.032 0.206-0.014 0.103-0.013 0.103-0.012 0.104-0.011 0.103-0.011 0.104-9e-3 0.104-8e-3 0.103-8e-3 0.104-6e-3 0.104-6e-3 0.103-4e-3 0.104-0.143 4.264-3.247-2.772-0.162-0.134-0.083-0.066-0.083-0.065-0.084-0.064-0.084-0.063-0.085-0.062-0.086-0.061-0.087-0.061-0.087-0.059-0.088-0.059-0.178-0.114-0.18-0.11-0.091-0.053-0.092-0.053-0.092-0.052-0.093-0.05-0.094-0.05-0.094-0.049-0.095-0.048-0.095-0.046-0.096-0.046-0.096-0.044-0.097-0.044-0.097-0.042-0.098-0.042-0.198-0.08-0.099-0.038-0.1-0.037-0.101-0.036-0.101-0.035-0.101-0.034-0.102-0.033-0.102-0.031-0.103-0.031-0.103-0.029-0.013-4e-3 4e-3 0.011 0.033 0.1 0.034 0.1 0.035 0.099 0.036 0.099 0.074 0.196 0.038 0.098 0.078 0.194 0.041 0.097 0.041 0.096 0.042 0.096 0.042 0.095 0.043 0.095 0.044 0.094 0.045 0.094 0.046 0.094 0.046 0.093 0.047 0.093 0.047 0.092 0.098 0.184 0.05 0.091 0.05 0.09 0.051 0.091 0.052 0.089 0.106 0.178 0.054 0.089 0.054 0.087 0.056 0.088 0.056 0.087 0.056 0.086 0.116 0.172 0.058 0.085 0.18 0.252 0.061 0.083 0.062 0.082 0.063 0.082 0.063 0.081 0.128 0.162 0.065 0.08 2.97 3.587-4.696-0.237-0.139-5e-3 -0.139-3e-3h-0.139l-0.14 2e-3 -0.139 4e-3 -0.14 6e-3 -0.139 9e-3 -0.14 0.011-0.139 0.013-0.139 0.015-0.14 0.018-0.139 0.02-0.139 0.022-0.138 0.025-0.139 0.027-0.051 0.01 0.022 0.026 0.062 0.07 0.126 0.136 0.065 0.067 0.065 0.066 0.066 0.066 0.067 0.064 0.068 0.064 0.068 0.063 0.07 0.062 0.07 0.061 0.07 0.06 0.144 0.118 0.073 0.057 0.074 0.057 0.075 0.056 0.075 0.054 0.076 0.054 0.077 0.053 0.077 0.052 0.078 0.051 0.079 0.05 0.079 0.049 0.08 0.049 0.081 0.047 0.081 0.046 0.082 0.045 0.083 0.044 0.083 0.043 0.084 0.042 0.17 0.082 0.085 0.039 0.087 0.037 0.086 0.037 0.088 0.036 0.088 0.035 0.088 0.034 0.09 0.033 0.072 0.025 0.073 0.025 0.073 0.024 0.074 0.023 0.073 0.023 0.074 0.022 0.074 0.021 0.073 0.02 0.074 0.019 0.075 0.019 0.148 0.034 0.075 0.016 0.074 0.016 0.075 0.014 3.41 0.63-1.413 1.729h1e-3l0.055-0.018 0.054-0.018 0.108-0.04 0.054-0.021 0.053-0.021 0.106-0.046 0.052-0.023 0.104-0.05 0.051-0.026 0.051-0.027 0.1-0.056 0.05-0.029 0.098-0.06 0.049-0.031 0.047-0.032 0.048-0.033 0.047-0.033 0.047-0.034 0.046-0.034 0.046-0.036 0.045-0.035 0.044-0.037 0.045-0.038 0.043-0.037 0.086-0.078 0.042-0.04 0.042-0.041 0.041-0.041 0.08-0.084 0.039-0.044 0.039-0.043 0.076-0.09 0.037-0.046 0.036-0.046 0.04-0.053 0.405-0.539 0.045-0.058 0.056-0.068 0.057-0.066 0.06-0.065 0.061-0.062 0.063-0.06 0.064-0.059 0.066-0.057 0.068-0.054 0.068-0.052 0.071-0.051 0.072-0.048 0.072-0.046 0.074-0.044 0.076-0.042 0.077-0.04 0.077-0.037 0.078-0.035 0.08-0.033 0.081-0.031 0.082-0.028 0.082-0.026 0.083-0.024 0.084-0.021 0.085-0.019 0.085-0.016 0.087-0.015 0.086-0.011 0.087-9e-3 0.088-6e-3 0.088-4e-3 0.088-2e-3 0.088 2e-3 0.088 4e-3 0.088 6e-3 0.087 9e-3 0.086 0.011 0.087 0.015 0.085 0.016 0.085 0.019 0.084 0.021 0.083 0.024 0.083 0.026 0.081 0.028 0.08 0.031 0.08 0.032 0.079 0.036 0.078 0.037 0.076 0.04 0.075 0.042 0.074 0.043 0.074 0.047 0.071 0.048 0.071 0.05 0.069 0.053 0.067 0.054 0.066 0.057 0.064 0.059 0.063 0.06 0.061 0.062 0.059 0.064 0.058 0.067 0.056 0.068 0.045 0.058 0.405 0.539 0.04 0.053 0.036 0.046 0.037 0.046 0.076 0.09 0.078 0.086 0.04 0.043 0.04 0.042 0.041 0.041 0.042 0.041 0.042 0.04 0.086 0.078 0.043 0.038 0.045 0.037 0.044 0.037 0.045 0.035 0.046 0.036 0.046 0.034 0.047 0.034 0.047 0.033 0.048 0.033 0.047 0.032 0.049 0.031 0.098 0.06 0.049 0.029 0.051 0.028 0.05 0.028 0.051 0.027 0.051 0.026 0.104 0.05 0.052 0.023 0.053 0.024 0.053 0.022 0.053 0.021 0.054 0.021 0.108 0.04 0.054 0.018 0.055 0.018 0.055 0.017 0.056 0.016 0.055 0.015 0.056 0.015 3e-3 1e-3 -0.983-1.551 3.101-0.48 0.071-0.012 0.07-0.012 0.071-0.014 0.07-0.014 0.071-0.015 0.07-0.015 0.071-0.017 0.07-0.017 0.071-0.018 0.07-0.019 0.07-0.02 0.071-0.021 0.07-0.021 0.07-0.022 0.069-0.023 0.083-0.028 0.162-0.058 0.08-0.031 0.08-0.032 0.079-0.032 0.079-0.034 0.078-0.034 0.156-0.072 0.076-0.037 0.077-0.038 0.075-0.04 0.076-0.04 0.075-0.04 0.074-0.042 0.146-0.086 0.073-0.045 0.071-0.045 0.072-0.046 0.07-0.047 0.071-0.048 0.069-0.048 0.069-0.05 0.068-0.05 0.068-0.051 0.067-0.052 0.132-0.106 0.064-0.055 0.065-0.055 0.126-0.112 0.063-0.058 0.061-0.058 0.061-0.059 0.06-0.059 0.06-0.061 0.029-0.03-0.017-5e-3 -0.075-0.023-0.074-0.022-0.075-0.021-0.15-0.04-0.075-0.019-0.15-0.036-0.075-0.016-0.076-0.016-0.075-0.016-0.152-0.028-0.075-0.014-0.152-0.024-0.076-0.011-0.152-0.02-0.076-9e-3 -0.077-8e-3 -0.152-0.014-0.076-6e-3 -0.077-5e-3 -0.076-5e-3 -0.076-4e-3 -0.077-3e-3 -0.152-4e-3 -0.077-1e-3 -0.076-1e-3 -0.152 2e-3 -0.077 1e-3 -0.076 3e-3 -4.883 0.2 3.321-3.634 0.076-0.084 0.075-0.085 0.074-0.085 0.073-0.087 0.073-0.086 0.072-0.088 0.071-0.088 0.14-0.178 0.069-0.09 0.068-0.09 0.067-0.091 0.067-0.092 0.065-0.092 0.065-0.093 0.065-0.094 0.063-0.094 0.124-0.19 0.061-0.096 0.06-0.096 0.059-0.097 0.059-0.098 0.057-0.098 0.057-0.099 0.056-0.099 0.11-0.2 0.106-0.202 0.102-0.204 0.05-0.103 0.049-0.103 0.048-0.104 0.048-0.105 0.046-0.104 0.046-0.106 0.088-0.212 0.043-0.107 0.042-0.107 0.041-0.108 0.04-0.108 0.039-0.109 0.038-0.109 0.037-0.109 0.023-0.069-0.013 4e-3 -0.103 0.029-0.103 0.031-0.102 0.031-0.102 0.033-0.102 0.034-0.1 0.035-0.101 0.036-0.1 0.037-0.099 0.038-0.198 0.08-0.098 0.042-0.097 0.042-0.097 0.044-0.096 0.044-0.096 0.046-0.095 0.046-0.095 0.048-0.188 0.098-0.093 0.051-0.184 0.104-0.091 0.054-0.18 0.11-0.178 0.114-0.088 0.059-0.087 0.059-0.087 0.061-0.086 0.061-0.085 0.062-0.084 0.063-0.084 0.064-0.083 0.065-0.083 0.066-0.162 0.134-3.248 2.772-0.142-4.264-4e-3 -0.104-6e-3 -0.103-6e-3 -0.104-8e-3 -0.104-8e-3 -0.103-9e-3 -0.104-0.011-0.104-0.011-0.103-0.012-0.104-0.013-0.103-0.014-0.103-0.032-0.206-0.017-0.103-0.018-0.103-0.019-0.103-0.02-0.103-0.021-0.102-0.022-0.102-0.023-0.102-0.024-0.102-0.025-0.102-0.026-0.102-0.027-0.101-0.028-0.102-0.029-0.101-0.03-0.101-0.031-0.101-0.032-0.1-0.033-0.1-0.034-0.1-0.035-0.1-0.036-0.099-0.037-0.1-0.037-0.099-0.039-0.099-0.04-0.098-0.041-0.098-0.042-0.098-0.043-0.098-0.044-0.097-0.045-0.098-0.045-0.096-0.047-0.097-0.048-0.096-0.049-0.096-0.05-0.095-0.051-0.095-0.052-0.095-0.053-0.095-0.054-0.094-0.055-0.093-0.056-0.094-0.057-0.093-0.058-0.092-0.059-0.093-0.06-0.091-0.061-0.092-0.062-0.091-0.064-0.09-0.064-0.091-0.065-0.089-0.069-0.094-0.173-0.23-0.173 0.23z" fill="#c91818"/></g></g></svg>
