<?xml version="1.0" encoding="UTF-8"?>
<!DOCTYPE svg  PUBLIC '-//W3C//DTD SVG 1.1//EN'  'http://www.w3.org/Graphics/SVG/1.1/DTD/svg11.dtd'>
<svg clip-rule="evenodd" fill-rule="evenodd" stroke-linecap="round" stroke-linejoin="round" stroke-miterlimit="1.5" version="1.1" viewBox="0 0 32 32" xml:space="preserve" xmlns="http://www.w3.org/2000/svg">
<metadata>
<rdf:RDF xmlns:cc="http://web.resource.org/cc/" xmlns:dc="http://purl.org/dc/elements/1.1/" xmlns:rdf="http://www.w3.org/1999/02/22-rdf-syntax-ns#">

     <rdf:Description rdf:about="">
       <dc:title>Mutant Standard emoji 2023.12</dc:title>
     </rdf:Description>

    <cc:work rdf:about="">
        <cc:license rdf:resource="http://creativecommons.org/licenses/by-nc-sa/4.0/"/>
        <cc:attributionName>Caius Nocturne</cc:attributionName>
        <cc:attributionURL>http://mutant.tech/</cc:attributionURL>
    </cc:work>

</rdf:RDF>
</metadata>
<rect id="rose" width="32" height="32" fill="none"/><clipPath id="_clip1"><rect width="32" height="32"/></clipPath><g clip-path="url(#_clip1)"><g id="outline"><path d="m13.214 4.334c0.566-0.937 1.507-1.63 2.642-1.857 0.265-0.053 0.526-0.105 0.772-0.155 1.056-0.211 2.15-0.143 3.172 0.198 0.651 0.217 1.327 0.442 1.632 0.544 0.112 0.037 0.226 0.068 0.341 0.091 0.432 0.086 1.603 0.32 2.747 0.549 0.707 0.141 1.328 0.561 1.724 1.163 0.395 0.603 0.533 1.34 0.381 2.045l-0.523 2.425 2.098-1.217s-1.286 3.396-1.854 4.899c-0.176 0.463-0.266 0.955-0.266 1.451v1.555c0 0.917-0.171 1.818-0.495 2.657 1.471-0.743 2.415-1.682 2.415-1.682s-0.113 1.792-0.469 2.616c-1.213 2.815-3.962 3.75-5.478 4.057-1.206 1.181-2.703 2.051-4.366 2.506l-0.567 0.155v3.666h-2.24v-3.727l-0.769-0.253c-1.596-0.523-3.035-1.424-4.199-2.617-1.519-0.486-3.472-1.535-4.443-3.787-0.356-0.824-0.469-2.616-0.469-2.616s1.352 1.344 3.342 2.09c0.022 8e-3 0.044 0.017 0.067 0.025-0.126-0.421-0.206-0.861-0.236-1.315h-1.133s-0.683-4.314-0.92-5.814c-0.053-0.337-0.121-0.672-0.204-1.003-0.292-1.167-0.996-3.983-0.996-3.983l1.514 0.565c-0.365-1.83-0.198-3.788 2.004-4.161 1.238-0.21 2.989 0.267 4.776 0.93z" fill="none" stroke="#000" stroke-width="4px"/></g><g id="emoji"><rect x="14.88" y="23.4" width="2.24" height="6.6" fill="#607f14"/><path d="m21 23.82s4.81-0.212 6.531-4.204c0.356-0.824 0.469-2.616 0.469-2.616s-1.352 1.344-3.342 2.09c-1.627 0.61-3.658 0.526-3.658 0.526v4.204z" fill="#91bf1e"/><path d="m12 23.82s-4.81-0.212-6.531-4.204c-0.356-0.824-0.469-2.616-0.469-2.616s1.352 1.344 3.342 2.09c1.627 0.61 3.658 0.526 3.658 0.526v4.204z" fill="#91bf1e"/><path d="m7.63 10.971s-3.513-6.835 0.808-7.567c2.365-0.401 6.601 1.705 9.384 2.819 2.784 1.113-0.24 6.836-0.24 6.836h-9.812l-0.14-2.088z" fill="#6b171f"/><path d="m12.64 6.399c0-1.907 1.346-3.548 3.216-3.922 0.265-0.053 0.526-0.105 0.772-0.155 1.056-0.211 2.15-0.143 3.172 0.198 0.651 0.217 1.327 0.442 1.632 0.544 0.112 0.037 0.226 0.068 0.341 0.091 0.432 0.086 1.603 0.32 2.747 0.549 0.707 0.141 1.328 0.561 1.724 1.163 0.395 0.603 0.533 1.34 0.381 2.045-0.699 3.244-1.785 8.288-1.785 8.288h-12.2v-8.801z" fill="#9e212f"/><path d="m10.411 7.189c-5e-3 -0.898 1.125-2.752 5.791-2.687 4.528 0.062 5.789 1.773 5.789 2.687 0 1.186 0.706 9.686 0.706 9.686h-12.886l0.6-9.686z" fill="#d53447"/><rect x="12.64" y="6.182" width="6.72" height="5.04" fill="#b92335"/><ellipse cx="16" cy="6.182" rx="3.36" ry=".56" fill="#791925"/><path d="m17.079 9.774c-9e-3 -0.901 0.671-1.66 1.567-1.751 1.984-0.137 3.33-0.443 4.238-1.51 0.176 2.718 0.833 5.389 0.906 6.174 0.125 1.329-1.083 3.667-1.083 3.667h-5.562s-0.042-4.182-0.066-6.58z" fill="#db5462"/><path d="m9.749 6.142s1.894 2.318 2.852 2.694c2.034 0.799 4.009 0.73 5.23 0.557 0.843-0.126 1.701 0.085 2.39 0.588 0.123 0.088 0.248 0.179 0.372 0.27 0.835 0.61 1.329 1.582 1.329 2.616v3.955h-12.32s-1.663-3.122-1.618-4.724c0.063-2.257 1.619-4.589 1.765-5.956z" fill="#aa1d2b"/><path d="m4.92 7s2.456 0.917 4.929 1.841c3.026 1.13 5.031 4.02 5.031 7.249v1.71l-3.758 3.36h-1e-3c-2.566-1.409-4.311-3.952-4.701-6.854-0.116-0.863-0.223-1.658-0.294-2.183-0.057-0.428-0.139-0.853-0.243-1.272-0.309-1.234-0.963-3.851-0.963-3.851z" fill="#d22c3b"/><path d="m8 21s0.469 0.625 1.035 1.381c1.279 1.705 3.051 2.975 5.076 3.639 1.016 0.334 1.889 0.62 1.889 0.62s0.733-0.2 1.687-0.461c2.745-0.75 5.04-2.633 6.313-5.178v-1e-3s-0.366 0.137-0.942 0.353c-4.551 1.707-9.565 1.707-14.116 0-0.576-0.216-0.942-0.353-0.942-0.353z" fill="#91bf1e"/><path d="m8.16 17.218c0-0.342 0.145-0.669 0.399-0.9 0.586-0.532 1.726-1.566 2.79-2.531 1.526-1.384 3.593-2.011 5.63-1.708 0.378 0.056 0.758 0.113 1.121 0.167 1.541 0.229 3.114-0.072 4.461-0.854 2.287-1.327 5.639-3.272 5.639-3.272s-1.286 3.396-1.854 4.899c-0.176 0.463-0.266 0.955-0.266 1.451v1.555c0 1.956-0.777 3.832-2.16 5.215s-3.259 2.16-5.215 2.16h-4.545c-3.314 0-6-2.686-6-6v-0.182z" fill="#e74b5b"/><path d="m13.76 23.4 1.124-1.124c1.471-1.471 2.578-3.263 3.236-5.236 0.074-0.221 0.12-0.36 0.12-0.36s0.247 0.37 0.576 0.864c1.085 1.627 1.664 3.54 1.664 5.496v0.36l-3.36 1.12-3.36-1.12z" fill="#91bf1e"/></g></g></svg>
