<?xml version="1.0" encoding="UTF-8"?>
<!DOCTYPE svg  PUBLIC '-//W3C//DTD SVG 1.1//EN'  'http://www.w3.org/Graphics/SVG/1.1/DTD/svg11.dtd'>
<svg clip-rule="evenodd" fill-rule="evenodd" stroke-linecap="round" stroke-linejoin="round" stroke-miterlimit="1.5" version="1.1" viewBox="0 0 32 32" xml:space="preserve" xmlns="http://www.w3.org/2000/svg">
<metadata>
<rdf:RDF xmlns:cc="http://web.resource.org/cc/" xmlns:dc="http://purl.org/dc/elements/1.1/" xmlns:rdf="http://www.w3.org/1999/02/22-rdf-syntax-ns#">

     <rdf:Description rdf:about="">
       <dc:title>Mutant Standard emoji 2023.12</dc:title>
     </rdf:Description>

    <cc:work rdf:about="">
        <cc:license rdf:resource="http://creativecommons.org/licenses/by-nc-sa/4.0/"/>
        <cc:attributionName>Caius Nocturne</cc:attributionName>
        <cc:attributionURL>http://mutant.tech/</cc:attributionURL>
    </cc:work>

</rdf:RDF>
</metadata>
<rect id="sheaf_of_rice" width="32" height="32" fill="none"/><clipPath id="_clip1"><rect width="32" height="32"/></clipPath><g clip-path="url(#_clip1)"><g id="outline"><path d="m16.6 7.25c0.571-0.163 1.17-0.25 1.784-0.25h0.562c2.213 0 4.274 1.131 5.462 2.999 0.819 1.287 1.592 2.501 1.592 2.501s-2.56-0.914-4.583-1.637c-0.452-0.161-0.91-0.3-1.374-0.417l1.957 1.054-0.871 0.218c1.068 0.743 1.883 1.818 2.303 3.078 0.711 2.132 1.568 4.704 1.568 4.704s-1.263-1.105-2.369-2.073c-1.083-0.947-2.282-1.753-3.569-2.396-1.257-0.629-2.586-1.1-3.956-1.406-0.082 0.047-0.164 0.095-0.245 0.145l-0.139 0.524c-0.481 1.803-0.864 3.63-1.148 5.474l-1.574 10.232-3.74-9.35c-0.173-0.433-0.364-0.859-0.573-1.276-0.943-1.885-3.687-7.374-3.687-7.374h1e-3c1.153 0.231 2.23 0.635 3.207 1.182-0.805-2.201-2.011-4.243-3.566-6.019-0.09-0.104-0.142-0.163-0.142-0.163s0.576 0.082 1.261 0.18c1.425 0.204 2.695 1.004 3.493 2.202 1e-3 0 1e-3 0 1e-3 1e-3 0.076 0.114 0.147 0.229 0.214 0.347 0.049-0.297 0.104-0.594 0.163-0.89 0.704-3.518 1.368-6.84 1.368-6.84s0.086 0.172 0.222 0.445c1.107 2.213 1.711 4.641 1.773 7.112 1.13-2.814 3.017-5.316 5.521-7.194 0.305-0.229 0.484-0.363 0.484-0.363l-1.4 5.25z" fill="none" stroke="#000" stroke-width="4px"/></g><g id="emoji"><path d="m13.745 6.292c1.021-1.486 2.288-2.817 3.771-3.929 0.305-0.229 0.484-0.363 0.484-0.363s-2.126 7.974-3.278 12.294c-0.481 1.803-0.864 3.63-1.148 5.474-0.587 3.817-1.574 10.232-1.574 10.232s-0.605-6.654-1.149-12.643c-4e-3 -0.035-7e-3 -0.069-9e-3 -0.104l0.158-0.253 2.745-10.708z" fill="#5b9c41"/><path d="m13.745 6.292-0.464 4.178c-0.186 1.674-0.666 3.301-1.419 4.807-0.45 0.899-0.862 1.723-0.862 1.723l-0.158 0.253c-0.334-3.933 0.727-7.797 2.903-10.961z" fill="#487a33"/><path d="m12 30-1.923-5h1.923v5zm-3.36-21.2 1.36-6.8s0.086 0.172 0.222 0.445c1.169 2.338 1.778 4.916 1.778 7.53v8.031c0-3.24-3.36-9.206-3.36-9.206z" fill="#5b9c41"/><path d="m8.64 8.8 0.232 0.291c2.025 2.53 3.128 5.675 3.128 8.915v6.994h-1.923l-0.09-0.233c-1.951-5.073-2.421-10.597-1.355-15.927l8e-3 -0.04z" fill="#487a33"/><path d="m8 16s0.26-0.521 0.593-1.187c0.87-1.739 0.741-3.812-0.338-5.43 0-1e-3 0-1e-3 -1e-3 -1e-3 -0.798-1.198-2.068-1.998-3.493-2.202-0.685-0.098-1.261-0.18-1.261-0.18s0.052 0.059 0.142 0.163c2.2 2.514 3.703 5.561 4.358 8.837z" fill="#b7913a"/><path d="m12 30s-2.853-7.132-3.74-9.35c-0.173-0.433-0.364-0.859-0.573-1.276-0.943-1.885-3.687-7.374-3.687-7.374h1e-3c5.637 1.128 9.447 6.414 8.734 12.118-0.397 3.182-0.735 5.882-0.735 5.882z" fill="#5b9c41"/><path d="m12 12 0.372-0.93c0.983-2.458 3.364-4.07 6.012-4.07h0.562c2.213 0 4.274 1.131 5.462 2.999 0.819 1.287 1.592 2.501 1.592 2.501s-2.56-0.914-4.583-1.637c-1.6-0.571-3.285-0.863-4.983-0.863h-1e-3c-0.934 0-1.848 0.277-2.626 0.795-0.837 0.558-1.807 1.205-1.807 1.205z" fill="#b7913a"/><path d="m12 13s1.256-0.754 2.51-1.506c1.575-0.945 3.493-1.129 5.219-0.502 0 1e-3 1e-3 1e-3 1e-3 1e-3 1.75 0.636 3.113 2.037 3.702 3.803 0.711 2.132 1.568 4.704 1.568 4.704s-1.263-1.105-2.369-2.073c-1.083-0.947-2.282-1.753-3.569-2.396-1.369-0.684-2.822-1.183-4.322-1.483l-2.74-0.548z" fill="#b7913a"/><path d="m10 19v-3.143c0-1.82 0.768-3.555 2.114-4.779 0 0 1e-3 0 1e-3 -1e-3 2.028-1.844 4.999-2.208 7.413-0.908 1.328 0.715 2.472 1.331 2.472 1.331s-2.483 0.621-4.254 1.064c-1.155 0.288-2.253 0.774-3.243 1.434-1e-3 0-1e-3 0-1e-3 1e-3 -0.994 0.662-1.868 1.489-2.585 2.445-0.86 1.146-1.917 2.556-1.917 2.556z" fill="#dbc38c"/></g></g></svg>
