<?xml version="1.0" encoding="UTF-8"?>
<!DOCTYPE svg  PUBLIC '-//W3C//DTD SVG 1.1//EN'  'http://www.w3.org/Graphics/SVG/1.1/DTD/svg11.dtd'>
<svg clip-rule="evenodd" fill-rule="evenodd" stroke-linejoin="round" stroke-miterlimit="2" version="1.1" viewBox="0 0 32 32" xml:space="preserve" xmlns="http://www.w3.org/2000/svg" xmlns:serif="http://www.serif.com/">
<metadata>
<rdf:RDF xmlns:cc="http://web.resource.org/cc/" xmlns:dc="http://purl.org/dc/elements/1.1/" xmlns:rdf="http://www.w3.org/1999/02/22-rdf-syntax-ns#">

     <rdf:Description rdf:about="">
       <dc:title>Mutant Standard emoji 2023.12</dc:title>
     </rdf:Description>

    <cc:work rdf:about="">
        <cc:license rdf:resource="http://creativecommons.org/licenses/by-nc-sa/4.0/"/>
        <cc:attributionName>Caius Nocturne</cc:attributionName>
        <cc:attributionURL>http://mutant.tech/</cc:attributionURL>
    </cc:work>

</rdf:RDF>
</metadata>

    <rect id="_1f33b_sunflower" width="32" height="32" fill="none" serif:id="1f33b_sunflower"/>
    <clipPath id="_clip1">
        <rect width="32" height="32"/>
    </clipPath>
    <g clip-path="url(#_clip1)">
        <path d="m15 23.283c-0.085-0.092-0.171-0.194-0.259-0.309-0.438-0.575-0.744-1.242-0.889-1.949-0.48 0.54-1.078 0.965-1.746 1.243-0.986 0.412-1.609 0.27-1.609 0.27s-0.435-0.469-0.571-1.528c-0.092-0.718-0.024-1.449 0.204-2.134-0.685 0.228-1.416 0.297-2.133 0.204-1.06-0.136-1.529-0.57-1.529-0.57s-0.141-0.624 0.27-1.61c0.279-0.667 0.704-1.266 1.244-1.745-0.708-0.145-1.375-0.451-1.95-0.89-0.849-0.648-1.038-1.259-1.038-1.259s0.189-0.61 1.038-1.258c0.575-0.439 1.242-0.745 1.95-0.89-0.54-0.479-0.965-1.078-1.244-1.745-0.411-0.986-0.27-1.61-0.27-1.61s0.469-0.434 1.529-0.571c0.717-0.092 1.448-0.023 2.133 0.205-0.228-0.686-0.296-1.416-0.204-2.134 0.136-1.059 0.571-1.528 0.571-1.528s0.623-0.142 1.609 0.27c0.668 0.278 1.266 0.703 1.746 1.243 0.145-0.707 0.451-1.375 0.889-1.949 0.648-0.85 1.259-1.039 1.259-1.039s0.611 0.189 1.259 1.039c0.438 0.574 0.744 1.242 0.889 1.949 0.48-0.54 1.078-0.965 1.746-1.243 0.986-0.412 1.609-0.27 1.609-0.27s0.435 0.469 0.571 1.528c0.092 0.718 0.024 1.448-0.204 2.134 0.685-0.228 1.416-0.297 2.133-0.205 1.06 0.137 1.529 0.571 1.529 0.571s0.141 0.624-0.27 1.61c-0.279 0.667-0.704 1.266-1.244 1.745 0.708 0.145 1.375 0.451 1.95 0.89 0.849 0.648 1.038 1.258 1.038 1.258s-0.189 0.611-1.038 1.259c-0.575 0.439-1.242 0.745-1.95 0.89 0.54 0.479 0.965 1.078 1.244 1.745 0.411 0.986 0.27 1.61 0.27 1.61s-0.469 0.434-1.529 0.57c-0.717 0.093-1.448 0.024-2.133-0.204 0.228 0.685 0.296 1.416 0.204 2.134-0.136 1.059-0.571 1.528-0.571 1.528s-0.623 0.142-1.609-0.27c-0.668-0.278-1.266-0.703-1.746-1.243-0.145 0.707-0.451 1.374-0.889 1.949-0.088 0.115-0.174 0.217-0.259 0.309v4.05l0.768-1.279c0.727-1.212 2.176-1.784 3.535-1.396l4.697 1.342s-0.677 1.328-2.488 1.543c-1.729 0.205-4.114-0.069-5.038 0.298-1.13 0.449-1.474 1.159-1.474 1.159 0 0.552-0.448 1-1 1s-1-0.448-1-1v-1s-0.344-0.71-1.474-1.159c-0.924-0.367-3.309-0.093-5.038-0.298-1.811-0.215-2.488-1.543-2.488-1.543l4.697-1.342c1.359-0.388 2.808 0.184 3.535 1.396l0.768 1.279v-3.05z" fill="none" stroke="#000" stroke-width="4px"/>
        <path d="m17 29h-1l1.768-2.946c0.727-1.212 2.176-1.784 3.535-1.396l4.697 1.342s-0.677 1.328-2.488 1.543c-1.729 0.205-4.114-0.069-5.038 0.298-1.13 0.449-1.474 1.159-1.474 1.159zm-2-1s-0.344-0.71-1.474-1.159c-0.924-0.367-3.309-0.093-5.038-0.298-1.811-0.215-2.488-1.543-2.488-1.543l4.697-1.342c1.359-0.388 2.808 0.184 3.535 1.396l1.768 2.946h-1z" fill="#69ab00"/>
        <path d="m15 19c-0-0.552 0.448-1 1-1s1 0.448 1 1v10c0 0.552-0.448 1-1 1s-1-0.448-1-1v-10z" fill="#7dc100"/>
        <path d="m13.852 4.988c0.145-0.707 0.451-1.375 0.889-1.949 0.648-0.85 1.259-1.039 1.259-1.039s0.611 0.189 1.259 1.039c0.438 0.574 0.744 1.242 0.889 1.949 0.48-0.54 1.078-0.965 1.746-1.243 0.986-0.412 1.609-0.27 1.609-0.27s0.435 0.469 0.571 1.528c0.092 0.718 0.024 1.448-0.204 2.134 0.685-0.228 1.416-0.297 2.133-0.205 1.06 0.137 1.529 0.571 1.529 0.571s0.141 0.624-0.27 1.61c-0.279 0.667-0.704 1.266-1.244 1.745 0.708 0.145 1.375 0.451 1.95 0.89 0.849 0.648 1.038 1.258 1.038 1.258s-0.189 0.611-1.038 1.259c-0.575 0.439-1.242 0.745-1.95 0.89 0.54 0.479 0.965 1.078 1.244 1.745 0.411 0.986 0.27 1.61 0.27 1.61s-0.469 0.434-1.529 0.57c-0.717 0.093-1.448 0.024-2.133-0.204 0.228 0.685 0.296 1.416 0.204 2.134-0.136 1.059-0.571 1.528-0.571 1.528s-0.623 0.142-1.609-0.27c-0.668-0.278-1.266-0.703-1.746-1.243-0.145 0.707-0.451 1.374-0.889 1.949-0.648 0.85-1.259 1.039-1.259 1.039s-0.611-0.189-1.259-1.039c-0.438-0.575-0.744-1.242-0.889-1.949-0.48 0.54-1.078 0.965-1.746 1.243-0.986 0.412-1.609 0.27-1.609 0.27s-0.435-0.469-0.571-1.528c-0.092-0.718-0.024-1.449 0.204-2.134-0.685 0.228-1.416 0.297-2.133 0.204-1.06-0.136-1.529-0.57-1.529-0.57s-0.141-0.624 0.27-1.61c0.279-0.667 0.704-1.266 1.244-1.745-0.708-0.145-1.375-0.451-1.95-0.89-0.849-0.648-1.038-1.259-1.038-1.259s0.189-0.61 1.038-1.258c0.575-0.439 1.242-0.745 1.95-0.89-0.54-0.479-0.965-1.078-1.244-1.745-0.411-0.986-0.27-1.61-0.27-1.61s0.469-0.434 1.529-0.571c0.717-0.092 1.448-0.023 2.133 0.205-0.228-0.686-0.296-1.416-0.204-2.134 0.136-1.059 0.571-1.528 0.571-1.528s0.623-0.142 1.609 0.27c0.668 0.278 1.266 0.703 1.746 1.243z" fill="#ffbb08"/>
        <circle cx="16" cy="13" r="7.5" fill="#fa9600"/>
        <circle cx="16" cy="13" r="5" fill="#62390b"/>
        <path d="m16 7c3.311 0 6 2.689 6 6s-2.689 6-6 6-6-2.689-6-6 2.689-6 6-6zm-0.766 2.073c-1.6 0.311-2.861 1.577-3.164 3.18 0.392 0.034 0.699 0.356 0.699 0.747s-0.307 0.713-0.699 0.747c0.303 1.603 1.564 2.869 3.164 3.18 0.038-0.38 0.367-0.677 0.766-0.677s0.728 0.297 0.766 0.677c1.6-0.311 2.861-1.577 3.164-3.18-0.392-0.034-0.699-0.356-0.699-0.747s0.307-0.713 0.699-0.747c-0.303-1.603-1.564-2.869-3.164-3.18-0.038 0.38-0.367 0.677-0.766 0.677s-0.728-0.297-0.766-0.677zm2.766 5.177c0.425 0 0.769 0.336 0.769 0.75s-0.344 0.75-0.769 0.75-0.769-0.336-0.769-0.75 0.344-0.75 0.769-0.75zm0-4c0.425 0 0.769 0.336 0.769 0.75s-0.344 0.75-0.769 0.75-0.769-0.336-0.769-0.75 0.344-0.75 0.769-0.75zm-2 2c0.425 0 0.769 0.336 0.769 0.75s-0.344 0.75-0.769 0.75-0.769-0.336-0.769-0.75 0.344-0.75 0.769-0.75zm-2-2c0.425 0 0.769 0.336 0.769 0.75s-0.344 0.75-0.769 0.75-0.769-0.336-0.769-0.75 0.344-0.75 0.769-0.75zm0 4c0.425 0 0.769 0.336 0.769 0.75s-0.344 0.75-0.769 0.75-0.769-0.336-0.769-0.75 0.344-0.75 0.769-0.75z" fill="#8d4e10"/>
    </g>
</svg>
