<?xml version="1.0" encoding="UTF-8"?>
<!DOCTYPE svg  PUBLIC '-//W3C//DTD SVG 1.1//EN'  'http://www.w3.org/Graphics/SVG/1.1/DTD/svg11.dtd'>
<svg clip-rule="evenodd" fill-rule="evenodd" stroke-linecap="round" stroke-linejoin="round" stroke-miterlimit="1.5" version="1.1" viewBox="0 0 32 32" xml:space="preserve" xmlns="http://www.w3.org/2000/svg">
<metadata>
<rdf:RDF xmlns:cc="http://web.resource.org/cc/" xmlns:dc="http://purl.org/dc/elements/1.1/" xmlns:rdf="http://www.w3.org/1999/02/22-rdf-syntax-ns#">

     <rdf:Description rdf:about="">
       <dc:title>Mutant Standard S3</dc:title>
     </rdf:Description>

    <cc:work rdf:about="">
        <cc:license rdf:resource="http://creativecommons.org/licenses/by-nc-sa/4.0/"/>
        <cc:attributionName>Dzuk</cc:attributionName>
        <cc:attributionURL>http://mutant.tech/</cc:attributionURL>
    </cc:work>

</rdf:RDF>
</metadata>

    <rect id="bear_bang" width="32" height="32" fill="none"/>
    <clipPath id="_clip1">
        <rect width="32" height="32"/>
    </clipPath>
    <g clip-path="url(#_clip1)">
        <g id="outline">
            <path d="m16 2 3.182 5 7.818-4-3 7 6 1-5 5 5 5-6 1 3 7-7.818-4-3.182 5-3.182-5-7.818 4 3-7-6-1 5-5-5-5 6-1-3-7 7.818 4 3.182-5z" fill="none" stroke="#000" stroke-width="4px"/>
        </g>
        <g id="emoji">
            <path d="m16 2 3.182 5 7.818-4-3 7 6 1-5 5 5 5-6 1 3 7-7.818-4-3.182 5-3.182-5-7.818 4 3-7-6-1 5-5-5-5 6-1-3-7 7.818 4 3.182-5z" fill="#df6800"/>
            <path d="m16 5 2 5 5-3-2 5h6l-5 4 5 4h-6l2 5-5-3-2 5-2-5-5 3 2-5h-6l5-4-5-4h6l-2-5 5 3 2-5z" fill="#fdcb00"/>
            <path d="m16 10 1 2.5 3-1.5-1 2.5h3.5l-2.5 2.5 2.5 2.5h-3.5l1 2.5-3-1.5-1 2.5-1-2.5-3 1.5 1-2.5h-3.5l2.5-2.5-2.5-2.5h3.5l-1-2.5 3 1.5 1-2.5z" fill="#9d9d9d"/>
        </g>
    </g>
</svg>
