<?xml version="1.0" encoding="UTF-8"?>
<svg clip-rule="evenodd" fill-rule="evenodd" stroke-linecap="round" stroke-miterlimit="1.5" viewBox="0 0 32 32" xmlns="http://www.w3.org/2000/svg">
 <clipPath id="a">
  <path d="m0 0h32v32h-32z" clip-rule="evenodd"/>
 </clipPath>
 <path d="m0 0h32v32h-32z" fill="none"/>
 <g clip-path="url(#a)">
  <path d="m20 3c0-0.552 0.448-1 1-1h2c0.552 0 1 0.448 1 1h6v2h-6v2c0 3.314-2.686 6-6 6h3.472c0.902 0 1.693 0.604 1.93 1.474 0.457 1.675 1.214 4.452 1.794 6.577 0.518 1.899 0.317 3.922-0.563 5.683l-1.08 2.16c-0.339 0.678-1.032 1.106-1.789 1.106h-11.528c-0.757 0-1.45-0.428-1.789-1.106l-1.08-2.16c-0.88-1.761-1.081-3.784-0.563-5.683 0.58-2.125 1.337-4.902 1.794-6.577 0.237-0.87 1.028-1.474 1.93-1.474h4.472v-1c0-0.265 0.105-0.52 0.293-0.707 0.187-0.188 0.442-0.293 0.707-0.293h2c1.061 0 2.078-0.421 2.828-1.172 0.751-0.75 1.172-1.767 1.172-2.828v-1c0-0.265-0.105-0.52-0.293-0.707-0.187-0.188-0.442-0.293-0.707-0.293h-19v-2z" fill="none" stroke="#000" stroke-width="4"/>
  <path d="m2 3h28v2h-28z" fill="#363636"/>
  <path d="m21 2c-0.552 0-1 0.448-1 1v1c0 0.552 0.448 1 1 1 0.265 0 0.52 0.105 0.707 0.293 0.188 0.187 0.293 0.442 0.293 0.707v1c0 1.061-0.421 2.078-1.172 2.828-0.75 0.751-1.767 1.172-2.828 1.172h-2c-0.265 0-0.52 0.105-0.707 0.293-0.188 0.187-0.293 0.442-0.293 0.707v1l1 1h1l1-1c3.314 0 6-2.686 6-6v-4c0-0.552-0.448-1-1-1h-2z" fill="#4d4d4d"/>
  <path d="m24.955 26c-0.095 0.249-0.202 0.494-0.322 0.734l-1.08 2.16c-0.339 0.678-1.032 1.106-1.789 1.106h-11.528c-0.757 0-1.45-0.428-1.789-1.106l-1.08-2.16c-0.12-0.24-0.227-0.485-0.322-0.734l0.955-1h16z" fill="#cdb40c"/>
  <path d="m7.045 26c-.6-1.576-.688-3.309-.241-4.949.58-2.125 1.337-4.902 1.794-6.577.237-.87 1.028-1.474 1.93-1.474h10.944c.902 0 1.693.604 1.93 1.474.457 1.675 1.214 4.452 1.794 6.577.447 1.64.359 3.373-.241 4.949z" fill="#f1d417"/>
  <path d="m24.26 15.606c-0.158-0.368-0.519-0.606-0.919-0.606h-14.682c-0.4 0-0.761 0.238-0.919 0.606-0.489 1.143-1.558 3.636-2.207 5.149-0.322 0.752-0.154 1.624 0.424 2.202l0.579 0.579c0.937 0.937 2.209 1.464 3.535 1.464h11.858c1.326 0 2.598-0.527 3.535-1.464l0.579-0.579c0.578-0.578 0.746-1.45 0.424-2.202-0.649-1.513-1.718-4.006-2.207-5.149z"/>
  <path d="m18.05 14.001.049.001.05.004.049.004.049.005.048.007.049.008.048.009.048.01.048.011.047.013.047.013.046.015.046.016.046.017.045.018.045.019.045.021.043.021.044.023.043.023.042.025.042.025.041.027.04.028.04.028.039.03.039.031.037.032.037.032.037.034.035.035.035.035.034.037.032.037.032.037.031.039.03.039.028.04.028.04.027.041.025.042.025.042.023.043.023.044.021.043.021.045.019.045.018.045.017.046.016.046.015.046.013.047.013.048.011.047.01.048.009.048.008.049.007.048.005.049.004.049.004.05.001.049.001.05v11l-.001.05-.001.049-.004.05-.004.049-.005.049-.007.048-.008.049-.009.048-.01.048-.011.047-.013.048-.013.047-.015.046-.016.046-.017.046-.018.045-.019.045-.021.045-.021.043-.023.044-.023.043-.025.042-.025.042-.027.041-.028.04-.028.04-.03.039-.031.039-.032.037-.032.037-.034.037-.035.035-.035.035-.037.034-.037.032-.037.032-.039.031-.039.03-.04.028-.04.028-.041.027-.042.025-.042.025-.043.023-.044.023-.043.021-.045.021-.045.019-.045.018-.046.017-.046.016-.046.015-.047.013-.047.013-.048.011-.048.01-.048.009-.049.008-.048.007-.049.005-.049.004-.05.004-.049.001-.05.001h-4l-.05-.001-.049-.001-.05-.004-.049-.004-.049-.005-.048-.007-.049-.008-.048-.009-.048-.01-.048-.011-.047-.013-.047-.013-.046-.015-.046-.016-.046-.017-.045-.018-.045-.019-.045-.021-.043-.021-.044-.023-.043-.023-.042-.025-.042-.025-.041-.027-.04-.028-.04-.028-.039-.03-.039-.031-.037-.032-.037-.032-.037-.034-.035-.035-.035-.035-.034-.037-.032-.037-.032-.037-.031-.039-.03-.039-.028-.04-.028-.04-.027-.041-.025-.042-.025-.042-.023-.043-.023-.044-.021-.043-.021-.045-.019-.045-.018-.045-.017-.046-.016-.046-.015-.046-.013-.047-.013-.048-.011-.047-.01-.048-.009-.048-.008-.049-.007-.048-.005-.049-.004-.049-.004-.05-.001-.049-.001-.05v-11l.001-.05.001-.049.004-.05.004-.049.005-.049.007-.048.008-.049.009-.048.01-.048.011-.047.013-.048.013-.047.015-.046.016-.046.017-.046.018-.045.019-.045.021-.045.021-.043.023-.044.023-.043.025-.042.025-.042.027-.041.028-.04.028-.04.03-.039.031-.039.032-.037.032-.037.034-.037.035-.035.035-.035.037-.034.037-.032.037-.032.039-.031.039-.03.04-.028.04-.028.041-.027.042-.025.042-.025.043-.023.044-.023.043-.021.045-.021.045-.019.045-.018.046-.017.046-.016.046-.015.047-.013.047-.013.048-.011.048-.01.048-.009.049-.008.048-.007.049-.005.049-.004.05-.004.049-.001.05-.001h4zm-4.044.999h-.031l-.025.001-.024.002-.025.002-.024.003-.025.003-.024.004-.024.004-.024.006-.024.005-.023.006-.024.007-.023.008-.023.008-.023.008-.023.009-.022.01-.022.01-.022.011-.022.011-.021.012-.021.012-.021.013-.021.013-.02.014-.02.014-.019.015-.02.015-.019.016-.018.017-.018.017-.018.017-.017.018-.017.018-.017.018-.016.019-.015.02-.015.019-.014.02-.014.02-.013.021-.013.021-.012.021-.012.021-.011.022-.011.022-.01.022-.01.022-.009.023-.008.023-.008.023-.008.023-.007.024-.006.023-.005.024-.006.024-.004.024-.004.024-.003.025-.003.024-.002.025-.002.024-.001.025v.031 10.988.031l.001.025.002.024.002.025.003.024.003.025.004.024.004.024.006.024.005.024.006.023.007.024.008.023.008.023.008.023.009.023.01.022.01.022.011.022.011.022.012.021.012.021.013.021.013.021.014.02.014.02.015.019.015.02.016.019.017.018.017.018.017.018.018.017.018.017.018.017.019.015.02.016.019.015.02.014.02.014.021.013.021.013.021.012.021.012.022.011.022.011.022.01.022.01.023.009.023.008.023.008.023.008.024.007.023.006.024.005.024.006.024.004.024.004.025.003.024.003.025.002.024.002.025.001h.031 3.988.031l.025-.001.024-.002.025-.002.024-.003.025-.003.024-.004.024-.004.024-.006.024-.005.023-.006.024-.007.023-.008.023-.008.023-.008.023-.009.022-.01.022-.01.022-.011.022-.011.021-.012.021-.012.021-.013.021-.013.02-.014.02-.014.019-.015.02-.016.019-.015.018-.017.018-.017.018-.017.017-.018.017-.018.017-.018.016-.019.015-.02.015-.019.014-.02.014-.02.013-.021.013-.021.012-.021.012-.021.011-.022.011-.022.01-.022.01-.022.009-.023.008-.023.008-.023.008-.023.007-.024.006-.023.005-.024.006-.024.004-.024.004-.024.003-.025.003-.024.002-.025.002-.024.001-.025v-.031-10.988-.031l-.001-.025-.002-.024-.002-.025-.003-.024-.003-.025-.004-.024-.004-.024-.006-.024-.005-.024-.006-.023-.007-.024-.008-.023-.008-.023-.008-.023-.009-.023-.01-.022-.01-.022-.011-.022-.011-.022-.012-.021-.012-.021-.013-.021-.013-.021-.014-.02-.014-.02-.015-.019-.015-.02-.016-.019-.017-.018-.017-.018-.017-.018-.018-.017-.018-.017-.018-.017-.019-.016-.02-.015-.019-.015-.02-.014-.02-.014-.021-.013-.021-.013-.021-.012-.021-.012-.022-.011-.022-.011-.022-.01-.022-.01-.023-.009-.023-.008-.023-.008-.023-.008-.024-.007-.023-.006-.024-.005-.024-.006-.024-.004-.024-.004-.025-.003-.024-.003-.025-.002-.024-.002-.025-.001h-.031z" fill="#a38f0a"/>
 </g>
</svg>
