<?xml version="1.0" encoding="UTF-8"?>
<!DOCTYPE svg  PUBLIC '-//W3C//DTD SVG 1.1//EN'  'http://www.w3.org/Graphics/SVG/1.1/DTD/svg11.dtd'>
<svg clip-rule="evenodd" fill-rule="evenodd" stroke-linecap="round" stroke-miterlimit="1.5" version="1.1" viewBox="0 0 32 32" xml:space="preserve" xmlns="http://www.w3.org/2000/svg">
<metadata>
<rdf:RDF xmlns:cc="http://web.resource.org/cc/" xmlns:dc="http://purl.org/dc/elements/1.1/" xmlns:rdf="http://www.w3.org/1999/02/22-rdf-syntax-ns#">

     <rdf:Description rdf:about="">
       <dc:title>Mutant Standard emoji 2023.12</dc:title>
     </rdf:Description>

    <cc:work rdf:about="">
        <cc:license rdf:resource="http://creativecommons.org/licenses/by-nc-sa/4.0/"/>
        <cc:attributionName>Caius Nocturne</cc:attributionName>
        <cc:attributionURL>http://mutant.tech/</cc:attributionURL>
    </cc:work>

</rdf:RDF>
</metadata>

    <rect id="aerial_tramway" width="32" height="32" fill="none"/>
    <clipPath id="_clip1">
        <rect width="32" height="32"/>
    </clipPath>
    <g clip-path="url(#_clip1)">
        <g id="outline">
            <path d="m20 3c0-0.552 0.448-1 1-1h2c0.552 0 1 0.448 1 1h6v2h-6v2c0 3.314-2.686 6-6 6h3.472c0.902 0 1.693 0.604 1.93 1.474 0.457 1.675 1.214 4.452 1.794 6.577 0.518 1.899 0.317 3.922-0.563 5.683l-1.08 2.16c-0.339 0.678-1.032 1.106-1.789 1.106h-11.528c-0.757 0-1.45-0.428-1.789-1.106l-1.08-2.16c-0.88-1.761-1.081-3.784-0.563-5.683 0.58-2.125 1.337-4.902 1.794-6.577 0.237-0.87 1.028-1.474 1.93-1.474h4.472v-1c0-0.265 0.105-0.52 0.293-0.707 0.187-0.188 0.442-0.293 0.707-0.293h2c1.061 0 2.078-0.421 2.828-1.172 0.751-0.75 1.172-1.767 1.172-2.828v-1c0-0.265-0.105-0.52-0.293-0.707-0.187-0.188-0.442-0.293-0.707-0.293h-19v-2h18z" fill="none" stroke="#000" stroke-width="4px"/>
        </g>
        <g id="emoji">
            <rect x="2" y="3" width="28" height="2" fill="#363636"/>
            <path d="m21 2c-0.552 0-1 0.448-1 1v1c0 0.552 0.448 1 1 1 0.265 0 0.52 0.105 0.707 0.293 0.188 0.187 0.293 0.442 0.293 0.707v1c0 1.061-0.421 2.078-1.172 2.828-0.75 0.751-1.767 1.172-2.828 1.172h-2c-0.265 0-0.52 0.105-0.707 0.293-0.188 0.187-0.293 0.442-0.293 0.707v1l1 1h1l1-1c3.314 0 6-2.686 6-6v-4c0-0.552-0.448-1-1-1h-2z" fill="#4d4d4d"/>
            <path d="m24.955 26c-0.095 0.249-0.202 0.494-0.322 0.734l-1.08 2.16c-0.339 0.678-1.032 1.106-1.789 1.106h-11.528c-0.757 0-1.45-0.428-1.789-1.106l-1.08-2.16c-0.12-0.24-0.227-0.485-0.322-0.734l0.955-1h16l0.955 1z" fill="#cdb40c"/>
            <path d="m7.045 26c-0.6-1.576-0.688-3.309-0.241-4.949 0.58-2.125 1.337-4.902 1.794-6.577 0.237-0.87 1.028-1.474 1.93-1.474h10.944c0.902 0 1.693 0.604 1.93 1.474 0.457 1.675 1.214 4.452 1.794 6.577 0.447 1.64 0.359 3.373-0.241 4.949h-17.91z" fill="#f1d417"/>
            <path d="m24.26 15.606c-0.158-0.368-0.519-0.606-0.919-0.606h-14.682c-0.4 0-0.761 0.238-0.919 0.606-0.489 1.143-1.558 3.636-2.207 5.149-0.322 0.752-0.154 1.624 0.424 2.202l0.579 0.579c0.937 0.937 2.209 1.464 3.535 1.464h11.858c1.326 0 2.598-0.527 3.535-1.464l0.579-0.579c0.578-0.578 0.746-1.45 0.424-2.202-0.649-1.513-1.718-4.006-2.207-5.149z"/>
            <path d="m18.05 14.001 0.049 1e-3 0.05 4e-3 0.049 4e-3 0.049 5e-3 0.048 7e-3 0.049 8e-3 0.048 9e-3 0.048 0.01 0.048 0.011 0.094 0.026 0.046 0.015 0.046 0.016 0.046 0.017 0.045 0.018 0.045 0.019 0.045 0.021 0.043 0.021 0.044 0.023 0.043 0.023 0.084 0.05 0.041 0.027 0.08 0.056 0.039 0.03 0.039 0.031 0.074 0.064 0.037 0.034 0.07 0.07 0.034 0.037 0.064 0.074 0.031 0.039 0.03 0.039 0.056 0.08 0.027 0.041 0.05 0.084 0.023 0.043 0.023 0.044 0.021 0.043 0.021 0.045 0.019 0.045 0.018 0.045 0.017 0.046 0.016 0.046 0.015 0.046 0.013 0.047 0.013 0.048 0.011 0.047 0.01 0.048 9e-3 0.048 8e-3 0.049 7e-3 0.048 5e-3 0.049 4e-3 0.049 4e-3 0.05 1e-3 0.049 1e-3 0.05v11l-1e-3 0.05-1e-3 0.049-4e-3 0.05-4e-3 0.049-5e-3 0.049-7e-3 0.048-8e-3 0.049-9e-3 0.048-0.01 0.048-0.011 0.047-0.013 0.048-0.013 0.047-0.015 0.046-0.016 0.046-0.017 0.046-0.018 0.045-0.019 0.045-0.021 0.045-0.021 0.043-0.023 0.044-0.023 0.043-0.05 0.084-0.027 0.041-0.056 0.08-0.03 0.039-0.031 0.039-0.064 0.074-0.034 0.037-0.07 0.07-0.037 0.034-0.074 0.064-0.039 0.031-0.039 0.03-0.08 0.056-0.041 0.027-0.084 0.05-0.043 0.023-0.044 0.023-0.043 0.021-0.045 0.021-0.045 0.019-0.045 0.018-0.046 0.017-0.046 0.016-0.046 0.015-0.094 0.026-0.048 0.011-0.048 0.01-0.048 9e-3 -0.049 8e-3 -0.048 7e-3 -0.049 5e-3 -0.049 4e-3 -0.05 4e-3 -0.049 1e-3 -0.05 1e-3h-4l-0.05-1e-3 -0.049-1e-3 -0.05-4e-3 -0.049-4e-3 -0.049-5e-3 -0.048-7e-3 -0.049-8e-3 -0.048-9e-3 -0.048-0.01-0.048-0.011-0.094-0.026-0.046-0.015-0.046-0.016-0.046-0.017-0.045-0.018-0.045-0.019-0.045-0.021-0.043-0.021-0.044-0.023-0.043-0.023-0.084-0.05-0.041-0.027-0.08-0.056-0.039-0.03-0.039-0.031-0.074-0.064-0.037-0.034-0.07-0.07-0.034-0.037-0.064-0.074-0.031-0.039-0.03-0.039-0.056-0.08-0.027-0.041-0.05-0.084-0.023-0.043-0.023-0.044-0.021-0.043-0.021-0.045-0.019-0.045-0.018-0.045-0.017-0.046-0.016-0.046-0.015-0.046-0.013-0.047-0.013-0.048-0.011-0.047-0.01-0.048-9e-3 -0.048-8e-3 -0.049-7e-3 -0.048-5e-3 -0.049-4e-3 -0.049-4e-3 -0.05-1e-3 -0.049-1e-3 -0.05v-11l1e-3 -0.05 1e-3 -0.049 4e-3 -0.05 4e-3 -0.049 5e-3 -0.049 7e-3 -0.048 8e-3 -0.049 9e-3 -0.048 0.01-0.048 0.011-0.047 0.013-0.048 0.013-0.047 0.015-0.046 0.016-0.046 0.017-0.046 0.018-0.045 0.019-0.045 0.021-0.045 0.021-0.043 0.023-0.044 0.023-0.043 0.05-0.084 0.027-0.041 0.056-0.08 0.03-0.039 0.031-0.039 0.064-0.074 0.034-0.037 0.07-0.07 0.037-0.034 0.074-0.064 0.039-0.031 0.039-0.03 0.08-0.056 0.041-0.027 0.084-0.05 0.043-0.023 0.044-0.023 0.043-0.021 0.045-0.021 0.045-0.019 0.045-0.018 0.046-0.017 0.046-0.016 0.046-0.015 0.094-0.026 0.048-0.011 0.048-0.01 0.048-9e-3 0.049-8e-3 0.048-7e-3 0.049-5e-3 0.049-4e-3 0.05-4e-3 0.049-1e-3 0.05-1e-3h4l0.05 1e-3zm-4.044 0.999h-0.031l-0.025 1e-3 -0.024 2e-3 -0.025 2e-3 -0.024 3e-3 -0.025 3e-3 -0.048 8e-3 -0.024 6e-3 -0.024 5e-3 -0.023 6e-3 -0.024 7e-3 -0.069 0.024-0.023 9e-3 -0.044 0.02-0.044 0.022-0.042 0.024-0.042 0.026-0.04 0.028-0.019 0.015-0.02 0.015-0.019 0.016-0.054 0.051-0.051 0.054-0.016 0.019-0.015 0.02-0.015 0.019-0.028 0.04-0.026 0.042-0.024 0.042-0.022 0.044-0.02 0.044-9e-3 0.023-0.024 0.069-7e-3 0.024-6e-3 0.023-5e-3 0.024-6e-3 0.024-8e-3 0.048-3e-3 0.025-3e-3 0.024-2e-3 0.025-2e-3 0.024-1e-3 0.025v0.031 10.988 0.031l1e-3 0.025 2e-3 0.024 2e-3 0.025 3e-3 0.024 3e-3 0.025 8e-3 0.048 6e-3 0.024 5e-3 0.024 6e-3 0.023 7e-3 0.024 0.024 0.069 9e-3 0.023 0.02 0.044 0.022 0.044 0.024 0.042 0.026 0.042 0.028 0.04 0.015 0.019 0.015 0.02 0.016 0.019 0.051 0.054 0.054 0.051 0.019 0.015 0.02 0.016 0.019 0.015 0.04 0.028 0.042 0.026 0.042 0.024 0.044 0.022 0.044 0.02 0.023 9e-3 0.069 0.024 0.024 7e-3 0.023 6e-3 0.024 5e-3 0.024 6e-3 0.048 8e-3 0.025 3e-3 0.024 3e-3 0.025 2e-3 0.024 2e-3 0.025 1e-3h0.031 3.988 0.031l0.025-1e-3 0.024-2e-3 0.025-2e-3 0.024-3e-3 0.025-3e-3 0.048-8e-3 0.024-6e-3 0.024-5e-3 0.023-6e-3 0.024-7e-3 0.069-0.024 0.023-9e-3 0.044-0.02 0.044-0.022 0.042-0.024 0.042-0.026 0.04-0.028 0.019-0.015 0.02-0.016 0.019-0.015 0.054-0.051 0.051-0.054 0.016-0.019 0.015-0.02 0.015-0.019 0.028-0.04 0.026-0.042 0.024-0.042 0.022-0.044 0.02-0.044 9e-3 -0.023 0.024-0.069 7e-3 -0.024 6e-3 -0.023 5e-3 -0.024 6e-3 -0.024 8e-3 -0.048 3e-3 -0.025 3e-3 -0.024 2e-3 -0.025 2e-3 -0.024 1e-3 -0.025v-0.031-10.988-0.031l-1e-3 -0.025-2e-3 -0.024-2e-3 -0.025-3e-3 -0.024-3e-3 -0.025-8e-3 -0.048-6e-3 -0.024-5e-3 -0.024-6e-3 -0.023-7e-3 -0.024-0.024-0.069-9e-3 -0.023-0.02-0.044-0.022-0.044-0.024-0.042-0.026-0.042-0.028-0.04-0.015-0.019-0.015-0.02-0.016-0.019-0.051-0.054-0.054-0.051-0.019-0.016-0.02-0.015-0.019-0.015-0.04-0.028-0.042-0.026-0.042-0.024-0.044-0.022-0.044-0.02-0.023-9e-3 -0.069-0.024-0.024-7e-3 -0.023-6e-3 -0.024-5e-3 -0.024-6e-3 -0.048-8e-3 -0.025-3e-3 -0.024-3e-3 -0.025-2e-3 -0.024-2e-3 -0.025-1e-3h-0.031-3.988z" fill="#a38f0a"/>
        </g>
    </g>
</svg>
