<?xml version="1.0" encoding="UTF-8"?>
<!DOCTYPE svg  PUBLIC '-//W3C//DTD SVG 1.1//EN'  'http://www.w3.org/Graphics/SVG/1.1/DTD/svg11.dtd'>
<svg clip-rule="evenodd" fill-rule="evenodd" stroke-linecap="square" stroke-miterlimit="1.5" version="1.1" viewBox="0 0 32 32" xml:space="preserve" xmlns="http://www.w3.org/2000/svg">
<metadata>
<rdf:RDF xmlns:cc="http://web.resource.org/cc/" xmlns:dc="http://purl.org/dc/elements/1.1/" xmlns:rdf="http://www.w3.org/1999/02/22-rdf-syntax-ns#">

     <rdf:Description rdf:about="">
       <dc:title>Mutant Standard emoji 2023.12</dc:title>
     </rdf:Description>

    <cc:work rdf:about="">
        <cc:license rdf:resource="http://creativecommons.org/licenses/by-nc-sa/4.0/"/>
        <cc:attributionName>Caius Nocturne</cc:attributionName>
        <cc:attributionURL>http://mutant.tech/</cc:attributionURL>
    </cc:work>

</rdf:RDF>
</metadata>

    <rect id="high_speed_train" width="32" height="32" fill="none"/>
    <clipPath id="_clip1">
        <rect width="32" height="32"/>
    </clipPath>
    <g clip-path="url(#_clip1)">
        <g id="outline" fill="none" stroke="#000" stroke-width="4px">
            <path d="m3.433 18.914c-0.627 0.538-1.002 1.314-1.034 2.14s0.283 1.628 0.867 2.212l1e-3 1e-3c1.11 1.11 2.614 1.733 4.183 1.733h22.55v-16h-7.602c-4.774 0-9.39 1.708-13.015 4.815-2.07 1.774-4.307 3.691-5.95 5.099z"/>
            <rect x="2" y="28" width="28" height="2" stroke-linecap="round"/>
        </g>
        <g id="emoji">
            <path d="m30 23v2h-22.55c-1.569 0-3.073-0.623-4.183-1.733l-1e-3 -1e-3c-0.084-0.084-0.163-0.173-0.236-0.266l0.97-1h25l1 1z" fill="#ccc"/>
            <path d="m5.667 17s10.569-6.55 10.728-7.078c1.928-0.606 3.951-0.922 6.003-0.922h7.602v9l-1 1 1 1v3h-26.97c-0.432-0.55-0.658-1.239-0.631-1.946 0.014-0.367 0.096-0.724 0.237-1.054l2.364-1-0.5-1 1.167-1z" fill="#fff"/>
            <path d="m16.395 9.922c-0.159 0.528-0.463 1.013-0.896 1.392-1.67 1.46-4.307 3.768-5.651 4.944-0.547 0.478-1.249 0.742-1.975 0.742h-2.206l3.716-3.185c2.066-1.772 4.455-3.088 7.012-3.893z"/>
            <path d="m30 20h-27.364c0.178-0.414 0.448-0.787 0.797-1.086l1.067-0.914h25.5v2z" fill="#f31e1e"/>
            <path d="m3.433 18.914c-0.627 0.538-1.002 1.314-1.034 2.14s0.283 1.628 0.867 2.212l1e-3 1e-3c1.11 1.11 2.614 1.733 4.183 1.733h22.55v-16h-7.602c-4.774 0-9.39 1.708-13.015 4.815-2.07 1.774-4.307 3.691-5.95 5.099z" fill="none"/>
            <clipPath id="_clip2">
                <path d="m3.433 18.914c-0.627 0.538-1.002 1.314-1.034 2.14s0.283 1.628 0.867 2.212l1e-3 1e-3c1.11 1.11 2.614 1.733 4.183 1.733h22.55v-16h-7.602c-4.774 0-9.39 1.708-13.015 4.815-2.07 1.774-4.307 3.691-5.95 5.099z"/>
            </clipPath>
            <g clip-path="url(#_clip2)">
                <path d="m3.904 17.56s3.493 1.317 3.493 4.472c0 2.612-3.73 4.008-3.73 4.008" fill="none" stroke="#a8a8a8" stroke-linecap="round" stroke-linejoin="round" stroke-width="1px"/>
            </g>
            
                <path d="m20 13c0-0.552-0.448-1-1-1h-1c-0.552 0-1 0.448-1 1v3c0 0.552 0.448 1 1 1h1c0.552 0 1-0.448 1-1v-3z"/>
                <path d="m26 13.5c0-0.398-0.158-0.779-0.439-1.061-0.282-0.281-0.663-0.439-1.061-0.439s-0.779 0.158-1.061 0.439c-0.281 0.282-0.439 0.663-0.439 1.061v2c0 0.398 0.158 0.779 0.439 1.061 0.282 0.281 0.663 0.439 1.061 0.439s0.779-0.158 1.061-0.439c0.281-0.282 0.439-0.663 0.439-1.061v-2z"/>
                <path d="m31 13.5c0-0.398-0.158-0.779-0.439-1.061-0.282-0.281-0.663-0.439-1.061-0.439s-0.779 0.158-1.061 0.439c-0.281 0.282-0.439 0.663-0.439 1.061v2c0 0.398 0.158 0.779 0.439 1.061 0.282 0.281 0.663 0.439 1.061 0.439s0.779-0.158 1.061-0.439c0.281-0.282 0.439-0.663 0.439-1.061v-2z"/>
            
            <rect x="2" y="28" width="28" height="2" fill="#666"/>
            <path d="m19.05 11.001 0.049 1e-3 0.05 4e-3 0.049 4e-3 0.049 5e-3 0.048 7e-3 0.049 8e-3 0.048 9e-3 0.048 0.01 0.047 0.011 0.048 0.013 0.047 0.013 0.046 0.015 0.046 0.016 0.046 0.017 0.045 0.018 0.045 0.019 0.045 0.021 0.043 0.021 0.044 0.023 0.043 0.023 0.084 0.05 0.041 0.027 0.08 0.056 0.039 0.03 0.039 0.031 0.074 0.064 0.037 0.034 0.07 0.07 0.034 0.037 0.064 0.074 0.031 0.039 0.03 0.039 0.056 0.08 0.027 0.041 0.05 0.084 0.023 0.043 0.023 0.044 0.021 0.043 0.021 0.045 0.019 0.045 0.018 0.045 0.017 0.046 0.016 0.046 0.015 0.046 0.013 0.047 0.013 0.048 0.011 0.047 0.01 0.048 9e-3 0.048 8e-3 0.049 7e-3 0.048 5e-3 0.049 4e-3 0.049 4e-3 0.05 1e-3 0.049 1e-3 0.05v6l-1e-3 0.05-1e-3 0.049-4e-3 0.05-4e-3 0.049-5e-3 0.049-7e-3 0.048-8e-3 0.049-9e-3 0.048-0.01 0.048-0.011 0.047-0.013 0.048-0.013 0.047-0.015 0.046-0.016 0.046-0.017 0.046-0.018 0.045-0.019 0.045-0.021 0.045-0.021 0.043-0.023 0.044-0.023 0.043-0.05 0.084-0.027 0.041-0.056 0.08-0.03 0.039-0.031 0.039-0.064 0.074-0.034 0.037-0.07 0.07-0.037 0.034-0.074 0.064-0.039 0.031-0.039 0.03-0.08 0.056-0.041 0.027-0.084 0.05-0.043 0.023-0.044 0.023-0.043 0.021-0.045 0.021-0.045 0.019-0.045 0.018-0.046 0.017-0.046 0.016-0.046 0.015-0.047 0.013-0.048 0.013-0.047 0.011-0.048 0.01-0.048 9e-3 -0.049 8e-3 -0.048 7e-3 -0.049 5e-3 -0.049 4e-3 -0.05 4e-3 -0.049 1e-3 -0.05 1e-3h-1l-0.05-1e-3 -0.049-1e-3 -0.05-4e-3 -0.049-4e-3 -0.049-5e-3 -0.048-7e-3 -0.049-8e-3 -0.048-9e-3 -0.048-0.01-0.047-0.011-0.048-0.013-0.047-0.013-0.046-0.015-0.046-0.016-0.046-0.017-0.045-0.018-0.045-0.019-0.045-0.021-0.043-0.021-0.044-0.023-0.043-0.023-0.084-0.05-0.041-0.027-0.08-0.056-0.039-0.03-0.039-0.031-0.074-0.064-0.037-0.034-0.07-0.07-0.034-0.037-0.064-0.074-0.031-0.039-0.03-0.039-0.056-0.08-0.027-0.041-0.05-0.084-0.023-0.043-0.023-0.044-0.021-0.043-0.021-0.045-0.019-0.045-0.018-0.045-0.017-0.046-0.016-0.046-0.015-0.046-0.013-0.047-0.013-0.048-0.011-0.047-0.01-0.048-9e-3 -0.048-8e-3 -0.049-7e-3 -0.048-5e-3 -0.049-4e-3 -0.049-4e-3 -0.05-1e-3 -0.049-1e-3 -0.05v-6l1e-3 -0.05 1e-3 -0.049 4e-3 -0.05 4e-3 -0.049 5e-3 -0.049 7e-3 -0.048 8e-3 -0.049 9e-3 -0.048 0.01-0.048 0.011-0.047 0.013-0.048 0.013-0.047 0.015-0.046 0.016-0.046 0.017-0.046 0.018-0.045 0.019-0.045 0.021-0.045 0.021-0.043 0.023-0.044 0.023-0.043 0.05-0.084 0.027-0.041 0.056-0.08 0.03-0.039 0.031-0.039 0.064-0.074 0.034-0.037 0.07-0.07 0.037-0.034 0.074-0.064 0.039-0.031 0.039-0.03 0.08-0.056 0.041-0.027 0.084-0.05 0.043-0.023 0.044-0.023 0.043-0.021 0.045-0.021 0.045-0.019 0.045-0.018 0.046-0.017 0.046-0.016 0.046-0.015 0.047-0.013 0.048-0.013 0.047-0.011 0.048-0.01 0.048-9e-3 0.049-8e-3 0.048-7e-3 0.049-5e-3 0.049-4e-3 0.05-4e-3 0.049-1e-3 0.05-1e-3h1l0.05 1e-3zm-1.044 0.999h-0.031l-0.025 1e-3 -0.024 2e-3 -0.025 2e-3 -0.024 3e-3 -0.025 3e-3 -0.048 8e-3 -0.024 6e-3 -0.024 5e-3 -0.023 6e-3 -0.024 7e-3 -0.069 0.024-0.023 9e-3 -0.044 0.02-0.044 0.022-0.042 0.024-0.042 0.026-0.04 0.028-0.02 0.015-0.019 0.015-0.018 0.016-0.019 0.017-0.036 0.034-0.051 0.054-0.015 0.019-0.016 0.02-0.015 0.019-0.028 0.04-0.026 0.042-0.024 0.042-0.022 0.044-0.02 0.044-9e-3 0.023-0.024 0.069-7e-3 0.024-6e-3 0.023-5e-3 0.024-6e-3 0.024-8e-3 0.048-3e-3 0.025-3e-3 0.024-2e-3 0.025-2e-3 0.024-1e-3 0.025v0.031 5.988 0.031l1e-3 0.025 2e-3 0.024 2e-3 0.025 3e-3 0.024 3e-3 0.025 8e-3 0.048 6e-3 0.024 5e-3 0.024 6e-3 0.023 7e-3 0.024 0.024 0.069 9e-3 0.023 0.02 0.044 0.022 0.044 0.024 0.042 0.026 0.042 0.028 0.04 0.015 0.019 0.016 0.02 0.015 0.019 0.051 0.054 0.036 0.034 0.019 0.017 0.018 0.016 0.019 0.015 0.02 0.015 0.04 0.028 0.042 0.026 0.042 0.024 0.044 0.022 0.044 0.02 0.023 9e-3 0.069 0.024 0.024 7e-3 0.023 6e-3 0.024 5e-3 0.024 6e-3 0.048 8e-3 0.025 3e-3 0.024 3e-3 0.025 2e-3 0.024 2e-3 0.025 1e-3h0.031 0.988 0.031l0.025-1e-3 0.024-2e-3 0.025-2e-3 0.024-3e-3 0.025-3e-3 0.048-8e-3 0.024-6e-3 0.024-5e-3 0.023-6e-3 0.024-7e-3 0.069-0.024 0.023-9e-3 0.044-0.02 0.044-0.022 0.042-0.024 0.042-0.026 0.04-0.028 0.02-0.015 0.019-0.015 0.018-0.016 0.019-0.017 0.036-0.034 0.051-0.054 0.015-0.019 0.016-0.02 0.015-0.019 0.028-0.04 0.026-0.042 0.024-0.042 0.022-0.044 0.02-0.044 9e-3 -0.023 0.024-0.069 7e-3 -0.024 6e-3 -0.023 5e-3 -0.024 6e-3 -0.024 8e-3 -0.048 3e-3 -0.025 3e-3 -0.024 2e-3 -0.025 2e-3 -0.024 1e-3 -0.025v-0.031-5.988-0.031l-1e-3 -0.025-2e-3 -0.024-2e-3 -0.025-3e-3 -0.024-3e-3 -0.025-8e-3 -0.048-6e-3 -0.024-5e-3 -0.024-6e-3 -0.023-7e-3 -0.024-0.024-0.069-9e-3 -0.023-0.02-0.044-0.022-0.044-0.024-0.042-0.026-0.042-0.028-0.04-0.015-0.019-0.016-0.02-0.015-0.019-0.051-0.054-0.036-0.034-0.019-0.017-0.018-0.016-0.019-0.015-0.02-0.015-0.04-0.028-0.042-0.026-0.042-0.024-0.044-0.022-0.044-0.02-0.023-9e-3 -0.069-0.024-0.024-7e-3 -0.023-6e-3 -0.024-5e-3 -0.024-6e-3 -0.048-8e-3 -0.025-3e-3 -0.024-3e-3 -0.025-2e-3 -0.024-2e-3 -0.025-1e-3h-0.031-0.988z" fill="#a6a6a6"/>
        </g>
    </g>
</svg>
