<?xml version="1.0" encoding="UTF-8"?>
<!DOCTYPE svg  PUBLIC '-//W3C//DTD SVG 1.1//EN'  'http://www.w3.org/Graphics/SVG/1.1/DTD/svg11.dtd'>
<svg clip-rule="evenodd" fill-rule="evenodd" stroke-linecap="round" stroke-miterlimit="1.5" version="1.1" viewBox="0 0 32 32" xml:space="preserve" xmlns="http://www.w3.org/2000/svg">
<metadata>
<rdf:RDF xmlns:cc="http://web.resource.org/cc/" xmlns:dc="http://purl.org/dc/elements/1.1/" xmlns:rdf="http://www.w3.org/1999/02/22-rdf-syntax-ns#">

     <rdf:Description rdf:about="">
       <dc:title>Mutant Standard emoji 2023.12</dc:title>
     </rdf:Description>

    <cc:work rdf:about="">
        <cc:license rdf:resource="http://creativecommons.org/licenses/by-nc-sa/4.0/"/>
        <cc:attributionName>Caius Nocturne</cc:attributionName>
        <cc:attributionURL>http://mutant.tech/</cc:attributionURL>
    </cc:work>

</rdf:RDF>
</metadata>

    <rect id="light_rail" width="32" height="32" fill="none"/>
    <clipPath id="_clip1">
        <rect width="32" height="32"/>
    </clipPath>
    <g clip-path="url(#_clip1)">
        <g id="outline">
            <rect x="2" y="28" width="28" height="2" fill="none" stroke="#000" stroke-width="4px"/>
            <path d="m30.149 6.006 0.149 0.016 0.147 0.028 0.145 0.039 0.141 0.049 0.137 0.06 0.132 0.07 0.127 0.08 0.12 0.088 0.113 0.098 0.106 0.106 0.098 0.113 0.088 0.12 0.08 0.127 0.07 0.132 0.06 0.137 0.049 0.141 0.039 0.145 0.028 0.147 0.016 0.149 6e-3 0.149v18l-6e-3 0.149-0.016 0.149-0.028 0.147-0.039 0.145-0.049 0.141-0.06 0.137-0.07 0.132-0.08 0.127-0.088 0.12-0.098 0.113-0.106 0.106-0.113 0.098-0.12 0.088-0.127 0.08-0.132 0.07-0.137 0.06-0.141 0.049-0.145 0.039-0.147 0.028-0.149 0.016-0.149 6e-3h-26.021l-0.09-1e-3 -0.102-4e-3 -0.101-6e-3 -0.101-9e-3 -0.1-0.012-0.1-0.014-0.099-0.016-0.098-0.019-0.098-0.021-0.096-0.024-0.096-0.026-0.095-0.028-0.094-0.03-0.092-0.033-0.092-0.035-0.09-0.037-0.09-0.039-0.088-0.041-0.087-0.043-0.086-0.045-0.084-0.048-0.083-0.049-0.082-0.051-0.081-0.053-0.078-0.054-0.078-0.057-0.076-0.058-0.075-0.06-0.073-0.062-0.072-0.064-0.069-0.065-0.069-0.066-0.067-0.069-0.065-0.07-0.064-0.071-0.061-0.073-0.06-0.075-0.059-0.076-0.057-0.078-0.054-0.079-0.053-0.08-0.051-0.082-0.049-0.083-0.048-0.084-0.045-0.086-0.043-0.087-0.041-0.088-0.04-0.089-0.037-0.091-0.035-0.091-0.032-0.093-0.031-0.094-0.028-0.095-0.026-0.095-0.024-0.097-0.021-0.098-0.019-0.098-0.016-0.099-0.014-0.099-0.012-0.101-9e-3 -0.1-6e-3 -0.102-4e-3 -0.102-2e-3 -0.089v-0.753-0.775l3e-3 -0.772 3e-3 -0.376 3e-3 -0.362 3e-3 -0.214 4e-3 -0.213 5e-3 -0.212 6e-3 -0.21 7e-3 -0.208 8e-3 -0.207 9e-3 -0.205 0.011-0.204 0.011-0.203 0.012-0.2 0.014-0.2 0.014-0.197 0.016-0.196 0.016-0.195 0.018-0.193 0.018-0.191 0.019-0.19 0.021-0.189 0.021-0.187 0.023-0.185 0.023-0.184 0.024-0.182 0.026-0.181 0.026-0.179 0.027-0.178 0.028-0.176 0.029-0.175 0.03-0.173 0.031-0.172 0.032-0.17 0.033-0.169 0.034-0.167 0.034-0.166 0.036-0.164 0.036-0.163 0.038-0.162 0.038-0.159 0.039-0.159 0.04-0.157 0.041-0.155 0.042-0.154 0.042-0.152 0.044-0.151 0.044-0.149 0.045-0.149 0.047-0.146 0.047-0.145 0.048-0.144 0.048-0.142 0.05-0.141 0.05-0.139 0.052-0.138 0.052-0.136 0.053-0.135 0.054-0.134 0.055-0.132 0.055-0.13 0.057-0.129 0.057-0.128 0.058-0.127 0.059-0.124 0.06-0.124 0.061-0.122 0.062-0.121 0.062-0.119 0.128-0.234 0.065-0.115 0.066-0.113 0.067-0.112 0.136-0.22 0.07-0.107 0.071-0.106 0.071-0.105 0.072-0.104 0.148-0.202 0.075-0.099 0.076-0.097 0.077-0.096 0.078-0.094 0.079-0.093 0.08-0.092 0.081-0.09 0.081-0.088 0.083-0.087 0.084-0.085 0.085-0.084 0.086-0.082 0.087-0.08 0.088-0.079 0.088-0.077 0.09-0.075 0.091-0.074 0.092-0.072 0.093-0.071 0.094-0.068 0.095-0.067 0.096-0.065 0.097-0.063 0.098-0.061 0.1-0.059 0.1-0.057 0.1-0.055 0.103-0.054 0.103-0.051 0.103-0.049 0.105-0.047 0.106-0.045 0.106-0.042 0.107-0.041 0.109-0.038 0.108-0.036 0.11-0.033 0.11-0.031 0.111-0.029 0.111-0.026 0.112-0.024 0.113-0.022 0.113-0.019 0.113-0.016 0.113-0.014 0.114-0.012 0.114-9e-3 0.114-6e-3 0.115-4e-3 0.103-1e-3h22.011l0.149 6e-3zm-22.149 1.994-0.07 1e-3 -0.069 2e-3 -0.07 4e-3 -0.07 5e-3 -0.069 7e-3 -0.07 9e-3 -0.069 0.01-0.07 0.012-0.069 0.013-0.069 0.015-0.07 0.016-0.069 0.018-0.068 0.02-0.069 0.021-0.069 0.022-0.068 0.024-0.069 0.026-0.136 0.056-0.068 0.031-0.068 0.032-0.067 0.033-0.068 0.036-0.067 0.036-0.067 0.039-0.067 0.04-0.066 0.041-0.066 0.043-0.066 0.045-0.066 0.046-0.066 0.048-0.065 0.049-0.065 0.051-0.065 0.052-0.064 0.054-0.064 0.056-0.064 0.057-0.064 0.059-0.063 0.06-0.063 0.062-0.062 0.064-0.062 0.065-0.062 0.067-0.062 0.068-0.061 0.07-0.061 0.072-0.06 0.073-0.06 0.074-0.06 0.077-0.059 0.078-0.058 0.079-0.059 0.081-0.058 0.083-0.057 0.084-0.057 0.086-0.057 0.087-0.056 0.089-0.055 0.091-0.055 0.092-0.055 0.094-0.054 0.095-0.054 0.097-0.053 0.099-0.052 0.1-0.053 0.102-0.051 0.104-0.051 0.105-0.05 0.106-0.1 0.218-0.048 0.112-0.049 0.113-0.047 0.115-0.047 0.116-0.046 0.118-0.046 0.119-0.09 0.244-0.044 0.125-0.043 0.126-0.042 0.127-0.042 0.13-0.041 0.13-0.041 0.133-0.04 0.134-0.039 0.136-0.038 0.137-0.038 0.139-0.037 0.14-0.072 0.286-0.035 0.146-0.034 0.147-0.033 0.148-0.032 0.151-0.032 0.152-0.031 0.153-0.03 0.155-0.03 0.157-0.028 0.159-0.028 0.16-0.027 0.161-0.026 0.164-0.025 0.165-0.024 0.166-0.024 0.169-0.023 0.169-0.021 0.172-0.021 0.173-0.02 0.175-0.02 0.176-0.018 0.178-0.017 0.18-0.017 0.181-0.015 0.183-0.015 0.185-0.013 0.186-0.013 0.188-0.011 0.19-0.011 0.191-0.01 0.193-9e-3 0.194-0.014 0.394-6e-3 0.2-5e-3 0.201-3e-3 0.203-3e-3 0.204-3e-3 0.356-3e-3 0.371-3e-3 0.766v0.77 0.739l1e-3 0.051 2e-3 0.051 3e-3 0.051 5e-3 0.051 6e-3 0.05 7e-3 0.05 8e-3 0.049 9e-3 0.049 0.011 0.049 0.012 0.048 0.013 0.048 0.014 0.047 0.015 0.047 0.016 0.046 0.018 0.045 0.018 0.046 0.04 0.088 0.044 0.086 0.048 0.084 0.026 0.041 0.026 0.04 0.028 0.04 0.028 0.038 0.06 0.076 0.031 0.036 0.032 0.036 0.032 0.035 0.034 0.035 0.034 0.033 0.035 0.033 0.036 0.032 0.037 0.031 0.037 0.03 0.038 0.029 0.039 0.028 0.04 0.028 0.04 0.026 0.041 0.026 0.041 0.024 0.043 0.024 0.042 0.022 0.044 0.022 0.044 0.021 0.044 0.019 0.045 0.018 0.046 0.018 0.046 0.016 0.047 0.015 0.047 0.014 0.048 0.013 0.048 0.012 0.098 0.02 0.049 8e-3 0.05 7e-3 0.05 6e-3 0.051 4e-3 0.051 3e-3 0.051 2e-3 0.051 1e-3h26.009v-18h-22z"/>
            <path d="m19 9-6-3 6-3h1" fill="none" stroke="#000" stroke-linecap="butt" stroke-linejoin="round" stroke-width="6px"/>
            <path d="m20 4 1 1h1v-3h-3v2h1z" fill="none" stroke="#000" stroke-linejoin="round" stroke-width="4px"/>
        </g>
        <g id="emoji">
            <path d="m19 9-6-3 6-3h1" fill="none" stroke="#737373" stroke-linecap="square" stroke-linejoin="round" stroke-width="2px"/>
            <path d="m20 4 1 1h1v-3h-3v2h1z" fill="#8c8c8c"/>
            
                <path d="m1.991 23 1.009-1h26l1 1v3h-26.009c-1.104 0-1.999-0.894-2-1.998 0-0.319-1e-3 -0.658 0-1.002zm9e-3 -2c0.056-5.3 1.152-8.947 2.669-11l2.331-1h22l1 1v11l-1 1h-25-1l-1-1z" fill="#e6e6e6"/>
                <path d="m2 21h28v2h-28.009c0-0.681 3e-3 -1.384 9e-3 -2z" fill="#67db40"/>
                <path d="m30 10h-25.331c0.989-1.339 2.156-2 3.331-2h22v2z" fill="#fff"/>
            
            
                <path d="m29 13c0-0.552-0.448-1-1-1h-15c-0.552 0-1 0.448-1 1v7c0 0.552 0.448 1 1 1h15c0.552 0 1-0.448 1-1v-7z"/>
                <path d="m10 12.993c0-0.551-0.446-0.998-0.997-1-0.456-1e-3 -1.026 0-1.618 7e-3 -1.619 0.02-3.405 3.893-3.385 6.958 2e-3 0.304 2e-3 0.689 2e-3 1.043 1e-3 0.552 0.448 0.999 1 0.999h3.998c0.265 0 0.52-0.105 0.707-0.293 0.188-0.187 0.293-0.442 0.293-0.707v-7.007z"/>
            
            <rect x="2" y="28" width="28" height="2" fill="#666"/>
            <path d="m27.052 11.001 0.051 2e-3 0.051 3e-3 0.05 4e-3 0.051 6e-3 0.05 7e-3 0.049 8e-3 0.098 0.02 0.048 0.012 0.048 0.013 0.047 0.014 0.046 0.015 0.047 0.016 0.09 0.036 0.045 0.02 0.044 0.02 0.086 0.044 0.043 0.024 0.082 0.05 0.08 0.054 0.039 0.028 0.038 0.03 0.037 0.03 0.037 0.031 0.036 0.032 0.035 0.032 0.068 0.068 0.032 0.035 0.032 0.036 0.031 0.037 0.03 0.037 0.03 0.038 0.028 0.039 0.054 0.08 0.05 0.082 0.024 0.043 0.022 0.042 0.022 0.044 0.02 0.044 0.02 0.045 0.036 0.09 0.016 0.047 0.015 0.046 0.014 0.047 0.013 0.048 0.012 0.048 0.02 0.098 8e-3 0.049 7e-3 0.05 6e-3 0.051 4e-3 0.05 3e-3 0.051 2e-3 0.051 1e-3 0.052v10l-1e-3 0.052-2e-3 0.051-3e-3 0.051-4e-3 0.05-6e-3 0.051-7e-3 0.05-8e-3 0.049-0.02 0.098-0.012 0.048-0.013 0.048-0.014 0.047-0.015 0.046-0.016 0.047-0.036 0.09-0.02 0.045-0.02 0.044-0.022 0.044-0.022 0.042-0.024 0.043-0.05 0.082-0.054 0.08-0.028 0.039-0.03 0.038-0.03 0.037-0.031 0.037-0.032 0.036-0.032 0.035-0.068 0.068-0.035 0.032-0.036 0.032-0.037 0.031-0.037 0.03-0.038 0.03-0.039 0.028-0.08 0.054-0.082 0.05-0.043 0.024-0.086 0.044-0.044 0.02-0.045 0.02-0.09 0.036-0.047 0.016-0.046 0.015-0.047 0.014-0.048 0.013-0.048 0.012-0.098 0.02-0.049 8e-3 -0.05 7e-3 -0.051 6e-3 -0.05 4e-3 -0.051 3e-3 -0.051 2e-3 -0.052 1e-3h-5l-0.052-1e-3 -0.051-2e-3 -0.051-3e-3 -0.05-4e-3 -0.051-6e-3 -0.05-7e-3 -0.049-8e-3 -0.098-0.02-0.048-0.012-0.048-0.013-0.047-0.014-0.046-0.015-0.047-0.016-0.09-0.036-0.045-0.02-0.044-0.02-0.086-0.044-0.043-0.024-0.082-0.05-0.08-0.054-0.039-0.028-0.038-0.03-0.037-0.03-0.037-0.031-0.036-0.032-0.035-0.032-0.068-0.068-0.032-0.035-0.032-0.036-0.031-0.037-0.03-0.037-0.03-0.038-0.028-0.039-0.054-0.08-0.05-0.082-0.024-0.043-0.022-0.042-0.022-0.044-0.02-0.044-0.02-0.045-0.036-0.09-0.016-0.047-0.015-0.046-0.014-0.047-0.013-0.048-0.012-0.048-0.02-0.098-8e-3 -0.049-7e-3 -0.05-6e-3 -0.051-4e-3 -0.05-3e-3 -0.051-2e-3 -0.051-1e-3 -0.052v-10l1e-3 -0.052 2e-3 -0.051 3e-3 -0.051 4e-3 -0.05 6e-3 -0.051 7e-3 -0.05 8e-3 -0.049 0.02-0.098 0.012-0.048 0.013-0.048 0.014-0.047 0.015-0.046 0.016-0.047 0.036-0.09 0.02-0.045 0.02-0.044 0.022-0.044 0.022-0.042 0.024-0.043 0.05-0.082 0.054-0.08 0.028-0.039 0.03-0.038 0.03-0.037 0.031-0.037 0.032-0.036 0.032-0.035 0.068-0.068 0.035-0.032 0.036-0.032 0.037-0.031 0.037-0.03 0.038-0.03 0.039-0.028 0.08-0.054 0.082-0.05 0.043-0.024 0.086-0.044 0.044-0.02 0.045-0.02 0.09-0.036 0.047-0.016 0.046-0.015 0.047-0.014 0.048-0.013 0.048-0.012 0.098-0.02 0.049-8e-3 0.05-7e-3 0.051-6e-3 0.05-4e-3 0.051-3e-3 0.051-2e-3 0.052-1e-3h5l0.052 1e-3zm-5.046 0.999h-0.032l-0.026 1e-3 -0.026 2e-3 -0.025 2e-3 -0.026 3e-3 -0.025 4e-3 -0.024 4e-3 -0.025 4e-3 -0.048 0.012-0.023 6e-3 -0.024 7e-3 -0.023 7e-3 -0.023 8e-3 -0.023 9e-3 -0.022 9e-3 -0.044 0.02-0.022 0.011-0.021 0.011-0.042 0.024-0.04 0.026-0.04 0.028-0.038 0.03-0.054 0.048-0.034 0.034-0.048 0.054-0.03 0.038-0.028 0.04-0.026 0.04-0.024 0.042-0.011 0.021-0.011 0.022-0.02 0.044-9e-3 0.022-9e-3 0.023-8e-3 0.023-7e-3 0.023-7e-3 0.024-6e-3 0.023-6e-3 0.024-6e-3 0.025-8e-3 0.048-4e-3 0.025-3e-3 0.026-2e-3 0.025-2e-3 0.026-1e-3 0.026v0.032 9.988 0.032l1e-3 0.026 2e-3 0.026 2e-3 0.025 3e-3 0.026 4e-3 0.025 8e-3 0.048 6e-3 0.025 6e-3 0.024 6e-3 0.023 7e-3 0.024 7e-3 0.023 8e-3 0.023 9e-3 0.023 9e-3 0.022 0.02 0.044 0.011 0.022 0.011 0.021 0.024 0.042 0.026 0.04 0.028 0.04 0.03 0.038 0.048 0.054 0.034 0.034 0.054 0.048 0.038 0.03 0.04 0.028 0.04 0.026 0.042 0.024 0.021 0.011 0.022 0.011 0.044 0.02 0.022 9e-3 0.023 8e-3 0.023 9e-3 0.023 7e-3 0.024 7e-3 0.023 7e-3 0.024 5e-3 0.024 6e-3 0.025 4e-3 0.024 4e-3 0.025 4e-3 0.026 3e-3 0.025 2e-3 0.026 2e-3 0.026 1e-3h0.032 4.988 0.032l0.026-1e-3 0.026-2e-3 0.025-2e-3 0.026-3e-3 0.025-4e-3 0.024-4e-3 0.025-4e-3 0.024-6e-3 0.024-5e-3 0.023-7e-3 0.024-7e-3 0.023-7e-3 0.023-9e-3 0.023-8e-3 0.022-9e-3 0.044-0.02 0.022-0.011 0.021-0.011 0.042-0.024 0.04-0.026 0.04-0.028 0.038-0.03 0.054-0.048 0.034-0.034 0.048-0.054 0.03-0.038 0.028-0.04 0.026-0.04 0.024-0.042 0.011-0.021 0.011-0.022 0.02-0.044 9e-3 -0.022 9e-3 -0.023 8e-3 -0.023 7e-3 -0.023 7e-3 -0.024 7e-3 -0.023 5e-3 -0.024 6e-3 -0.024 4e-3 -0.025 4e-3 -0.024 4e-3 -0.025 3e-3 -0.026 2e-3 -0.025 2e-3 -0.026 1e-3 -0.026v-0.032-9.988-0.032l-1e-3 -0.026-2e-3 -0.026-2e-3 -0.025-3e-3 -0.026-4e-3 -0.025-4e-3 -0.024-4e-3 -0.025-6e-3 -0.024-5e-3 -0.024-7e-3 -0.023-7e-3 -0.024-7e-3 -0.023-8e-3 -0.023-9e-3 -0.023-9e-3 -0.022-0.02-0.044-0.011-0.022-0.011-0.021-0.024-0.042-0.026-0.04-0.028-0.04-0.03-0.038-0.048-0.054-0.034-0.034-0.054-0.048-0.038-0.03-0.04-0.028-0.04-0.026-0.042-0.024-0.021-0.011-0.022-0.011-0.044-0.02-0.022-9e-3 -0.023-9e-3 -0.023-8e-3 -0.023-7e-3 -0.024-7e-3 -0.023-6e-3 -0.048-0.012-0.025-4e-3 -0.024-4e-3 -0.025-4e-3 -0.026-3e-3 -0.025-2e-3 -0.026-2e-3 -0.026-1e-3h-0.032-4.988z" fill="#a6a6a6"/>
        </g>
    </g>
</svg>
