<?xml version="1.0" encoding="UTF-8"?>
<!DOCTYPE svg  PUBLIC '-//W3C//DTD SVG 1.1//EN'  'http://www.w3.org/Graphics/SVG/1.1/DTD/svg11.dtd'>
<svg clip-rule="evenodd" fill-rule="evenodd" stroke-linecap="round" stroke-linejoin="round" stroke-miterlimit="1.5" version="1.1" viewBox="0 0 32 32" xml:space="preserve" xmlns="http://www.w3.org/2000/svg">
<metadata>
<rdf:RDF xmlns:cc="http://web.resource.org/cc/" xmlns:dc="http://purl.org/dc/elements/1.1/" xmlns:rdf="http://www.w3.org/1999/02/22-rdf-syntax-ns#">

     <rdf:Description rdf:about="">
       <dc:title>Mutant Standard emoji 2023.12</dc:title>
     </rdf:Description>

    <cc:work rdf:about="">
        <cc:license rdf:resource="http://creativecommons.org/licenses/by-nc-sa/4.0/"/>
        <cc:attributionName>Caius Nocturne</cc:attributionName>
        <cc:attributionURL>http://mutant.tech/</cc:attributionURL>
    </cc:work>

</rdf:RDF>
</metadata>

    <rect id="metro" width="32" height="32" fill="none"/>
    <clipPath id="_clip1">
        <rect width="32" height="32"/>
    </clipPath>
    <g clip-path="url(#_clip1)">
        <g id="outline">
            <path d="m7.362 28c-3.266-2.553-5.362-6.533-5.362-11 0-7.727 6.273-14 14-14 7.719 0 13.987 6.26 14 14-8e-3 4.473-2.104 8.451-5.362 11h-17.276z" fill="none" stroke="#000" stroke-width="4px"/>
        </g>
        <g id="emoji">
            
                <path d="m29.963 16c0.024 0.33 0.036 0.664 0.037 1-8e-3 4.473-2.104 8.451-5.362 11l-1.638-1h-14l-1.638 1c-3.266-2.553-5.362-6.533-5.362-11 0-0.336 0.012-0.67 0.035-1l0.965-1h26l0.963 1z" fill="#404040"/>
                <path d="m2.035 16c0.514-7.261 6.574-13 13.965-13 7.383 0 13.439 5.728 13.963 13h-27.928z" fill="#333"/>
                <path d="m24.638 28h-17.276l6.638-7h4l6.638 7z" fill="#696969"/>
            
            <path d="m12 24h-2v2.5c0 0.133 0.053 0.26 0.146 0.354 0.094 0.093 0.221 0.146 0.354 0.146h1c0.133 0 0.26-0.053 0.354-0.146 0.093-0.094 0.146-0.221 0.146-0.354v-2.5z" fill="#262626"/>
            <path d="m22 24h-2v2.5c0 0.133 0.053 0.26 0.146 0.354 0.094 0.093 0.221 0.146 0.354 0.146h1c0.133 0 0.26-0.053 0.354-0.146 0.093-0.094 0.146-0.221 0.146-0.354v-2.5z" fill="#262626"/>
            <path d="m25 22h-18v4h2l1-1h12l1 1h2v-4z" fill="#1a1a1a"/>
            
                <path d="m16 4c7.2 0 10.243 5.204 11 10 0.136 0.863 0.284 2.087 0.385 2.953 0.08 0.679 0.019 1.367-0.177 2.021-0.222 0.74-0.531 1.769-0.78 2.601-0.254 0.846-1.033 1.425-1.916 1.425h-8.512-8.512c-0.883 0-1.662-0.579-1.916-1.425-0.249-0.832-0.558-1.861-0.78-2.601-0.196-0.654-0.257-1.342-0.177-2.021 0.101-0.866 0.249-2.09 0.385-2.953 0.757-4.796 3.8-10 11-10z" fill="#f11717"/>
                <path d="m16.168 4.001 0.166 3e-3 0.165 5e-3 0.164 6e-3 0.162 8e-3 0.16 0.011 0.159 0.012 0.158 0.014 0.156 0.015 0.154 0.018 0.153 0.019 0.152 0.021 0.15 0.022 0.149 0.024 0.147 0.026 0.146 0.028 0.144 0.029 0.143 0.031 0.142 0.033 0.14 0.034 0.138 0.035 0.138 0.038 0.135 0.039 0.135 0.04 0.133 0.042 0.132 0.043 0.13 0.045 0.129 0.046 0.127 0.048 0.126 0.049 0.125 0.051 0.124 0.052 0.122 0.054 0.121 0.054 0.119 0.057 0.118 0.057 0.117 0.059 0.115 0.06 0.114 0.062 0.113 0.062 0.112 0.064 0.11 0.066 0.109 0.066 0.107 0.068 0.107 0.069 0.105 0.07 0.103 0.071 0.103 0.073 0.101 0.073 0.1 0.075 0.099 0.075 0.097 0.077 0.096 0.078 0.095 0.079 0.094 0.08 0.093 0.081 0.091 0.082 0.09 0.083 0.089 0.084 0.087 0.085 0.087 0.086 0.085 0.087 0.084 0.088 0.083 0.088 0.082 0.09 0.08 0.09 0.08 0.092 0.078 0.092 0.077 0.093 0.076 0.093 0.075 0.095 0.073 0.095 0.073 0.096 0.071 0.097 0.07 0.097 0.069 0.098 0.068 0.099 0.067 0.099 0.066 0.101 0.064 0.1 0.064 0.102 0.124 0.204 0.06 0.103 0.059 0.104 0.058 0.104 0.058 0.105 0.056 0.105 0.055 0.106 0.053 0.107 0.053 0.106 0.052 0.107 0.051 0.108 0.05 0.108 0.049 0.108 0.094 0.218 0.046 0.11 0.045 0.11 0.044 0.11 0.042 0.11 0.042 0.111 0.041 0.111 0.04 0.111 0.039 0.112 0.038 0.111 0.037 0.112 0.036 0.112 0.035 0.113 0.034 0.112 0.033 0.113 0.032 0.112 0.032 0.113 0.06 0.226 0.056 0.226 0.027 0.113 0.026 0.113 0.025 0.113 0.024 0.113 0.046 0.226 0.042 0.226 0.02 0.113 0.019 0.113 0.018 0.112 0.026 0.166 0.026 0.173 0.051 0.365 0.052 0.381 0.051 0.39 0.049 0.39 0.047 0.382 0.043 0.366 0.04 0.34 7e-3 0.063 0.012 0.128 4e-3 0.064 4e-3 0.063 3e-3 0.064 4e-3 0.128v0.064 0.064l-1e-3 0.063-2e-3 0.064-3e-3 0.064-3e-3 0.063-0.01 0.128-6e-3 0.063-7e-3 0.063-7e-3 0.064-0.018 0.126-0.01 0.063-0.022 0.126-0.013 0.062-0.013 0.063-0.014 0.062-0.015 0.062-0.032 0.124-0.017 0.062-0.018 0.061-0.78 2.601-0.026 0.078-0.014 0.039-0.014 0.038-0.015 0.038-0.016 0.037-0.034 0.074-0.018 0.036-0.019 0.036-0.02 0.035-0.02 0.034-0.021 0.035-0.021 0.033-0.022 0.034-0.023 0.032-0.023 0.033-0.048 0.062-0.025 0.031-0.052 0.06-0.027 0.029-0.027 0.028-0.056 0.056-0.029 0.027-0.03 0.026-0.06 0.05-0.031 0.025-0.031 0.024-0.032 0.023-0.032 0.022-0.066 0.044-0.068 0.04-0.034 0.019-0.035 0.019-0.035 0.018-0.035 0.017-0.036 0.017-0.037 0.016-0.036 0.015-0.074 0.028-0.076 0.026-0.076 0.022-0.039 0.01-0.078 0.018-0.12 0.021-0.08 0.01-0.082 6e-3 -0.082 4e-3h-0.041-8.512-8.512-0.041l-0.082-4e-3 -0.082-6e-3 -0.08-0.01-0.12-0.021-0.078-0.018-0.039-0.01-0.076-0.022-0.076-0.026-0.074-0.028-0.036-0.015-0.037-0.016-0.036-0.017-0.035-0.017-0.035-0.018-0.035-0.019-0.034-0.019-0.068-0.04-0.066-0.044-0.032-0.022-0.032-0.023-0.031-0.024-0.031-0.025-0.06-0.05-0.03-0.026-0.029-0.027-0.056-0.056-0.027-0.028-0.027-0.029-0.052-0.06-0.025-0.031-0.048-0.062-0.023-0.033-0.023-0.032-0.022-0.034-0.021-0.033-0.021-0.035-0.02-0.034-0.02-0.035-0.019-0.036-0.018-0.036-0.034-0.074-0.016-0.037-0.015-0.038-0.014-0.038-0.014-0.039-0.026-0.078-0.78-2.601-0.018-0.061-0.017-0.062-0.032-0.124-0.015-0.062-0.014-0.062-0.013-0.063-0.013-0.062-0.022-0.126-0.01-0.063-0.018-0.126-7e-3 -0.064-7e-3 -0.063-6e-3 -0.063-0.01-0.128-3e-3 -0.063-3e-3 -0.064-2e-3 -0.064-1e-3 -0.063v-0.064-0.064l4e-3 -0.128 3e-3 -0.064 4e-3 -0.063 4e-3 -0.064 0.012-0.128 7e-3 -0.063 0.04-0.34 0.043-0.366 0.047-0.382 0.049-0.39 0.051-0.39 0.052-0.381 0.051-0.365 0.026-0.173 0.026-0.166 0.018-0.112 0.019-0.113 0.02-0.113 0.042-0.226 0.046-0.226 0.024-0.113 0.025-0.113 0.026-0.113 0.027-0.113 0.056-0.226 0.06-0.226 0.032-0.113 0.032-0.112 0.033-0.113 0.034-0.112 0.035-0.113 0.036-0.112 0.037-0.112 0.038-0.111 0.039-0.112 0.04-0.111 0.041-0.111 0.042-0.111 0.042-0.11 0.044-0.11 0.045-0.11 0.046-0.11 0.094-0.218 0.049-0.108 0.05-0.108 0.051-0.108 0.052-0.107 0.053-0.106 0.053-0.107 0.055-0.106 0.056-0.105 0.058-0.105 0.058-0.104 0.059-0.104 0.06-0.103 0.124-0.204 0.064-0.102 0.064-0.1 0.066-0.101 0.067-0.099 0.068-0.099 0.069-0.098 0.07-0.097 0.071-0.097 0.073-0.096 0.073-0.095 0.075-0.095 0.076-0.093 0.077-0.093 0.078-0.092 0.08-0.092 0.08-0.09 0.082-0.089 0.083-0.089 0.084-0.088 0.085-0.087 0.086-0.086 0.088-0.085 0.089-0.084 0.09-0.083 0.091-0.082 0.093-0.081 0.094-0.08 0.095-0.079 0.096-0.078 0.097-0.076 0.099-0.076 0.1-0.075 0.101-0.073 0.103-0.073 0.103-0.071 0.105-0.07 0.107-0.069 0.107-0.068 0.109-0.066 0.11-0.066 0.112-0.064 0.113-0.062 0.114-0.062 0.115-0.06 0.117-0.059 0.118-0.057 0.119-0.057 0.121-0.054 0.122-0.054 0.124-0.052 0.125-0.051 0.126-0.049 0.127-0.048 0.129-0.046 0.13-0.045 0.132-0.043 0.133-0.042 0.135-0.04 0.135-0.039 0.138-0.038 0.138-0.035 0.14-0.034 0.142-0.033 0.143-0.031 0.144-0.029 0.146-0.028 0.147-0.026 0.149-0.024 0.15-0.022 0.152-0.021 0.153-0.019 0.154-0.018 0.156-0.015 0.158-0.014 0.159-0.012 0.16-0.011 0.162-8e-3 0.164-6e-3 0.165-5e-3 0.166-3e-3 0.168-1e-3s0.168 1e-3 0.168 1e-3zm-0.319 1.5-0.149 2e-3 -0.148 5e-3 -0.146 6e-3 -0.144 7e-3 -0.143 9e-3 -0.141 0.011-0.139 0.012-0.138 0.014-0.136 0.015-0.135 0.017-0.133 0.018-0.132 0.02-0.13 0.021-0.128 0.023-0.127 0.024-0.126 0.025-0.124 0.027-0.122 0.028-0.121 0.03-0.12 0.031-0.118 0.032-0.117 0.033-0.115 0.035-0.114 0.036-0.113 0.037-0.111 0.038-0.11 0.04-0.109 0.04-0.107 0.042-0.106 0.043-0.104 0.044-0.104 0.046-0.102 0.046-0.101 0.048-0.1 0.048-0.098 0.05-0.098 0.051-0.096 0.051-0.095 0.053-0.094 0.054-0.093 0.055-0.091 0.056-0.091 0.057-0.089 0.058-0.089 0.059-0.087 0.06-0.086 0.061-0.085 0.062-0.085 0.063-0.083 0.063-0.082 0.065-0.081 0.066-0.08 0.066-0.079 0.068-0.078 0.068-0.077 0.07-0.076 0.07-0.076 0.071-0.074 0.072-0.073 0.073-0.072 0.073-0.072 0.075-0.07 0.075-0.07 0.077-0.136 0.154-0.067 0.079-0.066 0.08-0.065 0.08-0.064 0.081-0.063 0.081-0.124 0.166-0.06 0.084-0.06 0.085-0.059 0.085-0.057 0.086-0.057 0.087-0.057 0.088-0.055 0.088-0.054 0.088-0.054 0.09-0.104 0.18-0.051 0.092-0.05 0.091-0.049 0.093-0.096 0.186-0.046 0.094-0.046 0.095-0.045 0.094-0.044 0.096-0.043 0.096-0.042 0.096-0.042 0.097-0.04 0.097-0.04 0.098-0.039 0.098-0.038 0.098-0.038 0.099-0.072 0.198-0.068 0.2-0.033 0.1-0.033 0.101-0.031 0.1-0.031 0.101-0.03 0.101-0.029 0.102-0.028 0.101-0.054 0.204-0.026 0.102-0.025 0.102-0.048 0.204-0.044 0.204-0.021 0.103-0.04 0.204-0.019 0.103-0.018 0.102-0.017 0.102-0.016 0.102-0.025 0.157-0.024 0.165-0.051 0.354-0.05 0.373-0.05 0.382-0.048 0.385-0.046 0.377-0.044 0.362-0.039 0.334-5e-3 0.049-5e-3 0.045-3e-3 0.044-4e-3 0.045-2e-3 0.045-2e-3 0.044-2e-3 0.045-1e-3 0.045v0.045 0.044l1e-3 0.045 1e-3 0.044 2e-3 0.045 3e-3 0.044 6e-3 0.09 4e-3 0.044 0.01 0.088 6e-3 0.045 0.021 0.132 9e-3 0.044 8e-3 0.044 0.01 0.044 9e-3 0.043 0.011 0.043 0.011 0.044 0.011 0.043 0.012 0.044 0.014 0.048 0.777 2.588 5e-3 0.017 4e-3 0.011 3e-3 0.01 8e-3 0.018 4e-3 0.01 8e-3 0.018 5e-3 9e-3 4e-3 9e-3 0.01 0.017 0.011 0.017 0.022 0.032 0.012 0.015 0.014 0.016 0.013 0.014 0.014 0.014 0.03 0.026 0.032 0.024 0.016 0.01 0.017 0.011 0.036 0.018 0.017 8e-3 0.019 8e-3 0.018 6e-3 0.019 6e-3 0.019 5e-3 0.02 5e-3 9e-3 2e-3 0.01 1e-3 0.01 2e-3 0.03 3e-3 0.011 1e-3h0.01l0.01 1e-3h0.019 17.008 0.019l0.01-1e-3h0.01l0.011-1e-3 0.03-3e-3 0.01-2e-3 0.01-1e-3 0.01-2e-3 9e-3 -3e-3 0.01-2e-3 9e-3 -2e-3 0.01-3e-3 9e-3 -3e-3 0.01-3e-3 9e-3 -3e-3 0.01-4e-3 9e-3 -3e-3 8e-3 -4e-3 0.01-4e-3 9e-3 -4e-3 8e-3 -4e-3 9e-3 -5e-3 9e-3 -4e-3 9e-3 -5e-3 0.016-0.01 9e-3 -6e-3 8e-3 -5e-3 8e-3 -6e-3 9e-3 -6e-3 7e-3 -6e-3 8e-3 -6e-3 8e-3 -7e-3 0.014-0.012 8e-3 -7e-3 0.021-0.021 6e-3 -7e-3 7e-3 -8e-3 6e-3 -7e-3 7e-3 -8e-3 0.012-0.016 5e-3 -8e-3 0.012-0.016 0.01-0.016 0.015-0.027 0.02-0.045 4e-3 -0.011 3e-3 -9e-3 4e-3 -0.01 5e-3 -0.018 0.777-2.589 0.014-0.047 0.012-0.044 0.022-0.086 0.011-0.044 9e-3 -0.043 0.01-0.044 9e-3 -0.044 8e-3 -0.044 0.021-0.132 5e-3 -0.044 6e-3 -0.045 5e-3 -0.044 4e-3 -0.044 6e-3 -0.09 3e-3 -0.044 2e-3 -0.044 2e-3 -0.09v-0.045-0.044l-1e-3 -0.045-2e-3 -0.044-4e-3 -0.09-4e-3 -0.045-3e-3 -0.044-5e-3 -0.045-5e-3 -0.049-0.039-0.334-0.044-0.362-0.046-0.377-0.048-0.385-0.05-0.383-0.05-0.372-0.051-0.354-0.024-0.165-0.025-0.157-0.016-0.102-0.017-0.102-0.018-0.102-0.019-0.102-0.02-0.103-0.02-0.102-0.021-0.102-0.022-0.103-0.022-0.102-0.048-0.204-0.025-0.102-0.026-0.102-0.054-0.204-0.028-0.101-0.029-0.101-0.03-0.102-0.031-0.101-0.031-0.1-0.033-0.101-0.033-0.1-0.068-0.2-0.072-0.198-0.038-0.099-0.038-0.098-0.039-0.098-0.04-0.098-0.04-0.097-0.042-0.097-0.042-0.096-0.043-0.096-0.044-0.095-0.045-0.095-0.046-0.095-0.046-0.094-0.096-0.186-0.049-0.092-0.05-0.092-0.051-0.092-0.104-0.18-0.054-0.09-0.054-0.088-0.055-0.088-0.057-0.088-0.056-0.087-0.058-0.086-0.059-0.085-0.06-0.085-0.06-0.084-0.062-0.083-0.062-0.082-0.063-0.082-0.064-0.081-0.065-0.081-0.066-0.079-0.067-0.079-0.136-0.154-0.07-0.077-0.07-0.075-0.072-0.075-0.072-0.073-0.073-0.073-0.075-0.072-0.075-0.071-0.076-0.07-0.077-0.07-0.078-0.068-0.079-0.068-0.08-0.066-0.081-0.066-0.082-0.065-0.083-0.063-0.085-0.063-0.085-0.062-0.086-0.061-0.087-0.06-0.089-0.059-0.089-0.058-0.091-0.057-0.091-0.056-0.093-0.055-0.094-0.054-0.095-0.053-0.096-0.051-0.098-0.051-0.098-0.05-0.1-0.049-0.101-0.047-0.102-0.046-0.103-0.046-0.105-0.044-0.106-0.043-0.108-0.042-0.108-0.041-0.11-0.039-0.111-0.038-0.113-0.037-0.114-0.036-0.115-0.035-0.117-0.033-0.118-0.032-0.12-0.031-0.121-0.03-0.122-0.028-0.124-0.027-0.126-0.025-0.127-0.024-0.128-0.023-0.13-0.021-0.132-0.02-0.133-0.018-0.135-0.017-0.136-0.015-0.138-0.014-0.139-0.012-0.141-0.011-0.143-9e-3 -0.144-7e-3 -0.146-6e-3 -0.148-5e-3 -0.149-2e-3 -0.151-1e-3 -0.151 1e-3z" fill="#f11717"/>
                <path d="m16 5c7.2 0 9.816 4.204 10.572 9 0.137 0.863 0.285 2.087 0.386 2.953 0.079 0.679 0.019 1.367-0.178 2.021-0.222 0.74-0.53 0.769-0.78 1.601-0.254 0.846-1.032 1.425-1.916 1.425h-8.084-8c-0.883 0-1.662-0.579-1.916-1.425-0.249-0.832-0.558-0.861-0.78-1.601-0.196-0.654-0.257-1.342-0.177-2.021 0.101-0.866 0.249-2.09 0.385-2.953 0.757-4.796 3.288-9 10.488-9z" fill="none"/>
                <clipPath id="_clip2">
                    <path d="m16 5c7.2 0 9.816 4.204 10.572 9 0.137 0.863 0.285 2.087 0.386 2.953 0.079 0.679 0.019 1.367-0.178 2.021-0.222 0.74-0.53 0.769-0.78 1.601-0.254 0.846-1.032 1.425-1.916 1.425h-8.084-8c-0.883 0-1.662-0.579-1.916-1.425-0.249-0.832-0.558-0.861-0.78-1.601-0.196-0.654-0.257-1.342-0.177-2.021 0.101-0.866 0.249-2.09 0.385-2.953 0.757-4.796 3.288-9 10.488-9z"/>
                </clipPath>
                <g clip-path="url(#_clip2)">
                    <path d="m19 21h1.586c0.265 0 0.519-0.105 0.707-0.293l5.707-5.707v-3l-5 3-3 6z" fill="#f5f5f5"/>
                    <path d="m13 21h-1.586c-0.265 0-0.519-0.105-0.707-0.293l-5.707-5.707v-3l5 3 3 6z" fill="#f5f5f5"/>
                    <path d="m13 21-8-9v-8h22v8l-8 9"/>
                    <clipPath id="_clip3">
                        <path d="m13 21-8-9v-8h22v8l-8 9"/>
                    </clipPath>
                    <g clip-path="url(#_clip3)">
                        <rect x="13" y="5" width="6" height="16" fill="#262626"/>
                        <rect x="13" y="5" width="6" height="4" fill="#4f4f4f"/>
                    </g>
                </g>
                <path d="m16.168 4.001 0.166 3e-3 0.165 5e-3 0.164 6e-3 0.162 8e-3 0.16 0.011 0.159 0.012 0.158 0.014 0.156 0.015 0.154 0.018 0.153 0.019 0.152 0.021 0.15 0.022 0.149 0.024 0.147 0.026 0.146 0.028 0.144 0.029 0.143 0.031 0.142 0.033 0.14 0.034 0.138 0.035 0.138 0.038 0.135 0.039 0.135 0.04 0.133 0.042 0.132 0.043 0.13 0.045 0.129 0.046 0.127 0.048 0.126 0.049 0.125 0.051 0.124 0.052 0.122 0.054 0.121 0.054 0.119 0.057 0.118 0.057 0.117 0.059 0.115 0.06 0.114 0.062 0.113 0.062 0.112 0.064 0.11 0.066 0.109 0.066 0.107 0.068 0.107 0.069 0.105 0.07 0.103 0.071 0.103 0.073 0.101 0.073 0.1 0.075 0.099 0.075 0.097 0.077 0.096 0.078 0.095 0.079 0.094 0.08 0.093 0.081 0.091 0.082 0.09 0.083 0.089 0.084 0.087 0.085 0.087 0.086 0.085 0.087 0.084 0.088 0.083 0.088 0.082 0.09 0.08 0.09 0.08 0.092 0.078 0.092 0.077 0.093 0.076 0.093 0.075 0.095 0.073 0.095 0.073 0.096 0.071 0.097 0.07 0.097 0.069 0.098 0.068 0.099 0.067 0.099 0.066 0.101 0.064 0.1 0.064 0.102 0.124 0.204 0.06 0.103 0.059 0.104 0.058 0.104 0.058 0.105 0.056 0.105 0.055 0.106 0.053 0.107 0.053 0.106 0.052 0.107 0.051 0.108 0.05 0.108 0.049 0.108 0.094 0.218 0.046 0.11 0.045 0.11 0.044 0.11 0.042 0.11 0.042 0.111 0.041 0.111 0.04 0.111 0.039 0.112 0.038 0.111 0.037 0.112 0.036 0.112 0.035 0.113 0.034 0.112 0.033 0.113 0.032 0.112 0.032 0.113 0.06 0.226 0.056 0.226 0.027 0.113 0.026 0.113 0.025 0.113 0.024 0.113 0.046 0.226 0.042 0.226 0.02 0.113 0.019 0.113 0.018 0.112 0.026 0.166 0.026 0.173 0.051 0.365 0.052 0.381 0.051 0.39 0.049 0.39 0.047 0.382 0.043 0.366 0.04 0.34 7e-3 0.063 0.012 0.128 4e-3 0.064 4e-3 0.063 3e-3 0.064 4e-3 0.128v0.064 0.064l-1e-3 0.063-2e-3 0.064-3e-3 0.064-3e-3 0.063-0.01 0.128-6e-3 0.063-7e-3 0.063-7e-3 0.064-0.018 0.126-0.01 0.063-0.022 0.126-0.013 0.062-0.013 0.063-0.014 0.062-0.015 0.062-0.032 0.124-0.017 0.062-0.018 0.061-0.78 2.601-0.026 0.078-0.014 0.039-0.014 0.038-0.015 0.038-0.016 0.037-0.034 0.074-0.018 0.036-0.019 0.036-0.02 0.035-0.02 0.034-0.021 0.035-0.021 0.033-0.022 0.034-0.023 0.032-0.023 0.033-0.048 0.062-0.025 0.031-0.052 0.06-0.027 0.029-0.027 0.028-0.056 0.056-0.029 0.027-0.03 0.026-0.06 0.05-0.031 0.025-0.031 0.024-0.032 0.023-0.032 0.022-0.066 0.044-0.068 0.04-0.034 0.019-0.035 0.019-0.035 0.018-0.035 0.017-0.036 0.017-0.037 0.016-0.036 0.015-0.074 0.028-0.076 0.026-0.076 0.022-0.039 0.01-0.078 0.018-0.12 0.021-0.08 0.01-0.082 6e-3 -0.082 4e-3h-0.041-8.512-8.512-0.041l-0.082-4e-3 -0.082-6e-3 -0.08-0.01-0.12-0.021-0.078-0.018-0.039-0.01-0.076-0.022-0.076-0.026-0.074-0.028-0.036-0.015-0.037-0.016-0.036-0.017-0.035-0.017-0.035-0.018-0.035-0.019-0.034-0.019-0.068-0.04-0.066-0.044-0.032-0.022-0.032-0.023-0.031-0.024-0.031-0.025-0.06-0.05-0.03-0.026-0.029-0.027-0.056-0.056-0.027-0.028-0.027-0.029-0.052-0.06-0.025-0.031-0.048-0.062-0.023-0.033-0.023-0.032-0.022-0.034-0.021-0.033-0.021-0.035-0.02-0.034-0.02-0.035-0.019-0.036-0.018-0.036-0.034-0.074-0.016-0.037-0.015-0.038-0.014-0.038-0.014-0.039-0.026-0.078-0.78-2.601-0.018-0.061-0.017-0.062-0.032-0.124-0.015-0.062-0.014-0.062-0.013-0.063-0.013-0.062-0.022-0.126-0.01-0.063-0.018-0.126-7e-3 -0.064-7e-3 -0.063-6e-3 -0.063-0.01-0.128-3e-3 -0.063-3e-3 -0.064-2e-3 -0.064-1e-3 -0.063v-0.064-0.064l4e-3 -0.128 3e-3 -0.064 4e-3 -0.063 4e-3 -0.064 0.012-0.128 7e-3 -0.063 0.04-0.34 0.043-0.366 0.047-0.382 0.049-0.39 0.051-0.39 0.052-0.381 0.051-0.365 0.026-0.173 0.026-0.166 0.018-0.112 0.019-0.113 0.02-0.113 0.042-0.226 0.046-0.226 0.024-0.113 0.025-0.113 0.026-0.113 0.027-0.113 0.056-0.226 0.06-0.226 0.032-0.113 0.032-0.112 0.033-0.113 0.034-0.112 0.035-0.113 0.036-0.112 0.037-0.112 0.038-0.111 0.039-0.112 0.04-0.111 0.041-0.111 0.042-0.111 0.042-0.11 0.044-0.11 0.045-0.11 0.046-0.11 0.094-0.218 0.049-0.108 0.05-0.108 0.051-0.108 0.052-0.107 0.053-0.106 0.053-0.107 0.055-0.106 0.056-0.105 0.058-0.105 0.058-0.104 0.059-0.104 0.06-0.103 0.124-0.204 0.064-0.102 0.064-0.1 0.066-0.101 0.067-0.099 0.068-0.099 0.069-0.098 0.07-0.097 0.071-0.097 0.073-0.096 0.073-0.095 0.075-0.095 0.076-0.093 0.077-0.093 0.078-0.092 0.08-0.092 0.08-0.09 0.082-0.089 0.083-0.089 0.084-0.088 0.085-0.087 0.086-0.086 0.088-0.085 0.089-0.084 0.09-0.083 0.091-0.082 0.093-0.081 0.094-0.08 0.095-0.079 0.096-0.078 0.097-0.076 0.099-0.076 0.1-0.075 0.101-0.073 0.103-0.073 0.103-0.071 0.105-0.07 0.107-0.069 0.107-0.068 0.109-0.066 0.11-0.066 0.112-0.064 0.113-0.062 0.114-0.062 0.115-0.06 0.117-0.059 0.118-0.057 0.119-0.057 0.121-0.054 0.122-0.054 0.124-0.052 0.125-0.051 0.126-0.049 0.127-0.048 0.129-0.046 0.13-0.045 0.132-0.043 0.133-0.042 0.135-0.04 0.135-0.039 0.138-0.038 0.138-0.035 0.14-0.034 0.142-0.033 0.143-0.031 0.144-0.029 0.146-0.028 0.147-0.026 0.149-0.024 0.15-0.022 0.152-0.021 0.153-0.019 0.154-0.018 0.156-0.015 0.158-0.014 0.159-0.012 0.16-0.011 0.162-8e-3 0.164-6e-3 0.165-5e-3 0.166-3e-3 0.168-1e-3s0.168 1e-3 0.168 1e-3zm-0.319 1.5-0.149 2e-3 -0.148 5e-3 -0.146 6e-3 -0.144 7e-3 -0.143 9e-3 -0.141 0.011-0.139 0.012-0.138 0.014-0.136 0.015-0.135 0.017-0.133 0.018-0.132 0.02-0.13 0.021-0.128 0.023-0.127 0.024-0.126 0.025-0.124 0.027-0.122 0.028-0.121 0.03-0.12 0.031-0.118 0.032-0.117 0.033-0.115 0.035-0.114 0.036-0.113 0.037-0.111 0.038-0.11 0.04-0.109 0.04-0.107 0.042-0.106 0.043-0.104 0.044-0.104 0.046-0.102 0.046-0.101 0.048-0.1 0.048-0.098 0.05-0.098 0.051-0.096 0.051-0.095 0.053-0.094 0.054-0.093 0.055-0.091 0.056-0.091 0.057-0.089 0.058-0.089 0.059-0.087 0.06-0.086 0.061-0.085 0.062-0.085 0.063-0.083 0.063-0.082 0.065-0.081 0.066-0.08 0.066-0.079 0.068-0.078 0.068-0.077 0.07-0.076 0.07-0.076 0.071-0.074 0.072-0.073 0.073-0.072 0.073-0.072 0.075-0.07 0.075-0.07 0.077-0.136 0.154-0.067 0.079-0.066 0.08-0.065 0.08-0.064 0.081-0.063 0.081-0.124 0.166-0.06 0.084-0.06 0.085-0.059 0.085-0.057 0.086-0.057 0.087-0.057 0.088-0.055 0.088-0.054 0.088-0.054 0.09-0.104 0.18-0.051 0.092-0.05 0.091-0.049 0.093-0.096 0.186-0.046 0.094-0.046 0.095-0.045 0.094-0.044 0.096-0.043 0.096-0.042 0.096-0.042 0.097-0.04 0.097-0.04 0.098-0.039 0.098-0.038 0.098-0.038 0.099-0.072 0.198-0.068 0.2-0.033 0.1-0.033 0.101-0.031 0.1-0.031 0.101-0.03 0.101-0.029 0.102-0.028 0.101-0.054 0.204-0.026 0.102-0.025 0.102-0.048 0.204-0.044 0.204-0.021 0.103-0.04 0.204-0.019 0.103-0.018 0.102-0.017 0.102-0.016 0.102-0.025 0.157-0.024 0.165-0.051 0.354-0.05 0.373-0.05 0.382-0.048 0.385-0.046 0.377-0.044 0.362-0.039 0.334-5e-3 0.049-5e-3 0.045-3e-3 0.044-4e-3 0.045-2e-3 0.045-2e-3 0.044-2e-3 0.045-1e-3 0.045v0.045 0.044l1e-3 0.045 1e-3 0.044 2e-3 0.045 3e-3 0.044 6e-3 0.09 4e-3 0.044 0.01 0.088 6e-3 0.045 0.021 0.132 9e-3 0.044 8e-3 0.044 0.01 0.044 9e-3 0.043 0.011 0.043 0.011 0.044 0.011 0.043 0.012 0.044 0.014 0.048 0.777 2.588 5e-3 0.017 4e-3 0.011 3e-3 0.01 8e-3 0.018 4e-3 0.01 8e-3 0.018 5e-3 9e-3 4e-3 9e-3 0.01 0.017 0.011 0.017 0.022 0.032 0.012 0.015 0.014 0.016 0.013 0.014 0.014 0.014 0.03 0.026 0.032 0.024 0.016 0.01 0.017 0.011 0.036 0.018 0.017 8e-3 0.019 8e-3 0.018 6e-3 0.019 6e-3 0.019 5e-3 0.02 5e-3 9e-3 2e-3 0.01 1e-3 0.01 2e-3 0.03 3e-3 0.011 1e-3h0.01l0.01 1e-3h0.019 17.008 0.019l0.01-1e-3h0.01l0.011-1e-3 0.03-3e-3 0.01-2e-3 0.01-1e-3 0.01-2e-3 9e-3 -3e-3 0.01-2e-3 9e-3 -2e-3 0.01-3e-3 9e-3 -3e-3 0.01-3e-3 9e-3 -3e-3 0.01-4e-3 9e-3 -3e-3 8e-3 -4e-3 0.01-4e-3 9e-3 -4e-3 8e-3 -4e-3 9e-3 -5e-3 9e-3 -4e-3 9e-3 -5e-3 0.016-0.01 9e-3 -6e-3 8e-3 -5e-3 8e-3 -6e-3 9e-3 -6e-3 7e-3 -6e-3 8e-3 -6e-3 8e-3 -7e-3 0.014-0.012 8e-3 -7e-3 0.021-0.021 6e-3 -7e-3 7e-3 -8e-3 6e-3 -7e-3 7e-3 -8e-3 0.012-0.016 5e-3 -8e-3 0.012-0.016 0.01-0.016 0.015-0.027 0.02-0.045 4e-3 -0.011 3e-3 -9e-3 4e-3 -0.01 5e-3 -0.018 0.777-2.589 0.014-0.047 0.012-0.044 0.022-0.086 0.011-0.044 9e-3 -0.043 0.01-0.044 9e-3 -0.044 8e-3 -0.044 0.021-0.132 5e-3 -0.044 6e-3 -0.045 5e-3 -0.044 4e-3 -0.044 6e-3 -0.09 3e-3 -0.044 2e-3 -0.044 2e-3 -0.09v-0.045-0.044l-1e-3 -0.045-2e-3 -0.044-4e-3 -0.09-4e-3 -0.045-3e-3 -0.044-5e-3 -0.045-5e-3 -0.049-0.039-0.334-0.044-0.362-0.046-0.377-0.048-0.385-0.05-0.383-0.05-0.372-0.051-0.354-0.024-0.165-0.025-0.157-0.016-0.102-0.017-0.102-0.018-0.102-0.019-0.102-0.02-0.103-0.02-0.102-0.021-0.102-0.022-0.103-0.022-0.102-0.048-0.204-0.025-0.102-0.026-0.102-0.054-0.204-0.028-0.101-0.029-0.101-0.03-0.102-0.031-0.101-0.031-0.1-0.033-0.101-0.033-0.1-0.068-0.2-0.072-0.198-0.038-0.099-0.038-0.098-0.039-0.098-0.04-0.098-0.04-0.097-0.042-0.097-0.042-0.096-0.043-0.096-0.044-0.095-0.045-0.095-0.046-0.095-0.046-0.094-0.096-0.186-0.049-0.092-0.05-0.092-0.051-0.092-0.104-0.18-0.054-0.09-0.054-0.088-0.055-0.088-0.057-0.088-0.056-0.087-0.058-0.086-0.059-0.085-0.06-0.085-0.06-0.084-0.062-0.083-0.062-0.082-0.063-0.082-0.064-0.081-0.065-0.081-0.066-0.079-0.067-0.079-0.136-0.154-0.07-0.077-0.07-0.075-0.072-0.075-0.072-0.073-0.073-0.073-0.075-0.072-0.075-0.071-0.076-0.07-0.077-0.07-0.078-0.068-0.079-0.068-0.08-0.066-0.081-0.066-0.082-0.065-0.083-0.063-0.085-0.063-0.085-0.062-0.086-0.061-0.087-0.06-0.089-0.059-0.089-0.058-0.091-0.057-0.091-0.056-0.093-0.055-0.094-0.054-0.095-0.053-0.096-0.051-0.098-0.051-0.098-0.05-0.1-0.049-0.101-0.047-0.102-0.046-0.103-0.046-0.105-0.044-0.106-0.043-0.108-0.042-0.108-0.041-0.11-0.039-0.111-0.038-0.113-0.037-0.114-0.036-0.115-0.035-0.117-0.033-0.118-0.032-0.12-0.031-0.121-0.03-0.122-0.028-0.124-0.027-0.126-0.025-0.127-0.024-0.128-0.023-0.13-0.021-0.132-0.02-0.133-0.018-0.135-0.017-0.136-0.015-0.138-0.014-0.139-0.012-0.141-0.011-0.143-9e-3 -0.144-7e-3 -0.146-6e-3 -0.148-5e-3 -0.149-2e-3 -0.151-1e-3 -0.151 1e-3z" fill="#f11717"/>
            
            <rect x="14" y="7" width="4" height="1" fill="#e9a620"/>
            <rect x="15" y="14.5" width="2" height="1" fill="#999"/>
            <path d="m6.672 18.172c-0.084-0.084-0.213-0.101-0.316-0.043s-0.154 0.178-0.126 0.293c0.176 0.703 0.416 1.661 0.581 2.321 0.111 0.445 0.511 0.757 0.97 0.757h1.584c0.106 0 0.202-0.064 0.243-0.162 0.041-0.099 0.018-0.212-0.057-0.287l-2.879-2.879z" fill="#9e0a0a"/>
            <circle cx="16" cy="18" r="1" fill="#4c4c4c"/>
        </g>
    </g>
</svg>
