<?xml version="1.0" encoding="UTF-8"?>
<!DOCTYPE svg  PUBLIC '-//W3C//DTD SVG 1.1//EN'  'http://www.w3.org/Graphics/SVG/1.1/DTD/svg11.dtd'>
<svg clip-rule="evenodd" fill-rule="evenodd" stroke-linecap="square" stroke-miterlimit="1.5" version="1.1" viewBox="0 0 32 32" xml:space="preserve" xmlns="http://www.w3.org/2000/svg">
<metadata>
<rdf:RDF xmlns:cc="http://web.resource.org/cc/" xmlns:dc="http://purl.org/dc/elements/1.1/" xmlns:rdf="http://www.w3.org/1999/02/22-rdf-syntax-ns#">

     <rdf:Description rdf:about="">
       <dc:title>Mutant Standard emoji 2023.12</dc:title>
     </rdf:Description>

    <cc:work rdf:about="">
        <cc:license rdf:resource="http://creativecommons.org/licenses/by-nc-sa/4.0/"/>
        <cc:attributionName>Caius Nocturne</cc:attributionName>
        <cc:attributionURL>http://mutant.tech/</cc:attributionURL>
    </cc:work>

</rdf:RDF>
</metadata>

    <rect id="monorail" width="32" height="32" fill="none"/>
    <clipPath id="_clip1">
        <rect width="32" height="32"/>
    </clipPath>
    <g clip-path="url(#_clip1)">
        <g id="outline">
            <path d="m19 26v1l-1 1v2h-4v-2l-1-1v-1h6zm11-24v24h-28v-7h7.8l-1.91-2.047c-0.568-0.608-1.362-0.953-2.194-0.953h-0.696c-1.657 0-3-1.343-3-3v-0.5c0-0.944 0.445-1.833 1.2-2.4 2.024-1.518 6.141-4.606 8.667-6.5 1.384-1.039 3.069-1.6 4.8-1.6h13.333z" fill="none" stroke="#000" stroke-width="4px"/>
        </g>
        <g id="emoji">
            <path d="m19 26h-6v1l1 1v2h4v-2l1-1v-1z" fill="#3f3f3f"/>
            <rect x="2" y="19" width="28" height="7" fill="#828282"/>
            <clipPath id="_clip2">
                <rect x="2" y="19" width="28" height="7"/>
            </clipPath>
            <g clip-path="url(#_clip2)">
                <rect x="2" y="18" width="28" height="3" fill="#666"/>
                <path d="m3.2 10.1c-0.755 0.567-1.2 1.456-1.2 2.4v0.5c0 1.657 1.343 3 3 3h0.696c0.832 0 1.626 0.345 2.194 0.953 1.046 1.122 2.774 2.972 3.82 4.094 0.568 0.608 1.362 0.953 2.194 0.953h16.096v-20h-13.333c-1.731 0-3.416 0.561-4.8 1.6-2.526 1.894-6.643 4.982-8.667 6.5z" fill="none" stroke="#666" stroke-width="4px"/>
            </g>
            
                <path d="m7.933 17-0.043-0.047c-0.568-0.608-1.362-0.953-2.194-0.953h-0.696c-1.306 0-2.417-0.835-2.829-2l0.829-1-0.958-1 0.958-1h26l1 1-1 1 1 1v3l-1 1h-19l-2.067-1z" fill="#f2f2f2"/>
                <path d="m30 17v5h-16.096c-0.832 0-1.626-0.345-2.194-0.953l-3.777-4.047h22.067z" fill="#b9b9b9"/>
                <path d="m30 4-1 1h-16l-1.667-1 0.534-0.4c1.384-1.039 3.069-1.6 4.8-1.6h13.333v2z" fill="#f2f2f2"/>
                <path d="m30 12h-27.958c0.127-0.752 0.538-1.435 1.158-1.9l8.133-6.1h18.667v8z"/>
                <clipPath id="_clip3">
                    <path d="m30 12h-27.958c0.127-0.752 0.538-1.435 1.158-1.9l8.133-6.1h18.667v8z"/>
                </clipPath>
                <g clip-path="url(#_clip3)">
                    <path d="m22 2h-5.333c-1.731 0-3.416 0.561-4.8 1.6-2.526 1.894-6.643 4.982-8.667 6.5-0.755 0.567-1.2 1.456-1.2 2.4v3.5" fill="none" stroke="#414141" stroke-width="2px"/>
                </g>
                <path d="m2.042 12h27.958v2h-27.829c-0.111-0.313-0.171-0.649-0.171-1v-0.5c0-0.169 0.014-0.336 0.042-0.5z" fill="#e57c21"/>
            
            <path d="m27.052 3.001 0.051 2e-3 0.051 3e-3 0.05 4e-3 0.051 6e-3 0.05 7e-3 0.049 8e-3 0.098 0.02 0.048 0.012 0.048 0.013 0.047 0.014 0.046 0.015 0.047 0.016 0.09 0.036 0.045 0.02 0.044 0.02 0.086 0.044 0.043 0.024 0.082 0.05 0.08 0.054 0.039 0.028 0.038 0.03 0.037 0.03 0.037 0.031 0.036 0.032 0.035 0.032 0.068 0.068 0.032 0.035 0.032 0.036 0.031 0.037 0.03 0.037 0.03 0.038 0.028 0.039 0.054 0.08 0.05 0.082 0.024 0.043 0.022 0.042 0.022 0.044 0.02 0.044 0.02 0.045 0.036 0.09 0.016 0.047 0.015 0.046 0.014 0.047 0.013 0.048 0.012 0.048 0.02 0.098 8e-3 0.049 7e-3 0.05 6e-3 0.051 4e-3 0.05 3e-3 0.051 2e-3 0.051 1e-3 0.052v8l-1e-3 0.052-2e-3 0.051-3e-3 0.051-4e-3 0.05-6e-3 0.051-7e-3 0.05-8e-3 0.049-0.02 0.098-0.012 0.048-0.013 0.048-0.014 0.047-0.015 0.046-0.016 0.047-0.036 0.09-0.02 0.045-0.02 0.044-0.022 0.044-0.022 0.042-0.024 0.043-0.05 0.082-0.054 0.08-0.028 0.039-0.03 0.038-0.03 0.037-0.031 0.037-0.032 0.036-0.032 0.035-0.068 0.068-0.035 0.032-0.036 0.032-0.037 0.031-0.037 0.03-0.038 0.03-0.039 0.028-0.08 0.054-0.082 0.05-0.043 0.024-0.086 0.044-0.044 0.02-0.045 0.02-0.09 0.036-0.047 0.016-0.046 0.015-0.047 0.014-0.048 0.013-0.048 0.012-0.098 0.02-0.049 8e-3 -0.05 7e-3 -0.051 6e-3 -0.05 4e-3 -0.051 3e-3 -0.051 2e-3 -0.052 1e-3h-5l-0.052-1e-3 -0.051-2e-3 -0.051-3e-3 -0.05-4e-3 -0.051-6e-3 -0.05-7e-3 -0.049-8e-3 -0.098-0.02-0.048-0.012-0.048-0.013-0.047-0.014-0.046-0.015-0.047-0.016-0.09-0.036-0.045-0.02-0.044-0.02-0.086-0.044-0.043-0.024-0.082-0.05-0.08-0.054-0.039-0.028-0.038-0.03-0.037-0.03-0.037-0.031-0.036-0.032-0.035-0.032-0.068-0.068-0.032-0.035-0.032-0.036-0.031-0.037-0.03-0.037-0.03-0.038-0.028-0.039-0.054-0.08-0.05-0.082-0.024-0.043-0.022-0.042-0.022-0.044-0.02-0.044-0.02-0.045-0.036-0.09-0.016-0.047-0.015-0.046-0.014-0.047-0.013-0.048-0.012-0.048-0.02-0.098-8e-3 -0.049-7e-3 -0.05-6e-3 -0.051-4e-3 -0.05-3e-3 -0.051-2e-3 -0.051-1e-3 -0.052v-8l1e-3 -0.052 2e-3 -0.051 3e-3 -0.051 4e-3 -0.05 6e-3 -0.051 7e-3 -0.05 8e-3 -0.049 0.02-0.098 0.012-0.048 0.013-0.048 0.014-0.047 0.015-0.046 0.016-0.047 0.036-0.09 0.02-0.045 0.02-0.044 0.022-0.044 0.022-0.042 0.024-0.043 0.05-0.082 0.054-0.08 0.028-0.039 0.03-0.038 0.03-0.037 0.031-0.037 0.032-0.036 0.032-0.035 0.068-0.068 0.035-0.032 0.036-0.032 0.037-0.031 0.037-0.03 0.038-0.03 0.039-0.028 0.08-0.054 0.082-0.05 0.043-0.024 0.086-0.044 0.044-0.02 0.045-0.02 0.09-0.036 0.047-0.016 0.046-0.015 0.047-0.014 0.048-0.013 0.048-0.012 0.098-0.02 0.049-8e-3 0.05-7e-3 0.051-6e-3 0.05-4e-3 0.051-3e-3 0.051-2e-3 0.052-1e-3h5l0.052 1e-3zm-5.046 0.999h-0.032l-0.026 1e-3 -0.026 2e-3 -0.025 2e-3 -0.026 3e-3 -0.025 4e-3 -0.024 4e-3 -0.025 4e-3 -0.048 0.012-0.023 6e-3 -0.024 7e-3 -0.023 7e-3 -0.023 8e-3 -0.022 9e-3 -0.023 9e-3 -0.044 0.02-0.022 0.011-0.021 0.011-0.042 0.024-0.04 0.026-0.04 0.028-0.038 0.03-0.054 0.048-0.034 0.034-0.048 0.054-0.03 0.038-0.028 0.04-0.026 0.04-0.024 0.042-0.011 0.021-0.011 0.022-0.02 0.044-9e-3 0.023-9e-3 0.022-8e-3 0.023-7e-3 0.023-7e-3 0.024-6e-3 0.023-6e-3 0.024-6e-3 0.025-8e-3 0.048-4e-3 0.025-3e-3 0.026-2e-3 0.025-2e-3 0.026-1e-3 0.026v0.032 7.988 0.032l1e-3 0.026 2e-3 0.026 2e-3 0.025 3e-3 0.026 4e-3 0.025 8e-3 0.048 6e-3 0.025 6e-3 0.024 6e-3 0.023 7e-3 0.024 7e-3 0.023 8e-3 0.023 9e-3 0.023 9e-3 0.022 0.02 0.044 0.011 0.022 0.011 0.021 0.024 0.042 0.026 0.04 0.028 0.04 0.03 0.038 0.048 0.054 0.034 0.034 0.054 0.048 0.038 0.03 0.04 0.028 0.04 0.026 0.042 0.024 0.021 0.011 0.022 0.011 0.044 0.02 0.022 9e-3 0.023 9e-3 0.023 8e-3 0.023 7e-3 0.024 7e-3 0.023 6e-3 0.048 0.012 0.025 4e-3 0.024 4e-3 0.025 4e-3 0.026 3e-3 0.025 2e-3 0.026 2e-3 0.026 1e-3h0.032 4.988 0.032l0.026-1e-3 0.026-2e-3 0.025-2e-3 0.026-3e-3 0.025-4e-3 0.024-4e-3 0.025-4e-3 0.048-0.012 0.023-6e-3 0.024-7e-3 0.023-7e-3 0.023-8e-3 0.023-9e-3 0.022-9e-3 0.044-0.02 0.022-0.011 0.021-0.011 0.042-0.024 0.04-0.026 0.04-0.028 0.038-0.03 0.054-0.048 0.034-0.034 0.048-0.054 0.03-0.038 0.028-0.04 0.026-0.04 0.024-0.042 0.011-0.021 0.011-0.022 0.02-0.044 9e-3 -0.022 9e-3 -0.023 8e-3 -0.023 7e-3 -0.023 7e-3 -0.024 6e-3 -0.023 0.012-0.048 4e-3 -0.025 4e-3 -0.024 4e-3 -0.025 3e-3 -0.026 2e-3 -0.025 2e-3 -0.026 1e-3 -0.026v-0.032-7.988-0.032l-1e-3 -0.026-2e-3 -0.026-2e-3 -0.025-3e-3 -0.026-4e-3 -0.025-4e-3 -0.024-4e-3 -0.025-0.012-0.048-6e-3 -0.023-7e-3 -0.024-7e-3 -0.023-8e-3 -0.023-9e-3 -0.022-9e-3 -0.023-0.02-0.044-0.011-0.022-0.011-0.021-0.024-0.042-0.026-0.04-0.028-0.04-0.03-0.038-0.048-0.054-0.034-0.034-0.054-0.048-0.038-0.03-0.04-0.028-0.04-0.026-0.042-0.024-0.021-0.011-0.022-0.011-0.044-0.02-0.023-9e-3 -0.022-9e-3 -0.023-8e-3 -0.023-7e-3 -0.024-7e-3 -0.023-6e-3 -0.048-0.012-0.025-4e-3 -0.024-4e-3 -0.025-4e-3 -0.026-3e-3 -0.025-2e-3 -0.026-2e-3 -0.026-1e-3h-0.032-4.988z" fill="#a6a6a6"/>
            <path d="m13.051 6.001 0.051 4e-3 0.05 7e-3 0.05 8e-3 0.048 0.011 0.047 0.014 0.047 0.016 0.045 0.018 0.045 0.02 0.043 0.022 0.042 0.024 0.04 0.026 0.039 0.028 0.038 0.029 0.036 0.032 0.035 0.033 0.033 0.035 0.032 0.036 0.029 0.038 0.028 0.039 0.026 0.04 0.024 0.042 0.022 0.043 0.02 0.045 0.018 0.045 0.016 0.047 0.014 0.047 0.011 0.048 8e-3 0.05 7e-3 0.05 4e-3 0.051 1e-3 0.051v2l-1e-3 0.051-4e-3 0.051-7e-3 0.05-8e-3 0.05-0.011 0.048-0.014 0.047-0.016 0.047-0.018 0.045-0.02 0.045-0.022 0.043-0.024 0.042-0.026 0.04-0.028 0.039-0.029 0.038-0.032 0.036-0.033 0.035-0.035 0.033-0.036 0.032-0.038 0.029-0.039 0.028-0.04 0.026-0.042 0.024-0.043 0.022-0.045 0.02-0.045 0.018-0.047 0.016-0.047 0.014-0.048 0.011-0.05 8e-3 -0.05 7e-3 -0.051 4e-3 -0.051 1e-3 -0.051-1e-3 -0.051-4e-3 -0.05-7e-3 -0.05-8e-3 -0.048-0.011-0.047-0.014-0.047-0.016-0.045-0.018-0.045-0.02-0.043-0.022-0.042-0.024-0.04-0.026-0.039-0.028-0.038-0.029-0.036-0.032-0.035-0.033-0.033-0.035-0.032-0.036-0.029-0.038-0.028-0.039-0.026-0.04-0.024-0.042-0.022-0.043-0.02-0.045-0.018-0.045-0.016-0.047-0.014-0.047-0.011-0.048-8e-3 -0.05-7e-3 -0.05-4e-3 -0.051-1e-3 -0.051v-2l1e-3 -0.051 4e-3 -0.051 7e-3 -0.05 8e-3 -0.05 0.011-0.048 0.014-0.047 0.016-0.047 0.018-0.045 0.02-0.045 0.022-0.043 0.024-0.042 0.026-0.04 0.028-0.039 0.029-0.038 0.032-0.036 0.033-0.035 0.035-0.033 0.036-0.032 0.038-0.029 0.039-0.028 0.04-0.026 0.042-0.024 0.043-0.022 0.045-0.02 0.045-0.018 0.047-0.016 0.047-0.014 0.048-0.011 0.05-8e-3 0.05-7e-3 0.051-4e-3 0.051-1e-3 0.051 1e-3zm-0.051 1.012v1.974-1.974z" fill="#878787"/>
        </g>
    </g>
</svg>
