<?xml version="1.0" encoding="UTF-8"?>
<!DOCTYPE svg  PUBLIC '-//W3C//DTD SVG 1.1//EN'  'http://www.w3.org/Graphics/SVG/1.1/DTD/svg11.dtd'>
<svg clip-rule="evenodd" fill-rule="evenodd" stroke-linecap="round" stroke-miterlimit="1.5" version="1.1" viewBox="0 0 32 32" xml:space="preserve" xmlns="http://www.w3.org/2000/svg">
<metadata>
<rdf:RDF xmlns:cc="http://web.resource.org/cc/" xmlns:dc="http://purl.org/dc/elements/1.1/" xmlns:rdf="http://www.w3.org/1999/02/22-rdf-syntax-ns#">

     <rdf:Description rdf:about="">
       <dc:title>Mutant Standard emoji 2023.12</dc:title>
     </rdf:Description>

    <cc:work rdf:about="">
        <cc:license rdf:resource="http://creativecommons.org/licenses/by-nc-sa/4.0/"/>
        <cc:attributionName>Caius Nocturne</cc:attributionName>
        <cc:attributionURL>http://mutant.tech/</cc:attributionURL>
    </cc:work>

</rdf:RDF>
</metadata>

    <rect id="mountain_tramway" width="32" height="32" fill="none"/>
    <clipPath id="_clip1">
        <rect width="32" height="32"/>
    </clipPath>
    <g clip-path="url(#_clip1)">
        <g id="outline">
            <path d="m15 3c0-0.552 0.448-1 1-1h3c0.552 0 1 0.448 1 1h10v2h-10v8h5.409c0.931 0 1.739 0.643 1.949 1.55 0.557 2.417 1.631 7.07 2.224 9.638 0.265 1.149 0.01 2.356-0.698 3.3-0.435 0.58-0.917 1.222-1.284 1.712-0.378 0.504-0.97 0.8-1.6 0.8h-20c-0.63 0-1.222-0.296-1.6-0.8-0.367-0.49-0.849-1.132-1.284-1.712-0.708-0.944-0.963-2.151-0.698-3.3 0.593-2.568 1.667-7.221 2.224-9.638 0.21-0.907 1.018-1.55 1.949-1.55h5.409v-1c0-0.265 0.105-0.52 0.293-0.707 0.187-0.188 0.442-0.293 0.707-0.293h4c0.265 0 0.52-0.105 0.707-0.293 0.188-0.187 0.293-0.442 0.293-0.707v-4c0-0.552-0.448-1-1-1h-1-14v-2h13z" fill="none" stroke="#000" stroke-width="4px"/>
        </g>
        <g id="emoji">
            <rect x="2" y="3" width="28" height="2" fill="#363636"/>
            <path d="m16 2c-0.552 0-1 0.448-1 1v1c0 0.552 0.448 1 1 1h1c0.552 0 1 0.448 1 1v4c0 0.265-0.105 0.52-0.293 0.707-0.187 0.188-0.442 0.293-0.707 0.293h-4c-0.265 0-0.52 0.105-0.707 0.293-0.188 0.187-0.293 0.442-0.293 0.707v1l1 1h6l1-1v-10c0-0.552-0.448-1-1-1h-3z" fill="#4d4d4d"/>
            
                <path d="m29.579 26c-0.125 0.532-0.359 1.04-0.695 1.488-0.435 0.58-0.917 1.222-1.284 1.712-0.378 0.504-0.97 0.8-1.6 0.8h-20c-0.63 0-1.222-0.296-1.6-0.8-0.367-0.49-0.849-1.132-1.284-1.712-0.336-0.448-0.57-0.956-0.695-1.488l1.579-1h24l1.579 1z" fill="#b3b3b3"/>
                <path d="m2.421 26c-0.138-0.589-0.142-1.208-3e-3 -1.812 0.593-2.568 1.667-7.221 2.224-9.638 0.21-0.907 1.018-1.55 1.949-1.55h18.818c0.931 0 1.739 0.643 1.949 1.55 0.557 2.417 1.631 7.07 2.224 9.638 0.139 0.604 0.135 1.223-3e-3 1.812h-27.158z" fill="#e6e6e6"/>
            
            <path d="m26.189 15.757c-0.111-0.445-0.511-0.757-0.97-0.757h-18.438c-0.459 0-0.859 0.312-0.97 0.757-0.356 1.422-1.124 4.495-1.536 6.144-0.171 0.682 0.029 1.403 0.526 1.9l0.613 0.613c0.375 0.375 0.884 0.586 1.414 0.586h18.344c0.53 0 1.039-0.211 1.414-0.586l0.613-0.613c0.497-0.497 0.697-1.218 0.526-1.9-0.412-1.649-1.18-4.722-1.536-6.144z"/>
            <path d="m19.05 14.001 0.049 1e-3 0.05 4e-3 0.049 4e-3 0.049 5e-3 0.048 7e-3 0.049 8e-3 0.048 9e-3 0.048 0.01 0.047 0.011 0.048 0.013 0.047 0.013 0.046 0.015 0.046 0.016 0.046 0.017 0.045 0.018 0.045 0.019 0.045 0.021 0.043 0.021 0.044 0.023 0.043 0.023 0.084 0.05 0.041 0.027 0.08 0.056 0.039 0.03 0.039 0.031 0.074 0.064 0.037 0.034 0.07 0.07 0.034 0.037 0.064 0.074 0.031 0.039 0.03 0.039 0.056 0.08 0.027 0.041 0.05 0.084 0.023 0.043 0.023 0.044 0.021 0.043 0.021 0.045 0.019 0.045 0.018 0.045 0.017 0.046 0.016 0.046 0.015 0.046 0.013 0.047 0.013 0.048 0.011 0.047 0.01 0.048 9e-3 0.048 8e-3 0.049 7e-3 0.048 5e-3 0.049 4e-3 0.049 4e-3 0.05 1e-3 0.049 1e-3 0.05v11l-1e-3 0.05-1e-3 0.049-4e-3 0.05-4e-3 0.049-5e-3 0.049-7e-3 0.048-8e-3 0.049-9e-3 0.048-0.01 0.048-0.011 0.047-0.013 0.048-0.013 0.047-0.015 0.046-0.016 0.046-0.017 0.046-0.018 0.045-0.019 0.045-0.021 0.045-0.021 0.043-0.023 0.044-0.023 0.043-0.05 0.084-0.027 0.041-0.056 0.08-0.03 0.039-0.031 0.039-0.064 0.074-0.034 0.037-0.07 0.07-0.037 0.034-0.074 0.064-0.039 0.031-0.039 0.03-0.08 0.056-0.041 0.027-0.084 0.05-0.043 0.023-0.044 0.023-0.043 0.021-0.045 0.021-0.045 0.019-0.045 0.018-0.046 0.017-0.046 0.016-0.046 0.015-0.047 0.013-0.048 0.013-0.047 0.011-0.048 0.01-0.048 9e-3 -0.049 8e-3 -0.048 7e-3 -0.049 5e-3 -0.049 4e-3 -0.05 4e-3 -0.049 1e-3 -0.05 1e-3h-6l-0.05-1e-3 -0.049-1e-3 -0.05-4e-3 -0.049-4e-3 -0.049-5e-3 -0.048-7e-3 -0.049-8e-3 -0.048-9e-3 -0.048-0.01-0.047-0.011-0.048-0.013-0.047-0.013-0.046-0.015-0.046-0.016-0.046-0.017-0.045-0.018-0.045-0.019-0.045-0.021-0.043-0.021-0.044-0.023-0.043-0.023-0.084-0.05-0.041-0.027-0.08-0.056-0.039-0.03-0.039-0.031-0.074-0.064-0.037-0.034-0.07-0.07-0.034-0.037-0.064-0.074-0.031-0.039-0.03-0.039-0.056-0.08-0.027-0.041-0.05-0.084-0.023-0.043-0.023-0.044-0.021-0.043-0.021-0.045-0.019-0.045-0.018-0.045-0.017-0.046-0.016-0.046-0.015-0.046-0.013-0.047-0.013-0.048-0.011-0.047-0.01-0.048-9e-3 -0.048-8e-3 -0.049-7e-3 -0.048-5e-3 -0.049-4e-3 -0.049-4e-3 -0.05-1e-3 -0.049-1e-3 -0.05v-11l1e-3 -0.05 1e-3 -0.049 4e-3 -0.05 4e-3 -0.049 5e-3 -0.049 7e-3 -0.048 8e-3 -0.049 9e-3 -0.048 0.01-0.048 0.011-0.047 0.013-0.048 0.013-0.047 0.015-0.046 0.016-0.046 0.017-0.046 0.018-0.045 0.019-0.045 0.021-0.045 0.021-0.043 0.023-0.044 0.023-0.043 0.05-0.084 0.027-0.041 0.056-0.08 0.03-0.039 0.031-0.039 0.064-0.074 0.034-0.037 0.07-0.07 0.037-0.034 0.074-0.064 0.039-0.031 0.039-0.03 0.08-0.056 0.041-0.027 0.084-0.05 0.043-0.023 0.044-0.023 0.043-0.021 0.045-0.021 0.045-0.019 0.045-0.018 0.046-0.017 0.046-0.016 0.046-0.015 0.047-0.013 0.048-0.013 0.047-0.011 0.048-0.01 0.048-9e-3 0.049-8e-3 0.048-7e-3 0.049-5e-3 0.049-4e-3 0.05-4e-3 0.049-1e-3 0.05-1e-3h6l0.05 1e-3zm-6.044 0.999h-0.031l-0.025 1e-3 -0.024 2e-3 -0.025 2e-3 -0.024 3e-3 -0.025 3e-3 -0.048 8e-3 -0.024 6e-3 -0.024 5e-3 -0.023 6e-3 -0.024 7e-3 -0.069 0.024-0.023 9e-3 -0.044 0.02-0.044 0.022-0.042 0.024-0.042 0.026-0.04 0.028-0.019 0.015-0.02 0.016-0.019 0.015-0.054 0.051-0.051 0.054-0.016 0.019-0.015 0.02-0.015 0.019-0.028 0.04-0.026 0.042-0.024 0.042-0.022 0.044-0.02 0.044-9e-3 0.023-0.024 0.069-7e-3 0.024-6e-3 0.023-5e-3 0.024-6e-3 0.024-8e-3 0.048-3e-3 0.025-3e-3 0.024-2e-3 0.025-2e-3 0.024-1e-3 0.025v0.031 10.988 0.031l1e-3 0.025 2e-3 0.024 2e-3 0.025 3e-3 0.024 3e-3 0.025 8e-3 0.048 6e-3 0.024 5e-3 0.024 6e-3 0.023 7e-3 0.024 0.024 0.069 9e-3 0.023 0.02 0.044 0.022 0.044 0.024 0.042 0.026 0.042 0.028 0.04 0.015 0.019 0.016 0.02 0.015 0.019 0.051 0.054 0.054 0.051 0.019 0.015 0.02 0.016 0.019 0.015 0.04 0.028 0.042 0.026 0.042 0.024 0.044 0.022 0.044 0.02 0.023 9e-3 0.069 0.024 0.024 7e-3 0.023 6e-3 0.024 5e-3 0.024 6e-3 0.048 8e-3 0.025 3e-3 0.024 3e-3 0.025 2e-3 0.024 2e-3 0.025 1e-3h0.031 5.988 0.031l0.025-1e-3 0.024-2e-3 0.025-2e-3 0.024-3e-3 0.025-3e-3 0.048-8e-3 0.024-6e-3 0.024-5e-3 0.023-6e-3 0.024-7e-3 0.069-0.024 0.023-9e-3 0.044-0.02 0.044-0.022 0.042-0.024 0.042-0.026 0.04-0.028 0.019-0.015 0.02-0.015 0.019-0.016 0.054-0.051 0.051-0.054 0.015-0.019 0.016-0.02 0.015-0.019 0.028-0.04 0.026-0.042 0.024-0.042 0.022-0.044 0.02-0.044 9e-3 -0.023 0.024-0.069 7e-3 -0.024 6e-3 -0.023 5e-3 -0.024 6e-3 -0.024 8e-3 -0.048 3e-3 -0.025 3e-3 -0.024 2e-3 -0.025 2e-3 -0.024 1e-3 -0.025v-0.031-10.988-0.031l-1e-3 -0.025-2e-3 -0.024-2e-3 -0.025-3e-3 -0.024-3e-3 -0.025-8e-3 -0.048-6e-3 -0.024-5e-3 -0.024-6e-3 -0.023-7e-3 -0.024-0.024-0.069-9e-3 -0.023-0.02-0.044-0.022-0.044-0.024-0.042-0.026-0.042-0.028-0.04-0.015-0.019-0.015-0.02-0.016-0.019-0.051-0.054-0.054-0.051-0.019-0.015-0.02-0.016-0.019-0.015-0.04-0.028-0.042-0.026-0.042-0.024-0.044-0.022-0.044-0.02-0.023-9e-3 -0.069-0.024-0.024-7e-3 -0.023-6e-3 -0.024-5e-3 -0.024-6e-3 -0.048-8e-3 -0.025-3e-3 -0.024-3e-3 -0.025-2e-3 -0.024-2e-3 -0.025-1e-3h-0.031-5.988z" fill="#808080"/>
        </g>
    </g>
</svg>
