<?xml version="1.0" encoding="UTF-8"?>
<!DOCTYPE svg  PUBLIC '-//W3C//DTD SVG 1.1//EN'  'http://www.w3.org/Graphics/SVG/1.1/DTD/svg11.dtd'>
<svg clip-rule="evenodd" fill-rule="evenodd" stroke-linecap="round" stroke-linejoin="round" stroke-miterlimit="1.5" version="1.1" viewBox="0 0 32 32" xml:space="preserve" xmlns="http://www.w3.org/2000/svg">
<metadata>
<rdf:RDF xmlns:cc="http://web.resource.org/cc/" xmlns:dc="http://purl.org/dc/elements/1.1/" xmlns:rdf="http://www.w3.org/1999/02/22-rdf-syntax-ns#">

     <rdf:Description rdf:about="">
       <dc:title>Mutant Standard emoji 2023.12</dc:title>
     </rdf:Description>

    <cc:work rdf:about="">
        <cc:license rdf:resource="http://creativecommons.org/licenses/by-nc-sa/4.0/"/>
        <cc:attributionName>Caius Nocturne</cc:attributionName>
        <cc:attributionURL>http://mutant.tech/</cc:attributionURL>
    </cc:work>

</rdf:RDF>
</metadata>

    <rect id="mountain_railway" width="32" height="32" fill="none"/>
    <clipPath id="_clip1">
        <rect width="32" height="32"/>
    </clipPath>
    <g clip-path="url(#_clip1)">
        <g id="outline">
            <path d="m32 2c0-0.53-0.211-1.039-0.586-1.414s-0.884-0.586-1.414-0.586h-28c-0.53 0-1.039 0.211-1.414 0.586s-0.586 0.884-0.586 1.414v28c0 0.53 0.211 1.039 0.586 1.414s0.884 0.586 1.414 0.586h28c0.53 0 1.039-0.211 1.414-0.586s0.586-0.884 0.586-1.414v-28z"/>
        </g>
        <g id="emoji">
            <rect x="2" y="2" width="28" height="28" fill="#2e62db"/>
            <clipPath id="_clip2">
                <rect x="2" y="2" width="28" height="28"/>
            </clipPath>
            <g clip-path="url(#_clip2)">
                <path d="m2 17 20-8 8 4v16h-28v-12z" fill="#1b439a"/>
                <path d="m2 11 5-2 13 6v14h-18v-18z" fill="#1b439a"/>
                <g fill="#446d29">
                    <rect x="1" y="22" width="2" height="7"/>
                    <rect x="8" y="22" width="2" height="7"/>
                </g>
                <g fill="#6db142">
                    <path d="m9 4-6 21h12l-6-21z"/>
                    <path d="m2 4-6 21h12l-6-21z"/>
                    <path d="m16 4-6 21h12l-6-21z"/>
                    <path d="m23 4-6 21h12l-6-21z"/>
                    <path d="m30 4-6 21h12l-6-21z"/>
                </g>
                <path d="m3.941 21.883c-1.085 1.184-1.046 3.012 0.09 4.148l0.212 0.212c1.125 1.125 2.651 1.757 4.242 1.757h21.515v-16h-8.202c-5.606 0-10.955 2.353-14.743 6.486-1.127 1.229-2.228 2.43-3.114 3.397z" fill="#fff"/>
                <clipPath id="_clip3">
                    <path d="m3.941 21.883c-1.085 1.184-1.046 3.012 0.09 4.148l0.212 0.212c1.125 1.125 2.651 1.757 4.242 1.757h21.515v-16h-8.202c-5.606 0-10.955 2.353-14.743 6.486-1.127 1.229-2.228 2.43-3.114 3.397z"/>
                </clipPath>
                <g clip-path="url(#_clip3)">
                    <rect y="26" width="31" height="3" fill="#ccc"/>
                    <path d="m13 11s0.273 1.09 0.533 2.132c0.285 1.138-0.12 2.338-1.036 3.071-0.878 0.702-1.951 1.56-2.675 2.14-0.532 0.425-1.193 0.657-1.874 0.657h-2.948l1-8h7z"/>
                    <rect x="-1" y="22" width="31" height="2" fill="#2bc2f4"/>
                    <path d="m4.904 20.56s3.493 1.317 3.493 4.472c0 2.612-3.73 4.008-3.73 4.008" fill="none" stroke="#a8a8a8" stroke-width="1px"/>
                    <path d="m20 16c0-0.265-0.105-0.52-0.293-0.707-0.187-0.188-0.442-0.293-0.707-0.293h-2c-0.265 0-0.52 0.105-0.707 0.293-0.188 0.187-0.293 0.442-0.293 0.707v4c0 0.265 0.105 0.52 0.293 0.707 0.187 0.188 0.442 0.293 0.707 0.293h2c0.265 0 0.52-0.105 0.707-0.293 0.188-0.187 0.293-0.442 0.293-0.707v-4z"/>
                    <path d="m31 15h-5c-1.105 0-2 0.895-2 2v2c0 1.105 0.895 2 2 2h5v-6z"/>
                    <path d="m19.05 14.001 0.049 1e-3 0.05 4e-3 0.049 4e-3 0.049 5e-3 0.048 7e-3 0.049 8e-3 0.048 9e-3 0.048 0.01 0.048 0.011 0.094 0.026 0.046 0.015 0.046 0.016 0.046 0.017 0.045 0.018 0.045 0.019 0.045 0.021 0.043 0.021 0.044 0.023 0.043 0.023 0.084 0.05 0.041 0.027 0.08 0.056 0.039 0.03 0.039 0.031 0.074 0.064 0.037 0.034 0.07 0.07 0.034 0.037 0.064 0.074 0.031 0.039 0.03 0.039 0.056 0.08 0.027 0.041 0.05 0.084 0.023 0.043 0.023 0.044 0.021 0.043 0.021 0.045 0.019 0.045 0.018 0.045 0.017 0.046 0.016 0.046 0.015 0.046 0.013 0.047 0.013 0.048 0.011 0.047 0.01 0.048 9e-3 0.048 8e-3 0.049 7e-3 0.048 5e-3 0.049 4e-3 0.049 4e-3 0.05 1e-3 0.049 1e-3 0.05v7l-1e-3 0.05-1e-3 0.049-4e-3 0.05-4e-3 0.049-5e-3 0.049-7e-3 0.048-8e-3 0.049-9e-3 0.048-0.01 0.048-0.011 0.047-0.013 0.048-0.013 0.047-0.015 0.046-0.016 0.046-0.017 0.046-0.018 0.045-0.019 0.045-0.021 0.045-0.021 0.043-0.023 0.044-0.023 0.043-0.05 0.084-0.027 0.041-0.056 0.08-0.03 0.039-0.031 0.039-0.064 0.074-0.034 0.037-0.07 0.07-0.037 0.034-0.074 0.064-0.039 0.031-0.039 0.03-0.08 0.056-0.041 0.027-0.084 0.05-0.043 0.023-0.044 0.023-0.043 0.021-0.045 0.021-0.045 0.019-0.045 0.018-0.046 0.017-0.046 0.016-0.046 0.015-0.094 0.026-0.048 0.011-0.048 0.01-0.048 9e-3 -0.049 8e-3 -0.048 7e-3 -0.049 5e-3 -0.049 4e-3 -0.05 4e-3 -0.049 1e-3 -0.05 1e-3h-2l-0.05-1e-3 -0.049-1e-3 -0.05-4e-3 -0.049-4e-3 -0.049-5e-3 -0.048-7e-3 -0.049-8e-3 -0.048-9e-3 -0.048-0.01-0.048-0.011-0.094-0.026-0.046-0.015-0.046-0.016-0.046-0.017-0.045-0.018-0.045-0.019-0.045-0.021-0.043-0.021-0.044-0.023-0.043-0.023-0.084-0.05-0.041-0.027-0.08-0.056-0.039-0.03-0.039-0.031-0.074-0.064-0.037-0.034-0.07-0.07-0.034-0.037-0.064-0.074-0.031-0.039-0.03-0.039-0.056-0.08-0.027-0.041-0.05-0.084-0.023-0.043-0.023-0.044-0.021-0.043-0.021-0.045-0.019-0.045-0.018-0.045-0.017-0.046-0.016-0.046-0.015-0.046-0.013-0.047-0.013-0.048-0.011-0.047-0.01-0.048-9e-3 -0.048-8e-3 -0.049-7e-3 -0.048-5e-3 -0.049-4e-3 -0.049-4e-3 -0.05-1e-3 -0.049-1e-3 -0.05v-7l1e-3 -0.05 1e-3 -0.049 4e-3 -0.05 4e-3 -0.049 5e-3 -0.049 7e-3 -0.048 8e-3 -0.049 9e-3 -0.048 0.01-0.048 0.011-0.047 0.013-0.048 0.013-0.047 0.015-0.046 0.016-0.046 0.017-0.046 0.018-0.045 0.019-0.045 0.021-0.045 0.021-0.043 0.023-0.044 0.023-0.043 0.05-0.084 0.027-0.041 0.056-0.08 0.03-0.039 0.031-0.039 0.064-0.074 0.034-0.037 0.07-0.07 0.037-0.034 0.074-0.064 0.039-0.031 0.039-0.03 0.08-0.056 0.041-0.027 0.084-0.05 0.043-0.023 0.044-0.023 0.043-0.021 0.045-0.021 0.045-0.019 0.045-0.018 0.046-0.017 0.046-0.016 0.046-0.015 0.094-0.026 0.048-0.011 0.048-0.01 0.048-9e-3 0.049-8e-3 0.048-7e-3 0.049-5e-3 0.049-4e-3 0.05-4e-3 0.049-1e-3 0.05-1e-3h2l0.05 1e-3zm-2.044 0.999h-0.031l-0.025 1e-3 -0.024 2e-3 -0.025 2e-3 -0.024 3e-3 -0.025 3e-3 -0.048 8e-3 -0.024 6e-3 -0.024 5e-3 -0.023 6e-3 -0.024 7e-3 -0.069 0.024-0.023 9e-3 -0.044 0.02-0.044 0.022-0.042 0.024-0.042 0.026-0.04 0.028-0.02 0.015-0.019 0.015-0.019 0.016-0.054 0.051-0.051 0.054-0.016 0.019-0.015 0.02-0.015 0.019-0.028 0.04-0.026 0.042-0.024 0.042-0.022 0.044-0.02 0.044-9e-3 0.023-0.024 0.069-7e-3 0.024-6e-3 0.023-5e-3 0.024-6e-3 0.024-8e-3 0.048-3e-3 0.025-3e-3 0.024-2e-3 0.025-2e-3 0.024-1e-3 0.025v0.031 6.988 0.031l1e-3 0.025 2e-3 0.024 2e-3 0.025 3e-3 0.024 3e-3 0.025 8e-3 0.048 6e-3 0.024 5e-3 0.024 6e-3 0.023 7e-3 0.024 0.024 0.069 9e-3 0.023 0.02 0.044 0.022 0.044 0.024 0.042 0.026 0.042 0.028 0.04 0.015 0.019 0.015 0.02 0.016 0.019 0.051 0.054 0.054 0.051 0.019 0.016 0.019 0.015 0.02 0.015 0.04 0.028 0.042 0.026 0.042 0.024 0.044 0.022 0.044 0.02 0.023 9e-3 0.069 0.024 0.024 7e-3 0.023 6e-3 0.024 5e-3 0.024 6e-3 0.048 8e-3 0.025 3e-3 0.024 3e-3 0.025 2e-3 0.024 2e-3 0.025 1e-3h0.031 1.988 0.031l0.025-1e-3 0.024-2e-3 0.025-2e-3 0.024-3e-3 0.025-3e-3 0.048-8e-3 0.024-6e-3 0.024-5e-3 0.023-6e-3 0.024-7e-3 0.069-0.024 0.023-9e-3 0.044-0.02 0.044-0.022 0.042-0.024 0.042-0.026 0.04-0.028 0.019-0.015 0.02-0.015 0.018-0.016 0.038-0.034 0.017-0.017 0.034-0.036 0.017-0.019 0.016-0.018 0.015-0.02 0.015-0.019 0.028-0.04 0.013-0.02 0.013-0.021 0.012-0.022 0.012-0.021 0.011-0.022 0.011-0.021 0.01-0.023 0.01-0.022 9e-3 -0.023 0.024-0.069 7e-3 -0.024 6e-3 -0.023 0.015-0.072 4e-3 -0.024 3e-3 -0.025 3e-3 -0.024 2e-3 -0.024 2e-3 -0.025 1e-3 -0.025v-0.031-6.988-0.031l-1e-3 -0.025-2e-3 -0.025-2e-3 -0.024-3e-3 -0.024-3e-3 -0.025-4e-3 -0.024-0.015-0.072-6e-3 -0.023-7e-3 -0.024-0.024-0.069-9e-3 -0.023-0.01-0.022-0.01-0.023-0.011-0.021-0.011-0.022-0.012-0.021-0.012-0.022-0.013-0.021-0.013-0.02-0.028-0.04-0.015-0.019-0.015-0.02-0.016-0.018-0.034-0.038-0.034-0.034-0.038-0.034-0.018-0.016-0.02-0.015-0.019-0.015-0.02-0.014-0.021-0.014-0.02-0.013-0.021-0.013-0.042-0.024-0.044-0.022-0.044-0.02-0.023-9e-3 -0.069-0.024-0.024-7e-3 -0.023-6e-3 -0.024-5e-3 -0.024-6e-3 -0.048-8e-3 -0.025-3e-3 -0.024-3e-3 -0.025-2e-3 -0.024-2e-3 -0.025-1e-3h-0.031-1.988z" fill="#a6a6a6"/>
                </g>
                <rect x="2" y="28" width="28" height="2" fill="#666"/>
            </g>
        </g>
    </g>
</svg>
