<?xml version="1.0" encoding="UTF-8"?>
<!DOCTYPE svg  PUBLIC '-//W3C//DTD SVG 1.1//EN'  'http://www.w3.org/Graphics/SVG/1.1/DTD/svg11.dtd'>
<svg clip-rule="evenodd" fill-rule="evenodd" stroke-linejoin="round" stroke-miterlimit="1.5" version="1.1" viewBox="0 0 32 32" xml:space="preserve" xmlns="http://www.w3.org/2000/svg">
<metadata>
<rdf:RDF xmlns:cc="http://web.resource.org/cc/" xmlns:dc="http://purl.org/dc/elements/1.1/" xmlns:rdf="http://www.w3.org/1999/02/22-rdf-syntax-ns#">

     <rdf:Description rdf:about="">
       <dc:title>Mutant Standard emoji 2023.12</dc:title>
     </rdf:Description>

    <cc:work rdf:about="">
        <cc:license rdf:resource="http://creativecommons.org/licenses/by-nc-sa/4.0/"/>
        <cc:attributionName>Caius Nocturne</cc:attributionName>
        <cc:attributionURL>http://mutant.tech/</cc:attributionURL>
    </cc:work>

</rdf:RDF>
</metadata>

    <rect id="railway_car" width="32" height="32" fill="none"/>
    <clipPath id="_clip1">
        <rect width="32" height="32"/>
    </clipPath>
    <g clip-path="url(#_clip1)">
        <g id="outline">
            <path d="m32 9c0-0.796-0.316-1.559-0.879-2.121-0.562-0.563-1.325-0.879-2.121-0.879h-26c-0.796 0-1.559 0.316-2.121 0.879-0.563 0.562-0.879 1.325-0.879 2.121v23h32v-23z"/>
            <path d="m15 9 6-3-6-3h-1" fill="none" stroke="#000" stroke-width="6px"/>
            <path d="m14 4-1 1h-1v-3h3v2h-1z" fill="none" stroke="#000" stroke-linecap="round" stroke-width="4px"/>
        </g>
        <g id="emoji">
            <path d="m15 9 6-3-6-3h-1" fill="none" stroke="#737373" stroke-linecap="square" stroke-width="2px"/>
            <rect x="2" y="28" width="28" height="2" fill="#666"/>
            
                <rect x="5" y="23" width="22" height="4" fill="#333"/>
                <circle cx="9" cy="26" r="2" fill="#808080"/>
                <circle cx="23" cy="26" r="2" fill="#808080"/>
                
                    <path d="m30 10-1-1h-26l-1 1v16c0 0.552 0.448 1 1 1h2l1.707-1.707c0.188-0.188 0.442-0.293 0.707-0.293h17.172c0.265 0 0.519 0.105 0.707 0.293l1.707 1.707h2c0.552 0 1-0.448 1-1v-16z" fill="#d9d9d9"/>
                    <path d="m30 9c0-0.552-0.448-1-1-1h-26c-0.552 0-1 0.448-1 1v1h28v-1z" fill="#f2f2f2"/>
                
            
            
                <path d="m21 13c0-0.552-0.448-1-1-1h-3l-1 1-1-1h-6l-1 1-1-1h-3c-0.552 0-1 0.448-1 1v7c0 0.552 0.448 1 1 1h3l1-1 1 1h6l1-1 1 1h3c0.552 0 1-0.448 1-1v-7z"/>
                <rect x="7" y="12" width="2" height="9" fill="#404040"/>
                <rect x="15" y="12" width="2" height="9" fill="#404040"/>
            
            <path d="m29 22.077v-9.077c0-1.105-0.895-2-2-2h-3c-1.105 0-2 0.895-2 2v9.077l1 0.923h5l1-0.923z" fill="#f1d417"/>
            <path d="m29 23c0 0.265-0.105 0.52-0.293 0.707-0.187 0.188-0.442 0.293-0.707 0.293h-5c-0.265 0-0.52-0.105-0.707-0.293-0.188-0.187-0.293-0.442-0.293-0.707v-1h7v1z" fill="#666"/>
            <path d="m28 13c0-0.265-0.105-0.52-0.293-0.707-0.187-0.188-0.442-0.293-0.707-0.293h-3c-0.265 0-0.52 0.105-0.707 0.293-0.188 0.187-0.293 0.442-0.293 0.707v7c0 0.265 0.105 0.52 0.293 0.707 0.187 0.188 0.442 0.293 0.707 0.293h3c0.265 0 0.52-0.105 0.707-0.293 0.188-0.187 0.293-0.442 0.293-0.707v-7z"/>
            <path d="m14 4-1 1h-1v-3h3v2h-1z" fill="#8c8c8c"/>
        </g>
    </g>
</svg>
