<?xml version="1.0" encoding="UTF-8"?>
<!DOCTYPE svg  PUBLIC '-//W3C//DTD SVG 1.1//EN'  'http://www.w3.org/Graphics/SVG/1.1/DTD/svg11.dtd'>
<svg clip-rule="evenodd" fill-rule="evenodd" stroke-linecap="round" stroke-linejoin="round" stroke-miterlimit="1.5" version="1.1" viewBox="0 0 32 32" xml:space="preserve" xmlns="http://www.w3.org/2000/svg">
<metadata>
<rdf:RDF xmlns:cc="http://web.resource.org/cc/" xmlns:dc="http://purl.org/dc/elements/1.1/" xmlns:rdf="http://www.w3.org/1999/02/22-rdf-syntax-ns#">

     <rdf:Description rdf:about="">
       <dc:title>Mutant Standard emoji 2023.12</dc:title>
     </rdf:Description>

    <cc:work rdf:about="">
        <cc:license rdf:resource="http://creativecommons.org/licenses/by-nc-sa/4.0/"/>
        <cc:attributionName>Caius Nocturne</cc:attributionName>
        <cc:attributionURL>http://mutant.tech/</cc:attributionURL>
    </cc:work>

</rdf:RDF>
</metadata>

    <rect id="station" width="32" height="32" fill="none"/>
    <clipPath id="_clip1">
        <rect width="32" height="32"/>
    </clipPath>
    <g clip-path="url(#_clip1)">
        <g id="outline">
            <path d="m16 32h-15c-0.265 0-0.52-0.105-0.707-0.293-0.188-0.187-0.293-0.442-0.293-0.707v-20c0-1.657 1.343-3 3-3h17.5c-0.323-0.43-0.5-0.956-0.5-1.5v-4c0-0.663 0.263-1.299 0.732-1.768s1.105-0.732 1.768-0.732h7c0.663 0 1.299 0.263 1.768 0.732s0.732 1.105 0.732 1.768v4c0 0.663-0.263 1.299-0.732 1.768s-1.105 0.732-1.768 0.732h-3.5v17h6v6h-16z"/>
            <path d="m7 5 4 3 4-3" fill="none" stroke="#000" stroke-width="5.5px"/>
            <path d="m7.243 4c-0.796 0-1.559 0.316-2.122 0.879l-1.121 1.121 1 1s0.874-0.656 1.467-1.1c0.346-0.26 0.767-0.4 1.2-0.4h6.666c0.433 0 0.854 0.14 1.2 0.4 0.541 0.405 1.316 0.986 1.448 1.085 0.011 9e-3 0.026 8e-3 0.036-2e-3l0.983-0.983-1.121-1.121c-0.563-0.563-1.326-0.879-2.122-0.879h-7.514z" fill="none" stroke="#000" stroke-width="4px"/>
            <rect x="17" y="6" width="4" height="4"/>
        </g>
        <g id="emoji">
            <g id="Layer1">
                
                    <path d="m11 11v-3" fill="none" stroke="#666" stroke-linecap="square" stroke-width="1.5px"/>
                    <path d="m7 5 4 3 4-3" fill="none" stroke="#666" stroke-width="1.5px"/>
                    <path d="m7.243 4c-0.796 0-1.559 0.316-2.122 0.879l-1.121 1.121 1 1s0.874-0.656 1.467-1.1c0.346-0.26 0.767-0.4 1.2-0.4h6.666c0.433 0 0.854 0.14 1.2 0.4 0.541 0.405 1.316 0.986 1.448 1.085 0.011 9e-3 0.026 8e-3 0.036-2e-3l0.983-0.983-1.121-1.121c-0.563-0.563-1.326-0.879-2.122-0.879h-7.514z" fill="#999"/>
                
                <path d="m20 11c0-0.265-0.105-0.52-0.293-0.707-0.187-0.188-0.442-0.293-0.707-0.293h-16c-0.265 0-0.52 0.105-0.707 0.293-0.188 0.187-0.293 0.442-0.293 0.707v9l1 1-1 1v4c0 0.265 0.105 0.52 0.293 0.707 0.187 0.188 0.442 0.293 0.707 0.293h16c0.265 0 0.52-0.105 0.707-0.293 0.188-0.187 0.293-0.442 0.293-0.707v-4l-1-1 1-1v-9z" fill="#e6e6e6"/>
                <clipPath id="_clip2">
                    <path d="m20 11c0-0.265-0.105-0.52-0.293-0.707-0.187-0.188-0.442-0.293-0.707-0.293h-16c-0.265 0-0.52 0.105-0.707 0.293-0.188 0.187-0.293 0.442-0.293 0.707v9l1 1-1 1v4c0 0.265 0.105 0.52 0.293 0.707 0.187 0.188 0.442 0.293 0.707 0.293h16c0.265 0 0.52-0.105 0.707-0.293 0.188-0.187 0.293-0.442 0.293-0.707v-4l-1-1 1-1v-9z"/>
                </clipPath>
                <g clip-path="url(#_clip2)">
                    <path d="m18 29h-14v-4h14v4zm-13-3v2h12v-2h-12z" fill="#b3b3b3"/>
                </g>
                <rect x="2" y="20" width="18" height="2" fill="#af54bc"/>
                
                    <path d="m19 14-1-1h-14l-1 1v6c0 0.552 0.448 1 1 1h14c0.552 0 1-0.448 1-1v-6z"/>
                    <path d="m19 12c0-0.552-0.448-1-1-1h-14c-0.552 0-1 0.448-1 1v2h16v-2z" fill="#3f3f3f"/>
                    <g fill="#e9a620">
                        <rect x="8" y="12" width="4" height="1"/>
                        <rect x="13" y="12" width="1" height="1"/>
                    </g>
                
                <path d="m7 23c0-0.552-0.448-1-1-1h-2c-0.552 0-1 0.448-1 1s0.448 1 1 1h2c0.552 0 1-0.448 1-1z" fill="#404040"/>
                <path d="m19 23c0-0.552-0.448-1-1-1h-2c-0.552 0-1 0.448-1 1s0.448 1 1 1h2c0.552 0 1-0.448 1-1z" fill="#404040"/>
            </g>
            <path d="m24 7-1-0.929-1 0.429v22.5h2v-22z" fill="#4e4e4e"/>
            <rect x="2" y="28" width="28" height="2" fill="#7f7f7f"/>
            <path d="m22 2.5c0-0.133 0.053-0.26 0.146-0.354 0.094-0.093 0.221-0.146 0.354-0.146h7c0.133 0 0.26 0.053 0.354 0.146 0.093 0.094 0.146 0.221 0.146 0.354v4c0 0.133-0.053 0.26-0.146 0.354-0.094 0.093-0.221 0.146-0.354 0.146h-7c-0.133 0-0.26-0.053-0.354-0.146-0.093-0.094-0.146-0.221-0.146-0.354v-4z" fill="#2573e1"/>
            <rect x="26" y="4" width="3" height="1" fill="#fff"/>
            <rect x="23" y="3" width="2" height="3" fill="#fff"/>
        </g>
    </g>
</svg>
