<?xml version="1.0" encoding="UTF-8"?>
<!DOCTYPE svg  PUBLIC '-//W3C//DTD SVG 1.1//EN'  'http://www.w3.org/Graphics/SVG/1.1/DTD/svg11.dtd'>
<svg clip-rule="evenodd" fill-rule="evenodd" stroke-linecap="round" stroke-miterlimit="1.5" version="1.1" viewBox="0 0 32 32" xml:space="preserve" xmlns="http://www.w3.org/2000/svg">
<metadata>
<rdf:RDF xmlns:cc="http://web.resource.org/cc/" xmlns:dc="http://purl.org/dc/elements/1.1/" xmlns:rdf="http://www.w3.org/1999/02/22-rdf-syntax-ns#">

     <rdf:Description rdf:about="">
       <dc:title>Mutant Standard emoji 2023.12</dc:title>
     </rdf:Description>

    <cc:work rdf:about="">
        <cc:license rdf:resource="http://creativecommons.org/licenses/by-nc-sa/4.0/"/>
        <cc:attributionName>Caius Nocturne</cc:attributionName>
        <cc:attributionURL>http://mutant.tech/</cc:attributionURL>
    </cc:work>

</rdf:RDF>
</metadata>

    <rect id="steam_train" width="32" height="32" fill="none"/>
    <clipPath id="_clip1">
        <rect width="32" height="32"/>
    </clipPath>
    <g clip-path="url(#_clip1)">
        <g id="outline">
            <rect x="2" y="28" width="28" height="2" fill="none" stroke="#000" stroke-width="4px"/>
            <path d="m30 21h-15.896c-1.347 0-2.639 0.535-3.592 1.488l-0.359 0.359c-0.738 0.738-1.74 1.153-2.784 1.153h-5.369l2.144-2.144c1.188-1.188 2.8-1.856 4.481-1.856h-0.625c-0.53 0-1.039-0.211-1.414-0.586s-0.586-0.884-0.586-1.414v-2c0-0.796 0.316-1.559 0.879-2.121 0.562-0.563 1.325-0.879 2.121-0.879h1v-3c0-0.265 0.105-0.52 0.293-0.707 0.187-0.188 0.442-0.293 0.707-0.293h3c0.265 0 0.52 0.105 0.707 0.293 0.188 0.187 0.293 0.442 0.293 0.707v3h8l1.121-1.121c0.563-0.563 1.326-0.879 2.122-0.879h3.757v10z" fill="none" stroke="#000" stroke-linejoin="round" stroke-width="4px"/>
            <path d="m32 9h-2l-3 4h-11l-4 8-12 3v6h32v-21z"/>
            <rect x="26" y="13" width="4" height="5.499"/>
        </g>
        <g id="emoji">
            <rect x="2" y="28" width="28" height="2" fill="#666"/>
            <circle cx="4" cy="26" r="2" fill="#808080"/>
            <circle cx="8.5" cy="26" r="2" fill="#808080"/>
            <path d="m23.103 20.001 0.103 4e-3 0.102 7e-3 0.101 9e-3 0.1 0.011 0.1 0.014 0.099 0.017 0.098 0.018 0.097 0.022 0.096 0.023 0.096 0.026 0.094 0.028 0.093 0.03 0.093 0.033 0.091 0.035 0.09 0.037 0.09 0.039 0.088 0.041 0.086 0.043 0.086 0.045 0.084 0.047 0.083 0.049 0.082 0.052 0.081 0.053 0.079 0.054 0.078 0.057 0.076 0.059 0.075 0.06 0.073 0.062 0.072 0.064 0.07 0.065 0.069 0.067 0.067 0.069 0.065 0.07 0.064 0.072 0.062 0.073 0.06 0.075 0.059 0.076 0.057 0.078 0.054 0.079 0.053 0.081 0.052 0.082 0.049 0.083 0.047 0.084 0.045 0.086 0.043 0.086 0.041 0.088 0.039 0.09 0.037 0.09 0.035 0.091 0.033 0.093 0.03 0.093 0.028 0.094 0.026 0.096 0.023 0.096 0.022 0.097 0.018 0.098 0.017 0.099 0.014 0.1 0.011 0.1 9e-3 0.101 7e-3 0.102 4e-3 0.103 1e-3 0.103-1e-3 0.103-4e-3 0.103-7e-3 0.102-9e-3 0.101-0.011 0.1-0.014 0.1-0.017 0.099-0.018 0.098-0.022 0.097-0.023 0.096-0.026 0.096-0.028 0.094-0.03 0.093-0.033 0.093-0.035 0.091-0.037 0.09-0.039 0.09-0.041 0.088-0.043 0.086-0.045 0.086-0.047 0.084-0.049 0.083-0.052 0.082-0.053 0.081-0.054 0.079-0.057 0.078-0.059 0.076-0.06 0.075-0.062 0.073-0.064 0.072-0.065 0.07-0.067 0.069-0.069 0.067-0.07 0.065-0.072 0.064-0.073 0.062-0.075 0.06-0.076 0.059-0.078 0.057-0.079 0.054-0.081 0.053-0.082 0.052-0.083 0.049-0.084 0.047-0.086 0.045-0.086 0.043-0.088 0.041-0.09 0.039-0.09 0.037-0.091 0.035-0.093 0.033-0.093 0.03-0.094 0.028-0.096 0.026-0.096 0.023-0.097 0.022-0.098 0.018-0.099 0.017-0.1 0.014-0.1 0.011-0.101 9e-3 -0.102 7e-3 -0.103 4e-3 -0.103 1e-3 -0.103-1e-3 -0.103-4e-3 -0.102-7e-3 -0.101-9e-3 -0.1-0.011-0.1-0.014-0.099-0.017-0.098-0.018-0.097-0.022-0.096-0.023-0.096-0.026-0.094-0.028-0.093-0.03-0.093-0.033-0.091-0.035-0.09-0.037-0.09-0.039-0.088-0.041-0.086-0.043-0.086-0.045-0.084-0.047-0.083-0.049-0.082-0.052-0.081-0.053-0.079-0.054-0.078-0.057-0.076-0.059-0.075-0.06-0.073-0.062-0.072-0.064-0.07-0.065-0.069-0.067-0.067-0.069-0.065-0.07-0.064-0.072-0.062-0.073-0.06-0.075-0.059-0.076-0.057-0.078-0.054-0.079-0.053-0.081-0.052-0.082-0.049-0.083-0.047-0.084-0.045-0.086-0.043-0.086-0.041-0.088-0.039-0.09-0.037-0.09-0.035-0.091-0.033-0.093-0.03-0.093-0.028-0.094-0.026-0.096-0.023-0.096-0.022-0.097-0.018-0.098-0.017-0.099-0.014-0.1-0.011-0.1-9e-3 -0.101-7e-3 -0.102-4e-3 -0.103-1e-3 -0.103 1e-3 -0.103 4e-3 -0.103 7e-3 -0.102 9e-3 -0.101 0.011-0.1 0.014-0.1 0.017-0.099 0.018-0.098 0.022-0.097 0.023-0.096 0.026-0.096 0.028-0.094 0.03-0.093 0.033-0.093 0.035-0.091 0.037-0.09 0.039-0.09 0.041-0.088 0.043-0.086 0.045-0.086 0.047-0.084 0.049-0.083 0.052-0.082 0.053-0.081 0.054-0.079 0.057-0.078 0.059-0.076 0.06-0.075 0.062-0.073 0.064-0.072 0.065-0.07 0.067-0.069 0.069-0.067 0.07-0.065 0.072-0.064 0.073-0.062 0.075-0.06 0.076-0.059 0.078-0.057 0.079-0.054 0.081-0.053 0.082-0.052 0.083-0.049 0.084-0.047 0.086-0.045 0.086-0.043 0.088-0.041 0.09-0.039 0.09-0.037 0.091-0.035 0.093-0.033 0.093-0.03 0.094-0.028 0.096-0.026 0.096-0.023 0.097-0.022 0.098-0.018 0.099-0.017 0.1-0.014 0.1-0.011 0.101-9e-3 0.102-7e-3 0.103-4e-3 0.103-1e-3 0.103 1e-3zm-0.155 2-0.051 2e-3 -0.051 3e-3 -0.05 4e-3 -0.051 6e-3 -0.049 7e-3 -0.05 8e-3 -0.049 0.01-0.048 0.01-0.049 0.012-0.047 0.013-0.047 0.014-0.047 0.015-0.046 0.016-0.046 0.018-0.045 0.018-0.045 0.02-0.044 0.02-0.043 0.022-0.043 0.023-0.042 0.023-0.042 0.025-0.041 0.025-0.04 0.027-0.039 0.027-0.039 0.029-0.038 0.029-0.038 0.03-0.037 0.031-0.035 0.032-0.036 0.033-0.034 0.033-0.033 0.034-0.033 0.036-0.032 0.035-0.031 0.037-0.03 0.038-0.029 0.038-0.029 0.039-0.027 0.039-0.027 0.04-0.025 0.041-0.025 0.042-0.023 0.042-0.023 0.043-0.022 0.043-0.02 0.044-0.02 0.045-0.018 0.045-0.018 0.046-0.016 0.046-0.015 0.047-0.014 0.047-0.013 0.047-0.012 0.049-0.01 0.048-0.01 0.049-8e-3 0.05-7e-3 0.049-6e-3 0.051-4e-3 0.05-3e-3 0.051-2e-3 0.051-1e-3 0.052 1e-3 0.052 2e-3 0.051 3e-3 0.051 4e-3 0.05 6e-3 0.051 7e-3 0.049 8e-3 0.05 0.01 0.049 0.01 0.048 0.012 0.049 0.013 0.047 0.014 0.047 0.015 0.047 0.016 0.046 0.018 0.046 0.018 0.045 0.02 0.045 0.02 0.044 0.022 0.043 0.023 0.043 0.023 0.042 0.025 0.042 0.025 0.041 0.027 0.04 0.027 0.039 0.029 0.039 0.029 0.038 0.03 0.038 0.031 0.037 0.032 0.035 0.033 0.036 0.033 0.034 0.034 0.033 0.036 0.033 0.035 0.032 0.037 0.031 0.038 0.03 0.038 0.029 0.039 0.029 0.039 0.027 0.04 0.027 0.041 0.025 0.042 0.025 0.042 0.023 0.043 0.023 0.043 0.022 0.044 0.02 0.045 0.02 0.045 0.018 0.046 0.018 0.046 0.016 0.047 0.015 0.047 0.014 0.047 0.013 0.049 0.012 0.048 0.01 0.049 0.01 0.05 8e-3 0.049 7e-3 0.051 6e-3 0.05 4e-3 0.051 3e-3 0.051 2e-3 0.052 1e-3 0.052-1e-3 0.051-2e-3 0.051-3e-3 0.05-4e-3 0.051-6e-3 0.049-7e-3 0.05-8e-3 0.049-0.01 0.048-0.01 0.049-0.012 0.047-0.013 0.047-0.014 0.047-0.015 0.046-0.016 0.046-0.018 0.045-0.018 0.045-0.02 0.044-0.02 0.043-0.022 0.043-0.023 0.042-0.023 0.042-0.025 0.041-0.025 0.04-0.027 0.039-0.027 0.039-0.029 0.038-0.029 0.038-0.03 0.037-0.031 0.035-0.032 0.036-0.033 0.034-0.033 0.033-0.034 0.033-0.036 0.032-0.035 0.031-0.037 0.03-0.038 0.029-0.038 0.029-0.039 0.027-0.039 0.027-0.04 0.025-0.041 0.025-0.042 0.023-0.042 0.023-0.043 0.022-0.043 0.02-0.044 0.02-0.045 0.018-0.045 0.018-0.046 0.016-0.046 0.015-0.047 0.014-0.047 0.013-0.047 0.012-0.049 0.01-0.048 0.01-0.049 8e-3 -0.05 7e-3 -0.049 6e-3 -0.051 4e-3 -0.05 3e-3 -0.051 2e-3 -0.051 1e-3 -0.052-1e-3 -0.052-2e-3 -0.051-3e-3 -0.051-4e-3 -0.05-6e-3 -0.051-7e-3 -0.049-8e-3 -0.05-0.01-0.049-0.01-0.048-0.012-0.049-0.013-0.047-0.014-0.047-0.015-0.047-0.016-0.046-0.018-0.046-0.018-0.045-0.02-0.045-0.02-0.044-0.022-0.043-0.023-0.043-0.023-0.042-0.025-0.042-0.025-0.041-0.027-0.04-0.027-0.039-0.029-0.039-0.029-0.038-0.03-0.038-0.031-0.037-0.032-0.035-0.033-0.036-0.033-0.034-0.034-0.033-0.036-0.033-0.035-0.032-0.037-0.031-0.038-0.03-0.038-0.029-0.039-0.029-0.039-0.027-0.04-0.027-0.041-0.025-0.042-0.025-0.042-0.023-0.043-0.023-0.043-0.022-0.044-0.02-0.045-0.02-0.045-0.018-0.046-0.018-0.046-0.016-0.047-0.015-0.047-0.014-0.047-0.013-0.049-0.012-0.048-0.01-0.049-0.01-0.05-8e-3 -0.049-7e-3 -0.051-6e-3 -0.05-4e-3 -0.051-3e-3 -0.051-2e-3 -0.052-1e-3 -0.052 1e-3z" fill="#8c8c8c"/>
            <path d="m15.103 20.001 0.103 4e-3 0.102 7e-3 0.101 9e-3 0.1 0.011 0.1 0.014 0.099 0.017 0.098 0.018 0.097 0.022 0.096 0.023 0.096 0.026 0.094 0.028 0.093 0.03 0.093 0.033 0.091 0.035 0.09 0.037 0.09 0.039 0.088 0.041 0.086 0.043 0.086 0.045 0.084 0.047 0.083 0.049 0.082 0.052 0.081 0.053 0.079 0.054 0.078 0.057 0.076 0.059 0.075 0.06 0.073 0.062 0.072 0.064 0.07 0.065 0.069 0.067 0.067 0.069 0.065 0.07 0.064 0.072 0.062 0.073 0.06 0.075 0.059 0.076 0.057 0.078 0.054 0.079 0.053 0.081 0.052 0.082 0.049 0.083 0.047 0.084 0.045 0.086 0.043 0.086 0.041 0.088 0.039 0.09 0.037 0.09 0.035 0.091 0.033 0.093 0.03 0.093 0.028 0.094 0.026 0.096 0.023 0.096 0.022 0.097 0.018 0.098 0.017 0.099 0.014 0.1 0.011 0.1 9e-3 0.101 7e-3 0.102 4e-3 0.103 1e-3 0.103-1e-3 0.103-4e-3 0.103-7e-3 0.102-9e-3 0.101-0.011 0.1-0.014 0.1-0.017 0.099-0.018 0.098-0.022 0.097-0.023 0.096-0.026 0.096-0.028 0.094-0.03 0.093-0.033 0.093-0.035 0.091-0.037 0.09-0.039 0.09-0.041 0.088-0.043 0.086-0.045 0.086-0.047 0.084-0.049 0.083-0.052 0.082-0.053 0.081-0.054 0.079-0.057 0.078-0.059 0.076-0.06 0.075-0.062 0.073-0.064 0.072-0.065 0.07-0.067 0.069-0.069 0.067-0.07 0.065-0.072 0.064-0.073 0.062-0.075 0.06-0.076 0.059-0.078 0.057-0.079 0.054-0.081 0.053-0.082 0.052-0.083 0.049-0.084 0.047-0.086 0.045-0.086 0.043-0.088 0.041-0.09 0.039-0.09 0.037-0.091 0.035-0.093 0.033-0.093 0.03-0.094 0.028-0.096 0.026-0.096 0.023-0.097 0.022-0.098 0.018-0.099 0.017-0.1 0.014-0.1 0.011-0.101 9e-3 -0.102 7e-3 -0.103 4e-3 -0.103 1e-3 -0.103-1e-3 -0.103-4e-3 -0.102-7e-3 -0.101-9e-3 -0.1-0.011-0.1-0.014-0.099-0.017-0.098-0.018-0.097-0.022-0.096-0.023-0.096-0.026-0.094-0.028-0.093-0.03-0.093-0.033-0.091-0.035-0.09-0.037-0.09-0.039-0.088-0.041-0.086-0.043-0.086-0.045-0.084-0.047-0.083-0.049-0.082-0.052-0.081-0.053-0.079-0.054-0.078-0.057-0.076-0.059-0.075-0.06-0.073-0.062-0.072-0.064-0.07-0.065-0.069-0.067-0.067-0.069-0.065-0.07-0.064-0.072-0.062-0.073-0.06-0.075-0.059-0.076-0.057-0.078-0.054-0.079-0.053-0.081-0.052-0.082-0.049-0.083-0.047-0.084-0.045-0.086-0.043-0.086-0.041-0.088-0.039-0.09-0.037-0.09-0.035-0.091-0.033-0.093-0.03-0.093-0.028-0.094-0.026-0.096-0.023-0.096-0.022-0.097-0.018-0.098-0.017-0.099-0.014-0.1-0.011-0.1-9e-3 -0.101-7e-3 -0.102-4e-3 -0.103-1e-3 -0.103 1e-3 -0.103 4e-3 -0.103 7e-3 -0.102 9e-3 -0.101 0.011-0.1 0.014-0.1 0.017-0.099 0.018-0.098 0.022-0.097 0.023-0.096 0.026-0.096 0.028-0.094 0.03-0.093 0.033-0.093 0.035-0.091 0.037-0.09 0.039-0.09 0.041-0.088 0.043-0.086 0.045-0.086 0.047-0.084 0.049-0.083 0.052-0.082 0.053-0.081 0.054-0.079 0.057-0.078 0.059-0.076 0.06-0.075 0.062-0.073 0.064-0.072 0.065-0.07 0.067-0.069 0.069-0.067 0.07-0.065 0.072-0.064 0.073-0.062 0.075-0.06 0.076-0.059 0.078-0.057 0.079-0.054 0.081-0.053 0.082-0.052 0.083-0.049 0.084-0.047 0.086-0.045 0.086-0.043 0.088-0.041 0.09-0.039 0.09-0.037 0.091-0.035 0.093-0.033 0.093-0.03 0.094-0.028 0.096-0.026 0.096-0.023 0.097-0.022 0.098-0.018 0.099-0.017 0.1-0.014 0.1-0.011 0.101-9e-3 0.102-7e-3 0.103-4e-3 0.103-1e-3 0.103 1e-3zm-0.155 2-0.051 2e-3 -0.051 3e-3 -0.05 4e-3 -0.051 6e-3 -0.049 7e-3 -0.05 8e-3 -0.049 0.01-0.048 0.01-0.049 0.012-0.047 0.013-0.047 0.014-0.047 0.015-0.046 0.016-0.046 0.018-0.045 0.018-0.045 0.02-0.044 0.02-0.043 0.022-0.043 0.023-0.042 0.023-0.042 0.025-0.041 0.025-0.04 0.027-0.039 0.027-0.039 0.029-0.038 0.029-0.038 0.03-0.037 0.031-0.035 0.032-0.036 0.033-0.034 0.033-0.033 0.034-0.033 0.036-0.032 0.035-0.031 0.037-0.03 0.038-0.029 0.038-0.029 0.039-0.027 0.039-0.027 0.04-0.025 0.041-0.025 0.042-0.023 0.042-0.023 0.043-0.022 0.043-0.02 0.044-0.02 0.045-0.018 0.045-0.018 0.046-0.016 0.046-0.015 0.047-0.014 0.047-0.013 0.047-0.012 0.049-0.01 0.048-0.01 0.049-8e-3 0.05-7e-3 0.049-6e-3 0.051-4e-3 0.05-3e-3 0.051-2e-3 0.051-1e-3 0.052 1e-3 0.052 2e-3 0.051 3e-3 0.051 4e-3 0.05 6e-3 0.051 7e-3 0.049 8e-3 0.05 0.01 0.049 0.01 0.048 0.012 0.049 0.013 0.047 0.014 0.047 0.015 0.047 0.016 0.046 0.018 0.046 0.018 0.045 0.02 0.045 0.02 0.044 0.022 0.043 0.023 0.043 0.023 0.042 0.025 0.042 0.025 0.041 0.027 0.04 0.027 0.039 0.029 0.039 0.029 0.038 0.03 0.038 0.031 0.037 0.032 0.035 0.033 0.036 0.033 0.034 0.034 0.033 0.036 0.033 0.035 0.032 0.037 0.031 0.038 0.03 0.038 0.029 0.039 0.029 0.039 0.027 0.04 0.027 0.041 0.025 0.042 0.025 0.042 0.023 0.043 0.023 0.043 0.022 0.044 0.02 0.045 0.02 0.045 0.018 0.046 0.018 0.046 0.016 0.047 0.015 0.047 0.014 0.047 0.013 0.049 0.012 0.048 0.01 0.049 0.01 0.05 8e-3 0.049 7e-3 0.051 6e-3 0.05 4e-3 0.051 3e-3 0.051 2e-3 0.052 1e-3 0.052-1e-3 0.051-2e-3 0.051-3e-3 0.05-4e-3 0.051-6e-3 0.049-7e-3 0.05-8e-3 0.049-0.01 0.048-0.01 0.049-0.012 0.047-0.013 0.047-0.014 0.047-0.015 0.046-0.016 0.046-0.018 0.045-0.018 0.045-0.02 0.044-0.02 0.043-0.022 0.043-0.023 0.042-0.023 0.042-0.025 0.041-0.025 0.04-0.027 0.039-0.027 0.039-0.029 0.038-0.029 0.038-0.03 0.037-0.031 0.035-0.032 0.036-0.033 0.034-0.033 0.033-0.034 0.033-0.036 0.032-0.035 0.031-0.037 0.03-0.038 0.029-0.038 0.029-0.039 0.027-0.039 0.027-0.04 0.025-0.041 0.025-0.042 0.023-0.042 0.023-0.043 0.022-0.043 0.02-0.044 0.02-0.045 0.018-0.045 0.018-0.046 0.016-0.046 0.015-0.047 0.014-0.047 0.013-0.047 0.012-0.049 0.01-0.048 0.01-0.049 8e-3 -0.05 7e-3 -0.049 6e-3 -0.051 4e-3 -0.05 3e-3 -0.051 2e-3 -0.051 1e-3 -0.052-1e-3 -0.052-2e-3 -0.051-3e-3 -0.051-4e-3 -0.05-6e-3 -0.051-7e-3 -0.049-8e-3 -0.05-0.01-0.049-0.01-0.048-0.012-0.049-0.013-0.047-0.014-0.047-0.015-0.047-0.016-0.046-0.018-0.046-0.018-0.045-0.02-0.045-0.02-0.044-0.022-0.043-0.023-0.043-0.023-0.042-0.025-0.042-0.025-0.041-0.027-0.04-0.027-0.039-0.029-0.039-0.029-0.038-0.03-0.038-0.031-0.037-0.032-0.035-0.033-0.036-0.033-0.034-0.034-0.033-0.036-0.033-0.035-0.032-0.037-0.031-0.038-0.03-0.038-0.029-0.039-0.029-0.039-0.027-0.04-0.027-0.041-0.025-0.042-0.025-0.042-0.023-0.043-0.023-0.043-0.022-0.044-0.02-0.045-0.02-0.045-0.018-0.046-0.018-0.046-0.016-0.047-0.015-0.047-0.014-0.047-0.013-0.049-0.012-0.048-0.01-0.049-0.01-0.05-8e-3 -0.049-7e-3 -0.051-6e-3 -0.05-4e-3 -0.051-3e-3 -0.051-2e-3 -0.052-1e-3 -0.052 1e-3z" fill="#8c8c8c"/>
            <path d="m15 10c0-0.265-0.105-0.52-0.293-0.707-0.187-0.188-0.442-0.293-0.707-0.293h-3c-0.265 0-0.52 0.105-0.707 0.293-0.188 0.187-0.293 0.442-0.293 0.707v5h5v-5z" fill="#595959"/>
            <path d="m18.5 14 0.5 1v4l-1 1.5h-8l-1-0.5h-1c-0.53 0-1.039-0.211-1.414-0.586s-0.586-0.884-0.586-1.414v-2c0-0.74 0.273-1.451 0.764-2l2.236-0.5h8l1.5 0.5z" fill="#595959"/>
            <path d="m18.5 14h-11.736c0.037-0.041 0.075-0.082 0.115-0.121 0.562-0.563 1.325-0.879 2.121-0.879h9l0.5 1z" fill="#676767"/>
            <path d="m30 14v11c-0.646 0-1.272-0.227-1.768-0.64-1.619-1.349-4.232-3.86-4.232-3.86h-6v-6.5l1-0.5h10l1 0.5z" fill="#3b9e30"/>
            <path d="m18 14v-1h5l1.121-1.121c0.563-0.563 1.326-0.879 2.122-0.879h3.757v3h-12z" fill="#40ac34"/>
            <path d="m2 24 2.144-2.144c1.188-1.188 2.8-1.856 4.481-1.856h14.257c0.724 0 1.426 0.246 1.991 0.699 0.945 0.756 2.439 1.951 3.346 2.676 0.506 0.405 1.134 0.625 1.781 0.625v1h-0.382c-0.724 0-1.426-0.246-1.991-0.699-0.94-0.752-2.422-1.937-3.331-2.664-0.515-0.412-1.155-0.637-1.815-0.637h-8.377c-1.347 0-2.639 0.535-3.592 1.488l-0.359 0.359c-0.738 0.738-1.74 1.153-2.784 1.153h-5.369z" fill="#404040"/>
            <path d="m22 24c0-0.265-0.105-0.52-0.293-0.707-0.187-0.188-0.442-0.293-0.707-0.293h-4c-0.265 0-0.52 0.105-0.707 0.293-0.188 0.187-0.293 0.442-0.293 0.707s0.105 0.52 0.293 0.707c0.187 0.188 0.442 0.293 0.707 0.293h4c0.265 0 0.52-0.105 0.707-0.293 0.188-0.187 0.293-0.442 0.293-0.707z" fill="#666"/>
            <rect x="26" y="12" width="3" height="6"/>
            <path d="m29 19.5c0-0.133-0.053-0.26-0.146-0.354-0.094-0.093-0.221-0.146-0.354-0.146h-2c-0.133 0-0.26 0.053-0.354 0.146-0.093 0.094-0.146 0.221-0.146 0.354s0.053 0.26 0.146 0.354c0.094 0.093 0.221 0.146 0.354 0.146h2c0.133 0 0.26-0.053 0.354-0.146 0.093-0.094 0.146-0.221 0.146-0.354z" fill="#e0ca3e"/>
        </g>
    </g>
</svg>
