<?xml version="1.0" encoding="UTF-8"?>
<!DOCTYPE svg  PUBLIC '-//W3C//DTD SVG 1.1//EN'  'http://www.w3.org/Graphics/SVG/1.1/DTD/svg11.dtd'>
<svg clip-rule="evenodd" fill-rule="evenodd" stroke-linecap="round" stroke-miterlimit="1.5" version="1.1" viewBox="0 0 32 32" xml:space="preserve" xmlns="http://www.w3.org/2000/svg">
<metadata>
<rdf:RDF xmlns:cc="http://web.resource.org/cc/" xmlns:dc="http://purl.org/dc/elements/1.1/" xmlns:rdf="http://www.w3.org/1999/02/22-rdf-syntax-ns#">

     <rdf:Description rdf:about="">
       <dc:title>Mutant Standard emoji 2023.12</dc:title>
     </rdf:Description>

    <cc:work rdf:about="">
        <cc:license rdf:resource="http://creativecommons.org/licenses/by-nc-sa/4.0/"/>
        <cc:attributionName>Caius Nocturne</cc:attributionName>
        <cc:attributionURL>http://mutant.tech/</cc:attributionURL>
    </cc:work>

</rdf:RDF>
</metadata>

    <rect id="suspension_railway" width="32" height="32" fill="none"/>
    <clipPath id="_clip1">
        <rect width="32" height="32"/>
    </clipPath>
    <g clip-path="url(#_clip1)">
        <g id="outline">
            <rect x="2" y="2" width="28" height="5" fill="none" stroke="#000" stroke-width="4px"/>
            <rect x="3" y="2" width="26" height="9"/>
            <path d="m30 12c0-0.552-0.448-1-1-1h-26c-0.552 0-1 0.448-1 1v13.292c0 0.466 0.108 0.925 0.317 1.341 0.388 0.776 1.038 2.077 1.407 2.814 0.169 0.339 0.515 0.553 0.894 0.553h24.382c0.265 0 0.52-0.105 0.707-0.293 0.188-0.187 0.293-0.442 0.293-0.707v-17z" fill="none" stroke="#000" stroke-width="4px"/>
        </g>
        <g id="emoji">
            <rect x="5" y="5" width="3" height="7" fill="#4b4b4b"/>
            <rect x="24" y="5" width="3" height="7" fill="#4b4b4b"/>
            
                <path d="m30 2h-3l-1 1-1-1h-3l-1 1-1-1h-3l-1 1-1-1h-3l-1 1-1-1h-3l-1 1-1-1h-3v5h3l1-1 1 1h3l1-1 1 1h3l1-1 1 1h3l1-1 1 1h3l1-1 1 1h3v-5z" fill="#b3b3b3"/>
                <rect x="5" y="2" width="2" height="5" fill="#999"/>
                <rect x="10" y="2" width="2" height="5" fill="#999"/>
                <rect x="20" y="2" width="2" height="5" fill="#999"/>
                <rect x="25" y="2" width="2" height="5" fill="#999"/>
                <rect x="15" y="2" width="2" height="5" fill="#999"/>
            
            <path d="m2 13v-1c0-0.552 0.448-1 1-1h26c0.552 0 1 0.448 1 1v1h-28z" fill="#fff"/>
            <path d="m30 27v2c0 0.265-0.105 0.52-0.293 0.707-0.187 0.188-0.442 0.293-0.707 0.293h-24.382c-0.379 0-0.725-0.214-0.894-0.553l-1.224-2.447 0.5-1h26l1 1zm-28-2v-12l1-1h26l1 1v12l-1 1-2-2h-22l-2 2-1-1z" fill="#e6e6e6"/>
            <path d="m2 25h28v2h-27.5l-0.183-0.367c-0.209-0.416-0.317-0.875-0.317-1.341v-0.292z" fill="#5b48d8"/>
            <path d="m29 17c0-0.265-0.105-0.52-0.293-0.707-0.187-0.188-0.442-0.293-0.707-0.293h-24c-0.265 0-0.52 0.105-0.707 0.293-0.188 0.187-0.293 0.442-0.293 0.707v7c0 0.265 0.105 0.52 0.293 0.707 0.187 0.188 0.442 0.293 0.707 0.293h24c0.265 0 0.52-0.105 0.707-0.293 0.188-0.187 0.293-0.442 0.293-0.707v-7z"/>
            <path d="m19.05 15.001 0.049 1e-3 0.05 4e-3 0.049 4e-3 0.049 5e-3 0.048 7e-3 0.049 8e-3 0.048 9e-3 0.048 0.01 0.047 0.011 0.048 0.013 0.047 0.013 0.046 0.015 0.046 0.016 0.046 0.017 0.045 0.018 0.045 0.019 0.045 0.021 0.043 0.021 0.044 0.023 0.043 0.023 0.084 0.05 0.041 0.027 0.08 0.056 0.039 0.03 0.039 0.031 0.074 0.064 0.037 0.034 0.07 0.07 0.034 0.037 0.064 0.074 0.031 0.039 0.03 0.039 0.056 0.08 0.027 0.041 0.05 0.084 0.023 0.043 0.023 0.044 0.021 0.043 0.021 0.045 0.019 0.045 0.018 0.045 0.017 0.046 0.016 0.046 0.015 0.046 0.013 0.047 0.013 0.048 0.011 0.047 0.01 0.048 9e-3 0.048 8e-3 0.049 7e-3 0.048 5e-3 0.049 4e-3 0.049 4e-3 0.05 1e-3 0.049 1e-3 0.05v11l-1e-3 0.05-1e-3 0.049-4e-3 0.05-4e-3 0.049-5e-3 0.049-7e-3 0.048-8e-3 0.049-9e-3 0.048-0.01 0.048-0.011 0.047-0.013 0.048-0.013 0.047-0.015 0.046-0.016 0.046-0.017 0.046-0.018 0.045-0.019 0.045-0.021 0.045-0.021 0.043-0.023 0.044-0.023 0.043-0.05 0.084-0.027 0.041-0.056 0.08-0.03 0.039-0.031 0.039-0.064 0.074-0.034 0.037-0.07 0.07-0.037 0.034-0.074 0.064-0.039 0.031-0.039 0.03-0.08 0.056-0.041 0.027-0.084 0.05-0.043 0.023-0.044 0.023-0.043 0.021-0.045 0.021-0.045 0.019-0.045 0.018-0.046 0.017-0.046 0.016-0.046 0.015-0.047 0.013-0.048 0.013-0.047 0.011-0.048 0.01-0.048 9e-3 -0.049 8e-3 -0.048 7e-3 -0.049 5e-3 -0.049 4e-3 -0.05 4e-3 -0.049 1e-3 -0.05 1e-3h-6l-0.05-1e-3 -0.049-1e-3 -0.05-4e-3 -0.049-4e-3 -0.049-5e-3 -0.048-7e-3 -0.049-8e-3 -0.048-9e-3 -0.048-0.01-0.047-0.011-0.048-0.013-0.047-0.013-0.046-0.015-0.046-0.016-0.046-0.017-0.045-0.018-0.045-0.019-0.045-0.021-0.043-0.021-0.044-0.023-0.043-0.023-0.084-0.05-0.041-0.027-0.08-0.056-0.039-0.03-0.039-0.031-0.074-0.064-0.037-0.034-0.07-0.07-0.034-0.037-0.064-0.074-0.031-0.039-0.03-0.039-0.056-0.08-0.027-0.041-0.05-0.084-0.023-0.043-0.023-0.044-0.021-0.043-0.021-0.045-0.019-0.045-0.018-0.045-0.017-0.046-0.016-0.046-0.015-0.046-0.013-0.047-0.013-0.048-0.011-0.047-0.01-0.048-9e-3 -0.048-8e-3 -0.049-7e-3 -0.048-5e-3 -0.049-4e-3 -0.049-4e-3 -0.05-1e-3 -0.049-1e-3 -0.05v-11l1e-3 -0.05 1e-3 -0.049 4e-3 -0.05 4e-3 -0.049 5e-3 -0.049 7e-3 -0.048 8e-3 -0.049 9e-3 -0.048 0.01-0.048 0.011-0.047 0.013-0.048 0.013-0.047 0.015-0.046 0.016-0.046 0.017-0.046 0.018-0.045 0.019-0.045 0.021-0.045 0.021-0.043 0.023-0.044 0.023-0.043 0.05-0.084 0.027-0.041 0.056-0.08 0.03-0.039 0.031-0.039 0.064-0.074 0.034-0.037 0.07-0.07 0.037-0.034 0.074-0.064 0.039-0.031 0.039-0.03 0.08-0.056 0.041-0.027 0.084-0.05 0.043-0.023 0.044-0.023 0.043-0.021 0.045-0.021 0.045-0.019 0.045-0.018 0.046-0.017 0.046-0.016 0.046-0.015 0.047-0.013 0.048-0.013 0.047-0.011 0.048-0.01 0.048-9e-3 0.049-8e-3 0.048-7e-3 0.049-5e-3 0.049-4e-3 0.05-4e-3 0.049-1e-3 0.05-1e-3h6l0.05 1e-3zm-6.044 0.999h-0.031l-0.025 1e-3 -0.024 2e-3 -0.025 2e-3 -0.024 3e-3 -0.025 3e-3 -0.048 8e-3 -0.024 6e-3 -0.024 5e-3 -0.023 6e-3 -0.024 7e-3 -0.069 0.024-0.023 9e-3 -0.044 0.02-0.044 0.022-0.042 0.024-0.042 0.026-0.04 0.028-0.019 0.015-0.02 0.015-0.019 0.016-0.054 0.051-0.051 0.054-0.015 0.019-0.016 0.02-0.015 0.019-0.028 0.04-0.026 0.042-0.024 0.042-0.022 0.044-0.02 0.044-9e-3 0.023-0.024 0.069-7e-3 0.024-6e-3 0.023-5e-3 0.024-6e-3 0.024-8e-3 0.048-3e-3 0.025-3e-3 0.024-2e-3 0.025-2e-3 0.024-1e-3 0.025v0.031 10.988 0.031l1e-3 0.025 2e-3 0.024 2e-3 0.025 3e-3 0.024 3e-3 0.025 8e-3 0.048 6e-3 0.024 5e-3 0.024 6e-3 0.023 7e-3 0.024 0.024 0.069 9e-3 0.023 0.02 0.044 0.022 0.044 0.024 0.042 0.026 0.042 0.028 0.04 0.015 0.019 0.016 0.02 0.015 0.019 0.051 0.054 0.036 0.034 0.019 0.017 0.018 0.016 0.02 0.015 0.019 0.015 0.04 0.028 0.042 0.026 0.042 0.024 0.044 0.022 0.044 0.02 0.023 9e-3 0.069 0.024 0.024 7e-3 0.023 6e-3 0.024 5e-3 0.024 6e-3 0.048 8e-3 0.025 3e-3 0.024 3e-3 0.025 2e-3 0.024 2e-3 0.025 1e-3h0.031 5.988 0.031l0.025-1e-3 0.024-2e-3 0.025-2e-3 0.024-3e-3 0.025-3e-3 0.048-8e-3 0.024-6e-3 0.024-5e-3 0.023-6e-3 0.024-7e-3 0.069-0.024 0.023-9e-3 0.044-0.02 0.044-0.022 0.042-0.024 0.042-0.026 0.04-0.028 0.019-0.015 0.02-0.015 0.019-0.016 0.054-0.051 0.051-0.054 0.016-0.019 0.015-0.02 0.015-0.019 0.028-0.04 0.026-0.042 0.024-0.042 0.022-0.044 0.02-0.044 9e-3 -0.023 0.024-0.069 7e-3 -0.024 6e-3 -0.023 5e-3 -0.024 6e-3 -0.024 8e-3 -0.048 3e-3 -0.025 3e-3 -0.024 2e-3 -0.025 2e-3 -0.024 1e-3 -0.025v-0.031-10.988-0.031l-1e-3 -0.025-2e-3 -0.024-2e-3 -0.025-3e-3 -0.024-3e-3 -0.025-8e-3 -0.048-6e-3 -0.024-5e-3 -0.024-6e-3 -0.023-7e-3 -0.024-0.024-0.069-9e-3 -0.023-0.02-0.044-0.022-0.044-0.024-0.042-0.026-0.042-0.028-0.04-0.015-0.019-0.015-0.02-0.016-0.018-0.017-0.019-0.034-0.036-0.054-0.051-0.019-0.016-0.02-0.015-0.019-0.015-0.04-0.028-0.042-0.026-0.042-0.024-0.044-0.022-0.044-0.02-0.023-9e-3 -0.069-0.024-0.024-7e-3 -0.023-6e-3 -0.024-5e-3 -0.024-6e-3 -0.048-8e-3 -0.025-3e-3 -0.024-3e-3 -0.025-2e-3 -0.024-2e-3 -0.025-1e-3h-0.031-5.988z" fill="#878787"/>
            <g fill="#a3a3a3">
                <rect x="3" y="13" width="2" height="1"/>
                <rect x="11" y="13" width="2" height="1"/>
                <rect x="19" y="13" width="2" height="1"/>
                <rect x="27" y="13" width="2" height="1"/>
            </g>
        </g>
    </g>
</svg>
