<?xml version="1.0" encoding="UTF-8"?>
<!DOCTYPE svg  PUBLIC '-//W3C//DTD SVG 1.1//EN'  'http://www.w3.org/Graphics/SVG/1.1/DTD/svg11.dtd'>
<svg clip-rule="evenodd" fill-rule="evenodd" stroke-linecap="square" stroke-linejoin="round" stroke-miterlimit="1.5" version="1.1" viewBox="0 0 32 32" xml:space="preserve" xmlns="http://www.w3.org/2000/svg">
<metadata>
<rdf:RDF xmlns:cc="http://web.resource.org/cc/" xmlns:dc="http://purl.org/dc/elements/1.1/" xmlns:rdf="http://www.w3.org/1999/02/22-rdf-syntax-ns#">

     <rdf:Description rdf:about="">
       <dc:title>Mutant Standard emoji 2023.12</dc:title>
     </rdf:Description>

    <cc:work rdf:about="">
        <cc:license rdf:resource="http://creativecommons.org/licenses/by-nc-sa/4.0/"/>
        <cc:attributionName>Caius Nocturne</cc:attributionName>
        <cc:attributionURL>http://mutant.tech/</cc:attributionURL>
    </cc:work>

</rdf:RDF>
</metadata>

    <rect id="train" width="32" height="32" fill="none"/>
    <clipPath id="_clip1">
        <rect width="32" height="32"/>
    </clipPath>
    <g clip-path="url(#_clip1)">
        <g id="outline">
            <path d="m28 10c0-1.061-0.421-2.078-1.172-2.828-0.75-0.751-1.767-1.172-2.828-1.172h-16c-1.061 0-2.078 0.421-2.828 1.172-0.751 0.75-1.172 1.767-1.172 2.828v22h24v-22z"/>
            <path d="m16 9v-3" fill="none" stroke="#000" stroke-width="5.5px"/>
            <path d="m12 3 4 3 4-3" fill="none" stroke="#000" stroke-linecap="round" stroke-width="5.5px"/>
            <path d="m12.243 2c-0.796 0-1.559 0.316-2.122 0.879l-1.121 1.121 1 1s0.874-0.656 1.467-1.1c0.346-0.26 0.767-0.4 1.2-0.4h6.666c0.433 0 0.854 0.14 1.2 0.4 0.541 0.405 1.316 0.986 1.448 1.085 0.011 9e-3 0.026 8e-3 0.036-2e-3l0.983-0.983-1.121-1.121c-0.563-0.563-1.326-0.879-2.122-0.879h-7.514z" fill="none" stroke="#000" stroke-linecap="round" stroke-width="4px"/>
            <rect x="2" y="26" width="28" height="6"/>
        </g>
        <g id="emoji">
            <rect x="4" y="28" width="24" height="2" fill="#666"/>
            
                <rect x="6" y="22" width="20" height="5" fill="#3f3f3f"/>
                
                    <path d="m16 9v-3" fill="none" stroke="#666" stroke-width="1.5px"/>
                    <path d="m12 3 4 3 4-3" fill="none" stroke="#666" stroke-linecap="round" stroke-width="1.5px"/>
                    <path d="m12.243 2c-0.796 0-1.559 0.316-2.122 0.879l-1.121 1.121 1 1s0.874-0.656 1.467-1.1c0.346-0.26 0.767-0.4 1.2-0.4h6.666c0.433 0 0.854 0.14 1.2 0.4 0.541 0.405 1.316 0.986 1.448 1.085 0.011 9e-3 0.026 8e-3 0.036-2e-3l0.983-0.983-1.121-1.121c-0.563-0.563-1.326-0.879-2.122-0.879h-7.514z" fill="#999"/>
                
                <path d="m6.004 22c-3e-3 -0.044-4e-3 -0.088-4e-3 -0.132v-4.868l1-1-1-1v-5c0-0.53 0.211-1.039 0.586-1.414s0.884-0.586 1.414-0.586h16c0.53 0 1.039 0.211 1.414 0.586s0.586 0.884 0.586 1.414v5l-1 1 1 1v4.868c0 0.044-1e-3 0.088-4e-3 0.132l-6.996 4h-6l-6.996-4z" fill="#e6e6e6"/>
                <path d="m25.996 22c-0.043 0.651-0.403 1.244-0.967 1.583-0.812 0.487-1.974 1.184-2.841 1.704-0.778 0.467-1.667 0.713-2.573 0.713h-0.615l1.171-2.342c0.508-1.016 1.547-1.658 2.683-1.658h3.142zm-19.992 0h3.142c1.136 0 2.175 0.642 2.683 1.658l1.171 2.342h-0.615c-0.906 0-1.795-0.246-2.573-0.713-0.867-0.52-2.029-1.217-2.841-1.704-0.564-0.339-0.924-0.932-0.967-1.583z" fill="#777"/>
                <circle cx="10" cy="24" r="1" fill="#d9d9d9"/>
                <circle cx="22" cy="24" r="1" fill="#d9d9d9"/>
                <rect x="6" y="15" width="20" height="2" fill="#ffdb38"/>
            
            
                <path d="m25 12-1-1h-16l-1 1v8c0 0.265 0.105 0.52 0.293 0.707 0.187 0.188 0.442 0.293 0.707 0.293h16c0.265 0 0.52-0.105 0.707-0.293 0.188-0.187 0.293-0.442 0.293-0.707v-8z"/>
                <path d="m25 10c0-0.552-0.448-1-1-1h-16c-0.265 0-0.52 0.105-0.707 0.293-0.188 0.187-0.293 0.442-0.293 0.707v2h18v-2z" fill="#454545"/>
                <g fill="#e9a620">
                    <rect x="12" y="10" width="6" height="1"/>
                    <rect x="19" y="10" width="1" height="1"/>
                </g>
            
        </g>
    </g>
</svg>
