<?xml version="1.0" encoding="UTF-8"?>
<svg clip-rule="evenodd" fill-rule="evenodd" stroke-linecap="round" stroke-miterlimit="1.5" viewBox="0 0 32 32" xmlns="http://www.w3.org/2000/svg">
 <clipPath id="a">
  <path d="m0 0h32v32h-32z" clip-rule="evenodd"/>
 </clipPath>
 <clipPath id="b">
  <path d="m26 9c0-.265-.105-.52-.293-.707-.187-.188-.442-.293-.707-.293-3.414 0-14.586 0-18 0-.265 0-.52.105-.707.293-.188.187-.293.442-.293.707v11l1 1-1 1v4c0 .265.105.52.293.707.187.188.442.293.707.293h18c.265 0 .52-.105.707-.293.188-.187.293-.442.293-.707 0-1.459 0-4 0-4l-1-1 1-1z" clip-rule="evenodd"/>
 </clipPath>
 <path d="m0 0h32v32h-32z" fill="none"/>
 <g clip-path="url(#a)">
  <path d="m28 9c0-1.657-1.343-3-3-3h-18c-1.657 0-3 1.343-3 3v23h24z"/>
  <g fill="none" stroke="#000">
   <path d="m6 28h20v2h-20z" stroke-width="4"/>
   <path d="m16 9v-3" stroke-linecap="square" stroke-linejoin="round" stroke-width="5.5"/>
   <path d="m12 3 4 3 4-3" stroke-linejoin="round" stroke-width="5.5"/>
   <path d="m12.243 2c-0.796 0-1.559 0.316-2.122 0.879l-1.121 1.121 1 1s0.874-0.656 1.467-1.1c0.346-0.26 0.767-0.4 1.2-0.4h6.666c0.433 0 0.854 0.14 1.2 0.4 0.541 0.405 1.316 0.986 1.448 1.085 0.011 9e-3 0.026 8e-3 0.036-2e-3l0.983-0.983s-0.584-0.584-1.121-1.121c-0.563-0.563-1.326-0.879-2.122-0.879h-7.514z" stroke-linejoin="round" stroke-width="4"/>
  </g>
  <path d="m2 26h28v6h-28z"/>
  <path d="m16 9v-3" fill="none" stroke="#666" stroke-linecap="square" stroke-linejoin="round" stroke-width="1.5"/>
  <path d="m12 3 4 3 4-3" fill="none" stroke="#666" stroke-linejoin="round" stroke-width="1.5"/>
  <path d="m12.243 2c-0.796 0-1.559 0.316-2.122 0.879l-1.121 1.121 1 1s0.874-0.656 1.467-1.1c0.346-0.26 0.767-0.4 1.2-0.4h6.666c0.433 0 0.854 0.14 1.2 0.4 0.541 0.405 1.316 0.986 1.448 1.085 0.011 9e-3 0.026 8e-3 0.036-2e-3l0.983-0.983s-0.584-0.584-1.121-1.121c-0.563-0.563-1.326-0.879-2.122-0.879h-7.514z" fill="#999"/>
  <path d="m4 28h24v2h-24z" fill="#666"/>
  <path d="m26 9c0-.265-.105-.52-.293-.707-.187-.188-.442-.293-.707-.293-3.414 0-14.586 0-18 0-.265 0-.52.105-.707.293-.188.187-.293.442-.293.707v11l1 1-1 1v4c0 .265.105.52.293.707.187.188.442.293.707.293h18c.265 0 .52-.105.707-.293.188-.187.293-.442.293-.707 0-1.459 0-4 0-4l-1-1 1-1z" fill="#e6e6e6"/>
  <g clip-path="url(#b)">
   <path d="m24 29h-16v-5h16zm-15-4v3h14v-3z" fill="#b3b3b3"/>
  </g>
  <path d="m6 20h20v2h-20z" fill="#af54bc"/>
  <path d="m25 12v7c0 0.552-0.448 1-1 1h-16c-0.552 0-1-0.448-1-1v-7l1-1h16z"/>
  <path d="m7 12v-2c0-.552.448-1 1-1h16c.552 0 1 .448 1 1v2z" fill="#454545"/>
  <path d="m12 10h6v1h-6z" fill="#e9a620"/>
  <path d="m19 10h1v1h-1z" fill="#e9a620"/>
  <path d="m11 22c0-0.552-0.448-1-1-1h-2c-0.552 0-1 0.448-1 1s0.448 1 1 1h2c0.552 0 1-0.448 1-1z" fill="#404040"/>
  <path d="m25 22c0-0.552-0.448-1-1-1h-2c-0.552 0-1 0.448-1 1s0.448 1 1 1h2c0.552 0 1-0.448 1-1z" fill="#404040"/>
 </g>
</svg>
