<?xml version="1.0" encoding="UTF-8"?>
<!DOCTYPE svg  PUBLIC '-//W3C//DTD SVG 1.1//EN'  'http://www.w3.org/Graphics/SVG/1.1/DTD/svg11.dtd'>
<svg clip-rule="evenodd" fill-rule="evenodd" stroke-linecap="round" stroke-miterlimit="1.5" version="1.1" viewBox="0 0 32 32" xml:space="preserve" xmlns="http://www.w3.org/2000/svg">
<metadata>
<rdf:RDF xmlns:cc="http://web.resource.org/cc/" xmlns:dc="http://purl.org/dc/elements/1.1/" xmlns:rdf="http://www.w3.org/1999/02/22-rdf-syntax-ns#">

     <rdf:Description rdf:about="">
       <dc:title>Mutant Standard emoji 2023.12</dc:title>
     </rdf:Description>

    <cc:work rdf:about="">
        <cc:license rdf:resource="http://creativecommons.org/licenses/by-nc-sa/4.0/"/>
        <cc:attributionName>Caius Nocturne</cc:attributionName>
        <cc:attributionURL>http://mutant.tech/</cc:attributionURL>
    </cc:work>

</rdf:RDF>
</metadata>

    <rect id="tram" width="32" height="32" fill="none"/>
    <clipPath id="_clip1">
        <rect width="32" height="32"/>
    </clipPath>
    <g clip-path="url(#_clip1)">
        <g id="outline">
            <path d="m28 9c0-1.657-1.343-3-3-3h-18c-1.657 0-3 1.343-3 3v23h24v-23z"/>
            <rect x="6" y="28" width="20" height="2" fill="none" stroke="#000" stroke-width="4px"/>
            <path d="m16 9v-3" fill="none" stroke="#000" stroke-linecap="square" stroke-linejoin="round" stroke-width="5.5px"/>
            <path d="m12 3 4 3 4-3" fill="none" stroke="#000" stroke-linejoin="round" stroke-width="5.5px"/>
            <path d="m12.243 2c-0.796 0-1.559 0.316-2.122 0.879l-1.121 1.121 1 1s0.874-0.656 1.467-1.1c0.346-0.26 0.767-0.4 1.2-0.4h6.666c0.433 0 0.854 0.14 1.2 0.4 0.541 0.405 1.316 0.986 1.448 1.085 0.011 9e-3 0.026 8e-3 0.036-2e-3l0.983-0.983-1.121-1.121c-0.563-0.563-1.326-0.879-2.122-0.879h-7.514z" fill="none" stroke="#000" stroke-linejoin="round" stroke-width="4px"/>
            <rect x="2" y="26" width="28" height="6"/>
        </g>
        <g id="emoji">
            
                <path d="m16 9v-3" fill="none" stroke="#666" stroke-linecap="square" stroke-linejoin="round" stroke-width="1.5px"/>
                <path d="m12 3 4 3 4-3" fill="none" stroke="#666" stroke-linejoin="round" stroke-width="1.5px"/>
                <path d="m12.243 2c-0.796 0-1.559 0.316-2.122 0.879l-1.121 1.121 1 1s0.874-0.656 1.467-1.1c0.346-0.26 0.767-0.4 1.2-0.4h6.666c0.433 0 0.854 0.14 1.2 0.4 0.541 0.405 1.316 0.986 1.448 1.085 0.011 9e-3 0.026 8e-3 0.036-2e-3l0.983-0.983-1.121-1.121c-0.563-0.563-1.326-0.879-2.122-0.879h-7.514z" fill="#999"/>
            
            <rect x="4" y="28" width="24" height="2" fill="#666"/>
            <path d="m26 9c0-0.265-0.105-0.52-0.293-0.707-0.187-0.188-0.442-0.293-0.707-0.293h-18c-0.265 0-0.52 0.105-0.707 0.293-0.188 0.187-0.293 0.442-0.293 0.707v11l1 1-1 1v4c0 0.265 0.105 0.52 0.293 0.707 0.187 0.188 0.442 0.293 0.707 0.293h18c0.265 0 0.52-0.105 0.707-0.293 0.188-0.187 0.293-0.442 0.293-0.707v-4l-1-1 1-1v-11z" fill="#e6e6e6"/>
            <clipPath id="_clip2">
                <path d="m26 9c0-0.265-0.105-0.52-0.293-0.707-0.187-0.188-0.442-0.293-0.707-0.293h-18c-0.265 0-0.52 0.105-0.707 0.293-0.188 0.187-0.293 0.442-0.293 0.707v11l1 1-1 1v4c0 0.265 0.105 0.52 0.293 0.707 0.187 0.188 0.442 0.293 0.707 0.293h18c0.265 0 0.52-0.105 0.707-0.293 0.188-0.187 0.293-0.442 0.293-0.707v-4l-1-1 1-1v-11z"/>
            </clipPath>
            <g clip-path="url(#_clip2)">
                <path d="m24 29h-16v-5h16v5zm-15-4v3h14v-3h-14z" fill="#b3b3b3"/>
            </g>
            <rect x="6" y="20" width="20" height="2" fill="#af54bc"/>
            
                
                    <path d="m25 12v7c0 0.552-0.448 1-1 1h-16c-0.552 0-1-0.448-1-1v-7l1-1h16l1 1z"/>
                    <path d="m7 12v-2c0-0.552 0.448-1 1-1h16c0.552 0 1 0.448 1 1v2h-18z" fill="#454545"/>
                
                <g fill="#e9a620">
                    <rect x="12" y="10" width="6" height="1"/>
                    <rect x="19" y="10" width="1" height="1"/>
                </g>
            
            <g fill="#404040">
                <path d="m11 22c0-0.552-0.448-1-1-1h-2c-0.552 0-1 0.448-1 1s0.448 1 1 1h2c0.552 0 1-0.448 1-1z"/>
                <path d="m25 22c0-0.552-0.448-1-1-1h-2c-0.552 0-1 0.448-1 1s0.448 1 1 1h2c0.552 0 1-0.448 1-1z"/>
            </g>
        </g>
    </g>
</svg>
