<?xml version="1.0" encoding="UTF-8"?>
<svg id="svg2" enable-background="new 0 0 45 45" version="1.1" viewBox="0 0 45 45" xml:space="preserve" xmlns="http://www.w3.org/2000/svg" xmlns:cc="http://creativecommons.org/ns#" xmlns:dc="http://purl.org/dc/elements/1.1/" xmlns:rdf="http://www.w3.org/1999/02/22-rdf-syntax-ns#"><metadata id="metadata8"><rdf:RDF><cc:Work rdf:about=""><dc:format>image/svg+xml</dc:format><dc:type rdf:resource="http://purl.org/dc/dcmitype/StillImage"/><dc:title/></cc:Work></rdf:RDF></metadata><defs id="defs6"><clipPath id="clipPath1315"><path id="path1317" d="m45.237 12.791c0-3.1501-2.2376-5.7031-4.9989-5.7031h-35.002c-2.7613 0-4.9989 2.5531-4.9989 5.7031v21.797c0 2.7612 2.2376 5 4.9989 5h35.002c2.7613 0 4.9989-2.2388 4.9989-5v-10.482z" fill="#8a1e04"/></clipPath></defs><g id="g1313" clip-path="url(#clipPath1315)"><rect id="rect986-0-2-5-9-4" x=".237" y="28.755" width="45" height="10.833" fill="#99c6ea" fill-rule="evenodd" stroke-linecap="round" stroke-linejoin="round" stroke-opacity=".63003" stroke-width="2.4344" style="paint-order:stroke fill markers"/><rect id="rect986-0-9-1-7" x=".237" y="17.921" width="45" height="10.833" fill="#f9fdea" fill-rule="evenodd" stroke-linecap="round" stroke-linejoin="round" stroke-opacity=".63003" stroke-width="2.4344" style="paint-order:stroke fill markers"/><rect id="rect986-49-7-8" x=".237" y="7.088" width="45" height="10.833" fill="#99c6ea" fill-rule="evenodd" stroke-linecap="round" stroke-linejoin="round" stroke-opacity=".63003" stroke-width="2.4344" style="paint-order:stroke fill markers"/><g id="g1297" transform="matrix(.74203 0 0 .74203 -44.167 -11.933)"><path id="path1285" d="m86.427 50.733c-0.29046 1.3896 0.78151 1.6722 1.7547 2.2452 0.53025 0.31218 0.94552 0.94415 1.5902 1.0177 0.63367 0.07233 0.98714-0.39426 1.4805-0.68999 0.32495-0.19472 0.70594-0.25465 1.0416-0.42645 0.76752-0.39284 1.183-1.0819 1.2066-1.9272-0.6442 0.35314-1.21 0.85729-1.9192 1.0839-1.8668 0.59666-3.6025-0.4054-5.1545-1.3033z" fill="#acdd4d"/><path id="path1283" d="m100.96 47.992c-0.27752 0.55065-0.62605 1.0912-1.1526 1.4348-0.64766 0.42272-1.5106 0.55784-2.2472 0.75546-1.3644 0.36608-2.6254 0.91207-3.3568 2.1966-0.24363 0.42782-0.34946 0.88959-0.42678 1.3708 1.9594-1.0577 4.3728 0.29748 6.1262-1.4917 0.26404-0.26935 0.4781-0.57873 0.63642-0.92101 0.22471-0.48578 0.35719-1.0092 0.44575-1.5354 0.10205-0.6062 0.19401-1.2206-0.025-1.8096" fill="#659533"/><path id="path1281" d="m79.683 47.663c-1.2553 2.5823 0.24445 5.1003 3.0159 5.5739 1.2848 0.21956 2.4167-0.34623 3.6191 0.34826-0.1423-1.3782-0.90204-2.6339-2.1934-3.2266-1.3321-0.61135-2.8471-0.4315-3.832-1.7107-0.22855-0.29688-0.36855-0.6374-0.49993-0.98484h-0.10967" fill="#659533"/><path id="path1279" d="m90.595 48.595c-1.2199-0.4134-1.3681-1.3299-1.1515-2.4676-1.1153 0.35051-0.97897 1.1701-0.57039 2.0281 0.12705 0.26683 0.1905 0.60165 0.48842 0.73281 0.42903 0.18891 0.89556-0.0323 1.2335-0.29331" fill="#acdd4d"/><path id="path1277" d="m92.459 46.018c0.15354 0.52312 0.36739 1.0362 0.36641 1.5902-3e-3 1.6228-1.3641 2.3988-2.7243 2.7966v0.10967c0.68072 0.40002 1.4381 0.58876 2.1907 0.23809 0.30576-0.14246 0.53492-0.39755 0.8324-0.55104 0.29951-0.15452 0.81359-0.0879 0.97771-0.43857 0.13775-0.29435-0.02972-0.69246-0.03186-1.0032-0.0088-1.286-0.09311-2.4928-1.611-2.7417" fill="#acdd4d"/><path id="path1275" d="m89.553 50.185c-1.3887-0.38922-2.3472-1.4847-2.3876-2.9611-0.0147-0.53678 0.15721-1.0656 0.249-1.5902-1.6558 0.34239-1.6649 1.5842-1.5449 2.9611 0.03131 0.35906-0.13446 0.83481 0.1145 1.1427 0.21309 0.26348 0.65073 0.25471 0.93691 0.40688 0.89502 0.4758 1.8777 1.1815 2.6321 0.04063" fill="#acdd4d"/><path id="path1273" d="m89.443 45.25c1.2605 0.31448 1.6405 1.1225 1.3709 2.3579 1.0238-0.40775 1.0412-1.108 0.55871-1.9727-0.15365-0.27538-0.31168-0.55767-0.62155-0.67814-0.45497-0.1769-0.94058 0.02391-1.308 0.29293" fill="#acdd4d"/><path id="path1271" d="m92.514 45.743c0.74976-0.42366 1.0533-1.3422 0.43594-2.0544-0.2784-0.32117-0.68971-0.44318-1.0104-0.70737-0.27269-0.22466-0.43177-0.5937-0.76056-0.74729-0.4865-0.22735-0.94969 0.14515-1.4067 0.26485-0.42354 0.11093-0.85597 0.08105-1.2612 0.27406-0.59902 0.28542-1.7376 1.5717-0.87846 2.209 0.31574 0.23426 1.1185-0.75261 1.427-0.90977 0.97436-0.49626 2.5505-0.43194 3.1913 0.58015 0.20623 0.32566 0.2064 0.72119 0.2631 1.0908" fill="#acdd4d"/><path id="path1269" d="m91.966 41.521c0.45453 0.62857 1.2586 0.91454 1.791 1.4852 0.82439 0.88366 1.5411 2.4933 1.463 3.7242-0.03241 0.51079-0.2591 0.99465-0.4026 1.4805 1.0448-0.08834 2.1876-0.67403 2.1697-1.8644-0.0084-0.55603-0.29644-1.0459-0.34217-1.5902-0.03652-0.43418 0.37227-0.88147 0.17015-1.2971-0.20728-0.42623-0.75129-0.34486-1.0689-0.63088-0.30691-0.27642-0.42914-0.70403-0.73397-0.99153-0.86842-0.81923-2.0154-0.65248-3.0462-0.31574" fill="#acdd4d"/><path id="path1265" d="m84.563 47.498c0.21775-0.75415 0.20761-1.5677 0.48024-2.3031 0.70611-1.9043 2.2919-2.8275 4.0711-3.5094-0.57286-0.70726-1.9094-0.77592-2.6869-0.39394-0.45403 0.22307-0.79768 0.61958-1.2612 0.82527-0.44433 0.19713-1.0744 0.04645-1.3941 0.47986-0.31771 0.43067 0.06366 1.1463-0.09015 1.6661-0.34436 1.1633-0.54122 2.6964 0.88109 3.2353" fill="#acdd4d"/></g></g></svg>
