<?xml version="1.0" encoding="UTF-8" standalone="no"?>
<svg
   xmlns:dc="http://purl.org/dc/elements/1.1/"
   xmlns:cc="http://creativecommons.org/ns#"
   xmlns:rdf="http://www.w3.org/1999/02/22-rdf-syntax-ns#"
   xmlns:svg="http://www.w3.org/2000/svg"
   xmlns="http://www.w3.org/2000/svg"
   xmlns:sodipodi="http://sodipodi.sourceforge.net/DTD/sodipodi-0.dtd"
   xmlns:inkscape="http://www.inkscape.org/namespaces/inkscape"
   viewBox="0 0 45 45"
   style="enable-background:new 0 0 45 45;"
   xml:space="preserve"
   version="1.1"
   id="svg2"
   inkscape:version="1.0.2 (e86c870, 2021-01-15)"
   sodipodi:docname="achillean.svg"
   inkscape:export-filename="F:\My Art\SVG &amp; SALES\MOREmoji\SET 2\svg\wip\sapphic.png"
   inkscape:export-xdpi="1092.27"
   inkscape:export-ydpi="1092.27"><sodipodi:namedview
     pagecolor="#ffffff"
     bordercolor="#666666"
     borderopacity="1"
     objecttolerance="10"
     gridtolerance="10"
     guidetolerance="10"
     inkscape:pageopacity="0"
     inkscape:pageshadow="2"
     inkscape:window-width="1920"
     inkscape:window-height="1027"
     id="namedview15"
     showgrid="false"
     inkscape:zoom="6.8957521"
     inkscape:cx="7.4350817"
     inkscape:cy="17.633287"
     inkscape:window-x="-8"
     inkscape:window-y="-8"
     inkscape:window-maximized="1"
     inkscape:current-layer="svg2"
     inkscape:document-rotation="0" /><metadata
     id="metadata8"><rdf:RDF><cc:Work
         rdf:about=""><dc:format>image/svg+xml</dc:format><dc:type
           rdf:resource="http://purl.org/dc/dcmitype/StillImage" /><dc:title></dc:title></cc:Work></rdf:RDF></metadata><defs
     id="defs6"><clipPath
       id="clipPath16"
       clipPathUnits="userSpaceOnUse"><path
         id="path18"
         d="M 0,36 36,36 36,0 0,0 0,36 Z" /></clipPath><clipPath
       id="clipPath16-9"
       clipPathUnits="userSpaceOnUse"><path
         inkscape:connector-curvature="0"
         id="path18-6"
         d="M 4,31 C 1.791,31 0,29.209 0,27 L 0,27 0,9 C 0,6.791 1.791,5 4,5 l 0,0 28,0 c 2.209,0 4,1.791 4,4 l 0,0 0,18 c 0,2.209 -1.791,4 -4,4 l 0,0 -28,0 z" /></clipPath><clipPath
       clipPathUnits="userSpaceOnUse"
       id="clipPath5047"><path
         style="fill:#5bcefa;fill-opacity:1;fill-rule:nonzero;stroke:none"
         d="m 25.204492,-54.863389 0,0.04687 0,2.453125 c 0,2.761254 2.232631,5.000004 4.98781,5.000004 l 34.924391,0 c 2.755183,0 4.987805,-2.23875 4.987805,-4.999999 l 0,-2.453125 0,-0.04687 0,-6.866211 0,-12.430661 c 0,-3.15007 -2.232622,-5.70313 -4.987805,-5.70313 l -34.924391,0 c -2.755179,0 -4.98781,2.55307 -4.98781,5.70312 l 0,12.430666 z"
         id="path5049"
         inkscape:connector-curvature="0"
         sodipodi:nodetypes="ccsssscccsssscc" /></clipPath><clipPath
       clipPathUnits="userSpaceOnUse"
       id="clipPath5116"><path
         sodipodi:nodetypes="ccsssscccsssscc"
         inkscape:connector-curvature="0"
         id="path5118"
         d="m -19.000001,-39.038681 0,0.04687 0,2.453125 c 0,2.761249 2.237602,4.999999 4.998918,4.999999 l 35.00217,0 c 2.761314,0 4.998914,-2.23875 4.998914,-4.999999 l 0,-2.453125 0,-0.04687 0,-6.866211 0,-12.430665 c 0,-3.15006 -2.2376,-5.703124 -4.998914,-5.703124 l -35.00217,0 c -2.761316,0 -4.998918,2.55307 -4.998918,5.703125 l 0,12.430665 z"
         style="fill:#333ebd;fill-opacity:1;fill-rule:nonzero;stroke:none" /></clipPath><clipPath
       clipPathUnits="userSpaceOnUse"
       id="clipPath5116-2"><path
         sodipodi:nodetypes="ccsssscccsssscc"
         inkscape:connector-curvature="0"
         id="path5118-6"
         d="m -19.000001,-39.038681 0,0.04687 0,2.453125 c 0,2.761249 2.237602,4.999999 4.998918,4.999999 l 35.00217,0 c 2.761314,0 4.998914,-2.23875 4.998914,-4.999999 l 0,-2.453125 0,-0.04687 0,-6.866211 0,-12.430665 c 0,-3.15006 -2.2376,-5.703124 -4.998914,-5.703124 l -35.00217,0 c -2.761316,0 -4.998918,2.55307 -4.998918,5.703125 l 0,12.430665 z"
         style="fill:#333ebd;fill-opacity:1;fill-rule:nonzero;stroke:none" /></clipPath><clipPath
       clipPathUnits="userSpaceOnUse"
       id="clipPath5250"><path
         sodipodi:nodetypes="ccsssscccsssscc"
         inkscape:connector-curvature="0"
         id="path5252"
         d="m -4.6455538,-44.034176 0,0.04687 0,2.453125 c 0,2.761249 2.2376019,4.999999 4.99891795,4.999999 l 35.00217185,0 c 2.76131,0 4.99891,-2.23875 4.99891,-4.999999 l 0,-2.453125 0,-0.04687 0,-6.866211 0,-12.430665 c 0,-3.15006 -2.2376,-5.703124 -4.99891,-5.703124 l -35.00217185,0 c -2.76131605,0 -4.99891805,2.55307 -4.99891805,5.703125 l 0,12.430665 z"
         style="fill:#000000;fill-opacity:1;fill-rule:nonzero;stroke:none" /></clipPath><clipPath
       clipPathUnits="userSpaceOnUse"
       id="clipPath5277"><path
         style="fill:#5bcefa;fill-opacity:1;fill-rule:nonzero;stroke:none"
         d="m 29.620147,-97.8367 0,0.0469 0,2.45313 c 0,2.76125 2.237602,5 4.998919,5 l 35.002168,0 c 2.761319,0 4.998913,-2.23875 4.998913,-5 l 0,-2.45312 0,-0.0469 0,-6.86621 0,-12.43067 c 0,-3.15006 -2.237594,-5.70313 -4.998913,-5.70313 l -35.002168,0 c -2.761317,0 -4.998919,2.55307 -4.998919,5.70313 l 0,12.43066 z"
         id="path5279"
         inkscape:connector-curvature="0"
         sodipodi:nodetypes="ccsssscccsssscc" /></clipPath><clipPath
       clipPathUnits="userSpaceOnUse"
       id="clipPath5277-8"><path
         style="fill:#5bcefa;fill-opacity:1;fill-rule:nonzero;stroke:none"
         d="m 29.620147,-97.8367 0,0.0469 0,2.45313 c 0,2.76125 2.237602,5 4.998919,5 l 35.002168,0 c 2.761319,0 4.998913,-2.23875 4.998913,-5 l 0,-2.45312 0,-0.0469 0,-6.86621 0,-12.43067 c 0,-3.15006 -2.237594,-5.70313 -4.998913,-5.70313 l -35.002168,0 c -2.761317,0 -4.998919,2.55307 -4.998919,5.70313 l 0,12.43066 z"
         id="path5279-0"
         inkscape:connector-curvature="0"
         sodipodi:nodetypes="ccsssscccsssscc" /></clipPath><clipPath
       clipPathUnits="userSpaceOnUse"
       id="clipPath5326"><path
         style="fill:#5bcefa;fill-opacity:1;fill-rule:nonzero;stroke:none"
         d="m 79.510932,-96.665226 0,0.0469 0,2.45313 c 0,2.76125 2.237602,5 4.998919,5 l 35.002169,0 c 2.76131,0 4.99891,-2.23875 4.99891,-5 l 0,-2.45312 0,-0.0469 0,-6.866204 0,-12.43067 c 0,-3.15006 -2.2376,-5.70313 -4.99891,-5.70313 l -35.002169,0 c -2.761317,0 -4.998919,2.55307 -4.998919,5.70313 l 0,12.43066 z"
         id="path5328"
         inkscape:connector-curvature="0"
         sodipodi:nodetypes="ccsssscccsssscc" /></clipPath><clipPath
       clipPathUnits="userSpaceOnUse"
       id="clipPath5250-2"><path
         sodipodi:nodetypes="ccsssscccsssscc"
         inkscape:connector-curvature="0"
         id="path5252-8"
         d="m -4.6455538,-44.034176 0,0.04687 0,2.453125 c 0,2.761249 2.2376019,4.999999 4.99891795,4.999999 l 35.00217185,0 c 2.76131,0 4.99891,-2.23875 4.99891,-4.999999 l 0,-2.453125 0,-0.04687 0,-6.866211 0,-12.430665 c 0,-3.15006 -2.2376,-5.703124 -4.99891,-5.703124 l -35.00217185,0 c -2.76131605,0 -4.99891805,2.55307 -4.99891805,5.703125 l 0,12.430665 z"
         style="fill:#000000;fill-opacity:1;fill-rule:nonzero;stroke:none" /></clipPath><clipPath
       clipPathUnits="userSpaceOnUse"
       id="clipPath5326-4"><path
         style="fill:#5bcefa;fill-opacity:1;fill-rule:nonzero;stroke:none"
         d="m 79.510932,-96.665226 0,0.0469 0,2.45313 c 0,2.76125 2.237602,5 4.998919,5 l 35.002169,0 c 2.76131,0 4.99891,-2.23875 4.99891,-5 l 0,-2.45312 0,-0.0469 0,-6.866204 0,-12.43067 c 0,-3.15006 -2.2376,-5.70313 -4.99891,-5.70313 l -35.002169,0 c -2.761317,0 -4.998919,2.55307 -4.998919,5.70313 l 0,12.43066 z"
         id="path5328-4"
         inkscape:connector-curvature="0"
         sodipodi:nodetypes="ccsssscccsssscc" /></clipPath><clipPath
       clipPathUnits="userSpaceOnUse"
       id="clipPath5277-0"><path
         style="fill:#5bcefa;fill-opacity:1;fill-rule:nonzero;stroke:none"
         d="m 29.620147,-97.8367 0,0.0469 0,2.45313 c 0,2.76125 2.237602,5 4.998919,5 l 35.002168,0 c 2.761319,0 4.998913,-2.23875 4.998913,-5 l 0,-2.45312 0,-0.0469 0,-6.86621 0,-12.43067 c 0,-3.15006 -2.237594,-5.70313 -4.998913,-5.70313 l -35.002168,0 c -2.761317,0 -4.998919,2.55307 -4.998919,5.70313 l 0,12.43066 z"
         id="path5279-01"
         inkscape:connector-curvature="0"
         sodipodi:nodetypes="ccsssscccsssscc" /></clipPath><clipPath
       clipPathUnits="userSpaceOnUse"
       id="clipPath5472"><path
         style="fill:#5bcefa;fill-opacity:1;fill-rule:nonzero;stroke:none"
         d="m 50.32685,-59.917429 0,0.0469 0,2.45313 c 0,2.76125 2.2376,5 4.99891,5 l 35.00217,0 c 2.76132,0 4.99892,-2.23875 4.99892,-5 l 0,-2.45312 0,-0.0469 0,-6.866211 0,-12.430671 c 0,-3.15006 -2.2376,-5.70313 -4.99892,-5.70313 l -35.00217,0 c -2.76131,0 -4.99891,2.55307 -4.99891,5.70313 l 0,12.43066 z"
         id="path5474"
         inkscape:connector-curvature="0"
         sodipodi:nodetypes="ccsssscccsssscc" /></clipPath><clipPath
       clipPathUnits="userSpaceOnUse"
       id="clipPath5472-9"><path
         style="fill:#5bcefa;fill-opacity:1;fill-rule:nonzero;stroke:none"
         d="m 50.32685,-59.917429 0,0.0469 0,2.45313 c 0,2.76125 2.2376,5 4.99891,5 l 35.00217,0 c 2.76132,0 4.99892,-2.23875 4.99892,-5 l 0,-2.45312 0,-0.0469 0,-6.866211 0,-12.430671 c 0,-3.15006 -2.2376,-5.70313 -4.99892,-5.70313 l -35.00217,0 c -2.76131,0 -4.99891,2.55307 -4.99891,5.70313 l 0,12.43066 z"
         id="path5474-1"
         inkscape:connector-curvature="0"
         sodipodi:nodetypes="ccsssscccsssscc" /></clipPath><clipPath
       clipPathUnits="userSpaceOnUse"
       id="clipPath5277-9"><path
         style="fill:#5bcefa;fill-opacity:1;fill-rule:nonzero;stroke:none"
         d="m 29.620147,-97.8367 0,0.0469 0,2.45313 c 0,2.76125 2.237602,5 4.998919,5 l 35.002168,0 c 2.761319,0 4.998913,-2.23875 4.998913,-5 l 0,-2.45312 0,-0.0469 0,-6.86621 0,-12.43067 c 0,-3.15006 -2.237594,-5.70313 -4.998913,-5.70313 l -35.002168,0 c -2.761317,0 -4.998919,2.55307 -4.998919,5.70313 l 0,12.43066 z"
         id="path5279-012"
         inkscape:connector-curvature="0"
         sodipodi:nodetypes="ccsssscccsssscc" /></clipPath><clipPath
       clipPathUnits="userSpaceOnUse"
       id="clipPath5666"><path
         style="fill:#5bcefa;fill-opacity:1;fill-rule:nonzero;stroke:none"
         d="m -45.480969,-1.7578976 0,0.0469 0,2.45312999 c 0,2.76125001 2.237602,5.00000001 4.998919,5.00000001 l 35.0021693,0 c 2.7613201,0 4.9989101,-2.23875 4.9989101,-5.00000001 l 0,-2.45311999 0,-0.0469 0,-6.866211 0,-12.4306694 c 0,-3.15006 -2.23759,-5.70313 -4.9989101,-5.70313 l -35.0021693,0 c -2.761317,0 -4.998919,2.55307 -4.998919,5.70313 l 0,12.4306594 z"
         id="path5668"
         inkscape:connector-curvature="0"
         sodipodi:nodetypes="ccsssscccsssscc" /></clipPath><clipPath
       clipPathUnits="userSpaceOnUse"
       id="clipPath5277-3"><path
         style="fill:#5bcefa;fill-opacity:1;fill-rule:nonzero;stroke:none"
         d="m 29.620147,-97.8367 0,0.0469 0,2.45313 c 0,2.76125 2.237602,5 4.998919,5 l 35.002168,0 c 2.761319,0 4.998913,-2.23875 4.998913,-5 l 0,-2.45312 0,-0.0469 0,-6.86621 0,-12.43067 c 0,-3.15006 -2.237594,-5.70313 -4.998913,-5.70313 l -35.002168,0 c -2.761317,0 -4.998919,2.55307 -4.998919,5.70313 l 0,12.43066 z"
         id="path5279-7"
         inkscape:connector-curvature="0"
         sodipodi:nodetypes="ccsssscccsssscc" /></clipPath><clipPath
       clipPathUnits="userSpaceOnUse"
       id="clipPath5742"><path
         style="fill:#5bcefa;fill-opacity:1;fill-rule:nonzero;stroke:none"
         d="m 85.499998,4.249988 0,0.0469 0,2.45313 c 0,2.76125 2.2376,5 4.99892,5 l 35.002162,0 c 2.76132,0 4.99892,-2.23875 4.99892,-5 l 0,-2.45312 0,-0.0469 0,-6.866211 0,-12.430672 c 0,-3.15006 -2.2376,-5.70313 -4.99892,-5.70313 l -35.002162,0 c -2.76132,0 -4.99892,2.55307 -4.99892,5.70313 l 0,12.430662 z"
         id="path5744"
         inkscape:connector-curvature="0"
         sodipodi:nodetypes="ccsssscccsssscc" /></clipPath><clipPath
       clipPathUnits="userSpaceOnUse"
       id="clipPath5774"><path
         style="fill:#5bcefa;fill-opacity:1;fill-rule:nonzero;stroke:none"
         d="m 92.581629,10.908983 0,0.0469 0,2.45313 c 0,2.76125 2.2376,5 4.99892,5 l 35.002161,0 c 2.76132,0 4.99892,-2.23875 4.99892,-5 l 0,-2.45312 0,-0.0469 0,-6.8662117 0,-12.43067 c 0,-3.1500593 -2.2376,-5.7031293 -4.99892,-5.7031293 l -35.002161,0 c -2.76132,0 -4.99892,2.55307 -4.99892,5.7031293 l 0,12.43066 z"
         id="path5776"
         inkscape:connector-curvature="0"
         sodipodi:nodetypes="ccsssscccsssscc" /></clipPath><clipPath
       clipPathUnits="userSpaceOnUse"
       id="clipPath5277-1"><path
         style="fill:#5bcefa;fill-opacity:1;fill-rule:nonzero;stroke:none"
         d="m 29.620147,-97.8367 0,0.0469 0,2.45313 c 0,2.76125 2.237602,5 4.998919,5 l 35.002168,0 c 2.761319,0 4.998913,-2.23875 4.998913,-5 l 0,-2.45312 0,-0.0469 0,-6.86621 0,-12.43067 c 0,-3.15006 -2.237594,-5.70313 -4.998913,-5.70313 l -35.002168,0 c -2.761317,0 -4.998919,2.55307 -4.998919,5.70313 l 0,12.43066 z"
         id="path5279-9"
         inkscape:connector-curvature="0"
         sodipodi:nodetypes="ccsssscccsssscc" /></clipPath><clipPath
       clipPathUnits="userSpaceOnUse"
       id="clipPath5326-5"><path
         style="fill:#5bcefa;fill-opacity:1;fill-rule:nonzero;stroke:none"
         d="m 79.510932,-96.665226 0,0.0469 0,2.45313 c 0,2.76125 2.237602,5 4.998919,5 l 35.002169,0 c 2.76131,0 4.99891,-2.23875 4.99891,-5 l 0,-2.45312 0,-0.0469 0,-6.866204 0,-12.43067 c 0,-3.15006 -2.2376,-5.70313 -4.99891,-5.70313 l -35.002169,0 c -2.761317,0 -4.998919,2.55307 -4.998919,5.70313 l 0,12.43066 z"
         id="path5328-8"
         inkscape:connector-curvature="0"
         sodipodi:nodetypes="ccsssscccsssscc" /></clipPath><clipPath
       clipPathUnits="userSpaceOnUse"
       id="clipPath5885"><path
         style="fill:#5bcefa;fill-opacity:1;fill-rule:nonzero;stroke:none"
         d="m 66.241905,48.800236 0,0.0469 0,2.45313 c 0,2.76125 2.2376,5 4.99892,5 l 35.002165,0 c 2.76132,0 4.99892,-2.23875 4.99892,-5 l 0,-2.45312 0,-0.0469 0,-6.866211 0,-12.43067 c 0,-3.15006 -2.2376,-5.70313 -4.99892,-5.70313 l -35.002165,0 c -2.76132,0 -4.99892,2.55307 -4.99892,5.70313 l 0,12.43066 z"
         id="path5887"
         inkscape:connector-curvature="0"
         sodipodi:nodetypes="ccsssscccsssscc" /></clipPath><clipPath
       clipPathUnits="userSpaceOnUse"
       id="clipPath5774-5"><path
         style="fill:#5bcefa;fill-opacity:1;fill-rule:nonzero;stroke:none"
         d="m 92.581629,10.908983 0,0.0469 0,2.45313 c 0,2.76125 2.2376,5 4.99892,5 l 35.002161,0 c 2.76132,0 4.99892,-2.23875 4.99892,-5 l 0,-2.45312 0,-0.0469 0,-6.8662117 0,-12.43067 c 0,-3.1500593 -2.2376,-5.7031293 -4.99892,-5.7031293 l -35.002161,0 c -2.76132,0 -4.99892,2.55307 -4.99892,5.7031293 l 0,12.43066 z"
         id="path5776-6"
         inkscape:connector-curvature="0"
         sodipodi:nodetypes="ccsssscccsssscc" /></clipPath><clipPath
       clipPathUnits="userSpaceOnUse"
       id="clipPath1315"><path
         id="path1317"
         style="fill:#8a1e04;fill-opacity:1;fill-rule:nonzero;stroke:none;stroke-width:0.999997"
         d="m 45.237001,12.791127 c 0,-3.150059 -2.237599,-5.703124 -4.998914,-5.703124 H 5.235916 c -2.761315,0 -4.998917,2.55307 -4.998917,5.703124 v 11.607905 7.688972 0.04687 2.453124 c 0,2.761249 2.237602,5.000001 4.998917,5.000001 h 35.002171 c 2.761315,0 4.998914,-2.238752 4.998914,-5.000001 v -2.453124 -0.04687 -7.981939 z"
         inkscape:connector-curvature="0"
         sodipodi:nodetypes="sssscccsssscccs" /></clipPath></defs><g
     id="g1313"
     clip-path="url(#clipPath1315)"
     inkscape:export-xdpi="1092.27"
     inkscape:export-ydpi="1092.27"><rect
       style="fill:#99c6ea;fill-opacity:1;fill-rule:evenodd;stroke-width:2.43439;stroke-linecap:round;stroke-linejoin:round;stroke-opacity:0.630027;paint-order:stroke fill markers"
       id="rect986-0-2-5-9-4"
       width="45"
       height="10.833331"
       x="0.237"
       y="28.754665" /><rect
       style="fill:#f9fdea;fill-opacity:1;fill-rule:evenodd;stroke-width:2.43439;stroke-linecap:round;stroke-linejoin:round;stroke-opacity:0.630027;paint-order:stroke fill markers"
       id="rect986-0-9-1-7"
       width="45"
       height="10.833331"
       x="0.237"
       y="17.921329" /><rect
       style="fill:#99c6ea;fill-opacity:1;fill-rule:evenodd;stroke-width:2.43439;stroke-linecap:round;stroke-linejoin:round;stroke-opacity:0.630027;paint-order:stroke fill markers"
       id="rect986-49-7-8"
       width="45"
       height="10.833331"
       x="0.237"
       y="7.0880008" /><g
       id="g1297"
       transform="matrix(0.74203122,0,0,0.74203122,-44.167152,-11.932727)"><path
         style="fill:#acdd4d;fill-opacity:1;stroke:none;stroke-width:0.054835"
         d="m 86.427343,50.733357 c -0.290461,1.389628 0.781508,1.672247 1.754719,2.245218 0.530254,0.312175 0.945519,0.944148 1.590214,1.017737 0.633673,0.07233 0.987139,-0.394264 1.480544,-0.689989 0.324952,-0.194719 0.705945,-0.254653 1.041645,-0.426451 0.767525,-0.392838 1.182954,-1.081894 1.206588,-1.927175 -0.644201,0.353137 -1.209988,0.85729 -1.919223,1.083923 -1.866802,0.596659 -3.602548,-0.405395 -5.154487,-1.303263 z"
         id="path1285" /><path
         style="fill:#659533;fill-opacity:1;stroke:none;stroke-width:0.054835"
         d="m 100.95861,47.991609 c -0.27752,0.550653 -0.62605,1.091161 -1.152578,1.434812 -0.647656,0.422723 -1.510648,0.557836 -2.247192,0.755461 -1.364403,0.366078 -2.625443,0.91207 -3.356832,2.196579 -0.243631,0.427822 -0.349463,0.889588 -0.42678,1.370819 1.959418,-1.057657 4.372759,0.29748 6.126217,-1.49173 0.264035,-0.269349 0.478105,-0.578728 0.636415,-0.921008 0.22471,-0.485783 0.35719,-1.009238 0.44575,-1.535379 0.10205,-0.606201 0.19401,-1.220571 -0.025,-1.809554"
         id="path1283" /><path
         style="fill:#659533;fill-opacity:1;stroke:none;stroke-width:0.054835"
         d="m 79.682643,47.662599 c -1.255337,2.582343 0.244454,5.100255 3.015923,5.57392 1.284783,0.219559 2.416741,-0.346228 3.619107,0.348256 -0.142297,-1.378167 -0.902035,-2.633887 -2.193398,-3.226599 -1.332051,-0.611354 -2.847086,-0.431496 -3.832032,-1.710741 -0.228552,-0.296876 -0.368546,-0.637401 -0.49993,-0.984836 h -0.10967"
         id="path1281" /><path
         style="fill:#acdd4d;fill-opacity:1;stroke:none;stroke-width:0.054835"
         d="m 90.5948,48.594794 c -1.219858,-0.413401 -1.368077,-1.329858 -1.151534,-2.467574 -1.115343,0.350506 -0.978969,1.170069 -0.570393,2.028072 0.127052,0.266826 0.190496,0.601649 0.488415,0.732814 0.429028,0.188906 0.895564,-0.0323 1.233512,-0.293312"
         id="path1279" /><path
         style="fill:#acdd4d;fill-opacity:1;stroke:none;stroke-width:0.054835"
         d="m 92.459188,46.017548 c 0.153538,0.523125 0.367394,1.036161 0.366407,1.590213 -0.003,1.622786 -1.364074,2.398811 -2.72431,2.796584 v 0.109669 c 0.680721,0.400022 1.438101,0.588763 2.190656,0.238094 0.30576,-0.142461 0.534915,-0.397554 0.832395,-0.551037 0.299509,-0.154525 0.813586,-0.0879 0.977707,-0.43857 0.137746,-0.294354 -0.02972,-0.692456 -0.03186,-1.003205 -0.0088,-1.286045 -0.09311,-2.492798 -1.610996,-2.741748"
         id="path1277" /><path
         style="fill:#acdd4d;fill-opacity:1;stroke:none;stroke-width:0.054835"
         d="m 89.552935,50.185008 c -1.388695,-0.389219 -2.347156,-1.484712 -2.387569,-2.961088 -0.0147,-0.53678 0.157212,-1.065553 0.249005,-1.590214 -1.655796,0.342389 -1.664899,1.584237 -1.54492,2.961088 0.03131,0.359059 -0.134455,0.834807 0.114496,1.142706 0.213088,0.263482 0.650726,0.254708 0.93691,0.406875 0.895016,0.475803 1.877713,1.181529 2.632078,0.04063"
         id="path1275" /><path
         style="fill:#acdd4d;fill-opacity:1;stroke:none;stroke-width:0.054835"
         d="m 89.443265,45.249861 c 1.260491,0.314479 1.640498,1.122527 1.370874,2.357903 1.023769,-0.407752 1.041206,-1.10805 0.558713,-1.972687 -0.153647,-0.275381 -0.311681,-0.557672 -0.621554,-0.678144 -0.454966,-0.176898 -0.940584,0.02391 -1.308033,0.292928"
         id="path1273" /><path
         style="fill:#acdd4d;fill-opacity:1;stroke:none;stroke-width:0.054835"
         d="m 92.514023,45.743376 c 0.749758,-0.423655 1.05327,-1.34225 0.435938,-2.054447 -0.278397,-0.321168 -0.689714,-0.443176 -1.010444,-0.707371 -0.272694,-0.224659 -0.431771,-0.593698 -0.760561,-0.747291 -0.486496,-0.227346 -0.949687,0.145148 -1.406681,0.264853 -0.423545,0.110931 -0.855974,0.08105 -1.26115,0.274065 -0.599017,0.285416 -1.737555,1.571735 -0.878456,2.209027 0.31574,0.234255 1.118469,-0.75261 1.426971,-0.909767 0.974362,-0.496257 2.550483,-0.431935 3.191285,0.580154 0.206234,0.325665 0.206399,0.721189 0.263098,1.090777"
         id="path1271" /><path
         style="fill:#acdd4d;fill-opacity:1;stroke:none;stroke-width:0.054835"
         d="m 91.965673,41.521084 c 0.454527,0.628573 1.258627,0.914537 1.79102,1.48515 0.824389,0.883665 1.541136,2.493291 1.462997,3.724171 -0.03241,0.510788 -0.259096,0.994651 -0.402599,1.480544 1.044826,-0.08834 2.187586,-0.674031 2.16971,-1.864389 -0.0084,-0.556026 -0.296438,-1.045867 -0.34217,-1.590214 -0.03652,-0.434183 0.372274,-0.881472 0.170153,-1.297121 -0.207276,-0.426232 -0.751294,-0.344857 -1.068898,-0.630876 -0.306911,-0.276423 -0.429139,-0.704026 -0.733966,-0.991526 -0.868421,-0.819234 -2.015404,-0.652481 -3.046247,-0.315739"
         id="path1269" /><path
         style="fill:#acdd4d;fill-opacity:1;stroke:none;stroke-width:0.054835"
         d="m 84.562954,47.498095 c 0.21775,-0.754146 0.207606,-1.567677 0.480245,-2.303069 0.70611,-1.904254 2.291882,-2.827455 4.071057,-3.509437 -0.572861,-0.707262 -1.909353,-0.775915 -2.686913,-0.393935 -0.454033,0.223069 -0.797684,0.61958 -1.261204,0.825266 -0.444328,0.197132 -1.074381,0.04645 -1.394124,0.479861 -0.317714,0.430674 0.06366,1.14627 -0.09015,1.666051 -0.344363,1.163323 -0.541221,2.696399 0.881088,3.235263"
         id="path1265" /></g></g><g
     id="g20"
     transform="matrix(1.25,0,0,-1.4260104,46.640625,146.09375)" /></svg>
