<?xml version="1.0" encoding="UTF-8"?>
<svg clip-rule="evenodd" fill-rule="evenodd" stroke-linejoin="round" stroke-miterlimit="1.4142" viewBox="0 0 32 32" xmlns="http://www.w3.org/2000/svg">
 <clipPath id="a">
  <path d="m0 0h32v32h-32z" clip-rule="evenodd"/>
 </clipPath>
 <clipPath id="b">
  <path d="m2 6h28v20h-28z" clip-rule="evenodd"/>
 </clipPath>
 <path d="m0 0h32v32h-32z" fill="none"/>
 <g clip-path="url(#a)">
  <path d="m32 6c0-0.53-0.211-1.039-0.586-1.414s-0.884-0.586-1.414-0.586h-28c-0.53 0-1.039 0.211-1.414 0.586s-0.586 0.884-0.586 1.414v20c0 0.53 0.211 1.039 0.586 1.414s0.884 0.586 1.414 0.586h28c0.53 0 1.039-0.211 1.414-0.586s0.586-0.884 0.586-1.414v-20z"/>
  <path d="m2 6h28v20h-28z" fill="none"/>
  <g clip-path="url(#b)">
   <path d="m1 13h30v6h-30z" fill="#fff"/>
   <path d="m1 18h30v5h-30z" fill="#8a8a8a"/>
   <path d="m1 22h30v5h-30z" fill="#343434"/>
   <path d="m1 9h30v5h-30z" fill="#aede72"/>
   <path d="m1 5h30v5h-30z" fill="#40ac3e"/>
  </g>
 </g>
</svg>
