<?xml version="1.0" encoding="UTF-8"?>
<svg clip-rule="evenodd" fill-rule="evenodd" stroke-linejoin="round" stroke-miterlimit="1.4142" viewBox="0 0 32 32" xmlns="http://www.w3.org/2000/svg">
 <clipPath id="a">
  <path d="m0 0h32v32h-32z" clip-rule="evenodd"/>
 </clipPath>
 <clipPath id="b">
  <path d="m2 6h28v20h-28z" clip-rule="evenodd"/>
 </clipPath>
 <path d="m0 0h32v32h-32z" fill="none"/>
 <g clip-path="url(#a)">
  <path d="m32 6c0-0.53-0.211-1.039-0.586-1.414s-0.884-0.586-1.414-0.586h-28c-0.53 0-1.039 0.211-1.414 0.586s-0.586 0.884-0.586 1.414v20c0 0.53 0.211 1.039 0.586 1.414s0.884 0.586 1.414 0.586h28c0.53 0 1.039-0.211 1.414-0.586s0.586-0.884 0.586-1.414v-20z"/>
  <path d="m2 6h28v20h-28z" fill="none"/>
  <g clip-path="url(#b)">
   <path d="m1 22h30v5h-30z" fill="#2e2e2e"/>
   <path d="m1 19h30v4.143h-30z" fill="#555"/>
   <path d="m1 16.5h30v3.786h-30z" fill="#fff"/>
   <path d="m1 14h30v3.429h-30z" fill="#f1d2a6"/>
   <path d="m1 11h30v3.571h-30z" fill="#fdcb00"/>
   <path d="m1 8h30v3.714h-30z" fill="#df6800"/>
   <path d="m1 5h30v3.857h-30z" fill="#6f431d"/>
  </g>
  <path d="m3 11.828c0-0.53 0.211-1.039 0.586-1.414l2.828-2.828c0.375-0.375 0.884-0.586 1.414-0.586h0.344c0.53 0 1.039 0.211 1.414 0.586l1.828 1.828c0.375 0.375 0.586 0.884 0.586 1.414v3.172c0 1.105-0.895 2-2 2h-5c-0.53 0-1.039-0.211-1.414-0.586s-0.586-0.884-0.586-1.414v-2.172z" fill="#fff"/>
  <path d="m5.55 13.225c-.337.169-.55.513-.55.89 0 .321.154.622.414.81.261.188.595.239.9.137.506-.169 1.042-.347 1.37-.457.205-.068.427-.068.632 0 .328.11.864.288 1.37.457.305.102.639.051.9-.137.26-.188.414-.489.414-.81 0-.377-.213-.721-.55-.89-.14-.07-.295-.147-.449-.225-.614-.306-1.001-.933-1.001-1.619 0-.487-.394-.881-.881-.881-.079 0-.159 0-.238 0-.487 0-.881.394-.881.881 0 .686-.387 1.313-1.001 1.619-.154.078-.309.155-.449.225zm-.55-.475c0-.199-.079-.39-.22-.53-.14-.141-.331-.22-.53-.22s-.39.079-.53.22c-.141.14-.22.331-.22.53v.5c0 .199.079.39.22.53.14.141.331.22.53.22s.39-.079.53-.22c.141-.14.22-.331.22-.53 0-.163 0-.337 0-.5zm6.5-1.501c0-.414-.335-.749-.749-.749-.001 0-.001 0-.002 0-.414 0-.749.335-.749.749v.502c0 .414.335.749.749.749h.002c.414 0 .749-.335.749-.749 0-.164 0-.338 0-.502zm-5-.499c0-.199-.079-.39-.22-.53-.14-.141-.331-.22-.53-.22s-.39.079-.53.22c-.141.14-.22.331-.22.53v.5c0 .199.079.39.22.53.14.141.331.22.53.22s.39-.079.53-.22c.141-.14.22-.331.22-.53 0-.163 0-.337 0-.5zm3.5-1.5c0-.199-.079-.39-.22-.53-.14-.141-.331-.22-.53-.22s-.39.079-.53.22c-.141.14-.22.331-.22.53v.5c0 .199.079.39.22.53.14.141.331.22.53.22s.39-.079.53-.22c.141-.14.22-.331.22-.53 0-.163 0-.337 0-.5zm-2-.5c0-.199-.079-.39-.22-.53-.14-.141-.331-.22-.53-.22s-.39.079-.53.22c-.141.14-.22.331-.22.53v.5c0 .199.079.39.22.53.14.141.331.22.53.22s.39-.079.53-.22c.141-.14.22-.331.22-.53 0-.163 0-.337 0-.5z"/>
 </g>
</svg>
