<?xml version="1.0" encoding="UTF-8"?>
<svg clip-rule="evenodd" fill-rule="evenodd" stroke-linejoin="round" stroke-miterlimit="1.4142" viewBox="0 0 32 32" xmlns="http://www.w3.org/2000/svg">
 <clipPath id="a">
  <path d="m0 0h32v32h-32z" clip-rule="evenodd"/>
 </clipPath>
 <clipPath id="b">
  <path d="m2 6h28v20h-28z" clip-rule="evenodd"/>
 </clipPath>
 <path d="m0 0h32v32h-32z" fill="none"/>
 <g clip-path="url(#a)">
  <path d="m32 6c0-0.53-0.211-1.039-0.586-1.414s-0.884-0.586-1.414-0.586h-28c-0.53 0-1.039 0.211-1.414 0.586s-0.586 0.884-0.586 1.414v20c0 0.53 0.211 1.039 0.586 1.414s0.884 0.586 1.414 0.586h28c0.53 0 1.039-0.211 1.414-0.586s0.586-0.884 0.586-1.414v-20z"/>
  <path d="m2 6h28v20h-28z" fill="none"/>
  <g clip-path="url(#b)">
   <path d="m1 5h30v6h-30z" fill="#420e47"/>
   <path d="m1 10h30v5h-30z" fill="#630f6d"/>
   <path d="m1 14h30v5h-30z" fill="#970c9c"/>
   <path d="m1 18h30v5h-30z" fill="#b049b0"/>
   <path d="m1 22h30v5h-30z" fill="#ca72ca"/>
  </g>
  <path d="m22.952 15.191c.032.264.048.535.048.809 0 3.863-3.137 7-7 7s-7-3.137-7-7 3.137-7 7-7c.274 0 .545.016.809.048-2.709.334-4.809 2.65-4.809 5.452 0 3.036 2.464 5.5 5.5 5.5 2.802 0 5.118-2.1 5.452-4.809z" fill="#f4ec50"/>
  <circle cx="17.5" cy="14.5" r="3.5" fill="#fff"/>
 </g>
</svg>
