<?xml version="1.0" encoding="UTF-8"?>
<svg id="svg2" enable-background="new 0 0 45 45" version="1.1" viewBox="0 0 45 45" xml:space="preserve" xmlns="http://www.w3.org/2000/svg" xmlns:cc="http://creativecommons.org/ns#" xmlns:dc="http://purl.org/dc/elements/1.1/" xmlns:rdf="http://www.w3.org/1999/02/22-rdf-syntax-ns#"><metadata id="metadata8"><rdf:RDF><cc:Work rdf:about=""><dc:format>image/svg+xml</dc:format><dc:type rdf:resource="http://purl.org/dc/dcmitype/StillImage"/><dc:title/></cc:Work></rdf:RDF></metadata><defs id="defs6"><clipPath id="clipPath1019"><path id="path1021" d="m-17.899 12.051c0-6.2111-1.3514-11.245-3.0191-11.245h-21.14c-1.6677 0-3.0191 5.034-3.0191 11.245v42.978c0 5.4445 1.3514 9.8587 3.0191 9.8587h21.14c1.6677 0 3.0191-4.4142 3.0191-9.8587v-20.668z" fill="#8a1e04"/></clipPath></defs><g id="g1017" transform="matrix(1.6557 0 0 .50717 75.244 7.4736)" clip-path="url(#clipPath1019)" fill-rule="evenodd"><rect id="rect892" x="-48.337" y=".80583" width="33.698" height="8.0102" ry="0" fill="#ff69b4" style="paint-order:markers fill stroke"/><rect id="rect892-9" x="-48.337" y="8.816" width="33.698" height="8.0102" ry="0" fill="#f00" style="paint-order:markers fill stroke"/><rect id="rect892-9-1" x="-48.337" y="16.826" width="33.698" height="8.0102" ry="0" fill="#ff8e00" style="paint-order:markers fill stroke"/><rect id="rect892-9-1-5" x="-48.337" y="24.836" width="33.698" height="8.0102" ry="0" fill="#ff0" style="paint-order:markers fill stroke"/><rect id="rect892-9-1-5-5" x="-48.337" y="32.847" width="33.698" height="8.0102" ry="0" fill="#008e00" style="paint-order:markers fill stroke"/><rect id="rect892-9-1-5-5-2" x="-48.337" y="40.857" width="33.698" height="8.0102" ry="0" fill="#00c0c0" style="paint-order:markers fill stroke"/><rect id="rect892-9-1-5-5-2-9" x="-48.337" y="48.867" width="33.698" height="8.0102" ry="0" fill="#400098" style="paint-order:markers fill stroke"/><rect id="rect892-9-1-5-5-2-9-4" x="-48.337" y="56.877" width="33.698" height="8.0102" ry="0" fill="#8e008e" style="paint-order:markers fill stroke"/></g></svg>
