<?xml version="1.0" encoding="UTF-8"?>
<svg id="svg2" enable-background="new 0 0 45 45" version="1.1" viewBox="0 0 45 45" xml:space="preserve" xmlns="http://www.w3.org/2000/svg" xmlns:cc="http://creativecommons.org/ns#" xmlns:dc="http://purl.org/dc/elements/1.1/" xmlns:rdf="http://www.w3.org/1999/02/22-rdf-syntax-ns#"><metadata id="metadata8"><rdf:RDF><cc:Work rdf:about=""><dc:format>image/svg+xml</dc:format><dc:type rdf:resource="http://purl.org/dc/dcmitype/StillImage"/><dc:title/></cc:Work></rdf:RDF></metadata><defs id="defs6"><clipPath id="clipPath1020"><path id="path1022" d="m45.248 12.828c0-3.1501-2.2376-5.7031-4.9989-5.7031h-35.002c-2.7613 0-4.9989 2.5531-4.9989 5.7031v21.797c0 2.7612 2.2376 5 4.9989 5h35.002c2.7613 0 4.9989-2.2388 4.9989-5v-10.482z" fill="#8a1e04"/></clipPath></defs><g id="g1004"><g id="g1018" transform="translate(-.011052 -.036842)" clip-path="url(#clipPath1020)"><g id="g983" fill="#fff798"><path id="path919" d="m45.248 23.027v-10.199c0-3.1501-2.2376-5.7031-4.9989-5.7031h-35.002c-2.7613 0-4.9989 2.5531-4.9989 5.7031v10.785"/><path id="path5065-5" d="m0.24804 25.259v9.3662c0 2.7612 2.2376 5 4.9989 5h35.002c2.7613 0 4.9989-2.2388 4.9989-5v-9.3662"/></g><g id="g979" transform="matrix(1 0 0 1.0379 -1.2969e-7 -1.7565)"><rect id="rect5197-8-3" x=".24805" y="21.894" width="45" height="4.64" fill="#fff"/><rect id="rect5197-8-3-8" x=".24805" y="26.534" width="45" height="4.64" fill="#ffebfb"/><rect id="rect5197-8-3-8-4" x=".24805" y="31.174" width="45" height="4.64" fill="#ffddcd"/><rect id="rect5197-8-3-8-9" x=".24805" y="17.254" width="45" height="4.64" fill="#ffebfb"/><rect id="rect5197-8-3-8-0" x=".24805" y="12.614" width="45" height="4.64" fill="#ffddcd"/></g></g></g></svg>
