<?xml version="1.0" encoding="UTF-8" standalone="no"?>
<svg
   xmlns:dc="http://purl.org/dc/elements/1.1/"
   xmlns:cc="http://creativecommons.org/ns#"
   xmlns:rdf="http://www.w3.org/1999/02/22-rdf-syntax-ns#"
   xmlns:svg="http://www.w3.org/2000/svg"
   xmlns="http://www.w3.org/2000/svg"
   xmlns:sodipodi="http://sodipodi.sourceforge.net/DTD/sodipodi-0.dtd"
   xmlns:inkscape="http://www.inkscape.org/namespaces/inkscape"
   viewBox="0 0 45 45"
   style="enable-background:new 0 0 45 45;"
   xml:space="preserve"
   version="1.1"
   id="svg2"
   inkscape:version="0.92.2 (5c3e80d, 2017-08-06)"
   sodipodi:docname="pangender.svg"
   inkscape:export-filename="C:\Users\Soyez\Desktop\Stuff\My Art\somoji\set 2\lipsticklesbian.png"
   inkscape:export-xdpi="1092.27"
   inkscape:export-ydpi="1092.27"><sodipodi:namedview
     pagecolor="#ffffff"
     bordercolor="#666666"
     borderopacity="1"
     objecttolerance="10"
     gridtolerance="10"
     guidetolerance="10"
     inkscape:pageopacity="0"
     inkscape:pageshadow="2"
     inkscape:window-width="1920"
     inkscape:window-height="1027"
     id="namedview15"
     showgrid="false"
     inkscape:zoom="5.6568543"
     inkscape:cx="41.672698"
     inkscape:cy="0.93628582"
     inkscape:window-x="-8"
     inkscape:window-y="-8"
     inkscape:window-maximized="1"
     inkscape:current-layer="svg2" /><metadata
     id="metadata8"><rdf:RDF><cc:Work
         rdf:about=""><dc:format>image/svg+xml</dc:format><dc:type
           rdf:resource="http://purl.org/dc/dcmitype/StillImage" /><dc:title></dc:title></cc:Work></rdf:RDF></metadata><defs
     id="defs6"><clipPath
       id="clipPath16"
       clipPathUnits="userSpaceOnUse"><path
         id="path18"
         d="M 0,36 36,36 36,0 0,0 0,36 Z" /></clipPath><clipPath
       id="clipPath16-9"
       clipPathUnits="userSpaceOnUse"><path
         inkscape:connector-curvature="0"
         id="path18-6"
         d="M 4,31 C 1.791,31 0,29.209 0,27 L 0,27 0,9 C 0,6.791 1.791,5 4,5 l 0,0 28,0 c 2.209,0 4,1.791 4,4 l 0,0 0,18 c 0,2.209 -1.791,4 -4,4 l 0,0 -28,0 z" /></clipPath><clipPath
       clipPathUnits="userSpaceOnUse"
       id="clipPath5047"><path
         style="fill:#5bcefa;fill-opacity:1;fill-rule:nonzero;stroke:none"
         d="m 25.204492,-54.863389 0,0.04687 0,2.453125 c 0,2.761254 2.232631,5.000004 4.98781,5.000004 l 34.924391,0 c 2.755183,0 4.987805,-2.23875 4.987805,-4.999999 l 0,-2.453125 0,-0.04687 0,-6.866211 0,-12.430661 c 0,-3.15007 -2.232622,-5.70313 -4.987805,-5.70313 l -34.924391,0 c -2.755179,0 -4.98781,2.55307 -4.98781,5.70312 l 0,12.430666 z"
         id="path5049"
         inkscape:connector-curvature="0"
         sodipodi:nodetypes="ccsssscccsssscc" /></clipPath><clipPath
       clipPathUnits="userSpaceOnUse"
       id="clipPath5116"><path
         sodipodi:nodetypes="ccsssscccsssscc"
         inkscape:connector-curvature="0"
         id="path5118"
         d="m -19.000001,-39.038681 0,0.04687 0,2.453125 c 0,2.761249 2.237602,4.999999 4.998918,4.999999 l 35.00217,0 c 2.761314,0 4.998914,-2.23875 4.998914,-4.999999 l 0,-2.453125 0,-0.04687 0,-6.866211 0,-12.430665 c 0,-3.15006 -2.2376,-5.703124 -4.998914,-5.703124 l -35.00217,0 c -2.761316,0 -4.998918,2.55307 -4.998918,5.703125 l 0,12.430665 z"
         style="fill:#333ebd;fill-opacity:1;fill-rule:nonzero;stroke:none" /></clipPath><clipPath
       clipPathUnits="userSpaceOnUse"
       id="clipPath5116-2"><path
         sodipodi:nodetypes="ccsssscccsssscc"
         inkscape:connector-curvature="0"
         id="path5118-6"
         d="m -19.000001,-39.038681 0,0.04687 0,2.453125 c 0,2.761249 2.237602,4.999999 4.998918,4.999999 l 35.00217,0 c 2.761314,0 4.998914,-2.23875 4.998914,-4.999999 l 0,-2.453125 0,-0.04687 0,-6.866211 0,-12.430665 c 0,-3.15006 -2.2376,-5.703124 -4.998914,-5.703124 l -35.00217,0 c -2.761316,0 -4.998918,2.55307 -4.998918,5.703125 l 0,12.430665 z"
         style="fill:#333ebd;fill-opacity:1;fill-rule:nonzero;stroke:none" /></clipPath><clipPath
       clipPathUnits="userSpaceOnUse"
       id="clipPath5250"><path
         sodipodi:nodetypes="ccsssscccsssscc"
         inkscape:connector-curvature="0"
         id="path5252"
         d="m -4.6455538,-44.034176 0,0.04687 0,2.453125 c 0,2.761249 2.2376019,4.999999 4.99891795,4.999999 l 35.00217185,0 c 2.76131,0 4.99891,-2.23875 4.99891,-4.999999 l 0,-2.453125 0,-0.04687 0,-6.866211 0,-12.430665 c 0,-3.15006 -2.2376,-5.703124 -4.99891,-5.703124 l -35.00217185,0 c -2.76131605,0 -4.99891805,2.55307 -4.99891805,5.703125 l 0,12.430665 z"
         style="fill:#000000;fill-opacity:1;fill-rule:nonzero;stroke:none" /></clipPath><clipPath
       clipPathUnits="userSpaceOnUse"
       id="clipPath5277"><path
         style="fill:#5bcefa;fill-opacity:1;fill-rule:nonzero;stroke:none"
         d="m 29.620147,-97.8367 0,0.0469 0,2.45313 c 0,2.76125 2.237602,5 4.998919,5 l 35.002168,0 c 2.761319,0 4.998913,-2.23875 4.998913,-5 l 0,-2.45312 0,-0.0469 0,-6.86621 0,-12.43067 c 0,-3.15006 -2.237594,-5.70313 -4.998913,-5.70313 l -35.002168,0 c -2.761317,0 -4.998919,2.55307 -4.998919,5.70313 l 0,12.43066 z"
         id="path5279"
         inkscape:connector-curvature="0"
         sodipodi:nodetypes="ccsssscccsssscc" /></clipPath><clipPath
       clipPathUnits="userSpaceOnUse"
       id="clipPath5277-8"><path
         style="fill:#5bcefa;fill-opacity:1;fill-rule:nonzero;stroke:none"
         d="m 29.620147,-97.8367 0,0.0469 0,2.45313 c 0,2.76125 2.237602,5 4.998919,5 l 35.002168,0 c 2.761319,0 4.998913,-2.23875 4.998913,-5 l 0,-2.45312 0,-0.0469 0,-6.86621 0,-12.43067 c 0,-3.15006 -2.237594,-5.70313 -4.998913,-5.70313 l -35.002168,0 c -2.761317,0 -4.998919,2.55307 -4.998919,5.70313 l 0,12.43066 z"
         id="path5279-0"
         inkscape:connector-curvature="0"
         sodipodi:nodetypes="ccsssscccsssscc" /></clipPath><clipPath
       clipPathUnits="userSpaceOnUse"
       id="clipPath5326"><path
         style="fill:#5bcefa;fill-opacity:1;fill-rule:nonzero;stroke:none"
         d="m 79.510932,-96.665226 0,0.0469 0,2.45313 c 0,2.76125 2.237602,5 4.998919,5 l 35.002169,0 c 2.76131,0 4.99891,-2.23875 4.99891,-5 l 0,-2.45312 0,-0.0469 0,-6.866204 0,-12.43067 c 0,-3.15006 -2.2376,-5.70313 -4.99891,-5.70313 l -35.002169,0 c -2.761317,0 -4.998919,2.55307 -4.998919,5.70313 l 0,12.43066 z"
         id="path5328"
         inkscape:connector-curvature="0"
         sodipodi:nodetypes="ccsssscccsssscc" /></clipPath><clipPath
       clipPathUnits="userSpaceOnUse"
       id="clipPath5250-2"><path
         sodipodi:nodetypes="ccsssscccsssscc"
         inkscape:connector-curvature="0"
         id="path5252-8"
         d="m -4.6455538,-44.034176 0,0.04687 0,2.453125 c 0,2.761249 2.2376019,4.999999 4.99891795,4.999999 l 35.00217185,0 c 2.76131,0 4.99891,-2.23875 4.99891,-4.999999 l 0,-2.453125 0,-0.04687 0,-6.866211 0,-12.430665 c 0,-3.15006 -2.2376,-5.703124 -4.99891,-5.703124 l -35.00217185,0 c -2.76131605,0 -4.99891805,2.55307 -4.99891805,5.703125 l 0,12.430665 z"
         style="fill:#000000;fill-opacity:1;fill-rule:nonzero;stroke:none" /></clipPath><clipPath
       clipPathUnits="userSpaceOnUse"
       id="clipPath5326-4"><path
         style="fill:#5bcefa;fill-opacity:1;fill-rule:nonzero;stroke:none"
         d="m 79.510932,-96.665226 0,0.0469 0,2.45313 c 0,2.76125 2.237602,5 4.998919,5 l 35.002169,0 c 2.76131,0 4.99891,-2.23875 4.99891,-5 l 0,-2.45312 0,-0.0469 0,-6.866204 0,-12.43067 c 0,-3.15006 -2.2376,-5.70313 -4.99891,-5.70313 l -35.002169,0 c -2.761317,0 -4.998919,2.55307 -4.998919,5.70313 l 0,12.43066 z"
         id="path5328-4"
         inkscape:connector-curvature="0"
         sodipodi:nodetypes="ccsssscccsssscc" /></clipPath><clipPath
       clipPathUnits="userSpaceOnUse"
       id="clipPath5277-0"><path
         style="fill:#5bcefa;fill-opacity:1;fill-rule:nonzero;stroke:none"
         d="m 29.620147,-97.8367 0,0.0469 0,2.45313 c 0,2.76125 2.237602,5 4.998919,5 l 35.002168,0 c 2.761319,0 4.998913,-2.23875 4.998913,-5 l 0,-2.45312 0,-0.0469 0,-6.86621 0,-12.43067 c 0,-3.15006 -2.237594,-5.70313 -4.998913,-5.70313 l -35.002168,0 c -2.761317,0 -4.998919,2.55307 -4.998919,5.70313 l 0,12.43066 z"
         id="path5279-01"
         inkscape:connector-curvature="0"
         sodipodi:nodetypes="ccsssscccsssscc" /></clipPath><clipPath
       clipPathUnits="userSpaceOnUse"
       id="clipPath5472"><path
         style="fill:#5bcefa;fill-opacity:1;fill-rule:nonzero;stroke:none"
         d="m 50.32685,-59.917429 0,0.0469 0,2.45313 c 0,2.76125 2.2376,5 4.99891,5 l 35.00217,0 c 2.76132,0 4.99892,-2.23875 4.99892,-5 l 0,-2.45312 0,-0.0469 0,-6.866211 0,-12.430671 c 0,-3.15006 -2.2376,-5.70313 -4.99892,-5.70313 l -35.00217,0 c -2.76131,0 -4.99891,2.55307 -4.99891,5.70313 l 0,12.43066 z"
         id="path5474"
         inkscape:connector-curvature="0"
         sodipodi:nodetypes="ccsssscccsssscc" /></clipPath><clipPath
       clipPathUnits="userSpaceOnUse"
       id="clipPath5472-9"><path
         style="fill:#5bcefa;fill-opacity:1;fill-rule:nonzero;stroke:none"
         d="m 50.32685,-59.917429 0,0.0469 0,2.45313 c 0,2.76125 2.2376,5 4.99891,5 l 35.00217,0 c 2.76132,0 4.99892,-2.23875 4.99892,-5 l 0,-2.45312 0,-0.0469 0,-6.866211 0,-12.430671 c 0,-3.15006 -2.2376,-5.70313 -4.99892,-5.70313 l -35.00217,0 c -2.76131,0 -4.99891,2.55307 -4.99891,5.70313 l 0,12.43066 z"
         id="path5474-1"
         inkscape:connector-curvature="0"
         sodipodi:nodetypes="ccsssscccsssscc" /></clipPath><clipPath
       clipPathUnits="userSpaceOnUse"
       id="clipPath5277-9"><path
         style="fill:#5bcefa;fill-opacity:1;fill-rule:nonzero;stroke:none"
         d="m 29.620147,-97.8367 0,0.0469 0,2.45313 c 0,2.76125 2.237602,5 4.998919,5 l 35.002168,0 c 2.761319,0 4.998913,-2.23875 4.998913,-5 l 0,-2.45312 0,-0.0469 0,-6.86621 0,-12.43067 c 0,-3.15006 -2.237594,-5.70313 -4.998913,-5.70313 l -35.002168,0 c -2.761317,0 -4.998919,2.55307 -4.998919,5.70313 l 0,12.43066 z"
         id="path5279-012"
         inkscape:connector-curvature="0"
         sodipodi:nodetypes="ccsssscccsssscc" /></clipPath><clipPath
       clipPathUnits="userSpaceOnUse"
       id="clipPath5666"><path
         style="fill:#5bcefa;fill-opacity:1;fill-rule:nonzero;stroke:none"
         d="m -45.480969,-1.7578976 0,0.0469 0,2.45312999 c 0,2.76125001 2.237602,5.00000001 4.998919,5.00000001 l 35.0021693,0 c 2.7613201,0 4.9989101,-2.23875 4.9989101,-5.00000001 l 0,-2.45311999 0,-0.0469 0,-6.866211 0,-12.4306694 c 0,-3.15006 -2.23759,-5.70313 -4.9989101,-5.70313 l -35.0021693,0 c -2.761317,0 -4.998919,2.55307 -4.998919,5.70313 l 0,12.4306594 z"
         id="path5668"
         inkscape:connector-curvature="0"
         sodipodi:nodetypes="ccsssscccsssscc" /></clipPath><clipPath
       clipPathUnits="userSpaceOnUse"
       id="clipPath5277-3"><path
         style="fill:#5bcefa;fill-opacity:1;fill-rule:nonzero;stroke:none"
         d="m 29.620147,-97.8367 0,0.0469 0,2.45313 c 0,2.76125 2.237602,5 4.998919,5 l 35.002168,0 c 2.761319,0 4.998913,-2.23875 4.998913,-5 l 0,-2.45312 0,-0.0469 0,-6.86621 0,-12.43067 c 0,-3.15006 -2.237594,-5.70313 -4.998913,-5.70313 l -35.002168,0 c -2.761317,0 -4.998919,2.55307 -4.998919,5.70313 l 0,12.43066 z"
         id="path5279-7"
         inkscape:connector-curvature="0"
         sodipodi:nodetypes="ccsssscccsssscc" /></clipPath><clipPath
       clipPathUnits="userSpaceOnUse"
       id="clipPath5742"><path
         style="fill:#5bcefa;fill-opacity:1;fill-rule:nonzero;stroke:none"
         d="m 85.499998,4.249988 0,0.0469 0,2.45313 c 0,2.76125 2.2376,5 4.99892,5 l 35.002162,0 c 2.76132,0 4.99892,-2.23875 4.99892,-5 l 0,-2.45312 0,-0.0469 0,-6.866211 0,-12.430672 c 0,-3.15006 -2.2376,-5.70313 -4.99892,-5.70313 l -35.002162,0 c -2.76132,0 -4.99892,2.55307 -4.99892,5.70313 l 0,12.430662 z"
         id="path5744"
         inkscape:connector-curvature="0"
         sodipodi:nodetypes="ccsssscccsssscc" /></clipPath><clipPath
       clipPathUnits="userSpaceOnUse"
       id="clipPath5774"><path
         style="fill:#5bcefa;fill-opacity:1;fill-rule:nonzero;stroke:none"
         d="m 92.581629,10.908983 0,0.0469 0,2.45313 c 0,2.76125 2.2376,5 4.99892,5 l 35.002161,0 c 2.76132,0 4.99892,-2.23875 4.99892,-5 l 0,-2.45312 0,-0.0469 0,-6.8662117 0,-12.43067 c 0,-3.1500593 -2.2376,-5.7031293 -4.99892,-5.7031293 l -35.002161,0 c -2.76132,0 -4.99892,2.55307 -4.99892,5.7031293 l 0,12.43066 z"
         id="path5776"
         inkscape:connector-curvature="0"
         sodipodi:nodetypes="ccsssscccsssscc" /></clipPath><clipPath
       clipPathUnits="userSpaceOnUse"
       id="clipPath5277-1"><path
         style="fill:#5bcefa;fill-opacity:1;fill-rule:nonzero;stroke:none"
         d="m 29.620147,-97.8367 0,0.0469 0,2.45313 c 0,2.76125 2.237602,5 4.998919,5 l 35.002168,0 c 2.761319,0 4.998913,-2.23875 4.998913,-5 l 0,-2.45312 0,-0.0469 0,-6.86621 0,-12.43067 c 0,-3.15006 -2.237594,-5.70313 -4.998913,-5.70313 l -35.002168,0 c -2.761317,0 -4.998919,2.55307 -4.998919,5.70313 l 0,12.43066 z"
         id="path5279-9"
         inkscape:connector-curvature="0"
         sodipodi:nodetypes="ccsssscccsssscc" /></clipPath><clipPath
       clipPathUnits="userSpaceOnUse"
       id="clipPath5326-5"><path
         style="fill:#5bcefa;fill-opacity:1;fill-rule:nonzero;stroke:none"
         d="m 79.510932,-96.665226 0,0.0469 0,2.45313 c 0,2.76125 2.237602,5 4.998919,5 l 35.002169,0 c 2.76131,0 4.99891,-2.23875 4.99891,-5 l 0,-2.45312 0,-0.0469 0,-6.866204 0,-12.43067 c 0,-3.15006 -2.2376,-5.70313 -4.99891,-5.70313 l -35.002169,0 c -2.761317,0 -4.998919,2.55307 -4.998919,5.70313 l 0,12.43066 z"
         id="path5328-8"
         inkscape:connector-curvature="0"
         sodipodi:nodetypes="ccsssscccsssscc" /></clipPath><clipPath
       clipPathUnits="userSpaceOnUse"
       id="clipPath5885"><path
         style="fill:#5bcefa;fill-opacity:1;fill-rule:nonzero;stroke:none"
         d="m 66.241905,48.800236 0,0.0469 0,2.45313 c 0,2.76125 2.2376,5 4.99892,5 l 35.002165,0 c 2.76132,0 4.99892,-2.23875 4.99892,-5 l 0,-2.45312 0,-0.0469 0,-6.866211 0,-12.43067 c 0,-3.15006 -2.2376,-5.70313 -4.99892,-5.70313 l -35.002165,0 c -2.76132,0 -4.99892,2.55307 -4.99892,5.70313 l 0,12.43066 z"
         id="path5887"
         inkscape:connector-curvature="0"
         sodipodi:nodetypes="ccsssscccsssscc" /></clipPath><clipPath
       clipPathUnits="userSpaceOnUse"
       id="clipPath5774-5"><path
         style="fill:#5bcefa;fill-opacity:1;fill-rule:nonzero;stroke:none"
         d="m 92.581629,10.908983 0,0.0469 0,2.45313 c 0,2.76125 2.2376,5 4.99892,5 l 35.002161,0 c 2.76132,0 4.99892,-2.23875 4.99892,-5 l 0,-2.45312 0,-0.0469 0,-6.8662117 0,-12.43067 c 0,-3.1500593 -2.2376,-5.7031293 -4.99892,-5.7031293 l -35.002161,0 c -2.76132,0 -4.99892,2.55307 -4.99892,5.7031293 l 0,12.43066 z"
         id="path5776-6"
         inkscape:connector-curvature="0"
         sodipodi:nodetypes="ccsssscccsssscc" /></clipPath><clipPath
       clipPathUnits="userSpaceOnUse"
       id="clipPath1020"><path
         id="path1022"
         style="fill:#8a1e04;fill-opacity:1;fill-rule:nonzero;stroke:none"
         d="m 45.248046,12.828131 c 0,-3.1500604 -2.2376,-5.7031244 -4.998914,-5.7031244 H 5.2469617 c -2.761315,0 -4.998917,2.55307 -4.998917,5.7031254 v 11.607907 7.688968 0.04687 2.453125 c 0,2.761249 2.237602,4.999999 4.998917,4.999999 H 40.249132 c 2.761314,0 4.998914,-2.23875 4.998914,-4.999999 v -2.453125 -0.04687 -7.981937 z"
         inkscape:connector-curvature="0"
         sodipodi:nodetypes="sssscccsssscccs" /></clipPath></defs><g
     id="g20"
     transform="matrix(1.25,0,0,-1.4260104,46.640625,146.09375)" /><g
     id="g1004"
     inkscape:export-filename="C:\Users\Soyez\Desktop\Stuff\My Art\somoji\set 2\pangender.png"
     inkscape:export-xdpi="1092.27"
     inkscape:export-ydpi="1092.27"><g
       clip-path="url(#clipPath1020)"
       transform="translate(-0.01105176,-0.0368415)"
       id="g1018"><g
         id="g983"><path
           inkscape:connector-curvature="0"
           id="path919"
           d="M 45.248046,23.027344 V 12.828131 c 0,-3.15006 -2.2376,-5.703124 -4.998914,-5.703124 H 5.2469624 c -2.7613158,0 -4.99891783,2.55307 -4.99891783,5.703125 v 10.785149"
           style="fill:#fff798;fill-opacity:1;fill-rule:nonzero;stroke:none" /><path
           inkscape:connector-curvature="0"
           id="path5065-5"
           d="m 0.24804457,25.258797 v 6.86621 0.04687 2.453125 c 0,2.761249 2.23760203,4.999999 4.99891783,4.999999 H 40.249132 c 2.761314,0 4.998914,-2.23875 4.998914,-4.999999 v -2.453125 -0.04687 -6.866211"
           style="fill:#fff798;fill-opacity:1;fill-rule:nonzero;stroke:none" /></g><g
         id="g979"
         transform="matrix(1,0,0,1.0378839,-1.296862e-7,-1.756474)"><rect
           y="21.894152"
           x="0.24804541"
           height="4.6399999"
           width="45"
           id="rect5197-8-3"
           style="opacity:1;fill:#ffffff;fill-opacity:1;fill-rule:nonzero;stroke:none;stroke-width:0.59981906;stroke-linecap:round;stroke-linejoin:round;stroke-miterlimit:4;stroke-dasharray:none;stroke-dashoffset:0;stroke-opacity:1" /><rect
           y="26.534151"
           x="0.24804541"
           height="4.6399999"
           width="45"
           id="rect5197-8-3-8"
           style="opacity:1;fill:#ffebfb;fill-opacity:1;fill-rule:nonzero;stroke:none;stroke-width:0.59981906;stroke-linecap:round;stroke-linejoin:round;stroke-miterlimit:4;stroke-dasharray:none;stroke-dashoffset:0;stroke-opacity:1" /><rect
           y="31.17415"
           x="0.24804541"
           height="4.6399999"
           width="45"
           id="rect5197-8-3-8-4"
           style="opacity:1;fill:#ffddcd;fill-opacity:1;fill-rule:nonzero;stroke:none;stroke-width:0.59981906;stroke-linecap:round;stroke-linejoin:round;stroke-miterlimit:4;stroke-dasharray:none;stroke-dashoffset:0;stroke-opacity:1" /><rect
           y="17.254152"
           x="0.24804541"
           height="4.6399999"
           width="45"
           id="rect5197-8-3-8-9"
           style="opacity:1;fill:#ffebfb;fill-opacity:1;fill-rule:nonzero;stroke:none;stroke-width:0.59981906;stroke-linecap:round;stroke-linejoin:round;stroke-miterlimit:4;stroke-dasharray:none;stroke-dashoffset:0;stroke-opacity:1" /><rect
           y="12.614153"
           x="0.24804541"
           height="4.6399999"
           width="45"
           id="rect5197-8-3-8-0"
           style="opacity:1;fill:#ffddcd;fill-opacity:1;fill-rule:nonzero;stroke:none;stroke-width:0.59981906;stroke-linecap:round;stroke-linejoin:round;stroke-miterlimit:4;stroke-dasharray:none;stroke-dashoffset:0;stroke-opacity:1" /></g></g></g></svg>