<?xml version="1.0" encoding="UTF-8"?>
<svg clip-rule="evenodd" fill-rule="evenodd" stroke-linejoin="round" stroke-miterlimit="1.4142" viewBox="0 0 32 32" xmlns="http://www.w3.org/2000/svg">
 <clipPath id="a">
  <path d="m0 0h32v32h-32z" clip-rule="evenodd"/>
 </clipPath>
 <clipPath id="b">
  <path d="m2 6h28v20h-28z" clip-rule="evenodd"/>
 </clipPath>
 <path d="m0 0h32v32h-32z" fill="none"/>
 <g clip-path="url(#a)">
  <path d="m32 6c0-0.53-0.211-1.039-0.586-1.414s-0.884-0.586-1.414-0.586h-28c-0.53 0-1.039 0.211-1.414 0.586s-0.586 0.884-0.586 1.414v20c0 0.53 0.211 1.039 0.586 1.414s0.884 0.586 1.414 0.586h28c0.53 0 1.039-0.211 1.414-0.586s0.586-0.884 0.586-1.414v-20z"/>
  <path d="m2 6h28v20h-28z" fill="none"/>
  <g clip-path="url(#b)">
   <path d="m1 5h30v5.333h-30z" fill="#750787"/>
   <path d="m1 9.333h30v5.667h-30z" fill="#004dff"/>
   <path d="m1 12.667h30v5.333h-30z" fill="#008026"/>
   <path d="m1 16h30v5h-30z" fill="#ffed00"/>
   <path d="m1 19.333h30v4.667h-30z" fill="#ff8c00"/>
   <path d="m1 22.667h30v4.333h-30z" fill="#e40303"/>
  </g>
 </g>
</svg>
