<?xml version="1.0" encoding="UTF-8"?>
<svg id="svg2" enable-background="new 0 0 45 45" version="1.1" viewBox="0 0 45 45" xml:space="preserve" xmlns="http://www.w3.org/2000/svg" xmlns:cc="http://creativecommons.org/ns#" xmlns:dc="http://purl.org/dc/elements/1.1/" xmlns:rdf="http://www.w3.org/1999/02/22-rdf-syntax-ns#"><metadata id="metadata8"><rdf:RDF><cc:Work rdf:about=""><dc:format>image/svg+xml</dc:format><dc:type rdf:resource="http://purl.org/dc/dcmitype/StillImage"/><dc:title/></cc:Work></rdf:RDF></metadata><defs id="defs6"><clipPath id="clipPath1233"><path id="path1235" d="m93.984 69.922c0-3.1501-2.2376-5.7031-4.9989-5.7031h-35.002c-2.7613 0-4.9989 2.5531-4.9989 5.7031v21.797c0 2.7612 2.2376 5 4.9989 5h35.002c2.7613 0 4.9989-2.2388 4.9989-5v-10.482z" fill="#8a1e04"/></clipPath></defs><g id="g1231" transform="translate(-48.747 -57.131)" clip-path="url(#clipPath1233)"><rect id="rect986-0-2-5-9-4" x="48.984" y="85.885" width="45" height="10.833" fill="#fd8ba8" fill-rule="evenodd" stroke-linecap="round" stroke-linejoin="round" stroke-opacity=".63003" stroke-width="2.4344" style="paint-order:stroke fill markers"/><rect id="rect986-0-9-1-7" x="48.984" y="75.052" width="45" height="10.833" fill="#fbf2ff" fill-rule="evenodd" stroke-linecap="round" stroke-linejoin="round" stroke-opacity=".63003" stroke-width="2.4344" style="paint-order:stroke fill markers"/><rect id="rect986-49-7-8" x="48.984" y="64.219" width="45" height="10.833" fill="#fd8ba8" fill-rule="evenodd" stroke-linecap="round" stroke-linejoin="round" stroke-opacity=".63003" stroke-width="2.4344" style="paint-order:stroke fill markers"/><g id="g1218" transform="matrix(.59681 0 0 .59681 4.1106 70.224)"><circle id="path1081-3" cx="112.89" cy="18.12" r="1.1554" fill="#f995c9" fill-rule="evenodd" stroke-linecap="round" stroke-linejoin="round" stroke-opacity=".63003" stroke-width="2.7619" style="paint-order:stroke fill markers"/><circle id="path1081" cx="112.89" cy="18.12" r=".67668" fill="#fff71e" fill-rule="evenodd" stroke-linecap="round" stroke-linejoin="round" stroke-opacity=".63003" stroke-width="1.6176" style="paint-order:stroke fill markers"/><path id="path1105" d="m112.12 23.548c0.59176-1.3734 0.61072-3.7121 0.61072-3.7121s-0.26983-0.25629-1.1121-0.84223c0 0-2.7742 0.57791-4.0944 1.7627-1.4021 1.2583-1.1373 3.7167 0.30965 4.3633 1.7717 0.79175 3.4516 0.36532 4.2862-1.5718z" fill="#c76bc5"/><path id="path1105-5" d="m113.66 23.548c-0.59176-1.3734-0.61072-3.7121-0.61072-3.7121s0.26983-0.25629 1.1121-0.84223c0 0 2.7742 0.57791 4.0944 1.7627 1.4021 1.2583 1.1373 3.7167-0.30965 4.3633-1.7717 0.79175-3.4516 0.36532-4.2862-1.5718z" fill="#c76bc5"/><path id="path1135" d="m104.95 15.765s-0.63873 3.5891 2.6928 3.3986c3.3315-0.19046 3.3463-0.357 3.5986-0.65561 0.25232-0.29861 0.48654-0.71406 0.42183-1.6844-0.0423-0.22916-1.0543-1.817-2.5725-2.6631-1.607-0.8956-3.768-1.0448-4.1408 1.6045z" fill="#c76bc5"/><path id="path1135-0" d="m120.83 15.765s0.63873 3.5891-2.6928 3.3986c-3.3315-0.19046-3.3463-0.357-3.5986-0.65561-0.25232-0.29861-0.48654-0.71406-0.42183-1.6844 0.0423-0.22916 1.0543-1.817 2.5725-2.6631 1.607-0.8956 3.768-1.0448 4.1408 1.6045z" fill="#c76bc5"/><path id="path1180" d="m112.35 16.454h1.0488s4.0252-3.1356 3.1177-5.618c0 0-0.78022-1.9998-3.6004-1.9998-2.8202-1.6e-6 -3.6004 1.9998-3.6004 1.9998-1.0638 2.4933 3.0343 5.618 3.0343 5.618z" fill="#c76bc5"/></g></g></svg>
