<?xml version="1.0" encoding="UTF-8"?>
<svg id="svg2" enable-background="new 0 0 45 45" version="1.1" viewBox="0 0 45 45" xml:space="preserve" xmlns="http://www.w3.org/2000/svg" xmlns:cc="http://creativecommons.org/ns#" xmlns:dc="http://purl.org/dc/elements/1.1/" xmlns:rdf="http://www.w3.org/1999/02/22-rdf-syntax-ns#"><metadata id="metadata8"><rdf:RDF><cc:Work rdf:about=""><dc:format>image/svg+xml</dc:format><dc:type rdf:resource="http://purl.org/dc/dcmitype/StillImage"/><dc:title/></cc:Work></rdf:RDF></metadata><defs id="defs6"><clipPath id="clipPath1085"><path id="path1087" d="m85.352 21.611c0-6.7582-1.4665-12.236-3.2762-12.236h-22.94c-1.8097 0-3.2762 5.4774-3.2762 12.236v46.764c0 5.9241 1.4665 10.727 3.2762 10.727h22.94c1.8097 0 3.2762-4.8031 3.2762-10.727v-22.488z" fill="#8a1e04"/></clipPath></defs><g id="g1083" transform="matrix(1.5258 0 0 .46611 -84.995 2.7183)" clip-path="url(#clipPath1085)" fill-rule="evenodd" stroke-linecap="round" stroke-linejoin="round" stroke-opacity=".63003" stroke-width="1.8898"><rect id="rect986" x="55.859" y="9.375" width="29.492" height="9.9609" fill="#5bcefa" style="paint-order:stroke fill markers"/><rect id="rect986-0" x="55.859" y="19.336" width="29.492" height="9.9609" fill="#f7dae6" style="paint-order:stroke fill markers"/><rect id="rect986-0-2" x="55.859" y="29.297" width="29.492" height="9.9609" fill="#f7afcf" style="paint-order:stroke fill markers"/><rect id="rect986-0-2-1" x="55.859" y="39.258" width="29.492" height="9.9609" fill="#f688b9" style="paint-order:stroke fill markers"/><rect id="rect986-4" transform="scale(1,-1)" x="55.859" y="-79.102" width="29.492" height="9.9609" fill="#5bcefa" style="paint-order:stroke fill markers"/><rect id="rect986-0-4" transform="scale(1,-1)" x="55.859" y="-69.141" width="29.492" height="9.9609" fill="#f7dae6" style="paint-order:stroke fill markers"/><rect id="rect986-0-2-18" transform="scale(1,-1)" x="55.859" y="-59.18" width="29.492" height="9.9609" fill="#f7afcf" style="paint-order:stroke fill markers"/></g></svg>
