<?xml version="1.0" encoding="UTF-8"?>
<svg id="svg2" enable-background="new 0 0 45 45" version="1.1" viewBox="0 0 45 45" xml:space="preserve" xmlns="http://www.w3.org/2000/svg" xmlns:cc="http://creativecommons.org/ns#" xmlns:dc="http://purl.org/dc/elements/1.1/" xmlns:rdf="http://www.w3.org/1999/02/22-rdf-syntax-ns#"><metadata id="metadata8"><rdf:RDF><cc:Work rdf:about=""><dc:format>image/svg+xml</dc:format><dc:type rdf:resource="http://purl.org/dc/dcmitype/StillImage"/><dc:title/></cc:Work></rdf:RDF></metadata><defs id="defs6"><clipPath id="clipPath1120"><path id="path1122" d="m45.237 12.791c0-3.1501-2.2376-5.7031-4.9989-5.7031h-35.002c-2.7613 0-4.9989 2.5531-4.9989 5.7031v21.797c0 2.7612 2.2376 5 4.9989 5h35.002c2.7613 0 4.9989-2.2388 4.9989-5v-10.482z" fill="#8a1e04"/></clipPath></defs><g id="g1118" clip-path="url(#clipPath1120)" fill-rule="evenodd" stroke-linecap="round" stroke-linejoin="round" stroke-opacity=".63003" stroke-width="1.5937"><rect id="rect986-0-2" x=".237" y="16.374" width="45" height="4.6429" fill="#99ecff" style="paint-order:stroke fill markers"/><rect id="rect986-0" x=".237" y="11.731" width="45" height="4.6429" fill="#ccf5ff" style="paint-order:stroke fill markers"/><rect id="rect986" x=".237" y="7.088" width="45" height="4.6429" fill="#ff8abe" style="paint-order:stroke fill markers"/><rect id="rect986-0-2-1" x=".237" y="21.017" width="45" height="4.6429" fill="#75dfff" style="paint-order:stroke fill markers"/><rect id="rect986-4" transform="scale(1,-1)" x=".237" y="-39.588" width="45" height="4.6429" fill="#ff8abe" style="paint-order:stroke fill markers"/><rect id="rect986-0-4" transform="scale(1,-1)" x=".237" y="-34.945" width="45" height="4.6429" fill="#ccf5ff" style="paint-order:stroke fill markers"/><rect id="rect986-0-2-18" transform="scale(1,-1)" x=".237" y="-30.302" width="45" height="4.6429" fill="#99ecff" style="paint-order:stroke fill markers"/></g></svg>
