<?xml version="1.0" encoding="UTF-8" standalone="no"?>
<svg
   xmlns:dc="http://purl.org/dc/elements/1.1/"
   xmlns:cc="http://creativecommons.org/ns#"
   xmlns:rdf="http://www.w3.org/1999/02/22-rdf-syntax-ns#"
   xmlns:svg="http://www.w3.org/2000/svg"
   xmlns="http://www.w3.org/2000/svg"
   xmlns:sodipodi="http://sodipodi.sourceforge.net/DTD/sodipodi-0.dtd"
   xmlns:inkscape="http://www.inkscape.org/namespaces/inkscape"
   inkscape:export-ydpi="1092.2667"
   inkscape:export-xdpi="1092.2667"
   inkscape:export-filename="F:\My Art\SVG &amp; SALES\MOREmoji\SET 2\svg\wip\twospirit.png"
   viewBox="0 0 45 45"
   style="enable-background:new 0 0 45 45;"
   xml:space="preserve"
   version="1.1"
   id="svg2"
   sodipodi:docname="twospirit.svg"
   inkscape:version="1.0.2 (e86c870, 2021-01-15)"><sodipodi:namedview
     inkscape:document-rotation="0"
     pagecolor="#ffffff"
     bordercolor="#666666"
     borderopacity="1"
     objecttolerance="10"
     gridtolerance="10"
     guidetolerance="10"
     inkscape:pageopacity="0"
     inkscape:pageshadow="2"
     inkscape:window-width="1920"
     inkscape:window-height="1027"
     id="namedview16"
     showgrid="false"
     inkscape:zoom="5.6568543"
     inkscape:cx="-37.429254"
     inkscape:cy="0.12516114"
     inkscape:window-x="-8"
     inkscape:window-y="-8"
     inkscape:window-maximized="1"
     inkscape:current-layer="svg2" /><metadata
     id="metadata8"><rdf:RDF><cc:Work
         rdf:about=""><dc:format>image/svg+xml</dc:format><dc:type
           rdf:resource="http://purl.org/dc/dcmitype/StillImage" /><dc:title></dc:title></cc:Work></rdf:RDF></metadata><defs
     id="defs6"><clipPath
       id="clipPath16-0"
       clipPathUnits="userSpaceOnUse"><path
         id="path18-1"
         d="M 0,36 36,36 36,0 0,0 0,36 Z" /></clipPath><clipPath
       id="clipPath16-4"
       clipPathUnits="userSpaceOnUse"><path
         inkscape:connector-curvature="0"
         id="path18-5"
         d="M 0,36 H 36 V 0 H 0 Z" /></clipPath><clipPath
       id="clipPath16-4-3"
       clipPathUnits="userSpaceOnUse"><path
         inkscape:connector-curvature="0"
         id="path18-5-1"
         d="M 0,36 H 36 V 0 H 0 Z" /></clipPath><clipPath
       id="clipPath16-1"
       clipPathUnits="userSpaceOnUse"><path
         inkscape:connector-curvature="0"
         id="path18-2"
         d="M 0,36 H 36 V 0 H 0 Z" /></clipPath><clipPath
       clipPathUnits="userSpaceOnUse"
       id="clipPath16-2"><path
         d="M 0,36 36,36 36,0 0,0 0,36 Z"
         id="path18-3" /></clipPath><clipPath
       clipPathUnits="userSpaceOnUse"
       id="clipPath16-40"><path
         d="M 4,31 C 1.791,31 0,29.209 0,27 V 27 9 C 0,6.791 1.791,5 4,5 v 0 h 28 c 2.209,0 4,1.791 4,4 v 0 18 c 0,2.209 -1.791,4 -4,4 v 0 z"
         id="path18-7" /></clipPath><clipPath
       clipPathUnits="userSpaceOnUse"
       id="clipPath18"><path
         d="M 0,36 36,36 36,0 0,0 0,36 Z"
         id="path20-5" /></clipPath><clipPath
       id="clipPath16"
       clipPathUnits="userSpaceOnUse"><path
         id="path18-4"
         d="M 0,36 36,36 36,0 0,0 0,36 Z" /></clipPath><clipPath
       id="clipPath16-9"
       clipPathUnits="userSpaceOnUse"><path
         inkscape:connector-curvature="0"
         id="path18-6"
         d="M 4,31 C 1.791,31 0,29.209 0,27 L 0,27 0,9 C 0,6.791 1.791,5 4,5 l 0,0 28,0 c 2.209,0 4,1.791 4,4 l 0,0 0,18 c 0,2.209 -1.791,4 -4,4 l 0,0 -28,0 z" /></clipPath><clipPath
       clipPathUnits="userSpaceOnUse"
       id="clipPath5047"><path
         style="fill:#5bcefa;fill-opacity:1;fill-rule:nonzero;stroke:none"
         d="m 25.204492,-54.863389 0,0.04687 0,2.453125 c 0,2.761254 2.232631,5.000004 4.98781,5.000004 l 34.924391,0 c 2.755183,0 4.987805,-2.23875 4.987805,-4.999999 l 0,-2.453125 0,-0.04687 0,-6.866211 0,-12.430661 c 0,-3.15007 -2.232622,-5.70313 -4.987805,-5.70313 l -34.924391,0 c -2.755179,0 -4.98781,2.55307 -4.98781,5.70312 l 0,12.430666 z"
         id="path5049"
         inkscape:connector-curvature="0"
         sodipodi:nodetypes="ccsssscccsssscc" /></clipPath><clipPath
       clipPathUnits="userSpaceOnUse"
       id="clipPath5116"><path
         sodipodi:nodetypes="ccsssscccsssscc"
         inkscape:connector-curvature="0"
         id="path5118"
         d="m -19.000001,-39.038681 0,0.04687 0,2.453125 c 0,2.761249 2.237602,4.999999 4.998918,4.999999 l 35.00217,0 c 2.761314,0 4.998914,-2.23875 4.998914,-4.999999 l 0,-2.453125 0,-0.04687 0,-6.866211 0,-12.430665 c 0,-3.15006 -2.2376,-5.703124 -4.998914,-5.703124 l -35.00217,0 c -2.761316,0 -4.998918,2.55307 -4.998918,5.703125 l 0,12.430665 z"
         style="fill:#333ebd;fill-opacity:1;fill-rule:nonzero;stroke:none" /></clipPath><clipPath
       clipPathUnits="userSpaceOnUse"
       id="clipPath5116-2"><path
         sodipodi:nodetypes="ccsssscccsssscc"
         inkscape:connector-curvature="0"
         id="path5118-6"
         d="m -19.000001,-39.038681 0,0.04687 0,2.453125 c 0,2.761249 2.237602,4.999999 4.998918,4.999999 l 35.00217,0 c 2.761314,0 4.998914,-2.23875 4.998914,-4.999999 l 0,-2.453125 0,-0.04687 0,-6.866211 0,-12.430665 c 0,-3.15006 -2.2376,-5.703124 -4.998914,-5.703124 l -35.00217,0 c -2.761316,0 -4.998918,2.55307 -4.998918,5.703125 l 0,12.430665 z"
         style="fill:#333ebd;fill-opacity:1;fill-rule:nonzero;stroke:none" /></clipPath><clipPath
       clipPathUnits="userSpaceOnUse"
       id="clipPath5250"><path
         sodipodi:nodetypes="ccsssscccsssscc"
         inkscape:connector-curvature="0"
         id="path5252"
         d="m -4.6455538,-44.034176 0,0.04687 0,2.453125 c 0,2.761249 2.2376019,4.999999 4.99891795,4.999999 l 35.00217185,0 c 2.76131,0 4.99891,-2.23875 4.99891,-4.999999 l 0,-2.453125 0,-0.04687 0,-6.866211 0,-12.430665 c 0,-3.15006 -2.2376,-5.703124 -4.99891,-5.703124 l -35.00217185,0 c -2.76131605,0 -4.99891805,2.55307 -4.99891805,5.703125 l 0,12.430665 z"
         style="fill:#000000;fill-opacity:1;fill-rule:nonzero;stroke:none" /></clipPath><clipPath
       clipPathUnits="userSpaceOnUse"
       id="clipPath5277"><path
         style="fill:#5bcefa;fill-opacity:1;fill-rule:nonzero;stroke:none"
         d="m 29.620147,-97.8367 0,0.0469 0,2.45313 c 0,2.76125 2.237602,5 4.998919,5 l 35.002168,0 c 2.761319,0 4.998913,-2.23875 4.998913,-5 l 0,-2.45312 0,-0.0469 0,-6.86621 0,-12.43067 c 0,-3.15006 -2.237594,-5.70313 -4.998913,-5.70313 l -35.002168,0 c -2.761317,0 -4.998919,2.55307 -4.998919,5.70313 l 0,12.43066 z"
         id="path5279"
         inkscape:connector-curvature="0"
         sodipodi:nodetypes="ccsssscccsssscc" /></clipPath><clipPath
       clipPathUnits="userSpaceOnUse"
       id="clipPath5277-8"><path
         style="fill:#5bcefa;fill-opacity:1;fill-rule:nonzero;stroke:none"
         d="m 29.620147,-97.8367 0,0.0469 0,2.45313 c 0,2.76125 2.237602,5 4.998919,5 l 35.002168,0 c 2.761319,0 4.998913,-2.23875 4.998913,-5 l 0,-2.45312 0,-0.0469 0,-6.86621 0,-12.43067 c 0,-3.15006 -2.237594,-5.70313 -4.998913,-5.70313 l -35.002168,0 c -2.761317,0 -4.998919,2.55307 -4.998919,5.70313 l 0,12.43066 z"
         id="path5279-0"
         inkscape:connector-curvature="0"
         sodipodi:nodetypes="ccsssscccsssscc" /></clipPath><clipPath
       clipPathUnits="userSpaceOnUse"
       id="clipPath5326"><path
         style="fill:#5bcefa;fill-opacity:1;fill-rule:nonzero;stroke:none"
         d="m 79.510932,-96.665226 0,0.0469 0,2.45313 c 0,2.76125 2.237602,5 4.998919,5 l 35.002169,0 c 2.76131,0 4.99891,-2.23875 4.99891,-5 l 0,-2.45312 0,-0.0469 0,-6.866204 0,-12.43067 c 0,-3.15006 -2.2376,-5.70313 -4.99891,-5.70313 l -35.002169,0 c -2.761317,0 -4.998919,2.55307 -4.998919,5.70313 l 0,12.43066 z"
         id="path5328"
         inkscape:connector-curvature="0"
         sodipodi:nodetypes="ccsssscccsssscc" /></clipPath><clipPath
       clipPathUnits="userSpaceOnUse"
       id="clipPath5250-2"><path
         sodipodi:nodetypes="ccsssscccsssscc"
         inkscape:connector-curvature="0"
         id="path5252-8"
         d="m -4.6455538,-44.034176 0,0.04687 0,2.453125 c 0,2.761249 2.2376019,4.999999 4.99891795,4.999999 l 35.00217185,0 c 2.76131,0 4.99891,-2.23875 4.99891,-4.999999 l 0,-2.453125 0,-0.04687 0,-6.866211 0,-12.430665 c 0,-3.15006 -2.2376,-5.703124 -4.99891,-5.703124 l -35.00217185,0 c -2.76131605,0 -4.99891805,2.55307 -4.99891805,5.703125 l 0,12.430665 z"
         style="fill:#000000;fill-opacity:1;fill-rule:nonzero;stroke:none" /></clipPath><clipPath
       clipPathUnits="userSpaceOnUse"
       id="clipPath5326-4"><path
         style="fill:#5bcefa;fill-opacity:1;fill-rule:nonzero;stroke:none"
         d="m 79.510932,-96.665226 0,0.0469 0,2.45313 c 0,2.76125 2.237602,5 4.998919,5 l 35.002169,0 c 2.76131,0 4.99891,-2.23875 4.99891,-5 l 0,-2.45312 0,-0.0469 0,-6.866204 0,-12.43067 c 0,-3.15006 -2.2376,-5.70313 -4.99891,-5.70313 l -35.002169,0 c -2.761317,0 -4.998919,2.55307 -4.998919,5.70313 l 0,12.43066 z"
         id="path5328-4"
         inkscape:connector-curvature="0"
         sodipodi:nodetypes="ccsssscccsssscc" /></clipPath><clipPath
       clipPathUnits="userSpaceOnUse"
       id="clipPath5277-0"><path
         style="fill:#5bcefa;fill-opacity:1;fill-rule:nonzero;stroke:none"
         d="m 29.620147,-97.8367 0,0.0469 0,2.45313 c 0,2.76125 2.237602,5 4.998919,5 l 35.002168,0 c 2.761319,0 4.998913,-2.23875 4.998913,-5 l 0,-2.45312 0,-0.0469 0,-6.86621 0,-12.43067 c 0,-3.15006 -2.237594,-5.70313 -4.998913,-5.70313 l -35.002168,0 c -2.761317,0 -4.998919,2.55307 -4.998919,5.70313 l 0,12.43066 z"
         id="path5279-01"
         inkscape:connector-curvature="0"
         sodipodi:nodetypes="ccsssscccsssscc" /></clipPath><clipPath
       clipPathUnits="userSpaceOnUse"
       id="clipPath5472"><path
         style="fill:#5bcefa;fill-opacity:1;fill-rule:nonzero;stroke:none"
         d="m 50.32685,-59.917429 0,0.0469 0,2.45313 c 0,2.76125 2.2376,5 4.99891,5 l 35.00217,0 c 2.76132,0 4.99892,-2.23875 4.99892,-5 l 0,-2.45312 0,-0.0469 0,-6.866211 0,-12.430671 c 0,-3.15006 -2.2376,-5.70313 -4.99892,-5.70313 l -35.00217,0 c -2.76131,0 -4.99891,2.55307 -4.99891,5.70313 l 0,12.43066 z"
         id="path5474"
         inkscape:connector-curvature="0"
         sodipodi:nodetypes="ccsssscccsssscc" /></clipPath><clipPath
       clipPathUnits="userSpaceOnUse"
       id="clipPath5472-9"><path
         style="fill:#5bcefa;fill-opacity:1;fill-rule:nonzero;stroke:none"
         d="m 50.32685,-59.917429 0,0.0469 0,2.45313 c 0,2.76125 2.2376,5 4.99891,5 l 35.00217,0 c 2.76132,0 4.99892,-2.23875 4.99892,-5 l 0,-2.45312 0,-0.0469 0,-6.866211 0,-12.430671 c 0,-3.15006 -2.2376,-5.70313 -4.99892,-5.70313 l -35.00217,0 c -2.76131,0 -4.99891,2.55307 -4.99891,5.70313 l 0,12.43066 z"
         id="path5474-1"
         inkscape:connector-curvature="0"
         sodipodi:nodetypes="ccsssscccsssscc" /></clipPath><clipPath
       clipPathUnits="userSpaceOnUse"
       id="clipPath5277-9"><path
         style="fill:#5bcefa;fill-opacity:1;fill-rule:nonzero;stroke:none"
         d="m 29.620147,-97.8367 0,0.0469 0,2.45313 c 0,2.76125 2.237602,5 4.998919,5 l 35.002168,0 c 2.761319,0 4.998913,-2.23875 4.998913,-5 l 0,-2.45312 0,-0.0469 0,-6.86621 0,-12.43067 c 0,-3.15006 -2.237594,-5.70313 -4.998913,-5.70313 l -35.002168,0 c -2.761317,0 -4.998919,2.55307 -4.998919,5.70313 l 0,12.43066 z"
         id="path5279-012"
         inkscape:connector-curvature="0"
         sodipodi:nodetypes="ccsssscccsssscc" /></clipPath><clipPath
       clipPathUnits="userSpaceOnUse"
       id="clipPath5666"><path
         style="fill:#5bcefa;fill-opacity:1;fill-rule:nonzero;stroke:none"
         d="m -45.480969,-1.7578976 0,0.0469 0,2.45312999 c 0,2.76125001 2.237602,5.00000001 4.998919,5.00000001 l 35.0021693,0 c 2.7613201,0 4.9989101,-2.23875 4.9989101,-5.00000001 l 0,-2.45311999 0,-0.0469 0,-6.866211 0,-12.4306694 c 0,-3.15006 -2.23759,-5.70313 -4.9989101,-5.70313 l -35.0021693,0 c -2.761317,0 -4.998919,2.55307 -4.998919,5.70313 l 0,12.4306594 z"
         id="path5668"
         inkscape:connector-curvature="0"
         sodipodi:nodetypes="ccsssscccsssscc" /></clipPath><clipPath
       clipPathUnits="userSpaceOnUse"
       id="clipPath5277-3"><path
         style="fill:#5bcefa;fill-opacity:1;fill-rule:nonzero;stroke:none"
         d="m 29.620147,-97.8367 0,0.0469 0,2.45313 c 0,2.76125 2.237602,5 4.998919,5 l 35.002168,0 c 2.761319,0 4.998913,-2.23875 4.998913,-5 l 0,-2.45312 0,-0.0469 0,-6.86621 0,-12.43067 c 0,-3.15006 -2.237594,-5.70313 -4.998913,-5.70313 l -35.002168,0 c -2.761317,0 -4.998919,2.55307 -4.998919,5.70313 l 0,12.43066 z"
         id="path5279-7"
         inkscape:connector-curvature="0"
         sodipodi:nodetypes="ccsssscccsssscc" /></clipPath><clipPath
       clipPathUnits="userSpaceOnUse"
       id="clipPath5742"><path
         style="fill:#5bcefa;fill-opacity:1;fill-rule:nonzero;stroke:none"
         d="m 85.499998,4.249988 0,0.0469 0,2.45313 c 0,2.76125 2.2376,5 4.99892,5 l 35.002162,0 c 2.76132,0 4.99892,-2.23875 4.99892,-5 l 0,-2.45312 0,-0.0469 0,-6.866211 0,-12.430672 c 0,-3.15006 -2.2376,-5.70313 -4.99892,-5.70313 l -35.002162,0 c -2.76132,0 -4.99892,2.55307 -4.99892,5.70313 l 0,12.430662 z"
         id="path5744"
         inkscape:connector-curvature="0"
         sodipodi:nodetypes="ccsssscccsssscc" /></clipPath><clipPath
       clipPathUnits="userSpaceOnUse"
       id="clipPath5774"><path
         style="fill:#5bcefa;fill-opacity:1;fill-rule:nonzero;stroke:none"
         d="m 92.581629,10.908983 0,0.0469 0,2.45313 c 0,2.76125 2.2376,5 4.99892,5 l 35.002161,0 c 2.76132,0 4.99892,-2.23875 4.99892,-5 l 0,-2.45312 0,-0.0469 0,-6.8662117 0,-12.43067 c 0,-3.1500593 -2.2376,-5.7031293 -4.99892,-5.7031293 l -35.002161,0 c -2.76132,0 -4.99892,2.55307 -4.99892,5.7031293 l 0,12.43066 z"
         id="path5776"
         inkscape:connector-curvature="0"
         sodipodi:nodetypes="ccsssscccsssscc" /></clipPath><clipPath
       clipPathUnits="userSpaceOnUse"
       id="clipPath5277-1"><path
         style="fill:#5bcefa;fill-opacity:1;fill-rule:nonzero;stroke:none"
         d="m 29.620147,-97.8367 0,0.0469 0,2.45313 c 0,2.76125 2.237602,5 4.998919,5 l 35.002168,0 c 2.761319,0 4.998913,-2.23875 4.998913,-5 l 0,-2.45312 0,-0.0469 0,-6.86621 0,-12.43067 c 0,-3.15006 -2.237594,-5.70313 -4.998913,-5.70313 l -35.002168,0 c -2.761317,0 -4.998919,2.55307 -4.998919,5.70313 l 0,12.43066 z"
         id="path5279-9"
         inkscape:connector-curvature="0"
         sodipodi:nodetypes="ccsssscccsssscc" /></clipPath><clipPath
       clipPathUnits="userSpaceOnUse"
       id="clipPath5326-5"><path
         style="fill:#5bcefa;fill-opacity:1;fill-rule:nonzero;stroke:none"
         d="m 79.510932,-96.665226 0,0.0469 0,2.45313 c 0,2.76125 2.237602,5 4.998919,5 l 35.002169,0 c 2.76131,0 4.99891,-2.23875 4.99891,-5 l 0,-2.45312 0,-0.0469 0,-6.866204 0,-12.43067 c 0,-3.15006 -2.2376,-5.70313 -4.99891,-5.70313 l -35.002169,0 c -2.761317,0 -4.998919,2.55307 -4.998919,5.70313 l 0,12.43066 z"
         id="path5328-8"
         inkscape:connector-curvature="0"
         sodipodi:nodetypes="ccsssscccsssscc" /></clipPath><clipPath
       clipPathUnits="userSpaceOnUse"
       id="clipPath5885"><path
         style="fill:#5bcefa;fill-opacity:1;fill-rule:nonzero;stroke:none"
         d="m 66.241905,48.800236 0,0.0469 0,2.45313 c 0,2.76125 2.2376,5 4.99892,5 l 35.002165,0 c 2.76132,0 4.99892,-2.23875 4.99892,-5 l 0,-2.45312 0,-0.0469 0,-6.866211 0,-12.43067 c 0,-3.15006 -2.2376,-5.70313 -4.99892,-5.70313 l -35.002165,0 c -2.76132,0 -4.99892,2.55307 -4.99892,5.70313 l 0,12.43066 z"
         id="path5887"
         inkscape:connector-curvature="0"
         sodipodi:nodetypes="ccsssscccsssscc" /></clipPath><clipPath
       clipPathUnits="userSpaceOnUse"
       id="clipPath5774-5"><path
         style="fill:#5bcefa;fill-opacity:1;fill-rule:nonzero;stroke:none"
         d="m 92.581629,10.908983 0,0.0469 0,2.45313 c 0,2.76125 2.2376,5 4.99892,5 l 35.002161,0 c 2.76132,0 4.99892,-2.23875 4.99892,-5 l 0,-2.45312 0,-0.0469 0,-6.8662117 0,-12.43067 c 0,-3.1500593 -2.2376,-5.7031293 -4.99892,-5.7031293 l -35.002161,0 c -2.76132,0 -4.99892,2.55307 -4.99892,5.7031293 l 0,12.43066 z"
         id="path5776-6"
         inkscape:connector-curvature="0"
         sodipodi:nodetypes="ccsssscccsssscc" /></clipPath><clipPath
       clipPathUnits="userSpaceOnUse"
       id="clipPath1355"><path
         id="path1357"
         d="m 3.9999988,31 c -2.209,0 -4,-1.791 -4,-4 V 27 9 c 0,-2.209 1.791,-4 4,-4 V 5 H 31.999999 c 2.209002,0 4.000002,1.791 4.000002,4 v 0 18 c 0,2.209 -1.791,4 -4.000002,4 v 0 z"
         style="stroke-width:1" /></clipPath><clipPath
       clipPathUnits="userSpaceOnUse"
       id="clipPath1449"><g
         id="g1457"
         transform="matrix(1.25,0,0,-1.25,8,45)"><g
           id="g1455"><g
             id="g1453"
             clip-path="url(#clipPath16-40)"><path
               transform="matrix(0.8,0,0,-0.8,0,36)"
               d="M 0,6.25 V 11.662109 17.087891 22.5 27.912109 33.125 33.337891 38.75 H 45 V 33.337891 33.125 27.587891 22.287109 16.875 11.462891 6.25 Z"
               style="fill:#880082;fill-opacity:1;fill-rule:nonzero;stroke:none;stroke-width:1.25"
               id="path1451" /></g></g></g></clipPath></defs><g
     id="g20"
     transform="matrix(1.25,0,0,-1.4260104,-13.601191,123.3904)" /><g
     id="g2183"><g
       clip-path="url(#clipPath1355)"
       id="g14"
       transform="matrix(1.25,0,0,-1.25,0,45)"
       inkscape:export-xdpi="1092.2667"
       inkscape:export-ydpi="1092.2667"><path
         id="path20"
         style="fill:#880082;fill-opacity:1;fill-rule:nonzero;stroke:none"
         d="M 36,9.5 H 0 V 5 h 36 z" /><path
         id="path22"
         style="fill:#3558a0;fill-opacity:1;fill-rule:nonzero;stroke:none"
         d="M 36,13.93 H 0 v -4.6 h 36 z" /><path
         id="path24"
         style="fill:#138f3e;fill-opacity:1;fill-rule:nonzero;stroke:none"
         d="M 36,18.17 H 0 v -4.5 h 36 z" /><path
         id="path26"
         style="fill:#fad220;fill-opacity:1;fill-rule:nonzero;stroke:none"
         d="M 36,22.5 H 0 V 18 h 36 z" /><path
         id="path28"
         style="fill:#ff5000;fill-opacity:1;fill-rule:nonzero;stroke:none"
         d="M 36,26.83 H 0 v -4.5 h 36 z" /><path
         id="path30"
         style="fill:#ff000e;fill-opacity:1;fill-rule:nonzero;stroke:none"
         d="M 36,31 H 0 v -4.33 h 36 z" /></g><path
       style="fill:#ffffff;fill-opacity:1;stroke:none;stroke-width:0.0468809"
       d="m 15.364483,34.490284 c -0.136516,-0.108759 -0.589042,-1.026407 -0.759275,-1.53966 -0.559065,-1.685593 -0.461883,-4.059437 0.282127,-6.89148 0.279522,-1.063988 0.981401,-3.094441 1.214948,-3.514698 0.03624,-0.06522 0.241255,-0.498301 0.455589,-0.96242 0.817323,-1.769829 2.044239,-3.735508 2.748743,-4.403849 0.18009,-0.170836 0.181546,-0.241653 0.0087,-0.422644 -0.518638,-0.54306 -0.861978,-1.797459 -0.753436,-2.752703 0.340495,-2.996588 3.697017,-4.5400779 6.192895,-2.847792 1.813907,1.229889 2.267781,3.876002 0.958941,5.590676 -0.206931,0.271096 -0.220214,0.204639 0.126094,0.630835 0.417663,0.514012 0.811804,1.07187 1.215783,1.720793 0.631635,1.014614 0.854164,1.439609 1.865581,3.562943 0.681765,1.43127 1.421934,3.947153 1.661971,5.649138 0.335148,2.376386 0.187281,3.739529 -0.567027,5.227211 -0.298266,0.588253 -0.252704,0.554795 -0.718291,0.527486 -1.196537,-0.07019 -2.359194,-1.099544 -3.481642,-3.082489 -0.966728,-1.707845 -2.209851,-4.500159 -3.035106,-6.817481 -0.155387,-0.436313 -0.291555,-0.802338 -0.302605,-0.81339 -0.03601,-0.03601 -0.120098,0.04001 -0.120098,0.108618 0,0.264927 -1.180979,3.517569 -1.837566,5.061012 -1.42073,3.339709 -2.435313,4.903795 -3.657207,5.637965 -0.506488,0.304322 -1.31036,0.482314 -1.499113,0.331932 z"
       id="path2130-7"
       sodipodi:nodetypes="sssssccsssssssscsccsssss" /><path
       style="fill:#050505;stroke:none;stroke-width:0.0468809"
       d="m 15.364489,34.490287 c -0.136516,-0.108759 -0.589042,-1.026407 -0.759275,-1.53966 -0.559065,-1.685593 -0.461883,-4.059437 0.282127,-6.89148 0.279522,-1.063988 0.981401,-3.094441 1.214948,-3.514698 0.03624,-0.06522 0.241255,-0.498301 0.455589,-0.96242 0.817323,-1.769829 2.044239,-3.735508 2.748743,-4.403849 0.18009,-0.170836 0.181546,-0.241653 0.0087,-0.422644 -0.518638,-0.543059 -0.861978,-1.797458 -0.753436,-2.752702 0.340495,-2.996588 3.697017,-4.5400783 6.192895,-2.847792 1.813907,1.229889 2.267781,3.876002 0.958941,5.590675 -0.206931,0.271096 -0.220214,0.204639 0.126094,0.630835 0.417663,0.514012 0.811804,1.07187 1.215783,1.720793 0.631635,1.014614 0.854164,1.439609 1.865581,3.562943 0.681765,1.43127 1.421934,3.947153 1.661971,5.649138 0.335148,2.376386 0.187281,3.739529 -0.567027,5.227211 -0.298266,0.588253 -0.252704,0.554795 -0.718291,0.527486 -1.196537,-0.07019 -2.359194,-1.099544 -3.481642,-3.082489 -0.966728,-1.707845 -2.209851,-4.500159 -3.035106,-6.817481 -0.155387,-0.436313 -0.291555,-0.802338 -0.302605,-0.81339 -0.03601,-0.03601 -0.120098,0.04001 -0.120098,0.108618 0,0.264927 -1.180979,3.517569 -1.837566,5.061012 -1.42073,3.339709 -2.435313,4.903795 -3.657207,5.637965 -0.506488,0.304322 -1.31036,0.482314 -1.499113,0.331932 z m 1.16801,-2.910924 c 0.02513,-0.03224 0.07138,-0.280113 0.102778,-0.550849 0.09487,-0.818096 0.781671,-4.215965 0.870028,-4.304322 0.01341,-0.01341 0.122673,0.07558 0.242966,0.197596 0.504597,0.511829 1.310143,0.714136 2.362562,0.593346 0.628151,-0.07209 0.648459,-0.08726 0.861022,-0.643204 1.482043,-3.876163 2.333954,-7.329097 2.138351,-8.667093 -0.152636,-1.044059 -0.481768,-1.825959 -0.848445,-2.015575 -0.205397,-0.106215 -0.286745,-0.0391 -0.674001,0.556114 -1.667765,2.56334 -3.146728,5.904091 -3.853437,8.704321 -0.251737,0.997466 -0.24134,0.966587 -0.304251,0.903675 -0.111016,-0.111017 0.554715,-2.424078 1.130376,-3.927489 0.699005,-1.825539 1.911844,-4.223343 2.9292,-5.791085 0.351054,-0.540975 0.356746,-0.608147 0.05153,-0.608147 -1.672475,0 -4.239063,3.568746 -5.849724,8.133823 -0.273491,0.775154 -0.599617,1.870646 -0.599617,2.014181 0,0.408121 0.947101,0.66514 1.740458,0.472314 0.181434,-0.0441 0.339796,-0.07026 0.351913,-0.05814 0.01216,0.01217 -0.01998,0.187975 -0.07134,0.390789 -0.288658,1.140146 -0.716814,3.360586 -0.822825,4.267204 -0.03543,0.302956 0.109958,0.502388 0.242431,0.332547 z M 28.68699,31.146069 c 0.124507,-0.150025 -0.23339,-2.019541 -0.801956,-4.189115 -0.10372,-0.395769 -0.176494,-0.731664 -0.161718,-0.746432 0.01481,-0.01482 0.16103,-0.0021 0.325015,0.0281 0.697279,0.128475 1.238633,0.03709 1.581243,-0.266958 l 0.204159,-0.181174 -0.179332,-0.580599 c -0.716197,-2.318731 -2.073985,-5.122829 -3.35521,-6.929164 -1.088011,-1.533933 -2.229146,-2.462378 -3.103341,-2.524926 -0.446397,-0.03194 -0.444729,0.0044 0.03308,0.719348 1.798825,2.69185 3.297963,5.887797 4.053968,8.642476 0.195853,0.713636 0.219777,0.867014 0.130609,0.837291 -0.03017,-0.01007 -0.114684,-0.249151 -0.187779,-0.531316 -0.639695,-2.469284 -1.875919,-5.268841 -3.482357,-7.886151 -0.832945,-1.357089 -1.134671,-1.737458 -1.321393,-1.665807 -0.10236,0.03927 -0.07558,0.108106 0.127928,0.328879 0.24422,0.264948 0.433997,0.671693 0.587745,1.259706 0.290546,1.111195 0.16544,2.453888 -0.438563,4.706815 l -0.169407,0.631886 0.244996,0.727657 c 0.528329,1.569168 1.329918,3.546444 1.453656,3.585715 0.04429,0.01411 0.293637,0.04587 0.554077,0.07069 1.036201,0.09872 1.915424,-0.140132 2.355322,-0.639882 0.09811,-0.111457 0.200239,-0.202659 0.226947,-0.202659 0.09852,0 0.947796,3.671298 1.022951,4.421997 0.03963,0.395799 0.160608,0.550833 0.29936,0.38364 z M 20.096353,16.474535 c 0.386057,-0.290425 0.817711,-0.509641 1.160322,-0.589269 0.389408,-0.09051 0.382861,-0.08356 0.219456,-0.232805 -0.288232,-0.263261 -0.06363,-0.515669 0.40207,-0.451837 0.147186,0.02017 0.208992,0.01039 0.226748,-0.03587 0.0134,-0.03499 -0.242918,-0.471715 -0.569649,-0.970514 -0.665825,-1.016471 -0.668554,-1.021536 -0.580033,-1.076247 0.0998,-0.06167 0.148404,0.0012 0.758304,0.981441 0.573396,0.921535 0.632551,1.002709 0.700233,0.96088 0.02005,-0.01235 0.260643,-0.401428 0.534638,-0.864519 0.535898,-0.905744 0.557326,-0.932947 0.656658,-0.833616 0.05636,0.05636 0.0057,0.162036 -0.356105,0.742548 -0.48063,0.771216 -0.485109,0.785889 -0.246009,0.805678 0.165386,0.01376 0.17665,0.02471 0.190102,0.186126 0.0106,0.127734 -0.01164,0.195698 -0.08703,0.265974 -0.117505,0.109464 -0.08648,0.195341 0.07056,0.195341 0.384759,0 1.169962,0.398685 1.745783,0.886416 0.40084,0.339521 0.43815,0.344755 0.615385,0.08636 1.4064,-2.050434 0.467322,-4.808543 -1.913629,-5.620409 -1.11838,-0.381348 -2.502167,-0.116483 -3.456285,0.661547 -1.446624,1.179647 -1.776434,3.297885 -0.757083,4.862443 0.234371,0.359728 0.259066,0.361181 0.685563,0.04033 z m -0.400548,-1.019707 c -0.144436,-0.235834 -0.207014,-0.528161 -0.166674,-0.778543 l 0.03546,-0.220141 0.03342,0.283016 c 0.01837,0.155652 0.07582,0.408616 0.127645,0.562131 0.110064,0.326005 0.101815,0.368491 -0.02984,0.153536 z m 1.199375,-0.0725 c -0.118336,-0.135653 -0.17787,-0.279374 -0.173605,-0.419132 0.0033,-0.110769 0.02642,-0.08402 0.143183,0.166285 0.144083,0.308879 0.154453,0.395016 0.03042,0.252853 z m 4.472763,-0.785541 c -0.01605,-0.359729 -0.172353,-1.047658 -0.306679,-1.349438 -0.136993,-0.307744 -0.09648,-0.319417 0.07568,-0.0218 0.212549,0.367457 0.273582,0.638963 0.256837,1.142544 -0.0085,0.254707 -0.02009,0.357621 -0.02584,0.228698 z m -3.548698,-2.12141 c 0.131915,-0.12874 0.590408,-0.190944 0.796975,-0.108125 0.06506,0.02608 -0.02104,0.04774 -0.281286,0.07074 -0.206274,0.01823 -0.417239,0.04439 -0.468809,0.05814 -0.06144,0.0164 -0.07759,0.0092 -0.04688,-0.02076 z m 1.66427,-1.039461 c -0.340071,-0.06047 -0.419785,-0.08784 -0.337161,-0.115742 0.149762,-0.05056 0.515312,0.0077 0.712208,0.113714 0.193045,0.103838 0.197447,0.103817 -0.375047,0.0019 z"
       id="path2130" /></g></svg>
