<?xml version="1.0" encoding="UTF-8"?>
<svg id="svg2" enable-background="new 0 0 45 45" version="1.1" viewBox="0 0 45 45" xml:space="preserve" xmlns="http://www.w3.org/2000/svg" xmlns:cc="http://creativecommons.org/ns#" xmlns:dc="http://purl.org/dc/elements/1.1/" xmlns:rdf="http://www.w3.org/1999/02/22-rdf-syntax-ns#"><metadata id="metadata8"><rdf:RDF><cc:Work rdf:about=""><dc:format>image/svg+xml</dc:format><dc:type rdf:resource="http://purl.org/dc/dcmitype/StillImage"/><dc:title/></cc:Work></rdf:RDF></metadata><defs id="defs6"><clipPath id="clipPath1355"><path id="path1357" d="m4 31c-2.209 0-4-1.791-4-4v-18c0-2.209 1.791-4 4-4h28c2.209 0 4 1.791 4 4v18c0 2.209-1.791 4-4 4z"/></clipPath></defs><g id="g2183"><g id="g14" transform="matrix(1.25,0,0,-1.25,0,45)" clip-path="url(#clipPath1355)"><path id="path20" d="m36 9.5h-36v-4.5h36z" fill="#880082"/><path id="path22" d="m36 13.93h-36v-4.6h36z" fill="#3558a0"/><path id="path24" d="m36 18.17h-36v-4.5h36z" fill="#138f3e"/><path id="path26" d="m36 22.5h-36v-4.5h36z" fill="#fad220"/><path id="path28" d="m36 26.83h-36v-4.5h36z" fill="#ff5000"/><path id="path30" d="m36 31h-36v-4.33h36z" fill="#ff000e"/></g><path id="path2130-7" d="m15.364 34.49c-0.13652-0.10876-0.58904-1.0264-0.75928-1.5397-0.55906-1.6856-0.46188-4.0594 0.28213-6.8915 0.27952-1.064 0.9814-3.0944 1.2149-3.5147 0.03624-0.06522 0.24126-0.4983 0.45559-0.96242 0.81732-1.7698 2.0442-3.7355 2.7487-4.4038 0.18009-0.17084 0.18155-0.24165 0.0087-0.42264-0.51864-0.54306-0.86198-1.7975-0.75344-2.7527 0.3405-2.9966 3.697-4.5401 6.1929-2.8478 1.8139 1.2299 2.2678 3.876 0.95894 5.5907-0.20693 0.2711-0.22021 0.20464 0.12609 0.63084 0.41766 0.51401 0.8118 1.0719 1.2158 1.7208 0.63164 1.0146 0.85416 1.4396 1.8656 3.5629 0.68176 1.4313 1.4219 3.9472 1.662 5.6491 0.33515 2.3764 0.18728 3.7395-0.56703 5.2272-0.29827 0.58825-0.2527 0.5548-0.71829 0.52749-1.1965-0.07019-2.3592-1.0995-3.4816-3.0825-0.96673-1.7078-2.2099-4.5002-3.0351-6.8175-0.15539-0.43631-0.29156-0.80234-0.3026-0.81339-0.03601-0.03601-0.1201 0.04001-0.1201 0.10862 0 0.26493-1.181 3.5176-1.8376 5.061-1.4207 3.3397-2.4353 4.9038-3.6572 5.638-0.50649 0.30432-1.3104 0.48231-1.4991 0.33193z" fill="#fff"/><path id="path2130" d="m15.364 34.49c-0.13652-0.10876-0.58904-1.0264-0.75928-1.5397-0.55906-1.6856-0.46188-4.0594 0.28213-6.8915 0.27952-1.064 0.9814-3.0944 1.2149-3.5147 0.03624-0.06522 0.24126-0.4983 0.45559-0.96242 0.81732-1.7698 2.0442-3.7355 2.7487-4.4038 0.18009-0.17084 0.18155-0.24165 0.0087-0.42264-0.51864-0.54306-0.86198-1.7975-0.75344-2.7527 0.3405-2.9966 3.697-4.5401 6.1929-2.8478 1.8139 1.2299 2.2678 3.876 0.95894 5.5907-0.20693 0.2711-0.22021 0.20464 0.12609 0.63084 0.41766 0.51401 0.8118 1.0719 1.2158 1.7208 0.63164 1.0146 0.85416 1.4396 1.8656 3.5629 0.68176 1.4313 1.4219 3.9472 1.662 5.6491 0.33515 2.3764 0.18728 3.7395-0.56703 5.2272-0.29827 0.58825-0.2527 0.5548-0.71829 0.52749-1.1965-0.07019-2.3592-1.0995-3.4816-3.0825-0.96673-1.7078-2.2099-4.5002-3.0351-6.8175-0.15539-0.43631-0.29156-0.80234-0.3026-0.81339-0.03601-0.03601-0.1201 0.04001-0.1201 0.10862 0 0.26493-1.181 3.5176-1.8376 5.061-1.4207 3.3397-2.4353 4.9038-3.6572 5.638-0.50649 0.30432-1.3104 0.48231-1.4991 0.33193zm1.168-2.9109c0.02513-0.03224 0.07138-0.28011 0.10278-0.55085 0.09487-0.8181 0.78167-4.216 0.87003-4.3043 0.01341-0.01341 0.12267 0.07558 0.24297 0.1976 0.5046 0.51183 1.3101 0.71414 2.3626 0.59335 0.62815-0.07209 0.64846-0.08726 0.86102-0.6432 1.482-3.8762 2.334-7.3291 2.1384-8.6671-0.15264-1.0441-0.48177-1.826-0.84844-2.0156-0.2054-0.10622-0.28674-0.0391-0.674 0.55611-1.6678 2.5633-3.1467 5.9041-3.8534 8.7043-0.25174 0.99747-0.24134 0.96659-0.30425 0.90368-0.11102-0.11102 0.55472-2.4241 1.1304-3.9275 0.699-1.8255 1.9118-4.2233 2.9292-5.7911 0.35105-0.54098 0.35675-0.60815 0.05153-0.60815-1.6725 0-4.2391 3.5687-5.8497 8.1338-0.27349 0.77515-0.59962 1.8706-0.59962 2.0142 0 0.40812 0.9471 0.66514 1.7405 0.47231 0.18143-0.0441 0.3398-0.07026 0.35191-0.05814 0.01216 0.01217-0.01998 0.18798-0.07134 0.39079-0.28866 1.1401-0.71681 3.3606-0.82282 4.2672-0.03543 0.30296 0.10996 0.50239 0.24243 0.33255zm12.154-0.43329c0.12451-0.15002-0.23339-2.0195-0.80196-4.1891-0.10372-0.39577-0.17649-0.73166-0.16172-0.74643 0.01481-0.01482 0.16103-0.0021 0.32502 0.0281 0.69728 0.12848 1.2386 0.03709 1.5812-0.26696l0.20416-0.18117-0.17933-0.5806c-0.7162-2.3187-2.074-5.1228-3.3552-6.9292-1.088-1.5339-2.2291-2.4624-3.1033-2.5249-0.4464-0.03194-0.44473 0.0044 0.03308 0.71935 1.7988 2.6918 3.298 5.8878 4.054 8.6425 0.19585 0.71364 0.21978 0.86701 0.13061 0.83729-0.03017-0.01007-0.11468-0.24915-0.18778-0.53132-0.6397-2.4693-1.8759-5.2688-3.4824-7.8862-0.83294-1.3571-1.1347-1.7375-1.3214-1.6658-0.10236 0.03927-0.07558 0.10811 0.12793 0.32888 0.24422 0.26495 0.434 0.67169 0.58774 1.2597 0.29055 1.1112 0.16544 2.4539-0.43856 4.7068l-0.16941 0.63189 0.245 0.72766c0.52833 1.5692 1.3299 3.5464 1.4537 3.5857 0.04429 0.01411 0.29364 0.04587 0.55408 0.07069 1.0362 0.09872 1.9154-0.14013 2.3553-0.63988 0.09811-0.11146 0.20024-0.20266 0.22695-0.20266 0.09852 0 0.9478 3.6713 1.023 4.422 0.03963 0.3958 0.16061 0.55083 0.29936 0.38364zm-8.5906-14.672c0.38606-0.29042 0.81771-0.50964 1.1603-0.58927 0.38941-0.09051 0.38286-0.08356 0.21946-0.2328-0.28823-0.26326-0.06363-0.51567 0.40207-0.45184 0.14719 0.02017 0.20899 0.01039 0.22675-0.03587 0.0134-0.03499-0.24292-0.47172-0.56965-0.97051-0.66582-1.0165-0.66855-1.0215-0.58003-1.0762 0.0998-0.06167 0.1484 0.0012 0.7583 0.98144 0.5734 0.92154 0.63255 1.0027 0.70023 0.96088 0.02005-0.01235 0.26064-0.40143 0.53464-0.86452 0.5359-0.90574 0.55733-0.93295 0.65666-0.83362 0.05636 0.05636 0.0057 0.16204-0.3561 0.74255-0.48063 0.77122-0.48511 0.78589-0.24601 0.80568 0.16539 0.01376 0.17665 0.02471 0.1901 0.18613 0.0106 0.12773-0.01164 0.1957-0.08703 0.26597-0.1175 0.10946-0.08648 0.19534 0.07056 0.19534 0.38476 0 1.17 0.39868 1.7458 0.88642 0.40084 0.33952 0.43815 0.34476 0.61538 0.08636 1.4064-2.0504 0.46732-4.8085-1.9136-5.6204-1.1184-0.38135-2.5022-0.11648-3.4563 0.66155-1.4466 1.1796-1.7764 3.2979-0.75708 4.8624 0.23437 0.35973 0.25907 0.36118 0.68556 0.04033zm-0.40055-1.0197c-0.14444-0.23583-0.20701-0.52816-0.16667-0.77854l0.03546-0.22014 0.03342 0.28302c0.01837 0.15565 0.07582 0.40862 0.12764 0.56213 0.11006 0.326 0.10182 0.36849-0.02984 0.15354zm1.1994-0.0725c-0.11834-0.13565-0.17787-0.27937-0.1736-0.41913 0.0033-0.11077 0.02642-0.08402 0.14318 0.16628 0.14408 0.30888 0.15445 0.39502 0.03042 0.25285zm4.4728-0.78554c-0.01605-0.35973-0.17235-1.0477-0.30668-1.3494-0.13699-0.30774-0.09648-0.31942 0.07568-0.0218 0.21255 0.36746 0.27358 0.63896 0.25684 1.1425-0.0085 0.25471-0.02009 0.35762-0.02584 0.2287zm-3.5487-2.1214c0.13192-0.12874 0.59041-0.19094 0.79698-0.10812 0.06506 0.02608-0.02104 0.04774-0.28129 0.07074-0.20627 0.01823-0.41724 0.04439-0.46881 0.05814-0.06144 0.0164-0.07759 0.0092-0.04688-0.02076zm1.6643-1.0395c-0.34007-0.06047-0.41978-0.08784-0.33716-0.11574 0.14976-0.05056 0.51531 0.0077 0.71221 0.11371 0.19304 0.10384 0.19745 0.10382-0.37505 0.0019z" fill="#050505"/></g></svg>
