<?xml version="1.0" encoding="UTF-8" standalone="no"?>
<svg
   xmlns:dc="http://purl.org/dc/elements/1.1/"
   xmlns:cc="http://creativecommons.org/ns#"
   xmlns:rdf="http://www.w3.org/1999/02/22-rdf-syntax-ns#"
   xmlns:svg="http://www.w3.org/2000/svg"
   xmlns="http://www.w3.org/2000/svg"
   xmlns:sodipodi="http://sodipodi.sourceforge.net/DTD/sodipodi-0.dtd"
   xmlns:inkscape="http://www.inkscape.org/namespaces/inkscape"
   viewBox="0 0 45 45"
   style="enable-background:new 0 0 45 45;"
   xml:space="preserve"
   version="1.1"
   id="svg2"
   inkscape:version="1.0.2 (e86c870, 2021-01-15)"
   sodipodi:docname="xenogender.svg"
   inkscape:export-filename="C:\Users\Soyez\Desktop\Stuff\My Art\somoji\set 2\lipsticklesbian.png"
   inkscape:export-xdpi="1092.27"
   inkscape:export-ydpi="1092.27"><sodipodi:namedview
     pagecolor="#ffffff"
     bordercolor="#666666"
     borderopacity="1"
     objecttolerance="10"
     gridtolerance="10"
     guidetolerance="10"
     inkscape:pageopacity="0"
     inkscape:pageshadow="2"
     inkscape:window-width="1920"
     inkscape:window-height="1027"
     id="namedview15"
     showgrid="false"
     inkscape:zoom="2"
     inkscape:cx="9.3311231"
     inkscape:cy="74.589835"
     inkscape:window-x="-8"
     inkscape:window-y="-8"
     inkscape:window-maximized="1"
     inkscape:current-layer="svg2"
     inkscape:document-rotation="0"
     inkscape:snap-nodes="true"
     inkscape:snap-others="false"
     inkscape:snap-to-guides="false"
     inkscape:snap-grids="false"
     inkscape:snap-bbox="true"
     inkscape:object-paths="true"
     inkscape:snap-global="true"
     inkscape:bbox-nodes="false" /><metadata
     id="metadata8"><rdf:RDF><cc:Work
         rdf:about=""><dc:format>image/svg+xml</dc:format><dc:type
           rdf:resource="http://purl.org/dc/dcmitype/StillImage" /><dc:title /></cc:Work></rdf:RDF></metadata><defs
     id="defs6"><clipPath
       id="clipPath16"
       clipPathUnits="userSpaceOnUse"><path
         id="path18"
         d="M 0,36 36,36 36,0 0,0 0,36 Z" /></clipPath><clipPath
       id="clipPath16-9"
       clipPathUnits="userSpaceOnUse"><path
         inkscape:connector-curvature="0"
         id="path18-6"
         d="M 4,31 C 1.791,31 0,29.209 0,27 L 0,27 0,9 C 0,6.791 1.791,5 4,5 l 0,0 28,0 c 2.209,0 4,1.791 4,4 l 0,0 0,18 c 0,2.209 -1.791,4 -4,4 l 0,0 -28,0 z" /></clipPath><clipPath
       clipPathUnits="userSpaceOnUse"
       id="clipPath5047"><path
         style="fill:#5bcefa;fill-opacity:1;fill-rule:nonzero;stroke:none"
         d="m 25.204492,-54.863389 0,0.04687 0,2.453125 c 0,2.761254 2.232631,5.000004 4.98781,5.000004 l 34.924391,0 c 2.755183,0 4.987805,-2.23875 4.987805,-4.999999 l 0,-2.453125 0,-0.04687 0,-6.866211 0,-12.430661 c 0,-3.15007 -2.232622,-5.70313 -4.987805,-5.70313 l -34.924391,0 c -2.755179,0 -4.98781,2.55307 -4.98781,5.70312 l 0,12.430666 z"
         id="path5049"
         inkscape:connector-curvature="0"
         sodipodi:nodetypes="ccsssscccsssscc" /></clipPath><clipPath
       clipPathUnits="userSpaceOnUse"
       id="clipPath5116"><path
         sodipodi:nodetypes="ccsssscccsssscc"
         inkscape:connector-curvature="0"
         id="path5118"
         d="m -19.000001,-39.038681 0,0.04687 0,2.453125 c 0,2.761249 2.237602,4.999999 4.998918,4.999999 l 35.00217,0 c 2.761314,0 4.998914,-2.23875 4.998914,-4.999999 l 0,-2.453125 0,-0.04687 0,-6.866211 0,-12.430665 c 0,-3.15006 -2.2376,-5.703124 -4.998914,-5.703124 l -35.00217,0 c -2.761316,0 -4.998918,2.55307 -4.998918,5.703125 l 0,12.430665 z"
         style="fill:#333ebd;fill-opacity:1;fill-rule:nonzero;stroke:none" /></clipPath><clipPath
       clipPathUnits="userSpaceOnUse"
       id="clipPath5116-2"><path
         sodipodi:nodetypes="ccsssscccsssscc"
         inkscape:connector-curvature="0"
         id="path5118-6"
         d="m -19.000001,-39.038681 0,0.04687 0,2.453125 c 0,2.761249 2.237602,4.999999 4.998918,4.999999 l 35.00217,0 c 2.761314,0 4.998914,-2.23875 4.998914,-4.999999 l 0,-2.453125 0,-0.04687 0,-6.866211 0,-12.430665 c 0,-3.15006 -2.2376,-5.703124 -4.998914,-5.703124 l -35.00217,0 c -2.761316,0 -4.998918,2.55307 -4.998918,5.703125 l 0,12.430665 z"
         style="fill:#333ebd;fill-opacity:1;fill-rule:nonzero;stroke:none" /></clipPath><clipPath
       clipPathUnits="userSpaceOnUse"
       id="clipPath5250"><path
         sodipodi:nodetypes="ccsssscccsssscc"
         inkscape:connector-curvature="0"
         id="path5252"
         d="m -4.6455538,-44.034176 0,0.04687 0,2.453125 c 0,2.761249 2.2376019,4.999999 4.99891795,4.999999 l 35.00217185,0 c 2.76131,0 4.99891,-2.23875 4.99891,-4.999999 l 0,-2.453125 0,-0.04687 0,-6.866211 0,-12.430665 c 0,-3.15006 -2.2376,-5.703124 -4.99891,-5.703124 l -35.00217185,0 c -2.76131605,0 -4.99891805,2.55307 -4.99891805,5.703125 l 0,12.430665 z"
         style="fill:#000000;fill-opacity:1;fill-rule:nonzero;stroke:none" /></clipPath><clipPath
       clipPathUnits="userSpaceOnUse"
       id="clipPath5277"><path
         style="fill:#5bcefa;fill-opacity:1;fill-rule:nonzero;stroke:none"
         d="m 29.620147,-97.8367 0,0.0469 0,2.45313 c 0,2.76125 2.237602,5 4.998919,5 l 35.002168,0 c 2.761319,0 4.998913,-2.23875 4.998913,-5 l 0,-2.45312 0,-0.0469 0,-6.86621 0,-12.43067 c 0,-3.15006 -2.237594,-5.70313 -4.998913,-5.70313 l -35.002168,0 c -2.761317,0 -4.998919,2.55307 -4.998919,5.70313 l 0,12.43066 z"
         id="path5279"
         inkscape:connector-curvature="0"
         sodipodi:nodetypes="ccsssscccsssscc" /></clipPath><clipPath
       clipPathUnits="userSpaceOnUse"
       id="clipPath5277-8"><path
         style="fill:#5bcefa;fill-opacity:1;fill-rule:nonzero;stroke:none"
         d="m 29.620147,-97.8367 0,0.0469 0,2.45313 c 0,2.76125 2.237602,5 4.998919,5 l 35.002168,0 c 2.761319,0 4.998913,-2.23875 4.998913,-5 l 0,-2.45312 0,-0.0469 0,-6.86621 0,-12.43067 c 0,-3.15006 -2.237594,-5.70313 -4.998913,-5.70313 l -35.002168,0 c -2.761317,0 -4.998919,2.55307 -4.998919,5.70313 l 0,12.43066 z"
         id="path5279-0"
         inkscape:connector-curvature="0"
         sodipodi:nodetypes="ccsssscccsssscc" /></clipPath><clipPath
       clipPathUnits="userSpaceOnUse"
       id="clipPath5326"><path
         style="fill:#5bcefa;fill-opacity:1;fill-rule:nonzero;stroke:none"
         d="m 79.510932,-96.665226 0,0.0469 0,2.45313 c 0,2.76125 2.237602,5 4.998919,5 l 35.002169,0 c 2.76131,0 4.99891,-2.23875 4.99891,-5 l 0,-2.45312 0,-0.0469 0,-6.866204 0,-12.43067 c 0,-3.15006 -2.2376,-5.70313 -4.99891,-5.70313 l -35.002169,0 c -2.761317,0 -4.998919,2.55307 -4.998919,5.70313 l 0,12.43066 z"
         id="path5328"
         inkscape:connector-curvature="0"
         sodipodi:nodetypes="ccsssscccsssscc" /></clipPath><clipPath
       clipPathUnits="userSpaceOnUse"
       id="clipPath5250-2"><path
         sodipodi:nodetypes="ccsssscccsssscc"
         inkscape:connector-curvature="0"
         id="path5252-8"
         d="m -4.6455538,-44.034176 0,0.04687 0,2.453125 c 0,2.761249 2.2376019,4.999999 4.99891795,4.999999 l 35.00217185,0 c 2.76131,0 4.99891,-2.23875 4.99891,-4.999999 l 0,-2.453125 0,-0.04687 0,-6.866211 0,-12.430665 c 0,-3.15006 -2.2376,-5.703124 -4.99891,-5.703124 l -35.00217185,0 c -2.76131605,0 -4.99891805,2.55307 -4.99891805,5.703125 l 0,12.430665 z"
         style="fill:#000000;fill-opacity:1;fill-rule:nonzero;stroke:none" /></clipPath><clipPath
       clipPathUnits="userSpaceOnUse"
       id="clipPath5326-4"><path
         style="fill:#5bcefa;fill-opacity:1;fill-rule:nonzero;stroke:none"
         d="m 79.510932,-96.665226 0,0.0469 0,2.45313 c 0,2.76125 2.237602,5 4.998919,5 l 35.002169,0 c 2.76131,0 4.99891,-2.23875 4.99891,-5 l 0,-2.45312 0,-0.0469 0,-6.866204 0,-12.43067 c 0,-3.15006 -2.2376,-5.70313 -4.99891,-5.70313 l -35.002169,0 c -2.761317,0 -4.998919,2.55307 -4.998919,5.70313 l 0,12.43066 z"
         id="path5328-4"
         inkscape:connector-curvature="0"
         sodipodi:nodetypes="ccsssscccsssscc" /></clipPath><clipPath
       clipPathUnits="userSpaceOnUse"
       id="clipPath5277-0"><path
         style="fill:#5bcefa;fill-opacity:1;fill-rule:nonzero;stroke:none"
         d="m 29.620147,-97.8367 0,0.0469 0,2.45313 c 0,2.76125 2.237602,5 4.998919,5 l 35.002168,0 c 2.761319,0 4.998913,-2.23875 4.998913,-5 l 0,-2.45312 0,-0.0469 0,-6.86621 0,-12.43067 c 0,-3.15006 -2.237594,-5.70313 -4.998913,-5.70313 l -35.002168,0 c -2.761317,0 -4.998919,2.55307 -4.998919,5.70313 l 0,12.43066 z"
         id="path5279-01"
         inkscape:connector-curvature="0"
         sodipodi:nodetypes="ccsssscccsssscc" /></clipPath><clipPath
       clipPathUnits="userSpaceOnUse"
       id="clipPath5472"><path
         style="fill:#5bcefa;fill-opacity:1;fill-rule:nonzero;stroke:none"
         d="m 50.32685,-59.917429 0,0.0469 0,2.45313 c 0,2.76125 2.2376,5 4.99891,5 l 35.00217,0 c 2.76132,0 4.99892,-2.23875 4.99892,-5 l 0,-2.45312 0,-0.0469 0,-6.866211 0,-12.430671 c 0,-3.15006 -2.2376,-5.70313 -4.99892,-5.70313 l -35.00217,0 c -2.76131,0 -4.99891,2.55307 -4.99891,5.70313 l 0,12.43066 z"
         id="path5474"
         inkscape:connector-curvature="0"
         sodipodi:nodetypes="ccsssscccsssscc" /></clipPath><clipPath
       clipPathUnits="userSpaceOnUse"
       id="clipPath5472-9"><path
         style="fill:#5bcefa;fill-opacity:1;fill-rule:nonzero;stroke:none"
         d="m 50.32685,-59.917429 0,0.0469 0,2.45313 c 0,2.76125 2.2376,5 4.99891,5 l 35.00217,0 c 2.76132,0 4.99892,-2.23875 4.99892,-5 l 0,-2.45312 0,-0.0469 0,-6.866211 0,-12.430671 c 0,-3.15006 -2.2376,-5.70313 -4.99892,-5.70313 l -35.00217,0 c -2.76131,0 -4.99891,2.55307 -4.99891,5.70313 l 0,12.43066 z"
         id="path5474-1"
         inkscape:connector-curvature="0"
         sodipodi:nodetypes="ccsssscccsssscc" /></clipPath><clipPath
       clipPathUnits="userSpaceOnUse"
       id="clipPath5277-9"><path
         style="fill:#5bcefa;fill-opacity:1;fill-rule:nonzero;stroke:none"
         d="m 29.620147,-97.8367 0,0.0469 0,2.45313 c 0,2.76125 2.237602,5 4.998919,5 l 35.002168,0 c 2.761319,0 4.998913,-2.23875 4.998913,-5 l 0,-2.45312 0,-0.0469 0,-6.86621 0,-12.43067 c 0,-3.15006 -2.237594,-5.70313 -4.998913,-5.70313 l -35.002168,0 c -2.761317,0 -4.998919,2.55307 -4.998919,5.70313 l 0,12.43066 z"
         id="path5279-012"
         inkscape:connector-curvature="0"
         sodipodi:nodetypes="ccsssscccsssscc" /></clipPath><clipPath
       clipPathUnits="userSpaceOnUse"
       id="clipPath5666"><path
         style="fill:#5bcefa;fill-opacity:1;fill-rule:nonzero;stroke:none"
         d="m -45.480969,-1.7578976 0,0.0469 0,2.45312999 c 0,2.76125001 2.237602,5.00000001 4.998919,5.00000001 l 35.0021693,0 c 2.7613201,0 4.9989101,-2.23875 4.9989101,-5.00000001 l 0,-2.45311999 0,-0.0469 0,-6.866211 0,-12.4306694 c 0,-3.15006 -2.23759,-5.70313 -4.9989101,-5.70313 l -35.0021693,0 c -2.761317,0 -4.998919,2.55307 -4.998919,5.70313 l 0,12.4306594 z"
         id="path5668"
         inkscape:connector-curvature="0"
         sodipodi:nodetypes="ccsssscccsssscc" /></clipPath><clipPath
       clipPathUnits="userSpaceOnUse"
       id="clipPath5277-3"><path
         style="fill:#5bcefa;fill-opacity:1;fill-rule:nonzero;stroke:none"
         d="m 29.620147,-97.8367 0,0.0469 0,2.45313 c 0,2.76125 2.237602,5 4.998919,5 l 35.002168,0 c 2.761319,0 4.998913,-2.23875 4.998913,-5 l 0,-2.45312 0,-0.0469 0,-6.86621 0,-12.43067 c 0,-3.15006 -2.237594,-5.70313 -4.998913,-5.70313 l -35.002168,0 c -2.761317,0 -4.998919,2.55307 -4.998919,5.70313 l 0,12.43066 z"
         id="path5279-7"
         inkscape:connector-curvature="0"
         sodipodi:nodetypes="ccsssscccsssscc" /></clipPath><clipPath
       clipPathUnits="userSpaceOnUse"
       id="clipPath5742"><path
         style="fill:#5bcefa;fill-opacity:1;fill-rule:nonzero;stroke:none"
         d="m 85.499998,4.249988 0,0.0469 0,2.45313 c 0,2.76125 2.2376,5 4.99892,5 l 35.002162,0 c 2.76132,0 4.99892,-2.23875 4.99892,-5 l 0,-2.45312 0,-0.0469 0,-6.866211 0,-12.430672 c 0,-3.15006 -2.2376,-5.70313 -4.99892,-5.70313 l -35.002162,0 c -2.76132,0 -4.99892,2.55307 -4.99892,5.70313 l 0,12.430662 z"
         id="path5744"
         inkscape:connector-curvature="0"
         sodipodi:nodetypes="ccsssscccsssscc" /></clipPath><clipPath
       clipPathUnits="userSpaceOnUse"
       id="clipPath5774"><path
         style="fill:#5bcefa;fill-opacity:1;fill-rule:nonzero;stroke:none"
         d="m 92.581629,10.908983 0,0.0469 0,2.45313 c 0,2.76125 2.2376,5 4.99892,5 l 35.002161,0 c 2.76132,0 4.99892,-2.23875 4.99892,-5 l 0,-2.45312 0,-0.0469 0,-6.8662117 0,-12.43067 c 0,-3.1500593 -2.2376,-5.7031293 -4.99892,-5.7031293 l -35.002161,0 c -2.76132,0 -4.99892,2.55307 -4.99892,5.7031293 l 0,12.43066 z"
         id="path5776"
         inkscape:connector-curvature="0"
         sodipodi:nodetypes="ccsssscccsssscc" /></clipPath><clipPath
       clipPathUnits="userSpaceOnUse"
       id="clipPath5277-1"><path
         style="fill:#5bcefa;fill-opacity:1;fill-rule:nonzero;stroke:none"
         d="m 29.620147,-97.8367 0,0.0469 0,2.45313 c 0,2.76125 2.237602,5 4.998919,5 l 35.002168,0 c 2.761319,0 4.998913,-2.23875 4.998913,-5 l 0,-2.45312 0,-0.0469 0,-6.86621 0,-12.43067 c 0,-3.15006 -2.237594,-5.70313 -4.998913,-5.70313 l -35.002168,0 c -2.761317,0 -4.998919,2.55307 -4.998919,5.70313 l 0,12.43066 z"
         id="path5279-9"
         inkscape:connector-curvature="0"
         sodipodi:nodetypes="ccsssscccsssscc" /></clipPath><clipPath
       clipPathUnits="userSpaceOnUse"
       id="clipPath5326-5"><path
         style="fill:#5bcefa;fill-opacity:1;fill-rule:nonzero;stroke:none"
         d="m 79.510932,-96.665226 0,0.0469 0,2.45313 c 0,2.76125 2.237602,5 4.998919,5 l 35.002169,0 c 2.76131,0 4.99891,-2.23875 4.99891,-5 l 0,-2.45312 0,-0.0469 0,-6.866204 0,-12.43067 c 0,-3.15006 -2.2376,-5.70313 -4.99891,-5.70313 l -35.002169,0 c -2.761317,0 -4.998919,2.55307 -4.998919,5.70313 l 0,12.43066 z"
         id="path5328-8"
         inkscape:connector-curvature="0"
         sodipodi:nodetypes="ccsssscccsssscc" /></clipPath><clipPath
       clipPathUnits="userSpaceOnUse"
       id="clipPath5885"><path
         style="fill:#5bcefa;fill-opacity:1;fill-rule:nonzero;stroke:none"
         d="m 66.241905,48.800236 0,0.0469 0,2.45313 c 0,2.76125 2.2376,5 4.99892,5 l 35.002165,0 c 2.76132,0 4.99892,-2.23875 4.99892,-5 l 0,-2.45312 0,-0.0469 0,-6.866211 0,-12.43067 c 0,-3.15006 -2.2376,-5.70313 -4.99892,-5.70313 l -35.002165,0 c -2.76132,0 -4.99892,2.55307 -4.99892,5.70313 l 0,12.43066 z"
         id="path5887"
         inkscape:connector-curvature="0"
         sodipodi:nodetypes="ccsssscccsssscc" /></clipPath><clipPath
       clipPathUnits="userSpaceOnUse"
       id="clipPath5774-5"><path
         style="fill:#5bcefa;fill-opacity:1;fill-rule:nonzero;stroke:none"
         d="m 92.581629,10.908983 0,0.0469 0,2.45313 c 0,2.76125 2.2376,5 4.99892,5 l 35.002161,0 c 2.76132,0 4.99892,-2.23875 4.99892,-5 l 0,-2.45312 0,-0.0469 0,-6.8662117 0,-12.43067 c 0,-3.1500593 -2.2376,-5.7031293 -4.99892,-5.7031293 l -35.002161,0 c -2.76132,0 -4.99892,2.55307 -4.99892,5.7031293 l 0,12.43066 z"
         id="path5776-6"
         inkscape:connector-curvature="0"
         sodipodi:nodetypes="ccsssscccsssscc" /></clipPath><clipPath
       clipPathUnits="userSpaceOnUse"
       id="clipPath7671"><path
         style="fill:#fafda5;stroke-width:0.0108333"
         d="m 35.834482,28.907308 10e-6,8.9e-5 c 0.06895,0.0098 0.38413,0.0098 0.45323,0 0.0693,-0.0098 0.0773,-0.02015 0.0713,-0.09219 -0.0024,-0.0303 -0.0098,-0.137967 -0.0158,-0.239259 -0.04275,-0.68844 -0.17561,-1.452981 -0.369,-2.123329 -0.08876,-0.307659 -0.24945,-0.777735 -0.27625,-0.807935 -0.0082,-0.0094 -0.0152,-0.02455 -0.0152,-0.03365 0,-0.04424 -0.21727,-0.542399 -0.37949,-0.87008 -1.57933,-3.19038 -4.89984,-5.670736 -8.947997,-6.68398 -2.625212,-0.657083 -5.253169,-0.627764 -7.874212,0.08785 -2.257468,0.616348 -4.285799,1.67376 -5.867766,3.058989 -1.20652,1.056473 -2.107182,2.200646 -2.7617995,3.508506 -0.171787,0.343212 -0.396194,0.854218 -0.396194,0.902188 0,0.0111 -0.0044,0.0202 -0.0099,0.0202 -0.04694,0 -0.359206,1.017979 -0.481862,1.570831 -0.115558,0.520859 -0.263242,1.59841 -0.230682,1.68324 0.0062,0.01614 0.03732,0.01764 0.323627,0.01504 l 0.31675,-0.0029 0.008,-0.0325 c 0.0044,-0.01787 0.0183,-0.09831 0.03086,-0.178749 0.479499,-3.070488 1.9741075,-5.625202 4.3228995,-7.389074 0.39403,-0.295905 0.93351,-0.642871 1.429428,-0.919335 2.182879,-1.216913 5.074034,-1.939384 7.765669,-1.940484 1.59132,-6.68e-4 3.388916,0.354901 5.101079,1.009011 3.23036,1.234117 5.6128,3.310271 6.81761,5.941137 0.05458,0.119167 0.10408,0.221258 0.10908,0.226958 0.006,0.0056 0.01,0.01886 0.01,0.02934 0,0.01048 0.0336,0.103348 0.0747,0.206375 0.37263,0.934104 0.60788,1.912279 0.71141,2.958091 0.008,0.08168 0.0115,0.08572 0.0805,0.09562 z m -23.841422,0.0028 4.33e-4,1.8e-5 c 0.0074,0.0031 0.02573,0.0035 0.04062,7.58e-4 0.0149,-0.0026 0.211772,-0.007 0.437502,-0.0097 0.225731,-0.0028 0.412338,-0.0069 0.414738,-0.0093 0.0024,-0.0024 0.01671,-0.05006 0.03186,-0.105968 0.289642,-1.068996 0.774448,-2.118573 1.381639,-2.991167 0.05275,-0.07582 0.09592,-0.140178 0.09592,-0.143178 0,-0.0073 0.190712,-0.258326 0.296783,-0.390634 1.38673,-1.729738 3.464853,-3.019325 5.813208,-3.607407 1.450081,-0.363134 2.720037,-0.419693 4.116659,-0.183345 2.838895,0.480424 5.28984,1.949357 6.69944,4.015201 0.05176,0.07578 0.09836,0.140682 0.10436,0.144182 0.0054,0.0035 0.0104,0.013 0.0104,0.0211 0,0.0081 0.0335,0.06752 0.0744,0.132069 0.53272,0.840175 0.9343,1.875152 1.13824,2.933557 0.0183,0.09507 0.0371,0.176823 0.0421,0.181623 0.0048,0.0048 0.15469,0.0075 0.33305,0.0059 l 0.32429,-0.0029 -0.003,-0.07583 c -0.01478,-0.438097 -0.23773,-1.350602 -0.47644,-1.949997 -0.17093,-0.429202 -0.57481,-1.212718 -0.63761,-1.236798 -0.0085,-0.0033 -0.0155,-0.01221 -0.0155,-0.01981 0,-0.0076 -0.04815,-0.08632 -0.10695,-0.174882 -1.2354,-1.859901 -3.44743,-3.404824 -6.017236,-4.20255 -1.872811,-0.581361 -3.2645,-0.671816 -4.98538,-0.324032 -0.306759,0.06199 -0.354526,0.07325 -0.731249,0.17233 -2.631891,0.692183 -4.960857,2.028288 -6.478365,3.716574 -0.204245,0.227229 -0.622874,0.75984 -0.636484,0.80979 -0.0028,0.01046 -0.0096,0.01896 -0.0151,0.01896 -0.0055,0 -0.06026,0.07679 -0.121777,0.170625 -0.584521,0.891683 -0.947747,1.819195 -1.116681,2.851495 -0.03062,0.187126 -0.0338,0.245116 -0.01387,0.253316 z m -1.763072,-0.0037 4.14e-4,-2.3e-5 c 0.0081,0.01313 0.686666,0.01459 0.707306,0.0015 0.0077,-0.0049 0.03083,-0.0816 0.05137,-0.170459 0.245907,-1.063953 0.641028,-2.099497 1.1219,-2.940307 0.04259,-0.07448 0.07825,-0.14035 0.07925,-0.14625 0.001,-0.0059 0.0097,-0.02302 0.01916,-0.03791 0.0095,-0.0149 0.06722,-0.107523 0.128166,-0.205833 1.047104,-1.689008 2.612692,-3.071633 4.533628,-4.003806 0.457669,-0.222094 0.808471,-0.366754 1.375831,-0.567351 2.008974,-0.710304 4.3207,-0.966172 6.310406,-0.698464 1.15582,0.155511 2.204476,0.445751 3.428743,0.948985 0.3715,0.152701 0.98105,0.464995 1.4191,0.727045 1.38858,0.83067 2.54504,1.917243 3.36931,3.165675 0.16441,0.249017 0.39097,0.620639 0.40617,0.666249 0.003,0.0089 0.0527,0.106437 0.1104,0.216666 0.4588,0.875814 0.80083,1.881128 0.9841,2.892495 0.0148,0.08158 0.0287,0.129325 0.0403,0.138125 0.01892,0.0145 0.38133,0.01967 0.46043,0.0066 l 0.0406,-0.0067 -1e-4,-0.05545 c -10e-5,-0.05907 -0.0323,-0.36383 -0.0602,-0.57004 -0.08029,-0.592923 -0.23668,-1.240677 -0.4334,-1.79507 -0.11597,-0.32681 -0.33096,-0.837426 -0.35256,-0.837426 -0.006,0 -0.01,-0.0081 -0.01,-0.018 0,-0.04152 -0.31169,-0.620194 -0.47462,-0.881158 -0.89373,-1.431506 -2.13552,-2.60462 -3.79241,-3.582695 -0.31197,-0.184161 -0.32165,-0.18958 -0.57829,-0.323714 -1.47138,-0.769054 -3.19051,-1.310112 -4.796331,-1.509542 -2.02202,-0.251119 -4.517781,0.06256 -6.62912,0.833188 -0.658079,0.240195 -1.540678,0.645051 -1.912948,0.877489 -0.03575,0.02232 -0.13813,0.08353 -0.2275,0.136017 -1.551039,0.910892 -2.82276,2.143312 -3.750156,3.634256 -0.187573,0.301557 -0.46523,0.803821 -0.45421,0.821651 0.0035,0.0056 -0.0012,0.01321 -0.01052,0.01671 -0.0671,0.02575 -0.504942,1.076985 -0.706652,1.696633 -0.165501,0.50841 -0.423697,1.528624 -0.397567,1.570914 z m 5.327507,0.01115 4e-6,-6.7e-5 c 3.753206,0.01375 7.017223,0.01166 7.023423,-0.0045 0.01,-0.02594 -0.912721,-1.85839 -0.940971,-1.86879 -0.01331,-0.0049 -0.09976,-0.01947 -0.192111,-0.03239 -0.181563,-0.02539 -1.487802,-0.209584 -1.828122,-0.257784 -0.133431,-0.0189 -0.208541,-0.03405 -0.208541,-0.04205 0,-0.0069 0.235218,-0.242538 0.522707,-0.523678 0.287489,-0.281142 0.527641,-0.518666 0.533541,-0.527866 0.006,-0.0092 0.05471,-0.05897 0.108333,-0.110634 0.267401,-0.257623 0.428433,-0.419854 0.433933,-0.437074 0.0033,-0.0105 -0.05066,-0.342214 -0.119997,-0.737142 -0.06933,-0.394928 -0.154975,-0.883799 -0.190325,-1.086382 -0.03535,-0.202583 -0.06632,-0.377164 -0.06872,-0.387954 -0.0024,-0.01079 0.002,-0.02203 0.0099,-0.02513 0.0079,-0.003 0.46572,0.22932 1.017387,0.516333 l 1.003029,0.521842 1.003881,-0.532393 c 0.552135,-0.292814 1.007834,-0.528439 1.012534,-0.523739 0.0048,0.0048 -0.07397,0.501001 -0.174952,1.102762 -0.100979,0.60176 -0.183679,1.106538 -0.183679,1.121728 -7.7e-5,0.0278 0.52511,0.551964 0.55304,0.551964 0.0063,0 0.009,0.004 0.006,0.0088 -0.003,0.0049 0.233146,0.239372 0.524777,0.521139 0.291629,0.281767 0.530236,0.516591 0.530236,0.521791 0,0.0149 -0.01761,0.01765 -1.695414,0.264804 -0.262166,0.03861 -0.494135,0.07508 -0.515505,0.08088 l -0.03884,0.01067 -0.451368,0.922187 c -0.248251,0.507203 -0.451367,0.93218 -0.451367,0.94439 v 0.0222 l 4.449501,-0.0074 c 2.718253,-0.0046 4.453583,-0.01144 4.459583,-0.01754 0.01885,-0.01885 -0.05827,-0.432118 -0.14557,-0.780238 -0.16547,-0.659692 -0.42928,-1.310329 -0.76209,-1.87958 -0.1348,-0.230566 -0.38372,-0.601085 -0.41122,-0.612205 -0.0126,-0.0051 -0.0196,-0.0097 -0.0146,-0.01003 0.05712,-0.0046 -0.56675,-0.725449 -0.89225,-1.030916 -1.52665,-1.432712 -3.518918,-2.28972 -5.795001,-2.492832 -0.247328,-0.02204 -1.144314,-0.01839 -1.392082,0.0057 -2.146087,0.208622 -4.045945,1.014279 -5.660406,2.400359 -0.28191,0.242029 -1.040534,1.025777 -1.070184,1.105627 -0.0017,0.0046 -0.02364,0.02984 -0.04875,0.0561 -0.05618,0.05876 -0.240149,0.301021 -0.377401,0.496972 -0.537594,0.767507 -0.963045,1.625574 -1.262082,2.545421 -0.0391,0.120405 -0.0544,0.181915 -0.047,0.189315 0.0073,0.0073 0.597697,0.01313 1.746739,0.01733 z m 21.920487,0.988879 1e-4,3e-6 c -0.0106,0.02762 -29.7310885,0.02832 -29.7416885,7.04e-4 -0.0092,-0.02411 0.0047,-0.49405 0.02433,-0.822071 0.227195,-3.788377 1.934072,-6.961259 4.9718145,-9.242012 2.484909,-1.865683 5.714613,-2.957666 9.208318,-3.113388 0.30981,-0.0138 1.331746,-0.01375 1.630414,8.7e-5 3.534974,0.163818 6.948402,1.483296 9.500822,3.672588 1.63801,1.404979 2.88121,3.138192 3.58986,5.004816 0.0396,0.104271 0.0767,0.198054 0.0827,0.208394 0.0056,0.01034 0.0106,0.025 0.0106,0.0325 -10e-5,0.0075 0.0436,0.145313 0.097,0.306189 0.3221,0.970239 0.50693,1.898 0.59093,2.966582 0.0194,0.24664 0.0448,0.960118 0.0348,0.985608 z M -4.3462875,23.338001 V 39.587974 H 22.737 49.820289 V 23.338001 7.088027 H 22.737 -4.3462875 Z"
         id="path7673" /></clipPath><clipPath
       clipPathUnits="userSpaceOnUse"
       id="clipPath7687"><path
         id="path7689"
         style="fill:#8a1e04;fill-opacity:1;fill-rule:nonzero;stroke:none;stroke-width:0.999997"
         d="m 45.237001,12.791127 c 0,-3.1500595 -2.2376,-5.7031245 -4.99891,-5.7031245 H 5.2359171 c -2.761315,0 -4.99891696,2.55307 -4.99891696,5.7031245 v 11.607905 7.688972 0.04687 2.453124 c 0,2.761249 2.23760196,5.000001 4.99891696,5.000001 H 40.238091 c 2.76131,0 4.99891,-2.238752 4.99891,-5.000001 v -2.453124 -0.04687 -7.981939 z"
         inkscape:connector-curvature="0"
         sodipodi:nodetypes="sssscccsssscccs" /></clipPath></defs><g
     id="g7685"
     clip-path="url(#clipPath7687)"
     inkscape:export-xdpi="1092.27"
     inkscape:export-ydpi="1092.27"><rect
       style="opacity:1;fill:#ffffff;fill-opacity:1;fill-rule:evenodd;stroke:none;stroke-width:1.88976;stroke-linecap:round;stroke-linejoin:round;stroke-opacity:0.630027;paint-order:stroke fill markers"
       id="rect7656"
       width="54.166576"
       height="32.499947"
       x="-4.3462877"
       y="7.088027" /><g
       id="g7570"
       clip-path="url(#clipPath7671)"><path
         id="path1087"
         style="fill:#8a1e04;fill-opacity:1;fill-rule:nonzero;stroke:none;stroke-width:0.999999"
         d="m 45.237001,12.791127 c 0,-3.1500607 -2.237599,-5.7031248 -4.998914,-5.7031248 H 5.2359173 c -2.761315,0 -4.99891703,2.5530702 -4.99891703,5.7031258 v 11.607906 7.688969 0.04687 2.453125 c 0,2.761249 2.23760203,5 4.99891703,5 H 40.238087 c 2.761315,0 4.998914,-2.238751 4.998914,-5 v -2.453125 -0.04687 -7.981938 z"
         inkscape:connector-curvature="0"
         sodipodi:nodetypes="sssscccsssscccs" /><rect
         style="fill:#ff6691;fill-opacity:1;fill-rule:evenodd;stroke-width:1.59368;stroke-linecap:round;stroke-linejoin:round;stroke-opacity:0.630027;paint-order:stroke fill markers"
         id="rect986"
         width="45"
         height="4.6428571"
         x="0.23700027"
         y="7.0879998" /><rect
         style="fill:#ff9997;fill-opacity:1;fill-rule:evenodd;stroke-width:1.59368;stroke-linecap:round;stroke-linejoin:round;stroke-opacity:0.630027;paint-order:stroke fill markers"
         id="rect986-0"
         width="45"
         height="4.6428571"
         x="0.23700027"
         y="11.730857" /><rect
         style="fill:#ffb782;fill-opacity:1;fill-rule:evenodd;stroke-width:1.59368;stroke-linecap:round;stroke-linejoin:round;stroke-opacity:0.630027;paint-order:stroke fill markers"
         id="rect986-0-2"
         width="45"
         height="4.6428571"
         x="0.23700027"
         y="16.373714" /><rect
         style="fill:#fbffa6;fill-opacity:1;fill-rule:evenodd;stroke-width:1.59368;stroke-linecap:round;stroke-linejoin:round;stroke-opacity:0.630027;paint-order:stroke fill markers"
         id="rect986-0-2-1"
         width="45"
         height="4.6428571"
         x="0.23700027"
         y="21.016571" /><rect
         style="fill:#a317ff;fill-opacity:1;fill-rule:evenodd;stroke-width:1.59368;stroke-linecap:round;stroke-linejoin:round;stroke-opacity:0.630027;paint-order:stroke fill markers"
         id="rect986-4"
         width="45"
         height="4.6428571"
         x="0.23700027"
         y="-39.588001"
         transform="scale(1,-1)" /><rect
         style="fill:#9c84ff;fill-opacity:1;fill-rule:evenodd;stroke-width:1.59368;stroke-linecap:round;stroke-linejoin:round;stroke-opacity:0.630027;paint-order:stroke fill markers"
         id="rect986-0-4"
         width="45"
         height="4.6428571"
         x="0.23700027"
         y="-34.945141"
         transform="scale(1,-1)" /><rect
         style="fill:#84bbff;fill-opacity:1;fill-rule:evenodd;stroke-width:1.59368;stroke-linecap:round;stroke-linejoin:round;stroke-opacity:0.630027;paint-order:stroke fill markers"
         id="rect986-0-2-18"
         width="45"
         height="4.6428571"
         x="0.23700027"
         y="-30.302286"
         transform="scale(1,-1)" /></g></g><g
     id="g20"
     transform="matrix(1.25,0,0,-1.4260104,46.640625,146.09375)" /></svg>
