<?xml version="1.0" encoding="UTF-8"?>
<svg id="svg2" enable-background="new 0 0 45 45" version="1.1" viewBox="0 0 45 45" xml:space="preserve" xmlns="http://www.w3.org/2000/svg" xmlns:cc="http://creativecommons.org/ns#" xmlns:dc="http://purl.org/dc/elements/1.1/" xmlns:rdf="http://www.w3.org/1999/02/22-rdf-syntax-ns#"><metadata id="metadata8"><rdf:RDF><cc:Work rdf:about=""><dc:format>image/svg+xml</dc:format><dc:type rdf:resource="http://purl.org/dc/dcmitype/StillImage"/><dc:title/></cc:Work></rdf:RDF></metadata><defs id="defs6"><clipPath id="clipPath7671"><path id="path7673" d="m35.834 28.907 1e-5 8.9e-5c0.06895 0.0098 0.38413 0.0098 0.45323 0 0.0693-0.0098 0.0773-0.02015 0.0713-0.09219-0.0024-0.0303-0.0098-0.13797-0.0158-0.23926-0.04275-0.68844-0.17561-1.453-0.369-2.1233-0.08876-0.30766-0.24945-0.77774-0.27625-0.80794-0.0082-0.0094-0.0152-0.02455-0.0152-0.03365 0-0.04424-0.21727-0.5424-0.37949-0.87008-1.5793-3.1904-4.8998-5.6707-8.948-6.684-2.6252-0.65708-5.2532-0.62776-7.8742 0.08785-2.2575 0.61635-4.2858 1.6738-5.8678 3.059-1.2065 1.0565-2.1072 2.2006-2.7618 3.5085-0.17179 0.34321-0.39619 0.85422-0.39619 0.90219 0 0.0111-0.0044 0.0202-0.0099 0.0202-0.04694 0-0.35921 1.018-0.48186 1.5708-0.11556 0.52086-0.26324 1.5984-0.23068 1.6832 0.0062 0.01614 0.03732 0.01764 0.32363 0.01504l0.31675-0.0029 8e-3 -0.0325c0.0044-0.01787 0.0183-0.09831 0.03086-0.17875 0.4795-3.0705 1.9741-5.6252 4.3229-7.3891 0.39403-0.2959 0.93351-0.64287 1.4294-0.91934 2.1829-1.2169 5.074-1.9394 7.7657-1.9405 1.5913-6.68e-4 3.3889 0.3549 5.1011 1.009 3.2304 1.2341 5.6128 3.3103 6.8176 5.9411 0.05458 0.11917 0.10408 0.22126 0.10908 0.22696 6e-3 0.0056 0.01 0.01886 0.01 0.02934s0.0336 0.10335 0.0747 0.20638c0.37263 0.9341 0.60788 1.9123 0.71141 2.9581 8e-3 0.08168 0.0115 0.08572 0.0805 0.09562zm-23.841 0.0028 4.33e-4 1.8e-5c0.0074 0.0031 0.02573 0.0035 0.04062 7.58e-4 0.0149-0.0026 0.21177-7e-3 0.4375-0.0097 0.22573-0.0028 0.41234-0.0069 0.41474-0.0093s0.01671-0.05006 0.03186-0.10597c0.28964-1.069 0.77445-2.1186 1.3816-2.9912 0.05275-0.07582 0.09592-0.14018 0.09592-0.14318 0-0.0073 0.19071-0.25833 0.29678-0.39063 1.3867-1.7297 3.4649-3.0193 5.8132-3.6074 1.4501-0.36313 2.72-0.41969 4.1167-0.18334 2.8389 0.48042 5.2898 1.9494 6.6994 4.0152 0.05176 0.07578 0.09836 0.14068 0.10436 0.14418 0.0054 0.0035 0.0104 0.013 0.0104 0.0211s0.0335 0.06752 0.0744 0.13207c0.53272 0.84018 0.9343 1.8752 1.1382 2.9336 0.0183 0.09507 0.0371 0.17682 0.0421 0.18162 0.0048 0.0048 0.15469 0.0075 0.33305 0.0059l0.32429-0.0029-3e-3 -0.07583c-0.01478-0.4381-0.23773-1.3506-0.47644-1.95-0.17093-0.4292-0.57481-1.2127-0.63761-1.2368-0.0085-0.0033-0.0155-0.01221-0.0155-0.01981s-0.04815-0.08632-0.10695-0.17488c-1.2354-1.8599-3.4474-3.4048-6.0172-4.2026-1.8728-0.58136-3.2645-0.67182-4.9854-0.32403-0.30676 0.06199-0.35453 0.07325-0.73125 0.17233-2.6319 0.69218-4.9609 2.0283-6.4784 3.7166-0.20424 0.22723-0.62287 0.75984-0.63648 0.80979-0.0028 0.01046-0.0096 0.01896-0.0151 0.01896s-0.06026 0.07679-0.12178 0.17062c-0.58452 0.89168-0.94775 1.8192-1.1167 2.8515-0.03062 0.18713-0.0338 0.24512-0.01387 0.25332zm-1.7631-0.0037 4.14e-4 -2.3e-5c0.0081 0.01313 0.68667 0.01459 0.70731 0.0015 0.0077-0.0049 0.03083-0.0816 0.05137-0.17046 0.24591-1.064 0.64103-2.0995 1.1219-2.9403 0.04259-0.07448 0.07825-0.14035 0.07925-0.14625s0.0097-0.02302 0.01916-0.03791c0.0095-0.0149 0.06722-0.10752 0.12817-0.20583 1.0471-1.689 2.6127-3.0716 4.5336-4.0038 0.45767-0.22209 0.80847-0.36675 1.3758-0.56735 2.009-0.7103 4.3207-0.96617 6.3104-0.69846 1.1558 0.15551 2.2045 0.44575 3.4287 0.94898 0.3715 0.1527 0.98105 0.465 1.4191 0.72704 1.3886 0.83067 2.545 1.9172 3.3693 3.1657 0.16441 0.24902 0.39097 0.62064 0.40617 0.66625 3e-3 0.0089 0.0527 0.10644 0.1104 0.21667 0.4588 0.87581 0.80083 1.8811 0.9841 2.8925 0.0148 0.08158 0.0287 0.12932 0.0403 0.13812 0.01892 0.0145 0.38133 0.01967 0.46043 0.0066l0.0406-0.0067-1e-4 -0.05545c-1e-4 -0.05907-0.0323-0.36383-0.0602-0.57004-0.08029-0.59292-0.23668-1.2407-0.4334-1.7951-0.11597-0.32681-0.33096-0.83743-0.35256-0.83743-6e-3 0-0.01-0.0081-0.01-0.018 0-0.04152-0.31169-0.62019-0.47462-0.88116-0.89373-1.4315-2.1355-2.6046-3.7924-3.5827-0.31197-0.18416-0.32165-0.18958-0.57829-0.32371-1.4714-0.76905-3.1905-1.3101-4.7963-1.5095-2.022-0.25112-4.5178 0.06256-6.6291 0.83319-0.65808 0.2402-1.5407 0.64505-1.9129 0.87749-0.03575 0.02232-0.13813 0.08353-0.2275 0.13602-1.551 0.91089-2.8228 2.1433-3.7502 3.6343-0.18757 0.30156-0.46523 0.80382-0.45421 0.82165 0.0035 0.0056-0.0012 0.01321-0.01052 0.01671-0.0671 0.02575-0.50494 1.077-0.70665 1.6966-0.1655 0.50841-0.4237 1.5286-0.39757 1.5709zm5.3275 0.01115 4e-6 -6.7e-5c3.7532 0.01375 7.0172 0.01166 7.0234-0.0045 0.01-0.02594-0.91272-1.8584-0.94097-1.8688-0.01331-0.0049-0.09976-0.01947-0.19211-0.03239-0.18156-0.02539-1.4878-0.20958-1.8281-0.25778-0.13343-0.0189-0.20854-0.03405-0.20854-0.04205 0-0.0069 0.23522-0.24254 0.52271-0.52368 0.28749-0.28114 0.52764-0.51867 0.53354-0.52787 6e-3 -0.0092 0.05471-0.05897 0.10833-0.11063 0.2674-0.25762 0.42843-0.41985 0.43393-0.43707 0.0033-0.0105-0.05066-0.34221-0.12-0.73714-0.06933-0.39493-0.15498-0.8838-0.19032-1.0864s-0.06632-0.37716-0.06872-0.38795 2e-3 -0.02203 0.0099-0.02513c0.0079-3e-3 0.46572 0.22932 1.0174 0.51633l1.003 0.52184 1.0039-0.53239c0.55214-0.29281 1.0078-0.52844 1.0125-0.52374 0.0048 0.0048-0.07397 0.501-0.17495 1.1028-0.10098 0.60176-0.18368 1.1065-0.18368 1.1217-7.7e-5 0.0278 0.52511 0.55196 0.55304 0.55196 0.0063 0 9e-3 4e-3 6e-3 0.0088-3e-3 0.0049 0.23315 0.23937 0.52478 0.52114 0.29163 0.28177 0.53024 0.51659 0.53024 0.52179 0 0.0149-0.01761 0.01765-1.6954 0.2648-0.26217 0.03861-0.49414 0.07508-0.5155 0.08088l-0.03884 0.01067-0.45137 0.92219c-0.24825 0.5072-0.45137 0.93218-0.45137 0.94439v0.0222l4.4495-0.0074c2.7183-0.0046 4.4536-0.01144 4.4596-0.01754 0.01885-0.01885-0.05827-0.43212-0.14557-0.78024-0.16547-0.65969-0.42928-1.3103-0.76209-1.8796-0.1348-0.23057-0.38372-0.60108-0.41122-0.6122-0.0126-0.0051-0.0196-0.0097-0.0146-0.01003 0.05712-0.0046-0.56675-0.72545-0.89225-1.0309-1.5266-1.4327-3.5189-2.2897-5.795-2.4928-0.24733-0.02204-1.1443-0.01839-1.3921 0.0057-2.1461 0.20862-4.0459 1.0143-5.6604 2.4004-0.28191 0.24203-1.0405 1.0258-1.0702 1.1056-0.0017 0.0046-0.02364 0.02984-0.04875 0.0561-0.05618 0.05876-0.24015 0.30102-0.3774 0.49697-0.53759 0.76751-0.96304 1.6256-1.2621 2.5454-0.0391 0.1204-0.0544 0.18192-0.047 0.18932 0.0073 0.0073 0.5977 0.01313 1.7467 0.01733zm21.92 0.98888 1e-4 3e-6c-0.0106 0.02762-29.731 0.02832-29.742 7.04e-4 -0.0092-0.02411 0.0047-0.49405 0.02433-0.82207 0.2272-3.7884 1.9341-6.9613 4.9718-9.242 2.4849-1.8657 5.7146-2.9577 9.2083-3.1134 0.30981-0.0138 1.3317-0.01375 1.6304 8.7e-5 3.535 0.16382 6.9484 1.4833 9.5008 3.6726 1.638 1.405 2.8812 3.1382 3.5899 5.0048 0.0396 0.10427 0.0767 0.19805 0.0827 0.20839 0.0056 0.01034 0.0106 0.025 0.0106 0.0325-1e-4 0.0075 0.0436 0.14531 0.097 0.30619 0.3221 0.97024 0.50693 1.898 0.59093 2.9666 0.0194 0.24664 0.0448 0.96012 0.0348 0.98561zm-41.824-6.5684v16.25h54.167v-32.5h-54.167z" fill="#fafda5" stroke-width=".010833"/></clipPath><clipPath id="clipPath7687"><path id="path7689" d="m45.237 12.791c0-3.1501-2.2376-5.7031-4.9989-5.7031h-35.002c-2.7613 0-4.9989 2.5531-4.9989 5.7031v21.797c0 2.7612 2.2376 5 4.9989 5h35.002c2.7613 0 4.9989-2.2388 4.9989-5v-10.482z" fill="#8a1e04"/></clipPath></defs><g id="g7685" clip-path="url(#clipPath7687)"><rect id="rect7656" x="-4.3463" y="7.088" width="54.167" height="32.5" fill="#fff" fill-rule="evenodd" style="paint-order:stroke fill markers"/><g id="g7570" clip-path="url(#clipPath7671)"><path id="path1087" d="m45.237 12.791c0-3.1501-2.2376-5.7031-4.9989-5.7031h-35.002c-2.7613 0-4.9989 2.5531-4.9989 5.7031v21.797c0 2.7612 2.2376 5 4.9989 5h35.002c2.7613 0 4.9989-2.2388 4.9989-5v-10.482z" fill="#8a1e04"/><rect id="rect986" x=".237" y="7.088" width="45" height="4.6429" fill="#ff6691" fill-rule="evenodd" stroke-linecap="round" stroke-linejoin="round" stroke-opacity=".63003" stroke-width="1.5937" style="paint-order:stroke fill markers"/><rect id="rect986-0" x=".237" y="11.731" width="45" height="4.6429" fill="#ff9997" fill-rule="evenodd" stroke-linecap="round" stroke-linejoin="round" stroke-opacity=".63003" stroke-width="1.5937" style="paint-order:stroke fill markers"/><rect id="rect986-0-2" x=".237" y="16.374" width="45" height="4.6429" fill="#ffb782" fill-rule="evenodd" stroke-linecap="round" stroke-linejoin="round" stroke-opacity=".63003" stroke-width="1.5937" style="paint-order:stroke fill markers"/><rect id="rect986-0-2-1" x=".237" y="21.017" width="45" height="4.6429" fill="#fbffa6" fill-rule="evenodd" stroke-linecap="round" stroke-linejoin="round" stroke-opacity=".63003" stroke-width="1.5937" style="paint-order:stroke fill markers"/><rect id="rect986-4" transform="scale(1,-1)" x=".237" y="-39.588" width="45" height="4.6429" fill="#a317ff" fill-rule="evenodd" stroke-linecap="round" stroke-linejoin="round" stroke-opacity=".63003" stroke-width="1.5937" style="paint-order:stroke fill markers"/><rect id="rect986-0-4" transform="scale(1,-1)" x=".237" y="-34.945" width="45" height="4.6429" fill="#9c84ff" fill-rule="evenodd" stroke-linecap="round" stroke-linejoin="round" stroke-opacity=".63003" stroke-width="1.5937" style="paint-order:stroke fill markers"/><rect id="rect986-0-2-18" transform="scale(1,-1)" x=".237" y="-30.302" width="45" height="4.6429" fill="#84bbff" fill-rule="evenodd" stroke-linecap="round" stroke-linejoin="round" stroke-opacity=".63003" stroke-width="1.5937" style="paint-order:stroke fill markers"/></g></g></svg>
