<?xml version="1.0" encoding="UTF-8"?>
<!DOCTYPE svg  PUBLIC '-//W3C//DTD SVG 1.1//EN'  'http://www.w3.org/Graphics/SVG/1.1/DTD/svg11.dtd'>
<svg clip-rule="evenodd" fill-rule="evenodd" stroke-linejoin="round" stroke-miterlimit="1.4142" version="1.1" viewBox="0 0 32 32" xml:space="preserve" xmlns="http://www.w3.org/2000/svg">
<metadata>
<rdf:RDF xmlns:cc="http://web.resource.org/cc/" xmlns:dc="http://purl.org/dc/elements/1.1/" xmlns:rdf="http://www.w3.org/1999/02/22-rdf-syntax-ns#">

     <rdf:Description rdf:about="">
       <dc:title>Mutant Standard emoji 2023.12</dc:title>
     </rdf:Description>

    <cc:work rdf:about="">
        <cc:license rdf:resource="http://creativecommons.org/licenses/by-nc-sa/4.0/"/>
        <cc:attributionName>Caius Nocturne</cc:attributionName>
        <cc:attributionURL>http://mutant.tech/</cc:attributionURL>
    </cc:work>

</rdf:RDF>
</metadata>
<rect id="coyote" width="32" height="32" fill="none"/><clipPath id="_clip1"><rect width="32" height="32"/></clipPath><g clip-path="url(#_clip1)"><g id="outline"><path d="m28 8.709v4.966c0.394 1.182 0.793 2.362 1.181 3.546 0.258 0.815 0.462 1.645 0.599 2.49 0.138 0.845 0.206 1.697 0.219 2.552l1e-3 0.166v3.862l-0.846 0.522-1.154-0.577v3.055l-0.846 0.522-3.307-1.654-1.429 0.476-0.86 1.722c-0.095 0.182-0.203 0.355-0.331 0.515-0.365 0.457-0.863 0.802-1.419 0.982-0.267 0.086-0.541 0.13-0.82 0.144-1.963 0.038-3.926 2e-3 -5.889 2e-3 -0.275-5e-3 -0.545-0.04-0.809-0.116-0.595-0.171-1.13-0.528-1.517-1.012-0.128-0.16-0.236-0.333-0.33-0.515l-0.861-1.722-1.429-0.476-3.307 1.654-0.846-0.522v-3.055l-1.154 0.577-0.846-0.522c0-1.343-6e-3 -2.685 1e-3 -4.028 2e-3 -0.171 7e-3 -0.342 0.013-0.513 0.036-0.797 0.12-1.59 0.264-2.375 0.133-0.73 0.317-1.447 0.541-2.154l0.052-0.158 1.129-3.388v-4.966l0.846-0.522 3.387 1.693c0.865-0.216 1.73-0.435 2.596-0.648 0.164-0.039 0.329-0.077 0.494-0.114 0.55-0.117 1.103-0.218 1.66-0.295 1.221-0.169 2.457-0.235 3.689-0.197 1.065 0.032 2.128 0.142 3.177 0.329 0.498 0.088 0.992 0.196 1.483 0.316l2.435 0.609 3.387-1.693 0.846 0.522z"/></g><g id="emoji"><path d="m6 23-2 1v-1.566c0-1.612 0.26-3.214 0.77-4.743 0.563-1.691 1.23-3.691 1.23-3.691v-3l2 1s1.47-0.367 3.149-0.787c3.185-0.797 6.517-0.797 9.702 0 1.679 0.42 3.149 0.787 3.149 0.787l2-1v3s0.667 2 1.23 3.691c0.51 1.529 0.77 3.131 0.77 4.743v1.566l-2-1-8 3h-4l-8-3z" fill="#bb793a"/><path d="m26 23v4l-2-1-3 1s-0.79 1.581-1.224 2.447c-0.169 0.339-0.515 0.553-0.894 0.553h-5.764c-0.379 0-0.725-0.214-0.894-0.553-0.434-0.866-1.224-2.447-1.224-2.447l-3-1-2 1v-4l1.121-1.121c0.563-0.563 1.326-0.879 2.122-0.879h2.757v2c0 1.105 0.895 2 2 2h4c1.105 0 2-0.895 2-2v-2h2.757c0.796 0 1.559 0.316 2.122 0.879l1.121 1.121z" fill="#dac8ad"/><path d="m20 11v-1.292c0-2.272 1.284-4.35 3.317-5.366 2.911-1.456 6.683-3.342 6.683-3.342v7.686c0 2.122-0.843 4.157-2.343 5.657l-0.657 0.657" fill="#bb793a"/><path d="m28.707 7-2.707 2.707v3.293h-3v-1h2v-2.707l3-3 0.707 0.707z" fill="#6b3f21"/><path d="m12 11v-1.292c0-2.272-1.284-4.35-3.317-5.366-2.911-1.456-6.683-3.342-6.683-3.342v7.686c0 2.122 0.843 4.157 2.343 5.657l0.657 0.657" fill="#bb793a"/><path d="m19.854 17.837-0.712 0.711 0.613 0.93 0.027 0.043 0.027 0.047 0.026 0.048 0.024 0.049 0.022 0.05 0.021 0.051 0.018 0.051 0.017 0.052 0.015 0.052 0.012 0.053 0.011 0.054 9e-3 0.053 7e-3 0.055 5e-3 0.054 3e-3 0.055 1e-3 0.05v2.705h-1v-2.696-0.022l-1e-3 -0.019-4e-3 -0.036-3e-3 -0.018-4e-3 -0.018-4e-3 -0.017-5e-3 -0.018-0.012-0.034-7e-3 -0.017-7e-3 -0.016-8e-3 -0.017-0.018-0.032-0.012-0.019-1.057-1.603 1.288-1.289 0.708 0.708z" fill="#6b3f21"/><path d="m14.143 18.436-1.056 1.585-0.013 0.02-0.018 0.032-8e-3 0.017-8e-3 0.016-7e-3 0.017-6e-3 0.017-0.01 0.036-5e-3 0.017-3e-3 0.018-4e-3 0.018-2e-3 0.019-2e-3 0.018-1e-3 0.018v0.023 2.71h-1v-2.719l1e-3 -0.051 3e-3 -0.055 5e-3 -0.055 7e-3 -0.055 9e-3 -0.054 0.011-0.054 0.013-0.053 0.015-0.053 0.017-0.052 0.019-0.052 0.021-0.051 0.022-0.05 0.025-0.049 0.026-0.049 0.028-0.048 0.027-0.042 0.608-0.911-0.711-0.71 0.708-0.708 1.289 1.29z" fill="#6b3f21"/><path d="m18.996 27h0.03l0.026-1e-3 0.026-2e-3 0.024-2e-3 0.026-3e-3 0.05-8e-3 0.024-4e-3 0.024-6e-3 0.025-6e-3 0.023-6e-3 0.023-7e-3 0.024-8e-3 0.023-8e-3 0.022-8e-3 0.023-9e-3 0.044-0.02 0.022-0.011 0.021-0.011 0.021-0.012 0.021-0.013 0.021-0.012 0.02-0.014 0.02-0.013 0.019-0.014 0.038-0.03 0.054-0.048 0.034-0.034 0.016-0.018 0.017-0.018 0.015-0.018 0.03-0.038 0.014-0.019 0.013-0.02 0.014-0.02 0.012-0.021 0.013-0.021 0.012-0.021 0.011-0.021 0.011-0.022 0.02-0.044 9e-3 -0.023 9e-3 -0.022 7e-3 -0.023 8e-3 -0.023 0.014-0.048 5e-3 -0.024 6e-3 -0.024 4e-3 -0.024 8e-3 -0.05 3e-3 -0.025 2e-3 -0.025 2e-3 -0.026 1e-3 -0.026v-0.032l2e-3 -0.041 6e-3 -0.041 9e-3 -0.041 0.012-0.039 0.016-0.039 0.018-0.036 0.022-0.036 0.024-0.033 0.027-0.031 0.03-0.029 0.032-0.026 0.034-0.024 0.035-0.021 0.038-0.017 0.038-0.015 0.04-0.011 0.041-8e-3 0.041-5e-3 0.041-1e-3 0.041 2e-3 0.041 6e-3 0.041 9e-3 0.039 0.012 0.038 0.016 0.037 0.018 0.036 0.022 0.033 0.024 0.031 0.027 0.029 0.03 0.026 0.032 0.024 0.034 0.021 0.035 0.017 0.038 0.015 0.038 0.011 0.04 8e-3 0.041 5e-3 0.041 1e-3 0.041-1e-3 0.045-2e-3 0.052-3e-3 0.05-4e-3 0.051-6e-3 0.05-7e-3 0.05-8e-3 0.05-0.01 0.049-0.01 0.048-0.012 0.048-0.013 0.048-0.014 0.047-0.015 0.047-0.017 0.047-0.017 0.046-0.018 0.045-0.04 0.088-0.022 0.044-0.023 0.043-0.023 0.042-0.05 0.082-0.027 0.041-0.027 0.039-0.029 0.039-0.029 0.038-0.03 0.037-0.031 0.037-0.032 0.036-0.032 0.035-0.068 0.068-0.035 0.033-0.072 0.062-0.038 0.03-0.038 0.029-0.039 0.029-0.08 0.054-0.082 0.05-0.042 0.023-0.043 0.023-0.044 0.022-0.088 0.04-0.045 0.018-0.047 0.018-0.046 0.016-0.046 0.015-0.048 0.014-0.048 0.013-0.048 0.012-0.098 0.02-0.049 8e-3 -0.05 7e-3 -0.05 6e-3 -0.051 4e-3 -0.051 3e-3 -0.05 2e-3 -0.048 1e-3h-2.211l-0.793-0.793-0.793 0.793h-2.213l-0.048-1e-3 -0.05-2e-3 -0.051-3e-3 -0.051-4e-3 -0.05-6e-3 -0.05-7e-3 -0.049-8e-3 -0.098-0.02-0.049-0.012-0.046-0.013-0.048-0.014-0.046-0.015-0.047-0.016-0.046-0.018-0.045-0.018-0.088-0.04-0.044-0.022-0.043-0.023-0.042-0.023-0.041-0.024-0.082-0.052-0.078-0.056-0.038-0.029-0.037-0.03-0.037-0.031-0.036-0.032-0.034-0.032-0.035-0.034-0.033-0.035-0.033-0.034-0.032-0.036-0.031-0.037-0.03-0.037-0.029-0.038-0.028-0.039-0.027-0.039-0.027-0.041-0.025-0.04-0.025-0.042-0.024-0.042-0.022-0.043-0.022-0.044-0.04-0.088-0.018-0.045-0.018-0.046-0.016-0.046-0.015-0.047-0.014-0.047-0.013-0.048-0.012-0.048-0.02-0.098-8e-3 -0.049-7e-3 -0.05-6e-3 -0.05-4e-3 -0.051-3e-3 -0.051-2e-3 -0.051-1e-3 -0.048v-5e-3l2e-3 -0.041 5e-3 -0.041 8e-3 -0.041 0.012-0.039 0.015-0.039 0.018-0.037 0.021-0.035 0.024-0.034 0.027-0.032 0.029-0.029 0.032-0.027 0.034-0.024 0.035-0.021 0.037-0.018 0.039-0.015 0.039-0.012 0.041-8e-3 0.041-5e-3 0.041-2e-3 0.041 2e-3 0.041 5e-3 0.041 8e-3 0.039 0.012 0.039 0.015 0.037 0.018 0.035 0.021 0.034 0.024 0.032 0.027 0.029 0.029 0.027 0.032 0.024 0.034 0.021 0.035 0.018 0.037 0.015 0.039 0.012 0.039 8e-3 0.041 5e-3 0.041 2e-3 0.041v-1e-3 0.029l1e-3 0.026 2e-3 0.025 2e-3 0.026 3e-3 0.025 4e-3 0.025 4e-3 0.024 4e-3 0.025 6e-3 0.024 5e-3 0.024 7e-3 0.023 7e-3 0.024 7e-3 0.023 8e-3 0.023 9e-3 0.023 9e-3 0.022 0.01 0.023 0.01 0.021 0.011 0.022 0.011 0.021 0.012 0.022 0.012 0.02 0.013 0.021 0.013 0.02 0.014 0.019 0.014 0.02 0.03 0.038 0.015 0.018 0.016 0.018 0.017 0.018 0.016 0.017 0.017 0.016 0.018 0.017 0.018 0.016 0.018 0.015 0.038 0.03 0.02 0.014 0.019 0.014 0.02 0.013 0.021 0.013 0.02 0.012 0.022 0.012 0.022 0.011 0.02 0.011 0.022 0.01 0.023 0.01 0.023 9e-3 0.022 9e-3 0.023 8e-3 0.046 0.014 0.025 7e-3 0.023 5e-3 0.024 6e-3 0.025 4e-3 0.024 4e-3 0.026 4e-3 0.024 3e-3 0.025 2e-3 0.026 2e-3 0.026 1e-3h0.03 1.791l1.207-1.207 1.207 1.207h1.789z" fill="#755c35"/><path d="m23 17-0.447 0.894c-0.339 0.678-1.032 1.106-1.789 1.106h-1.764l-0.539-0.539c-0.255-0.255-0.255-0.667 0-0.922l1e-3 -1e-3c0.942-0.942 2.337-1.272 3.602-0.85 0.521 0.174 0.936 0.312 0.936 0.312z"/><path d="m9 17 0.447 0.894c0.339 0.678 1.032 1.106 1.789 1.106h1.764l0.539-0.539c0.255-0.255 0.255-0.667 0-0.922l-1e-3 -1e-3c-0.942-0.942-2.337-1.272-3.602-0.85-0.521 0.174-0.936 0.312-0.936 0.312z"/><path d="m7 9.293v2.707h2v1h-3v-3.293l-2.707-2.707 0.707-0.707 3 3z" fill="#6b3f21"/><path d="m15.414 23c-0.265 0-0.519 0.105-0.707 0.293l-0.197 0.197c-0.305 0.305-0.38 0.77-0.188 1.155 0.13 0.258 0.277 0.554 0.402 0.802 0.169 0.339 0.515 0.553 0.894 0.553h0.764c0.379 0 0.725-0.214 0.894-0.553 0.125-0.248 0.272-0.544 0.402-0.802 0.192-0.385 0.117-0.85-0.188-1.155l-0.197-0.197c-0.188-0.188-0.442-0.293-0.707-0.293h-1.172z"/><path d="m31 0c1e-3 2.933 0.018 5.865-1e-3 8.798-2e-3 0.112-5e-3 0.223-0.01 0.335-0.035 0.626-0.127 1.247-0.288 1.854-0.291 1.099-0.791 2.14-1.467 3.054-0.264 0.357-0.556 0.691-0.868 1.007l-1.366 1.366-1.414-1.414c0.489-0.49 0.999-0.984 1.485-1.488 0.276-0.294 0.529-0.607 0.753-0.942 0.49-0.735 0.839-1.563 1.023-2.428 0.102-0.48 0.15-0.968 0.153-1.459v-6.065c-1.772 0.886-3.551 1.757-5.315 2.658-0.078 0.042-0.155 0.085-0.231 0.129-0.323 0.195-0.626 0.419-0.899 0.68-0.664 0.631-1.147 1.443-1.384 2.328-0.114 0.425-0.167 0.86-0.171 1.3v2.287h-2c0-0.805-6e-3 -1.611 1e-3 -2.416 0.016-0.612 0.101-1.217 0.27-1.806 0.387-1.349 1.185-2.569 2.267-3.464 0.409-0.338 0.855-0.624 1.328-0.865l6.898-3.449h1.236zm-28.764 0 6.898 3.449c0.473 0.241 0.919 0.527 1.328 0.865 1.082 0.895 1.88 2.115 2.267 3.464 0.18 0.628 0.265 1.274 0.271 1.926v2.296h-2c0-0.793 6e-3 -1.587-1e-3 -2.381-0.01-0.379-0.056-0.754-0.148-1.123-0.243-0.973-0.783-1.862-1.533-2.528-0.329-0.292-0.694-0.534-1.086-0.734l-5.232-2.616c0 2.081-0.037 4.162 2e-3 6.242 4e-3 0.116 9e-3 0.231 0.017 0.346 0.03 0.372 0.085 0.74 0.172 1.103 0.191 0.805 0.527 1.573 0.985 2.261 0.257 0.385 0.552 0.74 0.876 1.068l1.362 1.362-1.414 1.414c-0.481-0.481-0.964-0.959-1.442-1.443-0.462-0.48-0.875-1.002-1.224-1.57-0.615-0.999-1.031-2.118-1.218-3.276-0.077-0.475-0.113-0.955-0.116-1.436v-8.689h1.236z"/></g></g></svg>
