<?xml version="1.0" encoding="UTF-8"?>
<!DOCTYPE svg  PUBLIC '-//W3C//DTD SVG 1.1//EN'  'http://www.w3.org/Graphics/SVG/1.1/DTD/svg11.dtd'>
<svg clip-rule="evenodd" fill-rule="evenodd" stroke-linejoin="round" stroke-miterlimit="1.4142" version="1.1" viewBox="0 0 32 32" xml:space="preserve" xmlns="http://www.w3.org/2000/svg">
<metadata>
<rdf:RDF xmlns:cc="http://web.resource.org/cc/" xmlns:dc="http://purl.org/dc/elements/1.1/" xmlns:rdf="http://www.w3.org/1999/02/22-rdf-syntax-ns#">

     <rdf:Description rdf:about="">
       <dc:title>Mutant Standard emoji 2023.12</dc:title>
     </rdf:Description>

    <cc:work rdf:about="">
        <cc:license rdf:resource="http://creativecommons.org/licenses/by-nc-sa/4.0/"/>
        <cc:attributionName>Caius Nocturne</cc:attributionName>
        <cc:attributionURL>http://mutant.tech/</cc:attributionURL>
    </cc:work>

</rdf:RDF>
</metadata>
<rect id="fox" width="32" height="32" fill="none"/><clipPath id="_clip1"><rect width="32" height="32"/></clipPath><g clip-path="url(#_clip1)"><g id="outline"><path d="m0 17.172 3.194-3.194 1-4 2.783-2.784c1.284-0.321 2.567-0.646 3.852-0.962 0.164-0.039 0.329-0.077 0.494-0.114 0.769-0.164 1.546-0.293 2.328-0.377 0.725-0.078 1.453-0.117 2.181-0.125h0.336c0.841 0.01 1.68 0.061 2.515 0.164 0.838 0.103 1.667 0.257 2.488 0.452l0.161 0.039 3.691 0.923 2.783 2.784 1 4 3.194 3.194v0.07l-0.087 0.538-1.537 0.768 1.624 1.624v0.07l-0.087 0.538-3.772 1.885-4.938 4.49-1.094 2.917-0.036 0.09c-0.093 0.211-0.201 0.412-0.337 0.599-0.375 0.517-0.915 0.907-1.524 1.1-0.257 0.081-0.52 0.121-0.788 0.137l-0.104 2e-3h-6.646c-0.225-4e-3 -0.448-0.028-0.668-0.079-0.659-0.155-1.256-0.536-1.674-1.069-0.186-0.237-0.33-0.5-0.441-0.78l-1.094-2.917c-4.019-3.653-3.852-3.947-8.71-6.375l-0.087-0.538v-0.07l1.624-1.624-1.537-0.768-0.087-0.538v-0.07z"/></g><g id="emoji"><path d="m5 18-2-1 2-2 1-4 2-2s1.47-0.367 3.149-0.787c3.185-0.797 6.517-0.797 9.702 0 1.679 0.42 3.149 0.787 3.149 0.787l2 2 1 4 2 2-2 1-11 11-11-11z" fill="#d76f29"/><path d="m5 18h0.82c0.776 0 1.541 0.181 2.236 0.528 0.849 0.425 1.993 0.997 2.574 1.287 0.237 0.118 0.417 0.326 0.501 0.578 0.132 0.396 0.342 1.025 0.522 1.565 0.216 0.649 0.749 1.142 1.412 1.308 1.185 0.297 2.935 0.734 2.935 0.734s1.75-0.437 2.935-0.734c0.663-0.166 1.196-0.659 1.412-1.308 0.18-0.54 0.39-1.169 0.522-1.565 0.084-0.252 0.264-0.46 0.501-0.578 0.581-0.29 1.725-0.862 2.574-1.287 0.695-0.347 1.46-0.528 2.236-0.528h0.82l2 2-2 1-5.5 5s-0.832 2.218-1.257 3.351c-0.146 0.39-0.519 0.649-0.936 0.649h-6.614c-0.417 0-0.79-0.259-0.936-0.649-0.425-1.133-1.257-3.351-1.257-3.351l-5.5-5-2-1 2-2z" fill="#fff"/><path d="m21 8c0-1.839 1.039-3.519 2.683-4.342 2.325-1.162 5.317-2.658 5.317-2.658v6.578c0 1.579-0.468 3.123-1.344 4.437-0.362 0.544-0.656 0.985-0.656 0.985" fill="#d76f29"/><path d="m11 8c0-1.839-1.039-3.519-2.683-4.342-2.325-1.162-5.317-2.658-5.317-2.658v6.578c0 1.579 0.468 3.123 1.344 4.437 0.362 0.544 0.656 0.985 0.656 0.985" fill="#d76f29"/><path d="m15 22c-0.552 0-1 0.448-1 1v0.131c0 0.335 0.167 0.647 0.445 0.833 0.295 0.196 0.685 0.456 1 0.666 0.336 0.224 0.774 0.224 1.11 0 0.315-0.21 0.705-0.47 1-0.666 0.278-0.186 0.445-0.498 0.445-0.833v-0.131c0-0.552-0.448-1-1-1h-2z"/><path d="m20.541 24.502 0.041 5e-3 0.041 8e-3 0.039 0.012 0.039 0.015 0.037 0.018 0.035 0.021 0.034 0.024 0.032 0.027 0.029 0.029 0.027 0.032 0.024 0.033 0.021 0.036 0.018 0.037 0.015 0.039 0.012 0.039 8e-3 0.041 5e-3 0.041 2e-3 0.041v0.363l-1e-3 0.053-1e-3 0.055-3e-3 0.055-0.01 0.11-0.014 0.108-9e-3 0.054-0.01 0.053-0.024 0.106-0.013 0.052-0.015 0.052-0.015 0.051-0.017 0.051-0.018 0.05-0.038 0.1-0.021 0.049-0.022 0.048-0.023 0.048-0.023 0.047-0.025 0.047-0.052 0.092-0.028 0.045-0.058 0.088-0.03 0.043-0.032 0.043-0.064 0.082-0.035 0.041-0.034 0.039-0.035 0.039-0.037 0.039-0.037 0.037-0.038 0.037-0.039 0.035-0.039 0.036-0.041 0.034-0.04 0.033-0.042 0.033-0.043 0.032-0.043 0.031-0.044 0.029-0.044 0.03-0.046 0.028-0.046 0.027-0.046 0.026-0.047 0.025-0.048 0.025-0.098 0.046-0.05 0.021-0.05 0.02-0.051 0.02-0.051 0.018-0.052 0.017-0.053 0.016-0.053 0.015-0.054 0.014-0.053 0.012-0.052 0.011-0.564 0.113-0.056 0.01-0.062 8e-3 -0.061 6e-3 -0.062 4e-3h-0.062l-0.062-2e-3 -0.062-4e-3 -0.061-7e-3 -0.06-9e-3 -0.061-0.012-0.06-0.015-0.06-0.017-0.059-0.019-0.058-0.022-0.057-0.024-0.052-0.025-1.474-0.737-1.474 0.737-0.052 0.025-0.057 0.024-0.058 0.022-0.059 0.019-0.06 0.017-0.06 0.015-0.061 0.012-0.06 9e-3 -0.061 7e-3 -0.062 4e-3 -0.062 2e-3h-0.062l-0.062-4e-3 -0.061-6e-3 -0.062-8e-3 -0.056-0.01-0.564-0.113-0.052-0.011-0.053-0.012-0.054-0.014-0.053-0.015-0.053-0.016-0.051-0.017-0.052-0.018-0.051-0.02-0.05-0.02-0.05-0.021-0.098-0.046-0.048-0.025-0.047-0.025-0.046-0.026-0.046-0.027-0.046-0.028-0.044-0.03-0.044-0.029-0.043-0.031-0.043-0.032-0.042-0.033-0.04-0.033-0.041-0.034-0.039-0.036-0.039-0.035-0.038-0.037-0.037-0.037-0.037-0.039-0.035-0.039-0.034-0.039-0.035-0.041-0.033-0.041-0.031-0.041-0.032-0.043-0.03-0.043-0.058-0.088-0.028-0.045-0.052-0.092-0.025-0.047-0.023-0.047-0.023-0.048-0.022-0.048-0.021-0.049-0.038-0.1-0.018-0.05-0.017-0.051-0.015-0.051-0.015-0.052-0.013-0.052-0.024-0.106-0.01-0.053-9e-3 -0.054-0.014-0.108-5e-3 -0.055-5e-3 -0.054-3e-3 -0.056-1e-3 -0.055-1e-3 -0.053v-0.363l2e-3 -0.041 5e-3 -0.041 8e-3 -0.041 0.012-0.039 0.015-0.039 0.018-0.037 0.021-0.036 0.024-0.033 0.027-0.032 0.029-0.029 0.032-0.027 0.034-0.024 0.035-0.021 0.037-0.018 0.039-0.015 0.039-0.012 0.041-8e-3 0.041-5e-3 0.041-2e-3 0.041 2e-3 0.041 5e-3 0.041 8e-3 0.039 0.012 0.039 0.015 0.037 0.018 0.035 0.021 0.034 0.024 0.032 0.027 0.029 0.029 0.027 0.032 0.024 0.033 0.021 0.036 0.018 0.037 0.015 0.039 0.012 0.039 8e-3 0.041 5e-3 0.041 2e-3 0.041v0.358 0.036l2e-3 0.033 1e-3 0.033 3e-3 0.034 3e-3 0.032 4e-3 0.033 5e-3 0.032 5e-3 0.033 6e-3 0.031 7e-3 0.032 7e-3 0.031 8e-3 0.032 9e-3 0.031 9e-3 0.03 0.01 0.031 0.022 0.06 0.012 0.029 0.012 0.03 0.013 0.029 0.014 0.029 0.014 0.028 0.015 0.028 0.016 0.028 0.032 0.054 0.017 0.027 0.036 0.052 0.019 0.025 0.019 0.026 0.02 0.025 0.02 0.023 0.021 0.024 0.022 0.024 0.021 0.023 0.023 0.022 0.022 0.022 0.024 0.022 0.023 0.021 0.024 0.02 0.025 0.021 0.025 0.019 0.026 0.019 0.025 0.018 0.027 0.019 0.054 0.034 0.027 0.016 0.028 0.016 0.029 0.015 0.028 0.015 0.029 0.014 0.029 0.013 0.03 0.013 0.031 0.012 0.03 0.012 0.031 0.01 0.031 0.011 0.031 9e-3 0.064 0.018 0.033 7e-3 0.036 8e-3 0.548 0.109 0.025 5e-3 0.021 3e-3 0.021 2e-3 0.02 1e-3h0.021l0.04-2e-3 0.021-2e-3 0.021-4e-3 0.02-4e-3 0.019-4e-3 0.021-6e-3 0.019-6e-3 0.019-8e-3 0.02-8e-3 0.023-0.011 1.912-0.956 1.912 0.956 0.023 0.011 0.02 8e-3 0.019 8e-3 0.019 6e-3 0.021 6e-3 0.019 4e-3 0.02 4e-3 0.021 4e-3 0.021 2e-3 0.04 2e-3h0.021l0.02-1e-3 0.021-2e-3 0.021-3e-3 0.025-5e-3 0.548-0.109 0.036-8e-3 0.033-7e-3 0.064-0.018 0.031-9e-3 0.031-0.011 0.031-0.01 0.03-0.012 0.031-0.012 0.03-0.013 0.029-0.013 0.029-0.014 0.028-0.015 0.029-0.015 0.028-0.016 0.027-0.016 0.054-0.034 0.027-0.019 0.025-0.018 0.026-0.019 0.025-0.019 0.025-0.021 0.024-0.02 0.023-0.021 0.024-0.022 0.022-0.022 0.023-0.022 0.021-0.023 0.022-0.024 0.021-0.024 0.02-0.023 0.02-0.025 0.019-0.026 0.019-0.025 0.036-0.052 0.017-0.027 0.032-0.054 0.016-0.028 0.015-0.028 0.014-0.028 0.014-0.029 0.013-0.029 0.012-0.03 0.012-0.029 0.022-0.06 0.01-0.031 9e-3 -0.03 9e-3 -0.031 8e-3 -0.032 7e-3 -0.031 7e-3 -0.032 6e-3 -0.031 5e-3 -0.033 5e-3 -0.032 4e-3 -0.033 3e-3 -0.032 3e-3 -0.033 1e-3 -0.034 2e-3 -0.033v-0.036-0.358l2e-3 -0.041 5e-3 -0.041 8e-3 -0.041 0.012-0.039 0.015-0.039 0.018-0.037 0.021-0.036 0.024-0.033 0.027-0.032 0.029-0.029 0.032-0.027 0.034-0.024 0.035-0.021 0.037-0.018 0.039-0.015 0.039-0.012 0.041-8e-3 0.041-5e-3 0.041-2e-3 0.041 2e-3z" fill="#666"/><path d="m30 0v7.582c-2e-3 0.165-2e-3 0.164-6e-3 0.328-0.026 0.552-0.091 1.099-0.212 1.638-0.169 0.752-0.434 1.481-0.788 2.165-0.152 0.294-0.322 0.576-0.503 0.853l-1.214 1.821-0.516-0.345-0.452-1.805c0.197-0.294 0.393-0.589 0.586-0.885 0.137-0.218 0.266-0.441 0.38-0.673 0.285-0.575 0.489-1.189 0.607-1.82 0.079-0.425 0.114-0.854 0.118-1.286v-4.955c-1.31 0.655-2.626 1.3-3.93 1.966-0.061 0.032-0.12 0.065-0.179 0.099-0.249 0.15-0.482 0.323-0.693 0.524-0.495 0.471-0.86 1.073-1.049 1.73-0.093 0.325-0.139 0.658-0.148 0.995l-0.01 1.077-2-0.018c4e-3 -0.399 2e-3 -0.799 0.013-1.198 0.022-0.511 0.102-1.015 0.251-1.504 0.334-1.09 0.989-2.073 1.867-2.8 0.342-0.283 0.715-0.521 1.11-0.723l5.532-2.766h1.236zm-26.764 0 5.532 2.766c0.425 0.217 0.825 0.478 1.187 0.789 0.866 0.742 1.504 1.735 1.818 2.831 0.142 0.492 0.213 0.999 0.226 1.51l0.01 1.095-2 0.018c-4e-3 -0.382-1e-3 -0.764-0.011-1.146-0.013-0.291-0.054-0.58-0.129-0.862-0.195-0.725-0.604-1.386-1.165-1.884-0.254-0.225-0.536-0.412-0.838-0.566l-3.866-1.933c0 1.696-0.014 3.393 1e-3 5.089 4e-3 0.129 4e-3 0.129 0.01 0.259 0.016 0.257 0.042 0.512 0.085 0.767 0.092 0.548 0.249 1.085 0.467 1.596 0.17 0.397 0.379 0.774 0.615 1.135l0.513 0.77-0.452 1.808-0.516 0.345-1.214-1.821c-0.211-0.323-0.407-0.655-0.578-1.001-0.365-0.739-0.628-1.529-0.779-2.34-0.101-0.543-0.147-1.091-0.152-1.643v-7.582h1.236z"/><path d="m7.572 11.135-0.972 0.972-0.707-0.707 0.535-0.535-2.06-6.181 0.948-0.316 2.256 6.767z" fill="#723a15"/><path d="m27.632 4.684-2.06 6.181 0.535 0.535-0.707 0.707-0.972-0.972 2.256-6.767 0.948 0.316z" fill="#723a15"/><path d="m20 17.793 0.565 0.565 0.047 0.049 0.048 0.056 0.046 0.059 0.042 0.06 0.039 0.062 0.037 0.064 0.032 0.065 0.03 0.067 0.026 0.068 0.023 0.07 0.02 0.071 0.016 0.071 0.013 0.073 9e-3 0.073 5e-3 0.074 2e-3 0.068v2.592h-1v-2.58l-1e-3 -0.031-2e-3 -0.024-3e-3 -0.025-4e-3 -0.024-5e-3 -0.024-0.014-0.046-9e-3 -0.023-0.01-0.022-0.011-0.022-0.012-0.021-0.013-0.021-0.014-0.02-0.015-0.019-0.017-0.019-0.021-0.023-0.849-0.849v-1.724h1v1.31z" fill="#723a15"/><path d="m13 18.207-0.849 0.849-0.022 0.023-0.016 0.018-0.015 0.02-0.014 0.02-0.013 0.021-0.012 0.021-0.011 0.022-0.01 0.022-9e-3 0.023-0.014 0.046-5e-3 0.024-4e-3 0.024-3e-3 0.025-2e-3 0.024-1e-3 0.031v2.597h-1v-2.609l2e-3 -0.068 5e-3 -0.074 9e-3 -0.073 0.013-0.073 0.016-0.071 0.02-0.071 0.023-0.07 0.026-0.068 0.03-0.067 0.033-0.065 0.036-0.064 0.039-0.062 0.042-0.06 0.046-0.058 0.048-0.057 0.047-0.049 0.565-0.565v-1.293h1v1.707z" fill="#723a15"/><path d="m24 16-1.121 1.121c-0.563 0.563-1.326 0.879-2.122 0.879h-1.757v-2s0.428-0.214 0.889-0.444c0.711-0.356 1.535-0.415 2.29-0.163 0.84 0.28 1.821 0.607 1.821 0.607z"/><path d="m8 16 1.121 1.121c0.563 0.563 1.326 0.879 2.122 0.879h1.757v-2s-0.428-0.214-0.889-0.444c-0.711-0.356-1.535-0.415-2.29-0.163-0.84 0.28-1.821 0.607-1.821 0.607z"/></g></g></svg>
