<?xml version="1.0" encoding="UTF-8"?>
<!DOCTYPE svg  PUBLIC '-//W3C//DTD SVG 1.1//EN'  'http://www.w3.org/Graphics/SVG/1.1/DTD/svg11.dtd'>
<svg clip-rule="evenodd" fill-rule="evenodd" stroke-linejoin="round" stroke-miterlimit="1.4142" version="1.1" viewBox="0 0 32 32" xml:space="preserve" xmlns="http://www.w3.org/2000/svg">
<metadata>
<rdf:RDF xmlns:cc="http://web.resource.org/cc/" xmlns:dc="http://purl.org/dc/elements/1.1/" xmlns:rdf="http://www.w3.org/1999/02/22-rdf-syntax-ns#">

     <rdf:Description rdf:about="">
       <dc:title>Mutant Standard emoji 2023.12</dc:title>
     </rdf:Description>

    <cc:work rdf:about="">
        <cc:license rdf:resource="http://creativecommons.org/licenses/by-nc-sa/4.0/"/>
        <cc:attributionName>Caius Nocturne</cc:attributionName>
        <cc:attributionURL>http://mutant.tech/</cc:attributionURL>
    </cc:work>

</rdf:RDF>
</metadata>
<rect id="jackal" width="32" height="32" fill="none"/><clipPath id="_clip1"><rect width="32" height="32"/></clipPath><g clip-path="url(#_clip1)"><g id="outline"><path d="m27 10.93v7.242l2.01 2.009-0.097 0.599-2.23 1.114 1.13 2.26-0.522 0.846h-3.13l-3.145 5.503c-0.099 0.166-0.209 0.325-0.337 0.471-0.365 0.418-0.846 0.73-1.377 0.894-0.255 0.078-0.516 0.117-0.781 0.131-1.652 0.024-3.304 1e-3 -4.956 1e-3 -0.195-3e-3 -0.389-0.021-0.582-0.06-0.543-0.11-1.052-0.373-1.456-0.752-0.214-0.202-0.393-0.433-0.543-0.685l-3.145-5.503h-3.13l-0.522-0.846 1.13-2.26-2.23-1.114-0.097-0.599 2.01-2.009v-8.614l4.675-1.558h12.931c1.464 0.977 2.929 1.953 4.394 2.93z" fill-rule="nonzero"/></g><g id="emoji"><path d="m22 10 3 2v7l1 1-2 1-4 5h-8l-4-5-2-1 1-1v-8l3-1h12z" fill="#ae7c31"/><path d="m8 21h0.172c0.53 0 1.039 0.211 1.414 0.586l2.414 2.414h8l2.414-2.414c0.375-0.375 0.884-0.586 1.414-0.586h0.172l1 2h-2s-2.795 4.891-3.712 6.496c-0.178 0.312-0.509 0.504-0.868 0.504h-4.84c-0.359 0-0.69-0.192-0.868-0.504l-3.712-6.496h-2l1-2z" fill="#d5b76b"/><path d="m15.414 23c-0.265 0-0.519 0.105-0.707 0.293l-0.197 0.197c-0.305 0.305-0.38 0.77-0.188 1.155 0.13 0.258 0.277 0.554 0.402 0.802 0.169 0.339 0.515 0.553 0.894 0.553h0.764c0.379 0 0.725-0.214 0.894-0.553 0.125-0.248 0.272-0.544 0.402-0.802 0.192-0.385 0.117-0.85-0.188-1.155l-0.197-0.197c-0.188-0.188-0.442-0.293-0.707-0.293h-1.172z"/><path d="m20 10v-1e-3c0-1.849 1.01-3.55 2.633-4.435 3.254-1.775 8.367-4.564 8.367-4.564v4.784c0 1.45-0.394 2.873-1.14 4.116-0.486 0.81-1.025 1.708-1.397 2.329-0.305 0.508-0.719 0.941-1.211 1.27-0.889 0.592-2.252 1.501-2.252 1.501" fill="#ae7c31"/><path d="m12 10v-1e-3c0-1.849-1.01-3.55-2.633-4.435-3.254-1.775-8.367-4.564-8.367-4.564v4.784c0 1.45 0.394 2.873 1.14 4.116 0.486 0.81 1.025 1.708 1.397 2.329 0.305 0.508 0.719 0.941 1.211 1.27 0.889 0.592 2.252 1.501 2.252 1.501" fill="#ae7c31"/><path d="m20.724 18.93-1.724 0.862v1e-3l0.565 0.565 0.047 0.049 0.048 0.056 0.046 0.059 0.042 0.06 0.039 0.062 0.036 0.064 0.033 0.065 0.03 0.067 0.026 0.068 0.023 0.07 0.02 0.071 0.016 0.071 0.013 0.073 9e-3 0.073 5e-3 0.074 2e-3 0.068v2.592h-1v-2.58l-1e-3 -0.031-2e-3 -0.024-3e-3 -0.025-4e-3 -0.024-5e-3 -0.024-0.014-0.046-9e-3 -0.023-0.01-0.022-0.011-0.022-0.012-0.021-0.013-0.021-0.014-0.02-0.015-0.019-0.017-0.019-0.021-0.023-0.849-0.849v-1.033l2.276-1.138 0.448 0.894z" fill="#583f19"/><path d="m14 19.191v1.016l-0.849 0.849-0.022 0.023-0.016 0.019-0.015 0.019-0.014 0.02-0.013 0.021-0.012 0.021-0.011 0.022-0.01 0.022-9e-3 0.023-0.014 0.046-5e-3 0.024-4e-3 0.024-3e-3 0.025-2e-3 0.024-1e-3 0.031v2.597h-1v-2.609l2e-3 -0.068 5e-3 -0.074 9e-3 -0.073 0.013-0.073 0.016-0.071 0.02-0.071 0.023-0.07 0.026-0.068 0.03-0.067 0.032-0.065 0.037-0.064 0.039-0.062 0.042-0.06 0.046-0.059 0.048-0.056 0.047-0.049 0.554-0.554-1.713-0.857 0.448-0.894 2.276 1.138z" fill="#583f19"/><path d="m16.841 26.86 0.039 0.018 0.041 0.017 0.04 0.015 0.041 0.015 0.042 0.012 0.041 0.012 0.043 0.011 0.042 9e-3 0.042 8e-3 0.043 7e-3 0.043 6e-3 0.044 4e-3 0.043 3e-3 0.044 2e-3 0.047 1e-3h0.985 0.02l0.03-2e-3 0.016-2e-3 0.015-2e-3 0.045-9e-3 0.016-4e-3 0.013-5e-3 0.03-0.01 0.013-5e-3 0.014-7e-3 0.015-6e-3 0.013-7e-3 0.013-8e-3 0.013-7e-3 0.012-8e-3 0.026-0.018 0.012-9e-3 0.011-0.01 0.012-0.01 0.012-0.011 0.011-0.011 0.02-0.022 0.02-0.024 9e-3 -0.013 0.011-0.016 0.701-1.051 0.023-0.032 0.025-0.03 0.028-0.028 0.03-0.025 0.032-0.023 0.033-0.021 0.035-0.018 0.036-0.015 0.038-0.012 0.038-9e-3 0.039-6e-3 0.039-4e-3h0.039l0.039 3e-3 0.039 7e-3 0.038 9e-3 0.038 0.012 0.036 0.015 0.035 0.017 0.033 0.021 0.032 0.023 0.03 0.025 0.028 0.028 0.025 0.03 0.023 0.032 0.021 0.033 0.018 0.035 0.015 0.036 0.012 0.038 9e-3 0.038 6e-3 0.039 4e-3 0.039v0.039l-3e-3 0.039-7e-3 0.039-9e-3 0.038-0.012 0.038-0.015 0.036-0.017 0.035-0.021 0.033-0.705 1.058-0.025 0.036-0.027 0.037-0.029 0.037-0.03 0.035-0.031 0.035-0.032 0.034-0.032 0.032-0.034 0.031-0.034 0.03-0.036 0.03-0.037 0.028-0.036 0.027-0.037 0.025-0.039 0.025-0.04 0.023-0.039 0.023-0.041 0.021-0.041 0.019-0.041 0.018-0.043 0.018-0.043 0.016-0.043 0.014-0.045 0.014-0.088 0.022-0.045 9e-3 -0.046 8e-3 -0.047 7e-3 -0.045 4e-3 -0.046 4e-3 -0.048 2e-3 -0.042 1e-3h-1l-0.07-1e-3 -0.072-3e-3 -0.072-5e-3 -0.072-8e-3 -0.072-9e-3 -0.072-0.012-0.071-0.013-0.07-0.016-0.07-0.017-0.07-0.02-0.069-0.022-0.069-0.024-0.067-0.025-0.067-0.028-0.066-0.029-0.062-0.03-0.358-0.179-0.358 0.179-0.062 0.03-0.066 0.029-0.067 0.028-0.067 0.025-0.069 0.024-0.069 0.022-0.07 0.02-0.07 0.017-0.07 0.016-0.071 0.013-0.072 0.012-0.072 9e-3 -0.072 8e-3 -0.072 5e-3 -0.072 3e-3 -0.07 1e-3h-1l-0.042-1e-3 -0.048-2e-3 -0.046-4e-3 -0.045-4e-3 -0.047-7e-3 -0.046-8e-3 -0.045-9e-3 -0.088-0.022-0.045-0.014-0.043-0.014-0.043-0.016-0.043-0.018-0.041-0.018-0.041-0.019-0.041-0.021-0.039-0.023-0.04-0.023-0.039-0.025-0.037-0.025-0.036-0.027-0.037-0.028-0.036-0.03-0.034-0.03-0.034-0.031-0.032-0.032-0.032-0.034-0.031-0.035-0.03-0.035-0.029-0.037-0.027-0.037-0.025-0.036-0.705-1.058-0.021-0.033-0.017-0.035-0.015-0.036-0.012-0.038-9e-3 -0.038-7e-3 -0.039-3e-3 -0.039v-0.039l4e-3 -0.039 6e-3 -0.039 9e-3 -0.038 0.012-0.038 0.015-0.036 0.018-0.035 0.021-0.033 0.023-0.032 0.025-0.03 0.028-0.028 0.03-0.025 0.032-0.023 0.033-0.021 0.035-0.017 0.036-0.015 0.038-0.012 0.038-9e-3 0.039-7e-3 0.039-3e-3h0.039l0.039 4e-3 0.039 6e-3 0.038 9e-3 0.038 0.012 0.036 0.015 0.035 0.018 0.033 0.021 0.032 0.023 0.03 0.025 0.028 0.028 0.025 0.03 0.023 0.032 0.701 1.051 0.011 0.016 9e-3 0.013 0.02 0.024 0.02 0.022 0.011 0.011 0.012 0.011 0.012 0.01 0.011 0.01 0.012 9e-3 0.026 0.018 0.012 8e-3 0.013 7e-3 0.013 8e-3 0.013 7e-3 0.015 6e-3 0.014 7e-3 0.013 5e-3 0.03 0.01 0.013 5e-3 0.016 4e-3 0.045 9e-3 0.015 2e-3 0.016 2e-3 0.03 2e-3h0.02 0.985l0.047-1e-3 0.044-2e-3 0.043-3e-3 0.044-4e-3 0.043-6e-3 0.043-7e-3 0.042-8e-3 0.042-9e-3 0.043-0.011 0.041-0.012 0.042-0.012 0.041-0.015 0.04-0.015 0.041-0.017 0.039-0.018 0.043-0.02 0.798-0.399 0.798 0.399 0.043 0.02z" fill="#61451b"/><path d="m23 18-1.121 1.121c-0.563 0.563-1.326 0.879-2.122 0.879h-1.757v-1.402c0-0.366 0.207-0.702 0.535-0.866h1e-3c0.937-0.469 2.023-0.546 3.017-0.214 0.732 0.244 1.447 0.482 1.447 0.482z"/><path d="m9 18 1.121 1.121c0.563 0.563 1.326 0.879 2.122 0.879h1.757v-1.402c0-0.366-0.207-0.702-0.535-0.866h-1e-3c-0.937-0.469-2.023-0.546-3.017-0.214-0.732 0.244-1.447 0.482-1.447 0.482z"/><path d="m29.207 5.5-4.207 4.207v3.293h-3v-1h2v-2.707l4.5-4.5 0.707 0.707z" fill="#583f19"/><path d="m8 9.293v2.707h2v1h-3v-3.293l-4.207-4.207 0.707-0.707 4.5 4.5z" fill="#583f19"/><path d="m1.255 0 8.595 4.688c0.387 0.216 0.752 0.466 1.086 0.758 0.858 0.752 1.494 1.746 1.817 2.841 0.154 0.523 0.232 1.063 0.246 1.608l1e-3 0.1v1.005h-2c0-0.376 7e-3 -0.76-2e-3 -1.14-3e-3 -0.069-7e-3 -0.137-0.013-0.206-0.025-0.272-0.073-0.54-0.15-0.801-0.204-0.69-0.592-1.32-1.117-1.811-0.251-0.236-0.532-0.435-0.833-0.602l-6.885-3.755c0 1.072-8e-3 2.145 1e-3 3.218 3e-3 0.119 3e-3 0.118 8e-3 0.237 0.026 0.433 0.084 0.862 0.186 1.284 0.157 0.654 0.412 1.275 0.742 1.859 0.501 0.85 0.988 1.709 1.524 2.537 0.217 0.324 0.488 0.601 0.808 0.824l0.037 0.025 3.015 2.01-1.321 1.321v0.202c-0.976-0.646-1.96-1.281-2.921-1.95-0.075-0.053-0.148-0.109-0.221-0.166-0.433-0.348-0.803-0.758-1.105-1.225-0.508-0.806-0.982-1.633-1.473-2.45-0.282-0.481-0.527-0.98-0.721-1.503-0.263-0.712-0.436-1.456-0.513-2.211-0.03-0.302-0.043-0.605-0.046-0.909v-5.788h1.255zm29.49 0h1.255v5.789c-1e-3 0.15-1e-3 0.15-5e-3 0.301-0.024 0.557-0.09 1.11-0.211 1.656-0.143 0.641-0.357 1.267-0.637 1.862-0.108 0.23-0.227 0.454-0.352 0.675-0.509 0.864-1.014 1.73-1.548 2.578-0.2 0.31-0.43 0.598-0.692 0.859-0.229 0.227-0.479 0.428-0.746 0.609l-2.809 1.873v-0.202l-1.321-1.321c1.041-0.692 2.105-1.353 3.12-2.083 0.314-0.232 0.577-0.517 0.785-0.846 0.498-0.819 0.992-1.641 1.479-2.467 0.136-0.241 0.262-0.486 0.371-0.741 0.217-0.506 0.373-1.037 0.466-1.58 0.067-0.391 0.097-0.785 0.1-1.182v-3.095c-2.317 1.263-4.644 2.508-6.949 3.791-0.06 0.034-0.119 0.07-0.178 0.107-0.248 0.161-0.479 0.344-0.689 0.553-0.507 0.508-0.875 1.151-1.055 1.847-0.086 0.334-0.126 0.676-0.129 1.02v0.997h-2c0-0.368-2e-3 -0.736 1e-3 -1.105 0.014-0.545 0.092-1.085 0.246-1.608 0.323-1.095 0.959-2.089 1.817-2.841 0.334-0.292 0.699-0.542 1.086-0.758l8.595-4.688z"/></g></g></svg>
