<?xml version="1.0" encoding="UTF-8"?>
<!DOCTYPE svg  PUBLIC '-//W3C//DTD SVG 1.1//EN'  'http://www.w3.org/Graphics/SVG/1.1/DTD/svg11.dtd'>
<svg clip-rule="evenodd" fill-rule="evenodd" stroke-linejoin="round" stroke-miterlimit="1.4142" version="1.1" viewBox="0 0 32 32" xml:space="preserve" xmlns="http://www.w3.org/2000/svg">
<metadata>
<rdf:RDF xmlns:cc="http://web.resource.org/cc/" xmlns:dc="http://purl.org/dc/elements/1.1/" xmlns:rdf="http://www.w3.org/1999/02/22-rdf-syntax-ns#">

     <rdf:Description rdf:about="">
       <dc:title>Mutant Standard emoji 2023.12</dc:title>
     </rdf:Description>

    <cc:work rdf:about="">
        <cc:license rdf:resource="http://creativecommons.org/licenses/by-nc-sa/4.0/"/>
        <cc:attributionName>Caius Nocturne</cc:attributionName>
        <cc:attributionURL>http://mutant.tech/</cc:attributionURL>
    </cc:work>

</rdf:RDF>
</metadata>
<rect id="wolf" width="32" height="32" fill="none"/><clipPath id="_clip1"><rect width="32" height="32"/></clipPath><g clip-path="url(#_clip1)"><g id="outline"><path d="m0 19.675 3-9v-4.675h4.754c1.025-0.256 2.049-0.516 3.074-0.768 0.165-0.039 0.33-0.077 0.495-0.114 0.66-0.14 1.324-0.256 1.994-0.338 0.835-0.103 1.674-0.154 2.515-0.164 0.168-1e-3 0.168-1e-3 0.336 0 0.841 0.01 1.68 0.061 2.515 0.164 0.838 0.102 1.668 0.257 2.489 0.452l0.16 0.039 2.914 0.729h4.754v4.675l3 9v2.325h-1.225l0.836 2.508-0.354 0.492h-4.037l-3.357 0.746-1.806 3.611-0.04 0.079c-0.104 0.182-0.219 0.356-0.356 0.516-0.381 0.444-0.89 0.771-1.452 0.932-0.236 0.068-0.475 0.101-0.72 0.114-2.296 0.04-4.592 2e-3 -6.888 2e-3 -0.206-4e-3 -0.41-0.023-0.611-0.066-0.605-0.129-1.163-0.449-1.581-0.904-0.186-0.203-0.339-0.429-0.466-0.673l-1.806-3.611c-3.641-0.809-3.663-0.746-7.394-0.746l-0.354-0.492 0.836-2.508h-1.225v-2.325z"/></g><g id="emoji"><path d="m12.618 29h6.764-6.764zm-4.618-21 3.149-0.787c3.185-0.797 6.517-0.797 9.702 0 1.679 0.42 3.149 0.787 3.149 0.787h3v3l3 9h-2l-6 3h-12l-6-3h-2l3-9v-3h3z" fill="#646464"/><path d="m28 20 1 3h-2l-4.5 1s-1.573 3.146-2.224 4.447c-0.169 0.339-0.515 0.553-0.894 0.553h-6.764c-0.379 0-0.725-0.214-0.894-0.553-0.651-1.301-2.224-4.447-2.224-4.447l-4.5-1h-2l1-3 4-2v3l3-1-1 2h12l-1-2 3 1v-3l4 2z" fill="#c2c2c2"/><path d="m28 12h-0.929c-0.787 0-1.555-0.186-2.246-0.533l-0.238-0.607s-0.448-0.249-0.607 0.07c-0.155-0.122-0.304-0.254-0.444-0.394l-1.536-1.536-1-2 2.5 2h4.5v3z" fill="#c2c2c2"/><path d="m4 12h0.929c0.787 0 1.555-0.186 2.246-0.533l0.238-0.607s0.448-0.249 0.607 0.07c0.155-0.122 0.304-0.254 0.444-0.394l2.536-2.536-2.5 1h-4.5v3z" fill="#c2c2c2"/><path d="m19.999 8c1e-3 -0.051 2e-3 -0.102 3e-3 -0.152 0.013-0.355 0.057-0.706 0.138-1.051 0.082-0.345 0.2-0.679 0.347-1.001 0.231-0.491 0.487-0.98 0.726-1.459 0.129-0.25 0.267-0.494 0.422-0.729 0.388-0.585 0.864-1.112 1.407-1.556 0.365-0.298 0.759-0.553 1.173-0.776 0.481-0.247 0.967-0.485 1.451-0.727 0.258-0.124 0.527-0.217 0.81-0.267 0.155-0.028 0.312-0.04 0.47-0.046 0.095 0 0.094 0 0.189 3e-3 0.349 0.021 0.689 0.091 1.013 0.225 0.769 0.319 1.382 0.958 1.669 1.74 0.111 0.302 0.166 0.615 0.182 0.935 0.021 1.338 0.01 2.676 0 4.014-7e-3 0.322-0.027 0.642-0.066 0.962-0.045 0.364-0.115 0.723-0.201 1.079l-1.004 4.019-1.941-0.485c0.344-1.373 0.697-2.744 1.029-4.119 0.055-0.244 0.101-0.49 0.132-0.739 0.03-0.248 0.045-0.497 0.051-0.748 0.01-1.317 0.063-2.636-1e-3 -3.951-0.011-0.138-0.046-0.271-0.11-0.394-0.173-0.334-0.529-0.547-0.906-0.541-0.128 3e-3 -0.252 0.031-0.37 0.079-0.5 0.22-0.98 0.482-1.466 0.731-0.296 0.16-0.577 0.342-0.838 0.555-0.362 0.296-0.682 0.643-0.949 1.028-0.114 0.166-0.217 0.339-0.313 0.517-0.253 0.494-0.508 0.989-0.745 1.492-0.189 0.415-0.291 0.859-0.301 1.315l-7e-3 1.043-1.993-0.996h-1e-3zm-9.992 0.996c-2e-3 -0.373 4e-3 -0.759-0.01-1.137-4e-3 -0.078-0.01-0.156-0.019-0.234-0.044-0.359-0.144-0.703-0.299-1.03-0.238-0.485-0.479-0.968-0.725-1.449-0.096-0.178-0.199-0.351-0.313-0.517-0.267-0.385-0.587-0.732-0.949-1.028-0.261-0.213-0.542-0.395-0.838-0.555-0.486-0.249-0.966-0.511-1.466-0.731-0.118-0.048-0.242-0.076-0.37-0.079-0.377-6e-3 -0.733 0.207-0.906 0.541-0.064 0.123-0.099 0.256-0.11 0.394-0.064 1.315-0.011 2.634-1e-3 3.951 6e-3 0.286 0.026 0.571 0.065 0.855 0.035 0.249 0.085 0.495 0.144 0.74l1.003 4.011-1.941 0.485c-0.345-1.383-0.701-2.764-1.036-4.149-0.071-0.314-0.129-0.63-0.169-0.949-0.039-0.32-0.059-0.64-0.066-0.962-0.01-1.308-1e-3 -2.617-1e-3 -3.925 5e-3 -0.318 0.052-0.632 0.152-0.935 0.272-0.821 0.901-1.498 1.7-1.829 0.324-0.134 0.664-0.204 1.013-0.225 0.095-3e-3 0.094-3e-3 0.189-3e-3 0.222 8e-3 0.44 0.033 0.656 0.085 0.188 0.046 0.368 0.112 0.544 0.19 0.473 0.227 0.94 0.468 1.409 0.702 0.292 0.15 0.575 0.314 0.846 0.501 0.577 0.399 1.093 0.886 1.527 1.438 0.261 0.333 0.487 0.69 0.688 1.064 0.269 0.523 0.538 1.047 0.789 1.58 0.147 0.322 0.265 0.656 0.347 1.001 0.081 0.345 0.125 0.696 0.138 1.051l2e-3 0.152-1.993 0.996z"/><path d="m21.996 8.569 4e-3 -0.616c0.01-0.456 0.112-0.9 0.301-1.315 0.237-0.503 0.492-0.998 0.745-1.492 0.096-0.178 0.199-0.351 0.313-0.517 0.267-0.385 0.587-0.732 0.949-1.028 0.261-0.213 0.542-0.395 0.838-0.555 0.486-0.249 0.966-0.511 1.466-0.731 0.118-0.048 0.242-0.076 0.37-0.079 0.377-6e-3 0.733 0.207 0.906 0.541 0.064 0.123 0.099 0.256 0.11 0.394 0.064 1.315 0.011 2.634 1e-3 3.951-6e-3 0.251-0.021 0.5-0.051 0.748-0.031 0.249-0.077 0.495-0.132 0.739-0.232 0.96-0.474 1.918-0.716 2.877l-5.104-2.917z" fill="#c2c2c2"/><path d="m4.902 11.485-0.692-2.768c-0.059-0.245-0.109-0.491-0.144-0.74-0.039-0.284-0.059-0.569-0.065-0.855-0.01-1.317-0.063-2.636 1e-3 -3.951 0.011-0.138 0.046-0.271 0.11-0.394 0.173-0.334 0.529-0.547 0.906-0.541 0.128 3e-3 0.252 0.031 0.37 0.079 0.5 0.22 0.98 0.482 1.466 0.731 0.296 0.16 0.577 0.342 0.838 0.555 0.362 0.296 0.682 0.643 0.949 1.028 0.114 0.166 0.217 0.339 0.313 0.517 0.246 0.481 0.487 0.964 0.725 1.449 0.155 0.327 0.255 0.671 0.299 1.03 9e-3 0.078 0.015 0.156 0.019 0.234 8e-3 0.235 9e-3 0.473 9e-3 0.709l-5.104 2.917z" fill="#c2c2c2"/><path d="m23.98 10.93c0.159-0.319 0.318-0.639 0.475-0.959 0.216-0.456 0.374-0.937 0.462-1.435 0.055-0.316 0.081-0.634 0.083-0.954v-2.582h1v2.585c-4e-3 0.566-0.074 1.127-0.22 1.674-0.113 0.425-0.272 0.835-0.465 1.23l-0.49 0.978c-0.298-0.149-0.581-0.329-0.845-0.537z" fill="#4c4c4c"/><path d="m8.02 10.93c-0.159-0.319-0.318-0.639-0.475-0.959-0.216-0.456-0.374-0.937-0.462-1.435-0.055-0.316-0.081-0.634-0.083-0.954v-2.582h-1v2.585c4e-3 0.566 0.074 1.127 0.22 1.674 0.113 0.425 0.272 0.835 0.465 1.23l0.49 0.978c0.298-0.149 0.581-0.329 0.845-0.537z" fill="#4c4c4c"/><path d="m15 21c-0.552 0-1 0.448-1 1v0.586c0 0.265 0.105 0.519 0.293 0.707l0.414 0.414c0.188 0.188 0.442 0.293 0.707 0.293h1.172c0.265 0 0.519-0.105 0.707-0.293l0.414-0.414c0.188-0.188 0.293-0.442 0.293-0.707v-0.586c0-0.552-0.448-1-1-1h-2z"/><path d="m20 17.849 1.75 2.625 0.028 0.043 0.028 0.048 0.026 0.048 0.025 0.05 0.022 0.05 0.021 0.051 0.019 0.052 0.017 0.052 0.015 0.053 0.013 0.054 0.011 0.053 9e-3 0.054 7e-3 0.055 5e-3 0.055 3e-3 0.055 1e-3 0.051v0.702h-1v-0.693-0.023l-1e-3 -0.018-2e-3 -0.018-3e-3 -0.019-6e-3 -0.036-5e-3 -0.018-4e-3 -0.017-6e-3 -0.017-6e-3 -0.018-7e-3 -0.017-8e-3 -0.016-8e-3 -0.017-0.018-0.032-0.012-0.019-1.914-2.871v-0.668h1v0.366z" fill="#353535"/><path d="m13 18.151-1.914 2.871-0.012 0.019-0.018 0.032-8e-3 0.017-8e-3 0.016-7e-3 0.017-6e-3 0.018-6e-3 0.017-4e-3 0.017-5e-3 0.018-6e-3 0.036-3e-3 0.019-2e-3 0.018-1e-3 0.018v0.023 0.71h-1v-0.719l1e-3 -0.051 3e-3 -0.055 5e-3 -0.055 7e-3 -0.055 9e-3 -0.054 0.011-0.053 0.013-0.054 0.015-0.053 0.017-0.052 0.019-0.052 0.021-0.051 0.022-0.05 0.025-0.05 0.026-0.048 0.028-0.048 0.028-0.043 1.75-2.625v-0.349h1v0.651z" fill="#353535"/><path d="m21.044 23.502 0.043 6e-3 0.042 9e-3 0.042 0.013 0.04 0.017 0.039 0.02 0.037 0.023 0.034 0.027 0.033 0.029 0.029 0.033 0.027 0.034 0.023 0.037 0.02 0.039 0.017 0.04 0.013 0.042 9e-3 0.042 6e-3 0.043 2e-3 0.044v0.561 0.048l-4e-3 0.1-4e-3 0.05-4e-3 0.049-0.012 0.098-0.016 0.098-9e-3 0.048-0.01 0.048-0.011 0.048-0.012 0.047-0.013 0.047-0.014 0.047-0.03 0.092-0.017 0.046-0.017 0.045-0.019 0.047-0.038 0.086-0.042 0.087-0.045 0.085-0.049 0.083-0.051 0.081-0.055 0.079-0.057 0.077-0.061 0.075-0.064 0.072-0.066 0.07-0.069 0.067-0.07 0.063-0.038 0.033-0.038 0.031-0.038 0.03-0.038 0.029-0.04 0.029-0.04 0.028-0.041 0.027-0.041 0.026-0.041 0.025-0.043 0.026-0.043 0.024-0.043 0.023-0.088 0.044-0.046 0.021-0.045 0.019-0.046 0.019-0.047 0.019-0.047 0.017-0.045 0.015-1.831 0.611-1.962-0.981-1.962 0.981-1.831-0.611-0.045-0.015-0.047-0.017-0.047-0.019-0.046-0.019-0.045-0.019-0.046-0.021-0.088-0.044-0.043-0.023-0.043-0.024-0.043-0.026-0.041-0.025-0.041-0.026-0.041-0.027-0.04-0.028-0.04-0.029-0.038-0.029-0.038-0.03-0.038-0.031-0.038-0.033-0.07-0.063-0.069-0.067-0.066-0.07-0.064-0.072-0.061-0.075-0.057-0.077-0.055-0.079-0.051-0.081-0.049-0.083-0.045-0.085-0.042-0.087-0.038-0.086-0.019-0.047-0.017-0.045-0.017-0.046-0.03-0.092-0.014-0.047-0.013-0.047-0.012-0.047-0.011-0.048-0.01-0.048-9e-3 -0.048-0.016-0.098-0.012-0.098-4e-3 -0.05-4e-3 -0.049-4e-3 -0.1v-0.048-0.561l2e-3 -0.044 6e-3 -0.043 9e-3 -0.042 0.013-0.042 0.017-0.04 0.02-0.039 0.023-0.037 0.027-0.034 0.029-0.033 0.033-0.029 0.034-0.027 0.037-0.023 0.039-0.02 0.04-0.017 0.042-0.013 0.042-9e-3 0.043-6e-3 0.044-2e-3 0.044 2e-3 0.043 6e-3 0.042 9e-3 0.042 0.013 0.04 0.017 0.039 0.02 0.037 0.023 0.034 0.027 0.033 0.029 0.029 0.033 0.027 0.034 0.023 0.037 0.02 0.039 0.017 0.04 0.013 0.042 9e-3 0.042 6e-3 0.043 2e-3 0.044v0.556 0.033l1e-3 0.03 6e-3 0.09 4e-3 0.029 4e-3 0.03 4e-3 0.029 0.01 0.058 7e-3 0.029 6e-3 0.028 7e-3 0.028 8e-3 0.029 8e-3 0.028 9e-3 0.028 9e-3 0.027 0.01 0.027 0.011 0.027 0.01 0.025 0.024 0.056 0.025 0.051 0.027 0.051 0.029 0.05 0.031 0.049 0.033 0.047 0.035 0.047 0.036 0.045 0.038 0.043 0.04 0.042 0.041 0.04 0.045 0.041 0.021 0.017 0.022 0.018 0.046 0.036 0.024 0.017 0.023 0.017 0.024 0.016 0.025 0.016 0.026 0.015 0.025 0.015 0.052 0.028 0.026 0.013 0.027 0.014 0.054 0.024 0.084 0.033 0.031 0.01 1.434 0.478 2.038-1.019 2.038 1.019 1.434-0.478 0.031-0.01 0.084-0.033 0.054-0.024 0.027-0.014 0.026-0.013 0.052-0.028 0.025-0.015 0.026-0.015 0.025-0.016 0.024-0.016 0.023-0.017 0.024-0.017 0.046-0.036 0.022-0.018 0.021-0.017 0.045-0.041 0.041-0.04 0.04-0.042 0.038-0.043 0.036-0.045 0.035-0.047 0.033-0.047 0.031-0.049 0.029-0.05 0.027-0.05 0.025-0.052 0.024-0.056 0.01-0.025 0.011-0.027 0.01-0.027 9e-3 -0.028 9e-3 -0.027 8e-3 -0.028 8e-3 -0.029 7e-3 -0.028 6e-3 -0.028 7e-3 -0.029 0.01-0.058 4e-3 -0.029 4e-3 -0.03 4e-3 -0.029 6e-3 -0.09 1e-3 -0.03v-0.033-0.556l2e-3 -0.044 6e-3 -0.043 9e-3 -0.042 0.013-0.042 0.017-0.04 0.02-0.039 0.023-0.037 0.027-0.034 0.029-0.033 0.033-0.029 0.034-0.027 0.037-0.023 0.039-0.02 0.04-0.017 0.042-0.013 0.042-9e-3 0.043-6e-3 0.044-2e-3 0.044 2e-3z" fill="#4c4c4c"/><rect x="19" y="15" width="5" height="1"/><rect x="8" y="15" width="5" height="1"/><path d="m23 15v0.558c0 0.861-0.551 1.626-1.368 1.898-0.791 0.264-1.632 0.544-1.632 0.544h-1v-3h4z"/><path d="m9 15v0.558c0 0.861 0.551 1.626 1.368 1.898 0.791 0.264 1.632 0.544 1.632 0.544h1v-3h-4z"/></g></g></svg>
