<?xml version="1.0" encoding="UTF-8"?>
<!DOCTYPE svg  PUBLIC '-//W3C//DTD SVG 1.1//EN'  'http://www.w3.org/Graphics/SVG/1.1/DTD/svg11.dtd'>
<svg clip-rule="evenodd" fill-rule="evenodd" stroke-linejoin="round" stroke-miterlimit="1.4142" version="1.1" viewBox="0 0 32 32" xml:space="preserve" xmlns="http://www.w3.org/2000/svg">
<metadata>
<rdf:RDF xmlns:cc="http://web.resource.org/cc/" xmlns:dc="http://purl.org/dc/elements/1.1/" xmlns:rdf="http://www.w3.org/1999/02/22-rdf-syntax-ns#">

     <rdf:Description rdf:about="">
       <dc:title>Mutant Standard emoji 2023.12</dc:title>
     </rdf:Description>

    <cc:work rdf:about="">
        <cc:license rdf:resource="http://creativecommons.org/licenses/by-nc-sa/4.0/"/>
        <cc:attributionName>Caius Nocturne</cc:attributionName>
        <cc:attributionURL>http://mutant.tech/</cc:attributionURL>
    </cc:work>

</rdf:RDF>
</metadata>
<rect id="crt" width="32" height="32" fill="none"/><clipPath id="_clip1"><rect width="32" height="32"/></clipPath><g clip-path="url(#_clip1)"><g id="outline"><rect width="32" height="32"/></g><g id="emoji"><path d="m30 2h-28v22l1 0.5-1 0.5v5h28v-5l-1-0.5 1-0.5v-22z" fill="#4d4d4d"/><rect x="4" y="26" width="2" height="1" fill="#808080"/><rect x="4" y="28" width="2" height="1" fill="#808080"/><rect x="2" y="24" width="28" height="1" fill="#333"/><rect x="7" y="26" width="2" height="1" fill="#808080"/><rect x="7" y="28" width="2" height="1" fill="#808080"/><rect x="10" y="26" width="2" height="1" fill="#808080"/><rect x="25" y="26" width="3" height="3" fill="#219555"/><circle cx="14.5" cy="27.5" r="1.5" fill="#333"/><circle cx="18.5" cy="27.5" r="1.5" fill="#333"/><circle cx="22.5" cy="27.5" r="1.5" fill="#333"/><rect x="10" y="28" width="2" height="1" fill="#808080"/><path d="m28 6c0-0.53-0.211-1.039-0.586-1.414s-0.884-0.586-1.414-0.586h-20c-0.53 0-1.039 0.211-1.414 0.586s-0.586 0.884-0.586 1.414v14c0 0.53 0.211 1.039 0.586 1.414s0.884 0.586 1.414 0.586h20c0.53 0 1.039-0.211 1.414-0.586s0.586-0.884 0.586-1.414v-14z"/><path d="m22.612 5.001c0.148 6e-3 0.296 0.015 0.443 0.033 0.364 0.045 0.723 0.136 1.065 0.268 0.55 0.212 1.056 0.532 1.482 0.938 0.507 0.483 0.899 1.084 1.135 1.743 0.111 0.311 0.188 0.634 0.229 0.962 0.018 0.148 0.027 0.295 0.033 0.443 0.013 1.037 1e-3 2.075 1e-3 3.112-6e-3 0.234-0.053 0.46-0.158 0.671-0.081 0.161-0.191 0.307-0.323 0.43-0.132 0.122-0.287 0.221-0.454 0.288-0.143 0.059-0.295 0.095-0.449 0.107-0.548 0.042-1.087-0.228-1.382-0.691-0.096-0.152-0.165-0.322-0.202-0.498-0.016-0.076-0.024-0.152-0.03-0.23-0.027-1.05 0.035-2.102-4e-3 -3.152-9e-3 -0.147-0.036-0.292-0.086-0.431-0.142-0.395-0.45-0.719-0.838-0.88-0.159-0.066-0.328-0.101-0.5-0.112-2.356-0.088-4.716-2e-3 -7.074-2e-3 -0.078-2e-3 -0.154-6e-3 -0.231-0.018-0.178-0.028-0.351-0.088-0.508-0.177-0.478-0.27-0.775-0.795-0.761-1.344 4e-3 -0.154 0.032-0.308 0.083-0.454 0.06-0.17 0.15-0.329 0.265-0.468 0.116-0.138 0.256-0.256 0.413-0.344 0.205-0.116 0.428-0.175 0.662-0.193 2.395-0.062 4.793-0.03 7.189-1e-3z" fill="#333" fill-rule="nonzero"/></g></g></svg>
