<?xml version="1.0" encoding="UTF-8"?>
<svg clip-rule="evenodd" fill-rule="evenodd" stroke-linejoin="round" stroke-miterlimit="1.4142" viewBox="0 0 32 32" xmlns="http://www.w3.org/2000/svg">
 <clipPath id="a">
  <path d="m0 0h32v32h-32z" clip-rule="evenodd"/>
 </clipPath>
 <path d="m0 0h32v32h-32z" fill="none"/>
 <g clip-path="url(#a)">
  <path d="m0 0h32v32h-32z"/>
  <path d="m30 2h-28v22l1 .5-1 .5v5h28v-5l-1-.5 1-.5z" fill="#4d4d4d"/>
  <path d="m2 24h28v1h-28z" fill="#333"/>
  <g fill="#808080">
   <path d="m4 26h2v1h-2z"/>
   <path d="m4 28h2v1h-2z"/>
   <path d="m7 26h2v1h-2z"/>
   <path d="m7 28h2v1h-2z"/>
   <path d="m10 26h2v1h-2z"/>
   <path d="m10 28h2v1h-2z"/>
  </g>
  <path d="m25 26h3v3h-3z" fill="#219555"/>
  <circle cx="14.5" cy="27.5" r="1.5" fill="#333"/>
  <circle cx="18.5" cy="27.5" r="1.5" fill="#333"/>
  <circle cx="22.5" cy="27.5" r="1.5" fill="#333"/>
  <path d="m28 6c0-0.53-0.211-1.039-0.586-1.414s-0.884-0.586-1.414-0.586h-20c-0.53 0-1.039 0.211-1.414 0.586s-0.586 0.884-0.586 1.414v14c0 0.53 0.211 1.039 0.586 1.414s0.884 0.586 1.414 0.586h20c0.53 0 1.039-0.211 1.414-0.586s0.586-0.884 0.586-1.414v-14z" fill="#2243fd"/>
  <path d="m17 18h6v2h-6z" fill="#fff"/>
  <path d="m24 18h2v2h-2z" fill="#fff"/>
 </g>
</svg>
