<?xml version="1.0" encoding="UTF-8"?>
<!DOCTYPE svg  PUBLIC '-//W3C//DTD SVG 1.1//EN'  'http://www.w3.org/Graphics/SVG/1.1/DTD/svg11.dtd'>
<svg clip-rule="evenodd" fill-rule="evenodd" stroke-linejoin="round" stroke-miterlimit="1.4142" version="1.1" viewBox="0 0 32 32" xml:space="preserve" xmlns="http://www.w3.org/2000/svg">
<metadata>
<rdf:RDF xmlns:cc="http://web.resource.org/cc/" xmlns:dc="http://purl.org/dc/elements/1.1/" xmlns:rdf="http://www.w3.org/1999/02/22-rdf-syntax-ns#">

     <rdf:Description rdf:about="">
       <dc:title>Mutant Standard emoji 2023.12</dc:title>
     </rdf:Description>

    <cc:work rdf:about="">
        <cc:license rdf:resource="http://creativecommons.org/licenses/by-nc-sa/4.0/"/>
        <cc:attributionName>Caius Nocturne</cc:attributionName>
        <cc:attributionURL>http://mutant.tech/</cc:attributionURL>
    </cc:work>

</rdf:RDF>
</metadata>
<rect id="crt_noise" width="32" height="32" fill="none"/><clipPath id="_clip1"><rect width="32" height="32"/></clipPath><g clip-path="url(#_clip1)"><g id="outline"><rect width="32" height="32"/></g><g id="emoji"><path d="m30 2h-28v22l1 0.5-1 0.5v5h28v-5l-1-0.5 1-0.5v-22z" fill="#4d4d4d"/><rect x="2" y="24" width="28" height="1" fill="#333"/><g fill="#808080"><rect x="4" y="26" width="2" height="1"/><rect x="4" y="28" width="2" height="1"/><rect x="7" y="26" width="2" height="1"/><rect x="7" y="28" width="2" height="1"/><rect x="10" y="26" width="2" height="1"/><rect x="10" y="28" width="2" height="1"/></g><g fill="#333"><circle cx="14.5" cy="27.5" r="1.5"/><circle cx="18.5" cy="27.5" r="1.5"/><circle cx="22.5" cy="27.5" r="1.5"/></g><rect x="25" y="26" width="3" height="3" fill="#219555"/><path d="m21 22-1-0.176s-0.599 0.084-1 0.176h-2l-1-0.323-1 0.323h-5l-1-0.233-1 0.233h-1c-0.469-0.326-1-0.444-1-0.444s-0.484-3e-3 -0.968 0.194c-0.163-0.09-0.313-0.202-0.446-0.336-0.134-0.133-0.246-0.283-0.336-0.446 0.014-0.771-0.015-1.464-0.015-1.464s-0.083-1.017-0.235-1.504v-6c0.189-0.767 0.361-2.416 0.361-2.416s-0.198-1.996-0.361-2.584v-1c0-0.53 0.211-1.039 0.586-1.414s0.884-0.586 1.414-0.586h3l1 1 1-1h13c0 0.871 0.735 1 1 1s1-0.129 1-1c0.531 0 1.039 0.211 1.414 0.586s0.586 0.883 0.586 1.414c-0.408 0.752-1 3-1 3l1 2v9c0 0.201-0.03 0.399-0.088 0.588-0.486 0.253-0.912 0.412-0.912 0.412l-1 1h-3c-0.437-0.107-1-0.306-1-0.306l-1 0.306z" fill="#e6e6e6"/><path d="m21 22c0-0.552 0.448-1 1-1v-3c0-0.265 0.105-0.52 0.293-0.707 0.187-0.188 0.442-0.293 0.707-0.293 0-0.552 0.448-1 1-1s1 0.448 1 1v1c0 0.552-0.448 1-1 1v2c0 0.265-0.105 0.52-0.293 0.707-0.187 0.188-0.442 0.293-0.707 0.293h-2zm-2 0c-0.552 0-1-0.448-1-1v-1c0-0.552 0.448-1 1-1s1 0.448 1 1c0.265 0 0.52 0.105 0.707 0.293 0.188 0.187 0.293 0.442 0.293 0.707v1h-2zm-4 0v-2c0-0.265 0.105-0.52 0.293-0.707 0.187-0.188 0.442-0.293 0.707-0.293s0.52 0.105 0.707 0.293c0.188 0.187 0.293 0.442 0.293 0.707v2h-2zm-4 0c-0.265 0-0.52-0.105-0.707-0.293-0.188-0.187-0.293-0.442-0.293-0.707v-2c-0.552 0-1-0.448-1-1v-1c0-0.552 0.448-1 1-1s1 0.448 1 1v-1c0-0.552 0.448-1 1-1s1 0.448 1 1v1c0 0.552-0.448 1-1 1v3c0 0.265-0.105 0.52-0.293 0.707-0.187 0.188-0.442 0.293-0.707 0.293zm-3 0v-1c0-0.265 0.105-0.52 0.293-0.707 0.187-0.188 0.442-0.293 0.707-0.293s0.52 0.105 0.707 0.293c0.188 0.187 0.293 0.442 0.293 0.707v1h-2zm-2.968-0.25c0.111-0.431 0.502-0.75 0.968-0.75 0.552 0 1 0.448 1 1h-1c-0.342 0-0.675-0.087-0.968-0.25zm20.968 0.25v-1c0-0.552 0.448-1 1-1 0.405 0 0.755 0.241 0.912 0.588-0.096 0.309-0.265 0.593-0.498 0.826-0.375 0.375-0.883 0.586-1.414 0.586zm-22-4c0.552 0 1 0.448 1 1v1c0 0.466-0.319 0.857-0.75 0.968-0.163-0.293-0.25-0.626-0.25-0.968v-2zm12-1c0-0.552-0.448-1-1-1s-1 0.448-1 1v1c0 0.552 0.448 1 1 1s1-0.448 1-1v-1zm-6.974-9c0.54 0.014 0.974 0.456 0.974 1v1c0.265 0 0.52 0.105 0.707 0.293 0.188 0.187 0.293 0.442 0.293 0.707v-1c0-0.552 0.448-1 1-1s1 0.448 1 1v1c0 0.552-0.448 1-1 1s-1-0.448-1-1v3c0 0.265-0.105 0.52-0.293 0.707-0.187 0.188-0.442 0.293-0.707 0.293s-0.52-0.105-0.707-0.293c-0.188-0.187-0.293-0.442-0.293-0.707v-1.001 1e-3c0 0.265-0.105 0.52-0.293 0.707-0.187 0.188-0.442 0.293-0.707 0.293v4c0 0.265-0.105 0.52-0.293 0.707-0.187 0.188-0.442 0.293-0.707 0.293s-0.52-0.105-0.707-0.293c-0.188-0.187-0.293-0.442-0.293-0.707v-1c-0.552 0-1-0.448-1-1v-1c0-0.552 0.448-1 1-1 0-0.265 0.105-0.52 0.293-0.707 0.187-0.188 0.442-0.293 0.707-0.293v-3c0-0.265 0.105-0.52 0.293-0.707 0.187-0.188 0.442-0.293 0.707-0.293 0-0.552 0.448-1 1-1h0.026zm10.974 8v-1c0-0.265 0.105-0.52 0.293-0.707 0.187-0.188 0.442-0.293 0.707-0.293s0.52 0.105 0.707 0.293c0.188 0.187 0.293 0.442 0.293 0.707v3c0 0.265-0.105 0.52-0.293 0.707-0.187 0.188-0.442 0.293-0.707 0.293s-0.52-0.105-0.707-0.293c-0.188-0.187-0.293-0.442-0.293-0.707v-1c0 0.552-0.448 1-1 1s-1-0.448-1-1v-1c0-0.552 0.448-1 1-1s1 0.448 1 1zm8-10v6c0 0.265-0.105 0.52-0.293 0.707-0.187 0.188-0.442 0.293-0.707 0.293v3c0 0.265-0.105 0.52-0.293 0.707-0.187 0.188-0.442 0.293-0.707 0.293s-0.52-0.105-0.707-0.293c-0.188-0.187-0.293-0.442-0.293-0.707v-4c-0.552 0-1-0.448-1-1v-1c0-0.552 0.448-1 1-1s1 0.448 1 1v-2c0-0.265 0.105-0.52 0.293-0.707 0.187-0.188 0.442-0.293 0.707-0.293 0-0.265 0.105-0.52 0.293-0.707 0.187-0.188 0.442-0.293 0.707-0.293zm-9 6v1c0 0.265-0.105 0.52-0.293 0.707-0.187 0.188-0.442 0.293-0.707 0.293v1c0 0.552-0.448 1-1 1s-1-0.448-1-1v-1c0-0.552 0.448-1 1-1v-3c0-0.265 0.105-0.52 0.293-0.707 0.187-0.188 0.442-0.293 0.707-0.293s0.52 0.105 0.707 0.293c0.188 0.187 0.293 0.442 0.293 0.707v1c0-0.552 0.448-1 1-1s1 0.448 1 1v1c0 0.552-0.448 1-1 1s-1-0.448-1-1zm-2-8c0.265 0 0.52 0.105 0.707 0.293 0.188 0.187 0.293 0.442 0.293 0.707v3c0 0.265-0.105 0.52-0.293 0.707-0.187 0.188-0.442 0.293-0.707 0.293s-0.52-0.105-0.707-0.293c-0.188-0.187-0.293-0.442-0.293-0.707v3c0 0.265-0.105 0.52-0.293 0.707-0.187 0.188-0.442 0.293-0.707 0.293v3c0 0.265-0.105 0.52-0.293 0.707-0.187 0.188-0.442 0.293-0.707 0.293s-0.52-0.105-0.707-0.293c-0.188-0.187-0.293-0.442-0.293-0.707v-4c0-0.265 0.105-0.52 0.293-0.707 0.187-0.188 0.442-0.293 0.707-0.293v-3c0-0.265 0.105-0.52 0.293-0.707 0.187-0.188 0.442-0.293 0.707-0.293s0.52 0.105 0.707 0.293c0.188 0.187 0.293 0.442 0.293 0.707v-2c0-0.265 0.105-0.52 0.293-0.707 0.187-0.188 0.442-0.293 0.707-0.293zm7 9c0-0.552-0.448-1-1-1s-1 0.448-1 1v1c0 0.552 0.448 1 1 1s1-0.448 1-1v-1zm-20-6c0.265 0 0.52 0.105 0.707 0.293 0.188 0.187 0.293 0.442 0.293 0.707v3c0 0.265-0.105 0.52-0.293 0.707-0.187 0.188-0.442 0.293-0.707 0.293v-5zm18-3c0.265 0 0.52 0.105 0.707 0.293 0.188 0.187 0.293 0.442 0.293 0.707v4c0 0.265-0.105 0.52-0.293 0.707-0.187 0.188-0.442 0.293-0.707 0.293s-0.52-0.105-0.707-0.293c-0.188-0.187-0.293-0.442-0.293-0.707v-1c0 0.552-0.448 1-1 1s-1-0.448-1-1v-1c0-0.552 0.448-1 1-1s1 0.448 1 1v-2c0-0.265 0.105-0.52 0.293-0.707 0.187-0.188 0.442-0.293 0.707-0.293zm4 0v3c0 0.265-0.105 0.52-0.293 0.707-0.187 0.188-0.442 0.293-0.707 0.293s-0.52-0.105-0.707-0.293c-0.188-0.187-0.293-0.442-0.293-0.707v-3h2zm-17 0h2v3c0 0.265-0.105 0.52-0.293 0.707-0.187 0.188-0.442 0.293-0.707 0.293s-0.52-0.105-0.707-0.293c-0.188-0.187-0.293-0.442-0.293-0.707v-3zm-2 0c0.552 0 1 0.448 1 1v1c0 0.552-0.448 1-1 1s-1-0.448-1-1v-1c0-0.552 0.448-1 1-1z" fill="#808080"/></g></g></svg>
