<?xml version="1.0" encoding="UTF-8"?>
<!DOCTYPE svg  PUBLIC '-//W3C//DTD SVG 1.1//EN'  'http://www.w3.org/Graphics/SVG/1.1/DTD/svg11.dtd'>
<svg clip-rule="evenodd" fill-rule="evenodd" stroke-linejoin="round" stroke-miterlimit="1.4142" version="1.1" viewBox="0 0 32 32" xml:space="preserve" xmlns="http://www.w3.org/2000/svg">
<metadata>
<rdf:RDF xmlns:cc="http://web.resource.org/cc/" xmlns:dc="http://purl.org/dc/elements/1.1/" xmlns:rdf="http://www.w3.org/1999/02/22-rdf-syntax-ns#">

     <rdf:Description rdf:about="">
       <dc:title>Mutant Standard emoji 2023.12</dc:title>
     </rdf:Description>

    <cc:work rdf:about="">
        <cc:license rdf:resource="http://creativecommons.org/licenses/by-nc-sa/4.0/"/>
        <cc:attributionName>Caius Nocturne</cc:attributionName>
        <cc:attributionURL>http://mutant.tech/</cc:attributionURL>
    </cc:work>

</rdf:RDF>
</metadata>
<rect id="crt_green_lines" width="32" height="32" fill="none"/><clipPath id="_clip1"><rect width="32" height="32"/></clipPath><g clip-path="url(#_clip1)"><g id="outline"><rect width="32" height="32"/></g><g id="emoji"><path d="m30 2h-28v22l1 0.5-1 0.5v5h28v-5l-1-0.5 1-0.5v-22z" fill="#4d4d4d"/><rect x="2" y="24" width="28" height="1" fill="#333"/><g fill="#808080"><rect x="4" y="26" width="2" height="1"/><rect x="4" y="28" width="2" height="1"/><rect x="7" y="26" width="2" height="1"/><rect x="7" y="28" width="2" height="1"/><rect x="10" y="26" width="2" height="1"/><rect x="10" y="28" width="2" height="1"/></g><rect x="25" y="26" width="3" height="3" fill="#219555"/><g fill="#333"><circle cx="14.5" cy="27.5" r="1.5"/><circle cx="18.5" cy="27.5" r="1.5"/><circle cx="22.5" cy="27.5" r="1.5"/></g><path d="m24 4 1 0.501 1-0.501h2e-3c1.103 0 1.998 0.895 1.998 1.998v2.002l-0.157 0.23 0.037 8.55 0.12 0.205v3.015c0 1.105-0.895 2-2 2h-6l-1-0.239-1 0.239h-6l-1-0.211-1 0.211h-4l-1.664-2 0.014-6.683-0.35-0.317v-7c0-0.53 0.211-1.039 0.586-1.414 0.124-0.125 0.264-0.231 0.414-0.318l1 0.304 1-0.572h5l1 0.376 1-0.376h2l1 0.535 1-0.535h6z"/><path d="m6 4h1v4h-2v-3.732c0.301-0.174 0.646-0.268 1-0.268z" fill="#060"/><rect x="8" y="7" width="2" height="7" fill="#060"/><rect x="8" y="13" width="2" height="3" fill="#0f0"/><rect x="10" y="14" width="2" height="7" fill="#060"/><rect x="10" y="20" width="2" height="2" fill="#0f0"/><rect x="12" y="4" width="2" height="5" fill="#060"/><rect x="12" y="8" width="2" height="3" fill="#0f0"/><rect x="18" y="15" width="2" height="7" fill="#060"/><rect x="18" y="21" width="2" height="1" fill="#0f0"/><rect x="16" y="4" width="2" height="2" fill="#060"/><rect x="16" y="5" width="2" height="3" fill="#0f0"/><rect x="22" y="12" width="2" height="7" fill="#060"/><rect x="22" y="18" width="2" height="3" fill="#0f0"/><rect x="5" y="7" width="2" height="3" fill="#0f0"/><rect x="24" y="4" width="2" height="5" fill="#060"/><rect x="24" y="8" width="2" height="3" fill="#0f0"/><rect x="15" y="11" width="2" height="7" fill="#060"/><rect x="15" y="17" width="2" height="3" fill="#0f0"/><rect x="27" y="8" width="1" height="7" fill="#060"/><rect x="27" y="14" width="1" height="3" fill="#0f0"/><rect x="4" y="13" width="2" height="7" fill="#060"/><path d="m6 19h-2v1c0 1.105 0.895 2 2 2v-3z" fill="#0f0"/><rect x="20" y="5" width="2" height="7" fill="#060"/><rect x="20" y="11" width="2" height="3" fill="#0f0"/></g></g></svg>
