<?xml version="1.0" encoding="UTF-8"?>
<!DOCTYPE svg  PUBLIC '-//W3C//DTD SVG 1.1//EN'  'http://www.w3.org/Graphics/SVG/1.1/DTD/svg11.dtd'>
<svg clip-rule="evenodd" fill-rule="evenodd" stroke-linejoin="round" stroke-miterlimit="1.4142" version="1.1" viewBox="0 0 32 32" xml:space="preserve" xmlns="http://www.w3.org/2000/svg">
<metadata>
<rdf:RDF xmlns:cc="http://web.resource.org/cc/" xmlns:dc="http://purl.org/dc/elements/1.1/" xmlns:rdf="http://www.w3.org/1999/02/22-rdf-syntax-ns#">

     <rdf:Description rdf:about="">
       <dc:title>Mutant Standard emoji 2023.12</dc:title>
     </rdf:Description>

    <cc:work rdf:about="">
        <cc:license rdf:resource="http://creativecommons.org/licenses/by-nc-sa/4.0/"/>
        <cc:attributionName>Caius Nocturne</cc:attributionName>
        <cc:attributionURL>http://mutant.tech/</cc:attributionURL>
    </cc:work>

</rdf:RDF>
</metadata>
<rect id="crt_blue_screen" width="32" height="32" fill="none"/><clipPath id="_clip1"><rect width="32" height="32"/></clipPath><g clip-path="url(#_clip1)"><g id="outline"><rect width="32" height="32"/></g><g id="emoji"><path d="m30 2h-28v22l1 0.5-1 0.5v5h28v-5l-1-0.5 1-0.5v-22z" fill="#4d4d4d"/><rect x="2" y="24" width="28" height="1" fill="#333"/><g fill="#808080"><rect x="4" y="26" width="2" height="1"/><rect x="4" y="28" width="2" height="1"/><rect x="7" y="26" width="2" height="1"/><rect x="7" y="28" width="2" height="1"/><rect x="10" y="26" width="2" height="1"/><rect x="10" y="28" width="2" height="1"/></g><rect x="25" y="26" width="3" height="3" fill="#219555"/><g fill="#333"><circle cx="14.5" cy="27.5" r="1.5"/><circle cx="18.5" cy="27.5" r="1.5"/><circle cx="22.5" cy="27.5" r="1.5"/></g><path d="m28 6c0-0.53-0.211-1.039-0.586-1.414s-0.884-0.586-1.414-0.586h-20c-0.53 0-1.039 0.211-1.414 0.586s-0.586 0.884-0.586 1.414v14c0 0.53 0.211 1.039 0.586 1.414s0.884 0.586 1.414 0.586h20c0.53 0 1.039-0.211 1.414-0.586s0.586-0.884 0.586-1.414v-14z" fill="#2243fd"/><rect x="17" y="18" width="6" height="2" fill="#fff"/><rect x="24" y="18" width="2" height="2" fill="#fff"/></g></g></svg>
