<?xml version="1.0" encoding="UTF-8"?>
<!DOCTYPE svg  PUBLIC '-//W3C//DTD SVG 1.1//EN'  'http://www.w3.org/Graphics/SVG/1.1/DTD/svg11.dtd'>
<svg clip-rule="evenodd" fill-rule="evenodd" stroke-linejoin="round" stroke-miterlimit="1.4142" version="1.1" viewBox="0 0 32 32" xml:space="preserve" xmlns="http://www.w3.org/2000/svg">
<metadata>
<rdf:RDF xmlns:cc="http://web.resource.org/cc/" xmlns:dc="http://purl.org/dc/elements/1.1/" xmlns:rdf="http://www.w3.org/1999/02/22-rdf-syntax-ns#">

     <rdf:Description rdf:about="">
       <dc:title>Mutant Standard emoji 2023.12</dc:title>
     </rdf:Description>

    <cc:work rdf:about="">
        <cc:license rdf:resource="http://creativecommons.org/licenses/by-nc-sa/4.0/"/>
        <cc:attributionName>Caius Nocturne</cc:attributionName>
        <cc:attributionURL>http://mutant.tech/</cc:attributionURL>
    </cc:work>

</rdf:RDF>
</metadata>
<rect id="acceptable" width="32" height="32" fill="none"/><g id="outline"><circle cx="16" cy="16" r="16"/></g><g id="emoji"><circle cx="16" cy="16" r="14" fill="#ef9b00"/><path d="m21.204 21.568v-11.866h-13.489v-1.797h17.315v1.797h-1.739v11.789c0 1.275-0.148 2.058-0.445 2.348-0.296 0.289-1.069 0.434-2.319 0.434-0.734 0-1.797-0.025-3.188-0.077l-0.097-1.701c1.714 0.065 2.699 0.097 2.957 0.097 0.489 0 0.779-0.048 0.869-0.145 0.091-0.096 0.136-0.39 0.136-0.879zm-9.663-3.479h5.121v-4.676h-5.121v4.676zm0 1.604v1.546h-2.087v-9.411h9.237v7.865h-7.15z" fill="#fff" fill-rule="nonzero"/></g></svg>
