<?xml version="1.0" encoding="UTF-8"?>
<!DOCTYPE svg  PUBLIC '-//W3C//DTD SVG 1.1//EN'  'http://www.w3.org/Graphics/SVG/1.1/DTD/svg11.dtd'>
<svg clip-rule="evenodd" fill-rule="evenodd" stroke-linejoin="round" stroke-miterlimit="1.4142" version="1.1" viewBox="0 0 32 32" xml:space="preserve" xmlns="http://www.w3.org/2000/svg">
<metadata>
<rdf:RDF xmlns:cc="http://web.resource.org/cc/" xmlns:dc="http://purl.org/dc/elements/1.1/" xmlns:rdf="http://www.w3.org/1999/02/22-rdf-syntax-ns#">

     <rdf:Description rdf:about="">
       <dc:title>Mutant Standard emoji 2023.12</dc:title>
     </rdf:Description>

    <cc:work rdf:about="">
        <cc:license rdf:resource="http://creativecommons.org/licenses/by-nc-sa/4.0/"/>
        <cc:attributionName>Caius Nocturne</cc:attributionName>
        <cc:attributionURL>http://mutant.tech/</cc:attributionURL>
    </cc:work>

</rdf:RDF>
</metadata>
<rect id="bargain" width="32" height="32" fill="none"/><clipPath id="_clip1"><rect width="32" height="32"/></clipPath><g clip-path="url(#_clip1)"><g id="outline"><circle cx="16" cy="16" r="16"/></g><g id="emoji"><circle cx="16" cy="16" r="14" fill="#e8272e"/><path d="m20.707 16.537h-8.283v-1.541h12.25v1.541h-1.849v1.02h1.926v1.734h-1.926v2.254c0 0.577-0.019 1.017-0.057 1.319-0.039 0.302-0.103 0.575-0.193 0.818-0.09 0.244-0.257 0.411-0.501 0.501s-0.526 0.154-0.847 0.193c-0.321 0.038-0.777 0.058-1.368 0.058-0.539 0-1.252-0.026-2.138-0.077l-0.077-1.734c0.771 0.052 1.393 0.077 1.868 0.077 0.591 0 0.938-0.048 1.041-0.144 0.102-0.097 0.154-0.414 0.154-0.954v-2.311h-5.49c0.899 0.809 1.792 1.721 2.678 2.735l-1.349 1.271c-0.924-1.053-1.932-2.061-3.024-3.024l1.021-0.982h-2.196v-1.734h8.36v-1.02zm-7.397-8.86h10.401v6.51h-8.436-1.965v-6.51zm-5.489 4.796-0.79-1.695c0.925-0.565 1.718-1.146 2.379-1.744 0.661-0.597 1.287-1.306 1.878-2.128l1.56 0.925c-0.706 0.988-1.448 1.842-2.225 2.561-0.776 0.719-1.711 1.413-2.802 2.081zm7.454-2.177h6.356v-1.021h-6.356v1.021zm0 1.425v1.079h6.356v-1.079h-6.356zm-4.392 3.756v9.111h-2.022v-7.358c-0.501 0.578-1.008 1.066-1.522 1.464l-0.597-2.042c0.989-0.732 1.827-1.476 2.514-2.234s1.345-1.669 1.974-2.735l1.58 0.963c-0.527 1.014-1.169 1.958-1.927 2.831z" fill="#fff" fill-rule="nonzero"/></g></g></svg>
