<?xml version="1.0" encoding="UTF-8"?>
<!DOCTYPE svg  PUBLIC '-//W3C//DTD SVG 1.1//EN'  'http://www.w3.org/Graphics/SVG/1.1/DTD/svg11.dtd'>
<svg clip-rule="evenodd" fill-rule="evenodd" stroke-linejoin="round" stroke-miterlimit="1.4142" version="1.1" viewBox="0 0 32 32" xml:space="preserve" xmlns="http://www.w3.org/2000/svg">
<metadata>
<rdf:RDF xmlns:cc="http://web.resource.org/cc/" xmlns:dc="http://purl.org/dc/elements/1.1/" xmlns:rdf="http://www.w3.org/1999/02/22-rdf-syntax-ns#">

     <rdf:Description rdf:about="">
       <dc:title>Mutant Standard emoji 2023.12</dc:title>
     </rdf:Description>

    <cc:work rdf:about="">
        <cc:license rdf:resource="http://creativecommons.org/licenses/by-nc-sa/4.0/"/>
        <cc:attributionName>Caius Nocturne</cc:attributionName>
        <cc:attributionURL>http://mutant.tech/</cc:attributionURL>
    </cc:work>

</rdf:RDF>
</metadata>
<rect id="beginner" width="32" height="32" fill="none"/><g id="outline"><path d="m16 7.172 5.185-5.185c0.14-0.135 0.284-0.263 0.44-0.378 0.394-0.29 0.841-0.507 1.312-0.637 0.282-0.078 0.568-0.119 0.859-0.139 0.146-5e-3 0.146-5e-3 0.291-4e-3 0.147 6e-3 0.293 0.014 0.439 0.034 0.295 0.039 0.586 0.111 0.865 0.215 0.419 0.155 0.812 0.381 1.157 0.666 0.562 0.465 0.992 1.083 1.231 1.772 0.097 0.279 0.163 0.569 0.196 0.863 0.015 0.132 0.015 0.165 0.023 0.299 0.091 4.863 0.061 9.729 1e-3 14.593-0.011 0.296-0.047 0.588-0.119 0.876-0.128 0.505-0.354 0.985-0.665 1.404-0.115 0.156-0.243 0.302-0.378 0.44l-9.423 9.423-1e-3 2e-3c-0.031 0.03-0.062 0.059-0.095 0.088-0.034 0.031-0.067 0.058-0.127 0.102-0.197 0.147-0.421 0.256-0.658 0.322-0.132 0.036-0.269 0.059-0.406 0.068h-2e-3 -1e-3l-7e-3 1e-3h-0.014-3e-3l-1e-3 1e-3h-0.021l-3e-3 1e-3h-7e-3 -7e-3 -6e-3 -6e-3 -5e-3l-1e-3 1e-3h-3e-3 -9e-3 -4e-3 -2e-3 -5e-3 -8e-3 -3e-3 -3e-3 -6e-3 -6e-3 -3e-3 -3e-3 -8e-3 -5e-3 -2e-3 -4e-3 -9e-3 -3e-3l-1e-3 -1e-3h-5e-3 -6e-3 -6e-3 -7e-3 -7e-3l-3e-3 -1e-3h-0.021l-1e-3 -1e-3h-3e-3 -0.014l-7e-3 -1e-3h-1e-3 -2e-3c-0.137-9e-3 -0.274-0.032-0.406-0.068-0.237-0.066-0.461-0.175-0.658-0.322-0.06-0.044-0.093-0.071-0.127-0.102-0.033-0.029-0.064-0.058-0.095-0.088l-1e-3 -2e-3 -10-10c-0.098-0.105-0.19-0.211-0.269-0.333-0.154-0.24-0.256-0.513-0.297-0.796-0.018-0.126-0.015-0.158-0.02-0.285v-15.19c3e-3 -0.145 9e-3 -0.288 0.025-0.431 0.033-0.294 0.099-0.584 0.196-0.863 0.223-0.643 0.612-1.224 1.12-1.677 0.333-0.296 0.716-0.536 1.128-0.706 0.322-0.134 0.66-0.225 1.005-0.27 0.146-0.02 0.292-0.028 0.439-0.034 0.145-1e-3 0.145-1e-3 0.291 4e-3 0.291 0.02 0.577 0.061 0.859 0.139 0.471 0.13 0.918 0.347 1.312 0.637 0.156 0.115 0.3 0.243 0.44 0.378l5.185 5.185z"/></g><g id="emoji"><path d="m22.586 3.414c0.572-0.572 1.432-0.743 2.179-0.433 0.748 0.309 1.235 1.039 1.235 1.847v14.344c0 0.53-0.211 1.039-0.586 1.414l-9.414 9.414-1-3v-16l7.586-7.586z" fill="#09be81"/><path d="m9.414 3.414c-0.572-0.572-1.432-0.743-2.179-0.433-0.748 0.309-1.235 1.039-1.235 1.847v14.344c0 0.53 0.211 1.039 0.586 1.414l9.414 9.414v-20l-6.586-6.586z" fill="#ecf357"/></g></svg>
