<?xml version="1.0" encoding="UTF-8"?>
<!DOCTYPE svg  PUBLIC '-//W3C//DTD SVG 1.1//EN'  'http://www.w3.org/Graphics/SVG/1.1/DTD/svg11.dtd'>
<svg clip-rule="evenodd" fill-rule="evenodd" stroke-linejoin="round" stroke-miterlimit="1.4142" version="1.1" viewBox="0 0 32 32" xml:space="preserve" xmlns="http://www.w3.org/2000/svg">
<metadata>
<rdf:RDF xmlns:cc="http://web.resource.org/cc/" xmlns:dc="http://purl.org/dc/elements/1.1/" xmlns:rdf="http://www.w3.org/1999/02/22-rdf-syntax-ns#">

     <rdf:Description rdf:about="">
       <dc:title>Mutant Standard emoji 2023.12</dc:title>
     </rdf:Description>

    <cc:work rdf:about="">
        <cc:license rdf:resource="http://creativecommons.org/licenses/by-nc-sa/4.0/"/>
        <cc:attributionName>Caius Nocturne</cc:attributionName>
        <cc:attributionURL>http://mutant.tech/</cc:attributionURL>
    </cc:work>

</rdf:RDF>
</metadata>
<rect id="blood_type_o" width="32" height="32" fill="none"/><clipPath id="_clip1"><rect width="32" height="32"/></clipPath><g clip-path="url(#_clip1)"><g id="outline"><path d="m32 8c0-4.418-3.582-8-8-8h-16c-4.418 0-8 3.582-8 8v16c0 4.418 3.582 8 8 8h16c4.418 0 8-3.582 8-8v-16z"/></g><g id="emoji"><path d="m30 8c0-1.591-0.632-3.117-1.757-4.243-1.126-1.125-2.652-1.757-4.243-1.757h-16c-1.591 0-3.117 0.632-4.243 1.757-1.125 1.126-1.757 2.652-1.757 4.243v16c0 1.591 0.632 3.117 1.757 4.243 1.126 1.125 2.652 1.757 4.243 1.757h16c1.591 0 3.117-0.632 4.243-1.757 1.125-1.126 1.757-2.652 1.757-4.243v-16z" fill="#e8272e"/><path d="m10.483 23.304c-1.305-1.321-1.957-3.295-1.957-5.921v-2.818c0-2.626 0.665-4.6 1.996-5.922 1.33-1.321 3.169-1.982 5.517-1.982 2.313 0 4.131 0.661 5.452 1.982 1.322 1.322 1.983 3.296 1.983 5.922v2.818c0 2.608-0.674 4.578-2.022 5.908-1.348 1.331-3.187 1.996-5.517 1.996-2.331 0-4.148-0.661-5.452-1.983zm9.574-5.974v-2.582c0-3.391-1.34-5.087-4.018-5.087-1.374 0-2.396 0.417-3.065 1.252-0.67 0.835-1.004 2.113-1.004 3.835v2.582c0 1.653 0.334 2.879 1.004 3.679 0.669 0.8 1.691 1.2 3.065 1.2 2.678 0 4.018-1.626 4.018-4.879z" fill="#fff" fill-rule="nonzero"/></g></g></svg>
