<?xml version="1.0" encoding="UTF-8"?>
<!DOCTYPE svg  PUBLIC '-//W3C//DTD SVG 1.1//EN'  'http://www.w3.org/Graphics/SVG/1.1/DTD/svg11.dtd'>
<svg clip-rule="evenodd" fill-rule="evenodd" stroke-linejoin="round" stroke-miterlimit="1.4142" version="1.1" viewBox="0 0 32 32" xml:space="preserve" xmlns="http://www.w3.org/2000/svg">
<metadata>
<rdf:RDF xmlns:cc="http://web.resource.org/cc/" xmlns:dc="http://purl.org/dc/elements/1.1/" xmlns:rdf="http://www.w3.org/1999/02/22-rdf-syntax-ns#">

     <rdf:Description rdf:about="">
       <dc:title>Mutant Standard emoji 2023.12</dc:title>
     </rdf:Description>

    <cc:work rdf:about="">
        <cc:license rdf:resource="http://creativecommons.org/licenses/by-nc-sa/4.0/"/>
        <cc:attributionName>Caius Nocturne</cc:attributionName>
        <cc:attributionURL>http://mutant.tech/</cc:attributionURL>
    </cc:work>

</rdf:RDF>
</metadata>
<rect id="blood_type_ab" width="32" height="32" fill="none"/><clipPath id="_clip1"><rect width="32" height="32"/></clipPath><g clip-path="url(#_clip1)"><g id="outline"><path d="m32 8c0-4.418-3.582-8-8-8h-16c-4.418 0-8 3.582-8 8v16c0 4.418 3.582 8 8 8h16c4.418 0 8-3.582 8-8v-16z"/></g><g id="emoji"><path d="m30 8c0-1.591-0.632-3.117-1.757-4.243-1.126-1.125-2.652-1.757-4.243-1.757h-16c-1.591 0-3.117 0.632-4.243 1.757-1.125 1.126-1.757 2.652-1.757 4.243v16c0 1.591 0.632 3.117 1.757 4.243 1.126 1.125 2.652 1.757 4.243 1.757h16c1.591 0 3.117-0.632 4.243-1.757 1.125-1.126 1.757-2.652 1.757-4.243v-16z" fill="#e8272e"/><path d="m12.638 20.134h-4.643l-0.822 2.625h-2.704l4.8-13.518h2.096l4.819 13.518h-2.723l-0.823-2.625zm-0.685-2.136-1.646-5.191-1.626 5.191h3.272z" fill="#fff" fill-rule="nonzero"/><path d="m26.518 16.999c0.32 0.523 0.48 1.149 0.48 1.881 0 1.227-0.366 2.181-1.097 2.86s-1.75 1.019-3.056 1.019h-5.427v-13.518h5.211c1.319 0 2.348 0.327 3.086 0.98s1.107 1.58 1.107 2.782c0 0.6-0.15 1.152-0.451 1.655-0.3 0.503-0.718 0.885-1.254 1.146 0.614 0.274 1.081 0.673 1.401 1.195zm-6.533-5.524v3.291h2.448c0.588 0 1.035-0.141 1.342-0.421 0.307-0.281 0.461-0.676 0.461-1.186 0-0.548-0.154-0.966-0.461-1.253-0.307-0.288-0.754-0.431-1.342-0.431h-2.448zm3.986 8.57c0.307-0.32 0.461-0.767 0.461-1.342 0-0.535-0.154-0.953-0.461-1.253-0.307-0.301-0.767-0.451-1.381-0.451h-2.605v3.526h2.605c0.614 0 1.074-0.16 1.381-0.48z" fill="#fff" fill-rule="nonzero"/></g></g></svg>
