<?xml version="1.0" encoding="UTF-8"?>
<!DOCTYPE svg  PUBLIC '-//W3C//DTD SVG 1.1//EN'  'http://www.w3.org/Graphics/SVG/1.1/DTD/svg11.dtd'>
<svg clip-rule="evenodd" fill-rule="evenodd" stroke-linejoin="round" stroke-miterlimit="1.4142" version="1.1" viewBox="0 0 32 32" xml:space="preserve" xmlns="http://www.w3.org/2000/svg">
<metadata>
<rdf:RDF xmlns:cc="http://web.resource.org/cc/" xmlns:dc="http://purl.org/dc/elements/1.1/" xmlns:rdf="http://www.w3.org/1999/02/22-rdf-syntax-ns#">

     <rdf:Description rdf:about="">
       <dc:title>Mutant Standard emoji 2023.12</dc:title>
     </rdf:Description>

    <cc:work rdf:about="">
        <cc:license rdf:resource="http://creativecommons.org/licenses/by-nc-sa/4.0/"/>
        <cc:attributionName>Caius Nocturne</cc:attributionName>
        <cc:attributionURL>http://mutant.tech/</cc:attributionURL>
    </cc:work>

</rdf:RDF>
</metadata>
<rect id="free_of_charge" width="32" height="32" fill="none"/><clipPath id="_clip1"><rect width="32" height="32"/></clipPath><g clip-path="url(#_clip1)"><g id="outline"><path d="m32 8c0-4.418-3.582-8-8-8h-16c-4.418 0-8 3.582-8 8v16c0 4.418 3.582 8 8 8h16c4.418 0 8-3.582 8-8v-16z"/></g><g id="emoji"><path d="m30 8c0-1.591-0.632-3.117-1.757-4.243-1.126-1.125-2.652-1.757-4.243-1.757h-16c-1.591 0-3.117 0.632-4.243 1.757-1.125 1.126-1.757 2.652-1.757 4.243v16c0 1.591 0.632 3.117 1.757 4.243 1.126 1.125 2.652 1.757 4.243 1.757h16c1.591 0 3.117-0.632 4.243-1.757 1.125-1.126 1.757-2.652 1.757-4.243v-16z" fill="#ef9b00"/><path d="m24.041 25.636c-0.836-1.437-1.841-2.977-3.014-4.62l1.87-1.078c1.144 1.584 2.156 3.131 3.036 4.642l-1.892 1.056zm-5.676 0.022c-0.513-1.613-1.093-3.205-1.738-4.774l2.112-0.594c0.66 1.584 1.247 3.183 1.76 4.796l-2.134 0.572zm-5.39 0.044c-0.176-1.584-0.433-3.197-0.77-4.84l2.244-0.33c0.367 1.848 0.623 3.469 0.77 4.862l-2.244 0.308zm-6.798-1.144c1.071-1.335 2.075-2.831 3.014-4.488l1.958 0.99c-0.939 1.745-1.973 3.307-3.102 4.686l-1.87-1.188zm17.248-10.142v3.388h2.2v1.892h-19.14v-1.892h2.2v-3.388h-2.64v-2.046h2.64v-1.54c-0.22 0.22-0.565 0.535-1.034 0.946l-1.716-1.276c1.804-1.613 3.329-3.41 4.576-5.39l2.112 0.55c-0.308 0.587-0.623 1.115-0.946 1.584h13.508v1.936h-1.76v3.19h2.64v2.046h-2.64zm-12.43-5.236v3.19h1.87v-3.19h-1.87zm1.87 5.236h-1.87v3.388h1.87v-3.388zm2.2 0v3.388h1.98v-3.388h-1.98zm0-2.046h1.98v-3.19h-1.98v3.19zm4.18 2.046v3.388h1.87v-3.388h-1.87zm0-2.046h1.87v-3.19h-1.87v3.19z" fill="#fff" fill-rule="nonzero"/></g></g></svg>
