<?xml version="1.0" encoding="UTF-8"?>
<!DOCTYPE svg  PUBLIC '-//W3C//DTD SVG 1.1//EN'  'http://www.w3.org/Graphics/SVG/1.1/DTD/svg11.dtd'>
<svg clip-rule="evenodd" fill-rule="evenodd" stroke-linejoin="round" stroke-miterlimit="1.4142" version="1.1" viewBox="0 0 32 32" xml:space="preserve" xmlns="http://www.w3.org/2000/svg">
<metadata>
<rdf:RDF xmlns:cc="http://web.resource.org/cc/" xmlns:dc="http://purl.org/dc/elements/1.1/" xmlns:rdf="http://www.w3.org/1999/02/22-rdf-syntax-ns#">

     <rdf:Description rdf:about="">
       <dc:title>Mutant Standard emoji 2023.12</dc:title>
     </rdf:Description>

    <cc:work rdf:about="">
        <cc:license rdf:resource="http://creativecommons.org/licenses/by-nc-sa/4.0/"/>
        <cc:attributionName>Caius Nocturne</cc:attributionName>
        <cc:attributionURL>http://mutant.tech/</cc:attributionURL>
    </cc:work>

</rdf:RDF>
</metadata>
<rect id="month" width="32" height="32" fill="none"/><clipPath id="_clip1"><rect width="32" height="32"/></clipPath><g clip-path="url(#_clip1)"><g id="outline"><path d="m32 8c0-4.418-3.582-8-8-8h-16c-4.418 0-8 3.582-8 8v16c0 4.418 3.582 8 8 8h16c4.418 0 8-3.582 8-8v-16z"/></g><g id="emoji"><path d="m30 8c0-1.591-0.632-3.117-1.757-4.243-1.126-1.125-2.652-1.757-4.243-1.757h-16c-1.591 0-3.117 0.632-4.243 1.757-1.125 1.126-1.757 2.652-1.757 4.243v16c0 1.591 0.632 3.117 1.757 4.243 1.126 1.125 2.652 1.757 4.243 1.757h16c1.591 0 3.117-0.632 4.243-1.757 1.125-1.126 1.757-2.652 1.757-4.243v-16z" fill="#ef9b00"/><path d="m9.886 5.951h14.96v16.06c0 1.452-0.162 2.347-0.484 2.684-0.323 0.337-1.174 0.506-2.552 0.506-0.411 0-1.621-0.037-3.63-0.11l-0.088-2.024c1.54 0.059 2.618 0.088 3.234 0.088 0.572 0 0.905-0.048 1.001-0.143 0.095-0.095 0.143-0.429 0.143-1.001v-3.476h-10.45c-0.426 2.713-1.57 5.001-3.432 6.864l-1.87-1.386c1.202-1.232 2.031-2.552 2.486-3.96 0.454-1.408 0.682-3.395 0.682-5.962v-8.14zm2.376 5.236h10.208v-3.256h-10.208v3.256zm0 1.914v1.914c0 0.396-0.015 0.931-0.044 1.606h10.252v-3.52h-10.208z" fill="#fff" fill-rule="nonzero"/></g></g></svg>
