<?xml version="1.0" encoding="UTF-8"?>
<!DOCTYPE svg  PUBLIC '-//W3C//DTD SVG 1.1//EN'  'http://www.w3.org/Graphics/SVG/1.1/DTD/svg11.dtd'>
<svg clip-rule="evenodd" fill-rule="evenodd" stroke-linejoin="round" stroke-miterlimit="1.4142" version="1.1" viewBox="0 0 32 32" xml:space="preserve" xmlns="http://www.w3.org/2000/svg">
<metadata>
<rdf:RDF xmlns:cc="http://web.resource.org/cc/" xmlns:dc="http://purl.org/dc/elements/1.1/" xmlns:rdf="http://www.w3.org/1999/02/22-rdf-syntax-ns#">

     <rdf:Description rdf:about="">
       <dc:title>Mutant Standard emoji 2023.12</dc:title>
     </rdf:Description>

    <cc:work rdf:about="">
        <cc:license rdf:resource="http://creativecommons.org/licenses/by-nc-sa/4.0/"/>
        <cc:attributionName>Caius Nocturne</cc:attributionName>
        <cc:attributionURL>http://mutant.tech/</cc:attributionURL>
    </cc:work>

</rdf:RDF>
</metadata>
<rect id="no_vacancy" width="32" height="32" fill="none"/><clipPath id="_clip1"><rect width="32" height="32"/></clipPath><g clip-path="url(#_clip1)"><g id="outline"><path d="m32 8c0-4.418-3.582-8-8-8h-16c-4.418 0-8 3.582-8 8v16c0 4.418 3.582 8 8 8h16c4.418 0 8-3.582 8-8v-16z"/></g><g id="emoji"><path d="m30 8c0-1.591-0.632-3.117-1.757-4.243-1.126-1.125-2.652-1.757-4.243-1.757h-16c-1.591 0-3.117 0.632-4.243 1.757-1.125 1.126-1.757 2.652-1.757 4.243v16c0 1.591 0.632 3.117 1.757 4.243 1.126 1.125 2.652 1.757 4.243 1.757h16c1.591 0 3.117-0.632 4.243-1.757 1.125-1.126 1.757-2.652 1.757-4.243v-16z" fill="#e8272e"/><path d="m16.737 11.633h3.74v-2.046h-3.74v2.046zm-7.15 4.532c-1.159-1.1-2.494-2.222-4.004-3.366l1.342-1.584c1.466 1.071 2.808 2.171 4.026 3.3l-1.364 1.65zm-3.146-8.206 1.364-1.584c1.144 0.821 2.229 1.701 3.256 2.64v-1.298h3.366v-1.76h2.31v1.76h3.74v-1.76h2.31v1.76h3.08v1.87h-3.08v2.046h3.52v1.914h-6.666v1.166h5.94v8.184c0 1.32-0.129 2.145-0.385 2.475-0.257 0.33-0.891 0.495-1.903 0.495-0.616 0-1.555-0.037-2.816-0.11l-0.044-1.98c0.894 0.073 1.584 0.11 2.068 0.11 0.41 0 0.652-0.04 0.726-0.121 0.073-0.081 0.11-0.334 0.11-0.759v-6.38h-3.784v4.73h0.968v-3.916h1.98v5.786h-1.98-4.18v1.32h-1.98v-7.106h1.98v3.916h1.012v-4.73h-3.806v9.46h-2.266v-7.238c-0.836 2.611-1.936 4.921-3.3 6.93l-1.87-1.254c1.364-2.039 2.471-4.319 3.322-6.842l1.848 0.748v-3.718h5.94v-1.166h-6.644v-1.914h3.85v-2.046h-3.19l-1.166 1.408c-1.174-1.1-2.384-2.112-3.63-3.036z" fill="#fff" fill-rule="nonzero"/></g></g></svg>
