<?xml version="1.0" encoding="UTF-8"?>
<!DOCTYPE svg  PUBLIC '-//W3C//DTD SVG 1.1//EN'  'http://www.w3.org/Graphics/SVG/1.1/DTD/svg11.dtd'>
<svg clip-rule="evenodd" fill-rule="evenodd" stroke-linejoin="round" stroke-miterlimit="1.4142" version="1.1" viewBox="0 0 32 32" xml:space="preserve" xmlns="http://www.w3.org/2000/svg">
<metadata>
<rdf:RDF xmlns:cc="http://web.resource.org/cc/" xmlns:dc="http://purl.org/dc/elements/1.1/" xmlns:rdf="http://www.w3.org/1999/02/22-rdf-syntax-ns#">

     <rdf:Description rdf:about="">
       <dc:title>Mutant Standard emoji 2023.12</dc:title>
     </rdf:Description>

    <cc:work rdf:about="">
        <cc:license rdf:resource="http://creativecommons.org/licenses/by-nc-sa/4.0/"/>
        <cc:attributionName>Caius Nocturne</cc:attributionName>
        <cc:attributionURL>http://mutant.tech/</cc:attributionURL>
    </cc:work>

</rdf:RDF>
</metadata>
<rect id="not_free" width="32" height="32" fill="none"/><clipPath id="_clip1"><rect width="32" height="32"/></clipPath><g clip-path="url(#_clip1)"><g id="outline"><path d="m32 8c0-4.418-3.582-8-8-8h-16c-4.418 0-8 3.582-8 8v16c0 4.418 3.582 8 8 8h16c4.418 0 8-3.582 8-8v-16z"/></g><g id="emoji"><path d="m30 8c0-1.591-0.632-3.117-1.757-4.243-1.126-1.125-2.652-1.757-4.243-1.757h-16c-1.591 0-3.117 0.632-4.243 1.757-1.125 1.126-1.757 2.652-1.757 4.243v16c0 1.591 0.632 3.117 1.757 4.243 1.126 1.125 2.652 1.757 4.243 1.757h16c1.591 0 3.117-0.632 4.243-1.757 1.125-1.126 1.757-2.652 1.757-4.243v-16z" fill="#ef9b00"/><path d="m6.244 18.157-0.99-2.09c2.875-1.936 4.972-4.18 6.292-6.732h-5.61v-1.936h6.468c0.249-0.616 0.477-1.305 0.682-2.068l2.442 0.176c-0.161 0.602-0.359 1.232-0.594 1.892h10.582v1.936h-11.374c-0.411 0.822-0.792 1.511-1.144 2.068h11.044v10.956c0 1.247-0.176 2.065-0.528 2.453-0.352 0.389-1.188 0.583-2.508 0.583-0.323 0-1.408-0.044-3.256-0.132l-0.044-1.914c1.687 0.074 2.655 0.11 2.904 0.11 0.499 0 0.792-0.025 0.88-0.077 0.088-0.051 0.132-0.231 0.132-0.539v-1.694h-9.68v4.29h-2.42v-9.856c-1.027 0.939-2.119 1.797-3.278 2.574zm5.698-4.862v2.134h9.68v-2.134h-9.68zm0 3.894v2.2h9.68v-2.2h-9.68z" fill="#fff" fill-rule="nonzero"/></g></g></svg>
