<?xml version="1.0" encoding="UTF-8"?>
<!DOCTYPE svg  PUBLIC '-//W3C//DTD SVG 1.1//EN'  'http://www.w3.org/Graphics/SVG/1.1/DTD/svg11.dtd'>
<svg clip-rule="evenodd" fill-rule="evenodd" stroke-linejoin="round" stroke-miterlimit="1.4142" version="1.1" viewBox="0 0 32 32" xml:space="preserve" xmlns="http://www.w3.org/2000/svg">
<metadata>
<rdf:RDF xmlns:cc="http://web.resource.org/cc/" xmlns:dc="http://purl.org/dc/elements/1.1/" xmlns:rdf="http://www.w3.org/1999/02/22-rdf-syntax-ns#">

     <rdf:Description rdf:about="">
       <dc:title>Mutant Standard emoji 2023.12</dc:title>
     </rdf:Description>

    <cc:work rdf:about="">
        <cc:license rdf:resource="http://creativecommons.org/licenses/by-nc-sa/4.0/"/>
        <cc:attributionName>Caius Nocturne</cc:attributionName>
        <cc:attributionURL>http://mutant.tech/</cc:attributionURL>
    </cc:work>

</rdf:RDF>
</metadata>
<rect id="prohibited" width="32" height="32" fill="none"/><clipPath id="_clip1"><rect width="32" height="32"/></clipPath><g clip-path="url(#_clip1)"><g id="outline"><path d="m32 8c0-4.418-3.582-8-8-8h-16c-4.418 0-8 3.582-8 8v16c0 4.418 3.582 8 8 8h16c4.418 0 8-3.582 8-8v-16z"/></g><g id="emoji"><path d="m30 8c0-1.591-0.632-3.117-1.757-4.243-1.126-1.125-2.652-1.757-4.243-1.757h-16c-1.591 0-3.117 0.632-4.243 1.757-1.125 1.126-1.757 2.652-1.757 4.243v16c0 1.591 0.632 3.117 1.757 4.243 1.126 1.125 2.652 1.757 4.243 1.757h16c1.591 0 3.117-0.632 4.243-1.757 1.125-1.126 1.757-2.652 1.757-4.243v-16z" fill="#e8272e"/><path d="m25.57 18.761v1.914h-4.884c1.687 0.983 3.381 2.09 5.082 3.322l-1.21 1.716c-1.701-1.261-3.527-2.449-5.478-3.564l0.99-1.474h-2.53v2.926c0 1.041-0.165 1.694-0.495 1.958s-1.155 0.396-2.475 0.396c-0.792 0-1.804-0.037-3.036-0.11l-0.088-1.87c1.129 0.073 2.002 0.11 2.618 0.11 0.528 0 0.836-0.029 0.924-0.088s0.132-0.264 0.132-0.616v-2.706h-3.63l1.144 1.386c-1.569 1.467-3.329 2.669-5.28 3.608l-1.078-1.738c1.833-0.88 3.461-1.965 4.884-3.256h-4.73v-1.914h19.14zm-17.49-1.166v-1.87h15.95v1.87h-15.95zm17.71-9.46v1.914h-3.058c0.983 1.305 2.222 2.552 3.718 3.74l-1.21 1.716c-1.349-1.129-2.508-2.31-3.476-3.542v3.102h-2.288v-3.278c-0.983 1.203-2.119 2.339-3.41 3.41l-1.232-1.584c1.467-1.188 2.669-2.376 3.608-3.564h-2.442v-1.914h3.476v-2.09h2.288v2.09h4.026zm-19.58 0h3.52v-1.87h2.31v1.87h3.19v1.914h-2.354c1.144 1.056 1.995 1.863 2.552 2.42l-1.342 1.452c-0.601-0.704-1.283-1.437-2.046-2.2v3.344h-2.31v-3.212c-0.807 1.276-1.811 2.493-3.014 3.652l-1.166-1.716c1.364-1.232 2.442-2.479 3.234-3.74h-2.574v-1.914z" fill="#fff" fill-rule="nonzero"/></g></g></svg>
