<?xml version="1.0" encoding="UTF-8"?>
<!DOCTYPE svg  PUBLIC '-//W3C//DTD SVG 1.1//EN'  'http://www.w3.org/Graphics/SVG/1.1/DTD/svg11.dtd'>
<svg clip-rule="evenodd" fill-rule="evenodd" stroke-linejoin="round" stroke-miterlimit="1.4142" version="1.1" viewBox="0 0 32 32" xml:space="preserve" xmlns="http://www.w3.org/2000/svg">
<metadata>
<rdf:RDF xmlns:cc="http://web.resource.org/cc/" xmlns:dc="http://purl.org/dc/elements/1.1/" xmlns:rdf="http://www.w3.org/1999/02/22-rdf-syntax-ns#">

     <rdf:Description rdf:about="">
       <dc:title>Mutant Standard emoji 2023.12</dc:title>
     </rdf:Description>

    <cc:work rdf:about="">
        <cc:license rdf:resource="http://creativecommons.org/licenses/by-nc-sa/4.0/"/>
        <cc:attributionName>Caius Nocturne</cc:attributionName>
        <cc:attributionURL>http://mutant.tech/</cc:attributionURL>
    </cc:work>

</rdf:RDF>
</metadata>
<rect id="reserved" width="32" height="32" fill="none"/><clipPath id="_clip1"><rect width="32" height="32"/></clipPath><g clip-path="url(#_clip1)"><g id="outline"><path d="m32 8c0-4.418-3.582-8-8-8h-16c-4.418 0-8 3.582-8 8v16c0 4.418 3.582 8 8 8h16c4.418 0 8-3.582 8-8v-16z"/></g><g id="emoji"><path d="m30 8c0-1.591-0.632-3.117-1.757-4.243-1.126-1.125-2.652-1.757-4.243-1.757h-16c-1.591 0-3.117 0.632-4.243 1.757-1.125 1.126-1.757 2.652-1.757 4.243v16c0 1.591 0.632 3.117 1.757 4.243 1.126 1.125 2.652 1.757 4.243 1.757h16c1.591 0 3.117-0.632 4.243-1.757 1.125-1.126 1.757-2.652 1.757-4.243v-16z" fill="#4bbf1e"/><path d="m22.974 19.311v-1.892h-6.556v1.892h6.556zm2.948-9.526c-0.044 0.865-0.103 1.54-0.176 2.024s-0.172 0.902-0.297 1.254-0.334 0.601-0.627 0.748-0.616 0.249-0.968 0.308-0.858 0.088-1.518 0.088c-1.232 0.029-2.141 0.044-2.728 0.044-0.66 0-1.577-0.015-2.75-0.044-1.305-0.015-2.127-0.139-2.464-0.374s-0.506-0.777-0.506-1.628v-5.83h2.31v2.178c2.904-0.499 5.793-1.188 8.668-2.068l0.726 1.892c-3.065 0.924-6.197 1.643-9.394 2.156v0.946c0 0.381 0.055 0.609 0.165 0.682s0.473 0.117 1.089 0.132c0.44 0.015 1.115 0.022 2.024 0.022 0.851 0 1.525-7e-3 2.024-0.022 0.396-0.015 0.678-0.022 0.847-0.022s0.352-0.04 0.55-0.121 0.326-0.158 0.385-0.231 0.125-0.235 0.198-0.484 0.117-0.488 0.132-0.715 0.037-0.598 0.066-1.111l2.244 0.176zm-17.446 15.95c-0.337 0-1.056-0.037-2.156-0.11l-0.088-1.914c0.821 0.059 1.474 0.088 1.958 0.088 0.191 0 0.304-0.051 0.341-0.154s0.055-0.433 0.055-0.99v-3.63c-1.217 0.293-2.002 0.477-2.354 0.55l-0.154-2.09c0.792-0.147 1.628-0.337 2.508-0.572v-5.082h-2.486v-1.98h2.486v-3.696h2.31v3.696h2.244v1.98h-2.244v4.422c0.528-0.176 1.239-0.425 2.134-0.748l0.33 1.958c-0.601 0.249-1.423 0.543-2.464 0.88v4.202c0 1.452-0.128 2.347-0.385 2.684s-0.935 0.506-2.035 0.506zm7.942-4.62v1.936h6.556v-1.936h-6.556zm0 3.85v0.88h-2.376v-10.406h11.286v10.406h-2.354v-0.88h-6.556z" fill="#fff" fill-rule="nonzero"/></g></g></svg>
