<?xml version="1.0" encoding="UTF-8"?>
<!DOCTYPE svg  PUBLIC '-//W3C//DTD SVG 1.1//EN'  'http://www.w3.org/Graphics/SVG/1.1/DTD/svg11.dtd'>
<svg clip-rule="evenodd" fill-rule="evenodd" stroke-linejoin="round" stroke-miterlimit="1.4142" version="1.1" viewBox="0 0 32 32" xml:space="preserve" xmlns="http://www.w3.org/2000/svg">
<metadata>
<rdf:RDF xmlns:cc="http://web.resource.org/cc/" xmlns:dc="http://purl.org/dc/elements/1.1/" xmlns:rdf="http://www.w3.org/1999/02/22-rdf-syntax-ns#">

     <rdf:Description rdf:about="">
       <dc:title>Mutant Standard emoji 2023.12</dc:title>
     </rdf:Description>

    <cc:work rdf:about="">
        <cc:license rdf:resource="http://creativecommons.org/licenses/by-nc-sa/4.0/"/>
        <cc:attributionName>Caius Nocturne</cc:attributionName>
        <cc:attributionURL>http://mutant.tech/</cc:attributionURL>
    </cc:work>

</rdf:RDF>
</metadata>
<rect id="vacancy" width="32" height="32" fill="none"/><clipPath id="_clip1"><rect width="32" height="32"/></clipPath><g clip-path="url(#_clip1)"><g id="outline"><path d="m32 8c0-4.418-3.582-8-8-8h-16c-4.418 0-8 3.582-8 8v16c0 4.418 3.582 8 8 8h16c4.418 0 8-3.582 8-8v-16z"/></g><g id="emoji"><path d="m30 8c0-1.591-0.632-3.117-1.757-4.243-1.126-1.125-2.652-1.757-4.243-1.757h-16c-1.591 0-3.117 0.632-4.243 1.757-1.125 1.126-1.757 2.652-1.757 4.243v16c0 1.591 0.632 3.117 1.757 4.243 1.126 1.125 2.652 1.757 4.243 1.757h16c1.591 0 3.117-0.632 4.243-1.757 1.125-1.126 1.757-2.652 1.757-4.243v-16z" fill="#00b1f1"/><path d="m21.907 16.033c-0.132 0-0.33 4e-3 -0.594 0.011-0.264 8e-3 -0.462 0.011-0.594 0.011-0.528 0-0.924-7e-3 -1.188-0.022-1.129-0.029-1.844-0.143-2.145-0.341s-0.451-0.627-0.451-1.287v-4.686h-1.848c-0.132 3.696-2.801 6.116-8.008 7.26l-0.55-1.848c2.141-0.484 3.714-1.169 4.719-2.057 1.005-0.887 1.507-2.005 1.507-3.355h-3.674v2.992h-2.31v-4.906h8.03v-2.2h2.42v2.2h8.03v3.85h-2.31v-1.936h-3.674v3.74c0 0.367 0.033 0.583 0.099 0.649s0.304 0.107 0.715 0.121c0.103 0 0.253 4e-3 0.451 0.011 0.198 8e-3 0.341 0.011 0.429 0.011s0.231-3e-3 0.429-0.011c0.198-7e-3 0.348-0.011 0.451-0.011 0.631-0.029 1.005-0.117 1.122-0.264 0.117-0.146 0.205-0.63 0.264-1.452l2.244 0.264c-0.044 0.558-0.081 0.987-0.11 1.287-0.029 0.301-0.103 0.591-0.22 0.869-0.117 0.279-0.231 0.473-0.341 0.583s-0.319 0.209-0.627 0.297-0.612 0.143-0.913 0.165-0.752 0.041-1.353 0.055zm-15.246 7.282h8.14v-4.136h-6.16v-1.914h14.74v1.914h-6.16v4.136h8.14v1.98h-18.7v-1.98z" fill="#fff" fill-rule="nonzero"/></g></g></svg>
