<?xml version="1.0" encoding="UTF-8"?>
<!DOCTYPE svg  PUBLIC '-//W3C//DTD SVG 1.1//EN'  'http://www.w3.org/Graphics/SVG/1.1/DTD/svg11.dtd'>
<svg clip-rule="evenodd" fill-rule="evenodd" stroke-linejoin="round" stroke-miterlimit="1.4142" version="1.1" viewBox="0 0 32 32" xml:space="preserve" xmlns="http://www.w3.org/2000/svg">
<metadata>
<rdf:RDF xmlns:cc="http://web.resource.org/cc/" xmlns:dc="http://purl.org/dc/elements/1.1/" xmlns:rdf="http://www.w3.org/1999/02/22-rdf-syntax-ns#">

     <rdf:Description rdf:about="">
       <dc:title>Mutant Standard emoji 2023.12</dc:title>
     </rdf:Description>

    <cc:work rdf:about="">
        <cc:license rdf:resource="http://creativecommons.org/licenses/by-nc-sa/4.0/"/>
        <cc:attributionName>Caius Nocturne</cc:attributionName>
        <cc:attributionURL>http://mutant.tech/</cc:attributionURL>
    </cc:work>

</rdf:RDF>
</metadata>
<rect id="aries" width="32" height="32" fill="none"/><clipPath id="_clip1"><rect width="32" height="32"/></clipPath><g clip-path="url(#_clip1)"><g id="outline"><path d="m32 8c0-4.418-3.582-8-8-8h-16c-4.418 0-8 3.582-8 8v16c0 4.418 3.582 8 8 8h16c4.418 0 8-3.582 8-8v-16z"/></g><g id="emoji"><path d="m30 8c0-1.591-0.632-3.117-1.757-4.243-1.126-1.125-2.652-1.757-4.243-1.757h-16c-1.591 0-3.117 0.632-4.243 1.757-1.125 1.126-1.757 2.652-1.757 4.243v16c0 1.591 0.632 3.117 1.757 4.243 1.126 1.125 2.652 1.757 4.243 1.757h16c1.591 0 3.117-0.632 4.243-1.757 1.125-1.126 1.757-2.652 1.757-4.243v-16z" fill="#982eee"/><path d="m15 22.6c0-0.036-1e-3 -0.071-2e-3 -0.107-9e-3 -0.246-0.039-0.488-0.09-0.728-0.417-1.851-0.918-3.682-1.378-5.522-0.399-1.597-0.778-3.198-1.198-4.789-0.087-0.298-0.229-0.574-0.432-0.81-0.177-0.207-0.395-0.379-0.637-0.505-0.226-0.116-0.473-0.191-0.726-0.221-0.233-0.027-0.471-0.015-0.701 0.036-0.259 0.058-0.509 0.162-0.73 0.31-0.51 0.34-0.853 0.901-0.926 1.509-0.033 0.274-7e-3 0.547 0.062 0.814l0.768 2.817-1.929 0.526c-0.266-0.974-0.542-1.945-0.796-2.922-0.038-0.163-0.07-0.327-0.09-0.494-0.04-0.324-0.04-0.654-1e-3 -0.979 0.118-0.986 0.601-1.914 1.341-2.577 0.292-0.263 0.623-0.482 0.977-0.651 0.316-0.15 0.652-0.26 0.996-0.327 0.173-0.034 0.348-0.054 0.524-0.068 0.106-5e-3 0.211-8e-3 0.316-8e-3 0.424 0.012 0.84 0.076 1.243 0.21 0.943 0.313 1.754 0.971 2.256 1.829 0.179 0.307 0.312 0.634 0.412 0.975 0.424 1.608 0.808 3.226 1.211 4.839 0.176 0.702 0.353 1.403 0.53 2.105 0.177-0.702 0.354-1.403 0.53-2.105 0.395-1.58 0.79-3.161 1.185-4.741 0.1-0.376 0.242-0.737 0.438-1.073 0.484-0.827 1.255-1.469 2.156-1.794 0.399-0.144 0.814-0.22 1.237-0.242 0.106-3e-3 0.211-3e-3 0.316 0 0.177 9e-3 0.352 0.025 0.526 0.054 0.38 0.064 0.752 0.181 1.1 0.346 0.354 0.169 0.685 0.388 0.977 0.651 0.764 0.685 1.253 1.652 1.351 2.674 0.048 0.495 0 0.989-0.125 1.469l-0.772 2.829-1.929-0.526c0.261-0.958 0.533-1.913 0.783-2.875 0.062-0.264 0.079-0.535 0.04-0.805-0.084-0.59-0.423-1.129-0.919-1.46-0.221-0.148-0.471-0.252-0.73-0.31-0.23-0.051-0.468-0.063-0.701-0.036-0.253 0.03-0.5 0.105-0.726 0.221-0.242 0.126-0.46 0.298-0.637 0.505-0.203 0.236-0.345 0.512-0.432 0.81-0.42 1.591-0.799 3.192-1.198 4.789-0.46 1.84-0.961 3.671-1.378 5.522-0.06 0.282-0.09 0.566-0.092 0.854v1.381h-2c0-0.467-3e-3 -0.933 0-1.4z" fill="#fff"/></g></g></svg>
