<?xml version="1.0" encoding="UTF-8"?>
<svg clip-rule="evenodd" fill-rule="evenodd" stroke-linejoin="round" stroke-miterlimit="1.5" viewBox="0 0 32 32" xmlns="http://www.w3.org/2000/svg">
 <clipPath id="a">
  <path d="m0 0h32v32h-32z" clip-rule="evenodd"/>
 </clipPath>
 <path d="m0 0h32v32h-32z" fill="none"/>
 <g clip-path="url(#a)">
  <path d="m32 8c0-4.418-3.582-8-8-8h-16c-4.418 0-8 3.582-8 8v16c0 4.418 3.582 8 8 8h16c4.418 0 8-3.582 8-8v-16z"/>
  <path d="m30 8c0-1.591-0.632-3.117-1.757-4.243-1.126-1.125-2.652-1.757-4.243-1.757h-16c-1.591 0-3.117 0.632-4.243 1.757-1.125 1.126-1.757 2.652-1.757 4.243v16c0 1.591 0.632 3.117 1.757 4.243 1.126 1.125 2.652 1.757 4.243 1.757h16c1.591 0 3.117-0.632 4.243-1.757 1.125-1.126 1.757-2.652 1.757-4.243v-16z" fill="#982eee"/>
  <g fill="none" stroke="#fff" stroke-width="2">
   <circle cx="10.5" cy="13.5" r="3.5"/>
   <path d="m10 10s1.265-.422 2.757-.919c3.079-1.026 6.407-1.026 9.486 0 1.492.497 2.757.919 2.757.919" stroke-linejoin="miter"/>
   <circle cx="21.5" cy="18.5" r="3.5"/>
   <path d="m22 22s-1.265.422-2.757.919c-3.079 1.026-6.407 1.026-9.486 0-1.492-.497-2.757-.919-2.757-.919" stroke-linejoin="miter"/>
  </g>
 </g>
</svg>
