<?xml version="1.0" encoding="UTF-8"?>
<!DOCTYPE svg  PUBLIC '-//W3C//DTD SVG 1.1//EN'  'http://www.w3.org/Graphics/SVG/1.1/DTD/svg11.dtd'>
<svg clip-rule="evenodd" fill-rule="evenodd" stroke-linejoin="round" stroke-miterlimit="1.4142" version="1.1" viewBox="0 0 32 32" xml:space="preserve" xmlns="http://www.w3.org/2000/svg">
<metadata>
<rdf:RDF xmlns:cc="http://web.resource.org/cc/" xmlns:dc="http://purl.org/dc/elements/1.1/" xmlns:rdf="http://www.w3.org/1999/02/22-rdf-syntax-ns#">

     <rdf:Description rdf:about="">
       <dc:title>Mutant Standard emoji 2023.12</dc:title>
     </rdf:Description>

    <cc:work rdf:about="">
        <cc:license rdf:resource="http://creativecommons.org/licenses/by-nc-sa/4.0/"/>
        <cc:attributionName>Caius Nocturne</cc:attributionName>
        <cc:attributionURL>http://mutant.tech/</cc:attributionURL>
    </cc:work>

</rdf:RDF>
</metadata>
<rect id="libra" width="32" height="32" fill="none"/><clipPath id="_clip1"><rect width="32" height="32"/></clipPath><g clip-path="url(#_clip1)"><g id="outline"><path d="m32 8c0-4.418-3.582-8-8-8h-16c-4.418 0-8 3.582-8 8v16c0 4.418 3.582 8 8 8h16c4.418 0 8-3.582 8-8v-16z"/></g><g id="emoji"><path d="m30 8c0-1.591-0.632-3.117-1.757-4.243-1.126-1.125-2.652-1.757-4.243-1.757h-16c-1.591 0-3.117 0.632-4.243 1.757-1.125 1.126-1.757 2.652-1.757 4.243v16c0 1.591 0.632 3.117 1.757 4.243 1.126 1.125 2.652 1.757 4.243 1.757h16c1.591 0 3.117-0.632 4.243-1.757 1.125-1.126 1.757-2.652 1.757-4.243v-16z" fill="#982eee"/></g><path d="m25 24h-18v-2h18v2zm-11-5h-7v-2h3.718c-0.06-0.085-0.117-0.172-0.174-0.259-0.058-0.093-0.115-0.187-0.17-0.283-0.362-0.648-0.618-1.349-0.746-2.081-0.114-0.657-0.126-1.331-0.036-1.991 0.2-1.451 0.9-2.813 1.964-3.82 0.492-0.465 1.057-0.854 1.669-1.145 0.563-0.268 1.165-0.453 1.782-0.548 0.282-0.044 0.565-0.066 0.851-0.075 0.142-2e-3 0.141-2e-3 0.284 0 0.286 9e-3 0.569 0.031 0.851 0.075 0.617 0.095 1.219 0.28 1.782 0.548 0.637 0.303 1.223 0.712 1.73 1.203 0.632 0.614 1.136 1.357 1.473 2.172 0.316 0.766 0.484 1.593 0.49 2.423 4e-3 0.608-0.077 1.216-0.242 1.801-0.2 0.708-0.522 1.377-0.944 1.98h3.718v2h-7v-1.406c0.417-0.413 0.833-0.827 1.239-1.25 0.445-0.474 0.787-1.033 0.994-1.649 0.202-0.598 0.275-1.238 0.213-1.866-0.11-1.119-0.652-2.189-1.504-2.926-0.387-0.335-0.824-0.607-1.301-0.795-0.552-0.218-1.146-0.323-1.739-0.31-0.594 0.013-1.185 0.145-1.727 0.388-0.458 0.205-0.88 0.489-1.245 0.833-0.637 0.603-1.087 1.391-1.284 2.245-0.116 0.505-0.144 1.029-0.081 1.543 0.05 0.415 0.159 0.822 0.323 1.206 0.225 0.53 0.552 1.007 0.956 1.417l1.156 1.156v1.414z" fill="#fff"/></g></svg>
