<?xml version="1.0" encoding="UTF-8"?>
<svg clip-rule="evenodd" fill-rule="evenodd" stroke-linejoin="round" stroke-miterlimit="1.5" viewBox="0 0 32 32" xmlns="http://www.w3.org/2000/svg">
 <clipPath id="a">
  <path d="m0 0h32v32h-32z" clip-rule="evenodd"/>
 </clipPath>
 <path d="m0 0h32v32h-32z" fill="none"/>
 <g clip-path="url(#a)">
  <path d="m32 8c0-4.418-3.582-8-8-8h-16c-4.418 0-8 3.582-8 8v16c0 4.418 3.582 8 8 8h16c4.418 0 8-3.582 8-8v-16z"/>
  <path d="m30 8c0-1.591-0.632-3.117-1.757-4.243-1.126-1.125-2.652-1.757-4.243-1.757h-16c-1.591 0-3.117 0.632-4.243 1.757-1.125 1.126-1.757 2.652-1.757 4.243v16c0 1.591 0.632 3.117 1.757 4.243 1.126 1.125 2.652 1.757 4.243 1.757h16c1.591 0 3.117-0.632 4.243-1.757 1.125-1.126 1.757-2.652 1.757-4.243v-16z" fill="#982eee"/>
  <g fill="none" stroke="#fff" stroke-width="2">
   <path d="m10 6v16"/>
   <path d="m10 11s1.844-1.844 3.293-3.293c.286-.286.716-.371 1.09-.217.373.155.617.52.617.924v13.586"/>
   <path d="m15 11s1.844-1.844 3.293-3.293c.286-.286.716-.371 1.09-.217.373.155.617.52.617.924v13.586l4 4"/>
   <path d="m19 26h5v-5" stroke-linejoin="miter"/>
  </g>
 </g>
</svg>
