<?xml version="1.0" encoding="UTF-8"?>
<!DOCTYPE svg  PUBLIC '-//W3C//DTD SVG 1.1//EN'  'http://www.w3.org/Graphics/SVG/1.1/DTD/svg11.dtd'>
<svg clip-rule="evenodd" fill-rule="evenodd" stroke-linecap="round" stroke-linejoin="round" stroke-miterlimit="1.5" version="1.1" viewBox="0 0 32 32" xml:space="preserve" xmlns="http://www.w3.org/2000/svg">
<metadata>
<rdf:RDF xmlns:cc="http://web.resource.org/cc/" xmlns:dc="http://purl.org/dc/elements/1.1/" xmlns:rdf="http://www.w3.org/1999/02/22-rdf-syntax-ns#">

     <rdf:Description rdf:about="">
       <dc:title>Mutant Standard S3</dc:title>
     </rdf:Description>

    <cc:work rdf:about="">
        <cc:license rdf:resource="http://creativecommons.org/licenses/by-nc-sa/4.0/"/>
        <cc:attributionName>Dzuk</cc:attributionName>
        <cc:attributionURL>http://mutant.tech/</cc:attributionURL>
    </cc:work>

</rdf:RDF>
</metadata>

    <rect id="meeple_leather" width="32" height="32" fill="none"/>
    <clipPath id="_clip1">
        <rect width="32" height="32"/>
    </clipPath>
    <g clip-path="url(#_clip1)">
        <g id="outline">
            <path d="m11.641 8.106c0.212-0.063 0.358-0.258 0.358-0.48 1e-3 -0.591 1e-3 -1.678 1e-3 -1.678 0-1.047 0.416-2.051 1.156-2.792 0.741-0.74 1.745-1.156 2.792-1.156h2e-3c1.074 0 2.104 0.427 2.864 1.186 0.759 0.76 1.186 1.79 1.186 2.864v1.576c0 0.222 0.147 0.417 0.359 0.479 1.12 0.339 4.606 1.47 6.883 3.045 2.359 1.631 2.536 3.568 0.625 4.367-1.454 0.609-3.169 1.007-4.367 1.236-0.17 0.031-0.311 0.148-0.374 0.309-0.063 0.16-0.039 0.342 0.064 0.48 0.949 1.295 2.358 3.345 3.812 5.931 0.825 1.468 1.808 3.697 2.418 5.133 0.133 0.308 0.101 0.663-0.084 0.944-0.185 0.28-0.498 0.449-0.834 0.449-2.058 1e-3 -5.656 1e-3 -6.987 1e-3 -0.323 0-0.626-0.156-0.814-0.419-0.856-1.198-3.317-4.644-4.294-6.011-0.094-0.132-0.246-0.21-0.407-0.21s-0.313 0.078-0.407 0.21c-1.142 1.598-4.294 6.011-4.294 6.011-0.188 0.263-0.491 0.419-0.814 0.419-1.331 0-4.929 0-6.987-1e-3 -0.336 0-0.649-0.169-0.834-0.449-0.185-0.281-0.217-0.636-0.084-0.944 0.61-1.436 1.593-3.665 2.418-5.133 1.454-2.586 2.863-4.636 3.812-5.93 0.103-0.139 0.128-0.321 0.065-0.481-0.063-0.161-0.205-0.278-0.375-0.309-1.198-0.229-2.913-0.627-4.367-1.236-1.911-0.799-1.734-2.736 0.625-4.367 2.277-1.575 5.763-2.706 6.883-3.044z" fill="none" stroke="#000" stroke-width="4px"/>
        </g>
        <g id="emoji">
            <path d="m11.641 8.106c0.212-0.063 0.358-0.258 0.358-0.48 1e-3 -0.591 1e-3 -1.678 1e-3 -1.678 0-1.047 0.416-2.051 1.156-2.792 0.741-0.74 1.745-1.156 2.792-1.156h2e-3c1.074 0 2.104 0.427 2.864 1.186 0.759 0.76 1.186 1.79 1.186 2.864v1.576c0 0.222 0.147 0.417 0.359 0.479 1.12 0.339 4.606 1.47 6.883 3.045 2.359 1.631 2.536 3.568 0.625 4.367-1.454 0.609-3.169 1.007-4.367 1.236-0.17 0.031-0.311 0.148-0.374 0.309-0.063 0.16-0.039 0.342 0.064 0.48 0.949 1.295 2.358 3.345 3.812 5.931 0.825 1.468 1.808 3.697 2.418 5.133 0.133 0.308 0.101 0.663-0.084 0.944-0.185 0.28-0.498 0.449-0.834 0.449-2.058 1e-3 -5.656 1e-3 -6.987 1e-3 -0.323 0-0.626-0.156-0.814-0.419-0.856-1.198-3.317-4.644-4.294-6.011-0.094-0.132-0.246-0.21-0.407-0.21s-0.313 0.078-0.407 0.21c-1.142 1.598-4.294 6.011-4.294 6.011-0.188 0.263-0.491 0.419-0.814 0.419-1.331 0-4.929 0-6.987-1e-3 -0.336 0-0.649-0.169-0.834-0.449-0.185-0.281-0.217-0.636-0.084-0.944 0.61-1.436 1.593-3.665 2.418-5.133 1.454-2.586 2.863-4.636 3.812-5.93 0.103-0.139 0.128-0.321 0.065-0.481-0.063-0.161-0.205-0.278-0.375-0.309-1.198-0.229-2.913-0.627-4.367-1.236-1.911-0.799-1.734-2.736 0.625-4.367 2.277-1.575 5.763-2.706 6.883-3.044z"/>
            <clipPath id="_clip2">
                <path d="m11.641 8.106c0.212-0.063 0.358-0.258 0.358-0.48 1e-3 -0.591 1e-3 -1.678 1e-3 -1.678 0-1.047 0.416-2.051 1.156-2.792 0.741-0.74 1.745-1.156 2.792-1.156h2e-3c1.074 0 2.104 0.427 2.864 1.186 0.759 0.76 1.186 1.79 1.186 2.864v1.576c0 0.222 0.147 0.417 0.359 0.479 1.12 0.339 4.606 1.47 6.883 3.045 2.359 1.631 2.536 3.568 0.625 4.367-1.454 0.609-3.169 1.007-4.367 1.236-0.17 0.031-0.311 0.148-0.374 0.309-0.063 0.16-0.039 0.342 0.064 0.48 0.949 1.295 2.358 3.345 3.812 5.931 0.825 1.468 1.808 3.697 2.418 5.133 0.133 0.308 0.101 0.663-0.084 0.944-0.185 0.28-0.498 0.449-0.834 0.449-2.058 1e-3 -5.656 1e-3 -6.987 1e-3 -0.323 0-0.626-0.156-0.814-0.419-0.856-1.198-3.317-4.644-4.294-6.011-0.094-0.132-0.246-0.21-0.407-0.21s-0.313 0.078-0.407 0.21c-1.142 1.598-4.294 6.011-4.294 6.011-0.188 0.263-0.491 0.419-0.814 0.419-1.331 0-4.929 0-6.987-1e-3 -0.336 0-0.649-0.169-0.834-0.449-0.185-0.281-0.217-0.636-0.084-0.944 0.61-1.436 1.593-3.665 2.418-5.133 1.454-2.586 2.863-4.636 3.812-5.93 0.103-0.139 0.128-0.321 0.065-0.481-0.063-0.161-0.205-0.278-0.375-0.309-1.198-0.229-2.913-0.627-4.367-1.236-1.911-0.799-1.734-2.736 0.625-4.367 2.277-1.575 5.763-2.706 6.883-3.044z"/>
            </clipPath>
            <g clip-path="url(#_clip2)">
                <rect x="2" y="2" width="28" height="28" fill="#343434"/>
                <clipPath id="_clip3">
                    <rect x="2" y="2" width="28" height="28"/>
                </clipPath>
                <g clip-path="url(#_clip3)">
                    <rect x="1" y="13.2" width="30" height="5.6" fill="#fff"/>
                    <rect x="1" y="23.778" width="30" height="3.111" fill="#5328e0"/>
                    <rect x="1" y="17.556" width="30" height="3.111" fill="#5328e0"/>
                    <rect x="1" y="11.333" width="30" height="3.111" fill="#5328e0"/>
                    <rect x="1" y="5.111" width="30" height="3.111" fill="#5328e0"/>
                </g>
                <path d="m12.059 11.436c-0.482-1.713 0.749-2.944 1.914-3.011 1.164-0.067 2.262 1.03 2.744 2.744 0.392 1.254 0.107 3.185-0.268 4.657-1.473 0.375-3.404 0.66-4.658 0.268-1.713-0.482-2.811-1.579-2.744-2.744 0.067-1.164 1.298-2.395 3.012-1.914z" fill="#f6004a"/>
                <path d="m14.171 7.424 0.085 4e-3 0.085 7e-3 0.084 9e-3 0.083 0.012 0.083 0.015 0.082 0.016 0.082 0.02 0.081 0.021 0.08 0.024 0.078 0.026 0.079 0.028 0.077 0.03 0.076 0.032 0.076 0.035 0.074 0.036 0.074 0.038 0.072 0.04 0.071 0.042 0.071 0.043 0.069 0.045 0.068 0.047 0.067 0.048 0.066 0.05 0.065 0.051 0.064 0.053 0.062 0.054 0.062 0.056 0.061 0.058 0.06 0.058 0.058 0.06 0.058 0.061 0.056 0.062 0.056 0.064 0.055 0.065 0.053 0.066 0.053 0.067 0.051 0.069 0.051 0.07 0.049 0.071 0.049 0.072 0.048 0.073 0.046 0.074 0.045 0.075 0.045 0.077 0.043 0.077 0.043 0.079 0.041 0.079 0.08 0.162 0.076 0.166 0.036 0.084 0.035 0.086 0.034 0.086 0.034 0.088 0.032 0.088 0.031 0.089 0.03 0.091 0.029 0.09 0.027 0.092 0.024 0.081 0.019 0.062 0.021 0.078 0.021 0.08 0.019 0.08 0.018 0.079 0.017 0.08 0.015 0.08 0.014 0.08 0.024 0.162 0.02 0.164 8e-3 0.082 7e-3 0.081 7e-3 0.082 0.01 0.166 6e-3 0.166 2e-3 0.086 1e-3 0.164-2e-3 0.168-5e-3 0.168-8e-3 0.168-0.01 0.168-0.013 0.169-0.016 0.169-0.017 0.168-0.02 0.168-0.021 0.167-0.024 0.166-0.025 0.166-0.027 0.164-0.029 0.164-0.03 0.162-0.031 0.16-0.033 0.159-0.033 0.156-0.035 0.155-0.035 0.153-0.036 0.15-0.182 0.725-0.725 0.181-0.15 0.037-0.152 0.035-0.155 0.035-0.157 0.033-0.158 0.033-0.161 0.031-0.162 0.03-0.163 0.028-0.165 0.027-0.165 0.026-0.167 0.023-0.167 0.022-0.168 0.02-0.168 0.017-0.169 0.015-0.168 0.013-0.168 0.011-0.169 8e-3 -0.168 4e-3 -0.167 2e-3 -0.165-1e-3 -0.086-2e-3 -0.083-2e-3 -0.083-4e-3 -0.082-4e-3 -0.083-6e-3 -0.082-6e-3 -0.082-7e-3 -0.164-0.018-0.081-0.01-0.081-0.012-0.081-0.013-0.081-0.014-0.08-0.015-0.08-0.016-0.08-0.018-0.079-0.019-0.079-0.021-0.078-0.022-0.063-0.019-0.081-0.023-0.092-0.028-0.09-0.029-0.09-0.03-0.089-0.031-0.089-0.032-0.087-0.033-0.086-0.034-0.086-0.035-0.085-0.037-0.083-0.037-0.083-0.039-0.081-0.039-0.081-0.04-0.158-0.084-0.077-0.044-0.076-0.044-0.075-0.045-0.075-0.047-0.073-0.047-0.072-0.049-0.071-0.049-0.069-0.051-0.069-0.052-0.068-0.052-0.066-0.053-0.064-0.055-0.064-0.056-0.063-0.056-0.061-0.058-0.06-0.059-0.058-0.059-0.057-0.061-0.056-0.062-0.054-0.063-0.053-0.063-0.052-0.066-0.05-0.066-0.048-0.066-0.047-0.069-0.045-0.069-0.043-0.07-0.042-0.072-0.04-0.072-0.038-0.073-0.036-0.074-0.034-0.076-0.033-0.076-0.03-0.077-0.028-0.078-0.026-0.08-0.024-0.08-0.021-0.08-0.019-0.081-0.017-0.084-0.015-0.083-0.011-0.082-0.01-0.084-7e-3 -0.085-4e-3 -0.085-2e-3 -0.085 1e-3 -0.085 4e-3 -0.086 6e-3 -0.086 9e-3 -0.084 0.011-0.084 0.014-0.085 0.016-0.083 0.019-0.082 0.021-0.082 0.023-0.081 0.025-0.08 0.028-0.081 0.03-0.079 0.032-0.077 0.034-0.078 0.036-0.076 0.039-0.076 0.04-0.074 0.042-0.073 0.044-0.073 0.047-0.071 0.048-0.071 0.05-0.069 0.052-0.068 0.054-0.067 0.056-0.066 0.058-0.064 0.06-0.063 0.061-0.062 0.064-0.06 0.065-0.059 0.067-0.057 0.069-0.055 0.071-0.054 0.073-0.053 0.074-0.05 0.076-0.049 0.077-0.046 0.08-0.045 0.081-0.043 0.082-0.041 0.085-0.038 0.085-0.036 0.088-0.035 0.088-0.031 0.091-0.029 0.091-0.027 0.093-0.024 0.094-0.022 0.096-0.019 0.096-0.016 0.097-0.014 0.081-9e-3 9e-3 -0.082 0.014-0.096 0.016-0.097 0.019-0.095 0.022-0.094 0.024-0.093 0.027-0.092 0.029-0.09 0.032-0.088 0.034-0.088 0.036-0.086 0.039-0.084 0.04-0.083 0.043-0.08 0.045-0.08 0.047-0.078 0.048-0.075 0.051-0.075 0.052-0.072 0.054-0.071 0.056-0.069 0.057-0.067 0.059-0.066 0.059-0.063 0.062-0.061 0.063-0.06 0.065-0.058 0.065-0.056 0.067-0.054 0.068-0.052 0.069-0.05 0.071-0.049 0.071-0.046 0.073-0.044 0.073-0.042 0.075-0.041 0.075-0.038 0.077-0.036 0.077-0.034 0.078-0.032 0.079-0.03 0.08-0.028 0.08-0.025 0.081-0.024 0.082-0.021 0.083-0.018 0.083-0.016 0.084-0.014 0.084-0.012 0.085-8e-3 0.085-7e-3 0.086-3e-3 0.085-1e-3 0.085 2e-3zm-0.144 0.999-0.054 2e-3 -0.055 4e-3 -0.055 5e-3 -0.054 8e-3 -0.055 9e-3 -0.055 0.011-0.054 0.012-0.054 0.014-0.055 0.015-0.054 0.017-0.053 0.019-0.054 0.02-0.053 0.022-0.052 0.023-0.052 0.025-0.052 0.026-0.051 0.028-0.051 0.029-0.05 0.03-0.049 0.032-0.049 0.034-0.048 0.035-0.048 0.036-0.046 0.037-0.046 0.039-0.088 0.082-0.043 0.043-0.042 0.044-0.041 0.046-0.04 0.046-0.038 0.048-0.038 0.049-0.036 0.051-0.035 0.051-0.034 0.053-0.032 0.054-0.031 0.055-0.03 0.056-0.028 0.057-0.026 0.058-0.026 0.06-0.023 0.06-0.022 0.062-0.02 0.062-0.019 0.064-0.017 0.064-0.015 0.066-0.013 0.066-0.012 0.068-9e-3 0.068-8e-3 0.07-5e-3 0.07-4e-3 0.071-1e-3 0.072v0.073l3e-3 0.074 5e-3 0.074 7e-3 0.076 9e-3 0.076 0.012 0.077 0.014 0.078 0.016 0.078 0.019 0.079 0.022 0.08-0.08-0.021-0.079-0.019-0.079-0.016-0.078-0.014-0.077-0.012-0.076-9e-3 -0.075-8e-3 -0.075-4e-3 -0.074-3e-3 -0.072-1e-3 -0.073 2e-3 -0.071 3e-3 -0.07 6e-3 -0.069 7e-3 -0.069 0.01-0.067 0.011-0.067 0.014-0.065 0.015-0.065 0.017-0.063 0.018-0.063 0.021-0.062 0.022-0.06 0.023-0.059 0.025-0.059 0.027-0.057 0.028-0.056 0.03-0.055 0.031-0.054 0.032-0.053 0.034-0.051 0.035-0.05 0.036-0.05 0.038-0.047 0.038-0.047 0.04-0.046 0.041-0.044 0.042-0.043 0.042-0.041 0.044-0.04 0.045-0.039 0.046-0.038 0.046-0.036 0.047-0.035 0.048-0.033 0.049-0.032 0.05-0.031 0.05-0.029 0.05-0.028 0.052-0.026 0.051-0.025 0.052-0.023 0.053-0.022 0.053-0.02 0.053-0.036 0.108-0.015 0.054-0.014 0.055-0.012 0.054-0.011 0.055-9e-3 0.054-7e-3 0.055-6e-3 0.055-4e-3 0.054-2e-3 0.055-1e-3 0.054 1e-3 0.055 3e-3 0.054 5e-3 0.054 6e-3 0.054 7e-3 0.053 0.01 0.054 0.01 0.053 0.013 0.053 0.014 0.053 0.016 0.053 0.017 0.052 0.019 0.052 0.02 0.052 0.022 0.052 0.023 0.051 0.025 0.051 0.026 0.05 0.028 0.051 0.029 0.05 0.031 0.049 0.032 0.049 0.033 0.049 0.035 0.049 0.036 0.048 0.038 0.047 0.039 0.047 0.04 0.047 0.042 0.046 0.043 0.046 0.044 0.045 0.046 0.045 0.047 0.044 0.048 0.044 0.05 0.043 0.051 0.043 0.052 0.042 0.053 0.041 0.054 0.041 0.056 0.041 0.057 0.039 0.058 0.039 0.059 0.039 0.06 0.038 0.062 0.037 0.062 0.036 0.064 0.036 0.065 0.035 0.066 0.034 0.067 0.034 0.068 0.033 0.069 0.032 0.07 0.031 0.071 0.031 0.072 0.03 0.074 0.029 0.074 0.028 0.075 0.027 0.076 0.027 0.077 0.025 0.078 0.025 0.079 0.024 0.08 0.023 0.059 0.018 0.06 0.017 0.062 0.016 0.062 0.015 0.063 0.014 0.064 0.013 0.064 0.012 0.066 0.012 0.066 0.01 0.067 0.01 0.136 0.016 0.069 7e-3 0.07 6e-3 0.071 6e-3 0.071 5e-3 0.071 3e-3 0.073 3e-3 0.072 3e-3 0.073 1e-3 0.148 1e-3 0.15-1e-3 0.151-5e-3 0.152-7e-3 0.153-9e-3 0.154-0.012 0.155-0.014 0.155-0.016 0.155-0.019 0.156-0.02 0.155-0.022 0.155-0.023 0.154-0.026 0.153-0.026 0.153-0.029 0.151-0.029 0.149-0.031 0.148-0.031 0.146-0.033 0.145-0.033 0.141-0.035 0.14-0.035 0.035-0.139 0.034-0.142 0.033-0.144 0.033-0.146 0.032-0.148 0.03-0.15 0.03-0.151 0.028-0.152 0.027-0.153 0.025-0.155 0.024-0.154 0.022-0.156 0.02-0.155 0.018-0.155 0.016-0.156 0.014-0.154 0.012-0.154 0.01-0.154 7e-3 -0.152 4e-3 -0.151 2e-3 -0.149-1e-3 -0.148-4e-3 -0.146-3e-3 -0.072-4e-3 -0.072-5e-3 -0.071-5e-3 -0.07-6e-3 -0.07-7e-3 -0.069-8e-3 -0.068-9e-3 -0.068-0.02-0.134-0.011-0.065-0.013-0.065-0.013-0.064-0.014-0.063-0.015-0.062-0.016-0.061-0.017-0.06-0.017-0.059-0.024-0.08-0.023-0.079-0.025-0.078-0.026-0.077-0.026-0.076-0.028-0.076-0.028-0.074-0.029-0.073-0.03-0.072-0.03-0.071-0.064-0.14-0.033-0.068-0.033-0.067-0.07-0.13-0.035-0.064-0.037-0.063-0.037-0.061-0.076-0.12-0.039-0.058-0.08-0.112-0.041-0.055-0.042-0.053-0.042-0.052-0.042-0.05-0.044-0.05-0.043-0.048-0.045-0.047-0.044-0.046-0.046-0.044-0.045-0.043-0.047-0.042-0.046-0.04-0.047-0.039-0.048-0.038-0.048-0.036-0.048-0.035-0.049-0.034-0.049-0.032-0.1-0.06-0.05-0.027-0.051-0.027-0.102-0.048-0.052-0.021-0.051-0.021-0.053-0.018-0.052-0.018-0.053-0.015-0.052-0.014-0.054-0.013-0.053-0.011-0.053-9e-3 -0.054-8e-3 -0.054-6e-3 -0.054-4e-3 -0.054-3e-3 -0.054-1e-3 -0.055 1e-3z" fill="#fff"/>
            </g>
        </g>
    </g>
</svg>
