<?xml version="1.0" encoding="UTF-8" standalone="no"?>
<!DOCTYPE svg PUBLIC "-//W3C//DTD SVG 1.1//EN" "http://www.w3.org/Graphics/SVG/1.1/DTD/svg11.dtd">
<svg width="100%" height="100%" viewBox="0 0 32 32" version="1.1" xmlns="http://www.w3.org/2000/svg" xmlns:xlink="http://www.w3.org/1999/xlink" xml:space="preserve" xmlns:serif="http://www.serif.com/" style="fill-rule:evenodd;clip-rule:evenodd;stroke-linecap:round;stroke-linejoin:round;stroke-miterlimit:1.5;">
<metadata>
<rdf:RDF xmlns:cc="http://web.resource.org/cc/"
         xmlns:rdf="http://www.w3.org/1999/02/22-rdf-syntax-ns#"
         xmlns:dc = "http://purl.org/dc/elements/1.1/"
         >

     <rdf:Description rdf:about="">
       <dc:title>Mutant Standard S3</dc:title>
     </rdf:Description>

    <cc:work rdf:about="">
        <cc:license rdf:resource="http://creativecommons.org/licenses/by-nc-sa/4.0/"/>
        <cc:attributionName>Dzuk</cc:attributionName>
        <cc:attributionURL>http://mutant.tech/</cc:attributionURL>
    </cc:work>

</rdf:RDF>
</metadata>

    <rect id="meeple_aro" x="0" y="0" width="32" height="32" style="fill:none;"/>
    <clipPath id="_clip1">
        <rect x="0" y="0" width="32" height="32"/>
    </clipPath>
    <g clip-path="url(#_clip1)">
        <g id="outline">
            <path d="M11.641,8.106c0.212,-0.063 0.358,-0.258 0.358,-0.48c0.001,-0.591 0.001,-1.678 0.001,-1.678c0,-1.047 0.416,-2.051 1.156,-2.792c0.741,-0.74 1.745,-1.156 2.792,-1.156l0.002,0c1.074,0 2.104,0.427 2.864,1.186c0.759,0.76 1.186,1.79 1.186,2.864l0,1.576c0,0.222 0.147,0.417 0.359,0.479c1.12,0.339 4.606,1.47 6.883,3.045c2.359,1.631 2.536,3.568 0.625,4.367c-1.454,0.609 -3.169,1.007 -4.367,1.236c-0.17,0.031 -0.311,0.148 -0.374,0.309c-0.063,0.16 -0.039,0.342 0.064,0.48c0.949,1.295 2.358,3.345 3.812,5.931c0.825,1.468 1.808,3.697 2.418,5.133c0.133,0.308 0.101,0.663 -0.084,0.944c-0.185,0.28 -0.498,0.449 -0.834,0.449c-2.058,0.001 -5.656,0.001 -6.987,0.001c-0.323,0 -0.626,-0.156 -0.814,-0.419c-0.856,-1.198 -3.317,-4.644 -4.294,-6.011c-0.094,-0.132 -0.246,-0.21 -0.407,-0.21c-0.161,0 -0.313,0.078 -0.407,0.21c-1.142,1.598 -4.294,6.011 -4.294,6.011c-0.188,0.263 -0.491,0.419 -0.814,0.419c-1.331,0 -4.929,0 -6.987,-0.001c-0.336,0 -0.649,-0.169 -0.834,-0.449c-0.185,-0.281 -0.217,-0.636 -0.084,-0.944c0.61,-1.436 1.593,-3.665 2.418,-5.133c1.454,-2.586 2.863,-4.636 3.812,-5.93c0.103,-0.139 0.128,-0.321 0.065,-0.481c-0.063,-0.161 -0.205,-0.278 -0.375,-0.309c-1.198,-0.229 -2.913,-0.627 -4.367,-1.236c-1.911,-0.799 -1.734,-2.736 0.625,-4.367c2.277,-1.575 5.763,-2.706 6.883,-3.044Z" style="fill:none;stroke:#000;stroke-width:4px;"/>
        </g>
        <g id="emoji">
            <path d="M11.641,8.106c0.212,-0.063 0.358,-0.258 0.358,-0.48c0.001,-0.591 0.001,-1.678 0.001,-1.678c0,-1.047 0.416,-2.051 1.156,-2.792c0.741,-0.74 1.745,-1.156 2.792,-1.156l0.002,0c1.074,0 2.104,0.427 2.864,1.186c0.759,0.76 1.186,1.79 1.186,2.864l0,1.576c0,0.222 0.147,0.417 0.359,0.479c1.12,0.339 4.606,1.47 6.883,3.045c2.359,1.631 2.536,3.568 0.625,4.367c-1.454,0.609 -3.169,1.007 -4.367,1.236c-0.17,0.031 -0.311,0.148 -0.374,0.309c-0.063,0.16 -0.039,0.342 0.064,0.48c0.949,1.295 2.358,3.345 3.812,5.931c0.825,1.468 1.808,3.697 2.418,5.133c0.133,0.308 0.101,0.663 -0.084,0.944c-0.185,0.28 -0.498,0.449 -0.834,0.449c-2.058,0.001 -5.656,0.001 -6.987,0.001c-0.323,0 -0.626,-0.156 -0.814,-0.419c-0.856,-1.198 -3.317,-4.644 -4.294,-6.011c-0.094,-0.132 -0.246,-0.21 -0.407,-0.21c-0.161,0 -0.313,0.078 -0.407,0.21c-1.142,1.598 -4.294,6.011 -4.294,6.011c-0.188,0.263 -0.491,0.419 -0.814,0.419c-1.331,0 -4.929,0 -6.987,-0.001c-0.336,0 -0.649,-0.169 -0.834,-0.449c-0.185,-0.281 -0.217,-0.636 -0.084,-0.944c0.61,-1.436 1.593,-3.665 2.418,-5.133c1.454,-2.586 2.863,-4.636 3.812,-5.93c0.103,-0.139 0.128,-0.321 0.065,-0.481c-0.063,-0.161 -0.205,-0.278 -0.375,-0.309c-1.198,-0.229 -2.913,-0.627 -4.367,-1.236c-1.911,-0.799 -1.734,-2.736 0.625,-4.367c2.277,-1.575 5.763,-2.706 6.883,-3.044Z"/>
            <clipPath id="_clip2">
                <path d="M11.641,8.106c0.212,-0.063 0.358,-0.258 0.358,-0.48c0.001,-0.591 0.001,-1.678 0.001,-1.678c0,-1.047 0.416,-2.051 1.156,-2.792c0.741,-0.74 1.745,-1.156 2.792,-1.156l0.002,0c1.074,0 2.104,0.427 2.864,1.186c0.759,0.76 1.186,1.79 1.186,2.864l0,1.576c0,0.222 0.147,0.417 0.359,0.479c1.12,0.339 4.606,1.47 6.883,3.045c2.359,1.631 2.536,3.568 0.625,4.367c-1.454,0.609 -3.169,1.007 -4.367,1.236c-0.17,0.031 -0.311,0.148 -0.374,0.309c-0.063,0.16 -0.039,0.342 0.064,0.48c0.949,1.295 2.358,3.345 3.812,5.931c0.825,1.468 1.808,3.697 2.418,5.133c0.133,0.308 0.101,0.663 -0.084,0.944c-0.185,0.28 -0.498,0.449 -0.834,0.449c-2.058,0.001 -5.656,0.001 -6.987,0.001c-0.323,0 -0.626,-0.156 -0.814,-0.419c-0.856,-1.198 -3.317,-4.644 -4.294,-6.011c-0.094,-0.132 -0.246,-0.21 -0.407,-0.21c-0.161,0 -0.313,0.078 -0.407,0.21c-1.142,1.598 -4.294,6.011 -4.294,6.011c-0.188,0.263 -0.491,0.419 -0.814,0.419c-1.331,0 -4.929,0 -6.987,-0.001c-0.336,0 -0.649,-0.169 -0.834,-0.449c-0.185,-0.281 -0.217,-0.636 -0.084,-0.944c0.61,-1.436 1.593,-3.665 2.418,-5.133c1.454,-2.586 2.863,-4.636 3.812,-5.93c0.103,-0.139 0.128,-0.321 0.065,-0.481c-0.063,-0.161 -0.205,-0.278 -0.375,-0.309c-1.198,-0.229 -2.913,-0.627 -4.367,-1.236c-1.911,-0.799 -1.734,-2.736 0.625,-4.367c2.277,-1.575 5.763,-2.706 6.883,-3.044Z"/>
            </clipPath>
            <g clip-path="url(#_clip2)">
                <rect x="2" y="2" width="28" height="28" style="fill:none;"/>
                <clipPath id="_clip3">
                    <rect x="2" y="2" width="28" height="28"/>
                </clipPath>
                <g clip-path="url(#_clip3)">
                    <rect x="1" y="11.8" width="30" height="8.4" style="fill:#fff;"/>
                    <rect x="1" y="18.8" width="30" height="7" style="fill:#8a8a8a;"/>
                    <rect x="1" y="24.4" width="30" height="7" style="fill:#343434;"/>
                    <rect x="1" y="6.2" width="30" height="7" style="fill:#aede72;"/>
                    <rect x="1" y="0.6" width="30" height="7" style="fill:#40ac3e;"/>
                </g>
            </g>
        </g>
    </g>
</svg>
