<?xml version="1.0" encoding="UTF-8"?>
<!DOCTYPE svg  PUBLIC '-//W3C//DTD SVG 1.1//EN'  'http://www.w3.org/Graphics/SVG/1.1/DTD/svg11.dtd'>
<svg clip-rule="evenodd" fill-rule="evenodd" stroke-linecap="round" stroke-linejoin="round" stroke-miterlimit="1.5" version="1.1" viewBox="0 0 32 32" xml:space="preserve" xmlns="http://www.w3.org/2000/svg">
<metadata>
<rdf:RDF xmlns:cc="http://web.resource.org/cc/" xmlns:dc="http://purl.org/dc/elements/1.1/" xmlns:rdf="http://www.w3.org/1999/02/22-rdf-syntax-ns#">

     <rdf:Description rdf:about="">
       <dc:title>Mutant Standard S3</dc:title>
     </rdf:Description>

    <cc:work rdf:about="">
        <cc:license rdf:resource="http://creativecommons.org/licenses/by-nc-sa/4.0/"/>
        <cc:attributionName>Dzuk</cc:attributionName>
        <cc:attributionURL>http://mutant.tech/</cc:attributionURL>
    </cc:work>

</rdf:RDF>
</metadata>

    <rect id="meeple_intersex" width="32" height="32" fill="none"/>
    <clipPath id="_clip1">
        <rect width="32" height="32"/>
    </clipPath>
    <g clip-path="url(#_clip1)">
        <g id="outline">
            <path d="m11.641 8.106c0.212-0.063 0.358-0.258 0.358-0.48 1e-3 -0.591 1e-3 -1.678 1e-3 -1.678 0-1.047 0.416-2.051 1.156-2.792 0.741-0.74 1.745-1.156 2.792-1.156h2e-3c1.074 0 2.104 0.427 2.864 1.186 0.759 0.76 1.186 1.79 1.186 2.864v1.576c0 0.222 0.147 0.417 0.359 0.479 1.12 0.339 4.606 1.47 6.883 3.045 2.359 1.631 2.536 3.568 0.625 4.367-1.454 0.609-3.169 1.007-4.367 1.236-0.17 0.031-0.311 0.148-0.374 0.309-0.063 0.16-0.039 0.342 0.064 0.48 0.949 1.295 2.358 3.345 3.812 5.931 0.825 1.468 1.808 3.697 2.418 5.133 0.133 0.308 0.101 0.663-0.084 0.944-0.185 0.28-0.498 0.449-0.834 0.449-2.058 1e-3 -5.656 1e-3 -6.987 1e-3 -0.323 0-0.626-0.156-0.814-0.419-0.856-1.198-3.317-4.644-4.294-6.011-0.094-0.132-0.246-0.21-0.407-0.21s-0.313 0.078-0.407 0.21c-1.142 1.598-4.294 6.011-4.294 6.011-0.188 0.263-0.491 0.419-0.814 0.419-1.331 0-4.929 0-6.987-1e-3 -0.336 0-0.649-0.169-0.834-0.449-0.185-0.281-0.217-0.636-0.084-0.944 0.61-1.436 1.593-3.665 2.418-5.133 1.454-2.586 2.863-4.636 3.812-5.93 0.103-0.139 0.128-0.321 0.065-0.481-0.063-0.161-0.205-0.278-0.375-0.309-1.198-0.229-2.913-0.627-4.367-1.236-1.911-0.799-1.734-2.736 0.625-4.367 2.277-1.575 5.763-2.706 6.883-3.044z" fill="none" stroke="#000" stroke-width="4px"/>
        </g>
        <g id="emoji">
            <path d="m11.641 8.106c0.212-0.063 0.358-0.258 0.358-0.48 1e-3 -0.591 1e-3 -1.678 1e-3 -1.678 0-1.047 0.416-2.051 1.156-2.792 0.741-0.74 1.745-1.156 2.792-1.156h2e-3c1.074 0 2.104 0.427 2.864 1.186 0.759 0.76 1.186 1.79 1.186 2.864v1.576c0 0.222 0.147 0.417 0.359 0.479 1.12 0.339 4.606 1.47 6.883 3.045 2.359 1.631 2.536 3.568 0.625 4.367-1.454 0.609-3.169 1.007-4.367 1.236-0.17 0.031-0.311 0.148-0.374 0.309-0.063 0.16-0.039 0.342 0.064 0.48 0.949 1.295 2.358 3.345 3.812 5.931 0.825 1.468 1.808 3.697 2.418 5.133 0.133 0.308 0.101 0.663-0.084 0.944-0.185 0.28-0.498 0.449-0.834 0.449-2.058 1e-3 -5.656 1e-3 -6.987 1e-3 -0.323 0-0.626-0.156-0.814-0.419-0.856-1.198-3.317-4.644-4.294-6.011-0.094-0.132-0.246-0.21-0.407-0.21s-0.313 0.078-0.407 0.21c-1.142 1.598-4.294 6.011-4.294 6.011-0.188 0.263-0.491 0.419-0.814 0.419-1.331 0-4.929 0-6.987-1e-3 -0.336 0-0.649-0.169-0.834-0.449-0.185-0.281-0.217-0.636-0.084-0.944 0.61-1.436 1.593-3.665 2.418-5.133 1.454-2.586 2.863-4.636 3.812-5.93 0.103-0.139 0.128-0.321 0.065-0.481-0.063-0.161-0.205-0.278-0.375-0.309-1.198-0.229-2.913-0.627-4.367-1.236-1.911-0.799-1.734-2.736 0.625-4.367 2.277-1.575 5.763-2.706 6.883-3.044z" fill="#dac100"/>
            <circle cx="16" cy="16" r="4" fill="#dac100"/>
            <path d="m16.141 10.502 0.141 5e-3 0.14 9e-3 0.138 0.012 0.139 0.016 0.137 0.019 0.136 0.023 0.135 0.026 0.134 0.029 0.132 0.032 0.132 0.036 0.13 0.039 0.129 0.041 0.127 0.045 0.126 0.048 0.124 0.051 0.123 0.054 0.121 0.056 0.119 0.06 0.118 0.062 0.116 0.065 0.115 0.068 0.112 0.07 0.111 0.073 0.108 0.075 0.107 0.078 0.105 0.08 0.103 0.083 0.1 0.085 0.099 0.088 0.096 0.089 0.095 0.092 0.092 0.095 0.089 0.096 0.088 0.099 0.085 0.1 0.083 0.103 0.08 0.105 0.078 0.107 0.075 0.108 0.073 0.111 0.07 0.112 0.068 0.115 0.065 0.115 0.062 0.118 0.06 0.12 0.056 0.121 0.054 0.123 0.051 0.124 0.048 0.126 0.044 0.127 0.042 0.129 0.039 0.13 0.036 0.132 0.032 0.133 0.029 0.133 0.026 0.135 0.023 0.136 0.019 0.138 0.016 0.137 0.012 0.14 9e-3 0.139 5e-3 0.141 2e-3 0.141-2e-3 0.141-5e-3 0.141-9e-3 0.139-0.012 0.14-0.016 0.137-0.019 0.138-0.023 0.136-0.026 0.135-0.029 0.133-0.032 0.133-0.036 0.132-0.039 0.13-0.042 0.129-0.044 0.127-0.048 0.126-0.051 0.124-0.054 0.123-0.056 0.121-0.06 0.12-0.062 0.118-0.065 0.115-0.068 0.115-0.07 0.112-0.073 0.111-0.075 0.108-0.078 0.107-0.08 0.105-0.083 0.103-0.085 0.1-0.088 0.099-0.089 0.096-0.092 0.095-0.095 0.092-0.096 0.089-0.099 0.088-0.1 0.085-0.103 0.083-0.105 0.08-0.107 0.078-0.108 0.075-0.111 0.073-0.112 0.07-0.115 0.068-0.116 0.065-0.118 0.062-0.119 0.06-0.121 0.056-0.123 0.054-0.124 0.051-0.126 0.048-0.127 0.045-0.129 0.041-0.13 0.039-0.132 0.036-0.132 0.032-0.134 0.029-0.135 0.026-0.136 0.023-0.137 0.019-0.139 0.016-0.138 0.012-0.14 9e-3 -0.141 5e-3 -0.141 2e-3 -0.141-2e-3 -0.141-5e-3 -0.14-9e-3 -0.138-0.012-0.139-0.016-0.137-0.019-0.136-0.023-0.135-0.026-0.134-0.029-0.132-0.032-0.132-0.036-0.13-0.039-0.129-0.041-0.127-0.045-0.126-0.048-0.124-0.051-0.123-0.054-0.121-0.056-0.119-0.06-0.118-0.062-0.116-0.065-0.115-0.068-0.112-0.07-0.111-0.073-0.108-0.075-0.107-0.078-0.105-0.08-0.103-0.083-0.1-0.085-0.099-0.088-0.096-0.089-0.095-0.092-0.092-0.095-0.089-0.096-0.088-0.099-0.085-0.1-0.083-0.103-0.08-0.105-0.078-0.107-0.075-0.108-0.073-0.111-0.07-0.112-0.068-0.115-0.065-0.115-0.062-0.118-0.06-0.12-0.056-0.121-0.054-0.123-0.051-0.124-0.048-0.126-0.044-0.127-0.042-0.129-0.039-0.13-0.036-0.132-0.032-0.133-0.029-0.133-0.026-0.135-0.023-0.136-0.019-0.138-0.016-0.137-0.012-0.14-9e-3 -0.139-5e-3 -0.141-2e-3 -0.141 2e-3 -0.141 5e-3 -0.141 9e-3 -0.139 0.012-0.14 0.016-0.137 0.019-0.138 0.023-0.136 0.026-0.135 0.029-0.133 0.032-0.133 0.036-0.132 0.039-0.13 0.042-0.129 0.044-0.127 0.048-0.126 0.051-0.124 0.054-0.123 0.056-0.121 0.06-0.12 0.062-0.118 0.065-0.115 0.068-0.115 0.07-0.112 0.073-0.111 0.075-0.108 0.078-0.107 0.08-0.105 0.083-0.103 0.085-0.1 0.088-0.099 0.089-0.096 0.092-0.095 0.095-0.092 0.096-0.089 0.099-0.088 0.1-0.085 0.103-0.083 0.105-0.08 0.107-0.078 0.108-0.075 0.111-0.073 0.112-0.07 0.115-0.068 0.116-0.065 0.118-0.062 0.119-0.06 0.121-0.056 0.123-0.054 0.124-0.051 0.126-0.048 0.127-0.045 0.129-0.041 0.13-0.039 0.132-0.036 0.132-0.032 0.134-0.029 0.135-0.026 0.136-0.023 0.137-0.019 0.139-0.016 0.138-0.012 0.14-9e-3 0.141-5e-3 0.141-2e-3 0.141 2e-3zm-0.206 2.999-0.065 2e-3 -0.064 4e-3 -0.063 6e-3 -0.063 7e-3 -0.062 9e-3 -0.062 0.01-0.061 0.012-0.06 0.013-0.06 0.015-0.06 0.016-0.058 0.017-0.058 0.019-0.058 0.02-0.056 0.022-0.057 0.023-0.055 0.024-0.055 0.026-0.054 0.027-0.054 0.028-0.104 0.06-0.051 0.032-0.051 0.033-0.098 0.07-0.048 0.037-0.047 0.038-0.046 0.039-0.045 0.04-0.044 0.041-0.043 0.042-0.042 0.043-0.041 0.044-0.04 0.045-0.039 0.046-0.038 0.047-0.037 0.048-0.07 0.098-0.033 0.051-0.032 0.051-0.03 0.052-0.03 0.053-0.028 0.053-0.027 0.054-0.026 0.055-0.024 0.055-0.023 0.056-0.022 0.058-0.02 0.057-0.019 0.058-0.017 0.059-0.016 0.059-0.015 0.06-0.013 0.06-0.012 0.062-0.01 0.061-9e-3 0.062-7e-3 0.063-6e-3 0.063-4e-3 0.064-2e-3 0.065-1e-3 0.065 1e-3 0.065 2e-3 0.065 4e-3 0.064 6e-3 0.063 7e-3 0.063 9e-3 0.062 0.01 0.061 0.012 0.062 0.013 0.06 0.015 0.06 0.016 0.059 0.017 0.059 0.019 0.058 0.02 0.057 0.022 0.058 0.023 0.056 0.024 0.055 0.026 0.055 0.027 0.054 0.028 0.053 0.03 0.053 0.03 0.052 0.032 0.051 0.033 0.051 0.07 0.098 0.037 0.048 0.038 0.047 0.039 0.046 0.04 0.045 0.041 0.044 0.042 0.043 0.043 0.042 0.044 0.041 0.045 0.04 0.046 0.039 0.047 0.038 0.048 0.037 0.098 0.07 0.051 0.033 0.051 0.032 0.104 0.06 0.054 0.028 0.054 0.027 0.055 0.026 0.055 0.024 0.057 0.023 0.056 0.022 0.058 0.02 0.058 0.019 0.058 0.017 0.06 0.016 0.06 0.015 0.06 0.013 0.061 0.012 0.062 0.01 0.062 9e-3 0.063 7e-3 0.063 6e-3 0.064 4e-3 0.065 2e-3 0.065 1e-3 0.065-1e-3 0.065-2e-3 0.064-4e-3 0.063-6e-3 0.063-7e-3 0.062-9e-3 0.062-0.01 0.061-0.012 0.06-0.013 0.06-0.015 0.06-0.016 0.058-0.017 0.058-0.019 0.058-0.02 0.056-0.022 0.057-0.023 0.055-0.024 0.055-0.026 0.054-0.027 0.054-0.028 0.104-0.06 0.051-0.032 0.051-0.033 0.098-0.07 0.048-0.037 0.047-0.038 0.046-0.039 0.045-0.04 0.044-0.041 0.043-0.042 0.042-0.043 0.041-0.044 0.04-0.045 0.039-0.046 0.038-0.047 0.037-0.048 0.07-0.098 0.033-0.051 0.032-0.051 0.03-0.052 0.03-0.053 0.028-0.053 0.027-0.054 0.026-0.055 0.024-0.055 0.023-0.056 0.022-0.058 0.02-0.057 0.019-0.058 0.017-0.059 0.016-0.059 0.015-0.06 0.013-0.06 0.012-0.062 0.01-0.061 9e-3 -0.062 7e-3 -0.063 6e-3 -0.063 4e-3 -0.064 2e-3 -0.065 1e-3 -0.065-1e-3 -0.065-2e-3 -0.065-4e-3 -0.064-6e-3 -0.063-7e-3 -0.063-9e-3 -0.062-0.01-0.061-0.012-0.062-0.013-0.06-0.015-0.06-0.016-0.059-0.017-0.059-0.019-0.058-0.02-0.057-0.022-0.058-0.023-0.056-0.024-0.055-0.026-0.055-0.027-0.054-0.028-0.053-0.03-0.053-0.03-0.052-0.032-0.051-0.033-0.051-0.07-0.098-0.037-0.048-0.038-0.047-0.039-0.046-0.04-0.045-0.041-0.044-0.042-0.043-0.043-0.042-0.044-0.041-0.045-0.04-0.046-0.039-0.047-0.038-0.048-0.037-0.098-0.07-0.051-0.033-0.051-0.032-0.104-0.06-0.054-0.028-0.054-0.027-0.055-0.026-0.055-0.024-0.057-0.023-0.056-0.022-0.058-0.02-0.058-0.019-0.058-0.017-0.06-0.016-0.06-0.015-0.06-0.013-0.061-0.012-0.062-0.01-0.062-9e-3 -0.063-7e-3 -0.063-6e-3 -0.064-4e-3 -0.065-2e-3 -0.065-1e-3 -0.065 1e-3z" fill="#730694"/>
        </g>
    </g>
</svg>
