<?xml version="1.0" encoding="UTF-8" standalone="no"?>
<!DOCTYPE svg PUBLIC "-//W3C//DTD SVG 1.1//EN" "http://www.w3.org/Graphics/SVG/1.1/DTD/svg11.dtd">
<svg width="100%" height="100%" viewBox="0 0 32 32" version="1.1" xmlns="http://www.w3.org/2000/svg" xmlns:xlink="http://www.w3.org/1999/xlink" xml:space="preserve" xmlns:serif="http://www.serif.com/" style="fill-rule:evenodd;clip-rule:evenodd;stroke-linecap:round;stroke-linejoin:round;stroke-miterlimit:1.5;">
<metadata>
<rdf:RDF xmlns:cc="http://web.resource.org/cc/"
         xmlns:rdf="http://www.w3.org/1999/02/22-rdf-syntax-ns#"
         xmlns:dc = "http://purl.org/dc/elements/1.1/"
         >

     <rdf:Description rdf:about="">
       <dc:title>Mutant Standard S3</dc:title>
     </rdf:Description>

    <cc:work rdf:about="">
        <cc:license rdf:resource="http://creativecommons.org/licenses/by-nc-sa/4.0/"/>
        <cc:attributionName>Dzuk</cc:attributionName>
        <cc:attributionURL>http://mutant.tech/</cc:attributionURL>
    </cc:work>

</rdf:RDF>
</metadata>

    <rect id="meeple_leather" x="0" y="0" width="32" height="32" style="fill:none;"/>
    <clipPath id="_clip1">
        <rect x="0" y="0" width="32" height="32"/>
    </clipPath>
    <g clip-path="url(#_clip1)">
        <g id="outline">
            <path d="M11.641,8.106c0.212,-0.063 0.358,-0.258 0.358,-0.48c0.001,-0.591 0.001,-1.678 0.001,-1.678c0,-1.047 0.416,-2.051 1.156,-2.792c0.741,-0.74 1.745,-1.156 2.792,-1.156l0.002,0c1.074,0 2.104,0.427 2.864,1.186c0.759,0.76 1.186,1.79 1.186,2.864l0,1.576c0,0.222 0.147,0.417 0.359,0.479c1.12,0.339 4.606,1.47 6.883,3.045c2.359,1.631 2.536,3.568 0.625,4.367c-1.454,0.609 -3.169,1.007 -4.367,1.236c-0.17,0.031 -0.311,0.148 -0.374,0.309c-0.063,0.16 -0.039,0.342 0.064,0.48c0.949,1.295 2.358,3.345 3.812,5.931c0.825,1.468 1.808,3.697 2.418,5.133c0.133,0.308 0.101,0.663 -0.084,0.944c-0.185,0.28 -0.498,0.449 -0.834,0.449c-2.058,0.001 -5.656,0.001 -6.987,0.001c-0.323,0 -0.626,-0.156 -0.814,-0.419c-0.856,-1.198 -3.317,-4.644 -4.294,-6.011c-0.094,-0.132 -0.246,-0.21 -0.407,-0.21c-0.161,0 -0.313,0.078 -0.407,0.21c-1.142,1.598 -4.294,6.011 -4.294,6.011c-0.188,0.263 -0.491,0.419 -0.814,0.419c-1.331,0 -4.929,0 -6.987,-0.001c-0.336,0 -0.649,-0.169 -0.834,-0.449c-0.185,-0.281 -0.217,-0.636 -0.084,-0.944c0.61,-1.436 1.593,-3.665 2.418,-5.133c1.454,-2.586 2.863,-4.636 3.812,-5.93c0.103,-0.139 0.128,-0.321 0.065,-0.481c-0.063,-0.161 -0.205,-0.278 -0.375,-0.309c-1.198,-0.229 -2.913,-0.627 -4.367,-1.236c-1.911,-0.799 -1.734,-2.736 0.625,-4.367c2.277,-1.575 5.763,-2.706 6.883,-3.044Z" style="fill:none;stroke:#000;stroke-width:4px;"/>
        </g>
        <g id="emoji">
            <path d="M11.641,8.106c0.212,-0.063 0.358,-0.258 0.358,-0.48c0.001,-0.591 0.001,-1.678 0.001,-1.678c0,-1.047 0.416,-2.051 1.156,-2.792c0.741,-0.74 1.745,-1.156 2.792,-1.156l0.002,0c1.074,0 2.104,0.427 2.864,1.186c0.759,0.76 1.186,1.79 1.186,2.864l0,1.576c0,0.222 0.147,0.417 0.359,0.479c1.12,0.339 4.606,1.47 6.883,3.045c2.359,1.631 2.536,3.568 0.625,4.367c-1.454,0.609 -3.169,1.007 -4.367,1.236c-0.17,0.031 -0.311,0.148 -0.374,0.309c-0.063,0.16 -0.039,0.342 0.064,0.48c0.949,1.295 2.358,3.345 3.812,5.931c0.825,1.468 1.808,3.697 2.418,5.133c0.133,0.308 0.101,0.663 -0.084,0.944c-0.185,0.28 -0.498,0.449 -0.834,0.449c-2.058,0.001 -5.656,0.001 -6.987,0.001c-0.323,0 -0.626,-0.156 -0.814,-0.419c-0.856,-1.198 -3.317,-4.644 -4.294,-6.011c-0.094,-0.132 -0.246,-0.21 -0.407,-0.21c-0.161,0 -0.313,0.078 -0.407,0.21c-1.142,1.598 -4.294,6.011 -4.294,6.011c-0.188,0.263 -0.491,0.419 -0.814,0.419c-1.331,0 -4.929,0 -6.987,-0.001c-0.336,0 -0.649,-0.169 -0.834,-0.449c-0.185,-0.281 -0.217,-0.636 -0.084,-0.944c0.61,-1.436 1.593,-3.665 2.418,-5.133c1.454,-2.586 2.863,-4.636 3.812,-5.93c0.103,-0.139 0.128,-0.321 0.065,-0.481c-0.063,-0.161 -0.205,-0.278 -0.375,-0.309c-1.198,-0.229 -2.913,-0.627 -4.367,-1.236c-1.911,-0.799 -1.734,-2.736 0.625,-4.367c2.277,-1.575 5.763,-2.706 6.883,-3.044Z"/>
            <clipPath id="_clip2">
                <path d="M11.641,8.106c0.212,-0.063 0.358,-0.258 0.358,-0.48c0.001,-0.591 0.001,-1.678 0.001,-1.678c0,-1.047 0.416,-2.051 1.156,-2.792c0.741,-0.74 1.745,-1.156 2.792,-1.156l0.002,0c1.074,0 2.104,0.427 2.864,1.186c0.759,0.76 1.186,1.79 1.186,2.864l0,1.576c0,0.222 0.147,0.417 0.359,0.479c1.12,0.339 4.606,1.47 6.883,3.045c2.359,1.631 2.536,3.568 0.625,4.367c-1.454,0.609 -3.169,1.007 -4.367,1.236c-0.17,0.031 -0.311,0.148 -0.374,0.309c-0.063,0.16 -0.039,0.342 0.064,0.48c0.949,1.295 2.358,3.345 3.812,5.931c0.825,1.468 1.808,3.697 2.418,5.133c0.133,0.308 0.101,0.663 -0.084,0.944c-0.185,0.28 -0.498,0.449 -0.834,0.449c-2.058,0.001 -5.656,0.001 -6.987,0.001c-0.323,0 -0.626,-0.156 -0.814,-0.419c-0.856,-1.198 -3.317,-4.644 -4.294,-6.011c-0.094,-0.132 -0.246,-0.21 -0.407,-0.21c-0.161,0 -0.313,0.078 -0.407,0.21c-1.142,1.598 -4.294,6.011 -4.294,6.011c-0.188,0.263 -0.491,0.419 -0.814,0.419c-1.331,0 -4.929,0 -6.987,-0.001c-0.336,0 -0.649,-0.169 -0.834,-0.449c-0.185,-0.281 -0.217,-0.636 -0.084,-0.944c0.61,-1.436 1.593,-3.665 2.418,-5.133c1.454,-2.586 2.863,-4.636 3.812,-5.93c0.103,-0.139 0.128,-0.321 0.065,-0.481c-0.063,-0.161 -0.205,-0.278 -0.375,-0.309c-1.198,-0.229 -2.913,-0.627 -4.367,-1.236c-1.911,-0.799 -1.734,-2.736 0.625,-4.367c2.277,-1.575 5.763,-2.706 6.883,-3.044Z"/>
            </clipPath>
            <g clip-path="url(#_clip2)">
                <rect x="2" y="2" width="28" height="28" style="fill:#343434;"/>
                <clipPath id="_clip3">
                    <rect x="2" y="2" width="28" height="28"/>
                </clipPath>
                <g clip-path="url(#_clip3)">
                    <rect x="1" y="13.2" width="30" height="5.6" style="fill:#fff;"/>
                    <rect x="1" y="23.778" width="30" height="3.111" style="fill:#5328e0;"/>
                    <rect x="1" y="17.556" width="30" height="3.111" style="fill:#5328e0;"/>
                    <rect x="1" y="11.333" width="30" height="3.111" style="fill:#5328e0;"/>
                    <rect x="1" y="5.111" width="30" height="3.111" style="fill:#5328e0;"/>
                </g>
                <path d="M12.059,11.436c-0.482,-1.713 0.749,-2.944 1.914,-3.011c1.164,-0.067 2.262,1.03 2.744,2.744c0.392,1.254 0.107,3.185 -0.268,4.657c-1.473,0.375 -3.404,0.66 -4.658,0.268c-1.713,-0.482 -2.811,-1.579 -2.744,-2.744c0.067,-1.164 1.298,-2.395 3.012,-1.914Z" style="fill:#f6004a;"/>
                <path d="M14.171,7.424l0.085,0.004l0.085,0.007l0.084,0.009l0.083,0.012l0.083,0.015l0.082,0.016l0.082,0.02l0.081,0.021l0.08,0.024l0.078,0.026l0.079,0.028l0.077,0.03l0.076,0.032l0.076,0.035l0.074,0.036l0.074,0.038l0.072,0.04l0.071,0.042l0.071,0.043l0.069,0.045l0.068,0.047l0.067,0.048l0.066,0.05l0.065,0.051l0.064,0.053l0.062,0.054l0.062,0.056l0.061,0.058l0.06,0.058l0.058,0.06l0.058,0.061l0.056,0.062l0.056,0.064l0.055,0.065l0.053,0.066l0.053,0.067l0.051,0.069l0.051,0.07l0.049,0.071l0.049,0.072l0.048,0.073l0.046,0.074l0.045,0.075l0.045,0.077l0.043,0.077l0.043,0.079l0.041,0.079l0.04,0.081l0.04,0.081l0.038,0.083l0.038,0.083l0.036,0.084l0.035,0.086l0.034,0.086l0.034,0.088l0.032,0.088l0.031,0.089l0.03,0.091l0.029,0.09l0.027,0.092l0.024,0.081l0.019,0.062l0.021,0.078l0.021,0.08l0.019,0.08l0.018,0.079l0.017,0.08l0.015,0.08l0.014,0.08l0.012,0.081l0.012,0.081l0.01,0.082l0.01,0.082l0.008,0.082l0.007,0.081l0.007,0.082l0.005,0.083l0.005,0.083l0.003,0.083l0.003,0.083l0.002,0.086l0.001,0.164l-0.002,0.168l-0.005,0.168l-0.008,0.168l-0.01,0.168l-0.013,0.169l-0.016,0.169l-0.017,0.168l-0.02,0.168l-0.021,0.167l-0.024,0.166l-0.025,0.166l-0.027,0.164l-0.029,0.164l-0.03,0.162l-0.031,0.16l-0.033,0.159l-0.033,0.156l-0.035,0.155l-0.035,0.153l-0.036,0.15l-0.182,0.725l-0.725,0.181l-0.15,0.037l-0.152,0.035l-0.155,0.035l-0.157,0.033l-0.158,0.033l-0.161,0.031l-0.162,0.03l-0.163,0.028l-0.165,0.027l-0.165,0.026l-0.167,0.023l-0.167,0.022l-0.168,0.02l-0.168,0.017l-0.169,0.015l-0.168,0.013l-0.168,0.011l-0.169,0.008l-0.168,0.004l-0.167,0.002l-0.165,-0.001l-0.086,-0.002l-0.083,-0.002l-0.083,-0.004l-0.082,-0.004l-0.083,-0.006l-0.082,-0.006l-0.082,-0.007l-0.082,-0.009l-0.082,-0.009l-0.081,-0.01l-0.081,-0.012l-0.081,-0.013l-0.081,-0.014l-0.08,-0.015l-0.08,-0.016l-0.08,-0.018l-0.079,-0.019l-0.079,-0.021l-0.078,-0.022l-0.063,-0.019l-0.081,-0.023l-0.092,-0.028l-0.09,-0.029l-0.09,-0.03l-0.089,-0.031l-0.089,-0.032l-0.087,-0.033l-0.086,-0.034l-0.086,-0.035l-0.085,-0.037l-0.083,-0.037l-0.083,-0.039l-0.081,-0.039l-0.081,-0.04l-0.079,-0.042l-0.079,-0.042l-0.077,-0.044l-0.076,-0.044l-0.075,-0.045l-0.075,-0.047l-0.073,-0.047l-0.072,-0.049l-0.071,-0.049l-0.069,-0.051l-0.069,-0.052l-0.068,-0.052l-0.066,-0.053l-0.064,-0.055l-0.064,-0.056l-0.063,-0.056l-0.061,-0.058l-0.06,-0.059l-0.058,-0.059l-0.057,-0.061l-0.056,-0.062l-0.054,-0.063l-0.053,-0.063l-0.052,-0.066l-0.05,-0.066l-0.048,-0.066l-0.047,-0.069l-0.045,-0.069l-0.043,-0.07l-0.042,-0.072l-0.04,-0.072l-0.038,-0.073l-0.036,-0.074l-0.034,-0.076l-0.033,-0.076l-0.03,-0.077l-0.028,-0.078l-0.026,-0.08l-0.024,-0.08l-0.021,-0.08l-0.019,-0.081l-0.017,-0.084l-0.015,-0.083l-0.011,-0.082l-0.01,-0.084l-0.007,-0.085l-0.004,-0.085l-0.002,-0.085l0.001,-0.085l0.004,-0.086l0.006,-0.086l0.009,-0.084l0.011,-0.084l0.014,-0.085l0.016,-0.083l0.019,-0.082l0.021,-0.082l0.023,-0.081l0.025,-0.08l0.028,-0.081l0.03,-0.079l0.032,-0.077l0.034,-0.078l0.036,-0.076l0.039,-0.076l0.04,-0.074l0.042,-0.073l0.044,-0.073l0.047,-0.071l0.048,-0.071l0.05,-0.069l0.052,-0.068l0.054,-0.067l0.056,-0.066l0.058,-0.064l0.06,-0.063l0.061,-0.062l0.064,-0.06l0.065,-0.059l0.067,-0.057l0.069,-0.055l0.071,-0.054l0.073,-0.053l0.074,-0.05l0.076,-0.049l0.077,-0.046l0.08,-0.045l0.081,-0.043l0.082,-0.041l0.085,-0.038l0.085,-0.036l0.088,-0.035l0.088,-0.031l0.091,-0.029l0.091,-0.027l0.093,-0.024l0.094,-0.022l0.096,-0.019l0.096,-0.016l0.097,-0.014l0.081,-0.009l0.009,-0.082l0.014,-0.096l0.016,-0.097l0.019,-0.095l0.022,-0.094l0.024,-0.093l0.027,-0.092l0.029,-0.09l0.032,-0.088l0.034,-0.088l0.036,-0.086l0.039,-0.084l0.04,-0.083l0.043,-0.08l0.045,-0.08l0.047,-0.078l0.048,-0.075l0.051,-0.075l0.052,-0.072l0.054,-0.071l0.056,-0.069l0.057,-0.067l0.059,-0.066l0.059,-0.063l0.062,-0.061l0.063,-0.06l0.065,-0.058l0.065,-0.056l0.067,-0.054l0.068,-0.052l0.069,-0.05l0.071,-0.049l0.071,-0.046l0.073,-0.044l0.073,-0.042l0.075,-0.041l0.075,-0.038l0.077,-0.036l0.077,-0.034l0.078,-0.032l0.079,-0.03l0.08,-0.028l0.08,-0.025l0.081,-0.024l0.082,-0.021l0.083,-0.018l0.083,-0.016l0.084,-0.014l0.084,-0.012l0.085,-0.008l0.085,-0.007l0.086,-0.003l0.085,-0.001l0.085,0.002Zm-0.144,0.999l-0.054,0.002l-0.055,0.004l-0.055,0.005l-0.054,0.008l-0.055,0.009l-0.055,0.011l-0.054,0.012l-0.054,0.014l-0.055,0.015l-0.054,0.017l-0.053,0.019l-0.054,0.02l-0.053,0.022l-0.052,0.023l-0.052,0.025l-0.052,0.026l-0.051,0.028l-0.051,0.029l-0.05,0.03l-0.049,0.032l-0.049,0.034l-0.048,0.035l-0.048,0.036l-0.046,0.037l-0.046,0.039l-0.044,0.041l-0.044,0.041l-0.043,0.043l-0.042,0.044l-0.041,0.046l-0.04,0.046l-0.038,0.048l-0.038,0.049l-0.036,0.051l-0.035,0.051l-0.034,0.053l-0.032,0.054l-0.031,0.055l-0.03,0.056l-0.028,0.057l-0.026,0.058l-0.026,0.06l-0.023,0.06l-0.022,0.062l-0.02,0.062l-0.019,0.064l-0.017,0.064l-0.015,0.066l-0.013,0.066l-0.012,0.068l-0.009,0.068l-0.008,0.07l-0.005,0.07l-0.004,0.071l-0.001,0.072l0,0.073l0.003,0.074l0.005,0.074l0.007,0.076l0.009,0.076l0.012,0.077l0.014,0.078l0.016,0.078l0.019,0.079l0.022,0.08l-0.08,-0.021l-0.079,-0.019l-0.079,-0.016l-0.078,-0.014l-0.077,-0.012l-0.076,-0.009l-0.075,-0.008l-0.075,-0.004l-0.074,-0.003l-0.072,-0.001l-0.073,0.002l-0.071,0.003l-0.07,0.006l-0.069,0.007l-0.069,0.01l-0.067,0.011l-0.067,0.014l-0.065,0.015l-0.065,0.017l-0.063,0.018l-0.063,0.021l-0.062,0.022l-0.06,0.023l-0.059,0.025l-0.059,0.027l-0.057,0.028l-0.056,0.03l-0.055,0.031l-0.054,0.032l-0.053,0.034l-0.051,0.035l-0.05,0.036l-0.05,0.038l-0.047,0.038l-0.047,0.04l-0.046,0.041l-0.044,0.042l-0.043,0.042l-0.041,0.044l-0.04,0.045l-0.039,0.046l-0.038,0.046l-0.036,0.047l-0.035,0.048l-0.033,0.049l-0.032,0.05l-0.031,0.05l-0.029,0.05l-0.028,0.052l-0.026,0.051l-0.025,0.052l-0.023,0.053l-0.022,0.053l-0.02,0.053l-0.018,0.054l-0.018,0.054l-0.015,0.054l-0.014,0.055l-0.012,0.054l-0.011,0.055l-0.009,0.054l-0.007,0.055l-0.006,0.055l-0.004,0.054l-0.002,0.055l-0.001,0.054l0.001,0.055l0.003,0.054l0.005,0.054l0.006,0.054l0.007,0.053l0.01,0.054l0.01,0.053l0.013,0.053l0.014,0.053l0.016,0.053l0.017,0.052l0.019,0.052l0.02,0.052l0.022,0.052l0.023,0.051l0.025,0.051l0.026,0.05l0.028,0.051l0.029,0.05l0.031,0.049l0.032,0.049l0.033,0.049l0.035,0.049l0.036,0.048l0.038,0.047l0.039,0.047l0.04,0.047l0.042,0.046l0.043,0.046l0.044,0.045l0.046,0.045l0.047,0.044l0.048,0.044l0.05,0.043l0.051,0.043l0.052,0.042l0.053,0.041l0.054,0.041l0.056,0.041l0.057,0.039l0.058,0.039l0.059,0.039l0.06,0.038l0.062,0.037l0.062,0.036l0.064,0.036l0.065,0.035l0.066,0.034l0.067,0.034l0.068,0.033l0.069,0.032l0.07,0.031l0.071,0.031l0.072,0.03l0.074,0.029l0.074,0.028l0.075,0.027l0.076,0.027l0.077,0.025l0.078,0.025l0.079,0.024l0.08,0.023l0.059,0.018l0.06,0.017l0.062,0.016l0.062,0.015l0.063,0.014l0.064,0.013l0.064,0.012l0.066,0.012l0.066,0.01l0.067,0.01l0.068,0.008l0.068,0.008l0.069,0.007l0.07,0.006l0.071,0.006l0.071,0.005l0.071,0.003l0.073,0.003l0.072,0.003l0.073,0.001l0.148,0.001l0.15,-0.001l0.151,-0.005l0.152,-0.007l0.153,-0.009l0.154,-0.012l0.155,-0.014l0.155,-0.016l0.155,-0.019l0.156,-0.02l0.155,-0.022l0.155,-0.023l0.154,-0.026l0.153,-0.026l0.153,-0.029l0.151,-0.029l0.149,-0.031l0.148,-0.031l0.146,-0.033l0.145,-0.033l0.141,-0.035l0.14,-0.035l0.035,-0.139l0.034,-0.142l0.033,-0.144l0.033,-0.146l0.032,-0.148l0.03,-0.15l0.03,-0.151l0.028,-0.152l0.027,-0.153l0.025,-0.155l0.024,-0.154l0.022,-0.156l0.02,-0.155l0.018,-0.155l0.016,-0.156l0.014,-0.154l0.012,-0.154l0.01,-0.154l0.007,-0.152l0.004,-0.151l0.002,-0.149l-0.001,-0.148l-0.002,-0.073l-0.002,-0.073l-0.003,-0.072l-0.004,-0.072l-0.005,-0.071l-0.005,-0.07l-0.006,-0.07l-0.007,-0.069l-0.008,-0.068l-0.009,-0.068l-0.01,-0.067l-0.01,-0.067l-0.011,-0.065l-0.013,-0.065l-0.013,-0.064l-0.014,-0.063l-0.015,-0.062l-0.016,-0.061l-0.017,-0.06l-0.017,-0.059l-0.024,-0.08l-0.023,-0.079l-0.025,-0.078l-0.026,-0.077l-0.026,-0.076l-0.028,-0.076l-0.028,-0.074l-0.029,-0.073l-0.03,-0.072l-0.03,-0.071l-0.032,-0.07l-0.032,-0.07l-0.033,-0.068l-0.033,-0.067l-0.035,-0.065l-0.035,-0.065l-0.035,-0.064l-0.037,-0.063l-0.037,-0.061l-0.038,-0.06l-0.038,-0.06l-0.039,-0.058l-0.04,-0.056l-0.04,-0.056l-0.041,-0.055l-0.042,-0.053l-0.042,-0.052l-0.042,-0.05l-0.044,-0.05l-0.043,-0.048l-0.045,-0.047l-0.044,-0.046l-0.046,-0.044l-0.045,-0.043l-0.047,-0.042l-0.046,-0.04l-0.047,-0.039l-0.048,-0.038l-0.048,-0.036l-0.048,-0.035l-0.049,-0.034l-0.049,-0.032l-0.05,-0.03l-0.05,-0.03l-0.05,-0.027l-0.051,-0.027l-0.051,-0.024l-0.051,-0.024l-0.052,-0.021l-0.051,-0.021l-0.053,-0.018l-0.052,-0.018l-0.053,-0.015l-0.052,-0.014l-0.054,-0.013l-0.053,-0.011l-0.053,-0.009l-0.054,-0.008l-0.054,-0.006l-0.054,-0.004l-0.054,-0.003l-0.054,-0.001l-0.055,0.001Z" style="fill:#fff;"/>
            </g>
        </g>
    </g>
</svg>
