<?xml version="1.0" encoding="UTF-8"?>
<!DOCTYPE svg  PUBLIC '-//W3C//DTD SVG 1.1//EN'  'http://www.w3.org/Graphics/SVG/1.1/DTD/svg11.dtd'>
<svg clip-rule="evenodd" fill-rule="evenodd" stroke-linecap="round" stroke-linejoin="round" stroke-miterlimit="1.5" version="1.1" viewBox="0 0 32 32" xml:space="preserve" xmlns="http://www.w3.org/2000/svg">
<metadata>
<rdf:RDF xmlns:cc="http://web.resource.org/cc/" xmlns:dc="http://purl.org/dc/elements/1.1/" xmlns:rdf="http://www.w3.org/1999/02/22-rdf-syntax-ns#">

     <rdf:Description rdf:about="">
       <dc:title>Mutant Standard S3</dc:title>
     </rdf:Description>

    <cc:work rdf:about="">
        <cc:license rdf:resource="http://creativecommons.org/licenses/by-nc-sa/4.0/"/>
        <cc:attributionName>Dzuk</cc:attributionName>
        <cc:attributionURL>http://mutant.tech/</cc:attributionURL>
    </cc:work>

</rdf:RDF>
</metadata>

    <rect id="meeple_bear" width="32" height="32" fill="none"/>
    <clipPath id="_clip1">
        <rect width="32" height="32"/>
    </clipPath>
    <g clip-path="url(#_clip1)">
        <g id="outline">
            <path d="m11.641 8.106c0.212-0.063 0.358-0.258 0.358-0.48 1e-3 -0.591 1e-3 -1.678 1e-3 -1.678 0-1.047 0.416-2.051 1.156-2.792 0.741-0.74 1.745-1.156 2.792-1.156h2e-3c1.074 0 2.104 0.427 2.864 1.186 0.759 0.76 1.186 1.79 1.186 2.864v1.576c0 0.222 0.147 0.417 0.359 0.479 1.12 0.339 4.606 1.47 6.883 3.045 2.359 1.631 2.536 3.568 0.625 4.367-1.454 0.609-3.169 1.007-4.367 1.236-0.17 0.031-0.311 0.148-0.374 0.309-0.063 0.16-0.039 0.342 0.064 0.48 0.949 1.295 2.358 3.345 3.812 5.931 0.825 1.468 1.808 3.697 2.418 5.133 0.133 0.308 0.101 0.663-0.084 0.944-0.185 0.28-0.498 0.449-0.834 0.449-2.058 1e-3 -5.656 1e-3 -6.987 1e-3 -0.323 0-0.626-0.156-0.814-0.419-0.856-1.198-3.317-4.644-4.294-6.011-0.094-0.132-0.246-0.21-0.407-0.21s-0.313 0.078-0.407 0.21c-1.142 1.598-4.294 6.011-4.294 6.011-0.188 0.263-0.491 0.419-0.814 0.419-1.331 0-4.929 0-6.987-1e-3 -0.336 0-0.649-0.169-0.834-0.449-0.185-0.281-0.217-0.636-0.084-0.944 0.61-1.436 1.593-3.665 2.418-5.133 1.454-2.586 2.863-4.636 3.812-5.93 0.103-0.139 0.128-0.321 0.065-0.481-0.063-0.161-0.205-0.278-0.375-0.309-1.198-0.229-2.913-0.627-4.367-1.236-1.911-0.799-1.734-2.736 0.625-4.367 2.277-1.575 5.763-2.706 6.883-3.044z" fill="none" stroke="#000" stroke-width="4px"/>
        </g>
        <g id="emoji">
            <path d="m11.641 8.106c0.212-0.063 0.358-0.258 0.358-0.48 1e-3 -0.591 1e-3 -1.678 1e-3 -1.678 0-1.047 0.416-2.051 1.156-2.792 0.741-0.74 1.745-1.156 2.792-1.156h2e-3c1.074 0 2.104 0.427 2.864 1.186 0.759 0.76 1.186 1.79 1.186 2.864v1.576c0 0.222 0.147 0.417 0.359 0.479 1.12 0.339 4.606 1.47 6.883 3.045 2.359 1.631 2.536 3.568 0.625 4.367-1.454 0.609-3.169 1.007-4.367 1.236-0.17 0.031-0.311 0.148-0.374 0.309-0.063 0.16-0.039 0.342 0.064 0.48 0.949 1.295 2.358 3.345 3.812 5.931 0.825 1.468 1.808 3.697 2.418 5.133 0.133 0.308 0.101 0.663-0.084 0.944-0.185 0.28-0.498 0.449-0.834 0.449-2.058 1e-3 -5.656 1e-3 -6.987 1e-3 -0.323 0-0.626-0.156-0.814-0.419-0.856-1.198-3.317-4.644-4.294-6.011-0.094-0.132-0.246-0.21-0.407-0.21s-0.313 0.078-0.407 0.21c-1.142 1.598-4.294 6.011-4.294 6.011-0.188 0.263-0.491 0.419-0.814 0.419-1.331 0-4.929 0-6.987-1e-3 -0.336 0-0.649-0.169-0.834-0.449-0.185-0.281-0.217-0.636-0.084-0.944 0.61-1.436 1.593-3.665 2.418-5.133 1.454-2.586 2.863-4.636 3.812-5.93 0.103-0.139 0.128-0.321 0.065-0.481-0.063-0.161-0.205-0.278-0.375-0.309-1.198-0.229-2.913-0.627-4.367-1.236-1.911-0.799-1.734-2.736 0.625-4.367 2.277-1.575 5.763-2.706 6.883-3.044z"/>
            <clipPath id="_clip2">
                <path d="m11.641 8.106c0.212-0.063 0.358-0.258 0.358-0.48 1e-3 -0.591 1e-3 -1.678 1e-3 -1.678 0-1.047 0.416-2.051 1.156-2.792 0.741-0.74 1.745-1.156 2.792-1.156h2e-3c1.074 0 2.104 0.427 2.864 1.186 0.759 0.76 1.186 1.79 1.186 2.864v1.576c0 0.222 0.147 0.417 0.359 0.479 1.12 0.339 4.606 1.47 6.883 3.045 2.359 1.631 2.536 3.568 0.625 4.367-1.454 0.609-3.169 1.007-4.367 1.236-0.17 0.031-0.311 0.148-0.374 0.309-0.063 0.16-0.039 0.342 0.064 0.48 0.949 1.295 2.358 3.345 3.812 5.931 0.825 1.468 1.808 3.697 2.418 5.133 0.133 0.308 0.101 0.663-0.084 0.944-0.185 0.28-0.498 0.449-0.834 0.449-2.058 1e-3 -5.656 1e-3 -6.987 1e-3 -0.323 0-0.626-0.156-0.814-0.419-0.856-1.198-3.317-4.644-4.294-6.011-0.094-0.132-0.246-0.21-0.407-0.21s-0.313 0.078-0.407 0.21c-1.142 1.598-4.294 6.011-4.294 6.011-0.188 0.263-0.491 0.419-0.814 0.419-1.331 0-4.929 0-6.987-1e-3 -0.336 0-0.649-0.169-0.834-0.449-0.185-0.281-0.217-0.636-0.084-0.944 0.61-1.436 1.593-3.665 2.418-5.133 1.454-2.586 2.863-4.636 3.812-5.93 0.103-0.139 0.128-0.321 0.065-0.481-0.063-0.161-0.205-0.278-0.375-0.309-1.198-0.229-2.913-0.627-4.367-1.236-1.911-0.799-1.734-2.736 0.625-4.367 2.277-1.575 5.763-2.706 6.883-3.044z"/>
            </clipPath>
            <g clip-path="url(#_clip2)">
                <rect x="2" y="2" width="28" height="28" fill="none"/>
                <clipPath id="_clip3">
                    <rect x="2" y="2" width="28" height="28"/>
                </clipPath>
                <g clip-path="url(#_clip3)">
                    <rect x="1" y="24.4" width="30" height="7" fill="#2e2e2e"/>
                    <rect x="1" y="20.2" width="30" height="5.8" fill="#555"/>
                    <rect x="1" y="16.7" width="30" height="5.3" fill="#fff"/>
                    <rect x="1" y="13.2" width="30" height="4.8" fill="#f1d2a6"/>
                    <rect x="1" y="9" width="30" height="5" fill="#fecb00"/>
                    <rect x="1" y="4.8" width="30" height="5.2" fill="#df6800"/>
                    <rect x="1" y=".6" width="30" height="5.4" fill="#6f431d"/>
                </g>
                
                    <path d="m9 12.828c0-0.53 0.211-1.039 0.586-1.414l2.828-2.828c0.375-0.375 0.884-0.586 1.414-0.586h0.344c0.53 0 1.039 0.211 1.414 0.586l1.828 1.828c0.375 0.375 0.586 0.884 0.586 1.414v3.172c0 1.105-0.895 2-2 2h-5c-0.53 0-1.039-0.211-1.414-0.586s-0.586-0.884-0.586-1.414v-2.172z" fill="#fff"/>
                    <path d="m11.55 14.225c-0.337 0.169-0.55 0.513-0.55 0.89 0 0.321 0.154 0.622 0.414 0.81 0.261 0.188 0.595 0.239 0.9 0.137 0.506-0.169 1.042-0.347 1.37-0.457 0.205-0.068 0.427-0.068 0.632 0 0.328 0.11 0.864 0.288 1.37 0.457 0.305 0.102 0.639 0.051 0.9-0.137 0.26-0.188 0.414-0.489 0.414-0.81 0-0.377-0.213-0.721-0.55-0.89-0.14-0.07-0.295-0.147-0.449-0.225-0.614-0.306-1.001-0.933-1.001-1.619 0-0.487-0.394-0.881-0.881-0.881h-0.238c-0.487 0-0.881 0.394-0.881 0.881 0 0.686-0.387 1.313-1.001 1.619-0.154 0.078-0.309 0.155-0.449 0.225z"/>
                    <path d="m11 13.75c0-0.199-0.079-0.39-0.22-0.53-0.14-0.141-0.331-0.22-0.53-0.22s-0.39 0.079-0.53 0.22c-0.141 0.14-0.22 0.331-0.22 0.53v0.5c0 0.199 0.079 0.39 0.22 0.53 0.14 0.141 0.331 0.22 0.53 0.22s0.39-0.079 0.53-0.22c0.141-0.14 0.22-0.331 0.22-0.53v-0.5z"/>
                    <path d="m12.5 11.75c0-0.199-0.079-0.39-0.22-0.53-0.14-0.141-0.331-0.22-0.53-0.22s-0.39 0.079-0.53 0.22c-0.141 0.14-0.22 0.331-0.22 0.53v0.5c0 0.199 0.079 0.39 0.22 0.53 0.14 0.141 0.331 0.22 0.53 0.22s0.39-0.079 0.53-0.22c0.141-0.14 0.22-0.331 0.22-0.53v-0.5z"/>
                    <path d="m14 9.75c0-0.199-0.079-0.39-0.22-0.53-0.14-0.141-0.331-0.22-0.53-0.22s-0.39 0.079-0.53 0.22c-0.141 0.14-0.22 0.331-0.22 0.53v0.5c0 0.199 0.079 0.39 0.22 0.53 0.14 0.141 0.331 0.22 0.53 0.22s0.39-0.079 0.53-0.22c0.141-0.14 0.22-0.331 0.22-0.53v-0.5z"/>
                    <path d="m16 10.25c0-0.199-0.079-0.39-0.22-0.53-0.14-0.141-0.331-0.22-0.53-0.22s-0.39 0.079-0.53 0.22c-0.141 0.14-0.22 0.331-0.22 0.53v0.5c0 0.199 0.079 0.39 0.22 0.53 0.14 0.141 0.331 0.22 0.53 0.22s0.39-0.079 0.53-0.22c0.141-0.14 0.22-0.331 0.22-0.53v-0.5z"/>
                    <path d="m17.5 12.249c0-0.414-0.335-0.749-0.749-0.749h-2e-3c-0.414 0-0.749 0.335-0.749 0.749v0.502c0 0.414 0.335 0.749 0.749 0.749h2e-3c0.414 0 0.749-0.335 0.749-0.749v-0.502z"/>
                
            </g>
        </g>
    </g>
</svg>
