<?xml version="1.0" encoding="UTF-8" standalone="no"?>
<!DOCTYPE svg PUBLIC "-//W3C//DTD SVG 1.1//EN" "http://www.w3.org/Graphics/SVG/1.1/DTD/svg11.dtd">
<svg width="100%" height="100%" viewBox="0 0 32 32" version="1.1" xmlns="http://www.w3.org/2000/svg" xmlns:xlink="http://www.w3.org/1999/xlink" xml:space="preserve" xmlns:serif="http://www.serif.com/" style="fill-rule:evenodd;clip-rule:evenodd;stroke-linecap:round;stroke-linejoin:round;stroke-miterlimit:1.5;">
<metadata>
<rdf:RDF xmlns:cc="http://web.resource.org/cc/"
         xmlns:rdf="http://www.w3.org/1999/02/22-rdf-syntax-ns#"
         xmlns:dc = "http://purl.org/dc/elements/1.1/"
         >

     <rdf:Description rdf:about="">
       <dc:title>Mutant Standard S3</dc:title>
     </rdf:Description>

    <cc:work rdf:about="">
        <cc:license rdf:resource="http://creativecommons.org/licenses/by-nc-sa/4.0/"/>
        <cc:attributionName>Dzuk</cc:attributionName>
        <cc:attributionURL>http://mutant.tech/</cc:attributionURL>
    </cc:work>

</rdf:RDF>
</metadata>

    <rect id="meeple_bear" x="0" y="0" width="32" height="32" style="fill:none;"/>
    <clipPath id="_clip1">
        <rect x="0" y="0" width="32" height="32"/>
    </clipPath>
    <g clip-path="url(#_clip1)">
        <g id="outline">
            <path d="M11.641,8.106c0.212,-0.063 0.358,-0.258 0.358,-0.48c0.001,-0.591 0.001,-1.678 0.001,-1.678c0,-1.047 0.416,-2.051 1.156,-2.792c0.741,-0.74 1.745,-1.156 2.792,-1.156l0.002,0c1.074,0 2.104,0.427 2.864,1.186c0.759,0.76 1.186,1.79 1.186,2.864l0,1.576c0,0.222 0.147,0.417 0.359,0.479c1.12,0.339 4.606,1.47 6.883,3.045c2.359,1.631 2.536,3.568 0.625,4.367c-1.454,0.609 -3.169,1.007 -4.367,1.236c-0.17,0.031 -0.311,0.148 -0.374,0.309c-0.063,0.16 -0.039,0.342 0.064,0.48c0.949,1.295 2.358,3.345 3.812,5.931c0.825,1.468 1.808,3.697 2.418,5.133c0.133,0.308 0.101,0.663 -0.084,0.944c-0.185,0.28 -0.498,0.449 -0.834,0.449c-2.058,0.001 -5.656,0.001 -6.987,0.001c-0.323,0 -0.626,-0.156 -0.814,-0.419c-0.856,-1.198 -3.317,-4.644 -4.294,-6.011c-0.094,-0.132 -0.246,-0.21 -0.407,-0.21c-0.161,0 -0.313,0.078 -0.407,0.21c-1.142,1.598 -4.294,6.011 -4.294,6.011c-0.188,0.263 -0.491,0.419 -0.814,0.419c-1.331,0 -4.929,0 -6.987,-0.001c-0.336,0 -0.649,-0.169 -0.834,-0.449c-0.185,-0.281 -0.217,-0.636 -0.084,-0.944c0.61,-1.436 1.593,-3.665 2.418,-5.133c1.454,-2.586 2.863,-4.636 3.812,-5.93c0.103,-0.139 0.128,-0.321 0.065,-0.481c-0.063,-0.161 -0.205,-0.278 -0.375,-0.309c-1.198,-0.229 -2.913,-0.627 -4.367,-1.236c-1.911,-0.799 -1.734,-2.736 0.625,-4.367c2.277,-1.575 5.763,-2.706 6.883,-3.044Z" style="fill:none;stroke:#000;stroke-width:4px;"/>
        </g>
        <g id="emoji">
            <path d="M11.641,8.106c0.212,-0.063 0.358,-0.258 0.358,-0.48c0.001,-0.591 0.001,-1.678 0.001,-1.678c0,-1.047 0.416,-2.051 1.156,-2.792c0.741,-0.74 1.745,-1.156 2.792,-1.156l0.002,0c1.074,0 2.104,0.427 2.864,1.186c0.759,0.76 1.186,1.79 1.186,2.864l0,1.576c0,0.222 0.147,0.417 0.359,0.479c1.12,0.339 4.606,1.47 6.883,3.045c2.359,1.631 2.536,3.568 0.625,4.367c-1.454,0.609 -3.169,1.007 -4.367,1.236c-0.17,0.031 -0.311,0.148 -0.374,0.309c-0.063,0.16 -0.039,0.342 0.064,0.48c0.949,1.295 2.358,3.345 3.812,5.931c0.825,1.468 1.808,3.697 2.418,5.133c0.133,0.308 0.101,0.663 -0.084,0.944c-0.185,0.28 -0.498,0.449 -0.834,0.449c-2.058,0.001 -5.656,0.001 -6.987,0.001c-0.323,0 -0.626,-0.156 -0.814,-0.419c-0.856,-1.198 -3.317,-4.644 -4.294,-6.011c-0.094,-0.132 -0.246,-0.21 -0.407,-0.21c-0.161,0 -0.313,0.078 -0.407,0.21c-1.142,1.598 -4.294,6.011 -4.294,6.011c-0.188,0.263 -0.491,0.419 -0.814,0.419c-1.331,0 -4.929,0 -6.987,-0.001c-0.336,0 -0.649,-0.169 -0.834,-0.449c-0.185,-0.281 -0.217,-0.636 -0.084,-0.944c0.61,-1.436 1.593,-3.665 2.418,-5.133c1.454,-2.586 2.863,-4.636 3.812,-5.93c0.103,-0.139 0.128,-0.321 0.065,-0.481c-0.063,-0.161 -0.205,-0.278 -0.375,-0.309c-1.198,-0.229 -2.913,-0.627 -4.367,-1.236c-1.911,-0.799 -1.734,-2.736 0.625,-4.367c2.277,-1.575 5.763,-2.706 6.883,-3.044Z"/>
            <clipPath id="_clip2">
                <path d="M11.641,8.106c0.212,-0.063 0.358,-0.258 0.358,-0.48c0.001,-0.591 0.001,-1.678 0.001,-1.678c0,-1.047 0.416,-2.051 1.156,-2.792c0.741,-0.74 1.745,-1.156 2.792,-1.156l0.002,0c1.074,0 2.104,0.427 2.864,1.186c0.759,0.76 1.186,1.79 1.186,2.864l0,1.576c0,0.222 0.147,0.417 0.359,0.479c1.12,0.339 4.606,1.47 6.883,3.045c2.359,1.631 2.536,3.568 0.625,4.367c-1.454,0.609 -3.169,1.007 -4.367,1.236c-0.17,0.031 -0.311,0.148 -0.374,0.309c-0.063,0.16 -0.039,0.342 0.064,0.48c0.949,1.295 2.358,3.345 3.812,5.931c0.825,1.468 1.808,3.697 2.418,5.133c0.133,0.308 0.101,0.663 -0.084,0.944c-0.185,0.28 -0.498,0.449 -0.834,0.449c-2.058,0.001 -5.656,0.001 -6.987,0.001c-0.323,0 -0.626,-0.156 -0.814,-0.419c-0.856,-1.198 -3.317,-4.644 -4.294,-6.011c-0.094,-0.132 -0.246,-0.21 -0.407,-0.21c-0.161,0 -0.313,0.078 -0.407,0.21c-1.142,1.598 -4.294,6.011 -4.294,6.011c-0.188,0.263 -0.491,0.419 -0.814,0.419c-1.331,0 -4.929,0 -6.987,-0.001c-0.336,0 -0.649,-0.169 -0.834,-0.449c-0.185,-0.281 -0.217,-0.636 -0.084,-0.944c0.61,-1.436 1.593,-3.665 2.418,-5.133c1.454,-2.586 2.863,-4.636 3.812,-5.93c0.103,-0.139 0.128,-0.321 0.065,-0.481c-0.063,-0.161 -0.205,-0.278 -0.375,-0.309c-1.198,-0.229 -2.913,-0.627 -4.367,-1.236c-1.911,-0.799 -1.734,-2.736 0.625,-4.367c2.277,-1.575 5.763,-2.706 6.883,-3.044Z"/>
            </clipPath>
            <g clip-path="url(#_clip2)">
                <rect x="2" y="2" width="28" height="28" style="fill:none;"/>
                <clipPath id="_clip3">
                    <rect x="2" y="2" width="28" height="28"/>
                </clipPath>
                <g clip-path="url(#_clip3)">
                    <rect x="1" y="24.4" width="30" height="7" style="fill:#2e2e2e;"/>
                    <rect x="1" y="20.2" width="30" height="5.8" style="fill:#555;"/>
                    <rect x="1" y="16.7" width="30" height="5.3" style="fill:#fff;"/>
                    <rect x="1" y="13.2" width="30" height="4.8" style="fill:#f1d2a6;"/>
                    <rect x="1" y="9" width="30" height="5" style="fill:#fecb00;"/>
                    <rect x="1" y="4.8" width="30" height="5.2" style="fill:#df6800;"/>
                    <rect x="1" y="0.6" width="30" height="5.4" style="fill:#6f431d;"/>
                </g>
                <g>
                    <path d="M9,12.828c0,-0.53 0.211,-1.039 0.586,-1.414c0.758,-0.758 2.07,-2.07 2.828,-2.828c0.375,-0.375 0.884,-0.586 1.414,-0.586c0.114,0 0.23,0 0.344,0c0.53,0 1.039,0.211 1.414,0.586c0.528,0.528 1.3,1.3 1.828,1.828c0.375,0.375 0.586,0.884 0.586,1.414c0,0.816 0,2.092 0,3.172c0,1.105 -0.895,2 -2,2c-1.488,0 -3.512,0 -5,0c-0.53,0 -1.039,-0.211 -1.414,-0.586c-0.375,-0.375 -0.586,-0.884 -0.586,-1.414c0,-0.758 0,-1.58 0,-2.172Z" style="fill:#fff;"/>
                    <path d="M11.55,14.225c-0.337,0.169 -0.55,0.513 -0.55,0.89c0,0 0,0 0,0c0,0.321 0.154,0.622 0.414,0.81c0.261,0.188 0.595,0.239 0.9,0.137c0.506,-0.169 1.042,-0.347 1.37,-0.457c0.205,-0.068 0.427,-0.068 0.632,0c0.328,0.11 0.864,0.288 1.37,0.457c0.305,0.102 0.639,0.051 0.9,-0.137c0.26,-0.188 0.414,-0.489 0.414,-0.81c0,0 0,0 0,0c0,-0.377 -0.213,-0.721 -0.55,-0.89c-0.14,-0.07 -0.295,-0.147 -0.449,-0.225c-0.614,-0.306 -1.001,-0.933 -1.001,-1.619c0,0 0,0 0,0c0,-0.487 -0.394,-0.881 -0.881,-0.881l-0.238,0c-0.487,0 -0.881,0.394 -0.881,0.881l0,0c0,0.686 -0.387,1.313 -1.001,1.619c-0.154,0.078 -0.309,0.155 -0.449,0.225Z"/>
                    <path d="M11,13.75c0,-0.199 -0.079,-0.39 -0.22,-0.53c-0.14,-0.141 -0.331,-0.22 -0.53,-0.22c-0.199,0 -0.39,0.079 -0.53,0.22c-0.141,0.14 -0.22,0.331 -0.22,0.53c0,0.163 0,0.337 0,0.5c0,0.199 0.079,0.39 0.22,0.53c0.14,0.141 0.331,0.22 0.53,0.22c0.199,0 0.39,-0.079 0.53,-0.22c0.141,-0.14 0.22,-0.331 0.22,-0.53c0,-0.163 0,-0.337 0,-0.5Z"/>
                    <path d="M12.5,11.75c0,-0.199 -0.079,-0.39 -0.22,-0.53c-0.14,-0.141 -0.331,-0.22 -0.53,-0.22c-0.199,0 -0.39,0.079 -0.53,0.22c-0.141,0.14 -0.22,0.331 -0.22,0.53c0,0.163 0,0.337 0,0.5c0,0.199 0.079,0.39 0.22,0.53c0.14,0.141 0.331,0.22 0.53,0.22c0.199,0 0.39,-0.079 0.53,-0.22c0.141,-0.14 0.22,-0.331 0.22,-0.53c0,-0.163 0,-0.337 0,-0.5Z"/>
                    <path d="M14,9.75c0,-0.199 -0.079,-0.39 -0.22,-0.53c-0.14,-0.141 -0.331,-0.22 -0.53,-0.22c-0.199,0 -0.39,0.079 -0.53,0.22c-0.141,0.14 -0.22,0.331 -0.22,0.53c0,0.163 0,0.337 0,0.5c0,0.199 0.079,0.39 0.22,0.53c0.14,0.141 0.331,0.22 0.53,0.22c0.199,0 0.39,-0.079 0.53,-0.22c0.141,-0.14 0.22,-0.331 0.22,-0.53c0,-0.163 0,-0.337 0,-0.5Z"/>
                    <path d="M16,10.25c0,-0.199 -0.079,-0.39 -0.22,-0.53c-0.14,-0.141 -0.331,-0.22 -0.53,-0.22c-0.199,0 -0.39,0.079 -0.53,0.22c-0.141,0.14 -0.22,0.331 -0.22,0.53c0,0.163 0,0.337 0,0.5c0,0.199 0.079,0.39 0.22,0.53c0.14,0.141 0.331,0.22 0.53,0.22c0.199,0 0.39,-0.079 0.53,-0.22c0.141,-0.14 0.22,-0.331 0.22,-0.53c0,-0.163 0,-0.337 0,-0.5Z"/>
                    <path d="M17.5,12.249c0,-0.414 -0.335,-0.749 -0.749,-0.749c-0.001,0 -0.001,0 -0.002,0c-0.414,0 -0.749,0.335 -0.749,0.749c0,0.164 0,0.338 0,0.502c0,0.414 0.335,0.749 0.749,0.749c0.001,0 0.001,0 0.002,0c0.414,0 0.749,-0.335 0.749,-0.749c0,-0.164 0,-0.338 0,-0.502Z"/>
                </g>
            </g>
        </g>
    </g>
</svg>
