<?xml version="1.0" encoding="UTF-8"?>
<!DOCTYPE svg  PUBLIC '-//W3C//DTD SVG 1.1//EN'  'http://www.w3.org/Graphics/SVG/1.1/DTD/svg11.dtd'>
<svg clip-rule="evenodd" fill-rule="evenodd" stroke-linejoin="round" stroke-miterlimit="1.4142" version="1.1" viewBox="0 0 32 32" xml:space="preserve" xmlns="http://www.w3.org/2000/svg">
<metadata>
<rdf:RDF xmlns:cc="http://web.resource.org/cc/" xmlns:dc="http://purl.org/dc/elements/1.1/" xmlns:rdf="http://www.w3.org/1999/02/22-rdf-syntax-ns#">

     <rdf:Description rdf:about="">
       <dc:title>Mutant Standard S3</dc:title>
     </rdf:Description>

    <cc:work rdf:about="">
        <cc:license rdf:resource="http://creativecommons.org/licenses/by-nc-sa/4.0/"/>
        <cc:attributionName>Dzuk</cc:attributionName>
        <cc:attributionURL>http://mutant.tech/</cc:attributionURL>
    </cc:work>

</rdf:RDF>
</metadata>
<rect id="cursed_think" width="32" height="32" fill="none"/><clipPath id="_clip1"><rect width="32" height="32"/></clipPath><g clip-path="url(#_clip1)"><g id="outline"><path d="m16.193 1e-3 0.193 4e-3 0.192 6e-3 0.192 8e-3 0.191 0.011 0.191 0.014 0.19 0.015 0.189 0.018 0.189 0.021 0.188 0.022 0.187 0.025 0.187 0.028 0.186 0.029 0.185 0.032 0.184 0.034 0.184 0.037 0.183 0.038 0.182 0.041 0.181 0.043 0.18 0.045 0.18 0.048 0.178 0.049 0.178 0.052 0.177 0.054 0.176 0.056 0.175 0.058 0.174 0.06 0.173 0.062 0.171 0.064 0.171 0.066 0.17 0.068 0.169 0.071 0.168 0.072 0.167 0.074 0.166 0.076 0.164 0.078 0.164 0.08 0.162 0.082 0.161 0.084 0.16 0.086 0.159 0.087 0.158 0.09 0.156 0.091 0.155 0.093 0.155 0.095 0.152 0.096 0.152 0.099 0.15 0.1 0.149 0.102 0.148 0.104 0.146 0.105 0.145 0.107 0.144 0.109 0.142 0.11 0.141 0.112 0.139 0.114 0.138 0.115 0.137 0.117 0.135 0.119 0.134 0.12 0.132 0.122 0.131 0.123 0.13 0.125 0.128 0.126 0.126 0.128 0.125 0.13 0.123 0.131 0.122 0.132 0.12 0.134 0.119 0.135 0.117 0.137 0.115 0.138 0.114 0.139 0.112 0.141 0.11 0.142 0.109 0.144 0.107 0.145 0.106 0.146 0.103 0.148 0.102 0.149 0.1 0.15 0.099 0.152 0.096 0.152 0.095 0.154 0.093 0.156 0.091 0.156 0.09 0.158 0.087 0.159 0.086 0.16 0.084 0.161 0.082 0.162 0.08 0.164 0.078 0.164 0.076 0.166 0.074 0.167 0.072 0.168 0.071 0.169 0.068 0.17 0.066 0.17 0.064 0.172 0.062 0.173 0.06 0.174 0.058 0.175 0.056 0.176 0.054 0.177 0.052 0.178 0.049 0.178 0.048 0.18 0.045 0.18 0.043 0.181 0.041 0.182 0.038 0.183 0.037 0.184 0.034 0.184 0.032 0.185 0.029 0.186 0.028 0.187 0.025 0.187 0.022 0.188 0.021 0.189 0.018 0.189 0.015 0.19 0.014 0.191 0.011 0.191 8e-3 0.191 6e-3 0.193 4e-3 0.193 1e-3 0.187v2.012l-1e-3 0.155-3e-3 0.162-5e-3 0.161-7e-3 0.161-9e-3 0.16-0.011 0.16-0.013 0.16-0.015 0.16-0.016 0.159-0.019 0.159-0.021 0.159-0.022 0.158-0.025 0.157-0.026 0.158-0.029 0.157-0.03 0.156-0.032 0.156-0.034 0.155-0.036 0.155-0.038 0.155-0.04 0.153-0.041 0.154-0.044 0.153-0.045 0.152-0.047 0.151-0.049 0.151-0.051 0.151-0.052 0.149-0.055 0.149-0.056 0.149-0.058 0.147-0.06 0.147-0.061 0.146-0.063 0.145-0.065 0.145-0.067 0.144-0.069 0.143-0.07 0.142-0.073 0.141-0.074 0.141-0.075 0.139-0.077 0.139-0.079 0.138-0.081 0.137-0.083 0.135-0.084 0.135-0.086 0.134-0.087 0.133-0.089 0.132-0.091 0.131-0.093 0.13-0.094 0.129-0.096 0.128-0.097 0.127-0.099 0.125-0.101 0.125-0.102 0.123-0.104 0.122-0.106 0.122-0.107 0.119-0.109 0.119-0.11 0.117-0.112 0.116-0.114 0.115-0.114 0.114-0.117 0.112-0.117 0.11-0.119 0.109-0.12 0.107-0.12 0.105-0.123 0.105-0.123 0.102-0.125 0.101-0.125 0.099-0.127 0.097-0.128 0.096-0.129 0.094-0.13 0.093-0.131 0.091-0.131 0.089-0.134 0.087-0.134 0.086-0.135 0.084-0.136 0.083-0.136 0.081-0.138 0.079-0.139 0.077-0.139 0.076-0.282 0.146-0.142 0.07-0.143 0.069-0.144 0.066-0.145 0.066-0.145 0.063-0.146 0.061-0.147 0.06-0.147 0.058-0.149 0.056-0.149 0.055-0.149 0.052-0.151 0.051-0.151 0.049-0.151 0.047-0.152 0.045-0.153 0.044-0.153 0.041-0.154 0.04-0.155 0.038-0.155 0.036-0.155 0.034-0.156 0.032-0.156 0.03-0.157 0.029-0.158 0.026-0.157 0.025-0.158 0.022-0.159 0.021-0.159 0.019-0.159 0.016-0.16 0.015-0.16 0.013-0.16 0.011-0.16 9e-3 -0.161 7e-3 -0.161 5e-3 -0.162 3e-3 -0.155 1e-3h-4.012l-0.155-1e-3 -0.162-3e-3 -0.161-5e-3 -0.161-7e-3 -0.16-9e-3 -0.16-0.011-0.16-0.013-0.16-0.015-0.159-0.016-0.159-0.019-0.159-0.021-0.158-0.022-0.157-0.025-0.158-0.026-0.157-0.029-0.156-0.03-0.156-0.032-0.155-0.034-0.155-0.036-0.155-0.038-0.154-0.04-0.153-0.041-0.153-0.044-0.152-0.045-0.151-0.047-0.151-0.049-0.151-0.051-0.149-0.052-0.149-0.055-0.148-0.056-0.148-0.058-0.147-0.06-0.146-0.061-0.145-0.063-0.145-0.066-0.144-0.066-0.143-0.069-0.142-0.07-0.282-0.146-0.139-0.076-0.139-0.077-0.138-0.079-0.136-0.081-0.136-0.083-0.135-0.084-0.134-0.086-0.133-0.087-0.132-0.089-0.131-0.091-0.13-0.093-0.129-0.094-0.128-0.096-0.127-0.097-0.125-0.099-0.125-0.101-0.123-0.102-0.122-0.104-0.121-0.106-0.12-0.107-0.119-0.109-0.117-0.11-0.117-0.112-0.114-0.114-0.114-0.115-0.112-0.116-0.11-0.117-0.109-0.119-0.107-0.119-0.106-0.122-0.104-0.122-0.102-0.123-0.101-0.125-0.099-0.125-0.097-0.127-0.096-0.128-0.094-0.129-0.093-0.13-0.091-0.131-0.089-0.132-0.087-0.133-0.086-0.134-0.084-0.135-0.083-0.136-0.081-0.136-0.079-0.138-0.077-0.139-0.076-0.139-0.146-0.282-0.07-0.142-0.069-0.143-0.066-0.144-0.066-0.145-0.063-0.145-0.061-0.146-0.06-0.147-0.058-0.147-0.056-0.149-0.055-0.149-0.052-0.149-0.051-0.151-0.049-0.15-0.047-0.152-0.045-0.152-0.044-0.153-0.041-0.153-0.04-0.154-0.038-0.155-0.036-0.155-0.034-0.155-0.032-0.156-0.03-0.156-0.029-0.157-0.026-0.158-0.025-0.157-0.022-0.158-0.021-0.159-0.019-0.159-0.016-0.159-0.015-0.16-0.013-0.16-0.011-0.16-9e-3 -0.16-7e-3 -0.161-5e-3 -0.161-3e-3 -0.161-1e-3 -0.156v-2.013l1e-3 -0.186 4e-3 -0.193 6e-3 -0.193 8e-3 -0.191 0.011-0.191 0.014-0.191 0.015-0.19 0.018-0.189 0.021-0.189 0.022-0.188 0.025-0.187 0.028-0.187 0.029-0.186 0.032-0.185 0.034-0.184 0.037-0.184 0.038-0.183 0.041-0.182 0.043-0.181 0.045-0.18 0.048-0.18 0.049-0.178 0.052-0.178 0.054-0.177 0.056-0.176 0.058-0.175 0.06-0.174 0.062-0.173 0.064-0.172 0.066-0.17 0.068-0.17 0.071-0.169 0.072-0.168 0.074-0.167 0.076-0.166 0.078-0.164 0.08-0.164 0.082-0.162 0.084-0.161 0.086-0.16 0.087-0.159 0.09-0.158 0.091-0.156 0.093-0.156 0.095-0.154 0.096-0.152 0.099-0.152 0.1-0.15 0.102-0.149 0.104-0.148 0.105-0.146 0.107-0.145 0.109-0.144 0.11-0.142 0.112-0.141 0.114-0.139 0.115-0.138 0.117-0.137 0.119-0.135 0.12-0.134 0.122-0.132 0.123-0.131 0.125-0.13 0.126-0.128 0.128-0.126 0.13-0.125 0.131-0.123 0.132-0.122 0.134-0.12 0.135-0.119 0.137-0.117 0.138-0.115 0.139-0.114 0.141-0.112 0.142-0.11 0.144-0.109 0.145-0.107 0.146-0.105 0.148-0.104 0.149-0.102 0.15-0.1 0.152-0.099 0.152-0.096 0.155-0.095 0.155-0.093 0.156-0.091 0.158-0.09 0.159-0.087 0.16-0.086 0.161-0.084 0.162-0.082 0.164-0.08 0.164-0.078 0.166-0.076 0.167-0.074 0.168-0.072 0.169-0.071 0.17-0.068 0.171-0.066 0.172-0.064 0.172-0.062 0.174-0.06 0.175-0.058 0.176-0.056 0.177-0.054 0.178-0.052 0.178-0.049 0.18-0.048 0.18-0.045 0.181-0.043 0.182-0.041 0.183-0.038 0.184-0.037 0.184-0.034 0.185-0.032 0.186-0.029 0.187-0.028 0.187-0.025 0.188-0.022 0.189-0.021 0.189-0.018 0.19-0.015 0.191-0.014 0.191-0.011 0.191-8e-3 0.193-6e-3 0.193-4e-3 0.193-1e-3 0.193 1e-3zm-0.336 4-0.142 3e-3 -0.142 4e-3 -0.141 6e-3 -0.14 8e-3 -0.14 0.01-0.14 0.012-0.139 0.013-0.139 0.015-0.138 0.017-0.137 0.018-0.137 0.02-0.136 0.022-0.136 0.023-0.135 0.025-0.134 0.027-0.134 0.028-0.133 0.03-0.133 0.031-0.132 0.033-0.131 0.035-0.13 0.036-0.13 0.038-0.13 0.039-0.128 0.041-0.256 0.086-0.126 0.046-0.126 0.047-0.125 0.048-0.124 0.05-0.124 0.052-0.123 0.052-0.122 0.055-0.121 0.056-0.121 0.057-0.12 0.058-0.119 0.06-0.118 0.062-0.117 0.062-0.232 0.13-0.115 0.067-0.113 0.068-0.113 0.07-0.112 0.071-0.112 0.072-0.11 0.073-0.109 0.075-0.108 0.076-0.108 0.078-0.106 0.078-0.106 0.08-0.104 0.081-0.104 0.083-0.102 0.083-0.102 0.085-0.1 0.086-0.099 0.087-0.099 0.088-0.097 0.09-0.096 0.09-0.095 0.092-0.094 0.093-0.093 0.094-0.092 0.095-0.09 0.096-0.09 0.097-0.088 0.099-0.087 0.099-0.086 0.1-0.085 0.102-0.083 0.102-0.083 0.104-0.081 0.104-0.08 0.106-0.078 0.106-0.078 0.108-0.076 0.108-0.074 0.109-0.074 0.11-0.072 0.112-0.071 0.112-0.07 0.113-0.068 0.113-0.067 0.115-0.13 0.232-0.062 0.118-0.062 0.117-0.06 0.119-0.058 0.12-0.057 0.121-0.056 0.121-0.054 0.122-0.053 0.123-0.052 0.124-0.05 0.124-0.048 0.125-0.047 0.126-0.045 0.126-0.044 0.128-0.043 0.128-0.041 0.128-0.039 0.129-0.038 0.131-0.036 0.13-0.035 0.131-0.033 0.132-0.031 0.133-0.03 0.133-0.028 0.134-0.027 0.135-0.025 0.134-0.023 0.136-0.022 0.136-0.02 0.137-0.018 0.138-0.017 0.137-0.015 0.139-0.013 0.139-0.012 0.139-0.01 0.14-8e-3 0.141-6e-3 0.141-4e-3 0.142-3e-3 0.142-1e-3 0.15v1.987l1e-3 0.118 2e-3 0.111 3e-3 0.112 5e-3 0.111 6e-3 0.112 8e-3 0.11 9e-3 0.111 0.01 0.111 0.012 0.11 0.013 0.11 0.014 0.11 0.016 0.109 0.017 0.109 0.018 0.109 0.02 0.109 0.021 0.108 0.022 0.108 0.023 0.107 0.025 0.108 0.026 0.107 0.028 0.106 0.029 0.106 0.03 0.106 0.031 0.105 0.066 0.21 0.072 0.208 0.038 0.103 0.039 0.102 0.04 0.103 0.041 0.101 0.043 0.101 0.044 0.101 0.045 0.1 0.046 0.099 0.047 0.099 0.049 0.099 0.05 0.098 0.051 0.097 0.053 0.097 0.053 0.096 0.055 0.095 0.056 0.095 0.057 0.094 0.058 0.093 0.06 0.093 0.06 0.092 0.062 0.092 0.063 0.09 0.064 0.09 0.065 0.089 0.066 0.089 0.068 0.088 0.068 0.087 0.07 0.086 0.071 0.085 0.072 0.085 0.073 0.084 0.074 0.083 0.075 0.082 0.077 0.081 0.077 0.08 0.079 0.08 0.08 0.079 0.08 0.077 0.081 0.076 0.082 0.076 0.083 0.074 0.084 0.073 0.085 0.072 0.085 0.071 0.087 0.07 0.174 0.136 0.088 0.066 0.09 0.065 0.09 0.064 0.09 0.063 0.092 0.062 0.092 0.06 0.093 0.06 0.093 0.058 0.094 0.057 0.095 0.056 0.095 0.055 0.096 0.053 0.097 0.053 0.097 0.051 0.098 0.05 0.098 0.048 0.1 0.048 0.099 0.046 0.1 0.045 0.101 0.044 0.101 0.043 0.102 0.041 0.102 0.04 0.102 0.039 0.104 0.038 0.103 0.036 0.104 0.035 0.105 0.034 0.105 0.033 0.105 0.031 0.106 0.03 0.106 0.029 0.106 0.028 0.107 0.026 0.107 0.025 0.108 0.023 0.108 0.022 0.108 0.021 0.109 0.02 0.109 0.018 0.109 0.017 0.109 0.016 0.11 0.014 0.11 0.013 0.11 0.012 0.111 0.01 0.111 9e-3 0.111 8e-3 0.111 6e-3 0.111 5e-3 0.111 3e-3 0.112 2e-3 0.118 1e-3h3.988l0.118-1e-3 0.112-2e-3 0.111-3e-3 0.111-5e-3 0.111-6e-3 0.111-8e-3 0.111-9e-3 0.111-0.01 0.11-0.012 0.11-0.013 0.11-0.014 0.109-0.016 0.109-0.017 0.109-0.018 0.109-0.02 0.108-0.021 0.108-0.022 0.108-0.023 0.107-0.025 0.107-0.026 0.106-0.028 0.106-0.029 0.106-0.03 0.105-0.031 0.105-0.033 0.105-0.034 0.104-0.035 0.103-0.036 0.104-0.038 0.102-0.039 0.102-0.04 0.102-0.041 0.101-0.043 0.101-0.044 0.1-0.045 0.1-0.046 0.099-0.048 0.098-0.048 0.098-0.05 0.097-0.051 0.097-0.053 0.096-0.053 0.095-0.055 0.095-0.056 0.094-0.057 0.093-0.058 0.093-0.06 0.092-0.06 0.092-0.062 0.09-0.063 0.09-0.064 0.089-0.065 0.089-0.066 0.088-0.068 0.087-0.068 0.086-0.07 0.085-0.071 0.085-0.072 0.084-0.073 0.083-0.074 0.082-0.076 0.081-0.076 0.08-0.077 0.08-0.079 0.079-0.08 0.077-0.08 0.076-0.081 0.076-0.083 0.074-0.082 0.073-0.084 0.072-0.085 0.071-0.085 0.07-0.086 0.068-0.087 0.068-0.088 0.066-0.089 0.065-0.089 0.064-0.09 0.063-0.09 0.062-0.092 0.06-0.092 0.06-0.093 0.058-0.093 0.057-0.094 0.056-0.095 0.055-0.095 0.053-0.096 0.053-0.097 0.051-0.097 0.05-0.098 0.049-0.099 0.047-0.099 0.046-0.099 0.045-0.1 0.044-0.101 0.043-0.101 0.041-0.102 0.04-0.102 0.039-0.102 0.038-0.104 0.036-0.103 0.036-0.104 0.033-0.104 0.033-0.106 0.031-0.105 0.03-0.106 0.029-0.106 0.028-0.106 0.026-0.107 0.025-0.108 0.023-0.107 0.022-0.108 0.021-0.108 0.02-0.109 0.018-0.109 0.017-0.109 0.016-0.109 0.014-0.11 0.013-0.11 0.012-0.111 0.01-0.11 9e-3 -0.111 8e-3 -0.111 6e-3 -0.111 5e-3 -0.111 3e-3 -0.112 2e-3 -0.111 1e-3 -0.118v-1.988l-1e-3 -0.149-3e-3 -0.142-4e-3 -0.142-6e-3 -0.141-8e-3 -0.14-0.01-0.141-0.012-0.139-0.013-0.139-0.015-0.139-0.017-0.137-0.018-0.138-0.02-0.137-0.022-0.136-0.023-0.136-0.025-0.135-0.027-0.134-0.028-0.134-0.03-0.133-0.031-0.133-0.033-0.132-0.035-0.131-0.036-0.131-0.038-0.13-0.039-0.129-0.041-0.128-0.086-0.256-0.046-0.126-0.047-0.126-0.048-0.125-0.05-0.124-0.052-0.124-0.053-0.123-0.054-0.122-0.056-0.121-0.057-0.121-0.058-0.12-0.06-0.118-0.062-0.118-0.063-0.118-0.064-0.116-0.065-0.116-0.067-0.115-0.068-0.113-0.07-0.113-0.071-0.112-0.072-0.112-0.073-0.11-0.075-0.109-0.076-0.108-0.078-0.108-0.078-0.106-0.08-0.106-0.081-0.104-0.083-0.104-0.083-0.102-0.085-0.102-0.086-0.1-0.087-0.099-0.088-0.099-0.09-0.097-0.09-0.096-0.092-0.095-0.093-0.094-0.094-0.093-0.095-0.092-0.096-0.09-0.097-0.09-0.099-0.088-0.099-0.087-0.1-0.086-0.102-0.085-0.102-0.083-0.104-0.083-0.104-0.081-0.106-0.08-0.106-0.078-0.108-0.078-0.108-0.076-0.109-0.075-0.11-0.073-0.112-0.072-0.112-0.071-0.113-0.07-0.113-0.068-0.115-0.067-0.116-0.065-0.116-0.064-0.117-0.063-0.119-0.062-0.118-0.06-0.12-0.058-0.121-0.057-0.121-0.056-0.122-0.055-0.246-0.104-0.125-0.05-0.125-0.048-0.126-0.047-0.126-0.046-0.256-0.086-0.128-0.041-0.129-0.039-0.131-0.038-0.13-0.036-0.131-0.035-0.132-0.033-0.133-0.031-0.133-0.03-0.134-0.028-0.134-0.027-0.135-0.025-0.136-0.023-0.136-0.022-0.137-0.02-0.137-0.018-0.138-0.017-0.139-0.015-0.139-0.013-0.14-0.012-0.14-0.01-0.14-8e-3 -0.141-6e-3 -0.142-4e-3 -0.142-3e-3 -0.143-1e-3 -0.143 1e-3z"/></g><g id="emoji"><path d="m29 15c0-7.18-5.82-13-13-13s-13 5.82-13 13v2c0 2.917 1.159 5.715 3.222 7.778s4.861 3.222 7.778 3.222h4c2.917 0 5.715-1.159 7.778-3.222s3.222-4.861 3.222-7.778v-2z" fill="#fbc546"/><clipPath id="_clip2"><path d="m29 15c0-7.18-5.82-13-13-13s-13 5.82-13 13v2c0 2.917 1.159 5.715 3.222 7.778s4.861 3.222 7.778 3.222h4c2.917 0 5.715-1.159 7.778-3.222s3.222-4.861 3.222-7.778v-2z"/></clipPath><g clip-path="url(#_clip2)"><path d="m14 24s-1.983-1.416-3.838-2.741c-0.609-0.436-1.411-0.494-2.077-0.151s-1.085 1.029-1.085 1.778v8.114c0 0.552 0.448 1 1 1h3c0.265 0 0.52-0.105 0.707-0.293 0.188-0.187 0.293-0.442 0.293-0.707v-1h8s-3.011-3.614-4.36-5.232c-0.406-0.487-1.006-0.768-1.64-0.768z" fill="#e59a10"/></g><path d="m11 8h-3v4.5c0 0.828 0.672 1.5 1.5 1.5s1.5-0.672 1.5-1.5v-4.5z"/><path d="m24 9.498c0-0.397-0.158-0.778-0.439-1.059s-0.662-0.439-1.059-0.439h-4e-3c-0.397 0-0.778 0.158-1.059 0.439s-0.439 0.662-0.439 1.059v3.004c0 0.397 0.158 0.778 0.439 1.059s0.662 0.439 1.059 0.439h4e-3c0.397 0 0.778-0.158 1.059-0.439s0.439-0.662 0.439-1.059v-3.004z"/><path d="m11.998 17.998 0.047 0.061 0.046 0.058 0.046 0.057 0.047 0.057 0.096 0.11 0.049 0.054 0.05 0.053 0.102 0.104 0.052 0.051 0.052 0.05 0.054 0.049 0.054 0.048 0.054 0.047 0.055 0.047 0.056 0.046 0.057 0.045 0.057 0.044 0.057 0.043 0.059 0.042 0.058 0.042 0.06 0.041 0.12 0.078 0.061 0.038 0.124 0.074 0.062 0.035 0.063 0.034 0.064 0.034 0.128 0.064 0.065 0.031 0.065 0.029 0.066 0.029 0.067 0.028 0.066 0.027 0.067 0.026 0.068 0.025 0.067 0.024 0.068 0.023 0.069 0.023 0.069 0.021 0.069 0.02 0.069 0.019 0.14 0.036 0.071 0.016 0.07 0.015 0.071 0.014 0.072 0.013 0.071 0.012 0.072 0.012 0.072 0.01 0.072 9e-3 0.073 8e-3 0.072 7e-3 0.073 6e-3 0.146 8e-3 0.074 3e-3 0.073 1e-3 0.074 1e-3 0.075-1e-3 0.073-1e-3 0.074-3e-3 0.146-8e-3 0.073-6e-3 0.073-7e-3 0.072-8e-3 0.072-9e-3 0.072-0.01 0.144-0.024 0.071-0.013 0.071-0.014 0.071-0.015 0.07-0.016 0.14-0.036 0.07-0.019 0.069-0.02 0.069-0.021 0.136-0.046 0.068-0.024 0.068-0.025 0.067-0.026 0.066-0.027 0.066-0.028 0.066-0.029 0.066-0.03 0.065-0.03 0.064-0.032 0.128-0.066 0.063-0.034 0.124-0.072 0.062-0.037 0.061-0.038 0.06-0.039 0.12-0.08 0.059-0.042 0.058-0.042 0.058-0.044 0.057-0.044 0.112-0.09 0.11-0.094 0.054-0.049 0.053-0.049 0.053-0.05 0.052-0.051 0.051-0.051 0.051-0.053 0.049-0.053 0.05-0.054 0.048-0.054 0.048-0.056 0.047-0.056 0.046-0.058 0.045-0.057 0.047-0.062 1.498-1.997h1.5l0.075 3e-3 0.074 8e-3 0.074 0.014 0.072 0.019 0.07 0.025 0.069 0.03 0.066 0.035 0.063 0.04 0.06 0.044 0.057 0.049 0.053 0.053 0.049 0.057 0.044 0.06 0.04 0.063 0.035 0.066 0.03 0.069 0.025 0.07 0.019 0.072 0.014 0.074 8e-3 0.074 3e-3 0.075-3e-3 0.075-8e-3 0.074-0.014 0.074-0.019 0.072-0.025 0.07-0.03 0.069-0.035 0.066-0.04 0.063-0.044 0.06-0.049 0.057-0.053 0.053-0.057 0.049-0.06 0.044-0.063 0.04-0.066 0.035-0.069 0.03-0.07 0.025-0.072 0.019-0.074 0.014-0.074 8e-3 -0.075 3e-3h-0.5l-0.902 1.203-0.06 0.079-0.064 0.081-0.065 0.08-0.065 0.079-0.067 0.078-0.068 0.076-0.069 0.076-0.07 0.074-0.071 0.074-0.071 0.072-0.073 0.071-0.074 0.07-0.075 0.069-0.075 0.067-0.076 0.067-0.078 0.065-0.078 0.064-0.079 0.063-0.08 0.062-0.081 0.061-0.081 0.059-0.083 0.058-0.083 0.057-0.084 0.056-0.085 0.054-0.085 0.053-0.086 0.052-0.087 0.051-0.088 0.049-0.088 0.048-0.089 0.047-0.09 0.046-0.09 0.044-0.091 0.043-0.091 0.042-0.092 0.04-0.093 0.04-0.093 0.037-0.094 0.037-0.094 0.035-0.095 0.034-0.096 0.032-0.096 0.031-0.096 0.03-0.097 0.028-0.097 0.027-0.098 0.025-0.098 0.024-0.099 0.023-0.099 0.021-0.1 0.02-0.099 0.019-0.101 0.017-0.1 0.015-0.101 0.014-0.101 0.013-0.102 0.011-0.101 0.01-0.102 8e-3 -0.103 7e-3 -0.102 5e-3 -0.103 4e-3 -0.103 2e-3 -0.099 1e-3h-9e-3l-0.099-1e-3 -0.103-2e-3 -0.103-4e-3 -0.102-5e-3 -0.103-7e-3 -0.102-8e-3 -0.101-0.01-0.102-0.011-0.101-0.013-0.101-0.014-0.1-0.015-0.1-0.017-0.1-0.019-0.099-0.02-0.1-0.021-0.098-0.023-0.098-0.024-0.098-0.025-0.098-0.027-0.096-0.028-0.097-0.03-0.096-0.031-0.095-0.032-0.095-0.034-0.094-0.035-0.094-0.037-0.093-0.037-0.093-0.039-0.092-0.041-0.091-0.041-0.182-0.088-0.089-0.045-0.089-0.047-0.088-0.048-0.088-0.05-0.087-0.05-0.086-0.052-0.17-0.108-0.084-0.056-0.083-0.057-0.082-0.058-0.082-0.059-0.081-0.061-0.08-0.061-0.079-0.063-0.078-0.064-0.154-0.132-0.15-0.136-0.073-0.07-0.073-0.072-0.072-0.072-0.071-0.073-0.07-0.074-0.068-0.076-0.068-0.077-0.067-0.078-0.066-0.078-0.064-0.08-0.064-0.081-0.06-0.079-0.903-1.204h-0.5l-0.075-3e-3 -0.074-8e-3 -0.074-0.014-0.072-0.019-0.07-0.025-0.069-0.03-0.066-0.035-0.063-0.04-0.06-0.044-0.057-0.049-0.053-0.053-0.049-0.057-0.044-0.06-0.04-0.063-0.035-0.066-0.03-0.069-0.025-0.07-0.019-0.072-0.014-0.074-8e-3 -0.074-3e-3 -0.075 3e-3 -0.075 8e-3 -0.074 0.014-0.074 0.019-0.072 0.025-0.07 0.03-0.069 0.035-0.066 0.04-0.063 0.044-0.06 0.049-0.057 0.053-0.053 0.057-0.049 0.06-0.044 0.063-0.04 0.066-0.035 0.069-0.03 0.07-0.025 0.072-0.019 0.074-0.014 0.074-8e-3 0.075-3e-3h1.5l1.498 1.998z" fill="#593604"/><path d="m5 11v-0.586c0-0.905 0.36-1.774 1-2.414s1.509-1 2.414-1h0.937c0.43 0 0.857 0.069 1.265 0.205 0.708 0.236 1.824 0.608 2.23 0.744 0.102 0.034 0.209 0.051 0.316 0.051h1.838v1c0 0.552-0.448 1-1 1h-1.261c-0.491 0-0.98-0.06-1.456-0.179-0.492-0.123-1.163-0.291-1.771-0.443-0.963-0.241-1.983-0.064-2.809 0.486-0.811 0.541-1.703 1.136-1.703 1.136z"/><path d="m27 8v-1.586c0-0.905-0.36-1.774-1-2.414s-1.509-1-2.414-1h-0.375c-0.79 0-1.562 0.234-2.219 0.672-0.617 0.411-1.36 0.906-1.74 1.16-0.164 0.11-0.357 0.168-0.555 0.168h-1.697v1c0 0.552 0.448 1 1 1h0.584c0.931 0 1.85-0.217 2.683-0.633 0.149-0.075 0.304-0.153 0.462-0.231 1.356-0.679 2.994-0.413 4.066 0.659l1.205 1.205z"/></g><path d="m8 23-0.894 0.447c-0.678 0.339-1.106 1.032-1.106 1.789v3.764c0 0.265 0.105 0.52 0.293 0.707 0.187 0.188 0.442 0.293 0.707 0.293h3c0.552 0 1-0.448 1-1v-2h2c0.552 0 1-0.448 1-1 0-0.265-0.105-0.52-0.293-0.707-0.187-0.188-0.442-0.293-0.707-0.293h-5v-2z" fill="#fbc546"/><path d="m10 23h3.025l0.124 3e-3 0.148 0.011 0.146 0.018 0.145 0.026 0.143 0.032 0.142 0.039 0.139 0.046 0.136 0.053 0.134 0.059 0.131 0.066 0.128 0.072 0.123 0.078 0.121 0.085 0.117 0.091 0.112 0.097 0.108 0.102 0.102 0.108 0.097 0.113 0.091 0.116 0.084 0.12 0.079 0.125 0.072 0.128 0.066 0.13 0.059 0.133 0.053 0.138 0.046 0.138 0.039 0.141 0.032 0.144 0.026 0.145 0.018 0.147 0.011 0.147 4e-3 0.149-4e-3 0.152-0.012 0.152-0.019 0.15-0.026 0.149-0.034 0.145-0.041 0.143-0.047 0.141-0.054 0.136-0.06 0.134-0.067 0.129-0.072 0.126-0.078 0.122-0.083 0.117-0.09 0.114-0.093 0.108-0.099 0.103-0.104 0.1-0.109 0.094-0.113 0.089-0.117 0.083-0.122 0.078-0.126 0.072-0.129 0.067-0.133 0.06-0.137 0.054-0.141 0.047-0.143 0.041-0.145 0.034-0.149 0.026-0.15 0.019-0.151 0.012-0.128 3e-3h-0.025v0.025l-3e-3 0.127-0.012 0.152-0.019 0.15-0.026 0.149-0.034 0.145-0.041 0.143-0.047 0.141-0.054 0.136-0.06 0.134-0.067 0.13-0.072 0.125-0.078 0.121-0.083 0.118-0.09 0.114-0.093 0.108-0.099 0.104-0.104 0.099-0.108 0.094-0.114 0.089-0.117 0.083-0.122 0.078-0.126 0.072-0.129 0.067-0.133 0.06-0.138 0.054-0.14 0.047-0.143 0.041-0.145 0.034-0.149 0.026-0.15 0.019-0.151 0.012-0.128 3e-3h-3.05l-0.124-3e-3 -0.148-0.011-0.146-0.018-0.145-0.026-0.143-0.032-0.142-0.039-0.139-0.046-0.136-0.053-0.134-0.059-0.131-0.066-0.128-0.072-0.123-0.078-0.121-0.085-0.117-0.091-0.112-0.097-0.108-0.103-0.102-0.107-0.097-0.112-0.091-0.117-0.085-0.12-0.078-0.125-0.072-0.128-0.066-0.13-0.059-0.133-0.053-0.137-0.046-0.139-0.039-0.142-0.032-0.143-0.026-0.145-0.018-0.147-0.011-0.147-3e-3 -0.124v-3.807l2e-3 -0.123 8e-3 -0.141 0.012-0.14 0.017-0.138 0.022-0.138 0.027-0.137 0.031-0.135 0.036-0.133 0.04-0.132 0.045-0.13 0.049-0.128 0.053-0.126 0.058-0.125 0.061-0.122 0.066-0.119 0.07-0.118 0.074-0.115 0.077-0.112 0.082-0.11 0.086-0.107 0.089-0.104 0.092-0.102 0.097-0.098 0.1-0.095 0.103-0.092 0.107-0.088 0.11-0.085 0.114-0.081 0.116-0.077 0.119-0.074 0.123-0.069 0.109-0.058 3.805-1.902v3.236zm-2.894 0.447-0.063 0.033-0.062 0.035-0.059 0.037-0.058 0.038-0.057 0.041-0.055 0.042-0.053 0.044-0.052 0.046-0.05 0.048-0.048 0.049-0.046 0.05-0.045 0.052-0.043 0.054-0.04 0.055-0.039 0.056-0.037 0.058-0.035 0.058-0.033 0.06-0.031 0.061-0.029 0.062-0.027 0.064-0.024 0.064-0.022 0.065-0.021 0.066-0.017 0.066-0.016 0.068-0.013 0.068-0.011 0.069-9e-3 0.069-6e-3 0.07-4e-3 0.07-1e-3 0.071v3.764l1e-3 0.05 4e-3 0.049 6e-3 0.049 8e-3 0.048 0.011 0.048 0.013 0.047 0.016 0.046 0.017 0.046 0.02 0.044 0.022 0.044 0.024 0.042 0.026 0.042 0.028 0.04 0.03 0.039 0.033 0.037 0.034 0.036 0.036 0.034 0.037 0.033 0.039 0.03 0.04 0.028 0.042 0.026 0.042 0.024 0.044 0.022 0.044 0.02 0.046 0.017 0.046 0.016 0.047 0.013 0.048 0.011 0.048 8e-3 0.049 6e-3 0.049 4e-3 0.05 1e-3h3l0.051-1e-3 0.051-4e-3 0.05-7e-3 0.05-8e-3 0.048-0.011 0.047-0.014 0.047-0.016 0.045-0.018 0.045-0.02 0.043-0.022 0.042-0.024 0.04-0.026 0.039-0.028 0.038-0.029 0.036-0.032 0.035-0.033 0.033-0.035 0.032-0.036 0.029-0.038 0.028-0.039 0.026-0.04 0.024-0.042 0.022-0.043 0.02-0.045 0.018-0.045 0.016-0.047 0.014-0.047 0.011-0.048 8e-3 -0.05 7e-3 -0.05 4e-3 -0.051 1e-3 -0.051v-2h2l0.051-1e-3 0.051-4e-3 0.05-7e-3 0.05-8e-3 0.048-0.011 0.047-0.014 0.047-0.016 0.045-0.018 0.045-0.02 0.043-0.022 0.042-0.024 0.04-0.026 0.039-0.028 0.038-0.029 0.036-0.032 0.035-0.033 0.033-0.035 0.032-0.036 0.029-0.038 0.028-0.039 0.026-0.04 0.024-0.042 0.022-0.043 0.02-0.045 0.018-0.045 0.016-0.047 0.014-0.047 0.011-0.048 8e-3 -0.05 7e-3 -0.05 4e-3 -0.051 1e-3 -0.051-1e-3 -0.05-4e-3 -0.049-6e-3 -0.049-8e-3 -0.048-0.011-0.048-0.013-0.047-0.016-0.046-0.017-0.046-0.02-0.044-0.022-0.044-0.024-0.042-0.026-0.042-0.028-0.04-0.03-0.039-0.033-0.037-0.034-0.036-0.036-0.034-0.037-0.033-0.039-0.03-0.04-0.028-0.042-0.026-0.042-0.024-0.044-0.022-0.044-0.02-0.046-0.017-0.046-0.016-0.047-0.013-0.048-0.011-0.048-8e-3 -0.049-6e-3 -0.049-4e-3 -0.05-1e-3h-5v-2l-0.894 0.447z"/><rect x="12" y="27" width="2" height="2"/></g></svg>
