<?xml version="1.0" encoding="UTF-8" standalone="no"?><!DOCTYPE svg PUBLIC "-//W3C//DTD SVG 1.1//EN" "http://www.w3.org/Graphics/SVG/1.1/DTD/svg11.dtd"><svg width="100%" height="100%" viewBox="0 0 32 32" version="1.1" xmlns="http://www.w3.org/2000/svg" xmlns:xlink="http://www.w3.org/1999/xlink" xml:space="preserve" xmlns:serif="http://www.serif.com/" style="fill-rule:evenodd;clip-rule:evenodd;stroke-linejoin:round;stroke-miterlimit:1.41421;">
<metadata>
<rdf:RDF xmlns:cc="http://web.resource.org/cc/"
         xmlns:rdf="http://www.w3.org/1999/02/22-rdf-syntax-ns#"
         xmlns:dc = "http://purl.org/dc/elements/1.1/"
         >

     <rdf:Description rdf:about="">
       <dc:title>Mutant Standard S3</dc:title>
     </rdf:Description>

    <cc:work rdf:about="">
        <cc:license rdf:resource="http://creativecommons.org/licenses/by-nc-sa/4.0/"/>
        <cc:attributionName>Dzuk</cc:attributionName>
        <cc:attributionURL>http://mutant.tech/</cc:attributionURL>
    </cc:work>

</rdf:RDF>
</metadata>
<rect id="doublethincc" x="0" y="0" width="32" height="32" style="fill:none;"/><clipPath id="_clip1"><rect x="0" y="0" width="32" height="32"/></clipPath><g clip-path="url(#_clip1)"><g id="outline"><path d="M9.799,8.941l0.148,0.003l0.147,0.006l0.147,0.009l0.147,0.01l0.147,0.013l0.147,0.015l0.147,0.017l0.147,0.02l0.147,0.022l0.146,0.024l0.146,0.027l0.146,0.028l0.145,0.031l0.145,0.034l0.145,0.035l0.144,0.038l0.144,0.04l0.144,0.043l0.143,0.045l0.143,0.047l0.142,0.049l0.141,0.052l0.141,0.054l0.14,0.056l0.133,0.055l1.567,0.672l0.077,0.034l0.084,0.039l0.085,0.041l0.082,0.042l0.082,0.043l0.081,0.045l0.08,0.046l0.078,0.048l0.078,0.049l0.076,0.05l0.076,0.052l0.075,0.053l0.074,0.054l0.071,0.055l0.071,0.057l0.071,0.058l0.069,0.059l0.068,0.06l0.066,0.061l0.065,0.063l0.065,0.063l0.062,0.065l0.062,0.066l0.061,0.067l0.059,0.067l0.058,0.07l0.056,0.069l0.056,0.071l0.054,0.072l0.053,0.072l0.051,0.074l0.051,0.075l0.048,0.075l0.047,0.076l0.046,0.077l0.045,0.079l0.044,0.079l0.041,0.079l0.041,0.08l0.039,0.082l0.038,0.082l0.036,0.082l0.034,0.083l0.033,0.084l0.032,0.085l0.03,0.085l0.029,0.087l0.027,0.086l0.026,0.087l0.024,0.088l0.022,0.088l0.021,0.088l0.019,0.091l0.018,0.089l0.016,0.09l0.014,0.092l0.013,0.091l0.011,0.091l0.01,0.092l0.007,0.092l0.006,0.093l0.005,0.094l0.002,0.092l0.001,0.084l0,10.043l-0.001,0.116l-0.005,0.128l-0.008,0.126l-0.012,0.127l-0.014,0.125l-0.017,0.125l-0.021,0.124l-0.023,0.123l-0.027,0.121l-0.029,0.121l-0.033,0.12l-0.035,0.118l-0.038,0.118l-0.041,0.115l-0.044,0.115l-0.045,0.112l-0.049,0.112l-0.052,0.111l-0.054,0.109l-0.057,0.107l-0.059,0.105l-0.061,0.104l-0.064,0.103l-0.066,0.1l-0.068,0.098l-0.071,0.098l-0.073,0.095l-0.075,0.093l-0.078,0.092l-0.079,0.089l-0.082,0.088l-0.083,0.086l-0.086,0.084l-0.088,0.081l-0.089,0.079l-0.092,0.078l-0.093,0.075l-0.095,0.073l-0.097,0.07l-0.099,0.069l-0.101,0.066l-0.102,0.064l-0.104,0.061l-0.105,0.06l-0.108,0.056l-0.108,0.054l-0.11,0.051l-0.112,0.049l-0.113,0.047l-0.115,0.043l-0.116,0.041l-0.117,0.038l-0.118,0.035l-0.12,0.033l-0.121,0.029l-0.121,0.027l-0.123,0.023l-0.124,0.021l-0.125,0.017l-0.125,0.014l-0.126,0.012l-0.127,0.008l-0.128,0.005l-0.115,0.001l-1.587,0l-0.136,-0.001l-0.142,-0.002l-0.141,-0.005l-0.142,-0.006l-0.141,-0.008l-0.141,-0.009l-0.14,-0.012l-0.141,-0.013l-0.14,-0.015l-0.14,-0.016l-0.139,-0.018l-0.139,-0.02l-0.139,-0.022l-0.138,-0.023l-0.138,-0.025l-0.138,-0.027l-0.137,-0.028l-0.137,-0.03l-0.136,-0.032l-0.136,-0.033l-0.135,-0.035l-0.135,-0.036l-0.134,-0.038l-0.134,-0.04l-0.133,-0.042l-0.133,-0.043l-0.132,-0.044l-0.132,-0.046l-0.131,-0.048l-0.13,-0.05l-0.13,-0.051l-0.129,-0.052l-0.128,-0.054l-0.128,-0.056l-0.127,-0.057l-0.127,-0.059l-0.125,-0.06l-0.125,-0.062l-0.125,-0.064l-0.123,-0.065l-0.123,-0.066l-0.122,-0.068l-0.121,-0.07l-0.12,-0.071l-0.12,-0.072l-0.119,-0.074l-0.118,-0.076l-0.116,-0.077l-0.117,-0.078l-0.115,-0.08l-0.114,-0.081l-0.113,-0.083l-0.113,-0.084l-0.111,-0.086l-0.111,-0.087l-0.109,-0.089l-0.109,-0.09l-0.107,-0.091l-0.107,-0.093l-0.105,-0.095l-0.104,-0.095l-0.103,-0.097l-0.103,-0.098l-0.101,-0.1l-0.1,-0.101l-0.098,-0.102l-0.097,-0.104l-0.096,-0.104l-0.094,-0.105l-0.092,-0.107l-0.092,-0.107l-0.09,-0.109l-0.089,-0.109l-0.087,-0.111l-0.086,-0.111l-0.084,-0.113l-0.083,-0.113l-0.081,-0.114l-0.08,-0.115l-0.078,-0.116l-0.077,-0.118l-0.076,-0.117l-0.074,-0.119l-0.072,-0.12l-0.071,-0.12l-0.07,-0.121l-0.068,-0.122l-0.066,-0.123l-0.065,-0.123l-0.064,-0.125l-0.062,-0.125l-0.06,-0.125l-0.059,-0.127l-0.057,-0.127l-0.056,-0.128l-0.054,-0.128l-0.052,-0.129l-0.051,-0.13l-0.05,-0.131l-0.048,-0.131l-0.046,-0.131l-0.044,-0.132l-0.044,-0.133l-0.041,-0.133l-0.04,-0.134l-0.038,-0.134l-0.036,-0.135l-0.035,-0.135l-0.033,-0.136l-0.032,-0.137l-0.03,-0.136l-0.028,-0.137l-0.027,-0.138l-0.025,-0.138l-0.023,-0.138l-0.022,-0.139l-0.02,-0.139l-0.018,-0.139l-0.016,-0.14l-0.015,-0.14l-0.013,-0.141l-0.011,-0.14l-0.01,-0.141l-0.008,-0.141l-0.006,-0.142l-0.005,-0.141l-0.002,-0.142l-0.001,-0.136l0,-0.016l0.001,-0.144l0.004,-0.152l0.006,-0.15l0.008,-0.151l0.01,-0.149l0.013,-0.15l0.016,-0.149l0.017,-0.149l0.02,-0.148l0.022,-0.148l0.024,-0.146l0.027,-0.147l0.029,-0.147l0.031,-0.145l0.033,-0.144l0.035,-0.144l0.038,-0.143l0.04,-0.143l0.041,-0.142l0.044,-0.141l0.047,-0.14l0.048,-0.14l0.05,-0.138l0.053,-0.138l0.054,-0.137l0.057,-0.136l0.059,-0.135l0.06,-0.134l0.063,-0.133l0.065,-0.132l0.067,-0.131l0.068,-0.13l0.071,-0.13l0.073,-0.127l0.075,-0.127l0.076,-0.126l0.079,-0.124l0.08,-0.124l0.082,-0.122l0.085,-0.121l0.086,-0.119l0.088,-0.119l0.09,-0.117l0.091,-0.116l0.094,-0.114l0.095,-0.113l0.097,-0.112l0.099,-0.11l0.101,-0.109l0.102,-0.107l0.105,-0.106l0.106,-0.104l0.107,-0.103l0.11,-0.102l0.111,-0.099l0.112,-0.098l0.115,-0.097l0.116,-0.094l0.118,-0.094l0.119,-0.091l0.121,-0.09l0.123,-0.088l0.124,-0.086l0.126,-0.084l0.127,-0.083l0.128,-0.08l0.129,-0.078l0.13,-0.076l0.131,-0.073l0.132,-0.072l0.133,-0.069l0.134,-0.067l0.135,-0.066l0.135,-0.062l0.136,-0.061l0.137,-0.059l0.138,-0.056l0.138,-0.054l0.139,-0.052l0.14,-0.05l0.14,-0.047l0.141,-0.045l0.141,-0.043l0.143,-0.041l0.142,-0.039l0.143,-0.036l0.144,-0.035l0.143,-0.032l0.145,-0.03l0.145,-0.027l0.144,-0.025l0.146,-0.024l0.146,-0.021l0.146,-0.018l0.146,-0.017l0.146,-0.014l0.147,-0.012l0.147,-0.009l0.146,-0.008l0.148,-0.005l0.147,-0.003l0.147,-0.001l0.147,0.002Zm-0.244,3.999l-0.086,0.001l-0.086,0.003l-0.086,0.005l-0.085,0.005l-0.086,0.007l-0.086,0.009l-0.085,0.009l-0.086,0.011l-0.085,0.013l-0.085,0.013l-0.085,0.015l-0.084,0.016l-0.085,0.017l-0.084,0.019l-0.084,0.02l-0.083,0.021l-0.083,0.023l-0.083,0.024l-0.083,0.025l-0.082,0.027l-0.082,0.027l-0.082,0.029l-0.081,0.031l-0.081,0.031l-0.08,0.033l-0.08,0.034l-0.08,0.036l-0.079,0.036l-0.078,0.038l-0.079,0.04l-0.077,0.04l-0.077,0.042l-0.077,0.043l-0.076,0.045l-0.076,0.045l-0.075,0.047l-0.074,0.048l-0.074,0.05l-0.072,0.05l-0.072,0.051l-0.071,0.053l-0.07,0.054l-0.068,0.054l-0.068,0.055l-0.067,0.057l-0.066,0.057l-0.065,0.058l-0.064,0.059l-0.063,0.06l-0.062,0.061l-0.06,0.062l-0.06,0.063l-0.059,0.063l-0.058,0.065l-0.057,0.065l-0.055,0.066l-0.055,0.067l-0.054,0.068l-0.052,0.068l-0.052,0.069l-0.05,0.07l-0.049,0.071l-0.048,0.071l-0.047,0.072l-0.046,0.073l-0.045,0.074l-0.044,0.074l-0.042,0.075l-0.042,0.075l-0.04,0.076l-0.039,0.076l-0.038,0.078l-0.036,0.078l-0.036,0.078l-0.034,0.079l-0.033,0.08l-0.032,0.079l-0.031,0.081l-0.029,0.081l-0.029,0.082l-0.026,0.081l-0.026,0.083l-0.025,0.083l-0.023,0.083l-0.022,0.084l-0.021,0.084l-0.019,0.084l-0.018,0.086l-0.017,0.084l-0.015,0.086l-0.015,0.086l-0.012,0.086l-0.012,0.087l-0.01,0.087l-0.009,0.087l-0.008,0.087l-0.006,0.088l-0.005,0.088l-0.003,0.088l-0.002,0.088l-0.001,0.092l0.001,0.093l0.001,0.092l0.003,0.092l0.004,0.092l0.005,0.091l0.007,0.092l0.007,0.092l0.008,0.091l0.01,0.091l0.011,0.09l0.012,0.091l0.013,0.091l0.013,0.09l0.016,0.09l0.016,0.089l0.017,0.089l0.019,0.09l0.019,0.089l0.02,0.088l0.022,0.088l0.023,0.089l0.024,0.087l0.024,0.087l0.026,0.088l0.027,0.086l0.028,0.086l0.029,0.086l0.03,0.086l0.031,0.085l0.032,0.085l0.034,0.084l0.034,0.084l0.035,0.084l0.036,0.083l0.037,0.082l0.039,0.083l0.039,0.081l0.04,0.082l0.041,0.08l0.043,0.081l0.043,0.079l0.044,0.08l0.045,0.079l0.046,0.078l0.048,0.078l0.048,0.077l0.049,0.076l0.05,0.076l0.051,0.076l0.052,0.074l0.052,0.075l0.054,0.073l0.055,0.074l0.056,0.072l0.057,0.072l0.057,0.071l0.058,0.07l0.06,0.07l0.06,0.07l0.062,0.068l0.062,0.068l0.063,0.067l0.064,0.067l0.065,0.065l0.065,0.065l0.067,0.064l0.067,0.063l0.068,0.062l0.068,0.062l0.07,0.06l0.07,0.06l0.07,0.058l0.071,0.057l0.072,0.057l0.072,0.056l0.073,0.055l0.074,0.054l0.075,0.052l0.074,0.052l0.076,0.051l0.076,0.05l0.076,0.049l0.077,0.048l0.078,0.048l0.079,0.046l0.078,0.045l0.08,0.044l0.079,0.043l0.081,0.043l0.081,0.041l0.081,0.04l0.081,0.039l0.083,0.039l0.082,0.037l0.083,0.036l0.084,0.035l0.084,0.034l0.084,0.034l0.085,0.032l0.085,0.031l0.086,0.03l0.086,0.029l0.086,0.028l0.087,0.027l0.087,0.026l0.087,0.024l0.088,0.024l0.087,0.023l0.089,0.021l0.088,0.021l0.089,0.019l0.089,0.019l0.09,0.017l0.089,0.016l0.09,0.015l0.091,0.015l0.09,0.012l0.09,0.012l0.091,0.011l0.091,0.01l0.092,0.008l0.091,0.007l0.092,0.007l0.091,0.005l0.092,0.004l0.092,0.003l0.093,0.001l0.098,0.001l1.549,0l0.04,0l0.026,-0.002l0.026,-0.001l0.026,-0.002l0.025,-0.003l0.025,-0.004l0.024,-0.004l0.025,-0.005l0.024,-0.005l0.023,-0.006l0.024,-0.006l0.023,-0.007l0.023,-0.007l0.023,-0.008l0.022,-0.009l0.023,-0.009l0.021,-0.009l0.022,-0.011l0.022,-0.011l0.021,-0.011l0.021,-0.011l0.021,-0.013l0.02,-0.012l0.021,-0.014l0.019,-0.013l0.02,-0.015l0.019,-0.015l0.019,-0.015l0.018,-0.015l0.019,-0.017l0.018,-0.016l0.017,-0.017l0.017,-0.017l0.016,-0.018l0.016,-0.018l0.016,-0.019l0.016,-0.019l0.014,-0.019l0.014,-0.019l0.014,-0.021l0.014,-0.02l0.012,-0.02l0.013,-0.021l0.012,-0.021l0.011,-0.021l0.01,-0.021l0.01,-0.022l0.01,-0.022l0.009,-0.023l0.009,-0.022l0.008,-0.023l0.007,-0.023l0.007,-0.023l0.006,-0.023l0.006,-0.024l0.005,-0.024l0.005,-0.025l0.004,-0.024l0.004,-0.025l0.003,-0.025l0.002,-0.026l0.002,-0.026l0,-0.026l0.001,-0.039l0,-10l0,-0.029l-0.001,-0.02l-0.001,-0.018l-0.001,-0.018l-0.001,-0.018l-0.002,-0.018l-0.003,-0.019l-0.002,-0.018l-0.003,-0.018l-0.003,-0.018l-0.004,-0.018l-0.003,-0.017l-0.005,-0.019l-0.004,-0.018l-0.005,-0.016l-0.005,-0.018l-0.005,-0.017l-0.006,-0.017l-0.006,-0.017l-0.006,-0.017l-0.007,-0.016l-0.007,-0.018l-0.007,-0.017l-0.008,-0.016l-0.007,-0.015l-0.009,-0.017l-0.008,-0.016l-0.009,-0.016l-0.008,-0.015l-0.01,-0.015l-0.01,-0.016l-0.01,-0.016l-0.009,-0.014l-0.01,-0.015l-0.011,-0.015l-0.011,-0.014l-0.011,-0.014l-0.012,-0.014l-0.011,-0.014l-0.012,-0.014l-0.012,-0.013l-0.012,-0.013l-0.013,-0.013l-0.013,-0.013l-0.013,-0.012l-0.013,-0.013l-0.014,-0.012l-0.013,-0.011l-0.014,-0.011l-0.014,-0.012l-0.015,-0.011l-0.015,-0.011l-0.014,-0.01l-0.015,-0.01l-0.015,-0.01l-0.016,-0.01l-0.016,-0.01l-0.016,-0.009l-0.016,-0.009l-0.016,-0.009l-0.017,-0.008l-0.016,-0.008l-0.018,-0.008l-0.026,-0.012l-1.535,-0.658l-0.09,-0.037l-0.082,-0.033l-0.082,-0.032l-0.083,-0.03l-0.083,-0.029l-0.083,-0.027l-0.084,-0.026l-0.084,-0.025l-0.084,-0.024l-0.084,-0.022l-0.085,-0.021l-0.084,-0.019l-0.085,-0.018l-0.086,-0.017l-0.085,-0.015l-0.085,-0.015l-0.086,-0.012l-0.086,-0.012l-0.085,-0.01l-0.086,-0.009l-0.086,-0.007l-0.086,-0.006l-0.086,-0.005l-0.086,-0.004l-0.086,-0.002l-0.087,-0.001l-0.086,0.001Z"/><path d="M23.799,-0.059l0.148,0.003l0.147,0.006l0.147,0.009l0.147,0.01l0.147,0.013l0.147,0.015l0.147,0.017l0.147,0.02l0.146,0.022l0.147,0.024l0.146,0.027l0.146,0.028l0.145,0.031l0.145,0.034l0.145,0.035l0.144,0.038l0.144,0.04l0.144,0.043l0.143,0.045l0.142,0.047l0.143,0.049l0.141,0.052l0.141,0.054l0.14,0.056l0.133,0.055l1.567,0.672l0.077,0.034l0.085,0.039l0.084,0.041l0.082,0.042l0.082,0.043l0.08,0.045l0.08,0.046l0.079,0.048l0.078,0.049l0.077,0.05l0.075,0.052l0.075,0.053l0.073,0.054l0.072,0.055l0.072,0.057l0.07,0.058l0.069,0.059l0.067,0.06l0.067,0.061l0.065,0.063l0.065,0.063l0.063,0.066l0.061,0.065l0.06,0.066l0.06,0.068l0.058,0.07l0.056,0.069l0.056,0.071l0.054,0.072l0.053,0.073l0.051,0.073l0.05,0.074l0.049,0.076l0.047,0.076l0.047,0.078l0.044,0.078l0.043,0.078l0.043,0.081l0.04,0.079l0.039,0.081l0.038,0.083l0.036,0.082l0.034,0.084l0.033,0.083l0.032,0.085l0.03,0.085l0.029,0.086l0.027,0.087l0.026,0.087l0.024,0.088l0.022,0.088l0.021,0.089l0.019,0.09l0.018,0.089l0.016,0.091l0.014,0.09l0.013,0.092l0.011,0.092l0.01,0.091l0.007,0.092l0.006,0.092l0.005,0.094l0.002,0.093l0.001,0.084l0,10.043l-0.001,0.116l-0.005,0.128l-0.008,0.126l-0.012,0.127l-0.014,0.125l-0.017,0.125l-0.021,0.124l-0.023,0.123l-0.027,0.121l-0.029,0.121l-0.033,0.12l-0.035,0.118l-0.038,0.117l-0.041,0.116l-0.043,0.115l-0.047,0.113l-0.049,0.112l-0.051,0.11l-0.054,0.108l-0.056,0.108l-0.06,0.105l-0.061,0.104l-0.064,0.103l-0.066,0.1l-0.069,0.099l-0.07,0.097l-0.073,0.095l-0.075,0.093l-0.078,0.092l-0.079,0.09l-0.082,0.087l-0.083,0.086l-0.086,0.083l-0.087,0.082l-0.09,0.079l-0.092,0.078l-0.093,0.075l-0.095,0.073l-0.097,0.071l-0.099,0.068l-0.1,0.066l-0.103,0.064l-0.104,0.062l-0.105,0.058l-0.107,0.057l-0.109,0.054l-0.11,0.051l-0.112,0.049l-0.113,0.047l-0.115,0.043l-0.116,0.041l-0.117,0.038l-0.118,0.035l-0.12,0.033l-0.121,0.029l-0.121,0.027l-0.123,0.023l-0.124,0.021l-0.125,0.017l-0.125,0.014l-0.126,0.012l-0.127,0.008l-0.128,0.005l-0.115,0.001l-1.587,0l-0.136,-0.001l-0.142,-0.002l-0.141,-0.005l-0.142,-0.006l-0.141,-0.008l-0.141,-0.01l-0.14,-0.011l-0.141,-0.013l-0.14,-0.015l-0.14,-0.016l-0.139,-0.018l-0.139,-0.02l-0.139,-0.022l-0.138,-0.023l-0.138,-0.025l-0.138,-0.027l-0.137,-0.028l-0.137,-0.03l-0.136,-0.032l-0.136,-0.033l-0.135,-0.035l-0.135,-0.036l-0.134,-0.038l-0.134,-0.04l-0.133,-0.042l-0.133,-0.043l-0.132,-0.044l-0.132,-0.046l-0.131,-0.048l-0.13,-0.05l-0.13,-0.051l-0.129,-0.052l-0.128,-0.054l-0.128,-0.056l-0.127,-0.057l-0.127,-0.059l-0.125,-0.06l-0.125,-0.062l-0.125,-0.064l-0.123,-0.065l-0.123,-0.066l-0.122,-0.068l-0.121,-0.07l-0.121,-0.071l-0.119,-0.072l-0.118,-0.074l-0.118,-0.076l-0.118,-0.077l-0.116,-0.078l-0.115,-0.08l-0.114,-0.081l-0.113,-0.083l-0.113,-0.085l-0.111,-0.085l-0.111,-0.087l-0.109,-0.089l-0.109,-0.09l-0.107,-0.092l-0.106,-0.092l-0.106,-0.094l-0.104,-0.096l-0.104,-0.097l-0.102,-0.098l-0.101,-0.1l-0.099,-0.101l-0.099,-0.103l-0.097,-0.103l-0.095,-0.104l-0.095,-0.105l-0.093,-0.107l-0.091,-0.107l-0.09,-0.109l-0.089,-0.109l-0.087,-0.111l-0.085,-0.111l-0.085,-0.113l-0.083,-0.113l-0.081,-0.114l-0.08,-0.115l-0.078,-0.116l-0.077,-0.118l-0.076,-0.117l-0.074,-0.119l-0.072,-0.12l-0.071,-0.12l-0.07,-0.121l-0.068,-0.122l-0.066,-0.123l-0.065,-0.124l-0.064,-0.124l-0.062,-0.125l-0.06,-0.125l-0.059,-0.126l-0.057,-0.128l-0.056,-0.128l-0.054,-0.128l-0.052,-0.129l-0.051,-0.13l-0.05,-0.131l-0.047,-0.13l-0.047,-0.132l-0.044,-0.132l-0.043,-0.133l-0.042,-0.133l-0.04,-0.134l-0.038,-0.134l-0.036,-0.135l-0.035,-0.135l-0.033,-0.136l-0.032,-0.137l-0.03,-0.136l-0.028,-0.137l-0.027,-0.138l-0.025,-0.138l-0.023,-0.138l-0.022,-0.139l-0.02,-0.139l-0.018,-0.14l-0.016,-0.139l-0.015,-0.14l-0.013,-0.14l-0.012,-0.141l-0.009,-0.141l-0.008,-0.141l-0.006,-0.142l-0.005,-0.141l-0.002,-0.142l-0.001,-0.136l0,-0.017l0.001,-0.144l0.004,-0.151l0.006,-0.15l0.008,-0.151l0.01,-0.15l0.013,-0.149l0.016,-0.149l0.017,-0.149l0.02,-0.148l0.022,-0.148l0.024,-0.147l0.027,-0.146l0.029,-0.147l0.031,-0.145l0.033,-0.144l0.035,-0.144l0.038,-0.143l0.04,-0.143l0.041,-0.142l0.044,-0.141l0.047,-0.14l0.048,-0.14l0.05,-0.138l0.053,-0.138l0.055,-0.137l0.056,-0.136l0.059,-0.135l0.06,-0.134l0.063,-0.133l0.065,-0.132l0.067,-0.131l0.068,-0.13l0.071,-0.13l0.073,-0.127l0.074,-0.127l0.077,-0.126l0.079,-0.125l0.08,-0.123l0.082,-0.122l0.085,-0.121l0.086,-0.119l0.088,-0.119l0.09,-0.117l0.091,-0.116l0.094,-0.114l0.095,-0.113l0.097,-0.112l0.099,-0.11l0.101,-0.109l0.102,-0.107l0.104,-0.106l0.107,-0.104l0.107,-0.103l0.11,-0.101l0.111,-0.1l0.113,-0.098l0.114,-0.097l0.116,-0.094l0.118,-0.094l0.119,-0.091l0.121,-0.09l0.123,-0.088l0.124,-0.086l0.126,-0.084l0.127,-0.083l0.128,-0.08l0.129,-0.078l0.13,-0.076l0.131,-0.073l0.132,-0.072l0.133,-0.069l0.134,-0.068l0.135,-0.065l0.135,-0.062l0.136,-0.061l0.137,-0.059l0.138,-0.056l0.138,-0.054l0.139,-0.052l0.14,-0.05l0.14,-0.047l0.141,-0.045l0.142,-0.043l0.142,-0.041l0.142,-0.039l0.143,-0.036l0.144,-0.035l0.143,-0.032l0.145,-0.03l0.144,-0.027l0.146,-0.025l0.145,-0.024l0.146,-0.021l0.145,-0.018l0.147,-0.017l0.146,-0.014l0.147,-0.012l0.147,-0.009l0.146,-0.008l0.148,-0.005l0.147,-0.003l0.147,-0.001l0.147,0.002Zm-0.244,3.999l-0.086,0.001l-0.086,0.003l-0.086,0.005l-0.086,0.005l-0.085,0.007l-0.086,0.009l-0.085,0.009l-0.086,0.011l-0.085,0.013l-0.085,0.013l-0.085,0.015l-0.084,0.016l-0.085,0.017l-0.084,0.019l-0.083,0.02l-0.084,0.021l-0.083,0.023l-0.083,0.024l-0.083,0.025l-0.082,0.027l-0.082,0.027l-0.082,0.029l-0.081,0.031l-0.081,0.031l-0.08,0.033l-0.08,0.034l-0.08,0.036l-0.079,0.036l-0.079,0.038l-0.078,0.04l-0.077,0.04l-0.077,0.042l-0.077,0.043l-0.076,0.045l-0.076,0.045l-0.075,0.047l-0.074,0.048l-0.074,0.05l-0.072,0.05l-0.072,0.052l-0.071,0.052l-0.07,0.053l-0.068,0.055l-0.068,0.055l-0.067,0.057l-0.066,0.057l-0.065,0.058l-0.064,0.059l-0.063,0.06l-0.061,0.061l-0.062,0.062l-0.059,0.063l-0.059,0.063l-0.058,0.065l-0.057,0.065l-0.055,0.066l-0.055,0.067l-0.054,0.068l-0.052,0.068l-0.052,0.069l-0.05,0.07l-0.049,0.071l-0.048,0.071l-0.047,0.073l-0.046,0.072l-0.045,0.073l-0.044,0.075l-0.042,0.075l-0.042,0.075l-0.04,0.076l-0.039,0.077l-0.038,0.077l-0.036,0.077l-0.036,0.079l-0.034,0.079l-0.033,0.08l-0.032,0.08l-0.031,0.08l-0.029,0.081l-0.029,0.082l-0.026,0.081l-0.026,0.083l-0.025,0.083l-0.023,0.083l-0.022,0.084l-0.02,0.084l-0.02,0.084l-0.018,0.086l-0.017,0.084l-0.015,0.086l-0.015,0.086l-0.012,0.086l-0.012,0.087l-0.01,0.087l-0.009,0.087l-0.008,0.088l-0.006,0.087l-0.005,0.088l-0.003,0.088l-0.002,0.089l-0.001,0.091l0.001,0.092l0.001,0.093l0.003,0.092l0.004,0.092l0.005,0.092l0.007,0.091l0.007,0.091l0.008,0.092l0.01,0.091l0.011,0.091l0.012,0.09l0.012,0.09l0.015,0.091l0.015,0.09l0.016,0.089l0.017,0.089l0.019,0.09l0.019,0.089l0.02,0.088l0.022,0.088l0.023,0.089l0.024,0.087l0.024,0.088l0.026,0.087l0.027,0.086l0.028,0.086l0.029,0.086l0.03,0.086l0.031,0.085l0.033,0.085l0.032,0.084l0.035,0.084l0.035,0.084l0.036,0.083l0.037,0.082l0.039,0.083l0.039,0.081l0.04,0.082l0.042,0.081l0.042,0.08l0.043,0.079l0.044,0.08l0.045,0.078l0.046,0.079l0.048,0.078l0.048,0.077l0.049,0.076l0.05,0.076l0.051,0.076l0.052,0.074l0.053,0.075l0.053,0.074l0.055,0.072l0.056,0.073l0.057,0.072l0.057,0.071l0.058,0.07l0.06,0.07l0.06,0.07l0.062,0.068l0.062,0.068l0.063,0.067l0.064,0.066l0.065,0.066l0.065,0.065l0.067,0.064l0.067,0.063l0.068,0.062l0.068,0.062l0.07,0.06l0.07,0.06l0.07,0.058l0.071,0.057l0.072,0.057l0.073,0.056l0.072,0.055l0.074,0.053l0.074,0.053l0.075,0.052l0.076,0.051l0.076,0.05l0.076,0.049l0.078,0.049l0.077,0.047l0.078,0.046l0.079,0.045l0.079,0.044l0.08,0.043l0.081,0.043l0.08,0.041l0.082,0.04l0.082,0.039l0.082,0.039l0.082,0.037l0.083,0.036l0.084,0.035l0.084,0.034l0.084,0.034l0.085,0.032l0.085,0.031l0.086,0.03l0.086,0.029l0.086,0.028l0.087,0.027l0.086,0.026l0.088,0.024l0.088,0.024l0.087,0.023l0.089,0.021l0.088,0.021l0.089,0.019l0.089,0.019l0.09,0.017l0.089,0.016l0.09,0.015l0.09,0.015l0.091,0.012l0.091,0.012l0.09,0.011l0.091,0.01l0.092,0.008l0.091,0.007l0.092,0.007l0.091,0.005l0.092,0.004l0.092,0.003l0.093,0.001l0.098,0.001l1.549,0l0.04,0l0.026,-0.001l0.026,-0.002l0.026,-0.002l0.025,-0.003l0.025,-0.004l0.024,-0.004l0.025,-0.005l0.024,-0.005l0.023,-0.006l0.024,-0.006l0.023,-0.007l0.023,-0.007l0.023,-0.008l0.023,-0.009l0.022,-0.009l0.022,-0.009l0.021,-0.011l0.022,-0.01l0.021,-0.012l0.021,-0.012l0.021,-0.012l0.02,-0.012l0.021,-0.014l0.02,-0.013l0.019,-0.015l0.019,-0.014l0.019,-0.016l0.019,-0.015l0.018,-0.016l0.018,-0.017l0.017,-0.017l0.017,-0.017l0.017,-0.018l0.016,-0.018l0.015,-0.019l0.015,-0.019l0.015,-0.019l0.015,-0.02l0.013,-0.019l0.014,-0.021l0.012,-0.02l0.013,-0.021l0.011,-0.021l0.011,-0.021l0.011,-0.021l0.01,-0.022l0.01,-0.023l0.009,-0.022l0.009,-0.022l0.008,-0.023l0.007,-0.022l0.007,-0.025l0.007,-0.023l0.005,-0.023l0.005,-0.024l0.005,-0.025l0.004,-0.024l0.004,-0.025l0.003,-0.025l0.002,-0.026l0.002,-0.026l0.001,-0.026l0,-0.039l0,-10l0,-0.029l-0.001,-0.019l-0.001,-0.018l-0.001,-0.019l-0.001,-0.018l-0.002,-0.019l-0.003,-0.018l-0.002,-0.018l-0.003,-0.018l-0.003,-0.018l-0.004,-0.018l-0.004,-0.018l-0.004,-0.018l-0.004,-0.018l-0.005,-0.016l-0.005,-0.018l-0.005,-0.017l-0.006,-0.017l-0.006,-0.017l-0.006,-0.017l-0.007,-0.017l-0.007,-0.017l-0.007,-0.017l-0.007,-0.015l-0.008,-0.016l-0.009,-0.017l-0.008,-0.016l-0.009,-0.016l-0.009,-0.016l-0.009,-0.014l-0.01,-0.016l-0.009,-0.015l-0.01,-0.015l-0.011,-0.015l-0.01,-0.015l-0.011,-0.014l-0.011,-0.014l-0.012,-0.014l-0.011,-0.014l-0.012,-0.013l-0.012,-0.014l-0.013,-0.013l-0.012,-0.013l-0.013,-0.013l-0.013,-0.012l-0.013,-0.012l-0.014,-0.012l-0.014,-0.012l-0.013,-0.012l-0.014,-0.011l-0.015,-0.011l-0.014,-0.011l-0.015,-0.01l-0.016,-0.011l-0.015,-0.01l-0.015,-0.009l-0.016,-0.01l-0.016,-0.009l-0.016,-0.009l-0.016,-0.009l-0.017,-0.008l-0.017,-0.008l-0.016,-0.008l-0.026,-0.012l-1.537,-0.658l-0.089,-0.037l-0.082,-0.033l-0.082,-0.032l-0.083,-0.03l-0.083,-0.029l-0.083,-0.027l-0.084,-0.026l-0.084,-0.025l-0.084,-0.024l-0.084,-0.022l-0.085,-0.021l-0.084,-0.019l-0.085,-0.018l-0.086,-0.017l-0.085,-0.015l-0.085,-0.015l-0.086,-0.012l-0.086,-0.012l-0.085,-0.01l-0.086,-0.009l-0.086,-0.007l-0.086,-0.006l-0.086,-0.005l-0.086,-0.004l-0.086,-0.002l-0.087,-0.001l-0.086,0.001Z"/></g><g id="emoji"><path d="M16,19c0,-0.006 0,-2.276 0,-4.022c0,-1.2 -0.715,-2.285 -1.818,-2.757c-0.458,-0.196 -0.983,-0.421 -1.552,-0.665c-2.356,-1.01 -5.062,-0.769 -7.202,0.643c-2.14,1.411 -3.428,3.803 -3.428,6.366c0,0.001 0,0.002 0,0.003c0,2.502 0.994,4.901 2.763,6.669c1.768,1.769 4.167,2.763 6.669,2.763c0.551,0 1.079,0 1.568,0c1.657,0 3,-1.343 3,-3c0,-2.615 0,-5.993 0,-6Z" style="fill:#fbc546;"/><clipPath id="_clip2"><path d="M16,19c0,-0.006 0,-2.276 0,-4.022c0,-1.2 -0.715,-2.285 -1.818,-2.757c-0.458,-0.196 -0.983,-0.421 -1.552,-0.665c-2.356,-1.01 -5.062,-0.769 -7.202,0.643c-2.14,1.411 -3.428,3.803 -3.428,6.366c0,0.001 0,0.002 0,0.003c0,2.502 0.994,4.901 2.763,6.669c1.768,1.769 4.167,2.763 6.669,2.763c0.551,0 1.079,0 1.568,0c1.657,0 3,-1.343 3,-3c0,-2.615 0,-5.993 0,-6Z"/></clipPath><g clip-path="url(#_clip2)"><path d="M11,26c0,0 -1.983,-1.416 -3.838,-2.741c-0.609,-0.436 -1.411,-0.494 -2.077,-0.151c-0.666,0.343 -1.085,1.029 -1.085,1.778c0,2.809 0,6.399 0,8.114c0,0.552 0.448,1 1,1c0.871,0 2.129,0 3,0c0.552,0 1,-0.448 1,-1c0,-1.185 0,-3 0,-3l6,0c0,0 -1.525,-2.034 -2.401,-3.201c-0.377,-0.503 -0.969,-0.799 -1.598,-0.799c-0.001,0 -0.001,0 -0.001,0Z" style="fill:#e59a10;"/><path d="M6.155,20.889l0.135,0.008l0.134,0.012l0.135,0.016l0.133,0.021l0.133,0.026l0.133,0.03l0.131,0.035l0.13,0.039l0.13,0.044l0.128,0.049l0.126,0.052l0.125,0.058l0.123,0.061l0.122,0.066l0.12,0.071l0.117,0.075l0.101,0.069l3.426,2.447l0.076,0.015l0.113,0.025l0.111,0.028l0.111,0.032l0.11,0.035l0.109,0.037l0.108,0.041l0.106,0.044l0.105,0.047l0.103,0.05l0.102,0.053l0.1,0.055l0.099,0.059l0.098,0.062l0.095,0.064l0.094,0.067l0.091,0.07l0.09,0.072l0.088,0.076l0.086,0.078l0.084,0.08l0.081,0.083l0.079,0.086l0.077,0.088l0.075,0.091l0.063,0.082l4.492,5.99l-0.211,0.422l-7.472,0l0,1.026l-0.003,0.127l-0.012,0.151l-0.019,0.15l-0.026,0.149l-0.034,0.146l-0.04,0.142l-0.048,0.14l-0.054,0.138l-0.06,0.133l-0.067,0.129l-0.072,0.126l-0.078,0.122l-0.083,0.117l-0.089,0.113l-0.095,0.109l-0.099,0.104l-0.103,0.099l-0.108,0.094l-0.113,0.088l-0.118,0.084l-0.122,0.078l-0.126,0.072l-0.129,0.067l-0.134,0.06l-0.137,0.054l-0.14,0.047l-0.143,0.041l-0.146,0.034l-0.148,0.026l-0.15,0.019l-0.151,0.012l-0.128,0.003l-3.05,0l-0.128,-0.003l-0.151,-0.012l-0.15,-0.019l-0.148,-0.026l-0.146,-0.034l-0.143,-0.041l-0.14,-0.047l-0.137,-0.054l-0.134,-0.06l-0.129,-0.067l-0.126,-0.072l-0.122,-0.078l-0.118,-0.084l-0.113,-0.088l-0.108,-0.094l-0.103,-0.099l-0.099,-0.104l-0.095,-0.109l-0.089,-0.113l-0.083,-0.117l-0.078,-0.122l-0.072,-0.126l-0.067,-0.129l-0.06,-0.134l-0.054,-0.137l-0.047,-0.139l-0.041,-0.143l-0.034,-0.146l-0.026,-0.149l-0.019,-0.15l-0.012,-0.151l-0.003,-0.127l0,-8.157l0.002,-0.122l0.007,-0.139l0.013,-0.139l0.016,-0.137l0.022,-0.136l0.026,-0.135l0.03,-0.134l0.035,-0.132l0.04,-0.131l0.044,-0.129l0.048,-0.127l0.052,-0.125l0.057,-0.123l0.06,-0.121l0.065,-0.119l0.068,-0.117l0.072,-0.114l0.077,-0.112l0.08,-0.109l0.083,-0.107l0.088,-0.103l0.091,-0.101l0.094,-0.098l0.098,-0.095l0.102,-0.092l0.105,-0.088l0.108,-0.085l0.111,-0.082l0.115,-0.077l0.117,-0.074l0.12,-0.07l0.124,-0.067l0.125,-0.061l0.127,-0.057l0.128,-0.053l0.13,-0.048l0.131,-0.043l0.132,-0.039l0.133,-0.034l0.134,-0.029l0.134,-0.025l0.134,-0.02l0.135,-0.015l0.136,-0.011l0.135,-0.006l0.135,-0.002l0.136,0.003Zm-0.213,1.998l-0.068,0.003l-0.067,0.006l-0.068,0.007l-0.067,0.01l-0.067,0.013l-0.067,0.014l-0.066,0.017l-0.066,0.02l-0.066,0.021l-0.065,0.024l-0.064,0.026l-0.063,0.029l-0.063,0.031l-0.062,0.033l-0.06,0.035l-0.059,0.037l-0.057,0.039l-0.056,0.041l-0.054,0.042l-0.052,0.044l-0.051,0.046l-0.049,0.048l-0.047,0.049l-0.045,0.05l-0.044,0.052l-0.042,0.053l-0.04,0.055l-0.038,0.056l-0.036,0.057l-0.035,0.058l-0.032,0.06l-0.03,0.06l-0.028,0.062l-0.027,0.062l-0.024,0.064l-0.021,0.064l-0.02,0.066l-0.018,0.066l-0.015,0.066l-0.013,0.068l-0.011,0.068l-0.008,0.069l-0.006,0.069l-0.004,0.069l-0.001,0.07l0,8.114l0.001,0.051l0.004,0.051l0.007,0.05l0.008,0.05l0.011,0.048l0.014,0.047l0.016,0.047l0.018,0.045l0.02,0.045l0.022,0.043l0.024,0.042l0.026,0.04l0.028,0.039l0.029,0.038l0.032,0.036l0.033,0.035l0.035,0.033l0.036,0.032l0.038,0.029l0.039,0.028l0.04,0.026l0.042,0.024l0.043,0.022l0.045,0.02l0.045,0.018l0.047,0.016l0.047,0.014l0.048,0.011l0.05,0.008l0.05,0.007l0.051,0.004l0.051,0.001l3,0l0.051,-0.001l0.051,-0.004l0.05,-0.007l0.05,-0.008l0.048,-0.011l0.047,-0.014l0.047,-0.016l0.045,-0.018l0.045,-0.02l0.043,-0.022l0.042,-0.024l0.04,-0.026l0.039,-0.028l0.038,-0.029l0.036,-0.032l0.035,-0.033l0.033,-0.035l0.032,-0.036l0.029,-0.038l0.028,-0.039l0.026,-0.04l0.024,-0.042l0.022,-0.043l0.02,-0.045l0.018,-0.045l0.016,-0.047l0.014,-0.047l0.011,-0.048l0.008,-0.05l0.007,-0.05l0.004,-0.051l0.001,-0.051l0,-3l6,0l-2.401,-3.201l-0.036,-0.046l-0.037,-0.046l-0.038,-0.044l-0.04,-0.043l-0.041,-0.041l-0.041,-0.04l-0.043,-0.039l-0.044,-0.038l-0.045,-0.036l-0.046,-0.035l-0.047,-0.034l-0.047,-0.032l-0.049,-0.03l-0.049,-0.03l-0.05,-0.028l-0.051,-0.026l-0.052,-0.025l-0.053,-0.023l-0.053,-0.022l-0.053,-0.021l-0.055,-0.019l-0.055,-0.017l-0.055,-0.016l-0.056,-0.014l-0.056,-0.012l-0.057,-0.011l-0.058,-0.01l-0.057,-0.007l-0.058,-0.006l-0.059,-0.005l-0.058,-0.002l-0.059,-0.001l-0.001,0l-3.838,-2.741l-0.057,-0.04l-0.059,-0.037l-0.06,-0.036l-0.061,-0.033l-0.061,-0.03l-0.063,-0.029l-0.063,-0.026l-0.064,-0.025l-0.064,-0.021l-0.065,-0.02l-0.066,-0.017l-0.066,-0.016l-0.067,-0.012l-0.067,-0.011l-0.067,-0.008l-0.067,-0.006l-0.068,-0.004l-0.067,-0.002l-0.068,0.001Z" style="fill:#e59a10;"/></g><path d="M30,10l0,-4.022c0,-1.2 -0.715,-2.285 -1.818,-2.757c-0.458,-0.196 -0.983,-0.421 -1.552,-0.665c-2.356,-1.01 -5.062,-0.769 -7.202,0.643c-2.14,1.411 -3.428,3.803 -3.428,6.366c0,0.001 0,0.002 0,0.003c0,2.502 0.994,4.901 2.763,6.669c1.768,1.769 4.167,2.763 6.669,2.763c0.551,0 1.079,0 1.568,0c1.657,0 3,-1.343 3,-3c0,-2.615 0,-5.993 0,-6Z" style="fill:#fbc546;"/><clipPath id="_clip3"><path d="M30,10l0,-4.022c0,-1.2 -0.715,-2.285 -1.818,-2.757c-0.458,-0.196 -0.983,-0.421 -1.552,-0.665c-2.356,-1.01 -5.062,-0.769 -7.202,0.643c-2.14,1.411 -3.428,3.803 -3.428,6.366c0,0.001 0,0.002 0,0.003c0,2.502 0.994,4.901 2.763,6.669c1.768,1.769 4.167,2.763 6.669,2.763c0.551,0 1.079,0 1.568,0c1.657,0 3,-1.343 3,-3c0,-2.615 0,-5.993 0,-6Z"/></clipPath><g clip-path="url(#_clip3)"><path d="M25,17c0,0 -1.983,-1.416 -3.838,-2.741c-0.609,-0.436 -1.411,-0.494 -2.077,-0.151c-0.666,0.343 -1.085,1.029 -1.085,1.778c0,2.809 0,6.399 0,8.114c0,0.552 0.448,1 1,1c0.871,0 2.129,0 3,0c0.552,0 1,-0.448 1,-1c0,-1.185 0,-3 0,-3l6,0c0,0 -1.525,-2.034 -2.401,-3.201c-0.377,-0.503 -0.969,-0.799 -1.598,-0.799c-0.001,0 -0.001,0 -0.001,0Z" style="fill:#e59a10;"/><path d="M20.155,11.889l0.135,0.008l0.134,0.012l0.135,0.016l0.133,0.021l0.133,0.026l0.133,0.03l0.131,0.035l0.13,0.039l0.13,0.044l0.128,0.049l0.126,0.052l0.125,0.058l0.124,0.061l0.121,0.066l0.119,0.071l0.118,0.075l0.101,0.069l3.426,2.447l0.076,0.015l0.113,0.025l0.112,0.028l0.111,0.032l0.109,0.035l0.109,0.037l0.107,0.041l0.107,0.044l0.105,0.047l0.103,0.05l0.102,0.053l0.1,0.055l0.099,0.059l0.098,0.062l0.095,0.064l0.093,0.067l0.092,0.07l0.09,0.072l0.088,0.076l0.086,0.078l0.084,0.08l0.081,0.084l0.079,0.085l0.077,0.088l0.075,0.091l0.062,0.081l4.493,5.991l-0.211,0.422l-7.472,0l0,1.025l-0.003,0.127l-0.012,0.152l-0.019,0.151l-0.026,0.148l-0.034,0.145l-0.041,0.144l-0.047,0.139l-0.054,0.137l-0.06,0.134l-0.067,0.129l-0.072,0.126l-0.078,0.122l-0.084,0.118l-0.088,0.113l-0.094,0.108l-0.099,0.104l-0.104,0.099l-0.109,0.094l-0.112,0.088l-0.118,0.084l-0.122,0.078l-0.125,0.072l-0.13,0.067l-0.134,0.06l-0.137,0.054l-0.14,0.047l-0.143,0.041l-0.146,0.034l-0.148,0.026l-0.15,0.019l-0.151,0.012l-0.128,0.003l-3.05,0l-0.128,-0.003l-0.151,-0.012l-0.15,-0.019l-0.148,-0.026l-0.146,-0.034l-0.143,-0.041l-0.141,-0.047l-0.136,-0.054l-0.134,-0.06l-0.13,-0.067l-0.125,-0.072l-0.122,-0.078l-0.117,-0.083l-0.114,-0.089l-0.108,-0.095l-0.103,-0.098l-0.099,-0.104l-0.095,-0.108l-0.089,-0.114l-0.083,-0.117l-0.078,-0.121l-0.072,-0.126l-0.067,-0.13l-0.06,-0.134l-0.054,-0.137l-0.048,-0.14l-0.04,-0.142l-0.034,-0.146l-0.026,-0.149l-0.019,-0.15l-0.012,-0.151l-0.003,-0.127l0,-8.157l0.002,-0.122l0.007,-0.14l0.012,-0.138l0.017,-0.137l0.022,-0.137l0.026,-0.134l0.03,-0.134l0.035,-0.132l0.04,-0.131l0.044,-0.129l0.048,-0.127l0.052,-0.125l0.057,-0.123l0.06,-0.121l0.064,-0.119l0.069,-0.117l0.072,-0.114l0.077,-0.112l0.08,-0.109l0.083,-0.107l0.088,-0.103l0.091,-0.101l0.094,-0.098l0.098,-0.095l0.102,-0.092l0.105,-0.088l0.108,-0.085l0.111,-0.081l0.114,-0.078l0.118,-0.074l0.12,-0.07l0.123,-0.067l0.126,-0.061l0.127,-0.058l0.128,-0.052l0.13,-0.048l0.131,-0.043l0.132,-0.039l0.133,-0.034l0.134,-0.029l0.134,-0.025l0.134,-0.02l0.135,-0.015l0.136,-0.011l0.135,-0.006l0.135,-0.002l0.136,0.003Zm-0.213,1.998l-0.068,0.003l-0.067,0.006l-0.068,0.007l-0.067,0.01l-0.067,0.013l-0.067,0.014l-0.066,0.017l-0.066,0.02l-0.066,0.021l-0.065,0.024l-0.064,0.026l-0.063,0.029l-0.063,0.031l-0.062,0.033l-0.06,0.035l-0.059,0.037l-0.057,0.039l-0.056,0.041l-0.054,0.042l-0.052,0.044l-0.051,0.046l-0.049,0.048l-0.047,0.049l-0.045,0.05l-0.044,0.052l-0.042,0.053l-0.04,0.055l-0.038,0.056l-0.036,0.057l-0.035,0.058l-0.032,0.06l-0.03,0.06l-0.028,0.062l-0.027,0.062l-0.024,0.064l-0.021,0.064l-0.02,0.066l-0.018,0.066l-0.015,0.066l-0.013,0.068l-0.011,0.068l-0.008,0.069l-0.006,0.069l-0.004,0.069l-0.001,0.07l0,8.114l0.001,0.051l0.004,0.051l0.007,0.05l0.008,0.05l0.011,0.048l0.014,0.047l0.016,0.047l0.018,0.045l0.02,0.045l0.022,0.043l0.024,0.042l0.026,0.04l0.028,0.039l0.029,0.038l0.032,0.036l0.033,0.035l0.035,0.033l0.036,0.032l0.038,0.029l0.039,0.028l0.04,0.026l0.042,0.024l0.043,0.022l0.045,0.02l0.045,0.018l0.047,0.016l0.047,0.014l0.048,0.011l0.05,0.008l0.05,0.007l0.051,0.004l0.051,0.001l3,0l0.051,-0.001l0.051,-0.004l0.05,-0.007l0.05,-0.008l0.048,-0.011l0.047,-0.014l0.047,-0.016l0.045,-0.018l0.045,-0.02l0.043,-0.022l0.042,-0.024l0.04,-0.026l0.039,-0.028l0.038,-0.029l0.036,-0.032l0.035,-0.033l0.033,-0.035l0.032,-0.036l0.029,-0.038l0.028,-0.039l0.026,-0.04l0.024,-0.042l0.022,-0.043l0.02,-0.045l0.018,-0.045l0.016,-0.047l0.014,-0.047l0.011,-0.048l0.008,-0.05l0.007,-0.05l0.004,-0.051l0.001,-0.051l0,-3l6,0l-2.401,-3.201l-0.036,-0.046l-0.037,-0.046l-0.038,-0.044l-0.04,-0.043l-0.041,-0.041l-0.041,-0.04l-0.043,-0.039l-0.044,-0.038l-0.045,-0.036l-0.046,-0.035l-0.047,-0.034l-0.047,-0.032l-0.049,-0.03l-0.049,-0.03l-0.05,-0.028l-0.051,-0.026l-0.052,-0.025l-0.053,-0.023l-0.053,-0.022l-0.053,-0.021l-0.055,-0.019l-0.055,-0.017l-0.055,-0.016l-0.056,-0.014l-0.056,-0.012l-0.057,-0.011l-0.058,-0.01l-0.057,-0.007l-0.058,-0.006l-0.059,-0.005l-0.058,-0.002l-0.059,-0.001l-0.001,0l-3.838,-2.741l-0.057,-0.04l-0.059,-0.037l-0.06,-0.036l-0.061,-0.033l-0.061,-0.03l-0.063,-0.029l-0.063,-0.026l-0.064,-0.025l-0.064,-0.021l-0.065,-0.02l-0.066,-0.017l-0.066,-0.016l-0.067,-0.012l-0.067,-0.011l-0.067,-0.008l-0.067,-0.006l-0.068,-0.004l-0.067,-0.002l-0.068,0.001Z" style="fill:#e59a10;"/></g><path d="M6,15c0,-0.552 -0.448,-1 -1,-1c-0.552,0 -1,0.448 -1,1c0,0.611 0,1.389 0,2c0,0.552 0.448,1 1,1c0.552,0 1,-0.448 1,-1c0,-0.611 0,-1.389 0,-2Z"/><path d="M20,6c0,-0.552 -0.448,-1 -1,-1c-0.552,0 -1,0.448 -1,1c0,0.611 0,1.389 0,2c0,0.552 0.448,1 1,1c0.552,0 1,-0.448 1,-1c0,-0.611 0,-1.389 0,-2Z"/><path d="M13,15l-2,0c0,0 0,1.127 0,2c0,0.552 0.448,1 1,1c0.552,0 1,-0.448 1,-1c0,-0.873 0,-2 0,-2Z"/><path d="M27,6l-2,0c0,0 0,1.127 0,2c0,0.552 0.448,1 1,1c0.552,0 1,-0.448 1,-1c0,-0.873 0,-2 0,-2Z"/><path d="M13,16l0,-2c0,0 -1.815,0 -3,0c-0.552,0 -1,0.448 -1,1c0,0.552 0.448,1 1,1c1.185,0 3,0 3,0Z"/><path d="M27,7l0,-2c0,0 -1.815,0 -3,0c-0.552,0 -1,0.448 -1,1c0,0.552 0.448,1 1,1c1.185,0 3,0 3,0Z"/><path d="M9.695,19.001l0.11,0.004l0.109,0.007l0.108,0.01l0.108,0.012l0.108,0.014l0.107,0.018l0.106,0.02l0.106,0.022l0.105,0.025l0.104,0.028l0.104,0.03l0.102,0.032l0.102,0.035l0.101,0.038l0.1,0.04l0.099,0.042l0.098,0.045l0.097,0.047l0.095,0.05l0.095,0.052l0.093,0.054l0.092,0.057l0.091,0.059l0.089,0.061l0.088,0.063l0.086,0.066l0.085,0.068l0.084,0.07l0.082,0.072l0.08,0.074l0.062,0.061l-0.007,-0.007l0.032,0.031l0.03,0.033l0.028,0.033l0.028,0.035l0.025,0.036l0.024,0.037l0.023,0.039l0.02,0.039l0.019,0.04l0.017,0.041l0.016,0.041l0.013,0.042l0.012,0.043l0.009,0.043l0.008,0.044l0.006,0.044l0.004,0.044l0.002,0.044l0,0.044l-0.002,0.044l-0.004,0.044l-0.006,0.044l-0.008,0.044l-0.01,0.043l-0.011,0.043l-0.014,0.042l-0.015,0.041l-0.017,0.041l-0.019,0.04l-0.021,0.039l-0.023,0.038l-0.024,0.037l-0.025,0.036l-0.028,0.035l-0.029,0.034l-0.03,0.032l-0.031,0.031l-0.033,0.029l-0.035,0.028l-0.035,0.027l-0.037,0.025l-0.037,0.023l-0.039,0.021l-0.04,0.02l-0.04,0.018l-0.041,0.016l-0.042,0.015l-0.043,0.012l-0.042,0.011l-0.044,0.009l-0.044,0.006l-0.044,0.005l-0.044,0.003l-0.044,0.001l-0.044,-0.001l-0.044,-0.003l-0.044,-0.005l-0.044,-0.007l-0.043,-0.009l-0.043,-0.01l-0.043,-0.013l-0.042,-0.014l-0.041,-0.017l-0.04,-0.018l-0.04,-0.02l-0.038,-0.021l-0.038,-0.023l-0.036,-0.025l-0.036,-0.027l-0.034,-0.028l-0.033,-0.029l-0.007,-0.007l-0.059,-0.058l-0.044,-0.04l-0.045,-0.04l-0.045,-0.038l-0.047,-0.037l-0.047,-0.036l-0.048,-0.035l-0.049,-0.033l-0.049,-0.033l-0.051,-0.031l-0.051,-0.029l-0.051,-0.029l-0.053,-0.027l-0.053,-0.025l-0.053,-0.025l-0.054,-0.023l-0.055,-0.022l-0.055,-0.021l-0.056,-0.019l-0.056,-0.018l-0.057,-0.016l-0.057,-0.015l-0.057,-0.014l-0.058,-0.012l-0.058,-0.011l-0.059,-0.009l-0.058,-0.009l-0.059,-0.006l-0.06,-0.005l-0.059,-0.004l-0.06,-0.002l-0.066,-0.001l-2.58,0l-0.044,-0.001l-0.044,-0.003l-0.044,-0.005l-0.044,-0.007l-0.043,-0.008l-0.043,-0.011l-0.043,-0.013l-0.042,-0.014l-0.041,-0.016l-0.04,-0.018l-0.04,-0.02l-0.038,-0.022l-0.038,-0.023l-0.037,-0.025l-0.035,-0.026l-0.034,-0.028l-0.033,-0.03l-0.032,-0.031l-0.03,-0.032l-0.029,-0.034l-0.027,-0.035l-0.026,-0.036l-0.024,-0.037l-0.022,-0.038l-0.021,-0.039l-0.019,-0.04l-0.017,-0.041l-0.015,-0.041l-0.014,-0.042l-0.012,-0.043l-0.009,-0.043l-0.008,-0.044l-0.006,-0.044l-0.004,-0.044l-0.002,-0.044l0,-0.044l0.002,-0.044l0.004,-0.044l0.006,-0.044l0.008,-0.044l0.009,-0.043l0.012,-0.043l0.014,-0.042l0.015,-0.041l0.017,-0.041l0.019,-0.04l0.021,-0.039l0.022,-0.038l0.024,-0.037l0.026,-0.036l0.027,-0.035l0.029,-0.034l0.03,-0.032l0.032,-0.031l0.033,-0.03l0.034,-0.028l0.035,-0.026l0.037,-0.025l0.038,-0.023l0.038,-0.022l0.04,-0.02l0.04,-0.018l0.041,-0.016l0.042,-0.014l0.043,-0.013l0.043,-0.011l0.043,-0.008l0.044,-0.007l0.044,-0.005l0.044,-0.003l0.044,-0.001l2.592,0l0.103,0.001Z" style="fill:#593604;"/><path d="M23.695,10.001l0.11,0.004l0.109,0.007l0.108,0.01l0.108,0.012l0.108,0.014l0.107,0.018l0.106,0.02l0.106,0.022l0.105,0.025l0.104,0.028l0.104,0.03l0.102,0.032l0.102,0.035l0.101,0.038l0.1,0.04l0.099,0.042l0.098,0.045l0.097,0.047l0.095,0.05l0.095,0.052l0.093,0.054l0.092,0.057l0.091,0.059l0.089,0.061l0.088,0.063l0.086,0.066l0.085,0.068l0.084,0.07l0.082,0.072l0.08,0.074l0.065,0.064l-0.004,-0.004l0.031,0.031l0.03,0.033l0.029,0.034l0.027,0.035l0.025,0.036l0.024,0.038l0.022,0.038l0.02,0.039l0.019,0.04l0.016,0.041l0.015,0.042l0.013,0.042l0.012,0.043l0.009,0.043l0.007,0.044l0.006,0.044l0.003,0.044l0.002,0.044l0,0.044l-0.003,0.044l-0.004,0.045l-0.006,0.043l-0.009,0.044l-0.01,0.043l-0.012,0.042l-0.014,0.042l-0.015,0.042l-0.018,0.04l-0.019,0.04l-0.021,0.039l-0.023,0.038l-0.024,0.037l-0.026,0.036l-0.028,0.034l-0.029,0.034l-0.031,0.032l-0.031,0.03l-0.034,0.03l-0.034,0.027l-0.036,0.026l-0.037,0.025l-0.038,0.023l-0.038,0.021l-0.04,0.02l-0.041,0.017l-0.041,0.016l-0.042,0.014l-0.043,0.012l-0.043,0.011l-0.043,0.008l-0.044,0.006l-0.044,0.005l-0.044,0.002l-0.044,0.001l-0.044,-0.001l-0.045,-0.004l-0.043,-0.005l-0.044,-0.007l-0.043,-0.009l-0.043,-0.011l-0.043,-0.013l-0.041,-0.015l-0.041,-0.017l-0.04,-0.018l-0.04,-0.02l-0.038,-0.022l-0.038,-0.024l-0.036,-0.025l-0.035,-0.027l-0.034,-0.028l-0.033,-0.03l-0.004,-0.004l-0.056,-0.055l-0.044,-0.04l-0.045,-0.04l-0.045,-0.038l-0.047,-0.037l-0.047,-0.036l-0.048,-0.035l-0.049,-0.033l-0.049,-0.033l-0.051,-0.031l-0.051,-0.029l-0.051,-0.029l-0.053,-0.027l-0.053,-0.025l-0.053,-0.025l-0.054,-0.023l-0.055,-0.022l-0.055,-0.021l-0.056,-0.019l-0.056,-0.018l-0.057,-0.016l-0.057,-0.015l-0.057,-0.014l-0.058,-0.012l-0.058,-0.011l-0.059,-0.009l-0.058,-0.009l-0.059,-0.006l-0.06,-0.005l-0.059,-0.004l-0.06,-0.002l-0.066,-0.001l-2.58,0l-0.044,-0.001l-0.044,-0.003l-0.044,-0.005l-0.044,-0.007l-0.043,-0.008l-0.043,-0.011l-0.043,-0.013l-0.042,-0.014l-0.041,-0.016l-0.04,-0.018l-0.04,-0.02l-0.038,-0.022l-0.038,-0.023l-0.037,-0.025l-0.035,-0.026l-0.034,-0.028l-0.033,-0.03l-0.032,-0.031l-0.03,-0.032l-0.029,-0.034l-0.027,-0.035l-0.026,-0.036l-0.024,-0.037l-0.022,-0.038l-0.021,-0.039l-0.019,-0.04l-0.017,-0.041l-0.015,-0.041l-0.014,-0.042l-0.012,-0.043l-0.009,-0.043l-0.008,-0.044l-0.006,-0.044l-0.004,-0.044l-0.002,-0.044l0,-0.044l0.002,-0.044l0.004,-0.044l0.006,-0.044l0.008,-0.044l0.009,-0.043l0.012,-0.043l0.014,-0.042l0.015,-0.041l0.017,-0.041l0.019,-0.04l0.021,-0.039l0.022,-0.038l0.024,-0.037l0.026,-0.036l0.027,-0.035l0.029,-0.034l0.03,-0.032l0.032,-0.031l0.033,-0.03l0.034,-0.028l0.035,-0.026l0.037,-0.025l0.038,-0.023l0.038,-0.022l0.04,-0.02l0.04,-0.018l0.041,-0.016l0.042,-0.014l0.043,-0.013l0.043,-0.011l0.043,-0.008l0.044,-0.007l0.044,-0.005l0.044,-0.003l0.044,-0.001l2.592,0l0.103,0.001Z" style="fill:#593604;"/></g><path d="M4,23c0,0 -0.432,0.216 -0.894,0.447c-0.678,0.339 -1.106,1.032 -1.106,1.789c0,1.114 0,2.73 0,3.764c0,0.265 0.105,0.52 0.293,0.707c0.187,0.188 0.442,0.293 0.707,0.293c0.611,0 1.389,0 2,0c0.552,0 1,-0.448 1,-1c0,-0.873 0,-2 0,-2c0,0 1.127,0 2,0c0.552,0 1,-0.448 1,-1c0,-0.265 -0.105,-0.52 -0.293,-0.707c-0.187,-0.188 -0.442,-0.293 -0.707,-0.293c-1.459,0 -4,0 -4,0l0,-2Z" style="fill:#fbc546;"/><path d="M6,23l2.025,0l0.124,0.003l0.147,0.011l0.147,0.018l0.145,0.026l0.144,0.032l0.141,0.039l0.139,0.046l0.136,0.053l0.134,0.059l0.131,0.066l0.128,0.072l0.124,0.079l0.12,0.084l0.117,0.091l0.112,0.097l0.108,0.102l0.102,0.108l0.097,0.112l0.091,0.117l0.085,0.121l0.078,0.124l0.072,0.127l0.066,0.131l0.059,0.134l0.053,0.136l0.046,0.139l0.039,0.141l0.033,0.145l0.025,0.144l0.018,0.146l0.011,0.148l0.004,0.15l-0.004,0.152l-0.012,0.152l-0.019,0.15l-0.026,0.147l-0.034,0.146l-0.041,0.143l-0.047,0.14l-0.054,0.137l-0.06,0.134l-0.067,0.129l-0.072,0.126l-0.078,0.122l-0.084,0.118l-0.088,0.112l-0.094,0.109l-0.099,0.104l-0.104,0.099l-0.108,0.093l-0.114,0.09l-0.117,0.083l-0.121,0.078l-0.127,0.072l-0.129,0.067l-0.133,0.06l-0.137,0.054l-0.141,0.047l-0.143,0.041l-0.145,0.034l-0.149,0.026l-0.15,0.019l-0.151,0.012l-0.128,0.003l-0.025,0l0,0.025l-0.003,0.128l-0.012,0.152l-0.019,0.149l-0.026,0.148l-0.034,0.146l-0.041,0.144l-0.047,0.14l-0.054,0.137l-0.06,0.133l-0.067,0.129l-0.072,0.126l-0.078,0.122l-0.084,0.118l-0.088,0.112l-0.094,0.109l-0.099,0.104l-0.104,0.099l-0.109,0.094l-0.113,0.089l-0.117,0.083l-0.122,0.078l-0.126,0.072l-0.129,0.067l-0.134,0.06l-0.136,0.054l-0.14,0.047l-0.144,0.041l-0.146,0.034l-0.148,0.026l-0.15,0.019l-0.151,0.012l-0.128,0.003l-2.05,0l-0.124,-0.003l-0.148,-0.011l-0.146,-0.018l-0.145,-0.026l-0.143,-0.032l-0.142,-0.039l-0.139,-0.046l-0.136,-0.053l-0.134,-0.059l-0.131,-0.066l-0.128,-0.072l-0.124,-0.079l-0.12,-0.084l-0.117,-0.091l-0.112,-0.097l-0.108,-0.102l-0.102,-0.108l-0.097,-0.112l-0.091,-0.117l-0.084,-0.12l-0.079,-0.124l-0.072,-0.128l-0.066,-0.132l-0.059,-0.133l-0.053,-0.136l-0.046,-0.139l-0.039,-0.141l-0.032,-0.144l-0.026,-0.145l-0.018,-0.147l-0.011,-0.147l-0.003,-0.124l0,-3.806l0.002,-0.124l0.008,-0.141l0.012,-0.139l0.017,-0.14l0.022,-0.138l0.027,-0.136l0.031,-0.134l0.036,-0.134l0.04,-0.132l0.045,-0.13l0.049,-0.128l0.053,-0.127l0.058,-0.124l0.062,-0.122l0.065,-0.119l0.07,-0.118l0.074,-0.115l0.078,-0.113l0.081,-0.109l0.086,-0.107l0.089,-0.105l0.092,-0.101l0.097,-0.098l0.1,-0.095l0.103,-0.092l0.107,-0.088l0.11,-0.085l0.113,-0.081l0.117,-0.077l0.119,-0.074l0.123,-0.069l0.109,-0.058l3.805,-1.902l0,3.236Zm-2.894,0.447l-0.063,0.033l-0.062,0.035l-0.059,0.037l-0.058,0.038l-0.057,0.041l-0.055,0.042l-0.053,0.044l-0.052,0.046l-0.05,0.048l-0.048,0.049l-0.046,0.05l-0.045,0.052l-0.043,0.054l-0.04,0.055l-0.039,0.056l-0.037,0.058l-0.035,0.058l-0.033,0.06l-0.031,0.061l-0.029,0.062l-0.027,0.064l-0.024,0.064l-0.022,0.065l-0.021,0.066l-0.017,0.066l-0.016,0.068l-0.013,0.068l-0.011,0.069l-0.009,0.069l-0.006,0.07l-0.004,0.07l-0.001,0.071l0,3.764l0.001,0.05l0.004,0.049l0.006,0.049l0.008,0.048l0.011,0.048l0.013,0.047l0.016,0.046l0.017,0.046l0.02,0.044l0.022,0.044l0.024,0.042l0.026,0.042l0.028,0.04l0.03,0.039l0.033,0.037l0.034,0.036l0.036,0.034l0.037,0.033l0.039,0.03l0.04,0.028l0.042,0.026l0.042,0.024l0.044,0.022l0.044,0.02l0.046,0.017l0.046,0.016l0.047,0.013l0.048,0.011l0.048,0.008l0.049,0.006l0.049,0.004l0.05,0.001l2,0l0.051,-0.001l0.051,-0.004l0.05,-0.007l0.05,-0.008l0.048,-0.011l0.047,-0.014l0.047,-0.016l0.045,-0.018l0.045,-0.02l0.043,-0.022l0.042,-0.024l0.04,-0.026l0.039,-0.028l0.038,-0.029l0.036,-0.032l0.035,-0.033l0.033,-0.035l0.032,-0.036l0.029,-0.038l0.028,-0.039l0.026,-0.04l0.024,-0.042l0.022,-0.043l0.02,-0.045l0.018,-0.045l0.016,-0.047l0.014,-0.047l0.011,-0.048l0.008,-0.05l0.007,-0.05l0.004,-0.051l0.001,-0.051l0,-2l2,0l0.051,-0.001l0.051,-0.004l0.05,-0.007l0.05,-0.008l0.048,-0.011l0.047,-0.014l0.047,-0.016l0.045,-0.018l0.045,-0.02l0.043,-0.022l0.042,-0.024l0.04,-0.026l0.039,-0.028l0.038,-0.029l0.036,-0.032l0.035,-0.033l0.033,-0.035l0.032,-0.036l0.029,-0.038l0.028,-0.039l0.026,-0.04l0.024,-0.042l0.022,-0.043l0.02,-0.045l0.018,-0.045l0.016,-0.047l0.014,-0.047l0.011,-0.048l0.008,-0.05l0.007,-0.05l0.004,-0.051l0.001,-0.051c0,0 -0.001,-0.05 -0.001,-0.05l-0.004,-0.049l-0.006,-0.049l-0.008,-0.048l-0.011,-0.048l-0.013,-0.047l-0.016,-0.046l-0.017,-0.046l-0.02,-0.044l-0.022,-0.044l-0.024,-0.042l-0.026,-0.042l-0.028,-0.04l-0.03,-0.039l-0.033,-0.037l-0.034,-0.036l-0.036,-0.034l-0.037,-0.033l-0.039,-0.03l-0.04,-0.028l-0.042,-0.026l-0.042,-0.024l-0.044,-0.022l-0.044,-0.02l-0.046,-0.017l-0.046,-0.016l-0.047,-0.013l-0.048,-0.011l-0.048,-0.008l-0.049,-0.006l-0.049,-0.004l-0.05,-0.001l-4,0l0,-2l-0.894,0.447Z"/><path d="M18,14c0,0 -0.432,0.216 -0.894,0.447c-0.678,0.339 -1.106,1.032 -1.106,1.789c0,1.114 0,2.73 0,3.764c0,0.265 0.105,0.52 0.293,0.707c0.187,0.188 0.442,0.293 0.707,0.293c0.611,0 1.389,0 2,0c0.552,0 1,-0.448 1,-1c0,-0.873 0,-2 0,-2c0,0 1.127,0 2,0c0.552,0 1,-0.448 1,-1c0,-0.265 -0.105,-0.52 -0.293,-0.707c-0.187,-0.188 -0.442,-0.293 -0.707,-0.293c-1.459,0 -4,0 -4,0l0,-2Z" style="fill:#fbc546;"/><path d="M20,14l2.025,0l0.124,0.003l0.147,0.011l0.147,0.018l0.145,0.026l0.144,0.032l0.141,0.039l0.139,0.046l0.136,0.053l0.134,0.059l0.131,0.066l0.128,0.072l0.124,0.079l0.12,0.084l0.117,0.091l0.112,0.097l0.108,0.102l0.102,0.108l0.097,0.112l0.091,0.117l0.085,0.121l0.078,0.124l0.072,0.127l0.066,0.131l0.059,0.134l0.053,0.136l0.046,0.139l0.039,0.141l0.033,0.145l0.025,0.144l0.018,0.146l0.011,0.148l0.003,0.124l0,0.051l-0.003,0.127l-0.012,0.152l-0.019,0.15l-0.026,0.147l-0.034,0.146l-0.041,0.143l-0.047,0.14l-0.054,0.137l-0.06,0.134l-0.067,0.129l-0.072,0.126l-0.078,0.122l-0.084,0.118l-0.088,0.112l-0.094,0.109l-0.099,0.104l-0.104,0.099l-0.108,0.093l-0.114,0.09l-0.117,0.083l-0.121,0.078l-0.127,0.072l-0.129,0.067l-0.133,0.06l-0.137,0.054l-0.141,0.047l-0.143,0.041l-0.145,0.034l-0.149,0.026l-0.15,0.019l-0.151,0.012l-0.128,0.003l-0.025,0l0,0.025l-0.003,0.128l-0.012,0.152l-0.019,0.149l-0.026,0.148l-0.034,0.146l-0.041,0.144l-0.047,0.14l-0.054,0.136l-0.06,0.134l-0.067,0.129l-0.072,0.126l-0.078,0.122l-0.084,0.118l-0.088,0.112l-0.094,0.109l-0.099,0.104l-0.104,0.099l-0.109,0.094l-0.113,0.089l-0.117,0.083l-0.122,0.078l-0.126,0.072l-0.129,0.067l-0.134,0.06l-0.136,0.054l-0.14,0.047l-0.144,0.041l-0.146,0.034l-0.148,0.026l-0.15,0.019l-0.151,0.012l-0.128,0.003l-2.05,0l-0.124,-0.003l-0.148,-0.011l-0.146,-0.018l-0.145,-0.026l-0.143,-0.032l-0.142,-0.039l-0.139,-0.046l-0.136,-0.053l-0.134,-0.059l-0.131,-0.066l-0.128,-0.072l-0.124,-0.079l-0.12,-0.084l-0.117,-0.091l-0.112,-0.097l-0.108,-0.102l-0.102,-0.108l-0.097,-0.112l-0.091,-0.117l-0.084,-0.12l-0.079,-0.124l-0.072,-0.128l-0.066,-0.132l-0.059,-0.133l-0.053,-0.136l-0.046,-0.139l-0.039,-0.141l-0.032,-0.144l-0.026,-0.145l-0.018,-0.147l-0.011,-0.147l-0.003,-0.124l0,-3.806l0.002,-0.124l0.008,-0.141l0.012,-0.139l0.017,-0.14l0.022,-0.138l0.027,-0.136l0.031,-0.134l0.036,-0.134l0.04,-0.132l0.045,-0.13l0.049,-0.128l0.053,-0.127l0.058,-0.124l0.062,-0.122l0.065,-0.119l0.07,-0.118l0.074,-0.115l0.078,-0.113l0.081,-0.109l0.086,-0.107l0.089,-0.105l0.092,-0.101l0.097,-0.098l0.1,-0.095l0.103,-0.092l0.107,-0.088l0.11,-0.085l0.113,-0.081l0.117,-0.077l0.119,-0.074l0.123,-0.069l0.109,-0.058l3.805,-1.902l0,3.236Zm-2.894,0.447l-0.063,0.033l-0.062,0.035l-0.059,0.037l-0.058,0.038l-0.057,0.041l-0.055,0.042l-0.053,0.044l-0.052,0.046l-0.05,0.048l-0.048,0.049l-0.046,0.05l-0.045,0.052l-0.043,0.054l-0.04,0.055l-0.039,0.056l-0.037,0.058l-0.035,0.058l-0.033,0.06l-0.031,0.061l-0.029,0.062l-0.027,0.064l-0.024,0.064l-0.022,0.065l-0.021,0.066l-0.017,0.066l-0.016,0.068l-0.013,0.068l-0.011,0.069l-0.009,0.069l-0.006,0.07l-0.004,0.07l-0.001,0.071l0,3.764l0.001,0.05l0.004,0.049l0.006,0.049l0.008,0.048l0.011,0.048l0.013,0.047l0.016,0.046l0.017,0.046l0.02,0.044l0.022,0.044l0.024,0.042l0.026,0.042l0.028,0.04l0.03,0.039l0.033,0.037l0.034,0.036l0.036,0.034l0.037,0.033l0.039,0.03l0.04,0.028l0.042,0.026l0.042,0.024l0.044,0.022l0.044,0.02l0.046,0.017l0.046,0.016l0.047,0.013l0.048,0.011l0.048,0.008l0.049,0.006l0.049,0.004l0.05,0.001l2,0l0.051,-0.001l0.051,-0.004l0.05,-0.007l0.05,-0.008l0.048,-0.011l0.047,-0.014l0.047,-0.016l0.045,-0.018l0.045,-0.02l0.043,-0.022l0.042,-0.024l0.04,-0.026l0.039,-0.028l0.038,-0.029l0.036,-0.032l0.035,-0.033l0.033,-0.035l0.032,-0.036l0.029,-0.038l0.028,-0.039l0.026,-0.04l0.024,-0.042l0.022,-0.043l0.02,-0.045l0.018,-0.045l0.016,-0.047l0.014,-0.047l0.011,-0.048l0.008,-0.05l0.007,-0.05l0.004,-0.051l0.001,-0.051l0,-2l2,0l0.051,-0.001l0.051,-0.004l0.05,-0.007l0.05,-0.008l0.048,-0.011l0.047,-0.014l0.047,-0.016l0.045,-0.018l0.045,-0.02l0.043,-0.022l0.042,-0.024l0.04,-0.026l0.039,-0.028l0.038,-0.029l0.036,-0.032l0.035,-0.033l0.033,-0.035l0.032,-0.036l0.029,-0.038l0.028,-0.039l0.026,-0.04l0.024,-0.042l0.022,-0.043l0.02,-0.045l0.018,-0.045l0.016,-0.047l0.014,-0.047l0.011,-0.048l0.008,-0.05l0.007,-0.05l0.004,-0.051l0.001,-0.051c0,0 -0.001,-0.05 -0.001,-0.05l-0.004,-0.049l-0.006,-0.049l-0.008,-0.048l-0.011,-0.048l-0.013,-0.047l-0.016,-0.046l-0.017,-0.046l-0.02,-0.044l-0.022,-0.044l-0.024,-0.042l-0.026,-0.042l-0.028,-0.04l-0.03,-0.039l-0.033,-0.037l-0.034,-0.036l-0.036,-0.034l-0.037,-0.033l-0.039,-0.03l-0.04,-0.028l-0.042,-0.026l-0.042,-0.024l-0.044,-0.022l-0.044,-0.02l-0.046,-0.017l-0.046,-0.016l-0.047,-0.013l-0.048,-0.011l-0.048,-0.008l-0.049,-0.006l-0.049,-0.004l-0.05,-0.001l-4,0l0,-2l-0.894,0.447Z"/><rect x="8" y="27" width="2" height="2"/><rect x="22" y="18" width="2" height="2"/></g></svg>