<?xml version="1.0" encoding="UTF-8"?>
<!DOCTYPE svg  PUBLIC '-//W3C//DTD SVG 1.1//EN'  'http://www.w3.org/Graphics/SVG/1.1/DTD/svg11.dtd'>
<svg clip-rule="evenodd" fill-rule="evenodd" stroke-linejoin="round" stroke-miterlimit="1.4142" version="1.1" viewBox="0 0 32 32" xml:space="preserve" xmlns="http://www.w3.org/2000/svg">
<metadata>
<rdf:RDF xmlns:cc="http://web.resource.org/cc/" xmlns:dc="http://purl.org/dc/elements/1.1/" xmlns:rdf="http://www.w3.org/1999/02/22-rdf-syntax-ns#">

     <rdf:Description rdf:about="">
       <dc:title>Mutant Standard S3</dc:title>
     </rdf:Description>

    <cc:work rdf:about="">
        <cc:license rdf:resource="http://creativecommons.org/licenses/by-nc-sa/4.0/"/>
        <cc:attributionName>Dzuk</cc:attributionName>
        <cc:attributionURL>http://mutant.tech/</cc:attributionURL>
    </cc:work>

</rdf:RDF>
</metadata>
<rect id="doublethincc" width="32" height="32" fill="none"/><clipPath id="_clip1"><rect width="32" height="32"/></clipPath><g clip-path="url(#_clip1)"><g id="outline"><path d="m9.799 8.941 0.148 3e-3 0.147 6e-3 0.147 9e-3 0.147 0.01 0.147 0.013 0.147 0.015 0.147 0.017 0.147 0.02 0.147 0.022 0.146 0.024 0.146 0.027 0.146 0.028 0.145 0.031 0.145 0.034 0.145 0.035 0.144 0.038 0.144 0.04 0.144 0.043 0.143 0.045 0.143 0.047 0.142 0.049 0.141 0.052 0.141 0.054 0.14 0.056 0.133 0.055 1.567 0.672 0.077 0.034 0.084 0.039 0.085 0.041 0.082 0.042 0.082 0.043 0.081 0.045 0.08 0.046 0.078 0.048 0.078 0.049 0.076 0.05 0.076 0.052 0.075 0.053 0.074 0.054 0.071 0.055 0.071 0.057 0.071 0.058 0.069 0.059 0.068 0.06 0.066 0.061 0.13 0.126 0.062 0.065 0.062 0.066 0.061 0.067 0.059 0.067 0.058 0.07 0.056 0.069 0.056 0.071 0.054 0.072 0.053 0.072 0.051 0.074 0.051 0.075 0.048 0.075 0.047 0.076 0.046 0.077 0.045 0.079 0.044 0.079 0.041 0.079 0.041 0.08 0.039 0.082 0.038 0.082 0.036 0.082 0.034 0.083 0.033 0.084 0.032 0.085 0.03 0.085 0.029 0.087 0.027 0.086 0.026 0.087 0.024 0.088 0.022 0.088 0.021 0.088 0.019 0.091 0.018 0.089 0.016 0.09 0.014 0.092 0.013 0.091 0.011 0.091 0.01 0.092 7e-3 0.092 6e-3 0.093 5e-3 0.094 2e-3 0.092 1e-3 0.084v10.043l-1e-3 0.116-5e-3 0.128-8e-3 0.126-0.012 0.127-0.014 0.125-0.017 0.125-0.021 0.124-0.023 0.123-0.027 0.121-0.029 0.121-0.033 0.12-0.035 0.118-0.038 0.118-0.041 0.115-0.044 0.115-0.045 0.112-0.049 0.112-0.052 0.111-0.054 0.109-0.057 0.107-0.059 0.105-0.061 0.104-0.064 0.103-0.066 0.1-0.068 0.098-0.071 0.098-0.073 0.095-0.075 0.093-0.078 0.092-0.079 0.089-0.082 0.088-0.083 0.086-0.086 0.084-0.088 0.081-0.089 0.079-0.092 0.078-0.093 0.075-0.095 0.073-0.097 0.07-0.099 0.069-0.101 0.066-0.102 0.064-0.104 0.061-0.105 0.06-0.108 0.056-0.108 0.054-0.11 0.051-0.112 0.049-0.113 0.047-0.115 0.043-0.116 0.041-0.117 0.038-0.118 0.035-0.12 0.033-0.121 0.029-0.121 0.027-0.123 0.023-0.124 0.021-0.125 0.017-0.125 0.014-0.126 0.012-0.127 8e-3 -0.128 5e-3 -0.115 1e-3h-1.587l-0.136-1e-3 -0.142-2e-3 -0.141-5e-3 -0.142-6e-3 -0.141-8e-3 -0.141-9e-3 -0.14-0.012-0.141-0.013-0.14-0.015-0.14-0.016-0.139-0.018-0.139-0.02-0.139-0.022-0.138-0.023-0.138-0.025-0.138-0.027-0.137-0.028-0.137-0.03-0.136-0.032-0.136-0.033-0.135-0.035-0.135-0.036-0.134-0.038-0.134-0.04-0.133-0.042-0.133-0.043-0.132-0.044-0.132-0.046-0.131-0.048-0.13-0.05-0.13-0.051-0.129-0.052-0.128-0.054-0.128-0.056-0.127-0.057-0.127-0.059-0.125-0.06-0.125-0.062-0.125-0.064-0.123-0.065-0.123-0.066-0.122-0.068-0.121-0.07-0.12-0.071-0.12-0.072-0.119-0.074-0.118-0.076-0.116-0.077-0.117-0.078-0.115-0.08-0.114-0.081-0.113-0.083-0.113-0.084-0.111-0.086-0.111-0.087-0.109-0.089-0.109-0.09-0.107-0.091-0.107-0.093-0.105-0.095-0.104-0.095-0.103-0.097-0.103-0.098-0.101-0.1-0.1-0.101-0.098-0.102-0.097-0.104-0.096-0.104-0.094-0.105-0.184-0.214-0.09-0.109-0.089-0.109-0.087-0.111-0.086-0.111-0.084-0.113-0.083-0.113-0.081-0.114-0.08-0.115-0.078-0.116-0.077-0.118-0.076-0.117-0.074-0.119-0.072-0.12-0.071-0.12-0.07-0.121-0.068-0.122-0.066-0.123-0.065-0.123-0.064-0.125-0.062-0.125-0.06-0.125-0.059-0.127-0.057-0.127-0.056-0.128-0.054-0.128-0.052-0.129-0.051-0.13-0.05-0.131-0.048-0.131-0.046-0.131-0.044-0.132-0.044-0.133-0.041-0.133-0.04-0.134-0.038-0.134-0.036-0.135-0.035-0.135-0.033-0.136-0.032-0.137-0.03-0.136-0.028-0.137-0.027-0.138-0.025-0.138-0.023-0.138-0.022-0.139-0.02-0.139-0.018-0.139-0.016-0.14-0.015-0.14-0.013-0.141-0.011-0.14-0.01-0.141-8e-3 -0.141-6e-3 -0.142-5e-3 -0.141-2e-3 -0.142-1e-3 -0.136v-0.016l1e-3 -0.144 4e-3 -0.152 6e-3 -0.15 8e-3 -0.151 0.01-0.149 0.013-0.15 0.016-0.149 0.017-0.149 0.02-0.148 0.022-0.148 0.024-0.146 0.027-0.147 0.029-0.147 0.031-0.145 0.033-0.144 0.035-0.144 0.038-0.143 0.04-0.143 0.041-0.142 0.044-0.141 0.047-0.14 0.048-0.14 0.05-0.138 0.053-0.138 0.054-0.137 0.057-0.136 0.059-0.135 0.06-0.134 0.063-0.133 0.065-0.132 0.067-0.131 0.068-0.13 0.071-0.13 0.073-0.127 0.075-0.127 0.076-0.126 0.079-0.124 0.08-0.124 0.082-0.122 0.085-0.121 0.086-0.119 0.088-0.119 0.09-0.117 0.091-0.116 0.094-0.114 0.095-0.113 0.097-0.112 0.099-0.11 0.101-0.109 0.102-0.107 0.105-0.106 0.106-0.104 0.107-0.103 0.11-0.102 0.111-0.099 0.112-0.098 0.115-0.097 0.116-0.094 0.118-0.094 0.119-0.091 0.121-0.09 0.123-0.088 0.124-0.086 0.126-0.084 0.127-0.083 0.128-0.08 0.129-0.078 0.13-0.076 0.131-0.073 0.132-0.072 0.133-0.069 0.134-0.067 0.135-0.066 0.135-0.062 0.136-0.061 0.137-0.059 0.138-0.056 0.138-0.054 0.139-0.052 0.14-0.05 0.14-0.047 0.141-0.045 0.141-0.043 0.143-0.041 0.142-0.039 0.143-0.036 0.144-0.035 0.143-0.032 0.145-0.03 0.145-0.027 0.144-0.025 0.146-0.024 0.146-0.021 0.146-0.018 0.146-0.017 0.146-0.014 0.147-0.012 0.147-9e-3 0.146-8e-3 0.148-5e-3 0.147-3e-3 0.147-1e-3 0.147 2e-3zm-0.244 3.999-0.086 1e-3 -0.086 3e-3 -0.086 5e-3 -0.085 5e-3 -0.086 7e-3 -0.086 9e-3 -0.085 9e-3 -0.086 0.011-0.17 0.026-0.085 0.015-0.084 0.016-0.085 0.017-0.084 0.019-0.084 0.02-0.083 0.021-0.083 0.023-0.083 0.024-0.083 0.025-0.164 0.054-0.082 0.029-0.162 0.062-0.08 0.033-0.08 0.034-0.08 0.036-0.079 0.036-0.078 0.038-0.079 0.04-0.077 0.04-0.077 0.042-0.077 0.043-0.152 0.09-0.075 0.047-0.074 0.048-0.074 0.05-0.072 0.05-0.072 0.051-0.071 0.053-0.07 0.054-0.068 0.054-0.068 0.055-0.067 0.057-0.066 0.057-0.065 0.058-0.064 0.059-0.063 0.06-0.062 0.061-0.06 0.062-0.06 0.063-0.059 0.063-0.058 0.065-0.057 0.065-0.055 0.066-0.055 0.067-0.054 0.068-0.052 0.068-0.052 0.069-0.05 0.07-0.049 0.071-0.048 0.071-0.047 0.072-0.046 0.073-0.045 0.074-0.044 0.074-0.084 0.15-0.04 0.076-0.039 0.076-0.038 0.078-0.072 0.156-0.034 0.079-0.033 0.08-0.032 0.079-0.031 0.081-0.029 0.081-0.029 0.082-0.026 0.081-0.026 0.083-0.025 0.083-0.023 0.083-0.022 0.084-0.021 0.084-0.019 0.084-0.018 0.086-0.017 0.084-0.03 0.172-0.012 0.086-0.012 0.087-0.01 0.087-9e-3 0.087-8e-3 0.087-6e-3 0.088-5e-3 0.088-3e-3 0.088-2e-3 0.088-1e-3 0.092 1e-3 0.093 1e-3 0.092 3e-3 0.092 4e-3 0.092 5e-3 0.091 0.014 0.184 8e-3 0.091 0.01 0.091 0.011 0.09 0.012 0.091 0.013 0.091 0.013 0.09 0.016 0.09 0.016 0.089 0.017 0.089 0.019 0.09 0.019 0.089 0.02 0.088 0.022 0.088 0.023 0.089 0.048 0.174 0.026 0.088 0.027 0.086 0.028 0.086 0.029 0.086 0.03 0.086 0.031 0.085 0.032 0.085 0.068 0.168 0.035 0.084 0.036 0.083 0.037 0.082 0.039 0.083 0.039 0.081 0.04 0.082 0.041 0.08 0.043 0.081 0.043 0.079 0.044 0.08 0.045 0.079 0.046 0.078 0.048 0.078 0.048 0.077 0.049 0.076 0.05 0.076 0.051 0.076 0.052 0.074 0.052 0.075 0.054 0.073 0.055 0.074 0.056 0.072 0.057 0.072 0.057 0.071 0.058 0.07 0.12 0.14 0.124 0.136 0.063 0.067 0.064 0.067 0.13 0.13 0.067 0.064 0.067 0.063 0.136 0.124 0.14 0.12 0.07 0.058 0.071 0.057 0.072 0.057 0.072 0.056 0.073 0.055 0.074 0.054 0.075 0.052 0.074 0.052 0.076 0.051 0.076 0.05 0.076 0.049 0.077 0.048 0.078 0.048 0.079 0.046 0.078 0.045 0.08 0.044 0.079 0.043 0.081 0.043 0.081 0.041 0.081 0.04 0.081 0.039 0.083 0.039 0.082 0.037 0.083 0.036 0.084 0.035 0.168 0.068 0.085 0.032 0.085 0.031 0.086 0.03 0.086 0.029 0.086 0.028 0.087 0.027 0.087 0.026 0.087 0.024 0.088 0.024 0.087 0.023 0.089 0.021 0.088 0.021 0.178 0.038 0.09 0.017 0.089 0.016 0.09 0.015 0.091 0.015 0.18 0.024 0.091 0.011 0.091 0.01 0.092 8e-3 0.091 7e-3 0.092 7e-3 0.091 5e-3 0.092 4e-3 0.092 3e-3 0.093 1e-3 0.098 1e-3h1.549 0.04l0.026-2e-3 0.026-1e-3 0.026-2e-3 0.025-3e-3 0.025-4e-3 0.024-4e-3 0.025-5e-3 0.024-5e-3 0.023-6e-3 0.024-6e-3 0.046-0.014 0.023-8e-3 0.022-9e-3 0.023-9e-3 0.021-9e-3 0.044-0.022 0.042-0.022 0.021-0.013 0.02-0.012 0.021-0.014 0.019-0.013 0.02-0.015 0.038-0.03 0.018-0.015 0.019-0.017 0.018-0.016 0.034-0.034 0.032-0.036 0.032-0.038 0.028-0.038 0.014-0.021 0.014-0.02 0.012-0.02 0.013-0.021 0.012-0.021 0.011-0.021 0.01-0.021 0.02-0.044 9e-3 -0.023 9e-3 -0.022 8e-3 -0.023 0.014-0.046 6e-3 -0.023 6e-3 -0.024 5e-3 -0.024 5e-3 -0.025 4e-3 -0.024 4e-3 -0.025 3e-3 -0.025 4e-3 -0.052v-0.026l1e-3 -0.039v-10-0.029l-1e-3 -0.02-3e-3 -0.054-2e-3 -0.018-3e-3 -0.019-2e-3 -0.018-6e-3 -0.036-4e-3 -0.018-3e-3 -0.017-5e-3 -0.019-4e-3 -0.018-5e-3 -0.016-5e-3 -0.018-5e-3 -0.017-0.018-0.051-7e-3 -0.016-7e-3 -0.018-7e-3 -0.017-8e-3 -0.016-7e-3 -0.015-9e-3 -0.017-8e-3 -0.016-9e-3 -0.016-8e-3 -0.015-0.01-0.015-0.02-0.032-9e-3 -0.014-0.01-0.015-0.011-0.015-0.022-0.028-0.012-0.014-0.011-0.014-0.012-0.014-0.024-0.026-0.026-0.026-0.013-0.012-0.013-0.013-0.014-0.012-0.013-0.011-0.014-0.011-0.014-0.012-0.03-0.022-0.014-0.01-0.03-0.02-0.032-0.02-0.048-0.027-0.017-8e-3 -0.016-8e-3 -0.018-8e-3 -0.026-0.012-1.535-0.658-0.09-0.037-0.082-0.033-0.082-0.032-0.083-0.03-0.083-0.029-0.083-0.027-0.084-0.026-0.084-0.025-0.084-0.024-0.084-0.022-0.085-0.021-0.084-0.019-0.085-0.018-0.086-0.017-0.17-0.03-0.172-0.024-0.085-0.01-0.086-9e-3 -0.086-7e-3 -0.086-6e-3 -0.086-5e-3 -0.086-4e-3 -0.086-2e-3 -0.087-1e-3 -0.086 1e-3z"/><path d="m23.799-0.059 0.148 3e-3 0.147 6e-3 0.147 9e-3 0.147 0.01 0.147 0.013 0.147 0.015 0.147 0.017 0.147 0.02 0.146 0.022 0.147 0.024 0.146 0.027 0.146 0.028 0.145 0.031 0.145 0.034 0.145 0.035 0.144 0.038 0.144 0.04 0.144 0.043 0.143 0.045 0.142 0.047 0.143 0.049 0.141 0.052 0.141 0.054 0.14 0.056 0.133 0.055 1.567 0.672 0.077 0.034 0.085 0.039 0.084 0.041 0.082 0.042 0.082 0.043 0.08 0.045 0.08 0.046 0.079 0.048 0.078 0.049 0.077 0.05 0.075 0.052 0.075 0.053 0.073 0.054 0.072 0.055 0.072 0.057 0.07 0.058 0.069 0.059 0.067 0.06 0.067 0.061 0.13 0.126 0.063 0.066 0.061 0.065 0.06 0.066 0.06 0.068 0.058 0.07 0.056 0.069 0.056 0.071 0.054 0.072 0.053 0.073 0.051 0.073 0.05 0.074 0.049 0.076 0.047 0.076 0.047 0.078 0.044 0.078 0.043 0.078 0.043 0.081 0.04 0.079 0.039 0.081 0.038 0.083 0.036 0.082 0.034 0.084 0.033 0.083 0.032 0.085 0.03 0.085 0.029 0.086 0.027 0.087 0.026 0.087 0.024 0.088 0.022 0.088 0.021 0.089 0.019 0.09 0.018 0.089 0.016 0.091 0.014 0.09 0.013 0.092 0.011 0.092 0.01 0.091 7e-3 0.092 6e-3 0.092 5e-3 0.094 2e-3 0.093 1e-3 0.084v10.043l-1e-3 0.116-5e-3 0.128-8e-3 0.126-0.012 0.127-0.014 0.125-0.017 0.125-0.021 0.124-0.023 0.123-0.027 0.121-0.029 0.121-0.033 0.12-0.035 0.118-0.038 0.117-0.041 0.116-0.043 0.115-0.047 0.113-0.049 0.112-0.051 0.11-0.054 0.108-0.056 0.108-0.06 0.105-0.061 0.104-0.064 0.103-0.066 0.1-0.069 0.099-0.07 0.097-0.073 0.095-0.075 0.093-0.078 0.092-0.079 0.09-0.082 0.087-0.083 0.086-0.086 0.083-0.087 0.082-0.09 0.079-0.092 0.078-0.093 0.075-0.095 0.073-0.097 0.071-0.099 0.068-0.1 0.066-0.103 0.064-0.104 0.062-0.105 0.058-0.107 0.057-0.109 0.054-0.11 0.051-0.112 0.049-0.113 0.047-0.115 0.043-0.116 0.041-0.117 0.038-0.118 0.035-0.12 0.033-0.121 0.029-0.121 0.027-0.123 0.023-0.124 0.021-0.125 0.017-0.125 0.014-0.126 0.012-0.127 8e-3 -0.128 5e-3 -0.115 1e-3h-1.587l-0.136-1e-3 -0.142-2e-3 -0.141-5e-3 -0.142-6e-3 -0.141-8e-3 -0.141-0.01-0.14-0.011-0.141-0.013-0.14-0.015-0.14-0.016-0.139-0.018-0.139-0.02-0.139-0.022-0.138-0.023-0.138-0.025-0.138-0.027-0.137-0.028-0.137-0.03-0.136-0.032-0.136-0.033-0.135-0.035-0.135-0.036-0.134-0.038-0.134-0.04-0.133-0.042-0.133-0.043-0.132-0.044-0.132-0.046-0.131-0.048-0.13-0.05-0.13-0.051-0.129-0.052-0.128-0.054-0.128-0.056-0.127-0.057-0.127-0.059-0.125-0.06-0.125-0.062-0.125-0.064-0.123-0.065-0.123-0.066-0.122-0.068-0.121-0.07-0.121-0.071-0.119-0.072-0.118-0.074-0.118-0.076-0.118-0.077-0.116-0.078-0.115-0.08-0.114-0.081-0.113-0.083-0.113-0.085-0.111-0.085-0.111-0.087-0.109-0.089-0.109-0.09-0.107-0.092-0.106-0.092-0.106-0.094-0.104-0.096-0.104-0.097-0.102-0.098-0.101-0.1-0.099-0.101-0.099-0.103-0.097-0.103-0.095-0.104-0.095-0.105-0.093-0.107-0.091-0.107-0.09-0.109-0.089-0.109-0.087-0.111-0.085-0.111-0.085-0.113-0.083-0.113-0.081-0.114-0.08-0.115-0.078-0.116-0.077-0.118-0.076-0.117-0.074-0.119-0.072-0.12-0.071-0.12-0.07-0.121-0.068-0.122-0.066-0.123-0.065-0.124-0.064-0.124-0.062-0.125-0.06-0.125-0.059-0.126-0.057-0.128-0.056-0.128-0.054-0.128-0.052-0.129-0.051-0.13-0.05-0.131-0.047-0.13-0.047-0.132-0.044-0.132-0.043-0.133-0.042-0.133-0.04-0.134-0.038-0.134-0.036-0.135-0.035-0.135-0.033-0.136-0.032-0.137-0.03-0.136-0.028-0.137-0.027-0.138-0.025-0.138-0.023-0.138-0.022-0.139-0.02-0.139-0.018-0.14-0.016-0.139-0.015-0.14-0.013-0.14-0.012-0.141-9e-3 -0.141-8e-3 -0.141-6e-3 -0.142-5e-3 -0.141-2e-3 -0.142-1e-3 -0.136v-0.017l1e-3 -0.144 4e-3 -0.151 6e-3 -0.15 8e-3 -0.151 0.01-0.15 0.013-0.149 0.016-0.149 0.017-0.149 0.02-0.148 0.022-0.148 0.024-0.147 0.027-0.146 0.029-0.147 0.031-0.145 0.033-0.144 0.035-0.144 0.038-0.143 0.04-0.143 0.041-0.142 0.044-0.141 0.047-0.14 0.048-0.14 0.05-0.138 0.053-0.138 0.055-0.137 0.056-0.136 0.059-0.135 0.06-0.134 0.063-0.133 0.065-0.132 0.067-0.131 0.068-0.13 0.071-0.13 0.073-0.127 0.074-0.127 0.077-0.126 0.079-0.125 0.08-0.123 0.082-0.122 0.085-0.121 0.086-0.119 0.088-0.119 0.09-0.117 0.091-0.116 0.094-0.114 0.095-0.113 0.097-0.112 0.099-0.11 0.101-0.109 0.102-0.107 0.104-0.106 0.107-0.104 0.107-0.103 0.11-0.101 0.111-0.1 0.113-0.098 0.114-0.097 0.116-0.094 0.118-0.094 0.119-0.091 0.121-0.09 0.123-0.088 0.124-0.086 0.126-0.084 0.127-0.083 0.128-0.08 0.129-0.078 0.13-0.076 0.131-0.073 0.132-0.072 0.133-0.069 0.134-0.068 0.135-0.065 0.135-0.062 0.136-0.061 0.137-0.059 0.138-0.056 0.138-0.054 0.139-0.052 0.14-0.05 0.14-0.047 0.141-0.045 0.142-0.043 0.142-0.041 0.142-0.039 0.143-0.036 0.144-0.035 0.143-0.032 0.145-0.03 0.144-0.027 0.146-0.025 0.145-0.024 0.146-0.021 0.145-0.018 0.147-0.017 0.146-0.014 0.147-0.012 0.147-9e-3 0.146-8e-3 0.148-5e-3 0.147-3e-3 0.147-1e-3 0.147 2e-3zm-0.244 3.999-0.086 1e-3 -0.086 3e-3 -0.172 0.01-0.085 7e-3 -0.086 9e-3 -0.085 9e-3 -0.086 0.011-0.17 0.026-0.085 0.015-0.084 0.016-0.085 0.017-0.084 0.019-0.083 0.02-0.084 0.021-0.083 0.023-0.083 0.024-0.083 0.025-0.164 0.054-0.082 0.029-0.162 0.062-0.08 0.033-0.08 0.034-0.08 0.036-0.079 0.036-0.079 0.038-0.078 0.04-0.077 0.04-0.077 0.042-0.077 0.043-0.152 0.09-0.075 0.047-0.074 0.048-0.074 0.05-0.072 0.05-0.072 0.052-0.071 0.052-0.07 0.053-0.136 0.11-0.067 0.057-0.066 0.057-0.065 0.058-0.064 0.059-0.063 0.06-0.123 0.123-0.118 0.126-0.058 0.065-0.057 0.065-0.055 0.066-0.055 0.067-0.054 0.068-0.052 0.068-0.052 0.069-0.05 0.07-0.049 0.071-0.048 0.071-0.047 0.073-0.046 0.072-0.045 0.073-0.044 0.075-0.084 0.15-0.04 0.076-0.039 0.077-0.038 0.077-0.036 0.077-0.036 0.079-0.034 0.079-0.033 0.08-0.032 0.08-0.031 0.08-0.029 0.081-0.029 0.082-0.026 0.081-0.026 0.083-0.025 0.083-0.023 0.083-0.022 0.084-0.04 0.168-0.018 0.086-0.017 0.084-0.03 0.172-0.012 0.086-0.012 0.087-0.01 0.087-9e-3 0.087-8e-3 0.088-6e-3 0.087-5e-3 0.088-3e-3 0.088-2e-3 0.089-1e-3 0.091 1e-3 0.092 1e-3 0.093 3e-3 0.092 4e-3 0.092 5e-3 0.092 0.014 0.182 8e-3 0.092 0.01 0.091 0.011 0.091 0.024 0.18 0.015 0.091 0.015 0.09 0.016 0.089 0.017 0.089 0.019 0.09 0.019 0.089 0.02 0.088 0.022 0.088 0.023 0.089 0.024 0.087 0.024 0.088 0.026 0.087 0.027 0.086 0.028 0.086 0.029 0.086 0.03 0.086 0.031 0.085 0.033 0.085 0.032 0.084 0.07 0.168 0.036 0.083 0.037 0.082 0.039 0.083 0.039 0.081 0.04 0.082 0.042 0.081 0.042 0.08 0.043 0.079 0.044 0.08 0.045 0.078 0.046 0.079 0.048 0.078 0.048 0.077 0.049 0.076 0.05 0.076 0.051 0.076 0.052 0.074 0.053 0.075 0.053 0.074 0.055 0.072 0.056 0.073 0.057 0.072 0.057 0.071 0.058 0.07 0.12 0.14 0.124 0.136 0.063 0.067 0.064 0.066 0.065 0.066 0.065 0.065 0.067 0.064 0.067 0.063 0.136 0.124 0.14 0.12 0.07 0.058 0.071 0.057 0.072 0.057 0.073 0.056 0.072 0.055 0.148 0.106 0.075 0.052 0.076 0.051 0.076 0.05 0.076 0.049 0.078 0.049 0.077 0.047 0.078 0.046 0.079 0.045 0.079 0.044 0.08 0.043 0.081 0.043 0.08 0.041 0.082 0.04 0.164 0.078 0.082 0.037 0.083 0.036 0.084 0.035 0.168 0.068 0.085 0.032 0.085 0.031 0.086 0.03 0.086 0.029 0.086 0.028 0.087 0.027 0.086 0.026 0.176 0.048 0.087 0.023 0.089 0.021 0.088 0.021 0.178 0.038 0.09 0.017 0.089 0.016 0.18 0.03 0.182 0.024 0.09 0.011 0.091 0.01 0.092 8e-3 0.091 7e-3 0.092 7e-3 0.091 5e-3 0.092 4e-3 0.092 3e-3 0.093 1e-3 0.098 1e-3h1.549 0.04l0.026-1e-3 0.052-4e-3 0.025-3e-3 0.025-4e-3 0.024-4e-3 0.025-5e-3 0.024-5e-3 0.023-6e-3 0.024-6e-3 0.046-0.014 0.023-8e-3 0.023-9e-3 0.044-0.018 0.021-0.011 0.022-0.01 0.063-0.036 0.02-0.012 0.021-0.014 0.02-0.013 0.019-0.015 0.019-0.014 0.019-0.016 0.019-0.015 0.018-0.016 0.018-0.017 0.034-0.034 0.017-0.018 0.016-0.018 0.045-0.057 0.015-0.02 0.013-0.019 0.014-0.021 0.012-0.02 0.013-0.021 0.033-0.063 0.01-0.022 0.01-0.023 0.018-0.044 8e-3 -0.023 7e-3 -0.022 7e-3 -0.025 7e-3 -0.023 5e-3 -0.023 5e-3 -0.024 5e-3 -0.025 4e-3 -0.024 4e-3 -0.025 3e-3 -0.025 4e-3 -0.052 1e-3 -0.026v-0.039-10-0.029l-1e-3 -0.019-1e-3 -0.018-1e-3 -0.019-1e-3 -0.018-2e-3 -0.019-3e-3 -0.018-2e-3 -0.018-6e-3 -0.036-0.016-0.072-5e-3 -0.016-5e-3 -0.018-5e-3 -0.017-0.018-0.051-0.021-0.051-7e-3 -0.015-8e-3 -0.016-9e-3 -0.017-8e-3 -0.016-0.018-0.032-9e-3 -0.014-0.01-0.016-9e-3 -0.015-0.01-0.015-0.011-0.015-0.01-0.015-0.022-0.028-0.012-0.014-0.011-0.014-0.012-0.013-0.012-0.014-0.013-0.013-0.012-0.013-0.013-0.013-0.026-0.024-0.028-0.024-0.013-0.012-0.014-0.011-0.015-0.011-0.014-0.011-0.015-0.01-0.016-0.011-0.015-0.01-0.015-9e-3 -0.016-0.01-0.048-0.027-0.034-0.016-0.016-8e-3 -0.026-0.012-1.537-0.658-0.089-0.037-0.082-0.033-0.082-0.032-0.083-0.03-0.083-0.029-0.083-0.027-0.084-0.026-0.084-0.025-0.084-0.024-0.084-0.022-0.085-0.021-0.084-0.019-0.085-0.018-0.086-0.017-0.17-0.03-0.172-0.024-0.085-0.01-0.086-9e-3 -0.086-7e-3 -0.086-6e-3 -0.086-5e-3 -0.086-4e-3 -0.086-2e-3 -0.087-1e-3 -0.086 1e-3z"/></g><g id="emoji"><path d="m16 19v-4.022c0-1.2-0.715-2.285-1.818-2.757-0.458-0.196-0.983-0.421-1.552-0.665-2.356-1.01-5.062-0.769-7.202 0.643-2.14 1.411-3.428 3.803-3.428 6.366v3e-3c0 2.502 0.994 4.901 2.763 6.669 1.768 1.769 4.167 2.763 6.669 2.763h1.568c1.657 0 3-1.343 3-3v-6z" fill="#fbc546"/><clipPath id="_clip2"><path d="m16 19v-4.022c0-1.2-0.715-2.285-1.818-2.757-0.458-0.196-0.983-0.421-1.552-0.665-2.356-1.01-5.062-0.769-7.202 0.643-2.14 1.411-3.428 3.803-3.428 6.366v3e-3c0 2.502 0.994 4.901 2.763 6.669 1.768 1.769 4.167 2.763 6.669 2.763h1.568c1.657 0 3-1.343 3-3v-6z"/></clipPath><g clip-path="url(#_clip2)" fill="#e59a10"><path d="m11 26s-1.983-1.416-3.838-2.741c-0.609-0.436-1.411-0.494-2.077-0.151s-1.085 1.029-1.085 1.778v8.114c0 0.552 0.448 1 1 1h3c0.552 0 1-0.448 1-1v-3h6s-1.525-2.034-2.401-3.201c-0.377-0.503-0.969-0.799-1.598-0.799h-1e-3z"/><path d="m6.155 20.889 0.135 8e-3 0.134 0.012 0.135 0.016 0.133 0.021 0.133 0.026 0.133 0.03 0.131 0.035 0.13 0.039 0.13 0.044 0.128 0.049 0.126 0.052 0.125 0.058 0.123 0.061 0.122 0.066 0.12 0.071 0.117 0.075 0.101 0.069 3.426 2.447 0.076 0.015 0.113 0.025 0.111 0.028 0.111 0.032 0.11 0.035 0.109 0.037 0.108 0.041 0.106 0.044 0.105 0.047 0.103 0.05 0.102 0.053 0.1 0.055 0.099 0.059 0.098 0.062 0.095 0.064 0.094 0.067 0.091 0.07 0.09 0.072 0.088 0.076 0.086 0.078 0.084 0.08 0.081 0.083 0.079 0.086 0.077 0.088 0.075 0.091 0.063 0.082 4.492 5.99-0.211 0.422h-7.472v1.026l-3e-3 0.127-0.012 0.151-0.019 0.15-0.026 0.149-0.034 0.146-0.04 0.142-0.048 0.14-0.054 0.138-0.06 0.133-0.067 0.129-0.072 0.126-0.078 0.122-0.083 0.117-0.089 0.113-0.095 0.109-0.099 0.104-0.103 0.099-0.108 0.094-0.113 0.088-0.118 0.084-0.122 0.078-0.126 0.072-0.129 0.067-0.134 0.06-0.137 0.054-0.14 0.047-0.143 0.041-0.146 0.034-0.148 0.026-0.15 0.019-0.151 0.012-0.128 3e-3h-3.05l-0.128-3e-3 -0.151-0.012-0.15-0.019-0.148-0.026-0.146-0.034-0.143-0.041-0.14-0.047-0.137-0.054-0.134-0.06-0.129-0.067-0.126-0.072-0.122-0.078-0.118-0.084-0.113-0.088-0.108-0.094-0.103-0.099-0.099-0.104-0.095-0.109-0.089-0.113-0.083-0.117-0.078-0.122-0.072-0.126-0.067-0.129-0.06-0.134-0.054-0.137-0.047-0.139-0.041-0.143-0.034-0.146-0.026-0.149-0.019-0.15-0.012-0.151-3e-3 -0.127v-8.157l2e-3 -0.122 7e-3 -0.139 0.013-0.139 0.016-0.137 0.022-0.136 0.026-0.135 0.03-0.134 0.035-0.132 0.04-0.131 0.044-0.129 0.048-0.127 0.052-0.125 0.057-0.123 0.06-0.121 0.065-0.119 0.068-0.117 0.072-0.114 0.077-0.112 0.08-0.109 0.083-0.107 0.088-0.103 0.091-0.101 0.094-0.098 0.098-0.095 0.102-0.092 0.105-0.088 0.108-0.085 0.111-0.082 0.115-0.077 0.117-0.074 0.12-0.07 0.124-0.067 0.125-0.061 0.127-0.057 0.128-0.053 0.13-0.048 0.131-0.043 0.132-0.039 0.133-0.034 0.134-0.029 0.134-0.025 0.134-0.02 0.135-0.015 0.136-0.011 0.135-6e-3 0.135-2e-3 0.136 3e-3zm-0.213 1.998-0.068 3e-3 -0.067 6e-3 -0.068 7e-3 -0.067 0.01-0.067 0.013-0.067 0.014-0.066 0.017-0.066 0.02-0.066 0.021-0.065 0.024-0.064 0.026-0.063 0.029-0.063 0.031-0.062 0.033-0.06 0.035-0.059 0.037-0.057 0.039-0.056 0.041-0.054 0.042-0.052 0.044-0.051 0.046-0.049 0.048-0.047 0.049-0.045 0.05-0.044 0.052-0.042 0.053-0.04 0.055-0.038 0.056-0.036 0.057-0.035 0.058-0.032 0.06-0.03 0.06-0.028 0.062-0.027 0.062-0.024 0.064-0.021 0.064-0.02 0.066-0.018 0.066-0.015 0.066-0.013 0.068-0.011 0.068-8e-3 0.069-6e-3 0.069-4e-3 0.069-1e-3 0.07v8.114l1e-3 0.051 4e-3 0.051 7e-3 0.05 8e-3 0.05 0.011 0.048 0.014 0.047 0.016 0.047 0.018 0.045 0.02 0.045 0.022 0.043 0.024 0.042 0.026 0.04 0.028 0.039 0.029 0.038 0.032 0.036 0.033 0.035 0.035 0.033 0.036 0.032 0.038 0.029 0.039 0.028 0.04 0.026 0.042 0.024 0.043 0.022 0.045 0.02 0.045 0.018 0.047 0.016 0.047 0.014 0.048 0.011 0.05 8e-3 0.05 7e-3 0.051 4e-3 0.051 1e-3h3l0.051-1e-3 0.051-4e-3 0.05-7e-3 0.05-8e-3 0.048-0.011 0.047-0.014 0.047-0.016 0.045-0.018 0.045-0.02 0.043-0.022 0.042-0.024 0.04-0.026 0.039-0.028 0.038-0.029 0.036-0.032 0.035-0.033 0.033-0.035 0.032-0.036 0.029-0.038 0.028-0.039 0.026-0.04 0.024-0.042 0.022-0.043 0.02-0.045 0.018-0.045 0.016-0.047 0.014-0.047 0.011-0.048 8e-3 -0.05 7e-3 -0.05 4e-3 -0.051 1e-3 -0.051v-3h6l-2.401-3.201-0.036-0.046-0.037-0.046-0.038-0.044-0.04-0.043-0.041-0.041-0.041-0.04-0.043-0.039-0.044-0.038-0.045-0.036-0.046-0.035-0.047-0.034-0.047-0.032-0.098-0.06-0.05-0.028-0.051-0.026-0.052-0.025-0.053-0.023-0.053-0.022-0.053-0.021-0.055-0.019-0.055-0.017-0.055-0.016-0.056-0.014-0.056-0.012-0.057-0.011-0.058-0.01-0.057-7e-3 -0.058-6e-3 -0.059-5e-3 -0.058-2e-3 -0.059-1e-3h-1e-3l-3.838-2.741-0.057-0.04-0.059-0.037-0.06-0.036-0.061-0.033-0.061-0.03-0.063-0.029-0.063-0.026-0.064-0.025-0.064-0.021-0.065-0.02-0.066-0.017-0.066-0.016-0.067-0.012-0.067-0.011-0.067-8e-3 -0.067-6e-3 -0.068-4e-3 -0.067-2e-3 -0.068 1e-3z"/></g><path d="m30 10v-4.022c0-1.2-0.715-2.285-1.818-2.757-0.458-0.196-0.983-0.421-1.552-0.665-2.356-1.01-5.062-0.769-7.202 0.643-2.14 1.411-3.428 3.803-3.428 6.366v3e-3c0 2.502 0.994 4.901 2.763 6.669 1.768 1.769 4.167 2.763 6.669 2.763h1.568c1.657 0 3-1.343 3-3v-6z" fill="#fbc546"/><clipPath id="_clip3"><path d="m30 10v-4.022c0-1.2-0.715-2.285-1.818-2.757-0.458-0.196-0.983-0.421-1.552-0.665-2.356-1.01-5.062-0.769-7.202 0.643-2.14 1.411-3.428 3.803-3.428 6.366v3e-3c0 2.502 0.994 4.901 2.763 6.669 1.768 1.769 4.167 2.763 6.669 2.763h1.568c1.657 0 3-1.343 3-3v-6z"/></clipPath><g clip-path="url(#_clip3)" fill="#e59a10"><path d="m25 17s-1.983-1.416-3.838-2.741c-0.609-0.436-1.411-0.494-2.077-0.151s-1.085 1.029-1.085 1.778v8.114c0 0.552 0.448 1 1 1h3c0.552 0 1-0.448 1-1v-3h6s-1.525-2.034-2.401-3.201c-0.377-0.503-0.969-0.799-1.598-0.799h-1e-3z"/><path d="m20.155 11.889 0.135 8e-3 0.134 0.012 0.135 0.016 0.133 0.021 0.133 0.026 0.133 0.03 0.131 0.035 0.13 0.039 0.13 0.044 0.128 0.049 0.126 0.052 0.125 0.058 0.124 0.061 0.121 0.066 0.119 0.071 0.118 0.075 0.101 0.069 3.426 2.447 0.076 0.015 0.113 0.025 0.112 0.028 0.111 0.032 0.109 0.035 0.109 0.037 0.107 0.041 0.107 0.044 0.105 0.047 0.103 0.05 0.102 0.053 0.1 0.055 0.099 0.059 0.098 0.062 0.095 0.064 0.093 0.067 0.092 0.07 0.09 0.072 0.088 0.076 0.086 0.078 0.084 0.08 0.081 0.084 0.079 0.085 0.077 0.088 0.075 0.091 0.062 0.081 4.493 5.991-0.211 0.422h-7.472v1.025l-3e-3 0.127-0.012 0.152-0.019 0.151-0.026 0.148-0.034 0.145-0.041 0.144-0.047 0.139-0.054 0.137-0.06 0.134-0.067 0.129-0.072 0.126-0.078 0.122-0.084 0.118-0.088 0.113-0.094 0.108-0.099 0.104-0.104 0.099-0.109 0.094-0.112 0.088-0.118 0.084-0.122 0.078-0.125 0.072-0.13 0.067-0.134 0.06-0.137 0.054-0.14 0.047-0.143 0.041-0.146 0.034-0.148 0.026-0.15 0.019-0.151 0.012-0.128 3e-3h-3.05l-0.128-3e-3 -0.151-0.012-0.15-0.019-0.148-0.026-0.146-0.034-0.143-0.041-0.141-0.047-0.136-0.054-0.134-0.06-0.13-0.067-0.125-0.072-0.122-0.078-0.117-0.083-0.114-0.089-0.108-0.095-0.103-0.098-0.099-0.104-0.095-0.108-0.089-0.114-0.083-0.117-0.078-0.121-0.072-0.126-0.067-0.13-0.06-0.134-0.054-0.137-0.048-0.14-0.04-0.142-0.034-0.146-0.026-0.149-0.019-0.15-0.012-0.151-3e-3 -0.127v-8.157l2e-3 -0.122 7e-3 -0.14 0.012-0.138 0.017-0.137 0.022-0.137 0.026-0.134 0.03-0.134 0.035-0.132 0.04-0.131 0.044-0.129 0.048-0.127 0.052-0.125 0.057-0.123 0.06-0.121 0.064-0.119 0.069-0.117 0.072-0.114 0.077-0.112 0.08-0.109 0.083-0.107 0.088-0.103 0.091-0.101 0.094-0.098 0.098-0.095 0.102-0.092 0.105-0.088 0.108-0.085 0.111-0.081 0.114-0.078 0.118-0.074 0.12-0.07 0.123-0.067 0.126-0.061 0.127-0.058 0.128-0.052 0.13-0.048 0.131-0.043 0.132-0.039 0.133-0.034 0.134-0.029 0.134-0.025 0.134-0.02 0.135-0.015 0.136-0.011 0.135-6e-3 0.135-2e-3 0.136 3e-3zm-0.213 1.998-0.068 3e-3 -0.067 6e-3 -0.068 7e-3 -0.067 0.01-0.067 0.013-0.067 0.014-0.066 0.017-0.066 0.02-0.066 0.021-0.065 0.024-0.064 0.026-0.063 0.029-0.063 0.031-0.062 0.033-0.06 0.035-0.059 0.037-0.057 0.039-0.056 0.041-0.054 0.042-0.052 0.044-0.051 0.046-0.049 0.048-0.047 0.049-0.045 0.05-0.044 0.052-0.042 0.053-0.04 0.055-0.038 0.056-0.036 0.057-0.035 0.058-0.032 0.06-0.03 0.06-0.028 0.062-0.027 0.062-0.024 0.064-0.021 0.064-0.02 0.066-0.018 0.066-0.015 0.066-0.013 0.068-0.011 0.068-8e-3 0.069-6e-3 0.069-4e-3 0.069-1e-3 0.07v8.114l1e-3 0.051 4e-3 0.051 7e-3 0.05 8e-3 0.05 0.011 0.048 0.014 0.047 0.016 0.047 0.018 0.045 0.02 0.045 0.022 0.043 0.024 0.042 0.026 0.04 0.028 0.039 0.029 0.038 0.032 0.036 0.033 0.035 0.035 0.033 0.036 0.032 0.038 0.029 0.039 0.028 0.04 0.026 0.042 0.024 0.043 0.022 0.045 0.02 0.045 0.018 0.047 0.016 0.047 0.014 0.048 0.011 0.05 8e-3 0.05 7e-3 0.051 4e-3 0.051 1e-3h3l0.051-1e-3 0.051-4e-3 0.05-7e-3 0.05-8e-3 0.048-0.011 0.047-0.014 0.047-0.016 0.045-0.018 0.045-0.02 0.043-0.022 0.042-0.024 0.04-0.026 0.039-0.028 0.038-0.029 0.036-0.032 0.035-0.033 0.033-0.035 0.032-0.036 0.029-0.038 0.028-0.039 0.026-0.04 0.024-0.042 0.022-0.043 0.02-0.045 0.018-0.045 0.016-0.047 0.014-0.047 0.011-0.048 8e-3 -0.05 7e-3 -0.05 4e-3 -0.051 1e-3 -0.051v-3h6l-2.401-3.201-0.036-0.046-0.037-0.046-0.038-0.044-0.04-0.043-0.041-0.041-0.041-0.04-0.043-0.039-0.044-0.038-0.045-0.036-0.046-0.035-0.047-0.034-0.047-0.032-0.098-0.06-0.05-0.028-0.051-0.026-0.052-0.025-0.053-0.023-0.053-0.022-0.053-0.021-0.055-0.019-0.055-0.017-0.055-0.016-0.056-0.014-0.056-0.012-0.057-0.011-0.058-0.01-0.057-7e-3 -0.058-6e-3 -0.059-5e-3 -0.058-2e-3 -0.059-1e-3h-1e-3l-3.838-2.741-0.057-0.04-0.059-0.037-0.06-0.036-0.061-0.033-0.061-0.03-0.063-0.029-0.063-0.026-0.064-0.025-0.064-0.021-0.065-0.02-0.066-0.017-0.066-0.016-0.067-0.012-0.067-0.011-0.067-8e-3 -0.067-6e-3 -0.068-4e-3 -0.067-2e-3 -0.068 1e-3z"/></g><path d="m6 15c0-0.552-0.448-1-1-1s-1 0.448-1 1v2c0 0.552 0.448 1 1 1s1-0.448 1-1v-2z"/><path d="m20 6c0-0.552-0.448-1-1-1s-1 0.448-1 1v2c0 0.552 0.448 1 1 1s1-0.448 1-1v-2z"/><path d="m13 15h-2v2c0 0.552 0.448 1 1 1s1-0.448 1-1v-2z"/><path d="m27 6h-2v2c0 0.552 0.448 1 1 1s1-0.448 1-1v-2z"/><path d="m13 16v-2h-3c-0.552 0-1 0.448-1 1s0.448 1 1 1h3z"/><path d="m27 7v-2h-3c-0.552 0-1 0.448-1 1s0.448 1 1 1h3z"/><path d="m9.695 19.001 0.11 4e-3 0.109 7e-3 0.108 0.01 0.108 0.012 0.108 0.014 0.107 0.018 0.106 0.02 0.106 0.022 0.105 0.025 0.104 0.028 0.104 0.03 0.102 0.032 0.102 0.035 0.101 0.038 0.1 0.04 0.099 0.042 0.098 0.045 0.097 0.047 0.095 0.05 0.095 0.052 0.093 0.054 0.092 0.057 0.091 0.059 0.089 0.061 0.088 0.063 0.086 0.066 0.085 0.068 0.084 0.07 0.082 0.072 0.08 0.074 0.062 0.061-7e-3 -7e-3 0.032 0.031 0.03 0.033 0.028 0.033 0.028 0.035 0.025 0.036 0.024 0.037 0.023 0.039 0.02 0.039 0.019 0.04 0.017 0.041 0.016 0.041 0.013 0.042 0.012 0.043 9e-3 0.043 8e-3 0.044 6e-3 0.044 4e-3 0.044 2e-3 0.044v0.044l-2e-3 0.044-4e-3 0.044-6e-3 0.044-8e-3 0.044-0.01 0.043-0.011 0.043-0.014 0.042-0.015 0.041-0.017 0.041-0.019 0.04-0.021 0.039-0.023 0.038-0.024 0.037-0.025 0.036-0.028 0.035-0.029 0.034-0.03 0.032-0.031 0.031-0.033 0.029-0.035 0.028-0.035 0.027-0.037 0.025-0.037 0.023-0.039 0.021-0.04 0.02-0.04 0.018-0.041 0.016-0.042 0.015-0.043 0.012-0.042 0.011-0.044 9e-3 -0.044 6e-3 -0.044 5e-3 -0.044 3e-3 -0.044 1e-3 -0.044-1e-3 -0.044-3e-3 -0.044-5e-3 -0.044-7e-3 -0.043-9e-3 -0.043-0.01-0.043-0.013-0.042-0.014-0.041-0.017-0.04-0.018-0.04-0.02-0.038-0.021-0.038-0.023-0.036-0.025-0.036-0.027-0.034-0.028-0.033-0.029-7e-3 -7e-3 -0.059-0.058-0.044-0.04-0.045-0.04-0.045-0.038-0.047-0.037-0.047-0.036-0.048-0.035-0.098-0.066-0.051-0.031-0.102-0.058-0.053-0.027-0.106-0.05-0.054-0.023-0.055-0.022-0.055-0.021-0.056-0.019-0.056-0.018-0.057-0.016-0.057-0.015-0.057-0.014-0.058-0.012-0.058-0.011-0.059-9e-3 -0.058-9e-3 -0.059-6e-3 -0.06-5e-3 -0.059-4e-3 -0.06-2e-3 -0.066-1e-3h-2.58l-0.044-1e-3 -0.044-3e-3 -0.044-5e-3 -0.044-7e-3 -0.043-8e-3 -0.043-0.011-0.043-0.013-0.042-0.014-0.041-0.016-0.04-0.018-0.04-0.02-0.038-0.022-0.038-0.023-0.037-0.025-0.035-0.026-0.034-0.028-0.033-0.03-0.032-0.031-0.03-0.032-0.029-0.034-0.027-0.035-0.026-0.036-0.024-0.037-0.022-0.038-0.021-0.039-0.019-0.04-0.017-0.041-0.015-0.041-0.014-0.042-0.012-0.043-9e-3 -0.043-8e-3 -0.044-6e-3 -0.044-4e-3 -0.044-2e-3 -0.044v-0.044l2e-3 -0.044 4e-3 -0.044 6e-3 -0.044 8e-3 -0.044 9e-3 -0.043 0.012-0.043 0.014-0.042 0.015-0.041 0.017-0.041 0.019-0.04 0.021-0.039 0.022-0.038 0.024-0.037 0.026-0.036 0.027-0.035 0.029-0.034 0.03-0.032 0.032-0.031 0.033-0.03 0.034-0.028 0.035-0.026 0.037-0.025 0.038-0.023 0.038-0.022 0.04-0.02 0.04-0.018 0.041-0.016 0.042-0.014 0.043-0.013 0.043-0.011 0.043-8e-3 0.044-7e-3 0.044-5e-3 0.044-3e-3 0.044-1e-3h2.592l0.103 1e-3z" fill="#593604"/><path d="m23.695 10.001 0.11 4e-3 0.109 7e-3 0.108 0.01 0.108 0.012 0.108 0.014 0.107 0.018 0.106 0.02 0.106 0.022 0.105 0.025 0.104 0.028 0.104 0.03 0.102 0.032 0.102 0.035 0.101 0.038 0.1 0.04 0.099 0.042 0.098 0.045 0.097 0.047 0.095 0.05 0.095 0.052 0.093 0.054 0.092 0.057 0.091 0.059 0.089 0.061 0.088 0.063 0.086 0.066 0.085 0.068 0.084 0.07 0.082 0.072 0.08 0.074 0.065 0.064-4e-3 -4e-3 0.031 0.031 0.03 0.033 0.029 0.034 0.027 0.035 0.025 0.036 0.024 0.038 0.022 0.038 0.02 0.039 0.019 0.04 0.016 0.041 0.015 0.042 0.013 0.042 0.012 0.043 9e-3 0.043 7e-3 0.044 6e-3 0.044 3e-3 0.044 2e-3 0.044v0.044l-3e-3 0.044-4e-3 0.045-6e-3 0.043-9e-3 0.044-0.01 0.043-0.012 0.042-0.014 0.042-0.015 0.042-0.018 0.04-0.019 0.04-0.021 0.039-0.023 0.038-0.024 0.037-0.026 0.036-0.028 0.034-0.029 0.034-0.031 0.032-0.031 0.03-0.034 0.03-0.034 0.027-0.036 0.026-0.037 0.025-0.038 0.023-0.038 0.021-0.04 0.02-0.041 0.017-0.041 0.016-0.042 0.014-0.043 0.012-0.043 0.011-0.043 8e-3 -0.044 6e-3 -0.044 5e-3 -0.044 2e-3 -0.044 1e-3 -0.044-1e-3 -0.045-4e-3 -0.043-5e-3 -0.044-7e-3 -0.043-9e-3 -0.043-0.011-0.043-0.013-0.041-0.015-0.041-0.017-0.04-0.018-0.04-0.02-0.038-0.022-0.038-0.024-0.036-0.025-0.035-0.027-0.034-0.028-0.033-0.03-4e-3 -4e-3 -0.056-0.055-0.044-0.04-0.045-0.04-0.045-0.038-0.047-0.037-0.047-0.036-0.048-0.035-0.098-0.066-0.051-0.031-0.102-0.058-0.053-0.027-0.106-0.05-0.054-0.023-0.055-0.022-0.055-0.021-0.056-0.019-0.056-0.018-0.057-0.016-0.057-0.015-0.057-0.014-0.058-0.012-0.058-0.011-0.059-9e-3 -0.058-9e-3 -0.059-6e-3 -0.06-5e-3 -0.059-4e-3 -0.06-2e-3 -0.066-1e-3h-2.58l-0.044-1e-3 -0.044-3e-3 -0.044-5e-3 -0.044-7e-3 -0.043-8e-3 -0.043-0.011-0.043-0.013-0.042-0.014-0.041-0.016-0.04-0.018-0.04-0.02-0.038-0.022-0.038-0.023-0.037-0.025-0.035-0.026-0.034-0.028-0.033-0.03-0.032-0.031-0.03-0.032-0.029-0.034-0.027-0.035-0.026-0.036-0.024-0.037-0.022-0.038-0.021-0.039-0.019-0.04-0.017-0.041-0.015-0.041-0.014-0.042-0.012-0.043-9e-3 -0.043-8e-3 -0.044-6e-3 -0.044-4e-3 -0.044-2e-3 -0.044v-0.044l2e-3 -0.044 4e-3 -0.044 6e-3 -0.044 8e-3 -0.044 9e-3 -0.043 0.012-0.043 0.014-0.042 0.015-0.041 0.017-0.041 0.019-0.04 0.021-0.039 0.022-0.038 0.024-0.037 0.026-0.036 0.027-0.035 0.029-0.034 0.03-0.032 0.032-0.031 0.033-0.03 0.034-0.028 0.035-0.026 0.037-0.025 0.038-0.023 0.038-0.022 0.04-0.02 0.04-0.018 0.041-0.016 0.042-0.014 0.043-0.013 0.043-0.011 0.043-8e-3 0.044-7e-3 0.044-5e-3 0.044-3e-3 0.044-1e-3h2.592l0.103 1e-3z" fill="#593604"/></g><path d="m4 23-0.894 0.447c-0.678 0.339-1.106 1.032-1.106 1.789v3.764c0 0.265 0.105 0.52 0.293 0.707 0.187 0.188 0.442 0.293 0.707 0.293h2c0.552 0 1-0.448 1-1v-2h2c0.552 0 1-0.448 1-1 0-0.265-0.105-0.52-0.293-0.707-0.187-0.188-0.442-0.293-0.707-0.293h-4v-2z" fill="#fbc546"/><path d="m6 23h2.025l0.124 3e-3 0.147 0.011 0.147 0.018 0.145 0.026 0.144 0.032 0.141 0.039 0.139 0.046 0.136 0.053 0.134 0.059 0.131 0.066 0.128 0.072 0.124 0.079 0.12 0.084 0.117 0.091 0.112 0.097 0.108 0.102 0.102 0.108 0.097 0.112 0.091 0.117 0.085 0.121 0.078 0.124 0.072 0.127 0.066 0.131 0.059 0.134 0.053 0.136 0.046 0.139 0.039 0.141 0.033 0.145 0.025 0.144 0.018 0.146 0.011 0.148 4e-3 0.15-4e-3 0.152-0.012 0.152-0.019 0.15-0.026 0.147-0.034 0.146-0.041 0.143-0.047 0.14-0.054 0.137-0.06 0.134-0.067 0.129-0.072 0.126-0.078 0.122-0.084 0.118-0.088 0.112-0.094 0.109-0.099 0.104-0.104 0.099-0.108 0.093-0.114 0.09-0.117 0.083-0.121 0.078-0.127 0.072-0.129 0.067-0.133 0.06-0.137 0.054-0.141 0.047-0.143 0.041-0.145 0.034-0.149 0.026-0.15 0.019-0.151 0.012-0.128 3e-3h-0.025v0.025l-3e-3 0.128-0.012 0.152-0.019 0.149-0.026 0.148-0.034 0.146-0.041 0.144-0.047 0.14-0.054 0.137-0.06 0.133-0.067 0.129-0.072 0.126-0.078 0.122-0.084 0.118-0.088 0.112-0.094 0.109-0.099 0.104-0.104 0.099-0.109 0.094-0.113 0.089-0.117 0.083-0.122 0.078-0.126 0.072-0.129 0.067-0.134 0.06-0.136 0.054-0.14 0.047-0.144 0.041-0.146 0.034-0.148 0.026-0.15 0.019-0.151 0.012-0.128 3e-3h-2.05l-0.124-3e-3 -0.148-0.011-0.146-0.018-0.145-0.026-0.143-0.032-0.142-0.039-0.139-0.046-0.136-0.053-0.134-0.059-0.131-0.066-0.128-0.072-0.124-0.079-0.12-0.084-0.117-0.091-0.112-0.097-0.108-0.102-0.102-0.108-0.097-0.112-0.091-0.117-0.084-0.12-0.079-0.124-0.072-0.128-0.066-0.132-0.059-0.133-0.053-0.136-0.046-0.139-0.039-0.141-0.032-0.144-0.026-0.145-0.018-0.147-0.011-0.147-3e-3 -0.124v-3.806l2e-3 -0.124 8e-3 -0.141 0.012-0.139 0.017-0.14 0.022-0.138 0.027-0.136 0.031-0.134 0.036-0.134 0.04-0.132 0.045-0.13 0.049-0.128 0.053-0.127 0.058-0.124 0.062-0.122 0.065-0.119 0.07-0.118 0.074-0.115 0.078-0.113 0.081-0.109 0.086-0.107 0.089-0.105 0.092-0.101 0.097-0.098 0.1-0.095 0.103-0.092 0.107-0.088 0.11-0.085 0.113-0.081 0.117-0.077 0.119-0.074 0.123-0.069 0.109-0.058 3.805-1.902v3.236zm-2.894 0.447-0.063 0.033-0.062 0.035-0.059 0.037-0.058 0.038-0.057 0.041-0.055 0.042-0.053 0.044-0.052 0.046-0.05 0.048-0.048 0.049-0.046 0.05-0.045 0.052-0.043 0.054-0.04 0.055-0.039 0.056-0.037 0.058-0.035 0.058-0.033 0.06-0.031 0.061-0.029 0.062-0.027 0.064-0.024 0.064-0.022 0.065-0.021 0.066-0.017 0.066-0.016 0.068-0.013 0.068-0.011 0.069-9e-3 0.069-6e-3 0.07-4e-3 0.07-1e-3 0.071v3.764l1e-3 0.05 4e-3 0.049 6e-3 0.049 8e-3 0.048 0.011 0.048 0.013 0.047 0.016 0.046 0.017 0.046 0.02 0.044 0.022 0.044 0.024 0.042 0.026 0.042 0.028 0.04 0.03 0.039 0.033 0.037 0.034 0.036 0.036 0.034 0.037 0.033 0.039 0.03 0.04 0.028 0.042 0.026 0.042 0.024 0.044 0.022 0.044 0.02 0.046 0.017 0.046 0.016 0.047 0.013 0.048 0.011 0.048 8e-3 0.049 6e-3 0.049 4e-3 0.05 1e-3h2l0.051-1e-3 0.051-4e-3 0.05-7e-3 0.05-8e-3 0.048-0.011 0.047-0.014 0.047-0.016 0.045-0.018 0.045-0.02 0.043-0.022 0.042-0.024 0.04-0.026 0.039-0.028 0.038-0.029 0.036-0.032 0.035-0.033 0.033-0.035 0.032-0.036 0.029-0.038 0.028-0.039 0.026-0.04 0.024-0.042 0.022-0.043 0.02-0.045 0.018-0.045 0.016-0.047 0.014-0.047 0.011-0.048 8e-3 -0.05 7e-3 -0.05 4e-3 -0.051 1e-3 -0.051v-2h2l0.051-1e-3 0.051-4e-3 0.05-7e-3 0.05-8e-3 0.048-0.011 0.047-0.014 0.047-0.016 0.045-0.018 0.045-0.02 0.043-0.022 0.042-0.024 0.04-0.026 0.039-0.028 0.038-0.029 0.036-0.032 0.035-0.033 0.033-0.035 0.032-0.036 0.029-0.038 0.028-0.039 0.026-0.04 0.024-0.042 0.022-0.043 0.02-0.045 0.018-0.045 0.016-0.047 0.014-0.047 0.011-0.048 8e-3 -0.05 7e-3 -0.05 4e-3 -0.051 1e-3 -0.051-1e-3 -0.05-4e-3 -0.049-6e-3 -0.049-8e-3 -0.048-0.011-0.048-0.013-0.047-0.016-0.046-0.017-0.046-0.02-0.044-0.022-0.044-0.024-0.042-0.026-0.042-0.028-0.04-0.03-0.039-0.033-0.037-0.034-0.036-0.036-0.034-0.037-0.033-0.039-0.03-0.04-0.028-0.042-0.026-0.042-0.024-0.044-0.022-0.044-0.02-0.046-0.017-0.046-0.016-0.047-0.013-0.048-0.011-0.048-8e-3 -0.049-6e-3 -0.049-4e-3 -0.05-1e-3h-4v-2l-0.894 0.447z"/><path d="m18 14-0.894 0.447c-0.678 0.339-1.106 1.032-1.106 1.789v3.764c0 0.265 0.105 0.52 0.293 0.707 0.187 0.188 0.442 0.293 0.707 0.293h2c0.552 0 1-0.448 1-1v-2h2c0.552 0 1-0.448 1-1 0-0.265-0.105-0.52-0.293-0.707-0.187-0.188-0.442-0.293-0.707-0.293h-4v-2z" fill="#fbc546"/><path d="m20 14h2.025l0.124 3e-3 0.147 0.011 0.147 0.018 0.145 0.026 0.144 0.032 0.141 0.039 0.139 0.046 0.136 0.053 0.134 0.059 0.131 0.066 0.128 0.072 0.124 0.079 0.12 0.084 0.117 0.091 0.112 0.097 0.108 0.102 0.102 0.108 0.097 0.112 0.091 0.117 0.085 0.121 0.078 0.124 0.072 0.127 0.066 0.131 0.059 0.134 0.053 0.136 0.046 0.139 0.039 0.141 0.033 0.145 0.025 0.144 0.018 0.146 0.011 0.148 3e-3 0.124v0.051l-3e-3 0.127-0.012 0.152-0.019 0.15-0.026 0.147-0.034 0.146-0.041 0.143-0.047 0.14-0.054 0.137-0.06 0.134-0.067 0.129-0.072 0.126-0.078 0.122-0.084 0.118-0.088 0.112-0.094 0.109-0.099 0.104-0.104 0.099-0.108 0.093-0.114 0.09-0.117 0.083-0.121 0.078-0.127 0.072-0.129 0.067-0.133 0.06-0.137 0.054-0.141 0.047-0.143 0.041-0.145 0.034-0.149 0.026-0.15 0.019-0.151 0.012-0.128 3e-3h-0.025v0.025l-3e-3 0.128-0.012 0.152-0.019 0.149-0.026 0.148-0.034 0.146-0.041 0.144-0.047 0.14-0.054 0.136-0.06 0.134-0.067 0.129-0.072 0.126-0.078 0.122-0.084 0.118-0.088 0.112-0.094 0.109-0.099 0.104-0.104 0.099-0.109 0.094-0.113 0.089-0.117 0.083-0.122 0.078-0.126 0.072-0.129 0.067-0.134 0.06-0.136 0.054-0.14 0.047-0.144 0.041-0.146 0.034-0.148 0.026-0.15 0.019-0.151 0.012-0.128 3e-3h-2.05l-0.124-3e-3 -0.148-0.011-0.146-0.018-0.145-0.026-0.143-0.032-0.142-0.039-0.139-0.046-0.136-0.053-0.134-0.059-0.131-0.066-0.128-0.072-0.124-0.079-0.12-0.084-0.117-0.091-0.112-0.097-0.108-0.102-0.102-0.108-0.097-0.112-0.091-0.117-0.084-0.12-0.079-0.124-0.072-0.128-0.066-0.132-0.059-0.133-0.053-0.136-0.046-0.139-0.039-0.141-0.032-0.144-0.026-0.145-0.018-0.147-0.011-0.147-3e-3 -0.124v-3.806l2e-3 -0.124 8e-3 -0.141 0.012-0.139 0.017-0.14 0.022-0.138 0.027-0.136 0.031-0.134 0.036-0.134 0.04-0.132 0.045-0.13 0.049-0.128 0.053-0.127 0.058-0.124 0.062-0.122 0.065-0.119 0.07-0.118 0.074-0.115 0.078-0.113 0.081-0.109 0.086-0.107 0.089-0.105 0.092-0.101 0.097-0.098 0.1-0.095 0.103-0.092 0.107-0.088 0.11-0.085 0.113-0.081 0.117-0.077 0.119-0.074 0.123-0.069 0.109-0.058 3.805-1.902v3.236zm-2.894 0.447-0.063 0.033-0.062 0.035-0.059 0.037-0.058 0.038-0.057 0.041-0.055 0.042-0.053 0.044-0.052 0.046-0.05 0.048-0.048 0.049-0.046 0.05-0.045 0.052-0.043 0.054-0.04 0.055-0.039 0.056-0.037 0.058-0.035 0.058-0.033 0.06-0.031 0.061-0.029 0.062-0.027 0.064-0.024 0.064-0.022 0.065-0.021 0.066-0.017 0.066-0.016 0.068-0.013 0.068-0.011 0.069-9e-3 0.069-6e-3 0.07-4e-3 0.07-1e-3 0.071v3.764l1e-3 0.05 4e-3 0.049 6e-3 0.049 8e-3 0.048 0.011 0.048 0.013 0.047 0.016 0.046 0.017 0.046 0.02 0.044 0.022 0.044 0.024 0.042 0.026 0.042 0.028 0.04 0.03 0.039 0.033 0.037 0.034 0.036 0.036 0.034 0.037 0.033 0.039 0.03 0.04 0.028 0.042 0.026 0.042 0.024 0.044 0.022 0.044 0.02 0.046 0.017 0.046 0.016 0.047 0.013 0.048 0.011 0.048 8e-3 0.049 6e-3 0.049 4e-3 0.05 1e-3h2l0.051-1e-3 0.051-4e-3 0.05-7e-3 0.05-8e-3 0.048-0.011 0.047-0.014 0.047-0.016 0.045-0.018 0.045-0.02 0.043-0.022 0.042-0.024 0.04-0.026 0.039-0.028 0.038-0.029 0.036-0.032 0.035-0.033 0.033-0.035 0.032-0.036 0.029-0.038 0.028-0.039 0.026-0.04 0.024-0.042 0.022-0.043 0.02-0.045 0.018-0.045 0.016-0.047 0.014-0.047 0.011-0.048 8e-3 -0.05 7e-3 -0.05 4e-3 -0.051 1e-3 -0.051v-2h2l0.051-1e-3 0.051-4e-3 0.05-7e-3 0.05-8e-3 0.048-0.011 0.047-0.014 0.047-0.016 0.045-0.018 0.045-0.02 0.043-0.022 0.042-0.024 0.04-0.026 0.039-0.028 0.038-0.029 0.036-0.032 0.035-0.033 0.033-0.035 0.032-0.036 0.029-0.038 0.028-0.039 0.026-0.04 0.024-0.042 0.022-0.043 0.02-0.045 0.018-0.045 0.016-0.047 0.014-0.047 0.011-0.048 8e-3 -0.05 7e-3 -0.05 4e-3 -0.051 1e-3 -0.051-1e-3 -0.05-4e-3 -0.049-6e-3 -0.049-8e-3 -0.048-0.011-0.048-0.013-0.047-0.016-0.046-0.017-0.046-0.02-0.044-0.022-0.044-0.024-0.042-0.026-0.042-0.028-0.04-0.03-0.039-0.033-0.037-0.034-0.036-0.036-0.034-0.037-0.033-0.039-0.03-0.04-0.028-0.042-0.026-0.042-0.024-0.044-0.022-0.044-0.02-0.046-0.017-0.046-0.016-0.047-0.013-0.048-0.011-0.048-8e-3 -0.049-6e-3 -0.049-4e-3 -0.05-1e-3h-4v-2l-0.894 0.447z"/><rect x="8" y="27" width="2" height="2"/><rect x="22" y="18" width="2" height="2"/></g></svg>
