<?xml version="1.0" encoding="UTF-8" standalone="no"?><!DOCTYPE svg PUBLIC "-//W3C//DTD SVG 1.1//EN" "http://www.w3.org/Graphics/SVG/1.1/DTD/svg11.dtd"><svg width="100%" height="100%" viewBox="0 0 32 32" version="1.1" xmlns="http://www.w3.org/2000/svg" xmlns:xlink="http://www.w3.org/1999/xlink" xml:space="preserve" xmlns:serif="http://www.serif.com/" style="fill-rule:evenodd;clip-rule:evenodd;stroke-linejoin:round;stroke-miterlimit:1.41421;">
<metadata>
<rdf:RDF xmlns:cc="http://web.resource.org/cc/"
         xmlns:rdf="http://www.w3.org/1999/02/22-rdf-syntax-ns#"
         xmlns:dc = "http://purl.org/dc/elements/1.1/"
         >

     <rdf:Description rdf:about="">
       <dc:title>Mutant Standard S3</dc:title>
     </rdf:Description>

    <cc:work rdf:about="">
        <cc:license rdf:resource="http://creativecommons.org/licenses/by-nc-sa/4.0/"/>
        <cc:attributionName>Dzuk</cc:attributionName>
        <cc:attributionURL>http://mutant.tech/</cc:attributionURL>
    </cc:work>

</rdf:RDF>
</metadata>
<rect id="think_imp" x="0" y="0" width="32" height="32" style="fill:none;"/><clipPath id="_clip1"><rect x="0" y="0" width="32" height="32"/></clipPath><g clip-path="url(#_clip1)"><g id="outline"><path d="M16.174,2.001l0.174,0.003l0.173,0.006l0.173,0.007l0.173,0.01l0.173,0.012l0.172,0.013l0.172,0.016l0.171,0.019l0.171,0.02l0.171,0.022l0.17,0.024l0.17,0.027l0.17,0.028l0.169,0.031l0.168,0.032l0.168,0.035l0.167,0.037l0.167,0.038l0.167,0.041l0.165,0.043l0.165,0.045l0.165,0.046l0.164,0.049l0.163,0.051l0.162,0.053l0.162,0.054l0.161,0.057l0.161,0.058l0.16,0.061l0.158,0.062l0.159,0.065l0.157,0.066l0.156,0.068l0.156,0.07l0.155,0.072l0.154,0.074l0.153,0.076l0.152,0.078l0.151,0.079l0.151,0.082l0.149,0.083l0.148,0.085l0.148,0.087l0.146,0.089l0.146,0.09l0.144,0.093l0.143,0.094l0.142,0.096l0.142,0.098l0.139,0.1l0.139,0.101l0.138,0.103l0.136,0.105l0.136,0.107l0.134,0.109l0.133,0.11l0.131,0.112l0.13,0.113l0.13,0.116l0.127,0.117l0.127,0.119l0.125,0.12l0.124,0.123l0.122,0.123l0.12,0.125l0.119,0.127l0.117,0.127l0.116,0.13l0.113,0.13l0.112,0.131l0.11,0.133l0.109,0.134l0.107,0.136l0.105,0.136l0.103,0.138l0.101,0.139l0.1,0.14l0.098,0.14l0.096,0.143l0.094,0.143l0.093,0.144l0.09,0.146l0.089,0.146l0.087,0.148l0.085,0.148l0.083,0.149l0.082,0.15l0.079,0.152l0.078,0.152l0.076,0.153l0.074,0.154l0.072,0.155l0.07,0.156l0.068,0.156l0.066,0.157l0.065,0.158l0.062,0.159l0.061,0.16l0.058,0.161l0.057,0.161l0.054,0.162l0.053,0.162l0.051,0.163l0.049,0.164l0.046,0.165l0.045,0.165l0.043,0.166l0.04,0.166l0.039,0.167l0.037,0.167l0.035,0.168l0.032,0.168l0.031,0.169l0.028,0.17l0.027,0.17l0.024,0.17l0.022,0.171l0.02,0.171l0.019,0.171l0.016,0.172l0.013,0.172l0.012,0.173l0.01,0.173l0.007,0.173l0.006,0.173l0.003,0.174l0.001,0.168l0,2.02l-0.001,0.148l-0.003,0.155l-0.005,0.153l-0.007,0.153l-0.008,0.153l-0.011,0.153l-0.012,0.151l-0.015,0.152l-0.016,0.15l-0.018,0.151l-0.02,0.15l-0.022,0.149l-0.024,0.148l-0.025,0.148l-0.027,0.148l-0.03,0.147l-0.03,0.146l-0.033,0.145l-0.034,0.145l-0.037,0.145l-0.038,0.143l-0.039,0.143l-0.041,0.142l-0.043,0.141l-0.045,0.141l-0.047,0.14l-0.048,0.139l-0.049,0.138l-0.052,0.138l-0.053,0.137l-0.054,0.135l-0.056,0.135l-0.058,0.135l-0.059,0.133l-0.061,0.133l-0.062,0.131l-0.065,0.131l-0.065,0.13l-0.067,0.128l-0.068,0.128l-0.071,0.128l-0.071,0.126l-0.073,0.125l-0.074,0.124l-0.076,0.123l-0.077,0.122l-0.079,0.121l-0.08,0.12l-0.082,0.119l-0.083,0.118l-0.084,0.117l-0.085,0.116l-0.087,0.115l-0.089,0.114l-0.089,0.113l-0.091,0.111l-0.092,0.11l-0.094,0.11l-0.095,0.108l-0.096,0.107l-0.097,0.106l-0.098,0.104l-0.1,0.103l-0.101,0.103l-0.103,0.101l-0.103,0.099l-0.105,0.099l-0.105,0.097l-0.107,0.096l-0.108,0.095l-0.11,0.094l-0.11,0.092l-0.112,0.091l-0.112,0.089l-0.114,0.089l-0.115,0.087l-0.116,0.085l-0.117,0.084l-0.118,0.083l-0.119,0.082l-0.12,0.08l-0.121,0.079l-0.122,0.077l-0.123,0.076l-0.124,0.074l-0.125,0.073l-0.126,0.071l-0.127,0.07l-0.129,0.069l-0.128,0.067l-0.13,0.065l-0.131,0.064l-0.132,0.063l-0.132,0.061l-0.133,0.059l-0.135,0.058l-0.135,0.056l-0.135,0.055l-0.137,0.052l-0.138,0.052l-0.138,0.049l-0.139,0.048l-0.14,0.047l-0.141,0.045l-0.141,0.043l-0.142,0.041l-0.143,0.039l-0.143,0.038l-0.145,0.037l-0.145,0.034l-0.145,0.033l-0.146,0.03l-0.147,0.03l-0.148,0.027l-0.148,0.025l-0.148,0.024l-0.149,0.022l-0.15,0.02l-0.15,0.018l-0.151,0.016l-0.152,0.015l-0.151,0.012l-0.153,0.011l-0.153,0.008l-0.153,0.007l-0.153,0.005l-0.155,0.003l-0.148,0.001l-4.028,0l-0.148,-0.001l-0.155,-0.003l-0.153,-0.005l-0.153,-0.007l-0.153,-0.008l-0.153,-0.011l-0.151,-0.012l-0.152,-0.015l-0.151,-0.016l-0.15,-0.018l-0.15,-0.02l-0.149,-0.022l-0.148,-0.024l-0.148,-0.025l-0.148,-0.027l-0.147,-0.03l-0.146,-0.03l-0.145,-0.033l-0.145,-0.034l-0.145,-0.037l-0.143,-0.038l-0.143,-0.039l-0.142,-0.041l-0.141,-0.043l-0.141,-0.045l-0.14,-0.046l-0.139,-0.049l-0.138,-0.049l-0.138,-0.052l-0.137,-0.052l-0.135,-0.055l-0.135,-0.056l-0.135,-0.058l-0.133,-0.059l-0.133,-0.061l-0.131,-0.063l-0.131,-0.063l-0.13,-0.066l-0.129,-0.067l-0.127,-0.069l-0.128,-0.07l-0.126,-0.071l-0.125,-0.073l-0.124,-0.074l-0.123,-0.076l-0.122,-0.077l-0.121,-0.079l-0.12,-0.08l-0.119,-0.082l-0.118,-0.083l-0.117,-0.084l-0.116,-0.085l-0.115,-0.087l-0.114,-0.088l-0.112,-0.09l-0.112,-0.091l-0.11,-0.092l-0.109,-0.094l-0.109,-0.095l-0.107,-0.096l-0.105,-0.097l-0.105,-0.098l-0.103,-0.1l-0.103,-0.101l-0.101,-0.102l-0.099,-0.104l-0.099,-0.105l-0.097,-0.106l-0.096,-0.106l-0.095,-0.108l-0.094,-0.11l-0.092,-0.11l-0.091,-0.112l-0.089,-0.112l-0.089,-0.114l-0.087,-0.115l-0.085,-0.116l-0.085,-0.117l-0.082,-0.118l-0.082,-0.119l-0.08,-0.12l-0.079,-0.121l-0.077,-0.122l-0.076,-0.123l-0.074,-0.124l-0.073,-0.125l-0.072,-0.127l-0.069,-0.126l-0.069,-0.128l-0.067,-0.129l-0.066,-0.13l-0.063,-0.131l-0.063,-0.131l-0.061,-0.133l-0.059,-0.133l-0.058,-0.135l-0.056,-0.134l-0.055,-0.137l-0.053,-0.136l-0.051,-0.138l-0.049,-0.138l-0.049,-0.139l-0.046,-0.14l-0.045,-0.141l-0.043,-0.141l-0.041,-0.142l-0.04,-0.143l-0.037,-0.143l-0.036,-0.145l-0.035,-0.145l-0.033,-0.145l-0.03,-0.146l-0.03,-0.147l-0.027,-0.148l-0.025,-0.148l-0.024,-0.148l-0.022,-0.149l-0.02,-0.15l-0.018,-0.151l-0.016,-0.15l-0.015,-0.152l-0.012,-0.151l-0.011,-0.153l-0.008,-0.153l-0.007,-0.153l-0.005,-0.153l-0.003,-0.155l-0.001,-0.148l0,-2.022l0.001,-0.168l0.003,-0.174l0.006,-0.173l0.007,-0.173l0.01,-0.173l0.012,-0.172l0.013,-0.173l0.016,-0.172l0.019,-0.171l0.02,-0.171l0.022,-0.171l0.024,-0.17l0.027,-0.17l0.028,-0.169l0.031,-0.169l0.032,-0.169l0.035,-0.168l0.037,-0.167l0.038,-0.167l0.041,-0.166l0.043,-0.166l0.045,-0.165l0.046,-0.164l0.049,-0.164l0.051,-0.163l0.052,-0.163l0.055,-0.162l0.057,-0.161l0.058,-0.16l0.061,-0.16l0.062,-0.159l0.064,-0.158l0.067,-0.157l0.068,-0.157l0.07,-0.155l0.072,-0.155l0.074,-0.154l0.076,-0.153l0.077,-0.152l0.08,-0.152l0.081,-0.15l0.084,-0.149l0.085,-0.148l0.087,-0.148l0.089,-0.146l0.09,-0.145l0.092,-0.145l0.095,-0.143l0.096,-0.142l0.098,-0.141l0.099,-0.14l0.102,-0.139l0.103,-0.138l0.105,-0.136l0.107,-0.135l0.108,-0.134l0.11,-0.133l0.112,-0.132l0.114,-0.13l0.115,-0.129l0.117,-0.128l0.119,-0.126l0.121,-0.125l0.122,-0.124l0.124,-0.122l0.125,-0.121l0.126,-0.119l0.128,-0.117l0.129,-0.115l0.13,-0.114l0.132,-0.112l0.133,-0.11l0.134,-0.108l0.135,-0.107l0.136,-0.105l0.138,-0.103l0.139,-0.102l0.14,-0.099l0.141,-0.098l0.142,-0.096l0.143,-0.095l0.144,-0.092l0.146,-0.09l0.146,-0.089l0.147,-0.087l0.149,-0.085l0.149,-0.084l0.15,-0.081l0.152,-0.08l0.152,-0.077l0.153,-0.076l0.154,-0.074l0.155,-0.072l0.155,-0.07l0.157,-0.068l0.157,-0.067l0.158,-0.064l0.159,-0.062l0.16,-0.061l0.16,-0.058l0.161,-0.057l0.162,-0.055l0.163,-0.052l0.163,-0.051l0.164,-0.049l0.164,-0.046l0.165,-0.045l0.166,-0.043l0.166,-0.041l0.167,-0.038l0.167,-0.037l0.168,-0.035l0.169,-0.032l0.169,-0.031l0.169,-0.028l0.17,-0.027l0.17,-0.024l0.171,-0.022l0.171,-0.02l0.172,-0.019l0.171,-0.016l0.173,-0.013l0.172,-0.012l0.173,-0.01l0.173,-0.007l0.173,-0.006l0.174,-0.003l0.168,-0.001l0.014,0l0.168,0.001Zm-0.3,4l-0.124,0.002l-0.124,0.004l-0.124,0.005l-0.123,0.007l-0.124,0.009l-0.123,0.01l-0.122,0.011l-0.123,0.013l-0.122,0.014l-0.122,0.016l-0.121,0.018l-0.122,0.018l-0.121,0.021l-0.12,0.022l-0.121,0.023l-0.119,0.025l-0.12,0.026l-0.119,0.027l-0.119,0.03l-0.118,0.03l-0.118,0.032l-0.118,0.033l-0.117,0.035l-0.116,0.036l-0.116,0.038l-0.116,0.039l-0.115,0.04l-0.115,0.042l-0.114,0.043l-0.113,0.045l-0.113,0.046l-0.112,0.047l-0.112,0.049l-0.111,0.05l-0.111,0.052l-0.11,0.052l-0.109,0.055l-0.109,0.055l-0.108,0.057l-0.107,0.058l-0.107,0.06l-0.106,0.06l-0.105,0.062l-0.105,0.064l-0.104,0.065l-0.103,0.066l-0.102,0.067l-0.101,0.068l-0.101,0.07l-0.1,0.071l-0.099,0.073l-0.098,0.074l-0.098,0.075l-0.097,0.076l-0.095,0.077l-0.095,0.079l-0.094,0.08l-0.093,0.081l-0.092,0.082l-0.092,0.084l-0.09,0.085l-0.089,0.086l-0.089,0.087l-0.087,0.089l-0.086,0.089l-0.085,0.091l-0.084,0.091l-0.082,0.092l-0.081,0.093l-0.08,0.094l-0.079,0.095l-0.077,0.095l-0.077,0.097l-0.074,0.098l-0.074,0.098l-0.073,0.099l-0.071,0.1l-0.07,0.101l-0.068,0.101l-0.067,0.102l-0.066,0.103l-0.065,0.104l-0.064,0.105l-0.062,0.105l-0.06,0.106l-0.06,0.107l-0.058,0.107l-0.057,0.108l-0.055,0.109l-0.055,0.109l-0.052,0.11l-0.052,0.11l-0.05,0.112l-0.049,0.112l-0.047,0.112l-0.046,0.113l-0.044,0.113l-0.044,0.115l-0.042,0.114l-0.04,0.115l-0.039,0.116l-0.038,0.116l-0.036,0.116l-0.035,0.117l-0.033,0.118l-0.032,0.118l-0.03,0.118l-0.03,0.119l-0.027,0.119l-0.026,0.12l-0.025,0.119l-0.023,0.121l-0.022,0.12l-0.021,0.121l-0.018,0.122l-0.018,0.121l-0.016,0.122l-0.014,0.122l-0.013,0.123l-0.011,0.123l-0.01,0.122l-0.009,0.124l-0.007,0.123l-0.005,0.124l-0.004,0.124l-0.002,0.124l-0.001,0.13l0,1.998l0.001,0.11l0.002,0.103l0.003,0.103l0.004,0.103l0.006,0.102l0.007,0.102l0.009,0.101l0.009,0.102l0.011,0.1l0.012,0.101l0.014,0.099l0.014,0.1l0.016,0.099l0.017,0.098l0.018,0.098l0.019,0.098l0.021,0.097l0.022,0.097l0.022,0.096l0.025,0.096l0.025,0.095l0.026,0.095l0.027,0.094l0.029,0.094l0.03,0.094l0.03,0.093l0.032,0.092l0.033,0.092l0.035,0.092l0.035,0.09l0.036,0.09l0.037,0.09l0.039,0.09l0.039,0.088l0.041,0.088l0.041,0.088l0.043,0.087l0.043,0.086l0.045,0.086l0.045,0.085l0.047,0.085l0.048,0.084l0.048,0.083l0.05,0.083l0.05,0.082l0.052,0.081l0.052,0.081l0.054,0.08l0.054,0.079l0.056,0.079l0.056,0.078l0.057,0.078l0.058,0.076l0.059,0.076l0.06,0.075l0.06,0.075l0.062,0.073l0.062,0.073l0.064,0.073l0.064,0.071l0.065,0.071l0.066,0.07l0.066,0.069l0.068,0.068l0.068,0.068l0.069,0.066l0.07,0.066l0.071,0.065l0.071,0.064l0.072,0.064l0.073,0.062l0.074,0.062l0.075,0.06l0.075,0.06l0.076,0.059l0.076,0.058l0.078,0.057l0.078,0.057l0.079,0.055l0.079,0.054l0.08,0.054l0.081,0.052l0.081,0.052l0.082,0.05l0.083,0.05l0.083,0.048l0.084,0.048l0.085,0.047l0.085,0.045l0.086,0.045l0.086,0.043l0.087,0.043l0.088,0.041l0.088,0.041l0.089,0.039l0.089,0.039l0.09,0.037l0.09,0.036l0.091,0.035l0.091,0.035l0.092,0.033l0.092,0.031l0.093,0.031l0.094,0.03l0.093,0.029l0.095,0.027l0.095,0.026l0.095,0.025l0.096,0.024l0.096,0.023l0.097,0.022l0.097,0.021l0.098,0.019l0.098,0.018l0.098,0.017l0.099,0.016l0.1,0.014l0.1,0.014l0.1,0.012l0.1,0.011l0.101,0.009l0.102,0.009l0.102,0.007l0.102,0.006l0.103,0.004l0.103,0.003l0.103,0.002l0.11,0.001l4.004,0l0.11,-0.001l0.103,-0.002l0.103,-0.003l0.103,-0.004l0.102,-0.006l0.102,-0.007l0.102,-0.009l0.101,-0.009l0.1,-0.011l0.1,-0.012l0.1,-0.014l0.1,-0.014l0.099,-0.016l0.098,-0.017l0.098,-0.018l0.098,-0.019l0.097,-0.021l0.097,-0.022l0.096,-0.023l0.096,-0.024l0.095,-0.025l0.095,-0.026l0.094,-0.027l0.094,-0.029l0.094,-0.03l0.093,-0.03l0.092,-0.032l0.092,-0.033l0.091,-0.035l0.091,-0.035l0.09,-0.036l0.09,-0.037l0.089,-0.039l0.089,-0.039l0.088,-0.041l0.088,-0.041l0.087,-0.043l0.086,-0.043l0.086,-0.045l0.085,-0.045l0.085,-0.047l0.084,-0.048l0.083,-0.048l0.083,-0.05l0.082,-0.05l0.081,-0.052l0.081,-0.052l0.08,-0.054l0.079,-0.054l0.079,-0.055l0.078,-0.057l0.077,-0.057l0.077,-0.058l0.076,-0.059l0.075,-0.06l0.075,-0.06l0.074,-0.062l0.072,-0.062l0.073,-0.064l0.071,-0.064l0.071,-0.065l0.07,-0.066l0.069,-0.066l0.068,-0.068l0.068,-0.068l0.066,-0.069l0.066,-0.07l0.065,-0.071l0.064,-0.071l0.064,-0.073l0.062,-0.072l0.062,-0.074l0.061,-0.075l0.059,-0.075l0.059,-0.076l0.058,-0.076l0.057,-0.078l0.057,-0.078l0.055,-0.079l0.054,-0.079l0.054,-0.08l0.052,-0.081l0.052,-0.081l0.05,-0.082l0.05,-0.083l0.048,-0.083l0.048,-0.084l0.047,-0.085l0.045,-0.085l0.045,-0.086l0.043,-0.086l0.043,-0.087l0.041,-0.088l0.041,-0.088l0.039,-0.088l0.039,-0.09l0.037,-0.09l0.036,-0.09l0.036,-0.091l0.034,-0.091l0.033,-0.092l0.031,-0.092l0.031,-0.093l0.03,-0.094l0.029,-0.094l0.027,-0.094l0.026,-0.095l0.025,-0.095l0.024,-0.096l0.023,-0.096l0.022,-0.097l0.021,-0.097l0.019,-0.098l0.018,-0.098l0.017,-0.098l0.016,-0.099l0.014,-0.1l0.014,-0.1l0.012,-0.1l0.011,-0.1l0.009,-0.101l0.009,-0.102l0.007,-0.102l0.006,-0.102l0.004,-0.103l0.003,-0.103l0.002,-0.103l0.001,-0.11l0,-1.996l-0.001,-0.13l-0.002,-0.124l-0.004,-0.124l-0.005,-0.124l-0.007,-0.123l-0.009,-0.124l-0.01,-0.123l-0.011,-0.123l-0.013,-0.122l-0.014,-0.122l-0.016,-0.122l-0.018,-0.122l-0.019,-0.121l-0.02,-0.121l-0.022,-0.121l-0.023,-0.12l-0.025,-0.12l-0.026,-0.119l-0.027,-0.12l-0.03,-0.119l-0.03,-0.118l-0.032,-0.118l-0.033,-0.117l-0.035,-0.117l-0.037,-0.117l-0.037,-0.116l-0.039,-0.116l-0.041,-0.115l-0.041,-0.114l-0.044,-0.114l-0.044,-0.114l-0.046,-0.113l-0.048,-0.112l-0.048,-0.112l-0.05,-0.111l-0.052,-0.111l-0.053,-0.11l-0.054,-0.109l-0.055,-0.109l-0.057,-0.108l-0.058,-0.107l-0.06,-0.107l-0.061,-0.106l-0.062,-0.105l-0.063,-0.105l-0.065,-0.104l-0.066,-0.103l-0.067,-0.102l-0.069,-0.101l-0.07,-0.101l-0.071,-0.1l-0.072,-0.099l-0.074,-0.099l-0.075,-0.097l-0.076,-0.097l-0.078,-0.095l-0.078,-0.095l-0.08,-0.094l-0.082,-0.094l-0.082,-0.092l-0.084,-0.091l-0.084,-0.09l-0.087,-0.09l-0.087,-0.088l-0.088,-0.087l-0.09,-0.086l-0.09,-0.085l-0.091,-0.084l-0.093,-0.082l-0.093,-0.082l-0.094,-0.08l-0.094,-0.078l-0.096,-0.078l-0.097,-0.076l-0.097,-0.075l-0.099,-0.074l-0.099,-0.072l-0.1,-0.071l-0.1,-0.07l-0.102,-0.069l-0.102,-0.067l-0.103,-0.066l-0.104,-0.065l-0.105,-0.063l-0.105,-0.062l-0.106,-0.061l-0.107,-0.06l-0.107,-0.058l-0.108,-0.057l-0.109,-0.055l-0.109,-0.054l-0.11,-0.053l-0.111,-0.052l-0.111,-0.05l-0.112,-0.048l-0.112,-0.048l-0.113,-0.046l-0.114,-0.044l-0.114,-0.044l-0.114,-0.041l-0.115,-0.041l-0.116,-0.039l-0.116,-0.038l-0.117,-0.036l-0.117,-0.035l-0.117,-0.033l-0.118,-0.032l-0.119,-0.03l-0.118,-0.029l-0.12,-0.028l-0.119,-0.026l-0.12,-0.025l-0.12,-0.023l-0.121,-0.022l-0.121,-0.021l-0.121,-0.018l-0.122,-0.018l-0.122,-0.016l-0.122,-0.014l-0.123,-0.013l-0.122,-0.011l-0.123,-0.01l-0.124,-0.009l-0.123,-0.007l-0.124,-0.005l-0.124,-0.004l-0.124,-0.002l-0.125,-0.001l-0.125,0.001Z"/></g><g id="emoji"><path d="M23,7c0,0 1.319,-0.659 2.442,-1.221c1.032,-0.516 1.974,-1.195 2.79,-2.011c0.828,-0.828 1.768,-1.768 1.768,-1.768c0,0 0,1.842 0,3.758c0,2.716 -1.079,5.321 -3,7.242c0,0 0,0 0,0l-4,-6Z" style="fill:#530f8a;"/><path d="M30.092,0.002l0.093,0.007l0.091,0.01l0.091,0.015l0.091,0.019l0.089,0.023l0.089,0.028l0.086,0.031l0.086,0.035l0.083,0.04l0.082,0.043l0.08,0.047l0.077,0.05l0.075,0.054l0.073,0.057l0.069,0.061l0.067,0.064l0.064,0.067l0.061,0.069l0.057,0.073l0.054,0.075l0.05,0.077l0.047,0.08l0.043,0.082l0.04,0.083l0.035,0.086l0.031,0.086l0.028,0.089l0.023,0.089l0.019,0.091l0.015,0.091l0.01,0.091l0.007,0.093l0.002,0.092l0,3.764l-0.001,0.146l-0.003,0.151l-0.004,0.152l-0.007,0.152l-0.008,0.151l-0.011,0.151l-0.012,0.15l-0.014,0.15l-0.016,0.151l-0.017,0.149l-0.02,0.149l-0.021,0.149l-0.023,0.149l-0.025,0.148l-0.027,0.148l-0.028,0.147l-0.031,0.147l-0.032,0.146l-0.034,0.146l-0.035,0.146l-0.038,0.144l-0.039,0.145l-0.041,0.144l-0.042,0.143l-0.044,0.143l-0.047,0.142l-0.047,0.141l-0.05,0.141l-0.051,0.141l-0.053,0.139l-0.055,0.139l-0.056,0.138l-0.058,0.138l-0.059,0.137l-0.062,0.136l-0.063,0.135l-0.064,0.135l-0.067,0.134l-0.068,0.133l-0.069,0.132l-0.071,0.132l-0.073,0.13l-0.075,0.13l-0.076,0.129l-0.077,0.128l-0.08,0.127l-0.08,0.126l-0.083,0.125l-0.084,0.125l-0.085,0.123l-0.087,0.123l-0.089,0.121l-0.09,0.12l-0.092,0.12l-0.094,0.118l-0.094,0.117l-0.097,0.116l-0.098,0.115l-0.099,0.114l-0.101,0.113l-0.102,0.112l-0.104,0.11l-0.106,0.11l-0.089,0.091l0.008,-0.009l-0.065,0.064l-0.068,0.062l-0.071,0.058l-0.073,0.055l-0.076,0.052l-0.078,0.048l-0.08,0.044l-0.082,0.041l-0.084,0.037l-0.085,0.033l-0.087,0.029l-0.088,0.025l-0.089,0.021l-0.091,0.017l-0.09,0.012l-0.091,0.009l-0.092,0.004l-0.092,0.001l-0.091,-0.004l-0.091,-0.009l-0.091,-0.012l-0.09,-0.016l-0.089,-0.021l-0.089,-0.025l-0.087,-0.028l-0.085,-0.033l-0.084,-0.037l-0.083,-0.04l-0.08,-0.044l-0.078,-0.048l-0.076,-0.051l-0.074,-0.055l-0.071,-0.058l-0.068,-0.061l-0.065,-0.064l-0.062,-0.067l-0.06,-0.07l-0.056,-0.073l-0.052,-0.075l-4,-6l-0.049,-0.077l-0.046,-0.08l-0.041,-0.081l-0.038,-0.083l-0.035,-0.085l-0.03,-0.087l-0.026,-0.088l-0.022,-0.089l-0.018,-0.089l-0.014,-0.091l-0.01,-0.091l-0.006,-0.092l-0.001,-0.091l0.003,-0.092l0.007,-0.091l0.011,-0.091l0.015,-0.09l0.02,-0.09l0.023,-0.088l0.028,-0.088l0.031,-0.086l0.036,-0.084l0.039,-0.083l0.043,-0.081l0.047,-0.079l0.05,-0.077l0.054,-0.074l0.057,-0.071l0.06,-0.07l0.063,-0.066l0.067,-0.063l0.069,-0.06l0.072,-0.057l0.074,-0.053l0.077,-0.051l0.079,-0.046l0.081,-0.043l2.437,-1.218l0.083,-0.042l0.078,-0.041l0.078,-0.041l0.077,-0.042l0.077,-0.043l0.076,-0.044l0.076,-0.044l0.075,-0.045l0.075,-0.046l0.074,-0.047l0.074,-0.047l0.074,-0.048l0.073,-0.049l0.072,-0.049l0.072,-0.05l0.072,-0.051l0.07,-0.052l0.071,-0.052l0.07,-0.054l0.069,-0.053l0.069,-0.055l0.068,-0.055l0.068,-0.056l0.067,-0.056l0.067,-0.058l0.065,-0.057l0.066,-0.059l0.065,-0.059l0.064,-0.06l0.064,-0.061l0.063,-0.061l0.066,-0.066l1.765,-1.764l0.067,-0.064l0.069,-0.061l0.073,-0.057l0.075,-0.054l0.077,-0.05l0.08,-0.047l0.082,-0.043l0.083,-0.04l0.086,-0.035l0.086,-0.031l0.089,-0.028l0.089,-0.023l0.091,-0.019l0.091,-0.015l0.091,-0.01l0.093,-0.007l0.092,-0.002l0.092,0.002Zm-1.86,3.766l-0.077,0.076l-0.078,0.075l-0.078,0.075l-0.079,0.074l-0.08,0.072l-0.08,0.072l-0.081,0.072l-0.082,0.07l-0.083,0.069l-0.083,0.069l-0.084,0.068l-0.084,0.067l-0.086,0.066l-0.085,0.065l-0.087,0.065l-0.087,0.063l-0.088,0.063l-0.088,0.061l-0.089,0.061l-0.09,0.06l-0.09,0.059l-0.091,0.058l-0.092,0.058l-0.092,0.056l-0.092,0.055l-0.093,0.055l-0.094,0.053l-0.095,0.053l-0.094,0.052l-0.096,0.05l-0.096,0.05l-0.096,0.049l-2.442,1.221l4,6l0,0l0.09,-0.091l0.088,-0.091l0.087,-0.093l0.085,-0.093l0.085,-0.095l0.083,-0.095l0.082,-0.096l0.081,-0.097l0.079,-0.099l0.078,-0.098l0.077,-0.1l0.075,-0.101l0.074,-0.102l0.073,-0.102l0.072,-0.103l0.07,-0.104l0.069,-0.105l0.068,-0.105l0.066,-0.107l0.065,-0.107l0.064,-0.108l0.062,-0.108l0.061,-0.11l0.059,-0.11l0.059,-0.11l0.056,-0.112l0.056,-0.111l0.054,-0.113l0.053,-0.113l0.051,-0.114l0.05,-0.115l0.048,-0.115l0.047,-0.116l0.046,-0.116l0.044,-0.117l0.043,-0.117l0.042,-0.118l0.04,-0.118l0.038,-0.119l0.037,-0.12l0.036,-0.12l0.034,-0.12l0.033,-0.121l0.031,-0.121l0.03,-0.122l0.028,-0.122l0.027,-0.122l0.025,-0.123l0.024,-0.123l0.023,-0.124l0.02,-0.124l0.02,-0.124l0.018,-0.125l0.016,-0.124l0.015,-0.126l0.013,-0.125l0.012,-0.126l0.01,-0.126l0.008,-0.126l0.007,-0.127l0.006,-0.126l0.004,-0.127l0.002,-0.127l0.001,-0.127l0,-3.758l-1.768,1.768Z"/><path d="M9,7c0,0 -1.319,-0.659 -2.442,-1.221c-1.032,-0.516 -1.974,-1.195 -2.79,-2.011c-0.828,-0.828 -1.768,-1.768 -1.768,-1.768c0,0 0,1.842 0,3.758c0,2.716 1.079,5.321 3,7.242c0,0 0,0 0,0l4,-6Z" style="fill:#530f8a;"/><path d="M2.092,0.002l0.093,0.007l0.091,0.01l0.091,0.015l0.091,0.019l0.089,0.023l0.089,0.028l0.086,0.031l0.086,0.035l0.083,0.04l0.082,0.043l0.08,0.047l0.077,0.05l0.075,0.054l0.073,0.057l0.069,0.061l0.067,0.064l1.765,1.764l0.066,0.066l0.063,0.061l0.064,0.061l0.064,0.06l0.065,0.059l0.065,0.058l0.067,0.058l0.066,0.058l0.067,0.056l0.068,0.056l0.068,0.055l0.069,0.055l0.069,0.053l0.07,0.054l0.071,0.052l0.071,0.052l0.071,0.051l0.072,0.05l0.072,0.049l0.073,0.049l0.074,0.048l0.074,0.047l0.074,0.047l0.075,0.046l0.075,0.045l0.076,0.044l0.077,0.044l0.076,0.043l0.077,0.042l0.078,0.041l0.078,0.04l0.083,0.042l2.437,1.219l0.081,0.043l0.079,0.046l0.077,0.051l0.074,0.053l0.072,0.057l0.069,0.06l0.067,0.063l0.063,0.066l0.06,0.07l0.057,0.071l0.054,0.074l0.05,0.077l0.047,0.079l0.043,0.081l0.039,0.083l0.036,0.084l0.031,0.086l0.028,0.088l0.023,0.088l0.02,0.09l0.015,0.09l0.011,0.091l0.007,0.091l0.003,0.092l-0.001,0.091l-0.006,0.092l-0.01,0.091l-0.014,0.091l-0.018,0.089l-0.022,0.089l-0.026,0.088l-0.03,0.087l-0.035,0.085l-0.038,0.083l-0.041,0.081l-0.046,0.08l-0.049,0.077l-4,6l-0.052,0.075l-0.056,0.073l-0.06,0.07l-0.062,0.067l-0.065,0.064l-0.068,0.061l-0.071,0.058l-0.074,0.055l-0.076,0.051l-0.078,0.048l-0.08,0.044l-0.083,0.04l-0.084,0.037l-0.085,0.033l-0.087,0.028l-0.089,0.025l-0.089,0.021l-0.09,0.016l-0.091,0.012l-0.091,0.009l-0.091,0.004l-0.092,-0.001l-0.092,-0.004l-0.091,-0.009l-0.09,-0.012l-0.091,-0.017l-0.089,-0.021l-0.088,-0.025l-0.087,-0.029l-0.085,-0.033l-0.084,-0.037l-0.082,-0.041l-0.08,-0.044l-0.078,-0.048l-0.076,-0.052l-0.073,-0.055l-0.071,-0.058l-0.068,-0.062l-0.065,-0.064l0.008,0.009l-0.089,-0.091l-0.106,-0.109l-0.104,-0.111l-0.102,-0.112l-0.101,-0.113l-0.099,-0.113l-0.098,-0.116l-0.097,-0.116l-0.094,-0.117l-0.094,-0.118l-0.091,-0.12l-0.091,-0.12l-0.089,-0.121l-0.087,-0.123l-0.085,-0.123l-0.084,-0.125l-0.083,-0.125l-0.08,-0.126l-0.08,-0.127l-0.077,-0.128l-0.076,-0.129l-0.075,-0.13l-0.073,-0.13l-0.071,-0.132l-0.069,-0.132l-0.068,-0.133l-0.067,-0.134l-0.064,-0.135l-0.063,-0.135l-0.061,-0.136l-0.06,-0.137l-0.058,-0.138l-0.056,-0.138l-0.055,-0.139l-0.053,-0.139l-0.051,-0.141l-0.05,-0.141l-0.047,-0.141l-0.046,-0.142l-0.045,-0.143l-0.043,-0.143l-0.04,-0.144l-0.039,-0.144l-0.038,-0.145l-0.035,-0.146l-0.034,-0.146l-0.032,-0.146l-0.031,-0.147l-0.028,-0.147l-0.027,-0.148l-0.025,-0.148l-0.023,-0.149l-0.021,-0.148l-0.02,-0.15l-0.017,-0.149l-0.016,-0.15l-0.014,-0.151l-0.012,-0.15l-0.011,-0.151l-0.008,-0.151l-0.007,-0.152l-0.004,-0.151l-0.003,-0.152l-0.001,-0.146l0,-3.764l0.002,-0.092l0.007,-0.093l0.01,-0.091l0.015,-0.091l0.019,-0.091l0.023,-0.089l0.028,-0.089l0.031,-0.086l0.035,-0.086l0.04,-0.083l0.043,-0.082l0.047,-0.08l0.05,-0.077l0.054,-0.075l0.057,-0.073l0.061,-0.069l0.064,-0.067l0.067,-0.064l0.069,-0.061l0.073,-0.057l0.075,-0.054l0.077,-0.05l0.08,-0.047l0.082,-0.043l0.083,-0.04l0.085,-0.035l0.087,-0.031l0.089,-0.028l0.089,-0.023l0.09,-0.019l0.092,-0.015l0.091,-0.01l0.093,-0.007l0.092,-0.002l0.092,0.002Zm-0.092,5.756l0.001,0.127l0.002,0.127l0.004,0.127l0.006,0.126l0.007,0.127l0.008,0.126l0.01,0.126l0.012,0.126l0.013,0.125l0.015,0.126l0.016,0.124l0.018,0.125l0.02,0.124l0.02,0.124l0.023,0.124l0.024,0.123l0.025,0.123l0.027,0.122l0.028,0.122l0.03,0.122l0.031,0.121l0.033,0.121l0.034,0.12l0.036,0.12l0.037,0.12l0.038,0.119l0.04,0.118l0.042,0.118l0.043,0.117l0.044,0.117l0.046,0.116l0.047,0.116l0.048,0.115l0.05,0.115l0.051,0.114l0.053,0.113l0.054,0.113l0.056,0.111l0.056,0.112l0.059,0.11l0.059,0.11l0.061,0.11l0.062,0.108l0.064,0.108l0.065,0.107l0.066,0.107l0.068,0.105l0.069,0.105l0.07,0.104l0.072,0.103l0.073,0.102l0.074,0.102l0.075,0.101l0.077,0.1l0.078,0.098l0.079,0.099l0.081,0.097l0.082,0.096l0.083,0.095l0.085,0.095l0.085,0.093l0.087,0.093l0.088,0.091l0.09,0.091l0,0l4,-6l-2.442,-1.221l-0.096,-0.049l-0.096,-0.05l-0.096,-0.05l-0.094,-0.052l-0.095,-0.053l-0.094,-0.053l-0.093,-0.055l-0.092,-0.055l-0.092,-0.056l-0.092,-0.058l-0.091,-0.058l-0.09,-0.059l-0.09,-0.06l-0.089,-0.061l-0.088,-0.061l-0.088,-0.063l-0.087,-0.063l-0.087,-0.065l-0.085,-0.065l-0.086,-0.066l-0.084,-0.067l-0.084,-0.068l-0.083,-0.069l-0.083,-0.069l-0.082,-0.07l-0.081,-0.072l-0.08,-0.072l-0.08,-0.072l-0.079,-0.074l-0.078,-0.075l-0.078,-0.075l-0.077,-0.076l-1.768,-1.768l0,3.758Z"/><path d="M23,7c0,0 1.319,-0.659 2.442,-1.221c1.032,-0.516 1.974,-1.195 2.79,-2.011c0.828,-0.828 1.768,-1.768 1.768,-1.768c0,0 0,1.842 0,3.758c0,2.716 -1.079,5.321 -3,7.242c0,0 0,0 0,0l-4,-6Z" style="fill:#530f8a;"/><path d="M9,7c0,0 -1.319,-0.659 -2.442,-1.221c-1.032,-0.516 -1.974,-1.195 -2.79,-2.011c-0.828,-0.828 -1.768,-1.768 -1.768,-1.768c0,0 0,1.842 0,3.758c0,2.716 1.079,5.321 3,7.242c0,0 0,0 0,0l4,-6Z" style="fill:#530f8a;"/><path d="M28,16c0,-3.183 -1.264,-6.235 -3.515,-8.485c-2.25,-2.251 -5.302,-3.515 -8.485,-3.515c-0.001,0 -0.001,0 -0.002,0c-3.182,0 -6.234,1.264 -8.484,3.514c-2.25,2.25 -3.514,5.302 -3.514,8.484c0,0.673 0,1.346 0,2.01c0,5.518 4.474,9.992 9.992,9.992c1.327,0 2.689,0 4.016,0c5.518,0 9.992,-4.474 9.992,-9.992c0,-0.664 0,-1.336 0,-2.008Z" style="fill:#a253e2;"/><clipPath id="_clip2"><path d="M28,16c0,-3.183 -1.264,-6.235 -3.515,-8.485c-2.25,-2.251 -5.302,-3.515 -8.485,-3.515c-0.001,0 -0.001,0 -0.002,0c-3.182,0 -6.234,1.264 -8.484,3.514c-2.25,2.25 -3.514,5.302 -3.514,8.484c0,0.673 0,1.346 0,2.01c0,5.518 4.474,9.992 9.992,9.992c1.327,0 2.689,0 4.016,0c5.518,0 9.992,-4.474 9.992,-9.992c0,-0.664 0,-1.336 0,-2.008Z"/></clipPath><g clip-path="url(#_clip2)"><path d="M15,24c0,0 -1.983,-1.416 -3.838,-2.741c-0.609,-0.436 -1.411,-0.494 -2.077,-0.151c-0.666,0.343 -1.085,1.029 -1.085,1.778c0,2.809 0,6.399 0,8.114c0,0.552 0.448,1 1,1c0.871,0 2.129,0 3,0c0.265,0 0.52,-0.105 0.707,-0.293c0.188,-0.187 0.293,-0.442 0.293,-0.707c0,-0.5 0,-1 0,-1l8,0c0,0 -3.011,-3.614 -4.36,-5.232c-0.406,-0.487 -1.006,-0.768 -1.64,-0.768c0,0 0,0 0,0Z" style="fill:#7e22c9;"/></g><path d="M18.939,16.647l2.144,-2.144l4.698,5.872l0.048,0.065l0.042,0.069l0.037,0.071l0.031,0.075l0.024,0.076l0.019,0.079l0.012,0.079l0.006,0.081l-0.001,0.08l-0.008,0.08l-0.013,0.08l-0.02,0.078l-0.027,0.076l-0.032,0.074l-0.038,0.071l-0.044,0.067l-0.049,0.064l-0.054,0.06l-0.058,0.055l-0.063,0.05l-0.067,0.045l-0.07,0.04l-0.073,0.034l-0.076,0.028l-0.077,0.021l-0.079,0.016l-0.08,0.009l-0.081,0.002l-0.08,-0.004l-0.08,-0.011l-0.079,-0.016l-0.077,-0.024l-0.075,-0.029l-0.073,-0.035l-0.069,-0.041l-0.066,-0.047l-0.062,-0.051l-0.057,-0.056l-0.053,-0.061l-3.302,-4.128l-1.856,1.856l-3.059,-2.55l-3.064,2.571l-2.068,-2.085l-2.315,1.543l-0.069,0.042l-0.072,0.036l-0.075,0.031l-0.076,0.024l-0.079,0.018l-0.08,0.012l-0.08,0.005l-0.08,-0.002l-0.081,-0.007l-0.079,-0.015l-0.078,-0.02l-0.076,-0.027l-0.073,-0.033l-0.071,-0.038l-0.067,-0.044l-0.064,-0.05l-0.059,-0.054l-0.055,-0.059l-0.05,-0.063l-0.045,-0.067l-0.039,-0.071l-0.033,-0.073l-0.028,-0.076l-0.021,-0.077l-0.015,-0.08l-0.008,-0.08l-0.002,-0.08l0.005,-0.081l0.011,-0.079l0.017,-0.079l0.024,-0.077l0.029,-0.075l0.036,-0.072l0.042,-0.069l0.046,-0.066l0.052,-0.061l0.057,-0.057l0.061,-0.053l0.065,-0.047l3.685,-2.457l1.932,1.948l2.936,-2.462l2.941,2.45Z" style="fill:#3f0c69;"/><path d="M14,9.5c0,-0.928 -0.369,-1.818 -1.025,-2.475c-0.657,-0.656 -1.547,-1.025 -2.475,-1.025c-0.928,0 -1.819,0.369 -2.475,1.025c-0.656,0.657 -1.025,1.547 -1.025,2.475c0,0.332 0,0.668 0,1c0,0.928 0.369,1.818 1.025,2.475c0.657,0.656 1.547,1.025 2.475,1.025c0.928,0 1.818,-0.369 2.475,-1.025c0.656,-0.657 1.025,-1.547 1.025,-2.475c0,-0.332 0,-0.668 0,-1Z"/><path d="M21.5,7.5c0,0 -2.627,0 -4.25,0c-0.69,0 -1.25,0.56 -1.25,1.25c0,0.69 0.56,1.25 1.25,1.25c1.623,0 4.25,0 4.25,0l0,-2.5Z"/><path d="M25,7.5l-7,0c0,0 0,1.462 0,3c0,0.928 0.369,1.818 1.025,2.475c0.657,0.656 1.547,1.025 2.475,1.025c0.928,0 1.818,-0.369 2.475,-1.025c0.656,-0.657 1.025,-1.547 1.025,-2.475c0,-1.538 0,-3 0,-3Z"/><path d="M20,9l3,0c0,0 0,0.74 0,1.483c0,0.398 -0.158,0.78 -0.439,1.061c-0.282,0.281 -0.663,0.439 -1.061,0.439c-0.003,0 -0.007,0 -0.01,0c-0.395,0 -0.774,-0.157 -1.054,-0.436c-0.279,-0.28 -0.436,-0.659 -0.436,-1.054c0,-0.746 0,-1.493 0,-1.493Z" style="fill:#f2c040;"/><path d="M9,8.5c0,-0.828 0.672,-1.5 1.5,-1.5c0.828,0 1.5,0.672 1.5,1.5c0,0.628 0,1.356 0,1.983c0,0.829 -0.672,1.5 -1.5,1.5c-0.828,0 -1.5,-0.671 -1.5,-1.5c0,-0.627 0,-1.355 0,-1.983Z" style="fill:#f2c040;"/></g><path d="M8,23c0,0 -0.432,0.216 -0.894,0.447c-0.678,0.339 -1.106,1.032 -1.106,1.789c0,1.114 0,2.73 0,3.764c0,0.265 0.105,0.52 0.293,0.707c0.187,0.188 0.442,0.293 0.707,0.293c0.871,0 2.129,0 3,0c0.552,0 1,-0.448 1,-1c0,-0.873 0,-2 0,-2c0,0 1.127,0 2,0c0.552,0 1,-0.448 1,-1c0,-0.265 -0.105,-0.52 -0.293,-0.707c-0.187,-0.188 -0.442,-0.293 -0.707,-0.293c-1.707,0 -5,0 -5,0l0,-2Z" style="fill:#a253e2;"/><path d="M10,23l3.025,0l0.124,0.003l0.147,0.011l0.147,0.018l0.145,0.026l0.143,0.032l0.142,0.039l0.139,0.046l0.136,0.053l0.134,0.059l0.131,0.066l0.127,0.072l0.125,0.079l0.12,0.084l0.117,0.091l0.112,0.097l0.108,0.102l0.102,0.108l0.097,0.112l0.091,0.117l0.085,0.12l0.078,0.124l0.072,0.128l0.066,0.131l0.059,0.134l0.053,0.136l0.046,0.139l0.039,0.142l0.032,0.143l0.026,0.145l0.018,0.147l0.011,0.147l0.004,0.15l-0.004,0.152l-0.012,0.151l-0.019,0.15l-0.026,0.148l-0.034,0.146l-0.041,0.143l-0.047,0.141l-0.054,0.136l-0.06,0.134l-0.067,0.13l-0.072,0.125l-0.078,0.122l-0.084,0.118l-0.088,0.113l-0.094,0.108l-0.099,0.104l-0.104,0.099l-0.108,0.094l-0.113,0.088l-0.118,0.084l-0.122,0.078l-0.125,0.072l-0.13,0.067l-0.133,0.06l-0.137,0.054l-0.141,0.047l-0.143,0.041l-0.146,0.034l-0.148,0.026l-0.15,0.019l-0.151,0.012l-0.128,0.003l-0.025,0l0,0.025l-0.003,0.128l-0.012,0.151l-0.019,0.15l-0.026,0.148l-0.034,0.146l-0.041,0.143l-0.047,0.141l-0.054,0.137l-0.06,0.133l-0.067,0.129l-0.072,0.126l-0.078,0.122l-0.083,0.117l-0.089,0.113l-0.094,0.109l-0.099,0.104l-0.104,0.099l-0.109,0.094l-0.113,0.089l-0.117,0.083l-0.122,0.078l-0.126,0.072l-0.129,0.067l-0.133,0.06l-0.137,0.054l-0.141,0.047l-0.143,0.041l-0.146,0.034l-0.148,0.026l-0.15,0.019l-0.151,0.012l-0.128,0.003l-3.05,0l-0.124,-0.003l-0.147,-0.011l-0.147,-0.018l-0.145,-0.026l-0.143,-0.032l-0.142,-0.039l-0.139,-0.046l-0.136,-0.053l-0.134,-0.059l-0.131,-0.066l-0.128,-0.072l-0.124,-0.078l-0.12,-0.085l-0.117,-0.091l-0.112,-0.097l-0.108,-0.102l-0.102,-0.108l-0.097,-0.112l-0.091,-0.117l-0.084,-0.12l-0.079,-0.125l-0.072,-0.127l-0.066,-0.131l-0.059,-0.134l-0.053,-0.136l-0.046,-0.139l-0.039,-0.142l-0.032,-0.143l-0.026,-0.145l-0.018,-0.147l-0.011,-0.147l-0.003,-0.124l0,-3.807l0.002,-0.123l0.008,-0.141l0.012,-0.14l0.017,-0.138l0.022,-0.138l0.027,-0.136l0.031,-0.136l0.036,-0.133l0.04,-0.132l0.045,-0.13l0.049,-0.128l0.053,-0.127l0.058,-0.124l0.061,-0.122l0.066,-0.12l0.07,-0.117l0.074,-0.115l0.078,-0.113l0.081,-0.109l0.086,-0.107l0.089,-0.104l0.092,-0.102l0.097,-0.098l0.1,-0.095l0.103,-0.092l0.107,-0.088l0.11,-0.085l0.113,-0.081l0.117,-0.077l0.119,-0.074l0.123,-0.069l0.109,-0.058l3.805,-1.902l0,3.236Zm-2.894,0.447l-0.063,0.033l-0.062,0.035l-0.059,0.037l-0.058,0.038l-0.057,0.041l-0.055,0.042l-0.053,0.044l-0.052,0.046l-0.05,0.048l-0.048,0.049l-0.046,0.05l-0.045,0.052l-0.043,0.054l-0.04,0.055l-0.039,0.056l-0.037,0.058l-0.035,0.058l-0.033,0.06l-0.031,0.061l-0.029,0.062l-0.027,0.064l-0.024,0.064l-0.022,0.065l-0.021,0.066l-0.017,0.066l-0.016,0.068l-0.013,0.068l-0.011,0.069l-0.009,0.069l-0.006,0.07l-0.004,0.07l-0.001,0.071l0,3.764l0.001,0.05l0.004,0.049l0.006,0.049l0.008,0.048l0.011,0.048l0.013,0.047l0.016,0.046l0.017,0.046l0.02,0.044l0.022,0.044l0.024,0.042l0.026,0.042l0.028,0.04l0.03,0.039l0.033,0.037l0.034,0.036l0.036,0.034l0.037,0.033l0.039,0.03l0.04,0.028l0.042,0.026l0.042,0.024l0.044,0.022l0.044,0.02l0.046,0.017l0.046,0.016l0.047,0.013l0.048,0.011l0.048,0.008l0.049,0.006l0.049,0.004l0.05,0.001l3,0l0.051,-0.001l0.051,-0.004l0.05,-0.007l0.05,-0.008l0.048,-0.011l0.047,-0.014l0.047,-0.016l0.045,-0.018l0.045,-0.02l0.043,-0.022l0.042,-0.024l0.04,-0.026l0.039,-0.028l0.038,-0.029l0.036,-0.032l0.035,-0.033l0.033,-0.035l0.032,-0.036l0.029,-0.038l0.028,-0.039l0.026,-0.04l0.024,-0.042l0.022,-0.043l0.02,-0.045l0.018,-0.045l0.016,-0.047l0.014,-0.047l0.011,-0.048l0.008,-0.05l0.007,-0.05l0.004,-0.051l0.001,-0.051l0,-2l2,0l0.051,-0.001l0.051,-0.004l0.05,-0.007l0.05,-0.008l0.048,-0.011l0.047,-0.014l0.047,-0.016l0.045,-0.018l0.045,-0.02l0.043,-0.022l0.042,-0.024l0.04,-0.026l0.039,-0.028l0.038,-0.029l0.036,-0.032l0.035,-0.033l0.033,-0.035l0.032,-0.036l0.029,-0.038l0.028,-0.039l0.026,-0.04l0.024,-0.042l0.022,-0.043l0.02,-0.045l0.018,-0.045l0.016,-0.047l0.014,-0.047l0.011,-0.048l0.008,-0.05l0.007,-0.05l0.004,-0.051l0.001,-0.051c0,0 -0.001,-0.05 -0.001,-0.05l-0.004,-0.049l-0.006,-0.049l-0.008,-0.048l-0.011,-0.048l-0.013,-0.047l-0.016,-0.046l-0.017,-0.046l-0.02,-0.044l-0.022,-0.044l-0.024,-0.042l-0.026,-0.042l-0.028,-0.04l-0.03,-0.039l-0.033,-0.037l-0.034,-0.036l-0.036,-0.034l-0.037,-0.033l-0.039,-0.03l-0.04,-0.028l-0.042,-0.026l-0.042,-0.024l-0.044,-0.022l-0.044,-0.02l-0.046,-0.017l-0.046,-0.016l-0.047,-0.013l-0.048,-0.011l-0.048,-0.008l-0.049,-0.006l-0.049,-0.004l-0.05,-0.001l-5,0l0,-2l-0.894,0.447Z"/></g></svg>