<?xml version="1.0" encoding="UTF-8"?>
<!DOCTYPE svg  PUBLIC '-//W3C//DTD SVG 1.1//EN'  'http://www.w3.org/Graphics/SVG/1.1/DTD/svg11.dtd'>
<svg clip-rule="evenodd" fill-rule="evenodd" stroke-linejoin="round" stroke-miterlimit="1.4142" version="1.1" viewBox="0 0 32 32" xml:space="preserve" xmlns="http://www.w3.org/2000/svg">
<metadata>
<rdf:RDF xmlns:cc="http://web.resource.org/cc/" xmlns:dc="http://purl.org/dc/elements/1.1/" xmlns:rdf="http://www.w3.org/1999/02/22-rdf-syntax-ns#">

     <rdf:Description rdf:about="">
       <dc:title>Mutant Standard S3</dc:title>
     </rdf:Description>

    <cc:work rdf:about="">
        <cc:license rdf:resource="http://creativecommons.org/licenses/by-nc-sa/4.0/"/>
        <cc:attributionName>Dzuk</cc:attributionName>
        <cc:attributionURL>http://mutant.tech/</cc:attributionURL>
    </cc:work>

</rdf:RDF>
</metadata>
<rect id="think_imp" width="32" height="32" fill="none"/><clipPath id="_clip1"><rect width="32" height="32"/></clipPath><g clip-path="url(#_clip1)"><g id="outline"><path d="m16.174 2.001 0.174 3e-3 0.173 6e-3 0.173 7e-3 0.173 0.01 0.173 0.012 0.172 0.013 0.172 0.016 0.171 0.019 0.171 0.02 0.171 0.022 0.17 0.024 0.17 0.027 0.17 0.028 0.169 0.031 0.168 0.032 0.168 0.035 0.167 0.037 0.167 0.038 0.167 0.041 0.165 0.043 0.165 0.045 0.165 0.046 0.164 0.049 0.163 0.051 0.162 0.053 0.162 0.054 0.161 0.057 0.161 0.058 0.16 0.061 0.158 0.062 0.159 0.065 0.157 0.066 0.156 0.068 0.156 0.07 0.155 0.072 0.154 0.074 0.153 0.076 0.152 0.078 0.151 0.079 0.151 0.082 0.149 0.083 0.148 0.085 0.148 0.087 0.146 0.089 0.146 0.09 0.144 0.093 0.143 0.094 0.142 0.096 0.142 0.098 0.139 0.1 0.139 0.101 0.138 0.103 0.136 0.105 0.136 0.107 0.134 0.109 0.133 0.11 0.131 0.112 0.13 0.113 0.13 0.116 0.127 0.117 0.127 0.119 0.125 0.12 0.124 0.123 0.122 0.123 0.12 0.125 0.119 0.127 0.117 0.127 0.116 0.13 0.113 0.13 0.112 0.131 0.11 0.133 0.109 0.134 0.107 0.136 0.105 0.136 0.103 0.138 0.101 0.139 0.1 0.14 0.098 0.14 0.096 0.143 0.094 0.143 0.093 0.144 0.09 0.146 0.089 0.146 0.087 0.148 0.085 0.148 0.083 0.149 0.082 0.15 0.079 0.152 0.078 0.152 0.076 0.153 0.074 0.154 0.072 0.155 0.07 0.156 0.068 0.156 0.066 0.157 0.065 0.158 0.062 0.159 0.061 0.16 0.058 0.161 0.057 0.161 0.054 0.162 0.053 0.162 0.051 0.163 0.049 0.164 0.046 0.165 0.045 0.165 0.043 0.166 0.04 0.166 0.039 0.167 0.037 0.167 0.035 0.168 0.032 0.168 0.031 0.169 0.028 0.17 0.027 0.17 0.024 0.17 0.022 0.171 0.02 0.171 0.019 0.171 0.016 0.172 0.013 0.172 0.012 0.173 0.01 0.173 7e-3 0.173 6e-3 0.173 3e-3 0.174 1e-3 0.168v2.02l-1e-3 0.148-3e-3 0.155-5e-3 0.153-7e-3 0.153-8e-3 0.153-0.011 0.153-0.012 0.151-0.015 0.152-0.016 0.15-0.018 0.151-0.02 0.15-0.022 0.149-0.024 0.148-0.025 0.148-0.027 0.148-0.03 0.147-0.03 0.146-0.033 0.145-0.034 0.145-0.037 0.145-0.038 0.143-0.039 0.143-0.041 0.142-0.043 0.141-0.045 0.141-0.047 0.14-0.048 0.139-0.049 0.138-0.052 0.138-0.053 0.137-0.054 0.135-0.056 0.135-0.058 0.135-0.059 0.133-0.061 0.133-0.062 0.131-0.065 0.131-0.065 0.13-0.067 0.128-0.068 0.128-0.071 0.128-0.071 0.126-0.073 0.125-0.074 0.124-0.076 0.123-0.077 0.122-0.079 0.121-0.08 0.12-0.082 0.119-0.083 0.118-0.084 0.117-0.085 0.116-0.087 0.115-0.089 0.114-0.089 0.113-0.091 0.111-0.092 0.11-0.094 0.11-0.095 0.108-0.096 0.107-0.097 0.106-0.098 0.104-0.1 0.103-0.101 0.103-0.103 0.101-0.103 0.099-0.105 0.099-0.105 0.097-0.107 0.096-0.108 0.095-0.11 0.094-0.11 0.092-0.112 0.091-0.112 0.089-0.114 0.089-0.115 0.087-0.116 0.085-0.117 0.084-0.118 0.083-0.119 0.082-0.12 0.08-0.121 0.079-0.122 0.077-0.123 0.076-0.124 0.074-0.125 0.073-0.126 0.071-0.127 0.07-0.129 0.069-0.128 0.067-0.13 0.065-0.131 0.064-0.132 0.063-0.132 0.061-0.133 0.059-0.135 0.058-0.135 0.056-0.135 0.055-0.137 0.052-0.138 0.052-0.138 0.049-0.139 0.048-0.14 0.047-0.141 0.045-0.141 0.043-0.142 0.041-0.143 0.039-0.143 0.038-0.145 0.037-0.145 0.034-0.145 0.033-0.146 0.03-0.147 0.03-0.148 0.027-0.148 0.025-0.148 0.024-0.149 0.022-0.15 0.02-0.15 0.018-0.151 0.016-0.152 0.015-0.151 0.012-0.153 0.011-0.153 8e-3 -0.153 7e-3 -0.153 5e-3 -0.155 3e-3 -0.148 1e-3h-4.028l-0.148-1e-3 -0.155-3e-3 -0.153-5e-3 -0.153-7e-3 -0.153-8e-3 -0.153-0.011-0.151-0.012-0.152-0.015-0.151-0.016-0.15-0.018-0.15-0.02-0.149-0.022-0.148-0.024-0.148-0.025-0.148-0.027-0.147-0.03-0.146-0.03-0.145-0.033-0.145-0.034-0.145-0.037-0.143-0.038-0.143-0.039-0.142-0.041-0.141-0.043-0.141-0.045-0.14-0.046-0.139-0.049-0.138-0.049-0.138-0.052-0.137-0.052-0.135-0.055-0.135-0.056-0.135-0.058-0.133-0.059-0.133-0.061-0.262-0.126-0.13-0.066-0.129-0.067-0.127-0.069-0.128-0.07-0.126-0.071-0.125-0.073-0.124-0.074-0.123-0.076-0.122-0.077-0.121-0.079-0.12-0.08-0.119-0.082-0.118-0.083-0.117-0.084-0.116-0.085-0.115-0.087-0.114-0.088-0.112-0.09-0.112-0.091-0.11-0.092-0.109-0.094-0.109-0.095-0.107-0.096-0.105-0.097-0.105-0.098-0.103-0.1-0.103-0.101-0.101-0.102-0.099-0.104-0.099-0.105-0.097-0.106-0.096-0.106-0.095-0.108-0.094-0.11-0.092-0.11-0.091-0.112-0.089-0.112-0.089-0.114-0.087-0.115-0.085-0.116-0.085-0.117-0.082-0.118-0.082-0.119-0.08-0.12-0.079-0.121-0.077-0.122-0.076-0.123-0.074-0.124-0.073-0.125-0.072-0.127-0.069-0.126-0.069-0.128-0.067-0.129-0.066-0.13-0.126-0.262-0.061-0.133-0.059-0.133-0.058-0.135-0.056-0.134-0.055-0.137-0.053-0.136-0.051-0.138-0.049-0.138-0.049-0.139-0.046-0.14-0.045-0.141-0.043-0.141-0.041-0.142-0.04-0.143-0.037-0.143-0.036-0.145-0.035-0.145-0.033-0.145-0.03-0.146-0.03-0.147-0.027-0.148-0.025-0.148-0.024-0.148-0.022-0.149-0.02-0.15-0.018-0.151-0.016-0.15-0.015-0.152-0.012-0.151-0.011-0.153-8e-3 -0.153-7e-3 -0.153-5e-3 -0.153-3e-3 -0.155-1e-3 -0.148v-2.022l1e-3 -0.168 3e-3 -0.174 6e-3 -0.173 7e-3 -0.173 0.01-0.173 0.012-0.172 0.013-0.173 0.016-0.172 0.019-0.171 0.02-0.171 0.022-0.171 0.024-0.17 0.027-0.17 0.028-0.169 0.031-0.169 0.032-0.169 0.035-0.168 0.037-0.167 0.038-0.167 0.041-0.166 0.043-0.166 0.045-0.165 0.046-0.164 0.049-0.164 0.051-0.163 0.052-0.163 0.055-0.162 0.057-0.161 0.058-0.16 0.061-0.16 0.062-0.159 0.064-0.158 0.067-0.157 0.068-0.157 0.07-0.155 0.072-0.155 0.074-0.154 0.076-0.153 0.077-0.152 0.08-0.152 0.081-0.15 0.084-0.149 0.085-0.148 0.087-0.148 0.089-0.146 0.09-0.145 0.092-0.145 0.095-0.143 0.096-0.142 0.098-0.141 0.099-0.14 0.102-0.139 0.103-0.138 0.105-0.136 0.107-0.135 0.108-0.134 0.11-0.133 0.112-0.132 0.114-0.13 0.115-0.129 0.117-0.128 0.119-0.126 0.121-0.125 0.122-0.124 0.124-0.122 0.125-0.121 0.126-0.119 0.128-0.117 0.129-0.115 0.13-0.114 0.132-0.112 0.133-0.11 0.134-0.108 0.135-0.107 0.136-0.105 0.138-0.103 0.139-0.102 0.14-0.099 0.141-0.098 0.142-0.096 0.143-0.095 0.144-0.092 0.146-0.09 0.146-0.089 0.147-0.087 0.149-0.085 0.149-0.084 0.15-0.081 0.152-0.08 0.152-0.077 0.153-0.076 0.154-0.074 0.155-0.072 0.155-0.07 0.157-0.068 0.157-0.067 0.158-0.064 0.159-0.062 0.16-0.061 0.16-0.058 0.161-0.057 0.162-0.055 0.163-0.052 0.163-0.051 0.164-0.049 0.164-0.046 0.165-0.045 0.166-0.043 0.166-0.041 0.167-0.038 0.167-0.037 0.168-0.035 0.169-0.032 0.169-0.031 0.169-0.028 0.17-0.027 0.17-0.024 0.171-0.022 0.171-0.02 0.172-0.019 0.171-0.016 0.173-0.013 0.172-0.012 0.173-0.01 0.173-7e-3 0.173-6e-3 0.174-3e-3 0.168-1e-3h0.014l0.168 1e-3zm-0.3 4-0.124 2e-3 -0.124 4e-3 -0.124 5e-3 -0.123 7e-3 -0.124 9e-3 -0.123 0.01-0.122 0.011-0.123 0.013-0.122 0.014-0.122 0.016-0.121 0.018-0.122 0.018-0.121 0.021-0.12 0.022-0.121 0.023-0.119 0.025-0.12 0.026-0.119 0.027-0.119 0.03-0.118 0.03-0.118 0.032-0.118 0.033-0.117 0.035-0.116 0.036-0.116 0.038-0.116 0.039-0.115 0.04-0.115 0.042-0.114 0.043-0.113 0.045-0.113 0.046-0.112 0.047-0.112 0.049-0.111 0.05-0.111 0.052-0.11 0.052-0.218 0.11-0.108 0.057-0.107 0.058-0.107 0.06-0.106 0.06-0.105 0.062-0.105 0.064-0.104 0.065-0.103 0.066-0.102 0.067-0.101 0.068-0.101 0.07-0.1 0.071-0.099 0.073-0.098 0.074-0.098 0.075-0.097 0.076-0.095 0.077-0.095 0.079-0.094 0.08-0.093 0.081-0.092 0.082-0.092 0.084-0.09 0.085-0.089 0.086-0.089 0.087-0.087 0.089-0.086 0.089-0.085 0.091-0.084 0.091-0.082 0.092-0.081 0.093-0.08 0.094-0.079 0.095-0.077 0.095-0.077 0.097-0.148 0.196-0.073 0.099-0.071 0.1-0.07 0.101-0.068 0.101-0.067 0.102-0.066 0.103-0.065 0.104-0.064 0.105-0.062 0.105-0.06 0.106-0.06 0.107-0.058 0.107-0.057 0.108-0.11 0.218-0.104 0.22-0.05 0.112-0.049 0.112-0.047 0.112-0.046 0.113-0.044 0.113-0.044 0.115-0.042 0.114-0.04 0.115-0.039 0.116-0.038 0.116-0.036 0.116-0.035 0.117-0.033 0.118-0.032 0.118-0.03 0.118-0.03 0.119-0.027 0.119-0.026 0.12-0.025 0.119-0.023 0.121-0.022 0.12-0.021 0.121-0.018 0.122-0.018 0.121-0.016 0.122-0.014 0.122-0.013 0.123-0.011 0.123-0.01 0.122-9e-3 0.124-7e-3 0.123-5e-3 0.124-4e-3 0.124-2e-3 0.124-1e-3 0.13v1.998l1e-3 0.11 2e-3 0.103 3e-3 0.103 4e-3 0.103 6e-3 0.102 7e-3 0.102 9e-3 0.101 9e-3 0.102 0.011 0.1 0.012 0.101 0.014 0.099 0.014 0.1 0.016 0.099 0.017 0.098 0.018 0.098 0.019 0.098 0.021 0.097 0.022 0.097 0.022 0.096 0.025 0.096 0.025 0.095 0.026 0.095 0.027 0.094 0.029 0.094 0.03 0.094 0.03 0.093 0.032 0.092 0.033 0.092 0.035 0.092 0.035 0.09 0.036 0.09 0.037 0.09 0.039 0.09 0.039 0.088 0.082 0.176 0.043 0.087 0.043 0.086 0.045 0.086 0.045 0.085 0.047 0.085 0.048 0.084 0.048 0.083 0.05 0.083 0.05 0.082 0.104 0.162 0.054 0.08 0.054 0.079 0.056 0.079 0.056 0.078 0.057 0.078 0.058 0.076 0.059 0.076 0.12 0.15 0.124 0.146 0.064 0.073 0.064 0.071 0.065 0.071 0.066 0.07 0.066 0.069 0.136 0.136 0.069 0.066 0.07 0.066 0.071 0.065 0.071 0.064 0.072 0.064 0.073 0.062 0.074 0.062 0.15 0.12 0.076 0.059 0.076 0.058 0.156 0.114 0.079 0.055 0.079 0.054 0.08 0.054 0.162 0.104 0.082 0.05 0.083 0.05 0.083 0.048 0.084 0.048 0.085 0.047 0.085 0.045 0.086 0.045 0.086 0.043 0.087 0.043 0.176 0.082 0.178 0.078 0.09 0.037 0.09 0.036 0.182 0.07 0.092 0.033 0.092 0.031 0.093 0.031 0.094 0.03 0.093 0.029 0.095 0.027 0.095 0.026 0.095 0.025 0.096 0.024 0.096 0.023 0.097 0.022 0.097 0.021 0.098 0.019 0.098 0.018 0.098 0.017 0.099 0.016 0.2 0.028 0.1 0.012 0.1 0.011 0.101 9e-3 0.102 9e-3 0.102 7e-3 0.102 6e-3 0.103 4e-3 0.103 3e-3 0.103 2e-3 0.11 1e-3h4.004l0.11-1e-3 0.103-2e-3 0.103-3e-3 0.103-4e-3 0.102-6e-3 0.102-7e-3 0.102-9e-3 0.101-9e-3 0.1-0.011 0.1-0.012 0.2-0.028 0.099-0.016 0.098-0.017 0.098-0.018 0.098-0.019 0.097-0.021 0.097-0.022 0.096-0.023 0.096-0.024 0.095-0.025 0.095-0.026 0.094-0.027 0.094-0.029 0.094-0.03 0.093-0.03 0.092-0.032 0.092-0.033 0.182-0.07 0.09-0.036 0.09-0.037 0.178-0.078 0.176-0.082 0.087-0.043 0.086-0.043 0.086-0.045 0.085-0.045 0.085-0.047 0.084-0.048 0.083-0.048 0.083-0.05 0.082-0.05 0.162-0.104 0.08-0.054 0.079-0.054 0.079-0.055 0.078-0.057 0.077-0.057 0.077-0.058 0.076-0.059 0.15-0.12 0.074-0.062 0.072-0.062 0.073-0.064 0.071-0.064 0.071-0.065 0.07-0.066 0.069-0.066 0.136-0.136 0.066-0.069 0.066-0.07 0.065-0.071 0.064-0.071 0.064-0.073 0.062-0.072 0.062-0.074 0.061-0.075 0.059-0.075 0.059-0.076 0.058-0.076 0.114-0.156 0.055-0.079 0.054-0.079 0.054-0.08 0.104-0.162 0.05-0.082 0.05-0.083 0.048-0.083 0.048-0.084 0.047-0.085 0.045-0.085 0.045-0.086 0.043-0.086 0.043-0.087 0.082-0.176 0.039-0.088 0.039-0.09 0.037-0.09 0.036-0.09 0.036-0.091 0.034-0.091 0.033-0.092 0.031-0.092 0.031-0.093 0.03-0.094 0.029-0.094 0.027-0.094 0.026-0.095 0.025-0.095 0.024-0.096 0.023-0.096 0.022-0.097 0.021-0.097 0.019-0.098 0.018-0.098 0.017-0.098 0.016-0.099 0.028-0.2 0.012-0.1 0.011-0.1 9e-3 -0.101 9e-3 -0.102 7e-3 -0.102 6e-3 -0.102 4e-3 -0.103 3e-3 -0.103 2e-3 -0.103 1e-3 -0.11v-1.996l-1e-3 -0.13-2e-3 -0.124-4e-3 -0.124-5e-3 -0.124-7e-3 -0.123-9e-3 -0.124-0.01-0.123-0.011-0.123-0.013-0.122-0.014-0.122-0.016-0.122-0.018-0.122-0.019-0.121-0.02-0.121-0.022-0.121-0.023-0.12-0.025-0.12-0.026-0.119-0.027-0.12-0.03-0.119-0.03-0.118-0.032-0.118-0.033-0.117-0.035-0.117-0.037-0.117-0.037-0.116-0.039-0.116-0.041-0.115-0.041-0.114-0.088-0.228-0.046-0.113-0.096-0.224-0.05-0.111-0.052-0.111-0.053-0.11-0.054-0.109-0.055-0.109-0.057-0.108-0.058-0.107-0.06-0.107-0.061-0.106-0.062-0.105-0.063-0.105-0.065-0.104-0.066-0.103-0.067-0.102-0.069-0.101-0.07-0.101-0.071-0.1-0.072-0.099-0.074-0.099-0.075-0.097-0.076-0.097-0.156-0.19-0.08-0.094-0.082-0.094-0.082-0.092-0.084-0.091-0.084-0.09-0.087-0.09-0.087-0.088-0.088-0.087-0.09-0.086-0.09-0.085-0.091-0.084-0.186-0.164-0.094-0.08-0.094-0.078-0.096-0.078-0.097-0.076-0.097-0.075-0.099-0.074-0.099-0.072-0.1-0.071-0.1-0.07-0.102-0.069-0.102-0.067-0.103-0.066-0.104-0.065-0.105-0.063-0.105-0.062-0.106-0.061-0.107-0.06-0.107-0.058-0.108-0.057-0.109-0.055-0.109-0.054-0.11-0.053-0.111-0.052-0.111-0.05-0.224-0.096-0.113-0.046-0.228-0.088-0.114-0.041-0.115-0.041-0.116-0.039-0.116-0.038-0.117-0.036-0.117-0.035-0.117-0.033-0.118-0.032-0.119-0.03-0.118-0.029-0.12-0.028-0.119-0.026-0.12-0.025-0.12-0.023-0.121-0.022-0.121-0.021-0.121-0.018-0.122-0.018-0.122-0.016-0.122-0.014-0.123-0.013-0.122-0.011-0.123-0.01-0.124-9e-3 -0.123-7e-3 -0.124-5e-3 -0.124-4e-3 -0.124-2e-3 -0.125-1e-3 -0.125 1e-3z"/></g><g id="emoji"><path d="m23 7s1.319-0.659 2.442-1.221c1.032-0.516 1.974-1.195 2.79-2.011l1.768-1.768v3.758c0 2.716-1.079 5.321-3 7.242l-4-6z" fill="#530f8a"/><path d="m30.092 2e-3 0.093 7e-3 0.091 0.01 0.091 0.015 0.091 0.019 0.089 0.023 0.089 0.028 0.086 0.031 0.086 0.035 0.083 0.04 0.082 0.043 0.08 0.047 0.077 0.05 0.075 0.054 0.073 0.057 0.069 0.061 0.067 0.064 0.064 0.067 0.061 0.069 0.057 0.073 0.054 0.075 0.05 0.077 0.047 0.08 0.043 0.082 0.04 0.083 0.035 0.086 0.031 0.086 0.028 0.089 0.023 0.089 0.019 0.091 0.015 0.091 0.01 0.091 7e-3 0.093 2e-3 0.092v3.764l-1e-3 0.146-3e-3 0.151-4e-3 0.152-7e-3 0.152-8e-3 0.151-0.011 0.151-0.012 0.15-0.014 0.15-0.016 0.151-0.017 0.149-0.02 0.149-0.021 0.149-0.023 0.149-0.025 0.148-0.027 0.148-0.028 0.147-0.031 0.147-0.032 0.146-0.034 0.146-0.035 0.146-0.038 0.144-0.039 0.145-0.041 0.144-0.042 0.143-0.044 0.143-0.047 0.142-0.047 0.141-0.05 0.141-0.051 0.141-0.053 0.139-0.055 0.139-0.056 0.138-0.058 0.138-0.059 0.137-0.062 0.136-0.063 0.135-0.064 0.135-0.067 0.134-0.068 0.133-0.069 0.132-0.071 0.132-0.073 0.13-0.075 0.13-0.076 0.129-0.077 0.128-0.08 0.127-0.08 0.126-0.083 0.125-0.084 0.125-0.085 0.123-0.087 0.123-0.089 0.121-0.09 0.12-0.092 0.12-0.094 0.118-0.094 0.117-0.097 0.116-0.098 0.115-0.099 0.114-0.101 0.113-0.102 0.112-0.104 0.11-0.106 0.11-0.089 0.091 8e-3 -9e-3 -0.065 0.064-0.068 0.062-0.071 0.058-0.073 0.055-0.076 0.052-0.078 0.048-0.08 0.044-0.082 0.041-0.084 0.037-0.085 0.033-0.087 0.029-0.088 0.025-0.089 0.021-0.091 0.017-0.09 0.012-0.091 9e-3 -0.092 4e-3 -0.092 1e-3 -0.091-4e-3 -0.091-9e-3 -0.091-0.012-0.09-0.016-0.089-0.021-0.089-0.025-0.087-0.028-0.085-0.033-0.084-0.037-0.083-0.04-0.08-0.044-0.078-0.048-0.076-0.051-0.074-0.055-0.071-0.058-0.068-0.061-0.065-0.064-0.062-0.067-0.06-0.07-0.056-0.073-0.052-0.075-4-6-0.049-0.077-0.046-0.08-0.041-0.081-0.038-0.083-0.035-0.085-0.03-0.087-0.026-0.088-0.022-0.089-0.018-0.089-0.014-0.091-0.01-0.091-6e-3 -0.092-1e-3 -0.091 3e-3 -0.092 7e-3 -0.091 0.011-0.091 0.015-0.09 0.02-0.09 0.023-0.088 0.028-0.088 0.031-0.086 0.036-0.084 0.039-0.083 0.043-0.081 0.047-0.079 0.05-0.077 0.054-0.074 0.057-0.071 0.06-0.07 0.063-0.066 0.067-0.063 0.069-0.06 0.072-0.057 0.074-0.053 0.077-0.051 0.079-0.046 0.081-0.043 2.437-1.218 0.083-0.042 0.156-0.082 0.077-0.042 0.077-0.043 0.152-0.088 0.075-0.045 0.075-0.046 0.148-0.094 0.074-0.048 0.073-0.049 0.072-0.049 0.072-0.05 0.072-0.051 0.07-0.052 0.071-0.052 0.07-0.054 0.069-0.053 0.069-0.055 0.068-0.055 0.068-0.056 0.067-0.056 0.067-0.058 0.065-0.057 0.066-0.059 0.065-0.059 0.064-0.06 0.064-0.061 0.063-0.061 0.066-0.066 1.765-1.764 0.067-0.064 0.069-0.061 0.073-0.057 0.075-0.054 0.077-0.05 0.08-0.047 0.082-0.043 0.083-0.04 0.086-0.035 0.086-0.031 0.089-0.028 0.089-0.023 0.091-0.019 0.091-0.015 0.091-0.01 0.093-7e-3 0.092-2e-3 0.092 2e-3zm-1.86 3.766-0.077 0.076-0.156 0.15-0.079 0.074-0.16 0.144-0.081 0.072-0.082 0.07-0.166 0.138-0.084 0.068-0.084 0.067-0.086 0.066-0.085 0.065-0.087 0.065-0.087 0.063-0.088 0.063-0.088 0.061-0.089 0.061-0.09 0.06-0.09 0.059-0.091 0.058-0.092 0.058-0.092 0.056-0.092 0.055-0.093 0.055-0.094 0.053-0.095 0.053-0.094 0.052-0.192 0.1-0.096 0.049-2.442 1.221 4 6 0.09-0.091 0.088-0.091 0.087-0.093 0.085-0.093 0.085-0.095 0.083-0.095 0.082-0.096 0.081-0.097 0.079-0.099 0.078-0.098 0.077-0.1 0.075-0.101 0.074-0.102 0.073-0.102 0.072-0.103 0.07-0.104 0.069-0.105 0.068-0.105 0.066-0.107 0.065-0.107 0.064-0.108 0.062-0.108 0.061-0.11 0.118-0.22 0.056-0.112 0.056-0.111 0.054-0.113 0.053-0.113 0.051-0.114 0.05-0.115 0.048-0.115 0.047-0.116 0.046-0.116 0.044-0.117 0.043-0.117 0.042-0.118 0.04-0.118 0.038-0.119 0.037-0.12 0.036-0.12 0.034-0.12 0.033-0.121 0.031-0.121 0.03-0.122 0.028-0.122 0.027-0.122 0.025-0.123 0.024-0.123 0.023-0.124 0.04-0.248 0.018-0.125 0.016-0.124 0.015-0.126 0.013-0.125 0.012-0.126 0.01-0.126 8e-3 -0.126 7e-3 -0.127 6e-3 -0.126 4e-3 -0.127 2e-3 -0.127 1e-3 -0.127v-3.758l-1.768 1.768z"/><path d="m9 7s-1.319-0.659-2.442-1.221c-1.032-0.516-1.974-1.195-2.79-2.011l-1.768-1.768v3.758c0 2.716 1.079 5.321 3 7.242l4-6z" fill="#530f8a"/><path d="m2.092 2e-3 0.093 7e-3 0.091 0.01 0.091 0.015 0.091 0.019 0.089 0.023 0.089 0.028 0.086 0.031 0.086 0.035 0.083 0.04 0.082 0.043 0.08 0.047 0.077 0.05 0.075 0.054 0.073 0.057 0.069 0.061 0.067 0.064 1.765 1.764 0.066 0.066 0.063 0.061 0.064 0.061 0.064 0.06 0.065 0.059 0.065 0.058 0.067 0.058 0.066 0.058 0.067 0.056 0.068 0.056 0.068 0.055 0.069 0.055 0.069 0.053 0.07 0.054 0.142 0.104 0.071 0.051 0.072 0.05 0.072 0.049 0.073 0.049 0.074 0.048 0.148 0.094 0.075 0.046 0.075 0.045 0.076 0.044 0.077 0.044 0.076 0.043 0.077 0.042 0.078 0.041 0.078 0.04 0.083 0.042 2.437 1.219 0.081 0.043 0.079 0.046 0.077 0.051 0.074 0.053 0.072 0.057 0.069 0.06 0.067 0.063 0.063 0.066 0.06 0.07 0.057 0.071 0.054 0.074 0.05 0.077 0.047 0.079 0.043 0.081 0.039 0.083 0.036 0.084 0.031 0.086 0.028 0.088 0.023 0.088 0.02 0.09 0.015 0.09 0.011 0.091 7e-3 0.091 3e-3 0.092-1e-3 0.091-6e-3 0.092-0.01 0.091-0.014 0.091-0.018 0.089-0.022 0.089-0.026 0.088-0.03 0.087-0.035 0.085-0.038 0.083-0.041 0.081-0.046 0.08-0.049 0.077-4 6-0.052 0.075-0.056 0.073-0.06 0.07-0.062 0.067-0.065 0.064-0.068 0.061-0.071 0.058-0.074 0.055-0.076 0.051-0.078 0.048-0.08 0.044-0.083 0.04-0.084 0.037-0.085 0.033-0.087 0.028-0.089 0.025-0.089 0.021-0.09 0.016-0.091 0.012-0.091 9e-3 -0.091 4e-3 -0.092-1e-3 -0.092-4e-3 -0.091-9e-3 -0.09-0.012-0.091-0.017-0.089-0.021-0.088-0.025-0.087-0.029-0.085-0.033-0.084-0.037-0.082-0.041-0.08-0.044-0.078-0.048-0.076-0.052-0.073-0.055-0.071-0.058-0.068-0.062-0.065-0.064 8e-3 9e-3 -0.089-0.091-0.106-0.109-0.104-0.111-0.102-0.112-0.101-0.113-0.099-0.113-0.098-0.116-0.097-0.116-0.094-0.117-0.094-0.118-0.182-0.24-0.089-0.121-0.087-0.123-0.085-0.123-0.084-0.125-0.083-0.125-0.08-0.126-0.08-0.127-0.077-0.128-0.076-0.129-0.075-0.13-0.073-0.13-0.071-0.132-0.069-0.132-0.068-0.133-0.067-0.134-0.064-0.135-0.063-0.135-0.061-0.136-0.06-0.137-0.058-0.138-0.056-0.138-0.055-0.139-0.053-0.139-0.051-0.141-0.05-0.141-0.047-0.141-0.046-0.142-0.045-0.143-0.043-0.143-0.04-0.144-0.039-0.144-0.038-0.145-0.035-0.146-0.034-0.146-0.032-0.146-0.031-0.147-0.028-0.147-0.027-0.148-0.025-0.148-0.023-0.149-0.021-0.148-0.02-0.15-0.017-0.149-0.016-0.15-0.014-0.151-0.012-0.15-0.011-0.151-8e-3 -0.151-7e-3 -0.152-4e-3 -0.151-3e-3 -0.152-1e-3 -0.146v-3.764l2e-3 -0.092 7e-3 -0.093 0.01-0.091 0.015-0.091 0.019-0.091 0.023-0.089 0.028-0.089 0.031-0.086 0.035-0.086 0.04-0.083 0.043-0.082 0.047-0.08 0.05-0.077 0.054-0.075 0.057-0.073 0.061-0.069 0.064-0.067 0.067-0.064 0.069-0.061 0.073-0.057 0.075-0.054 0.077-0.05 0.08-0.047 0.082-0.043 0.083-0.04 0.085-0.035 0.087-0.031 0.089-0.028 0.089-0.023 0.09-0.019 0.092-0.015 0.091-0.01 0.093-7e-3 0.092-2e-3 0.092 2e-3zm-0.092 5.756 1e-3 0.127 2e-3 0.127 4e-3 0.127 6e-3 0.126 7e-3 0.127 8e-3 0.126 0.01 0.126 0.012 0.126 0.013 0.125 0.015 0.126 0.016 0.124 0.018 0.125 0.04 0.248 0.023 0.124 0.024 0.123 0.025 0.123 0.027 0.122 0.028 0.122 0.03 0.122 0.031 0.121 0.033 0.121 0.034 0.12 0.036 0.12 0.037 0.12 0.038 0.119 0.04 0.118 0.042 0.118 0.043 0.117 0.044 0.117 0.046 0.116 0.047 0.116 0.048 0.115 0.05 0.115 0.051 0.114 0.053 0.113 0.054 0.113 0.056 0.111 0.056 0.112 0.118 0.22 0.061 0.11 0.062 0.108 0.064 0.108 0.065 0.107 0.066 0.107 0.068 0.105 0.069 0.105 0.07 0.104 0.072 0.103 0.073 0.102 0.074 0.102 0.075 0.101 0.077 0.1 0.078 0.098 0.079 0.099 0.081 0.097 0.082 0.096 0.083 0.095 0.085 0.095 0.085 0.093 0.087 0.093 0.088 0.091 0.09 0.091 4-6-2.442-1.221-0.096-0.049-0.192-0.1-0.094-0.052-0.095-0.053-0.094-0.053-0.093-0.055-0.092-0.055-0.092-0.056-0.092-0.058-0.091-0.058-0.09-0.059-0.09-0.06-0.089-0.061-0.088-0.061-0.088-0.063-0.087-0.063-0.087-0.065-0.085-0.065-0.086-0.066-0.084-0.067-0.084-0.068-0.166-0.138-0.082-0.07-0.081-0.072-0.16-0.144-0.079-0.074-0.156-0.15-0.077-0.076-1.768-1.768v3.758z"/><path d="m23 7s1.319-0.659 2.442-1.221c1.032-0.516 1.974-1.195 2.79-2.011l1.768-1.768v3.758c0 2.716-1.079 5.321-3 7.242l-4-6z" fill="#530f8a"/><path d="m9 7s-1.319-0.659-2.442-1.221c-1.032-0.516-1.974-1.195-2.79-2.011l-1.768-1.768v3.758c0 2.716 1.079 5.321 3 7.242l4-6z" fill="#530f8a"/><path d="m28 16c0-3.183-1.264-6.235-3.515-8.485-2.25-2.251-5.302-3.515-8.485-3.515h-2e-3c-3.182 0-6.234 1.264-8.484 3.514s-3.514 5.302-3.514 8.484v2.01c0 5.518 4.474 9.992 9.992 9.992h4.016c5.518 0 9.992-4.474 9.992-9.992v-2.008z" fill="#a253e2"/><clipPath id="_clip2"><path d="m28 16c0-3.183-1.264-6.235-3.515-8.485-2.25-2.251-5.302-3.515-8.485-3.515h-2e-3c-3.182 0-6.234 1.264-8.484 3.514s-3.514 5.302-3.514 8.484v2.01c0 5.518 4.474 9.992 9.992 9.992h4.016c5.518 0 9.992-4.474 9.992-9.992v-2.008z"/></clipPath><g clip-path="url(#_clip2)"><path d="m15 24s-1.983-1.416-3.838-2.741c-0.609-0.436-1.411-0.494-2.077-0.151s-1.085 1.029-1.085 1.778v8.114c0 0.552 0.448 1 1 1h3c0.265 0 0.52-0.105 0.707-0.293 0.188-0.187 0.293-0.442 0.293-0.707v-1h8s-3.011-3.614-4.36-5.232c-0.406-0.487-1.006-0.768-1.64-0.768z" fill="#7e22c9"/></g><path d="m18.939 16.647 2.144-2.144 4.698 5.872 0.048 0.065 0.042 0.069 0.037 0.071 0.031 0.075 0.024 0.076 0.019 0.079 0.012 0.079 6e-3 0.081-1e-3 0.08-8e-3 0.08-0.013 0.08-0.02 0.078-0.027 0.076-0.032 0.074-0.038 0.071-0.044 0.067-0.049 0.064-0.054 0.06-0.058 0.055-0.063 0.05-0.067 0.045-0.07 0.04-0.073 0.034-0.076 0.028-0.077 0.021-0.079 0.016-0.08 9e-3 -0.081 2e-3 -0.08-4e-3 -0.08-0.011-0.079-0.016-0.077-0.024-0.075-0.029-0.073-0.035-0.069-0.041-0.066-0.047-0.062-0.051-0.057-0.056-0.053-0.061-3.302-4.128-1.856 1.856-3.059-2.55-3.064 2.571-2.068-2.085-2.315 1.543-0.069 0.042-0.072 0.036-0.075 0.031-0.076 0.024-0.079 0.018-0.08 0.012-0.08 5e-3 -0.08-2e-3 -0.081-7e-3 -0.079-0.015-0.078-0.02-0.076-0.027-0.073-0.033-0.071-0.038-0.067-0.044-0.064-0.05-0.059-0.054-0.055-0.059-0.05-0.063-0.045-0.067-0.039-0.071-0.033-0.073-0.028-0.076-0.021-0.077-0.015-0.08-8e-3 -0.08-2e-3 -0.08 5e-3 -0.081 0.011-0.079 0.017-0.079 0.024-0.077 0.029-0.075 0.036-0.072 0.042-0.069 0.046-0.066 0.052-0.061 0.057-0.057 0.061-0.053 0.065-0.047 3.685-2.457 1.932 1.948 2.936-2.462 2.941 2.45z" fill="#3f0c69"/><path d="m14 9.5c0-0.928-0.369-1.818-1.025-2.475-0.657-0.656-1.547-1.025-2.475-1.025s-1.819 0.369-2.475 1.025c-0.656 0.657-1.025 1.547-1.025 2.475v1c0 0.928 0.369 1.818 1.025 2.475 0.657 0.656 1.547 1.025 2.475 1.025s1.818-0.369 2.475-1.025c0.656-0.657 1.025-1.547 1.025-2.475v-1z"/><path d="m21.5 7.5h-4.25c-0.69 0-1.25 0.56-1.25 1.25s0.56 1.25 1.25 1.25h4.25v-2.5z"/><path d="m25 7.5h-7v3c0 0.928 0.369 1.818 1.025 2.475 0.657 0.656 1.547 1.025 2.475 1.025s1.818-0.369 2.475-1.025c0.656-0.657 1.025-1.547 1.025-2.475v-3z"/><path d="m20 9h3v1.483c0 0.398-0.158 0.78-0.439 1.061-0.282 0.281-0.663 0.439-1.061 0.439h-0.01c-0.395 0-0.774-0.157-1.054-0.436-0.279-0.28-0.436-0.659-0.436-1.054v-1.493z" fill="#f2c040"/><path d="m9 8.5c0-0.828 0.672-1.5 1.5-1.5s1.5 0.672 1.5 1.5v1.983c0 0.829-0.672 1.5-1.5 1.5s-1.5-0.671-1.5-1.5v-1.983z" fill="#f2c040"/></g><path d="m8 23-0.894 0.447c-0.678 0.339-1.106 1.032-1.106 1.789v3.764c0 0.265 0.105 0.52 0.293 0.707 0.187 0.188 0.442 0.293 0.707 0.293h3c0.552 0 1-0.448 1-1v-2h2c0.552 0 1-0.448 1-1 0-0.265-0.105-0.52-0.293-0.707-0.187-0.188-0.442-0.293-0.707-0.293h-5v-2z" fill="#a253e2"/><path d="m10 23h3.025l0.124 3e-3 0.147 0.011 0.147 0.018 0.145 0.026 0.143 0.032 0.142 0.039 0.139 0.046 0.136 0.053 0.134 0.059 0.131 0.066 0.127 0.072 0.125 0.079 0.12 0.084 0.117 0.091 0.112 0.097 0.108 0.102 0.102 0.108 0.097 0.112 0.091 0.117 0.085 0.12 0.078 0.124 0.072 0.128 0.066 0.131 0.059 0.134 0.053 0.136 0.046 0.139 0.039 0.142 0.032 0.143 0.026 0.145 0.018 0.147 0.011 0.147 4e-3 0.15-4e-3 0.152-0.012 0.151-0.019 0.15-0.026 0.148-0.034 0.146-0.041 0.143-0.047 0.141-0.054 0.136-0.06 0.134-0.067 0.13-0.072 0.125-0.078 0.122-0.084 0.118-0.088 0.113-0.094 0.108-0.099 0.104-0.104 0.099-0.108 0.094-0.113 0.088-0.118 0.084-0.122 0.078-0.125 0.072-0.13 0.067-0.133 0.06-0.137 0.054-0.141 0.047-0.143 0.041-0.146 0.034-0.148 0.026-0.15 0.019-0.151 0.012-0.128 3e-3h-0.025v0.025l-3e-3 0.128-0.012 0.151-0.019 0.15-0.026 0.148-0.034 0.146-0.041 0.143-0.047 0.141-0.054 0.137-0.06 0.133-0.067 0.129-0.072 0.126-0.078 0.122-0.083 0.117-0.089 0.113-0.094 0.109-0.099 0.104-0.104 0.099-0.109 0.094-0.113 0.089-0.117 0.083-0.122 0.078-0.126 0.072-0.129 0.067-0.133 0.06-0.137 0.054-0.141 0.047-0.143 0.041-0.146 0.034-0.148 0.026-0.15 0.019-0.151 0.012-0.128 3e-3h-3.05l-0.124-3e-3 -0.147-0.011-0.147-0.018-0.145-0.026-0.143-0.032-0.142-0.039-0.139-0.046-0.136-0.053-0.134-0.059-0.131-0.066-0.128-0.072-0.124-0.078-0.12-0.085-0.117-0.091-0.112-0.097-0.108-0.102-0.102-0.108-0.097-0.112-0.091-0.117-0.084-0.12-0.079-0.125-0.072-0.127-0.066-0.131-0.059-0.134-0.053-0.136-0.046-0.139-0.039-0.142-0.032-0.143-0.026-0.145-0.018-0.147-0.011-0.147-3e-3 -0.124v-3.807l2e-3 -0.123 8e-3 -0.141 0.012-0.14 0.017-0.138 0.022-0.138 0.027-0.136 0.031-0.136 0.036-0.133 0.04-0.132 0.045-0.13 0.049-0.128 0.053-0.127 0.058-0.124 0.061-0.122 0.066-0.12 0.07-0.117 0.074-0.115 0.078-0.113 0.081-0.109 0.086-0.107 0.089-0.104 0.092-0.102 0.097-0.098 0.1-0.095 0.103-0.092 0.107-0.088 0.11-0.085 0.113-0.081 0.117-0.077 0.119-0.074 0.123-0.069 0.109-0.058 3.805-1.902v3.236zm-2.894 0.447-0.063 0.033-0.062 0.035-0.059 0.037-0.058 0.038-0.057 0.041-0.055 0.042-0.053 0.044-0.052 0.046-0.05 0.048-0.048 0.049-0.046 0.05-0.045 0.052-0.043 0.054-0.04 0.055-0.039 0.056-0.037 0.058-0.035 0.058-0.033 0.06-0.031 0.061-0.029 0.062-0.027 0.064-0.024 0.064-0.022 0.065-0.021 0.066-0.017 0.066-0.016 0.068-0.013 0.068-0.011 0.069-9e-3 0.069-6e-3 0.07-4e-3 0.07-1e-3 0.071v3.764l1e-3 0.05 4e-3 0.049 6e-3 0.049 8e-3 0.048 0.011 0.048 0.013 0.047 0.016 0.046 0.017 0.046 0.02 0.044 0.022 0.044 0.024 0.042 0.026 0.042 0.028 0.04 0.03 0.039 0.033 0.037 0.034 0.036 0.036 0.034 0.037 0.033 0.039 0.03 0.04 0.028 0.042 0.026 0.042 0.024 0.044 0.022 0.044 0.02 0.046 0.017 0.046 0.016 0.047 0.013 0.048 0.011 0.048 8e-3 0.049 6e-3 0.049 4e-3 0.05 1e-3h3l0.051-1e-3 0.051-4e-3 0.05-7e-3 0.05-8e-3 0.048-0.011 0.047-0.014 0.047-0.016 0.045-0.018 0.045-0.02 0.043-0.022 0.042-0.024 0.04-0.026 0.039-0.028 0.038-0.029 0.036-0.032 0.035-0.033 0.033-0.035 0.032-0.036 0.029-0.038 0.028-0.039 0.026-0.04 0.024-0.042 0.022-0.043 0.02-0.045 0.018-0.045 0.016-0.047 0.014-0.047 0.011-0.048 8e-3 -0.05 7e-3 -0.05 4e-3 -0.051 1e-3 -0.051v-2h2l0.051-1e-3 0.051-4e-3 0.05-7e-3 0.05-8e-3 0.048-0.011 0.047-0.014 0.047-0.016 0.045-0.018 0.045-0.02 0.043-0.022 0.042-0.024 0.04-0.026 0.039-0.028 0.038-0.029 0.036-0.032 0.035-0.033 0.033-0.035 0.032-0.036 0.029-0.038 0.028-0.039 0.026-0.04 0.024-0.042 0.022-0.043 0.02-0.045 0.018-0.045 0.016-0.047 0.014-0.047 0.011-0.048 8e-3 -0.05 7e-3 -0.05 4e-3 -0.051 1e-3 -0.051-1e-3 -0.05-4e-3 -0.049-6e-3 -0.049-8e-3 -0.048-0.011-0.048-0.013-0.047-0.016-0.046-0.017-0.046-0.02-0.044-0.022-0.044-0.024-0.042-0.026-0.042-0.028-0.04-0.03-0.039-0.033-0.037-0.034-0.036-0.036-0.034-0.037-0.033-0.039-0.03-0.04-0.028-0.042-0.026-0.042-0.024-0.044-0.022-0.044-0.02-0.046-0.017-0.046-0.016-0.047-0.013-0.048-0.011-0.048-8e-3 -0.049-6e-3 -0.049-4e-3 -0.05-1e-3h-5v-2l-0.894 0.447z"/></g></svg>
