<?xml version="1.0" encoding="UTF-8" standalone="no"?><!DOCTYPE svg PUBLIC "-//W3C//DTD SVG 1.1//EN" "http://www.w3.org/Graphics/SVG/1.1/DTD/svg11.dtd"><svg width="100%" height="100%" viewBox="0 0 32 32" version="1.1" xmlns="http://www.w3.org/2000/svg" xmlns:xlink="http://www.w3.org/1999/xlink" xml:space="preserve" xmlns:serif="http://www.serif.com/" style="fill-rule:evenodd;clip-rule:evenodd;stroke-linecap:round;stroke-miterlimit:1.5;">
<metadata>
<rdf:RDF xmlns:cc="http://web.resource.org/cc/"
         xmlns:rdf="http://www.w3.org/1999/02/22-rdf-syntax-ns#"
         xmlns:dc = "http://purl.org/dc/elements/1.1/"
         >

     <rdf:Description rdf:about="">
       <dc:title>Mutant Standard S3</dc:title>
     </rdf:Description>

    <cc:work rdf:about="">
        <cc:license rdf:resource="http://creativecommons.org/licenses/by-nc-sa/4.0/"/>
        <cc:attributionName>Dzuk</cc:attributionName>
        <cc:attributionURL>http://mutant.tech/</cc:attributionURL>
    </cc:work>

</rdf:RDF>
</metadata>
<rect id="shark_think" x="0" y="0" width="32" height="32" style="fill:none;"/><clipPath id="_clip1"><rect x="0" y="0" width="32" height="32"/></clipPath><g clip-path="url(#_clip1)"><g id="outline"><path d="M30,11c0,0 -0.837,-0.813 -2,-1.944c-4.352,-4.231 -10.583,-5.91 -16.472,-4.438c-4.759,1.19 -9.528,2.382 -9.528,2.382c0,0 0,0 0,0.001c0,4.283 2.439,8.193 6.286,10.077c1.001,0.49 1.714,0.839 1.714,0.839c0,0 0.67,1.34 1.235,2.469c0.507,1.015 1.168,1.945 1.959,2.757c2.231,2.29 6.806,6.985 6.806,6.985l10,-0.128l0,-19Z" style="fill:none;stroke:#000;stroke-width:4px;"/></g><g id="emoji"><path d="M30,11c0,0 -0.837,-0.813 -2,-1.944c-4.352,-4.231 -10.583,-5.91 -16.472,-4.438c-4.759,1.19 -9.528,2.382 -9.528,2.382c0,0 0,0 0,0.001c0,4.283 2.439,8.193 6.286,10.077c1.001,0.49 1.714,0.839 1.714,0.839c0,0 0.67,1.34 1.235,2.469c0.507,1.015 1.168,1.945 1.959,2.757c2.231,2.29 6.806,6.985 6.806,6.985l10,-0.128l0,-19Z" style="fill:#78a0ba;"/><clipPath id="_clip2"><path d="M30,11c0,0 -0.837,-0.813 -2,-1.944c-4.352,-4.231 -10.583,-5.91 -16.472,-4.438c-4.759,1.19 -9.528,2.382 -9.528,2.382c0,0 0,0 0,0.001c0,4.283 2.439,8.193 6.286,10.077c1.001,0.49 1.714,0.839 1.714,0.839c0,0 0.67,1.34 1.235,2.469c0.507,1.015 1.168,1.945 1.959,2.757c2.231,2.29 6.806,6.985 6.806,6.985l10,-0.128l0,-19Z"/></clipPath><g clip-path="url(#_clip2)"><path d="M0,7c0,0 2.433,0 4.2,0c1.19,0 2.371,0.214 3.485,0.632c2.403,0.901 6.886,2.582 10.198,3.824c2.666,1 4.914,2.873 6.379,5.314c2.666,4.444 6.738,11.23 6.738,11.23l0,4l-31,0l0,-25Z" style="fill:#ebf1f5;"/><path d="M9,19c0,0 4.38,-2.19 6.658,-3.329c0.845,-0.422 1.839,-0.422 2.684,0c1.162,0.581 2.658,1.329 2.658,1.329c0,0 -1.433,0 -2.584,0c-0.931,0 -1.85,0.217 -2.683,0.633c-2.255,1.128 -6.733,3.367 -6.733,3.367l0,-2Z" style="fill:#d291b2;"/><clipPath id="_clip3"><path d="M9,19c0,0 4.38,-2.19 6.658,-3.329c0.845,-0.422 1.839,-0.422 2.684,0c1.162,0.581 2.658,1.329 2.658,1.329c0,0 -1.433,0 -2.584,0c-0.931,0 -1.85,0.217 -2.683,0.633c-2.255,1.128 -6.733,3.367 -6.733,3.367l0,-2Z"/></clipPath><g clip-path="url(#_clip3)"><path d="M14,19l1,-3l3,1l-4,2Z" style="fill:#fff;"/><path d="M10,21l1,-3l3,1l-4,2Z" style="fill:#fff;"/></g></g><circle cx="19" cy="8" r="2"/><path d="M8,10l1,0" style="fill:none;stroke:#58666f;stroke-width:2px;"/><path d="M9,20c0,0 -1.225,0.817 -2.109,1.406c-0.557,0.371 -0.891,0.996 -0.891,1.664c0,1.555 0,4.416 0,5.93c0,0.265 0.105,0.52 0.293,0.707c0.187,0.188 0.442,0.293 0.707,0.293c1.11,0 2.89,0 4,0c0.265,0 0.52,-0.105 0.707,-0.293c0.188,-0.187 0.293,-0.442 0.293,-0.707c0,-1.185 0,-3 0,-3c0,0 2.027,0 3.5,0c0.398,0 0.779,-0.158 1.061,-0.439c0.281,-0.282 0.439,-0.663 0.439,-1.061c0,-0.398 -0.158,-0.779 -0.439,-1.061c-0.282,-0.281 -0.663,-0.439 -1.061,-0.439c-2.316,0 -6.5,0 -6.5,0l0,-3Z" style="fill:#78a0ba;"/><path d="M11,16.534l0,4.466l4.512,0l0.075,0.001l0.086,0.003l0.087,0.005l0.086,0.008l0.086,0.01l0.085,0.011l0.085,0.014l0.084,0.016l0.084,0.018l0.083,0.019l0.083,0.022l0.082,0.024l0.081,0.026l0.081,0.028l0.08,0.03l0.08,0.031l0.078,0.034l0.077,0.035l0.077,0.038l0.076,0.039l0.075,0.041l0.074,0.043l0.073,0.045l0.072,0.047l0.07,0.048l0.07,0.051l0.069,0.052l0.067,0.053l0.066,0.056l0.065,0.057l0.064,0.059l0.062,0.061l0.061,0.062l0.058,0.063l0.058,0.066l0.056,0.066l0.053,0.067l0.053,0.069l0.049,0.069l0.049,0.071l0.047,0.073l0.044,0.072l0.043,0.074l0.042,0.074l0.039,0.077l0.037,0.076l0.036,0.078l0.034,0.079l0.031,0.078l0.03,0.081l0.028,0.081l0.026,0.081l0.024,0.082l0.022,0.083l0.019,0.083l0.018,0.083l0.016,0.085l0.014,0.086l0.011,0.083l0.01,0.088l0.008,0.087l0.005,0.084l0.003,0.087l0.001,0.087l-0.001,0.087l-0.003,0.087l-0.005,0.084l-0.008,0.087l-0.01,0.088l-0.011,0.083l-0.014,0.086l-0.016,0.085l-0.018,0.083l-0.019,0.083l-0.022,0.083l-0.024,0.082l-0.026,0.081l-0.028,0.081l-0.03,0.082l-0.031,0.077l-0.034,0.079l-0.036,0.078l-0.037,0.076l-0.039,0.077l-0.042,0.074l-0.042,0.073l-0.045,0.073l-0.048,0.074l-0.048,0.07l-0.049,0.069l-0.053,0.069l-0.053,0.067l-0.056,0.066l-0.058,0.066l-0.058,0.063l-0.061,0.062l-0.062,0.061l-0.064,0.059l-0.065,0.057l-0.065,0.055l-0.068,0.054l-0.069,0.053l-0.069,0.049l-0.071,0.049l-0.072,0.047l-0.073,0.045l-0.074,0.043l-0.075,0.041l-0.076,0.039l-0.077,0.038l-0.077,0.035l-0.078,0.034l-0.08,0.031l-0.08,0.03l-0.081,0.028l-0.081,0.026l-0.082,0.024l-0.083,0.022l-0.083,0.019l-0.084,0.018l-0.084,0.016l-0.085,0.014l-0.085,0.011l-0.086,0.01l-0.086,0.008l-0.087,0.005l-0.086,0.003l-0.075,0.001l-1.512,0l0,1.025l-0.003,0.123l-0.011,0.148l-0.018,0.147l-0.026,0.145l-0.032,0.144l-0.039,0.141l-0.046,0.139l-0.053,0.136l-0.059,0.134l-0.066,0.131l-0.072,0.128l-0.078,0.124l-0.085,0.12l-0.091,0.117l-0.097,0.112l-0.102,0.108l-0.108,0.102l-0.112,0.097l-0.116,0.091l-0.121,0.084l-0.125,0.079l-0.127,0.072l-0.131,0.066l-0.134,0.059l-0.136,0.053l-0.139,0.046l-0.141,0.039l-0.144,0.032l-0.145,0.026l-0.147,0.018l-0.147,0.011l-0.124,0.003l-4.05,0l-0.124,-0.003l-0.147,-0.011l-0.147,-0.018l-0.145,-0.026l-0.143,-0.032l-0.142,-0.039l-0.139,-0.046l-0.136,-0.053l-0.134,-0.059l-0.131,-0.066l-0.128,-0.072l-0.124,-0.078l-0.12,-0.085l-0.117,-0.091l-0.112,-0.097l-0.107,-0.102l-0.103,-0.108l-0.097,-0.112l-0.091,-0.116l-0.085,-0.121l-0.078,-0.125l-0.072,-0.127l-0.066,-0.131l-0.059,-0.134l-0.053,-0.136l-0.046,-0.139l-0.039,-0.142l-0.032,-0.143l-0.026,-0.145l-0.018,-0.147l-0.011,-0.148l-0.003,-0.124l0,-5.969l0.002,-0.109l0.006,-0.125l0.009,-0.124l0.014,-0.123l0.017,-0.122l0.021,-0.122l0.025,-0.121l0.028,-0.119l0.031,-0.117l0.036,-0.118l0.039,-0.116l0.042,-0.114l0.046,-0.113l0.049,-0.111l0.052,-0.11l0.056,-0.108l0.059,-0.106l0.062,-0.105l0.066,-0.103l0.068,-0.1l0.072,-0.099l0.075,-0.096l0.077,-0.095l0.081,-0.092l0.084,-0.09l0.087,-0.087l0.089,-0.085l0.092,-0.082l0.095,-0.08l0.098,-0.076l0.1,-0.074l0.09,-0.062l5.007,-3.338l0.225,0.121Zm-4.109,4.872l-0.052,0.036l-0.05,0.037l-0.049,0.038l-0.047,0.04l-0.047,0.041l-0.044,0.042l-0.043,0.044l-0.042,0.045l-0.041,0.046l-0.039,0.047l-0.037,0.048l-0.036,0.049l-0.034,0.051l-0.033,0.051l-0.031,0.052l-0.029,0.054l-0.028,0.054l-0.026,0.055l-0.025,0.055l-0.023,0.057l-0.021,0.057l-0.02,0.058l-0.017,0.058l-0.016,0.059l-0.014,0.06l-0.012,0.06l-0.011,0.061l-0.009,0.061l-0.006,0.062l-0.005,0.062l-0.003,0.062l-0.001,0.062l0,5.93l0.001,0.05l0.004,0.049l0.006,0.049l0.008,0.048l0.011,0.048l0.013,0.047l0.016,0.046l0.017,0.046l0.02,0.044l0.022,0.044l0.024,0.042l0.026,0.042l0.028,0.04l0.03,0.039l0.033,0.037l0.034,0.036l0.036,0.034l0.037,0.033l0.039,0.03l0.04,0.028l0.042,0.026l0.042,0.024l0.044,0.022l0.044,0.02l0.046,0.017l0.046,0.016l0.047,0.013l0.048,0.011l0.048,0.008l0.049,0.006l0.049,0.004l0.05,0.001l4,0l0.05,-0.001l0.049,-0.004l0.049,-0.006l0.048,-0.008l0.048,-0.011l0.047,-0.013l0.046,-0.016l0.046,-0.017l0.044,-0.02l0.044,-0.022l0.042,-0.024l0.042,-0.026l0.04,-0.028l0.039,-0.03l0.037,-0.033l0.036,-0.034l0.034,-0.036l0.033,-0.037l0.03,-0.039l0.028,-0.04l0.026,-0.042l0.024,-0.042l0.022,-0.044l0.02,-0.044l0.017,-0.046l0.016,-0.046l0.013,-0.047l0.011,-0.048l0.008,-0.048l0.006,-0.049l0.004,-0.049l0.001,-0.05l0,-3l3.5,0l0.037,0l0.037,-0.002l0.037,-0.002l0.037,-0.003l0.037,-0.004l0.037,-0.005l0.036,-0.006l0.036,-0.007l0.036,-0.008l0.036,-0.008l0.035,-0.01l0.035,-0.01l0.035,-0.011l0.035,-0.012l0.034,-0.013l0.034,-0.013l0.034,-0.015l0.033,-0.015l0.033,-0.016l0.032,-0.017l0.032,-0.017l0.032,-0.019l0.031,-0.019l0.031,-0.02l0.031,-0.021l0.029,-0.021l0.03,-0.023l0.029,-0.023l0.028,-0.024l0.028,-0.024l0.027,-0.025l0.027,-0.026l0.026,-0.027l0.025,-0.027l0.024,-0.028l0.024,-0.028l0.023,-0.029l0.023,-0.03l0.021,-0.029l0.021,-0.031l0.02,-0.031l0.019,-0.031l0.019,-0.032l0.017,-0.032l0.017,-0.032l0.016,-0.033l0.015,-0.033l0.015,-0.034l0.013,-0.034l0.013,-0.034l0.012,-0.035l0.011,-0.035l0.01,-0.035l0.01,-0.035l0.008,-0.036l0.008,-0.036l0.007,-0.036l0.006,-0.036l0.005,-0.037l0.004,-0.037l0.003,-0.037l0.002,-0.037l0.002,-0.037l0,-0.037c0,0 0,-0.037 0,-0.037l-0.002,-0.037l-0.002,-0.037l-0.003,-0.037l-0.004,-0.037l-0.005,-0.037l-0.006,-0.036l-0.007,-0.036l-0.008,-0.036l-0.008,-0.036l-0.01,-0.035l-0.01,-0.035l-0.011,-0.035l-0.012,-0.035l-0.013,-0.034l-0.013,-0.034l-0.015,-0.034l-0.015,-0.033l-0.016,-0.033l-0.017,-0.032l-0.017,-0.032l-0.019,-0.032l-0.019,-0.031l-0.02,-0.031l-0.021,-0.031l-0.021,-0.029l-0.023,-0.03l-0.023,-0.029l-0.024,-0.028l-0.024,-0.028l-0.025,-0.027l-0.026,-0.027l-0.027,-0.026l-0.027,-0.025l-0.028,-0.025l-0.028,-0.023l-0.029,-0.023l-0.03,-0.023l-0.029,-0.021l-0.031,-0.021l-0.031,-0.02l-0.031,-0.019l-0.032,-0.019l-0.032,-0.017l-0.032,-0.017l-0.033,-0.016l-0.033,-0.015l-0.034,-0.015l-0.034,-0.013l-0.034,-0.013l-0.035,-0.012l-0.035,-0.011l-0.035,-0.01l-0.035,-0.01l-0.036,-0.008l-0.036,-0.008l-0.036,-0.007l-0.037,-0.006l-0.036,-0.005l-0.037,-0.004l-0.037,-0.003l-0.037,-0.002l-0.037,-0.002l-0.037,0l-6.5,0l0,-3l-2.109,1.406Z"/></g></g></svg>