<?xml version="1.0" encoding="UTF-8"?>
<!DOCTYPE svg  PUBLIC '-//W3C//DTD SVG 1.1//EN'  'http://www.w3.org/Graphics/SVG/1.1/DTD/svg11.dtd'>
<svg clip-rule="evenodd" fill-rule="evenodd" stroke-linecap="round" stroke-miterlimit="1.5" version="1.1" viewBox="0 0 32 32" xml:space="preserve" xmlns="http://www.w3.org/2000/svg">
<metadata>
<rdf:RDF xmlns:cc="http://web.resource.org/cc/" xmlns:dc="http://purl.org/dc/elements/1.1/" xmlns:rdf="http://www.w3.org/1999/02/22-rdf-syntax-ns#">

     <rdf:Description rdf:about="">
       <dc:title>Mutant Standard S3</dc:title>
     </rdf:Description>

    <cc:work rdf:about="">
        <cc:license rdf:resource="http://creativecommons.org/licenses/by-nc-sa/4.0/"/>
        <cc:attributionName>Dzuk</cc:attributionName>
        <cc:attributionURL>http://mutant.tech/</cc:attributionURL>
    </cc:work>

</rdf:RDF>
</metadata>
<rect id="shark_think" width="32" height="32" fill="none"/><clipPath id="_clip1"><rect width="32" height="32"/></clipPath><g clip-path="url(#_clip1)"><g id="outline"><path d="m30 11s-0.837-0.813-2-1.944c-4.352-4.231-10.583-5.91-16.472-4.438-4.759 1.19-9.528 2.382-9.528 2.382v1e-3c0 4.283 2.439 8.193 6.286 10.077 1.001 0.49 1.714 0.839 1.714 0.839s0.67 1.34 1.235 2.469c0.507 1.015 1.168 1.945 1.959 2.757 2.231 2.29 6.806 6.985 6.806 6.985l10-0.128v-19z" fill="none" stroke="#000" stroke-width="4px"/></g><g id="emoji"><path d="m30 11s-0.837-0.813-2-1.944c-4.352-4.231-10.583-5.91-16.472-4.438-4.759 1.19-9.528 2.382-9.528 2.382v1e-3c0 4.283 2.439 8.193 6.286 10.077 1.001 0.49 1.714 0.839 1.714 0.839s0.67 1.34 1.235 2.469c0.507 1.015 1.168 1.945 1.959 2.757 2.231 2.29 6.806 6.985 6.806 6.985l10-0.128v-19z" fill="#78a0ba"/><clipPath id="_clip2"><path d="m30 11s-0.837-0.813-2-1.944c-4.352-4.231-10.583-5.91-16.472-4.438-4.759 1.19-9.528 2.382-9.528 2.382v1e-3c0 4.283 2.439 8.193 6.286 10.077 1.001 0.49 1.714 0.839 1.714 0.839s0.67 1.34 1.235 2.469c0.507 1.015 1.168 1.945 1.959 2.757 2.231 2.29 6.806 6.985 6.806 6.985l10-0.128v-19z"/></clipPath><g clip-path="url(#_clip2)"><path d="m0 7h4.2c1.19 0 2.371 0.214 3.485 0.632 2.403 0.901 6.886 2.582 10.198 3.824 2.666 1 4.914 2.873 6.379 5.314 2.666 4.444 6.738 11.23 6.738 11.23v4h-31v-25z" fill="#ebf1f5"/><path d="m9 19 6.658-3.329c0.845-0.422 1.839-0.422 2.684 0l2.658 1.329h-2.584c-0.931 0-1.85 0.217-2.683 0.633-2.255 1.128-6.733 3.367-6.733 3.367v-2z" fill="#d291b2"/><clipPath id="_clip3"><path d="m9 19 6.658-3.329c0.845-0.422 1.839-0.422 2.684 0l2.658 1.329h-2.584c-0.931 0-1.85 0.217-2.683 0.633-2.255 1.128-6.733 3.367-6.733 3.367v-2z"/></clipPath><g clip-path="url(#_clip3)" fill="#fff"><path d="m14 19 1-3 3 1-4 2z"/><path d="m10 21 1-3 3 1-4 2z"/></g></g><circle cx="19" cy="8" r="2"/><path d="m8 10h1" fill="none" stroke="#58666f" stroke-width="2px"/><path d="m9 20s-1.225 0.817-2.109 1.406c-0.557 0.371-0.891 0.996-0.891 1.664v5.93c0 0.265 0.105 0.52 0.293 0.707 0.187 0.188 0.442 0.293 0.707 0.293h4c0.265 0 0.52-0.105 0.707-0.293 0.188-0.187 0.293-0.442 0.293-0.707v-3h3.5c0.398 0 0.779-0.158 1.061-0.439 0.281-0.282 0.439-0.663 0.439-1.061s-0.158-0.779-0.439-1.061c-0.282-0.281-0.663-0.439-1.061-0.439h-6.5v-3z" fill="#78a0ba"/><path d="m11 16.534v4.466h4.512l0.075 1e-3 0.086 3e-3 0.087 5e-3 0.086 8e-3 0.086 0.01 0.085 0.011 0.085 0.014 0.084 0.016 0.084 0.018 0.083 0.019 0.083 0.022 0.082 0.024 0.081 0.026 0.081 0.028 0.08 0.03 0.08 0.031 0.078 0.034 0.077 0.035 0.077 0.038 0.076 0.039 0.075 0.041 0.074 0.043 0.073 0.045 0.072 0.047 0.07 0.048 0.07 0.051 0.069 0.052 0.067 0.053 0.066 0.056 0.065 0.057 0.064 0.059 0.062 0.061 0.061 0.062 0.058 0.063 0.058 0.066 0.056 0.066 0.053 0.067 0.053 0.069 0.049 0.069 0.049 0.071 0.047 0.073 0.044 0.072 0.043 0.074 0.042 0.074 0.039 0.077 0.037 0.076 0.036 0.078 0.034 0.079 0.031 0.078 0.03 0.081 0.028 0.081 0.026 0.081 0.024 0.082 0.022 0.083 0.019 0.083 0.018 0.083 0.016 0.085 0.014 0.086 0.011 0.083 0.01 0.088 8e-3 0.087 5e-3 0.084 3e-3 0.087 1e-3 0.087-1e-3 0.087-3e-3 0.087-5e-3 0.084-8e-3 0.087-0.01 0.088-0.011 0.083-0.014 0.086-0.016 0.085-0.018 0.083-0.019 0.083-0.022 0.083-0.024 0.082-0.026 0.081-0.028 0.081-0.03 0.082-0.031 0.077-0.034 0.079-0.036 0.078-0.037 0.076-0.039 0.077-0.042 0.074-0.042 0.073-0.045 0.073-0.048 0.074-0.048 0.07-0.049 0.069-0.053 0.069-0.053 0.067-0.056 0.066-0.058 0.066-0.058 0.063-0.061 0.062-0.062 0.061-0.064 0.059-0.065 0.057-0.065 0.055-0.068 0.054-0.069 0.053-0.069 0.049-0.071 0.049-0.072 0.047-0.073 0.045-0.074 0.043-0.075 0.041-0.076 0.039-0.077 0.038-0.077 0.035-0.078 0.034-0.08 0.031-0.08 0.03-0.081 0.028-0.081 0.026-0.082 0.024-0.083 0.022-0.083 0.019-0.084 0.018-0.084 0.016-0.085 0.014-0.085 0.011-0.086 0.01-0.086 8e-3 -0.087 5e-3 -0.086 3e-3 -0.075 1e-3h-1.512v1.025l-3e-3 0.123-0.011 0.148-0.018 0.147-0.026 0.145-0.032 0.144-0.039 0.141-0.046 0.139-0.053 0.136-0.059 0.134-0.066 0.131-0.072 0.128-0.078 0.124-0.085 0.12-0.091 0.117-0.097 0.112-0.102 0.108-0.108 0.102-0.112 0.097-0.116 0.091-0.121 0.084-0.125 0.079-0.127 0.072-0.131 0.066-0.134 0.059-0.136 0.053-0.139 0.046-0.141 0.039-0.144 0.032-0.145 0.026-0.147 0.018-0.147 0.011-0.124 3e-3h-4.05l-0.124-3e-3 -0.147-0.011-0.147-0.018-0.145-0.026-0.143-0.032-0.142-0.039-0.139-0.046-0.136-0.053-0.134-0.059-0.131-0.066-0.128-0.072-0.124-0.078-0.12-0.085-0.117-0.091-0.112-0.097-0.107-0.102-0.103-0.108-0.097-0.112-0.091-0.116-0.085-0.121-0.078-0.125-0.072-0.127-0.066-0.131-0.059-0.134-0.053-0.136-0.046-0.139-0.039-0.142-0.032-0.143-0.026-0.145-0.018-0.147-0.011-0.148-3e-3 -0.124v-5.969l2e-3 -0.109 6e-3 -0.125 9e-3 -0.124 0.014-0.123 0.017-0.122 0.021-0.122 0.025-0.121 0.028-0.119 0.031-0.117 0.036-0.118 0.039-0.116 0.042-0.114 0.046-0.113 0.049-0.111 0.052-0.11 0.056-0.108 0.059-0.106 0.062-0.105 0.066-0.103 0.068-0.1 0.072-0.099 0.075-0.096 0.077-0.095 0.081-0.092 0.084-0.09 0.087-0.087 0.089-0.085 0.092-0.082 0.095-0.08 0.098-0.076 0.1-0.074 0.09-0.062 5.007-3.338 0.225 0.121zm-4.109 4.872-0.052 0.036-0.05 0.037-0.049 0.038-0.047 0.04-0.047 0.041-0.044 0.042-0.043 0.044-0.042 0.045-0.041 0.046-0.039 0.047-0.037 0.048-0.036 0.049-0.034 0.051-0.033 0.051-0.031 0.052-0.029 0.054-0.028 0.054-0.026 0.055-0.025 0.055-0.023 0.057-0.021 0.057-0.02 0.058-0.017 0.058-0.016 0.059-0.014 0.06-0.012 0.06-0.011 0.061-9e-3 0.061-6e-3 0.062-5e-3 0.062-3e-3 0.062-1e-3 0.062v5.93l1e-3 0.05 4e-3 0.049 6e-3 0.049 8e-3 0.048 0.011 0.048 0.013 0.047 0.016 0.046 0.017 0.046 0.02 0.044 0.022 0.044 0.024 0.042 0.026 0.042 0.028 0.04 0.03 0.039 0.033 0.037 0.034 0.036 0.036 0.034 0.037 0.033 0.039 0.03 0.04 0.028 0.042 0.026 0.042 0.024 0.044 0.022 0.044 0.02 0.046 0.017 0.046 0.016 0.047 0.013 0.048 0.011 0.048 8e-3 0.049 6e-3 0.049 4e-3 0.05 1e-3h4l0.05-1e-3 0.049-4e-3 0.049-6e-3 0.048-8e-3 0.048-0.011 0.047-0.013 0.046-0.016 0.046-0.017 0.044-0.02 0.044-0.022 0.042-0.024 0.042-0.026 0.04-0.028 0.039-0.03 0.037-0.033 0.036-0.034 0.034-0.036 0.033-0.037 0.03-0.039 0.028-0.04 0.026-0.042 0.024-0.042 0.022-0.044 0.02-0.044 0.017-0.046 0.016-0.046 0.013-0.047 0.011-0.048 8e-3 -0.048 6e-3 -0.049 4e-3 -0.049 1e-3 -0.05v-3h3.5 0.037l0.074-4e-3 0.037-3e-3 0.037-4e-3 0.037-5e-3 0.036-6e-3 0.036-7e-3 0.072-0.016 0.07-0.02 0.035-0.011 0.035-0.012 0.068-0.026 0.034-0.015 0.033-0.015 0.033-0.016 0.064-0.034 0.032-0.019 0.031-0.019 0.031-0.02 0.031-0.021 0.029-0.021 0.03-0.023 0.029-0.023 0.056-0.048 0.027-0.025 0.027-0.026 0.026-0.027 0.025-0.027 0.048-0.056 0.023-0.029 0.023-0.03 0.021-0.029 0.021-0.031 0.02-0.031 0.019-0.031 0.019-0.032 0.034-0.064 0.016-0.033 0.015-0.033 0.015-0.034 0.026-0.068 0.012-0.035 0.011-0.035 0.02-0.07 0.016-0.072 7e-3 -0.036 6e-3 -0.036 5e-3 -0.037 4e-3 -0.037 3e-3 -0.037 4e-3 -0.074v-0.037-0.037l-4e-3 -0.074-3e-3 -0.037-4e-3 -0.037-5e-3 -0.037-6e-3 -0.036-7e-3 -0.036-0.016-0.072-0.02-0.07-0.011-0.035-0.012-0.035-0.026-0.068-0.015-0.034-0.015-0.033-0.016-0.033-0.034-0.064-0.019-0.032-0.019-0.031-0.02-0.031-0.021-0.031-0.021-0.029-0.023-0.03-0.023-0.029-0.048-0.056-0.025-0.027-0.026-0.027-0.027-0.026-0.027-0.025-0.028-0.025-0.028-0.023-0.029-0.023-0.03-0.023-0.029-0.021-0.031-0.021-0.031-0.02-0.031-0.019-0.032-0.019-0.064-0.034-0.033-0.016-0.033-0.015-0.034-0.015-0.068-0.026-0.035-0.012-0.035-0.011-0.07-0.02-0.072-0.016-0.036-7e-3 -0.037-6e-3 -0.036-5e-3 -0.037-4e-3 -0.037-3e-3 -0.074-4e-3h-0.037-6.5v-3l-2.109 1.406z"/></g></g></svg>
