<?xml version="1.0" encoding="UTF-8" standalone="no"?><!DOCTYPE svg PUBLIC "-//W3C//DTD SVG 1.1//EN" "http://www.w3.org/Graphics/SVG/1.1/DTD/svg11.dtd"><svg width="100%" height="100%" viewBox="0 0 32 32" version="1.1" xmlns="http://www.w3.org/2000/svg" xmlns:xlink="http://www.w3.org/1999/xlink" xml:space="preserve" xmlns:serif="http://www.serif.com/" style="fill-rule:evenodd;clip-rule:evenodd;stroke-linecap:round;stroke-linejoin:round;stroke-miterlimit:1.5;">
<metadata>
<rdf:RDF xmlns:cc="http://web.resource.org/cc/"
         xmlns:rdf="http://www.w3.org/1999/02/22-rdf-syntax-ns#"
         xmlns:dc = "http://purl.org/dc/elements/1.1/"
         >

     <rdf:Description rdf:about="">
       <dc:title>Mutant Standard S3</dc:title>
     </rdf:Description>

    <cc:work rdf:about="">
        <cc:license rdf:resource="http://creativecommons.org/licenses/by-nc-sa/4.0/"/>
        <cc:attributionName>Dzuk</cc:attributionName>
        <cc:attributionURL>http://mutant.tech/</cc:attributionURL>
    </cc:work>

</rdf:RDF>
</metadata>
<rect id="thinktink" x="0" y="0" width="32" height="32" style="fill:none;"/><g id="outline"><path d="M15.934,0.001l0.16,0.003l0.159,0.004l0.159,0.007l0.159,0.008l0.158,0.01l0.158,0.012l0.158,0.013l0.157,0.016l0.157,0.017l0.156,0.019l0.155,0.021l0.155,0.022l0.155,0.024l0.154,0.026l0.154,0.028l0.153,0.029l0.152,0.031l0.152,0.033l0.151,0.034l0.151,0.036l0.15,0.038l0.15,0.039l0.149,0.041l0.148,0.043l0.147,0.044l0.147,0.046l0.146,0.047l0.146,0.049l0.144,0.051l0.145,0.052l0.143,0.054l0.142,0.055l0.142,0.057l0.141,0.058l0.141,0.06l0.139,0.061l0.139,0.063l0.138,0.064l0.137,0.066l0.136,0.067l0.135,0.069l0.135,0.07l0.134,0.072l0.132,0.073l0.132,0.074l0.131,0.076l0.131,0.078l0.129,0.078l0.128,0.08l0.127,0.082l0.127,0.083l0.125,0.084l0.125,0.085l0.123,0.087l0.123,0.088l0.121,0.09l0.121,0.091l0.119,0.092l0.119,0.093l0.117,0.095l0.116,0.096l0.116,0.097l0.114,0.098l0.113,0.1l0.112,0.101l0.111,0.102l0.11,0.104l0.109,0.104l0.107,0.106l0.107,0.107l0.105,0.108l0.104,0.109l0.103,0.111l0.102,0.111l0.1,0.113l0.099,0.114l0.098,0.115l0.097,0.116l0.096,0.117l0.094,0.119l0.093,0.119l0.092,0.121l0.091,0.121l0.089,0.123l0.088,0.124l0.086,0.124l0.086,0.126l0.084,0.127l0.082,0.128l0.081,0.129l0.08,0.129l0.079,0.131l0.077,0.132l0.075,0.133l0.075,0.133l0.072,0.135l0.072,0.136l0.07,0.136l0.068,0.138l0.067,0.138l0.065,0.139l0.064,0.14l0.063,0.141l0.061,0.142l0.059,0.143l0.058,0.143l0.056,0.145l0.055,0.145l0.053,0.146l0.052,0.147l0.049,0.147l0.049,0.149l0.046,0.149l0.046,0.149l0.043,0.151l0.042,0.152l0.04,0.152l0.038,0.152l0.037,0.154l0.035,0.154l0.033,0.155l0.032,0.155l0.03,0.157l0.028,0.156l0.026,0.158l0.025,0.158l0.022,0.153l1.194,8.656l0.015,0.116l0.013,0.124l0.012,0.124l0.009,0.125l0.007,0.124l0.005,0.124l0.003,0.124l0,0.123l-0.001,0.124l-0.004,0.123l-0.006,0.123l-0.009,0.122l-0.01,0.123l-0.012,0.121l-0.015,0.122l-0.017,0.121l-0.018,0.12l-0.021,0.121l-0.023,0.119l-0.025,0.119l-0.027,0.119l-0.029,0.118l-0.031,0.117l-0.033,0.117l-0.035,0.116l-0.037,0.115l-0.039,0.115l-0.041,0.113l-0.043,0.114l-0.045,0.112l-0.047,0.111l-0.048,0.111l-0.051,0.11l-0.052,0.109l-0.055,0.108l-0.056,0.107l-0.058,0.106l-0.06,0.106l-0.062,0.104l-0.063,0.103l-0.066,0.102l-0.067,0.101l-0.069,0.1l-0.071,0.099l-0.072,0.097l-0.074,0.097l-0.076,0.095l-0.078,0.094l-0.08,0.093l-0.081,0.091l-0.083,0.09l-0.085,0.089l-0.086,0.088l-0.088,0.086l-0.089,0.084l-0.092,0.083l-0.092,0.082l-0.095,0.08l-0.096,0.079l-0.098,0.077l-0.099,0.075l-0.1,0.074l-0.103,0.072l-0.103,0.071l-0.105,0.068l-0.106,0.067l-0.107,0.065l-0.108,0.062l-0.109,0.061l-0.109,0.058l-0.111,0.056l-0.111,0.055l-0.111,0.052l-0.113,0.05l-0.113,0.048l-0.114,0.046l-0.115,0.044l-0.115,0.042l-0.115,0.04l-0.117,0.038l-0.116,0.036l-0.117,0.033l-0.118,0.032l-0.118,0.029l-0.118,0.027l-0.119,0.026l-0.119,0.023l-0.12,0.021l-0.119,0.019l-0.12,0.017l-0.121,0.015l-0.12,0.013l-0.12,0.01l-0.121,0.009l-0.121,0.007l-0.121,0.004l-0.121,0.002l-0.12,0.001l-0.121,-0.002l-0.121,-0.004l-0.121,-0.006l-0.121,-0.008l-0.121,-0.01l-0.12,-0.013l-0.121,-0.014l-0.12,-0.016l-0.12,-0.019l-0.12,-0.021l-0.119,-0.022l-0.119,-0.025l-0.119,-0.027l-0.119,-0.029l-0.118,-0.031l-0.118,-0.034l-0.117,-0.035l-0.117,-0.037l-0.116,-0.04l-0.116,-0.042l-0.115,-0.043l-0.114,-0.046l-0.114,-0.048l-0.114,-0.05l-0.112,-0.052l-0.112,-0.055l-0.111,-0.056l-0.111,-0.059l-0.109,-0.06l-0.101,-0.058l-4.685,-2.756l-0.085,-0.049l-0.079,-0.044l-0.08,-0.044l-0.08,-0.042l-0.08,-0.041l-0.081,-0.04l-0.082,-0.039l-0.082,-0.037l-0.082,-0.037l-0.083,-0.035l-0.083,-0.034l-0.083,-0.033l-0.084,-0.032l-0.084,-0.031l-0.085,-0.03l-0.085,-0.028l-0.085,-0.028l-0.085,-0.026l-0.086,-0.025l-0.086,-0.024l-0.086,-0.022l-0.087,-0.022l-0.087,-0.02l-0.087,-0.019l-0.087,-0.019l-0.087,-0.016l-0.088,-0.016l-0.088,-0.015l-0.088,-0.013l-0.088,-0.012l-0.088,-0.012l-0.089,-0.009l-0.088,-0.009l-0.089,-0.008l-0.089,-0.006l-0.089,-0.005l-0.088,-0.004l-0.089,-0.003l-0.09,-0.002l-0.089,0l-0.089,0l-0.089,0.002l-0.089,0.003l-0.089,0.004l-0.089,0.006l-0.089,0.006l-0.089,0.008l-0.089,0.009l-0.089,0.01l-0.089,0.012l-0.089,0.012l-0.088,0.014l-0.089,0.015l-0.088,0.016l-0.088,0.017l-0.089,0.019l-0.088,0.02l-0.087,0.02l-0.088,0.023l-0.087,0.023l-0.087,0.025l-0.087,0.025l-0.087,0.027l-0.093,0.031l-0.505,0.168l-0.14,0.045l-0.153,0.044l-0.153,0.041l-0.154,0.037l-0.155,0.033l-0.155,0.029l-0.156,0.026l-0.156,0.021l-0.156,0.018l-0.157,0.013l-0.157,0.01l-0.156,0.006l-0.157,0.003l-0.157,-0.002l-0.157,-0.005l-0.156,-0.009l-0.156,-0.013l-0.156,-0.017l-0.155,-0.021l-0.155,-0.024l-0.155,-0.029l-0.153,-0.032l-0.153,-0.035l-0.153,-0.04l-0.151,-0.043l-0.151,-0.047l-0.149,-0.051l-0.149,-0.055l-0.147,-0.058l-0.146,-0.062l-0.145,-0.066l-0.133,-0.065l-0.019,-0.009l-0.072,-0.037l-0.078,-0.04l-0.078,-0.042l-0.077,-0.043l-0.076,-0.043l-0.076,-0.044l-0.075,-0.045l-0.074,-0.046l-0.074,-0.047l-0.078,-0.051l-0.139,-0.093l-0.141,-0.101l-0.138,-0.103l-0.135,-0.106l-0.133,-0.109l-0.129,-0.111l-0.127,-0.115l-0.123,-0.117l-0.121,-0.119l-0.117,-0.122l-0.114,-0.125l-0.112,-0.127l-0.108,-0.129l-0.104,-0.131l-0.102,-0.133l-0.099,-0.136l-0.095,-0.137l-0.092,-0.14l-0.088,-0.141l-0.086,-0.143l-0.082,-0.145l-0.078,-0.147l-0.075,-0.148l-0.072,-0.15l-0.069,-0.151l-0.065,-0.153l-0.061,-0.155l-0.058,-0.155l-0.055,-0.157l-0.05,-0.158l-0.048,-0.159l-0.044,-0.161l-0.04,-0.161l-0.037,-0.163l-0.032,-0.163l-0.03,-0.164l-0.025,-0.165l-0.022,-0.166l-0.018,-0.166l-0.014,-0.168l-0.011,-0.167l-0.006,-0.169l-0.003,-0.168l0.001,-0.169l0.005,-0.169l0.009,-0.17l0.013,-0.169l0.017,-0.17l0.021,-0.17l0.025,-0.17l0.029,-0.169l0.033,-0.169l0.037,-0.169l0.04,-0.163l0.024,-0.09l0.023,-0.084l0.024,-0.084l0.026,-0.084l0.026,-0.083l0.027,-0.083l0.029,-0.084l0.029,-0.083l0.031,-0.083l0.029,-0.077l2.421,-6.223l0.045,-0.116l0.049,-0.119l0.049,-0.119l0.051,-0.118l0.051,-0.117l0.053,-0.117l0.053,-0.116l0.055,-0.115l0.056,-0.115l0.057,-0.114l0.057,-0.114l0.059,-0.112l0.06,-0.112l0.061,-0.112l0.061,-0.11l0.063,-0.11l0.064,-0.109l0.065,-0.109l0.065,-0.107l0.067,-0.107l0.067,-0.107l0.069,-0.105l0.069,-0.105l0.071,-0.104l0.071,-0.103l0.072,-0.103l0.073,-0.102l0.074,-0.101l0.075,-0.1l0.076,-0.099l0.076,-0.099l0.078,-0.098l0.078,-0.097l0.079,-0.096l0.08,-0.096l0.081,-0.095l0.082,-0.093l0.082,-0.093l0.084,-0.093l0.084,-0.091l0.085,-0.091l0.085,-0.089l0.087,-0.089l0.087,-0.088l0.088,-0.087l0.089,-0.087l0.09,-0.085l0.09,-0.085l0.091,-0.084l0.092,-0.082l0.093,-0.082l0.093,-0.082l0.094,-0.08l0.095,-0.079l0.096,-0.079l0.096,-0.077l0.097,-0.077l0.097,-0.075l0.099,-0.075l0.099,-0.074l0.099,-0.073l0.101,-0.072l0.101,-0.071l0.101,-0.071l0.102,-0.069l0.103,-0.068l0.104,-0.067l0.104,-0.067l0.105,-0.065l0.105,-0.065l0.106,-0.063l0.106,-0.063l0.108,-0.061l0.107,-0.061l0.109,-0.06l0.109,-0.058l0.109,-0.058l0.11,-0.056l0.11,-0.056l0.112,-0.055l0.111,-0.053l0.112,-0.053l0.113,-0.051l0.113,-0.051l0.114,-0.049l0.114,-0.049l0.115,-0.047l0.115,-0.046l0.116,-0.046l0.116,-0.044l0.116,-0.043l0.118,-0.042l0.117,-0.041l0.118,-0.04l0.119,-0.039l0.118,-0.038l0.12,-0.037l0.119,-0.035l0.121,-0.035l0.12,-0.033l0.121,-0.033l0.121,-0.031l0.122,-0.03l0.122,-0.029l0.123,-0.028l0.122,-0.026l0.124,-0.026l0.123,-0.024l0.124,-0.024l0.124,-0.022l0.125,-0.021l0.125,-0.02l0.125,-0.018l0.125,-0.018l0.126,-0.016l0.126,-0.015l0.126,-0.014l0.127,-0.013l0.127,-0.011l0.127,-0.011l0.127,-0.009l0.128,-0.008l0.128,-0.007l0.128,-0.005l0.128,-0.004l0.129,-0.004l0.128,-0.001l0.125,-0.001l0.011,0l0.155,0.001Zm-0.252,3.999l-0.091,0.002l-0.09,0.002l-0.09,0.003l-0.09,0.004l-0.089,0.005l-0.09,0.005l-0.089,0.007l-0.089,0.007l-0.089,0.008l-0.089,0.009l-0.088,0.01l-0.089,0.01l-0.088,0.012l-0.088,0.012l-0.087,0.013l-0.088,0.014l-0.087,0.014l-0.087,0.016l-0.086,0.016l-0.087,0.017l-0.086,0.018l-0.086,0.019l-0.086,0.019l-0.085,0.021l-0.086,0.021l-0.084,0.022l-0.085,0.022l-0.084,0.024l-0.085,0.024l-0.083,0.025l-0.084,0.025l-0.083,0.027l-0.083,0.027l-0.083,0.028l-0.082,0.029l-0.082,0.029l-0.082,0.031l-0.081,0.031l-0.081,0.031l-0.081,0.033l-0.08,0.033l-0.08,0.034l-0.08,0.035l-0.079,0.035l-0.079,0.036l-0.079,0.037l-0.078,0.038l-0.078,0.038l-0.077,0.039l-0.077,0.039l-0.077,0.041l-0.076,0.041l-0.076,0.042l-0.076,0.042l-0.075,0.043l-0.074,0.044l-0.075,0.045l-0.074,0.045l-0.073,0.046l-0.073,0.046l-0.073,0.048l-0.072,0.047l-0.071,0.049l-0.072,0.049l-0.07,0.05l-0.071,0.051l-0.07,0.051l-0.069,0.052l-0.069,0.052l-0.068,0.053l-0.068,0.054l-0.068,0.054l-0.067,0.055l-0.066,0.056l-0.066,0.056l-0.066,0.057l-0.064,0.057l-0.065,0.058l-0.064,0.059l-0.063,0.059l-0.063,0.06l-0.062,0.061l-0.062,0.061l-0.061,0.062l-0.061,0.062l-0.06,0.063l-0.059,0.063l-0.059,0.064l-0.059,0.065l-0.057,0.065l-0.058,0.066l-0.056,0.066l-0.056,0.067l-0.056,0.067l-0.054,0.068l-0.055,0.069l-0.053,0.069l-0.053,0.069l-0.053,0.071l-0.051,0.07l-0.052,0.071l-0.05,0.072l-0.05,0.073l-0.049,0.072l-0.049,0.074l-0.048,0.074l-0.047,0.074l-0.047,0.075l-0.046,0.075l-0.045,0.076l-0.045,0.077l-0.043,0.077l-0.044,0.077l-0.042,0.078l-0.042,0.078l-0.041,0.079l-0.041,0.08l-0.04,0.08l-0.039,0.08l-0.038,0.081l-0.038,0.081l-0.036,0.082l-0.037,0.083l-0.035,0.082l-0.035,0.084l-0.034,0.084l-0.035,0.088l-2.412,6.204l-0.017,0.044l-0.014,0.038l-0.014,0.038l-0.013,0.038l-0.012,0.039l-0.013,0.038l-0.011,0.038l-0.011,0.039l-0.011,0.038l-0.008,0.033l-0.021,0.082l-0.017,0.077l-0.015,0.077l-0.013,0.077l-0.011,0.077l-0.01,0.077l-0.007,0.077l-0.006,0.076l-0.004,0.077l-0.003,0.077l0,0.077l0.001,0.076l0.003,0.077l0.005,0.076l0.006,0.076l0.009,0.075l0.01,0.076l0.011,0.075l0.014,0.075l0.015,0.075l0.016,0.074l0.019,0.074l0.02,0.073l0.021,0.073l0.024,0.072l0.025,0.072l0.026,0.071l0.028,0.071l0.03,0.069l0.031,0.07l0.033,0.068l0.035,0.068l0.035,0.067l0.038,0.066l0.039,0.066l0.04,0.064l0.042,0.063l0.043,0.063l0.045,0.062l0.047,0.06l0.047,0.06l0.049,0.059l0.051,0.057l0.051,0.057l0.054,0.055l0.054,0.054l0.056,0.053l0.058,0.052l0.058,0.051l0.06,0.049l0.062,0.048l0.063,0.047l0.064,0.046l0.07,0.047l0.028,0.019l0.034,0.021l0.034,0.021l0.034,0.02l0.035,0.021l0.035,0.02l0.035,0.019l0.036,0.019l0.036,0.019l0.032,0.016l0.061,0.03l0.054,0.025l0.056,0.023l0.055,0.022l0.056,0.021l0.057,0.019l0.056,0.018l0.057,0.016l0.058,0.015l0.058,0.013l0.058,0.012l0.058,0.011l0.058,0.009l0.059,0.008l0.059,0.006l0.059,0.005l0.059,0.004l0.059,0.002l0.059,0l0.059,0l0.059,-0.003l0.059,-0.004l0.059,-0.005l0.059,-0.006l0.059,-0.008l0.059,-0.01l0.058,-0.011l0.059,-0.012l0.058,-0.014l0.058,-0.016l0.058,-0.017l0.069,-0.022l0.494,-0.164l0.131,-0.043l0.139,-0.043l0.138,-0.041l0.139,-0.04l0.14,-0.037l0.139,-0.035l0.14,-0.034l0.141,-0.031l0.14,-0.03l0.141,-0.027l0.141,-0.026l0.141,-0.024l0.142,-0.022l0.141,-0.02l0.142,-0.018l0.142,-0.016l0.142,-0.014l0.142,-0.013l0.142,-0.01l0.142,-0.009l0.142,-0.007l0.142,-0.005l0.143,-0.003l0.142,-0.001l0.142,0.001l0.142,0.003l0.142,0.004l0.142,0.007l0.141,0.008l0.142,0.01l0.141,0.013l0.142,0.013l0.141,0.016l0.14,0.018l0.141,0.019l0.14,0.022l0.14,0.023l0.14,0.025l0.14,0.027l0.139,0.029l0.139,0.031l0.138,0.032l0.138,0.035l0.138,0.036l0.137,0.038l0.137,0.04l0.136,0.042l0.136,0.043l0.135,0.046l0.135,0.047l0.134,0.049l0.134,0.051l0.133,0.053l0.133,0.054l0.132,0.057l0.131,0.058l0.131,0.06l0.13,0.062l0.129,0.063l0.129,0.066l0.127,0.067l0.127,0.069l0.127,0.071l0.119,0.069l4.681,2.754l0.055,0.031l0.047,0.026l0.048,0.026l0.047,0.024l0.048,0.023l0.048,0.022l0.049,0.022l0.049,0.02l0.049,0.02l0.049,0.019l0.05,0.018l0.049,0.016l0.05,0.016l0.05,0.016l0.051,0.014l0.05,0.013l0.051,0.013l0.051,0.011l0.051,0.011l0.051,0.009l0.051,0.009l0.052,0.008l0.051,0.007l0.052,0.006l0.052,0.006l0.051,0.004l0.052,0.004l0.052,0.002l0.052,0.002l0.052,0.001l0.052,-0.001l0.052,-0.001l0.052,-0.001l0.051,-0.003l0.052,-0.004l0.052,-0.005l0.052,-0.005l0.051,-0.006l0.051,-0.008l0.052,-0.008l0.051,-0.009l0.051,-0.01l0.051,-0.011l0.051,-0.011l0.05,-0.013l0.051,-0.014l0.05,-0.014l0.05,-0.015l0.049,-0.016l0.05,-0.017l0.049,-0.018l0.049,-0.019l0.049,-0.02l0.048,-0.02l0.048,-0.022l0.048,-0.022l0.048,-0.023l0.047,-0.025l0.047,-0.025l0.046,-0.026l0.047,-0.026l0.046,-0.028l0.045,-0.029l0.045,-0.029l0.045,-0.031l0.044,-0.031l0.043,-0.031l0.043,-0.033l0.042,-0.033l0.041,-0.034l0.04,-0.034l0.04,-0.035l0.039,-0.035l0.038,-0.037l0.038,-0.036l0.037,-0.038l0.036,-0.038l0.036,-0.038l0.034,-0.039l0.034,-0.04l0.034,-0.04l0.032,-0.041l0.032,-0.041l0.031,-0.042l0.03,-0.043l0.03,-0.042l0.029,-0.044l0.028,-0.043l0.027,-0.045l0.027,-0.044l0.025,-0.046l0.025,-0.045l0.024,-0.046l0.024,-0.046l0.022,-0.047l0.022,-0.047l0.021,-0.048l0.02,-0.048l0.019,-0.048l0.019,-0.048l0.017,-0.049l0.017,-0.049l0.016,-0.05l0.015,-0.05l0.014,-0.05l0.013,-0.05l0.013,-0.051l0.011,-0.05l0.011,-0.051l0.01,-0.051l0.009,-0.052l0.008,-0.051l0.007,-0.052l0.006,-0.052l0.005,-0.052l0.005,-0.053l0.003,-0.052l0.003,-0.053l0.001,-0.052l0.001,-0.053l0,-0.053l-0.001,-0.053l-0.002,-0.053l-0.003,-0.053l-0.004,-0.054l-0.005,-0.053l-0.006,-0.054l-0.008,-0.062l-1.19,-8.627l-0.017,-0.119l-0.018,-0.112l-0.018,-0.113l-0.02,-0.111l-0.022,-0.111l-0.022,-0.11l-0.024,-0.11l-0.025,-0.11l-0.026,-0.109l-0.027,-0.108l-0.028,-0.108l-0.03,-0.107l-0.031,-0.106l-0.032,-0.107l-0.033,-0.105l-0.034,-0.105l-0.035,-0.105l-0.037,-0.104l-0.037,-0.103l-0.039,-0.103l-0.04,-0.102l-0.041,-0.101l-0.042,-0.101l-0.043,-0.101l-0.044,-0.099l-0.045,-0.099l-0.046,-0.099l-0.048,-0.098l-0.048,-0.097l-0.05,-0.097l-0.05,-0.095l-0.052,-0.096l-0.052,-0.094l-0.054,-0.094l-0.054,-0.094l-0.056,-0.092l-0.056,-0.092l-0.058,-0.091l-0.058,-0.091l-0.06,-0.09l-0.06,-0.089l-0.061,-0.088l-0.063,-0.088l-0.063,-0.087l-0.064,-0.086l-0.065,-0.085l-0.066,-0.085l-0.067,-0.084l-0.068,-0.083l-0.069,-0.082l-0.069,-0.082l-0.071,-0.081l-0.071,-0.08l-0.072,-0.079l-0.073,-0.078l-0.074,-0.078l-0.075,-0.077l-0.075,-0.076l-0.076,-0.075l-0.078,-0.074l-0.078,-0.073l-0.078,-0.073l-0.08,-0.071l-0.08,-0.071l-0.081,-0.07l-0.082,-0.069l-0.083,-0.068l-0.083,-0.067l-0.084,-0.067l-0.085,-0.065l-0.085,-0.064l-0.087,-0.064l-0.087,-0.062l-0.087,-0.062l-0.088,-0.061l-0.089,-0.059l-0.09,-0.059l-0.09,-0.058l-0.091,-0.057l-0.092,-0.056l-0.092,-0.054l-0.093,-0.054l-0.094,-0.053l-0.094,-0.052l-0.095,-0.05l-0.095,-0.05l-0.096,-0.049l-0.096,-0.048l-0.098,-0.046l-0.097,-0.046l-0.098,-0.044l-0.099,-0.044l-0.099,-0.042l-0.1,-0.041l-0.101,-0.041l-0.101,-0.039l-0.101,-0.038l-0.102,-0.037l-0.102,-0.035l-0.103,-0.035l-0.104,-0.034l-0.104,-0.032l-0.104,-0.031l-0.105,-0.03l-0.105,-0.029l-0.106,-0.028l-0.106,-0.027l-0.107,-0.025l-0.107,-0.025l-0.107,-0.023l-0.108,-0.022l-0.108,-0.02l-0.109,-0.02l-0.109,-0.018l-0.11,-0.017l-0.109,-0.016l-0.111,-0.015l-0.11,-0.013l-0.111,-0.013l-0.112,-0.01l-0.112,-0.01l-0.112,-0.009l-0.112,-0.007l-0.113,-0.006l-0.113,-0.004l-0.114,-0.003l-0.113,-0.002l-0.116,-0.001l-0.09,0Z"/></g><g id="emoji"><path d="M27.397,12.131c-0.8,-5.806 -5.763,-10.131 -11.624,-10.131c0,0 0,0 -0.001,0c-4.685,0 -8.891,2.877 -10.589,7.244c-0.816,2.099 -1.684,4.331 -2.417,6.214c-1.001,2.574 0.123,5.486 2.593,6.722c0.001,0 0.001,0 0.002,0c1.049,0.525 2.264,0.612 3.377,0.241c0.162,-0.054 0.329,-0.11 0.5,-0.167c2.39,-0.797 5.008,-0.521 7.18,0.757c1.369,0.805 3.016,1.774 4.683,2.754c1.652,0.972 3.714,0.914 5.309,-0.149c1.595,-1.064 2.441,-2.945 2.179,-4.843c-0.386,-2.805 -0.806,-5.843 -1.192,-8.642Z" style="fill:#fbc546;"/><clipPath id="_clip1"><path d="M27.397,12.131c-0.8,-5.806 -5.763,-10.131 -11.624,-10.131c0,0 0,0 -0.001,0c-4.685,0 -8.891,2.877 -10.589,7.244c-0.816,2.099 -1.684,4.331 -2.417,6.214c-1.001,2.574 0.123,5.486 2.593,6.722c0.001,0 0.001,0 0.002,0c1.049,0.525 2.264,0.612 3.377,0.241c0.162,-0.054 0.329,-0.11 0.5,-0.167c2.39,-0.797 5.008,-0.521 7.18,0.757c1.369,0.805 3.016,1.774 4.683,2.754c1.652,0.972 3.714,0.914 5.309,-0.149c1.595,-1.064 2.441,-2.945 2.179,-4.843c-0.386,-2.805 -0.806,-5.843 -1.192,-8.642Z"/></clipPath><g clip-path="url(#_clip1)"><path d="M17,20c0,0 -1.983,-1.416 -3.838,-2.741c-0.609,-0.436 -1.411,-0.494 -2.077,-0.151c-0.666,0.343 -1.085,1.029 -1.085,1.778c0,2.809 0,6.399 0,8.114c0,0.552 0.448,1 1,1c0.871,0 2.129,0 3,0c0.265,0 0.52,-0.105 0.707,-0.293c0.188,-0.187 0.293,-0.442 0.293,-0.707c0,-0.5 0,-1 0,-1l8,0c0,0 -3.011,-3.614 -4.36,-5.232c-0.406,-0.487 -1.006,-0.768 -1.64,-0.768c0,0 0,0 0,0Z" style="fill:#e59a10;"/></g><path d="M9,10l3,-3" style="fill:none;stroke:#000;stroke-width:2px;"/><path d="M24,11l-3,-3" style="fill:none;stroke:#000;stroke-width:2px;"/><path d="M11.066,12.002l0.059,0.006l0.059,0.009l0.058,0.013l0.057,0.016l0.056,0.019l0.054,0.023l0.054,0.026l0.052,0.029l2.689,1.613l0.054,0.032l0.049,0.028l0.05,0.026l0.051,0.026l0.05,0.025l0.051,0.024l0.052,0.023l0.051,0.022l0.052,0.02l0.052,0.02l0.053,0.019l0.053,0.018l0.052,0.016l0.054,0.016l0.053,0.015l0.054,0.013l0.053,0.013l0.054,0.012l0.054,0.01l0.054,0.01l0.055,0.009l0.054,0.008l0.055,0.006l0.054,0.006l0.055,0.005l0.055,0.003l0.054,0.003l0.055,0.002l0.055,0l0.055,0l0.054,-0.001l0.055,-0.003l0.055,-0.003l0.055,-0.004l0.054,-0.006l0.054,-0.006l0.055,-0.007l0.054,-0.009l0.054,-0.009l0.054,-0.01l0.054,-0.011l0.053,-0.013l0.054,-0.013l0.053,-0.014l0.053,-0.015l0.052,-0.017l0.053,-0.017l0.052,-0.018l0.052,-0.019l0.051,-0.02l0.051,-0.021l0.051,-0.022l0.051,-0.023l0.05,-0.024l0.05,-0.025l0.05,-0.026l0.049,-0.027l0.048,-0.028l0.049,-0.029l0.048,-0.03l0.047,-0.031l0.047,-0.032l0.047,-0.033l0.049,-0.037l1.845,-1.383l0.048,-0.034l0.051,-0.031l0.052,-0.029l0.054,-0.025l0.055,-0.021l0.056,-0.019l0.057,-0.015l0.059,-0.012l0.058,-0.008l0.059,-0.005l0.06,-0.001l0.059,0.002l0.059,0.006l0.058,0.009l0.058,0.013l0.057,0.016l0.056,0.02l0.055,0.022l0.053,0.026l0.052,0.029l0.05,0.032l0.048,0.035l0.045,0.038l0.044,0.04l0.041,0.043l0.038,0.046l0.035,0.047l0.033,0.049l0.03,0.052l0.026,0.053l0.024,0.054l0.02,0.056l0.017,0.057l0.013,0.057l0.01,0.059l0.007,0.059l0.003,0.059l-0.001,0.059l-0.004,0.059l-0.007,0.059l-0.011,0.058l-0.015,0.058l-0.017,0.056l-0.022,0.056l-0.024,0.054l-0.027,0.052l-0.031,0.051l-0.034,0.049l-0.036,0.047l-0.039,0.044l-0.042,0.042l-0.044,0.04l-0.046,0.037l-1.852,1.389l-0.073,0.054l-0.077,0.054l-0.078,0.053l-0.079,0.052l-0.08,0.05l-0.081,0.048l-0.081,0.047l-0.082,0.045l-0.083,0.043l-0.083,0.042l-0.084,0.04l-0.084,0.038l-0.085,0.037l-0.086,0.035l-0.086,0.034l-0.086,0.032l-0.087,0.03l-0.087,0.029l-0.088,0.027l-0.088,0.025l-0.089,0.024l-0.089,0.022l-0.089,0.02l-0.09,0.019l-0.09,0.017l-0.09,0.016l-0.09,0.013l-0.09,0.013l-0.091,0.01l-0.091,0.009l-0.091,0.007l-0.091,0.006l-0.091,0.004l-0.091,0.002l-0.091,0l-0.092,-0.001l-0.091,-0.003l-0.091,-0.004l-0.091,-0.006l-0.091,-0.008l-0.091,-0.009l-0.091,-0.012l-0.091,-0.012l-0.09,-0.015l-0.091,-0.016l-0.09,-0.018l-0.09,-0.019l-0.089,-0.021l-0.09,-0.023l-0.089,-0.025l-0.088,-0.026l-0.089,-0.028l-0.088,-0.03l-0.087,-0.031l-0.087,-0.033l-0.087,-0.034l-0.086,-0.037l-0.086,-0.038l-0.085,-0.039l-0.084,-0.042l-0.084,-0.043l-0.083,-0.045l-0.083,-0.046l-0.078,-0.046l-2.697,-1.619l-0.05,-0.031l-0.048,-0.035l-0.046,-0.038l-0.044,-0.04l-0.04,-0.043l-0.039,-0.045l-0.036,-0.048l-0.032,-0.049l-0.03,-0.051l-0.027,-0.053l-0.023,-0.055l-0.021,-0.055l-0.016,-0.057l-0.014,-0.058l-0.01,-0.058l-0.007,-0.059l-0.003,-0.059l0.001,-0.06l0.004,-0.059l0.007,-0.059l0.011,-0.058l0.014,-0.057l0.018,-0.057l0.021,-0.055l0.024,-0.054l0.028,-0.053l0.03,-0.051l0.034,-0.049l0.036,-0.046l0.039,-0.045l0.041,-0.042l0.044,-0.04l0.047,-0.037l0.048,-0.034l0.05,-0.032l0.053,-0.028l0.053,-0.025l0.055,-0.022l0.057,-0.018l0.057,-0.016l0.058,-0.011l0.059,-0.009l0.059,-0.005l0.059,-0.001l0.059,0.002Z" style="fill:#593604;"/></g><path d="M10,19c0,0 -0.432,0.216 -0.894,0.447c-0.678,0.339 -1.106,1.032 -1.106,1.789c0,1.357 0,3.509 0,4.764c0,0.265 0.105,0.52 0.293,0.707c0.187,0.188 0.442,0.293 0.707,0.293c0.871,0 2.129,0 3,0c0.552,0 1,-0.448 1,-1c0,-1.185 0,-3 0,-3c0,0 1.815,0 3,0c0.552,0 1,-0.448 1,-1c0,-0.265 -0.105,-0.52 -0.293,-0.707c-0.187,-0.188 -0.442,-0.293 -0.707,-0.293c-1.934,0 -6,0 -6,0l0,-2Z" style="fill:#fbc546;"/><path d="M12,19l4.025,0l0.124,0.003l0.147,0.011l0.147,0.018l0.145,0.026l0.143,0.032l0.142,0.039l0.139,0.046l0.136,0.053l0.134,0.059l0.131,0.066l0.128,0.072l0.124,0.079l0.12,0.084l0.117,0.091l0.112,0.097l0.108,0.102l0.102,0.108l0.097,0.112l0.091,0.117l0.084,0.12l0.079,0.124l0.072,0.128l0.066,0.131l0.059,0.134l0.053,0.136l0.046,0.139l0.039,0.142l0.032,0.143l0.026,0.145l0.018,0.147l0.011,0.147l0.003,0.124l0,0.05l-0.003,0.128l-0.012,0.151l-0.019,0.15l-0.026,0.149l-0.034,0.145l-0.041,0.143l-0.047,0.141l-0.054,0.136l-0.06,0.134l-0.067,0.13l-0.072,0.125l-0.078,0.122l-0.084,0.117l-0.088,0.113l-0.094,0.109l-0.099,0.104l-0.104,0.099l-0.109,0.094l-0.113,0.089l-0.117,0.083l-0.122,0.078l-0.125,0.072l-0.13,0.067l-0.133,0.06l-0.137,0.054l-0.141,0.047l-0.143,0.041l-0.145,0.034l-0.149,0.026l-0.15,0.019l-0.151,0.012l-0.128,0.003l-1.025,0l0,1.025l-0.003,0.128l-0.012,0.151l-0.019,0.15l-0.026,0.148l-0.034,0.146l-0.041,0.143l-0.047,0.141l-0.054,0.137l-0.06,0.133l-0.067,0.129l-0.072,0.126l-0.078,0.122l-0.084,0.117l-0.088,0.113l-0.094,0.109l-0.099,0.104l-0.104,0.099l-0.109,0.094l-0.113,0.089l-0.117,0.083l-0.122,0.078l-0.125,0.072l-0.13,0.067l-0.134,0.06l-0.136,0.054l-0.141,0.047l-0.143,0.041l-0.146,0.034l-0.148,0.026l-0.15,0.019l-0.151,0.012l-0.128,0.003l-3.05,0l-0.124,-0.003l-0.147,-0.011l-0.147,-0.018l-0.145,-0.026l-0.143,-0.032l-0.142,-0.039l-0.139,-0.046l-0.136,-0.053l-0.134,-0.059l-0.131,-0.066l-0.128,-0.072l-0.124,-0.079l-0.12,-0.084l-0.117,-0.091l-0.112,-0.097l-0.108,-0.102l-0.102,-0.108l-0.097,-0.112l-0.091,-0.117l-0.084,-0.12l-0.079,-0.124l-0.072,-0.128l-0.066,-0.131l-0.059,-0.134l-0.053,-0.136l-0.046,-0.139l-0.039,-0.142l-0.032,-0.143l-0.026,-0.145l-0.018,-0.147l-0.011,-0.147l-0.003,-0.124l0,-4.807l0.002,-0.123l0.008,-0.141l0.012,-0.14l0.017,-0.139l0.022,-0.137l0.027,-0.137l0.031,-0.135l0.036,-0.133l0.04,-0.132l0.045,-0.13l0.049,-0.128l0.053,-0.127l0.058,-0.124l0.061,-0.122l0.066,-0.119l0.07,-0.118l0.074,-0.115l0.078,-0.113l0.081,-0.109l0.086,-0.107l0.089,-0.105l0.092,-0.101l0.097,-0.098l0.1,-0.095l0.103,-0.092l0.107,-0.088l0.11,-0.085l0.113,-0.081l0.117,-0.077l0.119,-0.074l0.123,-0.069l0.109,-0.058l3.805,-1.902l0,3.236Zm-2.894,0.447l-0.063,0.033l-0.062,0.035l-0.059,0.037l-0.058,0.038l-0.057,0.041l-0.055,0.042l-0.053,0.044l-0.052,0.046l-0.05,0.048l-0.048,0.049l-0.046,0.05l-0.045,0.052l-0.043,0.054l-0.04,0.055l-0.039,0.056l-0.037,0.058l-0.035,0.058l-0.033,0.06l-0.031,0.061l-0.029,0.062l-0.027,0.064l-0.024,0.064l-0.022,0.065l-0.021,0.066l-0.017,0.066l-0.016,0.068l-0.013,0.068l-0.011,0.069l-0.009,0.069l-0.006,0.07l-0.004,0.07l-0.001,0.071l0,4.764l0.001,0.05l0.004,0.049l0.006,0.049l0.008,0.048l0.011,0.048l0.013,0.047l0.016,0.046l0.017,0.046l0.02,0.044l0.022,0.044l0.024,0.042l0.026,0.042l0.028,0.04l0.03,0.039l0.033,0.037l0.034,0.036l0.036,0.034l0.037,0.033l0.039,0.03l0.04,0.028l0.042,0.026l0.042,0.024l0.044,0.022l0.044,0.02l0.046,0.017l0.046,0.016l0.047,0.013l0.048,0.011l0.048,0.008l0.049,0.006l0.049,0.004l0.05,0.001l3,0l0.051,-0.001l0.051,-0.004l0.05,-0.007l0.05,-0.008l0.048,-0.011l0.047,-0.014l0.047,-0.016l0.045,-0.018l0.045,-0.02l0.043,-0.022l0.042,-0.024l0.04,-0.026l0.039,-0.028l0.038,-0.029l0.036,-0.032l0.035,-0.033l0.033,-0.035l0.032,-0.036l0.029,-0.038l0.028,-0.039l0.026,-0.04l0.024,-0.042l0.022,-0.043l0.02,-0.045l0.018,-0.045l0.016,-0.047l0.014,-0.047l0.011,-0.048l0.008,-0.05l0.007,-0.05l0.004,-0.051l0.001,-0.051l0,-3l3,0l0.051,-0.001l0.051,-0.004l0.05,-0.007l0.05,-0.008l0.048,-0.011l0.047,-0.014l0.047,-0.016l0.045,-0.018l0.045,-0.02l0.043,-0.022l0.042,-0.024l0.04,-0.026l0.039,-0.028l0.038,-0.029l0.036,-0.032l0.035,-0.033l0.033,-0.035l0.032,-0.036l0.029,-0.038l0.028,-0.039l0.026,-0.04l0.024,-0.042l0.022,-0.043l0.02,-0.045l0.018,-0.045l0.016,-0.047l0.014,-0.047l0.011,-0.048l0.008,-0.05l0.007,-0.05l0.004,-0.051l0.001,-0.051c0,0 -0.001,-0.05 -0.001,-0.05l-0.004,-0.049l-0.006,-0.049l-0.008,-0.048l-0.011,-0.048l-0.013,-0.047l-0.016,-0.046l-0.017,-0.046l-0.02,-0.044l-0.022,-0.044l-0.024,-0.042l-0.026,-0.042l-0.028,-0.04l-0.03,-0.039l-0.033,-0.037l-0.034,-0.036l-0.036,-0.034l-0.037,-0.033l-0.039,-0.03l-0.04,-0.028l-0.042,-0.026l-0.042,-0.024l-0.044,-0.022l-0.044,-0.02l-0.046,-0.017l-0.046,-0.016l-0.047,-0.013l-0.048,-0.011l-0.048,-0.008l-0.049,-0.006l-0.049,-0.004l-0.05,-0.001l-6,0l0,-2l-0.894,0.447Z"/></svg>