<?xml version="1.0" encoding="UTF-8"?>
<!DOCTYPE svg  PUBLIC '-//W3C//DTD SVG 1.1//EN'  'http://www.w3.org/Graphics/SVG/1.1/DTD/svg11.dtd'>
<svg clip-rule="evenodd" fill-rule="evenodd" stroke-linecap="round" stroke-linejoin="round" stroke-miterlimit="1.5" version="1.1" viewBox="0 0 32 32" xml:space="preserve" xmlns="http://www.w3.org/2000/svg">
<metadata>
<rdf:RDF xmlns:cc="http://web.resource.org/cc/" xmlns:dc="http://purl.org/dc/elements/1.1/" xmlns:rdf="http://www.w3.org/1999/02/22-rdf-syntax-ns#">

     <rdf:Description rdf:about="">
       <dc:title>Mutant Standard S3</dc:title>
     </rdf:Description>

    <cc:work rdf:about="">
        <cc:license rdf:resource="http://creativecommons.org/licenses/by-nc-sa/4.0/"/>
        <cc:attributionName>Dzuk</cc:attributionName>
        <cc:attributionURL>http://mutant.tech/</cc:attributionURL>
    </cc:work>

</rdf:RDF>
</metadata>
<rect id="think_disappointed" width="32" height="32" fill="none"/><g id="outline"><path d="m15.68 2.001 0.18 3e-3 0.18 6e-3 0.179 8e-3 0.179 0.01 0.179 0.012 0.178 0.014 0.178 0.017 0.178 0.019 0.177 0.021 0.177 0.023 0.176 0.025 0.176 0.027 0.176 0.03 0.175 0.031 0.174 0.034 0.174 0.036 0.173 0.038 0.173 0.04 0.172 0.042 0.172 0.045 0.171 0.046 0.17 0.048 0.17 0.051 0.169 0.052 0.169 0.055 0.167 0.056 0.167 0.059 0.166 0.061 0.166 0.062 0.164 0.065 0.164 0.067 0.163 0.068 0.162 0.071 0.161 0.073 0.161 0.074 0.159 0.077 0.159 0.078 0.157 0.081 0.157 0.082 0.156 0.084 0.154 0.087 0.154 0.088 0.153 0.09 0.151 0.092 0.151 0.094 0.149 0.096 0.149 0.097 0.147 0.1 0.146 0.101 0.145 0.103 0.144 0.105 0.142 0.107 0.142 0.109 0.14 0.11 0.139 0.113 0.137 0.114 0.136 0.116 0.135 0.118 0.134 0.119 0.132 0.121 0.131 0.124 0.13 0.124 0.128 0.127 0.127 0.128 0.124 0.13 0.124 0.131 0.121 0.132 0.119 0.134 0.118 0.135 0.116 0.136 0.114 0.137 0.113 0.139 0.11 0.14 0.109 0.142 0.107 0.142 0.105 0.144 0.103 0.145 0.101 0.146 0.1 0.147 0.098 0.149 0.095 0.149 0.094 0.151 0.092 0.151 0.09 0.153 0.088 0.154 0.087 0.154 0.084 0.156 0.082 0.157 0.081 0.157 0.078 0.159 0.077 0.159 0.074 0.161 0.073 0.161 0.071 0.162 0.068 0.163 0.067 0.164 0.065 0.164 0.062 0.166 0.061 0.166 0.059 0.167 0.056 0.167 0.055 0.169 0.052 0.169 0.051 0.17 0.048 0.17 0.046 0.171 0.045 0.172 0.042 0.172 0.04 0.173 0.038 0.173 0.036 0.174 0.034 0.174 0.031 0.175 0.03 0.176 0.027 0.176 0.025 0.176 0.023 0.177 0.021 0.177 0.019 0.178 0.017 0.178 0.014 0.178 0.012 0.179 0.01 0.179 8e-3 0.179 6e-3 0.18 3e-3 0.18 1e-3 0.174v0.512l-1e-3 0.155-3e-3 0.162-5e-3 0.161-7e-3 0.16-9e-3 0.161-0.011 0.16-0.013 0.16-0.015 0.16-0.016 0.159-0.019 0.159-0.021 0.159-0.022 0.158-0.025 0.157-0.026 0.158-0.029 0.157-0.03 0.156-0.032 0.156-0.034 0.155-0.036 0.155-0.038 0.155-0.04 0.154-0.041 0.153-0.044 0.153-0.045 0.152-0.047 0.151-0.049 0.151-0.051 0.151-0.052 0.149-0.055 0.149-0.056 0.148-0.058 0.148-0.06 0.147-0.061 0.146-0.063 0.145-0.066 0.145-0.066 0.144-0.069 0.143-0.07 0.142-0.146 0.282-0.076 0.139-0.077 0.139-0.079 0.138-0.081 0.136-0.083 0.136-0.084 0.135-0.086 0.134-0.087 0.133-0.089 0.132-0.091 0.131-0.093 0.13-0.094 0.129-0.096 0.128-0.097 0.127-0.099 0.125-0.101 0.125-0.102 0.123-0.104 0.122-0.106 0.121-0.107 0.12-0.109 0.119-0.11 0.117-0.112 0.117-0.114 0.114-0.115 0.114-0.116 0.112-0.117 0.11-0.119 0.109-0.119 0.107-0.121 0.106-0.123 0.104-0.123 0.102-0.125 0.101-0.125 0.099-0.127 0.097-0.128 0.096-0.129 0.094-0.13 0.093-0.131 0.091-0.132 0.089-0.133 0.087-0.134 0.086-0.135 0.084-0.136 0.083-0.136 0.081-0.138 0.079-0.139 0.077-0.14 0.076-0.14 0.073-0.141 0.073-0.142 0.07-0.143 0.069-0.144 0.066-0.145 0.066-0.145 0.063-0.146 0.061-0.147 0.06-0.148 0.058-0.148 0.056-0.149 0.055-0.149 0.052-0.151 0.051-0.151 0.049-0.151 0.047-0.152 0.045-0.153 0.044-0.153 0.041-0.154 0.04-0.155 0.038-0.155 0.036-0.155 0.034-0.156 0.032-0.156 0.03-0.157 0.029-0.158 0.026-0.157 0.025-0.158 0.022-0.159 0.021-0.159 0.019-0.159 0.016-0.16 0.015-0.16 0.013-0.16 0.011-0.16 9e-3 -0.161 7e-3 -0.161 5e-3 -0.162 3e-3 -0.155 1e-3h-3.012l-0.155-1e-3 -0.162-3e-3 -0.161-5e-3 -0.161-7e-3 -0.16-9e-3 -0.16-0.011-0.16-0.013-0.16-0.015-0.159-0.016-0.159-0.019-0.159-0.021-0.158-0.022-0.157-0.025-0.158-0.026-0.157-0.029-0.156-0.03-0.156-0.032-0.155-0.034-0.155-0.036-0.155-0.038-0.154-0.04-0.153-0.041-0.153-0.044-0.152-0.045-0.151-0.047-0.151-0.049-0.151-0.051-0.149-0.052-0.149-0.055-0.148-0.056-0.148-0.058-0.147-0.06-0.146-0.061-0.145-0.063-0.145-0.066-0.144-0.066-0.143-0.069-0.142-0.07-0.141-0.073-0.14-0.073-0.14-0.076-0.139-0.077-0.138-0.079-0.136-0.081-0.136-0.083-0.135-0.084-0.134-0.086-0.133-0.087-0.132-0.089-0.131-0.091-0.13-0.093-0.129-0.094-0.128-0.096-0.127-0.097-0.125-0.099-0.125-0.101-0.123-0.102-0.123-0.104-0.121-0.106-0.119-0.107-0.119-0.109-0.117-0.11-0.116-0.112-0.115-0.114-0.114-0.114-0.112-0.117-0.11-0.117-0.109-0.119-0.107-0.12-0.106-0.121-0.104-0.122-0.102-0.123-0.101-0.125-0.099-0.125-0.097-0.127-0.096-0.128-0.094-0.129-0.093-0.13-0.091-0.131-0.089-0.132-0.087-0.133-0.086-0.134-0.084-0.135-0.083-0.136-0.081-0.136-0.079-0.138-0.077-0.139-0.076-0.139-0.146-0.282-0.07-0.142-0.069-0.143-0.066-0.144-0.066-0.145-0.063-0.145-0.061-0.146-0.06-0.147-0.058-0.148-0.056-0.148-0.055-0.149-0.052-0.149-0.051-0.151-0.049-0.151-0.047-0.151-0.045-0.152-0.044-0.153-0.041-0.153-0.04-0.154-0.038-0.155-0.036-0.155-0.034-0.155-0.032-0.156-0.03-0.156-0.029-0.157-0.026-0.158-0.025-0.157-0.022-0.158-0.021-0.159-0.019-0.159-0.016-0.159-0.015-0.16-0.013-0.16-0.011-0.16-9e-3 -0.161-7e-3 -0.16-5e-3 -0.161-3e-3 -0.162-1e-3 -0.155v-0.514l1e-3 -0.174 3e-3 -0.18 6e-3 -0.179 8e-3 -0.18 0.01-0.179 0.012-0.179 0.014-0.178 0.017-0.178 0.019-0.177 0.021-0.178 0.023-0.177 0.025-0.176 0.027-0.176 0.03-0.175 0.031-0.175 0.034-0.175 0.036-0.174 0.038-0.173 0.04-0.173 0.042-0.172 0.044-0.172 0.047-0.171 0.048-0.17 0.051-0.17 0.052-0.169 0.055-0.168 0.056-0.167 0.059-0.167 0.061-0.167 0.062-0.165 0.065-0.164 0.067-0.164 0.068-0.163 0.071-0.162 0.072-0.161 0.075-0.161 0.077-0.159 0.078-0.159 0.081-0.157 0.082-0.157 0.084-0.156 0.086-0.154 0.089-0.154 0.09-0.153 0.092-0.151 0.093-0.151 0.096-0.149 0.098-0.149 0.099-0.147 0.102-0.146 0.103-0.145 0.105-0.143 0.107-0.143 0.108-0.141 0.111-0.14 0.112-0.139 0.114-0.138 0.116-0.136 0.118-0.135 0.12-0.134 0.121-0.132 0.123-0.131 0.125-0.13 0.126-0.128 0.128-0.126 0.13-0.125 0.131-0.123 0.132-0.121 0.134-0.12 0.135-0.118 0.136-0.116 0.138-0.114 0.139-0.112 0.14-0.111 0.141-0.108 0.143-0.107 0.143-0.105 0.145-0.103 0.146-0.102 0.148-0.099 0.148-0.098 0.149-0.096 0.151-0.093 0.151-0.092 0.153-0.09 0.154-0.089 0.154-0.086 0.156-0.084 0.157-0.082 0.157-0.081 0.159-0.078 0.159-0.077 0.161-0.075 0.161-0.072 0.162-0.071 0.163-0.068 0.164-0.067 0.164-0.065 0.165-0.062 0.167-0.061 0.166-0.059 0.168-0.056 0.168-0.055 0.169-0.052 0.17-0.051 0.17-0.048 0.171-0.047 0.172-0.044 0.172-0.042 0.173-0.04 0.173-0.038 0.174-0.036 0.175-0.034 0.175-0.031 0.175-0.03 0.176-0.027 0.176-0.025 0.177-0.023 0.177-0.021 0.178-0.019 0.178-0.017 0.178-0.014 0.179-0.012 0.179-0.01 0.179-8e-3 0.18-6e-3 0.18-3e-3 0.174-1e-3h0.014l0.174 1e-3zm-0.312 4-0.131 2e-3 -0.13 4e-3 -0.13 6e-3 -0.129 7e-3 -0.13 9e-3 -0.129 0.01-0.129 0.012-0.128 0.014-0.129 0.015-0.128 0.017-0.127 0.018-0.128 0.02-0.127 0.021-0.126 0.023-0.127 0.025-0.126 0.026-0.125 0.027-0.125 0.029-0.125 0.031-0.124 0.032-0.124 0.033-0.123 0.035-0.123 0.037-0.123 0.038-0.121 0.039-0.122 0.041-0.121 0.043-0.12 0.044-0.12 0.045-0.119 0.047-0.118 0.048-0.118 0.05-0.118 0.051-0.117 0.053-0.116 0.054-0.115 0.055-0.115 0.057-0.114 0.058-0.113 0.06-0.113 0.061-0.112 0.062-0.111 0.064-0.111 0.065-0.11 0.067-0.109 0.068-0.108 0.069-0.107 0.071-0.107 0.072-0.106 0.073-0.105 0.075-0.104 0.076-0.103 0.077-0.102 0.079-0.102 0.08-0.1 0.081-0.1 0.083-0.098 0.084-0.098 0.085-0.097 0.087-0.096 0.088-0.095 0.089-0.093 0.09-0.093 0.092-0.092 0.093-0.09 0.093-0.089 0.095-0.088 0.096-0.087 0.097-0.085 0.098-0.084 0.098-0.083 0.1-0.081 0.1-0.08 0.102-0.079 0.102-0.077 0.103-0.076 0.104-0.075 0.105-0.073 0.106-0.072 0.107-0.071 0.107-0.069 0.108-0.068 0.109-0.067 0.11-0.065 0.111-0.064 0.111-0.062 0.112-0.061 0.113-0.06 0.113-0.058 0.114-0.057 0.115-0.055 0.115-0.054 0.116-0.053 0.117-0.051 0.118-0.05 0.118-0.048 0.118-0.047 0.119-0.045 0.12-0.044 0.12-0.043 0.121-0.041 0.122-0.039 0.121-0.038 0.123-0.037 0.123-0.035 0.123-0.033 0.124-0.032 0.124-0.031 0.125-0.029 0.125-0.027 0.125-0.026 0.126-0.025 0.127-0.023 0.126-0.021 0.127-0.02 0.128-0.018 0.128-0.017 0.127-0.015 0.129-0.014 0.128-0.012 0.129-0.01 0.129-9e-3 0.13-7e-3 0.129-6e-3 0.13-4e-3 0.13-2e-3 0.131-1e-3 0.136v0.49l1e-3 0.118 2e-3 0.111 3e-3 0.112 5e-3 0.111 6e-3 0.111 8e-3 0.111 9e-3 0.111 0.01 0.111 0.012 0.11 0.013 0.11 0.014 0.11 0.016 0.109 0.017 0.109 0.018 0.109 0.02 0.109 0.021 0.108 0.022 0.108 0.023 0.108 0.025 0.107 0.026 0.107 0.028 0.106 0.029 0.106 0.03 0.106 0.031 0.105 0.066 0.21 0.072 0.208 0.038 0.103 0.039 0.102 0.04 0.102 0.041 0.102 0.043 0.101 0.044 0.101 0.045 0.1 0.046 0.1 0.047 0.099 0.049 0.098 0.05 0.098 0.051 0.097 0.053 0.097 0.053 0.096 0.055 0.095 0.056 0.095 0.057 0.094 0.058 0.093 0.06 0.093 0.06 0.092 0.062 0.092 0.063 0.09 0.064 0.09 0.065 0.089 0.066 0.089 0.068 0.088 0.068 0.087 0.07 0.086 0.071 0.085 0.072 0.085 0.073 0.084 0.074 0.082 0.076 0.083 0.076 0.081 0.077 0.08 0.079 0.08 0.16 0.156 0.081 0.076 0.083 0.076 0.083 0.074 0.083 0.073 0.085 0.072 0.085 0.071 0.086 0.07 0.087 0.068 0.088 0.068 0.089 0.066 0.089 0.065 0.09 0.064 0.09 0.063 0.092 0.062 0.092 0.06 0.093 0.06 0.093 0.058 0.094 0.057 0.095 0.056 0.095 0.055 0.096 0.053 0.097 0.053 0.097 0.051 0.098 0.05 0.098 0.049 0.099 0.047 0.1 0.046 0.1 0.045 0.101 0.044 0.101 0.043 0.102 0.041 0.102 0.04 0.102 0.039 0.103 0.038 0.208 0.072 0.21 0.066 0.105 0.031 0.106 0.03 0.106 0.029 0.106 0.028 0.107 0.026 0.107 0.025 0.108 0.023 0.108 0.022 0.108 0.021 0.109 0.02 0.109 0.018 0.109 0.017 0.109 0.016 0.11 0.014 0.11 0.013 0.11 0.012 0.111 0.01 0.111 9e-3 0.111 8e-3 0.111 6e-3 0.111 5e-3 0.111 3e-3 0.112 2e-3 0.118 1e-3h2.988l0.118-1e-3 0.112-2e-3 0.111-3e-3 0.111-5e-3 0.111-6e-3 0.111-8e-3 0.111-9e-3 0.111-0.01 0.11-0.012 0.11-0.013 0.11-0.014 0.109-0.016 0.109-0.017 0.109-0.018 0.109-0.02 0.108-0.021 0.108-0.022 0.108-0.023 0.107-0.025 0.107-0.026 0.106-0.028 0.106-0.029 0.106-0.03 0.105-0.031 0.21-0.066 0.208-0.072 0.103-0.038 0.102-0.039 0.102-0.04 0.102-0.041 0.101-0.043 0.101-0.044 0.1-0.045 0.1-0.046 0.099-0.047 0.098-0.049 0.098-0.05 0.097-0.051 0.097-0.053 0.096-0.053 0.095-0.055 0.095-0.056 0.094-0.057 0.093-0.058 0.093-0.06 0.092-0.06 0.092-0.062 0.09-0.063 0.09-0.064 0.089-0.065 0.089-0.066 0.088-0.068 0.087-0.068 0.086-0.07 0.085-0.071 0.085-0.072 0.084-0.073 0.082-0.074 0.083-0.075 0.081-0.077 0.16-0.156 0.079-0.08 0.077-0.08 0.076-0.081 0.076-0.083 0.074-0.082 0.073-0.084 0.072-0.085 0.071-0.085 0.07-0.086 0.068-0.087 0.068-0.088 0.066-0.089 0.065-0.089 0.064-0.09 0.063-0.09 0.062-0.092 0.06-0.092 0.06-0.093 0.058-0.093 0.057-0.094 0.056-0.095 0.055-0.095 0.053-0.096 0.053-0.097 0.051-0.097 0.05-0.098 0.049-0.098 0.047-0.099 0.046-0.1 0.045-0.1 0.044-0.101 0.043-0.101 0.041-0.102 0.04-0.102 0.039-0.102 0.038-0.103 0.072-0.208 0.066-0.21 0.031-0.105 0.03-0.106 0.029-0.106 0.028-0.106 0.026-0.107 0.025-0.107 0.023-0.108 0.022-0.108 0.021-0.108 0.02-0.109 0.018-0.109 0.017-0.109 0.016-0.109 0.014-0.11 0.013-0.11 0.012-0.11 0.01-0.111 9e-3 -0.111 8e-3 -0.111 6e-3 -0.111 5e-3 -0.111 3e-3 -0.112 2e-3 -0.111 1e-3 -0.118v-0.488l-1e-3 -0.136-2e-3 -0.131-4e-3 -0.13-6e-3 -0.13-7e-3 -0.129-9e-3 -0.13-0.01-0.129-0.012-0.129-0.014-0.129-0.015-0.128-0.017-0.128-0.018-0.127-0.02-0.128-0.021-0.127-0.023-0.127-0.025-0.126-0.026-0.126-0.027-0.125-0.029-0.126-0.031-0.124-0.032-0.125-0.033-0.123-0.035-0.124-0.037-0.123-0.038-0.122-0.039-0.122-0.041-0.121-0.043-0.121-0.044-0.121-0.045-0.119-0.047-0.119-0.048-0.119-0.05-0.118-0.051-0.118-0.053-0.116-0.054-0.117-0.055-0.115-0.057-0.115-0.058-0.114-0.06-0.113-0.061-0.113-0.063-0.112-0.063-0.111-0.066-0.111-0.066-0.11-0.068-0.109-0.07-0.108-0.07-0.107-0.072-0.107-0.074-0.106-0.074-0.105-0.076-0.104-0.078-0.103-0.078-0.102-0.08-0.102-0.082-0.1-0.083-0.1-0.084-0.099-0.085-0.097-0.086-0.097-0.088-0.096-0.089-0.095-0.091-0.094-0.091-0.093-0.093-0.091-0.094-0.091-0.095-0.089-0.096-0.088-0.194-0.172-0.099-0.083-0.1-0.083-0.1-0.081-0.102-0.081-0.102-0.078-0.103-0.078-0.104-0.076-0.105-0.074-0.106-0.074-0.107-0.072-0.107-0.071-0.108-0.069-0.109-0.068-0.11-0.066-0.111-0.066-0.111-0.063-0.112-0.063-0.113-0.061-0.113-0.06-0.114-0.058-0.115-0.057-0.116-0.055-0.116-0.054-0.116-0.053-0.118-0.051-0.118-0.05-0.118-0.048-0.12-0.047-0.119-0.045-0.121-0.044-0.121-0.043-0.121-0.041-0.122-0.039-0.122-0.038-0.123-0.037-0.124-0.035-0.123-0.033-0.125-0.032-0.124-0.031-0.126-0.029-0.125-0.027-0.126-0.026-0.126-0.025-0.127-0.023-0.127-0.021-0.127-0.02-0.128-0.018-0.128-0.017-0.129-0.015-0.128-0.014-0.129-0.012-0.129-0.01-0.13-9e-3 -0.129-7e-3 -0.13-6e-3 -0.13-4e-3 -0.131-2e-3 -0.131-1e-3 -0.131 1e-3z"/><path d="m26.635 5e-3 0.09 8e-3 0.09 0.012 0.089 0.016 0.088 0.02 0.087 0.025 0.086 0.028 0.084 0.032 0.083 0.035 0.082 0.04 0.079 0.043 0.078 0.047 0.075 0.05 0.073 0.053 0.07 0.057 0.068 0.06 0.065 0.062 0.062 0.066 0.059 0.069 0.056 0.071 0.053 0.073 0.049 0.076 0.046 0.078 0.042 0.08 2.946 5.893 0.042 0.086 0.045 0.096 0.042 0.097 0.041 0.097 0.038 0.098 0.037 0.098 0.034 0.099 0.032 0.099 0.03 0.1 0.029 0.1 0.026 0.1 0.024 0.101 0.022 0.1 0.02 0.102 0.018 0.101 0.016 0.101 0.015 0.102 0.012 0.102 0.01 0.102 8e-3 0.102 6e-3 0.102 4e-3 0.101 2e-3 0.102 1e-3 0.102-2e-3 0.102-4e-3 0.101-5e-3 0.102-8e-3 0.101-9e-3 0.102-0.012 0.1-0.013 0.101-0.016 0.1-0.017 0.1-0.019 0.1-0.021 0.099-0.023 0.099-0.025 0.098-0.026 0.098-0.029 0.098-0.031 0.097-0.032 0.096-0.034 0.096-0.037 0.096-0.038 0.094-0.04 0.094-0.041 0.094-0.044 0.093-0.046 0.092-0.047 0.091-0.049 0.09-0.051 0.09-0.053 0.089-0.055 0.088-0.056 0.086-0.059 0.086-0.06 0.085-0.062 0.084-0.064 0.083-0.065 0.082-0.068 0.08-0.069 0.08-0.071 0.078-0.072 0.077-0.065 0.066-0.016 0.017-0.088 0.086-0.096 0.089-0.098 0.086-0.1 0.084-0.102 0.082-0.104 0.078-0.105 0.076-0.107 0.074-0.109 0.07-0.11 0.068-0.112 0.065-0.113 0.062-0.115 0.06-0.116 0.056-0.117 0.054-0.119 0.051-0.119 0.048-0.121 0.045-0.122 0.042-0.123 0.039-0.124 0.036-0.125 0.033-0.126 0.03-0.127 0.027-0.128 0.024-0.128 0.02-0.129 0.018-0.129 0.015-0.13 0.011-0.131 8e-3 -0.131 5e-3 -0.131 1e-3 -0.131-1e-3 -0.131-5e-3 -0.131-8e-3 -0.13-0.011-0.129-0.015-0.129-0.018-0.128-0.02-0.128-0.024-0.127-0.027-0.126-0.03-0.125-0.033-0.124-0.036-0.123-0.039-0.122-0.042-0.121-0.045-0.12-0.048-0.118-0.051-0.117-0.054-0.116-0.056-0.115-0.06-0.113-0.062-0.112-0.065-0.11-0.068-0.109-0.07-0.107-0.074-0.105-0.076-0.104-0.078-0.102-0.082-0.1-0.084-0.098-0.086-0.096-0.089-0.081-0.08-0.017-0.017-0.071-0.072-0.072-0.077-0.071-0.078-0.069-0.08-0.068-0.08-0.065-0.082-0.064-0.083-0.062-0.084-0.06-0.085-0.058-0.086-0.057-0.086-0.055-0.089-0.053-0.088-0.051-0.09-0.049-0.09-0.047-0.091-0.046-0.092-0.044-0.093-0.041-0.093-0.04-0.095-0.038-0.094-0.037-0.096-0.034-0.096-0.032-0.096-0.031-0.097-0.029-0.098-0.026-0.098-0.025-0.098-0.023-0.099-0.021-0.1-0.019-0.099-0.017-0.1-0.016-0.1-0.013-0.101-0.012-0.1-9e-3 -0.102-8e-3 -0.101-5e-3 -0.102-4e-3 -0.101-2e-3 -0.102 1e-3 -0.101 2e-3 -0.103 4e-3 -0.102 6e-3 -0.101 8e-3 -0.102 0.01-0.102 0.012-0.102 0.015-0.102 0.016-0.101 0.018-0.101 0.02-0.101 0.022-0.101 0.024-0.101 0.027-0.101 0.028-0.099 0.03-0.1 0.032-0.099 0.034-0.099 0.037-0.098 0.038-0.098 0.041-0.097 0.042-0.097 0.045-0.096 0.042-0.086 2.946-5.893 0.042-0.08 0.046-0.078 0.049-0.076 0.053-0.073 0.056-0.071 0.059-0.069 0.062-0.066 0.065-0.062 0.068-0.06 0.07-0.057 0.073-0.053 0.075-0.05 0.078-0.047 0.079-0.043 0.082-0.04 0.083-0.035 0.084-0.032 0.086-0.028 0.087-0.025 0.088-0.02 0.089-0.016 0.09-0.012 0.09-8e-3 0.09-4e-3h0.09l0.09 4e-3zm-3.077 7.879-0.029 0.06-0.028 0.059-0.026 0.061-0.025 0.06-0.024 0.061-0.023 0.061-0.021 0.061-0.02 0.062-0.019 0.062-0.034 0.124-0.015 0.062-0.026 0.126-0.011 0.063-0.01 0.063-9e-3 0.063-0.014 0.126-5e-3 0.064-6e-3 0.126-1e-3 0.064-1e-3 0.063 1e-3 0.063 6e-3 0.126 5e-3 0.063 6e-3 0.063 7e-3 0.063 8e-3 0.062 0.01 0.063 0.01 0.062 0.012 0.062 0.013 0.062 0.03 0.122 0.017 0.061 0.018 0.061 0.019 0.06 0.02 0.06 0.021 0.06 0.046 0.118 0.025 0.058 0.026 0.058 0.027 0.058 0.028 0.057 0.03 0.057 0.03 0.056 0.032 0.055 0.033 0.055 0.034 0.055 0.035 0.054 0.036 0.053 0.038 0.053 0.038 0.052 0.08 0.102 0.042 0.05 0.043 0.05 0.044 0.049 0.045 0.047 0.048 0.049 0.058 0.057 0.06 0.055 0.061 0.054 0.062 0.052 0.063 0.051 0.065 0.049 0.065 0.047 0.067 0.045 0.067 0.044 0.069 0.043 0.069 0.04 0.071 0.039 0.071 0.037 0.072 0.035 0.073 0.033 0.074 0.032 0.074 0.03 0.076 0.028 0.076 0.026 0.076 0.024 0.077 0.022 0.078 0.021 0.078 0.019 0.079 0.016 0.079 0.015 0.08 0.013 0.08 0.011 0.081 9e-3 0.081 7e-3 0.081 5e-3 0.081 3e-3 0.082 1e-3 0.082-1e-3 0.081-3e-3 0.081-5e-3 0.081-7e-3 0.081-9e-3 0.08-0.011 0.08-0.013 0.079-0.015 0.079-0.016 0.078-0.019 0.078-0.021 0.077-0.022 0.076-0.024 0.076-0.026 0.076-0.028 0.074-0.03 0.074-0.032 0.073-0.033 0.072-0.035 0.071-0.037 0.071-0.039 0.069-0.04 0.069-0.043 0.067-0.044 0.067-0.045 0.065-0.047 0.065-0.049 0.063-0.051 0.062-0.052 0.061-0.054 0.06-0.055 0.058-0.057 1e-3 -1e-3 0.047-0.048 0.045-0.047 0.044-0.049 0.043-0.05 0.042-0.05 0.08-0.102 0.038-0.052 0.038-0.053 0.036-0.053 0.035-0.054 0.034-0.055 0.033-0.055 0.032-0.055 0.03-0.056 0.03-0.057 0.028-0.057 0.027-0.058 0.026-0.058 0.025-0.058 0.046-0.118 0.021-0.06 0.02-0.06 0.019-0.06 0.018-0.061 0.017-0.061 0.03-0.122 0.013-0.062 0.012-0.062 0.01-0.062 0.01-0.063 8e-3 -0.062 7e-3 -0.063 6e-3 -0.063 5e-3 -0.063 6e-3 -0.126 1e-3 -0.063-1e-3 -0.063-1e-3 -0.064-6e-3 -0.126-5e-3 -0.064-0.014-0.126-9e-3 -0.063-0.01-0.063-0.011-0.063-0.026-0.126-0.015-0.062-0.034-0.124-0.019-0.062-0.02-0.062-0.021-0.061-0.023-0.061-0.024-0.061-0.025-0.06-0.026-0.061-0.028-0.059-0.029-0.06-2.942-5.884-2.942 5.884z"/></g><g id="emoji"><path d="m28 16.5c0-3.315-1.317-6.495-3.661-8.839s-5.524-3.661-8.839-3.661h-2e-3c-3.315 0-6.494 1.317-8.837 3.661-2.344 2.343-3.661 5.522-3.661 8.837v0.502c0 2.917 1.159 5.715 3.222 7.778s4.861 3.222 7.778 3.222h3c2.917 0 5.715-1.159 7.778-3.222s3.222-4.861 3.222-7.778v-0.5z" fill="#fbc546"/><clipPath id="_clip1"><path d="m28 16.5c0-3.315-1.317-6.495-3.661-8.839s-5.524-3.661-8.839-3.661h-2e-3c-3.315 0-6.494 1.317-8.837 3.661-2.344 2.343-3.661 5.522-3.661 8.837v0.502c0 2.917 1.159 5.715 3.222 7.778s4.861 3.222 7.778 3.222h3c2.917 0 5.715-1.159 7.778-3.222s3.222-4.861 3.222-7.778v-0.5z"/></clipPath><g clip-path="url(#_clip1)" fill="#e59a10"><path d="m14 23s-1.983-1.416-3.838-2.741c-0.609-0.436-1.411-0.494-2.077-0.151s-1.085 1.029-1.085 1.778v8.114c0 0.552 0.448 1 1 1h3c0.265 0 0.52-0.105 0.707-0.293 0.188-0.187 0.293-0.442 0.293-0.707v-1h8s-3.011-3.614-4.36-5.232c-0.406-0.487-1.006-0.768-1.64-0.768z"/><path d="m31.235 6.999 0.042 0.086 0.045 0.096 0.042 0.097 0.041 0.097 0.038 0.098 0.037 0.098 0.034 0.099 0.032 0.099 0.03 0.1 0.029 0.1 0.026 0.1 0.024 0.101 0.022 0.1 0.02 0.102 0.018 0.101 0.016 0.101 0.015 0.102 0.012 0.102 0.01 0.102 8e-3 0.102 6e-3 0.102 4e-3 0.101 2e-3 0.102 1e-3 0.102-2e-3 0.102-4e-3 0.101-5e-3 0.102-8e-3 0.101-9e-3 0.102-0.012 0.1-0.013 0.101-0.016 0.1-0.017 0.1-0.019 0.1-0.021 0.099-0.023 0.099-0.025 0.098-0.026 0.098-0.029 0.098-0.031 0.097-0.032 0.096-0.034 0.096-0.037 0.096-0.038 0.094-0.04 0.094-0.041 0.094-0.044 0.093-0.046 0.092-0.047 0.091-0.049 0.09-0.051 0.09-0.053 0.089-0.055 0.088-0.056 0.086-0.059 0.086-0.06 0.085-0.062 0.084-0.064 0.083-0.065 0.082-0.068 0.08-0.069 0.08-0.071 0.078-0.072 0.077-0.065 0.066-0.016 0.017-0.088 0.086-0.096 0.089-0.098 0.086-0.1 0.084-0.102 0.082-0.104 0.078-0.105 0.076-0.107 0.074-0.109 0.07-0.11 0.068-0.112 0.065-0.113 0.062-0.115 0.06-0.116 0.056-0.117 0.054-0.119 0.051-0.119 0.048-0.121 0.045-0.122 0.042-0.123 0.039-0.124 0.036-0.125 0.033-0.126 0.03-0.127 0.027-0.128 0.024-0.128 0.02-0.129 0.018-0.129 0.015-0.13 0.011-0.131 8e-3 -0.131 5e-3 -0.131 1e-3 -0.131-1e-3 -0.131-5e-3 -0.131-8e-3 -0.13-0.011-0.129-0.015-0.129-0.018-0.128-0.02-0.128-0.024-0.127-0.027-0.126-0.03-0.125-0.033-0.124-0.036-0.123-0.039-0.122-0.042-0.121-0.045-0.12-0.048-0.118-0.051-0.117-0.054-0.116-0.056-0.115-0.06-0.113-0.062-0.112-0.065-0.11-0.068-0.109-0.07-0.107-0.074-0.105-0.076-0.104-0.078-0.102-0.082-0.1-0.084-0.098-0.086-0.096-0.089-0.081-0.08-0.017-0.017-0.071-0.072-0.072-0.077-0.071-0.078-0.069-0.08-0.068-0.08-0.065-0.082-0.064-0.083-0.062-0.084-0.06-0.085-0.058-0.086-0.057-0.086-0.055-0.089-0.053-0.088-0.051-0.09-0.049-0.09-0.047-0.091-0.046-0.092-0.044-0.093-0.041-0.093-0.04-0.095-0.038-0.094-0.037-0.096-0.034-0.096-0.032-0.096-0.031-0.097-0.029-0.098-0.026-0.098-0.025-0.098-0.023-0.099-0.021-0.1-0.019-0.099-0.017-0.1-0.016-0.1-0.013-0.101-0.012-0.1-9e-3 -0.102-8e-3 -0.101-5e-3 -0.102-4e-3 -0.101-2e-3 -0.102 1e-3 -0.101 2e-3 -0.103 4e-3 -0.102 6e-3 -0.101 8e-3 -0.102 0.01-0.102 0.012-0.102 0.015-0.102 0.016-0.101 0.018-0.101 0.02-0.101 0.022-0.101 0.024-0.101 0.027-0.101 0.028-0.099 0.03-0.1 0.032-0.099 0.034-0.099 0.037-0.098 0.038-0.098 0.041-0.097 0.042-0.097 0.045-0.096 0.042-0.086 3.999-7.999h1.472l3.999 7.999zm-5.884 1.771-0.016 0.032-0.011 0.024-0.01 0.023-0.01 0.024-0.018 0.048-8e-3 0.024-8e-3 0.023-7e-3 0.025-7e-3 0.024-0.012 0.048-6e-3 0.025-4e-3 0.024-5e-3 0.024-4e-3 0.025-3e-3 0.024-3e-3 0.025-2e-3 0.025-2e-3 0.024-2e-3 0.025-1e-3 0.025v0.024l-1e-3 0.025 2e-3 0.05 1e-3 0.024 4e-3 0.05 3e-3 0.024 3e-3 0.025 4e-3 0.024 4e-3 0.025 0.01 0.048 0.018 0.072 7e-3 0.024 8e-3 0.024 7e-3 0.023 0.036 0.092 0.011 0.023 0.01 0.022 0.011 0.022 0.012 0.022 0.011 0.022 0.013 0.022 0.039 0.063 0.015 0.021 0.014 0.021 0.03 0.04 0.016 0.02 0.017 0.019 0.016 0.02 0.036 0.038 0.042 0.042 0.023 0.021 0.024 0.022 0.025 0.02 0.024 0.02 0.026 0.019 0.025 0.019 0.026 0.017 0.027 0.018 0.054 0.032 0.056 0.03 0.028 0.013 0.028 0.014 0.029 0.012 0.03 0.012 0.029 0.011 0.03 0.01 0.06 0.018 0.031 8e-3 0.03 8e-3 0.062 0.012 0.032 5e-3 0.062 8e-3 0.032 3e-3 0.032 1e-3 0.032 2e-3h0.032 0.032l0.032-2e-3 0.032-1e-3 0.032-3e-3 0.031-4e-3 0.032-4e-3 0.031-5e-3 0.062-0.012 0.03-8e-3 0.031-8e-3 0.06-0.018 0.03-0.01 0.029-0.011 0.03-0.012 0.029-0.013 0.056-0.026 0.056-0.03 0.054-0.032 0.027-0.018 0.026-0.018 0.025-0.018 0.026-0.019 0.024-0.02 0.025-0.02 0.024-0.021 0.023-0.022 0.042-0.042 0.036-0.038 0.016-0.02 0.017-0.019 0.015-0.02 0.016-0.02 0.015-0.021 0.014-0.02 0.015-0.021 0.039-0.063 0.013-0.022 0.011-0.022 0.012-0.022 0.011-0.022 0.01-0.022 0.02-0.046 0.027-0.069 7e-3 -0.023 8e-3 -0.024 7e-3 -0.024 0.018-0.072 0.01-0.048 4e-3 -0.025 4e-3 -0.024 3e-3 -0.025 3e-3 -0.024 4e-3 -0.05 1e-3 -0.024 2e-3 -0.05-1e-3 -0.024v-0.025l-1e-3 -0.025-2e-3 -0.025-2e-3 -0.024-2e-3 -0.025-3e-3 -0.025-3e-3 -0.024-4e-3 -0.025-5e-3 -0.024-4e-3 -0.024-6e-3 -0.025-0.012-0.048-0.014-0.048-8e-3 -0.024-8e-3 -0.025-9e-3 -0.023-9e-3 -0.024-0.01-0.024-0.01-0.023-0.011-0.024-1.165-2.33-1.149 2.298z"/></g><path d="m13 12.996c0-0.267-0.106-0.522-0.294-0.71-0.188-0.189-0.444-0.294-0.71-0.294h-3.992c-0.266 0-0.522 0.105-0.71 0.294-0.188 0.188-0.294 0.443-0.294 0.71 0 0.266 0.106 0.522 0.294 0.71s0.444 0.294 0.71 0.294h3.992c0.266 0 0.522-0.106 0.71-0.294s0.294-0.444 0.294-0.71z"/><path d="m25 12.996c0-0.267-0.106-0.522-0.294-0.71-0.188-0.189-0.444-0.294-0.71-0.294h-3.992c-0.266 0-0.522 0.105-0.71 0.294-0.188 0.188-0.294 0.443-0.294 0.71 0 0.266 0.106 0.522 0.294 0.71s0.444 0.294 0.71 0.294h3.992c0.266 0 0.522-0.106 0.71-0.294s0.294-0.444 0.294-0.71z"/><path d="m26.5 2-2.942 5.884c-0.632 1.264-0.384 2.79 0.615 3.789l1e-3 1e-3c0.617 0.617 1.453 0.963 2.326 0.963s1.709-0.346 2.326-0.963l1e-3 -1e-3c0.999-0.999 1.247-2.525 0.615-3.789l-2.942-5.884z" fill="#fff"/><path d="m12 19s0.019-0.057 0.051-0.154c0.567-1.7 2.157-2.846 3.949-2.846s3.382 1.146 3.949 2.846c0.032 0.097 0.051 0.154 0.051 0.154" fill="none" stroke="#593604" stroke-width="2px"/></g><path d="m7 22-0.894 0.447c-0.678 0.339-1.106 1.032-1.106 1.789v4.764c0 0.265 0.105 0.52 0.293 0.707 0.187 0.188 0.442 0.293 0.707 0.293h3c0.552 0 1-0.448 1-1v-3h3c0.552 0 1-0.448 1-1 0-0.265-0.105-0.52-0.293-0.707-0.187-0.188-0.442-0.293-0.707-0.293h-6v-2z" fill="#fbc546"/><path d="m9 22h4.025l0.124 3e-3 0.147 0.011 0.147 0.018 0.145 0.026 0.143 0.032 0.142 0.039 0.139 0.046 0.136 0.053 0.134 0.059 0.131 0.066 0.127 0.072 0.125 0.078 0.12 0.085 0.117 0.091 0.112 0.097 0.108 0.102 0.102 0.108 0.097 0.112 0.091 0.117 0.084 0.12 0.079 0.124 0.072 0.128 0.066 0.131 0.059 0.134 0.053 0.137 0.046 0.138 0.039 0.141 0.033 0.144 0.025 0.145 0.018 0.147 0.011 0.147 4e-3 0.149-4e-3 0.152-0.012 0.153-0.019 0.149-0.026 0.148-0.034 0.146-0.041 0.143-0.047 0.141-0.054 0.137-0.06 0.133-0.067 0.129-0.072 0.126-0.078 0.122-0.084 0.117-0.088 0.113-0.094 0.109-0.1 0.104-0.103 0.099-0.108 0.094-0.114 0.088-0.117 0.084-0.122 0.078-0.125 0.072-0.13 0.067-0.134 0.06-0.136 0.054-0.141 0.047-0.143 0.041-0.146 0.034-0.148 0.026-0.15 0.019-0.151 0.012-0.128 3e-3h-1.025v1.025l-3e-3 0.128-0.012 0.152-0.019 0.149-0.026 0.149-0.034 0.145-0.041 0.143-0.047 0.14-0.054 0.137-0.06 0.134-0.067 0.13-0.072 0.125-0.078 0.122-0.083 0.117-0.089 0.113-0.094 0.109-0.099 0.104-0.104 0.099-0.108 0.094-0.114 0.088-0.117 0.084-0.122 0.078-0.125 0.072-0.13 0.067-0.134 0.06-0.137 0.054-0.14 0.047-0.143 0.041-0.146 0.034-0.148 0.026-0.15 0.019-0.151 0.012-0.128 3e-3h-3.05l-0.124-3e-3 -0.147-0.011-0.147-0.018-0.145-0.026-0.143-0.032-0.142-0.039-0.139-0.046-0.136-0.053-0.134-0.059-0.131-0.066-0.127-0.072-0.125-0.078-0.12-0.085-0.117-0.091-0.112-0.097-0.108-0.102-0.102-0.108-0.097-0.112-0.091-0.117-0.084-0.12-0.079-0.124-0.072-0.128-0.066-0.131-0.059-0.134-0.053-0.136-0.046-0.139-0.039-0.142-0.032-0.143-0.026-0.145-0.018-0.147-0.011-0.147-3e-3 -0.124v-4.807l2e-3 -0.123 8e-3 -0.141 0.012-0.14 0.017-0.139 0.022-0.137 0.027-0.136 0.031-0.136 0.036-0.133 0.04-0.132 0.045-0.13 0.049-0.128 0.053-0.126 0.058-0.124 0.062-0.123 0.065-0.12 0.07-0.117 0.074-0.115 0.078-0.112 0.081-0.11 0.086-0.107 0.089-0.104 0.093-0.102 0.096-0.098 0.1-0.095 0.103-0.092 0.107-0.088 0.11-0.085 0.113-0.081 0.117-0.077 0.119-0.074 0.123-0.069 0.109-0.058 3.805-1.902v3.236zm-2.894 0.447-0.063 0.033-0.062 0.035-0.059 0.037-0.058 0.038-0.057 0.041-0.055 0.042-0.053 0.044-0.052 0.046-0.05 0.048-0.048 0.049-0.046 0.05-0.045 0.052-0.043 0.054-0.04 0.055-0.039 0.056-0.037 0.058-0.035 0.058-0.033 0.06-0.031 0.061-0.029 0.062-0.027 0.064-0.024 0.064-0.022 0.065-0.021 0.066-0.017 0.066-0.016 0.068-0.013 0.068-0.011 0.069-9e-3 0.069-6e-3 0.07-4e-3 0.07-1e-3 0.071v4.764l1e-3 0.05 4e-3 0.049 6e-3 0.049 8e-3 0.048 0.011 0.048 0.013 0.047 0.016 0.046 0.017 0.046 0.02 0.044 0.022 0.044 0.024 0.042 0.026 0.042 0.028 0.04 0.03 0.039 0.033 0.037 0.034 0.036 0.036 0.034 0.037 0.033 0.039 0.03 0.04 0.028 0.042 0.026 0.042 0.024 0.044 0.022 0.044 0.02 0.046 0.017 0.046 0.016 0.047 0.013 0.048 0.011 0.048 8e-3 0.049 6e-3 0.049 4e-3 0.05 1e-3h3l0.051-1e-3 0.051-4e-3 0.05-7e-3 0.05-8e-3 0.048-0.011 0.047-0.014 0.047-0.016 0.045-0.018 0.045-0.02 0.043-0.022 0.042-0.024 0.04-0.026 0.039-0.028 0.038-0.029 0.036-0.032 0.035-0.033 0.033-0.035 0.032-0.036 0.029-0.038 0.028-0.039 0.026-0.04 0.024-0.042 0.022-0.043 0.02-0.045 0.018-0.045 0.016-0.047 0.014-0.047 0.011-0.048 8e-3 -0.05 7e-3 -0.05 4e-3 -0.051 1e-3 -0.051v-3h3l0.051-1e-3 0.051-4e-3 0.05-7e-3 0.05-8e-3 0.048-0.011 0.047-0.014 0.047-0.016 0.045-0.018 0.045-0.02 0.043-0.022 0.042-0.024 0.04-0.026 0.039-0.028 0.038-0.029 0.036-0.032 0.035-0.033 0.033-0.035 0.032-0.036 0.029-0.038 0.028-0.039 0.026-0.04 0.024-0.042 0.022-0.043 0.02-0.045 0.018-0.045 0.016-0.047 0.014-0.047 0.011-0.048 8e-3 -0.05 7e-3 -0.05 4e-3 -0.051 1e-3 -0.051-1e-3 -0.05-4e-3 -0.049-6e-3 -0.049-8e-3 -0.048-0.011-0.048-0.013-0.047-0.016-0.046-0.017-0.046-0.02-0.044-0.022-0.044-0.024-0.042-0.026-0.042-0.028-0.04-0.03-0.039-0.033-0.037-0.034-0.036-0.036-0.034-0.037-0.033-0.039-0.03-0.04-0.028-0.042-0.026-0.042-0.024-0.044-0.022-0.044-0.02-0.046-0.017-0.046-0.016-0.047-0.013-0.048-0.011-0.048-8e-3 -0.049-6e-3 -0.049-4e-3 -0.05-1e-3h-6v-2l-0.894 0.447z"/><rect x="11" y="27" width="2" height="2"/></svg>
