<?xml version="1.0" encoding="UTF-8" standalone="no"?><!DOCTYPE svg PUBLIC "-//W3C//DTD SVG 1.1//EN" "http://www.w3.org/Graphics/SVG/1.1/DTD/svg11.dtd"><svg width="100%" height="100%" viewBox="0 0 32 32" version="1.1" xmlns="http://www.w3.org/2000/svg" xmlns:xlink="http://www.w3.org/1999/xlink" xml:space="preserve" xmlns:serif="http://www.serif.com/" style="fill-rule:evenodd;clip-rule:evenodd;stroke-linejoin:round;stroke-miterlimit:1.5;">
<metadata>
<rdf:RDF xmlns:cc="http://web.resource.org/cc/"
         xmlns:rdf="http://www.w3.org/1999/02/22-rdf-syntax-ns#"
         xmlns:dc = "http://purl.org/dc/elements/1.1/"
         >

     <rdf:Description rdf:about="">
       <dc:title>Mutant Standard S3</dc:title>
     </rdf:Description>

    <cc:work rdf:about="">
        <cc:license rdf:resource="http://creativecommons.org/licenses/by-nc-sa/4.0/"/>
        <cc:attributionName>Dzuk</cc:attributionName>
        <cc:attributionURL>http://mutant.tech/</cc:attributionURL>
    </cc:work>

</rdf:RDF>
</metadata>
<rect id="think_shit" x="0" y="0" width="32" height="32" style="fill:none;"/><clipPath id="_clip1"><rect x="0" y="0" width="32" height="32"/></clipPath><g clip-path="url(#_clip1)"><g id="outline"><path d="M30,21c0,-1.591 -0.632,-3.117 -1.757,-4.243c-1.126,-1.125 -2.652,-1.757 -4.243,-1.757c-4.724,0 -11.276,0 -16,0c-1.591,0 -3.117,0.632 -4.243,1.757c-1.125,1.126 -1.757,2.652 -1.757,4.243c0,0 0,0 0,0c0,1.591 0.632,3.117 1.757,4.243c1.126,1.125 2.652,1.757 4.243,1.757c4.724,0 11.276,0 16,0c1.591,0 3.117,-0.632 4.243,-1.757c1.125,-1.126 1.757,-2.652 1.757,-4.243c0,0 0,0 0,0Z" style="fill:none;stroke:#000;stroke-width:4px;"/><path d="M26,13c0,-2.761 -2.239,-5 -5,-5c-3.054,0 -6.946,0 -10,0c-2.761,0 -5,2.239 -5,5c0,0 0,0 0,0c0,2.761 2.239,5 5,5c3.054,0 6.946,0 10,0c2.761,0 5,-2.239 5,-5c0,0 0,0 0,0Z" style="fill:none;stroke:#000;stroke-width:4px;"/><path d="M12,6.015c0,-1.061 0.421,-2.078 1.171,-2.827c0.75,-0.75 1.767,-1.171 2.827,-1.171c2.404,0 5.002,0 5.002,0c0,0 0,1.68 0,3.5c0,2.485 -2.015,4.5 -4.5,4.5c-0.168,0 -0.335,0 -0.502,0c-1.06,0 -2.077,-0.422 -2.827,-1.171c-0.75,-0.75 -1.171,-1.767 -1.171,-2.827c0,-0.002 0,-0.003 0,-0.004Z" style="fill:none;stroke:#000;stroke-width:4px;"/></g><g id="emoji"><path d="M12,6.015c0,-1.061 0.421,-2.078 1.171,-2.827c0.75,-0.75 1.767,-1.171 2.827,-1.171c2.404,0 5.002,0 5.002,0c0,0 0,1.68 0,3.5c0,2.485 -2.015,4.5 -4.5,4.5c-0.168,0 -0.335,0 -0.502,0c-1.06,0 -2.077,-0.422 -2.827,-1.171c-0.75,-0.75 -1.171,-1.767 -1.171,-2.827c0,-0.002 0,-0.003 0,-0.004Z" style="fill:#9a6f42;"/><path d="M30,21c0,-1.591 -0.632,-3.117 -1.757,-4.243c-1.126,-1.125 -2.652,-1.757 -4.243,-1.757c-4.724,0 -11.276,0 -16,0c-1.591,0 -3.117,0.632 -4.243,1.757c-1.125,1.126 -1.757,2.652 -1.757,4.243c0,0 0,0 0,0c0,1.591 0.632,3.117 1.757,4.243c1.126,1.125 2.652,1.757 4.243,1.757c4.724,0 11.276,0 16,0c1.591,0 3.117,-0.632 4.243,-1.757c1.125,-1.126 1.757,-2.652 1.757,-4.243c0,0 0,0 0,0Z" style="fill:#9a6f42;"/><clipPath id="_clip2"><path d="M30,21c0,-1.591 -0.632,-3.117 -1.757,-4.243c-1.126,-1.125 -2.652,-1.757 -4.243,-1.757c-4.724,0 -11.276,0 -16,0c-1.591,0 -3.117,0.632 -4.243,1.757c-1.125,1.126 -1.757,2.652 -1.757,4.243c0,0 0,0 0,0c0,1.591 0.632,3.117 1.757,4.243c1.126,1.125 2.652,1.757 4.243,1.757c4.724,0 11.276,0 16,0c1.591,0 3.117,-0.632 4.243,-1.757c1.125,-1.126 1.757,-2.652 1.757,-4.243c0,0 0,0 0,0Z"/></clipPath><g clip-path="url(#_clip2)"><path d="M15,23c0,0 -1.983,-1.416 -3.838,-2.741c-0.609,-0.436 -1.411,-0.494 -2.077,-0.151c-0.666,0.343 -1.085,1.029 -1.085,1.778c0,2.809 0,6.399 0,8.114c0,0.552 0.448,1 1,1c0.871,0 2.129,0 3,0c0.265,0 0.52,-0.105 0.707,-0.293c0.188,-0.187 0.293,-0.442 0.293,-0.707c0,-0.5 0,-1 0,-1l8,0c0,0 -3.011,-3.614 -4.36,-5.232c-0.406,-0.487 -1.006,-0.768 -1.64,-0.768c0,0 0,0 0,0Z" style="fill:#624221;"/></g><path d="M26,13c0,-2.761 -2.239,-5 -5,-5c-3.054,0 -6.946,0 -10,0c-2.761,0 -5,2.239 -5,5c0,0 0,0 0,0c0,2.761 2.239,5 5,5c3.054,0 6.946,0 10,0c2.761,0 5,-2.239 5,-5c0,0 0,0 0,0Z" style="fill:#9a6f42;"/><path d="M13,10.5c0,-0.828 -0.672,-1.5 -1.5,-1.5c-0.828,0 -1.5,0.672 -1.5,1.5c0,0.916 0,2.084 0,3c0,0.828 0.672,1.5 1.5,1.5c0.828,0 1.5,-0.672 1.5,-1.5c0,-0.916 0,-2.084 0,-3Z"/><path d="M23,10c0,0 -2.541,0 -4,0c-0.265,0 -0.52,0.105 -0.707,0.293c-0.188,0.187 -0.293,0.442 -0.293,0.707c0,0.552 0.448,1 1,1c0.5,0 1,0 1,0c0,0 0,0.751 0,1.502c0,0.397 0.158,0.778 0.439,1.059c0.281,0.281 0.662,0.439 1.059,0.439c0.001,0 0.003,0 0.004,0c0.827,0 1.498,-0.671 1.498,-1.498c0,-1.473 0,-3.502 0,-3.502Z"/><path d="M17.467,17.001l0.124,0.005l0.123,0.008l0.123,0.01l0.123,0.014l0.121,0.017l0.122,0.019l0.12,0.023l0.12,0.025l0.119,0.029l0.118,0.031l0.117,0.034l0.117,0.037l0.115,0.04l0.114,0.042l0.114,0.046l0.112,0.048l0.111,0.05l0.109,0.054l0.109,0.056l0.107,0.059l0.105,0.061l0.104,0.064l0.103,0.067l0.101,0.069l0.1,0.072l0.098,0.074l0.096,0.077l0.094,0.08l0.093,0.081l0.091,0.085l0.084,0.082l0.833,0.833l0.041,0.043l0.038,0.045l0.035,0.048l0.032,0.05l0.03,0.051l0.026,0.053l0.023,0.055l0.02,0.056l0.016,0.057l0.014,0.058l0.009,0.058l0.006,0.059l0.003,0.059l-0.001,0.059l-0.004,0.06l-0.008,0.058l-0.012,0.058l-0.014,0.058l-0.019,0.056l-0.021,0.056l-0.025,0.053l-0.028,0.053l-0.03,0.05l-0.034,0.049l-0.037,0.047l-0.039,0.044l-0.042,0.042l-0.044,0.039l-0.047,0.037l-0.049,0.034l-0.05,0.03l-0.053,0.028l-0.053,0.025l-0.056,0.021l-0.056,0.019l-0.058,0.014l-0.058,0.012l-0.058,0.008l-0.06,0.004l-0.059,0.001l-0.059,-0.003l-0.059,-0.006l-0.058,-0.009l-0.058,-0.014l-0.057,-0.016l-0.056,-0.02l-0.055,-0.023l-0.053,-0.026l-0.051,-0.03l-0.05,-0.032l-0.047,-0.035l-0.046,-0.038l-0.043,-0.041l-0.824,-0.824l-0.058,-0.056l-0.054,-0.051l-0.056,-0.049l-0.057,-0.048l-0.057,-0.046l-0.059,-0.044l-0.06,-0.043l-0.061,-0.042l-0.061,-0.04l-0.063,-0.038l-0.063,-0.037l-0.064,-0.036l-0.065,-0.033l-0.066,-0.032l-0.067,-0.031l-0.067,-0.029l-0.068,-0.027l-0.068,-0.025l-0.07,-0.024l-0.069,-0.022l-0.071,-0.021l-0.071,-0.018l-0.071,-0.017l-0.072,-0.016l-0.072,-0.013l-0.073,-0.012l-0.073,-0.01l-0.073,-0.008l-0.074,-0.007l-0.074,-0.004l-0.074,-0.003l-0.081,-0.001l-5.337,0l-0.059,-0.002l-0.059,-0.005l-0.059,-0.009l-0.058,-0.012l-0.057,-0.016l-0.056,-0.019l-0.055,-0.022l-0.054,-0.025l-0.052,-0.029l-0.05,-0.032l-0.048,-0.034l-0.046,-0.037l-0.044,-0.04l-0.041,-0.043l-0.039,-0.045l-0.035,-0.047l-0.034,-0.049l-0.03,-0.051l-0.027,-0.053l-0.024,-0.054l-0.02,-0.056l-0.018,-0.056l-0.014,-0.058l-0.01,-0.058l-0.007,-0.059l-0.004,-0.059l0,-0.06l0.004,-0.059l0.007,-0.059l0.01,-0.058l0.014,-0.058l0.018,-0.056l0.02,-0.056l0.024,-0.054l0.027,-0.053l0.03,-0.051l0.034,-0.049l0.035,-0.047l0.039,-0.045l0.041,-0.043l0.044,-0.04l0.046,-0.037l0.048,-0.034l0.05,-0.032l0.052,-0.029l0.054,-0.025l0.055,-0.022l0.056,-0.019l0.057,-0.016l0.058,-0.012l0.059,-0.009l0.059,-0.005l0.059,-0.002l5.349,0l0.118,0.001Z" style="fill:#452f18;"/><path d="M8,22c0,0 -0.432,0.216 -0.894,0.447c-0.678,0.339 -1.106,1.032 -1.106,1.789c0,1.357 0,3.509 0,4.764c0,0.265 0.105,0.52 0.293,0.707c0.187,0.188 0.442,0.293 0.707,0.293c0.871,0 2.129,0 3,0c0.552,0 1,-0.448 1,-1c0,-1.185 0,-3 0,-3c0,0 1.815,0 3,0c0.552,0 1,-0.448 1,-1c0,-0.265 -0.105,-0.52 -0.293,-0.707c-0.187,-0.188 -0.442,-0.293 -0.707,-0.293c-1.934,0 -6,0 -6,0l0,-2Z" style="fill:#9a6e42;"/><path d="M10,22l4.025,0l0.124,0.003l0.147,0.011l0.147,0.018l0.145,0.026l0.143,0.032l0.142,0.039l0.139,0.046l0.136,0.053l0.134,0.059l0.131,0.066l0.127,0.072l0.125,0.079l0.12,0.084l0.117,0.091l0.112,0.097l0.108,0.102l0.102,0.108l0.097,0.112l0.091,0.116l0.084,0.121l0.079,0.124l0.072,0.128l0.066,0.131l0.059,0.134l0.053,0.137l0.046,0.138l0.039,0.141l0.032,0.144l0.026,0.145l0.018,0.147l0.011,0.147l0.004,0.15l-0.004,0.151l-0.012,0.152l-0.019,0.15l-0.026,0.149l-0.034,0.145l-0.041,0.143l-0.047,0.141l-0.054,0.137l-0.06,0.133l-0.067,0.129l-0.072,0.126l-0.078,0.122l-0.084,0.117l-0.088,0.113l-0.094,0.109l-0.099,0.104l-0.104,0.098l-0.109,0.095l-0.113,0.089l-0.117,0.083l-0.122,0.078l-0.125,0.072l-0.13,0.067l-0.134,0.06l-0.136,0.054l-0.141,0.047l-0.143,0.041l-0.145,0.034l-0.149,0.026l-0.15,0.019l-0.151,0.012l-0.128,0.003l-1.025,0l0,1.025l-0.003,0.127l-0.012,0.153l-0.019,0.149l-0.026,0.148l-0.034,0.146l-0.041,0.143l-0.047,0.141l-0.054,0.137l-0.06,0.133l-0.067,0.129l-0.072,0.126l-0.078,0.122l-0.084,0.118l-0.088,0.112l-0.094,0.109l-0.099,0.104l-0.104,0.099l-0.108,0.094l-0.114,0.088l-0.117,0.084l-0.122,0.078l-0.125,0.072l-0.13,0.067l-0.133,0.06l-0.137,0.054l-0.141,0.047l-0.143,0.041l-0.146,0.034l-0.148,0.026l-0.15,0.019l-0.151,0.012l-0.128,0.003l-3.05,0l-0.124,-0.003l-0.147,-0.011l-0.147,-0.018l-0.145,-0.026l-0.143,-0.032l-0.142,-0.039l-0.139,-0.046l-0.136,-0.053l-0.134,-0.059l-0.131,-0.066l-0.128,-0.072l-0.124,-0.078l-0.12,-0.085l-0.117,-0.091l-0.112,-0.097l-0.108,-0.102l-0.102,-0.108l-0.097,-0.112l-0.091,-0.117l-0.084,-0.12l-0.079,-0.124l-0.072,-0.128l-0.066,-0.131l-0.059,-0.134l-0.053,-0.136l-0.046,-0.14l-0.039,-0.141l-0.032,-0.143l-0.026,-0.145l-0.018,-0.147l-0.011,-0.147l-0.003,-0.124l0,-4.807l0.002,-0.123l0.008,-0.141l0.012,-0.14l0.017,-0.139l0.022,-0.137l0.027,-0.137l0.031,-0.135l0.036,-0.133l0.04,-0.132l0.045,-0.13l0.049,-0.128l0.053,-0.127l0.058,-0.124l0.061,-0.122l0.066,-0.119l0.07,-0.118l0.074,-0.115l0.078,-0.112l0.081,-0.11l0.086,-0.107l0.089,-0.104l0.092,-0.102l0.097,-0.098l0.1,-0.095l0.103,-0.092l0.107,-0.088l0.11,-0.085l0.113,-0.081l0.117,-0.077l0.119,-0.074l0.123,-0.069l0.109,-0.058l3.805,-1.902l0,3.236Zm-2.894,0.447l-0.063,0.033l-0.062,0.035l-0.059,0.037l-0.058,0.038l-0.057,0.041l-0.055,0.042l-0.053,0.044l-0.052,0.046l-0.05,0.048l-0.048,0.049l-0.046,0.05l-0.045,0.052l-0.043,0.054l-0.04,0.055l-0.039,0.056l-0.037,0.058l-0.035,0.058l-0.033,0.06l-0.031,0.061l-0.029,0.062l-0.027,0.064l-0.024,0.064l-0.022,0.065l-0.021,0.066l-0.017,0.066l-0.016,0.068l-0.013,0.068l-0.011,0.069l-0.009,0.069l-0.006,0.07l-0.004,0.07l-0.001,0.071l0,4.764l0.001,0.05l0.004,0.049l0.006,0.049l0.008,0.048l0.011,0.048l0.013,0.047l0.016,0.046l0.017,0.046l0.02,0.044l0.022,0.044l0.024,0.042l0.026,0.042l0.028,0.04l0.03,0.039l0.033,0.037l0.034,0.036l0.036,0.034l0.037,0.033l0.039,0.03l0.04,0.028l0.042,0.026l0.042,0.024l0.044,0.022l0.044,0.02l0.046,0.017l0.046,0.016l0.047,0.013l0.048,0.011l0.048,0.008l0.049,0.006l0.049,0.004l0.05,0.001l3,0l0.051,-0.001l0.051,-0.004l0.05,-0.007l0.05,-0.008l0.048,-0.011l0.047,-0.014l0.047,-0.016l0.045,-0.018l0.045,-0.02l0.043,-0.022l0.042,-0.024l0.04,-0.026l0.039,-0.028l0.038,-0.029l0.036,-0.032l0.035,-0.033l0.033,-0.035l0.032,-0.036l0.029,-0.038l0.028,-0.039l0.026,-0.04l0.024,-0.042l0.022,-0.043l0.02,-0.045l0.018,-0.045l0.016,-0.047l0.014,-0.047l0.011,-0.048l0.008,-0.05l0.007,-0.05l0.004,-0.051l0.001,-0.051l0,-3l3,0l0.051,-0.001l0.051,-0.004l0.05,-0.007l0.05,-0.008l0.048,-0.011l0.047,-0.014l0.047,-0.016l0.045,-0.018l0.045,-0.02l0.043,-0.022l0.042,-0.024l0.04,-0.026l0.039,-0.028l0.038,-0.029l0.036,-0.032l0.035,-0.033l0.033,-0.035l0.032,-0.036l0.029,-0.038l0.028,-0.039l0.026,-0.04l0.024,-0.042l0.022,-0.043l0.02,-0.045l0.018,-0.045l0.016,-0.047l0.014,-0.047l0.011,-0.048l0.008,-0.05l0.007,-0.05l0.004,-0.051l0.001,-0.051c0,0 -0.001,-0.05 -0.001,-0.05l-0.004,-0.049l-0.006,-0.049l-0.008,-0.048l-0.011,-0.048l-0.013,-0.047l-0.016,-0.046l-0.017,-0.046l-0.02,-0.044l-0.022,-0.044l-0.024,-0.042l-0.026,-0.042l-0.028,-0.04l-0.03,-0.039l-0.033,-0.037l-0.034,-0.036l-0.036,-0.034l-0.037,-0.033l-0.039,-0.03l-0.04,-0.028l-0.042,-0.026l-0.042,-0.024l-0.044,-0.022l-0.044,-0.02l-0.046,-0.017l-0.046,-0.016l-0.047,-0.013l-0.048,-0.011l-0.048,-0.008l-0.049,-0.006l-0.049,-0.004l-0.05,-0.001l-6,0l0,-2l-0.894,0.447Z"/></g></g></svg>