<?xml version="1.0" encoding="UTF-8"?>
<!DOCTYPE svg  PUBLIC '-//W3C//DTD SVG 1.1//EN'  'http://www.w3.org/Graphics/SVG/1.1/DTD/svg11.dtd'>
<svg clip-rule="evenodd" fill-rule="evenodd" stroke-linecap="round" stroke-linejoin="round" stroke-miterlimit="1.5" version="1.1" viewBox="0 0 32 32" xml:space="preserve" xmlns="http://www.w3.org/2000/svg">
<metadata>
<rdf:RDF xmlns:cc="http://web.resource.org/cc/" xmlns:dc="http://purl.org/dc/elements/1.1/" xmlns:rdf="http://www.w3.org/1999/02/22-rdf-syntax-ns#">

     <rdf:Description rdf:about="">
       <dc:title>Mutant Standard S3</dc:title>
     </rdf:Description>

    <cc:work rdf:about="">
        <cc:license rdf:resource="http://creativecommons.org/licenses/by-nc-sa/4.0/"/>
        <cc:attributionName>Dzuk</cc:attributionName>
        <cc:attributionURL>http://mutant.tech/</cc:attributionURL>
    </cc:work>

</rdf:RDF>
</metadata>
<rect id="thinktink" width="32" height="32" fill="none"/><g id="outline"><path d="m15.934 1e-3 0.16 3e-3 0.159 4e-3 0.159 7e-3 0.159 8e-3 0.158 0.01 0.158 0.012 0.158 0.013 0.157 0.016 0.157 0.017 0.156 0.019 0.155 0.021 0.155 0.022 0.155 0.024 0.154 0.026 0.154 0.028 0.153 0.029 0.152 0.031 0.152 0.033 0.151 0.034 0.151 0.036 0.15 0.038 0.15 0.039 0.149 0.041 0.148 0.043 0.147 0.044 0.147 0.046 0.146 0.047 0.146 0.049 0.144 0.051 0.145 0.052 0.143 0.054 0.142 0.055 0.142 0.057 0.141 0.058 0.141 0.06 0.139 0.061 0.139 0.063 0.138 0.064 0.137 0.066 0.136 0.067 0.135 0.069 0.135 0.07 0.134 0.072 0.132 0.073 0.132 0.074 0.131 0.076 0.131 0.078 0.129 0.078 0.128 0.08 0.127 0.082 0.127 0.083 0.125 0.084 0.125 0.085 0.123 0.087 0.123 0.088 0.121 0.09 0.121 0.091 0.119 0.092 0.119 0.093 0.117 0.095 0.116 0.096 0.116 0.097 0.114 0.098 0.113 0.1 0.112 0.101 0.111 0.102 0.11 0.104 0.109 0.104 0.107 0.106 0.107 0.107 0.105 0.108 0.104 0.109 0.103 0.111 0.102 0.111 0.1 0.113 0.099 0.114 0.098 0.115 0.097 0.116 0.096 0.117 0.094 0.119 0.093 0.119 0.092 0.121 0.091 0.121 0.089 0.123 0.088 0.124 0.086 0.124 0.086 0.126 0.084 0.127 0.082 0.128 0.081 0.129 0.08 0.129 0.079 0.131 0.077 0.132 0.15 0.266 0.072 0.135 0.072 0.136 0.07 0.136 0.068 0.138 0.067 0.138 0.065 0.139 0.064 0.14 0.063 0.141 0.061 0.142 0.059 0.143 0.058 0.143 0.056 0.145 0.055 0.145 0.053 0.146 0.052 0.147 0.049 0.147 0.049 0.149 0.092 0.298 0.043 0.151 0.042 0.152 0.04 0.152 0.038 0.152 0.037 0.154 0.035 0.154 0.033 0.155 0.032 0.155 0.03 0.157 0.028 0.156 0.026 0.158 0.025 0.158 0.022 0.153 1.194 8.656 0.015 0.116 0.013 0.124 0.012 0.124 9e-3 0.125 7e-3 0.124 5e-3 0.124 3e-3 0.124v0.123l-1e-3 0.124-4e-3 0.123-6e-3 0.123-9e-3 0.122-0.01 0.123-0.012 0.121-0.015 0.122-0.017 0.121-0.018 0.12-0.021 0.121-0.023 0.119-0.025 0.119-0.027 0.119-0.029 0.118-0.031 0.117-0.033 0.117-0.035 0.116-0.037 0.115-0.039 0.115-0.041 0.113-0.043 0.114-0.045 0.112-0.047 0.111-0.048 0.111-0.051 0.11-0.052 0.109-0.055 0.108-0.056 0.107-0.058 0.106-0.06 0.106-0.062 0.104-0.063 0.103-0.066 0.102-0.067 0.101-0.069 0.1-0.071 0.099-0.072 0.097-0.074 0.097-0.076 0.095-0.078 0.094-0.08 0.093-0.081 0.091-0.083 0.09-0.085 0.089-0.086 0.088-0.088 0.086-0.089 0.084-0.092 0.083-0.092 0.082-0.095 0.08-0.096 0.079-0.098 0.077-0.099 0.075-0.1 0.074-0.103 0.072-0.103 0.071-0.105 0.068-0.106 0.067-0.107 0.065-0.108 0.062-0.109 0.061-0.109 0.058-0.111 0.056-0.111 0.055-0.111 0.052-0.113 0.05-0.113 0.048-0.114 0.046-0.115 0.044-0.115 0.042-0.115 0.04-0.117 0.038-0.116 0.036-0.117 0.033-0.118 0.032-0.118 0.029-0.118 0.027-0.119 0.026-0.119 0.023-0.12 0.021-0.119 0.019-0.12 0.017-0.121 0.015-0.12 0.013-0.12 0.01-0.121 9e-3 -0.121 7e-3 -0.121 4e-3 -0.121 2e-3 -0.12 1e-3 -0.121-2e-3 -0.121-4e-3 -0.121-6e-3 -0.121-8e-3 -0.121-0.01-0.12-0.013-0.121-0.014-0.12-0.016-0.12-0.019-0.12-0.021-0.119-0.022-0.119-0.025-0.119-0.027-0.119-0.029-0.118-0.031-0.118-0.034-0.117-0.035-0.117-0.037-0.116-0.04-0.116-0.042-0.115-0.043-0.114-0.046-0.114-0.048-0.114-0.05-0.112-0.052-0.112-0.055-0.111-0.056-0.111-0.059-0.109-0.06-0.101-0.058-4.685-2.756-0.085-0.049-0.079-0.044-0.08-0.044-0.08-0.042-0.08-0.041-0.081-0.04-0.082-0.039-0.164-0.074-0.083-0.035-0.083-0.034-0.083-0.033-0.084-0.032-0.084-0.031-0.085-0.03-0.17-0.056-0.085-0.026-0.086-0.025-0.086-0.024-0.086-0.022-0.087-0.022-0.087-0.02-0.174-0.038-0.087-0.016-0.088-0.016-0.088-0.015-0.088-0.013-0.176-0.024-0.089-9e-3 -0.088-9e-3 -0.089-8e-3 -0.089-6e-3 -0.089-5e-3 -0.088-4e-3 -0.089-3e-3 -0.09-2e-3h-0.089-0.089l-0.089 2e-3 -0.089 3e-3 -0.089 4e-3 -0.178 0.012-0.089 8e-3 -0.089 9e-3 -0.089 0.01-0.178 0.024-0.088 0.014-0.089 0.015-0.088 0.016-0.088 0.017-0.089 0.019-0.088 0.02-0.087 0.02-0.088 0.023-0.087 0.023-0.174 0.05-0.087 0.027-0.093 0.031-0.505 0.168-0.14 0.045-0.153 0.044-0.153 0.041-0.154 0.037-0.155 0.033-0.155 0.029-0.156 0.026-0.156 0.021-0.156 0.018-0.157 0.013-0.157 0.01-0.156 6e-3 -0.157 3e-3 -0.157-2e-3 -0.157-5e-3 -0.156-9e-3 -0.156-0.013-0.156-0.017-0.155-0.021-0.155-0.024-0.155-0.029-0.153-0.032-0.153-0.035-0.153-0.04-0.151-0.043-0.151-0.047-0.149-0.051-0.149-0.055-0.147-0.058-0.146-0.062-0.145-0.066-0.133-0.065-0.019-9e-3 -0.072-0.037-0.078-0.04-0.078-0.042-0.077-0.043-0.076-0.043-0.076-0.044-0.075-0.045-0.074-0.046-0.074-0.047-0.078-0.051-0.139-0.093-0.141-0.101-0.138-0.103-0.135-0.106-0.133-0.109-0.129-0.111-0.127-0.115-0.123-0.117-0.121-0.119-0.117-0.122-0.114-0.125-0.112-0.127-0.108-0.129-0.104-0.131-0.102-0.133-0.099-0.136-0.095-0.137-0.092-0.14-0.088-0.141-0.086-0.143-0.082-0.145-0.078-0.147-0.075-0.148-0.072-0.15-0.069-0.151-0.065-0.153-0.061-0.155-0.058-0.155-0.055-0.157-0.05-0.158-0.048-0.159-0.044-0.161-0.04-0.161-0.037-0.163-0.032-0.163-0.03-0.164-0.025-0.165-0.022-0.166-0.018-0.166-0.014-0.168-0.011-0.167-6e-3 -0.169-3e-3 -0.168 1e-3 -0.169 5e-3 -0.169 9e-3 -0.17 0.013-0.169 0.017-0.17 0.021-0.17 0.025-0.17 0.029-0.169 0.033-0.169 0.037-0.169 0.04-0.163 0.024-0.09 0.023-0.084 0.024-0.084 0.026-0.084 0.026-0.083 0.027-0.083 0.029-0.084 0.029-0.083 0.031-0.083 0.029-0.077 2.421-6.223 0.045-0.116 0.098-0.238 0.051-0.118 0.051-0.117 0.053-0.117 0.053-0.116 0.055-0.115 0.056-0.115 0.114-0.228 0.059-0.112 0.06-0.112 0.061-0.112 0.061-0.11 0.063-0.11 0.064-0.109 0.065-0.109 0.065-0.107 0.134-0.214 0.138-0.21 0.071-0.104 0.071-0.103 0.072-0.103 0.073-0.102 0.074-0.101 0.075-0.1 0.152-0.198 0.078-0.098 0.078-0.097 0.079-0.096 0.08-0.096 0.081-0.095 0.164-0.186 0.084-0.093 0.084-0.091 0.085-0.091 0.085-0.089 0.087-0.089 0.087-0.088 0.088-0.087 0.089-0.087 0.18-0.17 0.091-0.084 0.092-0.082 0.186-0.164 0.094-0.08 0.095-0.079 0.096-0.079 0.096-0.077 0.097-0.077 0.097-0.075 0.099-0.075 0.099-0.074 0.099-0.073 0.101-0.072 0.202-0.142 0.102-0.069 0.103-0.068 0.208-0.134 0.21-0.13 0.212-0.126 0.108-0.061 0.107-0.061 0.109-0.06 0.218-0.116 0.22-0.112 0.112-0.055 0.111-0.053 0.112-0.053 0.226-0.102 0.228-0.098 0.115-0.047 0.115-0.046 0.116-0.046 0.116-0.044 0.116-0.043 0.118-0.042 0.117-0.041 0.118-0.04 0.119-0.039 0.118-0.038 0.12-0.037 0.119-0.035 0.121-0.035 0.12-0.033 0.121-0.033 0.121-0.031 0.122-0.03 0.122-0.029 0.123-0.028 0.122-0.026 0.124-0.026 0.123-0.024 0.124-0.024 0.124-0.022 0.125-0.021 0.125-0.02 0.25-0.036 0.126-0.016 0.126-0.015 0.126-0.014 0.127-0.013 0.254-0.022 0.127-9e-3 0.128-8e-3 0.128-7e-3 0.128-5e-3 0.128-4e-3 0.129-4e-3 0.128-1e-3 0.125-1e-3h0.011l0.155 1e-3zm-0.252 3.999-0.091 2e-3 -0.09 2e-3 -0.09 3e-3 -0.09 4e-3 -0.089 5e-3 -0.09 5e-3 -0.178 0.014-0.089 8e-3 -0.089 9e-3 -0.088 0.01-0.089 0.01-0.176 0.024-0.087 0.013-0.088 0.014-0.087 0.014-0.087 0.016-0.086 0.016-0.087 0.017-0.086 0.018-0.172 0.038-0.085 0.021-0.086 0.021-0.084 0.022-0.085 0.022-0.084 0.024-0.085 0.024-0.083 0.025-0.084 0.025-0.166 0.054-0.083 0.028-0.164 0.058-0.082 0.031-0.162 0.062-0.081 0.033-0.08 0.033-0.08 0.034-0.08 0.035-0.079 0.035-0.079 0.036-0.079 0.037-0.156 0.076-0.154 0.078-0.077 0.041-0.076 0.041-0.152 0.084-0.075 0.043-0.074 0.044-0.075 0.045-0.074 0.045-0.146 0.092-0.073 0.048-0.072 0.047-0.071 0.049-0.072 0.049-0.07 0.05-0.071 0.051-0.07 0.051-0.138 0.104-0.068 0.053-0.136 0.108-0.067 0.055-0.132 0.112-0.066 0.057-0.064 0.057-0.065 0.058-0.064 0.059-0.063 0.059-0.063 0.06-0.124 0.122-0.122 0.124-0.06 0.063-0.059 0.063-0.059 0.064-0.059 0.065-0.057 0.065-0.058 0.066-0.056 0.066-0.112 0.134-0.054 0.068-0.055 0.069-0.106 0.138-0.053 0.071-0.051 0.07-0.052 0.071-0.05 0.072-0.05 0.073-0.049 0.072-0.049 0.074-0.048 0.074-0.047 0.074-0.047 0.075-0.046 0.075-0.045 0.076-0.045 0.077-0.043 0.077-0.044 0.077-0.084 0.156-0.041 0.079-0.041 0.08-0.04 0.08-0.039 0.08-0.076 0.162-0.036 0.082-0.037 0.083-0.035 0.082-0.035 0.084-0.034 0.084-0.035 0.088-2.412 6.204-0.017 0.044-0.028 0.076-0.013 0.038-0.012 0.039-0.013 0.038-0.011 0.038-0.011 0.039-0.011 0.038-8e-3 0.033-0.021 0.082-0.017 0.077-0.015 0.077-0.013 0.077-0.011 0.077-0.01 0.077-7e-3 0.077-6e-3 0.076-4e-3 0.077-3e-3 0.077v0.077l1e-3 0.076 3e-3 0.077 5e-3 0.076 6e-3 0.076 9e-3 0.075 0.01 0.076 0.011 0.075 0.014 0.075 0.015 0.075 0.016 0.074 0.019 0.074 0.02 0.073 0.021 0.073 0.024 0.072 0.025 0.072 0.026 0.071 0.028 0.071 0.03 0.069 0.031 0.07 0.033 0.068 0.035 0.068 0.035 0.067 0.038 0.066 0.039 0.066 0.04 0.064 0.042 0.063 0.043 0.063 0.045 0.062 0.094 0.12 0.049 0.059 0.102 0.114 0.054 0.055 0.054 0.054 0.056 0.053 0.058 0.052 0.058 0.051 0.06 0.049 0.062 0.048 0.063 0.047 0.064 0.046 0.07 0.047 0.028 0.019 0.068 0.042 0.034 0.02 0.035 0.021 0.035 0.02 0.035 0.019 0.072 0.038 0.032 0.016 0.061 0.03 0.054 0.025 0.056 0.023 0.055 0.022 0.056 0.021 0.057 0.019 0.056 0.018 0.057 0.016 0.058 0.015 0.058 0.013 0.058 0.012 0.058 0.011 0.058 9e-3 0.059 8e-3 0.059 6e-3 0.059 5e-3 0.059 4e-3 0.059 2e-3h0.059 0.059l0.059-3e-3 0.059-4e-3 0.059-5e-3 0.059-6e-3 0.059-8e-3 0.059-0.01 0.058-0.011 0.059-0.012 0.058-0.014 0.058-0.016 0.058-0.017 0.069-0.022 0.494-0.164 0.131-0.043 0.139-0.043 0.138-0.041 0.139-0.04 0.14-0.037 0.139-0.035 0.14-0.034 0.141-0.031 0.14-0.03 0.141-0.027 0.141-0.026 0.141-0.024 0.142-0.022 0.141-0.02 0.142-0.018 0.142-0.016 0.142-0.014 0.142-0.013 0.142-0.01 0.142-9e-3 0.142-7e-3 0.142-5e-3 0.143-3e-3 0.142-1e-3 0.142 1e-3 0.142 3e-3 0.142 4e-3 0.142 7e-3 0.141 8e-3 0.142 0.01 0.141 0.013 0.142 0.013 0.141 0.016 0.14 0.018 0.141 0.019 0.14 0.022 0.14 0.023 0.14 0.025 0.14 0.027 0.139 0.029 0.139 0.031 0.138 0.032 0.138 0.035 0.138 0.036 0.137 0.038 0.137 0.04 0.136 0.042 0.136 0.043 0.135 0.046 0.135 0.047 0.134 0.049 0.134 0.051 0.133 0.053 0.133 0.054 0.132 0.057 0.131 0.058 0.131 0.06 0.13 0.062 0.129 0.063 0.129 0.066 0.127 0.067 0.127 0.069 0.127 0.071 0.119 0.069 4.681 2.754 0.055 0.031 0.047 0.026 0.048 0.026 0.047 0.024 0.048 0.023 0.048 0.022 0.049 0.022 0.098 0.04 0.049 0.019 0.05 0.018 0.049 0.016 0.1 0.032 0.051 0.014 0.05 0.013 0.051 0.013 0.102 0.022 0.102 0.018 0.052 8e-3 0.051 7e-3 0.104 0.012 0.051 4e-3 0.052 4e-3 0.104 4e-3 0.052 1e-3 0.156-3e-3 0.051-3e-3 0.052-4e-3 0.104-0.01 0.051-6e-3 0.051-8e-3 0.052-8e-3 0.051-9e-3 0.051-0.01 0.102-0.022 0.05-0.013 0.051-0.014 0.05-0.014 0.05-0.015 0.049-0.016 0.05-0.017 0.049-0.018 0.049-0.019 0.049-0.02 0.048-0.02 0.096-0.044 0.048-0.023 0.094-0.05 0.046-0.026 0.047-0.026 0.046-0.028 0.09-0.058 0.045-0.031 0.044-0.031 0.043-0.031 0.043-0.033 0.042-0.033 0.041-0.034 0.04-0.034 0.04-0.035 0.039-0.035 0.038-0.037 0.038-0.036 0.037-0.038 0.072-0.076 0.034-0.039 0.068-0.08 0.064-0.082 0.031-0.042 0.03-0.043 0.03-0.042 0.029-0.044 0.028-0.043 0.027-0.045 0.027-0.044 0.025-0.046 0.025-0.045 0.048-0.092 0.044-0.094 0.021-0.048 0.02-0.048 0.038-0.096 0.034-0.098 0.016-0.05 0.015-0.05 0.014-0.05 0.013-0.05 0.013-0.051 0.011-0.05 0.011-0.051 0.01-0.051 9e-3 -0.052 8e-3 -0.051 7e-3 -0.052 6e-3 -0.052 5e-3 -0.052 5e-3 -0.053 3e-3 -0.052 3e-3 -0.053 1e-3 -0.052 1e-3 -0.053v-0.053l-1e-3 -0.053-2e-3 -0.053-3e-3 -0.053-4e-3 -0.054-5e-3 -0.053-6e-3 -0.054-8e-3 -0.062-1.19-8.627-0.017-0.119-0.018-0.112-0.018-0.113-0.02-0.111-0.022-0.111-0.022-0.11-0.024-0.11-0.025-0.11-0.026-0.109-0.027-0.108-0.028-0.108-0.03-0.107-0.031-0.106-0.032-0.107-0.033-0.105-0.034-0.105-0.035-0.105-0.037-0.104-0.037-0.103-0.039-0.103-0.04-0.102-0.041-0.101-0.042-0.101-0.043-0.101-0.044-0.099-0.045-0.099-0.046-0.099-0.048-0.098-0.048-0.097-0.05-0.097-0.05-0.095-0.052-0.096-0.052-0.094-0.108-0.188-0.112-0.184-0.116-0.182-0.06-0.09-0.06-0.089-0.061-0.088-0.063-0.088-0.063-0.087-0.064-0.086-0.065-0.085-0.066-0.085-0.067-0.084-0.068-0.083-0.138-0.164-0.071-0.081-0.071-0.08-0.072-0.079-0.073-0.078-0.074-0.078-0.075-0.077-0.075-0.076-0.076-0.075-0.078-0.074-0.156-0.146-0.16-0.142-0.081-0.07-0.082-0.069-0.083-0.068-0.083-0.067-0.084-0.067-0.085-0.065-0.085-0.064-0.087-0.064-0.174-0.124-0.088-0.061-0.089-0.059-0.09-0.059-0.09-0.058-0.091-0.057-0.092-0.056-0.092-0.054-0.093-0.054-0.094-0.053-0.094-0.052-0.19-0.1-0.096-0.049-0.096-0.048-0.098-0.046-0.097-0.046-0.098-0.044-0.099-0.044-0.099-0.042-0.1-0.041-0.101-0.041-0.101-0.039-0.101-0.038-0.102-0.037-0.102-0.035-0.103-0.035-0.104-0.034-0.104-0.032-0.104-0.031-0.105-0.03-0.105-0.029-0.106-0.028-0.106-0.027-0.214-0.05-0.107-0.023-0.108-0.022-0.108-0.02-0.109-0.02-0.109-0.018-0.11-0.017-0.109-0.016-0.111-0.015-0.11-0.013-0.111-0.013-0.224-0.02-0.112-9e-3 -0.112-7e-3 -0.113-6e-3 -0.113-4e-3 -0.114-3e-3 -0.113-2e-3 -0.116-1e-3h-0.09z"/></g><g id="emoji"><path d="m27.397 12.131c-0.8-5.806-5.763-10.131-11.624-10.131h-1e-3c-4.685 0-8.891 2.877-10.589 7.244-0.816 2.099-1.684 4.331-2.417 6.214-1.001 2.574 0.123 5.486 2.593 6.722h2e-3c1.049 0.525 2.264 0.612 3.377 0.241 0.162-0.054 0.329-0.11 0.5-0.167 2.39-0.797 5.008-0.521 7.18 0.757 1.369 0.805 3.016 1.774 4.683 2.754 1.652 0.972 3.714 0.914 5.309-0.149 1.595-1.064 2.441-2.945 2.179-4.843-0.386-2.805-0.806-5.843-1.192-8.642z" fill="#fbc546"/><clipPath id="_clip1"><path d="m27.397 12.131c-0.8-5.806-5.763-10.131-11.624-10.131h-1e-3c-4.685 0-8.891 2.877-10.589 7.244-0.816 2.099-1.684 4.331-2.417 6.214-1.001 2.574 0.123 5.486 2.593 6.722h2e-3c1.049 0.525 2.264 0.612 3.377 0.241 0.162-0.054 0.329-0.11 0.5-0.167 2.39-0.797 5.008-0.521 7.18 0.757 1.369 0.805 3.016 1.774 4.683 2.754 1.652 0.972 3.714 0.914 5.309-0.149 1.595-1.064 2.441-2.945 2.179-4.843-0.386-2.805-0.806-5.843-1.192-8.642z"/></clipPath><g clip-path="url(#_clip1)"><path d="m17 20s-1.983-1.416-3.838-2.741c-0.609-0.436-1.411-0.494-2.077-0.151s-1.085 1.029-1.085 1.778v8.114c0 0.552 0.448 1 1 1h3c0.265 0 0.52-0.105 0.707-0.293 0.188-0.187 0.293-0.442 0.293-0.707v-1h8s-3.011-3.614-4.36-5.232c-0.406-0.487-1.006-0.768-1.64-0.768z" fill="#e59a10"/></g><path d="m9 10 3-3" fill="none" stroke="#000" stroke-width="2px"/><path d="m24 11-3-3" fill="none" stroke="#000" stroke-width="2px"/><path d="m11.066 12.002 0.059 6e-3 0.059 9e-3 0.058 0.013 0.057 0.016 0.056 0.019 0.054 0.023 0.054 0.026 0.052 0.029 2.689 1.613 0.054 0.032 0.049 0.028 0.05 0.026 0.051 0.026 0.05 0.025 0.051 0.024 0.052 0.023 0.051 0.022 0.104 0.04 0.053 0.019 0.053 0.018 0.052 0.016 0.054 0.016 0.053 0.015 0.054 0.013 0.053 0.013 0.054 0.012 0.108 0.02 0.055 9e-3 0.054 8e-3 0.055 6e-3 0.054 6e-3 0.055 5e-3 0.055 3e-3 0.054 3e-3 0.055 2e-3h0.055 0.055l0.054-1e-3 0.11-6e-3 0.055-4e-3 0.108-0.012 0.055-7e-3 0.108-0.018 0.054-0.01 0.054-0.011 0.053-0.013 0.054-0.013 0.053-0.014 0.053-0.015 0.052-0.017 0.053-0.017 0.052-0.018 0.052-0.019 0.051-0.02 0.051-0.021 0.051-0.022 0.051-0.023 0.05-0.024 0.05-0.025 0.05-0.026 0.049-0.027 0.048-0.028 0.049-0.029 0.048-0.03 0.047-0.031 0.047-0.032 0.047-0.033 0.049-0.037 1.845-1.383 0.048-0.034 0.051-0.031 0.052-0.029 0.054-0.025 0.055-0.021 0.056-0.019 0.057-0.015 0.059-0.012 0.058-8e-3 0.059-5e-3 0.06-1e-3 0.059 2e-3 0.059 6e-3 0.058 9e-3 0.058 0.013 0.057 0.016 0.056 0.02 0.055 0.022 0.053 0.026 0.052 0.029 0.05 0.032 0.048 0.035 0.045 0.038 0.044 0.04 0.041 0.043 0.038 0.046 0.035 0.047 0.033 0.049 0.03 0.052 0.026 0.053 0.024 0.054 0.02 0.056 0.017 0.057 0.013 0.057 0.01 0.059 7e-3 0.059 3e-3 0.059-1e-3 0.059-4e-3 0.059-7e-3 0.059-0.011 0.058-0.015 0.058-0.017 0.056-0.022 0.056-0.024 0.054-0.027 0.052-0.031 0.051-0.034 0.049-0.036 0.047-0.039 0.044-0.042 0.042-0.044 0.04-0.046 0.037-1.852 1.389-0.073 0.054-0.077 0.054-0.078 0.053-0.079 0.052-0.08 0.05-0.081 0.048-0.081 0.047-0.082 0.045-0.083 0.043-0.083 0.042-0.084 0.04-0.084 0.038-0.085 0.037-0.086 0.035-0.086 0.034-0.086 0.032-0.087 0.03-0.087 0.029-0.088 0.027-0.088 0.025-0.089 0.024-0.089 0.022-0.089 0.02-0.09 0.019-0.09 0.017-0.09 0.016-0.18 0.026-0.091 0.01-0.091 9e-3 -0.091 7e-3 -0.091 6e-3 -0.091 4e-3 -0.091 2e-3h-0.091l-0.092-1e-3 -0.091-3e-3 -0.091-4e-3 -0.091-6e-3 -0.091-8e-3 -0.091-9e-3 -0.182-0.024-0.09-0.015-0.091-0.016-0.09-0.018-0.09-0.019-0.089-0.021-0.09-0.023-0.089-0.025-0.088-0.026-0.089-0.028-0.088-0.03-0.087-0.031-0.087-0.033-0.087-0.034-0.086-0.037-0.086-0.038-0.085-0.039-0.084-0.042-0.084-0.043-0.083-0.045-0.083-0.046-0.078-0.046-2.697-1.619-0.05-0.031-0.048-0.035-0.046-0.038-0.044-0.04-0.04-0.043-0.039-0.045-0.036-0.048-0.032-0.049-0.03-0.051-0.027-0.053-0.023-0.055-0.021-0.055-0.016-0.057-0.014-0.058-0.01-0.058-7e-3 -0.059-3e-3 -0.059 1e-3 -0.06 4e-3 -0.059 7e-3 -0.059 0.011-0.058 0.014-0.057 0.018-0.057 0.021-0.055 0.024-0.054 0.028-0.053 0.03-0.051 0.034-0.049 0.036-0.046 0.039-0.045 0.041-0.042 0.044-0.04 0.047-0.037 0.048-0.034 0.05-0.032 0.053-0.028 0.053-0.025 0.055-0.022 0.057-0.018 0.057-0.016 0.058-0.011 0.059-9e-3 0.059-5e-3 0.059-1e-3 0.059 2e-3z" fill="#593604"/></g><path d="m10 19-0.894 0.447c-0.678 0.339-1.106 1.032-1.106 1.789v4.764c0 0.265 0.105 0.52 0.293 0.707 0.187 0.188 0.442 0.293 0.707 0.293h3c0.552 0 1-0.448 1-1v-3h3c0.552 0 1-0.448 1-1 0-0.265-0.105-0.52-0.293-0.707-0.187-0.188-0.442-0.293-0.707-0.293h-6v-2z" fill="#fbc546"/><path d="m12 19h4.025l0.124 3e-3 0.147 0.011 0.147 0.018 0.145 0.026 0.143 0.032 0.142 0.039 0.139 0.046 0.136 0.053 0.134 0.059 0.131 0.066 0.128 0.072 0.124 0.079 0.12 0.084 0.117 0.091 0.112 0.097 0.108 0.102 0.102 0.108 0.097 0.112 0.091 0.117 0.084 0.12 0.079 0.124 0.072 0.128 0.066 0.131 0.059 0.134 0.053 0.136 0.046 0.139 0.039 0.142 0.032 0.143 0.026 0.145 0.018 0.147 0.011 0.147 3e-3 0.124v0.05l-3e-3 0.128-0.012 0.151-0.019 0.15-0.026 0.149-0.034 0.145-0.041 0.143-0.047 0.141-0.054 0.136-0.06 0.134-0.067 0.13-0.072 0.125-0.078 0.122-0.084 0.117-0.088 0.113-0.094 0.109-0.099 0.104-0.104 0.099-0.109 0.094-0.113 0.089-0.117 0.083-0.122 0.078-0.125 0.072-0.13 0.067-0.133 0.06-0.137 0.054-0.141 0.047-0.143 0.041-0.145 0.034-0.149 0.026-0.15 0.019-0.151 0.012-0.128 3e-3h-1.025v1.025l-3e-3 0.128-0.012 0.151-0.019 0.15-0.026 0.148-0.034 0.146-0.041 0.143-0.047 0.141-0.054 0.137-0.06 0.133-0.067 0.129-0.072 0.126-0.078 0.122-0.084 0.117-0.088 0.113-0.094 0.109-0.099 0.104-0.104 0.099-0.109 0.094-0.113 0.089-0.117 0.083-0.122 0.078-0.125 0.072-0.13 0.067-0.134 0.06-0.136 0.054-0.141 0.047-0.143 0.041-0.146 0.034-0.148 0.026-0.15 0.019-0.151 0.012-0.128 3e-3h-3.05l-0.124-3e-3 -0.147-0.011-0.147-0.018-0.145-0.026-0.143-0.032-0.142-0.039-0.139-0.046-0.136-0.053-0.134-0.059-0.131-0.066-0.128-0.072-0.124-0.079-0.12-0.084-0.117-0.091-0.112-0.097-0.108-0.102-0.102-0.108-0.097-0.112-0.091-0.117-0.084-0.12-0.079-0.124-0.072-0.128-0.066-0.131-0.059-0.134-0.053-0.136-0.046-0.139-0.039-0.142-0.032-0.143-0.026-0.145-0.018-0.147-0.011-0.147-3e-3 -0.124v-4.807l2e-3 -0.123 8e-3 -0.141 0.012-0.14 0.017-0.139 0.022-0.137 0.027-0.137 0.031-0.135 0.036-0.133 0.04-0.132 0.045-0.13 0.049-0.128 0.053-0.127 0.058-0.124 0.061-0.122 0.066-0.119 0.07-0.118 0.074-0.115 0.078-0.113 0.081-0.109 0.086-0.107 0.089-0.105 0.092-0.101 0.097-0.098 0.1-0.095 0.103-0.092 0.107-0.088 0.11-0.085 0.113-0.081 0.117-0.077 0.119-0.074 0.123-0.069 0.109-0.058 3.805-1.902v3.236zm-2.894 0.447-0.063 0.033-0.062 0.035-0.059 0.037-0.058 0.038-0.057 0.041-0.055 0.042-0.053 0.044-0.052 0.046-0.05 0.048-0.048 0.049-0.046 0.05-0.045 0.052-0.043 0.054-0.04 0.055-0.039 0.056-0.037 0.058-0.035 0.058-0.033 0.06-0.031 0.061-0.029 0.062-0.027 0.064-0.024 0.064-0.022 0.065-0.021 0.066-0.017 0.066-0.016 0.068-0.013 0.068-0.011 0.069-9e-3 0.069-6e-3 0.07-4e-3 0.07-1e-3 0.071v4.764l1e-3 0.05 4e-3 0.049 6e-3 0.049 8e-3 0.048 0.011 0.048 0.013 0.047 0.016 0.046 0.017 0.046 0.02 0.044 0.022 0.044 0.024 0.042 0.026 0.042 0.028 0.04 0.03 0.039 0.033 0.037 0.034 0.036 0.036 0.034 0.037 0.033 0.039 0.03 0.04 0.028 0.042 0.026 0.042 0.024 0.044 0.022 0.044 0.02 0.046 0.017 0.046 0.016 0.047 0.013 0.048 0.011 0.048 8e-3 0.049 6e-3 0.049 4e-3 0.05 1e-3h3l0.051-1e-3 0.051-4e-3 0.05-7e-3 0.05-8e-3 0.048-0.011 0.047-0.014 0.047-0.016 0.045-0.018 0.045-0.02 0.043-0.022 0.042-0.024 0.04-0.026 0.039-0.028 0.038-0.029 0.036-0.032 0.035-0.033 0.033-0.035 0.032-0.036 0.029-0.038 0.028-0.039 0.026-0.04 0.024-0.042 0.022-0.043 0.02-0.045 0.018-0.045 0.016-0.047 0.014-0.047 0.011-0.048 8e-3 -0.05 7e-3 -0.05 4e-3 -0.051 1e-3 -0.051v-3h3l0.051-1e-3 0.051-4e-3 0.05-7e-3 0.05-8e-3 0.048-0.011 0.047-0.014 0.047-0.016 0.045-0.018 0.045-0.02 0.043-0.022 0.042-0.024 0.04-0.026 0.039-0.028 0.038-0.029 0.036-0.032 0.035-0.033 0.033-0.035 0.032-0.036 0.029-0.038 0.028-0.039 0.026-0.04 0.024-0.042 0.022-0.043 0.02-0.045 0.018-0.045 0.016-0.047 0.014-0.047 0.011-0.048 8e-3 -0.05 7e-3 -0.05 4e-3 -0.051 1e-3 -0.051-1e-3 -0.05-4e-3 -0.049-6e-3 -0.049-8e-3 -0.048-0.011-0.048-0.013-0.047-0.016-0.046-0.017-0.046-0.02-0.044-0.022-0.044-0.024-0.042-0.026-0.042-0.028-0.04-0.03-0.039-0.033-0.037-0.034-0.036-0.036-0.034-0.037-0.033-0.039-0.03-0.04-0.028-0.042-0.026-0.042-0.024-0.044-0.022-0.044-0.02-0.046-0.017-0.046-0.016-0.047-0.013-0.048-0.011-0.048-8e-3 -0.049-6e-3 -0.049-4e-3 -0.05-1e-3h-6v-2l-0.894 0.447z"/></svg>
