<?xml version="1.0" encoding="UTF-8"?>
<!DOCTYPE svg  PUBLIC '-//W3C//DTD SVG 1.1//EN'  'http://www.w3.org/Graphics/SVG/1.1/DTD/svg11.dtd'>
<svg clip-rule="evenodd" fill-rule="evenodd" stroke-linecap="round" stroke-linejoin="round" stroke-miterlimit="1.5" version="1.1" viewBox="0 0 32 32" xml:space="preserve" xmlns="http://www.w3.org/2000/svg">
<metadata>
<rdf:RDF xmlns:cc="http://web.resource.org/cc/" xmlns:dc="http://purl.org/dc/elements/1.1/" xmlns:rdf="http://www.w3.org/1999/02/22-rdf-syntax-ns#">

     <rdf:Description rdf:about="">
       <dc:title>Mutant Standard S3</dc:title>
     </rdf:Description>

    <cc:work rdf:about="">
        <cc:license rdf:resource="http://creativecommons.org/licenses/by-nc-sa/4.0/"/>
        <cc:attributionName>Dzuk</cc:attributionName>
        <cc:attributionURL>http://mutant.tech/</cc:attributionURL>
    </cc:work>

</rdf:RDF>
</metadata>
<rect id="think_mind_blown" width="32" height="32" fill="none"/><clipPath id="_clip1"><rect width="32" height="32"/></clipPath><g clip-path="url(#_clip1)"><g id="outline" fill="none" stroke="#000" stroke-width="4px"><path d="m16 2-2 4-7-2 2 3-7 1 6 3-4 3h6l-3 3h18l-3-3h6l-4-3 6-3-7-1 2-3-7 2-2-4z"/><path d="m27 15h-22s-0.209 0.626-0.436 1.307c-0.373 1.121-0.564 2.296-0.564 3.478v0.215c0 4.418 3.582 8 8 8h8c4.418 0 8-3.582 8-8v-0.215c0-1.182-0.191-2.357-0.564-3.478-0.227-0.681-0.436-1.307-0.436-1.307z" stroke-linejoin="miter"/></g><g id="emoji"><circle cx="22" cy="4" r="1" fill="#fbc546"/><path d="m22.153 1.003 0.151 0.012 0.151 0.019 0.148 0.026 0.146 0.034 0.143 0.041 0.14 0.047 0.137 0.054 0.133 0.061 0.13 0.066 0.125 0.072 0.122 0.078 0.117 0.084 0.113 0.089 0.109 0.094 0.103 0.098 0.1 0.104 0.094 0.109 0.088 0.112 0.084 0.118 0.078 0.122 0.072 0.125 0.066 0.13 0.061 0.133 0.054 0.137 0.047 0.14 0.041 0.143 0.034 0.146 0.026 0.149 0.019 0.15 0.012 0.151 4e-3 0.153-4e-3 0.153-0.012 0.151-0.019 0.15-0.026 0.149-0.034 0.146-0.041 0.143-0.047 0.14-0.054 0.137-0.061 0.133-0.066 0.13-0.072 0.125-0.078 0.122-0.084 0.118-0.088 0.112-0.094 0.109-0.1 0.104-0.103 0.098-0.109 0.094-0.113 0.089-0.117 0.084-0.122 0.078-0.125 0.072-0.13 0.066-0.133 0.061-0.137 0.054-0.14 0.047-0.143 0.041-0.146 0.034-0.148 0.026-0.151 0.019-0.151 0.012-0.153 4e-3 -0.153-4e-3 -0.151-0.012-0.151-0.019-0.148-0.026-0.146-0.034-0.143-0.041-0.14-0.047-0.137-0.054-0.133-0.061-0.13-0.066-0.125-0.072-0.122-0.078-0.117-0.084-0.113-0.089-0.109-0.094-0.103-0.098-0.1-0.104-0.094-0.109-0.088-0.112-0.084-0.118-0.078-0.122-0.072-0.125-0.066-0.13-0.061-0.133-0.054-0.137-0.047-0.14-0.041-0.143-0.034-0.146-0.026-0.149-0.019-0.15-0.012-0.151-4e-3 -0.153 4e-3 -0.153 0.012-0.151 0.019-0.15 0.026-0.149 0.034-0.146 0.041-0.143 0.047-0.14 0.054-0.137 0.061-0.133 0.066-0.13 0.072-0.125 0.078-0.122 0.084-0.118 0.088-0.112 0.094-0.109 0.1-0.104 0.103-0.098 0.109-0.094 0.113-0.089 0.117-0.084 0.122-0.078 0.125-0.072 0.13-0.066 0.133-0.061 0.137-0.054 0.14-0.047 0.143-0.041 0.146-0.034 0.148-0.026 0.151-0.019 0.151-0.012 0.153-4e-3 0.153 4e-3zm-0.203 1.998-0.05 3e-3 -0.05 7e-3 -0.05 9e-3 -0.049 0.011-0.048 0.014-0.047 0.016-0.047 0.018-0.044 0.02-0.044 0.022-0.042 0.025-0.04 0.026-0.039 0.027-0.038 0.03-0.035 0.031-0.034 0.032-0.033 0.035-0.031 0.036-0.03 0.037-0.027 0.039-0.027 0.04-0.024 0.042-0.022 0.043-0.02 0.045-0.018 0.047-0.016 0.047-0.014 0.048-0.011 0.049-9e-3 0.05-7e-3 0.05-3e-3 0.05-2e-3 0.05 2e-3 0.05 3e-3 0.05 7e-3 0.05 9e-3 0.05 0.011 0.049 0.014 0.048 0.016 0.047 0.018 0.047 0.02 0.045 0.022 0.043 0.024 0.042 0.027 0.04 0.027 0.039 0.03 0.037 0.031 0.036 0.033 0.035 0.034 0.032 0.035 0.031 0.038 0.03 0.039 0.027 0.04 0.026 0.042 0.025 0.044 0.022 0.044 0.02 0.047 0.018 0.047 0.016 0.048 0.014 0.049 0.011 0.05 9e-3 0.05 7e-3 0.05 3e-3 0.05 2e-3 0.05-2e-3 0.05-3e-3 0.05-7e-3 0.05-9e-3 0.049-0.011 0.048-0.014 0.047-0.016 0.047-0.018 0.044-0.02 0.044-0.022 0.042-0.025 0.04-0.026 0.039-0.027 0.038-0.03 0.035-0.031 0.034-0.032 0.033-0.035 0.031-0.036 0.03-0.037 0.027-0.039 0.027-0.04 0.024-0.042 0.022-0.043 0.02-0.045 0.018-0.047 0.016-0.047 0.014-0.048 0.011-0.049 9e-3 -0.05 7e-3 -0.05 3e-3 -0.05 2e-3 -0.05-2e-3 -0.05-3e-3 -0.05-7e-3 -0.05-9e-3 -0.05-0.011-0.049-0.014-0.048-0.016-0.047-0.018-0.047-0.02-0.045-0.022-0.043-0.024-0.042-0.027-0.04-0.027-0.039-0.03-0.037-0.031-0.036-0.033-0.035-0.034-0.032-0.035-0.031-0.038-0.03-0.039-0.027-0.04-0.026-0.042-0.025-0.044-0.022-0.044-0.02-0.047-0.018-0.047-0.016-0.048-0.014-0.049-0.011-0.05-9e-3 -0.05-7e-3 -0.05-3e-3 -0.05-2e-3 -0.05 2e-3z"/><path d="m29 12-1 2-3-1 0.419-0.419c0.944-0.944 2.387-1.178 3.581-0.581z" fill="#fbc546"/><path d="m27.675 9.673 0.098 2e-3 0.099 4e-3 0.098 6e-3 0.099 8e-3 0.098 9e-3 0.098 0.012 0.098 0.014 0.098 0.015 0.098 0.018 0.098 0.019 0.098 0.022 0.097 0.023 0.097 0.025 0.096 0.027 0.097 0.03 0.095 0.031 0.096 0.033 0.095 0.035 0.094 0.037 0.094 0.039 0.094 0.041 0.092 0.043 0.098 0.048 1.769 0.921-2.656 5.311-6.819-2.273-0.228-0.968 2.046-2.045 0.066-0.065 0.074-0.07 0.076-0.069 0.077-0.066 0.078-0.065 0.079-0.064 0.079-0.061 0.082-0.06 0.082-0.058 0.083-0.057 0.084-0.054 0.084-0.053 0.086-0.051 0.087-0.05 0.087-0.047 0.088-0.046 0.089-0.044 0.09-0.042 0.09-0.04 0.091-0.039 0.091-0.037 0.092-0.035 0.093-0.033 0.093-0.031 0.094-0.03 0.094-0.027 0.095-0.026 0.095-0.024 0.095-0.022 0.096-0.021 0.097-0.018 0.096-0.017 0.097-0.015 0.097-0.013 0.098-0.011 0.097-9e-3 0.098-7e-3 0.098-5e-3 0.098-4e-3 0.098-2e-3 0.099 1e-3zm-0.144 2-0.06 3e-3 -0.059 3e-3 -0.06 4e-3 -0.059 6e-3 -0.118 0.014-0.059 9e-3 -0.118 0.022-0.058 0.012-0.116 0.028-0.058 0.016-0.057 0.017-0.057 0.018-0.057 0.019-0.056 0.02-0.056 0.021-0.056 0.023-0.055 0.023-0.055 0.025-0.054 0.025-0.054 0.027-0.054 0.028-0.053 0.029-0.052 0.03-0.052 0.031-0.052 0.032-0.051 0.033-0.05 0.034-0.05 0.035-0.098 0.074-0.048 0.039-0.047 0.039-0.047 0.041-0.046 0.042-0.045 0.042-0.045 0.044-0.419 0.419 3 1 1-2-0.056-0.027-0.057-0.027-0.057-0.025-0.114-0.046-0.058-0.021-0.058-0.02-0.058-0.019-0.059-0.018-0.058-0.017-0.059-0.015-0.059-0.014-0.059-0.013-0.06-0.012-0.059-0.011-0.06-9e-3 -0.059-8e-3 -0.06-7e-3 -0.06-6e-3 -0.06-5e-3 -0.06-4e-3 -0.059-2e-3 -0.12-2e-3 -0.06 1e-3z"/><path d="m14 2-1 2-3-1 0.419-0.419c0.944-0.944 2.387-1.178 3.581-0.581z" fill="#fbc546"/><path d="m12.675-0.327 0.098 2e-3 0.099 4e-3 0.098 6e-3 0.099 8e-3 0.098 9e-3 0.098 0.012 0.098 0.014 0.098 0.015 0.098 0.018 0.098 0.019 0.098 0.022 0.097 0.023 0.097 0.025 0.096 0.027 0.097 0.03 0.095 0.031 0.096 0.033 0.095 0.035 0.094 0.037 0.094 0.039 0.094 0.041 0.092 0.043 0.098 0.048 1.769 0.921-2.656 5.311-6.819-2.273-0.228-0.968 2.046-2.045 0.066-0.065 0.074-0.07 0.076-0.069 0.077-0.066 0.078-0.065 0.079-0.064 0.079-0.061 0.082-0.06 0.082-0.058 0.083-0.057 0.084-0.054 0.084-0.053 0.086-0.051 0.087-0.05 0.087-0.047 0.088-0.046 0.089-0.044 0.09-0.042 0.09-0.04 0.091-0.039 0.091-0.037 0.092-0.035 0.093-0.033 0.093-0.031 0.094-0.03 0.094-0.027 0.095-0.026 0.095-0.024 0.095-0.022 0.096-0.021 0.097-0.018 0.096-0.017 0.097-0.015 0.097-0.013 0.098-0.011 0.097-9e-3 0.098-7e-3 0.098-5e-3 0.098-4e-3 0.098-2e-3 0.099 1e-3zm-0.144 2-0.06 3e-3 -0.059 3e-3 -0.06 4e-3 -0.059 6e-3 -0.118 0.014-0.059 9e-3 -0.118 0.022-0.058 0.012-0.116 0.028-0.058 0.016-0.057 0.017-0.057 0.018-0.057 0.019-0.056 0.02-0.056 0.021-0.056 0.023-0.055 0.023-0.055 0.025-0.054 0.025-0.054 0.027-0.054 0.028-0.053 0.029-0.052 0.03-0.052 0.031-0.052 0.032-0.051 0.033-0.05 0.034-0.05 0.035-0.098 0.074-0.048 0.039-0.047 0.039-0.047 0.041-0.046 0.042-0.045 0.042-0.045 0.044-0.419 0.419 3 1 1-2-0.056-0.027-0.057-0.027-0.057-0.025-0.114-0.046-0.058-0.021-0.058-0.02-0.058-0.019-0.059-0.018-0.058-0.017-0.059-0.015-0.059-0.014-0.059-0.013-0.06-0.012-0.059-0.011-0.06-9e-3 -0.059-8e-3 -0.06-7e-3 -0.06-6e-3 -0.06-5e-3 -0.06-4e-3 -0.059-2e-3 -0.12-2e-3 -0.06 1e-3z"/><path d="m16 2-2 4-7-2 2 3-7 1 6 3-4 3h6l-3 3h18l-3-3h6l-4-3 6-3-7-1 2-3-7 2-2-4z" fill="#f30800"/><path d="m16 5-2 3-4-2 2 3h-5l4 2-3 2h4l-2 3 4-1 2 2 2-2 3 1-1-3h4l-3-2 4-2h-5l2-3-4 2-2-3z" fill="#ffa32b"/><path d="m27 15h-22s-0.209 0.626-0.436 1.307c-0.373 1.121-0.564 2.296-0.564 3.478v0.215c0 4.418 3.582 8 8 8h8c4.418 0 8-3.582 8-8v-0.215c0-1.182-0.191-2.357-0.564-3.478-0.227-0.681-0.436-1.307-0.436-1.307z" fill="#fbc546"/><path d="m18.467 21.001 0.124 5e-3 0.123 8e-3 0.123 0.01 0.123 0.014 0.121 0.017 0.122 0.019 0.12 0.023 0.12 0.025 0.119 0.029 0.118 0.031 0.117 0.034 0.117 0.037 0.115 0.04 0.114 0.042 0.114 0.046 0.112 0.048 0.111 0.05 0.109 0.054 0.109 0.056 0.107 0.059 0.105 0.061 0.104 0.064 0.103 0.067 0.101 0.069 0.1 0.072 0.098 0.074 0.096 0.077 0.094 0.08 0.093 0.081 0.091 0.085 0.084 0.082 0.833 0.833 0.036 0.038 0.034 0.04 0.032 0.041 0.03 0.043 0.027 0.045 0.025 0.046 0.023 0.047 0.02 0.049 0.017 0.049 0.015 0.05 0.012 0.051 0.01 0.052 7e-3 0.051 4e-3 0.053 1e-3 0.052-1e-3 0.052-4e-3 0.053-7e-3 0.051-0.01 0.052-0.012 0.051-0.015 0.05-0.017 0.049-0.02 0.049-0.023 0.047-0.025 0.046-0.027 0.045-0.03 0.043-0.032 0.041-0.034 0.04-0.036 0.038-0.038 0.036-0.04 0.034-0.041 0.032-0.043 0.03-0.045 0.027-0.046 0.025-0.047 0.023-0.049 0.02-0.049 0.017-0.05 0.015-0.051 0.012-0.052 0.01-0.051 7e-3 -0.053 4e-3 -0.052 1e-3 -0.052-1e-3 -0.053-4e-3 -0.051-7e-3 -0.052-0.01-0.051-0.012-0.05-0.015-0.049-0.017-0.049-0.02-0.047-0.023-0.046-0.025-0.045-0.027-0.043-0.03-0.041-0.032-0.04-0.034-0.038-0.036-0.824-0.824-0.058-0.056-0.054-0.051-0.056-0.049-0.057-0.048-0.057-0.046-0.059-0.044-0.06-0.043-0.061-0.042-0.061-0.04-0.063-0.038-0.063-0.037-0.064-0.035-0.065-0.034-0.066-0.032-0.067-0.031-0.067-0.029-0.068-0.027-0.068-0.025-0.07-0.024-0.069-0.022-0.071-0.021-0.071-0.018-0.071-0.017-0.072-0.016-0.072-0.013-0.073-0.012-0.073-0.01-0.073-8e-3 -0.074-7e-3 -0.074-4e-3 -0.074-3e-3 -0.081-1e-3h-3.337l-0.052-1e-3 -0.053-4e-3 -0.051-7e-3 -0.052-0.01-0.051-0.012-0.05-0.015-0.049-0.017-0.049-0.02-0.047-0.023-0.046-0.025-0.045-0.027-0.043-0.03-0.041-0.032-0.04-0.034-0.038-0.036-0.036-0.038-0.034-0.04-0.032-0.041-0.03-0.043-0.027-0.045-0.025-0.046-0.023-0.047-0.02-0.049-0.017-0.049-0.015-0.05-0.012-0.051-0.01-0.052-7e-3 -0.051-4e-3 -0.053-1e-3 -0.052 1e-3 -0.052 4e-3 -0.053 7e-3 -0.051 0.01-0.052 0.012-0.051 0.015-0.05 0.017-0.049 0.02-0.049 0.023-0.047 0.025-0.046 0.027-0.045 0.03-0.043 0.032-0.041 0.034-0.04 0.036-0.038 0.038-0.036 0.04-0.034 0.041-0.032 0.043-0.03 0.045-0.027 0.046-0.025 0.047-0.023 0.049-0.02 0.049-0.017 0.05-0.015 0.051-0.012 0.052-0.01 0.051-7e-3 0.053-4e-3 0.052-1e-3h3.349l0.118 1e-3z" fill="#593604"/><path d="m13 17.242c0-0.329-0.131-0.645-0.364-0.878s-0.549-0.364-0.878-0.364h-0.516c-0.329 0-0.645 0.131-0.878 0.364s-0.364 0.549-0.364 0.878v1.258c0 0.398 0.158 0.779 0.439 1.061 0.282 0.281 0.663 0.439 1.061 0.439s0.779-0.158 1.061-0.439c0.281-0.282 0.439-0.663 0.439-1.061v-1.258z"/><path d="m25 16h-4c-0.265 0-0.52 0.105-0.707 0.293-0.188 0.187-0.293 0.442-0.293 0.707 0 0.552 0.448 1 1 1h1v0.502c0 0.827 0.671 1.498 1.498 1.498h2e-3c0.398 0 0.779-0.158 1.061-0.439 0.281-0.282 0.439-0.663 0.439-1.061v-2.5z"/><path d="m7 23-0.894 0.447c-0.678 0.339-1.106 1.032-1.106 1.789v3.764c0 0.265 0.105 0.52 0.293 0.707 0.187 0.188 0.442 0.293 0.707 0.293h2c0.552 0 1-0.448 1-1v-2h2c0.552 0 1-0.448 1-1 0-0.265-0.105-0.52-0.293-0.707-0.187-0.188-0.442-0.293-0.707-0.293h-4v-2z" fill="#fbc546"/><path d="m9 23h2.025l0.124 3e-3 0.147 0.011 0.147 0.018 0.145 0.026 0.143 0.032 0.142 0.039 0.139 0.046 0.136 0.053 0.134 0.059 0.131 0.066 0.128 0.072 0.124 0.078 0.12 0.085 0.117 0.091 0.112 0.097 0.108 0.102 0.102 0.108 0.097 0.112 0.091 0.117 0.084 0.12 0.079 0.124 0.072 0.128 0.066 0.131 0.059 0.134 0.053 0.136 0.046 0.139 0.039 0.142 0.032 0.143 0.026 0.145 0.018 0.146 0.011 0.148 4e-3 0.15-4e-3 0.152-0.012 0.151-0.019 0.15-0.026 0.148-0.034 0.146-0.041 0.144-0.047 0.14-0.054 0.136-0.06 0.134-0.067 0.129-0.072 0.126-0.078 0.122-0.084 0.118-0.088 0.112-0.094 0.109-0.099 0.104-0.104 0.099-0.109 0.094-0.113 0.088-0.117 0.084-0.122 0.078-0.125 0.072-0.13 0.067-0.134 0.06-0.136 0.054-0.141 0.047-0.143 0.041-0.146 0.034-0.148 0.026-0.15 0.019-0.151 0.012-0.128 3e-3h-0.025v0.026l-3e-3 0.127-0.012 0.151-0.019 0.15-0.026 0.148-0.034 0.146-0.041 0.144-0.047 0.14-0.054 0.137-0.06 0.133-0.067 0.129-0.072 0.126-0.078 0.122-0.084 0.118-0.088 0.112-0.094 0.109-0.099 0.104-0.104 0.099-0.109 0.094-0.113 0.088-0.117 0.084-0.122 0.078-0.125 0.072-0.13 0.067-0.134 0.06-0.136 0.054-0.141 0.047-0.143 0.041-0.146 0.034-0.148 0.026-0.15 0.019-0.151 0.012-0.128 3e-3h-2.05l-0.124-3e-3 -0.147-0.011-0.147-0.018-0.145-0.026-0.143-0.032-0.142-0.039-0.139-0.046-0.136-0.053-0.134-0.059-0.131-0.066-0.128-0.072-0.124-0.079-0.12-0.084-0.117-0.091-0.112-0.097-0.108-0.102-0.102-0.108-0.097-0.112-0.091-0.117-0.084-0.12-0.079-0.124-0.072-0.128-0.066-0.131-0.059-0.134-0.053-0.137-0.046-0.138-0.039-0.141-0.032-0.144-0.026-0.145-0.018-0.146-0.011-0.148-3e-3 -0.124v-3.807l2e-3 -0.123 8e-3 -0.141 0.012-0.14 0.017-0.139 0.022-0.137 0.027-0.136 0.031-0.135 0.036-0.134 0.04-0.132 0.045-0.13 0.049-0.128 0.053-0.126 0.058-0.125 0.062-0.122 0.065-0.12 0.07-0.117 0.074-0.115 0.078-0.113 0.081-0.109 0.085-0.107 0.09-0.105 0.092-0.101 0.097-0.098 0.1-0.095 0.103-0.092 0.107-0.088 0.11-0.085 0.113-0.081 0.117-0.077 0.119-0.074 0.123-0.069 0.109-0.058 3.805-1.902v3.236zm-2.894 0.447-0.063 0.033-0.062 0.035-0.059 0.037-0.058 0.038-0.057 0.041-0.055 0.042-0.053 0.044-0.052 0.046-0.05 0.048-0.048 0.049-0.046 0.05-0.045 0.052-0.043 0.054-0.04 0.055-0.039 0.056-0.037 0.058-0.035 0.058-0.033 0.06-0.031 0.061-0.029 0.062-0.027 0.064-0.024 0.064-0.022 0.065-0.021 0.066-0.017 0.066-0.016 0.068-0.013 0.068-0.011 0.069-9e-3 0.069-6e-3 0.07-4e-3 0.07-1e-3 0.071v3.764l1e-3 0.05 4e-3 0.049 6e-3 0.049 8e-3 0.048 0.011 0.048 0.013 0.047 0.016 0.046 0.017 0.046 0.02 0.044 0.022 0.044 0.024 0.042 0.026 0.042 0.028 0.04 0.03 0.039 0.033 0.037 0.034 0.036 0.036 0.034 0.037 0.033 0.039 0.03 0.04 0.028 0.042 0.026 0.042 0.024 0.044 0.022 0.044 0.02 0.046 0.017 0.046 0.016 0.047 0.013 0.048 0.011 0.048 8e-3 0.049 6e-3 0.049 4e-3 0.05 1e-3h2l0.051-1e-3 0.051-4e-3 0.05-7e-3 0.05-8e-3 0.048-0.011 0.047-0.014 0.047-0.016 0.045-0.018 0.045-0.02 0.043-0.022 0.042-0.024 0.04-0.026 0.039-0.028 0.038-0.029 0.036-0.032 0.035-0.033 0.033-0.035 0.032-0.036 0.029-0.038 0.028-0.039 0.026-0.04 0.024-0.042 0.022-0.043 0.02-0.045 0.018-0.045 0.016-0.047 0.014-0.047 0.011-0.048 8e-3 -0.05 7e-3 -0.05 4e-3 -0.051 1e-3 -0.051v-2h2l0.051-1e-3 0.051-4e-3 0.05-7e-3 0.05-8e-3 0.048-0.011 0.047-0.014 0.047-0.016 0.045-0.018 0.045-0.02 0.043-0.022 0.042-0.024 0.04-0.026 0.039-0.028 0.038-0.029 0.036-0.032 0.035-0.033 0.033-0.035 0.032-0.036 0.029-0.038 0.028-0.039 0.026-0.04 0.024-0.042 0.022-0.043 0.02-0.045 0.018-0.045 0.016-0.047 0.014-0.047 0.011-0.048 8e-3 -0.05 7e-3 -0.05 4e-3 -0.051 1e-3 -0.051-1e-3 -0.05-4e-3 -0.049-6e-3 -0.049-8e-3 -0.048-0.011-0.048-0.013-0.047-0.016-0.046-0.017-0.046-0.02-0.044-0.022-0.044-0.024-0.042-0.026-0.042-0.028-0.04-0.03-0.039-0.033-0.037-0.034-0.036-0.036-0.034-0.037-0.033-0.039-0.03-0.04-0.028-0.042-0.026-0.042-0.024-0.044-0.022-0.044-0.02-0.046-0.017-0.046-0.016-0.047-0.013-0.048-0.011-0.048-8e-3 -0.049-6e-3 -0.049-4e-3 -0.05-1e-3h-4v-2l-0.894 0.447z"/><path d="m3 13v-2e-3c0-0.795 0.316-1.558 0.878-2.12s1.325-0.878 2.12-0.878h2e-3v3h-3z" fill="#fbc546"/><path d="m8 15h-7v-2.015l1e-3 -0.111 5e-3 -0.124 8e-3 -0.123 0.01-0.123 0.014-0.122 0.017-0.122 0.019-0.122 0.023-0.12 0.025-0.119 0.029-0.119 0.031-0.119 0.034-0.116 0.037-0.117 0.04-0.116 0.042-0.113 0.045-0.114 0.048-0.112 0.051-0.111 0.054-0.109 0.056-0.108 0.058-0.107 0.062-0.106 0.064-0.104 0.067-0.103 0.069-0.101 0.072-0.1 0.074-0.097 0.077-0.096 0.079-0.095 0.082-0.093 0.084-0.091 0.087-0.088 0.089-0.087 0.09-0.084 0.093-0.082 0.094-0.079 0.097-0.077 0.097-0.074 0.1-0.072 0.101-0.07 0.103-0.066 0.104-0.064 0.105-0.062 0.107-0.058 0.109-0.056 0.109-0.054 0.111-0.051 0.112-0.048 0.113-0.045 0.115-0.043 0.115-0.039 0.116-0.037 0.118-0.034 0.118-0.031 0.119-0.029 0.119-0.025 0.121-0.023 0.121-0.019 0.122-0.017 0.122-0.014 0.123-0.01 0.123-8e-3 0.124-5e-3 0.112-1e-3h2.014v7zm-2.002-5-0.074 1e-3 -0.075 3e-3 -0.074 4e-3 -0.073 7e-3 -0.074 8e-3 -0.073 0.01-0.072 0.012-0.073 0.013-0.071 0.015-0.072 0.017-0.071 0.019-0.07 0.021-0.07 0.022-0.069 0.024-0.068 0.025-0.068 0.027-0.067 0.029-0.067 0.03-0.066 0.033-0.065 0.033-0.064 0.035-0.063 0.037-0.063 0.039-0.061 0.04-0.061 0.041-0.06 0.043-0.058 0.045-0.058 0.046-0.057 0.048-0.055 0.049-0.055 0.05-0.053 0.052-0.052 0.053-0.05 0.055-0.049 0.055-0.048 0.057-0.046 0.058-0.045 0.058-0.043 0.06-0.041 0.061-0.04 0.061-0.039 0.063-0.037 0.063-0.035 0.064-0.033 0.065-0.033 0.066-0.03 0.067-0.029 0.067-0.027 0.068-0.025 0.068-0.024 0.069-0.022 0.07-0.021 0.07-0.019 0.071-0.017 0.072-0.015 0.071-0.013 0.073-0.012 0.072-0.01 0.073-8e-3 0.074-7e-3 0.073-4e-3 0.074-3e-3 0.075-1e-3 0.074v2e-3h3v-3h-2e-3z"/><path d="m14 11 1-1 2 2-2 1-1-2z" fill="#fbc546"/><path d="m20.01 12.181-0.097 0.599-5.807 2.903-2.539-5.078 3.433-3.433 5.01 5.009zm-6.01-1.181 1 2 2-1-2-2-1 1z"/></g></g></svg>
