<?xml version="1.0" encoding="UTF-8" standalone="no"?><!DOCTYPE svg PUBLIC "-//W3C//DTD SVG 1.1//EN" "http://www.w3.org/Graphics/SVG/1.1/DTD/svg11.dtd"><svg width="100%" height="100%" viewBox="0 0 32 32" version="1.1" xmlns="http://www.w3.org/2000/svg" xmlns:xlink="http://www.w3.org/1999/xlink" xml:space="preserve" xmlns:serif="http://www.serif.com/" style="fill-rule:evenodd;clip-rule:evenodd;stroke-linecap:round;stroke-linejoin:round;stroke-miterlimit:1.5;">
<metadata>
<rdf:RDF xmlns:cc="http://web.resource.org/cc/"
         xmlns:rdf="http://www.w3.org/1999/02/22-rdf-syntax-ns#"
         xmlns:dc = "http://purl.org/dc/elements/1.1/"
         >

     <rdf:Description rdf:about="">
       <dc:title>Mutant Standard S3</dc:title>
     </rdf:Description>

    <cc:work rdf:about="">
        <cc:license rdf:resource="http://creativecommons.org/licenses/by-nc-sa/4.0/"/>
        <cc:attributionName>Dzuk</cc:attributionName>
        <cc:attributionURL>http://mutant.tech/</cc:attributionURL>
    </cc:work>

</rdf:RDF>
</metadata>
<rect id="think_mind_blown" x="0" y="0" width="32" height="32" style="fill:none;"/><clipPath id="_clip1"><rect x="0" y="0" width="32" height="32"/></clipPath><g clip-path="url(#_clip1)"><g id="outline"><path d="M16,2l-2,4l-7,-2l2,3l-7,1l6,3l-4,3l6,0l-3,3l18,0l-3,-3l6,0l-4,-3l6,-3l-7,-1l2,-3l-7,2l-2,-4Z" style="fill:none;stroke:#000;stroke-width:4px;"/><path d="M27,15l-22,0c0,0 -0.209,0.626 -0.436,1.307c-0.373,1.121 -0.564,2.296 -0.564,3.478c0,0.07 0,0.142 0,0.215c0,4.418 3.582,8 8,8c2.574,0 5.426,0 8,0c4.418,0 8,-3.582 8,-8c0,-0.073 0,-0.145 0,-0.215c0,-1.182 -0.191,-2.357 -0.564,-3.478c-0.227,-0.681 -0.436,-1.307 -0.436,-1.307Z" style="fill:none;stroke:#000;stroke-width:4px;stroke-linejoin:miter;"/></g><g id="emoji"><circle cx="22" cy="4" r="1" style="fill:#fbc546;"/><path d="M22.153,1.003l0.151,0.012l0.151,0.019l0.148,0.026l0.146,0.034l0.143,0.041l0.14,0.047l0.137,0.054l0.133,0.061l0.13,0.066l0.125,0.072l0.122,0.078l0.117,0.084l0.113,0.089l0.109,0.094l0.103,0.098l0.1,0.104l0.094,0.109l0.088,0.112l0.084,0.118l0.078,0.122l0.072,0.125l0.066,0.13l0.061,0.133l0.054,0.137l0.047,0.14l0.041,0.143l0.034,0.146l0.026,0.149l0.019,0.15l0.012,0.151l0.004,0.153l-0.004,0.153l-0.012,0.151l-0.019,0.15l-0.026,0.149l-0.034,0.146l-0.041,0.143l-0.047,0.14l-0.054,0.137l-0.061,0.133l-0.066,0.13l-0.072,0.125l-0.078,0.122l-0.084,0.118l-0.088,0.112l-0.094,0.109l-0.1,0.104l-0.103,0.098l-0.109,0.094l-0.113,0.089l-0.117,0.084l-0.122,0.078l-0.125,0.072l-0.13,0.066l-0.133,0.061l-0.137,0.054l-0.14,0.047l-0.143,0.041l-0.146,0.034l-0.148,0.026l-0.151,0.019l-0.151,0.012l-0.153,0.004l-0.153,-0.004l-0.151,-0.012l-0.151,-0.019l-0.148,-0.026l-0.146,-0.034l-0.143,-0.041l-0.14,-0.047l-0.137,-0.054l-0.133,-0.061l-0.13,-0.066l-0.125,-0.072l-0.122,-0.078l-0.117,-0.084l-0.113,-0.089l-0.109,-0.094l-0.103,-0.098l-0.1,-0.104l-0.094,-0.109l-0.088,-0.112l-0.084,-0.118l-0.078,-0.122l-0.072,-0.125l-0.066,-0.13l-0.061,-0.133l-0.054,-0.137l-0.047,-0.14l-0.041,-0.143l-0.034,-0.146l-0.026,-0.149l-0.019,-0.15l-0.012,-0.151l-0.004,-0.153l0.004,-0.153l0.012,-0.151l0.019,-0.15l0.026,-0.149l0.034,-0.146l0.041,-0.143l0.047,-0.14l0.054,-0.137l0.061,-0.133l0.066,-0.13l0.072,-0.125l0.078,-0.122l0.084,-0.118l0.088,-0.112l0.094,-0.109l0.1,-0.104l0.103,-0.098l0.109,-0.094l0.113,-0.089l0.117,-0.084l0.122,-0.078l0.125,-0.072l0.13,-0.066l0.133,-0.061l0.137,-0.054l0.14,-0.047l0.143,-0.041l0.146,-0.034l0.148,-0.026l0.151,-0.019l0.151,-0.012l0.153,-0.004l0.153,0.004Zm-0.203,1.998l-0.05,0.003l-0.05,0.007l-0.05,0.009l-0.049,0.011l-0.048,0.014l-0.047,0.016l-0.047,0.018l-0.044,0.02l-0.044,0.022l-0.042,0.025l-0.04,0.026l-0.039,0.027l-0.038,0.03l-0.035,0.031l-0.034,0.032l-0.033,0.035l-0.031,0.036l-0.03,0.037l-0.027,0.039l-0.027,0.04l-0.024,0.042l-0.022,0.043l-0.02,0.045l-0.018,0.047l-0.016,0.047l-0.014,0.048l-0.011,0.049l-0.009,0.05l-0.007,0.05l-0.003,0.05l-0.002,0.05l0.002,0.05l0.003,0.05l0.007,0.05l0.009,0.05l0.011,0.049l0.014,0.048l0.016,0.047l0.018,0.047l0.02,0.045l0.022,0.043l0.024,0.042l0.027,0.04l0.027,0.039l0.03,0.037l0.031,0.036l0.033,0.035l0.034,0.032l0.035,0.031l0.038,0.03l0.039,0.027l0.04,0.026l0.042,0.025l0.044,0.022l0.044,0.02l0.047,0.018l0.047,0.016l0.048,0.014l0.049,0.011l0.05,0.009l0.05,0.007l0.05,0.003l0.05,0.002l0.05,-0.002l0.05,-0.003l0.05,-0.007l0.05,-0.009l0.049,-0.011l0.048,-0.014l0.047,-0.016l0.047,-0.018l0.044,-0.02l0.044,-0.022l0.042,-0.025l0.04,-0.026l0.039,-0.027l0.038,-0.03l0.035,-0.031l0.034,-0.032l0.033,-0.035l0.031,-0.036l0.03,-0.037l0.027,-0.039l0.027,-0.04l0.024,-0.042l0.022,-0.043l0.02,-0.045l0.018,-0.047l0.016,-0.047l0.014,-0.048l0.011,-0.049l0.009,-0.05l0.007,-0.05l0.003,-0.05l0.002,-0.05l-0.002,-0.05l-0.003,-0.05l-0.007,-0.05l-0.009,-0.05l-0.011,-0.049l-0.014,-0.048l-0.016,-0.047l-0.018,-0.047l-0.02,-0.045l-0.022,-0.043l-0.024,-0.042l-0.027,-0.04l-0.027,-0.039l-0.03,-0.037l-0.031,-0.036l-0.033,-0.035l-0.034,-0.032l-0.035,-0.031l-0.038,-0.03l-0.039,-0.027l-0.04,-0.026l-0.042,-0.025l-0.044,-0.022l-0.044,-0.02l-0.047,-0.018l-0.047,-0.016l-0.048,-0.014l-0.049,-0.011l-0.05,-0.009l-0.05,-0.007l-0.05,-0.003l-0.05,-0.002l-0.05,0.002Z"/><path d="M29,12l-1,2l-3,-1c0,0 0.174,-0.174 0.419,-0.419c0.944,-0.944 2.387,-1.178 3.581,-0.581c0,0 0,0 0,0Z" style="fill:#fbc546;"/><path d="M27.675,9.673l0.098,0.002l0.099,0.004l0.098,0.006l0.099,0.008l0.098,0.009l0.098,0.012l0.098,0.014l0.098,0.015l0.098,0.018l0.098,0.019l0.098,0.022l0.097,0.023l0.097,0.025l0.096,0.027l0.097,0.03l0.095,0.031l0.096,0.033l0.095,0.035l0.094,0.037l0.094,0.039l0.094,0.041l0.092,0.043l0.098,0.048l1.769,0.921l-2.656,5.311l-6.819,-2.273l-0.228,-0.968l2.046,-2.045l0.066,-0.065l0.074,-0.07l0.076,-0.069l0.077,-0.066l0.078,-0.065l0.079,-0.064l0.079,-0.061l0.082,-0.06l0.082,-0.058l0.083,-0.057l0.084,-0.054l0.084,-0.053l0.086,-0.051l0.087,-0.05l0.087,-0.047l0.088,-0.046l0.089,-0.044l0.09,-0.042l0.09,-0.04l0.091,-0.039l0.091,-0.037l0.092,-0.035l0.093,-0.033l0.093,-0.031l0.094,-0.03l0.094,-0.027l0.095,-0.026l0.095,-0.024l0.095,-0.022l0.096,-0.021l0.097,-0.018l0.096,-0.017l0.097,-0.015l0.097,-0.013l0.098,-0.011l0.097,-0.009l0.098,-0.007l0.098,-0.005l0.098,-0.004l0.098,-0.002l0.099,0.001Zm-0.144,2l-0.06,0.003l-0.059,0.003l-0.06,0.004l-0.059,0.006l-0.059,0.007l-0.059,0.007l-0.059,0.009l-0.059,0.011l-0.059,0.011l-0.058,0.012l-0.058,0.014l-0.058,0.014l-0.058,0.016l-0.057,0.017l-0.057,0.018l-0.057,0.019l-0.056,0.02l-0.056,0.021l-0.056,0.023l-0.055,0.023l-0.055,0.025l-0.054,0.025l-0.054,0.027l-0.054,0.028l-0.053,0.029l-0.052,0.03l-0.052,0.031l-0.052,0.032l-0.051,0.033l-0.05,0.034l-0.05,0.035l-0.049,0.037l-0.049,0.037l-0.048,0.039l-0.047,0.039l-0.047,0.041l-0.046,0.042l-0.045,0.042l-0.045,0.044l-0.419,0.419l3,1l1,-2l0,0l-0.056,-0.027l-0.057,-0.027l-0.057,-0.025l-0.057,-0.023l-0.057,-0.023l-0.058,-0.021l-0.058,-0.02l-0.058,-0.019l-0.059,-0.018l-0.058,-0.017l-0.059,-0.015l-0.059,-0.014l-0.059,-0.013l-0.06,-0.012l-0.059,-0.011l-0.06,-0.009l-0.059,-0.008l-0.06,-0.007l-0.06,-0.006l-0.06,-0.005l-0.06,-0.004l-0.059,-0.002l-0.06,-0.001l-0.06,-0.001l-0.06,0.001Z"/><path d="M14,2l-1,2l-3,-1c0,0 0.174,-0.174 0.419,-0.419c0.944,-0.944 2.387,-1.178 3.581,-0.581c0,0 0,0 0,0Z" style="fill:#fbc546;"/><path d="M12.675,-0.327l0.098,0.002l0.099,0.004l0.098,0.006l0.099,0.008l0.098,0.009l0.098,0.012l0.098,0.014l0.098,0.015l0.098,0.018l0.098,0.019l0.098,0.022l0.097,0.023l0.097,0.025l0.096,0.027l0.097,0.03l0.095,0.031l0.096,0.033l0.095,0.035l0.094,0.037l0.094,0.039l0.094,0.041l0.092,0.043l0.098,0.048l1.769,0.921l-2.656,5.311l-6.819,-2.273l-0.228,-0.968l2.046,-2.045l0.066,-0.065l0.074,-0.07l0.076,-0.069l0.077,-0.066l0.078,-0.065l0.079,-0.064l0.079,-0.061l0.082,-0.06l0.082,-0.058l0.083,-0.057l0.084,-0.054l0.084,-0.053l0.086,-0.051l0.087,-0.05l0.087,-0.047l0.088,-0.046l0.089,-0.044l0.09,-0.042l0.09,-0.04l0.091,-0.039l0.091,-0.037l0.092,-0.035l0.093,-0.033l0.093,-0.031l0.094,-0.03l0.094,-0.027l0.095,-0.026l0.095,-0.024l0.095,-0.022l0.096,-0.021l0.097,-0.018l0.096,-0.017l0.097,-0.015l0.097,-0.013l0.098,-0.011l0.097,-0.009l0.098,-0.007l0.098,-0.005l0.098,-0.004l0.098,-0.002l0.099,0.001Zm-0.144,2l-0.06,0.003l-0.059,0.003l-0.06,0.004l-0.059,0.006l-0.059,0.007l-0.059,0.007l-0.059,0.009l-0.059,0.011l-0.059,0.011l-0.058,0.012l-0.058,0.014l-0.058,0.014l-0.058,0.016l-0.057,0.017l-0.057,0.018l-0.057,0.019l-0.056,0.02l-0.056,0.021l-0.056,0.023l-0.055,0.023l-0.055,0.025l-0.054,0.025l-0.054,0.027l-0.054,0.028l-0.053,0.029l-0.052,0.03l-0.052,0.031l-0.052,0.032l-0.051,0.033l-0.05,0.034l-0.05,0.035l-0.049,0.037l-0.049,0.037l-0.048,0.039l-0.047,0.039l-0.047,0.041l-0.046,0.042l-0.045,0.042l-0.045,0.044l-0.419,0.419l3,1l1,-2l0,0l-0.056,-0.027l-0.057,-0.027l-0.057,-0.025l-0.057,-0.023l-0.057,-0.023l-0.058,-0.021l-0.058,-0.02l-0.058,-0.019l-0.059,-0.018l-0.058,-0.017l-0.059,-0.015l-0.059,-0.014l-0.059,-0.013l-0.06,-0.012l-0.059,-0.011l-0.06,-0.009l-0.059,-0.008l-0.06,-0.007l-0.06,-0.006l-0.06,-0.005l-0.06,-0.004l-0.059,-0.002l-0.06,-0.001l-0.06,-0.001l-0.06,0.001Z"/><path d="M16,2l-2,4l-7,-2l2,3l-7,1l6,3l-4,3l6,0l-3,3l18,0l-3,-3l6,0l-4,-3l6,-3l-7,-1l2,-3l-7,2l-2,-4Z" style="fill:#f30800;"/><path d="M16,5l-2,3l-4,-2l2,3l-5,0l4,2l-3,2l4,0l-2,3l4,-1l2,2l2,-2l3,1l-1,-3l4,0l-3,-2l4,-2l-5,0l2,-3l-4,2l-2,-3Z" style="fill:#ffa32b;"/><path d="M27,15l-22,0c0,0 -0.209,0.626 -0.436,1.307c-0.373,1.121 -0.564,2.296 -0.564,3.478c0,0.07 0,0.142 0,0.215c0,4.418 3.582,8 8,8c2.574,0 5.426,0 8,0c4.418,0 8,-3.582 8,-8c0,-0.073 0,-0.145 0,-0.215c0,-1.182 -0.191,-2.357 -0.564,-3.478c-0.227,-0.681 -0.436,-1.307 -0.436,-1.307Z" style="fill:#fbc546;"/><path d="M18.467,21.001l0.124,0.005l0.123,0.008l0.123,0.01l0.123,0.014l0.121,0.017l0.122,0.019l0.12,0.023l0.12,0.025l0.119,0.029l0.118,0.031l0.117,0.034l0.117,0.037l0.115,0.04l0.114,0.042l0.114,0.046l0.112,0.048l0.111,0.05l0.109,0.054l0.109,0.056l0.107,0.059l0.105,0.061l0.104,0.064l0.103,0.067l0.101,0.069l0.1,0.072l0.098,0.074l0.096,0.077l0.094,0.08l0.093,0.081l0.091,0.085l0.084,0.082l0.833,0.833l0.036,0.038l0.034,0.04l0.032,0.041l0.03,0.043l0.027,0.045l0.025,0.046l0.023,0.047l0.02,0.049l0.017,0.049l0.015,0.05l0.012,0.051l0.01,0.052l0.007,0.051l0.004,0.053l0.001,0.052l-0.001,0.052l-0.004,0.053l-0.007,0.051l-0.01,0.052l-0.012,0.051l-0.015,0.05l-0.017,0.049l-0.02,0.049l-0.023,0.047l-0.025,0.046l-0.027,0.045l-0.03,0.043l-0.032,0.041l-0.034,0.04l-0.036,0.038l-0.038,0.036l-0.04,0.034l-0.041,0.032l-0.043,0.03l-0.045,0.027l-0.046,0.025l-0.047,0.023l-0.049,0.02l-0.049,0.017l-0.05,0.015l-0.051,0.012l-0.052,0.01l-0.051,0.007l-0.053,0.004l-0.052,0.001l-0.052,-0.001l-0.053,-0.004l-0.051,-0.007l-0.052,-0.01l-0.051,-0.012l-0.05,-0.015l-0.049,-0.017l-0.049,-0.02l-0.047,-0.023l-0.046,-0.025l-0.045,-0.027l-0.043,-0.03l-0.041,-0.032l-0.04,-0.034l-0.038,-0.036l-0.824,-0.824l-0.058,-0.056l-0.054,-0.051l-0.056,-0.049l-0.057,-0.048l-0.057,-0.046l-0.059,-0.044l-0.06,-0.043l-0.061,-0.042l-0.061,-0.04l-0.063,-0.038l-0.063,-0.037l-0.064,-0.035l-0.065,-0.034l-0.066,-0.032l-0.067,-0.031l-0.067,-0.029l-0.068,-0.027l-0.068,-0.025l-0.07,-0.024l-0.069,-0.022l-0.071,-0.021l-0.071,-0.018l-0.071,-0.017l-0.072,-0.016l-0.072,-0.013l-0.073,-0.012l-0.073,-0.01l-0.073,-0.008l-0.074,-0.007l-0.074,-0.004l-0.074,-0.003l-0.081,-0.001l-3.337,0l-0.052,-0.001l-0.053,-0.004l-0.051,-0.007l-0.052,-0.01l-0.051,-0.012l-0.05,-0.015l-0.049,-0.017l-0.049,-0.02l-0.047,-0.023l-0.046,-0.025l-0.045,-0.027l-0.043,-0.03l-0.041,-0.032l-0.04,-0.034l-0.038,-0.036l-0.036,-0.038l-0.034,-0.04l-0.032,-0.041l-0.03,-0.043l-0.027,-0.045l-0.025,-0.046l-0.023,-0.047l-0.02,-0.049l-0.017,-0.049l-0.015,-0.05l-0.012,-0.051l-0.01,-0.052l-0.007,-0.051l-0.004,-0.053l-0.001,-0.052l0.001,-0.052l0.004,-0.053l0.007,-0.051l0.01,-0.052l0.012,-0.051l0.015,-0.05l0.017,-0.049l0.02,-0.049l0.023,-0.047l0.025,-0.046l0.027,-0.045l0.03,-0.043l0.032,-0.041l0.034,-0.04l0.036,-0.038l0.038,-0.036l0.04,-0.034l0.041,-0.032l0.043,-0.03l0.045,-0.027l0.046,-0.025l0.047,-0.023l0.049,-0.02l0.049,-0.017l0.05,-0.015l0.051,-0.012l0.052,-0.01l0.051,-0.007l0.053,-0.004l0.052,-0.001l3.349,0l0.118,0.001Z" style="fill:#593604;"/><path d="M13,17.242c0,-0.329 -0.131,-0.645 -0.364,-0.878c-0.233,-0.233 -0.549,-0.364 -0.878,-0.364c-0.17,0 -0.346,0 -0.516,0c-0.329,0 -0.645,0.131 -0.878,0.364c-0.233,0.233 -0.364,0.549 -0.364,0.878c0,0.398 0,0.843 0,1.258c0,0.398 0.158,0.779 0.439,1.061c0.282,0.281 0.663,0.439 1.061,0.439c0.398,0 0.779,-0.158 1.061,-0.439c0.281,-0.282 0.439,-0.663 0.439,-1.061c0,-0.415 0,-0.86 0,-1.258Z"/><path d="M25,16c0,0 -2.541,0 -4,0c-0.265,0 -0.52,0.105 -0.707,0.293c-0.188,0.187 -0.293,0.442 -0.293,0.707c0,0.552 0.448,1 1,1c0.5,0 1,0 1,0c0,0 0,0.214 0,0.502c0,0.827 0.671,1.498 1.498,1.498c0.001,0 0.001,0 0.002,0c0.398,0 0.779,-0.158 1.061,-0.439c0.281,-0.282 0.439,-0.663 0.439,-1.061c0,-1.135 0,-2.5 0,-2.5Z"/><path d="M7,23c0,0 -0.432,0.216 -0.894,0.447c-0.678,0.339 -1.106,1.032 -1.106,1.789c0,1.114 0,2.73 0,3.764c0,0.265 0.105,0.52 0.293,0.707c0.187,0.188 0.442,0.293 0.707,0.293c0.611,0 1.389,0 2,0c0.552,0 1,-0.448 1,-1c0,-0.873 0,-2 0,-2c0,0 1.127,0 2,0c0.552,0 1,-0.448 1,-1c0,-0.265 -0.105,-0.52 -0.293,-0.707c-0.187,-0.188 -0.442,-0.293 -0.707,-0.293c-1.459,0 -4,0 -4,0l0,-2Z" style="fill:#fbc546;"/><path d="M9,23l2.025,0l0.124,0.003l0.147,0.011l0.147,0.018l0.145,0.026l0.143,0.032l0.142,0.039l0.139,0.046l0.136,0.053l0.134,0.059l0.131,0.066l0.128,0.072l0.124,0.078l0.12,0.085l0.117,0.091l0.112,0.097l0.108,0.102l0.102,0.108l0.097,0.112l0.091,0.117l0.084,0.12l0.079,0.124l0.072,0.128l0.066,0.131l0.059,0.134l0.053,0.136l0.046,0.139l0.039,0.142l0.032,0.143l0.026,0.145l0.018,0.146l0.011,0.148l0.004,0.15l-0.004,0.152l-0.012,0.151l-0.019,0.15l-0.026,0.148l-0.034,0.146l-0.041,0.144l-0.047,0.14l-0.054,0.136l-0.06,0.134l-0.067,0.129l-0.072,0.126l-0.078,0.122l-0.084,0.118l-0.088,0.112l-0.094,0.109l-0.099,0.104l-0.104,0.099l-0.109,0.094l-0.113,0.088l-0.117,0.084l-0.122,0.078l-0.125,0.072l-0.13,0.067l-0.134,0.06l-0.136,0.054l-0.141,0.047l-0.143,0.041l-0.146,0.034l-0.148,0.026l-0.15,0.019l-0.151,0.012l-0.128,0.003l-0.025,0l0,0.026l-0.003,0.127l-0.012,0.151l-0.019,0.15l-0.026,0.148l-0.034,0.146l-0.041,0.144l-0.047,0.14l-0.054,0.137l-0.06,0.133l-0.067,0.129l-0.072,0.126l-0.078,0.122l-0.084,0.118l-0.088,0.112l-0.094,0.109l-0.099,0.104l-0.104,0.099l-0.109,0.094l-0.113,0.088l-0.117,0.084l-0.122,0.078l-0.125,0.072l-0.13,0.067l-0.134,0.06l-0.136,0.054l-0.141,0.047l-0.143,0.041l-0.146,0.034l-0.148,0.026l-0.15,0.019l-0.151,0.012l-0.128,0.003l-2.05,0l-0.124,-0.003l-0.147,-0.011l-0.147,-0.018l-0.145,-0.026l-0.143,-0.032l-0.142,-0.039l-0.139,-0.046l-0.136,-0.053l-0.134,-0.059l-0.131,-0.066l-0.128,-0.072l-0.124,-0.079l-0.12,-0.084l-0.117,-0.091l-0.112,-0.097l-0.108,-0.102l-0.102,-0.108l-0.097,-0.112l-0.091,-0.117l-0.084,-0.12l-0.079,-0.124l-0.072,-0.128l-0.066,-0.131l-0.059,-0.134l-0.053,-0.137l-0.046,-0.138l-0.039,-0.141l-0.032,-0.144l-0.026,-0.145l-0.018,-0.146l-0.011,-0.148l-0.003,-0.124l0,-3.807l0.002,-0.123l0.008,-0.141l0.012,-0.14l0.017,-0.139l0.022,-0.137l0.027,-0.136l0.031,-0.135l0.036,-0.134l0.04,-0.132l0.045,-0.13l0.049,-0.128l0.053,-0.126l0.058,-0.125l0.062,-0.122l0.065,-0.12l0.07,-0.117l0.074,-0.115l0.078,-0.113l0.081,-0.109l0.085,-0.107l0.09,-0.105l0.092,-0.101l0.097,-0.098l0.1,-0.095l0.103,-0.092l0.107,-0.088l0.11,-0.085l0.113,-0.081l0.117,-0.077l0.119,-0.074l0.123,-0.069l0.109,-0.058l3.805,-1.902l0,3.236Zm-2.894,0.447l-0.063,0.033l-0.062,0.035l-0.059,0.037l-0.058,0.038l-0.057,0.041l-0.055,0.042l-0.053,0.044l-0.052,0.046l-0.05,0.048l-0.048,0.049l-0.046,0.05l-0.045,0.052l-0.043,0.054l-0.04,0.055l-0.039,0.056l-0.037,0.058l-0.035,0.058l-0.033,0.06l-0.031,0.061l-0.029,0.062l-0.027,0.064l-0.024,0.064l-0.022,0.065l-0.021,0.066l-0.017,0.066l-0.016,0.068l-0.013,0.068l-0.011,0.069l-0.009,0.069l-0.006,0.07l-0.004,0.07l-0.001,0.071l0,3.764l0.001,0.05l0.004,0.049l0.006,0.049l0.008,0.048l0.011,0.048l0.013,0.047l0.016,0.046l0.017,0.046l0.02,0.044l0.022,0.044l0.024,0.042l0.026,0.042l0.028,0.04l0.03,0.039l0.033,0.037l0.034,0.036l0.036,0.034l0.037,0.033l0.039,0.03l0.04,0.028l0.042,0.026l0.042,0.024l0.044,0.022l0.044,0.02l0.046,0.017l0.046,0.016l0.047,0.013l0.048,0.011l0.048,0.008l0.049,0.006l0.049,0.004l0.05,0.001l2,0l0.051,-0.001l0.051,-0.004l0.05,-0.007l0.05,-0.008l0.048,-0.011l0.047,-0.014l0.047,-0.016l0.045,-0.018l0.045,-0.02l0.043,-0.022l0.042,-0.024l0.04,-0.026l0.039,-0.028l0.038,-0.029l0.036,-0.032l0.035,-0.033l0.033,-0.035l0.032,-0.036l0.029,-0.038l0.028,-0.039l0.026,-0.04l0.024,-0.042l0.022,-0.043l0.02,-0.045l0.018,-0.045l0.016,-0.047l0.014,-0.047l0.011,-0.048l0.008,-0.05l0.007,-0.05l0.004,-0.051l0.001,-0.051l0,-2l2,0l0.051,-0.001l0.051,-0.004l0.05,-0.007l0.05,-0.008l0.048,-0.011l0.047,-0.014l0.047,-0.016l0.045,-0.018l0.045,-0.02l0.043,-0.022l0.042,-0.024l0.04,-0.026l0.039,-0.028l0.038,-0.029l0.036,-0.032l0.035,-0.033l0.033,-0.035l0.032,-0.036l0.029,-0.038l0.028,-0.039l0.026,-0.04l0.024,-0.042l0.022,-0.043l0.02,-0.045l0.018,-0.045l0.016,-0.047l0.014,-0.047l0.011,-0.048l0.008,-0.05l0.007,-0.05l0.004,-0.051l0.001,-0.051c0,0 -0.001,-0.05 -0.001,-0.05l-0.004,-0.049l-0.006,-0.049l-0.008,-0.048l-0.011,-0.048l-0.013,-0.047l-0.016,-0.046l-0.017,-0.046l-0.02,-0.044l-0.022,-0.044l-0.024,-0.042l-0.026,-0.042l-0.028,-0.04l-0.03,-0.039l-0.033,-0.037l-0.034,-0.036l-0.036,-0.034l-0.037,-0.033l-0.039,-0.03l-0.04,-0.028l-0.042,-0.026l-0.042,-0.024l-0.044,-0.022l-0.044,-0.02l-0.046,-0.017l-0.046,-0.016l-0.047,-0.013l-0.048,-0.011l-0.048,-0.008l-0.049,-0.006l-0.049,-0.004l-0.05,-0.001l-4,0l0,-2l-0.894,0.447Z"/><path d="M3,13c0,0 0,-0.001 0,-0.002c0,-0.795 0.316,-1.558 0.878,-2.12c0.562,-0.562 1.325,-0.878 2.12,-0.878c0.001,0 0.002,0 0.002,0l0,3l-3,0Z" style="fill:#fbc546;"/><path d="M8,15l-7,0l0,-2.015l0.001,-0.111l0.005,-0.124l0.008,-0.123l0.01,-0.123l0.014,-0.122l0.017,-0.122l0.019,-0.122l0.023,-0.12l0.025,-0.119l0.029,-0.119l0.031,-0.119l0.034,-0.116l0.037,-0.117l0.04,-0.116l0.042,-0.113l0.045,-0.114l0.048,-0.112l0.051,-0.111l0.054,-0.109l0.056,-0.108l0.058,-0.107l0.062,-0.106l0.064,-0.104l0.067,-0.103l0.069,-0.101l0.072,-0.1l0.074,-0.097l0.077,-0.096l0.079,-0.095l0.082,-0.093l0.084,-0.091l0.087,-0.088l0.089,-0.087l0.09,-0.084l0.093,-0.082l0.094,-0.079l0.097,-0.077l0.097,-0.074l0.1,-0.072l0.101,-0.07l0.103,-0.066l0.104,-0.064l0.105,-0.062l0.107,-0.058l0.109,-0.056l0.109,-0.054l0.111,-0.051l0.112,-0.048l0.113,-0.045l0.115,-0.043l0.115,-0.039l0.116,-0.037l0.118,-0.034l0.118,-0.031l0.119,-0.029l0.119,-0.025l0.121,-0.023l0.121,-0.019l0.122,-0.017l0.122,-0.014l0.123,-0.01l0.123,-0.008l0.124,-0.005l0.112,-0.001l2.014,0l0,7Zm-2.002,-5l-0.074,0.001l-0.075,0.003l-0.074,0.004l-0.073,0.007l-0.074,0.008l-0.073,0.01l-0.072,0.012l-0.073,0.013l-0.071,0.015l-0.072,0.017l-0.071,0.019l-0.07,0.021l-0.07,0.022l-0.069,0.024l-0.068,0.025l-0.068,0.027l-0.067,0.029l-0.067,0.03l-0.066,0.033l-0.065,0.033l-0.064,0.035l-0.063,0.037l-0.063,0.039l-0.061,0.04l-0.061,0.041l-0.06,0.043l-0.058,0.045l-0.058,0.046l-0.057,0.048l-0.055,0.049l-0.055,0.05l-0.053,0.052l-0.052,0.053l-0.05,0.055l-0.049,0.055l-0.048,0.057l-0.046,0.058l-0.045,0.058l-0.043,0.06l-0.041,0.061l-0.04,0.061l-0.039,0.063l-0.037,0.063l-0.035,0.064l-0.033,0.065l-0.033,0.066l-0.03,0.067l-0.029,0.067l-0.027,0.068l-0.025,0.068l-0.024,0.069l-0.022,0.07l-0.021,0.07l-0.019,0.071l-0.017,0.072l-0.015,0.071l-0.013,0.073l-0.012,0.072l-0.01,0.073l-0.008,0.074l-0.007,0.073l-0.004,0.074l-0.003,0.075l-0.001,0.074l0,0.002l3,0l0,-3l-0.002,0Z"/><path d="M14,11l1,-1l2,2l-2,1l-1,-2Z" style="fill:#fbc546;"/><path d="M20.01,12.181l-0.097,0.599l-5.807,2.903l-2.539,-5.078l3.433,-3.433l5.01,5.009Zm-6.01,-1.181l1,2l2,-1l-2,-2l-1,1Z"/></g></g></svg>