<?xml version="1.0" encoding="UTF-8" standalone="no"?><!DOCTYPE svg PUBLIC "-//W3C//DTD SVG 1.1//EN" "http://www.w3.org/Graphics/SVG/1.1/DTD/svg11.dtd"><svg width="100%" height="100%" viewBox="0 0 32 32" version="1.1" xmlns="http://www.w3.org/2000/svg" xmlns:xlink="http://www.w3.org/1999/xlink" xml:space="preserve" xmlns:serif="http://www.serif.com/" style="fill-rule:evenodd;clip-rule:evenodd;stroke-linejoin:round;stroke-miterlimit:1.41421;">
<metadata>
<rdf:RDF xmlns:cc="http://web.resource.org/cc/"
         xmlns:rdf="http://www.w3.org/1999/02/22-rdf-syntax-ns#"
         xmlns:dc = "http://purl.org/dc/elements/1.1/"
         >

     <rdf:Description rdf:about="">
       <dc:title>Mutant Standard S3</dc:title>
     </rdf:Description>

    <cc:work rdf:about="">
        <cc:license rdf:resource="http://creativecommons.org/licenses/by-nc-sa/4.0/"/>
        <cc:attributionName>Dzuk</cc:attributionName>
        <cc:attributionURL>http://mutant.tech/</cc:attributionURL>
    </cc:work>

</rdf:RDF>
</metadata>
<rect id="thinking_fire" x="0" y="0" width="32" height="32" style="fill:none;"/><clipPath id="_clip1"><rect x="0" y="0" width="32" height="32"/></clipPath><g clip-path="url(#_clip1)"><g id="outline"><path d="M14.68,2.001l0.18,0.003l0.18,0.006l0.179,0.008l0.179,0.01l0.179,0.012l0.178,0.014l0.178,0.017l0.178,0.019l0.177,0.021l0.177,0.023l0.176,0.025l0.176,0.027l0.176,0.03l0.175,0.031l0.174,0.034l0.174,0.036l0.173,0.038l0.173,0.04l0.172,0.042l0.172,0.045l0.171,0.046l0.17,0.048l0.17,0.051l0.169,0.052l0.169,0.055l0.167,0.056l0.167,0.059l0.166,0.061l0.166,0.062l0.164,0.065l0.164,0.067l0.163,0.068l0.162,0.071l0.161,0.073l0.161,0.074l0.159,0.077l0.159,0.078l0.157,0.081l0.157,0.082l0.156,0.084l0.154,0.087l0.154,0.088l0.153,0.09l0.151,0.092l0.151,0.094l0.149,0.096l0.149,0.097l0.147,0.1l0.146,0.101l0.145,0.103l0.144,0.105l0.142,0.107l0.142,0.109l0.14,0.11l0.139,0.113l0.137,0.114l0.136,0.116l0.135,0.118l0.134,0.119l0.132,0.121l0.131,0.124l0.13,0.124l0.128,0.127l0.127,0.128l0.124,0.13l0.124,0.131l0.121,0.132l0.119,0.134l0.118,0.135l0.116,0.136l0.114,0.137l0.113,0.139l0.11,0.14l0.109,0.142l0.107,0.142l0.105,0.144l0.103,0.145l0.101,0.146l0.1,0.147l0.097,0.149l0.096,0.149l0.094,0.151l0.092,0.151l0.09,0.153l0.088,0.154l0.087,0.154l0.084,0.156l0.082,0.157l0.081,0.157l0.078,0.159l0.077,0.159l0.074,0.161l0.073,0.161l0.071,0.162l0.068,0.163l0.067,0.164l0.065,0.164l0.062,0.166l0.061,0.166l0.059,0.167l0.056,0.167l0.055,0.169l0.052,0.169l0.051,0.17l0.048,0.17l0.046,0.171l0.045,0.172l0.042,0.172l0.04,0.173l0.038,0.173l0.036,0.174l0.034,0.174l0.031,0.175l0.03,0.176l0.027,0.176l0.025,0.176l0.023,0.177l0.021,0.177l0.019,0.178l0.017,0.178l0.014,0.178l0.012,0.179l0.01,0.179l0.008,0.179l0.006,0.18l0.003,0.18l0.001,0.174l0,0.512l-0.001,0.155l-0.003,0.162l-0.005,0.161l-0.007,0.161l-0.009,0.16l-0.011,0.16l-0.013,0.16l-0.015,0.16l-0.016,0.159l-0.019,0.159l-0.021,0.159l-0.022,0.158l-0.025,0.157l-0.026,0.158l-0.029,0.157l-0.03,0.156l-0.032,0.156l-0.034,0.155l-0.036,0.155l-0.038,0.155l-0.04,0.154l-0.041,0.153l-0.044,0.153l-0.045,0.152l-0.047,0.151l-0.049,0.151l-0.051,0.151l-0.052,0.149l-0.055,0.149l-0.056,0.149l-0.058,0.147l-0.06,0.147l-0.061,0.146l-0.063,0.145l-0.066,0.145l-0.066,0.144l-0.069,0.143l-0.07,0.142l-0.073,0.141l-0.073,0.141l-0.076,0.139l-0.077,0.139l-0.079,0.138l-0.081,0.136l-0.083,0.136l-0.084,0.135l-0.086,0.134l-0.087,0.133l-0.089,0.132l-0.091,0.131l-0.093,0.13l-0.094,0.129l-0.096,0.128l-0.097,0.127l-0.099,0.125l-0.101,0.125l-0.102,0.123l-0.104,0.122l-0.106,0.122l-0.107,0.119l-0.109,0.119l-0.11,0.117l-0.112,0.117l-0.114,0.114l-0.114,0.114l-0.117,0.112l-0.117,0.11l-0.119,0.109l-0.119,0.107l-0.121,0.106l-0.123,0.104l-0.123,0.102l-0.125,0.101l-0.125,0.099l-0.127,0.097l-0.128,0.096l-0.129,0.094l-0.13,0.093l-0.131,0.091l-0.132,0.089l-0.133,0.087l-0.134,0.086l-0.135,0.084l-0.136,0.083l-0.136,0.081l-0.138,0.079l-0.139,0.077l-0.139,0.076l-0.141,0.073l-0.141,0.073l-0.142,0.07l-0.143,0.069l-0.144,0.066l-0.145,0.066l-0.145,0.063l-0.146,0.061l-0.147,0.06l-0.148,0.058l-0.148,0.056l-0.149,0.055l-0.149,0.052l-0.151,0.051l-0.151,0.049l-0.151,0.047l-0.152,0.045l-0.153,0.044l-0.153,0.041l-0.154,0.04l-0.155,0.038l-0.155,0.036l-0.155,0.034l-0.156,0.032l-0.156,0.03l-0.157,0.029l-0.158,0.026l-0.157,0.025l-0.158,0.022l-0.159,0.021l-0.159,0.019l-0.159,0.016l-0.16,0.015l-0.16,0.013l-0.16,0.011l-0.16,0.009l-0.161,0.007l-0.161,0.005l-0.162,0.003l-0.155,0.001l-3.012,0l-0.155,-0.001l-0.162,-0.003l-0.161,-0.005l-0.161,-0.007l-0.16,-0.009l-0.16,-0.011l-0.16,-0.013l-0.16,-0.015l-0.159,-0.016l-0.159,-0.019l-0.159,-0.021l-0.158,-0.022l-0.157,-0.025l-0.158,-0.026l-0.157,-0.029l-0.156,-0.03l-0.156,-0.032l-0.155,-0.034l-0.155,-0.036l-0.155,-0.038l-0.154,-0.04l-0.153,-0.041l-0.153,-0.044l-0.152,-0.045l-0.151,-0.047l-0.151,-0.049l-0.151,-0.051l-0.149,-0.052l-0.149,-0.055l-0.148,-0.056l-0.148,-0.058l-0.147,-0.06l-0.146,-0.061l-0.145,-0.063l-0.145,-0.066l-0.144,-0.066l-0.143,-0.069l-0.142,-0.07l-0.141,-0.073l-0.141,-0.073l-0.139,-0.076l-0.139,-0.077l-0.138,-0.079l-0.136,-0.081l-0.136,-0.083l-0.135,-0.084l-0.134,-0.086l-0.133,-0.087l-0.132,-0.089l-0.131,-0.091l-0.13,-0.093l-0.129,-0.094l-0.128,-0.096l-0.127,-0.097l-0.125,-0.099l-0.125,-0.101l-0.123,-0.102l-0.123,-0.104l-0.121,-0.106l-0.119,-0.107l-0.119,-0.109l-0.117,-0.11l-0.117,-0.112l-0.114,-0.114l-0.114,-0.114l-0.112,-0.117l-0.11,-0.117l-0.109,-0.119l-0.107,-0.119l-0.106,-0.122l-0.104,-0.122l-0.102,-0.123l-0.101,-0.125l-0.099,-0.125l-0.097,-0.127l-0.096,-0.128l-0.094,-0.129l-0.093,-0.13l-0.091,-0.131l-0.089,-0.132l-0.087,-0.133l-0.086,-0.134l-0.084,-0.135l-0.083,-0.136l-0.081,-0.136l-0.079,-0.138l-0.077,-0.139l-0.076,-0.139l-0.073,-0.141l-0.073,-0.141l-0.07,-0.142l-0.069,-0.143l-0.066,-0.144l-0.066,-0.145l-0.063,-0.145l-0.061,-0.146l-0.06,-0.147l-0.058,-0.148l-0.056,-0.148l-0.055,-0.149l-0.052,-0.149l-0.051,-0.151l-0.049,-0.151l-0.047,-0.151l-0.045,-0.152l-0.044,-0.153l-0.041,-0.153l-0.04,-0.154l-0.038,-0.155l-0.036,-0.155l-0.034,-0.155l-0.032,-0.156l-0.03,-0.156l-0.029,-0.157l-0.026,-0.158l-0.025,-0.157l-0.022,-0.158l-0.021,-0.159l-0.019,-0.159l-0.016,-0.159l-0.015,-0.16l-0.013,-0.16l-0.011,-0.16l-0.009,-0.16l-0.007,-0.161l-0.005,-0.161l-0.003,-0.162l-0.001,-0.155l0,-0.512l0.001,-0.174l0.003,-0.18l0.006,-0.18l0.008,-0.179l0.01,-0.179l0.012,-0.179l0.014,-0.178l0.017,-0.178l0.019,-0.178l0.021,-0.177l0.023,-0.177l0.025,-0.176l0.027,-0.176l0.03,-0.176l0.031,-0.175l0.034,-0.174l0.036,-0.174l0.038,-0.173l0.04,-0.173l0.042,-0.172l0.045,-0.172l0.046,-0.171l0.048,-0.17l0.051,-0.17l0.052,-0.169l0.055,-0.169l0.056,-0.167l0.059,-0.167l0.061,-0.166l0.062,-0.166l0.065,-0.164l0.067,-0.164l0.068,-0.163l0.071,-0.162l0.073,-0.161l0.074,-0.161l0.077,-0.159l0.078,-0.159l0.081,-0.157l0.082,-0.157l0.084,-0.156l0.087,-0.154l0.088,-0.154l0.09,-0.153l0.092,-0.151l0.094,-0.151l0.096,-0.149l0.097,-0.149l0.1,-0.147l0.101,-0.146l0.103,-0.145l0.105,-0.144l0.107,-0.142l0.109,-0.142l0.11,-0.14l0.113,-0.139l0.114,-0.137l0.116,-0.136l0.118,-0.135l0.119,-0.134l0.121,-0.132l0.124,-0.131l0.124,-0.13l0.127,-0.128l0.128,-0.127l0.13,-0.124l0.131,-0.124l0.132,-0.121l0.134,-0.119l0.135,-0.118l0.136,-0.116l0.137,-0.114l0.139,-0.113l0.14,-0.11l0.142,-0.109l0.142,-0.107l0.144,-0.105l0.145,-0.103l0.146,-0.101l0.147,-0.1l0.149,-0.097l0.149,-0.096l0.151,-0.094l0.151,-0.092l0.153,-0.09l0.154,-0.088l0.154,-0.087l0.156,-0.084l0.157,-0.082l0.157,-0.081l0.159,-0.078l0.159,-0.077l0.161,-0.074l0.161,-0.073l0.162,-0.071l0.163,-0.068l0.164,-0.067l0.164,-0.065l0.166,-0.062l0.166,-0.061l0.167,-0.059l0.167,-0.056l0.169,-0.055l0.169,-0.052l0.17,-0.051l0.17,-0.048l0.171,-0.046l0.172,-0.045l0.172,-0.042l0.173,-0.04l0.173,-0.038l0.174,-0.036l0.174,-0.034l0.175,-0.031l0.176,-0.03l0.176,-0.027l0.176,-0.025l0.177,-0.023l0.177,-0.021l0.178,-0.019l0.178,-0.017l0.178,-0.014l0.179,-0.012l0.179,-0.01l0.179,-0.008l0.18,-0.006l0.18,-0.003l0.174,-0.001l0.012,0l0.174,0.001Zm-0.31,4l-0.131,0.002l-0.13,0.004l-0.13,0.006l-0.129,0.007l-0.13,0.009l-0.129,0.01l-0.129,0.012l-0.128,0.014l-0.129,0.015l-0.128,0.017l-0.128,0.018l-0.127,0.02l-0.127,0.021l-0.127,0.023l-0.126,0.025l-0.126,0.026l-0.125,0.027l-0.126,0.029l-0.124,0.031l-0.125,0.032l-0.123,0.033l-0.124,0.035l-0.123,0.037l-0.122,0.038l-0.122,0.039l-0.121,0.041l-0.121,0.043l-0.121,0.044l-0.119,0.045l-0.12,0.047l-0.118,0.048l-0.118,0.05l-0.118,0.051l-0.116,0.053l-0.116,0.054l-0.116,0.055l-0.115,0.057l-0.114,0.058l-0.113,0.06l-0.113,0.061l-0.112,0.063l-0.111,0.063l-0.111,0.066l-0.11,0.066l-0.109,0.068l-0.108,0.069l-0.107,0.071l-0.107,0.072l-0.106,0.074l-0.105,0.074l-0.104,0.076l-0.103,0.078l-0.102,0.078l-0.102,0.081l-0.1,0.081l-0.1,0.083l-0.099,0.083l-0.097,0.086l-0.097,0.086l-0.096,0.088l-0.095,0.089l-0.094,0.091l-0.093,0.091l-0.091,0.093l-0.091,0.094l-0.089,0.095l-0.088,0.096l-0.086,0.097l-0.086,0.097l-0.083,0.099l-0.083,0.1l-0.081,0.1l-0.081,0.102l-0.078,0.102l-0.078,0.103l-0.076,0.104l-0.074,0.105l-0.074,0.106l-0.072,0.107l-0.071,0.107l-0.069,0.108l-0.068,0.109l-0.066,0.11l-0.066,0.111l-0.063,0.111l-0.063,0.112l-0.061,0.113l-0.06,0.113l-0.058,0.114l-0.057,0.115l-0.055,0.116l-0.054,0.116l-0.053,0.116l-0.051,0.118l-0.05,0.118l-0.048,0.118l-0.047,0.12l-0.045,0.119l-0.044,0.121l-0.043,0.121l-0.041,0.121l-0.039,0.122l-0.038,0.122l-0.037,0.123l-0.035,0.124l-0.033,0.123l-0.032,0.125l-0.031,0.124l-0.029,0.126l-0.027,0.125l-0.026,0.126l-0.025,0.126l-0.023,0.127l-0.021,0.127l-0.02,0.127l-0.018,0.128l-0.017,0.128l-0.015,0.129l-0.014,0.128l-0.012,0.129l-0.01,0.129l-0.009,0.13l-0.007,0.129l-0.006,0.13l-0.004,0.13l-0.002,0.131l-0.001,0.136l0,0.488l0.001,0.118l0.002,0.112l0.003,0.111l0.005,0.111l0.006,0.111l0.008,0.111l0.009,0.111l0.01,0.111l0.012,0.11l0.013,0.11l0.014,0.11l0.016,0.109l0.017,0.109l0.018,0.109l0.02,0.109l0.021,0.108l0.022,0.108l0.023,0.108l0.025,0.107l0.026,0.107l0.028,0.106l0.029,0.106l0.03,0.106l0.031,0.105l0.033,0.105l0.034,0.105l0.035,0.104l0.036,0.104l0.038,0.103l0.039,0.102l0.04,0.102l0.041,0.102l0.043,0.101l0.044,0.101l0.045,0.1l0.046,0.1l0.047,0.099l0.049,0.098l0.05,0.098l0.051,0.097l0.053,0.097l0.053,0.096l0.055,0.095l0.056,0.095l0.057,0.094l0.058,0.093l0.06,0.093l0.06,0.092l0.062,0.092l0.063,0.09l0.064,0.09l0.065,0.089l0.066,0.089l0.068,0.088l0.068,0.087l0.07,0.086l0.071,0.085l0.072,0.085l0.073,0.084l0.074,0.082l0.076,0.083l0.076,0.081l0.077,0.08l0.079,0.08l0.08,0.079l0.08,0.077l0.081,0.076l0.083,0.076l0.082,0.074l0.084,0.073l0.085,0.072l0.085,0.071l0.086,0.07l0.087,0.068l0.088,0.068l0.089,0.066l0.089,0.065l0.09,0.064l0.09,0.063l0.092,0.062l0.092,0.06l0.093,0.06l0.093,0.058l0.094,0.057l0.095,0.056l0.095,0.055l0.096,0.053l0.097,0.053l0.097,0.051l0.098,0.05l0.098,0.048l0.099,0.048l0.1,0.046l0.1,0.045l0.101,0.044l0.101,0.043l0.102,0.041l0.102,0.04l0.102,0.039l0.104,0.038l0.103,0.036l0.104,0.035l0.105,0.034l0.105,0.033l0.105,0.031l0.106,0.03l0.106,0.029l0.106,0.028l0.107,0.026l0.107,0.025l0.108,0.023l0.108,0.022l0.108,0.021l0.109,0.02l0.109,0.018l0.109,0.017l0.109,0.016l0.11,0.014l0.11,0.013l0.11,0.012l0.111,0.01l0.111,0.009l0.111,0.008l0.111,0.006l0.111,0.005l0.111,0.003l0.112,0.002l0.118,0.001l2.988,0l0.118,-0.001l0.112,-0.002l0.111,-0.003l0.111,-0.005l0.111,-0.006l0.111,-0.008l0.111,-0.009l0.111,-0.01l0.11,-0.012l0.11,-0.013l0.11,-0.014l0.109,-0.016l0.109,-0.017l0.109,-0.018l0.109,-0.02l0.108,-0.021l0.108,-0.022l0.108,-0.023l0.107,-0.025l0.107,-0.026l0.106,-0.028l0.106,-0.029l0.106,-0.03l0.105,-0.031l0.105,-0.033l0.105,-0.034l0.104,-0.035l0.104,-0.036l0.103,-0.038l0.102,-0.039l0.102,-0.04l0.102,-0.041l0.101,-0.043l0.101,-0.044l0.1,-0.045l0.1,-0.046l0.099,-0.048l0.098,-0.048l0.098,-0.05l0.097,-0.051l0.097,-0.053l0.096,-0.053l0.095,-0.055l0.095,-0.056l0.094,-0.057l0.093,-0.058l0.093,-0.06l0.092,-0.06l0.092,-0.062l0.09,-0.063l0.09,-0.064l0.089,-0.065l0.089,-0.066l0.088,-0.068l0.087,-0.068l0.086,-0.07l0.085,-0.071l0.085,-0.072l0.084,-0.073l0.082,-0.074l0.083,-0.076l0.081,-0.076l0.08,-0.077l0.08,-0.079l0.079,-0.08l0.077,-0.08l0.076,-0.081l0.076,-0.083l0.074,-0.082l0.073,-0.084l0.072,-0.085l0.071,-0.085l0.07,-0.086l0.068,-0.087l0.068,-0.088l0.066,-0.089l0.065,-0.089l0.064,-0.09l0.063,-0.09l0.062,-0.092l0.06,-0.092l0.06,-0.093l0.058,-0.093l0.057,-0.094l0.056,-0.095l0.055,-0.095l0.053,-0.096l0.053,-0.097l0.051,-0.097l0.05,-0.098l0.049,-0.098l0.047,-0.099l0.046,-0.1l0.045,-0.1l0.044,-0.101l0.043,-0.101l0.041,-0.102l0.04,-0.102l0.039,-0.102l0.038,-0.103l0.036,-0.104l0.035,-0.104l0.034,-0.105l0.033,-0.105l0.031,-0.105l0.03,-0.106l0.029,-0.106l0.028,-0.106l0.026,-0.107l0.025,-0.107l0.023,-0.108l0.022,-0.108l0.021,-0.108l0.02,-0.109l0.018,-0.109l0.017,-0.109l0.016,-0.109l0.014,-0.11l0.013,-0.11l0.012,-0.11l0.01,-0.111l0.009,-0.111l0.008,-0.111l0.006,-0.111l0.005,-0.111l0.003,-0.111l0.002,-0.112l0.001,-0.118l0,-0.488l-0.001,-0.136l-0.002,-0.131l-0.004,-0.13l-0.006,-0.13l-0.007,-0.129l-0.009,-0.13l-0.01,-0.129l-0.012,-0.129l-0.014,-0.128l-0.015,-0.129l-0.017,-0.128l-0.018,-0.128l-0.02,-0.127l-0.021,-0.127l-0.023,-0.127l-0.025,-0.126l-0.026,-0.126l-0.027,-0.125l-0.029,-0.126l-0.031,-0.124l-0.032,-0.125l-0.033,-0.123l-0.035,-0.124l-0.037,-0.123l-0.038,-0.122l-0.039,-0.122l-0.041,-0.121l-0.043,-0.121l-0.044,-0.121l-0.045,-0.119l-0.047,-0.12l-0.048,-0.118l-0.05,-0.118l-0.051,-0.118l-0.053,-0.116l-0.054,-0.116l-0.055,-0.116l-0.057,-0.115l-0.058,-0.114l-0.06,-0.113l-0.061,-0.113l-0.063,-0.112l-0.063,-0.111l-0.066,-0.111l-0.066,-0.11l-0.068,-0.109l-0.069,-0.108l-0.071,-0.107l-0.072,-0.107l-0.074,-0.106l-0.074,-0.105l-0.076,-0.104l-0.078,-0.103l-0.078,-0.102l-0.081,-0.102l-0.081,-0.1l-0.083,-0.1l-0.083,-0.099l-0.086,-0.097l-0.086,-0.097l-0.088,-0.096l-0.089,-0.095l-0.091,-0.094l-0.091,-0.093l-0.093,-0.091l-0.094,-0.091l-0.095,-0.089l-0.096,-0.088l-0.097,-0.086l-0.097,-0.086l-0.099,-0.083l-0.1,-0.083l-0.1,-0.081l-0.102,-0.081l-0.102,-0.078l-0.103,-0.078l-0.104,-0.076l-0.105,-0.074l-0.106,-0.074l-0.107,-0.072l-0.107,-0.071l-0.108,-0.069l-0.109,-0.068l-0.11,-0.066l-0.111,-0.066l-0.111,-0.063l-0.112,-0.063l-0.113,-0.061l-0.113,-0.06l-0.114,-0.058l-0.115,-0.057l-0.116,-0.055l-0.116,-0.054l-0.116,-0.053l-0.118,-0.051l-0.118,-0.05l-0.118,-0.048l-0.12,-0.047l-0.119,-0.045l-0.121,-0.044l-0.121,-0.043l-0.121,-0.041l-0.122,-0.039l-0.122,-0.038l-0.123,-0.037l-0.124,-0.035l-0.123,-0.033l-0.125,-0.032l-0.124,-0.031l-0.126,-0.029l-0.125,-0.027l-0.126,-0.026l-0.126,-0.025l-0.127,-0.023l-0.127,-0.021l-0.127,-0.02l-0.128,-0.018l-0.128,-0.017l-0.129,-0.015l-0.128,-0.014l-0.129,-0.012l-0.129,-0.01l-0.13,-0.009l-0.129,-0.007l-0.13,-0.006l-0.13,-0.004l-0.131,-0.002l-0.13,-0.001l-0.13,0.001Z"/><path d="M28,12.195l-0.001,0.112l-0.005,0.125l-0.008,0.124l-0.01,0.124l-0.014,0.123l-0.017,0.123l-0.02,0.121l-0.022,0.122l-0.026,0.12l-0.029,0.12l-0.031,0.119l-0.034,0.118l-0.038,0.117l-0.039,0.116l-0.043,0.115l-0.046,0.114l-0.048,0.113l-0.051,0.111l-0.054,0.111l-0.057,0.109l-0.059,0.108l-0.062,0.106l-0.064,0.105l-0.067,0.103l-0.07,0.102l-0.072,0.1l-0.075,0.099l-0.077,0.096l-0.08,0.096l-0.083,0.093l-0.084,0.091l-0.088,0.09l-0.089,0.087l-0.091,0.084l-0.094,0.083l-0.095,0.08l-0.096,0.077l-0.099,0.075l-0.1,0.072l-0.102,0.07l-0.103,0.067l-0.105,0.064l-0.107,0.062l-0.107,0.059l-0.109,0.057l-0.111,0.054l-0.111,0.051l-0.113,0.048l-0.114,0.046l-0.115,0.043l-0.116,0.04l-0.117,0.037l-0.118,0.034l-0.119,0.031l-0.12,0.029l-0.12,0.026l-0.122,0.022l-0.122,0.02l-0.122,0.017l-0.123,0.014l-0.124,0.01l-0.124,0.008l-0.125,0.005l-0.112,0.001l-3.981,0l0,-9.195l0.001,-0.112l0.005,-0.125l0.008,-0.124l0.01,-0.124l0.014,-0.123l0.017,-0.122l0.02,-0.122l0.022,-0.122l0.026,-0.12l0.029,-0.12l0.031,-0.119l0.034,-0.118l0.038,-0.117l0.04,-0.116l0.042,-0.115l0.046,-0.114l0.048,-0.113l0.051,-0.111l0.054,-0.111l0.057,-0.109l0.059,-0.107l0.062,-0.107l0.064,-0.105l0.067,-0.103l0.07,-0.102l0.072,-0.1l0.075,-0.099l0.077,-0.096l0.08,-0.095l0.083,-0.094l0.084,-0.091l0.088,-0.089l0.089,-0.088l0.091,-0.084l0.094,-0.083l0.095,-0.08l0.096,-0.077l0.099,-0.075l0.1,-0.072l0.102,-0.07l0.103,-0.067l0.105,-0.064l0.107,-0.062l0.107,-0.059l0.109,-0.057l0.111,-0.054l0.111,-0.051l0.113,-0.048l0.114,-0.046l0.115,-0.042l0.116,-0.04l0.117,-0.038l0.118,-0.034l0.119,-0.031l0.12,-0.029l0.12,-0.026l0.122,-0.022l0.122,-0.02l0.122,-0.017l0.123,-0.014l0.124,-0.01l0.124,-0.008l0.125,-0.005l0.112,-0.001l3.981,0l0,9.195Zm-3.968,-7.195l-0.076,0.001l-0.075,0.003l-0.075,0.004l-0.074,0.007l-0.074,0.008l-0.074,0.01l-0.074,0.012l-0.073,0.014l-0.072,0.015l-0.072,0.017l-0.072,0.019l-0.071,0.021l-0.071,0.022l-0.07,0.025l-0.069,0.025l-0.069,0.028l-0.068,0.029l-0.067,0.031l-0.066,0.032l-0.066,0.034l-0.065,0.036l-0.064,0.037l-0.063,0.039l-0.062,0.04l-0.062,0.042l-0.06,0.044l-0.059,0.045l-0.059,0.047l-0.057,0.048l-0.056,0.049l-0.055,0.051l-0.054,0.053l-0.053,0.054l-0.051,0.055l-0.049,0.056l-0.048,0.057l-0.047,0.059l-0.045,0.059l-0.044,0.06l-0.042,0.062l-0.04,0.062l-0.039,0.063l-0.037,0.064l-0.036,0.065l-0.034,0.066l-0.032,0.066l-0.031,0.067l-0.029,0.068l-0.028,0.069l-0.025,0.069l-0.025,0.07l-0.022,0.071l-0.021,0.071l-0.019,0.072l-0.017,0.072l-0.015,0.072l-0.014,0.073l-0.012,0.074l-0.01,0.074l-0.008,0.074l-0.007,0.074l-0.004,0.075l-0.003,0.075l-0.001,0.076l0,7.182l1.968,0l0.076,-0.001l0.075,-0.003l0.075,-0.004l0.074,-0.007l0.074,-0.008l0.074,-0.01l0.074,-0.012l0.073,-0.014l0.072,-0.015l0.072,-0.017l0.072,-0.019l0.071,-0.021l0.071,-0.022l0.07,-0.024l0.069,-0.026l0.069,-0.028l0.068,-0.029l0.067,-0.031l0.066,-0.032l0.066,-0.034l0.065,-0.036l0.064,-0.037l0.063,-0.039l0.062,-0.04l0.062,-0.042l0.06,-0.044l0.059,-0.045l0.059,-0.046l0.057,-0.049l0.056,-0.049l0.055,-0.051l0.054,-0.053l0.053,-0.054l0.051,-0.055l0.049,-0.056l0.048,-0.057l0.047,-0.059l0.045,-0.059l0.044,-0.06l0.042,-0.062l0.04,-0.062l0.039,-0.063l0.037,-0.064l0.036,-0.065l0.034,-0.066l0.032,-0.066l0.031,-0.067l0.029,-0.068l0.028,-0.069l0.025,-0.069l0.025,-0.07l0.022,-0.071l0.021,-0.071l0.019,-0.072l0.017,-0.072l0.015,-0.072l0.014,-0.073l0.012,-0.074l0.01,-0.074l0.008,-0.074l0.007,-0.074l0.004,-0.075l0.003,-0.075l0.001,-0.075l0,-7.183l-1.968,0Z"/><path d="M31,15.981l-0.001,0.112l-0.005,0.125l-0.008,0.124l-0.01,0.124l-0.014,0.123l-0.017,0.122l-0.02,0.122l-0.022,0.122l-0.026,0.12l-0.029,0.12l-0.031,0.119l-0.034,0.118l-0.038,0.117l-0.039,0.116l-0.043,0.115l-0.046,0.114l-0.048,0.113l-0.051,0.111l-0.054,0.111l-0.057,0.109l-0.059,0.107l-0.062,0.107l-0.064,0.105l-0.067,0.103l-0.07,0.102l-0.072,0.1l-0.075,0.099l-0.077,0.096l-0.08,0.095l-0.083,0.094l-0.084,0.091l-0.088,0.089l-0.089,0.088l-0.091,0.084l-0.094,0.083l-0.095,0.08l-0.096,0.077l-0.099,0.075l-0.1,0.072l-0.102,0.07l-0.103,0.067l-0.105,0.064l-0.106,0.062l-0.108,0.059l-0.109,0.057l-0.111,0.054l-0.111,0.051l-0.113,0.048l-0.114,0.046l-0.115,0.042l-0.116,0.04l-0.117,0.038l-0.118,0.034l-0.119,0.031l-0.12,0.029l-0.12,0.026l-0.122,0.022l-0.122,0.02l-0.122,0.017l-0.123,0.014l-0.124,0.01l-0.124,0.008l-0.125,0.005l-0.112,0.001l-4.981,0l0,-7.981l0.001,-0.112l0.005,-0.125l0.008,-0.124l0.01,-0.124l0.014,-0.123l0.017,-0.122l0.02,-0.122l0.022,-0.122l0.026,-0.12l0.029,-0.12l0.031,-0.119l0.034,-0.118l0.038,-0.117l0.039,-0.116l0.043,-0.115l0.046,-0.114l0.048,-0.113l0.051,-0.111l0.054,-0.111l0.057,-0.109l0.059,-0.107l0.062,-0.107l0.064,-0.105l0.067,-0.103l0.07,-0.102l0.072,-0.1l0.075,-0.099l0.077,-0.096l0.08,-0.095l0.083,-0.094l0.084,-0.091l0.088,-0.089l0.089,-0.088l0.091,-0.084l0.094,-0.083l0.095,-0.08l0.096,-0.077l0.099,-0.075l0.1,-0.072l0.102,-0.07l0.103,-0.067l0.105,-0.064l0.107,-0.062l0.107,-0.059l0.109,-0.057l0.111,-0.054l0.111,-0.051l0.113,-0.048l0.114,-0.046l0.115,-0.042l0.116,-0.04l0.117,-0.038l0.118,-0.034l0.119,-0.031l0.12,-0.029l0.12,-0.026l0.122,-0.022l0.122,-0.02l0.122,-0.017l0.123,-0.014l0.124,-0.01l0.124,-0.008l0.125,-0.005l0.112,-0.001l4.981,0l0,7.981Zm-4.968,-5.981l-0.076,0.001l-0.075,0.003l-0.075,0.004l-0.074,0.007l-0.074,0.008l-0.074,0.01l-0.074,0.012l-0.073,0.014l-0.072,0.015l-0.072,0.017l-0.072,0.019l-0.071,0.021l-0.071,0.022l-0.07,0.025l-0.069,0.025l-0.069,0.028l-0.068,0.029l-0.067,0.031l-0.066,0.032l-0.066,0.034l-0.065,0.036l-0.064,0.037l-0.063,0.039l-0.062,0.04l-0.062,0.042l-0.06,0.044l-0.059,0.045l-0.059,0.047l-0.057,0.048l-0.056,0.049l-0.055,0.051l-0.054,0.053l-0.053,0.054l-0.051,0.055l-0.049,0.056l-0.048,0.057l-0.047,0.059l-0.045,0.059l-0.044,0.06l-0.042,0.062l-0.04,0.062l-0.039,0.063l-0.037,0.064l-0.036,0.065l-0.034,0.066l-0.032,0.066l-0.031,0.067l-0.029,0.068l-0.028,0.069l-0.025,0.069l-0.025,0.07l-0.022,0.071l-0.021,0.071l-0.019,0.072l-0.017,0.072l-0.015,0.072l-0.014,0.073l-0.012,0.074l-0.01,0.074l-0.008,0.074l-0.007,0.074l-0.004,0.075l-0.003,0.075l-0.001,0.076l0,5.968l2.968,0l0.076,-0.001l0.075,-0.003l0.075,-0.004l0.074,-0.007l0.074,-0.008l0.074,-0.01l0.074,-0.012l0.073,-0.014l0.072,-0.015l0.072,-0.017l0.072,-0.019l0.071,-0.021l0.071,-0.022l0.07,-0.025l0.069,-0.025l0.069,-0.028l0.068,-0.029l0.067,-0.031l0.066,-0.032l0.066,-0.034l0.065,-0.036l0.064,-0.037l0.063,-0.039l0.062,-0.04l0.062,-0.042l0.06,-0.044l0.059,-0.045l0.059,-0.047l0.057,-0.048l0.056,-0.049l0.055,-0.051l0.054,-0.053l0.053,-0.054l0.051,-0.055l0.049,-0.056l0.048,-0.057l0.047,-0.059l0.045,-0.059l0.044,-0.06l0.042,-0.062l0.04,-0.062l0.039,-0.063l0.037,-0.064l0.036,-0.065l0.034,-0.066l0.032,-0.066l0.031,-0.067l0.029,-0.068l0.028,-0.069l0.025,-0.069l0.025,-0.07l0.022,-0.071l0.021,-0.071l0.019,-0.072l0.017,-0.072l0.015,-0.072l0.014,-0.073l0.012,-0.074l0.01,-0.074l0.008,-0.074l0.007,-0.074l0.004,-0.075l0.003,-0.075l0.001,-0.076l0,-5.968l-2.968,0Z"/><path d="M32,5.727l-0.001,0.111l-0.005,0.124l-0.008,0.123l-0.01,0.123l-0.014,0.123l-0.017,0.121l-0.019,0.122l-0.023,0.12l-0.025,0.12l-0.029,0.119l-0.031,0.118l-0.034,0.117l-0.037,0.117l-0.04,0.115l-0.042,0.114l-0.045,0.114l-0.048,0.112l-0.051,0.111l-0.054,0.109l-0.056,0.109l-0.059,0.107l-0.061,0.105l-0.064,0.104l-0.067,0.103l-0.069,0.101l-0.072,0.1l-0.074,0.098l-0.077,0.096l-0.08,0.094l-0.081,0.093l-0.085,0.091l-0.086,0.089l-0.089,0.086l-0.091,0.085l-0.093,0.081l-0.094,0.08l-0.096,0.077l-0.098,0.074l-0.1,0.072l-0.101,0.069l-0.103,0.067l-0.104,0.064l-0.105,0.061l-0.108,0.059l-0.108,0.056l-0.11,0.054l-0.11,0.051l-0.113,0.048l-0.113,0.045l-0.114,0.042l-0.115,0.04l-0.117,0.037l-0.117,0.034l-0.118,0.031l-0.119,0.029l-0.12,0.025l-0.12,0.023l-0.122,0.019l-0.121,0.017l-0.123,0.014l-0.123,0.01l-0.123,0.008l-0.124,0.005l-0.112,0.001l-2.012,0l0,-5.729l0.001,-0.115l0.005,-0.128l0.008,-0.126l0.012,-0.127l0.014,-0.125l0.017,-0.125l0.021,-0.123l0.023,-0.123l0.027,-0.122l0.029,-0.121l0.033,-0.119l0.035,-0.119l0.038,-0.117l0.041,-0.116l0.043,-0.114l0.046,-0.113l0.049,-0.112l0.052,-0.11l0.054,-0.109l0.056,-0.107l0.059,-0.105l0.062,-0.104l0.064,-0.102l0.066,-0.101l0.068,-0.099l0.071,-0.097l0.073,-0.095l0.075,-0.093l0.077,-0.092l0.08,-0.089l0.081,-0.088l0.084,-0.085l0.085,-0.084l0.088,-0.081l0.089,-0.08l0.092,-0.077l0.093,-0.075l0.095,-0.073l0.097,-0.071l0.099,-0.068l0.101,-0.067l0.102,-0.063l0.104,-0.062l0.105,-0.059l0.107,-0.056l0.109,-0.054l0.11,-0.052l0.112,-0.049l0.113,-0.046l0.115,-0.043l0.115,-0.041l0.117,-0.038l0.119,-0.035l0.119,-0.033l0.121,-0.029l0.122,-0.027l0.123,-0.023l0.123,-0.021l0.125,-0.017l0.125,-0.014l0.127,-0.012l0.126,-0.008l0.128,-0.005l0.115,-0.001l2.015,0l0,5.727Zm-2.002,-3.727l-0.077,0.001l-0.077,0.003l-0.077,0.005l-0.076,0.006l-0.075,0.009l-0.075,0.011l-0.074,0.012l-0.073,0.014l-0.073,0.016l-0.072,0.017l-0.072,0.02l-0.071,0.021l-0.07,0.023l-0.069,0.024l-0.068,0.026l-0.068,0.028l-0.067,0.029l-0.066,0.031l-0.065,0.032l-0.064,0.034l-0.063,0.035l-0.063,0.037l-0.061,0.038l-0.06,0.04l-0.059,0.041l-0.059,0.043l-0.057,0.043l-0.056,0.046l-0.055,0.046l-0.054,0.048l-0.052,0.049l-0.052,0.05l-0.05,0.052l-0.049,0.052l-0.048,0.054l-0.046,0.055l-0.046,0.056l-0.043,0.057l-0.043,0.058l-0.041,0.06l-0.04,0.06l-0.038,0.061l-0.037,0.063l-0.035,0.063l-0.034,0.064l-0.032,0.065l-0.031,0.066l-0.029,0.067l-0.028,0.068l-0.026,0.068l-0.024,0.069l-0.023,0.07l-0.021,0.071l-0.02,0.072l-0.017,0.072l-0.016,0.073l-0.014,0.073l-0.012,0.074l-0.011,0.075l-0.009,0.075l-0.006,0.076l-0.005,0.077l-0.003,0.077l-0.001,0.077l0,3.716l0,0l0.075,-0.001l0.074,-0.003l0.074,-0.004l0.074,-0.007l0.073,-0.008l0.073,-0.01l0.073,-0.012l0.072,-0.013l0.072,-0.015l0.071,-0.017l0.071,-0.019l0.071,-0.021l0.069,-0.022l0.07,-0.024l0.068,-0.025l0.068,-0.027l0.067,-0.029l0.067,-0.031l0.066,-0.032l0.065,-0.033l0.064,-0.036l0.063,-0.036l0.063,-0.039l0.061,-0.04l0.061,-0.042l0.06,-0.043l0.059,-0.044l0.057,-0.046l0.057,-0.048l0.056,-0.049l0.054,-0.051l0.053,-0.052l0.052,-0.053l0.051,-0.054l0.049,-0.056l0.048,-0.057l0.046,-0.057l0.044,-0.059l0.043,-0.06l0.042,-0.061l0.04,-0.061l0.038,-0.063l0.037,-0.063l0.036,-0.064l0.033,-0.065l0.032,-0.066l0.031,-0.067l0.029,-0.067l0.027,-0.068l0.025,-0.068l0.024,-0.07l0.022,-0.069l0.021,-0.071l0.019,-0.071l0.017,-0.071l0.015,-0.072l0.013,-0.072l0.012,-0.073l0.01,-0.073l0.008,-0.073l0.007,-0.074l0.004,-0.074l0.003,-0.074l0.001,-0.075l0,-3.714l-0.002,0Z"/><path d="M25,4.97l-0.001,0.104l-0.002,0.11l-0.003,0.111l-0.005,0.11l-0.006,0.109l-0.008,0.109l-0.009,0.109l-0.01,0.109l-0.012,0.108l-0.013,0.108l-0.014,0.108l-0.016,0.107l-0.017,0.106l-0.018,0.107l-0.02,0.105l-0.021,0.106l-0.022,0.105l-0.023,0.104l-0.025,0.104l-0.026,0.104l-0.027,0.103l-0.029,0.103l-0.029,0.102l-0.031,0.101l-0.032,0.101l-0.034,0.101l-0.034,0.1l-0.036,0.099l-0.037,0.099l-0.038,0.098l-0.039,0.097l-0.04,0.097l-0.042,0.097l-0.042,0.096l-0.044,0.095l-0.045,0.094l-0.046,0.094l-0.047,0.093l-0.048,0.093l-0.049,0.092l-0.05,0.091l-0.052,0.09l-0.052,0.09l-0.053,0.089l-0.055,0.089l-0.055,0.087l-0.057,0.087l-0.057,0.086l-0.059,0.086l-0.059,0.085l-0.061,0.083l-0.061,0.084l-0.062,0.082l-0.064,0.082l-0.064,0.08l-0.065,0.081l-0.067,0.079l-0.067,0.078l-0.068,0.078l-0.069,0.076l-0.069,0.076l-0.071,0.075l-0.072,0.075l-0.072,0.073l-0.074,0.072l-0.074,0.072l-0.075,0.071l-0.076,0.07l-0.076,0.069l-0.078,0.068l-0.078,0.067l-0.08,0.066l-0.08,0.065l-0.08,0.064l-0.082,0.064l-0.083,0.062l-0.083,0.061l-0.084,0.061l-0.084,0.059l-0.086,0.059l-0.086,0.057l-0.087,0.057l-0.088,0.055l-0.088,0.055l-0.089,0.053l-0.09,0.053l-0.09,0.051l-0.092,0.05l-0.091,0.049l-0.093,0.048l-0.093,0.047l-0.094,0.046l-0.094,0.045l-0.096,0.044l-0.095,0.042l-0.097,0.042l-0.097,0.04l-0.097,0.039l-0.098,0.038l-0.099,0.037l-0.1,0.036l-0.099,0.034l-0.101,0.034l-0.101,0.032l-0.101,0.031l-0.103,0.029l-0.102,0.029l-0.103,0.027l-0.104,0.026l-0.104,0.025l-0.104,0.023l-0.105,0.022l-0.106,0.021l-0.106,0.02l-0.106,0.018l-0.107,0.017l-0.107,0.016l-0.107,0.014l-0.108,0.013l-0.108,0.012l-0.109,0.01l-0.109,0.009l-0.109,0.008l-0.11,0.006l-0.11,0.005l-0.11,0.003l-0.11,0.002l-0.105,0.001l-3.398,0l0,-5.112l0.001,-0.105l0.002,-0.11l0.003,-0.11l0.005,-0.11l0.006,-0.11l0.008,-0.109l0.009,-0.109l0.01,-0.109l0.012,-0.108l0.013,-0.108l0.014,-0.107l0.016,-0.107l0.017,-0.107l0.018,-0.106l0.02,-0.106l0.021,-0.106l0.022,-0.105l0.023,-0.104l0.025,-0.104l0.026,-0.104l0.027,-0.103l0.029,-0.102l0.029,-0.102l0.031,-0.102l0.032,-0.101l0.034,-0.1l0.034,-0.1l0.036,-0.1l0.037,-0.098l0.038,-0.099l0.039,-0.097l0.04,-0.097l0.042,-0.097l0.042,-0.095l0.044,-0.096l0.045,-0.094l0.046,-0.094l0.047,-0.093l0.048,-0.093l0.049,-0.091l0.05,-0.092l0.052,-0.09l0.052,-0.09l0.053,-0.089l0.055,-0.088l0.055,-0.088l0.057,-0.087l0.057,-0.086l0.059,-0.086l0.059,-0.084l0.061,-0.084l0.061,-0.083l0.062,-0.083l0.064,-0.081l0.064,-0.081l0.065,-0.08l0.067,-0.08l0.067,-0.078l0.068,-0.078l0.069,-0.076l0.069,-0.076l0.071,-0.075l0.072,-0.074l0.072,-0.074l0.074,-0.072l0.074,-0.072l0.075,-0.071l0.076,-0.069l0.076,-0.069l0.078,-0.068l0.078,-0.067l0.08,-0.067l0.08,-0.065l0.08,-0.064l0.082,-0.063l0.082,-0.063l0.084,-0.061l0.084,-0.061l0.084,-0.059l0.086,-0.059l0.086,-0.057l0.087,-0.057l0.088,-0.055l0.088,-0.055l0.089,-0.053l0.09,-0.052l0.09,-0.052l0.091,-0.05l0.092,-0.049l0.093,-0.048l0.093,-0.047l0.094,-0.046l0.094,-0.045l0.096,-0.044l0.095,-0.042l0.097,-0.042l0.097,-0.04l0.097,-0.039l0.098,-0.038l0.099,-0.037l0.1,-0.036l0.099,-0.034l0.101,-0.034l0.101,-0.032l0.101,-0.031l0.103,-0.029l0.102,-0.029l0.103,-0.027l0.104,-0.026l0.104,-0.025l0.104,-0.023l0.105,-0.022l0.106,-0.021l0.106,-0.02l0.106,-0.018l0.107,-0.017l0.107,-0.016l0.107,-0.014l0.108,-0.013l0.108,-0.012l0.109,-0.01l0.109,-0.009l0.109,-0.008l0.11,-0.006l0.11,-0.005l0.11,-0.003l0.11,-0.002l0.105,-0.001l3.398,0l0,5.113Zm-3.392,-3.113l-0.085,0.001l-0.086,0.001l-0.084,0.003l-0.085,0.004l-0.084,0.004l-0.084,0.006l-0.084,0.007l-0.084,0.008l-0.083,0.009l-0.083,0.01l-0.082,0.011l-0.082,0.012l-0.082,0.013l-0.082,0.014l-0.081,0.015l-0.081,0.016l-0.08,0.017l-0.08,0.018l-0.08,0.019l-0.079,0.02l-0.079,0.021l-0.079,0.022l-0.078,0.022l-0.078,0.024l-0.077,0.025l-0.077,0.025l-0.077,0.027l-0.076,0.027l-0.076,0.028l-0.075,0.029l-0.075,0.03l-0.074,0.031l-0.074,0.032l-0.073,0.033l-0.073,0.033l-0.073,0.035l-0.072,0.035l-0.071,0.036l-0.071,0.037l-0.071,0.038l-0.07,0.038l-0.069,0.04l-0.069,0.04l-0.069,0.041l-0.067,0.041l-0.068,0.043l-0.066,0.043l-0.067,0.045l-0.065,0.044l-0.065,0.046l-0.065,0.047l-0.064,0.047l-0.063,0.048l-0.063,0.048l-0.062,0.05l-0.061,0.05l-0.061,0.051l-0.06,0.051l-0.06,0.053l-0.059,0.053l-0.058,0.053l-0.058,0.055l-0.057,0.055l-0.057,0.055l-0.055,0.057l-0.055,0.057l-0.055,0.058l-0.053,0.058l-0.053,0.059l-0.053,0.06l-0.051,0.06l-0.051,0.061l-0.05,0.061l-0.05,0.062l-0.048,0.063l-0.048,0.063l-0.047,0.064l-0.047,0.065l-0.046,0.065l-0.044,0.065l-0.045,0.067l-0.043,0.066l-0.043,0.068l-0.041,0.068l-0.041,0.068l-0.041,0.069l-0.039,0.069l-0.038,0.07l-0.038,0.071l-0.037,0.071l-0.036,0.071l-0.035,0.072l-0.035,0.073l-0.033,0.073l-0.033,0.073l-0.032,0.074l-0.031,0.074l-0.03,0.075l-0.029,0.075l-0.028,0.076l-0.027,0.076l-0.027,0.077l-0.025,0.077l-0.025,0.077l-0.024,0.078l-0.022,0.078l-0.022,0.079l-0.021,0.079l-0.02,0.079l-0.019,0.08l-0.018,0.08l-0.017,0.08l-0.016,0.081l-0.015,0.081l-0.014,0.082l-0.013,0.082l-0.012,0.082l-0.011,0.082l-0.01,0.083l-0.009,0.083l-0.008,0.084l-0.007,0.084l-0.006,0.084l-0.004,0.084l-0.004,0.085l-0.003,0.084l-0.001,0.086l-0.001,0.085l0,3.106l1.392,0l0.085,0l0.086,-0.002l0.084,-0.003l0.085,-0.003l0.084,-0.005l0.084,-0.006l0.084,-0.007l0.084,-0.008l0.083,-0.009l0.083,-0.01l0.082,-0.011l0.082,-0.012l0.082,-0.013l0.082,-0.014l0.081,-0.015l0.081,-0.016l0.08,-0.017l0.08,-0.018l0.08,-0.019l0.079,-0.02l0.079,-0.021l0.079,-0.022l0.078,-0.022l0.078,-0.024l0.077,-0.025l0.077,-0.025l0.077,-0.026l0.076,-0.028l0.076,-0.028l0.075,-0.029l0.075,-0.03l0.074,-0.031l0.074,-0.032l0.073,-0.033l0.073,-0.033l0.073,-0.034l0.072,-0.036l0.071,-0.036l0.071,-0.037l0.071,-0.037l0.07,-0.039l0.069,-0.039l0.069,-0.041l0.069,-0.041l0.067,-0.041l0.068,-0.043l0.066,-0.043l0.067,-0.044l0.065,-0.045l0.065,-0.046l0.065,-0.046l0.064,-0.048l0.063,-0.048l0.063,-0.048l0.062,-0.05l0.061,-0.05l0.061,-0.051l0.06,-0.051l0.06,-0.053l0.059,-0.052l0.058,-0.054l0.058,-0.055l0.057,-0.055l0.057,-0.055l0.055,-0.057l0.055,-0.057l0.055,-0.057l0.053,-0.059l0.053,-0.059l0.053,-0.059l0.051,-0.061l0.051,-0.061l0.05,-0.061l0.05,-0.062l0.048,-0.063l0.048,-0.063l0.047,-0.064l0.047,-0.065l0.046,-0.065l0.044,-0.065l0.045,-0.066l0.043,-0.067l0.043,-0.067l0.041,-0.068l0.041,-0.069l0.041,-0.069l0.039,-0.069l0.038,-0.07l0.038,-0.071l0.037,-0.071l0.036,-0.071l0.035,-0.072l0.035,-0.072l0.033,-0.073l0.033,-0.074l0.032,-0.074l0.031,-0.074l0.03,-0.075l0.029,-0.075l0.028,-0.076l0.027,-0.076l0.027,-0.076l0.025,-0.077l0.025,-0.078l0.024,-0.078l0.022,-0.078l0.022,-0.078l0.021,-0.079l0.02,-0.08l0.019,-0.079l0.018,-0.081l0.017,-0.08l0.016,-0.081l0.015,-0.081l0.014,-0.082l0.013,-0.081l0.012,-0.083l0.011,-0.082l0.01,-0.083l0.009,-0.083l0.008,-0.084l0.007,-0.083l0.006,-0.084l0.004,-0.085l0.004,-0.084l0.003,-0.085l0.001,-0.085l0.001,-0.086l0,-3.106l-1.392,0Z"/></g><g id="emoji"><path d="M26,5c0,0 -0.919,0 -1.968,0c-0.804,0 -1.576,0.319 -2.144,0.888c-0.569,0.568 -0.888,1.34 -0.888,2.144c0,3.011 0,7.182 0,7.182c0,0 0.919,0 1.968,0c0.804,0 1.576,-0.319 2.144,-0.888c0.569,-0.568 0.888,-1.339 0.888,-2.143c0,-3.012 0,-7.183 0,-7.183Z" style="fill:#f08c00;"/><path d="M30,2c0,0 -0.001,0 -0.002,0c-1.656,0 -2.998,1.342 -2.998,2.998c0,1.789 0,3.716 0,3.716c0,0 0,0 0,0c0.796,0 1.559,-0.316 2.121,-0.879c0.563,-0.562 0.879,-1.325 0.879,-2.121c0,-1.789 0,-3.714 0,-3.714Z" style="fill:#f08c00;"/><path d="M23,1.857c0,0 -0.564,0 -1.392,0c-3.65,0 -6.608,2.959 -6.608,6.608c0,1.723 0,3.106 0,3.106c0,0 0.564,0 1.392,0c3.65,0 6.608,-2.958 6.608,-6.608c0,-1.723 0,-3.106 0,-3.106Z" style="fill:#f08c00;"/><path d="M29,10c0,0 -1.479,0 -2.968,0c-0.804,0 -1.576,0.319 -2.144,0.888c-0.569,0.568 -0.888,1.34 -0.888,2.144c0,2.613 0,5.968 0,5.968c0,0 1.479,0 2.968,0c0.804,0 1.576,-0.319 2.144,-0.888c0.569,-0.568 0.888,-1.34 0.888,-2.144c0,-2.613 0,-5.968 0,-5.968Z" style="fill:#f08c00;"/><path d="M28,11c0,0 -0.919,0 -1.968,0c-1.675,0 -3.032,1.357 -3.032,3.032c0,1.891 0,3.968 0,3.968c0,0 0.919,0 1.968,0c1.675,0 3.032,-1.357 3.032,-3.032c0,-1.891 0,-3.968 0,-3.968Z" style="fill:#ffbf36;"/><path d="M25,7c0,0 -0.919,0 -1.968,0c-0.804,0 -1.576,0.319 -2.144,0.888c-0.569,0.568 -0.888,1.34 -0.888,2.144c0,2.264 0,4.968 0,4.968c0,0 0.919,0 1.968,0c0.804,0 1.576,-0.319 2.144,-0.888c0.569,-0.568 0.888,-1.34 0.888,-2.144c0,-2.264 0,-4.968 0,-4.968Z" style="fill:#ffbf36;"/><path d="M21.857,4c0,0 -0.693,0 -1.54,0c-0.804,0 -1.575,0.319 -2.143,0.888c-0.569,0.568 -0.888,1.34 -0.888,2.144c0,1.891 0,3.968 0,3.968c0,0 0.693,0 1.54,0c0.804,0 1.575,-0.319 2.143,-0.888c0.569,-0.568 0.888,-1.34 0.888,-2.144c0,-1.891 0,-3.968 0,-3.968Z" style="fill:#ffbf36;"/><path d="M27,16.5c0,-3.315 -1.317,-6.495 -3.661,-8.839c-2.344,-2.344 -5.524,-3.661 -8.839,-3.661c0,0 0,0 0,0c-3.315,0 -6.495,1.317 -8.839,3.661c-2.344,2.344 -3.661,5.524 -3.661,8.839c0,0.167 0,0.334 0,0.5c0,2.917 1.159,5.715 3.222,7.778c2.063,2.063 4.861,3.222 7.778,3.222c0.996,0 2.004,0 3,0c2.917,0 5.715,-1.159 7.778,-3.222c2.063,-2.063 3.222,-4.861 3.222,-7.778c0,-0.166 0,-0.333 0,-0.5Z" style="fill:#fb4646;"/><clipPath id="_clip2"><path d="M27,16.5c0,-3.315 -1.317,-6.495 -3.661,-8.839c-2.344,-2.344 -5.524,-3.661 -8.839,-3.661c0,0 0,0 0,0c-3.315,0 -6.495,1.317 -8.839,3.661c-2.344,2.344 -3.661,5.524 -3.661,8.839c0,0.167 0,0.334 0,0.5c0,2.917 1.159,5.715 3.222,7.778c2.063,2.063 4.861,3.222 7.778,3.222c0.996,0 2.004,0 3,0c2.917,0 5.715,-1.159 7.778,-3.222c2.063,-2.063 3.222,-4.861 3.222,-7.778c0,-0.166 0,-0.333 0,-0.5Z"/></clipPath><g clip-path="url(#_clip2)"><path d="M16,23c0,0 -1.983,-1.416 -3.838,-2.741c-0.609,-0.436 -1.411,-0.494 -2.077,-0.151c-0.666,0.343 -1.085,1.029 -1.085,1.778c0,2.809 0,6.399 0,8.114c0,0.552 0.448,1 1,1c0.871,0 2.129,0 3,0c0.265,0 0.52,-0.105 0.707,-0.293c0.188,-0.187 0.293,-0.442 0.293,-0.707c0,-0.5 0,-1 0,-1l8,0c0,0 -3.011,-3.614 -4.36,-5.232c-0.406,-0.487 -1.006,-0.768 -1.64,-0.768c0,0 0,0 0,0Z" style="fill:#da2727;"/></g><path d="M10,9.5c0,-0.398 -0.158,-0.779 -0.439,-1.061c-0.282,-0.281 -0.663,-0.439 -1.061,-0.439c-0.398,0 -0.779,0.158 -1.061,0.439c-0.281,0.282 -0.439,0.663 -0.439,1.061c0,1.181 0,2.819 0,4c0,0.398 0.158,0.779 0.439,1.061c0.282,0.281 0.663,0.439 1.061,0.439c0.398,0 0.779,-0.158 1.061,-0.439c0.281,-0.282 0.439,-0.663 0.439,-1.061c0,-1.181 0,-2.819 0,-4Z"/><path d="M22,10c0,0 -2.541,0 -4,0c-0.265,0 -0.52,0.105 -0.707,0.293c-0.188,0.187 -0.293,0.442 -0.293,0.707c0,0.552 0.448,1 1,1c0.5,0 1,0 1,0c0,0 0,0.751 0,1.502c0,0.397 0.158,0.778 0.439,1.059c0.281,0.281 0.662,0.439 1.059,0.439c0.001,0 0.003,0 0.004,0c0.827,0 1.498,-0.671 1.498,-1.498c0,-1.473 0,-3.502 0,-3.502Z"/><path d="M15.467,16.001l0.124,0.005l0.123,0.008l0.123,0.01l0.123,0.014l0.121,0.017l0.122,0.019l0.12,0.023l0.12,0.025l0.119,0.029l0.118,0.031l0.117,0.034l0.117,0.037l0.115,0.04l0.114,0.042l0.114,0.046l0.112,0.048l0.111,0.05l0.109,0.054l0.109,0.056l0.107,0.059l0.105,0.061l0.104,0.064l0.103,0.067l0.101,0.069l0.1,0.072l0.098,0.074l0.096,0.077l0.094,0.08l0.093,0.081l0.091,0.085l0.084,0.082l0.833,0.833l0.041,0.043l0.038,0.045l0.035,0.048l0.032,0.05l0.03,0.051l0.026,0.053l0.023,0.055l0.02,0.056l0.016,0.057l0.014,0.058l0.009,0.058l0.006,0.059l0.003,0.059l-0.001,0.059l-0.004,0.06l-0.008,0.058l-0.012,0.058l-0.014,0.058l-0.019,0.056l-0.021,0.056l-0.025,0.053l-0.028,0.053l-0.03,0.05l-0.034,0.049l-0.037,0.047l-0.039,0.044l-0.042,0.042l-0.044,0.039l-0.047,0.037l-0.049,0.034l-0.05,0.03l-0.053,0.028l-0.053,0.025l-0.056,0.021l-0.056,0.019l-0.058,0.014l-0.058,0.012l-0.058,0.008l-0.06,0.004l-0.059,0.001l-0.059,-0.003l-0.059,-0.006l-0.058,-0.009l-0.058,-0.014l-0.057,-0.016l-0.056,-0.02l-0.055,-0.023l-0.053,-0.026l-0.051,-0.03l-0.05,-0.032l-0.048,-0.035l-0.045,-0.038l-0.043,-0.041l-0.824,-0.824l-0.058,-0.056l-0.054,-0.051l-0.056,-0.049l-0.057,-0.048l-0.057,-0.046l-0.059,-0.044l-0.06,-0.043l-0.06,-0.042l-0.062,-0.04l-0.063,-0.038l-0.063,-0.037l-0.064,-0.036l-0.065,-0.033l-0.066,-0.032l-0.067,-0.031l-0.067,-0.029l-0.068,-0.027l-0.068,-0.025l-0.07,-0.024l-0.069,-0.022l-0.071,-0.021l-0.071,-0.018l-0.071,-0.017l-0.072,-0.016l-0.072,-0.013l-0.073,-0.012l-0.073,-0.01l-0.073,-0.008l-0.074,-0.007l-0.074,-0.004l-0.074,-0.003l-0.081,-0.001l-5.337,0l-0.059,-0.002l-0.059,-0.005l-0.059,-0.009l-0.058,-0.012l-0.057,-0.016l-0.056,-0.019l-0.055,-0.022l-0.054,-0.025l-0.052,-0.029l-0.05,-0.032l-0.048,-0.034l-0.046,-0.037l-0.044,-0.04l-0.041,-0.043l-0.039,-0.045l-0.035,-0.047l-0.034,-0.049l-0.03,-0.051l-0.027,-0.053l-0.024,-0.054l-0.02,-0.056l-0.018,-0.056l-0.014,-0.058l-0.01,-0.058l-0.007,-0.059l-0.004,-0.059l0,-0.06l0.004,-0.059l0.007,-0.059l0.01,-0.058l0.014,-0.058l0.018,-0.056l0.02,-0.056l0.024,-0.054l0.027,-0.053l0.03,-0.051l0.034,-0.049l0.035,-0.047l0.039,-0.045l0.041,-0.043l0.044,-0.04l0.046,-0.037l0.048,-0.034l0.05,-0.032l0.052,-0.029l0.054,-0.025l0.055,-0.022l0.056,-0.019l0.057,-0.016l0.058,-0.012l0.059,-0.009l0.059,-0.005l0.059,-0.002l5.349,0l0.118,0.001Z" style="fill:#5b1010;"/><path d="M9,22c0,0 -0.432,0.216 -0.894,0.447c-0.678,0.339 -1.106,1.032 -1.106,1.789c0,1.357 0,3.509 0,4.764c0,0.265 0.105,0.52 0.293,0.707c0.187,0.188 0.442,0.293 0.707,0.293c0.871,0 2.129,0 3,0c0.552,0 1,-0.448 1,-1c0,-1.185 0,-3 0,-3c0,0 1.815,0 3,0c0.552,0 1,-0.448 1,-1c0,-0.265 -0.105,-0.52 -0.293,-0.707c-0.187,-0.188 -0.442,-0.293 -0.707,-0.293c-1.934,0 -6,0 -6,0l0,-2Z" style="fill:#fb4646;"/><path d="M11,22l4.025,0l0.124,0.003l0.147,0.011l0.147,0.018l0.145,0.026l0.143,0.032l0.142,0.039l0.139,0.046l0.136,0.053l0.134,0.059l0.131,0.066l0.128,0.072l0.124,0.079l0.12,0.084l0.117,0.091l0.112,0.097l0.108,0.102l0.102,0.108l0.097,0.112l0.091,0.117l0.084,0.12l0.079,0.124l0.072,0.128l0.066,0.131l0.059,0.134l0.053,0.136l0.046,0.139l0.039,0.142l0.032,0.143l0.026,0.145l0.018,0.147l0.011,0.147l0.004,0.149l-0.004,0.153l-0.012,0.151l-0.019,0.15l-0.026,0.148l-0.034,0.146l-0.041,0.143l-0.047,0.141l-0.054,0.136l-0.06,0.134l-0.067,0.13l-0.072,0.125l-0.078,0.122l-0.084,0.117l-0.088,0.113l-0.094,0.109l-0.099,0.104l-0.104,0.099l-0.109,0.094l-0.113,0.088l-0.117,0.084l-0.122,0.078l-0.125,0.072l-0.13,0.067l-0.134,0.06l-0.136,0.054l-0.141,0.047l-0.143,0.041l-0.145,0.034l-0.149,0.026l-0.15,0.019l-0.151,0.012l-0.128,0.003l-1.025,0l0,1.025l-0.003,0.128l-0.012,0.151l-0.019,0.15l-0.026,0.148l-0.034,0.146l-0.041,0.143l-0.047,0.141l-0.054,0.136l-0.06,0.134l-0.067,0.13l-0.072,0.125l-0.078,0.122l-0.084,0.117l-0.088,0.113l-0.094,0.109l-0.099,0.104l-0.104,0.099l-0.109,0.094l-0.113,0.089l-0.117,0.083l-0.122,0.078l-0.125,0.072l-0.13,0.067l-0.134,0.06l-0.136,0.054l-0.141,0.047l-0.143,0.041l-0.146,0.034l-0.148,0.026l-0.15,0.019l-0.151,0.012l-0.128,0.003l-3.05,0l-0.124,-0.003l-0.147,-0.011l-0.147,-0.018l-0.145,-0.026l-0.143,-0.032l-0.142,-0.039l-0.139,-0.046l-0.136,-0.053l-0.134,-0.059l-0.131,-0.066l-0.128,-0.072l-0.124,-0.079l-0.12,-0.084l-0.117,-0.091l-0.112,-0.097l-0.108,-0.102l-0.102,-0.108l-0.097,-0.112l-0.091,-0.117l-0.084,-0.12l-0.079,-0.124l-0.072,-0.128l-0.066,-0.131l-0.059,-0.134l-0.053,-0.136l-0.046,-0.139l-0.039,-0.142l-0.032,-0.143l-0.026,-0.145l-0.018,-0.147l-0.011,-0.147l-0.003,-0.124l0,-4.807l0.002,-0.123l0.008,-0.141l0.012,-0.14l0.017,-0.139l0.022,-0.137l0.027,-0.137l0.031,-0.135l0.036,-0.133l0.04,-0.132l0.045,-0.13l0.049,-0.128l0.053,-0.126l0.058,-0.125l0.061,-0.122l0.066,-0.12l0.07,-0.117l0.074,-0.115l0.078,-0.112l0.081,-0.11l0.086,-0.107l0.089,-0.104l0.092,-0.102l0.097,-0.098l0.1,-0.095l0.103,-0.092l0.107,-0.088l0.11,-0.085l0.113,-0.081l0.117,-0.077l0.119,-0.074l0.123,-0.069l0.109,-0.058l3.805,-1.902l0,3.236Zm-2.894,0.447l-0.063,0.033l-0.062,0.035l-0.059,0.037l-0.058,0.038l-0.057,0.041l-0.055,0.042l-0.053,0.044l-0.052,0.046l-0.05,0.048l-0.048,0.049l-0.046,0.05l-0.045,0.052l-0.043,0.054l-0.04,0.055l-0.039,0.056l-0.037,0.058l-0.035,0.058l-0.033,0.06l-0.031,0.061l-0.029,0.062l-0.027,0.064l-0.024,0.064l-0.022,0.065l-0.021,0.066l-0.017,0.066l-0.016,0.068l-0.013,0.068l-0.011,0.069l-0.009,0.069l-0.006,0.07l-0.004,0.07l-0.001,0.071l0,4.764l0.001,0.05l0.004,0.049l0.006,0.049l0.008,0.048l0.011,0.048l0.013,0.047l0.016,0.046l0.017,0.046l0.02,0.044l0.022,0.044l0.024,0.042l0.026,0.042l0.028,0.04l0.03,0.039l0.033,0.037l0.034,0.036l0.036,0.034l0.037,0.033l0.039,0.03l0.04,0.028l0.042,0.026l0.042,0.024l0.044,0.022l0.044,0.02l0.046,0.017l0.046,0.016l0.047,0.013l0.048,0.011l0.048,0.008l0.049,0.006l0.049,0.004l0.05,0.001l3,0l0.051,-0.001l0.051,-0.004l0.05,-0.007l0.05,-0.008l0.048,-0.011l0.047,-0.014l0.047,-0.016l0.045,-0.018l0.045,-0.02l0.043,-0.022l0.042,-0.024l0.04,-0.026l0.039,-0.028l0.038,-0.029l0.036,-0.032l0.035,-0.033l0.033,-0.035l0.032,-0.036l0.029,-0.038l0.028,-0.039l0.026,-0.04l0.024,-0.042l0.022,-0.043l0.02,-0.045l0.018,-0.045l0.016,-0.047l0.014,-0.047l0.011,-0.048l0.008,-0.05l0.007,-0.05l0.004,-0.051l0.001,-0.051l0,-3l3,0l0.051,-0.001l0.051,-0.004l0.05,-0.007l0.05,-0.008l0.048,-0.011l0.047,-0.014l0.047,-0.016l0.045,-0.018l0.045,-0.02l0.043,-0.022l0.042,-0.024l0.04,-0.026l0.039,-0.028l0.038,-0.029l0.036,-0.032l0.035,-0.033l0.033,-0.035l0.032,-0.036l0.029,-0.038l0.028,-0.039l0.026,-0.04l0.024,-0.042l0.022,-0.043l0.02,-0.045l0.018,-0.045l0.016,-0.047l0.014,-0.047l0.011,-0.048l0.008,-0.05l0.007,-0.05l0.004,-0.051l0.001,-0.051c0,0 -0.001,-0.05 -0.001,-0.05l-0.004,-0.049l-0.006,-0.049l-0.008,-0.048l-0.011,-0.048l-0.013,-0.047l-0.016,-0.046l-0.017,-0.046l-0.02,-0.044l-0.022,-0.044l-0.024,-0.042l-0.026,-0.042l-0.028,-0.04l-0.03,-0.039l-0.033,-0.037l-0.034,-0.036l-0.036,-0.034l-0.037,-0.033l-0.039,-0.03l-0.04,-0.028l-0.042,-0.026l-0.042,-0.024l-0.044,-0.022l-0.044,-0.02l-0.046,-0.017l-0.046,-0.016l-0.047,-0.013l-0.048,-0.011l-0.048,-0.008l-0.049,-0.006l-0.049,-0.004l-0.05,-0.001l-6,0l0,-2l-0.894,0.447Z"/><rect x="13" y="27" width="2" height="2"/></g></g></svg>