<?xml version="1.0" encoding="UTF-8"?>
<!DOCTYPE svg  PUBLIC '-//W3C//DTD SVG 1.1//EN'  'http://www.w3.org/Graphics/SVG/1.1/DTD/svg11.dtd'>
<svg clip-rule="evenodd" fill-rule="evenodd" stroke-linejoin="round" stroke-miterlimit="1.5" version="1.1" viewBox="0 0 32 32" xml:space="preserve" xmlns="http://www.w3.org/2000/svg">
<metadata>
<rdf:RDF xmlns:cc="http://web.resource.org/cc/" xmlns:dc="http://purl.org/dc/elements/1.1/" xmlns:rdf="http://www.w3.org/1999/02/22-rdf-syntax-ns#">

     <rdf:Description rdf:about="">
       <dc:title>Mutant Standard S3</dc:title>
     </rdf:Description>

    <cc:work rdf:about="">
        <cc:license rdf:resource="http://creativecommons.org/licenses/by-nc-sa/4.0/"/>
        <cc:attributionName>Dzuk</cc:attributionName>
        <cc:attributionURL>http://mutant.tech/</cc:attributionURL>
    </cc:work>

</rdf:RDF>
</metadata>
<rect id="think_shit" width="32" height="32" fill="none"/><clipPath id="_clip1"><rect width="32" height="32"/></clipPath><g clip-path="url(#_clip1)"><g id="outline" fill="none" stroke="#000" stroke-width="4px"><path d="m30 21c0-1.591-0.632-3.117-1.757-4.243-1.126-1.125-2.652-1.757-4.243-1.757h-16c-1.591 0-3.117 0.632-4.243 1.757-1.125 1.126-1.757 2.652-1.757 4.243s0.632 3.117 1.757 4.243c1.126 1.125 2.652 1.757 4.243 1.757h16c1.591 0 3.117-0.632 4.243-1.757 1.125-1.126 1.757-2.652 1.757-4.243z"/><path d="m26 13c0-2.761-2.239-5-5-5h-10c-2.761 0-5 2.239-5 5s2.239 5 5 5h10c2.761 0 5-2.239 5-5z"/><path d="m12 6.015c0-1.061 0.421-2.078 1.171-2.827 0.75-0.75 1.767-1.171 2.827-1.171h5.002v3.5c0 2.485-2.015 4.5-4.5 4.5h-0.502c-1.06 0-2.077-0.422-2.827-1.171-0.75-0.75-1.171-1.767-1.171-2.827v-4e-3z"/></g><g id="emoji"><path d="m12 6.015c0-1.061 0.421-2.078 1.171-2.827 0.75-0.75 1.767-1.171 2.827-1.171h5.002v3.5c0 2.485-2.015 4.5-4.5 4.5h-0.502c-1.06 0-2.077-0.422-2.827-1.171-0.75-0.75-1.171-1.767-1.171-2.827v-4e-3z" fill="#9a6f42"/><path d="m30 21c0-1.591-0.632-3.117-1.757-4.243-1.126-1.125-2.652-1.757-4.243-1.757h-16c-1.591 0-3.117 0.632-4.243 1.757-1.125 1.126-1.757 2.652-1.757 4.243s0.632 3.117 1.757 4.243c1.126 1.125 2.652 1.757 4.243 1.757h16c1.591 0 3.117-0.632 4.243-1.757 1.125-1.126 1.757-2.652 1.757-4.243z" fill="#9a6f42"/><clipPath id="_clip2"><path d="m30 21c0-1.591-0.632-3.117-1.757-4.243-1.126-1.125-2.652-1.757-4.243-1.757h-16c-1.591 0-3.117 0.632-4.243 1.757-1.125 1.126-1.757 2.652-1.757 4.243s0.632 3.117 1.757 4.243c1.126 1.125 2.652 1.757 4.243 1.757h16c1.591 0 3.117-0.632 4.243-1.757 1.125-1.126 1.757-2.652 1.757-4.243z"/></clipPath><g clip-path="url(#_clip2)"><path d="m15 23s-1.983-1.416-3.838-2.741c-0.609-0.436-1.411-0.494-2.077-0.151s-1.085 1.029-1.085 1.778v8.114c0 0.552 0.448 1 1 1h3c0.265 0 0.52-0.105 0.707-0.293 0.188-0.187 0.293-0.442 0.293-0.707v-1h8s-3.011-3.614-4.36-5.232c-0.406-0.487-1.006-0.768-1.64-0.768z" fill="#624221"/></g><path d="m26 13c0-2.761-2.239-5-5-5h-10c-2.761 0-5 2.239-5 5s2.239 5 5 5h10c2.761 0 5-2.239 5-5z" fill="#9a6f42"/><path d="m13 10.5c0-0.828-0.672-1.5-1.5-1.5s-1.5 0.672-1.5 1.5v3c0 0.828 0.672 1.5 1.5 1.5s1.5-0.672 1.5-1.5v-3z"/><path d="m23 10h-4c-0.265 0-0.52 0.105-0.707 0.293-0.188 0.187-0.293 0.442-0.293 0.707 0 0.552 0.448 1 1 1h1v1.502c0 0.397 0.158 0.778 0.439 1.059s0.662 0.439 1.059 0.439h4e-3c0.827 0 1.498-0.671 1.498-1.498v-3.502z"/><path d="m17.467 17.001 0.124 5e-3 0.123 8e-3 0.123 0.01 0.123 0.014 0.121 0.017 0.122 0.019 0.12 0.023 0.12 0.025 0.119 0.029 0.118 0.031 0.117 0.034 0.117 0.037 0.115 0.04 0.114 0.042 0.114 0.046 0.112 0.048 0.111 0.05 0.109 0.054 0.109 0.056 0.107 0.059 0.105 0.061 0.104 0.064 0.103 0.067 0.101 0.069 0.1 0.072 0.098 0.074 0.096 0.077 0.094 0.08 0.093 0.081 0.091 0.085 0.084 0.082 0.833 0.833 0.041 0.043 0.038 0.045 0.035 0.048 0.032 0.05 0.03 0.051 0.026 0.053 0.023 0.055 0.02 0.056 0.016 0.057 0.014 0.058 9e-3 0.058 6e-3 0.059 3e-3 0.059-1e-3 0.059-4e-3 0.06-8e-3 0.058-0.012 0.058-0.014 0.058-0.019 0.056-0.021 0.056-0.025 0.053-0.028 0.053-0.03 0.05-0.034 0.049-0.037 0.047-0.039 0.044-0.042 0.042-0.044 0.039-0.047 0.037-0.049 0.034-0.05 0.03-0.053 0.028-0.053 0.025-0.056 0.021-0.056 0.019-0.058 0.014-0.058 0.012-0.058 8e-3 -0.06 4e-3 -0.059 1e-3 -0.059-3e-3 -0.059-6e-3 -0.058-9e-3 -0.058-0.014-0.057-0.016-0.056-0.02-0.055-0.023-0.053-0.026-0.051-0.03-0.05-0.032-0.047-0.035-0.046-0.038-0.043-0.041-0.824-0.824-0.058-0.056-0.054-0.051-0.056-0.049-0.057-0.048-0.057-0.046-0.059-0.044-0.06-0.043-0.061-0.042-0.061-0.04-0.063-0.038-0.063-0.037-0.064-0.036-0.065-0.033-0.066-0.032-0.067-0.031-0.067-0.029-0.068-0.027-0.068-0.025-0.07-0.024-0.069-0.022-0.071-0.021-0.071-0.018-0.071-0.017-0.072-0.016-0.072-0.013-0.073-0.012-0.073-0.01-0.073-8e-3 -0.074-7e-3 -0.074-4e-3 -0.074-3e-3 -0.081-1e-3h-5.337l-0.059-2e-3 -0.059-5e-3 -0.059-9e-3 -0.058-0.012-0.057-0.016-0.056-0.019-0.055-0.022-0.054-0.025-0.052-0.029-0.05-0.032-0.048-0.034-0.046-0.037-0.044-0.04-0.041-0.043-0.039-0.045-0.035-0.047-0.034-0.049-0.03-0.051-0.027-0.053-0.024-0.054-0.02-0.056-0.018-0.056-0.014-0.058-0.01-0.058-7e-3 -0.059-4e-3 -0.059v-0.06l4e-3 -0.059 7e-3 -0.059 0.01-0.058 0.014-0.058 0.018-0.056 0.02-0.056 0.024-0.054 0.027-0.053 0.03-0.051 0.034-0.049 0.035-0.047 0.039-0.045 0.041-0.043 0.044-0.04 0.046-0.037 0.048-0.034 0.05-0.032 0.052-0.029 0.054-0.025 0.055-0.022 0.056-0.019 0.057-0.016 0.058-0.012 0.059-9e-3 0.059-5e-3 0.059-2e-3h5.349l0.118 1e-3z" fill="#452f18"/><path d="m8 22-0.894 0.447c-0.678 0.339-1.106 1.032-1.106 1.789v4.764c0 0.265 0.105 0.52 0.293 0.707 0.187 0.188 0.442 0.293 0.707 0.293h3c0.552 0 1-0.448 1-1v-3h3c0.552 0 1-0.448 1-1 0-0.265-0.105-0.52-0.293-0.707-0.187-0.188-0.442-0.293-0.707-0.293h-6v-2z" fill="#9a6e42"/><path d="m10 22h4.025l0.124 3e-3 0.147 0.011 0.147 0.018 0.145 0.026 0.143 0.032 0.142 0.039 0.139 0.046 0.136 0.053 0.134 0.059 0.131 0.066 0.127 0.072 0.125 0.079 0.12 0.084 0.117 0.091 0.112 0.097 0.108 0.102 0.102 0.108 0.097 0.112 0.091 0.116 0.084 0.121 0.079 0.124 0.072 0.128 0.066 0.131 0.059 0.134 0.053 0.137 0.046 0.138 0.039 0.141 0.032 0.144 0.026 0.145 0.018 0.147 0.011 0.147 4e-3 0.15-4e-3 0.151-0.012 0.152-0.019 0.15-0.026 0.149-0.034 0.145-0.041 0.143-0.047 0.141-0.054 0.137-0.06 0.133-0.067 0.129-0.072 0.126-0.078 0.122-0.084 0.117-0.088 0.113-0.094 0.109-0.099 0.104-0.104 0.098-0.109 0.095-0.113 0.089-0.117 0.083-0.122 0.078-0.125 0.072-0.13 0.067-0.134 0.06-0.136 0.054-0.141 0.047-0.143 0.041-0.145 0.034-0.149 0.026-0.15 0.019-0.151 0.012-0.128 3e-3h-1.025v1.025l-3e-3 0.127-0.012 0.153-0.019 0.149-0.026 0.148-0.034 0.146-0.041 0.143-0.047 0.141-0.054 0.137-0.06 0.133-0.067 0.129-0.072 0.126-0.078 0.122-0.084 0.118-0.088 0.112-0.094 0.109-0.099 0.104-0.104 0.099-0.108 0.094-0.114 0.088-0.117 0.084-0.122 0.078-0.125 0.072-0.13 0.067-0.133 0.06-0.137 0.054-0.141 0.047-0.143 0.041-0.146 0.034-0.148 0.026-0.15 0.019-0.151 0.012-0.128 3e-3h-3.05l-0.124-3e-3 -0.147-0.011-0.147-0.018-0.145-0.026-0.143-0.032-0.142-0.039-0.139-0.046-0.136-0.053-0.134-0.059-0.131-0.066-0.128-0.072-0.124-0.078-0.12-0.085-0.117-0.091-0.112-0.097-0.108-0.102-0.102-0.108-0.097-0.112-0.091-0.117-0.084-0.12-0.079-0.124-0.072-0.128-0.066-0.131-0.059-0.134-0.053-0.136-0.046-0.14-0.039-0.141-0.032-0.143-0.026-0.145-0.018-0.147-0.011-0.147-3e-3 -0.124v-4.807l2e-3 -0.123 8e-3 -0.141 0.012-0.14 0.017-0.139 0.022-0.137 0.027-0.137 0.031-0.135 0.036-0.133 0.04-0.132 0.045-0.13 0.049-0.128 0.053-0.127 0.058-0.124 0.061-0.122 0.066-0.119 0.07-0.118 0.074-0.115 0.078-0.112 0.081-0.11 0.086-0.107 0.089-0.104 0.092-0.102 0.097-0.098 0.1-0.095 0.103-0.092 0.107-0.088 0.11-0.085 0.113-0.081 0.117-0.077 0.119-0.074 0.123-0.069 0.109-0.058 3.805-1.902v3.236zm-2.894 0.447-0.063 0.033-0.062 0.035-0.059 0.037-0.058 0.038-0.057 0.041-0.055 0.042-0.053 0.044-0.052 0.046-0.05 0.048-0.048 0.049-0.046 0.05-0.045 0.052-0.043 0.054-0.04 0.055-0.039 0.056-0.037 0.058-0.035 0.058-0.033 0.06-0.031 0.061-0.029 0.062-0.027 0.064-0.024 0.064-0.022 0.065-0.021 0.066-0.017 0.066-0.016 0.068-0.013 0.068-0.011 0.069-9e-3 0.069-6e-3 0.07-4e-3 0.07-1e-3 0.071v4.764l1e-3 0.05 4e-3 0.049 6e-3 0.049 8e-3 0.048 0.011 0.048 0.013 0.047 0.016 0.046 0.017 0.046 0.02 0.044 0.022 0.044 0.024 0.042 0.026 0.042 0.028 0.04 0.03 0.039 0.033 0.037 0.034 0.036 0.036 0.034 0.037 0.033 0.039 0.03 0.04 0.028 0.042 0.026 0.042 0.024 0.044 0.022 0.044 0.02 0.046 0.017 0.046 0.016 0.047 0.013 0.048 0.011 0.048 8e-3 0.049 6e-3 0.049 4e-3 0.05 1e-3h3l0.051-1e-3 0.051-4e-3 0.05-7e-3 0.05-8e-3 0.048-0.011 0.047-0.014 0.047-0.016 0.045-0.018 0.045-0.02 0.043-0.022 0.042-0.024 0.04-0.026 0.039-0.028 0.038-0.029 0.036-0.032 0.035-0.033 0.033-0.035 0.032-0.036 0.029-0.038 0.028-0.039 0.026-0.04 0.024-0.042 0.022-0.043 0.02-0.045 0.018-0.045 0.016-0.047 0.014-0.047 0.011-0.048 8e-3 -0.05 7e-3 -0.05 4e-3 -0.051 1e-3 -0.051v-3h3l0.051-1e-3 0.051-4e-3 0.05-7e-3 0.05-8e-3 0.048-0.011 0.047-0.014 0.047-0.016 0.045-0.018 0.045-0.02 0.043-0.022 0.042-0.024 0.04-0.026 0.039-0.028 0.038-0.029 0.036-0.032 0.035-0.033 0.033-0.035 0.032-0.036 0.029-0.038 0.028-0.039 0.026-0.04 0.024-0.042 0.022-0.043 0.02-0.045 0.018-0.045 0.016-0.047 0.014-0.047 0.011-0.048 8e-3 -0.05 7e-3 -0.05 4e-3 -0.051 1e-3 -0.051-1e-3 -0.05-4e-3 -0.049-6e-3 -0.049-8e-3 -0.048-0.011-0.048-0.013-0.047-0.016-0.046-0.017-0.046-0.02-0.044-0.022-0.044-0.024-0.042-0.026-0.042-0.028-0.04-0.03-0.039-0.033-0.037-0.034-0.036-0.036-0.034-0.037-0.033-0.039-0.03-0.04-0.028-0.042-0.026-0.042-0.024-0.044-0.022-0.044-0.02-0.046-0.017-0.046-0.016-0.047-0.013-0.048-0.011-0.048-8e-3 -0.049-6e-3 -0.049-4e-3 -0.05-1e-3h-6v-2l-0.894 0.447z"/></g></g></svg>
