<?xml version="1.0" encoding="UTF-8"?>
<!DOCTYPE svg  PUBLIC '-//W3C//DTD SVG 1.1//EN'  'http://www.w3.org/Graphics/SVG/1.1/DTD/svg11.dtd'>
<svg clip-rule="evenodd" fill-rule="evenodd" stroke-linejoin="round" stroke-miterlimit="1.4142" version="1.1" viewBox="0 0 32 32" xml:space="preserve" xmlns="http://www.w3.org/2000/svg">
<metadata>
<rdf:RDF xmlns:cc="http://web.resource.org/cc/" xmlns:dc="http://purl.org/dc/elements/1.1/" xmlns:rdf="http://www.w3.org/1999/02/22-rdf-syntax-ns#">

     <rdf:Description rdf:about="">
       <dc:title>Mutant Standard S3</dc:title>
     </rdf:Description>

    <cc:work rdf:about="">
        <cc:license rdf:resource="http://creativecommons.org/licenses/by-nc-sa/4.0/"/>
        <cc:attributionName>Dzuk</cc:attributionName>
        <cc:attributionURL>http://mutant.tech/</cc:attributionURL>
    </cc:work>

</rdf:RDF>
</metadata>
<rect id="thinking_fire" width="32" height="32" fill="none"/><clipPath id="_clip1"><rect width="32" height="32"/></clipPath><g clip-path="url(#_clip1)"><g id="outline"><path d="m14.68 2.001 0.18 3e-3 0.18 6e-3 0.179 8e-3 0.179 0.01 0.179 0.012 0.178 0.014 0.178 0.017 0.178 0.019 0.177 0.021 0.177 0.023 0.176 0.025 0.176 0.027 0.176 0.03 0.175 0.031 0.174 0.034 0.174 0.036 0.173 0.038 0.173 0.04 0.172 0.042 0.172 0.045 0.171 0.046 0.17 0.048 0.17 0.051 0.169 0.052 0.169 0.055 0.167 0.056 0.167 0.059 0.166 0.061 0.166 0.062 0.164 0.065 0.164 0.067 0.163 0.068 0.162 0.071 0.161 0.073 0.161 0.074 0.159 0.077 0.159 0.078 0.157 0.081 0.157 0.082 0.156 0.084 0.154 0.087 0.154 0.088 0.153 0.09 0.151 0.092 0.151 0.094 0.149 0.096 0.149 0.097 0.147 0.1 0.146 0.101 0.145 0.103 0.144 0.105 0.142 0.107 0.142 0.109 0.14 0.11 0.139 0.113 0.137 0.114 0.136 0.116 0.135 0.118 0.134 0.119 0.132 0.121 0.131 0.124 0.13 0.124 0.128 0.127 0.127 0.128 0.124 0.13 0.124 0.131 0.121 0.132 0.119 0.134 0.118 0.135 0.116 0.136 0.114 0.137 0.113 0.139 0.11 0.14 0.109 0.142 0.107 0.142 0.105 0.144 0.103 0.145 0.101 0.146 0.1 0.147 0.097 0.149 0.096 0.149 0.094 0.151 0.092 0.151 0.09 0.153 0.088 0.154 0.087 0.154 0.084 0.156 0.082 0.157 0.081 0.157 0.078 0.159 0.077 0.159 0.074 0.161 0.073 0.161 0.071 0.162 0.068 0.163 0.067 0.164 0.065 0.164 0.062 0.166 0.061 0.166 0.059 0.167 0.056 0.167 0.055 0.169 0.052 0.169 0.051 0.17 0.048 0.17 0.046 0.171 0.045 0.172 0.042 0.172 0.04 0.173 0.038 0.173 0.036 0.174 0.034 0.174 0.031 0.175 0.03 0.176 0.027 0.176 0.025 0.176 0.023 0.177 0.021 0.177 0.019 0.178 0.017 0.178 0.014 0.178 0.012 0.179 0.01 0.179 8e-3 0.179 6e-3 0.18 3e-3 0.18 1e-3 0.174v0.512l-1e-3 0.155-3e-3 0.162-5e-3 0.161-7e-3 0.161-9e-3 0.16-0.011 0.16-0.013 0.16-0.015 0.16-0.016 0.159-0.019 0.159-0.021 0.159-0.022 0.158-0.025 0.157-0.026 0.158-0.029 0.157-0.03 0.156-0.032 0.156-0.034 0.155-0.036 0.155-0.038 0.155-0.04 0.154-0.041 0.153-0.044 0.153-0.045 0.152-0.047 0.151-0.049 0.151-0.051 0.151-0.052 0.149-0.055 0.149-0.056 0.149-0.058 0.147-0.06 0.147-0.061 0.146-0.063 0.145-0.066 0.145-0.066 0.144-0.069 0.143-0.07 0.142-0.146 0.282-0.076 0.139-0.077 0.139-0.079 0.138-0.081 0.136-0.083 0.136-0.084 0.135-0.086 0.134-0.087 0.133-0.089 0.132-0.091 0.131-0.093 0.13-0.094 0.129-0.096 0.128-0.097 0.127-0.099 0.125-0.101 0.125-0.102 0.123-0.104 0.122-0.106 0.122-0.107 0.119-0.109 0.119-0.11 0.117-0.112 0.117-0.228 0.228-0.117 0.112-0.117 0.11-0.119 0.109-0.119 0.107-0.121 0.106-0.123 0.104-0.123 0.102-0.125 0.101-0.125 0.099-0.127 0.097-0.128 0.096-0.129 0.094-0.13 0.093-0.131 0.091-0.132 0.089-0.133 0.087-0.134 0.086-0.135 0.084-0.136 0.083-0.136 0.081-0.138 0.079-0.139 0.077-0.139 0.076-0.282 0.146-0.142 0.07-0.143 0.069-0.144 0.066-0.145 0.066-0.145 0.063-0.146 0.061-0.147 0.06-0.148 0.058-0.148 0.056-0.149 0.055-0.149 0.052-0.151 0.051-0.151 0.049-0.151 0.047-0.152 0.045-0.153 0.044-0.153 0.041-0.154 0.04-0.155 0.038-0.155 0.036-0.155 0.034-0.156 0.032-0.156 0.03-0.157 0.029-0.158 0.026-0.157 0.025-0.158 0.022-0.159 0.021-0.159 0.019-0.159 0.016-0.16 0.015-0.16 0.013-0.16 0.011-0.16 9e-3 -0.161 7e-3 -0.161 5e-3 -0.162 3e-3 -0.155 1e-3h-3.012l-0.155-1e-3 -0.162-3e-3 -0.161-5e-3 -0.161-7e-3 -0.16-9e-3 -0.16-0.011-0.16-0.013-0.16-0.015-0.159-0.016-0.159-0.019-0.159-0.021-0.158-0.022-0.157-0.025-0.158-0.026-0.157-0.029-0.156-0.03-0.156-0.032-0.155-0.034-0.155-0.036-0.155-0.038-0.154-0.04-0.153-0.041-0.153-0.044-0.152-0.045-0.151-0.047-0.151-0.049-0.151-0.051-0.149-0.052-0.149-0.055-0.148-0.056-0.148-0.058-0.147-0.06-0.146-0.061-0.145-0.063-0.145-0.066-0.144-0.066-0.143-0.069-0.142-0.07-0.282-0.146-0.139-0.076-0.139-0.077-0.138-0.079-0.136-0.081-0.136-0.083-0.135-0.084-0.134-0.086-0.133-0.087-0.132-0.089-0.131-0.091-0.13-0.093-0.129-0.094-0.128-0.096-0.127-0.097-0.125-0.099-0.125-0.101-0.123-0.102-0.123-0.104-0.121-0.106-0.119-0.107-0.119-0.109-0.117-0.11-0.117-0.112-0.228-0.228-0.112-0.117-0.11-0.117-0.109-0.119-0.107-0.119-0.106-0.122-0.104-0.122-0.102-0.123-0.101-0.125-0.099-0.125-0.097-0.127-0.096-0.128-0.094-0.129-0.093-0.13-0.091-0.131-0.089-0.132-0.087-0.133-0.086-0.134-0.084-0.135-0.083-0.136-0.081-0.136-0.079-0.138-0.077-0.139-0.076-0.139-0.146-0.282-0.07-0.142-0.069-0.143-0.066-0.144-0.066-0.145-0.063-0.145-0.061-0.146-0.06-0.147-0.058-0.148-0.056-0.148-0.055-0.149-0.052-0.149-0.051-0.151-0.049-0.151-0.047-0.151-0.045-0.152-0.044-0.153-0.041-0.153-0.04-0.154-0.038-0.155-0.036-0.155-0.034-0.155-0.032-0.156-0.03-0.156-0.029-0.157-0.026-0.158-0.025-0.157-0.022-0.158-0.021-0.159-0.019-0.159-0.016-0.159-0.015-0.16-0.013-0.16-0.011-0.16-9e-3 -0.16-7e-3 -0.161-5e-3 -0.161-3e-3 -0.162-1e-3 -0.155v-0.512l1e-3 -0.174 3e-3 -0.18 6e-3 -0.18 8e-3 -0.179 0.01-0.179 0.012-0.179 0.014-0.178 0.017-0.178 0.019-0.178 0.021-0.177 0.023-0.177 0.025-0.176 0.027-0.176 0.03-0.176 0.031-0.175 0.034-0.174 0.036-0.174 0.038-0.173 0.04-0.173 0.042-0.172 0.045-0.172 0.046-0.171 0.048-0.17 0.051-0.17 0.052-0.169 0.055-0.169 0.056-0.167 0.059-0.167 0.061-0.166 0.062-0.166 0.065-0.164 0.067-0.164 0.068-0.163 0.071-0.162 0.073-0.161 0.074-0.161 0.077-0.159 0.078-0.159 0.081-0.157 0.082-0.157 0.084-0.156 0.087-0.154 0.088-0.154 0.09-0.153 0.092-0.151 0.094-0.151 0.096-0.149 0.097-0.149 0.1-0.147 0.101-0.146 0.103-0.145 0.105-0.144 0.107-0.142 0.109-0.142 0.11-0.14 0.113-0.139 0.114-0.137 0.116-0.136 0.118-0.135 0.119-0.134 0.121-0.132 0.124-0.131 0.124-0.13 0.127-0.128 0.128-0.127 0.13-0.124 0.131-0.124 0.132-0.121 0.134-0.119 0.135-0.118 0.136-0.116 0.137-0.114 0.139-0.113 0.14-0.11 0.142-0.109 0.142-0.107 0.144-0.105 0.145-0.103 0.146-0.101 0.147-0.1 0.149-0.097 0.149-0.096 0.151-0.094 0.151-0.092 0.153-0.09 0.154-0.088 0.154-0.087 0.156-0.084 0.157-0.082 0.157-0.081 0.159-0.078 0.159-0.077 0.161-0.074 0.161-0.073 0.162-0.071 0.163-0.068 0.164-0.067 0.164-0.065 0.166-0.062 0.166-0.061 0.167-0.059 0.167-0.056 0.169-0.055 0.169-0.052 0.17-0.051 0.17-0.048 0.171-0.046 0.172-0.045 0.172-0.042 0.173-0.04 0.173-0.038 0.174-0.036 0.174-0.034 0.175-0.031 0.176-0.03 0.176-0.027 0.176-0.025 0.177-0.023 0.177-0.021 0.178-0.019 0.178-0.017 0.178-0.014 0.179-0.012 0.179-0.01 0.179-8e-3 0.18-6e-3 0.18-3e-3 0.174-1e-3h0.012l0.174 1e-3zm-0.31 4-0.131 2e-3 -0.13 4e-3 -0.13 6e-3 -0.129 7e-3 -0.13 9e-3 -0.129 0.01-0.129 0.012-0.128 0.014-0.129 0.015-0.128 0.017-0.128 0.018-0.127 0.02-0.127 0.021-0.127 0.023-0.126 0.025-0.126 0.026-0.125 0.027-0.126 0.029-0.124 0.031-0.125 0.032-0.123 0.033-0.124 0.035-0.123 0.037-0.122 0.038-0.122 0.039-0.121 0.041-0.121 0.043-0.121 0.044-0.119 0.045-0.12 0.047-0.118 0.048-0.118 0.05-0.118 0.051-0.116 0.053-0.116 0.054-0.116 0.055-0.115 0.057-0.114 0.058-0.113 0.06-0.113 0.061-0.112 0.063-0.111 0.063-0.111 0.066-0.11 0.066-0.109 0.068-0.108 0.069-0.107 0.071-0.107 0.072-0.106 0.074-0.105 0.074-0.104 0.076-0.103 0.078-0.102 0.078-0.102 0.081-0.1 0.081-0.1 0.083-0.099 0.083-0.194 0.172-0.096 0.088-0.095 0.089-0.094 0.091-0.093 0.091-0.091 0.093-0.091 0.094-0.089 0.095-0.088 0.096-0.172 0.194-0.083 0.099-0.083 0.1-0.081 0.1-0.081 0.102-0.078 0.102-0.078 0.103-0.076 0.104-0.074 0.105-0.074 0.106-0.072 0.107-0.071 0.107-0.069 0.108-0.068 0.109-0.066 0.11-0.066 0.111-0.063 0.111-0.063 0.112-0.061 0.113-0.06 0.113-0.058 0.114-0.057 0.115-0.055 0.116-0.054 0.116-0.053 0.116-0.051 0.118-0.05 0.118-0.048 0.118-0.047 0.12-0.045 0.119-0.044 0.121-0.043 0.121-0.041 0.121-0.039 0.122-0.038 0.122-0.037 0.123-0.035 0.124-0.033 0.123-0.032 0.125-0.031 0.124-0.029 0.126-0.027 0.125-0.026 0.126-0.025 0.126-0.023 0.127-0.021 0.127-0.02 0.127-0.018 0.128-0.017 0.128-0.015 0.129-0.014 0.128-0.012 0.129-0.01 0.129-9e-3 0.13-7e-3 0.129-6e-3 0.13-4e-3 0.13-2e-3 0.131-1e-3 0.136v0.488l1e-3 0.118 2e-3 0.112 3e-3 0.111 5e-3 0.111 6e-3 0.111 8e-3 0.111 9e-3 0.111 0.01 0.111 0.012 0.11 0.013 0.11 0.014 0.11 0.016 0.109 0.017 0.109 0.018 0.109 0.02 0.109 0.021 0.108 0.022 0.108 0.023 0.108 0.025 0.107 0.026 0.107 0.028 0.106 0.029 0.106 0.03 0.106 0.031 0.105 0.033 0.105 0.034 0.105 0.035 0.104 0.036 0.104 0.038 0.103 0.039 0.102 0.04 0.102 0.041 0.102 0.043 0.101 0.044 0.101 0.045 0.1 0.046 0.1 0.047 0.099 0.049 0.098 0.05 0.098 0.051 0.097 0.053 0.097 0.053 0.096 0.055 0.095 0.056 0.095 0.057 0.094 0.058 0.093 0.06 0.093 0.06 0.092 0.062 0.092 0.063 0.09 0.064 0.09 0.065 0.089 0.066 0.089 0.068 0.088 0.068 0.087 0.07 0.086 0.071 0.085 0.072 0.085 0.073 0.084 0.074 0.082 0.076 0.083 0.076 0.081 0.077 0.08 0.079 0.08 0.08 0.079 0.08 0.077 0.081 0.076 0.083 0.076 0.082 0.074 0.084 0.073 0.085 0.072 0.085 0.071 0.086 0.07 0.087 0.068 0.088 0.068 0.089 0.066 0.089 0.065 0.09 0.064 0.09 0.063 0.092 0.062 0.092 0.06 0.093 0.06 0.093 0.058 0.094 0.057 0.095 0.056 0.095 0.055 0.096 0.053 0.097 0.053 0.097 0.051 0.098 0.05 0.098 0.048 0.099 0.048 0.1 0.046 0.1 0.045 0.101 0.044 0.101 0.043 0.102 0.041 0.102 0.04 0.102 0.039 0.104 0.038 0.103 0.036 0.104 0.035 0.105 0.034 0.105 0.033 0.105 0.031 0.106 0.03 0.106 0.029 0.106 0.028 0.107 0.026 0.107 0.025 0.108 0.023 0.108 0.022 0.108 0.021 0.109 0.02 0.109 0.018 0.109 0.017 0.109 0.016 0.11 0.014 0.11 0.013 0.11 0.012 0.111 0.01 0.111 9e-3 0.111 8e-3 0.111 6e-3 0.111 5e-3 0.111 3e-3 0.112 2e-3 0.118 1e-3h2.988l0.118-1e-3 0.112-2e-3 0.111-3e-3 0.111-5e-3 0.111-6e-3 0.111-8e-3 0.111-9e-3 0.111-0.01 0.11-0.012 0.11-0.013 0.11-0.014 0.109-0.016 0.109-0.017 0.109-0.018 0.109-0.02 0.108-0.021 0.108-0.022 0.108-0.023 0.107-0.025 0.107-0.026 0.106-0.028 0.106-0.029 0.106-0.03 0.105-0.031 0.105-0.033 0.105-0.034 0.104-0.035 0.104-0.036 0.103-0.038 0.102-0.039 0.102-0.04 0.102-0.041 0.101-0.043 0.101-0.044 0.1-0.045 0.1-0.046 0.099-0.048 0.098-0.048 0.098-0.05 0.097-0.051 0.097-0.053 0.096-0.053 0.095-0.055 0.095-0.056 0.094-0.057 0.093-0.058 0.093-0.06 0.092-0.06 0.092-0.062 0.09-0.063 0.09-0.064 0.089-0.065 0.089-0.066 0.088-0.068 0.087-0.068 0.086-0.07 0.085-0.071 0.085-0.072 0.084-0.073 0.082-0.074 0.083-0.076 0.081-0.076 0.08-0.077 0.08-0.079 0.079-0.08 0.077-0.08 0.076-0.081 0.076-0.083 0.074-0.082 0.073-0.084 0.072-0.085 0.071-0.085 0.07-0.086 0.068-0.087 0.068-0.088 0.066-0.089 0.065-0.089 0.064-0.09 0.063-0.09 0.062-0.092 0.06-0.092 0.06-0.093 0.058-0.093 0.057-0.094 0.056-0.095 0.055-0.095 0.053-0.096 0.053-0.097 0.051-0.097 0.05-0.098 0.049-0.098 0.047-0.099 0.046-0.1 0.045-0.1 0.044-0.101 0.043-0.101 0.041-0.102 0.04-0.102 0.039-0.102 0.038-0.103 0.036-0.104 0.035-0.104 0.034-0.105 0.033-0.105 0.031-0.105 0.03-0.106 0.029-0.106 0.028-0.106 0.026-0.107 0.025-0.107 0.023-0.108 0.022-0.108 0.021-0.108 0.02-0.109 0.018-0.109 0.017-0.109 0.016-0.109 0.014-0.11 0.013-0.11 0.012-0.11 0.01-0.111 9e-3 -0.111 8e-3 -0.111 6e-3 -0.111 5e-3 -0.111 3e-3 -0.111 2e-3 -0.112 1e-3 -0.118v-0.488l-1e-3 -0.136-2e-3 -0.131-4e-3 -0.13-6e-3 -0.13-7e-3 -0.129-9e-3 -0.13-0.01-0.129-0.012-0.129-0.014-0.128-0.015-0.129-0.017-0.128-0.018-0.128-0.02-0.127-0.021-0.127-0.023-0.127-0.025-0.126-0.026-0.126-0.027-0.125-0.029-0.126-0.031-0.124-0.032-0.125-0.033-0.123-0.035-0.124-0.037-0.123-0.038-0.122-0.039-0.122-0.041-0.121-0.043-0.121-0.044-0.121-0.045-0.119-0.047-0.12-0.048-0.118-0.05-0.118-0.051-0.118-0.053-0.116-0.054-0.116-0.055-0.116-0.057-0.115-0.058-0.114-0.06-0.113-0.061-0.113-0.063-0.112-0.063-0.111-0.066-0.111-0.066-0.11-0.068-0.109-0.069-0.108-0.071-0.107-0.072-0.107-0.074-0.106-0.074-0.105-0.076-0.104-0.078-0.103-0.078-0.102-0.081-0.102-0.081-0.1-0.083-0.1-0.083-0.099-0.172-0.194-0.088-0.096-0.089-0.095-0.091-0.094-0.091-0.093-0.093-0.091-0.094-0.091-0.095-0.089-0.096-0.088-0.194-0.172-0.099-0.083-0.1-0.083-0.1-0.081-0.102-0.081-0.102-0.078-0.103-0.078-0.104-0.076-0.105-0.074-0.106-0.074-0.107-0.072-0.107-0.071-0.108-0.069-0.109-0.068-0.11-0.066-0.111-0.066-0.111-0.063-0.112-0.063-0.113-0.061-0.113-0.06-0.114-0.058-0.115-0.057-0.116-0.055-0.116-0.054-0.116-0.053-0.118-0.051-0.118-0.05-0.118-0.048-0.12-0.047-0.119-0.045-0.121-0.044-0.121-0.043-0.121-0.041-0.122-0.039-0.122-0.038-0.123-0.037-0.124-0.035-0.123-0.033-0.125-0.032-0.124-0.031-0.126-0.029-0.125-0.027-0.126-0.026-0.126-0.025-0.127-0.023-0.127-0.021-0.127-0.02-0.128-0.018-0.128-0.017-0.129-0.015-0.128-0.014-0.129-0.012-0.129-0.01-0.13-9e-3 -0.129-7e-3 -0.13-6e-3 -0.13-4e-3 -0.131-2e-3 -0.13-1e-3 -0.13 1e-3z"/><path d="m28 12.195-1e-3 0.112-5e-3 0.125-8e-3 0.124-0.01 0.124-0.014 0.123-0.017 0.123-0.02 0.121-0.022 0.122-0.026 0.12-0.029 0.12-0.031 0.119-0.034 0.118-0.038 0.117-0.039 0.116-0.043 0.115-0.046 0.114-0.048 0.113-0.051 0.111-0.054 0.111-0.057 0.109-0.059 0.108-0.062 0.106-0.064 0.105-0.067 0.103-0.07 0.102-0.072 0.1-0.075 0.099-0.077 0.096-0.08 0.096-0.083 0.093-0.084 0.091-0.088 0.09-0.089 0.087-0.091 0.084-0.094 0.083-0.095 0.08-0.096 0.077-0.099 0.075-0.1 0.072-0.102 0.07-0.103 0.067-0.105 0.064-0.107 0.062-0.107 0.059-0.109 0.057-0.111 0.054-0.111 0.051-0.113 0.048-0.114 0.046-0.115 0.043-0.116 0.04-0.117 0.037-0.118 0.034-0.119 0.031-0.12 0.029-0.12 0.026-0.122 0.022-0.122 0.02-0.122 0.017-0.123 0.014-0.124 0.01-0.124 8e-3 -0.125 5e-3 -0.112 1e-3h-3.981v-9.195l1e-3 -0.112 5e-3 -0.125 8e-3 -0.124 0.01-0.124 0.014-0.123 0.017-0.122 0.02-0.122 0.022-0.122 0.026-0.12 0.029-0.12 0.031-0.119 0.034-0.118 0.038-0.117 0.04-0.116 0.042-0.115 0.046-0.114 0.048-0.113 0.051-0.111 0.054-0.111 0.057-0.109 0.059-0.107 0.062-0.107 0.064-0.105 0.067-0.103 0.07-0.102 0.072-0.1 0.075-0.099 0.077-0.096 0.08-0.095 0.083-0.094 0.084-0.091 0.088-0.089 0.089-0.088 0.091-0.084 0.094-0.083 0.095-0.08 0.096-0.077 0.099-0.075 0.1-0.072 0.102-0.07 0.103-0.067 0.105-0.064 0.107-0.062 0.107-0.059 0.109-0.057 0.111-0.054 0.111-0.051 0.113-0.048 0.114-0.046 0.115-0.042 0.116-0.04 0.117-0.038 0.118-0.034 0.119-0.031 0.12-0.029 0.12-0.026 0.122-0.022 0.122-0.02 0.122-0.017 0.123-0.014 0.124-0.01 0.124-8e-3 0.125-5e-3 0.112-1e-3h3.981v9.195zm-3.968-7.195-0.076 1e-3 -0.075 3e-3 -0.075 4e-3 -0.074 7e-3 -0.074 8e-3 -0.074 0.01-0.074 0.012-0.073 0.014-0.072 0.015-0.072 0.017-0.072 0.019-0.071 0.021-0.071 0.022-0.07 0.025-0.069 0.025-0.069 0.028-0.068 0.029-0.067 0.031-0.066 0.032-0.066 0.034-0.065 0.036-0.064 0.037-0.063 0.039-0.062 0.04-0.062 0.042-0.06 0.044-0.059 0.045-0.059 0.047-0.057 0.048-0.056 0.049-0.055 0.051-0.054 0.053-0.053 0.054-0.051 0.055-0.049 0.056-0.048 0.057-0.047 0.059-0.045 0.059-0.044 0.06-0.042 0.062-0.04 0.062-0.039 0.063-0.037 0.064-0.036 0.065-0.034 0.066-0.032 0.066-0.031 0.067-0.029 0.068-0.028 0.069-0.025 0.069-0.025 0.07-0.022 0.071-0.021 0.071-0.019 0.072-0.017 0.072-0.015 0.072-0.014 0.073-0.012 0.074-0.01 0.074-8e-3 0.074-7e-3 0.074-4e-3 0.075-3e-3 0.075-1e-3 0.076v7.182h1.968l0.076-1e-3 0.075-3e-3 0.075-4e-3 0.074-7e-3 0.074-8e-3 0.074-0.01 0.074-0.012 0.073-0.014 0.072-0.015 0.072-0.017 0.072-0.019 0.071-0.021 0.071-0.022 0.07-0.024 0.069-0.026 0.069-0.028 0.068-0.029 0.067-0.031 0.066-0.032 0.066-0.034 0.065-0.036 0.064-0.037 0.063-0.039 0.062-0.04 0.062-0.042 0.06-0.044 0.059-0.045 0.059-0.046 0.057-0.049 0.056-0.049 0.055-0.051 0.054-0.053 0.053-0.054 0.051-0.055 0.049-0.056 0.048-0.057 0.047-0.059 0.045-0.059 0.044-0.06 0.042-0.062 0.04-0.062 0.039-0.063 0.037-0.064 0.036-0.065 0.034-0.066 0.032-0.066 0.031-0.067 0.029-0.068 0.028-0.069 0.025-0.069 0.025-0.07 0.022-0.071 0.021-0.071 0.019-0.072 0.017-0.072 0.015-0.072 0.014-0.073 0.012-0.074 0.01-0.074 8e-3 -0.074 7e-3 -0.074 4e-3 -0.075 3e-3 -0.075 1e-3 -0.075v-7.183h-1.968z"/><path d="m31 15.981-1e-3 0.112-5e-3 0.125-8e-3 0.124-0.01 0.124-0.014 0.123-0.017 0.122-0.02 0.122-0.022 0.122-0.026 0.12-0.029 0.12-0.031 0.119-0.034 0.118-0.038 0.117-0.039 0.116-0.043 0.115-0.046 0.114-0.048 0.113-0.051 0.111-0.054 0.111-0.057 0.109-0.059 0.107-0.062 0.107-0.064 0.105-0.067 0.103-0.07 0.102-0.072 0.1-0.075 0.099-0.077 0.096-0.08 0.095-0.083 0.094-0.084 0.091-0.088 0.089-0.089 0.088-0.091 0.084-0.094 0.083-0.095 0.08-0.096 0.077-0.099 0.075-0.1 0.072-0.102 0.07-0.103 0.067-0.105 0.064-0.106 0.062-0.108 0.059-0.109 0.057-0.111 0.054-0.111 0.051-0.113 0.048-0.114 0.046-0.115 0.042-0.116 0.04-0.117 0.038-0.118 0.034-0.119 0.031-0.12 0.029-0.12 0.026-0.122 0.022-0.122 0.02-0.122 0.017-0.123 0.014-0.124 0.01-0.124 8e-3 -0.125 5e-3 -0.112 1e-3h-4.981v-7.981l1e-3 -0.112 5e-3 -0.125 8e-3 -0.124 0.01-0.124 0.014-0.123 0.017-0.122 0.02-0.122 0.022-0.122 0.026-0.12 0.029-0.12 0.031-0.119 0.034-0.118 0.038-0.117 0.039-0.116 0.043-0.115 0.046-0.114 0.048-0.113 0.051-0.111 0.054-0.111 0.057-0.109 0.059-0.107 0.062-0.107 0.064-0.105 0.067-0.103 0.07-0.102 0.072-0.1 0.075-0.099 0.077-0.096 0.08-0.095 0.083-0.094 0.084-0.091 0.088-0.089 0.089-0.088 0.091-0.084 0.094-0.083 0.095-0.08 0.096-0.077 0.099-0.075 0.1-0.072 0.102-0.07 0.103-0.067 0.105-0.064 0.107-0.062 0.107-0.059 0.109-0.057 0.111-0.054 0.111-0.051 0.113-0.048 0.114-0.046 0.115-0.042 0.116-0.04 0.117-0.038 0.118-0.034 0.119-0.031 0.12-0.029 0.12-0.026 0.122-0.022 0.122-0.02 0.122-0.017 0.123-0.014 0.124-0.01 0.124-8e-3 0.125-5e-3 0.112-1e-3h4.981v7.981zm-4.968-5.981-0.076 1e-3 -0.075 3e-3 -0.075 4e-3 -0.074 7e-3 -0.074 8e-3 -0.074 0.01-0.074 0.012-0.073 0.014-0.072 0.015-0.072 0.017-0.072 0.019-0.071 0.021-0.071 0.022-0.07 0.025-0.069 0.025-0.069 0.028-0.068 0.029-0.067 0.031-0.066 0.032-0.066 0.034-0.065 0.036-0.064 0.037-0.063 0.039-0.062 0.04-0.062 0.042-0.06 0.044-0.059 0.045-0.059 0.047-0.057 0.048-0.056 0.049-0.055 0.051-0.054 0.053-0.053 0.054-0.051 0.055-0.049 0.056-0.048 0.057-0.047 0.059-0.045 0.059-0.044 0.06-0.042 0.062-0.04 0.062-0.039 0.063-0.037 0.064-0.036 0.065-0.034 0.066-0.032 0.066-0.031 0.067-0.029 0.068-0.028 0.069-0.025 0.069-0.025 0.07-0.022 0.071-0.021 0.071-0.019 0.072-0.017 0.072-0.015 0.072-0.014 0.073-0.012 0.074-0.01 0.074-8e-3 0.074-7e-3 0.074-4e-3 0.075-3e-3 0.075-1e-3 0.076v5.968h2.968l0.076-1e-3 0.075-3e-3 0.075-4e-3 0.074-7e-3 0.074-8e-3 0.074-0.01 0.074-0.012 0.073-0.014 0.072-0.015 0.072-0.017 0.072-0.019 0.071-0.021 0.071-0.022 0.07-0.025 0.069-0.025 0.069-0.028 0.068-0.029 0.067-0.031 0.066-0.032 0.066-0.034 0.065-0.036 0.064-0.037 0.063-0.039 0.062-0.04 0.062-0.042 0.06-0.044 0.059-0.045 0.059-0.047 0.057-0.048 0.056-0.049 0.055-0.051 0.054-0.053 0.053-0.054 0.051-0.055 0.049-0.056 0.048-0.057 0.047-0.059 0.045-0.059 0.044-0.06 0.042-0.062 0.04-0.062 0.039-0.063 0.037-0.064 0.036-0.065 0.034-0.066 0.032-0.066 0.031-0.067 0.029-0.068 0.028-0.069 0.025-0.069 0.025-0.07 0.022-0.071 0.021-0.071 0.019-0.072 0.017-0.072 0.015-0.072 0.014-0.073 0.012-0.074 0.01-0.074 8e-3 -0.074 7e-3 -0.074 4e-3 -0.075 3e-3 -0.075 1e-3 -0.076v-5.968h-2.968z"/><path d="m32 5.727-1e-3 0.111-5e-3 0.124-8e-3 0.123-0.01 0.123-0.014 0.123-0.017 0.121-0.019 0.122-0.023 0.12-0.025 0.12-0.029 0.119-0.031 0.118-0.034 0.117-0.037 0.117-0.04 0.115-0.042 0.114-0.045 0.114-0.048 0.112-0.051 0.111-0.054 0.109-0.056 0.109-0.059 0.107-0.061 0.105-0.064 0.104-0.067 0.103-0.069 0.101-0.072 0.1-0.074 0.098-0.077 0.096-0.08 0.094-0.081 0.093-0.085 0.091-0.086 0.089-0.089 0.086-0.091 0.085-0.093 0.081-0.094 0.08-0.096 0.077-0.098 0.074-0.1 0.072-0.101 0.069-0.103 0.067-0.104 0.064-0.105 0.061-0.108 0.059-0.108 0.056-0.11 0.054-0.11 0.051-0.113 0.048-0.113 0.045-0.114 0.042-0.115 0.04-0.117 0.037-0.117 0.034-0.118 0.031-0.119 0.029-0.12 0.025-0.12 0.023-0.122 0.019-0.121 0.017-0.123 0.014-0.123 0.01-0.123 8e-3 -0.124 5e-3 -0.112 1e-3h-2.012v-5.729l1e-3 -0.115 5e-3 -0.128 8e-3 -0.126 0.012-0.127 0.014-0.125 0.017-0.125 0.021-0.123 0.023-0.123 0.027-0.122 0.029-0.121 0.033-0.119 0.035-0.119 0.038-0.117 0.041-0.116 0.043-0.114 0.046-0.113 0.049-0.112 0.052-0.11 0.054-0.109 0.056-0.107 0.059-0.105 0.062-0.104 0.064-0.102 0.066-0.101 0.068-0.099 0.071-0.097 0.073-0.095 0.075-0.093 0.077-0.092 0.08-0.089 0.081-0.088 0.084-0.085 0.085-0.084 0.088-0.081 0.089-0.08 0.092-0.077 0.093-0.075 0.095-0.073 0.097-0.071 0.099-0.068 0.101-0.067 0.102-0.063 0.104-0.062 0.105-0.059 0.107-0.056 0.109-0.054 0.11-0.052 0.112-0.049 0.113-0.046 0.115-0.043 0.115-0.041 0.117-0.038 0.119-0.035 0.119-0.033 0.121-0.029 0.122-0.027 0.123-0.023 0.123-0.021 0.125-0.017 0.125-0.014 0.127-0.012 0.126-8e-3 0.128-5e-3 0.115-1e-3h2.015v5.727zm-2.002-3.727-0.077 1e-3 -0.077 3e-3 -0.077 5e-3 -0.076 6e-3 -0.075 9e-3 -0.075 0.011-0.074 0.012-0.073 0.014-0.073 0.016-0.072 0.017-0.072 0.02-0.071 0.021-0.07 0.023-0.069 0.024-0.068 0.026-0.068 0.028-0.067 0.029-0.066 0.031-0.065 0.032-0.064 0.034-0.063 0.035-0.063 0.037-0.061 0.038-0.06 0.04-0.059 0.041-0.059 0.043-0.057 0.043-0.056 0.046-0.055 0.046-0.054 0.048-0.052 0.049-0.052 0.05-0.05 0.052-0.049 0.052-0.048 0.054-0.046 0.055-0.046 0.056-0.043 0.057-0.043 0.058-0.041 0.06-0.04 0.06-0.038 0.061-0.037 0.063-0.035 0.063-0.034 0.064-0.032 0.065-0.031 0.066-0.029 0.067-0.028 0.068-0.026 0.068-0.024 0.069-0.023 0.07-0.021 0.071-0.02 0.072-0.017 0.072-0.016 0.073-0.014 0.073-0.012 0.074-0.011 0.075-9e-3 0.075-6e-3 0.076-5e-3 0.077-3e-3 0.077-1e-3 0.077v3.716l0.075-1e-3 0.074-3e-3 0.074-4e-3 0.074-7e-3 0.073-8e-3 0.073-0.01 0.073-0.012 0.072-0.013 0.072-0.015 0.071-0.017 0.071-0.019 0.071-0.021 0.069-0.022 0.07-0.024 0.068-0.025 0.068-0.027 0.067-0.029 0.067-0.031 0.066-0.032 0.065-0.033 0.064-0.036 0.063-0.036 0.063-0.039 0.061-0.04 0.061-0.042 0.06-0.043 0.059-0.044 0.057-0.046 0.057-0.048 0.056-0.049 0.054-0.051 0.053-0.052 0.052-0.053 0.051-0.054 0.049-0.056 0.048-0.057 0.046-0.057 0.044-0.059 0.043-0.06 0.042-0.061 0.04-0.061 0.038-0.063 0.037-0.063 0.036-0.064 0.033-0.065 0.032-0.066 0.031-0.067 0.029-0.067 0.027-0.068 0.025-0.068 0.024-0.07 0.022-0.069 0.021-0.071 0.019-0.071 0.017-0.071 0.015-0.072 0.013-0.072 0.012-0.073 0.01-0.073 8e-3 -0.073 7e-3 -0.074 4e-3 -0.074 3e-3 -0.074 1e-3 -0.075v-3.714h-2e-3z"/><path d="m25 4.97-1e-3 0.104-2e-3 0.11-3e-3 0.111-5e-3 0.11-6e-3 0.109-8e-3 0.109-9e-3 0.109-0.01 0.109-0.012 0.108-0.013 0.108-0.014 0.108-0.016 0.107-0.017 0.106-0.018 0.107-0.02 0.105-0.021 0.106-0.022 0.105-0.023 0.104-0.025 0.104-0.026 0.104-0.027 0.103-0.029 0.103-0.029 0.102-0.031 0.101-0.032 0.101-0.034 0.101-0.034 0.1-0.036 0.099-0.037 0.099-0.038 0.098-0.039 0.097-0.04 0.097-0.042 0.097-0.042 0.096-0.044 0.095-0.045 0.094-0.046 0.094-0.047 0.093-0.048 0.093-0.049 0.092-0.05 0.091-0.104 0.18-0.053 0.089-0.055 0.089-0.055 0.087-0.057 0.087-0.057 0.086-0.059 0.086-0.059 0.085-0.061 0.083-0.061 0.084-0.062 0.082-0.064 0.082-0.064 0.08-0.065 0.081-0.067 0.079-0.067 0.078-0.068 0.078-0.138 0.152-0.071 0.075-0.072 0.075-0.072 0.073-0.148 0.144-0.075 0.071-0.076 0.07-0.076 0.069-0.078 0.068-0.078 0.067-0.08 0.066-0.08 0.065-0.08 0.064-0.082 0.064-0.083 0.062-0.083 0.061-0.084 0.061-0.084 0.059-0.086 0.059-0.086 0.057-0.087 0.057-0.176 0.11-0.089 0.053-0.09 0.053-0.09 0.051-0.092 0.05-0.091 0.049-0.093 0.048-0.093 0.047-0.094 0.046-0.094 0.045-0.096 0.044-0.095 0.042-0.097 0.042-0.097 0.04-0.097 0.039-0.098 0.038-0.099 0.037-0.1 0.036-0.099 0.034-0.101 0.034-0.101 0.032-0.101 0.031-0.103 0.029-0.102 0.029-0.103 0.027-0.104 0.026-0.104 0.025-0.104 0.023-0.105 0.022-0.106 0.021-0.106 0.02-0.106 0.018-0.107 0.017-0.107 0.016-0.107 0.014-0.108 0.013-0.108 0.012-0.109 0.01-0.109 9e-3 -0.109 8e-3 -0.11 6e-3 -0.11 5e-3 -0.11 3e-3 -0.11 2e-3 -0.105 1e-3h-3.398v-5.112l1e-3 -0.105 2e-3 -0.11 3e-3 -0.11 5e-3 -0.11 6e-3 -0.11 8e-3 -0.109 9e-3 -0.109 0.01-0.109 0.012-0.108 0.013-0.108 0.014-0.107 0.016-0.107 0.017-0.107 0.018-0.106 0.02-0.106 0.021-0.106 0.022-0.105 0.023-0.104 0.025-0.104 0.026-0.104 0.027-0.103 0.058-0.204 0.031-0.102 0.032-0.101 0.068-0.2 0.036-0.1 0.037-0.098 0.038-0.099 0.039-0.097 0.04-0.097 0.042-0.097 0.042-0.095 0.044-0.096 0.045-0.094 0.046-0.094 0.047-0.093 0.048-0.093 0.049-0.091 0.05-0.092 0.104-0.18 0.053-0.089 0.11-0.176 0.057-0.087 0.057-0.086 0.059-0.086 0.059-0.084 0.061-0.084 0.061-0.083 0.062-0.083 0.128-0.162 0.065-0.08 0.067-0.08 0.067-0.078 0.068-0.078 0.138-0.152 0.071-0.075 0.144-0.148 0.148-0.144 0.075-0.071 0.152-0.138 0.078-0.068 0.078-0.067 0.08-0.067 0.08-0.065 0.08-0.064 0.164-0.126 0.168-0.122 0.084-0.059 0.086-0.059 0.086-0.057 0.087-0.057 0.176-0.11 0.089-0.053 0.18-0.104 0.091-0.05 0.092-0.049 0.093-0.048 0.093-0.047 0.094-0.046 0.094-0.045 0.096-0.044 0.095-0.042 0.097-0.042 0.097-0.04 0.097-0.039 0.098-0.038 0.099-0.037 0.1-0.036 0.099-0.034 0.101-0.034 0.101-0.032 0.101-0.031 0.103-0.029 0.102-0.029 0.103-0.027 0.104-0.026 0.104-0.025 0.104-0.023 0.105-0.022 0.106-0.021 0.106-0.02 0.106-0.018 0.107-0.017 0.107-0.016 0.107-0.014 0.108-0.013 0.108-0.012 0.109-0.01 0.109-9e-3 0.109-8e-3 0.11-6e-3 0.11-5e-3 0.11-3e-3 0.11-2e-3 0.105-1e-3h3.398v5.113zm-3.392-3.113-0.085 1e-3 -0.086 1e-3 -0.084 3e-3 -0.085 4e-3 -0.084 4e-3 -0.084 6e-3 -0.084 7e-3 -0.084 8e-3 -0.083 9e-3 -0.083 0.01-0.082 0.011-0.082 0.012-0.082 0.013-0.082 0.014-0.081 0.015-0.081 0.016-0.08 0.017-0.08 0.018-0.08 0.019-0.079 0.02-0.079 0.021-0.079 0.022-0.078 0.022-0.078 0.024-0.154 0.05-0.077 0.027-0.076 0.027-0.076 0.028-0.075 0.029-0.075 0.03-0.074 0.031-0.074 0.032-0.146 0.066-0.073 0.035-0.072 0.035-0.071 0.036-0.071 0.037-0.071 0.038-0.07 0.038-0.138 0.08-0.069 0.041-0.067 0.041-0.068 0.043-0.066 0.043-0.067 0.045-0.065 0.044-0.065 0.046-0.065 0.047-0.064 0.047-0.126 0.096-0.062 0.05-0.061 0.05-0.061 0.051-0.06 0.051-0.06 0.053-0.059 0.053-0.058 0.053-0.058 0.055-0.114 0.11-0.11 0.114-0.055 0.058-0.053 0.058-0.053 0.059-0.053 0.06-0.051 0.06-0.051 0.061-0.05 0.061-0.05 0.062-0.096 0.126-0.047 0.064-0.047 0.065-0.046 0.065-0.044 0.065-0.045 0.067-0.043 0.066-0.043 0.068-0.082 0.136-0.041 0.069-0.039 0.069-0.038 0.07-0.038 0.071-0.037 0.071-0.036 0.071-0.035 0.072-0.035 0.073-0.066 0.146-0.032 0.074-0.031 0.074-0.03 0.075-0.029 0.075-0.028 0.076-0.027 0.076-0.027 0.077-0.05 0.154-0.024 0.078-0.022 0.078-0.022 0.079-0.021 0.079-0.02 0.079-0.019 0.08-0.018 0.08-0.017 0.08-0.016 0.081-0.015 0.081-0.014 0.082-0.013 0.082-0.012 0.082-0.011 0.082-0.01 0.083-9e-3 0.083-8e-3 0.084-7e-3 0.084-6e-3 0.084-4e-3 0.084-4e-3 0.085-3e-3 0.084-1e-3 0.086-1e-3 0.085v3.106h1.392 0.085l0.086-2e-3 0.084-3e-3 0.085-3e-3 0.084-5e-3 0.084-6e-3 0.084-7e-3 0.084-8e-3 0.083-9e-3 0.083-0.01 0.082-0.011 0.082-0.012 0.082-0.013 0.082-0.014 0.081-0.015 0.081-0.016 0.08-0.017 0.08-0.018 0.08-0.019 0.079-0.02 0.079-0.021 0.079-0.022 0.078-0.022 0.078-0.024 0.154-0.05 0.077-0.026 0.152-0.056 0.075-0.029 0.075-0.03 0.074-0.031 0.074-0.032 0.146-0.066 0.073-0.034 0.072-0.036 0.071-0.036 0.142-0.074 0.07-0.039 0.069-0.039 0.138-0.082 0.067-0.041 0.068-0.043 0.066-0.043 0.067-0.044 0.065-0.045 0.13-0.092 0.064-0.048 0.126-0.096 0.062-0.05 0.061-0.05 0.061-0.051 0.06-0.051 0.06-0.053 0.059-0.052 0.058-0.054 0.058-0.055 0.114-0.11 0.165-0.171 0.159-0.177 0.102-0.122 0.05-0.061 0.05-0.062 0.096-0.126 0.047-0.064 0.047-0.065 0.046-0.065 0.044-0.065 0.045-0.066 0.086-0.134 0.041-0.068 0.082-0.138 0.039-0.069 0.038-0.07 0.038-0.071 0.037-0.071 0.036-0.071 0.07-0.144 0.033-0.073 0.033-0.074 0.032-0.074 0.031-0.074 0.03-0.075 0.029-0.075 0.028-0.076 0.054-0.152 0.025-0.077 0.025-0.078 0.024-0.078 0.044-0.156 0.021-0.079 0.02-0.08 0.019-0.079 0.018-0.081 0.017-0.08 0.016-0.081 0.015-0.081 0.014-0.082 0.013-0.081 0.012-0.083 0.011-0.082 0.01-0.083 9e-3 -0.083 8e-3 -0.084 7e-3 -0.083 6e-3 -0.084 4e-3 -0.085 4e-3 -0.084 3e-3 -0.085 1e-3 -0.085 1e-3 -0.086v-3.106h-1.392z"/></g><g id="emoji"><path d="m26 5h-1.968c-0.804 0-1.576 0.319-2.144 0.888-0.569 0.568-0.888 1.34-0.888 2.144v7.182h1.968c0.804 0 1.576-0.319 2.144-0.888 0.569-0.568 0.888-1.339 0.888-2.143v-7.183z" fill="#f08c00"/><path d="m30 2h-2e-3c-1.656 0-2.998 1.342-2.998 2.998v3.716c0.796 0 1.559-0.316 2.121-0.879 0.563-0.562 0.879-1.325 0.879-2.121v-3.714z" fill="#f08c00"/><path d="m23 1.857h-1.392c-3.65 0-6.608 2.959-6.608 6.608v3.106h1.392c3.65 0 6.608-2.958 6.608-6.608v-3.106z" fill="#f08c00"/><path d="m29 10h-2.968c-0.804 0-1.576 0.319-2.144 0.888-0.569 0.568-0.888 1.34-0.888 2.144v5.968h2.968c0.804 0 1.576-0.319 2.144-0.888 0.569-0.568 0.888-1.34 0.888-2.144v-5.968z" fill="#f08c00"/><path d="m28 11h-1.968c-1.675 0-3.032 1.357-3.032 3.032v3.968h1.968c1.675 0 3.032-1.357 3.032-3.032v-3.968z" fill="#ffbf36"/><path d="m25 7h-1.968c-0.804 0-1.576 0.319-2.144 0.888-0.569 0.568-0.888 1.34-0.888 2.144v4.968h1.968c0.804 0 1.576-0.319 2.144-0.888 0.569-0.568 0.888-1.34 0.888-2.144v-4.968z" fill="#ffbf36"/><path d="m21.857 4h-1.54c-0.804 0-1.575 0.319-2.143 0.888-0.569 0.568-0.888 1.34-0.888 2.144v3.968h1.54c0.804 0 1.575-0.319 2.143-0.888 0.569-0.568 0.888-1.34 0.888-2.144v-3.968z" fill="#ffbf36"/><path d="m27 16.5c0-3.315-1.317-6.495-3.661-8.839s-5.524-3.661-8.839-3.661-6.495 1.317-8.839 3.661-3.661 5.524-3.661 8.839v0.5c0 2.917 1.159 5.715 3.222 7.778s4.861 3.222 7.778 3.222h3c2.917 0 5.715-1.159 7.778-3.222s3.222-4.861 3.222-7.778v-0.5z" fill="#fb4646"/><clipPath id="_clip2"><path d="m27 16.5c0-3.315-1.317-6.495-3.661-8.839s-5.524-3.661-8.839-3.661-6.495 1.317-8.839 3.661-3.661 5.524-3.661 8.839v0.5c0 2.917 1.159 5.715 3.222 7.778s4.861 3.222 7.778 3.222h3c2.917 0 5.715-1.159 7.778-3.222s3.222-4.861 3.222-7.778v-0.5z"/></clipPath><g clip-path="url(#_clip2)"><path d="m16 23s-1.983-1.416-3.838-2.741c-0.609-0.436-1.411-0.494-2.077-0.151s-1.085 1.029-1.085 1.778v8.114c0 0.552 0.448 1 1 1h3c0.265 0 0.52-0.105 0.707-0.293 0.188-0.187 0.293-0.442 0.293-0.707v-1h8s-3.011-3.614-4.36-5.232c-0.406-0.487-1.006-0.768-1.64-0.768z" fill="#da2727"/></g><path d="m10 9.5c0-0.398-0.158-0.779-0.439-1.061-0.282-0.281-0.663-0.439-1.061-0.439s-0.779 0.158-1.061 0.439c-0.281 0.282-0.439 0.663-0.439 1.061v4c0 0.398 0.158 0.779 0.439 1.061 0.282 0.281 0.663 0.439 1.061 0.439s0.779-0.158 1.061-0.439c0.281-0.282 0.439-0.663 0.439-1.061v-4z"/><path d="m22 10h-4c-0.265 0-0.52 0.105-0.707 0.293-0.188 0.187-0.293 0.442-0.293 0.707 0 0.552 0.448 1 1 1h1v1.502c0 0.397 0.158 0.778 0.439 1.059s0.662 0.439 1.059 0.439h4e-3c0.827 0 1.498-0.671 1.498-1.498v-3.502z"/><path d="m15.467 16.001 0.124 5e-3 0.123 8e-3 0.123 0.01 0.123 0.014 0.121 0.017 0.122 0.019 0.12 0.023 0.12 0.025 0.119 0.029 0.118 0.031 0.117 0.034 0.117 0.037 0.115 0.04 0.114 0.042 0.114 0.046 0.112 0.048 0.111 0.05 0.109 0.054 0.109 0.056 0.107 0.059 0.105 0.061 0.104 0.064 0.103 0.067 0.101 0.069 0.1 0.072 0.098 0.074 0.096 0.077 0.094 0.08 0.093 0.081 0.091 0.085 0.084 0.082 0.833 0.833 0.041 0.043 0.038 0.045 0.035 0.048 0.032 0.05 0.03 0.051 0.026 0.053 0.023 0.055 0.02 0.056 0.016 0.057 0.014 0.058 9e-3 0.058 6e-3 0.059 3e-3 0.059-1e-3 0.059-4e-3 0.06-8e-3 0.058-0.012 0.058-0.014 0.058-0.019 0.056-0.021 0.056-0.025 0.053-0.028 0.053-0.03 0.05-0.034 0.049-0.037 0.047-0.039 0.044-0.042 0.042-0.044 0.039-0.047 0.037-0.049 0.034-0.05 0.03-0.053 0.028-0.053 0.025-0.056 0.021-0.056 0.019-0.058 0.014-0.058 0.012-0.058 8e-3 -0.06 4e-3 -0.059 1e-3 -0.059-3e-3 -0.059-6e-3 -0.058-9e-3 -0.058-0.014-0.057-0.016-0.056-0.02-0.055-0.023-0.053-0.026-0.051-0.03-0.05-0.032-0.048-0.035-0.045-0.038-0.043-0.041-0.824-0.824-0.058-0.056-0.054-0.051-0.056-0.049-0.057-0.048-0.057-0.046-0.059-0.044-0.06-0.043-0.06-0.042-0.062-0.04-0.063-0.038-0.063-0.037-0.064-0.036-0.065-0.033-0.066-0.032-0.067-0.031-0.067-0.029-0.068-0.027-0.068-0.025-0.07-0.024-0.069-0.022-0.071-0.021-0.071-0.018-0.071-0.017-0.072-0.016-0.072-0.013-0.073-0.012-0.073-0.01-0.073-8e-3 -0.074-7e-3 -0.074-4e-3 -0.074-3e-3 -0.081-1e-3h-5.337l-0.059-2e-3 -0.059-5e-3 -0.059-9e-3 -0.058-0.012-0.057-0.016-0.056-0.019-0.055-0.022-0.054-0.025-0.052-0.029-0.05-0.032-0.048-0.034-0.046-0.037-0.044-0.04-0.041-0.043-0.039-0.045-0.035-0.047-0.034-0.049-0.03-0.051-0.027-0.053-0.024-0.054-0.02-0.056-0.018-0.056-0.014-0.058-0.01-0.058-7e-3 -0.059-4e-3 -0.059v-0.06l4e-3 -0.059 7e-3 -0.059 0.01-0.058 0.014-0.058 0.018-0.056 0.02-0.056 0.024-0.054 0.027-0.053 0.03-0.051 0.034-0.049 0.035-0.047 0.039-0.045 0.041-0.043 0.044-0.04 0.046-0.037 0.048-0.034 0.05-0.032 0.052-0.029 0.054-0.025 0.055-0.022 0.056-0.019 0.057-0.016 0.058-0.012 0.059-9e-3 0.059-5e-3 0.059-2e-3h5.349l0.118 1e-3z" fill="#5b1010"/><path d="m9 22-0.894 0.447c-0.678 0.339-1.106 1.032-1.106 1.789v4.764c0 0.265 0.105 0.52 0.293 0.707 0.187 0.188 0.442 0.293 0.707 0.293h3c0.552 0 1-0.448 1-1v-3h3c0.552 0 1-0.448 1-1 0-0.265-0.105-0.52-0.293-0.707-0.187-0.188-0.442-0.293-0.707-0.293h-6v-2z" fill="#fb4646"/><path d="m11 22h4.025l0.124 3e-3 0.147 0.011 0.147 0.018 0.145 0.026 0.143 0.032 0.142 0.039 0.139 0.046 0.136 0.053 0.134 0.059 0.131 0.066 0.128 0.072 0.124 0.079 0.12 0.084 0.117 0.091 0.112 0.097 0.108 0.102 0.102 0.108 0.097 0.112 0.091 0.117 0.084 0.12 0.079 0.124 0.072 0.128 0.066 0.131 0.059 0.134 0.053 0.136 0.046 0.139 0.039 0.142 0.032 0.143 0.026 0.145 0.018 0.147 0.011 0.147 4e-3 0.149-4e-3 0.153-0.012 0.151-0.019 0.15-0.026 0.148-0.034 0.146-0.041 0.143-0.047 0.141-0.054 0.136-0.06 0.134-0.067 0.13-0.072 0.125-0.078 0.122-0.084 0.117-0.088 0.113-0.094 0.109-0.099 0.104-0.104 0.099-0.109 0.094-0.113 0.088-0.117 0.084-0.122 0.078-0.125 0.072-0.13 0.067-0.134 0.06-0.136 0.054-0.141 0.047-0.143 0.041-0.145 0.034-0.149 0.026-0.15 0.019-0.151 0.012-0.128 3e-3h-1.025v1.025l-3e-3 0.128-0.012 0.151-0.019 0.15-0.026 0.148-0.034 0.146-0.041 0.143-0.047 0.141-0.054 0.136-0.06 0.134-0.067 0.13-0.072 0.125-0.078 0.122-0.084 0.117-0.088 0.113-0.094 0.109-0.099 0.104-0.104 0.099-0.109 0.094-0.113 0.089-0.117 0.083-0.122 0.078-0.125 0.072-0.13 0.067-0.134 0.06-0.136 0.054-0.141 0.047-0.143 0.041-0.146 0.034-0.148 0.026-0.15 0.019-0.151 0.012-0.128 3e-3h-3.05l-0.124-3e-3 -0.147-0.011-0.147-0.018-0.145-0.026-0.143-0.032-0.142-0.039-0.139-0.046-0.136-0.053-0.134-0.059-0.131-0.066-0.128-0.072-0.124-0.079-0.12-0.084-0.117-0.091-0.112-0.097-0.108-0.102-0.102-0.108-0.097-0.112-0.091-0.117-0.084-0.12-0.079-0.124-0.072-0.128-0.066-0.131-0.059-0.134-0.053-0.136-0.046-0.139-0.039-0.142-0.032-0.143-0.026-0.145-0.018-0.147-0.011-0.147-3e-3 -0.124v-4.807l2e-3 -0.123 8e-3 -0.141 0.012-0.14 0.017-0.139 0.022-0.137 0.027-0.137 0.031-0.135 0.036-0.133 0.04-0.132 0.045-0.13 0.049-0.128 0.053-0.126 0.058-0.125 0.061-0.122 0.066-0.12 0.07-0.117 0.074-0.115 0.078-0.112 0.081-0.11 0.086-0.107 0.089-0.104 0.092-0.102 0.097-0.098 0.1-0.095 0.103-0.092 0.107-0.088 0.11-0.085 0.113-0.081 0.117-0.077 0.119-0.074 0.123-0.069 0.109-0.058 3.805-1.902v3.236zm-2.894 0.447-0.063 0.033-0.062 0.035-0.059 0.037-0.058 0.038-0.057 0.041-0.055 0.042-0.053 0.044-0.052 0.046-0.05 0.048-0.048 0.049-0.046 0.05-0.045 0.052-0.043 0.054-0.04 0.055-0.039 0.056-0.037 0.058-0.035 0.058-0.033 0.06-0.031 0.061-0.029 0.062-0.027 0.064-0.024 0.064-0.022 0.065-0.021 0.066-0.017 0.066-0.016 0.068-0.013 0.068-0.011 0.069-9e-3 0.069-6e-3 0.07-4e-3 0.07-1e-3 0.071v4.764l1e-3 0.05 4e-3 0.049 6e-3 0.049 8e-3 0.048 0.011 0.048 0.013 0.047 0.016 0.046 0.017 0.046 0.02 0.044 0.022 0.044 0.024 0.042 0.026 0.042 0.028 0.04 0.03 0.039 0.033 0.037 0.034 0.036 0.036 0.034 0.037 0.033 0.039 0.03 0.04 0.028 0.042 0.026 0.042 0.024 0.044 0.022 0.044 0.02 0.046 0.017 0.046 0.016 0.047 0.013 0.048 0.011 0.048 8e-3 0.049 6e-3 0.049 4e-3 0.05 1e-3h3l0.051-1e-3 0.051-4e-3 0.05-7e-3 0.05-8e-3 0.048-0.011 0.047-0.014 0.047-0.016 0.045-0.018 0.045-0.02 0.043-0.022 0.042-0.024 0.04-0.026 0.039-0.028 0.038-0.029 0.036-0.032 0.035-0.033 0.033-0.035 0.032-0.036 0.029-0.038 0.028-0.039 0.026-0.04 0.024-0.042 0.022-0.043 0.02-0.045 0.018-0.045 0.016-0.047 0.014-0.047 0.011-0.048 8e-3 -0.05 7e-3 -0.05 4e-3 -0.051 1e-3 -0.051v-3h3l0.051-1e-3 0.051-4e-3 0.05-7e-3 0.05-8e-3 0.048-0.011 0.047-0.014 0.047-0.016 0.045-0.018 0.045-0.02 0.043-0.022 0.042-0.024 0.04-0.026 0.039-0.028 0.038-0.029 0.036-0.032 0.035-0.033 0.033-0.035 0.032-0.036 0.029-0.038 0.028-0.039 0.026-0.04 0.024-0.042 0.022-0.043 0.02-0.045 0.018-0.045 0.016-0.047 0.014-0.047 0.011-0.048 8e-3 -0.05 7e-3 -0.05 4e-3 -0.051 1e-3 -0.051-1e-3 -0.05-4e-3 -0.049-6e-3 -0.049-8e-3 -0.048-0.011-0.048-0.013-0.047-0.016-0.046-0.017-0.046-0.02-0.044-0.022-0.044-0.024-0.042-0.026-0.042-0.028-0.04-0.03-0.039-0.033-0.037-0.034-0.036-0.036-0.034-0.037-0.033-0.039-0.03-0.04-0.028-0.042-0.026-0.042-0.024-0.044-0.022-0.044-0.02-0.046-0.017-0.046-0.016-0.047-0.013-0.048-0.011-0.048-8e-3 -0.049-6e-3 -0.049-4e-3 -0.05-1e-3h-6v-2l-0.894 0.447z"/><rect x="13" y="27" width="2" height="2"/></g></g></svg>
