<?xml version="1.0" encoding="UTF-8"?>
<!DOCTYPE svg  PUBLIC '-//W3C//DTD SVG 1.1//EN'  'http://www.w3.org/Graphics/SVG/1.1/DTD/svg11.dtd'>
<svg clip-rule="evenodd" fill-rule="evenodd" stroke-linecap="round" stroke-linejoin="round" stroke-miterlimit="1.5" version="1.1" viewBox="0 0 32 32" xml:space="preserve" xmlns="http://www.w3.org/2000/svg">
<metadata>
<rdf:RDF xmlns:cc="http://web.resource.org/cc/" xmlns:dc="http://purl.org/dc/elements/1.1/" xmlns:rdf="http://www.w3.org/1999/02/22-rdf-syntax-ns#">

     <rdf:Description rdf:about="">
       <dc:title>Mutant Standard S3</dc:title>
     </rdf:Description>

    <cc:work rdf:about="">
        <cc:license rdf:resource="http://creativecommons.org/licenses/by-nc-sa/4.0/"/>
        <cc:attributionName>Dzuk</cc:attributionName>
        <cc:attributionURL>http://mutant.tech/</cc:attributionURL>
    </cc:work>

</rdf:RDF>
</metadata>
<rect id="thinking" width="32" height="32" fill="none"/><clipPath id="_clip1"><rect width="32" height="32"/></clipPath><g clip-path="url(#_clip1)"><g id="outline"><path d="m22.324 2.001 0.121 2e-3 0.122 4e-3 0.121 5e-3 0.121 7e-3 0.121 8e-3 0.12 0.01 0.12 0.011 0.12 0.013 0.12 0.014 0.12 0.015 0.119 0.017 0.119 0.019 0.118 0.02 0.119 0.021 0.117 0.023 0.118 0.024 0.117 0.026 0.117 0.027 0.116 0.028 0.116 0.03 0.116 0.032 0.115 0.032 0.115 0.035 0.114 0.035 0.114 0.037 0.113 0.038 0.113 0.04 0.112 0.041 0.112 0.042 0.111 0.044 0.111 0.045 0.11 0.046 0.109 0.048 0.109 0.049 0.108 0.05 0.108 0.052 0.107 0.053 0.107 0.055 0.106 0.055 0.105 0.057 0.104 0.058 0.104 0.06 0.103 0.061 0.103 0.062 0.102 0.063 0.101 0.065 0.1 0.066 0.099 0.067 0.099 0.069 0.098 0.07 0.097 0.071 0.097 0.072 0.095 0.073 0.095 0.075 0.094 0.076 0.093 0.077 0.092 0.078 0.091 0.08 0.09 0.081 0.09 0.082 0.088 0.083 0.088 0.084 0.172 0.172 0.084 0.088 0.083 0.088 0.082 0.09 0.081 0.09 0.08 0.091 0.078 0.092 0.077 0.093 0.076 0.094 0.075 0.095 0.073 0.095 0.072 0.097 0.071 0.097 0.07 0.098 0.069 0.099 0.067 0.099 0.066 0.1 0.065 0.101 0.063 0.102 0.062 0.102 0.061 0.104 0.06 0.104 0.058 0.104 0.057 0.105 0.055 0.106 0.055 0.107 0.053 0.107 0.052 0.107 0.05 0.109 0.049 0.109 0.048 0.109 0.046 0.11 0.045 0.111 0.044 0.111 0.042 0.112 0.041 0.112 0.04 0.113 0.038 0.113 0.037 0.114 0.035 0.114 0.035 0.115 0.032 0.115 0.032 0.116 0.03 0.116 0.028 0.116 0.027 0.117 0.026 0.117 0.024 0.118 0.023 0.117 0.021 0.119 0.02 0.118 0.019 0.119 0.017 0.119 0.015 0.12 0.014 0.12 0.013 0.12 0.011 0.12 0.01 0.121 8e-3 0.12 7e-3 0.121 5e-3 0.121 4e-3 0.122 2e-3 0.121 1e-3 0.116v4.461l-1e-3 0.125-2e-3 0.13-3e-3 0.131-5e-3 0.13-7e-3 0.13-8e-3 0.13-9e-3 0.13-0.01 0.13-0.012 0.129-0.014 0.13-0.015 0.129-0.016 0.129-0.018 0.129-0.019 0.129-0.02 0.128-0.022 0.128-0.023 0.128-0.025 0.128-0.026 0.128-0.056 0.254-0.062 0.252-0.033 0.126-0.035 0.126-0.035 0.125-0.037 0.125-0.039 0.124-0.04 0.125-0.041 0.123-0.042 0.124-0.04 0.11-4e-3 0.01-0.056 0.153-0.056 0.148-0.058 0.148-0.06 0.148-0.06 0.146-0.062 0.146-0.064 0.145-0.064 0.144-0.066 0.143-0.067 0.142-0.069 0.142-0.07 0.141-0.071 0.139-0.072 0.139-0.074 0.139-0.075 0.137-0.076 0.136-0.077 0.136-0.079 0.134-0.08 0.134-0.081 0.133-0.082 0.132-0.083 0.131-0.085 0.13-0.086 0.129-0.087 0.128-0.088 0.127-0.089 0.127-0.09 0.125-0.092 0.125-0.092 0.123-0.094 0.122-0.095 0.122-0.192 0.24-0.198 0.236-0.1 0.116-0.101 0.116-0.102 0.114-0.103 0.113-0.105 0.113-0.105 0.111-0.106 0.11-0.107 0.11-0.109 0.108-0.109 0.107-0.11 0.106-0.111 0.105-0.112 0.104-0.113 0.102-0.114 0.102-0.115 0.101-0.116 0.099-0.116 0.098-0.118 0.098-0.119 0.096-0.119 0.095-0.12 0.094-0.121 0.092-0.122 0.092-0.123 0.09-0.124 0.089-0.124 0.088-0.125 0.087-0.127 0.086-0.126 0.085-0.128 0.083-0.129 0.082-0.129 0.081-0.13 0.08-0.262 0.156-0.133 0.076-0.133 0.074-0.134 0.074-0.134 0.072-0.135 0.071-0.136 0.07-0.137 0.069-0.137 0.067-0.138 0.066-0.139 0.065-0.139 0.063-0.14 0.063-0.14 0.061-0.142 0.059-0.141 0.058-0.143 0.057-0.143 0.056-0.144 0.054-0.144 0.053-0.145 0.052-0.145 0.05-0.146 0.049-0.147 0.048-0.147 0.046-0.147 0.045-0.149 0.043-0.148 0.042-0.149 0.041-0.15 0.039-0.15 0.038-0.151 0.036-0.151 0.035-0.152 0.034-0.152 0.032-0.152 0.031-0.153 0.029-0.153 0.028-0.154 0.026-0.154 0.025-0.155 0.024-0.155 0.022-0.155 0.02-0.156 0.019-0.156 0.018-0.157 0.016-0.157 0.015-0.157 0.013-0.157 0.011-0.158 0.01-0.158 9e-3 -0.158 7e-3 -0.159 5e-3 -0.159 4e-3 -0.159 2e-3 -0.155 1e-3h-2.059l-0.168-1e-3 -0.174-3e-3 -0.173-6e-3 -0.173-7e-3 -0.173-0.01-0.173-0.012-0.172-0.013-0.172-0.016-0.171-0.019-0.171-0.02-0.171-0.022-0.17-0.024-0.17-0.027-0.17-0.028-0.169-0.031-0.168-0.032-0.168-0.035-0.167-0.037-0.167-0.038-0.167-0.041-0.165-0.043-0.165-0.045-0.165-0.046-0.164-0.049-0.163-0.051-0.162-0.053-0.162-0.054-0.161-0.057-0.161-0.058-0.16-0.061-0.158-0.062-0.159-0.065-0.157-0.066-0.156-0.068-0.156-0.07-0.155-0.072-0.154-0.074-0.153-0.076-0.152-0.078-0.151-0.079-0.151-0.082-0.149-0.083-0.149-0.085-0.147-0.087-0.146-0.089-0.146-0.09-0.144-0.093-0.143-0.094-0.142-0.096-0.141-0.098-0.14-0.1-0.139-0.101-0.138-0.103-0.136-0.105-0.136-0.107-0.134-0.109-0.133-0.11-0.131-0.112-0.13-0.113-0.13-0.116-0.127-0.117-0.127-0.119-0.125-0.12-0.124-0.122-0.122-0.124-0.12-0.125-0.119-0.127-0.117-0.127-0.116-0.13-0.113-0.13-0.112-0.131-0.11-0.133-0.109-0.134-0.107-0.136-0.105-0.136-0.103-0.138-0.101-0.139-0.1-0.14-0.098-0.141-0.096-0.142-0.094-0.143-0.093-0.144-0.09-0.146-0.089-0.146-0.087-0.148-0.085-0.148-0.083-0.149-0.082-0.151-0.079-0.151-0.078-0.152-0.076-0.153-0.074-0.154-0.072-0.155-0.07-0.156-0.068-0.156-0.066-0.157-0.065-0.159-0.062-0.158-0.061-0.16-0.058-0.161-0.057-0.161-0.054-0.162-0.053-0.162-0.051-0.163-0.049-0.164-0.046-0.165-0.045-0.165-0.043-0.165-0.041-0.167-0.038-0.167-0.037-0.167-0.035-0.168-0.032-0.168-0.031-0.169-0.028-0.17-0.027-0.17-0.024-0.17-0.022-0.171-0.02-0.171-0.019-0.171-0.016-0.172-0.013-0.172-0.012-0.173-0.01-0.173-7e-3 -0.173-6e-3 -0.173-3e-3 -0.174-1e-3 -0.168v-5.022l1e-3 -0.09 2e-3 -0.097 3e-3 -0.097 5e-3 -0.097 6e-3 -0.096 7e-3 -0.096 9e-3 -0.096 0.01-0.096 0.011-0.096 0.012-0.095 0.014-0.095 0.015-0.095 0.017-0.094 0.018-0.094 0.019-0.094 0.02-0.093 0.021-0.093 0.023-0.093 0.024-0.092 0.025-0.092 0.027-0.092 0.027-0.091 0.029-0.091 0.03-0.09 0.032-0.09 0.032-0.089 0.034-0.089 0.035-0.088 0.036-0.088 0.038-0.088 0.038-0.086 0.04-0.087 0.041-0.085 0.042-0.086 0.043-0.084 0.044-0.084 0.046-0.084 0.046-0.083 0.048-0.082 0.049-0.082 0.05-0.081 0.051-0.08 0.052-0.079 0.053-0.079 0.055-0.079 0.055-0.077 0.057-0.077 0.057-0.076 0.059-0.076 0.06-0.074 0.061-0.074 0.062-0.073 0.063-0.073 0.064-0.071 0.065-0.071 0.066-0.07 0.067-0.069 0.069-0.068 0.069-0.067 0.07-0.067 0.071-0.065 0.072-0.065 0.148-0.126 0.075-0.062 0.076-0.061 0.076-0.059 0.077-0.058 0.078-0.058 0.079-0.056 0.079-0.055 0.08-0.053 0.081-0.053 0.081-0.051 0.164-0.1 0.083-0.047 0.084-0.047 0.084-0.046 0.084-0.044 0.086-0.043 0.085-0.042 0.087-0.041 0.086-0.039 0.088-0.039 0.087-0.037 0.088-0.036 0.178-0.068 0.09-0.032 0.089-0.031 0.091-0.03 0.09-0.028 0.091-0.028 0.092-0.026 0.091-0.025 0.092-0.023 0.093-0.023 0.092-0.021 0.093-0.02 0.093-0.018 0.094-0.017 0.094-0.016 0.094-0.015 0.094-0.014 0.094-0.012 0.095-0.011 0.094-0.01 0.095-8e-3 0.096-7e-3 0.095-6e-3 0.095-4e-3 0.096-4e-3 0.095-1e-3 0.096-1e-3 0.096 1e-3 0.096 2e-3 0.096 3e-3 0.096 5e-3 0.096 6e-3 0.096 7e-3 0.096 9e-3 0.096 0.01 0.096 0.011 0.096 0.013 0.096 0.014 0.096 0.015 0.088 0.016 2.807 0.51 0.11 0.019 0.1 0.015 0.1 0.013 0.101 0.011 0.1 9e-3 0.1 7e-3 0.101 5e-3 0.1 3e-3h0.101l0.1-1e-3 0.1-3e-3 0.1-5e-3 0.1-7e-3 0.1-9e-3 0.099-0.012 0.1-0.013 0.099-0.015 0.098-0.017 0.099-0.019 0.097-0.021 0.098-0.023 0.097-0.025 0.097-0.027 0.096-0.029 0.095-0.031 0.096-0.033 0.094-0.035 0.094-0.036 0.093-0.039 0.093-0.041 0.091-0.042 0.101-0.049 4.836-2.418 0.086-0.042 0.093-0.044 0.094-0.043 0.094-0.041 0.095-0.04 0.095-0.039 0.096-0.037 0.096-0.035 0.097-0.035 0.097-0.032 0.098-0.032 0.098-0.03 0.098-0.028 0.099-0.027 0.099-0.026 0.1-0.024 0.1-0.023 0.1-0.022 0.1-0.02 0.101-0.018 0.101-0.017 0.102-0.016 0.101-0.014 0.102-0.012 0.102-0.011 0.102-0.01 0.103-8e-3 0.102-7e-3 0.103-5e-3 0.103-4e-3 0.103-2e-3 0.096-1e-3h0.014l0.116 1e-3zm5.227 16.881 0.028-0.082 0.027-0.083 0.027-0.082 0.05-0.166 0.024-0.083 0.023-0.084 0.022-0.084 0.021-0.084 0.02-0.084 0.019-0.084 0.018-0.085 0.018-0.084 0.016-0.085 0.015-0.086 0.015-0.085 0.014-0.085 0.024-0.172 0.011-0.085 0.01-0.087 9e-3 -0.086 8e-3 -0.086 7e-3 -0.086 6e-3 -0.087 5e-3 -0.086 4e-3 -0.087 4e-3 -0.086 4e-3 -0.174v-0.092-4.438-0.078l-4e-3 -0.144-3e-3 -0.072-4e-3 -0.071-5e-3 -0.072-0.012-0.142-0.016-0.142-9e-3 -0.071-0.011-0.07-0.011-0.071-0.011-0.07-0.013-0.07-0.013-0.069-0.015-0.07-0.015-0.069-0.016-0.069-0.017-0.069-0.018-0.069-0.018-0.068-0.019-0.068-0.042-0.136-0.021-0.067-0.023-0.067-0.024-0.067-0.024-0.066-0.025-0.067-0.026-0.065-0.026-0.066-0.056-0.13-0.029-0.064-0.03-0.064-0.062-0.128-0.032-0.063-0.033-0.062-0.068-0.124-0.036-0.062-0.036-0.061-0.036-0.06-0.038-0.061-0.038-0.059-0.039-0.06-0.04-0.059-0.04-0.058-0.042-0.058-0.084-0.114-0.044-0.057-0.044-0.056-0.045-0.055-0.092-0.11-0.047-0.054-0.096-0.106-0.05-0.053-0.05-0.051-0.05-0.052-0.052-0.05-0.051-0.05-0.053-0.05-0.106-0.096-0.054-0.047-0.11-0.092-0.055-0.045-0.056-0.044-0.057-0.044-0.114-0.084-0.058-0.042-0.058-0.04-0.059-0.04-0.06-0.039-0.059-0.038-0.061-0.038-0.06-0.036-0.061-0.036-0.062-0.036-0.061-0.034-0.063-0.034-0.062-0.033-0.063-0.032-0.128-0.062-0.064-0.03-0.064-0.029-0.13-0.056-0.132-0.052-0.066-0.025-0.066-0.024-0.067-0.024-0.067-0.023-0.067-0.021-0.136-0.042-0.068-0.019-0.068-0.018-0.069-0.018-0.069-0.017-0.069-0.016-0.069-0.015-0.07-0.015-0.069-0.013-0.07-0.013-0.07-0.011-0.071-0.011-0.07-0.011-0.071-9e-3 -0.142-0.016-0.142-0.012-0.072-5e-3 -0.071-4e-3 -0.072-3e-3 -0.144-4e-3h-0.071-0.047l-0.045 1e-3 -0.045 2e-3 -0.044 2e-3 -0.045 3e-3 -0.045 4e-3 -0.044 4e-3 -0.045 5e-3 -0.044 5e-3 -0.044 6e-3 -0.044 7e-3 -0.132 0.024-0.044 0.01-0.043 0.01-0.044 0.01-0.043 0.011-0.043 0.012-0.086 0.026-0.042 0.013-0.042 0.015-0.043 0.015-0.042 0.015-0.041 0.016-0.042 0.017-0.041 0.018-0.041 0.017-0.082 0.038-4.888 2.444-0.154 0.075-0.166 0.077-0.166 0.073-0.168 0.069-0.169 0.066-0.17 0.063-0.171 0.059-0.172 0.056-0.173 0.052-0.174 0.048-0.175 0.045-0.176 0.042-0.176 0.038-0.177 0.034-0.178 0.031-0.178 0.027-0.178 0.024-0.179 0.02-0.18 0.017-0.18 0.012-0.18 0.01-0.18 6e-3 -0.181 2e-3 -0.181-2e-3 -0.18-5e-3 -0.181-9e-3 -0.181-0.012-0.181-0.016-0.18-0.02-0.181-0.024-0.18-0.027-0.169-0.029-2.814-0.511-0.047-9e-3 -0.042-6e-3 -0.082-0.012-0.041-5e-3 -0.082-8e-3 -0.041-3e-3 -0.042-2e-3 -0.082-4e-3 -0.041-1e-3h-0.041-0.041l-0.041 1e-3 -0.041 2e-3 -0.041 1e-3 -0.04 3e-3 -0.041 3e-3 -0.041 4e-3 -0.04 4e-3 -0.041 4e-3 -0.04 6e-3 -0.041 5e-3 -0.12 0.021-0.04 8e-3 -0.08 0.018-0.039 9e-3 -0.04 0.01-0.078 0.022-0.078 0.024-0.039 0.013-0.038 0.013-0.039 0.014-0.038 0.014-0.038 0.015-0.038 0.016-0.037 0.015-0.038 0.017-0.074 0.034-0.037 0.018-0.108 0.057-0.036 0.02-0.036 0.021-0.07 0.042-0.035 0.022-0.102 0.069-0.034 0.024-0.034 0.025-0.033 0.025-0.032 0.025-0.033 0.026-0.064 0.054-0.031 0.027-0.062 0.056-0.03 0.028-0.03 0.029-0.029 0.029-0.029 0.03-0.056 0.06-0.081 0.093-0.052 0.064-0.025 0.032-0.024 0.033-0.025 0.033-0.023 0.033-0.024 0.033-0.023 0.034-0.022 0.034-0.022 0.035-0.021 0.034-0.021 0.035-0.021 0.036-0.02 0.035-0.057 0.108-0.018 0.037-0.051 0.111-0.016 0.037-0.045 0.114-0.014 0.038-0.013 0.039-0.013 0.038-0.024 0.078-0.012 0.04-0.01 0.039-0.011 0.04-9e-3 0.039-0.01 0.04-0.016 0.08-8e-3 0.041-7e-3 0.04-7e-3 0.041-5e-3 0.04-6e-3 0.041-5e-3 0.041-8e-3 0.082-3e-3 0.041-2e-3 0.042-2e-3 0.041-2e-3 0.042-1e-3 0.041v0.049 4.996l1e-3 0.13 2e-3 0.124 4e-3 0.124 5e-3 0.124 7e-3 0.123 9e-3 0.124 0.01 0.123 0.011 0.122 0.013 0.123 0.014 0.122 0.016 0.122 0.018 0.122 0.019 0.121 0.02 0.121 0.022 0.121 0.023 0.12 0.025 0.12 0.026 0.12 0.028 0.119 0.029 0.118 0.03 0.119 0.032 0.118 0.033 0.117 0.035 0.117 0.036 0.117 0.038 0.116 0.039 0.116 0.041 0.115 0.041 0.114 0.088 0.228 0.046 0.113 0.096 0.224 0.05 0.111 0.052 0.111 0.053 0.11 0.054 0.109 0.055 0.109 0.057 0.108 0.058 0.107 0.06 0.107 0.061 0.106 0.062 0.105 0.063 0.105 0.065 0.104 0.066 0.103 0.067 0.102 0.069 0.102 0.07 0.1 0.071 0.1 0.072 0.099 0.074 0.099 0.075 0.097 0.076 0.097 0.078 0.096 0.078 0.094 0.08 0.094 0.164 0.186 0.084 0.091 0.085 0.09 0.086 0.09 0.087 0.088 0.088 0.087 0.09 0.086 0.09 0.085 0.091 0.084 0.186 0.164 0.094 0.08 0.19 0.156 0.097 0.076 0.097 0.075 0.099 0.074 0.099 0.072 0.1 0.071 0.1 0.07 0.102 0.069 0.102 0.067 0.103 0.066 0.104 0.065 0.105 0.063 0.105 0.062 0.106 0.061 0.107 0.06 0.107 0.058 0.108 0.057 0.109 0.055 0.109 0.054 0.11 0.053 0.111 0.052 0.111 0.05 0.224 0.096 0.113 0.046 0.228 0.088 0.114 0.041 0.115 0.041 0.116 0.039 0.116 0.038 0.117 0.036 0.117 0.035 0.117 0.033 0.118 0.032 0.119 0.03 0.118 0.029 0.119 0.028 0.12 0.026 0.12 0.025 0.12 0.023 0.121 0.022 0.121 0.021 0.121 0.018 0.122 0.018 0.122 0.016 0.122 0.014 0.123 0.013 0.122 0.011 0.123 0.01 0.124 9e-3 0.123 7e-3 0.124 5e-3 0.124 4e-3 0.124 2e-3 0.13 1e-3h2.037l0.126-1e-3 0.12-1e-3 0.12-3e-3 0.119-4e-3 0.12-6e-3 0.119-6e-3 0.238-0.016 0.118-0.01 0.118-0.011 0.118-0.012 0.118-0.013 0.234-0.03 0.116-0.017 0.117-0.017 0.116-0.019 0.116-0.02 0.115-0.021 0.115-0.022 0.115-0.023 0.114-0.024 0.115-0.026 0.113-0.026 0.114-0.028 0.113-0.028 0.112-0.03 0.113-0.03 0.111-0.032 0.112-0.033 0.111-0.033 0.111-0.035 0.11-0.036 0.11-0.037 0.109-0.037 0.109-0.039 0.109-0.04 0.108-0.041 0.108-0.042 0.107-0.043 0.107-0.044 0.212-0.09 0.106-0.047 0.105-0.048 0.104-0.049 0.104-0.05 0.103-0.05 0.103-0.052 0.103-0.053 0.102-0.053 0.202-0.11 0.2-0.114 0.099-0.058 0.098-0.059 0.098-0.06 0.098-0.061 0.097-0.062 0.096-0.063 0.096-0.064 0.095-0.064 0.188-0.132 0.093-0.067 0.093-0.069 0.091-0.069 0.092-0.069 0.09-0.071 0.18-0.144 0.088-0.073 0.088-0.075 0.087-0.074 0.087-0.076 0.086-0.077 0.085-0.077 0.085-0.079 0.166-0.158 0.083-0.081 0.162-0.164 0.08-0.083 0.158-0.168 0.154-0.172 0.076-0.087 0.076-0.088 0.074-0.088 0.074-0.089 0.073-0.09 0.144-0.182 0.07-0.092 0.07-0.093 0.069-0.094 0.068-0.094 0.067-0.095 0.066-0.096 0.065-0.096 0.065-0.098 0.064-0.098 0.062-0.098 0.062-0.099 0.061-0.1 0.06-0.101 0.059-0.101 0.059-0.102 0.057-0.103 0.056-0.103 0.056-0.104 0.108-0.21 0.052-0.106 0.052-0.107 0.051-0.107 0.049-0.108 0.049-0.109 0.048-0.109 0.047-0.11 0.045-0.11 0.045-0.111 0.044-0.112 0.043-0.112 0.04-0.11-3e-3 9e-3 0.034-0.094z"/></g><g id="emoji"><path d="m30 11.798c0-2.068-0.822-4.052-2.284-5.514s-3.446-2.284-5.514-2.284h-1e-3c-0.79 0-1.569 0.184-2.275 0.537-1.234 0.617-3.288 1.644-4.839 2.419-1.355 0.678-2.893 0.898-4.383 0.627-0.831-0.151-1.811-0.33-2.81-0.511-1.458-0.266-2.959 0.13-4.098 1.08-1.138 0.95-1.796 2.356-1.796 3.839v5.009c0 3.183 1.264 6.235 3.515 8.485 2.25 2.251 5.302 3.515 8.485 3.515h2.048c5.975 0 11.311-3.738 13.353-9.353 0.396-1.09 0.599-2.24 0.599-3.4v-4.449z" fill="#fbc546"/><clipPath id="_clip2"><path d="m30 11.798c0-2.068-0.822-4.052-2.284-5.514s-3.446-2.284-5.514-2.284h-1e-3c-0.79 0-1.569 0.184-2.275 0.537-1.234 0.617-3.288 1.644-4.839 2.419-1.355 0.678-2.893 0.898-4.383 0.627-0.831-0.151-1.811-0.33-2.81-0.511-1.458-0.266-2.959 0.13-4.098 1.08-1.138 0.95-1.796 2.356-1.796 3.839v5.009c0 3.183 1.264 6.235 3.515 8.485 2.25 2.251 5.302 3.515 8.485 3.515h2.048c5.975 0 11.311-3.738 13.353-9.353 0.396-1.09 0.599-2.24 0.599-3.4v-4.449z"/></clipPath><g clip-path="url(#_clip2)"><path d="m17 23s-1.983-1.416-3.838-2.741c-0.609-0.436-1.411-0.494-2.077-0.151s-1.085 1.029-1.085 1.778v8.114c0 0.552 0.448 1 1 1h3c0.265 0 0.52-0.105 0.707-0.293 0.188-0.187 0.293-0.442 0.293-0.707v-1h8s-3.011-3.614-4.36-5.232c-0.406-0.487-1.006-0.768-1.64-0.768z" fill="#e59a10"/></g><path d="m7 11 2 2h2" fill="none" stroke="#000" stroke-width="2px"/><path d="m23 9-3 3h-2" fill="none" stroke="#000" stroke-width="2px"/><path d="m15.467 15.001 0.124 5e-3 0.123 8e-3 0.123 0.01 0.123 0.014 0.121 0.017 0.122 0.019 0.12 0.023 0.12 0.025 0.119 0.029 0.118 0.031 0.117 0.034 0.117 0.037 0.115 0.04 0.114 0.042 0.114 0.046 0.112 0.048 0.111 0.05 0.109 0.054 0.109 0.056 0.107 0.059 0.105 0.061 0.104 0.064 0.103 0.067 0.101 0.069 0.1 0.072 0.098 0.074 0.096 0.077 0.094 0.08 0.093 0.081 0.091 0.085 0.084 0.082 0.833 0.833 0.041 0.043 0.038 0.045 0.035 0.048 0.032 0.05 0.03 0.051 0.026 0.053 0.023 0.055 0.02 0.056 0.016 0.057 0.014 0.058 9e-3 0.058 6e-3 0.059 3e-3 0.059-1e-3 0.059-4e-3 0.06-8e-3 0.058-0.012 0.058-0.014 0.058-0.019 0.056-0.021 0.056-0.025 0.053-0.028 0.053-0.03 0.05-0.034 0.049-0.037 0.047-0.039 0.044-0.042 0.042-0.044 0.039-0.047 0.037-0.049 0.034-0.05 0.03-0.053 0.028-0.053 0.025-0.056 0.021-0.056 0.019-0.058 0.014-0.058 0.012-0.058 8e-3 -0.06 4e-3 -0.059 1e-3 -0.059-3e-3 -0.059-6e-3 -0.058-9e-3 -0.058-0.014-0.057-0.016-0.056-0.02-0.055-0.023-0.053-0.026-0.051-0.03-0.05-0.032-0.048-0.035-0.045-0.038-0.043-0.041-0.824-0.824-0.058-0.056-0.054-0.051-0.056-0.049-0.057-0.048-0.057-0.046-0.059-0.044-0.06-0.043-0.06-0.042-0.062-0.04-0.063-0.038-0.063-0.037-0.064-0.036-0.065-0.033-0.066-0.032-0.067-0.031-0.067-0.029-0.068-0.027-0.068-0.025-0.07-0.024-0.069-0.022-0.071-0.021-0.071-0.018-0.071-0.017-0.072-0.016-0.072-0.013-0.073-0.012-0.073-0.01-0.073-8e-3 -0.074-7e-3 -0.074-4e-3 -0.074-3e-3 -0.081-1e-3h-2.153-0.062l-0.116 4e-3 -0.058 3e-3 -0.116 8e-3 -0.057 6e-3 -0.058 6e-3 -0.058 7e-3 -0.057 8e-3 -0.114 0.018-0.114 0.022-0.056 0.012-0.057 0.013-0.112 0.028-0.056 0.016-0.055 0.016-0.056 0.017-0.055 0.017-0.054 0.019-0.055 0.019-0.054 0.02-0.054 0.021-0.108 0.044-0.106 0.048-0.052 0.025-0.056 0.027-0.941 0.47-0.054 0.025-0.055 0.022-0.056 0.018-0.057 0.015-0.059 0.012-0.058 8e-3 -0.059 5e-3 -0.06 1e-3 -0.059-2e-3 -0.059-6e-3 -0.058-0.01-0.058-0.013-0.057-0.016-0.056-0.019-0.055-0.023-0.053-0.026-0.052-0.029-0.049-0.033-0.048-0.035-0.046-0.037-0.043-0.041-0.041-0.043-0.038-0.045-0.036-0.048-0.032-0.049-0.03-0.051-0.026-0.053-0.024-0.055-0.02-0.056-0.016-0.057-0.014-0.057-0.01-0.059-6e-3 -0.059-3e-3 -0.059 1e-3 -0.059 4e-3 -0.059 8e-3 -0.059 0.011-0.058 0.014-0.058 0.018-0.056 0.021-0.056 0.025-0.054 0.027-0.052 0.031-0.051 0.034-0.049 0.036-0.046 0.039-0.045 0.042-0.042 0.044-0.039 0.047-0.037 0.048-0.034 0.051-0.031 0.052-0.028 0.947-0.474 0.075-0.037 0.079-0.037 0.08-0.036 0.079-0.035 0.081-0.034 0.08-0.033 0.081-0.031 0.082-0.03 0.082-0.029 0.082-0.028 0.083-0.027 0.083-0.025 0.083-0.024 0.084-0.023 0.084-0.022 0.084-0.021 0.084-0.019 0.085-0.018 0.085-0.017 0.086-0.015 0.085-0.015 0.086-0.013 0.086-0.012 0.086-0.011 0.087-9e-3 0.086-8e-3 0.087-7e-3 0.087-6e-3 0.087-4e-3 0.087-3e-3 0.087-2e-3 0.084-1e-3h2.172l0.118 1e-3z" fill="#593604"/></g><path d="m10 22-0.894 0.447c-0.678 0.339-1.106 1.032-1.106 1.789v4.764c0 0.265 0.105 0.52 0.293 0.707 0.187 0.188 0.442 0.293 0.707 0.293h3c0.552 0 1-0.448 1-1v-3h3c0.552 0 1-0.448 1-1 0-0.265-0.105-0.52-0.293-0.707-0.187-0.188-0.442-0.293-0.707-0.293h-6v-2z" fill="#fbc546"/><path d="m12 22h4.025l0.124 3e-3 0.147 0.011 0.147 0.018 0.145 0.026 0.143 0.032 0.142 0.039 0.139 0.046 0.136 0.053 0.134 0.059 0.131 0.066 0.128 0.072 0.124 0.079 0.12 0.084 0.117 0.091 0.112 0.097 0.108 0.102 0.102 0.108 0.097 0.112 0.091 0.117 0.084 0.12 0.079 0.124 0.072 0.128 0.066 0.131 0.059 0.134 0.053 0.136 0.046 0.139 0.039 0.142 0.032 0.143 0.026 0.145 0.018 0.147 0.011 0.147 4e-3 0.15-4e-3 0.152-0.012 0.151-0.019 0.15-0.026 0.148-0.034 0.146-0.041 0.143-0.047 0.141-0.054 0.137-0.06 0.133-0.067 0.13-0.072 0.125-0.078 0.122-0.084 0.117-0.088 0.113-0.094 0.109-0.099 0.104-0.104 0.099-0.109 0.094-0.113 0.088-0.117 0.084-0.122 0.078-0.125 0.072-0.13 0.067-0.133 0.06-0.137 0.054-0.141 0.047-0.143 0.041-0.146 0.034-0.148 0.026-0.15 0.019-0.151 0.012-0.128 3e-3h-1.025v1.025l-3e-3 0.128-0.012 0.151-0.019 0.15-0.026 0.149-0.034 0.145-0.041 0.143-0.047 0.141-0.054 0.136-0.06 0.134-0.067 0.13-0.072 0.125-0.078 0.122-0.084 0.117-0.088 0.114-0.094 0.108-0.099 0.104-0.104 0.099-0.109 0.094-0.113 0.088-0.117 0.084-0.122 0.078-0.125 0.072-0.13 0.067-0.134 0.06-0.136 0.054-0.141 0.047-0.143 0.041-0.146 0.034-0.148 0.026-0.15 0.019-0.151 0.012-0.128 3e-3h-3.05l-0.124-3e-3 -0.147-0.011-0.147-0.018-0.145-0.026-0.143-0.032-0.142-0.039-0.139-0.046-0.136-0.053-0.134-0.059-0.131-0.066-0.128-0.072-0.124-0.079-0.12-0.084-0.117-0.091-0.112-0.097-0.108-0.102-0.102-0.108-0.097-0.112-0.091-0.117-0.084-0.12-0.079-0.124-0.072-0.128-0.066-0.131-0.059-0.134-0.053-0.136-0.046-0.139-0.039-0.142-0.032-0.143-0.026-0.145-0.018-0.147-0.011-0.148-3e-3 -0.123v-4.807l2e-3 -0.123 8e-3 -0.141 0.012-0.14 0.017-0.138 0.022-0.138 0.027-0.137 0.031-0.135 0.036-0.133 0.04-0.132 0.045-0.13 0.049-0.128 0.053-0.126 0.058-0.125 0.061-0.122 0.066-0.12 0.07-0.117 0.074-0.115 0.078-0.112 0.081-0.11 0.086-0.107 0.089-0.104 0.092-0.102 0.097-0.098 0.1-0.095 0.103-0.092 0.107-0.088 0.11-0.085 0.113-0.081 0.117-0.077 0.119-0.074 0.123-0.069 0.109-0.058 3.805-1.902v3.236zm-2.894 0.447-0.063 0.033-0.062 0.035-0.059 0.037-0.058 0.038-0.057 0.041-0.055 0.042-0.053 0.044-0.052 0.046-0.05 0.048-0.048 0.049-0.046 0.05-0.045 0.052-0.043 0.054-0.04 0.055-0.039 0.056-0.037 0.058-0.035 0.058-0.033 0.06-0.031 0.061-0.029 0.062-0.027 0.064-0.024 0.064-0.022 0.065-0.021 0.066-0.017 0.066-0.016 0.068-0.013 0.068-0.011 0.069-9e-3 0.069-6e-3 0.07-4e-3 0.07-1e-3 0.071v4.764l1e-3 0.05 4e-3 0.049 6e-3 0.049 8e-3 0.048 0.011 0.048 0.013 0.047 0.016 0.046 0.017 0.046 0.02 0.044 0.022 0.044 0.024 0.042 0.026 0.042 0.028 0.04 0.03 0.039 0.033 0.037 0.034 0.036 0.036 0.034 0.037 0.033 0.039 0.03 0.04 0.028 0.042 0.026 0.042 0.024 0.044 0.022 0.044 0.02 0.046 0.017 0.046 0.016 0.047 0.013 0.048 0.011 0.048 8e-3 0.049 6e-3 0.049 4e-3 0.05 1e-3h3l0.051-1e-3 0.051-4e-3 0.05-7e-3 0.05-8e-3 0.048-0.011 0.047-0.014 0.047-0.016 0.045-0.018 0.045-0.02 0.043-0.022 0.042-0.024 0.04-0.026 0.039-0.028 0.038-0.029 0.036-0.032 0.035-0.033 0.033-0.035 0.032-0.036 0.029-0.038 0.028-0.039 0.026-0.04 0.024-0.042 0.022-0.043 0.02-0.045 0.018-0.045 0.016-0.047 0.014-0.047 0.011-0.048 8e-3 -0.05 7e-3 -0.05 4e-3 -0.051 1e-3 -0.051v-3h3l0.051-1e-3 0.051-4e-3 0.05-7e-3 0.05-8e-3 0.048-0.011 0.047-0.014 0.047-0.016 0.045-0.018 0.045-0.02 0.043-0.022 0.042-0.024 0.04-0.026 0.039-0.028 0.038-0.029 0.036-0.032 0.035-0.033 0.033-0.035 0.032-0.036 0.029-0.038 0.028-0.039 0.026-0.04 0.024-0.042 0.022-0.043 0.02-0.045 0.018-0.045 0.016-0.047 0.014-0.047 0.011-0.048 8e-3 -0.05 7e-3 -0.05 4e-3 -0.051 1e-3 -0.051-1e-3 -0.05-4e-3 -0.049-6e-3 -0.049-8e-3 -0.048-0.011-0.048-0.013-0.047-0.016-0.046-0.017-0.046-0.02-0.044-0.022-0.044-0.024-0.042-0.026-0.042-0.028-0.04-0.03-0.039-0.033-0.037-0.034-0.036-0.036-0.034-0.037-0.033-0.039-0.03-0.04-0.028-0.042-0.026-0.042-0.024-0.044-0.022-0.044-0.02-0.046-0.017-0.046-0.016-0.047-0.013-0.048-0.011-0.048-8e-3 -0.049-6e-3 -0.049-4e-3 -0.05-1e-3h-6v-2l-0.894 0.447z"/><rect x="14" y="27" width="2" height="2"/></g></svg>
