<?xml version="1.0" encoding="UTF-8" standalone="no"?><!DOCTYPE svg PUBLIC "-//W3C//DTD SVG 1.1//EN" "http://www.w3.org/Graphics/SVG/1.1/DTD/svg11.dtd"><svg width="100%" height="100%" viewBox="0 0 32 32" version="1.1" xmlns="http://www.w3.org/2000/svg" xmlns:xlink="http://www.w3.org/1999/xlink" xml:space="preserve" xmlns:serif="http://www.serif.com/" style="fill-rule:evenodd;clip-rule:evenodd;stroke-linecap:round;stroke-linejoin:round;stroke-miterlimit:1.5;">
<metadata>
<rdf:RDF xmlns:cc="http://web.resource.org/cc/"
         xmlns:rdf="http://www.w3.org/1999/02/22-rdf-syntax-ns#"
         xmlns:dc = "http://purl.org/dc/elements/1.1/"
         >

     <rdf:Description rdf:about="">
       <dc:title>Mutant Standard S3</dc:title>
     </rdf:Description>

    <cc:work rdf:about="">
        <cc:license rdf:resource="http://creativecommons.org/licenses/by-nc-sa/4.0/"/>
        <cc:attributionName>Dzuk</cc:attributionName>
        <cc:attributionURL>http://mutant.tech/</cc:attributionURL>
    </cc:work>

</rdf:RDF>
</metadata>
<rect id="thinking" x="0" y="0" width="32" height="32" style="fill:none;"/><clipPath id="_clip1"><rect x="0" y="0" width="32" height="32"/></clipPath><g clip-path="url(#_clip1)"><g id="outline"><path d="M22.324,2.001l0.121,0.002l0.122,0.004l0.121,0.005l0.121,0.007l0.121,0.008l0.12,0.01l0.12,0.011l0.12,0.013l0.12,0.014l0.12,0.015l0.119,0.017l0.119,0.019l0.118,0.02l0.119,0.021l0.117,0.023l0.118,0.024l0.117,0.026l0.117,0.027l0.116,0.028l0.116,0.03l0.116,0.032l0.115,0.032l0.115,0.035l0.114,0.035l0.114,0.037l0.113,0.038l0.113,0.04l0.112,0.041l0.112,0.042l0.111,0.044l0.111,0.045l0.11,0.046l0.109,0.048l0.109,0.049l0.108,0.05l0.108,0.052l0.107,0.053l0.107,0.055l0.106,0.055l0.105,0.057l0.104,0.058l0.104,0.06l0.103,0.061l0.103,0.062l0.102,0.063l0.101,0.065l0.1,0.066l0.099,0.067l0.099,0.069l0.098,0.07l0.097,0.071l0.097,0.072l0.095,0.073l0.095,0.075l0.094,0.076l0.093,0.077l0.092,0.078l0.091,0.08l0.09,0.081l0.09,0.082l0.088,0.083l0.088,0.084l0.086,0.086l0.086,0.086l0.084,0.088l0.083,0.088l0.082,0.09l0.081,0.09l0.08,0.091l0.078,0.092l0.077,0.093l0.076,0.094l0.075,0.095l0.073,0.095l0.072,0.097l0.071,0.097l0.07,0.098l0.069,0.099l0.067,0.099l0.066,0.1l0.065,0.101l0.063,0.102l0.062,0.102l0.061,0.104l0.06,0.104l0.058,0.104l0.057,0.105l0.055,0.106l0.055,0.107l0.053,0.107l0.052,0.107l0.05,0.109l0.049,0.109l0.048,0.109l0.046,0.11l0.045,0.111l0.044,0.111l0.042,0.112l0.041,0.112l0.04,0.113l0.038,0.113l0.037,0.114l0.035,0.114l0.035,0.115l0.032,0.115l0.032,0.116l0.03,0.116l0.028,0.116l0.027,0.117l0.026,0.117l0.024,0.118l0.023,0.117l0.021,0.119l0.02,0.118l0.019,0.119l0.017,0.119l0.015,0.12l0.014,0.12l0.013,0.12l0.011,0.12l0.01,0.121l0.008,0.12l0.007,0.121l0.005,0.121l0.004,0.122l0.002,0.121l0.001,0.116l0,4.461l-0.001,0.125l-0.002,0.13l-0.003,0.131l-0.005,0.13l-0.007,0.13l-0.008,0.13l-0.009,0.13l-0.01,0.13l-0.012,0.129l-0.014,0.13l-0.015,0.129l-0.016,0.129l-0.018,0.129l-0.019,0.129l-0.02,0.128l-0.022,0.128l-0.023,0.128l-0.025,0.128l-0.026,0.128l-0.028,0.127l-0.028,0.127l-0.031,0.126l-0.031,0.126l-0.033,0.126l-0.035,0.126l-0.035,0.125l-0.037,0.125l-0.039,0.124l-0.04,0.125l-0.041,0.123l-0.042,0.124l-0.04,0.11l-0.004,0.01l-0.056,0.153l-0.056,0.148l-0.058,0.148l-0.06,0.148l-0.06,0.146l-0.062,0.146l-0.064,0.145l-0.064,0.144l-0.066,0.143l-0.067,0.142l-0.069,0.142l-0.07,0.141l-0.071,0.139l-0.072,0.139l-0.074,0.139l-0.075,0.137l-0.076,0.136l-0.077,0.136l-0.079,0.134l-0.08,0.134l-0.081,0.133l-0.082,0.132l-0.083,0.131l-0.085,0.13l-0.086,0.129l-0.087,0.128l-0.088,0.127l-0.089,0.127l-0.09,0.125l-0.092,0.125l-0.092,0.123l-0.094,0.122l-0.095,0.122l-0.096,0.12l-0.096,0.12l-0.099,0.118l-0.099,0.118l-0.1,0.116l-0.101,0.116l-0.102,0.114l-0.103,0.113l-0.105,0.113l-0.105,0.111l-0.106,0.11l-0.107,0.11l-0.109,0.108l-0.109,0.107l-0.11,0.106l-0.111,0.105l-0.112,0.104l-0.113,0.102l-0.114,0.102l-0.115,0.101l-0.116,0.099l-0.116,0.098l-0.118,0.098l-0.119,0.096l-0.119,0.095l-0.12,0.094l-0.121,0.092l-0.122,0.092l-0.123,0.09l-0.124,0.089l-0.124,0.088l-0.125,0.087l-0.127,0.086l-0.126,0.085l-0.128,0.083l-0.129,0.082l-0.129,0.081l-0.13,0.08l-0.131,0.078l-0.131,0.078l-0.133,0.076l-0.133,0.074l-0.134,0.074l-0.134,0.072l-0.135,0.071l-0.136,0.07l-0.137,0.069l-0.137,0.067l-0.138,0.066l-0.139,0.065l-0.139,0.063l-0.14,0.063l-0.14,0.061l-0.142,0.059l-0.141,0.058l-0.143,0.057l-0.143,0.056l-0.144,0.054l-0.144,0.053l-0.145,0.052l-0.145,0.05l-0.146,0.049l-0.147,0.048l-0.147,0.046l-0.147,0.045l-0.149,0.043l-0.148,0.042l-0.149,0.041l-0.15,0.039l-0.15,0.038l-0.151,0.036l-0.151,0.035l-0.152,0.034l-0.152,0.032l-0.152,0.031l-0.153,0.029l-0.153,0.028l-0.154,0.026l-0.154,0.025l-0.155,0.024l-0.155,0.022l-0.155,0.02l-0.156,0.019l-0.156,0.018l-0.157,0.016l-0.157,0.015l-0.157,0.013l-0.157,0.011l-0.158,0.01l-0.158,0.009l-0.158,0.007l-0.159,0.005l-0.159,0.004l-0.159,0.002l-0.155,0.001l-2.059,0l-0.168,-0.001l-0.174,-0.003l-0.173,-0.006l-0.173,-0.007l-0.173,-0.01l-0.173,-0.012l-0.172,-0.013l-0.172,-0.016l-0.171,-0.019l-0.171,-0.02l-0.171,-0.022l-0.17,-0.024l-0.17,-0.027l-0.17,-0.028l-0.169,-0.031l-0.168,-0.032l-0.168,-0.035l-0.167,-0.037l-0.167,-0.038l-0.167,-0.041l-0.165,-0.043l-0.165,-0.045l-0.165,-0.046l-0.164,-0.049l-0.163,-0.051l-0.162,-0.053l-0.162,-0.054l-0.161,-0.057l-0.161,-0.058l-0.16,-0.061l-0.158,-0.062l-0.159,-0.065l-0.157,-0.066l-0.156,-0.068l-0.156,-0.07l-0.155,-0.072l-0.154,-0.074l-0.153,-0.076l-0.152,-0.078l-0.151,-0.079l-0.151,-0.082l-0.149,-0.083l-0.149,-0.085l-0.147,-0.087l-0.146,-0.089l-0.146,-0.09l-0.144,-0.093l-0.143,-0.094l-0.142,-0.096l-0.141,-0.098l-0.14,-0.1l-0.139,-0.101l-0.138,-0.103l-0.136,-0.105l-0.136,-0.107l-0.134,-0.109l-0.133,-0.11l-0.131,-0.112l-0.13,-0.113l-0.13,-0.116l-0.127,-0.117l-0.127,-0.119l-0.125,-0.12l-0.124,-0.122l-0.122,-0.124l-0.12,-0.125l-0.119,-0.127l-0.117,-0.127l-0.116,-0.13l-0.113,-0.13l-0.112,-0.131l-0.11,-0.133l-0.109,-0.134l-0.107,-0.136l-0.105,-0.136l-0.103,-0.138l-0.101,-0.139l-0.1,-0.14l-0.098,-0.141l-0.096,-0.142l-0.094,-0.143l-0.093,-0.144l-0.09,-0.146l-0.089,-0.146l-0.087,-0.148l-0.085,-0.148l-0.083,-0.149l-0.082,-0.151l-0.079,-0.151l-0.078,-0.152l-0.076,-0.153l-0.074,-0.154l-0.072,-0.155l-0.07,-0.156l-0.068,-0.156l-0.066,-0.157l-0.065,-0.159l-0.062,-0.158l-0.061,-0.16l-0.058,-0.161l-0.057,-0.161l-0.054,-0.162l-0.053,-0.162l-0.051,-0.163l-0.049,-0.164l-0.046,-0.165l-0.045,-0.165l-0.043,-0.165l-0.041,-0.167l-0.038,-0.167l-0.037,-0.167l-0.035,-0.168l-0.032,-0.168l-0.031,-0.169l-0.028,-0.17l-0.027,-0.17l-0.024,-0.17l-0.022,-0.171l-0.02,-0.171l-0.019,-0.171l-0.016,-0.172l-0.013,-0.172l-0.012,-0.173l-0.01,-0.173l-0.007,-0.173l-0.006,-0.173l-0.003,-0.174l-0.001,-0.168l0,-5.022l0.001,-0.09l0.002,-0.097l0.003,-0.097l0.005,-0.097l0.006,-0.096l0.007,-0.096l0.009,-0.096l0.01,-0.096l0.011,-0.096l0.012,-0.095l0.014,-0.095l0.015,-0.095l0.017,-0.094l0.018,-0.094l0.019,-0.094l0.02,-0.093l0.021,-0.093l0.023,-0.093l0.024,-0.092l0.025,-0.092l0.027,-0.092l0.027,-0.091l0.029,-0.091l0.03,-0.09l0.032,-0.09l0.032,-0.089l0.034,-0.089l0.035,-0.088l0.036,-0.088l0.038,-0.088l0.038,-0.086l0.04,-0.087l0.041,-0.085l0.042,-0.086l0.043,-0.084l0.044,-0.084l0.046,-0.084l0.046,-0.083l0.048,-0.082l0.049,-0.082l0.05,-0.081l0.051,-0.08l0.052,-0.079l0.053,-0.079l0.055,-0.079l0.055,-0.077l0.057,-0.077l0.057,-0.076l0.059,-0.076l0.06,-0.074l0.061,-0.074l0.062,-0.073l0.063,-0.073l0.064,-0.071l0.065,-0.071l0.066,-0.07l0.067,-0.069l0.069,-0.068l0.069,-0.067l0.07,-0.067l0.071,-0.065l0.072,-0.065l0.074,-0.063l0.074,-0.063l0.075,-0.062l0.076,-0.061l0.076,-0.059l0.077,-0.058l0.078,-0.058l0.079,-0.056l0.079,-0.055l0.08,-0.053l0.081,-0.053l0.081,-0.051l0.082,-0.05l0.082,-0.05l0.083,-0.047l0.084,-0.047l0.084,-0.046l0.084,-0.044l0.086,-0.043l0.085,-0.042l0.087,-0.041l0.086,-0.039l0.088,-0.039l0.087,-0.037l0.088,-0.036l0.089,-0.034l0.089,-0.034l0.09,-0.032l0.089,-0.031l0.091,-0.03l0.09,-0.028l0.091,-0.028l0.092,-0.026l0.091,-0.025l0.092,-0.023l0.093,-0.023l0.092,-0.021l0.093,-0.02l0.093,-0.018l0.094,-0.017l0.094,-0.016l0.094,-0.015l0.094,-0.014l0.094,-0.012l0.095,-0.011l0.094,-0.01l0.095,-0.008l0.096,-0.007l0.095,-0.006l0.095,-0.004l0.096,-0.004l0.095,-0.001l0.096,-0.001l0.096,0.001l0.096,0.002l0.096,0.003l0.096,0.005l0.096,0.006l0.096,0.007l0.096,0.009l0.096,0.01l0.096,0.011l0.096,0.013l0.096,0.014l0.096,0.015l0.088,0.016l2.807,0.51l0.11,0.019l0.1,0.015l0.1,0.013l0.101,0.011l0.1,0.009l0.1,0.007l0.101,0.005l0.1,0.003l0.101,0l0.1,-0.001l0.1,-0.003l0.1,-0.005l0.1,-0.007l0.1,-0.009l0.099,-0.012l0.1,-0.013l0.099,-0.015l0.098,-0.017l0.099,-0.019l0.097,-0.021l0.098,-0.023l0.097,-0.025l0.097,-0.027l0.096,-0.029l0.095,-0.031l0.096,-0.033l0.094,-0.035l0.094,-0.036l0.093,-0.039l0.093,-0.041l0.091,-0.042l0.101,-0.049l4.836,-2.418l0.086,-0.042l0.093,-0.044l0.094,-0.043l0.094,-0.041l0.095,-0.04l0.095,-0.039l0.096,-0.037l0.096,-0.035l0.097,-0.035l0.097,-0.032l0.098,-0.032l0.098,-0.03l0.098,-0.028l0.099,-0.027l0.099,-0.026l0.1,-0.024l0.1,-0.023l0.1,-0.022l0.1,-0.02l0.101,-0.018l0.101,-0.017l0.102,-0.016l0.101,-0.014l0.102,-0.012l0.102,-0.011l0.102,-0.01l0.103,-0.008l0.102,-0.007l0.103,-0.005l0.103,-0.004l0.103,-0.002l0.096,-0.001l0.014,0l0.116,0.001Zm5.227,16.881l0.028,-0.082l0.027,-0.083l0.027,-0.082l0.025,-0.083l0.025,-0.083l0.024,-0.083l0.023,-0.084l0.022,-0.084l0.021,-0.084l0.02,-0.084l0.019,-0.084l0.018,-0.085l0.018,-0.084l0.016,-0.085l0.015,-0.086l0.015,-0.085l0.014,-0.085l0.012,-0.086l0.012,-0.086l0.011,-0.085l0.01,-0.087l0.009,-0.086l0.008,-0.086l0.007,-0.086l0.006,-0.087l0.005,-0.086l0.004,-0.087l0.004,-0.086l0.002,-0.087l0.002,-0.087l0,-0.092l0,-4.438l0,-0.078l-0.002,-0.072l-0.002,-0.072l-0.003,-0.072l-0.004,-0.071l-0.005,-0.072l-0.006,-0.071l-0.006,-0.071l-0.008,-0.071l-0.008,-0.071l-0.009,-0.071l-0.011,-0.07l-0.011,-0.071l-0.011,-0.07l-0.013,-0.07l-0.013,-0.069l-0.015,-0.07l-0.015,-0.069l-0.016,-0.069l-0.017,-0.069l-0.018,-0.069l-0.018,-0.068l-0.019,-0.068l-0.021,-0.068l-0.021,-0.068l-0.021,-0.067l-0.023,-0.067l-0.024,-0.067l-0.024,-0.066l-0.025,-0.067l-0.026,-0.065l-0.026,-0.066l-0.028,-0.065l-0.028,-0.065l-0.029,-0.064l-0.03,-0.064l-0.031,-0.064l-0.031,-0.064l-0.032,-0.063l-0.033,-0.062l-0.034,-0.062l-0.034,-0.062l-0.036,-0.062l-0.036,-0.061l-0.036,-0.06l-0.038,-0.061l-0.038,-0.059l-0.039,-0.06l-0.04,-0.059l-0.04,-0.058l-0.042,-0.058l-0.042,-0.057l-0.042,-0.057l-0.044,-0.057l-0.044,-0.056l-0.045,-0.055l-0.046,-0.055l-0.046,-0.055l-0.047,-0.054l-0.048,-0.053l-0.048,-0.053l-0.05,-0.053l-0.05,-0.051l-0.05,-0.052l-0.052,-0.05l-0.051,-0.05l-0.053,-0.05l-0.053,-0.048l-0.053,-0.048l-0.054,-0.047l-0.055,-0.046l-0.055,-0.046l-0.055,-0.045l-0.056,-0.044l-0.057,-0.044l-0.057,-0.042l-0.057,-0.042l-0.058,-0.042l-0.058,-0.04l-0.059,-0.04l-0.06,-0.039l-0.059,-0.038l-0.061,-0.038l-0.06,-0.036l-0.061,-0.036l-0.062,-0.036l-0.061,-0.034l-0.063,-0.034l-0.062,-0.033l-0.063,-0.032l-0.064,-0.031l-0.064,-0.031l-0.064,-0.03l-0.064,-0.029l-0.065,-0.028l-0.065,-0.028l-0.066,-0.026l-0.066,-0.026l-0.066,-0.025l-0.066,-0.024l-0.067,-0.024l-0.067,-0.023l-0.067,-0.021l-0.068,-0.021l-0.068,-0.021l-0.068,-0.019l-0.068,-0.018l-0.069,-0.018l-0.069,-0.017l-0.069,-0.016l-0.069,-0.015l-0.07,-0.015l-0.069,-0.013l-0.07,-0.013l-0.07,-0.011l-0.071,-0.011l-0.07,-0.011l-0.071,-0.009l-0.071,-0.008l-0.071,-0.008l-0.071,-0.006l-0.071,-0.006l-0.072,-0.005l-0.071,-0.004l-0.072,-0.003l-0.072,-0.002l-0.072,-0.002l-0.071,0l-0.047,0l-0.045,0.001l-0.045,0.002l-0.044,0.002l-0.045,0.003l-0.045,0.004l-0.044,0.004l-0.045,0.005l-0.044,0.005l-0.044,0.006l-0.044,0.007l-0.044,0.008l-0.044,0.008l-0.044,0.008l-0.044,0.01l-0.043,0.01l-0.044,0.01l-0.043,0.011l-0.043,0.012l-0.043,0.013l-0.043,0.013l-0.042,0.013l-0.042,0.015l-0.043,0.015l-0.042,0.015l-0.041,0.016l-0.042,0.017l-0.041,0.018l-0.041,0.017l-0.041,0.019l-0.041,0.019l-0.046,0.023l-4.842,2.421l-0.154,0.075l-0.166,0.077l-0.166,0.073l-0.168,0.069l-0.169,0.066l-0.17,0.063l-0.171,0.059l-0.172,0.056l-0.173,0.052l-0.174,0.048l-0.175,0.045l-0.176,0.042l-0.176,0.038l-0.177,0.034l-0.178,0.031l-0.178,0.027l-0.178,0.024l-0.179,0.02l-0.18,0.017l-0.18,0.012l-0.18,0.01l-0.18,0.006l-0.181,0.002l-0.181,-0.002l-0.18,-0.005l-0.181,-0.009l-0.181,-0.012l-0.181,-0.016l-0.18,-0.02l-0.181,-0.024l-0.18,-0.027l-0.169,-0.029l-2.814,-0.511l-0.047,-0.009l-0.042,-0.006l-0.041,-0.006l-0.041,-0.006l-0.041,-0.005l-0.041,-0.004l-0.041,-0.004l-0.041,-0.003l-0.042,-0.002l-0.041,-0.002l-0.041,-0.002l-0.041,-0.001l-0.041,0l-0.041,0l-0.041,0.001l-0.041,0.002l-0.041,0.001l-0.04,0.003l-0.041,0.003l-0.041,0.004l-0.04,0.004l-0.041,0.004l-0.04,0.006l-0.041,0.005l-0.04,0.007l-0.04,0.007l-0.04,0.007l-0.04,0.008l-0.04,0.009l-0.04,0.009l-0.039,0.009l-0.04,0.01l-0.039,0.011l-0.039,0.011l-0.039,0.012l-0.039,0.012l-0.039,0.013l-0.038,0.013l-0.039,0.014l-0.038,0.014l-0.038,0.015l-0.038,0.016l-0.037,0.015l-0.038,0.017l-0.037,0.017l-0.037,0.017l-0.037,0.018l-0.036,0.019l-0.036,0.019l-0.036,0.019l-0.036,0.02l-0.036,0.021l-0.035,0.021l-0.035,0.021l-0.035,0.022l-0.034,0.023l-0.034,0.023l-0.034,0.023l-0.034,0.024l-0.034,0.025l-0.033,0.025l-0.032,0.025l-0.033,0.026l-0.032,0.027l-0.032,0.027l-0.031,0.027l-0.031,0.028l-0.031,0.028l-0.03,0.028l-0.03,0.029l-0.029,0.029l-0.029,0.03l-0.028,0.03l-0.028,0.03l-0.027,0.031l-0.027,0.031l-0.027,0.031l-0.026,0.032l-0.026,0.032l-0.025,0.032l-0.024,0.033l-0.025,0.033l-0.023,0.033l-0.024,0.033l-0.023,0.034l-0.022,0.034l-0.022,0.035l-0.021,0.034l-0.021,0.035l-0.021,0.036l-0.02,0.035l-0.019,0.036l-0.019,0.036l-0.019,0.036l-0.018,0.037l-0.017,0.037l-0.017,0.037l-0.017,0.037l-0.016,0.037l-0.015,0.038l-0.015,0.038l-0.015,0.038l-0.014,0.038l-0.013,0.039l-0.013,0.038l-0.012,0.039l-0.012,0.039l-0.012,0.04l-0.01,0.039l-0.011,0.04l-0.009,0.039l-0.01,0.04l-0.008,0.04l-0.008,0.04l-0.008,0.041l-0.007,0.04l-0.007,0.041l-0.005,0.04l-0.006,0.041l-0.005,0.041l-0.004,0.041l-0.004,0.041l-0.003,0.041l-0.002,0.042l-0.002,0.041l-0.002,0.042l-0.001,0.041l0,0.049l0,4.996l0.001,0.13l0.002,0.124l0.004,0.124l0.005,0.124l0.007,0.123l0.009,0.124l0.01,0.123l0.011,0.122l0.013,0.123l0.014,0.122l0.016,0.122l0.018,0.122l0.019,0.121l0.02,0.121l0.022,0.121l0.023,0.12l0.025,0.12l0.026,0.12l0.028,0.119l0.029,0.118l0.03,0.119l0.032,0.118l0.033,0.117l0.035,0.117l0.036,0.117l0.038,0.116l0.039,0.116l0.041,0.115l0.041,0.114l0.044,0.114l0.044,0.114l0.046,0.113l0.048,0.112l0.048,0.112l0.05,0.111l0.052,0.111l0.053,0.11l0.054,0.109l0.055,0.109l0.057,0.108l0.058,0.107l0.06,0.107l0.061,0.106l0.062,0.105l0.063,0.105l0.065,0.104l0.066,0.103l0.067,0.102l0.069,0.102l0.07,0.1l0.071,0.1l0.072,0.099l0.074,0.099l0.075,0.097l0.076,0.097l0.078,0.096l0.078,0.094l0.08,0.094l0.082,0.093l0.082,0.093l0.084,0.091l0.085,0.09l0.086,0.09l0.087,0.088l0.088,0.087l0.09,0.086l0.09,0.085l0.091,0.084l0.093,0.082l0.093,0.082l0.094,0.08l0.095,0.078l0.095,0.078l0.097,0.076l0.097,0.075l0.099,0.074l0.099,0.072l0.1,0.071l0.1,0.07l0.102,0.069l0.102,0.067l0.103,0.066l0.104,0.065l0.105,0.063l0.105,0.062l0.106,0.061l0.107,0.06l0.107,0.058l0.108,0.057l0.109,0.055l0.109,0.054l0.11,0.053l0.111,0.052l0.111,0.05l0.112,0.048l0.112,0.048l0.113,0.046l0.114,0.044l0.114,0.044l0.114,0.041l0.115,0.041l0.116,0.039l0.116,0.038l0.117,0.036l0.117,0.035l0.117,0.033l0.118,0.032l0.119,0.03l0.118,0.029l0.119,0.028l0.12,0.026l0.12,0.025l0.12,0.023l0.121,0.022l0.121,0.021l0.121,0.018l0.122,0.018l0.122,0.016l0.122,0.014l0.123,0.013l0.122,0.011l0.123,0.01l0.124,0.009l0.123,0.007l0.124,0.005l0.124,0.004l0.124,0.002l0.13,0.001l2.037,0l0.126,-0.001l0.12,-0.001l0.12,-0.003l0.119,-0.004l0.12,-0.006l0.119,-0.006l0.119,-0.008l0.119,-0.008l0.118,-0.01l0.118,-0.011l0.118,-0.012l0.118,-0.013l0.117,-0.015l0.117,-0.015l0.116,-0.017l0.117,-0.017l0.116,-0.019l0.116,-0.02l0.115,-0.021l0.115,-0.022l0.115,-0.023l0.114,-0.024l0.115,-0.026l0.113,-0.026l0.114,-0.028l0.113,-0.028l0.112,-0.03l0.113,-0.03l0.111,-0.032l0.112,-0.033l0.111,-0.033l0.111,-0.035l0.11,-0.036l0.11,-0.037l0.109,-0.037l0.109,-0.039l0.109,-0.04l0.108,-0.041l0.108,-0.042l0.107,-0.043l0.107,-0.044l0.106,-0.045l0.106,-0.045l0.106,-0.047l0.105,-0.048l0.104,-0.049l0.104,-0.05l0.103,-0.05l0.103,-0.052l0.103,-0.053l0.102,-0.053l0.101,-0.055l0.101,-0.055l0.1,-0.057l0.1,-0.057l0.099,-0.058l0.098,-0.059l0.098,-0.06l0.098,-0.061l0.097,-0.062l0.096,-0.063l0.096,-0.064l0.095,-0.064l0.094,-0.066l0.094,-0.066l0.093,-0.067l0.093,-0.069l0.091,-0.069l0.092,-0.069l0.09,-0.071l0.09,-0.072l0.09,-0.072l0.088,-0.073l0.088,-0.075l0.087,-0.074l0.087,-0.076l0.086,-0.077l0.085,-0.077l0.085,-0.079l0.083,-0.079l0.083,-0.079l0.083,-0.081l0.081,-0.082l0.081,-0.082l0.08,-0.083l0.079,-0.084l0.079,-0.084l0.077,-0.086l0.077,-0.086l0.076,-0.087l0.076,-0.088l0.074,-0.088l0.074,-0.089l0.073,-0.09l0.072,-0.091l0.072,-0.091l0.07,-0.092l0.07,-0.093l0.069,-0.094l0.068,-0.094l0.067,-0.095l0.066,-0.096l0.065,-0.096l0.065,-0.098l0.064,-0.098l0.062,-0.098l0.062,-0.099l0.061,-0.1l0.06,-0.101l0.059,-0.101l0.059,-0.102l0.057,-0.103l0.056,-0.103l0.056,-0.104l0.054,-0.105l0.054,-0.105l0.052,-0.106l0.052,-0.107l0.051,-0.107l0.049,-0.108l0.049,-0.109l0.048,-0.109l0.047,-0.11l0.045,-0.11l0.045,-0.111l0.044,-0.112l0.043,-0.112l0.04,-0.11l-0.003,0.009l0.034,-0.094Z"/></g><g id="emoji"><path d="M30,11.798c0,-2.068 -0.822,-4.052 -2.284,-5.514c-1.462,-1.462 -3.446,-2.284 -5.514,-2.284c0,0 -0.001,0 -0.001,0c-0.79,0 -1.569,0.184 -2.275,0.537c-1.234,0.617 -3.288,1.644 -4.839,2.419c-1.355,0.678 -2.893,0.898 -4.383,0.627c-0.831,-0.151 -1.811,-0.33 -2.81,-0.511c-1.458,-0.266 -2.959,0.13 -4.098,1.08c-1.138,0.95 -1.796,2.356 -1.796,3.839c0,1.548 0,3.271 0,5.009c0,3.183 1.264,6.235 3.515,8.485c2.25,2.251 5.302,3.515 8.485,3.515c0.686,0 1.372,0 2.048,0c5.975,0 11.311,-3.738 13.353,-9.353c0,0 0,0 0,0c0.396,-1.09 0.599,-2.24 0.599,-3.4c0,-1.161 0,-2.774 0,-4.449Z" style="fill:#fbc546;"/><clipPath id="_clip2"><path d="M30,11.798c0,-2.068 -0.822,-4.052 -2.284,-5.514c-1.462,-1.462 -3.446,-2.284 -5.514,-2.284c0,0 -0.001,0 -0.001,0c-0.79,0 -1.569,0.184 -2.275,0.537c-1.234,0.617 -3.288,1.644 -4.839,2.419c-1.355,0.678 -2.893,0.898 -4.383,0.627c-0.831,-0.151 -1.811,-0.33 -2.81,-0.511c-1.458,-0.266 -2.959,0.13 -4.098,1.08c-1.138,0.95 -1.796,2.356 -1.796,3.839c0,1.548 0,3.271 0,5.009c0,3.183 1.264,6.235 3.515,8.485c2.25,2.251 5.302,3.515 8.485,3.515c0.686,0 1.372,0 2.048,0c5.975,0 11.311,-3.738 13.353,-9.353c0,0 0,0 0,0c0.396,-1.09 0.599,-2.24 0.599,-3.4c0,-1.161 0,-2.774 0,-4.449Z"/></clipPath><g clip-path="url(#_clip2)"><path d="M17,23c0,0 -1.983,-1.416 -3.838,-2.741c-0.609,-0.436 -1.411,-0.494 -2.077,-0.151c-0.666,0.343 -1.085,1.029 -1.085,1.778c0,2.809 0,6.399 0,8.114c0,0.552 0.448,1 1,1c0.871,0 2.129,0 3,0c0.265,0 0.52,-0.105 0.707,-0.293c0.188,-0.187 0.293,-0.442 0.293,-0.707c0,-0.5 0,-1 0,-1l8,0c0,0 -3.011,-3.614 -4.36,-5.232c-0.406,-0.487 -1.006,-0.768 -1.64,-0.768c0,0 0,0 0,0Z" style="fill:#e59a10;"/></g><path d="M7,11l2,2l2,0" style="fill:none;stroke:#000;stroke-width:2px;"/><path d="M23,9l-3,3l-2,0" style="fill:none;stroke:#000;stroke-width:2px;"/><path d="M15.467,15.001l0.124,0.005l0.123,0.008l0.123,0.01l0.123,0.014l0.121,0.017l0.122,0.019l0.12,0.023l0.12,0.025l0.119,0.029l0.118,0.031l0.117,0.034l0.117,0.037l0.115,0.04l0.114,0.042l0.114,0.046l0.112,0.048l0.111,0.05l0.109,0.054l0.109,0.056l0.107,0.059l0.105,0.061l0.104,0.064l0.103,0.067l0.101,0.069l0.1,0.072l0.098,0.074l0.096,0.077l0.094,0.08l0.093,0.081l0.091,0.085l0.084,0.082l0.833,0.833l0.041,0.043l0.038,0.045l0.035,0.048l0.032,0.05l0.03,0.051l0.026,0.053l0.023,0.055l0.02,0.056l0.016,0.057l0.014,0.058l0.009,0.058l0.006,0.059l0.003,0.059l-0.001,0.059l-0.004,0.06l-0.008,0.058l-0.012,0.058l-0.014,0.058l-0.019,0.056l-0.021,0.056l-0.025,0.053l-0.028,0.053l-0.03,0.05l-0.034,0.049l-0.037,0.047l-0.039,0.044l-0.042,0.042l-0.044,0.039l-0.047,0.037l-0.049,0.034l-0.05,0.03l-0.053,0.028l-0.053,0.025l-0.056,0.021l-0.056,0.019l-0.058,0.014l-0.058,0.012l-0.058,0.008l-0.06,0.004l-0.059,0.001l-0.059,-0.003l-0.059,-0.006l-0.058,-0.009l-0.058,-0.014l-0.057,-0.016l-0.056,-0.02l-0.055,-0.023l-0.053,-0.026l-0.051,-0.03l-0.05,-0.032l-0.048,-0.035l-0.045,-0.038l-0.043,-0.041l-0.824,-0.824l-0.058,-0.056l-0.054,-0.051l-0.056,-0.049l-0.057,-0.048l-0.057,-0.046l-0.059,-0.044l-0.06,-0.043l-0.06,-0.042l-0.062,-0.04l-0.063,-0.038l-0.063,-0.037l-0.064,-0.036l-0.065,-0.033l-0.066,-0.032l-0.067,-0.031l-0.067,-0.029l-0.068,-0.027l-0.068,-0.025l-0.07,-0.024l-0.069,-0.022l-0.071,-0.021l-0.071,-0.018l-0.071,-0.017l-0.072,-0.016l-0.072,-0.013l-0.073,-0.012l-0.073,-0.01l-0.073,-0.008l-0.074,-0.007l-0.074,-0.004l-0.074,-0.003l-0.081,-0.001l-2.153,0l-0.062,0l-0.058,0.002l-0.058,0.002l-0.058,0.003l-0.058,0.004l-0.058,0.004l-0.057,0.006l-0.058,0.006l-0.058,0.007l-0.057,0.008l-0.057,0.009l-0.057,0.009l-0.057,0.011l-0.057,0.011l-0.056,0.012l-0.057,0.013l-0.056,0.014l-0.056,0.014l-0.056,0.016l-0.055,0.016l-0.056,0.017l-0.055,0.017l-0.054,0.019l-0.055,0.019l-0.054,0.02l-0.054,0.021l-0.054,0.022l-0.054,0.022l-0.053,0.024l-0.053,0.024l-0.052,0.025l-0.056,0.027l-0.941,0.47l-0.054,0.025l-0.055,0.022l-0.056,0.018l-0.057,0.015l-0.059,0.012l-0.058,0.008l-0.059,0.005l-0.06,0.001l-0.059,-0.002l-0.059,-0.006l-0.058,-0.01l-0.058,-0.013l-0.057,-0.016l-0.056,-0.019l-0.055,-0.023l-0.053,-0.026l-0.052,-0.029l-0.049,-0.033l-0.048,-0.035l-0.046,-0.037l-0.043,-0.041l-0.041,-0.043l-0.038,-0.045l-0.036,-0.048l-0.032,-0.049l-0.03,-0.051l-0.026,-0.053l-0.024,-0.055l-0.02,-0.056l-0.016,-0.057l-0.014,-0.057l-0.01,-0.059l-0.006,-0.059l-0.003,-0.059l0.001,-0.059l0.004,-0.059l0.008,-0.059l0.011,-0.058l0.014,-0.058l0.018,-0.056l0.021,-0.056l0.025,-0.054l0.027,-0.052l0.031,-0.051l0.034,-0.049l0.036,-0.046l0.039,-0.045l0.042,-0.042l0.044,-0.039l0.047,-0.037l0.048,-0.034l0.051,-0.031l0.052,-0.028l0.947,-0.474l0.075,-0.037l0.079,-0.037l0.08,-0.036l0.079,-0.035l0.081,-0.034l0.08,-0.033l0.081,-0.031l0.082,-0.03l0.082,-0.029l0.082,-0.028l0.083,-0.027l0.083,-0.025l0.083,-0.024l0.084,-0.023l0.084,-0.022l0.084,-0.021l0.084,-0.019l0.085,-0.018l0.085,-0.017l0.086,-0.015l0.085,-0.015l0.086,-0.013l0.086,-0.012l0.086,-0.011l0.087,-0.009l0.086,-0.008l0.087,-0.007l0.087,-0.006l0.087,-0.004l0.087,-0.003l0.087,-0.002l0.084,-0.001l2.172,0l0.118,0.001Z" style="fill:#593604;"/></g><path d="M10,22c0,0 -0.432,0.216 -0.894,0.447c-0.678,0.339 -1.106,1.032 -1.106,1.789c0,1.357 0,3.509 0,4.764c0,0.265 0.105,0.52 0.293,0.707c0.187,0.188 0.442,0.293 0.707,0.293c0.871,0 2.129,0 3,0c0.552,0 1,-0.448 1,-1c0,-1.185 0,-3 0,-3c0,0 1.815,0 3,0c0.552,0 1,-0.448 1,-1c0,-0.265 -0.105,-0.52 -0.293,-0.707c-0.187,-0.188 -0.442,-0.293 -0.707,-0.293c-1.934,0 -6,0 -6,0l0,-2Z" style="fill:#fbc546;"/><path d="M12,22l4.025,0l0.124,0.003l0.147,0.011l0.147,0.018l0.145,0.026l0.143,0.032l0.142,0.039l0.139,0.046l0.136,0.053l0.134,0.059l0.131,0.066l0.128,0.072l0.124,0.079l0.12,0.084l0.117,0.091l0.112,0.097l0.108,0.102l0.102,0.108l0.097,0.112l0.091,0.117l0.084,0.12l0.079,0.124l0.072,0.128l0.066,0.131l0.059,0.134l0.053,0.136l0.046,0.139l0.039,0.142l0.032,0.143l0.026,0.145l0.018,0.147l0.011,0.147l0.004,0.15l-0.004,0.152l-0.012,0.151l-0.019,0.15l-0.026,0.148l-0.034,0.146l-0.041,0.143l-0.047,0.141l-0.054,0.137l-0.06,0.133l-0.067,0.13l-0.072,0.125l-0.078,0.122l-0.084,0.117l-0.088,0.113l-0.094,0.109l-0.099,0.104l-0.104,0.099l-0.109,0.094l-0.113,0.088l-0.117,0.084l-0.122,0.078l-0.125,0.072l-0.13,0.067l-0.133,0.06l-0.137,0.054l-0.141,0.047l-0.143,0.041l-0.146,0.034l-0.148,0.026l-0.15,0.019l-0.151,0.012l-0.128,0.003l-1.025,0l0,1.025l-0.003,0.128l-0.012,0.151l-0.019,0.15l-0.026,0.149l-0.034,0.145l-0.041,0.143l-0.047,0.141l-0.054,0.136l-0.06,0.134l-0.067,0.13l-0.072,0.125l-0.078,0.122l-0.084,0.117l-0.088,0.114l-0.094,0.108l-0.099,0.104l-0.104,0.099l-0.109,0.094l-0.113,0.088l-0.117,0.084l-0.122,0.078l-0.125,0.072l-0.13,0.067l-0.134,0.06l-0.136,0.054l-0.141,0.047l-0.143,0.041l-0.146,0.034l-0.148,0.026l-0.15,0.019l-0.151,0.012l-0.128,0.003l-3.05,0l-0.124,-0.003l-0.147,-0.011l-0.147,-0.018l-0.145,-0.026l-0.143,-0.032l-0.142,-0.039l-0.139,-0.046l-0.136,-0.053l-0.134,-0.059l-0.131,-0.066l-0.128,-0.072l-0.124,-0.079l-0.12,-0.084l-0.117,-0.091l-0.112,-0.097l-0.108,-0.102l-0.102,-0.108l-0.097,-0.112l-0.091,-0.117l-0.084,-0.12l-0.079,-0.124l-0.072,-0.128l-0.066,-0.131l-0.059,-0.134l-0.053,-0.136l-0.046,-0.139l-0.039,-0.142l-0.032,-0.143l-0.026,-0.145l-0.018,-0.147l-0.011,-0.148l-0.003,-0.123l0,-4.807l0.002,-0.123l0.008,-0.141l0.012,-0.14l0.017,-0.138l0.022,-0.138l0.027,-0.137l0.031,-0.135l0.036,-0.133l0.04,-0.132l0.045,-0.13l0.049,-0.128l0.053,-0.126l0.058,-0.125l0.061,-0.122l0.066,-0.12l0.07,-0.117l0.074,-0.115l0.078,-0.112l0.081,-0.11l0.086,-0.107l0.089,-0.104l0.092,-0.102l0.097,-0.098l0.1,-0.095l0.103,-0.092l0.107,-0.088l0.11,-0.085l0.113,-0.081l0.117,-0.077l0.119,-0.074l0.123,-0.069l0.109,-0.058l3.805,-1.902l0,3.236Zm-2.894,0.447l-0.063,0.033l-0.062,0.035l-0.059,0.037l-0.058,0.038l-0.057,0.041l-0.055,0.042l-0.053,0.044l-0.052,0.046l-0.05,0.048l-0.048,0.049l-0.046,0.05l-0.045,0.052l-0.043,0.054l-0.04,0.055l-0.039,0.056l-0.037,0.058l-0.035,0.058l-0.033,0.06l-0.031,0.061l-0.029,0.062l-0.027,0.064l-0.024,0.064l-0.022,0.065l-0.021,0.066l-0.017,0.066l-0.016,0.068l-0.013,0.068l-0.011,0.069l-0.009,0.069l-0.006,0.07l-0.004,0.07l-0.001,0.071l0,4.764l0.001,0.05l0.004,0.049l0.006,0.049l0.008,0.048l0.011,0.048l0.013,0.047l0.016,0.046l0.017,0.046l0.02,0.044l0.022,0.044l0.024,0.042l0.026,0.042l0.028,0.04l0.03,0.039l0.033,0.037l0.034,0.036l0.036,0.034l0.037,0.033l0.039,0.03l0.04,0.028l0.042,0.026l0.042,0.024l0.044,0.022l0.044,0.02l0.046,0.017l0.046,0.016l0.047,0.013l0.048,0.011l0.048,0.008l0.049,0.006l0.049,0.004l0.05,0.001l3,0l0.051,-0.001l0.051,-0.004l0.05,-0.007l0.05,-0.008l0.048,-0.011l0.047,-0.014l0.047,-0.016l0.045,-0.018l0.045,-0.02l0.043,-0.022l0.042,-0.024l0.04,-0.026l0.039,-0.028l0.038,-0.029l0.036,-0.032l0.035,-0.033l0.033,-0.035l0.032,-0.036l0.029,-0.038l0.028,-0.039l0.026,-0.04l0.024,-0.042l0.022,-0.043l0.02,-0.045l0.018,-0.045l0.016,-0.047l0.014,-0.047l0.011,-0.048l0.008,-0.05l0.007,-0.05l0.004,-0.051l0.001,-0.051l0,-3l3,0l0.051,-0.001l0.051,-0.004l0.05,-0.007l0.05,-0.008l0.048,-0.011l0.047,-0.014l0.047,-0.016l0.045,-0.018l0.045,-0.02l0.043,-0.022l0.042,-0.024l0.04,-0.026l0.039,-0.028l0.038,-0.029l0.036,-0.032l0.035,-0.033l0.033,-0.035l0.032,-0.036l0.029,-0.038l0.028,-0.039l0.026,-0.04l0.024,-0.042l0.022,-0.043l0.02,-0.045l0.018,-0.045l0.016,-0.047l0.014,-0.047l0.011,-0.048l0.008,-0.05l0.007,-0.05l0.004,-0.051l0.001,-0.051c0,0 -0.001,-0.05 -0.001,-0.05l-0.004,-0.049l-0.006,-0.049l-0.008,-0.048l-0.011,-0.048l-0.013,-0.047l-0.016,-0.046l-0.017,-0.046l-0.02,-0.044l-0.022,-0.044l-0.024,-0.042l-0.026,-0.042l-0.028,-0.04l-0.03,-0.039l-0.033,-0.037l-0.034,-0.036l-0.036,-0.034l-0.037,-0.033l-0.039,-0.03l-0.04,-0.028l-0.042,-0.026l-0.042,-0.024l-0.044,-0.022l-0.044,-0.02l-0.046,-0.017l-0.046,-0.016l-0.047,-0.013l-0.048,-0.011l-0.048,-0.008l-0.049,-0.006l-0.049,-0.004l-0.05,-0.001l-6,0l0,-2l-0.894,0.447Z"/><rect x="14" y="27" width="2" height="2"/></g></svg>