<?xml version="1.0" encoding="UTF-8"?>
<!DOCTYPE svg  PUBLIC '-//W3C//DTD SVG 1.1//EN'  'http://www.w3.org/Graphics/SVG/1.1/DTD/svg11.dtd'>
<svg clip-rule="evenodd" fill-rule="evenodd" stroke-linecap="round" stroke-linejoin="round" stroke-miterlimit="1.5" version="1.1" viewBox="0 0 32 32" xml:space="preserve" xmlns="http://www.w3.org/2000/svg">
<metadata>
<rdf:RDF xmlns:cc="http://web.resource.org/cc/" xmlns:dc="http://purl.org/dc/elements/1.1/" xmlns:rdf="http://www.w3.org/1999/02/22-rdf-syntax-ns#">

     <rdf:Description rdf:about="">
       <dc:title>Mutant Standard S3</dc:title>
     </rdf:Description>

    <cc:work rdf:about="">
        <cc:license rdf:resource="http://creativecommons.org/licenses/by-nc-sa/4.0/"/>
        <cc:attributionName>Dzuk</cc:attributionName>
        <cc:attributionURL>http://mutant.tech/</cc:attributionURL>
    </cc:work>

</rdf:RDF>
</metadata>
<rect id="weed_think" width="32" height="32" fill="none"/><clipPath id="_clip1"><rect width="32" height="32"/></clipPath><g clip-path="url(#_clip1)"><g id="outline"><g id="Layer2" fill="none" stroke="#000" stroke-width="4px"><path d="m16 22s-0.619-1.239-1.422-2.845c-2.253-4.504-2.253-9.806 0-14.31 0.803-1.606 1.422-2.845 1.422-2.845s0.619 1.239 1.422 2.845c2.253 4.504 2.253 9.806 0 14.31-0.803 1.606-1.422 2.845-1.422 2.845z"/><path d="m16 22s0.758-1.517 1.615-3.23c1.548-3.096 4.059-5.607 7.155-7.155 1.713-0.857 3.23-1.615 3.23-1.615s-0.758 1.517-1.615 3.23c-1.548 3.096-4.059 5.607-7.155 7.155-1.713 0.857-3.23 1.615-3.23 1.615z"/><path d="m16 21c4.407-2.203 9.593-2.203 14 0-4.407 2.203-9.593 2.203-14 0z"/><path d="m16 22h1.528c2.741 0 5.246 1.549 6.472 4h-1.528c-2.741 0-5.246-1.549-6.472-4z"/><path d="m16 22h-1.528c-2.741 0-5.246 1.549-6.472 4h1.528c2.741 0 5.246-1.549 6.472-4z"/><path d="m2 21c4.407-2.203 9.593-2.203 14 0-4.407 2.203-9.593 2.203-14 0z"/><path d="m16 22s-0.758-1.517-1.615-3.23c-1.548-3.096-4.059-5.607-7.155-7.155-1.713-0.857-3.23-1.615-3.23-1.615s0.758 1.517 1.615 3.23c1.548 3.096 4.059 5.607 7.155 7.155 1.713 0.857 3.23 1.615 3.23 1.615z"/><rect x="15" y="25" width="2" height="5" stroke-linejoin="miter"/></g></g><g id="emoji"><path d="m14.578 19.155c-2.253-4.504-2.253-9.806 0-14.31 0.803-1.606 1.422-2.845 1.422-2.845s0.619 1.239 1.422 2.845c2.253 4.504 2.253 9.806 0 14.31l-0.422 0.845 0.615-1.23c1.548-3.096 4.059-5.607 7.155-7.155 1.713-0.857 3.23-1.615 3.23-1.615s-0.758 1.517-1.615 3.23c-1.283 2.566-3.228 4.73-5.619 6.278 3.12-0.45 6.345 0.047 9.234 1.492-4.062 2.031-8.787 2.19-12.953 0.476l-0.047 0.024v0.5h0.528c2.741 0 5.246 1.549 6.472 4h-1.528c-2.129 0-4.116-0.935-5.472-2.501v6.501h-2v-6.501c-1.356 1.566-3.343 2.501-5.472 2.501h-1.528c1.226-2.451 3.731-4 6.472-4h0.528v-0.5l-0.047-0.024c-4.166 1.714-8.891 1.555-12.953-0.476 2.889-1.445 6.114-1.942 9.234-1.492-2.391-1.548-4.336-3.712-5.619-6.278-0.857-1.713-1.615-3.23-1.615-3.23s1.517 0.758 3.23 1.615c3.096 1.548 5.607 4.059 7.155 7.155l0.193 0.385z" fill="#199d4e"/><clipPath id="_clip2"><path d="m14.578 19.155c-2.253-4.504-2.253-9.806 0-14.31 0.803-1.606 1.422-2.845 1.422-2.845s0.619 1.239 1.422 2.845c2.253 4.504 2.253 9.806 0 14.31l-0.422 0.845 0.615-1.23c1.548-3.096 4.059-5.607 7.155-7.155 1.713-0.857 3.23-1.615 3.23-1.615s-0.758 1.517-1.615 3.23c-1.283 2.566-3.228 4.73-5.619 6.278 3.12-0.45 6.345 0.047 9.234 1.492-4.062 2.031-8.787 2.19-12.953 0.476l-0.047 0.024v0.5h0.528c2.741 0 5.246 1.549 6.472 4h-1.528c-2.129 0-4.116-0.935-5.472-2.501v6.501h-2v-6.501c-1.356 1.566-3.343 2.501-5.472 2.501h-1.528c1.226-2.451 3.731-4 6.472-4h0.528v-0.5l-0.047-0.024c-4.166 1.714-8.891 1.555-12.953-0.476 2.889-1.445 6.114-1.942 9.234-1.492-2.391-1.548-4.336-3.712-5.619-6.278-0.857-1.713-1.615-3.23-1.615-3.23s1.517 0.758 3.23 1.615c3.096 1.548 5.607 4.059 7.155 7.155l0.193 0.385z"/></clipPath><g clip-path="url(#_clip2)"><path d="m8 20h0.929c1.326 0 2.598 0.527 3.535 1.464l7.536 7.536v3h-12v-12z" fill="#126d36"/></g><path d="m13 20 3-3 3 3v3h-6v-3z" fill="#199d4e"/><path d="m7 22-0.894 0.447c-0.678 0.339-1.106 1.032-1.106 1.789v4.764c0 0.265 0.105 0.52 0.293 0.707 0.187 0.188 0.442 0.293 0.707 0.293h3c0.552 0 1-0.448 1-1v-3h3c0.552 0 1-0.448 1-1 0-0.265-0.105-0.52-0.293-0.707-0.187-0.188-0.442-0.293-0.707-0.293h-6v-2z" fill="#199d4e"/><path d="m9 22h4.025l0.124 3e-3 0.147 0.011 0.147 0.018 0.145 0.026 0.143 0.032 0.142 0.039 0.139 0.046 0.136 0.053 0.134 0.059 0.131 0.066 0.127 0.072 0.125 0.079 0.121 0.085 0.116 0.09 0.112 0.097 0.108 0.102 0.102 0.108 0.097 0.112 0.091 0.117 0.085 0.121 0.078 0.123 0.072 0.128 0.066 0.131 0.059 0.134 0.053 0.136 0.046 0.139 0.039 0.141 0.032 0.143 0.026 0.147 0.018 0.147 0.011 0.146 4e-3 0.149-4e-3 0.152-0.012 0.153-0.019 0.15-0.026 0.147-0.034 0.146-0.041 0.143-0.047 0.141-0.054 0.137-0.06 0.132-0.066 0.13-0.073 0.127-0.078 0.121-0.083 0.117-0.09 0.114-0.094 0.108-0.098 0.104-0.104 0.098-0.109 0.095-0.113 0.089-0.117 0.083-0.121 0.078-0.126 0.072-0.13 0.067-0.134 0.06-0.137 0.054-0.139 0.047-0.143 0.041-0.147 0.034-0.148 0.026-0.15 0.019-0.151 0.012-0.128 3e-3h-1.025v1.025l-3e-3 0.128-0.012 0.152-0.019 0.149-0.026 0.149-0.034 0.145-0.041 0.143-0.047 0.141-0.054 0.136-0.06 0.134-0.067 0.13-0.072 0.125-0.078 0.122-0.083 0.117-0.089 0.113-0.095 0.109-0.098 0.104-0.104 0.098-0.109 0.095-0.113 0.089-0.117 0.083-0.122 0.078-0.125 0.072-0.13 0.067-0.134 0.06-0.136 0.054-0.141 0.047-0.143 0.041-0.145 0.034-0.149 0.026-0.15 0.019-0.151 0.012-0.128 3e-3h-3.05l-0.124-3e-3 -0.147-0.011-0.147-0.018-0.145-0.026-0.143-0.032-0.142-0.039-0.139-0.046-0.136-0.053-0.134-0.059-0.131-0.066-0.127-0.072-0.124-0.078-0.121-0.085-0.117-0.091-0.112-0.097-0.108-0.102-0.102-0.108-0.097-0.113-0.091-0.116-0.084-0.12-0.079-0.125-0.072-0.127-0.066-0.131-0.059-0.133-0.053-0.137-0.046-0.139-0.039-0.141-0.032-0.144-0.026-0.145-0.018-0.147-0.011-0.147-3e-3 -0.124v-4.807l2e-3 -0.124 8e-3 -0.139 0.012-0.141 0.017-0.139 0.022-0.137 0.027-0.136 0.031-0.135 0.036-0.134 0.04-0.132 0.045-0.13 0.049-0.128 0.053-0.126 0.058-0.125 0.061-0.122 0.066-0.12 0.07-0.117 0.074-0.115 0.078-0.113 0.082-0.11 0.084-0.106 0.09-0.104 0.093-0.102 0.096-0.098 0.1-0.095 0.103-0.092 0.107-0.088 0.11-0.085 0.113-0.081 0.117-0.077 0.119-0.074 0.123-0.07 0.109-0.057 3.805-1.902v3.236zm-2.894 0.447-0.063 0.033-0.062 0.035-0.059 0.037-0.058 0.038-0.057 0.041-0.055 0.042-0.053 0.044-0.052 0.046-0.05 0.048-0.048 0.049-0.046 0.05-0.045 0.052-0.043 0.054-0.04 0.055-0.039 0.056-0.037 0.058-0.035 0.058-0.033 0.06-0.031 0.061-0.029 0.062-0.027 0.064-0.024 0.064-0.022 0.065-0.021 0.066-0.017 0.066-0.016 0.068-0.013 0.068-0.011 0.069-9e-3 0.069-6e-3 0.07-4e-3 0.07-1e-3 0.071v4.764l1e-3 0.05 4e-3 0.049 6e-3 0.049 8e-3 0.048 0.011 0.048 0.013 0.047 0.016 0.046 0.017 0.046 0.02 0.044 0.022 0.044 0.024 0.042 0.026 0.042 0.028 0.04 0.03 0.039 0.033 0.037 0.034 0.036 0.036 0.034 0.037 0.033 0.039 0.03 0.04 0.028 0.042 0.026 0.042 0.024 0.044 0.022 0.044 0.02 0.046 0.017 0.046 0.016 0.047 0.013 0.048 0.011 0.048 8e-3 0.049 6e-3 0.049 4e-3 0.05 1e-3h3l0.051-1e-3 0.051-4e-3 0.05-7e-3 0.05-8e-3 0.048-0.011 0.047-0.014 0.047-0.016 0.045-0.018 0.045-0.02 0.043-0.022 0.042-0.024 0.04-0.026 0.039-0.028 0.038-0.029 0.036-0.032 0.035-0.033 0.033-0.035 0.032-0.036 0.029-0.038 0.028-0.039 0.026-0.04 0.024-0.042 0.022-0.043 0.02-0.045 0.018-0.045 0.016-0.047 0.014-0.047 0.011-0.048 8e-3 -0.05 7e-3 -0.05 4e-3 -0.051 1e-3 -0.051v-3h3l0.051-1e-3 0.051-4e-3 0.05-7e-3 0.05-8e-3 0.048-0.011 0.047-0.014 0.047-0.016 0.045-0.018 0.045-0.02 0.043-0.022 0.042-0.024 0.04-0.026 0.039-0.028 0.038-0.029 0.036-0.032 0.035-0.033 0.033-0.035 0.032-0.036 0.029-0.038 0.028-0.039 0.026-0.04 0.024-0.042 0.022-0.043 0.02-0.045 0.018-0.045 0.016-0.047 0.014-0.047 0.011-0.048 8e-3 -0.05 7e-3 -0.05 4e-3 -0.051 1e-3 -0.051-1e-3 -0.05-4e-3 -0.049-6e-3 -0.049-8e-3 -0.048-0.011-0.048-0.013-0.047-0.016-0.046-0.017-0.046-0.02-0.044-0.022-0.044-0.024-0.042-0.026-0.042-0.028-0.04-0.03-0.039-0.033-0.037-0.034-0.036-0.036-0.034-0.037-0.033-0.039-0.03-0.04-0.028-0.042-0.026-0.042-0.024-0.044-0.022-0.044-0.02-0.046-0.017-0.046-0.016-0.047-0.013-0.048-0.011-0.048-8e-3 -0.049-6e-3 -0.049-4e-3 -0.05-1e-3h-6v-2l-0.894 0.447z"/></g></g></svg>
