<?xml version="1.0" encoding="UTF-8" standalone="no"?><!DOCTYPE svg PUBLIC "-//W3C//DTD SVG 1.1//EN" "http://www.w3.org/Graphics/SVG/1.1/DTD/svg11.dtd"><svg width="100%" height="100%" viewBox="0 0 32 32" version="1.1" xmlns="http://www.w3.org/2000/svg" xmlns:xlink="http://www.w3.org/1999/xlink" xml:space="preserve" xmlns:serif="http://www.serif.com/" style="fill-rule:evenodd;clip-rule:evenodd;stroke-linecap:round;stroke-linejoin:round;stroke-miterlimit:1.5;">
<metadata>
<rdf:RDF xmlns:cc="http://web.resource.org/cc/"
         xmlns:rdf="http://www.w3.org/1999/02/22-rdf-syntax-ns#"
         xmlns:dc = "http://purl.org/dc/elements/1.1/"
         >

     <rdf:Description rdf:about="">
       <dc:title>Mutant Standard S3</dc:title>
     </rdf:Description>

    <cc:work rdf:about="">
        <cc:license rdf:resource="http://creativecommons.org/licenses/by-nc-sa/4.0/"/>
        <cc:attributionName>Dzuk</cc:attributionName>
        <cc:attributionURL>http://mutant.tech/</cc:attributionURL>
    </cc:work>

</rdf:RDF>
</metadata>
<rect id="weed_think" x="0" y="0" width="32" height="32" style="fill:none;"/><clipPath id="_clip1"><rect x="0" y="0" width="32" height="32"/></clipPath><g clip-path="url(#_clip1)"><g id="outline"><g id="Layer2"><path d="M16,22c0,0 -0.619,-1.239 -1.422,-2.845c-2.253,-4.504 -2.253,-9.806 0,-14.31c0.803,-1.606 1.422,-2.845 1.422,-2.845c0,0 0.619,1.239 1.422,2.845c2.253,4.504 2.253,9.806 0,14.31c-0.803,1.606 -1.422,2.845 -1.422,2.845Z" style="fill:none;stroke:#000;stroke-width:4px;"/><path d="M16,22c0,0 0.758,-1.517 1.615,-3.23c1.548,-3.096 4.059,-5.607 7.155,-7.155c1.713,-0.857 3.23,-1.615 3.23,-1.615c0,0 -0.758,1.517 -1.615,3.23c-1.548,3.096 -4.059,5.607 -7.155,7.155c-1.713,0.857 -3.23,1.615 -3.23,1.615Z" style="fill:none;stroke:#000;stroke-width:4px;"/><path d="M16,21c0,0 0,0 0,0c4.407,-2.203 9.593,-2.203 14,0c0,0 0,0 0,0c0,0 0,0 0,0c-4.407,2.203 -9.593,2.203 -14,0c0,0 0,0 0,0Z" style="fill:none;stroke:#000;stroke-width:4px;"/><path d="M16,22c0,0 0.653,0 1.528,0c2.741,0 5.246,1.549 6.472,4c0,0 0,0 0,0c0,0 -0.653,0 -1.528,0c-2.741,0 -5.246,-1.549 -6.472,-4c0,0 0,0 0,0Z" style="fill:none;stroke:#000;stroke-width:4px;"/><path d="M16,22c0,0 -0.653,0 -1.528,0c-2.741,0 -5.246,1.549 -6.472,4c0,0 0,0 0,0c0,0 0.653,0 1.528,0c2.741,0 5.246,-1.549 6.472,-4c0,0 0,0 0,0Z" style="fill:none;stroke:#000;stroke-width:4px;"/><path d="M2,21c0,0 0,0 0,0c4.407,-2.203 9.593,-2.203 14,0c0,0 0,0 0,0c0,0 0,0 0,0c-4.407,2.203 -9.593,2.203 -14,0c0,0 0,0 0,0Z" style="fill:none;stroke:#000;stroke-width:4px;"/><path d="M16,22c0,0 -0.758,-1.517 -1.615,-3.23c-1.548,-3.096 -4.059,-5.607 -7.155,-7.155c-1.713,-0.857 -3.23,-1.615 -3.23,-1.615c0,0 0.758,1.517 1.615,3.23c1.548,3.096 4.059,5.607 7.155,7.155c1.713,0.857 3.23,1.615 3.23,1.615Z" style="fill:none;stroke:#000;stroke-width:4px;"/><rect x="15" y="25" width="2" height="5" style="fill:none;stroke:#000;stroke-width:4px;stroke-linejoin:miter;"/></g></g><g id="emoji"><path d="M14.578,19.155c-2.253,-4.504 -2.253,-9.806 0,-14.31c0.803,-1.606 1.422,-2.845 1.422,-2.845c0,0 0.619,1.239 1.422,2.845c2.253,4.504 2.253,9.806 0,14.31l-0.422,0.845l0.615,-1.23c1.548,-3.096 4.059,-5.607 7.155,-7.155c1.713,-0.857 3.23,-1.615 3.23,-1.615c0,0 -0.758,1.517 -1.615,3.23c-1.283,2.566 -3.228,4.73 -5.619,6.278c3.12,-0.45 6.345,0.047 9.234,1.492c0,0 0,0 0,0c0,0 0,0 0,0c-4.062,2.031 -8.787,2.19 -12.953,0.476l-0.047,0.024l0,0.5l0.528,0c2.741,0 5.246,1.549 6.472,4c0,0 0,0 0,0c0,0 -0.653,0 -1.528,0c-2.129,0 -4.116,-0.935 -5.472,-2.501l0,6.501l-2,0l0,-6.501c-1.356,1.566 -3.343,2.501 -5.472,2.501l-1.528,0c0,0 0,0 0,0c1.226,-2.451 3.731,-4 6.472,-4l0.528,0l0,-0.5l-0.047,-0.024c-4.166,1.714 -8.891,1.555 -12.953,-0.476c0,0 0,0 0,0c0,0 0,0 0,0c2.889,-1.445 6.114,-1.942 9.234,-1.492c-2.391,-1.548 -4.336,-3.712 -5.619,-6.278c-0.857,-1.713 -1.615,-3.23 -1.615,-3.23c0,0 1.517,0.758 3.23,1.615c3.096,1.548 5.607,4.059 7.155,7.155l0.193,0.385Z" style="fill:#199d4e;"/><clipPath id="_clip2"><path d="M14.578,19.155c-2.253,-4.504 -2.253,-9.806 0,-14.31c0.803,-1.606 1.422,-2.845 1.422,-2.845c0,0 0.619,1.239 1.422,2.845c2.253,4.504 2.253,9.806 0,14.31l-0.422,0.845l0.615,-1.23c1.548,-3.096 4.059,-5.607 7.155,-7.155c1.713,-0.857 3.23,-1.615 3.23,-1.615c0,0 -0.758,1.517 -1.615,3.23c-1.283,2.566 -3.228,4.73 -5.619,6.278c3.12,-0.45 6.345,0.047 9.234,1.492c0,0 0,0 0,0c0,0 0,0 0,0c-4.062,2.031 -8.787,2.19 -12.953,0.476l-0.047,0.024l0,0.5l0.528,0c2.741,0 5.246,1.549 6.472,4c0,0 0,0 0,0c0,0 -0.653,0 -1.528,0c-2.129,0 -4.116,-0.935 -5.472,-2.501l0,6.501l-2,0l0,-6.501c-1.356,1.566 -3.343,2.501 -5.472,2.501l-1.528,0c0,0 0,0 0,0c1.226,-2.451 3.731,-4 6.472,-4l0.528,0l0,-0.5l-0.047,-0.024c-4.166,1.714 -8.891,1.555 -12.953,-0.476c0,0 0,0 0,0c0,0 0,0 0,0c2.889,-1.445 6.114,-1.942 9.234,-1.492c-2.391,-1.548 -4.336,-3.712 -5.619,-6.278c-0.857,-1.713 -1.615,-3.23 -1.615,-3.23c0,0 1.517,0.758 3.23,1.615c3.096,1.548 5.607,4.059 7.155,7.155l0.193,0.385Z"/></clipPath><g clip-path="url(#_clip2)"><path d="M8,20c0,0 0.411,0 0.929,0c1.326,0 2.598,0.527 3.535,1.464c2.55,2.55 7.536,7.536 7.536,7.536l0,3l-12,0l0,-12Z" style="fill:#126d36;"/></g><path d="M13,20l3,-3l3,3l0,3l-6,0l0,-3Z" style="fill:#199d4e;"/><path d="M7,22c0,0 -0.432,0.216 -0.894,0.447c-0.678,0.339 -1.106,1.032 -1.106,1.789c0,1.357 0,3.509 0,4.764c0,0.265 0.105,0.52 0.293,0.707c0.187,0.188 0.442,0.293 0.707,0.293c0.871,0 2.129,0 3,0c0.552,0 1,-0.448 1,-1c0,-1.185 0,-3 0,-3c0,0 1.815,0 3,0c0.552,0 1,-0.448 1,-1c0,-0.265 -0.105,-0.52 -0.293,-0.707c-0.187,-0.188 -0.442,-0.293 -0.707,-0.293c-1.934,0 -6,0 -6,0l0,-2Z" style="fill:#199d4e;"/><path d="M9,22l4.025,0l0.124,0.003l0.147,0.011l0.147,0.018l0.145,0.026l0.143,0.032l0.142,0.039l0.139,0.046l0.136,0.053l0.134,0.059l0.131,0.066l0.127,0.072l0.125,0.079l0.121,0.085l0.116,0.09l0.112,0.097l0.108,0.102l0.102,0.108l0.097,0.112l0.091,0.117l0.085,0.121l0.078,0.123l0.072,0.128l0.066,0.131l0.059,0.134l0.053,0.136l0.046,0.139l0.039,0.141l0.032,0.143l0.026,0.147l0.018,0.147l0.011,0.146l0.004,0.149l-0.004,0.152l-0.012,0.153l-0.019,0.15l-0.026,0.147l-0.034,0.146l-0.041,0.143l-0.047,0.141l-0.054,0.137l-0.06,0.132l-0.066,0.13l-0.073,0.127l-0.078,0.121l-0.083,0.117l-0.09,0.114l-0.094,0.108l-0.098,0.104l-0.104,0.098l-0.109,0.095l-0.113,0.089l-0.117,0.083l-0.121,0.078l-0.126,0.072l-0.13,0.067l-0.134,0.06l-0.137,0.054l-0.139,0.047l-0.143,0.041l-0.147,0.034l-0.148,0.026l-0.15,0.019l-0.151,0.012l-0.128,0.003l-1.025,0l0,1.025l-0.003,0.128l-0.012,0.152l-0.019,0.149l-0.026,0.149l-0.034,0.145l-0.041,0.143l-0.047,0.141l-0.054,0.136l-0.06,0.134l-0.067,0.13l-0.072,0.125l-0.078,0.122l-0.083,0.117l-0.089,0.113l-0.095,0.109l-0.098,0.104l-0.104,0.098l-0.109,0.095l-0.113,0.089l-0.117,0.083l-0.122,0.078l-0.125,0.072l-0.13,0.067l-0.134,0.06l-0.136,0.054l-0.141,0.047l-0.143,0.041l-0.145,0.034l-0.149,0.026l-0.15,0.019l-0.151,0.012l-0.128,0.003l-3.05,0l-0.124,-0.003l-0.147,-0.011l-0.147,-0.018l-0.145,-0.026l-0.143,-0.032l-0.142,-0.039l-0.139,-0.046l-0.136,-0.053l-0.134,-0.059l-0.131,-0.066l-0.127,-0.072l-0.124,-0.078l-0.121,-0.085l-0.117,-0.091l-0.112,-0.097l-0.108,-0.102l-0.102,-0.108l-0.097,-0.113l-0.091,-0.116l-0.084,-0.12l-0.079,-0.125l-0.072,-0.127l-0.066,-0.131l-0.059,-0.133l-0.053,-0.137l-0.046,-0.139l-0.039,-0.141l-0.032,-0.144l-0.026,-0.145l-0.018,-0.147l-0.011,-0.147l-0.003,-0.124l0,-4.807l0.002,-0.124l0.008,-0.139l0.012,-0.141l0.017,-0.139l0.022,-0.137l0.027,-0.136l0.031,-0.135l0.036,-0.134l0.04,-0.132l0.045,-0.13l0.049,-0.128l0.053,-0.126l0.058,-0.125l0.061,-0.122l0.066,-0.12l0.07,-0.117l0.074,-0.115l0.078,-0.113l0.082,-0.11l0.084,-0.106l0.09,-0.104l0.093,-0.102l0.096,-0.098l0.1,-0.095l0.103,-0.092l0.107,-0.088l0.11,-0.085l0.113,-0.081l0.117,-0.077l0.119,-0.074l0.123,-0.07l0.109,-0.057l3.805,-1.902l0,3.236Zm-2.894,0.447l-0.063,0.033l-0.062,0.035l-0.059,0.037l-0.058,0.038l-0.057,0.041l-0.055,0.042l-0.053,0.044l-0.052,0.046l-0.05,0.048l-0.048,0.049l-0.046,0.05l-0.045,0.052l-0.043,0.054l-0.04,0.055l-0.039,0.056l-0.037,0.058l-0.035,0.058l-0.033,0.06l-0.031,0.061l-0.029,0.062l-0.027,0.064l-0.024,0.064l-0.022,0.065l-0.021,0.066l-0.017,0.066l-0.016,0.068l-0.013,0.068l-0.011,0.069l-0.009,0.069l-0.006,0.07l-0.004,0.07l-0.001,0.071l0,4.764l0.001,0.05l0.004,0.049l0.006,0.049l0.008,0.048l0.011,0.048l0.013,0.047l0.016,0.046l0.017,0.046l0.02,0.044l0.022,0.044l0.024,0.042l0.026,0.042l0.028,0.04l0.03,0.039l0.033,0.037l0.034,0.036l0.036,0.034l0.037,0.033l0.039,0.03l0.04,0.028l0.042,0.026l0.042,0.024l0.044,0.022l0.044,0.02l0.046,0.017l0.046,0.016l0.047,0.013l0.048,0.011l0.048,0.008l0.049,0.006l0.049,0.004l0.05,0.001l3,0l0.051,-0.001l0.051,-0.004l0.05,-0.007l0.05,-0.008l0.048,-0.011l0.047,-0.014l0.047,-0.016l0.045,-0.018l0.045,-0.02l0.043,-0.022l0.042,-0.024l0.04,-0.026l0.039,-0.028l0.038,-0.029l0.036,-0.032l0.035,-0.033l0.033,-0.035l0.032,-0.036l0.029,-0.038l0.028,-0.039l0.026,-0.04l0.024,-0.042l0.022,-0.043l0.02,-0.045l0.018,-0.045l0.016,-0.047l0.014,-0.047l0.011,-0.048l0.008,-0.05l0.007,-0.05l0.004,-0.051l0.001,-0.051l0,-3l3,0l0.051,-0.001l0.051,-0.004l0.05,-0.007l0.05,-0.008l0.048,-0.011l0.047,-0.014l0.047,-0.016l0.045,-0.018l0.045,-0.02l0.043,-0.022l0.042,-0.024l0.04,-0.026l0.039,-0.028l0.038,-0.029l0.036,-0.032l0.035,-0.033l0.033,-0.035l0.032,-0.036l0.029,-0.038l0.028,-0.039l0.026,-0.04l0.024,-0.042l0.022,-0.043l0.02,-0.045l0.018,-0.045l0.016,-0.047l0.014,-0.047l0.011,-0.048l0.008,-0.05l0.007,-0.05l0.004,-0.051l0.001,-0.051c0,0 -0.001,-0.05 -0.001,-0.05l-0.004,-0.049l-0.006,-0.049l-0.008,-0.048l-0.011,-0.048l-0.013,-0.047l-0.016,-0.046l-0.017,-0.046l-0.02,-0.044l-0.022,-0.044l-0.024,-0.042l-0.026,-0.042l-0.028,-0.04l-0.03,-0.039l-0.033,-0.037l-0.034,-0.036l-0.036,-0.034l-0.037,-0.033l-0.039,-0.03l-0.04,-0.028l-0.042,-0.026l-0.042,-0.024l-0.044,-0.022l-0.044,-0.02l-0.046,-0.017l-0.046,-0.016l-0.047,-0.013l-0.048,-0.011l-0.048,-0.008l-0.049,-0.006l-0.049,-0.004l-0.05,-0.001l-6,0l0,-2l-0.894,0.447Z"/></g></g></svg>