<?xml version="1.0" encoding="UTF-8"?>
<!DOCTYPE svg  PUBLIC '-//W3C//DTD SVG 1.1//EN'  'http://www.w3.org/Graphics/SVG/1.1/DTD/svg11.dtd'>
<svg clip-rule="evenodd" fill-rule="evenodd" stroke-linecap="round" stroke-linejoin="round" stroke-miterlimit="1.5" version="1.1" viewBox="0 0 32 32" xml:space="preserve" xmlns="http://www.w3.org/2000/svg"><rect id="ferris_smile" width="32" height="32" fill="none"/><clipPath id="_clip1"><rect width="32" height="32"/></clipPath><g clip-path="url(#_clip1)"><g id="Layer1"><path d="m2 7.281c0-0.308 0.142-0.599 0.385-0.788 0.242-0.19 0.559-0.257 0.858-0.182 0.544 0.136 1.177 0.294 1.699 0.425 0.631 0.157 1.291-0.109 1.636-0.661 0.42-0.671 0.984-1.574 1.392-2.227 0.141-0.225 0.365-0.385 0.623-0.444 0.259-0.06 0.53-0.015 0.755 0.126 0.625 0.391 1.479 0.924 2.14 1.338 0.592 0.37 1.362 0.282 1.856-0.212l1.949-1.949c0.39-0.39 1.024-0.39 1.414 0l1.949 1.949c0.494 0.494 1.264 0.582 1.856 0.212 0.661-0.414 1.515-0.947 2.14-1.338 0.225-0.141 0.496-0.186 0.755-0.126 0.258 0.059 0.482 0.219 0.623 0.444 0.408 0.653 0.972 1.556 1.392 2.227 0.345 0.552 1.005 0.818 1.636 0.661 0.522-0.131 1.155-0.289 1.699-0.425 0.299-0.075 0.616-8e-3 0.858 0.182 0.243 0.189 0.385 0.48 0.385 0.788v15.719c0 3.866-3.134 7-7 7h-3v-1.158c0-1.152 0.357-2.229 0.972-3.118-3.291 0.551-6.653 0.551-9.944 0 0.615 0.889 0.972 1.966 0.972 3.118v1.158h-3c-3.866 0-7-3.134-7-7v-15.719z" fill="none" stroke="#000" stroke-width="4px"/></g><g id="emoji"><path d="m2 19v-11.719c0-0.308 0.142-0.599 0.385-0.788 0.242-0.19 0.559-0.257 0.858-0.182 0.544 0.136 1.177 0.294 1.699 0.425 0.631 0.157 1.291-0.109 1.636-0.661 0.42-0.671 0.984-1.574 1.392-2.227 0.141-0.225 0.365-0.385 0.623-0.444 0.259-0.06 0.53-0.015 0.755 0.126 0.625 0.391 1.479 0.924 2.14 1.338 0.592 0.37 1.362 0.282 1.856-0.212l1.949-1.949c0.39-0.39 1.024-0.39 1.414 0l1.949 1.949c0.494 0.494 1.264 0.582 1.856 0.212 0.661-0.414 1.515-0.947 2.14-1.338 0.225-0.141 0.496-0.186 0.755-0.126 0.258 0.059 0.482 0.219 0.623 0.444 0.408 0.653 0.972 1.556 1.392 2.227 0.345 0.552 1.005 0.818 1.636 0.661 0.522-0.131 1.155-0.289 1.699-0.425 0.299-0.075 0.616-8e-3 0.858 0.182 0.243 0.189 0.385 0.48 0.385 0.788v11.719l-1.514 4.541-2.359-0.158c-1.68 0.6-7.577 2.646-7.579 2.646-1.696 0.144-3.401 0.144-5.096 0-4e-3 0-5.896-2.045-7.579-2.646l-2.359 0.158-1.514-4.541z" fill="#ec7235"/><path d="m2 19v-8.719h28v8.719l-1.514 4.541-2.359 0.842c-6.549 2.339-13.705 2.339-20.254 0l-2.359-0.842-1.514-4.541z" fill="none"/><clipPath id="_clip2"><path d="m2 19v-8.719h28v8.719l-1.514 4.541-2.359 0.842c-6.549 2.339-13.705 2.339-20.254 0l-2.359-0.842-1.514-4.541z"/></clipPath><g clip-path="url(#_clip2)" fill="none" stroke="#a53a0c" stroke-linecap="square" stroke-width="4px"><path d="m20 30v-1.158c0-2.766 2.06-5.099 4.804-5.443 1.699-0.212 3.196-0.399 3.196-0.399l4-8v8c0 1.857-0.738 3.637-2.05 4.95-1.313 1.313-3.093 2.05-4.95 2.05h-5z"/><path d="m12 30v-1.158c0-2.766-2.06-5.099-4.804-5.443-1.699-0.212-3.196-0.399-3.196-0.399l-4-8v8c0 1.857 0.738 3.637 2.05 4.95 1.313 1.313 3.093 2.05 4.95 2.05h5z"/></g><path d="m20.064 28c0.369-2.385 2.279-4.293 4.74-4.601 1.699-0.212 3.196-0.399 3.196-0.399l2-4v4c0 3.866-3.134 7-7 7h-3v-1l0.481-0.585-0.417-0.415z" fill="#ec7235"/><path d="m20.064 28h0.208c0.466 0 0.913-0.185 1.243-0.515l1.411-1.411c0.688-0.688 1.62-1.074 2.592-1.074h0.482s-0.233 0.467-0.541 1.081c-0.894 1.789-2.722 2.919-4.722 2.919h-0.737v-0.158c0-0.286 0.022-0.567 0.064-0.842z" fill="#b54b12"/><path d="m11.936 28c-0.369-2.385-2.279-4.293-4.74-4.601-1.699-0.212-3.196-0.399-3.196-0.399l-2-4v4c0 3.866 3.134 7 7 7h3v-1l-0.481-0.585 0.417-0.415z" fill="#ec7235"/><path d="m11.936 28h-0.208c-0.466 0-0.913-0.185-1.243-0.515l-1.411-1.411c-0.688-0.688-1.62-1.074-2.592-1.074h-0.482s0.233 0.467 0.541 1.081c0.894 1.789 2.722 2.919 4.722 2.919h0.737v-0.158c0-0.286-0.022-0.567-0.064-0.842z" fill="#b54b12"/><path d="m22.876 12.056c-1.937-0.341-3.231 0.919-3.601 2.373-0.448 1.763-0.375 3.18 0.418 4.218 0.872 1.142 2.33 1.688 3.605 1.137 1.724-0.745 2.202-1.752 2.202-3.813 0-2.06-0.921-3.614-2.624-3.915z"/><path d="m22.5 13.77c0-0.331-0.131-0.648-0.366-0.882-0.234-0.234-0.551-0.366-0.882-0.366h-2e-3c-0.332 0-0.649 0.132-0.884 0.367-0.234 0.234-0.366 0.552-0.366 0.883v0.978c0 0.332 0.132 0.649 0.366 0.884 0.235 0.234 0.552 0.366 0.884 0.366h2e-3c0.331 0 0.648-0.131 0.882-0.366 0.235-0.234 0.366-0.551 0.366-0.882v-0.982z" fill="#e5e5e5"/><path d="m10.376 12.056c-1.937-0.341-3.231 0.919-3.601 2.373-0.448 1.763-0.375 3.18 0.418 4.218 0.872 1.142 2.33 1.688 3.605 1.137 1.724-0.745 2.202-1.752 2.202-3.813 0-2.06-0.921-3.614-2.624-3.915z"/><path d="m10 13.77c0-0.331-0.131-0.648-0.366-0.882-0.234-0.234-0.551-0.366-0.882-0.366h-2e-3c-0.332 0-0.649 0.132-0.884 0.367-0.234 0.234-0.366 0.552-0.366 0.883v0.978c0 0.332 0.132 0.649 0.366 0.884 0.235 0.234 0.552 0.366 0.884 0.366h2e-3c0.331 0 0.648-0.131 0.882-0.366 0.235-0.234 0.366-0.551 0.366-0.882v-0.982z" fill="#e5e5e5"/><path d="m11.718 21.655c-0.186-0.309-0.191-0.694-0.013-1.007 0.177-0.314 0.51-0.508 0.87-0.508h6.85c0.36 0 0.693 0.194 0.87 0.508 0.178 0.313 0.173 0.698-0.013 1.007-0.225 0.376-0.471 0.786-0.709 1.182-0.753 1.255-2.109 2.023-3.572 2.023h-2e-3c-1.463 0-2.819-0.768-3.572-2.023-0.238-0.396-0.484-0.806-0.709-1.182z"/><clipPath id="_clip3"><path d="m11.718 21.655c-0.186-0.309-0.191-0.694-0.013-1.007 0.177-0.314 0.51-0.508 0.87-0.508h6.85c0.36 0 0.693 0.194 0.87 0.508 0.178 0.313 0.173 0.698-0.013 1.007-0.225 0.376-0.471 0.786-0.709 1.182-0.753 1.255-2.109 2.023-3.572 2.023h-2e-3c-1.463 0-2.819-0.768-3.572-2.023-0.238-0.396-0.484-0.806-0.709-1.182z"/></clipPath><g clip-path="url(#_clip3)"><path d="m11 25.5 1.586-1.586c0.905-0.905 2.133-1.414 3.414-1.414s2.509 0.509 3.414 1.414l1.586 1.586h-10z" fill="#8b8b8b"/></g><path d="m19.425 20.14 0.034 1e-3 0.066 4e-3 0.034 4e-3 0.032 5e-3 0.033 6e-3 0.032 7e-3 0.064 0.018 0.031 0.01 0.03 0.011 0.031 0.012 0.03 0.013 0.029 0.014 0.029 0.015 0.029 0.016 0.028 0.017 0.027 0.018 0.027 0.019 0.026 0.019 0.05 0.042 0.024 0.022 0.024 0.023 0.023 0.024 0.022 0.024 0.042 0.052 0.038 0.054 0.018 0.029 0.017 0.029 0.016 0.029 0.015 0.03 0.014 0.031 0.013 0.03 0.012 0.031 0.011 0.032 0.01 0.031 0.016 0.064 0.012 0.064 4e-3 0.033 3e-3 0.032 3e-3 0.033 1e-3 0.032v0.033l-1e-3 0.033-2e-3 0.032-3e-3 0.033-4e-3 0.032-5e-3 0.032-7e-3 0.033-7e-3 0.031-8e-3 0.032-0.01 0.032-0.01 0.031-0.024 0.062-0.014 0.03-0.015 0.03-0.016 0.03-0.017 0.029-0.709 1.182-0.072 0.116-0.076 0.114-0.039 0.055-0.04 0.055-0.041 0.054-0.041 0.053-0.043 0.053-0.043 0.051-0.044 0.051-0.045 0.051-0.045 0.049-0.046 0.049-0.047 0.047-0.096 0.094-0.049 0.045-0.1 0.088-0.051 0.043-0.052 0.042-0.052 0.041-0.053 0.04-0.054 0.04-0.054 0.038-0.055 0.038-0.055 0.037-0.056 0.036-0.056 0.035-0.057 0.034-0.058 0.033-0.058 0.032-0.058 0.031-0.059 0.031-0.12 0.058-0.06 0.027-0.061 0.027-0.061 0.026-0.124 0.048-0.063 0.023-0.126 0.042-0.064 0.02-0.128 0.036-0.065 0.017-0.065 0.015-0.066 0.015-0.066 0.014-0.066 0.012-0.066 0.011-0.067 0.011-0.066 9e-3 -0.067 8e-3 -0.068 8e-3 -0.067 6e-3 -0.068 5e-3 -0.068 4e-3 -0.068 2e-3 -0.069 2e-3 -0.068 1e-3h-2e-3l-0.068-1e-3 -0.069-2e-3 -0.068-2e-3 -0.068-4e-3 -0.068-5e-3 -0.067-6e-3 -0.068-8e-3 -0.067-8e-3 -0.066-9e-3 -0.067-0.011-0.066-0.011-0.066-0.012-0.066-0.014-0.066-0.015-0.065-0.015-0.065-0.017-0.128-0.036-0.064-0.02-0.126-0.042-0.063-0.023-0.124-0.048-0.061-0.026-0.061-0.027-0.06-0.027-0.12-0.058-0.059-0.031-0.058-0.031-0.058-0.032-0.058-0.033-0.057-0.034-0.056-0.035-0.056-0.036-0.055-0.037-0.055-0.038-0.054-0.038-0.054-0.04-0.053-0.04-0.052-0.041-0.052-0.042-0.051-0.043-0.1-0.088-0.049-0.045-0.096-0.094-0.047-0.047-0.046-0.049-0.045-0.049-0.045-0.051-0.044-0.051-0.043-0.051-0.043-0.053-0.041-0.053-0.041-0.054-0.04-0.055-0.039-0.055-0.076-0.114-0.072-0.116-0.709-1.182-0.017-0.029-0.016-0.03-0.015-0.03-0.014-0.03-0.024-0.062-0.01-0.031-0.01-0.032-8e-3 -0.032-7e-3 -0.031-7e-3 -0.033-5e-3 -0.032-4e-3 -0.032-3e-3 -0.033-2e-3 -0.032-1e-3 -0.033v-0.033l1e-3 -0.032 3e-3 -0.033 3e-3 -0.032 4e-3 -0.033 0.012-0.064 0.016-0.064 0.01-0.031 0.011-0.032 0.012-0.031 0.013-0.03 0.014-0.031 0.015-0.03 0.016-0.029 0.017-0.029 0.018-0.029 0.038-0.054 0.042-0.052 0.022-0.024 0.023-0.024 0.024-0.023 0.024-0.022 0.05-0.042 0.026-0.019 0.027-0.019 0.027-0.018 0.028-0.017 0.029-0.016 0.029-0.015 0.029-0.014 0.03-0.013 0.031-0.012 0.03-0.011 0.031-0.01 0.064-0.018 0.032-7e-3 0.033-6e-3 0.032-5e-3 0.034-4e-3 0.066-4e-3 0.034-1e-3h6.85zm-6.842 1-8e-3 1e-3 4e-3 7e-3 0.703 1.171 0.03 0.048 0.027 0.044 0.058 0.086 0.06 0.084 0.031 0.041 0.064 0.08 0.033 0.04 0.033 0.038 0.034 0.039 0.07 0.074 0.035 0.036 0.036 0.036 0.074 0.07 0.038 0.033 0.038 0.034 0.078 0.064 0.08 0.062 0.041 0.03 0.041 0.029 0.042 0.029 0.042 0.028 0.042 0.027 0.043 0.027 0.044 0.025 0.043 0.026 0.044 0.024 0.045 0.024 0.045 0.023 0.045 0.022 0.046 0.022 0.045 0.021 0.047 0.02 0.046 0.02 0.047 0.018 0.048 0.018 0.047 0.018 0.096 0.032 0.049 0.015 0.048 0.014 0.049 0.014 0.05 0.012 0.049 0.012 0.05 0.011 0.1 0.02 0.05 9e-3 0.051 8e-3 0.051 7e-3 0.05 6e-3 0.052 5e-3 0.051 5e-3 0.052 4e-3 0.051 3e-3 0.052 2e-3 0.052 1e-3 0.053 1e-3 0.053-1e-3 0.052-1e-3 0.052-2e-3 0.051-3e-3 0.052-4e-3 0.051-5e-3 0.052-5e-3 0.05-6e-3 0.051-7e-3 0.051-8e-3 0.05-9e-3 0.1-0.02 0.05-0.011 0.049-0.012 0.05-0.012 0.049-0.014 0.048-0.014 0.049-0.015 0.096-0.032 0.047-0.018 0.048-0.018 0.047-0.018 0.046-0.02 0.047-0.02 0.045-0.021 0.046-0.022 0.045-0.022 0.045-0.023 0.045-0.024 0.044-0.024 0.043-0.026 0.044-0.025 0.043-0.027 0.042-0.027 0.042-0.028 0.042-0.029 0.041-0.029 0.041-0.03 0.08-0.062 0.039-0.032 0.039-0.033 0.076-0.066 0.074-0.07 0.036-0.036 0.035-0.036 0.07-0.074 0.034-0.039 0.033-0.038 0.033-0.04 0.064-0.08 0.031-0.041 0.06-0.084 0.058-0.086 0.027-0.044 0.03-0.048 0.703-1.171 4e-3 -7e-3 -8e-3 -1e-3h-6.834z"/><path d="m19.734 20 0.034 1e-3 0.033 1e-3 0.033 3e-3 0.033 4e-3 0.033 5e-3 0.033 6e-3 0.032 7e-3 0.032 8e-3 0.031 9e-3 0.032 0.011 0.03 0.011 0.031 0.012 0.03 0.013 0.029 0.014 0.029 0.015 0.028 0.016 0.028 0.017 0.028 0.018 0.026 0.018 0.027 0.02 0.025 0.02 0.025 0.022 0.024 0.022 0.024 0.023 0.023 0.024 0.022 0.024 0.021 0.025 0.02 0.026 0.02 0.027 0.019 0.028 0.018 0.028 0.017 0.029 0.016 0.03 0.015 0.03 0.014 0.03 0.013 0.031 0.012 0.031 0.011 0.031 9e-3 0.032 9e-3 0.031 8e-3 0.032 6e-3 0.033 0.01 0.064 3e-3 0.033 2e-3 0.032 2e-3 0.033v0.033l-1e-3 0.032-2e-3 0.033-3e-3 0.032-4e-3 0.033-0.012 0.064-7e-3 0.032-9e-3 0.032-9e-3 0.031-0.01 0.032-0.012 0.031-0.013 0.03-0.013 0.031-0.015 0.03-0.016 0.029-0.017 0.029-0.805 1.343-0.038 0.062-0.039 0.061-0.04 0.061-0.04 0.059-0.042 0.059-0.042 0.058-0.043 0.057-0.044 0.057-0.045 0.055-0.046 0.055-0.046 0.054-0.096 0.106-0.049 0.051-0.05 0.051-0.05 0.05-0.051 0.049-0.052 0.048-0.053 0.047-0.053 0.046-0.054 0.046-0.11 0.088-0.057 0.042-0.056 0.042-0.058 0.041-0.058 0.04-0.058 0.039-0.059 0.038-0.06 0.037-0.06 0.036-0.061 0.035-0.062 0.034-0.124 0.066-0.063 0.031-0.064 0.03-0.064 0.029-0.065 0.028-0.13 0.054-0.066 0.025-0.066 0.024-0.067 0.023-0.067 0.022-0.068 0.021-0.136 0.038-0.068 0.018-0.069 0.016-0.07 0.016-0.069 0.014-0.07 0.013-0.071 0.013-0.07 0.011-0.142 0.018-0.072 8e-3 -0.071 6e-3 -0.072 6e-3 -0.072 4e-3 -0.072 3e-3 -0.073 1e-3 -0.072 1e-3h-2e-3l-0.072-1e-3 -0.073-1e-3 -0.072-3e-3 -0.072-4e-3 -0.072-6e-3 -0.071-6e-3 -0.072-8e-3 -0.142-0.018-0.07-0.011-0.071-0.013-0.07-0.013-0.069-0.014-0.07-0.016-0.069-0.016-0.068-0.018-0.136-0.038-0.068-0.021-0.067-0.022-0.067-0.023-0.066-0.024-0.066-0.025-0.13-0.054-0.065-0.028-0.064-0.029-0.064-0.03-0.063-0.031-0.124-0.066-0.062-0.034-0.061-0.035-0.06-0.036-0.06-0.037-0.059-0.038-0.058-0.039-0.058-0.04-0.058-0.041-0.056-0.042-0.057-0.042-0.11-0.088-0.054-0.046-0.053-0.046-0.053-0.047-0.052-0.048-0.051-0.049-0.05-0.05-0.05-0.051-0.049-0.051-0.096-0.106-0.046-0.054-0.046-0.055-0.045-0.055-0.044-0.057-0.043-0.057-0.042-0.058-0.042-0.059-0.04-0.059-0.04-0.061-0.039-0.061-0.038-0.062-0.805-1.343-0.017-0.029-0.016-0.029-0.015-0.03-0.013-0.031-0.013-0.03-0.012-0.031-0.01-0.032-9e-3 -0.031-9e-3 -0.032-7e-3 -0.032-0.012-0.064-4e-3 -0.033-3e-3 -0.032-2e-3 -0.033-1e-3 -0.032v-0.033l2e-3 -0.033 2e-3 -0.032 3e-3 -0.033 0.01-0.064 6e-3 -0.033 8e-3 -0.032 9e-3 -0.031 9e-3 -0.032 0.011-0.031 0.012-0.031 0.013-0.031 0.014-0.03 0.015-0.03 0.016-0.03 0.017-0.029 0.018-0.028 0.019-0.028 0.02-0.027 0.02-0.026 0.021-0.025 0.022-0.024 0.023-0.024 0.024-0.023 0.024-0.022 0.025-0.022 0.025-0.02 0.027-0.02 0.026-0.018 0.028-0.018 0.028-0.017 0.028-0.016 0.029-0.015 0.029-0.014 0.03-0.013 0.031-0.012 0.03-0.011 0.032-0.011 0.031-9e-3 0.032-8e-3 0.032-7e-3 0.033-6e-3 0.033-5e-3 0.033-4e-3 0.033-3e-3 0.033-1e-3 0.034-1e-3h7.468zm-7.459 1h-9e-3l5e-3 7e-3 0.799 1.332 0.031 0.051 0.03 0.048 0.031 0.047 0.031 0.046 0.032 0.045 0.033 0.045 0.033 0.044 0.035 0.044 0.034 0.043 0.072 0.084 0.036 0.041 0.037 0.041 0.038 0.04 0.039 0.039 0.078 0.076 0.04 0.037 0.041 0.037 0.041 0.036 0.042 0.035 0.043 0.034 0.042 0.034 0.044 0.033 0.088 0.064 0.045 0.031 0.045 0.03 0.092 0.058 0.047 0.028 0.047 0.027 0.096 0.052 0.048 0.025 0.049 0.024 0.049 0.023 0.05 0.023 0.049 0.022 0.051 0.021 0.05 0.02 0.051 0.019 0.052 0.019 0.051 0.018 0.052 0.017 0.052 0.016 0.106 0.03 0.106 0.026 0.054 0.012 0.053 0.011 0.055 0.01 0.054 0.01 0.054 8e-3 0.055 8e-3 0.055 7e-3 0.055 6e-3 0.056 5e-3 0.055 4e-3 0.056 3e-3 0.112 4e-3h0.057 0.057l0.112-4e-3 0.056-3e-3 0.055-4e-3 0.056-5e-3 0.055-6e-3 0.055-7e-3 0.055-8e-3 0.054-8e-3 0.054-0.01 0.055-0.01 0.053-0.011 0.054-0.012 0.106-0.026 0.106-0.03 0.052-0.016 0.052-0.017 0.051-0.018 0.052-0.019 0.051-0.019 0.05-0.02 0.051-0.021 0.049-0.022 0.05-0.023 0.049-0.023 0.049-0.024 0.048-0.025 0.096-0.052 0.047-0.027 0.047-0.028 0.092-0.058 0.045-0.03 0.045-0.031 0.088-0.064 0.044-0.033 0.042-0.034 0.043-0.034 0.042-0.035 0.041-0.036 0.041-0.037 0.04-0.037 0.078-0.076 0.039-0.039 0.038-0.04 0.037-0.041 0.036-0.041 0.072-0.084 0.034-0.043 0.035-0.044 0.033-0.044 0.033-0.045 0.032-0.045 0.031-0.046 0.031-0.047 0.03-0.048 0.031-0.051 0.799-1.332 5e-3 -7e-3h-9e-3 -7.45z"/></g></g></svg>
