<?xml version="1.0" encoding="UTF-8"?>
<!DOCTYPE svg  PUBLIC '-//W3C//DTD SVG 1.1//EN'  'http://www.w3.org/Graphics/SVG/1.1/DTD/svg11.dtd'>
<svg clip-rule="evenodd" fill-rule="evenodd" stroke-linecap="round" stroke-linejoin="round" stroke-miterlimit="1.5" version="1.1" viewBox="0 0 32 32" xml:space="preserve" xmlns="http://www.w3.org/2000/svg"><rect id="ferris_question" width="32" height="32" fill="none"/><clipPath id="_clip1"><rect width="32" height="32"/></clipPath><g clip-path="url(#_clip1)"><g id="Layer1"><path d="m2 11v-3.719c0-0.308 0.142-0.599 0.385-0.788 0.242-0.19 0.559-0.257 0.858-0.182 0.544 0.136 1.177 0.294 1.699 0.425 0.631 0.157 1.291-0.109 1.636-0.661 0.42-0.671 0.984-1.574 1.392-2.227 0.141-0.225 0.365-0.385 0.623-0.444 0.259-0.06 0.53-0.015 0.755 0.126 0.625 0.391 1.479 0.924 2.14 1.338 0.592 0.37 1.362 0.282 1.856-0.212l1.949-1.949c0.39-0.39 1.024-0.39 1.414 0l1.949 1.949c0.494 0.494 1.264 0.582 1.856 0.212 0.661-0.414 1.515-0.947 2.14-1.338 0.091-0.057 0.189-0.098 0.291-0.123 0.729-0.861 1.819-1.407 3.035-1.407h0.044c2.197 0 3.978 1.781 3.978 3.978v0.137c0 0.264-0.027 0.524-0.078 0.779 0.051 0.121 0.078 0.252 0.078 0.387v15.719s-1.678 0.599-3.873 1.383c-2.996 1.07-6.119 1.651-9.252 1.742l1.125 1.875s-1.966 0.59-4.155 1.247c-3.511 1.053-7.307-0.196-9.506-3.129-1.25-1.666-2.339-3.118-2.339-3.118v-12zm24.99-4.249c7e-3 -0.041 0.01-0.082 0.01-0.123v-0.603c0-0.272-0.108-0.533-0.3-0.725s-0.453-0.3-0.725-0.3h-1e-3c-0.258 0-0.506 0.103-0.689 0.285-0.078 0.079-0.142 0.17-0.189 0.268l0.326 0.522c0.332 0.532 0.958 0.799 1.568 0.676z" fill="none" stroke="#000" stroke-width="4px"/><rect x="24" y="4" width="4" height="4"/></g><g id="emoji"><path d="m11.488 4.868c0.592 0.37 1.362 0.282 1.856-0.212l1.949-1.949c0.39-0.39 1.024-0.39 1.414 0l1.949 1.949c0.494 0.494 1.264 0.582 1.856 0.212 0.661-0.414 1.515-0.947 2.14-1.338 0.225-0.141 0.496-0.186 0.755-0.126 0.258 0.059 0.482 0.219 0.623 0.444 0.408 0.653 0.972 1.556 1.392 2.227 0.345 0.552 1.005 0.818 1.636 0.661 0.522-0.131 1.155-0.289 1.699-0.425 0.299-0.075 0.616-8e-3 0.858 0.182 0.243 0.189 0.385 0.48 0.385 0.788v15.719s-1.678 0.599-3.873 1.383c-2.28 0.815-4.634 1.345-7.01 1.593-1.29 0.134-4.273-1.06-6.437-1.403-5.295-0.84-10.68-1.573-10.68-1.573v-12-3.719c0-0.308 0.142-0.599 0.385-0.788 0.242-0.19 0.559-0.257 0.858-0.182 0.544 0.136 1.177 0.294 1.699 0.425 0.631 0.157 1.291-0.109 1.636-0.661 0.42-0.671 0.984-1.574 1.392-2.227 0.141-0.225 0.365-0.385 0.623-0.444 0.259-0.06 0.53-0.015 0.755 0.126 0.625 0.391 1.479 0.924 2.14 1.338z" fill="#ec7235"/><path d="m2 16h28v7s-1.678 0.599-3.873 1.383c-6.549 2.339-13.705 2.339-20.254 0-2.195-0.784-3.873-1.383-3.873-1.383v-7z" fill="none"/><clipPath id="_clip2"><path d="m2 16h28v7s-1.678 0.599-3.873 1.383c-6.549 2.339-13.705 2.339-20.254 0-2.195-0.784-3.873-1.383-3.873-1.383v-7z"/></clipPath><g clip-path="url(#_clip2)"><path d="m18 28s-0.54-0.9-1.162-1.936c-1.117-1.863-3.228-2.89-5.383-2.621-2.14 0.268-4.455 0.557-4.455 0.557l-5-4v3s1.089 1.452 2.339 3.118c2.199 2.933 5.995 4.182 9.506 3.129 2.189-0.657 4.155-1.247 4.155-1.247z" fill="none" stroke="#a53a0c" stroke-linecap="square" stroke-linejoin="miter" stroke-miterlimit="3" stroke-width="4px"/></g><path d="m17.488 27.146 0.512 0.854s-1.966 0.59-4.155 1.247c-3.511 1.053-7.307-0.196-9.506-3.129-1.25-1.666-2.339-3.118-2.339-3.118v-3l5 4s2.315-0.289 4.455-0.557c2.155-0.269 4.266 0.758 5.383 2.621l0.108 0.18-0.397 0.662 0.939 0.24z" fill="#ec7235"/><path d="m17.488 27.146-3.022 0.864c-2.065 0.59-4.274-0.222-5.465-2.009l-1e-3 -1e-3s0.17-0.085 0.411-0.206c1.004-0.501 2.181-0.516 3.197-0.039 0.565 0.265 1.162 0.545 1.58 0.741 0.356 0.167 0.758 0.21 1.142 0.121l1.616-0.373 0.542 0.902z" fill="#b54b12"/><path d="m26 12c0.828 0 1.5 0.672 1.5 1.5s-0.672 1.5-1.5 1.5-1.5-0.672-1.5-1.5 0.672-1.5 1.5-1.5zm-3.5-5c-0.133 0-0.26-0.053-0.354-0.146-0.093-0.094-0.146-0.221-0.146-0.354v-0.522c0-2.197 1.781-3.978 3.978-3.978h0.044c2.197 0 3.978 1.781 3.978 3.978v0.137c0 1.191-0.542 2.318-1.472 3.063-0.281 0.224-0.546 0.437-0.737 0.589-0.184 0.147-0.291 0.37-0.291 0.606v0.127c0 0.133-0.053 0.26-0.146 0.354-0.094 0.093-0.221 0.146-0.354 0.146h-2.167c-0.184 0-0.333-0.149-0.333-0.333v-1e-3c0-1.053 0.479-2.049 1.301-2.707 0.342-0.273 0.679-0.543 0.908-0.726 0.184-0.147 0.291-0.37 0.291-0.605v-0.603c0-0.272-0.108-0.533-0.3-0.725s-0.453-0.3-0.725-0.3h-1e-3c-0.258 0-0.506 0.103-0.689 0.285-0.182 0.183-0.285 0.431-0.285 0.689v0.869c0 0.042-0.017 0.082-0.046 0.111s-0.069 0.046-0.111 0.046h-2.343z" fill="#fff"/><path d="m22.255 13.515c-1.848-0.673-3.341 0.344-3.958 1.711-0.748 1.658-0.922 3.066-0.321 4.227 0.661 1.276 2.001 2.066 3.353 1.745 1.827-0.434 2.473-1.343 2.831-3.372 0.357-2.029-0.279-3.72-1.905-4.311z"/><path d="m10.93 11.518c-1.849-0.673-3.341 0.344-3.958 1.711-0.748 1.658-0.922 3.066-0.321 4.227 0.661 1.276 2.001 2.066 3.353 1.745 1.827-0.434 2.473-1.343 2.83-3.372 0.358-2.029-0.279-3.72-1.904-4.311z"/><path d="m21.587 15.14c0.058-0.327-0.017-0.663-0.207-0.935-0.19-0.271-0.48-0.456-0.807-0.514-0.326-0.057-0.662 0.017-0.934 0.208-0.272 0.19-0.456 0.48-0.514 0.806-0.055 0.314-0.115 0.65-0.17 0.963-0.057 0.327 0.017 0.663 0.207 0.934 0.19 0.272 0.481 0.457 0.807 0.514 0.327 0.058 0.663-0.017 0.934-0.207 0.272-0.19 0.457-0.48 0.514-0.807 0.055-0.313 0.115-0.649 0.17-0.962z" fill="#e5e5e5"/><path d="m10.262 13.141c0.058-0.326-0.017-0.662-0.207-0.933s-0.479-0.456-0.805-0.513c-1e-3 0-2e-3 0-2e-3 -1e-3 -0.327-0.057-0.663 0.017-0.934 0.208-0.272 0.19-0.457 0.48-0.514 0.806-0.056 0.314-0.115 0.65-0.17 0.963-0.058 0.327 0.017 0.663 0.207 0.934 0.19 0.272 0.48 0.457 0.807 0.514 0.326 0.058 0.662-0.017 0.934-0.207 0.271-0.19 0.456-0.48 0.514-0.807 0.055-0.313 0.115-0.651 0.17-0.964z" fill="#e5e5e5"/></g></g></svg>
