<?xml version="1.0" encoding="UTF-8"?>
<!DOCTYPE svg  PUBLIC '-//W3C//DTD SVG 1.1//EN'  'http://www.w3.org/Graphics/SVG/1.1/DTD/svg11.dtd'>
<svg clip-rule="evenodd" fill-rule="evenodd" stroke-linecap="round" stroke-linejoin="round" stroke-miterlimit="1.5" version="1.1" viewBox="0 0 32 32" xml:space="preserve" xmlns="http://www.w3.org/2000/svg"><rect id="ferris" width="32" height="32" fill="none"/><clipPath id="_clip1"><rect width="32" height="32"/></clipPath><g clip-path="url(#_clip1)"><g id="Layer1"><path d="m2 7.281c0-0.308 0.142-0.599 0.385-0.788 0.242-0.19 0.559-0.257 0.858-0.182 0.544 0.136 1.177 0.294 1.699 0.425 0.631 0.157 1.291-0.109 1.636-0.661 0.42-0.671 0.984-1.574 1.392-2.227 0.141-0.225 0.365-0.385 0.623-0.444 0.259-0.06 0.53-0.015 0.755 0.126 0.625 0.391 1.479 0.924 2.14 1.338 0.592 0.37 1.362 0.282 1.856-0.212l1.949-1.949c0.39-0.39 1.024-0.39 1.414 0l1.949 1.949c0.494 0.494 1.264 0.582 1.856 0.212 0.661-0.414 1.515-0.947 2.14-1.338 0.225-0.141 0.496-0.186 0.755-0.126 0.258 0.059 0.482 0.219 0.623 0.444 0.408 0.653 0.972 1.556 1.392 2.227 0.345 0.552 1.005 0.818 1.636 0.661 0.522-0.131 1.155-0.289 1.699-0.425 0.299-0.075 0.616-8e-3 0.858 0.182 0.243 0.189 0.385 0.48 0.385 0.788v15.719c0 3.866-3.134 7-7 7h-3v-1.158c0-1.152 0.357-2.229 0.972-3.118-3.291 0.551-6.653 0.551-9.944 0 0.615 0.889 0.972 1.966 0.972 3.118v1.158h-3c-3.866 0-7-3.134-7-7v-15.719z" fill="none" stroke="#000" stroke-width="4px"/></g><g id="emoji"><path d="m2 19v-11.719c0-0.308 0.142-0.599 0.385-0.788 0.242-0.19 0.559-0.257 0.858-0.182 0.544 0.136 1.177 0.294 1.699 0.425 0.631 0.157 1.291-0.109 1.636-0.661 0.42-0.671 0.984-1.574 1.392-2.227 0.141-0.225 0.365-0.385 0.623-0.444 0.259-0.06 0.53-0.015 0.755 0.126 0.625 0.391 1.479 0.924 2.14 1.338 0.592 0.37 1.362 0.282 1.856-0.212l1.949-1.949c0.39-0.39 1.024-0.39 1.414 0l1.949 1.949c0.494 0.494 1.264 0.582 1.856 0.212 0.661-0.414 1.515-0.947 2.14-1.338 0.225-0.141 0.496-0.186 0.755-0.126 0.258 0.059 0.482 0.219 0.623 0.444 0.408 0.653 0.972 1.556 1.392 2.227 0.345 0.552 1.005 0.818 1.636 0.661 0.522-0.131 1.155-0.289 1.699-0.425 0.299-0.075 0.616-8e-3 0.858 0.182 0.243 0.189 0.385 0.48 0.385 0.788v11.719l-1.514 4.541-2.359-0.158c-1.68 0.6-7.577 2.646-7.579 2.646-1.696 0.144-3.401 0.144-5.096 0-4e-3 0-5.896-2.045-7.579-2.646l-2.359 0.158-1.514-4.541z" fill="#ec7235"/><path d="m2 19v-8.719h28v8.719l-1.514 4.541-2.359 0.842c-6.549 2.339-13.705 2.339-20.254 0l-2.359-0.842-1.514-4.541z" fill="none"/><clipPath id="_clip2"><path d="m2 19v-8.719h28v8.719l-1.514 4.541-2.359 0.842c-6.549 2.339-13.705 2.339-20.254 0l-2.359-0.842-1.514-4.541z"/></clipPath><g clip-path="url(#_clip2)" fill="none" stroke="#a53a0c" stroke-linecap="square" stroke-width="4px"><path d="m20 30v-1.158c0-2.766 2.06-5.099 4.804-5.443 1.699-0.212 3.196-0.399 3.196-0.399l4-8v8c0 1.857-0.738 3.637-2.05 4.95-1.313 1.313-3.093 2.05-4.95 2.05h-5z"/><path d="m12 30v-1.158c0-2.766-2.06-5.099-4.804-5.443-1.699-0.212-3.196-0.399-3.196-0.399l-4-8v8c0 1.857 0.738 3.637 2.05 4.95 1.313 1.313 3.093 2.05 4.95 2.05h5z"/></g><path d="m20.064 28c0.369-2.385 2.279-4.293 4.74-4.601 1.699-0.212 3.196-0.399 3.196-0.399l2-4v4c0 3.866-3.134 7-7 7h-3v-1l0.481-0.585-0.417-0.415z" fill="#ec7235"/><path d="m20.064 28h0.208c0.466 0 0.913-0.185 1.243-0.515l1.411-1.411c0.688-0.688 1.62-1.074 2.592-1.074h0.482s-0.233 0.467-0.541 1.081c-0.894 1.789-2.722 2.919-4.722 2.919h-0.737v-0.158c0-0.286 0.022-0.567 0.064-0.842z" fill="#b54b12"/><path d="m11.936 28c-0.369-2.385-2.279-4.293-4.74-4.601-1.699-0.212-3.196-0.399-3.196-0.399l-2-4v4c0 3.866 3.134 7 7 7h3v-1l-0.481-0.585 0.417-0.415z" fill="#ec7235"/><path d="m11.936 28h-0.208c-0.466 0-0.913-0.185-1.243-0.515l-1.411-1.411c-0.688-0.688-1.62-1.074-2.592-1.074h-0.482s0.233 0.467 0.541 1.081c0.894 1.789 2.722 2.919 4.722 2.919h0.737v-0.158c0-0.286-0.022-0.567-0.064-0.842z" fill="#b54b12"/><path d="m22.376 13.056c-1.937-0.341-3.231 0.919-3.601 2.373-0.448 1.763-0.375 3.18 0.418 4.218 0.872 1.142 2.33 1.688 3.605 1.137 1.724-0.745 2.202-1.752 2.202-3.813 0-2.06-0.921-3.614-2.624-3.915z"/><path d="m10.876 13.056c-1.937-0.341-3.231 0.919-3.601 2.373-0.448 1.763-0.375 3.18 0.418 4.218 0.872 1.142 2.33 1.688 3.605 1.137 1.724-0.745 2.202-1.752 2.202-3.813 0-2.06-0.921-3.614-2.624-3.915z"/><path d="m22 14.77c0-0.331-0.131-0.648-0.366-0.882-0.234-0.234-0.551-0.366-0.882-0.366h-4e-3c-0.331 0-0.648 0.132-0.882 0.366-0.235 0.234-0.366 0.551-0.366 0.882v0.982c0 0.331 0.131 0.648 0.366 0.882 0.234 0.235 0.551 0.366 0.882 0.366h4e-3c0.331 0 0.648-0.131 0.882-0.366 0.235-0.234 0.366-0.551 0.366-0.882v-0.982z" fill="#e5e5e5"/><path d="m10.5 14.77c0-0.331-0.131-0.648-0.366-0.882-0.234-0.234-0.551-0.366-0.882-0.366h-4e-3c-0.331 0-0.648 0.132-0.882 0.366-0.235 0.234-0.366 0.551-0.366 0.882v0.982c0 0.331 0.131 0.648 0.366 0.882 0.234 0.235 0.551 0.366 0.882 0.366h4e-3c0.331 0 0.648-0.131 0.882-0.366 0.235-0.234 0.366-0.551 0.366-0.882v-0.982z" fill="#e5e5e5"/></g></g></svg>
