<?xml version="1.0" encoding="UTF-8" standalone="no"?><!DOCTYPE svg PUBLIC "-//W3C//DTD SVG 1.1//EN" "http://www.w3.org/Graphics/SVG/1.1/DTD/svg11.dtd"><svg width="100%" height="100%" viewBox="0 0 32 32" version="1.1" xmlns="http://www.w3.org/2000/svg" xmlns:xlink="http://www.w3.org/1999/xlink" xml:space="preserve" xmlns:serif="http://www.serif.com/" style="fill-rule:evenodd;clip-rule:evenodd;stroke-linecap:round;stroke-linejoin:round;stroke-miterlimit:3;"><rect id="unsafe_ferris" x="0" y="0" width="32" height="32" style="fill:none;"/><clipPath id="_clip1"><rect x="0" y="0" width="32" height="32"/></clipPath><g clip-path="url(#_clip1)"><g id="Layer1"><path d="M17.054,2.955c-0.063,-0.534 -0.516,-0.937 -1.054,-0.937c-0.538,0 -0.991,0.403 -1.054,0.937c-0.481,4.093 -0.946,8.045 -0.946,8.045c0,0 -1.902,-4.122 -3.565,-7.724c-0.214,-0.465 -0.731,-0.71 -1.227,-0.582c-0.496,0.127 -0.83,0.591 -0.794,1.102c0.275,3.852 0.586,8.204 0.586,8.204c0,0 -1.976,-2.964 -3.963,-5.945c-0.293,-0.438 -0.862,-0.596 -1.338,-0.37c-0.476,0.226 -0.714,0.767 -0.559,1.27c0.951,3.092 1.86,6.045 1.86,6.045l-3,-1.875l0,14.875c0,0 0,0 0.001,0.001c8.674,4.956 19.324,4.956 27.998,0c0.001,-0.001 0.001,-0.001 0.001,-0.001l0,-15l-3,2c0,0 0.909,-2.953 1.86,-6.045c0.155,-0.503 -0.083,-1.044 -0.559,-1.27c-0.476,-0.226 -1.045,-0.068 -1.338,0.37c-1.987,2.981 -3.963,5.945 -3.963,5.945c0,0 0.311,-4.352 0.586,-8.204c0.036,-0.511 -0.298,-0.975 -0.794,-1.102c-0.496,-0.128 -1.013,0.117 -1.227,0.582c-1.663,3.602 -3.565,7.724 -3.565,7.724c0,0 -0.465,-3.952 -0.946,-8.045Z" style="fill:none;stroke:#000;stroke-width:4px;"/></g><g id="emoji"><path d="M17.054,2.955c-0.063,-0.534 -0.516,-0.937 -1.054,-0.937c-0.538,0 -0.991,0.403 -1.054,0.937c-0.481,4.093 -0.946,8.045 -0.946,8.045c0,0 -1.902,-4.122 -3.565,-7.724c-0.214,-0.465 -0.731,-0.71 -1.227,-0.582c-0.496,0.127 -0.83,0.591 -0.794,1.102c0.275,3.852 0.586,8.204 0.586,8.204c0,0 -1.976,-2.964 -3.963,-5.945c-0.293,-0.438 -0.862,-0.596 -1.338,-0.37c-0.476,0.226 -0.714,0.767 -0.559,1.27c0.951,3.092 1.86,6.045 1.86,6.045l-3,-1.875l0,14.875c0,0 0,0 0.001,0.001c8.674,4.956 19.324,4.956 27.998,0c0.001,-0.001 0.001,-0.001 0.001,-0.001l0,-15l-3,2c0,0 0.909,-2.953 1.86,-6.045c0.155,-0.503 -0.083,-1.044 -0.559,-1.27c-0.476,-0.226 -1.045,-0.068 -1.338,0.37c-1.987,2.981 -3.963,5.945 -3.963,5.945c0,0 0.311,-4.352 0.586,-8.204c0.036,-0.511 -0.298,-0.975 -0.794,-1.102c-0.496,-0.128 -1.013,0.117 -1.227,0.582c-1.663,3.602 -3.565,7.724 -3.565,7.724c0,0 -0.465,-3.952 -0.946,-8.045Z" style="fill:#a22f26;"/><g><path d="M22.376,17.056c-1.937,-0.341 -3.231,0.919 -3.601,2.373c-0.448,1.763 -0.375,3.18 0.418,4.218c0.872,1.142 2.33,1.688 3.605,1.137c1.724,-0.745 2.202,-1.752 2.202,-3.813c0,-2.06 -0.921,-3.614 -2.624,-3.915Z"/><path d="M10.876,17.056c-1.937,-0.341 -3.231,0.919 -3.601,2.373c-0.448,1.763 -0.375,3.18 0.418,4.218c0.872,1.142 2.33,1.688 3.605,1.137c1.724,-0.745 2.202,-1.752 2.202,-3.813c0,-2.06 -0.921,-3.614 -2.624,-3.915Z"/><path d="M22,18.772c0,-0.331 -0.132,-0.649 -0.366,-0.883c-0.235,-0.235 -0.552,-0.367 -0.884,-0.367c-0.332,0 -0.649,0.132 -0.884,0.367c-0.234,0.234 -0.366,0.552 -0.366,0.883c0,0.318 0,0.66 0,0.978c0,0.332 0.132,0.649 0.366,0.884c0.235,0.234 0.552,0.366 0.884,0.366c0.332,0 0.649,-0.132 0.884,-0.366c0.234,-0.235 0.366,-0.552 0.366,-0.884c0,-0.318 0,-0.66 0,-0.978Z" style="fill:#e5e5e5;"/><path d="M10.5,18.772c0,-0.331 -0.132,-0.649 -0.366,-0.883c-0.235,-0.235 -0.552,-0.367 -0.884,-0.367c-0.332,0 -0.649,0.132 -0.884,0.367c-0.234,0.234 -0.366,0.552 -0.366,0.883c0,0.318 0,0.66 0,0.978c0,0.332 0.132,0.649 0.366,0.884c0.235,0.234 0.552,0.366 0.884,0.366c0.332,0 0.649,-0.132 0.884,-0.366c0.234,-0.235 0.366,-0.552 0.366,-0.884c0,-0.318 0,-0.66 0,-0.978Z" style="fill:#e5e5e5;"/></g></g></g></svg>