<?xml version="1.0" encoding="UTF-8"?>
<!DOCTYPE svg  PUBLIC '-//W3C//DTD SVG 1.1//EN'  'http://www.w3.org/Graphics/SVG/1.1/DTD/svg11.dtd'>
<svg clip-rule="evenodd" fill-rule="evenodd" stroke-linecap="round" stroke-linejoin="round" stroke-miterlimit="3" version="1.1" viewBox="0 0 32 32" xml:space="preserve" xmlns="http://www.w3.org/2000/svg"><rect id="unsafe_ferris" width="32" height="32" fill="none"/><clipPath id="_clip1"><rect width="32" height="32"/></clipPath><g clip-path="url(#_clip1)"><g id="Layer1"><path d="m17.054 2.955c-0.063-0.534-0.516-0.937-1.054-0.937s-0.991 0.403-1.054 0.937c-0.481 4.093-0.946 8.045-0.946 8.045s-1.902-4.122-3.565-7.724c-0.214-0.465-0.731-0.71-1.227-0.582-0.496 0.127-0.83 0.591-0.794 1.102 0.275 3.852 0.586 8.204 0.586 8.204s-1.976-2.964-3.963-5.945c-0.293-0.438-0.862-0.596-1.338-0.37s-0.714 0.767-0.559 1.27c0.951 3.092 1.86 6.045 1.86 6.045l-3-1.875v14.875l1e-3 1e-3c8.674 4.956 19.324 4.956 27.998 0l1e-3 -1e-3v-15l-3 2s0.909-2.953 1.86-6.045c0.155-0.503-0.083-1.044-0.559-1.27s-1.045-0.068-1.338 0.37c-1.987 2.981-3.963 5.945-3.963 5.945s0.311-4.352 0.586-8.204c0.036-0.511-0.298-0.975-0.794-1.102-0.496-0.128-1.013 0.117-1.227 0.582-1.663 3.602-3.565 7.724-3.565 7.724s-0.465-3.952-0.946-8.045z" fill="none" stroke="#000" stroke-width="4px"/></g><g id="emoji"><path d="m17.054 2.955c-0.063-0.534-0.516-0.937-1.054-0.937s-0.991 0.403-1.054 0.937c-0.481 4.093-0.946 8.045-0.946 8.045s-1.902-4.122-3.565-7.724c-0.214-0.465-0.731-0.71-1.227-0.582-0.496 0.127-0.83 0.591-0.794 1.102 0.275 3.852 0.586 8.204 0.586 8.204s-1.976-2.964-3.963-5.945c-0.293-0.438-0.862-0.596-1.338-0.37s-0.714 0.767-0.559 1.27c0.951 3.092 1.86 6.045 1.86 6.045l-3-1.875v14.875l1e-3 1e-3c8.674 4.956 19.324 4.956 27.998 0l1e-3 -1e-3v-15l-3 2s0.909-2.953 1.86-6.045c0.155-0.503-0.083-1.044-0.559-1.27s-1.045-0.068-1.338 0.37c-1.987 2.981-3.963 5.945-3.963 5.945s0.311-4.352 0.586-8.204c0.036-0.511-0.298-0.975-0.794-1.102-0.496-0.128-1.013 0.117-1.227 0.582-1.663 3.602-3.565 7.724-3.565 7.724s-0.465-3.952-0.946-8.045z" fill="#a22f26"/><path d="m22.376 17.056c-1.937-0.341-3.231 0.919-3.601 2.373-0.448 1.763-0.375 3.18 0.418 4.218 0.872 1.142 2.33 1.688 3.605 1.137 1.724-0.745 2.202-1.752 2.202-3.813 0-2.06-0.921-3.614-2.624-3.915z"/><path d="m10.876 17.056c-1.937-0.341-3.231 0.919-3.601 2.373-0.448 1.763-0.375 3.18 0.418 4.218 0.872 1.142 2.33 1.688 3.605 1.137 1.724-0.745 2.202-1.752 2.202-3.813 0-2.06-0.921-3.614-2.624-3.915z"/><path d="m22 18.772c0-0.331-0.132-0.649-0.366-0.883-0.235-0.235-0.552-0.367-0.884-0.367s-0.649 0.132-0.884 0.367c-0.234 0.234-0.366 0.552-0.366 0.883v0.978c0 0.332 0.132 0.649 0.366 0.884 0.235 0.234 0.552 0.366 0.884 0.366s0.649-0.132 0.884-0.366c0.234-0.235 0.366-0.552 0.366-0.884v-0.978z" fill="#e5e5e5"/><path d="m10.5 18.772c0-0.331-0.132-0.649-0.366-0.883-0.235-0.235-0.552-0.367-0.884-0.367s-0.649 0.132-0.884 0.367c-0.234 0.234-0.366 0.552-0.366 0.883v0.978c0 0.332 0.132 0.649 0.366 0.884 0.235 0.234 0.552 0.366 0.884 0.366s0.649-0.132 0.884-0.366c0.234-0.235 0.366-0.552 0.366-0.884v-0.978z" fill="#e5e5e5"/></g></g></svg>
