<?xml version="1.0" encoding="UTF-8"?>
<!DOCTYPE svg  PUBLIC '-//W3C//DTD SVG 1.1//EN'  'http://www.w3.org/Graphics/SVG/1.1/DTD/svg11.dtd'>
<svg clip-rule="evenodd" fill-rule="evenodd" stroke-linecap="round" stroke-linejoin="round" stroke-miterlimit="1.5" version="1.1" viewBox="0 0 32 32" xml:space="preserve" xmlns="http://www.w3.org/2000/svg">
<metadata>
<rdf:RDF xmlns:cc="http://web.resource.org/cc/" xmlns:dc="http://purl.org/dc/elements/1.1/" xmlns:rdf="http://www.w3.org/1999/02/22-rdf-syntax-ns#">

     <rdf:Description rdf:about="">
       <dc:title>Mutant Standard emoji 2023.12</dc:title>
     </rdf:Description>

    <cc:work rdf:about="">
        <cc:license rdf:resource="http://creativecommons.org/licenses/by-nc-sa/4.0/"/>
        <cc:attributionName>Caius Nocturne</cc:attributionName>
        <cc:attributionURL>http://mutant.tech/</cc:attributionURL>
    </cc:work>

</rdf:RDF>
</metadata>

    <rect id="bridge_at_night" width="32" height="32" fill="none"/>
    <clipPath id="_clip1">
        <rect width="32" height="32"/>
    </clipPath>
    <g clip-path="url(#_clip1)">
        <g id="outline">
            <path d="m32 2c0-0.53-0.211-1.039-0.586-1.414s-0.884-0.586-1.414-0.586h-28c-0.53 0-1.039 0.211-1.414 0.586s-0.586 0.884-0.586 1.414v28c0 0.53 0.211 1.039 0.586 1.414s0.884 0.586 1.414 0.586h28c0.53 0 1.039-0.211 1.414-0.586s0.586-0.884 0.586-1.414v-28z"/>
        </g>
        <g id="emoji">
            <rect x="2" y="2" width="28" height="28" fill="#1f1c65"/>
            <rect x="2" y="2" width="28" height="28" fill="none"/>
            <clipPath id="_clip2">
                <rect x="2" y="2" width="28" height="28"/>
            </clipPath>
            <g clip-path="url(#_clip2)">
                <rect x="22" y="21" width="4" height="11" fill="#413c9b"/>
                <rect x="22" y="21" width="4" height="5" fill="#332f79"/>
                <rect x="6" y="21" width="4" height="11" fill="#413c9b"/>
                <rect x="6" y="21" width="4" height="5" fill="#332f79"/>
                <path d="m8 10v11h-2v-11h2zm18 0v11h-2v-11h2zm-12-1v12h-2v-12h2zm6 0v12h-2v-12h2z" fill="#5852bc"/>
                <clipPath id="_clip3">
                    <path d="m8 10v11h-2v-11h2zm18 0v11h-2v-11h2zm-12-1v12h-2v-12h2zm6 0v12h-2v-12h2z"/>
                </clipPath>
                <g clip-path="url(#_clip3)">
                    <path d="m-2 22s0.443-1.388 1.041-3.256c1.822-5.704 8.854-9.744 16.958-9.744h2e-3c8.104 0 15.136 4.04 16.958 9.744 0.598 1.868 1.041 3.256 1.041 3.256" fill="none" stroke="#433e9f" stroke-width="2px"/>
                </g>
                <path d="m-2 21s0.443-1.388 1.041-3.256c1.822-5.704 8.854-9.744 16.958-9.744h2e-3c8.104 0 15.136 4.04 16.958 9.744 0.598 1.868 1.041 3.256 1.041 3.256" fill="none" stroke="#5852bc" stroke-width="2px"/>
                <rect x="2" y="20" width="28" height="4" fill="#5852bc"/>
            </g>
            <rect x="2" y="20" width="28" height="1" fill="#ba8418"/>
            <g fill="#ffb648">
                <circle cx="16" cy="18" r="1"/>
                <circle cx="10" cy="18" r="1"/>
                <circle cx="4" cy="18" r="1"/>
                <circle cx="28" cy="18" r="1"/>
                <circle cx="22" cy="18" r="1"/>
            </g>
            
                <path d="m14 14v7h-2v-7h2zm6 0v7h-2v-7h2zm-12 0v7h-2v-7h2zm18 0v7h-2v-7h2z" fill="#885c03"/>
                <clipPath id="_clip4">
                    <path d="m14 14v7h-2v-7h2zm6 0v7h-2v-7h2zm-12 0v7h-2v-7h2zm18 0v7h-2v-7h2z"/>
                </clipPath>
                <g clip-path="url(#_clip4)">
                    <rect x="2" y="20" width="28" height="4" fill="#6a4802"/>
                </g>
            
        </g>
    </g>
</svg>
