<?xml version="1.0" encoding="UTF-8"?>
<!DOCTYPE svg  PUBLIC '-//W3C//DTD SVG 1.1//EN'  'http://www.w3.org/Graphics/SVG/1.1/DTD/svg11.dtd'>
<svg clip-rule="evenodd" fill-rule="evenodd" stroke-linejoin="round" stroke-miterlimit="2" version="1.1" viewBox="0 0 32 32" xml:space="preserve" xmlns="http://www.w3.org/2000/svg">
<metadata>
<rdf:RDF xmlns:cc="http://web.resource.org/cc/" xmlns:dc="http://purl.org/dc/elements/1.1/" xmlns:rdf="http://www.w3.org/1999/02/22-rdf-syntax-ns#">

     <rdf:Description rdf:about="">
       <dc:title>Mutant Standard emoji 2023.12</dc:title>
     </rdf:Description>

    <cc:work rdf:about="">
        <cc:license rdf:resource="http://creativecommons.org/licenses/by-nc-sa/4.0/"/>
        <cc:attributionName>Caius Nocturne</cc:attributionName>
        <cc:attributionURL>http://mutant.tech/</cc:attributionURL>
    </cc:work>

</rdf:RDF>
</metadata>

    <rect id="cityscape" width="32" height="32" fill="none"/>
    <clipPath id="_clip1">
        <rect width="32" height="32"/>
    </clipPath>
    <g clip-path="url(#_clip1)">
        <g id="outline">
            <path d="m32 2c0-0.53-0.211-1.039-0.586-1.414s-0.884-0.586-1.414-0.586h-28c-0.53 0-1.039 0.211-1.414 0.586s-0.586 0.884-0.586 1.414v28c0 0.53 0.211 1.039 0.586 1.414s0.884 0.586 1.414 0.586h28c0.53 0 1.039-0.211 1.414-0.586s0.586-0.884 0.586-1.414v-28z"/>
            <path d="m30 2h-28v5l3 2h23l2-2v-5z" fill="#61a5ff"/>
            <path d="m30 7h-28v3l2 13h23l3-14v-2z" fill="#4891f7"/>
            <path d="m22 22h-8l2 8h4l2-8z" fill="#3569ae"/>
            <rect x="20" y="13" width="8" height="17" fill="#20274d"/>
            <path d="m16 19h-9l2 11h7v-11z" fill="#20274d"/>
            <rect x="25" y="9" width="5" height="21" fill="#384684"/>
            <path d="m9 13-1-1h-6v18h7v-17z" fill="#384684"/>
            <path d="m2 10 2-2 4 4h1v1h-7v-1l1-0.604-1-0.396v-1z" fill="#2f3a72"/>
            <path d="m2 11 2-2 3 3h-5v-1z" fill="#242d54"/>
            <g fill="#a47d32">
                <rect x="3" y="14" width="1" height="2"/>
                <rect x="3" y="23" width="1" height="2"/>
                <rect x="7" y="14" width="1" height="2"/>
                <rect x="7" y="29" width="1" height="1"/>
                <rect x="3" y="29" width="1" height="1"/>
                <rect x="12" y="20" width="1" height="2"/>
                <rect x="10" y="26" width="1" height="2"/>
                <rect x="14" y="26" width="1" height="2"/>
                <rect x="12" y="29" width="1" height="1"/>
                <rect x="21" y="14" width="1" height="2"/>
                <rect x="23" y="17" width="1" height="2"/>
                <rect x="23" y="26" width="1" height="2"/>
                <rect x="26" y="10" width="1" height="2"/>
                <rect x="28" y="19" width="1" height="2"/>
                <rect x="26" y="22" width="1" height="2"/>
                <rect x="28" y="25" width="1" height="2"/>
                <rect x="28" y="28" width="1" height="2"/>
            </g>
        </g>
        
    </g>
</svg>
