<?xml version="1.0" encoding="UTF-8"?>
<!DOCTYPE svg  PUBLIC '-//W3C//DTD SVG 1.1//EN'  'http://www.w3.org/Graphics/SVG/1.1/DTD/svg11.dtd'>
<svg clip-rule="evenodd" fill-rule="evenodd" stroke-linejoin="round" stroke-miterlimit="2" version="1.1" viewBox="0 0 32 32" xml:space="preserve" xmlns="http://www.w3.org/2000/svg">
<metadata>
<rdf:RDF xmlns:cc="http://web.resource.org/cc/" xmlns:dc="http://purl.org/dc/elements/1.1/" xmlns:rdf="http://www.w3.org/1999/02/22-rdf-syntax-ns#">

     <rdf:Description rdf:about="">
       <dc:title>Mutant Standard emoji 2023.12</dc:title>
     </rdf:Description>

    <cc:work rdf:about="">
        <cc:license rdf:resource="http://creativecommons.org/licenses/by-nc-sa/4.0/"/>
        <cc:attributionName>Caius Nocturne</cc:attributionName>
        <cc:attributionURL>http://mutant.tech/</cc:attributionURL>
    </cc:work>

</rdf:RDF>
</metadata>

    <rect id="fireworks" width="32" height="32" fill="none"/>
    <clipPath id="_clip1">
        <rect width="32" height="32"/>
    </clipPath>
    <g clip-path="url(#_clip1)">
        <g id="outline">
            <path d="m32 2c0-0.53-0.211-1.039-0.586-1.414s-0.884-0.586-1.414-0.586h-28c-0.53 0-1.039 0.211-1.414 0.586s-0.586 0.884-0.586 1.414v28c0 0.53 0.211 1.039 0.586 1.414s0.884 0.586 1.414 0.586h28c0.53 0 1.039-0.211 1.414-0.586s0.586-0.884 0.586-1.414v-28z"/>
        </g>
        <g id="emoji">
            <rect x="2" y="2" width="28" height="28" fill="#282480"/>
            <clipPath id="_clip2">
                <rect x="2" y="2" width="28" height="28"/>
            </clipPath>
            <g clip-path="url(#_clip2)">
                <path d="m17 19c0-0.552-0.448-1-1-1s-1 0.448-1 1v12c0 0.552 0.448 1 1 1s1-0.448 1-1v-12z" fill="#b73bff"/>
                <g fill="#b73bff">
                    <path d="m7.5 26.5c0-0.133-0.053-0.26-0.146-0.354-0.094-0.093-0.221-0.146-0.354-0.146s-0.26 0.053-0.354 0.146c-0.093 0.094-0.146 0.221-0.146 0.354v2c0 0.133 0.053 0.26 0.146 0.354 0.094 0.093 0.221 0.146 0.354 0.146s0.26-0.053 0.354-0.146c0.093-0.094 0.146-0.221 0.146-0.354v-2z"/>
                    <path d="m8 28c0.133 0 0.26-0.053 0.354-0.146 0.093-0.094 0.146-0.221 0.146-0.354s-0.053-0.26-0.146-0.354c-0.094-0.093-0.221-0.146-0.354-0.146h-2c-0.133 0-0.26 0.053-0.354 0.146-0.093 0.094-0.146 0.221-0.146 0.354s0.053 0.26 0.146 0.354c0.094 0.093 0.221 0.146 0.354 0.146h2z"/>
                </g>
                <g fill="#b73bff">
                    <path d="m24.5 3.5c0-0.133-0.053-0.26-0.146-0.354-0.094-0.093-0.221-0.146-0.354-0.146s-0.26 0.053-0.354 0.146c-0.093 0.094-0.146 0.221-0.146 0.354v2c0 0.133 0.053 0.26 0.146 0.354 0.094 0.093 0.221 0.146 0.354 0.146s0.26-0.053 0.354-0.146c0.093-0.094 0.146-0.221 0.146-0.354v-2z"/>
                    <path d="m25 5c0.133 0 0.26-0.053 0.354-0.146 0.093-0.094 0.146-0.221 0.146-0.354s-0.053-0.26-0.146-0.354c-0.094-0.093-0.221-0.146-0.354-0.146h-2c-0.133 0-0.26 0.053-0.354 0.146-0.093 0.094-0.146 0.221-0.146 0.354s0.053 0.26 0.146 0.354c0.094 0.093 0.221 0.146 0.354 0.146h2z"/>
                </g>
                <g fill="#e9c6ff">
                    <path d="m27.5 22.5c0-0.133-0.053-0.26-0.146-0.354-0.094-0.093-0.221-0.146-0.354-0.146s-0.26 0.053-0.354 0.146c-0.093 0.094-0.146 0.221-0.146 0.354v2c0 0.133 0.053 0.26 0.146 0.354 0.094 0.093 0.221 0.146 0.354 0.146s0.26-0.053 0.354-0.146c0.093-0.094 0.146-0.221 0.146-0.354v-2z"/>
                    <path d="m28 24c0.133 0 0.26-0.053 0.354-0.146 0.093-0.094 0.146-0.221 0.146-0.354s-0.053-0.26-0.146-0.354c-0.094-0.093-0.221-0.146-0.354-0.146h-2c-0.133 0-0.26 0.053-0.354 0.146-0.093 0.094-0.146 0.221-0.146 0.354s0.053 0.26 0.146 0.354c0.094 0.093 0.221 0.146 0.354 0.146h2z"/>
                </g>
                <g fill="#e9c6ff">
                    <path d="m5.5 3.5c0-0.133-0.053-0.26-0.146-0.354-0.094-0.093-0.221-0.146-0.354-0.146s-0.26 0.053-0.354 0.146c-0.093 0.094-0.146 0.221-0.146 0.354v2c0 0.133 0.053 0.26 0.146 0.354 0.094 0.093 0.221 0.146 0.354 0.146s0.26-0.053 0.354-0.146c0.093-0.094 0.146-0.221 0.146-0.354v-2z"/>
                    <path d="m6 5c0.133 0 0.26-0.053 0.354-0.146 0.093-0.094 0.146-0.221 0.146-0.354s-0.053-0.26-0.146-0.354c-0.094-0.093-0.221-0.146-0.354-0.146h-2c-0.133 0-0.26 0.053-0.354 0.146-0.093 0.094-0.146 0.221-0.146 0.354s0.053 0.26 0.146 0.354c0.094 0.093 0.221 0.146 0.354 0.146h2z"/>
                </g>
            </g>
            <path d="m20.097 17.858c1.228 0.737 2.152 1.889 2.605 3.248 0.353 1.059 0.761 2.283 1.024 3.071 0.157 0.472-0.057 0.988-0.502 1.211-0.063 0.032-0.128 0.064-0.193 0.096-0.259 0.13-0.562 0.141-0.83 0.03-0.267-0.111-0.474-0.333-0.566-0.608-0.345-1.037-0.864-2.594-1.224-3.674-0.272-0.816-0.674-1.583-1.19-2.271-0.889-1.185-2.221-2.961-2.221-2.961s1.683 1.01 3.097 1.858zm-8.194 0c-1.228 0.737-2.152 1.889-2.605 3.248-0.353 1.059-0.761 2.283-1.024 3.071-0.157 0.472 0.057 0.988 0.502 1.211 0.063 0.032 0.128 0.064 0.193 0.096 0.259 0.13 0.562 0.141 0.83 0.03 0.267-0.111 0.474-0.333 0.566-0.608 0.345-1.037 0.864-2.594 1.224-3.674 0.272-0.816 0.674-1.583 1.19-2.271 0.889-1.185 2.221-2.961 2.221-2.961s-1.683 1.01-3.097 1.858zm14.221-1.296c0.58 0.29 1.11 0.672 1.569 1.131l0.307 0.307c0.552 0.552 0.552 1.448 0 2s-1.448 0.552-2 0l-0.51-0.51c-0.326-0.326-0.683-0.619-1.067-0.874-0.608-0.406-1.548-1.033-2.06-1.374-0.242-0.161-0.493-0.307-0.753-0.437l-3.61-1.805h3.348c1.086 0 2.158 0.253 3.13 0.739 0.553 0.277 1.164 0.582 1.646 0.823zm-20.248 0c-0.58 0.29-1.11 0.672-1.569 1.131l-0.307 0.307c-0.552 0.552-0.552 1.448 0 2s1.448 0.552 2 0l0.51-0.51c0.326-0.326 0.683-0.619 1.067-0.874 0.608-0.406 1.548-1.033 2.06-1.374 0.242-0.161 0.493-0.307 0.753-0.437l3.61-1.805h-3.348c-1.086 0-2.158 0.253-3.13 0.739-0.553 0.277-1.164 0.582-1.646 0.823zm16.646-4.823c0.972-0.486 2.044-0.739 3.13-0.739h2.348c0.265 0 0.52 0.105 0.707 0.293 0.188 0.187 0.293 0.442 0.293 0.707s-0.105 0.52-0.293 0.707c-0.187 0.188-0.442 0.293-0.707 0.293h-3.503c-0.331 0-0.661 0.027-0.987 0.082-1.432 0.238-5.51 0.918-5.51 0.918s2.745-1.373 4.522-2.261zm-13.044 0c-0.972-0.486-2.044-0.739-3.13-0.739h-2.348c-0.265 0-0.52 0.105-0.707 0.293-0.188 0.187-0.293 0.442-0.293 0.707s0.105 0.52 0.293 0.707c0.187 0.188 0.442 0.293 0.707 0.293h3.503c0.331 0 0.661 0.027 0.987 0.082 1.432 0.238 5.51 0.918 5.51 0.918s-2.745-1.373-4.522-2.261zm14.515-5.732c0.267-0.267 0.629-0.417 1.007-0.417s0.74 0.15 1.007 0.417l2e-3 2e-3c0.249 0.249 0.378 0.594 0.353 0.946-0.025 0.351-0.202 0.675-0.484 0.886-0.96 0.721-2.259 1.695-2.713 2.035-0.11 0.083-0.224 0.159-0.342 0.23-0.889 0.533-4.823 2.894-4.823 2.894s2.892-3.615 3.758-4.697c0.161-0.202 0.334-0.395 0.516-0.577l1.719-1.719zm-15.986 0c-0.267-0.267-0.629-0.417-1.007-0.417s-0.74 0.15-1.007 0.417l-2e-3 2e-3c-0.249 0.249-0.378 0.594-0.353 0.946 0.025 0.351 0.202 0.675 0.484 0.886 0.96 0.721 2.259 1.695 2.713 2.035 0.11 0.083 0.224 0.159 0.342 0.23 0.889 0.533 4.823 2.894 4.823 2.894s-2.892-3.615-3.758-4.697c-0.161-0.202-0.334-0.395-0.516-0.577l-1.719-1.719zm6.303-1.456c-0.078-0.393-0.322-0.733-0.668-0.934s-0.762-0.244-1.142-0.117h-1e-3c-0.389 0.13-0.708 0.415-0.88 0.787-0.173 0.372-0.185 0.799-0.032 1.18 0.395 0.987 0.894 2.235 1.181 2.953 0.154 0.386 0.348 0.754 0.579 1.1 0.572 0.859 1.653 2.48 1.653 2.48v-3.208c0-0.527-0.052-1.052-0.155-1.569-0.143-0.711-0.357-1.785-0.535-2.672zm3.38 0c0.078-0.393 0.322-0.733 0.668-0.934s0.762-0.244 1.142-0.117h1e-3c0.389 0.13 0.708 0.415 0.88 0.787 0.173 0.372 0.185 0.799 0.032 1.18-0.395 0.987-0.894 2.235-1.181 2.953-0.154 0.386-0.348 0.754-0.579 1.1-0.572 0.859-1.653 2.48-1.653 2.48v-3.208c0-0.527 0.052-1.052 0.155-1.569 0.143-0.711 0.357-1.785 0.535-2.672z" fill="#c869ff"/>
            <clipPath id="_clip3">
                <path d="m20.097 17.858c1.228 0.737 2.152 1.889 2.605 3.248 0.353 1.059 0.761 2.283 1.024 3.071 0.157 0.472-0.057 0.988-0.502 1.211-0.063 0.032-0.128 0.064-0.193 0.096-0.259 0.13-0.562 0.141-0.83 0.03-0.267-0.111-0.474-0.333-0.566-0.608-0.345-1.037-0.864-2.594-1.224-3.674-0.272-0.816-0.674-1.583-1.19-2.271-0.889-1.185-2.221-2.961-2.221-2.961s1.683 1.01 3.097 1.858zm-8.194 0c-1.228 0.737-2.152 1.889-2.605 3.248-0.353 1.059-0.761 2.283-1.024 3.071-0.157 0.472 0.057 0.988 0.502 1.211 0.063 0.032 0.128 0.064 0.193 0.096 0.259 0.13 0.562 0.141 0.83 0.03 0.267-0.111 0.474-0.333 0.566-0.608 0.345-1.037 0.864-2.594 1.224-3.674 0.272-0.816 0.674-1.583 1.19-2.271 0.889-1.185 2.221-2.961 2.221-2.961s-1.683 1.01-3.097 1.858zm14.221-1.296c0.58 0.29 1.11 0.672 1.569 1.131l0.307 0.307c0.552 0.552 0.552 1.448 0 2s-1.448 0.552-2 0l-0.51-0.51c-0.326-0.326-0.683-0.619-1.067-0.874-0.608-0.406-1.548-1.033-2.06-1.374-0.242-0.161-0.493-0.307-0.753-0.437l-3.61-1.805h3.348c1.086 0 2.158 0.253 3.13 0.739 0.553 0.277 1.164 0.582 1.646 0.823zm-20.248 0c-0.58 0.29-1.11 0.672-1.569 1.131l-0.307 0.307c-0.552 0.552-0.552 1.448 0 2s1.448 0.552 2 0l0.51-0.51c0.326-0.326 0.683-0.619 1.067-0.874 0.608-0.406 1.548-1.033 2.06-1.374 0.242-0.161 0.493-0.307 0.753-0.437l3.61-1.805h-3.348c-1.086 0-2.158 0.253-3.13 0.739-0.553 0.277-1.164 0.582-1.646 0.823zm16.646-4.823c0.972-0.486 2.044-0.739 3.13-0.739h2.348c0.265 0 0.52 0.105 0.707 0.293 0.188 0.187 0.293 0.442 0.293 0.707s-0.105 0.52-0.293 0.707c-0.187 0.188-0.442 0.293-0.707 0.293h-3.503c-0.331 0-0.661 0.027-0.987 0.082-1.432 0.238-5.51 0.918-5.51 0.918s2.745-1.373 4.522-2.261zm-13.044 0c-0.972-0.486-2.044-0.739-3.13-0.739h-2.348c-0.265 0-0.52 0.105-0.707 0.293-0.188 0.187-0.293 0.442-0.293 0.707s0.105 0.52 0.293 0.707c0.187 0.188 0.442 0.293 0.707 0.293h3.503c0.331 0 0.661 0.027 0.987 0.082 1.432 0.238 5.51 0.918 5.51 0.918s-2.745-1.373-4.522-2.261zm14.515-5.732c0.267-0.267 0.629-0.417 1.007-0.417s0.74 0.15 1.007 0.417l2e-3 2e-3c0.249 0.249 0.378 0.594 0.353 0.946-0.025 0.351-0.202 0.675-0.484 0.886-0.96 0.721-2.259 1.695-2.713 2.035-0.11 0.083-0.224 0.159-0.342 0.23-0.889 0.533-4.823 2.894-4.823 2.894s2.892-3.615 3.758-4.697c0.161-0.202 0.334-0.395 0.516-0.577l1.719-1.719zm-15.986 0c-0.267-0.267-0.629-0.417-1.007-0.417s-0.74 0.15-1.007 0.417l-2e-3 2e-3c-0.249 0.249-0.378 0.594-0.353 0.946 0.025 0.351 0.202 0.675 0.484 0.886 0.96 0.721 2.259 1.695 2.713 2.035 0.11 0.083 0.224 0.159 0.342 0.23 0.889 0.533 4.823 2.894 4.823 2.894s-2.892-3.615-3.758-4.697c-0.161-0.202-0.334-0.395-0.516-0.577l-1.719-1.719zm6.303-1.456c-0.078-0.393-0.322-0.733-0.668-0.934s-0.762-0.244-1.142-0.117h-1e-3c-0.389 0.13-0.708 0.415-0.88 0.787-0.173 0.372-0.185 0.799-0.032 1.18 0.395 0.987 0.894 2.235 1.181 2.953 0.154 0.386 0.348 0.754 0.579 1.1 0.572 0.859 1.653 2.48 1.653 2.48v-3.208c0-0.527-0.052-1.052-0.155-1.569-0.143-0.711-0.357-1.785-0.535-2.672zm3.38 0c0.078-0.393 0.322-0.733 0.668-0.934s0.762-0.244 1.142-0.117h1e-3c0.389 0.13 0.708 0.415 0.88 0.787 0.173 0.372 0.185 0.799 0.032 1.18-0.395 0.987-0.894 2.235-1.181 2.953-0.154 0.386-0.348 0.754-0.579 1.1-0.572 0.859-1.653 2.48-1.653 2.48v-3.208c0-0.527 0.052-1.052 0.155-1.569 0.143-0.711 0.357-1.785 0.535-2.672z"/>
            </clipPath>
            <g clip-path="url(#_clip3)">
                <circle cx="16" cy="14" r="9" fill="#f0c8ff"/>
            </g>
        </g>
        <path d="m17 14c0-0.552-0.448-1-1-1s-1 0.448-1 1 0.448 1 1 1 1-0.448 1-1z" fill="#b73bff"/>
    </g>
</svg>
