<?xml version="1.0" encoding="UTF-8"?>
<!DOCTYPE svg  PUBLIC '-//W3C//DTD SVG 1.1//EN'  'http://www.w3.org/Graphics/SVG/1.1/DTD/svg11.dtd'>
<svg clip-rule="evenodd" fill-rule="evenodd" stroke-linejoin="round" stroke-miterlimit="2" version="1.1" viewBox="0 0 32 32" xml:space="preserve" xmlns="http://www.w3.org/2000/svg">
<metadata>
<rdf:RDF xmlns:cc="http://web.resource.org/cc/" xmlns:dc="http://purl.org/dc/elements/1.1/" xmlns:rdf="http://www.w3.org/1999/02/22-rdf-syntax-ns#">

     <rdf:Description rdf:about="">
       <dc:title>Mutant Standard emoji 2023.12</dc:title>
     </rdf:Description>

    <cc:work rdf:about="">
        <cc:license rdf:resource="http://creativecommons.org/licenses/by-nc-sa/4.0/"/>
        <cc:attributionName>Caius Nocturne</cc:attributionName>
        <cc:attributionURL>http://mutant.tech/</cc:attributionURL>
    </cc:work>

</rdf:RDF>
</metadata>

    <rect id="foggy" width="32" height="32" fill="none"/>
    <clipPath id="_clip1">
        <rect width="32" height="32"/>
    </clipPath>
    <g clip-path="url(#_clip1)">
        <g id="outline">
            <path d="m32 2c0-0.53-0.211-1.039-0.586-1.414s-0.884-0.586-1.414-0.586h-28c-0.53 0-1.039 0.211-1.414 0.586s-0.586 0.884-0.586 1.414v28c0 0.53 0.211 1.039 0.586 1.414s0.884 0.586 1.414 0.586h28c0.53 0 1.039-0.211 1.414-0.586s0.586-0.884 0.586-1.414v-28z"/>
        </g>
        <g id="emoji">
            <rect x="2" y="2" width="28" height="28" fill="#caddfc"/>
            <clipPath id="_clip2">
                <rect x="2" y="2" width="28" height="28"/>
            </clipPath>
            <g clip-path="url(#_clip2)">
                <rect x="2" y="2" width="28" height="3" fill="#dae8fd"/>
                <path d="m22 8c0-0.265-0.105-0.52-0.293-0.707-0.187-0.188-0.442-0.293-0.707-0.293h-19v2h19c0.265 0 0.52-0.105 0.707-0.293 0.188-0.187 0.293-0.442 0.293-0.707z" fill="#accbfa"/>
                <g fill="#addad1">
                    
                        <path d="m12 18 4-12 4 12h-8z"/>
                        <rect x="15" y="16" width="2" height="5"/>
                    
                    
                        <path d="m18 18 4-12 4 12h-8z"/>
                        <rect x="21" y="16" width="2" height="5"/>
                    
                    
                        <path d="m22 18 4-12 4 12h-8z"/>
                        <rect x="25" y="16" width="2" height="5"/>
                    
                    
                        <path d="m6 18 4-12 4 12h-8z"/>
                        <rect x="9" y="16" width="2" height="5"/>
                    
                    
                        <path d="m2 18 4-12 4 12h-8z"/>
                        <rect x="5" y="16" width="2" height="5"/>
                    
                    
                        <path d="m-3 18 4-12 4 12h-8z"/>
                        <rect y="16" width="2" height="5"/>
                    
                </g>
                <path d="m-8 14s1.233-0.705 2.664-1.522c2.842-1.624 6.057-2.478 9.33-2.478h1.006l2 4h1e-3c3.236-2.589 7.257-4 11.401-4h2.598l2 4c2.561-2.561 6.035-4 9.656-4h2.344v14h-46v-10h3z" fill="#d9e7fd"/>
                <rect x="2" y="24" width="28" height="6" fill="#6fc9af"/>
                <g fill="#83c8ab">
                    
                        <path d="m7 21 5-16 5 16h-10z"/>
                        <rect x="11" y="19" width="2" height="5"/>
                    
                    
                        <path d="m15 21 5-16 5 16h-10z"/>
                        <rect x="19" y="19" width="2" height="5"/>
                    
                    
                        <path d="m23 21 5-16 5 16h-10z"/>
                        <rect x="27" y="19" width="2" height="5"/>
                    
                    
                        <path d="m-2 21 5-16 5 16h-10z"/>
                        <rect x="2" y="19" width="2" height="5"/>
                    
                </g>
                <path d="m5 23 4.382-3.13c1.703-1.216 3.743-1.87 5.836-1.87h0.355c1.487 0 2.847 0.84 3.512 2.171 0.47 0.94 0.915 1.829 0.915 1.829s1.473-1.179 2.82-2.256c1.411-1.129 3.164-1.744 4.971-1.744h3e-3c1.771 0 3.206 1.435 3.206 3.206v5.794h-29v-4h3z" fill="#e5effe"/>
            </g>
            <path d="m22 25c0-0.265-0.105-0.52-0.293-0.707-0.187-0.188-0.442-0.293-0.707-0.293h-19v2h19c0.265 0 0.52-0.105 0.707-0.293 0.188-0.187 0.293-0.442 0.293-0.707z" fill="#c8e1f6"/>
        </g>
    </g>
</svg>
