<?xml version="1.0" encoding="UTF-8"?>
<!DOCTYPE svg  PUBLIC '-//W3C//DTD SVG 1.1//EN'  'http://www.w3.org/Graphics/SVG/1.1/DTD/svg11.dtd'>
<svg clip-rule="evenodd" fill-rule="evenodd" stroke-linecap="square" stroke-linejoin="round" stroke-miterlimit="1.5" version="1.1" viewBox="0 0 32 32" xml:space="preserve" xmlns="http://www.w3.org/2000/svg">
<metadata>
<rdf:RDF xmlns:cc="http://web.resource.org/cc/" xmlns:dc="http://purl.org/dc/elements/1.1/" xmlns:rdf="http://www.w3.org/1999/02/22-rdf-syntax-ns#">

     <rdf:Description rdf:about="">
       <dc:title>Mutant Standard emoji 2023.12</dc:title>
     </rdf:Description>

    <cc:work rdf:about="">
        <cc:license rdf:resource="http://creativecommons.org/licenses/by-nc-sa/4.0/"/>
        <cc:attributionName>Caius Nocturne</cc:attributionName>
        <cc:attributionURL>http://mutant.tech/</cc:attributionURL>
    </cc:work>

</rdf:RDF>
</metadata>

    <rect id="milky_way" width="32" height="32" fill="none"/>
    <clipPath id="_clip1">
        <rect width="32" height="32"/>
    </clipPath>
    <g clip-path="url(#_clip1)">
        <g id="outline">
            <path d="m32 2c0-0.53-0.211-1.039-0.586-1.414s-0.884-0.586-1.414-0.586h-28c-0.53 0-1.039 0.211-1.414 0.586s-0.586 0.884-0.586 1.414v28c0 0.53 0.211 1.039 0.586 1.414s0.884 0.586 1.414 0.586h28c0.53 0 1.039-0.211 1.414-0.586s0.586-0.884 0.586-1.414v-28z"/>
        </g>
        <g id="emoji">
            <rect x="2" y="2" width="28" height="28" fill="#282480"/>
            <clipPath id="_clip2">
                <rect x="2" y="2" width="28" height="28"/>
            </clipPath>
            <g clip-path="url(#_clip2)">
                <path d="m20 12-0.183-0.183c-1.278-1.278-3.01-1.995-4.817-1.995s-3.539 0.717-4.817 1.995l-0.037 0.037c-1.63 1.63-2.546 3.841-2.546 6.146s0.916 4.516 2.546 6.146l1e-3 1e-3c1.817 1.817 4.283 2.838 6.853 2.838s5.036-1.021 6.853-2.838l8.147-8.147" fill="none" stroke="#4258c7" stroke-width="6px"/>
                <path d="m12 20 0.183 0.183c1.278 1.278 3.01 1.995 4.817 1.995s3.539-0.717 4.817-1.995l0.037-0.037c1.63-1.63 2.546-3.841 2.546-6.146s-0.916-4.516-2.546-6.146l-1e-3 -1e-3c-1.817-1.817-4.283-2.838-6.853-2.838s-5.036 1.021-6.853 2.838l-8.147 8.147" fill="none" stroke="#4258c7" stroke-width="6px"/>
                <rect x="9" y="10" width="14" height="13" fill="#4258c7"/>
                <path d="m20 12-0.183-0.183c-1.278-1.278-3.01-1.995-4.817-1.995s-3.539 0.717-4.817 1.995l-0.037 0.037c-1.63 1.63-2.546 3.841-2.546 6.146s0.916 4.516 2.546 6.146l1e-3 1e-3c1.817 1.817 4.283 2.838 6.853 2.838s5.036-1.021 6.853-2.838l4.147-4.147" fill="none" stroke="#98aaf1" stroke-linecap="round" stroke-width="2px"/>
                <path d="m12 20 0.183 0.183c1.278 1.278 3.01 1.995 4.817 1.995s3.539-0.717 4.817-1.995l0.037-0.037c1.63-1.63 2.546-3.841 2.546-6.146s-0.916-4.516-2.546-6.146l-1e-3 -1e-3c-1.817-1.817-4.283-2.838-6.853-2.838s-5.036 1.021-6.853 2.838l-4.147 4.147" fill="none" stroke="#98aaf1" stroke-linecap="round" stroke-width="2px"/>
                <path d="m17 19h1e-3c2.325 0 4.327-1.641 4.783-3.921 0.126-0.63 0.216-1.079 0.216-1.079" fill="none" stroke="#5a7aed" stroke-linecap="round" stroke-width="1px"/>
                <path d="m15 13h-1e-3c-2.325 0-4.327 1.641-4.783 3.921-0.126 0.63-0.216 1.079-0.216 1.079" fill="none" stroke="#5a7aed" stroke-linecap="round" stroke-width="1px"/>
                <path d="m27 14v-1.275c0-1.777-0.526-3.514-1.512-4.992-0.281-0.422-0.488-0.733-0.488-0.733" fill="none" stroke="#5a7aed" stroke-linecap="round" stroke-width="1px"/>
                <path d="m5 18v1.275c0 1.777 0.526 3.514 1.512 4.992 0.281 0.422 0.488 0.733 0.488 0.733" fill="none" stroke="#5a7aed" stroke-linecap="round" stroke-width="1px"/>
                <path d="m20 12h-2e-3c-2.121 0-4.156 0.843-5.655 2.343-1.5 1.499-2.343 3.534-2.343 5.655v2e-3c4.418 0 8-3.582 8-8v0z" fill="#f5ecbc" stroke="#c6a80e" stroke-linecap="round" stroke-width="2px"/>
            </g>
            <g fill="#e4cc43">
                <path d="m25.5 25c0-0.133-0.053-0.26-0.146-0.354-0.094-0.093-0.221-0.146-0.354-0.146s-0.26 0.053-0.354 0.146c-0.093 0.094-0.146 0.221-0.146 0.354v2c0 0.133 0.053 0.26 0.146 0.354 0.094 0.093 0.221 0.146 0.354 0.146s0.26-0.053 0.354-0.146c0.093-0.094 0.146-0.221 0.146-0.354v-2z"/>
                <path d="m26 26.5c0.133 0 0.26-0.053 0.354-0.146 0.093-0.094 0.146-0.221 0.146-0.354s-0.053-0.26-0.146-0.354c-0.094-0.093-0.221-0.146-0.354-0.146h-2c-0.133 0-0.26 0.053-0.354 0.146-0.093 0.094-0.146 0.221-0.146 0.354s0.053 0.26 0.146 0.354c0.094 0.093 0.221 0.146 0.354 0.146h2z"/>
            </g>
            <g fill="#ff92ef">
                <path d="m22 19.5c0-0.133-0.053-0.26-0.146-0.354-0.094-0.093-0.221-0.146-0.354-0.146s-0.26 0.053-0.354 0.146c-0.093 0.094-0.146 0.221-0.146 0.354v2c0 0.133 0.053 0.26 0.146 0.354 0.094 0.093 0.221 0.146 0.354 0.146s0.26-0.053 0.354-0.146c0.093-0.094 0.146-0.221 0.146-0.354v-2z"/>
                <path d="m22.5 21c0.133 0 0.26-0.053 0.354-0.146 0.093-0.094 0.146-0.221 0.146-0.354s-0.053-0.26-0.146-0.354c-0.094-0.093-0.221-0.146-0.354-0.146h-2c-0.133 0-0.26 0.053-0.354 0.146-0.093 0.094-0.146 0.221-0.146 0.354s0.053 0.26 0.146 0.354c0.094 0.093 0.221 0.146 0.354 0.146h2z"/>
            </g>
            <g fill="#ff92ef">
                <path d="m5 3.5c0-0.133-0.053-0.26-0.146-0.354-0.094-0.093-0.221-0.146-0.354-0.146s-0.26 0.053-0.354 0.146c-0.093 0.094-0.146 0.221-0.146 0.354v2c0 0.133 0.053 0.26 0.146 0.354 0.094 0.093 0.221 0.146 0.354 0.146s0.26-0.053 0.354-0.146c0.093-0.094 0.146-0.221 0.146-0.354v-2z"/>
                <path d="m5.5 5c0.133 0 0.26-0.053 0.354-0.146 0.093-0.094 0.146-0.221 0.146-0.354s-0.053-0.26-0.146-0.354c-0.094-0.093-0.221-0.146-0.354-0.146h-2c-0.133 0-0.26 0.053-0.354 0.146-0.093 0.094-0.146 0.221-0.146 0.354s0.053 0.26 0.146 0.354c0.094 0.093 0.221 0.146 0.354 0.146h2z"/>
            </g>
            <g fill="#e4cc43">
                <path d="m27 4.5c0-0.133-0.053-0.26-0.146-0.354-0.094-0.093-0.221-0.146-0.354-0.146s-0.26 0.053-0.354 0.146c-0.093 0.094-0.146 0.221-0.146 0.354v2c0 0.133 0.053 0.26 0.146 0.354 0.094 0.093 0.221 0.146 0.354 0.146s0.26-0.053 0.354-0.146c0.093-0.094 0.146-0.221 0.146-0.354v-2z"/>
                <path d="m27.5 6c0.133 0 0.26-0.053 0.354-0.146 0.093-0.094 0.146-0.221 0.146-0.354s-0.053-0.26-0.146-0.354c-0.094-0.093-0.221-0.146-0.354-0.146h-2c-0.133 0-0.26 0.053-0.354 0.146-0.093 0.094-0.146 0.221-0.146 0.354s0.053 0.26 0.146 0.354c0.094 0.093 0.221 0.146 0.354 0.146h2z"/>
            </g>
            <g fill="#e4cc43">
                <path d="m11 26c0-0.133-0.053-0.26-0.146-0.354-0.094-0.093-0.221-0.146-0.354-0.146h-1e-3c-0.276 0-0.499 0.223-0.499 0.499v2.002c0 0.276 0.223 0.499 0.499 0.499h1e-3c0.133 0 0.26-0.053 0.354-0.146 0.093-0.094 0.146-0.221 0.146-0.354v-2z"/>
                <path d="m11.5 27.5c0.133 0 0.26-0.053 0.354-0.146 0.093-0.094 0.146-0.221 0.146-0.354s-0.053-0.26-0.146-0.354c-0.094-0.093-0.221-0.146-0.354-0.146h-2c-0.133 0-0.26 0.053-0.354 0.146-0.093 0.094-0.146 0.221-0.146 0.354s0.053 0.26 0.146 0.354c0.094 0.093 0.221 0.146 0.354 0.146h2z"/>
            </g>
        </g>
    </g>
</svg>
