<?xml version="1.0" encoding="UTF-8"?>
<!DOCTYPE svg  PUBLIC '-//W3C//DTD SVG 1.1//EN'  'http://www.w3.org/Graphics/SVG/1.1/DTD/svg11.dtd'>
<svg clip-rule="evenodd" fill-rule="evenodd" stroke-linejoin="round" stroke-miterlimit="1.5" version="1.1" viewBox="0 0 32 32" xml:space="preserve" xmlns="http://www.w3.org/2000/svg">
<metadata>
<rdf:RDF xmlns:cc="http://web.resource.org/cc/" xmlns:dc="http://purl.org/dc/elements/1.1/" xmlns:rdf="http://www.w3.org/1999/02/22-rdf-syntax-ns#">

     <rdf:Description rdf:about="">
       <dc:title>Mutant Standard emoji 2023.12</dc:title>
     </rdf:Description>

    <cc:work rdf:about="">
        <cc:license rdf:resource="http://creativecommons.org/licenses/by-nc-sa/4.0/"/>
        <cc:attributionName>Caius Nocturne</cc:attributionName>
        <cc:attributionURL>http://mutant.tech/</cc:attributionURL>
    </cc:work>

</rdf:RDF>
</metadata>

    <rect id="national_park" width="32" height="32" fill="none"/>
    <clipPath id="_clip1">
        <rect width="32" height="32"/>
    </clipPath>
    <g clip-path="url(#_clip1)">
        <g id="outline">
            <path d="m32 2c0-0.53-0.211-1.039-0.586-1.414s-0.884-0.586-1.414-0.586h-28c-0.53 0-1.039 0.211-1.414 0.586s-0.586 0.884-0.586 1.414v28c0 0.53 0.211 1.039 0.586 1.414s0.884 0.586 1.414 0.586h28c0.53 0 1.039-0.211 1.414-0.586s0.586-0.884 0.586-1.414v-28z"/>
        </g>
        <g id="emoji">
            <rect x="2" y="2" width="28" height="28" fill="none"/>
            <clipPath id="_clip2">
                <rect x="2" y="2" width="28" height="28"/>
            </clipPath>
            <g clip-path="url(#_clip2)">
                <path d="m30 2h-28v7l1 1h26l1-1v-7z" fill="#409fff"/>
                <path d="m30 12.445-4 6.555h-20l-4-7v-3h28v3.445z" fill="#64b0fc"/>
                <path d="m30 17-4 7h-20l-4-7v-3h28v3z" fill="#37b1a7"/>
                <path d="m-8 12h11.342c3.058 0 6.07 0.753 8.768 2.192 4.441 2.369 10.89 5.808 10.89 5.808v14h-25l-6-22z" fill="#16977b"/>
                <path d="m34 12h-1e-3c-5.097 0-9.96 2.139-13.404 5.897-0.724 0.789-1.449 1.581-2.127 2.32-2.256 2.461-5.222 4.159-8.486 4.858-4.017 0.861-8.982 1.925-8.982 1.925v10h33v-25z" fill="#65c44f"/>
                <clipPath id="_clip3">
                    <path d="m34 12h-1e-3c-5.097 0-9.96 2.139-13.404 5.897-0.724 0.789-1.449 1.581-2.127 2.32-2.256 2.461-5.222 4.159-8.486 4.858-4.017 0.861-8.982 1.925-8.982 1.925v10h33v-25z"/>
                </clipPath>
                <g clip-path="url(#_clip3)">
                    <path d="m10 23s0.017 6e-3 0.05 0.017c5.785 1.928 10.718 5.812 13.95 10.983" fill="none" stroke="#cfc995" stroke-width="4px"/>
                </g>
                <g fill="#0c795f">
                    <path d="m10 11.5c0-0.398-0.158-0.779-0.439-1.061-0.282-0.281-0.663-0.439-1.061-0.439s-0.779 0.158-1.061 0.439c-0.281 0.282-0.439 0.663-0.439 1.061v1c0 0.398 0.158 0.779 0.439 1.061 0.282 0.281 0.663 0.439 1.061 0.439s0.779-0.158 1.061-0.439c0.281-0.282 0.439-0.663 0.439-1.061v-1z"/>
                    <rect x="8" y="13" width="1" height="2"/>
                </g>
                <g fill="#0c795f">
                    <path d="m14 14.5c0-0.398-0.158-0.779-0.439-1.061-0.282-0.281-0.663-0.439-1.061-0.439s-0.779 0.158-1.061 0.439c-0.281 0.282-0.439 0.663-0.439 1.061v1c0 0.398 0.158 0.779 0.439 1.061 0.282 0.281 0.663 0.439 1.061 0.439s0.779-0.158 1.061-0.439c0.281-0.282 0.439-0.663 0.439-1.061v-1z"/>
                    <rect x="12" y="16" width="1" height="2"/>
                </g>
                <g fill="#0c795f">
                    <path d="m7 15.5c0-0.398-0.158-0.779-0.439-1.061-0.282-0.281-0.663-0.439-1.061-0.439s-0.779 0.158-1.061 0.439c-0.281 0.282-0.439 0.663-0.439 1.061v1c0 0.398 0.158 0.779 0.439 1.061 0.282 0.281 0.663 0.439 1.061 0.439s0.779-0.158 1.061-0.439c0.281-0.282 0.439-0.663 0.439-1.061v-1z"/>
                    <rect x="5" y="17" width="1" height="2"/>
                </g>
                <g fill="#459331">
                    <path d="m31 17.5c0-0.663-0.263-1.299-0.732-1.768s-1.105-0.732-1.768-0.732-1.299 0.263-1.768 0.732-0.732 1.105-0.732 1.768v1c0 0.663 0.263 1.299 0.732 1.768s1.105 0.732 1.768 0.732 1.299-0.263 1.768-0.732 0.732-1.105 0.732-1.768v-1z"/>
                    <rect x="28" y="20" width="1" height="3"/>
                </g>
            </g>
        </g>
    </g>
</svg>
