<?xml version="1.0" encoding="UTF-8"?>
<!DOCTYPE svg  PUBLIC '-//W3C//DTD SVG 1.1//EN'  'http://www.w3.org/Graphics/SVG/1.1/DTD/svg11.dtd'>
<svg clip-rule="evenodd" fill-rule="evenodd" stroke-linejoin="round" stroke-miterlimit="2" version="1.1" viewBox="0 0 32 32" xml:space="preserve" xmlns="http://www.w3.org/2000/svg">
<metadata>
<rdf:RDF xmlns:cc="http://web.resource.org/cc/" xmlns:dc="http://purl.org/dc/elements/1.1/" xmlns:rdf="http://www.w3.org/1999/02/22-rdf-syntax-ns#">

     <rdf:Description rdf:about="">
       <dc:title>Mutant Standard emoji 2023.12</dc:title>
     </rdf:Description>

    <cc:work rdf:about="">
        <cc:license rdf:resource="http://creativecommons.org/licenses/by-nc-sa/4.0/"/>
        <cc:attributionName>Caius Nocturne</cc:attributionName>
        <cc:attributionURL>http://mutant.tech/</cc:attributionURL>
    </cc:work>

</rdf:RDF>
</metadata>

    <rect id="sparkler" width="32" height="32" fill="none"/>
    <clipPath id="_clip1">
        <rect width="32" height="32"/>
    </clipPath>
    <g clip-path="url(#_clip1)">
        <g id="outline">
            <path d="m32 2c0-0.53-0.211-1.039-0.586-1.414s-0.884-0.586-1.414-0.586h-28c-0.53 0-1.039 0.211-1.414 0.586s-0.586 0.884-0.586 1.414v28c0 0.53 0.211 1.039 0.586 1.414s0.884 0.586 1.414 0.586h28c0.53 0 1.039-0.211 1.414-0.586s0.586-0.884 0.586-1.414v-28z"/>
        </g>
        <g id="emoji">
            <rect x="2" y="2" width="28" height="28" fill="#282480"/>
            <clipPath id="_clip2">
                <rect x="2" y="2" width="28" height="28"/>
            </clipPath>
            <g clip-path="url(#_clip2)" fill="#ffeec9">
                
                    <path d="m25.5 1.5c0-0.133-0.053-0.26-0.146-0.354-0.094-0.093-0.221-0.146-0.354-0.146s-0.26 0.053-0.354 0.146c-0.093 0.094-0.146 0.221-0.146 0.354v2c0 0.133 0.053 0.26 0.146 0.354 0.094 0.093 0.221 0.146 0.354 0.146s0.26-0.053 0.354-0.146c0.093-0.094 0.146-0.221 0.146-0.354v-2z"/>
                    <path d="m26 3c0.133 0 0.26-0.053 0.354-0.146 0.093-0.094 0.146-0.221 0.146-0.354s-0.053-0.26-0.146-0.354c-0.094-0.093-0.221-0.146-0.354-0.146h-2c-0.133 0-0.26 0.053-0.354 0.146-0.093 0.094-0.146 0.221-0.146 0.354s0.053 0.26 0.146 0.354c0.094 0.093 0.221 0.146 0.354 0.146h2z"/>
                
                
                    <path d="m28.5 14.5c0-0.133-0.053-0.26-0.146-0.354-0.094-0.093-0.221-0.146-0.354-0.146s-0.26 0.053-0.354 0.146c-0.093 0.094-0.146 0.221-0.146 0.354v2c0 0.133 0.053 0.26 0.146 0.354 0.094 0.093 0.221 0.146 0.354 0.146s0.26-0.053 0.354-0.146c0.093-0.094 0.146-0.221 0.146-0.354v-2z"/>
                    <path d="m29 16c0.133 0 0.26-0.053 0.354-0.146 0.093-0.094 0.146-0.221 0.146-0.354s-0.053-0.26-0.146-0.354c-0.094-0.093-0.221-0.146-0.354-0.146h-2c-0.133 0-0.26 0.053-0.354 0.146-0.093 0.094-0.146 0.221-0.146 0.354s0.053 0.26 0.146 0.354c0.094 0.093 0.221 0.146 0.354 0.146h2z"/>
                
                
                    <path d="m12.5 24.5c0-0.133-0.053-0.26-0.146-0.354-0.094-0.093-0.221-0.146-0.354-0.146s-0.26 0.053-0.354 0.146c-0.093 0.094-0.146 0.221-0.146 0.354v2c0 0.133 0.053 0.26 0.146 0.354 0.094 0.093 0.221 0.146 0.354 0.146s0.26-0.053 0.354-0.146c0.093-0.094 0.146-0.221 0.146-0.354v-2z"/>
                    <path d="m13 26c0.133 0 0.26-0.053 0.354-0.146 0.093-0.094 0.146-0.221 0.146-0.354s-0.053-0.26-0.146-0.354c-0.094-0.093-0.221-0.146-0.354-0.146h-2c-0.133 0-0.26 0.053-0.354 0.146-0.093 0.094-0.146 0.221-0.146 0.354s0.053 0.26 0.146 0.354c0.094 0.093 0.221 0.146 0.354 0.146h2z"/>
                
                
                    <path d="m4.5 2.5c0-0.133-0.053-0.26-0.146-0.354-0.094-0.093-0.221-0.146-0.354-0.146s-0.26 0.053-0.354 0.146c-0.093 0.094-0.146 0.221-0.146 0.354v2.001c0 0.276 0.223 0.499 0.499 0.499h2e-3c0.276 0 0.499-0.223 0.499-0.499v-2.001z"/>
                    <path d="m5 4c0.133 0 0.26-0.053 0.354-0.146 0.093-0.094 0.146-0.221 0.146-0.354v-1e-3c0-0.276-0.223-0.499-0.499-0.499h-2.002c-0.276 0-0.499 0.223-0.499 0.499v1e-3c0 0.133 0.053 0.26 0.146 0.354 0.094 0.093 0.221 0.146 0.354 0.146h2z"/>
                
            </g>
            <rect x="15" y="16" width="2" height="14" fill="#8b6d19"/>
            <g fill="#f3aa00">
                <path d="m27.581 21.701c0.263 0.188 0.419 0.491 0.419 0.814v1.867c0 0.379-0.214 0.725-0.553 0.894-0.31 0.155-0.678 0.139-0.973-0.043-0.295-0.183-0.474-0.504-0.474-0.851v-1.02c0-0.234-0.082-0.46-0.232-0.64-0.984-1.181-4.768-5.722-4.768-5.722s5.072 3.623 6.581 4.701z"/>
                <path d="m7.252 8.168c-0.164-0.11-0.357-0.168-0.555-0.168h-2.358c-0.392 0-0.745-0.236-0.895-0.598s-0.067-0.779 0.21-1.056l1e-3 -1e-3c0.214-0.214 0.525-0.3 0.819-0.227 0.845 0.212 2.589 0.648 3.257 0.815 0.176 0.044 0.337 0.135 0.465 0.263l4.804 4.804s-4.61-3.073-5.748-3.832z"/>
                <path d="m5.285 18.81c-0.185 0.123-0.323 0.305-0.393 0.515-0.114 0.34-0.298 0.894-0.47 1.41-0.098 0.293-0.049 0.615 0.132 0.866 0.18 0.251 0.47 0.399 0.779 0.399h1e-3c0.398 0 0.751-0.254 0.877-0.632 0.223-0.671 0.565-1.695 0.714-2.144 0.049-0.147 0.132-0.281 0.242-0.391l3.833-3.833s-4.522 3.015-5.715 3.81z"/>
                <path d="m7.549 23.914c-0.033 0.057-0.059 0.117-0.08 0.18-0.11 0.33-0.485 1.455-0.735 2.204-0.134 0.403 0.048 0.843 0.428 1.033h1e-3c0.286 0.144 0.626 0.128 0.899-0.04 0.272-0.168 0.438-0.466 0.438-0.786v-1.324c0-0.12 0.022-0.239 0.064-0.351 0.433-1.156 2.936-7.83 2.936-7.83s-3.494 6.114-3.951 6.914z"/>
                <path d="m25.8 16.9c0.132 0.066 0.247 0.16 0.338 0.276 0.274 0.347 0.903 1.147 1.451 1.843 0.223 0.283 0.569 0.442 0.93 0.427 0.36-0.014 0.692-0.202 0.891-0.503 0 0 1e-3 -1e-3 1e-3 -2e-3 0.327-0.494 0.197-1.158-0.292-1.493-0.638-0.435-1.456-0.995-1.864-1.274-0.166-0.113-0.363-0.174-0.564-0.174h-2.691s1.293 0.647 1.8 0.9z"/>
                <path d="m15 16s-1.778 2.668-2.964 4.445c-0.204 0.307-0.223 0.702-0.049 1.027s0.513 0.528 0.882 0.528h0.284c0.489 0 0.906-0.353 0.986-0.836 0.275-1.649 0.861-5.164 0.861-5.164z"/>
                <path d="m19 19s0.557 2.783 0.839 4.196c0.094 0.468 0.504 0.804 0.981 0.804h0.099c0.385 0 0.735-0.22 0.902-0.567 0.166-0.346 0.119-0.758-0.121-1.058-1.168-1.459-2.7-3.375-2.7-3.375z"/>
                <path d="m21 10s1.621-2.161 2.48-3.306c0.298-0.398 0.259-0.955-0.093-1.307l-0.013-0.013c-0.265-0.265-0.656-0.359-1.012-0.245-0.357 0.114-0.62 0.418-0.681 0.788-0.293 1.755-0.681 4.083-0.681 4.083z"/>
                <path d="m21.5 11 4.5-4h1.113c0.321 0 0.623-0.155 0.811-0.415 0.188-0.261 0.239-0.596 0.137-0.901-1e-3 -3e-3 -2e-3 -6e-3 -2e-3 -8e-3 -0.114-0.342-0.403-0.596-0.757-0.666-0.353-0.069-0.717 0.057-0.951 0.331-1.743 2.032-4.851 5.659-4.851 5.659z"/>
                <path d="m9 14h-5.198c-0.213 0-0.417 0.084-0.567 0.235-0.151 0.15-0.235 0.354-0.235 0.567v2e-3c0 0.277 0.133 0.537 0.358 0.699s0.514 0.206 0.777 0.119c1.739-0.58 4.865-1.622 4.865-1.622z"/>
                <path d="m13.5 8s-2.1-2.8-2.786-3.715c-0.135-0.179-0.346-0.285-0.571-0.285h-2e-3c-0.438 0-0.822 0.295-0.934 0.719-0.113 0.424 0.074 0.87 0.455 1.088 1.855 1.06 3.838 2.193 3.838 2.193z"/>
                <path d="m25.823 11.576c0.117-0.05 0.223-0.122 0.313-0.212l0.937-0.937c0.215-0.215 0.52-0.313 0.819-0.264 0.3 0.048 0.559 0.238 0.694 0.51 1e-3 0 1e-3 1e-3 1e-3 1e-3 0.228 0.456 0.043 1.011-0.413 1.239-0.418 0.209-0.879 0.439-1.076 0.538-0.065 0.033-0.134 0.058-0.205 0.076-0.947 0.236-7.893 1.973-7.893 1.973s5.735-2.458 6.823-2.924z"/>
                <path d="m16 11v-7.216c0-0.208 0.083-0.407 0.23-0.554s0.346-0.23 0.554-0.23h0.06c0.361 0 0.687 0.218 0.825 0.551 0.138 0.334 0.062 0.718-0.193 0.973l-2e-3 2e-3c-0.308 0.308-0.512 0.705-0.584 1.135-0.26 1.559-0.89 5.339-0.89 5.339z"/>
            </g>
            <path d="m12 7 4 2 4-2v4h4l-3 3 2 4h-5l-2 4-2-4h-5l2-4-3-3h4v-4z" fill="#fdbe37"/>
            <path d="m14 10 2 1 2-1v2h3l-2 2 1 2h-3l-1 2-1-2h-3l1-2-2-2h3v-2z" fill="#ffeec9"/>
        </g>
    </g>
</svg>
