<?xml version="1.0" encoding="UTF-8"?>
<!DOCTYPE svg  PUBLIC '-//W3C//DTD SVG 1.1//EN'  'http://www.w3.org/Graphics/SVG/1.1/DTD/svg11.dtd'>
<svg clip-rule="evenodd" fill-rule="evenodd" stroke-linejoin="round" stroke-miterlimit="2" version="1.1" viewBox="0 0 32 32" xml:space="preserve" xmlns="http://www.w3.org/2000/svg">
<metadata>
<rdf:RDF xmlns:cc="http://web.resource.org/cc/" xmlns:dc="http://purl.org/dc/elements/1.1/" xmlns:rdf="http://www.w3.org/1999/02/22-rdf-syntax-ns#">

     <rdf:Description rdf:about="">
       <dc:title>Mutant Standard emoji 2023.12</dc:title>
     </rdf:Description>

    <cc:work rdf:about="">
        <cc:license rdf:resource="http://creativecommons.org/licenses/by-nc-sa/4.0/"/>
        <cc:attributionName>Caius Nocturne</cc:attributionName>
        <cc:attributionURL>http://mutant.tech/</cc:attributionURL>
    </cc:work>

</rdf:RDF>
</metadata>

    <rect id="sunrise_over_mountains" width="32" height="32" fill="none"/>
    <clipPath id="_clip1">
        <rect width="32" height="32"/>
    </clipPath>
    <g clip-path="url(#_clip1)">
        <g id="outline">
            <path d="m32 2c0-0.53-0.211-1.039-0.586-1.414s-0.884-0.586-1.414-0.586h-28c-0.53 0-1.039 0.211-1.414 0.586s-0.586 0.884-0.586 1.414v28c0 0.53 0.211 1.039 0.586 1.414s0.884 0.586 1.414 0.586h28c0.53 0 1.039-0.211 1.414-0.586s0.586-0.884 0.586-1.414v-28z"/>
        </g>
        <g id="emoji">
            <path d="m30 2h-28v4l2.361 1h22.997l2.642-1v-4z" fill="#0b5ee3"/>
            <path d="m30 6h-28v6l2 4 24-1 2-3v-6z" fill="#299fff"/>
            <path d="m30 12h-28l2 12 25-5 1-4v-3z" fill="#efc429"/>
            <rect x="4" y="16" width="24" height="9" fill="#ff7d03"/>
            <rect x="2" y="22" width="28" height="8" fill="#165287"/>
            <path d="m30 30v-15l-4-2-11 8 6 9h9z" fill="#1d6baf"/>
            <path d="m2 30v-18l5 5 4.521-2 10.479 9 8-3v9h-28z" fill="#113f68"/>
            <path d="m7 17-2 7 6.521-9-4.521 2z" fill="#956b18"/>
        </g>
    </g>
</svg>
