<?xml version="1.0" encoding="UTF-8"?>
<!DOCTYPE svg  PUBLIC '-//W3C//DTD SVG 1.1//EN'  'http://www.w3.org/Graphics/SVG/1.1/DTD/svg11.dtd'>
<svg clip-rule="evenodd" fill-rule="evenodd" stroke-linejoin="round" stroke-miterlimit="2" version="1.1" viewBox="0 0 32 32" xml:space="preserve" xmlns="http://www.w3.org/2000/svg" xmlns:serif="http://www.serif.com/">
<metadata>
<rdf:RDF xmlns:cc="http://web.resource.org/cc/" xmlns:dc="http://purl.org/dc/elements/1.1/" xmlns:rdf="http://www.w3.org/1999/02/22-rdf-syntax-ns#">

     <rdf:Description rdf:about="">
       <dc:title>Mutant Standard emoji 2023.12</dc:title>
     </rdf:Description>

    <cc:work rdf:about="">
        <cc:license rdf:resource="http://creativecommons.org/licenses/by-nc-sa/4.0/"/>
        <cc:attributionName>Caius Nocturne</cc:attributionName>
        <cc:attributionURL>http://mutant.tech/</cc:attributionURL>
    </cc:work>

</rdf:RDF>
</metadata>

    <rect id="sunset_city" width="32" height="32" fill="none"/>
    <clipPath id="_clip1">
        <rect width="32" height="32"/>
    </clipPath>
    <g clip-path="url(#_clip1)">
        <g id="outline">
            <path d="m32 2c0-0.53-0.211-1.039-0.586-1.414s-0.884-0.586-1.414-0.586h-28c-0.53 0-1.039 0.211-1.414 0.586s-0.586 0.884-0.586 1.414v28c0 0.53 0.211 1.039 0.586 1.414s0.884 0.586 1.414 0.586h28c0.53 0 1.039-0.211 1.414-0.586s0.586-0.884 0.586-1.414v-28z"/>
        </g>
        <g id="emoji">
            <rect x="2" y="2" width="28" height="28" fill="#871cd8"/>
            <clipPath id="_clip2">
                <rect x="2" y="2" width="28" height="28"/>
            </clipPath>
            <g clip-path="url(#_clip2)">
                <path d="m30 8h-28v2l6 13h19l3-14v-1z" fill="#b52bc7"/>
                <rect x="3" y="14" width="26" height="9" fill="#e34c7e"/>
                <rect x="2" y="19" width="28" height="3" fill="#ff6004"/>
                <circle cx="16" cy="21" r="5" fill="#ffa90a"/>
                <rect x="2" y="22" width="28" height="8" fill="#2d0e50"/>
                <rect x="20" y="13" width="8" height="20" fill="#541785"/>
                <rect x="7.5" y="19" width="8.5" height="12" fill="#541785"/>
                <rect x="25" y="9" width="7" height="22" fill="#2f0f53"/>
                <path d="m9 13-1-1h-6l-1 1v20h8v-20z" fill="#2f0f53"/>
                <g opacity=".75">
                    <rect x="3" y="14" width="1" height="2" fill="#c88f16"/>
                    <rect x="5" y="17" width="1" height="2" fill="#824c0e"/>
                    <rect x="7" y="23" width="1" height="2" fill="#824c0e"/>
                    <rect x="5" y="26" width="1" height="2" fill="#824c0e"/>
                    <rect x="3" y="20" width="1" height="2" fill="#824c0e"/>
                    <rect x="3" y="23" width="1" height="2" fill="#c88f16"/>
                    <rect x="7" y="14" width="1" height="2" fill="#c88f16"/>
                    <rect x="7" y="29" width="1" height="2" fill="#c88f16"/>
                    <rect x="3" y="29" width="1" height="2" fill="#c88f16"/>
                
                
                    <rect x="14" y="20" width="1" height="2" fill="#824c0e"/>
                    <rect x="12" y="20" width="1" height="2" fill="#c88f16"/>
                    <rect x="12" y="23" width="1" height="2" fill="#824c0e"/>
                    <rect x="10" y="26" width="1" height="2" fill="#c88f16"/>
                    <rect x="14" y="26" width="1" height="2" fill="#c88f16"/>
                    <rect x="12" y="29" width="1" height="2" fill="#c88f16"/>
                
                
                    <rect x="21" y="14" width="1" height="2" fill="#c88f16"/>
                    <rect x="23" y="17" width="1" height="2" fill="#c88f16"/>
                    <rect x="23" y="23" width="1" height="2" fill="#824c0e"/>
                    <rect x="21" y="23" width="1" height="2" fill="#824c0e"/>
                    <rect x="21" y="29" width="1" height="2" fill="#824c0e"/>
                    <rect x="23" y="29" width="1" height="2" fill="#824c0e"/>
                    <rect x="23" y="26" width="1" height="2" fill="#c88f16"/>
                
                
                    <rect x="26" y="10" width="1" height="2" fill="#c88f16"/>
                    <rect x="28" y="19" width="1" height="2" fill="#c88f16"/>
                    <rect x="26" y="22" width="1" height="2" fill="#c88f16"/>
                    <rect x="28" y="25" width="1" height="2" fill="#c88f16"/>
                    <rect x="28" y="28" width="1" height="2" fill="#c88f16"/>
                    <rect x="30" y="10" width="1" height="2" fill="#c88f16"/>
                    <rect x="28" y="16" width="1" height="2" fill="#824c0e"/>
                    <rect x="30" y="16" width="1" height="2" fill="#824c0e"/>
                    <rect x="30" y="25" width="1" height="2" fill="#824c0e"/>
                    <rect x="30" y="22" width="1" height="2" fill="#824c0e"/>
                    <rect x="26" y="28" width="1" height="2" fill="#824c0e"/>
                </g>
                <path d="m9 13v-1h-1l-4-4-4 4h-1v1h10z" fill="#541785"/>
                <clipPath id="_clip3">
                    <path d="m9 13v-1h-1l-4-4-4 4h-1v1h10z"/>
                </clipPath>
                <g clip-path="url(#_clip3)">
                    <path d="m7 12-3-3-3 3h6z" fill="#290d49"/>
                </g>
            </g>
            <g id="emoji1" serif:id="emoji">
                <path d="m30 2h-28v6l3 2h23l2-2v-6z" fill="#871cd8"/>
                <path d="m30 8h-28v2l2 13h23l3-14v-1z" fill="#b52bc7"/>
                <rect x="4" y="15" width="24" height="12" fill="#e34c7e"/>
                <circle cx="16" cy="21" r="5" fill="#ffa90a"/>
                <path d="m22 22h-8l2 8h4l2-8z" fill="#2d0e50"/>
                <rect x="20" y="13" width="8" height="17" fill="#541785"/>
                <path d="m16 19h-9l2 11h7v-11z" fill="#541785"/>
                <rect x="25" y="9" width="5" height="21" fill="#2d0e50"/>
                <path d="m9 13-1-1h-6v18h7v-17z" fill="#2d0e50"/>
                <g fill="#a26f25">
                    <rect x="3" y="14" width="1" height="2"/>
                    <rect x="3" y="23" width="1" height="2"/>
                    <rect x="7" y="14" width="1" height="2"/>
                    <rect x="7" y="29" width="1" height="1"/>
                    <rect x="3" y="29" width="1" height="1"/>
                </g>
                <g fill="#763f2c">
                    
                        <rect x="5" y="17" width="1" height="2"/>
                        <rect x="7" y="23" width="1" height="2"/>
                        <rect x="5" y="26" width="1" height="2"/>
                        <rect x="3" y="20" width="1" height="2"/>
                    
                    
                        <rect x="14" y="20" width="1" height="2"/>
                        <rect x="12" y="23" width="1" height="2"/>
                    
                    
                        <rect x="23" y="23" width="1" height="2"/>
                        <rect x="21" y="23" width="1" height="2"/>
                        <rect x="21" y="29" width="1" height="1"/>
                        <rect x="23" y="29" width="1" height="1"/>
                    
                    
                        <rect x="28" y="16" width="1" height="2"/>
                        <rect x="26" y="28" width="1" height="2"/>
                    
                </g>
                <g fill="#a26f25">
                    <rect x="12" y="20" width="1" height="2"/>
                    <rect x="10" y="26" width="1" height="2"/>
                    <rect x="14" y="26" width="1" height="2"/>
                    <rect x="12" y="29" width="1" height="1"/>
                </g>
                <g fill="#a26f25">
                    <rect x="21" y="14" width="1" height="2"/>
                    <rect x="23" y="17" width="1" height="2"/>
                    <rect x="23" y="26" width="1" height="2"/>
                </g>
                <g fill="#a26f25">
                    <rect x="26" y="10" width="1" height="2"/>
                    <rect x="28" y="19" width="1" height="2"/>
                    <rect x="26" y="22" width="1" height="2"/>
                    <rect x="28" y="25" width="1" height="2"/>
                    <rect x="28" y="28" width="1" height="2"/>
                </g>
                <path d="m2 10 2-2 4 4h1v1h-7v-1l1-0.604-1-0.396v-1z" fill="#541785"/>
                <path d="m2 11 2-2 3 3h-5v-1z" fill="#2d0e50"/>
            </g>
        </g>
    </g>
</svg>
