<?xml version="1.0" encoding="UTF-8"?>
<!DOCTYPE svg  PUBLIC '-//W3C//DTD SVG 1.1//EN'  'http://www.w3.org/Graphics/SVG/1.1/DTD/svg11.dtd'>
<svg clip-rule="evenodd" fill-rule="evenodd" stroke-linejoin="round" stroke-miterlimit="1.4142" version="1.1" viewBox="0 0 32 32" xml:space="preserve" xmlns="http://www.w3.org/2000/svg">
<metadata>
<rdf:RDF xmlns:cc="http://web.resource.org/cc/" xmlns:dc="http://purl.org/dc/elements/1.1/" xmlns:rdf="http://www.w3.org/1999/02/22-rdf-syntax-ns#">

     <rdf:Description rdf:about="">
       <dc:title>Mutant Standard emoji 2023.12</dc:title>
     </rdf:Description>

    <cc:work rdf:about="">
        <cc:license rdf:resource="http://creativecommons.org/licenses/by-nc-sa/4.0/"/>
        <cc:attributionName>Caius Nocturne</cc:attributionName>
        <cc:attributionURL>http://mutant.tech/</cc:attributionURL>
    </cc:work>

</rdf:RDF>
</metadata>
<rect id="arrow_curve_right" width="32" height="32" fill="none"/><clipPath id="_clip1"><rect width="32" height="32"/></clipPath><g clip-path="url(#_clip1)"><g id="outline"><path d="m22 11.172v-9.172h-11c-2.387 0-4.676 0.948-6.364 2.636s-2.636 3.977-2.636 6.364v1c0 5.523 4.477 10 10 10h7.172l-3 3v2l2.828 2.828 9.828-9.828v-2l-6.828-6.828z" fill="none" stroke="#000" stroke-width="4px"/><rect x="5" y="3" width="17" height="16"/></g><g id="emoji"><path d="m20 4h-10c-2.122 0-4.157 0.843-5.657 2.343s-2.343 3.535-2.343 5.657c0 5.523 4.477 10 10 10h12v-4h-13c-1.326 0-2.598-0.527-3.536-1.464-0.937-0.938-1.464-2.21-1.464-3.536 0-2.761 2.239-5 5-5h11v-2l-2-2z" fill="#747474"/><path d="m28.828 20-9.828 9.828-2.828-2.828v-2l7-5-7-7v-2l2.828-0.828 9.828 7.828v2z" fill="#747474" fill-rule="nonzero"/><path d="m21.172 16h-10.172c-1.326 0-2.598-0.527-3.536-1.464-0.937-0.938-1.464-2.21-1.464-3.536 0-2.761 2.239-5 5-5h11v-4h-11c-2.387 0-4.676 0.948-6.364 2.636s-2.636 3.977-2.636 6.364c0 4.971 4.029 9 9 9h10.172l-5 5 2.828 2.828 9.828-9.828-9.828-9.828-2.828 2.828 5 5z" fill="#fff" fill-rule="nonzero"/></g></g></svg>
