<?xml version="1.0" encoding="UTF-8"?>
<!DOCTYPE svg  PUBLIC '-//W3C//DTD SVG 1.1//EN'  'http://www.w3.org/Graphics/SVG/1.1/DTD/svg11.dtd'>
<svg clip-rule="evenodd" fill-rule="evenodd" stroke-linejoin="round" stroke-miterlimit="1.4142" version="1.1" viewBox="0 0 32 32" xml:space="preserve" xmlns="http://www.w3.org/2000/svg">
<metadata>
<rdf:RDF xmlns:cc="http://web.resource.org/cc/" xmlns:dc="http://purl.org/dc/elements/1.1/" xmlns:rdf="http://www.w3.org/1999/02/22-rdf-syntax-ns#">

     <rdf:Description rdf:about="">
       <dc:title>Mutant Standard emoji 2023.12</dc:title>
     </rdf:Description>

    <cc:work rdf:about="">
        <cc:license rdf:resource="http://creativecommons.org/licenses/by-nc-sa/4.0/"/>
        <cc:attributionName>Caius Nocturne</cc:attributionName>
        <cc:attributionURL>http://mutant.tech/</cc:attributionURL>
    </cc:work>

</rdf:RDF>
</metadata>
<path id="arrow_up_down" d="m32 32v-32h-32v32h32z" fill="none"/><clipPath id="_clip1"><path d="m32 32v-32h-32v32h32z"/></clipPath><g clip-path="url(#_clip1)"><g id="outline"><path d="m15 9.621-3.5 3.5-2.121-2.121v-2l7.121-7.121 7.121 7.121v2l-2.121 2.121-3.5-3.5v12.758l3.5-3.5 2.121 2.121v2l-7.121 7.121-7.121-7.121v-2l2.121-2.121 3.5 3.5v-12.758z" fill="none" stroke="#000" stroke-width="4px"/></g><g id="emoji" fill-rule="nonzero"><path d="m16 8.621-4.5 4.5-2.121-2.121v-2l7.121-6.121 7.121 6.121v2l-2.121 2.121-4.5-4.5v16.758l4.5-4.5 2.121 0.121v2l-7.121 7.121-7.121-7.121v-2l2.121-0.121 4.5 4.5v-16.758z" fill="#747474"/><path d="m15 7.621-3.5 3.5-2.121-2.121 7.121-7.121 7.121 7.121-2.121 2.121-3.5-3.5v14.758l3.5-3.5 2.121 2.121-7.121 7.121-7.121-7.121 2.121-2.121 3.5 3.5v-14.758z" fill="#fff"/></g></g></svg>
