<?xml version="1.0" encoding="UTF-8"?>
<!DOCTYPE svg  PUBLIC '-//W3C//DTD SVG 1.1//EN'  'http://www.w3.org/Graphics/SVG/1.1/DTD/svg11.dtd'>
<svg clip-rule="evenodd" fill-rule="evenodd" stroke-linejoin="round" stroke-miterlimit="1.4142" version="1.1" viewBox="0 0 32 32" xml:space="preserve" xmlns="http://www.w3.org/2000/svg">
<metadata>
<rdf:RDF xmlns:cc="http://web.resource.org/cc/" xmlns:dc="http://purl.org/dc/elements/1.1/" xmlns:rdf="http://www.w3.org/1999/02/22-rdf-syntax-ns#">

     <rdf:Description rdf:about="">
       <dc:title>Mutant Standard emoji 2023.12</dc:title>
     </rdf:Description>

    <cc:work rdf:about="">
        <cc:license rdf:resource="http://creativecommons.org/licenses/by-nc-sa/4.0/"/>
        <cc:attributionName>Caius Nocturne</cc:attributionName>
        <cc:attributionURL>http://mutant.tech/</cc:attributionURL>
    </cc:work>

</rdf:RDF>
</metadata>
<rect id="arrow_up_left" width="32" height="32" fill="none"/><g id="outline"><path d="m23 10h-8.172l12.971 12.971v2.029l-2.828 2.799-14.971-14.971v10.172h-4v-19h17v6z" fill-rule="nonzero" stroke="#000" stroke-width="4px"/></g><g id="emoji"><path d="m23 10h-11v-3h10l1 1v2z" fill="#747474"/><path d="m10 23h-4v-2l0.5-0.5h3l0.5 0.5v2z" fill="#747474"/><path d="m27.799 22.971-17.799-15.799-2.828 2.828 17.799 17.799 2.828-2.799v-2.029z" fill="#747474" fill-rule="nonzero"/><path d="m10 10.828v10.172h-4v-17h17v4h-10.172l14.971 14.971-2.828 2.828-14.971-14.971z" fill="#fff" fill-rule="nonzero"/></g></svg>
