<?xml version="1.0" encoding="UTF-8"?>
<!DOCTYPE svg  PUBLIC '-//W3C//DTD SVG 1.1//EN'  'http://www.w3.org/Graphics/SVG/1.1/DTD/svg11.dtd'>
<svg clip-rule="evenodd" fill-rule="evenodd" stroke-linejoin="round" stroke-miterlimit="1.4142" version="1.1" viewBox="0 0 32 32" xml:space="preserve" xmlns="http://www.w3.org/2000/svg">
<metadata>
<rdf:RDF xmlns:cc="http://web.resource.org/cc/" xmlns:dc="http://purl.org/dc/elements/1.1/" xmlns:rdf="http://www.w3.org/1999/02/22-rdf-syntax-ns#">

     <rdf:Description rdf:about="">
       <dc:title>Mutant Standard emoji 2023.12</dc:title>
     </rdf:Description>

    <cc:work rdf:about="">
        <cc:license rdf:resource="http://creativecommons.org/licenses/by-nc-sa/4.0/"/>
        <cc:attributionName>Caius Nocturne</cc:attributionName>
        <cc:attributionURL>http://mutant.tech/</cc:attributionURL>
    </cc:work>

</rdf:RDF>
</metadata>
<rect id="arrow_up" width="32" height="32" fill="none"/><g id="outline"><path d="m14 11.828-7 7-2.828-2.828v-2l11.828-11.828 11.828 11.828v2l-2.828 2.828-7-7v17.172h-4v-17.172z" fill="none" stroke="#000" stroke-width="4px"/></g><g id="emoji"><path d="m18 26-1-1h-2l-1 1v3h4v-3z" fill="#747474"/><path d="m27.828 16-2.828 2.828-9-9-9 9-2.828-2.828v-2l11.828-9.828 11.828 9.828v2z" fill="#747474" fill-rule="nonzero"/><path d="m14 9.828-7 7-2.828-2.828 11.828-11.828 11.828 11.828-2.828 2.828-7-7v16.172h-4v-16.172z" fill="#fff" fill-rule="nonzero"/></g></svg>
