<?xml version="1.0" encoding="UTF-8"?>
<!DOCTYPE svg  PUBLIC '-//W3C//DTD SVG 1.1//EN'  'http://www.w3.org/Graphics/SVG/1.1/DTD/svg11.dtd'>
<svg clip-rule="evenodd" fill-rule="evenodd" stroke-linejoin="round" stroke-miterlimit="1.4142" version="1.1" viewBox="0 0 32 32" xml:space="preserve" xmlns="http://www.w3.org/2000/svg">
<metadata>
<rdf:RDF xmlns:cc="http://web.resource.org/cc/" xmlns:dc="http://purl.org/dc/elements/1.1/" xmlns:rdf="http://www.w3.org/1999/02/22-rdf-syntax-ns#">

     <rdf:Description rdf:about="">
       <dc:title>Mutant Standard emoji 2023.12</dc:title>
     </rdf:Description>

    <cc:work rdf:about="">
        <cc:license rdf:resource="http://creativecommons.org/licenses/by-nc-sa/4.0/"/>
        <cc:attributionName>Caius Nocturne</cc:attributionName>
        <cc:attributionURL>http://mutant.tech/</cc:attributionURL>
    </cc:work>

</rdf:RDF>
</metadata>
<rect id="arrow_left_right" width="32" height="32" fill="none"/><clipPath id="_clip1"><rect width="32" height="32"/></clipPath><g clip-path="url(#_clip1)"><g id="outline"><path d="m9.621 19 1.5 1.5v2l-2.121 2.121-7.121-7.121v-2l7.121-7.121 2.121 2.121v2l-1.5 1.5h12.758l-1.5-1.5v-2l2.121-2.121 7.121 7.121v2l-7.121 7.121-2.121-2.121v-2l1.5-1.5h-12.758z" fill="#747474" fill-rule="nonzero" stroke="#000" stroke-width="4px"/></g><g id="emoji" fill-rule="nonzero"><path d="m7.621 19 3.5 1.5v2l-2.121 2.121-7.121-7.121v-2l7.121-5.121 2.121 0.121v2l-3.5 3.5h16.758l-3.5-3.5v-2l2.121-0.121 7.121 5.121v2l-7.121 7.121-2.121-2.121v-2l3.5-1.5h-16.758z" fill="#747474"/><path d="m7.621 17 3.5 3.5-2.121 2.121-7.121-7.121 7.121-7.121 2.121 2.121-3.5 3.5h16.758l-3.5-3.5 2.121-2.121 7.121 7.121-7.121 7.121-2.121-2.121 3.5-3.5h-16.758z" fill="#fff"/></g></g></svg>
