<?xml version="1.0" encoding="UTF-8"?>
<!DOCTYPE svg  PUBLIC '-//W3C//DTD SVG 1.1//EN'  'http://www.w3.org/Graphics/SVG/1.1/DTD/svg11.dtd'>
<svg clip-rule="evenodd" fill-rule="evenodd" stroke-linejoin="round" stroke-miterlimit="1.4142" version="1.1" viewBox="0 0 32 32" xml:space="preserve" xmlns="http://www.w3.org/2000/svg">
<metadata>
<rdf:RDF xmlns:cc="http://web.resource.org/cc/" xmlns:dc="http://purl.org/dc/elements/1.1/" xmlns:rdf="http://www.w3.org/1999/02/22-rdf-syntax-ns#">

     <rdf:Description rdf:about="">
       <dc:title>Mutant Standard emoji 2023.12</dc:title>
     </rdf:Description>

    <cc:work rdf:about="">
        <cc:license rdf:resource="http://creativecommons.org/licenses/by-nc-sa/4.0/"/>
        <cc:attributionName>Caius Nocturne</cc:attributionName>
        <cc:attributionURL>http://mutant.tech/</cc:attributionURL>
    </cc:work>

</rdf:RDF>
</metadata>
<rect id="back" width="32" height="32" fill="none"/><clipPath id="_clip1"><rect width="32" height="32"/></clipPath><g clip-path="url(#_clip1)"><g id="outline"><path d="m0 22c0-1.591 0.632-3.117 1.757-4.243 1.126-1.125 2.652-1.757 4.243-1.757h20c3.314 0 6 2.686 6 6v4c0 1.591-0.632 3.117-1.757 4.243-1.126 1.125-2.652 1.757-4.243 1.757h-20c-1.591 0-3.117-0.632-4.243-1.757-1.125-1.126-1.757-2.652-1.757-4.243v-4z"/><path d="m28 13v-5h-16.379l1.5-1.5v-2l-2.121-2.121-7.121 7.121v2l7.121 7.121 2.121-2.121v-2l-1.5-1.5h16.379z" fill="#747474" fill-rule="nonzero" stroke="#000" stroke-width="4px"/><rect x="13" y="14" width="14" height="3"/></g><g id="emoji"><path d="m28 13v-2l-2-1h-16.379l3.5-3.5v-2l-2.121-0.121-7.121 5.121v2l7.121 7.121 2.121-2.121v-2l-3.5-1.5h18.379z" fill="#747474" fill-rule="nonzero"/><path d="m9.621 11 3.5 3.5-2.121 2.121-7.121-7.121 7.121-7.121 2.121 2.121-3.5 3.5h18.379v3h-18.379z" fill="#fff" fill-rule="nonzero"/><path d="m2 22c0-1.061 0.421-2.078 1.172-2.828 0.75-0.751 1.767-1.172 2.828-1.172h20c1.061 0 2.078 0.421 2.828 1.172 0.751 0.75 1.172 1.767 1.172 2.828v4c0 1.061-0.421 2.078-1.172 2.828-0.75 0.751-1.767 1.172-2.828 1.172h-20c-1.061 0-2.078-0.421-2.828-1.172-0.751-0.75-1.172-1.767-1.172-2.828v-4z" fill="#666"/><path d="m10.028 24.482c0.12 0.291 0.179 0.676 0.179 1.154 0 0.784-0.16 1.354-0.482 1.709-0.321 0.354-0.866 0.532-1.635 0.532h-2.096v-7.731h2.096c0.754 0 1.292 0.166 1.613 0.498 0.321 0.333 0.482 0.861 0.482 1.586 0 0.381-0.064 0.706-0.191 0.974-0.127 0.269-0.343 0.475-0.649 0.617 0.336 0.149 0.563 0.369 0.683 0.661zm-2.667-3.104v1.871h0.583c0.321 0 0.545-0.073 0.672-0.218 0.127-0.146 0.191-0.383 0.191-0.712 0-0.343-0.064-0.586-0.191-0.728s-0.351-0.213-0.672-0.213h-0.583zm1.278 5.014c0.127-0.168 0.19-0.454 0.19-0.857 0-0.388-0.069-0.669-0.207-0.84-0.138-0.172-0.368-0.258-0.689-0.258h-0.572v2.207h0.572c0.343 0 0.579-0.084 0.706-0.252z" fill="#fff" fill-rule="nonzero"/><path d="m14.252 26.375h-1.804l-0.314 1.502h-1.434l1.983-7.731h1.345l1.972 7.731h-1.434l-0.314-1.502zm-0.246-1.232-0.65-3.137-0.65 3.137h1.3z" fill="#fff" fill-rule="nonzero"/><path d="m17.008 27.401c-0.388-0.378-0.582-0.929-0.582-1.653v-3.485c0-0.732 0.205-1.286 0.616-1.664 0.411-0.377 0.952-0.565 1.625-0.565 0.642 0 1.161 0.186 1.557 0.56 0.396 0.373 0.594 0.941 0.594 1.703v0.235h-1.378v-0.224c0-0.351-0.073-0.611-0.219-0.779-0.145-0.168-0.341-0.252-0.588-0.252-0.291 0-0.502 0.101-0.633 0.303s-0.196 0.504-0.196 0.907v3.104c0 0.754 0.276 1.132 0.829 1.132 0.247 0 0.443-0.086 0.588-0.258 0.146-0.172 0.219-0.426 0.219-0.762v-0.202h1.367v0.213c0 0.747-0.208 1.309-0.622 1.687-0.415 0.377-0.947 0.565-1.597 0.565-0.665 0-1.191-0.188-1.58-0.565z" fill="#fff" fill-rule="nonzero"/><path d="m23.709 24.885-0.628 1.244v1.748h-1.367v-7.731h1.367v3.641l1.647-3.641h1.378l-1.613 3.182 1.86 4.549h-1.468l-1.176-2.992z" fill="#fff" fill-rule="nonzero"/></g></g></svg>
