<?xml version="1.0" encoding="UTF-8"?>
<!DOCTYPE svg  PUBLIC '-//W3C//DTD SVG 1.1//EN'  'http://www.w3.org/Graphics/SVG/1.1/DTD/svg11.dtd'>
<svg clip-rule="evenodd" fill-rule="evenodd" stroke-linejoin="round" stroke-miterlimit="1.4142" version="1.1" viewBox="0 0 32 32" xml:space="preserve" xmlns="http://www.w3.org/2000/svg">
<metadata>
<rdf:RDF xmlns:cc="http://web.resource.org/cc/" xmlns:dc="http://purl.org/dc/elements/1.1/" xmlns:rdf="http://www.w3.org/1999/02/22-rdf-syntax-ns#">

     <rdf:Description rdf:about="">
       <dc:title>Mutant Standard emoji 2023.12</dc:title>
     </rdf:Description>

    <cc:work rdf:about="">
        <cc:license rdf:resource="http://creativecommons.org/licenses/by-nc-sa/4.0/"/>
        <cc:attributionName>Caius Nocturne</cc:attributionName>
        <cc:attributionURL>http://mutant.tech/</cc:attributionURL>
    </cc:work>

</rdf:RDF>
</metadata>
<rect id="end" width="32" height="32" fill="none"/><clipPath id="_clip1"><rect width="32" height="32"/></clipPath><g clip-path="url(#_clip1)"><g id="outline"><path d="m0 22c0-1.591 0.632-3.117 1.757-4.243 1.126-1.125 2.652-1.757 4.243-1.757h20c3.314 0 6 2.686 6 6v4c0 1.591-0.632 3.117-1.757 4.243-1.126 1.125-2.652 1.757-4.243 1.757h-20c-1.591 0-3.117-0.632-4.243-1.757-1.125-1.126-1.757-2.652-1.757-4.243v-4z"/><rect x="13" y="14" width="14" height="3"/><path d="m28 13v-5h-16.379l1.5-1.5v-2l-2.121-2.121-7.121 7.121v2l7.121 7.121 2.121-2.121v-2l-1.5-1.5h16.379z" fill="#747474" fill-rule="nonzero" stroke="#000" stroke-width="4px"/></g><g id="emoji"><path d="m28 13v-2l-2-1h-16.379l3.5-3.5v-2l-2.121-0.121-7.121 5.121v2l7.121 7.121 2.121-2.121v-2l-3.5-1.5h18.379z" fill="#747474" fill-rule="nonzero"/><path d="m9.621 11 3.5 3.5-2.121 2.121-7.121-7.121 7.121-7.121 2.121 2.121-3.5 3.5h18.379v3h-18.379z" fill="#fff" fill-rule="nonzero"/><path d="m2 22c0-1.061 0.421-2.078 1.172-2.828 0.75-0.751 1.767-1.172 2.828-1.172h20c1.061 0 2.078 0.421 2.828 1.172 0.751 0.75 1.172 1.767 1.172 2.828v4c0 1.061-0.421 2.078-1.172 2.828-0.75 0.751-1.767 1.172-2.828 1.172h-20c-1.061 0-2.078-0.421-2.828-1.172-0.751-0.75-1.172-1.767-1.172-2.828v-4z" fill="#666"/><path d="m7.176 21.423v1.916h3.485v1.277h-3.485v1.983h4.056v1.278h-5.523v-7.731h5.523v1.277h-4.056z" fill="#fff" fill-rule="nonzero"/><path d="m18.796 20.146v7.731h-1.468l-3.574-5.121v5.121h-1.468v-7.731h1.468l3.574 5.131v-5.131h1.468z" fill="#fff" fill-rule="nonzero"/><path d="m20.118 20.146h3.014c1.03 0 1.828 0.276 2.392 0.829s0.846 1.404 0.846 2.554v0.953c0 1.15-0.288 2.004-0.863 2.56-0.575 0.557-1.386 0.835-2.431 0.835h-2.958v-7.731zm3.002 6.453c0.605 0 1.054-0.169 1.345-0.509s0.437-0.876 0.437-1.608v-0.874c0-0.762-0.146-1.317-0.437-1.664s-0.74-0.521-1.345-0.521h-1.535v5.176h1.535z" fill="#fff" fill-rule="nonzero"/></g></g></svg>
