<?xml version="1.0" encoding="UTF-8"?>
<!DOCTYPE svg  PUBLIC '-//W3C//DTD SVG 1.1//EN'  'http://www.w3.org/Graphics/SVG/1.1/DTD/svg11.dtd'>
<svg clip-rule="evenodd" fill-rule="evenodd" stroke-linejoin="round" stroke-miterlimit="1.4142" version="1.1" viewBox="0 0 32 32" xml:space="preserve" xmlns="http://www.w3.org/2000/svg">
<metadata>
<rdf:RDF xmlns:cc="http://web.resource.org/cc/" xmlns:dc="http://purl.org/dc/elements/1.1/" xmlns:rdf="http://www.w3.org/1999/02/22-rdf-syntax-ns#">

     <rdf:Description rdf:about="">
       <dc:title>Mutant Standard emoji 2023.12</dc:title>
     </rdf:Description>

    <cc:work rdf:about="">
        <cc:license rdf:resource="http://creativecommons.org/licenses/by-nc-sa/4.0/"/>
        <cc:attributionName>Caius Nocturne</cc:attributionName>
        <cc:attributionURL>http://mutant.tech/</cc:attributionURL>
    </cc:work>

</rdf:RDF>
</metadata>
<rect id="on_arrow" width="32" height="32" fill="none"/><clipPath id="_clip1"><rect width="32" height="32"/></clipPath><g clip-path="url(#_clip1)"><g id="outline"><path d="m30 22c0-3.314-2.686-6-6-6h-16c-3.314 0-6 2.686-6 6v4c0 3.314 2.686 6 6 6h16c3.314 0 6-2.686 6-6v-4z"/><rect x="8" y="14.5" width="13" height="4"/><path d="m9.621 13 1.5 1.5v2l-2.121 2.121-7.121-7.121v-2l7.121-7.121 2.121 2.121v2l-1.5 1.5h12.758l-1.5-1.5v-2l2.121-2.121 7.121 7.121v2l-7.121 7.121-2.121-2.121v-2l1.5-1.5h-12.758z" fill="#747474" fill-rule="nonzero" stroke="#000" stroke-width="4px"/></g><g id="emoji"><path d="m7.621 13 3.5 1.5v2l-2.121 2.121-7.121-7.121v-2l7.121-5.121 2.121 0.121v2l-3.5 3.5h16.758l-3.5-3.5v-2l2.121-0.121 7.121 5.121v2l-7.121 7.121-2.121-2.121v-2l3.5-1.5h-16.758z" fill="#747474" fill-rule="nonzero"/><path d="m7.621 11 3.5 3.5-2.121 2.121-7.121-7.121 7.121-7.121 2.121 2.121-3.5 3.5h16.758l-3.5-3.5 2.121-2.121 7.121 7.121-7.121 7.121-2.121-2.121 3.5-3.5h-16.758z" fill="#fff" fill-rule="nonzero"/><path d="m28 22c0-1.061-0.421-2.078-1.172-2.828-0.75-0.751-1.767-1.172-2.828-1.172h-16c-1.061 0-2.078 0.421-2.828 1.172-0.751 0.75-1.172 1.767-1.172 2.828v4c0 1.061 0.421 2.078 1.172 2.828 0.75 0.751 1.767 1.172 2.828 1.172h16c1.061 0 2.078-0.421 2.828-1.172 0.751-0.75 1.172-1.767 1.172-2.828v-4z" fill="#666"/><path d="m8.37 27.148c-0.56-0.567-0.841-1.415-0.841-2.543v-1.21c0-1.128 0.286-1.976 0.858-2.543 0.571-0.568 1.361-0.852 2.369-0.852 0.994 0 1.774 0.284 2.342 0.852 0.568 0.567 0.852 1.415 0.852 2.543v1.21c0 1.12-0.29 1.966-0.869 2.538-0.579 0.571-1.369 0.857-2.37 0.857-1 0-1.781-0.284-2.341-0.852zm4.112-2.565v-1.11c0-1.456-0.575-2.184-1.726-2.184-0.59 0-1.029 0.179-1.316 0.537-0.288 0.359-0.432 0.908-0.432 1.647v1.11c0 0.709 0.144 1.236 0.432 1.579 0.287 0.344 0.726 0.516 1.316 0.516 1.151 0 1.726-0.699 1.726-2.095z" fill="#fff" fill-rule="nonzero"/><path d="m21.625 20.146v7.731h-1.468l-3.574-5.121v5.121h-1.468v-7.731h1.468l3.574 5.131v-5.131h1.468z" fill="#fff" fill-rule="nonzero"/><path d="m22.891 20.146h1.58l-0.269 5.154h-1.042l-0.269-5.154zm0.056 6.274h1.468v1.457h-1.468v-1.457z" fill="#fff" fill-rule="nonzero"/></g></g></svg>
