<?xml version="1.0" encoding="UTF-8"?>
<!DOCTYPE svg  PUBLIC '-//W3C//DTD SVG 1.1//EN'  'http://www.w3.org/Graphics/SVG/1.1/DTD/svg11.dtd'>
<svg clip-rule="evenodd" fill-rule="evenodd" stroke-linejoin="round" stroke-miterlimit="1.4142" version="1.1" viewBox="0 0 32 32" xml:space="preserve" xmlns="http://www.w3.org/2000/svg">
<metadata>
<rdf:RDF xmlns:cc="http://web.resource.org/cc/" xmlns:dc="http://purl.org/dc/elements/1.1/" xmlns:rdf="http://www.w3.org/1999/02/22-rdf-syntax-ns#">

     <rdf:Description rdf:about="">
       <dc:title>Mutant Standard emoji 2023.12</dc:title>
     </rdf:Description>

    <cc:work rdf:about="">
        <cc:license rdf:resource="http://creativecommons.org/licenses/by-nc-sa/4.0/"/>
        <cc:attributionName>Caius Nocturne</cc:attributionName>
        <cc:attributionURL>http://mutant.tech/</cc:attributionURL>
    </cc:work>

</rdf:RDF>
</metadata>
<rect id="soon" width="32" height="32" fill="none"/><clipPath id="_clip1"><rect width="32" height="32"/></clipPath><g clip-path="url(#_clip1)"><g id="outline"><path d="m32 22c0-1.591-0.632-3.117-1.757-4.243-1.126-1.125-2.652-1.757-4.243-1.757h-20c-3.314 0-6 2.686-6 6v4c0 1.591 0.632 3.117 1.757 4.243 1.126 1.125 2.652 1.757 4.243 1.757h20c1.591 0 3.117-0.632 4.243-1.757 1.125-1.126 1.757-2.652 1.757-4.243v-4z"/><path d="m4 13v-5h16.379l-1.5-1.5v-2l2.121-2.121 7.121 7.121v2l-7.121 7.121-2.121-2.121v-2l1.5-1.5h-16.379z" fill="#747474" fill-rule="nonzero" stroke="#000" stroke-width="4px"/><rect x="5" y="14" width="14" height="3"/></g><g id="emoji"><path d="m4 13v-2l2-1h16.379l-3.5-3.5v-2l2.121-0.121 7.121 5.121v2l-7.121 7.121-2.121-2.121v-2l3.5-1.5h-18.379z" fill="#747474" fill-rule="nonzero"/><path d="m22.379 8-3.5-3.5 2.121-2.121 7.121 7.121-7.121 7.121-2.121-2.121 3.5-3.5h-18.379v-3h18.379z" fill="#fff" fill-rule="nonzero"/><path d="m30 22c0-1.061-0.421-2.078-1.172-2.828-0.75-0.751-1.767-1.172-2.828-1.172h-20c-1.061 0-2.078 0.421-2.828 1.172-0.751 0.75-1.172 1.767-1.172 2.828v4c0 1.061 0.421 2.078 1.172 2.828 0.75 0.751 1.767 1.172 2.828 1.172h20c1.061 0 2.078-0.421 2.828-1.172 0.751-0.75 1.172-1.767 1.172-2.828v-4z" fill="#666"/><path d="m6.471 27.373c-0.359-0.396-0.542-0.964-0.549-1.704h1.299c0.015 0.381 0.092 0.662 0.23 0.841s0.342 0.269 0.611 0.269 0.465-0.082 0.588-0.247c0.123-0.164 0.185-0.426 0.185-0.784 0-0.299-0.069-0.536-0.208-0.712-0.138-0.175-0.371-0.338-0.7-0.487l-0.526-0.235c-0.501-0.224-0.861-0.501-1.082-0.829-0.22-0.329-0.33-0.77-0.33-1.323 0-0.649 0.188-1.169 0.566-1.557 0.377-0.388 0.887-0.583 1.529-0.583 0.635 0 1.126 0.193 1.473 0.577 0.348 0.385 0.533 0.94 0.555 1.664h-1.266c-8e-3 -0.351-0.069-0.614-0.185-0.79-0.116-0.175-0.308-0.263-0.577-0.263-0.5 0-0.751 0.295-0.751 0.885 0 0.269 0.062 0.484 0.185 0.644 0.123 0.161 0.331 0.305 0.622 0.432l0.504 0.224c0.538 0.239 0.928 0.538 1.171 0.896 0.243 0.359 0.364 0.837 0.364 1.434 0 0.718-0.186 1.27-0.56 1.659-0.373 0.388-0.904 0.582-1.591 0.582-0.68 0-1.199-0.198-1.557-0.593z" fill="#fff" fill-rule="nonzero"/><path d="m11.49 27.401c-0.388-0.378-0.582-0.929-0.582-1.653v-3.485c0-0.732 0.205-1.286 0.616-1.664 0.411-0.377 0.952-0.565 1.624-0.565 0.65 0 1.171 0.188 1.563 0.565 0.393 0.378 0.589 0.932 0.589 1.664v3.485c0 0.717-0.208 1.266-0.622 1.647-0.415 0.381-0.951 0.571-1.608 0.571-0.665 0-1.191-0.188-1.58-0.565zm2.224-0.975c0.138-0.198 0.208-0.476 0.208-0.835v-3.104c0-0.395-0.068-0.696-0.202-0.902-0.135-0.205-0.336-0.308-0.605-0.308-0.291 0-0.502 0.101-0.633 0.303s-0.196 0.504-0.196 0.907v3.104c0 0.754 0.276 1.132 0.829 1.132 0.261 0 0.461-0.099 0.599-0.297z" fill="#fff" fill-rule="nonzero"/><path d="m16.734 27.401c-0.389-0.378-0.583-0.929-0.583-1.653v-3.485c0-0.732 0.206-1.286 0.617-1.664 0.41-0.377 0.952-0.565 1.624-0.565 0.65 0 1.171 0.188 1.563 0.565 0.392 0.378 0.588 0.932 0.588 1.664v3.485c0 0.717-0.207 1.266-0.621 1.647-0.415 0.381-0.951 0.571-1.608 0.571-0.665 0-1.192-0.188-1.58-0.565zm2.224-0.975c0.138-0.198 0.207-0.476 0.207-0.835v-3.104c0-0.395-0.067-0.696-0.201-0.902-0.135-0.205-0.337-0.308-0.605-0.308-0.292 0-0.503 0.101-0.634 0.303-0.13 0.202-0.196 0.504-0.196 0.907v3.104c0 0.754 0.277 1.132 0.83 1.132 0.261 0 0.461-0.099 0.599-0.297z" fill="#fff" fill-rule="nonzero"/><path d="m25.81 20.146v7.731h-1.379l-1.613-4.123v4.123h-1.378v-7.731h1.378l1.613 4.302v-4.302h1.379z" fill="#fff" fill-rule="nonzero"/></g></g></svg>
