<?xml version="1.0" encoding="UTF-8"?>
<!DOCTYPE svg  PUBLIC '-//W3C//DTD SVG 1.1//EN'  'http://www.w3.org/Graphics/SVG/1.1/DTD/svg11.dtd'>
<svg clip-rule="evenodd" fill-rule="evenodd" stroke-linejoin="round" stroke-miterlimit="1.4142" version="1.1" viewBox="0 0 32 32" xml:space="preserve" xmlns="http://www.w3.org/2000/svg">
<metadata>
<rdf:RDF xmlns:cc="http://web.resource.org/cc/" xmlns:dc="http://purl.org/dc/elements/1.1/" xmlns:rdf="http://www.w3.org/1999/02/22-rdf-syntax-ns#">

     <rdf:Description rdf:about="">
       <dc:title>Mutant Standard emoji 2023.12</dc:title>
     </rdf:Description>

    <cc:work rdf:about="">
        <cc:license rdf:resource="http://creativecommons.org/licenses/by-nc-sa/4.0/"/>
        <cc:attributionName>Caius Nocturne</cc:attributionName>
        <cc:attributionURL>http://mutant.tech/</cc:attributionURL>
    </cc:work>

</rdf:RDF>
</metadata>
<rect id="top" width="32" height="32" fill="none"/><clipPath id="_clip1"><rect width="32" height="32"/></clipPath><g clip-path="url(#_clip1)"><g id="outline"><path d="m32 22c0-1.591-0.632-3.117-1.757-4.243-1.126-1.125-2.652-1.757-4.243-1.757h-20c-3.314 0-6 2.686-6 6v4c0 1.591 0.632 3.117 1.757 4.243 1.126 1.125 2.652 1.757 4.243 1.757h20c1.591 0 3.117-0.632 4.243-1.757 1.125-1.126 1.757-2.652 1.757-4.243v-4z"/><path d="m15 9.621-3.5 3.5-2.121-2.121v-2l7.121-7.121 7.121 7.121v2l-2.121 2.121-3.5-3.5v12.379h-3v-12.379z" fill="none" stroke="#000" stroke-width="4px"/></g><g id="emoji"><path d="m15 9.621-3.5 3.5-2.121-2.121v-2l7.121-4.121 7.121 4.121v2l-2.121 2.121-3.5-3.5-1 0.379 1 4v2h-3v-2l1-4-1-0.379z" fill="#747474" fill-rule="nonzero"/><path d="m15 7.621-3.5 3.5-2.121-2.121 7.121-7.121 7.121 7.121-2.121 2.121-3.5-3.5v6.379h-3v-6.379z" fill="#fff" fill-rule="nonzero"/><path d="m30 22c0-1.061-0.421-2.078-1.172-2.828-0.75-0.751-1.767-1.172-2.828-1.172h-20c-1.061 0-2.078 0.421-2.828 1.172-0.751 0.75-1.172 1.767-1.172 2.828v4c0 1.061 0.421 2.078 1.172 2.828 0.75 0.751 1.767 1.172 2.828 1.172h20c1.061 0 2.078-0.421 2.828-1.172 0.751-0.75 1.172-1.767 1.172-2.828v-4z" fill="#666"/><path d="m11.927 21.423h-2.319v6.454h-1.468v-6.454h-2.319v-1.277h6.106v1.277z" fill="#fff" fill-rule="nonzero"/><path d="m13.115 27.148c-0.56-0.567-0.84-1.415-0.84-2.543v-1.21c0-1.128 0.285-1.976 0.857-2.543 0.571-0.568 1.361-0.852 2.369-0.852 0.994 0 1.774 0.284 2.342 0.852 0.568 0.567 0.852 1.415 0.852 2.543v1.21c0 1.12-0.29 1.966-0.869 2.538-0.579 0.571-1.368 0.857-2.369 0.857s-1.782-0.284-2.342-0.852zm4.112-2.565v-1.11c0-1.456-0.575-2.184-1.726-2.184-0.59 0-1.029 0.179-1.316 0.537-0.288 0.359-0.431 0.908-0.431 1.647v1.11c0 0.709 0.143 1.236 0.431 1.579 0.287 0.344 0.726 0.516 1.316 0.516 1.151 0 1.726-0.699 1.726-2.095z" fill="#fff" fill-rule="nonzero"/><path d="m25.232 20.773c0.49 0.418 0.734 1.016 0.734 1.793 0 0.747-0.244 1.329-0.734 1.748-0.489 0.418-1.185 0.627-2.089 0.627h-1.815v2.936h-1.468v-7.731h3.339c0.866 0 1.544 0.209 2.033 0.627zm-0.733 1.782c0-0.381-0.109-0.665-0.325-0.852-0.217-0.187-0.523-0.28-0.919-0.28h-1.927v2.23h1.927c0.829 0 1.244-0.366 1.244-1.098z" fill="#fff" fill-rule="nonzero"/></g></g></svg>
