<?xml version="1.0" encoding="UTF-8"?>
<!-- Created with Inkscape (http://www.inkscape.org/) -->
<svg id="svg548" width="486.34" height="100" version="1.0" xmlns="http://www.w3.org/2000/svg">
 <path id="path600" d="m84.717 30.391c5.2536 0.93458 36.268 10.24 32.782 22.443-7.9484 28.488-61.136 38.03-100.46 39.385 31.363-6.455 70.137-18.456 79.953-36.829 8.6788-16.962-9.153-22.194-12.269-24.999z" fill-rule="evenodd"/>
 <path id="path601" d="m98.474 99.22c-1.4019-5.4517-14.953-58.722-43.925-58.878-12.461-0.62305-24.628 13.509-31.287 29.406-7.0671 16.344-7.2571 30.091-17.778 30.25-10.111 0.15498-4.0498-23.987 0.77882-41.588 4.8287-19.47 20.405-58.255 43.146-58.411 22.741-0.15576 37.071 36.448 40.342 46.105 7.4766 24.299 8.567 46.728 8.7227 53.115z" fill="#759fbf" fill-rule="evenodd"/>
 <path id="path551" d="m133.28 48.677 2.4314-14.498c2.3518-0.93438 8.4344-2.6673 15.76-2.7382 24.555-0.2367 21.869 18.646 21.98 23.57l-0.13016 34.806-11.563 2.291-2e-3 -5.4393c-1.6913 1.1433-5.0766 5.4393-14.099 5.725-8.4616 0-20.871-5.1534-20.59-23.19 2e-3 -16.032 13.536-20.13 23.128-20.058 7.6032 0.0593 10.021 4.4043 9.8716 4.14 0.15931-4.55-0.65062-7.9014-9.4385-8.1499-5.3076-0.15183-17.354 3.594-17.348 3.5406m16.492 13.085c-4.9874-0.0711-10.208 3.5957-10.295 8.5876 0.0177 5.5831 5.64 9.1632 9.8716 9.1632 4.2298 0 10.736-3.1505 10.718-8.8775 0-6.2967-5.5017-8.8557-10.295-8.8734z" fill-rule="evenodd"/>
 <path id="path552" d="m180.61 34.743-0.15202 57.636 13.475-3.0288 0.0644-32.678c9e-3 -4.8657 6.2932-10.623 14.168-10.623 1.6758-3.3677 4.8285-11.962 5.5964-13.917-17.594 0.15576-17.825 5.8044-20.888 8.617-0.0252-5.2979 0-8.4788 0-8.4788l-12.263 2.4739z" fill-rule="evenodd"/>
 <path id="path553" d="m255.85 42.302c-0.12997-0.0662-6.4491-9.7156-20.312-9.626-12.985-0.0896-27.557 5.6524-27.821 29.764 0.0866 21.196 13.954 29.32 27.819 29.322 14.838 0 20.755-10.512 21.11-10.775-1.7683-1.6791-8.3907-8.5664-8.3907-8.5664s-4.1511 7.2417-12.187 7.4172c-8.0382 0.17723-15.015-7.6822-15.102-17.398-0.0906-9.7156 4.9446-16.428 14.481-16.338 10.687 0 13.073 4.6786 13.073 4.6786l7.3293-8.4788z" fill-rule="evenodd"/>
 <path id="path554" d="m260.71 92.028 12.538-2.6492 0.1851-35.329c0.0315-3.7048 4.8501-9.449 12.886-9.3612 7.6838 0 9.3852 5.5649 9.3635 6.2699l0.17526 40.892 12.365-2.5613 0.0886-43.366c0.0866-4.1741-8.2391-12.896-21.639-12.805-9.6766 0.12859-12.814 3.8702-13.245 4.1509v-23.76l-12.719 3.4457 2e-3 75.073z" fill-rule="evenodd"/>
 <path id="path555" d="m319.17 22.343 5.7402-1.5019 0.0906 68.36-5.8308 1.0596v-67.918z" fill-rule="evenodd"/>
 <path id="path556" d="m334.71 42.567 5.0333-2.2965-0.0866 49.019-4.858 1.0596-0.0886-47.782zm-1.148-17.663 4.0624-3.3561 3.3575 3.7086-4.0644 3.4437-3.3555-3.7962z" fill-rule="evenodd"/>
 <path id="path567" d="m349.2 41.507 5.7402-1.2368v10.247c0 0.44012 3.1802-11.484 18.371-11.395 14.749-0.0876 17.132 11.305 17.045 13.866l0.0866 36.034-5.0313 1.1494 0.065-35.594c0.0611-1.0401-2.2724-9.8032-12.695-9.7156-10.421 0.0896-17.662 7.7736-17.662 12.63v31.356l-5.8308 1.5895-0.0886-48.931z" fill-rule="evenodd"/>
 <path id="path558" d="m440.5 88.707-5.7402 1.2366v-10.247c0-0.44032-3.1822 11.484-18.371 11.395-14.749 0.0876-17.132-11.305-17.045-13.866l-0.0866-36.034 6.0986-1.301v35.594c0 0.97199 1.1402 9.9552 11.563 9.8674 10.421-0.0896 17.738-6.4802 17.815-15.978v-28.083l5.6772-1.5133 0.0886 48.931z" fill-rule="evenodd"/>
 <path id="path559" d="m451.87 39.922-4.0309 3.1944 15.37 20.01-16.512 23.512 4.2594 3.1184 15.521-21.837 15.901 21.989 3.9561-3.1942-17.041-23.51 13.696-19.328-4.1865-3.5002-12.477 17.883-14.456-18.337z" fill-rule="evenodd"/>
</svg>
