<?xml version="1.0" encoding="UTF-8"?>
<!DOCTYPE svg  PUBLIC '-//W3C//DTD SVG 1.1//EN'  'http://www.w3.org/Graphics/SVG/1.1/DTD/svg11.dtd'>
<svg clip-rule="evenodd" fill-rule="evenodd" stroke-linejoin="round" stroke-miterlimit="1.4142" version="1.1" viewBox="0 0 32 32" xml:space="preserve" xmlns="http://www.w3.org/2000/svg">
<metadata>
<rdf:RDF xmlns:cc="http://web.resource.org/cc/" xmlns:dc="http://purl.org/dc/elements/1.1/" xmlns:rdf="http://www.w3.org/1999/02/22-rdf-syntax-ns#">

     <rdf:Description rdf:about="">
       <dc:title>Mutant Standard emoji 2023.12</dc:title>
     </rdf:Description>

    <cc:work rdf:about="">
        <cc:license rdf:resource="http://creativecommons.org/licenses/by-nc-sa/4.0/"/>
        <cc:attributionName>Caius Nocturne</cc:attributionName>
        <cc:attributionURL>http://mutant.tech/</cc:attributionURL>
    </cc:work>

</rdf:RDF>
</metadata>
<rect id="crystal_ball" width="32" height="32" fill="none"/><clipPath id="_clip1"><rect width="32" height="32"/></clipPath><g clip-path="url(#_clip1)"><g id="outline"><path d="m6.002 24.999-5e-3 -5e-3c-1.263-1.204-2.307-2.636-3.065-4.208-0.648-1.343-1.085-2.785-1.291-4.261-0.213-1.521-0.185-3.077 0.086-4.588 0.24-1.346 0.674-2.657 1.282-3.881 0.725-1.458 1.698-2.792 2.863-3.93 1.167-1.138 2.524-2.08 4.001-2.77 1.242-0.58 2.567-0.982 3.922-1.189 0.669-0.102 1.342-0.153 2.018-0.166 0.187-1e-3 0.187-1e-3 0.374 0 0.676 0.013 1.349 0.064 2.018 0.166 1.355 0.207 2.68 0.609 3.922 1.189 1.477 0.69 2.834 1.632 4.001 2.77 1.165 1.138 2.138 2.472 2.863 3.93 0.608 1.224 1.042 2.535 1.282 3.881 0.271 1.511 0.299 3.067 0.086 4.588-0.206 1.476-0.643 2.918-1.291 4.261-0.758 1.572-1.802 3.004-3.065 4.208l-5e-3 5e-3c0.835 0.628 1.466 1.514 1.777 2.515 0.149 0.478 0.219 0.973 0.225 1.473v3.013h-24v-3.013c2e-3 -0.166 9e-3 -0.331 0.026-0.496 0.037-0.372 0.117-0.74 0.237-1.094 0.323-0.955 0.939-1.795 1.739-2.398z"/></g><g id="emoji"><circle cx="16" cy="14.5" r="12.5" fill="#a83eff"/><path d="m8.036 21.34c0.329-3.003 2.873-5.34 5.964-5.34h4c3.091 0 5.635 2.337 5.964 5.34-1.926 2.24-4.781 3.66-7.964 3.66s-6.038-1.42-7.964-3.66zm0.18-13.883c1.921-2.123 4.698-3.457 7.784-3.457s5.863 1.334 7.784 3.457c-0.623 2.051-2.529 3.543-4.784 3.543h-6c-2.255 0-4.161-1.492-4.784-3.543z" fill="#5d0d9e"/><path d="m18.097 4.501 0.096 1e-3 0.096 3e-3 0.096 5e-3 0.095 5e-3 0.095 7e-3 0.095 8e-3 0.095 9e-3 0.094 0.01 0.094 0.011 0.094 0.013 0.093 0.013 0.093 0.015 0.093 0.016 0.092 0.017 0.092 0.018 0.182 0.04 0.091 0.022 0.09 0.022 0.09 0.024 0.178 0.05 0.089 0.027 0.088 0.028 0.087 0.029 0.087 0.03 0.087 0.032 0.086 0.032 0.085 0.033 0.085 0.034 0.085 0.035 0.084 0.036 0.083 0.037 0.083 0.038 0.082 0.039 0.082 0.04 0.081 0.041 0.081 0.042 0.08 0.043 0.079 0.044 0.079 0.045 0.078 0.045 0.078 0.047 0.077 0.047 0.077 0.048 0.15 0.1 0.075 0.051 0.074 0.052 0.073 0.052 0.144 0.108 0.071 0.055 0.071 0.056 0.069 0.057 0.138 0.116 0.134 0.12 0.132 0.122 0.128 0.126 0.126 0.128 0.122 0.132 0.12 0.134 0.116 0.138 0.057 0.069 0.056 0.071 0.055 0.071 0.108 0.144 0.053 0.073 0.051 0.074 0.051 0.075 0.1 0.15 0.048 0.077 0.047 0.077 0.047 0.078 0.045 0.078 0.045 0.079 0.044 0.079 0.043 0.08 0.042 0.081 0.041 0.081 0.04 0.082 0.039 0.082 0.038 0.083 0.037 0.083 0.036 0.084 0.035 0.085 0.034 0.085 0.033 0.085 0.032 0.086 0.032 0.087 0.03 0.087 0.029 0.087 0.028 0.088 0.027 0.089 0.05 0.178 0.024 0.09 0.022 0.09 0.022 0.091 0.04 0.182 0.018 0.092 0.017 0.092 0.016 0.093 0.015 0.093 0.013 0.093 0.013 0.094 0.011 0.094 0.01 0.094 9e-3 0.095 8e-3 0.095 7e-3 0.095 5e-3 0.095 5e-3 0.096 3e-3 0.096 1e-3 0.096 1e-3 0.097-1e-3 0.06-4e-3 0.059-6e-3 0.06-8e-3 0.059-0.011 0.058-0.012 0.059-0.016 0.057-0.017 0.057-0.02 0.056-0.022 0.056-0.024 0.054-0.027 0.054-0.028 0.052-0.031 0.052-0.032 0.05-0.035 0.048-0.036 0.048-0.038 0.045-0.04 0.045-0.042 0.042-0.043 0.041-0.045 0.039-0.047 0.038-0.048 0.035-0.049 0.033-0.051 0.032-0.052 0.029-0.053 0.028-0.054 0.025-0.055 0.023-0.056 0.021-0.056 0.019-0.058 0.016-0.058 0.014-0.058 0.012-0.059 9e-3 -0.059 8e-3 -0.06 4e-3 -0.059 3e-3h-0.06l-0.059-3e-3 -0.06-4e-3 -0.059-8e-3 -0.059-9e-3 -0.058-0.012-0.058-0.014-0.058-0.016-0.056-0.019-0.056-0.021-0.055-0.023-0.054-0.025-0.053-0.028-0.052-0.029-0.051-0.032-0.049-0.033-0.048-0.035-0.047-0.038-0.045-0.039-0.043-0.041-0.042-0.042-0.04-0.045-0.038-0.045-0.036-0.048-0.035-0.048-0.032-0.05-0.031-0.052-0.028-0.052-0.027-0.054-0.024-0.054-0.022-0.056-0.02-0.056-0.017-0.057-0.016-0.057-0.012-0.059-0.011-0.058-8e-3 -0.059-6e-3 -0.06-4e-3 -0.059-1e-3 -0.06v5e-3 -0.064l-2e-3 -0.058-1e-3 -0.058-3e-3 -0.058-3e-3 -0.057-4e-3 -0.058-0.01-0.114-6e-3 -0.057-7e-3 -0.056-0.016-0.112-9e-3 -0.056-9e-3 -0.055-0.011-0.056-0.01-0.055-0.012-0.054-0.012-0.055-0.013-0.054-0.014-0.054-0.014-0.053-0.015-0.054-0.015-0.053-0.016-0.053-0.017-0.052-0.017-0.053-0.018-0.052-0.019-0.051-0.019-0.052-0.04-0.102-0.021-0.05-0.044-0.1-0.023-0.05-0.023-0.049-0.048-0.098-0.026-0.048-0.025-0.048-0.027-0.048-0.026-0.047-0.028-0.047-0.028-0.046-0.028-0.047-0.029-0.045-0.03-0.046-0.06-0.09-0.031-0.044-0.064-0.088-0.066-0.086-0.068-0.084-0.07-0.082-0.036-0.041-0.072-0.08-0.037-0.04-0.038-0.038-0.038-0.039-0.078-0.076-0.039-0.037-0.08-0.072-0.041-0.036-0.082-0.07-0.084-0.068-0.086-0.066-0.088-0.064-0.044-0.031-0.09-0.06-0.046-0.03-0.046-0.029-0.092-0.056-0.047-0.028-0.047-0.026-0.048-0.027-0.096-0.05-0.049-0.025-0.049-0.024-0.049-0.023-0.05-0.023-0.1-0.044-0.05-0.021-0.102-0.04-0.052-0.019-0.051-0.019-0.052-0.018-0.053-0.017-0.052-0.017-0.053-0.016-0.053-0.015-0.054-0.015-0.053-0.014-0.054-0.014-0.054-0.013-0.11-0.024-0.054-0.01-0.056-0.011-0.055-9e-3 -0.056-9e-3 -0.112-0.016-0.056-7e-3 -0.057-6e-3 -0.114-0.01-0.058-4e-3 -0.057-3e-3 -0.058-3e-3 -0.058-1e-3 -0.058-2e-3h-0.064 5e-3l-0.06-1e-3 -0.059-4e-3 -0.06-6e-3 -0.059-8e-3 -0.058-0.011-0.059-0.012-0.057-0.016-0.057-0.017-0.056-0.02-0.056-0.022-0.054-0.024-0.054-0.027-0.052-0.028-0.052-0.031-0.05-0.032-0.048-0.035-0.048-0.036-0.045-0.038-0.045-0.04-0.042-0.042-0.041-0.043-0.039-0.045-0.038-0.047-0.035-0.048-0.033-0.049-0.032-0.051-0.029-0.052-0.028-0.053-0.025-0.054-0.023-0.055-0.021-0.056-0.019-0.056-0.016-0.058-0.014-0.058-0.012-0.058-9e-3 -0.059-8e-3 -0.059-4e-3 -0.06-3e-3 -0.059v-0.06l3e-3 -0.059 4e-3 -0.06 8e-3 -0.059 9e-3 -0.059 0.012-0.058 0.014-0.058 0.016-0.058 0.019-0.056 0.021-0.056 0.023-0.055 0.025-0.054 0.028-0.053 0.029-0.052 0.032-0.051 0.033-0.049 0.035-0.048 0.038-0.047 0.039-0.045 0.041-0.043 0.042-0.042 0.045-0.04 0.045-0.038 0.048-0.036 0.048-0.035 0.05-0.032 0.052-0.031 0.052-0.028 0.054-0.027 0.054-0.024 0.056-0.022 0.056-0.02 0.057-0.017 0.057-0.016 0.059-0.012 0.058-0.011 0.059-8e-3 0.06-6e-3 0.059-4e-3 0.06-1e-3 0.097 1e-3z" fill="#e0baff"/><path d="m25.829 28c0.111 0.313 0.171 0.649 0.171 1v1h-20v-1c0-0.351 0.06-0.687 0.171-1l9.829-1 9.829 1zm-2.829-3v2h-14v-2h14z" fill="#737373"/><path d="m23 26c1.306 0 2.417 0.835 2.829 2h-19.658c0.412-1.165 1.523-2 2.829-2h14z" fill="#585858"/></g></g></svg>
