<?xml version="1.0" encoding="UTF-8"?>
<svg clip-rule="evenodd" fill-rule="evenodd" stroke-linejoin="round" stroke-miterlimit="1.4142" viewBox="0 0 32 32" xmlns="http://www.w3.org/2000/svg">
 <clipPath id="a">
  <path d="m0 0h32v32h-32z" clip-rule="evenodd"/>
 </clipPath>
 <path d="m0 0h32v32h-32z" fill="none"/>
 <g clip-path="url(#a)">
  <path d="m13.739 24.373c-.869.432-1.738.863-2.605 1.296-.358.174-.723.327-1.102.449-.953.307-1.964.429-2.963.359-.985-.07-1.955-.326-2.847-.751-1.698-.812-3.131-2.249-3.796-4.025-.181-.484-.306-.989-.372-1.503-.03-.235-.045-.47-.053-.707-.028-2.575-.024-5.15 0-7.725.011-.438.072-.871.193-1.291.269-.936.813-1.784 1.552-2.418.289-.247.605-.457.94-.635 1.34-.685 2.727-1.282 4.037-2.022.07-.041.134-.089.193-.145 1.34-1.312 2.654-2.653 3.98-3.98.102-.097.206-.189.319-.272.314-.233.674-.404 1.054-.499.192-.048.385-.072.583-.087.149-.003.148-.003.296 0 .198.015.391.039.583.087.38.095.74.266 1.054.499.113.083.217.175.319.272l3.441 3.441c.17.175.33.357.474.552.387.522.67 1.12.829 1.749.09-.007.18-.012.271-.016.997-.012 1.995-.007 2.993 0 .297.005.593.022.888.055.693.077 1.378.236 2.035.471 1.072.384 2.069.973 2.922 1.727 1.162 1.025 2.048 2.35 2.553 3.815.215.625.361 1.274.434 1.931.033.295.05.591.055.888.022 3.322.001 6.643.001 9.965-.003.195-.012.388-.036.582-.052.439-.164.871-.33 1.281-.239.591-.592 1.134-1.035 1.593-.483.5-1.07.898-1.715 1.16-.453.185-.933.302-1.421.347-.44.041-.885.024-1.321-.052-.196-.034-.388-.083-.58-.137-2.472-.783-4.927-1.621-7.381-2.459-.437-.156-.856-.356-1.248-.606-.343-.219-.659-.473-.953-.754-.512-.504-1.016-1.016-1.524-1.524-.199-.203-.383-.418-.547-.651-.059-.085-.116-.171-.17-.26z"/>
  <path d="m9.934 24.022c-2.413 1.035-5.243 0.342-6.901-1.731-1e-3 0-1e-3 -1e-3 -1e-3 -1e-3 -0.668-0.835-1.032-1.873-1.032-2.942v-7.494c0-1.136 0.642-2.175 1.658-2.683 1.329-0.664 3.099-1.549 3.907-1.953 0.288-0.144 0.551-0.334 0.779-0.562l3.949-3.949c0.187-0.187 0.442-0.293 0.707-0.293s0.52 0.106 0.707 0.293l3.414 3.414c0.402 0.402 0.678 0.905 0.803 1.449-0.193 0.101-8.028 16.267-7.99 16.452z" fill="#666"/>
  <path d="m17.924 7.57c.05.219.076.445.076.673v9.903c0 1.136-.642 2.175-1.658 2.683-1.569.784-3.988 1.994-6.093 3.047-.104.052-.209.1-.315.146-.038-.185-.066-.371-.084-.559-.041-.44-.023-.885.053-1.321.034-.196.083-.388.137-.58.906-2.859 1.895-5.691 2.843-8.537.143-.407.326-.795.564-1.155.16-.243.342-.467.538-.681.897-.924 1.82-1.823 2.731-2.733.203-.199.418-.383.651-.547.178-.125.364-.238.557-.339z" fill="#333"/>
  <path d="m13.583 11.674.417 1.326-1.784 2.01-1.98.99 1.407.704.357 1.296-1 .618-2-1v2.382h-2v-11.145l.423-.262zm-4.583 2.708 2.764-1.382-2.764-1.382z" fill="#fbc546"/>
  <path d="m11.643 16.704 3.699 1.849-.895 1.789-3.447-1.724c.213-.639.428-1.277.643-1.914zm1.94-5.03 1.917.958v.736l-3.284 1.642c.224-.661.447-1.323.667-1.985.143-.407.326-.795.564-1.155.044-.067.089-.132.136-.196z" fill="#af7c03"/>
  <path d="m15 21.757c0 0.796 0.316 1.559 0.879 2.122l1.453 1.453c0.439 0.439 0.975 0.77 1.564 0.967l7.155 2.385c0.915 0.305 1.921 0.151 2.703-0.413 0.782-0.563 1.246-1.469 1.246-2.433v-9.838c0-1.856-0.737-3.637-2.05-4.95-1.313-1.312-3.093-2.05-4.95-2.05h-2.757c-0.796 0-1.559 0.316-2.122 0.879l-2.242 2.242c-0.563 0.563-0.879 1.326-0.879 2.122z" fill="#666"/>
  <path d="m22.5 14.086 2.5-2.5 1.414 1.414-2.5 2.5 2.5 2.5-2.5 2.5 2.5 2.5-1.414 1.414-2.5-2.5-2.5 2.5-1.414-1.414 2.5-2.5-2.5-2.5 2.5-2.5-2.5-2.5 1.414-1.414zm-1.086 3.914 1.086 1.086 1.086-1.086-1.086-1.086z" fill="#fbc546"/>
 </g>
</svg>
