<?xml version="1.0" encoding="UTF-8"?>
<!DOCTYPE svg  PUBLIC '-//W3C//DTD SVG 1.1//EN'  'http://www.w3.org/Graphics/SVG/1.1/DTD/svg11.dtd'>
<svg clip-rule="evenodd" fill-rule="evenodd" stroke-linejoin="round" stroke-miterlimit="1.4142" version="1.1" viewBox="0 0 32 32" xml:space="preserve" xmlns="http://www.w3.org/2000/svg">
<metadata>
<rdf:RDF xmlns:cc="http://web.resource.org/cc/" xmlns:dc="http://purl.org/dc/elements/1.1/" xmlns:rdf="http://www.w3.org/1999/02/22-rdf-syntax-ns#">

     <rdf:Description rdf:about="">
       <dc:title>Mutant Standard emoji 2023.12</dc:title>
     </rdf:Description>

    <cc:work rdf:about="">
        <cc:license rdf:resource="http://creativecommons.org/licenses/by-nc-sa/4.0/"/>
        <cc:attributionName>Caius Nocturne</cc:attributionName>
        <cc:attributionURL>http://mutant.tech/</cc:attributionURL>
    </cc:work>

</rdf:RDF>
</metadata>
<rect id="norse_rune_stones" width="32" height="32" fill="none"/><clipPath id="_clip1"><rect width="32" height="32"/></clipPath><g clip-path="url(#_clip1)"><g id="outline"><path d="m13.739 24.373c-0.869 0.432-1.738 0.863-2.605 1.296-0.358 0.174-0.723 0.327-1.102 0.449-0.953 0.307-1.964 0.429-2.963 0.359-0.985-0.07-1.955-0.326-2.847-0.751-1.698-0.812-3.131-2.249-3.796-4.025-0.181-0.484-0.306-0.989-0.372-1.503-0.03-0.235-0.045-0.47-0.053-0.707-0.028-2.575-0.024-5.15 0-7.725 0.011-0.438 0.072-0.871 0.193-1.291 0.269-0.936 0.813-1.784 1.552-2.418 0.289-0.247 0.605-0.457 0.94-0.635 1.34-0.685 2.727-1.282 4.037-2.022 0.07-0.041 0.134-0.089 0.193-0.145 1.34-1.312 2.654-2.653 3.98-3.98 0.102-0.097 0.206-0.189 0.319-0.272 0.314-0.233 0.674-0.404 1.054-0.499 0.192-0.048 0.385-0.072 0.583-0.087 0.149-3e-3 0.148-3e-3 0.296 0 0.198 0.015 0.391 0.039 0.583 0.087 0.38 0.095 0.74 0.266 1.054 0.499 0.113 0.083 0.217 0.175 0.319 0.272l3.441 3.441c0.17 0.175 0.33 0.357 0.474 0.552 0.387 0.522 0.67 1.12 0.829 1.749 0.09-7e-3 0.18-0.012 0.271-0.016 0.997-0.012 1.995-7e-3 2.993 0 0.297 5e-3 0.593 0.022 0.888 0.055 0.693 0.077 1.378 0.236 2.035 0.471 1.072 0.384 2.069 0.973 2.922 1.727 1.162 1.025 2.048 2.35 2.553 3.815 0.215 0.625 0.361 1.274 0.434 1.931 0.033 0.295 0.05 0.591 0.055 0.888 0.022 3.322 1e-3 6.643 1e-3 9.965-3e-3 0.195-0.012 0.388-0.036 0.582-0.052 0.439-0.164 0.871-0.33 1.281-0.239 0.591-0.592 1.134-1.035 1.593-0.483 0.5-1.07 0.898-1.715 1.16-0.453 0.185-0.933 0.302-1.421 0.347-0.44 0.041-0.885 0.024-1.321-0.052-0.196-0.034-0.388-0.083-0.58-0.137-2.472-0.783-4.927-1.621-7.381-2.459-0.437-0.156-0.856-0.356-1.248-0.606-0.343-0.219-0.659-0.473-0.953-0.754-0.512-0.504-1.016-1.016-1.524-1.524-0.199-0.203-0.383-0.418-0.547-0.651-0.059-0.085-0.116-0.171-0.17-0.26z"/></g><g id="emoji"><path d="m9.934 24.022c-2.413 1.035-5.243 0.342-6.901-1.731-1e-3 0-1e-3 -1e-3 -1e-3 -1e-3 -0.668-0.835-1.032-1.873-1.032-2.942v-7.494c0-1.136 0.642-2.175 1.658-2.683 1.329-0.664 3.099-1.549 3.907-1.953 0.288-0.144 0.551-0.334 0.779-0.562l3.949-3.949c0.187-0.187 0.442-0.293 0.707-0.293s0.52 0.106 0.707 0.293l3.414 3.414c0.402 0.402 0.678 0.905 0.803 1.449-0.193 0.101-8.028 16.267-7.99 16.452z" fill="#666"/><path d="m17.924 7.57c0.05 0.219 0.076 0.445 0.076 0.673v9.903c0 1.136-0.642 2.175-1.658 2.683-1.569 0.784-3.988 1.994-6.093 3.047-0.104 0.052-0.209 0.1-0.315 0.146-0.038-0.185-0.066-0.371-0.084-0.559-0.041-0.44-0.023-0.885 0.053-1.321 0.034-0.196 0.083-0.388 0.137-0.58 0.906-2.859 1.895-5.691 2.843-8.537 0.143-0.407 0.326-0.795 0.564-1.155 0.16-0.243 0.342-0.467 0.538-0.681 0.897-0.924 1.82-1.823 2.731-2.733 0.203-0.199 0.418-0.383 0.651-0.547 0.178-0.125 0.364-0.238 0.557-0.339z" fill="#333"/><path d="m13.583 11.674 0.417 1.326-1.784 2.01-1.98 0.99 1.407 0.704 0.357 1.296-1 0.618-2-1v2.382h-2v-11.145l0.423-0.262 6.16 3.081zm-4.583 2.708 2.764-1.382-2.764-1.382v2.764z" fill="#fbc546"/><path d="m11.643 16.704 3.699 1.849-0.895 1.789-3.447-1.724c0.213-0.639 0.428-1.277 0.643-1.914zm1.94-5.03 1.917 0.958v0.736l-3.284 1.642c0.224-0.661 0.447-1.323 0.667-1.985 0.143-0.407 0.326-0.795 0.564-1.155 0.044-0.067 0.089-0.132 0.136-0.196z" fill="#af7c03"/><path d="m15 21.757c0 0.796 0.316 1.559 0.879 2.122l1.453 1.453c0.439 0.439 0.975 0.77 1.564 0.967l7.155 2.385c0.915 0.305 1.921 0.151 2.703-0.413 0.782-0.563 1.246-1.469 1.246-2.433v-9.838c0-1.856-0.737-3.637-2.05-4.95-1.313-1.312-3.093-2.05-4.95-2.05h-2.757c-0.796 0-1.559 0.316-2.122 0.879l-2.242 2.242c-0.563 0.563-0.879 1.326-0.879 2.122v7.514z" fill="#666"/><path d="m22.5 14.086 2.5-2.5 1.414 1.414-2.5 2.5 2.5 2.5-2.5 2.5 2.5 2.5-1.414 1.414-2.5-2.5-2.5 2.5-1.414-1.414 2.5-2.5-2.5-2.5 2.5-2.5-2.5-2.5 1.414-1.414 2.5 2.5zm-1.086 3.914 1.086 1.086 1.086-1.086-1.086-1.086-1.086 1.086z" fill="#fbc546"/></g></g></svg>
