<?xml version="1.0" encoding="UTF-8"?>
<!DOCTYPE svg  PUBLIC '-//W3C//DTD SVG 1.1//EN'  'http://www.w3.org/Graphics/SVG/1.1/DTD/svg11.dtd'>
<svg clip-rule="evenodd" fill-rule="evenodd" stroke-linecap="square" stroke-linejoin="round" stroke-miterlimit="1.4142" version="1.1" viewBox="0 0 32 32" xml:space="preserve" xmlns="http://www.w3.org/2000/svg">
<metadata>
<rdf:RDF xmlns:cc="http://web.resource.org/cc/" xmlns:dc="http://purl.org/dc/elements/1.1/" xmlns:rdf="http://www.w3.org/1999/02/22-rdf-syntax-ns#">

     <rdf:Description rdf:about="">
       <dc:title>Mutant Standard emoji 2023.12</dc:title>
     </rdf:Description>

    <cc:work rdf:about="">
        <cc:license rdf:resource="http://creativecommons.org/licenses/by-nc-sa/4.0/"/>
        <cc:attributionName>Caius Nocturne</cc:attributionName>
        <cc:attributionURL>http://mutant.tech/</cc:attributionURL>
    </cc:work>

</rdf:RDF>
</metadata>
<rect id="spellbook" width="32" height="32" fill="none"/><clipPath id="_clip1"><rect width="32" height="32"/></clipPath><g clip-path="url(#_clip1)"><g id="outline"><path d="m26 2h-16c-1.061 0-2.078 0.421-2.828 1.172-0.751 0.75-1.172 1.767-1.172 2.828v20c0 1.061 0.421 2.078 1.172 2.828 0.75 0.751 1.767 1.172 2.828 1.172h16v-28z"/><path d="m28 32h-18.012l-0.137-2e-3c-0.198-7e-3 -0.394-0.019-0.591-0.044-0.486-0.06-0.964-0.18-1.42-0.356-0.733-0.283-1.408-0.71-1.976-1.251-0.677-0.644-1.198-1.445-1.513-2.324-0.148-0.415-0.251-0.846-0.305-1.283-0.025-0.197-0.037-0.393-0.044-0.591-0.086-6.72-2e-3 -13.441-2e-3 -20.162 2e-3 -0.194 0.01-0.387 0.029-0.58 0.049-0.487 0.157-0.969 0.322-1.43 0.332-0.926 0.893-1.765 1.622-2.425 0.617-0.559 1.351-0.987 2.142-1.248 0.419-0.139 0.853-0.231 1.292-0.275 0.193-0.019 0.387-0.027 0.581-0.029h18.012v32z" fill-rule="nonzero"/></g><g id="emoji"><path d="m26 2h-14l-1 1v19l1 1h13l1-1v-20z" fill="#7f522f"/><path d="m6 21.008 1e-3 -0.083c0.011-0.295-0.125-2.111 0.999-2.925 0.681-0.493 0.926-0.997 1-1 1.025-0.013 1.975 1 3 1v8h-5v-4.992zm0-9.008v-0.994c4e-3 -0.348 0.058-0.69 0.176-1.018 0.283-0.791 0.531-2.955 0.824-2.988 0.074-6e-3 2.975 1 4 1v8l-2 1c-0.163 2e-3 -2.568-0.324-3 0v-5zm5-6-2 1c-0.163 2e-3 -2.601-0.299-3 1e-3v-1.001c0-1.061 0.421-2.078 1.172-2.828 0.75-0.751 1.767-1.172 2.828-1.172h1e-3l0.999 0.999v3.001z" fill="#523825"/><path d="m11 16v2c-1.025 0-1.05-0.012-2.075 1e-3 -0.074 3e-3 -0.147 7e-3 -0.221 0.014-0.318 0.035-0.627 0.113-0.919 0.242-0.768 0.341-1.369 1.003-1.633 1.801-0.093 0.281-0.14 0.572-0.151 0.867l-1e-3 0.083v-4.008c0.432-0.324 0.916-0.577 1.429-0.747 0.349-0.115 0.711-0.192 1.077-0.229 0.162-0.016 0.325-0.022 0.488-0.024h2.006zm0-10v2c-1.025 0-1.05-0.012-2.075 1e-3 -0.074 3e-3 -0.147 7e-3 -0.222 0.014-0.293 0.033-0.578 0.1-0.851 0.213-0.776 0.322-1.393 0.969-1.676 1.76-0.118 0.328-0.172 0.67-0.176 1.018v0.994-4.999c0.399-0.3 0.843-0.54 1.314-0.708 0.385-0.138 0.786-0.228 1.192-0.269 0.162-0.016 0.325-0.022 0.488-0.024h2.006z" fill="#2e1f15"/><rect x="10" y="2" width="2" height="21" fill="#2e1f15"/><path d="m26 22h-16c-1.061 0-2.078 0.421-2.828 1.172-0.751 0.75-1.172 1.767-1.172 2.828 0 2.209 1.791 4 4 4h16v-8z" fill="#2e1f15"/><path d="m26 24h-16c-0.53 0-1.039 0.211-1.414 0.586s-0.586 0.884-0.586 1.414 0.211 1.039 0.586 1.414 0.884 0.586 1.414 0.586h16v-4z" fill="#fff"/><circle cx="19" cy="11" r="6" fill="#2e1f15"/><circle cx="19" cy="11" r="4" fill="#7f522f"/><circle cx="19" cy="11" r="5" fill="none"/><clipPath id="_clip2"><circle cx="19" cy="11" r="5"/></clipPath><g clip-path="url(#_clip2)"><path d="m19.004 6-2.944 9.06 7.707-5.6h-9.526l7.706 5.6-2.943-9.06z" fill="none" stroke="#2e1f15" stroke-width="1.5px"/></g></g></g></svg>
