<?xml version="1.0" encoding="UTF-8"?>
<!DOCTYPE svg  PUBLIC '-//W3C//DTD SVG 1.1//EN'  'http://www.w3.org/Graphics/SVG/1.1/DTD/svg11.dtd'>
<svg clip-rule="evenodd" fill-rule="evenodd" stroke-linecap="round" stroke-linejoin="round" stroke-miterlimit="1.5" version="1.1" viewBox="0 0 32 32" xml:space="preserve" xmlns="http://www.w3.org/2000/svg">
<metadata>
<rdf:RDF xmlns:cc="http://web.resource.org/cc/" xmlns:dc="http://purl.org/dc/elements/1.1/" xmlns:rdf="http://www.w3.org/1999/02/22-rdf-syntax-ns#">

     <rdf:Description rdf:about="">
       <dc:title>Mutant Standard emoji 2023.12</dc:title>
     </rdf:Description>

    <cc:work rdf:about="">
        <cc:license rdf:resource="http://creativecommons.org/licenses/by-nc-sa/4.0/"/>
        <cc:attributionName>Caius Nocturne</cc:attributionName>
        <cc:attributionURL>http://mutant.tech/</cc:attributionURL>
    </cc:work>

</rdf:RDF>
</metadata>
<rect id="tarot_pentacle" width="32" height="32" fill="none"/><clipPath id="_clip1"><rect width="32" height="32"/></clipPath><g clip-path="url(#_clip1)"><g id="outline"><path d="m25 3c0-0.265-0.105-0.52-0.293-0.707-0.187-0.188-0.442-0.293-0.707-0.293h-16c-0.265 0-0.52 0.105-0.707 0.293-0.188 0.187-0.293 0.442-0.293 0.707v26c0 0.265 0.105 0.52 0.293 0.707 0.187 0.188 0.442 0.293 0.707 0.293h16c0.265 0 0.52-0.105 0.707-0.293 0.188-0.187 0.293-0.442 0.293-0.707v-26z" stroke="#000" stroke-width="4px"/></g><g id="emoji"><path d="m25 3c0-0.265-0.105-0.52-0.293-0.707-0.187-0.188-0.442-0.293-0.707-0.293h-16c-0.265 0-0.52 0.105-0.707 0.293-0.188 0.187-0.293 0.442-0.293 0.707v26c0 0.265 0.105 0.52 0.293 0.707 0.187 0.188 0.442 0.293 0.707 0.293h16c0.265 0 0.52-0.105 0.707-0.293 0.188-0.187 0.293-0.442 0.293-0.707v-26z" fill="#fff"/><path d="m8 9.625v-6.625h16v8.667l-1 2.333h-14l-1-4.375z" fill="#d0c30b"/><path d="m24 11.667v17.333h-16v-19.375l1-0.625 5 3 6-3 4 2.667z" fill="#459238"/><circle cx="16" cy="16" r="5" fill="#d29700"/><path d="m16.09 9.001 0.09 1e-3 0.089 3e-3 0.09 4e-3 0.089 5e-3 0.088 6e-3 0.089 8e-3 0.088 8e-3 0.176 0.02 0.087 0.012 0.088 0.013 0.086 0.013 0.087 0.015 0.086 0.016 0.086 0.017 0.085 0.018 0.085 0.019 0.085 0.021 0.084 0.021 0.084 0.022 0.083 0.023 0.083 0.024 0.083 0.025 0.082 0.026 0.081 0.028 0.082 0.028 0.08 0.029 0.081 0.03 0.086 0.033 0.152 0.062 0.156 0.069 0.155 0.072 0.152 0.075 0.15 0.079 0.147 0.083 0.146 0.086 0.143 0.09 0.141 0.092 0.138 0.096 0.136 0.099 0.133 0.103 0.131 0.105 0.128 0.108 0.125 0.111 0.123 0.115 0.12 0.117 0.117 0.12 0.115 0.123 0.111 0.125 0.108 0.128 0.105 0.131 0.103 0.133 0.099 0.136 0.096 0.138 0.092 0.141 0.09 0.143 0.086 0.146 0.083 0.147 0.079 0.15 0.075 0.152 0.072 0.155 0.069 0.156 0.062 0.152 0.033 0.086 0.03 0.081 0.029 0.08 0.028 0.082 0.028 0.081 0.026 0.082 0.025 0.083 0.024 0.083 0.023 0.083 0.022 0.084 0.021 0.084 0.021 0.085 0.019 0.085 0.018 0.085 0.017 0.086 0.016 0.086 0.015 0.087 0.013 0.086 0.013 0.088 0.012 0.087 0.02 0.176 8e-3 0.088 8e-3 0.089 6e-3 0.088 5e-3 0.089 4e-3 0.09 3e-3 0.089 2e-3 0.18-2e-3 0.18-3e-3 0.089-4e-3 0.09-5e-3 0.089-6e-3 0.088-8e-3 0.089-8e-3 0.088-0.02 0.176-0.012 0.087-0.013 0.088-0.013 0.086-0.015 0.087-0.016 0.086-0.017 0.086-0.018 0.085-0.019 0.085-0.021 0.085-0.021 0.084-0.022 0.084-0.023 0.083-0.024 0.083-0.025 0.083-0.026 0.082-0.028 0.081-0.028 0.082-0.029 0.08-0.03 0.081-0.033 0.086-0.062 0.152-0.069 0.156-0.072 0.155-0.075 0.152-0.079 0.15-0.083 0.147-0.086 0.146-0.09 0.143-0.092 0.141-0.096 0.138-0.099 0.136-0.103 0.133-0.105 0.131-0.108 0.128-0.111 0.125-0.115 0.123-0.117 0.12-0.12 0.117-0.123 0.115-0.125 0.111-0.128 0.108-0.131 0.105-0.133 0.103-0.136 0.099-0.138 0.096-0.141 0.092-0.143 0.09-0.146 0.086-0.147 0.083-0.15 0.079-0.152 0.075-0.155 0.072-0.156 0.069-0.152 0.062-0.086 0.033-0.081 0.03-0.08 0.029-0.082 0.028-0.081 0.028-0.082 0.026-0.083 0.025-0.083 0.024-0.083 0.023-0.084 0.022-0.084 0.021-0.085 0.021-0.085 0.019-0.085 0.018-0.086 0.017-0.086 0.016-0.087 0.015-0.086 0.013-0.088 0.013-0.087 0.012-0.176 0.02-0.088 8e-3 -0.089 8e-3 -0.088 6e-3 -0.089 5e-3 -0.09 4e-3 -0.089 3e-3 -0.18 2e-3 -0.18-2e-3 -0.089-3e-3 -0.09-4e-3 -0.089-5e-3 -0.088-6e-3 -0.089-8e-3 -0.088-8e-3 -0.176-0.02-0.087-0.012-0.088-0.013-0.086-0.013-0.087-0.015-0.086-0.016-0.086-0.017-0.085-0.018-0.085-0.019-0.085-0.021-0.084-0.021-0.084-0.022-0.083-0.023-0.083-0.024-0.083-0.025-0.082-0.026-0.081-0.028-0.082-0.028-0.08-0.029-0.081-0.03-0.086-0.033-0.152-0.062-0.156-0.069-0.155-0.072-0.152-0.075-0.15-0.079-0.147-0.083-0.146-0.086-0.143-0.09-0.141-0.092-0.138-0.096-0.136-0.099-0.133-0.103-0.131-0.105-0.128-0.108-0.125-0.111-0.123-0.115-0.12-0.117-0.117-0.12-0.115-0.123-0.111-0.125-0.108-0.128-0.105-0.131-0.103-0.133-0.099-0.136-0.096-0.138-0.092-0.141-0.09-0.143-0.086-0.146-0.083-0.147-0.079-0.15-0.075-0.152-0.072-0.155-0.069-0.156-0.062-0.152-0.033-0.086-0.03-0.081-0.029-0.08-0.028-0.082-0.028-0.081-0.026-0.082-0.025-0.083-0.024-0.083-0.023-0.083-0.022-0.084-0.021-0.084-0.021-0.085-0.019-0.085-0.018-0.085-0.017-0.086-0.016-0.086-0.015-0.087-0.013-0.086-0.013-0.088-0.012-0.087-0.02-0.176-8e-3 -0.088-8e-3 -0.089-6e-3 -0.088-5e-3 -0.089-4e-3 -0.09-3e-3 -0.089-2e-3 -0.18 2e-3 -0.18 3e-3 -0.089 4e-3 -0.09 5e-3 -0.089 6e-3 -0.088 8e-3 -0.089 8e-3 -0.088 0.02-0.176 0.012-0.087 0.013-0.088 0.013-0.086 0.015-0.087 0.016-0.086 0.017-0.086 0.018-0.085 0.019-0.085 0.021-0.085 0.021-0.084 0.022-0.084 0.023-0.083 0.024-0.083 0.025-0.083 0.026-0.082 0.028-0.081 0.028-0.082 0.029-0.08 0.03-0.081 0.033-0.086 0.062-0.152 0.069-0.156 0.072-0.155 0.075-0.152 0.079-0.15 0.083-0.147 0.086-0.146 0.09-0.143 0.092-0.141 0.096-0.138 0.099-0.136 0.103-0.133 0.105-0.131 0.108-0.128 0.111-0.125 0.115-0.123 0.117-0.12 0.12-0.117 0.123-0.115 0.125-0.111 0.128-0.108 0.131-0.105 0.133-0.103 0.136-0.099 0.138-0.096 0.141-0.092 0.143-0.09 0.146-0.086 0.147-0.083 0.15-0.079 0.152-0.075 0.155-0.072 0.156-0.069 0.152-0.062 0.086-0.033 0.081-0.03 0.08-0.029 0.082-0.028 0.081-0.028 0.082-0.026 0.083-0.025 0.083-0.024 0.083-0.023 0.084-0.022 0.084-0.021 0.085-0.021 0.085-0.019 0.085-0.018 0.086-0.017 0.086-0.016 0.087-0.015 0.086-0.013 0.088-0.013 0.087-0.012 0.176-0.02 0.088-8e-3 0.089-8e-3 0.088-6e-3 0.089-5e-3 0.09-4e-3 0.089-3e-3 0.18-2e-3 0.09 1e-3zm-0.155 1.999-0.128 4e-3 -0.128 6e-3 -0.063 5e-3 -0.064 5e-3 -0.063 6e-3 -0.063 7e-3 -0.062 7e-3 -0.063 9e-3 -0.062 9e-3 -0.124 0.02-0.122 0.024-0.122 0.026-0.06 0.014-0.06 0.016-0.06 0.015-0.118 0.034-0.059 0.018-0.059 0.019-0.058 0.019-0.058 0.02-0.057 0.021-0.058 0.021-0.057 0.022-0.112 0.046-0.112 0.049-0.11 0.051-0.108 0.054-0.107 0.057-0.106 0.059-0.104 0.061-0.102 0.064-0.101 0.066-0.099 0.069-0.097 0.071-0.095 0.073-0.094 0.075-0.091 0.078-0.09 0.08-0.088 0.081-0.086 0.084-0.084 0.086-0.081 0.088-0.08 0.09-0.078 0.091-0.075 0.094-0.073 0.095-0.071 0.097-0.069 0.099-0.066 0.101-0.064 0.102-0.061 0.104-0.059 0.106-0.057 0.107-0.054 0.108-0.051 0.11-0.049 0.112-0.046 0.112-0.022 0.057-0.021 0.058-0.021 0.057-0.02 0.058-0.019 0.058-0.019 0.059-0.018 0.059-0.034 0.118-0.015 0.06-0.016 0.06-0.014 0.06-0.026 0.122-0.024 0.122-0.02 0.124-9e-3 0.062-9e-3 0.063-7e-3 0.062-7e-3 0.063-6e-3 0.063-5e-3 0.064-5e-3 0.063-6e-3 0.128-4e-3 0.128v0.065 0.065l4e-3 0.128 6e-3 0.128 5e-3 0.063 5e-3 0.064 6e-3 0.063 7e-3 0.063 7e-3 0.062 9e-3 0.063 9e-3 0.062 0.02 0.124 0.024 0.122 0.026 0.122 0.014 0.06 0.016 0.06 0.015 0.06 0.034 0.118 0.018 0.059 0.019 0.059 0.019 0.058 0.02 0.058 0.021 0.057 0.021 0.058 0.022 0.057 0.046 0.112 0.049 0.112 0.051 0.11 0.054 0.108 0.057 0.107 0.059 0.106 0.061 0.104 0.064 0.102 0.066 0.101 0.069 0.099 0.071 0.097 0.073 0.095 0.075 0.094 0.078 0.091 0.08 0.09 0.081 0.088 0.084 0.086 0.086 0.084 0.088 0.081 0.09 0.08 0.091 0.078 0.094 0.075 0.095 0.073 0.097 0.071 0.099 0.069 0.101 0.066 0.102 0.064 0.104 0.061 0.106 0.059 0.107 0.057 0.108 0.054 0.11 0.051 0.112 0.049 0.112 0.046 0.057 0.022 0.058 0.021 0.057 0.021 0.058 0.02 0.058 0.019 0.059 0.019 0.059 0.018 0.118 0.034 0.06 0.015 0.06 0.016 0.06 0.014 0.122 0.026 0.122 0.024 0.124 0.02 0.062 9e-3 0.063 9e-3 0.062 7e-3 0.063 7e-3 0.063 6e-3 0.064 5e-3 0.063 5e-3 0.128 6e-3 0.128 4e-3h0.065 0.065l0.128-4e-3 0.128-6e-3 0.063-5e-3 0.064-5e-3 0.063-6e-3 0.063-7e-3 0.062-7e-3 0.063-9e-3 0.062-9e-3 0.124-0.02 0.122-0.024 0.122-0.026 0.06-0.014 0.06-0.016 0.06-0.015 0.118-0.034 0.059-0.018 0.059-0.019 0.058-0.019 0.058-0.02 0.057-0.021 0.058-0.021 0.057-0.022 0.112-0.046 0.112-0.049 0.11-0.051 0.108-0.054 0.107-0.057 0.106-0.059 0.104-0.061 0.102-0.064 0.101-0.066 0.099-0.069 0.097-0.071 0.095-0.073 0.094-0.075 0.091-0.078 0.09-0.08 0.088-0.081 0.086-0.084 0.084-0.086 0.081-0.088 0.08-0.09 0.078-0.091 0.075-0.094 0.073-0.095 0.071-0.097 0.069-0.099 0.066-0.101 0.064-0.102 0.061-0.104 0.059-0.106 0.057-0.107 0.054-0.108 0.051-0.11 0.049-0.112 0.046-0.112 0.022-0.057 0.021-0.058 0.021-0.057 0.02-0.058 0.019-0.058 0.019-0.059 0.018-0.059 0.034-0.118 0.015-0.06 0.016-0.06 0.014-0.06 0.026-0.122 0.024-0.122 0.02-0.124 9e-3 -0.062 9e-3 -0.063 7e-3 -0.062 7e-3 -0.063 6e-3 -0.063 5e-3 -0.064 5e-3 -0.063 6e-3 -0.128 4e-3 -0.128v-0.065-0.065l-4e-3 -0.128-6e-3 -0.128-5e-3 -0.063-5e-3 -0.064-6e-3 -0.063-7e-3 -0.063-7e-3 -0.062-9e-3 -0.063-9e-3 -0.062-0.02-0.124-0.024-0.122-0.026-0.122-0.014-0.06-0.016-0.06-0.015-0.06-0.034-0.118-0.018-0.059-0.019-0.059-0.019-0.058-0.02-0.058-0.021-0.057-0.021-0.058-0.022-0.057-0.046-0.112-0.049-0.112-0.051-0.11-0.054-0.108-0.057-0.107-0.059-0.106-0.061-0.104-0.064-0.102-0.066-0.101-0.069-0.099-0.071-0.097-0.073-0.095-0.075-0.094-0.078-0.091-0.08-0.09-0.081-0.088-0.084-0.086-0.086-0.084-0.088-0.081-0.09-0.08-0.091-0.078-0.094-0.075-0.095-0.073-0.097-0.071-0.099-0.069-0.101-0.066-0.102-0.064-0.104-0.061-0.106-0.059-0.107-0.057-0.108-0.054-0.11-0.051-0.112-0.049-0.112-0.046-0.057-0.022-0.058-0.021-0.057-0.021-0.058-0.02-0.058-0.019-0.059-0.019-0.059-0.018-0.118-0.034-0.06-0.015-0.06-0.016-0.06-0.014-0.122-0.026-0.122-0.024-0.124-0.02-0.062-9e-3 -0.063-9e-3 -0.062-7e-3 -0.063-7e-3 -0.063-6e-3 -0.064-5e-3 -0.063-5e-3 -0.128-6e-3 -0.128-4e-3h-0.065-0.065z" fill="#ffdc30"/><path d="m16.004 11-2.944 9.06 7.707-5.6h-9.526l7.706 5.6-2.943-9.06z" fill="none" stroke="#ffdc30" stroke-linecap="square" stroke-miterlimit="1.4142" stroke-width="2px"/></g><rect x="15" y="15" width="2" height="2" fill="#ffdc30"/></g></svg>
