<?xml version="1.0" encoding="UTF-8"?>
<!DOCTYPE svg  PUBLIC '-//W3C//DTD SVG 1.1//EN'  'http://www.w3.org/Graphics/SVG/1.1/DTD/svg11.dtd'>
<svg clip-rule="evenodd" fill-rule="evenodd" stroke-linecap="square" version="1.1" viewBox="0 0 32 32" xml:space="preserve" xmlns="http://www.w3.org/2000/svg">
<metadata>
<rdf:RDF xmlns:cc="http://web.resource.org/cc/" xmlns:dc="http://purl.org/dc/elements/1.1/" xmlns:rdf="http://www.w3.org/1999/02/22-rdf-syntax-ns#">

     <rdf:Description rdf:about="">
       <dc:title>Mutant Standard emoji 2023.12</dc:title>
     </rdf:Description>

    <cc:work rdf:about="">
        <cc:license rdf:resource="http://creativecommons.org/licenses/by-nc-sa/4.0/"/>
        <cc:attributionName>Caius Nocturne</cc:attributionName>
        <cc:attributionURL>http://mutant.tech/</cc:attributionURL>
    </cc:work>

</rdf:RDF>
</metadata>
<rect id="cloud" width="32" height="32" fill="none"/><clipPath id="_clip1"><rect width="32" height="32"/></clipPath><g clip-path="url(#_clip1)"><g id="outline"><path d="m13.697 9.575c1.069-2.12 3.268-3.575 5.803-3.575 3.587 0 6.5 2.913 6.5 6.5 0 0.571-0.074 1.125-0.213 1.653 2.416 0.577 4.213 2.752 4.213 5.347 0 3.038-2.462 5.5-5.5 5.5h-17c-3.038 0-5.5-2.462-5.5-5.5 0-2.881 2.215-5.245 5.033-5.479-0.023-0.171-0.033-0.345-0.033-0.521 0-2.484 2.016-4.5 4.5-4.5 0.797 0 1.546 0.208 2.197 0.575z" stroke="#000" stroke-width="4px"/></g><g id="emoji"><path d="m13.697 9.575c1.069-2.12 3.268-3.575 5.803-3.575 3.587 0 6.5 2.913 6.5 6.5 0 0.571-0.074 1.125-0.213 1.653 2.416 0.577 4.213 2.752 4.213 5.347 0 3.038-2.462 5.5-5.5 5.5h-17c-3.038 0-5.5-2.462-5.5-5.5 0-2.881 2.215-5.245 5.033-5.479-0.023-0.171-0.033-0.345-0.033-0.521 0-2.484 2.016-4.5 4.5-4.5 0.797 0 1.546 0.208 2.197 0.575z" fill="#e6e6e6"/><path d="m13.696 9.572c1.072-2.118 3.27-3.572 5.804-3.572 3.587 0 6.5 2.913 6.5 6.5 0 0.571-0.074 1.124-0.212 1.652 2.416 0.579 4.212 2.754 4.212 5.348 0 3.038-2.462 5.5-5.5 5.5h-17c-3.038 0-5.5-2.462-5.5-5.5 0-2.879 2.212-5.242 5.03-5.48-0.02-0.171-0.03-0.344-0.03-0.52 0-2.484 2.016-4.5 4.5-4.5 0.797 0 1.546 0.208 2.196 0.572z" fill="none"/><clipPath id="_clip2"><path d="m13.696 9.572c1.072-2.118 3.27-3.572 5.804-3.572 3.587 0 6.5 2.913 6.5 6.5 0 0.571-0.074 1.124-0.212 1.652 2.416 0.579 4.212 2.754 4.212 5.348 0 3.038-2.462 5.5-5.5 5.5h-17c-3.038 0-5.5-2.462-5.5-5.5 0-2.879 2.212-5.242 5.03-5.48-0.02-0.171-0.03-0.344-0.03-0.52 0-2.484 2.016-4.5 4.5-4.5 0.797 0 1.546 0.208 2.196 0.572z"/></clipPath><g clip-path="url(#_clip2)"><path d="m27 10-0.764-0.382c-1.55-0.775-3.391-0.692-4.865 0.219s-2.371 2.52-2.371 4.253v1.91h-2.5c-2.485 0-4.5 2.015-4.5 4.5 0 1.193 0.474 2.338 1.318 3.182s1.989 1.318 3.182 1.318h17.5v-15h-7z" fill="#bfbfbf"/></g><path d="m19.584 6.001 0.084 1e-3 0.166 6e-3 0.083 5e-3 0.083 6e-3 0.082 7e-3 0.164 0.016 0.081 0.01 0.082 0.011 0.08 0.012 0.081 0.013 0.16 0.028 0.079 0.016 0.079 0.017 0.158 0.036 0.078 0.02 0.077 0.02 0.078 0.022 0.077 0.022 0.076 0.023 0.152 0.05 0.075 0.026 0.075 0.027 0.074 0.027 0.074 0.029 0.074 0.03 0.073 0.03 0.073 0.031 0.144 0.066 0.071 0.033 0.071 0.035 0.14 0.072 0.069 0.037 0.069 0.038 0.136 0.078 0.134 0.082 0.132 0.084 0.13 0.088 0.064 0.045 0.126 0.092 0.062 0.047 0.062 0.048 0.122 0.098 0.06 0.05 0.059 0.051 0.058 0.051 0.058 0.052 0.058 0.053 0.057 0.054 0.056 0.054 0.11 0.11 0.054 0.056 0.054 0.057 0.053 0.058 0.052 0.058 0.051 0.058 0.051 0.059 0.05 0.06 0.098 0.122 0.048 0.062 0.047 0.062 0.092 0.126 0.045 0.064 0.088 0.13 0.084 0.132 0.082 0.134 0.078 0.136 0.038 0.069 0.037 0.069 0.072 0.14 0.035 0.071 0.033 0.071 0.066 0.144 0.031 0.073 0.03 0.073 0.03 0.074 0.029 0.074 0.027 0.074 0.027 0.075 0.026 0.075 0.05 0.152 0.023 0.076 0.022 0.077 0.022 0.078 0.02 0.077 0.02 0.078 0.036 0.158 0.017 0.079 0.016 0.079 0.028 0.16 0.013 0.081 0.012 0.08 0.011 0.082 0.01 0.081 0.016 0.164 7e-3 0.082 6e-3 0.083 5e-3 0.083 6e-3 0.166 2e-3 0.168-1e-3 0.107-2e-3 0.106-5e-3 0.106-6e-3 0.106-7e-3 0.105-0.01 0.104-0.011 0.104-0.012 0.104-0.014 0.103-0.016 0.103-0.018 0.102-0.019 0.101-0.02 0.101-0.022 0.101-0.024 0.099-0.025 0.1 0.113 0.028 0.112 0.031 0.11 0.033 0.11 0.035 0.109 0.037 0.108 0.04 0.107 0.042 0.106 0.044 0.104 0.046 0.104 0.048 0.102 0.05 0.101 0.052 0.1 0.054 0.098 0.057 0.097 0.058 0.096 0.06 0.095 0.062 0.093 0.064 0.092 0.066 0.091 0.068 0.088 0.069 0.088 0.071 0.086 0.073 0.084 0.075 0.083 0.076 0.082 0.078 0.079 0.08 0.079 0.081 0.076 0.083 0.075 0.084 0.073 0.086 0.071 0.087 0.07 0.089 0.067 0.091 0.066 0.091 0.064 0.094 0.062 0.094 0.061 0.096 0.058 0.097 0.056 0.099 0.055 0.099 0.052 0.101 0.05 0.102 0.049 0.104 0.046 0.104 0.044 0.106 0.042 0.107 0.04 0.107 0.037 0.109 0.036 0.11 0.033 0.111 0.03 0.112 0.029 0.113 0.026 0.113 0.024 0.115 0.021 0.115 0.019 0.116 0.017 0.117 0.014 0.118 0.011 0.119 9e-3 0.119 7e-3 0.12 4e-3 0.121 1e-3 0.121v0.071l-4e-3 0.142-3e-3 0.07-4e-3 0.07-5e-3 0.07-6e-3 0.07-6e-3 0.069-8e-3 0.07-8e-3 0.068-9e-3 0.069-0.01 0.069-0.011 0.068-0.012 0.068-0.012 0.067-0.028 0.134-0.015 0.067-0.016 0.066-0.016 0.067-0.018 0.065-0.018 0.066-0.038 0.13-0.042 0.128-0.022 0.064-0.046 0.126-0.024 0.063-0.025 0.062-0.026 0.062-0.054 0.122-0.028 0.061-0.028 0.06-0.06 0.12-0.03 0.059-0.032 0.059-0.032 0.058-0.033 0.058-0.033 0.057-0.034 0.057-0.07 0.112-0.037 0.056-0.036 0.055-0.038 0.055-0.076 0.108-0.04 0.053-0.04 0.052-0.04 0.053-0.041 0.051-0.042 0.052-0.042 0.05-0.043 0.05-0.044 0.05-0.088 0.098-0.046 0.048-0.092 0.094-0.094 0.092-0.048 0.046-0.098 0.088-0.05 0.044-0.05 0.043-0.05 0.042-0.052 0.042-0.051 0.041-0.053 0.04-0.052 0.04-0.053 0.04-0.108 0.076-0.055 0.038-0.055 0.036-0.056 0.037-0.112 0.07-0.057 0.034-0.057 0.033-0.058 0.033-0.058 0.032-0.059 0.032-0.059 0.03-0.12 0.06-0.06 0.028-0.061 0.028-0.122 0.054-0.062 0.026-0.062 0.025-0.063 0.024-0.126 0.046-0.064 0.022-0.128 0.042-0.13 0.038-0.066 0.018-0.065 0.018-0.067 0.016-0.066 0.016-0.067 0.015-0.134 0.028-0.067 0.012-0.068 0.012-0.068 0.011-0.069 0.01-0.068 9e-3 -0.069 8e-3 -0.07 8e-3 -0.069 6e-3 -0.07 6e-3 -0.07 5e-3 -0.07 4e-3 -0.07 3e-3 -0.142 4e-3h-0.071-17-0.071l-0.142-4e-3 -0.07-3e-3 -0.07-4e-3 -0.07-5e-3 -0.07-6e-3 -0.069-6e-3 -0.07-8e-3 -0.069-8e-3 -0.068-9e-3 -0.069-0.01-0.068-0.011-0.068-0.012-0.067-0.012-0.134-0.028-0.067-0.015-0.066-0.016-0.067-0.016-0.065-0.018-0.066-0.018-0.13-0.038-0.128-0.042-0.064-0.022-0.126-0.046-0.063-0.024-0.062-0.025-0.062-0.026-0.122-0.054-0.061-0.028-0.06-0.028-0.12-0.06-0.059-0.03-0.059-0.032-0.058-0.032-0.058-0.033-0.057-0.033-0.057-0.034-0.112-0.07-0.056-0.037-0.055-0.036-0.055-0.038-0.108-0.076-0.053-0.04-0.052-0.04-0.053-0.04-0.051-0.041-0.052-0.042-0.05-0.042-0.05-0.043-0.05-0.044-0.098-0.088-0.048-0.046-0.094-0.092-0.092-0.094-0.046-0.048-0.088-0.098-0.044-0.05-0.043-0.05-0.042-0.05-0.042-0.052-0.041-0.051-0.04-0.053-0.04-0.052-0.04-0.053-0.076-0.108-0.038-0.055-0.036-0.055-0.037-0.056-0.07-0.112-0.034-0.057-0.033-0.057-0.033-0.058-0.032-0.058-0.032-0.059-0.03-0.059-0.06-0.12-0.028-0.06-0.028-0.061-0.054-0.122-0.026-0.062-0.025-0.062-0.024-0.063-0.046-0.126-0.022-0.064-0.042-0.128-0.038-0.13-0.018-0.066-0.018-0.065-0.016-0.067-0.016-0.066-0.015-0.067-0.028-0.134-0.012-0.067-0.012-0.068-0.011-0.068-0.01-0.069-9e-3 -0.069-8e-3 -0.068-8e-3 -0.07-6e-3 -0.069-6e-3 -0.07-5e-3 -0.07-4e-3 -0.07-3e-3 -0.07-4e-3 -0.142v-0.071-0.067l2e-3 -0.068 2e-3 -0.067 2e-3 -0.066 4e-3 -0.067 4e-3 -0.066 0.018-0.198 8e-3 -0.066 8e-3 -0.065 9e-3 -0.065 0.01-0.065 0.01-0.064 0.036-0.192 0.014-0.064 0.014-0.063 0.015-0.063 0.016-0.062 0.016-0.063 0.017-0.062 0.018-0.061 0.018-0.062 0.019-0.061 0.02-0.061 0.021-0.06 0.043-0.121 0.046-0.118 0.048-0.118 0.051-0.116 0.054-0.115 0.056-0.113 0.059-0.112 0.061-0.11 0.064-0.108 0.066-0.107 0.068-0.106 0.071-0.103 0.073-0.102 0.075-0.101 0.077-0.098 0.08-0.097 0.082-0.094 0.083-0.093 0.086-0.091 0.088-0.089 0.09-0.087 0.092-0.085 0.094-0.083 0.095-0.081 0.098-0.078 0.099-0.077 0.101-0.074 0.103-0.072 0.105-0.069 0.106-0.067 0.108-0.065 0.109-0.063 0.111-0.06 0.112-0.057 0.114-0.055 0.116-0.053 0.116-0.049 0.118-0.048 0.12-0.044 0.121-0.042 0.06-0.02 0.062-0.019 0.061-0.018 0.062-0.018 0.124-0.034 0.189-0.045 0.063-0.013 0.064-0.013 0.064-0.012 0.064-0.011 0.065-0.011 0.064-0.01 0.065-9e-3 0.066-8e-3 0.065-7e-3 0.066-7e-3 0.066-6e-3 -7e-3 -0.064-6e-3 -0.065-5e-3 -0.064-8e-3 -0.13-2e-3 -0.066-2e-3 -0.065v-0.066l1e-3 -0.116 5e-3 -0.115 7e-3 -0.115 0.01-0.114 0.013-0.113 0.016-0.112 0.018-0.111 0.021-0.11 0.024-0.11 0.027-0.108 0.029-0.107 0.031-0.107 0.035-0.105 0.036-0.104 0.039-0.102 0.042-0.102 0.044-0.1 0.046-0.099 0.049-0.098 0.05-0.096 0.054-0.095 0.055-0.094 0.057-0.092 0.06-0.09 0.062-0.089 0.063-0.088 0.066-0.086 0.068-0.084 0.07-0.082 0.072-0.081 0.073-0.079 0.076-0.077 0.077-0.076 0.079-0.073 0.081-0.072 0.082-0.07 0.084-0.068 0.086-0.066 0.088-0.063 0.089-0.062 0.09-0.06 0.092-0.057 0.094-0.055 0.095-0.054 0.096-0.05 0.098-0.049 0.099-0.046 0.1-0.044 0.102-0.042 0.102-0.039 0.104-0.036 0.105-0.035 0.107-0.031 0.107-0.029 0.108-0.027 0.11-0.024 0.11-0.021 0.111-0.018 0.112-0.016 0.113-0.013 0.114-0.01 0.115-7e-3 0.115-5e-3 0.116-1e-3 0.075 1e-3 0.074 1e-3 0.074 3e-3 0.074 5e-3 0.073 5e-3 0.146 0.014 0.072 9e-3 0.072 0.01 0.072 0.011 0.142 0.026 0.07 0.014 0.07 0.016 0.07 0.017 0.069 0.017 0.069 0.019 0.069 0.02 0.068 0.021 0.067 0.022 0.067 0.023 0.066 0.024 0.066 0.025 0.066 0.026 0.065 0.027 0.065 0.028 0.064 0.029 0.063 0.03 0.063 0.031 0.124 0.064 0.061 0.034 0.051-0.099 0.053-0.097 0.054-0.097 0.056-0.096 0.058-0.095 0.059-0.093 0.06-0.093 0.062-0.092 0.064-0.09 0.065-0.089 0.067-0.088 0.068-0.087 0.069-0.086 0.071-0.084 0.072-0.084 0.074-0.082 0.075-0.08 0.076-0.08 0.078-0.078 0.079-0.077 0.08-0.076 0.081-0.074 0.083-0.073 0.084-0.071 0.085-0.07 0.087-0.069 0.087-0.067 0.089-0.066 0.09-0.064 0.091-0.062 0.092-0.062 0.094-0.059 0.094-0.058 0.095-0.057 0.097-0.055 0.097-0.053 0.098-0.052 0.1-0.05 0.1-0.049 0.101-0.046 0.103-0.045 0.103-0.044 0.104-0.041 0.105-0.04 0.105-0.038 0.107-0.037 0.107-0.034 0.109-0.033 0.109-0.031 0.109-0.029 0.111-0.027 0.111-0.025 0.112-0.023 0.113-0.022 0.113-0.019 0.114-0.017 0.114-0.016 0.116-0.013 0.116-0.012 0.116-9e-3 0.117-7e-3 0.117-6e-3 0.118-3e-3 0.119-1e-3 0.084 1e-3zm-0.185 1-0.1 3e-3 -0.099 4e-3 -0.1 6e-3 -0.098 8e-3 -0.098 0.01-0.098 0.011-0.097 0.013-0.096 0.015-0.096 0.017-0.095 0.018-0.095 0.019-0.093 0.022-0.094 0.023-0.093 0.024-0.092 0.026-0.091 0.028-0.091 0.029-0.09 0.031-0.089 0.032-0.089 0.033-0.088 0.036-0.087 0.036-0.086 0.038-0.086 0.04-0.085 0.041-0.084 0.042-0.083 0.044-0.083 0.045-0.081 0.046-0.081 0.048-0.08 0.05-0.078 0.05-0.078 0.052-0.078 0.053-0.076 0.054-0.075 0.056-0.074 0.057-0.073 0.058-0.072 0.059-0.072 0.061-0.07 0.061-0.069 0.063-0.068 0.064-0.067 0.065-0.13 0.134-0.064 0.068-0.062 0.07-0.061 0.071-0.06 0.071-0.059 0.073-0.058 0.073-0.056 0.075-0.055 0.076-0.054 0.076-0.053 0.077-0.051 0.079-0.05 0.079-0.048 0.08-0.048 0.081-0.046 0.082-0.044 0.083-0.519 1.003-0.954-0.525-0.096-0.05-0.049-0.024-0.049-0.023-0.05-0.023-0.05-0.022-0.05-0.02-0.051-0.021-0.052-0.019-0.051-0.019-0.052-0.018-0.052-0.017-0.053-0.016-0.053-0.015-0.054-0.015-0.053-0.014-0.054-0.013-0.055-0.012-0.055-0.011-0.11-0.02-0.112-0.016-0.056-7e-3 -0.056-6e-3 -0.057-5e-3 -0.057-4e-3 -0.058-4e-3 -0.058-2e-3 -0.058-1e-3 -0.056-1e-3 -0.093 1e-3 -0.09 4e-3 -0.089 5e-3 -0.089 8e-3 -0.088 0.01-0.087 0.012-0.086 0.015-0.086 0.016-0.085 0.019-0.084 0.02-0.083 0.023-0.082 0.024-0.082 0.027-0.081 0.028-0.079 0.031-0.079 0.032-0.078 0.034-0.077 0.036-0.076 0.038-0.075 0.039-0.073 0.041-0.073 0.043-0.072 0.045-0.07 0.047-0.07 0.048-0.068 0.049-0.067 0.052-0.065 0.052-0.064 0.055-0.063 0.056-0.062 0.057-0.06 0.059-0.059 0.06-0.057 0.062-0.056 0.063-0.055 0.064-0.052 0.065-0.052 0.067-0.049 0.068-0.048 0.07-0.047 0.07-0.045 0.072-0.043 0.073-0.041 0.073-0.039 0.075-0.038 0.076-0.036 0.077-0.034 0.078-0.032 0.079-0.031 0.079-0.028 0.081-0.027 0.082-0.024 0.082-0.023 0.083-0.02 0.084-0.019 0.085-0.016 0.086-0.015 0.086-0.012 0.087-0.01 0.088-8e-3 0.089-5e-3 0.089-4e-3 0.09-1e-3 0.094v0.048l2e-3 0.052 1e-3 0.051 3e-3 0.05 3e-3 0.051 4e-3 0.05 5e-3 0.05 0.115 1.069-1.073 0.097-0.054 6e-3 -0.053 6e-3 -0.054 7e-3 -0.053 7e-3 -0.053 8e-3 -0.052 9e-3 -0.053 9e-3 -0.104 0.02-0.052 0.011-0.052 0.012-0.051 0.012-0.102 0.026-0.051 0.014-0.05 0.015-0.051 0.015-0.05 0.016-0.046 0.015-0.102 0.035-0.097 0.036-0.097 0.039-0.095 0.041-0.095 0.042-0.093 0.045-0.092 0.047-0.09 0.049-0.09 0.052-0.088 0.053-0.087 0.055-0.085 0.057-0.084 0.058-0.083 0.061-0.082 0.063-0.079 0.064-0.079 0.066-0.077 0.068-0.075 0.07-0.074 0.071-0.072 0.073-0.07 0.074-0.069 0.076-0.067 0.078-0.065 0.079-0.063 0.081-0.062 0.082-0.059 0.083-0.058 0.085-0.056 0.086-0.054 0.088-0.052 0.089-0.05 0.09-0.048 0.091-0.046 0.093-0.044 0.093-0.042 0.095-0.039 0.096-0.038 0.097-0.036 0.101-0.016 0.047-0.032 0.1-0.015 0.05-0.014 0.05-0.028 0.102-0.012 0.051-0.013 0.051-0.033 0.156-9e-3 0.052-0.01 0.053-8e-3 0.052-8e-3 0.053-8e-3 0.054-6e-3 0.053-7e-3 0.054-5e-3 0.053-5e-3 0.054-4e-3 0.055-4e-3 0.054-3e-3 0.055-2e-3 0.054-2e-3 0.055-1e-3 0.056v0.055 0.058l1e-3 0.059 2e-3 0.058 3e-3 0.057 3e-3 0.058 4e-3 0.057 0.01 0.114 6e-3 0.057 7e-3 0.056 8e-3 0.057 8e-3 0.056 9e-3 0.055 9e-3 0.056 0.011 0.055 0.01 0.055 0.012 0.055 0.012 0.054 0.013 0.054 0.028 0.108 0.015 0.054 0.015 0.053 0.016 0.053 0.034 0.104 0.018 0.053 0.019 0.051 0.019 0.052 0.04 0.102 0.021 0.05 0.022 0.051 0.022 0.049 0.023 0.05 0.023 0.049 0.024 0.049 0.025 0.049 0.025 0.048 0.052 0.096 0.054 0.094 0.028 0.047 0.028 0.046 0.029 0.046 0.06 0.09 0.031 0.045 0.062 0.088 0.033 0.044 0.032 0.043 0.033 0.043 0.068 0.084 0.035 0.042 0.035 0.041 0.108 0.12 0.037 0.04 0.038 0.038 0.038 0.039 0.038 0.038 0.039 0.038 0.04 0.037 0.12 0.108 0.042 0.035 0.041 0.035 0.084 0.068 0.043 0.033 0.043 0.032 0.044 0.033 0.088 0.062 0.045 0.031 0.09 0.06 0.046 0.029 0.046 0.028 0.047 0.028 0.094 0.054 0.096 0.052 0.048 0.025 0.049 0.025 0.049 0.024 0.049 0.023 0.05 0.023 0.049 0.022 0.051 0.022 0.05 0.021 0.102 0.04 0.104 0.038 0.052 0.018 0.104 0.034 0.053 0.016 0.054 0.015 0.053 0.015 0.108 0.028 0.054 0.013 0.054 0.012 0.055 0.012 0.055 0.01 0.055 0.011 0.056 9e-3 0.055 9e-3 0.056 8e-3 0.057 8e-3 0.056 7e-3 0.057 6e-3 0.114 0.01 0.057 4e-3 0.058 3e-3 0.057 3e-3 0.058 2e-3 0.059 1e-3h0.061 16.994 0.061l0.059-1e-3 0.058-2e-3 0.057-3e-3 0.058-3e-3 0.057-4e-3 0.114-0.01 0.057-6e-3 0.056-7e-3 0.057-8e-3 0.056-8e-3 0.055-9e-3 0.056-9e-3 0.055-0.011 0.055-0.01 0.055-0.012 0.054-0.012 0.054-0.013 0.108-0.028 0.053-0.015 0.054-0.015 0.053-0.016 0.104-0.034 0.052-0.018 0.104-0.038 0.102-0.04 0.05-0.021 0.051-0.022 0.049-0.022 0.05-0.023 0.049-0.023 0.049-0.024 0.049-0.025 0.048-0.025 0.096-0.052 0.094-0.054 0.047-0.028 0.046-0.028 0.046-0.029 0.09-0.06 0.045-0.031 0.088-0.062 0.044-0.033 0.043-0.032 0.043-0.033 0.084-0.068 0.041-0.035 0.042-0.035 0.12-0.108 0.04-0.037 0.038-0.038 0.039-0.038 0.038-0.039 0.038-0.038 0.037-0.04 0.108-0.12 0.035-0.041 0.035-0.042 0.068-0.084 0.033-0.043 0.032-0.043 0.033-0.044 0.062-0.088 0.031-0.045 0.06-0.09 0.029-0.046 0.028-0.046 0.028-0.047 0.054-0.094 0.052-0.096 0.025-0.048 0.025-0.049 0.024-0.049 0.023-0.049 0.023-0.05 0.022-0.049 0.022-0.051 0.021-0.05 0.04-0.102 0.038-0.104 0.018-0.052 0.034-0.104 0.016-0.053 0.015-0.054 0.015-0.053 0.028-0.108 0.013-0.054 0.012-0.054 0.012-0.055 0.01-0.055 0.011-0.055 9e-3 -0.056 9e-3 -0.055 8e-3 -0.056 8e-3 -0.057 7e-3 -0.056 6e-3 -0.057 0.01-0.114 4e-3 -0.057 3e-3 -0.058 3e-3 -0.057 2e-3 -0.058 1e-3 -0.059v-0.056l-1e-3 -0.102-3e-3 -0.099-6e-3 -0.098-7e-3 -0.098-0.01-0.097-0.011-0.096-0.014-0.096-0.015-0.095-0.018-0.094-0.019-0.094-0.021-0.093-0.024-0.092-0.025-0.091-0.027-0.091-0.029-0.09-0.03-0.088-0.033-0.089-0.034-0.087-0.036-0.086-0.038-0.085-0.039-0.085-0.041-0.083-0.043-0.083-0.045-0.081-0.046-0.081-0.047-0.08-0.05-0.078-0.051-0.077-0.052-0.077-0.054-0.075-0.055-0.074-0.057-0.072-0.059-0.072-0.06-0.07-0.061-0.07-0.062-0.067-0.064-0.067-0.066-0.065-0.066-0.064-0.068-0.063-0.07-0.061-0.07-0.06-0.072-0.058-0.073-0.057-0.074-0.055-0.075-0.054-0.076-0.052-0.078-0.051-0.078-0.049-0.08-0.048-0.08-0.046-0.082-0.044-0.082-0.043-0.084-0.041-0.084-0.039-0.086-0.038-0.086-0.036-0.087-0.034-0.089-0.033-0.089-0.03-0.089-0.029-0.091-0.027-0.091-0.025-1.075-0.27 0.27-1.063 0.02-0.084 0.019-0.085 0.017-0.085 0.016-0.086 0.015-0.087 0.013-0.086 0.012-0.088 0.011-0.087 9e-3 -0.088 8e-3 -0.089 6e-3 -0.089 5e-3 -0.089 4e-3 -0.09 2e-3 -0.09 1e-3 -0.092v-0.07l-4e-3 -0.142-3e-3 -0.071-4e-3 -0.07-5e-3 -0.07-6e-3 -0.07-6e-3 -0.069-0.016-0.138-9e-3 -0.069-0.01-0.068-0.011-0.068-0.012-0.068-0.013-0.067-0.013-0.068-0.014-0.066-0.015-0.067-0.032-0.132-0.018-0.066-0.018-0.065-0.038-0.13-0.042-0.128-0.022-0.064-0.046-0.126-0.024-0.062-0.025-0.063-0.026-0.061-0.027-0.062-0.027-0.061-0.028-0.06-0.028-0.061-0.029-0.06-0.03-0.059-0.031-0.059-0.032-0.059-0.032-0.058-0.033-0.058-0.033-0.057-0.034-0.057-0.07-0.112-0.037-0.056-0.036-0.055-0.038-0.055-0.076-0.108-0.08-0.106-0.04-0.052-0.041-0.052-0.042-0.051-0.043-0.051-0.086-0.1-0.044-0.049-0.045-0.048-0.045-0.049-0.046-0.047-0.094-0.094-0.047-0.046-0.049-0.045-0.048-0.045-0.049-0.044-0.1-0.086-0.051-0.043-0.051-0.042-0.052-0.041-0.052-0.04-0.106-0.08-0.108-0.076-0.055-0.038-0.055-0.036-0.056-0.037-0.112-0.07-0.057-0.034-0.057-0.033-0.058-0.033-0.058-0.032-0.059-0.032-0.059-0.031-0.059-0.03-0.06-0.029-0.061-0.028-0.06-0.028-0.061-0.027-0.062-0.027-0.062-0.026-0.062-0.025-0.062-0.024-0.126-0.046-0.064-0.022-0.128-0.042-0.13-0.038-0.065-0.018-0.066-0.018-0.132-0.032-0.067-0.015-0.066-0.014-0.068-0.014-0.067-0.012-0.068-0.012-0.068-0.011-0.068-0.01-0.069-9e-3 -0.138-0.016-0.069-6e-3 -0.07-6e-3 -0.07-5e-3 -0.07-4e-3 -0.071-3e-3 -0.142-4e-3h-0.07l-0.102 1e-3z" fill="#e6e6e6"/></g></g></svg>
