<?xml version="1.0" encoding="UTF-8"?>
<!DOCTYPE svg  PUBLIC '-//W3C//DTD SVG 1.1//EN'  'http://www.w3.org/Graphics/SVG/1.1/DTD/svg11.dtd'>
<svg clip-rule="evenodd" fill-rule="evenodd" stroke-linejoin="round" stroke-miterlimit="1.4142" version="1.1" viewBox="0 0 32 32" xml:space="preserve" xmlns="http://www.w3.org/2000/svg">
<metadata>
<rdf:RDF xmlns:cc="http://web.resource.org/cc/" xmlns:dc="http://purl.org/dc/elements/1.1/" xmlns:rdf="http://www.w3.org/1999/02/22-rdf-syntax-ns#">

     <rdf:Description rdf:about="">
       <dc:title>Mutant Standard emoji 2023.12</dc:title>
     </rdf:Description>

    <cc:work rdf:about="">
        <cc:license rdf:resource="http://creativecommons.org/licenses/by-nc-sa/4.0/"/>
        <cc:attributionName>Caius Nocturne</cc:attributionName>
        <cc:attributionURL>http://mutant.tech/</cc:attributionURL>
    </cc:work>

</rdf:RDF>
</metadata>
<rect id="lightning_bolt" width="32" height="32" fill="none"/><g id="outline"><path d="m19.221 0.012 0.146 0.022 0.145 0.033 0.142 0.043 0.138 0.054 0.134 0.063 0.129 0.074 0.123 0.082 0.116 0.092 0.109 0.1 0.102 0.108 0.094 0.115 0.084 0.122 0.076 0.127 0.065 0.133 0.056 0.138 0.045 0.141 0.035 0.144 0.024 0.146 0.013 0.148 2e-3 0.148-8e-3 0.148-0.02 0.147-0.031 0.145-2.378 9.515h6.438l0.147 5e-3 0.147 0.017 0.145 0.027 0.143 0.038 0.139 0.048 0.136 0.058 0.131 0.068 0.126 0.078 0.119 0.086 0.113 0.095 0.105 0.104 0.098 0.111 0.089 0.117 0.08 0.124 0.071 0.13 0.061 0.134 0.051 0.138 0.041 0.142 0.03 0.145 0.019 0.146 9e-3 0.147-3e-3 0.148-0.013 0.147-0.024 0.146-0.035 0.143-0.045 0.141-0.056 0.136-0.065 0.133-0.075 0.127-0.084 0.121-12 16-0.093 0.115-0.102 0.108-0.109 0.1-0.117 0.092-0.122 0.083-0.129 0.074-0.134 0.064-0.138 0.053-0.142 0.044-0.144 0.033-0.147 0.022-0.148 0.011h-0.148l-0.148-0.011-0.146-0.022-0.145-0.033-0.142-0.043-0.138-0.054-0.134-0.063-0.129-0.074-0.123-0.082-0.116-0.092-0.11-0.1-0.101-0.108-0.094-0.115-0.084-0.122-0.076-0.127-0.065-0.133-0.056-0.138-0.045-0.141-0.035-0.144-0.024-0.146-0.013-0.148-3e-3 -0.148 9e-3 -0.148 0.02-0.147 0.031-0.145 2.378-9.515h-6.438l-0.147-5e-3 -0.147-0.017-0.145-0.027-0.143-0.038-0.139-0.048-0.136-0.058-0.131-0.068-0.125-0.078-0.12-0.086-0.113-0.095-0.105-0.104-0.098-0.111-0.089-0.117-0.08-0.124-0.071-0.13-0.061-0.134-0.051-0.138-0.041-0.142-0.03-0.145-0.019-0.146-9e-3 -0.147 3e-3 -0.148 0.013-0.147 0.024-0.146 0.035-0.143 0.045-0.141 0.056-0.136 0.065-0.133 0.075-0.127 0.084-0.121 12-16 0.093-0.115 0.102-0.108 0.109-0.1 0.116-0.092 0.123-0.083 0.129-0.074 0.134-0.064 0.138-0.053 0.142-0.044 0.144-0.033 0.147-0.022 0.148-0.011h0.148l0.148 0.011zm-12.221 17.988h9l-3 12 12-16h-9l3-12-12 16z"/></g><g id="emoji"><path d="m19 2-12 16h9l-3 12 12-16h-9l3-12z" fill="#fdef24"/></g></svg>
