<?xml version="1.0" encoding="UTF-8"?>
<!DOCTYPE svg  PUBLIC '-//W3C//DTD SVG 1.1//EN'  'http://www.w3.org/Graphics/SVG/1.1/DTD/svg11.dtd'>
<svg clip-rule="evenodd" fill-rule="evenodd" stroke-linejoin="round" stroke-miterlimit="1.4142" version="1.1" viewBox="0 0 32 32" xml:space="preserve" xmlns="http://www.w3.org/2000/svg">
<metadata>
<rdf:RDF xmlns:cc="http://web.resource.org/cc/" xmlns:dc="http://purl.org/dc/elements/1.1/" xmlns:rdf="http://www.w3.org/1999/02/22-rdf-syntax-ns#">

     <rdf:Description rdf:about="">
       <dc:title>Mutant Standard emoji 2023.12</dc:title>
     </rdf:Description>

    <cc:work rdf:about="">
        <cc:license rdf:resource="http://creativecommons.org/licenses/by-nc-sa/4.0/"/>
        <cc:attributionName>Caius Nocturne</cc:attributionName>
        <cc:attributionURL>http://mutant.tech/</cc:attributionURL>
    </cc:work>

</rdf:RDF>
</metadata>
<rect id="snowflake" width="32" height="32" fill="none"/><clipPath id="_clip1"><rect width="32" height="32"/></clipPath><g clip-path="url(#_clip1)"><g id="outline"><path d="m23.409 3.167s2.526 0.676 3.857 1.033c0.513 0.137 0.95 0.473 1.215 0.932 0.768 1.33 2.404 4.163 3.171 5.493 0.266 0.46 0.337 1.006 0.2 1.518-0.357 1.331-1.033 3.857-1.033 3.857s0.676 2.526 1.033 3.857c0.137 0.512 0.066 1.058-0.2 1.518-0.767 1.33-2.403 4.163-3.171 5.493-0.265 0.459-0.702 0.795-1.215 0.932-1.331 0.357-3.857 1.033-3.857 1.033s-1.862 1.73-2.833 2.632c-0.37 0.344-0.857 0.535-1.362 0.535h-6.428c-0.505 0-0.992-0.191-1.362-0.535-0.972-0.902-2.833-2.632-2.833-2.632s-2.526-0.676-3.857-1.033c-0.513-0.137-0.949-0.473-1.215-0.932-0.768-1.33-2.403-4.163-3.171-5.493-0.265-0.46-0.337-1.006-0.2-1.518 0.357-1.331 1.033-3.857 1.033-3.857s-0.676-2.526-1.033-3.857c-0.137-0.512-0.065-1.058 0.2-1.518 0.768-1.33 2.403-4.163 3.171-5.493 0.266-0.459 0.702-0.795 1.215-0.932 1.331-0.357 3.857-1.033 3.857-1.033s1.861-1.73 2.833-2.632c0.37-0.344 0.857-0.535 1.362-0.535h6.428c0.505 0 0.992 0.191 1.362 0.535 0.971 0.902 2.833 2.632 2.833 2.632z"/></g><g id="emoji"><path d="m17 5.586 3-3 1.414 1.414-4.414 4.414v0.854l4.33 2.5 0.74-0.427 1.615-6.03 1.932 0.518-1.098 4.098 3.105-1.793 1 1.732-3.105 1.793 4.098 1.098-0.518 1.932-6.03-1.616-0.739 0.427v5l0.739 0.427 6.03-1.616 0.518 1.932-4.098 1.098 3.105 1.793-1 1.732-3.105-1.793 1.098 4.098-1.932 0.518-1.615-6.03-0.74-0.427-4.33 2.5v0.854l4.414 4.414-1.414 1.414-3-3v3.586h-2v-3.586l-3 3-1.414-1.414 4.414-4.414v-0.854l-4.33-2.5-0.739 0.427-1.616 6.03-1.932-0.518 1.098-4.098-3.105 1.793-1-1.732 3.105-1.793-4.098-1.098 0.518-1.932 6.03 1.616 0.739-0.427v-5l-0.739-0.427-6.03 1.616-0.518-1.932 4.098-1.098-3.105-1.793 1-1.732 3.105 1.793-1.098-4.098 1.932-0.518 1.616 6.03 0.739 0.427 4.33-2.5v-0.854l-4.414-4.414 1.414-1.414 3 3v-3.586h2v3.586zm0 14.837 2.33-1.346-2.33-1.345v2.691zm-4.33-1.346 2.33 1.346v-2.691l-2.33 1.345zm5.33-3.077 2.33 1.345v-2.69l-2.33 1.345zm-6.33 1.345 2.33-1.345-2.33-1.345v2.69zm5.33-3.077 2.33-1.345-2.33-1.346v2.691zm-4.33-1.345 2.33 1.345v-2.691l-2.33 1.346z" fill="#7ddcff"/></g></g></svg>
