<?xml version="1.0" encoding="UTF-8"?>
<!DOCTYPE svg  PUBLIC '-//W3C//DTD SVG 1.1//EN'  'http://www.w3.org/Graphics/SVG/1.1/DTD/svg11.dtd'>
<svg clip-rule="evenodd" fill-rule="evenodd" stroke-linecap="round" stroke-linejoin="round" stroke-miterlimit="1.5" version="1.1" viewBox="0 0 32 32" xml:space="preserve" xmlns="http://www.w3.org/2000/svg">
<metadata>
<rdf:RDF xmlns:cc="http://web.resource.org/cc/" xmlns:dc="http://purl.org/dc/elements/1.1/" xmlns:rdf="http://www.w3.org/1999/02/22-rdf-syntax-ns#">

     <rdf:Description rdf:about="">
       <dc:title>Mutant Standard emoji 2023.12</dc:title>
     </rdf:Description>

    <cc:work rdf:about="">
        <cc:license rdf:resource="http://creativecommons.org/licenses/by-nc-sa/4.0/"/>
        <cc:attributionName>Caius Nocturne</cc:attributionName>
        <cc:attributionURL>http://mutant.tech/</cc:attributionURL>
    </cc:work>

</rdf:RDF>
</metadata>
<rect id="sun" width="32" height="32" fill="none"/><clipPath id="_clip1"><rect width="32" height="32"/></clipPath><g clip-path="url(#_clip1)"><g id="outline"><circle cx="16" cy="16" r="11"/><rect x="6" y="6" width="20" height="20" fill="none" stroke="#000" stroke-width="4px"/><path d="m30 16-14-14-14 14 14 14 14-14z" fill="none" stroke="#000" stroke-width="4px"/></g><g id="emoji"><circle cx="16" cy="16" r="9" fill="#e48a1b"/><circle cx="16" cy="16" r="6" fill="#ffc144"/><path d="m21.757 6h4.243v4.243l-4.243-4.243z" fill="#e48a1b"/><path d="m27 13 3 3-3 3v-6z" fill="#e48a1b"/><path d="m6 21.757v4.243h4.243l-4.243-4.243z" fill="#e48a1b"/><path d="m5 13-3 3 3 3v-6z" fill="#e48a1b"/><path d="m26 21.757v4.243h-4.243l4.243-4.243z" fill="#e48a1b"/><path d="m19 27-3 3-3-3h6z" fill="#e48a1b"/><path d="m10.243 6h-4.243v4.243l4.243-4.243z" fill="#e48a1b"/><path d="m19 5-3-3-3 3h6z" fill="#e48a1b"/></g></g></svg>
