<?xml version="1.0" encoding="UTF-8"?>
<svg clip-rule="evenodd" fill-rule="evenodd" stroke-linecap="round" stroke-linejoin="round" stroke-miterlimit="1.5" viewBox="0 0 32 32" xmlns="http://www.w3.org/2000/svg">
 <clipPath id="a">
  <path d="m0 0h32v32h-32z" clip-rule="evenodd"/>
 </clipPath>
 <path d="m0 0h32v32h-32z" fill="none"/>
 <g clip-path="url(#a)">
  <circle cx="16" cy="16" r="11"/>
  <path d="m6 6h20v20h-20z" fill="none" stroke="#000" stroke-width="4"/>
  <path d="m30 16-14-14-14 14 14 14z" fill="none" stroke="#000" stroke-width="4"/>
  <circle cx="16" cy="16" r="9" fill="#e48a1b"/>
  <circle cx="16" cy="16" r="6" fill="#ffc144"/>
  <g fill="#e48a1b">
   <path d="m21.757 6h4.243v4.243z"/>
   <path d="m27 13 3 3-3 3z"/>
   <path d="m6 21.757v4.243h4.243z"/>
   <path d="m5 13-3 3 3 3z"/>
   <path d="m26 21.757v4.243h-4.243z"/>
   <path d="m19 27-3 3-3-3z"/>
   <path d="m10.243 6h-4.243v4.243z"/>
   <path d="m19 5-3-3-3 3z"/>
  </g>
 </g>
</svg>
