<?xml version="1.0" encoding="UTF-8"?>
<!DOCTYPE svg  PUBLIC '-//W3C//DTD SVG 1.1//EN'  'http://www.w3.org/Graphics/SVG/1.1/DTD/svg11.dtd'>
<svg clip-rule="evenodd" fill-rule="evenodd" stroke-linecap="round" stroke-linejoin="round" stroke-miterlimit="1.5" version="1.1" viewBox="0 0 32 32" xml:space="preserve" xmlns="http://www.w3.org/2000/svg">
<metadata>
<rdf:RDF xmlns:cc="http://web.resource.org/cc/" xmlns:dc="http://purl.org/dc/elements/1.1/" xmlns:rdf="http://www.w3.org/1999/02/22-rdf-syntax-ns#">

     <rdf:Description rdf:about="">
       <dc:title>Mutant Standard emoji 2023.12</dc:title>
     </rdf:Description>

    <cc:work rdf:about="">
        <cc:license rdf:resource="http://creativecommons.org/licenses/by-nc-sa/4.0/"/>
        <cc:attributionName>Caius Nocturne</cc:attributionName>
        <cc:attributionURL>http://mutant.tech/</cc:attributionURL>
    </cc:work>

</rdf:RDF>
</metadata>

    <rect id="sun_face" width="32" height="32" fill="none"/>
    <g id="outline">
        <circle cx="16" cy="16" r="16"/>
    </g>
    <g id="emoji">
        <circle cx="16" cy="16" r="14" fill="#ffc144"/>
        <path d="m14 19 0.293 0.293c0.453 0.453 1.067 0.707 1.707 0.707s1.254-0.254 1.707-0.707l0.293-0.293" fill="none" stroke="#d97408" stroke-width="2px"/>
        <path d="m11 23c1.281 1.281 3.017 2 4.828 2h0.344c1.811 0 3.547-0.719 4.828-2" fill="none" stroke="#d97408" stroke-linejoin="miter" stroke-width="2px"/>
        
            <path d="m6.029 13 1.971-1h4l1 1v0.5c0 1.933-1.567 3.5-3.5 3.5h-2e-3c-0.928 0-1.817-0.369-2.473-1.025s-1.025-1.545-1.025-2.473c0 0 0-0.241 0.029-0.502z" fill="#fff"/>
            <path d="m10 11c0.907 0 1.744 0.302 2.437 0.784 0.356 0.285 0.563 0.716 0.563 1.172v0.044h-1v1c0 0.53-0.211 1.039-0.586 1.414s-0.884 0.586-1.414 0.586-1.039-0.211-1.414-0.586-0.586-0.884-0.586-1.414v-1h-1.971c1e-3 -0.014 3e-3 -0.029 5e-3 -0.044 0-0.445 0.203-0.867 0.551-1.145 0.671-0.509 1.508-0.811 2.415-0.811h1z"/>
        
        
            <path d="m25.971 13-1.971-1h-4l-1 1v0.5c0 1.933 1.567 3.5 3.5 3.5h2e-3c0.928 0 1.817-0.369 2.473-1.025s1.025-1.545 1.025-2.473c0 0 0-0.241-0.029-0.502z" fill="#fff"/>
            <path d="m22 11c-0.907 0-1.744 0.302-2.437 0.784-0.356 0.285-0.563 0.716-0.563 1.172v0.044h1v1c0 0.53 0.211 1.039 0.586 1.414s0.884 0.586 1.414 0.586 1.039-0.211 1.414-0.586 0.586-0.884 0.586-1.414v-1h1.971c-1e-3 -0.014-3e-3 -0.029-5e-3 -0.044 0-0.445-0.203-0.867-0.551-1.145-0.671-0.509-1.508-0.811-2.415-0.811h-1z"/>
        
    </g>
</svg>
