<?xml version="1.0" encoding="UTF-8"?>
<!DOCTYPE svg  PUBLIC '-//W3C//DTD SVG 1.1//EN'  'http://www.w3.org/Graphics/SVG/1.1/DTD/svg11.dtd'>
<svg clip-rule="evenodd" fill-rule="evenodd" stroke-linecap="square" version="1.1" viewBox="0 0 32 32" xml:space="preserve" xmlns="http://www.w3.org/2000/svg">
<metadata>
<rdf:RDF xmlns:cc="http://web.resource.org/cc/" xmlns:dc="http://purl.org/dc/elements/1.1/" xmlns:rdf="http://www.w3.org/1999/02/22-rdf-syntax-ns#">

     <rdf:Description rdf:about="">
       <dc:title>Mutant Standard emoji 2023.12</dc:title>
     </rdf:Description>

    <cc:work rdf:about="">
        <cc:license rdf:resource="http://creativecommons.org/licenses/by-nc-sa/4.0/"/>
        <cc:attributionName>Caius Nocturne</cc:attributionName>
        <cc:attributionURL>http://mutant.tech/</cc:attributionURL>
    </cc:work>

</rdf:RDF>
</metadata>
<rect id="sun_cloud_rain" width="32" height="32" fill="none"/><clipPath id="_clip1"><rect width="32" height="32"/></clipPath><g clip-path="url(#_clip1)"><g id="outline"><path d="m13.62 11.345c0.98-1.982 3.022-3.345 5.38-3.345 3.311 0 6 2.689 6 6 0 0.341-0.029 0.676-0.085 1h0.087c1.06 0 2.077 0.421 2.827 1.171s1.171 1.767 1.171 2.827v4e-3c0 1.06-0.421 2.077-1.171 2.827s-1.767 1.171-2.827 1.171h-18.004c-1.06 0-2.077-0.421-2.827-1.171s-1.171-1.767-1.171-2.827v-4e-3c0-1.06 0.421-2.077 1.171-2.827s1.767-1.171 2.827-1.171h1.002c0-2.208 1.792-4 4-4 0.577 0 1.126 0.122 1.62 0.345z" fill="none" stroke="#000" stroke-width="4px"/><circle cx="10" cy="10" r="7"/><path d="m8 4 2-2 2 2h-4z" fill="#e48a1b"/><path d="m16.828 6h-13.656l6.828-6.828 6.828 6.828zm-8.828-2h4l-2-2-2 2z"/><path d="m8 16 2 2 2-2h-4z" fill="#e48a1b"/><path d="m10 20.828-6.828-6.828h13.656l-6.828 6.828zm-2-4.828 2 2 2-2h-4z"/><path d="m12.828 4.343h2.829v2.829l-2.829-2.829z" fill="#e48a1b"/><path d="m17.657 12-9.657-9.657h9.657v9.657zm-2-4.828v-2.829h-2.829l2.829 2.829z"/><path d="m4.343 12.828v2.829h2.829l-2.829-2.829z" fill="#e48a1b"/><path d="m12 17.657h-9.657v-9.657l9.657 9.657zm-7.657-2h2.829l-2.829-2.829v2.829z"/><path d="m12.828 4.343h2.829v2.829l-2.829-2.829z" fill="#e48a1b"/><path d="m17.657 12-9.657-9.657h9.657v9.657zm-2-4.828v-2.829h-2.829l2.829 2.829z"/><path d="m4 8-2 2 2 2v-4z" fill="#e48a1b"/><path d="m6 16.828-6.828-6.828 6.828-6.828v13.656zm-4-6.828 2 2v-4l-2 2z"/><path d="m7.172 4.343h-2.829v2.829l2.829-2.829z" fill="#e48a1b"/><path d="m2.343 12v-9.657h9.657l-9.657 9.657zm2-7.657v2.829l2.829-2.829h-2.829z"/><path d="m13 20v5c0 1.105 0.895 2 2 2 0.53 0 1.039-0.211 1.414-0.586s0.586-0.884 0.586-1.414v-0.125c0-0.56-0.223-1.098-0.619-1.494l-3.381-3.381z" fill="none" stroke="#000" stroke-linecap="butt" stroke-linejoin="round" stroke-width="4px"/><path d="m19 25v3.5c0 0.398 0.158 0.779 0.439 1.061 0.282 0.281 0.663 0.439 1.061 0.439h0.058c0.382 0 0.749-0.152 1.02-0.422 0.27-0.271 0.422-0.638 0.422-1.02v-2e-3c0-0.356-0.141-0.697-0.393-0.949l-2.607-2.607z" fill="none" stroke="#000" stroke-linecap="butt" stroke-linejoin="round" stroke-width="4px"/><path d="m9 25v3.5c0 0.398 0.158 0.779 0.439 1.061 0.282 0.281 0.663 0.439 1.061 0.439h0.058c0.382 0 0.749-0.152 1.02-0.422 0.27-0.271 0.422-0.638 0.422-1.02v-2e-3c0-0.356-0.141-0.697-0.393-0.949l-2.607-2.607z" fill="none" stroke="#000" stroke-linecap="butt" stroke-linejoin="round" stroke-width="4px"/><path d="m5 20v3.5c0 0.398 0.158 0.779 0.439 1.061 0.282 0.281 0.663 0.439 1.061 0.439h0.058c0.382 0 0.749-0.152 1.02-0.422 0.27-0.271 0.422-0.638 0.422-1.02v-2e-3c0-0.356-0.141-0.697-0.393-0.949l-2.607-2.607z" fill="none" stroke="#000" stroke-linecap="butt" stroke-linejoin="round" stroke-width="4px"/><path d="m25 22v3.5c0 0.398 0.158 0.779 0.439 1.061 0.282 0.281 0.663 0.439 1.061 0.439h0.058c0.382 0 0.749-0.152 1.02-0.422 0.27-0.271 0.422-0.638 0.422-1.02v-2e-3c0-0.356-0.141-0.697-0.393-0.949l-2.607-2.607z" fill="none" stroke="#000" stroke-linecap="butt" stroke-linejoin="round" stroke-width="4px"/><rect x="10" y="22" width="16" height="5"/><path d="m19.969 19.98v3.5c0 0.397 0.158 0.779 0.44 1.06 0.281 0.281 0.662 0.44 1.06 0.44h0.058c0.383 0 0.75-0.152 1.02-0.423 0.27-0.27 0.422-0.637 0.422-1.019v-3e-3c0-0.356-0.141-0.697-0.393-0.949-0.813-0.813-2.607-2.606-2.607-2.606z" fill="none" stroke="#000" stroke-linecap="butt" stroke-linejoin="round" stroke-width="4px"/><rect x="4.343" y="4.343" width="11.314" height="11.314" fill="none" stroke="#000" stroke-linecap="round" stroke-linejoin="round" stroke-miterlimit="1.5" stroke-width="4px"/><path d="m18 10-8-8-8 8 8 8 8-8z" fill="none" stroke="#000" stroke-linecap="round" stroke-linejoin="round" stroke-miterlimit="1.5" stroke-width="4px"/></g><g id="emoji"><circle cx="10" cy="10" r="5" fill="#e48a1b"/><circle cx="10" cy="10" r="4" fill="#ffc144"/><path d="m8 4 2-2 2 2h-4z" fill="#e48a1b"/><path d="m8 16 2 2 2-2h-4z" fill="#e48a1b"/><path d="m12.828 4.343h2.829v2.829l-2.829-2.829z" fill="#e48a1b"/><path d="m4.343 12.828v2.829h2.829l-2.829-2.829z" fill="#e48a1b"/><path d="m16 8 2 2-2 2v-4z" fill="#e48a1b"/><path d="m4 8-2 2 2 2v-4z" fill="#e48a1b"/><path d="m15.657 12.828v2.829h-2.829l2.829-2.829z" fill="#e48a1b"/><path d="m7.172 4.343h-2.829v2.829l2.829-2.829z" fill="#e48a1b"/><path d="m19 25v3.5c0 0.398 0.158 0.779 0.439 1.061 0.282 0.281 0.663 0.439 1.061 0.439h0.058c0.382 0 0.749-0.152 1.02-0.422 0.27-0.271 0.422-0.638 0.422-1.02v-2e-3c0-0.356-0.141-0.697-0.393-0.949l-2.607-2.607z" fill="#10bfff"/><path d="m19.969 19.98v3.5c0 0.397 0.158 0.779 0.44 1.06 0.281 0.281 0.662 0.44 1.06 0.44h0.058c0.383 0 0.75-0.152 1.02-0.423 0.27-0.27 0.422-0.637 0.422-1.019v-3e-3c0-0.356-0.141-0.697-0.393-0.949-0.813-0.813-2.607-2.606-2.607-2.606z" fill="#10bfff"/><path d="m9 25v3.5c0 0.398 0.158 0.779 0.439 1.061 0.282 0.281 0.663 0.439 1.061 0.439h0.058c0.382 0 0.749-0.152 1.02-0.422 0.27-0.271 0.422-0.638 0.422-1.02v-2e-3c0-0.356-0.141-0.697-0.393-0.949l-2.607-2.607z" fill="#10bfff"/><path d="m5 20v3.5c0 0.398 0.158 0.779 0.439 1.061 0.282 0.281 0.663 0.439 1.061 0.439h0.058c0.382 0 0.749-0.152 1.02-0.422 0.27-0.271 0.422-0.638 0.422-1.02v-2e-3c0-0.356-0.141-0.697-0.393-0.949l-2.607-2.607z" fill="#10bfff"/><path d="m25 22v3.5c0 0.398 0.158 0.779 0.439 1.061 0.282 0.281 0.663 0.439 1.061 0.439h0.058c0.382 0 0.749-0.152 1.02-0.422 0.27-0.271 0.422-0.638 0.422-1.02v-2e-3c0-0.356-0.141-0.697-0.393-0.949l-2.607-2.607z" fill="#10bfff"/><path d="m13 20v5c0 1.105 0.895 2 2 2 0.53 0 1.039-0.211 1.414-0.586s0.586-0.884 0.586-1.414v-0.125c0-0.56-0.223-1.098-0.619-1.494l-3.381-3.381z" fill="#10bfff"/><path d="m13.62 11.345c0.98-1.982 3.022-3.345 5.38-3.345 3.311 0 6 2.689 6 6 0 0.341-0.029 0.676-0.085 1h0.087c1.06 0 2.077 0.421 2.827 1.171s1.171 1.767 1.171 2.827v4e-3c0 1.06-0.421 2.077-1.171 2.827s-1.767 1.171-2.827 1.171h-18.004c-1.06 0-2.077-0.421-2.827-1.171s-1.171-1.767-1.171-2.827v-4e-3c0-1.06 0.421-2.077 1.171-2.827s1.767-1.171 2.827-1.171h1.002c0-2.208 1.792-4 4-4 0.577 0 1.126 0.122 1.62 0.345z" fill="#e6e6e6"/><path d="m13.62 11.342c0.981-1.98 3.023-3.342 5.38-3.342 3.311 0 6 2.689 6 6 0 0.341-0.028 0.675-0.083 1h0.083c2.209 0 4 1.791 4 4s-1.791 4-4 4h-18c-2.209 0-4-1.791-4-4 0-1.061 0.421-2.078 1.172-2.828 0.75-0.751 1.767-1.172 2.828-1.172h1c0-2.208 1.792-4 4-4 0.577 0 1.125 0.122 1.62 0.342z" fill="none"/><clipPath id="_clip2"><path d="m13.62 11.342c0.981-1.98 3.023-3.342 5.38-3.342 3.311 0 6 2.689 6 6 0 0.341-0.028 0.675-0.083 1h0.083c2.209 0 4 1.791 4 4s-1.791 4-4 4h-18c-2.209 0-4-1.791-4-4 0-1.061 0.421-2.078 1.172-2.828 0.75-0.751 1.767-1.172 2.828-1.172h1c0-2.208 1.792-4 4-4 0.577 0 1.125 0.122 1.62 0.342z"/></clipPath><g clip-path="url(#_clip2)"><path d="m26 11s-0.325-0.163-0.845-0.422c-1.533-0.767-3.353-0.685-4.81 0.216-1.458 0.901-2.345 2.492-2.345 4.206h-1.5c-1.933 0-3.5 1.567-3.5 3.5 0 0.928 0.369 1.818 1.025 2.475 0.657 0.656 1.547 1.025 2.475 1.025h15.5v-11h-6z" fill="#b3b3b3"/></g><path d="m19.077 8 0.078 2e-3 0.077 2e-3 0.077 4e-3 0.076 4e-3 0.152 0.012 0.076 7e-3 0.076 8e-3 0.075 9e-3 0.075 0.01 0.074 0.011 0.075 0.012 0.074 0.013 0.073 0.013 0.074 0.015 0.073 0.015 0.072 0.017 0.073 0.017 0.072 0.018 0.071 0.019 0.072 0.02 0.071 0.02 0.07 0.022 0.071 0.022 0.07 0.023 0.069 0.024 0.069 0.025 0.069 0.026 0.068 0.026 0.136 0.056 0.067 0.029 0.066 0.029 0.132 0.062 0.066 0.032 0.065 0.033 0.064 0.033 0.064 0.035 0.063 0.035 0.064 0.035 0.124 0.074 0.062 0.038 0.122 0.078 0.06 0.04 0.059 0.041 0.118 0.084 0.058 0.043 0.057 0.043 0.057 0.044 0.057 0.045 0.056 0.046 0.055 0.046 0.055 0.047 0.054 0.047 0.053 0.048 0.053 0.049 0.053 0.05 0.052 0.05 0.051 0.05 0.05 0.051 0.05 0.052 0.05 0.053 0.049 0.053 0.048 0.053 0.047 0.054 0.047 0.055 0.046 0.055 0.046 0.056 0.045 0.057 0.044 0.057 0.043 0.057 0.043 0.058 0.084 0.118 0.041 0.059 0.04 0.06 0.078 0.122 0.038 0.062 0.074 0.124 0.035 0.064 0.035 0.063 0.035 0.064 0.033 0.064 0.033 0.065 0.032 0.066 0.062 0.132 0.029 0.066 0.029 0.067 0.056 0.136 0.026 0.068 0.026 0.069 0.025 0.069 0.024 0.069 0.023 0.07 0.022 0.071 0.022 0.07 0.02 0.071 0.02 0.072 0.019 0.071 0.018 0.072 0.017 0.073 0.017 0.072 0.015 0.073 0.015 0.074 0.013 0.073 0.013 0.074 0.012 0.075 0.011 0.074 0.01 0.075 9e-3 0.075 8e-3 0.076 7e-3 0.076 0.012 0.152 4e-3 0.076 4e-3 0.077 2e-3 0.077 2e-3 0.078v0.077l-1e-3 0.127-4e-3 0.127-7e-3 0.126-9e-3 0.126-0.012 0.125-0.014 0.123-0.017 0.124-0.019 0.122h0.083l0.103 1e-3 0.103 4e-3 0.102 7e-3 0.101 9e-3 0.1 0.011 0.1 0.014 0.099 0.016 0.098 0.019 0.097 0.021 0.097 0.024 0.095 0.026 0.094 0.028 0.094 0.03 0.092 0.033 0.092 0.034 0.09 0.037 0.089 0.039 0.088 0.041 0.087 0.044 0.086 0.045 0.084 0.047 0.083 0.049 0.082 0.051 0.08 0.053 0.08 0.055 0.077 0.057 0.077 0.058 0.074 0.06 0.074 0.062 0.072 0.064 0.07 0.066 0.068 0.067 0.067 0.068 0.066 0.07 0.064 0.072 0.062 0.074 0.06 0.074 0.058 0.077 0.057 0.077 0.055 0.08 0.053 0.08 0.051 0.082 0.049 0.083 0.047 0.084 0.045 0.086 0.044 0.087 0.041 0.088 0.039 0.089 0.037 0.09 0.034 0.092 0.033 0.092 0.03 0.094 0.028 0.094 0.026 0.095 0.024 0.097 0.021 0.097 0.019 0.098 0.016 0.099 0.014 0.1 0.011 0.1 9e-3 0.101 7e-3 0.102 4e-3 0.103 1e-3 0.103-1e-3 0.103-4e-3 0.103-7e-3 0.102-9e-3 0.101-0.011 0.1-0.014 0.1-0.016 0.099-0.019 0.098-0.021 0.097-0.024 0.097-0.026 0.095-0.028 0.094-0.03 0.094-0.033 0.092-0.034 0.092-0.037 0.09-0.039 0.089-0.041 0.088-0.044 0.087-0.045 0.086-0.047 0.084-0.049 0.083-0.051 0.082-0.053 0.08-0.055 0.08-0.057 0.077-0.058 0.077-0.06 0.074-0.062 0.074-0.064 0.072-0.066 0.07-0.067 0.068-0.068 0.067-0.07 0.066-0.072 0.064-0.074 0.062-0.074 0.06-0.077 0.058-0.077 0.057-0.08 0.055-0.08 0.053-0.082 0.051-0.083 0.049-0.084 0.047-0.086 0.045-0.087 0.044-0.088 0.041-0.089 0.039-0.09 0.037-0.092 0.034-0.092 0.033-0.094 0.03-0.094 0.028-0.095 0.026-0.097 0.024-0.097 0.021-0.098 0.019-0.099 0.016-0.1 0.014-0.1 0.011-0.101 9e-3 -0.102 7e-3 -0.103 4e-3 -0.103 1e-3h-18l-0.103-1e-3 -0.103-4e-3 -0.102-7e-3 -0.101-9e-3 -0.1-0.011-0.1-0.014-0.099-0.016-0.098-0.019-0.097-0.021-0.097-0.024-0.095-0.026-0.094-0.028-0.094-0.03-0.092-0.033-0.092-0.034-0.09-0.037-0.089-0.039-0.088-0.041-0.087-0.044-0.086-0.045-0.084-0.047-0.083-0.049-0.082-0.051-0.08-0.053-0.08-0.055-0.077-0.057-0.077-0.058-0.074-0.06-0.074-0.062-0.072-0.064-0.07-0.066-0.068-0.067-0.067-0.068-0.066-0.07-0.064-0.072-0.062-0.074-0.06-0.074-0.058-0.077-0.057-0.077-0.055-0.08-0.053-0.08-0.051-0.082-0.049-0.083-0.047-0.084-0.045-0.086-0.044-0.087-0.041-0.088-0.039-0.089-0.037-0.09-0.034-0.092-0.033-0.092-0.03-0.094-0.028-0.094-0.026-0.095-0.024-0.097-0.021-0.097-0.019-0.098-0.016-0.099-0.014-0.1-0.011-0.1-9e-3 -0.101-7e-3 -0.102-4e-3 -0.103-1e-3 -0.103 1e-3 -0.099 4e-3 -0.099 6e-3 -0.099 9e-3 -0.098 0.011-0.098 0.013-0.098 0.016-0.097 0.018-0.096 0.02-0.096 0.023-0.095 0.025-0.095 0.027-0.093 0.029-0.093 0.032-0.093 0.034-0.091 0.036-0.091 0.039-0.089 0.041-0.089 0.042-0.088 0.045-0.087 0.047-0.085 0.049-0.085 0.052-0.083 0.053-0.082 0.055-0.081 0.058-0.08 0.059-0.078 0.062-0.077 0.063-0.076 0.066-0.074 0.067-0.072 0.07-0.071 0.071-0.07 0.072-0.067 0.074-0.066 0.076-0.063 0.077-0.062 0.078-0.059 0.08-0.058 0.081-0.055 0.082-0.053 0.083-0.052 0.085-0.049 0.085-0.047 0.087-0.045 0.088-0.042 0.089-0.041 0.089-0.039 0.091-0.036 0.091-0.034 0.093-0.032 0.093-0.029 0.093-0.027 0.095-0.025 0.095-0.023 0.096-0.02 0.096-0.018 0.097-0.016 0.098-0.013 0.098-0.011 0.098-9e-3 0.099-6e-3 0.099-4e-3 0.099-1e-3h1l1e-3 -0.103 4e-3 -0.103 7e-3 -0.102 9e-3 -0.101 0.011-0.1 0.014-0.1 0.017-0.099 0.018-0.098 0.022-0.097 0.023-0.096 0.026-0.096 0.028-0.094 0.03-0.093 0.033-0.093 0.035-0.091 0.037-0.09 0.039-0.09 0.041-0.088 0.043-0.086 0.045-0.086 0.047-0.084 0.049-0.084 0.052-0.081 0.053-0.081 0.054-0.079 0.057-0.078 0.059-0.076 0.06-0.075 0.062-0.073 0.064-0.072 0.065-0.07 0.067-0.069 0.069-0.067 0.07-0.065 0.072-0.064 0.073-0.062 0.075-0.06 0.076-0.059 0.078-0.057 0.079-0.054 0.081-0.053 0.082-0.052 0.083-0.049 0.084-0.047 0.086-0.045 0.086-0.043 0.089-0.041 0.089-0.039 0.09-0.037 0.091-0.035 0.093-0.033 0.093-0.03 0.094-0.028 0.096-0.026 0.096-0.023 0.097-0.022 0.098-0.018 0.099-0.017 0.1-0.014 0.1-0.011 0.101-9e-3 0.102-7e-3 0.103-4e-3 0.103-1e-3 0.108 1e-3 0.107 5e-3 0.106 7e-3 0.106 0.01 0.104 0.012 0.104 0.015 0.103 0.018 0.103 0.021 0.101 0.023 0.1 0.025 0.099 0.028 0.098 0.031 0.097 0.033 0.096 0.035 0.095 0.038 0.093 0.04 0.047-0.092 0.048-0.092 0.05-0.09 0.051-0.09 0.053-0.088 0.054-0.088 0.056-0.086 0.057-0.086 0.059-0.084 0.06-0.084 0.061-0.082 0.063-0.081 0.064-0.081 0.065-0.079 0.067-0.077 0.068-0.077 0.069-0.076 0.071-0.074 0.072-0.073 0.073-0.072 0.074-0.071 0.075-0.069 0.077-0.068 0.078-0.067 0.079-0.066 0.08-0.064 0.081-0.063 0.082-0.061 0.084-0.06 0.084-0.059 0.085-0.057 0.087-0.056 0.087-0.055 0.089-0.053 0.089-0.051 0.091-0.05 0.091-0.048 0.092-0.047 0.093-0.046 0.094-0.044 0.095-0.042 0.096-0.04 0.097-0.039 0.097-0.038 0.098-0.035 0.099-0.034 0.1-0.033 0.101-0.03 0.101-0.029 0.102-0.027 0.103-0.026 0.103-0.023 0.104-0.022 0.105-0.02 0.105-0.018 0.106-0.017 0.107-0.014 0.107-0.013 0.108-0.01 0.108-9e-3 0.109-7e-3 0.109-5e-3 0.11-3e-3 0.11-1e-3h0.077zm-0.169 1.001-0.092 2e-3 -0.091 4e-3 -0.091 6e-3 -0.09 8e-3 -0.09 9e-3 -0.089 0.01-0.089 0.012-0.088 0.014-0.088 0.015-0.087 0.016-0.087 0.019-0.086 0.019-0.085 0.021-0.085 0.023-0.084 0.024-0.084 0.026-0.083 0.026-0.083 0.029-0.081 0.029-0.081 0.031-0.081 0.033-0.08 0.034-0.079 0.035-0.078 0.036-0.077 0.038-0.077 0.039-0.076 0.04-0.076 0.042-0.074 0.043-0.074 0.044-0.073 0.045-0.072 0.047-0.071 0.048-0.07 0.049-0.07 0.05-0.069 0.051-0.067 0.052-0.067 0.054-0.066 0.055-0.065 0.055-0.064 0.057-0.063 0.058-0.062 0.059-0.061 0.06-0.06 0.061-0.058 0.062-0.058 0.063-0.057 0.065-0.056 0.064-0.054 0.066-0.054 0.067-0.052 0.068-0.051 0.069-0.05 0.069-0.049 0.071-0.048 0.071-0.046 0.072-0.045 0.073-0.044 0.074-0.043 0.075-0.042 0.075-0.04 0.076-0.467 0.922-0.944-0.405-0.071-0.028-0.071-0.026-0.073-0.025-0.073-0.023-0.074-0.021-0.075-0.019-0.076-0.017-0.076-0.016-0.078-0.013-0.077-0.012-0.079-9e-3 -0.079-7e-3 -0.08-6e-3 -0.081-3e-3 -0.081-1e-3 -0.078 1e-3 -0.077 3e-3 -0.077 5e-3 -0.076 7e-3 -0.075 8e-3 -0.075 0.011-0.074 0.012-0.073 0.014-0.073 0.016-0.072 0.017-0.071 0.02-0.071 0.021-0.069 0.023-0.07 0.024-0.068 0.026-0.067 0.028-0.067 0.029-0.066 0.031-0.065 0.032-0.064 0.034-0.064 0.035-0.062 0.037-0.061 0.038-0.061 0.04-0.059 0.041-0.059 0.043-0.057 0.044-0.056 0.045-0.055 0.047-0.054 0.048-0.053 0.049-0.052 0.05-0.05 0.052-0.049 0.053-0.048 0.054-0.047 0.055-0.045 0.056-0.044 0.057-0.043 0.059-0.041 0.059-0.04 0.061-0.038 0.061-0.037 0.062-0.035 0.064-0.034 0.064-0.032 0.065-0.031 0.066-0.029 0.066-0.028 0.068-0.026 0.068-0.024 0.069-0.023 0.07-0.021 0.071-0.019 0.071-0.018 0.072-0.016 0.073-0.014 0.073-0.012 0.075-0.011 0.074-8e-3 0.075-7e-3 0.076-5e-3 0.077-3e-3 0.077-0.014 1.078h-1.981l-0.081 1e-3 -0.074 3e-3 -0.074 4e-3 -0.074 7e-3 -0.073 8e-3 -0.073 0.01-0.073 0.012-0.072 0.013-0.072 0.016-0.071 0.017-0.071 0.018-0.07 0.021-0.07 0.022-0.069 0.024-0.069 0.025-0.068 0.027-0.067 0.029-0.067 0.031-0.066 0.032-0.065 0.034-0.064 0.035-0.063 0.037-0.063 0.038-0.061 0.04-0.061 0.042-0.06 0.043-0.059 0.044-0.057 0.046-0.057 0.048-0.055 0.049-0.055 0.051-0.053 0.052-0.052 0.053-0.051 0.055-0.049 0.055-0.048 0.057-0.046 0.058-0.044 0.058-0.043 0.06-0.042 0.061-0.04 0.061-0.038 0.063-0.037 0.063-0.036 0.064-0.033 0.065-0.032 0.066-0.031 0.067-0.029 0.067-0.027 0.068-0.025 0.069-0.024 0.069-0.022 0.07-0.021 0.07-0.018 0.071-0.017 0.071-0.016 0.072-0.013 0.072-0.012 0.073-0.01 0.073-8e-3 0.074-7e-3 0.073-4e-3 0.074-3e-3 0.074-1e-3 0.075 1e-3 0.078 3e-3 0.077 5e-3 0.077 7e-3 0.076 8e-3 0.075 0.011 0.075 0.012 0.074 0.014 0.074 0.016 0.073 0.017 0.071 0.02 0.072 0.021 0.071 0.022 0.069 0.025 0.07 0.026 0.068 0.027 0.067 0.03 0.067 0.03 0.066 0.033 0.065 0.033 0.064 0.036 0.063 0.037 0.063 0.038 0.061 0.04 0.061 0.041 0.059 0.086 0.116 0.046 0.056 0.046 0.055 0.048 0.054 0.049 0.053 0.102 0.102 0.053 0.049 0.054 0.048 0.055 0.046 0.056 0.045 0.058 0.044 0.058 0.043 0.059 0.041 0.061 0.04 0.061 0.038 0.062 0.037 0.064 0.035 0.064 0.034 0.065 0.033 0.066 0.03 0.067 0.03 0.067 0.027 0.069 0.026 0.069 0.025 0.07 0.022 0.07 0.021 0.072 0.02 0.072 0.017 0.072 0.016 0.074 0.014 0.074 0.012 0.075 0.011 0.075 8e-3 0.076 7e-3 0.077 5e-3 0.077 3e-3 0.084 1e-3h17.988l0.084-1e-3 0.077-3e-3 0.077-5e-3 0.076-7e-3 0.075-8e-3 0.075-0.011 0.074-0.012 0.074-0.014 0.072-0.016 0.072-0.017 0.072-0.02 0.071-0.021 0.069-0.022 0.069-0.025 0.069-0.026 0.068-0.027 0.132-0.06 0.065-0.033 0.064-0.034 0.063-0.035 0.063-0.037 0.061-0.038 0.061-0.04 0.059-0.041 0.058-0.043 0.058-0.044 0.056-0.045 0.055-0.046 0.054-0.048 0.053-0.049 0.102-0.102 0.049-0.053 0.048-0.054 0.046-0.055 0.046-0.056 0.086-0.116 0.041-0.059 0.04-0.061 0.038-0.061 0.037-0.063 0.035-0.063 0.034-0.064 0.033-0.065 0.03-0.066 0.03-0.067 0.027-0.067 0.026-0.068 0.025-0.07 0.022-0.069 0.021-0.071 0.02-0.072 0.017-0.071 0.016-0.073 0.014-0.074 0.012-0.074 0.011-0.075 8e-3 -0.075 7e-3 -0.076 5e-3 -0.077 3e-3 -0.077 1e-3 -0.078-1e-3 -0.078-3e-3 -0.077-5e-3 -0.077-7e-3 -0.076-8e-3 -0.075-0.011-0.075-0.012-0.074-0.014-0.074-0.016-0.073-0.017-0.071-0.02-0.072-0.021-0.07-0.022-0.07-0.025-0.07-0.026-0.068-0.027-0.067-0.03-0.067-0.03-0.066-0.033-0.065-0.034-0.064-0.035-0.063-0.037-0.063-0.038-0.061-0.04-0.061-0.041-0.059-0.086-0.116-0.046-0.056-0.046-0.055-0.048-0.054-0.049-0.053-0.102-0.102-0.053-0.049-0.054-0.048-0.055-0.046-0.056-0.046-0.116-0.086-0.059-0.041-0.061-0.04-0.061-0.038-0.062-0.037-0.064-0.035-0.064-0.034-0.065-0.033-0.066-0.03-0.067-0.03-0.067-0.027-0.069-0.026-0.069-0.025-0.069-0.022-0.071-0.021-0.071-0.02-0.073-0.017-0.072-0.016-0.074-0.014-0.074-0.012-0.075-0.011-0.075-8e-3 -0.076-7e-3 -0.077-5e-3 -0.077-3e-3 -0.084-1e-3h-1.247l0.2-1.268 0.014-0.102 0.012-0.104 9e-3 -0.103 8e-3 -0.105 6e-3 -0.106 3e-3 -0.105 1e-3 -0.109v-0.063l-2e-3 -0.064-2e-3 -0.065-6e-3 -0.128-5e-3 -0.064-5e-3 -0.063-6e-3 -0.063-0.014-0.126-0.018-0.124-0.01-0.062-0.01-0.061-0.012-0.062-0.012-0.061-0.013-0.061-0.013-0.06-0.014-0.061-0.015-0.059-0.016-0.06-0.034-0.118-0.036-0.118-0.02-0.058-0.02-0.057-0.02-0.058-0.066-0.171-0.048-0.112-0.024-0.055-0.052-0.11-0.026-0.054-0.056-0.108-0.028-0.053-0.03-0.053-0.029-0.053-0.062-0.104-0.031-0.051-0.033-0.051-0.032-0.051-0.034-0.05-0.034-0.049-0.034-0.05-0.036-0.049-0.035-0.048-0.037-0.048-0.074-0.094-0.038-0.047-0.078-0.092-0.039-0.045-0.04-0.045-0.082-0.088-0.084-0.086-0.086-0.084-0.044-0.041-0.044-0.04-0.045-0.041-0.045-0.039-0.092-0.078-0.047-0.038-0.094-0.074-0.048-0.037-0.048-0.035-0.049-0.035-0.05-0.035-0.049-0.034-0.05-0.034-0.051-0.032-0.051-0.033-0.051-0.031-0.104-0.062-0.053-0.03-0.053-0.029-0.053-0.028-0.108-0.056-0.054-0.026-0.11-0.052-0.055-0.024-0.112-0.048-0.171-0.066-0.057-0.02-0.116-0.04-0.118-0.036-0.118-0.034-0.06-0.016-0.06-0.015-0.06-0.014-0.06-0.013-0.061-0.013-0.122-0.024-0.124-0.02-0.062-9e-3 -0.063-9e-3 -0.062-7e-3 -0.063-7e-3 -0.063-6e-3 -0.064-5e-3 -0.063-5e-3 -0.128-6e-3 -0.065-2e-3 -0.064-2e-3h-0.064l-0.093 1e-3z" fill="#e6e6e6"/></g></g></svg>
