<?xml version="1.0" encoding="UTF-8"?>
<!DOCTYPE svg  PUBLIC '-//W3C//DTD SVG 1.1//EN'  'http://www.w3.org/Graphics/SVG/1.1/DTD/svg11.dtd'>
<svg clip-rule="evenodd" fill-rule="evenodd" stroke-linecap="square" version="1.1" viewBox="0 0 32 32" xml:space="preserve" xmlns="http://www.w3.org/2000/svg">
<metadata>
<rdf:RDF xmlns:cc="http://web.resource.org/cc/" xmlns:dc="http://purl.org/dc/elements/1.1/" xmlns:rdf="http://www.w3.org/1999/02/22-rdf-syntax-ns#">

     <rdf:Description rdf:about="">
       <dc:title>Mutant Standard emoji 2023.12</dc:title>
     </rdf:Description>

    <cc:work rdf:about="">
        <cc:license rdf:resource="http://creativecommons.org/licenses/by-nc-sa/4.0/"/>
        <cc:attributionName>Caius Nocturne</cc:attributionName>
        <cc:attributionURL>http://mutant.tech/</cc:attributionURL>
    </cc:work>

</rdf:RDF>
</metadata>
<rect id="sun_behind_cloud" width="32" height="32" fill="none"/><clipPath id="_clip1"><rect width="32" height="32"/></clipPath><g clip-path="url(#_clip1)"><g id="outline"><path d="m15.241 16.467c0.646-2.01 2.534-3.467 4.759-3.467 2.76 0 5 2.24 5 5 0 0.343-0.035 0.679-0.1 1h0.102c2.76 0 4.998 2.238 4.998 4.998v4e-3c0 2.76-2.238 4.998-4.998 4.998h-14.004c-2.76 0-4.998-2.238-4.998-4.998v-4e-3c0-2.427 1.73-4.45 4.025-4.903 0.199-1.741 1.68-3.095 3.475-3.095 0.634 0 1.229 0.169 1.741 0.467z" fill="none" stroke="#000" stroke-width="4px"/><circle cx="13" cy="13" r="9"/><rect x="5.929" y="5.929" width="14.142" height="14.142" fill="none" stroke="#000" stroke-linecap="round" stroke-linejoin="round" stroke-miterlimit="1.5" stroke-width="4px"/><path d="m23 13-10-10-10 10 10 10 10-10z" fill="none" stroke="#000" stroke-linecap="round" stroke-linejoin="round" stroke-miterlimit="1.5" stroke-width="4px"/></g><g id="emoji"><circle cx="13" cy="13" r="7" fill="#e48a1b"/><circle cx="13" cy="13" r="5" fill="#ffc144"/><path d="m21 11 2 2-2 2v-4z" fill="#e48a1b"/><path d="m20.071 17.243v2.828h-2.828l2.828-2.828z" fill="#e48a1b"/><path d="m15 21-2 2-2-2h4z" fill="#e48a1b"/><path d="m8.757 20.071h-2.828v-2.828l2.828 2.828z" fill="#e48a1b"/><path d="m5 11-2 2 2 2v-4z" fill="#e48a1b"/><path d="m8.757 5.929h-2.828v2.828l2.828-2.828z" fill="#e48a1b"/><path d="m15 5-2-2-2 2h4z" fill="#e48a1b"/><path d="m20.071 8.757v-2.828h-2.828l2.828 2.828z" fill="#e48a1b"/><path d="m15.241 16.467c0.646-2.01 2.534-3.467 4.759-3.467 2.76 0 5 2.24 5 5 0 0.343-0.035 0.679-0.1 1h0.102c2.76 0 4.998 2.238 4.998 4.998v4e-3c0 2.76-2.238 4.998-4.998 4.998h-14.004c-2.76 0-4.998-2.238-4.998-4.998v-4e-3c0-2.427 1.73-4.45 4.025-4.903 0.199-1.741 1.68-3.095 3.475-3.095 0.634 0 1.229 0.169 1.741 0.467z" fill="#e6e6e6"/><path d="m15.241 16.464c0.649-2.009 2.535-3.464 4.759-3.464 2.76 0 5 2.24 5 5 0 0.342-0.034 0.677-0.1 1h0.102c2.76 0 4.998 2.238 4.998 4.998v4e-3c0 2.76-2.238 4.998-4.998 4.998h-14.004c-2.76 0-4.998-2.238-4.998-4.998v-4e-3c0-2.427 1.73-4.45 4.023-4.903 0.201-1.741 1.682-3.095 3.477-3.095 0.634 0 1.228 0.169 1.741 0.464z" fill="none"/><clipPath id="_clip2"><path d="m15.241 16.464c0.649-2.009 2.535-3.464 4.759-3.464 2.76 0 5 2.24 5 5 0 0.342-0.034 0.677-0.1 1h0.102c2.76 0 4.998 2.238 4.998 4.998v4e-3c0 2.76-2.238 4.998-4.998 4.998h-14.004c-2.76 0-4.998-2.238-4.998-4.998v-4e-3c0-2.427 1.73-4.45 4.023-4.903 0.201-1.741 1.682-3.095 3.477-3.095 0.634 0 1.228 0.169 1.741 0.464z"/></clipPath><g clip-path="url(#_clip2)"><path d="m27 17s-0.325-0.163-0.845-0.422c-1.533-0.767-3.353-0.685-4.81 0.216-1.458 0.901-2.345 2.492-2.345 4.206h-2.5c-2.485 0-4.5 2.015-4.5 4.5 0 1.193 0.474 2.338 1.318 3.182s1.989 1.318 3.182 1.318h17.5v-13h-7z" fill="#bfbfbf"/></g><path d="m20.065 13 0.128 4e-3 0.128 6e-3 0.063 5e-3 0.064 5e-3 0.063 6e-3 0.063 7e-3 0.062 7e-3 0.063 9e-3 0.062 9e-3 0.124 0.02 0.122 0.024 0.122 0.026 0.06 0.014 0.06 0.016 0.06 0.015 0.118 0.034 0.059 0.018 0.059 0.019 0.058 0.019 0.058 0.02 0.057 0.021 0.058 0.021 0.057 0.022 0.112 0.046 0.112 0.049 0.11 0.051 0.108 0.054 0.107 0.057 0.106 0.059 0.104 0.061 0.102 0.064 0.101 0.066 0.099 0.069 0.097 0.071 0.095 0.073 0.094 0.075 0.091 0.078 0.09 0.08 0.088 0.081 0.086 0.084 0.084 0.086 0.081 0.088 0.08 0.09 0.078 0.091 0.075 0.094 0.073 0.095 0.071 0.097 0.069 0.099 0.066 0.101 0.064 0.102 0.061 0.104 0.059 0.106 0.057 0.107 0.054 0.108 0.051 0.11 0.049 0.112 0.046 0.112 0.022 0.057 0.021 0.058 0.021 0.057 0.02 0.058 0.019 0.058 0.019 0.059 0.018 0.059 0.034 0.118 0.015 0.06 0.016 0.06 0.014 0.06 0.026 0.122 0.024 0.122 0.02 0.124 9e-3 0.062 9e-3 0.063 7e-3 0.062 7e-3 0.063 6e-3 0.063 5e-3 0.064 5e-3 0.063 6e-3 0.128 4e-3 0.128v0.065 0.064l-4e-3 0.128-2e-3 0.063-4e-3 0.064-4e-3 0.063-6e-3 0.063-5e-3 0.062-7e-3 0.063-0.016 0.124-9e-3 0.062-0.02 0.122-0.011 0.061-0.012 0.061h0.102 0.065l0.128 4e-3 0.128 6e-3 0.064 5e-3 0.063 5e-3 0.063 6e-3 0.126 0.014 0.062 8e-3 0.062 0.01 0.062 9e-3 0.062 0.011 0.061 0.011 0.061 0.013 0.061 0.012 0.061 0.014 0.06 0.014 0.06 0.015 0.06 0.016 0.118 0.034 0.118 0.036 0.116 0.04 0.057 0.02 0.058 0.022 0.057 0.022 0.112 0.046 0.112 0.049 0.11 0.051 0.108 0.054 0.107 0.056 0.106 0.059 0.104 0.062 0.102 0.063 0.1 0.067 0.099 0.068 0.097 0.071 0.096 0.073 0.093 0.075 0.092 0.078 0.09 0.079 0.087 0.082 0.086 0.084 0.084 0.086 0.082 0.087 0.079 0.09 0.078 0.092 0.075 0.093 0.073 0.096 0.071 0.097 0.068 0.099 0.067 0.1 0.063 0.102 0.062 0.104 0.059 0.106 0.056 0.107 0.054 0.108 0.051 0.11 0.049 0.112 0.046 0.112 0.022 0.057 0.022 0.058 0.02 0.057 0.04 0.116 0.036 0.118 0.034 0.118 0.016 0.06 0.015 0.06 0.014 0.06 0.014 0.061 0.012 0.061 0.013 0.061 0.011 0.061 0.011 0.062 9e-3 0.062 0.01 0.062 8e-3 0.062 0.014 0.126 6e-3 0.063 5e-3 0.063 5e-3 0.064 6e-3 0.128 4e-3 0.128v0.069 0.065l-4e-3 0.128-6e-3 0.128-5e-3 0.064-5e-3 0.063-6e-3 0.063-0.014 0.126-8e-3 0.062-0.01 0.062-9e-3 0.062-0.011 0.062-0.011 0.061-0.013 0.061-0.012 0.061-0.014 0.061-0.014 0.06-0.015 0.06-0.016 0.06-0.034 0.118-0.036 0.118-0.04 0.116-0.02 0.057-0.022 0.058-0.022 0.057-0.046 0.112-0.049 0.112-0.051 0.11-0.054 0.108-0.056 0.107-0.059 0.106-0.062 0.104-0.063 0.102-0.067 0.1-0.068 0.099-0.071 0.097-0.073 0.096-0.075 0.093-0.078 0.092-0.079 0.09-0.082 0.087-0.084 0.086-0.086 0.084-0.087 0.082-0.09 0.079-0.092 0.078-0.093 0.075-0.096 0.073-0.097 0.071-0.099 0.068-0.1 0.067-0.102 0.063-0.104 0.062-0.106 0.059-0.107 0.056-0.108 0.054-0.11 0.051-0.112 0.049-0.112 0.046-0.057 0.022-0.058 0.022-0.057 0.02-0.116 0.04-0.118 0.036-0.118 0.034-0.06 0.016-0.06 0.015-0.06 0.014-0.061 0.014-0.061 0.012-0.061 0.013-0.061 0.011-0.062 0.011-0.062 9e-3 -0.062 0.01-0.062 8e-3 -0.126 0.014-0.063 6e-3 -0.063 5e-3 -0.064 5e-3 -0.128 6e-3 -0.128 4e-3h-0.065-14.004-0.065l-0.128-4e-3 -0.128-6e-3 -0.064-5e-3 -0.063-5e-3 -0.063-6e-3 -0.126-0.014-0.062-8e-3 -0.062-0.01-0.062-9e-3 -0.062-0.011-0.061-0.011-0.061-0.013-0.061-0.012-0.061-0.014-0.06-0.014-0.06-0.015-0.06-0.016-0.118-0.034-0.118-0.036-0.116-0.04-0.057-0.02-0.058-0.022-0.057-0.022-0.112-0.046-0.112-0.049-0.11-0.051-0.108-0.054-0.107-0.056-0.106-0.059-0.104-0.062-0.102-0.063-0.1-0.067-0.099-0.068-0.097-0.071-0.096-0.073-0.093-0.075-0.092-0.078-0.09-0.079-0.087-0.082-0.086-0.084-0.084-0.086-0.082-0.087-0.079-0.09-0.078-0.092-0.075-0.093-0.073-0.096-0.071-0.097-0.068-0.099-0.067-0.1-0.063-0.102-0.062-0.104-0.059-0.106-0.056-0.107-0.054-0.108-0.051-0.11-0.049-0.112-0.046-0.112-0.022-0.057-0.022-0.058-0.02-0.057-0.04-0.116-0.036-0.118-0.034-0.118-0.016-0.06-0.015-0.06-0.014-0.06-0.014-0.061-0.012-0.061-0.013-0.061-0.011-0.061-0.011-0.062-9e-3 -0.062-0.01-0.062-8e-3 -0.062-0.014-0.126-6e-3 -0.063-5e-3 -0.063-5e-3 -0.064-6e-3 -0.128-4e-3 -0.128v-0.065-4e-3l1e-3 -0.113 4e-3 -0.113 6e-3 -0.112 9e-3 -0.112 0.011-0.111 0.014-0.11 0.016-0.109 0.018-0.109 0.02-0.108 0.023-0.107 0.025-0.106 0.028-0.105 0.029-0.104 0.032-0.103 0.034-0.103 0.036-0.101 0.038-0.1 0.041-0.1 0.042-0.098 0.044-0.097 0.046-0.096 0.049-0.095 0.05-0.094 0.052-0.092 0.054-0.091 0.056-0.09 0.058-0.089 0.06-0.088 0.061-0.086 0.063-0.084 0.065-0.084 0.066-0.081 0.069-0.081 0.07-0.079 0.071-0.077 0.073-0.076 0.075-0.075 0.076-0.072 0.078-0.072 0.079-0.069 0.081-0.068 0.082-0.066 0.084-0.065 0.085-0.063 0.086-0.061 0.088-0.059 0.089-0.057 0.09-0.056 0.091-0.054 0.093-0.051 0.094-0.05 0.095-0.048 0.096-0.046 0.098-0.044 0.098-0.042 0.1-0.04 0.1-0.037 0.102-0.036 0.103-0.034 0.103-0.031 0.105-0.029 0.105-0.027 0.106-0.025 0.107-0.022 0.011-0.081 0.012-0.081 0.014-0.08 0.016-0.08 0.017-0.079 0.02-0.078 0.021-0.077 0.023-0.077 0.024-0.076 0.054-0.15 0.03-0.073 0.031-0.073 0.033-0.072 0.034-0.071 0.036-0.07 0.037-0.069 0.039-0.069 0.04-0.067 0.042-0.066 0.043-0.066 0.045-0.064 0.046-0.063 0.047-0.062 0.049-0.062 0.05-0.059 0.052-0.059 0.052-0.058 0.054-0.056 0.055-0.056 0.056-0.054 0.058-0.052 0.059-0.052 0.059-0.05 0.061-0.049 0.062-0.048 0.064-0.046 0.064-0.045 0.065-0.043 0.066-0.042 0.067-0.04 0.069-0.039 0.069-0.038 0.07-0.036 0.071-0.034 0.072-0.033 0.072-0.032 0.074-0.029 0.074-0.028 0.075-0.027 0.076-0.025 0.077-0.023 0.077-0.021 0.078-0.02 0.079-0.017 0.08-0.016 0.08-0.015 0.08-0.012 0.082-0.011 0.081-8e-3 0.083-7e-3 0.083-5e-3 0.083-3e-3 0.084-1e-3h0.059l0.118 4e-3 0.059 4e-3 0.058 4e-3 0.116 0.012 0.057 7e-3 0.057 8e-3 0.057 9e-3 0.057 0.01 0.056 0.011 0.112 0.024 0.11 0.028 0.054 0.015 0.162 0.051 0.053 0.019 0.052 0.019 0.053 0.021 0.052 0.021 0.102 0.044 0.051 0.024 0.05 0.024 0.05 0.025 0.098 0.052 0.048 0.028 0.031-0.094 0.033-0.093 0.035-0.092 0.037-0.091 0.038-0.091 0.04-0.089 0.042-0.088 0.043-0.088 0.046-0.087 0.046-0.085 0.049-0.085 0.049-0.083 0.052-0.082 0.053-0.082 0.055-0.08 0.056-0.079 0.057-0.078 0.059-0.077 0.06-0.075 0.062-0.075 0.064-0.073 0.064-0.072 0.066-0.071 0.068-0.069 0.068-0.068 0.07-0.067 0.071-0.065 0.073-0.064 0.074-0.063 0.074-0.061 0.077-0.06 0.077-0.059 0.078-0.056 0.08-0.056 0.081-0.054 0.081-0.052 0.083-0.051 0.084-0.049 0.085-0.048 0.086-0.046 0.087-0.044 0.088-0.043 0.089-0.041 0.09-0.039 0.09-0.038 0.092-0.036 0.092-0.034 0.094-0.032 0.094-0.031 0.095-0.029 0.095-0.026 0.097-0.026 0.097-0.023 0.098-0.021 0.098-0.019 0.1-0.018 0.1-0.015 0.1-0.013 0.101-0.012 0.102-9e-3 0.103-8e-3 0.103-5e-3 0.103-3e-3 0.104-1e-3h0.065zm-0.149 1.001-0.083 2e-3 -0.082 5e-3 -0.082 6e-3 -0.082 7e-3 -0.081 9e-3 -0.08 0.011-0.08 0.012-0.079 0.014-0.079 0.016-0.078 0.016-0.078 0.019-0.077 0.02-0.076 0.021-0.076 0.023-0.075 0.025-0.075 0.026-0.073 0.027-0.074 0.028-0.144 0.062-0.071 0.033-0.07 0.034-0.069 0.035-0.069 0.037-0.068 0.038-0.134 0.08-0.065 0.042-0.065 0.043-0.126 0.09-0.062 0.047-0.061 0.048-0.06 0.049-0.059 0.05-0.058 0.052-0.057 0.052-0.056 0.054-0.055 0.054-0.054 0.056-0.053 0.056-0.052 0.058-0.051 0.059-0.049 0.059-0.049 0.061-0.047 0.061-0.046 0.063-0.045 0.063-0.044 0.064-0.042 0.065-0.041 0.066-0.04 0.067-0.039 0.068-0.037 0.068-0.036 0.069-0.035 0.07-0.033 0.071-0.032 0.071-0.031 0.073-0.029 0.072-0.028 0.074-0.026 0.074-0.413 1.234-1.097-0.619-0.035-0.019-0.035-0.018-0.036-0.018-0.035-0.017-0.036-0.017-0.037-0.016-0.036-0.016-0.037-0.015-0.038-0.014-0.037-0.014-0.076-0.026-0.038-0.012-0.039-0.012-0.039-0.01-0.039-0.011-0.039-9e-3 -0.08-0.018-0.04-7e-3 -0.04-8e-3 -0.04-6e-3 -0.041-6e-3 -0.041-5e-3 -0.042-4e-3 -0.041-4e-3 -0.084-6e-3 -0.042-2e-3 -0.042-1e-3h-0.041l-0.062 1e-3 -0.06 2e-3 -0.06 3e-3 -0.059 5e-3 -0.058 6e-3 -0.058 8e-3 -0.058 9e-3 -0.057 0.01-0.056 0.011-0.056 0.013-0.056 0.014-0.055 0.015-0.055 0.017-0.054 0.017-0.053 0.019-0.053 0.02-0.053 0.021-0.051 0.023-0.052 0.023-0.1 0.05-0.049 0.027-0.049 0.028-0.048 0.029-0.047 0.03-0.047 0.031-0.046 0.032-0.045 0.033-0.045 0.034-0.043 0.035-0.043 0.036-0.042 0.037-0.082 0.076-0.078 0.08-0.074 0.084-0.036 0.043-0.035 0.044-0.034 0.044-0.033 0.045-0.032 0.046-0.031 0.047-0.029 0.047-0.029 0.048-0.028 0.049-0.027 0.05-0.05 0.1-0.023 0.052-0.022 0.052-0.021 0.052-0.02 0.053-0.019 0.054-0.017 0.054-0.016 0.054-0.016 0.055-0.026 0.112-0.011 0.057-0.01 0.057-9e-3 0.058-0.099 0.776-0.793 0.166-0.085 0.02-0.084 0.021-0.084 0.023-0.082 0.025-0.082 0.027-0.081 0.029-0.081 0.03-0.079 0.032-0.079 0.033-0.078 0.035-0.077 0.037-0.075 0.038-0.076 0.04-0.074 0.041-0.073 0.043-0.072 0.045-0.071 0.046-0.07 0.047-0.07 0.049-0.068 0.05-0.066 0.052-0.066 0.053-0.065 0.054-0.063 0.056-0.063 0.057-0.061 0.058-0.06 0.06-0.058 0.061-0.058 0.062-0.056 0.063-0.054 0.064-0.054 0.066-0.052 0.067-0.05 0.068-0.049 0.068-0.048 0.07-0.046 0.071-0.045 0.072-0.043 0.073-0.042 0.074-0.04 0.075-0.039 0.076-0.037 0.077-0.035 0.077-0.034 0.079-0.032 0.079-0.03 0.08-0.029 0.081-0.027 0.082-0.026 0.082-0.023 0.084-0.022 0.084-0.02 0.084-0.018 0.086-0.017 0.086-0.014 0.087-0.013 0.087-0.011 0.088-9e-3 0.089-7e-3 0.089-5e-3 0.09-3e-3 0.091-1e-3 0.095v0.052l1e-3 0.052 2e-3 0.051 2e-3 0.052 3e-3 0.051 4e-3 0.051 4e-3 0.05 5e-3 0.051 5e-3 0.05 6e-3 0.051 7e-3 0.049 7e-3 0.05 8e-3 0.05 0.027 0.147 0.011 0.048 0.01 0.049 0.036 0.144 0.014 0.047 0.013 0.047 0.015 0.047 0.014 0.047 0.016 0.047 0.032 0.092 0.017 0.045 0.017 0.043 0.038 0.093 0.039 0.089 0.041 0.088 0.043 0.086 0.045 0.086 0.047 0.084 0.049 0.083 0.051 0.082 0.053 0.081 0.055 0.079 0.057 0.077 0.058 0.077 0.061 0.075 0.062 0.073 0.063 0.072 0.066 0.07 0.067 0.069 0.069 0.067 0.07 0.066 0.072 0.063 0.073 0.062 0.075 0.061 0.077 0.058 0.077 0.057 0.079 0.055 0.081 0.053 0.082 0.051 0.083 0.049 0.084 0.047 0.086 0.045 0.086 0.043 0.088 0.041 0.089 0.039 0.093 0.038 0.043 0.017 0.045 0.017 0.046 0.016 0.047 0.016 0.046 0.016 0.047 0.014 0.047 0.015 0.047 0.013 0.047 0.014 0.144 0.036 0.049 0.01 0.048 0.011 0.147 0.027 0.05 8e-3 0.1 0.014 0.05 6e-3 0.05 5e-3 0.051 5e-3 0.05 4e-3 0.051 4e-3 0.051 3e-3 0.052 2e-3 0.051 2e-3 0.052 1e-3h0.055 13.998 0.055l0.052-1e-3 0.051-2e-3 0.052-2e-3 0.051-3e-3 0.051-4e-3 0.05-4e-3 0.051-5e-3 0.05-5e-3 0.05-6e-3 0.1-0.014 0.05-8e-3 0.147-0.027 0.048-0.011 0.049-0.01 0.144-0.036 0.047-0.014 0.047-0.013 0.047-0.015 0.047-0.014 0.046-0.016 0.047-0.016 0.046-0.016 0.045-0.017 0.043-0.017 0.093-0.038 0.089-0.039 0.088-0.041 0.086-0.043 0.086-0.045 0.084-0.047 0.083-0.049 0.082-0.051 0.081-0.053 0.079-0.055 0.077-0.057 0.077-0.058 0.075-0.061 0.073-0.062 0.072-0.063 0.07-0.066 0.069-0.067 0.067-0.069 0.066-0.07 0.063-0.072 0.062-0.073 0.061-0.075 0.058-0.077 0.057-0.077 0.055-0.079 0.053-0.081 0.051-0.082 0.049-0.083 0.047-0.084 0.045-0.086 0.043-0.086 0.041-0.088 0.039-0.089 0.038-0.093 0.017-0.043 0.017-0.045 0.016-0.046 0.016-0.047 0.016-0.046 0.014-0.047 0.015-0.047 0.013-0.047 0.014-0.047 0.036-0.144 0.01-0.049 0.011-0.048 0.027-0.147 8e-3 -0.05 0.014-0.1 6e-3 -0.05 5e-3 -0.05 5e-3 -0.051 4e-3 -0.05 4e-3 -0.051 3e-3 -0.052 4e-3 -0.102 1e-3 -0.052v-0.054-0.054l-1e-3 -0.052-4e-3 -0.102-3e-3 -0.052-4e-3 -0.051-4e-3 -0.05-5e-3 -0.051-5e-3 -0.05-6e-3 -0.05-0.014-0.1-8e-3 -0.05-0.027-0.147-0.011-0.048-0.01-0.049-0.036-0.144-0.014-0.047-0.013-0.047-0.015-0.047-0.014-0.047-0.016-0.046-0.016-0.047-0.016-0.046-0.017-0.045-0.017-0.043-0.038-0.093-0.039-0.089-0.041-0.088-0.043-0.086-0.045-0.086-0.047-0.084-0.049-0.083-0.051-0.082-0.053-0.081-0.055-0.079-0.057-0.077-0.058-0.077-0.061-0.075-0.062-0.073-0.063-0.072-0.066-0.07-0.067-0.069-0.069-0.067-0.07-0.066-0.072-0.063-0.073-0.062-0.075-0.061-0.077-0.058-0.077-0.057-0.079-0.055-0.081-0.053-0.082-0.051-0.083-0.049-0.084-0.047-0.086-0.045-0.086-0.043-0.088-0.041-0.089-0.039-0.093-0.038-0.043-0.017-0.045-0.017-0.046-0.016-0.047-0.016-0.046-0.016-0.047-0.014-0.047-0.015-0.047-0.013-0.047-0.014-0.144-0.036-0.049-0.01-0.048-0.011-0.147-0.027-0.05-8e-3 -0.1-0.014-0.05-6e-3 -0.05-5e-3 -0.051-5e-3 -0.05-4e-3 -0.051-4e-3 -0.051-3e-3 -0.052-2e-3 -0.051-2e-3 -0.052-1e-3h-0.055-1.315l0.245-1.248 9e-3 -0.049 9e-3 -0.048 7e-3 -0.05 8e-3 -0.049 6e-3 -0.049 0.012-0.1 4e-3 -0.05 4e-3 -0.051 4e-3 -0.05 3e-3 -0.051 4e-3 -0.102 1e-3 -0.051v-0.052-0.052l-1e-3 -0.052-4e-3 -0.102-3e-3 -0.052-4e-3 -0.051-4e-3 -0.05-5e-3 -0.051-5e-3 -0.05-6e-3 -0.05-0.014-0.1-8e-3 -0.049-9e-3 -0.05-9e-3 -0.049-9e-3 -0.048-0.011-0.049-0.01-0.048-0.012-0.049-0.012-0.047-0.026-0.096-0.013-0.047-0.03-0.094-0.015-0.046-0.016-0.046-0.034-0.092-0.016-0.043-0.038-0.093-0.039-0.089-0.041-0.088-0.043-0.086-0.046-0.086-0.047-0.084-0.049-0.083-0.051-0.082-0.053-0.081-0.055-0.079-0.057-0.078-0.058-0.076-0.061-0.075-0.062-0.074-0.064-0.071-0.065-0.071-0.067-0.069-0.069-0.067-0.07-0.065-0.072-0.064-0.074-0.062-0.075-0.061-0.076-0.058-0.078-0.057-0.079-0.055-0.081-0.053-0.082-0.051-0.083-0.049-0.084-0.047-0.086-0.046-0.086-0.043-0.088-0.041-0.089-0.039-0.093-0.038-0.043-0.016-0.092-0.034-0.046-0.016-0.046-0.015-0.094-0.03-0.047-0.013-0.048-0.013-0.047-0.013-0.048-0.012-0.049-0.012-0.048-0.01-0.049-0.011-0.048-9e-3 -0.049-9e-3 -0.05-9e-3 -0.049-8e-3 -0.1-0.014-0.05-6e-3 -0.05-5e-3 -0.051-5e-3 -0.05-4e-3 -0.051-4e-3 -0.052-3e-3 -0.102-4e-3 -0.052-1e-3h-0.05l-0.086 1e-3z" fill="#e6e6e6"/></g></g></svg>
