<?xml version="1.0" encoding="UTF-8"?>
<!DOCTYPE svg  PUBLIC '-//W3C//DTD SVG 1.1//EN'  'http://www.w3.org/Graphics/SVG/1.1/DTD/svg11.dtd'>
<svg clip-rule="evenodd" fill-rule="evenodd" stroke-linecap="square" version="1.1" viewBox="0 0 32 32" xml:space="preserve" xmlns="http://www.w3.org/2000/svg">
<metadata>
<rdf:RDF xmlns:cc="http://web.resource.org/cc/" xmlns:dc="http://purl.org/dc/elements/1.1/" xmlns:rdf="http://www.w3.org/1999/02/22-rdf-syntax-ns#">

     <rdf:Description rdf:about="">
       <dc:title>Mutant Standard emoji 2023.12</dc:title>
     </rdf:Description>

    <cc:work rdf:about="">
        <cc:license rdf:resource="http://creativecommons.org/licenses/by-nc-sa/4.0/"/>
        <cc:attributionName>Caius Nocturne</cc:attributionName>
        <cc:attributionURL>http://mutant.tech/</cc:attributionURL>
    </cc:work>

</rdf:RDF>
</metadata>
<rect id="sun_behind_large_cloud" width="32" height="32" fill="none"/><clipPath id="_clip1"><rect width="32" height="32"/></clipPath><g clip-path="url(#_clip1)"><g id="outline"><path d="m17.832 18.896c0.815-1.147 2.155-1.896 3.668-1.896 2.357 0 4.293 1.816 4.483 4.126 1.734 0.432 3.017 2.002 3.017 3.872v4e-3c0 2.208-1.79 3.998-3.998 3.998h-13.004c-2.208 0-3.998-1.79-3.998-3.998v-4e-3c0-2.208 1.79-3.998 3.998-3.998h0.042c0.24-1.696 1.699-3 3.46-3 0.896 0 1.714 0.337 2.332 0.896z" fill="none" stroke="#000" stroke-width="4px"/><circle cx="13" cy="13" r="10"/><rect x="5.222" y="5.222" width="15.556" height="15.556" fill="none" stroke="#000" stroke-linecap="round" stroke-linejoin="round" stroke-miterlimit="1.5" stroke-width="4px"/><path d="m24 13-11-11-11 11 11 11 11-11z" fill="none" stroke="#000" stroke-linecap="round" stroke-linejoin="round" stroke-miterlimit="1.5" stroke-width="4px"/></g><g id="emoji"><circle cx="13" cy="13" r="8" fill="#e48a1b"/><circle cx="13" cy="13" r="6" fill="#ffc144"/><path d="m4 11-2 2 2 2v-4z" fill="#e48a1b"/><path d="m8.05 5.222h-2.828v2.828l2.828-2.828z" fill="#e48a1b"/><path d="m15 4-2-2-2 2h4z" fill="#e48a1b"/><path d="m20.778 8.05v-2.828h-2.828l2.828 2.828z" fill="#e48a1b"/><path d="m22 11 2 2-2 2v-4z" fill="#e48a1b"/><path d="m20.778 17.95v2.828h-2.828l2.828-2.828z" fill="#e48a1b"/><path d="m15 22-2 2-2-2h4z" fill="#e48a1b"/><path d="m8.05 20.778h-2.828v-2.828l2.828 2.828z" fill="#e48a1b"/><path d="m17.832 18.896c0.815-1.147 2.155-1.896 3.668-1.896 2.357 0 4.293 1.816 4.483 4.126 1.734 0.432 3.017 2.002 3.017 3.872v4e-3c0 2.208-1.79 3.998-3.998 3.998h-13.004c-2.208 0-3.998-1.79-3.998-3.998v-4e-3c0-2.208 1.79-3.998 3.998-3.998h0.042c0.24-1.696 1.699-3 3.46-3 0.896 0 1.714 0.337 2.332 0.896z" fill="#e6e6e6"/><path d="m17.833 18.892c0.816-1.145 2.155-1.892 3.667-1.892 2.356 0 4.292 1.815 4.484 4.122 1.733 0.437 3.016 2.007 3.016 3.876v4e-3c0 2.208-1.79 3.998-3.998 3.998h-13.004c-2.208 0-3.998-1.79-3.998-3.998v-4e-3c0-2.208 1.79-3.998 3.998-3.998h0.038c0.242-1.695 1.702-3 3.464-3 0.896 0 1.714 0.337 2.333 0.892z" fill="none"/><clipPath id="_clip2"><path d="m17.833 18.892c0.816-1.145 2.155-1.892 3.667-1.892 2.356 0 4.292 1.815 4.484 4.122 1.733 0.437 3.016 2.007 3.016 3.876v4e-3c0 2.208-1.79 3.998-3.998 3.998h-13.004c-2.208 0-3.998-1.79-3.998-3.998v-4e-3c0-2.208 1.79-3.998 3.998-3.998h0.038c0.242-1.695 1.702-3 3.464-3 0.896 0 1.714 0.337 2.333 0.892z"/></clipPath><g clip-path="url(#_clip2)"><path d="m25 20-2e-3 -2e-3c-0.837-0.837-2.096-1.088-3.19-0.634-1.095 0.453-1.808 1.521-1.808 2.705v0.931h-1.5c-1.381 0-2.5 1.119-2.5 2.5 0 0.663 0.263 1.299 0.732 1.768s1.105 0.732 1.768 0.732h9.5v-8h-3z" fill="#bfbfbf"/></g><path d="m21.61 17.001 0.11 4e-3 0.108 7e-3 0.109 9e-3 0.107 0.012 0.106 0.014 0.106 0.016 0.105 0.019 0.104 0.022 0.104 0.024 0.102 0.026 0.101 0.029 0.101 0.031 0.099 0.033 0.098 0.035 0.098 0.038 0.096 0.039 0.095 0.042 0.094 0.044 0.092 0.046 0.092 0.048 0.09 0.051 0.089 0.052 0.088 0.054 0.086 0.056 0.085 0.058 0.083 0.06 0.082 0.061 0.081 0.064 0.079 0.065 0.078 0.067 0.076 0.069 0.074 0.07 0.073 0.072 0.071 0.074 0.069 0.075 0.068 0.077 0.066 0.078 0.065 0.08 0.062 0.082 0.061 0.083 0.059 0.084 0.057 0.085 0.055 0.087 0.053 0.089 0.051 0.089 0.049 0.091 0.047 0.092 0.045 0.094 0.043 0.094 0.04 0.096 0.039 0.097 0.036 0.097 0.034 0.099 0.032 0.1 0.03 0.101 0.027 0.102 0.025 0.103 0.023 0.104 0.02 0.104 0.018 0.106 0.015 0.106 0.013 0.107 0.01 0.108 0.081 0.021 0.08 0.023 0.08 0.025 0.079 0.026 0.078 0.028 0.077 0.029 0.077 0.031 0.075 0.032 0.075 0.034 0.148 0.072 0.144 0.078 0.14 0.084 0.069 0.044 0.067 0.045 0.067 0.047 0.066 0.048 0.065 0.049 0.126 0.102 0.062 0.053 0.06 0.055 0.059 0.055 0.059 0.057 0.057 0.057 0.056 0.059 0.054 0.06 0.054 0.062 0.052 0.062 0.051 0.063 0.05 0.064 0.048 0.066 0.047 0.066 0.046 0.067 0.045 0.069 0.043 0.069 0.041 0.07 0.041 0.072 0.039 0.072 0.037 0.072 0.036 0.074 0.035 0.075 0.033 0.075 0.031 0.077 0.03 0.077 0.029 0.077 0.052 0.158 0.023 0.08 0.022 0.081 0.021 0.081 0.018 0.082 0.017 0.083 0.016 0.083 0.013 0.084 0.012 0.084 0.01 0.085 8e-3 0.085 7e-3 0.086 4e-3 0.087 3e-3 0.087 1e-3 0.087v4e-3l-1e-3 0.103-4e-3 0.103-7e-3 0.102-9e-3 0.101-0.011 0.1-0.014 0.1-0.016 0.099-0.019 0.098-0.021 0.097-0.024 0.096-0.026 0.096-0.028 0.094-0.03 0.093-0.033 0.093-0.034 0.091-0.037 0.09-0.039 0.089-0.041 0.088-0.043 0.087-0.046 0.086-0.047 0.084-0.049 0.083-0.051 0.082-0.053 0.08-0.055 0.079-0.056 0.078-0.059 0.076-0.06 0.075-0.062 0.073-0.064 0.072-0.065 0.07-0.067 0.069-0.069 0.067-0.07 0.065-0.072 0.064-0.073 0.062-0.075 0.06-0.076 0.059-0.078 0.056-0.079 0.055-0.08 0.053-0.082 0.051-0.083 0.049-0.084 0.047-0.086 0.046-0.087 0.043-0.088 0.041-0.089 0.039-0.09 0.037-0.091 0.034-0.093 0.033-0.093 0.03-0.095 0.028-0.095 0.026-0.096 0.024-0.097 0.021-0.098 0.019-0.099 0.016-0.1 0.014-0.1 0.011-0.101 9e-3 -0.102 7e-3 -0.103 4e-3 -0.103 1e-3h-13.004l-0.103-1e-3 -0.103-4e-3 -0.102-7e-3 -0.101-9e-3 -0.1-0.011-0.1-0.014-0.099-0.016-0.098-0.019-0.097-0.021-0.096-0.024-0.095-0.026-0.095-0.028-0.093-0.03-0.093-0.033-0.091-0.034-0.09-0.037-0.089-0.039-0.088-0.041-0.087-0.043-0.086-0.046-0.084-0.047-0.083-0.049-0.082-0.051-0.08-0.053-0.079-0.055-0.078-0.056-0.076-0.059-0.075-0.06-0.073-0.062-0.072-0.064-0.07-0.065-0.069-0.067-0.067-0.069-0.065-0.07-0.064-0.072-0.062-0.073-0.06-0.075-0.059-0.076-0.056-0.078-0.055-0.079-0.053-0.08-0.051-0.082-0.049-0.083-0.047-0.084-0.046-0.086-0.043-0.087-0.041-0.088-0.039-0.089-0.037-0.09-0.034-0.091-0.033-0.093-0.03-0.093-0.028-0.094-0.026-0.096-0.024-0.096-0.021-0.097-0.019-0.098-0.016-0.099-0.014-0.1-0.011-0.1-9e-3 -0.101-7e-3 -0.102-4e-3 -0.103-1e-3 -0.103v-4e-3l1e-3 -0.103 4e-3 -0.103 7e-3 -0.102 9e-3 -0.101 0.011-0.1 0.014-0.1 0.016-0.099 0.019-0.098 0.021-0.097 0.024-0.096 0.026-0.096 0.028-0.094 0.03-0.093 0.033-0.093 0.034-0.091 0.037-0.09 0.039-0.089 0.041-0.088 0.043-0.087 0.046-0.086 0.047-0.084 0.049-0.083 0.051-0.082 0.053-0.08 0.055-0.079 0.056-0.078 0.059-0.076 0.06-0.075 0.062-0.073 0.064-0.072 0.065-0.07 0.067-0.069 0.069-0.067 0.07-0.065 0.072-0.064 0.073-0.062 0.075-0.06 0.076-0.059 0.078-0.056 0.079-0.055 0.08-0.053 0.082-0.051 0.083-0.049 0.084-0.047 0.086-0.046 0.087-0.043 0.088-0.041 0.089-0.039 0.09-0.037 0.091-0.034 0.093-0.033 0.093-0.03 0.095-0.028 0.095-0.026 0.096-0.024 0.097-0.021 0.098-0.019 0.099-0.016 0.1-0.014 0.1-0.011 0.101-9e-3 0.102-7e-3 0.103-4e-3 0.103-1e-3h0.038l0.012-0.079 0.014-0.079 0.016-0.078 0.017-0.077 0.019-0.077 0.021-0.076 0.023-0.075 0.024-0.075 0.026-0.073 0.027-0.074 0.029-0.072 0.03-0.071 0.032-0.071 0.034-0.07 0.035-0.069 0.037-0.068 0.037-0.067 0.04-0.066 0.041-0.066 0.042-0.064 0.043-0.063 0.045-0.063 0.046-0.061 0.048-0.06 0.049-0.059 0.05-0.058 0.051-0.057 0.052-0.056 0.054-0.055 0.055-0.053 0.056-0.053 0.057-0.051 0.058-0.05 0.06-0.048 0.06-0.047 0.062-0.046 0.062-0.045 0.064-0.043 0.064-0.042 0.066-0.041 0.066-0.039 0.067-0.038 0.069-0.036 0.069-0.035 0.07-0.033 0.07-0.032 0.072-0.03 0.073-0.029 0.073-0.027 0.074-0.025 0.074-0.024 0.076-0.022 0.076-0.021 0.077-0.019 0.077-0.017 0.078-0.016 0.079-0.013 0.079-0.012 0.08-0.011 0.08-8e-3 0.081-6e-3 0.082-5e-3 0.082-3e-3 0.082-1e-3 0.084 1e-3 0.083 3e-3 0.083 5e-3 0.082 7e-3 0.082 8e-3 0.081 0.011 0.081 0.012 0.079 0.014 0.08 0.016 0.078 0.018 0.078 0.02 0.078 0.021 0.076 0.023 0.076 0.025 0.075 0.026 0.074 0.028 0.074 0.03 0.072 0.031 0.072 0.033 0.071 0.034 0.07 0.036 0.069 0.037 0.068 0.039 0.067 0.041 0.067 0.042 0.065 0.043 0.064 0.044 0.063 0.047 0.062 0.047 0.061 0.049 0.06 0.05 0.058 0.051 0.078-0.106 0.04-0.052 0.041-0.052 0.042-0.051 0.042-0.05 0.043-0.05 0.044-0.049 0.09-0.096 0.092-0.094 0.047-0.045 0.048-0.046 0.098-0.088 0.05-0.043 0.05-0.042 0.051-0.041 0.052-0.041 0.052-0.04 0.106-0.078 0.054-0.038 0.055-0.037 0.055-0.036 0.112-0.07 0.057-0.034 0.057-0.033 0.058-0.032 0.118-0.062 0.059-0.029 0.06-0.029 0.06-0.028 0.061-0.027 0.062-0.026 0.061-0.026 0.063-0.024 0.062-0.024 0.063-0.022 0.064-0.022 0.064-0.021 0.064-0.02 0.13-0.036 0.066-0.017 0.066-0.016 0.066-0.015 0.067-0.014 0.067-0.013 0.068-0.013 0.067-0.011 0.068-0.01 0.069-9e-3 0.069-8e-3 0.069-7e-3 0.069-5e-3 0.07-5e-3 0.07-4e-3 0.07-3e-3 0.07-1e-3 0.071-1e-3 0.11 1e-3zm-0.165 0.999-0.11 4e-3 -0.055 3e-3 -0.108 8e-3 -0.054 6e-3 -0.053 6e-3 -0.053 7e-3 -0.106 0.016-0.104 0.02-0.104 0.022-0.102 0.026-0.05 0.014-0.051 0.014-0.05 0.016-0.049 0.016-0.05 0.017-0.049 0.017-0.048 0.018-0.049 0.019-0.048 0.02-0.047 0.02-0.047 0.021-0.047 0.022-0.047 0.023-0.092 0.046-0.135 0.075-0.088 0.054-0.043 0.027-0.043 0.028-0.043 0.029-0.042 0.03-0.041 0.03-0.042 0.03-0.04 0.031-0.08 0.064-0.04 0.033-0.038 0.034-0.039 0.034-0.037 0.034-0.038 0.036-0.037 0.035-0.036 0.036-0.036 0.037-0.035 0.037-0.034 0.038-0.035 0.038-0.066 0.078-0.033 0.04-0.031 0.04-0.032 0.041-0.03 0.041-0.678 0.936-0.876-0.767-0.043-0.036-0.043-0.034-0.045-0.034-0.045-0.033-0.046-0.032-0.046-0.031-0.048-0.03-0.048-0.029-0.048-0.028-0.049-0.026-0.05-0.026-0.051-0.025-0.051-0.023-0.052-0.022-0.052-0.021-0.053-0.02-0.053-0.019-0.054-0.018-0.055-0.016-0.055-0.015-0.055-0.014-0.056-0.013-0.057-0.011-0.057-0.01-0.057-9e-3 -0.058-8e-3 -0.059-6e-3 -0.059-5e-3 -0.059-3e-3 -0.06-2e-3 -0.06-1e-3 -0.059 1e-3 -0.059 2e-3 -0.058 3e-3 -0.058 5e-3 -0.058 6e-3 -0.057 7e-3 -0.112 0.018-0.056 0.012-0.055 0.012-0.055 0.013-0.054 0.015-0.054 0.016-0.053 0.017-0.053 0.018-0.052 0.019-0.102 0.042-0.051 0.023-0.05 0.024-0.049 0.024-0.049 0.026-0.048 0.027-0.047 0.028-0.047 0.029-0.046 0.03-0.046 0.031-0.044 0.032-0.044 0.033-0.043 0.034-0.043 0.035-0.042 0.035-0.041 0.037-0.04 0.037-0.039 0.039-0.038 0.039-0.038 0.04-0.037 0.041-0.036 0.041-0.035 0.042-0.034 0.044-0.033 0.043-0.032 0.045-0.031 0.045-0.03 0.046-0.029 0.047-0.028 0.047-0.027 0.048-0.026 0.049-0.025 0.049-0.024 0.05-0.023 0.05-0.022 0.051-0.04 0.104-0.018 0.052-0.017 0.053-0.017 0.054-0.014 0.054-0.014 0.055-0.013 0.055-0.011 0.055-0.01 0.056-0.142 0.915h-0.888l-0.084 1e-3 -0.077 3e-3 -0.077 5e-3 -0.076 7e-3 -0.075 8e-3 -0.075 0.011-0.074 0.012-0.073 0.014-0.073 0.016-0.072 0.017-0.071 0.02-0.071 0.021-0.07 0.022-0.069 0.025-0.068 0.026-0.068 0.027-0.066 0.029-0.066 0.031-0.065 0.033-0.064 0.033-0.064 0.036-0.062 0.036-0.061 0.039-0.06 0.039-0.06 0.042-0.058 0.042-0.057 0.044-0.057 0.045-0.055 0.047-0.054 0.048-0.052 0.049-0.052 0.05-0.05 0.052-0.049 0.052-0.048 0.054-0.047 0.055-0.045 0.057-0.044 0.057-0.042 0.058-0.042 0.06-0.039 0.06-0.039 0.061-0.036 0.062-0.036 0.064-0.034 0.064-0.032 0.065-0.031 0.066-0.029 0.066-0.027 0.068-0.026 0.068-0.025 0.069-0.022 0.07-0.021 0.071-0.02 0.071-0.017 0.072-0.016 0.073-0.014 0.073-0.012 0.074-0.011 0.075-8e-3 0.075-7e-3 0.076-5e-3 0.077-3e-3 0.077-1e-3 0.08 1e-3 0.08 3e-3 0.077 5e-3 0.077 7e-3 0.076 8e-3 0.075 0.011 0.075 0.012 0.074 0.014 0.073 0.016 0.073 0.017 0.072 0.02 0.071 0.021 0.071 0.022 0.07 0.025 0.069 0.026 0.068 0.027 0.068 0.029 0.066 0.031 0.066 0.032 0.065 0.034 0.064 0.036 0.064 0.036 0.062 0.039 0.061 0.039 0.06 0.042 0.06 0.042 0.058 0.044 0.057 0.045 0.057 0.047 0.055 0.048 0.054 0.049 0.052 0.05 0.052 0.052 0.05 0.052 0.049 0.054 0.048 0.055 0.047 0.057 0.045 0.057 0.044 0.058 0.042 0.06 0.042 0.06 0.039 0.061 0.039 0.062 0.036 0.064 0.036 0.064 0.033 0.065 0.033 0.066 0.031 0.066 0.029 0.068 0.027 0.068 0.026 0.069 0.025 0.07 0.022 0.071 0.021 0.071 0.02 0.072 0.017 0.073 0.016 0.073 0.014 0.074 0.012 0.075 0.011 0.075 8e-3 0.076 7e-3 0.077 5e-3 0.077 3e-3 0.084 1e-3h12.992l0.084-1e-3 0.077-3e-3 0.077-5e-3 0.076-7e-3 0.075-8e-3 0.075-0.011 0.074-0.012 0.073-0.014 0.073-0.016 0.072-0.017 0.071-0.02 0.071-0.021 0.07-0.022 0.069-0.025 0.068-0.026 0.068-0.027 0.066-0.029 0.066-0.031 0.065-0.033 0.064-0.033 0.064-0.036 0.062-0.036 0.061-0.039 0.06-0.039 0.06-0.042 0.058-0.042 0.057-0.044 0.057-0.045 0.055-0.047 0.054-0.048 0.052-0.049 0.052-0.05 0.05-0.052 0.049-0.052 0.048-0.054 0.047-0.055 0.045-0.057 0.044-0.057 0.042-0.058 0.042-0.06 0.039-0.06 0.039-0.061 0.036-0.062 0.036-0.064 0.034-0.064 0.032-0.065 0.031-0.066 0.029-0.066 0.027-0.068 0.026-0.068 0.025-0.069 0.022-0.07 0.021-0.071 0.02-0.071 0.017-0.072 0.016-0.073 0.014-0.073 0.012-0.074 0.011-0.075 8e-3 -0.075 7e-3 -0.076 5e-3 -0.077 3e-3 -0.077 1e-3 -0.081-1e-3 -0.067-2e-3 -0.065-3e-3 -0.066-5e-3 -0.064-6e-3 -0.064-8e-3 -0.064-9e-3 -0.063-0.01-0.063-0.011-0.062-0.013-0.062-0.014-0.061-0.015-0.061-0.017-0.061-0.017-0.059-0.019-0.06-0.02-0.058-0.022-0.059-0.022-0.057-0.048-0.114-0.026-0.056-0.027-0.055-0.028-0.054-0.029-0.054-0.031-0.054-0.031-0.052-0.032-0.052-0.033-0.052-0.07-0.1-0.037-0.049-0.037-0.048-0.038-0.048-0.04-0.047-0.04-0.046-0.041-0.045-0.042-0.044-0.086-0.086-0.045-0.042-0.045-0.04-0.047-0.04-0.047-0.039-0.048-0.038-0.048-0.037-0.05-0.036-0.05-0.035-0.051-0.034-0.051-0.033-0.052-0.032-0.053-0.031-0.108-0.058-0.055-0.028-0.055-0.026-0.057-0.026-0.056-0.024-0.057-0.023-0.058-0.022-0.059-0.021-0.118-0.038-0.06-0.017-0.745-0.196-0.075-0.79-0.01-0.083-0.012-0.083-0.014-0.082-0.016-0.081-0.017-0.081-0.02-0.079-0.021-0.079-0.023-0.079-0.025-0.077-0.026-0.077-0.028-0.076-0.03-0.075-0.032-0.074-0.033-0.074-0.035-0.072-0.037-0.072-0.038-0.07-0.04-0.07-0.041-0.069-0.043-0.067-0.044-0.067-0.046-0.066-0.047-0.064-0.049-0.064-0.05-0.062-0.051-0.061-0.053-0.06-0.054-0.059-0.056-0.057-0.056-0.056-0.058-0.055-0.06-0.054-0.06-0.052-0.062-0.051-0.063-0.049-0.063-0.048-0.065-0.047-0.067-0.045-0.067-0.043-0.068-0.042-0.069-0.041-0.07-0.039-0.071-0.037-0.072-0.036-0.073-0.034-0.074-0.033-0.075-0.031-0.075-0.029-0.076-0.027-0.077-0.026-0.078-0.024-0.079-0.022-0.079-0.021-0.08-0.018-0.081-0.017-0.082-0.015-0.082-0.013-0.083-0.011-0.083-9e-3 -0.085-7e-3 -0.084-5e-3 -0.086-3e-3 -0.088-1e-3h-0.053z" fill="#e6e6e6"/></g></g></svg>
