<?xml version="1.0" encoding="UTF-8"?>
<!DOCTYPE svg  PUBLIC '-//W3C//DTD SVG 1.1//EN'  'http://www.w3.org/Graphics/SVG/1.1/DTD/svg11.dtd'>
<svg clip-rule="evenodd" fill-rule="evenodd" stroke-linecap="square" version="1.1" viewBox="0 0 32 32" xml:space="preserve" xmlns="http://www.w3.org/2000/svg"><rect id="lightning_rain" width="32" height="32" fill="none"/><clipPath id="_clip1"><rect width="32" height="32"/></clipPath><g clip-path="url(#_clip1)"><g id="outline"><path d="m20.1 16.003 0.1 7e-3 0.1 0.013 0.098 0.017 0.098 0.023 0.097 0.027 0.095 0.032 0.093 0.037 0.091 0.041 0.089 0.046 0.087 0.05 0.084 0.055 0.081 0.059 0.078 0.063 0.075 0.066 0.072 0.071 0.068 0.073 0.064 0.077 0.06 0.081 0.056 0.083 0.052 0.086 0.047 0.088 0.043 0.091 0.038 0.092 0.034 0.095 0.029 0.096 0.024 0.097 0.019 0.098 0.014 0.1 0.01 0.099 4e-3 0.101-1e-3 0.1-6e-3 0.1-0.011 0.1-0.016 0.099-0.02 0.098-0.026 0.097-0.031 0.095-0.035 0.094-0.04 0.092-0.044 0.09-0.049 0.087-0.053 0.085-0.058 0.082-0.061 0.08-0.066 0.076-0.069 0.072-0.586 0.586h2.172l0.1 3e-3 0.1 7e-3 0.1 0.013 0.098 0.017 0.098 0.022 0.097 0.028 0.095 0.032 0.093 0.037 0.091 0.041 0.089 0.046 0.087 0.05 0.084 0.055 0.081 0.059 0.078 0.063 0.075 0.066 0.072 0.071 0.068 0.073 0.064 0.077 0.06 0.081 0.056 0.083 0.052 0.086 0.047 0.088 0.043 0.091 0.038 0.092 0.034 0.095 0.029 0.096 0.024 0.097 0.019 0.098 0.014 0.1 0.01 0.099 4e-3 0.101-1e-3 0.1-6e-3 0.1-0.011 0.1-0.016 0.099-0.02 0.098-0.026 0.097-0.031 0.095-0.035 0.094-0.04 0.092-0.044 0.09-0.049 0.087-0.053 0.085-0.058 0.082-0.061 0.08-0.066 0.076-0.069 0.072-8 8-0.073 0.07-0.077 0.066-0.08 0.062-0.083 0.058-0.086 0.054-0.089 0.049-0.091 0.044-0.093 0.04-0.095 0.036-0.097 0.03-0.098 0.025-0.099 0.021-0.101 0.015-0.1 0.01-0.102 5e-3h-0.101l-0.101-5e-3 -0.101-0.01-0.1-0.015-0.099-0.021-0.099-0.025-0.096-0.031-0.095-0.035-0.093-0.04-0.091-0.044-0.089-0.05-0.086-0.053-0.083-0.058-0.08-0.062-0.077-0.066-0.074-0.07-0.069-0.074-0.066-0.077-0.062-0.08-0.058-0.083-0.054-0.086-0.049-0.089-0.045-0.091-0.04-0.093-0.035-0.095-0.03-0.096-0.025-0.099-0.021-0.099-0.015-0.1-0.01-0.101-5e-3 -0.101v-0.101l5e-3 -0.102 0.01-0.101 0.016-0.1 0.02-0.099 0.025-0.098 0.031-0.097 0.035-0.095 0.903-2.257h-4.046l-0.102-3e-3 -0.101-7e-3 -0.101-0.013-0.1-0.018-0.099-0.023-0.098-0.028-0.096-0.033-0.095-0.038-0.092-0.043-0.09-0.047-0.087-0.052-0.085-0.056-0.082-0.06-0.079-0.065-0.075-0.068-0.072-0.072-0.068-0.076-0.064-0.079-0.06-0.082-0.055-0.086-0.052-0.087-0.046-0.091-0.042-0.092-0.038-0.095-0.032-0.096-0.028-0.098-0.022-0.099-0.018-0.101-0.012-0.101-7e-3 -0.101-2e-3 -0.102 3e-3 -0.101 9e-3 -0.102 0.013-0.101 0.019-0.1 0.023-0.099 0.029-0.097 0.034-0.096 0.038-0.094 0.043-0.092 3.5-7 0.047-0.089 0.052-0.087 0.056-0.083 0.06-0.081 0.064-0.078 0.068-0.074 0.072-0.071 0.075-0.067 0.078-0.063 0.081-0.059 0.085-0.055 0.086-0.051 0.09-0.046 0.091-0.042 0.094-0.037 0.095-0.033 0.097-0.027 0.098-0.023 0.099-0.017 0.1-0.013 0.1-7e-3 0.101-3e-3h6.5l0.1 3e-3zm-6.6 1.997-3.5 7h7l-2 5 8-8h-7l4-4h-6.5z"/><path d="m13.62 5.345c0.98-1.982 3.022-3.345 5.38-3.345 3.311 0 6 2.689 6 6 0 0.341-0.029 0.676-0.085 1h0.087c2.76 0 4.998 2.238 4.998 4.998v4e-3c0 2.76-2.238 4.998-4.998 4.998h-18.004c-2.76 0-4.998-2.238-4.998-4.998v-4e-3c0-2.76 2.238-4.998 4.998-4.998h1.002c0-2.208 1.792-4 4-4 0.577 0 1.126 0.122 1.62 0.345z" fill="none" stroke="#000" stroke-width="4px"/><path d="m20 23v5c0 1.105 0.895 2 2 2h2e-3c1.103 0 1.998-0.895 1.998-1.998v-0.127c0-0.56-0.223-1.098-0.619-1.494l-3.381-3.381z" fill="none" stroke="#000" stroke-linecap="butt" stroke-linejoin="round" stroke-width="4px"/><path d="m25 18v5c0 1.105 0.895 2 2 2h2e-3c1.103 0 1.998-0.895 1.998-1.998v-0.127c0-0.56-0.223-1.098-0.619-1.494l-3.381-3.381z" fill="none" stroke="#000" stroke-linecap="butt" stroke-linejoin="round" stroke-width="4px"/><path d="m4 17v5c0 1.105 0.895 2 2 2h2e-3c1.103 0 1.998-0.895 1.998-1.998v-0.127c0-0.56-0.223-1.098-0.619-1.494l-3.381-3.381z" fill="none" stroke="#000" stroke-linecap="butt" stroke-linejoin="round" stroke-width="4px"/><path d="m10 22v5c0 1.105 0.895 2 2 2h2e-3c1.103 0 1.998-0.895 1.998-1.998v-0.127c0-0.56-0.223-1.098-0.619-1.494l-3.381-3.381z" fill="none" stroke="#000" stroke-linecap="butt" stroke-linejoin="round" stroke-width="4px"/></g><g id="emoji"><path d="m20 23v5c0 1.105 0.895 2 2 2h2e-3c1.103 0 1.998-0.895 1.998-1.998v-0.127c0-0.56-0.223-1.098-0.619-1.494l-3.381-3.381z" fill="#10bfff"/><path d="m25 18v5c0 1.105 0.895 2 2 2h2e-3c1.103 0 1.998-0.895 1.998-1.998v-0.127c0-0.56-0.223-1.098-0.619-1.494l-3.381-3.381z" fill="#10bfff"/><path d="m4 17v5c0 1.105 0.895 2 2 2h2e-3c1.103 0 1.998-0.895 1.998-1.998v-0.127c0-0.56-0.223-1.098-0.619-1.494l-3.381-3.381z" fill="#10bfff"/><path d="m10 22v5c0 1.105 0.895 2 2 2h2e-3c1.103 0 1.998-0.895 1.998-1.998v-0.127c0-0.56-0.223-1.098-0.619-1.494l-3.381-3.381z" fill="#10bfff"/><path d="m13.5 18-3.5 7h7l-2 5 8-8h-7l4-4h-6.5z" fill="#fdef24"/><path d="m13.62 5.345c0.98-1.982 3.022-3.345 5.38-3.345 3.311 0 6 2.689 6 6 0 0.341-0.029 0.676-0.085 1h0.087c2.76 0 4.998 2.238 4.998 4.998v4e-3c0 2.76-2.238 4.998-4.998 4.998h-18.004c-2.76 0-4.998-2.238-4.998-4.998v-4e-3c0-2.76 2.238-4.998 4.998-4.998h1.002c0-2.208 1.792-4 4-4 0.577 0 1.126 0.122 1.62 0.345z" fill="#e6e6e6"/><path d="m13.62 5.342c0.981-1.98 3.023-3.342 5.38-3.342 3.311 0 6 2.689 6 6 0 0.341-0.028 0.675-0.083 1h0.085c2.76 0 4.998 2.238 4.998 4.998v4e-3c0 2.76-2.238 4.998-4.998 4.998h-18.004c-2.76 0-4.998-2.238-4.998-4.998v-4e-3c0-2.76 2.238-4.998 4.998-4.998h1.002c0-2.208 1.792-4 4-4 0.577 0 1.125 0.122 1.62 0.342z" fill="none"/><clipPath id="_clip2"><path d="m13.62 5.342c0.981-1.98 3.023-3.342 5.38-3.342 3.311 0 6 2.689 6 6 0 0.341-0.028 0.675-0.083 1h0.085c2.76 0 4.998 2.238 4.998 4.998v4e-3c0 2.76-2.238 4.998-4.998 4.998h-18.004c-2.76 0-4.998-2.238-4.998-4.998v-4e-3c0-2.76 2.238-4.998 4.998-4.998h1.002c0-2.208 1.792-4 4-4 0.577 0 1.125 0.122 1.62 0.342z"/></clipPath><g clip-path="url(#_clip2)"><path d="m26 5-0.764-0.382c-1.55-0.775-3.391-0.692-4.865 0.219s-2.371 2.52-2.371 4.253v1.91h-2.5c-2.485 0-4.5 2.015-4.5 4.5 0 1.193 0.474 2.338 1.318 3.182s1.989 1.318 3.182 1.318h17.5v-15h-7z" fill="#bfbfbf"/></g><path d="m19.077 2 0.078 2e-3 0.077 2e-3 0.077 4e-3 0.076 4e-3 0.152 0.012 0.076 7e-3 0.076 8e-3 0.075 9e-3 0.075 0.01 0.074 0.011 0.075 0.012 0.074 0.013 0.073 0.013 0.074 0.015 0.073 0.015 0.072 0.017 0.073 0.017 0.072 0.018 0.071 0.019 0.072 0.02 0.071 0.02 0.07 0.022 0.071 0.022 0.07 0.023 0.069 0.024 0.069 0.025 0.069 0.026 0.068 0.026 0.136 0.056 0.067 0.029 0.066 0.029 0.132 0.062 0.066 0.032 0.065 0.033 0.064 0.033 0.064 0.035 0.063 0.035 0.064 0.035 0.124 0.074 0.062 0.038 0.122 0.078 0.06 0.04 0.059 0.041 0.118 0.084 0.058 0.043 0.057 0.043 0.057 0.044 0.057 0.045 0.056 0.046 0.055 0.046 0.055 0.047 0.054 0.047 0.053 0.048 0.053 0.049 0.053 0.05 0.052 0.05 0.051 0.05 0.05 0.051 0.05 0.052 0.05 0.053 0.049 0.053 0.048 0.053 0.047 0.054 0.047 0.055 0.046 0.055 0.046 0.056 0.045 0.057 0.044 0.057 0.043 0.057 0.043 0.058 0.084 0.118 0.041 0.059 0.04 0.06 0.078 0.122 0.038 0.062 0.074 0.124 0.035 0.064 0.035 0.063 0.035 0.064 0.033 0.064 0.033 0.065 0.032 0.066 0.062 0.132 0.029 0.066 0.029 0.067 0.056 0.136 0.026 0.068 0.026 0.069 0.025 0.069 0.024 0.069 0.023 0.07 0.022 0.071 0.022 0.07 0.02 0.071 0.02 0.072 0.019 0.071 0.018 0.072 0.017 0.073 0.017 0.072 0.015 0.073 0.015 0.074 0.013 0.073 0.013 0.074 0.012 0.075 0.011 0.074 0.01 0.075 9e-3 0.075 8e-3 0.076 7e-3 0.076 0.012 0.152 4e-3 0.076 4e-3 0.077 2e-3 0.077 2e-3 0.078v0.077l-1e-3 0.127-4e-3 0.127-7e-3 0.126-9e-3 0.126-0.012 0.125-0.014 0.123-0.017 0.124-0.019 0.122h0.085 0.065l0.128 4e-3 0.128 6e-3 0.064 5e-3 0.063 5e-3 0.063 6e-3 0.126 0.014 0.062 8e-3 0.062 0.01 0.062 9e-3 0.062 0.011 0.061 0.011 0.061 0.013 0.061 0.012 0.061 0.014 0.06 0.014 0.06 0.015 0.06 0.016 0.118 0.034 0.118 0.036 0.116 0.04 0.057 0.02 0.058 0.022 0.057 0.022 0.112 0.046 0.112 0.049 0.11 0.051 0.108 0.054 0.107 0.056 0.106 0.059 0.104 0.062 0.102 0.063 0.1 0.067 0.099 0.068 0.097 0.071 0.096 0.073 0.093 0.075 0.092 0.078 0.09 0.079 0.087 0.082 0.086 0.084 0.084 0.086 0.082 0.087 0.079 0.09 0.078 0.092 0.075 0.093 0.073 0.096 0.071 0.097 0.068 0.099 0.067 0.1 0.063 0.102 0.062 0.104 0.059 0.106 0.056 0.107 0.054 0.108 0.051 0.11 0.049 0.112 0.046 0.112 0.022 0.057 0.022 0.058 0.02 0.057 0.04 0.116 0.036 0.118 0.034 0.118 0.016 0.06 0.015 0.06 0.014 0.06 0.014 0.061 0.012 0.061 0.013 0.061 0.011 0.061 0.011 0.062 9e-3 0.062 0.01 0.062 8e-3 0.062 0.014 0.126 6e-3 0.063 5e-3 0.063 5e-3 0.064 6e-3 0.128 4e-3 0.128v0.069 0.065l-4e-3 0.128-6e-3 0.128-5e-3 0.064-5e-3 0.063-6e-3 0.063-0.014 0.126-8e-3 0.062-0.01 0.062-9e-3 0.062-0.011 0.062-0.011 0.061-0.013 0.061-0.012 0.061-0.014 0.061-0.014 0.06-0.015 0.06-0.016 0.06-0.034 0.118-0.036 0.118-0.04 0.116-0.02 0.057-0.022 0.058-0.022 0.057-0.046 0.112-0.049 0.112-0.051 0.11-0.054 0.108-0.056 0.107-0.059 0.106-0.062 0.104-0.063 0.102-0.067 0.1-0.068 0.099-0.071 0.097-0.073 0.096-0.075 0.093-0.078 0.092-0.079 0.09-0.082 0.087-0.084 0.086-0.086 0.084-0.087 0.082-0.09 0.079-0.092 0.078-0.093 0.075-0.096 0.073-0.097 0.071-0.099 0.068-0.1 0.067-0.102 0.063-0.104 0.062-0.106 0.059-0.107 0.056-0.108 0.054-0.11 0.051-0.112 0.049-0.112 0.046-0.057 0.022-0.058 0.022-0.057 0.02-0.116 0.04-0.118 0.036-0.118 0.034-0.06 0.016-0.06 0.015-0.06 0.014-0.061 0.014-0.061 0.012-0.061 0.013-0.061 0.011-0.062 0.011-0.062 9e-3 -0.062 0.01-0.062 8e-3 -0.126 0.014-0.063 6e-3 -0.063 5e-3 -0.064 5e-3 -0.128 6e-3 -0.128 4e-3h-0.065-18.004-0.065l-0.128-4e-3 -0.128-6e-3 -0.064-5e-3 -0.063-5e-3 -0.063-6e-3 -0.126-0.014-0.062-8e-3 -0.062-0.01-0.062-9e-3 -0.062-0.011-0.061-0.011-0.061-0.013-0.061-0.012-0.061-0.014-0.06-0.014-0.06-0.015-0.06-0.016-0.118-0.034-0.118-0.036-0.116-0.04-0.057-0.02-0.058-0.022-0.057-0.022-0.112-0.046-0.112-0.049-0.11-0.051-0.108-0.054-0.107-0.056-0.106-0.059-0.104-0.062-0.102-0.063-0.1-0.067-0.099-0.068-0.097-0.071-0.096-0.073-0.093-0.075-0.092-0.078-0.09-0.079-0.087-0.082-0.086-0.084-0.084-0.086-0.082-0.087-0.079-0.09-0.078-0.092-0.075-0.093-0.073-0.096-0.071-0.097-0.068-0.099-0.067-0.1-0.063-0.102-0.062-0.104-0.059-0.106-0.056-0.107-0.054-0.108-0.051-0.11-0.049-0.112-0.046-0.112-0.022-0.057-0.022-0.058-0.02-0.057-0.04-0.116-0.036-0.118-0.034-0.118-0.016-0.06-0.015-0.06-0.014-0.06-0.014-0.061-0.012-0.061-0.013-0.061-0.011-0.061-0.011-0.062-9e-3 -0.062-0.01-0.062-8e-3 -0.062-0.014-0.126-6e-3 -0.063-5e-3 -0.063-5e-3 -0.064-6e-3 -0.128-4e-3 -0.128v-0.065-4e-3 -0.065l4e-3 -0.128 6e-3 -0.128 5e-3 -0.064 5e-3 -0.063 6e-3 -0.063 0.014-0.126 8e-3 -0.062 0.01-0.062 9e-3 -0.062 0.011-0.062 0.011-0.061 0.013-0.061 0.012-0.061 0.014-0.061 0.014-0.06 0.015-0.06 0.016-0.06 0.034-0.118 0.036-0.118 0.04-0.116 0.02-0.057 0.022-0.058 0.022-0.057 0.046-0.112 0.049-0.112 0.051-0.11 0.054-0.108 0.056-0.107 0.059-0.106 0.062-0.104 0.063-0.102 0.067-0.1 0.068-0.099 0.071-0.097 0.073-0.096 0.075-0.093 0.078-0.092 0.079-0.09 0.082-0.087 0.084-0.086 0.086-0.084 0.087-0.082 0.09-0.079 0.092-0.078 0.093-0.075 0.096-0.073 0.097-0.071 0.099-0.068 0.1-0.067 0.102-0.063 0.104-0.062 0.106-0.059 0.107-0.056 0.108-0.054 0.11-0.051 0.112-0.049 0.112-0.046 0.057-0.022 0.058-0.022 0.057-0.02 0.116-0.04 0.118-0.036 0.118-0.034 0.06-0.016 0.06-0.015 0.06-0.014 0.061-0.014 0.061-0.012 0.061-0.013 0.061-0.011 0.062-0.011 0.062-9e-3 0.062-0.01 0.062-8e-3 0.126-0.014 0.063-6e-3 0.063-5e-3 0.064-5e-3 0.128-6e-3 0.128-4e-3h0.065 1.002l1e-3 -0.103 4e-3 -0.103 7e-3 -0.102 9e-3 -0.101 0.011-0.1 0.014-0.1 0.017-0.099 0.018-0.098 0.022-0.097 0.023-0.096 0.026-0.096 0.028-0.094 0.03-0.093 0.033-0.093 0.035-0.091 0.037-0.09 0.039-0.09 0.041-0.088 0.043-0.086 0.045-0.086 0.047-0.084 0.049-0.083 0.052-0.082 0.053-0.081 0.054-0.079 0.057-0.078 0.059-0.076 0.06-0.075 0.062-0.073 0.064-0.072 0.065-0.07 0.067-0.069 0.069-0.067 0.07-0.065 0.072-0.064 0.073-0.062 0.075-0.06 0.076-0.059 0.078-0.057 0.079-0.054 0.081-0.053 0.082-0.052 0.083-0.049 0.084-0.047 0.086-0.045 0.086-0.043 0.088-0.041 0.09-0.039 0.09-0.037 0.091-0.035 0.093-0.033 0.093-0.03 0.094-0.028 0.096-0.026 0.096-0.023 0.097-0.022 0.098-0.018 0.099-0.017 0.1-0.014 0.1-0.011 0.101-9e-3 0.102-7e-3 0.103-4e-3 0.103-1e-3 0.108 1e-3 0.107 5e-3 0.106 7e-3 0.106 0.01 0.104 0.012 0.104 0.015 0.103 0.018 0.103 0.021 0.101 0.023 0.1 0.025 0.099 0.028 0.098 0.031 0.097 0.033 0.096 0.035 0.095 0.038 0.093 0.04 0.047-0.092 0.048-0.092 0.05-0.09 0.051-0.09 0.053-0.088 0.054-0.088 0.056-0.086 0.057-0.086 0.059-0.084 0.06-0.084 0.061-0.082 0.063-0.081 0.064-0.081 0.065-0.079 0.067-0.077 0.068-0.077 0.069-0.076 0.071-0.074 0.072-0.073 0.073-0.072 0.074-0.071 0.075-0.069 0.077-0.068 0.078-0.067 0.079-0.066 0.08-0.064 0.081-0.063 0.082-0.061 0.084-0.06 0.084-0.059 0.085-0.057 0.087-0.056 0.087-0.055 0.089-0.053 0.089-0.051 0.091-0.05 0.091-0.048 0.092-0.047 0.093-0.046 0.094-0.044 0.095-0.042 0.096-0.04 0.097-0.039 0.097-0.038 0.098-0.035 0.099-0.034 0.1-0.033 0.101-0.03 0.101-0.029 0.102-0.027 0.103-0.026 0.103-0.023 0.104-0.022 0.105-0.02 0.105-0.018 0.106-0.017 0.107-0.014 0.107-0.013 0.108-0.01 0.108-9e-3 0.109-7e-3 0.109-5e-3 0.11-3e-3 0.11-1e-3h0.077zm-0.169 1.001-0.092 2e-3 -0.091 4e-3 -0.091 6e-3 -0.09 8e-3 -0.09 9e-3 -0.089 0.01-0.089 0.012-0.088 0.014-0.088 0.015-0.087 0.017-0.087 0.018-0.086 0.019-0.085 0.021-0.085 0.023-0.084 0.024-0.084 0.026-0.083 0.026-0.164 0.058-0.081 0.031-0.081 0.033-0.079 0.034-0.079 0.035-0.079 0.036-0.077 0.038-0.077 0.039-0.076 0.04-0.076 0.042-0.074 0.043-0.074 0.044-0.073 0.045-0.072 0.047-0.071 0.048-0.07 0.049-0.07 0.05-0.069 0.051-0.067 0.052-0.067 0.054-0.066 0.055-0.065 0.055-0.064 0.057-0.063 0.058-0.062 0.059-0.061 0.06-0.06 0.061-0.058 0.062-0.058 0.063-0.057 0.064-0.056 0.065-0.054 0.066-0.054 0.067-0.052 0.068-0.051 0.069-0.05 0.069-0.049 0.071-0.048 0.071-0.046 0.072-0.045 0.073-0.044 0.074-0.043 0.075-0.042 0.075-0.04 0.076-0.466 0.922-0.945-0.405-0.071-0.028-0.071-0.026-0.073-0.025-0.073-0.023-0.074-0.021-0.075-0.019-0.076-0.017-0.076-0.016-0.078-0.013-0.077-0.012-0.079-9e-3 -0.079-7e-3 -0.08-6e-3 -0.081-3e-3 -0.081-1e-3 -0.078 1e-3 -0.077 3e-3 -0.077 5e-3 -0.076 7e-3 -0.075 8e-3 -0.075 0.011-0.074 0.012-0.073 0.014-0.073 0.016-0.072 0.017-0.071 0.02-0.071 0.021-0.07 0.023-0.069 0.024-0.068 0.026-0.068 0.028-0.066 0.029-0.066 0.031-0.065 0.032-0.064 0.034-0.064 0.035-0.062 0.037-0.061 0.038-0.061 0.04-0.059 0.041-0.059 0.043-0.057 0.044-0.056 0.045-0.055 0.047-0.054 0.048-0.053 0.049-0.052 0.05-0.05 0.052-0.049 0.053-0.048 0.054-0.047 0.055-0.045 0.056-0.044 0.057-0.043 0.059-0.041 0.059-0.04 0.061-0.038 0.061-0.037 0.062-0.035 0.064-0.034 0.064-0.032 0.065-0.031 0.066-0.029 0.066-0.028 0.068-0.026 0.068-0.024 0.069-0.023 0.07-0.021 0.071-0.02 0.071-0.017 0.072-0.016 0.073-0.014 0.073-0.012 0.074-0.011 0.075-8e-3 0.075-7e-3 0.076-5e-3 0.077-3e-3 0.077-0.014 1.078h-1.986-0.055l-0.052 1e-3 -0.051 2e-3 -0.052 2e-3 -0.051 3e-3 -0.051 4e-3 -0.05 4e-3 -0.051 5e-3 -0.05 5e-3 -0.051 6e-3 -0.049 7e-3 -0.05 7e-3 -0.05 8e-3 -0.147 0.027-0.048 0.011-0.049 0.01-0.144 0.036-0.047 0.014-0.047 0.013-0.047 0.015-0.047 0.014-0.047 0.016-0.092 0.032-0.045 0.017-0.043 0.017-0.093 0.038-0.089 0.039-0.088 0.041-0.086 0.043-0.086 0.045-0.084 0.047-0.083 0.049-0.082 0.051-0.081 0.053-0.079 0.055-0.077 0.057-0.077 0.058-0.075 0.061-0.073 0.062-0.072 0.063-0.07 0.066-0.069 0.067-0.067 0.069-0.066 0.07-0.063 0.072-0.062 0.073-0.061 0.075-0.058 0.077-0.057 0.077-0.055 0.079-0.053 0.081-0.051 0.082-0.049 0.083-0.047 0.084-0.045 0.086-0.043 0.086-0.041 0.088-0.039 0.089-0.038 0.093-0.017 0.043-0.017 0.045-0.016 0.046-0.016 0.047-0.016 0.046-0.014 0.047-0.015 0.047-0.013 0.047-0.014 0.047-0.036 0.144-0.01 0.049-0.011 0.048-9e-3 0.049-0.01 0.049-8e-3 0.049-8e-3 0.05-0.014 0.1-6e-3 0.05-5e-3 0.05-5e-3 0.051-4e-3 0.05-4e-3 0.051-3e-3 0.051-2e-3 0.052-2e-3 0.051-1e-3 0.052v0.054 0.054l1e-3 0.052 2e-3 0.051 2e-3 0.052 3e-3 0.051 4e-3 0.051 4e-3 0.05 5e-3 0.051 5e-3 0.05 6e-3 0.05 0.014 0.1 8e-3 0.05 8e-3 0.049 0.01 0.049 9e-3 0.049 0.011 0.048 0.01 0.049 0.036 0.144 0.014 0.047 0.013 0.047 0.015 0.047 0.014 0.047 0.016 0.046 0.016 0.047 0.016 0.046 0.017 0.045 0.017 0.043 0.038 0.093 0.039 0.089 0.041 0.088 0.043 0.086 0.045 0.086 0.047 0.084 0.049 0.083 0.051 0.082 0.053 0.081 0.055 0.079 0.057 0.077 0.058 0.077 0.061 0.075 0.062 0.073 0.063 0.072 0.066 0.07 0.067 0.069 0.069 0.067 0.07 0.066 0.072 0.063 0.073 0.062 0.075 0.061 0.077 0.058 0.077 0.057 0.079 0.055 0.081 0.053 0.082 0.051 0.083 0.049 0.084 0.047 0.086 0.045 0.086 0.043 0.088 0.041 0.089 0.039 0.093 0.038 0.043 0.017 0.045 0.017 0.046 0.016 0.047 0.016 0.046 0.016 0.047 0.014 0.047 0.015 0.047 0.013 0.047 0.014 0.144 0.036 0.049 0.01 0.048 0.011 0.147 0.027 0.05 8e-3 0.05 7e-3 0.049 7e-3 0.051 6e-3 0.05 5e-3 0.051 5e-3 0.05 4e-3 0.051 4e-3 0.051 3e-3 0.052 2e-3 0.051 2e-3 0.052 1e-3h0.055 17.998 0.055l0.052-1e-3 0.051-2e-3 0.052-2e-3 0.051-3e-3 0.051-4e-3 0.05-4e-3 0.051-5e-3 0.05-5e-3 0.051-6e-3 0.049-7e-3 0.05-7e-3 0.05-8e-3 0.147-0.027 0.048-0.011 0.049-0.01 0.144-0.036 0.047-0.014 0.047-0.013 0.047-0.015 0.047-0.014 0.046-0.016 0.047-0.016 0.046-0.016 0.045-0.017 0.043-0.017 0.093-0.038 0.089-0.039 0.088-0.041 0.086-0.043 0.086-0.045 0.084-0.047 0.083-0.049 0.082-0.051 0.081-0.053 0.079-0.055 0.077-0.057 0.077-0.058 0.075-0.061 0.073-0.062 0.072-0.063 0.07-0.066 0.069-0.067 0.067-0.069 0.066-0.07 0.063-0.072 0.062-0.073 0.061-0.075 0.058-0.077 0.057-0.077 0.055-0.079 0.053-0.081 0.051-0.082 0.049-0.083 0.047-0.084 0.045-0.086 0.043-0.086 0.041-0.088 0.039-0.089 0.038-0.093 0.017-0.043 0.017-0.045 0.016-0.046 0.016-0.047 0.016-0.046 0.014-0.047 0.015-0.047 0.013-0.047 0.014-0.047 0.036-0.144 0.01-0.049 0.011-0.048 0.027-0.147 8e-3 -0.05 0.014-0.1 6e-3 -0.05 5e-3 -0.05 5e-3 -0.051 4e-3 -0.05 4e-3 -0.051 3e-3 -0.051 2e-3 -0.052 2e-3 -0.051 1e-3 -0.052v-0.054-0.054l-1e-3 -0.052-2e-3 -0.051-2e-3 -0.052-3e-3 -0.051-4e-3 -0.051-4e-3 -0.05-5e-3 -0.051-5e-3 -0.05-6e-3 -0.05-0.014-0.1-8e-3 -0.05-0.027-0.147-0.011-0.048-0.01-0.049-0.036-0.144-0.014-0.047-0.013-0.047-0.015-0.047-0.014-0.047-0.016-0.046-0.016-0.047-0.016-0.046-0.017-0.045-0.017-0.043-0.038-0.093-0.039-0.089-0.041-0.088-0.043-0.086-0.045-0.086-0.047-0.084-0.049-0.083-0.051-0.082-0.053-0.081-0.055-0.079-0.057-0.077-0.058-0.077-0.061-0.075-0.062-0.073-0.063-0.072-0.066-0.07-0.067-0.069-0.069-0.067-0.07-0.066-0.072-0.063-0.073-0.062-0.075-0.061-0.077-0.058-0.077-0.057-0.079-0.055-0.081-0.053-0.082-0.051-0.083-0.049-0.084-0.047-0.086-0.045-0.086-0.043-0.088-0.041-0.089-0.039-0.093-0.038-0.043-0.017-0.045-0.017-0.092-0.032-0.047-0.016-0.047-0.014-0.047-0.015-0.047-0.013-0.047-0.014-0.144-0.036-0.049-0.01-0.048-0.011-0.147-0.027-0.05-8e-3 -0.05-7e-3 -0.049-7e-3 -0.051-6e-3 -0.05-5e-3 -0.051-5e-3 -0.05-4e-3 -0.051-4e-3 -0.051-3e-3 -0.052-2e-3 -0.051-2e-3 -0.052-1e-3h-0.055-1.252l0.2-1.268 0.014-0.102 0.012-0.104 9e-3 -0.104 8e-3 -0.104 6e-3 -0.105 3e-3 -0.106 1e-3 -0.109v-0.063l-2e-3 -0.064-2e-3 -0.065-6e-3 -0.128-5e-3 -0.063-5e-3 -0.064-6e-3 -0.063-0.014-0.126-0.018-0.124-0.02-0.124-0.024-0.122-0.013-0.061-0.013-0.06-0.014-0.06-0.015-0.06-0.016-0.06-0.034-0.118-0.036-0.118-0.04-0.116-0.02-0.057-0.066-0.171-0.048-0.112-0.024-0.055-0.052-0.11-0.026-0.054-0.056-0.108-0.028-0.053-0.029-0.053-0.03-0.053-0.062-0.104-0.031-0.051-0.033-0.051-0.032-0.051-0.034-0.05-0.034-0.049-0.034-0.05-0.036-0.049-0.035-0.048-0.037-0.048-0.074-0.094-0.038-0.047-0.078-0.092-0.039-0.045-0.04-0.045-0.082-0.088-0.084-0.086-0.086-0.084-0.088-0.082-0.045-0.04-0.045-0.039-0.092-0.078-0.047-0.038-0.094-0.074-0.048-0.037-0.048-0.035-0.049-0.036-0.05-0.034-0.049-0.034-0.05-0.034-0.051-0.032-0.051-0.033-0.051-0.031-0.104-0.062-0.053-0.03-0.053-0.029-0.053-0.028-0.108-0.056-0.054-0.026-0.11-0.052-0.055-0.024-0.112-0.048-0.171-0.066-0.057-0.02-0.116-0.04-0.118-0.036-0.118-0.034-0.06-0.016-0.06-0.015-0.06-0.014-0.06-0.013-0.061-0.013-0.061-0.012-0.062-0.012-0.061-0.01-0.062-0.01-0.062-9e-3 -0.063-9e-3 -0.062-7e-3 -0.063-7e-3 -0.063-6e-3 -0.064-5e-3 -0.063-5e-3 -0.128-6e-3 -0.065-2e-3 -0.064-2e-3h-0.064l-0.093 1e-3z" fill="#e6e6e6"/></g></g></svg>
