<?xml version="1.0" encoding="UTF-8"?>
<!DOCTYPE svg  PUBLIC '-//W3C//DTD SVG 1.1//EN'  'http://www.w3.org/Graphics/SVG/1.1/DTD/svg11.dtd'>
<svg clip-rule="evenodd" fill-rule="evenodd" stroke-linecap="square" stroke-linejoin="round" stroke-miterlimit="1.5" version="1.1" viewBox="0 0 32 32" xml:space="preserve" xmlns="http://www.w3.org/2000/svg">
<metadata>
<rdf:RDF xmlns:cc="http://web.resource.org/cc/" xmlns:dc="http://purl.org/dc/elements/1.1/" xmlns:rdf="http://www.w3.org/1999/02/22-rdf-syntax-ns#">

     <rdf:Description rdf:about="">
       <dc:title>Mutant Standard emoji 2023.12</dc:title>
     </rdf:Description>

    <cc:work rdf:about="">
        <cc:license rdf:resource="http://creativecommons.org/licenses/by-nc-sa/4.0/"/>
        <cc:attributionName>Caius Nocturne</cc:attributionName>
        <cc:attributionURL>http://mutant.tech/</cc:attributionURL>
    </cc:work>

</rdf:RDF>
</metadata>
<rect id="umbrella_with_rain" width="32" height="32" fill="none"/><clipPath id="_clip1"><rect width="32" height="32"/></clipPath><g clip-path="url(#_clip1)"><g id="outline" fill="none" stroke="#000"><path d="m16 14v13c0 0.53-0.211 1.039-0.586 1.414s-0.884 0.586-1.414 0.586h-2e-3c-1.103 0-1.998-0.895-1.998-1.998v-2e-3" stroke-width="6px"/><path d="m17 5.455v-3.455l2.607 2.607c0.252 0.252 0.393 0.593 0.393 0.949v2e-3c0 0.382-0.152 0.749-0.422 1.02-0.012 0.011-0.023 0.022-0.034 0.033l3.456 1.571v-1.182l2.69 2.69c1.223 0.935 2.226 2.141 2.923 3.536 0.711 1.421 1.387 2.774 1.387 2.774h-2.348c-1.086 0-2.158 0.253-3.13 0.739-1.139 0.57-2.522 1.261-2.522 1.261s-3.107-0.518-4.849-0.808c-0.762-0.127-1.54-0.127-2.302 0-1.742 0.29-4.849 0.808-4.849 0.808s-1.383-0.691-2.522-1.261c-0.972-0.486-2.044-0.739-3.13-0.739h-2.348s0.676-1.353 1.387-2.774c0.905-1.811 2.327-3.305 4.075-4.299-0.843-0.235-1.462-1.009-1.462-1.927v-5l3.381 3.381c0.396 0.396 0.619 0.934 0.619 1.494v0.125c0 0.279-0.058 0.553-0.169 0.804l4.169-1.895v-0.909l0.625 0.625 1.375-0.625 1 0.455z" stroke-linecap="round" stroke-miterlimit="3" stroke-width="4px"/></g><g id="emoji"><path d="m16 14v13c0 0.53-0.211 1.039-0.586 1.414s-0.884 0.586-1.414 0.586h-2e-3c-1.103 0-1.998-0.895-1.998-1.998v-2e-3" fill="none" stroke="#525252" stroke-width="2px"/><rect x="15" y="16.249" width="2" height="6.751" fill="#3d3d3d"/><path d="m23.716 8.507c2.125 0.966 3.853 2.632 4.897 4.719 0.711 1.421 1.387 2.774 1.387 2.774h-2.348c-1.086 0-2.158 0.253-3.13 0.739l-2.522 1.261-6-13 7.716 3.507z" fill="#a31f28"/><path d="m19.567 10.351c0.287 0.43 0.505 0.902 0.647 1.399l1.786 6.25s-3.107-0.518-4.849-0.808c-0.762-0.127-1.54-0.127-2.302 0-1.742 0.29-4.849 0.808-4.849 0.808s-1.383-0.691-2.522-1.261c-0.972-0.486-2.044-0.739-3.13-0.739h-2.348s0.676-1.353 1.387-2.774c1.044-2.087 2.772-3.753 4.897-4.719 3.241-1.473 7.716-3.507 7.716-3.507l3.567 5.351z" fill="#e82731"/><clipPath id="_clip2"><path d="m19.567 10.351c0.287 0.43 0.505 0.902 0.647 1.399l1.786 6.25s-3.107-0.518-4.849-0.808c-0.762-0.127-1.54-0.127-2.302 0-1.742 0.29-4.849 0.808-4.849 0.808s-1.383-0.691-2.522-1.261c-0.972-0.486-2.044-0.739-3.13-0.739h-2.348s0.676-1.353 1.387-2.774c1.044-2.087 2.772-3.753 4.897-4.719 3.241-1.473 7.716-3.507 7.716-3.507l3.567 5.351z"/></clipPath><g clip-path="url(#_clip2)"><path d="m16 4v1s-2.532 3.798-3.567 5.351c-0.287 0.43-0.505 0.902-0.647 1.399-0.517 1.807-1.786 6.25-1.786 6.25v2" fill="none" stroke="#bd242e" stroke-miterlimit="3" stroke-width="2px"/></g><path d="m14 5v5c0 1.105 0.895 2 2 2 0.53 0 1.039-0.211 1.414-0.586s0.586-0.884 0.586-1.414v-0.125c0-0.56-0.223-1.098-0.619-1.494l-3.381-3.381z" fill="#10bfff"/><path d="m17 2v3.5c0 0.398 0.158 0.779 0.439 1.061 0.282 0.281 0.663 0.439 1.061 0.439h0.058c0.382 0 0.749-0.152 1.02-0.422 0.27-0.271 0.422-0.638 0.422-1.02v-2e-3c0-0.356-0.141-0.697-0.393-0.949l-2.607-2.607z" fill="#10bfff"/><path d="m10 10v3.5c0 0.398 0.158 0.779 0.439 1.061 0.282 0.281 0.663 0.439 1.061 0.439h0.058c0.382 0 0.749-0.152 1.02-0.422 0.27-0.271 0.422-0.638 0.422-1.02v-2e-3c0-0.356-0.141-0.697-0.393-0.949l-2.607-2.607z" fill="#10bfff"/><path d="m23 7v5c0 1.105 0.895 2 2 2 0.53 0 1.039-0.211 1.414-0.586s0.586-0.884 0.586-1.414v-0.125c0-0.56-0.223-1.098-0.619-1.494l-3.381-3.381z" fill="#10bfff"/><path d="m6 2v5c0 1.105 0.895 2 2 2 0.53 0 1.039-0.211 1.414-0.586s0.586-0.884 0.586-1.414v-0.125c0-0.56-0.223-1.098-0.619-1.494l-3.381-3.381z" fill="#10bfff"/></g></g></svg>
