<?xml version="1.0" encoding="UTF-8" standalone="no"?>
<!DOCTYPE svg PUBLIC "-//W3C//DTD SVG 1.1//EN" "http://www.w3.org/Graphics/SVG/1.1/DTD/svg11.dtd">
<svg width="100%" height="100%" viewBox="0 0 32 32" version="1.1" xmlns="http://www.w3.org/2000/svg" xmlns:xlink="http://www.w3.org/1999/xlink" xml:space="preserve" xmlns:serif="http://www.serif.com/" style="fill-rule:evenodd;clip-rule:evenodd;stroke-linejoin:round;stroke-miterlimit:1.41421;">
<metadata>
<rdf:RDF xmlns:cc="http://web.resource.org/cc/"
         xmlns:rdf="http://www.w3.org/1999/02/22-rdf-syntax-ns#"
         xmlns:dc = "http://purl.org/dc/elements/1.1/"
         >

     <rdf:Description rdf:about="">
       <dc:title>Mutant Standard S3</dc:title>
     </rdf:Description>

    <cc:work rdf:about="">
        <cc:license rdf:resource="http://creativecommons.org/licenses/by-nc-sa/4.0/"/>
        <cc:attributionName>Dzuk</cc:attributionName>
        <cc:attributionURL>http://mutant.tech/</cc:attributionURL>
    </cc:work>

</rdf:RDF>
</metadata>

    <rect id="agender_furry" x="0" y="0" width="32" height="32" style="fill:none;"/>
    <clipPath id="_clip1">
        <rect x="0" y="0" width="32" height="32"/>
    </clipPath>
    <g clip-path="url(#_clip1)">
        <g id="outline">
            <path d="M20.655,1.002l0.155,0.008l0.154,0.012l0.153,0.018l0.151,0.022l0.151,0.027l0.148,0.032l0.148,0.036l0.145,0.041l0.143,0.045l0.141,0.049l0.14,0.053l0.137,0.058l0.135,0.061l0.132,0.065l0.129,0.068l0.128,0.072l0.126,0.075l0.122,0.078l0.12,0.082l0.118,0.084l0.115,0.088l0.112,0.09l0.11,0.093l0.107,0.095l0.105,0.098l0.102,0.102l0.1,0.103l0.096,0.104l0.094,0.108l0.092,0.11l0.089,0.111l0.087,0.114l0.084,0.117l0.081,0.117l0.078,0.12l0.077,0.122l0.073,0.122l0.071,0.125l0.069,0.127l0.065,0.128l0.063,0.13l0.061,0.132l0.058,0.133l0.055,0.135l0.052,0.135l0.05,0.137l0.048,0.14l0.044,0.139l0.042,0.142l0.039,0.143l0.036,0.143l0.034,0.146l0.031,0.146l0.028,0.147l0.025,0.149l0.022,0.149l0.02,0.15l0.016,0.152l0.014,0.152l0.01,0.154l0.008,0.154l0.005,0.155l0.001,0.155l-0.001,0.155l-0.005,0.155l-0.008,0.154l-0.01,0.154l-0.014,0.152l-0.016,0.152l-0.02,0.15l-0.022,0.149l-0.025,0.149l-0.028,0.147l-0.006,0.028l0.038,-0.005l0.153,-0.018l0.154,-0.012l0.155,-0.008l0.155,-0.002l0.156,0.002l0.154,0.008l0.154,0.012l0.153,0.018l0.151,0.022l0.151,0.027l0.149,0.032l0.146,0.036l0.145,0.041l0.144,0.045l0.141,0.049l0.139,0.053l0.138,0.058l0.134,0.061l0.133,0.065l0.13,0.068l0.127,0.072l0.126,0.075l0.122,0.078l0.12,0.082l0.118,0.084l0.115,0.088l0.112,0.09l0.11,0.093l0.108,0.096l0.104,0.098l0.102,0.101l0.099,0.102l0.097,0.106l0.094,0.107l0.092,0.11l0.089,0.112l0.087,0.114l0.083,0.115l0.082,0.118l0.078,0.12l0.077,0.121l0.073,0.123l0.071,0.125l0.068,0.127l0.066,0.129l0.063,0.13l0.061,0.131l0.058,0.133l0.055,0.134l0.052,0.136l0.05,0.138l0.048,0.139l0.044,0.14l0.042,0.141l0.039,0.143l0.037,0.144l0.033,0.144l0.031,0.147l0.028,0.147l0.025,0.149l0.022,0.149l0.02,0.151l0.016,0.152l0.014,0.151l0.01,0.153l0.008,0.154l0.005,0.156l0.001,0.155l-0.001,0.155l-0.005,0.156l-0.008,0.154l-0.01,0.153l-0.014,0.151l-0.016,0.152l-0.02,0.151l-0.022,0.149l-0.025,0.149l-0.028,0.147l-0.031,0.147l-0.033,0.144l-0.037,0.144l-0.039,0.143l-0.042,0.141l-0.044,0.14l-0.048,0.139l-0.05,0.138l-0.052,0.136l-0.055,0.134l-0.058,0.133l-0.061,0.131l-0.063,0.13l-0.066,0.129l-0.068,0.127l-0.071,0.125l-0.073,0.123l-0.077,0.121l-0.078,0.12l-0.082,0.118l-0.083,0.115l-0.087,0.114l-0.089,0.112l-0.092,0.11l-0.094,0.107l-0.097,0.106l-0.099,0.102l-0.102,0.101l-0.104,0.098l-0.108,0.096l-0.11,0.093l-0.112,0.09l-0.115,0.088l-0.118,0.084l-0.12,0.082l-0.122,0.078l-0.126,0.075l-0.127,0.072l-0.13,0.068l-0.133,0.065l-0.134,0.061l-0.138,0.058l-0.139,0.053l-0.141,0.049l-0.144,0.045l-0.145,0.041l-0.146,0.036l-0.086,0.018l0.103,0.112l0.102,0.119l0.1,0.121l0.095,0.124l0.092,0.126l0.088,0.129l0.084,0.131l0.082,0.134l0.077,0.135l0.073,0.137l0.069,0.14l0.065,0.14l0.062,0.143l0.058,0.146l0.053,0.146l0.05,0.147l0.045,0.15l0.041,0.151l0.038,0.152l0.032,0.153l0.029,0.154l0.024,0.156l0.02,0.157l0.016,0.157l0.011,0.157l0.007,0.159l0.002,0.146l0,0.022l-0.001,0.079l-0.001,0.088l-0.004,0.088l-0.004,0.087l-0.006,0.086l-0.007,0.086l-0.009,0.086l-0.009,0.087l-0.011,0.086l-0.012,0.084l-0.013,0.086l-0.015,0.085l-0.016,0.084l-0.017,0.084l-0.018,0.085l-0.02,0.083l-0.02,0.083l-0.022,0.083l-0.023,0.081l-0.024,0.084l-0.026,0.082l-0.026,0.08l-0.028,0.08l-0.028,0.08l-0.031,0.081l-0.031,0.08l-0.033,0.079l-0.033,0.077l-0.034,0.078l-0.037,0.079l-0.036,0.075l-0.037,0.076l-0.04,0.076l-0.04,0.076l-0.042,0.075l-0.041,0.072l-0.043,0.074l-0.046,0.073l-0.045,0.072l-0.047,0.072l-0.047,0.07l-0.049,0.07l-0.05,0.07l-0.05,0.068l-0.052,0.069l-0.053,0.067l-0.054,0.066l-0.054,0.066l-0.056,0.065l-0.058,0.065l-0.058,0.064l-0.058,0.062l-0.059,0.061l-0.061,0.062l-0.062,0.061l-0.063,0.059l-0.064,0.059l-0.064,0.057l-0.065,0.057l-0.067,0.056l-0.068,0.055l-0.067,0.054l-0.07,0.053l-0.07,0.053l-0.071,0.051l-0.071,0.05l-0.072,0.049l-0.073,0.048l-0.073,0.046l-0.074,0.046l-0.075,0.044l-0.074,0.043l-0.076,0.042l-0.077,0.041l-0.076,0.039l-0.077,0.039l-0.078,0.037l-0.077,0.036l-0.079,0.035l-0.079,0.034l-0.079,0.032l-0.08,0.032l-0.08,0.03l-0.08,0.029l-0.081,0.028l-0.081,0.026l-0.082,0.026l-0.082,0.024l-0.082,0.023l-0.082,0.022l-0.083,0.02l-0.083,0.02l-0.083,0.018l-0.083,0.017l-0.084,0.015l-0.084,0.015l-0.084,0.013l-0.085,0.012l-0.084,0.011l-0.084,0.01l-0.085,0.008l-0.086,0.007l-0.085,0.006l-0.084,0.005l-0.085,0.003l-0.086,0.003l-0.086,0.001l-0.085,-0.001l-0.085,-0.001l-0.086,-0.003l-0.085,-0.004l-0.086,-0.005l-0.086,-0.007l-0.085,-0.007l-0.085,-0.009l-0.086,-0.011l-0.085,-0.011l-0.086,-0.013l-0.085,-0.014l-0.085,-0.016l-0.084,-0.016l-0.085,-0.018l-0.085,-0.019l-0.084,-0.021l-0.084,-0.022l-0.085,-0.023l-0.083,-0.024l-0.077,-0.023l-4.581,-1.442l-0.065,-0.02l-0.056,-0.015l-0.056,-0.015l-0.057,-0.014l-0.056,-0.012l-0.057,-0.012l-0.057,-0.01l-0.057,-0.009l-0.057,-0.008l-0.057,-0.007l-0.057,-0.006l-0.058,-0.005l-0.057,-0.003l-0.057,-0.003l-0.058,-0.001l-0.058,-0.001l-0.057,0.001l-0.058,0.002l-0.057,0.003l-0.057,0.004l-0.058,0.005l-0.057,0.006l-0.058,0.008l-0.056,0.008l-0.057,0.01l-0.057,0.01l-0.057,0.012l-0.056,0.013l-0.056,0.014l-0.056,0.015l-0.056,0.016l-0.065,0.02l-4.326,1.392l-0.076,0.024l-0.084,0.025l-0.084,0.024l-0.085,0.022l-0.084,0.021l-0.084,0.02l-0.085,0.019l-0.085,0.017l-0.086,0.016l-0.085,0.014l-0.085,0.014l-0.085,0.012l-0.086,0.011l-0.085,0.009l-0.086,0.009l-0.086,0.007l-0.085,0.005l-0.086,0.005l-0.085,0.003l-0.086,0.002l-0.086,0.001l-0.085,-0.001l-0.085,-0.002l-0.086,-0.003l-0.085,-0.004l-0.085,-0.005l-0.085,-0.007l-0.085,-0.008l-0.086,-0.009l-0.084,-0.011l-0.084,-0.011l-0.085,-0.013l-0.084,-0.014l-0.083,-0.016l-0.084,-0.016l-0.084,-0.018l-0.083,-0.019l-0.082,-0.02l-0.083,-0.022l-0.083,-0.023l-0.081,-0.023l-0.082,-0.025l-0.082,-0.027l-0.081,-0.027l-0.081,-0.029l-0.08,-0.03l-0.08,-0.031l-0.079,-0.032l-0.08,-0.034l-0.078,-0.034l-0.078,-0.036l-0.078,-0.037l-0.078,-0.038l-0.077,-0.04l-0.076,-0.04l-0.076,-0.042l-0.075,-0.043l-0.074,-0.044l-0.074,-0.045l-0.074,-0.046l-0.073,-0.048l-0.072,-0.049l-0.073,-0.05l-0.071,-0.051l-0.069,-0.051l-0.07,-0.054l-0.069,-0.054l-0.068,-0.055l-0.067,-0.056l-0.064,-0.056l-0.065,-0.058l-0.065,-0.059l-0.062,-0.058l-0.063,-0.061l-0.061,-0.061l-0.059,-0.062l-0.06,-0.063l-0.057,-0.062l-0.058,-0.066l-0.056,-0.065l-0.055,-0.065l-0.055,-0.067l-0.052,-0.067l-0.052,-0.068l-0.051,-0.069l-0.05,-0.069l-0.049,-0.07l-0.048,-0.071l-0.047,-0.072l-0.046,-0.072l-0.044,-0.072l-0.044,-0.074l-0.042,-0.074l-0.042,-0.074l-0.04,-0.076l-0.039,-0.075l-0.038,-0.076l-0.037,-0.078l-0.036,-0.076l-0.034,-0.078l-0.035,-0.079l-0.032,-0.079l-0.031,-0.079l-0.031,-0.081l-0.028,-0.08l-0.028,-0.08l-0.027,-0.081l-0.026,-0.082l-0.024,-0.083l-0.023,-0.082l-0.022,-0.083l-0.021,-0.083l-0.019,-0.083l-0.019,-0.086l-0.017,-0.083l-0.015,-0.084l-0.015,-0.086l-0.014,-0.085l-0.012,-0.086l-0.011,-0.085l-0.009,-0.086l-0.009,-0.088l-0.007,-0.086l-0.006,-0.086l-0.004,-0.087l-0.003,-0.086l-0.002,-0.09l-0.001,-0.08l0,-0.022l0.002,-0.144l0.007,-0.157l0.011,-0.157l0.015,-0.157l0.02,-0.154l0.024,-0.155l0.029,-0.153l0.032,-0.152l0.037,-0.151l0.041,-0.15l0.045,-0.147l0.049,-0.148l0.054,-0.145l0.057,-0.143l0.061,-0.142l0.065,-0.14l0.069,-0.139l0.072,-0.136l0.077,-0.135l0.08,-0.131l0.084,-0.131l0.088,-0.128l0.091,-0.125l0.094,-0.123l0.099,-0.12l0.102,-0.119l0.105,-0.115l0.005,-0.004l-0.082,-0.018l-0.147,-0.036l-0.145,-0.041l-0.144,-0.045l-0.141,-0.049l-0.139,-0.053l-0.137,-0.058l-0.136,-0.061l-0.132,-0.065l-0.13,-0.068l-0.128,-0.072l-0.124,-0.075l-0.123,-0.078l-0.12,-0.082l-0.118,-0.084l-0.115,-0.088l-0.112,-0.09l-0.11,-0.093l-0.108,-0.096l-0.104,-0.098l-0.102,-0.1l-0.099,-0.103l-0.098,-0.106l-0.093,-0.107l-0.092,-0.11l-0.089,-0.111l-0.087,-0.114l-0.084,-0.117l-0.081,-0.117l-0.078,-0.12l-0.076,-0.121l-0.074,-0.123l-0.071,-0.125l-0.068,-0.127l-0.066,-0.128l-0.063,-0.131l-0.061,-0.131l-0.058,-0.133l-0.055,-0.134l-0.052,-0.136l-0.05,-0.137l-0.047,-0.139l-0.045,-0.141l-0.042,-0.141l-0.039,-0.142l-0.036,-0.145l-0.034,-0.145l-0.031,-0.146l-0.028,-0.147l-0.025,-0.149l-0.022,-0.149l-0.02,-0.15l-0.016,-0.153l-0.014,-0.152l-0.01,-0.152l-0.008,-0.154l-0.005,-0.156l-0.001,-0.155l0.001,-0.155l0.005,-0.156l0.008,-0.154l0.01,-0.152l0.014,-0.152l0.016,-0.153l0.02,-0.15l0.022,-0.149l0.025,-0.149l0.028,-0.147l0.031,-0.146l0.034,-0.145l0.036,-0.145l0.039,-0.142l0.042,-0.141l0.045,-0.141l0.047,-0.139l0.05,-0.137l0.052,-0.136l0.055,-0.134l0.058,-0.133l0.061,-0.131l0.063,-0.131l0.066,-0.128l0.068,-0.127l0.071,-0.125l0.074,-0.123l0.076,-0.121l0.078,-0.12l0.081,-0.117l0.084,-0.117l0.087,-0.114l0.089,-0.111l0.092,-0.11l0.093,-0.107l0.098,-0.106l0.099,-0.103l0.102,-0.1l0.104,-0.098l0.108,-0.096l0.11,-0.093l0.112,-0.09l0.115,-0.088l0.117,-0.084l0.121,-0.082l0.123,-0.078l0.124,-0.075l0.128,-0.072l0.13,-0.068l0.132,-0.065l0.136,-0.061l0.137,-0.058l0.139,-0.053l0.141,-0.049l0.144,-0.045l0.145,-0.041l0.147,-0.036l0.148,-0.032l0.151,-0.027l0.151,-0.022l0.153,-0.018l0.154,-0.012l0.155,-0.008l0.155,-0.002l0.156,0.002l0.154,0.008l0.154,0.012l0.153,0.018l0.038,0.005l-0.006,-0.028l-0.028,-0.147l-0.025,-0.15l-0.022,-0.148l-0.02,-0.15l-0.016,-0.152l-0.014,-0.152l-0.01,-0.153l-0.008,-0.154l-0.005,-0.156l-0.001,-0.155l0.001,-0.155l0.005,-0.156l0.008,-0.154l0.01,-0.153l0.014,-0.152l0.016,-0.152l0.02,-0.15l0.022,-0.149l0.025,-0.149l0.028,-0.147l0.031,-0.146l0.033,-0.145l0.037,-0.144l0.039,-0.143l0.042,-0.142l0.044,-0.139l0.048,-0.139l0.05,-0.138l0.052,-0.136l0.055,-0.134l0.058,-0.133l0.061,-0.132l0.063,-0.13l0.066,-0.128l0.068,-0.126l0.071,-0.126l0.073,-0.123l0.077,-0.121l0.078,-0.12l0.082,-0.118l0.083,-0.116l0.087,-0.113l0.089,-0.112l0.092,-0.11l0.094,-0.108l0.097,-0.105l0.099,-0.102l0.102,-0.101l0.104,-0.098l0.108,-0.096l0.11,-0.093l0.112,-0.09l0.115,-0.088l0.118,-0.084l0.12,-0.082l0.122,-0.078l0.126,-0.075l0.127,-0.072l0.13,-0.068l0.133,-0.065l0.134,-0.061l0.137,-0.058l0.14,-0.053l0.141,-0.049l0.143,-0.045l0.145,-0.041l0.147,-0.036l0.15,-0.032l0.15,-0.027l0.151,-0.022l0.153,-0.018l0.154,-0.012l0.155,-0.008l0.155,-0.002l0.155,0.002l0.155,0.008l0.154,0.012l0.153,0.018l0.152,0.022l0.15,0.027l0.148,0.032l0.148,0.036l0.144,0.041l0.144,0.045l0.141,0.049l0.14,0.053l0.137,0.058l0.135,0.061l0.132,0.065l0.13,0.068l0.128,0.072l0.124,0.075l0.123,0.078l0.12,0.082l0.118,0.084l0.115,0.088l0.112,0.09l0.11,0.093l0.107,0.095l0.105,0.098l0.102,0.102l0.1,0.103l0.096,0.104l0.094,0.108l0.092,0.11l0.089,0.111l0.087,0.114l0.084,0.117l0.081,0.117l0.078,0.12l0.077,0.121l0.04,0.068l0.04,-0.068l0.077,-0.122l0.078,-0.119l0.081,-0.117l0.084,-0.117l0.087,-0.114l0.089,-0.111l0.091,-0.109l0.095,-0.109l0.097,-0.105l0.099,-0.102l0.102,-0.101l0.105,-0.099l0.107,-0.095l0.11,-0.093l0.112,-0.09l0.115,-0.088l0.118,-0.084l0.12,-0.082l0.122,-0.078l0.126,-0.075l0.128,-0.072l0.129,-0.068l0.132,-0.065l0.135,-0.061l0.137,-0.058l0.14,-0.053l0.141,-0.049l0.143,-0.045l0.145,-0.041l0.148,-0.036l0.148,-0.032l0.151,-0.027l0.151,-0.022l0.153,-0.018l0.154,-0.012l0.155,-0.008l0.155,-0.002l0.155,0.002Zm-4.725,13.999l-0.069,0.002l-0.069,0.004l-0.068,0.004l-0.068,0.007l-0.067,0.007l-0.067,0.009l-0.067,0.011l-0.066,0.012l-0.066,0.013l-0.065,0.014l-0.065,0.016l-0.064,0.016l-0.064,0.019l-0.064,0.019l-0.062,0.021l-0.063,0.022l-0.062,0.023l-0.061,0.024l-0.061,0.026l-0.061,0.026l-0.059,0.028l-0.059,0.029l-0.059,0.031l-0.058,0.031l-0.057,0.033l-0.056,0.033l-0.056,0.035l-0.055,0.036l-0.055,0.037l-0.053,0.038l-0.053,0.039l-0.052,0.04l-0.051,0.041l-0.051,0.042l-0.05,0.044l-0.049,0.044l-0.047,0.044l-0.047,0.046l-0.046,0.048l-0.045,0.048l-0.044,0.048l-0.044,0.05l-0.042,0.051l-0.041,0.051l-0.041,0.053l-0.039,0.053l-0.038,0.054l-0.038,0.055l-0.035,0.055l-0.036,0.057l-0.034,0.058l-0.032,0.057l-0.032,0.059l-0.03,0.06l-0.03,0.06l-0.028,0.061l-0.027,0.062l-0.026,0.063l-0.025,0.063l-0.024,0.065l-0.022,0.065l-0.021,0.065l-0.022,0.077l-0.638,2.233l-0.026,0.084l-0.029,0.093l-0.031,0.092l-0.033,0.091l-0.034,0.09l-0.037,0.089l-0.038,0.089l-0.039,0.088l-0.042,0.088l-0.043,0.085l-0.044,0.086l-0.047,0.085l-0.047,0.083l-0.049,0.081l-0.051,0.083l-0.053,0.081l-0.054,0.08l-0.055,0.077l-0.058,0.078l-0.059,0.077l-0.059,0.074l-0.061,0.074l-0.063,0.073l-0.065,0.072l-0.067,0.071l-0.066,0.069l-0.069,0.068l-0.07,0.067l-0.07,0.065l-0.074,0.065l-0.074,0.062l-0.067,0.055l-2.913,2.331l-0.045,0.037l-0.033,0.029l-0.033,0.03l-0.031,0.03l-0.031,0.032l-0.03,0.033l-0.028,0.032l-0.027,0.034l-0.027,0.035l-0.026,0.035l-0.024,0.036l-0.024,0.036l-0.022,0.038l-0.022,0.038l-0.02,0.038l-0.019,0.038l-0.019,0.039l-0.017,0.041l-0.016,0.041l-0.015,0.04l-0.014,0.041l-0.013,0.042l-0.011,0.041l-0.01,0.043l-0.01,0.043l-0.008,0.043l-0.006,0.043l-0.006,0.044l-0.004,0.043l-0.003,0.044l-0.002,0.044l-0.001,0.053l0,0.022l0.001,0.026l0.001,0.028l0.001,0.028l0.002,0.028l0.003,0.028l0.002,0.026l0.003,0.027l0.004,0.029l0.003,0.026l0.005,0.027l0.004,0.026l0.005,0.028l0.006,0.027l0.005,0.025l0.007,0.027l0.006,0.027l0.007,0.026l0.008,0.026l0.007,0.026l0.008,0.025l0.008,0.026l0.01,0.026l0.009,0.026l0.009,0.024l0.01,0.026l0.011,0.025l0.01,0.024l0.011,0.025l0.012,0.025l0.011,0.024l0.012,0.024l0.013,0.025l0.012,0.023l0.014,0.024l0.013,0.024l0.014,0.022l0.014,0.024l0.015,0.022l0.014,0.023l0.015,0.022l0.016,0.022l0.016,0.023l0.016,0.021l0.016,0.021l0.018,0.023l0.016,0.02l0.018,0.021l0.018,0.021l0.017,0.019l0.019,0.021l0.018,0.019l0.02,0.021l0.019,0.019l0.019,0.018l0.02,0.019l0.02,0.018l0.02,0.019l0.022,0.018l0.022,0.018l0.02,0.017l0.022,0.017l0.021,0.016l0.024,0.018l0.022,0.016l0.023,0.015l0.023,0.016l0.023,0.015l0.023,0.014l0.023,0.015l0.024,0.014l0.024,0.014l0.024,0.013l0.024,0.013l0.025,0.012l0.023,0.012l0.025,0.012l0.025,0.011l0.025,0.011l0.025,0.011l0.025,0.01l0.026,0.01l0.025,0.009l0.025,0.009l0.026,0.009l0.026,0.008l0.025,0.008l0.027,0.008l0.026,0.007l0.026,0.007l0.026,0.006l0.027,0.006l0.026,0.006l0.026,0.005l0.027,0.005l0.027,0.004l0.026,0.004l0.027,0.004l0.027,0.003l0.026,0.003l0.027,0.003l0.027,0.002l0.027,0.002l0.027,0.001l0.027,0.001l0.028,0.001l0.027,0l0.027,-0.001l0.027,0l0.027,-0.001l0.027,-0.002l0.027,-0.001l0.027,-0.003l0.027,-0.002l0.027,-0.003l0.027,-0.004l0.027,-0.004l0.027,-0.004l0.027,-0.004l0.027,-0.005l0.027,-0.006l0.026,-0.006l0.027,-0.006l0.027,-0.007l0.027,-0.007l0.026,-0.007l0.027,-0.008l0.033,-0.011l4.331,-1.393l0.12,-0.038l0.131,-0.038l0.13,-0.035l0.131,-0.032l0.132,-0.03l0.132,-0.028l0.133,-0.025l0.133,-0.022l0.133,-0.02l0.133,-0.017l0.134,-0.015l0.133,-0.012l0.135,-0.009l0.134,-0.007l0.134,-0.004l0.134,-0.002l0.134,0.001l0.135,0.003l0.134,0.006l0.134,0.009l0.134,0.011l0.134,0.014l0.133,0.016l0.133,0.019l0.134,0.021l0.132,0.024l0.132,0.027l0.132,0.029l0.132,0.032l0.131,0.034l0.13,0.037l0.121,0.037l4.585,1.442l0.034,0.011l0.027,0.008l0.027,0.007l0.027,0.007l0.026,0.006l0.027,0.006l0.027,0.006l0.027,0.005l0.027,0.005l0.027,0.005l0.027,0.004l0.027,0.004l0.027,0.003l0.027,0.003l0.028,0.002l0.027,0.002l0.027,0.002l0.027,0.001l0.027,0.001l0.027,0.001l0.028,0l0.027,-0.001l0.027,0l0.027,-0.001l0.027,-0.002l0.027,-0.002l0.027,-0.002l0.027,-0.003l0.027,-0.003l0.027,-0.003l0.027,-0.004l0.026,-0.004l0.027,-0.005l0.027,-0.005l0.026,-0.005l0.027,-0.006l0.026,-0.006l0.027,-0.007l0.026,-0.007l0.026,-0.007l0.026,-0.008l0.026,-0.008l0.026,-0.008l0.025,-0.009l0.025,-0.009l0.026,-0.01l0.026,-0.01l0.025,-0.01l0.025,-0.011l0.024,-0.011l0.025,-0.012l0.025,-0.011l0.024,-0.013l0.025,-0.012l0.024,-0.013l0.023,-0.013l0.025,-0.015l0.024,-0.013l0.022,-0.014l0.024,-0.016l0.023,-0.015l0.023,-0.015l0.024,-0.017l0.022,-0.016l0.022,-0.016l0.022,-0.017l0.022,-0.018l0.021,-0.017l0.021,-0.017l0.021,-0.019l0.021,-0.019l0.02,-0.018l0.02,-0.019l0.019,-0.018l0.019,-0.019l0.02,-0.021l0.019,-0.02l0.018,-0.02l0.017,-0.02l0.018,-0.021l0.018,-0.021l0.017,-0.021l0.017,-0.022l0.016,-0.021l0.017,-0.022l0.015,-0.022l0.015,-0.022l0.016,-0.023l0.015,-0.023l0.014,-0.023l0.014,-0.022l0.014,-0.023l0.014,-0.025l0.013,-0.023l0.012,-0.024l0.012,-0.023l0.013,-0.025l0.012,-0.026l0.011,-0.023l0.011,-0.024l0.011,-0.027l0.01,-0.025l0.01,-0.024l0.009,-0.025l0.009,-0.026l0.009,-0.026l0.009,-0.027l0.008,-0.025l0.007,-0.024l0.008,-0.028l0.007,-0.026l0.006,-0.027l0.007,-0.026l0.005,-0.026l0.006,-0.027l0.005,-0.028l0.004,-0.026l0.004,-0.026l0.004,-0.029l0.004,-0.027l0.003,-0.027l0.003,-0.027l0.002,-0.028l0.002,-0.028l0.001,-0.028l0.001,-0.027l0.001,-0.027l0,-0.023l-0.001,-0.053l-0.002,-0.044l-0.003,-0.046l-0.005,-0.046l-0.005,-0.044l-0.007,-0.044l-0.008,-0.044l-0.01,-0.044l-0.01,-0.044l-0.012,-0.043l-0.013,-0.042l-0.014,-0.043l-0.016,-0.042l-0.016,-0.041l-0.018,-0.041l-0.019,-0.041l-0.019,-0.04l-0.021,-0.039l-0.022,-0.039l-0.023,-0.037l-0.025,-0.038l-0.025,-0.037l-0.026,-0.036l-0.028,-0.036l-0.028,-0.035l-0.029,-0.033l-0.03,-0.033l-0.032,-0.033l-0.033,-0.032l-0.032,-0.03l-0.035,-0.03l-0.046,-0.038l-2.897,-2.318l-0.067,-0.055l-0.074,-0.062l-0.073,-0.065l-0.071,-0.065l-0.07,-0.066l-0.069,-0.069l-0.067,-0.069l-0.067,-0.071l-0.064,-0.072l-0.062,-0.072l-0.062,-0.075l-0.06,-0.075l-0.058,-0.076l-0.058,-0.078l-0.055,-0.077l-0.054,-0.08l-0.053,-0.081l-0.05,-0.081l-0.05,-0.083l-0.048,-0.084l-0.045,-0.083l-0.046,-0.087l-0.043,-0.087l-0.041,-0.086l-0.039,-0.087l-0.038,-0.088l-0.037,-0.091l-0.034,-0.091l-0.033,-0.091l-0.031,-0.091l-0.029,-0.093l-0.025,-0.084l-0.638,-2.233l-0.023,-0.076l-0.021,-0.066l-0.023,-0.066l-0.023,-0.064l-0.024,-0.063l-0.026,-0.062l-0.028,-0.063l-0.028,-0.061l-0.029,-0.06l-0.031,-0.06l-0.031,-0.058l-0.034,-0.059l-0.034,-0.057l-0.035,-0.057l-0.035,-0.055l-0.037,-0.055l-0.039,-0.054l-0.039,-0.054l-0.04,-0.051l-0.042,-0.052l-0.042,-0.051l-0.043,-0.05l-0.044,-0.048l-0.046,-0.048l-0.046,-0.047l-0.047,-0.047l-0.048,-0.045l-0.048,-0.043l-0.05,-0.044l-0.051,-0.042l-0.051,-0.041l-0.052,-0.04l-0.053,-0.039l-0.053,-0.038l-0.055,-0.037l-0.055,-0.036l-0.056,-0.035l-0.056,-0.033l-0.057,-0.033l-0.058,-0.031l-0.059,-0.031l-0.059,-0.029l-0.059,-0.028l-0.061,-0.026l-0.061,-0.026l-0.061,-0.024l-0.062,-0.023l-0.063,-0.022l-0.062,-0.021l-0.064,-0.019l-0.064,-0.019l-0.064,-0.016l-0.065,-0.016l-0.065,-0.014l-0.066,-0.013l-0.066,-0.012l-0.067,-0.011l-0.067,-0.009l-0.067,-0.007l-0.068,-0.007l-0.068,-0.004l-0.069,-0.004l-0.069,-0.002l-0.07,-0.001l-0.07,0.001Zm10.545,-2l-0.025,0.001l-0.024,0.002l-0.025,0.003l-0.024,0.003l-0.024,0.005l-0.024,0.005l-0.025,0.006l-0.025,0.007l-0.024,0.008l-0.026,0.008l-0.027,0.011l-0.026,0.011l-0.026,0.012l-0.028,0.013l-0.028,0.015l-0.028,0.016l-0.029,0.017l-0.03,0.019l-0.029,0.02l-0.03,0.022l-0.031,0.023l-0.03,0.025l-0.031,0.026l-0.031,0.027l-0.032,0.03l-0.032,0.032l-0.031,0.032l-0.031,0.034l-0.032,0.036l-0.032,0.038l-0.031,0.039l-0.031,0.04l-0.03,0.042l-0.03,0.044l-0.03,0.046l-0.03,0.047l-0.028,0.048l-0.029,0.05l-0.028,0.052l-0.027,0.052l-0.026,0.054l-0.025,0.055l-0.025,0.058l-0.024,0.058l-0.023,0.059l-0.022,0.061l-0.021,0.062l-0.02,0.062l-0.019,0.064l-0.018,0.066l-0.017,0.066l-0.015,0.067l-0.015,0.068l-0.013,0.07l-0.012,0.07l-0.01,0.071l-0.01,0.073l-0.007,0.072l-0.007,0.073l-0.005,0.076l-0.004,0.075l-0.002,0.075l-0.001,0.077l0.001,0.077l0.002,0.075l0.004,0.075l0.005,0.076l0.007,0.073l0.007,0.072l0.01,0.073l0.01,0.071l0.012,0.07l0.013,0.07l0.015,0.068l0.015,0.067l0.017,0.066l0.018,0.066l0.019,0.064l0.02,0.062l0.021,0.062l0.022,0.061l0.023,0.059l0.024,0.058l0.025,0.058l0.025,0.055l0.026,0.054l0.027,0.052l0.028,0.052l0.029,0.05l0.028,0.048l0.03,0.047l0.03,0.046l0.03,0.044l0.03,0.042l0.031,0.04l0.031,0.039l0.032,0.038l0.032,0.036l0.031,0.034l0.031,0.032l0.032,0.032l0.032,0.03l0.031,0.027l0.031,0.026l0.031,0.025l0.03,0.023l0.03,0.022l0.029,0.02l0.03,0.019l0.029,0.017l0.028,0.016l0.028,0.015l0.028,0.013l0.026,0.012l0.026,0.011l0.027,0.011l0.026,0.008l0.024,0.008l0.025,0.007l0.025,0.006l0.024,0.005l0.024,0.005l0.025,0.003l0.024,0.003l0.024,0.002l0.025,0.001l0.025,0.001l0.025,-0.001l0.025,-0.001l0.024,-0.002l0.024,-0.003l0.025,-0.003l0.024,-0.005l0.024,-0.005l0.025,-0.006l0.025,-0.007l0.024,-0.008l0.026,-0.008l0.026,-0.011l0.027,-0.011l0.027,-0.012l0.027,-0.013l0.028,-0.015l0.028,-0.016l0.029,-0.017l0.03,-0.019l0.03,-0.02l0.029,-0.022l0.03,-0.023l0.031,-0.025l0.031,-0.026l0.031,-0.027l0.032,-0.03l0.031,-0.031l0.032,-0.033l0.032,-0.034l0.031,-0.036l0.032,-0.038l0.03,-0.038l0.031,-0.041l0.031,-0.043l0.031,-0.044l0.029,-0.045l0.03,-0.047l0.028,-0.048l0.029,-0.05l0.028,-0.052l0.026,-0.051l0.027,-0.055l0.025,-0.056l0.025,-0.057l0.024,-0.058l0.023,-0.059l0.022,-0.06l0.021,-0.062l0.02,-0.064l0.019,-0.064l0.018,-0.065l0.016,-0.066l0.016,-0.068l0.015,-0.068l0.013,-0.069l0.012,-0.07l0.01,-0.071l0.01,-0.072l0.007,-0.073l0.007,-0.074l0.005,-0.075l0.004,-0.075l0.002,-0.075l0.001,-0.077l-0.001,-0.077l-0.002,-0.075l-0.004,-0.075l-0.005,-0.075l-0.007,-0.074l-0.007,-0.073l-0.01,-0.072l-0.01,-0.071l-0.012,-0.07l-0.013,-0.069l-0.015,-0.068l-0.016,-0.068l-0.016,-0.066l-0.018,-0.065l-0.019,-0.064l-0.02,-0.064l-0.021,-0.062l-0.022,-0.06l-0.023,-0.059l-0.024,-0.058l-0.025,-0.057l-0.025,-0.056l-0.027,-0.055l-0.026,-0.051l-0.028,-0.052l-0.029,-0.05l-0.028,-0.048l-0.03,-0.047l-0.029,-0.045l-0.031,-0.044l-0.031,-0.043l-0.031,-0.041l-0.03,-0.038l-0.032,-0.038l-0.031,-0.036l-0.032,-0.034l-0.032,-0.033l-0.031,-0.031l-0.032,-0.03l-0.031,-0.027l-0.031,-0.026l-0.03,-0.025l-0.031,-0.023l-0.03,-0.022l-0.029,-0.02l-0.03,-0.019l-0.029,-0.017l-0.028,-0.016l-0.028,-0.015l-0.027,-0.013l-0.028,-0.013l-0.026,-0.01l-0.026,-0.011l-0.026,-0.008l-0.024,-0.008l-0.025,-0.007l-0.025,-0.006l-0.024,-0.005l-0.024,-0.005l-0.025,-0.003l-0.024,-0.003l-0.024,-0.002l-0.025,-0.001l-0.025,-0.001l-0.025,0.001Zm-21,0l-0.025,0.001l-0.024,0.002l-0.025,0.003l-0.024,0.003l-0.024,0.005l-0.024,0.005l-0.025,0.006l-0.025,0.007l-0.024,0.008l-0.026,0.008l-0.027,0.011l-0.026,0.011l-0.026,0.012l-0.028,0.013l-0.028,0.015l-0.028,0.016l-0.029,0.017l-0.03,0.019l-0.029,0.02l-0.03,0.022l-0.031,0.023l-0.03,0.025l-0.031,0.026l-0.031,0.027l-0.032,0.03l-0.032,0.032l-0.031,0.032l-0.031,0.034l-0.032,0.036l-0.032,0.038l-0.031,0.039l-0.031,0.04l-0.03,0.042l-0.03,0.044l-0.03,0.046l-0.03,0.047l-0.028,0.048l-0.029,0.05l-0.028,0.052l-0.027,0.052l-0.026,0.054l-0.025,0.055l-0.025,0.058l-0.024,0.058l-0.023,0.059l-0.022,0.061l-0.021,0.062l-0.02,0.062l-0.019,0.064l-0.018,0.066l-0.017,0.066l-0.015,0.067l-0.015,0.068l-0.013,0.07l-0.012,0.07l-0.01,0.071l-0.01,0.073l-0.007,0.072l-0.007,0.073l-0.005,0.076l-0.004,0.075l-0.002,0.075l-0.001,0.077l0.001,0.077l0.002,0.075l0.004,0.075l0.005,0.076l0.007,0.073l0.007,0.072l0.01,0.073l0.01,0.071l0.012,0.07l0.013,0.07l0.015,0.068l0.015,0.067l0.017,0.066l0.018,0.066l0.019,0.064l0.02,0.062l0.021,0.062l0.022,0.061l0.023,0.059l0.024,0.058l0.025,0.058l0.025,0.055l0.026,0.054l0.027,0.052l0.028,0.052l0.029,0.05l0.028,0.048l0.03,0.047l0.03,0.046l0.03,0.044l0.03,0.042l0.031,0.04l0.031,0.039l0.032,0.038l0.032,0.036l0.031,0.034l0.031,0.032l0.032,0.032l0.032,0.03l0.031,0.027l0.031,0.026l0.031,0.025l0.03,0.023l0.03,0.022l0.029,0.02l0.03,0.019l0.029,0.017l0.028,0.016l0.028,0.015l0.028,0.013l0.026,0.012l0.026,0.011l0.027,0.011l0.026,0.008l0.024,0.008l0.025,0.007l0.025,0.006l0.024,0.005l0.024,0.005l0.025,0.003l0.024,0.003l0.024,0.002l0.025,0.001l0.025,0.001l0.025,-0.001l0.025,-0.001l0.024,-0.002l0.024,-0.003l0.025,-0.003l0.024,-0.005l0.024,-0.005l0.025,-0.006l0.025,-0.007l0.024,-0.008l0.026,-0.008l0.026,-0.011l0.027,-0.011l0.027,-0.012l0.027,-0.013l0.028,-0.015l0.028,-0.016l0.029,-0.017l0.03,-0.019l0.03,-0.02l0.029,-0.022l0.03,-0.023l0.031,-0.025l0.031,-0.026l0.031,-0.027l0.032,-0.03l0.031,-0.031l0.032,-0.033l0.032,-0.034l0.031,-0.036l0.032,-0.038l0.03,-0.038l0.031,-0.041l0.031,-0.043l0.031,-0.044l0.029,-0.045l0.03,-0.047l0.028,-0.048l0.029,-0.05l0.028,-0.052l0.026,-0.051l0.027,-0.055l0.025,-0.056l0.025,-0.057l0.024,-0.058l0.023,-0.059l0.022,-0.06l0.021,-0.062l0.02,-0.064l0.019,-0.064l0.018,-0.065l0.016,-0.066l0.016,-0.068l0.015,-0.068l0.013,-0.069l0.012,-0.07l0.01,-0.071l0.01,-0.072l0.007,-0.073l0.007,-0.074l0.005,-0.075l0.004,-0.075l0.002,-0.075l0.001,-0.077l-0.001,-0.077l-0.002,-0.075l-0.004,-0.075l-0.005,-0.075l-0.007,-0.074l-0.007,-0.073l-0.01,-0.072l-0.01,-0.071l-0.012,-0.07l-0.013,-0.069l-0.015,-0.068l-0.016,-0.068l-0.016,-0.066l-0.018,-0.065l-0.019,-0.064l-0.02,-0.064l-0.021,-0.062l-0.022,-0.06l-0.023,-0.059l-0.024,-0.058l-0.025,-0.057l-0.025,-0.056l-0.027,-0.055l-0.026,-0.051l-0.028,-0.052l-0.029,-0.05l-0.028,-0.048l-0.03,-0.047l-0.029,-0.045l-0.031,-0.044l-0.031,-0.043l-0.031,-0.041l-0.03,-0.038l-0.032,-0.038l-0.031,-0.036l-0.032,-0.034l-0.032,-0.033l-0.031,-0.031l-0.032,-0.03l-0.031,-0.027l-0.031,-0.026l-0.03,-0.025l-0.031,-0.023l-0.03,-0.022l-0.029,-0.02l-0.03,-0.019l-0.029,-0.017l-0.028,-0.016l-0.028,-0.015l-0.027,-0.013l-0.028,-0.013l-0.026,-0.01l-0.026,-0.011l-0.026,-0.008l-0.024,-0.008l-0.025,-0.007l-0.025,-0.006l-0.024,-0.005l-0.024,-0.005l-0.025,-0.003l-0.024,-0.003l-0.024,-0.002l-0.025,-0.001l-0.025,-0.001l-0.025,0.001Zm15,-8l-0.025,0.001l-0.024,0.002l-0.024,0.003l-0.025,0.003l-0.024,0.005l-0.024,0.005l-0.024,0.006l-0.025,0.007l-0.026,0.008l-0.025,0.009l-0.026,0.009l-0.027,0.012l-0.026,0.012l-0.028,0.013l-0.028,0.015l-0.028,0.016l-0.029,0.017l-0.029,0.019l-0.03,0.02l-0.03,0.022l-0.031,0.023l-0.03,0.025l-0.031,0.026l-0.032,0.028l-0.031,0.029l-0.032,0.031l-0.031,0.033l-0.032,0.034l-0.031,0.036l-0.031,0.037l-0.032,0.04l-0.031,0.04l-0.03,0.042l-0.031,0.045l-0.03,0.046l-0.029,0.046l-0.029,0.048l-0.028,0.05l-0.027,0.051l-0.028,0.053l-0.026,0.055l-0.025,0.055l-0.025,0.057l-0.024,0.058l-0.023,0.059l-0.022,0.06l-0.021,0.062l-0.02,0.064l-0.019,0.063l-0.018,0.066l-0.017,0.066l-0.015,0.067l-0.015,0.069l-0.013,0.069l-0.012,0.07l-0.01,0.071l-0.01,0.073l-0.008,0.073l-0.006,0.073l-0.005,0.074l-0.004,0.075l-0.002,0.077l-0.001,0.076l0.001,0.076l0.002,0.077l0.004,0.075l0.005,0.074l0.006,0.073l0.008,0.073l0.01,0.073l0.01,0.071l0.012,0.07l0.013,0.069l0.015,0.069l0.015,0.067l0.017,0.066l0.018,0.066l0.019,0.063l0.02,0.064l0.021,0.062l0.022,0.06l0.023,0.059l0.024,0.058l0.025,0.057l0.025,0.055l0.026,0.055l0.028,0.053l0.027,0.051l0.028,0.05l0.029,0.048l0.029,0.047l0.03,0.045l0.031,0.045l0.03,0.042l0.031,0.04l0.032,0.04l0.031,0.037l0.031,0.036l0.032,0.034l0.031,0.033l0.032,0.031l0.031,0.029l0.032,0.028l0.031,0.026l0.03,0.025l0.031,0.023l0.03,0.022l0.03,0.02l0.029,0.019l0.029,0.017l0.028,0.016l0.028,0.015l0.028,0.013l0.027,0.013l0.026,0.011l0.026,0.009l0.025,0.009l0.026,0.008l0.024,0.007l0.025,0.006l0.024,0.005l0.025,0.005l0.023,0.003l0.025,0.003l0.024,0.002l0.025,0.001l0.025,0.001l0.025,-0.001l0.025,-0.001l0.024,-0.002l0.025,-0.003l0.023,-0.003l0.025,-0.005l0.024,-0.005l0.025,-0.006l0.024,-0.007l0.026,-0.008l0.025,-0.009l0.026,-0.009l0.026,-0.011l0.027,-0.013l0.028,-0.013l0.028,-0.015l0.028,-0.016l0.029,-0.017l0.029,-0.019l0.03,-0.02l0.03,-0.022l0.031,-0.023l0.03,-0.025l0.031,-0.026l0.032,-0.028l0.032,-0.03l0.031,-0.03l0.031,-0.032l0.032,-0.035l0.031,-0.036l0.031,-0.037l0.032,-0.04l0.031,-0.04l0.03,-0.042l0.031,-0.045l0.029,-0.045l0.029,-0.046l0.03,-0.05l0.028,-0.049l0.027,-0.051l0.028,-0.053l0.026,-0.055l0.025,-0.055l0.025,-0.057l0.024,-0.057l0.023,-0.06l0.022,-0.061l0.021,-0.061l0.02,-0.064l0.019,-0.063l0.018,-0.066l0.017,-0.066l0.015,-0.067l0.015,-0.068l0.013,-0.07l0.012,-0.07l0.01,-0.071l0.01,-0.073l0.008,-0.073l0.006,-0.073l0.005,-0.074l0.004,-0.075l0.002,-0.076l0.001,-0.077l-0.001,-0.077l-0.002,-0.076l-0.004,-0.075l-0.005,-0.074l-0.006,-0.073l-0.008,-0.073l-0.01,-0.073l-0.01,-0.071l-0.012,-0.07l-0.014,-0.07l-0.014,-0.068l-0.015,-0.067l-0.017,-0.066l-0.018,-0.066l-0.019,-0.063l-0.02,-0.064l-0.021,-0.061l-0.022,-0.061l-0.023,-0.06l-0.024,-0.057l-0.024,-0.057l-0.026,-0.055l-0.026,-0.055l-0.028,-0.053l-0.027,-0.051l-0.028,-0.049l-0.03,-0.05l-0.029,-0.046l-0.029,-0.045l-0.031,-0.045l-0.03,-0.042l-0.031,-0.04l-0.032,-0.04l-0.031,-0.037l-0.031,-0.036l-0.032,-0.035l-0.031,-0.032l-0.031,-0.03l-0.032,-0.03l-0.032,-0.028l-0.031,-0.026l-0.03,-0.025l-0.031,-0.023l-0.03,-0.022l-0.03,-0.02l-0.029,-0.019l-0.029,-0.017l-0.028,-0.016l-0.028,-0.015l-0.028,-0.013l-0.026,-0.012l-0.027,-0.012l-0.026,-0.009l-0.025,-0.009l-0.026,-0.008l-0.025,-0.007l-0.024,-0.006l-0.024,-0.005l-0.024,-0.005l-0.025,-0.003l-0.024,-0.003l-0.024,-0.002l-0.025,-0.001l-0.025,-0.001l-0.025,0.001Zm-9,0l-0.025,0.001l-0.024,0.002l-0.024,0.003l-0.025,0.003l-0.024,0.005l-0.024,0.005l-0.024,0.006l-0.025,0.007l-0.026,0.008l-0.025,0.009l-0.026,0.009l-0.027,0.012l-0.027,0.012l-0.027,0.013l-0.028,0.015l-0.028,0.016l-0.029,0.017l-0.03,0.019l-0.029,0.02l-0.03,0.022l-0.031,0.023l-0.031,0.025l-0.031,0.026l-0.031,0.027l-0.031,0.03l-0.031,0.031l-0.032,0.033l-0.032,0.034l-0.031,0.036l-0.031,0.037l-0.031,0.039l-0.032,0.041l-0.03,0.043l-0.031,0.044l-0.029,0.045l-0.03,0.047l-0.028,0.048l-0.029,0.05l-0.027,0.051l-0.028,0.053l-0.026,0.055l-0.025,0.055l-0.025,0.057l-0.024,0.058l-0.023,0.059l-0.022,0.06l-0.021,0.062l-0.02,0.064l-0.019,0.064l-0.018,0.065l-0.016,0.066l-0.016,0.067l-0.015,0.069l-0.013,0.069l-0.012,0.07l-0.01,0.071l-0.01,0.073l-0.008,0.073l-0.006,0.073l-0.005,0.075l-0.004,0.075l-0.002,0.075l-0.001,0.077l0.001,0.077l0.002,0.075l0.004,0.075l0.005,0.075l0.006,0.073l0.008,0.073l0.01,0.073l0.01,0.071l0.012,0.07l0.013,0.069l0.015,0.069l0.016,0.067l0.016,0.066l0.018,0.065l0.019,0.064l0.02,0.064l0.021,0.062l0.022,0.06l0.023,0.059l0.024,0.058l0.025,0.057l0.025,0.055l0.026,0.055l0.028,0.053l0.027,0.051l0.028,0.05l0.029,0.048l0.03,0.047l0.029,0.045l0.031,0.044l0.03,0.043l0.032,0.041l0.031,0.039l0.031,0.037l0.031,0.036l0.032,0.034l0.032,0.033l0.031,0.031l0.031,0.03l0.031,0.027l0.031,0.026l0.031,0.025l0.031,0.023l0.03,0.022l0.029,0.02l0.03,0.019l0.029,0.017l0.028,0.016l0.028,0.015l0.027,0.013l0.028,0.013l0.026,0.011l0.026,0.009l0.026,0.009l0.025,0.008l0.024,0.007l0.025,0.006l0.024,0.005l0.025,0.005l0.023,0.003l0.025,0.003l0.024,0.002l0.025,0.001l0.025,0.001l0.025,-0.001l0.025,-0.001l0.024,-0.002l0.025,-0.003l0.023,-0.003l0.025,-0.005l0.024,-0.005l0.025,-0.006l0.024,-0.007l0.026,-0.008l0.026,-0.009l0.025,-0.009l0.026,-0.011l0.027,-0.013l0.028,-0.013l0.028,-0.015l0.028,-0.016l0.029,-0.017l0.03,-0.019l0.029,-0.02l0.03,-0.022l0.031,-0.023l0.03,-0.025l0.031,-0.026l0.032,-0.028l0.032,-0.03l0.031,-0.03l0.031,-0.032l0.032,-0.035l0.031,-0.036l0.031,-0.037l0.032,-0.04l0.031,-0.04l0.03,-0.042l0.03,-0.044l0.03,-0.046l0.03,-0.047l0.028,-0.048l0.029,-0.05l0.028,-0.052l0.027,-0.052l0.026,-0.055l0.025,-0.055l0.025,-0.057l0.024,-0.057l0.023,-0.06l0.022,-0.061l0.021,-0.061l0.02,-0.063l0.019,-0.064l0.018,-0.066l0.017,-0.066l0.015,-0.067l0.015,-0.068l0.013,-0.07l0.012,-0.07l0.01,-0.071l0.01,-0.073l0.008,-0.073l0.006,-0.073l0.005,-0.074l0.004,-0.075l0.002,-0.076l0.001,-0.077l-0.001,-0.077l-0.002,-0.076l-0.004,-0.075l-0.005,-0.074l-0.006,-0.073l-0.008,-0.073l-0.01,-0.073l-0.01,-0.071l-0.012,-0.07l-0.013,-0.07l-0.015,-0.068l-0.015,-0.067l-0.017,-0.066l-0.018,-0.066l-0.019,-0.064l-0.02,-0.063l-0.021,-0.061l-0.022,-0.061l-0.023,-0.06l-0.024,-0.057l-0.024,-0.057l-0.026,-0.055l-0.026,-0.055l-0.027,-0.052l-0.028,-0.052l-0.029,-0.05l-0.028,-0.048l-0.03,-0.047l-0.03,-0.046l-0.03,-0.044l-0.03,-0.042l-0.031,-0.04l-0.032,-0.04l-0.031,-0.037l-0.031,-0.036l-0.032,-0.035l-0.031,-0.032l-0.031,-0.03l-0.032,-0.03l-0.032,-0.028l-0.031,-0.026l-0.03,-0.025l-0.031,-0.023l-0.03,-0.022l-0.029,-0.02l-0.03,-0.019l-0.029,-0.017l-0.028,-0.016l-0.028,-0.015l-0.028,-0.013l-0.026,-0.012l-0.027,-0.012l-0.026,-0.009l-0.025,-0.009l-0.025,-0.008l-0.026,-0.007l-0.024,-0.006l-0.024,-0.005l-0.025,-0.005l-0.024,-0.003l-0.024,-0.003l-0.024,-0.002l-0.025,-0.001l-0.025,-0.001l-0.025,0.001Z"/>
            <rect x="6" y="10" width="19" height="15"/>
        </g>
        <g id="emoji">
            <path d="M25.647,22.918c0.855,0.684 1.353,1.719 1.353,2.814c0,0.001 0,0.001 0,0.002c0,1.23 -0.586,2.387 -1.578,3.115c-0.992,0.728 -2.272,0.94 -3.446,0.571c-1.664,-0.524 -3.393,-1.068 -4.583,-1.443c-0.988,-0.31 -2.047,-0.307 -3.033,0.01c-1.133,0.365 -2.753,0.887 -4.328,1.393c-1.172,0.378 -2.453,0.172 -3.449,-0.553c-0.995,-0.725 -1.583,-1.882 -1.583,-3.113c0,-0.001 0,-0.001 0,-0.002c0,-1.082 0.492,-2.106 1.337,-2.781c0.934,-0.748 2.147,-1.718 2.916,-2.333c0.486,-0.389 0.839,-0.92 1.01,-1.518c0.168,-0.59 0.4,-1.399 0.638,-2.235c0.651,-2.276 2.731,-3.845 5.098,-3.845l0.002,0c2.367,0 4.447,1.569 5.098,3.845c0.238,0.836 0.47,1.645 0.638,2.235c0.171,0.598 0.524,1.129 1.01,1.518c0.765,0.611 1.968,1.574 2.9,2.32Zm0.853,-11.918c1.932,0 3.5,2.016 3.5,4.5c0,2.484 -1.568,4.5 -3.5,4.5c-1.932,0 -3.5,-2.016 -3.5,-4.5c0,-2.484 1.568,-4.5 3.5,-4.5Zm-21,0c1.932,0 3.5,2.016 3.5,4.5c0,2.484 -1.568,4.5 -3.5,4.5c-1.932,0 -3.5,-2.016 -3.5,-4.5c0,-2.484 1.568,-4.5 3.5,-4.5Zm15,-8c1.932,0 3.5,2.016 3.5,4.5c0,2.484 -1.568,4.5 -3.5,4.5c-1.932,0 -3.5,-2.016 -3.5,-4.5c0,-2.484 1.568,-4.5 3.5,-4.5Zm-9,0c1.932,0 3.5,2.016 3.5,4.5c0,2.484 -1.568,4.5 -3.5,4.5c-1.932,0 -3.5,-2.016 -3.5,-4.5c0,-2.484 1.568,-4.5 3.5,-4.5Z" style="fill:#666;"/>
            <clipPath id="_clip2">
                <path d="M25.647,22.918c0.855,0.684 1.353,1.719 1.353,2.814c0,0.001 0,0.001 0,0.002c0,1.23 -0.586,2.387 -1.578,3.115c-0.992,0.728 -2.272,0.94 -3.446,0.571c-1.664,-0.524 -3.393,-1.068 -4.583,-1.443c-0.988,-0.31 -2.047,-0.307 -3.033,0.01c-1.133,0.365 -2.753,0.887 -4.328,1.393c-1.172,0.378 -2.453,0.172 -3.449,-0.553c-0.995,-0.725 -1.583,-1.882 -1.583,-3.113c0,-0.001 0,-0.001 0,-0.002c0,-1.082 0.492,-2.106 1.337,-2.781c0.934,-0.748 2.147,-1.718 2.916,-2.333c0.486,-0.389 0.839,-0.92 1.01,-1.518c0.168,-0.59 0.4,-1.399 0.638,-2.235c0.651,-2.276 2.731,-3.845 5.098,-3.845l0.002,0c2.367,0 4.447,1.569 5.098,3.845c0.238,0.836 0.47,1.645 0.638,2.235c0.171,0.598 0.524,1.129 1.01,1.518c0.765,0.611 1.968,1.574 2.9,2.32Zm0.853,-11.918c1.932,0 3.5,2.016 3.5,4.5c0,2.484 -1.568,4.5 -3.5,4.5c-1.932,0 -3.5,-2.016 -3.5,-4.5c0,-2.484 1.568,-4.5 3.5,-4.5Zm-21,0c1.932,0 3.5,2.016 3.5,4.5c0,2.484 -1.568,4.5 -3.5,4.5c-1.932,0 -3.5,-2.016 -3.5,-4.5c0,-2.484 1.568,-4.5 3.5,-4.5Zm15,-8c1.932,0 3.5,2.016 3.5,4.5c0,2.484 -1.568,4.5 -3.5,4.5c-1.932,0 -3.5,-2.016 -3.5,-4.5c0,-2.484 1.568,-4.5 3.5,-4.5Zm-9,0c1.932,0 3.5,2.016 3.5,4.5c0,2.484 -1.568,4.5 -3.5,4.5c-1.932,0 -3.5,-2.016 -3.5,-4.5c0,-2.484 1.568,-4.5 3.5,-4.5Z"/>
            </clipPath>
            <g clip-path="url(#_clip2)">
                <rect x="0" y="3" width="32" height="26.598" style="fill:none;"/>
                <clipPath id="_clip3">
                    <rect x="0" y="3" width="32" height="26.598"/>
                </clipPath>
                <g clip-path="url(#_clip3)">
                    <g>
                        <rect x="-1.143" y="24.278" width="34.286" height="6.649" style="fill:#333;"/>
                        <rect x="-1.143" y="20.288" width="34.286" height="5.51" style="fill:#a0a0a0;"/>
                        <rect x="-1.143" y="16.964" width="34.286" height="5.035" style="fill:#fff;"/>
                        <rect x="-1.143" y="13.639" width="34.286" height="4.56" style="fill:#abfb22;"/>
                        <rect x="-1.143" y="9.649" width="34.286" height="4.749" style="fill:#fff;"/>
                        <rect x="-1.143" y="5.66" width="34.286" height="4.939" style="fill:#a0a0a0;"/>
                        <rect x="-1.143" y="1.67" width="34.286" height="5.129" style="fill:#333;"/>
                    </g>
                </g>
            </g>
        </g>
    </g>
</svg>
