<?xml version="1.0" encoding="UTF-8"?>
<!DOCTYPE svg  PUBLIC '-//W3C//DTD SVG 1.1//EN'  'http://www.w3.org/Graphics/SVG/1.1/DTD/svg11.dtd'>
<svg clip-rule="evenodd" fill-rule="evenodd" stroke-linejoin="round" stroke-miterlimit="1.4142" version="1.1" viewBox="0 0 32 32" xml:space="preserve" xmlns="http://www.w3.org/2000/svg">
<metadata>
<rdf:RDF xmlns:cc="http://web.resource.org/cc/" xmlns:dc="http://purl.org/dc/elements/1.1/" xmlns:rdf="http://www.w3.org/1999/02/22-rdf-syntax-ns#">

     <rdf:Description rdf:about="">
       <dc:title>Mutant Standard S3</dc:title>
     </rdf:Description>

    <cc:work rdf:about="">
        <cc:license rdf:resource="http://creativecommons.org/licenses/by-nc-sa/4.0/"/>
        <cc:attributionName>Dzuk</cc:attributionName>
        <cc:attributionURL>http://mutant.tech/</cc:attributionURL>
    </cc:work>

</rdf:RDF>
</metadata>

    <rect id="quoiromantic_furry" width="32" height="32" fill="none"/>
    <clipPath id="_clip1">
        <rect width="32" height="32"/>
    </clipPath>
    <g clip-path="url(#_clip1)">
        <g id="outline">
            <path d="m11.655 1.002 0.155 8e-3 0.154 0.012 0.153 0.018 0.151 0.022 0.15 0.027 0.15 0.032 0.147 0.036 0.145 0.041 0.143 0.045 0.141 0.049 0.14 0.053 0.137 0.058 0.134 0.061 0.133 0.065 0.13 0.068 0.127 0.072 0.126 0.075 0.122 0.078 0.12 0.082 0.118 0.084 0.115 0.088 0.112 0.09 0.11 0.093 0.108 0.096 0.104 0.098 0.102 0.101 0.099 0.102 0.097 0.105 0.094 0.108 0.092 0.11 0.089 0.112 0.087 0.113 0.083 0.116 0.082 0.118 0.078 0.12 0.077 0.121 0.04 0.068 0.04-0.068 0.077-0.121 0.078-0.12 0.081-0.117 0.084-0.117 0.087-0.114 0.089-0.111 0.092-0.11 0.094-0.107 0.097-0.106 0.099-0.103 0.102-0.1 0.104-0.098 0.108-0.096 0.11-0.093 0.112-0.09 0.115-0.088 0.118-0.084 0.12-0.082 0.123-0.078 0.124-0.075 0.128-0.072 0.13-0.068 0.132-0.065 0.136-0.061 0.137-0.058 0.139-0.053 0.141-0.049 0.144-0.045 0.144-0.041 0.148-0.036 0.148-0.032 0.151-0.027 0.151-0.022 0.153-0.018 0.154-0.012 0.155-8e-3 0.155-2e-3 0.156 2e-3 0.154 8e-3 0.154 0.012 0.153 0.018 0.151 0.022 0.15 0.027 0.15 0.032 0.147 0.036 0.144 0.041 0.144 0.045 0.141 0.049 0.14 0.053 0.137 0.058 0.134 0.061 0.133 0.065 0.13 0.068 0.127 0.072 0.126 0.075 0.122 0.078 0.12 0.082 0.118 0.084 0.115 0.088 0.112 0.09 0.11 0.093 0.108 0.096 0.104 0.098 0.102 0.101 0.099 0.102 0.097 0.105 0.094 0.108 0.092 0.11 0.089 0.112 0.087 0.114 0.083 0.115 0.082 0.118 0.078 0.12 0.077 0.121 0.073 0.123 0.071 0.125 0.068 0.127 0.066 0.129 0.063 0.13 0.061 0.131 0.058 0.133 0.055 0.134 0.052 0.136 0.05 0.138 0.048 0.139 0.044 0.139 0.042 0.142 0.039 0.143 0.037 0.144 0.033 0.144 0.031 0.147 0.028 0.147 0.025 0.149 0.022 0.149 0.02 0.151 0.016 0.152 0.014 0.151 0.01 0.153 8e-3 0.154 5e-3 0.156 1e-3 0.155-1e-3 0.155-5e-3 0.156-8e-3 0.154-0.01 0.153-0.014 0.151-0.016 0.152-0.02 0.151-0.022 0.149-0.025 0.149-0.028 0.147-6e-3 0.028 0.038-5e-3 0.153-0.018 0.154-0.012 0.155-8e-3 0.155-2e-3 0.155 2e-3 0.155 8e-3 0.154 0.012 0.153 0.018 0.152 0.022 0.15 0.027 0.148 0.032 0.147 0.036 0.145 0.041 0.144 0.045 0.141 0.049 0.139 0.053 0.138 0.058 0.135 0.061 0.132 0.065 0.13 0.068 0.128 0.072 0.124 0.075 0.123 0.078 0.121 0.082 0.117 0.084 0.115 0.088 0.112 0.09 0.11 0.093 0.107 0.095 0.105 0.098 0.102 0.102 0.1 0.103 0.096 0.105 0.094 0.107 0.092 0.11 0.089 0.111 0.087 0.114 0.084 0.117 0.081 0.117 0.078 0.12 0.076 0.121 0.074 0.123 0.071 0.125 0.068 0.127 0.066 0.128 0.063 0.13 0.061 0.132 0.058 0.133 0.055 0.135 0.052 0.135 0.05 0.137 0.048 0.14 0.044 0.14 0.042 0.141 0.039 0.142 0.036 0.145 0.034 0.145 0.031 0.146 0.028 0.147 0.025 0.149 0.022 0.149 0.02 0.15 0.016 0.152 0.014 0.152 0.01 0.154 8e-3 0.154 5e-3 0.155 1e-3 0.155-1e-3 0.155-5e-3 0.155-8e-3 0.154-0.01 0.154-0.014 0.152-0.016 0.152-0.02 0.15-0.022 0.149-0.025 0.149-0.028 0.147-0.031 0.146-0.034 0.145-0.036 0.145-0.039 0.142-0.042 0.141-0.044 0.14-0.048 0.14-0.05 0.137-0.052 0.135-0.055 0.135-0.058 0.133-0.061 0.132-0.063 0.13-0.066 0.128-0.068 0.127-0.071 0.125-0.074 0.123-0.076 0.121-0.078 0.12-0.081 0.117-0.084 0.117-0.087 0.114-0.089 0.111-0.092 0.11-0.094 0.107-0.096 0.105-0.1 0.103-0.102 0.102-0.105 0.098-0.107 0.095-0.11 0.093-0.112 0.09-0.115 0.088-0.118 0.084-0.12 0.082-0.123 0.078-0.124 0.075-0.128 0.072-0.13 0.068-0.132 0.065-0.135 0.061-0.138 0.058-0.139 0.053-0.141 0.049-0.144 0.045-0.145 0.041-0.147 0.036-0.085 0.018 0.103 0.112 0.102 0.118 0.099 0.122 0.096 0.124 0.092 0.126 0.088 0.129 0.085 0.131 0.081 0.134 0.076 0.134 0.074 0.138 0.069 0.14 0.065 0.14 0.062 0.144 0.058 0.144 0.053 0.146 0.05 0.149 0.045 0.149 0.041 0.151 0.038 0.152 0.032 0.153 0.029 0.155 0.024 0.155 0.02 0.156 0.016 0.158 0.011 0.157 7e-3 0.158 2e-3 0.146v0.023l-1e-3 0.081-2e-3 0.086-3e-3 0.087-4e-3 0.088-6e-3 0.086-7e-3 0.086-8e-3 0.086-0.01 0.087-0.011 0.086-0.012 0.085-0.013 0.085-0.015 0.084-0.016 0.085-0.017 0.085-0.018 0.084-0.019 0.083-0.021 0.083-0.022 0.083-0.023 0.083-0.024 0.08-0.025 0.082-0.027 0.082-0.028 0.082-0.029 0.079-0.03 0.08-0.031 0.079-0.032 0.079-0.034 0.079-0.035 0.078-0.035 0.076-0.037 0.077-0.038 0.077-0.039 0.075-0.04 0.076-0.041 0.074-0.042 0.073-0.044 0.075-0.045 0.072-0.044 0.071-0.047 0.072-0.049 0.072-0.048 0.069-0.049 0.069-0.051 0.069-0.052 0.069-0.053 0.067-0.053 0.066-0.056 0.067-0.056 0.065-0.056 0.063-0.058 0.064-0.059 0.063-0.06 0.062-0.061 0.062-0.061 0.06-0.063 0.059-0.063 0.058-0.065 0.058-0.066 0.057-0.066 0.056-0.068 0.055-0.068 0.054-0.069 0.053-0.07 0.053-0.071 0.051-0.071 0.05-0.072 0.049-0.073 0.047-0.074 0.047-0.074 0.046-0.074 0.044-0.075 0.043-0.075 0.042-0.077 0.041-0.076 0.039-0.076 0.038-0.078 0.038-0.079 0.036-0.078 0.035-0.079 0.034-0.079 0.032-0.08 0.032-0.08 0.03-0.08 0.029-0.081 0.028-0.081 0.026-0.081 0.025-0.083 0.025-0.082 0.023-0.082 0.022-0.166 0.04-0.083 0.018-0.083 0.017-0.168 0.03-0.085 0.013-0.083 0.012-0.085 0.011-0.084 0.01-0.085 8e-3 -0.086 7e-3 -0.084 6e-3 -0.085 5e-3 -0.085 3e-3 -0.086 3e-3 -0.086 1e-3 -0.17-2e-3 -0.086-3e-3 -0.085-4e-3 -0.086-5e-3 -0.086-7e-3 -0.085-7e-3 -0.085-9e-3 -0.086-0.011-0.085-0.011-0.086-0.013-0.085-0.014-0.17-0.032-0.084-0.018-0.085-0.019-0.085-0.021-0.084-0.022-0.084-0.023-0.083-0.024-0.077-0.023-4.581-1.442-0.065-0.019-0.056-0.016-0.056-0.015-0.057-0.014-0.056-0.012-0.057-0.012-0.056-0.01-0.058-9e-3 -0.057-8e-3 -0.057-7e-3 -0.057-6e-3 -0.058-5e-3 -0.114-6e-3 -0.116-2e-3 -0.057 1e-3 -0.058 2e-3 -0.057 3e-3 -0.057 4e-3 -0.058 5e-3 -0.057 6e-3 -0.058 8e-3 -0.056 8e-3 -0.114 0.02-0.057 0.012-0.056 0.013-0.057 0.014-0.055 0.015-0.056 0.016-0.065 0.02-4.326 1.393-0.076 0.023-0.084 0.025-0.085 0.024-0.083 0.022-0.085 0.021-0.084 0.02-0.085 0.019-0.086 0.017-0.084 0.016-0.086 0.014-0.085 0.014-0.085 0.012-0.085 0.011-0.172 0.018-0.086 7e-3 -0.085 5e-3 -0.086 5e-3 -0.085 3e-3 -0.086 2e-3 -0.086 1e-3 -0.085-1e-3 -0.086-2e-3 -0.085-3e-3 -0.085-4e-3 -0.085-5e-3 -0.086-7e-3 -0.084-8e-3 -0.085-9e-3 -0.085-0.011-0.084-0.011-0.085-0.013-0.084-0.014-0.083-0.016-0.084-0.016-0.084-0.018-0.083-0.019-0.083-0.02-0.082-0.022-0.083-0.022-0.082-0.024-0.081-0.025-0.082-0.027-0.081-0.027-0.081-0.029-0.08-0.03-0.08-0.031-0.079-0.032-0.08-0.034-0.078-0.034-0.078-0.036-0.078-0.037-0.078-0.038-0.076-0.039-0.077-0.041-0.076-0.042-0.075-0.043-0.074-0.044-0.075-0.045-0.073-0.046-0.073-0.048-0.073-0.049-0.142-0.1-0.071-0.053-0.07-0.053-0.068-0.054-0.134-0.11-0.065-0.057-0.066-0.058-0.064-0.059-0.062-0.058-0.063-0.061-0.06-0.061-0.061-0.062-0.059-0.063-0.058-0.063-0.057-0.065-0.056-0.065-0.055-0.065-0.054-0.066-0.054-0.069-0.051-0.067-0.051-0.069-0.05-0.07-0.049-0.069-0.048-0.071-0.047-0.072-0.09-0.144-0.043-0.073-0.043-0.075-0.041-0.074-0.041-0.075-0.039-0.076-0.038-0.076-0.037-0.078-0.036-0.077-0.035-0.078-0.033-0.077-0.033-0.08-0.032-0.08-0.029-0.078-0.029-0.082-0.028-0.081-0.027-0.08-0.025-0.082-0.025-0.083-0.023-0.082-0.022-0.083-0.021-0.083-0.019-0.083-0.018-0.084-0.018-0.085-0.015-0.084-0.015-0.086-0.014-0.085-0.012-0.085-0.011-0.087-9e-3 -0.086-9e-3 -0.085-7e-3 -0.086-6e-3 -0.088-4e-3 -0.088-3e-3 -0.087-2e-3 -0.086-1e-3 -0.081v-0.023l2e-3 -0.144 7e-3 -0.158 0.011-0.156 0.015-0.157 0.02-0.154 0.024-0.154 0.029-0.154 0.033-0.153 0.036-0.151 0.041-0.148 0.045-0.148 0.05-0.148 0.053-0.145 0.057-0.143 0.061-0.143 0.065-0.14 0.069-0.138 0.072-0.136 0.076-0.134 0.081-0.133 0.084-0.13 0.087-0.127 0.092-0.126 0.095-0.123 0.098-0.12 0.102-0.118 0.105-0.116 5e-3 -4e-3 -0.083-0.018-0.146-0.036-0.146-0.041-0.143-0.045-0.141-0.049-0.139-0.053-0.138-0.058-0.134-0.061-0.133-0.065-0.13-0.068-0.127-0.072-0.126-0.075-0.122-0.078-0.12-0.082-0.118-0.084-0.115-0.088-0.112-0.09-0.11-0.093-0.108-0.096-0.104-0.098-0.102-0.101-0.099-0.102-0.097-0.106-0.094-0.107-0.092-0.11-0.089-0.112-0.087-0.113-0.083-0.116-0.082-0.118-0.078-0.12-0.077-0.121-0.073-0.123-0.071-0.126-0.068-0.126-0.066-0.128-0.063-0.13-0.061-0.132-0.058-0.133-0.055-0.134-0.052-0.136-0.05-0.138-0.048-0.139-0.044-0.14-0.042-0.141-0.039-0.143-0.037-0.144-0.033-0.145-0.031-0.146-0.028-0.147-0.025-0.149-0.022-0.149-0.02-0.15-0.016-0.152-0.014-0.152-0.01-0.153-8e-3 -0.154-5e-3 -0.156-1e-3 -0.155 1e-3 -0.155 5e-3 -0.156 8e-3 -0.154 0.01-0.153 0.014-0.152 0.016-0.152 0.02-0.15 0.022-0.148 0.025-0.15 0.028-0.147 0.031-0.146 0.033-0.145 0.037-0.144 0.039-0.143 0.042-0.141 0.044-0.14 0.048-0.139 0.05-0.138 0.052-0.136 0.055-0.134 0.058-0.133 0.061-0.132 0.063-0.13 0.066-0.128 0.068-0.126 0.071-0.126 0.073-0.123 0.077-0.121 0.078-0.12 0.082-0.118 0.083-0.116 0.087-0.113 0.089-0.112 0.092-0.11 0.094-0.107 0.097-0.106 0.099-0.102 0.102-0.101 0.104-0.098 0.108-0.096 0.11-0.093 0.112-0.09 0.115-0.088 0.117-0.084 0.121-0.082 0.122-0.078 0.126-0.075 0.127-0.072 0.13-0.068 0.133-0.065 0.134-0.061 0.138-0.058 0.139-0.053 0.141-0.049 0.143-0.045 0.146-0.041 0.146-0.036 0.149-0.032 0.151-0.027 0.151-0.022 0.153-0.018 0.154-0.012 0.155-8e-3 0.155-2e-3 0.155 2e-3 0.155 8e-3 0.154 0.012 0.153 0.018 0.038 5e-3 -6e-3 -0.028-0.028-0.147-0.025-0.149-0.022-0.149-0.02-0.15-0.016-0.152-0.014-0.152-0.01-0.154-8e-3 -0.154-5e-3 -0.155-1e-3 -0.155 1e-3 -0.155 5e-3 -0.155 8e-3 -0.154 0.01-0.154 0.014-0.152 0.016-0.152 0.02-0.15 0.022-0.149 0.025-0.149 0.028-0.147 0.031-0.146 0.034-0.146 0.036-0.144 0.039-0.142 0.042-0.141 0.044-0.14 0.048-0.14 0.05-0.137 0.052-0.135 0.055-0.135 0.058-0.133 0.061-0.132 0.063-0.13 0.066-0.128 0.068-0.127 0.071-0.125 0.073-0.123 0.077-0.121 0.078-0.12 0.081-0.117 0.084-0.117 0.087-0.114 0.089-0.111 0.092-0.11 0.094-0.108 0.096-0.104 0.1-0.103 0.102-0.102 0.105-0.098 0.107-0.095 0.11-0.093 0.112-0.09 0.115-0.088 0.118-0.084 0.12-0.082 0.123-0.078 0.124-0.075 0.128-0.072 0.13-0.068 0.132-0.065 0.135-0.061 0.137-0.058 0.14-0.053 0.141-0.049 0.144-0.045 0.144-0.041 0.148-0.036 0.148-0.032 0.15-0.027 0.152-0.022 0.153-0.018 0.154-0.012 0.155-8e-3 0.155-2e-3 0.155 2e-3zm4.275 13.999-0.069 2e-3 -0.069 4e-3 -0.068 4e-3 -0.068 7e-3 -0.067 7e-3 -0.134 0.02-0.066 0.012-0.066 0.013-0.065 0.014-0.065 0.016-0.064 0.016-0.128 0.038-0.062 0.021-0.063 0.022-0.062 0.023-0.061 0.024-0.122 0.052-0.059 0.028-0.059 0.029-0.059 0.031-0.057 0.031-0.058 0.033-0.056 0.033-0.056 0.035-0.055 0.036-0.055 0.037-0.053 0.038-0.053 0.039-0.052 0.04-0.051 0.041-0.051 0.042-0.05 0.044-0.048 0.043-0.048 0.046-0.047 0.046-0.046 0.046-0.09 0.098-0.043 0.049-0.042 0.051-0.042 0.052-0.04 0.051-0.039 0.054-0.038 0.054-0.038 0.055-0.036 0.056-0.034 0.056-0.034 0.057-0.033 0.058-0.032 0.059-0.031 0.06-0.029 0.06-0.028 0.061-0.028 0.063-0.026 0.062-0.024 0.063-0.023 0.064-0.023 0.066-0.021 0.066-0.023 0.076-0.638 2.233-0.024 0.083-0.03 0.094-0.031 0.092-0.033 0.09-0.034 0.091-0.037 0.091-0.038 0.087-0.039 0.088-0.042 0.088-0.042 0.085-0.045 0.086-0.046 0.084-0.049 0.085-0.049 0.082-0.05 0.081-0.053 0.081-0.054 0.079-0.055 0.078-0.058 0.078-0.058 0.076-0.061 0.076-0.061 0.074-0.062 0.072-0.064 0.072-0.067 0.071-0.068 0.069-0.068 0.068-0.07 0.067-0.071 0.066-0.072 0.063-0.075 0.063-0.068 0.056-2.912 2.329-0.045 0.038-0.033 0.029-0.033 0.03-0.062 0.062-0.029 0.032-0.029 0.033-0.028 0.035-0.026 0.034-0.025 0.035-0.026 0.036-0.023 0.037-0.022 0.036-0.022 0.038-0.04 0.078-0.018 0.039-0.017 0.04-0.016 0.04-0.015 0.041-0.014 0.041-0.012 0.041-0.012 0.043-0.01 0.043-0.01 0.042-7e-3 0.042-7e-3 0.044-6e-3 0.044-4e-3 0.043-3e-3 0.045-2e-3 0.043-1e-3 0.052v0.022l1e-3 0.029 1e-3 0.028 1e-3 0.026 2e-3 0.027 2e-3 0.028 6e-3 0.056 3e-3 0.025 5e-3 0.028 4e-3 0.027 4e-3 0.026 5e-3 0.028 6e-3 0.025 0.018 0.081 7e-3 0.026 8e-3 0.026 7e-3 0.026 8e-3 0.025 9e-3 0.027 9e-3 0.025 8e-3 0.025 0.011 0.027 9e-3 0.024 0.01 0.024 0.011 0.026 0.011 0.025 0.012 0.024 0.011 0.024 0.024 0.048 0.013 0.024 0.014 0.024 0.013 0.023 0.014 0.023 0.014 0.024 0.015 0.022 0.014 0.023 0.015 0.022 0.016 0.023 0.016 0.022 0.016 0.021 0.017 0.022 0.016 0.021 0.017 0.021 0.036 0.042 0.036 0.04 0.018 0.019 0.019 0.02 0.02 0.02 0.019 0.018 0.02 0.019 0.021 0.019 0.019 0.018 0.022 0.018 0.021 0.018 0.021 0.017 0.044 0.034 0.022 0.016 0.023 0.016 0.023 0.017 0.069 0.045 0.023 0.014 0.048 0.028 0.024 0.013 0.024 0.012 0.025 0.013 0.024 0.012 0.024 0.011 0.025 0.012 0.026 0.011 0.024 0.011 0.025 0.01 0.025 9e-3 0.026 0.01 0.026 9e-3 0.025 9e-3 0.026 8e-3 0.025 8e-3 0.026 8e-3 0.027 7e-3 0.026 7e-3 0.052 0.012 0.027 6e-3 0.026 5e-3 0.027 5e-3 0.027 4e-3 0.026 4e-3 0.027 4e-3 0.081 9e-3 0.026 2e-3 0.027 2e-3 0.028 1e-3 0.026 1e-3 0.028 1e-3h0.027l0.027-1e-3h0.027l0.027-1e-3 0.027-2e-3 0.027-1e-3 0.027-3e-3 0.027-2e-3 0.027-3e-3 0.108-0.016 0.027-5e-3 0.027-6e-3 0.026-6e-3 0.027-6e-3 0.054-0.014 0.026-7e-3 0.027-8e-3 0.034-0.011 4.33-1.393 0.12-0.038 0.13-0.038 0.131-0.035 0.132-0.032 0.131-0.03 0.132-0.028 0.133-0.025 0.132-0.022 0.134-0.02 0.133-0.017 0.134-0.015 0.134-0.012 0.134-9e-3 0.134-7e-3 0.134-4e-3 0.134-2e-3 0.134 1e-3 0.135 3e-3 0.134 6e-3 0.134 9e-3 0.134 0.011 0.134 0.014 0.133 0.016 0.133 0.019 0.133 0.021 0.133 0.024 0.132 0.027 0.132 0.029 0.132 0.032 0.131 0.034 0.13 0.037 0.121 0.037 4.585 1.442 0.034 0.011 0.027 8e-3 0.054 0.014 0.026 6e-3 0.054 0.012 0.081 0.015 0.054 8e-3 0.054 6e-3 0.028 2e-3 0.054 4e-3 0.081 3e-3h0.028l0.027-1e-3h0.027l0.027-2e-3 0.027-1e-3 0.054-4e-3 0.081-9e-3 0.054-8e-3 0.026-5e-3 0.027-5e-3 0.026-5e-3 0.027-6e-3 0.026-6e-3 0.027-7e-3 0.052-0.014 0.078-0.024 0.025-9e-3 0.026-0.01 0.026-9e-3 0.05-0.02 0.05-0.022 0.024-0.011 0.074-0.037 0.024-0.013 0.024-0.014 0.024-0.013 0.024-0.014 0.023-0.015 0.023-0.014 0.023-0.016 0.023-0.015 0.023-0.016 0.023-0.017 0.022-0.016 0.022-0.017 0.022-0.018 0.021-0.017 0.021-0.018 0.021-0.017 0.02-0.019 0.021-0.019 0.04-0.038 0.019-0.019 0.019-0.02 0.018-0.02 0.018-0.019 0.019-0.022 0.018-0.021 0.017-0.02 0.017-0.021 0.017-0.022 0.032-0.042 0.032-0.046 0.014-0.021 0.015-0.023 0.015-0.024 0.014-0.023 0.014-0.022 0.013-0.024 0.014-0.024 0.012-0.024 0.013-0.024 0.012-0.024 0.011-0.024 0.012-0.026 0.011-0.025 0.01-0.023 0.011-0.026 0.01-0.025 9e-3 -0.026 0.01-0.026 8e-3 -0.025 9e-3 -0.025 8e-3 -0.026 8e-3 -0.027 0.014-0.052 6e-3 -0.027 7e-3 -0.026 5e-3 -0.027 6e-3 -0.026 5e-3 -0.026 4e-3 -0.028 5e-3 -0.028 3e-3 -0.027 4e-3 -0.027 6e-3 -0.054 4e-3 -0.056 1e-3 -0.026 1e-3 -0.029 1e-3 -0.028v-0.021l-1e-3 -0.053-2e-3 -0.046-3e-3 -0.045-4e-3 -0.045-6e-3 -0.045-7e-3 -0.045-8e-3 -0.043-0.02-0.088-0.012-0.043-0.013-0.043-0.014-0.041-0.016-0.042-0.016-0.043-0.018-0.04-0.019-0.041-0.019-0.04-0.021-0.038-0.022-0.04-0.024-0.038-0.024-0.037-0.025-0.037-0.026-0.037-0.027-0.034-0.029-0.035-0.029-0.034-0.031-0.034-0.031-0.032-0.032-0.031-0.033-0.031-0.035-0.03-0.046-0.038-2.896-2.317-0.068-0.056-0.074-0.062-0.073-0.064-0.071-0.066-0.07-0.067-0.069-0.068-0.067-0.069-0.066-0.071-0.064-0.071-0.064-0.074-0.061-0.074-0.059-0.074-0.059-0.077-0.058-0.078-0.055-0.078-0.054-0.08-0.052-0.079-0.051-0.082-0.05-0.083-0.047-0.083-0.047-0.085-0.044-0.086-0.043-0.085-0.042-0.088-0.039-0.088-0.038-0.089-0.037-0.089-0.034-0.09-0.033-0.091-0.032-0.094-0.028-0.091-0.025-0.083-0.639-2.234-0.022-0.077-0.021-0.065-0.022-0.065-0.024-0.064-0.025-0.064-0.026-0.063-0.026-0.061-0.029-0.062-0.06-0.12-0.032-0.059-0.032-0.057-0.034-0.058-0.036-0.057-0.035-0.055-0.038-0.055-0.038-0.054-0.039-0.053-0.041-0.053-0.041-0.051-0.042-0.051-0.044-0.05-0.044-0.049-0.045-0.047-0.046-0.047-0.047-0.047-0.047-0.044-0.049-0.044-0.05-0.044-0.051-0.042-0.051-0.041-0.052-0.04-0.053-0.039-0.053-0.038-0.055-0.037-0.055-0.036-0.056-0.035-0.056-0.033-0.057-0.033-0.058-0.031-0.059-0.031-0.059-0.029-0.059-0.028-0.122-0.052-0.061-0.024-0.062-0.023-0.063-0.022-0.062-0.021-0.128-0.038-0.064-0.016-0.065-0.016-0.065-0.014-0.066-0.013-0.066-0.012-0.067-0.011-0.067-9e-3 -0.067-7e-3 -0.068-7e-3 -0.068-4e-3 -0.069-4e-3 -0.069-2e-3 -0.07-1e-3 -0.07 1e-3zm10.545-2-0.025 1e-3 -0.024 2e-3 -0.025 3e-3 -0.024 3e-3 -0.048 0.01-0.025 6e-3 -0.024 7e-3 -0.025 8e-3 -0.026 9e-3 -0.052 0.02-0.028 0.013-0.027 0.013-0.028 0.015-0.028 0.016-0.029 0.017-0.03 0.019-0.029 0.02-0.03 0.022-0.031 0.023-0.031 0.025-0.031 0.026-0.031 0.027-0.031 0.03-0.031 0.031-0.032 0.033-0.032 0.034-0.031 0.036-0.031 0.037-0.031 0.039-0.032 0.041-0.03 0.043-0.031 0.044-0.029 0.045-0.03 0.047-0.028 0.048-0.029 0.05-0.027 0.051-0.028 0.053-0.026 0.055-0.025 0.055-0.025 0.057-0.024 0.058-0.023 0.059-0.022 0.06-0.021 0.062-0.02 0.064-0.019 0.064-0.018 0.065-0.016 0.066-0.016 0.067-0.015 0.069-0.013 0.069-0.012 0.07-0.01 0.071-0.01 0.073-8e-3 0.073-6e-3 0.073-5e-3 0.075-4e-3 0.075-2e-3 0.075-1e-3 0.077 1e-3 0.077 2e-3 0.075 4e-3 0.075 5e-3 0.075 6e-3 0.073 8e-3 0.073 0.01 0.073 0.01 0.071 0.012 0.07 0.013 0.069 0.015 0.069 0.016 0.067 0.016 0.066 0.018 0.065 0.019 0.064 0.02 0.064 0.021 0.062 0.022 0.06 0.023 0.059 0.024 0.058 0.025 0.057 0.025 0.055 0.026 0.055 0.028 0.053 0.027 0.051 0.029 0.05 0.028 0.048 0.03 0.047 0.029 0.045 0.031 0.044 0.03 0.043 0.032 0.041 0.031 0.039 0.031 0.037 0.031 0.036 0.032 0.034 0.032 0.033 0.031 0.031 0.031 0.03 0.031 0.027 0.031 0.026 0.031 0.025 0.031 0.023 0.03 0.022 0.029 0.02 0.03 0.019 0.029 0.017 0.028 0.016 0.028 0.015 0.027 0.013 0.027 0.012 0.027 0.011 0.026 0.01 0.026 9e-3 0.025 8e-3 0.024 7e-3 0.025 6e-3 0.048 0.01 0.025 3e-3 0.024 3e-3 0.024 2e-3 0.05 2e-3 0.05-2e-3 0.024-2e-3 0.048-6e-3 0.025-5e-3 0.024-5e-3 0.025-6e-3 0.025-7e-3 0.025-8e-3 0.025-9e-3 0.026-0.01 0.027-0.011 0.026-0.012 0.028-0.013 0.028-0.015 0.028-0.016 0.029-0.017 0.03-0.019 0.029-0.02 0.03-0.022 0.03-0.023 0.031-0.025 0.031-0.026 0.032-0.028 0.032-0.03 0.031-0.03 0.031-0.032 0.032-0.035 0.031-0.036 0.031-0.037 0.032-0.04 0.031-0.04 0.03-0.042 0.03-0.044 0.03-0.046 0.03-0.047 0.028-0.048 0.029-0.05 0.028-0.052 0.027-0.052 0.052-0.11 0.048-0.114 0.023-0.06 0.022-0.061 0.021-0.061 0.02-0.063 0.019-0.064 0.018-0.066 0.017-0.066 0.015-0.067 0.015-0.068 0.013-0.07 0.012-0.07 0.01-0.071 0.01-0.073 8e-3 -0.073 6e-3 -0.073 5e-3 -0.074 4e-3 -0.075 2e-3 -0.076 1e-3 -0.077-1e-3 -0.077-2e-3 -0.076-4e-3 -0.075-5e-3 -0.074-6e-3 -0.073-8e-3 -0.073-0.01-0.073-0.01-0.071-0.012-0.07-0.013-0.07-0.015-0.068-0.015-0.067-0.017-0.066-0.018-0.066-0.019-0.064-0.02-0.063-0.021-0.061-0.022-0.061-0.023-0.06-0.024-0.057-0.025-0.057-0.025-0.055-0.026-0.055-0.027-0.052-0.028-0.052-0.029-0.05-0.028-0.048-0.03-0.047-0.03-0.046-0.03-0.044-0.03-0.042-0.031-0.04-0.032-0.04-0.031-0.037-0.031-0.036-0.032-0.035-0.031-0.032-0.031-0.03-0.032-0.03-0.032-0.028-0.031-0.026-0.03-0.025-0.031-0.023-0.03-0.022-0.029-0.02-0.03-0.019-0.029-0.017-0.028-0.016-0.028-0.015-0.028-0.013-0.027-0.013-0.052-0.02-0.025-9e-3 -0.025-8e-3 -0.025-7e-3 -0.025-6e-3 -0.024-5e-3 -0.025-5e-3 -0.023-3e-3 -0.025-3e-3 -0.024-2e-3 -0.05-2e-3 -0.025 1e-3zm-21 0-0.025 1e-3 -0.024 2e-3 -0.025 3e-3 -0.024 3e-3 -0.048 0.01-0.025 6e-3 -0.024 7e-3 -0.025 8e-3 -0.026 9e-3 -0.052 0.02-0.028 0.013-0.027 0.013-0.028 0.015-0.028 0.016-0.029 0.017-0.03 0.019-0.029 0.02-0.03 0.022-0.031 0.023-0.031 0.025-0.031 0.026-0.031 0.027-0.031 0.03-0.031 0.031-0.032 0.033-0.032 0.034-0.031 0.036-0.031 0.037-0.031 0.039-0.032 0.041-0.03 0.043-0.031 0.044-0.029 0.045-0.03 0.047-0.028 0.048-0.029 0.05-0.027 0.051-0.028 0.053-0.026 0.055-0.025 0.055-0.025 0.057-0.024 0.058-0.023 0.059-0.022 0.06-0.021 0.062-0.02 0.064-0.019 0.064-0.018 0.065-0.016 0.066-0.016 0.067-0.015 0.069-0.013 0.069-0.012 0.07-0.01 0.071-0.01 0.073-8e-3 0.073-6e-3 0.073-5e-3 0.075-4e-3 0.075-2e-3 0.075-1e-3 0.077 1e-3 0.077 2e-3 0.075 4e-3 0.075 5e-3 0.075 6e-3 0.073 8e-3 0.073 0.01 0.073 0.01 0.071 0.012 0.07 0.013 0.069 0.015 0.069 0.016 0.067 0.016 0.066 0.018 0.065 0.019 0.064 0.02 0.064 0.021 0.062 0.022 0.06 0.023 0.059 0.024 0.058 0.025 0.057 0.025 0.055 0.026 0.055 0.028 0.053 0.027 0.051 0.029 0.05 0.028 0.048 0.03 0.047 0.029 0.045 0.031 0.044 0.03 0.043 0.032 0.041 0.031 0.039 0.031 0.037 0.031 0.036 0.032 0.034 0.032 0.033 0.031 0.031 0.031 0.03 0.031 0.027 0.031 0.026 0.031 0.025 0.031 0.023 0.03 0.022 0.029 0.02 0.03 0.019 0.029 0.017 0.028 0.016 0.028 0.015 0.027 0.013 0.027 0.012 0.027 0.011 0.026 0.01 0.026 9e-3 0.025 8e-3 0.024 7e-3 0.025 6e-3 0.048 0.01 0.025 3e-3 0.024 3e-3 0.024 2e-3 0.05 2e-3 0.05-2e-3 0.024-2e-3 0.048-6e-3 0.025-5e-3 0.024-5e-3 0.025-6e-3 0.025-7e-3 0.025-8e-3 0.025-9e-3 0.026-0.01 0.027-0.011 0.026-0.012 0.028-0.013 0.028-0.015 0.028-0.016 0.029-0.017 0.03-0.019 0.029-0.02 0.03-0.022 0.03-0.023 0.031-0.025 0.031-0.026 0.032-0.028 0.032-0.03 0.031-0.03 0.031-0.032 0.032-0.035 0.031-0.036 0.031-0.037 0.032-0.04 0.031-0.04 0.03-0.042 0.03-0.044 0.03-0.046 0.03-0.047 0.028-0.048 0.029-0.05 0.028-0.052 0.027-0.052 0.052-0.11 0.048-0.114 0.023-0.06 0.022-0.061 0.021-0.061 0.02-0.063 0.019-0.064 0.018-0.066 0.017-0.066 0.015-0.067 0.015-0.068 0.013-0.07 0.012-0.07 0.01-0.071 0.01-0.073 8e-3 -0.073 6e-3 -0.073 5e-3 -0.074 4e-3 -0.075 2e-3 -0.076 1e-3 -0.077-1e-3 -0.077-2e-3 -0.076-4e-3 -0.075-5e-3 -0.074-6e-3 -0.073-8e-3 -0.073-0.01-0.073-0.01-0.071-0.012-0.07-0.013-0.07-0.015-0.068-0.015-0.067-0.017-0.066-0.018-0.066-0.019-0.064-0.02-0.063-0.021-0.061-0.022-0.061-0.023-0.06-0.024-0.057-0.025-0.057-0.025-0.055-0.026-0.055-0.027-0.052-0.028-0.052-0.029-0.05-0.028-0.048-0.03-0.047-0.03-0.046-0.03-0.044-0.03-0.042-0.031-0.04-0.032-0.04-0.031-0.037-0.031-0.036-0.032-0.035-0.031-0.032-0.031-0.03-0.032-0.03-0.032-0.028-0.031-0.026-0.03-0.025-0.031-0.023-0.03-0.022-0.029-0.02-0.03-0.019-0.029-0.017-0.028-0.016-0.028-0.015-0.028-0.013-0.027-0.013-0.052-0.02-0.025-9e-3 -0.025-8e-3 -0.025-7e-3 -0.025-6e-3 -0.024-5e-3 -0.025-5e-3 -0.023-3e-3 -0.025-3e-3 -0.024-2e-3 -0.05-2e-3 -0.025 1e-3zm15-8-0.025 1e-3 -0.024 2e-3 -0.024 3e-3 -0.025 3e-3 -0.048 0.01-0.024 6e-3 -0.026 7e-3 -0.05 0.016-0.026 0.011-0.027 0.011-0.026 0.012-0.028 0.013-0.028 0.015-0.028 0.016-0.029 0.017-0.03 0.019-0.029 0.02-0.03 0.022-0.031 0.023-0.03 0.025-0.031 0.026-0.031 0.027-0.032 0.03-0.032 0.032-0.031 0.032-0.031 0.034-0.032 0.036-0.032 0.038-0.031 0.039-0.031 0.04-0.03 0.042-0.03 0.044-0.03 0.046-0.03 0.047-0.028 0.048-0.029 0.05-0.028 0.052-0.027 0.052-0.026 0.054-0.025 0.055-0.025 0.058-0.024 0.058-0.023 0.059-0.022 0.061-0.021 0.062-0.02 0.062-0.019 0.064-0.018 0.066-0.017 0.066-0.015 0.067-0.015 0.068-0.013 0.07-0.012 0.07-0.01 0.071-0.01 0.073-7e-3 0.072-7e-3 0.073-5e-3 0.076-4e-3 0.075-2e-3 0.075-1e-3 0.077 1e-3 0.077 2e-3 0.075 4e-3 0.075 5e-3 0.076 7e-3 0.073 7e-3 0.072 0.01 0.073 0.01 0.071 0.012 0.07 0.013 0.07 0.015 0.068 0.015 0.067 0.017 0.066 0.018 0.066 0.019 0.064 0.02 0.062 0.021 0.062 0.022 0.061 0.023 0.059 0.024 0.058 0.025 0.058 0.025 0.055 0.026 0.054 0.027 0.052 0.028 0.052 0.028 0.05 0.029 0.048 0.03 0.047 0.03 0.046 0.03 0.044 0.03 0.042 0.031 0.04 0.031 0.039 0.032 0.038 0.032 0.036 0.031 0.034 0.031 0.032 0.032 0.032 0.032 0.03 0.031 0.027 0.031 0.026 0.03 0.025 0.031 0.023 0.03 0.022 0.029 0.02 0.03 0.019 0.029 0.017 0.028 0.016 0.028 0.015 0.028 0.013 0.026 0.012 0.027 0.011 0.026 0.01 0.026 9e-3 0.025 8e-3 0.024 7e-3 0.025 6e-3 0.024 5e-3 0.025 5e-3 0.023 3e-3 0.025 3e-3 0.024 2e-3 0.05 2e-3 0.05-2e-3 0.024-2e-3 0.048-6e-3 0.025-5e-3 0.024-5e-3 0.025-6e-3 0.025-7e-3 0.024-8e-3 0.052-0.018 0.026-0.011 0.028-0.013 0.027-0.013 0.028-0.015 0.028-0.016 0.029-0.017 0.03-0.019 0.03-0.02 0.029-0.022 0.031-0.023 0.03-0.025 0.031-0.026 0.031-0.027 0.032-0.03 0.031-0.031 0.032-0.033 0.032-0.034 0.031-0.036 0.032-0.038 0.03-0.038 0.031-0.041 0.031-0.043 0.031-0.044 0.029-0.045 0.03-0.047 0.029-0.048 0.028-0.05 0.028-0.052 0.026-0.051 0.027-0.055 0.025-0.056 0.025-0.057 0.024-0.058 0.023-0.059 0.022-0.06 0.021-0.062 0.02-0.064 0.019-0.064 0.018-0.065 0.016-0.066 0.016-0.068 0.015-0.068 0.013-0.069 0.012-0.07 0.01-0.071 0.01-0.072 7e-3 -0.073 7e-3 -0.074 5e-3 -0.075 4e-3 -0.075 2e-3 -0.075 1e-3 -0.077-1e-3 -0.077-2e-3 -0.075-4e-3 -0.075-5e-3 -0.075-7e-3 -0.074-7e-3 -0.073-0.01-0.072-0.01-0.071-0.012-0.07-0.013-0.069-0.015-0.068-0.016-0.068-0.016-0.066-0.018-0.065-0.019-0.064-0.02-0.064-0.021-0.062-0.022-0.06-0.023-0.059-0.024-0.058-0.025-0.057-0.025-0.056-0.053-0.106-0.028-0.052-0.029-0.05-0.028-0.048-0.03-0.047-0.029-0.045-0.031-0.044-0.031-0.043-0.031-0.041-0.03-0.038-0.032-0.038-0.031-0.036-0.032-0.034-0.032-0.033-0.031-0.031-0.032-0.03-0.031-0.027-0.031-0.026-0.03-0.025-0.031-0.023-0.029-0.022-0.03-0.02-0.03-0.019-0.029-0.017-0.028-0.016-0.028-0.015-0.027-0.013-0.054-0.024-0.026-0.01-0.05-0.016-0.026-7e-3 -0.024-6e-3 -0.048-0.01-0.025-3e-3 -0.024-3e-3 -0.024-2e-3 -0.05-2e-3 -0.025 1e-3zm-9 0-0.025 1e-3 -0.024 2e-3 -0.048 6e-3 -0.025 5e-3 -0.024 5e-3 -0.024 6e-3 -0.026 7e-3 -0.025 8e-3 -0.025 9e-3 -0.026 9e-3 -0.027 0.012-0.026 0.012-0.028 0.013-0.028 0.015-0.028 0.016-0.029 0.017-0.03 0.019-0.029 0.02-0.03 0.022-0.031 0.023-0.03 0.025-0.031 0.026-0.032 0.028-0.032 0.03-0.031 0.03-0.031 0.032-0.032 0.035-0.031 0.036-0.031 0.037-0.032 0.04-0.031 0.04-0.03 0.042-0.03 0.044-0.03 0.046-0.03 0.047-0.028 0.048-0.029 0.05-0.028 0.052-0.027 0.052-0.052 0.11-0.048 0.114-0.023 0.06-0.022 0.061-0.021 0.061-0.02 0.063-0.019 0.064-0.018 0.066-0.017 0.066-0.015 0.067-0.015 0.068-0.013 0.07-0.012 0.07-0.01 0.071-0.01 0.073-8e-3 0.073-6e-3 0.073-5e-3 0.074-4e-3 0.075-2e-3 0.076-1e-3 0.077 1e-3 0.077 2e-3 0.076 4e-3 0.075 5e-3 0.074 6e-3 0.073 8e-3 0.073 0.01 0.073 0.01 0.071 0.012 0.07 0.013 0.07 0.015 0.068 0.015 0.067 0.017 0.066 0.018 0.066 0.019 0.064 0.02 0.063 0.021 0.061 0.022 0.061 0.023 0.06 0.024 0.057 0.025 0.057 0.025 0.055 0.026 0.055 0.027 0.052 0.028 0.052 0.029 0.05 0.028 0.048 0.03 0.047 0.03 0.046 0.03 0.044 0.03 0.042 0.031 0.04 0.032 0.04 0.031 0.037 0.031 0.036 0.032 0.035 0.031 0.032 0.031 0.03 0.032 0.03 0.032 0.028 0.031 0.026 0.03 0.025 0.031 0.023 0.03 0.022 0.029 0.02 0.03 0.019 0.029 0.017 0.028 0.016 0.028 0.015 0.028 0.013 0.027 0.013 0.026 0.011 0.025 9e-3 0.026 9e-3 0.026 8e-3 0.024 7e-3 0.025 6e-3 0.024 5e-3 0.025 5e-3 0.023 3e-3 0.025 3e-3 0.024 2e-3 0.05 2e-3 0.05-2e-3 0.024-2e-3 0.025-3e-3 0.023-3e-3 0.025-5e-3 0.024-5e-3 0.025-6e-3 0.024-7e-3 0.025-8e-3 0.052-0.018 0.026-0.011 0.028-0.013 0.027-0.013 0.028-0.015 0.028-0.016 0.029-0.017 0.03-0.019 0.029-0.02 0.03-0.022 0.031-0.023 0.031-0.025 0.031-0.026 0.031-0.027 0.031-0.03 0.031-0.031 0.032-0.033 0.032-0.034 0.031-0.036 0.031-0.037 0.031-0.039 0.032-0.041 0.03-0.043 0.031-0.044 0.029-0.045 0.03-0.047 0.029-0.048 0.028-0.05 0.027-0.051 0.028-0.053 0.026-0.055 0.025-0.055 0.025-0.057 0.024-0.058 0.023-0.059 0.022-0.06 0.021-0.062 0.02-0.064 0.019-0.064 0.018-0.065 0.016-0.066 0.016-0.067 0.015-0.069 0.013-0.069 0.012-0.07 0.01-0.071 0.01-0.073 8e-3 -0.073 6e-3 -0.073 5e-3 -0.075 4e-3 -0.075 2e-3 -0.075 1e-3 -0.077-1e-3 -0.077-2e-3 -0.075-4e-3 -0.075-5e-3 -0.075-6e-3 -0.073-8e-3 -0.073-0.01-0.073-0.01-0.071-0.012-0.07-0.013-0.069-0.015-0.069-0.016-0.067-0.016-0.066-0.018-0.065-0.019-0.064-0.02-0.064-0.021-0.062-0.022-0.06-0.023-0.059-0.024-0.058-0.025-0.057-0.025-0.055-0.026-0.055-0.028-0.053-0.027-0.051-0.029-0.05-0.028-0.048-0.03-0.047-0.029-0.045-0.031-0.044-0.03-0.043-0.032-0.041-0.031-0.039-0.031-0.037-0.031-0.036-0.032-0.034-0.032-0.033-0.031-0.031-0.031-0.03-0.031-0.027-0.031-0.026-0.031-0.025-0.031-0.023-0.03-0.022-0.029-0.02-0.03-0.019-0.029-0.017-0.028-0.016-0.028-0.015-0.027-0.013-0.054-0.024-0.026-9e-3 -0.025-9e-3 -0.026-8e-3 -0.025-7e-3 -0.024-6e-3 -0.048-0.01-0.025-3e-3 -0.024-3e-3 -0.024-2e-3 -0.05-2e-3 -0.025 1e-3z"/>
            <rect x="6" y="10" width="19" height="15"/>
        </g>
        <g id="emoji">
            <path d="m25.647 22.918c0.855 0.684 1.353 1.719 1.353 2.814v2e-3c0 1.23-0.586 2.387-1.578 3.115s-2.272 0.94-3.446 0.571c-1.664-0.524-3.393-1.068-4.583-1.443-0.988-0.31-2.047-0.307-3.033 0.01-1.133 0.365-2.753 0.887-4.328 1.393-1.172 0.378-2.453 0.172-3.449-0.553-0.995-0.725-1.583-1.882-1.583-3.113v-2e-3c0-1.082 0.492-2.106 1.337-2.781 0.934-0.748 2.147-1.718 2.916-2.333 0.486-0.389 0.839-0.92 1.01-1.518 0.168-0.59 0.4-1.399 0.638-2.235 0.651-2.276 2.731-3.845 5.098-3.845h2e-3c2.367 0 4.447 1.569 5.098 3.845 0.238 0.836 0.47 1.645 0.638 2.235 0.171 0.598 0.524 1.129 1.01 1.518 0.765 0.611 1.968 1.574 2.9 2.32zm0.853-11.918c1.932 0 3.5 2.016 3.5 4.5s-1.568 4.5-3.5 4.5-3.5-2.016-3.5-4.5 1.568-4.5 3.5-4.5zm-21 0c1.932 0 3.5 2.016 3.5 4.5s-1.568 4.5-3.5 4.5-3.5-2.016-3.5-4.5 1.568-4.5 3.5-4.5zm15-8c1.932 0 3.5 2.016 3.5 4.5s-1.568 4.5-3.5 4.5-3.5-2.016-3.5-4.5 1.568-4.5 3.5-4.5zm-9 0c1.932 0 3.5 2.016 3.5 4.5s-1.568 4.5-3.5 4.5-3.5-2.016-3.5-4.5 1.568-4.5 3.5-4.5z" fill="#f3effe"/>
            <clipPath id="_clip2">
                <path d="m25.647 22.918c0.855 0.684 1.353 1.719 1.353 2.814v2e-3c0 1.23-0.586 2.387-1.578 3.115s-2.272 0.94-3.446 0.571c-1.664-0.524-3.393-1.068-4.583-1.443-0.988-0.31-2.047-0.307-3.033 0.01-1.133 0.365-2.753 0.887-4.328 1.393-1.172 0.378-2.453 0.172-3.449-0.553-0.995-0.725-1.583-1.882-1.583-3.113v-2e-3c0-1.082 0.492-2.106 1.337-2.781 0.934-0.748 2.147-1.718 2.916-2.333 0.486-0.389 0.839-0.92 1.01-1.518 0.168-0.59 0.4-1.399 0.638-2.235 0.651-2.276 2.731-3.845 5.098-3.845h2e-3c2.367 0 4.447 1.569 5.098 3.845 0.238 0.836 0.47 1.645 0.638 2.235 0.171 0.598 0.524 1.129 1.01 1.518 0.765 0.611 1.968 1.574 2.9 2.32zm0.853-11.918c1.932 0 3.5 2.016 3.5 4.5s-1.568 4.5-3.5 4.5-3.5-2.016-3.5-4.5 1.568-4.5 3.5-4.5zm-21 0c1.932 0 3.5 2.016 3.5 4.5s-1.568 4.5-3.5 4.5-3.5-2.016-3.5-4.5 1.568-4.5 3.5-4.5zm15-8c1.932 0 3.5 2.016 3.5 4.5s-1.568 4.5-3.5 4.5-3.5-2.016-3.5-4.5 1.568-4.5 3.5-4.5zm-9 0c1.932 0 3.5 2.016 3.5 4.5s-1.568 4.5-3.5 4.5-3.5-2.016-3.5-4.5 1.568-4.5 3.5-4.5z"/>
            </clipPath>
            <g clip-path="url(#_clip2)">
                <path d="m0 18.072 16-7.093 16 7.093v11.526h-32v-11.526z" fill="#85889f"/>
            </g>
            <g fill="#d8cbfb">
                <path d="m15.5 24.499c0-0.552-0.447-0.999-0.999-0.999h-2e-3c-0.552 0-0.999 0.447-0.999 0.999v2e-3c0 0.552 0.447 0.999 0.999 0.999h2e-3c0.552 0 0.999-0.447 0.999-0.999v-2e-3z"/>
                <path d="m13.5 22.5h4c0.265 0 0.52-0.105 0.707-0.293 0.188-0.187 0.293-0.442 0.293-0.707v-2.5c0-0.663-0.263-1.299-0.732-1.768s-1.105-0.732-1.768-0.732h-2e-3c-1.38 0-2.498 1.118-2.498 2.498v0.502h2v-0.5c0-0.276 0.224-0.5 0.5-0.5 0.133 0 0.26 0.053 0.354 0.146 0.093 0.094 0.146 0.221 0.146 0.354v1.5h-2c-0.552 0-1 0.448-1 1v1z"/>
            </g>
        </g>
    </g>
</svg>
