<?xml version="1.0" encoding="UTF-8"?>
<!DOCTYPE svg  PUBLIC '-//W3C//DTD SVG 1.1//EN'  'http://www.w3.org/Graphics/SVG/1.1/DTD/svg11.dtd'>
<svg clip-rule="evenodd" fill-rule="evenodd" stroke-linejoin="round" stroke-miterlimit="1.4142" version="1.1" viewBox="0 0 32 32" xml:space="preserve" xmlns="http://www.w3.org/2000/svg" xmlns:serif="http://www.serif.com/">
<metadata>
<rdf:RDF xmlns:cc="http://web.resource.org/cc/" xmlns:dc="http://purl.org/dc/elements/1.1/" xmlns:rdf="http://www.w3.org/1999/02/22-rdf-syntax-ns#">

     <rdf:Description rdf:about="">
       <dc:title>Mutant Standard emoji 2023.12</dc:title>
     </rdf:Description>

    <cc:work rdf:about="">
        <cc:license rdf:resource="http://creativecommons.org/licenses/by-nc-sa/4.0/"/>
        <cc:attributionName>Caius Nocturne</cc:attributionName>
        <cc:attributionURL>http://mutant.tech/</cc:attributionURL>
    </cc:work>

</rdf:RDF>
</metadata>
<rect id="_0_char" width="32" height="32" fill="none" serif:id="0_char"/><clipPath id="_clip1"><rect width="32" height="32"/></clipPath><g clip-path="url(#_clip1)"><g id="outline"><path d="m7.528 18.761v-7.814c0-2.946 0.718-5.174 2.155-6.683 1.436-1.509 3.542-2.264 6.317-2.264 2.824 0 4.942 0.755 6.354 2.264s2.118 3.737 2.118 6.683v9.814c0 3.043-0.706 5.344-2.118 6.902s-3.53 2.337-6.354 2.337c-5.648 0-8.472-3.08-8.472-9.239v-2zm12.16-5.121c0-1.923-0.286-3.31-0.858-4.162-0.572-0.853-1.515-1.279-2.83-1.279s-2.252 0.426-2.812 1.279c-0.56 0.852-0.84 2.239-0.84 4.162v4.72c0 1.923 0.28 3.317 0.84 4.181s1.497 1.296 2.812 1.296c1.339 0 2.288-0.432 2.848-1.296 0.56-0.865 0.84-2.258 0.84-4.181v-4.72z" fill="none" stroke="#000" stroke-width="4px"/><rect x="11" y="8" width="10" height="16"/></g><g id="emoji" fill-rule="nonzero"><path d="m16 30c-5.648 0-8.472-3.08-8.472-9.239v-7.814c0-2.946 0.718-5.174 2.155-6.683 1.436-1.509 3.542-2.264 6.317-2.264 2.824 0 4.942 0.755 6.354 2.264s2.118 3.737 2.118 6.683v7.814c0 3.043-0.706 5.344-2.118 6.902s-3.53 2.337-6.354 2.337zm0-4.163c1.339 0 2.288-0.432 2.848-1.296 0.56-0.865 0.84-2.258 0.84-4.181v-6.72c0-1.923-0.286-3.31-0.858-4.162-0.572-0.853-1.515-1.279-2.83-1.279s-2.252 0.426-2.812 1.279c-0.56 0.852-0.84 2.239-0.84 4.162v6.72c0 1.923 0.28 3.316 0.84 4.181 0.56 0.864 1.497 1.296 2.812 1.296z" fill="#747474"/><path d="m16 28c-5.648 0-8.472-3.08-8.472-9.239v-7.814c0-2.946 0.718-5.174 2.155-6.683 1.436-1.509 3.542-2.264 6.317-2.264 2.824 0 4.942 0.755 6.354 2.264s2.118 3.737 2.118 6.683v7.814c0 3.043-0.706 5.344-2.118 6.902s-3.53 2.337-6.354 2.337zm0-4.163c1.339 0 2.288-0.432 2.848-1.296 0.56-0.865 0.84-2.258 0.84-4.181v-6.72c0-1.923-0.286-3.31-0.858-4.162-0.572-0.853-1.515-1.279-2.83-1.279s-2.252 0.426-2.812 1.279c-0.56 0.852-0.84 2.239-0.84 4.162v6.72c0 1.923 0.28 3.316 0.84 4.181 0.56 0.864 1.497 1.296 2.812 1.296z" fill="#fff"/></g></g></svg>
