<?xml version="1.0" encoding="UTF-8"?>
<!DOCTYPE svg  PUBLIC '-//W3C//DTD SVG 1.1//EN'  'http://www.w3.org/Graphics/SVG/1.1/DTD/svg11.dtd'>
<svg clip-rule="evenodd" fill-rule="evenodd" stroke-linejoin="round" stroke-miterlimit="1.4142" version="1.1" viewBox="0 0 32 32" xml:space="preserve" xmlns="http://www.w3.org/2000/svg" xmlns:serif="http://www.serif.com/">
<metadata>
<rdf:RDF xmlns:cc="http://web.resource.org/cc/" xmlns:dc="http://purl.org/dc/elements/1.1/" xmlns:rdf="http://www.w3.org/1999/02/22-rdf-syntax-ns#">

     <rdf:Description rdf:about="">
       <dc:title>Mutant Standard emoji 2023.12</dc:title>
     </rdf:Description>

    <cc:work rdf:about="">
        <cc:license rdf:resource="http://creativecommons.org/licenses/by-nc-sa/4.0/"/>
        <cc:attributionName>Caius Nocturne</cc:attributionName>
        <cc:attributionURL>http://mutant.tech/</cc:attributionURL>
    </cc:work>

</rdf:RDF>
</metadata>
<rect id="_2_char" width="32" height="32" fill="none" serif:id="2_char"/><clipPath id="_clip1"><rect width="32" height="32"/></clipPath><g clip-path="url(#_clip1)"><g id="outline"><path d="m24.382 11.678c0 1.31-0.259 2.497-0.779 3.56-0.519 1.063-1.322 2.139-2.41 3.227l-5.001 5.27h8.227v6.265h-16.69v-5.857l9.569-10.237c0.816-0.791 1.385-1.502 1.706-2.133 0.198-0.387 0.334-0.795 0.41-1.223-0.129-0.639-0.433-1.165-0.91-1.58-0.656-0.569-1.552-0.853-2.689-0.853-1.113 0-1.991 0.272-2.634 0.816s-0.964 1.298-0.964 2.262v0.594h-4.636v-2-0.89c0-2.102 0.741-3.777 2.225-5.026s3.511-1.873 6.083-1.873c1.731 0 3.239 0.303 4.525 0.909 1.285 0.606 2.268 1.452 2.948 2.54s1.02 2.337 1.02 3.746v2.483z" fill="none" stroke="#000" stroke-width="4px"/><rect x="11" y="8" width="10" height="5.789"/></g><g id="emoji"><path d="m24.382 9.678v2c0 1.31-0.259 2.497-0.779 3.56-0.519 1.063-1.322 2.139-2.41 3.227l-6.899 7.27h8.125l2 2.265v2h-16.69v-2l1.576-3.543 7.993-8.551c0.816-0.791 1.385-1.502 1.706-2.133 0.322-0.63 0.482-1.317 0.482-2.058v-0.408c0-0.989-0.327-1.768-0.982-2.337-0.656-0.569-1.552-0.853-2.689-0.853-1.113 0-1.991 0.272-2.634 0.816s-0.964 1.298-0.964 2.262v0.594h-4.636v-2l0.09-0.112c0.24-1.54 0.951-2.808 2.135-3.804 1.484-1.249 3.511-1.873 6.083-1.873 1.731 0 3.239 0.303 4.525 0.909 1.285 0.606 2.268 1.452 2.948 2.54 0.425 0.68 0.717 1.423 0.877 2.229h0.143z" fill="#737373"/><path d="m7.729 24.143 9.569-10.237c0.816-0.791 1.385-1.502 1.706-2.133 0.322-0.63 0.482-1.317 0.482-2.058v-0.408c0-0.989-0.327-1.768-0.982-2.337-0.656-0.569-1.552-0.853-2.689-0.853-1.113 0-1.991 0.272-2.634 0.816s-0.964 1.298-0.964 2.262v0.594h-4.636v-0.89c0-2.102 0.741-3.777 2.225-5.026s3.511-1.873 6.083-1.873c1.731 0 3.239 0.303 4.525 0.909 1.285 0.606 2.268 1.452 2.948 2.54s1.02 2.337 1.02 3.746v0.483c0 1.31-0.259 2.497-0.779 3.56-0.519 1.063-1.322 2.139-2.41 3.227l-6.899 7.27h10.125v4.265h-16.69v-3.857z" fill="#fff" fill-rule="nonzero"/></g></g></svg>
