<?xml version="1.0" encoding="UTF-8"?>
<!DOCTYPE svg  PUBLIC '-//W3C//DTD SVG 1.1//EN'  'http://www.w3.org/Graphics/SVG/1.1/DTD/svg11.dtd'>
<svg clip-rule="evenodd" fill-rule="evenodd" stroke-linejoin="round" stroke-miterlimit="1.4142" version="1.1" viewBox="0 0 32 32" xml:space="preserve" xmlns="http://www.w3.org/2000/svg" xmlns:serif="http://www.serif.com/">
<metadata>
<rdf:RDF xmlns:cc="http://web.resource.org/cc/" xmlns:dc="http://purl.org/dc/elements/1.1/" xmlns:rdf="http://www.w3.org/1999/02/22-rdf-syntax-ns#">

     <rdf:Description rdf:about="">
       <dc:title>Mutant Standard emoji 2023.12</dc:title>
     </rdf:Description>

    <cc:work rdf:about="">
        <cc:license rdf:resource="http://creativecommons.org/licenses/by-nc-sa/4.0/"/>
        <cc:attributionName>Caius Nocturne</cc:attributionName>
        <cc:attributionURL>http://mutant.tech/</cc:attributionURL>
    </cc:work>

</rdf:RDF>
</metadata>
<rect id="_3_char" width="32" height="32" fill="none" serif:id="3_char"/><clipPath id="_clip1"><rect width="32" height="32"/></clipPath><g clip-path="url(#_clip1)"><g id="outline"><path d="m7.809 9.314v-0.33c0-2.267 0.694-4.004 2.084-5.211 1.39-1.206 3.377-1.81 5.961-1.81 2.535 0 4.522 0.585 5.96 1.756 1.439 1.17 2.158 2.779 2.158 4.827l-0.023 2.502c0 1.168-0.298 2.191-0.895 3.067-0.238 0.35-0.52 0.671-0.845 0.962 0.472 0.353 0.871 0.772 1.196 1.258 0.671 0.999 1.006 2.218 1.006 3.657l-0.024 2.595c0 2.288-0.761 4.096-2.282 5.423-1.522 1.327-3.573 1.99-6.153 1.99-2.703 0-4.772-0.59-6.208-1.771-1.437-1.181-2.155-2.879-2.155-5.094v-0.402-2.01h4.462v0.292c0 0.951 0.329 1.676 0.987 2.176s1.609 0.75 2.852 0.75c1.219 0 2.158-0.299 2.816-0.896 0.491-0.445 0.798-1.022 0.923-1.731-0.116-0.802-0.447-1.418-0.993-1.849-0.694-0.548-1.747-0.822-3.159-0.822h-1.424v-4.053h9e-3v-2.022h1.389c1.244 0 2.188-0.268 2.835-0.804 0.451-0.375 0.745-0.863 0.881-1.464-0.123-0.597-0.404-1.085-0.842-1.462-0.608-0.523-1.473-0.785-2.592-0.785-1.145 0-2.021 0.256-2.63 0.767-0.608 0.511-0.913 1.242-0.913 2.191v0.329h-4.382l1e-3 -2.026z" fill="none" stroke="#000" stroke-width="4px"/><rect x="12.715" y="6.426" width="8.559" height="19.088"/></g><g id="emoji" fill-rule="nonzero"><path d="m12.19 11.34h-4.382v-0.329-0.033l1e-3 -1.664 0.162-0.078c0.28-1.417 0.919-2.56 1.919-3.428 1.387-1.205 3.372-1.808 5.952-1.808 2.532 0 4.516 0.584 5.952 1.753 1.058 0.86 1.726 1.959 2.005 3.295h0.15v2c0 1.168-0.298 2.191-0.895 3.067-0.596 0.877-1.467 1.57-2.611 2.082 1.29 0.438 2.27 1.156 2.94 2.154 0.445 0.664 0.743 1.426 0.892 2.284h0.105v1.019c5e-3 0.115 7e-3 0.231 7e-3 0.349v0.584c0 2.288-0.761 4.096-2.282 5.423-1.522 1.327-3.573 1.99-6.153 1.99-2.703 0-4.772-0.59-6.208-1.771-1.437-1.181-2.155-2.879-2.155-5.094v-0.402-2.01l2 2.01h2.455v0.292c0 0.95 0.329 1.674 0.986 2.173 0.658 0.499 1.607 0.749 2.849 0.749 1.217 0 2.154-0.299 2.811-0.895 0.658-0.596 0.986-1.43 0.986-2.501v-0.548c0-1.144-0.347-1.99-1.04-2.538-0.694-0.548-1.747-0.822-3.159-0.822h-1.424l9e-3 -2.016 0.991-2.037h0.387c1.242 0 2.185-0.268 2.83-0.803 0.646-0.536 0.968-1.303 0.968-2.301v-0.438c0-0.95-0.304-1.686-0.913-2.21-0.608-0.523-1.473-0.785-2.592-0.785-1.145 0-2.021 0.256-2.63 0.767-0.608 0.511-0.913 1.242-0.913 2.191v0.329z" fill="#737373"/><path d="m15.963 28c-2.706 0-4.778-0.591-6.216-1.774-1.439-1.182-2.158-2.882-2.158-5.101v-0.402h4.462v0.292c0 0.951 0.329 1.676 0.987 2.176s1.609 0.75 2.852 0.75c1.219 0 2.158-0.299 2.816-0.896s0.987-1.432 0.987-2.505v-0.548c0-1.146-0.347-1.993-1.042-2.542s-1.749-0.823-3.163-0.823h-1.426v-4.059h1.389c1.244 0 2.188-0.268 2.835-0.804 0.646-0.537 0.969-1.305 0.969-2.304v-0.439c0-0.951-0.305-1.688-0.915-2.212-0.609-0.525-1.475-0.787-2.596-0.787-1.146 0-2.023 0.256-2.633 0.768-0.609 0.512-0.914 1.244-0.914 2.194v0.33h-4.388v-0.33c0-2.267 0.694-4.004 2.084-5.211 1.39-1.206 3.377-1.81 5.961-1.81 2.535 0 4.522 0.585 5.96 1.756 1.439 1.17 2.158 2.779 2.158 4.827l-5e-3 0.454c0 1.17-0.294 2.215-0.891 3.093-0.597 0.877-1.469 1.572-2.615 2.084 1.292 0.439 2.274 1.158 2.944 2.158 0.671 0.999 1.006 2.218 1.006 3.657v0.585c0 2.291-0.762 4.101-2.286 5.43-1.523 1.329-3.577 1.993-6.162 1.993z" fill="#fff"/></g></g></svg>
