<?xml version="1.0" encoding="UTF-8"?>
<!DOCTYPE svg  PUBLIC '-//W3C//DTD SVG 1.1//EN'  'http://www.w3.org/Graphics/SVG/1.1/DTD/svg11.dtd'>
<svg clip-rule="evenodd" fill-rule="evenodd" stroke-linejoin="round" stroke-miterlimit="1.4142" version="1.1" viewBox="0 0 32 32" xml:space="preserve" xmlns="http://www.w3.org/2000/svg" xmlns:serif="http://www.serif.com/">
<metadata>
<rdf:RDF xmlns:cc="http://web.resource.org/cc/" xmlns:dc="http://purl.org/dc/elements/1.1/" xmlns:rdf="http://www.w3.org/1999/02/22-rdf-syntax-ns#">

     <rdf:Description rdf:about="">
       <dc:title>Mutant Standard emoji 2023.12</dc:title>
     </rdf:Description>

    <cc:work rdf:about="">
        <cc:license rdf:resource="http://creativecommons.org/licenses/by-nc-sa/4.0/"/>
        <cc:attributionName>Caius Nocturne</cc:attributionName>
        <cc:attributionURL>http://mutant.tech/</cc:attributionURL>
    </cc:work>

</rdf:RDF>
</metadata>
<rect id="_5_char" width="32" height="32" fill="none" serif:id="5_char"/><clipPath id="_clip1"><rect width="32" height="32"/></clipPath><g clip-path="url(#_clip1)"><g id="outline"><path d="m23.511 8.154h-11.164v3.972c1.236-0.915 2.744-1.373 4.525-1.373 2.349 0 4.172 0.686 5.47 2.059 1.299 1.372 1.948 3.295 1.948 5.767v1.41 8e-3 3e-3 1.989c0 2.522-0.742 4.487-2.226 5.897-1.483 1.409-3.573 2.114-6.268 2.114-2.473 0-4.438-0.581-5.897-1.743s-2.189-2.77-2.189-4.822v-2.297h4.637v0.149c0 0.766 0.315 1.391 0.945 1.873 0.631 0.482 1.478 0.723 2.541 0.723 1.212 0 2.127-0.346 2.745-1.038 0.548-0.614 0.853-1.451 0.915-2.511-0.063-1.102-0.374-1.959-0.934-2.574-0.63-0.692-1.539-1.038-2.726-1.038-0.791 0-1.483 0.167-2.077 0.501-0.593 0.333-1.038 0.785-1.335 1.353h-4.266v-16.576h15.356v6.154z" fill="none" stroke="#000" stroke-width="4px"/><rect x="10" y="16" width="11" height="10"/></g><g id="emoji" fill-rule="nonzero"><path d="m15.796 30c-2.473 0-4.438-0.581-5.897-1.743s-2.189-2.77-2.189-4.822v-2.297l4.637 2v0.149c0 0.766 0.315 1.391 0.945 1.873 0.631 0.482 1.478 0.723 2.541 0.723 1.212 0 2.127-0.346 2.745-1.038 0.618-0.693 0.927-1.67 0.927-2.931v-1.149c0-1.311-0.315-2.312-0.946-3.005-0.63-0.692-1.539-1.038-2.726-1.038-0.791 0-1.483 0.167-2.077 0.501-0.593 0.333-1.038 0.785-1.335 1.353h-4.266v-2l3-12.576h11.356l1 2.154v2h-11.164l-1.347 0.846 1.347 5.126c1.236-0.915 2.744-1.373 4.525-1.373 2.349 0 4.172 0.686 5.47 2.059 1.299 1.372 1.948 2.715 1.948 5.188v1.989c0 2.522-0.742 4.487-2.226 5.897-1.483 1.409-3.573 2.114-6.268 2.114z" fill="#737373"/><path d="m15.796 28c-2.473 0-4.438-0.581-5.897-1.743s-2.189-2.77-2.189-4.822v-0.297h4.637v0.149c0 0.766 0.315 1.391 0.945 1.873 0.631 0.482 1.478 0.723 2.541 0.723 1.212 0 2.127-0.346 2.745-1.038 0.618-0.693 0.927-1.67 0.927-2.931v-1.149c0-1.311-0.315-2.312-0.946-3.005-0.63-0.692-1.539-1.038-2.726-1.038-0.791 0-1.483 0.167-2.077 0.501-0.593 0.333-1.038 0.785-1.335 1.353h-4.266v-14.576h15.356v4.154h-11.164v5.972c1.236-0.915 2.744-1.373 4.525-1.373 2.349 0 4.172 0.686 5.47 2.059 1.299 1.372 1.948 3.295 1.948 5.767v1.41c0 2.522-0.742 4.487-2.226 5.897-1.483 1.409-3.573 2.114-6.268 2.114z" fill="#fff"/></g></g></svg>
