<?xml version="1.0" encoding="UTF-8"?>
<!DOCTYPE svg  PUBLIC '-//W3C//DTD SVG 1.1//EN'  'http://www.w3.org/Graphics/SVG/1.1/DTD/svg11.dtd'>
<svg clip-rule="evenodd" fill-rule="evenodd" stroke-linejoin="round" stroke-miterlimit="1.4142" version="1.1" viewBox="0 0 32 32" xml:space="preserve" xmlns="http://www.w3.org/2000/svg" xmlns:serif="http://www.serif.com/">
<metadata>
<rdf:RDF xmlns:cc="http://web.resource.org/cc/" xmlns:dc="http://purl.org/dc/elements/1.1/" xmlns:rdf="http://www.w3.org/1999/02/22-rdf-syntax-ns#">

     <rdf:Description rdf:about="">
       <dc:title>Mutant Standard emoji 2023.12</dc:title>
     </rdf:Description>

    <cc:work rdf:about="">
        <cc:license rdf:resource="http://creativecommons.org/licenses/by-nc-sa/4.0/"/>
        <cc:attributionName>Caius Nocturne</cc:attributionName>
        <cc:attributionURL>http://mutant.tech/</cc:attributionURL>
    </cc:work>

</rdf:RDF>
</metadata>
<rect id="_6_char" width="32" height="32" fill="none" serif:id="6_char"/><clipPath id="_clip1"><rect width="32" height="32"/></clipPath><g clip-path="url(#_clip1)"><g id="outline"><path d="m20.84 2v2l-4.677 8.07c0.396-0.062 0.83-0.093 1.302-0.093 2.225 0 4.018 0.662 5.378 1.984 1.36 1.323 2.04 3.097 2.04 5.323v2.779c0 2.472-0.804 4.413-2.411 5.823-1.607 1.409-3.771 2.114-6.491 2.114-2.794 0-4.97-0.686-6.527-2.058-1.558-1.373-2.337-3.283-2.337-5.731v-2.742c0-1.879 0.618-3.907 1.854-6.082l6.602-11.387h5.267zm-0.861 18.915c-0.116-0.82-0.46-1.476-1.03-1.968-0.717-0.618-1.706-0.927-2.968-0.927-1.261 0-2.243 0.309-2.948 0.927-0.563 0.494-0.902 1.146-1.015 1.956 0.113 0.83 0.452 1.502 1.015 2.016 0.705 0.643 1.687 0.964 2.948 0.964 1.262 0 2.251-0.321 2.968-0.964 0.57-0.512 0.914-1.18 1.03-2.004z" fill="none" stroke="#000" stroke-width="4px"/><rect x="13" y="17" width="7" height="7"/></g><g id="emoji" fill-rule="nonzero"><path d="m15.981 30c-2.794 0-4.97-0.686-6.527-2.058-1.558-1.373-2.337-3.283-2.337-5.731v-2.742c0.921-1.7 0.618-1.906 1.854-4.082l6.602-11.387 5.267-2v2l-6.083 10.496c0.693-0.346 1.595-0.519 2.708-0.519 2.225 0 4.018 0.662 5.378 1.984 1.36 1.323 0.95 1.754 2.04 3.323v2.779c0 2.472-0.804 4.413-2.411 5.823-1.607 1.409-3.771 2.114-6.491 2.114zm0-4.117c1.262 0 2.251-0.321 2.968-0.964s1.075-1.533 1.075-2.671v-0.667c0-1.138-0.358-2.016-1.075-2.634s-1.706-0.927-2.968-0.927c-1.261 0-2.243 0.309-2.948 0.927s-1.057 1.484-1.057 2.597v0.704c0 1.138 0.352 2.028 1.057 2.671s1.687 0.964 2.948 0.964z" fill="#727272"/><path d="m15.981 28c-2.794 0-4.97-0.686-6.527-2.058-1.558-1.373-2.337-3.283-2.337-5.731v-0.742c0-1.879 0.618-3.906 1.854-6.082l6.602-11.387h5.267l-6.083 10.496c0.693-0.346 1.595-0.519 2.708-0.519 2.225 0 4.018 0.662 5.378 1.984 1.36 1.323 2.04 3.097 2.04 5.323v0.779c0 2.472-0.804 4.413-2.411 5.823-1.607 1.409-3.771 2.114-6.491 2.114zm0-4.117c1.262 0 2.251-0.321 2.968-0.964s1.075-1.533 1.075-2.671v-0.667c0-1.138-0.358-2.016-1.075-2.634s-1.706-0.927-2.968-0.927c-1.261 0-2.243 0.309-2.948 0.927s-1.057 1.484-1.057 2.597v0.704c0 1.138 0.352 2.028 1.057 2.671s1.687 0.964 2.948 0.964z" fill="#fff"/></g></g></svg>
