<?xml version="1.0" encoding="UTF-8"?>
<!DOCTYPE svg  PUBLIC '-//W3C//DTD SVG 1.1//EN'  'http://www.w3.org/Graphics/SVG/1.1/DTD/svg11.dtd'>
<svg clip-rule="evenodd" fill-rule="evenodd" stroke-linejoin="round" stroke-miterlimit="1.4142" version="1.1" viewBox="0 0 32 32" xml:space="preserve" xmlns="http://www.w3.org/2000/svg">
<metadata>
<rdf:RDF xmlns:cc="http://web.resource.org/cc/" xmlns:dc="http://purl.org/dc/elements/1.1/" xmlns:rdf="http://www.w3.org/1999/02/22-rdf-syntax-ns#">

     <rdf:Description rdf:about="">
       <dc:title>Mutant Standard emoji 2023.12</dc:title>
     </rdf:Description>

    <cc:work rdf:about="">
        <cc:license rdf:resource="http://creativecommons.org/licenses/by-nc-sa/4.0/"/>
        <cc:attributionName>Caius Nocturne</cc:attributionName>
        <cc:attributionURL>http://mutant.tech/</cc:attributionURL>
    </cc:work>

</rdf:RDF>
</metadata>
<rect id="asterisk_char" width="32" height="32" fill="none"/><g id="outline"><path d="m13.65 27.251v-6.948l-6.675 3.406-1.975-3.678v-2l4.174-2.133-4.174-2.133v-2l1.975-3.678 6.675 3.337v-6.675h4.7v6.743l6.675-3.405 1.907 3.678v2l-4.163 2.127 4.231 2.139v2l-2.043 3.678-6.607-3.337v6.879h-4.7z" fill="none" stroke="#000" stroke-width="4px"/></g><g id="emoji" fill-rule="nonzero"><path d="m13.65 20.303-6.675 3.406-1.975-3.678v-2l6.13-1.133-6.13-3.133v-2l1.975-1.678 6.675 3.337 4.7 0.068 6.675-3.405 1.907 1.678v2l-6.13 3.133 6.198 1.133v2l-2.043 3.678-6.607-3.337-1.35 1.628 1.35 3.251v2h-4.7v-2l1.35-3.251-1.35-1.697z" fill="#737373"/><path d="m13.65 18.303-6.675 3.406-1.975-3.678 6.13-3.133-6.13-3.133 1.975-3.678 6.675 3.337v-6.675h4.7v6.743l6.675-3.405 1.907 3.678-6.13 3.133 6.198 3.133-2.043 3.678-6.607-3.337v6.879h-4.7v-6.948z" fill="#fff"/></g></svg>
