<?xml version="1.0" encoding="UTF-8"?>
<!DOCTYPE svg  PUBLIC '-//W3C//DTD SVG 1.1//EN'  'http://www.w3.org/Graphics/SVG/1.1/DTD/svg11.dtd'>
<svg clip-rule="evenodd" fill-rule="evenodd" stroke-linecap="square" stroke-linejoin="round" stroke-miterlimit="3" version="1.1" viewBox="0 0 32 32" xml:space="preserve" xmlns="http://www.w3.org/2000/svg">
<metadata>
<rdf:RDF xmlns:cc="http://web.resource.org/cc/" xmlns:dc="http://purl.org/dc/elements/1.1/" xmlns:rdf="http://www.w3.org/1999/02/22-rdf-syntax-ns#">

     <rdf:Description rdf:about="">
       <dc:title>Mutant Standard emoji 2023.12</dc:title>
     </rdf:Description>

    <cc:work rdf:about="">
        <cc:license rdf:resource="http://creativecommons.org/licenses/by-nc-sa/4.0/"/>
        <cc:attributionName>Caius Nocturne</cc:attributionName>
        <cc:attributionURL>http://mutant.tech/</cc:attributionURL>
    </cc:work>

</rdf:RDF>
</metadata>
<path id="graduation_cap" d="m0 0v32h32v-32h-32z" fill="none"/><g id="outline"><path d="m8 16-6-3 14-7 14 7-6 3v5c0 1.656-3.585 3-8 3-1.891 0-3.63-0.247-5-0.659v2.659h-4v-3l1-1v-6z" fill="none" stroke="#000" stroke-width="4px"/></g><g id="emoji"><path d="m8 18.236h16v2.764c0 1.656-3.585 3-8 3s-8-1.344-8-3v-2.764z" fill="#343434"/><rect x="8" y="12" width="16" height="13" fill="none"/><clipPath id="_clip1"><rect x="8" y="12" width="16" height="13"/></clipPath><g clip-path="url(#_clip1)"><path d="m2 13 14-7 14 7-14 7-14-7z" fill="none" stroke="#2c2c2c" stroke-width="4px"/></g><path d="m2 13 14-7 14 7-14 7-14-7z" fill="#4b4b4b"/><path d="m16 13-7 4v7" fill="none" stroke="#b38d00" stroke-linecap="round" stroke-width="2px"/><path d="m9 21-2 2v3h4v-3l-2-2z" fill="#b38d00"/></g></svg>
