<?xml version="1.0" encoding="UTF-8"?>
<!DOCTYPE svg  PUBLIC '-//W3C//DTD SVG 1.1//EN'  'http://www.w3.org/Graphics/SVG/1.1/DTD/svg11.dtd'>
<svg clip-rule="evenodd" fill-rule="evenodd" stroke-linejoin="round" stroke-miterlimit="1.4142" version="1.1" viewBox="0 0 32 32" xml:space="preserve" xmlns="http://www.w3.org/2000/svg">
<metadata>
<rdf:RDF xmlns:cc="http://web.resource.org/cc/" xmlns:dc="http://purl.org/dc/elements/1.1/" xmlns:rdf="http://www.w3.org/1999/02/22-rdf-syntax-ns#">

     <rdf:Description rdf:about="">
       <dc:title>Mutant Standard emoji 2023.12</dc:title>
     </rdf:Description>

    <cc:work rdf:about="">
        <cc:license rdf:resource="http://creativecommons.org/licenses/by-nc-sa/4.0/"/>
        <cc:attributionName>Caius Nocturne</cc:attributionName>
        <cc:attributionURL>http://mutant.tech/</cc:attributionURL>
    </cc:work>

</rdf:RDF>
</metadata>
<rect id="hash_char" width="32" height="32" fill="none"/><clipPath id="_clip1"><rect width="32" height="32"/></clipPath><g clip-path="url(#_clip1)"><g id="outline"><path d="m23.005 9.235h3.659v5.466h-4.371l-0.273 2.145h3.589v5.467h-4.296l-1.017 7.687h-3.919v-2l0.752-5.687h-3.955l-1.017 7.687h-3.882v-2l0.753-5.687h-3.692v-5.467h4.409l0.292-2.145h-3.646v-5.466h4.371l0.942-7.235h3.882v2l-0.682 5.235h3.96l0.942-7.235h3.881v2l-0.682 5.235zm-4.866 5.466h-3.948l-0.292 2.145h3.947l0.293-2.145z" fill="none" stroke="#000" stroke-width="4px"/><rect x="13" width="9" height="5"/><rect x="10" y="27" width="9" height="5"/></g><g id="emoji" fill-rule="nonzero"><path d="m22.293 14.701-0.528 4.145 3.844 1.467v2h-4.296l-1.017 7.687h-3.919v-2l1.017-5.687h-4.22l-1.017 7.687h-3.882v-2l1.018-5.687h-3.957v-2l4.409-1.467 0.565-4.145h-3.919v-2l4.371-1.466 0.942-7.235 3.882-2v2l-0.943 7.235h4.221l0.942-7.235 3.881-2v2l-0.942 7.235 3.919 1.466v2h-4.371zm-3.881 0h-4.221l-0.565 4.145h4.22l0.566-4.145z" fill="#727272"/><path d="m22.293 12.701-0.528 4.145h3.844v3.467h-4.296l-1.017 7.687h-3.919l1.017-7.687h-4.22l-1.017 7.687h-3.882l1.018-7.687h-3.957v-3.467h4.409l0.565-4.145h-3.919v-3.466h4.371l0.942-7.235h3.882l-0.943 7.235h4.221l0.942-7.235h3.881l-0.942 7.235h3.919v3.466h-4.371zm-3.881 0h-4.221l-0.565 4.145h4.22l0.566-4.145z" fill="#fff"/></g></g></svg>
