<?xml version="1.0" encoding="UTF-8"?>
<!DOCTYPE svg  PUBLIC '-//W3C//DTD SVG 1.1//EN'  'http://www.w3.org/Graphics/SVG/1.1/DTD/svg11.dtd'>
<svg clip-rule="evenodd" fill-rule="evenodd" stroke-linejoin="round" stroke-miterlimit="1.4142" version="1.1" viewBox="0 0 32 32" xml:space="preserve" xmlns="http://www.w3.org/2000/svg">
<metadata>
<rdf:RDF xmlns:cc="http://web.resource.org/cc/" xmlns:dc="http://purl.org/dc/elements/1.1/" xmlns:rdf="http://www.w3.org/1999/02/22-rdf-syntax-ns#">

     <rdf:Description rdf:about="">
       <dc:title>Mutant Standard emoji 2023.12</dc:title>
     </rdf:Description>

    <cc:work rdf:about="">
        <cc:license rdf:resource="http://creativecommons.org/licenses/by-nc-sa/4.0/"/>
        <cc:attributionName>Caius Nocturne</cc:attributionName>
        <cc:attributionURL>http://mutant.tech/</cc:attributionURL>
    </cc:work>

</rdf:RDF>
</metadata>
<path id="speech_bubble_left" d="m0 0v32h32v-32h-32z" fill="none"/><g id="outline"><path d="m25 22h2c1.657 0 3-1.343 3-3v-12c0-1.657-1.343-3-3-3h-22c-1.657 0-3 1.343-3 3v12c0 1.657 1.343 3 3 3h13l7 7v-7z" fill="none" stroke="#000" stroke-width="4px"/></g><g id="emoji"><path d="m25 22h2c1.657 0 3-1.343 3-3v-3h-28v3c0 1.657 1.343 3 3 3h13l7 7v-7z" fill="#747474" fill-rule="nonzero"/><path d="m25 20h2c1.657 0 3-1.343 3-3v-10c0-1.657-1.343-3-3-3h-22c-1.657 0-3 1.343-3 3v10c0 1.657 1.343 3 3 3h14l6 6v-6z" fill="#fff"/></g></svg>
