<?xml version="1.0" encoding="UTF-8"?>
<!DOCTYPE svg  PUBLIC '-//W3C//DTD SVG 1.1//EN'  'http://www.w3.org/Graphics/SVG/1.1/DTD/svg11.dtd'>
<svg clip-rule="evenodd" fill-rule="evenodd" stroke-linejoin="round" stroke-miterlimit="1.4142" version="1.1" viewBox="0 0 32 32" xml:space="preserve" xmlns="http://www.w3.org/2000/svg">
<metadata>
<rdf:RDF xmlns:cc="http://web.resource.org/cc/" xmlns:dc="http://purl.org/dc/elements/1.1/" xmlns:rdf="http://www.w3.org/1999/02/22-rdf-syntax-ns#">

     <rdf:Description rdf:about="">
       <dc:title>Mutant Standard emoji 2023.12</dc:title>
     </rdf:Description>

    <cc:work rdf:about="">
        <cc:license rdf:resource="http://creativecommons.org/licenses/by-nc-sa/4.0/"/>
        <cc:attributionName>Caius Nocturne</cc:attributionName>
        <cc:attributionURL>http://mutant.tech/</cc:attributionURL>
    </cc:work>

</rdf:RDF>
</metadata>
<rect id="artist" width="32" height="32" fill="none"/><clipPath id="_clip1"><rect width="32" height="32"/></clipPath><g clip-path="url(#_clip1)"><g id="outline"><rect x="14" y="9" width="16" height="23" fill-rule="nonzero"/><rect x="16" y="11" width="12" height="19" fill="#fff"/><clipPath id="_clip2"><rect x="16" y="11" width="12" height="19"/></clipPath><g clip-path="url(#_clip2)"><path d="m23 14c0.343 0 0.685-3e-3 1.028 1e-3 0.075 3e-3 0.15 7e-3 0.225 0.014 0.323 0.036 0.636 0.115 0.934 0.246 0.757 0.336 1.355 0.98 1.635 1.759 0.092 0.258 0.149 0.528 0.17 0.802 5e-3 0.073 8e-3 0.146 8e-3 0.22 0 0.065-1e-3 0.128 4e-3 0.193 5e-3 0.041 0.012 0.082 0.022 0.123 0.073 0.279 0.281 0.508 0.556 0.599 0.08 0.026 0.162 0.04 0.246 0.043h0.027 1.145v8.5h-3v-4.514c5e-3 -0.198 0.031-0.391 0.09-0.581 0.148-0.477 0.477-0.889 0.91-1.137v-0.398c-0.06-0.018-0.118-0.039-0.177-0.061-0.064-0.026-0.128-0.053-0.191-0.082-0.21-0.102-0.408-0.224-0.589-0.372-0.47-0.386-0.809-0.92-0.957-1.51-0.046-0.181-0.073-0.366-0.083-0.553-5e-3 -0.107 1e-3 -0.214-6e-3 -0.322-4e-3 -0.043-9e-3 -0.085-0.017-0.127-0.024-0.109-0.061-0.214-0.116-0.311-0.127-0.225-0.337-0.398-0.583-0.479-0.098-0.032-0.2-0.049-0.303-0.053h-0.032-2.946v-6h2v4z" fill="#a746ec" fill-rule="nonzero"/></g><path d="m7.043 23.279c-0.167-0.132-0.329-0.271-0.486-0.416-0.769-0.714-1.395-1.579-1.831-2.533-0.326-0.712-0.546-1.471-0.652-2.246-0.045-0.327-0.067-0.655-0.073-0.985-5e-3 -0.733-5e-3 -1.465 0-2.198 5e-3 -0.264 0.019-0.527 0.048-0.79 0.069-0.616 0.21-1.224 0.419-1.808 0.431-1.204 1.153-2.297 2.089-3.166 0.815-0.757 1.787-1.339 2.838-1.701 0.807-0.278 1.652-0.42 2.506-0.435 0.099-1e-3 0.099-1e-3 0.198 0 0.854 0.015 1.699 0.157 2.506 0.435 1.302 0.449 2.48 1.236 3.391 2.268 0.671 0.759 1.194 1.645 1.535 2.598 0.3 0.835 0.452 1.712 0.468 2.598 5e-3 0.733 5e-3 1.467 0 2.2-5e-3 0.296-0.023 0.592-0.06 0.886-5e-3 0.04-0.01 0.079-0.016 0.119 0.185-0.261 0.395-0.503 0.627-0.724 0.495-0.473 1.088-0.842 1.731-1.077 0.35-0.128 0.715-0.217 1.085-0.264 0.168-0.021 0.337-0.032 0.506-0.039l2.128-0.026v5.038c-2e-3 0.165-9e-3 0.33-0.026 0.496-0.037 0.372-0.117 0.74-0.237 1.094-0.181 0.536-0.455 1.04-0.804 1.485-0.27 0.343-0.585 0.65-0.933 0.911v7.001h-22c0-0.725-0.011-1.45 2e-3 -2.175 0.023-0.746 0.156-1.483 0.408-2.186 0.523-1.463 1.537-2.728 2.849-3.557 0.433-0.273 0.897-0.499 1.379-0.672 0.134-0.048 0.269-0.092 0.405-0.131z"/></g><g id="emoji"><path d="m19 27c0.628 0.835 1 1.874 1 3h-1l-1-1.5 1-1.5z" fill="#333"/><path d="m19 30h-15c0-2.47 1.791-4.522 4.146-4.927 0.469 1.687 7.239 1.687 7.708 0 1.282 0.22 2.396 0.929 3.146 1.927v3z" fill="#999"/><path d="m8.146 25.073c0.277-0.048 0.563-0.073 0.854-0.073h6c0.291 0 0.577 0.025 0.854 0.073-0.469 1.687-2.018 2.927-3.854 2.927s-3.385-1.24-3.854-2.927z" fill="#A77F58"/><path d="m18 15c0-1.591-0.632-3.117-1.757-4.243-1.126-1.125-2.652-1.757-4.243-1.757s-3.117 0.632-4.243 1.757c-1.125 1.126-1.757 2.652-1.757 4.243v2c0 1.591 0.632 3.117 1.757 4.243 1.126 1.125 2.652 1.757 4.243 1.757s3.117-0.632 4.243-1.757c1.125-1.126 1.757-2.652 1.757-4.243v-2z" fill="#A77F58"/><clipPath id="_clip3"><path d="m18 15c0-1.591-0.632-3.117-1.757-4.243-1.126-1.125-2.652-1.757-4.243-1.757s-3.117 0.632-4.243 1.757c-1.125 1.126-1.757 2.652-1.757 4.243v2c0 1.591 0.632 3.117 1.757 4.243 1.126 1.125 2.652 1.757 4.243 1.757s3.117-0.632 4.243-1.757c1.125-1.126 1.757-2.652 1.757-4.243v-2z"/></clipPath><g clip-path="url(#_clip3)"><path d="m16 15c0-0.552-0.448-1-1-1s-1 0.448-1 1v1c0 0.552 0.448 1 1 1s1-0.448 1-1v-1zm-6 0c0-0.552-0.448-1-1-1s-1 0.448-1 1v1c0 0.552 0.448 1 1 1s1-0.448 1-1v-1z"/></g><rect x="21" y="23" width="1" height="7" fill="#705c32"/><path d="m24 18c-1.657 0-3 1.343-3 3v3c1.657 0 3-1.343 3-3v-3z" fill="#bfaf91"/><clipPath id="_clip4"><path d="m24 18c-1.657 0-3 1.343-3 3v3c1.657 0 3-1.343 3-3v-3z"/></clipPath><g clip-path="url(#_clip4)"><rect x="19.5" y="17.143" width="5.25" height="3.429" fill="#7731a6"/></g></g></g></svg>
