<?xml version="1.0" encoding="UTF-8"?>
<!DOCTYPE svg  PUBLIC '-//W3C//DTD SVG 1.1//EN'  'http://www.w3.org/Graphics/SVG/1.1/DTD/svg11.dtd'>
<svg clip-rule="evenodd" fill-rule="evenodd" stroke-linejoin="round" stroke-miterlimit="1.4142" version="1.1" viewBox="0 0 32 32" xml:space="preserve" xmlns="http://www.w3.org/2000/svg">
<metadata>
<rdf:RDF xmlns:cc="http://web.resource.org/cc/" xmlns:dc="http://purl.org/dc/elements/1.1/" xmlns:rdf="http://www.w3.org/1999/02/22-rdf-syntax-ns#">

     <rdf:Description rdf:about="">
       <dc:title>Mutant Standard emoji 2023.12</dc:title>
     </rdf:Description>

    <cc:work rdf:about="">
        <cc:license rdf:resource="http://creativecommons.org/licenses/by-nc-sa/4.0/"/>
        <cc:attributionName>Caius Nocturne</cc:attributionName>
        <cc:attributionURL>http://mutant.tech/</cc:attributionURL>
    </cc:work>

</rdf:RDF>
</metadata>
<rect id="astronaut" width="32" height="32" fill="none"/><g id="outline"><path d="m8.068 23.208c-0.017-0.017-0.034-0.033-0.051-0.05-1.084-1.057-1.921-2.36-2.431-3.786-0.248-0.692-0.419-1.41-0.51-2.139-0.046-0.368-0.068-0.738-0.075-1.109-5e-3 -0.749-5e-3 -1.499 0-2.248 7e-3 -0.371 0.029-0.741 0.075-1.109 0.091-0.729 0.262-1.448 0.51-2.139 0.51-1.426 1.347-2.729 2.431-3.786 1.054-1.028 2.334-1.817 3.726-2.297 0.695-0.239 1.416-0.402 2.146-0.483 0.328-0.037 0.657-0.055 0.987-0.061 0.749-5e-3 1.499-5e-3 2.248 0 0.33 6e-3 0.659 0.024 0.987 0.061 0.77 0.086 1.531 0.262 2.261 0.524 1.465 0.524 2.8 1.393 3.872 2.521 0.987 1.036 1.745 2.284 2.211 3.636 0.239 0.695 0.402 1.416 0.483 2.146 0.037 0.328 0.055 0.657 0.061 0.987 5e-3 0.749 5e-3 1.499 0 2.248-6e-3 0.33-0.024 0.659-0.061 0.987-0.081 0.73-0.244 1.451-0.483 2.146-0.466 1.352-1.224 2.6-2.211 3.636-0.102 0.108-0.206 0.212-0.312 0.315 0.179 0.122 0.354 0.253 0.521 0.391 1.135 0.936 1.96 2.228 2.327 3.653 0.146 0.57 0.216 1.154 0.22 1.742v3.006h-22c0-1.06-0.017-2.12 2e-3 -3.18 0.01-0.296 0.034-0.59 0.079-0.883 0.095-0.627 0.277-1.241 0.538-1.819 0.53-1.172 1.386-2.187 2.449-2.91z"/></g><g id="emoji"><path d="m22.229 24.523c1.643 0.819 2.771 2.516 2.771 4.477v1h-18v-1c0-1.96 1.128-3.657 2.771-4.477 0.621 0.381 11.872 0.36 12.458 0z" fill="#fff"/><clipPath id="_clip1"><path d="m22.229 24.523c1.643 0.819 2.771 2.516 2.771 4.477v1h-18v-1c0-1.96 1.128-3.657 2.771-4.477 0.621 0.381 11.872 0.36 12.458 0z"/></clipPath><g clip-path="url(#_clip1)"><rect x="14" y="25" width="4" height="6" fill="#878787"/></g><path d="m9.771 24.523c0.671-0.335 1.428-0.523 2.229-0.523h8c0.801 0 1.558 0.188 2.229 0.523-0.586 0.36-1.209 0.659-1.857 0.891-0.73 0.262-1.491 0.438-2.261 0.524-0.328 0.037-0.657 0.055-0.987 0.061-0.749 5e-3 -1.499 5e-3 -2.248 0-0.33-6e-3 -0.659-0.024-0.987-0.061-0.73-0.081-1.451-0.244-2.146-0.483-0.689-0.238-1.351-0.551-1.972-0.932z" fill="#5f5f5f"/><path id="_.28.Curve.29." d="m25 14c0-2.122-0.843-4.157-2.343-5.657s-3.535-2.343-5.657-2.343h-2c-2.122 0-4.157 0.843-5.657 2.343s-2.343 3.535-2.343 5.657v2c0 2.122 0.843 4.157 2.343 5.657s3.535 2.343 5.657 2.343h2c2.122 0 4.157-0.843 5.657-2.343s2.343-3.535 2.343-5.657v-2z" fill="#333"/><clipPath id="_clip2"><path d="m25 14c0-2.122-0.843-4.157-2.343-5.657s-3.535-2.343-5.657-2.343h-2c-2.122 0-4.157 0.843-5.657 2.343s-2.343 3.535-2.343 5.657v2c0 2.122 0.843 4.157 2.343 5.657s3.535 2.343 5.657 2.343h2c2.122 0 4.157-0.843 5.657-2.343s2.343-3.535 2.343-5.657v-2z"/></clipPath><g clip-path="url(#_clip2)"><path d="m10 16.472 0.5-2.472 2.5-3h6l2.5 3 0.5 2.465v0.535c0 1.591-0.632 3.117-1.757 4.243-1.126 1.125-2.652 1.757-4.243 1.757s-3.117-0.632-4.243-1.757c-1.125-1.126-1.757-2.652-1.757-4.243v-0.528z" fill="#ccc"/><path d="m10 16.472v-1.472c0-1.591 0.632-3.117 1.757-4.243 1.126-1.125 2.652-1.757 4.243-1.757s3.117 0.632 4.243 1.757c1.125 1.126 1.757 2.652 1.757 4.243v1.465c-0.296-0.595-0.592-1.189-0.895-1.78-0.205-0.386-0.453-0.745-0.749-1.068-0.658-0.717-1.526-1.232-2.47-1.468-0.369-0.092-0.744-0.138-1.123-0.148-0.509-5e-3 -1.017-5e-3 -1.526 0-0.379 0.01-0.754 0.056-1.123 0.148-0.973 0.243-1.862 0.783-2.528 1.533-0.293 0.33-0.535 0.697-0.736 1.09l-0.85 1.7z" fill="#595959"/><path d="m20 15c0-0.552-0.448-1-1-1s-1 0.448-1 1v1c0 0.552 0.448 1 1 1s1-0.448 1-1v-1zm-6 0c0-0.552-0.448-1-1-1s-1 0.448-1 1v1c0 0.552 0.448 1 1 1s1-0.448 1-1v-1z"/><path d="m8 16 1.065-2.13c1.186-2.372 3.61-3.87 6.261-3.87h1.348c2.651 0 5.075 1.498 6.261 3.87l1.065 2.13h3v-12h-22v12h3z" fill="#ababab"/></g></g></svg>
