<?xml version="1.0" encoding="UTF-8"?>
<!DOCTYPE svg  PUBLIC '-//W3C//DTD SVG 1.1//EN'  'http://www.w3.org/Graphics/SVG/1.1/DTD/svg11.dtd'>
<svg clip-rule="evenodd" fill-rule="evenodd" stroke-linejoin="round" stroke-miterlimit="1.4142" version="1.1" viewBox="0 0 32 32" xml:space="preserve" xmlns="http://www.w3.org/2000/svg">
<metadata>
<rdf:RDF xmlns:cc="http://web.resource.org/cc/" xmlns:dc="http://purl.org/dc/elements/1.1/" xmlns:rdf="http://www.w3.org/1999/02/22-rdf-syntax-ns#">

     <rdf:Description rdf:about="">
       <dc:title>Mutant Standard emoji 2023.12</dc:title>
     </rdf:Description>

    <cc:work rdf:about="">
        <cc:license rdf:resource="http://creativecommons.org/licenses/by-nc-sa/4.0/"/>
        <cc:attributionName>Caius Nocturne</cc:attributionName>
        <cc:attributionURL>http://mutant.tech/</cc:attributionURL>
    </cc:work>

</rdf:RDF>
</metadata>
<rect id="chef" width="32" height="32" fill="none"/><g id="outline"><path d="m8 12h16v3.002c4e-3 0.699 4e-3 1.398-1e-3 2.097-6e-3 0.363-0.033 0.724-0.087 1.082-0.11 0.742-0.326 1.467-0.638 2.149-0.437 0.954-1.062 1.819-1.831 2.533-0.156 0.145-0.318 0.283-0.485 0.415 0.315 0.092 0.624 0.206 0.924 0.341 0.564 0.255 1.094 0.586 1.572 0.98 1.089 0.899 1.894 2.126 2.28 3.486 0.177 0.622 0.262 1.263 0.266 1.909v2.006h-20c0-0.727-0.012-1.453 2e-3 -2.18 0.026-0.818 0.181-1.632 0.486-2.393 0.21-0.523 0.477-1.021 0.804-1.481 0.717-1.007 1.7-1.817 2.826-2.327 0.3-0.135 0.61-0.25 0.926-0.341-0.478-0.377-0.913-0.808-1.294-1.285-0.489-0.611-0.887-1.295-1.178-2.022-0.254-0.636-0.427-1.305-0.511-1.985-0.037-0.294-0.055-0.59-0.06-0.887-5e-3 -0.7-5e-3 -1.399-1e-3 -2.099v-3z"/></g><g id="emoji"><path d="m19.854 25.073c2.355 0.405 4.146 2.457 4.146 4.927h-16c0-2.47 1.791-4.522 4.146-4.927 0.469 1.687 7.239 1.687 7.708 0z" fill="#fff"/><clipPath id="_clip1"><path d="m19.854 25.073c2.355 0.405 4.146 2.457 4.146 4.927h-16c0-2.47 1.791-4.522 4.146-4.927 0.469 1.687 7.239 1.687 7.708 0z"/></clipPath><g clip-path="url(#_clip1)"><rect x="13" y="26" width="2" height="5" fill="#666"/></g><path d="m12.146 25.073c0.277-0.048 0.563-0.073 0.854-0.073h6c0.291 0 0.577 0.025 0.854 0.073-0.469 1.687-2.018 2.927-3.854 2.927s-3.385-1.24-3.854-2.927z" fill="#740d0d"/><path d="m22 15c0-1.591-0.632-3.117-1.757-4.243-1.126-1.125-2.652-1.757-4.243-1.757s-3.117 0.632-4.243 1.757c-1.125 1.126-1.757 2.652-1.757 4.243v2c0 1.591 0.632 3.117 1.757 4.243 1.126 1.125 2.652 1.757 4.243 1.757s3.117-0.632 4.243-1.757c1.125-1.126 1.757-2.652 1.757-4.243v-2z" fill="#D8A68D"/><clipPath id="_clip2"><path d="m22 15c0-1.591-0.632-3.117-1.757-4.243-1.126-1.125-2.652-1.757-4.243-1.757s-3.117 0.632-4.243 1.757c-1.125 1.126-1.757 2.652-1.757 4.243v2c0 1.591 0.632 3.117 1.757 4.243 1.126 1.125 2.652 1.757 4.243 1.757s3.117-0.632 4.243-1.757c1.125-1.126 1.757-2.652 1.757-4.243v-2z"/></clipPath><g clip-path="url(#_clip2)"><path d="m20 15c0-0.552-0.448-1-1-1s-1 0.448-1 1v1c0 0.552 0.448 1 1 1s1-0.448 1-1v-1zm-6 0c0-0.552-0.448-1-1-1s-1 0.448-1 1v1c0 0.552 0.448 1 1 1s1-0.448 1-1v-1z"/></g><path d="m22.102 3.001c0.169 7e-3 0.337 0.019 0.505 0.045 0.39 0.06 0.772 0.178 1.128 0.349 0.962 0.464 1.713 1.312 2.055 2.323 0.128 0.38 0.199 0.779 0.209 1.18 0.01 0.403-0.041 0.808-0.151 1.196-0.133 0.468-0.352 0.911-0.644 1.301-0.326 0.435-0.737 0.793-1.204 1.07v3.535h-16v-3.535c-0.08-0.047-0.079-0.047-0.157-0.096-0.081-0.053-0.081-0.053-0.16-0.108-0.129-0.094-0.254-0.193-0.373-0.3-0.284-0.259-0.531-0.557-0.73-0.885-0.238-0.392-0.407-0.823-0.499-1.272-0.081-0.397-0.102-0.807-0.061-1.21 0.037-0.364 0.124-0.721 0.258-1.061 0.367-0.931 1.086-1.704 1.987-2.138 0.356-0.171 0.738-0.289 1.128-0.349 0.168-0.026 0.336-0.038 0.505-0.045 4.068-0.052 8.136-0.052 12.204 0z" fill-rule="nonzero"/><path d="m22 9c1.105 0 2-0.895 2-2s-0.895-2-2-2h-12c-1.105 0-2 0.895-2 2s0.895 2 2 2v3h12v-3z" fill="#ebebeb"/><clipPath id="_clip3"><path d="m22 9c1.105 0 2-0.895 2-2s-0.895-2-2-2h-12c-1.105 0-2 0.895-2 2s0.895 2 2 2v3h12v-3z"/></clipPath><g clip-path="url(#_clip3)"><rect x="7" y="8" width="18" height="2" fill="#9d9d9d"/></g></g></svg>
