<?xml version="1.0" encoding="UTF-8"?>
<!DOCTYPE svg  PUBLIC '-//W3C//DTD SVG 1.1//EN'  'http://www.w3.org/Graphics/SVG/1.1/DTD/svg11.dtd'>
<svg clip-rule="evenodd" fill-rule="evenodd" stroke-linejoin="round" stroke-miterlimit="1.4142" version="1.1" viewBox="0 0 32 32" xml:space="preserve" xmlns="http://www.w3.org/2000/svg">
<metadata>
<rdf:RDF xmlns:cc="http://web.resource.org/cc/" xmlns:dc="http://purl.org/dc/elements/1.1/" xmlns:rdf="http://www.w3.org/1999/02/22-rdf-syntax-ns#">

     <rdf:Description rdf:about="">
       <dc:title>Mutant Standard emoji 2023.12</dc:title>
     </rdf:Description>

    <cc:work rdf:about="">
        <cc:license rdf:resource="http://creativecommons.org/licenses/by-nc-sa/4.0/"/>
        <cc:attributionName>Caius Nocturne</cc:attributionName>
        <cc:attributionURL>http://mutant.tech/</cc:attributionURL>
    </cc:work>

</rdf:RDF>
</metadata>
<rect id="construction_worker" width="32" height="32" fill="none"/><clipPath id="_clip1"><rect width="32" height="32"/></clipPath><g clip-path="url(#_clip1)"><g id="outline"><path d="m8 15h-2v-3.828l1.042-1.042c0.012-0.13 0.028-0.259 0.045-0.388 0.044-0.297 0.098-0.591 0.169-0.883 0.14-0.572 0.336-1.131 0.585-1.664 0.505-1.08 1.225-2.056 2.107-2.857 0.831-0.756 1.803-1.354 2.853-1.753 0.626-0.238 1.278-0.405 1.941-0.498 0.302-0.042 0.605-0.067 0.91-0.08 0.154-5e-3 0.309-7e-3 0.464-6e-3 0.306 6e-3 0.611 0.023 0.915 0.058 0.667 0.076 1.326 0.227 1.96 0.45 1.129 0.398 2.175 1.024 3.061 1.829 0.936 0.851 1.69 1.898 2.197 3.057 0.251 0.576 0.442 1.178 0.568 1.793 0.061 0.296 0.104 0.594 0.137 0.894l4e-3 0.048 1.042 1.042v3.828h-2c4e-3 0.7 4e-3 1.4-1e-3 2.099-5e-3 0.297-0.023 0.593-0.06 0.887-0.084 0.68-0.257 1.349-0.511 1.985-0.279 0.697-0.656 1.353-1.117 1.945-0.394 0.506-0.849 0.965-1.353 1.362 0.316 0.092 0.624 0.206 0.924 0.341 0.564 0.255 1.094 0.586 1.572 0.98 1.112 0.918 1.927 2.177 2.303 3.569 0.162 0.596 0.239 1.209 0.243 1.826v2.006h-20c0-0.717-0.012-1.454 2e-3 -2.18 0.026-0.818 0.181-1.632 0.486-2.393 0.189-0.471 0.424-0.921 0.709-1.342 0.723-1.071 1.743-1.933 2.921-2.466 0.3-0.135 0.609-0.249 0.924-0.341-0.141-0.111-0.278-0.227-0.411-0.348-0.779-0.704-1.415-1.562-1.864-2.512-0.334-0.707-0.564-1.463-0.679-2.237-0.049-0.325-0.075-0.653-0.086-0.982-0.013-0.733-7e-3 -1.466-2e-3 -2.199z"/></g><g id="emoji"><path d="m24 30c0-2.761-2.239-5-5-5h-6c-2.761 0-5 2.239-5 5h16z" fill="#4e69e1"/><clipPath id="_clip2"><path d="m24 30c0-2.761-2.239-5-5-5h-6c-2.761 0-5 2.239-5 5h16z"/></clipPath><g clip-path="url(#_clip2)"><circle cx="16" cy="24" r="4" fill="#CBB39C"/><rect x="10" y="24" width="3" height="8" fill="#d1b10e"/><rect x="19" y="24" width="3" height="8" fill="#d1b10e"/><rect x="20" y="24" width="1" height="8" fill="#d1790e"/><rect x="11" y="24" width="1" height="8" fill="#d1790e"/></g><path d="m22 15v2c0 1.591-0.632 3.117-1.757 4.243-1.126 1.125-2.652 1.757-4.243 1.757s-3.117-0.632-4.243-1.757c-1.125-1.126-1.757-2.652-1.757-4.243v-2l6-3 6 3z" fill="#CBB39C"/><path d="m21.196 12c0.522 0.904 0.804 1.938 0.804 3h-12c0-1.062 0.282-2.096 0.804-3h10.392z" fill="#614430"/><path d="m20 15c0-0.552-0.448-1-1-1s-1 0.448-1 1v1c0 0.552 0.448 1 1 1s1-0.448 1-1v-1zm-6 0c0-0.552-0.448-1-1-1s-1 0.448-1 1v1c0 0.552 0.448 1 1 1s1-0.448 1-1v-1z"/><path d="m23 11c0-3.866-3.134-7-7-7h-2e-3c-3.865 0-6.998 3.133-6.998 6.998v2e-3l-1 1v1h16v-1l-1-1z" fill="#ffcf22"/><clipPath id="_clip3"><path d="m23 11c0-3.866-3.134-7-7-7h-2e-3c-3.865 0-6.998 3.133-6.998 6.998v2e-3l-1 1v1h16v-1l-1-1z"/></clipPath><g clip-path="url(#_clip3)" fill="#c80"><path d="m13 4h-2v5c0 0.265 0.105 0.52 0.293 0.707 0.187 0.188 0.442 0.293 0.707 0.293s0.52-0.105 0.707-0.293c0.188-0.187 0.293-0.442 0.293-0.707v-5z"/><path d="m21 4h-2v5c0 0.265 0.105 0.52 0.293 0.707 0.187 0.188 0.442 0.293 0.707 0.293s0.52-0.105 0.707-0.293c0.188-0.187 0.293-0.442 0.293-0.707v-5z"/></g></g></g></svg>
