<?xml version="1.0" encoding="UTF-8"?>
<!DOCTYPE svg  PUBLIC '-//W3C//DTD SVG 1.1//EN'  'http://www.w3.org/Graphics/SVG/1.1/DTD/svg11.dtd'>
<svg clip-rule="evenodd" fill-rule="evenodd" stroke-linejoin="round" stroke-miterlimit="1.4142" version="1.1" viewBox="0 0 32 32" xml:space="preserve" xmlns="http://www.w3.org/2000/svg">
<metadata>
<rdf:RDF xmlns:cc="http://web.resource.org/cc/" xmlns:dc="http://purl.org/dc/elements/1.1/" xmlns:rdf="http://www.w3.org/1999/02/22-rdf-syntax-ns#">

     <rdf:Description rdf:about="">
       <dc:title>Mutant Standard emoji 2023.12</dc:title>
     </rdf:Description>

    <cc:work rdf:about="">
        <cc:license rdf:resource="http://creativecommons.org/licenses/by-nc-sa/4.0/"/>
        <cc:attributionName>Caius Nocturne</cc:attributionName>
        <cc:attributionURL>http://mutant.tech/</cc:attributionURL>
    </cc:work>

</rdf:RDF>
</metadata>
<rect id="detective" width="32" height="32" fill="none"/><clipPath id="_clip1"><rect width="32" height="32"/></clipPath><g clip-path="url(#_clip1)"><g id="outline"><path d="m6.56 8.997 1.234-3.704c0.041-0.114 0.048-0.138 0.1-0.254 0.1-0.223 0.227-0.434 0.378-0.627 0.55-0.701 1.404-1.127 2.294-1.147 0.245-5e-3 0.49 0.019 0.729 0.073 0.124 0.028 0.147 0.038 0.263 0.073l1.442 0.481 1.442-0.481 0.119-0.036c0.127-0.032 0.159-0.043 0.288-0.066 0.146-0.025 0.291-0.036 0.439-0.044 0.146 0 0.146 0 0.292 7e-3 0.13 0.012 0.163 0.013 0.291 0.035 0.193 0.033 0.383 0.085 0.567 0.155 0.598 0.228 1.115 0.649 1.459 1.189 0.129 0.202 0.228 0.417 0.309 0.642l1.225 3.676c0.573 9e-3 1.145 0.02 1.718 0.034 0.148 0.011 0.293 0.025 0.439 0.055 0.288 0.057 0.566 0.157 0.825 0.295 0.348 0.186 0.658 0.44 0.908 0.745 0.217 0.265 0.388 0.568 0.504 0.89 0.099 0.277 0.157 0.569 0.172 0.863 0.042 0.84-0.28 1.676-0.875 2.271-0.209 0.209-0.449 0.386-0.709 0.525-0.302 0.161-0.631 0.27-0.97 0.321-0.139 0.02-0.278 0.029-0.418 0.032h-0.025c4e-3 0.7 4e-3 1.4-1e-3 2.099-5e-3 0.297-0.023 0.593-0.06 0.887l-2e-3 0.014h0.594c0.49-0.547 1.08-1.006 1.736-1.342 0.571-0.292 1.188-0.492 1.822-0.589 0.251-0.038 0.503-0.058 0.757-0.067 0.155-2e-3 0.154-2e-3 0.308 0 0.254 9e-3 0.506 0.029 0.757 0.067 0.634 0.097 1.251 0.297 1.822 0.589 1.203 0.616 2.179 1.64 2.736 2.872 0.224 0.495 0.38 1.021 0.462 1.559 0.092 0.603 0.092 1.219 0 1.822-0.09 0.586-0.267 1.158-0.524 1.691-0.314 0.65-0.745 1.242-1.268 1.741s-1.137 0.902-1.803 1.184c-0.737 0.312-1.536 0.473-2.336 0.473-0.524 0-1.048-0.069-1.553-0.204l-1.447 1.447v2.757h-2.757l-0.4 0.399-0.399-0.399h-16.444v-4.015c2e-3 -0.165 9e-3 -0.331 0.026-0.496 0.037-0.372 0.117-0.739 0.237-1.094 0.297-0.877 0.841-1.664 1.555-2.253 0.358-0.296 0.757-0.54 1.182-0.726v-2.543c-0.098-0.178-0.19-0.359-0.274-0.543-0.326-0.712-0.546-1.471-0.652-2.246-0.045-0.327-0.067-0.655-0.073-0.985-5e-3 -0.699-5e-3 -1.399-1e-3 -2.099h-0.025c-0.14-3e-3 -0.279-0.012-0.418-0.032-0.339-0.051-0.668-0.16-0.97-0.321-0.26-0.139-0.5-0.316-0.709-0.525-0.631-0.631-0.952-1.531-0.864-2.418 0.029-0.293 0.101-0.581 0.214-0.852 0.131-0.317 0.317-0.612 0.548-0.866 0.264-0.292 0.586-0.531 0.942-0.699 0.265-0.125 0.549-0.211 0.839-0.255 0.139-0.021 0.278-0.029 0.418-0.032 0.528 0 1.056-1e-3 1.585-3e-3z"/></g><g id="emoji"><path d="m21 27.998c0-1.656-1.342-2.998-2.998-2.998h-2e-3v-2l-2 2h-6l-2-2v2h-2e-3c-1.656 0-2.998 1.342-2.998 2.998v2.002h16v-2.002z" fill="#515151"/><clipPath id="_clip2"><path d="m21 27.998c0-1.656-1.342-2.998-2.998-2.998h-2e-3v-2l-2 2h-6l-2-2v2h-2e-3c-1.656 0-2.998 1.342-2.998 2.998v2.002h16v-2.002z"/></clipPath><g clip-path="url(#_clip2)"><path d="m8 23 3.586 3.586c0.781 0.781 2.047 0.781 2.828 0l3.586-3.586h-10z" fill="#432710"/><path d="m28.328 23.914-8.485 8.485-4.242-4.242 8.485-8.485 4.242 4.242z" fill="#292929"/></g><path d="m19 15c0-1.591-0.632-3.117-1.757-4.243-1.126-1.125-2.652-1.757-4.243-1.757h-2e-3c-3.313 0-5.998 2.685-5.998 5.998v2.004c0 3.313 2.685 5.998 5.998 5.998h2e-3c1.591 0 3.117-0.632 4.243-1.757 1.125-1.126 1.757-2.652 1.757-4.243v-2z" fill="#ED399F"/><clipPath id="_clip3"><path d="m19 15c0-1.591-0.632-3.117-1.757-4.243-1.126-1.125-2.652-1.757-4.243-1.757h-2e-3c-3.313 0-5.998 2.685-5.998 5.998v2.004c0 3.313 2.685 5.998 5.998 5.998h2e-3c1.591 0 3.117-0.632 4.243-1.757 1.125-1.126 1.757-2.652 1.757-4.243v-2z"/></clipPath><g clip-path="url(#_clip3)"><rect x="6" y="12" width="14" height="5" fill="#B72477"/><path d="m17 15c0-0.552-0.448-1-1-1s-1 0.448-1 1v1c0 0.552 0.448 1 1 1s1-0.448 1-1v-1zm-6 0c0-0.552-0.448-1-1-1s-1 0.448-1 1v1c0 0.552 0.448 1 1 1s1-0.448 1-1v-1z"/></g><path d="m25.5 23.914-1.414-1.414-5.657 5.657 1.414 1.414 5.657-5.657z" fill="#7b7b7b"/><circle cx="26" cy="22" r="4" fill="#9abade"/><clipPath id="_clip4"><circle cx="26" cy="22" r="4"/></clipPath><g clip-path="url(#_clip4)"><path d="m27.789 19.733c0.039 2e-3 0.076 7e-3 0.114 0.018 0.159 0.045 0.266 0.17 0.37 0.291 0.24 0.278 0.428 0.601 0.551 0.946 0.1 0.278 0.158 0.569 0.172 0.863 0.015 0.302-0.015 0.606-0.091 0.898-0.2 0.777-0.717 1.453-1.412 1.853-0.233 0.134-0.484 0.236-0.744 0.303-0.747 0.193-1.555 0.086-2.226-0.294-0.192-0.109-0.373-0.239-0.537-0.387-0.086-0.078-0.171-0.156-0.216-0.266-0.026-0.063-0.039-0.131-0.038-0.199 4e-3 -0.229 0.169-0.431 0.393-0.48 0.057-0.012 0.116-0.015 0.174-7e-3 0.098 0.013 0.185 0.056 0.261 0.118 0.045 0.042 0.089 0.085 0.135 0.125 0.213 0.18 0.456 0.317 0.723 0.399 0.173 0.052 0.352 0.081 0.532 0.085 0.218 6e-3 0.436-0.024 0.644-0.089 0.463-0.144 0.865-0.46 1.117-0.874 0.118-0.195 0.203-0.409 0.248-0.633 0.1-0.487 0.013-1.003-0.243-1.43-0.059-0.098-0.126-0.191-0.201-0.278-0.046-0.054-0.098-0.103-0.143-0.158-0.018-0.023-0.033-0.047-0.047-0.073-0.03-0.062-0.051-0.126-0.056-0.194-0.014-0.187 0.081-0.37 0.242-0.467 0.059-0.035 0.123-0.055 0.19-0.066 0.03-3e-3 0.058-5e-3 0.088-4e-3z" fill="#76a1d2" fill-rule="nonzero"/></g><path d="m7.667 12s1.453-4.36 2.017-6.051c0.084-0.252 0.264-0.46 0.501-0.579 0.237-0.118 0.512-0.138 0.764-0.054 0.595 0.199 1.326 0.442 1.735 0.579 0.205 0.068 0.427 0.068 0.632 0 0.409-0.137 1.14-0.38 1.735-0.579 0.252-0.084 0.527-0.064 0.764 0.054 0.237 0.119 0.417 0.327 0.501 0.579 0.564 1.691 2.017 6.051 2.017 6.051h-10.666z" fill="#515151"/><clipPath id="_clip5"><path d="m7.667 12s1.453-4.36 2.017-6.051c0.084-0.252 0.264-0.46 0.501-0.579 0.237-0.118 0.512-0.138 0.764-0.054 0.595 0.199 1.326 0.442 1.735 0.579 0.205 0.068 0.427 0.068 0.632 0 0.409-0.137 1.14-0.38 1.735-0.579 0.252-0.084 0.527-0.064 0.764 0.054 0.237 0.119 0.417 0.327 0.501 0.579 0.564 1.691 2.017 6.051 2.017 6.051h-10.666z"/></clipPath><g clip-path="url(#_clip5)"><rect x="6" y="9" width="14" height="3" fill="#1b1b1b"/></g><path d="m4 12c0 0.265 0.105 0.52 0.293 0.707 0.187 0.188 0.442 0.293 0.707 0.293h16c0.265 0 0.52-0.105 0.707-0.293 0.188-0.187 0.293-0.442 0.293-0.707s-0.105-0.52-0.293-0.707c-0.187-0.188-0.442-0.293-0.707-0.293h-16c-0.265 0-0.52 0.105-0.707 0.293-0.188 0.187-0.293 0.442-0.293 0.707z" fill="#515151"/></g></g></svg>
