<?xml version="1.0" encoding="UTF-8"?>
<!DOCTYPE svg  PUBLIC '-//W3C//DTD SVG 1.1//EN'  'http://www.w3.org/Graphics/SVG/1.1/DTD/svg11.dtd'>
<svg clip-rule="evenodd" fill-rule="evenodd" stroke-linejoin="round" stroke-miterlimit="1.4142" version="1.1" viewBox="0 0 32 32" xml:space="preserve" xmlns="http://www.w3.org/2000/svg">
<metadata>
<rdf:RDF xmlns:cc="http://web.resource.org/cc/" xmlns:dc="http://purl.org/dc/elements/1.1/" xmlns:rdf="http://www.w3.org/1999/02/22-rdf-syntax-ns#">

     <rdf:Description rdf:about="">
       <dc:title>Mutant Standard emoji 2023.12</dc:title>
     </rdf:Description>

    <cc:work rdf:about="">
        <cc:license rdf:resource="http://creativecommons.org/licenses/by-nc-sa/4.0/"/>
        <cc:attributionName>Caius Nocturne</cc:attributionName>
        <cc:attributionURL>http://mutant.tech/</cc:attributionURL>
    </cc:work>

</rdf:RDF>
</metadata>
<rect id="factory_worker" width="32" height="32" fill="none"/><clipPath id="_clip1"><rect width="32" height="32"/></clipPath><g clip-path="url(#_clip1)"><g id="outline"><path d="m21.937 14c5e-3 0.037 9e-3 0.074 0.014 0.111 0.029 0.263 0.043 0.526 0.048 0.79 5e-3 0.733 5e-3 1.465 0 2.198-3e-3 0.173-0.01 0.345-0.023 0.517 0.186-0.268 0.396-0.517 0.624-0.751l2.39-2.391c-1e-3 -0.858 1e-3 -1.716 0.011-2.574 4e-3 -0.098 4e-3 -0.098 0.01-0.197 0.04-0.457 0.145-0.903 0.332-1.324 0.212-0.479 0.52-0.916 0.9-1.277 0.426-0.406 0.942-0.715 1.5-0.9 0.403-0.133 0.821-0.197 1.245-0.202h3.012v6.012c-5e-3 0.424-0.069 0.842-0.202 1.245-0.175 0.527-0.46 1.016-0.832 1.428-0.441 0.486-1 0.86-1.617 1.081-0.251 0.09-0.508 0.152-0.77 0.19-0.807 0.807-1.614 1.615-2.421 2.422-0.016 0.016-0.031 0.031-0.045 0.048-0.02 0.026-0.038 0.053-0.054 0.081-0.041 0.08-0.058 0.162-0.059 0.251v2.008c0.4 0.359 0.704 0.824 0.866 1.343 0.059 0.191 0.099 0.388 0.119 0.586 0.013 0.129 0.012 0.156 0.015 0.28v7.025h-23c0-0.725-0.012-1.451 2e-3 -2.176 0.023-0.746 0.156-1.482 0.408-2.186 0.172-0.482 0.399-0.945 0.672-1.379 0.829-1.312 2.094-2.326 3.556-2.849 0.134-0.048 0.269-0.092 0.405-0.131-0.504-0.398-0.96-0.856-1.354-1.363-0.461-0.592-0.838-1.248-1.117-1.945-0.254-0.636-0.427-1.305-0.511-1.985-0.037-0.294-0.055-0.59-0.06-0.887-5e-3 -0.733-5e-3 -1.465 0-2.198 5e-3 -0.264 0.019-0.527 0.048-0.79 5e-3 -0.037 9e-3 -0.074 0.014-0.111h-2.838c0.816-2.447 1.607-4.902 2.448-7.341 0.027-0.075 0.056-0.149 0.087-0.223 0.188-0.432 0.442-0.83 0.765-1.174 0.53-0.564 1.222-0.967 1.974-1.15 0.283-0.068 0.571-0.103 0.862-0.111 3.093-0.031 6.185-0.031 9.278 0 0.501 0.015 0.999 0.111 1.462 0.308 0.281 0.12 0.549 0.267 0.797 0.446 0.482 0.347 0.884 0.803 1.169 1.324 0.102 0.187 0.187 0.381 0.26 0.58l0.023 0.066 2.425 7.275h-2.838z"/></g><g id="emoji"><path d="m20 26c1.214 0.912 2 2.364 2 4h-2l-0.933-1.929 0.933-2.071z" fill="#173899"/><path d="m11.5 25 2 2 0.5 3h-8v-2e-3c0-1.326 0.527-2.597 1.464-3.534s2.208-1.464 3.534-1.464h0.502zm5 0h0.5c1.126 0 2.164 0.372 3 1v4h-6l0.5-3.025 2-1.975z" fill="#304fbd"/><path d="m14 30-1.637-3.275c0.513 0.178 1.064-0.725 1.637-0.725s1.124 0.903 1.637 0.725l-1.637 3.275z" fill="#fff"/><path d="m16.5 25-0.863 1.725c-0.513 0.178-1.064 0.275-1.637 0.275s-1.124-0.097-1.637-0.275l-0.863-1.725h5z" fill="#B68862"/><path d="m20 15c0-1.591-0.632-3.117-1.757-4.243-1.126-1.125-2.652-1.757-4.243-1.757s-3.117 0.632-4.243 1.757c-1.125 1.126-1.757 2.652-1.757 4.243v2c0 1.591 0.632 3.117 1.757 4.243 1.126 1.125 2.652 1.757 4.243 1.757s3.117-0.632 4.243-1.757c1.125-1.126 1.757-2.652 1.757-4.243v-2z" fill="#B68862"/><clipPath id="_clip2"><path d="m20 15c0-1.591-0.632-3.117-1.757-4.243-1.126-1.125-2.652-1.757-4.243-1.757s-3.117 0.632-4.243 1.757c-1.125 1.126-1.757 2.652-1.757 4.243v2c0 1.591 0.632 3.117 1.757 4.243 1.126 1.125 2.652 1.757 4.243 1.757s3.117-0.632 4.243-1.757c1.125-1.126 1.757-2.652 1.757-4.243v-2z"/></clipPath><g clip-path="url(#_clip2)"><rect x="7" y="10" width="14" height="5" fill="#A1693B"/><path d="m18 15c0-0.552-0.448-1-1-1s-1 0.448-1 1v1c0 0.552 0.448 1 1 1s1-0.448 1-1v-1zm-6 0c0-0.552-0.448-1-1-1s-1 0.448-1 1v1c0 0.552 0.448 1 1 1s1-0.448 1-1v-1z"/></g><path d="m6 12 1.544-4.632c0.272-0.817 1.037-1.368 1.898-1.368h9.116c0.861 0 1.626 0.551 1.898 1.368l1.544 4.632h-16z" fill="#1a1a1a"/><clipPath id="_clip3"><path d="m6 12 1.544-4.632c0.272-0.817 1.037-1.368 1.898-1.368h9.116c0.861 0 1.626 0.551 1.898 1.368l1.544 4.632h-16z"/></clipPath><g clip-path="url(#_clip3)"><path d="m18.639 4.001c0.212 6e-3 0.422 0.025 0.632 0.063 0.585 0.105 1.144 0.343 1.626 0.691 0.248 0.178 0.473 0.385 0.675 0.614 0.333 0.377 0.582 0.819 0.755 1.29l0.023 0.067 3.425 10.274h-23.55c1.149-3.447 2.263-6.906 3.448-10.341 0.028-0.075 0.056-0.15 0.087-0.224 0.189-0.431 0.442-0.83 0.765-1.173 0.53-0.564 1.222-0.967 1.974-1.15 0.283-0.068 0.571-0.103 0.862-0.111 3.093-0.031 6.185-0.031 9.278 0zm-9.188 3.999c-4e-3 0-7e-3 -2e-3 -9e-3 0-3e-3 2e-3 -3e-3 7e-3 -4e-3 0.01l-1.663 4.99h12.45c-0.554-1.664-1.109-3.327-1.663-4.991-2e-3 -5e-3 -1e-3 -7e-3 -4e-3 -9e-3 -3e-3 -1e-3 -6e-3 0-9e-3 0h-9.098z" fill="#2f2f2f" fill-rule="nonzero"/><path d="m19 5h-10v2c0 0.552 0.448 1 1 1h8c0.552 0 1-0.448 1-1v-2z" fill="#4f89ca"/></g><path d="m30 10h-1c-0.53 0-1.039 0.211-1.414 0.586s-0.586 0.884-0.586 1.414v4h1c0.53 0 1.039-0.211 1.414-0.586s0.586-0.884 0.586-1.414v-4z" fill="#f89500"/><clipPath id="_clip4"><path d="m30 10h-1c-0.53 0-1.039 0.211-1.414 0.586s-0.586 0.884-0.586 1.414v4h1c0.53 0 1.039-0.211 1.414-0.586s0.586-0.884 0.586-1.414v-4z"/></clipPath><g clip-path="url(#_clip4)"><path d="m29 12c-1.105 0-2 0.895-2 2v2c1.105 0 2-0.895 2-2v-2z" fill="#ffc772"/></g><path d="m26.207 17.5c-0.506 0.506-1.018 1.007-1.518 1.519-0.042 0.046-0.083 0.092-0.123 0.139-0.256 0.321-0.437 0.692-0.517 1.095-0.033 0.163-0.047 0.327-0.049 0.493v3.754h-1c0-1.281-0.015-2.563 1e-3 -3.844 9e-3 -0.231 0.034-0.458 0.085-0.683 0.106-0.473 0.312-0.923 0.601-1.313 0.102-0.138 0.216-0.267 0.336-0.39l1.477-1.477 0.707 0.707z" fill="#999" fill-rule="nonzero"/><path d="m25 25c0-0.552-0.448-1-1-1h-1c-0.552 0-1 0.448-1 1v5h3v-5z" fill="#666"/></g></g></svg>
