<?xml version="1.0" encoding="UTF-8"?>
<!DOCTYPE svg  PUBLIC '-//W3C//DTD SVG 1.1//EN'  'http://www.w3.org/Graphics/SVG/1.1/DTD/svg11.dtd'>
<svg clip-rule="evenodd" fill-rule="evenodd" stroke-linejoin="round" stroke-miterlimit="1.4142" version="1.1" viewBox="0 0 32 32" xml:space="preserve" xmlns="http://www.w3.org/2000/svg">
<metadata>
<rdf:RDF xmlns:cc="http://web.resource.org/cc/" xmlns:dc="http://purl.org/dc/elements/1.1/" xmlns:rdf="http://www.w3.org/1999/02/22-rdf-syntax-ns#">

     <rdf:Description rdf:about="">
       <dc:title>Mutant Standard emoji 2023.12</dc:title>
     </rdf:Description>

    <cc:work rdf:about="">
        <cc:license rdf:resource="http://creativecommons.org/licenses/by-nc-sa/4.0/"/>
        <cc:attributionName>Caius Nocturne</cc:attributionName>
        <cc:attributionURL>http://mutant.tech/</cc:attributionURL>
    </cc:work>

</rdf:RDF>
</metadata>
<rect id="farmer" width="32" height="32" fill="none"/><clipPath id="_clip1"><rect width="32" height="32"/></clipPath><g clip-path="url(#_clip1)"><g id="outline"><path d="m5 15h-1.025c-0.14-3e-3 -0.279-0.012-0.418-0.032-0.29-0.044-0.574-0.13-0.839-0.255-0.356-0.168-0.678-0.407-0.942-0.699-0.231-0.254-0.417-0.549-0.548-0.866-0.113-0.271-0.185-0.559-0.214-0.852-0.088-0.887 0.233-1.787 0.864-2.418 0.209-0.208 0.449-0.386 0.709-0.525 0.302-0.161 0.631-0.27 0.97-0.321 0.139-0.02 0.278-0.029 0.418-0.032h1.713c0.277-1.105 0.542-2.214 0.831-3.316 0.029-0.103 0.029-0.102 0.06-0.204 0.143-0.432 0.333-0.843 0.583-1.224 0.619-0.943 1.557-1.66 2.63-2.01 0.468-0.153 0.952-0.229 1.443-0.245 1.177-0.013 2.353-0.013 3.53 0 0.525 0.017 1.043 0.104 1.541 0.278 1.131 0.395 2.1 1.201 2.694 2.242 0.226 0.394 0.391 0.817 0.506 1.256l0.806 3.223h1.713l0.124 3e-3c0.148 0.011 0.293 0.025 0.439 0.055 0.287 0.057 0.566 0.157 0.825 0.295 0.348 0.186 0.658 0.44 0.908 0.745 0.217 0.265 0.388 0.567 0.504 0.89 0.099 0.277 0.157 0.569 0.172 0.863 2e-3 0.05 4e-3 0.1 3e-3 0.149h7v8.013c-2e-3 0.166-9e-3 0.331-0.026 0.496-0.037 0.372-0.117 0.74-0.237 1.094-0.233 0.688-0.617 1.322-1.118 1.847-0.458 0.48-1.011 0.868-1.619 1.134v7.416h-2-7-17c0-0.727-0.012-1.453 2e-3 -2.18 0.026-0.818 0.181-1.632 0.486-2.393 0.21-0.523 0.477-1.021 0.804-1.481 0.717-1.007 1.7-1.818 2.826-2.327 0.3-0.135 0.61-0.25 0.926-0.342-0.503-0.396-0.96-0.853-1.355-1.361-0.461-0.592-0.838-1.248-1.117-1.945-0.254-0.636-0.427-1.305-0.511-1.985-0.037-0.294-0.055-0.59-0.06-0.887-5e-3 -0.699-5e-3 -1.399-1e-3 -2.099zm15.058 5.765c-0.417 0.783-0.965 1.495-1.616 2.098-0.155 0.145-0.317 0.283-0.484 0.415 0.315 0.092 0.624 0.206 0.924 0.341 0.564 0.255 1.094 0.586 1.572 0.98 1.112 0.918 1.927 2.177 2.303 3.569 0.162 0.596 0.239 1.209 0.243 1.826v6e-3 -5.417c-0.535-0.233-1.027-0.561-1.45-0.964-0.554-0.528-0.983-1.182-1.246-1.9-0.113-0.309-0.195-0.629-0.246-0.954z"/></g><g id="emoji"><path d="m16.854 25.073c2.355 0.405 4.146 2.457 4.146 4.927h-16c0-2.47 1.791-4.522 4.146-4.927 0.469 1.687 7.239 1.687 7.708 0z" fill="#598d60"/><path d="m9.146 25.073c0.277-0.048 0.563-0.073 0.854-0.073h6c0.291 0 0.577 0.025 0.854 0.073-0.469 1.687-2.018 2.927-3.854 2.927s-3.385-1.24-3.854-2.927z" fill="#7F531D"/><path d="m19 15c0-1.591-0.632-3.117-1.757-4.243-1.126-1.125-2.652-1.757-4.243-1.757s-3.117 0.632-4.243 1.757c-1.125 1.126-1.757 2.652-1.757 4.243v2c0 1.591 0.632 3.117 1.757 4.243 1.126 1.125 2.652 1.757 4.243 1.757s3.117-0.632 4.243-1.757c1.125-1.126 1.757-2.652 1.757-4.243v-2z" fill="#7F531D"/><clipPath id="_clip2"><path d="m19 15c0-1.591-0.632-3.117-1.757-4.243-1.126-1.125-2.652-1.757-4.243-1.757s-3.117 0.632-4.243 1.757c-1.125 1.126-1.757 2.652-1.757 4.243v2c0 1.591 0.632 3.117 1.757 4.243 1.126 1.125 2.652 1.757 4.243 1.757s3.117-0.632 4.243-1.757c1.125-1.126 1.757-2.652 1.757-4.243v-2z"/></clipPath><g clip-path="url(#_clip2)"><rect x="6" y="12" width="14" height="5" fill="#663A1D"/><path d="m17 15c0-0.552-0.448-1-1-1s-1 0.448-1 1v1c0 0.552 0.448 1 1 1s1-0.448 1-1v-1zm-6 0c0-0.552-0.448-1-1-1s-1 0.448-1 1v1c0 0.552 0.448 1 1 1s1-0.448 1-1v-1z"/></g><path d="m7 12s0.841-3.363 1.432-5.728c0.334-1.335 1.534-2.272 2.91-2.272h3.316c1.376 0 2.576 0.937 2.91 2.272 0.591 2.365 1.432 5.728 1.432 5.728h-12z" fill="#ac8e50"/><clipPath id="_clip3"><path d="m7 12s0.841-3.363 1.432-5.728c0.334-1.335 1.534-2.272 2.91-2.272h3.316c1.376 0 2.576 0.937 2.91 2.272 0.591 2.365 1.432 5.728 1.432 5.728h-12z"/></clipPath><g clip-path="url(#_clip3)"><rect x="6" y="9" width="14" height="3" fill="#594929"/></g><path d="m23 12c0-0.265-0.105-0.52-0.293-0.707-0.187-0.188-0.442-0.293-0.707-0.293h-18c-0.265 0-0.52 0.105-0.707 0.293-0.188 0.187-0.293 0.442-0.293 0.707s0.105 0.52 0.293 0.707c0.187 0.188 0.442 0.293 0.707 0.293h18c0.265 0 0.52-0.105 0.707-0.293 0.188-0.187 0.293-0.442 0.293-0.707z" fill="#ac8e50"/><rect x="25" y="22" width="2" height="8" fill="#634227"/><path d="m30 14h-8v6c0 1.657 1.343 3 3 3h2c1.657 0 3-1.343 3-3v-6z" fill="#919191"/><clipPath id="_clip4"><path d="m30 14h-8v6c0 1.657 1.343 3 3 3h2c1.657 0 3-1.343 3-3v-6z"/></clipPath><g clip-path="url(#_clip4)"><rect x="24" y="13" width="1" height="7"/><rect x="27" y="13" width="1" height="7"/></g></g></g></svg>
