<?xml version="1.0" encoding="UTF-8"?>
<!DOCTYPE svg  PUBLIC '-//W3C//DTD SVG 1.1//EN'  'http://www.w3.org/Graphics/SVG/1.1/DTD/svg11.dtd'>
<svg clip-rule="evenodd" fill-rule="evenodd" stroke-linejoin="round" stroke-miterlimit="1.4142" version="1.1" viewBox="0 0 32 32" xml:space="preserve" xmlns="http://www.w3.org/2000/svg">
<metadata>
<rdf:RDF xmlns:cc="http://web.resource.org/cc/" xmlns:dc="http://purl.org/dc/elements/1.1/" xmlns:rdf="http://www.w3.org/1999/02/22-rdf-syntax-ns#">

     <rdf:Description rdf:about="">
       <dc:title>Mutant Standard emoji 2023.12</dc:title>
     </rdf:Description>

    <cc:work rdf:about="">
        <cc:license rdf:resource="http://creativecommons.org/licenses/by-nc-sa/4.0/"/>
        <cc:attributionName>Caius Nocturne</cc:attributionName>
        <cc:attributionURL>http://mutant.tech/</cc:attributionURL>
    </cc:work>

</rdf:RDF>
</metadata>
<rect id="health_worker" width="32" height="32" fill="none"/><clipPath id="_clip1"><rect width="32" height="32"/></clipPath><g clip-path="url(#_clip1)"><g id="outline"><path d="m7.043 23.279c-0.141-0.112-0.279-0.228-0.412-0.349-0.779-0.704-1.415-1.562-1.864-2.512-0.32-0.677-0.544-1.4-0.664-2.14-0.058-0.357-0.089-0.717-0.101-1.079-0.014-0.766-6e-3 -1.532-1e-3 -2.298 0.016-0.886 0.168-1.763 0.467-2.598 0.409-1.141 1.078-2.184 1.946-3.03 0.843-0.822 1.867-1.453 2.981-1.837 0.807-0.278 1.652-0.42 2.506-0.435 0.099-1e-3 0.099-1e-3 0.198 0 0.854 0.015 1.699 0.157 2.506 0.435 1.145 0.395 2.196 1.051 3.052 1.907 0.274 0.274 0.528 0.568 0.759 0.879 0.222-0.447 0.528-0.852 0.898-1.188 0.388-0.351 0.845-0.624 1.337-0.801 0.308-0.11 0.629-0.182 0.954-0.214 0.167-0.017 0.199-0.015 0.358-0.019 1.412 0 2.824-0.031 4.235 4e-3 0.175 0.013 0.219 0.013 0.393 0.039 0.322 0.048 0.639 0.136 0.94 0.261 0.484 0.2 0.928 0.496 1.298 0.867 0.417 0.417 0.739 0.925 0.938 1.48 0.11 0.308 0.182 0.629 0.214 0.954 0.017 0.167 0.015 0.199 0.019 0.358v5.074c-4e-3 0.159-2e-3 0.191-0.019 0.358-0.032 0.325-0.104 0.646-0.214 0.954-0.221 0.617-0.595 1.176-1.081 1.617-0.388 0.351-0.845 0.624-1.337 0.801-0.115 0.041-0.231 0.076-0.349 0.107v1.163l-4e-3 0.161c-5e-3 0.066-8e-3 0.131-0.015 0.197-0.019 0.195-0.053 0.39-0.101 0.58-0.053 0.214-0.125 0.423-0.213 0.625 0.353 0.078 0.697 0.201 1.019 0.366 0.79 0.405 1.443 1.058 1.848 1.848 0.191 0.372 0.326 0.774 0.4 1.186 0.076 0.425 0.087 0.861 0.032 1.289-0.057 0.452-0.188 0.894-0.386 1.305-0.222 0.46-0.528 0.879-0.898 1.232-0.371 0.354-0.805 0.639-1.277 0.839-0.522 0.221-1.088 0.335-1.655 0.335s-1.133-0.114-1.655-0.335c-0.392-0.166-0.758-0.391-1.083-0.665h-0.05c-0.163-4e-3 -0.196-2e-3 -0.367-0.02-0.201-0.02-0.4-0.055-0.595-0.106v1.126h-20c0-0.725-0.011-1.451 2e-3 -2.176 0.023-0.746 0.156-1.482 0.408-2.186 0.523-1.462 1.537-2.727 2.849-3.556 0.434-0.273 0.897-0.5 1.379-0.672 0.134-0.048 0.269-0.092 0.405-0.131zm12.357-3.238c-0.276 0.67-0.643 1.303-1.089 1.875-0.394 0.507-0.85 0.964-1.353 1.362 0.315 0.092 0.624 0.206 0.924 0.341 0.391 0.177 0.766 0.39 1.118 0.636v-0.292c6e-3 -0.252 0.027-0.5 0.077-0.747 0.154-0.771 0.538-1.489 1.094-2.045 0.14-0.14 0.29-0.269 0.449-0.387 9e-3 -7e-3 0.018-0.013 0.026-0.019-0.455-0.164-0.879-0.411-1.246-0.724z"/></g><g id="emoji"><path d="m8 25.1 1 2.9-1 2h-4c0-2.419 1.718-4.437 4-4.9zm8 0c2.282 0.463 4 2.481 4 4.9h-4l-1-2 1-2.9z" fill="#fff"/><path d="m8 25.1c0.048-0.01 0.097-0.019 0.146-0.027 0.469 1.687 7.239 1.687 7.708 0 0.049 8e-3 0.098 0.017 0.146 0.027v4.9h-8v-4.9z" fill="#40cec0"/><path d="m8.146 25.073c0.277-0.048 0.563-0.073 0.854-0.073h6c0.291 0 0.577 0.025 0.854 0.073-0.469 1.687-2.018 2.927-3.854 2.927s-3.385-1.24-3.854-2.927z" fill="#6A4E35"/><path d="m18 15c0-1.591-0.632-3.117-1.757-4.243-1.126-1.125-2.652-1.757-4.243-1.757s-3.117 0.632-4.243 1.757c-1.125 1.126-1.757 2.652-1.757 4.243v2c0 1.591 0.632 3.117 1.757 4.243 1.126 1.125 2.652 1.757 4.243 1.757s3.117-0.632 4.243-1.757c1.125-1.126 1.757-2.652 1.757-4.243v-2z" fill="#6A4E35"/><clipPath id="_clip2"><path d="m18 15c0-1.591-0.632-3.117-1.757-4.243-1.126-1.125-2.652-1.757-4.243-1.757s-3.117 0.632-4.243 1.757c-1.125 1.126-1.757 2.652-1.757 4.243v2c0 1.591 0.632 3.117 1.757 4.243 1.126 1.125 2.652 1.757 4.243 1.757s3.117-0.632 4.243-1.757c1.125-1.126 1.757-2.652 1.757-4.243v-2z"/></clipPath><g clip-path="url(#_clip2)"><path d="m16 15c0-0.552-0.448-1-1-1s-1 0.448-1 1v1c0 0.552 0.448 1 1 1s1-0.448 1-1v-1zm-6 0c0-0.552-0.448-1-1-1s-1 0.448-1 1v1c0 0.552 0.448 1 1 1s1-0.448 1-1v-1z"/></g><path d="m25 22.012c-6e-3 0.26-0.052 0.513-0.152 0.753-0.214 0.518-0.646 0.929-1.174 1.118-0.209 0.075-0.427 0.111-0.649 0.117h-0.025c-0.024 0.996 0 1.992 0 2.987v0.013h0.013 1.987v2h-2.013c-0.198-5e-3 -0.392-0.031-0.581-0.09-0.558-0.173-1.021-0.593-1.249-1.131-0.064-0.152-0.109-0.312-0.134-0.476-0.014-0.089-0.014-0.111-0.021-0.201-0.026-1.038-2e-3 -2.076-2e-3 -3.114 6e-3 -0.26 0.052-0.513 0.152-0.753 0.214-0.518 0.646-0.929 1.174-1.118 0.209-0.075 0.427-0.111 0.649-0.117h0.025v-0.012-3.988h2v4.012z" fill="#4d4d4d" fill-rule="nonzero"/><circle cx="25.75" cy="27.75" r="2.25" fill="#b3b3b3"/><path d="m23.2 12h-1.188-0.012c-0.041 1.662 0 3.325 0 4.988v0.012c1.329 0.033 2.658 0 3.988 0h0.012c0.041-1.662 0-3.325 0-4.988v-0.012h-0.012-1.188v-2h1.212c0.194 5e-3 0.384 0.03 0.57 0.086 0.568 0.173 1.039 0.6 1.266 1.149 0.089 0.214 0.133 0.436 0.15 0.666 0.042 1.703 2e-3 3.408 2e-3 5.111-5e-3 0.194-0.03 0.384-0.086 0.57-0.173 0.568-0.6 1.039-1.149 1.266-0.213 0.089-0.436 0.133-0.666 0.15-1.37 0.034-2.741 2e-3 -4.111 2e-3 -0.194-5e-3 -0.384-0.03-0.57-0.086-0.568-0.173-1.039-0.6-1.266-1.148-0.089-0.214-0.133-0.437-0.15-0.667-0.042-1.703-2e-3 -3.408-2e-3 -5.111 6e-3 -0.227 0.04-0.448 0.117-0.662 0.2-0.559 0.65-1.009 1.209-1.209 0.214-0.077 0.435-0.111 0.662-0.117h1.212v2z" fill="#b3b3b3" fill-rule="nonzero"/></g></g></svg>
