<?xml version="1.0" encoding="UTF-8"?>
<!DOCTYPE svg  PUBLIC '-//W3C//DTD SVG 1.1//EN'  'http://www.w3.org/Graphics/SVG/1.1/DTD/svg11.dtd'>
<svg clip-rule="evenodd" fill-rule="evenodd" stroke-linejoin="round" stroke-miterlimit="1.4142" version="1.1" viewBox="0 0 32 32" xml:space="preserve" xmlns="http://www.w3.org/2000/svg">
<metadata>
<rdf:RDF xmlns:cc="http://web.resource.org/cc/" xmlns:dc="http://purl.org/dc/elements/1.1/" xmlns:rdf="http://www.w3.org/1999/02/22-rdf-syntax-ns#">

     <rdf:Description rdf:about="">
       <dc:title>Mutant Standard emoji 2023.12</dc:title>
     </rdf:Description>

    <cc:work rdf:about="">
        <cc:license rdf:resource="http://creativecommons.org/licenses/by-nc-sa/4.0/"/>
        <cc:attributionName>Caius Nocturne</cc:attributionName>
        <cc:attributionURL>http://mutant.tech/</cc:attributionURL>
    </cc:work>

</rdf:RDF>
</metadata>
<rect id="judge" width="32" height="32" fill="none"/><g id="outline"><path d="m2 32c0-0.716-0.012-1.454 2e-3 -2.18 0.026-0.818 0.181-1.632 0.487-2.393 0.188-0.471 0.423-0.921 0.707-1.342 0.724-1.071 1.744-1.933 2.922-2.466 0.3-0.135 0.608-0.249 0.924-0.341-0.167-0.132-0.329-0.27-0.485-0.415-0.769-0.714-1.394-1.579-1.831-2.533-0.326-0.712-0.546-1.471-0.652-2.246-0.045-0.327-0.067-0.655-0.073-0.985-5e-3 -0.733-5e-3 -1.465 0-2.198 5e-3 -0.264 0.019-0.527 0.048-0.79 0.069-0.616 0.21-1.224 0.419-1.808 0.386-1.078 1.006-2.069 1.805-2.889 0.869-0.891 1.945-1.573 3.122-1.978 0.807-0.278 1.652-0.42 2.506-0.435 0.099-1e-3 0.099-1e-3 0.198 0 0.297 5e-3 0.593 0.023 0.887 0.06 0.616 0.076 1.222 0.225 1.803 0.441 1.043 0.388 2.001 0.994 2.797 1.771 0.891 0.869 1.573 1.945 1.978 3.122 0.278 0.807 0.42 1.653 0.435 2.506 5e-3 0.621 5e-3 1.243 2e-3 1.864 0.281-0.252 0.609-0.452 0.967-0.583 0.235-0.086 0.48-0.142 0.728-0.167 0.129-0.013 0.155-0.012 0.279-0.015 2.059 0 4.119-0.049 6.178 3e-3 0.134 0.01 0.168 0.01 0.301 0.031 0.246 0.037 0.486 0.105 0.715 0.202 0.806 0.341 1.436 1.036 1.696 1.873 0.06 0.191 0.1 0.388 0.12 0.587 0.013 0.129 0.012 0.155 0.015 0.279v2.05c-3e-3 0.124-2e-3 0.15-0.015 0.279-0.02 0.199-0.06 0.396-0.12 0.587-0.275 0.885-0.963 1.609-1.833 1.927-0.235 0.086-0.48 0.142-0.728 0.167-0.129 0.013-0.155 0.012-0.279 0.015h-0.025v8h-4-22zm17-11.127c-0.202 0.365-0.432 0.714-0.689 1.043-0.394 0.507-0.85 0.964-1.353 1.362 0.315 0.092 0.624 0.206 0.924 0.341 0.564 0.255 1.094 0.586 1.572 0.98 1.134 0.937 1.959 2.228 2.325 3.653 0.147 0.569 0.217 1.154 0.221 1.742v6e-3 -6h-0.025c-0.124-3e-3 -0.15-2e-3 -0.279-0.015-0.248-0.025-0.493-0.081-0.728-0.167-0.87-0.318-1.558-1.042-1.833-1.927-0.06-0.191-0.1-0.388-0.12-0.587-0.013-0.129-0.012-0.155-0.015-0.279v-0.152z"/></g><g id="emoji"><path d="m20 30c0-2.761-2.239-5-5-5h-6c-2.761 0-5 2.239-5 5h16z" fill="#303030"/><clipPath id="_clip1"><path d="m20 30c0-2.761-2.239-5-5-5h-6c-2.761 0-5 2.239-5 5h16z"/></clipPath><g clip-path="url(#_clip1)"><path d="m17 22h-10l3 9h4l3-9z" fill="#fff"/><circle cx="12" cy="24" r="4" fill="#1B7A76"/></g><path d="m18 15c0-1.591-0.632-3.117-1.757-4.243-1.126-1.125-2.652-1.757-4.243-1.757s-3.117 0.632-4.243 1.757c-1.125 1.126-1.757 2.652-1.757 4.243v2c0 1.591 0.632 3.117 1.757 4.243 1.126 1.125 2.652 1.757 4.243 1.757s3.117-0.632 4.243-1.757c1.125-1.126 1.757-2.652 1.757-4.243v-2z" fill="#1B7A76"/><clipPath id="_clip2"><path d="m18 15c0-1.591-0.632-3.117-1.757-4.243-1.126-1.125-2.652-1.757-4.243-1.757s-3.117 0.632-4.243 1.757c-1.125 1.126-1.757 2.652-1.757 4.243v2c0 1.591 0.632 3.117 1.757 4.243 1.126 1.125 2.652 1.757 4.243 1.757s3.117-0.632 4.243-1.757c1.125-1.126 1.757-2.652 1.757-4.243v-2z"/></clipPath><g clip-path="url(#_clip2)"><path d="m16 15c0-0.552-0.448-1-1-1s-1 0.448-1 1v1c0 0.552 0.448 1 1 1s1-0.448 1-1v-1zm-6 0c0-0.552-0.448-1-1-1s-1 0.448-1 1v1c0 0.552 0.448 1 1 1s1-0.448 1-1v-1z"/></g><rect x="24" y="21" width="2" height="9" fill="#a1693b"/><clipPath id="_clip3"><rect x="24" y="21" width="2" height="9"/></clipPath><g clip-path="url(#_clip3)"><rect x="23" y="21" width="4" height="2" fill="#51351e"/></g><path d="m29 19c0-0.552-0.448-1-1-1h-6c-0.552 0-1 0.448-1 1v2c0 0.552 0.448 1 1 1h6c0.552 0 1-0.448 1-1v-2z" fill="#a1693b"/></g></svg>
