<?xml version="1.0" encoding="UTF-8"?>
<!DOCTYPE svg  PUBLIC '-//W3C//DTD SVG 1.1//EN'  'http://www.w3.org/Graphics/SVG/1.1/DTD/svg11.dtd'>
<svg clip-rule="evenodd" fill-rule="evenodd" stroke-linejoin="round" stroke-miterlimit="1.4142" version="1.1" viewBox="0 0 32 32" xml:space="preserve" xmlns="http://www.w3.org/2000/svg">
<metadata>
<rdf:RDF xmlns:cc="http://web.resource.org/cc/" xmlns:dc="http://purl.org/dc/elements/1.1/" xmlns:rdf="http://www.w3.org/1999/02/22-rdf-syntax-ns#">

     <rdf:Description rdf:about="">
       <dc:title>Mutant Standard emoji 2023.12</dc:title>
     </rdf:Description>

    <cc:work rdf:about="">
        <cc:license rdf:resource="http://creativecommons.org/licenses/by-nc-sa/4.0/"/>
        <cc:attributionName>Caius Nocturne</cc:attributionName>
        <cc:attributionURL>http://mutant.tech/</cc:attributionURL>
    </cc:work>

</rdf:RDF>
</metadata>
<rect id="mechanic" width="32" height="32" fill="none"/><clipPath id="_clip1"><rect width="32" height="32"/></clipPath><g clip-path="url(#_clip1)"><g id="outline"><path d="m8.042 23.278c-0.503-0.397-0.959-0.856-1.353-1.362-0.461-0.592-0.838-1.248-1.117-1.945-0.254-0.636-0.427-1.305-0.511-1.985-0.037-0.294-0.055-0.59-0.06-0.887-5e-3 -0.733-5e-3 -1.465 0-2.198 5e-3 -0.264 0.019-0.527 0.048-0.79 0.069-0.616 0.21-1.224 0.419-1.808 0.364-1.016 0.935-1.955 1.669-2.746 0.869-0.936 1.962-1.658 3.166-2.089 0.835-0.299 1.712-0.451 2.598-0.467 0.099-1e-3 0.099-1e-3 0.198 0 0.854 0.015 1.699 0.157 2.506 0.435 1.177 0.405 2.253 1.087 3.122 1.978 0.799 0.82 1.419 1.811 1.805 2.889 0.142 0.397 0.252 0.805 0.33 1.219 0.436-0.549 1.013-0.984 1.671-1.244 0.308-0.122 0.631-0.204 0.96-0.246 0.135-0.017 0.269-0.026 0.405-0.031l2.102-0.026v0.025c0.068 0 0.136 2e-3 0.204 5e-3 0.102 6e-3 0.101 6e-3 0.203 0.015 0.396 0.046 0.782 0.139 1.151 0.295 1.013 0.429 1.821 1.276 2.199 2.31 0.15 0.41 0.225 0.837 0.242 1.272 9e-3 0.705 1e-3 1.411 1e-3 2.116-3e-3 0.202-0.013 0.403-0.038 0.604-0.055 0.445-0.171 0.882-0.342 1.296-0.188 0.453-0.442 0.877-0.752 1.256-0.255 0.311-0.547 0.59-0.868 0.831v10h-25c0-0.716-0.012-1.454 2e-3 -2.18 0.026-0.818 0.181-1.632 0.487-2.393 0.188-0.471 0.423-0.921 0.707-1.342 0.724-1.071 1.744-1.933 2.922-2.466 0.3-0.135 0.608-0.249 0.924-0.341zm12.375-3.279c-0.045 0.111-0.093 0.221-0.143 0.331-0.437 0.954-1.062 1.819-1.831 2.533-0.156 0.145-0.318 0.283-0.485 0.415 0.316 0.092 0.624 0.206 0.924 0.341 0.564 0.255 1.094 0.586 1.572 0.98 0.614 0.507 1.137 1.118 1.546 1.797v-4.396c-0.09-0.067-0.178-0.138-0.264-0.212-0.497-0.428-0.908-0.955-1.203-1.542-0.041-0.081-0.08-0.164-0.116-0.247z"/></g><g id="emoji"><path d="m21 30c0-2.761-2.239-5-5-5h-6c-2.761 0-5 2.239-5 5h16z" fill="#304fbd"/><clipPath id="_clip2"><path d="m21 30c0-2.761-2.239-5-5-5h-6c-2.761 0-5 2.239-5 5h16z"/></clipPath><g clip-path="url(#_clip2)"><rect x="11" y="24" width="4" height="7" fill="#fff"/><clipPath id="_clip3"><rect x="11" y="24" width="4" height="7"/></clipPath><g clip-path="url(#_clip3)"><circle cx="13" cy="24" r="4" fill="#F9D8C8"/></g></g><path d="m19 15c0-1.591-0.632-3.117-1.757-4.243-1.126-1.125-2.652-1.757-4.243-1.757s-3.117 0.632-4.243 1.757c-1.125 1.126-1.757 2.652-1.757 4.243v2c0 1.591 0.632 3.117 1.757 4.243 1.126 1.125 2.652 1.757 4.243 1.757s3.117-0.632 4.243-1.757c1.125-1.126 1.757-2.652 1.757-4.243v-2z" fill="#F9D8C8"/><clipPath id="_clip4"><path d="m19 15c0-1.591-0.632-3.117-1.757-4.243-1.126-1.125-2.652-1.757-4.243-1.757s-3.117 0.632-4.243 1.757c-1.125 1.126-1.757 2.652-1.757 4.243v2c0 1.591 0.632 3.117 1.757 4.243 1.126 1.125 2.652 1.757 4.243 1.757s3.117-0.632 4.243-1.757c1.125-1.126 1.757-2.652 1.757-4.243v-2z"/></clipPath><g clip-path="url(#_clip4)"><path d="m11 15c0-0.552-0.448-1-1-1s-1 0.448-1 1v1c0 0.552 0.448 1 1 1s1-0.448 1-1v-1zm6 0c0-0.552-0.448-1-1-1s-1 0.448-1 1v1c0 0.552 0.448 1 1 1s1-0.448 1-1v-1z"/></g><path d="m24 14v3l1 1 1-1v-3c1.105 0 2 0.895 2 2v2c0 0.796-0.316 1.559-0.879 2.121-0.319 0.32-0.703 0.56-1.121 0.707v9.172h-2v-9.172c-0.418-0.147-0.802-0.387-1.121-0.707-0.563-0.562-0.879-1.325-0.879-2.121v-2c0-1.105 0.895-2 2-2z" fill="#777"/></g></g></svg>
