<?xml version="1.0" encoding="UTF-8"?>
<!DOCTYPE svg  PUBLIC '-//W3C//DTD SVG 1.1//EN'  'http://www.w3.org/Graphics/SVG/1.1/DTD/svg11.dtd'>
<svg clip-rule="evenodd" fill-rule="evenodd" stroke-linejoin="round" stroke-miterlimit="1.4142" version="1.1" viewBox="0 0 32 32" xml:space="preserve" xmlns="http://www.w3.org/2000/svg">
<metadata>
<rdf:RDF xmlns:cc="http://web.resource.org/cc/" xmlns:dc="http://purl.org/dc/elements/1.1/" xmlns:rdf="http://www.w3.org/1999/02/22-rdf-syntax-ns#">

     <rdf:Description rdf:about="">
       <dc:title>Mutant Standard emoji 2023.12</dc:title>
     </rdf:Description>

    <cc:work rdf:about="">
        <cc:license rdf:resource="http://creativecommons.org/licenses/by-nc-sa/4.0/"/>
        <cc:attributionName>Caius Nocturne</cc:attributionName>
        <cc:attributionURL>http://mutant.tech/</cc:attributionURL>
    </cc:work>

</rdf:RDF>
</metadata>
<rect id="office_worker" width="32" height="32" fill="none"/><clipPath id="_clip1"><rect width="32" height="32"/></clipPath><g clip-path="url(#_clip1)"><g id="outline"><rect x="14" y="9" width="16" height="23" fill-rule="nonzero"/><rect x="16" y="11" width="12" height="19" fill="#fff"/><path d="m27 29h-11v-1h11v1zm0-3h-11v-1h11v1zm0-3h-11v-1h11v1zm0-3h-11v-1h11v1zm0-3h-11v-1h11v1zm0-3h-11v-1h11v1z" fill="#b4d7ec"/><path d="m26.97 12.243-1.97 7.88v1.412l-6.799 6.678-1.402-1.426 6.201-6.091v-0.819l2.03-8.12c0.647 0.162 1.293 0.324 1.94 0.486z" fill="#00a513" fill-rule="nonzero"/><path d="m27 22v2h-2.598l-2.524-5.004-2.004 2.988-1.768-3.537-2-4 1.788-0.894 2.232 4.463 1.996-2.976 3.512 6.96h1.366z" fill="#e50000" fill-rule="nonzero"/><path d="m7.043 23.279c-0.167-0.132-0.329-0.271-0.486-0.416-0.769-0.714-1.394-1.579-1.831-2.533-0.326-0.712-0.546-1.471-0.652-2.246-0.045-0.327-0.067-0.655-0.073-0.985-5e-3 -0.733-5e-3 -1.465 0-2.198 5e-3 -0.264 0.019-0.527 0.048-0.79 0.069-0.616 0.21-1.224 0.419-1.808 0.386-1.078 1.006-2.069 1.805-2.889 0.869-0.891 1.945-1.573 3.122-1.978 0.807-0.278 1.652-0.42 2.506-0.435 0.099-1e-3 0.099-1e-3 0.198 0 0.886 0.016 1.763 0.168 2.598 0.467 1.047 0.375 2.012 0.97 2.818 1.736 0.902 0.859 1.597 1.927 2.017 3.099 0.209 0.584 0.35 1.192 0.419 1.808 0.029 0.263 0.043 0.526 0.048 0.79 5e-3 0.733 5e-3 1.465 0 2.198-6e-3 0.33-0.028 0.658-0.073 0.985-0.088 0.646-0.256 1.281-0.498 1.887-0.279 0.697-0.656 1.353-1.117 1.945-0.394 0.506-0.849 0.965-1.353 1.362 0.316 0.092 0.624 0.206 0.924 0.341 0.564 0.255 1.094 0.586 1.572 0.98 1.134 0.937 1.959 2.228 2.325 3.653 0.147 0.569 0.217 1.154 0.221 1.742v2.006h-20c0-0.725-0.011-1.45 2e-3 -2.175 0.023-0.746 0.156-1.483 0.408-2.186 0.523-1.463 1.537-2.728 2.849-3.557 0.433-0.273 0.897-0.499 1.379-0.672 0.134-0.048 0.269-0.092 0.405-0.131z"/></g><g id="emoji"><path d="m20 30c0-2.761-2.239-5-5-5h-6.002c-1.326 0-2.597 0.527-3.534 1.464s-1.464 2.208-1.464 3.534v2e-3h16z" fill="#303030"/><clipPath id="_clip2"><path d="m20 30c0-2.761-2.239-5-5-5h-6.002c-1.326 0-2.597 0.527-3.534 1.464s-1.464 2.208-1.464 3.534v2e-3h16z"/></clipPath><g clip-path="url(#_clip2)"><rect x="9" y="26" width="6" height="4" fill="#fff"/><circle cx="12" cy="24" r="4" fill="#8DEBCF"/></g><path d="m18 15c0-1.591-0.632-3.117-1.757-4.243-1.126-1.125-2.652-1.757-4.243-1.757s-3.117 0.632-4.243 1.757c-1.125 1.126-1.757 2.652-1.757 4.243v2c0 1.591 0.632 3.117 1.757 4.243 1.126 1.125 2.652 1.757 4.243 1.757s3.117-0.632 4.243-1.757c1.125-1.126 1.757-2.652 1.757-4.243v-2z" fill="#8DEBCF"/><clipPath id="_clip3"><path d="m18 15c0-1.591-0.632-3.117-1.757-4.243-1.126-1.125-2.652-1.757-4.243-1.757s-3.117 0.632-4.243 1.757c-1.125 1.126-1.757 2.652-1.757 4.243v2c0 1.591 0.632 3.117 1.757 4.243 1.126 1.125 2.652 1.757 4.243 1.757s3.117-0.632 4.243-1.757c1.125-1.126 1.757-2.652 1.757-4.243v-2z"/></clipPath><g clip-path="url(#_clip3)"><path d="m16 15c0-0.552-0.448-1-1-1s-1 0.448-1 1v1c0 0.552 0.448 1 1 1s1-0.448 1-1v-1zm-6 0c0-0.552-0.448-1-1-1s-1 0.448-1 1v1c0 0.552 0.448 1 1 1s1-0.448 1-1v-1z"/></g></g></g></svg>
