<?xml version="1.0" encoding="UTF-8"?>
<!DOCTYPE svg  PUBLIC '-//W3C//DTD SVG 1.1//EN'  'http://www.w3.org/Graphics/SVG/1.1/DTD/svg11.dtd'>
<svg clip-rule="evenodd" fill-rule="evenodd" stroke-linejoin="round" stroke-miterlimit="1.4142" version="1.1" viewBox="0 0 32 32" xml:space="preserve" xmlns="http://www.w3.org/2000/svg">
<metadata>
<rdf:RDF xmlns:cc="http://web.resource.org/cc/" xmlns:dc="http://purl.org/dc/elements/1.1/" xmlns:rdf="http://www.w3.org/1999/02/22-rdf-syntax-ns#">

     <rdf:Description rdf:about="">
       <dc:title>Mutant Standard emoji 2023.12</dc:title>
     </rdf:Description>

    <cc:work rdf:about="">
        <cc:license rdf:resource="http://creativecommons.org/licenses/by-nc-sa/4.0/"/>
        <cc:attributionName>Caius Nocturne</cc:attributionName>
        <cc:attributionURL>http://mutant.tech/</cc:attributionURL>
    </cc:work>

</rdf:RDF>
</metadata>
<rect id="pilot" width="32" height="32" fill="none"/><clipPath id="_clip1"><rect width="32" height="32"/></clipPath><g clip-path="url(#_clip1)"><g id="outline"><path d="m8.076 13.897c-0.025-6e-3 -0.05-0.013-0.075-0.019-0.384-0.103-0.75-0.269-1.081-0.49-0.293-0.196-0.557-0.435-0.782-0.707-0.201-0.242-0.369-0.511-0.5-0.797-0.392-0.854-0.437-1.846-0.122-2.732 0.119-0.335 0.288-0.652 0.499-0.939 0.081-0.109 0.169-0.212 0.26-0.313 0.863-0.897 1.753-1.767 2.638-2.641 0.33-0.318 0.682-0.61 1.06-0.869 0.802-0.548 1.704-0.948 2.648-1.173 0.573-0.137 1.157-0.205 1.745-0.216 1.089-7e-3 2.179-7e-3 3.268 0 0.458 8e-3 0.913 0.05 1.364 0.135 0.986 0.184 1.936 0.557 2.785 1.094 0.47 0.297 0.904 0.644 1.304 1.029 0.857 0.847 1.704 1.703 2.556 2.555 0.121 0.127 0.237 0.257 0.341 0.399 0.212 0.286 0.38 0.604 0.5 0.939 0.132 0.373 0.203 0.768 0.209 1.164 5e-3 0.357-0.042 0.714-0.141 1.057-0.113 0.391-0.292 0.764-0.527 1.096-0.358 0.505-0.845 0.914-1.404 1.18-0.224 0.106-0.459 0.19-0.7 0.248 0.046 0.332 0.072 0.667 0.078 1.003 5e-3 0.733 5e-3 1.467 0 2.2-5e-3 0.296-0.023 0.592-0.06 0.886-0.084 0.68-0.257 1.349-0.511 1.985-0.279 0.697-0.656 1.354-1.117 1.945-0.394 0.506-0.85 0.965-1.353 1.362 0.316 0.092 0.624 0.206 0.924 0.341 0.564 0.255 1.094 0.586 1.572 0.98 1.134 0.937 1.959 2.228 2.325 3.653 0.147 0.569 0.217 1.154 0.221 1.742v2.006h-20c0-0.725-0.011-1.45 2e-3 -2.175 0.023-0.746 0.156-1.483 0.408-2.186 0.523-1.463 1.537-2.728 2.849-3.557 0.433-0.273 0.897-0.499 1.379-0.672 0.134-0.048 0.269-0.092 0.405-0.131-0.167-0.132-0.329-0.271-0.486-0.416-0.769-0.714-1.395-1.579-1.831-2.533-0.326-0.712-0.546-1.471-0.652-2.246-0.045-0.327-0.067-0.655-0.073-0.985-5e-3 -0.733-5e-3 -1.465 0-2.198 5e-3 -0.264 0.019-0.527 0.048-0.79 8e-3 -0.071 0.017-0.143 0.027-0.214z"/></g><g id="emoji"><path d="m24 30c0-2.761-2.239-5-5-5h-6.002c-1.326 0-2.597 0.527-3.534 1.464s-1.464 2.208-1.464 3.534v2e-3h16z" fill="#323232"/><clipPath id="_clip2"><path d="m24 30c0-2.761-2.239-5-5-5h-6.002c-1.326 0-2.597 0.527-3.534 1.464s-1.464 2.208-1.464 3.534v2e-3h16z"/></clipPath><g clip-path="url(#_clip2)"><rect x="14" y="26" width="4" height="6" fill="#fff"/><circle cx="16" cy="24" r="4" fill="#885030"/></g><path d="m22 15c0-1.591-0.632-3.117-1.757-4.243-1.126-1.125-2.652-1.757-4.243-1.757s-3.117 0.632-4.243 1.757c-1.125 1.126-1.757 2.652-1.757 4.243v2c0 1.591 0.632 3.117 1.757 4.243 1.126 1.125 2.652 1.757 4.243 1.757s3.117-0.632 4.243-1.757c1.125-1.126 1.757-2.652 1.757-4.243v-2z" fill="#885030"/><clipPath id="_clip3"><path d="m22 15c0-1.591-0.632-3.117-1.757-4.243-1.126-1.125-2.652-1.757-4.243-1.757s-3.117 0.632-4.243 1.757c-1.125 1.126-1.757 2.652-1.757 4.243v2c0 1.591 0.632 3.117 1.757 4.243 1.126 1.125 2.652 1.757 4.243 1.757s3.117-0.632 4.243-1.757c1.125-1.126 1.757-2.652 1.757-4.243v-2z"/></clipPath><g clip-path="url(#_clip3)"><path d="m5.638 11.884c-0.392-0.854 20.622 0.253 20.387 0.585-0.358 0.505-0.845 0.914-1.404 1.18-0.321 0.152-0.665 0.258-1.017 0.311-0.124 0.018-0.248 0.029-0.374 0.036-0.046 0.081-0.047 0.08-0.097 0.16-0.154 0.232-0.322 0.451-0.518 0.65-0.482 0.489-1.088 0.85-1.748 1.039-0.315 0.091-0.635 0.136-0.962 0.153-2.562 0.045-5.124 2e-3 -7.687 2e-3 -0.275-5e-3 -0.547-0.03-0.817-0.088-0.762-0.162-1.469-0.55-2.016-1.106-0.229-0.232-0.421-0.491-0.592-0.769l-0.023-0.041-0.105-6e-3 -0.135-0.013c-0.179-0.023-0.355-0.053-0.529-0.099-0.384-0.103-0.75-0.269-1.081-0.49-0.293-0.196-0.557-0.435-0.782-0.707-0.201-0.242-0.369-0.511-0.5-0.797z" fill="#6C320E" fill-rule="nonzero"/><path d="m20 15c0-0.552-0.448-1-1-1s-1 0.448-1 1v1c0 0.552 0.448 1 1 1s1-0.448 1-1v-1zm-6 0c0-0.552-0.448-1-1-1s-1 0.448-1 1v1c0 0.552 0.448 1 1 1s1-0.448 1-1v-1z"/></g><path d="m10 12 0.447 0.894c0.339 0.678 1.032 1.106 1.789 1.106h7.528c0.757 0 1.45-0.428 1.789-1.106l0.447-0.894h1.062c0.66 0 1.255-0.397 1.507-1.007 0.253-0.609 0.113-1.311-0.354-1.778l-2.472-2.472c-1.116-1.116-2.63-1.743-4.208-1.743h-3.07c-1.578 0-3.092 0.627-4.208 1.743l-2.472 2.472c-0.467 0.467-0.607 1.169-0.354 1.778 0.252 0.61 0.847 1.007 1.507 1.007h1.062z" fill="#323232"/><clipPath id="_clip4"><path d="m10 12 0.447 0.894c0.339 0.678 1.032 1.106 1.789 1.106h7.528c0.757 0 1.45-0.428 1.789-1.106l0.447-0.894h1.062c0.66 0 1.255-0.397 1.507-1.007 0.253-0.609 0.113-1.311-0.354-1.778l-2.472-2.472c-1.116-1.116-2.63-1.743-4.208-1.743h-3.07c-1.578 0-3.092 0.627-4.208 1.743l-2.472 2.472c-0.467 0.467-0.607 1.169-0.354 1.778 0.252 0.61 0.847 1.007 1.507 1.007h1.062z"/></clipPath><g clip-path="url(#_clip4)" fill="#cdad2c"><path d="m17.964 7.555c0.204-0.307 0.223-0.702 0.049-1.027s-0.513-0.528-0.882-0.528h-2.262c-0.369 0-0.708 0.203-0.882 0.528s-0.155 0.72 0.049 1.027c0.245 0.367 0.487 0.729 0.667 1 0.186 0.278 0.498 0.445 0.832 0.445h0.93c0.334 0 0.646-0.167 0.832-0.445 0.18-0.271 0.422-0.633 0.667-1z"/><rect x="7" y="11" width="18" height="1"/></g></g></g></svg>
