<?xml version="1.0" encoding="UTF-8"?>
<!DOCTYPE svg  PUBLIC '-//W3C//DTD SVG 1.1//EN'  'http://www.w3.org/Graphics/SVG/1.1/DTD/svg11.dtd'>
<svg clip-rule="evenodd" fill-rule="evenodd" stroke-linejoin="round" stroke-miterlimit="1.4142" version="1.1" viewBox="0 0 32 32" xml:space="preserve" xmlns="http://www.w3.org/2000/svg">
<metadata>
<rdf:RDF xmlns:cc="http://web.resource.org/cc/" xmlns:dc="http://purl.org/dc/elements/1.1/" xmlns:rdf="http://www.w3.org/1999/02/22-rdf-syntax-ns#">

     <rdf:Description rdf:about="">
       <dc:title>Mutant Standard emoji 2023.12</dc:title>
     </rdf:Description>

    <cc:work rdf:about="">
        <cc:license rdf:resource="http://creativecommons.org/licenses/by-nc-sa/4.0/"/>
        <cc:attributionName>Caius Nocturne</cc:attributionName>
        <cc:attributionURL>http://mutant.tech/</cc:attributionURL>
    </cc:work>

</rdf:RDF>
</metadata>
<rect id="scientist" width="32" height="32" fill="none"/><clipPath id="_clip1"><rect width="32" height="32"/></clipPath><g clip-path="url(#_clip1)"><g id="outline"><path d="m24.472 32h-21.472c0-0.716-0.012-1.454 2e-3 -2.18 0.026-0.818 0.181-1.632 0.487-2.393 0.188-0.471 0.423-0.921 0.707-1.342 0.724-1.071 1.744-1.933 2.922-2.466 0.3-0.135 0.608-0.249 0.924-0.341-0.167-0.132-0.329-0.27-0.485-0.415-0.769-0.714-1.394-1.579-1.831-2.533-0.312-0.682-0.528-1.407-0.638-2.149-0.054-0.358-0.081-0.719-0.087-1.081-5e-3 -0.733-5e-3 -1.467 0-2.2 5e-3 -0.296 0.023-0.592 0.06-0.886 0.072-0.584 0.209-1.159 0.408-1.712 0.341-0.953 0.864-1.839 1.535-2.598 0.911-1.032 2.089-1.819 3.391-2.268 0.807-0.278 1.652-0.42 2.506-0.435 0.099-1e-3 0.099-1e-3 0.198 0 0.297 5e-3 0.593 0.023 0.887 0.06 0.616 0.076 1.222 0.225 1.803 0.441 1.043 0.388 2.001 0.994 2.797 1.771 0.79 0.771 1.416 1.705 1.83 2.727h8.584v3.828l-1 1c0 3.921 0.05 7.841-1e-3 11.761-6e-3 0.148-0.017 0.295-0.039 0.442-0.053 0.342-0.156 0.676-0.306 0.988-0.195 0.404-0.468 0.769-0.8 1.071-0.313 0.285-0.677 0.512-1.07 0.667-0.38 0.15-0.786 0.232-1.195 0.242-0.039 1e-3 -0.078 1e-3 -0.117 1e-3zm-3.472-15.007-1e-3 0.106c-6e-3 0.33-0.028 0.658-0.073 0.985-0.088 0.646-0.256 1.281-0.498 1.887-0.279 0.696-0.656 1.353-1.117 1.945-0.395 0.508-0.852 0.965-1.355 1.362 0.316 0.091 0.626 0.206 0.926 0.341 0.564 0.255 1.094 0.586 1.572 0.98 0.191 0.158 0.373 0.326 0.546 0.503v-8.109z"/></g><g id="emoji"><path d="m16.854 25.073c2.355 0.405 4.146 2.457 4.146 4.927h-16c0-2.47 1.791-4.522 4.146-4.927 0.469 1.687 7.239 1.687 7.708 0z" fill="#fff"/><clipPath id="_clip2"><path d="m16.854 25.073c2.355 0.405 4.146 2.457 4.146 4.927h-16c0-2.47 1.791-4.522 4.146-4.927 0.469 1.687 7.239 1.687 7.708 0z"/></clipPath><g clip-path="url(#_clip2)"><rect x="11" y="26" width="4" height="5" fill="#878787"/></g><path d="m9.146 25.073c0.277-0.048 0.563-0.073 0.854-0.073h6c0.291 0 0.577 0.025 0.854 0.073-0.469 1.687-2.018 2.927-3.854 2.927s-3.385-1.24-3.854-2.927z" fill="#E91C2A"/><path d="m19 15c0-1.591-0.632-3.117-1.757-4.243-1.126-1.125-2.652-1.757-4.243-1.757s-3.117 0.632-4.243 1.757c-1.125 1.126-1.757 2.652-1.757 4.243v2c0 1.591 0.632 3.117 1.757 4.243 1.126 1.125 2.652 1.757 4.243 1.757s3.117-0.632 4.243-1.757c1.125-1.126 1.757-2.652 1.757-4.243v-2z" fill="#E91C2A"/><clipPath id="_clip3"><path d="m19 15c0-1.591-0.632-3.117-1.757-4.243-1.126-1.125-2.652-1.757-4.243-1.757s-3.117 0.632-4.243 1.757c-1.125 1.126-1.757 2.652-1.757 4.243v2c0 1.591 0.632 3.117 1.757 4.243 1.126 1.125 2.652 1.757 4.243 1.757s3.117-0.632 4.243-1.757c1.125-1.126 1.757-2.652 1.757-4.243v-2z"/></clipPath><g clip-path="url(#_clip3)"><path d="m17 15c0-0.552-0.448-1-1-1s-1 0.448-1 1v1c0 0.552 0.448 1 1 1s1-0.448 1-1v-1zm-6 0c0-0.552-0.448-1-1-1s-1 0.448-1 1v1c0 0.552 0.448 1 1 1s1-0.448 1-1v-1z"/></g><path d="m27 14h-5v1l1 1v12.5c0 0.828 0.672 1.5 1.5 1.5s1.5-0.672 1.5-1.5v-12.5l1-1v-1z" fill="#e6e6e6"/><clipPath id="_clip4"><path d="m27 14h-5v1l1 1v12.5c0 0.828 0.672 1.5 1.5 1.5s1.5-0.672 1.5-1.5v-12.5l1-1v-1z"/></clipPath><g clip-path="url(#_clip4)"><rect x="22" y="21" width="5" height="10" fill="#00a84c"/><path d="m25 21h-1v7.5c0 0.276 0.224 0.5 0.5 0.5s0.5-0.224 0.5-0.5v-7.5z" fill="#00d761"/></g></g></g></svg>
