<?xml version="1.0" encoding="UTF-8"?>
<!DOCTYPE svg  PUBLIC '-//W3C//DTD SVG 1.1//EN'  'http://www.w3.org/Graphics/SVG/1.1/DTD/svg11.dtd'>
<svg clip-rule="evenodd" fill-rule="evenodd" stroke-linejoin="round" stroke-miterlimit="1.4142" version="1.1" viewBox="0 0 32 32" xml:space="preserve" xmlns="http://www.w3.org/2000/svg">
<metadata>
<rdf:RDF xmlns:cc="http://web.resource.org/cc/" xmlns:dc="http://purl.org/dc/elements/1.1/" xmlns:rdf="http://www.w3.org/1999/02/22-rdf-syntax-ns#">

     <rdf:Description rdf:about="">
       <dc:title>Mutant Standard emoji 2023.12</dc:title>
     </rdf:Description>

    <cc:work rdf:about="">
        <cc:license rdf:resource="http://creativecommons.org/licenses/by-nc-sa/4.0/"/>
        <cc:attributionName>Caius Nocturne</cc:attributionName>
        <cc:attributionURL>http://mutant.tech/</cc:attributionURL>
    </cc:work>

</rdf:RDF>
</metadata>
<rect id="singer" width="32" height="32" fill="none"/><clipPath id="_clip1"><rect width="32" height="32"/></clipPath><g clip-path="url(#_clip1)"><g id="outline"><path d="m7.043 23.279c-0.142-0.112-0.279-0.228-0.413-0.349-0.778-0.704-1.414-1.562-1.863-2.512-0.32-0.677-0.545-1.4-0.664-2.14-0.058-0.357-0.089-0.717-0.101-1.079-0.014-0.766-6e-3 -1.532-1e-3 -2.298 0.015-0.854 0.157-1.699 0.435-2.506 0.384-1.114 1.015-2.138 1.837-2.981 0.846-0.867 1.889-1.537 3.03-1.946 0.835-0.299 1.712-0.451 2.598-0.467 0.099-1e-3 0.099-1e-3 0.198 0 0.886 0.016 1.763 0.168 2.598 0.467 1.141 0.409 2.184 1.078 3.03 1.946 0.822 0.843 1.453 1.867 1.837 2.981 0.226 0.657 0.362 1.34 0.414 2.032 0.402-0.178 0.828-0.303 1.263-0.37 0.209-0.032 0.419-0.047 0.631-0.056 0.129-1e-3 0.128-1e-3 0.256 0 0.212 9e-3 0.422 0.024 0.631 0.056 0.528 0.081 1.043 0.248 1.518 0.491 0.381 0.195 0.734 0.439 1.051 0.722l4.672 1.168v5.124l-1 0.25v10.188h-6v-8.101c-0.329 0.067-0.664 0.101-1 0.101-0.667 0-1.332-0.134-1.947-0.394-0.555-0.235-1.066-0.571-1.503-0.987-0.153-0.146-0.297-0.302-0.43-0.466-0.348 0.413-0.738 0.79-1.162 1.125 0.316 0.092 0.624 0.206 0.924 0.341 0.564 0.255 1.094 0.586 1.572 0.98 1.089 0.899 1.894 2.126 2.28 3.486 0.177 0.622 0.262 1.263 0.266 1.909v2.006h-20c0-0.725-0.012-1.451 2e-3 -2.176 0.023-0.746 0.156-1.482 0.408-2.186 0.172-0.482 0.399-0.945 0.672-1.379 0.829-1.312 2.094-2.326 3.556-2.849 0.134-0.048 0.269-0.092 0.405-0.131z"/></g><g id="emoji"><path d="m15.854 25.073c2.355 0.405 4.146 2.457 4.146 4.927h-16c0-2.47 1.791-4.522 4.146-4.927 0.469 1.687 7.239 1.687 7.708 0z" fill="#999"/><path d="m8.146 25.073c0.277-0.048 0.563-0.073 0.854-0.073h6c0.291 0 0.577 0.025 0.854 0.073-0.469 1.687-2.018 2.927-3.854 2.927s-3.385-1.24-3.854-2.927z" fill="#C596FD"/><path d="m17.126 20.118c-0.247 0.406-0.542 0.784-0.883 1.125-1.126 1.125-2.652 1.757-4.243 1.757s-3.117-0.632-4.243-1.757c-1.125-1.126-1.757-2.652-1.757-4.243v-2c0-1.591 0.632-3.117 1.757-4.243 1.126-1.125 2.652-1.757 4.243-1.757s3.117 0.632 4.243 1.757c1.125 1.126 1.757 2.652 1.757 4.243v1.002c-0.195 0.259-0.901 3.997-0.874 4.116z" fill="#C596FD"/><path d="m18 16.002v0.998c0 1.109-0.307 2.186-0.874 3.118-0.027-0.119-0.05-0.238-0.069-0.359-0.076-0.502-0.076-1.016 0-1.518 0.075-0.488 0.223-0.965 0.437-1.41 0.142-0.293 0.311-0.57 0.506-0.829z" fill="#5E3583"/><path d="m16 19c0-1.105-0.895-2-2-2s-2 0.895-2 2 0.895 2 2 2 2-0.895 2-2zm3-4.001c0-0.265-0.105-0.519-0.293-0.706-0.187-0.188-0.441-0.293-0.706-0.293h-2.002c-0.265 0-0.519 0.105-0.706 0.293-0.188 0.187-0.293 0.441-0.293 0.706v2e-3c0 0.265 0.105 0.519 0.293 0.706 0.187 0.188 0.441 0.293 0.706 0.293h2.002c0.265 0 0.519-0.105 0.706-0.293 0.188-0.187 0.293-0.441 0.293-0.706v-2e-3zm-6 0c0-0.265-0.105-0.519-0.293-0.706-0.187-0.188-0.441-0.293-0.706-0.293h-2.002c-0.265 0-0.519 0.105-0.706 0.293-0.188 0.187-0.293 0.441-0.293 0.706v2e-3c0 0.265 0.105 0.519 0.293 0.706 0.187 0.188 0.441 0.293 0.706 0.293h2.002c0.265 0 0.519-0.105 0.706-0.293 0.188-0.187 0.293-0.441 0.293-0.706v-2e-3z"/><rect x="25" y="19" width="2" height="11" fill="#808080"/><path d="m22 16.5v5l6-1.5v-2l-6-1.5z" fill="#333"/><circle cx="22" cy="19" r="3" fill="#a5a5a5"/></g></g></svg>
