<?xml version="1.0" encoding="UTF-8"?>
<!DOCTYPE svg  PUBLIC '-//W3C//DTD SVG 1.1//EN'  'http://www.w3.org/Graphics/SVG/1.1/DTD/svg11.dtd'>
<svg clip-rule="evenodd" fill-rule="evenodd" stroke-linejoin="round" stroke-miterlimit="1.4142" version="1.1" viewBox="0 0 32 32" xml:space="preserve" xmlns="http://www.w3.org/2000/svg">
<metadata>
<rdf:RDF xmlns:cc="http://web.resource.org/cc/" xmlns:dc="http://purl.org/dc/elements/1.1/" xmlns:rdf="http://www.w3.org/1999/02/22-rdf-syntax-ns#">

     <rdf:Description rdf:about="">
       <dc:title>Mutant Standard emoji 2023.12</dc:title>
     </rdf:Description>

    <cc:work rdf:about="">
        <cc:license rdf:resource="http://creativecommons.org/licenses/by-nc-sa/4.0/"/>
        <cc:attributionName>Caius Nocturne</cc:attributionName>
        <cc:attributionURL>http://mutant.tech/</cc:attributionURL>
    </cc:work>

</rdf:RDF>
</metadata>
<rect id="student" width="32" height="32" fill="none"/><clipPath id="_clip1"><rect width="32" height="32"/></clipPath><g clip-path="url(#_clip1)"><g id="outline"><path d="m9.06 11.021-4.834-3.021 11.774-7.358c3.925 2.452 7.849 4.905 11.774 7.358l-4.834 3.021c0.234 0.409 0.433 0.838 0.592 1.281 0.198 0.554 0.335 1.129 0.407 1.712 0.037 0.294 0.055 0.59 0.06 0.887 5e-3 0.732 5e-3 1.466 0 2.198-6e-3 0.363-0.033 0.724-0.087 1.082-0.11 0.742-0.326 1.467-0.638 2.149-0.437 0.954-1.062 1.819-1.831 2.533-0.156 0.145-0.318 0.283-0.485 0.415 0.315 0.092 0.624 0.206 0.924 0.341 0.564 0.255 1.094 0.586 1.572 0.98 1.089 0.899 1.894 2.126 2.28 3.486 0.177 0.622 0.262 1.263 0.266 1.909v2.006h-20c0-0.725-0.012-1.451 2e-3 -2.176 0.023-0.746 0.156-1.482 0.408-2.186 0.172-0.482 0.399-0.945 0.672-1.379 0.829-1.312 2.094-2.326 3.556-2.849 0.134-0.048 0.269-0.092 0.405-0.131-0.504-0.398-0.96-0.856-1.354-1.363-0.461-0.591-0.838-1.248-1.117-1.945-0.242-0.605-0.41-1.241-0.498-1.887-0.045-0.327-0.067-0.655-0.073-0.985-5e-3 -0.732-5e-3 -1.466 0-2.198 0.015-0.854 0.157-1.699 0.435-2.506 0.164-0.477 0.374-0.937 0.624-1.374z"/></g><g id="emoji"><path d="m19.854 25.073c2.355 0.405 4.146 2.457 4.146 4.927h-16c0-2.47 1.791-4.522 4.146-4.927 0.469 1.687 7.239 1.687 7.708 0z" fill="#333"/><path d="m12.146 25.073c0.277-0.048 0.563-0.073 0.854-0.073h6c0.291 0 0.577 0.025 0.854 0.073-0.469 1.687-2.018 2.927-3.854 2.927s-3.385-1.24-3.854-2.927z" fill="#6DD349"/><path d="m21.657 13c0.225 0.636 0.343 1.312 0.343 2v2c0 1.591-0.632 3.117-1.757 4.243-1.126 1.125-2.652 1.757-4.243 1.757s-3.117-0.632-4.243-1.757c-1.125-1.126-1.757-2.652-1.757-4.243v-2c0-0.688 0.118-1.364 0.343-2h11.314z" fill="#6DD349"/><path d="m10.269 9.418-2.269-1.418 8-5 8 5-2.269 1.418h-11.462z" fill="#333"/><path d="m10.269 9.418c0.847-0.869 1.891-1.54 3.034-1.95 0.835-0.299 1.712-0.451 2.598-0.467 0.099-1e-3 0.099-1e-3 0.198 0 0.854 0.015 1.699 0.157 2.506 0.435 1.145 0.395 2.196 1.051 3.052 1.907 0.025 0.025 0.049 0.05 0.074 0.075l-5.498 3.436c-0.152 3e-3 -0.303 5e-3 -0.455 7e-3l-5.509-3.443z" fill="#1e1e1e"/><path d="m10.343 13c0.296-0.836 0.776-1.604 1.414-2.243 1.126-1.125 2.652-1.757 4.243-1.757s3.117 0.632 4.243 1.757c0.638 0.639 1.118 1.407 1.414 2.243h-11.314z" fill="#333"/><path d="m20 15c0-0.552-0.448-1-1-1s-1 0.448-1 1v1c0 0.552 0.448 1 1 1s1-0.448 1-1v-1zm-6 0c0-0.552-0.448-1-1-1s-1 0.448-1 1v1c0 0.552 0.448 1 1 1s1-0.448 1-1v-1z"/><rect x="9" y="12" width="14" height="2"/><path d="m13 4.875v5.625c0 0.265-0.105 0.52-0.293 0.707-0.187 0.188-0.442 0.293-0.707 0.293s-0.52-0.105-0.707-0.293c-0.188-0.187-0.293-0.442-0.293-0.707v-4.375l2-1.25z" fill="#b89d43"/></g></g></svg>
