<?xml version="1.0" encoding="UTF-8"?>
<!DOCTYPE svg  PUBLIC '-//W3C//DTD SVG 1.1//EN'  'http://www.w3.org/Graphics/SVG/1.1/DTD/svg11.dtd'>
<svg clip-rule="evenodd" fill-rule="evenodd" stroke-linecap="round" stroke-linejoin="round" stroke-miterlimit="1.5" version="1.1" viewBox="0 0 32 32" xml:space="preserve" xmlns="http://www.w3.org/2000/svg">
<metadata>
<rdf:RDF xmlns:cc="http://web.resource.org/cc/" xmlns:dc="http://purl.org/dc/elements/1.1/" xmlns:rdf="http://www.w3.org/1999/02/22-rdf-syntax-ns#">

     <rdf:Description rdf:about="">
       <dc:title>Mutant Standard emoji 2023.12</dc:title>
     </rdf:Description>

    <cc:work rdf:about="">
        <cc:license rdf:resource="http://creativecommons.org/licenses/by-nc-sa/4.0/"/>
        <cc:attributionName>Caius Nocturne</cc:attributionName>
        <cc:attributionURL>http://mutant.tech/</cc:attributionURL>
    </cc:work>

</rdf:RDF>
</metadata>

    <rect id="avocado" width="32" height="32" fill="none"/>
    <g id="outline">
        <path d="m15.937 30c-2.65-8e-3 -5.344-0.515-7.451-2.529-2.22-2.122-3.068-4.57-2.502-8.213 0.546-3.513 1.856-4.214 3.283-7.863 1.374-3.516 1.378-4.64 2.594-6.72 1.051-1.798 2.381-2.675 4.139-2.675h0.041c1.738 0.014 3.055 0.891 4.098 2.675 1.216 2.08 1.22 3.204 2.594 6.72 1.427 3.649 2.737 4.35 3.283 7.863 0.566 3.643-0.282 6.091-2.502 8.213-2.124 2.03-4.843 2.529-7.514 2.529h-0.063z" fill="none" stroke="#000" stroke-width="4px"/>
    </g>
    <g id="emoji">
        <path d="m15.937 30c-2.65-8e-3 -5.344-0.515-7.451-2.529-2.22-2.122-3.068-4.57-2.502-8.213 0.546-3.513 1.856-4.214 3.283-7.863 1.374-3.516 1.378-4.64 2.594-6.72 1.051-1.798 2.381-2.675 4.139-2.675h0.041c1.738 0.014 3.055 0.891 4.098 2.675 1.216 2.08 1.22 3.204 2.594 6.72 1.427 3.649 2.737 4.35 3.283 7.863 0.566 3.643-0.282 6.091-2.502 8.213-2.124 2.03-4.843 2.529-7.514 2.529h-0.063z" fill="#dde77f"/>
        <path d="m16.041 2 0.081 1e-3 0.081 3e-3 0.08 4e-3 0.079 5e-3 0.079 6e-3 0.078 8e-3 0.077 9e-3 0.077 0.01 0.077 0.011 0.075 0.013 0.076 0.014 0.074 0.015 0.074 0.017 0.074 0.018 0.072 0.019 0.073 0.02 0.072 0.022 0.071 0.023 0.07 0.024 0.07 0.025 0.07 0.027 0.069 0.028 0.136 0.06 0.068 0.032 0.066 0.033 0.067 0.035 0.066 0.036 0.065 0.037 0.065 0.038 0.064 0.04 0.063 0.041 0.064 0.042 0.062 0.044 0.063 0.045 0.061 0.046 0.061 0.047 0.061 0.049 0.06 0.05 0.06 0.051 0.059 0.053 0.059 0.054 0.058 0.055 0.058 0.057 0.058 0.058 0.056 0.059 0.057 0.061 0.056 0.061 0.11 0.128 0.055 0.066 0.054 0.067 0.054 0.068 0.053 0.07 0.053 0.071 0.052 0.072 0.052 0.074 0.052 0.075 0.051 0.076 0.051 0.078 0.05 0.079 0.05 0.08 0.05 0.082 0.049 0.083 0.056 0.097 0.054 0.095 0.053 0.094 0.051 0.094 0.05 0.092 0.048 0.09 0.047 0.091 0.045 0.089 0.044 0.088 0.043 0.088 0.042 0.087 0.04 0.086 0.078 0.172 0.074 0.17 0.071 0.17 0.068 0.169 0.065 0.17 0.064 0.171 0.062 0.173 0.061 0.175 0.061 0.179 0.061 0.182 0.123 0.376 0.129 0.399 0.139 0.425 0.074 0.224 0.077 0.233 0.082 0.242 0.087 0.251 0.092 0.262 0.097 0.273 0.104 0.284 0.11 0.297 0.118 0.309 0.124 0.323 0.067 0.169 0.067 0.164 0.066 0.161 0.066 0.157 0.066 0.153 0.066 0.149 0.066 0.146 0.065 0.142 0.065 0.139 0.064 0.136 0.064 0.133 0.064 0.13 0.064 0.128 0.063 0.125 0.063 0.122 0.062 0.12 0.124 0.233 0.122 0.226 0.12 0.219 0.118 0.213 0.23 0.414 0.111 0.202 0.109 0.201 0.106 0.201 0.052 0.101 0.052 0.1 0.051 0.102 0.05 0.101 0.098 0.206 0.094 0.21 0.047 0.107 0.045 0.107 0.045 0.11 0.043 0.111 0.043 0.113 0.042 0.114 0.041 0.117 0.041 0.119 0.039 0.121 0.038 0.123 0.038 0.126 0.036 0.129 0.036 0.132 0.035 0.134 0.033 0.138 0.033 0.14 0.031 0.144 0.031 0.148 0.029 0.151 0.028 0.155 0.028 0.158 0.026 0.163 0.025 0.17 0.024 0.168 0.021 0.167 0.019 0.164 0.017 0.163 0.016 0.162 0.013 0.16 0.011 0.158 9e-3 0.156 7e-3 0.156 4e-3 0.153 3e-3 0.152 1e-3 0.15-1e-3 0.149-4e-3 0.148-5e-3 0.146-8e-3 0.144-9e-3 0.144-0.012 0.141-0.014 0.141-0.015 0.139-0.018 0.138-0.02 0.136-0.022 0.135-0.024 0.134-0.026 0.133-0.028 0.131-0.03 0.13-0.032 0.129-0.034 0.128-0.036 0.126-0.039 0.126-0.04 0.124-0.042 0.123-0.045 0.123-0.046 0.121-0.048 0.12-0.051 0.119-0.052 0.118-0.055 0.117-0.057 0.117-0.058 0.115-0.061 0.114-0.062 0.114-0.065 0.112-0.067 0.112-0.069 0.111-0.07 0.11-0.073 0.109-0.075 0.108-0.077 0.108-0.079 0.107-0.08 0.106-0.083 0.106-0.085 0.105-0.087 0.104-0.089 0.104-0.091 0.103-0.093 0.102-0.095 0.102-0.097 0.101-0.099 0.101-0.101 0.1-0.103 0.1-0.1 0.094-0.101 0.092-0.102 0.09-0.102 0.087-0.104 0.085-0.104 0.084-0.105 0.081-0.105 0.079-0.107 0.077-0.107 0.074-0.108 0.073-0.108 0.071-0.11 0.069-0.11 0.067-0.11 0.065-0.112 0.064-0.112 0.061-0.112 0.06-0.113 0.057-0.114 0.056-0.114 0.054-0.115 0.053-0.116 0.05-0.116 0.049-0.116 0.048-0.117 0.045-0.118 0.044-0.118 0.043-0.118 0.041-0.119 0.039-0.119 0.038-0.12 0.036-0.12 0.035-0.121 0.033-0.121 0.032-0.121 0.03-0.121 0.029-0.122 0.028-0.122 0.026-0.123 0.025-0.123 0.024-0.123 0.022-0.123 0.021-0.124 0.02-0.123 0.019-0.124 0.018-0.125 0.016-0.248 0.03-0.125 0.013-0.125 0.012-0.125 0.011-0.125 0.01-0.125 9e-3 -0.125 8e-3 -0.125 7e-3 -0.126 6e-3 -0.125 5e-3 -0.125 4e-3 -0.126 4e-3 -0.125 3e-3 -0.126 2e-3 -0.125 1e-3h-0.125-0.063l-0.248-2e-3 -0.125-3e-3 -0.124-3e-3 -0.124-4e-3 -0.125-4e-3 -0.248-0.012-0.125-8e-3 -0.124-8e-3 -0.124-9e-3 -0.248-0.022-0.124-0.012-0.123-0.014-0.124-0.014-0.246-0.032-0.123-0.018-0.123-0.019-0.122-0.021-0.123-0.021-0.122-0.023-0.121-0.024-0.122-0.025-0.121-0.026-0.121-0.028-0.12-0.029-0.121-0.031-0.119-0.032-0.12-0.033-0.119-0.035-0.119-0.036-0.118-0.038-0.118-0.039-0.117-0.041-0.117-0.043-0.117-0.044-0.116-0.045-0.115-0.048-0.115-0.049-0.114-0.05-0.114-0.052-0.114-0.054-0.113-0.056-0.112-0.058-0.111-0.059-0.111-0.061-0.111-0.063-0.109-0.065-0.109-0.067-0.109-0.068-0.107-0.071-0.107-0.072-0.107-0.075-0.105-0.076-0.105-0.079-0.104-0.08-0.103-0.083-0.103-0.085-0.102-0.087-0.1-0.089-0.1-0.091-0.1-0.093-0.103-0.1-0.101-0.1-0.099-0.101-0.097-0.101-0.095-0.102-0.093-0.102-0.091-0.103-0.089-0.104-0.087-0.104-0.085-0.105-0.083-0.106-0.08-0.106-0.079-0.107-0.077-0.108-0.075-0.108-0.073-0.109-0.07-0.11-0.069-0.111-0.067-0.112-0.065-0.112-0.062-0.114-0.061-0.114-0.058-0.115-0.057-0.117-0.055-0.117-0.052-0.118-0.051-0.119-0.048-0.12-0.046-0.121-0.045-0.123-0.042-0.123-0.04-0.124-0.039-0.126-0.036-0.126-0.034-0.128-0.032-0.129-0.03-0.13-0.028-0.131-0.026-0.133-0.024-0.134-0.022-0.135-0.02-0.136-0.018-0.138-0.015-0.139-0.014-0.141-0.012-0.141-9e-3 -0.144-8e-3 -0.144-5e-3 -0.146-4e-3 -0.148-1e-3 -0.149 1e-3 -0.15 3e-3 -0.152 4e-3 -0.153 7e-3 -0.156 9e-3 -0.156 0.011-0.158 0.013-0.16 0.016-0.162 0.017-0.163 0.019-0.164 0.021-0.167 0.024-0.168 0.025-0.17 0.026-0.163 0.028-0.158 0.028-0.155 0.029-0.151 0.031-0.148 0.031-0.144 0.033-0.14 0.033-0.138 0.035-0.134 0.036-0.132 0.036-0.129 0.038-0.126 0.038-0.123 0.039-0.121 0.041-0.119 0.041-0.117 0.042-0.114 0.043-0.113 0.043-0.111 0.045-0.11 0.045-0.107 0.047-0.107 0.094-0.21 0.098-0.206 0.05-0.101 0.051-0.102 0.052-0.1 0.052-0.101 0.106-0.201 0.109-0.201 0.111-0.202 0.23-0.414 0.118-0.213 0.12-0.219 0.122-0.226 0.124-0.233 0.062-0.12 0.063-0.122 0.063-0.125 0.064-0.128 0.064-0.13 0.064-0.133 0.064-0.136 0.065-0.139 0.065-0.142 0.066-0.146 0.066-0.149 0.066-0.153 0.066-0.157 0.066-0.161 0.067-0.164 0.067-0.169 0.124-0.323 0.118-0.309 0.11-0.297 0.104-0.284 0.097-0.273 0.092-0.262 0.087-0.251 0.082-0.242 0.077-0.233 0.074-0.224 0.139-0.425 0.129-0.399 0.123-0.376 0.061-0.182 0.061-0.179 0.061-0.175 0.062-0.173 0.064-0.171 0.065-0.17 0.068-0.169 0.071-0.17 0.074-0.17 0.078-0.172 0.04-0.086 0.042-0.087 0.043-0.088 0.044-0.088 0.045-0.089 0.047-0.091 0.048-0.09 0.05-0.092 0.051-0.094 0.053-0.094 0.054-0.095 0.056-0.097 0.05-0.084 0.05-0.082 0.05-0.081 0.102-0.158 0.051-0.076 0.052-0.076 0.053-0.074 0.053-0.073 0.053-0.072 0.054-0.07 0.054-0.068 0.055-0.068 0.055-0.066 0.055-0.065 0.056-0.063 0.057-0.063 0.114-0.12 0.058-0.058 0.058-0.057 0.118-0.11 0.12-0.104 0.061-0.05 0.062-0.049 0.061-0.048 0.063-0.046 0.062-0.045 0.128-0.086 0.064-0.041 0.13-0.078 0.066-0.037 0.066-0.035 0.067-0.035 0.068-0.033 0.068-0.032 0.069-0.03 0.069-0.029 0.07-0.028 0.07-0.027 0.071-0.025 0.071-0.024 0.144-0.044 0.074-0.02 0.073-0.019 0.074-0.017 0.075-0.016 0.076-0.015 0.076-0.014 0.076-0.012 0.078-0.011 0.077-9e-3 0.079-9e-3 0.079-7e-3 0.079-6e-3 0.081-4e-3 0.08-3e-3 0.082-2e-3 0.082-1e-3h0.041zm-0.107 1.001-0.066 1e-3 -0.065 3e-3 -0.063 3e-3 -0.063 5e-3 -0.062 5e-3 -0.062 7e-3 -0.061 8e-3 -0.059 8e-3 -0.06 9e-3 -0.116 0.022-0.057 0.013-0.056 0.013-0.056 0.014-0.055 0.015-0.055 0.016-0.054 0.017-0.053 0.018-0.053 0.019-0.053 0.02-0.052 0.021-0.052 0.022-0.051 0.022-0.051 0.024-0.051 0.025-0.05 0.026-0.05 0.027-0.05 0.028-0.05 0.029-0.049 0.03-0.049 0.031-0.049 0.032-0.096 0.068-0.049 0.036-0.048 0.037-0.048 0.038-0.047 0.04-0.048 0.04-0.047 0.042-0.048 0.044-0.047 0.044-0.047 0.046-0.047 0.047-0.047 0.048-0.046 0.05-0.047 0.052-0.046 0.052-0.046 0.054-0.047 0.056-0.046 0.057-0.045 0.058-0.046 0.059-0.046 0.062-0.045 0.062-0.045 0.064-0.046 0.066-0.045 0.067-0.044 0.068-0.045 0.07-0.044 0.071-0.044 0.073-0.045 0.075-0.052 0.09-0.05 0.089-0.05 0.088-0.047 0.086-0.046 0.085-0.044 0.084-0.043 0.083-0.042 0.082-0.04 0.08-0.039 0.081-0.039 0.08-0.037 0.079-0.036 0.079-0.034 0.076-0.069 0.158-0.065 0.156-0.063 0.157-0.061 0.158-0.06 0.161-0.059 0.164-0.058 0.167-0.059 0.172-0.058 0.176-0.122 0.372-0.129 0.398-0.139 0.428-0.076 0.227-0.079 0.237-0.083 0.246-0.088 0.257-0.094 0.267-0.1 0.278-0.106 0.291-0.112 0.302-0.12 0.316-0.127 0.329-0.07 0.176-0.069 0.172-0.069 0.167-0.07 0.164-0.069 0.16-0.068 0.156-0.069 0.153-0.068 0.149-0.068 0.145-0.067 0.142-0.067 0.139-0.067 0.136-0.066 0.133-0.066 0.13-0.066 0.127-0.065 0.126-0.127 0.24-0.126 0.232-0.122 0.223-0.119 0.216-0.229 0.412-0.109 0.198-0.105 0.195-0.103 0.192-0.048 0.094-0.049 0.095-0.047 0.094-0.046 0.095-0.046 0.094-0.045 0.095-0.086 0.192-0.042 0.096-0.041 0.098-0.04 0.099-0.04 0.1-0.038 0.102-0.038 0.103-0.037 0.105-0.037 0.107-0.035 0.109-0.035 0.111-0.034 0.114-0.033 0.117-0.032 0.12-0.032 0.122-0.03 0.126-0.03 0.129-0.029 0.132-0.028 0.136-0.027 0.141-0.027 0.143-0.025 0.148-0.025 0.153-0.023 0.159-0.022 0.158-0.02 0.155-0.018 0.154-0.016 0.152-0.014 0.149-0.013 0.148-0.01 0.146-8e-3 0.144-6e-3 0.142-5e-3 0.141-2e-3 0.138-1e-3 0.137 1e-3 0.135 3e-3 0.134 5e-3 0.131 7e-3 0.13 9e-3 0.128 0.01 0.127 0.012 0.125 0.014 0.124 0.016 0.122 0.018 0.12 0.019 0.119 0.021 0.118 0.023 0.116 0.024 0.115 0.026 0.114 0.028 0.112 0.03 0.111 0.032 0.11 0.033 0.109 0.035 0.108 0.036 0.107 0.039 0.105 0.04 0.105 0.042 0.104 0.043 0.103 0.046 0.102 0.047 0.101 0.049 0.101 0.051 0.1 0.052 0.099 0.055 0.099 0.056 0.098 0.058 0.097 0.06 0.097 0.062 0.096 0.064 0.096 0.066 0.095 0.067 0.095 0.07 0.095 0.072 0.094 0.073 0.094 0.076 0.093 0.078 0.093 0.079 0.093 0.082 0.093 0.084 0.092 0.086 0.092 0.088 0.092 0.09 0.092 0.092 0.091 0.094 0.091 0.088 0.083 0.088 0.08 0.089 0.078 0.089 0.077 0.091 0.074 0.09 0.073 0.092 0.071 0.092 0.069 0.093 0.067 0.093 0.065 0.094 0.064 0.095 0.062 0.095 0.06 0.096 0.059 0.097 0.057 0.097 0.056 0.098 0.054 0.098 0.052 0.099 0.051 0.1 0.049 0.1 0.048 0.101 0.046 0.102 0.045 0.102 0.043 0.103 0.042 0.103 0.041 0.104 0.039 0.105 0.038 0.105 0.037 0.106 0.035 0.106 0.034 0.107 0.033 0.107 0.031 0.108 0.031 0.218 0.056 0.109 0.027 0.11 0.025 0.111 0.024 0.111 0.023 0.111 0.022 0.112 0.021 0.112 0.02 0.226 0.036 0.228 0.032 0.114 0.014 0.115 0.014 0.115 0.012 0.115 0.011 0.116 0.011 0.116 0.01 0.116 8e-3 0.117 8e-3 0.117 7e-3 0.234 0.012 0.117 4e-3 0.118 4e-3 0.118 3e-3 0.118 2e-3 0.118 1e-3 0.119 1e-3h0.058 0.12l0.119-1e-3 0.12-2e-3 0.118-3e-3 0.119-3e-3 0.118-4e-3 0.119-5e-3 0.118-6e-3 0.118-7e-3 0.117-7e-3 0.118-9e-3 0.117-9e-3 0.116-0.01 0.117-0.011 0.232-0.026 0.115-0.014 0.115-0.015 0.115-0.016 0.228-0.036 0.113-0.019 0.113-0.021 0.112-0.022 0.112-0.023 0.112-0.024 0.111-0.025 0.11-0.026 0.11-0.028 0.11-0.029 0.109-0.03 0.108-0.031 0.108-0.033 0.107-0.034 0.107-0.035 0.106-0.036 0.106-0.038 0.105-0.04 0.104-0.04 0.104-0.042 0.103-0.044 0.102-0.045 0.102-0.046 0.101-0.048 0.101-0.05 0.1-0.051 0.099-0.052 0.099-0.055 0.098-0.055 0.097-0.058 0.097-0.059 0.096-0.06 0.096-0.063 0.095-0.064 0.094-0.065 0.093-0.068 0.093-0.069 0.092-0.072 0.092-0.073 0.091-0.075 0.09-0.077 0.09-0.079 0.088-0.081 0.089-0.083 0.094-0.091 0.092-0.091 0.09-0.092 0.088-0.092 0.086-0.092 0.084-0.092 0.082-0.093 0.079-0.093 0.078-0.093 0.076-0.093 0.073-0.094 0.072-0.094 0.07-0.095 0.067-0.095 0.066-0.095 0.064-0.096 0.062-0.096 0.06-0.097 0.058-0.098 0.056-0.097 0.055-0.099 0.052-0.099 0.051-0.1 0.049-0.101 0.047-0.101 0.046-0.102 0.043-0.103 0.042-0.104 0.04-0.105 0.039-0.105 0.036-0.107 0.035-0.108 0.033-0.109 0.032-0.11 0.03-0.111 0.028-0.112 0.026-0.114 0.024-0.115 0.023-0.116 0.021-0.118 0.02-0.119 0.017-0.12 0.016-0.122 0.014-0.124 0.012-0.125 0.01-0.127 9e-3 -0.128 7e-3 -0.13 5e-3 -0.131 3e-3 -0.134 1e-3 -0.135-1e-3 -0.137-2e-3 -0.138-5e-3 -0.141-6e-3 -0.142-8e-3 -0.144-0.01-0.146-0.013-0.148-0.014-0.149-0.016-0.152-0.018-0.154-0.02-0.155-0.021-0.158-0.024-0.159-0.025-0.153-0.025-0.148-0.027-0.143-0.027-0.141-0.028-0.136-0.029-0.132-0.03-0.129-0.03-0.126-0.032-0.122-0.032-0.12-0.033-0.117-0.034-0.113-0.035-0.112-0.035-0.109-0.037-0.107-0.037-0.105-0.038-0.103-0.038-0.102-0.04-0.1-0.04-0.099-0.041-0.098-0.042-0.096-0.043-0.096-0.044-0.096-0.044-0.095-0.046-0.094-0.046-0.095-0.047-0.094-0.049-0.095-0.048-0.094-0.103-0.192-0.105-0.195-0.109-0.198-0.229-0.412-0.119-0.216-0.122-0.223-0.126-0.232-0.127-0.24-0.065-0.126-0.066-0.127-0.065-0.13-0.067-0.133-0.067-0.136-0.067-0.139-0.067-0.142-0.068-0.145-0.068-0.149-0.069-0.153-0.068-0.156-0.069-0.16-0.069-0.164-0.07-0.167-0.069-0.172-0.07-0.176-0.127-0.329-0.12-0.316-0.112-0.302-0.106-0.291-0.1-0.278-0.094-0.267-0.088-0.257-0.083-0.246-0.079-0.237-0.076-0.227-0.139-0.428-0.129-0.398-0.122-0.372-0.058-0.176-0.059-0.172-0.058-0.168-0.059-0.163-0.06-0.161-0.061-0.158-0.063-0.157-0.065-0.156-0.069-0.158-0.034-0.076-0.036-0.079-0.037-0.079-0.039-0.08-0.039-0.081-0.04-0.08-0.042-0.082-0.043-0.083-0.044-0.084-0.046-0.085-0.047-0.086-0.05-0.088-0.05-0.089-0.052-0.09-0.044-0.074-0.044-0.072-0.044-0.071-0.044-0.07-0.045-0.068-0.044-0.066-0.045-0.065-0.045-0.064-0.045-0.062-0.045-0.061-0.046-0.059-0.045-0.058-0.046-0.057-0.045-0.055-0.092-0.106-0.047-0.051-0.046-0.05-0.046-0.048-0.093-0.093-0.047-0.044-0.047-0.043-0.047-0.042-0.047-0.04-0.048-0.04-0.047-0.038-0.048-0.037-0.048-0.036-0.096-0.068-0.048-0.032-0.049-0.031-0.048-0.03-0.049-0.029-0.05-0.028-0.049-0.027-0.05-0.026-0.05-0.025-0.051-0.024-0.05-0.023-0.052-0.022-0.051-0.021-0.052-0.02-0.053-0.019-0.106-0.036-0.054-0.016-0.11-0.03-0.112-0.026-0.057-0.012-0.116-0.02-0.059-9e-3 -0.06-8e-3 -0.061-7e-3 -0.061-6e-3 -0.062-5e-3 -0.063-4e-3 -0.064-3e-3 -0.064-2e-3 -0.068-1e-3h-0.029l-0.068 1e-3z" fill="#b2d85a"/>
    </g>
    <circle cx="16" cy="20.5" r="5.5" fill="#4d3b2f"/>
    <clipPath id="_clip1">
        <circle cx="16" cy="20.5" r="5.5"/>
    </clipPath>
    <g clip-path="url(#_clip1)">
        <circle cx="13.65" cy="18.659" r="5.377" fill="#614b3b"/>
    </g>
</svg>
