<?xml version="1.0" encoding="UTF-8"?>
<!DOCTYPE svg  PUBLIC '-//W3C//DTD SVG 1.1//EN'  'http://www.w3.org/Graphics/SVG/1.1/DTD/svg11.dtd'>
<svg clip-rule="evenodd" fill-rule="evenodd" stroke-linecap="round" stroke-miterlimit="3" version="1.1" viewBox="0 0 32 32" xml:space="preserve" xmlns="http://www.w3.org/2000/svg">
<metadata>
<rdf:RDF xmlns:cc="http://web.resource.org/cc/" xmlns:dc="http://purl.org/dc/elements/1.1/" xmlns:rdf="http://www.w3.org/1999/02/22-rdf-syntax-ns#">

     <rdf:Description rdf:about="">
       <dc:title>Mutant Standard emoji 2023.12</dc:title>
     </rdf:Description>

    <cc:work rdf:about="">
        <cc:license rdf:resource="http://creativecommons.org/licenses/by-nc-sa/4.0/"/>
        <cc:attributionName>Caius Nocturne</cc:attributionName>
        <cc:attributionURL>http://mutant.tech/</cc:attributionURL>
    </cc:work>

</rdf:RDF>
</metadata>

    <rect id="cherry" width="32" height="32" fill="none"/>
    <clipPath id="_clip1">
        <rect width="32" height="32"/>
    </clipPath>
    <g clip-path="url(#_clip1)">
        <g id="outline">
            <path d="m17 20c0-1.326-0.527-2.598-1.464-3.536-0.938-0.937-2.21-1.464-3.536-1.464h-5c-1.326 0-2.598 0.527-3.536 1.464-0.937 0.938-1.464 2.21-1.464 3.536v2.5c0 4.142 3.358 7.5 7.5 7.5s7.5-3.358 7.5-7.5v-2.5z" fill="none" stroke="#000" stroke-width="4px"/>
            <path d="m30 20c0-1.326-0.527-2.598-1.464-3.536-0.938-0.937-2.21-1.464-3.536-1.464h-5c-1.326 0-2.598 0.527-3.536 1.464-0.937 0.938-1.464 2.21-1.464 3.536v2.5c0 4.142 3.358 7.5 7.5 7.5s7.5-3.358 7.5-7.5v-2.5z" fill="none" stroke="#000" stroke-width="4px"/>
            <path d="m11.103 1e-3 0.103 2e-3 0.102 3e-3 0.102 4e-3 0.102 6e-3 0.101 7e-3 0.102 9e-3 0.101 9e-3 0.1 0.011 0.1 0.012 0.1 0.013 0.1 0.015 0.099 0.016 0.099 0.017 0.098 0.018 0.098 0.019 0.098 0.021 0.097 0.022 0.096 0.023 0.097 0.024 0.096 0.025 0.19 0.054 0.094 0.029 0.094 0.03 0.093 0.031 0.093 0.032 0.093 0.033 0.092 0.034 0.091 0.036 0.09 0.036 0.091 0.037 0.089 0.039 0.089 0.04 0.088 0.04 0.088 0.042 0.088 0.043 0.086 0.043 0.086 0.045 0.086 0.046 0.085 0.046 0.084 0.048 0.166 0.098 0.082 0.051 0.162 0.104 0.08 0.053 0.08 0.055 0.078 0.055 0.078 0.056 0.078 0.057 0.076 0.058 0.076 0.059 0.075 0.06 0.075 0.061 0.073 0.061 0.073 0.062 0.072 0.063 0.071 0.064 0.071 0.066 0.07 0.065 0.069 0.067 0.068 0.067 0.067 0.068 0.067 0.069 0.065 0.07 0.065 0.071 0.064 0.071 0.064 0.072 0.062 0.073 0.062 0.074 0.06 0.074 0.06 0.075 0.059 0.076 0.058 0.076 0.057 0.078 0.056 0.078 0.055 0.078 0.108 0.16 0.104 0.162 0.051 0.082 0.098 0.166 0.048 0.085 0.046 0.084 0.046 0.086 0.045 0.086 0.043 0.086 0.043 0.088 0.042 0.088 0.04 0.088 0.04 0.089 0.039 0.089 0.037 0.091 0.036 0.09 0.036 0.091 0.034 0.092 0.033 0.093 0.032 0.093 0.031 0.093 0.03 0.094 0.029 0.094 0.027 0.095 0.027 0.096 0.025 0.095 0.024 0.096 0.023 0.097 0.022 0.097 0.021 0.098 0.019 0.098 0.018 0.098 0.017 0.099 0.016 0.099 0.015 0.1 0.013 0.1 0.012 0.1 0.011 0.1 9e-3 0.101 9e-3 0.102 7e-3 0.101 6e-3 0.102 4e-3 0.102 3e-3 0.103 2e-3 0.102 1e-3 0.097v3.251l-0.308 0.24-11.035-2.759-0.117-0.031-0.127-0.036-0.125-0.038-0.124-0.041-0.123-0.044-0.122-0.046-0.12-0.048-0.119-0.051-0.117-0.053-0.117-0.056-0.114-0.057-0.114-0.061-0.111-0.062-0.111-0.064-0.108-0.067-0.107-0.069-0.106-0.07-0.103-0.073-0.103-0.075-0.1-0.077-0.099-0.079-0.097-0.08-0.095-0.083-0.093-0.084-0.092-0.087-0.09-0.087-0.088-0.09-0.085-0.092-0.084-0.093-0.083-0.095-0.08-0.096-0.078-0.098-0.076-0.1-0.074-0.101-0.072-0.103-0.071-0.104-0.067-0.105-0.066-0.107-0.064-0.109-0.061-0.109-0.059-0.112-0.057-0.112-0.055-0.114-0.053-0.115-0.05-0.116-0.048-0.117-0.045-0.118-0.043-0.12-0.041-0.121-0.038-0.121-0.036-0.122-0.033-0.124-0.031-0.124-0.028-0.126-0.026-0.126-0.023-0.127-0.021-0.128-0.017-0.128-0.015-0.129-0.013-0.13-0.01-0.13-7e-3 -0.131-4e-3 -0.132-1e-3 -0.121v-2.761h8.006l0.097 1e-3zm-3.672 4.045 0.027 0.035 0.028 0.035 0.028 0.033 0.029 0.034 0.029 0.032 0.03 0.033 0.031 0.031 0.064 0.062 0.066 0.058 0.034 0.029 0.07 0.054 0.072 0.052 0.037 0.025 0.037 0.023 0.038 0.024 0.078 0.044 0.039 0.021 0.04 0.02 0.082 0.038 0.042 0.018 0.042 0.017 0.043 0.016 0.086 0.03 0.045 0.013 0.044 0.013 0.056 0.014 5.997 1.5-0.018-0.04-0.02-0.043-0.022-0.043-0.021-0.044-0.023-0.043-0.023-0.042-0.023-0.043-0.024-0.041-0.024-0.042-0.025-0.042-0.025-0.041-0.026-0.041-0.026-0.04-0.054-0.08-0.056-0.078-0.029-0.039-0.029-0.038-0.029-0.039-0.03-0.037-0.031-0.038-0.031-0.036-0.031-0.037-0.064-0.072-0.032-0.035-0.033-0.035-0.068-0.07-0.034-0.033-0.035-0.034-0.035-0.033-0.035-0.032-0.072-0.064-0.037-0.032-0.037-0.03-0.037-0.031-0.038-0.03-0.114-0.087-0.04-0.028-0.039-0.028-0.08-0.054-0.041-0.026-0.04-0.026-0.041-0.025-0.042-0.025-0.084-0.048-0.084-0.046-0.043-0.023-0.043-0.021-0.044-0.022-0.044-0.02-0.044-0.021-0.044-0.019-0.09-0.038-0.09-0.036-0.046-0.017-0.138-0.048-0.047-0.014-0.047-0.015-0.047-0.013-0.047-0.014-0.144-0.036-0.048-0.01-0.049-0.011-0.147-0.027-0.049-8e-3 -0.1-0.014-0.05-6e-3 -0.051-5e-3 -0.05-5e-3 -0.102-8e-3 -0.051-3e-3 -0.104-4e-3 -0.052-1e-3h-0.058-3.596l7e-3 0.01 0.026 0.036z"/>
            <path d="m16 8-6 6" fill="none" stroke="#000" stroke-linecap="square" stroke-width="6px"/>
            <path d="m16 8 7 7" fill="none" stroke="#000" stroke-linecap="square" stroke-width="6px"/>
            <rect x="13" y="11" width="7" height="4"/>
        </g>
        <g id="emoji">
            <path d="m16 8-9 9" fill="none" stroke="#198040" stroke-linecap="square" stroke-width="2px"/>
            <path d="m16 8 7 7" fill="none" stroke="#198040" stroke-linecap="square" stroke-width="2px"/>
            <path d="m30 20c0-1.326-0.527-2.598-1.464-3.536-0.938-0.937-2.21-1.464-3.536-1.464h-5c-1.326 0-2.598 0.527-3.536 1.464-0.937 0.938-1.464 2.21-1.464 3.536v2.5c0 4.142 3.358 7.5 7.5 7.5s7.5-3.358 7.5-7.5v-2.5z" fill="#d72d35"/>
            <clipPath id="_clip2">
                <path d="m30 20c0-1.326-0.527-2.598-1.464-3.536-0.938-0.937-2.21-1.464-3.536-1.464h-5c-1.326 0-2.598 0.527-3.536 1.464-0.937 0.938-1.464 2.21-1.464 3.536v2.5c0 4.142 3.358 7.5 7.5 7.5s7.5-3.358 7.5-7.5v-2.5z"/>
            </clipPath>
            <g clip-path="url(#_clip2)">
                <path d="m17 21c0-1.591-0.632-3.117-1.757-4.243-1.126-1.125-2.652-1.757-4.243-1.757h-3c-1.591 0-3.117 0.632-4.243 1.757-1.125 1.126-1.757 2.652-1.757 4.243v1.502c0 1.989 0.79 3.896 2.196 5.302s3.313 2.196 5.302 2.196h2e-3c1.989 0 3.897-0.79 5.303-2.197 1.407-1.406 2.197-3.314 2.197-5.303v-1.5z" fill="#d72d35" stroke="#891a20" stroke-width="4px"/>
            </g>
            <path d="m17 20c0-1.326-0.527-2.598-1.464-3.536-0.938-0.937-2.21-1.464-3.536-1.464h-5c-1.326 0-2.598 0.527-3.536 1.464-0.937 0.938-1.464 2.21-1.464 3.536v2.5c0 4.142 3.358 7.5 7.5 7.5s7.5-3.358 7.5-7.5v-2.5z" fill="#d72d35"/>
            <path d="m17 9v-1c0-3.314-2.686-6-6-6h-6v0.75c0 1.91 1.3 3.575 3.153 4.038 3.555 0.889 8.847 2.212 8.847 2.212z" fill="#219555"/>
            <path d="m9 19c0-1.105 0.895-2 2-2h1c1.657 0 3 1.343 3 3v1c0 1.105-0.895 2-2 2-1.061 0-2.078-0.421-2.828-1.172-0.751-0.75-1.172-1.767-1.172-2.828z" fill="#ff535b"/>
            <path d="m22 19c0-1.105 0.895-2 2-2h1c1.657 0 3 1.343 3 3v1c0 1.105-0.895 2-2 2-1.061 0-2.078-0.421-2.828-1.172-0.751-0.75-1.172-1.767-1.172-2.828z" fill="#ff535b"/>
        </g>
    </g>
</svg>
