<?xml version="1.0" encoding="UTF-8"?>
<!DOCTYPE svg  PUBLIC '-//W3C//DTD SVG 1.1//EN'  'http://www.w3.org/Graphics/SVG/1.1/DTD/svg11.dtd'>
<svg clip-rule="evenodd" fill-rule="evenodd" stroke-linejoin="round" stroke-miterlimit="2" version="1.1" viewBox="0 0 32 32" xml:space="preserve" xmlns="http://www.w3.org/2000/svg">
<metadata>
<rdf:RDF xmlns:cc="http://web.resource.org/cc/" xmlns:dc="http://purl.org/dc/elements/1.1/" xmlns:rdf="http://www.w3.org/1999/02/22-rdf-syntax-ns#">

     <rdf:Description rdf:about="">
       <dc:title>Mutant Standard emoji 2023.12</dc:title>
     </rdf:Description>

    <cc:work rdf:about="">
        <cc:license rdf:resource="http://creativecommons.org/licenses/by-nc-sa/4.0/"/>
        <cc:attributionName>Caius Nocturne</cc:attributionName>
        <cc:attributionURL>http://mutant.tech/</cc:attributionURL>
    </cc:work>

</rdf:RDF>
</metadata>

    <rect id="eggplant" width="32" height="32" fill="none"/>
    <g id="outline">
        <path d="m2.449 7.008-0.664-1.661c-0.15-0.391-0.229-0.801-0.222-1.22 5e-3 -0.288 0.049-0.576 0.131-0.852 0.27-0.907 0.946-1.662 1.819-2.028 0.386-0.162 0.797-0.24 1.214-0.247 0.074 0 0.074 1e-3 0.148 3e-3 0.172 0.012 0.34 0.033 0.508 0.075 0.331 0.083 0.644 0.232 0.918 0.434 0.098 0.073 0.188 0.152 0.276 0.236l1.599 1.599 0.042-1e-3c0.141-3e-3 0.14-3e-3 0.282-2e-3 0.376 9e-3 0.749 0.042 1.119 0.111 0.84 0.155 1.649 0.472 2.37 0.931 0.371 0.236 0.713 0.51 1.034 0.811 1.371 1.34 2.705 2.717 4.068 4.064 0.354 0.342 0.732 0.656 1.139 0.933s0.837 0.514 1.285 0.718c2.149 0.95 4.315 1.862 6.464 2.813 0.356 0.163 0.702 0.343 1.036 0.548 0.726 0.444 1.389 0.99 1.967 1.615 0.763 0.827 1.373 1.794 1.791 2.839 0.391 0.977 0.613 2.019 0.655 3.069 0.037 0.927-0.066 1.858-0.305 2.754-0.522 1.958-1.696 3.724-3.273 4.992-0.922 0.742-1.98 1.312-3.106 1.676-1.25 0.404-2.579 0.55-3.887 0.429-1.006-0.093-1.996-0.344-2.925-0.741-0.392-0.168-0.77-0.363-1.138-0.578-1.901-1.144-3.793-2.303-5.679-3.471-0.771-0.49-1.509-1.028-2.2-1.625-1.634-1.41-3.01-3.114-4.044-5.008-0.402-0.736-0.753-1.5-1.048-2.285-0.149-0.396-0.282-0.797-0.405-1.201-0.482-1.65-0.946-3.305-1.418-4.958-0.07-0.255-0.129-0.511-0.171-0.772-0.082-0.517-0.102-1.043-0.06-1.565 0.068-0.846 0.3-1.677 0.68-2.435z"/>
    </g>
    <g id="emoji">
        <path d="m13 8 2.606 2.606c0.921 0.921 2.007 1.661 3.201 2.18 1.573 0.684 3.956 1.721 6.266 2.725 1.812 0.788 3.223 2.28 3.91 4.132 0.686 1.852 0.589 3.903-0.271 5.681-1e-3 1e-3 -1e-3 1e-3 -1e-3 2e-3 -0.95 1.963-2.684 3.434-4.777 4.049-2.092 0.615-4.347 0.317-6.207-0.82-1.802-1.101-3.699-2.26-5.389-3.293-3.433-2.098-5.951-5.409-7.057-9.277l-0.781-2.735 1.995-6.002 6.505 0.752z" fill="#5c247c"/>
        <path d="m13.05 11.001 0.084 3e-3 0.083 8e-3 0.083 0.011 0.083 0.014 0.082 0.018 0.081 0.021 0.08 0.024 0.079 0.028 0.077 0.031 0.077 0.035 0.075 0.037 0.073 0.041 0.071 0.044 0.07 0.046 0.068 0.05 0.065 0.052 0.063 0.055 0.061 0.058 0.058 0.06 0.056 0.062 0.053 0.065 0.051 0.067 0.047 0.069 0.045 0.071 0.041 0.073 0.039 0.074 0.035 0.076 0.032 0.077 0.029 0.079 0.029 0.084 0.023 0.066 0.025 0.065 0.024 0.066 0.026 0.064 0.027 0.065 0.027 0.064 0.028 0.063 0.028 0.064 0.03 0.062 0.03 0.063 0.031 0.061 0.032 0.062 0.032 0.061 0.033 0.061 0.034 0.06 0.035 0.059 0.035 0.06 0.036 0.058 0.037 0.059 0.037 0.058 0.038 0.057 0.039 0.057 0.08 0.112 0.082 0.11 0.042 0.054 0.086 0.108 0.044 0.052 0.09 0.104 0.046 0.051 0.047 0.051 0.047 0.05 0.096 0.098 0.05 0.048 0.049 0.048 0.05 0.047 0.102 0.092 0.052 0.045 0.053 0.045 0.053 0.044 0.108 0.086 0.055 0.042 0.055 0.041 0.056 0.041 0.056 0.04 0.114 0.078 0.058 0.038 0.059 0.038 0.118 0.072 0.06 0.036 0.122 0.068 0.061 0.033 0.062 0.033 5.234 2.617 0.075 0.039 0.072 0.042 0.071 0.045 0.068 0.048 0.067 0.051 0.064 0.054 0.062 0.056 0.06 0.059 0.057 0.061 0.055 0.064 0.052 0.065 0.049 0.068 0.046 0.07 0.043 0.072 0.04 0.074 0.037 0.075 0.034 0.076 0.031 0.078 0.027 0.079 0.024 0.081 0.02 0.081 0.018 0.082 0.013 0.083 0.011 0.083 6e-3 0.083 4e-3 0.084-1e-3 0.084-3e-3 0.083-8e-3 0.084-0.01 0.083-0.015 0.082-0.017 0.082-0.021 0.081-0.025 0.081-0.027 0.079-0.032 0.077-0.034 0.077-0.037 0.075-0.041 0.073-0.043 0.072-0.047 0.069-0.049 0.068-0.053 0.065-0.055 0.064-0.057 0.06-0.06 0.059-0.063 0.056-0.064 0.053-0.067 0.05-0.069 0.048-0.071 0.045-0.073 0.041-0.074 0.039-0.076 0.035-0.077 0.033-0.079 0.029-0.079 0.025-0.081 0.023-0.082 0.018-0.082 0.016-0.083 0.012-0.083 8e-3 -0.084 5e-3 -0.084 2e-3 -0.084-2e-3 -0.083-6e-3 -0.083-8e-3 -0.083-0.013-0.082-0.016-0.082-0.019-0.081-0.023-0.079-0.026-0.079-0.03-0.077-0.032-0.075-0.036-5.178-2.589-0.101-0.051-0.106-0.056-0.105-0.056-0.104-0.058-0.104-0.059-0.204-0.122-0.101-0.063-0.1-0.064-0.099-0.065-0.098-0.066-0.194-0.136-0.095-0.07-0.095-0.071-0.094-0.072-0.092-0.073-0.092-0.074-0.091-0.075-0.09-0.076-0.088-0.077-0.088-0.079-0.087-0.079-0.086-0.081-0.085-0.081-0.084-0.082-0.083-0.084-0.081-0.084-0.081-0.086-0.08-0.086-0.078-0.087-0.078-0.089-0.076-0.089-0.076-0.09-0.074-0.091-0.073-0.092-0.072-0.093-0.071-0.094-0.07-0.094-0.136-0.192-0.066-0.098-0.065-0.098-0.064-0.098-0.063-0.1-0.122-0.202-0.059-0.102-0.058-0.103-0.057-0.104-0.055-0.104-0.054-0.105-0.053-0.106-0.052-0.107-0.05-0.107-0.05-0.108-0.094-0.218-0.045-0.11-0.044-0.111-0.043-0.111-0.041-0.112-0.04-0.113-0.033-0.099 1e-3 3e-3 -0.026-0.08-0.022-0.08-0.019-0.082-0.015-0.082-0.012-0.083-9e-3 -0.084-5e-3 -0.083-1e-3 -0.084 2e-3 -0.084 6e-3 -0.083 9e-3 -0.084 0.012-0.082 0.016-0.083 0.02-0.081 0.023-0.081 0.026-0.079 0.029-0.079 0.033-0.077 0.036-0.075 0.039-0.075 0.042-0.072 0.046-0.07 0.048-0.069 0.051-0.067 0.053-0.064 0.057-0.062 0.058-0.06 0.062-0.057 0.063-0.054 0.066-0.052 0.068-0.049 0.07-0.046 0.072-0.043 0.074-0.04 0.075-0.037 0.076-0.034 0.078-0.03 0.08-0.028 0.08-0.023 0.081-0.021 0.082-0.017 0.083-0.014 0.083-0.01 0.083-7e-3 0.084-3e-3 0.084 1e-3z" fill="#8428bd"/>
        <path d="m4.5 13.25-0.574-2.01c-0.552-1.93 0.207-3.996 1.878-5.109 0 0 0-1e-3 1e-3 -1e-3 1.858-1.238 4.331-0.994 5.91 0.585l1.285 1.285v1h-3l-1 3-3-1-1.5 2.25z" fill="#219555"/>
        <path d="m5 8s-0.768-1.921-1.353-3.382c-0.145-0.363-0.101-0.775 0.119-1.1 0.219-0.324 0.585-0.518 0.977-0.518h3e-3c0.162 0 0.319 0.065 0.434 0.18l2.82 2.82-3 2z" fill="#219555"/>
    </g>
</svg>
