<?xml version="1.0" encoding="UTF-8"?>
<!DOCTYPE svg  PUBLIC '-//W3C//DTD SVG 1.1//EN'  'http://www.w3.org/Graphics/SVG/1.1/DTD/svg11.dtd'>
<svg clip-rule="evenodd" fill-rule="evenodd" stroke-linecap="round" stroke-miterlimit="3" version="1.1" viewBox="0 0 32 32" xml:space="preserve" xmlns="http://www.w3.org/2000/svg">
<metadata>
<rdf:RDF xmlns:cc="http://web.resource.org/cc/" xmlns:dc="http://purl.org/dc/elements/1.1/" xmlns:rdf="http://www.w3.org/1999/02/22-rdf-syntax-ns#">

     <rdf:Description rdf:about="">
       <dc:title>Mutant Standard emoji 2023.12</dc:title>
     </rdf:Description>

    <cc:work rdf:about="">
        <cc:license rdf:resource="http://creativecommons.org/licenses/by-nc-sa/4.0/"/>
        <cc:attributionName>Caius Nocturne</cc:attributionName>
        <cc:attributionURL>http://mutant.tech/</cc:attributionURL>
    </cc:work>

</rdf:RDF>
</metadata>

    <rect id="lemon" width="32" height="32" fill="none"/>
    <clipPath id="_clip1">
        <rect width="32" height="32"/>
    </clipPath>
    <g clip-path="url(#_clip1)">
        <g id="outline">
            <path d="m12.402 0.102 0.116 2e-3 0.115 4e-3 0.116 5e-3 0.116 7e-3 0.115 7e-3 0.115 0.01 0.116 0.01 0.115 0.012 0.115 0.013 0.116 0.015 0.114 0.016 0.115 0.017 0.115 0.018 0.115 0.02 0.114 0.021 0.114 0.023 0.114 0.024 0.113 0.025 0.114 0.027 0.113 0.027 0.226 0.06 0.113 0.032 0.224 0.068 0.111 0.036 0.112 0.038 0.111 0.038 0.11 0.04 0.111 0.042 0.109 0.043 0.11 0.044 0.109 0.045 0.109 0.047 0.108 0.048 0.108 0.05 0.107 0.05 0.107 0.053 0.106 0.053 0.106 0.055 0.105 0.056 0.105 0.058 0.105 0.059 0.103 0.06 0.104 0.062 0.102 0.063 0.102 0.064 0.202 0.132 0.1 0.069 0.1 0.07 0.098 0.071 0.099 0.072 0.097 0.074 0.097 0.075 0.096 0.076 0.095 0.078 0.094 0.078 0.094 0.081 0.089 0.077 1.565 1.392-4.761 10.099-9.677 10.887h-0.018l-2.599-2.924-0.102-0.116-0.104-0.122-0.103-0.122-0.101-0.124-0.099-0.125-0.097-0.125-0.096-0.127-0.094-0.127-0.092-0.128-0.091-0.13-0.088-0.13-0.087-0.13-0.086-0.132-0.083-0.132-0.082-0.134-0.08-0.133-0.078-0.135-0.077-0.135-0.075-0.136-0.073-0.137-0.071-0.138-0.069-0.138-0.068-0.138-0.066-0.139-0.065-0.14-0.062-0.141-0.061-0.141-0.059-0.141-0.057-0.143-0.056-0.142-0.054-0.143-0.052-0.144-0.05-0.144-0.049-0.144-0.046-0.145-0.045-0.145-0.044-0.146-0.041-0.146-0.04-0.146-0.038-0.147-0.037-0.147-0.034-0.148-0.033-0.147-0.031-0.148-0.03-0.148-0.027-0.149-0.026-0.148-0.024-0.149-0.023-0.15-0.02-0.149-0.019-0.149-0.018-0.15-0.015-0.149-0.014-0.15-0.012-0.15-0.01-0.15-9e-3 -0.15-7e-3 -0.151-5e-3 -0.15-3e-3 -0.15-2e-3 -0.15v-0.15l2e-3 -0.151 4e-3 -0.15 5e-3 -0.15 7e-3 -0.15 9e-3 -0.15 0.01-0.15 0.012-0.15 0.014-0.149 0.016-0.15 0.017-0.149 0.019-0.149 0.021-0.149 0.023-0.149 0.024-0.149 0.026-0.148 0.028-0.148 0.029-0.147 0.031-0.148 0.033-0.147 0.035-0.147 0.036-0.147 0.038-0.146 0.04-0.146 0.041-0.145 0.043-0.145 0.045-0.145 0.047-0.145 0.048-0.143 0.05-0.144 0.052-0.142 0.054-0.143 0.055-0.142 0.057-0.141 0.059-0.141 0.06-0.14 0.062-0.14 0.064-0.139 0.066-0.138 0.067-0.138 0.069-0.137 0.071-0.137 0.072-0.136 0.074-0.135 0.076-0.134 0.077-0.134 0.079-0.133 0.164-0.264 0.084-0.13 0.087-0.13 0.087-0.129 0.09-0.128 0.091-0.127 0.093-0.127 0.094-0.125 0.096-0.125 0.098-0.123 0.1-0.123 0.101-0.122 0.103-0.12 0.105-0.12 0.106-0.119 0.108-0.117 0.11-0.117 0.111-0.115 0.109-0.11 0.691-0.691 0.513-0.484 0.126-0.126 0.178-0.17 0.091-0.083 0.091-0.082 0.092-0.081 0.186-0.158 0.094-0.076 0.095-0.076 0.096-0.074 0.097-0.073 0.097-0.072 0.098-0.07 0.098-0.069 0.1-0.068 0.2-0.132 0.101-0.063 0.102-0.063 0.102-0.061 0.103-0.06 0.104-0.059 0.104-0.057 0.105-0.056 0.21-0.108 0.106-0.052 0.214-0.1 0.108-0.048 0.216-0.092 0.109-0.044 0.109-0.042 0.11-0.042 0.11-0.04 0.11-0.039 0.111-0.037 0.111-0.036 0.111-0.035 0.112-0.033 0.112-0.032 0.112-0.031 0.113-0.029 0.113-0.028 0.113-0.027 0.113-0.026 0.114-0.024 0.113-0.023 0.114-0.021 0.115-0.02 0.114-0.019 0.114-0.017 0.115-0.017 0.23-0.028 0.115-0.012 0.115-0.011 0.115-9e-3 0.116-8e-3 0.115-7e-3 0.116-6e-3 0.115-4e-3 0.116-3e-3 0.116-1e-3h0.115l0.116 1e-3zm-0.202 3.999-0.07 1e-3 -0.069 1e-3 -0.07 3e-3 -0.069 3e-3 -0.07 4e-3 -0.069 5e-3 -0.07 6e-3 -0.069 6e-3 -0.138 0.016-0.138 0.018-0.138 0.022-0.069 0.012-0.068 0.013-0.068 0.014-0.069 0.014-0.136 0.032-0.067 0.017-0.068 0.017-0.134 0.038-0.067 0.02-0.134 0.042-0.132 0.046-0.066 0.024-0.066 0.025-0.065 0.025-0.13 0.054-0.065 0.028-0.064 0.028-0.128 0.06-0.063 0.031-0.063 0.032-0.126 0.066-0.062 0.034-0.062 0.035-0.061 0.036-0.062 0.037-0.06 0.037-0.061 0.038-0.06 0.039-0.06 0.04-0.118 0.082-0.059 0.042-0.058 0.043-0.058 0.044-0.057 0.044-0.114 0.092-0.056 0.047-0.112 0.096-0.055 0.05-0.054 0.05-0.054 0.051-0.054 0.052-0.135 0.135-0.517 0.487-0.64 0.641-0.083 0.084-0.078 0.08-0.076 0.081-0.075 0.082-0.074 0.082-0.073 0.083-0.071 0.084-0.07 0.084-0.069 0.085-0.068 0.086-0.067 0.086-0.065 0.087-0.064 0.087-0.063 0.088-0.062 0.089-0.061 0.089-0.118 0.18-0.057 0.091-0.055 0.091-0.055 0.092-0.054 0.092-0.052 0.093-0.051 0.094-0.05 0.093-0.049 0.095-0.048 0.094-0.046 0.096-0.045 0.095-0.045 0.096-0.084 0.194-0.041 0.097-0.039 0.098-0.038 0.098-0.037 0.098-0.036 0.099-0.035 0.099-0.033 0.1-0.032 0.099-0.031 0.1-0.03 0.101-0.029 0.1-0.028 0.101-0.026 0.102-0.025 0.101-0.024 0.102-0.023 0.102-0.042 0.204-0.019 0.103-0.018 0.103-0.017 0.103-0.03 0.206-0.013 0.104-0.012 0.103-0.011 0.104-0.01 0.104-8e-3 0.104-7e-3 0.103-6e-3 0.104-5e-3 0.105-4e-3 0.104-4e-3 0.208v0.104l2e-3 0.105 2e-3 0.104 3e-3 0.104 5e-3 0.104 6e-3 0.104 7e-3 0.104 0.018 0.208 0.011 0.104 0.012 0.103 0.013 0.104 0.014 0.104 0.032 0.206 0.018 0.103 0.02 0.103 0.02 0.102 0.021 0.103 0.023 0.102 0.024 0.102 0.025 0.102 0.054 0.202 0.029 0.101 0.03 0.101 0.031 0.1 0.032 0.101 0.034 0.099 0.035 0.1 0.036 0.099 0.037 0.099 0.038 0.098 0.04 0.099 0.041 0.097 0.042 0.098 0.043 0.097 0.044 0.096 0.046 0.096 0.047 0.096 0.048 0.095 0.049 0.095 0.05 0.095 0.052 0.094 0.053 0.093 0.054 0.093 0.055 0.093 0.057 0.092 0.057 0.091 0.059 0.091 0.061 0.091 0.061 0.09 0.063 0.089 0.064 0.089 0.065 0.089 0.066 0.087 0.052 0.067 6.301-7.089 3.21-6.81-0.057-0.037-0.061-0.039-0.062-0.038-0.061-0.037-0.062-0.036-0.063-0.035-0.062-0.034-0.063-0.034-0.064-0.033-0.063-0.032-0.064-0.031-0.064-0.03-0.065-0.03-0.064-0.029-0.065-0.028-0.066-0.027-0.065-0.026-0.066-0.026-0.066-0.025-0.066-0.024-0.066-0.023-0.134-0.044-0.134-0.04-0.067-0.019-0.068-0.019-0.136-0.034-0.067-0.016-0.069-0.015-0.068-0.015-0.069-0.013-0.068-0.013-0.069-0.012-0.069-0.011-0.138-0.02-0.138-0.016-0.07-7e-3 -0.069-7e-3 -0.069-5e-3 -0.07-5e-3 -0.069-4e-3 -0.07-3e-3 -0.07-2e-3 -0.069-2e-3h-0.069-0.07z"/>
            <path d="m30 21c0-8.837-7.163-16-16-16h-6c-1.657 0-3 1.343-3 3v6c0 8.837 7.163 16 16 16h6c1.657 0 3-1.343 3-3v-6z" fill="none" stroke="#000" stroke-width="4px"/>
        </g>
        <g id="emoji">
            <path d="m6 5 0.515-0.485 1.485 0.485-2 1v-1z" fill="#219555"/>
            <path d="m30 21c0-8.837-7.163-16-16-16h-6c-1.657 0-3 1.343-3 3v6c0 8.837 7.163 16 16 16h6c1.657 0 3-1.343 3-3v-6z" fill="#fdef24"/>
            <path d="m14 8.666c0-0.92 0.746-1.666 1.666-1.666h2e-3c6.811 0 12.332 5.521 12.332 12.332v1.096c0 0.55-0.218 1.077-0.607 1.465-0.388 0.389-0.915 0.607-1.465 0.607h-0.183c-1.584 0-2.936-1.145-3.196-2.707-0.02-0.116-0.039-0.234-0.059-0.353-0.609-3.654-3.188-6.673-6.703-7.844l-1e-3 -1e-3c-1.067-0.355-1.786-1.353-1.786-2.478v-0.451z" fill="#fef9b5"/>
            <path d="m6 22s0.179-0.202 0.484-0.545c4.221-4.748 4.009-11.962-0.483-16.454l-1e-3 -1e-3 -0.666 0.666c-4.118 4.118-4.313 10.733-0.443 15.086 0.671 0.755 1.109 1.248 1.109 1.248z" fill="#219555"/>
            <path d="m18 4.515s-0.166-0.148-0.443-0.394c-3.17-2.818-7.988-2.672-10.982 0.333-0.039 0.04-0.06 0.061-0.06 0.061 3.027 3.039 7.9 3.186 11.106 0.337 0.238-0.212 0.379-0.337 0.379-0.337z" fill="#219555"/>
        </g>
    </g>
</svg>
