<?xml version="1.0" encoding="UTF-8"?>
<!DOCTYPE svg  PUBLIC '-//W3C//DTD SVG 1.1//EN'  'http://www.w3.org/Graphics/SVG/1.1/DTD/svg11.dtd'>
<svg clip-rule="evenodd" fill-rule="evenodd" stroke-linejoin="round" stroke-miterlimit="2" version="1.1" viewBox="0 0 32 32" xml:space="preserve" xmlns="http://www.w3.org/2000/svg">
<metadata>
<rdf:RDF xmlns:cc="http://web.resource.org/cc/" xmlns:dc="http://purl.org/dc/elements/1.1/" xmlns:rdf="http://www.w3.org/1999/02/22-rdf-syntax-ns#">

     <rdf:Description rdf:about="">
       <dc:title>Mutant Standard emoji 2023.12</dc:title>
     </rdf:Description>

    <cc:work rdf:about="">
        <cc:license rdf:resource="http://creativecommons.org/licenses/by-nc-sa/4.0/"/>
        <cc:attributionName>Caius Nocturne</cc:attributionName>
        <cc:attributionURL>http://mutant.tech/</cc:attributionURL>
    </cc:work>

</rdf:RDF>
</metadata>

    <rect id="melon" width="32" height="32" fill="none"/>
    <g id="outline">
        <path d="m23 6c1.068 0.445 2.076 1.033 2.989 1.744 1.055 0.822 1.982 1.808 2.738 2.912 0.777 1.135 1.372 2.394 1.756 3.715 0.388 1.333 0.56 2.726 0.508 4.113-0.055 1.487-0.368 2.962-0.921 4.344-0.592 1.48-1.457 2.848-2.542 4.016-1.16 1.25-2.566 2.267-4.117 2.976-1.156 0.53-2.39 0.888-3.649 1.06-0.531 0.073-1.065 0.109-1.601 0.119-1.44 9e-3 -2.881 9e-3 -4.322 0-0.536-0.01-1.07-0.046-1.601-0.119-1.259-0.172-2.493-0.53-3.649-1.06-1.551-0.709-2.957-1.726-4.117-2.976-1.085-1.168-1.95-2.536-2.542-4.016-0.553-1.382-0.866-2.857-0.921-4.344-0.05-1.334 0.107-2.674 0.464-3.96 0.382-1.377 0.993-2.689 1.8-3.868 0.756-1.104 1.683-2.09 2.738-2.912 0.195-0.151 0.393-0.297 0.596-0.437l-1.402-4.204 4.937-1.646c0.455-0.147 0.917-0.264 1.39-0.341 0.472-0.077 0.948-0.111 1.427-0.116h10.041v5z"/>
    </g>
    <g id="emoji">
        <rect x="15" y="4" width="2" height="4" fill="#72ab44"/>
        <path d="m21 5c-2.709 0-5.418-0.026-8.127 1e-3 -0.101 3e-3 -0.1 3e-3 -0.201 8e-3 -0.234 0.017-0.467 0.045-0.697 0.092-0.199 0.04-0.394 0.095-0.587 0.157l-3.02 1.007-0.633-1.897 3.03-1.01c0.356-0.115 0.718-0.208 1.087-0.268 0.37-0.06 0.742-0.086 1.117-0.09h8.031v2z" fill="#72ab44" fill-rule="nonzero"/>
        <path d="m14.118 7h1.756c0.607 0.468 0.963 0.714 0.963 0.714s0.813-0.414 1.281-0.713c0.672 7e-3 1.338 0.076 1.989 0.203 0.22 0.092 0.316 0.101 0.553 0.152 0.043 9e-3 0.313 0.102 0.564 0.127 0.53 0.163 1.047 0.365 1.546 0.605 0.254 0.463 0.837 1.154 0.837 1.154s1.145 0.544 1.736 0.568c0.148 0.133 0.294 0.27 0.435 0.412 0.158 0.158 0.311 0.32 0.459 0.487 0.189 0.662 0.38 1.904 0.518 2.059 0.667 0.714 1.887 2.69 1.95 2.703 0.195 0.822 0.295 1.67 0.295 2.529 0 0.581-0.046 1.157-0.136 1.724-0.454 0.388-1.147 0.862-1.147 0.862s0.127 1.245 0.107 2.362c-0.522 1.037-1.21 1.994-2.046 2.83-1.2 1.2-2.649 2.094-4.225 2.632-1.047-0.094-2.368-0.122-2.368-0.122s-0.469 0.332-1.303 0.712h-3.764l-0.01-0.011c-1.05-0.522-2.603-1.262-2.603-1.262s-1.529 0.065-2.004 0.311c-0.545-0.244-1.07-0.533-1.57-0.863-0.073-0.214-0.643-1.374-0.643-1.374s-1.354-0.501-1.576-0.568c-0.502-0.576-0.94-1.198-1.309-1.857 0.038 0.016-0.108-2.299-0.068-2.285 0.184 0.062-1.324-2.591-1.324-2.591-7e-3 -0.166-0.011-0.333-0.011-0.5 0-1.146 0.179-2.275 0.522-3.347 0.452-0.466 0.998-1.13 0.998-1.13s0.311-1.014 0.405-1.74c0.241-0.352 0.504-0.691 0.787-1.015 0.042 0.072 2.961-1.833 2.961-1.833l1.77-1.344c0.528-0.18 1.07-0.321 1.622-0.419 0.266 0.022 1.08-0.022 1.08-0.022s0.7-0.088 0.973-0.15z" fill="#cddf7b"/>
        <path d="m17.882 29c-0.141-0.161-0.249-0.346-0.313-0.551-0.041-0.132-0.064-0.268-0.068-0.406-0.013-0.439 0.173-0.87 0.501-1.163 0.111-0.099 0.237-0.181 0.373-0.243 0.189-0.087 0.392-0.131 0.599-0.137 0.035 0 0.034 0 0.069 1e-3 0.103 4e-3 0.206 0.016 0.306 0.04 0.259 0.062 0.493 0.193 0.687 0.374 0.508 0.496 1.019 0.989 1.517 1.495-1.134 0.387-2.333 0.59-3.553 0.59h-0.118zm-8.381-0.962c-0.011-0.438 0.174-0.867 0.501-1.158 0.111-0.099 0.237-0.181 0.373-0.243 0.189-0.087 0.392-0.131 0.599-0.137 0.035 0 0.034 0 0.069 1e-3 0.103 4e-3 0.206 0.016 0.306 0.04 0.259 0.062 0.493 0.193 0.687 0.374 0.699 0.683 1.405 1.36 2.072 2.074l0.01 0.011h-0.118c-1.566 0-3.098-0.334-4.499-0.962zm7.525-5.538c0.219 6e-3 0.433 0.055 0.63 0.151 0.134 0.065 0.259 0.151 0.368 0.252 0.1 0.094 0.188 0.202 0.259 0.32 0.228 0.376 0.279 0.842 0.138 1.258-0.067 0.197-0.175 0.375-0.313 0.53-0.674 0.723-1.374 1.423-2.097 2.097-0.164 0.146-0.353 0.258-0.562 0.323-0.132 0.041-0.268 0.064-0.406 0.068-0.439 0.013-0.87-0.173-1.163-0.501-0.099-0.111-0.181-0.237-0.243-0.373-0.077-0.167-0.122-0.347-0.134-0.53-0.012-0.195 0.014-0.392 0.076-0.576 0.071-0.208 0.187-0.395 0.336-0.555 0.683-0.699 1.36-1.405 2.074-2.072 0.261-0.233 0.585-0.368 0.934-0.39 0.034-1e-3 0.068-2e-3 0.103-2e-3zm8 0c0.219 6e-3 0.433 0.055 0.63 0.151 0.134 0.065 0.259 0.151 0.368 0.252 0.1 0.094 0.188 0.202 0.259 0.32 0.228 0.376 0.279 0.842 0.138 1.258-0.067 0.197-0.175 0.375-0.313 0.53-0.674 0.723-1.374 1.423-2.097 2.097-0.164 0.146-0.353 0.258-0.562 0.323-0.186 0.059-0.384 0.08-0.578 0.063-0.183-0.015-0.362-0.065-0.527-0.145-0.124-0.06-0.239-0.138-0.342-0.229-0.328-0.293-0.514-0.724-0.501-1.163 4e-3 -0.149 0.031-0.297 0.078-0.438 0.071-0.208 0.187-0.395 0.336-0.555 0.683-0.699 1.36-1.405 2.074-2.072 0.261-0.233 0.585-0.368 0.934-0.39 0.034-1e-3 0.068-2e-3 0.103-2e-3zm-19.314 2.733c0.058-0.096 0.126-0.186 0.203-0.269 0.683-0.699 1.36-1.405 2.074-2.072 0.261-0.233 0.585-0.368 0.934-0.39 0.034-1e-3 0.068-2e-3 0.103-2e-3 0.219 6e-3 0.433 0.055 0.63 0.151 0.134 0.065 0.259 0.151 0.368 0.252 0.1 0.094 0.188 0.202 0.259 0.32 0.228 0.376 0.279 0.842 0.138 1.258-0.067 0.197-0.175 0.375-0.313 0.53-0.674 0.723-1.374 1.423-2.097 2.097-0.026 0.023-0.052 0.045-0.08 0.067-0.61-0.404-1.184-0.871-1.709-1.397-0.177-0.176-0.347-0.358-0.51-0.545zm5.331-6.732c0.103 4e-3 0.206 0.016 0.306 0.04 0.259 0.062 0.493 0.193 0.687 0.374 0.699 0.683 1.405 1.36 2.072 2.074 0.146 0.164 0.258 0.353 0.323 0.562 0.041 0.132 0.064 0.268 0.068 0.406 0.013 0.439-0.173 0.87-0.501 1.163-0.111 0.099-0.237 0.181-0.373 0.243-0.167 0.077-0.347 0.122-0.53 0.134-0.195 0.012-0.392-0.014-0.576-0.076-0.208-0.071-0.395-0.187-0.555-0.336-0.699-0.683-1.405-1.36-2.072-2.074-0.146-0.164-0.258-0.353-0.323-0.562-0.041-0.132-0.064-0.268-0.068-0.406-0.013-0.439 0.173-0.87 0.501-1.163 0.111-0.099 0.237-0.181 0.373-0.243 0.189-0.087 0.392-0.131 0.599-0.137 0.035 0 0.034 0 0.069 1e-3zm-8.032-1e-3 0.032 1e-3c0.103 4e-3 0.206 0.016 0.306 0.04 0.259 0.062 0.493 0.193 0.687 0.374 0.699 0.683 1.405 1.36 2.072 2.074 0.146 0.164 0.258 0.353 0.323 0.562 0.132 0.419 0.07 0.885-0.166 1.255-0.074 0.116-0.164 0.222-0.267 0.314-0.111 0.099-0.237 0.181-0.373 0.243-0.167 0.077-0.347 0.122-0.53 0.134-0.195 0.012-0.392-0.014-0.576-0.076-0.04-0.014-0.078-0.029-0.116-0.045-0.832-1.485-1.313-3.153-1.392-4.876zm16.032 1e-3c0.103 4e-3 0.206 0.016 0.306 0.04 0.259 0.062 0.493 0.193 0.687 0.374 0.699 0.683 1.405 1.36 2.072 2.074 0.146 0.164 0.258 0.353 0.323 0.562 0.041 0.132 0.064 0.268 0.068 0.406 0.013 0.439-0.173 0.87-0.501 1.163-0.111 0.099-0.237 0.181-0.373 0.243-0.167 0.077-0.347 0.122-0.53 0.134-0.195 0.012-0.392-0.014-0.576-0.076-0.208-0.071-0.395-0.187-0.555-0.336-0.699-0.683-1.405-1.36-2.072-2.074-0.146-0.164-0.258-0.353-0.323-0.562-0.041-0.132-0.064-0.268-0.068-0.406-0.013-0.439 0.173-0.87 0.501-1.163 0.111-0.099 0.237-0.181 0.373-0.243 0.189-0.087 0.392-0.131 0.599-0.137 0.035 0 0.034 0 0.069 1e-3zm8.781 4.447c-0.653-0.637-1.31-1.27-1.932-1.937-0.138-0.155-0.246-0.333-0.313-0.53-0.047-0.141-0.074-0.289-0.078-0.438-4e-3 -0.138 0.011-0.276 0.044-0.409 0.108-0.426 0.404-0.791 0.799-0.983 0.197-0.096 0.411-0.145 0.63-0.151 0.035 0 0.034 0 0.069 1e-3 0.265 0.01 0.523 0.085 0.749 0.225 0.088 0.055 0.168 0.119 0.244 0.189 0.276 0.27 0.553 0.538 0.828 0.809-0.178 1.125-0.53 2.213-1.04 3.224zm-2.798-8.448c0.207 6e-3 0.41 0.05 0.599 0.137 0.136 0.062 0.262 0.144 0.373 0.243 0.103 0.092 0.193 0.198 0.267 0.314 0.236 0.37 0.298 0.836 0.166 1.255-0.065 0.209-0.177 0.398-0.323 0.562-0.674 0.723-1.374 1.423-2.097 2.097-0.164 0.146-0.353 0.258-0.562 0.323-0.142 0.045-0.291 0.068-0.44 0.069-0.44 2e-3 -0.867-0.193-1.151-0.528-0.089-0.105-0.164-0.222-0.221-0.347-0.077-0.167-0.122-0.347-0.134-0.53-0.012-0.195 0.014-0.392 0.076-0.576 0.071-0.208 0.187-0.395 0.336-0.555 0.683-0.699 1.36-1.405 2.074-2.072 0.261-0.233 0.585-0.368 0.934-0.39 0.034-1e-3 0.068-2e-3 0.103-2e-3zm-8 0c0.207 6e-3 0.41 0.05 0.599 0.137 0.4 0.183 0.704 0.54 0.821 0.964 0.037 0.132 0.055 0.27 0.054 0.408-1e-3 0.149-0.024 0.298-0.069 0.44-0.065 0.209-0.177 0.398-0.323 0.562-0.674 0.723-1.374 1.423-2.097 2.097-0.164 0.146-0.353 0.258-0.562 0.323-0.186 0.059-0.384 0.08-0.578 0.063-0.183-0.015-0.362-0.065-0.527-0.145-0.124-0.06-0.239-0.138-0.342-0.229-0.328-0.293-0.514-0.724-0.501-1.163 4e-3 -0.149 0.031-0.297 0.078-0.438 0.071-0.208 0.187-0.395 0.336-0.555 0.683-0.699 1.36-1.405 2.074-2.072 0.261-0.233 0.585-0.368 0.934-0.39 0.034-1e-3 0.068-2e-3 0.103-2e-3zm-8 0c0.207 6e-3 0.41 0.05 0.599 0.137 0.4 0.183 0.704 0.54 0.821 0.964 0.037 0.132 0.055 0.27 0.054 0.408-1e-3 0.149-0.024 0.298-0.069 0.44-0.065 0.209-0.177 0.398-0.323 0.562-0.674 0.723-1.374 1.423-2.097 2.097-0.164 0.146-0.353 0.258-0.562 0.323-0.186 0.059-0.384 0.08-0.578 0.063-0.183-0.015-0.362-0.065-0.527-0.145-0.124-0.06-0.239-0.138-0.342-0.229-0.328-0.293-0.514-0.724-0.501-1.163 4e-3 -0.149 0.031-0.297 0.078-0.438 0.071-0.208 0.187-0.395 0.336-0.555 0.683-0.699 1.36-1.405 2.074-2.072 0.261-0.233 0.585-0.368 0.934-0.39 0.034-1e-3 0.068-2e-3 0.103-2e-3zm10.017-3.999c0.103 4e-3 0.206 0.016 0.306 0.04 0.259 0.062 0.493 0.193 0.687 0.374 0.699 0.683 1.405 1.36 2.072 2.074 0.146 0.164 0.258 0.353 0.323 0.562 0.045 0.142 0.068 0.291 0.069 0.44 2e-3 0.44-0.193 0.867-0.528 1.151-0.105 0.089-0.222 0.164-0.347 0.221-0.167 0.077-0.347 0.122-0.53 0.134-0.195 0.012-0.392-0.014-0.576-0.076-0.208-0.071-0.395-0.187-0.555-0.336-0.699-0.683-1.405-1.36-2.072-2.074-0.146-0.164-0.258-0.353-0.323-0.562-0.041-0.132-0.064-0.268-0.068-0.406-0.013-0.439 0.173-0.87 0.501-1.163 0.111-0.099 0.237-0.181 0.373-0.243 0.189-0.087 0.392-0.131 0.599-0.137 0.035 0 0.034 0 0.069 1e-3zm-14.118 1.282c0.402 0.395 0.799 0.795 1.183 1.206 0.146 0.164 0.258 0.353 0.323 0.562 0.045 0.142 0.068 0.291 0.069 0.44 2e-3 0.44-0.193 0.867-0.528 1.151-0.105 0.089-0.222 0.164-0.347 0.221-0.167 0.077-0.347 0.122-0.53 0.134-0.195 0.012-0.392-0.014-0.576-0.076-0.208-0.071-0.395-0.187-0.555-0.336-0.147-0.144-0.295-0.288-0.442-0.432 0.324-1.017 0.797-1.984 1.403-2.87zm6.118-1.282c0.103 4e-3 0.206 0.016 0.306 0.04 0.259 0.062 0.493 0.193 0.687 0.374 0.699 0.683 1.405 1.36 2.072 2.074 0.146 0.164 0.258 0.353 0.323 0.562 0.041 0.132 0.064 0.268 0.068 0.406 0.013 0.439-0.173 0.87-0.501 1.163-0.111 0.099-0.237 0.181-0.373 0.243-0.167 0.077-0.347 0.122-0.53 0.134-0.195 0.012-0.392-0.014-0.576-0.076-0.208-0.071-0.395-0.187-0.555-0.336-0.699-0.683-1.405-1.36-2.072-2.074-0.146-0.164-0.258-0.353-0.323-0.562-0.041-0.132-0.064-0.268-0.068-0.406-0.013-0.439 0.173-0.87 0.501-1.163 0.111-0.099 0.237-0.181 0.373-0.243 0.189-0.087 0.392-0.131 0.599-0.137 0.035 0 0.034 0 0.069 1e-3zm15.194 0.208c1.209 1.366 2.053 3.004 2.468 4.762-0.063-0.013-0.125-0.03-0.186-0.05-0.208-0.071-0.395-0.187-0.555-0.336-0.699-0.683-1.405-1.36-2.072-2.074-0.138-0.155-0.246-0.333-0.313-0.53-0.141-0.416-0.09-0.882 0.138-1.258 0.071-0.118 0.159-0.226 0.259-0.32 0.08-0.074 0.167-0.139 0.261-0.194zm-10.363-3.709h2.126c0.039 0 0.079 0 0.118 1e-3 0.245 0.275 0.384 0.637 0.382 1.008-1e-3 0.149-0.024 0.298-0.069 0.44-0.065 0.209-0.177 0.398-0.323 0.562-0.674 0.723-1.374 1.423-2.097 2.097-0.164 0.146-0.353 0.258-0.562 0.323-0.132 0.041-0.268 0.064-0.406 0.068-0.439 0.013-0.87-0.173-1.163-0.501-0.099-0.111-0.181-0.237-0.243-0.373-0.077-0.167-0.122-0.347-0.134-0.53-0.012-0.195 0.014-0.392 0.076-0.576 0.071-0.208 0.187-0.395 0.336-0.555 0.646-0.661 1.287-1.329 1.959-1.964zm6.896 1.088c0.929 0.447 1.796 1.025 2.573 1.722-0.435 0.442-0.879 0.875-1.332 1.298-0.164 0.146-0.353 0.258-0.562 0.323-0.142 0.045-0.291 0.068-0.44 0.069-0.44 2e-3 -0.867-0.193-1.151-0.528-0.089-0.105-0.164-0.222-0.221-0.347-0.077-0.167-0.122-0.347-0.134-0.53-0.012-0.195 0.014-0.392 0.076-0.576 0.071-0.208 0.187-0.395 0.336-0.555 0.285-0.292 0.569-0.585 0.855-0.876zm-12.327-0.497 3e-3 0.01c0.037 0.132 0.055 0.27 0.054 0.408-1e-3 0.149-0.024 0.298-0.069 0.44-0.065 0.209-0.177 0.398-0.323 0.562-0.674 0.723-1.374 1.423-2.097 2.097-0.164 0.146-0.353 0.258-0.562 0.323-0.142 0.045-0.291 0.068-0.44 0.069-0.44 2e-3 -0.867-0.193-1.151-0.528-0.055-0.064-0.104-0.132-0.146-0.204 0.163-0.187 0.333-0.369 0.51-0.546 1.199-1.199 2.646-2.093 4.221-2.631zm9.664-0.387c0.378 0.073 0.75 0.167 1.117 0.279-0.043 7e-3 -0.086 0.011-0.129 0.014-0.195 0.012-0.392-0.014-0.576-0.076-0.149-0.051-0.287-0.125-0.412-0.217zm-5.989-0.204c-0.038 0.042-0.078 0.082-0.12 0.12-0.111 0.099-0.237 0.181-0.373 0.243-0.167 0.077-0.347 0.122-0.53 0.134-0.195 0.012-0.392-0.014-0.576-0.076-0.166-0.057-0.318-0.142-0.454-0.249 0.634-0.114 1.282-0.172 1.935-0.172h0.118z" fill="#98b84d"/>
    </g>
</svg>
