<?xml version="1.0" encoding="UTF-8"?>
<!DOCTYPE svg  PUBLIC '-//W3C//DTD SVG 1.1//EN'  'http://www.w3.org/Graphics/SVG/1.1/DTD/svg11.dtd'>
<svg clip-rule="evenodd" fill-rule="evenodd" stroke-linecap="round" stroke-linejoin="round" stroke-miterlimit="3" version="1.1" viewBox="0 0 32 32" xml:space="preserve" xmlns="http://www.w3.org/2000/svg">
<metadata>
<rdf:RDF xmlns:cc="http://web.resource.org/cc/" xmlns:dc="http://purl.org/dc/elements/1.1/" xmlns:rdf="http://www.w3.org/1999/02/22-rdf-syntax-ns#">

     <rdf:Description rdf:about="">
       <dc:title>Mutant Standard emoji 2023.12</dc:title>
     </rdf:Description>

    <cc:work rdf:about="">
        <cc:license rdf:resource="http://creativecommons.org/licenses/by-nc-sa/4.0/"/>
        <cc:attributionName>Caius Nocturne</cc:attributionName>
        <cc:attributionURL>http://mutant.tech/</cc:attributionURL>
    </cc:work>

</rdf:RDF>
</metadata>

    <rect id="orange" width="32" height="32" fill="none"/>
    <clipPath id="_clip1">
        <rect width="32" height="32"/>
    </clipPath>
    <g clip-path="url(#_clip1)">
        <g id="outline">
            <path d="m15 4.5v-2c0-0.133 0.053-0.26 0.146-0.354 0.094-0.093 0.221-0.146 0.354-0.146h1c0.133 0 0.26 0.053 0.354 0.146 0.093 0.094 0.146 0.221 0.146 0.354v3.5c3.183 0 6.235 1.264 8.485 3.515 2.251 2.25 3.515 5.302 3.515 8.485s-1.264 6.235-3.515 8.485c-2.25 2.251-5.302 3.515-8.485 3.515h-1c-3.183 0-6.235-1.264-8.485-3.515-2.251-2.25-3.515-5.302-3.515-8.485s1.264-6.235 3.515-8.485c0.926-0.927 1.989-1.686 3.141-2.259-1.086 0.098-2.192-0.134-3.165-0.69-2.008-1.147-4.491-2.566-4.491-2.566s0.447-0.268 1.073-0.644c2.446-1.467 5.472-1.584 8.023-0.308l2.904 1.452zm0 1.542v-0.542l-1.547 0.773c0.508-0.11 1.025-0.188 1.547-0.231z" fill="none" stroke="#000" stroke-width="4px"/>
        </g>
        <g id="emoji">
            <path d="m17 2.5c0-0.133-0.053-0.26-0.146-0.354-0.094-0.093-0.221-0.146-0.354-0.146h-1c-0.133 0-0.26 0.053-0.354 0.146-0.093 0.094-0.146 0.221-0.146 0.354v7.5h2v-7.5z" fill="#1c7d46"/>
            <path d="m16 5-3.904-1.952c-2.551-1.276-5.577-1.159-8.023 0.308-0.626 0.376-1.073 0.644-1.073 0.644s2.483 1.419 4.491 2.566c1.567 0.896 3.479 0.949 5.094 0.142 1.625-0.813 3.415-1.708 3.415-1.708z" fill="#219555"/>
            <path d="m29 18c0-3.183-1.264-6.235-3.515-8.485-2.25-2.251-5.302-3.515-8.485-3.515h-1c-3.183 0-6.235 1.264-8.485 3.515-2.251 2.25-3.515 5.302-3.515 8.485s1.264 6.235 3.515 8.485c2.25 2.251 5.302 3.515 8.485 3.515h1c3.183 0 6.235-1.264 8.485-3.515 2.251-2.25 3.515-5.302 3.515-8.485z" fill="#ee9b15"/>
            <path d="m16.685 11.15c0.077-0.773-0.196-1.54-0.746-2.089-0.549-0.55-1.316-0.823-2.089-0.746h-2e-3c-3.983 0.399-7.134 3.55-7.533 7.533v2e-3c-0.077 0.773 0.196 1.54 0.746 2.089 0.549 0.55 1.316 0.823 2.089 0.746h2e-3c3.983-0.399 7.134-3.55 7.533-7.533v-2e-3z" fill="#ffb96a"/>
        </g>
    </g>
</svg>
