<?xml version="1.0" encoding="UTF-8"?>
<!DOCTYPE svg  PUBLIC '-//W3C//DTD SVG 1.1//EN'  'http://www.w3.org/Graphics/SVG/1.1/DTD/svg11.dtd'>
<svg clip-rule="evenodd" fill-rule="evenodd" stroke-linejoin="round" stroke-miterlimit="2" version="1.1" viewBox="0 0 32 32" xml:space="preserve" xmlns="http://www.w3.org/2000/svg">
<metadata>
<rdf:RDF xmlns:cc="http://web.resource.org/cc/" xmlns:dc="http://purl.org/dc/elements/1.1/" xmlns:rdf="http://www.w3.org/1999/02/22-rdf-syntax-ns#">

     <rdf:Description rdf:about="">
       <dc:title>Mutant Standard emoji 2023.12</dc:title>
     </rdf:Description>

    <cc:work rdf:about="">
        <cc:license rdf:resource="http://creativecommons.org/licenses/by-nc-sa/4.0/"/>
        <cc:attributionName>Caius Nocturne</cc:attributionName>
        <cc:attributionURL>http://mutant.tech/</cc:attributionURL>
    </cc:work>

</rdf:RDF>
</metadata>

    <rect id="peach" width="32" height="32" fill="none"/>
    <clipPath id="_clip1">
        <rect width="32" height="32"/>
    </clipPath>
    <g clip-path="url(#_clip1)">
        <g id="Layer1">
            <path d="m16 9v-2c0-1.657-1.343-3-3-3h-7v0.158c0 1.376 0.937 2.576 2.272 2.91 2.951 0.738 7.728 1.932 7.728 1.932z" fill="#4eb61e"/>
            <path d="m5.017 7.177c-0.377-0.497-0.662-1.063-0.831-1.667-0.123-0.438-0.181-0.888-0.186-1.342v-2.168c3.043 0 6.086-0.037 9.128 1e-3 0.169 7e-3 0.338 0.018 0.506 0.039 0.411 0.052 0.815 0.156 1.2 0.307 0.748 0.295 1.42 0.773 1.946 1.38 0.423 0.488 0.75 1.058 0.957 1.67 0.064 0.188 0.116 0.38 0.157 0.574 0.825-0.259 1.68-0.418 2.543-0.475 1.482-0.096 2.98 0.114 4.377 0.616 1.64 0.589 3.129 1.576 4.31 2.857 0.696 0.754 1.284 1.608 1.741 2.527 0.536 1.078 0.89 2.244 1.045 3.438 0.149 1.152 0.108 2.33-0.067 3.477-0.196 1.278-0.574 2.527-1.121 3.698-0.766 1.64-1.86 3.122-3.199 4.34-1.222 1.11-2.643 1.997-4.179 2.602-1.051 0.415-2.153 0.697-3.274 0.839-0.518 0.066-1.039 0.099-1.562 0.109-1.672 0.01-3.344 0.01-5.016 0-0.523-0.01-1.044-0.043-1.562-0.109-1.01-0.128-2.005-0.37-2.961-0.72-2.325-0.851-4.398-2.342-5.951-4.27-1.039-1.29-1.841-2.768-2.352-4.344-0.352-1.084-0.566-2.211-0.638-3.348-0.059-0.932-0.023-1.868 0.141-2.788 0.251-1.407 0.783-2.761 1.556-3.963 0.715-1.111 1.633-2.089 2.697-2.872 0.194-0.142 0.392-0.278 0.595-0.408z"/>
        </g>
        <g id="Layer2">
            <path d="m17.183 8.408c2.746-1.372 6.006-1.226 8.617 0.388s4.2 4.464 4.2 7.533v3e-3c0 6.444-5.224 11.668-11.668 11.668h-4.664c-6.444 0-11.668-5.224-11.668-11.668v-3e-3c0-3.069 1.589-5.919 4.2-7.533s5.871-1.76 8.617-0.388c0.735 0.368 1.183 0.592 1.183 0.592s0.448-0.224 1.183-0.592z" fill="#df8721"/>
            <path d="m18.057 9.418c0.079 8e-3 0.155 0.018 0.231 0.041 0.077 0.023 0.146 0.057 0.216 0.094 0.371 0.216 0.743 0.431 1.112 0.65 0.553 0.341 1.071 0.73 1.543 1.177 1.212 1.148 2.095 2.628 2.529 4.241 0.129 0.479 0.218 0.968 0.267 1.461 0.025 0.25 0.038 0.5 0.044 0.751 2e-3 0.309 2e-3 0.617 0 0.926-0.012 0.635-0.082 1.267-0.222 1.888-0.252 1.12-0.719 2.191-1.368 3.139-0.296 0.432-0.631 0.835-0.994 1.213-0.566 0.572-1.139 1.139-1.708 1.708-0.051 0.047-0.063 0.061-0.119 0.102-0.085 0.062-0.179 0.11-0.279 0.142-0.407 0.132-0.866-0.017-1.118-0.363-0.062-0.085-0.11-0.179-0.142-0.279s-0.049-0.204-0.049-0.309c0-0.184 0.051-0.366 0.147-0.522 0.042-0.069 0.092-0.127 0.146-0.185 0.584-0.584 1.178-1.159 1.751-1.754 0.3-0.319 0.573-0.661 0.811-1.028 0.536-0.825 0.897-1.76 1.054-2.731 0.042-0.259 0.069-0.52 0.082-0.782 0.019-0.377 0.011-0.755 8e-3 -1.132-3e-3 -0.117-3e-3 -0.117-8e-3 -0.235-0.029-0.504-0.103-1.003-0.235-1.49-0.318-1.184-0.946-2.277-1.807-3.148-0.411-0.415-0.872-0.772-1.369-1.079-0.36-0.214-0.722-0.423-1.084-0.634-0.059-0.037-0.075-0.045-0.129-0.089-0.081-0.066-0.151-0.145-0.208-0.233-0.057-0.089-0.099-0.186-0.126-0.287-0.102-0.387 0.043-0.808 0.362-1.05 0.104-0.08 0.224-0.138 0.351-0.171 0.067-0.018 0.085-0.019 0.154-0.028 0.078-5e-3 0.078-5e-3 0.157-4e-3z" fill="#ca5415" fill-rule="nonzero"/>
            <path d="m16 9v-2c0-1.657-1.343-3-3-3h-7v0.158c0 1.376 0.937 2.576 2.272 2.91 2.951 0.738 7.728 1.932 7.728 1.932z" fill="#219555"/>
        </g>
    </g>
</svg>
