<?xml version="1.0" encoding="UTF-8"?>
<!DOCTYPE svg  PUBLIC '-//W3C//DTD SVG 1.1//EN'  'http://www.w3.org/Graphics/SVG/1.1/DTD/svg11.dtd'>
<svg clip-rule="evenodd" fill-rule="evenodd" stroke-linecap="round" stroke-linejoin="round" stroke-miterlimit="1.5" version="1.1" viewBox="0 0 32 32" xml:space="preserve" xmlns="http://www.w3.org/2000/svg">
<metadata>
<rdf:RDF xmlns:cc="http://web.resource.org/cc/" xmlns:dc="http://purl.org/dc/elements/1.1/" xmlns:rdf="http://www.w3.org/1999/02/22-rdf-syntax-ns#">

     <rdf:Description rdf:about="">
       <dc:title>Mutant Standard emoji 2023.12</dc:title>
     </rdf:Description>

    <cc:work rdf:about="">
        <cc:license rdf:resource="http://creativecommons.org/licenses/by-nc-sa/4.0/"/>
        <cc:attributionName>Caius Nocturne</cc:attributionName>
        <cc:attributionURL>http://mutant.tech/</cc:attributionURL>
    </cc:work>

</rdf:RDF>
</metadata>

    <rect id="pear" width="32" height="32" fill="none"/>
    <g id="outline" stroke="#000" stroke-width="4px">
        <path d="m6.575 7.425c-0.959 0.959-1.269 2.391-0.793 3.661 0.667 1.778 1.581 4.217 1.997 5.324 0.147 0.392 0.251 0.799 0.31 1.214 0.107 0.749 0.294 2.059 0.471 3.298 0.286 1.998 1.212 3.85 2.639 5.277l0.204 0.204c1.75 1.75 4.123 2.733 6.597 2.733s4.847-0.983 6.597-2.733l1.806-1.806c1.75-1.75 2.733-4.123 2.733-6.597s-0.983-4.847-2.733-6.597l-0.204-0.204c-1.427-1.427-3.279-2.353-5.277-2.639-1.239-0.177-2.549-0.364-3.298-0.471-0.415-0.059-0.822-0.163-1.214-0.31-1.107-0.416-3.546-1.33-5.324-1.997-1.27-0.476-2.702-0.166-3.661 0.793l-0.85 0.85z" fill="none"/>
        <path d="m9 7-2 2-5-5 2-2 5 5z"/>
    </g>
    <g id="emoji">
        <path d="m9 7-2 2-5-5 2-2 5 5z" fill="#8b5e11"/>
        <path d="m6.575 7.425c-0.959 0.959-1.269 2.391-0.793 3.661 0.667 1.778 1.581 4.217 1.997 5.324 0.147 0.392 0.251 0.799 0.31 1.214 0.107 0.749 0.294 2.059 0.471 3.298 0.286 1.998 1.212 3.85 2.639 5.277l0.204 0.204c1.75 1.75 4.123 2.733 6.597 2.733s4.847-0.983 6.597-2.733l1.806-1.806c1.75-1.75 2.733-4.123 2.733-6.597s-0.983-4.847-2.733-6.597l-0.204-0.204c-1.427-1.427-3.279-2.353-5.277-2.639-1.239-0.177-2.549-0.364-3.298-0.471-0.415-0.059-0.822-0.163-1.214-0.31-1.107-0.416-3.546-1.33-5.324-1.997-1.27-0.476-2.702-0.166-3.661 0.793l-0.85 0.85z" fill="#a8d752"/>
        <path d="m12.133 8.004 0.098 9e-3 0.097 0.014 0.097 0.019 0.095 0.023 0.094 0.028 0.093 0.032 0.091 0.037 0.089 0.041 0.087 0.046 2.614 1.457 0.097 0.053 0.089 0.047 0.09 0.045 0.091 0.044 0.092 0.042 0.092 0.04 0.093 0.039 0.094 0.037 0.094 0.036 0.094 0.034 0.096 0.032 0.095 0.03 0.096 0.029 0.097 0.028 0.097 0.025 0.098 0.024 0.097 0.022 0.099 0.021 0.098 0.018 0.099 0.017 0.1 0.016 0.099 0.013 0.1 0.012 0.1 0.011 0.1 8e-3 0.101 7e-3 0.1 5e-3 0.101 3e-3 0.101 2e-3 0.101-1e-3 0.101-2e-3 0.113-4e-3h-4e-3l0.093-4e-3 0.1-3e-3 0.101-2e-3 0.1-1e-3h0.1l0.1 1e-3 0.1 2e-3 0.1 3e-3 0.1 4e-3 0.1 5e-3 0.099 6e-3 0.1 7e-3 0.099 8e-3 0.099 9e-3 0.099 0.01 0.099 0.011 0.099 0.012 0.099 0.013 0.098 0.014 0.098 0.015 0.196 0.032 0.098 0.018 0.098 0.019 0.097 0.02 0.194 0.042 0.096 0.023 0.097 0.024 0.096 0.024 0.096 0.026 0.095 0.026 0.096 0.028 0.095 0.028 0.095 0.03 0.094 0.03 0.094 0.031 0.094 0.033 0.093 0.033 0.094 0.034 0.093 0.035 0.092 0.036 0.092 0.037 0.092 0.038 0.092 0.039 0.091 0.039 0.091 0.041 0.18 0.084 0.09 0.044 0.089 0.044 0.089 0.045 0.088 0.046 0.088 0.047 0.088 0.048 0.087 0.049 0.086 0.05 0.087 0.051 0.086 0.051 0.17 0.106 0.168 0.11 0.079 0.053 0.548 0.373 0.08 0.058 0.077 0.061 0.074 0.064 0.07 0.069 0.068 0.071 0.063 0.075 0.06 0.078 0.056 0.081 0.051 0.083 0.048 0.086 0.043 0.088 0.04 0.09 0.034 0.092 0.03 0.094 0.025 0.094 0.021 0.096 0.016 0.097 0.011 0.098 7e-3 0.098 1e-3 0.098-3e-3 0.098-8e-3 0.098-0.013 0.097-0.017 0.097-0.023 0.095-0.027 0.095-0.031 0.093-0.036 0.091-0.041 0.089-0.045 0.088-0.049 0.085-0.053 0.082-0.057 0.08-0.061 0.077-0.065 0.074-0.068 0.07-0.072 0.067-0.075 0.064-0.078 0.059-0.081 0.056-0.083 0.052-0.086 0.048-0.088 0.043-0.09 0.039-0.092 0.035-0.093 0.03-0.095 0.025-0.096 0.021-0.097 0.016-0.097 0.011-0.098 6e-3 -0.099 2e-3 -0.098-3e-3 -0.097-8e-3 -0.098-0.013-0.096-0.018-0.096-0.022-0.094-0.027-0.093-0.032-0.092-0.036-0.089-0.04-0.087-0.045-0.085-0.049-0.083-0.054-0.54-0.367-0.054-0.036-0.1-0.066-0.051-0.032-0.102-0.062-0.051-0.03-0.052-0.03-0.104-0.058-0.052-0.028-0.106-0.054-0.054-0.027-0.053-0.025-0.053-0.026-0.054-0.025-0.055-0.024-0.054-0.023-0.055-0.024-0.054-0.022-0.055-0.022-0.056-0.022-0.055-0.021-0.055-0.02-0.056-0.02-0.112-0.038-0.057-0.018-0.056-0.017-0.114-0.034-0.057-0.015-0.057-0.016-0.057-0.014-0.058-0.014-0.057-0.014-0.058-0.013-0.116-0.024-0.116-0.022-0.059-0.01-0.058-0.01-0.059-8e-3 -0.059-9e-3 -0.059-7e-3 -0.058-8e-3 -0.059-6e-3 -0.06-6e-3 -0.118-0.01-0.059-4e-3 -0.06-4e-3 -0.059-3e-3 -0.06-2e-3 -0.059-2e-3 -0.06-1e-3 -0.059-1e-3h-0.06l-0.12 2e-3 -0.06 2e-3 -0.067 3e-3h-4e-3l-0.16 6e-3 -0.17 3e-3 -0.171 1e-3 -0.171-3e-3 -0.17-5e-3 -0.17-9e-3 -0.169-0.011-0.169-0.015-0.169-0.017-0.169-0.02-0.168-0.023-0.168-0.026-0.167-0.029-0.166-0.031-0.166-0.035-0.165-0.037-0.165-0.041-0.164-0.043-0.163-0.046-0.162-0.049-0.162-0.051-0.16-0.054-0.16-0.058-0.159-0.06-0.158-0.062-0.157-0.066-0.156-0.068-0.155-0.071-0.153-0.074-0.153-0.076-0.151-0.08-0.142-0.077-2.63-1.466-0.084-0.05-0.082-0.054-0.08-0.058-0.076-0.062-0.073-0.065-0.07-0.069-0.066-0.072-0.063-0.076-0.059-0.078-0.055-0.081-0.051-0.084-0.047-0.086-0.043-0.089-0.038-0.09-0.034-0.093-0.029-0.093-0.024-0.095-0.02-0.097-0.015-0.097-0.011-0.097-5e-3 -0.098-1e-3 -0.098 4e-3 -0.098 9e-3 -0.098 0.014-0.097 0.019-0.097 0.023-0.095 0.028-0.094 0.032-0.093 0.037-0.091 0.041-0.089 0.046-0.087 0.05-0.084 0.054-0.082 0.058-0.08 0.062-0.076 0.065-0.073 0.069-0.07 0.072-0.066 0.076-0.063 0.078-0.059 0.081-0.055 0.084-0.051 0.086-0.047 0.089-0.043 0.09-0.038 0.093-0.034 0.093-0.029 0.095-0.024 0.096-0.02 0.097-0.015 0.098-0.011 0.098-5e-3 0.098-1e-3 0.098 4e-3z" fill="#c3ea68"/>
    </g>
</svg>
