<?xml version="1.0" encoding="UTF-8"?>
<!DOCTYPE svg  PUBLIC '-//W3C//DTD SVG 1.1//EN'  'http://www.w3.org/Graphics/SVG/1.1/DTD/svg11.dtd'>
<svg clip-rule="evenodd" fill-rule="evenodd" stroke-linecap="round" stroke-linejoin="round" stroke-miterlimit="1.5" version="1.1" viewBox="0 0 32 32" xml:space="preserve" xmlns="http://www.w3.org/2000/svg">
<metadata>
<rdf:RDF xmlns:cc="http://web.resource.org/cc/" xmlns:dc="http://purl.org/dc/elements/1.1/" xmlns:rdf="http://www.w3.org/1999/02/22-rdf-syntax-ns#">

     <rdf:Description rdf:about="">
       <dc:title>Mutant Standard emoji 2023.12</dc:title>
     </rdf:Description>

    <cc:work rdf:about="">
        <cc:license rdf:resource="http://creativecommons.org/licenses/by-nc-sa/4.0/"/>
        <cc:attributionName>Caius Nocturne</cc:attributionName>
        <cc:attributionURL>http://mutant.tech/</cc:attributionURL>
    </cc:work>

</rdf:RDF>
</metadata>

    <rect id="pineapple" width="32" height="32" fill="none"/>
    <g id="outline" fill="none" stroke="#000" stroke-width="4px">
        <path d="m20.464 21.536c0.938-0.938 1.465-2.21 1.465-3.536s-0.527-2.598-1.465-3.536l-2.928-2.928c-0.938-0.938-2.21-1.465-3.536-1.465s-2.598 0.527-3.536 1.465l-5.928 5.928c-0.938 0.938-1.465 2.21-1.465 3.536s0.527 2.598 1.465 3.536l2.928 2.928c0.938 0.938 2.21 1.465 3.536 1.465s2.598-0.527 3.536-1.465l5.928-5.928z"/>
        
            <path d="m16 11v-7l3 6-3 1z"/>
            <path d="m21 16h7l-6-3-1 3z"/>
            <path d="m20 10v-7l-3 6 3 1z"/>
            <path d="m22 12h7l-6 3-1-3z"/>
            <path d="m27 5-8 4 4 4 4-8z"/>
            <path d="m20 12s1.02-1.223 2.138-2.565c1.739-2.087 2.077-5.005 0.863-7.434l-1e-3 -1e-3s-0.215 0.862-0.446 1.785c-0.363 1.449-1.112 2.773-2.168 3.829l-2.386 2.386 2 2z"/>
            <path d="m20 12s1.223-1.02 2.565-2.138c2.087-1.739 5.005-2.077 7.434-0.863l1e-3 1e-3s-0.862 0.215-1.785 0.446c-1.449 0.363-2.773 1.112-3.829 2.168l-2.386 2.386-2-2z"/>
            <path d="m19 8.5h5v5l-4 4-5-5 4-4z"/>
        
    </g>
    <g id="emoji">
        <path d="m16 13v-9l3 6-3 3z" fill="#559d3d"/>
        <path d="m19 16h9l-6-3-3 3z" fill="#559d3d"/>
        <path d="m20 10v-7l-3 6 3 1z" fill="#559d3d"/>
        <path d="m22 12h7l-6 3-1-3z" fill="#559d3d"/>
        <path d="m27 5-8 4 4 4 4-8z" fill="#559d3d"/>
        <path d="m20 12s1.02-1.223 2.138-2.565c1.739-2.087 2.077-5.005 0.863-7.434l-1e-3 -1e-3s-0.215 0.862-0.446 1.785c-0.363 1.449-1.112 2.773-2.168 3.829l-2.386 2.386 2 2z" fill="#559d3d"/>
        <path d="m20 12s1.223-1.02 2.565-2.138c2.087-1.739 5.005-2.077 7.434-0.863l1e-3 1e-3s-0.862 0.215-1.785 0.446c-1.449 0.363-2.773 1.112-3.829 2.168l-2.386 2.386-2-2z" fill="#559d3d"/>
        <path d="m19 8.5h5v5l-4 4-5-5 4-4z" fill="#559d3d"/>
        <path d="m20.464 21.536c0.938-0.938 1.465-2.21 1.465-3.536s-0.527-2.598-1.465-3.536l-2.928-2.928c-0.938-0.938-2.21-1.465-3.536-1.465s-2.598 0.527-3.536 1.465l-5.928 5.928c-0.938 0.938-1.465 2.21-1.465 3.536s0.527 2.598 1.465 3.536l2.928 2.928c0.938 0.938 2.21 1.465 3.536 1.465s2.598-0.527 3.536-1.465l5.928-5.928z" fill="#8a9e14"/>
        <clipPath id="_clip1">
            <path d="m20.464 21.536c0.938-0.938 1.465-2.21 1.465-3.536s-0.527-2.598-1.465-3.536l-2.928-2.928c-0.938-0.938-2.21-1.465-3.536-1.465s-2.598 0.527-3.536 1.465l-5.928 5.928c-0.938 0.938-1.465 2.21-1.465 3.536s0.527 2.598 1.465 3.536l2.928 2.928c0.938 0.938 2.21 1.465 3.536 1.465s2.598-0.527 3.536-1.465l5.928-5.928z"/>
        </clipPath>
        <g clip-path="url(#_clip1)">
            <g fill="#f7ca27">
                <path d="m14.596 18.617c0.085-0.341-0.015-0.701-0.263-0.95-0.249-0.248-0.609-0.348-0.95-0.263-0.637 0.159-1.328 0.332-1.801 0.45-0.358 0.09-0.638 0.37-0.728 0.728-0.118 0.473-0.291 1.164-0.45 1.801-0.085 0.341 0.015 0.701 0.263 0.95 0.249 0.248 0.609 0.348 0.95 0.263 0.637-0.159 1.328-0.332 1.801-0.45 0.358-0.09 0.638-0.37 0.728-0.728 0.118-0.473 0.291-1.164 0.45-1.801z"/>
                <path d="m21.596 11.617c0.085-0.341-0.015-0.701-0.263-0.95-0.249-0.248-0.609-0.348-0.95-0.263-0.637 0.159-1.328 0.332-1.801 0.45-0.358 0.09-0.638 0.37-0.728 0.728-0.118 0.473-0.291 1.164-0.45 1.801-0.085 0.341 0.015 0.701 0.263 0.95 0.249 0.248 0.609 0.348 0.95 0.263 0.637-0.159 1.328-0.332 1.801-0.45 0.358-0.09 0.638-0.37 0.728-0.728 0.118-0.473 0.291-1.164 0.45-1.801z"/>
                <path d="m7.596 25.617c0.085-0.341-0.015-0.701-0.263-0.95-0.249-0.248-0.609-0.348-0.95-0.263-0.637 0.159-1.328 0.332-1.801 0.45-0.358 0.09-0.638 0.37-0.728 0.728-0.118 0.473-0.291 1.164-0.45 1.801-0.085 0.341 0.015 0.701 0.263 0.95 0.249 0.248 0.609 0.348 0.95 0.263 0.637-0.159 1.328-0.332 1.801-0.45 0.358-0.09 0.638-0.37 0.728-0.728 0.118-0.473 0.291-1.164 0.45-1.801z"/>
                <path d="m9.596 20.617c0.085-0.341-0.015-0.701-0.263-0.95-0.249-0.248-0.609-0.348-0.95-0.263-0.637 0.159-1.328 0.332-1.801 0.45-0.358 0.09-0.638 0.37-0.728 0.728-0.118 0.473-0.291 1.164-0.45 1.801-0.085 0.341 0.015 0.701 0.263 0.95 0.249 0.248 0.609 0.348 0.95 0.263 0.637-0.159 1.328-0.332 1.801-0.45 0.358-0.09 0.638-0.37 0.728-0.728 0.118-0.473 0.291-1.164 0.45-1.801z"/>
                <path d="m16.596 13.617c0.085-0.341-0.015-0.701-0.263-0.95-0.249-0.248-0.609-0.348-0.95-0.263-0.637 0.159-1.328 0.332-1.801 0.45-0.358 0.09-0.638 0.37-0.728 0.728-0.118 0.473-0.291 1.164-0.45 1.801-0.085 0.341 0.015 0.701 0.263 0.95 0.249 0.248 0.609 0.348 0.95 0.263 0.637-0.159 1.328-0.332 1.801-0.45 0.358-0.09 0.638-0.37 0.728-0.728 0.118-0.473 0.291-1.164 0.45-1.801z"/>
                <path d="m17.596 21.617c0.085-0.341-0.015-0.701-0.263-0.95-0.249-0.248-0.609-0.348-0.95-0.263-0.637 0.159-1.328 0.332-1.801 0.45-0.358 0.09-0.638 0.37-0.728 0.728-0.118 0.473-0.291 1.164-0.45 1.801-0.085 0.341 0.015 0.701 0.263 0.95 0.249 0.248 0.609 0.348 0.95 0.263 0.637-0.159 1.328-0.332 1.801-0.45 0.358-0.09 0.638-0.37 0.728-0.728 0.118-0.473 0.291-1.164 0.45-1.801z"/>
                <path d="m24.596 14.617c0.085-0.341-0.015-0.701-0.263-0.95-0.249-0.248-0.609-0.348-0.95-0.263-0.637 0.159-1.328 0.332-1.801 0.45-0.358 0.09-0.638 0.37-0.728 0.728-0.118 0.473-0.291 1.164-0.45 1.801-0.085 0.341 0.015 0.701 0.263 0.95 0.249 0.248 0.609 0.348 0.95 0.263 0.637-0.159 1.328-0.332 1.801-0.45 0.358-0.09 0.638-0.37 0.728-0.728 0.118-0.473 0.291-1.164 0.45-1.801z"/>
                <path d="m10.596 28.617c0.085-0.341-0.015-0.701-0.263-0.95-0.249-0.248-0.609-0.348-0.95-0.263-0.637 0.159-1.328 0.332-1.801 0.45-0.358 0.09-0.638 0.37-0.728 0.728-0.118 0.473-0.291 1.164-0.45 1.801-0.085 0.341 0.015 0.701 0.263 0.95 0.249 0.248 0.609 0.348 0.95 0.263 0.637-0.159 1.328-0.332 1.801-0.45 0.358-0.09 0.638-0.37 0.728-0.728 0.118-0.473 0.291-1.164 0.45-1.801z"/>
                <path d="m12.596 23.617c0.085-0.341-0.015-0.701-0.263-0.95-0.249-0.248-0.609-0.348-0.95-0.263-0.637 0.159-1.328 0.332-1.801 0.45-0.358 0.09-0.638 0.37-0.728 0.728-0.118 0.473-0.291 1.164-0.45 1.801-0.085 0.341 0.015 0.701 0.263 0.95 0.249 0.248 0.609 0.348 0.95 0.263 0.637-0.159 1.328-0.332 1.801-0.45 0.358-0.09 0.638-0.37 0.728-0.728 0.118-0.473 0.291-1.164 0.45-1.801z"/>
                <path d="m19.596 16.617c0.085-0.341-0.015-0.701-0.263-0.95-0.249-0.248-0.609-0.348-0.95-0.263-0.637 0.159-1.328 0.332-1.801 0.45-0.358 0.09-0.638 0.37-0.728 0.728-0.118 0.473-0.291 1.164-0.45 1.801-0.085 0.341 0.015 0.701 0.263 0.95 0.249 0.248 0.609 0.348 0.95 0.263 0.637-0.159 1.328-0.332 1.801-0.45 0.358-0.09 0.638-0.37 0.728-0.728 0.118-0.473 0.291-1.164 0.45-1.801z"/>
                <path d="m20.596 24.617c0.085-0.341-0.015-0.701-0.263-0.95-0.249-0.248-0.609-0.348-0.95-0.263-0.637 0.159-1.328 0.332-1.801 0.45-0.358 0.09-0.638 0.37-0.728 0.728-0.118 0.473-0.291 1.164-0.45 1.801-0.085 0.341 0.015 0.701 0.263 0.95 0.249 0.248 0.609 0.348 0.95 0.263 0.637-0.159 1.328-0.332 1.801-0.45 0.358-0.09 0.638-0.37 0.728-0.728 0.118-0.473 0.291-1.164 0.45-1.801z"/>
                <path d="m27.596 17.617c0.085-0.341-0.015-0.701-0.263-0.95-0.249-0.248-0.609-0.348-0.95-0.263-0.637 0.159-1.328 0.332-1.801 0.45-0.358 0.09-0.638 0.37-0.728 0.728-0.118 0.473-0.291 1.164-0.45 1.801-0.085 0.341 0.015 0.701 0.263 0.95 0.249 0.248 0.609 0.348 0.95 0.263 0.637-0.159 1.328-0.332 1.801-0.45 0.358-0.09 0.638-0.37 0.728-0.728 0.118-0.473 0.291-1.164 0.45-1.801z"/>
                <path d="m13.596 31.617c0.085-0.341-0.015-0.701-0.263-0.95-0.249-0.248-0.609-0.348-0.95-0.263-0.637 0.159-1.328 0.332-1.801 0.45-0.358 0.09-0.638 0.37-0.728 0.728-0.118 0.473-0.291 1.164-0.45 1.801-0.085 0.341 0.015 0.701 0.263 0.95 0.249 0.248 0.609 0.348 0.95 0.263 0.637-0.159 1.328-0.332 1.801-0.45 0.358-0.09 0.638-0.37 0.728-0.728 0.118-0.473 0.291-1.164 0.45-1.801z"/>
                <path d="m15.596 26.617c0.085-0.341-0.015-0.701-0.263-0.95-0.249-0.248-0.609-0.348-0.95-0.263-0.637 0.159-1.328 0.332-1.801 0.45-0.358 0.09-0.638 0.37-0.728 0.728-0.118 0.473-0.291 1.164-0.45 1.801-0.085 0.341 0.015 0.701 0.263 0.95 0.249 0.248 0.609 0.348 0.95 0.263 0.637-0.159 1.328-0.332 1.801-0.45 0.358-0.09 0.638-0.37 0.728-0.728 0.118-0.473 0.291-1.164 0.45-1.801z"/>
                <path d="m22.596 19.617c0.085-0.341-0.015-0.701-0.263-0.95-0.249-0.248-0.609-0.348-0.95-0.263-0.637 0.159-1.328 0.332-1.801 0.45-0.358 0.09-0.638 0.37-0.728 0.728-0.118 0.473-0.291 1.164-0.45 1.801-0.085 0.341 0.015 0.701 0.263 0.95 0.249 0.248 0.609 0.348 0.95 0.263 0.637-0.159 1.328-0.332 1.801-0.45 0.358-0.09 0.638-0.37 0.728-0.728 0.118-0.473 0.291-1.164 0.45-1.801z"/>
                <path d="m11.596 15.617c0.085-0.341-0.015-0.701-0.263-0.95-0.249-0.248-0.609-0.348-0.95-0.263-0.637 0.159-1.328 0.332-1.801 0.45-0.358 0.09-0.638 0.37-0.728 0.728-0.118 0.473-0.291 1.164-0.45 1.801-0.085 0.341 0.015 0.701 0.263 0.95 0.249 0.248 0.609 0.348 0.95 0.263 0.637-0.159 1.328-0.332 1.801-0.45 0.358-0.09 0.638-0.37 0.728-0.728 0.118-0.473 0.291-1.164 0.45-1.801z"/>
                <path d="m18.596 8.617c0.085-0.341-0.015-0.701-0.263-0.95-0.249-0.248-0.609-0.348-0.95-0.263-0.637 0.159-1.328 0.332-1.801 0.45-0.358 0.09-0.638 0.37-0.728 0.728-0.118 0.473-0.291 1.164-0.45 1.801-0.085 0.341 0.015 0.701 0.263 0.95 0.249 0.248 0.609 0.348 0.95 0.263 0.637-0.159 1.328-0.332 1.801-0.45 0.358-0.09 0.638-0.37 0.728-0.728 0.118-0.473 0.291-1.164 0.45-1.801z"/>
                <path d="m4.596 22.617c0.085-0.341-0.015-0.701-0.263-0.95-0.249-0.248-0.609-0.348-0.95-0.263-0.637 0.159-1.328 0.332-1.801 0.45-0.358 0.09-0.638 0.37-0.728 0.728-0.118 0.473-0.291 1.164-0.45 1.801-0.085 0.341 0.015 0.701 0.263 0.95 0.249 0.248 0.609 0.348 0.95 0.263 0.637-0.159 1.328-0.332 1.801-0.45 0.358-0.09 0.638-0.37 0.728-0.728 0.118-0.473 0.291-1.164 0.45-1.801z"/>
                <path d="m6.596 17.617c0.085-0.341-0.015-0.701-0.263-0.95-0.249-0.248-0.609-0.348-0.95-0.263-0.637 0.159-1.328 0.332-1.801 0.45-0.358 0.09-0.638 0.37-0.728 0.728-0.118 0.473-0.291 1.164-0.45 1.801-0.085 0.341 0.015 0.701 0.263 0.95 0.249 0.248 0.609 0.348 0.95 0.263 0.637-0.159 1.328-0.332 1.801-0.45 0.358-0.09 0.638-0.37 0.728-0.728 0.118-0.473 0.291-1.164 0.45-1.801z"/>
                <path d="m13.596 10.617c0.085-0.341-0.015-0.701-0.263-0.95-0.249-0.248-0.609-0.348-0.95-0.263-0.637 0.159-1.328 0.332-1.801 0.45-0.358 0.09-0.638 0.37-0.728 0.728-0.118 0.473-0.291 1.164-0.45 1.801-0.085 0.341 0.015 0.701 0.263 0.95 0.249 0.248 0.609 0.348 0.95 0.263 0.637-0.159 1.328-0.332 1.801-0.45 0.358-0.09 0.638-0.37 0.728-0.728 0.118-0.473 0.291-1.164 0.45-1.801z"/>
                <path d="m8.596 12.617c0.085-0.341-0.015-0.701-0.263-0.95-0.249-0.248-0.609-0.348-0.95-0.263-0.637 0.159-1.328 0.332-1.801 0.45-0.358 0.09-0.638 0.37-0.728 0.728-0.118 0.473-0.291 1.164-0.45 1.801-0.085 0.341 0.015 0.701 0.263 0.95 0.249 0.248 0.609 0.348 0.95 0.263 0.637-0.159 1.328-0.332 1.801-0.45 0.358-0.09 0.638-0.37 0.728-0.728 0.118-0.473 0.291-1.164 0.45-1.801z"/>
                <path d="m15.596 5.617c0.085-0.341-0.015-0.701-0.263-0.95-0.249-0.248-0.609-0.348-0.95-0.263-0.637 0.159-1.328 0.332-1.801 0.45-0.358 0.09-0.638 0.37-0.728 0.728-0.118 0.473-0.291 1.164-0.45 1.801-0.085 0.341 0.015 0.701 0.263 0.95 0.249 0.248 0.609 0.348 0.95 0.263 0.637-0.159 1.328-0.332 1.801-0.45 0.358-0.09 0.638-0.37 0.728-0.728 0.118-0.473 0.291-1.164 0.45-1.801z"/>
                <path d="m1.596 19.617c0.085-0.341-0.015-0.701-0.263-0.95-0.249-0.248-0.609-0.348-0.95-0.263-0.637 0.159-1.328 0.332-1.801 0.45-0.358 0.09-0.638 0.37-0.728 0.728-0.118 0.473-0.291 1.164-0.45 1.801-0.085 0.341 0.015 0.701 0.263 0.95 0.249 0.248 0.609 0.348 0.95 0.263 0.637-0.159 1.328-0.332 1.801-0.45 0.358-0.09 0.638-0.37 0.728-0.728 0.118-0.473 0.291-1.164 0.45-1.801z"/>
                <path d="m3.596 14.617c0.085-0.341-0.015-0.701-0.263-0.95-0.249-0.248-0.609-0.348-0.95-0.263-0.637 0.159-1.328 0.332-1.801 0.45-0.358 0.09-0.638 0.37-0.728 0.728-0.118 0.473-0.291 1.164-0.45 1.801-0.085 0.341 0.015 0.701 0.263 0.95 0.249 0.248 0.609 0.348 0.95 0.263 0.637-0.159 1.328-0.332 1.801-0.45 0.358-0.09 0.638-0.37 0.728-0.728 0.118-0.473 0.291-1.164 0.45-1.801z"/>
                <path d="m10.596 7.617c0.085-0.341-0.015-0.701-0.263-0.95-0.249-0.248-0.609-0.348-0.95-0.263-0.637 0.159-1.328 0.332-1.801 0.45-0.358 0.09-0.638 0.37-0.728 0.728-0.118 0.473-0.291 1.164-0.45 1.801-0.085 0.341 0.015 0.701 0.263 0.95 0.249 0.248 0.609 0.348 0.95 0.263 0.637-0.159 1.328-0.332 1.801-0.45 0.358-0.09 0.638-0.37 0.728-0.728 0.118-0.473 0.291-1.164 0.45-1.801z"/>
            </g>
        </g>
    </g>
</svg>
