<?xml version="1.0" encoding="UTF-8"?>
<!DOCTYPE svg  PUBLIC '-//W3C//DTD SVG 1.1//EN'  'http://www.w3.org/Graphics/SVG/1.1/DTD/svg11.dtd'>
<svg clip-rule="evenodd" fill-rule="evenodd" stroke-linecap="round" stroke-linejoin="round" stroke-miterlimit="2" version="1.1" viewBox="0 0 32 32" xml:space="preserve" xmlns="http://www.w3.org/2000/svg">
<metadata>
<rdf:RDF xmlns:cc="http://web.resource.org/cc/" xmlns:dc="http://purl.org/dc/elements/1.1/" xmlns:rdf="http://www.w3.org/1999/02/22-rdf-syntax-ns#">

     <rdf:Description rdf:about="">
       <dc:title>Mutant Standard emoji 2023.12</dc:title>
     </rdf:Description>

    <cc:work rdf:about="">
        <cc:license rdf:resource="http://creativecommons.org/licenses/by-nc-sa/4.0/"/>
        <cc:attributionName>Caius Nocturne</cc:attributionName>
        <cc:attributionURL>http://mutant.tech/</cc:attributionURL>
    </cc:work>

</rdf:RDF>
</metadata>

    <rect id="red_apple" width="32" height="32" fill="none"/>
    <clipPath id="_clip1">
        <rect width="32" height="32"/>
    </clipPath>
    <g clip-path="url(#_clip1)">
        <g id="outline">
            <path d="m15 5.5v-2c0-0.133 0.053-0.26 0.146-0.354 0.094-0.093 0.221-0.146 0.354-0.146h1c0.133 0 0.26 0.053 0.354 0.146 0.093 0.094 0.146 0.221 0.146 0.354v4.36c1.14-0.279 2.588-0.87 4-0.86 1.351 0.01 2.767 0.032 4.548 0.841 1.384 0.628 3.36 2.811 3.624 6.544 0.161 2.274-0.221 4.81-2.704 9.726-2.517 4.982-4.542 5.904-6.468 5.889-1.639-0.013-4-1-4-1s-2.361 0.987-4 1c-1.926 0.015-3.951-0.907-6.468-5.889-2.483-4.916-2.865-7.452-2.704-9.726 0.264-3.733 2.24-5.916 3.624-6.544 0.31-0.141 0.609-0.258 0.898-0.355l-4.35-2.486s0.447-0.268 1.073-0.644c2.446-1.467 5.472-1.584 8.023-0.308l2.904 1.452zm0 2.36v-1.36l-1.733 0.866c0.621 0.172 1.209 0.366 1.733 0.494z" fill="none" stroke="#000" stroke-width="4px"/>
        </g>
        <g id="emoji">
            <path d="m17 3.5c0-0.133-0.053-0.26-0.146-0.354-0.094-0.093-0.221-0.146-0.354-0.146h-1c-0.133 0-0.26 0.053-0.354 0.146-0.093 0.094-0.146 0.221-0.146 0.354v7.5h2v-7.5z" fill="#675230"/>
            <path d="m16 6-3.904-1.952c-2.551-1.276-5.577-1.159-8.023 0.308-0.626 0.376-1.073 0.644-1.073 0.644s2.483 1.419 4.491 2.566c1.567 0.896 3.479 0.949 5.094 0.142 1.625-0.813 3.415-1.708 3.415-1.708z" fill="#219555"/>
            <path d="m16.03 8c1.2 0.011 3.116-1.013 4.97-1 1.351 0.01 2.767 0.032 4.548 0.841 1.384 0.628 3.36 2.811 3.624 6.544 0.161 2.274-0.221 4.81-2.704 9.726-2.517 4.982-4.542 5.904-6.468 5.889-1.639-0.013-4-1-4-1s-2.361 0.987-4 1c-1.926 0.015-3.951-0.907-6.468-5.889-2.483-4.916-2.865-7.452-2.704-9.726 0.264-3.733 2.24-5.916 3.624-6.544 1.781-0.809 3.197-0.831 4.548-0.841 1.854-0.013 3.77 1.011 4.97 1h0.013 0.017 0.017 0.013z" fill="#d72d35"/>
            <path d="m12.056 12.775c0.227-0.908 0.023-1.869-0.552-2.607-0.576-0.737-1.459-1.168-2.395-1.168h-3e-3c-1.291 0-2.471 0.729-3.048 1.884-0.092 0.184-0.188 0.375-0.285 0.57-1.135 2.27-1.322 4.899-0.519 7.307 0.482 1.446 0.998 2.995 1.343 4.031 0.258 0.773 0.813 1.413 1.542 1.777 0 1e-3 1e-3 1e-3 1e-3 1e-3 0.613 0.306 1.34 0.274 1.923-0.086 0.582-0.36 0.937-0.996 0.937-1.681v-3.688c0-1.405 0.172-2.804 0.513-4.166 0.166-0.665 0.356-1.425 0.543-2.174z" fill="#fd626a"/>
        </g>
    </g>
</svg>
