<?xml version="1.0" encoding="UTF-8"?>
<svg clip-rule="evenodd" fill-rule="evenodd" stroke-linecap="round" stroke-linejoin="round" stroke-miterlimit="3" viewBox="0 0 32 32" xmlns="http://www.w3.org/2000/svg">
 <clipPath id="a">
  <path d="m0 0h32v32h-32z" clip-rule="evenodd"/>
 </clipPath>
 <path d="m0 0h32v32h-32z" fill="none"/>
 <g clip-path="url(#a)">
  <path d="m26.808 30c1.763 0 3.192-1.429 3.192-3.192v-7.102c0-3.653-1.451-7.157-4.035-9.741l-1.665-1.665c-2.927-2.927-7.673-2.927-10.6 0l-5.4 5.4c-2.927 2.927-2.927 7.673 0 10.6l1.665 1.665c2.584 2.584 6.088 4.035 9.741 4.035z" fill="none" stroke="#000" stroke-width="4"/>
  <path d="m11 11v-3.598c0-0.898 0.357-1.759 0.991-2.393l3.009-3.009v3.598c0 0.898-0.357 1.759-0.991 2.393l-3.009 3.009z" fill="none" stroke="#000" stroke-width="4"/>
  <path d="m5.009 11.991c0.634-0.634 1.495-0.991 2.393-0.991h3.598s-1.824 1.824-3.009 3.009c-0.634 0.634-1.495 0.991-2.393 0.991h-3.598s1.824-1.824 3.009-3.009z" fill="none" stroke="#000" stroke-width="4"/>
  <path d="m11 10-3-3-1 1 3 3h1z" fill="none" stroke="#000" stroke-width="4"/>
  <path d="m26.808 30c1.763 0 3.192-1.429 3.192-3.192v-7.102c0-3.653-1.451-7.157-4.035-9.741l-1.665-1.665c-2.927-2.927-7.673-2.927-10.6 0l-5.4 5.4c-2.927 2.927-2.927 7.673 0 10.6l1.665 1.665c2.584 2.584 6.088 4.035 9.741 4.035z" fill="#d72d35"/>
  <g fill="none">
   <path d="m16 11c.796-.796 1.875-1.243 3-1.243s2.204.447 3 1.243l1.649 1.649c.891.891 1.592 1.954 2.06 3.125.576 1.437 1.291 3.226 1.291 3.226" stroke="#ffaaae" stroke-opacity=".47" stroke-width="4"/>
   <path d="m14 20 1 1" stroke="#8d1b21" stroke-width="2"/>
   <path d="m9 18 1 1" stroke="#8d1b21" stroke-width="2"/>
   <path d="m17 17 1 1" stroke="#8d1b21" stroke-width="2"/>
   <path d="m12 15 1 1" stroke="#8d1b21" stroke-width="2"/>
   <path d="m20 14 1 1" stroke="#8d1b21" stroke-width="2"/>
   <path d="m15 12 1 1" stroke="#8d1b21" stroke-width="2"/>
   <path d="m23 11 1 1" stroke="#8d1b21" stroke-width="2"/>
   <path d="m18 9 1 1" stroke="#8d1b21" stroke-width="2"/>
   <path d="m11 23 1 1" stroke="#8d1b21" stroke-width="2"/>
   <path d="m19 22 1 1" stroke="#8d1b21" stroke-width="2"/>
   <path d="m21 27 1 1" stroke="#8d1b21" stroke-width="2"/>
   <path d="m22 19 1 1" stroke="#8d1b21" stroke-width="2"/>
   <path d="m24 24 1 1" stroke="#8d1b21" stroke-width="2"/>
   <path d="m25 16 1 1" stroke="#8d1b21" stroke-width="2"/>
   <path d="m27 21 1 1" stroke="#8d1b21" stroke-width="2"/>
   <path d="m16 25 1 1" stroke="#8d1b21" stroke-width="2"/>
  </g>
  <path d="m11 11v-3.598c0-0.898 0.357-1.759 0.991-2.393l3.009-3.009v3.598c0 0.898-0.357 1.759-0.991 2.393l-3.009 3.009z" fill="#219555"/>
  <path d="m5.009 11.991c0.634-0.634 1.495-0.991 2.393-0.991h3.598s-1.824 1.824-3.009 3.009c-0.634 0.634-1.495 0.991-2.393 0.991h-3.598s1.824-1.824 3.009-3.009z" fill="#219555"/>
  <path d="m11 10-3-3-1 1 3 3v1l2-2z" fill="#219555"/>
 </g>
</svg>
