<?xml version="1.0" encoding="UTF-8"?>
<!DOCTYPE svg  PUBLIC '-//W3C//DTD SVG 1.1//EN'  'http://www.w3.org/Graphics/SVG/1.1/DTD/svg11.dtd'>
<svg clip-rule="evenodd" fill-rule="evenodd" stroke-linecap="round" stroke-linejoin="round" stroke-miterlimit="3" version="1.1" viewBox="0 0 32 32" xml:space="preserve" xmlns="http://www.w3.org/2000/svg">
<metadata>
<rdf:RDF xmlns:cc="http://web.resource.org/cc/" xmlns:dc="http://purl.org/dc/elements/1.1/" xmlns:rdf="http://www.w3.org/1999/02/22-rdf-syntax-ns#">

     <rdf:Description rdf:about="">
       <dc:title>Mutant Standard emoji 2023.12</dc:title>
     </rdf:Description>

    <cc:work rdf:about="">
        <cc:license rdf:resource="http://creativecommons.org/licenses/by-nc-sa/4.0/"/>
        <cc:attributionName>Caius Nocturne</cc:attributionName>
        <cc:attributionURL>http://mutant.tech/</cc:attributionURL>
    </cc:work>

</rdf:RDF>
</metadata>

    <rect id="strawberry" width="32" height="32" fill="none"/>
    <clipPath id="_clip1">
        <rect width="32" height="32"/>
    </clipPath>
    <g clip-path="url(#_clip1)">
        <g id="outline" fill="none" stroke="#000" stroke-width="4px">
            <path d="m26.808 30c1.763 0 3.192-1.429 3.192-3.192v-7.102c0-3.653-1.451-7.157-4.035-9.741l-1.665-1.665c-2.927-2.927-7.673-2.927-10.6 0l-5.4 5.4c-2.927 2.927-2.927 7.673 0 10.6l1.665 1.665c2.584 2.584 6.088 4.035 9.741 4.035h7.102z"/>
            <path d="m11 11v-3.598c0-0.898 0.357-1.759 0.991-2.393l3.009-3.009v3.598c0 0.898-0.357 1.759-0.991 2.393l-3.009 3.009z"/>
            <path d="m5.009 11.991c0.634-0.634 1.495-0.991 2.393-0.991h3.598l-3.009 3.009c-0.634 0.634-1.495 0.991-2.393 0.991h-3.598l3.009-3.009z"/>
            <path d="m11 10-3-3-1 1 3 3h1v-1z"/>
        </g>
        <g id="emoji">
            <path d="m26.808 30c1.763 0 3.192-1.429 3.192-3.192v-7.102c0-3.653-1.451-7.157-4.035-9.741l-1.665-1.665c-2.927-2.927-7.673-2.927-10.6 0l-5.4 5.4c-2.927 2.927-2.927 7.673 0 10.6l1.665 1.665c2.584 2.584 6.088 4.035 9.741 4.035h7.102z" fill="#d72d35"/>
            <path d="m16 11c0.796-0.796 1.875-1.243 3-1.243s2.204 0.447 3 1.243l1.649 1.649c0.891 0.891 1.592 1.954 2.06 3.125 0.576 1.437 1.291 3.226 1.291 3.226" fill="none" stroke="#ffaaae" stroke-opacity=".47" stroke-width="4px"/>
            <g fill="none" stroke="#8d1b21" stroke-width="2px">
                <path d="m14 20 1 1"/>
                <path d="m9 18 1 1"/>
                <path d="m17 17 1 1"/>
                <path d="m12 15 1 1"/>
                <path d="m20 14 1 1"/>
                <path d="m15 12 1 1"/>
                <path d="m23 11 1 1"/>
                <path d="m18 9 1 1"/>
                <path d="m11 23 1 1"/>
                <path d="m19 22 1 1"/>
                <path d="m21 27 1 1"/>
                <path d="m22 19 1 1"/>
                <path d="m24 24 1 1"/>
                <path d="m25 16 1 1"/>
                <path d="m27 21 1 1"/>
                <path d="m16 25 1 1"/>
            </g>
            <path d="m11 11v-3.598c0-0.898 0.357-1.759 0.991-2.393l3.009-3.009v3.598c0 0.898-0.357 1.759-0.991 2.393l-3.009 3.009z" fill="#219555"/>
            <path d="m5.009 11.991c0.634-0.634 1.495-0.991 2.393-0.991h3.598l-3.009 3.009c-0.634 0.634-1.495 0.991-2.393 0.991h-3.598l3.009-3.009z" fill="#219555"/>
            <path d="m11 10-3-3-1 1 3 3v1l2-2h-1z" fill="#219555"/>
        </g>
    </g>
</svg>
