<?xml version="1.0" encoding="UTF-8"?>
<!DOCTYPE svg  PUBLIC '-//W3C//DTD SVG 1.1//EN'  'http://www.w3.org/Graphics/SVG/1.1/DTD/svg11.dtd'>
<svg clip-rule="evenodd" fill-rule="evenodd" stroke-linecap="square" stroke-linejoin="round" stroke-miterlimit="1.5" version="1.1" viewBox="0 0 32 32" xml:space="preserve" xmlns="http://www.w3.org/2000/svg">
<metadata>
<rdf:RDF xmlns:cc="http://web.resource.org/cc/" xmlns:dc="http://purl.org/dc/elements/1.1/" xmlns:rdf="http://www.w3.org/1999/02/22-rdf-syntax-ns#">

     <rdf:Description rdf:about="">
       <dc:title>Mutant Standard emoji 2023.12</dc:title>
     </rdf:Description>

    <cc:work rdf:about="">
        <cc:license rdf:resource="http://creativecommons.org/licenses/by-nc-sa/4.0/"/>
        <cc:attributionName>Caius Nocturne</cc:attributionName>
        <cc:attributionURL>http://mutant.tech/</cc:attributionURL>
    </cc:work>

</rdf:RDF>
</metadata>

    <rect id="moon_crescent_face_right" width="32" height="32" fill="none"/>
    <clipPath id="_clip1">
        <rect width="32" height="32"/>
    </clipPath>
    <g clip-path="url(#_clip1)">
        <g id="outline">
            <path d="m14.969 17c-0.319 5.164-3.092 9.668-7.165 12.359 1.325 0.416 2.734 0.641 4.196 0.641 7.727 0 14-6.273 14-14s-6.273-14-14-14c-1.462 0-2.871 0.225-4.196 0.641 3.603 2.38 6.188 6.179 6.956 10.599l-3.76 3.76h3.969z" fill="none" stroke="#000" stroke-width="4px"/>
        </g>
        <g id="emoji">
            <path d="m14.969 17c-0.319 5.164-3.092 9.668-7.165 12.359 1.325 0.416 2.734 0.641 4.196 0.641 7.727 0 14-6.273 14-14s-6.273-14-14-14c-1.462 0-2.871 0.225-4.196 0.641 3.602 2.38 6.188 6.178 6.958 10.597l-3.762 3.762h3.969z" fill="#d0e3e6"/>
            <clipPath id="_clip2">
                <path d="m14.969 17c-0.319 5.164-3.092 9.668-7.165 12.359 1.325 0.416 2.734 0.641 4.196 0.641 7.727 0 14-6.273 14-14s-6.273-14-14-14c-1.462 0-2.871 0.225-4.196 0.641 3.602 2.38 6.188 6.178 6.958 10.597l-3.762 3.762h3.969z"/>
            </clipPath>
            <g clip-path="url(#_clip2)">
                <path d="m20 20-0.828 0.828c-0.751 0.751-1.768 1.172-2.829 1.172h-3.343" fill="none" stroke="#4c728e" stroke-linecap="round" stroke-linejoin="miter" stroke-width="2px"/>
            </g>
        </g>
        <path d="m16 12.5c0-0.663 0.263-1.299 0.732-1.768s1.105-0.732 1.768-0.732 1.299 0.263 1.768 0.732 0.732 1.105 0.732 1.768v2c0 0.663-0.263 1.299-0.732 1.768s-1.105 0.732-1.768 0.732-1.299-0.263-1.768-0.732-0.732-1.105-0.732-1.768v-2z" fill="#fff"/>
        <path d="m16 12.5c0-0.398 0.158-0.779 0.439-1.061 0.282-0.281 0.663-0.439 1.061-0.439s0.779 0.158 1.061 0.439c0.281 0.282 0.439 0.663 0.439 1.061v2c0 0.398-0.158 0.779-0.439 1.061-0.282 0.281-0.663 0.439-1.061 0.439s-0.779-0.158-1.061-0.439c-0.281-0.282-0.439-0.663-0.439-1.061v-2z"/>
    </g>
</svg>
