<?xml version="1.0" encoding="UTF-8"?>
<svg clip-rule="evenodd" fill-rule="evenodd" stroke-linejoin="round" stroke-miterlimit="1.4142" viewBox="0 0 32 32" xmlns="http://www.w3.org/2000/svg">
 <clipPath id="a">
  <path d="m0 0h32v32h-32z" clip-rule="evenodd"/>
 </clipPath>
 <path d="m0 0h32v32h-32z" fill="none"/>
 <g clip-path="url(#a)">
  <path d="m32 8c0-4.418-3.582-8-8-8h-16c-4.418 0-8 3.582-8 8v16c0 4.418 3.582 8 8 8h16c4.418 0 8-3.582 8-8v-16z"/>
  <path d="m30 8c0-1.591-0.632-3.117-1.757-4.243-1.126-1.125-2.652-1.757-4.243-1.757h-16c-1.591 0-3.117 0.632-4.243 1.757-1.125 1.126-1.757 2.652-1.757 4.243v16c0 1.591 0.632 3.117 1.757 4.243 1.126 1.125 2.652 1.757 4.243 1.757h16c1.591 0 3.117-0.632 4.243-1.757 1.125-1.126 1.757-2.652 1.757-4.243v-16z" fill="#ef9b00"/>
  <g fill="#fff" fill-rule="nonzero">
   <path d="m14.001 10.375c.79.758 1.186 1.796 1.186 3.116 0 1.255-.396 2.257-1.186 3.009-.791.751-1.872 1.127-3.244 1.127h-2.489v5.135h-2.568v-13.524h5.057c1.372 0 2.453.379 3.244 1.137zm-1.911 4.508c.353-.327.529-.791.529-1.392 0-.653-.173-1.153-.519-1.499-.347-.346-.833-.52-1.461-.52h-2.371v3.901h2.371c.615 0 1.098-.164 1.451-.49z"/>
   <path d="m25.114 10.375c.791.758 1.186 1.796 1.186 3.116 0 1.255-.395 2.257-1.186 3.009-.791.751-1.872 1.127-3.244 1.127h-2.489v5.135h-2.568v-13.524h5.057c1.372 0 2.453.379 3.244 1.137zm-1.911 4.508c.353-.327.529-.791.529-1.392 0-.653-.173-1.153-.519-1.499s-.833-.52-1.46-.52h-2.372v3.901h2.372c.614 0 1.097-.164 1.45-.49z"/>
  </g>
 </g>
</svg>
