<?xml version="1.0" encoding="UTF-8"?>
<!DOCTYPE svg  PUBLIC '-//W3C//DTD SVG 1.1//EN'  'http://www.w3.org/Graphics/SVG/1.1/DTD/svg11.dtd'>
<svg clip-rule="evenodd" fill-rule="evenodd" stroke-linecap="round" stroke-linejoin="round" stroke-miterlimit="1.5" version="1.1" viewBox="0 0 32 32" xml:space="preserve" xmlns="http://www.w3.org/2000/svg">
<metadata>
<rdf:RDF xmlns:cc="http://web.resource.org/cc/" xmlns:dc="http://purl.org/dc/elements/1.1/" xmlns:rdf="http://www.w3.org/1999/02/22-rdf-syntax-ns#">

     <rdf:Description rdf:about="">
       <dc:title>Mutant Standard emoji 2023.12</dc:title>
     </rdf:Description>

    <cc:work rdf:about="">
        <cc:license rdf:resource="http://creativecommons.org/licenses/by-nc-sa/4.0/"/>
        <cc:attributionName>Caius Nocturne</cc:attributionName>
        <cc:attributionURL>http://mutant.tech/</cc:attributionURL>
    </cc:work>

</rdf:RDF>
</metadata>

    <rect id="dolphin" width="32" height="32" fill="none"/>
    <clipPath id="_clip1">
        <rect width="32" height="32"/>
    </clipPath>
    <g clip-path="url(#_clip1)">
        <g id="outline" fill="none" stroke="#000" stroke-width="4px">
            <path d="m22 10 6 3v-0.183c0-1.185 0.351-2.343 1.008-3.329 0.497-0.746 0.992-1.488 0.992-1.488h-1.972c-1.975 0-3.905 0.584-5.547 1.679-0.288 0.192-0.481 0.321-0.481 0.321z"/>
            <path d="m30 13s-6.253-3.126-10.941-5.47c-3.021-1.511-6.67-0.919-9.059 1.47 0 0-4.239 1.06-6.546 1.636-0.854 0.214-1.454 0.982-1.454 1.863v2e-3c0 0.881 0.6 1.649 1.454 1.863 2.063 0.515 5.672 1.417 6.411 1.602 0.09 0.023 0.176 0.057 0.256 0.102 0.647 0.362 3.727 2.085 5.539 3.099 0.889 0.498 1.843 0.869 2.834 1.104 3.416 0.811 11.506 2.729 11.506 2.729v-10z" stroke-linejoin="miter" stroke-miterlimit="3"/>
            <path d="m12 15-2.243 2.243c-1.125 1.125-1.757 2.651-1.757 4.242v2.515l8-8-4-1z"/>
            <path d="m25 17 2.243 2.243c1.125 1.125 1.757 2.651 1.757 4.242v2.515l-8-8 4-1z"/>
        </g>
        <g id="emoji">
            <path d="m12 15-2.243 2.243c-1.125 1.125-1.757 2.651-1.757 4.242v2.515l8-8-4-1z" fill="#61696d"/>
            <path d="m2.023 12.205c0.116-0.754 0.673-1.379 1.431-1.569 2.307-0.576 6.546-1.636 6.546-1.636 2.389-2.389 6.038-2.981 9.059-1.47 4.688 2.344 10.941 5.47 10.941 5.47v6.778l-8.105-0.417-9.895-4.361-9.977-2.795z" fill="#939a9f"/>
            <path d="m2.023 12.205 3.977 0.795h6l3 1 7 4 8 1.778v3.222s-8.09-1.918-11.506-2.729c-0.991-0.235-1.945-0.606-2.834-1.104-1.812-1.014-4.892-2.737-5.539-3.099-0.08-0.045-0.166-0.079-0.256-0.102-0.739-0.185-4.348-1.087-6.411-1.602-0.854-0.214-1.454-0.982-1.454-1.863v-2e-3c0-0.1 8e-3 -0.198 0.023-0.294z" fill="#c5c9cb"/>
            <path d="m19 15.917v-6.917h-9s-4.239 1.06-6.546 1.636c-0.854 0.214-1.454 0.982-1.454 1.863v2e-3c0 0.881 0.6 1.649 1.454 1.863 2.307 0.576 6.546 1.636 6.546 1.636l9-0.083z" fill="none"/>
            <clipPath id="_clip2">
                <path d="m19 15.917v-6.917h-9s-4.239 1.06-6.546 1.636c-0.854 0.214-1.454 0.982-1.454 1.863v2e-3c0 0.881 0.6 1.649 1.454 1.863 2.307 0.576 6.546 1.636 6.546 1.636l9-0.083z"/>
            </clipPath>
            <g clip-path="url(#_clip2)">
                <path d="m2 12s6.083 0.76 7.64 0.955c0.24 0.03 0.477 0.074 0.711 0.133 0.654 0.163 2.069 0.517 2.932 0.733 0.476 0.119 0.965 0.179 1.456 0.179h0.261" fill="none" stroke="#4a4f53" stroke-width="1px"/>
            </g>
            <path d="m22 10 6 3v-0.183c0-1.185 0.351-2.343 1.008-3.329 0.497-0.746 0.992-1.488 0.992-1.488h-1.972c-1.975 0-3.905 0.584-5.547 1.679-0.288 0.192-0.481 0.321-0.481 0.321z" fill="#939a9f"/>
            <clipPath id="_clip3">
                <path d="m22 10 6 3v-0.183c0-1.185 0.351-2.343 1.008-3.329 0.497-0.746 0.992-1.488 0.992-1.488h-1.972c-1.975 0-3.905 0.584-5.547 1.679-0.288 0.192-0.481 0.321-0.481 0.321z"/>
            </clipPath>
            <g clip-path="url(#_clip3)">
                <path d="m3 12h4.2c1.19 0 2.371 0.214 3.485 0.632 2.403 0.901 6.886 2.582 10.198 3.824 2.666 1 4.914 2.873 6.379 5.314 2.666 4.444 6.738 11.23 6.738 11.23v4h-31v-25z" fill="#ebf1f5"/>
            </g>
            <path d="m17 11c0-0.552-0.448-1-1-1s-1 0.448-1 1 0.448 1 1 1 1-0.448 1-1z"/>
            <path d="m25 17 2.243 2.243c1.125 1.125 1.757 2.651 1.757 4.242v2.515l-8-8 4-1z" fill="#61696d"/>
        </g>
    </g>
</svg>
