<?xml version="1.0" encoding="UTF-8"?>
<!DOCTYPE svg  PUBLIC '-//W3C//DTD SVG 1.1//EN'  'http://www.w3.org/Graphics/SVG/1.1/DTD/svg11.dtd'>
<svg clip-rule="evenodd" fill-rule="evenodd" stroke-linecap="round" stroke-miterlimit="1.5" version="1.1" viewBox="0 0 32 32" xml:space="preserve" xmlns="http://www.w3.org/2000/svg">
<metadata>
<rdf:RDF xmlns:cc="http://web.resource.org/cc/" xmlns:dc="http://purl.org/dc/elements/1.1/" xmlns:rdf="http://www.w3.org/1999/02/22-rdf-syntax-ns#">

     <rdf:Description rdf:about="">
       <dc:title>Mutant Standard emoji 2023.12</dc:title>
     </rdf:Description>

    <cc:work rdf:about="">
        <cc:license rdf:resource="http://creativecommons.org/licenses/by-nc-sa/4.0/"/>
        <cc:attributionName>Caius Nocturne</cc:attributionName>
        <cc:attributionURL>http://mutant.tech/</cc:attributionURL>
    </cc:work>

</rdf:RDF>
</metadata>

    <rect id="puffer_fish" width="32" height="32" fill="none"/>
    <clipPath id="_clip1">
        <rect width="32" height="32"/>
    </clipPath>
    <g clip-path="url(#_clip1)">
        <g id="outline" fill="none" stroke="#000">
            <g stroke-width="6px">
                <path d="m24 22 4 4"/>
                <path d="m25 19 4 1"/>
                <path d="m7 19-4 1"/>
                <path d="m8 22-4 4"/>
                <path d="m20.5 24 2.5 5"/>
                <path d="m11.5 24-2.5 5"/>
                <path d="m16 24v5"/>
            </g>
            <g stroke-width="6px">
                <path d="m8 10-4-4"/>
                <path d="m20.5 8 2.5-5"/>
                <path d="m11.5 8-2.5-5"/>
                <path d="m16 8v-5"/>
                <path d="m24 10 4-4"/>
            </g>
            <path d="m7 16 1-2-4-4s-0.505 1.01-1.007 2.015c-0.641 1.281-0.802 2.749-0.455 4.138 0.237 0.947 0.462 1.847 0.462 1.847l4-2z" stroke-linejoin="round" stroke-width="4px"/>
            <path d="m25 16-1-2 4-4s0.505 1.01 1.007 2.015c0.641 1.281 0.802 2.749 0.455 4.138-0.237 0.947-0.462 1.847-0.462 1.847l-4-2z" stroke-linejoin="round" stroke-width="4px"/>
            <path d="m28 16c0-6.627-5.373-12-12-12s-12 5.373-12 12 5.373 12 12 12 12-5.373 12-12z" stroke-linejoin="round" stroke-width="4px"/>
        </g>
        <g id="emoji">
            <path d="m4 16c0-6.627 5.373-12 12-12s12 5.373 12 12l-4.146 5h-15.708l-4.146-5z" fill="#cec54b"/>
            <path d="m4 16h4.146c1.136 0 2.175 0.642 2.683 1.658 0.022 0.044 0.044 0.087 0.065 0.131 0.678 1.355 2.063 2.211 3.578 2.211h3.056c1.515 0 2.9-0.856 3.578-2.211 0.021-0.044 0.043-0.087 0.065-0.131 0.508-1.016 1.547-1.658 2.683-1.658h4.146c0 6.627-5.373 12-12 12s-12-5.373-12-12z" fill="#f0eec9"/>
            <circle cx="11.5" cy="13.5" r="1.5"/>
            <circle cx="20.5" cy="13.5" r="1.5"/>
            <path d="m19 17.729c0-0.435-0.278-0.822-0.691-0.959-0.506-0.169-1.186-0.396-1.677-0.559-0.41-0.137-0.854-0.137-1.264 0-0.491 0.163-1.171 0.39-1.677 0.559-0.413 0.137-0.691 0.524-0.691 0.959v1e-3c0 0.701 0.569 1.27 1.27 1.27h3.46c0.701 0 1.27-0.569 1.27-1.27v-1e-3z"/>
            <g fill="none" stroke="#a69f3f" stroke-width="2px">
                <path d="m24 10 4-4"/>
                <path d="m8 10-4-4"/>
                <path d="m20.5 8 2.5-5"/>
                <path d="m11.5 8-2.5-5"/>
                <path d="m16 8v-5"/>
            </g>
            <g fill="none" stroke="#d5d191" stroke-width="2px">
                <path d="m24 22 4 4"/>
                <path d="m25 19 4 1"/>
                <path d="m7 19-4 1"/>
                <path d="m8 22-4 4"/>
                <path d="m20.5 24 2.5 5"/>
                <path d="m11.5 24-2.5 5"/>
                <path d="m16 24v5"/>
            </g>
            <path d="m7 16 1-2-4-4s-0.505 1.01-1.007 2.015c-0.641 1.281-0.802 2.749-0.455 4.138 0.237 0.947 0.462 1.847 0.462 1.847l4-2z" fill="#8a831e"/>
            <path d="m25 16-1-2 4-4s0.505 1.01 1.007 2.015c0.641 1.281 0.802 2.749 0.455 4.138-0.237 0.947-0.462 1.847-0.462 1.847l-4-2z" fill="#8a831e"/>
        </g>
    </g>
</svg>
