<?xml version="1.0" encoding="UTF-8"?>
<!DOCTYPE svg  PUBLIC '-//W3C//DTD SVG 1.1//EN'  'http://www.w3.org/Graphics/SVG/1.1/DTD/svg11.dtd'>
<svg clip-rule="evenodd" fill-rule="evenodd" stroke-linecap="round" stroke-linejoin="round" stroke-miterlimit="1.5" version="1.1" viewBox="0 0 32 32" xml:space="preserve" xmlns="http://www.w3.org/2000/svg">
<metadata>
<rdf:RDF xmlns:cc="http://web.resource.org/cc/" xmlns:dc="http://purl.org/dc/elements/1.1/" xmlns:rdf="http://www.w3.org/1999/02/22-rdf-syntax-ns#">

     <rdf:Description rdf:about="">
       <dc:title>Mutant Standard emoji 2023.12</dc:title>
     </rdf:Description>

    <cc:work rdf:about="">
        <cc:license rdf:resource="http://creativecommons.org/licenses/by-nc-sa/4.0/"/>
        <cc:attributionName>Caius Nocturne</cc:attributionName>
        <cc:attributionURL>http://mutant.tech/</cc:attributionURL>
    </cc:work>

</rdf:RDF>
</metadata>

    <rect id="shark" width="32" height="32" fill="none"/>
    <clipPath id="_clip1">
        <rect width="32" height="32"/>
    </clipPath>
    <g clip-path="url(#_clip1)">
        <g id="outline" fill="none" stroke="#000" stroke-width="4px">
            <path d="m16 9 9 4 3-7-12 3z"/>
            <path d="m30 13-10.186-5.093c-3.66-1.83-7.968-1.83-11.628 0-3.061 1.53-6.186 3.093-6.186 3.093 0 2.448 1.394 4.682 3.592 5.759 2.127 1.041 4.408 2.158 4.408 2.158s3.349 1.675 5.713 2.857c1.505 0.752 3.162 1.149 4.844 1.161 3.524 0.024 9.443 0.065 9.443 0.065v-10z" stroke-linejoin="miter"/>
            <path d="m11 16-2.243 2.243c-1.125 1.125-1.757 2.651-1.757 4.242v2.515l8-8-4-1z"/>
            <path d="m25 18 2.243 2.243c1.125 1.125 1.757 2.651 1.757 4.242v2.515l-8-8 4-1z"/>
        </g>
        <g id="emoji">
            <path d="m11 16-2.243 2.243c-1.125 1.125-1.757 2.651-1.757 4.242v2.515l8-8-4-1z" fill="#a9c3d4"/>
            <path d="m2 11s3.125-1.563 6.186-3.093c3.66-1.83 7.968-1.83 11.628 0l10.186 5.093v10l-6.042-0.042-21.958-11.958z" fill="#78a0ba"/>
            <path d="m6.085 17-0.493-0.241c-2.198-1.077-3.592-3.311-3.592-5.759h1.657c1.541 0 3.061 0.359 4.439 1.048 0.891 0.445 1.899 0.949 2.667 1.334 0.822 0.411 1.687 0.73 2.579 0.953 0.515 0.129 1.096 0.275 1.583 0.396 0.703 0.176 1.346 0.54 1.858 1.052l7.175 7.175-3.401-0.023c-1.682-0.012-3.339-0.409-4.844-1.161l-5.547-2.774-1.166-1-2.915-1z" fill="#ebf1f5"/>
            <path d="m15 17-0.828 0.828c-0.751 0.751-1.768 1.172-2.829 1.172h-1.177l-0.166-0.083-3.915-1.917h8.915z" fill="#bc84a0"/>
            <path d="m16 9 9 4 3-7-12 3z" fill="#78a0ba"/>
            <clipPath id="_clip2">
                <path d="m16 9 9 4 3-7-12 3z"/>
            </clipPath>
            <g clip-path="url(#_clip2)">
                <path d="m0 11h4.2c1.19 0 2.371 0.214 3.485 0.632 2.403 0.901 6.886 2.582 10.198 3.824 2.666 1 4.914 2.873 6.379 5.314 2.666 4.444 6.738 11.23 6.738 11.23v4h-31v-25z" fill="#ebf1f5"/>
            </g>
            <path d="m14 11c0-0.552-0.448-1-1-1s-1 0.448-1 1v1c0 0.552 0.448 1 1 1s1-0.448 1-1v-1z"/>
            <path d="m7 12.5c0-0.133-0.053-0.26-0.146-0.354-0.094-0.093-0.221-0.146-0.354-0.146s-0.26 0.053-0.354 0.146c-0.093 0.094-0.146 0.221-0.146 0.354v1c0 0.133 0.053 0.26 0.146 0.354 0.094 0.093 0.221 0.146 0.354 0.146s0.26-0.053 0.354-0.146c0.093-0.094 0.146-0.221 0.146-0.354v-1z" fill="#7492a5"/>
            <path d="m25 18 2.243 2.243c1.125 1.125 1.757 2.651 1.757 4.242v2.515l-8-8 4-1z" fill="#46708c"/>
        </g>
    </g>
</svg>
