<?xml version="1.0" encoding="UTF-8"?>
<!DOCTYPE svg  PUBLIC '-//W3C//DTD SVG 1.1//EN'  'http://www.w3.org/Graphics/SVG/1.1/DTD/svg11.dtd'>
<svg clip-rule="evenodd" fill-rule="evenodd" stroke-linecap="round" stroke-linejoin="round" stroke-miterlimit="1.5" version="1.1" viewBox="0 0 32 32" xml:space="preserve" xmlns="http://www.w3.org/2000/svg">
<metadata>
<rdf:RDF xmlns:cc="http://web.resource.org/cc/" xmlns:dc="http://purl.org/dc/elements/1.1/" xmlns:rdf="http://www.w3.org/1999/02/22-rdf-syntax-ns#">

     <rdf:Description rdf:about="">
       <dc:title>Mutant Standard emoji 2023.12</dc:title>
     </rdf:Description>

    <cc:work rdf:about="">
        <cc:license rdf:resource="http://creativecommons.org/licenses/by-nc-sa/4.0/"/>
        <cc:attributionName>Caius Nocturne</cc:attributionName>
        <cc:attributionURL>http://mutant.tech/</cc:attributionURL>
    </cc:work>

</rdf:RDF>
</metadata>

    <rect id="turtle" width="32" height="32" fill="none"/>
    <clipPath id="_clip1">
        <rect width="32" height="32"/>
    </clipPath>
    <g clip-path="url(#_clip1)">
        <g id="outline" stroke="#000" stroke-width="4px">
            <path d="m30 18-0.071 0.071c-1.875 1.875-4.419 2.929-7.071 2.929h-5.751c-2.63 0-5.152-1.045-7.011-2.904-1.342-1.342-2.096-3.162-2.096-5.06v-0.036h15l4 4 3 1z" fill="#3e4f22"/>
            <path d="m9 11s0.609-0.305 1.155-0.578c0.556-0.277 1.168-0.422 1.789-0.422h6.791c2.091 0 4.095 0.83 5.573 2.308l5.692 5.692h-14.683c-1.484 0-2.906-0.589-3.955-1.638l-1.483-1.483c-0.563-0.563-0.879-1.326-0.879-2.122v-1.757z" fill="#729240"/>
            <path d="m23 17v4.172c0 0.53 0.211 1.039 0.586 1.414l2.414 2.414v-5.172c0-0.53-0.211-1.039-0.586-1.414l-1.414-1.414h-1z" fill="#729240"/>
            <path d="m12 15-6 6 1.121 1.121c0.563 0.563 1.326 0.879 2.122 0.879h0.521c0.757 0 1.45-0.428 1.789-1.106 0.866-1.733 2.447-4.894 2.447-4.894l-2-2z" fill="#729240"/>
            <path d="m9 12-3.227-3.227c-0.495-0.495-1.166-0.773-1.866-0.773h-1.907v2.679c0 0.846 0.336 1.657 0.934 2.255l0.34 0.34c1.105 1.105 2.604 1.726 4.167 1.726h3.559v-3h-2z" fill="#729240"/>
        </g>
        <g id="emoji">
            <path d="m30 18-0.071 0.071c-1.875 1.875-4.419 2.929-7.071 2.929h-5.751c-2.63 0-5.152-1.045-7.011-2.904-1.342-1.342-2.096-3.162-2.096-5.06v-0.036l1-2 14 2 4 4 3 1z" fill="#3e4f22"/>
            <path d="m23 17v4.172c0 0.53 0.211 1.039 0.586 1.414l2.414 2.414v-5.172c0-0.53-0.211-1.039-0.586-1.414l-1.414-1.414h-1z" fill="#577031"/>
            <path d="m12 15-6 6 1.121 1.121c0.563 0.563 1.326 0.879 2.122 0.879h0.521c0.757 0 1.45-0.428 1.789-1.106 0.866-1.733 2.447-4.894 2.447-4.894l-2-2z" fill="#577031"/>
            <path d="m9 12-3.227-3.227c-0.495-0.495-1.166-0.773-1.866-0.773h-1.907v2.679c0 0.846 0.336 1.657 0.934 2.255l0.34 0.34c1.105 1.105 2.604 1.726 4.167 1.726h3.559v-3h-2z" fill="#577031"/>
            <path d="m16 18v-3.793l1.5-1.5 1.5 1.5v3.793h-3zm4 0v-3.793l1.5-1.5 1.5 1.5v3.793h-3zm5.104-4.896 1.896 1.896v3h-3l-1-3.793 2.104-1.103zm4.896 4.896h-2v-2l2 2zm-18-1.09v-2.703l1.5-1.5 1.5 1.5v3.784c-1.087-0.062-2.129-0.439-3-1.081zm-2.97-3.732 0.47-0.471 1.5 1.5v1.793l-1.121-1.121c-0.463-0.463-0.759-1.061-0.849-1.701zm12.97-2.47c0.851 0.387 1.635 0.927 2.308 1.6l0.088 0.088-0.896 1.897-2.5-2.5 1-1.085zm-9-0.708v1.793l-1.5 1.5-1.5-1.5v-1.293l0.155-0.078c0.556-0.277 1.168-0.422 1.789-0.422h1.056zm1 0h3v1.793l-1.5 1.5-1.5-1.5v-1.793zm4 0h0.735c0.774 0 1.537 0.114 2.265 0.332v1.461l-1.5 1.5-1.5-1.5v-1.793z" fill="#729240"/>
            <path d="m4 9.5c0-0.133-0.053-0.26-0.146-0.354-0.094-0.093-0.221-0.146-0.354-0.146s-0.26 0.053-0.354 0.146c-0.093 0.094-0.146 0.221-0.146 0.354v1c0 0.133 0.053 0.26 0.146 0.354 0.094 0.093 0.221 0.146 0.354 0.146s0.26-0.053 0.354-0.146c0.093-0.094 0.146-0.221 0.146-0.354v-1z"/>
            <path d="m13 10 0.448 0.612 0.552-0.612h3l0.506 0.612 0.494-0.612h0.735c0.774 0 1.537 0.114 2.265 0.332l0.541 0.668 0.459-0.292c0.851 0.387 1.635 0.927 2.308 1.6l0.088 0.088v0.604l0.708 0.104 1.896 1.896 0.635 1.91-0.635 1.09h-3l-0.6-0.777-0.4 0.777h-3l-0.471-0.777-0.529 0.777h-3l-0.389-0.777-0.611 0.768c-1.087-0.062-2.129-0.439-3-1.081l-0.495-1.193-0.505 0.283-1.121-1.121c-0.463-0.463-0.759-1.061-0.849-1.702l0.347-1.353 0.623-1.324 0.155-0.078c0.556-0.277 1.168-0.422 1.789-0.422h1.056zm17 8h-2l-0.541-1.09 0.541-0.91 2 2z" fill="#729240"/>
            <path d="m13 10h1v1.793l1.5 1.5 1.5-1.5v-1.793h1v1.793l1.5 1.5 1.5-1.5v-1.461c0.342 0.103 0.676 0.228 1 0.376v1.085l1.5 1.5 0.896-0.897 0.708 0.708-1.104 1.103v3.793h-1v-3.793l-1.5-1.5-1.5 1.5v3.793h-1v-3.793l-1.5-1.5-1.5 1.5v3.793h-0.683c-0.106 0-0.212-3e-3 -0.317-9e-3v-3.784l-1.5-1.5-1.5 1.5v2.703c-0.225-0.165-0.438-0.348-0.638-0.548l-0.362-0.362v-1.793l-1.5-1.5-0.47 0.471c-0.02-0.139-0.03-0.279-0.03-0.421v-1.757l1-0.5v1.293l1.5 1.5 1.5-1.5v-1.793zm15 6v2h-1v-3l1 1z" fill="#607934"/>
        </g>
    </g>
</svg>
