<?xml version="1.0" encoding="UTF-8"?>
<!DOCTYPE svg  PUBLIC '-//W3C//DTD SVG 1.1//EN'  'http://www.w3.org/Graphics/SVG/1.1/DTD/svg11.dtd'>
<svg clip-rule="evenodd" fill-rule="evenodd" stroke-linejoin="round" stroke-miterlimit="1.4142" version="1.1" viewBox="0 0 32 32" xml:space="preserve" xmlns="http://www.w3.org/2000/svg" xmlns:serif="http://www.serif.com/">
<metadata>
<rdf:RDF xmlns:cc="http://web.resource.org/cc/" xmlns:dc="http://purl.org/dc/elements/1.1/" xmlns:rdf="http://www.w3.org/1999/02/22-rdf-syntax-ns#">

     <rdf:Description rdf:about="">
       <dc:title>Mutant Standard emoji 2023.12</dc:title>
     </rdf:Description>

    <cc:work rdf:about="">
        <cc:license rdf:resource="http://creativecommons.org/licenses/by-nc-sa/4.0/"/>
        <cc:attributionName>Caius Nocturne</cc:attributionName>
        <cc:attributionURL>http://mutant.tech/</cc:attributionURL>
    </cc:work>

</rdf:RDF>
</metadata>
<rect id="_18_plus" width="32" height="32" fill="none" serif:id="18_plus"/><clipPath id="_clip1"><rect width="32" height="32"/></clipPath><g clip-path="url(#_clip1)"><g id="outline"><circle cx="16" cy="16" r="16"/></g><g id="emoji"><circle cx="16" cy="16" r="14" fill="#e02a33"/><circle cx="16" cy="16" r="12"/><path d="m8.523 12.595-1.975 1.43v-2.418l1.975-1.481h2.23v11.748h-2.23v-9.279z" fill="#fff" fill-rule="nonzero"/><path d="m16.321 22.061c-0.693 0-1.311-0.139-1.856-0.417s-0.974-0.678-1.286-1.2-0.468-1.124-0.468-1.805v-0.392c0-0.533 0.125-1.024 0.375-1.472 0.249-0.449 0.601-0.803 1.055-1.064-0.363-0.216-0.655-0.52-0.877-0.911-0.221-0.392-0.332-0.843-0.332-1.354v-0.306c0-0.579 0.139-1.113 0.418-1.601 0.278-0.488 0.672-0.877 1.183-1.166 0.511-0.29 1.112-0.434 1.805-0.434 0.692 0 1.297 0.144 1.813 0.434 0.516 0.289 0.911 0.678 1.183 1.166 0.273 0.488 0.409 1.022 0.409 1.601v0.306c0 0.499-0.114 0.948-0.341 1.345s-0.516 0.704-0.868 0.92c0.454 0.272 0.803 0.632 1.047 1.081 0.244 0.448 0.366 0.928 0.366 1.438v0.392c0 0.692-0.156 1.3-0.468 1.822s-0.743 0.922-1.294 1.2c-0.55 0.278-1.172 0.417-1.864 0.417zm0.017-7.236c0.386 0 0.692-0.128 0.919-0.383s0.341-0.582 0.341-0.979v-0.323c0-0.375-0.117-0.687-0.349-0.937-0.233-0.25-0.537-0.374-0.911-0.374-0.375 0-0.679 0.124-0.911 0.374-0.233 0.25-0.349 0.562-0.349 0.937v0.323c0 0.409 0.113 0.738 0.34 0.988 0.227 0.249 0.534 0.374 0.92 0.374zm0 5.346c0.442 0 0.797-0.141 1.064-0.425s0.4-0.664 0.4-1.141v-0.409c0-0.454-0.133-0.823-0.4-1.106-0.267-0.284-0.622-0.426-1.064-0.426-0.432 0-0.784 0.142-1.056 0.426-0.272 0.283-0.409 0.652-0.409 1.106v0.409c0 0.465 0.131 0.843 0.392 1.132 0.261 0.29 0.619 0.434 1.073 0.434z" fill="#fff" fill-rule="nonzero"/><path d="m22.834 16.943h-2.073v-1.886h2.073v-2.073h1.886v2.073h2.073v1.886h-2.073v2.073h-1.886v-2.073z" fill="#fff" fill-rule="nonzero"/></g></g></svg>
