<?xml version="1.0" encoding="UTF-8"?>
<!DOCTYPE svg  PUBLIC '-//W3C//DTD SVG 1.1//EN'  'http://www.w3.org/Graphics/SVG/1.1/DTD/svg11.dtd'>
<svg clip-rule="evenodd" fill-rule="evenodd" stroke-linecap="round" stroke-linejoin="round" stroke-miterlimit="1.5" version="1.1" viewBox="0 0 32 32" xml:space="preserve" xmlns="http://www.w3.org/2000/svg">
<metadata>
<rdf:RDF xmlns:cc="http://web.resource.org/cc/" xmlns:dc="http://purl.org/dc/elements/1.1/" xmlns:rdf="http://www.w3.org/1999/02/22-rdf-syntax-ns#">

     <rdf:Description rdf:about="">
       <dc:title>Mutant Standard emoji 2023.12</dc:title>
     </rdf:Description>

    <cc:work rdf:about="">
        <cc:license rdf:resource="http://creativecommons.org/licenses/by-nc-sa/4.0/"/>
        <cc:attributionName>Caius Nocturne</cc:attributionName>
        <cc:attributionURL>http://mutant.tech/</cc:attributionURL>
    </cc:work>

</rdf:RDF>
</metadata>
<rect id="no" width="32" height="32" fill="none"/><clipPath id="_clip1"><rect width="32" height="32"/></clipPath><g clip-path="url(#_clip1)"><g id="outline"><path d="m16.193 1e-3 0.192 4e-3 0.192 6e-3 0.192 8e-3 0.19 0.011 0.191 0.014 0.189 0.015 0.19 0.018 0.188 0.021 0.188 0.022 0.187 0.025 0.187 0.028 0.186 0.029 0.185 0.032 0.185 0.035 0.183 0.036 0.183 0.039 0.182 0.04 0.182 0.044 0.18 0.045 0.18 0.047 0.179 0.05 0.178 0.052 0.176 0.054 0.177 0.056 0.175 0.058 0.174 0.06 0.173 0.062 0.172 0.064 0.171 0.067 0.17 0.068 0.169 0.07 0.168 0.073 0.167 0.074 0.166 0.076 0.164 0.078 0.164 0.08 0.162 0.082 0.162 0.084 0.16 0.086 0.158 0.088 0.158 0.089 0.157 0.091 0.155 0.093 0.154 0.095 0.153 0.097 0.151 0.098 0.15 0.1 0.149 0.102 0.148 0.104 0.146 0.105 0.145 0.108 0.143 0.108 0.143 0.111 0.14 0.112 0.14 0.113 0.138 0.116 0.136 0.116 0.135 0.119 0.134 0.12 0.132 0.122 0.131 0.123 0.129 0.125 0.128 0.126 0.126 0.128 0.125 0.129 0.123 0.131 0.122 0.132 0.12 0.134 0.119 0.135 0.116 0.136 0.116 0.138 0.113 0.14 0.112 0.14 0.111 0.143 0.109 0.143 0.106 0.145 0.106 0.146 0.104 0.148 0.102 0.149 0.1 0.15 0.098 0.151 0.097 0.153 0.095 0.154 0.093 0.155 0.091 0.157 0.089 0.157 0.088 0.159 0.086 0.16 0.084 0.162 0.082 0.162 0.08 0.164 0.078 0.164 0.076 0.166 0.074 0.167 0.073 0.168 0.07 0.169 0.068 0.17 0.067 0.171 0.064 0.172 0.062 0.173 0.06 0.174 0.058 0.175 0.056 0.176 0.054 0.177 0.052 0.178 0.05 0.179 0.047 0.18 0.045 0.18 0.044 0.182 0.04 0.182 0.039 0.183 0.036 0.183 0.035 0.185 0.032 0.185 0.029 0.186 0.028 0.187 0.025 0.187 0.022 0.188 0.021 0.189 0.018 0.188 0.015 0.19 0.014 0.191 0.011 0.19 8e-3 0.192 6e-3 0.192 4e-3 0.192 1e-3 0.193-1e-3 0.193-4e-3 0.192-6e-3 0.192-8e-3 0.191-0.011 0.191-0.014 0.191-0.015 0.19-0.018 0.188-0.021 0.189-0.022 0.188-0.025 0.187-0.028 0.187-0.029 0.186-0.032 0.185-0.035 0.185-0.036 0.183-0.039 0.183-0.04 0.182-0.044 0.182-0.045 0.18-0.047 0.18-0.05 0.179-0.052 0.178-0.054 0.177-0.056 0.176-0.058 0.175-0.06 0.174-0.062 0.173-0.064 0.172-0.067 0.171-0.068 0.17-0.07 0.169-0.073 0.168-0.074 0.167-0.076 0.166-0.078 0.164-0.08 0.164-0.082 0.162-0.084 0.162-0.086 0.16-0.088 0.159-0.089 0.157-0.091 0.157-0.093 0.155-0.095 0.154-0.097 0.153-0.098 0.151-0.1 0.15-0.102 0.149-0.104 0.148-0.106 0.146-0.106 0.145-0.109 0.143-0.111 0.143-0.112 0.14-0.113 0.14-0.116 0.138-0.116 0.136-0.119 0.135-0.12 0.134-0.122 0.132-0.123 0.131-0.125 0.129-0.126 0.128-0.128 0.126-0.129 0.125-0.131 0.123-0.132 0.122-0.134 0.12-0.135 0.119-0.136 0.116-0.138 0.116-0.14 0.113-0.14 0.112-0.143 0.111-0.143 0.108-0.145 0.108-0.146 0.105-0.148 0.104-0.149 0.102-0.15 0.1-0.151 0.098-0.153 0.097-0.154 0.095-0.155 0.093-0.157 0.091-0.157 0.089-0.159 0.088-0.16 0.086-0.162 0.084-0.162 0.082-0.164 0.08-0.164 0.078-0.166 0.076-0.167 0.074-0.168 0.073-0.169 0.07-0.17 0.068-0.171 0.067-0.172 0.064-0.173 0.062-0.174 0.06-0.175 0.058-0.177 0.056-0.176 0.054-0.178 0.052-0.179 0.05-0.18 0.047-0.18 0.045-0.181 0.043-0.183 0.041-0.183 0.039-0.183 0.036-0.185 0.035-0.185 0.032-0.186 0.029-0.187 0.028-0.187 0.025-0.188 0.022-0.188 0.021-0.19 0.018-0.189 0.015-0.191 0.014-0.19 0.011-0.192 8e-3 -0.192 6e-3 -0.192 4e-3 -0.193 1e-3 -0.193-1e-3 -0.192-4e-3 -0.192-6e-3 -0.192-8e-3 -0.19-0.011-0.191-0.014-0.189-0.015-0.19-0.018-0.188-0.021-0.188-0.022-0.187-0.025-0.187-0.028-0.186-0.029-0.185-0.032-0.185-0.035-0.183-0.036-0.183-0.039-0.183-0.041-0.181-0.043-0.18-0.045-0.18-0.047-0.179-0.05-0.178-0.052-0.176-0.054-0.177-0.056-0.175-0.058-0.174-0.06-0.173-0.062-0.172-0.064-0.171-0.067-0.17-0.068-0.169-0.07-0.168-0.073-0.167-0.074-0.166-0.076-0.164-0.078-0.164-0.08-0.162-0.082-0.162-0.084-0.16-0.086-0.159-0.088-0.157-0.089-0.157-0.091-0.155-0.093-0.154-0.095-0.153-0.097-0.151-0.098-0.15-0.1-0.149-0.102-0.148-0.104-0.146-0.105-0.145-0.108-0.143-0.108-0.143-0.111-0.14-0.112-0.14-0.113-0.138-0.116-0.136-0.116-0.135-0.119-0.134-0.12-0.132-0.122-0.131-0.123-0.129-0.125-0.128-0.126-0.126-0.128-0.125-0.129-0.123-0.131-0.122-0.132-0.12-0.134-0.119-0.135-0.116-0.136-0.116-0.138-0.113-0.14-0.112-0.14-0.111-0.143-0.108-0.143-0.108-0.145-0.105-0.146-0.104-0.148-0.102-0.149-0.1-0.15-0.098-0.151-0.097-0.153-0.095-0.154-0.093-0.155-0.091-0.157-0.089-0.157-0.088-0.159-0.086-0.16-0.084-0.162-0.082-0.162-0.08-0.164-0.078-0.164-0.076-0.166-0.074-0.167-0.073-0.168-0.07-0.169-0.068-0.17-0.067-0.171-0.064-0.172-0.062-0.173-0.06-0.174-0.058-0.175-0.056-0.177-0.054-0.176-0.052-0.178-0.05-0.179-0.047-0.18-0.045-0.18-0.043-0.181-0.041-0.183-0.039-0.183-0.036-0.183-0.035-0.185-0.032-0.185-0.029-0.186-0.028-0.187-0.025-0.187-0.022-0.188-0.021-0.188-0.018-0.19-0.015-0.189-0.014-0.191-0.011-0.19-8e-3 -0.192-6e-3 -0.192-4e-3 -0.192-1e-3 -0.193 1e-3 -0.193 4e-3 -0.192 6e-3 -0.192 8e-3 -0.192 0.011-0.19 0.014-0.191 0.015-0.189 0.018-0.19 0.021-0.188 0.022-0.188 0.025-0.187 0.028-0.187 0.029-0.186 0.032-0.185 0.035-0.185 0.036-0.183 0.039-0.183 0.041-0.183 0.043-0.181 0.045-0.18 0.047-0.18 0.05-0.179 0.052-0.178 0.054-0.176 0.056-0.177 0.058-0.175 0.06-0.174 0.062-0.173 0.064-0.172 0.067-0.171 0.068-0.17 0.07-0.169 0.073-0.168 0.074-0.167 0.076-0.166 0.078-0.164 0.08-0.164 0.082-0.162 0.084-0.162 0.086-0.16 0.088-0.159 0.089-0.157 0.091-0.157 0.093-0.155 0.095-0.154 0.097-0.153 0.098-0.151 0.1-0.15 0.102-0.149 0.104-0.148 0.105-0.146 0.108-0.145 0.108-0.143 0.111-0.143 0.112-0.14 0.113-0.14 0.116-0.138 0.116-0.136 0.119-0.135 0.12-0.134 0.122-0.132 0.123-0.131 0.125-0.129 0.126-0.128 0.128-0.126 0.129-0.125 0.131-0.123 0.132-0.122 0.134-0.12 0.135-0.119 0.136-0.116 0.138-0.116 0.14-0.113 0.14-0.112 0.143-0.111 0.143-0.108 0.145-0.108 0.146-0.105 0.148-0.104 0.149-0.102 0.15-0.1 0.151-0.098 0.153-0.097 0.154-0.095 0.155-0.093 0.157-0.091 0.158-0.089 0.158-0.088 0.16-0.086 0.162-0.084 0.162-0.082 0.164-0.08 0.164-0.078 0.166-0.076 0.167-0.074 0.168-0.073 0.169-0.07 0.17-0.068 0.171-0.067 0.172-0.064 0.173-0.062 0.174-0.06 0.175-0.058 0.177-0.056 0.176-0.054 0.178-0.052 0.179-0.05 0.18-0.047 0.18-0.045 0.182-0.044 0.182-0.04 0.183-0.039 0.183-0.036 0.185-0.035 0.185-0.032 0.186-0.029 0.187-0.028 0.187-0.025 0.188-0.022 0.188-0.021 0.19-0.018 0.189-0.015 0.191-0.014 0.19-0.011 0.192-8e-3 0.192-6e-3 0.192-4e-3 0.193-1e-3 0.193 1e-3zm-0.284 8-0.091 1e-3 -0.091 3e-3 -0.09 4e-3 -0.09 5e-3 -0.178 0.014-0.088 8e-3 -0.088 0.01-0.088 0.011-0.087 0.011-0.087 0.013-0.087 0.014-0.172 0.03-0.085 0.017-0.085 0.018-0.084 0.019-0.085 0.02-0.083 0.021-0.083 0.022-0.083 0.023-0.083 0.024-0.082 0.025-0.081 0.026-0.081 0.027-0.081 0.028-0.08 0.029-0.08 0.03-0.079 0.03-0.079 0.032-0.079 0.033-0.078 0.033-0.154 0.07-0.077 0.037-0.076 0.037-0.076 0.038-0.075 0.039-0.074 0.04-0.148 0.082-0.073 0.043-0.144 0.088-0.072 0.045-0.07 0.046-0.071 0.047-0.138 0.096-0.069 0.049-0.068 0.051-0.067 0.05-0.067 0.052-0.066 0.053-0.065 0.053-0.065 0.054-0.064 0.055-0.126 0.112-0.062 0.057-0.062 0.058-0.12 0.118-0.059 0.06-0.059 0.061-0.058 0.061-0.057 0.062-0.112 0.126-0.055 0.064-0.054 0.065-0.053 0.065-0.053 0.066-0.052 0.067-0.05 0.067-0.051 0.068-0.049 0.069-0.096 0.138-0.047 0.071-0.046 0.07-0.045 0.072-0.088 0.144-0.042 0.073-0.042 0.074-0.041 0.074-0.04 0.074-0.039 0.075-0.038 0.076-0.037 0.076-0.037 0.077-0.07 0.154-0.033 0.078-0.033 0.079-0.032 0.079-0.03 0.079-0.03 0.08-0.029 0.08-0.028 0.081-0.027 0.081-0.026 0.081-0.025 0.082-0.024 0.083-0.023 0.083-0.022 0.083-0.021 0.084-0.02 0.084-0.019 0.084-0.018 0.085-0.017 0.085-0.03 0.172-0.014 0.087-0.013 0.087-0.011 0.087-0.011 0.088-0.01 0.088-8e-3 0.088-0.014 0.178-5e-3 0.09-4e-3 0.09-3e-3 0.091-2e-3 0.182 2e-3 0.182 3e-3 0.091 4e-3 0.09 5e-3 0.09 0.014 0.178 8e-3 0.088 0.01 0.088 0.011 0.088 0.011 0.087 0.013 0.087 0.014 0.087 0.03 0.172 0.017 0.085 0.018 0.085 0.019 0.084 0.02 0.084 0.021 0.084 0.022 0.083 0.023 0.083 0.024 0.083 0.025 0.082 0.026 0.081 0.027 0.081 0.028 0.081 0.029 0.08 0.03 0.08 0.03 0.079 0.032 0.079 0.033 0.079 0.033 0.078 0.07 0.154 0.037 0.077 0.037 0.076 0.038 0.076 0.039 0.075 0.04 0.074 0.041 0.074 0.042 0.074 0.042 0.073 0.088 0.144 0.045 0.072 0.046 0.07 0.047 0.071 0.096 0.138 0.049 0.069 0.051 0.068 0.05 0.067 0.052 0.067 0.053 0.066 0.053 0.065 0.054 0.065 0.055 0.064 0.112 0.126 0.057 0.062 0.058 0.061 0.059 0.061 0.059 0.06 0.06 0.059 0.061 0.059 0.061 0.058 0.062 0.057 0.126 0.112 0.064 0.055 0.065 0.054 0.065 0.053 0.066 0.053 0.067 0.052 0.067 0.05 0.068 0.051 0.069 0.049 0.138 0.096 0.071 0.047 0.07 0.046 0.072 0.045 0.144 0.088 0.073 0.042 0.074 0.042 0.074 0.041 0.074 0.04 0.075 0.039 0.076 0.038 0.076 0.037 0.077 0.037 0.154 0.07 0.078 0.033 0.079 0.033 0.079 0.032 0.079 0.03 0.08 0.03 0.08 0.029 0.081 0.028 0.081 0.027 0.081 0.026 0.082 0.025 0.083 0.024 0.083 0.023 0.083 0.022 0.084 0.021 0.084 0.02 0.084 0.019 0.085 0.018 0.085 0.017 0.172 0.03 0.087 0.014 0.087 0.013 0.087 0.011 0.088 0.011 0.088 0.01 0.088 8e-3 0.178 0.014 0.09 5e-3 0.09 4e-3 0.091 3e-3 0.182 2e-3 0.182-2e-3 0.091-3e-3 0.09-4e-3 0.09-5e-3 0.178-0.014 0.088-8e-3 0.088-0.01 0.088-0.011 0.087-0.011 0.087-0.013 0.087-0.014 0.172-0.03 0.085-0.017 0.085-0.018 0.084-0.019 0.084-0.02 0.084-0.021 0.083-0.022 0.083-0.023 0.083-0.024 0.082-0.025 0.081-0.026 0.081-0.027 0.081-0.028 0.08-0.029 0.08-0.03 0.079-0.03 0.079-0.032 0.079-0.033 0.078-0.033 0.154-0.07 0.077-0.037 0.076-0.037 0.076-0.038 0.075-0.039 0.074-0.04 0.074-0.041 0.074-0.042 0.073-0.042 0.144-0.088 0.072-0.045 0.07-0.046 0.071-0.047 0.138-0.096 0.069-0.049 0.068-0.051 0.067-0.05 0.067-0.052 0.066-0.053 0.065-0.053 0.065-0.054 0.064-0.055 0.126-0.112 0.062-0.057 0.061-0.058 0.061-0.059 0.06-0.059 0.118-0.12 0.058-0.062 0.057-0.062 0.112-0.126 0.055-0.064 0.054-0.065 0.053-0.065 0.053-0.066 0.102-0.134 0.051-0.068 0.049-0.069 0.096-0.138 0.047-0.071 0.046-0.07 0.045-0.072 0.088-0.144 0.043-0.073 0.082-0.148 0.04-0.074 0.039-0.075 0.038-0.076 0.037-0.076 0.037-0.077 0.07-0.154 0.033-0.078 0.033-0.079 0.032-0.079 0.03-0.079 0.03-0.08 0.029-0.08 0.028-0.081 0.027-0.081 0.026-0.082 0.025-0.081 0.024-0.083 0.023-0.083 0.022-0.083 0.021-0.084 0.02-0.084 0.019-0.084 0.018-0.085 0.017-0.085 0.03-0.172 0.014-0.086 0.013-0.088 0.012-0.087 0.01-0.088 0.01-0.087 8e-3 -0.089 0.014-0.178 5e-3 -0.09 4e-3 -0.09 3e-3 -0.091 2e-3 -0.182-2e-3 -0.182-3e-3 -0.091-4e-3 -0.09-5e-3 -0.09-0.014-0.178-8e-3 -0.089-0.01-0.087-0.01-0.088-0.012-0.087-0.013-0.088-0.014-0.086-0.03-0.172-0.017-0.085-0.018-0.085-0.019-0.084-0.02-0.084-0.021-0.084-0.022-0.083-0.023-0.083-0.024-0.083-0.025-0.081-0.026-0.082-0.027-0.081-0.028-0.081-0.029-0.08-0.03-0.08-0.03-0.079-0.032-0.079-0.033-0.079-0.033-0.078-0.07-0.154-0.037-0.077-0.037-0.076-0.038-0.076-0.039-0.075-0.04-0.074-0.082-0.148-0.043-0.073-0.088-0.144-0.045-0.072-0.046-0.07-0.047-0.071-0.096-0.138-0.049-0.069-0.051-0.068-0.102-0.134-0.053-0.066-0.053-0.065-0.054-0.065-0.055-0.064-0.112-0.126-0.057-0.062-0.058-0.062-0.118-0.12-0.12-0.118-0.062-0.058-0.062-0.057-0.126-0.112-0.064-0.055-0.065-0.054-0.065-0.053-0.066-0.053-0.067-0.052-0.067-0.05-0.068-0.051-0.069-0.049-0.138-0.096-0.071-0.047-0.07-0.046-0.072-0.045-0.144-0.088-0.073-0.043-0.148-0.082-0.074-0.04-0.075-0.039-0.076-0.038-0.076-0.037-0.077-0.037-0.154-0.07-0.078-0.033-0.079-0.033-0.079-0.032-0.079-0.03-0.08-0.03-0.08-0.029-0.081-0.028-0.081-0.027-0.081-0.026-0.082-0.025-0.083-0.024-0.083-0.023-0.083-0.022-0.083-0.021-0.085-0.02-0.084-0.019-0.085-0.018-0.085-0.017-0.172-0.03-0.087-0.014-0.087-0.013-0.087-0.011-0.088-0.011-0.088-0.01-0.088-8e-3 -0.178-0.014-0.09-5e-3 -0.09-4e-3 -0.091-3e-3 -0.182-2e-3 -0.091 1e-3z"/><path d="m28.657 8-19.657 19.657-5.657-5.657 19.657-19.657 5.657 5.657z"/><path d="m29 15-7 9-6 2-6-2-7-9v2c0 3.448 1.37 6.754 3.808 9.192s5.744 3.808 9.192 3.808 6.754-1.37 9.192-3.808 3.808-5.744 3.808-9.192v-2z" fill="none" stroke="#000" stroke-width="4px"/></g><g id="emoji"><circle cx="16" cy="16" r="10"/><path d="m25.828 10-16.828 16.828-2.828-2.828 16.828-16.828 2.828 2.828z" fill="#93151c"/><path d="m16.167 4.001 0.167 3e-3 0.167 5e-3 0.166 8e-3 0.166 9e-3 0.165 0.012 0.164 0.013 0.164 0.016 0.164 0.018 0.163 0.019 0.162 0.022 0.162 0.024 0.161 0.025 0.16 0.028 0.16 0.03 0.159 0.031 0.159 0.034 0.157 0.035 0.157 0.038 0.157 0.039 0.155 0.041 0.155 0.043 0.154 0.045 0.153 0.046 0.152 0.049 0.152 0.05 0.151 0.052 0.15 0.054 0.149 0.056 0.148 0.057 0.147 0.059 0.147 0.061 0.145 0.063 0.145 0.064 0.143 0.066 0.143 0.068 0.141 0.069 0.141 0.071 0.14 0.073 0.139 0.074 0.137 0.076 0.137 0.078 0.135 0.079 0.135 0.08 0.266 0.166 0.131 0.086 0.13 0.087 0.129 0.088 0.128 0.09 0.127 0.091 0.126 0.093 0.124 0.094 0.124 0.096 0.122 0.097 0.12 0.099 0.12 0.1 0.119 0.101 0.117 0.103 0.116 0.104 0.115 0.106 0.113 0.106 0.112 0.109 0.111 0.109 0.109 0.111 0.109 0.112 0.106 0.113 0.106 0.115 0.104 0.116 0.103 0.117 0.101 0.119 0.1 0.119 0.099 0.121 0.097 0.122 0.096 0.124 0.094 0.124 0.093 0.126 0.091 0.127 0.09 0.128 0.088 0.129 0.087 0.13 0.086 0.131 0.166 0.266 0.08 0.135 0.079 0.135 0.078 0.137 0.076 0.137 0.074 0.139 0.073 0.14 0.071 0.141 0.069 0.141 0.068 0.143 0.066 0.143 0.064 0.145 0.063 0.145 0.061 0.147 0.059 0.147 0.057 0.148 0.056 0.149 0.054 0.15 0.052 0.151 0.05 0.152 0.049 0.152 0.046 0.153 0.045 0.154 0.043 0.155 0.041 0.155 0.039 0.157 0.038 0.157 0.035 0.158 0.034 0.158 0.031 0.159 0.03 0.16 0.028 0.16 0.025 0.161 0.024 0.162 0.022 0.162 0.019 0.163 0.018 0.164 0.016 0.164 0.013 0.164 0.012 0.165 9e-3 0.166 8e-3 0.166 5e-3 0.167 3e-3 0.167 1e-3 0.167-1e-3 0.167-3e-3 0.167-5e-3 0.167-8e-3 0.166-9e-3 0.166-0.012 0.165-0.013 0.164-0.016 0.164-0.018 0.164-0.019 0.163-0.022 0.162-0.024 0.162-0.025 0.161-0.028 0.16-0.03 0.16-0.031 0.159-0.034 0.158-0.035 0.158-0.038 0.157-0.039 0.157-0.041 0.155-0.043 0.155-0.045 0.154-0.046 0.153-0.049 0.152-0.05 0.152-0.052 0.151-0.054 0.15-0.056 0.149-0.057 0.148-0.059 0.147-0.061 0.147-0.063 0.145-0.064 0.145-0.066 0.143-0.068 0.143-0.069 0.141-0.071 0.141-0.073 0.14-0.074 0.139-0.076 0.137-0.078 0.137-0.079 0.135-0.08 0.135-0.166 0.266-0.086 0.131-0.087 0.13-0.088 0.129-0.09 0.128-0.091 0.127-0.093 0.126-0.094 0.124-0.096 0.124-0.097 0.122-0.099 0.121-0.1 0.119-0.101 0.119-0.103 0.117-0.104 0.116-0.212 0.228-0.109 0.112-0.109 0.111-0.111 0.109-0.112 0.109-0.113 0.106-0.115 0.106-0.116 0.104-0.117 0.103-0.119 0.101-0.119 0.1-0.121 0.099-0.123 0.097-0.123 0.096-0.124 0.094-0.126 0.093-0.127 0.091-0.128 0.09-0.129 0.088-0.13 0.087-0.131 0.086-0.266 0.166-0.135 0.08-0.135 0.079-0.137 0.078-0.137 0.076-0.139 0.074-0.14 0.073-0.141 0.071-0.141 0.069-0.143 0.068-0.143 0.066-0.145 0.064-0.145 0.063-0.147 0.061-0.147 0.059-0.148 0.057-0.149 0.056-0.15 0.054-0.151 0.052-0.152 0.05-0.152 0.049-0.153 0.046-0.154 0.045-0.155 0.043-0.155 0.041-0.157 0.039-0.157 0.038-0.158 0.035-0.158 0.034-0.159 0.031-0.16 0.03-0.16 0.028-0.161 0.025-0.162 0.024-0.162 0.022-0.163 0.019-0.164 0.018-0.164 0.016-0.164 0.013-0.165 0.012-0.166 9e-3 -0.166 8e-3 -0.167 5e-3 -0.167 3e-3 -0.167 1e-3 -0.167-1e-3 -0.167-3e-3 -0.167-5e-3 -0.166-8e-3 -0.166-9e-3 -0.165-0.012-0.164-0.013-0.164-0.016-0.164-0.018-0.163-0.019-0.162-0.022-0.162-0.024-0.161-0.025-0.16-0.028-0.16-0.03-0.159-0.031-0.158-0.034-0.158-0.035-0.157-0.038-0.157-0.039-0.155-0.041-0.155-0.043-0.154-0.045-0.153-0.046-0.152-0.049-0.152-0.05-0.151-0.052-0.15-0.054-0.149-0.056-0.148-0.057-0.147-0.059-0.147-0.061-0.145-0.063-0.145-0.064-0.143-0.066-0.143-0.068-0.141-0.069-0.141-0.071-0.14-0.073-0.139-0.074-0.137-0.076-0.137-0.078-0.135-0.079-0.135-0.08-0.266-0.166-0.131-0.086-0.13-0.087-0.129-0.088-0.128-0.09-0.127-0.091-0.126-0.093-0.124-0.094-0.123-0.096-0.123-0.097-0.121-0.099-0.119-0.1-0.119-0.101-0.117-0.103-0.116-0.104-0.115-0.106-0.113-0.106-0.112-0.109-0.111-0.109-0.109-0.111-0.109-0.112-0.212-0.228-0.104-0.116-0.103-0.117-0.101-0.119-0.1-0.12-0.099-0.12-0.097-0.122-0.096-0.124-0.094-0.124-0.093-0.126-0.091-0.127-0.09-0.128-0.088-0.129-0.087-0.13-0.086-0.131-0.166-0.266-0.08-0.135-0.079-0.135-0.078-0.137-0.076-0.137-0.074-0.139-0.073-0.14-0.071-0.141-0.069-0.141-0.068-0.143-0.066-0.143-0.064-0.145-0.063-0.145-0.061-0.147-0.059-0.147-0.057-0.148-0.056-0.149-0.054-0.15-0.052-0.151-0.05-0.152-0.049-0.152-0.046-0.153-0.045-0.154-0.043-0.155-0.041-0.156-0.039-0.156-0.038-0.157-0.035-0.157-0.034-0.159-0.031-0.159-0.03-0.16-0.028-0.16-0.025-0.161-0.024-0.162-0.022-0.162-0.019-0.163-0.018-0.164-0.016-0.164-0.013-0.164-0.012-0.165-9e-3 -0.166-8e-3 -0.166-5e-3 -0.167-3e-3 -0.167-1e-3 -0.167 1e-3 -0.167 3e-3 -0.167 5e-3 -0.167 8e-3 -0.166 9e-3 -0.166 0.012-0.165 0.013-0.164 0.016-0.164 0.018-0.164 0.019-0.163 0.022-0.162 0.024-0.162 0.025-0.161 0.028-0.16 0.03-0.16 0.031-0.159 0.034-0.159 0.035-0.157 0.038-0.157 0.039-0.156 0.041-0.156 0.043-0.155 0.045-0.154 0.046-0.153 0.049-0.152 0.05-0.152 0.052-0.151 0.054-0.15 0.056-0.149 0.057-0.148 0.059-0.147 0.061-0.147 0.063-0.145 0.064-0.145 0.066-0.143 0.068-0.143 0.069-0.141 0.071-0.141 0.073-0.14 0.074-0.139 0.076-0.137 0.078-0.137 0.079-0.135 0.08-0.135 0.166-0.266 0.086-0.131 0.087-0.13 0.088-0.129 0.09-0.128 0.091-0.127 0.093-0.126 0.094-0.124 0.096-0.124 0.097-0.122 0.099-0.12 0.1-0.12 0.101-0.119 0.103-0.117 0.104-0.116 0.106-0.115 0.106-0.113 0.109-0.112 0.109-0.111 0.111-0.109 0.112-0.109 0.113-0.106 0.115-0.106 0.116-0.104 0.117-0.103 0.119-0.101 0.12-0.1 0.12-0.099 0.122-0.097 0.124-0.096 0.124-0.094 0.126-0.093 0.127-0.091 0.128-0.09 0.129-0.088 0.13-0.087 0.131-0.086 0.266-0.166 0.135-0.08 0.135-0.079 0.137-0.078 0.137-0.076 0.139-0.074 0.14-0.073 0.141-0.071 0.141-0.069 0.143-0.068 0.143-0.066 0.145-0.064 0.145-0.063 0.147-0.061 0.147-0.059 0.148-0.057 0.149-0.056 0.15-0.054 0.151-0.052 0.152-0.05 0.152-0.049 0.153-0.046 0.154-0.045 0.155-0.043 0.155-0.041 0.157-0.039 0.157-0.038 0.157-0.035 0.159-0.034 0.159-0.031 0.16-0.03 0.16-0.028 0.161-0.025 0.162-0.024 0.162-0.022 0.163-0.019 0.164-0.018 0.164-0.016 0.164-0.013 0.165-0.012 0.166-9e-3 0.166-8e-3 0.167-5e-3 0.167-3e-3 0.167-1e-3 0.167 1e-3zm-0.284 4-0.116 2e-3 -0.116 4e-3 -0.115 5e-3 -0.115 6e-3 -0.115 8e-3 -0.114 0.01-0.114 0.011-0.113 0.012-0.113 0.013-0.112 0.015-0.112 0.017-0.111 0.018-0.111 0.019-0.11 0.02-0.11 0.022-0.11 0.023-0.109 0.025-0.108 0.025-0.108 0.027-0.214 0.058-0.106 0.031-0.106 0.033-0.105 0.033-0.105 0.035-0.104 0.036-0.103 0.037-0.103 0.038-0.103 0.04-0.101 0.041-0.101 0.042-0.101 0.043-0.1 0.045-0.099 0.045-0.099 0.047-0.097 0.048-0.098 0.049-0.096 0.05-0.192 0.104-0.094 0.054-0.094 0.055-0.186 0.112-0.091 0.058-0.182 0.12-0.089 0.061-0.089 0.062-0.088 0.064-0.087 0.064-0.086 0.065-0.086 0.067-0.084 0.067-0.084 0.069-0.083 0.069-0.082 0.07-0.082 0.072-0.08 0.072-0.08 0.073-0.079 0.074-0.154 0.152-0.152 0.154-0.074 0.079-0.073 0.08-0.072 0.08-0.072 0.082-0.07 0.082-0.069 0.083-0.069 0.084-0.067 0.084-0.067 0.086-0.065 0.086-0.064 0.087-0.064 0.088-0.062 0.089-0.061 0.089-0.12 0.182-0.058 0.091-0.112 0.186-0.055 0.094-0.054 0.094-0.104 0.192-0.05 0.096-0.049 0.098-0.048 0.097-0.047 0.099-0.045 0.099-0.045 0.1-0.043 0.101-0.042 0.101-0.041 0.101-0.04 0.103-0.038 0.103-0.037 0.103-0.036 0.104-0.035 0.105-0.033 0.105-0.033 0.106-0.031 0.106-0.058 0.214-0.027 0.108-0.025 0.108-0.025 0.109-0.023 0.11-0.022 0.11-0.02 0.11-0.019 0.111-0.018 0.111-0.017 0.112-0.015 0.112-0.013 0.113-0.012 0.113-0.011 0.114-0.01 0.114-8e-3 0.115-6e-3 0.115-5e-3 0.115-4e-3 0.116-2e-3 0.116-1e-3 0.117 1e-3 0.117 2e-3 0.116 4e-3 0.116 5e-3 0.115 6e-3 0.115 8e-3 0.115 0.01 0.114 0.011 0.114 0.012 0.113 0.013 0.113 0.015 0.112 0.017 0.112 0.018 0.111 0.019 0.111 0.02 0.11 0.022 0.11 0.023 0.11 0.025 0.109 0.025 0.108 0.027 0.108 0.058 0.214 0.031 0.106 0.033 0.106 0.033 0.105 0.035 0.105 0.036 0.104 0.037 0.103 0.038 0.103 0.04 0.103 0.041 0.101 0.042 0.101 0.043 0.101 0.045 0.1 0.045 0.099 0.047 0.099 0.048 0.097 0.049 0.098 0.05 0.096 0.104 0.192 0.054 0.094 0.055 0.094 0.112 0.186 0.058 0.091 0.12 0.182 0.061 0.089 0.062 0.089 0.064 0.088 0.064 0.087 0.065 0.086 0.067 0.086 0.067 0.084 0.069 0.084 0.069 0.083 0.07 0.082 0.072 0.082 0.072 0.08 0.073 0.08 0.074 0.079 0.152 0.154 0.154 0.152 0.079 0.074 0.08 0.073 0.08 0.072 0.082 0.072 0.082 0.07 0.083 0.069 0.084 0.069 0.084 0.067 0.086 0.067 0.086 0.065 0.087 0.064 0.088 0.064 0.089 0.062 0.089 0.061 0.091 0.06 0.182 0.118 0.093 0.057 0.093 0.055 0.094 0.055 0.094 0.054 0.192 0.104 0.096 0.05 0.098 0.049 0.097 0.048 0.099 0.047 0.099 0.045 0.1 0.045 0.101 0.043 0.101 0.042 0.101 0.041 0.103 0.04 0.103 0.038 0.103 0.037 0.104 0.036 0.105 0.035 0.105 0.033 0.106 0.033 0.106 0.031 0.214 0.058 0.108 0.027 0.108 0.025 0.109 0.025 0.11 0.023 0.11 0.022 0.11 0.02 0.111 0.019 0.111 0.018 0.112 0.017 0.112 0.015 0.113 0.013 0.113 0.012 0.114 0.011 0.114 0.01 0.115 8e-3 0.115 6e-3 0.115 5e-3 0.116 4e-3 0.116 2e-3 0.117 1e-3 0.117-1e-3 0.116-2e-3 0.116-4e-3 0.115-5e-3 0.115-6e-3 0.115-8e-3 0.114-0.01 0.114-0.011 0.113-0.012 0.113-0.013 0.112-0.015 0.112-0.017 0.111-0.018 0.111-0.019 0.11-0.02 0.11-0.022 0.11-0.023 0.109-0.025 0.108-0.025 0.108-0.027 0.214-0.058 0.106-0.031 0.106-0.033 0.105-0.033 0.105-0.035 0.104-0.036 0.103-0.037 0.103-0.038 0.103-0.04 0.101-0.041 0.101-0.042 0.101-0.043 0.1-0.045 0.099-0.045 0.099-0.047 0.097-0.048 0.098-0.049 0.096-0.05 0.192-0.104 0.094-0.054 0.094-0.055 0.093-0.055 0.093-0.057 0.182-0.118 0.091-0.06 0.089-0.061 0.089-0.062 0.088-0.064 0.087-0.064 0.086-0.065 0.086-0.067 0.084-0.067 0.084-0.069 0.083-0.069 0.082-0.07 0.082-0.072 0.08-0.072 0.08-0.073 0.079-0.074 0.154-0.152 0.152-0.154 0.074-0.079 0.073-0.08 0.072-0.08 0.072-0.082 0.07-0.082 0.069-0.083 0.069-0.084 0.067-0.084 0.067-0.086 0.065-0.086 0.064-0.087 0.064-0.088 0.062-0.089 0.061-0.089 0.06-0.091 0.118-0.182 0.112-0.186 0.055-0.094 0.054-0.094 0.104-0.192 0.05-0.096 0.049-0.097 0.048-0.098 0.047-0.099 0.045-0.099 0.045-0.1 0.043-0.101 0.042-0.101 0.041-0.101 0.04-0.103 0.038-0.103 0.037-0.103 0.036-0.104 0.035-0.105 0.033-0.105 0.033-0.106 0.031-0.106 0.058-0.214 0.027-0.108 0.025-0.108 0.025-0.109 0.023-0.11 0.022-0.11 0.02-0.11 0.019-0.111 0.018-0.111 0.032-0.224 0.013-0.113 0.012-0.113 0.011-0.114 0.01-0.114 8e-3 -0.115 6e-3 -0.115 5e-3 -0.115 4e-3 -0.116 2e-3 -0.116 1e-3 -0.117-1e-3 -0.117-2e-3 -0.116-4e-3 -0.116-5e-3 -0.115-6e-3 -0.115-8e-3 -0.115-0.01-0.114-0.011-0.114-0.012-0.113-0.013-0.113-0.032-0.224-0.018-0.111-0.019-0.111-0.02-0.11-0.022-0.11-0.023-0.11-0.025-0.109-0.025-0.108-0.027-0.108-0.058-0.214-0.031-0.106-0.033-0.106-0.033-0.105-0.035-0.105-0.036-0.104-0.037-0.103-0.038-0.103-0.04-0.103-0.041-0.101-0.042-0.101-0.043-0.101-0.045-0.1-0.045-0.099-0.047-0.099-0.048-0.098-0.049-0.097-0.05-0.096-0.104-0.192-0.054-0.094-0.055-0.094-0.112-0.186-0.058-0.091-0.12-0.182-0.061-0.089-0.062-0.089-0.064-0.088-0.064-0.087-0.065-0.086-0.067-0.086-0.067-0.084-0.069-0.084-0.069-0.083-0.07-0.082-0.072-0.082-0.072-0.08-0.073-0.08-0.074-0.079-0.152-0.154-0.154-0.152-0.079-0.074-0.08-0.073-0.08-0.072-0.082-0.072-0.082-0.07-0.083-0.069-0.084-0.069-0.084-0.067-0.086-0.067-0.086-0.065-0.087-0.064-0.088-0.064-0.089-0.062-0.089-0.061-0.182-0.12-0.091-0.058-0.186-0.112-0.094-0.055-0.094-0.054-0.192-0.104-0.096-0.05-0.098-0.049-0.097-0.048-0.099-0.047-0.099-0.045-0.1-0.045-0.101-0.043-0.101-0.042-0.101-0.041-0.103-0.04-0.103-0.038-0.103-0.037-0.104-0.036-0.105-0.035-0.105-0.033-0.106-0.033-0.106-0.031-0.214-0.058-0.108-0.027-0.108-0.025-0.109-0.025-0.11-0.023-0.11-0.022-0.11-0.02-0.111-0.019-0.111-0.018-0.112-0.017-0.112-0.015-0.113-0.013-0.113-0.012-0.114-0.011-0.114-0.01-0.115-8e-3 -0.115-6e-3 -0.115-5e-3 -0.116-4e-3 -0.116-2e-3 -0.117-1e-3 -0.117 1e-3z" fill="#93151c"/><rect x="3" y="15" width="3" height="2" fill="#93151c"/><rect x="26" y="15" width="3" height="2" fill="#93151c"/><path d="m16.167 2.001 0.167 3e-3 0.167 5e-3 0.166 8e-3 0.166 9e-3 0.165 0.012 0.164 0.013 0.164 0.016 0.164 0.018 0.163 0.019 0.162 0.022 0.162 0.024 0.161 0.025 0.16 0.028 0.16 0.03 0.159 0.031 0.159 0.034 0.157 0.035 0.157 0.037 0.157 0.04 0.155 0.041 0.155 0.043 0.154 0.045 0.153 0.046 0.152 0.049 0.152 0.05 0.151 0.052 0.15 0.054 0.149 0.056 0.148 0.057 0.147 0.059 0.147 0.061 0.145 0.063 0.145 0.064 0.143 0.066 0.143 0.068 0.141 0.069 0.141 0.071 0.14 0.073 0.139 0.074 0.137 0.076 0.137 0.078 0.135 0.079 0.135 0.08 0.266 0.166 0.131 0.086 0.13 0.087 0.129 0.088 0.128 0.09 0.127 0.091 0.126 0.093 0.124 0.094 0.124 0.096 0.122 0.097 0.12 0.099 0.12 0.1 0.119 0.101 0.117 0.103 0.116 0.104 0.115 0.106 0.113 0.106 0.112 0.109 0.111 0.109 0.109 0.111 0.109 0.112 0.106 0.113 0.106 0.115 0.104 0.116 0.103 0.117 0.101 0.119 0.1 0.119 0.099 0.121 0.097 0.122 0.096 0.124 0.094 0.124 0.093 0.126 0.091 0.127 0.09 0.128 0.088 0.129 0.087 0.13 0.086 0.131 0.166 0.266 0.08 0.135 0.079 0.135 0.078 0.137 0.076 0.137 0.074 0.139 0.073 0.14 0.071 0.141 0.069 0.141 0.068 0.143 0.066 0.143 0.064 0.145 0.063 0.145 0.061 0.147 0.059 0.147 0.057 0.148 0.056 0.149 0.054 0.15 0.052 0.151 0.05 0.152 0.049 0.152 0.046 0.153 0.045 0.154 0.043 0.155 0.041 0.155 0.039 0.157 0.038 0.157 0.035 0.158 0.034 0.158 0.031 0.159 0.03 0.16 0.028 0.16 0.025 0.161 0.024 0.162 0.022 0.162 0.019 0.163 0.018 0.164 0.016 0.164 0.013 0.164 0.012 0.165 9e-3 0.166 8e-3 0.166 5e-3 0.167 3e-3 0.167 1e-3 0.167-1e-3 0.167-3e-3 0.167-5e-3 0.167-8e-3 0.166-9e-3 0.166-0.012 0.165-0.013 0.164-0.016 0.164-0.018 0.164-0.019 0.163-0.022 0.162-0.024 0.162-0.025 0.161-0.028 0.16-0.03 0.16-0.031 0.159-0.034 0.158-0.035 0.158-0.038 0.157-0.039 0.157-0.041 0.155-0.043 0.155-0.045 0.154-0.046 0.153-0.049 0.152-0.05 0.152-0.052 0.151-0.054 0.15-0.056 0.149-0.057 0.148-0.059 0.147-0.061 0.147-0.063 0.145-0.064 0.145-0.066 0.143-0.068 0.143-0.069 0.141-0.071 0.141-0.073 0.14-0.074 0.139-0.076 0.137-0.078 0.137-0.079 0.135-0.08 0.135-0.166 0.266-0.086 0.131-0.087 0.13-0.088 0.129-0.09 0.128-0.091 0.127-0.093 0.126-0.094 0.124-0.096 0.124-0.097 0.122-0.099 0.121-0.1 0.119-0.101 0.119-0.103 0.117-0.104 0.116-0.106 0.115-0.106 0.113-0.109 0.112-0.109 0.111-0.111 0.109-0.112 0.109-0.113 0.106-0.115 0.106-0.116 0.104-0.117 0.103-0.119 0.101-0.12 0.1-0.12 0.099-0.122 0.097-0.124 0.096-0.124 0.094-0.126 0.093-0.127 0.091-0.128 0.09-0.129 0.088-0.13 0.087-0.131 0.086-0.266 0.166-0.135 0.08-0.135 0.079-0.137 0.078-0.137 0.076-0.139 0.074-0.14 0.073-0.141 0.071-0.141 0.069-0.143 0.068-0.143 0.066-0.145 0.064-0.145 0.063-0.147 0.061-0.147 0.059-0.148 0.057-0.149 0.056-0.15 0.054-0.151 0.052-0.152 0.05-0.152 0.049-0.153 0.046-0.154 0.045-0.155 0.043-0.156 0.041-0.156 0.039-0.157 0.038-0.157 0.035-0.159 0.034-0.159 0.031-0.16 0.03-0.16 0.028-0.161 0.025-0.162 0.024-0.162 0.022-0.163 0.019-0.164 0.018-0.164 0.016-0.164 0.013-0.165 0.012-0.166 9e-3 -0.166 8e-3 -0.167 5e-3 -0.167 3e-3 -0.167 1e-3 -0.167-1e-3 -0.167-3e-3 -0.167-5e-3 -0.166-8e-3 -0.166-9e-3 -0.165-0.012-0.164-0.013-0.164-0.016-0.164-0.018-0.163-0.019-0.162-0.022-0.162-0.024-0.161-0.025-0.16-0.028-0.16-0.03-0.159-0.031-0.159-0.034-0.157-0.035-0.157-0.038-0.156-0.039-0.156-0.041-0.155-0.043-0.154-0.045-0.153-0.046-0.152-0.049-0.152-0.05-0.151-0.052-0.15-0.054-0.149-0.056-0.148-0.057-0.147-0.059-0.147-0.061-0.145-0.063-0.145-0.064-0.143-0.066-0.143-0.068-0.141-0.069-0.141-0.071-0.14-0.073-0.139-0.074-0.137-0.076-0.137-0.078-0.135-0.079-0.135-0.08-0.266-0.166-0.131-0.086-0.13-0.087-0.129-0.088-0.128-0.09-0.127-0.091-0.126-0.093-0.124-0.094-0.124-0.096-0.122-0.097-0.12-0.099-0.12-0.1-0.119-0.101-0.117-0.103-0.116-0.104-0.115-0.106-0.113-0.106-0.112-0.109-0.111-0.109-0.109-0.111-0.109-0.112-0.106-0.113-0.106-0.115-0.104-0.116-0.103-0.117-0.101-0.119-0.1-0.12-0.099-0.12-0.097-0.122-0.096-0.124-0.094-0.124-0.093-0.126-0.091-0.127-0.09-0.128-0.088-0.129-0.087-0.13-0.086-0.131-0.166-0.266-0.08-0.135-0.079-0.135-0.078-0.137-0.076-0.137-0.074-0.139-0.073-0.14-0.071-0.141-0.069-0.141-0.068-0.143-0.066-0.143-0.064-0.145-0.063-0.145-0.061-0.147-0.059-0.147-0.057-0.148-0.056-0.149-0.054-0.15-0.052-0.151-0.05-0.152-0.049-0.152-0.046-0.153-0.045-0.154-0.043-0.155-0.041-0.156-0.039-0.156-0.038-0.157-0.035-0.157-0.034-0.159-0.031-0.159-0.03-0.16-0.028-0.16-0.025-0.161-0.024-0.162-0.022-0.162-0.019-0.163-0.018-0.164-0.016-0.164-0.013-0.164-0.012-0.165-9e-3 -0.166-8e-3 -0.166-5e-3 -0.167-3e-3 -0.167-1e-3 -0.167 1e-3 -0.167 3e-3 -0.167 5e-3 -0.167 8e-3 -0.166 9e-3 -0.166 0.012-0.165 0.013-0.164 0.016-0.164 0.018-0.164 0.019-0.163 0.022-0.162 0.024-0.162 0.025-0.161 0.028-0.16 0.03-0.16 0.031-0.159 0.034-0.159 0.035-0.157 0.038-0.157 0.039-0.156 0.041-0.156 0.043-0.155 0.045-0.154 0.046-0.153 0.049-0.152 0.05-0.152 0.052-0.151 0.054-0.15 0.056-0.149 0.057-0.148 0.059-0.147 0.061-0.147 0.063-0.145 0.064-0.145 0.066-0.143 0.068-0.143 0.069-0.141 0.071-0.141 0.073-0.14 0.074-0.139 0.076-0.137 0.078-0.137 0.079-0.135 0.08-0.135 0.166-0.266 0.086-0.131 0.087-0.13 0.088-0.129 0.09-0.128 0.091-0.127 0.093-0.126 0.094-0.124 0.096-0.124 0.097-0.122 0.099-0.12 0.1-0.12 0.101-0.119 0.103-0.117 0.104-0.116 0.106-0.115 0.106-0.113 0.109-0.112 0.109-0.111 0.111-0.109 0.112-0.109 0.113-0.106 0.115-0.106 0.116-0.104 0.117-0.103 0.119-0.101 0.12-0.1 0.12-0.099 0.122-0.097 0.124-0.096 0.124-0.094 0.126-0.093 0.127-0.091 0.128-0.09 0.129-0.088 0.13-0.087 0.131-0.086 0.266-0.166 0.135-0.08 0.135-0.079 0.137-0.078 0.137-0.076 0.139-0.074 0.14-0.073 0.141-0.071 0.141-0.069 0.143-0.068 0.143-0.066 0.145-0.064 0.145-0.063 0.147-0.061 0.147-0.059 0.148-0.057 0.149-0.056 0.15-0.054 0.151-0.052 0.152-0.05 0.152-0.049 0.153-0.046 0.154-0.045 0.155-0.043 0.155-0.041 0.157-0.04 0.157-0.037 0.157-0.035 0.159-0.034 0.159-0.031 0.16-0.03 0.16-0.028 0.161-0.025 0.162-0.024 0.162-0.022 0.163-0.019 0.164-0.018 0.164-0.016 0.164-0.013 0.165-0.012 0.166-9e-3 0.166-8e-3 0.167-5e-3 0.167-3e-3 0.167-1e-3 0.167 1e-3zm-0.284 4-0.116 2e-3 -0.116 4e-3 -0.115 5e-3 -0.115 6e-3 -0.115 8e-3 -0.114 0.01-0.114 0.011-0.113 0.012-0.113 0.013-0.112 0.015-0.112 0.017-0.111 0.018-0.111 0.019-0.11 0.02-0.11 0.022-0.11 0.023-0.109 0.025-0.108 0.025-0.108 0.027-0.214 0.058-0.106 0.031-0.106 0.033-0.105 0.033-0.105 0.035-0.104 0.036-0.103 0.037-0.103 0.038-0.103 0.04-0.101 0.041-0.101 0.042-0.101 0.043-0.1 0.045-0.099 0.045-0.099 0.047-0.097 0.048-0.098 0.049-0.096 0.05-0.192 0.104-0.094 0.054-0.094 0.055-0.186 0.112-0.091 0.058-0.182 0.12-0.089 0.061-0.089 0.062-0.088 0.064-0.087 0.064-0.086 0.065-0.086 0.067-0.084 0.067-0.084 0.069-0.083 0.069-0.082 0.07-0.082 0.072-0.08 0.072-0.08 0.073-0.079 0.074-0.154 0.152-0.152 0.154-0.074 0.079-0.073 0.08-0.072 0.08-0.072 0.082-0.07 0.082-0.069 0.083-0.069 0.084-0.067 0.084-0.067 0.086-0.065 0.086-0.064 0.087-0.064 0.088-0.062 0.089-0.061 0.089-0.12 0.182-0.058 0.091-0.112 0.186-0.055 0.094-0.054 0.094-0.104 0.192-0.05 0.096-0.049 0.098-0.048 0.097-0.047 0.099-0.045 0.099-0.045 0.1-0.043 0.101-0.042 0.101-0.041 0.101-0.04 0.103-0.038 0.103-0.037 0.103-0.036 0.104-0.035 0.105-0.033 0.105-0.033 0.106-0.031 0.106-0.058 0.214-0.027 0.108-0.025 0.108-0.025 0.109-0.023 0.11-0.022 0.11-0.02 0.11-0.019 0.111-0.018 0.111-0.017 0.112-0.015 0.112-0.013 0.113-0.012 0.113-0.011 0.114-0.01 0.114-8e-3 0.115-6e-3 0.115-5e-3 0.115-4e-3 0.116-2e-3 0.116-1e-3 0.117 1e-3 0.117 2e-3 0.116 4e-3 0.116 5e-3 0.115 6e-3 0.115 8e-3 0.115 0.01 0.114 0.011 0.114 0.012 0.113 0.013 0.113 0.015 0.112 0.017 0.112 0.018 0.111 0.019 0.111 0.02 0.11 0.022 0.11 0.023 0.11 0.025 0.109 0.025 0.108 0.027 0.108 0.058 0.214 0.031 0.106 0.033 0.106 0.033 0.105 0.035 0.105 0.036 0.104 0.037 0.103 0.038 0.103 0.04 0.103 0.041 0.101 0.042 0.101 0.043 0.101 0.045 0.1 0.045 0.099 0.047 0.099 0.048 0.097 0.049 0.098 0.05 0.096 0.104 0.192 0.054 0.094 0.055 0.094 0.112 0.186 0.058 0.091 0.12 0.182 0.061 0.089 0.062 0.089 0.064 0.088 0.064 0.087 0.065 0.086 0.067 0.086 0.067 0.084 0.069 0.084 0.069 0.083 0.07 0.082 0.072 0.082 0.072 0.08 0.073 0.08 0.074 0.079 0.152 0.154 0.154 0.152 0.079 0.074 0.08 0.073 0.08 0.072 0.082 0.072 0.082 0.07 0.083 0.069 0.084 0.069 0.084 0.067 0.086 0.067 0.086 0.065 0.087 0.064 0.088 0.064 0.089 0.062 0.089 0.061 0.182 0.12 0.091 0.058 0.186 0.112 0.094 0.055 0.094 0.054 0.192 0.104 0.096 0.05 0.098 0.049 0.097 0.048 0.099 0.047 0.099 0.045 0.1 0.045 0.101 0.043 0.101 0.042 0.101 0.041 0.103 0.04 0.103 0.038 0.103 0.037 0.104 0.036 0.105 0.035 0.105 0.033 0.106 0.033 0.106 0.031 0.214 0.058 0.108 0.027 0.108 0.025 0.109 0.025 0.11 0.023 0.11 0.022 0.11 0.02 0.111 0.019 0.111 0.018 0.112 0.017 0.112 0.015 0.113 0.013 0.113 0.012 0.114 0.011 0.114 0.01 0.115 8e-3 0.115 6e-3 0.115 5e-3 0.116 4e-3 0.116 2e-3 0.117 1e-3 0.117-1e-3 0.116-2e-3 0.116-4e-3 0.115-5e-3 0.115-6e-3 0.115-8e-3 0.114-0.01 0.114-0.011 0.113-0.012 0.113-0.013 0.112-0.015 0.112-0.017 0.111-0.018 0.111-0.019 0.11-0.02 0.11-0.022 0.11-0.023 0.109-0.025 0.108-0.025 0.108-0.027 0.214-0.058 0.106-0.031 0.106-0.033 0.105-0.033 0.105-0.035 0.104-0.036 0.103-0.037 0.103-0.038 0.103-0.04 0.101-0.041 0.101-0.042 0.101-0.043 0.1-0.045 0.099-0.045 0.099-0.047 0.097-0.048 0.098-0.049 0.096-0.05 0.192-0.104 0.094-0.054 0.094-0.055 0.186-0.112 0.091-0.058 0.182-0.12 0.089-0.061 0.089-0.062 0.088-0.064 0.087-0.064 0.086-0.065 0.086-0.067 0.084-0.067 0.084-0.069 0.083-0.069 0.082-0.07 0.082-0.072 0.08-0.072 0.08-0.073 0.079-0.074 0.154-0.152 0.152-0.154 0.074-0.079 0.073-0.08 0.072-0.08 0.072-0.082 0.07-0.082 0.069-0.083 0.069-0.084 0.067-0.084 0.067-0.086 0.065-0.086 0.064-0.087 0.064-0.088 0.062-0.089 0.061-0.089 0.12-0.182 0.058-0.091 0.112-0.186 0.055-0.094 0.054-0.094 0.104-0.192 0.05-0.096 0.049-0.097 0.048-0.098 0.047-0.099 0.045-0.099 0.045-0.1 0.043-0.101 0.042-0.101 0.041-0.101 0.04-0.103 0.038-0.103 0.037-0.103 0.036-0.104 0.035-0.105 0.033-0.105 0.033-0.106 0.031-0.106 0.058-0.214 0.027-0.108 0.025-0.108 0.025-0.109 0.023-0.11 0.022-0.11 0.02-0.11 0.019-0.111 0.018-0.111 0.032-0.224 0.013-0.113 0.012-0.113 0.011-0.114 0.01-0.114 8e-3 -0.115 6e-3 -0.115 5e-3 -0.115 4e-3 -0.116 2e-3 -0.116 1e-3 -0.117-1e-3 -0.117-2e-3 -0.116-4e-3 -0.116-5e-3 -0.115-6e-3 -0.115-8e-3 -0.115-0.01-0.114-0.011-0.114-0.012-0.113-0.013-0.113-0.032-0.224-0.018-0.111-0.019-0.111-0.02-0.11-0.022-0.11-0.023-0.11-0.025-0.109-0.025-0.108-0.027-0.108-0.058-0.214-0.031-0.106-0.033-0.106-0.033-0.105-0.035-0.105-0.036-0.104-0.037-0.103-0.038-0.103-0.04-0.103-0.041-0.101-0.042-0.101-0.043-0.101-0.045-0.1-0.045-0.099-0.047-0.099-0.048-0.098-0.049-0.097-0.05-0.096-0.104-0.192-0.054-0.094-0.055-0.094-0.112-0.186-0.058-0.091-0.12-0.182-0.061-0.089-0.062-0.089-0.064-0.088-0.064-0.087-0.065-0.086-0.067-0.086-0.067-0.084-0.069-0.084-0.069-0.083-0.07-0.082-0.072-0.082-0.072-0.08-0.073-0.08-0.074-0.079-0.152-0.154-0.154-0.152-0.079-0.074-0.08-0.073-0.08-0.072-0.082-0.072-0.082-0.07-0.083-0.069-0.084-0.069-0.084-0.067-0.086-0.067-0.086-0.065-0.087-0.064-0.088-0.064-0.089-0.062-0.089-0.061-0.182-0.12-0.091-0.058-0.186-0.112-0.094-0.055-0.094-0.054-0.192-0.104-0.096-0.05-0.098-0.049-0.097-0.048-0.099-0.047-0.099-0.045-0.1-0.045-0.101-0.043-0.101-0.042-0.101-0.041-0.103-0.04-0.103-0.038-0.103-0.037-0.104-0.036-0.105-0.035-0.105-0.033-0.106-0.033-0.106-0.031-0.214-0.058-0.108-0.027-0.108-0.025-0.109-0.025-0.11-0.023-0.11-0.022-0.11-0.02-0.111-0.019-0.111-0.018-0.112-0.017-0.112-0.015-0.113-0.013-0.113-0.012-0.114-0.011-0.114-0.01-0.115-8e-3 -0.115-6e-3 -0.115-5e-3 -0.116-4e-3 -0.116-2e-3 -0.117-1e-3 -0.117 1e-3z" fill="#e02a33"/><path d="m25.828 8-16.828 16.828-2.828-2.828 16.828-16.828 2.828 2.828z" fill="#e02a33"/></g></g></svg>
