<?xml version="1.0" encoding="UTF-8" standalone="no"?>
<!DOCTYPE svg PUBLIC "-//W3C//DTD SVG 20010904//EN" "http://www.w3.org/TR/2001/REC-SVG-20010904/DTD/svg10.dtd">
<svg version="1.0" xmlns="http://www.w3.org/2000/svg" width="1056.000000pt" height="192.000000pt" viewBox="0 0 1056.000000 192.000000" preserveAspectRatio="xMidYMid meet">

<g transform="translate(0.000000,192.000000) scale(0.100000,-0.100000)" fill="#000000" stroke="none">
<path d="M0 960 l0 -960 960 0 960 0 0 960 0 960 -960 0 -960 0 0 -960z"/>
<path d="M2880 1440 l0 -480 480 0 480 0 0 -480 0 -480 480 0 480 0 0 480 0 480 480 0 480 0 0 -480 0 -480 480 0 480 0 0 480 0 480 480 0 480 0 0 480 0 480 -480 0 -480 0 0 -480 0 -480 -480 0 -480 0 0 480 0 480 -480 0 -480 0 0 -480 0 -480 -480 0 -480 0 0 480 0 480 -480 0 -480 0 0 -480z"/>
<path d="M8640 960 l0 -960 960 0 960 0 0 480 0 480 -480 0 -480 0 0 480 0 480 -480 0 -480 0 0 -960z"/>
</g>
<script xmlns=""/></svg>