<?xml version="1.0" encoding="UTF-8" standalone="no"?>
<!DOCTYPE svg PUBLIC "-//W3C//DTD SVG 20010904//EN" "http://www.w3.org/TR/2001/REC-SVG-20010904/DTD/svg10.dtd">
<svg version="1.0" xmlns="http://www.w3.org/2000/svg" width="528.000000pt" height="121.000000pt" viewBox="0 0 528.000000 121.000000" preserveAspectRatio="xMidYMid meet">

<g transform="translate(0.000000,121.000000) scale(0.100000,-0.100000)" fill="#5B378B" stroke="none">
<path d="M880 1191 c-30 -10 -139 -59 -242 -110 -291 -144 -535 -316 -585 -414 -29 -58 -57 -196 -49 -241 4 -20 30 -59 71 -103 52 -57 81 -79 150 -113 103 -50 262 -87 415 -96 92 -6 108 -5 123 10 45 45 10 68 -106 72 -119 3 -301 44 -392 88 -67 32 -130 84 -163 134 -19 30 -9 137 19 197 43 92 266 248 566 396 198 98 208 102 290 108 57 5 87 11 93 21 39 62 -69 91 -190 51z"/>
<path d="M3649 1158 c-9 -17 -9 -60 1 -185 l12 -163 -27 -32 c-14 -17 -37 -40 -51 -50 -26 -21 -32 -66 -12 -86 18 -18 32 -15 64 15 l29 27 7 -40 c4 -21 7 -104 7 -184 1 -115 4 -150 17 -168 18 -26 37 -28 58 -6 20 20 22 172 4 351 l-12 123 35 36 c18 20 102 99 184 176 83 77 154 149 159 159 11 24 -9 49 -39 49 -15 0 -75 -49 -183 -150 l-160 -149 -7 137 c-4 75 -12 143 -17 150 -17 20 -56 14 -69 -10z"/>
<path d="M3058 1110 c-105 -10 -118 -15 -160 -54 l-38 -35 0 -328 c0 -281 2 -332 16 -351 18 -26 37 -28 58 -6 13 13 16 46 16 208 l0 193 23 -4 c12 -2 76 14 142 35 226 75 354 149 371 216 10 39 -7 86 -39 110 -25 19 -43 21 -170 22 -78 1 -177 -2 -219 -6z m342 -96 c0 -22 -33 -49 -110 -88 -64 -33 -245 -97 -307 -109 l-33 -6 0 82 c0 53 5 90 13 101 18 24 92 33 285 35 133 1 152 -1 152 -15z"/>
<path d="M1995 945 c-33 -14 -71 -33 -85 -43 -14 -10 -46 -28 -72 -40 -63 -27 -82 -58 -76 -122 6 -57 23 -80 104 -140 50 -38 66 -43 269 -87 39 -8 76 -17 84 -19 21 -7 -63 -56 -134 -78 -33 -11 -85 -29 -115 -42 -30 -12 -90 -25 -133 -29 -59 -5 -84 -12 -99 -27 -18 -18 -18 -22 -5 -41 14 -20 22 -22 88 -19 158 7 484 145 509 215 22 64 3 89 -75 101 -42 7 -139 28 -241 53 -34 8 -84 29 -110 46 -41 27 -49 38 -52 67 -3 34 0 37 47 60 27 14 73 37 103 52 29 15 65 29 80 32 38 8 47 44 18 68 -28 23 -33 23 -105 -7z"/>
<path d="M1505 921 c-88 -49 -171 -134 -181 -186 -9 -51 2 -134 21 -155 17 -19 25 -21 223 -67 119 -27 140 -37 105 -50 -10 -3 -52 -25 -93 -48 -41 -23 -103 -49 -137 -58 -86 -23 -173 -45 -205 -52 -40 -8 -52 -37 -29 -66 l19 -24 133 33 c142 35 338 120 392 170 60 57 21 141 -75 156 -23 4 -81 18 -128 32 -46 13 -97 24 -112 24 -27 0 -28 2 -28 54 0 52 2 55 53 102 29 27 79 61 109 76 59 29 79 58 58 83 -20 24 -50 18 -125 -24z"/>
<path d="M5155 879 c-75 -102 -98 -143 -120 -211 -15 -46 -41 -112 -70 -183 -10 -23 -22 64 -24 172 -1 52 -4 64 -22 73 -11 7 -27 9 -34 6 -7 -2 -34 -49 -60 -103 -58 -121 -124 -223 -182 -284 -51 -53 -56 -91 -14 -97 40 -6 127 92 207 235 16 29 32 53 37 53 4 0 7 -35 7 -77 0 -97 14 -127 58 -131 18 -2 39 2 47 8 7 6 30 57 50 113 21 56 41 107 45 112 4 6 15 35 24 65 19 68 59 136 126 218 59 73 64 105 15 110 -27 2 -36 -5 -90 -79z"/>
<path d="M3430 871 c-6 -12 -7 -50 -3 -96 7 -87 -10 -175 -38 -201 -22 -20 -106 -15 -121 7 -5 8 -7 37 -4 65 5 57 -5 74 -41 74 -61 0 -73 -132 -17 -191 41 -44 76 -59 132 -59 36 0 59 7 86 25 l36 24 0 -140 c0 -120 -3 -147 -21 -187 -29 -67 -69 -95 -140 -100 -53 -4 -61 -2 -96 27 -20 17 -44 46 -53 63 -20 43 -64 51 -81 15 -16 -35 7 -73 84 -141 61 -53 67 -56 118 -56 80 0 126 17 176 63 82 75 103 149 102 345 -1 163 -29 443 -48 465 -18 23 -58 21 -71 -2z"/>
<path d="M3890 851 c-6 -12 -10 -113 -10 -258 0 -200 3 -242 16 -261 32 -46 66 -21 134 100 33 61 115 158 132 158 5 0 8 -45 7 -114 -3 -100 -1 -118 16 -135 22 -25 38 -26 60 -4 15 14 17 35 13 156 -3 138 -4 139 -31 163 -16 13 -37 24 -48 24 -49 0 -120 -55 -186 -145 l-22 -30 -1 171 c0 118 -4 174 -12 182 -18 18 -56 14 -68 -7z"/>
<path d="M1030 761 c-8 -5 -37 -12 -63 -15 -88 -13 -136 -73 -187 -230 -66 -204 -19 -298 130 -256 36 10 86 61 142 144 l28 41 0 -90 c0 -97 14 -135 50 -135 32 0 48 27 60 100 11 62 10 73 -4 89 -13 14 -16 42 -16 144 0 78 5 136 12 153 11 23 10 28 -11 45 -25 20 -112 26 -141 10z m50 -101 c0 -34 -45 -134 -89 -196 -67 -96 -95 -124 -124 -124 -26 0 -27 3 -27 48 0 73 50 211 89 246 10 9 42 20 70 25 28 4 54 11 58 15 12 12 23 6 23 -14z"/>
<path d="M4369 678 c-63 -67 -82 -111 -87 -204 l-4 -82 42 -46 43 -46 75 0 c65 0 81 4 129 31 67 39 80 58 89 136 5 52 3 70 -14 106 -35 74 -135 147 -201 147 -24 0 -41 -10 -72 -42z m146 -84 c48 -39 60 -72 50 -134 -9 -54 -43 -72 -128 -68 l-62 3 -3 40 c-6 75 7 126 43 162 18 18 38 33 45 33 6 0 31 -16 55 -36z"/>
</g>
<script xmlns=""/><script xmlns=""/></svg>