<?xml version="1.0" encoding="UTF-8"?>
<!DOCTYPE svg  PUBLIC '-//W3C//DTD SVG 1.1//EN'  'http://www.w3.org/Graphics/SVG/1.1/DTD/svg11.dtd'>
<svg clip-rule="evenodd" fill-rule="evenodd" stroke-linecap="round" stroke-linejoin="round" stroke-miterlimit="1.5" version="1.1" viewBox="0 0 32 32" xml:space="preserve" xmlns="http://www.w3.org/2000/svg">
<metadata>
<rdf:RDF xmlns:cc="http://web.resource.org/cc/" xmlns:dc="http://purl.org/dc/elements/1.1/" xmlns:rdf="http://www.w3.org/1999/02/22-rdf-syntax-ns#">

     <rdf:Description rdf:about="">
       <dc:title>Mutant Standard emoji 2023.12</dc:title>
     </rdf:Description>

    <cc:work rdf:about="">
        <cc:license rdf:resource="http://creativecommons.org/licenses/by-nc-sa/4.0/"/>
        <cc:attributionName>Caius Nocturne</cc:attributionName>
        <cc:attributionURL>http://mutant.tech/</cc:attributionURL>
    </cc:work>

</rdf:RDF>
</metadata>
<rect id="blue_potion" width="32" height="32" fill="none"/><clipPath id="_clip1"><rect width="32" height="32"/></clipPath><g clip-path="url(#_clip1)"><g id="outline" stroke="#000" stroke-width="4px"><path d="m12 5.5c0-0.133 0.053-0.26 0.146-0.354 0.094-0.093 0.221-0.146 0.354-0.146h7c0.133 0 0.26 0.053 0.354 0.146 0.093 0.094 0.146 0.221 0.146 0.354v1c0 0.133-0.053 0.26-0.146 0.354-0.094 0.093-0.221 0.146-0.354 0.146h-0.5v4s4.725 9.449 5.789 11.578c0.139 0.277 0.211 0.584 0.211 0.894v4.528c0 0.53-0.211 1.039-0.586 1.414s-0.884 0.586-1.414 0.586h-14c-0.53 0-1.039-0.211-1.414-0.586s-0.586-0.884-0.586-1.414v-4.528c0-0.31 0.072-0.617 0.211-0.894 1.064-2.129 5.789-11.578 5.789-11.578v-4h-0.5c-0.133 0-0.26-0.053-0.354-0.146-0.093-0.094-0.146-0.221-0.146-0.354v-1z"/><rect x="14" y="2" width="4" height="5" fill="#63401e"/></g><g id="emoji"><path d="m12 5.5c0-0.133 0.053-0.26 0.146-0.354 0.094-0.093 0.221-0.146 0.354-0.146h7c0.133 0 0.26 0.053 0.354 0.146 0.093 0.094 0.146 0.221 0.146 0.354v1c0 0.133-0.053 0.26-0.146 0.354-0.094 0.093-0.221 0.146-0.354 0.146h-0.5v4s4.725 9.449 5.789 11.578c0.139 0.277 0.211 0.584 0.211 0.894v4.528c0 0.53-0.211 1.039-0.586 1.414s-0.884 0.586-1.414 0.586h-14c-0.53 0-1.039-0.211-1.414-0.586s-0.586-0.884-0.586-1.414v-4.528c0-0.31 0.072-0.617 0.211-0.894 1.064-2.129 5.789-11.578 5.789-11.578v-4h-0.5c-0.133 0-0.26-0.053-0.354-0.146-0.093-0.094-0.146-0.221-0.146-0.354v-1z" fill="#d8d8d8"/><clipPath id="_clip2"><path d="m12 5.5c0-0.133 0.053-0.26 0.146-0.354 0.094-0.093 0.221-0.146 0.354-0.146h7c0.133 0 0.26 0.053 0.354 0.146 0.093 0.094 0.146 0.221 0.146 0.354v1c0 0.133-0.053 0.26-0.146 0.354-0.094 0.093-0.221 0.146-0.354 0.146h-0.5v4s4.725 9.449 5.789 11.578c0.139 0.277 0.211 0.584 0.211 0.894v4.528c0 0.53-0.211 1.039-0.586 1.414s-0.884 0.586-1.414 0.586h-14c-0.53 0-1.039-0.211-1.414-0.586s-0.586-0.884-0.586-1.414v-4.528c0-0.31 0.072-0.617 0.211-0.894 1.064-2.129 5.789-11.578 5.789-11.578v-4h-0.5c-0.133 0-0.26-0.053-0.354-0.146-0.093-0.094-0.146-0.221-0.146-0.354v-1z"/></clipPath><g clip-path="url(#_clip2)"><rect x="6" y="13" width="21" height="18" fill="#30bfdb"/><rect x="6" y="12" width="21" height="3" fill="#72d3e7"/><path d="m16 10.399c0 0.398-0.06 0.795-0.177 1.176-0.677 2.2-3.096 10.062-3.69 11.994-0.088 0.286-0.133 0.583-0.133 0.882v6.549h-7v-24h11v3.399z" fill="#fff" fill-opacity=".49412"/></g><path d="m19.5 5 0.025 1e-3 0.024 1e-3 0.025 3e-3 0.048 0.01 0.023 7e-3 0.024 7e-3 0.022 9e-3 0.023 0.01 0.021 0.011 0.022 0.012 0.02 0.013 0.02 0.014 0.02 0.015 0.019 0.016 0.018 0.017 0.017 0.018 0.016 0.019 0.015 0.02 0.014 0.02 0.013 0.02 0.012 0.022 0.011 0.021 0.01 0.023 9e-3 0.022 7e-3 0.024 7e-3 0.023 0.01 0.048 3e-3 0.025 1e-3 0.024 1e-3 0.025v1l-1e-3 0.025-1e-3 0.024-3e-3 0.025-0.01 0.048-7e-3 0.023-7e-3 0.024-9e-3 0.022-0.01 0.023-0.011 0.021-0.012 0.022-0.013 0.02-0.014 0.02-0.015 0.02-0.016 0.019-0.017 0.018-0.018 0.017-0.019 0.016-0.02 0.015-0.02 0.014-0.02 0.013-0.022 0.012-0.021 0.011-0.023 0.01-0.022 9e-3 -0.024 7e-3 -0.023 7e-3 -0.048 0.01-0.025 3e-3 -0.024 1e-3 -0.025 1e-3h-0.5v4l5.789 11.578 0.025 0.052 0.024 0.053 0.022 0.054 0.02 0.054 0.019 0.055 0.018 0.055 0.03 0.112 0.012 0.056 0.011 0.057 9e-3 0.057 8e-3 0.057 0.01 0.116 2e-3 0.058 1e-3 0.058v4.528l-1e-3 0.05-1e-3 0.049-4e-3 0.05-4e-3 0.049-5e-3 0.049-7e-3 0.048-8e-3 0.049-9e-3 0.048-0.01 0.048-0.011 0.048-0.026 0.094-0.015 0.046-0.016 0.046-0.017 0.046-0.018 0.045-0.019 0.045-0.021 0.045-0.021 0.043-0.023 0.044-0.023 0.043-0.05 0.084-0.027 0.041-0.056 0.08-0.03 0.039-0.031 0.039-0.064 0.074-0.034 0.037-0.07 0.07-0.037 0.034-0.074 0.064-0.039 0.031-0.039 0.03-0.08 0.056-0.041 0.027-0.084 0.05-0.043 0.023-0.044 0.023-0.043 0.021-0.045 0.021-0.045 0.019-0.045 0.018-0.046 0.017-0.046 0.016-0.046 0.015-0.047 0.013-0.048 0.013-0.047 0.011-0.048 0.01-0.048 9e-3 -0.049 8e-3 -0.048 7e-3 -0.049 5e-3 -0.049 4e-3 -0.05 4e-3 -0.049 1e-3 -0.05 1e-3h-14l-0.05-1e-3 -0.049-1e-3 -0.05-4e-3 -0.049-4e-3 -0.049-5e-3 -0.048-7e-3 -0.049-8e-3 -0.048-9e-3 -0.048-0.01-0.047-0.011-0.048-0.013-0.047-0.013-0.046-0.015-0.046-0.016-0.046-0.017-0.045-0.018-0.045-0.019-0.045-0.021-0.043-0.021-0.044-0.023-0.043-0.023-0.084-0.05-0.041-0.027-0.08-0.056-0.039-0.03-0.039-0.031-0.074-0.064-0.037-0.034-0.07-0.07-0.034-0.037-0.064-0.074-0.031-0.039-0.03-0.039-0.056-0.08-0.027-0.041-0.05-0.084-0.023-0.043-0.023-0.044-0.021-0.043-0.021-0.045-0.019-0.045-0.018-0.045-0.017-0.046-0.016-0.046-0.015-0.046-0.026-0.094-0.011-0.048-0.01-0.048-9e-3 -0.048-8e-3 -0.049-7e-3 -0.048-5e-3 -0.049-4e-3 -0.049-4e-3 -0.05-1e-3 -0.049-1e-3 -0.05v-4.528l1e-3 -0.058 2e-3 -0.058 0.01-0.116 8e-3 -0.057 9e-3 -0.057 0.011-0.057 0.012-0.056 0.03-0.112 0.018-0.055 0.019-0.055 0.02-0.054 0.022-0.054 0.024-0.053 0.025-0.052 5.789-11.578v-4h-0.5l-0.025-1e-3 -0.024-1e-3 -0.025-3e-3 -0.048-0.01-0.023-7e-3 -0.024-7e-3 -0.022-9e-3 -0.023-0.01-0.021-0.011-0.022-0.012-0.02-0.013-0.02-0.014-0.02-0.015-0.019-0.016-0.018-0.017-0.017-0.018-0.016-0.019-0.015-0.02-0.014-0.02-0.013-0.02-0.012-0.022-0.011-0.021-0.01-0.023-9e-3 -0.022-7e-3 -0.024-7e-3 -0.023-0.01-0.048-3e-3 -0.025-1e-3 -0.024-1e-3 -0.025v-1l1e-3 -0.025 1e-3 -0.024 3e-3 -0.025 0.01-0.048 7e-3 -0.023 7e-3 -0.024 9e-3 -0.022 0.01-0.023 0.011-0.021 0.012-0.022 0.013-0.02 0.014-0.02 0.015-0.02 0.016-0.019 0.017-0.018 0.018-0.017 0.019-0.016 0.02-0.015 0.02-0.014 0.02-0.013 0.022-0.012 0.021-0.011 0.023-0.01 0.022-9e-3 0.024-7e-3 0.023-7e-3 0.048-0.01 0.025-3e-3 0.024-1e-3 0.025-1e-3h7zm-6.5 1 0.098 5e-3 0.097 0.014 0.095 0.024 0.093 0.033 0.088 0.042 0.085 0.051 0.078 0.058 0.073 0.066 0.066 0.073 0.058 0.078 0.051 0.085 0.042 0.088 0.033 0.093 0.024 0.095 0.014 0.097 5e-3 0.098v4l-4e-3 0.093-0.013 0.091-0.021 0.091-0.03 0.087-0.038 0.085-5.785 11.571-0.016 0.033-0.012 0.027-0.011 0.027-0.02 0.054-8e-3 0.028-8e-3 0.027-7e-3 0.028-6e-3 0.029-6e-3 0.028-4e-3 0.029-4e-3 0.028-3e-3 0.029-2e-3 0.029-1e-3 0.029-1e-3 0.036v4.515 0.031l1e-3 0.025 2e-3 0.024 2e-3 0.025 3e-3 0.024 3e-3 0.025 8e-3 0.048 6e-3 0.024 5e-3 0.024 6e-3 0.023 7e-3 0.024 0.024 0.069 9e-3 0.023 0.02 0.044 0.022 0.044 0.024 0.042 0.026 0.042 0.028 0.04 0.015 0.019 0.015 0.02 0.016 0.019 0.051 0.054 0.054 0.051 0.019 0.016 0.02 0.015 0.019 0.015 0.04 0.028 0.042 0.026 0.042 0.024 0.044 0.022 0.044 0.02 0.023 9e-3 0.069 0.024 0.024 7e-3 0.023 6e-3 0.024 5e-3 0.024 6e-3 0.048 8e-3 0.025 3e-3 0.024 3e-3 0.025 2e-3 0.024 2e-3 0.025 1e-3h0.031 13.988 0.031l0.025-1e-3 0.024-2e-3 0.025-2e-3 0.024-3e-3 0.025-3e-3 0.048-8e-3 0.024-6e-3 0.024-5e-3 0.023-6e-3 0.024-7e-3 0.069-0.024 0.023-9e-3 0.044-0.02 0.044-0.022 0.042-0.024 0.042-0.026 0.04-0.028 0.019-0.015 0.02-0.015 0.019-0.016 0.054-0.051 0.051-0.054 0.016-0.019 0.015-0.02 0.015-0.019 0.028-0.04 0.026-0.042 0.024-0.042 0.022-0.044 0.02-0.044 9e-3 -0.023 0.024-0.069 7e-3 -0.024 6e-3 -0.023 5e-3 -0.024 6e-3 -0.024 8e-3 -0.048 3e-3 -0.025 3e-3 -0.024 2e-3 -0.025 2e-3 -0.024 1e-3 -0.025v-0.031-4.515l-1e-3 -0.036-1e-3 -0.029-2e-3 -0.029-3e-3 -0.029-4e-3 -0.028-4e-3 -0.029-6e-3 -0.028-6e-3 -0.029-7e-3 -0.028-8e-3 -0.027-8e-3 -0.028-0.02-0.054-0.011-0.027-0.012-0.027-0.016-0.033-5.785-11.571-0.038-0.085-0.03-0.087-0.021-0.091-0.013-0.091-4e-3 -0.093v-4l5e-3 -0.098 0.014-0.097 0.024-0.095 0.033-0.093 0.042-0.088 0.051-0.085 0.058-0.078 0.066-0.073 0.073-0.066 0.078-0.058 0.085-0.051 0.088-0.042 0.093-0.033 0.095-0.024 0.097-0.014 0.098-5e-3h-6z" fill="#d8d8d8"/><rect x="14" y="2" width="4" height="4" fill="#63401e"/></g></g></svg>
