<?xml version="1.0" encoding="UTF-8"?>
<!DOCTYPE svg  PUBLIC '-//W3C//DTD SVG 1.1//EN'  'http://www.w3.org/Graphics/SVG/1.1/DTD/svg11.dtd'>
<svg clip-rule="evenodd" fill-rule="evenodd" stroke-linecap="round" stroke-linejoin="round" stroke-miterlimit="1.5" version="1.1" viewBox="0 0 32 32" xml:space="preserve" xmlns="http://www.w3.org/2000/svg">
<metadata>
<rdf:RDF xmlns:cc="http://web.resource.org/cc/" xmlns:dc="http://purl.org/dc/elements/1.1/" xmlns:rdf="http://www.w3.org/1999/02/22-rdf-syntax-ns#">

     <rdf:Description rdf:about="">
       <dc:title>Mutant Standard emoji 2023.12</dc:title>
     </rdf:Description>

    <cc:work rdf:about="">
        <cc:license rdf:resource="http://creativecommons.org/licenses/by-nc-sa/4.0/"/>
        <cc:attributionName>Caius Nocturne</cc:attributionName>
        <cc:attributionURL>http://mutant.tech/</cc:attributionURL>
    </cc:work>

</rdf:RDF>
</metadata>
<rect id="pink_potion" width="32" height="32" fill="none"/><clipPath id="_clip1"><rect width="32" height="32"/></clipPath><g clip-path="url(#_clip1)"><g id="outline" stroke="#000" stroke-width="4px"><path d="m12 5.5c0-0.133 0.053-0.26 0.146-0.354 0.094-0.093 0.221-0.146 0.354-0.146h7c0.133 0 0.26 0.053 0.354 0.146 0.093 0.094 0.146 0.221 0.146 0.354v1c0 0.133-0.053 0.26-0.146 0.354-0.094 0.093-0.221 0.146-0.354 0.146h-0.5v3.839c0 0.718 0.385 1.381 1.008 1.737 0.441 0.252 0.991 0.566 1.578 0.902 2.73 1.559 4.414 4.462 4.414 7.606v0.832c0 2.144-0.852 4.2-2.368 5.716s-3.572 2.368-5.716 2.368h-3.832c-2.144 0-4.2-0.852-5.716-2.368s-2.368-3.572-2.368-5.716v-0.832c0-3.144 1.684-6.047 4.414-7.606 0.587-0.336 1.137-0.65 1.578-0.902 0.623-0.356 1.008-1.019 1.008-1.737v-3.839h-0.5c-0.133 0-0.26-0.053-0.354-0.146-0.093-0.094-0.146-0.221-0.146-0.354v-1z"/><rect x="14" y="2" width="4" height="5" fill="#63401e"/></g><g id="emoji"><path d="m12 5.5c0-0.133 0.053-0.26 0.146-0.354 0.094-0.093 0.221-0.146 0.354-0.146h7c0.133 0 0.26 0.053 0.354 0.146 0.093 0.094 0.146 0.221 0.146 0.354v1c0 0.133-0.053 0.26-0.146 0.354-0.094 0.093-0.221 0.146-0.354 0.146h-0.5v3.839c0 0.718 0.385 1.381 1.008 1.737 0.441 0.252 0.991 0.566 1.578 0.902 2.73 1.559 4.414 4.462 4.414 7.606v0.832c0 2.144-0.852 4.2-2.368 5.716s-3.572 2.368-5.716 2.368h-3.832c-2.144 0-4.2-0.852-5.716-2.368s-2.368-3.572-2.368-5.716v-0.832c0-3.144 1.684-6.047 4.414-7.606 0.587-0.336 1.137-0.65 1.578-0.902 0.623-0.356 1.008-1.019 1.008-1.737v-3.839h-0.5c-0.133 0-0.26-0.053-0.354-0.146-0.093-0.094-0.146-0.221-0.146-0.354v-1z" fill="#d8d8d8"/><clipPath id="_clip2"><path d="m12 5.5c0-0.133 0.053-0.26 0.146-0.354 0.094-0.093 0.221-0.146 0.354-0.146h7c0.133 0 0.26 0.053 0.354 0.146 0.093 0.094 0.146 0.221 0.146 0.354v1c0 0.133-0.053 0.26-0.146 0.354-0.094 0.093-0.221 0.146-0.354 0.146h-0.5v3.839c0 0.718 0.385 1.381 1.008 1.737 0.441 0.252 0.991 0.566 1.578 0.902 2.73 1.559 4.414 4.462 4.414 7.606v0.832c0 2.144-0.852 4.2-2.368 5.716s-3.572 2.368-5.716 2.368h-3.832c-2.144 0-4.2-0.852-5.716-2.368s-2.368-3.572-2.368-5.716v-0.832c0-3.144 1.684-6.047 4.414-7.606 0.587-0.336 1.137-0.65 1.578-0.902 0.623-0.356 1.008-1.019 1.008-1.737v-3.839h-0.5c-0.133 0-0.26-0.053-0.354-0.146-0.093-0.094-0.146-0.221-0.146-0.354v-1z"/></clipPath><g clip-path="url(#_clip2)"><rect x="6" y="13" width="21" height="18" fill="#ff4586"/><rect x="6" y="12" width="21" height="3" fill="#ff8fb6"/><path d="m16 12c0 0.62-0.325 1.195-0.857 1.514-1e-3 1e-3 -1e-3 1e-3 -2e-3 1e-3 -2.569 1.542-4.141 4.318-4.141 7.315v0.503c0 2.938 1.383 5.704 3.734 7.467 0.167 0.126 0.266 0.2 0.266 0.2v2h-11v-24h12v5z" fill="#fff" fill-opacity=".49412"/></g><path d="m19.5 5 0.025 1e-3 0.024 1e-3 0.025 3e-3 0.048 0.01 0.023 7e-3 0.024 7e-3 0.022 9e-3 0.023 0.01 0.021 0.011 0.022 0.012 0.02 0.013 0.02 0.014 0.02 0.015 0.019 0.016 0.018 0.017 0.017 0.018 0.016 0.019 0.015 0.02 0.014 0.02 0.013 0.02 0.012 0.022 0.011 0.021 0.01 0.023 9e-3 0.022 7e-3 0.024 7e-3 0.023 0.01 0.048 3e-3 0.025 1e-3 0.024 1e-3 0.025v1l-1e-3 0.025-1e-3 0.024-3e-3 0.025-0.01 0.048-7e-3 0.023-7e-3 0.024-9e-3 0.022-0.01 0.023-0.011 0.021-0.012 0.022-0.013 0.02-0.014 0.02-0.015 0.02-0.016 0.019-0.017 0.018-0.018 0.017-0.019 0.016-0.02 0.015-0.02 0.014-0.02 0.013-0.022 0.012-0.021 0.011-0.023 0.01-0.022 9e-3 -0.024 7e-3 -0.023 7e-3 -0.048 0.01-0.025 3e-3 -0.024 1e-3 -0.025 1e-3h-0.5v3.839l1e-3 0.067 3e-3 0.067 6e-3 0.067 8e-3 0.065 0.01 0.066 0.012 0.065 0.014 0.064 0.016 0.063 0.018 0.063 0.02 0.062 0.022 0.062 0.025 0.06 0.026 0.06 0.028 0.059 0.029 0.057 0.032 0.057 0.034 0.056 0.035 0.054 0.037 0.054 0.039 0.052 0.041 0.051 0.042 0.05 0.044 0.048 0.045 0.047 0.048 0.046 0.048 0.044 0.051 0.042 0.052 0.041 0.053 0.04 0.055 0.038 0.056 0.036 0.058 0.034 1.578 0.902 0.127 0.074 0.126 0.076 0.124 0.078 0.123 0.08 0.12 0.081 0.12 0.084 0.117 0.085 0.116 0.087 0.115 0.089 0.113 0.091 0.111 0.092 0.109 0.094 0.108 0.096 0.106 0.098 0.104 0.099 0.102 0.1 0.101 0.102 0.099 0.104 0.097 0.105 0.095 0.107 0.094 0.108 0.091 0.11 0.09 0.11 0.088 0.113 0.086 0.114 0.084 0.115 0.083 0.116 0.08 0.118 0.078 0.119 0.077 0.12 0.074 0.121 0.073 0.123 0.07 0.123 0.069 0.125 0.066 0.126 0.064 0.127 0.063 0.128 0.06 0.13 0.058 0.13 0.056 0.131 0.054 0.132 0.052 0.133 0.05 0.134 0.047 0.135 0.045 0.135 0.044 0.137 0.04 0.137 0.039 0.138 0.037 0.139 0.034 0.14 0.032 0.14 0.03 0.141 0.027 0.142 0.025 0.142 0.023 0.143 0.02 0.143 0.018 0.144 0.016 0.145 0.013 0.145 0.011 0.145 9e-3 0.146 6e-3 0.147 4e-3 0.147 1e-3 0.147v0.832l-1e-3 0.101-1e-3 0.1-8e-3 0.2-6e-3 0.1-6e-3 0.099-8e-3 0.1-0.02 0.198-0.012 0.099-0.013 0.099-0.014 0.098-0.015 0.098-0.016 0.098-0.018 0.097-0.019 0.098-0.02 0.097-0.021 0.096-0.022 0.097-0.024 0.096-0.024 0.095-0.026 0.096-0.027 0.095-0.028 0.094-0.06 0.188-0.032 0.094-0.032 0.093-0.034 0.092-0.035 0.093-0.036 0.091-0.037 0.092-0.039 0.091-0.039 0.09-0.041 0.09-0.041 0.089-0.043 0.089-0.044 0.089-0.044 0.087-0.046 0.088-0.047 0.087-0.048 0.086-0.05 0.085-0.05 0.086-0.051 0.084-0.052 0.084-0.108 0.166-0.112 0.164-0.058 0.08-0.058 0.081-0.12 0.158-0.062 0.078-0.126 0.154-0.065 0.076-0.132 0.15-0.068 0.074-0.069 0.073-0.069 0.072-0.142 0.142-0.072 0.069-0.073 0.069-0.074 0.068-0.15 0.132-0.076 0.065-0.154 0.126-0.078 0.062-0.158 0.12-0.081 0.058-0.08 0.058-0.164 0.112-0.166 0.108-0.084 0.052-0.084 0.051-0.086 0.05-0.085 0.05-0.086 0.048-0.087 0.047-0.088 0.046-0.087 0.044-0.089 0.044-0.089 0.043-0.089 0.041-0.09 0.041-0.09 0.039-0.091 0.039-0.092 0.037-0.091 0.036-0.093 0.035-0.092 0.034-0.093 0.032-0.094 0.032-0.188 0.06-0.094 0.028-0.095 0.027-0.096 0.026-0.095 0.024-0.096 0.024-0.097 0.022-0.096 0.021-0.097 0.02-0.098 0.019-0.097 0.018-0.098 0.016-0.098 0.015-0.098 0.014-0.099 0.013-0.099 0.012-0.198 0.02-0.1 8e-3 -0.099 6e-3 -0.1 6e-3 -0.2 8e-3 -0.1 1e-3 -0.101 1e-3h-3.832l-0.101-1e-3 -0.1-1e-3 -0.2-8e-3 -0.1-6e-3 -0.099-6e-3 -0.1-8e-3 -0.198-0.02-0.099-0.012-0.099-0.013-0.098-0.014-0.098-0.015-0.098-0.016-0.097-0.018-0.098-0.019-0.097-0.02-0.096-0.021-0.097-0.022-0.096-0.024-0.095-0.024-0.096-0.026-0.095-0.027-0.094-0.028-0.188-0.06-0.094-0.032-0.093-0.032-0.092-0.034-0.093-0.035-0.091-0.036-0.092-0.037-0.091-0.039-0.09-0.039-0.09-0.041-0.089-0.041-0.089-0.043-0.089-0.044-0.087-0.044-0.088-0.046-0.087-0.047-0.086-0.048-0.085-0.05-0.086-0.05-0.084-0.051-0.084-0.052-0.166-0.108-0.164-0.112-0.08-0.058-0.081-0.058-0.158-0.12-0.078-0.062-0.154-0.126-0.076-0.065-0.15-0.132-0.074-0.068-0.073-0.069-0.072-0.069-0.142-0.142-0.069-0.072-0.069-0.073-0.068-0.074-0.132-0.15-0.065-0.076-0.126-0.154-0.062-0.078-0.12-0.158-0.058-0.081-0.058-0.08-0.112-0.164-0.108-0.166-0.052-0.084-0.051-0.084-0.05-0.086-0.05-0.085-0.048-0.086-0.047-0.087-0.046-0.088-0.044-0.087-0.044-0.089-0.043-0.089-0.041-0.089-0.041-0.09-0.039-0.09-0.039-0.091-0.037-0.092-0.036-0.091-0.035-0.093-0.034-0.092-0.032-0.093-0.032-0.094-0.06-0.188-0.028-0.094-0.027-0.095-0.026-0.096-0.024-0.095-0.024-0.096-0.022-0.097-0.021-0.096-0.02-0.097-0.019-0.098-0.018-0.097-0.016-0.098-0.015-0.098-0.014-0.098-0.013-0.099-0.012-0.099-0.02-0.198-8e-3 -0.1-6e-3 -0.099-6e-3 -0.1-8e-3 -0.2-1e-3 -0.1-1e-3 -0.101v-0.832l1e-3 -0.147 4e-3 -0.147 6e-3 -0.147 9e-3 -0.146 0.011-0.145 0.013-0.145 0.016-0.145 0.018-0.144 0.02-0.143 0.023-0.143 0.025-0.142 0.027-0.142 0.03-0.141 0.032-0.14 0.034-0.14 0.037-0.139 0.039-0.138 0.04-0.137 0.044-0.137 0.045-0.135 0.047-0.135 0.05-0.134 0.052-0.133 0.054-0.132 0.056-0.131 0.058-0.13 0.06-0.13 0.063-0.128 0.064-0.127 0.066-0.126 0.069-0.125 0.07-0.123 0.073-0.123 0.074-0.121 0.077-0.12 0.078-0.119 0.08-0.118 0.083-0.116 0.084-0.115 0.086-0.114 0.088-0.113 0.09-0.11 0.091-0.11 0.094-0.108 0.095-0.107 0.097-0.105 0.099-0.104 0.101-0.102 0.102-0.1 0.104-0.099 0.106-0.098 0.108-0.096 0.109-0.094 0.111-0.092 0.113-0.091 0.115-0.089 0.116-0.087 0.117-0.085 0.12-0.084 0.12-0.081 0.123-0.08 0.124-0.078 0.126-0.076 0.127-0.074 1.578-0.902 0.058-0.034 0.056-0.036 0.055-0.038 0.053-0.04 0.052-0.041 0.051-0.042 0.048-0.044 0.048-0.046 0.045-0.047 0.044-0.048 0.042-0.05 0.041-0.051 0.039-0.052 0.037-0.054 0.035-0.054 0.034-0.056 0.032-0.057 0.029-0.057 0.028-0.059 0.026-0.06 0.025-0.06 0.022-0.062 0.02-0.062 0.018-0.063 0.016-0.063 0.014-0.064 0.012-0.065 0.01-0.066 8e-3 -0.065 6e-3 -0.067 3e-3 -0.067 1e-3 -0.067v-3.839h-0.5l-0.025-1e-3 -0.024-1e-3 -0.025-3e-3 -0.048-0.01-0.023-7e-3 -0.024-7e-3 -0.022-9e-3 -0.023-0.01-0.021-0.011-0.022-0.012-0.02-0.013-0.02-0.014-0.02-0.015-0.019-0.016-0.018-0.017-0.017-0.018-0.016-0.019-0.015-0.02-0.014-0.02-0.013-0.02-0.012-0.022-0.011-0.021-0.01-0.023-9e-3 -0.022-7e-3 -0.024-7e-3 -0.023-0.01-0.048-3e-3 -0.025-1e-3 -0.024-1e-3 -0.025v-1l1e-3 -0.025 1e-3 -0.024 3e-3 -0.025 0.01-0.048 7e-3 -0.023 7e-3 -0.024 9e-3 -0.022 0.01-0.023 0.011-0.021 0.012-0.022 0.013-0.02 0.014-0.02 0.015-0.02 0.016-0.019 0.017-0.018 0.018-0.017 0.019-0.016 0.02-0.015 0.02-0.014 0.02-0.013 0.022-0.012 0.021-0.011 0.023-0.01 0.022-9e-3 0.024-7e-3 0.023-7e-3 0.048-0.01 0.025-3e-3 0.024-1e-3 0.025-1e-3h7zm-6.5 1 0.098 5e-3 0.097 0.014 0.095 0.024 0.093 0.033 0.088 0.042 0.085 0.051 0.078 0.058 0.073 0.066 0.066 0.073 0.058 0.078 0.051 0.085 0.042 0.088 0.033 0.093 0.024 0.095 0.014 0.097 5e-3 0.098v3.848l-2e-3 0.092-5e-3 0.1-8e-3 0.099-0.011 0.099-0.015 0.098-0.018 0.098-0.021 0.096-0.025 0.095-0.027 0.095-0.03 0.093-0.034 0.092-0.036 0.091-0.039 0.089-0.042 0.088-0.045 0.087-0.047 0.085-0.05 0.084-0.053 0.082-0.056 0.08-0.058 0.078-0.061 0.077-0.064 0.074-0.066 0.073-0.068 0.07-0.071 0.069-0.073 0.066-0.076 0.064-0.077 0.061-0.08 0.059-0.083 0.057-0.084 0.054-0.079 0.047-1.582 0.904-0.117 0.068-0.111 0.067-0.11 0.069-0.108 0.071-0.108 0.072-0.105 0.074-0.105 0.076-0.102 0.077-0.102 0.079-0.099 0.08-0.099 0.082-0.097 0.083-0.095 0.085-0.094 0.086-0.092 0.088-0.091 0.089-0.089 0.091-0.088 0.091-0.086 0.093-0.084 0.095-0.083 0.096-0.081 0.097-0.08 0.098-0.078 0.1-0.076 0.1-0.074 0.102-0.073 0.103-0.071 0.105-0.07 0.105-0.068 0.107-0.065 0.107-0.065 0.109-0.062 0.109-0.061 0.111-0.059 0.112-0.057 0.112-0.055 0.114-0.053 0.114-0.052 0.115-0.049 0.116-0.048 0.117-0.046 0.118-0.044 0.119-0.042 0.119-0.04 0.121-0.039 0.121-0.036 0.121-0.034 0.122-0.032 0.123-0.031 0.124-0.028 0.124-0.026 0.125-0.025 0.126-0.022 0.126-0.02 0.126-0.018 0.127-0.016 0.128-0.014 0.128-0.012 0.128-0.01 0.129-7e-3 0.129-6e-3 0.13-3e-3 0.13-1e-3 0.135v0.825l1e-3 0.091 1e-3 0.088 3e-3 0.088 4e-3 0.087 5e-3 0.088 6e-3 0.087 7e-3 0.087 8e-3 0.087 9e-3 0.087 0.01 0.087 0.011 0.086 0.026 0.172 0.014 0.086 0.016 0.085 0.016 0.086 0.018 0.084 0.018 0.085 0.02 0.085 0.042 0.168 0.023 0.083 0.048 0.166 0.026 0.083 0.054 0.164 0.029 0.082 0.029 0.081 0.031 0.081 0.064 0.16 0.034 0.08 0.034 0.079 0.036 0.079 0.036 0.078 0.038 0.078 0.038 0.077 0.039 0.077 0.041 0.077 0.041 0.076 0.042 0.075 0.043 0.076 0.044 0.074 0.045 0.074 0.046 0.074 0.047 0.073 0.047 0.072 0.098 0.144 0.051 0.07 0.051 0.071 0.052 0.069 0.053 0.069 0.054 0.069 0.055 0.068 0.056 0.067 0.114 0.132 0.059 0.066 0.059 0.064 0.06 0.064 0.061 0.064 0.124 0.124 0.064 0.061 0.064 0.06 0.064 0.059 0.066 0.059 0.132 0.114 0.067 0.056 0.068 0.055 0.069 0.054 0.069 0.053 0.069 0.052 0.071 0.051 0.07 0.051 0.144 0.098 0.072 0.047 0.073 0.047 0.074 0.046 0.074 0.045 0.074 0.044 0.075 0.043 0.076 0.042 0.076 0.041 0.077 0.041 0.077 0.039 0.077 0.038 0.078 0.038 0.078 0.036 0.079 0.036 0.079 0.034 0.08 0.034 0.16 0.064 0.081 0.031 0.081 0.029 0.082 0.029 0.164 0.054 0.083 0.026 0.166 0.048 0.083 0.023 0.168 0.042 0.085 0.02 0.084 0.018 0.085 0.018 0.086 0.016 0.085 0.016 0.086 0.014 0.172 0.026 0.086 0.011 0.087 0.01 0.087 9e-3 0.087 8e-3 0.087 7e-3 0.087 6e-3 0.088 5e-3 0.087 4e-3 0.088 3e-3 0.088 1e-3 0.091 1e-3h3.826l0.091-1e-3 0.088-1e-3 0.088-3e-3 0.087-4e-3 0.088-5e-3 0.087-6e-3 0.087-7e-3 0.087-8e-3 0.087-9e-3 0.087-0.01 0.086-0.011 0.172-0.026 0.086-0.014 0.085-0.016 0.086-0.016 0.085-0.018 0.084-0.018 0.085-0.02 0.168-0.042 0.083-0.023 0.166-0.048 0.083-0.026 0.164-0.054 0.082-0.029 0.081-0.029 0.081-0.031 0.16-0.064 0.08-0.034 0.079-0.034 0.079-0.036 0.078-0.036 0.078-0.038 0.077-0.038 0.077-0.039 0.077-0.041 0.076-0.041 0.076-0.042 0.075-0.043 0.074-0.044 0.074-0.045 0.074-0.046 0.073-0.047 0.072-0.047 0.144-0.098 0.07-0.051 0.071-0.051 0.069-0.052 0.069-0.053 0.069-0.054 0.068-0.055 0.067-0.056 0.132-0.114 0.066-0.059 0.064-0.059 0.064-0.06 0.064-0.061 0.124-0.124 0.061-0.064 0.06-0.064 0.059-0.064 0.059-0.066 0.114-0.132 0.056-0.067 0.055-0.068 0.054-0.069 0.053-0.069 0.052-0.069 0.051-0.071 0.051-0.07 0.098-0.144 0.047-0.072 0.047-0.073 0.046-0.074 0.045-0.074 0.044-0.074 0.043-0.076 0.042-0.075 0.041-0.076 0.041-0.077 0.039-0.077 0.038-0.077 0.038-0.078 0.036-0.078 0.036-0.079 0.034-0.079 0.034-0.08 0.064-0.16 0.031-0.081 0.029-0.081 0.029-0.082 0.054-0.164 0.026-0.083 0.048-0.166 0.023-0.083 0.042-0.168 0.02-0.085 0.018-0.085 0.018-0.084 0.016-0.086 0.016-0.085 0.014-0.086 0.026-0.172 0.011-0.086 0.01-0.087 9e-3 -0.087 8e-3 -0.087 7e-3 -0.087 6e-3 -0.087 5e-3 -0.088 4e-3 -0.087 3e-3 -0.088 1e-3 -0.088 1e-3 -0.091v-0.825l-1e-3 -0.135-3e-3 -0.13-6e-3 -0.13-7e-3 -0.129-0.01-0.129-0.012-0.128-0.014-0.128-0.016-0.128-0.018-0.127-0.02-0.126-0.022-0.126-0.025-0.126-0.026-0.125-0.028-0.124-0.031-0.124-0.032-0.123-0.034-0.122-0.036-0.121-0.039-0.121-0.04-0.121-0.042-0.119-0.044-0.119-0.046-0.118-0.048-0.117-0.049-0.116-0.052-0.115-0.053-0.114-0.055-0.114-0.057-0.112-0.059-0.112-0.061-0.111-0.062-0.109-0.065-0.109-0.065-0.107-0.068-0.107-0.07-0.105-0.071-0.105-0.073-0.103-0.074-0.102-0.076-0.1-0.078-0.1-0.08-0.098-0.081-0.097-0.083-0.096-0.084-0.095-0.086-0.093-0.088-0.091-0.089-0.091-0.091-0.089-0.092-0.088-0.094-0.086-0.095-0.085-0.097-0.083-0.099-0.082-0.099-0.08-0.102-0.079-0.102-0.077-0.105-0.076-0.105-0.074-0.108-0.072-0.108-0.071-0.11-0.069-0.111-0.067-0.117-0.068-1.582-0.904-0.079-0.047-0.084-0.054-0.083-0.057-0.08-0.059-0.077-0.061-0.076-0.064-0.073-0.066-0.071-0.069-0.068-0.07-0.066-0.073-0.064-0.074-0.061-0.077-0.058-0.078-0.056-0.08-0.053-0.082-0.05-0.084-0.047-0.085-0.045-0.087-0.042-0.088-0.039-0.089-0.036-0.091-0.034-0.092-0.03-0.093-0.027-0.095-0.025-0.095-0.021-0.096-0.018-0.098-0.015-0.098-0.011-0.099-8e-3 -0.099-5e-3 -0.1-2e-3 -0.092v-3.848l5e-3 -0.098 0.014-0.097 0.024-0.095 0.033-0.093 0.042-0.088 0.051-0.085 0.058-0.078 0.066-0.073 0.073-0.066 0.078-0.058 0.085-0.051 0.088-0.042 0.093-0.033 0.095-0.024 0.097-0.014 0.098-5e-3h-6z" fill="#d8d8d8"/><rect x="14" y="2" width="4" height="4" fill="#63401e"/></g></g></svg>
