<?xml version="1.0" encoding="UTF-8"?>
<!DOCTYPE svg  PUBLIC '-//W3C//DTD SVG 1.1//EN'  'http://www.w3.org/Graphics/SVG/1.1/DTD/svg11.dtd'>
<svg clip-rule="evenodd" fill-rule="evenodd" stroke-linecap="round" stroke-linejoin="round" stroke-miterlimit="1.5" version="1.1" viewBox="0 0 32 32" xml:space="preserve" xmlns="http://www.w3.org/2000/svg">
<metadata>
<rdf:RDF xmlns:cc="http://web.resource.org/cc/" xmlns:dc="http://purl.org/dc/elements/1.1/" xmlns:rdf="http://www.w3.org/1999/02/22-rdf-syntax-ns#">

     <rdf:Description rdf:about="">
       <dc:title>Mutant Standard emoji 2023.12</dc:title>
     </rdf:Description>

    <cc:work rdf:about="">
        <cc:license rdf:resource="http://creativecommons.org/licenses/by-nc-sa/4.0/"/>
        <cc:attributionName>Caius Nocturne</cc:attributionName>
        <cc:attributionURL>http://mutant.tech/</cc:attributionURL>
    </cc:work>

</rdf:RDF>
</metadata>
<rect id="purple_potion" width="32" height="32" fill="none"/><g id="outline" stroke="#000" stroke-width="4px"><path d="m12 5.5c0-0.133 0.053-0.26 0.146-0.354 0.094-0.093 0.221-0.146 0.354-0.146h7c0.133 0 0.26 0.053 0.354 0.146 0.093 0.094 0.146 0.221 0.146 0.354v1c0 0.133-0.053 0.26-0.146 0.354-0.094 0.093-0.221 0.146-0.354 0.146h-0.5v4l3.13 1.565c1.677 0.838 2.546 2.729 2.092 4.548-0.855 3.421-2.194 8.775-2.843 11.372-0.223 0.89-1.023 1.515-1.941 1.515h-6.876c-0.918 0-1.718-0.625-1.941-1.515-0.649-2.597-1.988-7.951-2.843-11.372-0.454-1.819 0.415-3.71 2.092-4.548l3.13-1.565v-4h-0.5c-0.133 0-0.26-0.053-0.354-0.146-0.093-0.094-0.146-0.221-0.146-0.354v-1z"/><rect x="14" y="2" width="4" height="5" fill="#63401e"/></g><g id="emoji"><path d="m12 5.5c0-0.133 0.053-0.26 0.146-0.354 0.094-0.093 0.221-0.146 0.354-0.146h7c0.133 0 0.26 0.053 0.354 0.146 0.093 0.094 0.146 0.221 0.146 0.354v1c0 0.133-0.053 0.26-0.146 0.354-0.094 0.093-0.221 0.146-0.354 0.146h-0.5v4l3.13 1.565c1.677 0.838 2.546 2.729 2.092 4.548-0.855 3.421-2.194 8.775-2.843 11.372-0.223 0.89-1.023 1.515-1.941 1.515h-6.876c-0.918 0-1.718-0.625-1.941-1.515-0.649-2.597-1.988-7.951-2.843-11.372-0.454-1.819 0.415-3.71 2.092-4.548l3.13-1.565v-4h-0.5c-0.133 0-0.26-0.053-0.354-0.146-0.093-0.094-0.146-0.221-0.146-0.354v-1z" fill="#d8d8d8"/><clipPath id="_clip1"><path d="m12 5.5c0-0.133 0.053-0.26 0.146-0.354 0.094-0.093 0.221-0.146 0.354-0.146h7c0.133 0 0.26 0.053 0.354 0.146 0.093 0.094 0.146 0.221 0.146 0.354v1c0 0.133-0.053 0.26-0.146 0.354-0.094 0.093-0.221 0.146-0.354 0.146h-0.5v4l3.13 1.565c1.677 0.838 2.546 2.729 2.092 4.548-0.855 3.421-2.194 8.775-2.843 11.372-0.223 0.89-1.023 1.515-1.941 1.515h-6.876c-0.918 0-1.718-0.625-1.941-1.515-0.649-2.597-1.988-7.951-2.843-11.372-0.454-1.819 0.415-3.71 2.092-4.548l3.13-1.565v-4h-0.5c-0.133 0-0.26-0.053-0.354-0.146-0.093-0.094-0.146-0.221-0.146-0.354v-1z"/></clipPath><g clip-path="url(#_clip1)"><rect x="6" y="13" width="21" height="18" fill="#982eee"/><rect x="6" y="12" width="21" height="3" fill="#b971f3"/><path d="m16 10.343c0 1.061-0.421 2.078-1.172 2.829l-1.395 1.395c-0.901 0.901-1.319 2.177-1.125 3.436 0.561 3.647 1.692 10.997 1.692 10.997v2h-6v-24h8v3.343z" fill="#fff" fill-opacity=".49412"/></g><path d="m19.5 5 0.025 1e-3 0.024 1e-3 0.025 3e-3 0.048 0.01 0.023 7e-3 0.024 7e-3 0.022 9e-3 0.023 0.01 0.021 0.011 0.022 0.012 0.02 0.013 0.02 0.014 0.02 0.015 0.019 0.016 0.018 0.017 0.017 0.018 0.016 0.019 0.015 0.02 0.014 0.02 0.013 0.02 0.012 0.022 0.011 0.021 0.01 0.023 9e-3 0.022 7e-3 0.024 7e-3 0.023 0.01 0.048 3e-3 0.025 1e-3 0.024 1e-3 0.025v1l-1e-3 0.025-1e-3 0.024-3e-3 0.025-0.01 0.048-7e-3 0.023-7e-3 0.024-9e-3 0.022-0.01 0.023-0.011 0.021-0.012 0.022-0.013 0.02-0.014 0.02-0.015 0.02-0.016 0.019-0.017 0.018-0.018 0.017-0.019 0.016-0.02 0.015-0.02 0.014-0.02 0.013-0.022 0.012-0.021 0.011-0.023 0.01-0.022 9e-3 -0.024 7e-3 -0.023 7e-3 -0.048 0.01-0.025 3e-3 -0.024 1e-3 -0.025 1e-3h-0.5v4l3.13 1.565 0.078 0.04 0.077 0.042 0.076 0.043 0.074 0.044 0.073 0.046 0.072 0.048 0.071 0.048 0.069 0.051 0.068 0.051 0.067 0.053 0.066 0.054 0.064 0.055 0.063 0.057 0.061 0.058 0.06 0.058 0.059 0.061 0.058 0.061 0.056 0.062 0.055 0.064 0.053 0.064 0.052 0.066 0.05 0.066 0.049 0.067 0.048 0.069 0.046 0.069 0.044 0.07 0.043 0.072 0.042 0.072 0.04 0.072 0.039 0.074 0.037 0.074 0.035 0.075 0.034 0.076 0.033 0.077 0.03 0.077 0.029 0.078 0.028 0.078 0.026 0.079 0.024 0.08 0.023 0.08 0.021 0.08 0.019 0.081 0.018 0.082 0.016 0.082 0.014 0.082 0.013 0.083 0.011 0.083 9e-3 0.084 7e-3 0.084 5e-3 0.084 4e-3 0.084 2e-3 0.085 1e-3 0.084-2e-3 0.085-4e-3 0.085-5e-3 0.086-7e-3 0.085-9e-3 0.085-0.011 0.086-0.012 0.085-0.015 0.086-0.016 0.085-0.019 0.086-0.02 0.085-2.843 11.372-0.011 0.042-0.012 0.041-0.012 0.04-0.014 0.041-0.014 0.04-0.03 0.078-0.017 0.039-0.017 0.038-0.018 0.038-0.019 0.037-0.019 0.036-0.021 0.037-0.02 0.035-0.022 0.036-0.022 0.034-0.023 0.035-0.048 0.066-0.025 0.033-0.026 0.032-0.026 0.031-0.054 0.062-0.028 0.029-0.029 0.03-0.058 0.056-0.062 0.054-0.031 0.026-0.064 0.05-0.066 0.048-0.068 0.044-0.035 0.022-0.035 0.02-0.072 0.04-0.037 0.018-0.036 0.018-0.038 0.017-0.037 0.016-0.038 0.016-0.039 0.015-0.039 0.013-0.039 0.014-0.039 0.012-0.04 0.012-0.08 0.02-0.041 0.01-0.041 8e-3 -0.082 0.014-0.042 6e-3 -0.042 5e-3 -0.042 4e-3 -0.042 3e-3 -0.086 4e-3h-0.043-6.876-0.043l-0.086-4e-3 -0.042-3e-3 -0.042-4e-3 -0.042-5e-3 -0.042-6e-3 -0.082-0.014-0.041-8e-3 -0.041-0.01-0.08-0.02-0.04-0.012-0.039-0.012-0.039-0.014-0.039-0.013-0.039-0.015-0.038-0.016-0.037-0.016-0.038-0.017-0.036-0.018-0.037-0.018-0.072-0.04-0.035-0.02-0.035-0.022-0.068-0.044-0.066-0.048-0.064-0.05-0.031-0.026-0.062-0.054-0.058-0.056-0.029-0.03-0.028-0.029-0.054-0.062-0.026-0.031-0.026-0.032-0.025-0.033-0.048-0.066-0.023-0.035-0.022-0.034-0.022-0.036-0.02-0.035-0.021-0.037-0.019-0.036-0.019-0.037-0.018-0.038-0.017-0.038-0.017-0.039-0.03-0.078-0.014-0.04-0.014-0.041-0.012-0.04-0.012-0.041-0.011-0.042-2.843-11.372-0.02-0.085-0.019-0.086-0.016-0.085-0.015-0.086-0.012-0.085-0.011-0.086-9e-3 -0.085-7e-3 -0.085-5e-3 -0.086-4e-3 -0.085-2e-3 -0.085 1e-3 -0.084 2e-3 -0.085 4e-3 -0.084 5e-3 -0.084 7e-3 -0.084 9e-3 -0.084 0.011-0.083 0.013-0.083 0.014-0.082 0.016-0.082 0.018-0.082 0.019-0.081 0.021-0.08 0.023-0.08 0.024-0.08 0.026-0.079 0.028-0.078 0.029-0.078 0.03-0.077 0.033-0.077 0.034-0.076 0.035-0.075 0.037-0.074 0.039-0.074 0.04-0.072 0.042-0.072 0.043-0.072 0.044-0.07 0.046-0.069 0.048-0.069 0.049-0.067 0.05-0.066 0.052-0.066 0.053-0.064 0.055-0.064 0.056-0.062 0.058-0.061 0.059-0.061 0.06-0.058 0.061-0.058 0.063-0.057 0.064-0.055 0.066-0.054 0.067-0.053 0.068-0.051 0.069-0.051 0.071-0.048 0.072-0.048 0.073-0.046 0.074-0.044 0.076-0.043 0.077-0.042 0.078-0.04 3.13-1.565v-4h-0.5l-0.025-1e-3 -0.024-1e-3 -0.025-3e-3 -0.048-0.01-0.023-7e-3 -0.024-7e-3 -0.022-9e-3 -0.023-0.01-0.021-0.011-0.022-0.012-0.02-0.013-0.02-0.014-0.02-0.015-0.019-0.016-0.018-0.017-0.017-0.018-0.016-0.019-0.015-0.02-0.014-0.02-0.013-0.02-0.012-0.022-0.011-0.021-0.01-0.023-9e-3 -0.022-7e-3 -0.024-7e-3 -0.023-0.01-0.048-3e-3 -0.025-1e-3 -0.024-1e-3 -0.025v-1l1e-3 -0.025 1e-3 -0.024 3e-3 -0.025 0.01-0.048 7e-3 -0.023 7e-3 -0.024 9e-3 -0.022 0.01-0.023 0.011-0.021 0.012-0.022 0.013-0.02 0.014-0.02 0.015-0.02 0.016-0.019 0.017-0.018 0.018-0.017 0.019-0.016 0.02-0.015 0.02-0.014 0.02-0.013 0.022-0.012 0.021-0.011 0.023-0.01 0.022-9e-3 0.024-7e-3 0.023-7e-3 0.048-0.01 0.025-3e-3 0.024-1e-3 0.025-1e-3h7zm-6.5 1 0.098 5e-3 0.097 0.014 0.095 0.024 0.093 0.033 0.088 0.042 0.085 0.051 0.078 0.058 0.073 0.066 0.066 0.073 0.058 0.078 0.051 0.085 0.042 0.088 0.033 0.093 0.024 0.095 0.014 0.097 5e-3 0.098v4l-4e-3 0.092-0.013 0.091-0.021 0.09-0.029 0.088-0.038 0.084-0.044 0.081-0.052 0.076-0.059 0.071-0.065 0.065-0.071 0.059-0.076 0.052-0.081 0.045-3.125 1.563-0.064 0.033-0.057 0.031-0.057 0.032-0.056 0.034-0.055 0.034-0.054 0.036-0.053 0.036-0.052 0.038-0.051 0.038-0.05 0.04-0.049 0.04-0.048 0.042-0.047 0.042-0.046 0.043-0.045 0.045-0.044 0.045-0.086 0.092-0.041 0.048-0.039 0.048-0.039 0.049-0.038 0.05-0.037 0.051-0.036 0.051-0.034 0.052-0.034 0.053-0.032 0.053-0.031 0.054-0.03 0.055-0.029 0.055-0.028 0.056-0.027 0.056-0.025 0.057-0.048 0.116-0.021 0.058-0.021 0.059-0.02 0.059-0.018 0.06-0.017 0.06-0.016 0.06-0.014 0.061-0.013 0.061-0.012 0.062-0.011 0.062-9e-3 0.062-8e-3 0.062-7e-3 0.063-6e-3 0.062-4e-3 0.063-3e-3 0.063-1e-3 0.064v0.063l1e-3 0.064 2e-3 0.064 4e-3 0.063 0.012 0.128 8e-3 0.064 0.01 0.065 0.011 0.064 0.012 0.064 0.014 0.064 0.017 0.07 2.84 11.361 7e-3 0.027 6e-3 0.02 6e-3 0.021 0.014 0.04 7e-3 0.019 8e-3 0.02 8e-3 0.019 0.027 0.057 0.03 0.054 0.011 0.017 0.011 0.018 0.012 0.017 0.012 0.016 0.012 0.017 0.012 0.016 0.026 0.032 0.013 0.015 0.042 0.045 0.045 0.042 0.015 0.013 0.048 0.039 0.017 0.012 0.017 0.011 0.017 0.012 0.034 0.022 0.036 0.02 0.018 9e-3 0.018 0.01 0.018 9e-3 0.057 0.024 0.038 0.014 0.02 7e-3 0.019 6e-3 0.02 6e-3 0.06 0.015 0.021 4e-3 0.02 4e-3 0.042 6e-3 0.063 6e-3 0.021 1e-3 0.022 1e-3h0.027 6.866 0.027l0.022-1e-3 0.021-1e-3 0.063-6e-3 0.042-6e-3 0.02-4e-3 0.021-4e-3 0.06-0.015 0.02-6e-3 0.019-6e-3 0.02-7e-3 0.038-0.014 0.057-0.024 0.018-9e-3 0.018-0.01 0.018-9e-3 0.036-0.02 0.034-0.022 0.017-0.012 0.017-0.011 0.017-0.012 0.048-0.039 0.015-0.013 0.045-0.042 0.042-0.045 0.013-0.015 0.026-0.032 0.012-0.016 0.012-0.017 0.012-0.016 0.012-0.017 0.011-0.018 0.011-0.017 0.03-0.054 0.027-0.057 8e-3 -0.019 8e-3 -0.02 7e-3 -0.019 0.014-0.04 6e-3 -0.021 6e-3 -0.02 7e-3 -0.027 2.84-11.361 0.017-0.07 0.014-0.064 0.012-0.064 0.011-0.064 0.01-0.065 8e-3 -0.064 0.012-0.128 4e-3 -0.063 2e-3 -0.064 1e-3 -0.064v-0.063l-1e-3 -0.064-3e-3 -0.063-4e-3 -0.063-6e-3 -0.062-7e-3 -0.063-8e-3 -0.062-9e-3 -0.062-0.011-0.062-0.012-0.062-0.013-0.061-0.014-0.061-0.016-0.06-0.017-0.06-0.018-0.06-0.02-0.059-0.021-0.059-0.021-0.058-0.048-0.116-0.025-0.057-0.027-0.056-0.028-0.056-0.029-0.055-0.03-0.055-0.031-0.054-0.032-0.053-0.034-0.053-0.034-0.052-0.036-0.051-0.037-0.051-0.038-0.05-0.039-0.049-0.039-0.048-0.041-0.048-0.086-0.092-0.044-0.045-0.045-0.045-0.046-0.043-0.047-0.042-0.048-0.042-0.049-0.04-0.05-0.04-0.051-0.038-0.052-0.038-0.053-0.036-0.054-0.036-0.055-0.034-0.056-0.034-0.057-0.032-0.057-0.031-0.064-0.033-3.125-1.563-0.081-0.045-0.076-0.052-0.071-0.059-0.065-0.065-0.059-0.071-0.052-0.076-0.044-0.081-0.038-0.084-0.029-0.088-0.021-0.09-0.013-0.091-4e-3 -0.092v-4l5e-3 -0.098 0.014-0.097 0.024-0.095 0.033-0.093 0.042-0.088 0.051-0.085 0.058-0.078 0.066-0.073 0.073-0.066 0.078-0.058 0.085-0.051 0.088-0.042 0.093-0.033 0.095-0.024 0.097-0.014 0.098-5e-3h-6z" fill="#d8d8d8"/><rect x="14" y="2" width="4" height="4" fill="#63401e"/></g></svg>
