<?xml version="1.0" encoding="UTF-8"?>
<!DOCTYPE svg  PUBLIC '-//W3C//DTD SVG 1.1//EN'  'http://www.w3.org/Graphics/SVG/1.1/DTD/svg11.dtd'>
<svg clip-rule="evenodd" fill-rule="evenodd" stroke-linecap="round" stroke-linejoin="round" stroke-miterlimit="1.5" version="1.1" viewBox="0 0 32 32" xml:space="preserve" xmlns="http://www.w3.org/2000/svg">
<metadata>
<rdf:RDF xmlns:cc="http://web.resource.org/cc/" xmlns:dc="http://purl.org/dc/elements/1.1/" xmlns:rdf="http://www.w3.org/1999/02/22-rdf-syntax-ns#">

     <rdf:Description rdf:about="">
       <dc:title>Mutant Standard emoji 2023.12</dc:title>
     </rdf:Description>

    <cc:work rdf:about="">
        <cc:license rdf:resource="http://creativecommons.org/licenses/by-nc-sa/4.0/"/>
        <cc:attributionName>Caius Nocturne</cc:attributionName>
        <cc:attributionURL>http://mutant.tech/</cc:attributionURL>
    </cc:work>

</rdf:RDF>
</metadata>
<rect id="red_potion" width="32" height="32" fill="none"/><g id="outline" stroke="#000" stroke-width="4px"><path d="m12 5.5c0-0.133 0.053-0.26 0.146-0.354 0.094-0.093 0.221-0.146 0.354-0.146h7c0.133 0 0.26 0.053 0.354 0.146 0.093 0.094 0.146 0.221 0.146 0.354v1c0 0.133-0.053 0.26-0.146 0.354-0.094 0.093-0.221 0.146-0.354 0.146h-0.5v3s0.43 0.537 1.008 1.259c1.937 2.422 2.992 5.43 2.992 8.531v5.089c0 1.358-0.539 2.66-1.5 3.621s-2.263 1.5-3.621 1.5h-3.758c-1.358 0-2.66-0.539-3.621-1.5s-1.5-2.263-1.5-3.621v-5.089c0-3.101 1.055-6.109 2.992-8.531 0.578-0.722 1.008-1.259 1.008-1.259v-3h-0.5c-0.133 0-0.26-0.053-0.354-0.146-0.093-0.094-0.146-0.221-0.146-0.354v-1z"/><rect x="14" y="2" width="4" height="5" fill="#63401e"/></g><g id="emoji"><path d="m12 5.5c0-0.133 0.053-0.26 0.146-0.354 0.094-0.093 0.221-0.146 0.354-0.146h7c0.133 0 0.26 0.053 0.354 0.146 0.093 0.094 0.146 0.221 0.146 0.354v1c0 0.133-0.053 0.26-0.146 0.354-0.094 0.093-0.221 0.146-0.354 0.146h-0.5v3s0.43 0.537 1.008 1.259c1.937 2.422 2.992 5.43 2.992 8.531v5.089c0 1.358-0.539 2.66-1.5 3.621s-2.263 1.5-3.621 1.5h-3.758c-1.358 0-2.66-0.539-3.621-1.5s-1.5-2.263-1.5-3.621v-5.089c0-3.101 1.055-6.109 2.992-8.531 0.578-0.722 1.008-1.259 1.008-1.259v-3h-0.5c-0.133 0-0.26-0.053-0.354-0.146-0.093-0.094-0.146-0.221-0.146-0.354v-1z" fill="#d8d8d8"/><clipPath id="_clip1"><path d="m12 5.5c0-0.133 0.053-0.26 0.146-0.354 0.094-0.093 0.221-0.146 0.354-0.146h7c0.133 0 0.26 0.053 0.354 0.146 0.093 0.094 0.146 0.221 0.146 0.354v1c0 0.133-0.053 0.26-0.146 0.354-0.094 0.093-0.221 0.146-0.354 0.146h-0.5v3s0.43 0.537 1.008 1.259c1.937 2.422 2.992 5.43 2.992 8.531v5.089c0 1.358-0.539 2.66-1.5 3.621s-2.263 1.5-3.621 1.5h-3.758c-1.358 0-2.66-0.539-3.621-1.5s-1.5-2.263-1.5-3.621v-5.089c0-3.101 1.055-6.109 2.992-8.531 0.578-0.722 1.008-1.259 1.008-1.259v-3h-0.5c-0.133 0-0.26-0.053-0.354-0.146-0.093-0.094-0.146-0.221-0.146-0.354v-1z"/></clipPath><g clip-path="url(#_clip1)"><rect x="6" y="13" width="21" height="18" fill="#e82731"/><rect x="6" y="12" width="21" height="3" fill="#e8636a"/><path d="m16 10s-1.303 3.04-2.191 5.113c-0.534 1.245-0.809 2.585-0.809 3.94v5.462c0 1.591 0.632 3.117 1.757 4.242l0.243 0.243v2h-7v-24h8v3z" fill="#fff" fill-opacity=".49412"/></g><path d="m19.5 5 0.025 1e-3 0.024 1e-3 0.025 3e-3 0.048 0.01 0.023 7e-3 0.024 7e-3 0.022 9e-3 0.023 0.01 0.021 0.011 0.022 0.012 0.02 0.013 0.02 0.014 0.02 0.015 0.019 0.016 0.018 0.017 0.017 0.018 0.016 0.019 0.015 0.02 0.014 0.02 0.013 0.02 0.012 0.022 0.011 0.021 0.01 0.023 9e-3 0.022 7e-3 0.024 7e-3 0.023 0.01 0.048 3e-3 0.025 1e-3 0.024 1e-3 0.025v1l-1e-3 0.025-1e-3 0.024-3e-3 0.025-0.01 0.048-7e-3 0.023-7e-3 0.024-9e-3 0.022-0.01 0.023-0.011 0.021-0.012 0.022-0.013 0.02-0.014 0.02-0.015 0.02-0.016 0.019-0.017 0.018-0.018 0.017-0.019 0.016-0.02 0.015-0.02 0.014-0.02 0.013-0.022 0.012-0.021 0.011-0.023 0.01-0.022 9e-3 -0.024 7e-3 -0.023 7e-3 -0.048 0.01-0.025 3e-3 -0.024 1e-3 -0.025 1e-3h-0.5v3l1.008 1.259 0.09 0.114 0.089 0.115 0.087 0.116 0.086 0.116 0.085 0.117 0.084 0.119 0.082 0.118 0.081 0.12 0.08 0.12 0.078 0.122 0.077 0.121 0.076 0.123 0.074 0.123 0.073 0.125 0.072 0.124 0.07 0.126 0.069 0.126 0.068 0.127 0.066 0.127 0.065 0.128 0.063 0.129 0.063 0.13 0.12 0.26 0.058 0.131 0.056 0.132 0.055 0.132 0.054 0.133 0.053 0.134 0.1 0.268 0.048 0.135 0.047 0.136 0.045 0.135 0.044 0.137 0.043 0.137 0.041 0.137 0.039 0.138 0.038 0.138 0.037 0.139 0.035 0.139 0.034 0.139 0.032 0.14 0.031 0.14 0.03 0.141 0.054 0.282 0.025 0.142 0.023 0.142 0.022 0.142 0.021 0.142 0.019 0.143 0.017 0.143 0.016 0.143 0.015 0.144 0.013 0.144 0.011 0.144 0.01 0.144 9e-3 0.144 7e-3 0.145 5e-3 0.145 4e-3 0.145 2e-3 0.145 1e-3 0.145v5.089 0.064l-2e-3 0.063-2e-3 0.064-2e-3 0.063-8e-3 0.126-5e-3 0.063-6e-3 0.063-0.014 0.126-8e-3 0.062-9e-3 0.062-0.02 0.124-0.011 0.062-0.012 0.062-0.026 0.122-0.015 0.061-0.014 0.061-0.016 0.061-0.016 0.06-0.017 0.06-0.018 0.06-0.019 0.06-0.019 0.059-0.02 0.06-0.021 0.059-0.021 0.058-0.022 0.059-0.023 0.058-0.024 0.058-0.024 0.057-0.025 0.057-0.052 0.114-0.027 0.056-0.056 0.112-0.029 0.055-0.06 0.11-0.032 0.054-0.031 0.054-0.033 0.053-0.033 0.054-0.034 0.052-0.034 0.053-0.035 0.052-0.036 0.051-0.037 0.052-0.037 0.05-0.037 0.051-0.039 0.05-0.039 0.049-0.08 0.098-0.041 0.048-0.041 0.047-0.043 0.048-0.042 0.046-0.044 0.047-0.044 0.045-0.045 0.046-0.046 0.045-0.045 0.044-0.047 0.044-0.046 0.042-0.048 0.043-0.047 0.041-0.048 0.041-0.098 0.08-0.049 0.039-0.05 0.039-0.051 0.037-0.05 0.037-0.052 0.037-0.051 0.036-0.052 0.035-0.053 0.034-0.052 0.034-0.053 0.033-0.054 0.033-0.054 0.031-0.054 0.032-0.11 0.06-0.055 0.029-0.112 0.056-0.056 0.027-0.114 0.052-0.057 0.025-0.057 0.024-0.058 0.024-0.058 0.023-0.059 0.022-0.058 0.021-0.059 0.021-0.06 0.02-0.059 0.019-0.06 0.019-0.06 0.018-0.06 0.017-0.06 0.016-0.061 0.016-0.061 0.014-0.061 0.015-0.122 0.026-0.062 0.012-0.062 0.011-0.124 0.02-0.062 9e-3 -0.062 8e-3 -0.126 0.014-0.063 6e-3 -0.063 5e-3 -0.126 8e-3 -0.063 2e-3 -0.064 2e-3 -0.063 2e-3h-0.064-3.758-0.064l-0.063-2e-3 -0.064-2e-3 -0.063-2e-3 -0.126-8e-3 -0.063-5e-3 -0.063-6e-3 -0.126-0.014-0.062-8e-3 -0.062-9e-3 -0.124-0.02-0.062-0.011-0.062-0.012-0.122-0.026-0.061-0.015-0.061-0.014-0.061-0.016-0.06-0.016-0.06-0.017-0.06-0.018-0.06-0.019-0.059-0.019-0.06-0.02-0.059-0.021-0.058-0.021-0.059-0.022-0.058-0.023-0.058-0.024-0.057-0.024-0.057-0.025-0.114-0.052-0.056-0.027-0.112-0.056-0.055-0.029-0.11-0.06-0.054-0.032-0.054-0.031-0.054-0.033-0.053-0.033-0.052-0.034-0.053-0.034-0.052-0.035-0.051-0.036-0.052-0.037-0.05-0.037-0.051-0.037-0.05-0.039-0.049-0.039-0.098-0.08-0.048-0.041-0.047-0.041-0.048-0.043-0.046-0.042-0.047-0.044-0.045-0.044-0.046-0.045-0.045-0.046-0.044-0.045-0.044-0.047-0.042-0.046-0.043-0.048-0.041-0.047-0.041-0.048-0.08-0.098-0.039-0.049-0.039-0.05-0.037-0.051-0.037-0.05-0.037-0.052-0.036-0.051-0.035-0.052-0.034-0.053-0.034-0.052-0.033-0.054-0.033-0.053-0.031-0.054-0.032-0.054-0.06-0.11-0.029-0.055-0.056-0.112-0.027-0.056-0.052-0.114-0.025-0.057-0.024-0.057-0.024-0.058-0.023-0.058-0.022-0.059-0.021-0.058-0.021-0.059-0.02-0.06-0.019-0.059-0.019-0.06-0.018-0.06-0.017-0.06-0.016-0.06-0.016-0.061-0.014-0.061-0.015-0.061-0.026-0.122-0.012-0.062-0.011-0.062-0.02-0.124-9e-3 -0.062-8e-3 -0.062-0.014-0.126-6e-3 -0.063-5e-3 -0.063-8e-3 -0.126-2e-3 -0.063-2e-3 -0.064-2e-3 -0.063v-0.064-5.089l1e-3 -0.145 2e-3 -0.145 4e-3 -0.145 5e-3 -0.145 7e-3 -0.145 9e-3 -0.144 0.01-0.144 0.011-0.144 0.013-0.144 0.015-0.144 0.016-0.143 0.017-0.143 0.019-0.143 0.021-0.142 0.022-0.142 0.023-0.142 0.025-0.142 0.054-0.282 0.03-0.141 0.031-0.14 0.032-0.14 0.034-0.139 0.035-0.139 0.037-0.139 0.038-0.138 0.039-0.138 0.041-0.137 0.043-0.137 0.044-0.137 0.045-0.135 0.047-0.136 0.048-0.135 0.1-0.268 0.053-0.134 0.054-0.133 0.055-0.132 0.056-0.132 0.058-0.131 0.12-0.26 0.063-0.13 0.063-0.129 0.065-0.128 0.066-0.127 0.068-0.127 0.069-0.126 0.07-0.126 0.072-0.124 0.073-0.125 0.074-0.123 0.076-0.123 0.077-0.121 0.078-0.122 0.08-0.12 0.081-0.12 0.082-0.118 0.084-0.119 0.085-0.117 0.086-0.116 0.087-0.116 0.089-0.115 0.09-0.114 1.008-1.259v-3h-0.5l-0.025-1e-3 -0.024-1e-3 -0.025-3e-3 -0.048-0.01-0.023-7e-3 -0.024-7e-3 -0.022-9e-3 -0.023-0.01-0.021-0.011-0.022-0.012-0.02-0.013-0.02-0.014-0.02-0.015-0.019-0.016-0.018-0.017-0.017-0.018-0.016-0.019-0.015-0.02-0.014-0.02-0.013-0.02-0.012-0.022-0.011-0.021-0.01-0.023-9e-3 -0.022-7e-3 -0.024-7e-3 -0.023-0.01-0.048-3e-3 -0.025-1e-3 -0.024-1e-3 -0.025v-1l1e-3 -0.025 1e-3 -0.024 3e-3 -0.025 0.01-0.048 7e-3 -0.023 7e-3 -0.024 9e-3 -0.022 0.01-0.023 0.011-0.021 0.012-0.022 0.013-0.02 0.014-0.02 0.015-0.02 0.016-0.019 0.017-0.018 0.018-0.017 0.019-0.016 0.02-0.015 0.02-0.014 0.02-0.013 0.022-0.012 0.021-0.011 0.023-0.01 0.022-9e-3 0.024-7e-3 0.023-7e-3 0.048-0.01 0.025-3e-3 0.024-1e-3 0.025-1e-3h7zm-6.5 1 0.098 5e-3 0.097 0.014 0.095 0.024 0.093 0.033 0.088 0.042 0.085 0.051 0.078 0.058 0.073 0.066 0.066 0.073 0.058 0.078 0.051 0.085 0.042 0.088 0.033 0.093 0.024 0.095 0.014 0.097 5e-3 0.098v3l-5e-3 0.096-0.014 0.096-0.023 0.093-0.031 0.091-0.041 0.088-0.049 0.083-0.056 0.078-1.006 1.257-0.085 0.108-0.083 0.106-0.081 0.107-0.08 0.108-0.156 0.218-0.076 0.11-0.075 0.111-0.074 0.112-0.073 0.112-0.071 0.113-0.07 0.114-0.069 0.114-0.068 0.115-0.066 0.116-0.065 0.116-0.064 0.117-0.063 0.117-0.061 0.119-0.06 0.118-0.059 0.12-0.058 0.12-0.056 0.12-0.055 0.121-0.054 0.122-0.052 0.122-0.051 0.122-0.05 0.124-0.049 0.123-0.047 0.124-0.046 0.125-0.045 0.125-0.043 0.126-0.042 0.126-0.041 0.126-0.039 0.127-0.038 0.127-0.037 0.128-0.035 0.128-0.034 0.129-0.033 0.128-0.031 0.13-0.03 0.129-0.056 0.26-0.05 0.262-0.023 0.131-0.022 0.132-0.02 0.131-0.019 0.132-0.018 0.133-0.016 0.132-0.015 0.133-0.013 0.133-0.012 0.133-0.011 0.134-9e-3 0.134-8e-3 0.133-7e-3 0.135-5e-3 0.134-3e-3 0.134-2e-3 0.135-1e-3 0.137v5.083 0.054l1e-3 0.052 4e-3 0.102 3e-3 0.05 3e-3 0.051 4e-3 0.051 5e-3 0.05 6e-3 0.051 5e-3 0.05 7e-3 0.051 7e-3 0.05 8e-3 0.05 8e-3 0.049 9e-3 0.05 0.01 0.05 0.01 0.049 0.011 0.049 0.011 0.05 0.012 0.048 0.026 0.098 0.028 0.096 0.015 0.048 0.032 0.096 0.016 0.047 0.018 0.048 0.017 0.047 0.019 0.046 0.019 0.047 0.019 0.046 0.02 0.046 0.042 0.092 0.044 0.09 0.023 0.045 0.023 0.044 0.024 0.045 0.025 0.044 0.025 0.043 0.025 0.044 0.027 0.043 0.026 0.042 0.027 0.043 0.056 0.084 0.029 0.041 0.03 0.042 0.029 0.04 0.031 0.041 0.062 0.08 0.064 0.078 0.033 0.039 0.102 0.114 0.035 0.037 0.072 0.074 0.074 0.072 0.037 0.035 0.114 0.102 0.039 0.033 0.078 0.064 0.08 0.062 0.041 0.031 0.04 0.029 0.042 0.03 0.041 0.029 0.084 0.056 0.043 0.027 0.042 0.026 0.043 0.026 0.044 0.026 0.043 0.025 0.044 0.025 0.045 0.024 0.044 0.023 0.045 0.023 0.09 0.044 0.092 0.042 0.046 0.02 0.046 0.019 0.047 0.019 0.046 0.019 0.047 0.017 0.048 0.018 0.047 0.016 0.096 0.032 0.048 0.015 0.096 0.028 0.098 0.026 0.048 0.012 0.05 0.011 0.049 0.011 0.049 0.01 0.05 0.01 0.05 9e-3 0.049 8e-3 0.05 8e-3 0.05 7e-3 0.051 7e-3 0.05 5e-3 0.051 6e-3 0.05 5e-3 0.051 4e-3 0.051 3e-3 0.05 3e-3 0.102 4e-3 0.052 1e-3h0.054 3.752 0.054l0.052-1e-3 0.102-4e-3 0.05-3e-3 0.051-3e-3 0.051-4e-3 0.05-5e-3 0.051-6e-3 0.05-5e-3 0.051-7e-3 0.05-7e-3 0.05-8e-3 0.049-8e-3 0.05-9e-3 0.05-0.01 0.049-0.01 0.049-0.011 0.05-0.011 0.048-0.012 0.098-0.026 0.096-0.028 0.048-0.015 0.096-0.032 0.047-0.016 0.048-0.018 0.047-0.017 0.046-0.019 0.047-0.019 0.046-0.019 0.046-0.02 0.092-0.042 0.09-0.044 0.045-0.023 0.044-0.023 0.045-0.024 0.044-0.025 0.043-0.025 0.044-0.026 0.043-0.026 0.042-0.026 0.043-0.027 0.084-0.056 0.041-0.029 0.042-0.03 0.04-0.029 0.041-0.031 0.08-0.062 0.078-0.064 0.039-0.033 0.114-0.102 0.037-0.035 0.074-0.072 0.072-0.074 0.035-0.037 0.102-0.114 0.033-0.039 0.064-0.078 0.062-0.08 0.031-0.041 0.029-0.04 0.03-0.042 0.029-0.041 0.056-0.084 0.027-0.043 0.026-0.042 0.027-0.043 0.025-0.044 0.025-0.043 0.025-0.044 0.024-0.045 0.023-0.044 0.023-0.045 0.044-0.09 0.042-0.092 0.02-0.046 0.019-0.046 0.019-0.047 0.019-0.046 0.017-0.047 0.018-0.048 0.016-0.047 0.032-0.096 0.015-0.048 0.028-0.096 0.026-0.098 0.012-0.048 0.011-0.05 0.011-0.049 0.01-0.049 0.01-0.05 9e-3 -0.05 8e-3 -0.049 8e-3 -0.05 7e-3 -0.05 7e-3 -0.051 5e-3 -0.05 6e-3 -0.051 5e-3 -0.05 4e-3 -0.051 3e-3 -0.051 3e-3 -0.05 4e-3 -0.102 1e-3 -0.052v-0.054-5.083l-1e-3 -0.137-2e-3 -0.135-3e-3 -0.134-5e-3 -0.134-7e-3 -0.135-8e-3 -0.133-9e-3 -0.134-0.011-0.134-0.012-0.133-0.013-0.133-0.015-0.133-0.016-0.132-0.018-0.133-0.019-0.132-0.02-0.131-0.022-0.132-0.023-0.131-0.05-0.262-0.056-0.26-0.03-0.129-0.031-0.13-0.033-0.128-0.034-0.129-0.035-0.128-0.037-0.128-0.038-0.127-0.039-0.127-0.041-0.126-0.042-0.126-0.043-0.126-0.045-0.125-0.046-0.125-0.047-0.124-0.049-0.123-0.05-0.124-0.051-0.122-0.052-0.122-0.054-0.122-0.055-0.121-0.056-0.12-0.058-0.12-0.059-0.12-0.06-0.118-0.061-0.119-0.063-0.117-0.064-0.117-0.065-0.116-0.066-0.116-0.068-0.115-0.069-0.114-0.07-0.114-0.071-0.113-0.073-0.112-0.074-0.112-0.075-0.111-0.076-0.11-0.156-0.218-0.08-0.108-0.081-0.107-0.083-0.106-0.085-0.108-1.006-1.257-0.056-0.078-0.049-0.083-0.041-0.088-0.031-0.091-0.023-0.093-0.014-0.096-5e-3 -0.096v-3l5e-3 -0.098 0.014-0.097 0.024-0.095 0.033-0.093 0.042-0.088 0.051-0.085 0.058-0.078 0.066-0.073 0.073-0.066 0.078-0.058 0.085-0.051 0.088-0.042 0.093-0.033 0.095-0.024 0.097-0.014 0.098-5e-3h-6z" fill="#d8d8d8"/><rect x="14" y="2" width="4" height="4" fill="#63401e"/></g></svg>
