<?xml version="1.0" encoding="UTF-8"?>
<!DOCTYPE svg  PUBLIC '-//W3C//DTD SVG 1.1//EN'  'http://www.w3.org/Graphics/SVG/1.1/DTD/svg11.dtd'>
<svg clip-rule="evenodd" fill-rule="evenodd" stroke-linecap="round" stroke-linejoin="round" stroke-miterlimit="1.5" version="1.1" viewBox="0 0 32 32" xml:space="preserve" xmlns="http://www.w3.org/2000/svg">
<metadata>
<rdf:RDF xmlns:cc="http://web.resource.org/cc/" xmlns:dc="http://purl.org/dc/elements/1.1/" xmlns:rdf="http://www.w3.org/1999/02/22-rdf-syntax-ns#">

     <rdf:Description rdf:about="">
       <dc:title>Mutant Standard emoji 2023.12</dc:title>
     </rdf:Description>

    <cc:work rdf:about="">
        <cc:license rdf:resource="http://creativecommons.org/licenses/by-nc-sa/4.0/"/>
        <cc:attributionName>Caius Nocturne</cc:attributionName>
        <cc:attributionURL>http://mutant.tech/</cc:attributionURL>
    </cc:work>

</rdf:RDF>
</metadata>
<rect id="yellow_potion" width="32" height="32" fill="none"/><clipPath id="_clip1"><rect width="32" height="32"/></clipPath><g clip-path="url(#_clip1)"><g id="outline" stroke="#000" stroke-width="4px"><path d="m12 5.5c0-0.133 0.053-0.26 0.146-0.354 0.094-0.093 0.221-0.146 0.354-0.146h7c0.133 0 0.26 0.053 0.354 0.146 0.093 0.094 0.146 0.221 0.146 0.354v1c0 0.133-0.053 0.26-0.146 0.354-0.094 0.093-0.221 0.146-0.354 0.146h-0.5v3s2.711 5.421 3.669 7.338c0.214 0.427 0.267 0.917 0.152 1.38-0.478 1.911-1.79 7.158-2.442 9.767-0.223 0.89-1.023 1.515-1.941 1.515h-4.876c-0.918 0-1.718-0.625-1.941-1.515-0.652-2.609-1.964-7.856-2.442-9.767-0.115-0.463-0.062-0.953 0.152-1.38 0.958-1.917 3.669-7.338 3.669-7.338v-3h-0.5c-0.133 0-0.26-0.053-0.354-0.146-0.093-0.094-0.146-0.221-0.146-0.354v-1z"/><rect x="14" y="2" width="4" height="5" fill="#63401e"/></g><g id="emoji"><path d="m12 5.5c0-0.133 0.053-0.26 0.146-0.354 0.094-0.093 0.221-0.146 0.354-0.146h7c0.133 0 0.26 0.053 0.354 0.146 0.093 0.094 0.146 0.221 0.146 0.354v1c0 0.133-0.053 0.26-0.146 0.354-0.094 0.093-0.221 0.146-0.354 0.146h-0.5v3s2.711 5.421 3.669 7.338c0.214 0.427 0.267 0.917 0.152 1.38-0.478 1.911-1.79 7.158-2.442 9.767-0.223 0.89-1.023 1.515-1.941 1.515h-4.876c-0.918 0-1.718-0.625-1.941-1.515-0.652-2.609-1.964-7.856-2.442-9.767-0.115-0.463-0.062-0.953 0.152-1.38 0.958-1.917 3.669-7.338 3.669-7.338v-3h-0.5c-0.133 0-0.26-0.053-0.354-0.146-0.093-0.094-0.146-0.221-0.146-0.354v-1z" fill="#d8d8d8"/><clipPath id="_clip2"><path d="m12 5.5c0-0.133 0.053-0.26 0.146-0.354 0.094-0.093 0.221-0.146 0.354-0.146h7c0.133 0 0.26 0.053 0.354 0.146 0.093 0.094 0.146 0.221 0.146 0.354v1c0 0.133-0.053 0.26-0.146 0.354-0.094 0.093-0.221 0.146-0.354 0.146h-0.5v3s2.711 5.421 3.669 7.338c0.214 0.427 0.267 0.917 0.152 1.38-0.478 1.911-1.79 7.158-2.442 9.767-0.223 0.89-1.023 1.515-1.941 1.515h-4.876c-0.918 0-1.718-0.625-1.941-1.515-0.652-2.609-1.964-7.856-2.442-9.767-0.115-0.463-0.062-0.953 0.152-1.38 0.958-1.917 3.669-7.338 3.669-7.338v-3h-0.5c-0.133 0-0.26-0.053-0.354-0.146-0.093-0.094-0.146-0.221-0.146-0.354v-1z"/></clipPath><g clip-path="url(#_clip2)"><rect x="6" y="12" width="21" height="19" fill="#ef9b00"/><rect x="6" y="12" width="21" height="3" fill="#ffb940"/><path d="m16 10s-1.956 5.216-2.709 7.225c-0.191 0.507-0.24 1.057-0.143 1.59 0.463 2.546 1.852 10.185 1.852 10.185v2h-7v-24h8v3z" fill="#fff" fill-opacity=".49412"/></g><path d="m19.5 5 0.025 1e-3 0.024 1e-3 0.025 3e-3 0.048 0.01 0.023 7e-3 0.024 7e-3 0.022 9e-3 0.023 0.01 0.021 0.011 0.022 0.012 0.02 0.013 0.02 0.014 0.02 0.015 0.019 0.016 0.018 0.017 0.017 0.018 0.016 0.019 0.015 0.02 0.014 0.02 0.013 0.02 0.012 0.022 0.011 0.021 0.01 0.023 9e-3 0.022 7e-3 0.024 7e-3 0.023 0.01 0.048 3e-3 0.025 1e-3 0.024 1e-3 0.025v1l-1e-3 0.025-1e-3 0.024-3e-3 0.025-0.01 0.048-7e-3 0.023-7e-3 0.024-9e-3 0.022-0.01 0.023-0.011 0.021-0.012 0.022-0.013 0.02-0.014 0.02-0.015 0.02-0.016 0.019-0.017 0.018-0.018 0.017-0.019 0.016-0.02 0.015-0.02 0.014-0.02 0.013-0.022 0.012-0.021 0.011-0.023 0.01-0.022 9e-3 -0.024 7e-3 -0.023 7e-3 -0.048 0.01-0.025 3e-3 -0.024 1e-3 -0.025 1e-3h-0.5v3l3.689 7.378 0.036 0.082 0.017 0.041 0.015 0.042 0.015 0.041 0.014 0.043 0.013 0.042 0.012 0.042 0.011 0.043 0.01 0.043 9e-3 0.043 9e-3 0.044 7e-3 0.043 6e-3 0.044 5e-3 0.043 5e-3 0.044 3e-3 0.044 4e-3 0.088v0.044 0.045l-4e-3 0.088-8e-3 0.088-0.012 0.088-7e-3 0.044-9e-3 0.044-9e-3 0.043-0.01 0.044-2.442 9.767-0.011 0.042-0.024 0.082-0.028 0.08-0.03 0.078-0.017 0.039-0.017 0.038-0.018 0.038-0.038 0.074-0.021 0.036-0.02 0.035-0.022 0.036-0.022 0.034-0.023 0.035-0.048 0.066-0.025 0.033-0.026 0.032-0.026 0.031-0.054 0.062-0.028 0.029-0.029 0.03-0.058 0.056-0.062 0.054-0.031 0.026-0.064 0.05-0.066 0.048-0.068 0.044-0.035 0.022-0.035 0.02-0.072 0.04-0.037 0.018-0.036 0.018-0.038 0.017-0.037 0.016-0.038 0.016-0.039 0.015-0.039 0.013-0.039 0.014-0.039 0.012-0.04 0.012-0.08 0.02-0.041 0.01-0.041 8e-3 -0.082 0.014-0.042 6e-3 -0.042 5e-3 -0.042 4e-3 -0.042 3e-3 -0.086 4e-3h-0.043-4.876-0.043l-0.086-4e-3 -0.042-3e-3 -0.042-4e-3 -0.042-5e-3 -0.042-6e-3 -0.082-0.014-0.041-8e-3 -0.041-0.01-0.08-0.02-0.04-0.012-0.039-0.012-0.039-0.014-0.039-0.013-0.039-0.015-0.038-0.016-0.037-0.016-0.038-0.017-0.036-0.018-0.037-0.018-0.072-0.04-0.035-0.02-0.035-0.022-0.068-0.044-0.066-0.048-0.064-0.05-0.031-0.026-0.062-0.054-0.058-0.056-0.029-0.03-0.028-0.029-0.054-0.062-0.026-0.031-0.026-0.032-0.025-0.033-0.048-0.066-0.023-0.035-0.022-0.034-0.022-0.036-0.02-0.035-0.021-0.036-0.038-0.074-0.018-0.038-0.017-0.038-0.017-0.039-0.03-0.078-0.028-0.08-0.024-0.082-0.011-0.042-2.442-9.767-0.01-0.044-9e-3 -0.043-9e-3 -0.044-7e-3 -0.044-0.012-0.088-8e-3 -0.088-4e-3 -0.088v-0.045-0.044l4e-3 -0.088 3e-3 -0.044 5e-3 -0.044 5e-3 -0.043 6e-3 -0.044 7e-3 -0.043 9e-3 -0.044 9e-3 -0.043 0.01-0.043 0.011-0.043 0.012-0.042 0.013-0.042 0.014-0.043 0.015-0.041 0.015-0.042 0.017-0.041 0.036-0.082 3.689-7.378v-3h-0.5l-0.025-1e-3 -0.024-1e-3 -0.025-3e-3 -0.048-0.01-0.023-7e-3 -0.024-7e-3 -0.022-9e-3 -0.023-0.01-0.021-0.011-0.022-0.012-0.02-0.013-0.02-0.014-0.02-0.015-0.019-0.016-0.018-0.017-0.017-0.018-0.016-0.019-0.015-0.02-0.014-0.02-0.013-0.02-0.012-0.022-0.011-0.021-0.01-0.023-9e-3 -0.022-7e-3 -0.024-7e-3 -0.023-0.01-0.048-3e-3 -0.025-1e-3 -0.024-1e-3 -0.025v-1l1e-3 -0.025 1e-3 -0.024 3e-3 -0.025 0.01-0.048 7e-3 -0.023 7e-3 -0.024 9e-3 -0.022 0.01-0.023 0.011-0.021 0.012-0.022 0.013-0.02 0.014-0.02 0.015-0.02 0.016-0.019 0.017-0.018 0.018-0.017 0.019-0.016 0.02-0.015 0.02-0.014 0.02-0.013 0.022-0.012 0.021-0.011 0.023-0.01 0.022-9e-3 0.024-7e-3 0.023-7e-3 0.048-0.01 0.025-3e-3 0.024-1e-3 0.025-1e-3h7zm-6.5 1 0.098 5e-3 0.097 0.014 0.095 0.024 0.093 0.033 0.088 0.042 0.085 0.051 0.078 0.058 0.073 0.066 0.066 0.073 0.058 0.078 0.051 0.085 0.042 0.088 0.033 0.093 0.024 0.095 0.014 0.097 5e-3 0.098v3l-4e-3 0.093-0.013 0.091-0.021 0.091-0.03 0.087-0.038 0.085-3.666 7.333-0.012 0.026-0.01 0.02-9e-3 0.02-0.016 0.042-0.021 0.063-6e-3 0.021-5e-3 0.021-5e-3 0.022-5e-3 0.021-4e-3 0.022-3e-3 0.022-4e-3 0.022-2e-3 0.022-2e-3 0.021-2e-3 0.023-2e-3 0.044v0.022 0.022l2e-3 0.044 4e-3 0.044 6e-3 0.044 8e-3 0.044 4e-3 0.021 2.446 9.784 7e-3 0.027 6e-3 0.02 6e-3 0.021 0.021 0.06 0.016 0.038 0.027 0.057 0.03 0.054 0.011 0.017 0.011 0.018 0.012 0.017 0.011 0.016 0.013 0.017 0.012 0.016 0.026 0.032 0.013 0.015 0.014 0.016 0.014 0.014 0.014 0.015 0.045 0.042 0.016 0.013 0.015 0.013 0.032 0.026 0.017 0.012 0.017 0.011 0.017 0.012 0.034 0.022 0.054 0.03 0.036 0.018 0.057 0.024 0.038 0.014 0.02 7e-3 0.019 6e-3 0.02 6e-3 0.06 0.015 0.021 4e-3 0.02 4e-3 0.042 6e-3 0.063 6e-3 0.021 1e-3 0.022 1e-3h0.027 4.866 0.027l0.022-1e-3 0.021-1e-3 0.063-6e-3 0.042-6e-3 0.02-4e-3 0.021-4e-3 0.06-0.015 0.02-6e-3 0.019-6e-3 0.02-7e-3 0.038-0.014 0.057-0.024 0.036-0.018 0.054-0.03 0.034-0.022 0.017-0.012 0.017-0.011 0.017-0.012 0.032-0.026 0.015-0.013 0.016-0.013 0.045-0.042 0.014-0.015 0.014-0.014 0.014-0.016 0.013-0.015 0.026-0.032 0.012-0.016 0.013-0.017 0.011-0.016 0.012-0.017 0.011-0.018 0.011-0.017 0.03-0.054 0.027-0.057 0.016-0.038 0.021-0.06 6e-3 -0.021 6e-3 -0.02 7e-3 -0.027 2.446-9.784 4e-3 -0.021 8e-3 -0.044 6e-3 -0.044 4e-3 -0.044 2e-3 -0.044v-0.022-0.022l-2e-3 -0.044-2e-3 -0.023-2e-3 -0.021-2e-3 -0.022-4e-3 -0.022-3e-3 -0.022-4e-3 -0.022-5e-3 -0.021-5e-3 -0.022-5e-3 -0.021-6e-3 -0.021-0.021-0.063-0.016-0.042-9e-3 -0.02-0.01-0.02-0.012-0.026-3.666-7.333-0.038-0.085-0.03-0.087-0.021-0.091-0.013-0.091-4e-3 -0.093v-3l5e-3 -0.098 0.014-0.097 0.024-0.095 0.033-0.093 0.042-0.088 0.051-0.085 0.058-0.078 0.066-0.073 0.073-0.066 0.078-0.058 0.085-0.051 0.088-0.042 0.093-0.033 0.095-0.024 0.097-0.014 0.098-5e-3h-6z" fill="#d8d8d8"/><rect x="14" y="2" width="4" height="4" fill="#63401e"/></g></g></svg>
