<?xml version="1.0" encoding="UTF-8"?>
<!DOCTYPE svg  PUBLIC '-//W3C//DTD SVG 1.1//EN'  'http://www.w3.org/Graphics/SVG/1.1/DTD/svg11.dtd'>
<svg clip-rule="evenodd" fill-rule="evenodd" stroke-linejoin="round" stroke-miterlimit="2" version="1.1" viewBox="0 0 32 32" xml:space="preserve" xmlns="http://www.w3.org/2000/svg">
<metadata>
<rdf:RDF xmlns:cc="http://web.resource.org/cc/" xmlns:dc="http://purl.org/dc/elements/1.1/" xmlns:rdf="http://www.w3.org/1999/02/22-rdf-syntax-ns#">

     <rdf:Description rdf:about="">
       <dc:title>Mutant Standard emoji 2023.12</dc:title>
     </rdf:Description>

    <cc:work rdf:about="">
        <cc:license rdf:resource="http://creativecommons.org/licenses/by-nc-sa/4.0/"/>
        <cc:attributionName>Caius Nocturne</cc:attributionName>
        <cc:attributionURL>http://mutant.tech/</cc:attributionURL>
    </cc:work>

</rdf:RDF>
</metadata>

    <rect id="d10" width="32" height="32" fill="none"/>
    <g id="outline">
        <path d="m16.129 2.312 0.129 9e-3 0.128 0.013 0.128 0.02 0.127 0.025 0.127 0.03 0.125 0.036 0.124 0.042 0.123 0.047 0.121 0.053 0.119 0.059 0.117 0.064 0.115 0.069 0.112 0.075 0.109 0.08 0.088 0.071 11.868 10.043 0.072 0.063 0.083 0.078 0.079 0.081 0.076 0.084 0.072 0.086 0.069 0.089 0.065 0.091 0.062 0.093 0.058 0.094 0.054 0.097 0.051 0.099 0.047 0.099 0.043 0.102 0.039 0.103 0.035 0.104 0.032 0.105 0.028 0.106 0.024 0.108 0.02 0.108 0.016 0.109 0.011 0.11 8e-3 0.11 4e-3 0.111v0.111l-4e-3 0.111-9e-3 0.112-0.013 0.111-0.017 0.112-0.021 0.11-0.026 0.111-0.029 0.11-0.029 0.091-0.707 2.122-0.029 0.082-0.038 0.097-0.042 0.096-0.044 0.094-0.048 0.092-0.051 0.09-0.054 0.089-0.056 0.086-0.061 0.085-0.062 0.082-0.066 0.081-0.068 0.078-0.071 0.075-0.074 0.074-0.077 0.07-0.066 0.057-11.172 9.31-0.087 0.07-0.108 0.078-0.111 0.074-0.114 0.068-0.116 0.062-0.118 0.058-0.12 0.052-0.122 0.046-0.123 0.041-0.124 0.035-0.125 0.03-0.126 0.024-0.127 0.019-0.127 0.014-0.127 8e-3 -0.128 3e-3 -0.128-3e-3 -0.127-8e-3 -0.127-0.014-0.127-0.019-0.126-0.024-0.125-0.03-0.124-0.035-0.123-0.041-0.122-0.047-0.12-0.051-0.118-0.057-0.116-0.063-0.114-0.068-0.111-0.074-0.108-0.078-0.087-0.07-11.172-9.31-0.066-0.057-0.077-0.07-0.074-0.074-0.071-0.075-0.068-0.078-0.066-0.081-0.062-0.082-0.06-0.085-0.057-0.086-0.054-0.089-0.051-0.09-0.048-0.092-0.045-0.095-0.041-0.095-0.038-0.097-0.029-0.082-0.707-2.122-0.029-0.091-0.029-0.11-0.026-0.111-0.021-0.111-0.017-0.111-0.013-0.111-9e-3 -0.112-4e-3 -0.111v-0.111l4e-3 -0.111 8e-3 -0.11 0.011-0.11 0.016-0.109 0.02-0.108 0.024-0.108 0.028-0.106 0.031-0.105 0.036-0.104 0.039-0.103 0.043-0.102 0.047-0.1 0.051-0.098 0.054-0.097 0.058-0.094 0.062-0.093 0.065-0.091 0.069-0.089 0.072-0.086 0.076-0.084 0.079-0.081 0.083-0.078 0.072-0.063 11.868-10.043 0.088-0.071 0.109-0.08 0.112-0.075 0.115-0.069 0.117-0.064 0.119-0.059 0.121-0.053 0.123-0.047 0.124-0.042 0.125-0.036 0.127-0.03 0.127-0.025 0.128-0.02 0.128-0.013 0.129-9e-3 0.129-3e-3 0.129 3e-3zm-10.803 13.34 0.391 1.176 10.283 8.569 10.283-8.569 0.391-1.176-10.674-9.032-10.674 9.032z"/>
    </g>
    <g id="emoji">
        <path d="m4.219 18.182c-0.143-0.119-0.25-0.275-0.309-0.452-0.156-0.467-0.48-1.439-0.696-2.088-0.129-0.388-9e-3 -0.815 0.303-1.079 2.046-1.732 9.576-8.103 11.837-10.016 0.373-0.316 0.919-0.316 1.292 0 2.261 1.913 9.791 8.284 11.837 10.016 0.312 0.264 0.432 0.691 0.303 1.079-0.216 0.649-0.54 1.621-0.696 2.088-0.059 0.177-0.166 0.333-0.309 0.452-1.378 1.149-8.887 7.406-11.141 9.285-0.371 0.309-0.909 0.309-1.28 0-2.254-1.879-9.763-8.136-11.141-9.285z" fill="#30bfdb"/>
        <clipPath id="_clip1">
            <path d="m4.219 18.182c-0.143-0.119-0.25-0.275-0.309-0.452-0.156-0.467-0.48-1.439-0.696-2.088-0.129-0.388-9e-3 -0.815 0.303-1.079 2.046-1.732 9.576-8.103 11.837-10.016 0.373-0.316 0.919-0.316 1.292 0 2.261 1.913 9.791 8.284 11.837 10.016 0.312 0.264 0.432 0.691 0.303 1.079-0.216 0.649-0.54 1.621-0.696 2.088-0.059 0.177-0.166 0.333-0.309 0.452-1.378 1.149-8.887 7.406-11.141 9.285-0.371 0.309-0.909 0.309-1.28 0-2.254-1.879-9.763-8.136-11.141-9.285z"/>
        </clipPath>
        <g clip-path="url(#_clip1)">
            <path id="acv" d="m16 5s3.958 6.596 5.444 9.074c0.144 0.239 0.181 0.527 0.103 0.794-0.078 0.268-0.264 0.49-0.513 0.615-1.316 0.658-3.62 1.81-4.587 2.293-0.281 0.141-0.613 0.141-0.894 0-1.112-0.556-3.994-1.996-5.106-2.552-0.281-0.141-0.613-0.141-0.894 0-1.685 0.842-7.553 3.776-7.553 3.776v-14h14z" fill="#8adbeb"/>
        </g>
        <path d="m16.043 4.311 0.043 3e-3 0.043 4e-3 0.043 7e-3 0.042 8e-3 0.042 0.01 0.042 0.012 0.041 0.014 0.041 0.016 0.04 0.017 0.04 0.02 0.039 0.021 0.038 0.023 0.037 0.025 0.036 0.027 0.036 0.029 11.837 10.016 0.029 0.025 0.027 0.026 0.027 0.027 0.025 0.028 0.024 0.029 0.023 0.029 0.022 0.03 0.02 0.031 0.02 0.032 0.018 0.032 0.017 0.033 0.015 0.033 0.015 0.034 0.013 0.034 0.012 0.035 0.01 0.035 9e-3 0.036 8e-3 0.035 7e-3 0.036 5e-3 0.037 4e-3 0.036 3e-3 0.037 1e-3 0.037v0.037l-1e-3 0.037-3e-3 0.037-0.01 0.074-7e-3 0.037-9e-3 0.037-0.01 0.037-0.011 0.036-0.696 2.088-0.012 0.033-0.012 0.032-0.014 0.032-0.015 0.031-0.016 0.031-0.017 0.03-0.018 0.03-0.019 0.029-0.02 0.028-0.021 0.027-0.022 0.027-0.022 0.026-0.024 0.025-0.025 0.025-0.025 0.023-0.027 0.023-11.141 9.285-0.035 0.028-0.036 0.026-0.037 0.024-0.038 0.023-0.039 0.021-0.039 0.019-0.04 0.017-0.04 0.015-0.041 0.014-0.041 0.012-0.042 0.01-0.042 8e-3 -0.042 6e-3 -0.043 5e-3 -0.042 2e-3 -0.043 1e-3 -0.043-1e-3 -0.042-2e-3 -0.043-5e-3 -0.042-6e-3 -0.042-8e-3 -0.042-0.01-0.041-0.012-0.041-0.014-0.04-0.015-0.04-0.017-0.039-0.019-0.039-0.021-0.038-0.023-0.037-0.024-0.036-0.026-0.035-0.028-11.141-9.285-0.027-0.023-0.025-0.023-0.025-0.025-0.024-0.025-0.022-0.026-0.022-0.027-0.021-0.027-0.02-0.028-0.019-0.029-0.018-0.03-0.017-0.03-0.016-0.031-0.015-0.031-0.014-0.032-0.012-0.032-0.012-0.033-0.696-2.088-0.011-0.036-0.01-0.037-9e-3 -0.037-7e-3 -0.037-0.01-0.074-3e-3 -0.037-1e-3 -0.037v-0.037l1e-3 -0.037 3e-3 -0.037 4e-3 -0.036 5e-3 -0.037 7e-3 -0.036 8e-3 -0.035 9e-3 -0.036 0.01-0.035 0.012-0.035 0.013-0.034 0.015-0.034 0.015-0.033 0.017-0.033 0.018-0.032 0.02-0.032 0.02-0.031 0.022-0.03 0.023-0.029 0.024-0.029 0.025-0.028 0.027-0.027 0.027-0.026 0.029-0.025 11.837-10.016 0.036-0.029 0.036-0.027 0.037-0.025 0.038-0.023 0.039-0.021 0.04-0.02 0.04-0.017 0.041-0.016 0.041-0.014 0.042-0.012 0.042-0.01 0.042-8e-3 0.043-7e-3 0.043-4e-3 0.043-3e-3 0.043-1e-3 0.043 1e-3zm-0.052 1.006-11.821 10.003-7e-3 6e-3 3e-3 9e-3 0.69 2.071 3e-3 8e-3 6e-3 5e-3 11.126 9.272 9e-3 7e-3 9e-3 -7e-3 11.126-9.272 6e-3 -5e-3 3e-3 -8e-3 0.69-2.071 3e-3 -9e-3 -7e-3 -6e-3 -11.821-10.003-9e-3 -7e-3 -9e-3 7e-3z" fill="#30bfdb"/>
        <path d="m4.219 18.182c-0.143-0.119-0.25-0.275-0.309-0.452-0.156-0.467-0.48-1.439-0.696-2.088-0.129-0.388-9e-3 -0.815 0.303-1.079 2.046-1.732 9.576-8.103 11.837-10.016 0.373-0.316 0.919-0.316 1.292 0 2.261 1.913 9.791 8.284 11.837 10.016 0.312 0.264 0.432 0.691 0.303 1.079-0.216 0.649-0.54 1.621-0.696 2.088-0.059 0.177-0.166 0.333-0.309 0.452-1.378 1.149-8.887 7.406-11.141 9.285-0.371 0.309-0.909 0.309-1.28 0-2.254-1.879-9.763-8.136-11.141-9.285z" fill="none"/>
        <clipPath id="_clip2">
            <path d="m4.219 18.182c-0.143-0.119-0.25-0.275-0.309-0.452-0.156-0.467-0.48-1.439-0.696-2.088-0.129-0.388-9e-3 -0.815 0.303-1.079 2.046-1.732 9.576-8.103 11.837-10.016 0.373-0.316 0.919-0.316 1.292 0 2.261 1.913 9.791 8.284 11.837 10.016 0.312 0.264 0.432 0.691 0.303 1.079-0.216 0.649-0.54 1.621-0.696 2.088-0.059 0.177-0.166 0.333-0.309 0.452-1.378 1.149-8.887 7.406-11.141 9.285-0.371 0.309-0.909 0.309-1.28 0-2.254-1.879-9.763-8.136-11.141-9.285z"/>
        </clipPath>
        <g clip-path="url(#_clip2)">
            <g fill="#fff">
                <path d="m15.5 12c0-0.552-0.448-1-1-1s-1 0.448-1 1v1c0 0.552 0.448 1 1 1s1-0.448 1-1v-1z"/>
                <path d="m18.5 12c0-0.552-0.448-1-1-1s-1 0.448-1 1v1c0 0.552 0.448 1 1 1s1-0.448 1-1v-1z"/>
            </g>
            
                <path d="m9 10c0-0.552-0.448-1-1-1s-1 0.448-1 1v1c0 0.552 0.448 1 1 1s1-0.448 1-1v-1z" fill="#fff"/>
            
            <g fill="#fff">
                
                    <path d="m9.5 21c0-0.552-0.448-1-1-1s-1 0.448-1 1v1c0 0.552 0.448 1 1 1s1-0.448 1-1v-1z"/>
                    <path d="m12.5 21c0-0.552-0.448-1-1-1s-1 0.448-1 1v1c0 0.552 0.448 1 1 1s1-0.448 1-1v-1z"/>
                
                
                    <path d="m21.5 21c0-0.552-0.448-1-1-1s-1 0.448-1 1v1c0 0.552 0.448 1 1 1s1-0.448 1-1v-1z"/>
                    <path d="m24.5 21c0-0.552-0.448-1-1-1s-1 0.448-1 1v1c0 0.552 0.448 1 1 1s1-0.448 1-1v-1z"/>
                
                <path d="m25 10c0-0.552-0.448-1-1-1s-1 0.448-1 1v1c0 0.552 0.448 1 1 1s1-0.448 1-1v-1z"/>
            </g>
        </g>
    </g>
</svg>
