<?xml version="1.0" encoding="UTF-8"?>
<!DOCTYPE svg  PUBLIC '-//W3C//DTD SVG 1.1//EN'  'http://www.w3.org/Graphics/SVG/1.1/DTD/svg11.dtd'>
<svg clip-rule="evenodd" fill-rule="evenodd" stroke-linejoin="round" stroke-miterlimit="2" version="1.1" viewBox="0 0 32 32" xml:space="preserve" xmlns="http://www.w3.org/2000/svg">
<metadata>
<rdf:RDF xmlns:cc="http://web.resource.org/cc/" xmlns:dc="http://purl.org/dc/elements/1.1/" xmlns:rdf="http://www.w3.org/1999/02/22-rdf-syntax-ns#">

     <rdf:Description rdf:about="">
       <dc:title>Mutant Standard emoji 2023.12</dc:title>
     </rdf:Description>

    <cc:work rdf:about="">
        <cc:license rdf:resource="http://creativecommons.org/licenses/by-nc-sa/4.0/"/>
        <cc:attributionName>Caius Nocturne</cc:attributionName>
        <cc:attributionURL>http://mutant.tech/</cc:attributionURL>
    </cc:work>

</rdf:RDF>
</metadata>

    <rect id="d12" width="32" height="32" fill="none"/>
    <g id="outline">
        <path d="m15.691 2.1c0.201-0.065 0.417-0.065 0.618 0 1.299 0.423 6.312 2.051 7.611 2.473 0.201 0.066 0.376 0.193 0.5 0.364 0.803 1.105 3.901 5.369 4.704 6.474 0.124 0.171 0.191 0.376 0.191 0.588v8.002c0 0.212-0.067 0.417-0.191 0.588-0.803 1.105-3.901 5.369-4.704 6.474-0.124 0.171-0.299 0.298-0.5 0.364-1.299 0.422-6.312 2.05-7.611 2.473-0.201 0.065-0.417 0.065-0.618 0-1.299-0.423-6.312-2.051-7.611-2.473-0.201-0.066-0.376-0.193-0.5-0.364-0.803-1.105-3.901-5.369-4.704-6.474-0.124-0.171-0.191-0.376-0.191-0.588v-8.002c0-0.212 0.067-0.417 0.191-0.588 0.803-1.105 3.901-5.369 4.704-6.474 0.124-0.171 0.299-0.298 0.5-0.364 1.299-0.422 6.312-2.05 7.611-2.473z"/>
        <path d="m16.117 0.053 0.118 7e-3 0.117 0.012 0.116 0.016 0.116 0.02 0.115 0.026 0.115 0.03 0.094 0.028 7.649 2.485 0.093 0.033 0.11 0.043 0.108 0.047 0.106 0.052 0.104 0.055 0.102 0.06 0.098 0.063 0.096 0.067 0.094 0.071 0.091 0.074 0.088 0.078 0.085 0.082 0.081 0.085 0.079 0.088 0.075 0.092 0.06 0.078 4.727 6.506 0.056 0.082 0.064 0.099 0.059 0.102 0.056 0.104 0.051 0.105 0.047 0.108 0.043 0.11 0.038 0.11 0.035 0.113 0.029 0.114 0.025 0.114 0.021 0.116 0.016 0.117 0.012 0.117 7e-3 0.118 2e-3 0.099v8.042l-2e-3 0.099-7e-3 0.117-0.012 0.118-0.016 0.117-0.021 0.116-0.025 0.114-0.029 0.114-0.035 0.113-0.038 0.11-0.043 0.11-0.047 0.108-0.051 0.105-0.056 0.104-0.059 0.102-0.064 0.099-0.057 0.082-4.726 6.506-0.06 0.079-0.076 0.091-0.078 0.088-0.081 0.085-0.085 0.082-0.088 0.078-0.091 0.074-0.093 0.071-0.097 0.067-0.099 0.063-0.101 0.06-0.104 0.055-0.105 0.052-0.109 0.047-0.11 0.043-0.093 0.033-7.649 2.485-0.094 0.029-0.115 0.029-0.115 0.026-0.116 0.02-0.117 0.016-0.117 0.012-0.117 7e-3 -0.117 2e-3 -0.117-2e-3 -0.117-7e-3 -0.117-0.012-0.117-0.016-0.116-0.02-0.115-0.026-0.115-0.029-0.094-0.029-7.649-2.485-0.093-0.033-0.11-0.043-0.108-0.047-0.106-0.052-0.104-0.055-0.101-0.06-0.099-0.063-0.097-0.067-0.093-0.071-0.091-0.074-0.088-0.078-0.085-0.082-0.081-0.085-0.079-0.088-0.075-0.091-0.059-0.079-4.727-6.506-0.057-0.081-0.064-0.1-0.059-0.102-0.056-0.104-0.051-0.106-0.047-0.107-0.043-0.11-0.038-0.11-0.034-0.113-0.03-0.114-0.025-0.114-0.021-0.116-0.016-0.117-0.012-0.117-7e-3 -0.118-2e-3 -0.099v-8.042l2e-3 -0.099 7e-3 -0.118 0.012-0.117 0.016-0.117 0.021-0.116 0.025-0.114 0.03-0.114 0.034-0.113 0.038-0.11 0.043-0.11 0.047-0.107 0.051-0.106 0.056-0.104 0.059-0.102 0.064-0.1 0.056-0.081 4.728-6.506 0.059-0.079 0.075-0.091 0.079-0.088 0.081-0.085 0.085-0.082 0.088-0.078 0.091-0.074 0.094-0.071 0.096-0.067 0.098-0.063 0.102-0.06 0.104-0.055 0.106-0.052 0.108-0.047 0.11-0.043 0.093-0.033 7.649-2.485 0.094-0.028 0.115-0.03 0.115-0.026 0.116-0.02 0.116-0.016 0.117-0.012 0.118-7e-3 0.117-2e-3 0.117 2e-3zm-7.11 6.322-4.322 5.949v7.352l4.322 5.949 6.993 2.272 6.993-2.272 4.322-5.949v-7.352l-4.322-5.949-6.993-2.272-6.993 2.272z"/>
    </g>
    <g id="emoji">
        <path d="m15.691 2.1c0.201-0.065 0.417-0.065 0.618 0 1.299 0.423 6.312 2.051 7.611 2.473 0.201 0.066 0.376 0.193 0.5 0.364 0.803 1.105 3.901 5.369 4.704 6.474 0.124 0.171 0.191 0.376 0.191 0.588v8.002c0 0.212-0.067 0.417-0.191 0.588-0.803 1.105-3.901 5.369-4.704 6.474-0.124 0.171-0.299 0.298-0.5 0.364-1.299 0.422-6.312 2.05-7.611 2.473-0.201 0.065-0.417 0.065-0.618 0-1.299-0.423-6.312-2.051-7.611-2.473-0.201-0.066-0.376-0.193-0.5-0.364-0.803-1.105-3.901-5.369-4.704-6.474-0.124-0.171-0.191-0.376-0.191-0.588v-8.002c0-0.212 0.067-0.417 0.191-0.588 0.803-1.105 3.901-5.369 4.704-6.474 0.124-0.171 0.299-0.298 0.5-0.364 1.299-0.422 6.312-2.05 7.611-2.473z" fill="#8813e8"/>
        <clipPath id="_clip1">
            <path d="m15.691 2.1c0.201-0.065 0.417-0.065 0.618 0 1.299 0.423 6.312 2.051 7.611 2.473 0.201 0.066 0.376 0.193 0.5 0.364 0.803 1.105 3.901 5.369 4.704 6.474 0.124 0.171 0.191 0.376 0.191 0.588v8.002c0 0.212-0.067 0.417-0.191 0.588-0.803 1.105-3.901 5.369-4.704 6.474-0.124 0.171-0.299 0.298-0.5 0.364-1.299 0.422-6.312 2.05-7.611 2.473-0.201 0.065-0.417 0.065-0.618 0-1.299-0.423-6.312-2.051-7.611-2.473-0.201-0.066-0.376-0.193-0.5-0.364-0.803-1.105-3.901-5.369-4.704-6.474-0.124-0.171-0.191-0.376-0.191-0.588v-8.002c0-0.212 0.067-0.417 0.191-0.588 0.803-1.105 3.901-5.369 4.704-6.474 0.124-0.171 0.299-0.298 0.5-0.364 1.299-0.422 6.312-2.05 7.611-2.473z"/>
        </clipPath>
        <g clip-path="url(#_clip1)">
            <path d="m10.956 23.964c-0.296 0-0.578 0.132-0.768 0.36-1.079 1.295-4.7 5.64-4.7 5.64l-4.488 0.036v-29h15v5.49c0 0.321 0.153 0.621 0.412 0.809 1.438 1.045 6.238 4.532 7.919 5.754 0.35 0.254 0.497 0.706 0.363 1.118-0.618 1.902-2.339 7.2-2.958 9.102-0.133 0.412-0.517 0.691-0.951 0.691h-9.829z" fill="#ad50ff"/>
        </g>
        <path d="m16.039 2.052 0.078 6e-3 0.039 6e-3 0.039 7e-3 0.038 8e-3 0.038 0.01 0.038 0.011 7.611 2.473 0.037 0.013 0.037 0.015 0.036 0.015 0.07 0.036 0.034 0.02 0.033 0.021 0.032 0.022 0.031 0.024 0.03 0.025 0.029 0.026 0.029 0.027 0.027 0.028 0.026 0.03 0.025 0.03 0.024 0.032 4.704 6.474 0.022 0.032 0.022 0.034 0.02 0.033 0.018 0.035 0.017 0.035 0.016 0.036 0.014 0.037 0.013 0.037 0.011 0.037 0.01 0.038 8e-3 0.038 7e-3 0.039 6e-3 0.039 4e-3 0.039 2e-3 0.039 1e-3 0.04v8.002l-1e-3 0.04-2e-3 0.039-4e-3 0.039-6e-3 0.039-7e-3 0.039-8e-3 0.038-0.01 0.038-0.011 0.037-0.013 0.037-0.014 0.037-0.016 0.036-0.017 0.035-0.018 0.035-0.02 0.033-0.022 0.034-0.022 0.032-4.704 6.474-0.024 0.032-0.025 0.03-0.026 0.03-0.027 0.028-0.029 0.027-0.029 0.026-0.03 0.025-0.031 0.024-0.032 0.022-0.033 0.021-0.034 0.02-0.07 0.036-0.036 0.015-0.037 0.015-0.037 0.013-7.611 2.473-0.038 0.011-0.038 0.01-0.038 8e-3 -0.039 7e-3 -0.039 6e-3 -0.078 6e-3 -0.039 1e-3 -0.039-1e-3 -0.078-6e-3 -0.039-6e-3 -0.039-7e-3 -0.038-8e-3 -0.038-0.01-0.038-0.011-7.611-2.473-0.037-0.013-0.037-0.015-0.036-0.015-0.07-0.036-0.034-0.02-0.033-0.021-0.032-0.022-0.031-0.024-0.03-0.025-0.029-0.026-0.029-0.027-0.027-0.028-0.026-0.03-0.025-0.03-0.024-0.032-4.704-6.474-0.022-0.032-0.022-0.034-0.02-0.033-0.018-0.035-0.017-0.035-0.016-0.036-0.014-0.037-0.013-0.037-0.011-0.037-0.01-0.038-8e-3 -0.038-7e-3 -0.039-6e-3 -0.039-4e-3 -0.039-2e-3 -0.039-1e-3 -0.04v-8.002l1e-3 -0.04 2e-3 -0.039 4e-3 -0.039 6e-3 -0.039 7e-3 -0.039 8e-3 -0.038 0.01-0.038 0.011-0.037 0.013-0.037 0.014-0.037 0.016-0.036 0.017-0.035 0.018-0.035 0.02-0.033 0.022-0.034 0.022-0.032 4.704-6.474 0.024-0.032 0.025-0.03 0.026-0.03 0.027-0.028 0.029-0.027 0.029-0.026 0.03-0.025 0.031-0.024 0.032-0.022 0.033-0.021 0.034-0.02 0.07-0.036 0.036-0.015 0.037-0.015 0.037-0.013 7.611-2.473 0.038-0.011 0.038-0.01 0.038-8e-3 0.039-7e-3 0.039-6e-3 0.078-6e-3 0.039-1e-3 0.039 1e-3zm-0.048 1.003-7.593 2.466-9e-3 4e-3 -6e-3 7e-3 -4.692 6.459-6e-3 8e-3v0.01 7.982 0.01l6e-3 8e-3 4.692 6.459 6e-3 7e-3 9e-3 4e-3 7.593 2.466 9e-3 3e-3 9e-3 -3e-3 7.593-2.466 9e-3 -4e-3 6e-3 -7e-3 4.692-6.459 6e-3 -8e-3v-0.01-7.982-0.01l-6e-3 -8e-3 -4.692-6.459-6e-3 -7e-3 -9e-3 -4e-3 -7.593-2.466-9e-3 -3e-3 -9e-3 3e-3z" fill="#8813e8"/>
        <path d="m15.691 2.1c0.201-0.065 0.417-0.065 0.618 0 1.299 0.423 6.312 2.051 7.611 2.473 0.201 0.066 0.376 0.193 0.5 0.364 0.803 1.105 3.901 5.369 4.704 6.474 0.124 0.171 0.191 0.376 0.191 0.588v8.002c0 0.212-0.067 0.417-0.191 0.588-0.803 1.105-3.901 5.369-4.704 6.474-0.124 0.171-0.299 0.298-0.5 0.364-1.299 0.422-6.312 2.05-7.611 2.473-0.201 0.065-0.417 0.065-0.618 0-1.299-0.423-6.312-2.051-7.611-2.473-0.201-0.066-0.376-0.193-0.5-0.364-0.803-1.105-3.901-5.369-4.704-6.474-0.124-0.171-0.191-0.376-0.191-0.588v-8.002c0-0.212 0.067-0.417 0.191-0.588 0.803-1.105 3.901-5.369 4.704-6.474 0.124-0.171 0.299-0.298 0.5-0.364 1.299-0.422 6.312-2.05 7.611-2.473z" fill="none"/>
        <clipPath id="_clip2">
            <path d="m15.691 2.1c0.201-0.065 0.417-0.065 0.618 0 1.299 0.423 6.312 2.051 7.611 2.473 0.201 0.066 0.376 0.193 0.5 0.364 0.803 1.105 3.901 5.369 4.704 6.474 0.124 0.171 0.191 0.376 0.191 0.588v8.002c0 0.212-0.067 0.417-0.191 0.588-0.803 1.105-3.901 5.369-4.704 6.474-0.124 0.171-0.299 0.298-0.5 0.364-1.299 0.422-6.312 2.05-7.611 2.473-0.201 0.065-0.417 0.065-0.618 0-1.299-0.423-6.312-2.051-7.611-2.473-0.201-0.066-0.376-0.193-0.5-0.364-0.803-1.105-3.901-5.369-4.704-6.474-0.124-0.171-0.191-0.376-0.191-0.588v-8.002c0-0.212 0.067-0.417 0.191-0.588 0.803-1.105 3.901-5.369 4.704-6.474 0.124-0.171 0.299-0.298 0.5-0.364 1.299-0.422 6.312-2.05 7.611-2.473z"/>
        </clipPath>
        <g clip-path="url(#_clip2)" fill="#fff">
            
                <path d="m15 15c0-0.552-0.448-1-1-1s-1 0.448-1 1v2c0 0.552 0.448 1 1 1s1-0.448 1-1v-2z"/>
                <path d="m19 15c0-0.552-0.448-1-1-1s-1 0.448-1 1v2c0 0.552 0.448 1 1 1s1-0.448 1-1v-2z"/>
            
            
                
                    <path d="m15 29c0-0.552-0.448-1-1-1s-1 0.448-1 1v2c0 0.552 0.448 1 1 1s1-0.448 1-1v-2z"/>
                    <path d="m19 29c0-0.552-0.448-1-1-1s-1 0.448-1 1v2c0 0.552 0.448 1 1 1s1-0.448 1-1v-2z"/>
                
                
                    <path d="m30.134 20.634c0.478 0.276 1.09 0.112 1.366-0.366s0.112-1.09-0.366-1.366c-0.529-0.305-1.203-0.695-1.732-1-0.478-0.276-1.09-0.112-1.366 0.366s-0.112 1.09 0.366 1.366c0.529 0.305 1.203 0.695 1.732 1z"/>
                    <path d="m28.134 24.098c0.478 0.276 1.09 0.112 1.366-0.366s0.112-1.09-0.366-1.366c-0.529-0.305-1.203-0.695-1.732-1-0.478-0.276-1.09-0.112-1.366 0.366s-0.112 1.09 0.366 1.366c0.529 0.305 1.203 0.695 1.732 1z"/>
                
                
                    <path d="m1.866 20.634c-0.478 0.276-1.09 0.112-1.366-0.366s-0.112-1.09 0.366-1.366c0.529-0.305 1.203-0.695 1.732-1 0.478-0.276 1.09-0.112 1.366 0.366s0.112 1.09-0.366 1.366c-0.529 0.305-1.203 0.695-1.732 1z"/>
                    <path d="m3.866 24.098c-0.478 0.276-1.09 0.112-1.366-0.366s-0.112-1.09 0.366-1.366c0.529-0.305 1.203-0.695 1.732-1 0.478-0.276 1.09-0.112 1.366 0.366s0.112 1.09-0.366 1.366c-0.529 0.305-1.203 0.695-1.732 1z"/>
                
            
            
                <path d="m23.634 3.402c0.276-0.478 0.112-1.09-0.366-1.366s-1.09-0.112-1.366 0.366c-0.305 0.529-0.695 1.203-1 1.732-0.276 0.478-0.112 1.09 0.366 1.366s1.09 0.112 1.366-0.366c0.305-0.529 0.695-1.203 1-1.732z"/>
                <path d="m27.098 5.402c0.276-0.478 0.112-1.09-0.366-1.366s-1.09-0.112-1.366 0.366c-0.305 0.529-0.695 1.203-1 1.732-0.276 0.478-0.112 1.09 0.366 1.366s1.09 0.112 1.366-0.366c0.305-0.529 0.695-1.203 1-1.732z"/>
            
            
                <path d="m8.366 3.402c-0.276-0.478-0.112-1.09 0.366-1.366s1.09-0.112 1.366 0.366c0.305 0.529 0.695 1.203 1 1.732 0.276 0.478 0.112 1.09-0.366 1.366s-1.09 0.112-1.366-0.366c-0.305-0.529-0.695-1.203-1-1.732z"/>
                <path d="m4.902 5.402c-0.276-0.478-0.112-1.09 0.366-1.366s1.09-0.112 1.366 0.366c0.305 0.529 0.695 1.203 1 1.732 0.276 0.478 0.112 1.09-0.366 1.366s-1.09 0.112-1.366-0.366c-0.305-0.529-0.695-1.203-1-1.732z"/>
            
        </g>
    </g>
</svg>
