<?xml version="1.0" encoding="UTF-8"?>
<!DOCTYPE svg  PUBLIC '-//W3C//DTD SVG 1.1//EN'  'http://www.w3.org/Graphics/SVG/1.1/DTD/svg11.dtd'>
<svg clip-rule="evenodd" fill-rule="evenodd" stroke-linejoin="round" stroke-miterlimit="2" version="1.1" viewBox="0 0 32 32" xml:space="preserve" xmlns="http://www.w3.org/2000/svg">
<metadata>
<rdf:RDF xmlns:cc="http://web.resource.org/cc/" xmlns:dc="http://purl.org/dc/elements/1.1/" xmlns:rdf="http://www.w3.org/1999/02/22-rdf-syntax-ns#">

     <rdf:Description rdf:about="">
       <dc:title>Mutant Standard emoji 2023.12</dc:title>
     </rdf:Description>

    <cc:work rdf:about="">
        <cc:license rdf:resource="http://creativecommons.org/licenses/by-nc-sa/4.0/"/>
        <cc:attributionName>Caius Nocturne</cc:attributionName>
        <cc:attributionURL>http://mutant.tech/</cc:attributionURL>
    </cc:work>

</rdf:RDF>
</metadata>

    <rect id="d4" width="32" height="32" fill="none"/>
    <g id="outline">
        <path d="m16.1 1.986 0.099 5e-3 0.098 8e-3 0.098 0.012 0.098 0.014 0.096 0.018 0.096 0.021 0.095 0.023 0.093 0.027 0.093 0.03 0.091 0.033 0.09 0.035 0.089 0.039 0.088 0.041 0.086 0.044 0.084 0.047 0.083 0.049 0.082 0.053 0.08 0.054 0.077 0.058 0.077 0.06 0.074 0.062 0.072 0.065 0.071 0.067 0.068 0.07 0.066 0.072 0.064 0.075 0.062 0.077 0.059 0.079 0.057 0.081 0.054 0.083 0.043 0.071 12.276 21.044 0.041 0.073 0.046 0.088 0.042 0.09 0.04 0.091 0.037 0.092 0.033 0.093 0.031 0.094 0.027 0.095 0.024 0.095 0.021 0.095 0.017 0.096 0.015 0.097 0.011 0.097 8e-3 0.097 5e-3 0.097 2e-3 0.097-1e-3 0.097-4e-3 0.097-8e-3 0.097-0.011 0.097-0.014 0.097-0.017 0.096-0.02 0.096-0.023 0.095-0.027 0.095-0.029 0.094-0.033 0.093-0.036 0.092-0.039 0.091-0.043 0.091-0.045 0.089-0.048 0.087-0.052 0.086-0.054 0.084-0.056 0.082-0.06 0.08-0.061 0.078-0.064 0.075-0.066 0.073-0.069 0.071-0.07 0.068-0.073 0.065-0.074 0.064-0.077 0.06-0.078 0.058-0.08 0.056-0.082 0.052-0.083 0.051-0.085 0.047-0.086 0.045-0.088 0.041-0.089 0.039-0.091 0.036-0.092 0.034-0.093 0.03-0.095 0.027-0.095 0.024-0.096 0.021-0.097 0.018-0.098 0.015-0.099 0.011-0.099 9e-3 -0.1 5e-3 -0.083 1e-3h-24.552l-0.083-1e-3 -0.1-5e-3 -0.099-9e-3 -0.099-0.011-0.098-0.015-0.097-0.018-0.096-0.021-0.095-0.024-0.095-0.027-0.093-0.03-0.092-0.034-0.091-0.036-0.089-0.039-0.088-0.041-0.086-0.045-0.085-0.047-0.083-0.051-0.082-0.052-0.08-0.056-0.079-0.058-0.076-0.06-0.074-0.063-0.073-0.066-0.07-0.068-0.069-0.071-0.066-0.073-0.064-0.075-0.061-0.078-0.06-0.08-0.056-0.082-0.054-0.084-0.052-0.086-0.048-0.087-0.045-0.089-0.043-0.091-0.039-0.091-0.036-0.092-0.033-0.093-0.029-0.094-0.027-0.095-0.023-0.095-0.02-0.096-0.017-0.096-0.014-0.097-0.011-0.097-8e-3 -0.097-4e-3 -0.097-1e-3 -0.097 2e-3 -0.097 5e-3 -0.097 8e-3 -0.097 0.011-0.097 0.015-0.097 0.017-0.096 0.021-0.095 0.024-0.095 0.027-0.095 0.031-0.094 0.033-0.093 0.037-0.092 0.04-0.091 0.042-0.09 0.046-0.088 0.041-0.073 12.276-21.044 0.043-0.071 0.054-0.083 0.057-0.081 0.059-0.079 0.062-0.077 0.064-0.075 0.066-0.072 0.068-0.07 0.071-0.067 0.072-0.065 0.074-0.062 0.077-0.06 0.077-0.058 0.08-0.054 0.082-0.053 0.083-0.049 0.084-0.047 0.086-0.044 0.088-0.041 0.089-0.039 0.09-0.035 0.091-0.033 0.093-0.03 0.093-0.027 0.095-0.023 0.096-0.021 0.096-0.018 0.098-0.014 0.098-0.012 0.098-8e-3 0.099-5e-3 0.1-2e-3 0.1 2e-3zm-10.618 23.014h21.036l-10.518-18.031-10.518 18.031z"/>
    </g>
    <g id="emoji">
        <path d="m15.136 4.481c0.179-0.307 0.508-0.496 0.864-0.496s0.685 0.189 0.864 0.496c2.502 4.29 9.739 16.696 12.259 21.015 0.18 0.309 0.181 0.692 3e-3 1.002-0.178 0.311-0.509 0.502-0.867 0.502h-24.518c-0.358 0-0.689-0.191-0.867-0.502-0.178-0.31-0.177-0.693 3e-3 -1.002 2.52-4.319 9.757-16.725 12.259-21.015z" fill="#e82731"/>
        <clipPath id="_clip1">
            <path d="m15.136 4.481c0.179-0.307 0.508-0.496 0.864-0.496s0.685 0.189 0.864 0.496c2.502 4.29 9.739 16.696 12.259 21.015 0.18 0.309 0.181 0.692 3e-3 1.002-0.178 0.311-0.509 0.502-0.867 0.502h-24.518c-0.358 0-0.689-0.191-0.867-0.502-0.178-0.31-0.177-0.693 3e-3 -1.002 2.52-4.319 9.757-16.725 12.259-21.015z"/>
        </clipPath>
        <g clip-path="url(#_clip1)">
            <path d="m21 28h-20v-23h15l5 23z" fill="#ff6169"/>
        </g>
        <path d="m16.033 3.985 0.033 2e-3 0.066 6e-3 0.032 5e-3 0.032 6e-3 0.032 7e-3 0.032 8e-3 0.031 9e-3 0.031 0.01 0.03 0.011 0.06 0.024 0.029 0.014 0.029 0.015 0.028 0.015 0.028 0.017 0.027 0.017 0.027 0.019 0.026 0.019 0.025 0.02 0.025 0.021 0.024 0.021 0.046 0.046 0.022 0.024 0.042 0.05 0.02 0.027 0.018 0.027 0.019 0.027 0.017 0.029 12.259 21.015 0.016 0.029 0.03 0.06 0.013 0.03 0.012 0.031 0.011 0.031 0.01 0.031 9e-3 0.032 8e-3 0.031 7e-3 0.032 6e-3 0.032 5e-3 0.032 4e-3 0.032 3e-3 0.033 1e-3 0.032 1e-3 0.033v0.032l-2e-3 0.032-2e-3 0.033-4e-3 0.032-0.01 0.064-7e-3 0.032-8e-3 0.032-9e-3 0.032-0.02 0.062-0.012 0.031-0.013 0.03-0.03 0.06-0.016 0.029-0.017 0.029-0.018 0.028-0.019 0.027-0.02 0.027-0.02 0.026-0.021 0.025-0.022 0.024-0.023 0.023-0.024 0.023-0.024 0.022-0.025 0.021-0.025 0.02-0.026 0.02-0.054 0.036-0.056 0.032-0.029 0.015-0.03 0.014-0.029 0.013-0.031 0.012-0.03 0.011-0.031 0.01-0.032 9e-3 -0.031 8e-3 -0.032 7e-3 -0.033 6e-3 -0.032 5e-3 -0.033 4e-3 -0.033 3e-3 -0.034 1e-3 -0.033 1e-3h-24.518l-0.033-1e-3 -0.034-1e-3 -0.033-3e-3 -0.033-4e-3 -0.032-5e-3 -0.033-6e-3 -0.032-7e-3 -0.031-8e-3 -0.032-9e-3 -0.031-0.01-0.03-0.011-0.031-0.012-0.029-0.013-0.03-0.014-0.029-0.015-0.056-0.032-0.054-0.036-0.026-0.02-0.025-0.02-0.025-0.021-0.024-0.022-0.024-0.023-0.023-0.023-0.022-0.024-0.021-0.025-0.02-0.026-0.02-0.027-0.019-0.027-0.018-0.028-0.017-0.029-0.016-0.029-0.03-0.06-0.013-0.03-0.012-0.031-0.02-0.062-9e-3 -0.032-8e-3 -0.032-7e-3 -0.032-0.01-0.064-4e-3 -0.032-2e-3 -0.033-2e-3 -0.032v-0.032l1e-3 -0.033 1e-3 -0.032 3e-3 -0.033 4e-3 -0.032 5e-3 -0.032 6e-3 -0.032 7e-3 -0.032 8e-3 -0.031 9e-3 -0.032 0.01-0.031 0.011-0.031 0.012-0.031 0.013-0.03 0.03-0.06 0.016-0.029 12.259-21.015 0.017-0.029 0.019-0.027 0.018-0.027 0.02-0.027 0.042-0.05 0.022-0.024 0.046-0.046 0.024-0.021 0.025-0.021 0.025-0.02 0.026-0.019 0.027-0.019 0.027-0.017 0.028-0.017 0.028-0.015 0.029-0.015 0.029-0.014 0.06-0.024 0.03-0.011 0.031-0.01 0.031-9e-3 0.032-8e-3 0.032-7e-3 0.032-6e-3 0.032-5e-3 0.066-6e-3 0.033-2e-3h0.033 0.033zm-0.037 1.007-12.251 21.001-4e-3 7e-3h8e-3 24.502 8e-3l-4e-3 -7e-3 -12.251-21.001-4e-3 -7e-3 -4e-3 7e-3z" fill="#e82731"/>
        <path d="m15.136 4.481c0.179-0.307 0.508-0.496 0.864-0.496s0.685 0.189 0.864 0.496c2.502 4.29 9.739 16.696 12.259 21.015 0.18 0.309 0.181 0.692 3e-3 1.002-0.178 0.311-0.509 0.502-0.867 0.502h-24.518c-0.358 0-0.689-0.191-0.867-0.502-0.178-0.31-0.177-0.693 3e-3 -1.002 2.52-4.319 9.757-16.725 12.259-21.015z" fill="none"/>
        <clipPath id="_clip2">
            <path d="m15.136 4.481c0.179-0.307 0.508-0.496 0.864-0.496s0.685 0.189 0.864 0.496c2.502 4.29 9.739 16.696 12.259 21.015 0.18 0.309 0.181 0.692 3e-3 1.002-0.178 0.311-0.509 0.502-0.867 0.502h-24.518c-0.358 0-0.689-0.191-0.867-0.502-0.178-0.31-0.177-0.693 3e-3 -1.002 2.52-4.319 9.757-16.725 12.259-21.015z"/>
        </clipPath>
        <g clip-path="url(#_clip2)" fill="#fff">
            <path d="m18 23c0-0.552-0.448-1-1-1s-1 0.448-1 1v2c0 0.552 0.448 1 1 1s1-0.448 1-1v-2z"/>
            <path d="m7 23c0-0.552-0.448-1-1-1s-1 0.448-1 1v2c0 0.552 0.448 1 1 1s1-0.448 1-1v-2z"/>
            <path d="m15 9c0-0.552-0.448-1-1-1s-1 0.448-1 1v2c0 0.552 0.448 1 1 1s1-0.448 1-1v-2z"/>
            
                <path d="m21 9c0-0.552-0.448-1-1-1s-1 0.448-1 1v2c0 0.552 0.448 1 1 1s1-0.448 1-1v-2z"/>
                <path d="m24 23c0-0.552-0.448-1-1-1s-1 0.448-1 1v2c0 0.552 0.448 1 1 1s1-0.448 1-1v-2z"/>
                <path d="m29 23c0-0.552-0.448-1-1-1s-1 0.448-1 1v2c0 0.552 0.448 1 1 1s1-0.448 1-1v-2z"/>
            
        </g>
    </g>
</svg>
