<?xml version="1.0" encoding="UTF-8"?>
<!DOCTYPE svg  PUBLIC '-//W3C//DTD SVG 1.1//EN'  'http://www.w3.org/Graphics/SVG/1.1/DTD/svg11.dtd'>
<svg clip-rule="evenodd" fill-rule="evenodd" stroke-linejoin="round" stroke-miterlimit="2" version="1.1" viewBox="0 0 32 32" xml:space="preserve" xmlns="http://www.w3.org/2000/svg">
<metadata>
<rdf:RDF xmlns:cc="http://web.resource.org/cc/" xmlns:dc="http://purl.org/dc/elements/1.1/" xmlns:rdf="http://www.w3.org/1999/02/22-rdf-syntax-ns#">

     <rdf:Description rdf:about="">
       <dc:title>Mutant Standard emoji 2023.12</dc:title>
     </rdf:Description>

    <cc:work rdf:about="">
        <cc:license rdf:resource="http://creativecommons.org/licenses/by-nc-sa/4.0/"/>
        <cc:attributionName>Caius Nocturne</cc:attributionName>
        <cc:attributionURL>http://mutant.tech/</cc:attributionURL>
    </cc:work>

</rdf:RDF>
</metadata>

    <rect id="d6" width="32" height="32" fill="none"/>
    <g id="outline">
        <path d="m16.086 0.619 0.086 4e-3 0.086 6e-3 0.086 9e-3 0.086 0.011 0.085 0.013 0.085 0.016 0.085 0.019 0.084 0.021 0.084 0.024 0.083 0.026 0.083 0.028 0.082 0.031 0.081 0.033 0.08 0.036 0.067 0.032 11.028 5.515 0.079 0.041 0.091 0.052 0.09 0.055 0.088 0.058 0.084 0.061 0.083 0.063 0.08 0.067 0.078 0.069 0.075 0.071 0.072 0.073 0.07 0.076 0.066 0.078 0.064 0.081 0.061 0.082 0.059 0.084 0.055 0.087 0.053 0.088 0.049 0.09 0.046 0.091 0.043 0.093 0.04 0.095 0.037 0.096 0.034 0.098 0.03 0.098 0.027 0.101 0.023 0.101 0.02 0.102 0.017 0.104 0.013 0.104 9e-3 0.105 5e-3 0.105 2e-3 0.088v13.8l-2e-3 0.088-5e-3 0.105-9e-3 0.105-0.013 0.104-0.017 0.104-0.02 0.102-0.023 0.101-0.027 0.1-0.03 0.099-0.034 0.098-0.037 0.096-0.04 0.095-0.043 0.093-0.046 0.092-0.049 0.089-0.053 0.088-0.055 0.087-0.059 0.084-0.061 0.082-0.064 0.081-0.066 0.078-0.07 0.076-0.072 0.073-0.075 0.072-0.078 0.068-0.08 0.067-0.083 0.063-0.085 0.061-0.087 0.058-0.089 0.055-0.092 0.052-0.079 0.041-11.028 5.515-0.067 0.032-0.08 0.036-0.081 0.033-0.082 0.031-0.083 0.028-0.083 0.026-0.084 0.024-0.084 0.021-0.085 0.019-0.085 0.016-0.085 0.013-0.086 0.011-0.086 9e-3 -0.086 6e-3 -0.086 4e-3 -0.086 1e-3 -0.086-1e-3 -0.086-4e-3 -0.086-6e-3 -0.086-9e-3 -0.086-0.011-0.085-0.013-0.085-0.016-0.085-0.019-0.084-0.021-0.084-0.024-0.083-0.026-0.083-0.028-0.082-0.031-0.081-0.033-0.08-0.036-0.067-0.032-11.028-5.515-0.079-0.041-0.092-0.052-0.089-0.055-0.087-0.058-0.085-0.061-0.083-0.063-0.08-0.067-0.078-0.068-0.075-0.072-0.072-0.073-0.07-0.076-0.066-0.078-0.064-0.081-0.062-0.082-0.058-0.084-0.055-0.087-0.053-0.088-0.049-0.089-0.046-0.092-0.043-0.093-0.04-0.095-0.037-0.096-0.034-0.098-0.03-0.099-0.027-0.1-0.023-0.101-0.02-0.102-0.017-0.104-0.013-0.104-9e-3 -0.105-5e-3 -0.105-2e-3 -0.088v-13.8l2e-3 -0.088 5e-3 -0.105 9e-3 -0.105 0.013-0.104 0.017-0.103 0.02-0.103 0.023-0.101 0.027-0.1 0.03-0.099 0.034-0.098 0.037-0.096 0.04-0.095 0.043-0.093 0.046-0.091 0.049-0.09 0.053-0.088 0.055-0.087 0.058-0.084 0.062-0.082 0.064-0.081 0.066-0.078 0.07-0.076 0.072-0.073 0.075-0.071 0.078-0.069 0.08-0.067 0.083-0.063 0.084-0.061 0.088-0.058 0.09-0.055 0.091-0.053 0.079-0.04 11.028-5.515 0.067-0.032 0.08-0.036 0.081-0.033 0.082-0.031 0.083-0.028 0.083-0.026 0.084-0.024 0.084-0.021 0.085-0.019 0.085-0.016 0.085-0.013 0.086-0.011 0.086-9e-3 0.086-6e-3 0.086-4e-3 0.086-1e-3 0.086 1e-3zm-10.086 9.117v12.528l10 5 10-5v-12.528l-10-5-10 5z"/>
    </g>
    <g id="emoji">
        <path d="m4.553 8.224c-0.339 0.169-0.553 0.515-0.553 0.894v13.764c0 0.379 0.214 0.725 0.553 0.894 2.043 1.022 9.143 4.572 11 5.5 0.281 0.141 0.613 0.141 0.894 0 1.857-0.928 8.957-4.478 11-5.5 0.339-0.169 0.553-0.515 0.553-0.894v-13.764c0-0.379-0.214-0.725-0.553-0.894-2.043-1.022-9.143-4.572-11-5.5-0.281-0.141-0.613-0.141-0.894 0-1.857 0.928-8.957 4.478-11 5.5z" fill="#e28f00"/>
        <clipPath id="_clip1">
            <path d="m4.553 8.224c-0.339 0.169-0.553 0.515-0.553 0.894v13.764c0 0.379 0.214 0.725 0.553 0.894 2.043 1.022 9.143 4.572 11 5.5 0.281 0.141 0.613 0.141 0.894 0 1.857-0.928 8.957-4.478 11-5.5 0.339-0.169 0.553-0.515 0.553-0.894v-13.764c0-0.379-0.214-0.725-0.553-0.894-2.043-1.022-9.143-4.572-11-5.5-0.281-0.141-0.613-0.141-0.894 0-1.857 0.928-8.957 4.478-11 5.5z"/>
        </clipPath>
        <g clip-path="url(#_clip1)">
            <path d="m28 8.5v-6.5h-24v6.5s9.377 4.688 11.553 5.776c0.281 0.141 0.613 0.141 0.894 0 2.176-1.088 11.553-5.776 11.553-5.776z" fill="#ffc35b"/>
        </g>
        <path d="m16.029 2.618 0.028 2e-3 0.029 2e-3 0.029 3e-3 0.028 3e-3 0.029 5e-3 0.028 5e-3 0.028 6e-3 0.028 7e-3 0.028 8e-3 0.028 9e-3 0.027 9e-3 0.028 0.011 0.027 0.011 0.027 0.012 11.058 5.529 0.03 0.017 0.03 0.019 0.029 0.019 0.029 0.02 0.054 0.044 0.05 0.046 0.025 0.025 0.023 0.025 0.022 0.026 0.042 0.054 0.019 0.029 0.019 0.028 0.034 0.06 0.015 0.03 0.014 0.031 0.014 0.032 0.012 0.032 0.011 0.032 0.01 0.033 9e-3 0.034 8e-3 0.033 7e-3 0.034 5e-3 0.035 4e-3 0.034 4e-3 0.035 1e-3 0.036 1e-3 0.035v13.764l-1e-3 0.035-1e-3 0.036-4e-3 0.035-4e-3 0.034-5e-3 0.035-7e-3 0.034-8e-3 0.033-9e-3 0.034-0.01 0.033-0.011 0.032-0.012 0.032-0.014 0.032-0.014 0.031-0.015 0.03-0.034 0.06-0.019 0.028-0.019 0.029-0.042 0.054-0.022 0.026-0.023 0.025-0.025 0.025-0.05 0.046-0.054 0.044-0.029 0.02-0.029 0.019-0.03 0.019-0.03 0.017-11.058 5.529-0.027 0.012-0.027 0.011-0.028 0.011-0.027 9e-3 -0.028 9e-3 -0.028 8e-3 -0.028 7e-3 -0.028 6e-3 -0.028 5e-3 -0.029 5e-3 -0.028 3e-3 -0.029 3e-3 -0.029 2e-3 -0.028 2e-3h-0.029-0.029l-0.028-2e-3 -0.029-2e-3 -0.029-3e-3 -0.028-3e-3 -0.029-5e-3 -0.028-5e-3 -0.028-6e-3 -0.028-7e-3 -0.028-8e-3 -0.028-9e-3 -0.027-9e-3 -0.028-0.011-0.027-0.011-0.027-0.012-11.058-5.529-0.03-0.017-0.03-0.019-0.029-0.019-0.029-0.02-0.054-0.044-0.05-0.046-0.025-0.025-0.023-0.025-0.022-0.026-0.042-0.054-0.019-0.029-0.019-0.028-0.034-0.06-0.015-0.03-0.014-0.031-0.014-0.032-0.012-0.032-0.011-0.032-0.01-0.033-9e-3 -0.034-8e-3 -0.033-7e-3 -0.034-5e-3 -0.035-4e-3 -0.034-4e-3 -0.035-1e-3 -0.036-1e-3 -0.035v-13.764l1e-3 -0.035 1e-3 -0.036 4e-3 -0.035 4e-3 -0.034 5e-3 -0.035 7e-3 -0.034 8e-3 -0.033 9e-3 -0.034 0.01-0.033 0.011-0.032 0.012-0.032 0.014-0.032 0.014-0.031 0.015-0.03 0.034-0.06 0.019-0.028 0.019-0.029 0.042-0.054 0.022-0.026 0.023-0.025 0.025-0.025 0.05-0.046 0.054-0.044 0.029-0.02 0.029-0.019 0.03-0.019 0.03-0.017 11.058-5.529 0.027-0.012 0.027-0.011 0.028-0.011 0.027-9e-3 0.028-9e-3 0.028-8e-3 0.028-7e-3 0.028-6e-3 0.028-5e-3 0.029-5e-3 0.028-3e-3 0.029-3e-3 0.029-2e-3 0.028-2e-3h0.029 0.029zm-0.036 1.003-10.985 5.493-8e-3 4e-3v9e-3 13.746 9e-3l8e-3 4e-3 10.985 5.493 7e-3 3e-3 7e-3 -3e-3 10.985-5.493 8e-3 -4e-3v-9e-3 -13.746-9e-3l-8e-3 -4e-3 -10.985-5.493-7e-3 -3e-3 -7e-3 3e-3z" fill="#e28f00"/>
        <ellipse cx="16" cy="8.5" rx="3" ry="1.5" fill="#fff"/>
        <g fill="#fff">
            <path d="m20.5 24.75c0-0.966-0.56-1.75-1.25-1.75s-1.25 0.784-1.25 1.75 0.56 1.75 1.25 1.75 1.25-0.784 1.25-1.75z"/>
            <path d="m26.983 14.25c0-0.966-0.56-1.75-1.25-1.75s-1.25 0.784-1.25 1.75 0.56 1.75 1.25 1.75 1.25-0.784 1.25-1.75z"/>
        </g>
        <g fill="#fff">
            <path d="m14 24.25c0-0.966-0.56-1.75-1.25-1.75s-1.25 0.784-1.25 1.75 0.56 1.75 1.25 1.75 1.25-0.784 1.25-1.75z"/>
            <path d="m14 16.75c0-0.966-0.56-1.75-1.25-1.75s-1.25 0.784-1.25 1.75 0.56 1.75 1.25 1.75 1.25-0.784 1.25-1.75z"/>
            <path d="m7.5 13.75c0-0.966-0.56-1.75-1.25-1.75s-1.25 0.784-1.25 1.75 0.56 1.75 1.25 1.75 1.25-0.784 1.25-1.75z"/>
            <path d="m7.5 21.25c0-0.966-0.56-1.75-1.25-1.75s-1.25 0.784-1.25 1.75 0.56 1.75 1.25 1.75 1.25-0.784 1.25-1.75z"/>
        </g>
    </g>
</svg>
