<?xml version="1.0" encoding="UTF-8"?>
<!DOCTYPE svg  PUBLIC '-//W3C//DTD SVG 1.1//EN'  'http://www.w3.org/Graphics/SVG/1.1/DTD/svg11.dtd'>
<svg clip-rule="evenodd" fill-rule="evenodd" stroke-linejoin="round" stroke-miterlimit="2" version="1.1" viewBox="0 0 32 32" xml:space="preserve" xmlns="http://www.w3.org/2000/svg">
<metadata>
<rdf:RDF xmlns:cc="http://web.resource.org/cc/" xmlns:dc="http://purl.org/dc/elements/1.1/" xmlns:rdf="http://www.w3.org/1999/02/22-rdf-syntax-ns#">

     <rdf:Description rdf:about="">
       <dc:title>Mutant Standard emoji 2023.12</dc:title>
     </rdf:Description>

    <cc:work rdf:about="">
        <cc:license rdf:resource="http://creativecommons.org/licenses/by-nc-sa/4.0/"/>
        <cc:attributionName>Caius Nocturne</cc:attributionName>
        <cc:attributionURL>http://mutant.tech/</cc:attributionURL>
    </cc:work>

</rdf:RDF>
</metadata>

    <rect id="d8" width="32" height="32" fill="none"/>
    <g id="outline">
        <path d="m16.143 1.417 0.144 0.01 0.142 0.017 0.142 0.024 0.142 0.031 0.139 0.038 0.139 0.045 0.137 0.052 0.135 0.058 0.133 0.066 0.13 0.072 0.127 0.079 0.123 0.087 0.12 0.092 0.115 0.099 0.092 0.088 11.622 11.622 0.088 0.092 0.099 0.115 0.093 0.12 0.086 0.123 0.079 0.127 0.072 0.13 0.066 0.133 0.059 0.135 0.051 0.137 0.045 0.138 0.038 0.14 0.031 0.142 0.024 0.142 0.017 0.142 0.01 0.144 3e-3 0.143-3e-3 0.143-0.01 0.144-0.017 0.142-0.024 0.142-0.031 0.142-0.038 0.14-0.045 0.138-0.051 0.137-0.059 0.135-0.066 0.133-0.072 0.13-0.079 0.127-0.086 0.123-0.093 0.12-0.099 0.115-0.088 0.092-11.622 11.622-0.092 0.088-0.115 0.099-0.12 0.093-0.123 0.086-0.127 0.079-0.13 0.072-0.133 0.066-0.135 0.059-0.137 0.051-0.138 0.045-0.14 0.038-0.142 0.031-0.142 0.024-0.142 0.017-0.144 0.01-0.143 3e-3 -0.143-3e-3 -0.144-0.01-0.142-0.017-0.142-0.024-0.142-0.031-0.14-0.038-0.138-0.045-0.137-0.051-0.135-0.059-0.133-0.066-0.13-0.072-0.127-0.079-0.123-0.086-0.12-0.093-0.115-0.099-0.092-0.088-11.622-11.622-0.088-0.092-0.099-0.115-0.092-0.12-0.087-0.123-0.079-0.127-0.072-0.13-0.066-0.133-0.058-0.135-0.052-0.137-0.045-0.139-0.038-0.139-0.031-0.142-0.024-0.142-0.017-0.142-0.01-0.144-3e-3 -0.143 3e-3 -0.143 0.01-0.144 0.017-0.142 0.024-0.142 0.031-0.142 0.038-0.139 0.045-0.139 0.052-0.137 0.058-0.135 0.066-0.133 0.072-0.13 0.079-0.127 0.087-0.123 0.092-0.12 0.099-0.115 0.088-0.092 11.622-11.622 0.092-0.088 0.115-0.099 0.12-0.092 0.123-0.087 0.127-0.079 0.13-0.072 0.133-0.066 0.135-0.058 0.137-0.052 0.139-0.045 0.139-0.038 0.142-0.031 0.142-0.024 0.142-0.017 0.144-0.01 0.143-3e-3 0.143 3e-3zm-10.315 14.583 10.172 10.172 10.172-10.172-10.172-10.172-10.172 10.172z"/>
    </g>
    <g id="emoji">
        <path d="m3.707 16.707c-0.39-0.39-0.39-1.024 0-1.414l11.586-11.586c0.39-0.39 1.024-0.39 1.414 0l11.586 11.586c0.39 0.39 0.39 1.024 0 1.414l-11.586 11.586c-0.39 0.39-1.024 0.39-1.414 0l-11.586-11.586z" fill="#4cbf1e"/>
        <clipPath id="_clip1">
            <path d="m3.707 16.707c-0.39-0.39-0.39-1.024 0-1.414l11.586-11.586c0.39-0.39 1.024-0.39 1.414 0l11.586 11.586c0.39 0.39 0.39 1.024 0 1.414l-11.586 11.586c-0.39 0.39-1.024 0.39-1.414 0l-11.586-11.586z"/>
        </clipPath>
        <g clip-path="url(#_clip1)">
            <path d="m16 4s2.718 7.528 3.848 10.657c0.111 0.307 0.066 0.648-0.122 0.914-0.187 0.267-0.492 0.426-0.818 0.426-4.467 1e-3 -17.908 3e-3 -17.908 3e-3v-12h15z" fill="#77e34d"/>
        </g>
        <path d="m16.048 3.415 0.048 4e-3 0.048 6e-3 0.047 8e-3 0.047 0.01 0.047 0.012 0.046 0.015 0.045 0.017 0.045 0.02 0.044 0.022 0.043 0.024 0.042 0.026 0.041 0.029 0.04 0.03 0.039 0.034 0.037 0.035 11.586 11.586 0.035 0.037 0.034 0.039 0.03 0.04 0.029 0.041 0.026 0.042 0.024 0.043 0.022 0.044 0.02 0.045 0.017 0.045 0.015 0.046 0.012 0.047 0.01 0.047 8e-3 0.047 6e-3 0.048 4e-3 0.048 1e-3 0.048-1e-3 0.048-4e-3 0.048-6e-3 0.048-8e-3 0.047-0.01 0.047-0.012 0.047-0.015 0.046-0.017 0.045-0.02 0.045-0.022 0.044-0.024 0.043-0.026 0.042-0.029 0.041-0.03 0.04-0.034 0.039-0.035 0.037-11.586 11.586-0.037 0.035-0.039 0.034-0.04 0.03-0.041 0.029-0.042 0.026-0.043 0.024-0.044 0.022-0.045 0.02-0.045 0.017-0.046 0.015-0.047 0.012-0.047 0.01-0.047 8e-3 -0.048 6e-3 -0.048 4e-3 -0.048 1e-3 -0.048-1e-3 -0.048-4e-3 -0.048-6e-3 -0.047-8e-3 -0.047-0.01-0.047-0.012-0.046-0.015-0.045-0.017-0.045-0.02-0.044-0.022-0.043-0.024-0.042-0.026-0.041-0.029-0.04-0.03-0.039-0.034-0.037-0.035-11.586-11.586-0.035-0.037-0.034-0.039-0.03-0.04-0.029-0.041-0.026-0.042-0.024-0.043-0.022-0.044-0.02-0.045-0.017-0.045-0.015-0.046-0.012-0.047-0.01-0.047-8e-3 -0.047-6e-3 -0.048-4e-3 -0.048-1e-3 -0.048 1e-3 -0.048 4e-3 -0.048 6e-3 -0.048 8e-3 -0.047 0.01-0.047 0.012-0.047 0.015-0.046 0.017-0.045 0.02-0.045 0.022-0.044 0.024-0.043 0.026-0.042 0.029-0.041 0.03-0.04 0.034-0.039 0.035-0.037 11.586-11.586 0.037-0.035 0.039-0.034 0.04-0.03 0.041-0.029 0.042-0.026 0.043-0.024 0.044-0.022 0.045-0.02 0.045-0.017 0.046-0.015 0.047-0.012 0.047-0.01 0.047-8e-3 0.048-6e-3 0.048-4e-3 0.048-1e-3 0.048 1e-3zm-0.057 1.008-11.568 11.568-8e-3 9e-3 8e-3 9e-3 11.568 11.568 9e-3 8e-3 9e-3 -8e-3 11.568-11.568 8e-3 -9e-3 -8e-3 -9e-3 -11.568-11.568-9e-3 -8e-3 -9e-3 8e-3z" fill="#4cbf1e"/>
        <path d="m3.707 16.707c-0.39-0.39-0.39-1.024 0-1.414l11.586-11.586c0.39-0.39 1.024-0.39 1.414 0l11.586 11.586c0.39 0.39 0.39 1.024 0 1.414l-11.586 11.586c-0.39 0.39-1.024 0.39-1.414 0l-11.586-11.586z" fill="none"/>
        <clipPath id="_clip2">
            <path d="m3.707 16.707c-0.39-0.39-0.39-1.024 0-1.414l11.586-11.586c0.39-0.39 1.024-0.39 1.414 0l11.586 11.586c0.39 0.39 0.39 1.024 0 1.414l-11.586 11.586c-0.39 0.39-1.024 0.39-1.414 0l-11.586-11.586z"/>
        </clipPath>
        <g clip-path="url(#_clip2)" fill="#fff">
            <path d="m13 10c0-0.552-0.448-1-1-1s-1 0.448-1 1v2c0 0.552 0.448 1 1 1s1-0.448 1-1v-2z"/>
            
                <path d="m13 20c0-0.552-0.448-1-1-1s-1 0.448-1 1v2c0 0.552 0.448 1 1 1s1-0.448 1-1v-2z"/>
                <path d="m25 20c0-0.552-0.448-1-1-1s-1 0.448-1 1v2c0 0.552 0.448 1 1 1s1-0.448 1-1v-2z"/>
                <path d="m25 10c0-0.552-0.448-1-1-1s-1 0.448-1 1v2c0 0.552 0.448 1 1 1s1-0.448 1-1v-2z"/>
            
        </g>
    </g>
</svg>
