<?xml version="1.0" encoding="UTF-8"?>
<!DOCTYPE svg  PUBLIC '-//W3C//DTD SVG 1.1//EN'  'http://www.w3.org/Graphics/SVG/1.1/DTD/svg11.dtd'>
<svg clip-rule="evenodd" fill-rule="evenodd" stroke-linejoin="round" stroke-miterlimit="2" version="1.1" viewBox="0 0 32 32" xml:space="preserve" xmlns="http://www.w3.org/2000/svg">
<metadata>
<rdf:RDF xmlns:cc="http://web.resource.org/cc/" xmlns:dc="http://purl.org/dc/elements/1.1/" xmlns:rdf="http://www.w3.org/1999/02/22-rdf-syntax-ns#">

     <rdf:Description rdf:about="">
       <dc:title>Mutant Standard emoji 2023.12</dc:title>
     </rdf:Description>

    <cc:work rdf:about="">
        <cc:license rdf:resource="http://creativecommons.org/licenses/by-nc-sa/4.0/"/>
        <cc:attributionName>Caius Nocturne</cc:attributionName>
        <cc:attributionURL>http://mutant.tech/</cc:attributionURL>
    </cc:work>

</rdf:RDF>
</metadata>

    <rect id="hanafuda_card" width="32" height="32" fill="none"/>
    <clipPath id="_clip1">
        <rect width="32" height="32"/>
    </clipPath>
    <g clip-path="url(#_clip1)">
        <g id="outline">
            <path d="m24.149 3e-3c0.131 0.01 0.164 0.01 0.294 0.029 0.242 0.036 0.479 0.102 0.705 0.196 0.823 0.341 1.463 1.047 1.723 1.899 0.084 0.277 0.122 0.56 0.129 0.848v26.05c-3e-3 0.121-2e-3 0.145-0.014 0.272-0.024 0.244-0.079 0.484-0.161 0.715-0.301 0.838-0.975 1.513-1.814 1.813-0.23 0.083-0.471 0.137-0.714 0.161-0.127 0.012-0.152 0.011-0.272 0.014h-16.05c-0.12-3e-3 -0.145-2e-3 -0.272-0.014-0.243-0.024-0.484-0.079-0.715-0.161-0.838-0.3-1.513-0.975-1.813-1.814-0.083-0.23-0.137-0.471-0.161-0.715-0.012-0.123-0.011-0.152-0.014-0.27v-26.052c3e-3 -0.118 2e-3 -0.147 0.014-0.27 0.024-0.244 0.078-0.484 0.161-0.715 0.3-0.839 0.975-1.514 1.813-1.814 0.231-0.082 0.472-0.137 0.715-0.161 0.127-0.012 0.152-0.011 0.272-0.014 5.391 0 10.784-0.13 16.174 3e-3z" fill-rule="nonzero"/>
        </g>
        <g id="emoji">
            <path d="m25 3c0-0.265-0.105-0.52-0.293-0.707-0.187-0.188-0.442-0.293-0.707-0.293h-16c-0.265 0-0.52 0.105-0.707 0.293-0.188 0.187-0.293 0.442-0.293 0.707v26c0 0.265 0.105 0.52 0.293 0.707 0.187 0.188 0.442 0.293 0.707 0.293h16c0.265 0 0.52-0.105 0.707-0.293 0.188-0.187 0.293-0.442 0.293-0.707v-26z" fill="#eb0505"/>
            <path d="m8 19.5v-16.5h16v17.5l-16-1z" fill="#ff7272"/>
            <path d="m8 19.5 2.528-1.264c2.815-1.408 6.129-1.408 8.944 0l4.528 2.264v8.5h-16v-9.5z" fill="#370202"/>
            <circle cx="13" cy="10" r="5" fill="#fff4f4"/>
        </g>
    </g>
</svg>
