<?xml version="1.0" encoding="UTF-8"?>
<!DOCTYPE svg  PUBLIC '-//W3C//DTD SVG 1.1//EN'  'http://www.w3.org/Graphics/SVG/1.1/DTD/svg11.dtd'>
<svg clip-rule="evenodd" fill-rule="evenodd" stroke-linejoin="round" stroke-miterlimit="1.4142" version="1.1" viewBox="0 0 32 32" xml:space="preserve" xmlns="http://www.w3.org/2000/svg"><rect id="aro_sign" width="32" height="32" fill="none"/><clipPath id="_clip1"><rect width="32" height="32"/></clipPath><g clip-path="url(#_clip1)"><g id="outline"><path d="m24.099 1e-3 0.1 1e-3 0.099 3e-3 0.099 5e-3 0.098 5e-3 0.099 7e-3 0.098 8e-3 0.099 9e-3 0.098 0.01 0.097 0.012 0.098 0.013 0.097 0.014 0.097 0.015 0.097 0.016 0.097 0.017 0.096 0.019 0.096 0.02 0.096 0.021 0.095 0.022 0.095 0.023 0.095 0.025 0.094 0.025 0.094 0.027 0.094 0.028 0.093 0.029 0.093 0.03 0.092 0.031 0.092 0.032 0.092 0.034 0.182 0.07 0.09 0.037 0.09 0.038 0.09 0.039 0.089 0.04 0.088 0.041 0.088 0.042 0.088 0.044 0.087 0.044 0.086 0.045 0.086 0.047 0.17 0.096 0.084 0.05 0.084 0.051 0.083 0.051 0.083 0.053 0.081 0.054 0.082 0.055 0.08 0.056 0.08 0.057 0.08 0.058 0.078 0.059 0.078 0.06 0.078 0.061 0.076 0.062 0.076 0.063 0.075 0.064 0.075 0.065 0.073 0.066 0.074 0.067 0.072 0.067 0.071 0.069 0.071 0.07 0.07 0.071 0.069 0.071 0.134 0.146 0.066 0.073 0.065 0.075 0.064 0.075 0.063 0.076 0.062 0.077 0.061 0.077 0.06 0.078 0.059 0.078 0.058 0.08 0.057 0.08 0.056 0.08 0.055 0.082 0.054 0.082 0.053 0.082 0.051 0.083 0.051 0.084 0.05 0.084 0.049 0.085 0.047 0.085 0.047 0.086 0.045 0.086 0.044 0.087 0.044 0.088 0.042 0.088 0.041 0.088 0.04 0.089 0.039 0.09 0.038 0.09 0.037 0.09 0.036 0.091 0.034 0.091 0.034 0.092 0.032 0.092 0.031 0.092 0.03 0.093 0.029 0.093 0.028 0.094 0.027 0.094 0.025 0.094 0.025 0.095 0.023 0.095 0.022 0.095 0.021 0.096 0.02 0.096 0.019 0.096 0.017 0.097 0.016 0.097 0.015 0.097 0.014 0.097 0.013 0.098 0.012 0.097 0.01 0.098 9e-3 0.099 8e-3 0.098 7e-3 0.098 5e-3 0.099 5e-3 0.1 3e-3 0.098 1e-3 0.099 1e-3 0.094v16.012l-1e-3 0.094-1e-3 0.099-3e-3 0.098-5e-3 0.1-5e-3 0.099-7e-3 0.098-8e-3 0.098-9e-3 0.099-0.01 0.098-0.012 0.097-0.013 0.098-0.014 0.097-0.015 0.097-0.016 0.097-0.017 0.097-0.019 0.096-0.02 0.096-0.021 0.096-0.022 0.095-0.023 0.095-0.025 0.095-0.025 0.094-0.027 0.094-0.028 0.094-0.029 0.093-0.03 0.093-0.031 0.092-0.032 0.092-0.034 0.092-0.034 0.091-0.036 0.091-0.037 0.09-0.038 0.09-0.039 0.09-0.04 0.089-0.041 0.088-0.042 0.088-0.044 0.088-0.044 0.087-0.045 0.086-0.047 0.086-0.047 0.085-0.049 0.085-0.05 0.084-0.051 0.084-0.051 0.083-0.053 0.082-0.054 0.082-0.055 0.082-0.056 0.08-0.057 0.08-0.058 0.08-0.059 0.078-0.06 0.078-0.061 0.077-0.062 0.077-0.063 0.076-0.064 0.075-0.065 0.075-0.065 0.073-0.068 0.073-0.067 0.073-0.069 0.071-0.07 0.071-0.071 0.07-0.071 0.069-0.146 0.134-0.073 0.066-0.075 0.065-0.075 0.064-0.076 0.063-0.076 0.062-0.078 0.061-0.078 0.06-0.078 0.059-0.08 0.058-0.08 0.057-0.08 0.056-0.082 0.055-0.081 0.054-0.083 0.053-0.083 0.051-0.084 0.051-0.084 0.05-0.17 0.096-0.086 0.047-0.086 0.045-0.087 0.044-0.088 0.044-0.088 0.042-0.088 0.041-0.089 0.04-0.09 0.039-0.09 0.038-0.09 0.037-0.091 0.036-0.091 0.034-0.092 0.034-0.092 0.032-0.092 0.031-0.093 0.03-0.093 0.029-0.094 0.028-0.094 0.027-0.094 0.025-0.095 0.025-0.095 0.023-0.095 0.022-0.096 0.021-0.096 0.02-0.096 0.019-0.097 0.017-0.097 0.016-0.097 0.015-0.097 0.014-0.098 0.013-0.097 0.012-0.098 0.01-0.099 9e-3 -0.098 8e-3 -0.099 7e-3 -0.098 5e-3 -0.099 5e-3 -0.099 3e-3 -0.1 1e-3 -0.093 1e-3h-16.012l-0.093-1e-3 -0.1-1e-3 -0.099-3e-3 -0.099-5e-3 -0.098-5e-3 -0.099-7e-3 -0.098-8e-3 -0.099-9e-3 -0.098-0.01-0.097-0.012-0.098-0.013-0.097-0.014-0.097-0.015-0.097-0.016-0.097-0.017-0.096-0.019-0.096-0.02-0.096-0.021-0.095-0.022-0.095-0.023-0.095-0.025-0.094-0.025-0.094-0.027-0.094-0.028-0.093-0.029-0.093-0.03-0.092-0.031-0.092-0.032-0.092-0.034-0.091-0.034-0.091-0.036-0.09-0.037-0.09-0.038-0.09-0.039-0.089-0.04-0.088-0.041-0.088-0.042-0.088-0.044-0.087-0.044-0.086-0.045-0.086-0.047-0.085-0.047-0.085-0.049-0.084-0.05-0.084-0.051-0.083-0.051-0.083-0.053-0.081-0.054-0.082-0.055-0.08-0.056-0.08-0.057-0.08-0.058-0.078-0.059-0.078-0.06-0.078-0.061-0.076-0.062-0.076-0.063-0.075-0.064-0.075-0.065-0.074-0.066-0.072-0.067-0.073-0.067-0.071-0.069-0.071-0.07-0.07-0.071-0.069-0.071-0.134-0.146-0.066-0.073-0.065-0.075-0.064-0.075-0.063-0.076-0.062-0.076-0.061-0.078-0.06-0.078-0.059-0.078-0.058-0.08-0.057-0.08-0.056-0.08-0.055-0.082-0.054-0.081-0.053-0.083-0.102-0.166-0.05-0.085-0.049-0.085-0.047-0.085-0.047-0.086-0.045-0.086-0.044-0.087-0.044-0.088-0.042-0.088-0.041-0.088-0.04-0.089-0.039-0.089-0.038-0.091-0.037-0.09-0.036-0.091-0.034-0.091-0.034-0.092-0.032-0.092-0.031-0.092-0.03-0.093-0.029-0.093-0.028-0.094-0.027-0.094-0.025-0.094-0.025-0.095-0.023-0.095-0.022-0.095-0.021-0.096-0.02-0.096-0.019-0.096-0.017-0.097-0.016-0.097-0.015-0.097-0.014-0.097-0.013-0.098-0.012-0.097-0.01-0.098-9e-3 -0.098-8e-3 -0.099-7e-3 -0.099-5e-3 -0.098-8e-3 -0.198-1e-3 -0.1-1e-3 -0.093v-16.012l1e-3 -0.093 1e-3 -0.1 8e-3 -0.198 5e-3 -0.098 7e-3 -0.099 8e-3 -0.099 9e-3 -0.098 0.01-0.098 0.012-0.097 0.013-0.098 0.014-0.097 0.015-0.097 0.016-0.097 0.017-0.097 0.019-0.096 0.02-0.096 0.021-0.096 0.022-0.095 0.023-0.095 0.025-0.095 0.025-0.094 0.027-0.094 0.028-0.094 0.029-0.093 0.03-0.093 0.031-0.092 0.032-0.092 0.034-0.092 0.034-0.091 0.036-0.091 0.037-0.09 0.038-0.091 0.039-0.089 0.04-0.089 0.041-0.088 0.042-0.088 0.044-0.088 0.044-0.087 0.045-0.086 0.047-0.086 0.047-0.085 0.049-0.085 0.05-0.084 0.051-0.084 0.051-0.083 0.053-0.083 0.054-0.081 0.055-0.082 0.056-0.08 0.057-0.08 0.058-0.08 0.059-0.078 0.06-0.078 0.061-0.078 0.062-0.076 0.063-0.076 0.064-0.075 0.065-0.075 0.066-0.074 0.067-0.072 0.067-0.073 0.069-0.071 0.07-0.071 0.071-0.07 0.071-0.069 0.072-0.067 0.073-0.067 0.074-0.066 0.075-0.065 0.075-0.064 0.076-0.063 0.076-0.062 0.078-0.061 0.078-0.06 0.078-0.059 0.08-0.058 0.08-0.057 0.08-0.056 0.082-0.055 0.081-0.054 0.083-0.053 0.083-0.051 0.084-0.051 0.084-0.05 0.085-0.049 0.085-0.047 0.086-0.047 0.086-0.045 0.087-0.044 0.088-0.044 0.088-0.042 0.088-0.041 0.089-0.04 0.09-0.039 0.09-0.038 0.09-0.037 0.091-0.036 0.091-0.034 0.092-0.034 0.092-0.032 0.092-0.031 0.093-0.03 0.093-0.029 0.094-0.028 0.094-0.027 0.094-0.025 0.095-0.025 0.095-0.023 0.095-0.022 0.096-0.021 0.096-0.02 0.096-0.019 0.097-0.017 0.097-0.016 0.097-0.015 0.097-0.014 0.098-0.013 0.097-0.012 0.098-0.01 0.099-9e-3 0.098-8e-3 0.099-7e-3 0.098-5e-3 0.099-5e-3 0.099-3e-3 0.1-1e-3 0.093-1e-3h16.012l0.093 1e-3zm-16.093 3.999h-0.056l-0.049 1e-3 -0.05 2e-3 -0.049 2e-3 -0.05 3e-3 -0.049 3e-3 -0.049 4e-3 -0.098 0.01-0.098 0.012-0.049 7e-3 -0.048 7e-3 -0.049 9e-3 -0.048 8e-3 -0.048 0.01-0.048 9e-3 -0.048 0.011-0.047 0.011-0.048 0.012-0.047 0.012-0.094 0.026-0.094 0.028-0.046 0.015-0.047 0.016-0.046 0.016-0.046 0.017-0.045 0.017-0.045 0.018-0.046 0.019-0.045 0.018-0.044 0.02-0.045 0.02-0.132 0.063-0.043 0.023-0.043 0.022-0.043 0.024-0.043 0.023-0.043 0.025-0.042 0.024-0.042 0.026-0.082 0.052-0.041 0.027-0.041 0.028-0.08 0.056-0.04 0.029-0.039 0.029-0.039 0.03-0.039 0.031-0.076 0.062-0.038 0.032-0.074 0.066-0.036 0.033-0.036 0.034-0.072 0.07-0.034 0.035-0.035 0.036-0.034 0.036-0.033 0.036-0.033 0.037-0.033 0.038-0.032 0.037-0.062 0.076-0.031 0.039-0.03 0.039-0.029 0.039-0.029 0.04-0.056 0.08-0.028 0.041-0.027 0.041-0.052 0.082-0.026 0.042-0.024 0.042-0.025 0.043-0.024 0.043-0.023 0.042-0.022 0.044-0.023 0.043-0.063 0.132-0.02 0.045-0.02 0.044-0.018 0.045-0.019 0.045-0.018 0.046-0.017 0.046-0.017 0.045-0.016 0.046-0.016 0.047-0.015 0.046-0.014 0.047-0.014 0.046-0.013 0.048-0.013 0.047-0.012 0.047-0.012 0.048-0.011 0.047-0.011 0.048-9e-3 0.048-0.01 0.048-8e-3 0.048-9e-3 0.049-7e-3 0.048-7e-3 0.049-0.012 0.098-0.01 0.098-4e-3 0.049-6e-3 0.098-4e-3 0.1-1e-3 0.049v0.056 15.988 0.056l1e-3 0.049 4e-3 0.1 6e-3 0.098 4e-3 0.049 0.01 0.098 0.012 0.098 7e-3 0.049 7e-3 0.048 9e-3 0.049 8e-3 0.048 0.01 0.048 9e-3 0.048 0.011 0.048 0.011 0.047 0.012 0.048 0.012 0.047 0.013 0.047 0.013 0.048 0.014 0.046 0.014 0.047 0.015 0.046 0.016 0.047 0.016 0.046 0.017 0.045 0.017 0.046 0.018 0.046 0.019 0.045 0.018 0.045 0.02 0.044 0.02 0.045 0.063 0.132 0.023 0.043 0.022 0.044 0.023 0.042 0.024 0.043 0.025 0.043 0.024 0.042 0.026 0.042 0.052 0.082 0.027 0.041 0.028 0.041 0.056 0.08 0.029 0.04 0.029 0.039 0.03 0.039 0.031 0.039 0.062 0.076 0.032 0.037 0.033 0.038 0.033 0.037 0.033 0.036 0.034 0.036 0.035 0.036 0.034 0.035 0.072 0.07 0.036 0.034 0.036 0.033 0.074 0.066 0.038 0.032 0.076 0.062 0.039 0.031 0.039 0.03 0.039 0.029 0.04 0.029 0.08 0.056 0.041 0.028 0.041 0.027 0.082 0.052 0.042 0.026 0.042 0.024 0.043 0.025 0.043 0.023 0.043 0.024 0.043 0.022 0.043 0.023 0.132 0.063 0.045 0.02 0.044 0.02 0.045 0.018 0.045 0.019 0.046 0.018 0.045 0.017 0.046 0.017 0.046 0.016 0.047 0.016 0.046 0.015 0.094 0.028 0.046 0.013 0.048 0.013 0.047 0.012 0.048 0.012 0.047 0.011 0.048 0.011 0.048 9e-3 0.048 0.01 0.048 8e-3 0.049 9e-3 0.048 7e-3 0.049 7e-3 0.098 0.012 0.098 0.01 0.049 4e-3 0.049 3e-3 0.05 3e-3 0.049 2e-3 0.05 2e-3 0.049 1e-3h0.056 15.988 0.056l0.049-1e-3 0.05-2e-3 0.049-2e-3 0.05-3e-3 0.049-3e-3 0.049-4e-3 0.098-0.01 0.098-0.012 0.049-7e-3 0.048-7e-3 0.049-9e-3 0.048-8e-3 0.048-0.01 0.048-9e-3 0.048-0.011 0.047-0.011 0.048-0.012 0.047-0.012 0.048-0.013 0.046-0.013 0.094-0.028 0.046-0.015 0.047-0.016 0.046-0.016 0.045-0.017 0.046-0.017 0.046-0.018 0.045-0.019 0.045-0.018 0.044-0.02 0.045-0.02 0.132-0.063 0.043-0.023 0.044-0.022 0.043-0.024 0.042-0.023 0.043-0.025 0.042-0.025 0.041-0.025 0.042-0.026 0.041-0.026 0.082-0.054 0.04-0.028 0.08-0.058 0.039-0.029 0.039-0.03 0.039-0.031 0.076-0.062 0.038-0.032 0.074-0.066 0.036-0.033 0.036-0.034 0.036-0.035 0.07-0.07 0.035-0.036 0.034-0.036 0.033-0.036 0.033-0.037 0.033-0.038 0.032-0.037 0.062-0.076 0.031-0.039 0.03-0.039 0.029-0.039 0.058-0.08 0.028-0.04 0.054-0.082 0.052-0.082 0.025-0.042 0.025-0.043 0.025-0.042 0.023-0.042 0.024-0.044 0.023-0.043 0.022-0.043 0.063-0.132 0.02-0.045 0.019-0.044 0.019-0.045 0.019-0.046 0.018-0.045 0.017-0.045 0.017-0.046 0.016-0.046 0.016-0.047 0.015-0.046 0.014-0.047 0.014-0.046 0.013-0.048 0.013-0.047 0.012-0.047 0.012-0.048 0.011-0.047 0.011-0.048 9e-3 -0.048 0.01-0.048 8e-3 -0.048 9e-3 -0.049 7e-3 -0.048 7e-3 -0.049 0.012-0.098 0.01-0.098 4e-3 -0.049 6e-3 -0.098 4e-3 -0.1 1e-3 -0.049v-0.056-15.988-0.056l-1e-3 -0.049-4e-3 -0.1-6e-3 -0.098-4e-3 -0.049-0.01-0.098-0.012-0.098-7e-3 -0.049-7e-3 -0.048-9e-3 -0.049-8e-3 -0.048-0.01-0.048-9e-3 -0.048-0.011-0.048-0.011-0.047-0.012-0.048-0.012-0.047-0.013-0.047-0.013-0.048-0.014-0.046-0.014-0.047-0.015-0.046-0.016-0.047-0.016-0.046-0.017-0.046-0.017-0.045-0.018-0.045-0.019-0.046-0.019-0.045-0.019-0.044-0.02-0.045-0.063-0.132-0.022-0.043-0.023-0.043-0.024-0.044-0.023-0.042-0.025-0.042-0.025-0.043-0.025-0.042-0.052-0.082-0.054-0.082-0.028-0.04-0.058-0.08-0.029-0.039-0.03-0.039-0.031-0.039-0.062-0.076-0.032-0.037-0.033-0.038-0.033-0.037-0.033-0.036-0.034-0.036-0.035-0.036-0.07-0.07-0.036-0.035-0.036-0.034-0.036-0.033-0.074-0.066-0.038-0.032-0.076-0.062-0.039-0.031-0.039-0.03-0.039-0.029-0.08-0.058-0.04-0.028-0.082-0.054-0.041-0.026-0.042-0.026-0.041-0.025-0.042-0.025-0.043-0.025-0.042-0.023-0.043-0.024-0.044-0.022-0.043-0.023-0.132-0.063-0.045-0.02-0.044-0.02-0.045-0.018-0.045-0.019-0.046-0.018-0.046-0.017-0.045-0.017-0.046-0.016-0.047-0.016-0.046-0.015-0.094-0.028-0.094-0.026-0.047-0.012-0.048-0.012-0.047-0.011-0.048-0.011-0.048-9e-3 -0.048-0.01-0.048-8e-3 -0.049-9e-3 -0.048-7e-3 -0.049-7e-3 -0.098-0.012-0.098-0.01-0.049-4e-3 -0.049-3e-3 -0.05-3e-3 -0.049-2e-3 -0.05-2e-3 -0.049-1e-3h-0.056-15.988z"/></g><g id="emoji"><path d="m30 8c0-1.591-0.632-3.117-1.757-4.243-1.126-1.125-2.652-1.757-4.243-1.757h-16c-1.591 0-3.117 0.632-4.243 1.757-1.125 1.126-1.757 2.652-1.757 4.243v16c0 1.591 0.632 3.117 1.757 4.243 1.126 1.125 2.652 1.757 4.243 1.757h16c1.591 0 3.117-0.632 4.243-1.757 1.125-1.126 1.757-2.652 1.757-4.243v-16z" fill="#40ac3e"/><path d="m9.173 19.794h-2.881l-0.501 2.398h-2.291l3.168-12.348h2.147l3.15 12.348h-2.291l-0.501-2.398zm-0.394-1.969-1.038-5.011-1.038 5.011h2.076z" fill="#fff" fill-rule="nonzero"/><path d="m16.081 17.235h-1.056v4.957h-2.201v-12.348h3.364c1.217 0 2.079 0.292 2.586 0.877 0.508 0.584 0.761 1.521 0.761 2.809 0 0.824-0.113 1.51-0.34 2.058-0.227 0.549-0.597 0.961-1.11 1.235l1.844 5.369h-2.291l-1.557-4.957zm-1.056-1.969h1.146c0.441 0 0.745-0.146 0.912-0.438 0.167-0.293 0.251-0.725 0.251-1.298 0-0.572-0.081-1.002-0.242-1.288-0.161-0.287-0.468-0.43-0.921-0.43h-1.146v3.454z" fill="#fff" fill-rule="nonzero"/><path d="m24.439 22.335c-1.062 0-1.903-0.301-2.524-0.903-0.62-0.603-0.93-1.483-0.93-2.64v-5.566c0-1.169 0.328-2.055 0.984-2.658 0.656-0.602 1.521-0.903 2.595-0.903 1.038 0 1.87 0.301 2.496 0.903 0.627 0.603 0.94 1.489 0.94 2.658v5.566c0 1.145-0.331 2.022-0.993 2.631-0.662 0.608-1.518 0.912-2.568 0.912zm0.071-1.986c0.418 0 0.737-0.158 0.958-0.474 0.22-0.317 0.331-0.761 0.331-1.334v-4.957c0-0.632-0.108-1.113-0.322-1.441-0.215-0.328-0.537-0.492-0.967-0.492-0.465 0-0.802 0.161-1.011 0.483-0.209 0.323-0.313 0.806-0.313 1.45v4.957c0 1.205 0.441 1.808 1.324 1.808z" fill="#fff" fill-rule="nonzero"/></g></g></svg>
