<?xml version="1.0" encoding="UTF-8"?>
<!DOCTYPE svg  PUBLIC '-//W3C//DTD SVG 1.1//EN'  'http://www.w3.org/Graphics/SVG/1.1/DTD/svg11.dtd'>
<svg clip-rule="evenodd" fill-rule="evenodd" stroke-linejoin="round" stroke-miterlimit="1.4142" version="1.1" viewBox="0 0 32 32" xml:space="preserve" xmlns="http://www.w3.org/2000/svg"><rect id="gay" width="32" height="32" fill="none"/><clipPath id="_clip1"><rect width="32" height="32"/></clipPath><g clip-path="url(#_clip1)"><g id="outline"><path d="m24.099 1e-3 0.1 1e-3 0.099 3e-3 0.099 5e-3 0.098 5e-3 0.099 7e-3 0.098 8e-3 0.099 9e-3 0.098 0.01 0.097 0.012 0.098 0.013 0.097 0.014 0.097 0.015 0.097 0.016 0.097 0.017 0.096 0.019 0.096 0.02 0.096 0.021 0.095 0.022 0.095 0.023 0.095 0.025 0.094 0.025 0.094 0.027 0.094 0.028 0.093 0.029 0.093 0.03 0.092 0.031 0.092 0.032 0.092 0.034 0.091 0.034 0.091 0.036 0.09 0.037 0.09 0.038 0.09 0.039 0.089 0.04 0.088 0.041 0.088 0.042 0.088 0.044 0.087 0.044 0.086 0.045 0.086 0.047 0.085 0.047 0.085 0.049 0.084 0.05 0.084 0.051 0.083 0.051 0.083 0.053 0.081 0.054 0.082 0.055 0.08 0.056 0.08 0.057 0.08 0.058 0.078 0.059 0.078 0.06 0.078 0.061 0.076 0.062 0.076 0.063 0.075 0.064 0.075 0.065 0.073 0.066 0.074 0.067 0.072 0.067 0.071 0.069 0.071 0.07 0.07 0.071 0.069 0.071 0.134 0.146 0.066 0.073 0.065 0.075 0.064 0.075 0.063 0.076 0.062 0.076 0.061 0.078 0.06 0.078 0.059 0.078 0.058 0.08 0.057 0.08 0.056 0.08 0.055 0.082 0.054 0.081 0.053 0.083 0.051 0.083 0.051 0.084 0.05 0.084 0.096 0.17 0.047 0.086 0.045 0.086 0.044 0.087 0.044 0.088 0.042 0.088 0.041 0.088 0.04 0.089 0.039 0.09 0.038 0.089 0.037 0.091 0.036 0.091 0.034 0.091 0.034 0.092 0.032 0.092 0.031 0.092 0.03 0.093 0.029 0.093 0.028 0.094 0.027 0.094 0.025 0.094 0.025 0.095 0.023 0.095 0.022 0.095 0.021 0.096 0.02 0.096 0.019 0.096 0.017 0.097 0.016 0.097 0.015 0.097 0.014 0.097 0.013 0.098 0.012 0.097 0.01 0.098 9e-3 0.099 8e-3 0.098 7e-3 0.099 5e-3 0.098 5e-3 0.099 3e-3 0.099 1e-3 0.1 1e-3 0.093v16.012l-1e-3 0.093-1e-3 0.1-3e-3 0.099-5e-3 0.099-5e-3 0.098-7e-3 0.099-8e-3 0.098-9e-3 0.099-0.01 0.098-0.012 0.097-0.013 0.098-0.014 0.097-0.015 0.097-0.016 0.097-0.017 0.097-0.019 0.096-0.02 0.096-0.021 0.096-0.022 0.095-0.023 0.095-0.025 0.095-0.025 0.094-0.027 0.094-0.028 0.094-0.029 0.093-0.03 0.093-0.031 0.092-0.032 0.092-0.034 0.092-0.034 0.091-0.036 0.091-0.037 0.091-0.038 0.089-0.039 0.09-0.04 0.089-0.041 0.088-0.042 0.088-0.044 0.088-0.044 0.087-0.045 0.086-0.047 0.086-0.096 0.17-0.05 0.084-0.051 0.084-0.051 0.083-0.053 0.083-0.054 0.081-0.055 0.082-0.056 0.08-0.057 0.08-0.058 0.08-0.059 0.078-0.06 0.078-0.061 0.078-0.062 0.076-0.063 0.076-0.064 0.075-0.065 0.075-0.066 0.073-0.134 0.146-0.069 0.071-0.07 0.071-0.071 0.07-0.071 0.069-0.073 0.067-0.072 0.067-0.074 0.066-0.075 0.065-0.075 0.064-0.076 0.063-0.076 0.062-0.078 0.061-0.078 0.06-0.078 0.059-0.08 0.058-0.08 0.057-0.08 0.056-0.082 0.055-0.081 0.054-0.083 0.053-0.083 0.051-0.084 0.051-0.084 0.05-0.085 0.049-0.085 0.047-0.086 0.047-0.086 0.045-0.087 0.044-0.088 0.044-0.088 0.042-0.088 0.041-0.089 0.04-0.09 0.039-0.089 0.038-0.091 0.037-0.091 0.036-0.091 0.034-0.092 0.034-0.092 0.032-0.092 0.031-0.093 0.03-0.093 0.029-0.094 0.028-0.094 0.027-0.094 0.025-0.095 0.025-0.095 0.023-0.095 0.022-0.096 0.021-0.096 0.02-0.096 0.019-0.097 0.017-0.097 0.016-0.097 0.015-0.097 0.014-0.098 0.013-0.097 0.012-0.098 0.01-0.099 9e-3 -0.098 8e-3 -0.099 7e-3 -0.098 5e-3 -0.099 5e-3 -0.099 3e-3 -0.1 1e-3 -0.093 1e-3h-16.012l-0.093-1e-3 -0.1-1e-3 -0.099-3e-3 -0.099-5e-3 -0.098-5e-3 -0.099-7e-3 -0.098-8e-3 -0.099-9e-3 -0.098-0.01-0.097-0.012-0.098-0.013-0.097-0.014-0.097-0.015-0.097-0.016-0.097-0.017-0.096-0.019-0.096-0.02-0.096-0.021-0.095-0.022-0.095-0.023-0.095-0.025-0.094-0.025-0.094-0.027-0.094-0.028-0.093-0.029-0.093-0.03-0.092-0.031-0.092-0.032-0.092-0.034-0.091-0.034-0.091-0.036-0.091-0.037-0.089-0.038-0.09-0.039-0.089-0.04-0.088-0.041-0.088-0.042-0.088-0.044-0.087-0.044-0.086-0.045-0.086-0.047-0.085-0.047-0.085-0.049-0.084-0.05-0.084-0.051-0.083-0.051-0.083-0.053-0.081-0.054-0.082-0.055-0.08-0.056-0.08-0.057-0.08-0.058-0.078-0.059-0.078-0.06-0.078-0.061-0.076-0.062-0.076-0.063-0.075-0.064-0.075-0.065-0.074-0.066-0.072-0.067-0.073-0.067-0.071-0.069-0.071-0.07-0.07-0.071-0.069-0.071-0.134-0.146-0.066-0.073-0.065-0.075-0.064-0.075-0.063-0.076-0.062-0.076-0.061-0.078-0.06-0.078-0.059-0.078-0.058-0.08-0.057-0.08-0.056-0.08-0.055-0.082-0.054-0.081-0.053-0.083-0.051-0.083-0.051-0.084-0.05-0.084-0.049-0.085-0.047-0.085-0.047-0.086-0.045-0.086-0.044-0.087-0.044-0.088-0.042-0.088-0.041-0.088-0.04-0.089-0.039-0.09-0.038-0.089-0.037-0.091-0.036-0.091-0.034-0.091-0.034-0.092-0.032-0.092-0.031-0.092-0.03-0.093-0.029-0.093-0.028-0.094-0.027-0.094-0.025-0.094-0.025-0.095-0.023-0.095-0.022-0.095-0.021-0.096-0.02-0.096-0.019-0.096-0.017-0.097-0.016-0.097-0.015-0.097-0.014-0.097-0.013-0.098-0.012-0.097-0.01-0.098-9e-3 -0.099-8e-3 -0.098-7e-3 -0.099-5e-3 -0.098-5e-3 -0.099-3e-3 -0.099-1e-3 -0.1-1e-3 -0.093v-16.012l1e-3 -0.093 1e-3 -0.1 3e-3 -0.099 5e-3 -0.099 5e-3 -0.098 7e-3 -0.099 8e-3 -0.098 9e-3 -0.099 0.01-0.098 0.012-0.097 0.013-0.098 0.014-0.097 0.015-0.097 0.016-0.097 0.017-0.097 0.019-0.096 0.02-0.096 0.021-0.096 0.022-0.095 0.023-0.095 0.025-0.095 0.025-0.094 0.027-0.094 0.028-0.094 0.029-0.093 0.03-0.093 0.031-0.092 0.032-0.092 0.034-0.092 0.034-0.091 0.036-0.091 0.037-0.09 0.038-0.09 0.039-0.09 0.04-0.089 0.041-0.088 0.042-0.088 0.044-0.088 0.044-0.087 0.045-0.086 0.047-0.086 0.047-0.085 0.049-0.085 0.05-0.084 0.051-0.084 0.051-0.083 0.053-0.083 0.054-0.081 0.055-0.082 0.056-0.08 0.057-0.08 0.058-0.08 0.059-0.078 0.06-0.078 0.061-0.078 0.062-0.076 0.063-0.076 0.064-0.075 0.065-0.075 0.066-0.073 0.134-0.146 0.069-0.071 0.07-0.071 0.071-0.07 0.071-0.069 0.146-0.134 0.073-0.066 0.075-0.065 0.075-0.064 0.076-0.063 0.076-0.062 0.078-0.061 0.078-0.06 0.078-0.059 0.08-0.058 0.08-0.057 0.08-0.056 0.082-0.055 0.081-0.054 0.083-0.053 0.083-0.051 0.084-0.051 0.084-0.05 0.085-0.049 0.085-0.047 0.086-0.047 0.086-0.045 0.087-0.044 0.088-0.044 0.088-0.042 0.088-0.041 0.089-0.04 0.09-0.039 0.09-0.038 0.09-0.037 0.091-0.036 0.091-0.034 0.092-0.034 0.092-0.032 0.092-0.031 0.093-0.03 0.093-0.029 0.094-0.028 0.094-0.027 0.094-0.025 0.095-0.025 0.095-0.023 0.095-0.022 0.096-0.021 0.096-0.02 0.096-0.019 0.097-0.017 0.097-0.016 0.097-0.015 0.097-0.014 0.098-0.013 0.097-0.012 0.098-0.01 0.099-9e-3 0.098-8e-3 0.099-7e-3 0.098-5e-3 0.099-5e-3 0.099-3e-3 0.1-1e-3 0.093-1e-3h16.012l0.093 1e-3zm-16.093 3.999h-0.056l-0.049 1e-3 -0.05 2e-3 -0.049 2e-3 -0.05 3e-3 -0.049 3e-3 -0.049 4e-3 -0.098 0.01-0.098 0.012-0.049 7e-3 -0.048 7e-3 -0.049 9e-3 -0.048 8e-3 -0.048 0.01-0.048 9e-3 -0.048 0.011-0.047 0.011-0.048 0.012-0.047 0.012-0.094 0.026-0.094 0.028-0.046 0.015-0.047 0.016-0.046 0.016-0.045 0.017-0.046 0.017-0.046 0.018-0.045 0.019-0.045 0.018-0.044 0.02-0.045 0.02-0.132 0.063-0.043 0.023-0.044 0.022-0.043 0.024-0.042 0.023-0.043 0.025-0.084 0.05-0.082 0.052-0.041 0.027-0.041 0.028-0.04 0.027-0.08 0.058-0.039 0.029-0.039 0.03-0.039 0.031-0.076 0.062-0.038 0.032-0.074 0.066-0.036 0.033-0.036 0.034-0.036 0.035-0.07 0.07-0.035 0.036-0.034 0.036-0.033 0.036-0.033 0.037-0.033 0.038-0.032 0.037-0.062 0.076-0.031 0.039-0.03 0.039-0.029 0.039-0.058 0.08-0.027 0.04-0.028 0.041-0.027 0.041-0.052 0.082-0.05 0.084-0.025 0.043-0.023 0.042-0.024 0.043-0.022 0.044-0.023 0.043-0.063 0.132-0.02 0.045-0.02 0.044-0.018 0.045-0.019 0.045-0.018 0.046-0.017 0.046-0.017 0.045-0.016 0.046-0.016 0.047-0.015 0.046-0.028 0.094-0.026 0.094-0.012 0.047-0.012 0.048-0.011 0.047-0.011 0.048-9e-3 0.048-0.01 0.048-8e-3 0.048-9e-3 0.049-7e-3 0.048-7e-3 0.049-0.012 0.098-0.01 0.098-4e-3 0.049-3e-3 0.049-3e-3 0.05-2e-3 0.049-2e-3 0.05-1e-3 0.049v0.056 15.988 0.056l1e-3 0.049 2e-3 0.05 2e-3 0.049 3e-3 0.05 3e-3 0.049 4e-3 0.049 0.01 0.098 0.012 0.098 7e-3 0.049 7e-3 0.048 9e-3 0.049 8e-3 0.048 0.01 0.048 9e-3 0.048 0.011 0.048 0.011 0.047 0.012 0.048 0.012 0.047 0.026 0.094 0.028 0.094 0.015 0.046 0.016 0.047 0.016 0.046 0.017 0.045 0.017 0.046 0.018 0.046 0.019 0.045 0.018 0.045 0.02 0.044 0.02 0.045 0.063 0.132 0.023 0.043 0.022 0.044 0.024 0.043 0.023 0.042 0.025 0.043 0.024 0.042 0.026 0.042 0.052 0.082 0.027 0.041 0.028 0.041 0.027 0.04 0.058 0.08 0.029 0.039 0.03 0.039 0.031 0.039 0.062 0.076 0.032 0.037 0.033 0.038 0.033 0.037 0.033 0.036 0.034 0.036 0.035 0.036 0.07 0.07 0.036 0.035 0.036 0.034 0.036 0.033 0.074 0.066 0.038 0.032 0.076 0.062 0.039 0.031 0.039 0.03 0.039 0.029 0.08 0.058 0.04 0.027 0.041 0.028 0.041 0.027 0.082 0.052 0.042 0.026 0.042 0.024 0.043 0.025 0.042 0.023 0.043 0.024 0.044 0.022 0.043 0.023 0.132 0.063 0.045 0.02 0.044 0.02 0.045 0.018 0.045 0.019 0.046 0.018 0.046 0.017 0.045 0.017 0.046 0.016 0.047 0.016 0.046 0.015 0.094 0.028 0.094 0.026 0.047 0.012 0.048 0.012 0.047 0.011 0.048 0.011 0.048 9e-3 0.048 0.01 0.048 8e-3 0.049 9e-3 0.048 7e-3 0.049 7e-3 0.098 0.012 0.098 0.01 0.049 4e-3 0.049 3e-3 0.05 3e-3 0.049 2e-3 0.05 2e-3 0.049 1e-3h0.056 15.988 0.056l0.049-1e-3 0.05-2e-3 0.049-2e-3 0.05-3e-3 0.049-3e-3 0.049-4e-3 0.098-0.01 0.098-0.012 0.049-7e-3 0.048-7e-3 0.049-9e-3 0.048-8e-3 0.048-0.01 0.048-9e-3 0.048-0.011 0.047-0.011 0.048-0.012 0.047-0.012 0.094-0.026 0.094-0.028 0.046-0.015 0.047-0.016 0.046-0.016 0.045-0.017 0.046-0.017 0.046-0.018 0.045-0.019 0.045-0.018 0.044-0.02 0.045-0.02 0.132-0.063 0.043-0.023 0.044-0.022 0.043-0.024 0.042-0.023 0.043-0.025 0.042-0.024 0.042-0.026 0.082-0.052 0.041-0.027 0.041-0.028 0.04-0.027 0.08-0.058 0.039-0.029 0.039-0.03 0.039-0.031 0.076-0.062 0.038-0.032 0.074-0.066 0.036-0.033 0.036-0.034 0.036-0.035 0.07-0.07 0.035-0.036 0.034-0.036 0.033-0.036 0.033-0.037 0.033-0.038 0.032-0.037 0.062-0.076 0.031-0.039 0.03-0.039 0.029-0.039 0.058-0.08 0.027-0.04 0.028-0.041 0.027-0.041 0.052-0.082 0.026-0.042 0.024-0.042 0.025-0.043 0.023-0.042 0.024-0.043 0.022-0.044 0.023-0.043 0.063-0.132 0.02-0.045 0.02-0.044 0.019-0.045 0.018-0.045 0.018-0.046 0.017-0.045 0.017-0.046 0.016-0.046 0.016-0.047 0.015-0.046 0.028-0.094 0.026-0.094 0.012-0.047 0.012-0.048 0.011-0.047 0.011-0.048 9e-3 -0.048 0.01-0.048 8e-3 -0.048 9e-3 -0.049 7e-3 -0.048 7e-3 -0.049 0.012-0.098 0.01-0.098 4e-3 -0.049 3e-3 -0.049 3e-3 -0.05 2e-3 -0.049 2e-3 -0.05 1e-3 -0.049v-0.056-15.988-0.056l-1e-3 -0.049-2e-3 -0.05-2e-3 -0.049-3e-3 -0.05-3e-3 -0.049-4e-3 -0.049-0.01-0.098-0.012-0.098-7e-3 -0.049-7e-3 -0.048-9e-3 -0.049-8e-3 -0.048-0.01-0.048-9e-3 -0.048-0.011-0.048-0.011-0.047-0.012-0.048-0.012-0.047-0.026-0.094-0.028-0.094-0.015-0.046-0.016-0.047-0.016-0.046-0.017-0.045-0.017-0.046-0.018-0.046-0.019-0.045-0.018-0.045-0.02-0.044-0.02-0.045-0.063-0.132-0.023-0.043-0.022-0.044-0.024-0.043-0.023-0.042-0.025-0.043-0.05-0.084-0.052-0.082-0.027-0.041-0.028-0.041-0.027-0.04-0.058-0.08-0.029-0.039-0.03-0.039-0.031-0.039-0.062-0.076-0.032-0.037-0.033-0.038-0.033-0.037-0.033-0.036-0.034-0.036-0.035-0.036-0.07-0.07-0.036-0.035-0.036-0.034-0.036-0.033-0.074-0.066-0.038-0.032-0.076-0.062-0.039-0.031-0.039-0.03-0.039-0.029-0.08-0.058-0.04-0.027-0.041-0.028-0.041-0.027-0.082-0.052-0.084-0.05-0.043-0.025-0.042-0.023-0.043-0.024-0.044-0.022-0.043-0.023-0.132-0.063-0.045-0.02-0.044-0.02-0.045-0.018-0.046-0.019-0.045-0.018-0.045-0.017-0.046-0.017-0.046-0.016-0.047-0.016-0.046-0.015-0.094-0.028-0.094-0.026-0.047-0.012-0.048-0.012-0.047-0.011-0.048-0.011-0.048-9e-3 -0.048-0.01-0.048-8e-3 -0.049-9e-3 -0.048-7e-3 -0.049-7e-3 -0.098-0.012-0.098-0.01-0.049-4e-3 -0.049-3e-3 -0.05-3e-3 -0.049-2e-3 -0.05-2e-3 -0.049-1e-3h-0.056-15.988z"/></g><g id="emoji"><path d="m30 8c0-1.591-0.632-3.117-1.757-4.243-1.126-1.125-2.652-1.757-4.243-1.757h-16c-1.591 0-3.117 0.632-4.243 1.757-1.125 1.126-1.757 2.652-1.757 4.243v16c0 1.591 0.632 3.117 1.757 4.243 1.126 1.125 2.652 1.757 4.243 1.757h16c1.591 0 3.117-0.632 4.243-1.757 1.125-1.126 1.757-2.652 1.757-4.243v-16z" fill="#ff4586"/><path d="m7.616 22.632c-1.112 0-1.992-0.315-2.642-0.946-0.649-0.631-0.974-1.552-0.974-2.763v-5.827c0-1.224 0.343-2.151 1.03-2.782s1.593-0.946 2.717-0.946c1.074 0 1.942 0.306 2.604 0.918s0.993 1.517 0.993 2.716v0.394h-2.304v-0.394c0-0.499-0.125-0.883-0.375-1.152-0.25-0.268-0.574-0.403-0.974-0.403-0.487 0-0.84 0.169-1.059 0.506-0.218 0.337-0.328 0.843-0.328 1.518v5.189c0 1.262 0.463 1.893 1.387 1.893 0.45 0 0.787-0.153 1.012-0.459 0.224-0.306 0.337-0.747 0.337-1.321v-1.368h-1.368v-1.817h3.672v3.335c0 1.199-0.346 2.117-1.04 2.754-0.693 0.637-1.589 0.955-2.688 0.955z" fill="#fff" fill-rule="nonzero"/><path d="m18.108 19.972h-3.017l-0.524 2.51h-2.398l3.316-12.927h2.248l3.297 12.927h-2.398l-0.524-2.51zm-0.412-2.061-1.087-5.246-1.087 5.246h2.174z" fill="#fff" fill-rule="nonzero"/><path d="m25.377 17.443v5.039h-2.304v-5.077l-2.623-7.85h2.529l1.236 4.946 1.237-4.946h2.548l-2.623 7.888z" fill="#fff" fill-rule="nonzero"/></g></g></svg>
