<?xml version="1.0" encoding="UTF-8"?>
<!DOCTYPE svg  PUBLIC '-//W3C//DTD SVG 1.1//EN'  'http://www.w3.org/Graphics/SVG/1.1/DTD/svg11.dtd'>
<svg clip-rule="evenodd" fill-rule="evenodd" stroke-linejoin="round" stroke-miterlimit="1.4142" version="1.1" viewBox="0 0 32 32" xml:space="preserve" xmlns="http://www.w3.org/2000/svg"><rect id="nb" width="32" height="32" fill="none"/><clipPath id="_clip1"><rect width="32" height="32"/></clipPath><g clip-path="url(#_clip1)"><g id="outline"><path d="m24.099 1e-3 0.1 1e-3 0.099 3e-3 0.099 5e-3 0.098 5e-3 0.099 7e-3 0.098 8e-3 0.099 9e-3 0.098 0.01 0.097 0.012 0.098 0.013 0.097 0.014 0.097 0.015 0.097 0.016 0.097 0.017 0.096 0.019 0.096 0.02 0.096 0.021 0.095 0.022 0.095 0.023 0.095 0.025 0.094 0.025 0.094 0.027 0.094 0.028 0.093 0.029 0.093 0.03 0.092 0.031 0.092 0.032 0.092 0.034 0.091 0.034 0.091 0.036 0.09 0.037 0.09 0.038 0.09 0.039 0.089 0.04 0.088 0.041 0.088 0.042 0.088 0.044 0.087 0.044 0.086 0.045 0.086 0.047 0.085 0.047 0.085 0.049 0.084 0.05 0.084 0.051 0.083 0.051 0.083 0.053 0.081 0.054 0.082 0.055 0.08 0.056 0.08 0.057 0.08 0.058 0.078 0.059 0.078 0.06 0.078 0.061 0.076 0.062 0.076 0.063 0.075 0.064 0.075 0.065 0.074 0.066 0.072 0.067 0.073 0.067 0.071 0.069 0.071 0.07 0.07 0.071 0.069 0.071 0.067 0.073 0.067 0.072 0.066 0.074 0.065 0.075 0.064 0.075 0.063 0.076 0.062 0.077 0.061 0.077 0.06 0.078 0.059 0.078 0.058 0.08 0.057 0.08 0.056 0.08 0.055 0.082 0.054 0.081 0.053 0.083 0.051 0.083 0.051 0.084 0.05 0.084 0.049 0.085 0.047 0.085 0.047 0.086 0.045 0.086 0.044 0.087 0.044 0.088 0.042 0.088 0.041 0.088 0.04 0.089 0.039 0.09 0.038 0.089 0.037 0.091 0.036 0.091 0.034 0.091 0.034 0.092 0.032 0.092 0.031 0.092 0.03 0.093 0.029 0.093 0.028 0.094 0.027 0.094 0.025 0.094 0.025 0.095 0.023 0.095 0.022 0.095 0.021 0.096 0.02 0.096 0.019 0.096 0.017 0.097 0.016 0.097 0.015 0.097 0.014 0.097 0.013 0.098 0.012 0.097 0.01 0.098 9e-3 0.099 8e-3 0.098 7e-3 0.098 0.01 0.198 3e-3 0.099 1e-3 0.1 1e-3 0.093v16.012l-1e-3 0.093-1e-3 0.1-3e-3 0.099-0.01 0.198-7e-3 0.098-8e-3 0.098-9e-3 0.099-0.01 0.098-0.012 0.097-0.013 0.098-0.014 0.097-0.015 0.097-0.016 0.097-0.017 0.097-0.019 0.096-0.02 0.096-0.021 0.096-0.022 0.095-0.023 0.095-0.025 0.095-0.025 0.094-0.027 0.094-0.028 0.094-0.029 0.093-0.03 0.093-0.031 0.092-0.032 0.092-0.034 0.092-0.034 0.091-0.036 0.091-0.037 0.091-0.038 0.089-0.039 0.09-0.04 0.089-0.041 0.088-0.042 0.088-0.044 0.088-0.044 0.087-0.045 0.086-0.047 0.086-0.047 0.085-0.049 0.085-0.05 0.084-0.051 0.084-0.051 0.083-0.053 0.083-0.054 0.081-0.055 0.082-0.056 0.08-0.057 0.08-0.058 0.08-0.059 0.078-0.06 0.078-0.061 0.077-0.062 0.077-0.063 0.076-0.064 0.075-0.065 0.075-0.066 0.073-0.134 0.146-0.069 0.071-0.07 0.071-0.071 0.07-0.071 0.069-0.073 0.068-0.072 0.066-0.074 0.066-0.075 0.065-0.075 0.064-0.076 0.063-0.076 0.062-0.078 0.061-0.078 0.06-0.078 0.059-0.08 0.058-0.08 0.057-0.08 0.056-0.082 0.055-0.081 0.054-0.083 0.053-0.083 0.051-0.084 0.051-0.084 0.05-0.085 0.049-0.085 0.047-0.086 0.047-0.086 0.045-0.087 0.044-0.088 0.044-0.088 0.042-0.088 0.041-0.089 0.04-0.09 0.039-0.089 0.038-0.091 0.037-0.091 0.036-0.091 0.034-0.092 0.034-0.092 0.032-0.092 0.031-0.093 0.03-0.093 0.029-0.094 0.028-0.094 0.027-0.094 0.025-0.095 0.025-0.095 0.023-0.095 0.022-0.096 0.021-0.096 0.02-0.096 0.019-0.097 0.017-0.097 0.016-0.097 0.015-0.097 0.014-0.098 0.013-0.097 0.012-0.098 0.01-0.099 9e-3 -0.098 8e-3 -0.099 7e-3 -0.098 5e-3 -0.099 5e-3 -0.099 3e-3 -0.1 1e-3 -0.093 1e-3h-16.012l-0.093-1e-3 -0.1-1e-3 -0.099-3e-3 -0.099-5e-3 -0.098-5e-3 -0.099-7e-3 -0.098-8e-3 -0.099-9e-3 -0.098-0.01-0.097-0.012-0.098-0.013-0.097-0.014-0.097-0.015-0.097-0.016-0.097-0.017-0.096-0.019-0.096-0.02-0.096-0.021-0.095-0.022-0.095-0.023-0.095-0.025-0.094-0.025-0.094-0.027-0.094-0.028-0.093-0.029-0.093-0.03-0.092-0.031-0.092-0.032-0.092-0.034-0.091-0.034-0.091-0.036-0.091-0.037-0.089-0.038-0.09-0.039-0.089-0.04-0.088-0.041-0.088-0.042-0.088-0.044-0.087-0.044-0.086-0.045-0.086-0.047-0.085-0.047-0.085-0.049-0.084-0.05-0.084-0.051-0.083-0.051-0.083-0.053-0.081-0.054-0.082-0.055-0.08-0.056-0.08-0.057-0.08-0.058-0.078-0.059-0.078-0.06-0.078-0.061-0.076-0.062-0.076-0.063-0.075-0.064-0.075-0.065-0.073-0.066-0.146-0.134-0.071-0.069-0.071-0.07-0.07-0.071-0.069-0.071-0.134-0.146-0.066-0.073-0.065-0.075-0.064-0.075-0.063-0.076-0.062-0.076-0.061-0.078-0.06-0.078-0.059-0.079-0.058-0.079-0.057-0.08-0.056-0.08-0.055-0.082-0.054-0.081-0.053-0.083-0.051-0.083-0.051-0.084-0.05-0.084-0.049-0.085-0.047-0.085-0.047-0.086-0.045-0.086-0.044-0.087-0.044-0.088-0.042-0.088-0.041-0.088-0.04-0.089-0.039-0.09-0.038-0.09-0.037-0.09-0.036-0.091-0.034-0.091-0.034-0.092-0.032-0.092-0.031-0.092-0.03-0.093-0.029-0.093-0.028-0.094-0.027-0.094-0.025-0.094-0.025-0.095-0.023-0.095-0.022-0.095-0.021-0.096-0.02-0.096-0.019-0.096-0.017-0.097-0.016-0.097-0.015-0.097-0.014-0.097-0.013-0.098-0.012-0.097-0.01-0.098-9e-3 -0.099-8e-3 -0.098-7e-3 -0.099-5e-3 -0.098-5e-3 -0.099-3e-3 -0.099-1e-3 -0.1-1e-3 -0.093v-16.012l1e-3 -0.093 1e-3 -0.1 3e-3 -0.099 5e-3 -0.099 5e-3 -0.098 7e-3 -0.099 8e-3 -0.098 9e-3 -0.099 0.01-0.098 0.012-0.097 0.013-0.098 0.014-0.097 0.015-0.097 0.016-0.097 0.017-0.097 0.019-0.096 0.02-0.096 0.021-0.096 0.022-0.095 0.023-0.095 0.025-0.095 0.025-0.094 0.027-0.094 0.028-0.094 0.029-0.093 0.03-0.093 0.031-0.092 0.032-0.092 0.034-0.092 0.034-0.091 0.036-0.091 0.037-0.09 0.038-0.09 0.039-0.09 0.04-0.089 0.041-0.088 0.042-0.088 0.044-0.088 0.044-0.087 0.045-0.086 0.047-0.086 0.047-0.085 0.049-0.085 0.05-0.084 0.051-0.084 0.051-0.083 0.053-0.083 0.054-0.081 0.055-0.082 0.056-0.08 0.057-0.08 0.058-0.079 0.059-0.079 0.06-0.078 0.061-0.078 0.062-0.076 0.063-0.076 0.064-0.075 0.065-0.075 0.066-0.074 0.066-0.072 0.068-0.073 0.069-0.071 0.07-0.071 0.071-0.07 0.071-0.069 0.072-0.067 0.074-0.067 0.073-0.066 0.075-0.065 0.075-0.064 0.076-0.063 0.076-0.062 0.078-0.061 0.078-0.06 0.078-0.059 0.08-0.058 0.08-0.057 0.08-0.056 0.082-0.055 0.081-0.054 0.083-0.053 0.083-0.051 0.084-0.051 0.084-0.05 0.085-0.049 0.085-0.047 0.086-0.047 0.086-0.045 0.087-0.044 0.088-0.044 0.088-0.042 0.088-0.041 0.089-0.04 0.09-0.039 0.09-0.038 0.09-0.037 0.091-0.036 0.091-0.034 0.092-0.034 0.092-0.032 0.092-0.031 0.093-0.03 0.093-0.029 0.094-0.028 0.094-0.027 0.094-0.025 0.095-0.025 0.095-0.023 0.095-0.022 0.096-0.021 0.096-0.02 0.096-0.019 0.097-0.017 0.097-0.016 0.097-0.015 0.097-0.014 0.098-0.013 0.097-0.012 0.098-0.01 0.099-9e-3 0.098-8e-3 0.099-7e-3 0.098-5e-3 0.099-5e-3 0.099-3e-3 0.1-1e-3 0.093-1e-3h16.012l0.093 1e-3zm-16.093 3.999h-0.056l-0.049 1e-3 -0.05 2e-3 -0.049 2e-3 -0.05 3e-3 -0.049 3e-3 -0.049 4e-3 -0.098 0.01-0.098 0.012-0.049 7e-3 -0.048 7e-3 -0.049 9e-3 -0.048 8e-3 -0.048 0.01-0.048 9e-3 -0.048 0.011-0.047 0.011-0.048 0.012-0.047 0.012-0.094 0.026-0.094 0.028-0.046 0.015-0.047 0.016-0.046 0.016-0.046 0.017-0.045 0.017-0.045 0.018-0.046 0.019-0.045 0.018-0.044 0.02-0.045 0.02-0.132 0.063-0.043 0.023-0.044 0.022-0.043 0.024-0.042 0.023-0.043 0.025-0.084 0.05-0.082 0.052-0.041 0.027-0.041 0.028-0.04 0.027-0.08 0.058-0.039 0.029-0.039 0.03-0.039 0.031-0.076 0.062-0.037 0.032-0.038 0.033-0.037 0.033-0.036 0.033-0.036 0.034-0.036 0.035-0.07 0.07-0.035 0.036-0.034 0.036-0.033 0.036-0.066 0.074-0.032 0.038-0.062 0.076-0.031 0.039-0.03 0.039-0.029 0.039-0.058 0.08-0.027 0.04-0.028 0.041-0.027 0.041-0.052 0.082-0.026 0.042-0.024 0.042-0.025 0.043-0.023 0.042-0.024 0.043-0.022 0.044-0.023 0.043-0.063 0.132-0.02 0.045-0.02 0.044-0.018 0.045-0.019 0.045-0.018 0.046-0.017 0.046-0.017 0.045-0.016 0.046-0.016 0.047-0.015 0.046-0.028 0.094-0.026 0.094-0.012 0.047-0.012 0.048-0.011 0.047-0.011 0.048-9e-3 0.048-0.01 0.048-8e-3 0.048-9e-3 0.049-7e-3 0.048-7e-3 0.049-0.012 0.098-0.01 0.098-4e-3 0.049-3e-3 0.049-3e-3 0.05-2e-3 0.049-2e-3 0.05-1e-3 0.049v0.056 15.988 0.056l1e-3 0.049 2e-3 0.05 2e-3 0.049 3e-3 0.05 3e-3 0.049 4e-3 0.049 0.01 0.098 0.012 0.098 7e-3 0.049 7e-3 0.048 9e-3 0.049 8e-3 0.048 0.01 0.048 9e-3 0.048 0.011 0.048 0.011 0.047 0.012 0.048 0.012 0.047 0.026 0.094 0.028 0.094 0.015 0.046 0.016 0.047 0.016 0.046 0.017 0.045 0.017 0.046 0.018 0.046 0.019 0.045 0.018 0.045 0.02 0.044 0.02 0.045 0.063 0.132 0.023 0.043 0.022 0.044 0.024 0.043 0.023 0.042 0.025 0.043 0.024 0.042 0.026 0.042 0.052 0.082 0.027 0.041 0.028 0.041 0.027 0.04 0.058 0.08 0.029 0.039 0.03 0.039 0.031 0.039 0.062 0.076 0.032 0.038 0.066 0.074 0.033 0.036 0.034 0.036 0.035 0.036 0.07 0.07 0.036 0.035 0.036 0.034 0.036 0.033 0.037 0.033 0.038 0.033 0.037 0.032 0.076 0.062 0.039 0.031 0.039 0.03 0.039 0.029 0.08 0.058 0.04 0.027 0.041 0.028 0.041 0.027 0.082 0.052 0.042 0.026 0.042 0.024 0.043 0.025 0.042 0.023 0.043 0.024 0.044 0.022 0.043 0.023 0.132 0.063 0.045 0.02 0.044 0.02 0.045 0.019 0.045 0.018 0.046 0.018 0.046 0.017 0.045 0.017 0.046 0.016 0.047 0.016 0.046 0.015 0.094 0.028 0.094 0.026 0.047 0.012 0.048 0.012 0.047 0.011 0.048 0.011 0.048 9e-3 0.048 0.01 0.048 8e-3 0.049 9e-3 0.048 7e-3 0.049 7e-3 0.098 0.012 0.098 0.01 0.049 4e-3 0.049 3e-3 0.05 3e-3 0.049 2e-3 0.05 2e-3 0.049 1e-3h0.056 15.988 0.056l0.049-1e-3 0.05-2e-3 0.049-2e-3 0.05-3e-3 0.049-3e-3 0.049-4e-3 0.098-0.01 0.098-0.012 0.049-7e-3 0.048-7e-3 0.049-9e-3 0.048-8e-3 0.048-0.01 0.048-9e-3 0.048-0.011 0.047-0.011 0.048-0.012 0.047-0.012 0.094-0.026 0.094-0.028 0.046-0.015 0.047-0.016 0.046-0.016 0.045-0.017 0.046-0.017 0.046-0.018 0.045-0.018 0.045-0.019 0.044-0.02 0.045-0.02 0.132-0.063 0.043-0.023 0.044-0.022 0.043-0.024 0.042-0.023 0.043-0.025 0.084-0.05 0.082-0.052 0.041-0.027 0.041-0.028 0.04-0.027 0.08-0.058 0.039-0.029 0.039-0.03 0.039-0.031 0.076-0.062 0.038-0.032 0.074-0.066 0.036-0.033 0.036-0.034 0.036-0.035 0.07-0.07 0.035-0.036 0.034-0.036 0.033-0.036 0.033-0.037 0.033-0.038 0.032-0.037 0.062-0.076 0.031-0.039 0.03-0.039 0.029-0.039 0.029-0.04 0.056-0.08 0.028-0.041 0.027-0.041 0.052-0.082 0.026-0.042 0.024-0.042 0.025-0.043 0.023-0.042 0.024-0.044 0.022-0.043 0.023-0.043 0.063-0.132 0.02-0.045 0.019-0.044 0.02-0.045 0.018-0.046 0.018-0.045 0.017-0.045 0.017-0.046 0.016-0.046 0.016-0.047 0.015-0.046 0.014-0.047 0.014-0.046 0.013-0.048 0.013-0.047 0.012-0.047 0.012-0.048 0.011-0.047 0.011-0.048 9e-3 -0.048 0.01-0.048 8e-3 -0.048 9e-3 -0.049 7e-3 -0.048 7e-3 -0.049 0.012-0.098 0.01-0.098 4e-3 -0.049 6e-3 -0.098 4e-3 -0.1 1e-3 -0.049v-0.056-15.988-0.056l-1e-3 -0.049-4e-3 -0.1-6e-3 -0.098-4e-3 -0.049-0.01-0.098-0.012-0.098-7e-3 -0.049-7e-3 -0.048-9e-3 -0.049-8e-3 -0.048-0.01-0.048-9e-3 -0.048-0.011-0.048-0.011-0.047-0.012-0.048-0.012-0.047-0.013-0.047-0.013-0.048-0.014-0.046-0.014-0.047-0.015-0.046-0.016-0.047-0.016-0.046-0.017-0.046-0.017-0.045-0.018-0.045-0.018-0.046-0.02-0.045-0.019-0.044-0.02-0.045-0.063-0.132-0.023-0.043-0.022-0.043-0.024-0.044-0.023-0.042-0.025-0.043-0.024-0.042-0.026-0.042-0.052-0.082-0.027-0.041-0.028-0.041-0.056-0.08-0.029-0.04-0.029-0.039-0.03-0.039-0.031-0.039-0.062-0.076-0.032-0.037-0.033-0.038-0.033-0.037-0.033-0.036-0.034-0.036-0.035-0.036-0.07-0.07-0.036-0.035-0.036-0.034-0.036-0.033-0.074-0.066-0.038-0.032-0.076-0.062-0.039-0.031-0.039-0.03-0.039-0.029-0.08-0.058-0.04-0.027-0.041-0.028-0.041-0.027-0.082-0.052-0.084-0.05-0.043-0.025-0.042-0.023-0.043-0.024-0.044-0.022-0.043-0.023-0.132-0.063-0.045-0.02-0.044-0.02-0.045-0.018-0.046-0.019-0.045-0.018-0.046-0.017-0.045-0.017-0.046-0.016-0.047-0.016-0.046-0.015-0.094-0.028-0.094-0.026-0.047-0.012-0.048-0.012-0.047-0.011-0.048-0.011-0.048-9e-3 -0.048-0.01-0.048-8e-3 -0.049-9e-3 -0.048-7e-3 -0.049-7e-3 -0.098-0.012-0.098-0.01-0.049-4e-3 -0.049-3e-3 -0.05-3e-3 -0.049-2e-3 -0.05-2e-3 -0.049-1e-3h-0.056-15.988z"/></g><g id="emoji"><path d="m30 8c0-1.591-0.632-3.117-1.757-4.243-1.126-1.125-2.652-1.757-4.243-1.757h-16c-1.591 0-3.117 0.632-4.243 1.757-1.125 1.126-1.757 2.652-1.757 4.243v16c0 1.591 0.632 3.117 1.757 4.243 1.126 1.125 2.652 1.757 4.243 1.757h16c1.591 0 3.117-0.632 4.243-1.757 1.125-1.126 1.757-2.652 1.757-4.243v-16z" fill="#ae60e5"/><path d="m15.109 9.241v13.518h-2.567l-4.976-8.444v8.444h-2.566v-13.518h2.566l4.976 8.463v-8.463h2.567z" fill="#fff" fill-rule="nonzero"/><path d="m25.119 15.804c0.614 0.274 1.081 0.673 1.401 1.195 0.32 0.523 0.48 1.149 0.48 1.881 0 1.227-0.366 2.181-1.097 2.86s-1.75 1.019-3.056 1.019h-5.427v-13.518h5.211c1.319 0 2.348 0.327 3.086 0.98s1.107 1.58 1.107 2.782c0 0.6-0.151 1.152-0.451 1.655s-0.718 0.885-1.254 1.146zm-5.132-4.329v3.291h2.448c0.588 0 1.035-0.141 1.342-0.421 0.307-0.281 0.461-0.676 0.461-1.186 0-0.548-0.154-0.966-0.461-1.253-0.307-0.288-0.754-0.431-1.342-0.431h-2.448zm2.605 9.05c0.614 0 1.074-0.16 1.381-0.48s0.461-0.767 0.461-1.342c0-0.535-0.154-0.953-0.461-1.253-0.307-0.301-0.767-0.451-1.381-0.451h-2.605v3.526h2.605z" fill="#fff" fill-rule="nonzero"/></g></g></svg>
