<?xml version="1.0" encoding="UTF-8"?>
<!DOCTYPE svg  PUBLIC '-//W3C//DTD SVG 1.1//EN'  'http://www.w3.org/Graphics/SVG/1.1/DTD/svg11.dtd'>
<svg clip-rule="evenodd" fill-rule="evenodd" stroke-linejoin="round" stroke-miterlimit="1.4142" version="1.1" viewBox="0 0 32 32" xml:space="preserve" xmlns="http://www.w3.org/2000/svg"><rect id="so_gay" width="32" height="32" fill="none"/><clipPath id="_clip1"><rect width="32" height="32"/></clipPath><g clip-path="url(#_clip1)"><g id="outline"><path d="m24.099 1e-3 0.1 1e-3 0.099 3e-3 0.099 5e-3 0.098 5e-3 0.099 7e-3 0.098 8e-3 0.099 9e-3 0.098 0.01 0.097 0.012 0.098 0.013 0.097 0.014 0.097 0.015 0.097 0.016 0.097 0.017 0.096 0.019 0.096 0.02 0.096 0.021 0.095 0.022 0.095 0.023 0.095 0.025 0.094 0.025 0.094 0.027 0.094 0.028 0.093 0.029 0.093 0.03 0.092 0.031 0.092 0.032 0.092 0.034 0.091 0.034 0.091 0.036 0.09 0.037 0.09 0.038 0.09 0.039 0.089 0.04 0.088 0.041 0.088 0.042 0.088 0.044 0.087 0.044 0.086 0.045 0.086 0.047 0.085 0.047 0.085 0.049 0.084 0.05 0.084 0.051 0.083 0.051 0.083 0.053 0.081 0.054 0.082 0.055 0.08 0.056 0.08 0.057 0.08 0.058 0.078 0.059 0.078 0.06 0.078 0.061 0.076 0.062 0.076 0.063 0.075 0.064 0.075 0.065 0.073 0.066 0.146 0.134 0.071 0.069 0.071 0.07 0.07 0.071 0.069 0.071 0.134 0.146 0.066 0.073 0.065 0.075 0.064 0.075 0.063 0.076 0.062 0.076 0.061 0.078 0.06 0.078 0.059 0.078 0.058 0.08 0.057 0.08 0.056 0.08 0.055 0.082 0.054 0.081 0.053 0.083 0.051 0.083 0.051 0.084 0.05 0.084 0.049 0.085 0.047 0.085 0.047 0.086 0.045 0.086 0.044 0.087 0.044 0.088 0.042 0.088 0.041 0.088 0.04 0.089 0.039 0.09 0.038 0.089 0.037 0.091 0.036 0.091 0.034 0.091 0.034 0.092 0.032 0.092 0.031 0.092 0.03 0.093 0.029 0.093 0.028 0.094 0.027 0.094 0.025 0.094 0.025 0.095 0.023 0.095 0.022 0.095 0.021 0.096 0.02 0.096 0.019 0.096 0.017 0.097 0.016 0.097 0.015 0.097 0.014 0.097 0.013 0.098 0.012 0.097 0.01 0.098 9e-3 0.099 8e-3 0.098 7e-3 0.099 5e-3 0.098 5e-3 0.099 3e-3 0.099 1e-3 0.1 1e-3 0.093v16.012l-1e-3 0.093-1e-3 0.1-3e-3 0.099-5e-3 0.099-5e-3 0.098-7e-3 0.099-8e-3 0.098-9e-3 0.099-0.01 0.098-0.012 0.097-0.013 0.098-0.014 0.097-0.015 0.097-0.016 0.097-0.017 0.097-0.019 0.096-0.02 0.096-0.021 0.096-0.022 0.095-0.023 0.095-0.025 0.095-0.025 0.094-0.027 0.094-0.028 0.094-0.029 0.093-0.03 0.093-0.031 0.092-0.032 0.092-0.034 0.092-0.034 0.091-0.036 0.091-0.037 0.091-0.038 0.089-0.039 0.09-0.04 0.089-0.041 0.088-0.042 0.088-0.044 0.088-0.044 0.087-0.045 0.086-0.047 0.086-0.047 0.085-0.049 0.085-0.05 0.084-0.051 0.084-0.051 0.083-0.053 0.083-0.054 0.081-0.055 0.082-0.056 0.08-0.057 0.08-0.058 0.08-0.059 0.078-0.06 0.078-0.061 0.078-0.062 0.076-0.063 0.076-0.064 0.075-0.065 0.075-0.066 0.073-0.134 0.146-0.069 0.071-0.07 0.071-0.071 0.07-0.071 0.069-0.073 0.067-0.072 0.067-0.074 0.066-0.075 0.065-0.075 0.064-0.076 0.063-0.076 0.062-0.078 0.061-0.078 0.06-0.078 0.059-0.08 0.058-0.08 0.057-0.08 0.056-0.082 0.055-0.081 0.054-0.083 0.053-0.083 0.051-0.084 0.051-0.084 0.05-0.085 0.049-0.085 0.047-0.086 0.047-0.086 0.045-0.087 0.044-0.088 0.044-0.088 0.042-0.088 0.041-0.089 0.04-0.09 0.039-0.089 0.038-0.091 0.037-0.091 0.036-0.091 0.034-0.092 0.034-0.092 0.032-0.092 0.031-0.093 0.03-0.093 0.029-0.094 0.028-0.094 0.027-0.094 0.025-0.095 0.025-0.095 0.023-0.095 0.022-0.096 0.021-0.096 0.02-0.096 0.019-0.097 0.017-0.097 0.016-0.097 0.015-0.097 0.014-0.098 0.013-0.097 0.012-0.098 0.01-0.099 9e-3 -0.098 8e-3 -0.099 7e-3 -0.098 5e-3 -0.099 5e-3 -0.099 3e-3 -0.1 1e-3 -0.093 1e-3h-16.012l-0.093-1e-3 -0.1-1e-3 -0.099-3e-3 -0.099-5e-3 -0.098-5e-3 -0.099-7e-3 -0.098-8e-3 -0.099-9e-3 -0.098-0.01-0.097-0.012-0.098-0.013-0.097-0.014-0.097-0.015-0.097-0.016-0.097-0.017-0.096-0.019-0.096-0.02-0.096-0.021-0.095-0.022-0.095-0.023-0.095-0.025-0.094-0.025-0.094-0.027-0.094-0.028-0.093-0.029-0.093-0.03-0.092-0.031-0.092-0.032-0.092-0.034-0.091-0.034-0.091-0.036-0.091-0.037-0.089-0.038-0.09-0.039-0.089-0.04-0.088-0.041-0.088-0.042-0.088-0.044-0.087-0.044-0.086-0.045-0.086-0.047-0.17-0.096-0.084-0.05-0.084-0.051-0.083-0.051-0.083-0.053-0.081-0.054-0.082-0.055-0.08-0.056-0.08-0.057-0.08-0.058-0.078-0.059-0.078-0.06-0.078-0.061-0.076-0.062-0.076-0.063-0.075-0.064-0.075-0.065-0.074-0.066-0.072-0.067-0.073-0.067-0.071-0.069-0.071-0.07-0.07-0.071-0.069-0.071-0.134-0.146-0.066-0.073-0.065-0.075-0.064-0.075-0.063-0.076-0.062-0.076-0.061-0.078-0.06-0.078-0.059-0.078-0.058-0.08-0.057-0.08-0.056-0.08-0.055-0.082-0.054-0.081-0.053-0.083-0.051-0.083-0.051-0.084-0.05-0.084-0.049-0.085-0.047-0.085-0.047-0.086-0.045-0.086-0.044-0.087-0.044-0.088-0.042-0.088-0.041-0.088-0.04-0.089-0.039-0.09-0.038-0.09-0.037-0.09-0.036-0.091-0.034-0.091-0.034-0.092-0.032-0.092-0.031-0.092-0.03-0.093-0.029-0.093-0.028-0.094-0.027-0.094-0.025-0.094-0.025-0.095-0.023-0.095-0.022-0.095-0.021-0.096-0.02-0.096-0.019-0.096-0.017-0.097-0.016-0.097-0.015-0.097-0.014-0.097-0.013-0.098-0.012-0.097-0.01-0.098-9e-3 -0.099-8e-3 -0.098-7e-3 -0.099-5e-3 -0.098-5e-3 -0.099-3e-3 -0.099-1e-3 -0.1-1e-3 -0.093v-16.012l1e-3 -0.093 1e-3 -0.1 3e-3 -0.099 5e-3 -0.099 5e-3 -0.098 7e-3 -0.099 8e-3 -0.098 9e-3 -0.099 0.01-0.098 0.012-0.097 0.013-0.098 0.014-0.097 0.015-0.097 0.016-0.097 0.017-0.097 0.019-0.096 0.02-0.096 0.021-0.096 0.022-0.095 0.023-0.095 0.025-0.095 0.025-0.094 0.027-0.094 0.028-0.094 0.029-0.093 0.03-0.093 0.031-0.092 0.032-0.092 0.034-0.092 0.034-0.091 0.036-0.091 0.037-0.09 0.038-0.09 0.039-0.09 0.04-0.089 0.041-0.088 0.042-0.088 0.044-0.088 0.044-0.087 0.045-0.086 0.047-0.086 0.047-0.085 0.049-0.085 0.05-0.084 0.051-0.084 0.051-0.083 0.053-0.083 0.054-0.081 0.055-0.082 0.056-0.08 0.057-0.08 0.058-0.08 0.059-0.078 0.06-0.078 0.061-0.078 0.062-0.076 0.063-0.076 0.064-0.075 0.065-0.075 0.066-0.074 0.067-0.072 0.067-0.073 0.069-0.071 0.07-0.071 0.071-0.07 0.071-0.069 0.146-0.134 0.073-0.066 0.075-0.065 0.075-0.064 0.076-0.063 0.076-0.062 0.078-0.061 0.078-0.06 0.078-0.059 0.08-0.058 0.08-0.057 0.08-0.056 0.082-0.055 0.081-0.054 0.083-0.053 0.083-0.051 0.084-0.051 0.084-0.05 0.085-0.049 0.085-0.047 0.086-0.047 0.086-0.045 0.087-0.044 0.088-0.044 0.088-0.042 0.088-0.041 0.089-0.04 0.09-0.039 0.09-0.038 0.09-0.037 0.091-0.036 0.091-0.034 0.092-0.034 0.092-0.032 0.092-0.031 0.093-0.03 0.093-0.029 0.094-0.028 0.094-0.027 0.094-0.025 0.095-0.025 0.095-0.023 0.095-0.022 0.096-0.021 0.096-0.02 0.096-0.019 0.097-0.017 0.097-0.016 0.097-0.015 0.097-0.014 0.098-0.013 0.097-0.012 0.098-0.01 0.099-9e-3 0.098-8e-3 0.099-7e-3 0.098-5e-3 0.099-5e-3 0.099-3e-3 0.1-1e-3 0.093-1e-3h16.012l0.093 1e-3zm-16.093 3.999h-0.056l-0.049 1e-3 -0.05 2e-3 -0.049 2e-3 -0.05 3e-3 -0.049 3e-3 -0.049 4e-3 -0.098 0.01-0.098 0.012-0.049 7e-3 -0.048 7e-3 -0.049 9e-3 -0.048 8e-3 -0.048 0.01-0.048 9e-3 -0.048 0.011-0.047 0.011-0.048 0.012-0.047 0.012-0.094 0.026-0.094 0.028-0.046 0.015-0.047 0.016-0.046 0.016-0.046 0.017-0.045 0.017-0.046 0.018-0.045 0.019-0.045 0.018-0.044 0.02-0.045 0.02-0.132 0.063-0.043 0.023-0.044 0.022-0.043 0.024-0.042 0.023-0.043 0.025-0.084 0.05-0.082 0.052-0.041 0.027-0.041 0.028-0.04 0.027-0.08 0.058-0.039 0.029-0.039 0.03-0.039 0.031-0.076 0.062-0.038 0.032-0.074 0.066-0.036 0.033-0.036 0.034-0.036 0.035-0.07 0.07-0.035 0.036-0.034 0.036-0.033 0.036-0.033 0.037-0.033 0.038-0.032 0.037-0.062 0.076-0.031 0.039-0.03 0.039-0.029 0.039-0.058 0.08-0.027 0.04-0.028 0.041-0.027 0.041-0.052 0.082-0.05 0.084-0.025 0.043-0.023 0.042-0.024 0.043-0.022 0.044-0.023 0.043-0.063 0.132-0.02 0.045-0.02 0.044-0.018 0.045-0.019 0.045-0.018 0.046-0.017 0.046-0.017 0.045-0.016 0.046-0.016 0.047-0.015 0.046-0.028 0.094-0.026 0.094-0.012 0.047-0.012 0.048-0.011 0.047-0.011 0.048-9e-3 0.048-0.01 0.048-8e-3 0.048-9e-3 0.049-7e-3 0.048-7e-3 0.049-0.012 0.098-0.01 0.098-4e-3 0.049-3e-3 0.049-3e-3 0.05-2e-3 0.049-2e-3 0.05-1e-3 0.049v0.056 15.988 0.056l1e-3 0.049 2e-3 0.05 2e-3 0.049 3e-3 0.05 3e-3 0.049 4e-3 0.049 0.01 0.098 0.012 0.098 7e-3 0.049 7e-3 0.048 9e-3 0.049 8e-3 0.048 0.01 0.048 9e-3 0.048 0.011 0.048 0.011 0.047 0.012 0.048 0.012 0.047 0.026 0.094 0.028 0.094 0.015 0.046 0.016 0.047 0.016 0.046 0.017 0.046 0.017 0.045 0.018 0.046 0.019 0.045 0.018 0.045 0.02 0.044 0.02 0.045 0.063 0.132 0.023 0.043 0.022 0.044 0.024 0.043 0.023 0.042 0.025 0.043 0.024 0.042 0.026 0.042 0.052 0.082 0.027 0.041 0.028 0.041 0.027 0.04 0.058 0.08 0.029 0.039 0.03 0.039 0.031 0.039 0.062 0.076 0.032 0.037 0.033 0.038 0.033 0.037 0.033 0.036 0.034 0.036 0.035 0.036 0.07 0.07 0.036 0.035 0.036 0.034 0.036 0.033 0.074 0.066 0.038 0.032 0.076 0.062 0.039 0.031 0.039 0.03 0.039 0.029 0.08 0.058 0.04 0.027 0.041 0.028 0.041 0.027 0.082 0.052 0.042 0.026 0.042 0.024 0.043 0.025 0.042 0.023 0.043 0.024 0.044 0.022 0.043 0.023 0.132 0.063 0.045 0.02 0.044 0.02 0.045 0.018 0.045 0.019 0.046 0.018 0.046 0.017 0.045 0.017 0.046 0.016 0.047 0.016 0.046 0.015 0.094 0.028 0.094 0.026 0.047 0.012 0.048 0.012 0.047 0.011 0.048 0.011 0.048 9e-3 0.048 0.01 0.048 8e-3 0.049 9e-3 0.048 7e-3 0.049 7e-3 0.098 0.012 0.098 0.01 0.049 4e-3 0.049 3e-3 0.05 3e-3 0.049 2e-3 0.05 2e-3 0.049 1e-3h0.056 15.988 0.056l0.049-1e-3 0.05-2e-3 0.049-2e-3 0.05-3e-3 0.049-3e-3 0.049-4e-3 0.098-0.01 0.098-0.012 0.049-7e-3 0.048-7e-3 0.049-9e-3 0.048-8e-3 0.048-0.01 0.048-9e-3 0.048-0.011 0.047-0.011 0.048-0.012 0.047-0.012 0.094-0.026 0.094-0.028 0.046-0.015 0.047-0.016 0.046-0.016 0.045-0.017 0.046-0.017 0.046-0.018 0.045-0.019 0.045-0.018 0.044-0.02 0.045-0.02 0.132-0.063 0.043-0.023 0.044-0.022 0.043-0.024 0.042-0.023 0.043-0.025 0.042-0.024 0.042-0.026 0.082-0.052 0.041-0.027 0.041-0.028 0.04-0.027 0.08-0.058 0.039-0.029 0.039-0.03 0.039-0.031 0.076-0.062 0.038-0.032 0.074-0.066 0.036-0.033 0.036-0.034 0.036-0.035 0.07-0.07 0.035-0.036 0.034-0.036 0.033-0.036 0.066-0.074 0.032-0.038 0.062-0.076 0.031-0.039 0.03-0.039 0.029-0.039 0.058-0.08 0.027-0.04 0.028-0.041 0.027-0.041 0.052-0.082 0.026-0.042 0.024-0.042 0.025-0.043 0.023-0.042 0.024-0.043 0.022-0.044 0.023-0.043 0.063-0.132 0.02-0.045 0.02-0.044 0.019-0.045 0.018-0.046 0.018-0.045 0.017-0.045 0.017-0.046 0.016-0.046 0.016-0.047 0.015-0.046 0.028-0.094 0.026-0.094 0.012-0.047 0.012-0.048 0.011-0.047 0.011-0.048 9e-3 -0.048 0.01-0.048 8e-3 -0.048 9e-3 -0.049 7e-3 -0.048 7e-3 -0.049 0.012-0.098 0.01-0.098 4e-3 -0.049 3e-3 -0.049 3e-3 -0.05 2e-3 -0.049 2e-3 -0.05 1e-3 -0.049v-0.056-15.988-0.056l-1e-3 -0.049-2e-3 -0.05-2e-3 -0.049-3e-3 -0.05-3e-3 -0.049-4e-3 -0.049-0.01-0.098-0.012-0.098-7e-3 -0.049-7e-3 -0.048-9e-3 -0.049-8e-3 -0.048-0.01-0.048-9e-3 -0.048-0.011-0.048-0.011-0.047-0.012-0.048-0.012-0.047-0.026-0.094-0.028-0.094-0.015-0.046-0.016-0.047-0.016-0.046-0.017-0.045-0.017-0.046-0.018-0.045-0.019-0.046-0.018-0.045-0.02-0.044-0.02-0.045-0.063-0.132-0.023-0.043-0.022-0.044-0.024-0.043-0.023-0.042-0.025-0.043-0.024-0.042-0.026-0.042-0.052-0.082-0.027-0.041-0.028-0.041-0.027-0.04-0.058-0.08-0.029-0.039-0.03-0.039-0.031-0.039-0.062-0.076-0.032-0.038-0.066-0.074-0.033-0.036-0.034-0.036-0.035-0.036-0.07-0.07-0.036-0.035-0.036-0.034-0.036-0.033-0.074-0.066-0.038-0.032-0.076-0.062-0.039-0.031-0.039-0.03-0.039-0.029-0.08-0.058-0.04-0.027-0.041-0.028-0.041-0.027-0.082-0.052-0.084-0.05-0.043-0.025-0.042-0.023-0.043-0.024-0.044-0.022-0.043-0.023-0.132-0.063-0.045-0.02-0.044-0.02-0.045-0.018-0.046-0.019-0.045-0.018-0.045-0.017-0.046-0.017-0.046-0.016-0.047-0.016-0.046-0.015-0.094-0.028-0.094-0.026-0.047-0.012-0.048-0.012-0.047-0.011-0.048-0.011-0.048-9e-3 -0.048-0.01-0.048-8e-3 -0.049-9e-3 -0.048-7e-3 -0.049-7e-3 -0.098-0.012-0.098-0.01-0.049-4e-3 -0.049-3e-3 -0.05-3e-3 -0.049-2e-3 -0.05-2e-3 -0.049-1e-3h-0.056-15.988z"/></g><g id="emoji"><path d="m30 8c0-1.591-0.632-3.117-1.757-4.243-1.126-1.125-2.652-1.757-4.243-1.757h-16c-1.591 0-3.117 0.632-4.243 1.757-1.125 1.126-1.757 2.652-1.757 4.243v16c0 1.591 0.632 3.117 1.757 4.243 1.126 1.125 2.652 1.757 4.243 1.757h16c1.591 0 3.117-0.632 4.243-1.757 1.125-1.126 1.757-2.652 1.757-4.243v-16z" fill="#ff4586"/><path d="m8.865 26.5c-2.208 0-3.313-1.21-3.313-3.63v-2.086c0-2.42 1.113-3.63 3.34-3.63 0.994 0 1.786 0.262 2.376 0.786 0.589 0.523 0.884 1.247 0.884 2.171v0.093h-1.729v-0.093c0-0.413-0.134-0.757-0.403-1.029-0.268-0.273-0.649-0.41-1.141-0.41-0.555 0-0.957 0.172-1.208 0.515s-0.376 0.907-0.376 1.69v1.967c0 0.748 0.134 1.287 0.402 1.617 0.269 0.33 0.684 0.495 1.248 0.495 0.528 0 0.913-0.137 1.155-0.41 0.242-0.272 0.363-0.686 0.363-1.24v-0.436h-1.611v-1.426h3.3v1.558c0 2.332-1.095 3.498-3.287 3.498z" fill="#fff" fill-rule="nonzero"/><path d="m17.973 24.626h-3.128l-0.554 1.768h-1.822l3.234-9.108h1.412l3.248 9.108h-1.835l-0.555-1.768zm-0.462-1.439-1.108-3.498-1.096 3.498h2.204z" fill="#fff" fill-rule="nonzero"/><path d="m23.795 22.646v3.748h-1.73v-3.735l-2.653-5.373h1.888l1.623 3.696 1.624-3.696h1.901l-2.653 5.36z" fill="#fff" fill-rule="nonzero"/><path d="m12.113 14.819c-0.977 0-1.738-0.244-2.284-0.732-0.546-0.489-0.849-1.195-0.911-2.119h1.637c0.062 0.502 0.222 0.856 0.482 1.063 0.259 0.206 0.644 0.31 1.155 0.31 0.977 0 1.465-0.401 1.465-1.201 0-0.361-0.097-0.636-0.29-0.825-0.194-0.19-0.502-0.319-0.924-0.39l-0.858-0.145c-1.646-0.273-2.469-1.118-2.469-2.534 0-0.845 0.28-1.514 0.838-2.007 0.559-0.493 1.301-0.739 2.225-0.739 0.897 0 1.608 0.238 2.131 0.713 0.524 0.475 0.821 1.144 0.891 2.006h-1.663c-0.026-0.44-0.154-0.761-0.383-0.963-0.228-0.203-0.563-0.304-1.003-0.304-0.449 0-0.787 0.103-1.016 0.31s-0.343 0.491-0.343 0.852c0 0.316 0.101 0.567 0.303 0.752 0.203 0.185 0.519 0.317 0.951 0.396l0.963 0.172c1.567 0.281 2.35 1.135 2.35 2.56 0 0.916-0.293 1.615-0.878 2.099s-1.375 0.726-2.369 0.726z" fill="#fff" fill-rule="nonzero"/><path d="m19.742 14.846c-2.173 0-3.26-1.21-3.26-3.63v-2.086c0-2.42 1.104-3.63 3.313-3.63 1.012 0 1.813 0.284 2.402 0.851 0.59 0.568 0.885 1.494 0.885 2.779v2.086c0 1.284-0.302 2.211-0.904 2.778-0.603 0.568-1.415 0.852-2.436 0.852zm0.053-1.545c0.528 0 0.92-0.169 1.175-0.508s0.383-0.873 0.383-1.604v-1.967c0-0.774-0.128-1.335-0.383-1.683-0.255-0.347-0.647-0.521-1.175-0.521-0.554 0-0.955 0.169-1.201 0.508-0.247 0.339-0.37 0.904-0.37 1.696v1.967c0 0.748 0.123 1.287 0.37 1.617 0.246 0.33 0.647 0.495 1.201 0.495z" fill="#fff" fill-rule="nonzero"/></g></g></svg>
