<?xml version="1.0" encoding="UTF-8"?>
<!DOCTYPE svg  PUBLIC '-//W3C//DTD SVG 1.1//EN'  'http://www.w3.org/Graphics/SVG/1.1/DTD/svg11.dtd'>
<svg clip-rule="evenodd" fill-rule="evenodd" stroke-linecap="round" stroke-linejoin="round" stroke-miterlimit="1.5" version="1.1" viewBox="0 0 32 32" xml:space="preserve" xmlns="http://www.w3.org/2000/svg">
<metadata>
<rdf:RDF xmlns:cc="http://web.resource.org/cc/" xmlns:dc="http://purl.org/dc/elements/1.1/" xmlns:rdf="http://www.w3.org/1999/02/22-rdf-syntax-ns#">

     <rdf:Description rdf:about="">
       <dc:title>Mutant Standard emoji 2023.12</dc:title>
     </rdf:Description>

    <cc:work rdf:about="">
        <cc:license rdf:resource="http://creativecommons.org/licenses/by-nc-sa/4.0/"/>
        <cc:attributionName>Caius Nocturne</cc:attributionName>
        <cc:attributionURL>http://mutant.tech/</cc:attributionURL>
    </cc:work>

</rdf:RDF>
</metadata>
<rect id="awoo" width="32" height="32" fill="none"/><g id="outline"><path d="m25 7 2.5-3" fill="none" stroke="#000" stroke-width="6px"/><path d="m26 11 3-1" fill="none" stroke="#000" stroke-width="6px"/><path d="m26 15 3 1" fill="none" stroke="#000" stroke-width="6px"/><path d="m6.435 12.739 3.852-2.311c0.467-0.28 1-0.428 1.544-0.428h3.169l6-4 0.345 1.035c0.419 1.258 0.322 2.631-0.271 3.817-0.346 0.693-0.704 1.408-0.907 1.814-0.111 0.222-0.236 0.438-0.374 0.645-0.512 0.767-1.793 2.689-1.793 2.689s0.336-0.168 0.733-0.367c0.833-0.416 1.752-0.633 2.683-0.633h0.584v0.595c0 0.89-0.395 1.735-1.079 2.305-0.973 0.81-2.411 2.009-3.482 2.901-0.912 0.76-1.439 1.885-1.439 3.072v6.127h-14c0-1.956 0.579-3.869 1.664-5.496 0.201-0.301 0.336-0.504 0.336-0.504h-2s0.05-0.198 0.127-0.507c0.437-1.75 1.233-3.385 2.33-4.803-0.476-0.199-0.913-0.49-1.285-0.862-0.751-0.75-1.172-1.767-1.172-2.828v-3l4.435 0.739z" fill="none" stroke="#000" stroke-width="4px"/><rect x="19" y="9" width="8" height="7"/></g><g id="emoji"><path d="m21.556 7.963c0.13 0.995-0.035 1.995-0.482 2.889-0.346 0.693-0.704 1.408-0.907 1.814-0.111 0.222-0.236 0.438-0.374 0.645-0.512 0.767-1.793 2.689-1.793 2.689s0.336-0.168 0.733-0.367c0.833-0.416 1.752-0.633 2.683-0.633h0.584v0.595c0 0.89-0.395 1.735-1.079 2.305-0.973 0.81-2.411 2.009-3.482 2.901-0.912 0.76-1.439 1.885-1.439 3.072v6.127h-14c0-1.956 0.579-3.869 1.664-5.496 0.201-0.301 0.336-0.504 0.336-0.504h-2s0.05-0.198 0.127-0.507c0.571-2.286 1.753-4.373 3.419-6.039l1.454-1.454-1-3s2.906-1.744 4.287-2.572c0.467-0.28 1-0.428 1.544-0.428h3.169l2.455-1.636 4.101-0.401z" fill="#aeaeae"/><clipPath id="_clip1"><path d="m21.556 7.963c0.13 0.995-0.035 1.995-0.482 2.889-0.346 0.693-0.704 1.408-0.907 1.814-0.111 0.222-0.236 0.438-0.374 0.645-0.512 0.767-1.793 2.689-1.793 2.689s0.336-0.168 0.733-0.367c0.833-0.416 1.752-0.633 2.683-0.633h0.584v0.595c0 0.89-0.395 1.735-1.079 2.305-0.973 0.81-2.411 2.009-3.482 2.901-0.912 0.76-1.439 1.885-1.439 3.072v6.127h-14c0-1.956 0.579-3.869 1.664-5.496 0.201-0.301 0.336-0.504 0.336-0.504h-2s0.05-0.198 0.127-0.507c0.571-2.286 1.753-4.373 3.419-6.039l1.454-1.454-1-3s2.906-1.744 4.287-2.572c0.467-0.28 1-0.428 1.544-0.428h3.169l2.455-1.636 4.101-0.401z"/></clipPath><g clip-path="url(#_clip1)"><path d="m2 12v3c0 1.061 0.421 2.078 1.172 2.828 0.75 0.751 1.767 1.172 2.828 1.172h2" fill="none" stroke="#7f7f7f" stroke-linecap="butt" stroke-width="4px"/></g><path d="m8 13-6-1v3c0 1.061 0.421 2.078 1.172 2.828 0.75 0.751 1.767 1.172 2.828 1.172h1.056c0.621 0 1.233-0.145 1.789-0.422 0.546-0.273 1.155-0.578 1.155-0.578l-2-5" fill="#aeaeae"/><path d="m17.455 8.364 3.545-2.364 0.345 1.035 0.211 0.928-0.452 0.301c-0.703 0.469-1.571 0.619-2.391 0.414l-1.258-0.314z" fill="#2d2d2d"/><path d="m25 7 2.5-3" fill="none" stroke="#fff" stroke-width="2px"/><path d="m26 11 3-1" fill="none" stroke="#fff" stroke-width="2px"/><path d="m26 15 3 1" fill="none" stroke="#fff" stroke-width="2px"/><path d="m10 13 3-1" fill="none" stroke="#000" stroke-width="2px"/></g></svg>
