<?xml version="1.0" encoding="UTF-8"?>
<!DOCTYPE svg  PUBLIC '-//W3C//DTD SVG 1.1//EN'  'http://www.w3.org/Graphics/SVG/1.1/DTD/svg11.dtd'>
<svg clip-rule="evenodd" fill-rule="evenodd" stroke-linejoin="round" stroke-miterlimit="1.4142" version="1.1" viewBox="0 0 32 32" xml:space="preserve" xmlns="http://www.w3.org/2000/svg">
<metadata>
<rdf:RDF xmlns:cc="http://web.resource.org/cc/" xmlns:dc="http://purl.org/dc/elements/1.1/" xmlns:rdf="http://www.w3.org/1999/02/22-rdf-syntax-ns#">

     <rdf:Description rdf:about="">
       <dc:title>Mutant Standard emoji 2023.12</dc:title>
     </rdf:Description>

    <cc:work rdf:about="">
        <cc:license rdf:resource="http://creativecommons.org/licenses/by-nc-sa/4.0/"/>
        <cc:attributionName>Caius Nocturne</cc:attributionName>
        <cc:attributionURL>http://mutant.tech/</cc:attributionURL>
    </cc:work>

</rdf:RDF>
</metadata>
<rect id="battery_medium" width="32" height="32" fill="none"/><clipPath id="_clip1"><rect width="32" height="32"/></clipPath><g clip-path="url(#_clip1)"><g id="outline"><path d="m29 10c0-2.209-1.791-4-4-4h-21c-2.209 0-4 1.791-4 4v12c0 2.209 1.791 4 4 4h21c2.209 0 4-1.791 4-4v-12z"/><path d="m32 14c0-1.657-1.343-3-3-3h-5v10h5c1.657 0 3-1.343 3-3v-4z"/></g><path d="m30 14c0-0.265-0.105-0.52-0.293-0.707-0.187-0.188-0.442-0.293-0.707-0.293h-3v6h3c0.265 0 0.52-0.105 0.707-0.293 0.188-0.187 0.293-0.442 0.293-0.707v-4z" fill="#999"/><g id="emoji"><path d="m27 10c0-0.53-0.211-1.039-0.586-1.414s-0.884-0.586-1.414-0.586h-21c-0.53 0-1.039 0.211-1.414 0.586s-0.586 0.884-0.586 1.414v12c0 0.53 0.211 1.039 0.586 1.414s0.884 0.586 1.414 0.586h21c0.53 0 1.039-0.211 1.414-0.586s0.586-0.884 0.586-1.414v-12z" fill="#fff"/></g><path d="m10 10c0-0.552-0.448-1-1-1h-4.96c-0.552 0-1 0.448-1 1v12c0 0.552 0.448 1 1 1h4.96c0.552 0 1-0.448 1-1v-12z" fill="#ef9b00"/><path d="m18.04 10c0-0.552-0.448-1-1-1h-5.04c-0.552 0-1 0.448-1 1v12c0 0.552 0.448 1 1 1h5.04c0.552 0 1-0.448 1-1v-12z" fill="#ef9b00"/></g></svg>
