<?xml version="1.0" encoding="UTF-8"?>
<svg clip-rule="evenodd" fill-rule="evenodd" stroke-linejoin="round" stroke-miterlimit="1.4142" viewBox="0 0 32 32" xmlns="http://www.w3.org/2000/svg">
 <clipPath id="a">
  <path d="m0 0h32v32h-32z" clip-rule="evenodd"/>
 </clipPath>
 <path d="m0 0h32v32h-32z" fill="none"/>
 <g clip-path="url(#a)">
  <path d="m29 10c0-2.209-1.791-4-4-4h-21c-2.209 0-4 1.791-4 4v12c0 2.209 1.791 4 4 4h21c2.209 0 4-1.791 4-4v-12z"/>
  <path d="m32 14c0-1.657-1.343-3-3-3h-5v10h5c1.657 0 3-1.343 3-3v-4z"/>
  <path d="m30 14c0-0.265-0.105-0.52-0.293-0.707-0.187-0.188-0.442-0.293-0.707-0.293h-3v6h3c0.265 0 0.52-0.105 0.707-0.293 0.188-0.187 0.293-0.442 0.293-0.707v-4z" fill="#999"/>
  <path d="m27 10c0-0.53-0.211-1.039-0.586-1.414s-0.884-0.586-1.414-0.586h-21c-0.53 0-1.039 0.211-1.414 0.586s-0.586 0.884-0.586 1.414v12c0 0.53 0.211 1.039 0.586 1.414s0.884 0.586 1.414 0.586h21c0.53 0 1.039-0.211 1.414-0.586s0.586-0.884 0.586-1.414v-12z" fill="#fff"/>
  <path d="m14 13.879s2.144-2.145 3.293-3.293c.39-.391 1.024-.391 1.414 0 .228.227.48.479.707.707.391.39.391 1.024 0 1.414-1.148 1.149-3.293 3.293-3.293 3.293s2.145 2.144 3.293 3.293c.391.39.391 1.024 0 1.414-.227.228-.479.48-.707.707-.39.391-1.024.391-1.414 0-1.149-1.148-3.293-3.293-3.293-3.293s-2.144 2.145-3.293 3.293c-.39.391-1.024.391-1.414 0-.228-.227-.48-.479-.707-.707-.391-.39-.391-1.024 0-1.414 1.148-1.149 3.293-3.293 3.293-3.293s-2.145-2.144-3.293-3.293c-.391-.39-.391-1.024 0-1.414.227-.228.479-.48.707-.707.39-.391 1.024-.391 1.414 0 1.149 1.148 3.293 3.293 3.293 3.293z" fill="#e82731" fill-rule="nonzero"/>
 </g>
</svg>
