<?xml version="1.0" encoding="UTF-8"?>
<svg clip-rule="evenodd" fill-rule="evenodd" stroke-linejoin="round" stroke-miterlimit="1.4142" viewBox="0 0 32 32" xmlns="http://www.w3.org/2000/svg">
 <clipPath id="a">
  <path d="m0 0h32v32h-32z" clip-rule="evenodd"/>
 </clipPath>
 <path d="m0 0h32v32h-32z" fill="none"/>
 <g clip-path="url(#a)">
  <path d="m29 10c0-2.209-1.791-4-4-4h-21c-2.209 0-4 1.791-4 4v12c0 2.209 1.791 4 4 4h21c2.209 0 4-1.791 4-4v-12z"/>
  <path d="m32 14c0-1.657-1.343-3-3-3h-5v10h5c1.657 0 3-1.343 3-3v-4z"/>
  <path d="m30 14c0-0.265-0.105-0.52-0.293-0.707-0.187-0.188-0.442-0.293-0.707-0.293h-3v6h3c0.265 0 0.52-0.105 0.707-0.293 0.188-0.187 0.293-0.442 0.293-0.707v-4z" fill="#999"/>
  <path d="m27 10c0-0.53-0.211-1.039-0.586-1.414s-0.884-0.586-1.414-0.586h-21c-0.53 0-1.039 0.211-1.414 0.586s-0.586 0.884-0.586 1.414v12c0 0.53 0.211 1.039 0.586 1.414s0.884 0.586 1.414 0.586h21c0.53 0 1.039-0.211 1.414-0.586s0.586-0.884 0.586-1.414v-12z" fill="#fff"/>
  <g fill="#4cbf1e">
   <path d="m10 11c0-0.53-0.211-1.039-0.586-1.414s-0.884-0.586-1.414-0.586h-2.96c-0.53 0-1.039 0.211-1.414 0.586s-0.586 0.884-0.586 1.414v10c0 0.53 0.211 1.039 0.586 1.414s0.884 0.586 1.414 0.586h2.96c0.53 0 1.039-0.211 1.414-0.586s0.586-0.884 0.586-1.414v-10z"/>
   <path d="m26 11c0-1.105-0.895-2-2-2h-3.04c-1.105 0-2 0.895-2 2v10c0 1.105 0.895 2 2 2h3.04c1.105 0 2-0.895 2-2v-10z"/>
   <path d="m18 11c0-0.53-0.211-1.039-0.586-1.414s-0.884-0.586-1.414-0.586h-2.96c-0.53 0-1.039 0.211-1.414 0.586s-0.586 0.884-0.586 1.414v10c0 0.53 0.211 1.039 0.586 1.414s0.884 0.586 1.414 0.586h2.96c0.53 0 1.039-0.211 1.414-0.586s0.586-0.884 0.586-1.414v-10z"/>
  </g>
 </g>
</svg>
