<?xml version="1.0" encoding="UTF-8"?>
<svg clip-rule="evenodd" fill-rule="evenodd" stroke-linejoin="round" stroke-miterlimit="1.5" viewBox="0 0 32 32" xmlns="http://www.w3.org/2000/svg">
 <path d="m0 0h32v32h-32z" fill="none"/>
 <circle cx="16" cy="16" r="16"/>
 <circle cx="16" cy="16" r="14" fill="#e82731"/>
 <circle cx="16" cy="16" r="11"/>
 <path d="m19 18s0-2.255 0-4c0-1.105-0.895-2-2-2-1.326 0-2.598 0.527-3.536 1.464-0.937 0.938-1.464 2.21-1.464 3.536v1c0 0.53 0.211 1.039 0.586 1.414s0.884 0.586 1.414 0.586h2.172c0.53 0 1.039-0.211 1.414-0.586l1.414-1.414z" fill="none" stroke="#fff" stroke-width="2"/>
 <path d="m19 20h1c1.061 0 2.078-0.421 2.828-1.172 0.751-0.75 1.172-1.767 1.172-2.828 0-4.418-3.582-8-8-8s-8 3.582-8 8 3.582 8 8 8h1" fill="none" stroke="#fff" stroke-width="2"/>
 <path d="m19 18h1v2h-1z" fill="#fff"/>
 <path d="m7 25 18-18" fill="none" stroke="#e82731" stroke-width="3"/>
</svg>
