<?xml version="1.0" encoding="UTF-8"?>
<!DOCTYPE svg  PUBLIC '-//W3C//DTD SVG 1.1//EN'  'http://www.w3.org/Graphics/SVG/1.1/DTD/svg11.dtd'>
<svg clip-rule="evenodd" fill-rule="evenodd" stroke-linejoin="round" stroke-miterlimit="1.5" version="1.1" viewBox="0 0 32 32" xml:space="preserve" xmlns="http://www.w3.org/2000/svg">
<metadata>
<rdf:RDF xmlns:cc="http://web.resource.org/cc/" xmlns:dc="http://purl.org/dc/elements/1.1/" xmlns:rdf="http://www.w3.org/1999/02/22-rdf-syntax-ns#">

     <rdf:Description rdf:about="">
       <dc:title>Mutant Standard emoji 2023.12</dc:title>
     </rdf:Description>

    <cc:work rdf:about="">
        <cc:license rdf:resource="http://creativecommons.org/licenses/by-nc-sa/4.0/"/>
        <cc:attributionName>Caius Nocturne</cc:attributionName>
        <cc:attributionURL>http://mutant.tech/</cc:attributionURL>
    </cc:work>

</rdf:RDF>
</metadata>
<rect id="dont_at_me" width="32" height="32" fill="none"/><g id="outline"><circle cx="16" cy="16" r="16"/></g><g id="emoji"><circle cx="16" cy="16" r="14" fill="#e82731"/><circle cx="16" cy="16" r="11"/><path d="m19 18v-4c0-1.105-0.895-2-2-2-1.326 0-2.598 0.527-3.536 1.464-0.937 0.938-1.464 2.21-1.464 3.536v1c0 0.53 0.211 1.039 0.586 1.414s0.884 0.586 1.414 0.586h2.172c0.53 0 1.039-0.211 1.414-0.586l1.414-1.414z" fill="none" stroke="#fff" stroke-width="2px"/><path d="m19 20h1c1.061 0 2.078-0.421 2.828-1.172 0.751-0.75 1.172-1.767 1.172-2.828 0-4.418-3.582-8-8-8s-8 3.582-8 8 3.582 8 8 8h1" fill="none" stroke="#fff" stroke-width="2px"/><rect x="19" y="18" width="1" height="2" fill="#fff"/><path d="m7 25 18-18" fill="none" stroke="#e82731" stroke-width="3px"/></g></svg>
