<?xml version="1.0" encoding="UTF-8"?>
<!DOCTYPE svg  PUBLIC '-//W3C//DTD SVG 1.1//EN'  'http://www.w3.org/Graphics/SVG/1.1/DTD/svg11.dtd'>
<svg clip-rule="evenodd" fill-rule="evenodd" stroke-linejoin="round" stroke-miterlimit="2" version="1.1" viewBox="0 0 32 32" xml:space="preserve" xmlns="http://www.w3.org/2000/svg" xmlns:serif="http://www.serif.com/">
<metadata>
<rdf:RDF xmlns:cc="http://web.resource.org/cc/" xmlns:dc="http://purl.org/dc/elements/1.1/" xmlns:rdf="http://www.w3.org/1999/02/22-rdf-syntax-ns#">

     <rdf:Description rdf:about="">
       <dc:title>Mutant Standard emoji 2023.12</dc:title>
     </rdf:Description>

    <cc:work rdf:about="">
        <cc:license rdf:resource="http://creativecommons.org/licenses/by-nc-sa/4.0/"/>
        <cc:attributionName>Caius Nocturne</cc:attributionName>
        <cc:attributionURL>http://mutant.tech/</cc:attributionURL>
    </cc:work>

</rdf:RDF>
</metadata>

    <rect id="autism" width="32" height="32" fill="none"/>
    <clipPath id="_clip1">
        <rect width="32" height="32"/>
    </clipPath>
    <g clip-path="url(#_clip1)">
        <g id="outline">
            <path id="path4" d="m2 15v-0.048c-5e-3 -2.026 0.575-4.081 1.806-5.793 1.239-1.724 3.061-2.659 4.868-2.659 1.841 0 3.626 0.979 4.868 2.656 0.75 1.015 1.615 2.184 2.458 3.323v1e-3 -1e-3c0.843-1.139 1.708-2.308 2.458-3.323 1.242-1.677 3.027-2.656 4.868-2.656 1.807 0 3.629 0.935 4.868 2.659 1.231 1.712 1.811 3.767 1.806 5.793v0.048 2c0.014 2.042-0.565 4.115-1.806 5.841-1.239 1.724-3.061 2.659-4.868 2.659-1.841 0-3.626-0.979-4.868-2.656-0.75-1.015-1.615-2.184-2.458-3.323v-1e-3 1e-3c-0.843 1.139-1.708 2.308-2.458 3.323-1.242 1.677-3.027 2.656-4.868 2.656-1.807 0-3.629-0.935-4.868-2.659-1.241-1.726-1.82-3.799-1.806-5.841v-2zm24.943 1c-0.14-1.11-0.52-2.184-1.163-3.059-0.744-1.012-1.645-1.441-2.454-1.441-0.81 0-1.676 0.387-2.456 1.441l-2.264 3.059 2.264 3.059c0.78 1.054 1.646 1.441 2.456 1.441 0.809 0 1.71-0.429 2.454-1.441 0.643-0.875 1.023-1.949 1.163-3.059zm-13.549 0-2.264-3.059c-0.774-1.046-1.633-1.435-2.437-1.441h-0.019c-0.809 0-1.71 0.429-2.454 1.441-0.643 0.875-1.023 1.949-1.163 3.059 0.14 1.11 0.52 2.184 1.163 3.059 0.744 1.012 1.645 1.441 2.454 1.441h0.019c0.804-6e-3 1.663-0.395 2.437-1.441l2.264-3.059z" fill="none" stroke="#000" stroke-width="4px"/>
            <rect x="3" y="11" width="26" height="10.491"/>
        </g>
        <g id="emoji">
            <path id="path41" d="m2 15h0.179c0.256-1.361 0.792-2.68 1.627-3.841 1.239-1.724 3.061-2.659 4.868-2.659 1.841 0 3.626 0.979 4.868 2.656 0.75 1.015 1.615 2.184 2.458 3.323v1e-3 -1e-3c0.843-1.139 1.708-2.308 2.458-3.323 1.242-1.677 3.027-2.656 4.868-2.656 1.807 0 3.629 0.935 4.868 2.659 0.835 1.161 1.371 2.48 1.627 3.841h0.179v2c0.014 2.042-0.565 4.115-1.806 5.841-1.239 1.724-3.061 2.659-4.868 2.659-1.841 0-3.626-0.979-4.868-2.656-0.75-1.015-1.615-2.184-2.458-3.323v-1e-3 1e-3c-0.843 1.139-1.708 2.308-2.458 3.323-1.242 1.677-3.027 2.656-4.868 2.656-1.807 0-3.629-0.935-4.868-2.659-1.241-1.726-1.82-3.799-1.806-5.841v-2zm15.866 2 3.004 4.059c0.78 1.054 1.646 1.441 2.456 1.441 0.809 0 1.71-0.429 2.454-1.441 0.835-1.137 1.227-2.607 1.224-4.059v-0.034c-3e-3 -1.441-0.395-2.897-1.224-4.025-0.744-1.012-1.645-1.441-2.454-1.441-0.81 0-1.676 0.387-2.456 1.441l-3.004 4.059zm-9.192-5.5c-0.809 0-1.71 0.429-2.454 1.441-0.829 1.128-1.221 2.584-1.224 4.025v0.034c-3e-3 1.452 0.389 2.922 1.224 4.059 0.744 1.012 1.645 1.441 2.454 1.441h0.019c0.804-6e-3 1.663-0.395 2.437-1.441l3.004-4.059-3.004-4.059c-0.774-1.046-1.633-1.435-2.437-1.441h-0.019z" fill-rule="nonzero" serif:id="path4"/>
            <clipPath id="_clip2">
                <path d="m2 15h0.179c0.256-1.361 0.792-2.68 1.627-3.841 1.239-1.724 3.061-2.659 4.868-2.659 1.841 0 3.626 0.979 4.868 2.656 0.75 1.015 1.615 2.184 2.458 3.323v1e-3 -1e-3c0.843-1.139 1.708-2.308 2.458-3.323 1.242-1.677 3.027-2.656 4.868-2.656 1.807 0 3.629 0.935 4.868 2.659 0.835 1.161 1.371 2.48 1.627 3.841h0.179v2c0.014 2.042-0.565 4.115-1.806 5.841-1.239 1.724-3.061 2.659-4.868 2.659-1.841 0-3.626-0.979-4.868-2.656-0.75-1.015-1.615-2.184-2.458-3.323v-1e-3 1e-3c-0.843 1.139-1.708 2.308-2.458 3.323-1.242 1.677-3.027 2.656-4.868 2.656-1.807 0-3.629-0.935-4.868-2.659-1.241-1.726-1.82-3.799-1.806-5.841v-2zm15.866 2 3.004 4.059c0.78 1.054 1.646 1.441 2.456 1.441 0.809 0 1.71-0.429 2.454-1.441 0.835-1.137 1.227-2.607 1.224-4.059v-0.034c-3e-3 -1.441-0.395-2.897-1.224-4.025-0.744-1.012-1.645-1.441-2.454-1.441-0.81 0-1.676 0.387-2.456 1.441l-3.004 4.059zm-9.192-5.5c-0.809 0-1.71 0.429-2.454 1.441-0.829 1.128-1.221 2.584-1.224 4.025v0.034c-3e-3 1.452 0.389 2.922 1.224 4.059 0.744 1.012 1.645 1.441 2.454 1.441h0.019c0.804-6e-3 1.663-0.395 2.437-1.441l3.004-4.059-3.004-4.059c-0.774-1.046-1.633-1.435-2.437-1.441h-0.019z" clip-rule="nonzero"/>
            </clipPath>
            <g clip-path="url(#_clip2)">
                <rect x="2" y="6" width="6" height="20" fill="#850e16"/>
                <rect x="6.667" y="6" width="6.333" height="20" fill="#844008"/>
                <rect x="11.333" y="6" width="6.074" height="20" fill="#826400"/>
                <rect x="16" y="6" width="6" height="20" fill="#26670a"/>
                <rect x="20.667" y="6" width="5.842" height="20" fill="#0f6572"/>
                <rect x="25.333" y="6" width="6.03" height="20" fill="#49177b"/>
            </g>
            <path id="path42" d="m16 12.48v-1e-3c0.843-1.139 1.708-2.308 2.458-3.323 1.242-1.677 3.027-2.656 4.868-2.656 1.807 0 3.629 0.935 4.868 2.659 1.231 1.712 1.811 3.767 1.806 5.793v0.048c0.014 2.042-0.565 4.115-1.806 5.841-1.239 1.724-3.061 2.659-4.868 2.659-1.841 0-3.626-0.979-4.868-2.656-0.75-1.015-1.615-2.184-2.458-3.323v-1e-3 1e-3c-0.843 1.139-1.708 2.308-2.458 3.323-1.242 1.677-3.027 2.656-4.868 2.656-1.807 0-3.629-0.935-4.868-2.659-1.241-1.726-1.82-3.799-1.806-5.841v-0.048c-5e-3 -2.026 0.575-4.081 1.806-5.793 1.239-1.724 3.061-2.659 4.868-2.659 1.841 0 3.626 0.979 4.868 2.656 0.75 1.015 1.615 2.184 2.458 3.323v1e-3zm1.866 2.52 3.004 4.059c0.78 1.054 1.646 1.441 2.456 1.441 0.809 0 1.71-0.429 2.454-1.441 0.835-1.137 1.227-2.607 1.224-4.059v-0.034c-3e-3 -1.441-0.395-2.897-1.224-4.025-0.744-1.012-1.645-1.441-2.454-1.441-0.81 0-1.676 0.387-2.456 1.441l-3.004 4.059zm-9.192-5.5c-0.809 0-1.71 0.429-2.454 1.441-0.829 1.128-1.221 2.584-1.224 4.025v0.034c-3e-3 1.452 0.389 2.922 1.224 4.059 0.744 1.012 1.645 1.441 2.454 1.441h0.019c0.804-6e-3 1.663-0.395 2.437-1.441l3.004-4.059-3.004-4.059c-0.774-1.046-1.633-1.435-2.437-1.441h-0.019z" fill-rule="nonzero" serif:id="path4"/>
            <clipPath id="_clip3">
                <path d="m16 12.48v-1e-3c0.843-1.139 1.708-2.308 2.458-3.323 1.242-1.677 3.027-2.656 4.868-2.656 1.807 0 3.629 0.935 4.868 2.659 1.231 1.712 1.811 3.767 1.806 5.793v0.048c0.014 2.042-0.565 4.115-1.806 5.841-1.239 1.724-3.061 2.659-4.868 2.659-1.841 0-3.626-0.979-4.868-2.656-0.75-1.015-1.615-2.184-2.458-3.323v-1e-3 1e-3c-0.843 1.139-1.708 2.308-2.458 3.323-1.242 1.677-3.027 2.656-4.868 2.656-1.807 0-3.629-0.935-4.868-2.659-1.241-1.726-1.82-3.799-1.806-5.841v-0.048c-5e-3 -2.026 0.575-4.081 1.806-5.793 1.239-1.724 3.061-2.659 4.868-2.659 1.841 0 3.626 0.979 4.868 2.656 0.75 1.015 1.615 2.184 2.458 3.323v1e-3zm1.866 2.52 3.004 4.059c0.78 1.054 1.646 1.441 2.456 1.441 0.809 0 1.71-0.429 2.454-1.441 0.835-1.137 1.227-2.607 1.224-4.059v-0.034c-3e-3 -1.441-0.395-2.897-1.224-4.025-0.744-1.012-1.645-1.441-2.454-1.441-0.81 0-1.676 0.387-2.456 1.441l-3.004 4.059zm-9.192-5.5c-0.809 0-1.71 0.429-2.454 1.441-0.829 1.128-1.221 2.584-1.224 4.025v0.034c-3e-3 1.452 0.389 2.922 1.224 4.059 0.744 1.012 1.645 1.441 2.454 1.441h0.019c0.804-6e-3 1.663-0.395 2.437-1.441l3.004-4.059-3.004-4.059c-0.774-1.046-1.633-1.435-2.437-1.441h-0.019z" clip-rule="nonzero"/>
            </clipPath>
            <g clip-path="url(#_clip3)">
                <rect x="2" y="5" width="6" height="19" fill="#e82731"/>
                <rect x="6.667" y="5" width="6.333" height="19" fill="#f1780f"/>
                <rect x="11.333" y="5" width="6.074" height="19" fill="#eeba00"/>
                <rect x="16" y="5" width="6" height="19" fill="#4cbf1e"/>
                <rect x="20.667" y="5" width="5.842" height="19" fill="#30bfdb"/>
                <rect x="25.333" y="5" width="6.03" height="19" fill="#9146dc"/>
            </g>
        </g>
    </g>
</svg>
