<?xml version="1.0" encoding="UTF-8"?>
<!DOCTYPE svg  PUBLIC '-//W3C//DTD SVG 1.1//EN'  'http://www.w3.org/Graphics/SVG/1.1/DTD/svg11.dtd'>
<svg clip-rule="evenodd" fill-rule="evenodd" stroke-linecap="round" stroke-linejoin="round" stroke-miterlimit="10" version="1.1" viewBox="0 0 32 32" xml:space="preserve" xmlns="http://www.w3.org/2000/svg">
<metadata>
<rdf:RDF xmlns:cc="http://web.resource.org/cc/" xmlns:dc="http://purl.org/dc/elements/1.1/" xmlns:rdf="http://www.w3.org/1999/02/22-rdf-syntax-ns#">

     <rdf:Description rdf:about="">
       <dc:title>Mutant Standard emoji 2023.12</dc:title>
     </rdf:Description>

    <cc:work rdf:about="">
        <cc:license rdf:resource="http://creativecommons.org/licenses/by-nc-sa/4.0/"/>
        <cc:attributionName>Caius Nocturne</cc:attributionName>
        <cc:attributionURL>http://mutant.tech/</cc:attributionURL>
    </cc:work>

</rdf:RDF>
</metadata>
<rect id="cup_with_straw" width="32" height="32" fill="none"/><clipPath id="_clip1"><rect width="32" height="32"/></clipPath><g clip-path="url(#_clip1)"><g id="outline" fill="none" stroke="#000"><path d="m7.012 6.204c-8e-3 -0.067-0.012-0.135-0.012-0.204 0-2.208 4.033-4 9-4s9 1.792 9 4c0 0.069-4e-3 0.137-0.012 0.204v1e-3c-4e-3 0.035-9e-3 0.069-0.015 0.104l-2.984 20.872c-3e-3 0.024-6e-3 0.048-0.01 0.072-0.257 1.538-2.838 2.747-5.979 2.747s-5.722-1.209-5.979-2.747c-4e-3 -0.024-7e-3 -0.048-0.01-0.072l-2.984-20.872c-6e-3 -0.035-0.011-0.069-0.015-0.105z" stroke-width="4px"/><path d="m19 20.5 1-17" stroke-width="6.5px"/><path d="m19.807 6.783 0.193-3.283 5 1" stroke-width="6.5px"/></g><g id="emoji"><path d="m10.01 27.178-3.01-21.178h18l-3.01 21.178c-3e-3 0.025-7e-3 0.05-0.011 0.075-0.257 1.538-2.838 2.747-5.979 2.747s-5.722-1.209-5.979-2.747c-4e-3 -0.025-8e-3 -0.05-0.011-0.075z" fill="#fff"/><path d="m24 6h-16l3.005 21.091h9.99l3.005-21.091z" fill="#c5c5c5"/><path d="m20.995 27.091c-0.119 1.062-2.312 1.909-4.995 1.909s-4.876-0.847-4.995-1.909l-2.517-17.669h15.024l-2.517 17.669z" fill="#71572b"/><ellipse cx="16" cy="6" rx="8.477" ry="3.414" fill="#c5c5c5"/><ellipse cx="16" cy="9.422" rx="7.5" ry="2.859" fill="#a27b3e"/><path d="m14.771 29.471-2.591-0.727-2.13-20.036 1.141-0.122 1.425 0.612 2.155 20.273z" fill="#fff" fill-opacity=".26274" fill-rule="nonzero"/><path d="m19 20.5 1-17" fill="none" stroke="#e82731" stroke-width="2.5px"/><path d="m16.232 2.001 0.231 4e-3 0.229 7e-3 0.228 9e-3 0.226 0.011 0.224 0.014 0.222 0.017 0.221 0.018 0.218 0.022 0.217 0.023 0.215 0.026 0.212 0.028 0.21 0.03 0.208 0.033 0.206 0.035 0.203 0.037 0.2 0.039 0.198 0.041 0.196 0.043 0.192 0.045 0.19 0.047 0.187 0.049 0.184 0.052 0.182 0.053 0.178 0.054 0.174 0.057 0.172 0.059 0.168 0.06 0.165 0.062 0.162 0.064 0.158 0.065 0.155 0.067 0.151 0.069 0.074 0.035 0.073 0.035 0.072 0.036 0.071 0.036 0.07 0.036 0.07 0.037 0.068 0.037 0.134 0.076 0.065 0.038 0.128 0.078 0.062 0.039 0.061 0.04 0.06 0.04 0.059 0.041 0.058 0.04 0.057 0.042 0.056 0.041 0.055 0.042 0.054 0.042 0.052 0.042 0.102 0.086 0.049 0.043 0.048 0.043 0.047 0.044 0.045 0.044 0.045 0.045 0.043 0.045 0.042 0.045 0.041 0.045 0.04 0.045 0.039 0.046 0.037 0.046 0.036 0.047 0.035 0.046 0.033 0.047 0.032 0.047 0.031 0.047 0.03 0.048 0.056 0.096 0.025 0.048 0.025 0.049 0.023 0.048 0.022 0.049 0.02 0.049 0.019 0.05 0.018 0.049 0.017 0.05 0.015 0.05 0.013 0.05 0.012 0.05 0.011 0.051 0.01 0.05 8e-3 0.051 6e-3 0.051 5e-3 0.051 4e-3 0.052 2e-3 0.051 1e-3 0.052-1e-3 0.052-2e-3 0.051-4e-3 0.052-5e-3 0.051-6e-3 0.051-8e-3 0.051-0.01 0.05-0.011 0.051-0.012 0.05-0.013 0.05-0.015 0.05-0.017 0.05-0.018 0.049-0.019 0.05-0.02 0.049-0.022 0.049-0.023 0.048-0.025 0.049-0.025 0.048-0.056 0.096-0.03 0.048-0.031 0.047-0.032 0.047-0.033 0.047-0.035 0.046-0.036 0.047-0.037 0.046-0.039 0.046-0.04 0.045-0.041 0.045-0.042 0.045-0.043 0.045-0.045 0.045-0.045 0.044-0.047 0.044-0.048 0.043-0.049 0.043-0.102 0.086-0.052 0.042-0.054 0.042-0.055 0.042-0.056 0.041-0.057 0.042-0.058 0.04-0.059 0.041-0.06 0.04-0.061 0.04-0.062 0.039-0.128 0.078-0.065 0.038-0.134 0.076-0.068 0.037-0.07 0.037-0.07 0.036-0.071 0.036-0.072 0.036-0.073 0.035-0.074 0.035-0.151 0.069-0.155 0.067-0.158 0.065-0.162 0.064-0.165 0.062-0.168 0.06-0.172 0.059-0.174 0.057-0.178 0.054-0.182 0.053-0.184 0.052-0.187 0.049-0.19 0.047-0.192 0.045-0.196 0.043-0.198 0.041-0.2 0.039-0.203 0.037-0.206 0.035-0.208 0.033-0.21 0.03-0.212 0.028-0.215 0.026-0.217 0.023-0.218 0.022-0.221 0.018-0.222 0.017-0.224 0.014-0.226 0.011-0.228 9e-3 -0.229 7e-3 -0.231 4e-3 -0.232 1e-3 -0.232-1e-3 -0.231-4e-3 -0.229-7e-3 -0.228-9e-3 -0.226-0.011-0.224-0.014-0.222-0.017-0.221-0.018-0.218-0.022-0.217-0.023-0.215-0.026-0.212-0.028-0.21-0.03-0.208-0.033-0.206-0.035-0.203-0.037-0.2-0.039-0.198-0.041-0.196-0.043-0.192-0.045-0.19-0.047-0.187-0.049-0.184-0.052-0.182-0.053-0.178-0.054-0.174-0.057-0.172-0.059-0.168-0.06-0.165-0.062-0.162-0.064-0.158-0.065-0.155-0.067-0.151-0.069-0.074-0.035-0.073-0.035-0.072-0.036-0.071-0.036-0.07-0.036-0.07-0.037-0.068-0.037-0.134-0.076-0.065-0.038-0.128-0.078-0.062-0.039-0.061-0.04-0.06-0.04-0.059-0.041-0.058-0.04-0.057-0.042-0.056-0.041-0.055-0.042-0.054-0.042-0.052-0.042-0.102-0.086-0.049-0.043-0.048-0.043-0.047-0.044-0.045-0.044-0.045-0.045-0.043-0.045-0.042-0.045-0.041-0.045-0.04-0.045-0.039-0.046-0.037-0.046-0.036-0.047-0.035-0.046-0.033-0.047-0.032-0.047-0.031-0.047-0.03-0.048-0.056-0.096-0.025-0.048-0.025-0.049-0.023-0.048-0.022-0.049-0.02-0.049-0.019-0.05-0.018-0.049-0.017-0.05-0.015-0.05-0.013-0.05-0.012-0.05-0.011-0.051-0.01-0.05-8e-3 -0.051-6e-3 -0.051-5e-3 -0.051-4e-3 -0.052-2e-3 -0.051-1e-3 -0.052 1e-3 -0.052 2e-3 -0.051 4e-3 -0.052 5e-3 -0.051 6e-3 -0.051 8e-3 -0.051 0.01-0.05 0.011-0.051 0.012-0.05 0.013-0.05 0.015-0.05 0.017-0.05 0.018-0.049 0.019-0.05 0.02-0.049 0.022-0.049 0.023-0.048 0.025-0.049 0.025-0.048 0.056-0.096 0.03-0.048 0.031-0.047 0.032-0.047 0.033-0.047 0.035-0.046 0.036-0.047 0.037-0.046 0.039-0.046 0.04-0.045 0.041-0.045 0.042-0.045 0.043-0.045 0.045-0.045 0.045-0.044 0.047-0.044 0.048-0.043 0.049-0.043 0.102-0.086 0.052-0.042 0.054-0.042 0.055-0.042 0.056-0.041 0.057-0.042 0.058-0.04 0.059-0.041 0.06-0.04 0.061-0.04 0.062-0.039 0.128-0.078 0.065-0.038 0.134-0.076 0.068-0.037 0.07-0.037 0.07-0.036 0.071-0.036 0.072-0.036 0.073-0.035 0.074-0.035 0.151-0.069 0.155-0.067 0.158-0.065 0.162-0.064 0.165-0.062 0.168-0.06 0.172-0.059 0.174-0.057 0.178-0.054 0.182-0.053 0.184-0.052 0.187-0.049 0.19-0.047 0.192-0.045 0.196-0.043 0.198-0.041 0.2-0.039 0.203-0.037 0.206-0.035 0.208-0.033 0.21-0.03 0.212-0.028 0.215-0.026 0.217-0.023 0.218-0.022 0.221-0.018 0.222-0.017 0.224-0.014 0.226-0.011 0.228-9e-3 0.229-7e-3 0.231-4e-3 0.232-1e-3 0.232 1e-3zm-0.453 1-0.219 4e-3 -0.218 6e-3 -0.216 9e-3 -0.215 0.011-0.213 0.013-0.211 0.015-0.209 0.018-0.207 0.02-0.205 0.023-0.203 0.024-0.201 0.027-0.198 0.028-0.196 0.031-0.194 0.033-0.191 0.034-0.188 0.037-0.186 0.039-0.183 0.04-0.18 0.042-0.177 0.044-0.173 0.046-0.171 0.047-0.168 0.049-0.164 0.051-0.161 0.052-0.157 0.054-0.154 0.055-0.15 0.056-0.146 0.058-0.143 0.059-0.138 0.06-0.137 0.062-0.064 0.03-0.064 0.031-0.064 0.032-0.063 0.032-0.122 0.064-0.059 0.032-0.058 0.033-0.057 0.032-0.056 0.033-0.055 0.033-0.054 0.033-0.052 0.033-0.052 0.034-0.05 0.033-0.049 0.034-0.047 0.033-0.047 0.034-0.045 0.033-0.044 0.034-0.043 0.034-0.042 0.033-0.04 0.034-0.04 0.033-0.037 0.034-0.037 0.033-0.07 0.066-0.032 0.033-0.032 0.032-0.03 0.033-0.029 0.032-0.028 0.032-0.027 0.031-0.025 0.032-0.024 0.031-0.023 0.03-0.022 0.031-0.021 0.03-0.019 0.029-0.018 0.029-0.017 0.029-0.016 0.029-0.015 0.027-0.014 0.028-0.013 0.027-0.012 0.026-0.011 0.027-9e-3 0.025-0.01 0.026-8e-3 0.025-0.014 0.048-6e-3 0.024-5e-3 0.024-4e-3 0.023-4e-3 0.024-3e-3 0.023-4e-3 0.046-1e-3 0.023v0.023 0.023l1e-3 0.023 4e-3 0.046 3e-3 0.023 4e-3 0.024 4e-3 0.023 5e-3 0.024 6e-3 0.024 0.014 0.048 8e-3 0.025 9e-3 0.026 0.01 0.025 0.011 0.027 0.012 0.026 0.013 0.027 0.014 0.028 0.015 0.027 0.016 0.029 0.017 0.029 0.018 0.029 0.019 0.029 0.021 0.03 0.022 0.031 0.023 0.03 0.024 0.031 0.025 0.032 0.027 0.031 0.028 0.032 0.029 0.032 0.03 0.033 0.032 0.032 0.032 0.033 0.07 0.066 0.037 0.033 0.037 0.034 0.04 0.033 0.04 0.034 0.042 0.033 0.043 0.034 0.044 0.034 0.045 0.033 0.047 0.034 0.047 0.033 0.049 0.034 0.05 0.033 0.052 0.034 0.052 0.033 0.054 0.033 0.055 0.033 0.056 0.033 0.057 0.032 0.058 0.033 0.059 0.032 0.122 0.064 0.126 0.064 0.065 0.031 0.064 0.03 0.137 0.062 0.138 0.06 0.143 0.059 0.146 0.058 0.15 0.056 0.154 0.055 0.157 0.054 0.161 0.052 0.164 0.051 0.168 0.049 0.171 0.047 0.173 0.046 0.177 0.044 0.18 0.042 0.183 0.04 0.186 0.039 0.188 0.037 0.191 0.034 0.194 0.033 0.196 0.031 0.198 0.028 0.201 0.027 0.203 0.024 0.205 0.023 0.207 0.02 0.209 0.018 0.211 0.015 0.213 0.013 0.215 0.011 0.216 9e-3 0.218 6e-3 0.219 4e-3 0.221 1e-3 0.221-1e-3 0.219-4e-3 0.218-6e-3 0.216-9e-3 0.215-0.011 0.213-0.013 0.211-0.015 0.209-0.018 0.207-0.02 0.205-0.023 0.203-0.024 0.201-0.027 0.198-0.028 0.196-0.031 0.194-0.033 0.191-0.034 0.188-0.037 0.186-0.039 0.183-0.04 0.18-0.042 0.177-0.044 0.173-0.046 0.171-0.047 0.168-0.049 0.164-0.051 0.161-0.052 0.157-0.054 0.154-0.055 0.15-0.056 0.146-0.058 0.143-0.059 0.138-0.06 0.137-0.062 0.064-0.03 0.065-0.031 0.126-0.064 0.122-0.064 0.059-0.032 0.058-0.033 0.057-0.032 0.056-0.033 0.055-0.033 0.054-0.033 0.052-0.033 0.052-0.034 0.05-0.033 0.049-0.034 0.047-0.033 0.047-0.034 0.045-0.033 0.044-0.034 0.043-0.034 0.042-0.033 0.04-0.034 0.04-0.033 0.037-0.034 0.037-0.033 0.07-0.066 0.032-0.033 0.032-0.032 0.03-0.033 0.03-0.032 0.027-0.032 0.027-0.031 0.025-0.032 0.024-0.031 0.023-0.03 0.022-0.031 0.02-0.03 0.02-0.029 0.018-0.029 0.017-0.029 0.016-0.029 0.015-0.027 0.014-0.028 0.013-0.027 0.012-0.026 0.011-0.027 0.01-0.025 9e-3 -0.026 8e-3 -0.025 0.014-0.048 6e-3 -0.024 5e-3 -0.024 4e-3 -0.023 4e-3 -0.024 3e-3 -0.023 4e-3 -0.046 1e-3 -0.023v-0.023-0.023l-1e-3 -0.023-4e-3 -0.046-3e-3 -0.023-4e-3 -0.024-4e-3 -0.023-5e-3 -0.024-6e-3 -0.024-0.014-0.048-8e-3 -0.025-0.01-0.026-9e-3 -0.025-0.011-0.027-0.012-0.026-0.013-0.027-0.014-0.028-0.015-0.027-0.016-0.029-0.017-0.029-0.018-0.029-0.02-0.029-0.02-0.03-0.022-0.031-0.023-0.03-0.024-0.031-0.025-0.032-0.027-0.031-0.027-0.032-0.03-0.032-0.03-0.033-0.032-0.032-0.032-0.033-0.07-0.066-0.037-0.033-0.037-0.034-0.04-0.033-0.04-0.034-0.042-0.033-0.042-0.034-0.045-0.034-0.045-0.033-0.047-0.034-0.047-0.033-0.049-0.034-0.05-0.033-0.052-0.034-0.052-0.033-0.054-0.033-0.055-0.033-0.056-0.033-0.057-0.032-0.058-0.033-0.059-0.032-0.122-0.064-0.126-0.064-0.065-0.031-0.064-0.03-0.137-0.062-0.138-0.06-0.143-0.059-0.146-0.058-0.15-0.056-0.154-0.055-0.157-0.054-0.161-0.052-0.164-0.051-0.168-0.049-0.171-0.047-0.173-0.046-0.177-0.044-0.18-0.042-0.183-0.04-0.186-0.039-0.188-0.037-0.191-0.034-0.194-0.033-0.196-0.031-0.198-0.028-0.201-0.027-0.203-0.024-0.205-0.023-0.207-0.02-0.209-0.018-0.211-0.015-0.213-0.013-0.215-0.011-0.216-9e-3 -0.218-6e-3 -0.219-4e-3 -0.221-1e-3 -0.221 1e-3z" fill="#fff"/><path d="m19.807 6.783 0.193-3.283 5 1" fill="none" stroke="#e82731" stroke-width="2.5px"/></g></g></svg>
