<?xml version="1.0" encoding="UTF-8"?>
<!DOCTYPE svg  PUBLIC '-//W3C//DTD SVG 1.1//EN'  'http://www.w3.org/Graphics/SVG/1.1/DTD/svg11.dtd'>
<svg clip-rule="evenodd" fill-rule="evenodd" stroke-linecap="round" stroke-linejoin="round" stroke-miterlimit="1.5" version="1.1" viewBox="0 0 32 32" xml:space="preserve" xmlns="http://www.w3.org/2000/svg">
<metadata>
<rdf:RDF xmlns:cc="http://web.resource.org/cc/" xmlns:dc="http://purl.org/dc/elements/1.1/" xmlns:rdf="http://www.w3.org/1999/02/22-rdf-syntax-ns#">

     <rdf:Description rdf:about="">
       <dc:title>Mutant Standard emoji 2023.12</dc:title>
     </rdf:Description>

    <cc:work rdf:about="">
        <cc:license rdf:resource="http://creativecommons.org/licenses/by-nc-sa/4.0/"/>
        <cc:attributionName>Caius Nocturne</cc:attributionName>
        <cc:attributionURL>http://mutant.tech/</cc:attributionURL>
    </cc:work>

</rdf:RDF>
</metadata>
<rect id="hot_drink" width="32" height="32" fill="none"/><clipPath id="_clip1"><rect width="32" height="32"/></clipPath><g clip-path="url(#_clip1)"><g id="outline"><rect x="16" y="10" width="12.286" height="8"/><path d="m2 11v6c0 2.652 1.054 5.196 2.929 7.071s4.419 2.929 7.071 2.929h1c2.652 0 5.196-1.054 7.071-2.929s2.929-4.419 2.929-7.071v-6h-21z" fill="none" stroke="#000" stroke-width="4px"/><path d="m22 11h3.451c1.657 0 3 1.343 3 3v0.101c0 1.16-0.668 2.215-1.717 2.711-2.47 1.17-6.734 3.188-6.734 3.188" fill="none" stroke="#000" stroke-width="6.5px"/><path d="m12.762 4.501 0.26 3e-3 0.259 6e-3 0.257 7e-3 0.256 0.01 0.254 0.012 0.253 0.014 0.25 0.016 0.249 0.018 0.248 0.02 0.245 0.022 0.243 0.025 0.242 0.026 0.24 0.028 0.237 0.03 0.236 0.032 0.233 0.034 0.232 0.036 0.229 0.038 0.227 0.04 0.226 0.042 0.223 0.044 0.22 0.046 0.219 0.048 0.216 0.05 0.214 0.052 0.212 0.054 0.21 0.057 0.208 0.058 0.205 0.061 0.203 0.063 0.202 0.066 0.199 0.068 0.197 0.07 0.195 0.074 0.194 0.076 0.191 0.079 0.19 0.083 0.188 0.086 0.187 0.089 0.185 0.094 0.184 0.098 0.173 0.098 0.099 0.058 0.091 0.055 0.09 0.056 0.09 0.058 0.09 0.059 0.09 0.061 0.089 0.063 0.089 0.064 0.089 0.067 0.088 0.068 0.088 0.071 0.088 0.073 0.088 0.075 0.087 0.078 0.087 0.081 0.086 0.083 0.086 0.086 0.085 0.089 0.085 0.093 0.084 0.096 0.083 0.1 0.082 0.103 0.08 0.107 0.079 0.111 0.078 0.115 0.075 0.119 0.074 0.124 0.071 0.128 0.068 0.132 0.066 0.137 0.062 0.141 0.058 0.145 0.054 0.149 0.05 0.153 0.045 0.157 0.039 0.161 0.035 0.163 0.028 0.166 0.022 0.168 0.017 0.17 9e-3 0.171 4e-3 0.172-4e-3 0.172-9e-3 0.171-0.017 0.17-0.022 0.168-0.028 0.166-0.035 0.163-0.039 0.161-0.045 0.157-0.05 0.153-0.054 0.149-0.058 0.145-0.062 0.141-0.066 0.137-0.068 0.132-0.071 0.128-0.074 0.124-0.075 0.119-0.078 0.115-0.079 0.111-0.08 0.107-0.082 0.103-0.083 0.1-0.084 0.096-0.085 0.092-0.085 0.09-0.086 0.086-0.086 0.084-0.087 0.08-0.087 0.078-0.088 0.075-0.088 0.073-0.088 0.071-0.089 0.068-0.088 0.067-0.089 0.064-0.09 0.063-0.089 0.061-0.09 0.059-0.09 0.058-0.09 0.056-0.091 0.055-0.099 0.058-0.173 0.098-0.184 0.098-0.185 0.094-0.187 0.089-0.188 0.086-0.19 0.083-0.191 0.079-0.194 0.076-0.195 0.074-0.197 0.07-0.199 0.068-0.202 0.066-0.203 0.063-0.205 0.061-0.208 0.058-0.21 0.057-0.212 0.054-0.214 0.052-0.216 0.05-0.219 0.048-0.22 0.046-0.223 0.044-0.226 0.042-0.227 0.04-0.229 0.038-0.232 0.036-0.233 0.034-0.236 0.032-0.237 0.03-0.24 0.028-0.242 0.026-0.243 0.025-0.245 0.022-0.248 0.02-0.249 0.018-0.25 0.016-0.253 0.014-0.254 0.012-0.256 0.01-0.257 7e-3 -0.259 6e-3 -0.26 3e-3 -0.262 1e-3 -0.262-1e-3 -0.26-3e-3 -0.259-6e-3 -0.257-7e-3 -0.256-0.01-0.254-0.012-0.253-0.014-0.25-0.016-0.249-0.018-0.248-0.02-0.245-0.022-0.243-0.025-0.242-0.026-0.24-0.028-0.237-0.03-0.236-0.032-0.233-0.034-0.232-0.036-0.229-0.038-0.227-0.04-0.226-0.042-0.223-0.044-0.22-0.046-0.219-0.048-0.216-0.05-0.214-0.052-0.212-0.054-0.21-0.057-0.208-0.058-0.205-0.061-0.203-0.063-0.202-0.066-0.199-0.068-0.197-0.07-0.195-0.074-0.194-0.076-0.191-0.079-0.19-0.083-0.188-0.086-0.187-0.089-0.185-0.094-0.184-0.098-0.173-0.098-0.099-0.058-0.091-0.055-0.09-0.056-0.09-0.058-0.09-0.059-0.089-0.061-0.09-0.063-0.089-0.064-0.088-0.066-0.089-0.069-0.088-0.071-0.088-0.073-0.088-0.075-0.087-0.078-0.087-0.08-0.086-0.084-0.086-0.086-0.085-0.09-0.085-0.092-0.084-0.096-0.083-0.1-0.082-0.103-0.08-0.107-0.079-0.111-0.078-0.115-0.075-0.119-0.074-0.124-0.071-0.128-0.068-0.132-0.066-0.137-0.062-0.141-0.058-0.145-0.054-0.149-0.05-0.153-0.045-0.157-0.039-0.161-0.035-0.163-0.028-0.166-0.022-0.168-0.017-0.17-9e-3 -0.171-4e-3 -0.172 4e-3 -0.172 9e-3 -0.171 0.017-0.17 0.022-0.168 0.028-0.166 0.035-0.163 0.039-0.161 0.045-0.157 0.05-0.153 0.054-0.149 0.058-0.145 0.062-0.141 0.066-0.137 0.068-0.132 0.071-0.128 0.074-0.124 0.075-0.119 0.078-0.115 0.079-0.111 0.08-0.107 0.082-0.103 0.083-0.1 0.084-0.096 0.085-0.093 0.085-0.089 0.086-0.086 0.086-0.083 0.087-0.081 0.087-0.078 0.088-0.075 0.088-0.073 0.088-0.071 0.088-0.068 0.089-0.067 0.089-0.064 0.089-0.063 0.09-0.061 0.09-0.059 0.09-0.058 0.09-0.056 0.091-0.055 0.099-0.058 0.173-0.098 0.184-0.098 0.185-0.094 0.187-0.089 0.188-0.086 0.19-0.083 0.191-0.079 0.194-0.076 0.195-0.074 0.197-0.07 0.199-0.068 0.202-0.066 0.203-0.063 0.205-0.061 0.208-0.058 0.21-0.057 0.212-0.054 0.214-0.052 0.216-0.05 0.219-0.048 0.22-0.046 0.223-0.044 0.226-0.042 0.227-0.04 0.229-0.038 0.232-0.036 0.233-0.034 0.236-0.032 0.237-0.03 0.24-0.028 0.242-0.026 0.243-0.025 0.245-0.022 0.248-0.02 0.249-0.018 0.25-0.016 0.253-0.014 0.254-0.012 0.256-0.01 0.257-7e-3 0.259-6e-3 0.26-3e-3 0.262-1e-3 0.262 1e-3zm-0.494 3.5-0.231 3e-3 -0.229 5e-3 -0.228 7e-3 -0.226 8e-3 -0.224 0.011-0.222 0.012-0.221 0.014-0.218 0.016-0.217 0.018-0.215 0.019-0.212 0.021-0.21 0.023-0.208 0.024-0.206 0.026-0.203 0.028-0.2 0.029-0.198 0.031-0.196 0.032-0.192 0.034-0.19 0.036-0.187 0.037-0.184 0.038-0.182 0.04-0.178 0.041-0.174 0.042-0.172 0.044-0.168 0.045-0.165 0.047-0.162 0.048-0.158 0.049-0.155 0.05-0.151 0.052-0.147 0.052-0.143 0.054-0.14 0.055-0.135 0.056-0.132 0.058-0.128 0.058-0.123 0.059-0.119 0.061-0.115 0.061-0.111 0.062-0.054 0.032-0.052 0.032-0.102 0.064-0.049 0.032-0.048 0.033-0.047 0.033-0.09 0.066-0.043 0.034-0.042 0.033-0.041 0.034-0.04 0.035-0.039 0.034-0.037 0.034-0.036 0.035-0.035 0.035-0.033 0.035-0.032 0.036-0.031 0.035-0.03 0.036-0.056 0.072-0.05 0.072-0.023 0.037-0.022 0.036-0.02 0.037-0.019 0.037-0.018 0.037-0.017 0.038-0.015 0.037-0.013 0.038-0.012 0.037-0.011 0.038-0.01 0.038-8e-3 0.038-6e-3 0.039-5e-3 0.038-4e-3 0.039-2e-3 0.038-1e-3 0.039 1e-3 0.039 2e-3 0.038 4e-3 0.039 5e-3 0.038 6e-3 0.039 8e-3 0.038 0.01 0.038 0.011 0.038 0.012 0.037 0.013 0.038 0.015 0.037 0.017 0.038 0.018 0.037 0.019 0.037 0.02 0.037 0.022 0.036 0.023 0.037 0.05 0.072 0.056 0.072 0.03 0.036 0.031 0.035 0.032 0.036 0.033 0.035 0.035 0.035 0.036 0.035 0.037 0.034 0.039 0.034 0.04 0.035 0.041 0.034 0.042 0.033 0.043 0.034 0.09 0.066 0.047 0.033 0.048 0.033 0.049 0.032 0.102 0.064 0.052 0.032 0.054 0.032 0.111 0.062 0.115 0.061 0.119 0.061 0.123 0.059 0.128 0.058 0.132 0.058 0.135 0.056 0.14 0.055 0.143 0.054 0.147 0.052 0.151 0.052 0.155 0.05 0.158 0.049 0.162 0.048 0.165 0.047 0.168 0.045 0.172 0.044 0.174 0.042 0.178 0.041 0.182 0.04 0.184 0.038 0.187 0.037 0.19 0.036 0.192 0.034 0.196 0.032 0.198 0.031 0.2 0.029 0.203 0.028 0.206 0.026 0.208 0.024 0.21 0.023 0.212 0.021 0.215 0.019 0.217 0.018 0.218 0.016 0.221 0.014 0.222 0.012 0.224 0.011 0.226 8e-3 0.228 7e-3 0.229 5e-3 0.231 3e-3 0.232 1e-3 0.232-1e-3 0.231-3e-3 0.229-5e-3 0.228-7e-3 0.226-8e-3 0.224-0.011 0.222-0.012 0.221-0.014 0.218-0.016 0.217-0.018 0.215-0.019 0.212-0.021 0.21-0.023 0.208-0.024 0.206-0.026 0.203-0.028 0.2-0.029 0.198-0.031 0.196-0.032 0.192-0.034 0.19-0.036 0.187-0.037 0.184-0.038 0.182-0.04 0.178-0.041 0.174-0.042 0.172-0.044 0.168-0.045 0.165-0.047 0.162-0.048 0.158-0.049 0.155-0.05 0.151-0.052 0.147-0.052 0.143-0.054 0.14-0.055 0.135-0.056 0.132-0.058 0.128-0.058 0.123-0.059 0.119-0.061 0.115-0.061 0.111-0.062 0.054-0.032 0.052-0.032 0.102-0.064 0.049-0.032 0.048-0.033 0.047-0.033 0.09-0.066 0.043-0.034 0.042-0.033 0.041-0.034 0.04-0.035 0.039-0.034 0.037-0.034 0.036-0.035 0.035-0.035 0.033-0.035 0.032-0.036 0.031-0.035 0.03-0.036 0.056-0.072 0.05-0.072 0.023-0.037 0.022-0.036 0.02-0.037 0.019-0.037 0.018-0.037 0.017-0.038 0.015-0.037 0.013-0.038 0.012-0.037 0.011-0.038 0.01-0.038 8e-3 -0.038 6e-3 -0.039 5e-3 -0.038 4e-3 -0.039 2e-3 -0.038 1e-3 -0.039-1e-3 -0.039-2e-3 -0.038-4e-3 -0.039-5e-3 -0.038-6e-3 -0.039-8e-3 -0.038-0.01-0.038-0.011-0.038-0.012-0.037-0.013-0.038-0.015-0.037-0.017-0.038-0.018-0.037-0.019-0.037-0.02-0.037-0.022-0.036-0.023-0.037-0.05-0.072-0.056-0.072-0.03-0.036-0.031-0.035-0.032-0.036-0.033-0.035-0.035-0.035-0.036-0.035-0.037-0.034-0.039-0.034-0.04-0.035-0.041-0.034-0.042-0.033-0.043-0.034-0.09-0.066-0.047-0.033-0.048-0.033-0.049-0.032-0.102-0.064-0.052-0.032-0.054-0.032-0.111-0.062-0.115-0.061-0.119-0.061-0.123-0.059-0.128-0.058-0.132-0.058-0.135-0.056-0.14-0.055-0.143-0.054-0.147-0.052-0.151-0.052-0.155-0.05-0.158-0.049-0.162-0.048-0.165-0.047-0.168-0.045-0.172-0.044-0.174-0.042-0.178-0.041-0.182-0.04-0.184-0.038-0.187-0.037-0.19-0.036-0.192-0.034-0.196-0.032-0.198-0.031-0.2-0.029-0.203-0.028-0.206-0.026-0.208-0.024-0.21-0.023-0.212-0.021-0.215-0.019-0.217-0.018-0.218-0.016-0.221-0.014-0.222-0.012-0.224-0.011-0.226-8e-3 -0.228-7e-3 -0.229-5e-3 -0.231-3e-3 -0.232-1e-3 -0.232 1e-3z"/></g><g id="emoji"><path d="m22 11h3.451c1.657 0 3 1.343 3 3v0.101c0 1.16-0.668 2.215-1.717 2.711-2.47 1.17-6.734 3.188-6.734 3.188" fill="none" stroke="#e6e6e6" stroke-width="2.5px"/><path d="m23 11v6c0 2.652-1.054 5.196-2.929 7.071-1.618 1.618-3.732 2.624-5.985 2.87-3.434-0.448-7.145-3.506-7.145-7.062l1.059-8.879h15zm-17.202 0.177-0.47 6.212c0 2.652 0.336 4.081 2.212 5.956 1.757 1.757 3.49 3.519 5.96 3.642-0.166 9e-3 -0.333 0.013-0.5 0.013h-1c-2.652 0-5.196-1.054-7.071-2.929s-2.929-4.419-2.929-7.071v-6l3.798 0.177z" fill="#e6e6e6"/><path d="m8 11v9c0 3.556 2.652 6.493 6.086 6.941-0.194 0.021-0.39 0.037-0.586 0.046-2.47-0.123-4.814-1.159-6.571-2.916-1.875-1.875-2.929-4.419-2.929-7.071v-6h4z" fill="#fff"/><ellipse cx="12.5" cy="11" rx="9" ry="3" fill="#929292"/><clipPath id="_clip2"><ellipse cx="12.5" cy="11" rx="9" ry="3"/></clipPath><g clip-path="url(#_clip2)"><ellipse cx="12.5" cy="13.4" rx="9" ry="3" fill="#70533d"/></g><path d="m12.745 6.501 0.243 3e-3 0.242 5e-3 0.24 7e-3 0.239 9e-3 0.237 0.012 0.236 0.013 0.233 0.014 0.232 0.017 0.229 0.019 0.228 0.021 0.226 0.022 0.224 0.024 0.221 0.026 0.219 0.028 0.217 0.03 0.215 0.031 0.212 0.033 0.21 0.035 0.208 0.036 0.205 0.039 0.202 0.039 0.2 0.042 0.197 0.043 0.195 0.045 0.191 0.047 0.189 0.048 0.186 0.05 0.184 0.052 0.18 0.053 0.178 0.055 0.174 0.057 0.172 0.059 0.168 0.06 0.166 0.062 0.163 0.064 0.159 0.066 0.157 0.068 0.153 0.071 0.151 0.072 0.147 0.075 0.145 0.077 0.137 0.077 0.074 0.043 0.136 0.084 0.068 0.043 0.066 0.044 0.066 0.045 0.065 0.046 0.064 0.046 0.064 0.048 0.062 0.048 0.062 0.05 0.122 0.102 0.059 0.053 0.059 0.055 0.057 0.055 0.057 0.057 0.11 0.118 0.054 0.062 0.052 0.063 0.052 0.065 0.05 0.066 0.048 0.068 0.048 0.07 0.045 0.072 0.044 0.074 0.042 0.076 0.041 0.078 0.038 0.08 0.036 0.081 0.033 0.084 0.031 0.086 0.028 0.087 0.026 0.089 0.022 0.09 0.02 0.092 0.015 0.093 0.013 0.094 9e-3 0.095 5e-3 0.095 2e-3 0.096-2e-3 0.096-5e-3 0.095-9e-3 0.095-0.013 0.094-0.015 0.093-0.02 0.092-0.022 0.09-0.026 0.089-0.028 0.087-0.031 0.086-0.033 0.084-0.036 0.081-0.038 0.08-0.041 0.078-0.042 0.076-0.044 0.074-0.045 0.072-0.048 0.07-0.048 0.068-0.05 0.066-0.052 0.065-0.052 0.063-0.054 0.062-0.054 0.059-0.056 0.059-0.057 0.057-0.116 0.11-0.059 0.053-0.122 0.102-0.062 0.05-0.062 0.048-0.064 0.048-0.064 0.046-0.065 0.046-0.066 0.045-0.066 0.044-0.068 0.043-0.136 0.084-0.074 0.043-0.137 0.077-0.145 0.077-0.147 0.075-0.151 0.072-0.153 0.071-0.157 0.068-0.159 0.066-0.163 0.064-0.166 0.062-0.168 0.06-0.172 0.059-0.174 0.057-0.178 0.055-0.18 0.053-0.184 0.052-0.186 0.05-0.189 0.048-0.191 0.047-0.195 0.045-0.197 0.043-0.2 0.042-0.202 0.039-0.205 0.039-0.208 0.036-0.21 0.035-0.212 0.033-0.215 0.031-0.217 0.03-0.219 0.028-0.221 0.026-0.224 0.024-0.226 0.022-0.228 0.021-0.229 0.019-0.232 0.017-0.233 0.014-0.236 0.013-0.237 0.012-0.239 9e-3 -0.24 7e-3 -0.242 5e-3 -0.243 3e-3 -0.245 1e-3 -0.245-1e-3 -0.243-3e-3 -0.242-5e-3 -0.24-7e-3 -0.239-9e-3 -0.237-0.012-0.236-0.013-0.233-0.014-0.232-0.017-0.229-0.019-0.228-0.021-0.226-0.022-0.224-0.024-0.221-0.026-0.219-0.028-0.217-0.03-0.215-0.031-0.212-0.033-0.21-0.035-0.208-0.036-0.205-0.039-0.202-0.039-0.2-0.042-0.197-0.043-0.195-0.045-0.191-0.047-0.189-0.048-0.186-0.05-0.184-0.052-0.18-0.053-0.178-0.055-0.174-0.057-0.172-0.059-0.168-0.06-0.166-0.062-0.163-0.064-0.159-0.066-0.157-0.068-0.153-0.071-0.151-0.072-0.147-0.075-0.145-0.077-0.137-0.077-0.074-0.043-0.136-0.084-0.068-0.043-0.066-0.044-0.066-0.045-0.065-0.046-0.064-0.046-0.064-0.048-0.062-0.048-0.062-0.05-0.122-0.102-0.059-0.053-0.116-0.11-0.057-0.057-0.056-0.059-0.054-0.059-0.054-0.062-0.052-0.063-0.052-0.065-0.05-0.066-0.048-0.068-0.048-0.07-0.045-0.072-0.044-0.074-0.042-0.076-0.041-0.078-0.038-0.08-0.036-0.082-0.033-0.083-0.031-0.086-0.028-0.087-0.026-0.089-0.022-0.09-0.02-0.092-0.015-0.093-0.013-0.094-9e-3 -0.095-5e-3 -0.095-2e-3 -0.096 2e-3 -0.096 5e-3 -0.095 9e-3 -0.095 0.013-0.094 0.015-0.093 0.02-0.092 0.022-0.09 0.026-0.089 0.028-0.087 0.031-0.086 0.033-0.084 0.036-0.081 0.038-0.08 0.041-0.078 0.042-0.076 0.044-0.074 0.045-0.072 0.048-0.07 0.048-0.068 0.05-0.066 0.052-0.065 0.052-0.063 0.054-0.062 0.055-0.06 0.055-0.058 0.057-0.057 0.057-0.055 0.059-0.055 0.059-0.053 0.122-0.102 0.062-0.05 0.062-0.048 0.064-0.048 0.064-0.046 0.065-0.046 0.066-0.045 0.066-0.044 0.068-0.043 0.136-0.084 0.074-0.043 0.137-0.077 0.145-0.077 0.147-0.075 0.151-0.072 0.153-0.071 0.157-0.068 0.159-0.066 0.163-0.064 0.166-0.062 0.168-0.06 0.172-0.059 0.174-0.057 0.178-0.055 0.18-0.053 0.184-0.052 0.186-0.05 0.189-0.048 0.191-0.047 0.195-0.045 0.197-0.043 0.2-0.042 0.202-0.039 0.205-0.039 0.208-0.036 0.21-0.035 0.212-0.033 0.215-0.031 0.217-0.03 0.219-0.028 0.221-0.026 0.224-0.024 0.226-0.022 0.228-0.021 0.229-0.019 0.232-0.017 0.233-0.014 0.236-0.013 0.237-0.012 0.239-9e-3 0.24-7e-3 0.242-5e-3 0.243-3e-3 0.245-1e-3 0.245 1e-3zm-0.477 1.5-0.231 3e-3 -0.229 5e-3 -0.228 7e-3 -0.226 8e-3 -0.224 0.011-0.222 0.012-0.221 0.014-0.218 0.016-0.217 0.018-0.215 0.019-0.212 0.021-0.21 0.023-0.208 0.024-0.206 0.026-0.203 0.028-0.2 0.029-0.198 0.031-0.196 0.032-0.192 0.034-0.19 0.036-0.187 0.037-0.184 0.038-0.182 0.04-0.178 0.041-0.174 0.042-0.172 0.044-0.168 0.045-0.165 0.047-0.162 0.048-0.158 0.049-0.155 0.05-0.151 0.052-0.147 0.052-0.143 0.054-0.14 0.055-0.135 0.056-0.132 0.058-0.128 0.058-0.123 0.059-0.119 0.061-0.115 0.061-0.111 0.062-0.054 0.032-0.052 0.032-0.102 0.064-0.049 0.032-0.048 0.033-0.047 0.033-0.09 0.066-0.043 0.034-0.042 0.033-0.041 0.034-0.04 0.035-0.039 0.034-0.037 0.034-0.036 0.035-0.035 0.035-0.033 0.035-0.032 0.036-0.031 0.035-0.03 0.036-0.056 0.072-0.05 0.072-0.023 0.037-0.022 0.036-0.02 0.037-0.019 0.037-0.018 0.037-0.017 0.038-0.015 0.037-0.013 0.038-0.012 0.037-0.011 0.038-0.01 0.038-8e-3 0.038-6e-3 0.039-5e-3 0.038-4e-3 0.039-2e-3 0.038-1e-3 0.039 1e-3 0.039 2e-3 0.038 4e-3 0.039 5e-3 0.038 6e-3 0.039 8e-3 0.038 0.01 0.038 0.011 0.038 0.012 0.037 0.013 0.038 0.015 0.037 0.017 0.038 0.018 0.037 0.019 0.037 0.02 0.037 0.022 0.036 0.023 0.037 0.05 0.072 0.056 0.072 0.03 0.036 0.031 0.035 0.032 0.036 0.033 0.035 0.035 0.035 0.036 0.035 0.037 0.034 0.039 0.034 0.04 0.035 0.041 0.034 0.042 0.033 0.043 0.034 0.09 0.066 0.047 0.033 0.048 0.033 0.049 0.032 0.102 0.064 0.052 0.032 0.054 0.032 0.111 0.062 0.115 0.061 0.119 0.061 0.123 0.059 0.128 0.058 0.132 0.058 0.135 0.056 0.14 0.055 0.143 0.054 0.147 0.052 0.151 0.052 0.155 0.05 0.158 0.049 0.162 0.048 0.165 0.047 0.168 0.045 0.172 0.044 0.174 0.042 0.178 0.041 0.182 0.04 0.184 0.038 0.187 0.037 0.19 0.036 0.192 0.034 0.196 0.032 0.198 0.031 0.2 0.029 0.203 0.028 0.206 0.026 0.208 0.024 0.21 0.023 0.212 0.021 0.215 0.019 0.217 0.018 0.218 0.016 0.221 0.014 0.222 0.012 0.224 0.011 0.226 8e-3 0.228 7e-3 0.229 5e-3 0.231 3e-3 0.232 1e-3 0.232-1e-3 0.231-3e-3 0.229-5e-3 0.228-7e-3 0.226-8e-3 0.224-0.011 0.222-0.012 0.221-0.014 0.218-0.016 0.217-0.018 0.215-0.019 0.212-0.021 0.21-0.023 0.208-0.024 0.206-0.026 0.203-0.028 0.2-0.029 0.198-0.031 0.196-0.032 0.192-0.034 0.19-0.036 0.187-0.037 0.184-0.038 0.182-0.04 0.178-0.041 0.174-0.042 0.172-0.044 0.168-0.045 0.165-0.047 0.162-0.048 0.158-0.049 0.155-0.05 0.151-0.052 0.147-0.052 0.143-0.054 0.14-0.055 0.135-0.056 0.132-0.058 0.128-0.058 0.123-0.059 0.119-0.061 0.115-0.061 0.111-0.062 0.054-0.032 0.052-0.032 0.102-0.064 0.049-0.032 0.048-0.033 0.047-0.033 0.09-0.066 0.043-0.034 0.042-0.033 0.041-0.034 0.04-0.035 0.039-0.034 0.037-0.034 0.036-0.035 0.035-0.035 0.033-0.035 0.032-0.036 0.031-0.035 0.03-0.036 0.056-0.072 0.05-0.072 0.023-0.037 0.022-0.036 0.02-0.037 0.019-0.037 0.018-0.037 0.017-0.038 0.015-0.037 0.013-0.038 0.012-0.037 0.011-0.038 0.01-0.038 8e-3 -0.038 6e-3 -0.039 5e-3 -0.038 4e-3 -0.039 2e-3 -0.038 1e-3 -0.039-1e-3 -0.039-2e-3 -0.038-4e-3 -0.039-5e-3 -0.038-6e-3 -0.039-8e-3 -0.038-0.01-0.038-0.011-0.038-0.012-0.037-0.013-0.038-0.015-0.037-0.017-0.038-0.018-0.037-0.019-0.037-0.02-0.037-0.022-0.036-0.023-0.037-0.05-0.072-0.056-0.072-0.03-0.036-0.031-0.035-0.032-0.036-0.033-0.035-0.035-0.035-0.036-0.035-0.037-0.034-0.039-0.034-0.04-0.035-0.041-0.034-0.042-0.033-0.043-0.034-0.09-0.066-0.047-0.033-0.048-0.033-0.049-0.032-0.102-0.064-0.052-0.032-0.054-0.032-0.111-0.062-0.115-0.061-0.119-0.061-0.123-0.059-0.128-0.058-0.132-0.058-0.135-0.056-0.14-0.055-0.143-0.054-0.147-0.052-0.151-0.052-0.155-0.05-0.158-0.049-0.162-0.048-0.165-0.047-0.168-0.045-0.172-0.044-0.174-0.042-0.178-0.041-0.182-0.04-0.184-0.038-0.187-0.037-0.19-0.036-0.192-0.034-0.196-0.032-0.198-0.031-0.2-0.029-0.203-0.028-0.206-0.026-0.208-0.024-0.21-0.023-0.212-0.021-0.215-0.019-0.217-0.018-0.218-0.016-0.221-0.014-0.222-0.012-0.224-0.011-0.226-8e-3 -0.228-7e-3 -0.229-5e-3 -0.231-3e-3 -0.232-1e-3 -0.232 1e-3z" fill="#fff"/></g></g></svg>
