<?xml version="1.0" encoding="UTF-8"?>
<!DOCTYPE svg  PUBLIC '-//W3C//DTD SVG 1.1//EN'  'http://www.w3.org/Graphics/SVG/1.1/DTD/svg11.dtd'>
<svg clip-rule="evenodd" fill-rule="evenodd" stroke-linecap="round" stroke-linejoin="round" stroke-miterlimit="1.5" version="1.1" viewBox="0 0 32 32" xml:space="preserve" xmlns="http://www.w3.org/2000/svg">
<metadata>
<rdf:RDF xmlns:cc="http://web.resource.org/cc/" xmlns:dc="http://purl.org/dc/elements/1.1/" xmlns:rdf="http://www.w3.org/1999/02/22-rdf-syntax-ns#">

     <rdf:Description rdf:about="">
       <dc:title>Mutant Standard emoji 2023.12</dc:title>
     </rdf:Description>

    <cc:work rdf:about="">
        <cc:license rdf:resource="http://creativecommons.org/licenses/by-nc-sa/4.0/"/>
        <cc:attributionName>Caius Nocturne</cc:attributionName>
        <cc:attributionURL>http://mutant.tech/</cc:attributionURL>
    </cc:work>

</rdf:RDF>
</metadata>
<rect id="matcha_tea" width="32" height="32" fill="none"/><clipPath id="_clip1"><rect width="32" height="32"/></clipPath><g clip-path="url(#_clip1)"><g id="outline"><path d="m2 10c0-2.76 6.273-5 14-5s14 2.24 14 5c0 2.067-0.347 9.855-6 13.751v2.249h-0.01c7e-3 0.047 0.01 0.095 0.01 0.143 0 1.577-3.585 2.857-8 2.857s-8-1.28-8-2.857c0-0.048 3e-3 -0.096 0.01-0.143h-0.01v-2.249c-5.653-3.896-6-11.684-6-13.751z" fill="none" stroke="#000" stroke-width="4px"/></g><g id="emoji"><path d="m8 26.143v-4h16v4c0 1.577-3.585 2.857-8 2.857s-8-1.28-8-2.857z" fill="#4b4a56"/><path d="m11.272 25.325c-8.8-2.73-9.272-12.915-9.272-15.325h28c0 2.784-0.63 15.943-14 16-0.913-4e-3 -1.766-0.069-2.564-0.187-1.531-0.426-3.406-1.535-4.757-4.813-1.12-2.718-1.486-7.645-1.486-7.645l-2.78-1.076c2.225 0.991 0.719 4.058 1.931 6.843 1.542 3.544 4.491 5.967 4.928 6.203z" fill="#6e6c7e"/><path d="m11.272 25.325c-0.803-0.433-1.717-1.122-2.649-2.217-1.462-1.719-2.721-3.483-3.615-6.524-0.713-2.423-0.595-4.305-0.595-4.305l3.328 1.1s0.132 2.424 0.59 4.678c1.079 5.31 3.895 7.183 5.105 7.756-0.772-0.115-1.492-0.28-2.164-0.488z" fill="#9087a0"/><ellipse cx="16" cy="10" rx="13" ry="3.905" fill="#4b4a56"/><clipPath id="_clip2"><ellipse cx="16" cy="10" rx="13" ry="3.905"/></clipPath><g clip-path="url(#_clip2)"><ellipse cx="16" cy="13.214" rx="11.8" ry="4.214" fill="#abe572"/></g><path d="m16.181 5 0.36 4e-3 0.358 6e-3 0.178 5e-3 0.177 5e-3 0.177 6e-3 0.176 7e-3 0.175 7e-3 0.175 9e-3 0.174 9e-3 0.346 0.02 0.172 0.012 0.171 0.012 0.34 0.026 0.169 0.014 0.168 0.016 0.167 0.015 0.167 0.017 0.165 0.017 0.165 0.018 0.164 0.019 0.163 0.019 0.162 0.02 0.162 0.021 0.16 0.021 0.159 0.022 0.159 0.023 0.157 0.023 0.157 0.024 0.31 0.05 0.153 0.026 0.153 0.027 0.151 0.027 0.151 0.028 0.149 0.029 0.148 0.029 0.147 0.03 0.146 0.03 0.145 0.031 0.144 0.032 0.143 0.032 0.141 0.033 0.14 0.033 0.139 0.034 0.138 0.035 0.137 0.035 0.135 0.036 0.134 0.036 0.133 0.037 0.132 0.037 0.13 0.038 0.129 0.039 0.128 0.039 0.126 0.039 0.125 0.041 0.124 0.04 0.122 0.041 0.121 0.042 0.12 0.042 0.118 0.043 0.116 0.043 0.115 0.044 0.114 0.044 0.113 0.044 0.11 0.046 0.11 0.045 0.107 0.046 0.107 0.047 0.208 0.094 0.101 0.048 0.1 0.049 0.099 0.048 0.096 0.05 0.096 0.049 0.093 0.05 0.092 0.051 0.09 0.051 0.089 0.051 0.087 0.052 0.085 0.052 0.084 0.053 0.081 0.053 0.08 0.053 0.078 0.054 0.077 0.054 0.075 0.054 0.072 0.055 0.071 0.055 0.07 0.056 0.067 0.056 0.066 0.056 0.063 0.056 0.062 0.057 0.06 0.058 0.058 0.057 0.056 0.058 0.054 0.058 0.052 0.059 0.05 0.059 0.049 0.059 0.046 0.059 0.044 0.06 0.042 0.06 0.04 0.06 0.038 0.061 0.036 0.061 0.034 0.061 0.032 0.061 0.03 0.062 0.028 0.062 0.025 0.062 0.023 0.063 0.022 0.062 0.019 0.063 0.017 0.063 0.014 0.064 0.013 0.063 0.01 0.064 8e-3 0.064 5e-3 0.064 4e-3 0.064 1e-3 0.065-1e-3 0.065-4e-3 0.064-5e-3 0.064-8e-3 0.064-0.01 0.064-0.013 0.063-0.014 0.064-0.017 0.063-0.019 0.063-0.022 0.062-0.023 0.063-0.025 0.062-0.028 0.062-0.03 0.062-0.032 0.061-0.034 0.061-0.036 0.061-0.038 0.061-0.04 0.06-0.042 0.06-0.044 0.06-0.046 0.059-0.049 0.059-0.05 0.059-0.052 0.059-0.054 0.058-0.056 0.058-0.058 0.057-0.06 0.058-0.062 0.057-0.063 0.056-0.066 0.056-0.067 0.056-0.07 0.056-0.071 0.055-0.072 0.055-0.075 0.054-0.077 0.054-0.078 0.054-0.08 0.053-0.081 0.053-0.084 0.053-0.085 0.052-0.087 0.052-0.089 0.051-0.09 0.051-0.092 0.051-0.093 0.05-0.096 0.049-0.096 0.05-0.099 0.048-0.1 0.049-0.101 0.048-0.208 0.094-0.107 0.047-0.107 0.046-0.11 0.045-0.11 0.046-0.113 0.044-0.114 0.044-0.115 0.044-0.116 0.043-0.118 0.043-0.12 0.042-0.121 0.042-0.122 0.041-0.124 0.04-0.125 0.041-0.126 0.039-0.128 0.039-0.129 0.039-0.13 0.038-0.132 0.037-0.133 0.037-0.134 0.036-0.135 0.036-0.137 0.035-0.138 0.035-0.139 0.034-0.14 0.033-0.141 0.033-0.143 0.032-0.144 0.032-0.145 0.031-0.146 0.03-0.147 0.03-0.148 0.029-0.149 0.029-0.151 0.028-0.151 0.027-0.153 0.027-0.153 0.026-0.31 0.05-0.157 0.024-0.157 0.023-0.159 0.023-0.159 0.022-0.16 0.021-0.162 0.021-0.162 0.02-0.163 0.019-0.164 0.019-0.165 0.018-0.165 0.017-0.167 0.017-0.167 0.015-0.168 0.016-0.169 0.014-0.34 0.026-0.171 0.012-0.172 0.012-0.346 0.02-0.174 9e-3 -0.175 9e-3 -0.175 7e-3 -0.176 7e-3 -0.177 6e-3 -0.177 5e-3 -0.178 5e-3 -0.358 6e-3 -0.36 4e-3h-0.181-0.181l-0.36-4e-3 -0.358-6e-3 -0.178-5e-3 -0.177-5e-3 -0.177-6e-3 -0.176-7e-3 -0.175-7e-3 -0.175-9e-3 -0.174-9e-3 -0.346-0.02-0.172-0.012-0.171-0.012-0.34-0.026-0.169-0.014-0.168-0.016-0.167-0.015-0.167-0.017-0.165-0.017-0.165-0.018-0.164-0.019-0.163-0.019-0.162-0.02-0.162-0.021-0.16-0.021-0.159-0.022-0.159-0.023-0.157-0.023-0.157-0.024-0.31-0.05-0.153-0.026-0.153-0.027-0.151-0.027-0.151-0.028-0.149-0.029-0.148-0.029-0.147-0.03-0.146-0.03-0.145-0.031-0.144-0.032-0.143-0.032-0.141-0.033-0.14-0.033-0.139-0.034-0.138-0.035-0.137-0.035-0.135-0.036-0.134-0.036-0.133-0.037-0.132-0.037-0.13-0.038-0.129-0.039-0.128-0.039-0.126-0.039-0.125-0.041-0.124-0.04-0.122-0.041-0.121-0.042-0.12-0.042-0.118-0.043-0.116-0.043-0.115-0.044-0.114-0.044-0.113-0.044-0.11-0.046-0.11-0.045-0.107-0.046-0.107-0.047-0.208-0.094-0.101-0.048-0.1-0.049-0.099-0.048-0.096-0.05-0.096-0.049-0.093-0.05-0.092-0.051-0.09-0.051-0.089-0.051-0.087-0.052-0.085-0.052-0.084-0.053-0.081-0.053-0.08-0.053-0.078-0.054-0.077-0.054-0.075-0.054-0.072-0.055-0.071-0.055-0.07-0.056-0.067-0.056-0.066-0.056-0.063-0.056-0.062-0.057-0.06-0.058-0.058-0.057-0.056-0.058-0.054-0.058-0.052-0.059-0.05-0.059-0.049-0.059-0.046-0.059-0.044-0.06-0.042-0.06-0.04-0.06-0.038-0.061-0.036-0.061-0.034-0.061-0.032-0.061-0.03-0.062-0.028-0.062-0.025-0.062-0.023-0.063-0.022-0.062-0.019-0.063-0.017-0.063-0.014-0.064-0.013-0.063-0.01-0.064-8e-3 -0.064-5e-3 -0.064-4e-3 -0.064-1e-3 -0.065 1e-3 -0.065 4e-3 -0.064 5e-3 -0.064 8e-3 -0.064 0.01-0.064 0.013-0.063 0.014-0.064 0.017-0.063 0.019-0.063 0.022-0.062 0.023-0.063 0.025-0.062 0.028-0.062 0.03-0.062 0.032-0.061 0.034-0.061 0.036-0.061 0.038-0.061 0.04-0.06 0.042-0.06 0.044-0.06 0.046-0.059 0.049-0.059 0.05-0.059 0.052-0.059 0.054-0.058 0.056-0.058 0.058-0.057 0.06-0.058 0.062-0.057 0.063-0.056 0.066-0.056 0.067-0.056 0.07-0.056 0.071-0.055 0.072-0.055 0.075-0.054 0.077-0.054 0.078-0.054 0.08-0.053 0.081-0.053 0.084-0.053 0.085-0.052 0.087-0.052 0.089-0.051 0.09-0.051 0.092-0.051 0.093-0.05 0.096-0.049 0.096-0.05 0.099-0.048 0.1-0.049 0.101-0.048 0.208-0.094 0.107-0.047 0.107-0.046 0.11-0.045 0.11-0.046 0.113-0.044 0.114-0.044 0.115-0.044 0.116-0.043 0.118-0.043 0.12-0.042 0.121-0.042 0.122-0.041 0.124-0.04 0.125-0.041 0.126-0.039 0.128-0.039 0.129-0.039 0.13-0.038 0.132-0.037 0.133-0.037 0.134-0.036 0.135-0.036 0.137-0.035 0.138-0.035 0.139-0.034 0.14-0.033 0.141-0.033 0.143-0.032 0.144-0.032 0.145-0.031 0.146-0.03 0.147-0.03 0.148-0.029 0.149-0.029 0.151-0.028 0.151-0.027 0.153-0.027 0.153-0.026 0.31-0.05 0.157-0.024 0.157-0.023 0.159-0.023 0.159-0.022 0.16-0.021 0.162-0.021 0.162-0.02 0.163-0.019 0.164-0.019 0.165-0.018 0.165-0.017 0.167-0.017 0.167-0.015 0.168-0.016 0.169-0.014 0.34-0.026 0.171-0.012 0.172-0.012 0.346-0.02 0.174-9e-3 0.175-9e-3 0.175-7e-3 0.176-7e-3 0.177-6e-3 0.177-5e-3 0.178-5e-3 0.358-6e-3 0.36-4e-3h0.181 0.181zm-0.355 1.5-0.174 2e-3 -0.172 2e-3 -0.173 2e-3 -0.172 4e-3 -0.171 4e-3 -0.17 5e-3 -0.17 6e-3 -0.169 6e-3 -0.169 8e-3 -0.168 8e-3 -0.167 8e-3 -0.167 0.01-0.165 0.01-0.165 0.011-0.165 0.012-0.163 0.012-0.163 0.013-0.162 0.014-0.161 0.014-0.16 0.015-0.159 0.016-0.159 0.017-0.157 0.017-0.157 0.018-0.156 0.018-0.155 0.019-0.154 0.02-0.153 0.02-0.152 0.021-0.151 0.022-0.15 0.022-0.149 0.023-0.148 0.024-0.147 0.024-0.146 0.025-0.145 0.025-0.286 0.052-0.141 0.027-0.14 0.028-0.139 0.028-0.138 0.029-0.137 0.029-0.27 0.06-0.133 0.031-0.131 0.032-0.131 0.031-0.129 0.033-0.128 0.033-0.126 0.033-0.125 0.034-0.124 0.034-0.122 0.035-0.121 0.035-0.119 0.036-0.118 0.036-0.117 0.036-0.115 0.037-0.114 0.038-0.112 0.037-0.11 0.038-0.109 0.039-0.107 0.039-0.106 0.039-0.104 0.039-0.103 0.04-0.2 0.08-0.097 0.041-0.096 0.041-0.094 0.041-0.092 0.041-0.09 0.042-0.089 0.042-0.087 0.042-0.085 0.042-0.083 0.042-0.081 0.042-0.079 0.043-0.077 0.042-0.076 0.043-0.073 0.042-0.071 0.043-0.07 0.042-0.067 0.043-0.065 0.042-0.064 0.042-0.061 0.042-0.059 0.042-0.057 0.041-0.054 0.042-0.053 0.04-0.05 0.041-0.049 0.04-0.046 0.039-0.044 0.04-0.041 0.038-0.04 0.038-0.037 0.037-0.035 0.036-0.033 0.036-0.031 0.034-0.029 0.034-0.027 0.033-0.024 0.032-0.023 0.03-0.021 0.03-0.019 0.028-0.017 0.027-0.015 0.026-0.014 0.025-0.012 0.023-0.01 0.022-0.01 0.021-7e-3 0.019-7e-3 0.018-6e-3 0.017-5e-3 0.016-4e-3 0.015-3e-3 0.013-2e-3 0.014-4e-3 0.024-1e-3 0.011-1e-3 0.012v0.011 0.011l1e-3 0.012 1e-3 0.011 4e-3 0.024 2e-3 0.014 3e-3 0.013 4e-3 0.015 5e-3 0.016 6e-3 0.017 7e-3 0.018 7e-3 0.019 0.01 0.021 0.01 0.022 0.012 0.023 0.014 0.025 0.015 0.026 0.017 0.027 0.019 0.028 0.021 0.03 0.023 0.03 0.024 0.032 0.027 0.033 0.029 0.034 0.031 0.034 0.033 0.036 0.035 0.036 0.037 0.037 0.04 0.038 0.041 0.038 0.044 0.039 0.046 0.04 0.049 0.04 0.05 0.041 0.053 0.04 0.054 0.042 0.057 0.041 0.059 0.042 0.061 0.042 0.064 0.042 0.065 0.042 0.067 0.043 0.07 0.042 0.071 0.043 0.073 0.042 0.076 0.043 0.077 0.042 0.079 0.043 0.081 0.042 0.083 0.042 0.085 0.042 0.087 0.042 0.089 0.042 0.09 0.042 0.092 0.041 0.094 0.041 0.096 0.041 0.097 0.041 0.2 0.08 0.103 0.04 0.104 0.039 0.106 0.039 0.107 0.039 0.109 0.039 0.11 0.038 0.112 0.037 0.114 0.038 0.115 0.037 0.117 0.036 0.118 0.036 0.119 0.036 0.121 0.035 0.122 0.035 0.124 0.034 0.125 0.034 0.126 0.033 0.128 0.033 0.129 0.033 0.131 0.031 0.131 0.032 0.133 0.031 0.27 0.06 0.137 0.029 0.138 0.029 0.139 0.028 0.14 0.028 0.141 0.027 0.286 0.052 0.145 0.025 0.146 0.025 0.147 0.024 0.148 0.024 0.149 0.023 0.15 0.022 0.151 0.022 0.152 0.021 0.153 0.02 0.154 0.02 0.155 0.019 0.156 0.018 0.157 0.018 0.157 0.017 0.159 0.017 0.159 0.016 0.16 0.015 0.161 0.014 0.162 0.014 0.163 0.013 0.163 0.012 0.165 0.012 0.165 0.011 0.165 0.01 0.167 0.01 0.167 8e-3 0.168 8e-3 0.169 8e-3 0.169 6e-3 0.17 6e-3 0.17 5e-3 0.171 4e-3 0.172 4e-3 0.173 2e-3 0.172 2e-3 0.174 2e-3h0.174 0.174l0.174-2e-3 0.172-2e-3 0.173-2e-3 0.172-4e-3 0.171-4e-3 0.17-5e-3 0.17-6e-3 0.169-6e-3 0.169-8e-3 0.168-8e-3 0.167-8e-3 0.167-0.01 0.165-0.01 0.165-0.011 0.165-0.012 0.163-0.012 0.163-0.013 0.162-0.014 0.161-0.014 0.16-0.015 0.159-0.016 0.159-0.017 0.157-0.017 0.157-0.018 0.156-0.018 0.155-0.019 0.154-0.02 0.153-0.02 0.152-0.021 0.151-0.022 0.15-0.022 0.149-0.023 0.148-0.024 0.147-0.024 0.146-0.025 0.145-0.025 0.286-0.052 0.141-0.027 0.14-0.028 0.139-0.028 0.138-0.029 0.137-0.029 0.27-0.06 0.133-0.031 0.131-0.032 0.131-0.031 0.129-0.033 0.128-0.033 0.126-0.033 0.125-0.034 0.124-0.034 0.122-0.035 0.121-0.035 0.119-0.036 0.118-0.036 0.117-0.036 0.115-0.037 0.114-0.038 0.112-0.037 0.11-0.038 0.109-0.039 0.107-0.039 0.106-0.039 0.104-0.039 0.103-0.04 0.2-0.08 0.097-0.041 0.096-0.041 0.094-0.041 0.092-0.041 0.09-0.042 0.089-0.042 0.087-0.042 0.085-0.042 0.083-0.042 0.081-0.042 0.079-0.043 0.077-0.042 0.076-0.043 0.073-0.042 0.071-0.043 0.07-0.042 0.067-0.043 0.065-0.042 0.064-0.042 0.061-0.042 0.059-0.042 0.057-0.041 0.054-0.042 0.053-0.04 0.05-0.041 0.049-0.04 0.046-0.04 0.044-0.039 0.041-0.038 0.04-0.038 0.037-0.037 0.035-0.036 0.033-0.036 0.031-0.034 0.029-0.034 0.027-0.033 0.024-0.032 0.023-0.03 0.021-0.03 0.019-0.028 0.017-0.027 0.015-0.026 0.014-0.025 0.012-0.023 0.01-0.022 0.01-0.021 7e-3 -0.019 7e-3 -0.018 6e-3 -0.017 5e-3 -0.016 4e-3 -0.015 3e-3 -0.013 2e-3 -0.014 4e-3 -0.024 1e-3 -0.011 1e-3 -0.012v-0.011-0.011l-1e-3 -0.012-1e-3 -0.011-4e-3 -0.024-2e-3 -0.014-3e-3 -0.013-4e-3 -0.015-5e-3 -0.016-6e-3 -0.017-7e-3 -0.018-7e-3 -0.019-0.01-0.021-0.01-0.022-0.012-0.023-0.014-0.025-0.015-0.026-0.017-0.027-0.019-0.028-0.021-0.03-0.023-0.03-0.024-0.032-0.027-0.033-0.029-0.034-0.031-0.034-0.033-0.036-0.035-0.036-0.037-0.037-0.04-0.038-0.041-0.038-0.044-0.04-0.046-0.039-0.049-0.04-0.05-0.041-0.053-0.04-0.054-0.042-0.057-0.041-0.059-0.042-0.061-0.042-0.064-0.042-0.065-0.042-0.067-0.043-0.07-0.042-0.071-0.043-0.073-0.042-0.076-0.043-0.077-0.042-0.079-0.043-0.081-0.042-0.083-0.042-0.085-0.042-0.087-0.042-0.089-0.042-0.09-0.042-0.092-0.041-0.094-0.041-0.096-0.041-0.097-0.041-0.2-0.08-0.103-0.04-0.104-0.039-0.106-0.039-0.107-0.039-0.109-0.039-0.11-0.038-0.112-0.037-0.114-0.038-0.115-0.037-0.117-0.036-0.118-0.036-0.119-0.036-0.121-0.035-0.122-0.035-0.124-0.034-0.125-0.034-0.126-0.033-0.128-0.033-0.129-0.033-0.131-0.031-0.131-0.032-0.133-0.031-0.27-0.06-0.137-0.029-0.138-0.029-0.139-0.028-0.14-0.028-0.141-0.027-0.286-0.052-0.145-0.025-0.146-0.025-0.147-0.024-0.148-0.024-0.149-0.023-0.15-0.022-0.151-0.022-0.152-0.021-0.153-0.02-0.154-0.02-0.155-0.019-0.156-0.018-0.157-0.018-0.157-0.017-0.159-0.017-0.159-0.016-0.16-0.015-0.161-0.014-0.162-0.014-0.163-0.013-0.163-0.012-0.165-0.012-0.165-0.011-0.165-0.01-0.167-0.01-0.167-8e-3 -0.168-8e-3 -0.169-8e-3 -0.169-6e-3 -0.17-6e-3 -0.17-5e-3 -0.171-4e-3 -0.172-4e-3 -0.173-2e-3 -0.172-2e-3 -0.174-2e-3h-0.174-0.174z" fill="#9087a0"/></g></g></svg>
