<?xml version="1.0" encoding="UTF-8"?>
<svg clip-rule="evenodd" fill-rule="evenodd" stroke-linejoin="round" stroke-miterlimit="2" viewBox="0 0 32 32" xmlns="http://www.w3.org/2000/svg">
 <clipPath id="a">
  <path d="m0 0h32v32h-32z" clip-rule="evenodd"/>
 </clipPath>
 <path d="m0 0h32v32h-32z" fill="none"/>
 <g clip-path="url(#a)">
  <path d="m16 3c8.837 0 16 7.163 16 16v0.502c0 6.902-5.596 12.498-12.498 12.498h-7.004c-6.902 0-12.498-5.596-12.498-12.498v-0.502c0-8.837 7.163-16 16-16z"/>
  <path d="m30 19c0-7.732-6.268-14-14-14s-14 6.268-14 14v0.502c0 5.798 4.7 10.498 10.498 10.498h7.004c5.798 0 10.498-4.7 10.498-10.498z" fill="#fbc546"/>
  <path d="m23 22c0-0.552-0.448-1-1-1h-12c-0.552 0-1 0.448-1 1s0.448 1 1 1h12c0.552 0 1-0.448 1-1z" fill="#593604"/>
  <path d="m26 15c0-.265-.105-.52-.293-.707-.187-.188-.442-.293-.707-.293-1.331 0-3.669 0-5 0-.265 0-.52.105-.707.293-.188.187-.293.442-.293.707s.105.52.293.707c.187.188.442.293.707.293h5c.265 0 .52-.105.707-.293.188-.187.293-.442.293-.707z"/>
  <path d="m13 15c0-.265-.105-.52-.293-.707-.187-.188-.442-.293-.707-.293-1.331 0-3.669 0-5 0-.265 0-.52.105-.707.293-.188.187-.293.442-.293.707s.105.52.293.707c.187.188.442.293.707.293h5c.265 0 .52-.105.707-.293.188-.187.293-.442.293-.707z"/>
 </g>
</svg>
