<?xml version="1.0" encoding="UTF-8"?>
<!DOCTYPE svg  PUBLIC '-//W3C//DTD SVG 1.1//EN'  'http://www.w3.org/Graphics/SVG/1.1/DTD/svg11.dtd'>
<svg clip-rule="evenodd" fill-rule="evenodd" stroke-linejoin="round" stroke-miterlimit="1.5" version="1.1" viewBox="0 0 32 32" xml:space="preserve" xmlns="http://www.w3.org/2000/svg">
    <rect id="bandaged_heart" width="32" height="32" fill="none"/>
    <path d="m15.153 28.099c0.536 0.253 1.158 0.253 1.695 0 2.197-1.096 8.129-4.412 11.291-9.653 3.895-6.456 1.19-13.595-4.636-13.946-3.379-0.203-5.792 1.678-6.871 4.03-0.097 0.265-0.349 0.442-0.632 0.442-0.282 0-0.535-0.177-0.631-0.442-1.08-2.352-3.493-4.233-6.872-4.03-5.826 0.351-8.531 7.49-4.636 13.946 3.162 5.241 9.094 8.557 11.292 9.653z" fill="none" stroke="#000" stroke-width="4px"/>
    <path d="m2.081 13.211c-0.077-0.833-0.055-1.642 0.059-2.41 0.157 1.021 0.698 1.91 1.525 2.67-0.751-0.109-1.287-0.204-1.584-0.26zm4.611 2.066c5.158 2.08 13.472 2.093 18.636 0.181 0 0 1.332 4.485 1.91 4.334-3.281 4.463-8.383 7.305-10.388 8.305-0.536 0.253-1.158 0.253-1.695 1e-3 -1.641-0.816-5.364-2.872-8.463-6.044v-6.777z" fill="#ce0249"/>
    <path d="m2.805 13.338c-0.303-0.819-0.531-1.667-0.665-2.537 0.511-3.46 2.878-6.092 6.357-6.301 3.379-0.203 5.792 1.678 6.872 4.03 0.096 0.265 0.349 0.442 0.631 0.442 0.283 0 0.535-0.177 0.632-0.442 1.079-2.352 3.492-4.233 6.871-4.03 2.95 0.178 5.1 2.096 5.998 4.785-1.05 0.486-4.173 10.113-4.173 10.113-3.346 3.358-7.56 5.573-9.328 5.602-1.927 0.032-6.037-2.134-9.308-5.61 0 0-3.059-5.916-3.887-6.052z" fill="#ff3c80"/>
    
        <path d="m4.615 19.591c-0.265-0.371 1.818-3.852 4.885-4.294 3.052-0.44 6.71-1.16 10.437-2.339 4.273-1.351 7.565-2.746 9.564-3.673 0.352 1.055 0.511 2.228 0.451 3.462-0.056 1.15-5.147 6.028-8.922 7.437-5.309 1.982-10.428 2.27-14.12 2.09-0.82-0.818-1.601-1.713-2.295-2.683z" fill="#d2d2d2"/>
        <path d="m28.879 17.042c-0.213 0.47-0.459 0.939-0.74 1.404-0.28 0.464-0.582 0.913-0.901 1.346-1.934 0.504-4.507 0.948-7.804 1.086-5.91 0.247-11.208-0.527-14.819-1.287-0.265-0.371-0.517-0.753-0.754-1.145-1.052-1.744-1.623-3.538-1.78-5.235 1.318 0.25 7.313 1.26 15.919 0.789 4.812-0.263 9.127-0.821 11.952-1.253-0.032 0.652-0.125 1.32-0.284 1.996-0.747 0.802-1.254 2.044-0.789 2.299z" fill="#fff"/>
        <path d="m28.879 17.042c-3.628 1.035-8.043 1.561-11.45 1.171-0.549-0.063-0.943-0.559-0.88-1.107 0.063-0.549 0.559-0.943 1.107-0.88 3.614 0.414 8.481-0.251 12.012-1.483-0.178 0.76-0.439 1.531-0.789 2.299z" fill="#d4d4d4"/>
    
</svg>
