<?xml version="1.0" encoding="UTF-8"?>
<!DOCTYPE svg  PUBLIC '-//W3C//DTD SVG 1.1//EN'  'http://www.w3.org/Graphics/SVG/1.1/DTD/svg11.dtd'>
<svg clip-rule="evenodd" fill-rule="evenodd" stroke-linejoin="round" stroke-miterlimit="1.5" version="1.1" viewBox="0 0 32 32" xml:space="preserve" xmlns="http://www.w3.org/2000/svg">
    <rect id="beating_heart" width="32" height="32" fill="none"/>
    <path d="m3.712 8.236c-0.13 0.393-0.555 0.606-0.948 0.476s-0.606-0.555-0.476-0.948c0 0 0.529-1.746 3.094-3.064 2.463-1.266 4.72-0.943 4.72-0.943 0.41 0.056 0.697 0.435 0.641 0.845s-0.435 0.697-0.845 0.641c0 0-1.829-0.238-3.83 0.791-1.9 0.976-2.356 2.202-2.356 2.202zm26-0.472c0.13 0.393-0.083 0.818-0.476 0.948s-0.818-0.083-0.948-0.476c0 0-0.456-1.226-2.356-2.202-2.001-1.029-3.83-0.791-3.83-0.791-0.41 0.056-0.789-0.231-0.845-0.641s0.231-0.789 0.641-0.845c0 0 2.257-0.323 4.72 0.943 2.565 1.318 3.094 3.064 3.094 3.064zm-26.871 16.094c-0.198-0.363-0.063-0.819 0.301-1.017 0.363-0.198 0.819-0.063 1.017 0.301 0.869 1.598 3.314 4.313 5.16 5.179 0.374 0.176 0.536 0.623 0.36 0.998-0.176 0.374-0.623 0.536-0.998 0.36-2.082-0.977-4.86-4.018-5.84-5.821zm25-0.716c0.198-0.364 0.654-0.499 1.017-0.301 0.364 0.198 0.499 0.654 0.301 1.017-0.98 1.803-3.758 4.844-5.84 5.821-0.375 0.176-0.822 0.014-0.998-0.36-0.176-0.375-0.014-0.822 0.36-0.998 1.846-0.866 4.291-3.581 5.16-5.179zm-12.589 5.691c-1.939-0.967-7.172-3.892-9.961-8.516-3.436-5.696-1.05-11.994 4.09-12.304 2.98-0.179 5.109 1.48 6.062 3.555 0.085 0.235 0.308 0.391 0.557 0.391 0.25 0 0.472-0.156 0.558-0.39 0.952-2.076 3.081-3.735 6.061-3.556 5.14 0.31 7.526 6.608 4.09 12.304-2.789 4.624-8.022 7.549-9.961 8.516-0.474 0.223-1.022 0.223-1.496 0z" fill="none" stroke="#000" stroke-width="4px"/>
    <path d="m3.712 8.236c-0.13 0.393-0.555 0.606-0.948 0.476s-0.606-0.555-0.476-0.948c0 0 0.529-1.746 3.094-3.064 2.463-1.266 4.72-0.943 4.72-0.943 0.41 0.056 0.697 0.435 0.641 0.845s-0.435 0.697-0.845 0.641c0 0-1.829-0.238-3.83 0.791-1.9 0.976-2.356 2.202-2.356 2.202zm26-0.472c0.13 0.393-0.083 0.818-0.476 0.948s-0.818-0.083-0.948-0.476c0 0-0.456-1.226-2.356-2.202-2.001-1.029-3.83-0.791-3.83-0.791-0.41 0.056-0.789-0.231-0.845-0.641s0.231-0.789 0.641-0.845c0 0 2.257-0.323 4.72 0.943 2.565 1.318 3.094 3.064 3.094 3.064zm-26.871 16.094c-0.198-0.363-0.063-0.819 0.301-1.017 0.363-0.198 0.819-0.063 1.017 0.301 0.869 1.598 3.314 4.313 5.16 5.179 0.374 0.176 0.536 0.623 0.36 0.998-0.176 0.374-0.623 0.536-0.998 0.36-2.082-0.977-4.86-4.018-5.84-5.821zm25-0.716c0.198-0.364 0.654-0.499 1.017-0.301 0.364 0.198 0.499 0.654 0.301 1.017-0.98 1.803-3.758 4.844-5.84 5.821-0.375 0.176-0.822 0.014-0.998-0.36-0.176-0.375-0.014-0.822 0.36-0.998 1.846-0.866 4.291-3.581 5.16-5.179z" fill="#e40265"/>
    <path d="m3.772 13.572c1.108 7.166 23.602 6.972 24.504 0.386 0.199 1.968-0.268 4.207-1.567 6.359-2.789 4.624-8.022 7.549-9.961 8.516-0.474 0.223-1.022 0.223-1.496 0-1.939-0.967-7.172-3.892-9.961-8.516-1.384-2.294-1.823-4.686-1.519-6.745z" fill="#ce0248"/>
    <path d="m28.276 13.958c-0.902 6.586-9.65 12.098-12.276 12.141-2.851 0.047-11.12-5.361-12.228-12.527 0.452-3.053 2.539-5.374 5.609-5.559 2.98-0.179 5.109 1.48 6.062 3.555 0.085 0.235 0.308 0.391 0.557 0.391 0.25 0 0.472-0.156 0.558-0.39 0.952-2.076 3.081-3.735 6.061-3.556 3.198 0.193 5.33 2.703 5.657 5.945z" fill="#ff3c80"/>
</svg>
