<?xml version="1.0" encoding="UTF-8"?>
<!DOCTYPE svg  PUBLIC '-//W3C//DTD SVG 1.1//EN'  'http://www.w3.org/Graphics/SVG/1.1/DTD/svg11.dtd'>
<svg clip-rule="evenodd" fill-rule="evenodd" stroke-linejoin="round" stroke-miterlimit="1.5" version="1.1" viewBox="0 0 32 32" xml:space="preserve" xmlns="http://www.w3.org/2000/svg">
    <rect id="black_heart" width="32" height="32" fill="none"/>
    <path d="m15.153 28.099c0.536 0.253 1.158 0.253 1.695 0 2.197-1.096 8.129-4.412 11.291-9.653 3.895-6.456 1.19-13.595-4.636-13.946-3.379-0.203-5.792 1.678-6.871 4.03-0.097 0.265-0.349 0.442-0.632 0.442-0.282 0-0.535-0.177-0.631-0.442-1.08-2.352-3.493-4.233-6.872-4.03-5.826 0.351-8.531 7.49-4.636 13.946 3.162 5.241 9.094 8.557 11.292 9.653z" fill="none" stroke="#000" stroke-width="4px"/>
    <path d="m2.14 10.801c1.255 8.123 26.752 7.902 27.775 0.437 0.225 2.231-0.304 4.768-1.776 7.208-3.162 5.241-9.094 8.557-11.292 9.653-0.536 0.253-1.158 0.253-1.695 0-2.197-1.096-8.129-4.412-11.291-9.653-1.568-2.6-2.067-5.311-1.721-7.645z" fill="#353535"/>
    <path d="m29.915 11.238c-1.023 7.465-10.939 13.713-13.915 13.762-3.232 0.053-12.605-6.076-13.86-14.199 0.511-3.46 2.878-6.092 6.357-6.301 3.379-0.203 5.792 1.678 6.872 4.03 0.096 0.265 0.349 0.442 0.631 0.442 0.283 0 0.535-0.177 0.632-0.442 1.079-2.352 3.492-4.233 6.871-4.03 3.624 0.218 6.041 3.064 6.412 6.738z" fill="#454545"/>
</svg>
