<?xml version="1.0" encoding="UTF-8"?>
<!DOCTYPE svg  PUBLIC '-//W3C//DTD SVG 1.1//EN'  'http://www.w3.org/Graphics/SVG/1.1/DTD/svg11.dtd'>
<svg clip-rule="evenodd" fill-rule="evenodd" stroke-linejoin="round" stroke-miterlimit="1.5" version="1.1" viewBox="0 0 32 32" xml:space="preserve" xmlns="http://www.w3.org/2000/svg">
    <rect id="broken_heart" width="32" height="32" fill="none"/>
    <path d="m15.153 28.099c0.536 0.253 1.158 0.253 1.695 0 2.197-1.096 8.129-4.412 11.291-9.653 3.895-6.456 1.19-13.595-4.636-13.946-3.379-0.203-5.792 1.678-6.871 4.03-0.097 0.265-0.349 0.442-0.632 0.442-0.282 0-0.535-0.177-0.631-0.442-1.08-2.352-3.493-4.233-6.872-4.03-5.826 0.351-8.531 7.49-4.636 13.946 3.162 5.241 9.094 8.557 11.292 9.653z" fill="none" stroke="#000" stroke-width="4px"/>
    <path d="m14.684 27.86c-2.48-1.291-7.864-4.51-10.823-9.414-1.568-2.6-2.067-5.311-1.721-7.645 1.255 8.123 26.752 7.902 27.775 0.437 0.225 2.231-0.304 4.768-1.776 7.208-3.162 5.241-9.088 8.569-11.291 9.653-0.013 6e-3 -0.026 0.012-0.038 0.018l-2.126-0.257z" fill="#ce0249"/>
    <path d="m14.089 24.588c-4.053-1.5-10.89-6.934-11.949-13.787 0.511-3.46 2.878-6.092 6.357-6.301 2.785-0.168 4.913 1.081 6.18 2.841l1.147 2.659h0.676l0.387-1.972c1.178-2.111 3.481-3.717 6.616-3.528 3.624 0.218 6.041 3.064 6.412 6.738-0.975 7.117-10.031 13.126-13.454 13.715 0.452-0.451-2.323-0.473-2.372-0.365z" fill="#ff3c80"/>
    <path d="m15.153 28.099c-0.142-0.071-0.298-0.15-0.469-0.239l-0.654-2.617c-0.085-0.341 0.015-0.702 0.263-0.95l3.226-3.226-5.159-4.299c-0.235-0.196-0.368-0.488-0.36-0.794 8e-3 -0.305 0.155-0.591 0.4-0.774l3.48-2.61-1.203-5.249c0.271 0.376 0.519 0.768 0.692 1.189 0.107 0.261 0.349 0.442 0.631 0.442 0.283 0 0.525-0.181 0.632-0.442 0.071-0.173 0.163-0.337 0.255-0.502l1.088 4.749c0.088 0.385-0.059 0.786-0.375 1.023l-2.988 2.241 5.028 4.191c0.216 0.18 0.346 0.442 0.359 0.723 0.013 0.28-0.093 0.553-0.292 0.752l-3.6 3.6 0.703 2.81c-0.528 0.235-1.133 0.229-1.657-0.018z" fill="#61012b"/>
</svg>
