<?xml version="1.0" encoding="UTF-8"?>
<!DOCTYPE svg  PUBLIC '-//W3C//DTD SVG 1.1//EN'  'http://www.w3.org/Graphics/SVG/1.1/DTD/svg11.dtd'>
<svg clip-rule="evenodd" fill-rule="evenodd" stroke-linejoin="round" stroke-miterlimit="1.5" version="1.1" viewBox="0 0 32 32" xml:space="preserve" xmlns="http://www.w3.org/2000/svg">
    <rect id="empty_heart" width="32" height="32" fill="none"/>
    <path d="m15.153 28.099c0.536 0.253 1.158 0.253 1.695 0 2.197-1.096 8.129-4.412 11.291-9.653 3.895-6.456 1.19-13.595-4.636-13.946-3.379-0.203-5.792 1.678-6.871 4.03-0.097 0.265-0.349 0.442-0.632 0.442-0.282 0-0.535-0.177-0.631-0.442-1.08-2.352-3.493-4.233-6.872-4.03-5.826 0.351-8.531 7.49-4.636 13.946 3.162 5.241 9.094 8.557 11.292 9.653z" fill="none" stroke="#000" stroke-width="4px"/>
    <path d="m15.153 28.099c0.536 0.253 1.158 0.253 1.695 0 2.197-1.096 8.129-4.412 11.291-9.653 3.895-6.456 1.19-13.595-4.636-13.946-3.379-0.203-5.792 1.678-6.871 4.03-0.097 0.265-0.349 0.442-0.632 0.442-0.282 0-0.535-0.177-0.631-0.442-1.08-2.352-3.493-4.233-6.872-4.03-5.826 0.351-8.531 7.49-4.636 13.946 3.162 5.241 9.094 8.557 11.292 9.653z"/>
    <path d="m13.545 27.245c-0.48-0.273-0.649-0.884-0.376-1.364 0.272-0.48 0.883-0.648 1.363-0.376 0.582 0.331 1.084 0.593 1.469 0.783 0.383-0.191 0.885-0.452 1.467-0.783 0.48-0.272 1.091-0.104 1.363 0.376 0.273 0.48 0.104 1.091-0.376 1.364-0.566 0.321-1.061 0.582-1.455 0.78-0.72 0.362-1.28 0.362-2 0-0.394-0.198-0.889-0.459-1.455-0.78zm8.718-2.506c-0.439 0.334-1.067 0.249-1.401-0.191-0.335-0.439-0.249-1.067 0.19-1.401 1.066-0.812 2.16-1.759 3.165-2.839 0.376-0.404 1.009-0.427 1.413-0.051s0.427 1.009 0.051 1.413c-1.086 1.167-2.266 2.192-3.418 3.069zm6.183-6.828c-0.264 0.485-0.872 0.664-1.357 0.4-0.484-0.264-0.664-0.871-0.4-1.356 0.694-1.276 1.094-2.578 1.227-3.818 0.059-0.549 0.552-0.947 1.101-0.888 0.548 0.059 0.946 0.552 0.887 1.101-0.158 1.481-0.629 3.037-1.458 4.561zm0.759-9.412c0.227 0.504 3e-3 1.096-0.5 1.323-0.504 0.227-1.096 3e-3 -1.323-0.501-0.52-1.153-1.38-2.055-2.53-2.508-0.514-0.202-0.767-0.783-0.565-1.297 0.203-0.513 0.784-0.766 1.297-0.564 1.636 0.644 2.882 1.907 3.621 3.547zm-8.664-3.593c0.52-0.187 1.093 0.083 1.28 0.602 0.188 0.519-0.082 1.093-0.601 1.28-1.232 0.444-2.147 1.339-2.679 2.384-0.25 0.492-0.852 0.689-1.344 0.439s-0.689-0.853-0.439-1.345c0.75-1.474 2.046-2.733 3.783-3.36zm-5.3 3.36c0.251 0.491 0.055 1.094-0.436 1.345-0.492 0.251-1.095 0.055-1.346-0.436-0.535-1.049-1.45-1.943-2.679-2.387-0.519-0.187-0.789-0.761-0.601-1.28 0.187-0.519 0.761-0.788 1.28-0.601 1.733 0.626 3.028 1.881 3.782 3.359zm-8.825-3.314c0.513-0.202 1.094 0.051 1.296 0.564 0.203 0.514-0.05 1.095-0.564 1.297-1.15 0.453-2.01 1.355-2.53 2.508-0.227 0.504-0.819 0.728-1.323 0.501-0.503-0.227-0.727-0.819-0.5-1.322 0.739-1.641 1.985-2.904 3.621-3.548zm-4.32 8.398c-0.059-0.549 0.339-1.042 0.887-1.101 0.549-0.059 1.042 0.339 1.101 0.888 0.133 1.24 0.533 2.542 1.227 3.818 0.264 0.485 0.084 1.092-0.4 1.356-0.485 0.264-1.093 0.085-1.357-0.4-0.829-1.524-1.3-3.08-1.458-4.561zm4.223 8.32c-0.376-0.404-0.353-1.037 0.051-1.413s1.037-0.353 1.413 0.051c1.005 1.08 2.099 2.027 3.165 2.839 0.439 0.334 0.525 0.962 0.19 1.401-0.334 0.44-0.962 0.525-1.401 0.191-1.152-0.877-2.332-1.902-3.418-3.069z" fill="#ff7575"/>
</svg>
