<?xml version="1.0" encoding="UTF-8"?>
<!DOCTYPE svg  PUBLIC '-//W3C//DTD SVG 1.1//EN'  'http://www.w3.org/Graphics/SVG/1.1/DTD/svg11.dtd'>
<svg clip-rule="evenodd" fill-rule="evenodd" stroke-linejoin="round" stroke-miterlimit="1.5" version="1.1" viewBox="0 0 32 32" xml:space="preserve" xmlns="http://www.w3.org/2000/svg">
    <rect id="growing_heart" width="32" height="32" fill="none"/>
    <path d="m15.153 28.096c0.536 0.253 1.158 0.253 1.695 1e-3 2.197-1.097 8.129-4.412 11.291-9.654 3.895-6.455 1.19-13.595-4.636-13.945-3.379-0.204-5.792 1.677-6.871 4.03-0.097 0.265-0.349 0.442-0.632 0.442-0.282-1e-3 -0.535-0.177-0.631-0.443-1.08-2.352-3.493-4.233-6.872-4.029-5.826 0.35-8.531 7.49-4.636 13.945 3.162 5.242 9.094 8.557 11.292 9.653z" fill="none" stroke="#000" stroke-width="4px"/>
    <path d="m15.153 28.096c0.536 0.253 1.158 0.253 1.695 1e-3 2.197-1.097 8.129-4.412 11.291-9.654 3.895-6.455 1.19-13.595-4.636-13.945-3.379-0.204-5.792 1.677-6.871 4.03-0.097 0.265-0.349 0.442-0.632 0.442-0.282-1e-3 -0.535-0.177-0.631-0.443-1.08-2.352-3.493-4.233-6.872-4.029-5.826 0.35-8.531 7.49-4.636 13.945 3.162 5.242 9.094 8.557 11.292 9.653z" fill="#febfd5"/>
    <path d="m15.395 25.864c0.383 0.181 0.827 0.181 1.21 1e-3 1.57-0.783 5.806-3.151 8.064-6.894 2.782-4.611 0.85-9.71-3.311-9.96-2.412-0.145-4.136 1.198-4.907 2.878-0.069 0.19-0.249 0.316-0.451 0.316s-0.382-0.127-0.451-0.316c-0.771-1.68-2.495-3.023-4.907-2.878-4.161 0.25-6.093 5.349-3.311 9.96 2.258 3.743 6.494 6.111 8.064 6.893z" fill="#fe89b2"/>
    <path d="m10.177 15.654c0.528 3.412 11.239 3.319 11.669 0.183 0.094 0.937-0.128 2.003-0.746 3.028-1.329 2.202-3.821 3.595-4.744 4.055-0.225 0.107-0.487 0.107-0.712 0-0.923-0.46-3.415-1.853-4.744-4.055-0.659-1.092-0.868-2.231-0.723-3.211z" fill="#ce0249"/>
    <path d="m21.846 15.837c-0.43 3.136-4.596 5.761-5.846 5.782-1.358 0.022-5.295-2.553-5.823-5.965 0.215-1.454 1.209-2.56 2.671-2.648 1.419-0.085 2.433 0.705 2.887 1.693 0.04 0.112 0.146 0.186 0.265 0.186s0.225-0.074 0.266-0.186c0.453-0.988 1.467-1.778 2.886-1.693 1.523 0.092 2.538 1.287 2.694 2.831z" fill="#ff3c80"/>
</svg>
