<?xml version="1.0" encoding="UTF-8"?>
<!DOCTYPE svg  PUBLIC '-//W3C//DTD SVG 1.1//EN'  'http://www.w3.org/Graphics/SVG/1.1/DTD/svg11.dtd'>
<svg clip-rule="evenodd" fill-rule="evenodd" stroke-linejoin="round" stroke-miterlimit="2" version="1.1" viewBox="0 0 32 32" xml:space="preserve" xmlns="http://www.w3.org/2000/svg">
    <rect id="heart_decoration" width="32" height="32" fill="none"/>
    <clipPath id="_clip1">
        <rect width="32" height="32"/>
    </clipPath>
    <g clip-path="url(#_clip1)">
        <path d="m32 8c0-4.418-3.582-8-8-8h-16c-4.418 0-8 3.582-8 8v16c0 4.418 3.582 8 8 8h16c4.418 0 8-3.582 8-8v-16z"/>
        <path d="M30,8C30,6.409 29.368,4.883 28.243,3.757C27.117,2.632 25.591,2 24,2L8,2C6.409,2 4.883,2.632 3.757,3.757C2.632,4.883 2,6.409 2,8L2,24C2,25.591 2.632,27.117 3.757,28.243C4.883,29.368 6.409,30 8,30L24,30C25.591,30 27.117,29.368 28.243,28.243C29.368,27.117 30,25.591 30,24L30,8Z" fill="#c22fff"/>
        <path d="m15.324 25.349c0.428 0.201 0.924 0.202 1.353 0 1.754-0.875 6.488-3.522 9.012-7.705 3.109-5.153 0.95-10.852-3.7-11.132-2.697-0.162-4.623 1.339-5.484 3.217-0.078 0.212-0.279 0.353-0.505 0.353-0.225 0-0.427-0.142-0.504-0.353-0.862-1.878-2.788-3.379-5.485-3.217-4.65 0.28-6.809 5.979-3.7 11.132 2.524 4.183 7.258 6.83 9.013 7.705z" fill="#fff"/>
    </g>
</svg>
