<?xml version="1.0" encoding="UTF-8"?>
<!DOCTYPE svg  PUBLIC '-//W3C//DTD SVG 1.1//EN'  'http://www.w3.org/Graphics/SVG/1.1/DTD/svg11.dtd'>
<svg clip-rule="evenodd" fill-rule="evenodd" stroke-linejoin="round" stroke-miterlimit="1.5" version="1.1" viewBox="0 0 32 32" xml:space="preserve" xmlns="http://www.w3.org/2000/svg">
    <rect id="heart_on_fire" width="32" height="32" fill="none"/>
    <clipPath id="_clip1">
        <rect width="32" height="32"/>
    </clipPath>
    <g clip-path="url(#_clip1)">
        <path d="m5.945 22.585c-0.392-0.47-2.769-3.385-3.424-5.72-0.654-2.326-0.484-5.955 0.479-7.865 1.304-2.586 2.5-3.5 2.5-3.5s1.439 2.472 4 1.329c2.254-1.006 0.551-3.901 0.551-3.901 3.936-0.432 3.39 5.238 6.273 4.725 2.328-0.414 1.267-4.245 4.676-5.653 0 0 0.222 4.335 3 5 2.424 0.58 3.428-1.579 3.428-1.579 0.384 0.449 1.362 1.855 1.922 3.656 0.527 1.695 0.814 3.789 0.564 5.966-0.413 3.603-3.914 7.612-3.914 7.612-3.034 3.835-7.442 6.285-9.217 7.17-0.496 0.233-1.07 0.233-1.566 0-1.785-0.89-6.236-3.365-9.272-7.24z" fill="none" stroke="#000" stroke-width="4px"/>
        <path d="m5.945 22.585c-0.392-0.47-2.769-3.385-3.424-5.72-0.654-2.326-0.484-5.955 0.479-7.865 1.304-2.586 2.5-3.5 2.5-3.5s1.439 2.472 4 1.329c2.254-1.006 0.551-3.901 0.551-3.901 3.936-0.432 3.39 5.238 6.273 4.725 2.328-0.414 1.267-4.245 4.676-5.653 0 0 0.222 4.335 3 5 2.424 0.58 3.428-1.579 3.428-1.579 0.384 0.449 1.362 1.855 1.922 3.656 0.527 1.695 0.814 3.789 0.564 5.966-0.413 3.603-3.914 7.612-3.914 7.612-1.304 1.647-2.861 3.039-4.354 4.161 0.551-1.523-14.011-3.438-14.347-2.679-0.472-0.489-0.927-1.007-1.354-1.552z" fill="#fbbb0c"/>
        <path d="m3.596 18.309c-0.494-1.555-0.611-3.085-0.406-4.471 1.292 1.8 2.003 3.657 2.217 5.447-0.785 0.086-1.423-0.493-1.811-0.976zm4.418 4.095c2.906 2.843 12.033 3.227 14.66 1.123-0.294 1.167-0.693 2.363-1.028 3.289-1.982 1.49-3.851 2.504-4.863 3.009-0.496 0.233-1.07 0.233-1.566 0-1.534-0.765-5.036-2.7-7.918-5.688 0.187-0.422 0.442-1.023 0.715-1.733zm18.951-3.458c0.359-2.745 1.456-3.498 1.895-4.705 0.195 1.923-0.217 4.091-1.376 6.202-0.09-0.466-0.249-0.98-0.519-1.497z" fill="#c20202"/>
        <path d="m5.407 19.285c-1.096-1.643-1.913-3.482-2.217-5.447 0.473-3.199 2.66-5.631 5.876-5.824 3.122-0.188 5.352 1.551 6.351 3.724 0.089 0.246 0.322 0.409 0.583 0.409s0.495-0.163 0.584-0.408c0.998-2.174 3.228-3.913 6.35-3.725 3.35 0.202 5.584 2.832 5.926 6.227-0.226 1.654-0.925 3.244-1.895 4.705-0.237-0.456-0.561-0.914-0.999-1.342-1.546-1.509-4.466-1.522-4.466-1.522s1.846 2.188 1.569 5.301c-0.058 0.65-0.205 1.391-0.395 2.144-2.627 2.104-5.37 3.412-6.674 3.434-1.662 0.027-5.08-1.714-7.986-4.557 0.218-0.568 0.447-1.206 0.66-1.876 0.741-2.331-0.669-4.173-0.669-4.173s0.064 1.244-1.718 2.56c-0.309 0.228-0.604 0.34-0.88 0.37z" fill="#fd2e2e"/>
    </g>
</svg>
