<?xml version="1.0" encoding="UTF-8"?>
<!DOCTYPE svg  PUBLIC '-//W3C//DTD SVG 1.1//EN'  'http://www.w3.org/Graphics/SVG/1.1/DTD/svg11.dtd'>
<svg clip-rule="evenodd" fill-rule="evenodd" stroke-linejoin="round" stroke-miterlimit="1.5" version="1.1" viewBox="0 0 32 32" xml:space="preserve" xmlns="http://www.w3.org/2000/svg">
    <rect id="heart_arrow" width="32" height="32" fill="none"/>
    <path d="m3.904 9.004c-0.125-0.109-0.217-0.255-0.259-0.422l-1.31-5.244c-0.071-0.282 0.012-0.58 0.217-0.786 0.206-0.205 0.504-0.288 0.786-0.217l5.244 1.31c0.289 0.073 0.517 0.295 0.597 0.582 0.079 0.288-2e-3 0.596-0.213 0.807l-0.552 0.552c0.213-0.035 0.43-0.059 0.652-0.072 3.122-0.188 5.352 1.551 6.351 3.724 0.089 0.246 0.322 0.409 0.583 0.409s0.495-0.163 0.584-0.408c0.998-2.174 3.228-3.913 6.35-3.725 5.385 0.324 7.885 6.923 4.285 12.889-0.806 1.336-1.807 2.537-2.876 3.597h1.858c0.191 0 0.375 0.076 0.511 0.212l2.554 2.554c0.207 0.207 0.269 0.518 0.157 0.788s-0.375 0.446-0.668 0.446h-1.341l0.293 0.293c0.39 0.39 0.39 1.024 0 1.414s-1.024 0.39-1.414 0l-0.293-0.293v1.341c0 0.293-0.176 0.556-0.446 0.668s-0.581 0.05-0.788-0.157l-2.554-2.554c-0.136-0.136-0.212-0.32-0.212-0.511v-2.155c-2.111 1.638-4.145 2.744-5.217 3.279-0.496 0.233-1.07 0.233-1.566 0-2.031-1.013-7.514-4.078-10.436-8.922-2.014-3.338-2.119-6.874-0.877-9.399z" fill="none" stroke="#000" stroke-width="4px"/>
    <path d="m5.034 8.966c-0.211 0.211-0.519 0.292-0.807 0.213-0.287-0.08-0.509-0.308-0.582-0.597-0.37-1.483-0.947-3.792-1.31-5.244-0.071-0.282 0.012-0.58 0.217-0.786 0.206-0.205 0.504-0.288 0.786-0.217 1.452 0.363 3.761 0.94 5.244 1.31 0.289 0.073 0.517 0.295 0.597 0.582 0.079 0.288-2e-3 0.596-0.213 0.807l-3.932 3.932z" fill="#ffd300"/>
    <path d="m3.19 11.338c1.16 7.507 24.725 7.303 25.67 0.403 0.209 2.063-0.281 4.408-1.641 6.662-2.922 4.844-8.405 7.909-10.436 8.922-0.496 0.233-1.07 0.233-1.566 0-2.031-1.013-7.514-4.078-10.436-8.922-1.45-2.403-1.91-4.908-1.591-7.065z" fill="#ce0249"/>
    <path d="m28.86 11.741c-0.945 6.9-10.109 12.674-12.86 12.72-2.987 0.049-11.65-5.616-12.81-13.123 0.473-3.199 2.66-5.631 5.876-5.824 3.122-0.188 5.352 1.551 6.351 3.724 0.089 0.246 0.322 0.409 0.583 0.409s0.495-0.163 0.584-0.408c0.998-2.174 3.228-3.913 6.35-3.725 3.35 0.202 5.584 2.832 5.926 6.227z" fill="#ff3c80"/>
    <path d="m22.212 26.712c-0.136-0.136-0.212-0.32-0.212-0.511v-4.201h4.201c0.191 0 0.375 0.076 0.511 0.212l2.554 2.554c0.207 0.207 0.269 0.518 0.157 0.788s-0.375 0.446-0.668 0.446h-2.755v2.755c0 0.293-0.176 0.556-0.446 0.668s-0.581 0.05-0.788-0.157l-2.554-2.554z" fill="#ffd300"/>
    <path d="m27.707 26.293c0.39 0.39 0.39 1.024 0 1.414s-1.024 0.39-1.414 0l-10.453-10.453c-0.391-0.39-0.391-1.024 0-1.414 0.39-0.391 1.024-0.391 1.414 0l10.453 10.453z" fill="#6c6c6c"/>
    <path d="m16.5 18c0 0.552-0.448 1-1 1s-1-0.448-1-1c0-1.008 0.339-1.868 0.932-2.486 0.594-0.62 1.457-1.014 2.568-1.014 0.552 0 1 0.448 1 1s-0.448 1-1 1c-0.481 0-0.868 0.131-1.125 0.399-0.26 0.271-0.375 0.66-0.375 1.101z" fill="#ce0249"/>
</svg>
