<?xml version="1.0" encoding="UTF-8"?>
<!DOCTYPE svg  PUBLIC '-//W3C//DTD SVG 1.1//EN'  'http://www.w3.org/Graphics/SVG/1.1/DTD/svg11.dtd'>
<svg clip-rule="evenodd" fill-rule="evenodd" stroke-linecap="round" stroke-linejoin="round" stroke-miterlimit="1.5" version="1.1" viewBox="0 0 32 32" xml:space="preserve" xmlns="http://www.w3.org/2000/svg">
    <rect id="heart_exclamation" width="32" height="32" fill="none"/>
    <clipPath id="_clip1">
        <rect width="32" height="32"/>
    </clipPath>
    <g clip-path="url(#_clip1)">
        <path d="m16 22c2.208 0 4 1.792 4 4s-1.792 4-4 4-4-1.792-4-4 1.792-4 4-4zm-0.641-2.144c-1.662-0.828-6.147-3.335-8.538-7.299-2.945-4.881-0.9-10.28 3.506-10.546 2.554-0.153 4.379 1.269 5.196 3.048 0.073 0.2 0.264 0.334 0.477 0.334 0.214 0 0.405-0.133 0.478-0.334 0.816-1.779 2.641-3.201 5.195-3.048 4.406 0.266 6.451 5.665 3.506 10.546-2.391 3.964-6.876 6.471-8.538 7.3-0.406 0.191-0.876 0.191-1.282-1e-3z" fill="none" stroke="#000" stroke-width="4px"/>
        <path d="m19.948 25.355c0.034 0.21 0.052 0.425 0.052 0.645 0 2.208-1.792 4-4 4s-4-1.792-4-4c0-0.22 0.018-0.435 0.052-0.645 0.309 1.782 7.587 1.782 7.896 0zm-14.429-18.579c0.949 6.143 20.23 5.976 21.003 0.33 0.171 1.688-0.23 3.606-1.343 5.451-2.391 3.964-6.876 6.471-8.538 7.3-0.406 0.191-0.876 0.191-1.282-1e-3 -1.662-0.828-6.147-3.335-8.538-7.299-1.186-1.966-1.563-4.016-1.302-5.781z" fill="#ce0249"/>
        <path d="m12.052 25.355c0.309-1.902 1.96-3.355 3.948-3.355s3.639 1.453 3.948 3.355c-0.309 1.782-1.96 3.145-3.948 3.145s-3.639-1.363-3.948-3.145zm14.47-18.249c-0.773 5.646-8.271 10.37-10.522 10.407-2.444 0.041-9.532-4.594-10.481-10.737 0.387-2.617 2.176-4.606 4.808-4.765 2.554-0.153 4.379 1.269 5.196 3.048 0.073 0.2 0.264 0.334 0.477 0.334 0.214 0 0.405-0.133 0.478-0.334 0.816-1.779 2.641-3.201 5.195-3.048 2.741 0.165 4.569 2.317 4.849 5.095z" fill="#ff3c80"/>
    </g>
</svg>
