<?xml version="1.0" encoding="UTF-8"?>
<!DOCTYPE svg  PUBLIC '-//W3C//DTD SVG 1.1//EN'  'http://www.w3.org/Graphics/SVG/1.1/DTD/svg11.dtd'>
<svg clip-rule="evenodd" fill-rule="evenodd" stroke-linejoin="round" stroke-miterlimit="1.5" version="1.1" viewBox="0 0 32 32" xml:space="preserve" xmlns="http://www.w3.org/2000/svg">
    <rect id="ribbon_heart" width="32" height="32" fill="none"/>
    
    <g id="outline">
        <path d="m8.593 23.813-1.093 2.187-1.251-2.5-2.749 0.5 1.729-3.459c-0.728 0.178-1.503 0.035-2.122-0.402-0.694-0.489-1.107-1.284-1.107-2.133v-6e-3 -4.216c0-0.213 0.026-0.421 0.077-0.622-0.072-0.816-0.049-1.608 0.063-2.361 0.511-3.46 2.878-6.092 6.357-6.301 3.379-0.203 5.792 1.678 6.872 4.03 0.096 0.265 0.349 0.442 0.631 0.442 0.283 0 0.535-0.177 0.632-0.442 1.079-2.352 3.492-4.233 6.871-4.03 3.624 0.218 6.041 3.064 6.412 6.738 0.225 2.231-0.304 4.768-1.776 7.208-3.159 5.236-9.081 8.55-11.284 9.649-0.537 0.253-1.159 0.253-1.696 1e-3 -1.315-0.65-3.968-2.1-6.566-4.283z" fill="none" stroke="#000" stroke-width="4px"/>
    </g>
    <path d="m2.183 14c-0.184-1.11-0.193-2.19-0.043-3.199 0.196 1.268 0.983 2.333 2.175 3.199-0.756 0.55-1.458 0.439-2.132 0zm2.557 0.289c5.221 3.338 16.807 3.384 22.26 0.42l1.397 3.291c-0.083 0.149-0.169 0.298-0.258 0.446-3.162 5.241-9.094 8.557-11.292 9.653-0.536 0.253-1.158 0.253-1.695 0-2.197-1.096-8.129-4.412-11.291-9.653-0.089-0.148-0.175-0.297-0.258-0.446l1.137-3.711zm23.368-0.289c1.01-0.769 1.66-1.691 1.807-2.762 0.089 0.881 0.06 1.81-0.098 2.762-0.57 0.509-1.14 0.546-1.709 0z" fill="#ce0249"/>
    <path d="m3.069 14c-0.437-1.022-0.758-2.092-0.929-3.199 0.511-3.46 2.878-6.092 6.357-6.301 3.379-0.203 5.792 1.678 6.872 4.03 0.096 0.265 0.349 0.442 0.631 0.442 0.283 0 0.535-0.177 0.632-0.442 1.079-2.352 3.492-4.233 6.871-4.03 3.624 0.218 6.041 3.064 6.412 6.738-0.13 0.943-0.401 1.867-0.782 2.762l-2.133 3.52c-3.455 4.386-8.921 7.446-11 7.48-2.338 0.038-7.892-3.16-11.26-8.009l-1.671-2.991z" fill="#ff3c80"/>
    <path d="m3.603 18c-0.739-1.333-1.202-2.688-1.42-4h0.886c1.546 1.194 2.417 2.529 2.421 4h-1.887zm24.794 0h-1.787c-0.55-1.657 0.122-3.06 2.523-4h0.684c-0.218 1.312-0.681 2.667-1.42 4z" fill="#d69000"/>
    <path d="m3.069 14h26.064c-0.606 1.421-1.49 2.768-2.523 4h-21.12c-0.967-1.22-1.807-2.563-2.421-4z" fill="#ffb113"/>
    <g id="bow">
        <path d="m16.307 21.615 1.193 2.385-2.749-0.5-1.251 2.5-2.5-5c0.592 0 1.165-1.175 1.652-1.496l2.524 0.902c0.368 0.131 0.75 1.2 1.131 1.209zm-6.307-0.615-2.5 5-1.251-2.5-2.749 0.5 1.193-2.385c0.381-9e-3 0.763-1.078 1.131-1.209l2.524-0.902c0.487 0.321 1.06 1.496 1.652 1.496z" fill="#ffac18"/>
        <path d="m4.693 21.615 2.807-5.615h6l2.807 5.615c-0.381-9e-3 -0.763-0.078-1.131-0.209l-2.524-0.902c-0.487 0.321-1.06 0.496-1.652 0.496l-0.5-1-0.5 1c-0.592 0-1.165-0.175-1.652-0.496l-2.524 0.902c-0.368 0.131-0.75 0.2-1.131 0.209z" fill="#cb7500"/>
        <path d="m2 18v-4.216c0-0.939 0.512-1.802 1.336-2.252s1.828-0.414 2.617 0.094l3.817 2.453c0.143 0.092 0.23 0.251 0.23 0.421v2.5c0 0.091-0.024 0.176-0.067 0.25 0.043 0.074 0.067 0.16 0.067 0.25v1c0 0.211-0.133 0.4-0.332 0.471l-4.18 1.493c-0.799 0.285-1.688 0.164-2.381-0.325-0.694-0.489-1.107-1.284-1.107-2.133v-6e-3zm9.067-0.75c-0.043-0.074-0.067-0.159-0.067-0.25v-2.5c0-0.17 0.087-0.329 0.23-0.421l3.817-2.453c0.789-0.508 1.793-0.544 2.617-0.094s1.336 1.313 1.336 2.252v4.216 6e-3c0 0.849-0.413 1.644-1.107 2.133-0.693 0.489-1.582 0.61-2.381 0.325l-4.18-1.493c-0.199-0.071-0.332-0.26-0.332-0.471v-1c0-0.09 0.024-0.176 0.067-0.25zm6.25 2.072c0.311-0.219-1.468 0.2-1.468 0.2 0.493 0.176 1.04 0.102 1.468-0.2z" fill="#ffd64f"/>
        <path d="m9 17.852-3.849-1.374c-0.493-0.176-1.04-0.102-1.468 0.2s-0.683 0.792-0.683 1.316v0.012c0 0.524 0.255 1.014 0.683 1.316s0.975 0.376 1.468 0.2l3.849-1.374v-0.296zm3 0v0.296l3.849 1.374c0.493 0.176 1.04 0.102 1.468-0.2s0.683-0.792 0.683-1.316v-0.012c0-0.524-0.255-1.014-0.683-1.316s-0.975-0.376-1.468-0.2l-3.849 1.374z" fill="#ae6400"/>
        <path d="m13 14c0-0.53-0.211-1.039-0.586-1.414s-0.884-0.586-1.414-0.586h-1c-0.53 0-1.039 0.211-1.414 0.586s-0.586 0.884-0.586 1.414v4c0 0.53 0.211 1.039 0.586 1.414s0.884 0.586 1.414 0.586h1c0.53 0 1.039-0.211 1.414-0.586s0.586-0.884 0.586-1.414v-4z" fill="#ffaa13"/>
    </g>
</svg>
