<?xml version="1.0" encoding="UTF-8"?>
<!DOCTYPE svg  PUBLIC '-//W3C//DTD SVG 1.1//EN'  'http://www.w3.org/Graphics/SVG/1.1/DTD/svg11.dtd'>
<svg clip-rule="evenodd" fill-rule="evenodd" stroke-linecap="round" stroke-linejoin="round" stroke-miterlimit="1.5" version="1.1" viewBox="0 0 32 32" xml:space="preserve" xmlns="http://www.w3.org/2000/svg">
    <rect id="sparkling_heart" width="32" height="32" fill="none"/>
    <clipPath id="_clip1">
        <rect width="32" height="32"/>
    </clipPath>
    <g clip-path="url(#_clip1)">
        <path d="m7.746 4.585c0.244-0.041 0.495-0.07 0.751-0.085 3.379-0.203 5.792 1.678 6.872 4.03 0.096 0.265 0.349 0.442 0.631 0.442 0.283 0 0.535-0.177 0.632-0.442 1.079-2.352 3.492-4.233 6.871-4.03 4.791 0.288 7.472 5.169 6.106 10.484l0.568 0.155c0.162 0.044 0.275 0.192 0.275 0.361s-0.113 0.317-0.275 0.361l-0.917 0.25c-0.283 0.78-0.655 1.562-1.121 2.335-3.158 5.234-9.077 8.547-11.282 9.648-0.539 0.254-1.164 0.253-1.703-3e-3 -0.803-0.392-2.095-1.084-3.568-2.055l-1.312 0.292c-0.472 0.105-0.841 0.474-0.946 0.946l-0.463 2.083c-0.038 0.171-0.19 0.293-0.365 0.293s-0.327-0.122-0.365-0.293l-0.463-2.083c-0.105-0.472-0.474-0.841-0.946-0.946l-2.083-0.463c-0.171-0.038-0.293-0.19-0.293-0.365s0.122-0.327 0.293-0.365l2.083-0.463c0.472-0.105 0.841-0.474 0.946-0.946l0.133-0.601c-1.465-1.328-2.865-2.891-3.944-4.679-2.418-4.008-2.292-8.281-0.454-11.027l-1.109-0.309c-0.162-0.045-0.274-0.192-0.274-0.36s0.112-0.315 0.274-0.36l2.523-0.701c0.421-0.117 0.751-0.447 0.868-0.868l0.701-2.523c0.045-0.162 0.192-0.274 0.36-0.274s0.315 0.112 0.36 0.274l0.636 2.287z" fill="none" stroke="#000" stroke-width="4px"/>
        <path d="m2.14 10.801c1.255 8.123 26.752 7.902 27.775 0.437 0.225 2.231-0.304 4.768-1.776 7.208-3.162 5.241-9.094 8.557-11.292 9.653-0.536 0.253-1.158 0.253-1.695 0-2.197-1.096-8.129-4.412-11.291-9.653-1.568-2.6-2.067-5.311-1.721-7.645z" fill="#ce0249"/>
        <path d="m29.915 11.238c-1.023 7.465-10.939 13.713-13.915 13.762-3.232 0.053-12.605-6.076-13.86-14.199 0.511-3.46 2.878-6.092 6.357-6.301 3.379-0.203 5.792 1.678 6.872 4.03 0.096 0.265 0.349 0.442 0.631 0.442 0.283 0 0.535-0.177 0.632-0.442 1.079-2.352 3.492-4.233 6.871-4.03 3.624 0.218 6.041 3.064 6.412 6.738z" fill="#ff3c80"/>
        <path d="m8.865 21.643c-0.038-0.171-0.19-0.293-0.365-0.293s-0.327 0.122-0.365 0.293c-0.158 0.712-0.336 1.511-0.463 2.083-0.105 0.472-0.474 0.841-0.946 0.946-0.572 0.127-1.371 0.305-2.083 0.463-0.171 0.038-0.293 0.19-0.293 0.365s0.122 0.327 0.293 0.365c0.712 0.158 1.511 0.336 2.083 0.463 0.472 0.105 0.841 0.474 0.946 0.946 0.127 0.572 0.305 1.371 0.463 2.083 0.038 0.171 0.19 0.293 0.365 0.293s0.327-0.122 0.365-0.293c0.158-0.712 0.336-1.511 0.463-2.083 0.105-0.472 0.474-0.841 0.946-0.946 0.572-0.127 1.371-0.305 2.083-0.463 0.171-0.038 0.293-0.19 0.293-0.365s-0.122-0.327-0.293-0.365c-0.712-0.158-1.511-0.336-2.083-0.463-0.472-0.105-0.841-0.474-0.946-0.946-0.127-0.572-0.305-1.371-0.463-2.083z" fill="#fb4"/>
        <path d="m24.861 9.823c-0.044-0.162-0.192-0.275-0.361-0.275s-0.317 0.113-0.361 0.275c-0.3 1.099-0.714 2.619-0.952 3.49-0.116 0.426-0.448 0.758-0.874 0.874-0.871 0.238-2.391 0.652-3.49 0.952-0.162 0.044-0.275 0.192-0.275 0.361s0.113 0.317 0.275 0.361c1.099 0.3 2.619 0.714 3.49 0.952 0.426 0.116 0.758 0.448 0.874 0.874 0.238 0.871 0.652 2.391 0.952 3.49 0.044 0.162 0.192 0.275 0.361 0.275s0.317-0.113 0.361-0.275c0.3-1.099 0.714-2.619 0.952-3.49 0.116-0.426 0.448-0.758 0.874-0.874 0.871-0.238 2.391-0.652 3.49-0.952 0.162-0.044 0.275-0.192 0.275-0.361s-0.113-0.317-0.275-0.361c-1.099-0.3-2.619-0.714-3.49-0.952-0.426-0.116-0.758-0.448-0.874-0.874-0.238-0.871-0.652-2.391-0.952-3.49z" fill="#ffe962"/>
        <path d="m7.11 2.298c-0.045-0.162-0.192-0.274-0.36-0.274s-0.315 0.112-0.36 0.274c-0.229 0.824-0.516 1.857-0.701 2.523-0.117 0.421-0.447 0.751-0.868 0.868-0.666 0.185-1.699 0.472-2.523 0.701-0.162 0.045-0.274 0.192-0.274 0.36s0.112 0.315 0.274 0.36c0.824 0.229 1.857 0.516 2.523 0.701 0.421 0.117 0.751 0.447 0.868 0.868 0.185 0.666 0.472 1.699 0.701 2.523 0.045 0.162 0.192 0.274 0.36 0.274s0.315-0.112 0.36-0.274c0.229-0.824 0.516-1.857 0.701-2.523 0.117-0.421 0.447-0.751 0.868-0.868 0.666-0.185 1.699-0.472 2.523-0.701 0.162-0.045 0.274-0.192 0.274-0.36s-0.112-0.315-0.274-0.36c-0.824-0.229-1.857-0.516-2.523-0.701-0.421-0.117-0.751-0.447-0.868-0.868-0.185-0.666-0.472-1.699-0.701-2.523z" fill="#ffdb4c"/>
    </g>
</svg>
