<?xml version="1.0" encoding="UTF-8"?>
<!DOCTYPE svg  PUBLIC '-//W3C//DTD SVG 1.1//EN'  'http://www.w3.org/Graphics/SVG/1.1/DTD/svg11.dtd'>
<svg clip-rule="evenodd" fill-rule="evenodd" stroke-linejoin="round" stroke-miterlimit="1.5" version="1.1" viewBox="0 0 32 32" xml:space="preserve" xmlns="http://www.w3.org/2000/svg">
    <rect id="two_hearts" width="32" height="32" fill="none"/>
    <clipPath id="_clip1">
        <rect width="32" height="32"/>
    </clipPath>
    <g clip-path="url(#_clip1)">
        <path d="m22.533 14.904c-1.108-0.552-4.098-2.224-5.692-4.866-1.964-3.254-0.6-6.854 2.337-7.03 1.703-0.103 2.919 0.845 3.464 2.031 0.049 0.134 0.176 0.223 0.318 0.223 0.143 0 0.27-0.089 0.319-0.223 0.544-1.186 1.76-2.134 3.463-2.031 2.938 0.176 4.301 3.776 2.338 7.03-1.594 2.642-4.585 4.314-5.693 4.867-0.27 0.127-0.584 0.127-0.854-1e-3zm-11.716 14.968c-1.477-0.736-5.464-2.965-7.59-6.488-2.618-4.339-0.8-9.138 3.117-9.374 2.27-0.137 3.892 1.128 4.618 2.709 0.065 0.178 0.235 0.297 0.425 0.297s0.359-0.119 0.424-0.297c0.726-1.581 2.348-2.846 4.618-2.709 3.917 0.236 5.735 5.035 3.117 9.374-2.125 3.523-6.113 5.752-7.59 6.489-0.361 0.17-0.778 0.169-1.139-1e-3z" fill="none" stroke="#000" stroke-width="4px"/>
        <path d="m29.975 6.404c0.113 1.125-0.153 2.404-0.895 3.634-1.594 2.642-4.585 4.314-5.693 4.867-0.27 0.127-0.584 0.127-0.854-1e-3 -1.108-0.552-4.098-2.224-5.692-4.866-0.791-1.311-1.042-2.677-0.868-3.854 0.633 4.095 13.486 3.984 14.002 0.22zm-9.235 12.135c0.151 1.5-0.205 3.205-1.194 4.845-2.125 3.523-6.113 5.752-7.59 6.489-0.361 0.17-0.778 0.169-1.139-1e-3 -1.477-0.736-5.464-2.965-7.59-6.488-1.054-1.748-1.389-3.57-1.157-5.138 0.844 5.459 17.982 5.311 18.67 0.293z" fill="#ce0249"/>
        <path d="m15.973 6.184c0.258-1.744 1.451-3.071 3.205-3.176 1.703-0.103 2.919 0.845 3.464 2.031 0.049 0.134 0.176 0.223 0.318 0.223 0.143 0 0.27-0.089 0.319-0.223 0.544-1.186 1.76-2.134 3.463-2.031 1.828 0.11 3.046 1.544 3.233 3.396-0.516 3.764-5.514 6.914-7.015 6.938-1.629 0.027-6.354-3.063-6.987-7.158zm-13.903 12.062c0.344-2.327 1.935-4.095 4.274-4.236 2.27-0.137 3.892 1.128 4.618 2.709 0.065 0.178 0.235 0.297 0.425 0.297s0.359-0.119 0.424-0.297c0.726-1.581 2.348-2.846 4.618-2.709 2.437 0.147 4.061 2.06 4.311 4.529-0.688 5.018-7.353 9.218-9.353 9.251-2.173 0.035-8.473-4.085-9.317-9.544z" fill="#ff3c80"/>
    </g>
</svg>
