<?xml version="1.0" encoding="UTF-8"?>
<!DOCTYPE svg  PUBLIC '-//W3C//DTD SVG 1.1//EN'  'http://www.w3.org/Graphics/SVG/1.1/DTD/svg11.dtd'>
<svg clip-rule="evenodd" fill-rule="evenodd" stroke-linejoin="round" stroke-miterlimit="2" version="1.1" viewBox="0 0 32 32" xml:space="preserve" xmlns="http://www.w3.org/2000/svg">
    <rect id="androgyne_symbol" width="32" height="32" fill="none"/>
    <clipPath id="_clip1">
        <rect width="32" height="32"/>
    </clipPath>
    <g clip-path="url(#_clip1)">
        <g id="outline">
            <path d="m21 11.121v4.379h-0.672c1.627 1.282 2.672 3.27 2.672 5.5v2c0 3.863-3.137 7-7 7s-7-3.137-7-7v-2c0-2.23 1.045-4.218 2.672-5.5h-0.672v-4.379l-1.061-1.06v-2l6.061-6.061 6.061 6.061v2l-1.061 1.06zm-1.126 10.879c-0.445-1.724-2.012-3-3.874-3s-3.429 1.276-3.874 3c0.445 1.724 2.012 3 3.874 3s3.429-1.276 3.874-3z" fill="none" stroke="#000" stroke-width="4px"/>
            <rect x="11" y="17" width="10" height="8"/>
            <rect x="12" y="7" width="8" height="8"/>
        </g>
        <g id="emoji">
            <path d="m9.29 21c0.722-2.421 2.719-4.294 5.21-4.839v-0.661h-3.5v-2l3.5-1v-2.757l-2.439 2.439-2.122-2.121v-2l6.061-4.061 6.061 4.061v2l-2.122 2.121-2.439-2.439v2.757l3.5 1v2h-3.5v0.661c2.491 0.545 4.488 2.418 5.21 4.839h0.29v2c0 3.863-3.137 7-7 7s-7-3.137-7-7v-2h0.29zm6.71-2c2.208 0 4 1.792 4 4s-1.792 4-4 4-4-1.792-4-4 1.792-4 4-4z" fill="#747474"/>
            <circle cx="16" cy="21" r="5.5" fill="none" stroke="#fff" stroke-linecap="round" stroke-width="3px"/>
            <path d="m16 16v-11" fill="none" stroke="#fff" stroke-width="3px"/>
            <path d="m21 12h-10" fill="none" stroke="#fff" stroke-width="3px"/>
            <path d="m22.061 8.061-2.122 2.121-3.939-3.939-3.939 3.939-2.122-2.121 6.061-6.061 6.061 6.061z" fill="#fff"/>
        </g>
    </g>
</svg>
