<?xml version="1.0" encoding="UTF-8"?>
<!DOCTYPE svg  PUBLIC '-//W3C//DTD SVG 1.1//EN'  'http://www.w3.org/Graphics/SVG/1.1/DTD/svg11.dtd'>
<svg clip-rule="evenodd" fill-rule="evenodd" stroke-linejoin="round" stroke-miterlimit="2" version="1.1" viewBox="0 0 32 32" xml:space="preserve" xmlns="http://www.w3.org/2000/svg">
    <rect id="bisexual_triangles" width="32" height="32" fill="none"/>
    <clipPath id="_clip1">
        <rect width="32" height="32"/>
    </clipPath>
    <g clip-path="url(#_clip1)">
        <g id="outline" fill="none" stroke="#000" stroke-width="4px">
            <path d="m20.5 29 9.5-16v-2h-19v2l9.5 16z"/>
            <path d="m11.5 24 9.5-16v-2h-19v2l9.5 16z"/>
        </g>
        <g id="emoji">
            <path d="m20.5 29 9.5-16v-2l-2 1h-15l-2-1v2l9.5 16z" fill="#221ab1"/>
            <path d="m19 7 2-1v2l-5.297 8.921h-1.187v2l-3.016 5.079-9.5-16v-2l2 1h15z" fill="#c52eae"/>
            <path d="m20.5 27 9.5-16h-19l9.5 16z" fill="#342ae7"/>
            <path d="m11.5 22 9.5-16h-19l9.5 16z" fill="#e764d3"/>
            <path d="m14.516 16.921-3.516-5.921h7.031l-3.515 5.921z" fill="#9a2dd8"/>
        </g>
    </g>
</svg>
