<?xml version="1.0" encoding="UTF-8"?>
<!DOCTYPE svg  PUBLIC '-//W3C//DTD SVG 1.1//EN'  'http://www.w3.org/Graphics/SVG/1.1/DTD/svg11.dtd'>
<svg clip-rule="evenodd" fill-rule="evenodd" stroke-linejoin="round" stroke-miterlimit="2" version="1.1" viewBox="0 0 32 32" xml:space="preserve" xmlns="http://www.w3.org/2000/svg">
    <rect id="labrys_symbol" width="32" height="32" fill="none"/>
    <clipPath id="_clip1">
        <rect width="32" height="32"/>
    </clipPath>
    <g clip-path="url(#_clip1)">
        <g id="outline">
            <path d="m32 8c0-4.418-3.582-8-8-8h-16c-4.418 0-8 3.582-8 8v16c0 4.418 3.582 8 8 8h16c4.418 0 8-3.582 8-8v-16z"/>
        </g>
        <g id="emoji">
            <path d="m30 8c0-1.591-0.632-3.117-1.757-4.243-1.126-1.125-2.652-1.757-4.243-1.757h-16c-1.591 0-3.117 0.632-4.243 1.757-1.125 1.126-1.757 2.652-1.757 4.243v16c0 1.591 0.632 3.117 1.757 4.243 1.126 1.125 2.652 1.757 4.243 1.757h16c1.591 0 3.117-0.632 4.243-1.757 1.125-1.126 1.757-2.652 1.757-4.243v-16z" fill="#666"/>
            <path d="m18 9.538c0-0.265-0.105-0.519-0.293-0.707-0.187-0.187-0.442-0.293-0.707-0.293h-2c-0.265 0-0.52 0.106-0.707 0.293-0.188 0.188-0.293 0.442-0.293 0.707v16.462c0 0.265 0.105 0.52 0.293 0.707 0.187 0.188 0.442 0.293 0.707 0.293h2c0.265 0 0.52-0.105 0.707-0.293 0.188-0.187 0.293-0.442 0.293-0.707v-16.462z" fill="#fff"/>
            <path d="m7.45 7s-2.45 2.16-2.45 6.5 2.45 6.5 2.45 6.5 1.615-4 3.544-4h2.006v-5h-2.006c-1.926 0-3.544-4-3.544-4z" fill="#fff"/>
            <path d="m24.55 7s2.45 2.16 2.45 6.5-2.45 6.5-2.45 6.5-1.615-4-3.544-4h-2.006v-5h2.006c1.926 0 3.544-4 3.544-4z" fill="#fff"/>
        </g>
    </g>
</svg>
