<?xml version="1.0" encoding="UTF-8"?>
<!DOCTYPE svg  PUBLIC '-//W3C//DTD SVG 1.1//EN'  'http://www.w3.org/Graphics/SVG/1.1/DTD/svg11.dtd'>
<svg clip-rule="evenodd" fill-rule="evenodd" stroke-linejoin="round" stroke-miterlimit="2" version="1.1" viewBox="0 0 32 32" xml:space="preserve" xmlns="http://www.w3.org/2000/svg">
    <rect id="pride_100" width="32" height="32" fill="none"/>
    <clipPath id="_clip1">
        <rect width="32" height="32"/>
    </clipPath>
    <g clip-path="url(#_clip1)">
        <g id="outline">
            <path d="m20.021 3.553c1.42-1.898 3.835-2.959 6.286-2.551l0.041 8e-3 0.021 4e-3h2e-3c1.79 0.297 3.372 1.333 4.365 2.847 0.994 1.515 1.311 3.38 0.871 5.139v2e-3c-0.614 2.456-1.457 5.831-2.039 8.16l-2e-3 2e-3c-0.335 1.339-1.082 2.487-2.075 3.337 0.652 0.638 1.059 1.525 1.059 2.499 0 1.92-1.58 3.5-3.501 3.5h-0.049-0.486c0.024 0.163 0.036 0.33 0.036 0.5 0 1.92-1.58 3.5-3.501 3.5h-0.049-9.025c-0.269 0-0.536 0.044-0.791 0.129l-4.077 1.359c-0.357 0.119-0.731 0.18-1.107 0.18-1.921 0-3.501-1.58-3.501-3.501 0-1.137 0.553-2.182 1.44-2.829-0.233-0.38-0.395-0.807-0.468-1.262-1.802-0.133-3.243-1.657-3.243-3.49 0-0.316 0.043-0.631 0.127-0.936 0 0 1.756-7.019 3.006-12.021-1.167-0.598-1.903-1.804-1.903-3.115 0-1.519 0.988-2.872 2.435-3.334 0 0 0.805-0.269 1.58-0.528 0.744-0.248 1.535-0.28 2.281-0.119 0.746 0.162 1.449 0.518 2.023 1.051 0.197 0.182 0.374 0.381 0.531 0.593 1.438-1.335 3.456-2.015 5.499-1.675l0.041 8e-3 0.021 4e-3h2e-3c1.666 0.277 3.151 1.192 4.15 2.539z"/>
        </g>
        <g id="emoji">
            <path d="m22.512 26.835c6e-3 0.054 9e-3 0.109 9e-3 0.165 0 0.823-0.677 1.5-1.5 1.5h-0.021-9.025c-0.484 0-0.965 0.077-1.424 0.23-1.446 0.483-4.076 1.36-4.076 1.36-0.161 0.057-0.33 0.085-0.5 0.085-0.823 0-1.5-0.677-1.5-1.5 0-0.653 0.427-1.235 1.05-1.431l1.227-0.409 2.248-0.335h13l0.512 0.335z" fill="#7706af"/>
            <path d="m22.512 26.835h-15.76c0.88-0.293 2.048-0.683 2.85-0.95 0.765-0.255 1.566-0.385 2.373-0.385h9.025 0.021c0.767 0 1.408 0.588 1.491 1.335zm3.95-3.418c-0.183 0.623-0.762 1.083-1.441 1.083h-0.021-14.025c-0.484 0-0.965 0.077-1.424 0.23-0.882 0.295-2.076 0.694-2.076 0.694-0.153 0.051-0.314 0.077-0.475 0.077-0.823 0-1.501-0.678-1.501-1.501 0-0.205 0.042-0.402 0.119-0.583l0.882-0.417h19.5l0.462 0.417z" fill="#2c3ee5"/>
            <path d="m26.462 23.417h-20.844c0.164-0.389 0.49-0.702 0.907-0.841 0 0 1.196-0.397 2.077-0.691 0.765-0.255 1.566-0.385 2.373-0.385h14.025 0.021c0.823 0 1.5 0.677 1.5 1.5 0 0.144-0.02 0.284-0.059 0.417zm-20.959-3.246-0.298 1.192c-0.153 0.682-0.764 1.171-1.463 1.171-0.823 0-1.501-0.677-1.501-1.5 0-0.134 0.018-0.268 0.054-0.397l0.116-0.466 0.589-0.171h2l0.503 0.171z" fill="#158f25"/>
            <path d="m6.763 15.132-0.362 1.448-0.401 0.42h-2.356l-0.335-0.42 0.335-1.342 0.519-2.076 0.337-0.162h2.5l0.256 0.162-0.493 1.97zm4.993-1.97c-0.18 0.721-0.354 1.416-0.512 2.049-0.102 0.408-0.029 0.837 0.201 1.187 0.043 0.065 0.09 0.126 0.14 0.182l-0.585 0.42h-2l-0.688-0.42c-0.157-0.683-0.153-1.401 0.02-2.096v-2e-3c0.104-0.417 0.215-0.86 0.33-1.32l0.338-0.162h2l0.756 0.162zm6.25 0c-0.306 1.223-0.604 2.413-0.855 3.418l-0.651 0.42h-2l-0.609-0.42c0.151-0.174 0.265-0.388 0.326-0.631 0.206-0.827 0.446-1.785 0.696-2.787l0.587-0.162h2l0.506 0.162zm4.25 0c-0.18 0.721-0.354 1.416-0.512 2.049-0.102 0.408-0.029 0.837 0.201 1.187 0.043 0.065 0.09 0.126 0.14 0.182l-0.585 0.42h-2l-0.688-0.42c-0.157-0.683-0.153-1.401 0.02-2.096v-2e-3c0.104-0.417 0.215-0.86 0.33-1.32l0.338-0.162h2l0.756 0.162zm6.25 0c-0.306 1.223-0.604 2.413-0.855 3.418l-0.651 0.42h-2l-0.609-0.42c0.151-0.174 0.265-0.388 0.326-0.631 0.206-0.827 0.446-1.785 0.696-2.787l0.587-0.162h2l0.506 0.162z" fill="#fb8721"/>
            <path d="m3.309 16.58h3.092l-0.898 3.591h-3.092l0.898-3.591zm13.842 0-0.024 0.096v2e-3c-0.567 2.261-2.804 3.731-5.106 3.347l-0.017-3e-3 -0.013-4e-3h-3e-3 3e-3c-2e-3 0-0.026-3e-3 -0.034-4e-3 -1.238-0.206-2.334-0.922-3.021-1.971-0.296-0.451-0.506-0.947-0.624-1.463h3.273c0.226 0.251 0.531 0.419 0.866 0.475l0.018 2e-3 0.014 3e-3c0.011 2e-3 0.032 6e-3 0.066 0.012l-0.035-8e-3c0.538 0.09 1.047-0.104 1.377-0.484h3.26zm10.5 0-0.024 0.096v2e-3c-0.567 2.261-2.804 3.731-5.106 3.347l-0.017-3e-3 -0.013-4e-3h-3e-3 3e-3c-2e-3 0-0.026-3e-3 -0.034-4e-3 -1.238-0.206-2.334-0.922-3.021-1.971-0.296-0.451-0.506-0.947-0.624-1.463h3.273c0.226 0.251 0.531 0.419 0.866 0.475l0.018 2e-3 0.014 3e-3c0.011 2e-3 0.032 6e-3 0.066 0.012l-0.035-8e-3c0.538 0.09 1.047-0.104 1.377-0.484h3.26zm-4.668 0.48c-0.01-2e-3 -9e-3 -2e-3 3e-3 1e-3l-3e-3 -1e-3zm-10.5 0c-0.01-2e-3 -9e-3 -2e-3 3e-3 1e-3l-3e-3 -1e-3z" fill="#f1e100"/>
            <path d="m5.807 6.584 0.074-0.297c-0.092 0.031-0.406 0.137-0.406 0.137-0.153 0.051-0.314 0.077-0.475 0.077-0.823 0-1.501-0.678-1.501-1.501 0-0.644 0.415-1.22 1.026-1.424 0 0 0.805-0.266 1.58-0.525 0.401-0.134 0.824-0.153 1.225-0.067 0.401 0.087 0.779 0.28 1.088 0.567 0.617 0.572 0.88 1.444 0.674 2.265l-0.192 0.768-0.9 0.416h-2l-0.193-0.416zm4.501 0 0.065-0.26v-2e-3c0.567-2.261 2.804-3.731 5.106-3.347l0.017 4e-3 0.014 3e-3h2e-3 -2e-3c2e-3 0 0.025 3e-3 0.031 4e-3h2e-3c1.238 0.206 2.334 0.922 3.021 1.971 0.328 0.499 0.549 1.053 0.658 1.627l-0.222 0.416h-2l-0.957-0.416c-0.23-0.341-0.59-0.572-0.994-0.639l-0.018-2e-3 -0.014-3e-3c-0.011-2e-3 -0.032-6e-3 -0.066-0.012l0.035 7e-3c-0.611-0.101-1.185 0.163-1.501 0.649l-0.485 0.416h-2l-0.692-0.416zm10.5 0 0.065-0.26v-2e-3c0.567-2.261 2.804-3.731 5.106-3.347l0.017 4e-3 0.014 3e-3h2e-3 -2e-3c2e-3 0 0.025 3e-3 0.031 4e-3h2e-3c1.238 0.206 2.334 0.922 3.021 1.971 0.328 0.499 0.549 1.053 0.658 1.627l-0.722 0.416h-2l-0.457-0.416c-0.23-0.341-0.59-0.572-0.994-0.639l-0.018-2e-3 -0.014-3e-3c-0.011-2e-3 -0.032-6e-3 -0.066-0.012l0.035 7e-3c-0.611-0.101-1.185 0.163-1.501 0.649l-0.485 0.416h-2.5l-0.192-0.416zm4.709-0.644c0.01 2e-3 9e-3 2e-3 -3e-3 -1e-3l3e-3 1e-3zm-10.5 0c0.01 2e-3 9e-3 2e-3 -3e-3 -1e-3l3e-3 1e-3z" fill="#333"/>
            <path d="m5.807 6.584h3.093l-0.79 3.16-0.61 0.256h-2l-0.483-0.256 0.79-3.16zm13.415 0c0.121 0.634 0.105 1.293-0.054 1.932v2e-3l-0.307 1.226-0.361 0.256h-2l-0.733-0.256 0.489-1.955c0.102-0.408 0.029-0.837-0.201-1.187l-0.012-0.018h3.179zm-5.737 0c-0.09 0.139-0.159 0.295-0.202 0.467l-0.673 2.693-0.61 0.256h-2l-0.482-0.256c0.281-1.124 0.554-2.217 0.79-3.16h3.177zm16.237 0c0.121 0.634 0.105 1.293-0.054 1.932v2e-3l-0.307 1.226-0.361 0.256h-2l-0.733-0.256 0.489-1.955c0.102-0.408 0.029-0.837-0.201-1.187l-0.012-0.018h3.179zm-5.737 0c-0.09 0.139-0.159 0.295-0.202 0.467l-0.673 2.693-0.61 0.256h-2l-0.482-0.256c0.281-1.124 0.554-2.217 0.79-3.16h3.177z" fill="#88502b"/>
            <path d="m8.051 9.981-0.795 3.181h-3.093l0.658-2.635 0.196-0.783h3.093l-0.059 0.237zm4.312 0.754-0.607 2.427h-3.094c0.272-1.088 0.568-2.269 0.856-3.418h3.092l-0.247 0.991zm6.246 0.018-0.603 2.409h-3.093c0.281-1.126 0.576-2.307 0.854-3.418h3.094l-0.252 1.009zm4.254-0.018-0.607 2.427h-3.094c0.272-1.088 0.568-2.269 0.856-3.418h3.092l-0.247 0.991zm6.246 0.018-0.603 2.409h-3.093c0.281-1.126 0.576-2.307 0.854-3.418h3.094l-0.252 1.009z" fill="#df0000"/>
        </g>
    </g>
</svg>
