<?xml version="1.0" encoding="UTF-8"?>
<!DOCTYPE svg  PUBLIC '-//W3C//DTD SVG 1.1//EN'  'http://www.w3.org/Graphics/SVG/1.1/DTD/svg11.dtd'>
<svg clip-rule="evenodd" fill-rule="evenodd" stroke-linejoin="round" stroke-miterlimit="2" version="1.1" viewBox="0 0 32 32" xml:space="preserve" xmlns="http://www.w3.org/2000/svg">
    <rect id="two_female_symbols" width="32" height="32" fill="none"/>
    <clipPath id="_clip1">
        <rect width="32" height="32"/>
    </clipPath>
    <g clip-path="url(#_clip1)">
        <g id="outline">
            <path d="m24.099 1e-3c0.297 5e-3 0.593 0.023 0.887 0.06 0.616 0.076 1.222 0.225 1.803 0.441 1.105 0.411 2.115 1.068 2.938 1.912 0.822 0.843 1.453 1.867 1.837 2.981 0.278 0.807 0.42 1.652 0.435 2.506 0.034 5.399 0.034 10.799 0 16.198-0.016 0.886-0.168 1.763-0.467 2.598-0.454 1.266-1.229 2.409-2.236 3.299-0.784 0.692-1.702 1.228-2.691 1.568-0.807 0.278-1.652 0.42-2.506 0.435-5.399 0.035-10.799 0.035-16.198 0-0.854-0.015-1.699-0.157-2.506-0.435-1.145-0.395-2.196-1.051-3.052-1.907-0.833-0.833-1.477-1.85-1.875-2.96-0.299-0.835-0.451-1.712-0.467-2.598-0.034-5.399-0.034-10.799 0-16.198 0.015-0.854 0.157-1.699 0.435-2.506 0.362-1.051 0.944-2.023 1.701-2.838 0.847-0.912 1.907-1.621 3.074-2.055 0.612-0.228 1.252-0.38 1.9-0.453 0.263-0.029 0.526-0.043 0.79-0.048 5.399-0.032 10.799-0.032 16.198 0z" fill-rule="nonzero"/>
        </g>
        <g id="emoji">
            <path d="m30 8c0-1.591-0.632-3.117-1.757-4.243-1.126-1.125-2.652-1.757-4.243-1.757h-16c-1.591 0-3.117 0.632-4.243 1.757-1.125 1.126-1.757 2.652-1.757 4.243v16c0 1.591 0.632 3.117 1.757 4.243 1.126 1.125 2.652 1.757 4.243 1.757h16c1.591 0 3.117-0.632 4.243-1.757 1.125-1.126 1.757-2.652 1.757-4.243v-16z" fill="#ff4586"/>
            <path d="m16 7.257c0.282-0.197 0.579-0.374 0.889-0.528 0.591-0.294 1.224-0.503 1.873-0.62 0.321-0.057 0.643-0.089 0.968-0.104 0.12-4e-3 0.24-5e-3 0.36-4e-3 0.297 5e-3 0.593 0.026 0.888 0.067 0.684 0.096 1.354 0.294 1.98 0.587 1.377 0.643 2.526 1.739 3.236 3.083 0.321 0.608 0.551 1.263 0.681 1.938 0.139 0.728 0.162 1.479 0.069 2.214-0.091 0.715-0.294 1.415-0.599 2.068-0.357 0.764-0.853 1.461-1.456 2.05-0.624 0.609-1.361 1.101-2.165 1.441-0.551 0.234-1.132 0.394-1.724 0.479v2.072h2v2h-2v2h-2v-2h-2v-2h2v-2.072c-0.536-0.077-1.062-0.215-1.566-0.414-0.506-0.2-0.988-0.459-1.434-0.77-0.399 0.278-0.827 0.515-1.276 0.705-0.551 0.234-1.132 0.394-1.724 0.479v2.072h2v2h-2v2h-2v-2h-2v-2h2v-2.072c-0.536-0.077-1.062-0.215-1.566-0.414-0.813-0.321-1.562-0.795-2.202-1.39-0.596-0.555-1.094-1.213-1.465-1.938-0.327-0.638-0.555-1.327-0.673-2.035-0.121-0.731-0.125-1.482-0.013-2.215 0.104-0.683 0.31-1.349 0.61-1.971 0.673-1.395 1.811-2.547 3.198-3.236 0.591-0.294 1.224-0.503 1.873-0.62 0.321-0.057 0.643-0.089 0.968-0.104 0.12-4e-3 0.24-5e-3 0.36-4e-3 0.297 5e-3 0.593 0.026 0.887 0.067 0.685 0.096 1.355 0.294 1.981 0.587 0.365 0.17 0.713 0.372 1.042 0.602zm-1.498 1.414c-0.127-0.074-0.258-0.142-0.391-0.204-0.642-0.3-1.339-0.453-2.046-0.467h-0.13c-0.707 0.014-1.404 0.167-2.046 0.467-0.985 0.46-1.807 1.244-2.314 2.205-0.219 0.415-0.379 0.861-0.473 1.32-0.115 0.561-0.133 1.141-0.053 1.708 0.071 0.508 0.221 1.004 0.444 1.466 0.262 0.543 0.622 1.037 1.058 1.453 0.452 0.43 0.983 0.776 1.56 1.012 0.599 0.244 1.243 0.369 1.889 0.369s1.29-0.125 1.889-0.369c0.21-0.087 0.415-0.187 0.612-0.301-0.298-0.379-0.558-0.788-0.772-1.219-0.32-0.644-0.54-1.336-0.648-2.047-0.112-0.733-0.108-1.484 0.014-2.215 0.112-0.68 0.327-1.343 0.634-1.96 0.215-0.432 0.474-0.84 0.773-1.218zm2.997 8.659c0.197 0.114 0.402 0.214 0.612 0.301 0.599 0.244 1.243 0.369 1.889 0.369s1.29-0.125 1.889-0.369c0.577-0.236 1.108-0.582 1.56-1.012 0.436-0.416 0.796-0.91 1.058-1.453 0.223-0.462 0.373-0.958 0.444-1.466 0.08-0.567 0.062-1.147-0.053-1.708-0.094-0.459-0.254-0.905-0.473-1.32-0.507-0.961-1.329-1.745-2.314-2.205-0.642-0.3-1.339-0.453-2.046-0.467h-0.13c-0.707 0.014-1.404 0.167-2.046 0.467-0.133 0.062-0.264 0.13-0.391 0.204 0.281 0.355 0.528 0.738 0.735 1.142 0.301 0.587 0.518 1.216 0.642 1.863 0.139 0.728 0.162 1.479 0.069 2.214-0.091 0.715-0.294 1.415-0.599 2.068-0.228 0.488-0.513 0.949-0.846 1.372zm-1.499-7.328c-0.159 0.211-0.302 0.435-0.425 0.67-0.219 0.415-0.379 0.861-0.473 1.32-0.115 0.561-0.133 1.141-0.053 1.708 0.071 0.508 0.221 1.004 0.444 1.466 0.141 0.293 0.312 0.572 0.507 0.832 0.195-0.26 0.366-0.539 0.507-0.832 0.223-0.462 0.373-0.958 0.444-1.466 0.08-0.567 0.062-1.147-0.053-1.708-0.09-0.44-0.24-0.867-0.445-1.266-0.13-0.254-0.282-0.496-0.453-0.724z" fill="#fff"/>
        </g>
    </g>
</svg>
