<?xml version="1.0" encoding="UTF-8"?>
<!DOCTYPE svg  PUBLIC '-//W3C//DTD SVG 1.1//EN'  'http://www.w3.org/Graphics/SVG/1.1/DTD/svg11.dtd'>
<svg clip-rule="evenodd" fill-rule="evenodd" stroke-linejoin="round" stroke-miterlimit="1.4142" version="1.1" viewBox="0 0 32 32" xml:space="preserve" xmlns="http://www.w3.org/2000/svg">
<metadata>
<rdf:RDF xmlns:cc="http://web.resource.org/cc/" xmlns:dc="http://purl.org/dc/elements/1.1/" xmlns:rdf="http://www.w3.org/1999/02/22-rdf-syntax-ns#">

     <rdf:Description rdf:about="">
       <dc:title>Mutant Standard emoji 2023.12</dc:title>
     </rdf:Description>

    <cc:work rdf:about="">
        <cc:license rdf:resource="http://creativecommons.org/licenses/by-nc-sa/4.0/"/>
        <cc:attributionName>Caius Nocturne</cc:attributionName>
        <cc:attributionURL>http://mutant.tech/</cc:attributionURL>
    </cc:work>

</rdf:RDF>
</metadata>
<rect id="cool" width="32" height="32" fill="none"/><clipPath id="_clip1"><rect width="32" height="32"/></clipPath><g clip-path="url(#_clip1)"><g id="outline"><path d="m32 8c0-4.418-3.582-8-8-8h-16c-4.418 0-8 3.582-8 8v16c0 4.418 3.582 8 8 8h16c4.418 0 8-3.582 8-8v-16z"/></g><g id="emoji"><path d="m30 8c0-1.591-0.632-3.117-1.757-4.243-1.126-1.125-2.652-1.757-4.243-1.757h-16c-1.591 0-3.117 0.632-4.243 1.757-1.125 1.126-1.757 2.652-1.757 4.243v16c0 1.591 0.632 3.117 1.757 4.243 1.126 1.125 2.652 1.757 4.243 1.757h16c1.591 0 3.117-0.632 4.243-1.757 1.125-1.126 1.757-2.652 1.757-4.243v-16z" fill="#666"/><path d="m6.699 20.951c-0.83 0-1.487-0.235-1.972-0.706s-0.727-1.159-0.727-2.063v-4.35c0-0.914 0.256-1.606 0.769-2.077s1.189-0.706 2.028-0.706c0.802 0 1.45 0.233 1.944 0.699s0.742 1.175 0.742 2.126v0.294h-1.721v-0.28c0-0.438-0.091-0.762-0.272-0.972-0.182-0.21-0.427-0.315-0.735-0.315-0.363 0-0.627 0.126-0.79 0.378s-0.245 0.629-0.245 1.133v3.874c0 0.942 0.345 1.413 1.035 1.413 0.308 0 0.553-0.108 0.735-0.322 0.181-0.215 0.272-0.532 0.272-0.951v-0.252h1.707v0.266c0 0.932-0.259 1.634-0.777 2.105-0.517 0.471-1.182 0.706-1.993 0.706z" fill="#fff" fill-rule="nonzero"/><path d="m13.245 20.951c-0.83 0-1.487-0.235-1.972-0.706s-0.728-1.159-0.728-2.063v-4.35c0-0.914 0.257-1.606 0.77-2.077s1.188-0.706 2.028-0.706c0.811 0 1.461 0.235 1.951 0.706 0.489 0.471 0.734 1.163 0.734 2.077v4.35c0 0.895-0.259 1.58-0.776 2.056-0.518 0.475-1.187 0.713-2.007 0.713zm0.056-1.552c0.326 0 0.575-0.124 0.748-0.371 0.172-0.247 0.259-0.594 0.259-1.042v-3.874c0-0.494-0.084-0.87-0.252-1.126s-0.42-0.385-0.755-0.385c-0.364 0-0.627 0.126-0.791 0.378-0.163 0.252-0.244 0.629-0.244 1.133v3.874c0 0.942 0.345 1.413 1.035 1.413z" fill="#fff" fill-rule="nonzero"/><path d="m19.79 20.951c-0.83 0-1.487-0.235-1.972-0.706s-0.727-1.159-0.727-2.063v-4.35c0-0.914 0.256-1.606 0.769-2.077s1.189-0.706 2.028-0.706c0.811 0 1.462 0.235 1.951 0.706 0.49 0.471 0.734 1.163 0.734 2.077v4.35c0 0.895-0.258 1.58-0.776 2.056-0.517 0.475-1.186 0.713-2.007 0.713zm0.056-1.552c0.326 0 0.576-0.124 0.748-0.371 0.173-0.247 0.259-0.594 0.259-1.042v-3.874c0-0.494-0.084-0.87-0.252-1.126-0.167-0.256-0.419-0.385-0.755-0.385-0.363 0-0.627 0.126-0.79 0.378s-0.245 0.629-0.245 1.133v3.874c0 0.942 0.345 1.413 1.035 1.413z" fill="#fff" fill-rule="nonzero"/><path d="m23.692 11.189h1.721v8.112h2.587v1.538h-4.308v-9.65z" fill="#fff" fill-rule="nonzero"/></g></g></svg>
