<?xml version="1.0" encoding="UTF-8"?>
<svg clip-rule="evenodd" fill-rule="evenodd" stroke-linejoin="round" stroke-miterlimit="1.4142" viewBox="0 0 32 32" xmlns="http://www.w3.org/2000/svg">
 <clipPath id="a">
  <path d="m0 0h32v32h-32z" clip-rule="evenodd"/>
 </clipPath>
 <path d="m0 0h32v32h-32z" fill="none"/>
 <g clip-path="url(#a)">
  <path d="m32 8c0-4.418-3.582-8-8-8h-16c-4.418 0-8 3.582-8 8v16c0 4.418 3.582 8 8 8h16c4.418 0 8-3.582 8-8v-16z"/>
  <path d="m30 8c0-1.591-0.632-3.117-1.757-4.243-1.126-1.125-2.652-1.757-4.243-1.757h-16c-1.591 0-3.117 0.632-4.243 1.757-1.125 1.126-1.757 2.652-1.757 4.243v16c0 1.591 0.632 3.117 1.757 4.243 1.126 1.125 2.652 1.757 4.243 1.757h16c1.591 0 3.117-0.632 4.243-1.757 1.125-1.126 1.757-2.652 1.757-4.243v-16z" fill="#666"/>
  <g fill="#fff" fill-rule="nonzero">
   <path d="m5.95 12.291v2.79h2.536v1.759h-2.536v4.629h-1.95v-10.938h4.882v1.76z"/>
   <path d="m12.766 17.078h-.935v4.391h-1.95v-10.938h2.98c1.078 0 1.842.259 2.291.777s.674 1.347.674 2.489c0 .729-.101 1.336-.302 1.823-.2.486-.528.85-.982 1.093l1.632 4.756h-2.029zm-.935-1.744h1.014c.391 0 .661-.129.809-.388s.222-.642.222-1.149c0-.508-.072-.888-.214-1.142-.143-.253-.415-.38-.817-.38h-1.014z"/>
   <path d="m19.107 12.291v2.742h2.536v1.744h-2.536v2.948h2.948v1.744h-4.882v-10.938h4.882v1.76z"/>
   <path d="m25.052 12.291v2.742h2.536v1.744h-2.536v2.948h2.948v1.744h-4.882v-10.938h4.882v1.76z"/>
  </g>
 </g>
</svg>
