<?xml version="1.0" encoding="UTF-8"?>
<!DOCTYPE svg  PUBLIC '-//W3C//DTD SVG 1.1//EN'  'http://www.w3.org/Graphics/SVG/1.1/DTD/svg11.dtd'>
<svg clip-rule="evenodd" fill-rule="evenodd" stroke-linejoin="round" stroke-miterlimit="1.4142" version="1.1" viewBox="0 0 32 32" xml:space="preserve" xmlns="http://www.w3.org/2000/svg">
<metadata>
<rdf:RDF xmlns:cc="http://web.resource.org/cc/" xmlns:dc="http://purl.org/dc/elements/1.1/" xmlns:rdf="http://www.w3.org/1999/02/22-rdf-syntax-ns#">

     <rdf:Description rdf:about="">
       <dc:title>Mutant Standard emoji 2023.12</dc:title>
     </rdf:Description>

    <cc:work rdf:about="">
        <cc:license rdf:resource="http://creativecommons.org/licenses/by-nc-sa/4.0/"/>
        <cc:attributionName>Caius Nocturne</cc:attributionName>
        <cc:attributionURL>http://mutant.tech/</cc:attributionURL>
    </cc:work>

</rdf:RDF>
</metadata>
<rect id="free" width="32" height="32" fill="none"/><clipPath id="_clip1"><rect width="32" height="32"/></clipPath><g clip-path="url(#_clip1)"><g id="outline"><path d="m32 8c0-4.418-3.582-8-8-8h-16c-4.418 0-8 3.582-8 8v16c0 4.418 3.582 8 8 8h16c4.418 0 8-3.582 8-8v-16z"/></g><g id="emoji"><path d="m30 8c0-1.591-0.632-3.117-1.757-4.243-1.126-1.125-2.652-1.757-4.243-1.757h-16c-1.591 0-3.117 0.632-4.243 1.757-1.125 1.126-1.757 2.652-1.757 4.243v16c0 1.591 0.632 3.117 1.757 4.243 1.126 1.125 2.652 1.757 4.243 1.757h16c1.591 0 3.117-0.632 4.243-1.757 1.125-1.126 1.757-2.652 1.757-4.243v-16z" fill="#666"/><path d="m5.95 12.291v2.79h2.536v1.759h-2.536v4.629h-1.95v-10.938h4.882v1.76h-2.932z" fill="#fff" fill-rule="nonzero"/><path d="m12.766 17.078h-0.935v4.391h-1.95v-10.938h2.98c1.078 0 1.842 0.259 2.291 0.777s0.674 1.347 0.674 2.489c0 0.729-0.101 1.336-0.302 1.823-0.2 0.486-0.528 0.85-0.982 1.093l1.632 4.756h-2.029l-1.379-4.391zm-0.935-1.744h1.014c0.391 0 0.661-0.129 0.809-0.388s0.222-0.642 0.222-1.149c0-0.508-0.072-0.888-0.214-1.142-0.143-0.253-0.415-0.38-0.817-0.38h-1.014v3.059z" fill="#fff" fill-rule="nonzero"/><path d="m19.107 12.291v2.742h2.536v1.744h-2.536v2.948h2.948v1.744h-4.882v-10.938h4.882v1.76h-2.948z" fill="#fff" fill-rule="nonzero"/><path d="m25.052 12.291v2.742h2.536v1.744h-2.536v2.948h2.948v1.744h-4.882v-10.938h4.882v1.76h-2.948z" fill="#fff" fill-rule="nonzero"/></g></g></svg>
