<?xml version="1.0" encoding="UTF-8"?>
<!DOCTYPE svg  PUBLIC '-//W3C//DTD SVG 1.1//EN'  'http://www.w3.org/Graphics/SVG/1.1/DTD/svg11.dtd'>
<svg clip-rule="evenodd" fill-rule="evenodd" stroke-linejoin="round" stroke-miterlimit="1.4142" version="1.1" viewBox="0 0 32 32" xml:space="preserve" xmlns="http://www.w3.org/2000/svg">
<metadata>
<rdf:RDF xmlns:cc="http://web.resource.org/cc/" xmlns:dc="http://purl.org/dc/elements/1.1/" xmlns:rdf="http://www.w3.org/1999/02/22-rdf-syntax-ns#">

     <rdf:Description rdf:about="">
       <dc:title>Mutant Standard emoji 2023.12</dc:title>
     </rdf:Description>

    <cc:work rdf:about="">
        <cc:license rdf:resource="http://creativecommons.org/licenses/by-nc-sa/4.0/"/>
        <cc:attributionName>Caius Nocturne</cc:attributionName>
        <cc:attributionURL>http://mutant.tech/</cc:attributionURL>
    </cc:work>

</rdf:RDF>
</metadata>
<rect id="ng" width="32" height="32" fill="none"/><clipPath id="_clip1"><rect width="32" height="32"/></clipPath><g clip-path="url(#_clip1)"><g id="outline"><path d="m32 8c0-4.418-3.582-8-8-8h-16c-4.418 0-8 3.582-8 8v16c0 4.418 3.582 8 8 8h16c4.418 0 8-3.582 8-8v-16z"/></g><g id="emoji"><path d="m30 8c0-1.591-0.632-3.117-1.757-4.243-1.126-1.125-2.652-1.757-4.243-1.757h-16c-1.591 0-3.117 0.632-4.243 1.757-1.125 1.126-1.757 2.652-1.757 4.243v16c0 1.591 0.632 3.117 1.757 4.243 1.126 1.125 2.652 1.757 4.243 1.757h16c1.591 0 3.117-0.632 4.243-1.757 1.125-1.126 1.757-2.652 1.757-4.243v-16z" fill="#e82731"/><path d="m15.091 9.273v13.493h-2.562l-4.967-8.428v8.428h-2.562v-13.493h2.562l4.967 8.448v-8.448h2.562z" fill="#fff" fill-rule="nonzero"/><path d="m22.131 22.923c-3.273 0-4.909-1.793-4.909-5.378v-3.09c0-3.585 1.649-5.378 4.948-5.378 1.473 0 2.646 0.388 3.52 1.164 0.873 0.776 1.31 1.848 1.31 3.217v0.137h-2.562v-0.137c0-0.613-0.199-1.121-0.596-1.526-0.398-0.404-0.962-0.606-1.692-0.606-0.821 0-1.418 0.254-1.789 0.763-0.372 0.508-0.557 1.343-0.557 2.503v2.914c0 1.108 0.198 1.906 0.596 2.395s1.014 0.734 1.848 0.734c0.782 0 1.353-0.202 1.711-0.607 0.359-0.404 0.538-1.016 0.538-1.838v-0.645h-2.386v-2.112h4.889v2.307c0 3.455-1.623 5.183-4.869 5.183z" fill="#fff" fill-rule="nonzero"/></g></g></svg>
