<?xml version="1.0" encoding="UTF-8"?>
<!DOCTYPE svg  PUBLIC '-//W3C//DTD SVG 1.1//EN'  'http://www.w3.org/Graphics/SVG/1.1/DTD/svg11.dtd'>
<svg clip-rule="evenodd" fill-rule="evenodd" stroke-linejoin="round" stroke-miterlimit="1.4142" version="1.1" viewBox="0 0 32 32" xml:space="preserve" xmlns="http://www.w3.org/2000/svg">
<metadata>
<rdf:RDF xmlns:cc="http://web.resource.org/cc/" xmlns:dc="http://purl.org/dc/elements/1.1/" xmlns:rdf="http://www.w3.org/1999/02/22-rdf-syntax-ns#">

     <rdf:Description rdf:about="">
       <dc:title>Mutant Standard emoji 2023.12</dc:title>
     </rdf:Description>

    <cc:work rdf:about="">
        <cc:license rdf:resource="http://creativecommons.org/licenses/by-nc-sa/4.0/"/>
        <cc:attributionName>Caius Nocturne</cc:attributionName>
        <cc:attributionURL>http://mutant.tech/</cc:attributionURL>
    </cc:work>

</rdf:RDF>
</metadata>
<rect id="ok" width="32" height="32" fill="none"/><clipPath id="_clip1"><rect width="32" height="32"/></clipPath><g clip-path="url(#_clip1)"><g id="outline"><path d="m32 8c0-4.418-3.582-8-8-8h-16c-4.418 0-8 3.582-8 8v16c0 4.418 3.582 8 8 8h16c4.418 0 8-3.582 8-8v-16z"/></g><g id="emoji"><path d="m30 8c0-1.591-0.632-3.117-1.757-4.243-1.126-1.125-2.652-1.757-4.243-1.757h-16c-1.591 0-3.117 0.632-4.243 1.757-1.125 1.126-1.757 2.652-1.757 4.243v16c0 1.591 0.632 3.117 1.757 4.243 1.126 1.125 2.652 1.757 4.243 1.757h16c1.591 0 3.117-0.632 4.243-1.757 1.125-1.126 1.757-2.652 1.757-4.243v-16z" fill="#4cbf1e"/><path d="m9.75 22.808c-3.167 0-4.75-1.763-4.75-5.289v-3.038c0-3.526 1.609-5.289 4.827-5.289 1.474 0 2.641 0.414 3.5 1.241s1.288 2.176 1.288 4.048v3.038c0 1.872-0.439 3.221-1.317 4.048s-2.061 1.241-3.548 1.241zm0.077-2.25c0.769 0 1.34-0.247 1.711-0.741 0.372-0.493 0.558-1.272 0.558-2.336v-2.866c0-1.128-0.186-1.945-0.558-2.452-0.371-0.506-0.942-0.759-1.711-0.759-0.808 0-1.391 0.247-1.75 0.74-0.359 0.494-0.539 1.318-0.539 2.471v2.866c0 1.09 0.18 1.875 0.539 2.356 0.359 0.48 0.942 0.721 1.75 0.721z" fill="#fff" fill-rule="nonzero"/><path d="m20.788 16.75-1.75 2.192v3.712h-2.519v-13.269h2.519v6.192l4.597-6.192h3.019l-4.25 5.327 4.596 7.942h-2.923l-3.289-5.904z" fill="#fff" fill-rule="nonzero"/></g></g></svg>
