<?xml version="1.0" encoding="UTF-8"?>
<!DOCTYPE svg  PUBLIC '-//W3C//DTD SVG 1.1//EN'  'http://www.w3.org/Graphics/SVG/1.1/DTD/svg11.dtd'>
<svg clip-rule="evenodd" fill-rule="evenodd" stroke-linejoin="round" stroke-miterlimit="1.4142" version="1.1" viewBox="0 0 32 32" xml:space="preserve" xmlns="http://www.w3.org/2000/svg">
<metadata>
<rdf:RDF xmlns:cc="http://web.resource.org/cc/" xmlns:dc="http://purl.org/dc/elements/1.1/" xmlns:rdf="http://www.w3.org/1999/02/22-rdf-syntax-ns#">

     <rdf:Description rdf:about="">
       <dc:title>Mutant Standard emoji 2023.12</dc:title>
     </rdf:Description>

    <cc:work rdf:about="">
        <cc:license rdf:resource="http://creativecommons.org/licenses/by-nc-sa/4.0/"/>
        <cc:attributionName>Caius Nocturne</cc:attributionName>
        <cc:attributionURL>http://mutant.tech/</cc:attributionURL>
    </cc:work>

</rdf:RDF>
</metadata>
<rect id="up" width="32" height="32" fill="none"/><clipPath id="_clip1"><rect width="32" height="32"/></clipPath><g clip-path="url(#_clip1)"><g id="outline"><path d="m32 8c0-4.418-3.582-8-8-8h-16c-4.418 0-8 3.582-8 8v16c0 4.418 3.582 8 8 8h16c4.418 0 8-3.582 8-8v-16z"/></g><g id="emoji"><path d="m30 8c0-1.591-0.632-3.117-1.757-4.243-1.126-1.125-2.652-1.757-4.243-1.757h-16c-1.591 0-3.117 0.632-4.243 1.757-1.125 1.126-1.757 2.652-1.757 4.243v16c0 1.591 0.632 3.117 1.757 4.243 1.126 1.125 2.652 1.757 4.243 1.757h16c1.591 0 3.117-0.632 4.243-1.757 1.125-1.126 1.757-2.652 1.757-4.243v-16z" fill="#666"/><path d="m8.501 22.342c-0.85 0-1.619-0.18-2.305-0.538-0.687-0.358-1.224-0.862-1.613-1.512s-0.583-1.388-0.583-2.215v-8.419h2.387v8.347c0 0.716 0.189 1.272 0.565 1.667 0.377 0.395 0.893 0.592 1.549 0.592s1.176-0.197 1.558-0.592c0.383-0.395 0.574-0.951 0.574-1.667v-8.347h2.406v8.419c0 0.827-0.198 1.565-0.593 2.215-0.394 0.65-0.935 1.154-1.621 1.512-0.687 0.358-1.461 0.538-2.324 0.538z" fill="#fff" fill-rule="nonzero"/><path d="m19.891 9.658c1.275 0 2.281 0.353 3.016 1.057 0.735 0.705 1.102 1.671 1.102 2.898 0 1.166-0.367 2.098-1.102 2.797s-1.741 1.048-3.016 1.048h-2.315v4.774h-2.387v-12.574h4.702zm-0.11 5.704c0.571 0 1.021-0.152 1.349-0.455 0.328-0.304 0.492-0.735 0.492-1.294 0-0.608-0.161-1.072-0.483-1.394s-0.775-0.483-1.358-0.483h-2.205v3.626h2.205z" fill="#fff" fill-rule="nonzero"/><path d="m25.431 9.658h2.569l-0.437 8.383h-1.695l-0.437-8.383zm0.091 10.205h2.387v2.369h-2.387v-2.369z" fill="#fff" fill-rule="nonzero"/></g></g></svg>
