<?xml version="1.0" encoding="UTF-8"?>
<!DOCTYPE svg  PUBLIC '-//W3C//DTD SVG 1.1//EN'  'http://www.w3.org/Graphics/SVG/1.1/DTD/svg11.dtd'>
<svg clip-rule="evenodd" fill-rule="evenodd" stroke-linejoin="round" stroke-miterlimit="1.4142" version="1.1" viewBox="0 0 32 32" xml:space="preserve" xmlns="http://www.w3.org/2000/svg">
<metadata>
<rdf:RDF xmlns:cc="http://web.resource.org/cc/" xmlns:dc="http://purl.org/dc/elements/1.1/" xmlns:rdf="http://www.w3.org/1999/02/22-rdf-syntax-ns#">

     <rdf:Description rdf:about="">
       <dc:title>Mutant Standard emoji 2023.12</dc:title>
     </rdf:Description>

    <cc:work rdf:about="">
        <cc:license rdf:resource="http://creativecommons.org/licenses/by-nc-sa/4.0/"/>
        <cc:attributionName>Caius Nocturne</cc:attributionName>
        <cc:attributionURL>http://mutant.tech/</cc:attributionURL>
    </cc:work>

</rdf:RDF>
</metadata>
<rect id="vs" width="32" height="32" fill="none"/><clipPath id="_clip1"><rect width="32" height="32"/></clipPath><g clip-path="url(#_clip1)"><g id="outline"><path d="m32 8c0-4.418-3.582-8-8-8h-16c-4.418 0-8 3.582-8 8v16c0 4.418 3.582 8 8 8h16c4.418 0 8-3.582 8-8v-16z"/></g><g id="emoji"><path d="m30 8c0-1.591-0.632-3.117-1.757-4.243-1.126-1.125-2.652-1.757-4.243-1.757h-16c-1.591 0-3.117 0.632-4.243 1.757-1.125 1.126-1.757 2.652-1.757 4.243v16c0 1.591 0.632 3.117 1.757 4.243 1.126 1.125 2.652 1.757 4.243 1.757h16c1.591 0 3.117-0.632 4.243-1.757 1.125-1.126 1.757-2.652 1.757-4.243v-16z" fill="#ef9b00"/><path d="m5 8.901h2.835l2.815 9.872 2.815-9.872h2.835l-4.574 14.281h-2.173l-4.553-14.281z" fill="#fff" fill-rule="nonzero"/><path d="m21.909 23.306c-1.532 0-2.725-0.383-3.581-1.149-0.855-0.766-1.331-1.873-1.428-3.322h2.567c0.096 0.787 0.348 1.342 0.755 1.666 0.407 0.325 1.011 0.487 1.811 0.487 1.531 0 2.297-0.628 2.297-1.884 0-0.565-0.152-0.996-0.455-1.293-0.304-0.297-0.787-0.5-1.449-0.611l-1.345-0.227c-2.58-0.428-3.87-1.753-3.87-3.974 0-1.324 0.438-2.373 1.314-3.146 0.876-0.772 2.038-1.159 3.487-1.159 1.408 0 2.522 0.373 3.343 1.118s1.286 1.794 1.397 3.146h-2.608c-0.041-0.69-0.242-1.194-0.6-1.511-0.359-0.317-0.883-0.476-1.573-0.476-0.704 0-1.235 0.162-1.594 0.486-0.358 0.324-0.538 0.769-0.538 1.335 0 0.497 0.159 0.89 0.476 1.18s0.814 0.496 1.49 0.621l1.511 0.269c2.456 0.441 3.684 1.78 3.684 4.015 0 1.435-0.459 2.532-1.376 3.29-0.918 0.759-2.156 1.139-3.715 1.139z" fill="#fff" fill-rule="nonzero"/></g></g></svg>
