<?xml version="1.0" encoding="UTF-8"?>
<!DOCTYPE svg  PUBLIC '-//W3C//DTD SVG 1.1//EN'  'http://www.w3.org/Graphics/SVG/1.1/DTD/svg11.dtd'>
<svg clip-rule="evenodd" fill-rule="evenodd" stroke-linejoin="round" stroke-miterlimit="1.4142" version="1.1" viewBox="0 0 32 32" xml:space="preserve" xmlns="http://www.w3.org/2000/svg">
<metadata>
<rdf:RDF xmlns:cc="http://web.resource.org/cc/" xmlns:dc="http://purl.org/dc/elements/1.1/" xmlns:rdf="http://www.w3.org/1999/02/22-rdf-syntax-ns#">

     <rdf:Description rdf:about="">
       <dc:title>Mutant Standard emoji 2023.12</dc:title>
     </rdf:Description>

    <cc:work rdf:about="">
        <cc:license rdf:resource="http://creativecommons.org/licenses/by-nc-sa/4.0/"/>
        <cc:attributionName>Caius Nocturne</cc:attributionName>
        <cc:attributionURL>http://mutant.tech/</cc:attributionURL>
    </cc:work>

</rdf:RDF>
</metadata>
<path id="play_down" d="m32 32v-32h-32v32h32z" fill="none"/><clipPath id="_clip1"><path d="m32 32v-32h-32v32h32z"/></clipPath><g clip-path="url(#_clip1)"><g id="outline"><path d="m24 32c4.418 0 8-3.582 8-8v-16c0-4.418-3.582-8-8-8h-16c-4.418 0-8 3.582-8 8v16c0 4.418 3.582 8 8 8h16z"/></g><g id="emoji"><path d="m2 24c0 1.591 0.632 3.117 1.757 4.243 1.126 1.125 2.652 1.757 4.243 1.757h16c1.591 0 3.117-0.632 4.243-1.757 1.125-1.126 1.757-2.652 1.757-4.243v-16c0-1.591-0.632-3.117-1.757-4.243-1.126-1.125-2.652-1.757-4.243-1.757h-16c-1.591 0-3.117 0.632-4.243 1.757-1.125 1.126-1.757 2.652-1.757 4.243v16z" fill="#fff"/><path d="m7.838 10.49c-0.174-0.309-0.171-0.688 9e-3 -0.995 0.179-0.307 0.508-0.495 0.863-0.495h14.58c0.355 0 0.684 0.188 0.863 0.495 0.18 0.307 0.183 0.686 9e-3 0.995-1.705 3.03-5.559 9.882-7.29 12.961-0.178 0.314-0.511 0.509-0.872 0.509s-0.694-0.195-0.872-0.509c-1.731-3.079-5.585-9.931-7.29-12.961z" fill="#333"/></g></g></svg>
