<?xml version="1.0" encoding="UTF-8"?>
<!DOCTYPE svg  PUBLIC '-//W3C//DTD SVG 1.1//EN'  'http://www.w3.org/Graphics/SVG/1.1/DTD/svg11.dtd'>
<svg clip-rule="evenodd" fill-rule="evenodd" stroke-linejoin="round" stroke-miterlimit="1.4142" version="1.1" viewBox="0 0 32 32" xml:space="preserve" xmlns="http://www.w3.org/2000/svg">
<metadata>
<rdf:RDF xmlns:cc="http://web.resource.org/cc/" xmlns:dc="http://purl.org/dc/elements/1.1/" xmlns:rdf="http://www.w3.org/1999/02/22-rdf-syntax-ns#">

     <rdf:Description rdf:about="">
       <dc:title>Mutant Standard emoji 2023.12</dc:title>
     </rdf:Description>

    <cc:work rdf:about="">
        <cc:license rdf:resource="http://creativecommons.org/licenses/by-nc-sa/4.0/"/>
        <cc:attributionName>Caius Nocturne</cc:attributionName>
        <cc:attributionURL>http://mutant.tech/</cc:attributionURL>
    </cc:work>

</rdf:RDF>
</metadata>
<rect id="play_pause" width="32" height="32" fill="none"/><clipPath id="_clip1"><rect width="32" height="32"/></clipPath><g clip-path="url(#_clip1)"><g id="outline"><path d="m32 8c0-4.418-3.582-8-8-8h-16c-4.418 0-8 3.582-8 8v16c0 4.418 3.582 8 8 8h16c4.418 0 8-3.582 8-8v-16z"/></g><g id="emoji"><path d="m24 30c1.591 0 3.117-0.632 4.243-1.757 1.125-1.126 1.757-2.652 1.757-4.243v-16c0-1.591-0.632-3.117-1.757-4.243-1.126-1.125-2.652-1.757-4.243-1.757h-16c-1.591 0-3.117 0.632-4.243 1.757-1.125 1.126-1.757 2.652-1.757 4.243v16c0 1.591 0.632 3.117 1.757 4.243 1.126 1.125 2.652 1.757 4.243 1.757h16z" fill="#fff"/><path d="m20 10c0-0.552-0.448-1-1-1h-2c-0.552 0-1 0.448-1 1v12c0 0.552 0.448 1 1 1h2c0.552 0 1-0.448 1-1v-12z" fill="#333"/><path d="m26 10c0-0.552-0.448-1-1-1h-2c-0.552 0-1 0.448-1 1v12c0 0.552 0.448 1 1 1h2c0.552 0 1-0.448 1-1v-12z" fill="#333"/></g><path d="m7.504 22.123c-0.309 0.18-0.692 0.181-1.002 3e-3 -0.311-0.178-0.502-0.509-0.502-0.867v-10.518c0-0.358 0.191-0.689 0.502-0.867 0.31-0.178 0.693-0.177 1.002 3e-3 2.313 1.35 6.716 3.918 9.015 5.259 0.307 0.179 0.496 0.508 0.496 0.864s-0.189 0.685-0.496 0.864c-2.299 1.341-6.702 3.909-9.015 5.259z" fill="#333"/></g></svg>
