<?xml version="1.0" encoding="UTF-8"?>
<!DOCTYPE svg  PUBLIC '-//W3C//DTD SVG 1.1//EN'  'http://www.w3.org/Graphics/SVG/1.1/DTD/svg11.dtd'>
<svg clip-rule="evenodd" fill-rule="evenodd" stroke-linejoin="round" stroke-miterlimit="1.4142" version="1.1" viewBox="0 0 32 32" xml:space="preserve" xmlns="http://www.w3.org/2000/svg">
<metadata>
<rdf:RDF xmlns:cc="http://web.resource.org/cc/" xmlns:dc="http://purl.org/dc/elements/1.1/" xmlns:rdf="http://www.w3.org/1999/02/22-rdf-syntax-ns#">

     <rdf:Description rdf:about="">
       <dc:title>Mutant Standard emoji 2023.12</dc:title>
     </rdf:Description>

    <cc:work rdf:about="">
        <cc:license rdf:resource="http://creativecommons.org/licenses/by-nc-sa/4.0/"/>
        <cc:attributionName>Caius Nocturne</cc:attributionName>
        <cc:attributionURL>http://mutant.tech/</cc:attributionURL>
    </cc:work>

</rdf:RDF>
</metadata>
<path id="repeat_once" d="m0 32v-32h32v32h-32z" fill="none"/><clipPath id="_clip1"><path d="m0 32v-32h32v32h-32z"/></clipPath><g clip-path="url(#_clip1)"><g id="outline"><path d="m24 32c4.418 0 8-3.582 8-8v-16c0-4.418-3.582-8-8-8h-16c-4.418 0-8 3.582-8 8v16c0 4.418 3.582 8 8 8h16z"/></g><g id="emoji"><path d="m24 30c1.591 0 3.117-0.632 4.243-1.757 1.125-1.126 1.757-2.652 1.757-4.243v-16c0-1.591-0.632-3.117-1.757-4.243-1.126-1.125-2.652-1.757-4.243-1.757h-16c-1.591 0-3.117 0.632-4.243 1.757-1.125 1.126-1.757 2.652-1.757 4.243v16c0 1.591 0.632 3.117 1.757 4.243 1.126 1.125 2.652 1.757 4.243 1.757h16z" fill="#fff"/></g><path d="m11 16c2.76 0 5 2.24 5 5s-2.24 5-5 5-5-2.24-5-5 2.24-5 5-5zm1 2h-2l-1 2h1v4h2v-6zm7.505 5h-1.796c0.05-0.167 0.094-0.336 0.131-0.507 0.176-0.808 0.205-1.644 0.092-2.46 0.566-7e-3 1.132-0.018 1.698-0.035 0.359-0.016 0.712-0.082 1.05-0.203 0.759-0.272 1.409-0.807 1.823-1.498 0.132-0.22 0.239-0.455 0.32-0.698 0.113-0.341 0.17-0.696 0.177-1.055 0-0.096 1e-3 -0.193 2e-3 -0.289 0.905-0.894 1.81-1.788 2.703-2.694 0.187 0.602 0.283 1.226 0.295 1.856 2e-3 0.415 6e-3 0.83-2e-3 1.244-0.021 0.693-0.144 1.377-0.379 2.031-0.504 1.409-1.498 2.618-2.782 3.386-0.408 0.244-0.843 0.444-1.295 0.593-0.658 0.218-1.345 0.325-2.037 0.329zm-0.505-14v-2.793c0-0.202 0.122-0.384 0.309-0.462 0.186-0.077 0.402-0.034 0.545 0.109l4.292 4.292c0.196 0.196 0.196 0.512 0 0.708l-4.292 4.292c-0.143 0.143-0.359 0.186-0.545 0.109-0.187-0.078-0.309-0.26-0.309-0.462v-2.808c-2.211-0.021-4.421-0.051-6.63 0.017-0.087 4e-3 -0.173 0.011-0.259 0.02-0.326 0.038-0.646 0.118-0.95 0.245-0.692 0.286-1.28 0.794-1.664 1.436-0.1 0.166-0.185 0.341-0.256 0.521-0.494 0.128-0.974 0.31-1.428 0.543-0.673 0.345-1.288 0.799-1.817 1.339-1e-3 -0.255 1e-3 -0.511 6e-3 -0.767 0.021-0.693 0.144-1.377 0.379-2.031 0.504-1.409 1.498-2.618 2.782-3.386 0.408-0.244 0.843-0.444 1.295-0.593 0.658-0.218 1.345-0.325 2.037-0.329h6.505z" fill="#333"/></g></svg>
