<?xml version="1.0" encoding="UTF-8"?>
<!DOCTYPE svg  PUBLIC '-//W3C//DTD SVG 1.1//EN'  'http://www.w3.org/Graphics/SVG/1.1/DTD/svg11.dtd'>
<svg clip-rule="evenodd" fill-rule="evenodd" stroke-linejoin="round" stroke-miterlimit="1.4142" version="1.1" viewBox="0 0 32 32" xml:space="preserve" xmlns="http://www.w3.org/2000/svg">
<metadata>
<rdf:RDF xmlns:cc="http://web.resource.org/cc/" xmlns:dc="http://purl.org/dc/elements/1.1/" xmlns:rdf="http://www.w3.org/1999/02/22-rdf-syntax-ns#">

     <rdf:Description rdf:about="">
       <dc:title>Mutant Standard emoji 2023.12</dc:title>
     </rdf:Description>

    <cc:work rdf:about="">
        <cc:license rdf:resource="http://creativecommons.org/licenses/by-nc-sa/4.0/"/>
        <cc:attributionName>Caius Nocturne</cc:attributionName>
        <cc:attributionURL>http://mutant.tech/</cc:attributionURL>
    </cc:work>

</rdf:RDF>
</metadata>
<rect id="reverse" width="32" height="32" fill="none"/><clipPath id="_clip1"><rect width="32" height="32"/></clipPath><g clip-path="url(#_clip1)"><g id="outline"><path d="m0 8c0-4.418 3.582-8 8-8h16c4.418 0 8 3.582 8 8v16c0 4.418-3.582 8-8 8h-16c-4.418 0-8-3.582-8-8v-16z"/></g><g id="emoji"><path d="m8 30c-1.591 0-3.117-0.632-4.243-1.757-1.125-1.126-1.757-2.652-1.757-4.243v-16c0-1.591 0.632-3.117 1.757-4.243 1.126-1.125 2.652-1.757 4.243-1.757h16c1.591 0 3.117 0.632 4.243 1.757 1.125 1.126 1.757 2.652 1.757 4.243v16c0 1.591-0.632 3.117-1.757 4.243-1.126 1.125-2.652 1.757-4.243 1.757h-16z" fill="#fff"/><path d="m21.51 24.162c0.309 0.174 0.688 0.171 0.995-9e-3 0.307-0.179 0.495-0.508 0.495-0.863v-14.58c0-0.355-0.188-0.684-0.495-0.863-0.307-0.18-0.686-0.183-0.995-9e-3 -3.03 1.705-9.882 5.559-12.961 7.29-0.314 0.178-0.509 0.511-0.509 0.872s0.195 0.694 0.509 0.872c3.079 1.731 9.931 5.585 12.961 7.29z" fill="#333"/></g></g></svg>
