<?xml version="1.0" encoding="UTF-8"?>
<!DOCTYPE svg  PUBLIC '-//W3C//DTD SVG 1.1//EN'  'http://www.w3.org/Graphics/SVG/1.1/DTD/svg11.dtd'>
<svg clip-rule="evenodd" fill-rule="evenodd" stroke-linejoin="round" stroke-miterlimit="1.4142" version="1.1" viewBox="0 0 32 32" xml:space="preserve" xmlns="http://www.w3.org/2000/svg">
<metadata>
<rdf:RDF xmlns:cc="http://web.resource.org/cc/" xmlns:dc="http://purl.org/dc/elements/1.1/" xmlns:rdf="http://www.w3.org/1999/02/22-rdf-syntax-ns#">

     <rdf:Description rdf:about="">
       <dc:title>Mutant Standard emoji 2023.12</dc:title>
     </rdf:Description>

    <cc:work rdf:about="">
        <cc:license rdf:resource="http://creativecommons.org/licenses/by-nc-sa/4.0/"/>
        <cc:attributionName>Caius Nocturne</cc:attributionName>
        <cc:attributionURL>http://mutant.tech/</cc:attributionURL>
    </cc:work>

</rdf:RDF>
</metadata>
<path id="shuffle" d="m0 32v-32h32v32h-32z" fill="none"/><clipPath id="_clip1"><path d="m0 32v-32h32v32h-32z"/></clipPath><g clip-path="url(#_clip1)"><g id="outline"><path d="m24 32c4.418 0 8-3.582 8-8v-16c0-4.418-3.582-8-8-8h-16c-4.418 0-8 3.582-8 8v16c0 4.418 3.582 8 8 8h16z"/></g><g id="emoji"><path d="m24 30c1.591 0 3.117-0.632 4.243-1.757 1.125-1.126 1.757-2.652 1.757-4.243v-16c0-1.591-0.632-3.117-1.757-4.243-1.126-1.125-2.652-1.757-4.243-1.757h-16c-1.591 0-3.117 0.632-4.243 1.757-1.125 1.126-1.757 2.652-1.757 4.243v16c0 1.591 0.632 3.117 1.757 4.243 1.126 1.125 2.652 1.757 4.243 1.757h16z" fill="#fff"/></g><path d="m23 23h-0.404c-1.36-0.016-2.681-0.531-3.696-1.435-0.696-0.65-1.386-1.305-2.074-1.963 0.704-0.71 1.409-1.419 2.116-2.127 0.656 0.628 1.315 1.253 1.979 1.873 0.464 0.413 1.068 0.644 1.693 0.652h0.386v-1.293c0-0.202 0.122-0.384 0.309-0.462 0.186-0.077 0.402-0.034 0.545 0.109l2.792 2.792c0.094 0.094 0.147 0.221 0.147 0.354s-0.053 0.26-0.147 0.354l-2.792 2.792c-0.143 0.143-0.359 0.186-0.545 0.109-0.187-0.078-0.309-0.26-0.309-0.462v-1.293zm-15.148 0.5h-1.852v-3c0.635 0 1.27 7e-3 1.905-1e-3 0.165-6e-3 0.327-0.024 0.488-0.06 0.442-0.1 0.842-0.32 1.173-0.628 3.107-3.031 6.139-6.138 9.208-9.207 0.225-0.219 0.463-0.423 0.72-0.604 0.587-0.412 1.254-0.708 1.953-0.865 0.395-0.09 0.796-0.13 1.201-0.135h0.352v-1.293c0-0.202 0.122-0.384 0.309-0.462 0.186-0.077 0.402-0.034 0.545 0.109l2.792 2.792c0.094 0.094 0.147 0.221 0.147 0.354s-0.053 0.26-0.147 0.354l-2.792 2.792c-0.143 0.143-0.359 0.186-0.545 0.109-0.187-0.078-0.309-0.26-0.309-0.462v-1.295c-0.135 0-0.27 1e-3 -0.405 3e-3 -0.062 2e-3 -0.124 6e-3 -0.185 0.011-0.387 0.044-0.759 0.166-1.089 0.375-0.139 0.088-0.267 0.19-0.388 0.302-3.106 3.031-6.138 6.138-9.207 9.207-0.258 0.251-0.532 0.48-0.831 0.68-0.634 0.423-1.356 0.711-2.106 0.842-0.31 0.054-0.622 0.078-0.937 0.082zm3.962-8.731c-0.741-0.71-1.485-1.416-2.235-2.117-0.464-0.413-1.068-0.644-1.693-0.652h-1.886v-3c0.676 0 1.352-7e-3 2.028 1e-3 1.319 0.048 2.586 0.556 3.572 1.434 0.781 0.73 1.557 1.467 2.328 2.207-0.704 0.71-1.408 1.419-2.114 2.127z" fill="#333"/></g></svg>
