<?xml version="1.0" encoding="UTF-8"?>
<!DOCTYPE svg  PUBLIC '-//W3C//DTD SVG 1.1//EN'  'http://www.w3.org/Graphics/SVG/1.1/DTD/svg11.dtd'>
<svg clip-rule="evenodd" fill-rule="evenodd" stroke-linejoin="round" stroke-miterlimit="1.4142" version="1.1" viewBox="0 0 32 32" xml:space="preserve" xmlns="http://www.w3.org/2000/svg">
<metadata>
<rdf:RDF xmlns:cc="http://web.resource.org/cc/" xmlns:dc="http://purl.org/dc/elements/1.1/" xmlns:rdf="http://www.w3.org/1999/02/22-rdf-syntax-ns#">

     <rdf:Description rdf:about="">
       <dc:title>Mutant Standard emoji 2023.12</dc:title>
     </rdf:Description>

    <cc:work rdf:about="">
        <cc:license rdf:resource="http://creativecommons.org/licenses/by-nc-sa/4.0/"/>
        <cc:attributionName>Caius Nocturne</cc:attributionName>
        <cc:attributionURL>http://mutant.tech/</cc:attributionURL>
    </cc:work>

</rdf:RDF>
</metadata>
<rect id="skip_forward" width="32" height="32" fill="none"/><clipPath id="_clip1"><rect width="32" height="32"/></clipPath><g clip-path="url(#_clip1)"><g id="outline"><path d="m0 8c0-4.418 3.582-8 8-8h16c4.418 0 8 3.582 8 8v16c0 4.418-3.582 8-8 8h-16c-4.418 0-8-3.582-8-8v-16z"/></g><g id="emoji"><path d="m8 30c-1.591 0-3.117-0.632-4.243-1.757-1.125-1.126-1.757-2.652-1.757-4.243v-16c0-1.591 0.632-3.117 1.757-4.243 1.126-1.125 2.652-1.757 4.243-1.757h16c1.591 0 3.117 0.632 4.243 1.757 1.125 1.126 1.757 2.652 1.757 4.243v16c0 1.591-0.632 3.117-1.757 4.243-1.126 1.125-2.652 1.757-4.243 1.757h-16z" fill="#fff"/></g><path d="m26 22c0 0.552-0.448 1-1 1h-1c-0.552 0-1-0.448-1-1v-4.6s-4.096 2.867-6.427 4.499c-0.305 0.213-0.704 0.24-1.035 0.067-0.331-0.172-0.538-0.514-0.538-0.887v-4.379s-4.847 3.393-7.427 5.199c-0.305 0.213-0.704 0.24-1.035 0.067-0.331-0.172-0.538-0.514-0.538-0.887v-10.158c0-0.373 0.207-0.715 0.538-0.887 0.331-0.173 0.73-0.146 1.035 0.067 2.58 1.806 7.427 5.199 7.427 5.199v-4.379c0-0.373 0.207-0.715 0.538-0.887 0.331-0.173 0.73-0.146 1.035 0.067 2.331 1.632 6.427 4.499 6.427 4.499v-4.6c0-0.552 0.448-1 1-1h1c0.552 0 1 0.448 1 1v12z" fill="#333"/></g></svg>
