<?xml version="1.0" encoding="UTF-8"?>
<!DOCTYPE svg  PUBLIC '-//W3C//DTD SVG 1.1//EN'  'http://www.w3.org/Graphics/SVG/1.1/DTD/svg11.dtd'>
<svg clip-rule="evenodd" fill-rule="evenodd" stroke-linejoin="round" stroke-miterlimit="1.4142" version="1.1" viewBox="0 0 32 32" xml:space="preserve" xmlns="http://www.w3.org/2000/svg">
<metadata>
<rdf:RDF xmlns:cc="http://web.resource.org/cc/" xmlns:dc="http://purl.org/dc/elements/1.1/" xmlns:rdf="http://www.w3.org/1999/02/22-rdf-syntax-ns#">

     <rdf:Description rdf:about="">
       <dc:title>Mutant Standard emoji 2023.12</dc:title>
     </rdf:Description>

    <cc:work rdf:about="">
        <cc:license rdf:resource="http://creativecommons.org/licenses/by-nc-sa/4.0/"/>
        <cc:attributionName>Caius Nocturne</cc:attributionName>
        <cc:attributionURL>http://mutant.tech/</cc:attributionURL>
    </cc:work>

</rdf:RDF>
</metadata>
<rect id="sos" width="32" height="32" fill="none"/><clipPath id="_clip1"><rect width="32" height="32"/></clipPath><g clip-path="url(#_clip1)"><g id="outline"><path d="m32 8c0-4.418-3.582-8-8-8h-16c-4.418 0-8 3.582-8 8v16c0 4.418 3.582 8 8 8h16c4.418 0 8-3.582 8-8v-16z"/></g><g id="emoji"><path d="m30 8c0-1.591-0.632-3.117-1.757-4.243-1.126-1.125-2.652-1.757-4.243-1.757h-16c-1.591 0-3.117 0.632-4.243 1.757-1.125 1.126-1.757 2.652-1.757 4.243v16c0 1.591 0.632 3.117 1.757 4.243 1.126 1.125 2.652 1.757 4.243 1.757h16c1.591 0 3.117-0.632 4.243-1.757 1.125-1.126 1.757-2.652 1.757-4.243v-16z" fill="#e82731"/><path d="m7.542 22.678c-1.143 0-2.016-0.333-2.619-0.998-0.603-0.666-0.91-1.62-0.923-2.864h2.185c0.025 0.641 0.154 1.112 0.386 1.413 0.233 0.302 0.575 0.452 1.027 0.452s0.782-0.138 0.989-0.414 0.311-0.716 0.311-1.319c0-0.502-0.116-0.901-0.349-1.196-0.232-0.295-0.624-0.568-1.177-0.82l-0.885-0.395c-0.842-0.377-1.448-0.842-1.818-1.394-0.371-0.553-0.556-1.294-0.556-2.223 0-1.093 0.317-1.966 0.951-2.619 0.635-0.653 1.492-0.979 2.572-0.979 1.067 0 1.893 0.323 2.477 0.97s0.895 1.579 0.933 2.797h-2.129c-0.013-0.59-0.116-1.032-0.311-1.328-0.195-0.295-0.518-0.442-0.97-0.442-0.842 0-1.262 0.496-1.262 1.488 0 0.452 0.103 0.813 0.31 1.083 0.208 0.27 0.556 0.512 1.046 0.725l0.848 0.377c0.904 0.402 1.56 0.904 1.968 1.507s0.613 1.407 0.613 2.412c0 1.205-0.314 2.135-0.942 2.788s-1.52 0.979-2.675 0.979z" fill="#fff" fill-rule="nonzero"/><path d="m16.019 22.678c-1.118 0-2.003-0.317-2.656-0.951s-0.98-1.561-0.98-2.779v-5.859c0-1.23 0.345-2.163 1.036-2.797s1.601-0.951 2.732-0.951c1.092 0 1.968 0.317 2.628 0.951 0.659 0.634 0.989 1.567 0.989 2.797v5.859c0 1.206-0.349 2.129-1.046 2.769-0.697 0.641-1.598 0.961-2.703 0.961zm0.075-2.091c0.44 0 0.776-0.166 1.008-0.499s0.349-0.801 0.349-1.404v-5.218c0-0.665-0.113-1.171-0.34-1.516-0.226-0.346-0.565-0.518-1.017-0.518-0.49 0-0.844 0.169-1.064 0.508s-0.33 0.848-0.33 1.526v5.218c0 1.269 0.465 1.903 1.394 1.903z" fill="#fff" fill-rule="nonzero"/><path d="m24.383 22.678c-1.143 0-2.016-0.333-2.618-0.998-0.603-0.666-0.911-1.62-0.924-2.864h2.186c0.025 0.641 0.154 1.112 0.386 1.413 0.232 0.302 0.574 0.452 1.027 0.452 0.452 0 0.781-0.138 0.989-0.414 0.207-0.276 0.31-0.716 0.31-1.319 0-0.502-0.116-0.901-0.348-1.196s-0.625-0.568-1.177-0.82l-0.886-0.395c-0.841-0.377-1.447-0.842-1.818-1.394-0.37-0.553-0.556-1.294-0.556-2.223 0-1.093 0.318-1.966 0.952-2.619s1.491-0.979 2.571-0.979c1.068 0 1.893 0.323 2.477 0.97s0.895 1.579 0.933 2.797h-2.129c-0.012-0.59-0.116-1.032-0.311-1.328-0.194-0.295-0.518-0.442-0.97-0.442-0.841 0-1.262 0.496-1.262 1.488 0 0.452 0.104 0.813 0.311 1.083s0.556 0.512 1.045 0.725l0.848 0.377c0.904 0.402 1.561 0.904 1.969 1.507s0.612 1.407 0.612 2.412c0 1.205-0.314 2.135-0.942 2.788s-1.52 0.979-2.675 0.979z" fill="#fff" fill-rule="nonzero"/></g></g></svg>
