<?xml version="1.0" encoding="UTF-8"?>
<!DOCTYPE svg  PUBLIC '-//W3C//DTD SVG 1.1//EN'  'http://www.w3.org/Graphics/SVG/1.1/DTD/svg11.dtd'>
<svg clip-rule="evenodd" fill-rule="evenodd" stroke-linejoin="round" stroke-miterlimit="1.4142" version="1.1" viewBox="0 0 32 32" xml:space="preserve" xmlns="http://www.w3.org/2000/svg">
<metadata>
<rdf:RDF xmlns:cc="http://web.resource.org/cc/" xmlns:dc="http://purl.org/dc/elements/1.1/" xmlns:rdf="http://www.w3.org/1999/02/22-rdf-syntax-ns#">

     <rdf:Description rdf:about="">
       <dc:title>Mutant Standard emoji 2023.12</dc:title>
     </rdf:Description>

    <cc:work rdf:about="">
        <cc:license rdf:resource="http://creativecommons.org/licenses/by-nc-sa/4.0/"/>
        <cc:attributionName>Caius Nocturne</cc:attributionName>
        <cc:attributionURL>http://mutant.tech/</cc:attributionURL>
    </cc:work>

</rdf:RDF>
</metadata>
<rect id="wheelchair" width="32" height="32" fill="none"/><clipPath id="_clip1"><rect width="32" height="32"/></clipPath><g clip-path="url(#_clip1)"><g id="outline"><path d="m32 8c0-4.418-3.582-8-8-8h-16c-4.418 0-8 3.582-8 8v16c0 4.418 3.582 8 8 8h16c4.418 0 8-3.582 8-8v-16z"/></g><g id="emoji"><path d="m30 8c0-1.591-0.632-3.117-1.757-4.243-1.126-1.125-2.652-1.757-4.243-1.757h-16c-1.591 0-3.117 0.632-4.243 1.757-1.125 1.126-1.757 2.652-1.757 4.243v16c0 1.591 0.632 3.117 1.757 4.243 1.126 1.125 2.652 1.757 4.243 1.757h16c1.591 0 3.117-0.632 4.243-1.757 1.125-1.126 1.757-2.652 1.757-4.243v-16z" fill="#334cec"/><path d="m13.685 24.613c-2.37 0-4.298-1.928-4.298-4.298 0-0.893 0.274-1.723 0.742-2.411l-1.707-1.707c-0.89 1.135-1.422 2.564-1.422 4.118 0 3.692 2.993 6.685 6.685 6.685 1.554 0 2.983-0.532 4.118-1.422l-1.707-1.707c-0.688 0.468-1.518 0.742-2.411 0.742zm10.128-9.638c-0.264-0.271-0.632-0.413-1.009-0.393l-4.557 0.254 2.508-2.857c0.357-0.406 0.459-0.949 0.321-1.434-0.073-0.332-0.274-0.634-0.583-0.827-9e-3 -7e-3 -5.995-3.484-5.995-3.484-0.489-0.284-1.105-0.221-1.526 0.155l-2.924 2.608c-0.539 0.481-0.586 1.307-0.106 1.846 0.481 0.538 1.307 0.586 1.846 0.105l2.217-1.977 1.832 1.064-3.235 3.684c-1.341 0.218-2.548 0.837-3.495 1.728l1.689 1.689c0.764-0.694 1.778-1.118 2.889-1.118 2.369 0 4.297 1.928 4.297 4.298 0 1.111-0.424 2.124-1.118 2.888l1.689 1.689c1.125-1.196 1.816-2.806 1.816-4.577 0-1.056-0.245-2.054-0.681-2.942l1.764-0.098-0.429 5.263c-0.059 0.72 0.477 1.351 1.197 1.409 0.036 3e-3 0.072 5e-3 0.107 5e-3 0.674 0 1.246-0.518 1.302-1.201l0.55-6.759c0.031-0.376-0.103-0.747-0.366-1.018zm-2.421-5.599c1.208 0 2.188-0.98 2.188-2.188s-0.98-2.188-2.188-2.188-2.188 0.98-2.188 2.188 0.98 2.188 2.188 2.188z" fill="#fff"/></g></g></svg>
