<?xml version="1.0" encoding="UTF-8"?>
<!DOCTYPE svg  PUBLIC '-//W3C//DTD SVG 1.1//EN'  'http://www.w3.org/Graphics/SVG/1.1/DTD/svg11.dtd'>
<svg clip-rule="evenodd" fill-rule="evenodd" stroke-linecap="round" stroke-linejoin="round" stroke-miterlimit="1.5" version="1.1" viewBox="0 0 32 32" xml:space="preserve" xmlns="http://www.w3.org/2000/svg" xmlns:serif="http://www.serif.com/">
<metadata>
<rdf:RDF xmlns:cc="http://web.resource.org/cc/" xmlns:dc="http://purl.org/dc/elements/1.1/" xmlns:rdf="http://www.w3.org/1999/02/22-rdf-syntax-ns#">

     <rdf:Description rdf:about="">
       <dc:title>Mutant Standard emoji 2023.12</dc:title>
     </rdf:Description>

    <cc:work rdf:about="">
        <cc:license rdf:resource="http://creativecommons.org/licenses/by-nc-sa/4.0/"/>
        <cc:attributionName>Caius Nocturne</cc:attributionName>
        <cc:attributionURL>http://mutant.tech/</cc:attributionURL>
    </cc:work>

</rdf:RDF>
</metadata>
<rect id="factory" width="32" height="32" fill="none"/><clipPath id="_clip1"><rect width="32" height="32"/></clipPath><g clip-path="url(#_clip1)"><g id="outline"><path d="m22 3c0-0.552 0.896-1 2-1s2 0.448 2 1v15h2v12h-26v-14h8v2h12v-15z" fill="none" stroke="#000" stroke-width="4px"/></g><g id="emoji"><path d="m22 3c0-0.552 0.896-1 2-1s2 0.448 2 1v17h-4v-17z" fill="#e6e6e6"/><path id="_-Rectangle-" d="m28 18h-2l-0.372 0.482-0.628-0.482h-3l-0.519 0.659-0.481-0.659h-3l-0.511 0.626-0.489-0.626h-3l-0.457 0.576-0.543-0.576h-4v11l1 1h3l0.407-0.471 0.593 0.471h3l0.591-0.406 0.409 0.406h3l0.454-0.462 0.546 0.462h3l0.472-0.354 0.528 0.354h2v-12z" fill="#656565" serif:id="(Rectangle)"/><rect x="2" y="16" width="8" height="14" fill="#969696"/><g fill="#535353"><rect x="13" y="18" width="1" height="12"/><rect x="17" y="18" width="1" height="12"/><rect x="21" y="18" width="1" height="12"/><rect x="25" y="18" width="1" height="12"/></g><g fill="#6a6a6a"><rect x="3" y="18" width="6" height="2"/><rect x="3" y="21" width="6" height="2"/></g></g></g></svg>
