<?xml version="1.0" encoding="UTF-8"?>
<!DOCTYPE svg  PUBLIC '-//W3C//DTD SVG 1.1//EN'  'http://www.w3.org/Graphics/SVG/1.1/DTD/svg11.dtd'>
<svg clip-rule="evenodd" fill-rule="evenodd" stroke-linecap="round" stroke-linejoin="round" stroke-miterlimit="1.5" version="1.1" viewBox="0 0 32 32" xml:space="preserve" xmlns="http://www.w3.org/2000/svg">
<metadata>
<rdf:RDF xmlns:cc="http://web.resource.org/cc/" xmlns:dc="http://purl.org/dc/elements/1.1/" xmlns:rdf="http://www.w3.org/1999/02/22-rdf-syntax-ns#">

     <rdf:Description rdf:about="">
       <dc:title>Mutant Standard emoji 2023.12</dc:title>
     </rdf:Description>

    <cc:work rdf:about="">
        <cc:license rdf:resource="http://creativecommons.org/licenses/by-nc-sa/4.0/"/>
        <cc:attributionName>Caius Nocturne</cc:attributionName>
        <cc:attributionURL>http://mutant.tech/</cc:attributionURL>
    </cc:work>

</rdf:RDF>
</metadata>
<rect id="shinto_shrine" width="32" height="32" fill="none"/><clipPath id="_clip1"><rect width="32" height="32"/></clipPath><g clip-path="url(#_clip1)"><g id="outline"><path d="m2 5c5e-3 1e-3 5.088 1 14 1 8.915 0 14-1 14-1v1l-1 2s-0.36 0.045-1.105 0.108l-0.895 1.892s-1.151 0.114-3 0.233v1.767h3v3h-3v12h1v3h-1-2-1v-3h1v-12h-12v12h1v3h-1-2-1v-3h1v-12h-3v-3h3v-1.767c-1.849-0.119-3-0.233-3-0.233l-0.895-1.892c-0.745-0.063-1.105-0.108-1.105-0.108l-1-2v-1zm8 5.346v1.654h4.5v-1.51c-1.631-0.022-3.163-0.078-4.5-0.144zm12 0c-1.337 0.066-2.869 0.122-4.5 0.144v1.51h4.5v-1.654z" fill="none" stroke="#000" stroke-width="4px"/></g><g id="emoji"><path d="m27 14-1-1h-20l-1 1v1h22v-1z" fill="#740a0e"/><path d="m3 8-1-2v-1s7.582 2 14 2c6.721 0 14-2 14-2v1l-1 2s-4.021 0.5-13 0.5-13-0.5-13-0.5z" fill="#2c2e31"/><path d="m28 7.885v-1h-24v1l1 2.115s5.057 0.5 11 0.5 11-0.5 11-0.5l1-2.115z" fill="#740a0e"/><path d="m28 6.885-1 2.115s-1.151 0.114-3 0.233v2.767h3v2h-3v16h-2v-16h-12v16h-2v-16h-3v-2h3v-2.767c-1.849-0.119-3-0.233-3-0.233l-1-2.115h24zm-18 2.461v2.654h4.5v-2.51c-1.631-0.022-3.163-0.078-4.5-0.144zm12 0c-1.337 0.066-2.869 0.122-4.5 0.144v2.51h4.5v-2.654z" fill="#d41613"/><rect x="21" y="27" width="4" height="3" fill="#404247"/><rect x="7" y="27" width="4" height="3" fill="#404247"/><path d="m3 7-1-2s5.085 1 14 1 14-1 14-1l-1 2s-4.021 0.5-13 0.5-13-0.5-13-0.5z" fill="#404247"/></g></g></svg>
