<?xml version="1.0" encoding="UTF-8"?>
<!DOCTYPE svg  PUBLIC '-//W3C//DTD SVG 1.1//EN'  'http://www.w3.org/Graphics/SVG/1.1/DTD/svg11.dtd'>
<svg clip-rule="evenodd" fill-rule="evenodd" stroke-linejoin="round" stroke-miterlimit="2" version="1.1" viewBox="0 0 32 32" xml:space="preserve" xmlns="http://www.w3.org/2000/svg">
<metadata>
<rdf:RDF xmlns:cc="http://web.resource.org/cc/" xmlns:dc="http://purl.org/dc/elements/1.1/" xmlns:rdf="http://www.w3.org/1999/02/22-rdf-syntax-ns#">

     <rdf:Description rdf:about="">
       <dc:title>Mutant Standard emoji 2023.12</dc:title>
     </rdf:Description>

    <cc:work rdf:about="">
        <cc:license rdf:resource="http://creativecommons.org/licenses/by-nc-sa/4.0/"/>
        <cc:attributionName>Caius Nocturne</cc:attributionName>
        <cc:attributionURL>http://mutant.tech/</cc:attributionURL>
    </cc:work>

</rdf:RDF>
</metadata>

    <rect id="credit_card" width="32" height="32" fill="none"/>
    <clipPath id="_clip1">
        <rect width="32" height="32"/>
    </clipPath>
    <g clip-path="url(#_clip1)">
        <g id="outline">
            <path d="m28.099 4.001 0.099 4e-3 0.099 6e-3 0.098 8e-3 0.098 0.011 0.098 0.014 0.097 0.015 0.096 0.018 0.096 0.021 0.095 0.023 0.095 0.024 0.093 0.028 0.094 0.029 0.092 0.032 0.091 0.034 0.091 0.036 0.089 0.039 0.089 0.04 0.088 0.043 0.087 0.045 0.085 0.047 0.085 0.049 0.083 0.052 0.082 0.053 0.081 0.055 0.08 0.058 0.078 0.059 0.077 0.062 0.076 0.063 0.074 0.066 0.073 0.067 0.071 0.07 0.069 0.071 0.067 0.072 0.066 0.074 0.063 0.076 0.062 0.077 0.059 0.078 0.058 0.08 0.055 0.081 0.053 0.082 0.052 0.083 0.049 0.085 0.047 0.086 0.045 0.086 0.043 0.088 0.04 0.089 0.039 0.089 0.036 0.091 0.034 0.091 0.032 0.092 0.029 0.094 0.028 0.094 0.024 0.094 0.023 0.095 0.021 0.096 0.018 0.096 0.015 0.097 0.014 0.098 0.011 0.097 8e-3 0.099 6e-3 0.099 4e-3 0.098 1e-3 0.088v16.024l-1e-3 0.088-4e-3 0.098-6e-3 0.099-8e-3 0.099-0.011 0.097-0.014 0.098-0.015 0.097-0.018 0.096-0.021 0.096-0.023 0.095-0.024 0.094-0.028 0.094-0.029 0.094-0.032 0.092-0.034 0.091-0.036 0.091-0.039 0.089-0.04 0.089-0.043 0.088-0.045 0.086-0.047 0.086-0.049 0.085-0.052 0.083-0.053 0.082-0.055 0.081-0.058 0.08-0.059 0.078-0.062 0.077-0.063 0.076-0.066 0.074-0.067 0.072-0.069 0.071-0.072 0.07-0.072 0.067-0.074 0.066-0.076 0.063-0.077 0.062-0.078 0.059-0.08 0.058-0.081 0.055-0.082 0.053-0.083 0.052-0.085 0.049-0.086 0.047-0.086 0.045-0.088 0.043-0.089 0.04-0.089 0.039-0.091 0.036-0.091 0.034-0.092 0.032-0.094 0.029-0.093 0.028-0.095 0.024-0.095 0.023-0.096 0.021-0.096 0.018-0.097 0.015-0.098 0.014-0.098 0.011-0.098 8e-3 -0.099 6e-3 -0.099 4e-3 -0.086 1e-3h-24.026l-0.086-1e-3 -0.099-4e-3 -0.099-6e-3 -0.098-8e-3 -0.098-0.011-0.098-0.014-0.097-0.015-0.096-0.018-0.096-0.021-0.095-0.023-0.095-0.024-0.093-0.028-0.094-0.029-0.092-0.032-0.091-0.034-0.091-0.036-0.089-0.039-0.089-0.04-0.088-0.043-0.086-0.045-0.086-0.047-0.085-0.049-0.083-0.052-0.082-0.053-0.081-0.055-0.08-0.058-0.078-0.059-0.077-0.062-0.076-0.063-0.074-0.066-0.072-0.067-0.071-0.069-0.07-0.072-0.067-0.072-0.066-0.074-0.063-0.076-0.062-0.077-0.059-0.078-0.058-0.08-0.055-0.081-0.053-0.082-0.052-0.083-0.049-0.085-0.047-0.086-0.045-0.086-0.043-0.088-0.04-0.088-0.039-0.09-0.036-0.091-0.034-0.091-0.032-0.093-0.029-0.092-0.027-0.094-0.025-0.095-0.023-0.095-0.021-0.096-0.018-0.096-0.015-0.097-0.014-0.098-0.011-0.098-8e-3 -0.098-6e-3 -0.099-4e-3 -0.099-1e-3 -0.087v-16.024l1e-3 -0.087 4e-3 -0.099 6e-3 -0.099 8e-3 -0.098 0.011-0.098 0.014-0.098 0.015-0.097 0.018-0.096 0.021-0.096 0.023-0.095 0.025-0.095 0.027-0.094 0.029-0.092 0.032-0.093 0.034-0.091 0.036-0.091 0.039-0.09 0.04-0.088 0.043-0.088 0.045-0.086 0.047-0.086 0.049-0.085 0.052-0.083 0.053-0.082 0.055-0.081 0.058-0.08 0.059-0.078 0.062-0.077 0.063-0.076 0.066-0.074 0.067-0.072 0.07-0.072 0.071-0.069 0.072-0.067 0.074-0.066 0.076-0.063 0.077-0.062 0.078-0.059 0.08-0.058 0.081-0.055 0.082-0.053 0.083-0.052 0.085-0.049 0.085-0.047 0.087-0.045 0.088-0.043 0.089-0.04 0.089-0.039 0.091-0.036 0.091-0.034 0.093-0.032 0.093-0.029 0.093-0.028 0.095-0.024 0.095-0.023 0.096-0.021 0.096-0.018 0.097-0.015 0.098-0.014 0.098-0.011 0.098-8e-3 0.099-6e-3 0.099-4e-3 0.087-1e-3h24.024l0.087 1e-3zm-24.087 3.999h-0.012v0.012 15.976 0.012h0.013 23.974 0.013v-0.012-15.976-0.012h-0.012-23.976z"/>
        </g>
        <g id="emoji">
            <path d="m30 8c0-0.53-0.211-1.039-0.586-1.414s-0.884-0.586-1.414-0.586h-24c-0.53 0-1.039 0.211-1.414 0.586s-0.586 0.884-0.586 1.414v16c0 0.53 0.211 1.039 0.586 1.414s0.884 0.586 1.414 0.586h24c0.53 0 1.039-0.211 1.414-0.586s0.586-0.884 0.586-1.414v-16z" fill="#e82731"/>
            <path d="m9 14c0-0.552-0.448-1-1-1h-3c-0.552 0-1 0.448-1 1v2c0 0.552 0.448 1 1 1h3c0.552 0 1-0.448 1-1v-2z" fill="#e48a1b"/>
            <path d="m6 18.5c0-0.133-0.053-0.26-0.146-0.354-0.094-0.093-0.221-0.146-0.354-0.146h-1c-0.133 0-0.26 0.053-0.354 0.146-0.093 0.094-0.146 0.221-0.146 0.354v2c0 0.133 0.053 0.26 0.146 0.354 0.094 0.093 0.221 0.146 0.354 0.146h1c0.133 0 0.26-0.053 0.354-0.146 0.093-0.094 0.146-0.221 0.146-0.354v-2z" fill="#f49b9f"/>
            <path d="m14 22.5c0-0.133-0.053-0.26-0.146-0.354-0.094-0.093-0.221-0.146-0.354-0.146h-9c-0.133 0-0.26 0.053-0.354 0.146-0.093 0.094-0.146 0.221-0.146 0.354s0.053 0.26 0.146 0.354c0.094 0.093 0.221 0.146 0.354 0.146h9c0.133 0 0.26-0.053 0.354-0.146 0.093-0.094 0.146-0.221 0.146-0.354z" fill="#f49b9f"/>
            <path d="m18 18.5c0-0.133-0.053-0.26-0.146-0.354-0.094-0.093-0.221-0.146-0.354-0.146h-1c-0.133 0-0.26 0.053-0.354 0.146-0.093 0.094-0.146 0.221-0.146 0.354v2c0 0.133 0.053 0.26 0.146 0.354 0.094 0.093 0.221 0.146 0.354 0.146h1c0.133 0 0.26-0.053 0.354-0.146 0.093-0.094 0.146-0.221 0.146-0.354v-2z" fill="#f49b9f"/>
            <path d="m12 18.5c0-0.133-0.053-0.26-0.146-0.354-0.094-0.093-0.221-0.146-0.354-0.146h-1c-0.133 0-0.26 0.053-0.354 0.146-0.093 0.094-0.146 0.221-0.146 0.354v2c0 0.133 0.053 0.26 0.146 0.354 0.094 0.093 0.221 0.146 0.354 0.146h1c0.133 0 0.26-0.053 0.354-0.146 0.093-0.094 0.146-0.221 0.146-0.354v-2z" fill="#f49b9f"/>
            <path d="m24 18.5c0-0.133-0.053-0.26-0.146-0.354-0.094-0.093-0.221-0.146-0.354-0.146h-1c-0.133 0-0.26 0.053-0.354 0.146-0.093 0.094-0.146 0.221-0.146 0.354v2c0 0.133 0.053 0.26 0.146 0.354 0.094 0.093 0.221 0.146 0.354 0.146h1c0.133 0 0.26-0.053 0.354-0.146 0.093-0.094 0.146-0.221 0.146-0.354v-2z" fill="#f49b9f"/>
            <path d="m9 18.5c0-0.133-0.053-0.26-0.146-0.354-0.094-0.093-0.221-0.146-0.354-0.146h-1c-0.133 0-0.26 0.053-0.354 0.146-0.093 0.094-0.146 0.221-0.146 0.354v2c0 0.133 0.053 0.26 0.146 0.354 0.094 0.093 0.221 0.146 0.354 0.146h1c0.133 0 0.26-0.053 0.354-0.146 0.093-0.094 0.146-0.221 0.146-0.354v-2z" fill="#f49b9f"/>
            <path d="m21 18.5c0-0.133-0.053-0.26-0.146-0.354-0.094-0.093-0.221-0.146-0.354-0.146h-1c-0.133 0-0.26 0.053-0.354 0.146-0.093 0.094-0.146 0.221-0.146 0.354v2c0 0.133 0.053 0.26 0.146 0.354 0.094 0.093 0.221 0.146 0.354 0.146h1c0.133 0 0.26-0.053 0.354-0.146 0.093-0.094 0.146-0.221 0.146-0.354v-2z" fill="#f49b9f"/>
            <path d="m15 18.5c0-0.133-0.053-0.26-0.146-0.354-0.094-0.093-0.221-0.146-0.354-0.146h-1c-0.133 0-0.26 0.053-0.354 0.146-0.093 0.094-0.146 0.221-0.146 0.354v2c0 0.133 0.053 0.26 0.146 0.354 0.094 0.093 0.221 0.146 0.354 0.146h1c0.133 0 0.26-0.053 0.354-0.146 0.093-0.094 0.146-0.221 0.146-0.354v-2z" fill="#f49b9f"/>
            <path d="m27 18.5c0-0.133-0.053-0.26-0.146-0.354-0.094-0.093-0.221-0.146-0.354-0.146h-1c-0.133 0-0.26 0.053-0.354 0.146-0.093 0.094-0.146 0.221-0.146 0.354v2c0 0.133 0.053 0.26 0.146 0.354 0.094 0.093 0.221 0.146 0.354 0.146h1c0.133 0 0.26-0.053 0.354-0.146 0.093-0.094 0.146-0.221 0.146-0.354v-2z" fill="#f49b9f"/>
            <rect x="18" y="8" width="9" height="7" fill="none"/>
            <clipPath id="_clip2">
                <rect x="18" y="8" width="9" height="7"/>
            </clipPath>
            <g clip-path="url(#_clip2)" fill="#8c0f15">
                <path d="m27 11h-9v-1h9v1z"/>
                <path d="m27 13h-9v-1h9v1z"/>
                <path d="m26 15h-1v-4.882l-2.316 4.632h-0.368l-2.316-4.632v4.882h-1v-7.653l0.655-0.154 2.845 5.689 2.845-5.689 0.655 0.154v7.653z"/>
            </g>
        </g>
    </g>
</svg>
