<?xml version="1.0" encoding="UTF-8"?>
<!DOCTYPE svg  PUBLIC '-//W3C//DTD SVG 1.1//EN'  'http://www.w3.org/Graphics/SVG/1.1/DTD/svg11.dtd'>
<svg clip-rule="evenodd" fill-rule="evenodd" stroke-linecap="round" stroke-linejoin="round" stroke-miterlimit="1.5" version="1.1" viewBox="0 0 32 32" xml:space="preserve" xmlns="http://www.w3.org/2000/svg">
<metadata>
<rdf:RDF xmlns:cc="http://web.resource.org/cc/" xmlns:dc="http://purl.org/dc/elements/1.1/" xmlns:rdf="http://www.w3.org/1999/02/22-rdf-syntax-ns#">

     <rdf:Description rdf:about="">
       <dc:title>Mutant Standard emoji 2023.12</dc:title>
     </rdf:Description>

    <cc:work rdf:about="">
        <cc:license rdf:resource="http://creativecommons.org/licenses/by-nc-sa/4.0/"/>
        <cc:attributionName>Caius Nocturne</cc:attributionName>
        <cc:attributionURL>http://mutant.tech/</cc:attributionURL>
    </cc:work>

</rdf:RDF>
</metadata>

    <rect id="green_money" width="32" height="32" fill="none"/>
    <g id="outline">
        <rect x="2" y="7" width="28" height="18" fill="none" stroke="#000" stroke-width="4px"/>
    </g>
    <g id="Layer2">
        <path d="m29 21h-26l-1 1v3h28v-3l-1-1z" fill="#60ae33"/>
        <rect x="2" y="7" width="28" height="15" fill="#80c95b"/>
        <g fill="#5da436">
            <path d="m8.5 9.5c0-0.828-0.672-1.5-1.5-1.5h-2.5c-0.398 0-0.779 0.158-1.061 0.439-0.281 0.282-0.439 0.663-0.439 1.061 0 0.828 0.672 1.5 1.5 1.5h2.5c0.828 0 1.5-0.672 1.5-1.5z"/>
            <path d="m8.5 19.5c0-0.828-0.672-1.5-1.5-1.5h-2.5c-0.398 0-0.779 0.158-1.061 0.439-0.281 0.282-0.439 0.663-0.439 1.061 0 0.828 0.672 1.5 1.5 1.5h2.5c0.828 0 1.5-0.672 1.5-1.5z"/>
            <path d="m29 9.5c0-0.828-0.672-1.5-1.5-1.5h-2.5c-0.398 0-0.779 0.158-1.061 0.439-0.281 0.282-0.439 0.663-0.439 1.061 0 0.828 0.672 1.5 1.5 1.5h2.5c0.828 0 1.5-0.672 1.5-1.5z"/>
            <path d="m29 19.5c0-0.828-0.672-1.5-1.5-1.5h-2.5c-0.398 0-0.779 0.158-1.061 0.439-0.281 0.282-0.439 0.663-0.439 1.061 0 0.828 0.672 1.5 1.5 1.5h2.5c0.828 0 1.5-0.672 1.5-1.5z"/>
            <path d="m21 14c0-0.552-0.448-1-1-1s-1 0.448-1 1v1c0 0.552 0.448 1 1 1s1-0.448 1-1v-1z"/>
            <path d="m24 14c0-0.552-0.448-1-1-1s-1 0.448-1 1v1c0 0.552 0.448 1 1 1s1-0.448 1-1v-1z"/>
        </g>
        <rect x="8" y="11" width="8" height="7" fill="none"/>
        <clipPath id="_clip1">
            <rect x="8" y="11" width="8" height="7"/>
        </clipPath>
        <g clip-path="url(#_clip1)" fill="#fff">
            <path d="m16 14h-8v-1h8v1z"/>
            <path d="m16 16h-8v-1h8v1z"/>
            <path d="m15 10.335v7.665h-1v-4.5l-1.771 4.25h-0.458l-1.771-4.25v4.5h-1v-7.665l0.706-0.141 2.294 5.506 2.294-5.506 0.706 0.141z"/>
        </g>
        <path d="m27 20h-22v-11h22v11zm-21-10v9h20v-9h-20z" fill="#5da436"/>
        <path d="m20 22-1-1h-6l-1 1v3h8v-3z" fill="#d9d9d9"/>
        <rect x="12" y="7" width="8" height="15" fill="#fff"/>
    </g>
</svg>
