<?xml version="1.0" encoding="UTF-8"?>
<!DOCTYPE svg  PUBLIC '-//W3C//DTD SVG 1.1//EN'  'http://www.w3.org/Graphics/SVG/1.1/DTD/svg11.dtd'>
<svg clip-rule="evenodd" fill-rule="evenodd" stroke-linejoin="round" stroke-miterlimit="2" version="1.1" viewBox="0 0 32 32" xml:space="preserve" xmlns="http://www.w3.org/2000/svg">
<metadata>
<rdf:RDF xmlns:cc="http://web.resource.org/cc/" xmlns:dc="http://purl.org/dc/elements/1.1/" xmlns:rdf="http://www.w3.org/1999/02/22-rdf-syntax-ns#">

     <rdf:Description rdf:about="">
       <dc:title>Mutant Standard emoji 2023.12</dc:title>
     </rdf:Description>

    <cc:work rdf:about="">
        <cc:license rdf:resource="http://creativecommons.org/licenses/by-nc-sa/4.0/"/>
        <cc:attributionName>Caius Nocturne</cc:attributionName>
        <cc:attributionURL>http://mutant.tech/</cc:attributionURL>
    </cc:work>

</rdf:RDF>
</metadata>

    <rect id="moneybag" width="32" height="32" fill="none"/>
    <g id="outline">
        <path d="m21.138 5.005 0.137 0.014 0.136 0.024 0.133 0.033 0.132 0.042 0.128 0.051 0.124 0.059 0.12 0.068 0.115 0.077 0.109 0.084 0.103 0.091 0.097 0.098 0.09 0.105 5.154 6.443 0.096 0.121 0.098 0.126 0.096 0.127 0.095 0.128 0.093 0.129 0.092 0.129 0.09 0.131 0.089 0.131 0.088 0.133 0.086 0.133 0.168 0.268 0.081 0.136 0.08 0.136 0.079 0.137 0.077 0.138 0.076 0.139 0.074 0.139 0.073 0.14 0.071 0.141 0.07 0.141 0.068 0.142 0.067 0.143 0.065 0.143 0.064 0.144 0.062 0.145 0.061 0.146 0.059 0.145 0.057 0.147 0.056 0.147 0.055 0.148 0.052 0.148 0.052 0.149 0.05 0.149 0.048 0.15 0.046 0.15 0.045 0.151 0.044 0.152 0.042 0.151 0.04 0.153 0.039 0.153 0.037 0.153 0.035 0.153 0.034 0.154 0.033 0.155 0.03 0.154 0.029 0.156 0.028 0.155 0.05 0.312 0.022 0.157 0.021 0.157 0.019 0.157 0.018 0.157 0.016 0.158 0.014 0.158 0.013 0.158 0.011 0.158 9e-3 0.159 7e-3 0.159 6e-3 0.159 5e-3 0.159 2e-3 0.16 1e-3 0.154v0.451l-1e-3 0.118-2e-3 0.124-4e-3 0.124-5e-3 0.124-7e-3 0.123-9e-3 0.124-9e-3 0.123-0.012 0.122-0.013 0.123-0.014 0.122-0.016 0.122-0.018 0.122-0.018 0.121-0.021 0.121-0.022 0.121-0.023 0.12-0.025 0.12-0.026 0.119-0.027 0.12-0.03 0.119-0.03 0.118-0.032 0.118-0.033 0.117-0.035 0.117-0.036 0.117-0.038 0.116-0.039 0.116-0.041 0.115-0.041 0.114-0.088 0.228-0.046 0.113-0.096 0.224-0.05 0.111-0.052 0.111-0.053 0.11-0.054 0.109-0.055 0.109-0.057 0.108-0.058 0.107-0.06 0.107-0.06 0.106-0.126 0.21-0.065 0.104-0.066 0.103-0.067 0.102-0.069 0.102-0.07 0.1-0.071 0.1-0.072 0.099-0.074 0.099-0.075 0.097-0.076 0.097-0.078 0.096-0.078 0.094-0.08 0.095-0.082 0.093-0.082 0.092-0.084 0.091-0.085 0.09-0.086 0.09-0.087 0.088-0.088 0.087-0.09 0.086-0.09 0.085-0.091 0.084-0.092 0.082-0.093 0.082-0.094 0.08-0.095 0.078-0.096 0.078-0.097 0.076-0.097 0.075-0.099 0.074-0.099 0.072-0.1 0.071-0.101 0.07-0.101 0.069-0.102 0.067-0.103 0.066-0.104 0.065-0.21 0.126-0.106 0.06-0.107 0.06-0.107 0.058-0.108 0.057-0.109 0.055-0.109 0.054-0.11 0.053-0.111 0.052-0.111 0.05-0.224 0.096-0.113 0.046-0.228 0.088-0.114 0.041-0.115 0.041-0.116 0.039-0.116 0.038-0.117 0.036-0.117 0.035-0.117 0.033-0.118 0.032-0.118 0.03-0.119 0.029-0.119 0.028-0.12 0.026-0.12 0.025-0.12 0.023-0.121 0.022-0.121 0.021-0.121 0.018-0.122 0.018-0.122 0.016-0.122 0.014-0.123 0.013-0.122 0.012-0.124 9e-3 -0.123 9e-3 -0.123 7e-3 -0.124 5e-3 -0.124 4e-3 -0.124 2e-3 -0.118 1e-3h-10.012l-0.118-1e-3 -0.124-2e-3 -0.124-4e-3 -0.124-5e-3 -0.123-7e-3 -0.246-0.018-0.123-0.012-0.123-0.013-0.122-0.014-0.122-0.016-0.122-0.018-0.121-0.018-0.121-0.021-0.121-0.022-0.12-0.023-0.12-0.025-0.12-0.026-0.119-0.028-0.119-0.029-0.118-0.03-0.118-0.032-0.117-0.033-0.117-0.035-0.117-0.036-0.116-0.038-0.116-0.039-0.115-0.041-0.114-0.041-0.228-0.088-0.113-0.046-0.224-0.096-0.111-0.05-0.111-0.052-0.11-0.053-0.109-0.054-0.109-0.055-0.108-0.057-0.107-0.058-0.107-0.06-0.106-0.06-0.21-0.126-0.104-0.065-0.103-0.066-0.102-0.067-0.102-0.069-0.1-0.07-0.1-0.071-0.099-0.072-0.099-0.074-0.097-0.075-0.097-0.076-0.096-0.078-0.095-0.078-0.094-0.08-0.093-0.082-0.092-0.082-0.091-0.084-0.09-0.085-0.09-0.086-0.088-0.087-0.087-0.088-0.086-0.09-0.085-0.09-0.084-0.091-0.082-0.092-0.082-0.093-0.08-0.094-0.078-0.095-0.078-0.096-0.076-0.097-0.075-0.097-0.074-0.099-0.072-0.099-0.071-0.1-0.07-0.1-0.069-0.102-0.067-0.102-0.066-0.103-0.065-0.104-0.126-0.21-0.06-0.106-0.06-0.107-0.058-0.107-0.057-0.108-0.055-0.109-0.054-0.109-0.053-0.11-0.052-0.111-0.05-0.111-0.096-0.224-0.046-0.113-0.088-0.228-0.041-0.114-0.041-0.115-0.039-0.116-0.038-0.116-0.036-0.117-0.035-0.117-0.033-0.117-0.032-0.118-0.03-0.118-0.03-0.119-0.027-0.12-0.026-0.119-0.025-0.12-0.023-0.12-0.022-0.121-0.021-0.121-0.018-0.121-0.018-0.122-0.016-0.122-0.014-0.122-0.013-0.123-0.012-0.123-0.018-0.246-7e-3 -0.123-5e-3 -0.124-4e-3 -0.124-2e-3 -0.124-1e-3 -0.118v-0.451l1e-3 -0.154 2e-3 -0.16 5e-3 -0.159 6e-3 -0.159 7e-3 -0.159 9e-3 -0.159 0.011-0.158 0.013-0.158 0.014-0.158 0.016-0.158 0.018-0.157 0.019-0.157 0.021-0.157 0.022-0.157 0.05-0.312 0.028-0.155 0.029-0.156 0.03-0.154 0.033-0.155 0.034-0.154 0.035-0.153 0.037-0.153 0.039-0.153 0.04-0.153 0.042-0.151 0.044-0.152 0.045-0.151 0.046-0.15 0.048-0.15 0.05-0.149 0.052-0.149 0.052-0.148 0.055-0.148 0.056-0.147 0.057-0.147 0.059-0.146 0.061-0.145 0.062-0.145 0.064-0.144 0.065-0.143 0.067-0.143 0.068-0.142 0.07-0.141 0.071-0.141 0.073-0.14 0.074-0.139 0.076-0.139 0.077-0.138 0.079-0.137 0.08-0.136 0.082-0.136 0.083-0.134 0.084-0.134 0.086-0.134 0.088-0.132 0.089-0.131 0.09-0.131 0.092-0.129 0.093-0.129 0.095-0.128 0.096-0.127 0.098-0.126 0.096-0.121 5.154-6.443 0.09-0.105 0.097-0.098 0.103-0.091 0.109-0.084 0.115-0.077 0.12-0.068 0.124-0.059 0.128-0.051 0.132-0.042 0.133-0.033 0.136-0.024 0.137-0.014 0.138-5e-3h10l0.138 5e-3zm-10.138 1.995-5.151 6.439-0.086 0.109-0.085 0.109-0.083 0.11-0.082 0.111-0.081 0.111-0.08 0.113-0.078 0.113-0.077 0.114-0.076 0.114-0.075 0.116-0.073 0.116-0.072 0.117-0.071 0.117-0.069 0.118-0.068 0.119-0.067 0.119-0.066 0.12-0.064 0.121-0.063 0.122-0.062 0.122-0.061 0.122-0.059 0.123-0.058 0.124-0.056 0.124-0.055 0.125-0.054 0.126-0.053 0.126-0.051 0.126-0.05 0.127-0.048 0.128-0.047 0.128-0.046 0.128-0.045 0.129-0.043 0.129-0.042 0.13-0.04 0.131-0.039 0.13-0.038 0.132-0.036 0.131-0.035 0.132-0.033 0.133-0.033 0.132-0.03 0.133-0.03 0.134-0.028 0.134-0.026 0.134-0.025 0.134-0.024 0.135-0.023 0.135-0.021 0.135-0.019 0.136-0.018 0.136-0.017 0.136-0.015 0.137-0.014 0.136-0.012 0.137-0.011 0.137-0.01 0.138-8e-3 0.137-6e-3 0.138-5e-3 0.138-4e-3 0.138-2e-3 0.138-1e-3 0.138v0.44l1e-3 0.099 1e-3 0.1 8e-3 0.198 5e-3 0.098 7e-3 0.099 8e-3 0.098 9e-3 0.099 0.01 0.098 0.012 0.097 0.013 0.098 0.014 0.097 0.015 0.097 0.016 0.097 0.018 0.097 0.018 0.096 0.02 0.096 0.021 0.096 0.022 0.095 0.023 0.095 0.025 0.095 0.025 0.094 0.027 0.094 0.028 0.094 0.029 0.093 0.03 0.093 0.031 0.092 0.032 0.092 0.034 0.092 0.034 0.091 0.036 0.091 0.037 0.09 0.038 0.09 0.039 0.09 0.04 0.089 0.041 0.088 0.042 0.088 0.044 0.088 0.044 0.087 0.045 0.086 0.047 0.086 0.096 0.17 0.05 0.084 0.051 0.084 0.051 0.083 0.053 0.083 0.054 0.081 0.055 0.082 0.056 0.08 0.057 0.08 0.058 0.08 0.059 0.078 0.06 0.078 0.061 0.077 0.062 0.077 0.063 0.076 0.064 0.075 0.065 0.075 0.066 0.073 0.134 0.146 0.069 0.071 0.07 0.071 0.071 0.07 0.071 0.069 0.146 0.134 0.073 0.066 0.075 0.065 0.075 0.064 0.076 0.063 0.077 0.062 0.077 0.061 0.078 0.06 0.078 0.059 0.08 0.058 0.08 0.057 0.08 0.056 0.082 0.055 0.081 0.054 0.083 0.053 0.083 0.051 0.084 0.051 0.084 0.05 0.17 0.096 0.086 0.047 0.086 0.045 0.087 0.044 0.088 0.044 0.088 0.042 0.088 0.041 0.089 0.04 0.09 0.039 0.09 0.038 0.09 0.037 0.091 0.036 0.091 0.034 0.092 0.034 0.092 0.032 0.092 0.031 0.093 0.03 0.093 0.029 0.094 0.028 0.094 0.027 0.094 0.025 0.095 0.025 0.095 0.023 0.095 0.022 0.096 0.021 0.096 0.02 0.096 0.018 0.097 0.018 0.097 0.016 0.097 0.015 0.097 0.014 0.098 0.013 0.097 0.012 0.098 0.01 0.099 9e-3 0.098 8e-3 0.099 7e-3 0.098 5e-3 0.198 8e-3 0.1 1e-3 0.099 1e-3h10l0.099-1e-3 0.1-1e-3 0.198-8e-3 0.098-5e-3 0.099-7e-3 0.098-8e-3 0.099-9e-3 0.098-0.01 0.097-0.012 0.098-0.013 0.097-0.014 0.097-0.015 0.097-0.016 0.097-0.018 0.096-0.018 0.096-0.02 0.096-0.021 0.095-0.022 0.095-0.023 0.095-0.025 0.094-0.025 0.094-0.027 0.094-0.028 0.093-0.029 0.093-0.03 0.092-0.031 0.092-0.032 0.092-0.034 0.091-0.034 0.091-0.036 0.09-0.037 0.09-0.038 0.09-0.039 0.089-0.04 0.088-0.041 0.088-0.042 0.088-0.044 0.087-0.044 0.086-0.045 0.086-0.047 0.17-0.096 0.084-0.05 0.084-0.051 0.083-0.051 0.083-0.053 0.081-0.054 0.082-0.055 0.08-0.056 0.08-0.057 0.08-0.058 0.078-0.059 0.078-0.06 0.077-0.061 0.077-0.062 0.076-0.063 0.075-0.064 0.075-0.065 0.073-0.066 0.146-0.134 0.071-0.069 0.071-0.07 0.07-0.071 0.069-0.071 0.134-0.146 0.066-0.073 0.065-0.075 0.064-0.075 0.063-0.076 0.062-0.077 0.061-0.077 0.06-0.078 0.059-0.078 0.058-0.08 0.057-0.08 0.056-0.08 0.055-0.082 0.054-0.081 0.053-0.083 0.051-0.083 0.051-0.084 0.05-0.084 0.096-0.17 0.047-0.086 0.045-0.086 0.044-0.087 0.044-0.088 0.042-0.088 0.041-0.088 0.04-0.089 0.039-0.09 0.038-0.09 0.037-0.09 0.036-0.091 0.034-0.091 0.034-0.092 0.032-0.092 0.031-0.092 0.03-0.093 0.029-0.093 0.028-0.094 0.027-0.094 0.025-0.094 0.025-0.095 0.023-0.095 0.022-0.095 0.021-0.096 0.02-0.096 0.018-0.096 0.018-0.097 0.016-0.097 0.015-0.097 0.014-0.097 0.013-0.098 0.012-0.097 0.01-0.098 9e-3 -0.099 8e-3 -0.098 7e-3 -0.099 5e-3 -0.098 8e-3 -0.198 1e-3 -0.1 1e-3 -0.099v-0.44l-1e-3 -0.138-2e-3 -0.138-4e-3 -0.138-5e-3 -0.138-6e-3 -0.138-8e-3 -0.137-0.01-0.138-0.011-0.137-0.012-0.137-0.014-0.136-0.015-0.137-0.017-0.136-0.018-0.136-0.019-0.136-0.021-0.135-0.023-0.135-0.024-0.135-0.025-0.134-0.026-0.134-0.028-0.134-0.03-0.134-0.03-0.133-0.033-0.132-0.033-0.133-0.035-0.132-0.036-0.131-0.038-0.132-0.039-0.13-0.04-0.131-0.042-0.13-0.043-0.129-0.045-0.129-0.046-0.128-0.047-0.128-0.048-0.128-0.05-0.127-0.051-0.126-0.053-0.126-0.054-0.126-0.055-0.125-0.056-0.124-0.058-0.124-0.059-0.123-0.061-0.122-0.062-0.122-0.063-0.122-0.064-0.121-0.066-0.12-0.067-0.119-0.068-0.119-0.069-0.118-0.071-0.117-0.072-0.117-0.073-0.116-0.075-0.116-0.076-0.114-0.077-0.114-0.078-0.113-0.08-0.113-0.081-0.111-0.082-0.111-0.083-0.11-0.085-0.109-0.086-0.109-5.151-6.439h-10z"/>
        <path d="m9.072 1e-3 0.104 7e-3 0.104 0.012 0.103 0.017 0.102 0.023 3.435 0.858 2.448-0.815 0.094-0.029 0.096-0.025 0.097-0.019 0.098-0.015 0.099-9e-3 0.099-5e-3h0.099l0.098 5e-3 0.099 9e-3 0.098 0.015 0.097 0.019 0.096 0.025 0.094 0.029 2.448 0.815 3.435-0.858 0.102-0.023 0.103-0.017 0.104-0.012 0.104-7e-3 0.105-1e-3 0.104 5e-3 0.105 0.01 0.103 0.015 0.102 0.021 0.102 0.026 0.1 0.031 0.098 0.037 0.096 0.041 0.093 0.047 0.091 0.051 0.089 0.056 0.085 0.061 0.082 0.065 0.078 0.069 0.075 0.073 0.071 0.077 0.066 0.08 0.063 0.084 0.058 0.087 0.053 0.09 0.048 0.093 0.044 0.095 0.039 0.097 0.033 0.099 0.028 0.101 0.023 0.102 0.018 0.103 0.012 0.104 7e-3 0.104 1e-3 0.105-4e-3 0.104-0.01 0.105-0.015 0.103-0.021 0.103-0.026 0.101-0.031 0.1-0.036 0.098-2 5-0.041 0.095-0.046 0.093-0.05 0.09-0.055 0.088-0.06 0.084-0.064 0.082-0.068 0.078-0.072 0.074-0.075 0.071-0.08 0.066-0.082 0.063-0.086 0.058-0.089 0.053-0.091 0.049-0.093 0.044-0.096 0.039-0.098 0.034-0.099 0.029-0.101 0.024-0.102 0.019-0.102 0.013-0.104 8e-3 -0.103 3e-3h-10l-0.103-3e-3 -0.104-8e-3 -0.102-0.013-0.102-0.019-0.101-0.024-0.099-0.029-0.098-0.034-0.096-0.039-0.093-0.044-0.091-0.049-0.089-0.053-0.086-0.058-0.082-0.063-0.08-0.066-0.075-0.071-0.072-0.074-0.068-0.078-0.064-0.082-0.06-0.084-0.055-0.088-0.05-0.09-0.046-0.093-0.041-0.095-2-5-0.036-0.098-0.031-0.1-0.026-0.101-0.021-0.103-0.015-0.103-0.01-0.105-4e-3 -0.104 1e-3 -0.105 7e-3 -0.104 0.012-0.104 0.018-0.103 0.023-0.102 0.028-0.101 0.033-0.099 0.039-0.097 0.044-0.095 0.048-0.093 0.053-0.09 0.058-0.087 0.063-0.084 0.066-0.08 0.071-0.077 0.075-0.073 0.078-0.069 0.082-0.065 0.085-0.061 0.089-0.056 0.091-0.051 0.094-0.047 0.095-0.041 0.098-0.037 0.1-0.031 0.102-0.026 0.102-0.021 0.103-0.015 0.105-0.01 0.104-5e-3 0.105 1e-3zm9.928 2.999-3-1-3 1-4-1 2 5h10l2-5-4 1z"/>
        <path d="m22.153 4.003 0.151 0.012 0.15 0.019 0.149 0.026 0.145 0.034 0.143 0.041 0.141 0.047 0.137 0.054 0.133 0.06 0.13 0.067 0.125 0.072 0.122 0.078 0.117 0.084 0.114 0.088 0.108 0.094 0.104 0.099 0.099 0.104 0.094 0.109 0.088 0.113 0.084 0.117 0.078 0.122 0.072 0.125 0.067 0.13 0.06 0.134 0.054 0.137 0.047 0.14 0.041 0.143 0.034 0.146 0.026 0.148 0.019 0.15 0.012 0.151 4e-3 0.153-4e-3 0.153-0.012 0.151-0.019 0.15-0.026 0.148-0.034 0.146-0.041 0.143-0.047 0.14-0.054 0.137-0.06 0.134-0.067 0.13-0.072 0.125-0.078 0.122-0.083 0.117-0.089 0.113-0.094 0.109-0.099 0.104-0.104 0.099-0.108 0.094-0.114 0.088-0.117 0.084-0.122 0.078-0.125 0.072-0.13 0.067-0.133 0.06-0.137 0.054-0.141 0.047-0.143 0.041-0.145 0.034-0.149 0.026-0.15 0.019-0.151 0.012-0.128 3e-3h-12.05l-0.128-3e-3 -0.151-0.012-0.15-0.019-0.148-0.026-0.146-0.034-0.143-0.041-0.141-0.047-0.136-0.054-0.134-0.06-0.13-0.067-0.125-0.072-0.122-0.078-0.117-0.083-0.114-0.089-0.108-0.094-0.104-0.099-0.099-0.104-0.094-0.109-0.089-0.113-0.083-0.117-0.078-0.122-0.072-0.125-0.067-0.13-0.06-0.134-0.054-0.137-0.047-0.14-0.041-0.143-0.034-0.146-0.026-0.148-0.019-0.15-0.012-0.151-4e-3 -0.153 4e-3 -0.153 0.012-0.151 0.019-0.15 0.026-0.148 0.034-0.146 0.041-0.143 0.047-0.14 0.054-0.137 0.06-0.134 0.067-0.13 0.072-0.125 0.078-0.122 0.084-0.117 0.088-0.113 0.094-0.109 0.099-0.104 0.104-0.099 0.108-0.094 0.114-0.089 0.117-0.083 0.122-0.078 0.125-0.072 0.13-0.067 0.134-0.06 0.136-0.054 0.141-0.047 0.143-0.041 0.145-0.034 0.149-0.026 0.15-0.019 0.151-0.012 0.128-3e-3h12.05l0.128 3e-3zm-12.204 1.998-0.051 4e-3 -0.05 7e-3 -0.05 8e-3 -0.048 0.011-0.047 0.014-0.047 0.016-0.045 0.018-0.045 0.02-0.043 0.022-0.042 0.024-0.04 0.026-0.039 0.028-0.038 0.029-0.036 0.032-0.035 0.033-0.033 0.035-0.032 0.036-0.029 0.038-0.028 0.039-0.026 0.04-0.024 0.042-0.022 0.043-0.02 0.045-0.018 0.045-0.016 0.047-0.014 0.047-0.011 0.048-8e-3 0.05-7e-3 0.05-4e-3 0.051-1e-3 0.051 1e-3 0.051 4e-3 0.051 7e-3 0.05 8e-3 0.05 0.011 0.048 0.014 0.047 0.016 0.047 0.018 0.045 0.02 0.045 0.022 0.043 0.024 0.042 0.026 0.04 0.028 0.039 0.029 0.038 0.032 0.036 0.033 0.035 0.035 0.033 0.036 0.032 0.038 0.029 0.039 0.028 0.04 0.026 0.042 0.024 0.043 0.022 0.045 0.02 0.045 0.018 0.047 0.016 0.047 0.014 0.048 0.011 0.05 8e-3 0.05 7e-3 0.051 4e-3 0.051 1e-3h12l0.051-1e-3 0.051-4e-3 0.05-7e-3 0.05-8e-3 0.048-0.011 0.047-0.014 0.047-0.016 0.045-0.018 0.045-0.02 0.043-0.022 0.042-0.024 0.04-0.026 0.039-0.028 0.038-0.029 0.036-0.032 0.035-0.033 0.033-0.035 0.032-0.036 0.029-0.038 0.028-0.039 0.026-0.04 0.024-0.042 0.022-0.043 0.02-0.045 0.018-0.045 0.016-0.047 0.014-0.047 0.011-0.048 8e-3 -0.05 7e-3 -0.05 4e-3 -0.051 1e-3 -0.051-1e-3 -0.051-4e-3 -0.051-7e-3 -0.05-8e-3 -0.05-0.011-0.048-0.014-0.047-0.016-0.047-0.018-0.045-0.02-0.045-0.022-0.043-0.024-0.042-0.026-0.04-0.028-0.039-0.029-0.038-0.032-0.036-0.033-0.035-0.035-0.033-0.036-0.032-0.038-0.029-0.039-0.028-0.04-0.026-0.042-0.024-0.043-0.022-0.045-0.02-0.045-0.018-0.047-0.016-0.047-0.014-0.048-0.011-0.05-8e-3 -0.05-7e-3 -0.051-4e-3 -0.051-1e-3h-12l-0.051 1e-3z"/>
    </g>
    <g id="emoji">
        <path d="m11 7s-2.853 3.566-5.151 6.439c-1.844 2.305-2.849 5.169-2.849 8.121v0.44c0 2.122 0.843 4.157 2.343 5.657s3.535 2.343 5.657 2.343h10c2.122 0 4.157-0.843 5.657-2.343s2.343-3.535 2.343-5.657v-0.44c0-2.952-1.005-5.816-2.849-8.121-2.298-2.873-5.151-6.439-5.151-6.439h-10z" fill="#d0b275"/>
        <clipPath id="_clip1">
            <path d="m11 7s-2.853 3.566-5.151 6.439c-1.844 2.305-2.849 5.169-2.849 8.121v0.44c0 2.122 0.843 4.157 2.343 5.657s3.535 2.343 5.657 2.343h10c2.122 0 4.157-0.843 5.657-2.343s2.343-3.535 2.343-5.657v-0.44c0-2.952-1.005-5.816-2.849-8.121-2.298-2.873-5.151-6.439-5.151-6.439h-10z"/>
        </clipPath>
        <g clip-path="url(#_clip1)">
            <path d="m2 15s0.517 3.101 1.025 6.151c0.563 3.375 3.483 5.849 6.905 5.849h12.228c3.383 0 6.282-2.419 6.887-5.748 0.485-2.665 0.955-5.252 0.955-5.252h1v15h-30v-16h1z" fill="#bb9240"/>
        </g>
        <path d="m11 7-2-5 4 1 3-1 3 1 4-1-2 5h-10z" fill="#d0b275"/>
        <path d="m23 7c0-0.552-0.448-1-1-1h-12c-0.552 0-1 0.448-1 1s0.448 1 1 1h12c0.552 0 1-0.448 1-1z" fill="#754628"/>
        <rect x="7" y="12" width="18" height="13" fill="none"/>
        <clipPath id="_clip2">
            <rect x="7" y="12" width="18" height="13"/>
        </clipPath>
        <g clip-path="url(#_clip2)">
            <g fill="#8e7549">
                
                    <path d="m24 18h-16v-2h16v2z"/>
                    <path d="m24 22h-16v-2h16v2z"/>
                
                <path d="m22 25h-2v-7.764l-3.632 7.264h-0.736l-3.632-7.264v7.764h-2v-13.305l1.311-0.31 4.689 9.379 4.689-9.379 1.311 0.31v13.305z"/>
            </g>
        </g>
    </g>
</svg>
