<?xml version="1.0" encoding="UTF-8"?>
<svg clip-rule="evenodd" fill-rule="evenodd" stroke-linecap="round" stroke-linejoin="round" stroke-miterlimit="1.5" viewBox="0 0 32 32" xmlns="http://www.w3.org/2000/svg">
 <clipPath id="a">
  <path d="m3 13h8v7h-8z" clip-rule="evenodd"/>
 </clipPath>
 <path d="m0 0h32v32h-32z" fill="none"/>
 <path d="m2 7h28v18h-28z" fill="none" stroke="#000" stroke-width="4"/>
 <path d="m2 21h28v4h-28z" fill="#4C2189"/>
 <path d="m2 7h28v15h-28z" fill="#9779AE"/>
 <g fill="#5B378B">
  <path d="m11 9c0-0.552-0.448-1-1-1s-1 0.448-1 1v2c0 0.552 0.448 1 1 1s1-0.448 1-1v-2z"/>
  <path d="m8 9c0-0.552-0.448-1-1-1s-1 0.448-1 1v2c0 0.552 0.448 1 1 1s1-0.448 1-1v-2z"/>
  <path d="m5 9c0-0.552-0.448-1-1-1s-1 0.448-1 1v2c0 0.552 0.448 1 1 1s1-0.448 1-1v-2z"/>
  <path d="m28 20c0-1.657-1.343-3-3-3h-3c-1.657 0-3 1.343-3 3z"/>
  <path d="m27 12.498c0-1.932-1.566-3.498-3.498-3.498h-4e-3c-1.932 0-3.498 1.566-3.498 3.498v4e-3c0 1.932 1.566 3.498 3.498 3.498h4e-3c1.932 0 3.498-1.566 3.498-3.498z"/>
 </g>
 <path d="m3 13h8v7h-8z" fill="none"/>
 <g clip-path="url(#a)" fill="#fff">
  <path d="m11 16h-8v-1h8z"/>
  <path d="m11 18h-8v-1h8z"/>
  <path d="m10 12.335v7.665h-1v-4.5l-1.771 4.25h-.458l-1.771-4.25v4.5h-1v-7.665l.706-.141 2.294 5.506 2.294-5.506z"/>
 </g>
 <path d="m12 7h8v18h-8z" fill="#fff"/>
 <path d="m12 22h8v3h-8z" fill="#d9d9d9"/>
</svg>
