<?xml version="1.0" encoding="UTF-8"?>
<!DOCTYPE svg  PUBLIC '-//W3C//DTD SVG 1.1//EN'  'http://www.w3.org/Graphics/SVG/1.1/DTD/svg11.dtd'>
<svg clip-rule="evenodd" fill-rule="evenodd" stroke-linecap="round" stroke-linejoin="round" stroke-miterlimit="1.5" version="1.1" viewBox="0 0 32 32" xml:space="preserve" xmlns="http://www.w3.org/2000/svg">
<metadata>
<rdf:RDF xmlns:cc="http://web.resource.org/cc/" xmlns:dc="http://purl.org/dc/elements/1.1/" xmlns:rdf="http://www.w3.org/1999/02/22-rdf-syntax-ns#">

     <rdf:Description rdf:about="">
       <dc:title>Mutant Standard emoji 2023.12</dc:title>
     </rdf:Description>

    <cc:work rdf:about="">
        <cc:license rdf:resource="http://creativecommons.org/licenses/by-nc-sa/4.0/"/>
        <cc:attributionName>Caius Nocturne</cc:attributionName>
        <cc:attributionURL>http://mutant.tech/</cc:attributionURL>
    </cc:work>

</rdf:RDF>
</metadata>

    <rect id="purple_money" width="32" height="32" fill="none"/>
    <g id="outline">
        <rect x="2" y="7" width="28" height="18" fill="none" stroke="#000" stroke-width="4px"/>
    </g>
    <g id="emoji">
        <rect x="2" y="21" width="28" height="4" fill="#8757e5"/>
        <rect x="2" y="7" width="28" height="15" fill="#a176f1"/>
        <g fill="#7d49e3">
            <path d="m11 9c0-0.552-0.448-1-1-1s-1 0.448-1 1v2c0 0.552 0.448 1 1 1s1-0.448 1-1v-2z"/>
            <path d="m8 9c0-0.552-0.448-1-1-1s-1 0.448-1 1v2c0 0.552 0.448 1 1 1s1-0.448 1-1v-2z"/>
            <path d="m5 9c0-0.552-0.448-1-1-1s-1 0.448-1 1v2c0 0.552 0.448 1 1 1s1-0.448 1-1v-2z"/>
            <path d="m28 20c0-1.657-1.343-3-3-3h-3c-1.657 0-3 1.343-3 3h9z"/>
            <path d="m27 12.498c0-1.932-1.566-3.498-3.498-3.498h-4e-3c-1.932 0-3.498 1.566-3.498 3.498v4e-3c0 1.932 1.566 3.498 3.498 3.498h4e-3c1.932 0 3.498-1.566 3.498-3.498v-4e-3z"/>
        </g>
        <rect x="3" y="13" width="8" height="7" fill="none"/>
        <clipPath id="_clip1">
            <rect x="3" y="13" width="8" height="7"/>
        </clipPath>
        <g clip-path="url(#_clip1)" fill="#fff">
            <path d="m11 16h-8v-1h8v1z"/>
            <path d="m11 18h-8v-1h8v1z"/>
            <path d="m10 12.335v7.665h-1v-4.5l-1.771 4.25h-0.458l-1.771-4.25v4.5h-1v-7.665l0.706-0.141 2.294 5.506 2.294-5.506 0.706 0.141z"/>
        </g>
        <rect x="12" y="7" width="8" height="18" fill="#fff"/>
        <rect x="12" y="22" width="8" height="3" fill="#d9d9d9"/>
    </g>
</svg>
