<?xml version="1.0" encoding="UTF-8"?>
<svg clip-rule="evenodd" fill-rule="evenodd" stroke-linecap="round" stroke-linejoin="round" stroke-miterlimit="1.5" viewBox="0 0 32 32" xmlns="http://www.w3.org/2000/svg">
 <clipPath id="a">
  <path d="m7 11h8v7h-8z" clip-rule="evenodd"/>
 </clipPath>
 <path d="m0 0h32v32h-32z" fill="none"/>
 <path d="m2 7h28v18h-28z" fill="none" stroke="#000" stroke-width="4"/>
 <path d="m29 21h-26l-1 1v3h28v-3z" fill="#beb735"/>
 <path d="m2 7h28v15h-28z" fill="#dfd970"/>
 <path d="m24 12c0-0.552-0.448-1-1-1h-3c-0.552 0-1 0.448-1 1v1c0 0.552 0.448 1 1 1h3c0.552 0 1-0.448 1-1v-1z" fill="#b7b02b"/>
 <path d="m24 16c0-0.552-0.448-1-1-1h-3c-0.552 0-1 0.448-1 1v1c0 0.552 0.448 1 1 1h3c0.552 0 1-0.448 1-1v-1z" fill="#b7b02b"/>
 <g fill="none">
  <path d="m25 10s0.771-0.771 1.207-1.207c0.188-0.188 0.442-0.293 0.707-0.293h1.586v1.586c0 0.265-0.105 0.519-0.293 0.707l-1.207 1.207" stroke="#b2ab1d" stroke-linecap="butt" stroke-linejoin="miter"/>
  <path d="m7 10s-0.771-0.771-1.207-1.207c-0.188-0.188-0.442-0.293-0.707-0.293h-1.586v1.586c0 0.265 0.105 0.519 0.293 0.707l1.207 1.207" stroke="#b2ab1d" stroke-linecap="butt" stroke-linejoin="miter"/>
  <path d="m25 19s0.771 0.771 1.207 1.207c0.188 0.188 0.442 0.293 0.707 0.293h1.586v-1.586c0-0.265-0.105-0.519-0.293-0.707l-1.207-1.207" stroke="#b2ab1d" stroke-linecap="butt" stroke-linejoin="miter"/>
  <path d="m7 19s-0.771 0.771-1.207 1.207c-0.188 0.188-0.442 0.293-0.707 0.293h-1.586v-1.586c0-0.265 0.105-0.519 0.293-0.707l1.207-1.207" stroke="#b2ab1d" stroke-linecap="butt" stroke-linejoin="miter"/>
  <path d="m7 11h8v7h-8z"/>
 </g>
 <g clip-path="url(#a)" fill="#fff">
  <path d="m15 14h-8v-1h8z"/>
  <path d="m15 16h-8v-1h8z"/>
  <path d="m14 10.335v7.665h-1v-4.5l-1.771 4.25h-.458l-1.771-4.25v4.5h-1v-7.665l.706-.141 2.294 5.506 2.294-5.506z"/>
 </g>
 <path d="m20 22-1-1h-6l-1 1v3h8z" fill="#d9d9d9"/>
 <path d="m12 7h8v15h-8z" fill="#fff"/>
</svg>
