<?xml version="1.0" encoding="UTF-8"?>
<!DOCTYPE svg  PUBLIC '-//W3C//DTD SVG 1.1//EN'  'http://www.w3.org/Graphics/SVG/1.1/DTD/svg11.dtd'>
<svg clip-rule="evenodd" fill-rule="evenodd" stroke-linecap="round" stroke-linejoin="round" stroke-miterlimit="1.5" version="1.1" viewBox="0 0 32 32" xml:space="preserve" xmlns="http://www.w3.org/2000/svg">
<metadata>
<rdf:RDF xmlns:cc="http://web.resource.org/cc/" xmlns:dc="http://purl.org/dc/elements/1.1/" xmlns:rdf="http://www.w3.org/1999/02/22-rdf-syntax-ns#">

     <rdf:Description rdf:about="">
       <dc:title>Mutant Standard emoji 2023.12</dc:title>
     </rdf:Description>

    <cc:work rdf:about="">
        <cc:license rdf:resource="http://creativecommons.org/licenses/by-nc-sa/4.0/"/>
        <cc:attributionName>Caius Nocturne</cc:attributionName>
        <cc:attributionURL>http://mutant.tech/</cc:attributionURL>
    </cc:work>

</rdf:RDF>
</metadata>

    <rect id="yellow_money" width="32" height="32" fill="none"/>
    <g id="outline">
        <rect x="2" y="7" width="28" height="18" fill="none" stroke="#000" stroke-width="4px"/>
    </g>
    <g id="emoji">
        <path d="m29 21h-26l-1 1v3h28v-3l-1-1z" fill="#beb735"/>
        <rect x="2" y="7" width="28" height="15" fill="#dfd970"/>
        <g fill="#b7b02b">
            <path d="m24 12c0-0.552-0.448-1-1-1h-3c-0.552 0-1 0.448-1 1v1c0 0.552 0.448 1 1 1h3c0.552 0 1-0.448 1-1v-1z"/>
            <path d="m24 16c0-0.552-0.448-1-1-1h-3c-0.552 0-1 0.448-1 1v1c0 0.552 0.448 1 1 1h3c0.552 0 1-0.448 1-1v-1z"/>
        </g>
        <path d="m25 10 1.207-1.207c0.188-0.188 0.442-0.293 0.707-0.293h1.586v1.586c0 0.265-0.105 0.519-0.293 0.707l-1.207 1.207" fill="none" stroke="#b2ab1d" stroke-linecap="butt" stroke-linejoin="miter" stroke-width="1px"/>
        <path d="m7 10-1.207-1.207c-0.188-0.188-0.442-0.293-0.707-0.293h-1.586v1.586c0 0.265 0.105 0.519 0.293 0.707l1.207 1.207" fill="none" stroke="#b2ab1d" stroke-linecap="butt" stroke-linejoin="miter" stroke-width="1px"/>
        <path d="m25 19 1.207 1.207c0.188 0.188 0.442 0.293 0.707 0.293h1.586v-1.586c0-0.265-0.105-0.519-0.293-0.707l-1.207-1.207" fill="none" stroke="#b2ab1d" stroke-linecap="butt" stroke-linejoin="miter" stroke-width="1px"/>
        <path d="m7 19-1.207 1.207c-0.188 0.188-0.442 0.293-0.707 0.293h-1.586v-1.586c0-0.265 0.105-0.519 0.293-0.707l1.207-1.207" fill="none" stroke="#b2ab1d" stroke-linecap="butt" stroke-linejoin="miter" stroke-width="1px"/>
        <rect x="7" y="11" width="8" height="7" fill="none"/>
        <clipPath id="_clip1">
            <rect x="7" y="11" width="8" height="7"/>
        </clipPath>
        <g clip-path="url(#_clip1)" fill="#fff">
            <path d="m15 14h-8v-1h8v1z"/>
            <path d="m15 16h-8v-1h8v1z"/>
            <path d="m14 10.335v7.665h-1v-4.5l-1.771 4.25h-0.458l-1.771-4.25v4.5h-1v-7.665l0.706-0.141 2.294 5.506 2.294-5.506 0.706 0.141z"/>
        </g>
        <path d="m20 22-1-1h-6l-1 1v3h8v-3z" fill="#d9d9d9"/>
        <rect x="12" y="7" width="8" height="15" fill="#fff"/>
    </g>
</svg>
